<?xml version="1.0" standalone="no"?>
<!DOCTYPE svg PUBLIC "-//W3C//DTD SVG 20010904//EN"
 "http://www.w3.org/TR/2001/REC-SVG-20010904/DTD/svg10.dtd">
<svg version="1.0" xmlns="http://www.w3.org/2000/svg"
 width="1024.000000pt" height="559.000000pt" viewBox="0 0 1024.000000 559.000000"
 preserveAspectRatio="xMidYMid meet">
<metadata>
Created by potrace 1.16, written by Peter Selinger 2001-2019
</metadata>
<g transform="translate(0.000000,559.000000) scale(0.100000,-0.100000)"
fill="#000000" stroke="none">
<path d="M3130 4394 c-126 -18 -194 -36 -385 -99 -121 -40 -258 -88 -305 -108
-47 -19 -134 -51 -195 -72 -109 -36 -135 -49 -122 -61 8 -8 172 45 352 115
165 65 434 152 535 175 102 24 219 30 296 17 112 -20 450 -116 725 -206 366
-121 444 -139 604 -139 143 -1 230 17 375 76 353 145 480 179 678 180 255 1
418 -52 762 -247 92 -52 208 -114 256 -137 109 -51 316 -128 326 -122 20 12 1
24 -84 54 -51 18 -158 64 -238 103 -118 57 -141 71 -125 78 11 4 91 22 178 39
228 45 321 75 531 172 218 100 316 129 454 136 108 5 251 -8 336 -29 26 -7 42
-7 49 0 15 15 -25 27 -146 45 -236 35 -416 10 -629 -88 l-70 -33 -131 45
c-123 43 -140 46 -256 50 -142 5 -194 -6 -351 -70 -52 -22 -134 -55 -181 -75
l-87 -35 -123 50 c-140 56 -212 75 -349 93 -157 19 -352 -7 -546 -75 -115 -40
-89 -42 -394 35 -192 48 -213 52 -325 52 -126 -1 -202 -15 -446 -84 l-107 -30
-73 25 c-73 24 -170 52 -423 121 -168 47 -278 61 -366 49z m3842 -89 c72 -12
268 -72 268 -81 0 -8 -59 -34 -160 -69 -116 -40 -160 -51 -395 -100 l-160 -34
-102 57 c-56 31 -99 60 -95 64 4 3 36 18 72 31 36 14 90 36 120 50 91 41 172
67 251 82 95 17 108 17 201 0z m-2327 -25 c77 -12 446 -99 458 -110 11 -9
-171 -80 -288 -111 -65 -18 -282 -18 -355 0 -171 41 -417 118 -408 126 2 2 76
23 163 45 234 60 301 68 430 50z"/>
<path d="M7590 4024 c-17 -53 -36 -129 -42 -170 -12 -79 -18 -82 -38 -21 -19
60 -35 46 -61 -53 l-23 -90 -107 0 -107 0 -7 48 c-3 26 -10 63 -16 82 -5 19
-13 54 -19 78 -6 25 -17 42 -25 42 -17 0 -41 -74 -57 -177 l-12 -73 -327 0
c-326 0 -327 0 -395 26 -65 24 -69 24 -81 8 -7 -10 -13 -21 -13 -26 0 -4 -519
-8 -1154 -8 l-1154 0 -51 34 c-59 40 -110 51 -171 37 -90 -21 -154 -14 -226
24 -43 23 -79 35 -105 35 -42 0 -103 -21 -129 -45 -14 -13 -21 -12 -55 5 -51
26 -88 25 -136 -2 l-39 -22 -45 22 c-26 12 -65 22 -89 22 -37 0 -43 3 -39 18
5 21 -44 263 -56 275 -4 4 -14 1 -21 -8 -17 -21 -49 -177 -50 -244 0 -30 -2
-52 -5 -49 -3 2 -12 47 -21 99 -19 119 -32 159 -49 159 -16 0 -28 -39 -46
-152 l-13 -78 -51 0 c-92 0 -159 -37 -185 -101 l-12 -28 -121 -3 c-85 -2 -122
-7 -125 -15 -3 -10 417 -13 2076 -13 1431 0 2081 -3 2084 -10 4 -12 184 -97
287 -136 35 -13 125 -40 200 -59 158 -40 238 -62 376 -104 55 -17 106 -31 114
-31 7 0 29 -14 48 -30 77 -68 216 -118 438 -159 61 -11 130 -26 154 -33 l44
-13 -49 -41 c-27 -22 -112 -85 -189 -139 -273 -192 -305 -216 -321 -243 -18
-31 -17 -31 -329 -77 -93 -14 -186 -27 -205 -30 -55 -8 -22 7 185 84 272 102
435 173 435 189 0 8 -6 12 -12 9 -7 -3 -78 -32 -158 -65 -80 -32 -181 -73
-225 -89 -44 -17 -152 -58 -240 -91 -148 -56 -172 -62 -325 -81 -235 -30 -370
-48 -485 -66 -131 -20 -534 -72 -705 -90 -387 -42 -1159 -109 -1167 -101 -2 2
18 12 46 21 50 16 68 35 34 35 -10 0 -49 -14 -88 -30 -38 -17 -94 -34 -125
-40 -51 -9 -581 -70 -608 -70 -19 0 -14 45 8 65 57 52 701 216 1215 310 50 9
124 23 165 31 41 8 242 44 445 79 635 111 762 136 1030 200 265 63 443 101
985 211 96 20 179 40 184 44 12 12 -19 24 -41 16 -9 -4 -125 -29 -257 -56
-133 -27 -317 -65 -411 -84 -93 -19 -276 -60 -405 -91 -129 -31 -324 -74 -432
-96 l-198 -39 -47 34 c-27 19 -78 47 -115 62 l-68 28 0 112 c0 126 -4 144 -31
144 -14 0 -19 -7 -19 -25 0 -16 -6 -25 -15 -25 -8 0 -15 9 -15 20 0 21 -34 29
-45 10 -4 -6 -15 -8 -25 -5 -23 7 -30 -4 -34 -52 -3 -29 -8 -39 -24 -41 -16
-3 -21 3 -24 25 -2 15 -7 28 -13 28 -5 1 -20 6 -31 13 -18 9 -24 9 -34 -3 -9
-11 -16 -12 -30 -3 -15 10 -22 8 -39 -13 l-20 -24 -1 66 0 66 38 7 c20 3 146
6 280 6 215 0 242 2 242 16 0 14 -27 15 -280 9 l-280 -8 0 26 c0 62 -32 78
-54 26 -10 -25 -15 -28 -24 -16 -7 8 -9 17 -5 20 11 12 -27 19 -41 8 -7 -6
-20 -9 -29 -6 -10 4 -18 -4 -26 -26 -11 -31 -12 -32 -60 -26 -27 3 -59 12 -70
19 -17 11 -22 10 -33 -5 -13 -17 -29 -17 -277 -7 -145 6 -266 9 -269 6 -3 -3
-2 -9 1 -13 9 -8 246 -22 397 -22 106 -1 116 -3 128 -22 7 -12 11 -23 8 -26
-3 -3 -37 -9 -76 -12 -55 -5 -69 -4 -66 6 11 28 -66 41 -110 18 -24 -12 -24
-14 -7 -24 16 -9 15 -10 -10 -11 -23 0 -29 5 -34 31 -4 23 -10 29 -27 27 -19
-3 -21 -10 -22 -73 -1 -41 -6 -71 -13 -73 -6 -2 -11 1 -11 7 0 15 -69 12 -107
-5 -17 -8 -35 -23 -38 -34 -4 -11 -17 -23 -30 -26 -13 -3 -27 -15 -30 -25 -4
-10 -13 -19 -21 -19 -8 0 -22 -8 -33 -19 -15 -15 -17 -26 -11 -60 4 -22 5 -51
3 -64 -3 -14 2 -29 11 -36 9 -8 16 -18 16 -23 0 -5 13 -23 29 -39 28 -27 34
-29 85 -25 l56 5 0 -43 c0 -26 -6 -48 -15 -56 -8 -7 -12 -16 -9 -22 4 -5 10
-5 17 1 7 5 31 8 55 7 40 -2 57 13 32 29 -18 11 -11 71 10 90 17 15 24 16 46
6 23 -10 30 -9 48 7 12 10 29 22 39 25 10 4 18 18 19 34 3 52 4 58 10 68 16
28 18 84 3 98 -8 9 -15 22 -15 29 -1 20 -36 58 -54 58 -20 0 -36 31 -36 69 0
24 4 31 20 31 15 0 20 -7 20 -26 0 -21 4 -25 23 -23 12 2 28 -1 36 -5 9 -6 18
-3 27 9 18 25 29 13 14 -15 -9 -17 -9 -25 2 -38 21 -28 38 -61 38 -77 0 -8 5
-15 10 -15 6 0 15 -12 20 -26 7 -18 16 -25 32 -22 18 2 25 15 39 68 22 81 23
109 5 116 -8 3 -16 14 -19 25 -3 11 -14 19 -26 19 -42 0 -19 18 32 24 28 4 76
14 105 22 29 9 58 13 65 10 7 -3 3 -7 -10 -11 -13 -4 -23 -15 -23 -26 0 -11
-4 -19 -10 -19 -16 0 -12 -46 5 -60 8 -7 15 -18 15 -24 0 -6 -4 -5 -9 3 -7 10
-10 10 -16 1 -8 -13 11 -30 36 -30 8 0 24 -7 35 -15 17 -13 14 -14 -38 -15
l-57 0 -3 32 c-2 21 -9 34 -20 36 -27 5 -38 -58 -38 -229 0 -139 2 -158 17
-163 34 -14 43 20 43 165 l0 137 55 4 c30 1 55 0 55 -4 0 -5 -3 -8 -8 -8 -4 0
-12 -16 -18 -36 -9 -28 -9 -38 2 -49 8 -7 14 -18 14 -23 0 -15 34 -72 43 -72
4 0 7 -9 7 -21 0 -16 5 -20 27 -17 19 2 29 10 31 23 2 11 15 44 29 73 20 40
23 56 14 65 -6 6 -11 21 -11 33 0 23 -31 41 -50 29 -5 -3 -10 1 -10 9 0 23 36
20 61 -5 20 -20 22 -20 40 -3 19 17 19 15 19 -103 0 -111 2 -121 19 -126 11
-3 22 -2 25 1 3 3 6 67 6 143 0 136 9 175 32 135 8 -15 11 -15 35 4 36 28 39
19 12 -29 -16 -29 -19 -44 -12 -53 6 -7 14 -28 18 -45 3 -18 11 -36 16 -39 6
-3 14 -17 20 -31 12 -33 38 -26 62 17 11 19 19 35 17 35 -1 0 3 12 9 27 10 25
13 27 36 16 22 -10 25 -17 25 -64 0 -56 9 -69 40 -59 15 5 20 17 22 56 l3 51
93 -47 c50 -25 92 -50 92 -54 0 -4 -71 -20 -157 -34 -87 -15 -194 -33 -238
-41 -44 -8 -147 -26 -230 -41 -82 -14 -170 -30 -195 -35 -25 -5 -108 -21 -185
-35 -398 -74 -681 -138 -975 -219 -111 -30 -264 -86 -282 -103 -10 -9 -21 -34
-24 -55 -4 -21 -12 -38 -18 -38 -7 0 -65 -7 -130 -16 -65 -8 -120 -14 -121
-12 -3 3 13 51 30 91 13 30 -30 20 -66 -15 l-32 -32 7 49 c5 28 14 68 22 90
14 43 13 50 -10 42 -20 -8 -59 -70 -82 -134 l-20 -52 -38 40 c-35 35 -80 59
-91 47 -3 -2 9 -26 26 -52 16 -27 32 -61 36 -76 5 -27 3 -29 -33 -35 -50 -8
-133 -20 -259 -39 -188 -28 -430 -67 -448 -72 -29 -9 -8 -25 26 -20 66 11 427
66 562 86 193 28 185 26 185 56 0 14 -7 39 -16 55 -8 17 -14 33 -12 35 6 6 44
-48 52 -74 13 -39 33 -25 38 26 3 26 12 63 21 82 l16 35 -2 -74 c-2 -81 12
-103 33 -52 7 17 19 36 28 43 13 11 14 10 7 -12 -5 -14 -9 -34 -9 -45 -1 -25
4 -25 332 16 134 17 251 29 260 26 34 -7 -252 -64 -673 -133 -235 -39 -713
-149 -733 -168 -19 -20 25 -14 155 18 274 68 323 78 743 152 370 65 471 86
598 125 101 31 329 61 602 79 170 11 400 31 640 55 85 8 198 20 250 25 125 12
470 55 640 80 262 37 544 75 1010 135 157 20 335 49 436 70 27 6 33 4 39 -14
11 -35 64 -67 220 -135 81 -36 152 -69 157 -74 5 -5 -29 -36 -84 -75 -169
-121 -233 -173 -275 -228 -71 -90 -69 -89 -119 -89 -78 0 -214 -39 -324 -92
-96 -47 -115 -60 -220 -165 -137 -137 -209 -187 -288 -203 -31 -6 -97 -22
-147 -36 -62 -16 -91 -20 -96 -13 -12 21 -70 -2 -117 -47 -25 -24 -47 -44 -48
-44 -3 0 1 19 27 128 12 51 19 95 17 98 -22 21 -100 -80 -138 -178 l-28 -72
-12 44 c-62 242 -124 390 -163 390 -15 0 0 -131 34 -303 16 -82 29 -157 29
-166 0 -9 -23 18 -50 61 -44 68 -137 164 -182 189 -31 17 -28 -8 7 -54 35 -46
118 -207 111 -214 -2 -2 -20 7 -41 21 -42 29 -74 41 -83 31 -3 -3 -2 -12 3
-19 6 -7 25 -32 43 -56 17 -24 32 -46 32 -49 -1 -3 -49 -32 -108 -65 -124 -66
-160 -91 -149 -102 8 -9 37 5 167 81 52 30 97 55 101 55 3 0 10 -15 15 -32 6
-18 14 -31 19 -28 16 8 6 52 -26 108 -33 59 -19 60 35 3 63 -66 60 -22 -8 126
l-46 98 38 -41 c20 -23 53 -69 72 -103 19 -33 44 -76 55 -94 l20 -32 3 52 c2
30 -10 119 -27 205 -16 84 -32 176 -36 203 -5 45 -5 48 8 32 21 -26 82 -214
108 -332 27 -126 27 -125 38 -125 5 0 12 25 16 56 4 31 15 81 26 112 19 55 66
138 74 130 3 -2 -2 -27 -9 -55 -21 -77 -30 -170 -17 -177 5 -4 24 14 40 38 31
45 101 109 110 101 2 -3 -4 -39 -14 -80 -10 -41 -16 -78 -12 -81 11 -12 19 2
37 68 20 76 24 78 204 123 72 17 149 41 171 53 53 28 125 90 217 187 118 124
272 202 448 226 41 6 90 13 107 15 26 4 40 16 69 59 20 30 57 73 82 96 45 40
274 208 358 263 l41 27 244 -80 c134 -45 308 -102 386 -128 78 -26 145 -44
149 -40 4 4 5 10 2 13 -3 3 -192 67 -420 143 -416 139 -666 235 -675 258 -12
30 10 61 72 107 36 26 63 52 59 57 -15 24 -164 -102 -164 -139 0 -22 -1 -22
-25 -6 -14 9 -25 24 -25 34 0 17 268 219 499 376 9 6 26 9 39 5 20 -5 12 -14
-67 -74 -129 -98 -167 -142 -180 -210 -13 -62 -7 -103 18 -117 36 -19 142 -51
306 -93 94 -24 265 -75 380 -112 331 -106 355 -113 360 -105 3 4 -1 12 -8 17
-25 19 -557 181 -862 263 -149 40 -175 53 -175 85 0 25 1 25 24 10 13 -9 112
-38 220 -66 232 -58 763 -212 852 -246 8 -3 14 1 14 9 0 21 -587 199 -880 268
-74 17 -149 38 -166 45 -31 13 -54 41 -54 65 0 20 86 103 185 179 110 83 185
149 185 162 0 18 -21 8 -59 -26 -54 -49 -111 -47 -111 5 0 26 -5 30 -67 48
-38 11 -80 23 -95 26 -26 6 -28 10 -28 62 0 48 2 55 18 50 9 -3 73 -14 142
-25 141 -23 283 -50 445 -86 564 -125 619 -135 628 -126 7 7 6 12 -4 15 -16 6
-323 73 -644 142 -115 24 -221 47 -234 50 -23 5 -23 6 -16 94 7 87 7 88 -19
105 -17 11 -32 14 -48 9 -13 -4 -29 -7 -37 -5 -7 1 -24 -8 -38 -21 -13 -12
-30 -23 -36 -24 -7 0 -20 -2 -29 -2 -29 -3 -58 -39 -58 -72 0 -35 0 -35 -100
-16 -108 21 -110 22 -110 65 0 29 5 39 29 53 48 27 65 71 63 166 -2 68 1 82
13 82 17 0 20 -7 29 -61 4 -20 19 -49 34 -64 15 -15 27 -32 28 -38 0 -7 2 -22
2 -34 3 -40 22 -25 22 17 0 28 5 42 19 49 20 11 51 78 51 111 0 18 9 20 98 22
127 4 128 22 1 26 l-97 3 -11 82 c-15 99 -49 235 -63 243 -22 14 -40 -29 -63
-142 -14 -65 -24 -134 -25 -151 0 -30 -3 -33 -29 -33 -33 0 -35 6 -46 125 -8
84 -42 261 -56 287 -5 10 -14 18 -19 18 -5 0 -23 -43 -40 -96z m63 -56 c9 -51
19 -120 22 -153 3 -33 15 -103 26 -155 25 -117 20 -171 -22 -212 -41 -41 -76
-36 -106 17 -19 34 -23 55 -23 135 0 52 5 122 10 155 6 33 15 86 21 117 9 56
47 188 53 188 2 0 11 -42 19 -92z m-4818 -166 c-14 -73 -65 -43 -65 37 0 52
18 169 28 185 10 17 44 -185 37 -222z m-144 59 c15 -106 8 -144 -24 -139 -21
3 -22 7 -21 98 0 52 4 113 8 135 8 37 9 38 17 17 5 -13 14 -63 20 -111z m5203
-39 c27 -154 19 -243 -24 -269 -16 -11 -22 -9 -39 14 -32 40 -28 164 11 353
l11 55 13 -30 c6 -17 19 -72 28 -123z m-718 -113 c6 -63 4 -80 -11 -103 -16
-25 -19 -25 -35 -11 -28 25 -32 78 -15 173 9 48 19 94 22 102 8 23 32 -75 39
-161z m344 -89 c7 -140 24 -192 72 -219 20 -11 28 -24 28 -43 0 -31 -6 -33
-60 -17 -36 11 -39 15 -43 58 -10 87 -16 106 -41 126 -23 18 -26 28 -26 85 0
36 8 96 17 135 l17 69 14 -34 c9 -21 18 -86 22 -160z m-4909 133 c3 -18 12
-40 19 -48 11 -13 -3 -15 -119 -15 l-132 0 22 31 c36 52 76 70 144 67 58 -3
59 -4 66 -35z m896 1 c66 -35 70 -36 143 -29 142 14 182 12 220 -12 l35 -23
-542 0 c-530 0 -543 0 -543 19 0 11 12 29 26 40 34 27 93 27 144 1 48 -25 58
-25 90 0 32 25 85 25 135 0 33 -17 41 -18 54 -6 66 57 143 61 238 10z m-734
-12 c9 -8 17 -23 17 -34 0 -15 -8 -18 -46 -18 -25 0 -44 3 -42 8 3 4 10 22 17
39 13 33 20 34 54 5z m3627 -72 c130 -52 225 -82 328 -105 l82 -19 0 -37 0
-37 -42 10 c-106 25 -215 62 -317 108 -61 28 -115 50 -120 50 -16 0 -41 31
-41 51 0 10 2 19 4 19 2 0 50 -18 106 -40z m680 -34 c0 -14 11 -38 25 -54 14
-17 25 -40 25 -52 0 -25 23 -22 28 4 2 10 15 34 28 53 13 20 24 44 24 54 0 17
9 19 105 19 l105 0 0 -50 c0 -46 -2 -50 -23 -50 -13 0 -27 -3 -31 -7 -4 -4
-21 -6 -39 -5 -37 3 -77 -27 -77 -58 0 -31 -17 -33 -98 -6 -91 29 -262 76
-279 76 -9 0 -13 -16 -13 -44 0 -25 -4 -48 -10 -51 -6 -4 -10 13 -10 43 0 28
-5 54 -12 59 -7 5 -51 17 -97 27 -95 20 -181 45 -195 58 -6 4 115 8 267 8
l277 0 0 -24z m-32 -151 c82 -24 169 -48 193 -51 24 -4 71 -22 104 -40 62 -33
247 -96 323 -109 41 -7 42 -8 44 -46 1 -21 2 -47 2 -56 1 -23 -39 -20 -154 14
-114 33 -224 86 -249 122 -16 22 -31 29 -63 33 -24 3 -95 21 -158 40 -63 20
-136 41 -162 48 -47 12 -48 14 -48 51 0 22 4 39 9 39 5 0 77 -20 159 -45z
m397 26 c18 -11 31 -27 33 -42 1 -13 5 -42 8 -63 6 -38 6 -39 -20 -32 -27 7
-112 45 -156 71 -14 8 -29 16 -35 18 -6 2 -5 14 3 32 11 24 17 27 46 22 18 -3
39 -1 47 4 20 13 40 10 74 -10z m653 -189 c3 -96 10 -92 -121 -67 -92 18 -97
20 -97 46 0 32 38 62 71 55 25 -5 31 -1 41 19 8 19 16 23 33 19 13 -3 26 -1
30 6 4 6 14 10 23 8 14 -3 18 -18 20 -86z m-338 -108 c0 -34 -4 -53 -10 -49
-5 3 -10 28 -10 56 0 27 5 49 10 49 6 0 10 -25 10 -56z m-2806 35 c-3 -6 0
-16 7 -21 11 -7 11 -11 2 -15 -7 -2 -13 -12 -13 -21 0 -12 -3 -13 -12 -4 -7 7
-20 12 -30 12 -29 0 -20 25 17 47 26 15 38 16 29 2z m86 2 c0 -6 -4 -13 -10
-16 -5 -3 -10 1 -10 9 0 9 5 16 10 16 6 0 10 -4 10 -9z m-290 -52 c0 -6 6 -9
13 -6 10 4 13 -2 9 -18 -5 -30 -42 -42 -42 -14 0 10 -5 19 -10 19 -6 0 -5 6 2
15 16 17 28 19 28 4z m290 -69 c0 -47 -4 -80 -10 -80 -11 0 -14 142 -3 153 12
13 13 7 13 -73z m-200 39 c-37 -10 -50 -10 -50 0 0 11 39 19 60 12 10 -4 7 -7
-10 -12z m159 -61 c-9 -92 -26 -135 -56 -141 -27 -5 -26 -6 -11 30 6 15 10 33
9 39 -1 7 6 14 15 18 16 6 14 29 -9 74 -8 17 -17 22 -33 18 -13 -4 -25 -2 -29
3 -8 14 35 25 48 12 15 -15 27 -14 27 4 0 9 9 15 23 15 22 0 22 -2 16 -72z
m-609 20 c0 -5 -4 -8 -10 -8 -5 0 -10 10 -10 23 0 18 2 19 10 7 5 -8 10 -18
10 -22z m150 12 c0 -5 -5 -12 -10 -15 -7 -5 -8 -11 -1 -19 14 -17 0 -32 -31
-31 -31 0 -32 1 -18 41 7 21 17 29 35 30 14 1 25 -2 25 -6z m390 -20 c0 -5 -4
-10 -10 -10 -5 0 -10 5 -10 10 0 6 5 10 10 10 6 0 10 -4 10 -10z m-40 -10 c0
-5 -4 -10 -10 -10 -5 0 -10 5 -10 10 0 6 5 10 10 10 6 0 10 -4 10 -10z m-40
-10 c0 -5 -2 -10 -4 -10 -3 0 -8 5 -11 10 -3 6 -1 10 4 10 6 0 11 -4 11 -10z
m530 -47 c0 -2 -4 -1 -10 2 -5 3 -10 -3 -10 -14 0 -22 -14 -28 -25 -11 -3 6
-15 10 -27 10 -14 0 -18 5 -14 16 3 9 6 20 6 25 0 5 9 9 19 9 11 0 23 5 26 11
6 9 35 -31 35 -48z m60 42 c0 -8 -4 -15 -10 -15 -5 0 -7 7 -4 15 4 8 8 15 10
15 2 0 4 -7 4 -15z m-1051 -32 c0 -31 -2 -34 -9 -18 -12 28 -12 55 0 55 6 0
10 -17 9 -37z m214 30 c-7 -2 -21 -2 -30 0 -10 3 -4 5 12 5 17 0 24 -2 18 -5z
m342 -13 c3 -5 1 -10 -4 -10 -6 0 -11 5 -11 10 0 6 2 10 4 10 3 0 8 -4 11 -10z
m-345 -20 c0 -5 -4 -10 -10 -10 -5 0 -10 5 -10 10 0 6 5 10 10 10 6 0 10 -4
10 -10z m594 -5 c17 -13 17 -15 2 -30 -13 -13 -20 -14 -30 -6 -11 9 -15 9 -19
-1 -4 -8 -6 -7 -6 5 -1 9 4 17 9 17 6 0 10 7 10 15 0 19 9 19 34 0z m-74 1 c0
-3 -4 -8 -10 -11 -5 -3 -10 -1 -10 4 0 6 5 11 10 11 6 0 10 -2 10 -4z m320
-136 c0 -87 -4 -140 -10 -140 -6 0 -10 51 -10 133 0 117 3 147 17 147 2 0 3
-63 3 -140z m2489 98 c-13 -9 -81 -57 -150 -107 -188 -132 -312 -225 -333
-249 -25 -29 -15 -65 26 -90 18 -11 103 -48 188 -82 85 -34 157 -64 159 -66 3
-2 -4 -10 -15 -18 -16 -12 -23 -12 -46 0 -15 8 -94 44 -175 80 -162 71 -193
93 -193 135 0 35 33 64 227 197 82 56 189 133 238 170 50 37 92 63 94 58 2 -6
-7 -18 -20 -28z m-2523 0 c-3 -13 -5 -44 -5 -70 -1 -40 -4 -48 -20 -48 -14 0
-21 10 -25 36 -4 19 -14 37 -22 40 -47 14 -47 15 -36 26 9 9 18 9 37 0 23 -11
26 -9 35 13 12 32 42 34 36 3z m-1131 2 c5 -8 11 -7 21 1 12 10 17 8 28 -7 11
-15 17 -16 29 -6 11 9 17 10 22 2 4 -6 13 -9 20 -6 7 2 16 -2 19 -10 3 -8 12
-14 21 -14 8 0 15 -7 15 -15 0 -8 7 -15 15 -15 8 0 15 -7 15 -16 0 -9 7 -22
17 -29 11 -8 13 -17 7 -26 -5 -8 -7 -21 -6 -30 2 -9 -4 -19 -13 -23 -11 -4
-13 -11 -7 -21 14 -27 2 -75 -19 -75 -10 0 -23 -10 -30 -21 -10 -19 -13 -20
-26 -6 -12 11 -12 19 -4 35 6 11 11 38 11 60 0 26 6 45 20 57 11 10 20 23 20
29 0 6 -5 5 -12 -2 -16 -16 -28 -15 -28 3 0 8 -4 15 -10 15 -5 0 -10 -12 -10
-26 0 -14 -4 -23 -10 -19 -5 3 -10 19 -10 35 0 16 -4 32 -10 35 -16 10 -12
-58 6 -83 18 -25 12 -73 -12 -93 -12 -10 -14 -5 -15 27 -2 62 -13 99 -29 99
-10 0 -14 -8 -12 -24 5 -30 -6 -91 -16 -91 -4 0 -15 7 -25 14 -17 13 -17 16
-3 45 9 16 12 32 7 35 -4 3 -14 -7 -21 -22 -12 -25 -13 -26 -20 -7 -4 11 -5
32 -3 48 3 16 1 27 -6 27 -6 0 -11 -9 -11 -20 0 -23 -10 -26 -28 -8 -9 9 -12
9 -12 -3 0 -8 9 -20 20 -27 11 -7 20 -22 20 -33 0 -17 -5 -20 -25 -17 -39 8
-29 -8 20 -32 42 -21 74 -55 61 -67 -3 -3 -28 -7 -55 -8 -42 -2 -52 1 -56 16
-4 11 -13 19 -21 19 -8 0 -14 9 -14 19 0 11 -5 21 -12 23 -14 5 -20 78 -6 78
4 0 3 8 -3 19 -16 25 -5 51 22 51 13 0 23 8 26 20 4 14 12 20 27 18 15 -2 25
6 36 30 12 24 19 29 27 21 8 -8 13 -5 18 10 7 23 20 27 30 11z m305 0 c0 -5
-2 -10 -4 -10 -3 0 -8 5 -11 10 -3 6 -1 10 4 10 6 0 11 -4 11 -10z m50 0 c0
-5 -4 -10 -10 -10 -5 0 -10 5 -10 10 0 6 5 10 10 10 6 0 10 -4 10 -10z m60 0
c0 -5 -5 -10 -11 -10 -5 0 -7 5 -4 10 3 6 8 10 11 10 2 0 4 -4 4 -10z m175 0
c3 -5 1 -10 -4 -10 -6 0 -11 5 -11 10 0 6 2 10 4 10 3 0 8 -4 11 -10z m212
-20 c-3 -33 -36 -68 -48 -49 -5 8 -9 17 -9 22 0 4 -7 7 -16 7 -10 0 -12 4 -7
13 4 6 8 15 9 20 1 4 2 8 3 10 0 1 16 2 35 2 30 0 34 -3 33 -25z m-167 -4 c0
-3 -4 -8 -10 -11 -5 -3 -10 -1 -10 4 0 6 5 11 10 11 6 0 10 -2 10 -4z m370 0
c0 -11 -19 -15 -25 -6 -3 5 1 10 9 10 9 0 16 -2 16 -4z m-670 -16 c0 -5 -4
-10 -10 -10 -5 0 -10 5 -10 10 0 6 5 10 10 10 6 0 10 -4 10 -10z m40 0 c0 -5
-4 -10 -10 -10 -5 0 -10 5 -10 10 0 6 5 10 10 10 6 0 10 -4 10 -10z m107 -22
c-3 -7 -5 -2 -5 12 0 14 2 19 5 13 2 -7 2 -19 0 -25z m350 -175 c-2 -37 -3 -9
-3 62 0 72 1 102 3 68 2 -34 2 -93 0 -130z m143 167 c0 -5 -2 -10 -4 -10 -3 0
-8 5 -11 10 -3 6 -1 10 4 10 6 0 11 -4 11 -10z m50 6 c0 -3 -4 -8 -10 -11 -5
-3 -10 -1 -10 4 0 6 5 11 10 11 6 0 10 -2 10 -4z m-670 -26 c0 -5 -4 -10 -10
-10 -5 0 -10 5 -10 10 0 6 5 10 10 10 6 0 10 -4 10 -10z m40 0 c0 -5 -2 -10
-4 -10 -3 0 -8 5 -11 10 -3 6 -1 10 4 10 6 0 11 -4 11 -10z m260 0 c0 -5 -2
-10 -4 -10 -3 0 -8 5 -11 10 -3 6 -1 10 4 10 6 0 11 -4 11 -10z m-179 -268
c-7 -12 -10 20 -11 110 0 168 14 198 18 35 1 -73 -2 -135 -7 -145z m479 252
c0 -8 -5 -12 -10 -9 -6 4 -8 11 -5 16 9 14 15 11 15 -7z m80 -4 c0 -5 -4 -10
-10 -10 -5 0 -10 5 -10 10 0 6 5 10 10 10 6 0 10 -4 10 -10z m40 6 c0 -3 -4
-8 -10 -11 -5 -3 -10 -1 -10 4 0 6 5 11 10 11 6 0 10 -2 10 -4z m-435 -16 c3
-5 -1 -10 -10 -10 -9 0 -13 5 -10 10 3 6 8 10 10 10 2 0 7 -4 10 -10z m40 0
c3 -5 1 -10 -4 -10 -6 0 -11 5 -11 10 0 6 2 10 4 10 3 0 8 -4 11 -10z m40 0
c3 -5 1 -10 -4 -10 -6 0 -11 5 -11 10 0 6 2 10 4 10 3 0 8 -4 11 -10z m-335
-10 c0 -5 -4 -10 -10 -10 -5 0 -10 5 -10 10 0 6 5 10 10 10 6 0 10 -4 10 -10z
m590 -20 c0 -5 -4 -10 -10 -10 -5 0 -10 5 -10 10 0 6 5 10 10 10 6 0 10 -4 10
-10z m40 0 c0 -5 -4 -10 -10 -10 -5 0 -10 5 -10 10 0 6 5 10 10 10 6 0 10 -4
10 -10z m-390 -10 c0 -5 -4 -10 -10 -10 -5 0 -10 5 -10 10 0 6 5 10 10 10 6 0
10 -4 10 -10z m35 1 c3 -5 1 -12 -5 -16 -5 -3 -10 1 -10 9 0 18 6 21 15 7z
m41 -18 c-10 -10 -19 5 -10 18 6 11 8 11 12 0 2 -7 1 -15 -2 -18z m39 7 c3 -5
1 -10 -4 -10 -6 0 -11 5 -11 10 0 6 2 10 4 10 3 0 8 -4 11 -10z m255 -20 c0
-5 -4 -10 -10 -10 -5 0 -10 5 -10 10 0 6 5 10 10 10 6 0 10 -4 10 -10z m-350
-20 c0 -5 -4 -10 -10 -10 -5 0 -10 5 -10 10 0 6 5 10 10 10 6 0 10 -4 10 -10z
m40 0 c0 -5 -4 -10 -10 -10 -5 0 -10 5 -10 10 0 6 5 10 10 10 6 0 10 -4 10
-10z m-643 -62 c-2 -13 -4 -5 -4 17 -1 22 1 32 4 23 2 -10 2 -28 0 -40z m968
42 c3 -5 1 -10 -4 -10 -6 0 -11 5 -11 10 0 6 2 10 4 10 3 0 8 -4 11 -10z
m-345 -20 c0 -5 -5 -10 -11 -10 -5 0 -7 5 -4 10 3 6 8 10 11 10 2 0 4 -4 4
-10z m40 0 c0 -5 -5 -10 -11 -10 -5 0 -7 5 -4 10 3 6 8 10 11 10 2 0 4 -4 4
-10z m-689 -57 c11 -30 20 -29 58 6 41 38 40 26 -1 -16 -24 -25 -34 -45 -38
-80 -3 -25 -11 -48 -17 -51 -10 -3 -13 15 -13 69 0 66 -3 76 -27 102 l-28 30
28 -18 c16 -10 33 -29 38 -42z"/>
<path d="M2127 3583 c-4 -3 -7 -10 -7 -15 0 -4 628 -8 1395 -8 1233 0 1395 2
1395 15 0 13 -161 15 -1388 15 -764 0 -1392 -3 -1395 -7z"/>
<path d="M5037 3584 c-4 -4 -4 -11 -1 -15 3 -5 284 -9 625 -9 492 0 620 3 617
13 -4 9 -138 13 -620 15 -338 1 -617 -1 -621 -4z"/>
<path d="M4045 3500 c-3 -5 4 -12 17 -15 13 -3 545 -4 1182 -3 917 2 1160 6
1164 16 3 9 -237 12 -1177 12 -752 0 -1182 -4 -1186 -10z"/>
<path d="M3462 3455 c-18 -23 -27 -25 -96 -25 -44 0 -76 -4 -76 -10 0 -5 20
-10 45 -10 42 0 45 -2 35 -19 -5 -11 -10 -29 -10 -40 0 -20 -6 -21 -100 -21
-79 0 -100 3 -100 14 0 8 -8 24 -19 37 -18 22 -19 22 -44 6 -14 -9 -28 -26
-32 -37 -6 -19 -15 -20 -473 -22 -303 -2 -467 -7 -467 -13 0 -6 105 -11 289
-13 l288 -2 -6 -23 c-3 -12 -6 -28 -6 -34 0 -7 -11 -13 -24 -13 -14 0 -28 -4
-31 -10 -4 -6 -100 -10 -256 -10 -137 0 -249 -4 -249 -9 0 -11 75 -21 158 -21
l65 0 -22 -24 c-13 -14 -29 -22 -37 -19 -8 3 -30 -11 -50 -31 -31 -31 -35 -41
-30 -69 3 -17 9 -52 12 -77 9 -69 22 -95 66 -130 22 -18 46 -48 54 -66 19 -46
44 -44 104 7 61 51 82 82 91 134 4 22 16 64 27 92 l19 53 19 -21 c14 -16 15
-23 7 -26 -7 -3 -13 -15 -13 -29 0 -18 14 -33 58 -61 49 -33 58 -44 66 -81 12
-52 33 -53 50 -2 7 21 24 43 46 57 57 36 90 64 90 75 0 6 -7 19 -16 29 -15 16
-14 20 3 43 20 28 33 33 33 13 0 -21 40 -54 91 -75 50 -22 61 -33 63 -65 2
-34 26 -33 26 1 0 38 37 70 92 78 75 12 117 78 67 104 -19 11 -19 13 -5 35 9
14 16 32 16 43 0 11 8 18 21 19 24 2 37 -23 20 -40 -17 -17 -13 -65 8 -86 11
-11 40 -23 65 -26 28 -5 55 -16 69 -31 l24 -23 21 29 c16 21 39 34 80 46 31 9
65 23 75 32 21 19 22 55 2 72 -14 12 -14 15 0 36 29 45 17 85 -30 97 -11 2 50
5 135 5 85 0 147 -3 137 -7 -10 -3 -24 -18 -30 -31 -10 -20 -19 -24 -44 -22
-26 3 -32 -1 -41 -27 -6 -17 -16 -31 -21 -31 -15 0 -14 -26 1 -50 9 -14 9 -24
0 -42 -6 -13 -9 -39 -7 -58 2 -19 4 -38 4 -42 1 -4 11 -10 23 -14 12 -3 30
-16 39 -28 15 -18 21 -19 36 -8 52 36 77 15 70 -59 l-4 -45 34 -1 c40 -1 46 7
33 42 -12 31 3 67 24 59 8 -3 17 -1 21 5 3 6 19 11 34 11 33 0 51 16 51 47 0
13 7 34 15 46 12 18 12 28 2 57 -7 19 -16 41 -20 47 -4 7 -3 21 3 32 5 11 8
26 5 33 -6 15 -60 48 -80 48 -11 0 -25 20 -25 36 0 2 676 5 1503 6 993 2 1502
6 1502 13 0 7 -576 11 -1702 13 l-1703 2 0 24 c0 13 -3 31 -6 40 -6 15 134 16
1539 16 1020 0 1548 3 1552 10 7 12 -17 12 -1815 10 l-1336 -1 -24 26 c-30 32
-53 32 -78 0z m60 -12 c9 -10 18 -27 20 -38 2 -14 11 -19 33 -20 28 0 30 -3
29 -35 0 -19 -3 -46 -5 -60 -3 -22 -1 -25 22 -22 44 5 53 -19 23 -63 l-25 -38
27 -22 27 -21 -23 -22 c-13 -12 -34 -22 -47 -22 -13 0 -42 -9 -63 -19 -56 -27
-52 -8 15 69 30 35 55 71 54 79 0 11 -5 8 -17 -9 -9 -14 -34 -43 -54 -65 l-37
-40 -1 58 c0 51 5 67 37 118 42 68 39 93 -4 27 l-28 -43 -6 50 -6 50 -3 -45
c-1 -25 -5 -58 -9 -75 -7 -30 -7 -30 -25 20 -31 85 -37 95 -31 47 3 -24 17
-66 30 -92 14 -27 25 -61 25 -75 0 -25 -3 -23 -37 21 -38 51 -75 85 -82 78 -3
-2 12 -22 33 -43 l38 -39 -24 -17 -23 -17 26 6 c33 7 45 -6 55 -59 6 -34 5
-38 -7 -29 -8 6 -34 14 -59 18 -24 4 -50 12 -57 18 -17 14 -17 53 1 68 13 10
11 19 -11 65 -32 65 -27 85 23 85 36 0 36 0 30 35 -4 20 -4 45 -1 55 7 22 35
26 53 8 7 -7 12 -8 12 -2 0 14 39 74 48 74 5 0 16 -8 24 -17z m-372 -139 c0
-32 2 -34 27 -28 26 7 26 6 19 -34 -6 -40 -6 -41 26 -44 41 -4 49 -35 19 -77
-26 -37 -26 -38 4 -45 43 -11 32 -42 -22 -61 -27 -9 -63 -23 -81 -31 -50 -22
-36 5 18 35 24 14 38 27 32 29 -7 2 -28 -5 -47 -17 l-35 -20 0 24 c0 15 14 36
42 59 23 20 45 36 50 36 4 0 8 7 8 16 0 13 -3 14 -15 4 -8 -6 -19 -9 -25 -5
-5 3 -10 0 -10 -8 0 -8 -11 -22 -25 -31 -26 -17 -26 -17 -19 11 4 15 16 45 26
66 22 45 17 63 -6 20 l-15 -28 -2 60 c-2 44 -3 50 -6 23 -5 -43 -12 -47 -31
-17 -23 36 -25 13 -3 -30 21 -41 26 -90 12 -126 -8 -19 -8 -19 -19 2 -7 12
-12 31 -12 42 0 11 -4 23 -10 26 -5 3 -10 -1 -10 -11 0 -13 -4 -11 -20 7 -39
47 -19 0 25 -59 40 -53 56 -92 39 -92 -3 0 -21 12 -39 26 -19 14 -40 24 -47
22 -8 -3 0 -11 17 -20 17 -9 39 -26 50 -38 l20 -23 -25 8 c-41 13 -74 32 -99
59 -26 27 -22 58 6 55 32 -3 33 1 12 41 -13 25 -18 47 -14 61 6 18 12 20 42
14 32 -6 35 -4 28 12 -23 55 -12 99 19 74 11 -9 15 -4 20 23 4 20 14 43 23 52
16 15 18 15 35 -6 10 -12 18 -38 18 -56z m-381 -17 c6 -8 14 -28 17 -45 6 -27
11 -32 35 -32 34 0 38 -23 14 -71 -17 -32 -14 -35 35 -41 34 -4 36 -29 5 -66
-30 -36 -30 -38 -5 -45 37 -10 24 -32 -43 -71 -27 -15 -51 -34 -54 -42 -6 -17
-23 -19 -23 -1 0 35 24 88 56 126 46 54 39 65 -9 12 -39 -43 -47 -39 -47 25 0
38 19 83 44 103 9 8 16 18 16 24 0 6 -10 1 -23 -11 -13 -12 -26 -22 -30 -22
-3 0 -8 28 -10 63 l-3 62 -2 -72 c-1 -40 -6 -73 -10 -73 -4 0 -16 14 -26 31
-32 53 -29 23 3 -33 17 -30 31 -67 31 -82 l0 -27 -37 36 c-48 47 -67 45 -21
-2 46 -48 58 -73 58 -117 l0 -35 -51 35 c-28 19 -55 34 -60 34 -5 0 -9 9 -9
20 0 13 7 20 20 20 28 0 25 11 -10 45 -37 36 -37 69 0 71 41 2 41 3 25 34 -8
16 -15 39 -15 50 0 18 5 21 32 18 30 -3 33 0 38 32 10 59 33 77 59 47z m236
-26 c1 -31 -2 -37 -16 -34 -9 3 -20 0 -23 -6 -9 -13 -88 -15 -101 -2 -6 5 -21
11 -35 13 -18 2 -26 11 -31 36 l-6 32 106 0 106 0 0 -39z m291 -7 c1 -46 1
-46 -29 -40 -16 3 -35 6 -41 6 -6 0 -11 17 -11 40 l-1 40 41 0 40 0 1 -46z
m671 32 c4 -8 17 -14 28 -13 14 1 21 -5 23 -21 3 -20 8 -23 28 -18 18 5 24 2
24 -9 0 -10 7 -15 18 -14 31 3 33 -1 16 -33 -15 -29 -15 -32 0 -40 11 -6 15
-16 11 -29 -4 -11 -2 -19 4 -19 16 0 13 -36 -4 -50 -9 -8 -12 -22 -8 -42 6
-28 4 -30 -23 -27 -16 2 -36 -1 -44 -6 -42 -26 -55 3 -21 47 24 30 37 93 21
103 -6 4 -8 16 -4 27 5 17 3 19 -15 13 -17 -5 -21 -2 -21 14 0 12 -4 21 -10
21 -5 0 -10 -6 -10 -14 0 -24 11 -46 24 -46 17 0 34 -45 24 -64 -12 -21 -28
-20 -44 2 -10 13 -13 14 -14 3 0 -8 7 -22 15 -31 13 -15 14 -21 1 -50 l-14
-33 -21 49 c-20 43 -21 53 -10 87 14 43 5 63 -11 22 -12 -31 -20 -27 -37 18
-9 26 -12 28 -12 10 -1 -14 -9 -23 -23 -26 l-23 -4 23 -8 c20 -7 58 -64 85
-129 7 -18 6 -19 -10 -4 -27 24 -83 50 -83 39 0 -6 9 -15 21 -21 16 -9 18 -14
8 -26 -16 -20 -36 -17 -42 6 -3 12 -14 20 -27 20 -18 0 -21 4 -16 24 3 14 2
28 -4 31 -17 10 -11 25 10 25 21 0 27 15 9 25 -6 4 -8 13 -5 20 3 8 -2 19 -10
25 -19 17 -18 27 5 33 14 3 18 11 14 26 -4 15 -1 21 10 21 9 0 19 -5 22 -11 5
-7 13 -5 24 5 10 9 21 13 24 9 4 -3 7 6 7 21 0 23 3 26 20 21 16 -5 20 -2 20
14 0 24 15 28 27 7z m-1339 -131 c10 -21 9 -25 -3 -25 -8 0 -23 -8 -34 -19
-18 -18 -19 -18 -35 0 -9 11 -23 19 -32 19 -9 0 -29 11 -46 25 l-30 25 85 0
c80 0 84 -1 95 -25z m322 6 c0 -11 3 -26 6 -34 3 -10 -3 -20 -17 -27 -18 -10
-24 -9 -31 4 -5 9 -20 16 -33 16 -22 0 -23 2 -14 30 10 26 16 30 50 30 32 0
39 -4 39 -19z m-488 -18 c25 -22 23 -30 -10 -36 -17 -4 -33 -16 -40 -31 -12
-28 -32 -35 -32 -13 0 8 -11 19 -25 25 -29 13 -31 28 -8 54 21 23 89 24 115 1z
m-148 -48 c9 -14 23 -25 31 -25 8 0 17 -12 21 -27 3 -16 9 -35 12 -43 10 -23
8 -250 -2 -240 -5 5 -9 56 -10 114 0 58 -4 106 -8 106 -5 0 -8 -9 -8 -20 0
-34 -14 -22 -38 32 -12 28 -25 49 -28 45 -3 -3 4 -27 15 -52 26 -58 26 -58 1
-45 -28 15 -25 4 9 -28 18 -17 32 -42 36 -66 l6 -38 -45 37 c-46 38 -50 45
-60 120 -4 22 -9 54 -12 72 -5 26 -1 37 19 57 32 32 41 32 61 1z m237 -6 c12
-24 8 -63 -14 -129 -9 -25 -18 -57 -21 -72 -7 -30 -48 -83 -78 -99 -20 -11
-20 -9 -13 27 10 56 41 110 67 119 19 6 20 8 6 12 -17 4 -16 7 2 43 11 22 20
45 19 52 0 7 -5 3 -11 -9 -12 -26 -28 -30 -28 -9 0 8 -4 17 -8 20 -5 3 -6 -9
-4 -26 5 -31 -16 -108 -29 -108 -4 0 -10 8 -12 18 -3 9 -6 -5 -7 -33 -1 -27
-6 -59 -11 -70 -6 -13 -7 11 -4 70 3 50 2 96 -4 104 -13 20 33 84 72 98 47 17
65 16 78 -8z m1429 -219 c0 -5 -5 -10 -11 -10 -5 0 -7 5 -4 10 3 6 8 10 11 10
2 0 4 -4 4 -10z"/>
<path d="M2120 3420 c0 -7 170 -10 490 -10 320 0 490 3 490 10 0 7 -170 10
-490 10 -320 0 -490 -3 -490 -10z"/>
<path d="M7025 3184 c-77 -13 -252 -42 -390 -64 -137 -22 -317 -51 -400 -65
-82 -13 -169 -27 -192 -30 -27 -4 -43 -12 -43 -21 0 -9 8 -12 28 -9 15 3 113
19 217 35 194 31 493 79 645 104 47 8 137 22 200 31 156 23 160 24 160 35 0
15 -70 10 -225 -16z"/>
<path d="M5846 3149 c-19 -23 -40 -57 -47 -76 l-11 -33 -28 20 c-15 11 -38 20
-50 20 l-22 0 20 -32 c11 -18 22 -44 24 -57 3 -27 8 -25 -134 -56 -43 -9 -78
-21 -78 -26 0 -14 25 -11 139 13 l103 22 -6 49 -5 50 24 -23 c28 -26 45 -19
45 18 1 15 9 43 20 62 l19 35 -6 -47 c-3 -26 -3 -55 1 -64 6 -15 11 -12 35 17
l29 34 -6 -53 c-5 -60 12 -72 22 -14 3 20 15 54 26 74 11 21 20 40 20 43 0 12
-30 3 -64 -20 -41 -28 -43 -24 -16 39 19 45 19 46 0 46 -10 0 -34 -19 -54 -41z"/>
<path d="M2046 3068 c-14 -29 -26 -60 -26 -70 0 -28 -14 -22 -49 22 -17 22
-36 40 -40 40 -17 0 -21 -85 -8 -137 l14 -52 -30 15 c-41 22 -50 7 -32 -52 10
-33 33 -70 74 -116 33 -37 64 -75 69 -85 9 -16 14 -15 64 11 64 34 122 88 139
128 15 37 7 44 -38 30 -20 -6 -38 -10 -40 -9 -1 2 9 25 22 52 29 60 43 145 25
145 -6 0 -24 -9 -40 -20 l-28 -20 -6 68 c-4 37 -10 75 -12 85 -9 31 -32 18
-58 -35z m48 -9 c14 -71 7 -129 -23 -180 l-28 -50 -7 38 c-11 69 -6 124 15
174 12 27 25 49 29 49 4 0 10 -14 14 -31z m-86 -142 c6 -23 14 -73 17 -112 l6
-70 -45 90 c-33 65 -47 106 -51 150 l-6 60 34 -38 c19 -21 40 -57 45 -80z
m169 14 c-10 -51 -46 -115 -91 -166 l-45 -50 15 63 c15 68 32 100 78 150 37
40 50 41 43 3z m-192 -141 c8 -15 17 -47 21 -71 l7 -44 -41 45 c-45 49 -95
137 -86 152 8 12 82 -49 99 -82z m215 -20 c0 -16 -64 -74 -109 -99 l-43 -23 7
23 c5 13 15 34 23 47 25 39 122 80 122 52z"/>
<path d="M8121 3018 c-47 -40 -123 -105 -170 -143 -96 -79 -122 -115 -105
-142 12 -20 125 -60 196 -69 42 -6 50 -3 85 25 21 17 90 66 153 108 l115 78 3
63 3 64 42 -7 c23 -4 157 -34 297 -67 140 -33 259 -61 264 -61 5 -1 10 3 13 9
2 6 -23 18 -59 27 -115 29 -482 115 -520 122 -22 3 -38 12 -38 19 0 19 -46 33
-127 41 l-68 6 -84 -73z m159 41 l50 -11 0 -63 0 -64 -112 -76 c-62 -42 -125
-86 -140 -98 l-28 -21 -82 20 c-45 11 -83 25 -85 30 -1 5 30 35 70 67 40 31
115 95 167 141 52 47 98 85 102 85 4 1 30 -4 58 -10z m86 -165 c-2 -6 -60 -49
-128 -94 -68 -45 -133 -91 -144 -102 -22 -20 -22 -20 -119 6 -53 14 -99 26
-101 26 -2 0 -4 4 -4 9 0 5 41 -2 91 -16 l91 -25 36 26 c20 15 88 60 150 102
61 42 113 81 113 88 1 6 2 16 4 21 1 6 4 33 5 60 4 46 4 44 7 -19 2 -38 2 -75
-1 -82z"/>
<path d="M7500 3039 c-216 -65 -656 -166 -1190 -273 -960 -193 -1356 -275
-1575 -326 -99 -23 -227 -53 -285 -67 -58 -13 -109 -28 -114 -34 -20 -19 6
-21 66 -6 90 24 286 69 478 111 91 20 194 43 230 51 139 31 288 61 1375 280
94 19 222 45 285 59 63 14 157 34 208 45 130 28 562 139 590 151 13 6 20 15
17 20 -8 12 -6 13 -85 -11z"/>
<path d="M3640 3025 c-5 -14 -14 -25 -20 -25 -19 0 -10 -36 14 -59 13 -12 26
-33 29 -47 6 -31 -11 -31 -19 0 -3 14 -14 32 -23 40 -16 15 -21 15 -49 0 -31
-15 -41 -37 -22 -49 5 -3 7 -12 4 -20 -8 -21 23 -30 57 -18 23 9 31 8 43 -6
20 -22 23 -115 4 -109 -7 3 -14 13 -16 24 -7 50 -14 64 -27 64 -8 0 -15 -5
-15 -10 0 -6 -12 -9 -27 -8 -23 2 -27 -1 -25 -17 2 -11 4 -29 5 -40 2 -16 10
-20 45 -21 53 -1 66 -14 65 -59 -1 -42 14 -47 23 -7 14 63 13 62 57 60 36 -3
42 0 43 17 1 11 4 28 8 37 10 22 -2 41 -21 34 -9 -4 -21 -2 -27 3 -18 15 -35
-1 -45 -44 -9 -37 -9 -36 -8 25 l2 65 40 5 c37 5 39 7 40 39 0 29 -4 36 -28
44 -34 11 -46 2 -57 -45 -8 -32 -8 -32 -9 -5 -1 15 8 41 20 56 21 29 22 68 1
64 -6 -2 -16 6 -22 17 -14 27 -29 25 -40 -5z m46 -35 c17 0 17 -10 0 -32 -16
-22 -30 -23 -47 -2 -10 13 -10 17 2 24 8 5 15 15 15 22 3 28 7 32 11 11 2 -13
11 -23 19 -23z m-68 -121 c-19 -12 -40 -11 -33 2 4 6 -1 17 -11 25 -18 14 -17
15 8 10 23 -5 27 -3 22 11 -3 10 2 5 11 -11 14 -24 15 -30 3 -37z m133 46 c11
6 11 5 2 -5 -6 -7 -9 -19 -6 -26 3 -9 -2 -14 -16 -14 -15 0 -21 6 -21 23 0 28
11 42 21 26 4 -7 13 -8 20 -4z m-131 -144 c0 -21 -6 -30 -21 -34 -13 -3 -19
-1 -16 6 2 7 -3 20 -12 30 -15 17 -14 18 12 12 17 -5 27 -3 27 4 0 6 2 11 5
11 3 0 5 -13 5 -29z m143 6 c20 4 20 3 4 -7 -15 -10 -16 -14 -6 -27 11 -13 9
-14 -11 -11 -26 3 -37 28 -24 56 6 16 7 16 11 1 3 -11 11 -15 26 -12z"/>
<path d="M7570 2972 c-203 -71 -534 -164 -840 -236 -58 -13 -154 -36 -215 -50
-60 -14 -193 -44 -295 -66 -163 -36 -605 -142 -652 -156 -10 -3 -18 -12 -18
-21 0 -10 5 -13 18 -8 43 17 333 86 842 200 330 75 501 117 835 205 89 24 453
145 463 154 3 4 1 10 -4 14 -5 5 -65 -11 -134 -36z"/>
<path d="M1651 2978 c-12 -12 -24 -36 -27 -55 -3 -18 -9 -33 -13 -33 -4 0 -21
16 -38 35 -56 63 -90 34 -79 -66 l7 -59 -30 0 c-58 0 -61 -68 -4 -105 14 -9
23 -25 23 -40 0 -17 9 -29 29 -40 17 -8 42 -30 56 -49 14 -19 33 -37 42 -40
19 -8 93 37 144 86 21 20 47 39 58 43 19 6 45 60 36 75 -3 5 -1 19 4 32 5 15
5 31 0 41 -12 21 -62 23 -78 3 -6 -8 -21 -16 -33 -19 -19 -5 -20 -3 -12 31 28
130 -24 227 -85 160z m59 -13 c24 -29 7 -239 -22 -272 -9 -10 -21 -34 -27 -53
-16 -51 -4 124 14 210 7 36 12 67 10 69 -10 9 -33 -98 -41 -194 -10 -122 -20
-119 -28 10 -5 95 -3 120 9 138 8 12 15 31 15 42 0 26 27 65 44 65 8 0 19 -7
26 -15z m-147 -54 c21 -25 26 -44 32 -126 4 -53 4 -99 1 -102 -3 -4 -6 6 -6
20 0 29 -31 67 -54 67 -9 0 -15 22 -20 75 -9 103 2 119 47 66z m274 -112 c8
-8 8 -20 3 -35 -5 -13 -7 -30 -4 -38 9 -22 -12 -52 -45 -66 -17 -7 -33 -20
-36 -30 -5 -14 -23 -27 -69 -49 -16 -7 35 71 83 128 36 42 40 50 19 37 -15
-10 -45 -42 -68 -72 -22 -30 -43 -54 -45 -54 -8 0 8 34 32 70 13 19 23 43 23
52 0 11 14 23 34 32 18 8 37 19 40 25 9 14 19 14 33 0z m-316 -42 c34 -18 45
-31 50 -56 4 -17 14 -40 23 -50 9 -10 16 -24 16 -32 0 -8 -9 0 -19 16 -26 42
-86 105 -100 105 -7 0 6 -18 27 -41 22 -22 52 -63 67 -91 l28 -51 -42 42 c-22
22 -45 41 -50 41 -5 0 -12 14 -16 30 -4 17 -15 35 -26 40 -23 13 -42 47 -34
60 9 15 28 12 76 -13z"/>
<path d="M3333 2973 c-4 -10 -12 -22 -20 -26 -20 -12 -16 -32 12 -65 14 -17
25 -40 25 -53 -1 -22 -2 -22 -14 6 -18 41 -43 62 -58 47 -7 -7 -20 -12 -30
-12 -20 0 -25 -25 -7 -35 6 -4 8 -13 5 -20 -9 -24 20 -38 53 -27 35 12 45 4
54 -44 8 -40 -2 -82 -14 -62 -5 7 -9 26 -9 41 0 28 -30 51 -38 29 -2 -7 -13
-10 -27 -6 -25 6 -41 -9 -28 -28 4 -7 8 -22 8 -33 0 -17 7 -20 42 -20 53 0 67
-14 68 -68 1 -53 -19 -78 -56 -70 -31 6 -41 -6 -44 -54 -1 -22 3 -37 11 -40 8
-3 14 -13 14 -23 0 -11 12 -22 30 -29 17 -5 30 -14 30 -20 0 -5 9 -13 21 -16
15 -5 18 -10 10 -18 -17 -17 -13 -30 7 -21 9 4 31 8 47 8 23 1 29 6 27 19 -2
10 3 17 12 17 9 0 21 9 28 20 7 11 20 20 29 20 18 0 52 33 43 42 -3 4 2 17 11
31 14 21 14 27 2 39 -8 7 -30 13 -50 13 -34 -2 -36 0 -30 27 3 16 1 28 -5 28
-6 0 -14 9 -17 20 -6 19 -12 20 -51 14 -40 -6 -44 -4 -44 14 0 27 17 37 60 37
28 0 35 4 36 20 1 11 4 28 8 37 10 21 -2 41 -19 34 -7 -2 -17 0 -22 5 -17 17
-43 -2 -43 -30 0 -14 -5 -33 -10 -41 -7 -11 -10 4 -8 50 l3 65 40 5 c38 5 40
7 43 43 2 32 -1 39 -23 47 -36 14 -34 15 -55 -32 -12 -28 -19 -36 -19 -23 -1
11 8 34 19 50 25 38 26 65 1 65 -10 0 -21 9 -24 20 -6 25 -25 26 -34 3z m27
-28 c0 -8 7 -15 15 -15 18 0 19 -11 2 -34 -7 -10 -19 -15 -29 -11 -19 7 -33
35 -18 35 6 0 10 9 10 20 0 11 5 20 10 20 6 0 10 -7 10 -15z m81 -98 c-5 -5
-7 -15 -4 -22 3 -10 -2 -12 -16 -8 -12 3 -21 13 -21 22 0 24 8 30 31 24 13 -4
17 -9 10 -16z m-121 -23 c0 -8 -3 -14 -7 -14 -5 0 -19 -3 -33 -6 -20 -5 -22
-3 -10 5 13 10 12 13 -5 27 -20 16 -20 16 3 11 12 -3 22 0 22 5 0 6 6 5 15 -2
8 -7 15 -19 15 -26z m-2 -120 c-2 -13 -13 -20 -33 -22 -23 -2 -27 0 -15 8 13
9 12 12 -5 26 -19 15 -19 15 8 9 19 -5 27 -3 27 6 0 9 3 10 11 2 6 -6 9 -19 7
-29z m136 5 c-10 -11 -12 -19 -6 -19 7 0 12 -4 12 -10 0 -5 -6 -10 -12 -10
-44 1 -45 54 -2 56 24 2 25 1 8 -17z m11 -141 c10 -31 6 -81 -8 -90 -6 -4 -17
-22 -24 -40 -12 -31 -13 -28 -9 39 2 40 -1 70 -5 67 -5 -3 -9 -23 -9 -45 0
-21 -4 -39 -10 -39 -5 0 -10 7 -10 15 0 9 -7 18 -15 21 -17 7 -21 44 -5 44 6
0 10 9 10 21 0 18 4 20 25 15 14 -4 25 -2 25 4 0 19 28 10 35 -12z m-138 -61
c7 3 16 -2 19 -11 3 -9 12 -16 20 -16 9 0 13 -11 12 -33 -1 -19 3 -40 7 -47 5
-9 4 -11 -3 -6 -15 9 -15 1 -2 -24 9 -16 8 -18 -5 -14 -9 4 -20 15 -26 25 -5
11 -19 19 -30 19 -15 0 -19 5 -15 15 3 8 -2 19 -11 24 -15 8 -25 56 -16 74 2
4 12 3 21 -2 9 -4 23 -6 29 -4z m240 -20 c3 -4 -1 -15 -11 -26 -9 -10 -16 -24
-14 -31 2 -7 -10 -16 -26 -21 -15 -4 -35 -17 -43 -28 -14 -21 -33 -28 -33 -12
0 5 19 28 43 52 35 36 37 40 12 24 -16 -10 -37 -28 -47 -39 -16 -20 -16 -19
-4 19 8 21 20 41 27 44 8 2 17 9 21 15 7 12 64 14 75 3z"/>
<path d="M3310 2464 c0 -3 13 -19 30 -37 16 -18 30 -27 30 -22 0 6 -11 23 -25
38 -25 26 -35 33 -35 21z"/>
<path d="M1216 2845 c-9 -13 -16 -33 -16 -45 0 -11 -9 -29 -20 -40 -19 -19
-19 -19 -36 15 -22 47 -60 57 -87 24 -12 -15 -17 -32 -13 -49 19 -90 19 -90
-1 -90 -26 0 -53 -31 -53 -59 0 -35 17 -58 50 -70 17 -5 30 -16 29 -23 -4 -31
3 -40 45 -57 27 -12 51 -32 65 -55 41 -66 71 -71 105 -17 14 21 42 47 63 57
28 14 39 26 41 46 2 16 16 36 36 52 29 22 34 32 39 82 7 69 -2 84 -50 84 -28
0 -37 -6 -54 -35 -12 -19 -22 -35 -23 -35 -2 0 -1 31 0 70 2 38 -1 72 -6 75
-6 3 -10 17 -10 31 0 43 -17 64 -54 64 -25 0 -38 -7 -50 -25z m82 -35 c2 -19
7 -39 12 -45 14 -18 6 -128 -12 -154 -11 -15 -15 -34 -11 -51 3 -17 -3 -42
-16 -66 l-20 -39 0 85 c0 47 4 119 8 160 7 71 7 89 -3 79 -2 -2 -10 -68 -17
-147 -12 -136 -13 -141 -26 -110 -8 18 -12 47 -9 63 4 18 0 42 -9 59 -21 40
-19 89 5 111 11 10 20 30 20 45 0 34 18 52 50 48 21 -2 26 -9 28 -38z m-192
-18 c16 -10 46 -69 60 -117 7 -22 15 -50 19 -62 4 -13 3 -23 -2 -23 -4 0 -19
27 -32 60 -13 33 -28 60 -32 60 -4 0 -1 -16 7 -35 21 -50 18 -58 -15 -41 -20
11 -30 25 -34 48 -3 18 -9 45 -12 61 -5 16 -3 33 5 42 14 17 20 18 36 7z m332
-114 c5 -7 7 -37 5 -66 -5 -46 -10 -55 -35 -68 -18 -9 -31 -25 -35 -44 -3 -19
-17 -36 -40 -50 -19 -11 -36 -20 -39 -20 -8 0 26 61 68 123 21 31 34 57 29 57
-11 0 -111 -146 -111 -163 0 -5 -3 -8 -6 -4 -4 3 3 22 15 42 11 20 21 53 21
74 0 31 5 40 25 49 14 7 28 20 32 29 16 45 51 65 71 41z m-330 -62 c41 -21 53
-34 79 -89 18 -35 35 -77 39 -93 5 -23 0 -19 -26 21 -39 61 -109 135 -128 135
-7 0 10 -22 40 -49 45 -41 108 -133 108 -158 0 -4 -14 10 -32 31 -17 21 -46
45 -64 52 -21 9 -34 22 -36 36 -2 13 -19 33 -40 47 -28 18 -38 31 -38 51 0 48
26 53 98 16z"/>
<path d="M2667 2818 c-8 -13 -18 -47 -22 -76 l-7 -52 -22 32 c-12 18 -29 34
-39 36 -36 7 -16 -70 44 -165 12 -20 11 -25 -10 -47 -13 -14 -24 -39 -25 -56
-1 -16 -5 -30 -11 -30 -5 0 -1 -7 9 -15 25 -19 135 -20 159 -2 14 10 15 18 7
48 -5 19 -20 46 -32 58 l-21 24 31 62 c18 34 32 69 32 78 0 21 -19 32 -33 18
-19 -19 -22 -13 -22 46 0 62 -15 78 -38 41z m20 -70 c-3 -35 -11 -74 -17 -88
-8 -20 -10 -11 -6 45 4 68 13 105 24 105 2 0 2 -28 -1 -62z m-70 -60 c11 -24
23 -56 27 -73 5 -24 0 -20 -29 25 -19 30 -35 65 -35 78 0 32 14 20 37 -30z
m102 -30 c-12 -24 -24 -37 -26 -31 -3 7 6 31 18 54 30 53 37 34 8 -23z m1
-139 c27 -50 -15 -87 -82 -73 -34 7 -37 24 -5 25 20 1 20 2 -5 12 -16 6 -28
14 -28 19 0 4 12 9 28 9 16 1 20 3 10 6 -34 9 -18 23 27 23 34 0 47 -5 55 -21z"/>
<path d="M3843 2773 c-3 -10 -12 -33 -19 -50 -8 -22 -10 -42 -4 -63 10 -33 4
-36 -24 -15 -11 8 -29 15 -39 15 -17 0 -19 -5 -13 -32 8 -39 30 -64 79 -89 37
-20 53 -59 23 -59 -15 0 -49 -40 -41 -49 3 -2 14 4 25 14 11 10 23 15 27 12 3
-4 17 0 31 9 17 11 35 14 61 9 28 -5 33 -4 24 6 -7 6 -29 15 -50 18 l-38 7 27
24 c14 14 40 37 56 52 33 30 51 83 33 101 -7 7 -22 2 -50 -16 -22 -15 -43 -27
-47 -27 -3 0 -3 17 1 38 5 30 1 47 -15 75 -24 41 -37 46 -47 20z m34 -35 c10
-20 11 -90 4 -163 -2 -20 -2 -20 -13 -1 -23 41 -34 109 -24 148 12 44 18 47
33 16z m113 -83 c0 -18 -32 -63 -59 -83 -30 -22 -31 -22 -31 -3 0 21 60 91 79
91 6 0 11 -2 11 -5z m-176 -49 c20 -18 36 -39 36 -45 0 -16 -76 24 -84 44 -17
46 1 46 48 1z"/>
<path d="M2973 2753 c-8 -3 -13 -22 -13 -45 0 -32 -3 -39 -15 -34 -23 9 -45
-4 -45 -27 0 -11 18 -42 40 -68 22 -26 40 -50 40 -53 0 -12 -53 -82 -68 -91
-14 -7 -9 -11 23 -18 22 -4 52 -10 66 -13 17 -4 37 1 53 11 14 10 35 15 46 12
13 -3 20 0 20 9 0 8 -7 14 -15 14 -8 0 -15 5 -15 10 0 6 -11 22 -24 35 l-24
24 39 51 c43 58 51 99 19 107 -11 3 -20 12 -20 19 0 20 -27 29 -45 14 -12 -10
-15 -10 -15 2 0 20 -32 47 -47 41z m36 -113 c1 -39 -2 -51 -9 -40 -15 23 -32
118 -24 131 13 21 33 -34 33 -91z m37 2 c-15 -15 -16 -14 -16 6 0 12 6 31 13
43 12 19 12 19 15 -7 2 -15 -3 -34 -12 -42z m-65 -49 c11 -25 18 -47 16 -49
-5 -6 -77 89 -77 103 0 28 41 -8 61 -54z m119 54 c0 -17 -61 -110 -68 -103 -9
9 29 95 46 106 22 12 22 12 22 -3z m-43 -173 c12 -19 11 -23 -13 -38 -50 -33
-106 4 -68 45 22 25 62 22 81 -7z"/>
<path d="M2272 2718 c-7 -7 -12 -17 -12 -24 0 -6 -7 -17 -16 -25 -10 -8 -14
-24 -12 -46 l4 -33 -32 19 c-18 11 -35 17 -38 14 -3 -4 -6 -24 -6 -45 0 -40
11 -55 84 -115 38 -31 35 -72 -7 -97 -20 -12 -27 -20 -19 -23 8 -3 19 0 25 6
23 23 53 11 91 -35 34 -41 37 -48 23 -56 -22 -12 -47 -61 -47 -91 0 -27 27
-43 89 -53 41 -7 101 16 101 39 0 30 -22 83 -39 97 -20 15 -20 15 3 41 13 15
35 34 49 44 35 23 35 45 0 45 -21 0 -24 3 -15 12 15 15 16 58 0 58 -6 0 -22
-10 -35 -22 l-23 -22 6 46 c6 40 2 59 -21 136 -4 9 -14 8 -45 -4 -46 -18 -60
-13 -42 16 17 27 15 43 -9 90 -22 41 -36 49 -57 28z m32 -25 c3 -10 11 -26 18
-35 10 -14 10 -22 1 -38 -7 -10 -10 -26 -7 -33 3 -8 -1 -30 -9 -48 l-14 -34
-17 40 c-23 52 -32 105 -18 105 6 0 13 14 17 30 7 34 20 39 29 13z m-66 -130
c13 -11 25 -34 29 -58 l6 -40 -44 36 c-33 27 -45 45 -47 68 -3 29 -1 31 15 22
10 -6 28 -19 41 -28z m168 -9 c-3 -9 -6 -20 -6 -25 0 -10 -74 -59 -90 -59 -16
0 16 55 46 79 32 25 59 28 50 5z m19 -129 c-4 -46 -12 -88 -17 -92 -12 -6 -4
140 8 172 13 33 16 3 9 -80z m-39 10 l-7 -46 -20 26 c-26 32 -39 32 -39 0 0
-14 -4 -25 -10 -25 -5 0 -10 11 -10 24 0 18 11 31 43 49 23 14 44 24 46 22 2
-2 0 -25 -3 -50z m74 -67 c-25 -42 -30 -47 -25 -24 7 32 44 90 52 82 3 -3 -9
-29 -27 -58z m-96 4 c7 -15 16 -40 20 -57 4 -22 -2 -15 -24 25 -16 30 -29 59
-30 63 0 15 20 -4 34 -31z m-30 -18 c5 -14 4 -15 -9 -4 -17 14 -19 20 -6 20 5
0 12 -7 15 -16z m175 4 c-2 -2 -19 -16 -38 -33 -28 -25 -32 -26 -22 -8 12 24
52 56 60 48 2 -3 2 -6 0 -7z m-51 -130 c20 -20 14 -37 -20 -53 l-33 -15 37 5
c31 5 37 3 32 -10 -13 -32 -108 -31 -135 1 -11 14 -10 18 4 29 14 10 15 14 5
18 -7 3 1 6 17 7 18 2 23 4 13 7 -10 2 -18 9 -18 14 0 13 84 11 98 -3z"/>
<path d="M1876 2593 c-4 -4 -20 -8 -34 -8 -18 0 -28 -6 -30 -18 -7 -33 -38
-55 -74 -54 -30 2 -33 0 -34 -29 -1 -17 -4 -36 -8 -42 -3 -6 -1 -14 4 -17 6
-4 15 -18 20 -31 6 -14 18 -28 27 -31 28 -11 75 -61 63 -68 -20 -12 -10 -26
11 -14 12 6 37 9 55 6 35 -6 42 1 22 21 -9 9 -7 12 9 12 12 0 28 8 35 18 7 9
27 24 43 32 17 9 30 23 30 32 0 8 6 22 13 31 21 25 6 57 -26 57 -74 1 -75 1
-63 13 16 16 14 47 -3 47 -8 0 -16 10 -18 22 -3 23 -28 35 -42 21z m39 -53
c16 -19 8 -80 -11 -80 -8 0 -14 -10 -14 -23 0 -13 -7 -32 -16 -43 -14 -17 -15
-13 -10 61 5 87 1 84 -13 -10 -7 -47 -9 -52 -10 -23 -1 26 -7 40 -21 48 -20
11 -28 50 -10 50 6 0 10 12 10 26 0 23 3 25 24 20 16 -4 28 0 37 11 13 15 14
15 18 -3 1 -10 9 -26 16 -34z m-153 -50 c10 0 21 -7 24 -15 4 -8 12 -15 20
-15 9 0 15 -13 16 -37 0 -21 2 -50 2 -65 1 -16 -1 -28 -4 -28 -11 0 -27 16
-33 33 -3 9 -16 17 -27 17 -13 0 -20 7 -20 20 0 11 -7 23 -15 26 -10 4 -12 11
-6 23 6 10 6 23 1 31 -11 18 -1 35 13 21 6 -6 19 -11 29 -11z m256 -29 c2 -6
-2 -19 -9 -28 -8 -9 -14 -23 -14 -32 0 -9 -10 -17 -25 -19 -13 -2 -35 -15 -47
-28 -26 -29 -53 -34 -33 -6 7 9 31 34 54 54 22 20 38 40 35 43 -3 3 -29 -17
-57 -44 -29 -28 -52 -46 -52 -42 0 5 7 14 15 21 8 7 15 23 15 36 0 13 8 25 19
29 11 3 21 11 24 18 6 15 70 14 75 -2z"/>
<path d="M1782 2406 c18 -24 35 -42 37 -40 7 6 -49 84 -59 84 -6 0 4 -20 22
-44z"/>
<path d="M7185 2495 c-60 -13 -141 -30 -180 -39 -38 -8 -144 -29 -235 -46 -91
-17 -183 -35 -205 -40 -51 -11 -513 -81 -755 -114 -217 -30 -517 -70 -680 -92
-63 -8 -162 -21 -220 -29 -124 -17 -306 -41 -605 -80 -258 -34 -846 -118
-1085 -155 -309 -49 -739 -138 -822 -171 -26 -11 -38 -29 -19 -29 4 0 59 13
122 30 224 58 563 122 969 180 450 66 563 82 745 105 261 33 467 60 685 90
102 14 237 33 300 41 63 8 144 19 180 24 36 5 166 23 290 40 414 56 654 91
770 111 63 11 140 25 170 30 206 35 734 147 738 157 5 17 -35 14 -163 -13z"/>
<path d="M1455 2470 c-10 -11 -24 -20 -31 -20 -16 0 -27 -32 -18 -54 8 -22
-41 -22 -54 0 -5 9 -18 14 -28 12 -16 -3 -19 -13 -21 -68 -1 -36 -5 -77 -9
-92 -5 -21 -2 -27 14 -32 12 -4 22 -17 24 -29 3 -19 10 -22 53 -25 37 -2 55
-9 68 -25 l17 -22 21 28 c11 15 30 27 41 27 11 0 22 8 25 19 3 12 21 25 47 33
l41 13 0 85 c0 84 0 85 -25 84 -14 -1 -35 -5 -47 -9 -19 -6 -23 -4 -23 14 0
11 -4 21 -8 21 -4 0 -13 14 -19 30 -13 35 -41 39 -68 10z m59 -31 c12 -25 13
-40 4 -85 -6 -29 -17 -59 -26 -66 -13 -11 -14 -2 -9 77 3 54 2 78 -2 60 -5
-16 -9 -51 -10 -77 0 -27 -5 -48 -10 -48 -11 0 -41 79 -41 108 0 13 6 22 15
22 8 0 19 9 25 20 15 29 36 25 54 -11z m-168 -64 c9 -8 26 -15 40 -15 20 0 29
-10 49 -56 14 -31 25 -61 25 -66 0 -6 -29 21 -65 58 -37 38 -62 60 -56 49 5
-11 19 -29 31 -40 12 -11 31 -33 42 -48 l20 -28 -45 27 c-60 37 -96 102 -70
127 9 10 13 9 29 -8z m294 5 c0 -6 -12 -15 -26 -20 -15 -6 -39 -24 -55 -42
-35 -36 -43 -33 -28 11 7 20 22 37 43 46 38 16 66 19 66 5z m-22 -132 c-11
-10 -31 -18 -45 -18 -16 0 -27 -7 -30 -20 -3 -12 -14 -20 -27 -20 -17 0 -10
10 37 54 31 29 57 58 57 63 0 11 -53 -32 -102 -81 -21 -21 -28 -24 -28 -11 0
25 19 55 35 55 7 0 35 19 62 42 l48 41 7 -44 c5 -37 3 -47 -14 -61z m-238 -9
c53 -33 64 -44 28 -29 -13 5 -40 11 -60 15 -29 4 -38 11 -38 25 0 27 11 25 70
-11z m17 -40 l28 -12 -35 -8 c-40 -9 -45 -6 -37 16 8 18 8 18 44 4z"/>
<path d="M7425 2434 c-27 -8 -102 -31 -165 -51 -63 -20 -137 -42 -165 -50 -27
-8 -72 -21 -100 -29 -74 -21 -471 -112 -612 -139 -67 -14 -141 -29 -165 -34
-24 -5 -81 -17 -128 -26 -47 -9 -103 -20 -125 -25 -22 -5 -80 -17 -130 -26
-221 -39 -607 -143 -1055 -284 -170 -53 -231 -68 -425 -105 -71 -13 -203 -38
-292 -55 -193 -37 -543 -131 -650 -176 -18 -8 -17 57 3 145 9 40 13 75 9 79
-13 13 -72 -68 -92 -127 l-19 -59 -38 74 c-40 78 -118 174 -142 174 -18 0 -18
-14 2 -52 18 -35 84 -208 84 -221 0 -5 -14 3 -31 18 -34 28 -101 65 -119 65
-18 0 -10 -26 16 -51 31 -29 84 -103 84 -118 0 -6 -4 -11 -9 -11 -21 0 -171
-62 -171 -71 0 -15 27 -10 105 21 77 30 95 31 95 4 0 -8 5 -14 10 -14 20 0 9
56 -20 109 -17 30 -28 56 -26 58 2 2 24 -19 49 -47 25 -27 48 -50 51 -50 20 0
-1 82 -69 265 -5 16 -3 15 14 -5 28 -32 99 -178 103 -210 4 -36 21 -31 31 10
19 79 41 151 46 155 3 1 2 -38 -3 -89 -9 -95 -2 -171 15 -161 5 4 9 23 9 43 0
35 3 38 43 50 23 7 85 26 137 42 52 16 127 39 165 50 74 22 313 75 405 90 260
42 478 91 659 150 466 150 733 219 1291 330 223 44 437 88 475 96 288 64 491
118 738 195 87 27 164 49 172 49 8 0 15 7 15 15 0 18 -10 18 -75 -1z"/>
<path d="M2039 2339 c-21 -43 -22 -59 -4 -169 l6 -35 -19 41 c-22 46 -84 99
-106 91 -11 -4 -12 -14 -7 -39 11 -49 37 -84 73 -99 19 -8 36 -25 44 -45 18
-42 18 -44 -3 -44 -23 -1 -53 -23 -53 -40 0 -9 5 -8 18 3 10 10 30 17 44 17
14 0 31 7 39 16 9 11 22 14 41 10 15 -3 28 -1 28 4 0 5 9 12 20 15 11 4 18 11
15 16 -4 5 -15 4 -28 -3 -12 -7 -34 -12 -49 -13 -43 0 -36 26 15 59 30 19 66
86 67 124 0 29 -11 28 -52 -5 -45 -38 -57 -54 -58 -80 0 -12 -5 -25 -10 -28
-13 -8 -3 42 15 70 27 44 26 163 -2 172 -7 3 -22 -15 -34 -38z m40 -56 c1 -43
-19 -54 -20 -11 l-2 33 -7 -35 -7 -35 -2 32 c0 18 4 44 11 58 11 24 13 25 19
8 4 -10 8 -32 8 -50z m-80 -93 l15 -25 -22 19 c-26 23 -28 15 -6 -19 9 -14 12
-25 6 -25 -12 0 -62 57 -62 70 0 5 -3 16 -7 26 -6 17 -4 17 27 -2 18 -10 40
-30 49 -44z m155 23 c-4 -16 -18 -39 -31 -53 l-25 -25 13 25 c11 23 11 24 -4
11 -29 -23 -21 9 10 41 34 35 45 36 37 1z"/>
<path d="M7378 2256 c-243 -124 -343 -170 -603 -276 -82 -34 -242 -105 -355
-157 -212 -98 -349 -153 -482 -194 -44 -13 -78 -29 -78 -36 0 -18 3 -17 105
16 160 52 246 87 455 184 113 52 300 134 415 182 299 124 741 338 783 380 39
37 -26 11 -240 -99z"/>
<path d="M7600 2135 c-7 -8 -12 -32 -12 -54 l1 -39 -34 11 c-46 14 -69 3 -63
-28 5 -22 -2 -29 -65 -60 -38 -19 -79 -35 -91 -35 -39 -1 -105 -38 -126 -72
-18 -28 -21 -44 -17 -112 5 -73 4 -80 -18 -100 -33 -29 -36 -60 -7 -64 18 -3
22 -10 22 -43 0 -21 -2 -39 -4 -39 -2 0 -20 7 -41 16 -44 18 -65 13 -65 -16 0
-16 11 -26 40 -37 22 -9 40 -19 40 -23 0 -4 -20 -11 -44 -17 -34 -8 -45 -7
-52 4 -11 17 -44 7 -44 -13 0 -8 -20 -34 -45 -57 -35 -34 -45 -51 -45 -75 0
-18 -3 -32 -7 -32 -5 1 -27 33 -50 73 -23 40 -57 90 -75 111 -32 36 -37 38
-72 32 -21 -4 -49 -18 -62 -31 -23 -23 -23 -23 -41 -3 -45 50 -130 62 -173 23
-34 -30 -14 -48 45 -40 l53 6 111 -97 111 -96 -25 -24 c-14 -13 -25 -27 -25
-32 0 -20 28 -42 65 -50 l40 -8 -68 -32 c-38 -18 -70 -32 -72 -32 -1 0 -58
-26 -126 -59 -68 -32 -134 -61 -146 -65 -26 -8 -31 -26 -8 -26 8 0 59 21 112
46 54 25 158 72 231 105 l133 59 34 -27 c19 -15 32 -30 29 -34 -2 -4 -23 -16
-46 -27 -55 -26 -85 -49 -76 -57 10 -11 178 81 231 126 26 22 47 47 47 54 0 8
-19 23 -42 33 -58 25 -75 59 -54 101 9 17 19 31 21 31 3 0 12 -18 21 -40 19
-47 56 -80 91 -80 l24 0 -31 43 c-17 24 -33 59 -36 79 -6 34 -5 35 42 51 27 9
50 14 52 13 5 -6 3 -60 -4 -99 -5 -29 -2 -43 11 -57 36 -40 100 -14 111 44 7
41 -9 74 -42 86 -19 7 -25 16 -22 33 4 28 23 27 106 -4 61 -23 64 -23 77 -5
24 32 4 48 -104 82 -12 4 -12 7 -1 17 10 9 13 9 17 0 3 -7 20 -13 39 -13 37 0
44 15 22 50 -12 19 -8 25 42 69 49 44 56 47 64 31 6 -14 2 -24 -18 -42 -14
-13 -27 -34 -28 -48 -3 -21 1 -25 22 -25 23 0 25 -5 30 -54 6 -61 27 -85 58
-64 9 6 15 17 13 25 -13 39 -11 88 3 114 l15 29 1 -36 c0 -20 13 -60 31 -92
26 -49 34 -57 60 -57 22 0 29 5 29 19 0 11 -4 22 -9 26 -5 3 -15 21 -21 41
-11 32 -10 42 10 84 21 45 25 48 66 52 41 3 44 2 49 -27 13 -61 16 -65 45 -65
l29 0 -4 68 -4 67 15 -65 c21 -87 26 -95 60 -95 25 0 28 3 25 25 -2 14 -4 57
-5 95 0 59 5 81 31 138 l32 67 45 0 c40 0 46 3 52 24 3 15 0 34 -9 47 -13 17
-13 26 -4 42 9 15 9 21 0 24 -9 3 -9 10 3 28 17 26 16 86 -2 92 -5 2 -17 -11
-25 -29 -14 -32 -15 -33 -69 -30 -62 3 -80 14 -80 48 0 12 -5 26 -11 30 -18
11 -30 -18 -26 -62 l4 -41 -61 15 c-73 17 -89 34 -81 82 4 23 1 42 -9 55 -14
19 -15 19 -26 -12 -11 -30 -15 -33 -49 -29 -51 4 -61 12 -61 47 0 32 -11 37
-30 14z m91 -85 c13 -8 25 -7 39 0 25 13 26 6 1 -19 -16 -16 -24 -17 -60 -8
-44 12 -52 23 -23 30 9 3 18 5 20 6 2 0 12 -4 23 -9z m69 -71 c118 -29 210
-54 203 -56 -20 -7 -436 96 -451 112 -4 4 2 5 13 2 11 -3 117 -29 235 -58z
m-117 -7 l88 -27 -48 -46 c-26 -25 -69 -54 -95 -63 -49 -18 -88 -56 -88 -85 0
-31 -30 -61 -61 -61 -24 0 -32 -6 -46 -37 -23 -50 -52 -93 -64 -93 -5 0 -9 18
-9 39 0 28 -10 54 -35 91 -27 40 -35 62 -35 97 0 27 -4 42 -10 38 -5 -3 -10
-23 -10 -43 0 -20 -5 -44 -10 -52 -16 -24 -12 65 4 105 16 37 46 56 120 74 28
7 84 30 125 52 42 21 78 39 81 39 3 0 45 -13 93 -28z m317 -4 c0 -6 -7 -5 -15
2 -8 7 -15 17 -15 22 0 6 7 5 15 -2 8 -7 15 -17 15 -22z m150 -3 c-7 -8 -22
-15 -34 -15 -20 0 -19 1 4 14 34 19 45 19 30 1z m-84 -3 c6 -4 13 -15 17 -24
4 -11 18 -19 34 -19 l28 -2 -27 -4 c-31 -5 -39 -23 -10 -23 21 0 57 -59 44
-72 -5 -5 -25 -8 -43 -6 -26 2 -35 8 -37 26 -2 12 -8 22 -13 22 -6 0 -7 -14
-4 -34 4 -20 2 -36 -4 -40 -6 -4 -11 -2 -11 3 0 6 -4 11 -10 11 -5 0 -10 -15
-10 -34 0 -19 -9 -74 -21 -123 -18 -74 -19 -93 -9 -121 12 -33 7 -54 -9 -36
-4 5 -14 47 -21 94 -15 97 -20 112 -31 82 -10 -26 -50 -47 -106 -56 l-43 -6 0
40 c0 22 -4 40 -10 40 -5 0 -10 -14 -10 -30 0 -17 -13 -57 -30 -90 -35 -69
-37 -92 -11 -143 12 -23 15 -37 7 -37 -18 0 -66 102 -66 142 0 24 -11 55 -32
89 -25 40 -33 63 -33 101 0 26 -3 48 -6 48 -11 0 -19 -30 -19 -70 0 -21 -5
-42 -12 -46 -16 -10 -3 101 15 130 15 23 112 66 149 66 11 0 53 16 95 36 62
30 82 35 114 30 131 -21 119 -21 119 8 0 15 -7 29 -15 32 -8 4 -12 10 -9 15 6
11 25 11 40 1z m-282 -53 c-16 -17 -38 -35 -49 -41 -11 -6 -2 8 20 31 21 22
43 41 49 41 5 0 -3 -14 -20 -31z m62 6 c-26 -19 -42 -19 -26 0 7 8 20 15 29
15 13 -1 13 -3 -3 -15z m-552 -298 c-26 -45 -30 -77 -14 -107 7 -13 7 -21 0
-25 -30 -19 -37 136 -9 199 l12 26 18 -26 c16 -25 16 -28 -7 -67z m141 -50
c-54 -50 -105 -94 -114 -95 -9 -2 34 43 94 101 61 58 112 101 113 96 2 -5 -40
-51 -93 -102z m45 99 c0 -2 -7 -9 -15 -16 -13 -11 -14 -10 -9 4 5 14 24 23 24
12z m136 -105 c-2 -9 -12 -36 -21 -60 -12 -33 -13 -51 -6 -72 8 -23 7 -29 -5
-29 -11 0 -14 17 -14 83 0 45 3 99 6 120 l7 38 19 -32 c11 -18 17 -39 14 -48z
m-394 47 c-7 -7 -12 -8 -12 -2 0 14 12 26 19 19 2 -3 -1 -11 -7 -17z m118 -26
c0 -35 -5 -54 -19 -66 -18 -17 -19 -16 -26 13 -7 31 18 101 36 101 5 0 9 -22
9 -48z m562 -27 c2 -27 -1 -44 -7 -42 -11 4 -25 74 -17 82 13 13 20 1 24 -40z
m-364 -25 c-14 -22 -24 -19 -15 5 4 8 11 15 17 15 6 0 6 -7 -2 -20z m-118 -35
c10 -12 10 -15 -4 -15 -9 0 -16 7 -16 15 0 8 2 15 4 15 2 0 9 -7 16 -15z
m-232 -1 c12 -4 22 -12 22 -20 0 -11 -5 -11 -27 -2 -55 23 -52 37 5 22z m57
-24 c3 -5 1 -10 -4 -10 -6 0 -11 5 -11 10 0 6 2 10 4 10 3 0 8 -4 11 -10z
m-630 -29 c33 -20 265 -229 265 -238 0 -8 -21 9 -148 122 -133 118 -151 129
-187 115 -33 -13 -52 -13 -39 -1 9 9 37 18 64 20 8 0 29 -7 45 -18z m191 -6
c24 -16 169 -243 161 -251 -2 -3 -30 35 -60 83 -110 174 -112 176 -173 153
-23 -9 -25 -9 -15 4 7 8 22 17 34 19 12 2 24 5 27 6 3 0 15 -6 26 -14z m484 5
c0 -13 -41 -33 -137 -64 -94 -31 -129 -63 -139 -127 -4 -22 -10 -42 -15 -44
-14 -9 -20 34 -10 73 17 61 58 91 166 122 34 10 75 25 91 33 34 19 44 21 44 7z
m134 -37 c4 -10 -1 -12 -22 -6 -48 12 -93 33 -87 42 7 12 103 -19 109 -36z
m-624 -2 c0 -5 -9 -7 -20 -4 -11 3 -20 7 -20 9 0 2 9 4 20 4 11 0 20 -4 20 -9z
m-5 -31 l30 -8 -35 -1 c-19 0 -42 4 -50 9 -12 8 -11 10 5 9 11 -1 34 -5 50 -9z
m483 -65 c0 -5 -6 4 -13 20 -8 17 -14 37 -14 45 0 8 7 -1 14 -20 7 -19 13 -39
13 -45z m-414 -10 c15 -25 26 -48 23 -51 -4 -4 -66 44 -111 87 -6 5 4 9 25 9
30 0 38 -6 63 -45z m258 -15 c9 -28 12 -47 6 -44 -16 10 -44 94 -31 94 4 0 15
-23 25 -50z m196 -21 c-17 -51 -78 -46 -78 6 0 30 11 38 25 18 19 -25 43 -10
38 24 l-4 28 14 -24 c11 -18 12 -32 5 -52z m-398 -60 c0 -6 -4 -7 -10 -4 -5 3
-10 11 -10 16 0 6 5 7 10 4 6 -3 10 -11 10 -16z m-35 -21 c101 -32 73 -61 -37
-38 -44 10 -58 17 -58 31 0 14 6 21 27 28 2 1 32 -9 68 -21z m213 -28 c22 0
12 -17 -29 -50 -41 -32 -41 -33 -75 -16 -42 19 -43 35 -3 80 l31 36 32 -25
c18 -14 38 -25 44 -25z"/>
<path d="M6670 2090 c-50 -17 -451 -128 -648 -180 -75 -20 -102 -34 -89 -46 7
-7 157 33 751 200 44 12 81 27 84 34 5 17 -33 14 -98 -8z"/>
<path d="M5360 2079 c-92 -23 -489 -107 -701 -148 -146 -28 -395 -80 -569
-118 -153 -34 -461 -111 -467 -117 -19 -19 19 -17 115 7 255 63 647 148 997
217 189 37 492 100 623 130 62 15 92 26 92 36 0 17 3 17 -90 -7z"/>
<path d="M5440 1751 c-47 -16 -260 -73 -475 -126 -626 -156 -724 -185 -1090
-320 -49 -18 -91 -38 -93 -44 -6 -19 15 -13 167 43 265 98 361 126 896 261
529 134 703 183 696 198 -8 16 -20 15 -101 -12z"/>
<path d="M5207 1419 c-303 -87 -688 -210 -717 -229 -8 -5 -11 -12 -7 -16 4 -4
105 25 225 64 218 71 312 99 627 187 185 52 209 61 200 76 -8 12 22 19 -328
-82z"/>
</g>
</svg>
