<?xml version="1.0" standalone="no"?>
<!DOCTYPE svg PUBLIC "-//W3C//DTD SVG 20010904//EN"
 "http://www.w3.org/TR/2001/REC-SVG-20010904/DTD/svg10.dtd">
<svg version="1.0" xmlns="http://www.w3.org/2000/svg"
 width="1024.000000pt" height="559.000000pt" viewBox="0 0 1024.000000 559.000000"
 preserveAspectRatio="xMidYMid meet">
<metadata>
Created by potrace 1.16, written by Peter Selinger 2001-2019
</metadata>
<g transform="translate(0.000000,559.000000) scale(0.100000,-0.100000)"
fill="#000000" stroke="none">
<path d="M6322 4119 c-82 -41 -151 -143 -236 -351 -86 -210 -131 -281 -196
-308 -41 -17 -60 -7 -60 30 0 32 -28 68 -79 101 -33 21 -30 63 8 131 44 77 43
128 -3 174 -41 41 -61 42 -110 9 -55 -37 -81 -70 -132 -170 -82 -156 -146
-268 -187 -323 -75 -100 -220 -200 -315 -218 -52 -10 -86 12 -210 135 -140
139 -184 164 -336 191 -112 20 -125 25 -193 71 -53 37 -105 39 -136 5 -12 -13
-39 -64 -60 -113 -55 -131 -114 -185 -214 -199 -73 -9 -150 10 -318 81 -172
73 -285 100 -384 92 -138 -10 -242 -78 -275 -178 -20 -63 -20 -83 -1 -144 23
-79 80 -149 199 -247 220 -180 379 -370 481 -575 29 -59 55 -116 57 -127 2
-15 -16 -25 -102 -56 -252 -90 -340 -151 -340 -235 0 -91 124 -180 339 -244
172 -51 658 -144 916 -176 182 -22 388 -35 399 -25 17 17 -7 30 -57 30 -190 1
-858 105 -1162 181 -275 70 -427 169 -393 258 9 26 35 52 84 81 31 20 293 127
321 132 10 2 25 -27 47 -95 21 -61 44 -109 61 -127 30 -31 110 -77 193 -109
175 -69 538 -131 890 -151 777 -45 1499 71 1707 275 47 46 53 57 75 143 13 50
29 92 35 92 22 0 156 -49 220 -81 68 -33 140 -101 150 -142 10 -37 -19 -93
-67 -128 -114 -84 -393 -175 -768 -249 -85 -17 -159 -35 -164 -40 -51 -51 398
37 682 135 205 70 301 126 338 196 63 124 -84 267 -339 330 -45 11 -48 13 -42
38 11 46 111 246 156 312 89 132 165 199 353 309 113 66 158 112 171 171 10
44 -11 85 -53 105 -31 14 -43 15 -82 5 -25 -6 -64 -25 -87 -41 -32 -22 -43
-26 -43 -14 0 29 47 61 129 87 101 33 145 65 167 122 46 122 -56 219 -231 220
-93 0 -143 -19 -269 -104 -81 -55 -155 -91 -187 -91 -10 0 -26 12 -36 26 -15
23 -15 34 -6 91 18 103 3 125 -95 138 -60 8 -111 45 -132 95 -17 40 -1 78 61
146 99 110 126 200 83 275 -39 67 -139 89 -222 48z m132 -23 c41 -17 76 -61
76 -95 -1 -42 -33 -102 -90 -166 -29 -33 -61 -80 -72 -104 -18 -38 -19 -48 -8
-88 14 -49 74 -109 119 -117 14 -2 42 -7 62 -11 54 -8 60 -20 46 -99 -10 -63
-10 -71 9 -106 l21 -38 -36 -5 c-48 -6 -74 12 -117 79 -19 29 -36 54 -39 54
-12 0 41 -102 63 -123 36 -32 162 -77 217 -77 30 0 85 16 170 51 121 48 174
58 182 32 2 -6 -28 -47 -68 -90 -39 -43 -89 -104 -111 -136 -40 -59 -98 -173
-98 -194 0 -10 -51 -29 -135 -49 -60 -14 -141 -56 -179 -92 -21 -20 -70 -75
-109 -121 -107 -128 -191 -170 -271 -137 -57 24 -76 66 -73 163 2 78 0 84 -25
110 -56 56 -161 28 -287 -78 -60 -50 -63 -51 -99 -41 -107 30 -195 37 -487 37
-233 -1 -327 -5 -420 -18 -121 -18 -316 -62 -346 -78 -22 -11 -73 34 -195 172
-105 119 -151 155 -212 165 -52 8 -87 -11 -146 -80 -41 -48 -52 -56 -82 -56
-19 0 -47 6 -62 14 -34 18 -120 107 -160 166 -43 64 -124 145 -179 180 -26 17
-83 44 -128 61 -104 40 -140 63 -155 98 -15 38 -8 59 34 100 29 28 41 33 102
37 87 7 185 -13 301 -62 49 -20 118 -49 154 -64 36 -15 93 -33 125 -40 32 -6
95 -23 138 -36 165 -51 235 -42 336 46 68 59 113 80 172 80 60 0 121 -38 258
-160 141 -126 214 -174 303 -201 128 -39 231 -16 317 71 25 25 58 52 75 60 33
17 150 130 243 238 81 93 97 94 146 13 82 -134 199 -122 405 44 76 60 100 75
128 75 20 0 32 4 28 10 -19 32 -97 -3 -199 -88 -60 -50 -148 -98 -197 -107
-57 -10 -101 14 -143 78 -67 106 -100 98 -235 -56 -50 -59 -111 -122 -134
-141 -107 -86 -212 -104 -322 -52 l-60 28 61 22 c86 31 143 67 215 134 75 69
130 150 228 340 80 153 134 226 177 236 64 16 87 -75 38 -148 -58 -85 -51
-149 20 -191 34 -20 44 -33 54 -70 9 -33 19 -48 36 -55 40 -15 96 7 143 56 47
49 71 92 132 239 73 175 84 199 124 260 44 68 82 102 135 121 47 17 46 17 86
0z m-2200 -540 c55 -41 91 -55 192 -71 143 -22 187 -48 329 -185 174 -169 266
-224 397 -238 l73 -8 -48 -31 c-125 -81 -286 -38 -477 130 -51 45 -118 103
-149 129 -56 47 -141 88 -185 88 -46 0 -116 -33 -171 -81 -67 -58 -79 -65
-136 -78 -33 -8 -61 -6 -114 6 -94 21 -107 29 -60 37 87 17 157 87 205 206 17
43 38 87 46 99 20 28 59 27 98 -3z m3001 -127 c72 -36 93 -94 56 -155 -24 -39
-70 -67 -146 -89 -109 -31 -141 -61 -136 -132 1 -28 -6 -39 -66 -88 -68 -57
-141 -101 -150 -91 -6 6 50 118 88 173 16 23 61 76 99 117 38 41 72 87 76 101
17 70 -66 72 -221 5 -80 -34 -112 -43 -158 -43 -32 0 -63 5 -69 11 -9 9 -7 12
8 12 44 1 162 53 251 111 52 34 118 71 146 81 68 24 158 19 222 -13z m-4263
-111 c-6 -83 22 -109 183 -173 136 -54 177 -90 327 -280 73 -91 132 -136 192
-142 57 -7 95 14 140 76 41 56 62 66 114 56 30 -5 67 -38 216 -189 189 -191
296 -273 486 -375 207 -110 412 -135 584 -70 92 34 173 96 346 265 188 184
261 237 328 238 63 1 74 -17 66 -119 -3 -44 -13 -102 -21 -129 -30 -96 6 -195
89 -237 34 -17 54 -20 104 -16 86 6 162 50 281 159 54 50 116 103 138 118 36
25 238 130 249 130 3 0 -14 -28 -38 -62 -24 -35 -64 -104 -90 -154 -47 -94
-136 -342 -136 -382 0 -34 -94 -122 -165 -156 -124 -58 -241 -93 -430 -130
-268 -51 -390 -60 -810 -60 -431 -1 -558 9 -865 66 -263 48 -412 98 -500 168
-41 33 -44 38 -90 190 -51 166 -140 338 -236 457 -19 23 -34 44 -34 47 0 3 30
-14 68 -38 37 -24 106 -61 153 -83 185 -87 270 -175 398 -418 29 -55 69 -124
88 -153 35 -52 84 -89 103 -77 19 12 9 91 -25 205 -19 63 -35 123 -35 132 0
10 11 25 25 34 42 27 99 11 236 -68 157 -91 240 -126 353 -149 112 -23 179
-24 287 -3 122 23 183 53 385 185 194 127 260 162 339 180 61 13 105 0 105
-31 0 -11 -11 -53 -25 -94 -28 -83 -30 -124 -14 -278 13 -122 10 -144 -27
-188 -15 -17 -24 -34 -20 -37 10 -10 42 25 61 67 17 37 17 51 7 148 -18 158
-15 199 17 293 32 95 29 123 -16 140 -77 30 -196 -19 -443 -181 -92 -61 -190
-120 -217 -132 -142 -63 -312 -75 -475 -34 -98 25 -176 60 -313 141 -133 79
-207 95 -259 54 -34 -27 -33 -54 4 -170 35 -106 49 -189 32 -189 -22 0 -80 82
-142 202 -138 262 -202 332 -391 428 -195 99 -275 155 -439 306 -25 23 -81 71
-125 106 -44 36 -97 83 -117 106 -100 111 -113 230 -36 318 17 19 31 34 32 34
2 0 1 -24 -2 -52z m4278 -248 c23 -23 24 -29 9 -67 -17 -46 -47 -71 -180 -150
-70 -41 -150 -95 -180 -119 -29 -24 -112 -74 -184 -110 -163 -84 -197 -107
-318 -216 -53 -49 -118 -102 -143 -118 -61 -38 -139 -55 -192 -40 -78 21 -131
108 -117 194 11 62 19 71 35 41 35 -66 142 -88 230 -48 46 20 121 92 205 195
26 32 67 71 92 88 41 26 190 80 224 80 40 0 183 86 281 170 142 120 195 143
238 100z m-1940 -451 c118 -10 268 -33 276 -42 9 -9 -244 -242 -298 -275 -101
-60 -160 -76 -283 -75 -93 0 -123 4 -190 27 -132 45 -326 155 -455 257 l-33
27 69 15 c144 33 279 52 509 70 95 8 299 6 405 -4z"/>
</g>
</svg>
