<?xml version="1.0" standalone="no"?>
<!DOCTYPE svg PUBLIC "-//W3C//DTD SVG 20010904//EN"
 "http://www.w3.org/TR/2001/REC-SVG-20010904/DTD/svg10.dtd">
<svg version="1.0" xmlns="http://www.w3.org/2000/svg"
 width="1024.000000pt" height="559.000000pt" viewBox="0 0 1024.000000 559.000000"
 preserveAspectRatio="xMidYMid meet">
<metadata>
Created by potrace 1.16, written by Peter Selinger 2001-2019
</metadata>
<g transform="translate(0.000000,559.000000) scale(0.100000,-0.100000)"
fill="#000000" stroke="none">
<path d="M5011 4952 c-39 -18 -69 -62 -77 -113 -5 -30 -10 -36 -26 -31 -12 3
-17 10 -13 19 6 18 -12 90 -25 98 -17 11 -48 -14 -66 -54 -17 -38 -17 -38 -44
-23 -15 8 -34 13 -43 9 -21 -8 -32 -71 -19 -113 10 -34 10 -34 -23 -34 -35 0
-65 -21 -65 -46 0 -8 6 -30 14 -48 12 -29 12 -34 -3 -43 -10 -6 -29 -9 -43 -6
-21 4 -27 0 -37 -27 -9 -27 -13 -31 -26 -20 -12 10 -20 9 -39 -3 l-24 -16 0
48 c0 52 -22 105 -47 115 -10 3 -25 -4 -40 -20 -26 -28 -41 -18 -31 22 11 40
-3 74 -30 74 -26 0 -94 -55 -94 -76 0 -20 -5 -18 -38 16 -40 39 -89 42 -98 6
-3 -14 -3 -30 1 -35 3 -6 0 -11 -8 -11 -22 0 -47 -34 -54 -73 -5 -31 -8 -35
-24 -27 -10 6 -29 10 -43 10 -22 0 -26 -5 -26 -28 0 -15 8 -44 18 -63 l18 -36
-41 -11 c-52 -14 -96 -48 -88 -68 8 -21 57 -44 95 -44 29 0 35 -5 52 -43 11
-23 21 -44 23 -47 2 -3 -10 -11 -27 -17 -27 -10 -32 -9 -64 23 -42 42 -61 43
-82 2 -21 -42 -18 -40 -38 -32 -10 4 -16 18 -16 41 0 41 -28 93 -50 93 -17 0
-50 -49 -50 -74 0 -20 -1 -20 -44 0 -48 24 -66 14 -66 -36 0 -23 4 -49 9 -59
14 -26 -47 -55 -85 -41 -37 15 -74 12 -80 -5 -15 -37 46 -117 99 -130 37 -10
35 9 -3 25 -30 12 -70 58 -70 79 0 6 12 11 26 11 26 0 77 -43 100 -85 20 -36
23 2 3 40 -23 42 -16 55 32 55 38 0 40 8 13 47 -25 37 -32 83 -14 83 28 0 70
-34 87 -70 20 -44 41 -50 68 -20 19 21 50 26 60 10 12 -20 24 -9 35 30 6 22
15 40 19 40 5 0 23 -16 40 -35 l31 -36 47 16 c66 23 66 22 38 69 -13 23 -26
53 -28 66 -4 23 -9 25 -55 25 -34 0 -57 5 -68 17 -15 15 -14 17 14 32 17 9 53
16 80 16 27 0 52 3 55 6 4 4 -9 24 -28 46 -40 44 -48 90 -15 81 12 -3 33 -18
47 -34 34 -36 46 -28 27 17 -12 28 -13 43 -4 70 14 42 27 43 70 4 55 -49 68
-38 20 17 -29 32 -42 93 -21 93 20 0 70 -52 76 -80 9 -41 23 -47 31 -13 15 72
46 113 83 113 10 0 12 -10 8 -42 -5 -35 -2 -47 16 -66 l22 -23 27 33 27 33 17
-40 c14 -34 15 -48 6 -94 -12 -58 -9 -71 12 -56 69 51 64 50 87 21 26 -33 39
-25 39 25 0 28 4 39 15 39 16 0 65 -46 65 -61 0 -5 5 -9 10 -9 17 0 11 30 -11
61 l-20 29 30 0 c36 0 39 12 11 47 -43 55 -11 98 54 74 52 -20 61 -8 26 36
-25 32 -28 113 -5 113 24 0 65 -46 71 -80 8 -38 17 -38 44 0 24 34 54 39 82
14 21 -20 24 -14 31 65 4 46 10 59 36 83 41 37 58 35 78 -7 20 -42 29 -44 45
-10 6 14 17 25 24 25 21 0 54 -50 60 -92 8 -49 20 -49 34 1 12 47 35 70 44 45
10 -25 7 -63 -6 -84 -20 -31 -1 -35 32 -6 39 32 81 36 73 6 -3 -11 -16 -29
-29 -39 -30 -24 -30 -30 2 -61 23 -21 25 -30 20 -67 -3 -24 -2 -43 3 -43 5 0
21 16 35 35 32 42 45 43 76 10 28 -30 44 -23 36 18 -7 34 9 103 26 113 7 4 25
-9 44 -32 18 -21 35 -36 37 -34 2 3 11 26 21 51 9 26 25 54 36 64 19 17 20 17
30 -9 15 -41 12 -70 -10 -99 -19 -25 -26 -47 -14 -47 3 0 19 11 36 25 29 24
78 34 78 16 0 -5 -11 -23 -25 -39 -14 -17 -25 -32 -25 -35 0 -2 18 -7 40 -11
49 -8 51 -20 5 -47 -47 -28 -49 -75 -5 -107 16 -12 33 -22 38 -22 5 0 17 -9
26 -19 17 -19 17 -20 -3 -30 -11 -6 -26 -11 -33 -11 -7 0 -21 -17 -30 -38 -10
-20 -23 -45 -30 -54 -20 -28 -3 -30 45 -7 52 25 77 20 77 -16 0 -37 14 -31 34
15 17 39 47 53 61 30 3 -5 13 -10 21 -10 17 0 14 92 -5 155 -10 31 -10 47 -1
70 l12 30 24 -28 c15 -18 24 -41 24 -62 0 -38 17 -56 26 -28 19 62 43 66 80
14 32 -45 49 -51 59 -21 8 25 33 50 50 50 7 0 16 -11 19 -25 10 -40 26 -29 26
19 0 48 34 106 52 88 19 -19 13 -81 -11 -113 -30 -40 -19 -50 17 -16 29 28 42
27 42 -5 0 -10 5 -18 10 -18 6 0 10 5 10 10 0 23 50 60 80 60 16 0 30 -4 30
-10 0 -24 -27 -62 -57 -81 -39 -25 -35 -39 13 -39 43 0 44 -17 4 -55 -16 -16
-30 -32 -30 -37 0 -12 42 -32 84 -37 56 -8 63 -25 47 -116 -7 -42 -10 -79 -7
-83 3 -3 16 4 29 15 30 28 61 43 88 43 22 0 22 -8 4 -54 -7 -17 -4 -18 24 -14
42 6 46 -4 16 -40 -22 -26 -32 -52 -21 -52 2 0 17 7 32 15 33 17 62 19 83 6
34 -22 -52 -76 -105 -68 -52 9 -51 -11 2 -33 44 -19 46 -21 30 -39 -9 -10 -34
-23 -56 -30 -22 -6 -40 -16 -40 -21 0 -5 17 -17 37 -25 44 -19 75 -44 67 -56
-10 -16 -79 -9 -112 11 -18 11 -35 20 -38 20 -3 0 -2 -16 2 -37 l7 -36 -47 6
c-47 7 -58 -1 -31 -23 40 -33 -12 -57 -101 -47 -55 6 -66 -7 -18 -23 64 -22
164 6 164 46 0 7 10 14 22 16 12 2 27 12 33 24 9 17 15 19 38 11 34 -11 91 -2
107 18 14 17 -8 55 -45 75 l-25 13 34 23 c40 28 50 48 30 65 -12 10 -8 16 25
37 76 49 77 102 2 102 -36 0 -37 1 -33 35 4 32 2 35 -23 35 -24 0 -26 3 -20
29 5 25 3 29 -19 35 -14 3 -43 0 -64 -7 l-39 -14 2 75 c1 58 5 76 18 84 9 5
17 16 17 24 0 18 -58 54 -87 54 -17 0 -23 6 -23 21 0 12 -8 23 -20 26 -24 6
-25 16 -5 33 8 7 20 30 27 52 10 33 9 41 -3 49 -22 14 -52 11 -94 -11 -47 -24
-60 -16 -68 42 -3 22 -12 48 -21 56 -14 15 -19 13 -46 -13 -16 -16 -32 -37
-36 -47 -10 -34 -47 -22 -66 22 -21 51 -45 61 -70 31 -10 -13 -18 -32 -18 -42
0 -12 -7 -19 -18 -19 -10 0 -23 -5 -28 -10 -8 -8 -24 2 -53 32 l-43 43 -20
-25 c-20 -25 -20 -37 -2 -172 6 -44 5 -46 -16 -41 -14 4 -29 -2 -44 -16 -16
-15 -26 -19 -31 -11 -4 6 -20 8 -40 4 -30 -5 -33 -4 -28 14 3 12 16 22 33 26
16 3 34 15 40 27 10 17 8 25 -11 45 -12 13 -27 24 -33 24 -21 1 -56 38 -56 59
0 12 4 21 9 21 14 0 61 51 61 67 0 7 -12 19 -27 25 -16 7 -29 13 -31 13 -1 1
4 18 13 37 12 31 13 38 0 48 -9 7 -26 9 -45 5 -29 -6 -30 -6 -30 30 0 37 -24
95 -39 95 -14 0 -81 -79 -81 -95 0 -21 -7 -19 -42 10 -17 14 -35 24 -41 22
-17 -5 -47 -69 -47 -99 0 -26 -2 -27 -20 -16 -17 11 -25 10 -47 -2 -27 -15
-28 -15 -45 18 -16 32 -16 35 3 65 24 41 25 77 2 78 -10 0 -31 2 -48 2 -21 2
-31 8 -33 22 -4 27 -24 65 -33 65 -5 0 -19 -12 -33 -26 l-24 -27 -15 29 c-8
17 -27 36 -41 43 -23 13 -28 12 -44 -3 -17 -15 -20 -15 -32 -1 -25 30 -44 34
-79 17z m-141 -101 c0 -23 -8 -48 -19 -62 l-19 -24 -11 28 c-14 37 -14 36 9
75 25 40 40 34 40 -17z m1345 -320 c11 -23 12 -36 4 -61 -6 -17 -16 -29 -22
-27 -20 6 -31 65 -19 92 15 32 18 31 37 -4z m-2477 -266 c16 -35 15 -77 -2
-101 -15 -19 -15 -19 -30 1 -8 11 -16 32 -16 47 0 29 19 78 30 78 4 0 12 -11
18 -25z m2899 4 c35 -30 -61 -54 -109 -28 l-21 11 24 20 c26 20 79 19 106 -3z"/>
<path d="M5006 4655 c-42 -41 -53 -89 -36 -149 12 -45 6 -106 -11 -106 -5 0
-9 23 -9 50 0 45 -4 55 -37 90 -21 22 -49 41 -63 42 -23 3 -25 -1 -28 -40 -4
-54 23 -100 77 -130 33 -19 41 -30 47 -60 3 -20 8 -46 11 -57 3 -13 -13 -1
-47 33 -49 49 -70 62 -70 44 0 -4 18 -26 41 -47 22 -22 55 -60 72 -85 30 -42
32 -51 32 -130 0 -84 -1 -86 -74 -245 -70 -152 -91 -191 -91 -170 0 6 -4 36
-10 68 -8 54 -7 65 20 133 23 58 30 90 30 144 0 40 -4 70 -10 70 -6 0 -10 -28
-10 -63 0 -35 -8 -86 -17 -113 l-17 -49 -13 33 c-9 23 -10 38 -3 52 26 49 4
130 -47 170 l-28 21 -18 -23 c-15 -18 -18 -34 -15 -77 4 -47 10 -59 42 -89 38
-34 56 -74 56 -121 l0 -25 -29 28 c-27 26 -96 50 -113 40 -14 -9 -8 -48 12
-82 21 -34 72 -62 113 -62 19 0 26 -7 31 -31 9 -48 7 -130 -5 -174 -6 -21 -16
-73 -23 -114 l-11 -75 -29 45 c-16 24 -51 69 -78 100 l-49 57 20 33 c27 44 27
113 1 157 -11 17 -27 32 -35 32 -23 0 -58 -84 -53 -128 l4 -36 -38 43 c-52 60
-88 139 -88 197 l0 47 36 -6 c55 -9 93 3 130 40 36 36 44 67 18 77 -31 12 -79
6 -111 -14 -18 -11 -33 -17 -33 -14 0 20 27 46 65 63 57 25 85 70 85 134 0 41
-3 47 -21 47 -32 0 -87 -38 -104 -70 -8 -16 -15 -47 -15 -68 0 -25 -12 -63
-35 -106 -19 -37 -35 -75 -35 -84 -1 -45 -19 22 -35 127 -9 62 -19 119 -22
127 -2 7 12 46 32 87 24 48 35 84 33 103 -3 26 -5 25 -20 -21 -8 -28 -25 -66
-36 -84 l-20 -34 -23 44 c-17 32 -22 58 -20 94 2 55 -22 104 -66 132 -21 14
-23 13 -39 -20 -21 -44 -13 -95 22 -136 32 -39 63 -131 70 -206 l5 -60 -23 29
c-13 16 -44 51 -70 77 -25 26 -52 63 -59 83 -7 20 -17 36 -22 36 -10 0 -1 -32
19 -72 19 -37 19 -38 -20 -38 -44 0 -52 -12 -30 -49 24 -41 64 -61 122 -61 46
0 52 -3 70 -32 11 -18 23 -62 26 -98 9 -79 29 -163 56 -226 l20 -46 -27 6
c-40 10 -143 61 -177 89 -27 22 -28 26 -18 57 23 65 13 109 -36 163 -35 37
-49 34 -63 -14 -12 -39 -8 -76 16 -132 7 -16 3 -15 -41 3 -27 12 -64 36 -83
53 -32 31 -33 33 -28 98 3 36 1 72 -4 80 -6 10 -9 7 -9 -12 0 -15 -3 -41 -6
-58 l-7 -32 -48 53 c-29 33 -48 47 -49 37 0 -9 10 -24 21 -35 25 -22 102 -135
96 -140 -2 -2 -56 12 -120 31 -63 19 -121 35 -128 35 -32 0 15 -22 136 -63
133 -45 202 -73 210 -87 3 -4 -24 -13 -58 -20 -53 -10 -73 -9 -126 5 -93 24
-106 9 -17 -19 18 -6 17 -8 -7 -34 -33 -34 -46 -89 -24 -98 26 -10 95 15 116
43 12 14 21 36 21 49 0 19 8 24 50 33 76 16 79 15 156 -43 39 -29 86 -62 105
-72 l34 -18 -35 -9 c-19 -5 -68 -12 -107 -14 -70 -4 -91 -14 -57 -27 9 -3 29
-6 46 -6 25 0 29 -3 23 -17 -5 -10 -8 -29 -9 -43 -1 -23 2 -25 47 -24 57 0 94
24 120 77 l18 36 65 -23 c78 -28 137 -75 199 -158 70 -93 122 -205 150 -323
l7 -30 -24 21 c-27 24 -67 47 -121 68 l-38 15 17 32 c22 44 14 109 -20 154
-32 42 -49 44 -64 10 -18 -40 -14 -106 8 -143 18 -29 18 -32 2 -23 -27 14 -49
43 -56 75 -10 40 -55 82 -105 97 -55 16 -66 6 -52 -49 14 -49 58 -89 109 -98
20 -3 56 -19 79 -35 23 -16 46 -29 52 -29 6 0 11 -4 11 -10 0 -23 -110 -2
-187 36 -59 29 -95 28 -151 -6 -40 -24 -38 -39 9 -62 45 -24 96 -23 137 2 32
20 72 27 72 12 0 -4 -13 -13 -30 -20 -36 -16 -68 -59 -76 -101 -6 -29 -5 -31
25 -31 72 0 117 38 135 113 6 26 9 27 73 27 125 0 192 -57 227 -194 8 -34 19
-71 22 -81 6 -15 4 -16 -15 -5 -45 24 -151 9 -151 -21 0 -21 62 -68 97 -75 19
-4 50 -2 69 4 l33 10 30 -77 c48 -125 87 -321 64 -321 -4 0 -35 20 -68 45 -33
24 -88 57 -123 72 -52 24 -61 31 -57 48 20 67 17 104 -9 149 -15 26 -34 46
-42 46 -33 0 -56 -108 -34 -164 5 -14 6 -26 2 -26 -15 1 -73 57 -111 109 -37
49 -39 55 -26 75 24 33 19 120 -8 151 l-22 27 -19 -21 c-11 -12 -21 -42 -24
-71 l-5 -50 -28 21 c-18 12 -44 51 -66 100 -52 111 -67 100 -19 -15 9 -22 14
-41 12 -43 -2 -3 -37 9 -78 26 -52 22 -88 46 -122 80 -48 49 -48 50 -42 98 4
28 24 75 46 113 41 69 57 110 43 110 -5 0 -19 -23 -32 -50 -36 -76 -63 -86
-35 -12 20 50 13 101 -20 139 l-24 27 -21 -34 c-34 -56 -27 -114 21 -166 18
-20 18 -27 7 -83 -6 -34 -16 -58 -21 -55 -5 4 -28 43 -49 88 l-40 81 7 93 c4
65 3 92 -5 92 -6 0 -12 -19 -12 -42 -1 -24 -4 -56 -8 -71 l-6 -28 -30 39 c-36
46 -93 97 -102 89 -3 -3 8 -23 24 -44 39 -49 49 -70 72 -140 10 -32 22 -66 26
-75 7 -18 -7 -18 -143 -2 -53 7 -64 27 -71 138 -4 44 -11 81 -16 83 -6 2 -9
-15 -6 -44 l3 -46 -49 41 c-71 60 -85 52 -20 -12 49 -49 88 -118 74 -133 -3
-2 -37 12 -77 32 -73 39 -108 42 -49 5 98 -60 163 -83 261 -92 54 -4 103 -9
110 -10 16 -4 13 17 -13 96 -10 33 -19 62 -18 65 0 3 27 -46 59 -110 39 -78
77 -137 114 -176 56 -61 75 -72 226 -141 103 -47 134 -72 207 -169 57 -75 97
-104 188 -133 65 -21 128 -55 205 -114 41 -30 78 -52 83 -49 6 3 7 47 4 107
-6 107 -21 162 -95 353 -22 55 -52 152 -67 215 -55 233 -100 343 -187 453 -49
63 -126 128 -170 144 -118 45 -184 80 -266 140 -51 37 -96 71 -100 76 -14 15
64 -28 98 -55 19 -15 55 -38 80 -52 53 -29 179 -73 187 -64 3 3 -5 32 -19 63
-14 32 -30 72 -36 88 -18 47 -42 201 -42 269 0 33 -9 93 -19 131 -34 123 -34
122 -22 105 26 -36 53 -132 71 -251 23 -148 55 -248 101 -322 19 -28 82 -103
142 -166 59 -63 126 -145 149 -182 22 -38 43 -69 47 -69 4 0 14 55 24 123 21
151 43 226 114 381 30 66 65 147 77 178 12 31 25 61 30 65 18 17 -7 -71 -56
-199 -60 -157 -73 -203 -93 -323 -40 -242 -3 -473 117 -725 28 -58 70 -150 94
-205 43 -96 44 -102 38 -167 -5 -48 -3 -68 5 -68 6 0 11 14 11 31 0 79 65 230
167 388 115 177 143 272 143 482 0 146 -11 232 -45 364 -25 97 -40 173 -32
165 3 -3 17 -39 31 -80 15 -41 30 -78 35 -83 11 -11 86 134 126 243 18 50 29
106 34 170 6 83 8 90 15 57 5 -22 6 -77 2 -123 -9 -104 -5 -105 96 -29 64 48
79 65 108 124 33 70 39 126 5 61 -39 -76 -89 -142 -131 -170 -23 -17 -45 -30
-47 -30 -2 0 -7 51 -10 113 -4 61 -9 137 -13 167 -9 80 8 129 63 183 54 53 41
63 -19 15 -38 -29 -40 -30 -33 -9 4 13 18 39 32 60 21 30 24 45 21 88 -8 96
-51 103 -90 15 -20 -44 -20 -48 -4 -91 18 -52 20 -112 7 -192 -5 -30 -12 -75
-16 -101 l-6 -48 -39 45 c-21 24 -43 60 -50 80 -14 41 -33 48 -24 8 10 -41 22
-62 71 -121 31 -39 43 -63 43 -86 0 -58 -39 -186 -86 -285 l-46 -96 -19 43
c-42 98 -50 153 -36 254 14 101 12 208 -5 208 -7 0 -9 -20 -5 -58 6 -60 0
-132 -12 -132 -4 0 -11 13 -17 28 -13 33 -67 77 -106 87 -27 7 -28 5 -28 -29
0 -20 7 -52 14 -71 14 -34 14 -35 -7 -35 -25 0 -87 -35 -87 -49 0 -16 51 -50
85 -57 23 -4 48 1 80 15 26 12 48 21 49 21 1 0 0 -33 -2 -73 -3 -58 3 -101 28
-203 17 -71 34 -167 37 -214 l6 -84 -32 36 c-25 29 -33 47 -36 89 -2 31 -11
62 -22 78 -24 32 -83 73 -97 68 -6 -2 -12 -23 -14 -48 -5 -59 20 -102 79 -138
90 -56 134 -139 124 -235 -18 -161 -45 -234 -141 -381 -29 -46 -73 -123 -98
-171 l-44 -88 -16 38 c-9 21 -16 40 -16 42 0 2 -18 40 -40 85 -44 90 -51 148
-29 235 11 42 14 45 38 40 79 -18 91 -18 134 3 50 24 78 64 59 83 -7 7 -38 12
-70 13 -45 0 -64 -5 -91 -24 l-34 -25 28 52 c23 43 31 50 46 42 48 -26 136 2
167 53 16 27 16 29 -2 43 -25 18 -93 18 -126 1 l-25 -13 4 83 c2 56 -1 83 -8
83 -7 0 -11 -26 -11 -70 0 -68 -22 -146 -55 -193 -12 -17 -13 -11 -8 54 4 66
3 78 -18 108 -48 68 -68 66 -89 -10 -13 -46 1 -94 40 -134 37 -39 39 -63 12
-145 -12 -36 -24 -78 -28 -94 -7 -36 -14 -27 -45 54 -45 120 -60 201 -66 361
-6 163 5 232 43 284 14 19 15 19 37 -7 12 -14 32 -31 44 -37 30 -15 105 -14
127 2 18 13 18 15 1 41 -23 35 -70 59 -117 59 -21 0 -38 3 -38 7 0 10 26 20
51 20 60 0 129 70 129 130 0 21 -4 22 -49 18 -65 -6 -107 -38 -123 -91 -6 -23
-24 -57 -40 -75 -15 -18 -28 -37 -28 -42 0 -6 -4 -10 -9 -10 -13 0 11 78 70
232 27 69 58 162 70 205 25 92 51 130 130 188 33 24 55 46 51 49 -11 7 -89
-43 -121 -78 -14 -14 -27 -26 -31 -26 -7 0 22 173 40 240 9 35 18 43 68 68 61
30 86 62 98 126 l7 39 -44 -6 c-60 -8 -103 -55 -113 -122 -4 -27 -14 -58 -21
-69 -13 -19 -32 -102 -66 -276 -16 -84 -28 -108 -29 -55 0 22 -11 82 -24 133
-23 87 -23 96 -10 154 11 46 24 72 54 104 35 39 40 49 40 93 0 54 -14 101 -29
101 -6 0 -26 -16 -45 -35z m54 -61 c0 -27 -7 -51 -21 -68 -26 -33 -32 -30 -20
12 6 19 6 32 0 32 -5 0 -12 -12 -15 -27 -7 -25 -8 -26 -15 -6 -10 28 1 66 30
99 28 33 41 20 41 -42z m196 -16 c-7 -34 -60 -97 -72 -85 -4 3 -1 13 6 22 15
18 -1 20 -18 3 -9 -9 -12 -9 -12 1 0 23 21 52 53 71 44 27 51 25 43 -12z m404
-52 c-1 -17 -7 -42 -15 -56 l-14 -25 -1 30 c-1 29 -1 29 -15 11 -14 -19 -15
-18 -15 13 0 17 7 46 16 63 16 30 17 31 30 13 8 -10 14 -33 14 -49z m-764 0
c24 -24 34 -43 34 -65 0 -35 -6 -38 -38 -15 -39 27 -71 114 -41 114 6 0 26
-15 45 -34z m-653 -117 c17 -30 19 -42 11 -70 l-10 -34 -27 29 c-21 22 -27 39
-27 73 0 55 22 56 53 2z m337 -229 c0 -39 -24 -86 -51 -101 -24 -12 -38 -4
-21 13 7 7 12 19 12 28 -1 11 -6 9 -20 -9 l-20 -23 0 22 c0 23 69 100 89 100
6 0 11 -14 11 -30z m-395 -54 c37 -24 32 -46 -9 -46 -34 0 -96 40 -96 62 0 15
75 3 105 -16z m564 -22 c11 -14 23 -42 27 -61 8 -42 -10 -68 -20 -29 -3 14
-10 26 -15 26 -6 0 -6 -13 -1 -31 9 -31 9 -31 -10 -14 -23 20 -35 74 -26 110
8 32 19 32 45 -1z m520 -48 c34 -18 56 -50 64 -94 l7 -33 -40 22 c-38 21 -70
69 -70 103 0 20 4 20 39 2z m-689 -70 c0 -27 -59 -66 -101 -66 -45 0 -48 8
-16 38 40 38 117 56 117 28z m-475 -53 c27 -41 31 -67 14 -110 l-11 -28 -19
23 c-24 31 -37 80 -31 120 6 41 16 40 47 -5z m1168 -4 c41 -11 47 -23 18 -39
-37 -19 -131 -4 -131 21 0 7 42 23 70 28 3 1 22 -4 43 -10z m-556 -79 c30 -18
73 -80 56 -80 -38 0 -87 25 -103 53 -11 18 -20 35 -20 40 0 13 35 7 67 -13z
m423 -69 c0 -22 -49 -76 -80 -89 -34 -14 -35 -14 -17 5 25 28 21 38 -8 19 -27
-18 -30 -15 -14 15 20 38 119 80 119 50z m-530 -67 c15 -43 6 -95 -19 -118
-17 -16 -19 -16 -25 6 -15 58 -1 148 24 148 4 0 14 -16 20 -36z m-735 16 c8
-13 -21 -66 -40 -74 -9 -3 -28 -6 -42 -6 l-25 0 19 32 c25 43 74 70 88 48z
m1221 -151 c28 -26 18 -39 -33 -39 -35 0 -97 45 -87 62 11 18 93 2 120 -23z
m-836 -8 c0 -4 -11 -20 -24 -34 -26 -28 -60 -41 -97 -35 -23 3 -23 4 13 41 28
29 44 37 72 37 20 0 36 -4 36 -9z m1020 -38 c17 -16 34 -43 39 -60 10 -35 4
-41 -18 -20 -11 10 -13 9 -8 -5 9 -25 -6 -22 -32 6 -25 26 -41 106 -22 106 6
0 24 -12 41 -27z m-761 -226 c20 -42 21 -100 1 -112 -9 -6 -34 30 -45 63 -8
27 2 92 15 92 4 0 18 -19 29 -43z m-178 17 c24 -12 59 -64 59 -88 0 -2 -17 0
-37 5 -40 8 -83 51 -83 82 0 21 22 22 61 1z m-332 -69 c10 -37 -2 -95 -20 -95
-4 0 -14 18 -20 40 -9 30 -9 46 -1 65 16 35 29 31 41 -10z m1031 -7 c21 -35
26 -94 10 -118 -17 -24 -60 35 -60 82 0 73 19 87 50 36z m246 -60 c4 -6 -4
-21 -20 -35 -21 -17 -39 -23 -77 -23 -59 0 -61 12 -9 48 35 24 94 30 106 10z
m-997 -19 c38 -13 40 -32 6 -47 -35 -16 -60 -15 -98 5 l-32 16 40 18 c48 22
44 22 84 8z m131 -89 c0 -27 -49 -77 -82 -84 -50 -11 -25 48 36 85 39 24 46
24 46 -1z m819 -46 c8 -7 -25 -38 -56 -50 -31 -13 -93 -9 -93 6 0 11 33 38 60
49 22 9 77 6 89 -5z m-829 -213 c12 -24 13 -81 1 -100 -21 -33 -48 34 -36 89
8 35 20 38 35 11z m338 -21 c45 -28 40 -40 -17 -40 -49 0 -108 31 -96 51 11
16 79 10 113 -11z m-118 -176 c12 -36 7 -79 -13 -102 -8 -11 -14 -7 -28 20
-21 38 -23 75 -9 113 8 22 13 25 25 15 8 -6 19 -27 25 -46z"/>
<path d="M5447 4503 c-16 -16 -6 -101 16 -133 25 -38 81 -75 97 -65 5 3 10 27
10 53 0 56 -26 104 -72 132 -36 22 -41 23 -51 13z m49 -38 c26 -18 54 -74 54
-109 0 -31 -3 -31 -37 -9 -28 19 -53 68 -53 108 0 29 7 31 36 10z"/>
<path d="M5192 4457 c-29 -17 -55 -54 -48 -72 6 -17 66 -30 95 -20 33 10 81
55 81 75 0 10 -7 21 -16 24 -26 10 -88 6 -112 -7z m96 -16 c23 -14 -34 -51
-79 -51 -43 0 -48 9 -21 32 30 27 75 35 100 19z"/>
<path d="M4684 4403 c-9 -45 18 -100 59 -123 24 -13 29 -13 38 0 18 27 4 99
-27 131 -39 41 -61 38 -70 -8z m70 -34 c21 -39 16 -72 -9 -63 -19 8 -45 56
-45 84 0 33 32 21 54 -21z"/>
<path d="M6090 4315 c-15 -45 -2 -87 40 -130 33 -34 36 -55 19 -135 -9 -45
-21 -64 -61 -105 -30 -30 -64 -80 -86 -125 l-36 -75 -18 70 c-9 39 -18 82 -18
98 0 15 -4 27 -10 27 -16 0 -12 -58 11 -147 l21 -82 -27 -83 c-31 -93 -73
-181 -104 -218 l-20 -25 -1 39 c0 40 -32 101 -58 111 -17 6 -42 -53 -42 -97 0
-18 12 -53 26 -78 l26 -45 -99 -92 c-54 -51 -100 -93 -103 -93 -6 0 -41 353
-40 405 0 17 7 41 16 53 23 34 93 65 149 67 60 2 97 24 120 71 25 53 17 69
-30 67 -49 -3 -84 -28 -110 -78 -15 -28 -31 -42 -59 -52 -21 -7 -46 -19 -54
-25 -13 -11 -14 -9 -8 17 15 64 58 136 104 173 25 20 64 53 86 73 23 20 68 51
101 68 33 18 67 39 75 46 8 7 30 20 47 29 36 18 63 61 63 101 0 29 -17 32 -61
9 -30 -15 -59 -65 -59 -102 0 -13 -19 -29 -62 -52 -72 -38 -235 -170 -267
-217 -13 -17 -34 -64 -48 -105 -21 -61 -25 -91 -25 -178 0 -58 5 -134 11 -170
6 -36 11 -109 11 -162 0 -58 4 -98 10 -98 5 0 39 28 76 62 36 35 75 69 85 76
43 30 168 185 201 249 20 37 55 122 78 188 48 135 74 191 119 252 32 44 101
96 148 113 l28 10 -25 -18 c-120 -84 -164 -143 -208 -277 -41 -123 -68 -233
-59 -241 3 -4 30 3 59 15 29 12 98 33 152 47 55 13 124 35 154 49 70 32 152
92 152 112 0 11 -10 7 -37 -14 -49 -38 -107 -73 -121 -73 -17 0 16 69 59 124
22 27 39 56 39 65 0 12 -5 10 -19 -8 l-19 -24 -6 40 c-9 48 -42 106 -59 100
-7 -2 -22 -21 -35 -43 -28 -48 -25 -107 8 -151 20 -27 21 -35 11 -66 -17 -51
-35 -62 -156 -92 -60 -15 -118 -32 -128 -37 -10 -5 -21 -8 -23 -5 -6 6 42 169
73 250 34 88 84 144 197 220 50 34 95 65 100 69 6 4 8 9 5 13 -3 3 -49 -10
-103 -28 -84 -30 -96 -32 -96 -17 0 70 89 190 141 190 33 0 73 31 89 69 18 43
7 65 -28 56 -45 -11 -73 -34 -93 -78 -10 -23 -36 -59 -58 -80 l-39 -38 5 65
c6 64 5 66 -30 101 -19 19 -40 35 -45 35 -6 0 -16 -16 -22 -35z m63 -26 c12
-17 17 -38 15 -63 l-3 -36 -27 25 c-22 20 -28 35 -28 66 0 46 13 48 43 8z
m227 22 c0 -23 -15 -43 -41 -56 -35 -19 -39 -19 -39 0 0 20 45 65 65 65 8 0
15 -4 15 -9z m-390 -177 c0 -21 -43 -73 -62 -74 -14 0 -9 35 8 58 13 19 54 32
54 16z m350 -280 c6 -14 10 -44 10 -67 -1 -41 -1 -42 -15 -17 l-13 25 -4 -35
c-3 -35 -3 -35 -16 -11 -17 29 -18 81 -3 110 15 28 29 27 41 -5z m-560 -102
c0 -24 -49 -69 -80 -74 -36 -5 -37 23 -1 60 33 37 81 44 81 14z m-15 -282 c16
-31 19 -61 9 -98 -14 -51 -61 43 -49 98 8 38 20 38 40 0z"/>
<path d="M6433 4151 c-31 -19 -49 -53 -39 -70 12 -19 76 -22 110 -6 41 20 73
62 58 77 -21 21 -95 20 -129 -1z m91 -10 c17 -7 17 -9 -9 -29 -33 -26 -95 -30
-95 -7 0 9 15 22 33 30 36 16 44 17 71 6z"/>
<path d="M6496 3960 c-50 -60 -43 -180 10 -180 27 0 64 72 64 123 0 87 -29
110 -74 57z m52 -46 c2 -39 -27 -104 -47 -104 -12 0 -23 63 -14 86 12 35 36
65 47 61 6 -2 12 -21 14 -43z"/>
<path d="M3425 3934 c-33 -16 -64 -52 -65 -72 0 -6 20 -17 45 -24 33 -9 45
-17 45 -31 0 -10 13 -25 28 -34 27 -15 28 -18 18 -55 -14 -54 -2 -63 58 -43
61 21 84 15 62 -17 -33 -47 -16 -70 59 -83 68 -13 91 -46 29 -42 -36 2 -46 -6
-58 -45 -4 -14 -11 -11 -39 17 -43 43 -55 44 -69 4 -9 -28 -12 -29 -27 -15
-24 22 -36 20 -59 -9 l-20 -25 -35 35 c-42 42 -74 46 -83 10 -3 -14 -3 -36 0
-49 5 -21 2 -25 -21 -28 -25 -3 -28 -7 -27 -40 1 -38 20 -72 35 -63 4 3 1 21
-6 39 -8 18 -12 36 -9 39 9 9 58 -9 102 -37 23 -14 43 -26 46 -26 2 0 6 23 8
50 3 29 13 59 24 71 17 19 19 19 31 3 7 -10 13 -26 13 -36 0 -10 7 -18 15 -18
8 0 15 6 15 13 0 6 5 29 11 51 l11 38 24 -23 c13 -12 27 -32 30 -43 6 -20 22
-36 35 -36 4 0 10 17 14 37 4 21 11 46 16 55 9 17 12 17 34 2 25 -16 45 -12
45 10 0 8 17 15 46 19 38 4 49 1 69 -19 24 -24 55 -23 76 2 17 21 2 30 -23 15
-20 -12 -24 -11 -43 11 -19 22 -28 25 -73 20 -43 -4 -52 -2 -64 17 -9 15 -23
21 -50 21 -75 0 -88 22 -38 67 32 29 27 43 -18 43 -21 0 -22 3 -16 35 4 23 2
35 -5 35 -6 0 -11 -6 -11 -14 0 -21 -41 -63 -67 -71 -19 -5 -23 -2 -23 15 0
21 29 55 66 76 33 20 9 26 -29 8 -34 -16 -37 -16 -61 0 -31 20 -33 32 -7 41
21 6 57 43 50 50 -3 2 -24 -5 -47 -16 -42 -21 -91 -18 -93 6 -4 33 84 58 140
40 31 -9 26 13 -5 25 -36 14 -74 12 -109 -6z m-40 -459 c17 -16 25 -35 25 -60
l0 -35 -25 16 c-31 20 -45 44 -45 78 0 33 14 33 45 1z"/>
<path d="M6608 3821 c-25 -16 -65 -55 -90 -87 -52 -68 -123 -136 -164 -157
-16 -8 -76 -31 -134 -50 -206 -68 -259 -104 -382 -260 -39 -51 -115 -137 -168
-192 -80 -84 -108 -123 -177 -245 -106 -190 -147 -273 -167 -340 -36 -121 -60
-370 -36 -385 5 -3 38 19 74 48 78 67 131 98 221 132 187 71 264 128 426 320
85 100 130 131 290 201 115 50 133 63 160 117 22 41 34 49 26 14 -12 -47 7
-52 69 -17 85 48 182 118 194 140 12 22 60 154 60 165 0 25 -32 -26 -50 -79
-13 -39 -33 -74 -53 -94 -32 -31 -174 -122 -190 -122 -12 0 1 57 28 118 18 39
29 52 45 52 26 0 80 27 80 40 0 5 -16 2 -36 -6 -39 -16 -62 -10 -29 8 53 30
86 98 70 148 -9 28 -39 19 -85 -26 -32 -31 -35 -40 -36 -92 0 -52 -18 -102
-36 -102 -4 0 -10 17 -13 38 -16 90 -26 113 -58 132 -51 31 -67 27 -67 -19 0
-45 35 -95 74 -105 13 -3 29 -18 35 -35 11 -26 9 -36 -22 -97 -19 -38 -46 -79
-59 -91 -13 -12 -69 -42 -125 -66 -181 -79 -214 -103 -341 -257 -48 -57 -109
-121 -136 -141 -43 -33 -165 -99 -182 -99 -3 0 5 19 19 43 14 23 42 85 62 137
39 99 75 158 120 200 34 32 69 89 60 98 -3 4 -11 -2 -17 -13 -6 -10 -38 -47
-70 -82 -33 -35 -72 -90 -87 -123 l-28 -59 -23 75 c-13 42 -28 78 -33 81 -10
6 -6 -31 8 -75 8 -24 8 -24 -23 -8 -17 9 -50 16 -72 16 -38 0 -41 -2 -34 -22
21 -71 53 -99 126 -113 l37 -7 -26 -52 c-43 -84 -70 -112 -146 -150 -40 -19
-97 -56 -127 -81 l-55 -45 -3 52 c-4 64 22 228 49 305 19 55 91 198 163 319
31 53 44 66 103 97 37 19 93 40 124 47 51 11 62 10 113 -9 31 -11 65 -21 74
-21 11 0 23 -13 31 -35 14 -41 54 -65 106 -65 42 0 47 22 15 63 -26 32 -25 37
4 37 14 0 27 4 30 9 4 5 -40 11 -101 13 -60 2 -121 10 -138 17 -30 13 -29 14
60 36 50 13 104 29 120 36 17 7 64 13 105 14 72 1 150 20 150 37 0 11 -7 10
-64 -7 -81 -25 -125 -18 -94 13 21 21 0 25 -29 4 -33 -23 -156 -66 -173 -60
-18 6 27 57 79 89 32 21 58 29 88 29 53 0 94 20 122 59 27 37 27 58 0 66 -53
17 -149 -38 -149 -85 0 -10 -8 -20 -19 -23 -17 -4 -16 -1 5 31 24 34 30 75 18
120 -8 27 -24 28 -57 1 -37 -28 -53 -88 -39 -138 l12 -38 -60 -60 -61 -60
-102 -6 c-56 -3 -111 -9 -122 -13 -11 -4 14 28 55 72 42 43 103 116 137 160
75 98 136 154 206 186 52 25 255 92 311 103 18 4 25 9 18 14 -7 4 6 22 38 49
27 24 70 71 95 106 24 35 63 76 85 91 22 15 40 32 40 36 0 13 -1 12 -52 -20z
m-523 -510 c11 -34 -22 -121 -46 -121 -15 0 -10 90 7 115 20 30 31 32 39 6z
m575 -48 c0 -39 -69 -117 -87 -99 -11 10 20 77 44 96 32 25 43 25 43 3z m-420
-1 c0 -37 -90 -86 -113 -62 -18 17 45 70 83 70 17 0 30 -3 30 -8z m208 -55
c25 -23 30 -67 8 -67 -21 0 -56 49 -56 77 0 26 9 24 48 -10z m-633 -197 c4 -6
-8 -10 -28 -10 -36 0 -122 -27 -178 -55 -33 -18 -34 -18 -19 1 22 27 30 33 75
45 34 9 57 14 137 28 4 0 10 -3 13 -9z m248 -112 c32 -32 32 -33 9 -36 -27 -4
-67 19 -82 48 -19 35 36 26 73 -12z m-445 -331 c13 -12 28 -31 34 -41 10 -18
7 -19 -28 -13 -38 6 -94 53 -94 78 0 18 61 1 88 -24z"/>
<path d="M4370 3760 c0 -29 89 -167 152 -236 35 -38 75 -85 90 -104 18 -23 28
-29 28 -19 0 9 -38 60 -84 113 -80 90 -105 125 -162 221 -13 22 -24 33 -24 25z"/>
<path d="M4831 3540 c-16 -48 -26 -278 -13 -310 8 -19 11 1 11 91 1 63 6 141
12 173 12 69 7 94 -10 46z"/>
<path d="M6715 3496 c-21 -20 -43 -32 -53 -29 -9 2 -37 -7 -61 -19 l-44 -24
-23 23 c-38 38 -124 26 -164 -22 -13 -15 -11 -20 13 -41 31 -27 88 -32 106
-10 9 11 6 12 -14 8 -14 -2 -39 1 -55 8 -29 12 -30 14 -15 30 22 24 58 32 90
20 23 -9 26 -15 21 -35 -6 -24 -4 -25 21 -19 14 4 42 18 61 31 43 29 60 29 64
1 4 -31 24 -33 32 -4 8 33 55 88 68 80 6 -4 8 -26 4 -55 -4 -27 -4 -49 -1 -49
3 0 15 9 27 20 38 35 52 27 45 -30 -8 -62 14 -70 32 -11 6 21 20 50 30 62 l19
24 10 -25 c6 -14 13 -38 17 -53 7 -34 25 -26 25 12 0 30 36 92 58 99 18 6 15
-69 -4 -96 -19 -28 -15 -51 6 -30 33 31 66 48 97 48 41 0 42 -13 4 -51 -23
-23 -39 -29 -70 -29 -23 0 -41 -5 -41 -11 0 -6 21 -9 57 -8 31 2 58 -1 60 -7
1 -5 -13 -19 -33 -32 -40 -26 -38 -35 17 -63 47 -23 43 -37 -12 -45 -46 -8
-42 -16 18 -33 45 -12 93 -64 73 -76 -21 -13 -79 6 -99 30 -19 26 -41 33 -41
15 0 -6 -8 -10 -17 -8 -14 2 -18 -4 -19 -27 -1 -59 -4 -65 -25 -65 -12 0 -37
9 -55 21 -19 11 -35 19 -35 17 -1 -2 -3 -16 -5 -31 -1 -16 -10 -40 -18 -53 -9
-13 -16 -26 -16 -29 0 -3 22 -5 48 -5 27 0 51 -3 55 -6 3 -4 -1 -20 -9 -36
-20 -39 -13 -44 30 -24 19 9 44 16 55 16 18 0 20 -4 15 -24 -6 -24 -5 -25 50
-19 64 7 68 0 35 -54 -12 -19 -19 -36 -16 -39 2 -3 22 6 42 21 66 44 138 25
79 -22 -20 -16 -42 -23 -71 -23 -51 0 -55 -14 -10 -33 35 -15 74 -53 64 -63
-10 -10 -74 5 -87 21 -12 14 -40 21 -40 10 0 -3 9 -18 19 -33 11 -15 22 -37
26 -49 5 -19 2 -23 -16 -23 -12 0 -37 10 -56 21 -44 27 -52 18 -19 -21 14 -17
26 -35 26 -40 0 -5 3 -15 6 -24 4 -11 0 -16 -14 -16 -27 0 -67 34 -82 70 -12
29 -30 41 -30 19 0 -51 75 -119 131 -119 20 0 21 4 17 45 l-6 45 34 0 c32 0
34 2 34 34 0 34 1 35 43 38 38 3 42 5 39 28 -1 13 -12 35 -24 47 -16 17 -18
23 -7 23 20 0 79 62 79 82 0 18 -28 28 -82 28 -31 0 -35 3 -31 20 6 22 -28 40
-78 40 -18 0 -29 5 -29 14 0 19 -31 29 -64 20 -23 -5 -26 -3 -24 17 3 21 -3
25 -39 33 -45 10 -48 13 -35 33 5 9 18 9 51 0 38 -10 44 -10 57 8 8 10 14 34
14 52 0 38 8 40 52 13 41 -25 116 -27 125 -4 8 22 -25 82 -49 90 -27 8 -18 26
30 52 26 15 42 31 42 42 0 17 -47 60 -67 60 -4 0 -14 12 -20 27 -11 22 -10 30
1 42 7 9 17 26 20 38 6 19 2 25 -21 34 -15 6 -42 8 -60 4 -31 -6 -33 -4 -33
23 0 15 -6 36 -13 46 -12 16 -17 17 -37 6 -12 -7 -34 -24 -46 -39 -22 -24 -25
-25 -35 -8 -14 23 -26 22 -53 -8 -20 -22 -25 -23 -30 -9 -4 12 -13 14 -36 9
-26 -6 -30 -4 -30 15 0 25 -17 60 -30 60 -5 0 -25 -15 -45 -34z m492 -247 c35
-29 -11 -47 -59 -23 -44 22 -45 23 -28 35 17 11 67 4 87 -12z"/>
<path d="M5455 3397 c9 -169 7 -273 -5 -322 -5 -22 -9 -53 -9 -70 1 -28 2 -27
17 15 13 37 16 84 15 257 -1 140 -5 218 -13 230 -8 14 -10 -12 -5 -110z"/>
<path d="M5859 3363 c-61 -74 -95 -123 -85 -123 6 0 156 178 156 185 0 17 -23
-4 -71 -62z"/>
<path d="M3183 3355 c-3 -9 -3 -32 0 -51 5 -31 4 -35 -11 -28 -9 4 -33 8 -52
8 -41 1 -49 -18 -27 -64 14 -27 14 -30 -4 -35 -28 -9 -79 -64 -79 -86 0 -14
-7 -19 -27 -19 -40 0 -56 -14 -49 -38 8 -25 62 -72 82 -72 16 0 19 -16 4 -25
-6 -4 -8 -14 -5 -24 3 -11 -5 -25 -26 -40 -31 -23 -31 -23 -12 -43 11 -11 39
-22 62 -25 23 -3 40 -8 39 -12 -40 -75 -36 -91 22 -91 23 0 51 5 63 11 16 9
22 9 25 0 2 -6 10 -11 18 -11 12 0 13 -8 8 -35 -5 -27 -3 -36 10 -41 29 -11
85 6 115 36 40 41 61 39 61 -4 0 -21 6 -36 15 -40 13 -4 12 -10 -3 -38 -9 -18
-18 -35 -20 -37 -1 -3 -8 1 -14 7 -7 7 -29 12 -50 12 -34 0 -38 -3 -38 -26 0
-15 9 -41 20 -59 l21 -33 -30 -7 c-47 -10 -58 -31 -32 -59 l22 -23 -25 -17
c-39 -25 -51 -54 -32 -75 15 -16 14 -19 -9 -39 -46 -40 -22 -72 53 -72 35 0
39 -3 35 -20 -3 -12 1 -22 10 -26 12 -4 14 -11 6 -31 -5 -13 -9 -38 -9 -55 0
-30 1 -30 36 -25 20 3 45 14 55 23 15 14 21 14 34 4 8 -7 24 -10 35 -7 16 4
23 -2 34 -26 7 -18 21 -39 31 -47 15 -13 19 -12 37 10 10 13 22 35 24 49 3 14
16 34 29 44 23 17 24 17 36 -5 35 -66 100 -60 99 9 0 15 -3 14 -19 -6 -29 -38
-51 -23 -76 54 -6 19 -8 19 -29 -7 -12 -16 -25 -28 -28 -28 -4 0 -16 16 -28
36 -28 44 -49 41 -76 -11 -11 -22 -28 -42 -38 -43 -17 -4 -18 2 -11 57 8 70 3
73 -72 45 -24 -9 -46 -14 -50 -11 -3 4 6 24 21 45 14 21 26 43 26 48 0 12 -65
34 -97 34 -11 0 -26 6 -32 13 -13 16 19 50 57 62 30 9 28 22 -9 41 -42 21 -25
37 49 44 l57 5 -37 22 c-34 20 -76 78 -64 90 8 8 73 -16 86 -32 17 -21 31 -8
24 21 -8 31 16 59 74 86 23 11 42 26 42 34 0 17 0 17 -39 -2 -19 -10 -42 -13
-58 -10 -25 7 -26 12 -12 66 3 9 -4 15 -16 16 -11 0 -30 4 -42 8 -16 5 -23 2
-28 -13 -9 -28 -53 -61 -81 -61 -30 0 -31 19 -3 54 25 32 19 44 -16 28 -37
-17 -37 -16 -30 28 7 42 -8 57 -20 19 -8 -25 -61 -59 -92 -59 -54 0 -2 77 58
86 64 11 61 28 -4 21 -32 -3 -57 -2 -57 3 0 5 -13 7 -30 4 -16 -4 -41 -3 -56
0 -25 7 -26 8 -8 21 25 19 59 19 88 -1 31 -20 44 -1 14 20 -12 9 -28 16 -34
16 -6 0 -17 7 -24 15 -11 13 -8 20 21 45 l34 29 -40 1 c-51 0 -113 39 -99 62
13 20 74 7 108 -22 19 -17 37 -26 40 -21 4 5 -12 25 -34 44 -22 18 -40 41 -40
50 0 22 43 54 85 61 42 8 43 15 10 46 -14 13 -25 29 -25 37 0 21 45 15 66 -8
10 -12 33 -28 49 -35 17 -7 45 -33 64 -59 l33 -47 -46 7 c-29 5 -46 3 -46 -3
0 -5 19 -13 43 -16 23 -4 66 -17 94 -31 29 -13 55 -20 57 -16 3 5 -12 16 -33
25 -26 12 -50 36 -79 80 -35 53 -40 68 -36 102 6 45 -8 76 -26 58 -9 -9 -9
-14 -1 -18 17 -11 13 -56 -6 -63 -20 -8 -59 35 -44 50 5 5 7 23 4 40 -6 27 -4
30 15 25 27 -7 29 8 3 22 -26 13 -31 13 -38 -5z m172 -1124 c8 -14 -45 -51
-74 -51 -14 0 -33 5 -41 10 -13 9 -12 13 9 30 24 21 95 28 106 11z m84 -123
c-10 -38 -51 -78 -80 -78 -23 0 -24 11 -4 50 17 33 52 60 77 60 14 0 15 -5 7
-32z m137 -29 c16 -32 13 -71 -9 -97 -25 -30 -49 67 -27 109 14 25 17 24 36
-12z"/>
<path d="M4685 3303 c28 -66 50 -128 70 -193 18 -56 24 -67 24 -44 1 39 -43
177 -71 221 -21 35 -35 44 -23 16z"/>
<path d="M6854 3150 c-108 -130 -241 -228 -452 -334 -73 -36 -132 -70 -132
-76 0 -5 17 -12 38 -15 20 -3 93 -23 162 -45 69 -22 152 -42 184 -46 69 -7 98
-17 143 -47 29 -19 33 -28 33 -65 0 -61 24 -100 73 -122 22 -10 45 -16 49 -14
4 3 8 24 8 47 0 48 -28 100 -62 117 -41 21 -130 84 -121 86 4 1 65 13 136 25
70 13 127 27 127 31 0 11 -26 10 -94 -3 -31 -7 -60 -9 -64 -4 -4 4 11 22 33
40 22 19 37 36 34 39 -7 8 -99 -62 -99 -74 0 -15 -70 -30 -135 -30 l-60 1 44
22 c54 27 79 60 88 110 5 35 4 37 -22 37 -69 0 -135 -64 -135 -130 l0 -33 -44
6 c-24 4 -78 20 -120 37 -42 16 -85 30 -95 30 -43 0 -24 17 76 68 124 62 224
129 309 206 51 45 68 54 124 66 89 18 103 34 21 26 l-64 -7 52 60 c32 36 47
61 38 61 -8 0 -41 -32 -73 -70z m-87 -358 c-22 -49 -37 -67 -69 -83 -46 -23
-48 -23 -48 0 0 26 38 71 74 86 30 13 50 11 43 -3z m128 -268 c29 -19 54 -89
38 -105 -15 -15 -69 34 -76 68 -5 25 0 53 9 53 3 0 16 -7 29 -16z"/>
<path d="M5620 3116 c-87 -87 -170 -194 -170 -219 0 -13 -1 -14 52 58 25 33
86 104 137 158 51 53 89 97 84 97 -5 0 -51 -42 -103 -94z"/>
<path d="M4810 3144 c0 -36 20 -188 31 -239 13 -58 78 -205 90 -205 13 0 12 2
-20 66 -40 83 -48 112 -70 258 -19 119 -31 167 -31 120z"/>
<path d="M4545 3076 c-48 -22 -77 -60 -82 -110 -5 -42 -4 -46 16 -46 60 0 121
60 128 124 5 40 3 46 -13 46 -11 -1 -32 -7 -49 -14z m40 -45 c-7 -34 -57 -81
-86 -81 -24 0 -24 17 1 58 17 28 78 67 88 57 2 -2 1 -17 -3 -34z"/>
<path d="M3460 3031 c-14 -5 -47 -19 -75 -31 -27 -12 -75 -27 -105 -35 -42 -9
-51 -14 -36 -20 15 -7 74 7 134 32 7 3 5 -8 -7 -29 -11 -18 -23 -52 -27 -75
-5 -36 -4 -44 11 -50 25 -9 65 16 93 57 20 29 23 43 18 82 -5 45 -4 47 24 53
16 3 46 2 67 -4 21 -6 80 -11 132 -11 132 0 164 -12 241 -89 l65 -65 -49 -10
c-27 -6 -51 -17 -54 -25 -3 -9 2 -11 14 -8 75 22 85 20 213 -47 129 -68 164
-94 194 -146 22 -37 21 -37 -103 -5 -66 17 -122 25 -186 25 -99 0 -175 18
-240 56 -48 27 -63 53 -38 67 9 5 30 22 47 37 26 23 31 34 31 76 1 47 0 49
-24 46 -41 -4 -80 -52 -89 -108 l-7 -49 -21 47 c-21 47 -49 68 -106 82 -20 5
-29 2 -33 -9 -18 -47 38 -122 99 -132 34 -5 54 -19 117 -83 l77 -78 -36 -17
c-21 -10 -71 -20 -118 -23 -46 -2 -83 -9 -83 -13 0 -5 -24 -9 -54 -9 -85 0
-74 -16 16 -24 45 -4 85 -9 90 -12 16 -10 -86 -116 -141 -147 -61 -35 -55 -49
8 -18 l41 19 0 -43 c0 -32 7 -51 26 -74 30 -36 49 -39 64 -12 21 41 9 92 -33
139 l-21 22 54 55 c40 40 62 55 82 55 15 0 68 12 119 26 117 34 199 30 314
-13 44 -17 89 -34 99 -37 16 -6 9 -13 -40 -42 -32 -20 -66 -42 -74 -49 -8 -8
-38 -17 -65 -20 -48 -6 -51 -5 -83 29 -39 42 -65 50 -128 43 -59 -6 -72 -19
-51 -50 30 -46 73 -57 187 -50 l104 6 -35 -42 c-35 -43 -94 -81 -126 -81 -10
0 -38 7 -62 16 -34 11 -51 12 -75 4 -35 -12 -76 -48 -76 -66 0 -33 94 -46 140
-19 31 18 60 32 128 61 30 13 82 46 117 74 86 68 162 102 246 108 56 4 72 1
96 -15 15 -11 67 -39 116 -62 56 -28 99 -57 120 -82 37 -42 87 -138 111 -212
23 -68 32 -399 17 -587 -36 -445 -72 -563 -184 -616 -29 -13 -59 -24 -67 -24
-9 0 -63 -24 -120 -54 l-105 -53 -200 -7 c-345 -11 -465 -18 -465 -29 0 -7 75
-7 233 -2 127 5 303 7 390 6 86 -2 218 3 292 10 125 12 141 11 212 -6 92 -23
191 -23 253 0 72 26 190 29 369 10 150 -16 262 -19 686 -18 88 0 214 -1 279
-1 78 -1 121 3 123 10 5 14 -402 27 -581 18 l-133 -7 -64 35 c-35 20 -98 48
-139 63 -117 43 -176 120 -210 268 -14 64 -28 220 -40 454 -16 283 -2 371 76
488 48 73 126 134 255 199 58 30 129 70 158 89 78 54 177 68 289 40 l23 -6
-26 -27 c-28 -29 -43 -77 -37 -122 4 -32 25 -36 59 -13 20 14 23 13 43 -15 27
-39 44 -38 63 3 26 55 29 82 13 120 -26 64 -133 101 -273 96 -87 -4 -91 -5
-174 -55 -46 -29 -120 -70 -164 -92 -186 -93 -278 -194 -321 -352 -21 -82 -21
-304 2 -570 31 -370 76 -461 267 -534 52 -21 103 -44 113 -52 17 -14 13 -15
-45 -10 -36 3 -72 13 -81 21 -8 8 -37 24 -63 35 -26 12 -63 35 -83 52 -19 17
-37 28 -39 26 -13 -12 42 -60 101 -89 35 -18 62 -34 60 -36 -3 -3 -50 0 -106
6 -139 15 -180 50 -223 186 -16 52 -23 63 -25 44 -4 -37 35 -135 70 -175 l30
-34 -65 0 c-35 0 -79 -3 -96 -6 l-31 -7 -1 64 c0 58 -14 159 -18 134 -1 -5 -3
-53 -4 -105 l-2 -95 -54 -17 c-30 -10 -56 -16 -58 -14 -3 2 8 28 23 57 29 58
53 173 54 258 0 30 -2 52 -4 50 -3 -2 -12 -55 -20 -118 -21 -148 -64 -244
-111 -249 -17 -2 -42 1 -55 6 -24 9 -24 9 28 64 36 38 59 74 73 113 24 68 46
253 34 281 -6 13 -11 -6 -16 -68 -14 -167 -42 -256 -95 -297 -15 -12 -24 -21
-21 -21 3 0 -7 -13 -23 -28 -25 -25 -33 -28 -72 -23 l-43 6 58 39 c58 39 113
104 105 127 -2 6 -16 -7 -31 -30 -16 -23 -57 -61 -97 -87 -62 -41 -78 -48
-147 -55 -43 -4 -109 -8 -148 -8 l-70 -1 60 34 c33 19 87 42 120 52 94 28 135
60 171 132 68 135 111 546 95 907 -7 181 -9 194 -40 273 -18 46 -54 111 -80
145 -42 56 -57 67 -176 129 -99 52 -140 68 -171 68 -55 0 -160 -33 -207 -66
-21 -14 -40 -24 -43 -22 -7 8 84 68 142 94 30 13 54 29 52 34 -2 6 -62 31
-133 56 -159 56 -246 62 -360 26 -67 -22 -196 -42 -184 -28 3 3 32 11 64 17
32 6 83 22 114 36 53 23 55 26 36 38 -11 8 -29 21 -40 30 -19 15 -19 16 5 4
14 -7 81 -16 150 -20 69 -4 154 -15 190 -24 113 -30 180 -43 185 -34 11 17
-25 80 -71 125 -28 27 -87 65 -143 94 -81 40 -108 60 -173 129 -101 108 -138
124 -278 126 -58 0 -130 4 -160 8 -30 3 -66 3 -80 -2z m-16 -110 c-6 -29 -45
-71 -65 -71 -5 0 -9 13 -9 30 0 38 59 110 72 87 4 -8 5 -29 2 -46z m366 -46
c0 -37 -46 -95 -75 -95 -4 0 -4 15 0 33 10 48 75 102 75 62z m-191 -30 c27
-14 60 -70 48 -82 -13 -12 -70 21 -88 51 -10 17 -19 34 -19 39 0 12 29 8 59
-8z m28 -331 c-3 -3 -12 -4 -19 -1 -8 3 -5 6 6 6 11 1 17 -2 13 -5z m311 -134
c40 -25 41 -36 2 -44 -33 -6 -75 7 -103 31 -38 35 47 46 101 13z m-332 -81
c10 -20 13 -41 8 -62 l-6 -31 -24 28 c-15 16 -24 40 -24 60 0 55 18 57 46 5z
m2564 -69 c0 -30 -7 -47 -25 -65 -31 -32 -45 -32 -45 1 0 27 14 59 38 87 23
27 32 21 32 -23z m70 -39 c-1 -20 -6 -46 -13 -59 l-13 -23 -19 21 c-16 18 -17
25 -6 60 7 23 9 51 5 63 -6 22 -6 22 20 -2 19 -18 26 -34 26 -60z m-2361 0
c11 -7 7 -14 -20 -30 -34 -21 -64 -26 -93 -15 -23 9 -20 21 12 38 30 17 80 20
101 7z"/>
<path d="M4790 2953 c0 -34 47 -168 99 -285 29 -65 57 -145 62 -180 6 -35 14
-76 19 -93 8 -29 8 -28 9 12 2 68 -18 137 -80 284 -32 76 -68 170 -80 209 -21
70 -29 85 -29 53z"/>
<path d="M5518 2943 c-19 -23 -108 -168 -108 -176 0 -20 19 -1 46 46 87 148
100 174 62 130z"/>
<path d="M4880 2937 c0 -49 147 -378 157 -350 2 6 -18 55 -45 110 -27 54 -62
133 -77 176 -27 76 -35 90 -35 64z"/>
<path d="M5365 2813 c-107 -160 -135 -206 -129 -212 4 -3 11 2 18 12 6 11 42
62 80 115 62 87 113 179 104 187 -1 1 -34 -45 -73 -102z"/>
<path d="M5691 2836 c-25 -40 -27 -105 -6 -146 20 -39 39 -38 63 3 32 51 36
83 17 132 -21 55 -45 59 -74 11z m53 -12 c11 -30 6 -85 -11 -110 -16 -25 -17
-25 -30 -8 -17 24 -16 68 2 104 17 33 30 38 39 14z"/>
<path d="M4280 2722 c0 -12 79 -87 85 -80 3 3 -6 20 -21 37 -27 33 -64 58 -64
43z"/>
<path d="M6147 2699 c-39 -21 -111 -93 -229 -229 -35 -41 -93 -94 -128 -118
-70 -46 -93 -74 -39 -47 70 36 130 88 208 183 111 132 147 167 211 202 33 18
47 29 35 29 -11 0 -37 -9 -58 -20z"/>
<path d="M5343 2689 c-28 -36 -99 -198 -76 -174 18 18 94 168 90 178 -1 5 -8
3 -14 -4z"/>
<path d="M6235 2681 c-58 -15 -100 -39 -133 -73 -49 -51 -171 -222 -165 -230
2 -5 28 -8 56 -8 79 0 164 -24 300 -84 155 -69 196 -78 307 -70 107 8 165 0
210 -29 26 -16 50 -22 91 -22 42 0 62 -5 78 -19 16 -15 18 -21 9 -28 -22 -13
-77 -9 -104 8 -30 20 -40 13 -24 -16 6 -12 9 -24 6 -27 -10 -10 -94 8 -106 22
-7 8 -21 15 -31 15 -10 0 -34 13 -52 30 -54 47 -77 37 -77 -31 0 -39 23 -82
53 -102 32 -21 47 -6 47 45 0 21 3 38 6 38 22 0 42 -25 48 -60 11 -68 51 -110
106 -110 16 0 20 7 20 38 0 21 -7 47 -15 59 -13 19 -13 21 5 26 11 3 20 12 20
20 0 12 8 14 34 10 42 -7 108 22 104 46 -6 31 -69 62 -120 60 -25 -2 -53 2
-60 8 -7 7 -47 21 -88 32 -61 17 -91 20 -170 15 -99 -7 -141 0 -227 37 -37 16
-44 22 -33 29 8 6 25 10 38 10 12 0 47 9 76 19 l54 19 23 -24 c28 -30 81 -47
120 -39 35 8 47 29 29 50 -7 9 -11 17 -9 18 107 72 105 106 -4 107 -31 0 -46
-7 -75 -36 -19 -19 -58 -44 -86 -55 -69 -26 -92 -24 -37 3 32 16 48 32 62 62
34 74 20 98 -46 76 -50 -17 -83 -64 -87 -125 l-3 -50 -85 1 c-56 0 -109 8
-155 22 -38 12 -91 24 -117 27 l-48 6 43 61 c138 198 214 229 426 173 95 -25
151 -32 151 -17 0 10 -230 64 -288 68 -26 2 -60 -1 -77 -5z m275 -197 c0 -29
-60 -94 -86 -94 -36 0 1 80 48 103 18 9 34 17 36 17 1 0 2 -12 2 -26z m196
-45 c12 -20 -38 -49 -83 -49 -50 0 -54 10 -15 39 29 22 87 28 98 10z m-78 -85
c39 -25 25 -40 -33 -34 -11 1 -30 11 -43 23 -41 38 20 47 76 11z m52 -280 c0
-41 -11 -43 -39 -8 -21 26 -28 74 -14 88 15 14 53 -44 53 -80z m131 -24 c38
-21 67 -106 32 -93 -34 12 -63 46 -63 75 0 31 3 33 31 18z"/>
<path d="M5825 2668 c-36 -19 -65 -51 -65 -70 0 -24 45 -41 87 -33 36 6 103
64 103 88 0 26 -86 37 -125 15z m83 -17 c24 -15 -43 -61 -89 -61 -43 0 -48 8
-21 33 34 31 85 44 110 28z"/>
<path d="M4399 2581 c39 -72 188 -190 224 -178 7 2 -10 15 -38 29 -52 27 -106
74 -151 133 -28 37 -52 48 -35 16z"/>
<path d="M5307 2543 c-34 -76 -65 -200 -72 -282 -7 -89 8 -54 31 69 16 92 35
155 68 233 9 20 12 37 7 37 -4 0 -20 -26 -34 -57z"/>
<path d="M4070 2583 c1 -9 182 -69 251 -83 26 -5 58 -14 73 -20 14 -5 26 -6
26 -1 0 11 -74 41 -100 41 -12 0 -60 13 -108 29 -111 36 -142 43 -142 34z"/>
<path d="M4980 2577 c0 -4 9 -29 20 -57 46 -118 81 -282 87 -413 3 -70 10
-130 16 -134 20 -12 0 245 -28 357 -36 145 -63 226 -81 240 -8 7 -14 10 -14 7z"/>
<path d="M5206 2478 c-16 -36 -33 -147 -22 -137 9 8 47 161 41 167 -3 3 -11
-11 -19 -30z"/>
<path d="M4450 2442 c0 -11 92 -65 163 -96 80 -35 72 -14 -10 25 -38 18 -85
43 -105 56 -41 25 -48 27 -48 15z"/>
<path d="M4650 2411 c0 -4 12 -13 28 -20 52 -23 98 -61 137 -112 21 -28 41
-46 43 -40 4 13 -35 68 -76 107 -40 37 -132 83 -132 65z"/>
<path d="M5177 2320 c-9 -26 -37 -362 -36 -440 1 -88 17 -69 18 22 1 31 8 134
17 228 14 163 15 226 1 190z"/>
<path d="M6798 2314 c-74 -40 -41 -91 52 -82 50 5 100 36 100 63 0 33 -104 46
-152 19z m100 -10 c31 -9 28 -22 -12 -40 -23 -12 -45 -14 -70 -10 -45 9 -46
19 -3 40 35 17 50 19 85 10z"/>
<path d="M5731 2264 c-61 -32 -95 -54 -82 -54 29 0 164 66 187 91 25 27 11 23
-105 -37z"/>
<path d="M4179 2283 c-20 -54 5 -126 56 -159 43 -28 58 -12 53 58 -4 55 -8 64
-41 94 -45 41 -54 42 -68 7z m77 -58 c29 -70 7 -109 -33 -59 -16 20 -23 42
-23 72 0 40 1 42 21 32 11 -7 27 -27 35 -45z"/>
<path d="M4710 2302 c0 -5 12 -17 28 -29 15 -11 47 -55 72 -97 49 -84 67 -88
25 -6 -37 74 -125 166 -125 132z"/>
<path d="M5015 2275 c4 -22 12 -79 18 -127 7 -47 15 -90 20 -94 20 -21 -10
207 -33 243 -9 15 -10 11 -5 -22z"/>
<path d="M4950 2259 c0 -9 6 -32 14 -50 8 -19 22 -81 31 -138 25 -146 17 -260
-29 -420 -20 -69 -36 -143 -36 -165 0 -23 14 -93 31 -156 41 -149 40 -148 46
-132 3 7 -9 70 -27 139 -37 145 -37 187 5 317 49 152 55 312 18 481 -15 69
-52 155 -53 124z"/>
<path d="M5531 2223 c-72 -37 -143 -97 -195 -166 -36 -47 -27 -62 10 -16 61
75 139 139 218 178 48 24 72 40 60 41 -12 0 -54 -16 -93 -37z"/>
<path d="M4885 2175 c35 -86 65 -187 66 -225 1 -25 5 -58 10 -75 5 -20 7 0 5
60 -4 96 -38 212 -72 244 -16 15 -16 15 -9 -4z"/>
<path d="M6396 2166 c-52 -28 -78 -65 -80 -113 -1 -35 1 -38 24 -35 34 3 72
32 90 68 11 22 15 25 18 12 2 -9 -8 -34 -22 -55 -17 -24 -26 -51 -26 -76 0
-39 24 -97 40 -97 14 0 58 62 65 93 7 28 19 35 30 17 3 -5 17 -10 31 -10 21 0
24 5 24 36 0 37 -15 74 -30 74 -5 0 -5 -14 1 -32 12 -43 12 -48 -5 -48 -25 0
-73 61 -90 113 -24 76 -25 77 -70 53z m20 -48 c-6 -31 -46 -78 -67 -78 -21 0
-8 53 20 81 39 39 55 38 47 -3z m58 -84 c17 -43 -6 -124 -34 -124 -19 0 -22
68 -5 104 19 39 30 45 39 20z"/>
<path d="M4042 2173 c-22 -4 -72 -60 -72 -81 0 -13 -81 -96 -109 -111 -19 -11
-21 -9 -21 14 0 15 5 35 11 47 14 27 1 38 -17 14 -8 -11 -14 -40 -14 -64 l0
-45 33 6 c32 5 34 4 45 -39 14 -52 30 -56 66 -13 34 40 41 72 27 120 -10 33
-9 44 9 79 22 43 40 52 40 20 0 -37 30 -79 70 -100 l40 -21 9 23 c13 35 2 83
-27 116 -29 32 -53 42 -90 35z m68 -45 c23 -25 34 -57 28 -85 -6 -28 -78 47
-78 81 0 32 22 34 50 4z m-137 -125 c6 -30 -21 -98 -38 -98 -19 0 -18 85 1
106 23 26 31 24 37 -8z"/>
<path d="M5515 2141 c-61 -36 -118 -94 -179 -184 -42 -62 -54 -87 -41 -87 2 0
36 45 74 99 68 96 84 110 207 188 42 26 -12 12 -61 -16z"/>
<path d="M5215 2093 c-12 -28 -19 -275 -9 -330 6 -38 10 -6 15 147 3 107 5
196 4 198 -1 2 -6 -5 -10 -15z"/>
<path d="M4884 1979 c16 -71 22 -188 15 -309 -14 -250 -18 -533 -7 -522 6 6
12 73 14 159 1 81 6 245 10 363 7 216 -2 320 -28 336 -8 5 -9 -3 -4 -27z"/>
<path d="M5268 1880 c-12 -38 -9 -139 7 -305 8 -82 15 -188 16 -235 1 -47 5
-98 9 -115 12 -48 11 200 -1 295 -6 47 -14 153 -18 235 -3 90 -9 140 -13 125z"/>
<path d="M5070 1810 c0 -36 9 -102 20 -148 26 -108 25 -148 -5 -257 -26 -95
-33 -227 -15 -310 6 -29 8 -7 7 85 0 105 4 141 26 225 32 118 33 143 7 255
-11 47 -20 108 -20 135 0 28 -5 57 -10 65 -7 11 -10 -4 -10 -50z"/>
<path d="M5140 1764 c0 -10 7 -54 15 -97 20 -103 19 -153 -5 -266 -11 -52 -20
-112 -19 -135 1 -34 4 -27 19 44 32 143 41 221 34 285 -11 101 -44 229 -44
169z"/>
<path d="M5004 1605 c-25 -60 -29 -134 -10 -198 9 -31 21 -57 26 -57 12 0 13
-5 -5 54 -19 63 -19 109 1 175 18 63 11 80 -12 26z"/>
<path d="M5224 1580 c3 -30 6 -88 6 -128 0 -52 3 -71 11 -66 15 9 7 203 -10
229 -10 17 -11 11 -7 -35z"/>
<path d="M5050 1562 c0 -33 -3 -75 -6 -93 -5 -27 -4 -32 6 -22 17 16 26 158
11 167 -8 5 -11 -11 -11 -52z"/>
<path d="M5200 1322 c-14 -76 -10 -286 5 -301 7 -7 10 55 10 180 0 104 -1 189
-1 189 -1 0 -8 -30 -14 -68z"/>
<path d="M4937 1159 c-6 -72 -27 -166 -54 -235 -3 -8 -1 -14 5 -14 29 0 82
254 65 307 -8 23 -11 14 -16 -58z"/>
<path d="M5245 1113 c10 -153 49 -272 114 -353 27 -33 27 -7 1 30 -56 78 -100
239 -100 361 0 37 -4 59 -11 59 -8 0 -9 -28 -4 -97z"/>
<path d="M5135 1060 c11 -153 41 -290 64 -290 5 0 1 26 -9 59 -10 32 -24 114
-31 182 -15 149 -34 188 -24 49z"/>
<path d="M5310 1089 c0 -40 24 -144 41 -183 16 -35 31 -34 18 2 -6 15 -20 67
-30 117 -22 100 -29 115 -29 64z"/>
<path d="M4836 966 c-51 -141 -68 -163 -161 -211 -44 -22 -81 -46 -83 -53 -6
-19 139 53 174 86 31 30 79 131 108 230 27 92 0 56 -38 -52z"/>
</g>
</svg>
