<?xml version="1.0" standalone="no"?>
<!DOCTYPE svg PUBLIC "-//W3C//DTD SVG 20010904//EN"
 "http://www.w3.org/TR/2001/REC-SVG-20010904/DTD/svg10.dtd">
<svg version="1.0" xmlns="http://www.w3.org/2000/svg"
 width="1024.000000pt" height="559.000000pt" viewBox="0 0 1024.000000 559.000000"
 preserveAspectRatio="xMidYMid meet">
<metadata>
Created by potrace 1.16, written by Peter Selinger 2001-2019
</metadata>
<g transform="translate(0.000000,559.000000) scale(0.100000,-0.100000)"
fill="#000000" stroke="none">
<path d="M5681 4899 c-110 -21 -230 -103 -288 -195 -19 -30 -33 -42 -43 -38
-58 23 -137 11 -192 -29 -20 -15 -59 -75 -74 -115 -1 -1 -21 7 -45 18 -103 46
-253 8 -314 -80 -16 -23 -33 -38 -39 -36 -107 46 -247 47 -338 3 -30 -15 -74
-47 -98 -71 -24 -24 -50 -42 -57 -39 -25 10 -82 -8 -115 -35 -27 -23 -39 -26
-87 -24 -67 4 -137 -27 -161 -70 -18 -33 -12 -39 47 -49 66 -11 511 -11 517 0
3 5 -109 10 -257 13 -144 2 -267 7 -274 11 -7 4 -10 14 -7 22 10 25 70 45 139
45 61 0 69 3 97 30 25 25 37 30 80 30 46 0 53 3 94 46 25 25 70 57 102 72 76
35 199 37 282 4 l55 -22 15 22 c59 92 162 140 258 120 29 -6 66 -20 81 -32 16
-11 33 -20 38 -20 5 0 14 20 21 44 15 56 53 102 98 116 35 12 115 10 144 -3
12 -6 26 8 55 53 73 112 196 181 349 195 175 16 383 -76 471 -208 36 -55 79
-163 69 -178 -3 -5 -18 -9 -33 -9 -33 0 -127 -45 -135 -65 -7 -21 -2 -19 47
12 37 24 52 27 123 28 76 0 84 -2 135 -36 37 -25 63 -52 79 -83 25 -47 40 -58
40 -31 0 62 -103 153 -190 170 -34 6 -36 9 -57 83 -24 87 -21 96 38 112 58 16
110 -2 153 -51 l35 -42 43 18 c27 11 67 18 109 17 106 0 186 -45 236 -130 25
-41 28 -58 29 -137 l1 -90 41 3 c58 5 149 -16 199 -44 23 -14 56 -44 72 -68
l30 -44 40 14 c28 9 48 10 74 3 35 -9 87 -59 87 -82 1 -35 16 -38 74 -11 51
23 67 26 145 22 73 -2 93 -7 124 -28 20 -14 42 -35 49 -48 10 -19 18 -22 38
-17 110 27 199 10 252 -49 27 -29 33 -31 102 -31 60 0 80 -4 102 -21 15 -11
29 -25 31 -31 5 -15 -662 -28 -701 -13 -16 6 -43 8 -59 4 -24 -5 -35 0 -63 27
-30 29 -42 34 -98 37 -44 3 -74 0 -94 -10 -27 -14 -31 -13 -57 10 -26 22 -35
24 -97 20 -62 -5 -69 -4 -83 18 -32 49 -111 66 -177 39 -14 -6 -18 -2 -18 18
0 35 -57 106 -104 131 -93 48 -223 27 -274 -43 l-27 -37 -40 18 c-110 49 -297
-5 -328 -94 -9 -27 0 -22 33 16 35 39 86 62 159 72 39 5 67 1 123 -17 60 -19
73 -20 76 -8 3 8 22 31 43 51 61 59 147 63 237 12 44 -26 82 -84 82 -127 0
-34 9 -38 41 -22 15 8 49 15 74 15 37 0 51 -5 70 -26 14 -15 25 -35 25 -45 0
-23 7 -23 53 -4 51 21 79 19 122 -11 37 -25 40 -25 72 -10 65 31 152 14 187
-36 14 -19 26 -23 74 -23 47 0 63 -5 93 -27 46 -36 110 -58 168 -58 52 0 121
-17 121 -29 0 -27 -339 -35 -730 -17 -499 22 -1089 40 -1097 32 -3 -3 -3 -9 1
-13 3 -4 151 -10 329 -15 177 -4 408 -12 512 -18 498 -28 970 -23 1012 12 35
29 -14 58 -119 69 -83 9 -168 34 -168 49 0 4 146 9 324 11 179 2 328 8 332 12
16 16 -12 62 -51 84 -30 17 -56 23 -106 23 -60 0 -68 3 -94 30 -41 42 -120 64
-206 57 -64 -5 -68 -4 -95 24 -71 74 -216 89 -345 35 -11 -5 -23 4 -41 32 -35
53 -87 76 -148 68 -48 -6 -49 -6 -102 47 -61 61 -126 87 -219 87 l-58 0 6 48
c12 108 -57 229 -162 281 -62 31 -161 38 -229 17 l-48 -15 -33 34 c-54 58
-128 71 -198 36 l-38 -19 -72 72 c-79 79 -162 126 -270 151 -67 16 -186 18
-256 4z"/>
<path d="M5390 4429 c-84 -38 -123 -78 -144 -146 -5 -14 -3 -23 3 -23 6 0 11
5 11 11 0 19 47 80 81 105 19 14 58 32 87 40 47 14 58 14 104 0 29 -8 54 -13
56 -11 9 9 -12 25 -46 35 -55 15 -102 12 -152 -11z"/>
<path d="M4665 4286 c-113 -36 -181 -112 -200 -223 l-7 -42 -61 6 c-34 3 -80
0 -103 -6 -52 -14 -129 -81 -144 -125 l-11 -33 -77 1 c-42 1 -89 -2 -104 -7
-24 -6 -29 -3 -44 28 -33 70 -107 103 -190 85 l-47 -11 -34 41 c-45 52 -83 71
-144 72 -38 0 -57 -6 -81 -24 l-30 -23 -72 70 c-82 81 -150 119 -256 141 -218
45 -438 -76 -530 -293 -16 -37 -30 -85 -30 -107 0 -32 -3 -37 -17 -31 -10 4
-40 9 -68 12 -40 4 -59 0 -94 -19 -50 -27 -91 -90 -91 -142 l0 -31 -70 0 c-60
-1 -74 -4 -112 -30 -24 -18 -51 -48 -63 -73 -18 -38 -24 -42 -56 -42 -114 0
-207 -86 -197 -184 3 -22 8 -48 12 -57 6 -14 -5 -17 -86 -22 -97 -5 -150 -21
-206 -63 -39 -30 -45 -77 -11 -95 35 -18 434 -38 831 -41 237 -2 368 -7 368
-13 0 -5 -3 -20 -6 -32 -5 -18 -10 -20 -37 -12 -67 19 -150 -33 -164 -102 -5
-24 -12 -29 -56 -39 -117 -25 -173 -102 -114 -158 43 -41 68 -43 322 -36 240
6 296 4 1165 -48 118 -7 366 -13 550 -13 361 0 455 9 527 49 33 19 38 26 37
58 l-1 35 436 6 c618 8 877 32 926 87 43 47 -18 92 -132 96 -55 2 -81 8 -103
24 -69 49 -157 60 -219 26 -22 -12 -28 -10 -67 19 -58 44 -153 69 -240 62 -38
-3 -78 -8 -89 -11 -15 -5 -24 0 -37 23 -26 46 -74 72 -129 69 -41 -3 -48 0
-77 33 -18 20 -45 42 -62 49 -42 18 -125 8 -161 -19 l-30 -22 -30 31 c-19 18
-54 37 -90 48 l-59 17 0 47 c0 55 -28 135 -63 181 -14 18 -49 46 -78 62 -73
39 -164 42 -226 6 l-42 -24 -49 46 c-103 95 -250 144 -411 134 -195 -11 -361
-102 -430 -234 l-11 -21 -50 19 c-100 38 -185 16 -270 -70 -57 -57 -80 -106
-80 -170 0 -26 -3 -31 -17 -27 -111 32 -227 -12 -293 -113 l-31 -45 -242 2
c-286 3 -786 19 -874 28 -34 3 -70 12 -80 19 -17 13 -17 15 5 38 46 49 117 71
225 70 53 0 97 2 97 4 0 3 -7 29 -16 59 -12 43 -13 61 -4 89 22 66 103 115
193 115 27 0 39 5 43 18 27 90 82 125 191 124 l74 -1 -6 29 c-9 42 26 115 67
140 26 16 45 20 88 16 30 -2 67 -7 81 -11 25 -7 26 -5 32 50 6 64 52 168 99
228 48 60 141 124 215 147 178 55 380 -9 497 -156 22 -29 45 -53 50 -53 4 -1
24 13 43 29 41 36 86 39 143 10 37 -19 80 -67 80 -88 0 -20 20 -23 51 -6 23
11 48 15 83 11 41 -4 55 -10 83 -41 18 -19 33 -45 33 -56 0 -27 24 -35 61 -20
45 19 141 15 186 -9 38 -19 76 -55 106 -101 14 -20 17 -21 17 -6 0 29 -36 81
-75 107 -41 28 -43 44 -12 90 28 41 77 76 130 90 37 10 60 9 139 -7 25 -5 27
-3 34 43 14 100 69 178 152 214 92 40 231 17 280 -46 29 -36 28 -45 -5 -45
-43 0 -110 -38 -133 -76 -31 -49 -20 -63 14 -19 72 94 218 99 261 8 13 -26 21
-33 33 -27 9 4 40 9 69 12 47 3 54 1 87 -30 27 -24 40 -47 48 -85 13 -53 13
-53 51 -53 47 0 89 -21 106 -53 7 -13 28 -31 46 -40 46 -22 70 -62 69 -114 -1
-45 10 -57 21 -22 8 25 -2 84 -18 111 -7 11 -29 28 -49 39 -21 11 -38 24 -38
30 0 19 69 39 132 39 76 0 131 -23 175 -73 43 -49 57 -97 49 -168 -7 -55 -6
-59 14 -59 35 0 70 -44 70 -88 l0 -40 44 5 c61 7 111 -12 147 -57 l31 -39 38
40 c35 37 41 39 94 39 43 0 66 -6 87 -21 24 -17 38 -19 82 -14 44 6 56 3 79
-14 15 -12 28 -31 30 -44 3 -20 10 -22 94 -28 78 -6 154 -27 154 -44 0 -16
-72 -35 -166 -46 -85 -9 -169 -9 -384 1 -242 11 -293 10 -424 -4 -173 -19
-325 -20 -449 -5 -85 10 -116 7 -88 -10 7 -5 74 -14 149 -21 121 -12 158 -11
317 4 143 14 256 17 550 14 393 -3 475 4 511 43 16 18 16 20 -5 43 -29 31 -84
46 -165 46 -65 0 -66 0 -80 34 -19 45 -45 58 -114 55 -42 -1 -68 4 -97 20 -21
11 -54 21 -72 21 -38 0 -98 -23 -126 -48 -17 -15 -19 -15 -28 0 -17 31 -77 59
-129 61 -41 2 -50 5 -50 20 0 30 -32 76 -62 89 -25 12 -27 17 -26 63 3 79 -18
134 -68 182 -77 74 -201 93 -295 44 -34 -18 -39 -18 -51 -4 -17 20 -70 43
-102 43 -19 0 -25 6 -30 33 -17 88 -92 144 -182 133 -48 -5 -53 -4 -69 20 -9
14 -35 34 -57 44 -22 9 -48 31 -58 48 -52 85 -175 123 -285 88z m-690 -621
c99 -19 196 -67 258 -128 l49 -49 54 27 c106 54 227 21 295 -80 27 -39 49
-114 49 -165 0 -25 -4 -29 -38 -35 -44 -7 -102 -39 -102 -56 0 -6 3 -9 8 -7
55 29 95 40 138 40 95 -1 171 -49 194 -125 19 -59 33 -71 28 -22 -3 22 -8 47
-12 55 -10 23 57 55 114 55 54 0 116 -39 126 -81 6 -22 10 -24 38 -18 35 7 31
7 69 5 33 -1 87 -52 87 -82 0 -23 -1 -23 83 -3 107 26 206 2 318 -78 13 -9 25
-8 54 6 57 27 134 18 184 -22 34 -27 46 -31 97 -30 61 0 139 -16 149 -31 9
-16 -24 -40 -78 -56 -128 -38 -1250 -76 -1332 -45 -15 6 -46 30 -70 54 -45 47
-107 68 -142 47 -16 -9 -14 -10 11 -11 47 0 113 -37 128 -71 9 -21 24 -32 49
-39 20 -6 44 -19 54 -30 18 -20 18 -21 -1 -41 -42 -41 -229 -69 -461 -69 -139
0 -520 17 -1018 45 -148 9 -342 20 -430 24 -88 5 -255 7 -372 4 -224 -6 -263
-1 -284 39 -23 42 66 108 146 108 34 0 45 13 45 54 0 28 44 74 77 82 24 6 62
2 96 -11 11 -5 17 -2 17 7 0 39 33 118 66 156 54 63 122 95 193 89 31 -2 65
-7 77 -11 20 -7 21 -3 27 53 9 103 77 190 174 222 45 15 146 6 179 -15 30 -20
38 -16 60 30 44 92 186 183 326 209 98 17 133 18 223 0z"/>
<path d="M3282 3330 c-67 -30 -100 -57 -128 -107 -29 -48 -46 -114 -34 -133 4
-7 10 4 15 26 26 142 163 236 291 200 27 -8 60 -17 74 -21 l25 -7 -23 21 c-50
43 -150 53 -220 21z"/>
<path d="M2807 3042 c-33 -20 -67 -86 -67 -130 0 -49 17 -46 23 4 5 52 29 89
77 122 25 16 28 22 14 22 -10 0 -32 -8 -47 -18z"/>
<path d="M2830 4068 c-114 -44 -201 -166 -199 -277 l1 -46 17 65 c38 148 125
233 258 255 24 4 45 11 49 16 10 17 -70 8 -126 -13z"/>
<path d="M8375 3566 c-17 -7 -36 -20 -43 -28 -11 -14 -16 -14 -42 -2 -38 19
-74 9 -104 -28 -19 -25 -31 -30 -72 -32 -28 -1 -67 -11 -92 -24 -23 -12 -51
-22 -61 -22 -37 0 -122 -34 -132 -52 -28 -52 31 -61 375 -53 334 7 572 21 627
35 76 21 68 74 -12 86 -21 4 -39 10 -39 13 0 4 -14 22 -31 39 -39 40 -98 57
-151 44 -34 -9 -47 -7 -91 14 -58 27 -88 29 -132 10z m133 -35 c30 -15 51 -18
108 -14 69 5 71 5 105 -28 20 -19 38 -40 40 -47 3 -7 24 -16 47 -19 93 -12 54
-38 -85 -55 -124 -15 -856 -18 -863 -3 -3 6 22 18 55 29 33 10 84 27 112 38
35 13 70 19 103 16 48 -3 51 -2 68 32 21 42 65 52 108 23 21 -13 28 -15 32 -5
17 52 101 68 170 33z"/>
<path d="M2645 3429 c-19 -17 -35 -37 -35 -44 0 -9 -19 -11 -74 -7 -64 4 -81
1 -127 -20 -57 -26 -100 -64 -130 -113 -33 -53 -20 -58 20 -7 86 108 169 138
293 107 24 -6 28 -3 42 28 20 50 65 71 133 63 29 -3 53 -2 53 3 0 14 -28 21
-85 21 -46 0 -59 -5 -90 -31z"/>
<path d="M7887 3149 c-45 -11 -90 -33 -135 -67 -25 -19 -46 -25 -95 -27 -105
-4 -228 -51 -303 -117 -36 -31 -84 -116 -84 -148 0 -12 -16 -15 -84 -15 -77 0
-88 -2 -128 -30 -28 -20 -53 -49 -71 -85 -24 -47 -28 -64 -25 -121 4 -66 3
-67 -20 -58 -13 5 -46 9 -74 9 -46 0 -54 -4 -91 -41 l-41 -41 -57 11 c-82 17
-175 -8 -216 -57 -9 -11 -17 -7 -45 23 -27 30 -43 38 -80 42 -26 3 -61 0 -79
-6 -26 -9 -36 -8 -48 3 -43 37 -87 50 -166 50 -62 0 -89 -5 -121 -21 -44 -24
-98 -79 -109 -112 -4 -15 -15 -21 -36 -21 -43 0 -92 -23 -118 -56 -20 -25 -27
-27 -76 -25 -59 3 -102 -14 -132 -53 -14 -17 -34 -26 -67 -31 -26 -4 -59 -17
-73 -29 -37 -32 -19 -60 50 -81 159 -49 1192 -32 1657 27 67 8 350 12 955 13
879 1 921 3 1052 40 29 9 69 29 88 46 47 42 49 93 5 142 -23 27 -30 44 -30 78
-1 107 -93 199 -200 199 -24 0 -29 6 -40 45 -28 100 -126 195 -233 224 -45 13
-127 11 -159 -3 -12 -5 -18 -1 -23 16 -18 58 -81 98 -154 98 -40 0 -51 4 -56
19 -9 29 -62 92 -98 117 -40 27 -129 54 -171 53 -17 -1 -48 -5 -69 -10z m155
-29 c56 -16 120 -69 151 -128 l28 -52 60 0 c33 0 69 -4 79 -10 28 -15 60 -74
60 -112 0 -31 -3 -35 -42 -46 -24 -6 -50 -16 -58 -21 -26 -18 -5 -20 40 -5 77
27 152 1 198 -68 20 -31 28 -37 30 -24 6 27 -48 88 -96 111 -31 14 -42 25 -42
42 0 18 9 25 42 34 55 14 98 7 174 -31 95 -47 145 -113 169 -223 5 -25 9 -28
31 -23 43 11 106 -13 151 -59 42 -42 43 -43 43 -112 0 -64 2 -71 24 -83 14 -7
30 -25 36 -39 25 -62 -30 -109 -159 -137 -121 -25 -543 -37 -996 -28 -567 12
-721 10 -985 -15 -462 -42 -550 -46 -1035 -46 -355 0 -495 3 -536 13 -106 24
-117 59 -22 69 38 4 56 13 88 43 46 44 93 57 149 41 36 -9 38 -9 48 20 12 36
54 59 107 59 37 0 41 3 66 49 44 80 103 111 210 111 52 0 70 -5 118 -34 56
-34 58 -34 94 -20 63 27 143 -5 157 -61 8 -32 23 -32 49 1 45 57 163 81 240
49 l35 -14 26 39 c36 55 87 70 160 47 29 -9 55 -17 57 -17 2 0 4 45 4 99 0 96
1 101 31 138 38 48 106 83 159 83 63 0 85 -9 85 -36 0 -12 4 -34 9 -47 8 -22
4 -27 -42 -58 -56 -37 -102 -111 -114 -181 -8 -50 12 -50 22 -1 9 50 31 91 69
131 49 53 99 74 193 80 l83 5 0 30 c0 43 37 113 74 141 38 29 118 56 163 56
18 0 33 5 33 10 0 17 -87 11 -143 -10 -78 -29 -134 -94 -147 -170 -4 -26 -11
-35 -25 -36 -11 -1 -47 -3 -79 -5 l-60 -4 -9 40 c-5 26 -4 59 3 94 28 128 200
231 385 231 40 0 56 5 71 21 20 22 81 57 124 70 37 11 120 10 162 -1z"/>
<path d="M8844 2467 c11 -7 33 -24 50 -39 26 -22 31 -33 31 -75 0 -26 -4 -58
-8 -70 -12 -34 11 -29 25 5 34 84 -23 194 -100 191 -15 0 -15 -2 2 -12z"/>
<path d="M1772 2708 c-42 -20 -92 -85 -92 -120 0 -12 -11 -14 -55 -10 -51 4
-57 2 -85 -28 -28 -30 -32 -31 -61 -21 -18 6 -44 11 -58 11 -43 -1 -110 -37
-129 -70 -15 -26 -22 -30 -62 -30 -52 0 -133 -36 -138 -61 -2 -9 9 -30 23 -48
51 -60 43 -59 855 -50 404 4 748 12 764 17 62 17 60 61 -5 95 -26 14 -50 17
-104 14 -67 -3 -72 -2 -109 30 -24 20 -52 34 -70 35 -51 3 -110 -3 -128 -13
-14 -8 -21 -2 -37 30 -31 60 -77 84 -156 79 l-65 -3 -21 43 c-36 73 -117 123
-195 122 -16 -1 -48 -10 -72 -22z m175 -35 c40 -26 83 -86 83 -116 0 -25 19
-30 66 -17 35 10 54 10 84 1 42 -12 90 -61 90 -91 0 -28 14 -32 54 -15 54 23
127 19 162 -7 16 -12 32 -28 37 -34 5 -8 36 -12 96 -11 68 1 94 -3 115 -16 14
-10 26 -22 26 -27 0 -23 -147 -29 -827 -33 l-723 -5 -42 21 c-24 12 -44 30
-46 39 -5 27 44 51 110 54 55 2 62 5 78 32 10 16 29 37 41 46 29 20 115 21
149 1 34 -19 40 -18 40 5 0 29 39 60 75 60 37 0 92 -49 65 -58 -24 -8 -80 -69
-80 -86 0 -25 13 -18 35 17 38 60 150 82 212 41 28 -18 34 -18 27 1 -10 24
-44 38 -109 44 l-60 6 1 42 c2 113 138 173 241 106z"/>
<path d="M3035 2146 c-24 -9 -60 -37 -91 -70 -51 -56 -51 -56 -97 -50 -63 9
-132 -12 -172 -52 -28 -28 -37 -31 -66 -25 -19 4 -51 4 -72 0 -64 -11 -109
-70 -74 -96 7 -6 253 -8 664 -5 691 5 703 6 677 49 -19 32 -86 63 -135 63 -32
0 -49 5 -53 15 -16 44 -127 71 -178 44 -18 -10 -25 -6 -57 31 -31 36 -43 43
-86 47 -35 4 -58 13 -77 31 -34 32 -121 40 -183 18z m138 -19 c18 -8 38 -21
46 -30 8 -10 28 -17 48 -17 47 0 87 -25 113 -71 l21 -39 37 20 c20 11 47 20
60 20 35 0 88 -28 99 -52 7 -17 19 -21 64 -23 53 -2 119 -26 119 -45 0 -18
-128 -23 -505 -17 -246 4 -457 3 -572 -4 -184 -12 -238 -8 -231 14 9 28 71 48
129 42 50 -5 57 -3 80 21 42 45 74 56 156 53 l75 -4 34 48 c25 34 51 56 87 73
59 27 94 30 140 11z"/>
<path d="M7719 442 c-52 -32 -101 -61 -110 -64 -9 -3 -35 2 -59 13 l-43 19
-83 -39 c-45 -22 -123 -56 -173 -75 l-89 -36 -314 -6 c-182 -4 -440 -2 -618 5
-258 10 -384 9 -815 -5 -502 -17 -520 -17 -1125 5 -338 11 -775 21 -971 21
-335 0 -359 1 -420 21 -35 12 -76 27 -91 35 -40 21 -72 17 -126 -13 l-49 -27
-64 18 c-35 10 -100 36 -144 57 -45 22 -88 39 -97 39 -8 0 -49 -15 -89 -34
l-74 -35 -43 25 c-38 23 -47 24 -78 14 -35 -12 -37 -11 -83 33 -75 73 -76 73
-178 23 -48 -24 -139 -65 -202 -90 l-113 -46 -202 -1 c-110 -1 -212 -5 -226
-9 -38 -12 -22 -13 200 -11 113 2 291 -2 395 -9 109 -6 620 -12 1205 -14 712
-3 1149 -9 1465 -21 358 -14 530 -15 840 -9 215 5 712 8 1105 6 430 -2 793 1
910 7 514 29 981 41 1497 38 423 -1 545 1 554 11 10 10 -46 12 -284 12 l-296
0 -76 30 c-42 17 -81 30 -88 30 -6 0 -44 17 -83 37 l-72 36 -49 -31 c-58 -37
-77 -39 -118 -12 -37 24 -58 25 -95 3 -27 -16 -31 -16 -71 2 -23 11 -65 35
-93 55 -28 20 -56 39 -62 43 -6 3 -53 -20 -105 -51z m139 -1 c39 -31 101 -67
138 -81 15 -6 33 -3 58 11 20 10 40 19 44 19 5 0 32 -17 60 -39 48 -35 51 -39
30 -45 -13 -3 -70 -6 -128 -6 -58 0 -251 -7 -430 -15 -179 -8 -336 -15 -350
-15 -15 0 22 21 90 51 146 65 142 64 178 45 17 -9 39 -16 49 -16 11 0 61 27
113 59 52 33 99 60 103 60 5 1 25 -12 45 -28z m-5918 -41 c56 -49 89 -60 118
-41 12 7 151 -54 171 -75 7 -8 -559 3 -637 12 l-53 7 68 27 c37 15 111 47 163
73 52 25 99 46 104 46 4 1 34 -21 66 -49z m6443 -29 c28 -15 73 -34 100 -41
90 -24 66 -33 -79 -28 -107 3 -147 9 -173 22 l-34 18 40 18 c22 10 44 23 47
29 12 18 43 13 99 -18z m-6005 -6 c20 -13 75 -38 122 -54 l85 -30 -147 -1
c-131 0 -152 2 -185 21 -21 11 -41 24 -46 28 -6 6 103 59 126 60 4 1 24 -10
45 -24z m449 -62 c49 -20 56 -33 16 -29 -16 2 -64 4 -108 5 l-80 2 35 19 c44
24 83 25 137 3z"/>
</g>
</svg>
