<?xml version="1.0" standalone="no"?>
<!DOCTYPE svg PUBLIC "-//W3C//DTD SVG 20010904//EN"
 "http://www.w3.org/TR/2001/REC-SVG-20010904/DTD/svg10.dtd">
<svg version="1.0" xmlns="http://www.w3.org/2000/svg"
 width="1024.000000pt" height="559.000000pt" viewBox="0 0 1024.000000 559.000000"
 preserveAspectRatio="xMidYMid meet">
<metadata>
Created by potrace 1.16, written by Peter Selinger 2001-2019
</metadata>
<g transform="translate(0.000000,559.000000) scale(0.100000,-0.100000)"
fill="#000000" stroke="none">
<path d="M3060 3803 c-110 -21 -487 -141 -595 -189 -22 -10 -107 -41 -189 -69
-82 -28 -151 -56 -154 -63 -2 -7 3 -12 10 -12 22 0 189 57 338 115 218 85 496
172 613 191 91 15 121 16 192 6 108 -14 496 -122 780 -217 348 -115 413 -130
585 -129 170 0 199 7 455 108 328 131 419 151 640 143 245 -9 385 -57 711
-243 146 -83 311 -165 401 -200 98 -38 181 -63 187 -56 13 13 3 21 -46 36
-124 40 -428 180 -416 192 3 2 72 18 154 34 286 59 405 98 609 198 115 57 250
101 347 113 94 12 243 5 360 -17 75 -14 104 -12 93 6 -5 8 -73 21 -202 40
-190 27 -365 -2 -569 -95 l-77 -35 -131 46 c-111 39 -146 46 -232 51 -160 9
-245 -13 -544 -141 -46 -20 -91 -36 -100 -36 -8 0 -57 18 -108 40 -157 68
-265 92 -437 97 -171 6 -299 -13 -454 -69 -47 -16 -96 -32 -108 -35 -12 -3
-124 21 -250 53 l-228 59 -150 0 c-161 0 -129 5 -493 -90 -62 -17 -63 -17
-140 9 -42 14 -185 55 -317 92 -237 67 -242 68 -375 70 -74 1 -146 0 -160 -3z
m4063 -118 c64 -21 117 -42 117 -45 0 -10 -141 -64 -255 -98 -55 -16 -182 -46
-282 -66 l-182 -37 -101 57 c-55 31 -99 58 -98 60 11 10 301 127 356 143 102
30 100 30 217 27 96 -2 125 -7 228 -41z m-2486 14 c72 -10 460 -103 470 -113
8 -7 -204 -86 -290 -107 -68 -18 -103 -20 -207 -16 -133 5 -242 29 -460 101
-100 33 -104 35 -77 45 50 19 269 73 352 86 104 17 118 17 212 4z"/>
<path d="M7599 3473 c-12 -38 -32 -115 -44 -173 l-22 -105 -17 39 c-9 21 -16
42 -16 47 0 16 -19 10 -28 -8 -5 -10 -18 -51 -28 -90 l-18 -73 -106 0 -106 0
-23 115 c-24 116 -39 147 -59 123 -13 -16 -52 -176 -52 -212 l0 -25 -322 -3
c-314 -3 -325 -2 -382 20 -74 28 -103 28 -111 2 -6 -20 -16 -20 -698 -22 -381
-1 -903 -1 -1162 0 l-470 3 -27 26 c-43 41 -113 54 -195 37 -97 -20 -110 -19
-203 27 -72 35 -90 41 -132 37 -29 -3 -63 -16 -88 -32 -37 -24 -42 -25 -68
-12 -51 27 -94 29 -137 6 -49 -25 -52 -25 -109 1 -26 11 -61 19 -79 18 -23 -3
-31 1 -29 10 3 12 -16 124 -40 234 -11 51 -32 62 -48 25 -16 -39 -40 -178 -40
-231 0 -28 -2 -48 -5 -45 -3 2 -12 47 -21 99 -9 52 -23 109 -30 128 -13 30
-16 33 -29 20 -8 -8 -22 -62 -31 -120 l-17 -106 -49 5 c-83 8 -153 -30 -190
-102 l-15 -28 -109 1 c-97 1 -149 -8 -133 -23 3 -3 938 -7 2078 -8 1140 -2
2075 -6 2078 -11 7 -11 189 -96 278 -130 39 -15 122 -40 185 -56 199 -51 303
-80 376 -105 39 -13 90 -27 113 -31 24 -4 57 -19 74 -34 18 -15 48 -37 68 -49
53 -32 234 -89 341 -107 106 -18 208 -45 207 -54 0 -3 -109 -87 -242 -186
-172 -128 -253 -196 -284 -235 -71 -91 -69 -90 -119 -90 -78 0 -214 -38 -324
-92 -93 -45 -115 -60 -195 -142 -177 -180 -214 -205 -357 -236 -51 -11 -115
-27 -142 -36 -37 -13 -50 -14 -56 -4 -14 22 -70 0 -118 -46 -25 -24 -47 -44
-48 -44 -3 0 1 19 27 128 12 51 19 95 17 98 -22 21 -100 -80 -138 -178 l-28
-72 -12 44 c-62 242 -124 390 -163 390 -14 0 -1 -129 28 -275 13 -66 26 -140
30 -165 l6 -45 -49 75 c-63 97 -191 216 -206 192 -3 -5 11 -31 31 -58 36 -50
116 -204 109 -211 -2 -2 -20 7 -41 21 -42 29 -74 41 -83 31 -3 -3 -2 -12 3
-19 6 -7 25 -32 43 -56 17 -24 32 -46 32 -50 0 -3 -17 -14 -37 -24 -66 -31
-223 -128 -223 -137 0 -18 27 -8 109 42 95 57 162 92 166 87 1 -2 7 -16 12
-33 5 -16 14 -28 19 -25 15 8 4 52 -27 108 -33 59 -19 60 35 3 69 -72 63 -21
-18 144 l-44 90 43 -49 c24 -27 65 -87 91 -133 26 -46 51 -86 57 -90 16 -9 2
133 -27 277 -13 69 -27 148 -31 175 -5 45 -5 48 8 32 21 -26 82 -214 108 -332
27 -126 27 -125 37 -125 5 0 13 30 19 68 13 83 45 167 77 207 l25 30 -14 -60
c-21 -94 -28 -172 -17 -179 6 -4 25 14 41 38 31 45 101 109 109 101 3 -3 -3
-39 -13 -80 -10 -42 -14 -79 -11 -83 11 -10 24 18 37 76 7 29 17 56 23 61 16
13 141 50 223 66 122 24 203 77 343 228 133 143 291 215 533 242 57 6 59 8 92
59 40 64 83 102 233 213 64 48 197 146 294 218 97 73 186 138 196 146 17 12
21 31 27 121 7 104 6 107 -17 121 -20 13 -30 14 -72 3 -27 -7 -54 -20 -61 -29
-7 -9 -26 -17 -42 -17 -36 0 -73 -36 -73 -71 0 -14 -2 -28 -5 -31 -3 -3 -50 4
-105 15 l-100 21 0 36 c0 29 6 41 30 58 46 34 64 77 63 152 -1 36 -3 72 -5 80
-2 9 4 15 17 15 14 0 21 -8 23 -25 6 -53 13 -71 42 -100 20 -20 30 -41 30 -60
0 -17 5 -30 10 -30 6 0 10 15 10 34 0 25 8 43 29 64 20 20 31 43 36 75 l7 46
97 3 c127 4 126 22 -1 26 l-97 3 -6 47 c-20 155 -55 277 -80 277 -19 0 -35
-53 -57 -189 -23 -136 -23 -136 -50 -136 -32 0 -31 -1 -47 145 -10 95 -42 252
-56 275 -13 22 -25 7 -46 -57z m54 -83 c9 -47 18 -114 22 -150 3 -36 15 -107
27 -158 25 -116 19 -172 -23 -214 -36 -37 -73 -35 -103 5 -44 60 -27 331 34
537 12 39 23 70 25 68 2 -1 10 -41 18 -88z m-4814 -145 c1 -17 -6 -41 -16 -54
l-16 -24 -19 23 c-12 14 -18 38 -18 69 0 52 18 169 28 185 7 12 40 -149 41
-199z m-150 58 c15 -99 14 -139 -5 -158 -13 -13 -19 -13 -31 -3 -13 11 -15 30
-10 113 11 168 25 183 46 48z m5201 -45 c11 -57 20 -131 20 -166 0 -94 -35
-148 -76 -117 -34 24 -27 224 13 394 9 37 21 6 43 -111z m-714 -133 c6 -72 4
-82 -15 -105 -20 -24 -21 -25 -36 -6 -25 32 -28 80 -10 167 25 129 26 131 42
74 7 -27 16 -86 19 -130z m344 -85 c7 -142 23 -191 70 -218 22 -12 30 -24 30
-44 0 -31 -7 -33 -62 -17 -36 9 -38 12 -38 52 0 24 -4 47 -9 52 -5 6 -11 24
-13 40 -2 20 -11 33 -25 40 -21 9 -23 17 -23 76 0 37 8 100 17 140 l16 74 15
-35 c9 -21 18 -86 22 -160z m-4909 133 c3 -18 12 -40 19 -48 11 -13 -3 -15
-120 -15 l-133 0 25 32 c37 48 84 69 148 66 52 -3 54 -4 61 -35z m879 6 c81
-44 124 -51 212 -34 85 16 133 12 169 -16 24 -18 14 -19 -513 -19 -516 0 -538
1 -538 18 0 53 91 77 158 43 51 -26 77 -26 109 -1 32 25 66 25 122 0 l44 -20
36 24 c46 30 57 34 106 35 27 0 58 -9 95 -30z m-718 -16 c38 -35 7 -67 -54
-55 -16 3 -16 6 -1 38 19 38 28 41 55 17z m3670 -92 c115 -44 312 -101 352
-101 12 0 16 -10 16 -40 0 -39 -1 -40 -27 -34 -85 20 -227 66 -288 92 -171 73
-205 92 -205 112 0 11 6 20 13 20 7 0 69 -22 139 -49z m638 -21 c0 -20 9 -39
25 -54 14 -13 25 -33 25 -45 0 -25 18 -28 26 -3 3 9 10 24 15 32 5 8 19 34 30
58 l20 42 99 0 100 0 0 -49 c0 -46 -1 -49 -32 -56 -18 -5 -46 -7 -62 -6 -35 3
-76 -33 -76 -66 0 -13 -6 -23 -14 -23 -7 0 -65 15 -127 34 -110 33 -231 66
-243 66 -3 0 -6 -22 -6 -50 0 -27 -4 -50 -10 -50 -5 0 -10 22 -10 50 0 55 -8
63 -76 73 -57 9 -217 56 -228 68 -6 5 94 9 267 9 l277 0 0 -30z m-19 -151 c70
-22 148 -42 175 -46 27 -3 68 -19 92 -34 48 -30 161 -70 292 -104 l85 -21 8
-53 c5 -29 7 -55 4 -57 -6 -7 -138 23 -209 47 -96 31 -168 69 -190 100 -13 17
-33 29 -57 33 -20 3 -94 23 -166 45 -71 21 -149 44 -172 50 -41 11 -43 13 -43
52 0 46 -14 47 181 -12z m384 32 c25 -15 31 -26 39 -75 4 -31 6 -60 2 -63 -8
-9 -104 25 -137 48 -15 10 -38 23 -53 29 -52 19 -17 76 40 66 18 -4 35 -2 39
4 9 14 35 11 70 -9z m653 -195 c3 -88 3 -89 -20 -83 -13 4 -57 12 -98 19 -41
6 -81 16 -87 21 -35 26 16 95 60 83 19 -4 28 0 41 18 10 16 22 23 35 19 10 -2
22 0 26 7 4 6 14 10 23 8 14 -3 18 -19 20 -92z m-338 -112 c0 -34 -4 -53 -10
-49 -5 3 -10 31 -10 61 0 34 4 53 10 49 6 -3 10 -31 10 -61z m310 3 c9 -1 -14
-23 -53 -51 l-67 -48 -68 17 c-37 9 -73 19 -79 23 -9 6 -18 75 -14 103 1 5
113 -13 281 -44z"/>
<path d="M2120 2990 c0 -7 472 -10 1395 -10 923 0 1395 3 1395 10 0 7 -472 10
-1395 10 -923 0 -1395 -3 -1395 -10z"/>
<path d="M5040 2990 c0 -7 213 -10 620 -10 407 0 620 3 620 10 0 7 -213 10
-620 10 -407 0 -620 -3 -620 -10z"/>
<path d="M4045 2920 c-3 -6 0 -12 7 -15 7 -3 539 -4 1182 -3 925 2 1170 6
1174 16 5 16 -2353 18 -2363 2z"/>
<path d="M2120 2840 c0 -7 170 -10 490 -10 320 0 490 3 490 10 0 7 -170 10
-490 10 -320 0 -490 -3 -490 -10z"/>
<path d="M3290 2840 c0 -7 577 -10 1710 -10 1133 0 1710 3 1710 10 0 7 -577
10 -1710 10 -1133 0 -1710 -3 -1710 -10z"/>
<path d="M2127 2744 c-4 -4 -4 -11 -1 -15 3 -5 1100 -9 2460 -9 1960 0 2455 3
2452 13 -4 9 -505 13 -2455 15 -1347 1 -2453 -1 -2456 -4z"/>
<path d="M4735 2633 c-525 -3 -672 -11 -511 -28 100 -11 1381 8 1381 20 0 11
-51 12 -870 8z"/>
<path d="M5845 2608 c-21 -18 -47 -52 -57 -74 l-18 -42 -40 20 c-23 11 -44 18
-47 14 -4 -3 4 -27 16 -52 13 -25 21 -47 20 -48 -2 -2 -38 -8 -79 -15 -41 -6
-118 -18 -170 -26 -318 -50 -601 -80 -1145 -120 -276 -20 -891 -92 -1128 -131
-54 -9 -101 -14 -103 -11 -3 3 4 27 15 52 25 57 25 55 4 55 -10 0 -33 -14 -52
-32 l-34 -32 6 46 c3 25 13 65 21 89 8 24 13 45 11 47 -20 20 -89 -75 -107
-146 l-11 -43 -41 39 c-81 78 -115 76 -65 -3 16 -26 32 -60 36 -75 5 -27 3
-28 -48 -38 -30 -6 -112 -18 -184 -27 -273 -34 -500 -68 -509 -76 -22 -20 10
-21 121 -4 124 18 134 19 442 60 107 14 198 28 203 31 13 8 9 56 -7 84 -8 14
-14 30 -14 35 -1 16 38 -36 54 -73 19 -43 31 -35 37 25 3 27 12 64 21 83 l16
35 -6 -71 c-7 -88 6 -101 42 -43 30 47 40 47 24 0 -16 -47 -4 -54 72 -42 81
13 372 51 774 100 101 13 359 36 630 56 393 30 600 52 885 96 196 30 300 48
311 55 4 2 3 20 -1 39 -8 37 -1 45 20 20 21 -25 37 -17 43 23 4 21 13 46 22
57 15 19 15 18 9 -17 -3 -21 -3 -45 0 -55 6 -14 12 -11 42 18 l35 34 -10 -28
c-14 -35 -14 -77 -1 -77 5 0 12 12 15 28 3 15 15 45 25 67 11 22 20 43 20 48
0 15 -35 6 -68 -19 l-34 -27 7 24 c4 13 14 37 22 53 23 45 2 53 -42 14z"/>
<path d="M2827 2623 c-552 -3 -698 -6 -694 -16 5 -16 440 -21 1195 -11 476 5
572 9 572 20 0 12 -34 14 -187 12 -104 -2 -502 -4 -886 -5z"/>
<path d="M6985 2599 c-104 -15 -282 -40 -395 -54 -602 -75 -621 -78 -603 -96
6 -6 57 -3 149 10 76 10 198 26 269 35 309 39 513 66 610 81 50 7 115 16 145
20 72 8 92 14 85 26 -9 13 -47 10 -260 -22z"/>
<path d="M7335 2531 c-140 -31 -627 -130 -715 -146 -374 -68 -571 -97 -1375
-205 -121 -16 -269 -36 -330 -45 -141 -19 -323 -43 -610 -80 -122 -16 -160
-21 -545 -76 -477 -67 -679 -99 -887 -140 -64 -13 -72 -34 -10 -26 23 3 123
19 222 37 99 17 223 37 275 45 332 48 778 110 1045 145 171 22 393 52 495 66
102 13 237 32 300 40 63 8 160 21 215 29 55 8 186 26 290 40 616 84 916 136
1574 275 152 32 165 36 156 51 -7 11 0 11 -100 -10z"/>
<path d="M7490 2453 c-30 -8 -125 -36 -210 -63 -85 -27 -173 -54 -195 -60 -22
-6 -62 -18 -90 -26 -113 -32 -515 -121 -913 -200 -232 -46 -509 -106 -615
-133 -168 -43 -484 -134 -557 -161 -62 -22 -292 -90 -355 -104 -68 -15 -205
-42 -445 -86 -63 -12 -155 -31 -205 -42 -85 -19 -420 -115 -478 -137 -26 -10
-27 -9 -27 23 0 19 7 68 16 111 9 42 13 79 10 82 -18 19 -106 -122 -106 -172
0 -11 -19 15 -42 59 -50 94 -130 187 -148 170 -9 -9 -7 -21 9 -52 22 -43 81
-200 81 -215 0 -5 -14 3 -31 18 -34 28 -101 65 -119 65 -20 0 -10 -26 21 -56
30 -28 85 -112 78 -118 -2 -2 -38 -15 -79 -30 -88 -32 -107 -42 -97 -53 7 -6
84 18 170 52 14 6 20 2 24 -14 3 -11 9 -21 14 -21 19 0 7 57 -21 109 -17 30
-28 56 -26 58 2 2 24 -20 50 -48 26 -28 50 -49 53 -45 11 11 -14 110 -50 201
-19 47 -32 85 -30 85 12 0 94 -146 113 -202 13 -38 26 -68 31 -68 4 0 11 17
14 38 9 59 38 152 48 159 6 4 8 0 4 -9 -10 -28 -20 -176 -13 -213 9 -45 26
-36 26 13 l0 37 93 29 c298 93 434 125 847 201 190 35 311 65 500 125 472 150
709 210 1263 320 412 83 466 94 647 136 177 42 326 82 545 149 116 35 225 68
244 72 37 9 55 34 24 32 -10 0 -43 -7 -73 -16z"/>
<path d="M3485 2449 c-110 -4 -290 -14 -400 -20 -110 -7 -369 -14 -575 -14
-206 -1 -377 -6 -380 -11 -3 -5 80 -13 185 -17 149 -7 295 -4 680 14 482 23
1166 31 1525 19 92 -3 147 -1 150 5 13 27 -737 42 -1185 24z"/>
<path d="M7570 2358 c-129 -77 -525 -268 -705 -341 -169 -68 -250 -104 -535
-235 -96 -44 -238 -101 -315 -127 -77 -26 -144 -51 -149 -56 -23 -22 10 -19
96 9 160 52 247 87 463 187 116 53 286 128 380 167 93 39 209 88 257 109 208
91 628 312 628 330 0 19 -39 5 -120 -43z"/>
<path d="M6680 2094 c-59 -19 -439 -126 -605 -170 -71 -19 -134 -39 -139 -44
-31 -31 24 -18 439 97 368 103 389 109 393 121 5 16 -31 14 -88 -4z"/>
<path d="M7617 1804 c-13 -22 -30 -60 -37 -87 l-13 -47 -39 40 c-38 38 -68 52
-68 30 0 -6 9 -27 20 -48 11 -20 26 -63 32 -94 7 -32 15 -58 19 -58 17 0 18
20 4 74 -20 76 -18 79 11 24 13 -27 28 -48 33 -48 5 0 12 26 17 58 6 42 9 49
11 27 7 -54 11 -60 33 -40 19 17 19 17 10 -16 -14 -48 -12 -69 5 -69 9 0 15 9
15 24 0 13 7 47 17 75 19 59 14 70 -21 47 -14 -9 -28 -16 -31 -16 -7 0 3 62
17 108 16 53 -5 63 -35 16z"/>
<path d="M5440 1750 c-47 -16 -292 -80 -545 -144 -625 -157 -588 -146 -572
-163 7 -7 820 193 1052 259 153 44 179 54 170 69 -8 12 -5 12 -105 -21z"/>
<path d="M5505 1502 c-74 -16 -645 -185 -805 -238 -202 -66 -229 -78 -217 -90
4 -4 98 22 210 59 111 36 256 82 322 101 402 116 471 136 481 136 16 0 48 26
38 32 -5 2 -18 3 -29 0z"/>
</g>
</svg>
