<?xml version="1.0" standalone="no"?>
<!DOCTYPE svg PUBLIC "-//W3C//DTD SVG 20010904//EN"
 "http://www.w3.org/TR/2001/REC-SVG-20010904/DTD/svg10.dtd">
<svg version="1.0" xmlns="http://www.w3.org/2000/svg"
 width="1024.000000pt" height="559.000000pt" viewBox="0 0 1024.000000 559.000000"
 preserveAspectRatio="xMidYMid meet">
<metadata>
Created by potrace 1.16, written by Peter Selinger 2001-2019
</metadata>
<g transform="translate(0.000000,559.000000) scale(0.100000,-0.100000)"
fill="#000000" stroke="none">
<path d="M4935 3873 c-259 -30 -442 -93 -670 -230 -678 -407 -639 -379 -1111
-808 -383 -348 -536 -461 -814 -599 -399 -198 -900 -366 -1245 -418 -67 -10
-90 -17 -90 -28 0 -40 274 8 580 101 473 145 899 341 1160 537 114 86 381 317
585 506 266 247 328 292 745 543 55 33 138 84 185 113 159 98 315 167 480 211
73 20 110 23 260 24 236 0 345 -26 624 -150 72 -31 195 -80 275 -107 226 -77
286 -115 504 -325 195 -189 260 -231 471 -308 213 -76 295 -131 445 -295 380
-415 501 -503 851 -620 52 -17 174 -69 270 -115 200 -96 290 -125 480 -154
282 -42 301 -44 313 -32 18 18 -4 31 -74 41 -35 5 -118 16 -184 26 -238 33
-299 52 -528 163 -78 38 -209 93 -292 122 -318 110 -427 189 -751 541 -212
230 -280 279 -506 359 -206 74 -270 116 -485 322 -202 193 -274 238 -518 322
-60 21 -172 64 -247 96 -254 109 -363 141 -537 159 -102 10 -118 10 -176 3z"/>
</g>
</svg>
