<?xml version="1.0" standalone="no"?>
<!DOCTYPE svg PUBLIC "-//W3C//DTD SVG 20010904//EN"
 "http://www.w3.org/TR/2001/REC-SVG-20010904/DTD/svg10.dtd">
<svg version="1.0" xmlns="http://www.w3.org/2000/svg"
 width="1024.000000pt" height="559.000000pt" viewBox="0 0 1024.000000 559.000000"
 preserveAspectRatio="xMidYMid meet">
<metadata>
Created by potrace 1.16, written by Peter Selinger 2001-2019
</metadata>
<g transform="translate(0.000000,559.000000) scale(0.100000,-0.100000)"
fill="#000000" stroke="none">
<path d="M5205 4900 c-62 -23 -120 -25 -175 -5 -67 24 -147 19 -209 -11 -60
-30 -99 -78 -133 -163 -45 -114 -24 -322 47 -461 14 -27 25 -52 25 -56 0 -3
-25 17 -56 45 -67 61 -167 122 -249 152 -87 32 -233 33 -291 2 -104 -56 -144
-120 -144 -232 0 -78 -10 -106 -57 -169 -135 -179 1 -405 272 -453 40 -7 117
-10 186 -7 l118 5 -57 -34 c-140 -84 -217 -165 -267 -276 -37 -85 -42 -149
-15 -221 30 -79 79 -124 173 -159 66 -24 82 -35 132 -93 77 -87 119 -108 215
-109 60 0 84 5 123 25 64 32 140 108 180 179 l32 56 7 -50 c3 -27 6 -248 6
-490 -1 -472 -8 -691 -22 -640 -67 255 -107 337 -215 445 -120 120 -246 174
-471 205 -109 15 -252 20 -263 9 -3 -4 6 -25 22 -48 15 -22 63 -108 105 -190
87 -170 124 -224 201 -294 84 -77 178 -118 338 -147 152 -28 227 -65 268 -132
21 -33 21 -38 10 -201 -13 -192 -37 -459 -52 -580 -11 -94 -7 -104 45 -122 42
-13 83 1 95 32 5 13 11 73 15 133 4 61 13 205 21 320 8 116 17 284 21 375 l7
165 41 41 c50 50 131 82 236 94 116 14 179 29 255 65 135 62 207 137 316 330
34 61 82 139 106 174 24 35 42 70 39 78 -5 11 -34 13 -163 9 -304 -8 -462 -62
-603 -205 -88 -88 -136 -173 -187 -326 l-32 -100 -1 530 0 529 49 -74 c48 -73
107 -127 181 -166 25 -13 56 -19 110 -19 97 0 137 21 219 114 55 61 70 72 128
92 140 46 207 157 181 299 -25 139 -133 266 -303 357 l-60 32 105 -6 c227 -13
408 60 488 195 23 40 27 58 27 122 0 66 -4 81 -30 123 -75 122 -75 120 -75
183 0 80 -24 147 -69 191 -134 132 -366 100 -591 -82 -44 -35 -80 -61 -80 -57
0 4 4 12 9 18 18 17 60 163 71 245 27 199 -48 366 -188 413 -58 20 -104 19
-167 -4z m-190 -30 c88 -25 110 -25 186 1 122 43 221 8 285 -99 104 -173 48
-450 -148 -733 l-61 -88 -39 20 c-30 15 -38 24 -33 37 5 14 30 117 50 210 3
12 2 22 -3 22 -4 0 -14 -24 -21 -52 -7 -29 -22 -86 -34 -126 -18 -65 -22 -72
-41 -66 -12 4 -22 7 -23 9 -2 1 -6 109 -10 241 -6 185 -9 226 -15 179 -5 -33
-7 -143 -6 -245 l3 -185 -24 0 c-26 0 -42 36 -81 180 -19 69 -19 70 -19 25 0
-25 13 -82 28 -128 l29 -83 -38 -19 -37 -19 -21 22 c-30 33 -125 183 -161 254
-65 131 -85 207 -85 333 -1 110 1 118 32 182 35 72 76 111 139 134 51 18 67
17 148 -6z m1009 -461 c103 -29 165 -112 167 -223 1 -73 11 -102 64 -180 72
-106 58 -225 -35 -310 -52 -47 -125 -83 -207 -102 -133 -32 -369 -6 -576 62
-47 16 -48 17 -45 52 l3 37 105 8 c161 12 180 27 24 20 -119 -5 -131 -4 -138
12 -3 10 -5 19 -4 21 6 6 238 93 346 129 61 21 112 42 112 46 0 13 -197 -48
-364 -112 -99 -39 -115 -39 -116 -4 0 12 63 61 153 120 31 21 55 40 53 42 -7
8 -79 -33 -151 -86 l-69 -51 -23 22 -23 21 47 66 c164 234 324 364 498 407 64
16 129 17 179 3z m-1584 -33 c97 -33 168 -77 257 -160 67 -62 171 -186 217
-258 16 -25 16 -28 1 -52 -10 -14 -21 -26 -26 -26 -5 0 -30 15 -56 34 -73 51
-141 88 -155 84 -6 -2 24 -26 68 -52 101 -62 130 -87 126 -108 -2 -10 -8 -18
-13 -18 -9 0 -96 25 -308 89 -74 23 -139 41 -145 41 -27 -1 41 -27 233 -90
178 -59 206 -71 209 -90 3 -21 2 -21 -122 -18 -69 2 -126 0 -126 -3 0 -10 85
-19 170 -19 l78 0 4 -35 c5 -39 13 -35 -147 -79 -250 -68 -445 -68 -590 0
-146 68 -210 201 -155 323 11 23 31 56 45 72 31 37 45 88 45 162 0 101 38 162
125 203 69 33 168 33 265 0z m761 -421 c64 -23 108 -62 135 -119 30 -65 32
-143 3 -206 -27 -60 -54 -88 -114 -116 -162 -77 -345 38 -345 216 0 81 32 141
100 192 63 47 145 59 221 33z m304 -352 c129 -40 224 -83 312 -140 95 -62 151
-123 195 -212 26 -52 32 -76 32 -130 1 -112 -54 -186 -163 -222 -58 -19 -76
-32 -146 -104 -92 -94 -126 -110 -216 -102 -217 19 -378 318 -379 698 l0 67
42 10 c23 6 43 10 44 9 0 -1 15 -38 32 -82 18 -44 42 -93 53 -110 27 -39 21
-15 -25 95 -40 96 -43 115 -19 124 20 8 19 9 190 -202 64 -78 118 -141 120
-138 8 8 -94 149 -184 256 -45 55 -83 103 -83 108 0 5 6 15 14 21 14 12 76
-24 179 -103 20 -15 37 -24 37 -19 0 11 -96 88 -153 122 -28 17 -36 28 -31 40
3 9 9 24 11 33 6 21 17 19 138 -19z m-624 0 c7 -16 15 -31 17 -34 1 -4 -25
-27 -60 -52 -61 -44 -139 -117 -125 -117 4 0 31 20 61 44 29 24 74 57 98 74
43 29 47 30 61 14 14 -16 5 -32 -118 -202 -73 -102 -131 -187 -128 -190 2 -3
16 9 30 25 37 45 232 305 243 324 7 13 13 14 27 5 23 -15 20 -35 -21 -147 -19
-50 -33 -93 -31 -95 6 -6 51 89 70 148 10 30 21 59 25 63 4 5 24 5 44 2 l36
-7 0 -77 c0 -109 -25 -295 -50 -371 -67 -201 -200 -330 -339 -330 -79 1 -127
26 -194 103 -50 56 -68 69 -136 97 -81 32 -130 71 -159 124 -23 45 -21 159 5
216 50 110 163 221 296 289 71 36 290 118 323 120 6 1 17 -11 25 -26z m267
-501 c34 -144 35 -1162 2 -1750 -19 -346 -42 -627 -52 -640 -13 -16 -49 -16
-71 1 -16 11 -17 21 -3 157 56 542 69 829 71 1520 1 482 4 643 15 702 8 43 16
75 19 72 3 -3 12 -31 19 -62z m996 -644 c-5 -7 -27 -42 -50 -78 -22 -36 -56
-92 -74 -125 -97 -177 -173 -260 -295 -319 -75 -36 -110 -45 -275 -71 -62 -10
-124 -27 -152 -41 -27 -13 -48 -20 -48 -15 0 15 90 119 161 186 109 103 235
192 402 284 43 24 76 45 73 48 -8 8 -188 -87 -286 -152 -127 -84 -247 -189
-315 -276 -65 -84 -69 -74 -22 69 117 352 340 498 770 501 92 1 117 -2 111
-11z m-1757 -103 c327 -53 508 -201 593 -485 25 -84 50 -184 46 -187 -1 -2
-22 25 -45 58 -112 158 -307 325 -522 447 -101 57 -93 34 9 -26 88 -52 206
-140 304 -225 75 -66 195 -204 224 -260 l15 -28 -38 25 c-37 24 -102 44 -276
85 -124 29 -199 71 -283 155 -60 61 -81 92 -148 223 -43 84 -89 169 -102 188
-13 20 -24 38 -24 40 0 11 161 4 247 -10z"/>
</g>
</svg>
