<?xml version="1.0" standalone="no"?>
<!DOCTYPE svg PUBLIC "-//W3C//DTD SVG 20010904//EN"
 "http://www.w3.org/TR/2001/REC-SVG-20010904/DTD/svg10.dtd">
<svg version="1.0" xmlns="http://www.w3.org/2000/svg"
 width="1024.000000pt" height="559.000000pt" viewBox="0 0 1024.000000 559.000000"
 preserveAspectRatio="xMidYMid meet">
<metadata>
Created by potrace 1.16, written by Peter Selinger 2001-2019
</metadata>
<g transform="translate(0.000000,559.000000) scale(0.100000,-0.100000)"
fill="#000000" stroke="none">
<path d="M7320 4729 c-68 -16 -279 -39 -550 -59 -301 -22 -475 -46 -620 -84
-52 -14 -156 -41 -230 -61 -74 -20 -202 -47 -285 -61 -378 -63 -544 -107 -773
-205 -156 -67 -483 -235 -572 -294 -75 -50 -125 -111 -117 -142 4 -14 5 -13 6
5 1 14 23 45 54 77 46 46 90 71 328 188 449 222 579 266 994 336 210 36 264
48 480 107 237 65 412 95 650 109 364 22 675 64 675 90 0 3 -1 5 -2 4 -2 -1
-19 -5 -38 -10z"/>
<path d="M8060 4604 c-14 -2 -65 -9 -115 -15 -49 -6 -148 -21 -220 -34 -156
-28 -203 -35 -495 -75 -537 -73 -509 -68 -855 -138 -90 -19 -215 -42 -390 -73
-417 -74 -794 -228 -954 -390 -112 -113 -106 -215 18 -313 53 -41 226 -134
281 -151 86 -27 232 -102 298 -155 97 -78 137 -154 121 -230 -9 -45 -103 -133
-191 -177 -112 -58 -299 -117 -453 -143 -27 -5 -101 -18 -162 -30 -62 -11
-168 -27 -235 -36 -157 -20 -399 -68 -508 -100 -148 -44 -262 -89 -455 -179
-232 -108 -355 -163 -495 -222 -176 -74 -229 -98 -460 -211 -256 -124 -364
-171 -660 -291 -441 -179 -539 -221 -643 -273 -144 -71 -377 -217 -377 -234 0
-24 31 -10 170 73 177 105 346 186 640 303 438 175 639 263 972 423 86 42 251
116 365 166 226 97 274 119 495 222 342 160 557 226 881 269 596 80 918 173
1067 307 71 64 93 105 93 172 0 65 -14 97 -73 164 -66 74 -148 124 -355 214
-197 86 -309 153 -348 207 -69 98 24 220 262 344 252 131 433 182 1010 282 62
11 139 26 170 34 107 28 374 73 526 90 114 13 434 60 630 93 116 19 269 44
340 54 242 35 270 40 280 50 9 9 -118 11 -175 3z"/>
<path d="M8359 4515 c-6 -5 -170 -37 -289 -55 -153 -25 -359 -65 -525 -104
-136 -32 -397 -81 -755 -141 -232 -39 -356 -69 -540 -132 -223 -75 -357 -151
-419 -235 -38 -52 -47 -94 -28 -139 34 -83 123 -134 343 -199 367 -108 441
-137 589 -234 172 -113 321 -285 345 -402 28 -136 -41 -251 -233 -388 -174
-124 -513 -259 -972 -389 -487 -138 -623 -190 -796 -308 -105 -71 -182 -142
-504 -464 -331 -330 -429 -440 -522 -585 -142 -222 -268 -407 -376 -555 -64
-88 -117 -166 -117 -173 0 -73 196 188 511 678 102 160 210 280 551 619 367
364 381 376 503 456 160 105 287 156 645 257 207 58 552 169 693 222 313 118
566 294 637 442 33 70 38 163 12 237 -59 167 -252 348 -497 467 -133 65 -215
94 -385 140 -281 76 -390 137 -390 220 0 43 31 89 93 139 116 94 474 216 789
271 62 10 151 26 198 35 47 8 114 19 150 25 36 5 103 17 150 26 47 9 117 22
155 29 39 7 160 34 270 59 110 25 268 57 350 71 376 64 436 79 419 106 -5 9
-47 12 -55 4z"/>
<path d="M7908 4493 c6 -2 18 -2 25 0 6 3 1 5 -13 5 -14 0 -19 -2 -12 -5z"/>
<path d="M6678 4483 c7 -3 16 -2 19 1 4 3 -2 6 -13 5 -11 0 -14 -3 -6 -6z"/>
<path d="M7858 4483 c6 -2 18 -2 25 0 6 3 1 5 -13 5 -14 0 -19 -2 -12 -5z"/>
<path d="M6055 4464 c-155 -24 -276 -52 -408 -94 -71 -23 -127 -43 -125 -46 3
-2 25 3 49 11 118 42 387 104 584 133 39 6 48 10 25 10 -19 0 -75 -6 -125 -14z"/>
<path d="M6565 4466 c-33 -8 -106 -22 -163 -32 -57 -10 -98 -20 -92 -22 7 -3
37 1 68 7 32 6 107 20 167 32 61 12 112 23 114 25 8 7 -34 2 -94 -10z"/>
<path d="M7808 4473 c6 -2 18 -2 25 0 6 3 1 5 -13 5 -14 0 -19 -2 -12 -5z"/>
<path d="M7753 4463 c9 -2 23 -2 30 0 6 3 -1 5 -18 5 -16 0 -22 -2 -12 -5z"/>
<path d="M7698 4453 c7 -3 16 -2 19 1 4 3 -2 6 -13 5 -11 0 -14 -3 -6 -6z"/>
<path d="M7628 4443 c6 -2 18 -2 25 0 6 3 1 5 -13 5 -14 0 -19 -2 -12 -5z"/>
<path d="M6253 4403 c9 -2 23 -2 30 0 6 3 -1 5 -18 5 -16 0 -22 -2 -12 -5z"/>
<path d="M6198 4393 c6 -2 18 -2 25 0 6 3 1 5 -13 5 -14 0 -19 -2 -12 -5z"/>
<path d="M6148 4383 c6 -2 18 -2 25 0 6 3 1 5 -13 5 -14 0 -19 -2 -12 -5z"/>
<path d="M8365 4298 c-33 -10 -157 -44 -275 -73 -218 -56 -314 -83 -293 -84
11 -1 132 26 333 75 116 28 277 79 300 94 21 14 4 11 -65 -12z"/>
<path d="M7868 4263 c7 -3 16 -2 19 1 4 3 -2 6 -13 5 -11 0 -14 -3 -6 -6z"/>
<path d="M6440 4244 c-300 -77 -550 -152 -512 -154 6 0 69 16 140 36 441 123
482 136 441 133 -8 0 -39 -7 -69 -15z"/>
<path d="M7655 4225 c-183 -38 -245 -53 -227 -54 13 -1 399 76 417 83 30 13
-49 0 -190 -29z"/>
<path d="M8530 4189 c-91 -27 -147 -47 -125 -43 57 9 278 73 289 84 12 12 29
17 -164 -41z"/>
<path d="M4390 4178 c-344 -163 -447 -219 -509 -274 -62 -56 -91 -102 -91
-143 0 -27 49 -81 99 -109 57 -32 51 -21 -8 16 -94 58 -100 121 -18 203 62 62
127 101 382 225 127 62 226 113 220 113 -5 0 -39 -14 -75 -31z"/>
<path d="M4929 4142 c-53 -26 -134 -64 -180 -86 -207 -95 -349 -231 -349 -333
0 -51 17 -88 56 -123 26 -23 26 -22 -3 12 -68 80 -53 157 47 259 81 82 108 99
350 220 107 54 191 98 185 98 -5 0 -53 -21 -106 -47z"/>
<path d="M7388 4163 c7 -3 16 -2 19 1 4 3 -2 6 -13 5 -11 0 -14 -3 -6 -6z"/>
<path d="M8690 4148 c-14 -5 -45 -16 -70 -23 -25 -7 -83 -25 -130 -40 -47 -14
-164 -48 -260 -75 -340 -96 -397 -118 -511 -193 -177 -119 -202 -144 -201
-207 1 -77 51 -133 207 -230 149 -92 345 -247 415 -326 42 -49 106 -181 121
-252 20 -100 -15 -209 -97 -301 -85 -95 -221 -169 -609 -335 -99 -43 -189 -81
-200 -86 -11 -5 -69 -30 -130 -55 -100 -42 -291 -132 -255 -121 29 9 547 224
695 288 234 102 334 152 412 207 157 110 233 263 203 407 -16 78 -67 187 -117
250 -64 80 -290 260 -432 344 -93 56 -177 131 -191 174 -12 37 -2 76 28 110
25 28 239 166 297 191 55 24 75 30 340 105 237 67 490 149 512 166 21 16 8 17
-27 2z"/>
<path d="M7758 4133 c7 -3 16 -2 19 1 4 3 -2 6 -13 5 -11 0 -14 -3 -6 -6z"/>
<path d="M8338 4133 c7 -3 16 -2 19 1 4 3 -2 6 -13 5 -11 0 -14 -3 -6 -6z"/>
<path d="M5151 4090 c-92 -51 -168 -109 -253 -197 -81 -84 -108 -132 -108
-196 0 -81 38 -130 143 -183 115 -58 132 -55 23 5 -194 108 -201 211 -23 386
85 84 135 122 246 187 87 50 66 49 -28 -2z"/>
<path d="M8270 4120 c-20 -6 -21 -8 -5 -8 11 0 29 3 40 8 25 11 -1 11 -35 0z"/>
<path d="M6958 4103 c6 -2 18 -2 25 0 6 3 1 5 -13 5 -14 0 -19 -2 -12 -5z"/>
<path d="M6660 4051 c-234 -61 -282 -78 -368 -134 -80 -52 -112 -91 -112 -139
0 -44 34 -77 120 -116 36 -17 143 -67 238 -112 157 -74 291 -120 347 -120 20
0 73 -31 145 -86 20 -15 14 -7 -15 21 -58 54 -94 72 -173 86 -76 14 -145 40
-266 101 -56 28 -117 56 -136 63 -19 7 -74 31 -121 54 -87 40 -129 77 -129
112 0 45 117 138 228 182 42 17 416 122 462 130 22 4 22 4 -5 5 -16 1 -113
-21 -215 -47z"/>
<path d="M7305 4050 c-93 -21 -183 -53 -211 -75 -12 -10 -5 -9 21 4 50 24 131
48 244 71 47 10 73 19 56 18 -16 0 -66 -8 -110 -18z"/>
<path d="M7609 3946 c-216 -76 -284 -109 -318 -152 -27 -34 -27 -85 0 -115
l21 -24 -16 25 c-28 43 -21 84 21 121 48 42 116 72 338 149 99 35 182 65 184
66 16 14 -51 -7 -230 -70z"/>
<path d="M5431 3953 c-54 -27 -137 -109 -155 -154 -10 -25 -14 -53 -11 -70 10
-43 88 -105 155 -123 14 -4 4 5 -21 18 -67 36 -119 88 -119 119 0 61 47 123
142 187 63 42 67 51 9 23z"/>
<path d="M4098 3893 c-9 -10 -21 -35 -29 -55 -19 -54 -1 -103 58 -158 34 -32
39 -35 17 -10 -17 19 -38 46 -47 60 -23 34 -22 107 3 148 22 36 21 41 -2 15z"/>
<path d="M4760 3869 c-56 -78 -82 -176 -59 -224 7 -16 8 -14 5 12 -8 48 20
141 60 201 41 62 37 70 -6 11z"/>
<path d="M6591 3880 c-47 -34 -81 -84 -81 -117 0 -31 47 -78 98 -97 53 -20 56
-11 2 10 -55 22 -93 69 -85 103 8 32 67 95 109 115 17 9 24 16 15 16 -9 0 -35
-14 -58 -30z"/>
<path d="M5677 3853 c-29 -31 -57 -91 -57 -123 0 -37 39 -99 83 -131 43 -32
202 -111 247 -123 14 -4 -29 22 -96 56 -66 35 -134 74 -152 87 -72 51 -80 136
-23 217 37 50 36 56 -2 17z"/>
<path d="M7101 3839 c-41 -16 -98 -67 -115 -103 -30 -64 -17 -134 36 -183 29
-27 189 -133 201 -133 4 0 -29 25 -75 56 -108 74 -146 110 -159 155 -21 67 25
150 102 190 22 11 39 22 39 24 0 6 1 6 -29 -6z"/>
<path d="M3965 3613 c6 -5 27 -21 48 -37 148 -108 39 -223 -253 -265 -139 -21
-135 -27 5 -10 272 31 398 152 276 262 -22 20 -50 41 -63 47 -12 7 -18 8 -13
3z"/>
<path d="M4200 3595 c0 -16 49 -86 95 -135 84 -90 95 -128 48 -172 -63 -59
-169 -85 -383 -94 -69 -3 -190 -12 -270 -21 -119 -13 -185 -14 -365 -7 -339
14 -448 10 -625 -21 -85 -14 -200 -33 -255 -41 -288 -43 -452 -89 -785 -219
-212 -83 -457 -169 -513 -179 -20 -4 -37 -11 -37 -16 0 -6 3 -10 8 -10 20 0
189 52 287 88 61 23 142 52 180 67 39 14 79 30 90 35 158 75 460 163 680 199
72 12 200 33 285 47 244 41 333 47 528 35 203 -13 378 -13 482 -1 41 5 154 14
250 20 319 19 450 57 481 137 16 44 -2 84 -71 157 -37 39 -77 87 -89 106 -11
19 -21 30 -21 25z"/>
<path d="M4624 3363 c9 -18 16 -53 16 -79 0 -41 -4 -50 -37 -81 -21 -19 -57
-46 -80 -60 -60 -35 -54 -40 8 -7 27 15 66 45 86 67 34 38 35 42 31 99 -3 39
-10 64 -22 76 -17 16 -18 16 -2 -15z"/>
<path d="M7384 3343 c4 -4 24 -15 44 -23 181 -75 309 -216 348 -383 l14 -62
-4 59 c-6 76 -53 169 -127 250 -45 48 -76 71 -150 108 -97 48 -139 65 -125 51z"/>
<path d="M5364 3288 c100 -53 203 -147 212 -193 9 -51 -16 -88 -98 -138 -113
-70 -249 -121 -378 -142 -25 -5 -39 -10 -33 -12 23 -8 186 29 263 59 147 58
251 133 266 194 17 67 -90 181 -230 244 -94 43 -94 36 -2 -12z"/>
<path d="M5924 3282 c10 -12 42 -36 70 -53 170 -105 209 -150 209 -237 0 -39
2 -43 10 -24 8 17 6 38 -7 78 -21 66 -67 116 -146 158 -30 16 -77 45 -105 64
-30 21 -42 26 -31 14z"/>
<path d="M5241 3204 c55 -59 63 -78 44 -114 -21 -41 -82 -73 -213 -111 -61
-18 -110 -34 -109 -36 6 -5 175 36 221 54 95 37 140 96 116 153 -7 17 -31 45
-54 62 l-41 32 36 -40z"/>
<path d="M7868 3170 c51 -70 96 -160 117 -235 46 -156 -29 -322 -215 -479
l-45 -38 49 33 c72 50 156 147 195 225 64 127 53 254 -35 409 -18 33 -50 78
-70 100 l-35 40 39 -55z"/>
<path d="M6587 3140 c116 -68 175 -128 192 -196 37 -148 -90 -267 -524 -489
-143 -74 -96 -62 62 16 347 169 483 290 483 429 0 66 -26 115 -92 175 -44 39
-191 125 -215 125 -4 0 38 -27 94 -60z"/>
<path d="M7363 3116 c18 -29 34 -52 36 -50 5 4 -47 91 -58 99 -5 3 5 -19 22
-49z"/>
<path d="M7045 3153 c6 -5 27 -22 48 -37 66 -49 127 -193 127 -305 0 -71 -24
-137 -93 -251 -50 -82 -54 -91 -27 -60 36 41 99 153 121 216 50 139 -25 360
-141 423 -25 13 -40 20 -35 14z"/>
<path d="M4625 3109 c-71 -46 -182 -92 -320 -130 -55 -15 -93 -28 -85 -28 30
-1 215 50 286 80 93 39 225 122 187 118 -5 0 -35 -18 -68 -40z"/>
<path d="M4440 3100 c-8 -5 -10 -10 -5 -10 6 0 17 5 25 10 8 5 11 10 5 10 -5
0 -17 -5 -25 -10z"/>
<path d="M5969 3008 c-11 -107 -71 -174 -244 -273 -44 -26 -69 -43 -55 -40 65
19 172 85 237 148 49 47 76 114 71 179 -3 42 -3 42 -9 -14z"/>
<path d="M3698 3043 c6 -2 18 -2 25 0 6 3 1 5 -13 5 -14 0 -19 -2 -12 -5z"/>
<path d="M3550 3019 c-393 -80 -541 -101 -780 -109 -241 -9 -317 -21 -455 -74
-280 -106 -364 -145 -558 -263 -116 -70 -275 -149 -409 -204 -59 -23 -106 -44
-104 -46 5 -5 181 65 281 111 50 23 159 82 242 130 236 135 439 224 668 292
80 24 114 27 315 34 124 5 257 13 295 19 166 27 625 118 634 126 8 9 -32 4
-129 -16z"/>
<path d="M6890 3015 c0 -3 15 -25 34 -50 68 -88 58 -163 -37 -280 l-40 -50 42
40 c76 72 112 185 80 248 -12 23 -79 101 -79 92z"/>
<path d="M7411 3004 c0 -11 3 -14 6 -6 3 7 2 16 -1 19 -3 4 -6 -2 -5 -13z"/>
<path d="M3895 3003 c-82 -10 -191 -40 -328 -90 -147 -53 -239 -77 -422 -107
-77 -13 -80 -14 -25 -9 132 11 277 44 463 107 173 59 297 88 412 99 29 3 25 4
-15 4 -30 0 -68 -2 -85 -4z"/>
<path d="M6531 2964 c18 -62 6 -129 -31 -182 l-32 -47 31 29 c17 16 36 45 42
64 13 39 6 149 -10 165 -7 7 -7 -2 0 -29z"/>
<path d="M7422 2905 c-1 -70 -11 -129 -36 -200 -4 -11 2 -4 13 15 29 51 45
154 33 215 -9 50 -9 50 -10 -30z"/>
<path d="M4168 2943 c6 -2 18 -2 25 0 6 3 1 5 -13 5 -14 0 -19 -2 -12 -5z"/>
<path d="M6130 2866 c-50 -55 -55 -62 -20 -31 49 43 95 94 89 99 -2 1 -33 -29
-69 -68z"/>
<path d="M4755 2820 c-68 -24 -193 -54 -355 -85 -223 -43 -557 -166 -660 -245
-14 -10 31 9 100 43 160 80 368 149 567 188 187 36 278 60 365 93 72 28 59 33
-17 6z"/>
<path d="M2983 2783 c9 -2 25 -2 35 0 9 3 1 5 -18 5 -19 0 -27 -2 -17 -5z"/>
<path d="M2903 2773 c9 -2 23 -2 30 0 6 3 -1 5 -18 5 -16 0 -22 -2 -12 -5z"/>
<path d="M3835 2661 c-82 -32 -211 -83 -285 -113 -236 -98 -371 -135 -655
-183 -202 -34 -425 -88 -413 -101 2 -2 31 5 63 15 77 24 220 54 410 85 195 33
310 62 475 124 102 38 437 172 565 226 7 3 7 5 0 5 -5 0 -77 -26 -160 -58z"/>
<path d="M2609 2671 c-12 -17 -47 -43 -78 -59 -58 -31 -86 -40 -286 -92 -145
-38 -215 -61 -320 -107 -79 -35 -241 -128 -251 -145 -3 -4 34 16 83 45 146 89
269 136 517 202 225 59 294 90 341 151 14 18 24 34 21 34 -3 0 -15 -13 -27
-29z"/>
<path d="M7531 2607 c-92 -168 -290 -293 -734 -462 -97 -38 -175 -70 -173 -72
2 -2 49 12 104 31 339 117 607 253 713 363 49 50 111 141 123 181 12 36 3 26
-33 -41z"/>
<path d="M4935 2454 c-49 -13 -148 -38 -220 -54 -71 -16 -188 -44 -260 -60
-71 -17 -198 -42 -281 -55 -170 -28 -283 -58 -411 -111 -92 -38 -624 -306
-618 -312 5 -5 83 31 356 167 294 147 435 198 637 230 287 47 912 195 912 216
0 9 -24 4 -115 -21z"/>
<path d="M7019 2423 l-24 -28 28 24 c15 14 27 26 27 28 0 8 -8 1 -31 -24z"/>
<path d="M5856 2361 c-11 -18 -134 -79 -228 -114 -51 -20 -156 -50 -233 -68
-131 -30 -278 -79 -300 -100 -5 -5 19 2 53 16 34 14 149 47 255 74 196 50 298
87 392 141 47 27 87 60 72 60 -3 0 -8 -4 -11 -9z"/>
<path d="M5250 2313 c-47 -20 -187 -71 -312 -113 -139 -47 -255 -93 -300 -119
-82 -47 -162 -111 -180 -144 -6 -12 16 3 50 34 86 78 209 138 422 209 188 62
395 144 406 161 3 5 4 9 2 8 -2 0 -41 -17 -88 -36z"/>
<path d="M1200 2310 c-8 -5 -10 -10 -5 -10 6 0 17 5 25 10 8 5 11 10 5 10 -5
0 -17 -5 -25 -10z"/>
<path d="M3440 2294 c-196 -90 -404 -156 -690 -220 -90 -20 -223 -83 -345
-163 -91 -61 -317 -167 -480 -227 -114 -42 -98 -44 26 -3 135 45 361 150 459
215 139 92 226 132 340 160 134 31 273 69 375 101 111 35 375 146 375 158 0 7
4 8 -60 -21z"/>
<path d="M2400 2235 c-14 -8 -20 -14 -15 -14 6 0 21 6 35 14 14 8 21 14 15 14
-5 0 -21 -6 -35 -14z"/>
<path d="M7780 2178 c-141 -123 -317 -217 -775 -413 -317 -136 -425 -175 -663
-241 -73 -20 -131 -39 -128 -41 8 -8 245 54 389 101 73 24 195 72 272 106 77
34 210 92 295 127 190 79 367 170 480 246 92 61 188 142 180 150 -3 3 -25 -13
-50 -35z"/>
<path d="M2266 2074 c-86 -45 -195 -85 -319 -116 -151 -38 -204 -63 -301 -144
-102 -85 -180 -129 -379 -215 -92 -39 -166 -74 -164 -76 4 -3 137 49 169 67
10 6 22 10 27 10 18 0 198 88 253 123 29 18 80 57 113 85 79 68 137 95 291
135 129 34 297 101 344 137 33 26 25 24 -34 -6z"/>
<path d="M4085 2081 c-88 -32 -217 -96 -325 -161 -217 -129 -432 -234 -725
-352 -130 -53 -161 -62 -245 -69 -104 -8 -127 -14 -211 -52 -80 -35 -180 -103
-300 -204 -159 -133 -210 -167 -353 -239 -144 -73 -183 -98 -331 -219 -85 -69
-393 -302 -475 -358 -13 -9 -20 -17 -14 -17 21 0 293 200 578 425 74 59 149
106 230 147 129 64 210 118 315 208 238 203 372 275 546 291 100 10 169 31
350 107 210 89 493 230 613 306 60 37 328 171 375 186 20 6 37 13 37 16 0 7
-13 4 -65 -15z"/>
<path d="M7710 1953 c-266 -175 -366 -224 -547 -268 -78 -19 -177 -48 -220
-63 -94 -35 -323 -135 -318 -140 1 -2 61 20 131 49 202 81 246 96 379 129 146
35 216 60 305 108 110 59 517 332 478 321 -2 0 -95 -61 -208 -136z"/>
<path d="M6850 2055 c-14 -8 -20 -14 -15 -14 6 0 21 6 35 14 14 8 21 14 15 14
-5 0 -21 -6 -35 -14z"/>
<path d="M6789 2030 c-44 -26 -402 -136 -617 -189 -294 -73 -390 -105 -524
-172 -153 -76 -385 -236 -513 -353 -22 -21 3 -3 56 38 250 195 487 332 679
392 46 14 190 53 319 85 238 60 481 136 581 182 30 14 51 26 45 26 -5 0 -17
-4 -26 -9z"/>
<path d="M4949 1902 c-86 -43 -162 -89 -205 -125 -82 -68 -534 -510 -517 -505
6 2 118 104 247 228 290 276 337 313 501 397 143 72 145 73 124 73 -8 0 -75
-31 -150 -68z"/>
<path d="M5850 1916 c-447 -121 -622 -215 -857 -462 -77 -80 -163 -161 -195
-181 -32 -20 -56 -38 -54 -40 13 -14 142 92 266 218 244 248 423 340 915 469
46 12 112 39 95 38 -8 0 -85 -19 -170 -42z"/>
<path d="M4421 1863 c-10 -26 -10 -27 4 -9 8 11 15 23 15 28 0 15 -7 8 -19
-19z"/>
<path d="M2573 1700 c-163 -63 -338 -157 -428 -229 -215 -171 -242 -188 -352
-231 -146 -57 -282 -132 -363 -201 l-25 -21 25 16 c162 104 213 130 363 190
118 47 154 69 272 166 55 46 123 98 152 116 57 37 276 148 363 184 30 13 59
27 65 32 13 11 8 10 -72 -22z"/>
<path d="M4275 1669 c-33 -27 -127 -95 -210 -151 -162 -111 -309 -243 -380
-343 -44 -62 -79 -125 -70 -125 2 0 13 17 24 38 31 60 147 198 215 254 34 29
101 80 150 113 145 99 279 200 310 234 42 44 30 38 -39 -20z"/>
<path d="M3754 1681 c-21 -16 -86 -70 -144 -120 -58 -50 -199 -155 -314 -234
-211 -143 -298 -212 -317 -251 -6 -11 11 2 38 29 28 28 116 96 197 150 258
176 319 221 426 316 58 52 119 104 135 116 17 12 27 23 24 23 -3 0 -24 -13
-45 -29z"/>
<path d="M6055 1466 c-38 -12 -115 -43 -169 -69 -101 -48 -309 -168 -302 -174
2 -2 38 17 81 42 111 66 307 158 403 190 45 15 82 29 82 31 0 8 -27 3 -95 -20z"/>
<path d="M6178 1473 c7 -3 16 -2 19 1 4 3 -2 6 -13 5 -11 0 -14 -3 -6 -6z"/>
<path d="M5463 1409 c-35 -22 -46 -37 -15 -20 22 13 58 40 52 41 -3 0 -20 -10
-37 -21z"/>
<path d="M5365 1344 c-88 -64 -174 -155 -290 -309 -62 -82 -157 -204 -210
-270 -91 -112 -144 -187 -175 -245 -19 -38 -7 -22 49 60 27 41 96 129 151 195
56 66 140 173 187 238 108 150 187 241 253 292 78 60 96 74 90 74 -3 0 -27
-16 -55 -35z"/>
<path d="M5910 1296 c-167 -59 -313 -157 -355 -237 -8 -14 -22 -57 -31 -94
-16 -63 -22 -73 -83 -129 -142 -132 -239 -233 -255 -266 -16 -34 -16 -34 1
-12 52 67 113 131 176 186 150 128 156 135 188 265 18 73 101 147 240 214 63
31 141 65 174 76 37 13 50 20 35 20 -14 1 -54 -10 -90 -23z"/>
<path d="M4507 1050 c-123 -116 -169 -182 -270 -390 -49 -101 -104 -207 -121
-235 -45 -71 -48 -75 -42 -75 11 0 90 139 166 291 111 220 135 256 258 382 58
59 103 107 100 107 -3 0 -44 -36 -91 -80z"/>
<path d="M5380 1052 c-57 -44 -85 -75 -121 -133 -25 -42 -99 -146 -162 -232
-182 -245 -285 -404 -400 -619 -65 -121 -22 -72 53 59 92 164 184 303 348 528
72 99 152 215 177 258 27 44 66 93 92 115 76 61 98 81 93 82 -3 0 -39 -26 -80
-58z"/>
<path d="M2950 1021 c-16 -40 -130 -148 -217 -206 -40 -26 -73 -50 -73 -52 0
-11 137 84 203 141 54 47 116 130 105 142 -3 2 -11 -9 -18 -25z"/>
<path d="M3180 1038 c0 -4 9 -22 20 -40 11 -18 20 -28 20 -23 0 6 -9 24 -20
40 -11 17 -20 27 -20 23z"/>
<path d="M3045 915 c-42 -48 -93 -105 -112 -128 -19 -23 -80 -89 -136 -147
-81 -83 -89 -93 -40 -51 35 29 127 126 205 214 177 203 172 197 166 197 -3 0
-40 -38 -83 -85z"/>
<path d="M2123 877 c-68 -46 -131 -91 -140 -100 -20 -20 233 147 257 169 26
25 6 13 -117 -69z"/>
<path d="M3180 913 c-14 -27 -76 -100 -139 -163 -62 -63 -125 -131 -140 -150
-113 -153 -221 -259 -413 -404 -43 -32 -78 -60 -78 -63 0 -8 45 23 166 113
119 89 207 177 300 302 32 42 110 131 174 197 113 117 165 185 158 205 -2 6
-14 -11 -28 -37z"/>
<path d="M3888 878 c-83 -94 -98 -117 -137 -213 -45 -111 -72 -154 -160 -259
-131 -156 -231 -294 -231 -319 0 -5 22 24 49 64 26 41 87 119 134 174 128 148
172 211 207 299 17 43 38 93 47 110 16 30 83 122 120 161 29 32 46 55 40 55
-3 0 -34 -33 -69 -72z"/>
<path d="M3601 834 c-4 -60 -58 -133 -243 -320 -103 -105 -188 -194 -188 -197
0 -3 87 81 194 186 152 152 199 204 220 249 16 31 26 67 23 80 -4 20 -4 20 -6
2z"/>
<path d="M4523 766 c-65 -75 -147 -194 -261 -383 -106 -175 -141 -225 -226
-327 -48 -58 -41 -73 9 -18 88 98 122 148 253 372 84 143 171 274 239 358 45
55 35 54 -14 -2z"/>
<path d="M2669 523 c-13 -16 -12 -17 4 -4 16 13 21 21 13 21 -2 0 -10 -8 -17
-17z"/>
<path d="M2305 406 c-28 -19 -77 -57 -110 -85 -33 -28 -133 -110 -223 -182
-89 -73 -160 -134 -158 -137 6 -5 98 65 255 197 190 159 246 205 271 223 14 9
23 17 20 17 -3 1 -28 -14 -55 -33z"/>
</g>
</svg>
