<?xml version="1.0" standalone="no"?>
<!DOCTYPE svg PUBLIC "-//W3C//DTD SVG 20010904//EN"
 "http://www.w3.org/TR/2001/REC-SVG-20010904/DTD/svg10.dtd">
<svg version="1.0" xmlns="http://www.w3.org/2000/svg"
 width="1024.000000pt" height="559.000000pt" viewBox="0 0 1024.000000 559.000000"
 preserveAspectRatio="xMidYMid meet">
<metadata>
Created by potrace 1.16, written by Peter Selinger 2001-2019
</metadata>
<g transform="translate(0.000000,559.000000) scale(0.100000,-0.100000)"
fill="#000000" stroke="none">
<path d="M6645 4909 c-179 -99 -314 -160 -500 -224 -104 -36 -194 -67 -199
-68 -5 -1 -12 9 -16 23 -6 23 -11 25 -51 22 -48 -3 -171 -41 -259 -80 -67 -29
-213 -116 -230 -137 -17 -20 -30 -19 -30 3 0 11 -9 27 -20 37 -19 17 -22 16
-92 -25 -40 -24 -130 -73 -199 -110 -70 -37 -153 -86 -186 -109 -32 -22 -64
-41 -71 -41 -6 0 -18 16 -26 35 -8 19 -22 35 -30 35 -16 0 -142 -78 -283 -176
-122 -84 -206 -165 -302 -293 -47 -63 -92 -117 -99 -119 -8 -2 -35 19 -62 47
-26 28 -52 51 -57 51 -14 0 -278 -272 -320 -330 -60 -84 -102 -165 -118 -227
-8 -31 -17 -59 -21 -62 -3 -3 -16 7 -28 22 -14 18 -28 26 -38 22 -19 -8 -70
-110 -92 -183 -28 -95 -48 -262 -41 -336 l6 -69 -25 5 c-40 8 -47 -10 -31 -84
35 -170 151 -380 290 -527 131 -138 259 -226 465 -320 157 -71 241 -122 288
-176 38 -43 72 -117 72 -155 0 -29 -147 -312 -215 -415 -37 -55 -93 -133 -126
-172 -64 -79 -71 -101 -38 -122 29 -17 115 -16 144 3 46 30 169 244 259 452
97 225 102 233 154 257 39 18 65 22 147 21 93 0 114 -5 320 -66 369 -110 433
-122 695 -122 192 0 212 1 315 28 106 27 225 80 225 100 0 6 -11 22 -25 36
l-25 26 53 19 c68 24 181 80 237 118 91 62 270 253 270 289 0 5 -20 18 -45 29
l-45 20 88 87 c91 90 152 185 152 236 0 21 -6 28 -29 32 l-30 6 39 57 c73 109
123 237 155 398 21 105 18 147 -12 151 -13 2 -23 5 -23 7 0 2 7 30 15 62 13
47 14 94 9 252 l-7 193 -47 -6 -47 -6 -1 77 c0 78 -13 131 -35 145 -7 4 -24 8
-39 8 l-28 0 0 80 c0 43 -4 101 -9 127 -5 26 -12 65 -16 86 -5 30 -10 37 -29
37 -23 0 -24 2 -28 120 -4 106 -7 122 -26 143 -20 21 -22 34 -22 133 0 112 13
210 55 419 30 153 37 231 21 244 -8 7 -39 -5 -101 -40z m-2 -111 c-110 -187
-291 -476 -371 -593 -194 -283 -336 -485 -341 -485 -3 0 -6 51 -6 113 0 61 -4
164 -9 227 -9 119 0 207 31 318 22 77 9 88 -14 12 -47 -151 -50 -219 -27 -532
12 -159 5 -177 -177 -418 -138 -183 -258 -337 -293 -377 -8 -9 -11 22 -12 115
-1 98 -8 159 -30 267 -26 125 -29 160 -29 325 0 193 12 290 55 430 22 73 25
89 11 74 -26 -26 -77 -253 -96 -427 l-7 -58 -69 108 c-45 69 -78 134 -93 183
-15 44 -25 65 -25 49 -2 -45 40 -148 92 -227 76 -116 94 -164 111 -292 9 -63
25 -164 36 -225 20 -113 25 -278 11 -351 -5 -28 -32 -73 -92 -150 l-84 -109
-7 70 c-3 39 -21 113 -39 165 -18 52 -41 127 -51 165 l-18 70 5 -57 c3 -31 21
-105 41 -165 27 -79 38 -131 42 -193 l4 -86 -74 -99 c-41 -55 -100 -137 -132
-182 -32 -46 -61 -85 -64 -87 -4 -2 -8 46 -8 107 -2 166 -17 228 -125 519 -39
103 -59 172 -59 200 0 42 21 106 95 296 20 52 35 104 33 115 -3 15 -9 4 -21
-35 -9 -31 -40 -109 -67 -173 -28 -64 -50 -128 -50 -141 0 -41 -16 -26 -28 26
-37 159 -39 374 -6 580 17 110 14 157 -5 70 -12 -58 -38 -240 -43 -303 l-3
-39 -45 63 c-54 76 -67 98 -97 169 -23 53 -24 53 -18 15 8 -49 35 -102 92
-183 56 -78 73 -120 73 -175 0 -103 52 -309 122 -484 103 -258 133 -396 126
-571 -4 -102 -6 -112 -38 -163 -157 -252 -236 -387 -310 -526 l-87 -162 -11
90 c-16 119 -55 221 -175 462 -99 200 -100 203 -105 287 -3 70 1 108 26 215
17 72 36 162 44 200 17 89 18 359 1 376 -9 9 -10 -14 -6 -97 7 -128 -5 -229
-53 -446 -19 -86 -34 -181 -34 -210 l-1 -53 -20 37 c-30 59 -114 321 -142 448
-28 128 -44 248 -57 450 -8 131 -8 129 -5 -65 4 -209 14 -296 59 -472 14 -56
26 -105 26 -108 0 -4 -18 9 -40 28 -21 20 -59 48 -82 63 -70 44 -158 134 -210
214 -27 41 -47 64 -43 50 23 -82 128 -204 242 -281 77 -52 132 -104 150 -141
7 -13 31 -72 55 -133 23 -60 90 -204 148 -320 57 -115 107 -214 109 -220 2 -5
-16 8 -40 30 -93 86 -149 117 -396 220 -197 82 -288 133 -367 206 -68 62 -75
52 -8 -12 92 -89 152 -123 415 -235 177 -75 261 -123 344 -198 95 -87 144
-216 143 -383 -1 -66 -5 -87 -30 -133 -24 -46 -29 -52 -35 -35 -42 117 -103
175 -275 257 -250 120 -276 134 -348 186 -188 134 -302 268 -404 474 -32 65
-88 230 -88 258 0 5 14 10 31 12 l32 3 2 130 c2 149 28 277 75 382 l30 65 35
-31 c44 -38 53 -39 61 -3 39 173 96 265 293 465 l135 137 29 -35 c32 -39 82
-69 102 -61 7 2 54 58 103 123 97 129 180 212 288 286 91 64 266 177 273 177
4 0 13 -15 21 -33 21 -46 47 -45 121 6 35 24 114 70 174 102 61 32 147 80 193
108 46 27 84 47 86 46 1 -2 6 -17 12 -34 5 -16 16 -31 24 -33 9 -1 42 18 76
42 82 62 242 140 348 170 113 33 124 33 128 -1 4 -37 11 -36 203 31 220 78
331 125 465 201 63 35 118 64 122 65 4 0 -23 -51 -59 -112z m81 55 c-4 -27
-19 -111 -34 -188 -37 -181 -53 -325 -49 -424 4 -67 8 -83 27 -101 20 -19 22
-30 22 -133 0 -119 4 -133 35 -138 26 -5 45 -93 49 -229 l3 -105 41 -3 c37 -3
42 -7 52 -38 7 -19 10 -69 9 -112 l-3 -77 49 3 50 2 3 -184 c3 -153 1 -194
-14 -239 -19 -61 -14 -87 15 -87 11 0 23 -4 26 -10 10 -15 -45 -239 -80 -327
-17 -45 -56 -119 -85 -163 -55 -84 -59 -110 -15 -110 35 0 32 -24 -12 -97 -45
-73 -80 -112 -156 -177 -31 -27 -57 -53 -57 -58 0 -5 20 -18 45 -29 25 -11 45
-24 45 -29 0 -13 -70 -99 -126 -154 -97 -96 -264 -194 -381 -225 -48 -13 -56
-36 -23 -66 11 -10 20 -22 20 -26 0 -14 -109 -59 -192 -79 -130 -30 -283 -41
-417 -30 -204 18 -309 40 -571 121 -74 23 -160 48 -190 56 -75 20 -224 20
-277 1 -24 -9 -43 -14 -43 -12 0 3 13 31 30 64 30 60 61 87 162 143 110 61
330 106 451 92 79 -8 140 -37 294 -136 137 -88 243 -139 342 -165 101 -25 93
-10 -13 25 -120 39 -170 64 -309 153 -60 38 -134 83 -165 99 l-57 29 70 -8
c39 -4 189 -7 335 -7 282 0 327 5 540 61 116 30 240 75 240 87 0 5 -7 6 -16 3
-211 -81 -499 -137 -702 -136 l-97 1 45 24 c25 12 90 62 145 110 107 93 184
148 253 179 23 10 42 23 42 27 0 15 -112 -40 -180 -87 -36 -25 -103 -79 -150
-120 -101 -89 -174 -128 -239 -127 -25 0 -127 6 -226 12 -275 19 -444 -7 -617
-94 -62 -31 -85 -39 -80 -27 43 102 237 450 327 586 84 128 193 201 413 276
80 27 102 31 150 25 77 -9 154 -29 291 -76 214 -73 349 -99 521 -99 104 0 295
22 308 35 4 4 -33 3 -83 -1 -49 -5 -160 -8 -245 -8 -186 2 -272 18 -510 98
-91 30 -187 58 -215 62 -64 9 -50 15 115 49 249 53 406 103 559 180 93 47 153
53 291 30 108 -18 209 -16 264 5 44 16 29 18 -54 7 -54 -7 -100 -6 -165 3 -49
6 -118 14 -153 17 l-62 5 120 74 c149 91 251 166 314 232 72 74 79 97 10 30
-76 -74 -141 -122 -294 -217 -134 -84 -300 -176 -300 -167 0 3 13 24 29 48 16
24 51 89 79 145 27 56 70 132 96 168 25 36 41 65 36 65 -19 0 -96 -117 -168
-256 -43 -84 -88 -155 -110 -177 -58 -57 -213 -106 -583 -187 -221 -48 -385
-106 -506 -181 -18 -12 -33 -18 -33 -14 0 8 77 119 229 329 138 191 144 194
351 225 123 18 242 51 254 70 3 4 -30 -2 -73 -15 -44 -13 -108 -26 -143 -30
-82 -8 -194 -31 -219 -44 -10 -6 -19 -8 -19 -5 0 14 258 362 294 397 48 46
139 85 311 133 72 20 174 58 230 85 55 27 131 56 169 64 69 16 156 50 156 60
0 3 -17 -1 -37 -9 -43 -16 -163 -45 -163 -39 0 2 18 20 40 40 44 40 126 141
154 189 11 19 2 12 -26 -20 -141 -162 -232 -237 -344 -285 -27 -12 -117 -41
-201 -65 -83 -25 -175 -55 -202 -69 -28 -13 -51 -22 -51 -20 0 2 25 37 55 78
30 41 106 152 169 248 63 95 122 181 133 190 23 21 125 71 178 88 78 24 182
81 231 126 54 50 47 48 -38 -10 -32 -21 -117 -63 -190 -93 -73 -30 -140 -57
-148 -61 -13 -5 -13 -2 1 18 9 14 49 77 89 140 40 63 96 151 125 195 29 44 99
161 155 260 200 347 222 385 226 385 2 0 1 -21 -2 -47z m-770 -1162 c-32 -54
-240 -347 -539 -756 -317 -435 -478 -670 -621 -905 -87 -144 -343 -655 -444
-885 -70 -160 -154 -323 -210 -404 -36 -53 -52 -68 -81 -75 -41 -10 -89 -1
-89 16 0 6 24 41 54 77 113 140 190 272 381 656 337 680 490 911 1231 1860 68
88 170 224 227 303 100 139 125 171 91 113z"/>
</g>
</svg>
