<?xml version="1.0" standalone="no"?>
<!DOCTYPE svg PUBLIC "-//W3C//DTD SVG 20010904//EN"
 "http://www.w3.org/TR/2001/REC-SVG-20010904/DTD/svg10.dtd">
<svg version="1.0" xmlns="http://www.w3.org/2000/svg"
 width="1024.000000pt" height="559.000000pt" viewBox="0 0 1024.000000 559.000000"
 preserveAspectRatio="xMidYMid meet">
<metadata>
Created by potrace 1.16, written by Peter Selinger 2001-2019
</metadata>
<g transform="translate(0.000000,559.000000) scale(0.100000,-0.100000)"
fill="#000000" stroke="none">
<path d="M6431 4813 c-90 -54 -182 -145 -217 -218 -27 -58 -28 -66 -32 -235
-3 -168 -4 -178 -34 -253 -17 -43 -33 -76 -35 -73 -3 3 0 20 6 38 35 101 20
252 -36 348 -52 88 -192 216 -213 194 -15 -16 -38 -99 -51 -181 -21 -140 12
-244 121 -373 77 -92 104 -148 96 -201 -6 -37 -112 -327 -126 -342 -3 -4 0 28
8 70 8 45 11 112 9 158 -9 143 -62 242 -179 330 -65 49 -187 115 -212 115 -23
0 -27 -27 -27 -165 1 -243 36 -313 240 -468 68 -52 100 -106 101 -167 0 -19
-22 -102 -49 -185 -26 -82 -52 -166 -57 -185 -7 -28 -10 -9 -14 90 -5 114 -8
131 -37 193 -44 92 -117 162 -224 215 -99 49 -147 61 -160 41 -13 -21 -11 -94
7 -194 29 -168 68 -229 211 -326 136 -93 169 -147 146 -243 -6 -22 -33 -129
-61 -236 -27 -107 -64 -265 -81 -350 -16 -85 -39 -198 -50 -250 -16 -81 -95
-297 -116 -318 -12 -12 16 483 41 698 18 163 62 470 74 525 21 91 -5 105 -43
23 -157 -334 -278 -818 -303 -1216 -7 -105 -16 -115 -29 -32 -3 25 -23 112
-43 195 l-36 149 12 296 c29 700 90 1217 192 1610 12 48 16 78 10 84 -15 15
-22 4 -94 -134 -86 -165 -175 -376 -242 -575 -52 -154 -114 -384 -114 -421 0
-30 -16 -3 -35 61 -50 167 -174 473 -266 656 -130 260 -319 538 -319 470 0 -6
22 -65 49 -133 90 -226 188 -531 251 -783 47 -188 48 -179 -14 -110 -80 88
-81 62 -8 -158 34 -100 79 -252 101 -337 45 -172 93 -391 88 -396 -2 -2 -21
40 -42 94 -41 106 -99 227 -160 337 -115 208 -365 513 -365 446 0 -5 25 -65
56 -133 120 -263 209 -511 264 -727 44 -171 119 -533 113 -540 -2 -3 -11 6
-20 20 -9 13 -47 56 -84 94 -50 53 -68 79 -74 109 -19 110 -116 415 -195 616
-180 456 -410 830 -693 1125 -75 78 -99 97 -108 88 -10 -10 -3 -27 33 -80 154
-233 315 -580 423 -915 66 -206 221 -825 210 -837 -2 -1 -23 35 -46 80 -164
327 -410 617 -658 776 -56 36 -144 83 -155 83 -18 0 2 -31 73 -108 238 -259
431 -598 577 -1009 24 -68 42 -123 40 -123 -2 0 -27 31 -55 69 -66 88 -215
231 -313 298 -41 29 -115 72 -164 97 -86 44 -285 116 -318 116 -32 0 -15 -29
37 -60 137 -84 332 -265 443 -410 158 -207 283 -468 354 -738 12 -42 23 -85
26 -94 5 -16 -12 -18 -232 -20 -179 -2 -238 -6 -242 -16 -3 -10 354 -12 1780
-10 1180 2 1783 6 1783 13 0 6 -91 11 -247 13 -216 2 -248 4 -248 18 0 20 79
213 126 306 100 201 256 418 415 577 106 107 117 133 43 107 -65 -23 -224
-104 -299 -154 -82 -54 -293 -262 -349 -345 -22 -31 -41 -55 -43 -53 -5 5 114
271 187 415 200 401 455 775 707 1043 102 107 80 116 -84 34 -223 -112 -427
-266 -581 -440 -125 -139 -247 -316 -326 -471 -20 -38 -36 -62 -36 -53 0 22
154 487 209 631 139 362 327 722 532 1015 81 115 99 160 56 136 -19 -11 -122
-111 -197 -190 -254 -271 -505 -668 -726 -1151 -94 -206 -229 -578 -286 -786
-12 -45 -23 -77 -24 -72 -2 6 -8 73 -14 150 -6 77 -15 168 -21 202 -10 56 -8
68 16 140 82 238 212 521 365 790 44 78 80 146 80 152 0 32 -48 -5 -194 -151
-189 -190 -319 -361 -444 -583 -8 -14 -11 -16 -12 -5 0 29 62 318 111 510 74
291 82 299 319 310 131 6 150 9 195 33 81 43 196 161 241 248 20 39 13 47 -62
63 -252 57 -402 0 -536 -203 -26 -40 -48 -69 -48 -63 0 35 133 409 152 430 45
47 74 55 167 47 48 -5 124 -9 171 -9 77 -1 92 2 150 31 107 53 281 229 266
268 -13 34 -190 78 -311 78 -76 0 -99 -4 -149 -27 -85 -38 -138 -86 -198 -176
-29 -44 -54 -78 -56 -76 -8 8 122 319 145 346 35 42 104 60 232 60 96 0 112 3
168 29 34 16 83 49 109 73 48 43 144 180 144 203 0 21 -29 27 -151 32 -90 4
-127 2 -174 -11 -81 -24 -165 -84 -216 -155 -24 -33 -47 -60 -51 -60 -4 -1 7
29 24 67 36 79 75 123 179 203 97 73 143 127 171 198 18 48 21 75 21 181 -1
132 -10 183 -34 188 -8 1 -43 -15 -78 -35z m73 -18 c14 -38 18 -173 6 -230
-18 -87 -45 -137 -103 -194 -59 -57 -146 -125 -153 -119 -2 3 25 67 60 144 70
155 81 184 69 184 -9 0 -153 -282 -153 -300 0 -5 -5 -12 -11 -16 -8 -5 -10 30
-7 127 4 120 7 140 31 189 31 65 97 134 182 190 68 45 71 46 79 25z m-535
-284 c112 -113 149 -214 132 -365 -5 -44 -14 -92 -19 -106 -9 -24 -10 -23 -16
15 -17 105 -86 305 -107 305 -4 0 6 -39 22 -87 45 -130 75 -283 57 -283 -4 0
-8 3 -8 8 0 4 -27 39 -60 77 -33 39 -74 98 -92 133 -27 55 -31 73 -31 146 0
83 28 226 44 226 4 0 39 -31 78 -69z m720 -316 c14 -14 -33 -84 -101 -153 -72
-74 -135 -104 -223 -109 -38 -2 -98 -5 -132 -7 -40 -2 -60 0 -57 6 14 23 128
87 217 122 102 40 124 66 34 39 -54 -16 -201 -85 -227 -107 -60 -51 -34 3 43
90 52 58 112 98 180 120 48 16 250 15 266 -1z m-1037 -92 c35 -21 93 -67 129
-103 88 -87 113 -148 113 -280 0 -52 -3 -113 -8 -135 l-8 -40 -27 85 c-41 127
-163 350 -191 350 -15 0 -14 -2 43 -97 69 -114 102 -187 127 -276 28 -102 26
-107 -22 -61 -24 23 -71 62 -105 88 -123 92 -154 165 -161 370 l-5 149 26 -7
c14 -3 54 -23 89 -43z m-1282 -388 c139 -244 281 -574 365 -851 35 -114 36
-121 25 -186 l-12 -68 -50 78 c-28 42 -71 103 -96 136 -42 54 -48 70 -82 215
-64 267 -140 520 -234 776 -23 61 -23 67 -6 47 10 -13 51 -79 90 -147z m786
-11 c-81 -390 -127 -841 -152 -1488 l-6 -148 -55 133 -54 134 11 130 c14 166
43 378 79 573 15 84 24 155 20 157 -17 11 -88 -383 -115 -643 l-18 -163 -43
83 c-50 96 -51 110 -23 269 51 293 170 657 315 967 32 67 60 121 62 119 2 -2
-8 -57 -21 -123z m1358 15 c111 -28 114 -30 87 -67 -40 -57 -176 -175 -231
-201 -61 -29 -122 -32 -305 -15 l-100 9 62 41 c74 50 164 86 297 119 106 26
127 35 78 35 -84 0 -259 -54 -360 -111 -58 -32 -58 -31 -1 46 48 67 102 113
163 141 69 31 194 32 310 3z m-1058 -230 c70 -33 155 -105 189 -159 38 -60 55
-135 55 -239 l0 -96 -37 85 c-40 95 -106 200 -152 244 -17 17 -31 26 -31 22 0
-4 31 -54 68 -110 61 -91 122 -218 122 -255 0 -8 -15 0 -35 18 -19 17 -61 47
-92 67 -32 20 -71 48 -86 63 -70 64 -117 198 -117 333 l0 78 28 -11 c15 -6 55
-24 88 -40z m-1889 -129 c299 -371 530 -844 689 -1405 19 -66 34 -124 34 -128
0 -5 -14 1 -31 14 -54 38 -50 8 12 -96 33 -55 66 -122 74 -150 29 -101 125
-710 125 -797 0 -27 -1 -28 -59 -28 -67 0 -63 -5 -76 110 -54 484 -182 1074
-322 1483 -51 150 -91 247 -93 222 0 -6 22 -76 49 -155 166 -487 277 -993 349
-1588 l9 -73 -26 3 c-23 3 -26 8 -29 43 -12 166 -77 452 -156 690 -40 118 -79
266 -106 390 -142 674 -279 1075 -520 1515 -62 113 -46 102 77 -50z m3310 18
c-47 -67 -203 -328 -257 -428 -183 -345 -387 -885 -490 -1300 -11 -47 -41
-139 -65 -205 -75 -202 -175 -578 -175 -656 0 -15 -7 -19 -35 -19 -41 0 -40
-6 -16 130 75 409 161 729 306 1136 30 85 55 158 55 161 0 20 -22 -21 -50 -92
-131 -328 -246 -737 -321 -1140 -17 -93 -33 -176 -35 -183 -2 -8 -23 -12 -60
-12 l-57 0 7 63 c9 76 85 422 127 572 93 336 222 664 404 1025 182 360 364
632 593 888 72 80 100 104 69 60z m-572 -209 c22 -5 46 -12 53 -14 33 -11
-138 -203 -218 -246 -39 -20 -64 -24 -195 -29 -82 -4 -151 -6 -153 -4 -10 6
157 106 224 134 43 18 94 39 113 46 53 22 29 28 -36 9 -76 -22 -185 -73 -250
-118 -29 -20 -53 -33 -53 -30 0 18 98 148 134 177 78 65 139 86 246 86 52 0
113 -5 135 -11z m-1735 -355 c360 -475 547 -1078 576 -1857 l7 -188 -49 3
c-48 3 -49 4 -51 38 -17 242 -69 618 -119 850 -50 235 -144 562 -165 576 -7 4
-9 0 -6 -12 3 -11 22 -73 41 -139 78 -266 146 -585 181 -855 23 -178 45 -388
45 -426 0 -34 0 -34 -48 -34 l-48 0 -13 78 c-20 127 -58 323 -152 797 -134
669 -185 887 -274 1161 -25 78 -45 146 -45 150 1 11 32 -26 120 -142z m-305
-66 c123 -163 255 -413 330 -629 36 -104 36 -104 26 -194 -10 -81 -31 -383
-31 -445 l0 -25 -20 30 c-11 17 -23 46 -26 65 -87 513 -197 899 -363 1264 -49
107 -46 105 84 -66z m1165 5 c-9 -41 -43 -299 -60 -453 -17 -165 -30 -368 -36
-580 -5 -177 -10 -221 -34 -325 -16 -66 -34 -156 -41 -200 -22 -142 -32 -111
-24 80 4 99 13 261 19 360 7 99 11 182 9 184 -21 27 -45 -303 -48 -674 -3
-399 -1 -375 -18 -375 -11 0 -15 41 -20 188 -4 103 -12 228 -17 277 -40 357
56 996 213 1418 50 133 73 175 57 100z m1739 -72 c-13 -16 -61 -73 -107 -127
-96 -114 -221 -284 -314 -429 -245 -380 -508 -954 -604 -1315 -9 -33 -12 -35
-57 -38 -57 -4 -56 -7 -21 126 120 451 297 828 590 1257 58 84 66 100 35 66
-89 -95 -243 -329 -350 -532 -132 -252 -258 -596 -325 -891 -6 -25 -10 -28
-51 -28 -53 0 -52 -5 -24 133 58 283 161 583 290 839 181 361 402 618 713 829
65 44 230 138 245 139 2 0 -7 -13 -20 -29z m-1123 -93 c-233 -417 -409 -878
-501 -1313 -36 -170 -85 -445 -85 -477 0 -27 -2 -28 -50 -28 l-50 0 5 43 c49
442 110 694 254 1055 30 76 9 64 -27 -15 -109 -240 -210 -639 -243 -965 l-12
-118 -49 0 -49 0 5 52 c3 29 8 85 11 123 17 197 70 449 135 645 124 376 317
697 587 978 54 56 102 102 107 102 4 0 -13 -37 -38 -82z m-2728 23 c229 -158
451 -432 619 -761 149 -293 269 -698 299 -1007 l7 -73 -40 0 -40 0 -12 78
c-38 246 -106 509 -183 712 -37 94 -108 244 -114 238 -2 -3 22 -72 55 -154 66
-167 130 -364 161 -499 28 -120 60 -302 60 -342 0 -32 -1 -33 -43 -33 l-44 0
-17 88 c-38 197 -144 590 -208 777 -120 348 -303 687 -504 937 -35 43 -61 78
-58 78 3 0 31 -18 62 -39z m-106 -632 c222 -97 422 -260 560 -454 86 -120 117
-208 198 -563 44 -191 44 -192 31 -192 -5 0 -15 26 -21 58 -22 104 -91 295
-152 419 -59 120 -154 270 -165 259 -3 -3 12 -33 34 -68 106 -169 192 -362
239 -536 14 -53 28 -105 30 -114 5 -15 -2 -18 -44 -18 l-50 0 -18 73 c-114
468 -359 860 -709 1132 -27 21 -54 43 -60 48 -16 14 31 -2 127 -44z m1488
-144 c61 -302 56 -246 52 -535 l-2 -175 -50 114 c-27 62 -57 125 -66 139 -15
22 -16 45 -10 171 10 230 33 472 42 446 2 -5 17 -77 34 -160z m-275 -205 c117
-144 222 -327 288 -505 33 -88 87 -291 87 -327 0 -25 -4 -28 -33 -28 l-34 0
-17 88 c-20 103 -82 309 -96 317 -14 9 -12 -17 5 -58 23 -55 85 -306 85 -344
0 -2 -18 -3 -40 -3 -46 0 -43 -5 -60 105 -40 276 -126 540 -251 773 -27 51
-49 95 -49 99 0 11 59 -49 115 -117z m2476 15 c-79 -84 -216 -263 -280 -368
-64 -104 -144 -270 -191 -394 l-43 -113 -49 0 c-35 0 -48 4 -48 14 0 53 129
326 212 448 21 32 41 66 45 75 6 16 5 17 -12 3 -53 -43 -197 -305 -250 -457
l-30 -83 -42 0 c-51 0 -52 1 -17 106 35 110 124 283 197 384 75 104 219 250
309 313 64 46 244 146 262 147 5 0 -24 -34 -63 -75z m-1191 -145 c16 -192 10
-336 -24 -488 -15 -68 -30 -148 -34 -179 -4 -31 -12 -58 -18 -60 -7 -2 -13 53
-17 174 -4 98 -11 224 -17 279 -9 90 -8 111 10 190 29 125 73 256 81 242 3 -7
12 -78 19 -158z m-1236 -193 c54 -159 116 -435 116 -514 0 -22 -3 -24 -42 -21
l-43 3 -7 60 c-20 170 -73 523 -93 623 -12 54 31 -39 69 -151z m400 -363 c33
-181 33 -176 -6 -172 -31 3 -31 4 -50 93 -10 50 -23 104 -29 120 -13 37 -25
371 -14 411 7 30 27 -59 99 -452z m712 9 l7 -183 -51 0 c-44 0 -52 3 -52 19 0
21 21 147 52 311 20 107 22 112 29 75 4 -22 11 -122 15 -222z"/>
</g>
</svg>
