<?xml version="1.0" standalone="no"?>
<!DOCTYPE svg PUBLIC "-//W3C//DTD SVG 20010904//EN"
 "http://www.w3.org/TR/2001/REC-SVG-20010904/DTD/svg10.dtd">
<svg version="1.0" xmlns="http://www.w3.org/2000/svg"
 width="1024.000000pt" height="559.000000pt" viewBox="0 0 1024.000000 559.000000"
 preserveAspectRatio="xMidYMid meet">
<metadata>
Created by potrace 1.16, written by Peter Selinger 2001-2019
</metadata>
<g transform="translate(0.000000,559.000000) scale(0.100000,-0.100000)"
fill="#000000" stroke="none">
<path d="M5020 5027 c0 -8 15 -40 34 -70 40 -68 75 -173 86 -259 23 -200 -63
-403 -237 -556 -140 -123 -217 -235 -259 -380 l-21 -76 -26 41 c-79 125 -76
310 9 503 18 41 31 76 29 78 -20 21 -201 -159 -256 -255 -79 -135 -119 -270
-119 -397 0 -35 12 -133 27 -218 43 -249 37 -365 -25 -509 -31 -70 -39 -67
-29 12 20 160 -41 344 -153 458 -63 64 -98 80 -85 39 38 -118 46 -167 41 -236
-8 -101 -39 -186 -150 -412 -108 -218 -140 -308 -156 -435 -29 -237 69 -521
249 -718 29 -31 48 -57 42 -57 -6 0 -74 9 -151 20 -78 11 -152 17 -166 14 -35
-9 -79 -73 -94 -135 -24 -99 6 -220 60 -246 14 -6 113 -17 220 -24 288 -17
284 -15 153 -68 -241 -98 -263 -115 -263 -208 0 -127 149 -283 292 -307 33 -6
54 2 175 65 288 149 411 215 498 265 50 29 91 51 93 49 1 -1 -14 -51 -33 -111
-42 -127 -45 -170 -16 -217 25 -41 113 -90 189 -106 112 -23 275 -6 345 38 66
40 70 55 80 276 5 110 11 202 13 204 2 2 34 -21 71 -51 37 -30 84 -65 103 -78
19 -13 110 -79 201 -147 l167 -123 60 0 c99 0 313 75 346 121 9 13 16 43 16
67 0 38 -5 50 -40 84 -39 39 -39 40 -12 34 78 -17 180 -29 204 -23 54 14 109
150 107 266 -1 81 -18 132 -50 148 -13 6 -89 18 -169 27 -161 18 -290 37 -290
43 0 2 32 34 71 70 126 119 204 251 254 428 23 83 28 120 29 220 1 146 3 136
-127 560 -26 85 -30 117 -31 215 -1 128 11 180 71 313 20 42 33 80 30 84 -4 3
-26 -2 -49 -13 -58 -26 -178 -145 -218 -217 -18 -32 -34 -57 -36 -55 -1 2 4
46 12 98 40 271 6 407 -171 674 -121 183 -141 233 -132 338 7 79 -6 89 -47 35
-67 -88 -77 -168 -41 -342 29 -139 29 -208 1 -263 -29 -55 -79 -51 -116 11
-16 25 -20 50 -20 115 0 98 -10 104 -71 43 -35 -34 -39 -36 -39 -17 0 12 11
60 24 106 82 283 71 484 -38 705 -80 162 -225 326 -379 428 -70 47 -87 53 -87
34z m115 -88 c170 -129 311 -319 376 -509 31 -90 33 -103 33 -240 0 -135 -2
-154 -36 -285 -20 -77 -40 -169 -43 -205 -13 -124 41 -283 121 -361 44 -43 43
-25 -2 42 -56 82 -84 159 -84 229 0 66 26 132 59 149 17 10 19 5 23 -58 8
-114 68 -184 137 -160 76 27 96 158 52 339 -26 109 -24 206 5 262 l18 33 8
-63 c11 -84 48 -163 140 -297 176 -257 206 -391 157 -700 -21 -140 -26 -333
-9 -400 35 -145 -19 -303 -131 -381 -48 -33 -35 -45 15 -14 114 70 166 206
143 370 -26 180 -2 307 85 435 46 70 115 142 156 164 20 11 19 7 -8 -58 -34
-85 -60 -204 -60 -280 1 -76 28 -195 89 -383 65 -202 85 -314 77 -432 -22
-314 -190 -575 -473 -735 -40 -22 -101 -52 -136 -65 l-64 -24 -47 26 c-46 25
-47 27 -24 35 74 29 149 71 183 102 44 40 36 38 -41 -11 -54 -35 -102 -56
-148 -68 -27 -7 -24 -2 35 61 94 101 150 227 165 376 9 85 -7 89 -56 10 -50
-78 -129 -147 -223 -193 -45 -21 -83 -38 -85 -36 -2 2 4 19 13 36 32 63 46
127 54 260 7 98 15 151 31 193 24 63 21 88 -4 38 -27 -52 -46 -142 -46 -221
-1 -170 -50 -292 -162 -401 -40 -38 -67 -69 -61 -69 16 0 100 67 122 98 12 17
37 33 63 41 88 26 182 84 256 159 79 80 78 81 45 -37 -27 -99 -71 -172 -153
-253 -77 -76 -154 -122 -263 -158 -36 -11 -40 -10 -54 9 -69 100 -215 140
-330 90 -62 -27 -81 -44 -104 -98 l-19 -43 -44 40 c-55 50 -86 67 -157 81
-131 27 -301 228 -375 446 -24 70 -28 96 -28 205 -1 182 28 266 171 497 77
125 115 206 133 282 10 42 15 50 22 37 20 -35 21 -162 3 -261 -22 -124 -17
-179 26 -263 41 -79 63 -90 74 -35 14 75 56 141 147 230 100 98 127 135 151
207 26 76 21 169 -15 314 -54 211 -42 335 42 457 18 25 33 45 35 43 2 -2 -2
-27 -7 -56 -22 -111 13 -216 129 -389 163 -243 197 -409 127 -633 -64 -206
-77 -290 -46 -290 41 0 139 58 189 113 65 71 93 144 100 255 l6 83 29 -43
c108 -159 157 -377 123 -541 -9 -43 -19 -85 -22 -94 -4 -11 -2 -14 5 -9 43 26
61 291 27 416 -33 125 -132 302 -186 331 -25 13 -29 0 -17 -52 14 -61 4 -178
-20 -233 -28 -62 -103 -140 -165 -171 -48 -24 -52 -24 -55 -8 -3 19 16 91 62
248 22 74 27 110 27 201 1 164 -29 245 -161 444 -129 194 -154 291 -110 432
11 34 20 64 20 66 0 1 -6 2 -14 2 -8 0 -35 -23 -61 -52 -123 -137 -146 -279
-85 -518 28 -106 32 -137 28 -214 -5 -118 -30 -165 -147 -278 -86 -84 -151
-181 -151 -227 0 -33 -18 -24 -41 21 -30 59 -35 139 -14 254 21 120 16 206
-16 271 -33 65 -46 65 -54 1 -12 -88 -47 -168 -147 -334 -52 -87 -107 -190
-122 -227 -31 -78 -56 -196 -56 -266 0 -139 61 -324 147 -444 19 -27 32 -51
30 -53 -9 -10 -155 97 -204 149 -110 116 -191 280 -208 421 -4 31 -12 59 -17
63 -7 4 -8 -14 -3 -52 31 -252 192 -485 409 -593 36 -18 93 -58 127 -89 l61
-57 -67 -24 -66 -25 -67 27 c-146 57 -326 178 -423 284 -185 202 -283 482
-250 712 18 120 51 211 153 419 131 268 140 295 146 426 2 61 0 127 -6 148 -6
20 -7 37 -3 37 27 0 116 -154 142 -245 20 -71 18 -245 -4 -314 -20 -66 -20
-61 -3 -61 21 0 101 132 128 209 31 90 33 307 3 456 -30 150 -27 324 8 430 35
105 102 219 178 300 34 36 63 64 65 63 1 -2 -10 -37 -24 -78 -23 -65 -26 -91
-26 -195 0 -133 17 -194 75 -267 27 -34 29 -43 29 -120 0 -76 13 -186 26 -231
12 -40 13 -6 3 99 -11 124 -1 244 31 346 34 109 85 182 230 328 195 195 247
296 257 495 6 113 -16 224 -62 314 -14 28 -22 51 -18 51 5 0 26 -14 48 -31z
m-1223 -3372 c145 -20 171 -26 193 -47 14 -13 24 -25 22 -26 -2 -2 -45 3 -97
11 -114 17 -127 18 -115 6 6 -5 66 -17 135 -27 105 -14 132 -21 170 -46 l45
-30 -75 7 c-55 5 -72 3 -64 -5 6 -6 51 -14 100 -17 68 -5 103 -13 149 -35 33
-15 67 -28 74 -28 11 0 12 -3 4 -11 -8 -8 -43 -6 -124 5 -180 25 -301 37 -307
32 -8 -9 17 -14 153 -31 72 -8 153 -18 180 -22 l50 -6 -51 -23 c-50 -23 -52
-23 -135 -9 -76 14 -361 36 -434 34 -30 -1 -30 -1 -4 -9 14 -4 70 -10 125 -14
205 -14 364 -29 364 -35 0 -11 -58 -30 -77 -25 -10 2 -126 11 -258 19 -169 11
-247 20 -262 30 -19 13 -43 68 -43 99 0 8 100 3 199 -11 27 -3 42 -2 38 4 -3
5 -58 16 -122 23 l-115 13 0 33 c0 19 7 52 16 74 l17 41 55 -7 c40 -5 53 -4
48 5 -4 6 -19 11 -34 11 -15 0 -33 4 -41 9 -11 7 -10 11 5 20 25 14 21 14 216
-12z m2403 -168 c241 -28 220 -18 184 -86 -17 -32 -31 -59 -32 -59 -1 -1 -36
4 -77 11 -41 8 -91 14 -109 14 -62 1 -19 -16 69 -28 123 -17 119 -15 109 -59
-12 -50 -11 -135 1 -166 5 -14 7 -26 3 -26 -3 0 -58 10 -122 21 -88 17 -127
29 -163 52 -54 34 -58 40 -25 32 43 -10 177 -21 177 -14 0 6 -189 39 -225 39
-21 0 -161 83 -148 87 6 2 97 -12 202 -32 206 -37 231 -41 216 -26 -6 6 -50
17 -100 25 -49 8 -144 24 -210 35 -66 12 -130 21 -143 21 -12 0 -41 12 -64 27
-42 26 -42 26 -20 36 17 8 53 7 120 -1 53 -7 115 -12 137 -11 40 1 40 1 10 10
-16 5 -65 12 -107 15 -43 4 -78 10 -78 14 0 14 84 44 114 42 17 -2 85 -11 151
-22 163 -25 241 -33 233 -25 -6 6 -61 16 -307 56 l-74 12 24 19 c17 14 32 18
54 14 16 -4 107 -16 200 -27z m-1045 -31 l45 -23 -3 -188 c-2 -128 1 -186 8
-182 5 3 10 30 10 58 0 29 3 103 7 166 6 113 6 114 25 91 16 -20 18 -44 18
-256 l0 -233 -42 42 c-24 23 -56 48 -73 55 l-30 12 2 83 c1 57 -1 73 -7 52 -4
-16 -8 -52 -9 -79 -1 -45 -2 -48 -23 -41 -40 13 -193 17 -233 6 -21 -6 -41 -9
-43 -6 -2 2 17 72 43 155 26 83 45 153 42 156 -7 7 -40 -81 -81 -218 -29 -96
-37 -112 -64 -129 -18 -10 -32 -16 -32 -12 0 24 139 410 158 441 16 24 90 67
99 58 5 -5 -17 -116 -46 -238 -5 -21 -5 -38 -1 -38 8 0 39 106 60 205 19 88
16 85 74 85 34 0 67 -8 96 -22z m-570 -13 c0 -3 -57 -33 -127 -67 -69 -34
-121 -64 -115 -66 6 -2 72 26 147 62 131 63 137 64 172 52 l36 -12 -139 -68
c-76 -38 -175 -82 -219 -98 -44 -16 -103 -47 -131 -69 -28 -21 -75 -52 -105
-69 -30 -16 -49 -30 -43 -30 24 0 91 33 139 69 63 48 78 55 164 86 39 14 135
58 212 96 l141 71 29 -28 c16 -15 29 -30 29 -34 0 -3 -65 -41 -145 -84 -80
-44 -143 -82 -140 -85 4 -3 74 29 156 72 l151 77 -7 -32 c-4 -18 -8 -34 -9
-34 0 -1 -44 -25 -96 -55 -52 -29 -89 -54 -84 -56 6 -2 46 15 89 38 59 32 77
38 72 25 -4 -10 -10 -28 -13 -40 -4 -17 -50 -48 -177 -119 -95 -52 -214 -116
-265 -141 -51 -26 -128 -66 -172 -90 l-78 -44 -4 75 -3 76 125 59 c135 64 194
97 186 105 -3 3 -76 -29 -162 -71 -86 -42 -158 -75 -159 -74 -1 2 -10 18 -20
37 -9 19 -38 57 -64 84 -25 28 -41 52 -35 54 17 6 243 116 279 136 17 9 25 16
18 17 -12 0 -66 -24 -238 -104 -87 -41 -91 -42 -125 -28 -41 17 -46 13 115 80
66 27 210 88 320 134 110 47 207 88 215 91 20 7 80 9 80 2z m1099 -87 c181
-106 301 -179 389 -236 l62 -40 -47 -7 c-46 -6 -51 -4 -140 55 -51 34 -98 60
-105 58 -6 -2 28 -31 78 -63 106 -70 102 -67 86 -72 -7 -3 -39 -22 -71 -44
l-59 -39 -78 53 c-44 29 -97 63 -119 77 -76 46 -10 -14 84 -76 47 -32 90 -61
94 -65 5 -3 1 -22 -9 -40 -9 -19 -20 -46 -23 -62 l-6 -27 -100 76 c-55 42
-145 108 -200 147 -162 114 -225 169 -225 195 0 28 5 28 49 -7 20 -15 47 -34
61 -41 22 -12 24 -12 12 3 -7 8 -38 34 -68 57 -43 34 -54 48 -54 71 0 43 23
37 90 -23 59 -54 167 -125 175 -116 3 2 -30 30 -73 60 -42 31 -90 70 -106 86
l-29 31 57 25 56 25 107 -69 c100 -65 131 -82 119 -62 -3 5 -48 37 -100 72
-53 35 -96 67 -96 71 0 6 14 15 29 18 2 1 74 -40 160 -91z m799 67 c40 -87
-19 -335 -79 -335 -62 0 -46 233 23 333 24 34 41 34 56 2z m-2612 -328 c43
-22 112 -101 137 -155 27 -60 28 -138 4 -176 -17 -25 -24 -28 -54 -23 -85 14
-191 98 -240 188 -32 60 -32 137 0 166 37 35 86 35 153 0z m2323 -62 c48 -25
57 -91 17 -128 -27 -25 -183 -82 -265 -97 -72 -13 -91 -7 -91 31 0 43 23 81
76 128 80 70 198 100 263 66z m-1066 -69 c92 -44 141 -128 111 -192 -26 -55
-101 -85 -227 -91 -114 -6 -188 9 -263 52 -104 60 -87 168 36 230 60 31 82 35
185 31 84 -2 109 -7 158 -30z"/>
<path d="M5361 4532 c49 -117 61 -177 60 -302 0 -74 3 -109 9 -100 6 8 10 60
10 115 0 110 -20 203 -66 300 -37 78 -48 68 -13 -13z"/>
<path d="M5176 4235 c-19 -67 -76 -154 -177 -268 -126 -142 -161 -197 -202
-315 -26 -78 -30 -102 -33 -237 -2 -94 0 -141 5 -125 5 14 9 64 10 111 2 158
44 303 122 415 17 26 68 86 111 133 44 47 93 105 109 127 36 53 71 141 66 168
-3 18 -5 16 -11 -9z"/>
<path d="M5365 3918 c-22 -78 -30 -132 -33 -221 -6 -183 25 -272 159 -447 64
-85 104 -154 130 -230 7 -20 8 -17 5 16 -5 58 -49 140 -123 235 -75 94 -127
191 -142 267 -24 115 -7 281 45 460 3 12 2 22 -3 22 -6 0 -23 -46 -38 -102z"/>
<path d="M4393 3613 c4 -43 18 -118 31 -166 14 -49 30 -128 37 -176 23 -161
-25 -320 -146 -486 -108 -148 -134 -190 -159 -267 -26 -76 -34 -161 -17 -186
5 -8 10 17 13 65 8 105 42 185 128 303 162 221 203 320 204 490 0 89 -6 127
-37 247 -21 81 -37 166 -37 198 0 35 -4 55 -11 55 -9 0 -10 -22 -6 -77z"/>
<path d="M5940 3641 c0 -5 11 -33 24 -62 48 -111 59 -166 59 -304 -1 -96 -7
-157 -23 -230 -12 -55 -24 -111 -27 -125 -4 -25 -4 -25 12 3 53 91 77 406 42
537 -25 93 -87 222 -87 181z"/>
<path d="M5810 3306 c55 -99 62 -201 25 -381 -37 -180 -32 -293 16 -347 18
-20 20 -21 13 -3 -38 107 -41 210 -9 340 25 103 30 222 11 294 -17 65 -50 131
-67 131 -5 0 0 -15 11 -34z"/>
<path d="M6220 2765 c-1 -16 -1 -46 0 -65 1 -33 7 -60 51 -260 26 -122 26
-287 -2 -376 -22 -70 -62 -155 -98 -209 -23 -33 -26 -45 -12 -45 15 0 71 95
106 182 63 155 66 296 10 523 -14 55 -31 141 -39 190 -7 50 -15 77 -16 60z"/>
<path d="M3971 2677 c-128 -286 -132 -523 -11 -772 44 -91 106 -182 116 -172
3 2 -17 40 -44 83 -54 88 -103 201 -123 284 -31 129 -13 327 43 474 42 110 58
159 53 164 -2 3 -18 -25 -34 -61z"/>
<path d="M4924 2428 c-51 -58 -114 -177 -114 -218 0 -17 9 -5 29 42 30 71 52
106 114 181 53 64 31 60 -29 -5z"/>
<path d="M6147 2255 c-20 -131 -49 -210 -103 -281 -25 -32 -32 -60 -13 -48 6
3 29 34 50 67 50 77 81 179 77 255 l-3 57 -8 -50z"/>
<path d="M4446 2136 c-18 -104 11 -272 66 -381 57 -111 229 -286 269 -273 6 2
-16 24 -49 48 -113 85 -205 215 -247 350 -11 32 -20 107 -24 180 -6 112 -7
120 -15 76z"/>
<path d="M4766 2017 c-5 -10 -6 -64 -3 -120 8 -165 71 -307 185 -425 73 -75
85 -64 15 13 -122 135 -172 255 -183 435 -4 74 -9 109 -14 97z"/>
<path d="M5408 1919 c-15 -25 -50 -67 -80 -93 -121 -111 -141 -133 -165 -180
-28 -56 -41 -153 -25 -182 9 -15 11 -9 12 37 0 105 21 142 145 264 106 104
151 162 143 187 -2 6 -16 -9 -30 -33z"/>
<path d="M6187 1737 c-61 -61 -94 -86 -155 -115 -48 -22 -70 -37 -59 -40 30
-6 139 52 199 107 51 47 106 118 97 125 -2 1 -39 -33 -82 -77z"/>
<path d="M3730 1470 c0 -8 105 -26 205 -36 91 -8 45 11 -60 25 -136 19 -145
20 -145 11z"/>
<path d="M5153 1240 c-19 -75 -35 -194 -31 -220 4 -27 17 25 38 161 14 87 9
126 -7 59z"/>
<path d="M5240 1203 c0 -28 3 -34 10 -23 13 20 13 47 0 55 -6 4 -10 -9 -10
-32z"/>
<path d="M4483 1100 c-96 -46 -132 -70 -80 -54 26 8 176 79 197 93 13 10 13
11 0 11 -8 0 -61 -22 -117 -50z"/>
<path d="M4595 987 c-11 -8 -87 -49 -170 -91 -140 -72 -180 -96 -162 -96 4 0
67 29 140 64 140 68 252 135 227 136 -9 0 -24 -6 -35 -13z"/>
<path d="M5585 1251 c11 -13 49 -40 85 -61 36 -21 93 -59 128 -84 72 -54 88
-59 46 -15 -25 27 -98 75 -239 159 l-40 24 20 -23z"/>
<path d="M5630 1042 c0 -6 35 -37 78 -69 95 -73 132 -96 132 -85 0 7 -74 65
-197 155 -8 6 -13 6 -13 -1z"/>
<path d="M6535 1253 c-23 -47 -33 -167 -15 -178 7 -4 19 0 30 11 20 22 41 99
33 121 -8 21 -28 10 -31 -18 -2 -19 -1 -21 7 -9 16 23 13 -4 -5 -50 -11 -28
-20 -38 -27 -31 -12 12 8 122 29 163 8 16 10 28 5 28 -5 0 -17 -17 -26 -37z"/>
<path d="M3869 973 c-9 -10 -19 -27 -23 -37 -9 -25 19 -115 45 -146 17 -20 19
-21 13 -5 -39 103 -45 131 -35 158 13 33 42 35 90 6 41 -25 49 -20 17 10 -33
31 -87 38 -107 14z"/>
<path d="M3910 877 c0 -19 12 -52 29 -78 69 -109 162 -122 161 -22 0 34 -31
103 -53 122 -23 18 -21 11 9 -42 34 -62 31 -121 -7 -125 -49 -6 -149 131 -119
162 10 10 80 -57 80 -75 0 -5 5 -9 10 -9 14 0 -5 38 -38 73 -14 15 -36 27 -49
27 -19 0 -23 -5 -23 -33z"/>
<path d="M6125 891 c-43 -19 -89 -66 -100 -102 -12 -36 3 -32 21 6 9 20 35 49
57 63 34 22 52 27 106 27 61 0 66 -2 69 -22 5 -31 22 -29 22 2 0 14 -8 29 -19
35 -31 16 -112 11 -156 -9z"/>
<path d="M6147 844 c-16 -9 -27 -17 -25 -20 5 -4 98 26 98 32 0 10 -47 2 -73
-12z"/>
<path d="M6130 790 c-52 -17 -53 -18 -20 -19 19 0 53 8 75 18 52 25 19 25 -55
1z"/>
<path d="M4967 860 c-16 -5 -44 -21 -63 -35 -109 -83 -30 -185 149 -193 44 -3
83 0 88 5 6 6 -21 9 -68 10 -91 0 -168 30 -193 75 -13 25 -13 29 6 55 28 38
91 72 134 74 19 0 44 4 55 9 27 12 -69 11 -108 0z"/>
<path d="M5254 797 c25 -24 46 -51 46 -61 0 -18 -43 -66 -60 -66 -5 0 -10 -4
-10 -10 0 -13 31 -1 58 23 23 22 29 65 12 97 -9 18 -69 60 -85 60 -4 0 13 -19
39 -43z"/>
<path d="M5130 804 c75 -34 88 -64 38 -90 -32 -17 -130 -16 -173 1 -18 7 -19
7 -4 -9 21 -22 112 -31 167 -17 94 26 75 108 -28 125 l-35 6 35 -16z"/>
<path d="M4974 785 c-25 -19 -3 -19 46 0 l35 13 -31 1 c-16 1 -39 -6 -50 -14z"/>
<path d="M5077 762 c-26 -2 -45 -7 -42 -13 8 -12 92 -12 100 0 8 14 -4 16 -58
13z"/>
<path d="M4881 4763 c-61 -74 -75 -130 -77 -298 -1 -137 -4 -155 -28 -214 -14
-35 -24 -66 -22 -69 22 -21 150 98 186 173 36 75 37 143 5 247 -25 80 -29 129
-14 177 9 29 -20 20 -50 -16z m17 -85 c6 -24 19 -78 31 -120 19 -72 19 -81 5
-134 -16 -61 -68 -141 -109 -168 -29 -19 -29 -18 -13 21 6 15 14 100 18 188 4
135 9 167 27 208 12 26 24 47 27 47 2 0 9 -19 14 -42z"/>
</g>
</svg>
