<?xml version="1.0" standalone="no"?>
<!DOCTYPE svg PUBLIC "-//W3C//DTD SVG 20010904//EN"
 "http://www.w3.org/TR/2001/REC-SVG-20010904/DTD/svg10.dtd">
<svg version="1.0" xmlns="http://www.w3.org/2000/svg"
 width="1024.000000pt" height="559.000000pt" viewBox="0 0 1024.000000 559.000000"
 preserveAspectRatio="xMidYMid meet">
<metadata>
Created by potrace 1.16, written by Peter Selinger 2001-2019
</metadata>
<g transform="translate(0.000000,559.000000) scale(0.100000,-0.100000)"
fill="#000000" stroke="none">
<path d="M7170 4564 c-115 -49 -310 -115 -320 -109 -5 3 -62 19 -127 36 -116
31 -119 31 -214 19 -122 -16 -162 -11 -276 34 -51 20 -101 36 -112 36 -10 0
-63 -14 -117 -31 -109 -33 -438 -130 -549 -161 -62 -18 -93 -20 -265 -16 -107
3 -258 2 -335 -2 -127 -5 -147 -4 -214 17 -40 12 -94 25 -120 29 -82 11 -166
33 -288 74 -65 22 -134 40 -153 40 -19 0 -83 -15 -141 -34 -58 -19 -130 -39
-161 -46 -54 -12 -57 -12 -134 23 -43 19 -106 43 -138 52 -32 10 -82 28 -110
41 -72 34 -117 30 -248 -17 -148 -54 -201 -55 -294 -9 -37 19 -80 34 -97 33
-18 0 -106 -30 -197 -66 -91 -35 -189 -72 -218 -82 -29 -9 -51 -19 -48 -22 8
-8 113 26 282 93 89 35 172 64 183 64 11 0 50 -16 87 -35 92 -49 161 -49 299
2 126 46 179 52 232 25 21 -11 77 -33 124 -48 46 -14 105 -37 131 -50 26 -13
89 -36 140 -50 51 -14 127 -36 168 -49 104 -32 219 -59 226 -52 9 9 -288 100
-369 114 -45 7 -40 18 13 27 22 3 81 20 132 36 51 17 110 30 132 30 21 0 98
-20 170 -44 72 -24 182 -54 244 -66 62 -11 123 -25 135 -30 19 -8 18 -9 -13
-10 -19 -1 -46 -6 -60 -10 -14 -5 65 -5 175 -2 253 9 316 9 780 -1 255 -5 375
-4 365 3 -8 5 -51 10 -96 10 -44 0 -130 3 -189 7 -126 7 -133 3 125 78 102 29
230 67 285 84 55 17 110 31 123 31 12 0 64 -16 114 -36 111 -43 171 -51 286
-35 83 11 91 10 196 -17 129 -35 129 -35 -95 -77 -155 -29 -338 -71 -347 -80
-14 -14 12 -12 113 9 61 13 164 33 230 46 167 31 349 84 490 143 140 58 178
65 242 43 164 -55 196 -61 323 -61 l125 0 100 -47 c77 -36 130 -52 230 -71
178 -34 195 -37 195 -32 0 11 -59 28 -190 55 -95 19 -161 40 -221 68 -120 56
-156 65 -242 55 -92 -10 -97 -9 -254 38 -72 21 -138 39 -145 39 -7 0 -51 -17
-98 -36z"/>
<path d="M4530 4100 c-260 -7 -440 -26 -650 -70 -80 -16 -212 -39 -330 -55
-274 -39 -518 -116 -568 -180 -50 -63 13 -101 238 -145 186 -37 234 -61 178
-91 -20 -11 -398 -110 -498 -130 -80 -17 -264 -47 -325 -54 -70 -8 -288 -51
-325 -64 -14 -5 -54 -17 -90 -26 -124 -33 -195 -58 -264 -92 -38 -19 -114 -50
-168 -69 -220 -77 -281 -121 -393 -287 -54 -80 -59 -93 -63 -150 -3 -56 -1
-66 27 -104 49 -68 149 -130 321 -198 52 -21 115 -52 138 -69 100 -71 131 -87
256 -136 123 -49 267 -123 274 -142 2 -4 8 -8 13 -8 18 0 156 -108 179 -139
17 -25 23 -51 27 -114 4 -49 13 -96 24 -117 30 -61 98 -115 185 -146 43 -16
126 -53 184 -83 58 -30 125 -64 150 -76 25 -13 108 -35 185 -50 77 -15 201
-42 275 -62 297 -76 448 -98 945 -139 763 -62 775 -62 1083 -23 207 27 380 62
488 100 219 77 407 176 584 308 114 85 295 177 445 226 61 20 190 54 288 76
98 22 235 58 305 80 70 22 222 69 337 104 116 35 239 74 275 88 109 41 244
118 383 217 173 125 260 211 299 298 28 61 30 73 26 152 -9 168 -76 246 -333
384 -397 212 -407 216 -622 251 -87 14 -183 32 -213 40 -30 8 -110 27 -178 41
-67 14 -162 39 -209 55 -117 39 -209 55 -463 79 -205 19 -261 28 -322 52 -57
22 -34 31 202 78 225 46 296 81 272 136 -29 62 -220 100 -647 129 -633 42
-748 56 -876 102 l-74 27 -360 1 c-198 1 -475 -1 -615 -5z m1030 -49 c127 -38
245 -57 445 -71 83 -5 173 -12 200 -15 28 -3 113 -10 190 -15 371 -25 553 -50
644 -91 37 -16 42 -21 31 -35 -29 -34 -49 -36 -81 -10 -39 34 -135 62 -234 71
-44 3 -114 10 -155 15 -41 6 -187 17 -325 25 -137 8 -263 17 -280 20 -16 2
-89 9 -161 15 -91 7 -174 21 -275 48 l-144 37 -475 -1 c-499 -1 -639 -9 -860
-53 -52 -11 -151 -27 -220 -36 -491 -64 -751 -124 -813 -187 -26 -26 -32 -28
-44 -15 -51 51 276 160 602 202 28 3 124 20 215 36 178 33 221 40 405 65 138
19 596 33 980 29 248 -3 251 -3 355 -34z m-15 -76 c91 -23 182 -39 260 -45 66
-6 158 -14 205 -19 47 -6 144 -13 215 -16 216 -10 586 -45 645 -61 30 -9 68
-23 84 -31 36 -19 26 -26 -59 -43 -143 -28 -292 -63 -310 -72 -37 -19 -85 -72
-85 -94 0 -13 10 -30 23 -39 33 -23 138 -51 262 -70 61 -9 146 -23 190 -31 44
-7 131 -21 192 -29 105 -15 153 -27 408 -104 55 -17 132 -35 171 -40 156 -22
332 -63 418 -98 231 -92 591 -300 660 -381 39 -45 65 -123 66 -193 0 -52 -3
-60 -42 -105 -24 -26 -87 -82 -140 -123 -258 -201 -370 -259 -683 -351 -77
-23 -201 -61 -275 -85 -204 -66 -261 -81 -435 -119 -302 -66 -539 -163 -710
-292 -189 -142 -380 -243 -592 -314 -307 -102 -769 -147 -1138 -111 -60 6
-252 22 -425 36 -374 30 -459 39 -605 66 -168 31 -154 24 -143 72 4 23 15 59
23 80 8 20 15 45 15 53 0 14 -2 15 -17 3 -9 -8 -25 -27 -35 -44 l-20 -30 6 48
c3 26 9 67 12 92 4 29 3 45 -5 45 -9 0 -24 -43 -47 -135 -6 -25 -9 -14 -20 60
-8 49 -21 111 -30 137 -17 51 -39 67 -30 20 16 -78 38 -252 32 -252 -2 0 -16
21 -31 46 -15 25 -29 43 -32 40 -3 -3 5 -41 17 -86 13 -44 22 -82 19 -84 -2
-3 -43 5 -89 18 -47 12 -119 28 -160 35 -129 22 -233 51 -284 79 -41 23 -51
34 -62 69 -6 24 -8 40 -3 37 18 -11 8 16 -16 43 -30 34 -31 24 -6 -47 11 -30
18 -56 17 -58 -2 -1 -41 15 -87 36 -46 22 -115 52 -154 67 -124 50 -175 125
-175 255 0 61 -9 81 -63 138 -49 50 -38 53 58 18 36 -13 65 -22 65 -20 0 11
-87 45 -127 50 -46 6 -153 59 -153 76 0 5 9 34 20 65 11 32 20 63 20 70 0 23
-17 14 -39 -19 -26 -41 -27 -21 -5 64 20 78 15 104 -11 64 -10 -16 -27 -51
-36 -80 -17 -49 -18 -50 -24 -21 -19 95 -57 195 -73 195 -5 0 -1 -39 9 -87 27
-140 31 -186 16 -179 -6 3 -68 28 -137 56 -155 62 -182 76 -241 122 -54 42
-103 68 -194 103 -93 35 -196 90 -244 132 -34 29 -41 40 -41 71 1 50 12 68
111 170 78 81 97 94 215 154 217 111 221 112 728 244 71 19 142 34 157 34 15
0 97 18 181 39 84 21 209 51 278 66 69 14 170 40 225 56 55 16 124 36 154 45
30 9 64 27 77 40 46 45 23 123 -48 160 -17 9 -94 29 -172 44 -157 32 -200 45
-191 60 31 50 342 122 750 174 105 14 235 34 290 45 230 46 500 61 980 56
l330 -4 140 -36z m1066 -370 c60 -27 203 -55 283 -55 148 0 405 -46 557 -99
31 -10 83 -24 115 -31 33 -6 113 -25 180 -41 66 -16 188 -40 270 -54 82 -13
169 -31 193 -40 65 -22 464 -230 542 -281 131 -87 178 -162 179 -287 0 -50 -4
-76 -10 -72 -5 3 -10 19 -10 34 0 37 -25 95 -58 140 -58 76 -395 272 -657 383
-80 33 -267 83 -370 97 -124 18 -178 30 -306 71 -170 54 -275 79 -373 90 -44
6 -130 18 -191 29 -60 11 -145 25 -189 31 -101 15 -185 37 -214 56 -18 12 -20
18 -12 34 6 11 12 20 14 20 2 0 28 -11 57 -25z m-3151 -75 c0 -33 -37 -56
-128 -80 -48 -12 -105 -28 -127 -35 -22 -7 -94 -25 -160 -39 -66 -15 -192 -44
-280 -65 -88 -22 -198 -46 -245 -55 -124 -23 -602 -152 -674 -183 -97 -41
-277 -133 -321 -164 -60 -43 -186 -186 -201 -227 l-13 -37 -1 43 c0 36 9 57
47 115 108 161 179 214 373 282 58 20 148 56 200 80 52 24 140 56 195 70 55
15 119 33 142 40 56 19 228 52 338 65 126 15 327 55 480 95 72 19 169 44 217
56 48 12 100 30 115 40 37 23 43 23 43 -1z m-1224 -1356 c4 -37 3 -55 -3 -51
-6 4 -14 35 -17 69 -4 35 -9 77 -12 93 -3 22 0 19 10 -12 8 -23 18 -68 22 -99z
m53 28 c-6 -34 -8 -70 -4 -80 5 -14 10 -10 26 21 11 20 21 37 23 37 3 0 -25
-89 -31 -99 -2 -2 -12 4 -23 14 -22 20 -22 48 1 139 15 58 20 38 8 -32z m1321
-862 c0 -61 -3 -80 -14 -80 -8 0 -18 19 -25 46 -15 60 -8 67 10 12 l14 -43 3
73 c2 39 5 72 7 72 3 0 5 -36 5 -80z m42 2 c-5 -35 -6 -65 -2 -67 4 -3 15 16
25 40 25 67 34 63 17 -9 -14 -57 -17 -62 -39 -58 -27 5 -28 17 -11 111 14 81
21 68 10 -17z"/>
<path d="M3825 3869 c-33 -5 -112 -16 -175 -25 -140 -19 -304 -58 -336 -79
-31 -20 -30 -43 2 -55 38 -15 43 -11 10 6 -24 13 -26 18 -15 29 25 25 181 62
369 90 191 27 276 43 230 43 -14 0 -52 -4 -85 -9z"/>
<path d="M5900 3858 c5 -6 51 -10 310 -28 200 -14 323 -28 356 -40 20 -8 25
-15 21 -32 -6 -20 -5 -20 11 -4 16 16 16 18 -5 35 -38 32 -99 39 -588 67 -60
4 -108 4 -105 2z"/>
<path d="M3888 3813 c7 -3 16 -2 19 1 4 3 -2 6 -13 5 -11 0 -14 -3 -6 -6z"/>
<path d="M4208 3801 c71 -34 57 -57 -56 -91 -81 -25 -91 -37 -17 -20 111 25
153 62 115 100 -11 11 -26 20 -34 20 -8 0 -23 2 -33 5 -10 3 1 -3 25 -14z"/>
<path d="M3793 3790 c-35 -15 -43 -24 -43 -45 0 -34 40 -51 135 -58 l70 -6
-55 10 c-93 17 -131 29 -137 45 -8 22 15 42 67 58 25 8 36 14 25 15 -11 0 -39
-8 -62 -19z"/>
<path d="M3913 3789 c-23 -6 -46 -16 -53 -24 -21 -26 27 -39 135 -39 105 1
155 13 155 39 0 16 -41 30 -62 22 -7 -3 -1 -6 14 -6 36 -1 45 -19 16 -30 -65
-24 -237 -20 -245 6 -3 7 17 16 51 23 31 6 56 13 56 16 0 5 -17 4 -67 -7z"/>
<path d="M6243 3602 c-41 -22 -66 -57 -58 -81 8 -25 38 -44 100 -64 65 -21
255 -61 261 -55 2 3 -62 21 -143 41 -150 37 -196 58 -201 94 -3 21 43 63 67
63 6 0 11 5 11 10 0 12 2 13 -37 -8z"/>
<path d="M6377 3602 c-32 -20 -43 -47 -27 -67 18 -22 106 -51 209 -70 102 -19
134 -16 44 5 -209 46 -243 58 -243 88 0 10 16 28 38 40 20 12 30 22 22 22 -8
-1 -27 -8 -43 -18z"/>
<path d="M3520 3553 c0 -7 4 -13 9 -13 15 0 32 -56 26 -82 -9 -35 -50 -73
-106 -97 -55 -25 -222 -64 -554 -130 -238 -48 -361 -79 -352 -87 3 -3 51 6
108 20 57 14 205 46 329 70 414 82 505 110 559 171 39 45 42 92 6 132 -13 15
-25 22 -25 16z"/>
<path d="M3660 3458 c0 -49 -40 -95 -117 -135 -70 -38 -140 -59 -438 -134
-227 -57 -282 -77 -109 -40 272 59 474 115 547 152 89 46 153 133 128 176 -9
15 -10 11 -11 -19z"/>
<path d="M7285 3319 c187 -62 253 -80 355 -95 231 -33 388 -70 539 -125 67
-25 80 -17 17 11 -127 54 -337 104 -556 130 -47 6 -161 33 -254 60 -188 55
-240 65 -101 19z"/>
<path d="M7735 3130 c22 -5 80 -16 130 -25 222 -41 520 -151 618 -227 45 -36
50 -21 5 18 -80 67 -387 180 -595 219 -95 17 -222 29 -158 15z"/>
<path d="M2255 3079 c-257 -72 -424 -132 -508 -185 -31 -19 -57 -37 -57 -39 0
-2 44 19 98 46 86 44 196 83 487 172 95 30 80 34 -20 6z"/>
<path d="M8745 2754 c33 -43 43 -106 25 -158 -15 -46 -96 -135 -160 -176 -28
-18 -50 -34 -50 -36 0 -2 23 7 51 21 107 55 189 164 189 252 0 41 -41 117 -68
128 -8 3 -2 -11 13 -31z"/>
<path d="M1531 2735 c-72 -82 -19 -181 128 -239 54 -21 68 -13 15 9 -152 63
-199 150 -128 235 36 42 23 38 -15 -5z"/>
<path d="M2767 2309 c-15 -17 -28 -41 -29 -53 -1 -11 -2 -37 -3 -56 -1 -19 -7
-59 -14 -89 -6 -29 -11 -83 -12 -120 0 -44 -3 -59 -8 -46 -15 35 -69 209 -76
242 -3 17 -18 44 -32 59 l-26 28 -8 -23 c-10 -26 0 -50 41 -98 24 -27 80 -168
80 -198 0 -6 -13 10 -29 35 -29 47 -58 76 -66 68 -3 -3 13 -41 35 -84 22 -43
40 -85 41 -94 0 -8 7 -33 15 -55 l13 -40 -5 40 c-3 22 -14 64 -24 93 -10 28
-17 52 -14 52 8 0 37 -77 49 -130 10 -47 15 -55 34 -55 19 0 26 10 40 55 10
30 26 71 36 90 l18 35 9 -27 c6 -16 14 -28 19 -28 14 0 11 64 -5 85 -20 28
-44 12 -71 -47 -32 -71 -31 -37 1 54 16 42 38 83 55 99 29 27 38 62 19 74 -5
3 -22 -6 -36 -20 -19 -19 -24 -32 -20 -50 3 -13 2 -26 -3 -30 -11 -6 -39 -87
-58 -165 -12 -54 -13 -52 -8 57 5 129 19 193 52 242 17 25 23 46 22 83 -1 26
-3 48 -3 48 -1 0 -14 -14 -29 -31z m11 -59 c-5 -17 -14 -33 -19 -36 -12 -7
-11 18 1 51 14 37 32 22 18 -15z m-168 -69 c0 -12 -5 -10 -20 9 -27 34 -26 63
0 31 11 -13 20 -31 20 -40z m230 -33 c0 -19 -18 -43 -25 -36 -4 3 -2 16 5 27
12 24 20 27 20 9z m-20 -172 c0 -2 -8 -10 -17 -17 -16 -13 -17 -12 -4 4 13 16
21 21 21 13z"/>
<path d="M6208 1979 c-325 -27 -538 -107 -538 -204 0 -67 148 -159 291 -179
30 -4 17 2 -41 19 -207 63 -282 148 -196 223 36 32 105 61 202 86 74 19 281
46 350 46 29 0 56 5 59 10 3 6 -2 9 -12 9 -10 -1 -62 -5 -115 -10z"/>
<path d="M6686 1950 c147 -25 242 -56 276 -90 16 -17 28 -23 28 -15 0 22 -49
54 -116 75 -79 24 -216 50 -258 49 -17 -1 15 -9 70 -19z"/>
<path d="M6155 1894 c-137 -25 -227 -64 -240 -105 -26 -82 93 -135 325 -144
85 -3 102 -2 65 5 -27 4 -72 9 -98 9 -66 1 -194 29 -238 52 -66 33 -61 82 12
120 65 32 212 60 369 68 l145 8 -130 1 c-72 0 -166 -6 -210 -14z"/>
<path d="M2997 1876 c87 -41 94 -93 21 -146 -48 -35 -37 -41 13 -7 67 45 64
114 -6 154 -22 13 -49 23 -60 23 -11 0 3 -11 32 -24z"/>
<path d="M2859 1865 c45 -14 91 -50 91 -71 0 -7 -12 -22 -26 -33 -17 -13 -21
-21 -12 -21 21 0 48 32 48 57 0 36 -67 84 -117 82 -24 0 -22 -2 16 -14z"/>
<path d="M6680 1867 c105 -32 136 -64 99 -103 -29 -30 -77 -53 -174 -81 -77
-22 -78 -23 -27 -18 103 11 217 66 228 111 13 50 -38 90 -122 99 l-49 5 45
-13z"/>
<path d="M6530 1824 c62 -17 75 -26 67 -48 -11 -29 -113 -50 -247 -50 -211 0
-304 44 -185 87 49 17 49 18 11 13 -40 -5 -76 -30 -76 -52 0 -65 333 -87 473
-32 34 13 49 38 36 60 -10 19 -68 38 -109 37 -15 0 -2 -6 30 -15z"/>
<path d="M2603 1823 c-19 -7 -16 -31 6 -43 25 -13 42 -13 19 1 -21 12 -24 35
-5 42 6 3 8 5 2 5 -5 0 -16 -2 -22 -5z"/>
<path d="M2831 1811 c23 -19 23 -20 6 -38 -9 -10 -43 -23 -75 -29 l-57 -12 47
-1 c59 -1 97 15 104 46 7 26 -10 53 -33 53 -11 0 -8 -6 8 -19z"/>
<path d="M3200 1818 c-36 -10 -70 -34 -70 -50 0 -4 21 -8 48 -9 46 0 46 -1 25
-16 -13 -8 -23 -22 -23 -29 0 -20 128 -19 180 2 134 54 -9 145 -160 102z m170
-23 c17 -9 30 -20 30 -25 0 -30 -129 -66 -176 -50 -17 6 -17 8 4 19 35 19 26
31 -23 31 -25 0 -45 4 -45 9 0 30 160 42 210 16z"/>
<path d="M3685 1723 c-26 -7 -55 -33 -55 -50 0 -9 14 -13 46 -13 41 0 45 -2
34 -15 -21 -25 1 -38 53 -30 99 15 140 72 72 101 -33 13 -108 17 -150 7z m146
-24 c42 -22 9 -52 -73 -65 l-40 -7 18 28 18 28 -52 -6 c-49 -6 -67 3 -40 19
38 24 128 25 169 3z"/>
<path d="M2975 1615 c23 -126 23 -126 7 -113 -14 11 -15 10 -8 -7 5 -11 11
-28 13 -37 3 -10 9 -18 13 -18 17 0 19 66 4 124 -16 64 -39 103 -29 51z"/>
<path d="M3193 1591 c-71 -33 -75 -83 -11 -118 49 -27 187 -24 251 4 61 28 62
50 2 59 -53 8 -57 18 -12 34 31 11 31 12 13 26 -31 22 -189 19 -243 -5z m205
1 c8 -6 1 -14 -25 -26 -43 -20 -34 -32 35 -42 23 -3 42 -10 42 -14 0 -33 -210
-49 -263 -21 -32 17 -44 48 -26 66 34 33 202 59 237 37z"/>
<path d="M3047 1558 c-19 -43 -29 -108 -16 -108 6 0 8 3 6 8 -3 4 -1 16 4 27
6 15 8 9 10 -25 1 -45 2 -44 10 15 4 33 11 72 13 88 7 37 -8 34 -27 -5z"/>
<path d="M6335 1560 c-111 -5 -116 -6 -67 -14 54 -8 193 0 240 14 31 10 25 10
-173 0z"/>
<path d="M6075 1364 c-267 -110 -427 -138 -890 -158 -44 -2 26 -2 155 0 246 4
318 12 490 58 145 38 360 122 360 141 0 6 12 11 -115 -41z"/>
<path d="M5585 1338 c-88 -21 -367 -29 -580 -16 -88 5 -100 4 -60 -4 28 -6
165 -11 305 -11 254 -2 331 6 420 42 38 15 4 11 -85 -11z"/>
</g>
</svg>
