<?xml version="1.0" standalone="no"?>
<!DOCTYPE svg PUBLIC "-//W3C//DTD SVG 20010904//EN"
 "http://www.w3.org/TR/2001/REC-SVG-20010904/DTD/svg10.dtd">
<svg version="1.0" xmlns="http://www.w3.org/2000/svg"
 width="1024.000000pt" height="559.000000pt" viewBox="0 0 1024.000000 559.000000"
 preserveAspectRatio="xMidYMid meet">
<metadata>
Created by potrace 1.16, written by Peter Selinger 2001-2019
</metadata>
<g transform="translate(0.000000,559.000000) scale(0.100000,-0.100000)"
fill="#000000" stroke="none">
<path d="M4900 5124 c-898 -81 -1676 -607 -2189 -1478 -196 -332 -311 -658
-377 -1061 -25 -154 -26 -534 -1 -690 67 -415 204 -765 433 -1105 173 -257
417 -511 681 -707 74 -54 122 -83 139 -83 22 0 14 9 -52 56 -794 567 -1227
1399 -1190 2286 12 296 77 594 191 878 64 158 112 248 171 318 30 35 54 66 54
71 0 4 19 27 43 52 23 24 55 59 70 78 26 31 29 32 41 16 12 -16 14 -16 47 0
56 28 69 45 69 86 0 26 8 47 26 68 17 20 24 39 21 52 -7 24 17 36 38 19 8 -6
19 -9 25 -5 23 14 8 -6 -32 -43 l-42 -39 20 -49 c27 -66 50 -65 86 1 15 28 28
62 28 76 0 16 20 52 49 90 27 35 61 93 76 129 15 36 39 80 53 98 63 80 76 112
45 112 -13 0 -9 8 16 34 23 24 34 46 38 77 4 33 13 51 36 71 17 15 33 26 35
24 2 -3 -8 -25 -23 -50 -46 -78 -5 -91 71 -22 27 24 64 47 81 50 19 5 42 20
55 38 13 16 39 44 58 61 106 97 170 162 175 178 12 37 292 152 506 208 244 64
346 76 649 75 255 0 286 -2 424 -27 81 -15 197 -41 257 -58 616 -171 1165
-583 1568 -1179 329 -486 506 -983 527 -1485 6 -135 -1 -313 -12 -302 -2 2 -9
55 -15 117 -11 119 -23 165 -39 155 -5 -3 -10 -18 -10 -33 0 -15 -4 -33 -9
-40 -15 -24 -33 12 -25 52 5 32 4 36 -14 36 -12 0 -29 12 -39 26 -10 14 -27
37 -38 51 l-21 25 -64 -33 c-56 -29 -77 -34 -152 -37 l-86 -4 -16 31 c-30 57
-66 61 -111 12 -23 -26 -48 -22 -141 21 -43 20 -73 42 -92 69 -38 52 -70 75
-112 82 -41 8 -50 3 -75 -39 -17 -31 -17 -32 9 -77 27 -45 103 -127 119 -127
4 0 16 -19 26 -43 10 -23 25 -48 34 -56 18 -14 37 -7 37 15 0 8 5 14 10 14 6
0 10 -15 10 -33 0 -54 19 -71 73 -65 64 7 95 31 124 94 13 30 26 54 29 54 2 0
10 -15 18 -33 14 -35 59 -77 82 -77 7 0 27 -13 45 -29 30 -28 32 -33 25 -78
-3 -26 -15 -60 -26 -75 -11 -15 -20 -43 -20 -61 0 -19 -9 -46 -20 -60 -11 -14
-20 -29 -20 -35 0 -5 -13 -26 -30 -47 -16 -21 -30 -43 -30 -49 0 -6 -15 -19
-32 -29 -50 -28 -84 -61 -106 -104 -14 -27 -41 -52 -85 -81 -35 -23 -72 -53
-81 -67 -9 -14 -22 -25 -28 -25 -6 0 -27 -12 -47 -27 -20 -16 -54 -36 -76 -46
-22 -10 -54 -32 -71 -48 -21 -21 -43 -31 -65 -32 -32 -2 -34 0 -56 60 -12 34
-29 94 -37 133 -11 57 -23 82 -54 119 -21 25 -46 60 -55 76 -17 32 -74 95 -87
95 -5 0 -22 12 -39 26 -22 18 -36 45 -51 92 -24 83 -44 113 -98 152 -24 17
-46 38 -49 48 -4 9 -19 33 -35 52 -29 35 -35 56 -19 62 16 5 380 318 505 433
116 106 342 333 403 405 39 45 61 90 172 348 99 231 107 258 76 255 -11 -1
-78 19 -150 45 l-130 46 -145 0 c-168 0 -203 -9 -445 -114 -93 -41 -148 -60
-165 -57 -14 3 -75 26 -137 52 -148 61 -219 76 -394 82 -174 6 -290 -11 -444
-65 -64 -23 -116 -35 -145 -35 -25 1 -135 25 -245 53 -169 44 -219 53 -321 57
-137 6 -194 -3 -441 -68 l-153 -41 -77 26 c-73 23 -333 96 -396 110 -39 9 -41
-5 -28 -154 15 -176 33 -257 97 -447 42 -123 54 -170 49 -193 -9 -39 8 -60 46
-60 22 0 34 -8 48 -31 13 -21 16 -36 10 -43 -5 -6 -22 -30 -39 -53 -17 -24
-51 -53 -81 -70 -60 -32 -101 -88 -125 -171 -17 -57 -46 -86 -124 -121 -57
-25 -147 -111 -167 -159 -8 -20 -38 -61 -66 -92 -75 -82 -86 -114 -82 -239 4
-114 -16 -204 -60 -272 -21 -32 -22 -43 -17 -128 4 -74 9 -99 27 -126 13 -18
26 -43 30 -55 4 -12 22 -47 40 -78 18 -32 41 -85 51 -120 12 -45 29 -77 59
-110 22 -26 67 -79 98 -119 85 -107 92 -111 217 -110 96 1 109 -1 159 -27 57
-30 70 -29 228 5 64 14 151 11 189 -7 22 -10 43 -34 63 -69 16 -29 38 -56 48
-60 10 -5 56 -9 102 -9 l83 -2 40 -43 c36 -38 39 -46 34 -79 -3 -20 -9 -58
-12 -84 -4 -26 -13 -53 -20 -59 -33 -27 3 -95 111 -210 46 -48 89 -103 96
-123 7 -20 19 -36 26 -36 38 0 -15 90 -111 190 -90 94 -117 140 -95 166 14 17
32 108 33 172 0 40 -4 48 -52 94 -52 49 -53 50 -102 43 -27 -4 -67 -4 -88 0
-33 5 -43 13 -67 55 -46 79 -75 94 -175 95 -47 0 -129 -9 -182 -19 -89 -17
-99 -18 -121 -3 -49 32 -136 50 -208 43 -83 -9 -98 0 -171 93 -28 36 -71 86
-94 111 -32 33 -47 60 -58 104 -9 32 -34 91 -56 132 -22 40 -40 78 -40 84 0 6
-11 27 -24 48 -33 51 -43 190 -17 224 39 50 61 147 64 283 3 146 1 142 104
259 24 26 43 55 43 63 0 26 103 124 156 147 73 34 122 80 134 129 24 94 52
129 142 181 30 17 57 42 73 70 l25 44 37 -19 c21 -11 52 -19 70 -19 32 0 33
-1 33 -45 0 -50 28 -90 58 -81 9 3 59 8 110 12 146 11 165 2 349 -159 88 -78
218 -146 373 -198 90 -30 104 -31 260 -33 150 -1 169 -4 212 -25 64 -31 164
-140 218 -240 120 -219 117 -216 345 -215 166 2 286 18 337 45 26 14 35 1 44
-61 11 -76 33 -119 78 -150 27 -18 49 -44 61 -72 53 -125 53 -126 118 -157 57
-27 197 -135 197 -151 0 -4 -7 -13 -15 -20 -19 -16 -20 -50 -1 -50 7 0 30 -14
51 -30 44 -35 64 -37 114 -11 40 21 166 81 221 105 19 8 50 27 68 42 l32 27 0
-40 c0 -74 -20 -149 -73 -274 -75 -174 -129 -252 -282 -404 -72 -71 -157 -162
-188 -202 -32 -39 -69 -78 -82 -87 -40 -26 -139 -185 -137 -220 3 -64 6 -77
22 -73 16 3 17 15 6 57 -9 33 59 144 131 214 28 28 80 85 114 126 35 41 114
125 175 185 124 123 177 195 239 329 62 132 93 227 101 300 12 120 -13 145
-83 82 -21 -18 -66 -44 -100 -56 -35 -12 -68 -29 -74 -36 -6 -8 -18 -14 -27
-14 -8 0 -35 -12 -59 -26 -50 -29 -73 -27 -116 11 -23 20 -26 28 -17 44 5 11
7 26 4 35 -10 25 -171 154 -202 161 -41 9 -66 39 -98 118 -22 56 -36 75 -74
104 -45 33 -49 41 -69 117 -28 105 -41 130 -96 178 -28 25 -45 48 -45 62 0 13
-17 47 -38 77 -21 30 -55 83 -76 119 -22 36 -47 74 -56 85 -10 11 -26 34 -35
50 -14 22 -9 19 19 -13 36 -40 68 -53 81 -32 3 5 13 6 21 3 17 -6 174 -198
174 -212 0 -4 20 -21 45 -39 43 -30 85 -93 85 -129 1 -45 38 -100 88 -131 29
-18 64 -50 79 -74 15 -24 46 -67 69 -95 28 -35 44 -67 49 -95 12 -83 58 -210
81 -225 28 -18 92 -3 120 28 10 12 44 34 74 50 68 37 118 70 149 101 13 12 54
43 90 68 39 27 73 59 83 79 23 45 56 79 100 102 20 10 39 27 43 38 3 11 15 31
26 45 33 42 79 134 79 158 0 12 10 42 22 66 11 25 23 66 26 91 4 44 2 49 -37
84 -23 20 -49 37 -59 37 -27 0 -59 39 -72 88 -16 60 -37 52 -77 -28 -42 -82
-49 -88 -106 -96 l-47 -7 0 42 c0 29 -6 47 -21 62 l-22 22 -17 -23 -18 -23
-17 36 c-9 20 -37 53 -62 73 -25 21 -58 58 -74 82 -25 40 -27 46 -13 66 22 34
66 23 110 -28 67 -77 76 -86 88 -86 6 0 34 -11 62 -24 84 -39 107 -41 142 -11
36 30 58 32 67 5 13 -41 49 -53 143 -48 67 4 99 12 138 32 65 33 70 32 89 -3
8 -16 25 -38 37 -48 14 -11 22 -26 20 -40 -6 -43 55 -100 75 -70 5 7 11 -22
14 -63 4 -41 12 -113 18 -160 11 -75 10 -95 -9 -189 -41 -199 -121 -426 -220
-624 -225 -449 -539 -816 -939 -1097 -69 -49 -87 -66 -72 -68 46 -7 294 188
486 382 437 441 702 956 802 1551 14 85 18 161 17 330 0 193 -4 239 -27 375
-88 501 -312 983 -665 1429 -104 132 -375 400 -502 498 -199 152 -388 266
-580 349 -336 144 -611 203 -985 208 -121 2 -240 2 -265 0z m-1030 -380 c-30
-30 -68 -63 -83 -72 -16 -9 -44 -38 -63 -64 -25 -35 -41 -48 -59 -48 -14 0
-41 -15 -64 -35 -21 -19 -41 -35 -45 -35 -13 0 35 81 52 87 43 15 133 81 148
109 15 27 132 111 159 113 5 1 -15 -24 -45 -55z m-165 -74 c-3 -5 -12 -10 -18
-10 -7 0 -6 4 3 10 19 12 23 12 15 0z m-255 -210 c0 -11 -19 -41 -41 -65 -36
-39 -41 -49 -35 -78 5 -25 2 -38 -10 -48 -10 -8 -39 -60 -66 -115 -26 -56 -54
-106 -61 -111 -27 -20 -88 -34 -121 -28 -47 9 -90 -18 -83 -53 3 -15 -3 -38
-14 -56 -10 -17 -19 -45 -19 -63 0 -39 -34 -66 -43 -33 -8 32 -63 3 -119 -65
-62 -74 -88 -91 -52 -33 164 260 368 509 563 684 51 46 95 84 97 84 2 0 4 -9
4 -20z m-295 -587 l-18 -32 -18 22 c-17 22 -17 23 14 55 31 33 32 33 36 10 1
-12 -5 -37 -14 -55z m530 -193 c66 -18 219 -65 340 -105 372 -124 435 -139
605 -139 164 -1 229 13 406 85 134 54 250 99 304 116 237 75 513 70 740 -14
113 -42 182 -76 400 -197 201 -112 271 -145 422 -202 129 -48 138 -50 138 -30
0 8 -37 27 -97 47 -98 34 -380 166 -371 174 2 2 73 18 158 35 190 38 336 80
458 131 50 21 92 34 92 30 0 -10 -172 -405 -200 -461 l-20 -40 -161 0 c-141 0
-164 2 -187 19 -15 10 -67 42 -116 71 l-88 52 -127 -37 c-69 -21 -170 -53
-223 -71 -95 -33 -100 -34 -267 -34 -169 0 -171 0 -175 23 -2 12 -9 49 -15 82
-41 225 -75 206 -116 -67 -4 -27 -11 -38 -23 -38 -15 0 -21 18 -35 103 -21
129 -35 177 -51 177 -15 0 -49 -108 -69 -215 -11 -63 -14 -70 -36 -70 -20 0
-26 8 -36 48 -7 27 -17 53 -23 59 -14 14 -38 -25 -46 -74 -4 -22 -13 -38 -21
-38 -29 0 -45 13 -45 39 0 35 -38 183 -50 195 -18 18 -37 -14 -49 -86 -27
-153 -23 -146 -70 -139 -5 0 -12 31 -16 69 -14 137 -45 250 -65 237 -13 -8
-47 -132 -61 -220 -6 -44 -16 -84 -20 -90 -15 -16 -35 16 -48 78 -13 59 -35
83 -52 56 -5 -8 -14 -40 -21 -71 l-12 -58 -533 -2 c-293 -1 -541 -2 -550 -2
-13 -1 -25 20 -45 74 -52 139 -81 281 -94 457 l-7 93 29 -9 c16 -5 83 -24 149
-41z m3325 36 c81 -19 230 -69 230 -77 0 -8 -132 -60 -225 -88 -77 -24 -224
-58 -387 -91 l-108 -21 -100 57 c-56 31 -99 58 -98 60 2 1 67 30 146 63 124
53 228 89 297 104 44 10 193 6 245 -7z m-2383 -16 c68 -9 470 -104 480 -114 8
-8 -205 -86 -294 -107 -73 -17 -109 -20 -208 -16 -127 5 -233 28 -455 101 -99
33 -103 35 -77 45 48 18 317 82 382 91 84 11 91 11 172 0z m358 -502 c27 -183
29 -225 11 -253 -19 -29 -61 -33 -74 -7 -27 51 -21 187 15 347 19 85 25 75 48
-87z m515 2 c7 -52 18 -128 26 -169 22 -115 19 -173 -11 -205 -34 -36 -65 -31
-88 14 -16 30 -18 51 -13 145 6 148 49 355 67 323 4 -7 12 -56 19 -108z m181
-41 c17 -107 18 -123 5 -154 -18 -43 -42 -54 -61 -29 -19 25 -19 136 0 244 8
47 15 87 15 90 0 3 5 -3 11 -13 6 -10 19 -72 30 -138z m-521 44 c8 -38 13 -94
13 -125 0 -63 12 -75 28 -28 7 20 18 30 31 30 19 0 19 -4 13 -60 -6 -48 -4
-60 7 -60 10 0 18 25 27 90 7 49 16 92 21 95 13 8 32 -98 34 -184 2 -81 14
-106 28 -56 8 28 3 117 -8 158 -4 12 0 17 13 17 18 0 19 -7 15 -90 -5 -109 10
-171 49 -204 18 -15 29 -35 31 -56 5 -49 28 -51 28 -3 0 32 6 43 29 61 52 38
59 93 35 251 -6 35 -4 43 7 39 8 -2 15 -15 17 -29 5 -52 24 -99 42 -109 13 -7
20 -21 20 -40 0 -17 5 -30 10 -30 6 0 10 12 10 26 0 15 13 41 30 61 18 20 31
46 31 63 1 17 2 36 3 43 1 13 89 20 204 15 l67 -3 -77 -44 c-81 -47 -92 -59
-58 -68 19 -5 20 -14 20 -138 l0 -134 53 -6 c28 -4 68 -7 87 -8 l35 -2 3 78
c3 74 4 77 27 77 24 0 25 -2 25 -74 0 -47 5 -77 13 -84 6 -5 47 -13 90 -17
l77 -7 198 102 c108 56 201 105 205 109 4 4 9 55 10 112 l2 104 158 3 c99 1
157 -1 157 -7 0 -6 -87 -97 -192 -204 -164 -163 -466 -435 -663 -594 l-52 -42
-52 50 c-51 49 -51 51 -46 97 4 36 -1 60 -18 102 -21 48 -27 54 -48 51 -13 -2
-73 -3 -134 -2 -97 2 -115 -1 -151 -20 l-41 -22 -119 21 c-118 20 -140 26
-242 64 -106 40 -205 5 -202 -72 1 -19 2 -41 1 -47 -2 -20 -44 -15 -105 12
-31 14 -63 25 -71 25 -26 0 -63 22 -75 46 -16 28 -62 51 -131 64 -28 6 -71 23
-95 39 l-44 29 22 28 c18 22 23 43 24 101 l2 72 -35 12 c-19 6 -49 8 -66 5
-18 -4 -93 -9 -167 -12 -153 -6 -257 -24 -335 -60 -41 -19 -63 -24 -92 -19
-77 13 -99 25 -121 63 -27 48 -50 69 -82 74 -21 2 -25 9 -26 38 0 19 -4 52 -8
73 l-8 38 540 -2 540 -3 -5 -91 c-6 -94 4 -134 41 -164 9 -8 16 -25 16 -38 0
-15 5 -23 13 -20 6 2 11 12 9 21 -2 9 8 30 22 47 35 41 40 66 32 165 -8 96 8
117 17 24 7 -65 27 -114 51 -123 8 -3 16 -21 18 -39 4 -41 22 -43 26 -4 2 16
14 38 26 47 34 27 49 72 44 129 -5 46 -3 50 17 50 17 0 23 -9 31 -42 6 -30 15
-44 28 -46 15 -3 17 0 11 14 -15 35 -17 104 -5 189 7 47 16 83 20 80 4 -3 13
-35 20 -72z m1434 -35 c48 -28 83 -54 79 -58 -4 -3 -85 -39 -179 -79 l-172
-72 -102 70 c-61 42 -97 73 -89 75 8 3 79 26 159 51 80 26 156 50 170 55 40
13 42 13 134 -42z m-1785 -47 c6 -30 14 -93 18 -141 6 -94 -4 -130 -37 -130
-28 0 -40 30 -40 102 0 73 29 244 40 231 3 -4 12 -32 19 -62z m1381 -105 c39
-26 70 -49 68 -51 -3 -3 -238 13 -307 21 l-45 6 90 48 c74 41 92 47 106 37 9
-7 49 -34 88 -61z m488 -42 l-3 -95 -183 -95 c-101 -52 -185 -94 -187 -94 -3
0 -5 54 -5 120 0 90 3 120 13 120 7 0 84 31 172 69 88 38 168 70 178 70 16 1
17 -8 15 -95z m-740 -142 c2 -104 0 -122 -13 -122 -13 0 -15 20 -15 126 0 96
3 125 13 122 8 -3 13 -40 15 -126z m170 112 l102 -7 0 -129 c0 -115 -2 -129
-16 -124 -9 3 -24 6 -34 6 -17 0 -20 9 -22 83 l-3 82 -41 5 c-23 3 -46 4 -53
2 -7 -2 -11 -33 -11 -84 0 -69 -2 -79 -16 -74 -9 3 -24 6 -35 6 -18 0 -19 8
-19 118 0 65 3 122 7 125 4 4 14 5 22 3 9 -3 62 -8 119 -12z m162 -140 c0
-104 -2 -124 -15 -124 -13 0 -15 21 -15 130 0 111 2 129 15 124 12 -5 15 -29
15 -130z m-1735 50 c30 -8 29 -108 -2 -148 -27 -33 -27 -37 -10 -57 28 -34 96
-68 157 -80 56 -11 71 -19 107 -55 23 -24 54 -46 70 -49 15 -3 51 -15 78 -27
28 -12 69 -23 92 -25 36 -4 44 -1 58 20 11 18 14 36 10 60 -6 33 -4 37 25 52
41 21 89 16 200 -23 47 -16 136 -38 199 -48 l114 -18 41 24 c30 17 52 22 86
20 25 -2 79 -4 121 -4 l75 0 18 -42 c15 -37 16 -51 6 -99 -6 -30 -13 -55 -15
-55 -2 0 -25 27 -50 61 -30 38 -53 59 -64 57 -24 -5 -17 -54 16 -104 15 -24
46 -71 68 -104 22 -34 61 -94 87 -134 27 -39 48 -82 48 -95 0 -16 16 -39 47
-67 26 -24 44 -46 41 -49 -15 -15 -123 -35 -237 -45 -133 -12 -250 -5 -292 16
-17 8 -47 52 -89 127 -34 62 -85 142 -114 177 -106 132 -182 166 -355 157
-163 -7 -272 19 -466 113 -79 38 -120 66 -195 135 -52 48 -115 99 -140 113
-43 26 -51 27 -190 27 l-145 0 0 38 c0 36 3 40 40 54 136 51 151 54 304 64 86
5 167 11 181 13 46 6 55 6 75 0z"/>
<path d="M5166 2983 c-3 -3 -6 -17 -6 -30 0 -16 -6 -23 -19 -23 -29 0 -79 -46
-86 -80 -5 -25 -12 -30 -36 -30 -16 0 -29 -4 -29 -10 0 -5 11 -10 25 -10 18 0
28 -8 38 -32 17 -39 41 -63 80 -77 19 -8 27 -17 27 -36 0 -16 6 -25 15 -25 9
0 15 9 15 24 0 16 7 27 20 31 35 11 78 54 85 85 6 25 11 30 36 30 18 0 28 4
24 10 -3 6 -16 10 -29 10 -18 0 -27 10 -39 40 -12 32 -25 45 -56 58 -30 12
-41 23 -41 39 0 23 -13 37 -24 26z m-6 -99 c0 -31 23 -28 28 4 3 21 5 21 32 7
47 -24 67 -75 30 -75 -11 0 -20 -4 -20 -10 0 -5 9 -10 20 -10 29 0 25 -32 -6
-64 -32 -31 -54 -34 -54 -6 0 11 -7 20 -15 20 -8 0 -15 -9 -15 -20 0 -37 -41
-19 -74 32 -15 22 -15 29 -5 32 43 14 44 15 22 21 -32 10 -29 39 8 69 38 33
49 33 49 0z"/>
<path d="M4430 4965 c-92 -16 -212 -50 -262 -76 -34 -18 -43 -29 -39 -52 0 -4
-25 -26 -56 -50 -31 -23 -82 -65 -112 -93 -31 -28 -87 -69 -126 -92 -81 -47
-103 -66 -167 -143 -73 -86 -105 -168 -76 -197 20 -20 32 -14 104 45 96 78
149 110 196 118 22 4 63 17 92 30 28 12 67 25 86 29 125 24 161 39 229 97 38
32 82 64 97 72 16 8 66 47 111 86 49 43 109 83 148 101 61 28 80 50 54 65 -5
4 -14 18 -19 31 -5 13 -21 29 -35 34 -34 13 -131 11 -225 -5z m227 -28 c4 -5
1 -12 -6 -16 -10 -7 -8 -12 8 -23 21 -15 20 -16 -26 -36 -26 -11 -77 -46 -113
-76 -36 -31 -94 -76 -130 -100 -36 -23 -89 -63 -118 -88 -37 -32 -70 -50 -115
-62 -34 -10 -110 -33 -169 -52 -59 -19 -116 -34 -127 -34 -19 0 -145 -86 -211
-143 -34 -30 -35 -30 -38 -9 -8 57 137 227 240 282 35 19 88 57 118 85 30 29
83 70 116 93 41 28 65 51 72 72 8 20 23 35 45 45 46 19 179 53 252 64 68 11
190 9 202 -2z"/>
<path d="M5584 4947 c-10 -27 1 -150 14 -155 9 -3 12 18 12 82 0 52 -4 86 -10
86 -6 0 -13 -6 -16 -13z"/>
<path d="M5355 4890 c-9 -15 63 -140 80 -140 21 0 20 3 -21 76 -38 69 -49 80
-59 64z"/>
<path d="M5800 4843 c-37 -57 -45 -82 -32 -95 6 -6 22 13 46 55 20 36 36 70
36 76 0 24 -22 8 -50 -36z"/>
<path d="M5510 4720 c-117 -40 -194 -173 -169 -291 19 -89 65 -151 144 -192
56 -29 174 -29 231 1 49 25 97 73 121 121 27 54 25 183 -4 237 -30 56 -92 107
-154 127 -65 22 -101 21 -169 -3z m185 -33 c48 -25 86 -62 110 -110 65 -130 0
-282 -139 -322 -70 -20 -123 -15 -182 20 -85 50 -119 116 -112 220 8 135 120
223 263 207 22 -3 49 -9 60 -15z"/>
<path d="M5180 4717 c0 -14 113 -87 135 -87 31 0 13 20 -53 60 -74 44 -82 46
-82 27z"/>
<path d="M5945 4686 c-33 -19 -61 -41 -63 -50 -5 -24 8 -20 78 23 104 63 91
86 -15 27z"/>
<path d="M5115 4480 c-3 -5 0 -13 8 -16 24 -9 162 0 162 11 0 14 -161 19 -170
5z"/>
<path d="M5916 4481 c-10 -15 4 -19 84 -22 61 -3 75 -1 75 11 0 12 -17 16 -77
18 -42 1 -79 -2 -82 -7z"/>
<path d="M5238 4289 c-68 -40 -84 -59 -50 -59 25 0 144 78 137 90 -9 15 -15
13 -87 -31z"/>
<path d="M5875 4310 c-3 -5 11 -20 32 -33 89 -55 103 -61 113 -51 8 8 -9 23
-58 53 -74 44 -78 46 -87 31z"/>
<path d="M5385 4137 c-37 -67 -43 -91 -23 -85 12 4 86 124 87 141 1 4 -6 7
-14 7 -7 0 -30 -29 -50 -63z"/>
<path d="M5750 4190 c0 -15 71 -140 79 -140 21 0 17 19 -16 82 -21 37 -43 68
-50 68 -7 0 -13 -4 -13 -10z"/>
<path d="M5585 4148 c-10 -24 -1 -163 10 -163 13 0 19 155 6 168 -7 7 -12 5
-16 -5z"/>
</g>
</svg>
