<?xml version="1.0" standalone="no"?>
<!DOCTYPE svg PUBLIC "-//W3C//DTD SVG 20010904//EN"
 "http://www.w3.org/TR/2001/REC-SVG-20010904/DTD/svg10.dtd">
<svg version="1.0" xmlns="http://www.w3.org/2000/svg"
 width="1024.000000pt" height="559.000000pt" viewBox="0 0 1024.000000 559.000000"
 preserveAspectRatio="xMidYMid meet">
<metadata>
Created by potrace 1.16, written by Peter Selinger 2001-2019
</metadata>
<g transform="translate(0.000000,559.000000) scale(0.100000,-0.100000)"
fill="#000000" stroke="none">
<path d="M5106 5333 c-3 -27 -8 -91 -11 -143 -34 -608 -54 -922 -60 -928 -5
-5 -97 -23 -101 -20 -1 2 -16 99 -33 217 -17 118 -33 217 -36 219 -14 15 -12
-21 15 -208 17 -112 30 -211 30 -220 0 -10 -15 -20 -46 -28 -26 -7 -49 -11
-51 -8 -5 4 -82 228 -177 511 -55 163 -69 195 -81 183 -5 -5 117 -684 131
-731 7 -23 -84 -67 -96 -46 -5 6 -47 106 -95 220 -48 115 -91 206 -95 204 -8
-5 17 -70 125 -322 58 -134 58 -126 -7 -166 l-27 -17 -114 172 c-63 95 -153
234 -202 308 -241 368 -327 495 -338 495 -7 0 -11 -7 -9 -15 4 -17 139 -288
373 -746 l159 -310 -36 -35 c-25 -24 -37 -30 -42 -21 -9 14 -170 221 -260 334
-35 44 -66 77 -69 74 -3 -3 -2 -11 4 -18 5 -7 78 -101 161 -210 84 -108 152
-200 152 -205 0 -5 -12 -21 -27 -35 l-28 -26 -91 81 c-214 193 -667 587 -675
587 -21 0 -6 -27 49 -89 68 -76 580 -669 600 -694 12 -14 11 -22 -8 -52 -13
-21 -26 -32 -33 -28 -7 4 -93 70 -192 148 -236 185 -255 199 -261 192 -5 -5
48 -48 314 -257 72 -57 132 -107 132 -112 0 -5 -7 -22 -15 -39 l-16 -30 -152
79 c-84 44 -244 127 -357 184 -113 58 -298 153 -412 212 -113 58 -209 106
-212 106 -38 0 74 -80 527 -380 292 -194 533 -353 535 -355 2 -2 -18 -67 -24
-73 -2 -3 -161 59 -449 177 -54 23 -104 41 -109 41 -35 0 50 -38 491 -217 59
-23 62 -27 57 -52 -4 -14 -10 -30 -14 -34 -8 -9 -85 5 -260 43 -47 11 -173 38
-280 60 -107 22 -234 50 -281 60 -103 24 -99 23 -99 7 0 -7 21 -20 48 -29 26
-9 211 -73 412 -143 201 -70 380 -131 398 -137 29 -8 32 -12 32 -50 l0 -41
-52 7 c-29 3 -82 10 -118 15 -36 5 -119 17 -185 26 -189 26 -256 32 -261 24
-2 -4 33 -12 79 -18 197 -28 519 -71 527 -71 6 0 9 -15 7 -34 l-2 -34 -75 -6
c-41 -3 -248 -15 -460 -27 -606 -33 -743 -43 -747 -55 -4 -13 52 -18 352 -34
105 -6 303 -17 440 -26 138 -9 306 -19 375 -22 l125 -7 3 -37 c2 -21 0 -38 -4
-38 -23 0 -574 -83 -599 -90 l-30 -8 32 -1 c18 -1 94 8 170 20 76 11 165 24
198 29 33 4 99 14 148 21 48 6 89 10 91 8 3 -2 6 -17 8 -32 l3 -29 -415 -143
c-528 -182 -493 -169 -498 -185 -5 -14 4 -13 108 9 140 30 462 98 643 135
l209 44 13 -32 c7 -17 13 -32 12 -33 -1 0 -132 -56 -292 -123 -159 -67 -294
-126 -299 -131 -24 -22 33 -1 299 111 157 66 289 120 295 120 14 0 33 -51 23
-60 -4 -4 -98 -64 -208 -135 -238 -153 -780 -504 -847 -549 -49 -32 -59 -46
-33 -46 8 0 278 132 600 293 l585 293 21 -29 c12 -17 17 -32 12 -36 -5 -3 -58
-44 -118 -91 -59 -47 -131 -103 -160 -125 -145 -111 -215 -170 -205 -173 5 -2
109 74 231 170 122 95 233 182 246 192 25 19 25 19 48 -10 l23 -29 -32 -35
c-62 -69 -653 -747 -724 -830 -40 -47 -72 -89 -72 -93 0 -22 42 11 202 159
174 161 436 399 603 548 50 44 102 91 118 105 l27 25 27 -26 26 -26 -24 -34
c-13 -18 -88 -120 -166 -226 -147 -198 -173 -237 -155 -231 7 3 258 337 358
478 2 2 16 -6 33 -18 l30 -22 -43 -92 c-289 -618 -395 -849 -398 -864 -9 -52
36 -1 129 147 231 368 456 720 460 720 8 0 63 -31 63 -35 0 -3 -30 -83 -67
-178 -118 -307 -133 -347 -133 -359 0 -31 25 23 101 222 109 286 114 298 120
305 4 3 18 1 33 -4 31 -13 32 -20 7 -147 -67 -345 -80 -436 -56 -412 3 3 28
123 54 267 27 144 51 264 53 266 6 6 88 -17 88 -24 0 -4 -36 -116 -80 -250
-44 -133 -80 -244 -80 -247 0 -2 6 -4 13 -4 7 0 43 95 91 243 44 133 81 245
82 248 6 11 145 -16 154 -31 5 -8 10 -40 10 -70 0 -73 10 -130 23 -130 6 0 8
36 4 105 l-6 105 59 0 60 0 -7 -110 c-4 -74 -3 -110 4 -110 18 0 23 27 23 113
0 45 4 87 8 93 4 6 35 14 70 18 35 4 69 9 76 12 8 3 37 -72 90 -231 71 -213
89 -256 102 -243 2 3 -32 111 -75 240 l-79 236 44 11 c23 6 45 11 47 11 3 0
12 -42 21 -93 35 -193 77 -411 82 -419 3 -5 9 -6 13 -4 4 3 0 49 -11 102 -10
53 -30 162 -44 243 -13 80 -27 153 -29 161 -6 18 62 48 75 34 7 -8 115 -278
173 -434 14 -35 30 -66 36 -68 13 -4 -18 81 -119 333 -39 97 -68 180 -65 185
3 4 17 12 33 18 31 10 12 38 395 -573 185 -295 196 -310 210 -296 6 6 -26 86
-86 213 -259 551 -347 740 -347 743 0 5 72 46 75 43 1 -2 77 -103 169 -225 91
-123 169 -223 172 -223 14 0 -13 39 -165 243 -89 118 -161 217 -161 220 0 3
14 15 30 27 l30 21 137 -123 c244 -219 495 -448 622 -567 68 -64 130 -117 137
-119 22 -5 17 13 -13 50 -24 28 -693 796 -744 853 -17 19 -17 21 10 54 l27 33
220 -167 c120 -92 225 -172 232 -177 8 -7 12 -7 12 0 0 10 -111 99 -352 282
-54 41 -98 77 -98 80 1 3 11 17 23 33 l23 27 558 -280 c307 -154 564 -280 572
-280 31 0 10 19 -86 81 -56 35 -156 100 -223 144 -67 44 -206 134 -307 199
-102 66 -250 162 -329 214 -158 102 -171 110 -171 93 0 -6 71 -58 158 -115
291 -190 617 -402 655 -425 106 -64 -9 -12 -392 179 l-423 211 17 25 c16 24
13 44 -6 44 -6 0 -35 -21 -64 -48 -95 -85 -249 -164 -375 -194 -87 -20 -280
-15 -375 11 -172 46 -303 137 -377 262 -45 76 -49 116 -13 149 26 24 32 63 16
89 -6 10 -4 25 5 42 19 38 18 65 -7 98 -32 43 -22 63 40 83 30 10 65 28 78 40
43 41 33 69 -92 258 -63 95 -115 180 -115 190 0 10 7 37 15 60 21 60 19 104
-11 201 -41 136 -24 218 71 348 77 104 234 204 381 241 165 42 327 36 493 -20
47 -16 89 -27 93 -24 16 10 7 30 -26 52 l-34 23 244 484 c156 309 241 486 234
490 -6 4 -14 4 -17 1 -8 -8 -528 -799 -584 -887 -3 -5 -27 2 -55 15 -27 13
-78 34 -114 46 -36 13 -66 25 -68 26 -4 3 52 316 105 586 16 82 14 114 -6 92
-5 -5 -57 -154 -116 -332 -101 -302 -109 -323 -129 -318 -11 3 -36 6 -53 6
-30 0 -33 3 -33 33 0 17 9 104 20 191 11 88 20 171 19 185 -2 83 -28 -77 -55
-336 l-6 -63 -58 0 -57 0 -7 68 c-3 37 -11 153 -16 257 -6 105 -14 253 -20
330 -5 77 -12 203 -15 280 -4 77 -9 148 -11 158 -9 31 -22 18 -28 -30z m49
-761 c10 -161 16 -295 14 -296 -2 -2 -25 -7 -51 -10 l-48 -7 0 33 c0 19 6 135
14 259 8 123 17 280 21 349 3 69 9 139 13 155 7 33 10 -9 37 -483z m-930 -166
c130 -197 237 -362 238 -366 1 -5 -17 -22 -40 -39 l-42 -30 -56 107 c-106 203
-357 707 -347 697 6 -5 117 -171 247 -369z m1864 13 c-95 -189 -173 -345 -175
-347 -6 -8 -84 44 -80 53 7 20 420 644 424 641 2 -2 -74 -159 -169 -347z
m-507 26 l-38 -210 -28 2 c-39 3 -41 7 -26 55 26 89 123 369 126 366 1 -2 -14
-98 -34 -213z m-929 145 c8 -25 42 -123 76 -218 l60 -173 -27 -10 c-15 -5 -32
-11 -39 -14 -13 -4 -11 -13 -58 246 -19 108 -38 205 -41 215 -5 13 -4 16 3 9
6 -5 17 -30 26 -55z m-729 -556 c131 -115 247 -216 257 -224 19 -15 19 -17
-16 -62 l-37 -46 -56 66 c-65 77 -208 243 -337 393 -99 113 -125 149 -79 108
16 -14 136 -120 268 -235z m1605 162 c101 -28 293 -106 326 -132 19 -16 19
-16 -10 -10 -234 45 -434 27 -595 -54 -86 -44 -184 -115 -230 -168 -22 -26
-58 -82 -80 -126 -50 -99 -53 -164 -13 -304 26 -92 26 -95 10 -146 -29 -90
-24 -110 53 -226 38 -58 87 -131 109 -162 70 -99 64 -125 -35 -154 -30 -9 -58
-24 -64 -34 -13 -24 -13 -77 0 -85 19 -12 10 -25 -17 -25 -15 0 -58 -19 -95
-41 -56 -34 -74 -41 -103 -36 -28 5 -37 2 -45 -13 -5 -10 -10 -20 -10 -22 0
-9 123 -7 172 3 67 14 104 7 113 -22 14 -44 -42 -63 -114 -38 -18 6 -34 9 -37
6 -9 -9 52 -37 80 -37 22 0 24 -3 19 -39 -13 -92 136 -275 279 -344 106 -52
213 -78 342 -84 175 -9 327 29 470 116 38 23 71 40 73 37 8 -7 -171 -180 -239
-231 -145 -108 -336 -191 -513 -222 -113 -19 -327 -22 -424 -4 -161 29 -331
96 -464 184 -426 281 -646 774 -572 1286 82 560 499 1020 1030 1135 109 24
119 24 310 21 158 -3 191 -6 274 -29z m-1573 -672 l52 -26 -23 -52 c-13 -28
-28 -50 -34 -48 -13 2 -791 519 -806 535 -8 8 568 -282 811 -409z m-620 -234
c93 -21 252 -55 439 -94 l110 -23 -1 -42 c0 -22 -3 -43 -6 -46 -2 -3 -31 5
-64 16 -32 12 -147 52 -254 89 -282 98 -312 109 -318 115 -8 7 -5 7 94 -15z
m529 -485 c4 -31 5 -58 2 -61 -3 -3 -81 0 -173 6 -93 6 -275 17 -404 25 -392
25 -421 27 -418 30 2 2 140 11 308 20 168 9 357 20 420 24 63 5 147 9 187 10
l72 1 6 -55z m1165 -263 c0 -22 -30 -45 -61 -47 -19 0 -52 -5 -74 -9 l-40 -8
55 36 c50 33 120 50 120 28z m-1112 -51 c7 -21 12 -41 12 -44 0 -6 -29 -12
-265 -61 -66 -14 -187 -39 -268 -57 -82 -17 -150 -29 -153 -26 -3 2 30 16 73
30 148 48 547 187 551 192 17 17 40 1 50 -34z m125 -287 c15 -25 27 -48 27
-52 0 -8 -891 -455 -896 -450 -1 2 102 71 229 153 126 83 314 205 416 272 102
68 188 123 191 122 3 0 17 -20 33 -45z m210 -273 l36 -40 -282 -252 c-155
-140 -312 -282 -350 -318 -37 -35 -69 -62 -71 -60 -6 6 608 708 620 708 6 1
27 -17 47 -38z m2018 -223 c107 -122 214 -245 239 -273 164 -182 180 -210 50
-90 -79 73 -122 111 -373 335 l-196 175 37 38 c20 20 39 37 43 37 4 0 94 -100
200 -222z m-1757 16 c26 -14 46 -29 44 -33 -2 -4 -102 -162 -222 -352 -201
-316 -256 -398 -228 -344 5 11 33 72 62 135 59 129 267 575 281 603 12 21 8
22 63 -9z m1348 -141 c162 -344 268 -577 265 -580 -3 -2 -322 493 -405 629
l-23 37 48 25 c26 13 50 22 52 20 2 -1 30 -61 63 -131z"/>
<path d="M5140 4180 c-15 -5 31 -8 115 -8 84 0 128 3 110 8 -40 10 -193 10
-225 0z"/>
<path d="M4808 4116 c-122 -43 -314 -160 -373 -227 -11 -12 12 1 50 29 99 71
236 147 330 183 44 17 82 33 84 35 11 10 -30 1 -91 -20z"/>
<path d="M5057 4100 c-6 -25 -44 -27 -50 -2 -4 15 -5 15 -6 0 -1 -22 15 -31
43 -24 25 6 41 32 27 41 -5 2 -11 -4 -14 -15z"/>
<path d="M5330 4081 c-55 -17 -104 -40 -85 -40 14 0 145 45 152 53 10 10 -8 6
-67 -13z"/>
<path d="M5122 3986 c-87 -58 -151 -117 -191 -178 -40 -58 -98 -194 -89 -203
3 -3 16 23 28 57 44 117 111 201 238 295 62 47 80 63 69 63 -1 0 -26 -16 -55
-34z"/>
<path d="M4838 3997 c11 -13 11 -20 -3 -40 -32 -49 -112 -63 -108 -19 2 12 -2
22 -8 22 -6 0 -9 -12 -7 -27 3 -25 7 -28 46 -31 36 -3 47 1 73 27 32 33 36 70
9 79 -13 4 -13 3 -2 -11z"/>
<path d="M4493 3761 c19 -23 27 -44 28 -74 1 -39 1 -40 10 -15 13 34 -10 91
-42 109 -22 11 -22 10 4 -20z"/>
<path d="M4365 3735 c-117 -59 -152 -235 -47 -235 26 0 26 1 -8 18 -42 20 -50
54 -24 104 62 123 202 150 179 35 -5 -24 -4 -28 4 -17 17 24 13 75 -7 93 -23
21 -58 21 -97 2z"/>
<path d="M4401 3486 c-44 -32 -94 -41 -131 -22 -33 16 -42 3 -11 -14 46 -24
124 -6 165 39 25 28 17 27 -23 -3z"/>
<path d="M4085 3440 c-52 -103 -89 -234 -99 -350 -5 -59 -4 -56 13 31 17 89
66 245 105 332 24 54 11 45 -19 -13z"/>
<path d="M4665 3351 c-42 -11 -69 -26 -157 -89 -70 -49 -92 -72 -71 -72 4 0
46 22 93 49 101 59 162 75 223 61 62 -14 103 -12 122 6 15 16 15 18 0 33 -18
18 -156 26 -210 12z"/>
<path d="M4101 3323 c-8 -17 -41 -121 -41 -132 0 -15 20 19 28 49 6 19 15 50
21 68 11 35 7 42 -8 15z"/>
<path d="M4715 3219 c-16 -5 -55 -27 -84 -50 -30 -23 -70 -48 -89 -56 -19 -8
-32 -17 -29 -20 10 -10 68 16 117 52 62 45 117 68 146 61 35 -9 29 -33 -10
-40 -41 -8 -216 -92 -216 -104 0 -5 13 -7 28 -4 15 2 56 -6 90 -17 34 -12 75
-21 91 -21 16 0 33 -5 37 -11 11 -18 -18 -30 -64 -26 -30 3 -40 1 -34 -5 18
-18 90 -14 109 5 15 14 16 21 5 37 -9 15 -10 26 -2 40 5 10 10 35 10 55 0 28
7 44 30 65 17 15 30 34 30 41 0 7 -10 3 -24 -10 l-24 -23 -21 21 c-22 22 -47
25 -96 10z m65 -96 c0 -10 -4 -24 -9 -32 -12 -19 -24 3 -16 29 8 25 25 26 25
3z m-43 -78 c-6 -4 -97 27 -97 34 0 4 19 16 43 28 l42 20 7 -40 c4 -22 7 -41
5 -42z"/>
<path d="M4956 2973 c45 -83 73 -117 49 -59 -19 46 -60 112 -75 121 -6 3 6
-24 26 -62z"/>
<path d="M4080 2981 c-14 -27 -13 -104 2 -119 17 -17 43 -15 59 5 13 15 12 15
-10 3 -21 -11 -26 -10 -38 6 -16 21 -11 77 8 100 10 13 14 12 30 -2 21 -19 27
-6 7 14 -18 18 -46 14 -58 -7z"/>
<path d="M4271 2837 c-2 -45 64 -143 113 -169 12 -6 3 9 -22 36 -24 26 -54 71
-67 99 -13 29 -24 44 -24 34z"/>
<path d="M4877 2803 c-30 -34 -31 -70 -3 -97 26 -27 46 -34 46 -16 0 5 -9 14
-20 20 -27 15 -26 63 2 90 16 15 18 20 6 20 -8 0 -22 -8 -31 -17z"/>
<path d="M4803 2722 c-11 -27 -35 -65 -53 -85 -43 -49 -33 -57 13 -11 20 21
43 58 53 86 21 65 12 72 -13 10z"/>
<path d="M3971 2723 c-2 -81 49 -260 110 -388 55 -115 67 -117 18 -4 -54 124
-77 195 -104 319 -13 58 -24 91 -24 73z"/>
<path d="M4961 2737 c-14 -6 -26 -18 -29 -24 -4 -15 24 -17 33 -3 3 6 17 10
30 10 32 0 56 10 49 21 -8 13 -55 11 -83 -4z"/>
<path d="M4270 2682 c0 -29 21 -52 48 -51 15 0 20 3 12 6 -8 3 -25 17 -37 31
-13 15 -23 21 -23 14z"/>
<path d="M4075 2540 c9 -41 44 -125 50 -119 4 5 -43 140 -52 149 -3 3 -2 -11
2 -30z"/>
<path d="M4656 2510 c-18 -45 -20 -88 -6 -110 7 -11 10 -5 10 25 0 22 5 57 11
78 14 53 5 57 -15 7z"/>
<path d="M4194 2375 c-9 -13 -14 -30 -11 -37 3 -8 9 -2 15 14 6 14 19 31 29
37 17 10 17 10 1 11 -10 0 -25 -11 -34 -25z"/>
<path d="M4220 2341 c-25 -47 -5 -130 46 -190 51 -61 123 -80 145 -38 9 18 9
20 -2 10 -37 -36 -123 8 -157 80 -33 69 -36 94 -18 122 25 38 54 31 106 -23
33 -34 51 -64 60 -98 10 -36 15 -43 17 -26 7 34 -40 126 -79 156 -43 32 -102
36 -118 7z"/>
<path d="M5008 2103 c53 -76 189 -167 291 -197 74 -22 100 -19 31 3 -93 30
-197 91 -272 160 -47 43 -64 55 -50 34z"/>
<path d="M4446 2093 c-4 -14 -18 -25 -34 -29 -46 -10 -48 -12 -10 -13 28 -1
40 4 48 20 6 11 9 25 7 32 -2 7 -7 2 -11 -10z"/>
<path d="M4611 2025 c-19 -8 -31 -18 -28 -21 3 -3 15 0 28 6 21 12 94 9 149
-5 25 -6 25 -6 -2 10 -41 23 -107 28 -147 10z"/>
<path d="M4623 1975 c-13 -9 -23 -25 -23 -36 0 -25 17 -59 31 -59 5 0 2 11 -6
24 -36 55 29 86 108 52 62 -26 104 -95 70 -116 -17 -10 -17 -11 2 -8 45 7 19
92 -40 128 -46 28 -114 36 -142 15z"/>
<path d="M4375 1941 c11 -19 166 -131 231 -167 37 -21 98 -50 137 -66 78 -32
245 -69 304 -67 27 1 15 5 -42 15 -215 36 -417 126 -582 260 -41 34 -60 43
-48 25z"/>
<path d="M4862 1869 c1 -33 -3 -45 -23 -60 -13 -10 -19 -19 -13 -19 5 0 20 9
32 20 23 22 31 83 12 95 -6 4 -9 -10 -8 -36z"/>
<path d="M5550 1860 l-55 -7 65 0 c36 -1 76 3 90 7 22 7 21 8 -10 7 -19 0 -60
-3 -90 -7z"/>
<path d="M5665 1761 c-44 -21 -125 -50 -180 -65 -167 -45 -165 -44 -105 -39
109 11 287 74 355 127 28 22 20 19 -70 -23z"/>
<path d="M5208 1769 c-25 -14 -22 -36 7 -55 44 -29 127 1 111 41 -8 23 -23 18
-22 -7 1 -19 -5 -23 -34 -26 -19 -1 -42 2 -50 8 -13 9 -12 13 9 30 24 21 10
27 -21 9z"/>
<path d="M5762 4403 c-34 -86 -60 -159 -57 -161 8 -8 8 -7 74 156 66 166 65
162 53 162 -5 0 -37 -70 -70 -157z"/>
<path d="M6670 4379 c-63 -56 -133 -118 -155 -138 -22 -20 -128 -113 -235
-207 -274 -241 -324 -288 -319 -302 3 -10 245 197 572 490 42 38 77 67 77 64
0 -3 -124 -150 -275 -327 -151 -176 -275 -325 -275 -330 0 -23 24 -2 102 88
197 232 469 545 550 636 79 88 103 127 81 127 -5 0 -60 -46 -123 -101z"/>
<path d="M6187 4195 c-85 -112 -113 -156 -88 -141 12 8 191 242 191 251 0 19
-25 -8 -103 -110z"/>
<path d="M7212 4030 c-74 -38 -254 -131 -400 -206 -663 -339 -646 -330 -636
-346 3 -5 78 29 167 75 328 171 762 390 752 380 -5 -6 -201 -138 -434 -293
-263 -175 -420 -285 -414 -291 6 -6 216 127 554 352 299 199 548 365 554 370
6 6 6 12 0 18 -6 6 -59 -16 -143 -59z"/>
<path d="M6565 3923 c-264 -208 -445 -354 -445 -359 0 -3 7 -4 15 -1 17 7 505
395 505 402 0 12 -19 2 -75 -42z"/>
<path d="M5690 3939 c-15 -28 -4 -38 15 -13 17 22 19 34 5 34 -5 0 -14 -9 -20
-21z"/>
<path d="M5820 3861 c-7 -15 -7 -21 0 -21 12 0 25 28 17 36 -3 3 -10 -4 -17
-15z"/>
<path d="M5916 3830 c-24 -29 -33 -50 -22 -50 9 0 59 71 54 76 -3 3 -17 -9
-32 -26z"/>
<path d="M6570 3399 c-156 -66 -287 -122 -289 -125 -2 -2 -2 -6 1 -9 5 -6 577
232 593 246 25 23 -41 -1 -305 -112z"/>
<path d="M7205 3380 c-30 -7 -50 -12 -325 -70 -162 -34 -170 -36 -398 -83
-156 -33 -182 -40 -170 -53 8 -7 60 3 596 116 57 12 105 20 107 18 2 -2 -64
-27 -148 -55 -343 -116 -513 -176 -521 -184 -34 -32 43 -9 474 141 129 45 281
98 338 117 65 22 102 40 102 49 0 15 -9 16 -55 4z"/>
<path d="M6652 3025 c-269 -39 -349 -55 -278 -55 51 0 601 82 611 91 14 14
-16 11 -333 -36z"/>
<path d="M6362 2878 c5 -13 62 -17 778 -58 118 -6 216 -13 218 -15 6 -5 -107
-14 -398 -30 -456 -26 -595 -36 -605 -47 -12 -12 156 -7 530 16 132 9 328 20
435 26 281 14 340 20 340 34 0 9 -63 16 -217 25 -120 6 -290 16 -378 21 -285
17 -680 40 -693 40 -8 0 -12 -6 -10 -12z"/>
<path d="M6350 2640 c0 -5 2 -10 4 -10 5 0 382 -48 510 -65 104 -14 139 -14
125 -1 -2 2 -78 13 -169 25 -91 12 -232 30 -315 41 -82 11 -151 20 -152 20 -2
0 -3 -4 -3 -10z"/>
<path d="M6332 2548 c3 -7 47 -27 99 -45 52 -18 186 -64 299 -103 113 -40 223
-78 245 -85 22 -7 34 -13 27 -14 -11 -1 -260 50 -542 110 -135 29 -170 33
-170 21 0 -11 20 -16 220 -57 69 -14 154 -32 190 -40 36 -8 121 -26 190 -40
122 -25 222 -46 307 -66 55 -12 63 -11 63 4 0 7 -46 28 -107 49 -60 20 -234
79 -388 133 -295 101 -425 145 -432 145 -3 0 -3 -6 -1 -12z"/>
<path d="M6260 2352 c0 -4 19 -15 43 -24 23 -9 159 -64 301 -122 252 -103 291
-117 270 -97 -9 10 -53 28 -422 177 -199 80 -192 78 -192 66z"/>
<path d="M5064 1210 c-41 -32 -111 -79 -182 -124 -23 -14 -63 -54 -89 -87 -26
-33 -57 -62 -70 -65 -33 -9 -80 2 -113 26 -74 53 -114 41 -232 -68 -43 -39
-90 -74 -105 -78 -73 -16 -105 -32 -188 -94 -49 -38 -128 -87 -175 -111 l-85
-42 -148 -5 c-95 -3 -145 -8 -139 -14 10 -10 416 5 607 23 142 13 425 13 540
0 50 -6 104 -10 120 -10 30 1 30 1 -5 9 -134 31 -421 37 -694 15 -99 -8 -181
-13 -183 -11 -2 2 27 22 64 44 37 22 97 63 133 91 45 35 86 57 131 71 54 16
80 32 140 86 40 36 82 70 93 76 16 9 18 8 12 -8 -5 -15 -2 -15 13 4 25 28 43
28 89 -3 20 -13 52 -28 70 -31 l33 -7 -53 -35 c-29 -19 -71 -52 -93 -73 -22
-21 -49 -45 -60 -54 -11 -8 -15 -15 -10 -15 11 0 42 21 123 85 28 22 74 56
102 75 28 19 73 62 100 96 27 33 66 72 87 86 114 74 151 100 182 125 l34 28
-5 -25 c-33 -142 -33 -140 -19 -173 8 -17 14 -48 15 -67 1 -31 -3 -37 -40 -55
-60 -29 -75 -44 -100 -102 -17 -37 -36 -60 -69 -83 -59 -41 -52 -51 10 -14 39
23 52 38 76 91 26 59 33 67 78 86 65 27 81 59 57 120 -20 54 -20 95 1 160 9
29 18 54 19 56 8 9 79 -56 129 -119 42 -53 68 -75 106 -91 38 -17 63 -39 107
-93 47 -59 69 -77 129 -106 39 -19 90 -54 114 -77 23 -24 45 -40 48 -38 10 11
-96 108 -139 127 -51 22 -110 64 -110 79 0 5 10 9 23 9 12 0 64 21 116 47 l93
47 22 -26 c11 -14 32 -43 45 -65 23 -37 121 -133 121 -119 0 4 -24 33 -53 64
-29 31 -63 74 -75 95 l-22 38 23 -12 c12 -7 44 -32 71 -56 52 -46 96 -72 156
-92 19 -6 73 -43 120 -81 80 -67 170 -119 234 -134 65 -16 6 -17 -176 -5 -329
24 -704 11 -981 -32 -73 -11 -204 -23 -292 -26 -192 -7 -242 -22 -70 -22 131
0 247 9 425 33 127 16 496 41 605 40 39 0 144 -5 235 -12 91 -7 258 -12 373
-12 175 0 207 2 207 15 0 12 -18 13 -114 8 -92 -5 -121 -3 -148 10 -18 8 -61
26 -95 40 -69 28 -120 61 -207 136 -36 30 -86 61 -125 76 -40 15 -89 45 -125
76 -59 51 -124 89 -149 89 -8 0 -59 -22 -113 -50 -54 -27 -109 -50 -120 -50
-13 0 -32 14 -49 36 -15 19 -51 46 -80 61 -40 18 -68 43 -107 91 -61 76 -130
132 -162 132 -13 0 -41 -13 -62 -30z"/>
<path d="M4913 996 c-18 -12 -48 -43 -67 -67 -18 -24 -52 -57 -75 -74 -48 -35
-55 -54 -10 -28 24 14 200 194 187 193 -1 -1 -18 -11 -35 -24z"/>
<path d="M4390 810 c-19 -16 -53 -36 -75 -45 -73 -30 -109 -50 -113 -63 -3
-11 1 -10 19 2 14 8 43 22 67 30 51 18 127 69 135 91 8 20 8 20 -33 -15z"/>
</g>
</svg>
