<?xml version="1.0" standalone="no"?>
<!DOCTYPE svg PUBLIC "-//W3C//DTD SVG 20010904//EN"
 "http://www.w3.org/TR/2001/REC-SVG-20010904/DTD/svg10.dtd">
<svg version="1.0" xmlns="http://www.w3.org/2000/svg"
 width="1024.000000pt" height="559.000000pt" viewBox="0 0 1024.000000 559.000000"
 preserveAspectRatio="xMidYMid meet">
<metadata>
Created by potrace 1.16, written by Peter Selinger 2001-2019
</metadata>
<g transform="translate(0.000000,559.000000) scale(0.100000,-0.100000)"
fill="#000000" stroke="none">
<path d="M5110 4115 c0 -617 3 -935 10 -935 7 0 10 318 10 935 0 617 -3 935
-10 935 -7 0 -10 -318 -10 -935z"/>
<path d="M3936 4752 c-3 -6 35 -79 85 -164 51 -84 182 -304 292 -488 110 -184
283 -474 385 -645 187 -314 207 -344 218 -332 8 8 8 7 -306 532 -145 242 -348
584 -453 760 -104 176 -195 326 -202 333 -8 9 -15 10 -19 4z"/>
<path d="M6265 4719 c-227 -381 -369 -620 -631 -1058 -172 -288 -311 -528
-308 -533 4 -6 12 -4 19 4 7 7 100 159 207 338 107 179 322 538 477 798 197
330 280 477 273 484 -8 8 -19 -3 -37 -33z"/>
<path d="M5635 4660 c-3 -5 -25 -78 -49 -162 -76 -271 -268 -957 -305 -1093
-11 -38 -30 -105 -42 -148 -20 -72 -21 -103 0 -81 7 7 105 353 267 939 7 28
45 161 82 298 38 136 66 250 61 252 -4 3 -10 1 -14 -5z"/>
<path d="M4600 4649 c0 -18 101 -397 276 -1034 57 -209 107 -393 112 -409 7
-29 32 -49 32 -26 0 6 -42 165 -94 353 -94 339 -171 622 -247 912 -51 191 -58
215 -70 215 -5 0 -9 -5 -9 -11z"/>
<path d="M3686 4162 c-5 -8 310 -321 829 -822 77 -74 177 -170 221 -213 48
-46 84 -75 88 -68 7 11 -16 36 -224 236 -168 161 -407 393 -655 635 -237 231
-251 244 -259 232z"/>
<path d="M6107 3743 c-598 -576 -697 -675 -691 -685 8 -12 20 -2 179 152 179
174 385 373 708 684 141 137 257 253 257 257 0 5 -5 9 -10 9 -6 0 -205 -187
-443 -417z"/>
<path d="M3065 3929 c-4 -6 -5 -12 -4 -13 2 -2 171 -97 374 -211 204 -115 420
-236 480 -270 61 -34 126 -72 145 -83 19 -12 41 -22 48 -22 30 0 2 25 -73 68
-44 24 -165 92 -270 152 -104 59 -284 160 -400 225 -115 64 -229 128 -252 141
-27 16 -44 20 -48 13z"/>
<path d="M6885 3776 c-148 -84 -508 -286 -800 -450 -291 -164 -547 -309 -568
-322 -51 -33 -37 -51 16 -20 65 37 252 142 477 269 113 63 291 163 395 222
363 204 451 253 609 342 145 81 191 114 154 112 -7 0 -134 -69 -283 -153z"/>
<path d="M3177 3299 c10 -10 134 -46 573 -163 236 -63 305 -77 285 -57 -10 10
-58 24 -315 92 -85 22 -236 63 -335 90 -183 50 -228 58 -208 38z"/>
<path d="M4210 3250 c0 -72 -18 -127 -70 -217 -67 -118 -73 -199 -18 -275 l19
-28 -45 -12 c-25 -7 -58 -22 -73 -34 -23 -18 -27 -29 -26 -64 3 -57 44 -140
93 -184 40 -36 148 -94 255 -136 33 -14 101 -52 150 -85 50 -34 108 -72 131
-84 22 -13 49 -36 59 -53 83 -142 540 -196 812 -97 43 16 72 36 113 79 30 31
70 65 87 74 18 9 57 37 88 61 55 45 55 45 75 25 31 -31 68 -36 98 -13 23 17
27 28 28 69 0 27 3 54 7 60 3 6 41 31 84 56 111 64 176 127 214 204 78 158 35
332 -101 408 -47 26 -65 31 -130 31 -56 0 -87 -6 -122 -22 -74 -34 -141 -113
-171 -204 -5 -15 -11 -14 -54 7 -67 31 -181 68 -284 90 -115 25 -415 26 -541
1 -116 -23 -224 -59 -328 -110 -65 -31 -100 -42 -149 -45 -35 -3 -62 -1 -59 4
66 135 62 247 -13 399 -32 63 -103 155 -120 155 -5 0 -9 -27 -9 -60z m80 -62
c72 -111 100 -264 66 -361 -16 -43 -62 -107 -78 -107 -6 0 -4 7 4 18 9 9 21
35 28 57 10 36 9 49 -14 114 -14 41 -26 85 -26 98 0 13 -4 23 -10 23 -5 0 -10
-6 -10 -14 0 -7 -18 -49 -40 -92 -41 -81 -48 -122 -29 -171 l10 -28 -27 25
c-62 58 -70 138 -22 226 61 114 76 150 88 212 7 34 14 62 17 62 2 0 21 -28 43
-62z m1886 -209 c93 -47 144 -161 123 -276 -22 -119 -93 -204 -241 -290 -43
-25 -83 -53 -88 -63 -6 -10 -10 -39 -10 -63 0 -52 -18 -72 -55 -63 -48 12 -48
35 0 131 43 86 47 89 114 126 92 51 154 115 180 184 27 71 26 100 -1 155 -29
55 -74 80 -145 80 -45 0 -58 -5 -89 -32 -21 -18 -45 -51 -55 -73 -19 -42 -26
-144 -10 -160 25 -27 21 -54 -11 -91 -112 -128 -404 -214 -724 -214 -244 0
-432 40 -631 135 -139 66 -182 80 -310 100 -131 20 -196 46 -191 77 2 18 17
29 62 46 64 26 118 21 58 -4 -45 -20 -41 -54 8 -71 71 -24 202 -11 231 23 16
20 -3 40 -57 59 -48 16 -34 22 66 28 64 3 91 11 185 55 158 73 260 99 479 122
181 19 455 -27 621 -104 75 -35 75 -35 68 -68 -6 -29 -5 -31 9 -20 9 7 19 29
23 50 18 101 98 207 178 236 61 22 153 16 213 -15z m-1883 -144 c0 -22 -8 -58
-19 -80 l-19 -40 -3 33 c-4 39 -17 41 -30 5 l-10 -28 -11 28 c-18 46 -13 84
20 149 l31 61 20 -44 c11 -24 21 -62 21 -84z m1826 25 c78 -39 91 -137 30
-232 -22 -34 -55 -64 -113 -102 l-81 -54 -6 72 c-3 39 -13 86 -22 103 -33 63
5 178 71 212 47 26 73 26 121 1z m-1765 -197 c19 -5 19 -6 1 -19 -32 -23 -70
-18 -84 12 l-12 26 38 -6 c21 -4 47 -10 57 -13z m-114 -13 c10 -18 8 -20 -17
-20 -59 0 -96 22 -55 33 39 10 62 6 72 -13z m-105 -98 c28 -6 83 -16 122 -22
87 -12 150 -33 218 -69 179 -98 451 -161 692 -161 271 0 577 83 705 190 25 22
48 40 51 40 14 0 -20 -125 -50 -182 -101 -193 -369 -308 -715 -308 -249 0
-440 57 -638 190 -51 34 -152 89 -224 121 -146 66 -187 94 -233 163 -42 62
-44 82 -5 63 15 -8 50 -19 77 -25z m641 -482 c198 -69 486 -74 723 -14 52 13
96 22 98 20 2 -2 -18 -18 -45 -35 -30 -19 -88 -41 -147 -56 -229 -58 -591 -13
-680 85 -22 25 -22 25 51 0z"/>
<path d="M5939 2937 c-39 -26 -99 -102 -99 -125 0 -9 13 5 29 30 17 26 53 62
83 82 29 20 46 36 37 36 -9 0 -31 -10 -50 -23z"/>
<path d="M5006 2860 c-87 -14 -177 -39 -203 -56 -13 -8 -30 -25 -39 -39 -15
-23 -15 -27 -1 -49 79 -120 671 -132 783 -15 24 25 26 33 18 56 -12 35 -54 58
-150 84 -91 23 -312 34 -408 19z m422 -49 c35 -11 74 -27 88 -36 28 -18 34
-51 7 -40 -107 46 -211 65 -358 65 -127 0 -212 -13 -306 -45 -88 -30 -79 -28
-79 -10 0 20 36 42 101 61 88 27 155 33 324 29 125 -3 174 -8 223 -24z m-76
-52 c76 -13 158 -38 158 -48 0 -13 -86 -43 -163 -56 -20 -3 -104 -6 -185 -6
-156 0 -263 16 -324 47 l-33 17 40 14 c140 49 334 61 507 32z"/>
<path d="M4680 2691 c0 -19 47 -61 88 -78 37 -16 102 -34 102 -28 0 2 -30 17
-67 35 -38 17 -80 43 -95 57 -16 15 -28 21 -28 14z"/>
<path d="M5611 2676 c-58 -62 -209 -105 -401 -114 -103 -4 -119 -7 -90 -15 44
-12 204 -2 293 17 120 27 237 92 225 126 -2 6 -13 1 -27 -14z"/>
<path d="M5780 2319 c-29 -34 -88 -84 -129 -111 -92 -60 -97 -65 -46 -44 55
23 139 82 175 122 26 31 65 94 57 94 -1 0 -27 -28 -57 -61z"/>
<path d="M4445 2338 c28 -18 75 -52 105 -75 30 -23 69 -47 85 -53 36 -13 27
-4 -40 44 -104 75 -151 104 -175 111 -16 4 -7 -5 25 -27z"/>
<path d="M4695 2180 c17 -11 37 -20 45 -20 8 1 -1 9 -20 20 -46 25 -63 25 -25
0z"/>
<path d="M6960 3274 c-47 -13 -173 -47 -280 -74 -405 -104 -401 -103 -386
-117 7 -7 106 16 471 112 116 31 231 60 258 66 29 7 47 16 47 25 0 18 -6 17
-110 -12z"/>
<path d="M4460 3138 c0 -7 64 -49 141 -93 164 -93 159 -91 159 -73 0 11 -277
178 -295 178 -3 0 -5 -6 -5 -12z"/>
<path d="M4496 2962 c-14 -13 -3 -21 45 -32 45 -11 71 -9 57 5 -9 9 -97 33
-102 27z"/>
<path d="M5698 2958 c-28 -10 -38 -28 -15 -28 29 0 57 13 57 26 0 16 -5 16
-42 2z"/>
<path d="M2757 2804 c-4 -4 -4 -11 -1 -15 3 -5 282 -9 620 -9 488 0 615 3 612
13 -4 9 -137 13 -615 15 -335 1 -612 -1 -616 -4z"/>
<path d="M6430 2795 c0 -13 61 -15 528 -13 343 2 527 6 527 13 0 7 -184 11
-527 13 -467 2 -528 0 -528 -13z"/>
<path d="M3825 2480 c-154 -40 -436 -114 -538 -140 -60 -15 -111 -31 -114 -34
-17 -17 14 -17 79 -1 104 25 581 149 661 171 9 3 17 10 17 15 0 13 -24 10
-105 -11z"/>
<path d="M6326 2480 c10 -10 151 -50 524 -150 231 -62 212 -58 217 -44 2 7
-72 31 -189 63 -106 29 -266 72 -356 97 -162 44 -215 53 -196 34z"/>
<path d="M3950 2177 c-169 -94 -439 -245 -760 -425 -112 -63 -150 -92 -121
-92 9 0 274 146 776 427 88 50 195 110 238 133 73 41 93 60 65 60 -7 0 -96
-47 -198 -103z"/>
<path d="M6092 2268 c4 -10 736 -428 797 -455 8 -4 72 -39 143 -80 129 -73
148 -81 148 -64 0 11 -39 34 -585 338 -535 299 -511 286 -503 261z"/>
<path d="M4057 1776 c-202 -198 -367 -365 -367 -369 0 -5 6 -7 14 -5 26 6 741
717 731 727 -6 6 -143 -121 -378 -353z"/>
<path d="M5820 2111 c0 -11 704 -713 721 -719 5 -2 9 3 9 11 0 13 -700 707
-721 715 -5 2 -9 -1 -9 -7z"/>
<path d="M4604 1915 c-148 -251 -607 -1060 -611 -1076 -16 -60 33 14 187 284
96 166 240 418 322 561 93 161 148 266 146 280 -3 16 -13 5 -44 -49z"/>
<path d="M5606 1932 c-6 -10 618 -1105 633 -1110 6 -2 11 2 11 8 0 17 -615
1096 -630 1105 -5 3 -11 2 -14 -3z"/>
<path d="M4860 1858 c-5 -13 -21 -68 -35 -123 -26 -102 -78 -296 -166 -619
-27 -98 -49 -183 -49 -188 0 -4 6 -8 13 -8 8 0 26 53 50 143 36 140 173 652
201 754 15 54 5 84 -14 41z"/>
<path d="M5360 1855 c0 -8 14 -65 30 -127 17 -62 46 -174 66 -248 163 -618
151 -577 165 -563 9 9 -34 188 -106 443 -9 30 -38 141 -66 245 -27 105 -54
207 -60 228 -10 36 -29 51 -29 22z"/>
<path d="M5110 1190 c0 -427 3 -650 10 -650 7 0 10 223 10 650 0 427 -3 650
-10 650 -7 0 -10 -223 -10 -650z"/>
</g>
</svg>
