<?xml version="1.0" standalone="no"?>
<!DOCTYPE svg PUBLIC "-//W3C//DTD SVG 20010904//EN"
 "http://www.w3.org/TR/2001/REC-SVG-20010904/DTD/svg10.dtd">
<svg version="1.0" xmlns="http://www.w3.org/2000/svg"
 width="1024.000000pt" height="559.000000pt" viewBox="0 0 1024.000000 559.000000"
 preserveAspectRatio="xMidYMid meet">
<metadata>
Created by potrace 1.16, written by Peter Selinger 2001-2019
</metadata>
<g transform="translate(0.000000,559.000000) scale(0.100000,-0.100000)"
fill="#000000" stroke="none">
<path d="M10165 3138 c-27 -11 -75 -31 -107 -45 -49 -22 -66 -25 -125 -20 -60
5 -74 2 -114 -20 l-47 -25 -48 21 -48 22 -111 -55 c-114 -56 -216 -96 -247
-96 -10 0 -41 11 -68 25 -27 14 -60 25 -72 25 -13 0 -77 -22 -143 -49 -239
-97 -273 -105 -425 -104 -113 0 -146 4 -205 24 -40 13 -97 24 -132 24 -34 1
-87 10 -118 20 -48 17 -60 18 -97 6 -83 -24 -214 -51 -254 -51 -22 0 -45 -5
-51 -11 -13 -13 -1699 -17 -1711 -4 -4 4 0 12 9 18 8 7 18 22 21 35 6 21 3 22
-43 22 -35 0 -51 -4 -55 -15 -7 -17 -74 -21 -74 -5 0 6 13 10 30 10 29 0 29 0
23 48 -3 29 -1 58 6 70 11 21 9 22 -26 23 -21 1 -29 4 -17 6 16 3 20 11 20 38
-1 26 -5 35 -18 35 -9 0 -19 10 -21 23 l-4 22 -2 -22 c0 -13 -7 -23 -15 -23
-8 0 -17 -4 -20 -8 -2 -4 11 -6 30 -4 31 4 34 2 34 -22 0 -22 -4 -26 -30 -26
-20 0 -30 5 -30 15 0 8 -4 15 -10 15 -24 0 -3 -36 25 -43 16 -4 14 -5 -7 -6
-48 -2 -73 -67 -47 -124 8 -19 16 -22 40 -19 17 3 29 0 29 -7 0 -18 -79 -13
-145 9 -46 16 -52 19 -25 17 19 -2 43 -7 53 -12 15 -6 17 -1 17 46 0 30 3 65
6 79 4 20 -8 11 -56 -40 -42 -45 -67 -64 -80 -62 -30 5 -24 -5 13 -24 17 -9
45 -28 60 -43 l28 -26 -1578 -5 c-1251 -4 -1583 -2 -1600 8 -12 6 -46 12 -75
12 -29 0 -84 9 -123 20 -69 20 -69 20 -140 0 -38 -11 -88 -26 -109 -34 -95
-33 -296 -13 -394 39 -32 17 -63 25 -97 25 -27 0 -82 7 -120 15 -39 8 -91 15
-116 15 -33 0 -57 7 -83 25 -46 31 -110 33 -184 5 -29 -11 -65 -20 -80 -20
-35 0 -165 41 -219 68 -52 27 -78 27 -143 2 -101 -40 -240 -22 -342 43 -66 43
-98 46 -178 16 -30 -11 -84 -27 -120 -34 l-65 -14 64 6 c35 3 82 13 105 23 22
10 61 21 86 25 40 5 52 2 105 -31 109 -66 244 -83 347 -44 67 25 79 25 131 -2
63 -32 186 -68 234 -68 23 0 65 9 93 20 68 27 103 25 157 -7 46 -26 52 -28
293 -51 53 -6 101 -17 127 -30 23 -12 50 -22 59 -22 10 0 15 -3 12 -6 -3 -3
-410 -8 -904 -11 -495 -3 -901 -7 -903 -9 -2 -2 2302 -4 5120 -3 3202 0 5112
4 5092 10 -20 6 -315 8 -723 7 -379 -2 -690 0 -690 5 0 4 8 7 18 7 10 0 76 23
147 51 227 89 213 86 273 55 28 -14 66 -26 84 -26 42 0 169 49 270 103 73 40
79 41 110 28 59 -24 85 -24 123 -1 30 19 43 21 100 15 59 -7 70 -5 131 24 36
17 71 31 78 31 6 0 34 11 61 24 61 29 40 32 -30 4z m-4383 -173 l-4 -56 -36 7
c-21 4 -38 7 -39 8 -2 2 77 96 80 96 1 0 0 -25 -1 -55z m163 -5 l0 -60 -56 0
c-61 0 -69 7 -69 56 0 50 16 64 73 64 l52 0 0 -60z m115 -84 c0 -8 -7 -16 -15
-20 -8 -3 -15 -12 -15 -21 0 -13 -20 -15 -129 -15 l-130 0 -22 32 -23 31 30
-8 c118 -31 197 -33 221 -5 21 24 83 28 83 6z m2108 -12 c15 -8 56 -14 92 -14
52 -1 192 -27 155 -29 -63 -5 -638 -2 -642 3 -4 3 17 6 45 6 53 0 157 21 227
45 43 15 80 12 123 -11z m-5782 -19 c27 -8 75 -15 107 -15 32 0 56 -4 53 -9
-6 -9 -374 -6 -384 3 -3 3 6 6 19 7 13 0 40 7 59 14 47 18 87 18 146 0z"/>
<path d="M6024 3020 c-21 -8 -42 -30 -29 -30 3 0 16 7 29 15 24 16 24 16 28
-29 3 -43 1 -46 -25 -52 -37 -8 -29 -16 9 -8 28 5 29 8 29 60 0 55 -4 59 -41
44z"/>
<path d="M773 2613 c9 -2 25 -2 35 0 9 3 1 5 -18 5 -19 0 -27 -2 -17 -5z"/>
<path d="M8013 2563 c20 -2 54 -2 75 0 20 2 3 4 -38 4 -41 0 -58 -2 -37 -4z"/>
<path d="M1715 2553 c-73 -11 -32 -18 115 -18 87 0 161 3 165 7 4 4 -31 6 -77
5 -45 -1 -103 1 -128 5 -25 3 -58 4 -75 1z"/>
<path d="M8883 2542 c-6 -4 32 -6 85 -4 145 4 161 9 37 10 -60 1 -115 -2 -122
-6z"/>
<path d="M9775 2540 c-20 -4 0 -7 55 -7 55 0 75 3 55 7 -16 4 -41 8 -55 8 -14
0 -38 -4 -55 -8z"/>
<path d="M193 2533 c-6 -4 18 -8 55 -9 37 0 95 -4 128 -9 35 -4 64 -4 67 1 3
5 -13 10 -36 10 -23 1 -78 4 -122 8 -44 4 -85 4 -92 -1z"/>
<path d="M3347 2512 c-10 -4 25 -9 79 -10 54 -1 96 0 93 2 -9 8 -155 15 -172
8z"/>
<path d="M5267 2513 c18 -2 50 -2 70 0 21 2 7 4 -32 4 -38 0 -55 -2 -38 -4z"/>
<path d="M6280 2383 c-36 -8 -96 -18 -135 -22 l-70 -8 60 -1 c33 -1 100 7 149
18 110 25 112 25 119 1 9 -35 84 -38 201 -8 82 21 103 24 111 13 18 -23 51
-27 116 -12 56 13 72 14 124 1 33 -8 85 -14 115 -13 42 1 46 2 15 5 -22 1 -75
10 -118 20 -65 14 -86 15 -123 5 -62 -17 -105 -15 -119 5 -12 16 -18 15 -96
-5 -130 -33 -208 -34 -216 -2 -6 24 -38 25 -133 3z"/>
<path d="M183 2356 c-45 -12 -86 -26 -90 -30 -4 -5 1 -6 12 -3 11 3 61 16 111
28 l91 23 27 -22 c42 -33 98 -36 211 -12 55 11 112 24 128 27 22 4 26 3 21
-10 -7 -19 23 -37 63 -37 15 0 70 10 121 22 l92 22 17 -23 c15 -22 20 -23 87
-17 39 4 94 11 121 15 l50 8 -41 2 c-22 0 -66 -4 -97 -10 -62 -13 -107 -6
-107 16 0 20 -48 20 -123 0 -32 -8 -83 -15 -113 -15 -51 0 -55 2 -49 20 5 17
2 20 -22 20 -16 0 -69 -9 -119 -20 -119 -26 -193 -26 -227 0 -31 25 -60 24
-164 -4z"/>
<path d="M2170 2364 c-25 -8 -72 -21 -105 -29 l-60 -15 50 5 c28 3 77 14 110
24 59 18 59 18 70 -2 5 -11 24 -24 40 -29 37 -10 175 -1 268 18 91 19 127 18
143 -3 10 -15 26 -18 81 -16 37 1 88 9 113 17 52 17 35 20 -28 6 -24 -6 -65
-11 -92 -11 -40 -1 -53 3 -68 21 l-19 23 -119 -22 c-128 -22 -279 -28 -304
-10 -11 8 -12 12 -2 16 20 8 14 23 -10 22 -13 0 -43 -7 -68 -15z"/>
<path d="M3965 2318 c-33 -11 -85 -23 -115 -28 l-55 -7 46 -2 c39 -1 128 20
195 46 8 3 14 -1 14 -11 0 -52 187 -69 314 -28 84 27 89 27 101 0 19 -42 75
-43 250 -3 39 9 50 13 30 14 -16 0 -57 -6 -90 -14 -72 -18 -139 -19 -167 -4
-21 11 -21 12 -3 25 47 35 -12 29 -175 -16 -84 -24 -168 -22 -221 5 -25 13
-28 19 -18 31 17 21 -32 18 -106 -8z"/>
<path d="M9380 2309 c-36 -10 -94 -18 -130 -19 -56 -2 -61 -3 -35 -11 34 -11
77 -6 185 21 41 11 74 18 75 17 0 -1 5 -11 11 -21 24 -44 124 -44 239 -1 67
25 68 26 86 7 40 -44 149 -50 279 -16 46 12 48 13 15 10 -22 -3 -67 -10 -100
-15 -33 -6 -73 -9 -90 -5 -60 11 -95 26 -95 40 0 21 -33 17 -112 -11 -74 -27
-164 -33 -200 -14 -21 11 -21 12 -3 25 17 13 15 14 -21 13 -21 -1 -68 -10
-104 -20z"/>
<path d="M7880 2304 c-25 -8 -76 -21 -115 -29 l-70 -14 66 4 c37 3 92 14 122
24 53 19 55 19 60 1 12 -45 143 -50 266 -10 71 22 95 25 86 10 -12 -20 17 -40
56 -40 21 0 64 10 95 21 l58 22 66 -22 c68 -21 149 -26 185 -11 14 6 -6 9 -60
10 -44 0 -98 7 -120 15 -53 19 -78 19 -153 -5 -79 -25 -134 -16 -101 17 17 17
-6 24 -48 14 -21 -5 -65 -16 -98 -25 -60 -16 -151 -21 -193 -10 -17 5 -21 11
-17 25 8 24 -19 24 -85 3z"/>
<path d="M1202 2116 c-88 -33 -145 -47 -232 -56 l-75 -9 95 3 c74 2 116 10
187 33 80 27 91 28 83 13 -7 -13 -5 -24 8 -38 26 -30 76 -42 179 -42 96 0 172
13 322 56 103 30 103 30 95 -1 -5 -22 -1 -27 37 -45 75 -34 152 -25 409 45 81
22 96 20 95 -12 0 -34 33 -53 95 -53 53 0 104 15 222 64 88 37 144 48 120 24
-32 -32 1 -56 118 -83 144 -32 256 -19 471 54 l87 29 6 -29 c7 -35 51 -60 103
-58 33 2 34 2 8 6 -76 10 -119 47 -90 77 8 8 11 17 6 20 -9 6 -27 1 -226 -59
-153 -46 -228 -53 -331 -30 -92 20 -144 40 -144 54 0 6 12 17 28 25 24 13 25
15 9 21 -30 12 -97 -4 -202 -47 -114 -47 -224 -62 -259 -35 -22 16 -14 37 15
37 28 0 23 19 -8 26 -31 8 -123 -9 -230 -43 -90 -28 -243 -41 -286 -24 -30 12
-48 42 -29 49 16 5 15 32 0 32 -13 0 -69 -14 -248 -60 -109 -28 -276 -32 -332
-8 -43 19 -47 31 -18 55 46 40 6 43 -88 9z"/>
<path d="M5840 2115 c-25 -7 -72 -24 -105 -38 -68 -29 -196 -59 -331 -78 -80
-11 -100 -10 -159 4 -97 24 -119 49 -73 81 l22 16 -27 0 c-15 0 -82 -18 -150
-41 -67 -22 -161 -46 -209 -52 -49 -6 -88 -15 -88 -19 0 -10 7 -10 93 3 83 13
179 38 257 68 65 25 74 26 67 7 -10 -25 30 -63 79 -76 26 -8 82 -13 123 -13
105 2 319 47 421 89 122 51 125 52 110 25 -23 -45 5 -57 199 -87 150 -23 285
-10 429 41 102 37 128 42 117 24 -13 -20 27 -48 83 -60 78 -16 154 -6 290 40
64 21 132 42 150 46 34 7 34 7 18 -17 -28 -43 12 -68 109 -68 50 0 93 9 168
34 145 49 167 52 167 28 0 -27 55 -51 135 -59 36 -3 65 -3 65 0 0 3 -34 11
-75 18 -88 14 -116 29 -97 52 11 13 10 16 -6 21 -25 8 -84 -5 -200 -44 -101
-34 -213 -41 -247 -16 -18 13 -18 15 13 33 18 11 29 23 25 26 -14 15 -106 6
-170 -17 -177 -64 -269 -77 -363 -53 -51 13 -59 35 -20 54 20 10 21 13 8 18
-18 7 -76 -6 -168 -40 -99 -36 -200 -55 -293 -55 -90 0 -291 33 -313 51 -18
15 -3 34 34 44 l27 8 -25 7 c-34 11 -39 11 -90 -5z"/>
<path d="M9210 2099 c-19 -6 -68 -24 -109 -40 -91 -38 -168 -47 -196 -25 -20
16 -20 16 2 35 46 38 1 41 -100 6 -91 -32 -195 -55 -253 -55 -24 0 -44 -4 -44
-10 0 -26 189 3 294 46 74 30 76 30 76 -1 0 -15 10 -31 25 -41 36 -23 103 -14
209 30 47 20 102 38 123 42 33 5 39 3 48 -18 14 -33 85 -65 160 -73 67 -8 228
9 255 26 11 8 9 9 -10 5 -14 -4 -77 -9 -140 -12 -123 -7 -171 1 -230 37 -31
19 -33 22 -17 34 16 11 16 13 1 19 -21 8 -51 6 -94 -5z"/>
<path d="M520 1780 c-30 -11 -102 -42 -160 -69 -114 -54 -238 -96 -312 -107
-50 -7 -66 -24 -24 -24 65 0 212 46 348 108 110 51 141 64 190 77 l48 13 -6
-24 c-12 -46 3 -71 59 -97 114 -54 159 -61 357 -61 214 1 266 10 452 80 113
42 235 74 276 74 13 -1 10 -6 -10 -21 -57 -42 -20 -107 74 -129 55 -14 186 -7
251 12 61 18 42 26 -30 12 -127 -25 -247 -10 -288 36 -17 19 -17 21 0 40 10
11 36 23 57 26 48 8 48 19 2 34 -69 23 -134 10 -389 -80 -238 -83 -512 -91
-705 -19 -90 33 -118 77 -65 101 14 6 25 17 25 25 0 20 -85 16 -150 -7z"/>
<path d="M8405 1776 c-38 -14 -92 -36 -120 -49 -72 -36 -201 -78 -260 -84 -53
-6 -125 16 -125 37 0 7 14 17 30 23 47 18 38 37 -17 37 -55 0 -96 -13 -220
-69 -152 -69 -254 -85 -395 -62 -84 14 -193 49 -219 70 -20 16 -21 21 -10 35
8 9 28 16 47 16 41 0 47 26 9 36 -55 14 -133 -2 -207 -42 -176 -94 -209 -107
-282 -112 -51 -3 -82 0 -109 11 -63 27 -62 73 4 90 42 11 47 16 29 27 -39 25
-117 10 -282 -51 -220 -83 -276 -98 -393 -105 -214 -13 -375 61 -263 121 21
11 38 23 38 28 0 4 -22 7 -48 7 -54 0 -129 -23 -212 -65 -111 -56 -156 -67
-306 -72 -161 -6 -283 7 -385 42 -108 36 -133 72 -64 89 14 4 25 11 25 17 0 8
-26 10 -82 7 -69 -5 -97 -12 -163 -43 -128 -59 -183 -77 -245 -78 -58 -2 -107
19 -118 51 -4 14 49 42 83 42 33 0 32 18 -2 31 -53 21 -131 5 -268 -53 -194
-84 -266 -101 -394 -96 -74 3 -116 9 -138 21 -54 29 -52 76 4 98 13 5 23 14
23 20 0 19 -116 5 -195 -24 -38 -14 -104 -37 -145 -52 -90 -34 -221 -64 -272
-65 -22 0 -38 -5 -38 -11 0 -9 21 -10 72 -5 93 8 161 26 307 81 128 48 201 68
201 55 0 -5 -4 -12 -10 -15 -5 -3 -10 -19 -10 -35 0 -44 49 -75 142 -91 128
-21 278 13 498 112 47 21 106 41 130 45 l45 7 -28 -23 c-40 -32 -34 -68 18
-97 74 -42 155 -28 347 59 50 22 109 43 130 46 39 5 40 4 27 -16 -12 -19 -10
-24 11 -46 55 -59 229 -98 440 -99 170 -1 222 11 380 82 58 26 120 51 139 55
33 6 34 6 17 -13 -10 -11 -16 -31 -14 -48 7 -60 145 -99 323 -90 125 7 171 19
403 106 90 33 175 61 189 61 l26 0 -27 -21 c-33 -26 -33 -49 2 -81 37 -36 122
-51 200 -37 60 11 94 26 232 101 47 26 103 50 125 54 39 7 40 6 23 -13 -24
-26 -23 -48 4 -73 42 -39 224 -80 357 -80 102 0 176 18 289 72 77 36 163 68
185 68 4 0 2 -9 -5 -20 -28 -44 26 -80 118 -80 75 0 156 24 306 91 63 28 135
53 163 56 l50 6 -27 -26 c-16 -14 -28 -35 -28 -47 0 -68 163 -130 346 -130
120 0 217 23 349 82 102 45 191 78 213 78 13 0 12 -3 -2 -19 -24 -26 -17 -60
17 -85 22 -16 43 -21 90 -21 51 1 78 8 153 43 50 23 102 42 117 42 14 0 58
-15 99 -34 95 -43 121 -52 188 -66 65 -14 192 -10 197 6 3 8 -12 10 -46 6 -77
-7 -175 15 -309 69 -67 27 -128 49 -134 49 -5 0 -51 -19 -102 -41 -101 -46
-184 -59 -226 -37 -39 21 -37 51 5 71 57 27 44 40 -37 35 -61 -3 -94 -13 -203
-60 -167 -72 -221 -88 -325 -95 -136 -9 -307 32 -354 85 -16 19 -17 24 -5 38
8 10 32 25 54 35 l40 18 -37 15 c-50 21 -70 20 -153 -8z"/>
<path d="M7860 1295 c-97 -17 -188 -46 -325 -102 -259 -107 -422 -149 -548
-140 -93 6 -170 39 -175 74 -4 30 49 63 101 63 20 0 37 5 37 10 0 20 -55 32
-121 27 -55 -3 -99 -18 -265 -89 -244 -105 -329 -128 -492 -135 -123 -6 -219
4 -336 33 -32 9 -124 21 -203 29 -79 8 -166 21 -194 30 -44 15 -89 53 -89 76
0 21 44 50 100 66 33 9 60 19 60 23 0 16 -93 32 -158 28 -74 -5 -162 -43 -319
-136 -100 -60 -196 -93 -288 -99 -136 -10 -257 41 -236 100 9 25 83 66 121 67
14 0 32 5 40 10 50 33 -126 41 -230 11 -36 -10 -103 -34 -150 -53 -306 -127
-516 -173 -749 -166 -116 4 -148 9 -220 33 -99 34 -154 78 -149 121 4 32 42
63 88 73 43 8 49 28 13 38 -45 12 -193 8 -253 -6 -30 -8 -143 -47 -250 -89
-560 -214 -797 -256 -1031 -182 -34 11 -65 18 -67 15 -22 -21 116 -63 238 -71
180 -13 436 47 805 191 274 106 343 125 448 125 57 -1 60 -2 42 -16 -48 -35
-55 -45 -55 -78 0 -130 281 -212 586 -172 150 20 275 52 435 112 237 88 316
114 365 120 l49 5 -33 -17 c-61 -32 -85 -80 -62 -125 25 -46 181 -87 280 -73
86 12 196 54 290 110 141 83 184 103 260 120 48 11 74 13 87 6 16 -9 15 -11
-9 -17 -41 -11 -70 -47 -66 -86 6 -66 101 -104 298 -120 69 -6 162 -19 207
-29 275 -65 494 -45 750 65 205 89 268 114 310 123 l43 10 -30 -28 c-17 -15
-30 -36 -30 -45 0 -28 63 -82 111 -96 57 -16 198 -16 274 0 81 18 276 83 372
125 161 70 329 116 426 116 47 0 72 -9 181 -64 129 -65 234 -98 426 -132 110
-19 359 -28 430 -16 53 9 51 10 -50 11 -219 3 -507 47 -662 100 -29 10 -99 42
-154 71 -115 60 -156 67 -274 45z"/>
</g>
</svg>
