<?xml version="1.0" standalone="no"?>
<!DOCTYPE svg PUBLIC "-//W3C//DTD SVG 20010904//EN"
 "http://www.w3.org/TR/2001/REC-SVG-20010904/DTD/svg10.dtd">
<svg version="1.0" xmlns="http://www.w3.org/2000/svg"
 width="1024.000000pt" height="559.000000pt" viewBox="0 0 1024.000000 559.000000"
 preserveAspectRatio="xMidYMid meet">
<metadata>
Created by potrace 1.16, written by Peter Selinger 2001-2019
</metadata>
<g transform="translate(0.000000,559.000000) scale(0.100000,-0.100000)"
fill="#000000" stroke="none">
<path d="M5037 4567 c-29 -29 -95 -100 -149 -157 -81 -88 -109 -111 -175 -145
-106 -54 -131 -79 -204 -198 -109 -178 -189 -285 -251 -339 -138 -120 -174
-158 -241 -253 -89 -125 -137 -181 -209 -245 l-57 -51 -40 40 c-48 48 -217
161 -240 161 -19 0 -73 -54 -188 -190 -45 -52 -165 -178 -268 -280 -103 -102
-252 -258 -331 -347 -173 -194 -212 -229 -331 -299 -98 -58 -147 -106 -228
-223 -95 -138 -251 -346 -315 -421 -35 -41 -169 -181 -297 -311 -128 -129
-233 -241 -233 -247 0 -46 108 49 386 338 171 179 266 294 424 517 73 102 146
200 162 219 17 19 74 60 127 91 107 64 207 158 418 394 67 75 185 196 262 270
78 74 185 185 239 248 53 63 114 134 135 157 l39 43 91 -61 c100 -67 161 -124
153 -144 -11 -28 -146 -202 -182 -234 -22 -19 -98 -80 -170 -134 -145 -111
-166 -134 -256 -291 -80 -138 -168 -260 -289 -401 -52 -60 -129 -155 -171
-209 -42 -55 -109 -138 -148 -183 -55 -66 -68 -87 -60 -97 6 -8 17 -12 23 -9
13 6 188 213 239 284 18 25 89 113 159 196 136 162 216 275 299 423 29 51 66
109 83 128 28 32 237 198 237 188 0 -4 -188 -350 -251 -462 -18 -32 -21 -45
-12 -54 6 -6 16 -8 21 -5 10 6 121 201 217 381 51 96 178 291 253 390 26 33
94 110 152 170 58 61 142 162 187 225 83 118 116 153 214 232 88 70 131 124
267 344 45 72 90 138 101 148 10 9 58 38 107 64 77 41 101 61 193 162 58 63
109 116 112 118 4 2 -13 -56 -38 -128 -31 -94 -48 -165 -58 -248 -31 -248 -28
-236 -99 -341 -90 -132 -94 -145 -94 -281 0 -79 -7 -148 -22 -220 -25 -124
-56 -180 -218 -402 -58 -78 -141 -197 -185 -263 -125 -188 -211 -297 -258
-331 -24 -17 -122 -73 -217 -125 -188 -102 -220 -127 -313 -251 -73 -96 -279
-345 -354 -427 -28 -31 -105 -119 -170 -196 -65 -77 -143 -166 -172 -197 -55
-59 -63 -75 -39 -84 17 -6 103 82 229 233 45 55 151 178 235 274 84 96 205
240 267 321 63 80 132 161 154 180 22 18 120 76 217 128 221 118 254 149 423
399 68 101 168 245 223 320 55 75 118 168 141 208 23 40 44 72 47 73 3 0 23
-39 45 -87 73 -164 114 -215 240 -297 44 -29 97 -72 118 -95 22 -25 74 -117
127 -225 99 -203 129 -242 227 -294 82 -43 105 -72 192 -239 87 -168 146 -244
267 -340 127 -101 265 -252 363 -395 33 -50 61 -62 61 -28 0 24 -126 193 -222
295 -40 42 -115 112 -168 155 -137 111 -188 179 -295 393 -53 107 -101 159
-182 201 -78 39 -116 91 -212 289 -99 202 -128 239 -243 314 -129 83 -173 138
-239 294 -17 41 -37 88 -45 104 -12 26 -12 40 2 100 8 39 17 133 20 210 l4
140 74 110 c40 61 76 118 80 128 3 10 13 82 22 160 17 159 34 229 94 399 l42
117 60 -46 c35 -27 75 -69 96 -102 19 -31 52 -82 73 -113 43 -63 58 -116 88
-299 12 -70 28 -145 36 -168 7 -22 65 -121 128 -218 162 -253 163 -254 213
-498 43 -206 52 -224 169 -345 108 -111 148 -165 345 -460 139 -209 236 -340
251 -340 26 0 17 34 -23 87 -24 32 -120 171 -213 308 -207 307 -206 307 -325
430 -114 117 -124 138 -170 362 -47 228 -49 232 -233 517 -53 81 -102 166
-108 188 -14 54 -58 322 -54 327 2 2 26 -12 52 -31 26 -19 77 -50 112 -69 74
-39 93 -62 177 -220 34 -63 100 -187 148 -276 47 -89 117 -213 154 -275 38
-62 89 -151 115 -198 82 -150 112 -188 427 -533 62 -69 118 -150 202 -292 96
-162 152 -223 255 -279 88 -47 96 -56 118 -126 36 -113 53 -135 200 -261 105
-90 130 -116 207 -217 26 -34 81 -87 121 -119 165 -129 207 -153 207 -120 0
17 -39 52 -125 113 -96 67 -137 106 -189 178 -43 60 -99 116 -249 249 -79 70
-114 123 -136 203 -16 61 -42 87 -137 141 -48 26 -102 66 -121 88 -19 22 -75
109 -125 192 -101 170 -125 200 -358 458 -114 127 -177 206 -214 270 -188 321
-195 334 -177 340 26 8 141 122 190 188 46 63 53 65 116 27 34 -21 71 -68 172
-220 39 -58 123 -165 187 -239 132 -152 180 -233 251 -421 59 -156 54 -148
125 -226 32 -35 84 -111 116 -170 45 -82 82 -131 166 -222 129 -139 227 -266
296 -382 57 -97 87 -129 103 -113 8 8 -12 48 -70 141 -95 151 -146 218 -275
357 -109 118 -151 175 -199 270 -19 39 -64 103 -100 143 -58 64 -72 88 -112
193 -26 66 -46 122 -44 123 2 2 49 -18 105 -45 l100 -48 85 -128 c101 -153
171 -227 304 -317 133 -92 176 -134 242 -241 88 -143 120 -171 214 -186 34 -5
73 -16 88 -24 56 -29 121 -107 256 -305 122 -179 175 -246 297 -375 63 -66
133 -141 157 -168 43 -46 81 -62 81 -32 0 8 -17 32 -37 53 -135 135 -320 343
-374 420 -35 50 -101 145 -147 210 -46 66 -103 141 -128 166 -50 53 -132 96
-182 96 -69 0 -108 35 -193 177 -65 108 -97 139 -234 233 -144 98 -191 147
-305 315 l-95 140 -125 62 -125 63 -58 83 c-31 45 -105 136 -163 202 -58 66
-145 178 -192 250 -97 145 -144 197 -198 220 -59 24 -79 20 -116 -27 -47 -59
-180 -198 -200 -209 -20 -11 -24 -5 -233 393 -53 103 -111 203 -127 223 -17
20 -60 51 -97 70 -36 19 -102 61 -146 93 -69 50 -88 71 -142 157 -34 55 -80
116 -101 135 -58 52 -134 110 -144 110 -5 0 -32 -24 -61 -53z"/>
</g>
</svg>
