<?xml version="1.0" standalone="no"?>
<!DOCTYPE svg PUBLIC "-//W3C//DTD SVG 20010904//EN"
 "http://www.w3.org/TR/2001/REC-SVG-20010904/DTD/svg10.dtd">
<svg version="1.0" xmlns="http://www.w3.org/2000/svg"
 width="1024.000000pt" height="559.000000pt" viewBox="0 0 1024.000000 559.000000"
 preserveAspectRatio="xMidYMid meet">
<metadata>
Created by potrace 1.16, written by Peter Selinger 2001-2019
</metadata>
<g transform="translate(0.000000,559.000000) scale(0.100000,-0.100000)"
fill="#000000" stroke="none">
<path d="M3636 4964 c-261 -34 -528 -125 -766 -262 -137 -79 -224 -142 -211
-155 7 -7 37 8 93 45 267 177 531 283 833 334 141 24 481 24 624 1 275 -47
494 -119 720 -238 52 -27 100 -49 108 -49 34 0 0 27 -102 81 -389 206 -874
297 -1299 243z"/>
<path d="M5584 4947 c-10 -27 1 -150 14 -155 9 -3 12 18 12 82 0 52 -4 86 -10
86 -6 0 -13 -6 -16 -13z"/>
<path d="M5355 4890 c-9 -15 63 -140 80 -140 21 0 20 3 -21 76 -38 69 -49 80
-59 64z"/>
<path d="M5797 4838 c-35 -58 -43 -93 -24 -93 5 0 25 30 45 67 26 47 34 70 26
78 -7 7 -21 -8 -47 -52z"/>
<path d="M5503 4719 c-113 -43 -186 -175 -162 -290 20 -95 61 -148 149 -194
51 -27 171 -25 226 3 99 51 151 144 142 256 -9 111 -76 196 -179 229 -66 22
-112 21 -176 -4z m192 -32 c48 -24 86 -62 110 -110 65 -130 0 -282 -138 -322
-74 -21 -129 -14 -190 25 -25 16 -59 48 -74 71 -25 38 -28 52 -28 124 0 72 3
86 28 123 32 50 94 93 145 102 43 8 118 2 147 -13z"/>
<path d="M5180 4717 c0 -11 120 -92 137 -92 3 0 8 5 10 12 2 6 -27 30 -65 52
-74 45 -82 47 -82 28z"/>
<path d="M4593 4685 c-16 -33 -17 -34 -30 -15 -21 29 -38 25 -19 -5 23 -35 20
-38 -19 -32 -46 8 -52 -6 -14 -35 28 -23 29 -27 18 -51 -16 -36 -4 -45 31 -25
27 16 29 15 56 -13 33 -34 44 -30 37 16 -5 32 -3 34 28 42 44 12 49 32 10 39
-36 7 -37 11 -14 36 18 20 10 39 -9 20 -19 -19 -27 -14 -34 23 -8 44 -20 44
-41 0z m27 -55 c0 -10 8 -24 18 -30 12 -8 13 -13 5 -16 -7 -3 -13 -11 -13 -18
0 -8 -13 -12 -34 -12 -23 1 -32 5 -29 14 3 7 0 19 -7 27 -10 12 -9 15 8 15 12
0 23 9 27 20 8 26 25 26 25 0z"/>
<path d="M5945 4686 c-33 -18 -61 -40 -63 -49 -5 -25 7 -21 78 22 104 62 91
86 -15 27z"/>
<path d="M2384 4536 c-100 -47 -156 -155 -134 -261 24 -116 119 -191 240 -189
46 0 77 7 108 22 55 29 54 48 -3 54 -90 11 -156 82 -163 177 -6 84 23 135 104
188 17 10 17 13 4 22 -26 18 -102 12 -156 -13z m70 -38 c-62 -75 -71 -160 -26
-249 28 -56 89 -108 126 -109 16 0 17 -2 8 -12 -19 -19 -130 -16 -168 4 -78
42 -131 140 -118 218 16 93 102 176 187 179 16 1 15 -3 -9 -31z"/>
<path d="M3740 4483 c-95 -10 -267 -49 -370 -83 -541 -181 -975 -623 -1161
-1180 -100 -302 -127 -592 -84 -905 93 -665 578 -1250 1207 -1456 224 -73 371
-93 619 -86 200 6 303 23 464 77 116 38 141 34 196 -31 53 -64 78 -65 113 -5
15 26 38 48 56 56 33 13 50 37 50 67 0 10 14 30 31 44 30 25 40 61 39 137 -1
17 0 54 0 77 1 31 20 45 61 45 34 0 42 5 64 40 38 61 86 78 118 42 11 -12 26
-17 46 -14 21 3 33 -2 45 -19 9 -13 16 -32 16 -41 0 -10 4 -26 9 -36 5 -9 12
-25 15 -36 5 -13 12 -17 28 -13 28 8 58 -18 58 -50 0 -13 5 -33 11 -45 9 -16
7 -24 -11 -43 -15 -16 -20 -30 -15 -44 8 -27 60 -69 93 -77 75 -17 100 -75 42
-96 -17 -5 -29 -15 -27 -22 3 -6 11 -9 18 -6 8 3 40 5 72 4 62 0 74 11 27 27
-32 12 -36 24 -19 63 11 23 71 56 103 56 7 0 25 9 40 21 30 24 36 73 10 87
-14 8 -15 14 -3 45 11 31 10 39 -5 61 -10 16 -26 26 -40 26 -19 0 -22 4 -18
25 5 30 -13 55 -39 55 -13 0 -19 7 -19 23 0 33 -28 67 -55 67 -25 0 -55 -41
-55 -75 0 -8 -8 -15 -19 -15 -29 0 -44 -25 -36 -60 6 -27 4 -30 -18 -30 -13 0
-30 7 -37 15 -7 8 -23 15 -35 15 -17 0 -27 10 -39 40 -9 22 -16 46 -16 52 0 7
-12 24 -26 39 l-25 27 46 52 c52 59 142 178 170 227 12 20 29 33 49 38 224 48
439 46 638 -5 71 -18 173 -59 353 -140 250 -113 470 -183 599 -192 81 -5 66
17 -21 32 -99 16 -181 38 -312 84 -58 20 -106 36 -108 36 -2 0 -3 5 -3 10 0 6
32 10 75 10 155 0 336 39 582 124 221 76 343 89 561 60 26 -4 42 -2 42 4 0 13
-62 32 -102 32 -24 0 -28 4 -28 29 0 19 10 40 30 59 29 30 30 33 30 130 0 143
-45 352 -75 352 -21 0 -32 -27 -55 -131 -43 -189 -37 -331 15 -365 15 -10 25
-26 25 -40 0 -26 2 -25 -182 -28 -48 -1 -50 33 -4 78 28 29 36 45 42 92 9 76
-2 201 -32 353 -38 191 -66 215 -97 83 -35 -147 -50 -252 -51 -357 -1 -93 2
-115 19 -143 10 -17 27 -35 37 -38 10 -3 18 -14 18 -25 0 -22 2 -23 -180 86
l-85 51 -22 128 c-35 204 -63 278 -90 244 -11 -15 -35 -109 -54 -216 -12 -66
-15 -73 -34 -67 -11 4 -39 11 -62 16 -33 8 -43 16 -48 37 -16 65 -50 69 -66 8
-9 -35 -16 -46 -37 -51 -14 -3 -60 -22 -103 -42 -43 -19 -82 -34 -87 -32 -5 2
-50 51 -102 109 -51 58 -99 112 -106 120 -12 13 -27 2 -110 -80 -92 -92 -96
-94 -110 -75 -9 11 -67 91 -131 178 -63 87 -121 157 -128 155 -11 -3 -239
-270 -297 -349 -12 -16 -23 -28 -24 -26 -2 2 8 39 22 82 145 466 102 991 -115
1423 -187 372 -480 664 -846 842 -254 124 -500 181 -765 178 -69 -1 -141 -3
-160 -5z m485 -58 c129 -27 176 -41 298 -87 74 -28 98 -48 58 -48 -11 0 -23
-5 -26 -10 -5 -8 -11 -8 -20 0 -24 20 -75 29 -102 19 -24 -9 -25 -12 -20 -65
3 -30 11 -62 18 -70 19 -23 -2 -38 -35 -23 -41 19 -53 0 -32 -50 15 -40 15
-41 -5 -41 -12 0 -23 -8 -26 -19 -3 -11 -17 -22 -31 -26 -14 -3 -38 -15 -53
-26 -24 -17 -31 -18 -48 -7 -28 17 -48 -1 -32 -30 8 -15 8 -21 -2 -25 -6 -2
-16 6 -22 17 -6 11 -33 29 -60 39 -28 11 -65 26 -83 33 -90 38 -174 6 -275
-108 -34 -38 -79 -78 -99 -89 -47 -24 -60 -48 -56 -107 l3 -47 49 0 c35 0 51
-4 54 -15 4 -12 3 -13 -10 -2 -25 20 -68 -20 -68 -64 0 -29 -5 -36 -32 -47
-18 -8 -39 -22 -47 -31 -8 -9 -23 -22 -34 -28 -18 -9 -19 -8 -14 13 3 13 3 28
-2 33 -16 22 -33 95 -28 118 8 33 -22 71 -54 66 -19 -2 -27 -13 -39 -51 -10
-32 -19 -45 -29 -42 -25 10 -77 -33 -91 -74 -7 -21 -9 -44 -6 -50 9 -14 41
-14 68 0 26 14 36 3 20 -21 -23 -37 -16 -42 54 -34 78 8 83 -9 7 -21 -27 -4
-54 -12 -60 -17 -19 -16 -16 -46 6 -58 24 -12 35 -43 26 -71 -7 -20 -12 -21
-74 -15 -87 9 -98 4 -106 -47 -4 -23 -13 -54 -21 -68 -19 -38 -7 -98 21 -109
40 -15 37 -27 -20 -76 -32 -28 -59 -61 -66 -81 -7 -22 -28 -47 -58 -68 -26
-19 -68 -65 -94 -102 -45 -66 -47 -71 -47 -139 0 -39 -6 -90 -14 -112 -17 -48
-7 -100 29 -147 12 -16 32 -48 43 -71 11 -23 46 -64 76 -92 l56 -51 92 -3 c52
-2 112 2 138 9 72 19 97 16 132 -17 17 -17 38 -30 47 -31 32 -1 66 -10 74 -18
5 -5 4 -31 -2 -60 -12 -58 -5 -85 34 -121 32 -30 57 -77 78 -147 14 -48 14
-54 -4 -87 -10 -19 -22 -53 -25 -75 -6 -36 -1 -49 34 -108 22 -38 45 -85 50
-106 6 -21 29 -62 50 -90 22 -29 42 -64 46 -79 4 -17 16 -29 34 -36 41 -14
181 2 230 27 45 23 120 103 128 137 3 13 15 26 25 29 36 12 49 35 49 86 0 48
2 51 47 82 102 70 107 77 106 148 0 35 -4 91 -8 125 -9 80 2 101 120 225 101
106 138 161 165 246 30 99 12 111 -101 70 -65 -24 -99 -25 -99 -3 0 6 -23 34
-51 61 -60 59 -105 127 -139 210 -13 33 -36 80 -52 104 -31 50 -34 61 -15 61
14 -1 88 -103 101 -140 5 -14 26 -46 48 -72 40 -49 77 -120 78 -149 0 -9 9
-24 20 -34 25 -23 54 -15 143 37 116 67 192 135 226 198 39 73 40 104 4 127
-16 9 -40 28 -55 42 l-28 25 -28 -27 c-31 -30 -60 -35 -68 -12 -4 8 -11 15
-18 15 -6 0 -26 19 -45 41 -46 56 -28 72 28 24 41 -34 61 -40 109 -36 12 1 43
-5 69 -14 39 -13 57 -14 118 -4 69 12 74 11 104 -10 17 -12 31 -29 31 -36 0
-17 49 -43 71 -38 11 3 18 -9 27 -47 11 -49 84 -219 106 -248 5 -8 20 -12 32
-9 19 3 24 -1 29 -24 4 -18 13 -29 24 -29 45 0 56 66 18 104 -22 22 -23 29
-18 113 3 49 11 96 17 104 6 8 24 50 39 94 36 105 43 114 67 78 10 -15 23 -47
29 -70 8 -31 16 -43 30 -43 21 0 24 -10 39 -135 5 -49 13 -100 16 -113 6 -21
4 -22 -18 -17 -32 8 -41 -11 -27 -57 5 -18 19 -76 29 -129 l20 -95 -26 -80
c-76 -232 -164 -396 -313 -582 -103 -127 -114 -137 -131 -117 -21 26 -75 19
-114 -16 -19 -16 -38 -38 -41 -48 -4 -12 -19 -20 -46 -24 -48 -6 -77 -29 -81
-66 -2 -19 -13 -31 -41 -44 -21 -10 -40 -24 -43 -32 -13 -32 -27 -14 -21 28 4
27 1 51 -8 67 -8 14 -14 36 -15 49 0 32 -27 61 -57 61 -32 0 -73 -43 -73 -76
0 -15 -7 -35 -16 -45 -16 -17 -18 -17 -38 14 -22 32 -59 45 -84 29 -23 -15
-31 -68 -16 -97 19 -37 18 -65 -3 -65 -25 0 -53 -30 -53 -57 0 -36 16 -59 50
-73 21 -9 30 -19 30 -36 0 -13 -1 -24 -3 -24 -2 0 -41 -11 -88 -25 -190 -58
-269 -69 -494 -69 -182 0 -225 3 -320 23 -308 65 -541 174 -778 365 -102 81
-207 189 -207 210 0 8 -9 33 -20 57 -25 55 -25 66 0 74 26 8 27 59 4 152 -16
61 -16 69 0 120 11 34 15 68 11 89 -7 41 -71 117 -134 162 -65 46 -131 122
-131 152 0 47 -30 123 -65 168 -21 28 -39 65 -46 101 -7 31 -25 80 -41 109
-29 54 -33 90 -22 174 5 38 9 45 25 41 28 -8 34 22 14 73 -17 44 -17 50 0 128
10 44 32 127 50 182 33 101 51 132 152 256 40 49 48 55 64 45 27 -17 74 20 74
59 1 48 26 103 47 101 23 -2 23 -13 -2 -34 -11 -10 -20 -23 -20 -29 0 -21 34
-74 47 -74 18 0 41 39 48 85 4 22 16 49 26 61 11 11 26 45 35 75 9 30 30 80
46 113 16 32 27 65 24 73 -3 8 1 28 10 45 9 17 14 38 11 48 -5 20 -1 28 27 50
18 14 19 14 8 -7 -34 -63 4 -84 61 -33 19 17 41 30 48 30 8 0 59 50 114 111
75 83 114 117 158 140 120 61 359 129 532 149 122 15 346 3 480 -25z m483
-172 c417 -230 727 -600 876 -1047 47 -142 80 -315 91 -481 6 -95 6 -99 -10
-77 -10 14 -23 21 -34 17 -14 -4 -19 4 -27 37 -6 27 -14 43 -24 43 -8 0 -30
26 -48 58 -18 31 -39 57 -46 57 -21 0 -56 -57 -83 -138 -14 -42 -32 -89 -39
-104 -8 -15 -14 -57 -14 -94 0 -68 -17 -137 -33 -131 -15 5 -85 173 -103 247
-18 76 -30 92 -49 67 -17 -24 -34 -21 -44 7 -5 13 -31 36 -57 51 -42 25 -50
26 -85 16 -55 -17 -124 -16 -148 1 -14 10 -37 14 -69 10 -43 -4 -52 -1 -91 32
-46 39 -71 45 -91 21 -17 -21 -6 -55 32 -102 67 -82 127 -101 162 -52 13 19
13 19 31 -1 10 -11 24 -20 30 -20 7 0 18 -7 25 -15 22 -27 -24 -109 -96 -169
-72 -62 -219 -150 -237 -143 -7 3 -18 27 -25 54 -7 28 -30 70 -52 98 -22 28
-50 70 -61 95 -18 36 -93 143 -130 184 -5 5 -14 4 -22 -3 -11 -9 -17 -8 -27 4
-14 17 -40 20 -40 4 0 -6 27 -59 60 -118 33 -59 66 -125 74 -147 21 -60 80
-147 120 -177 19 -15 41 -40 48 -55 21 -44 56 -55 114 -36 119 37 107 37 100
2 -14 -72 -55 -137 -150 -237 -154 -163 -156 -166 -141 -323 4 -47 5 -97 2
-110 -4 -15 -31 -41 -71 -68 -72 -49 -85 -69 -78 -122 4 -33 1 -38 -27 -52
-17 -9 -39 -33 -50 -54 -24 -46 -87 -107 -125 -122 -17 -6 -63 -15 -104 -20
-80 -11 -102 -4 -102 30 0 10 -19 42 -41 70 -23 29 -46 69 -51 89 -5 20 -28
66 -50 103 -43 72 -43 77 -6 160 21 46 21 48 3 110 -21 78 -34 102 -81 153
-36 39 -36 40 -30 105 7 80 -5 100 -66 107 -30 4 -50 13 -65 32 -25 29 -23 29
-249 17 l-112 -5 -47 36 c-25 20 -58 57 -73 82 -14 25 -38 65 -54 88 -30 44
-36 90 -16 126 6 12 11 55 11 95 -2 69 0 75 40 134 23 34 62 76 87 93 28 20
53 48 66 76 12 24 42 61 67 81 41 34 47 36 80 27 27 -7 51 -6 94 5 32 9 102
18 156 22 l98 7 -3 -48 c-3 -53 -3 -53 82 -90 19 -9 53 -26 75 -40 61 -37 115
-30 115 16 0 26 25 30 72 12 44 -17 217 -23 270 -10 31 8 58 65 60 130 2 47
-13 74 -35 60 -19 -12 -153 -10 -173 3 -24 15 -37 59 -20 73 6 5 42 21 80 35
57 22 75 25 99 16 50 -17 115 -12 137 10 11 11 20 23 20 28 0 19 -32 50 -69
67 -34 16 -40 24 -35 40 17 57 17 65 -3 65 -29 0 -88 -44 -87 -63 2 -24 -19
-21 -34 4 -9 14 -21 19 -40 17 -22 -2 -32 -14 -54 -58 -15 -30 -28 -67 -28
-82 0 -23 -6 -27 -50 -38 -62 -15 -77 -31 -61 -66 7 -15 8 -32 3 -41 -7 -12
-15 -4 -34 34 -14 26 -28 60 -31 74 -9 37 -128 139 -161 139 -23 0 -26 -4 -26
-35 0 -28 9 -43 49 -83 28 -28 47 -52 45 -55 -9 -9 -113 74 -119 94 -4 11 -17
26 -30 35 -21 14 -27 13 -61 -1 -20 -8 -45 -13 -55 -10 -23 8 -56 -10 -63 -33
-3 -9 -22 -26 -41 -36 -22 -12 -38 -31 -45 -52 -6 -18 -22 -39 -35 -48 -49
-32 -145 -11 -145 32 0 28 31 142 39 142 3 0 32 -4 64 -10 68 -11 80 -7 96 26
16 37 14 68 -10 98 -17 22 -18 26 -4 26 33 0 158 76 178 108 5 8 29 22 53 32
39 17 44 23 44 52 0 18 5 40 10 48 8 11 9 8 4 -12 -3 -14 0 -36 6 -48 12 -22
16 -23 108 -16 53 4 101 11 108 17 7 6 14 22 16 37 2 18 10 28 28 32 18 4 26
13 28 33 3 22 11 29 43 37 33 9 40 15 37 33 -3 20 -9 22 -63 22 -55 0 -60 2
-63 23 -2 12 6 34 17 48 25 31 27 57 7 74 -19 15 -35 6 -83 -50 -49 -56 -55
-71 -40 -109 9 -25 8 -33 -6 -49 -9 -10 -17 -24 -17 -30 0 -13 -28 -42 -40
-42 -5 0 -14 17 -20 38 -17 62 -24 68 -63 54 -46 -17 -47 -16 -47 21 0 35 19
59 75 92 17 10 48 41 70 69 53 66 128 116 175 116 32 -1 149 -36 178 -54 20
-12 3 -27 -24 -20 -48 12 -56 -1 -27 -45 14 -23 35 -44 46 -47 24 -8 65 13 73
38 3 10 14 23 25 28 10 6 19 18 19 26 0 8 5 12 10 9 6 -4 26 7 46 24 19 17 44
31 54 31 11 0 27 8 36 19 13 14 25 18 54 14 52 -7 57 10 13 51 -21 19 -35 38
-31 41 9 9 96 -73 114 -107 20 -38 44 -37 44 3 0 24 -11 42 -44 75 -24 24 -40
44 -36 44 17 0 18 30 2 46 -17 18 -19 22 -28 72 -6 30 -4 32 20 32 15 0 40 -7
56 -15 25 -13 32 -13 64 0 20 9 36 20 36 25 0 17 20 11 88 -27z m-1694 -95
c-38 -40 -73 -73 -79 -73 -5 1 -25 -10 -42 -23 -18 -12 -33 -19 -33 -14 0 14
31 49 67 74 17 13 55 42 83 66 79 64 80 50 4 -30z m-269 -203 c-26 -39 -32
-65 -16 -65 6 0 -3 -29 -20 -65 -16 -35 -29 -71 -29 -79 0 -8 -11 -27 -24 -43
-21 -24 -30 -27 -74 -25 -69 3 -77 -9 -85 -122 -2 -27 -27 -52 -27 -27 0 26
-42 7 -80 -36 -33 -38 -40 -43 -34 -23 11 38 130 227 191 303 56 70 214 229
220 223 2 -2 -7 -21 -22 -41z m1383 -81 c-11 -11 -23 -14 -35 -9 -15 7 -13 9
12 15 17 4 32 8 35 9 2 0 -3 -6 -12 -15z m-238 -43 c-5 -11 -15 -23 -20 -26
-6 -3 -10 -24 -10 -45 0 -28 6 -43 23 -57 17 -13 22 -24 17 -43 -3 -14 -10
-23 -15 -20 -9 5 -29 -26 -39 -61 -3 -12 -22 -18 -64 -23 -73 -8 -116 0 -108
21 3 8 6 22 7 31 0 12 3 10 9 -6 20 -49 81 -36 105 22 8 19 20 38 26 42 7 4 9
23 5 55 -6 45 -4 51 30 89 40 44 50 50 34 21z m-487 -175 c3 -8 3 -23 0 -34
-2 -11 1 -30 8 -43 17 -32 29 -88 22 -105 -3 -9 -20 -14 -43 -14 -35 0 -38 2
-32 23 3 12 11 26 19 30 15 9 18 63 3 72 -18 11 -9 85 10 85 4 0 10 -6 13 -14z
m-798 -94 c-12 -13 -24 22 -12 37 10 12 13 11 15 -8 2 -13 1 -26 -3 -29z m715
0 c0 -16 -32 -52 -46 -52 -18 0 -18 10 2 38 14 21 44 31 44 14z m916 -279
c-10 -10 -19 5 -10 18 6 11 8 11 12 0 2 -7 1 -15 -2 -18z m-62 -53 c8 0 25 5
38 10 19 9 33 5 81 -21 54 -29 57 -33 43 -47 -14 -14 -25 -15 -86 -4 -63 11
-75 10 -119 -8 -43 -17 -51 -17 -62 -4 -9 12 -8 23 6 57 30 67 34 71 61 42 13
-14 30 -25 38 -25z m-414 -35 c51 -39 80 -78 68 -90 -6 -6 -117 95 -129 116
-15 28 -3 24 61 -26z m-138 -29 c12 -19 41 -47 65 -62 54 -37 57 -64 8 -64
-39 0 -46 -17 -17 -43 30 -27 49 -24 81 17 17 21 31 43 31 47 0 5 6 9 14 9 8
0 16 6 18 12 3 7 20 -14 39 -47 20 -33 42 -61 50 -63 8 -1 25 11 38 29 20 27
22 35 12 57 -10 20 -9 27 1 33 19 13 39 11 36 -3 -1 -7 4 -30 11 -51 15 -43
56 -70 104 -66 53 3 67 0 61 -15 -8 -21 12 -28 30 -10 9 8 16 20 16 25 0 5 5
9 10 9 15 0 12 -55 -4 -94 -14 -33 -15 -33 -96 -40 -67 -5 -95 -3 -157 15 -86
24 -116 18 -133 -27 -11 -29 -34 -27 -84 9 -16 11 -50 28 -75 38 -46 17 -46
17 -51 70 l-5 54 -115 -1 c-76 -1 -134 -7 -172 -18 -47 -14 -61 -15 -80 -5
-22 12 -21 13 22 21 46 8 100 52 100 83 0 8 13 21 30 30 16 8 37 27 46 40 12
19 25 25 53 25 20 0 43 5 51 10 25 16 39 11 62 -24z m2058 -627 c0 -21 -4 -40
-9 -43 -9 -6 -31 59 -31 94 0 22 1 23 20 5 13 -12 20 -31 20 -56z m-3500 -71
c6 -31 24 -73 45 -103 40 -58 65 -124 65 -170 0 -33 16 -50 195 -209 62 -55
77 -92 62 -146 -14 -49 -13 -134 3 -208 13 -61 13 -63 -9 -79 -19 -13 -22 -22
-18 -50 8 -50 -6 -35 -91 95 -113 175 -187 342 -238 543 -29 115 -54 281 -54
364 0 56 1 58 15 38 8 -12 20 -46 25 -75z m3490 -47 c0 -9 -5 -23 -10 -31 -8
-13 -10 -13 -10 1 0 9 -3 32 -6 50 -5 32 -5 33 10 15 9 -11 16 -27 16 -35z
m-40 -88 c17 -28 20 -45 14 -72 l-7 -36 -12 40 c-18 58 -27 105 -22 105 3 0
15 -17 27 -37z m1886 -44 c8 -35 21 -109 29 -164 27 -184 16 -286 -32 -308
-22 -10 -28 -8 -48 16 -44 50 -42 194 6 426 10 51 19 96 19 99 0 20 14 -16 26
-69z m-1518 -79 c34 -49 62 -93 62 -98 0 -5 -7 -15 -15 -22 -11 -9 -20 -8 -45
7 l-31 18 -27 -33 c-28 -33 -42 -40 -42 -21 0 6 -9 24 -21 40 -20 28 -21 28
-49 14 -35 -18 -50 -19 -50 -2 0 14 138 187 149 186 3 0 34 -40 69 -89z m1152
-105 c30 -151 38 -327 16 -378 -14 -35 -19 -38 -48 -35 -30 3 -35 8 -52 58
-17 50 -17 65 -7 165 15 142 53 330 62 313 4 -7 17 -63 29 -123z m635 -65 c22
-152 1 -243 -53 -226 -43 14 -53 115 -27 265 8 47 20 103 27 125 l11 41 13
-50 c7 -27 20 -97 29 -155z m-1325 10 c0 -3 -12 -11 -27 -17 -22 -11 -31 -10
-48 1 -12 8 -33 12 -48 9 -36 -7 -34 4 10 49 l37 38 38 -37 c21 -20 38 -40 38
-43z m-683 10 c5 0 24 7 42 16 18 9 34 14 35 13 2 -2 13 -23 25 -46 12 -24 25
-43 29 -43 5 0 21 18 37 39 l30 39 28 -20 29 -21 26 26 25 26 62 -82 c34 -45
76 -103 94 -129 17 -27 38 -48 46 -48 23 0 18 12 -25 70 -22 29 -40 56 -40 60
0 3 13 19 30 35 23 22 32 26 43 16 10 -7 22 -8 38 -2 18 6 31 4 52 -11 26 -19
29 -19 46 -4 34 31 66 20 116 -39 57 -66 70 -68 165 -20 80 40 115 45 105 16
-12 -38 -25 -137 -25 -192 0 -83 9 -117 41 -147 16 -15 29 -36 29 -48 0 -18
-8 -22 -52 -28 -29 -3 -105 -6 -169 -6 l-117 0 -98 46 c-230 107 -362 142
-559 151 -126 5 -223 -1 -349 -23 l-39 -7 47 89 c28 54 79 128 131 189 46 55
85 105 85 110 0 6 7 2 14 -7 7 -10 18 -18 23 -18z m1112 -67 c25 -113 32 -166
33 -232 1 -87 -15 -131 -47 -131 -40 0 -50 25 -50 129 0 93 31 281 46 281 4 0
12 -21 18 -47z m88 -18 l51 -15 -1 -103 c-1 -115 14 -164 58 -193 19 -12 25
-24 23 -43 -3 -22 -11 -28 -63 -42 -33 -9 -81 -19 -107 -23 -46 -7 -48 -6 -48
16 0 13 9 29 20 36 12 7 25 25 31 40 18 48 10 211 -16 315 -8 32 -12 31 52 12z
m393 -292 c-59 -18 -131 -41 -159 -53 -67 -26 -81 -26 -81 3 0 15 9 28 23 34
33 16 57 72 57 135 0 30 3 57 6 60 3 4 63 -28 133 -70 l127 -77 -106 -32z
m-1831 -376 c6 -8 14 -31 19 -53 7 -35 11 -39 35 -36 26 3 27 2 21 -25 -11
-46 -10 -48 16 -49 53 -1 66 -38 30 -84 -26 -33 -25 -40 4 -40 56 0 41 -43
-22 -65 -26 -9 -60 -24 -77 -32 l-30 -15 30 29 c17 15 41 36 55 45 18 12 21
17 9 17 -9 1 -33 -10 -53 -24 l-36 -24 0 29 c0 23 9 36 44 62 42 31 62 55 52
65 -2 2 -11 -4 -21 -13 -14 -15 -18 -15 -26 -3 -7 12 -9 11 -9 -2 0 -9 -9 -24
-20 -34 -19 -17 -20 -17 -20 1 0 10 9 39 20 63 23 49 23 51 12 51 -5 0 -14
-10 -20 -22 -9 -20 -11 -18 -11 22 -2 66 -21 89 -21 25 0 -48 -1 -49 -16 -27
-28 40 -35 23 -9 -21 25 -44 36 -137 15 -137 -14 0 -30 35 -30 64 0 14 -4 26
-10 26 -5 0 -10 -7 -10 -16 0 -12 -5 -11 -20 7 -15 19 -19 20 -20 8 0 -9 23
-45 50 -79 69 -86 68 -97 -6 -54 -25 15 -48 23 -52 19 -7 -7 7 -19 59 -48 17
-10 30 -20 27 -22 -8 -8 -90 24 -110 42 -27 24 -23 53 7 53 30 0 30 2 4 57
-17 36 -19 46 -8 59 8 10 21 13 36 9 23 -5 24 -4 17 45 -7 51 -7 51 18 45 23
-6 26 -3 32 36 10 61 22 73 45 46z m-845 -3 c8 -3 18 -22 22 -42 4 -21 10 -41
14 -47 12 -16 6 -138 -8 -162 -7 -13 -10 -33 -6 -47 3 -14 -2 -38 -14 -61
l-19 -38 -6 49 c-4 27 -5 58 -3 70 8 39 10 193 3 200 -8 9 -8 15 -16 -156 -6
-132 -6 -134 -22 -105 -10 18 -15 43 -12 61 3 18 -2 44 -11 62 -22 43 -21 94
4 115 11 9 20 29 20 44 0 14 7 35 17 45 18 21 16 20 37 12z m-141 -127 c33
-67 59 -138 53 -144 -3 -3 -19 23 -36 57 -34 68 -52 75 -26 10 18 -44 17 -45
-18 -29 -16 8 -26 22 -29 43 -2 17 -11 46 -18 64 -13 30 -12 35 4 47 27 20 41
10 70 -48z m314 -49 c5 -7 8 -36 5 -64 -3 -43 -8 -53 -33 -68 -16 -10 -31 -29
-35 -44 -3 -15 -7 -32 -9 -38 -5 -15 -65 -45 -65 -33 0 16 30 70 67 122 19 27
31 52 28 55 -4 4 -15 -5 -26 -20 -11 -14 -27 -36 -37 -48 -17 -21 -17 -21 -19
11 -2 23 5 39 25 59 15 15 35 39 45 53 19 29 39 34 54 15z m-357 -75 c62 -23
66 -27 110 -107 46 -82 54 -122 12 -55 -29 45 -94 108 -131 129 -37 19 -23 -1
42 -60 34 -32 72 -77 85 -101 l24 -44 -29 32 c-15 18 -46 39 -68 46 -32 11
-41 19 -43 41 -2 19 -13 30 -37 40 -28 12 -55 41 -55 60 0 7 30 36 38 36 3 0
27 -8 52 -17z"/>
<path d="M3369 4346 c-87 -24 -129 -48 -129 -74 0 -11 -28 -41 -65 -70 -36
-29 -65 -57 -65 -62 0 -5 -18 -19 -40 -30 -72 -37 -165 -152 -170 -210 -7 -78
22 -80 104 -11 48 41 77 56 155 80 53 17 113 33 134 36 38 6 73 32 210 156 34
31 81 66 105 78 40 21 53 43 32 56 -6 4 -8 10 -5 15 11 18 -8 40 -38 44 -94
14 -155 12 -228 -8z m218 -21 c7 -3 10 -11 6 -21 -3 -9 0 -20 8 -24 10 -7 6
-12 -16 -20 -16 -6 -58 -37 -92 -68 -133 -122 -172 -151 -210 -157 -45 -8
-166 -42 -208 -60 -16 -7 -56 -33 -87 -59 -31 -25 -59 -46 -62 -46 -9 0 12 60
33 94 23 36 105 116 120 116 17 0 186 160 197 187 10 24 23 31 95 49 76 19
170 23 216 9z"/>
<path d="M3835 4255 c-5 -2 -22 -6 -37 -9 -19 -5 -28 -13 -28 -27 0 -28 28
-79 43 -79 19 1 57 36 57 53 0 9 9 19 20 22 24 8 26 30 4 39 -16 6 -42 7 -59
1z m5 -42 c0 -5 -5 -15 -10 -23 -9 -13 -11 -13 -20 0 -15 22 -12 30 10 30 11
0 20 -3 20 -7z"/>
<path d="M4206 4197 c-28 -37 -32 -67 -15 -115 8 -25 20 -34 50 -44 53 -15 73
1 42 34 -29 33 -32 48 -17 87 29 70 -15 97 -60 38z m29 -67 c0 -51 -2 -58 -12
-43 -16 21 -17 58 -3 84 6 10 12 19 13 19 1 0 2 -27 2 -60z"/>
<path d="M3221 3920 c-13 -37 -2 -65 30 -75 42 -14 119 21 119 54 0 27 -19 38
-81 45 l-57 7 -11 -31z m85 -10 c31 0 31 -26 0 -34 -33 -8 -56 2 -56 26 0 14
5 18 16 14 9 -3 27 -6 40 -6z"/>
<path d="M4593 1627 c-28 -28 -65 -64 -82 -79 -23 -20 -31 -35 -31 -61 0 -19
-7 -48 -15 -63 -21 -40 -19 -70 6 -95 27 -27 65 -19 100 21 14 16 47 80 73
141 46 104 48 113 37 150 -7 21 -17 39 -24 39 -7 0 -35 -24 -64 -53z m67 -28
c0 -10 -4 -19 -9 -19 -5 0 -12 -11 -15 -25 -3 -13 -25 -63 -47 -110 -38 -80
-68 -112 -91 -98 -13 7 -9 59 7 89 8 16 15 44 15 61 0 28 6 36 39 53 22 11 49
33 61 50 23 32 40 32 40 -1z"/>
<path d="M4486 3339 c-28 -30 -35 -46 -30 -62 9 -32 50 -90 75 -105 16 -10 19
-19 15 -39 -10 -36 1 -61 34 -78 36 -19 71 -19 95 -1 18 13 19 18 6 58 -7 23
-13 55 -12 71 0 21 -8 33 -37 51 -21 13 -43 30 -50 39 -11 13 -10 17 7 27 23
12 28 49 9 68 -7 7 -26 12 -44 12 -24 0 -40 -9 -68 -41z m94 3 c0 -5 -9 -17
-20 -27 -29 -26 -25 -38 23 -81 23 -21 40 -43 39 -49 -2 -5 7 -29 20 -53 20
-37 21 -44 8 -52 -16 -10 -46 -4 -67 12 -7 6 -12 25 -11 43 1 26 -8 44 -40 81
-49 54 -53 84 -16 113 27 21 64 28 64 13z"/>
<path d="M3577 3173 c-3 -4 -8 -31 -12 -59 -6 -51 1 -69 22 -56 15 10 21 114
6 119 -6 2 -13 0 -16 -4z"/>
<path d="M3942 2948 c3 -7 22 -14 42 -16 28 -2 37 0 34 10 -3 7 -22 14 -42 16
-28 2 -37 0 -34 -10z"/>
<path d="M5120 4475 c0 -13 13 -15 83 -13 46 2 82 7 82 13 0 6 -36 11 -82 13
-70 2 -83 0 -83 -13z"/>
<path d="M5955 4480 c-68 -7 -46 -17 45 -21 61 -3 75 -1 75 11 0 16 -32 19
-120 10z"/>
<path d="M5238 4289 c-67 -39 -84 -59 -52 -59 16 0 97 44 126 68 16 14 16 32
0 32 -4 0 -37 -18 -74 -41z"/>
<path d="M5875 4311 c-6 -10 25 -34 93 -71 30 -17 45 -21 53 -13 8 8 -8 22
-58 52 -74 44 -79 46 -88 32z"/>
<path d="M5385 4137 c-37 -67 -43 -91 -23 -85 12 4 86 124 87 141 1 4 -6 7
-14 7 -7 0 -30 -29 -50 -63z"/>
<path d="M5750 4190 c0 -15 71 -140 79 -140 21 0 17 19 -16 82 -21 37 -43 68
-50 68 -7 0 -13 -4 -13 -10z"/>
<path d="M5585 4148 c-10 -24 -1 -163 10 -163 13 0 19 155 6 168 -7 7 -12 5
-16 -5z"/>
<path d="M2160 4078 c-128 -161 -257 -391 -337 -597 -204 -531 -224 -1079 -58
-1588 30 -91 44 -118 56 -106 6 6 0 37 -15 79 -194 554 -153 1193 113 1759 58
122 173 315 248 413 39 51 53 76 45 84 -7 7 -23 -6 -52 -44z"/>
<path d="M5818 3894 c-3 -3 25 -66 62 -140 214 -425 291 -881 230 -1349 -11
-82 -20 -151 -20 -152 0 -2 6 -3 14 -3 16 0 21 22 41 190 19 159 19 381 0 535
-20 168 -28 208 -84 420 -27 101 -140 360 -207 472 -19 33 -26 38 -36 27z"/>
<path d="M5747 3641 c-3 -16 -4 -41 -1 -55 5 -29 -3 -33 -32 -11 -24 18 -34
19 -34 0 0 -8 9 -19 20 -25 33 -18 23 -30 -24 -30 -44 0 -76 -19 -37 -21 12
-1 30 -3 41 -4 11 -1 25 -3 32 -4 6 0 2 -11 -10 -24 -12 -13 -22 -26 -22 -30
0 -13 27 -7 40 8 17 20 27 19 27 -2 -1 -59 4 -93 13 -93 6 0 10 25 10 55 0 56
8 67 30 40 13 -15 40 -21 40 -8 0 4 -10 17 -22 30 l-21 23 29 0 c41 0 75 11
68 21 -3 5 -25 9 -50 9 -47 0 -56 12 -24 32 22 14 27 38 8 38 -6 0 -22 -10
-35 -22 l-23 -21 0 61 c0 65 -13 83 -23 33z"/>
<path d="M2020 3481 c0 -52 -8 -62 -30 -36 -7 8 -17 12 -22 9 -5 -3 1 -17 13
-30 l22 -24 -41 0 c-31 0 -42 -4 -42 -15 0 -11 11 -15 42 -15 l42 0 -22 -21
c-12 -11 -20 -25 -16 -30 4 -6 13 -4 23 5 27 24 31 20 31 -29 0 -33 4 -45 15
-45 11 0 15 12 15 45 0 45 0 45 23 30 32 -21 42 -7 15 22 l-21 23 41 0 c31 0
42 4 42 15 0 11 -11 15 -42 15 l-41 0 22 24 c27 29 10 47 -19 21 -18 -16 -19
-15 -22 31 -4 67 -28 72 -28 5z"/>
<path d="M5887 2732 c-36 -40 -11 -95 43 -95 36 0 60 23 60 58 0 48 -70 73
-103 37z m70 -28 c3 -8 -2 -23 -11 -32 -15 -15 -17 -15 -32 0 -21 21 -11 48
16 48 11 0 23 -7 27 -16z"/>
<path d="M1990 2117 c-50 -25 -32 -107 24 -107 56 0 80 66 36 102 -26 21 -28
21 -60 5z m45 -33 c12 -12 13 -19 4 -30 -24 -29 -59 -5 -45 31 7 19 21 19 41
-1z"/>
<path d="M8330 1942 l0 -48 -44 -12 c-77 -20 -155 -110 -156 -178 0 -12 -7
-27 -15 -34 -22 -19 -18 -48 10 -66 14 -9 25 -25 25 -35 0 -25 -3 -24 -42 11
-18 16 -54 37 -80 46 l-47 15 -3 56 c-4 81 -28 84 -28 4 0 -58 -1 -61 -27 -67
-84 -20 -155 -85 -173 -156 -6 -24 -15 -51 -20 -60 -16 -28 -12 -57 10 -70 19
-12 20 -24 20 -160 l0 -147 -27 -3 c-16 -2 -27 -7 -25 -13 3 -16 884 -14 890
3 2 7 -6 12 -22 12 l-26 0 0 278 c0 266 1 278 20 290 21 13 27 46 11 56 -5 4
-12 24 -16 45 -11 65 -56 125 -116 155 -29 14 -61 26 -71 26 -15 0 -18 8 -18
50 0 38 -4 50 -15 50 -11 0 -15 -12 -15 -48z m87 -93 c54 -20 102 -78 117
-141 l6 -28 -191 0 -192 0 6 36 c8 46 48 99 95 124 41 21 115 26 159 9z m143
-209 c0 -6 -79 -10 -216 -10 -141 0 -213 3 -209 10 4 6 87 10 216 10 133 0
209 -4 209 -10z m-547 -41 c68 -19 137 -99 137 -160 0 -18 -11 -19 -185 -19
-152 0 -187 3 -191 14 -9 25 32 102 69 130 57 44 105 54 170 35z m505 -21 c3
-13 -3 -18 -20 -18 -46 0 -48 -9 -48 -272 l0 -248 -25 0 -25 0 0 235 c0 257
-5 285 -50 285 -49 0 -50 -7 -50 -272 l0 -248 -30 0 -30 0 0 248 c0 256 -2
272 -41 272 -18 0 -32 23 -21 34 3 4 80 5 171 4 149 -3 166 -5 169 -20z m-308
-294 l0 -244 -25 0 -25 0 0 148 c0 136 1 148 20 160 20 12 28 56 11 66 -14 9
-22 98 -10 112 6 8 15 11 20 8 5 -3 9 -115 9 -250z m160 -5 c0 -232 -1 -239
-20 -239 -19 0 -20 7 -20 243 0 134 3 247 7 250 3 4 12 2 20 -4 10 -9 13 -63
13 -250z m150 6 c0 -238 -1 -245 -20 -245 -19 0 -20 7 -20 245 0 238 1 245 20
245 19 0 20 -7 20 -245z m-345 95 c-4 -6 -87 -10 -216 -10 -133 0 -209 4 -209
10 0 6 79 10 216 10 141 0 213 -3 209 -10z m-45 -55 c0 -8 -8 -15 -18 -15 -36
0 -42 -20 -42 -147 l0 -123 -30 0 -30 0 0 119 c0 95 -3 123 -16 135 -20 21
-43 20 -66 -1 -15 -14 -18 -32 -18 -135 l0 -118 -30 0 -30 0 0 123 c0 127 -6
147 -42 147 -10 0 -18 7 -18 15 0 13 26 15 170 15 144 0 170 -2 170 -15z
m-302 -168 c3 -112 2 -117 -18 -117 -19 0 -20 6 -20 121 0 109 2 120 18 117
15 -3 17 -18 20 -121z m150 0 c3 -112 2 -117 -18 -117 -19 0 -20 6 -20 113 0
63 3 117 7 121 20 20 28 -9 31 -117z m152 3 c0 -100 -2 -120 -15 -120 -12 0
-15 20 -15 120 0 100 3 120 15 120 13 0 15 -20 15 -120z"/>
<path d="M1897 1773 c-4 -3 -7 -19 -7 -33 0 -15 -3 -42 -6 -59 l-7 -32 -22 21
c-27 26 -46 9 -21 -19 9 -10 16 -20 16 -24 0 -3 -27 -9 -60 -13 -40 -4 -60
-11 -60 -20 0 -9 20 -15 60 -20 62 -7 70 -13 45 -34 -8 -7 -15 -16 -15 -21 0
-15 27 -10 41 7 12 14 14 14 20 -3 4 -10 8 -34 8 -53 1 -19 6 -42 11 -50 9
-13 11 -13 20 0 5 8 10 29 11 45 0 17 4 41 8 54 6 21 8 22 20 7 14 -17 41 -22
41 -7 0 5 -7 14 -15 21 -25 21 -17 27 41 33 31 3 58 8 61 11 13 12 -11 24 -62
31 -30 3 -55 10 -55 14 0 4 9 16 20 26 14 13 17 22 10 29 -6 6 -18 2 -34 -13
l-23 -22 -7 23 c-3 13 -6 35 -6 50 0 46 -15 69 -33 51z m53 -168 l23 -13 -22
-7 c-12 -4 -27 -19 -33 -33 l-11 -27 -6 23 c-3 13 -17 30 -30 37 l-24 13 21 6
c12 4 25 19 28 33 l7 26 12 -23 c7 -13 23 -28 35 -35z"/>
<path d="M5641 1583 c-16 -31 6 -51 74 -68 61 -16 103 -45 91 -63 -3 -6 -26
-17 -51 -25 l-45 -16 -40 39 c-50 48 -104 64 -184 56 -83 -9 -107 -34 -67 -70
14 -13 34 -16 87 -14 l69 3 126 -130 c69 -72 147 -153 173 -182 l47 -51 -50
-7 c-89 -12 -118 -71 -61 -125 17 -16 65 -43 108 -60 88 -37 120 -62 124 -99
3 -25 5 -26 63 -23 111 5 278 27 282 38 2 6 -25 30 -61 53 -74 47 -111 88
-137 149 -10 23 -25 45 -34 48 -20 8 -19 28 1 60 21 31 64 54 102 54 29 0 30
-2 41 -63 6 -35 11 -71 11 -81 0 -31 48 -112 86 -146 43 -37 119 -74 135 -65
6 4 -5 23 -26 46 -37 41 -70 103 -80 152 -3 15 -12 27 -19 27 -16 0 -26 31
-26 84 0 37 1 38 33 33 308 -45 297 -42 297 -72 0 -24 -1 -24 -112 -27 -149
-4 -149 -22 0 -26 103 -2 112 -4 112 -22 0 -11 -9 -34 -20 -52 -25 -42 -25
-94 0 -135 37 -61 131 -63 183 -5 24 26 32 90 15 121 -16 29 -57 61 -84 65
-10 2 -19 7 -19 12 0 5 87 10 193 12 148 2 193 5 189 15 -3 9 -55 13 -195 15
l-192 2 0 25 c0 18 5 25 20 25 24 0 44 35 36 65 -4 16 -16 26 -36 30 -22 5
-30 12 -30 29 0 12 -6 31 -14 41 -12 17 -18 18 -40 7 -18 -8 -26 -19 -26 -37
0 -32 -1 -32 -177 2 -126 23 -142 29 -145 47 -4 31 -67 36 -75 7 -4 -16 -13
-21 -38 -21 -39 0 -113 -25 -136 -46 -33 -30 -61 -14 -105 61 -162 276 -157
269 -206 293 -25 13 -71 26 -101 29 -48 5 -56 3 -66 -14z m151 -37 c35 -17 87
-80 75 -92 -3 -3 -23 12 -44 34 -30 31 -52 43 -97 53 -31 7 -60 17 -63 22 -10
16 87 3 129 -17z m-199 -79 c39 -17 406 -399 388 -405 -10 -3 -80 67 -325 326
l-59 62 -78 0 c-116 0 -113 24 4 29 21 0 52 -5 70 -12z m257 -45 c0 -13 -103
-53 -112 -44 -5 5 15 18 44 30 60 24 68 25 68 14z m119 -130 c49 -85 58 -114
33 -98 -17 10 -122 208 -116 218 7 11 16 0 83 -120z m-60 -1 c28 -49 51 -91
51 -95 0 -3 -11 -6 -24 -6 -17 0 -44 22 -96 80 -70 77 -71 80 -48 88 12 5 30
12 38 15 8 3 18 6 21 6 4 1 30 -39 58 -88z m428 -27 c-3 -3 -12 -4 -19 -1 -8
3 -5 6 6 6 11 1 17 -2 13 -5z m403 -51 c0 -20 -3 -24 -11 -16 -7 7 -9 19 -6
27 10 24 17 19 17 -11z m-245 -14 c61 -12 155 -26 210 -33 77 -8 100 -14 100
-26 0 -22 -126 -16 -314 16 -248 42 -321 29 -366 -64 -21 -42 -41 -53 -51 -27
-17 42 46 127 111 151 51 18 159 13 310 -17z m-425 -38 c0 -11 -95 -25 -110
-16 -22 13 -8 20 50 23 33 1 60 -1 60 -7z m286 -73 c2 -35 0 -58 -6 -58 -13 0
-17 11 -25 73 -6 42 -4 48 10 45 13 -2 18 -17 21 -60z m-314 26 c8 -7 -2 -44
-12 -44 -4 0 -15 11 -24 25 -16 24 -16 25 7 25 13 0 26 -3 29 -6z m712 -40 c9
-23 7 -44 -3 -44 -5 0 -11 14 -13 30 -5 32 6 41 16 14z m-620 -67 c14 -10 26
-24 26 -31 0 -8 16 -36 36 -61 19 -26 34 -48 32 -49 -2 -2 -43 -8 -92 -14
l-88 -11 -102 48 c-113 54 -146 82 -130 109 17 26 50 31 175 29 90 -2 122 -7
143 -20z m641 -125 c-14 -16 -41 110 -29 130 5 8 13 -14 20 -57 7 -38 10 -72
9 -73z m-365 59 c11 -29 24 -59 31 -67 7 -9 8 -14 1 -14 -16 0 -79 78 -91 112
-10 28 -9 29 15 26 21 -2 29 -13 44 -57z m439 -17 c41 -52 12 -127 -55 -140
-46 -9 -94 35 -94 84 0 58 15 72 33 31 20 -48 42 -65 63 -48 15 12 14 26 -2
82 -8 27 31 21 55 -9z m-554 -104 c36 -24 31 -26 -105 -38 -107 -9 -116 -8
-122 18 -2 11 17 17 87 26 50 6 95 12 100 12 6 1 23 -7 40 -18z"/>
<path d="M2007 1394 c-17 -17 150 -240 287 -382 101 -106 242 -232 258 -232
22 0 3 31 -44 71 -158 132 -305 293 -421 460 -60 87 -67 95 -80 83z"/>
<path d="M7400 1330 l0 -40 -101 0 c-114 0 -110 5 -75 -85 19 -50 20 -158 1
-210 -8 -22 -15 -43 -15 -47 0 -5 43 -8 95 -8 l95 0 0 -36 0 -36 -91 4 c-76 2
-94 6 -103 21 -29 48 -32 50 -109 55 -74 4 -77 4 -77 -17 0 -56 59 -186 98
-218 22 -18 -2 -17 -39 2 -27 15 -49 13 -49 -3 0 -9 76 -45 95 -45 8 0 30 8
49 18 34 18 37 18 71 2 44 -21 75 -22 101 -2 24 18 54 18 78 0 25 -19 75 -19
100 0 25 19 55 19 80 0 11 -8 32 -15 46 -15 14 0 35 7 46 15 24 18 54 18 78 0
33 -25 96 -17 96 12 0 10 -8 12 -32 8 -21 -4 -40 -1 -52 8 -18 14 -18 15 11
58 40 58 83 144 83 165 0 15 -12 16 -109 12 -106 -4 -110 -5 -134 -34 -24 -27
-30 -29 -116 -32 l-91 -4 0 31 0 30 82 3 83 3 20 40 c29 59 28 204 -3 263
l-22 42 -79 0 -78 0 -7 40 c-3 22 -11 40 -16 40 -6 0 -10 -18 -10 -40z m188
-104 c23 -47 26 -136 8 -199 l-17 -57 -165 0 c-154 0 -166 1 -159 18 21 52 16
187 -11 255 -6 16 4 17 162 15 l169 -3 13 -29z m-414 -340 c34 -45 65 -49 277
-39 l167 9 36 32 c34 30 42 32 111 32 41 0 75 -2 75 -5 0 -11 -43 -91 -71
-131 -28 -42 -93 -84 -128 -84 -10 0 -24 7 -31 15 -16 19 -70 19 -96 0 -25
-19 -54 -19 -82 1 -25 17 -55 15 -109 -7 -29 -12 -37 -11 -64 5 -22 13 -42 17
-68 12 -32 -5 -41 -2 -63 22 -31 33 -45 59 -64 120 -7 26 -14 48 -14 50 0 1
22 2 49 2 44 0 51 -3 75 -34z"/>
<path d="M5106 1183 c-7 -16 -17 -56 -21 -90 l-7 -61 -27 31 c-39 43 -65 32
-56 -22 l6 -39 -42 5 -42 6 5 -40 c8 -55 46 -108 107 -149 28 -19 55 -43 61
-53 8 -17 5 -21 -24 -31 -36 -12 -63 -36 -52 -47 3 -4 22 1 41 10 20 9 49 17
65 17 16 0 45 -8 65 -17 19 -9 38 -14 41 -10 11 11 -16 35 -47 42 -22 5 -29
12 -29 31 0 13 10 32 22 42 68 54 102 90 119 123 22 43 25 98 7 100 -29 3 -55
-4 -86 -22 -18 -10 -34 -19 -35 -19 -1 0 -1 33 1 74 5 118 -36 187 -72 119z
m48 -106 c0 -40 -6 -92 -14 -117 l-13 -45 -9 40 c-11 44 -6 184 6 204 17 27
31 -11 30 -82z m-95 -65 c17 -27 31 -59 31 -71 0 -21 -1 -21 -25 7 -25 30 -45
73 -45 98 0 22 6 17 39 -34z m218 -37 c-6 -38 -31 -74 -72 -107 -36 -28 -40
-18 -10 26 14 20 25 42 25 48 0 17 -40 -23 -61 -62 l-20 -35 6 35 c9 47 34 80
81 107 52 30 58 29 51 -12z m-267 -14 c28 -20 70 -78 70 -95 0 -6 -11 0 -23
14 -13 14 -30 31 -40 39 -29 23 -20 -5 14 -44 36 -41 29 -45 -16 -11 -27 21
-75 99 -75 122 0 9 43 -6 70 -25z"/>
<path d="M2500 1130 c-11 -11 -20 -29 -20 -40 0 -11 9 -29 20 -40 11 -11 29
-20 40 -20 11 0 29 9 40 20 11 11 20 29 20 40 0 11 -9 29 -20 40 -11 11 -29
20 -40 20 -11 0 -29 -9 -40 -20z m64 -27 c4 -9 0 -23 -9 -32 -13 -14 -17 -14
-32 1 -13 14 -14 20 -3 32 16 21 36 20 44 -1z"/>
</g>
</svg>
