<?xml version="1.0" standalone="no"?>
<!DOCTYPE svg PUBLIC "-//W3C//DTD SVG 20010904//EN"
 "http://www.w3.org/TR/2001/REC-SVG-20010904/DTD/svg10.dtd">
<svg version="1.0" xmlns="http://www.w3.org/2000/svg"
 width="1024.000000pt" height="559.000000pt" viewBox="0 0 1024.000000 559.000000"
 preserveAspectRatio="xMidYMid meet">
<metadata>
Created by potrace 1.16, written by Peter Selinger 2001-2019
</metadata>
<g transform="translate(0.000000,559.000000) scale(0.100000,-0.100000)"
fill="#000000" stroke="none">
<path d="M4990 4421 c-353 -51 -710 -263 -880 -523 l-55 -85 -85 -6 c-235 -15
-517 -187 -687 -418 -76 -103 -141 -255 -158 -371 l-7 -45 -42 4 c-100 12
-315 -35 -468 -102 -113 -48 -273 -157 -350 -237 -284 -292 -304 -700 -47
-959 59 -60 94 -86 161 -118 190 -92 406 -95 613 -9 102 43 98 43 148 5 101
-77 223 -117 357 -117 134 0 265 46 357 124 l41 36 104 -103 c161 -161 318
-254 521 -309 70 -19 108 -22 262 -23 169 0 186 2 274 28 157 47 300 129 418
240 l51 48 52 -26 c146 -74 320 -69 492 15 l46 23 49 -31 c263 -169 637 -191
908 -54 128 64 268 185 330 285 34 54 27 53 145 12 200 -71 408 -31 541 105
269 275 98 740 -329 894 -88 31 -219 50 -299 41 l-61 -6 5 93 c31 528 -436
909 -974 793 -29 -7 -34 -5 -43 21 -66 173 -230 381 -404 511 -144 107 -324
192 -504 239 -79 21 -127 26 -262 29 -91 2 -190 0 -220 -4z m383 -37 c409 -71
774 -336 947 -688 53 -107 100 -267 100 -342 l0 -44 -42 5 c-114 16 -104 9
-122 83 -78 316 -279 580 -541 710 -114 57 -305 116 -305 95 0 -5 42 -22 93
-37 354 -106 587 -334 706 -692 16 -49 31 -102 33 -119 3 -29 1 -30 -46 -37
-58 -8 -106 -26 -106 -40 0 -6 10 -8 23 -5 143 36 258 29 362 -22 69 -34 147
-106 175 -162 23 -45 38 -56 46 -35 15 39 -112 178 -206 226 -37 19 -37 19
-43 97 -3 43 -13 107 -23 141 -9 36 -12 68 -8 72 5 5 48 14 97 20 188 23 401
-29 552 -136 183 -129 287 -321 301 -554 3 -52 2 -115 -3 -138 -8 -44 -8 -44
-92 -77 -46 -18 -88 -38 -94 -44 -23 -23 6 -23 70 1 108 41 130 47 207 54 89
8 193 -8 299 -47 242 -88 427 -318 427 -533 -1 -264 -212 -454 -483 -433 -81
6 -228 49 -247 72 -7 8 -16 15 -19 15 -4 0 -29 -32 -55 -70 -60 -87 -178 -198
-267 -251 -80 -48 -191 -91 -279 -108 -85 -17 -248 -16 -340 3 -115 22 -270
85 -330 134 l-25 20 28 22 c23 19 37 50 22 50 -3 0 -29 -18 -58 -39 -99 -74
-227 -122 -330 -121 -87 1 -191 34 -259 82 -14 10 -28 2 -90 -53 -202 -181
-383 -257 -632 -266 -348 -14 -630 117 -883 410 l-42 49 -48 -46 c-56 -54
-167 -112 -242 -126 -70 -13 -167 -13 -233 1 -71 15 -183 69 -236 114 l-43 37
-77 -34 c-128 -58 -192 -72 -332 -72 -135 -1 -198 13 -295 61 -263 132 -384
434 -292 726 106 333 504 606 924 633 l103 7 0 -44 c0 -24 7 -69 15 -99 19
-72 20 -70 -22 -58 -59 17 -229 14 -302 -6 -217 -58 -427 -230 -511 -418 -34
-76 -9 -61 39 23 155 277 497 445 764 378 l38 -10 -31 -36 c-46 -52 -87 -140
-72 -155 9 -9 16 -1 30 33 44 102 153 193 273 230 38 12 69 26 69 31 0 20 -94
-1 -162 -36 l-68 -34 -12 41 c-21 72 -16 231 11 317 44 144 105 243 226 368
155 162 352 269 557 302 34 5 64 7 68 5 5 -3 -5 -39 -21 -80 -35 -90 -59 -198
-59 -267 0 -48 -3 -53 -47 -92 -51 -45 -103 -120 -103 -148 0 -30 14 -20 48
37 64 106 214 196 355 214 30 3 52 12 55 20 4 11 -7 13 -59 9 -54 -4 -109 -22
-206 -65 -35 -15 0 172 57 310 133 319 500 588 905 660 109 20 309 21 418 1z"/>
<path d="M3566 3495 c-76 -40 -183 -165 -231 -270 -45 -97 -78 -235 -57 -235
4 0 15 33 25 72 43 174 128 305 271 416 35 27 31 37 -8 17z"/>
<path d="M7520 2622 c0 -4 34 -13 76 -20 190 -30 332 -147 385 -316 26 -83 45
-101 34 -33 -20 126 -122 255 -255 320 -92 45 -240 75 -240 49z"/>
<path d="M3810 1824 c-25 -14 -56 -36 -70 -48 -36 -33 -119 -81 -165 -96 -54
-18 -142 -18 -185 0 -19 8 -63 31 -96 51 -66 40 -120 59 -169 59 -16 0 -79
-20 -140 -45 -159 -65 -210 -78 -301 -79 -73 -1 -86 2 -156 37 -69 34 -148
103 -148 129 0 4 -4 8 -10 8 -44 0 56 -115 132 -152 148 -73 268 -62 523 46
39 17 79 26 115 26 48 0 66 -6 134 -46 94 -55 145 -74 200 -74 89 0 206 51
303 131 99 82 148 71 241 -56 178 -243 470 -385 767 -372 191 8 296 57 472
217 57 52 119 103 136 113 47 27 115 17 213 -30 191 -93 276 -85 529 51 87 47
110 45 214 -23 42 -27 98 -59 126 -71 246 -105 537 -38 723 165 48 52 62 75
46 75 -4 0 -43 -35 -88 -78 -136 -130 -264 -183 -439 -183 -143 0 -216 25
-386 131 -82 51 -126 53 -202 10 -159 -88 -199 -104 -284 -108 -93 -5 -119 1
-250 61 -150 68 -194 58 -335 -78 -103 -99 -198 -162 -300 -200 -68 -26 -87
-28 -205 -29 -139 0 -217 16 -350 71 -135 56 -305 197 -392 326 -60 88 -123
107 -203 61z"/>
</g>
</svg>
