<?xml version="1.0" standalone="no"?>
<!DOCTYPE svg PUBLIC "-//W3C//DTD SVG 20010904//EN"
 "http://www.w3.org/TR/2001/REC-SVG-20010904/DTD/svg10.dtd">
<svg version="1.0" xmlns="http://www.w3.org/2000/svg"
 width="1024.000000pt" height="559.000000pt" viewBox="0 0 1024.000000 559.000000"
 preserveAspectRatio="xMidYMid meet">
<metadata>
Created by potrace 1.16, written by Peter Selinger 2001-2019
</metadata>
<g transform="translate(0.000000,559.000000) scale(0.100000,-0.100000)"
fill="#000000" stroke="none">
<path d="M5105 4900 c-76 -14 -189 -58 -253 -99 -69 -45 -149 -131 -179 -193
l-23 -45 -57 20 c-209 70 -458 -96 -490 -328 l-5 -41 -52 13 c-162 44 -354
-92 -374 -265 -5 -43 -5 -43 -36 -35 -53 14 -148 8 -184 -10 -45 -24 -92 -92
-92 -134 0 -32 -1 -33 -44 -33 -126 0 -233 -97 -194 -177 54 -112 352 -132
1363 -92 272 11 339 10 720 -10 500 -25 1062 -28 1425 -6 310 18 430 42 507
101 67 51 84 138 38 192 -20 24 -25 41 -25 85 0 73 -27 132 -83 184 -50 46
-139 79 -187 69 -27 -5 -29 -3 -35 35 -11 61 -61 153 -109 197 -114 105 -279
139 -392 82 -38 -20 -53 -15 -54 18 0 26 -52 115 -93 159 -54 59 -102 89 -175
109 -74 21 -132 13 -207 -26 l-54 -29 -20 33 c-28 45 -116 127 -173 160 -82
48 -161 67 -293 71 -66 2 -142 0 -170 -5z m307 -34 c31 -8 82 -25 113 -40 64
-29 166 -121 202 -183 14 -24 26 -43 28 -43 2 0 26 15 54 34 145 98 340 27
430 -155 36 -74 52 -166 30 -172 -8 -3 -36 -10 -64 -16 -48 -12 -85 -35 -85
-53 0 -5 19 1 43 14 56 29 153 29 217 1 50 -22 99 -72 119 -121 15 -35 31 -43
31 -14 -1 58 -97 153 -176 173 -42 11 -45 13 -42 43 8 77 177 101 303 43 109
-51 191 -155 204 -261 l6 -50 70 -1 c77 -1 114 -16 162 -64 47 -47 68 -98 68
-168 1 -52 5 -66 25 -88 18 -19 25 -37 25 -66 0 -82 -105 -143 -286 -168 -254
-35 -1195 -48 -1559 -22 -268 20 -733 25 -1037 11 -581 -25 -974 -11 -1088 39
-76 33 -85 81 -26 134 40 36 67 45 155 49 l48 3 4 45 c4 48 24 82 68 114 22
17 42 21 106 21 50 0 84 -5 92 -12 24 -25 35 -13 41 42 7 70 58 166 109 207
21 16 61 39 88 49 74 28 128 24 221 -15 14 -6 17 3 21 61 10 130 92 242 221
304 51 24 75 29 132 29 39 -1 88 -8 110 -16 22 -8 47 -18 55 -20 11 -4 24 12
43 52 35 70 124 165 191 204 63 35 144 65 216 79 30 6 64 13 75 15 32 8 175
-3 237 -18z"/>
<path d="M4530 4420 c-92 -18 -190 -93 -232 -173 -22 -43 -38 -154 -21 -144 6
4 13 25 17 48 14 88 80 172 172 219 74 37 190 40 273 7 64 -26 78 -22 36 12
-45 35 -158 49 -245 31z"/>
<path d="M3945 4086 c-46 -20 -94 -64 -116 -107 -24 -47 -35 -120 -22 -144 8
-13 11 -6 16 33 11 96 72 174 158 202 21 7 39 17 39 22 0 12 -41 9 -75 -6z"/>
<path d="M6865 3950 c-3 -5 10 -16 29 -25 63 -30 90 -106 66 -190 -15 -54 -8
-67 16 -30 35 54 18 171 -32 217 -26 23 -72 39 -79 28z"/>
<path d="M3490 3183 c-104 -214 -124 -270 -125 -343 0 -59 2 -65 21 -68 26 -4
47 26 81 116 21 57 103 384 103 412 0 32 -25 -5 -80 -117z m0 -124 c-38 -149
-87 -269 -103 -253 -7 7 1 66 15 114 13 45 100 232 105 226 2 -2 -6 -41 -17
-87z"/>
<path d="M6333 3275 c-11 -22 -42 -98 -68 -170 -26 -71 -102 -279 -170 -460
-185 -496 -221 -617 -196 -664 21 -38 40 -25 79 54 49 99 144 400 302 955 81
284 96 367 53 285z m-128 -451 c-130 -459 -234 -774 -271 -820 -14 -18 -15
-15 -10 42 6 74 43 188 169 524 52 140 105 283 117 318 13 34 24 61 26 59 2
-2 -12 -57 -31 -123z"/>
<path d="M6932 3258 c-26 -71 -265 -800 -297 -908 -118 -401 -205 -706 -205
-725 0 -8 4 -15 9 -15 9 0 21 36 75 225 122 422 225 761 318 1045 60 184 115
354 123 377 20 62 0 62 -23 1z"/>
<path d="M4371 3278 c-5 -13 -16 -43 -24 -68 -9 -25 -34 -97 -56 -160 -129
-372 -218 -632 -257 -755 -25 -77 -56 -171 -69 -210 -18 -53 -145 -479 -182
-609 -3 -12 -1 -17 8 -14 7 2 52 132 102 299 76 254 259 808 451 1368 31 89
56 165 56 167 0 14 -22 0 -29 -18z"/>
<path d="M4631 3258 c-10 -24 -50 -115 -89 -203 -144 -328 -196 -479 -190
-557 3 -38 6 -43 28 -43 47 0 89 109 205 530 35 127 69 243 74 259 26 66 0 78
-28 14z m-96 -361 c-73 -254 -114 -371 -141 -403 l-25 -29 6 60 c8 66 73 256
141 407 24 53 46 109 50 125 4 15 9 22 12 15 2 -6 -17 -85 -43 -175z"/>
<path d="M5165 3288 c-2 -7 -20 -58 -40 -113 -20 -55 -49 -136 -65 -180 -16
-44 -67 -187 -114 -317 -114 -316 -138 -420 -100 -435 37 -14 74 80 178 447
30 107 80 283 110 391 31 108 56 202 56 208 0 15 -20 14 -25 -1z m-171 -608
c-59 -214 -108 -367 -125 -390 -25 -35 2 102 44 225 68 198 129 366 133 363 1
-2 -22 -91 -52 -198z"/>
<path d="M5756 3218 c-129 -431 -141 -467 -233 -728 -35 -102 -83 -237 -105
-300 -55 -157 -111 -311 -213 -595 -126 -348 -136 -382 -142 -467 -5 -65 -3
-78 9 -78 41 0 53 30 193 495 144 476 161 531 246 800 188 585 252 798 278
913 16 74 -7 45 -33 -40z m-526 -1700 c-99 -328 -128 -416 -141 -424 -22 -14
12 142 61 276 17 47 61 169 98 272 37 102 69 185 70 183 2 -2 -37 -140 -88
-307z"/>
<path d="M3751 3168 c-23 -68 -71 -215 -107 -328 -36 -113 -102 -311 -146
-440 -267 -783 -280 -823 -285 -901 -6 -84 4 -104 38 -73 25 22 70 163 223
694 68 239 148 511 175 605 28 93 51 176 51 184 0 9 25 93 55 187 57 179 61
194 46 194 -4 0 -27 -55 -50 -122z m-280 -964 c-43 -156 -173 -602 -186 -639
-7 -22 -22 -58 -31 -80 -18 -39 -18 -39 -22 -12 -5 41 27 154 133 462 53 154
101 295 107 313 5 19 12 32 14 29 3 -2 -4 -35 -15 -73z"/>
<path d="M4036 3148 c-25 -79 -76 -249 -115 -378 -38 -129 -103 -338 -144
-465 -86 -263 -110 -356 -105 -405 5 -54 37 -48 66 13 22 46 94 319 127 482
13 64 59 253 111 455 3 14 24 84 45 155 66 226 78 275 69 280 -5 3 -29 -59
-54 -137z m-230 -901 c-52 -221 -90 -347 -107 -347 -11 0 0 59 31 170 38 137
104 339 108 335 2 -2 -12 -73 -32 -158z"/>
<path d="M6572 3135 c-92 -200 -114 -264 -110 -329 3 -47 5 -51 30 -54 32 -4
52 23 79 105 20 59 86 347 91 397 7 66 -22 28 -90 -119z m23 -89 c-41 -182
-82 -285 -107 -270 -17 11 -1 93 36 185 49 123 89 210 93 205 2 -2 -8 -56 -22
-120z"/>
<path d="M5434 3259 c-16 -21 -130 -267 -158 -340 -28 -76 -40 -148 -27 -168
6 -9 18 -11 33 -8 37 10 71 95 124 308 44 176 52 240 28 208z m-64 -251 c-26
-102 -68 -218 -86 -238 -12 -12 -14 -10 -14 16 0 17 6 51 13 75 18 59 98 241
104 235 3 -2 -5 -42 -17 -88z"/>
<path d="M6035 3234 c-8 -20 -15 -39 -15 -42 0 -3 -36 -116 -79 -251 -44 -135
-98 -307 -121 -381 -23 -74 -45 -146 -50 -160 -5 -14 -31 -101 -59 -195 -28
-93 -98 -325 -155 -515 -93 -308 -112 -390 -79 -348 6 7 15 31 21 53 56 213
421 1405 567 1852 2 7 0 15 -5 18 -5 3 -16 -11 -25 -31z"/>
<path d="M4800 3018 c-18 -57 -83 -267 -147 -468 -126 -400 -226 -722 -279
-900 -19 -63 -52 -169 -74 -235 -109 -337 -200 -623 -206 -647 -4 -20 -2 -28
8 -28 15 0 90 230 324 990 47 151 109 352 139 445 29 94 72 231 95 305 23 74
45 146 50 160 31 87 140 455 140 471 0 5 -4 9 -10 9 -5 0 -23 -46 -40 -102z"/>
<path d="M6362 2463 c-6 -16 -22 -59 -36 -98 -13 -38 -43 -122 -66 -185 -209
-578 -384 -1163 -364 -1215 16 -42 56 1 97 105 59 150 93 267 282 970 30 113
66 243 79 290 33 112 41 160 28 160 -5 0 -15 -12 -20 -27z m-131 -493 c-156
-589 -279 -980 -307 -980 -16 0 21 148 112 445 82 268 224 688 230 682 2 -1
-14 -68 -35 -147z"/>
<path d="M5166 2363 c-21 -76 -148 -461 -225 -685 -34 -97 -61 -179 -61 -182
0 -3 6 -6 13 -6 19 0 323 910 309 925 -13 12 -20 1 -36 -52z"/>
<path d="M4244 2128 c-9 -29 -80 -226 -156 -438 -254 -698 -278 -781 -242
-810 45 -38 100 105 279 725 48 165 93 323 100 350 8 28 25 87 38 132 14 45
22 85 19 88 -13 13 -21 2 -38 -47z m-180 -639 c-117 -397 -189 -603 -201 -572
-9 24 40 190 124 423 47 129 96 268 110 308 49 142 33 62 -33 -159z"/>
<path d="M4726 1973 c-34 -71 -145 -369 -170 -457 -29 -99 -30 -109 -16 -137
14 -24 43 -11 64 29 34 66 144 463 158 571 5 38 -16 35 -36 -6z m-50 -254
c-56 -216 -106 -352 -114 -316 -2 9 1 39 7 66 13 59 132 394 138 387 2 -2 -11
-64 -31 -137z"/>
<path d="M5819 1623 c-157 -414 -211 -570 -230 -664 -18 -92 3 -136 45 -91 27
30 71 165 116 357 23 99 55 233 71 298 33 136 32 127 19 127 -6 0 -15 -12 -21
-27z m-98 -410 c-49 -196 -88 -320 -103 -329 -26 -16 2 119 57 277 31 90 62
180 67 199 6 19 13 30 15 23 2 -6 -14 -82 -36 -170z"/>
<path d="M3605 1513 c-16 -43 -64 -175 -108 -293 -92 -251 -129 -384 -125
-455 3 -42 6 -50 24 -53 13 -2 27 6 36 20 35 54 86 225 133 443 13 61 37 175
54 254 36 165 29 205 -14 84z m-65 -335 c-56 -255 -115 -438 -141 -438 -14 0
-6 73 17 164 20 76 146 427 152 422 2 -3 -10 -69 -28 -148z"/>
<path d="M6358 1377 c-161 -411 -199 -529 -201 -617 -2 -60 0 -65 20 -68 45
-7 89 118 164 463 27 127 52 238 55 248 12 37 -22 15 -38 -26z m-49 -252 c-38
-172 -81 -320 -106 -365 l-24 -45 5 65 c5 69 14 98 78 275 56 154 60 166 64
162 2 -1 -6 -43 -17 -92z"/>
<path d="M4741 1106 c-88 -203 -108 -260 -117 -334 -5 -46 -3 -60 10 -71 9 -7
22 -11 30 -8 39 15 93 175 146 433 22 105 25 144 11 144 -5 0 -41 -74 -80
-164z m14 -107 c-44 -174 -48 -186 -76 -239 l-24 -45 -3 34 c-2 19 4 62 13 95
18 64 115 299 121 293 2 -2 -12 -64 -31 -138z"/>
<path d="M5381 1128 c-5 -13 -36 -84 -69 -158 -84 -191 -101 -277 -56 -294 45
-17 84 76 129 309 14 72 28 138 31 148 8 26 -25 21 -35 -5z m-32 -195 c-26
-120 -49 -191 -70 -216 -18 -22 -18 -22 -19 15 0 46 87 288 104 288 2 0 -5
-39 -15 -87z"/>
<path d="M6423 991 c-32 -20 -83 -86 -83 -108 0 -18 3 -17 69 17 69 34 107 76
90 96 -16 19 -38 17 -76 -5z m47 -24 c-8 -8 -33 -25 -55 -38 -35 -20 -38 -21
-25 -4 24 33 54 55 75 55 17 0 17 -2 5 -13z"/>
<path d="M3134 965 c-13 -34 6 -65 58 -93 28 -15 62 -37 76 -50 33 -32 38 -21
17 34 -34 88 -132 159 -151 109z m79 -42 c48 -47 47 -58 -3 -33 -39 20 -65 51
-53 64 11 11 19 7 56 -31z"/>
<path d="M4427 884 c-19 -19 -3 -57 46 -111 30 -32 57 -66 60 -76 14 -38 23
-5 15 55 -6 46 -16 72 -37 98 -26 33 -68 50 -84 34z m83 -77 c10 -23 16 -44
13 -47 -8 -8 -73 73 -73 93 0 31 39 1 60 -46z"/>
<path d="M3574 818 c-45 -35 -72 -74 -88 -125 -5 -17 -3 -23 7 -23 8 0 17 7
20 15 4 8 32 28 65 44 68 34 85 51 80 83 -4 32 -46 35 -84 6z m60 -22 c-6 -17
-104 -71 -104 -58 0 6 16 24 35 41 37 32 79 43 69 17z"/>
<path d="M4855 822 c-49 -31 -118 -122 -103 -137 7 -7 182 80 197 99 38 45
-35 75 -94 38z m79 -17 c-6 -15 -125 -77 -133 -70 -7 7 22 36 59 61 41 27 82
32 74 9z"/>
<path d="M5985 820 c-3 -10 -2 -27 4 -38 10 -19 100 -112 108 -112 9 0 -9 95
-23 122 -24 47 -78 64 -89 28z m75 -50 c7 -17 11 -33 8 -35 -8 -9 -70 63 -64
74 11 17 42 -4 56 -39z"/>
<path d="M6359 792 c-49 -32 -99 -86 -99 -108 0 -18 -2 -18 46 5 21 10 63 24
92 30 67 14 89 26 97 51 17 55 -63 68 -136 22z m109 -9 c-3 -19 -47 -37 -114
-48 l-39 -6 25 20 c59 48 135 68 128 34z"/>
<path d="M3053 793 c-19 -7 -16 -47 5 -66 10 -9 53 -19 104 -26 49 -6 97 -15
109 -21 24 -14 32 -9 23 13 -7 19 -85 77 -127 95 -28 12 -91 15 -114 5z m126
-38 c30 -14 52 -27 50 -29 -2 -2 -37 -1 -76 3 -73 7 -101 20 -89 40 12 18 58
12 115 -14z"/>
</g>
</svg>
