<?xml version="1.0" standalone="no"?>
<!DOCTYPE svg PUBLIC "-//W3C//DTD SVG 20010904//EN"
 "http://www.w3.org/TR/2001/REC-SVG-20010904/DTD/svg10.dtd">
<svg version="1.0" xmlns="http://www.w3.org/2000/svg"
 width="1024.000000pt" height="559.000000pt" viewBox="0 0 1024.000000 559.000000"
 preserveAspectRatio="xMidYMid meet">
<metadata>
Created by potrace 1.16, written by Peter Selinger 2001-2019
</metadata>
<g transform="translate(0.000000,559.000000) scale(0.100000,-0.100000)"
fill="#000000" stroke="none">
<path d="M4861 5119 c-465 -45 -912 -221 -1306 -514 -380 -283 -718 -692 -946
-1147 -138 -275 -228 -562 -276 -881 -24 -158 -24 -530 0 -680 52 -320 132
-565 277 -844 194 -375 498 -724 854 -982 59 -43 108 -71 123 -71 20 0 10 11
-56 58 -537 384 -915 896 -1085 1467 -163 551 -135 1123 81 1675 66 167 117
264 179 336 30 35 54 68 54 72 0 4 19 28 43 53 23 24 55 59 70 78 25 31 29 32
40 17 11 -15 17 -16 42 -5 53 23 75 49 75 90 0 26 8 47 26 68 16 20 24 39 21
51 -7 26 4 31 43 24 l31 -7 -42 -43 -42 -43 20 -48 c26 -65 49 -64 85 2 15 28
28 61 28 75 0 15 21 54 50 91 27 37 61 96 76 132 15 36 47 90 71 119 42 51 54
97 24 90 -8 -2 2 15 22 37 29 33 37 49 37 80 0 33 6 44 32 65 18 14 34 23 36
21 2 -2 -8 -24 -23 -49 -46 -79 -5 -91 73 -21 28 25 60 45 73 45 13 0 37 16
61 43 21 23 46 49 55 57 98 89 173 165 178 180 12 38 268 145 490 205 237 65
450 89 726 82 281 -6 456 -35 718 -118 107 -34 242 -87 255 -99 21 -21 -34
-17 -78 5 -58 29 -133 34 -143 9 -3 -8 -1 -25 5 -37 6 -12 20 -44 32 -70 13
-27 29 -51 37 -54 10 -4 11 -9 2 -19 -6 -7 -7 -19 -3 -26 4 -7 -5 -3 -20 10
-33 25 -96 31 -96 8 0 -24 40 -85 60 -91 10 -3 23 -12 30 -19 9 -12 5 -13 -26
-6 -43 10 -64 4 -64 -19 0 -20 -49 -40 -83 -34 -18 4 -33 -4 -60 -31 -20 -20
-39 -36 -43 -36 -3 0 -15 11 -26 25 -37 48 -98 22 -64 -27 20 -27 20 -38 3
-38 -19 0 -47 -33 -47 -53 0 -13 -9 -17 -35 -17 -24 0 -35 -5 -35 -15 0 -20
-16 -19 -32 1 -7 8 -21 24 -30 35 -17 18 -16 19 41 13 51 -6 61 -4 80 15 20
20 21 25 8 44 -18 30 -69 54 -153 73 -38 9 -89 23 -114 31 -25 9 -75 18 -112
20 -61 4 -73 1 -150 -35 -70 -33 -98 -54 -178 -135 -63 -64 -115 -107 -155
-128 -95 -50 -121 -74 -139 -126 -43 -127 5 -182 109 -124 l54 30 11 -47 c6
-26 15 -63 19 -83 15 -70 30 -74 103 -27 47 31 78 70 78 101 0 7 16 28 35 47
40 39 44 70 14 99 -28 26 -19 48 41 104 28 26 55 58 62 72 8 18 19 25 41 25
l29 0 -51 -56 c-28 -30 -51 -61 -51 -67 1 -35 21 -93 36 -104 24 -17 79 -16
142 2 36 11 58 13 69 6 16 -8 15 -10 -7 -15 -14 -2 -47 -7 -75 -10 -29 -4 -58
-14 -69 -25 -18 -19 -18 -21 -3 -45 25 -37 21 -46 -13 -33 -26 10 -33 9 -52
-11 -15 -14 -22 -35 -23 -61 -1 -47 -38 -86 -67 -70 -18 10 -63 1 -133 -25
-35 -13 -43 -13 -63 0 -17 12 -31 13 -59 5 -57 -16 -84 17 -44 53 14 12 19 31
19 62 0 49 -9 54 -58 29 -45 -23 -60 -53 -60 -117 l0 -57 -37 -6 c-21 -3 -51
-12 -66 -20 -16 -8 -33 -15 -39 -15 -6 0 -26 -17 -44 -39 -33 -38 -89 -70
-101 -57 -3 3 2 22 13 42 19 35 19 36 -2 52 -21 18 -23 21 -48 111 -14 51 -14
55 4 79 22 27 26 52 10 52 -6 0 -15 12 -20 26 -9 24 -14 26 -46 21 -64 -11
-94 -53 -96 -134 0 -24 -2 -43 -5 -43 -2 0 -15 7 -28 16 -27 18 -58 12 -90
-16 -11 -10 -29 -20 -40 -22 -14 -2 -21 -13 -23 -33 -2 -17 -15 -42 -29 -57
-14 -14 -23 -34 -21 -45 8 -45 139 -12 174 44 56 91 57 91 81 80 34 -15 23
-35 -29 -51 -10 -3 -18 -14 -18 -24 0 -11 -10 -26 -22 -35 -20 -13 -21 -18
-10 -36 10 -17 10 -21 -1 -21 -19 0 -60 -47 -52 -59 8 -13 42 -14 81 -2 16 5
64 12 107 14 64 5 76 3 67 -8 -19 -23 -66 -38 -87 -27 -22 12 -53 -2 -53 -23
0 -11 -13 -15 -49 -15 -83 0 -105 -41 -47 -85 45 -34 59 -75 45 -127 -16 -60
-39 -78 -86 -68 -21 5 -79 12 -130 16 -120 9 -134 1 -151 -87 -8 -35 -26 -86
-41 -114 -19 -33 -30 -72 -35 -116 -7 -72 -3 -79 50 -79 14 0 30 -10 41 -26
16 -25 16 -28 -7 -71 -24 -46 -52 -72 -117 -111 -50 -30 -87 -84 -108 -155
-18 -62 -46 -91 -122 -124 -53 -23 -139 -104 -166 -157 -11 -22 -42 -64 -68
-93 -76 -85 -89 -120 -84 -241 4 -87 1 -113 -19 -176 -13 -41 -32 -86 -43
-100 -18 -23 -20 -36 -16 -118 4 -74 10 -100 28 -128 12 -19 26 -46 30 -59 4
-13 20 -45 37 -70 16 -25 38 -79 50 -119 16 -54 33 -86 63 -120 23 -26 67 -80
99 -120 81 -103 89 -107 216 -108 94 0 110 -3 159 -28 57 -30 70 -29 228 5 61
13 149 11 187 -5 23 -10 43 -31 65 -69 17 -30 39 -58 49 -63 9 -4 55 -8 101
-8 l83 -2 40 -43 c36 -38 39 -46 34 -79 -3 -20 -9 -58 -12 -84 -4 -26 -13 -53
-20 -59 -33 -27 3 -95 111 -209 48 -52 88 -103 95 -124 13 -40 47 -53 34 -13
-15 50 -41 86 -118 167 -90 94 -117 140 -95 166 14 17 32 108 33 172 0 38 -5
47 -47 90 -46 45 -49 47 -100 44 -28 -1 -70 0 -93 3 -36 5 -43 11 -70 56 -44
75 -80 94 -184 94 -47 0 -125 -9 -173 -19 l-88 -18 -62 28 c-54 26 -74 29
-157 29 -58 0 -104 5 -117 13 -12 6 -44 40 -70 75 -26 34 -69 85 -95 114 -36
40 -52 69 -68 123 -12 39 -37 96 -56 128 -18 31 -34 63 -34 71 0 8 -11 28 -23
45 -33 43 -44 194 -17 229 38 49 60 146 63 282 3 146 1 142 104 259 24 26 43
55 43 63 0 26 103 125 156 148 73 32 122 79 134 128 24 94 52 129 143 181 27
15 58 44 72 67 25 39 26 39 55 24 16 -8 40 -15 54 -15 44 0 56 -10 56 -46 0
-55 25 -84 72 -84 50 0 79 15 71 36 -5 13 -15 15 -54 10 l-49 -7 0 40 0 39 88
35 c95 37 154 47 307 48 55 0 119 5 143 11 30 7 46 7 55 -1 8 -6 17 -8 20 -4
4 3 7 2 7 -3 0 -6 -5 -15 -11 -21 -9 -9 -9 -20 1 -43 12 -29 11 -33 -19 -64
-17 -17 -31 -39 -31 -48 0 -29 101 -87 172 -100 71 -12 99 -27 118 -63 10 -18
31 -31 78 -45 35 -11 82 -30 102 -41 68 -39 137 1 126 71 -5 33 -2 41 19 59
42 32 80 36 123 11 20 -13 57 -28 82 -34 49 -12 48 -11 35 -98 -10 -62 -1 -92
32 -107 27 -12 27 -13 8 -27 -17 -13 -16 -14 20 -14 35 0 37 1 20 14 -18 13
-18 14 6 26 13 7 27 18 31 24 11 15 10 75 -1 114 -11 35 -8 37 47 26 l31 -6
-6 -103 -6 -104 32 -31 c33 -34 40 -60 16 -60 -8 0 -15 -3 -15 -8 0 -4 18 -7
40 -7 41 0 52 8 25 19 -23 8 -18 23 17 55 27 24 31 34 32 82 1 30 -3 78 -7
106 l-8 53 35 17 c31 14 43 15 104 3 113 -21 157 3 182 101 6 24 18 62 26 84
13 31 14 61 9 137 l-7 98 -53 -4 c-34 -2 -64 -11 -83 -25 -35 -25 -66 -27
-115 -6 -50 21 -70 19 -101 -10 -26 -24 -28 -25 -59 -8 -18 9 -45 19 -62 23
-19 4 -35 16 -43 34 -8 15 -19 29 -26 32 -7 3 -10 19 -8 44 3 30 0 41 -12 46
-29 11 -17 20 45 32 34 6 70 19 80 28 18 17 19 15 19 -54 0 -39 -4 -74 -10
-77 -19 -12 -10 -45 14 -56 51 -23 103 12 78 52 -7 10 -12 54 -12 98 0 78 0
79 33 100 l32 20 3 -66 c2 -37 -2 -71 -8 -77 -32 -32 13 -75 65 -62 25 6 27
10 20 44 -3 20 -9 70 -12 110 l-5 72 46 0 46 0 0 -54 c0 -30 -4 -58 -10 -61
-17 -10 -11 -44 9 -55 28 -14 57 -12 75 6 20 19 20 29 1 48 -9 8 -15 33 -15
56 0 37 2 41 20 36 11 -3 29 -9 40 -12 18 -5 20 -14 20 -79 0 -41 -4 -77 -10
-80 -5 -3 -10 -15 -10 -26 0 -25 40 -44 74 -35 21 5 26 13 26 36 0 17 -5 30
-10 30 -7 0 -10 29 -8 77 l3 78 35 6 c97 15 129 87 63 139 l-26 20 52 0 c44 0
51 3 51 19 0 26 -59 36 -124 21 -38 -8 -53 -7 -74 4 -15 8 -49 24 -75 35 -47
20 -48 21 -33 43 9 12 16 31 16 42 0 11 7 27 16 37 22 24 11 49 -20 49 -33 0
-123 -43 -165 -78 -37 -31 -35 -58 6 -68 l24 -6 -32 -20 c-29 -18 -33 -18 -41
-4 -5 9 -16 16 -23 16 -17 0 -20 16 -5 25 17 10 -9 35 -36 35 -12 0 -26 5 -29
10 -3 6 -21 10 -39 10 -38 0 -96 -53 -96 -88 0 -12 -4 -22 -9 -22 -5 0 -15
-17 -22 -37 -6 -21 -20 -54 -30 -73 -25 -46 -24 -63 4 -96 l24 -27 -41 -22
c-34 -18 -47 -20 -75 -12 -48 13 -111 -6 -111 -34 0 -17 -3 -18 -21 -9 -23 13
-49 7 -49 -12 0 -34 33 -95 61 -110 29 -17 32 -45 4 -34 -17 6 -48 -41 -41
-61 5 -11 2 -13 -10 -9 -8 3 -20 6 -25 6 -5 0 -16 11 -25 26 -16 24 -16 26 5
40 23 17 20 34 -8 34 -9 0 -38 24 -64 54 -41 47 -47 61 -47 98 0 54 -24 80
-125 135 -42 23 -78 51 -90 70 -11 18 -27 32 -35 33 -8 0 -21 9 -28 20 -16 25
-33 25 -66 -1 -39 -31 -34 -65 22 -136 43 -54 83 -85 201 -154 18 -11 30 -23
27 -26 -4 -4 -12 -1 -18 5 -32 32 -87 -18 -58 -53 10 -12 9 -20 -6 -44 l-19
-29 0 44 c0 40 -4 48 -45 84 -25 21 -59 46 -76 54 -51 25 -122 94 -134 131
-21 63 -65 71 -146 24 -53 -30 -55 -30 -109 -18 -51 11 -58 11 -82 -8 -15 -11
-31 -33 -35 -50 -9 -36 -21 -47 -70 -62 -45 -15 -118 -91 -118 -124 0 -58 -99
-127 -181 -127 -26 0 -60 -6 -75 -12 -22 -11 -28 -10 -32 1 -9 27 -43 51 -71
51 l-30 0 6 58 c4 35 16 72 31 96 13 21 31 69 40 107 19 82 35 93 114 79 29
-6 89 -11 133 -13 l79 -2 24 42 c42 75 28 169 -30 199 -41 21 -26 34 39 34 46
0 56 3 60 20 4 15 11 18 32 14 20 -4 39 3 76 30 28 19 74 46 102 61 29 14 62
39 73 56 12 16 28 29 36 29 8 0 14 4 14 9 0 5 26 15 58 21 75 16 84 24 82 79
-1 25 -1 54 -1 63 1 20 27 48 45 48 19 0 16 -37 -5 -56 -46 -42 -1 -106 70
-97 21 3 48 0 60 -7 19 -9 35 -7 98 15 54 20 78 24 86 16 19 -19 45 -12 81 20
29 25 35 38 38 77 3 40 6 47 23 45 11 -1 31 -4 45 -5 21 -3 26 2 28 24 2 15
-2 37 -8 48 -6 12 -9 24 -5 28 3 3 35 9 70 13 36 3 77 14 92 24 l27 18 -23 18
c-28 23 -76 24 -151 4 -66 -17 -95 -5 -102 45 -5 30 9 56 50 99 34 35 45 61
32 76 -17 21 -77 19 -95 -2 -8 -10 -41 -47 -74 -83 -70 -77 -81 -105 -52 -142
27 -34 27 -39 -9 -73 -17 -16 -36 -47 -42 -68 -8 -28 -23 -46 -51 -64 -61 -38
-64 -38 -70 4 -12 72 -34 137 -50 147 -11 7 -26 3 -55 -18 -27 -18 -50 -26
-69 -24 -27 3 -28 5 -27 54 2 70 23 97 113 144 58 30 100 63 176 140 101 102
158 139 264 171 40 12 50 11 125 -13 44 -15 106 -32 136 -38 76 -17 143 -47
138 -62 -7 -19 -46 -22 -106 -7 -42 10 -55 10 -65 0 -9 -10 -4 -19 26 -44 20
-18 37 -37 37 -44 0 -21 43 -43 83 -43 31 0 38 3 33 15 -4 11 2 15 24 15 17 0
30 6 31 13 1 6 2 21 3 32 1 13 12 23 34 30 35 10 42 34 17 55 -8 7 -15 18 -15
24 0 6 10 -1 21 -16 28 -38 58 -35 98 7 24 26 38 34 55 29 32 -8 117 31 110
51 -8 19 -6 19 69 -1 48 -12 62 -13 68 -3 11 18 5 25 -56 64 -46 29 -89 75
-70 75 23 0 191 -130 216 -166 41 -61 83 -59 71 3 -5 25 -51 69 -126 121 -45
31 -47 34 -30 46 15 12 16 16 5 30 -7 8 -21 18 -31 21 -10 3 -28 27 -40 53
-12 26 -25 54 -30 64 -20 36 37 30 119 -13 42 -22 45 -22 73 -6 16 9 35 17 42
17 17 0 218 -113 326 -184 311 -205 622 -519 847 -856 327 -491 498 -975 519
-1475 6 -135 -1 -313 -12 -302 -2 2 -9 55 -15 117 -11 119 -23 165 -39 155 -5
-3 -10 -18 -10 -33 0 -15 -4 -33 -9 -40 -15 -24 -33 12 -25 52 5 32 4 36 -14
36 -14 0 -32 16 -52 44 -16 25 -34 48 -39 51 -6 3 -38 -9 -73 -27 -54 -28 -76
-33 -150 -36 l-86 -4 -16 31 c-30 57 -66 61 -111 12 -23 -26 -49 -22 -137 19
-40 19 -77 48 -113 88 -42 45 -63 61 -90 65 -48 8 -62 1 -81 -38 -15 -32 -15
-35 11 -79 26 -44 102 -126 118 -126 4 0 16 -20 27 -44 23 -54 59 -79 67 -47
8 33 23 25 23 -12 0 -55 19 -71 75 -64 68 10 93 30 125 100 l27 60 12 -36 c13
-40 62 -87 90 -87 9 0 30 -13 46 -30 25 -26 27 -34 21 -77 -3 -26 -15 -60 -26
-75 -11 -15 -20 -43 -20 -61 0 -19 -9 -46 -20 -60 -11 -14 -20 -29 -20 -35 0
-5 -13 -26 -30 -47 -16 -21 -30 -43 -30 -49 0 -6 -15 -19 -32 -29 -50 -28 -84
-61 -106 -104 -14 -27 -41 -52 -85 -81 -35 -23 -72 -53 -81 -67 -9 -14 -22
-25 -28 -25 -6 0 -27 -12 -47 -27 -20 -16 -54 -36 -76 -46 -22 -10 -54 -31
-70 -47 -17 -16 -45 -33 -63 -36 -30 -6 -33 -4 -48 32 -9 22 -28 84 -41 139
-20 79 -33 110 -62 145 -20 25 -52 68 -71 97 -19 28 -51 61 -72 73 -48 27 -76
63 -84 109 -10 56 -54 129 -91 152 -19 12 -46 40 -60 63 -15 22 -55 76 -91
120 l-65 79 32 26 c17 14 31 32 31 39 0 18 -34 15 -61 -7 l-25 -19 1 26 c0 20
-5 27 -20 27 -15 0 -22 -10 -29 -43 -5 -23 -13 -42 -17 -42 -5 0 -27 25 -50
55 -48 64 -75 70 -72 16 1 -32 11 -50 156 -270 80 -121 75 -112 82 -146 4 -16
24 -45 45 -64 l39 -34 -22 -18 c-17 -14 -19 -20 -10 -30 10 -10 18 -10 37 -1
24 11 26 9 35 -26 5 -20 13 -53 16 -72 11 -54 30 -84 73 -114 24 -16 46 -43
57 -69 52 -123 54 -125 113 -153 54 -26 202 -138 202 -154 0 -4 -7 -13 -15
-20 -20 -17 -19 -50 1 -50 9 0 32 -14 51 -30 41 -36 60 -37 121 -5 26 14 52
25 58 25 6 0 22 8 35 18 13 10 50 28 83 40 32 12 76 36 97 53 l39 31 0 -47 c0
-66 -23 -148 -78 -278 -68 -160 -127 -243 -272 -387 -69 -69 -154 -159 -187
-200 -34 -42 -75 -85 -90 -96 -16 -12 -55 -63 -87 -113 -47 -75 -57 -97 -52
-119 4 -15 7 -35 7 -45 0 -19 25 -23 32 -4 2 6 0 24 -6 40 -8 24 -3 38 39 108
27 45 64 92 82 106 18 14 63 62 99 107 37 44 122 134 189 201 134 133 186 204
249 339 76 162 97 232 98 326 2 78 0 85 -18 88 -12 2 -37 -12 -60 -31 -22 -19
-68 -44 -102 -57 -35 -12 -68 -29 -74 -36 -6 -8 -18 -14 -27 -14 -8 0 -35 -12
-59 -26 -50 -29 -73 -27 -116 11 -23 20 -26 28 -17 44 5 11 7 27 4 36 -10 24
-172 154 -202 161 -42 10 -68 40 -93 106 -22 58 -60 108 -107 138 -17 11 -27
36 -42 100 -24 106 -42 140 -91 180 -28 22 -39 39 -39 58 0 17 -17 50 -44 87
-25 32 -61 86 -81 119 -31 53 -33 61 -18 64 10 2 22 8 28 13 5 5 15 9 22 9 15
0 158 -177 167 -208 4 -11 23 -31 42 -42 50 -31 82 -79 99 -146 12 -48 24 -66
58 -96 78 -69 102 -94 156 -169 41 -56 58 -89 67 -134 24 -111 56 -196 80
-212 32 -20 75 -9 125 33 22 18 59 43 82 54 53 26 105 61 138 95 15 15 55 45
90 68 40 26 70 55 81 76 22 45 63 87 100 102 17 7 37 28 48 49 10 20 26 42 34
49 9 8 16 19 16 27 0 7 11 30 25 50 14 20 25 48 25 62 0 14 10 46 22 70 11 25
23 66 26 91 4 44 2 49 -37 84 -23 20 -49 37 -59 37 -27 0 -59 39 -72 88 -16
60 -37 52 -77 -28 -41 -81 -48 -87 -105 -95 l-48 -7 0 40 c0 25 -7 48 -20 63
l-20 24 -20 -23 -19 -23 -20 38 c-11 21 -39 53 -62 72 -23 19 -54 54 -70 79
-25 40 -27 46 -13 66 25 39 66 23 130 -50 31 -35 62 -64 68 -64 6 0 34 -11 62
-24 84 -39 107 -41 142 -11 36 30 58 32 67 5 13 -41 49 -53 143 -48 69 4 99
11 146 34 57 28 59 29 70 9 6 -11 25 -34 41 -51 17 -18 29 -37 27 -43 -7 -20
19 -71 41 -83 16 -8 22 -8 25 1 8 25 22 9 22 -27 0 -21 7 -88 15 -148 18 -122
15 -157 -25 -318 -160 -647 -620 -1298 -1174 -1662 -48 -32 -55 -40 -38 -42
47 -7 330 216 508 401 426 440 700 985 786 1562 17 117 17 484 -1 585 -67 392
-143 628 -296 925 -176 340 -355 586 -619 851 -476 475 -1011 734 -1641 794
-125 11 -369 11 -494 -1z m-998 -377 c-89 -82 -135 -127 -160 -157 -12 -14
-33 -25 -46 -25 -13 0 -37 -15 -57 -35 -44 -46 -55 -44 -29 4 14 28 34 47 66
62 44 21 126 92 134 115 4 13 128 92 144 93 6 0 -18 -25 -52 -57z m2327 -213
c15 -28 5 -23 -15 7 -9 15 -12 23 -6 20 6 -4 16 -16 21 -27z m-2741 -77 c-5
-16 -25 -44 -44 -62 -35 -33 -45 -72 -24 -86 7 -4 2 -16 -14 -33 -14 -14 -46
-69 -71 -122 -25 -53 -51 -101 -58 -106 -28 -20 -89 -34 -122 -28 -47 9 -90
-18 -83 -54 3 -14 -2 -36 -11 -49 -9 -14 -18 -43 -22 -65 -3 -25 -13 -45 -27
-54 -20 -13 -21 -13 -16 5 13 53 -59 21 -118 -51 -59 -73 -89 -93 -53 -35 114
181 248 358 388 511 83 91 262 257 277 257 4 0 3 -13 -2 -28z m782 -431 c-16
-10 -6 -31 15 -31 18 0 18 -9 -2 -32 -17 -18 -13 -44 32 -195 2 -7 10 -13 19
-13 20 0 19 -6 -5 -30 -11 -11 -20 -26 -20 -34 0 -10 -17 -16 -57 -21 -32 -3
-76 -8 -98 -10 l-40 -5 33 15 c35 16 40 29 17 42 -22 13 2 60 38 72 23 9 27
15 27 50 0 28 -4 41 -14 41 -10 0 -13 16 -12 61 2 51 6 65 25 80 13 11 31 19
40 19 13 0 13 -2 2 -9z m-1075 -150 c-16 -31 -40 -53 -30 -28 3 8 -2 20 -11
27 -14 12 -12 17 17 47 l33 34 3 -25 c2 -13 -4 -38 -12 -55z m929 -2 c4 -5 0
-18 -8 -27 -8 -9 -22 -32 -31 -49 -17 -33 -68 -63 -108 -63 -18 0 -17 4 11 35
17 20 28 41 25 50 -4 9 3 19 17 25 13 6 35 17 49 25 30 18 37 18 45 4z m1840
-400 c-12 -12 -22 -16 -29 -10 -6 5 -27 11 -46 13 l-35 3 55 32 55 32 9 -25
c6 -19 4 -30 -9 -45z m-239 -38 c-1 -8 10 -20 23 -27 13 -7 28 -20 33 -28 13
-23 37 -20 105 14 l59 30 130 -64 c71 -34 136 -71 144 -81 13 -15 12 -19 -9
-36 -28 -23 -50 -24 -57 -5 -12 32 -104 25 -104 -8 0 -12 -6 -13 -30 -5 -32
12 -37 28 -18 58 19 31 3 51 -42 51 -45 0 -61 -20 -42 -51 7 -10 12 -21 12
-24 0 -8 -51 5 -85 22 -41 20 -85 4 -85 -31 0 -28 -27 -41 -72 -37 -38 3 -68
-8 -68 -25 0 -22 -13 -17 -50 21 l-34 35 22 39 c12 21 22 45 22 54 0 8 9 26
20 40 11 14 20 31 20 39 0 7 11 25 25 40 24 26 26 27 54 11 15 -9 28 -24 27
-32z m-923 -91 c3 -12 14 -20 27 -20 12 0 33 -14 47 -30 14 -17 44 -40 67 -52
22 -11 60 -34 84 -50 39 -27 42 -32 42 -75 0 -39 6 -53 48 -104 26 -32 50 -59
54 -59 4 0 5 -6 2 -13 -2 -7 2 -30 11 -50 16 -40 45 -57 96 -57 26 0 29 3 29
33 0 23 6 35 22 42 12 6 26 18 32 28 9 15 6 23 -19 45 -16 15 -38 40 -48 55
l-17 27 30 -6 c25 -6 31 -3 40 20 8 22 16 26 50 26 l40 0 -6 -40 c-4 -22 -3
-40 2 -40 5 0 15 -4 22 -9 12 -7 12 -12 1 -30 -12 -19 -11 -24 16 -50 17 -16
38 -40 48 -55 11 -16 27 -26 43 -26 14 0 42 -9 64 -20 51 -26 62 -25 100 6
l31 27 47 -22 c39 -18 53 -20 81 -12 19 6 41 17 50 24 9 8 30 17 48 19 25 3
32 1 30 -11 0 -9 2 -37 7 -62 6 -37 2 -63 -24 -148 -37 -118 -52 -132 -128
-112 -58 15 -112 14 -145 -4 -21 -11 -29 -11 -32 -2 -30 97 -39 117 -48 114
-7 -2 -19 -31 -27 -65 -16 -68 -19 -70 -94 -51 -33 8 -45 17 -53 40 -14 35
-26 37 -41 5 -10 -23 -12 -23 -59 -10 -26 7 -66 22 -88 34 -87 46 -206 -18
-190 -102 5 -25 2 -38 -10 -48 -14 -11 -24 -9 -73 13 -31 15 -75 31 -97 37
-28 7 -46 19 -58 40 -23 38 -60 57 -128 66 -34 4 -72 18 -102 37 l-47 31 26
27 c22 23 26 34 22 67 -3 21 -1 46 4 56 16 28 0 51 -45 64 -31 10 -50 10 -71
3 -15 -6 -84 -11 -154 -11 -141 0 -227 -15 -322 -55 -56 -23 -72 -26 -126 -20
-109 11 -103 55 7 55 58 0 100 21 162 79 25 24 37 44 37 62 0 39 44 87 105
114 53 23 85 56 85 87 0 29 33 40 86 28 52 -12 72 -8 127 27 53 33 77 27 105
-26 26 -50 43 -66 132 -125 89 -59 120 -90 120 -120 0 -33 -9 -37 -90 -40 -76
-2 -102 -16 -84 -43 13 -20 102 -71 126 -72 20 -1 38 28 38 58 0 15 6 21 24
21 16 0 31 12 50 41 23 35 26 45 17 70 -8 23 -7 29 3 29 8 0 19 -7 26 -15 17
-21 37 -19 50 6 10 17 6 25 -25 55 -20 19 -42 34 -49 34 -7 0 -21 9 -32 21
-10 11 -33 27 -50 34 -17 7 -40 25 -50 40 -11 14 -31 40 -46 56 -27 28 -35 58
-21 72 13 13 31 7 36 -13z m1192 -30 c4 -6 -8 -10 -29 -10 -20 0 -36 5 -36 10
0 6 13 10 29 10 17 0 33 -4 36 -10z m-25 -30 c0 -13 -11 -13 -30 0 -12 8 -11
10 8 10 12 0 22 -4 22 -10z m-130 -20 c0 -5 -13 -10 -30 -10 -16 0 -30 5 -30
10 0 6 14 10 30 10 17 0 30 -4 30 -10z m138 -82 c-2 -66 -6 -83 -18 -83 -12 0
-16 17 -18 83 -3 77 -2 82 18 82 20 0 21 -5 18 -82z m-163 52 c13 -6 15 -9 5
-9 -8 0 -22 4 -30 9 -18 12 -2 12 25 0z m315 0 c0 -5 -13 -10 -30 -10 -16 0
-30 5 -30 10 0 6 14 10 30 10 17 0 30 -4 30 -10z m-300 -105 c0 -69 -3 -85
-15 -85 -12 0 -15 16 -15 85 0 69 3 85 15 85 12 0 15 -16 15 -85z m280 71 c-7
-7 -14 -6 -21 1 -9 9 -7 12 9 10 14 -1 18 -5 12 -11z m-405 -6 c4 -6 -8 -10
-30 -10 -22 0 -34 4 -30 10 3 6 17 10 30 10 13 0 27 -4 30 -10z m413 -92 c-3
-80 -19 -113 -33 -68 -11 35 5 150 22 150 11 0 13 -16 11 -82z m-425 60 c-2
-5 -10 -8 -18 -8 -8 0 -16 3 -18 8 -3 4 5 7 18 7 13 0 21 -3 18 -7z m-3 -103
c0 -69 -3 -85 -15 -85 -12 0 -15 16 -15 85 0 69 3 85 15 85 12 0 15 -16 15
-85z m297 19 c-3 -3 -12 -4 -19 -1 -8 3 -5 6 6 6 11 1 17 -2 13 -5z m-9 -21
c-10 -2 -26 -2 -35 0 -10 3 -2 5 17 5 19 0 27 -2 18 -5z m-155 -30 c-7 -2 -19
-2 -25 0 -7 3 -2 5 12 5 14 0 19 -2 13 -5z m5 -20 c-10 -2 -26 -2 -35 0 -10 3
-2 5 17 5 19 0 27 -2 18 -5z m295 -10 c-7 -2 -21 -2 -30 0 -10 3 -4 5 12 5 17
0 24 -2 18 -5z m-12 -21 c-18 -2 -37 0 -42 5 -5 5 11 6 34 3 41 -4 41 -5 8 -8z
m-413 -42 c-10 -6 -25 -7 -40 -1 -20 9 -18 10 17 10 31 0 36 -2 23 -9z m-861
-38 c-2 -15 -8 -26 -13 -25 -21 5 -84 36 -84 42 0 3 23 7 50 8 49 1 50 0 47
-25z m843 -374 c12 -51 25 -122 27 -158 5 -82 -10 -114 -55 -118 -29 -3 -34 0
-48 34 -11 27 -14 53 -9 98 9 80 45 236 54 236 4 0 18 -42 31 -92z m-202 -10
c24 -69 29 -147 10 -166 -17 -17 -53 -15 -68 3 -7 9 -10 32 -7 62 8 70 28 163
36 163 3 0 16 -28 29 -62z"/>
<path d="M4512 3210 c-24 -23 -27 -41 -12 -71 9 -16 7 -21 -13 -28 -22 -8 -24
-16 -25 -71 -1 -69 10 -80 58 -60 33 14 47 56 37 115 -3 19 -2 49 4 67 17 62
-8 86 -49 48z m15 -42 c-3 -8 -6 -5 -6 6 -1 11 2 17 5 13 3 -3 4 -12 1 -19z
m3 -111 c0 -31 -14 -57 -32 -57 -10 0 -11 74 -1 83 17 18 33 5 33 -26z"/>
<path d="M5844 2806 c-28 -13 -55 -29 -59 -35 -19 -32 51 -54 96 -31 19 10 49
59 49 80 0 16 -30 11 -86 -14z m32 -35 c-3 -5 -18 -11 -33 -14 -26 -5 -26 -4
-8 9 21 15 49 19 41 5z"/>
<path d="M5277 2793 c-4 -3 -7 -14 -7 -24 0 -36 152 -58 179 -25 18 22 -5 37
-70 46 -77 12 -94 12 -102 3z m103 -33 c20 -6 21 -8 5 -8 -11 0 -29 3 -40 8
-25 11 1 11 35 0z"/>
<path d="M5611 2523 c0 -4 4 -17 9 -28 8 -19 9 -19 9 2 1 12 -3 25 -9 28 -5 3
-10 3 -9 -2z"/>
<path d="M5570 2404 c0 -32 2 -34 15 -20 12 12 14 20 5 36 -15 29 -20 25 -20
-16z"/>
<path d="M5632 2336 c-14 -32 -12 -39 7 -27 7 5 11 19 9 32 -4 24 -5 24 -16
-5z"/>
<path d="M5423 2400 c-12 -28 -8 -39 8 -23 6 6 9 19 6 29 -3 17 -5 16 -14 -6z"/>
<path d="M4445 4968 c-84 -14 -231 -56 -277 -79 -34 -18 -43 -29 -39 -52 0 -4
-25 -26 -56 -50 -31 -23 -82 -65 -112 -93 -31 -28 -88 -69 -127 -92 -150 -87
-294 -288 -242 -340 20 -20 31 -15 123 59 48 39 102 77 119 84 43 18 183 64
231 76 165 42 164 41 232 98 38 32 86 68 108 81 22 13 72 52 111 87 42 37 98
74 137 92 66 30 85 55 52 67 -8 4 -15 16 -15 29 0 43 -99 56 -245 33z m199
-27 c14 -5 16 -10 8 -15 -18 -11 -14 -24 10 -32 19 -6 14 -10 -37 -36 -33 -17
-89 -56 -125 -87 -36 -32 -90 -73 -120 -93 -30 -19 -79 -55 -108 -81 -41 -34
-70 -49 -120 -62 -37 -10 -112 -33 -168 -51 -56 -19 -110 -34 -121 -34 -21 0
-146 -84 -213 -143 -34 -30 -35 -30 -38 -9 -9 59 128 217 246 286 42 24 93 61
112 81 19 20 67 59 107 87 46 32 75 60 81 78 13 35 24 41 137 73 139 40 300
57 349 38z"/>
<path d="M5018 4875 c-3 -3 -25 -9 -48 -13 -61 -10 -70 -30 -36 -82 15 -22 34
-44 42 -47 16 -6 84 52 84 72 0 6 15 15 32 20 40 12 49 40 16 49 -28 7 -83 8
-90 1z m30 -29 c-10 -7 -18 -20 -18 -28 0 -8 -10 -24 -23 -36 l-23 -22 -22 30
c-27 36 -27 40 1 41 12 0 38 7 57 14 45 17 49 17 28 1z"/>
<path d="M5635 4790 c-27 -40 -28 -44 -17 -88 18 -69 41 -94 98 -109 84 -22
130 8 63 42 -48 25 -69 52 -69 88 0 18 5 38 11 44 6 6 9 21 7 34 -2 19 -10 25
-34 27 -26 3 -35 -3 -59 -38z m65 6 c0 -8 -4 -18 -10 -21 -14 -8 -13 -68 2
-99 6 -14 22 -33 35 -42 34 -22 23 -27 -19 -10 -26 11 -40 26 -52 56 -21 53
-20 65 6 100 24 33 38 38 38 16z"/>
<path d="M4070 4398 c-30 -49 -26 -84 11 -103 26 -14 38 -14 86 -4 68 16 106
45 106 82 0 38 -6 41 -73 41 -33 -1 -60 3 -60 7 0 5 -11 9 -25 9 -18 0 -31
-10 -45 -32z m120 -16 c28 3 53 1 56 -3 10 -16 -34 -47 -86 -59 -44 -11 -54
-10 -67 3 -13 13 -13 18 2 46 13 27 19 30 31 20 9 -7 33 -10 64 -7z"/>
<path d="M6453 3584 c-52 -53 -63 -70 -63 -98 0 -33 5 -41 112 -154 22 -24 37
-46 34 -49 -11 -12 -80 19 -99 43 -10 13 -25 24 -33 24 -8 0 -28 14 -43 31
-16 17 -31 27 -34 22 -10 -16 -44 -156 -52 -209 -7 -58 13 -124 39 -124 19 0
21 -21 4 -38 -9 -9 -5 -12 21 -12 29 0 32 2 21 15 -10 13 -8 19 13 39 34 32
41 77 24 158 -8 37 -12 69 -10 72 7 7 53 -16 53 -26 0 -12 62 -48 84 -48 11 0
27 7 37 16 16 15 20 14 43 -3 22 -16 25 -26 26 -78 0 -89 20 -115 111 -148 72
-27 76 -27 121 -11 26 8 52 21 58 29 17 20 -28 117 -78 170 -23 25 -42 47 -42
49 0 3 10 6 23 8 16 2 22 10 22 28 0 33 -77 89 -99 71 -12 -10 -15 -8 -20 7
-4 11 -36 37 -71 57 -51 30 -62 41 -54 51 6 8 9 21 5 29 -3 10 1 15 12 15 32
0 45 16 38 46 -13 55 -39 78 -92 80 -48 2 -51 0 -111 -62z m163 6 c18 -34 18
-37 -11 -44 -16 -4 -25 -13 -25 -27 0 -11 -7 -22 -15 -25 -8 -4 -15 -12 -15
-19 0 -14 83 -78 126 -97 13 -6 24 -17 24 -23 0 -7 10 -25 22 -40 l21 -27 16
21 c16 20 17 21 41 4 l24 -17 -24 -6 c-18 -4 -26 -14 -28 -34 -3 -22 6 -36 43
-71 39 -35 93 -122 83 -130 -30 -24 -121 -35 -133 -15 -3 5 -23 14 -44 20 -47
12 -61 40 -61 120 l0 59 -68 55 c-82 66 -172 167 -172 193 0 10 22 43 49 74
46 51 52 55 91 54 34 -1 45 -6 56 -25z m-252 -288 c26 -91 31 -168 12 -197
-12 -18 -25 -25 -39 -23 -33 5 -49 44 -42 108 8 74 36 183 46 173 4 -4 14 -32
23 -61z"/>
<path d="M6340 3298 c0 -9 5 -20 10 -23 13 -8 13 5 0 25 -8 13 -10 13 -10 -2z"/>
<path d="M6311 3218 c-1 -16 4 -28 9 -28 12 0 12 8 0 35 -8 18 -9 17 -9 -7z"/>
<path d="M6352 3156 c-7 -16 -8 -26 -1 -26 12 0 22 25 17 41 -2 6 -9 0 -16
-15z"/>
<path d="M6163 3154 c-15 -7 -17 -50 -3 -59 6 -3 10 -42 10 -85 0 -43 -4 -82
-10 -85 -20 -12 -11 -55 13 -64 25 -10 77 -3 77 9 0 4 -5 54 -10 110 -8 74 -8
105 0 115 6 8 10 24 8 37 -2 19 -10 23 -38 25 -19 1 -41 0 -47 -3z m62 -24
c-3 -5 -15 -10 -25 -10 -10 0 -22 5 -25 10 -4 6 7 10 25 10 18 0 29 -4 25 -10z
m-2 -27 c-7 -2 -21 -2 -30 0 -10 3 -4 5 12 5 17 0 24 -2 18 -5z m-8 -101 c0
-113 -19 -111 -23 1 -2 69 0 88 10 85 9 -3 13 -29 13 -86z m13 -129 c-10 -2
-28 -2 -40 0 -13 2 -5 4 17 4 22 1 32 -1 23 -4z"/>
<path d="M6448 3108 c-21 -17 -13 -127 9 -135 23 -9 33 17 30 81 -2 62 -12 75
-39 54z"/>
<path d="M6391 2918 c-40 -42 -51 -71 -31 -83 10 -6 100 81 100 96 0 4 -6 12
-14 18 -11 9 -22 3 -55 -31z"/>
<path d="M6061 2869 c-19 -7 -22 -14 -16 -32 14 -40 17 -169 5 -192 -22 -42
-10 -60 40 -60 40 0 45 3 48 24 2 13 -1 28 -7 34 -14 14 -15 164 -1 172 20 12
11 52 -12 59 -28 7 -27 7 -57 -5z m59 -19 c0 -5 -13 -10 -30 -10 -16 0 -30 5
-30 10 0 6 14 10 30 10 17 0 30 -4 30 -10z m-15 -30 c-3 -5 -12 -7 -20 -3 -21
7 -19 13 6 13 11 0 18 -4 14 -10z m5 -100 c0 -64 -3 -82 -16 -87 -13 -5 -13
-8 -2 -15 10 -8 10 -9 -2 -6 -8 3 -14 14 -13 26 0 12 1 54 2 92 1 55 4 70 16
70 12 0 15 -16 15 -80z m13 -122 c-2 -5 -15 -8 -28 -8 -13 0 -26 3 -28 8 -3 4
10 7 28 7 18 0 31 -3 28 -7z"/>
<path d="M6292 2793 c-25 -36 -52 -89 -52 -103 0 -5 9 -10 19 -10 23 0 86 102
77 125 -8 22 -22 18 -44 -12z"/>
<path d="M4097 2693 c-10 -3 -17 -12 -15 -21 4 -21 116 -38 133 -21 13 13 -20
39 -51 39 -12 0 -28 2 -36 4 -7 2 -21 2 -31 -1z"/>
<path d="M4257 2653 c-16 -15 -4 -33 43 -67 89 -64 114 -35 29 33 -53 42 -61
46 -72 34z"/>
<path d="M6199 2615 c-22 -50 -22 -80 1 -80 31 0 60 112 32 122 -7 3 -21 -14
-33 -42z"/>
<path d="M4400 2525 c-10 -12 -5 -21 26 -49 54 -50 81 -63 97 -47 9 10 3 20
-33 52 -63 55 -75 61 -90 44z"/>
<path d="M6163 2498 c-21 -26 -44 -79 -38 -88 12 -19 34 -9 55 25 22 36 24 65
4 72 -6 2 -16 -2 -21 -9z"/>
<path d="M4557 2413 c-4 -3 -7 -10 -7 -15 0 -12 142 -78 152 -72 21 13 2 37
-52 64 -60 30 -81 36 -93 23z"/>
<path d="M4750 2323 c0 -15 13 -23 53 -36 71 -22 120 -23 115 -1 -3 16 -54 35
-135 50 -28 6 -33 4 -33 -13z"/>
<path d="M5796 2270 c-23 -79 -40 -203 -32 -244 4 -20 16 -46 27 -57 21 -21
25 -39 9 -39 -5 0 -10 -4 -10 -10 0 -5 16 -10 35 -10 33 0 34 1 23 20 -11 17
-10 22 9 35 12 9 25 31 29 50 12 68 -34 293 -63 302 -7 3 -18 -16 -27 -47z
m69 -178 c6 -69 5 -80 -13 -102 -17 -20 -24 -23 -39 -14 -39 24 -40 148 -2
279 l12 40 18 -63 c10 -35 21 -98 24 -140z"/>
<path d="M5821 2213 c0 -4 4 -17 9 -28 8 -19 9 -19 9 2 1 12 -3 25 -9 28 -5 3
-10 3 -9 -2z"/>
<path d="M5841 2090 c-1 -8 -4 -26 -7 -40 -5 -19 -4 -22 5 -14 7 6 11 24 8 40
-2 16 -5 22 -6 14z"/>
<path d="M5150 2300 c-25 -15 -2 -34 56 -46 32 -6 62 -10 67 -7 12 7 8 33 -5
38 -32 12 -108 21 -118 15z"/>
<path d="M4954 2289 c-13 -21 14 -30 82 -27 56 2 69 6 72 21 3 15 -6 17 -72
17 -43 0 -78 -5 -82 -11z"/>
<path d="M5304 2239 c-10 -17 71 -93 90 -86 23 9 20 19 -18 60 -34 37 -59 46
-72 26z"/>
<path d="M5414 2126 c-3 -8 8 -35 25 -60 37 -53 43 -57 60 -47 15 10 5 33 -36
89 -26 35 -41 40 -49 18z"/>
<path d="M5506 1981 c-9 -14 44 -121 59 -121 26 0 26 20 1 75 -23 51 -46 69
-60 46z"/>
<path d="M5108 1818 l-3 -82 -75 -12 c-97 -16 -143 -33 -223 -84 -81 -50 -162
-136 -204 -215 -35 -67 -73 -192 -73 -242 l0 -33 -86 0 c-64 0 -85 -3 -82 -12
3 -9 32 -14 84 -16 l80 -3 13 -77 c43 -260 256 -461 524 -497 l47 -6 0 -85 c0
-49 4 -84 10 -84 6 0 10 35 10 84 0 95 -9 87 105 101 76 10 221 84 286 147
102 98 173 236 186 364 l6 53 80 3 c52 2 82 7 84 15 3 9 -19 13 -79 15 l-83 3
-6 50 c-35 273 -247 489 -514 523 l-60 7 -3 83 c-2 45 -7 82 -12 82 -5 0 -10
-37 -12 -82z m147 -130 c139 -30 300 -158 363 -288 35 -72 62 -167 62 -217 0
-30 -3 -33 -30 -33 -26 0 -30 4 -35 38 -20 121 -58 208 -127 286 -71 82 -196
147 -307 162 -47 6 -51 9 -51 34 0 44 3 44 125 18z m-145 -16 c0 -27 -3 -28
-65 -39 -76 -13 -179 -59 -238 -105 -89 -71 -161 -201 -175 -318 -7 -54 -8
-55 -41 -58 l-34 -3 7 60 c14 123 66 229 156 321 36 37 88 80 115 96 68 40
170 73 228 73 45 1 47 0 47 -27z m0 -107 c0 -25 5 -45 10 -45 6 0 10 20 10 45
0 53 8 55 103 30 189 -49 323 -200 352 -397 l7 -48 -47 0 c-60 0 -57 -24 3
-28 48 -4 49 -6 26 -95 -23 -91 -60 -155 -128 -223 -74 -74 -171 -124 -257
-131 l-59 -6 0 42 c0 22 -4 41 -10 41 -5 0 -10 -18 -10 -40 0 -40 0 -40 -38
-40 -123 0 -280 104 -358 237 -20 36 -64 174 -64 205 0 4 20 8 45 8 33 0 45 4
45 15 0 11 -11 15 -39 15 -22 0 -42 4 -46 10 -10 17 25 142 58 204 73 137 226
238 375 245 20 1 22 -4 22 -44z m-477 -504 c6 -68 57 -183 108 -245 73 -88
205 -161 314 -175 45 -5 50 -9 53 -34 5 -38 -15 -42 -99 -23 -234 53 -418 252
-445 481 l-7 55 35 0 35 0 6 -59z m1047 26 c0 -110 -66 -245 -170 -349 -87
-88 -159 -128 -277 -154 -87 -19 -106 -15 -101 23 2 23 8 28 33 31 145 13 304
114 378 241 39 65 67 143 67 182 0 45 10 59 41 59 26 0 29 -3 29 -33z"/>
<path d="M6015 1835 c-73 -13 -84 -38 -19 -43 48 -4 94 12 94 32 0 22 -9 23
-75 11z"/>
<path d="M5600 1827 c0 -25 25 -37 80 -40 35 -1 54 2 57 10 5 15 -25 28 -89
37 -38 6 -48 4 -48 -7z"/>
<path d="M5770 1800 c0 -19 5 -21 72 -18 60 2 73 6 76 21 3 15 -6 17 -72 17
-70 0 -76 -2 -76 -20z"/>
</g>
</svg>
