<?xml version="1.0" standalone="no"?>
<!DOCTYPE svg PUBLIC "-//W3C//DTD SVG 20010904//EN"
 "http://www.w3.org/TR/2001/REC-SVG-20010904/DTD/svg10.dtd">
<svg version="1.0" xmlns="http://www.w3.org/2000/svg"
 width="1024.000000pt" height="559.000000pt" viewBox="0 0 1024.000000 559.000000"
 preserveAspectRatio="xMidYMid meet">
<metadata>
Created by potrace 1.16, written by Peter Selinger 2001-2019
</metadata>
<g transform="translate(0.000000,559.000000) scale(0.100000,-0.100000)"
fill="#000000" stroke="none">
<path d="M7325 4494 c-49 -7 -175 -25 -280 -38 -260 -35 -359 -50 -505 -81
-181 -37 -373 -74 -465 -90 -413 -70 -705 -168 -927 -314 -94 -61 -154 -119
-179 -174 -64 -142 36 -244 386 -392 286 -122 395 -217 395 -345 0 -51 -1 -54
-63 -114 -148 -143 -416 -225 -1007 -306 -368 -51 -612 -122 -910 -263 -195
-92 -328 -152 -542 -243 -109 -46 -293 -131 -410 -188 -117 -57 -241 -116
-275 -131 -58 -26 -76 -46 -54 -59 10 -7 146 53 396 174 94 45 267 124 385
175 245 106 392 172 535 240 301 142 499 199 895 255 586 83 855 164 1007 303
68 63 86 98 86 167 0 65 -15 98 -78 167 -64 72 -152 124 -360 214 -187 82
-299 149 -338 203 -74 104 30 229 298 360 226 111 406 165 780 232 83 14 204
37 270 51 309 62 385 75 600 103 127 17 253 35 280 40 28 5 93 15 145 20 116
14 130 17 130 36 0 18 -69 17 -195 -2z"/>
<path d="M7650 4380 c-47 -11 -128 -28 -180 -40 -104 -23 -116 -25 -335 -64
-82 -14 -170 -30 -195 -35 -25 -5 -79 -14 -120 -21 -311 -47 -583 -124 -790
-224 -137 -66 -226 -153 -236 -232 -4 -31 0 -48 21 -80 49 -74 151 -126 365
-185 186 -51 299 -89 388 -130 254 -118 477 -334 511 -495 59 -279 -337 -536
-1197 -775 -521 -145 -675 -209 -881 -367 -80 -61 -661 -634 -661 -651 0 -42
62 11 333 278 305 303 328 324 442 401 152 103 296 160 651 261 217 61 547
165 634 199 25 10 72 28 105 41 170 63 408 205 499 295 119 120 155 258 101
388 -68 161 -255 331 -490 446 -138 68 -191 87 -370 136 -292 78 -405 141
-405 224 0 43 32 90 93 138 121 97 472 217 794 272 65 12 197 34 293 51 96 17
195 34 220 39 25 4 81 15 125 23 65 13 196 41 373 82 14 3 22 13 22 25 0 24
-1 24 -110 0z"/>
<path d="M6430 4242 c-30 -8 -143 -39 -251 -68 -183 -50 -281 -83 -252 -84 7
0 110 27 230 61 120 34 241 67 268 74 28 8 61 18 75 24 39 16 -4 12 -70 -7z"/>
<path d="M5431 3953 c-54 -27 -137 -109 -155 -154 -10 -25 -14 -53 -11 -70 10
-43 87 -105 155 -123 14 -4 0 7 -30 23 -30 17 -68 45 -84 63 -24 26 -27 37
-23 70 7 51 60 115 138 167 64 43 68 52 10 24z"/>
<path d="M5677 3853 c-29 -31 -57 -91 -57 -123 0 -37 39 -99 83 -131 43 -32
202 -111 247 -123 14 -4 -29 21 -95 56 -66 35 -132 72 -147 82 -38 25 -68 77
-68 117 0 34 36 119 50 119 4 0 10 7 14 15 8 21 4 19 -27 -12z"/>
<path d="M6586 3140 c117 -68 176 -128 193 -195 36 -144 -97 -272 -492 -472
-59 -31 -105 -58 -102 -61 7 -8 239 109 365 184 212 125 295 267 230 393 -28
55 -112 127 -202 172 -112 56 -108 48 8 -21z"/>
<path d="M5972 3019 c-4 -105 -76 -188 -243 -280 -88 -49 -98 -64 -17 -27 184
85 277 196 265 313 l-4 40 -1 -46z"/>
<path d="M6531 2964 c18 -62 6 -129 -31 -182 l-32 -47 31 29 c17 16 36 45 42
64 13 39 6 149 -10 165 -7 7 -7 -2 0 -29z"/>
<path d="M4935 2454 c-49 -13 -148 -38 -220 -54 -71 -17 -188 -44 -260 -60
-71 -17 -198 -42 -281 -55 -170 -28 -283 -58 -411 -111 -92 -38 -624 -306
-618 -312 5 -5 83 31 356 168 301 149 436 197 666 235 229 37 677 141 838 193
85 28 37 25 -70 -4z"/>
<path d="M5215 2300 c-66 -27 -203 -76 -305 -109 -120 -40 -215 -78 -269 -108
-88 -50 -164 -111 -183 -146 -6 -12 16 3 50 34 85 77 208 138 422 209 189 63
396 145 406 161 3 5 4 9 2 8 -2 -1 -57 -23 -123 -49z"/>
<path d="M4080 2080 c-78 -28 -311 -147 -346 -177 l-29 -25 46 26 c91 50 325
164 362 176 20 6 37 13 37 16 0 7 -13 4 -70 -16z"/>
<path d="M4954 1906 c-71 -35 -157 -86 -191 -113 -77 -61 -545 -515 -538 -521
5 -5 185 161 400 369 148 143 197 179 355 259 138 69 139 70 119 70 -8 0 -73
-29 -145 -64z"/>
<path d="M4421 1863 c-10 -26 -10 -27 4 -9 8 11 15 23 15 28 0 15 -7 8 -19
-19z"/>
<path d="M4275 1669 c-33 -27 -121 -91 -195 -141 -144 -97 -234 -167 -226
-175 3 -3 24 10 48 29 24 19 86 64 138 99 122 81 237 168 274 208 42 44 30 38
-39 -20z"/>
</g>
</svg>
