<?xml version="1.0" standalone="no"?>
<!DOCTYPE svg PUBLIC "-//W3C//DTD SVG 20010904//EN"
 "http://www.w3.org/TR/2001/REC-SVG-20010904/DTD/svg10.dtd">
<svg version="1.0" xmlns="http://www.w3.org/2000/svg"
 width="1024.000000pt" height="559.000000pt" viewBox="0 0 1024.000000 559.000000"
 preserveAspectRatio="xMidYMid meet">
<metadata>
Created by potrace 1.16, written by Peter Selinger 2001-2019
</metadata>
<g transform="translate(0.000000,559.000000) scale(0.100000,-0.100000)"
fill="#000000" stroke="none">
<path d="M2960 4611 c0 -23 23 -24 975 -48 562 -14 700 -14 857 -4 204 14 263
11 413 -24 119 -28 288 -45 445 -45 113 0 140 -3 329 -38 91 -17 93 -18 65
-31 -16 -7 -55 -22 -87 -33 -33 -10 -89 -39 -125 -63 -92 -60 -152 -71 -303
-57 -92 9 -138 8 -223 -3 -58 -8 -111 -17 -116 -20 -20 -12 -113 -26 -243 -35
-148 -10 -235 -30 -261 -59 -24 -26 -5 -38 90 -56 100 -20 116 -24 109 -35 -5
-8 -62 -27 -265 -86 -30 -9 -91 -34 -135 -55 -62 -30 -101 -42 -170 -50 -228
-29 -520 -76 -520 -85 0 -5 34 -12 75 -15 119 -9 240 -66 290 -136 17 -23 51
-57 75 -73 54 -37 66 -72 90 -270 23 -192 51 -271 139 -390 37 -49 45 -70 55
-137 7 -43 28 -130 46 -193 60 -202 67 -249 70 -460 2 -207 5 -221 58 -320 92
-172 114 -230 132 -350 10 -66 16 -83 26 -73 10 10 -12 159 -33 223 -6 19 -43
97 -82 173 l-71 137 -6 218 c-7 225 -21 317 -69 457 -11 33 -30 110 -40 170
-16 89 -26 118 -50 150 -95 126 -123 201 -149 397 -30 224 -27 217 -146 333
-88 87 -111 104 -166 124 -35 13 -68 27 -72 31 -8 7 130 31 293 50 120 14 162
25 230 59 59 29 107 47 236 85 l80 23 13 -161 c7 -89 14 -307 16 -486 3 -179
9 -338 14 -355 13 -43 5 707 -9 836 -19 183 -21 166 24 183 22 9 41 15 42 13
1 -1 5 -90 9 -197 5 -146 3 -233 -9 -346 -16 -160 -13 -482 5 -557 6 -20 30
-60 54 -87 25 -28 52 -62 61 -75 9 -14 38 -37 65 -51 26 -15 51 -34 54 -43 4
-9 13 -88 21 -176 15 -170 28 -243 69 -394 14 -51 29 -132 35 -179 7 -63 18
-101 39 -142 77 -145 83 -161 127 -379 43 -214 77 -345 95 -367 16 -20 -49
-23 -781 -33 -388 -6 -806 -13 -930 -17 -124 -3 -337 -9 -474 -13 -199 -5
-250 -9 -254 -20 -4 -11 45 -12 314 -5 176 4 461 8 634 9 994 4 1566 19 1742
47 48 7 312 12 773 14 385 1 708 2 718 3 9 1 17 8 17 16 0 18 47 16 -589 24
l-515 6 -18 60 c-10 33 -32 123 -47 201 -32 155 -42 181 -100 248 -53 61 -66
134 -66 381 0 167 3 199 23 268 25 86 27 127 11 210 -9 50 -7 68 15 151 37
134 35 225 -6 347 -45 133 -43 207 7 353 66 197 78 267 79 491 1 110 5 205 9
212 18 30 39 173 43 305 5 172 1 182 -83 193 -26 3 -82 13 -123 21 -41 9 -167
19 -280 24 -249 10 -284 14 -430 48 -98 23 -136 26 -255 25 -545 -5 -896 -2
-1340 11 -670 21 -665 21 -665 -3z m3134 -248 c-2 -21 -6 -90 -8 -153 -3 -68
-14 -145 -25 -188 -17 -61 -20 -103 -20 -245 1 -199 -9 -269 -71 -462 -30 -94
-44 -158 -50 -230 -5 -55 -14 -162 -20 -238 -18 -217 -50 -310 -141 -414 -73
-84 -81 -103 -90 -228 -4 -60 -17 -151 -30 -201 l-22 -91 26 -154 c14 -85 29
-200 32 -256 3 -56 8 -108 11 -117 10 -27 27 -18 21 12 -3 15 -9 79 -12 142
-4 63 -16 159 -26 213 -23 118 -24 184 -4 257 9 30 20 102 25 160 16 162 17
166 81 238 100 112 139 229 154 461 8 122 11 123 44 22 29 -89 27 -178 -6
-296 -25 -91 -26 -97 -13 -178 12 -79 11 -90 -9 -167 -42 -160 -48 -307 -20
-525 13 -98 24 -126 82 -201 43 -55 47 -67 72 -189 22 -111 37 -174 61 -256 4
-14 -12 -17 -123 -23 -71 -4 -197 -14 -281 -22 -84 -9 -159 -13 -166 -11 -21
8 -53 126 -105 382 -48 241 -56 264 -125 379 -15 24 -28 69 -36 120 -16 114
-38 218 -65 311 -14 47 -28 134 -35 210 -23 269 -25 277 -101 316 -20 10 -53
40 -72 66 -20 26 -49 63 -64 82 -27 33 -28 37 -36 215 -8 179 -7 219 12 466 5
69 6 210 3 314 -7 187 -7 189 -32 208 -14 10 -59 25 -100 32 -73 13 -74 13
-45 25 16 7 93 17 170 22 77 5 169 16 205 24 183 42 233 47 350 39 63 -5 133
-7 154 -6 l39 2 -8 -102 c-9 -119 -8 -197 5 -253 14 -59 12 -217 -4 -373 -8
-75 -17 -278 -20 -449 -5 -268 -4 -313 9 -313 18 0 31 46 51 175 19 128 28
167 55 240 20 53 22 78 20 217 -2 144 1 169 29 287 16 71 30 155 30 188 0 105
20 316 36 378 25 97 34 107 121 141 43 18 81 32 85 33 3 1 4 -16 2 -36z m-204
-59 c0 -3 -5 -14 -10 -24 -20 -38 -41 -182 -50 -352 -6 -125 -15 -197 -31
-258 -19 -71 -23 -113 -24 -255 -2 -161 -4 -177 -33 -275 -18 -58 -39 -154
-47 -214 -8 -60 -16 -110 -17 -112 -10 -10 6 556 18 665 18 153 20 359 4 411
-12 40 -13 118 -4 248 l7 90 41 11 c23 5 61 24 86 40 45 30 60 36 60 25z"/>
<path d="M4880 2774 c0 -148 1 -150 97 -268 72 -88 99 -153 119 -286 42 -272
56 -355 73 -436 11 -49 30 -135 42 -191 12 -56 25 -100 29 -98 8 5 -3 69 -49
289 -17 81 -41 214 -52 295 -40 287 -60 342 -168 468 l-64 76 -6 133 c-4 73
-10 136 -14 140 -4 4 -7 -51 -7 -122z"/>
</g>
</svg>
