<?xml version="1.0" standalone="no"?>
<!DOCTYPE svg PUBLIC "-//W3C//DTD SVG 20010904//EN"
 "http://www.w3.org/TR/2001/REC-SVG-20010904/DTD/svg10.dtd">
<svg version="1.0" xmlns="http://www.w3.org/2000/svg"
 width="1024.000000pt" height="559.000000pt" viewBox="0 0 1024.000000 559.000000"
 preserveAspectRatio="xMidYMid meet">
<metadata>
Created by potrace 1.16, written by Peter Selinger 2001-2019
</metadata>
<g transform="translate(0.000000,559.000000) scale(0.100000,-0.100000)"
fill="#000000" stroke="none">
<path d="M5335 4620 c-59 -19 -125 -55 -400 -222 -221 -133 -338 -180 -638
-257 -225 -58 -309 -88 -375 -132 -26 -18 -135 -119 -242 -224 -107 -105 -240
-224 -295 -264 -211 -155 -221 -172 -261 -443 -19 -132 -35 -202 -76 -325
l-52 -158 -1 -180 c0 -236 5 -253 140 -455 57 -85 134 -209 170 -275 133 -237
157 -261 310 -306 332 -96 570 -187 770 -294 234 -124 256 -130 450 -129 l160
1 220 57 c473 122 488 127 600 181 61 29 153 82 205 116 180 118 256 161 476
269 121 60 245 127 275 150 111 83 178 187 259 399 27 73 72 172 99 220 75
134 82 161 92 376 5 105 13 217 19 250 14 83 13 163 -4 218 -8 25 -45 97 -84
160 -126 204 -140 242 -166 424 -18 120 -38 187 -81 273 -89 176 -222 313
-368 379 -61 28 -180 54 -367 81 -80 11 -224 38 -320 60 -353 79 -407 84 -515
50z m300 -44 c39 -9 115 -26 170 -40 55 -13 120 -27 144 -31 38 -6 42 -9 25
-18 -10 -6 -56 -23 -101 -37 -46 -15 -86 -30 -90 -33 -15 -16 43 -5 126 22
147 49 201 49 346 4 67 -21 81 -35 123 -122 22 -44 61 -101 99 -142 44 -48 65
-81 73 -111 25 -103 34 -127 72 -197 37 -67 39 -78 35 -135 -9 -132 -26 -188
-112 -366 -47 -96 -90 -199 -97 -229 -7 -29 -26 -77 -43 -105 -32 -54 -57 -69
-341 -203 -49 -23 -118 -58 -154 -77 -36 -19 -123 -56 -195 -81 -71 -26 -168
-66 -215 -89 -47 -24 -115 -55 -152 -71 -38 -15 -68 -31 -68 -36 0 -14 75 13
210 76 74 35 187 82 250 106 63 23 183 76 266 118 182 92 297 144 289 131 -3
-5 -52 -45 -108 -88 -56 -44 -135 -117 -175 -163 -134 -153 -189 -189 -398
-260 -281 -95 -370 -140 -503 -253 -120 -102 -146 -118 -409 -251 l-233 -119
-107 2 c-101 2 -109 3 -149 32 -54 39 -94 55 -167 69 -74 14 -120 41 -249 145
-56 45 -120 94 -142 109 -45 31 -40 33 29 12 62 -19 148 -19 256 0 47 8 115
17 153 20 39 4 65 11 61 16 -7 12 -108 4 -234 -17 -145 -24 -210 -16 -336 42
-29 13 -76 29 -106 34 -29 6 -63 13 -75 16 -13 2 -33 21 -46 41 -13 20 -49 53
-82 72 -110 67 -159 178 -137 309 7 37 14 130 17 207 11 268 37 397 96 468 17
20 82 75 145 122 63 47 151 120 196 163 45 42 78 68 73 57 -4 -11 -29 -81 -55
-155 -52 -150 -66 -180 -120 -260 -41 -60 -90 -153 -90 -170 0 -22 17 -8 34
28 10 20 44 78 76 127 55 84 94 171 135 305 41 133 79 195 182 297 116 116
174 150 328 192 161 44 206 50 471 61 294 13 342 20 469 72 55 22 129 46 163
53 65 14 80 20 70 31 -13 12 -139 -20 -247 -63 -87 -34 -135 -47 -205 -54
-126 -13 -407 -25 -398 -18 4 4 32 14 62 24 162 52 303 123 545 274 130 81
217 127 280 148 48 16 167 11 270 -11z m801 -157 c194 -60 319 -174 433 -395
40 -79 80 -223 81 -290 0 -45 33 -156 75 -258 36 -85 38 -95 38 -205 1 -114 0
-118 -42 -226 -24 -60 -52 -134 -63 -164 -21 -59 -58 -249 -57 -296 l0 -30 11
25 c5 14 19 74 29 134 11 60 36 150 55 200 92 238 88 222 88 348 l1 117 42
-67 c52 -81 83 -160 83 -210 0 -20 -7 -86 -15 -147 -8 -60 -15 -159 -15 -219
0 -165 -13 -219 -85 -360 -35 -67 -84 -175 -109 -239 -58 -147 -83 -198 -135
-267 -61 -82 -137 -134 -336 -230 -201 -97 -326 -167 -495 -278 -148 -97 -236
-143 -333 -177 -94 -31 -114 -29 -59 7 56 38 140 126 164 173 12 22 31 70 44
108 39 115 78 152 204 197 36 13 69 27 75 32 19 17 -36 7 -106 -19 -102 -38
-159 -94 -189 -188 -13 -38 -32 -88 -42 -109 -30 -58 -107 -136 -201 -199 -77
-54 -92 -59 -257 -102 -294 -77 -350 -88 -445 -89 -114 -1 -147 12 -175 68
-11 23 -20 48 -20 56 0 67 -136 398 -196 477 -14 18 -61 57 -105 85 -43 29
-79 56 -79 60 0 4 42 8 93 8 l92 0 230 117 c273 139 303 157 424 262 65 56
121 94 184 125 93 45 310 125 292 107 -5 -5 -62 -39 -125 -76 -144 -84 -187
-119 -247 -202 -112 -154 -128 -169 -296 -280 -239 -158 -308 -235 -334 -378
-8 -42 11 -21 27 30 38 119 95 183 265 293 225 146 222 142 330 287 63 85 98
121 151 158 69 48 369 227 381 227 3 0 39 20 79 45 65 41 234 204 234 226 0 4
55 50 123 102 67 53 140 114 162 136 21 23 47 41 57 41 33 0 75 -107 113 -285
9 -44 29 -123 45 -175 62 -210 78 -300 84 -495 5 -150 15 -207 44 -235 13 -13
14 -12 8 10 -4 14 -12 41 -17 60 -5 19 -13 116 -18 215 -10 189 -20 246 -76
435 -19 63 -46 169 -60 235 -28 134 -74 244 -105 252 -24 6 -24 4 -1 45 11 18
27 62 36 98 9 35 44 119 77 185 65 130 81 168 128 292 17 46 47 101 66 124 19
22 34 46 34 52 -1 12 -26 -14 -70 -72 l-25 -33 -1 69 c0 60 -5 77 -41 143 -23
41 -51 113 -64 159 -20 77 -27 89 -84 150 -40 42 -76 94 -99 141 -20 41 -44
81 -53 88 -15 11 -15 12 4 12 12 0 52 -10 89 -21z m-3315 -1699 c-19 -120 -15
-170 20 -239 24 -47 46 -74 87 -105 60 -44 98 -81 122 -115 10 -16 35 -27 79
-37 39 -9 78 -26 97 -42 17 -15 59 -44 93 -65 34 -22 99 -69 144 -106 45 -37
96 -77 114 -89 64 -45 179 -225 238 -374 15 -38 31 -68 36 -68 12 0 13 -3 -26
94 -42 105 -62 144 -114 221 -22 32 -39 60 -37 62 1 1 29 -2 62 -8 67 -12 150
-49 147 -66 -1 -6 15 -14 37 -18 24 -4 44 -14 50 -25 6 -11 41 -40 78 -66 37
-26 81 -60 98 -76 47 -44 169 -303 199 -423 14 -55 34 -117 44 -137 10 -21 14
-38 9 -38 -34 0 -135 41 -250 101 -166 87 -241 123 -326 155 -81 31 -385 132
-502 168 -131 39 -155 61 -243 221 -80 148 -109 194 -212 346 -104 154 -110
168 -125 289 -21 176 -10 283 48 453 40 118 52 113 33 -13z"/>
</g>
</svg>
