<?xml version="1.0" standalone="no"?>
<!DOCTYPE svg PUBLIC "-//W3C//DTD SVG 20010904//EN"
 "http://www.w3.org/TR/2001/REC-SVG-20010904/DTD/svg10.dtd">
<svg version="1.0" xmlns="http://www.w3.org/2000/svg"
 width="1024.000000pt" height="559.000000pt" viewBox="0 0 1024.000000 559.000000"
 preserveAspectRatio="xMidYMid meet">
<metadata>
Created by potrace 1.16, written by Peter Selinger 2001-2019
</metadata>
<g transform="translate(0.000000,559.000000) scale(0.100000,-0.100000)"
fill="#000000" stroke="none">
<path d="M5112 5397 c-12 -14 -32 -280 -67 -867 -9 -151 -20 -324 -23 -385
l-7 -110 -39 0 -38 0 -24 70 c-13 39 -42 95 -64 125 -102 141 -115 189 -86
320 29 128 -9 240 -116 333 -31 28 -68 71 -82 97 -23 42 -26 59 -26 146 0 84
-4 107 -25 152 -17 38 -30 52 -45 52 -18 0 -20 -6 -20 -53 0 -31 -11 -85 -25
-127 -44 -130 -26 -239 58 -341 91 -110 104 -165 67 -294 -35 -121 -22 -210
48 -335 52 -92 61 -116 68 -175 l6 -52 -41 -16 c-23 -10 -43 -17 -45 -17 -1 0
-44 64 -95 143 -417 643 -642 983 -655 992 -10 6 -19 6 -27 -2 -14 -14 19 -83
361 -777 l230 -468 -23 -19 c-12 -10 -26 -18 -31 -19 -4 0 -31 21 -60 46 -31
29 -95 68 -163 101 -128 61 -154 87 -184 184 -44 140 -118 224 -224 254 -30 8
-80 22 -111 31 -72 20 -122 66 -165 150 -47 92 -124 156 -160 133 -11 -7 -9
-18 13 -57 15 -26 34 -84 43 -128 25 -121 98 -217 192 -252 15 -5 49 -17 75
-27 64 -22 115 -77 135 -145 37 -129 45 -150 75 -194 35 -53 89 -99 169 -144
58 -33 127 -96 149 -136 11 -21 9 -28 -11 -55 -12 -17 -26 -31 -31 -31 -4 0
-139 68 -300 150 -558 287 -929 471 -939 465 -22 -14 -5 -38 64 -86 39 -28
298 -201 573 -386 l501 -335 -11 -30 c-10 -26 -14 -29 -41 -23 -93 20 -147 23
-253 18 -135 -7 -158 1 -247 81 -74 67 -126 90 -215 94 -60 3 -89 -2 -149 -22
-121 -42 -161 -36 -275 42 -65 44 -72 47 -135 47 -83 0 -92 -19 -25 -54 26
-14 63 -47 87 -78 23 -30 65 -69 93 -88 85 -57 130 -62 311 -39 88 11 114 1
205 -83 116 -107 161 -125 318 -134 117 -6 140 -11 213 -42 26 -11 28 -15 22
-52 -3 -21 -7 -40 -8 -41 -2 -2 -419 -28 -792 -49 -345 -19 -578 -36 -587 -42
-16 -9 -7 -33 15 -37 12 -3 101 -9 197 -15 401 -25 665 -41 825 -51 355 -21
343 -20 349 -43 10 -39 7 -44 -41 -57 -64 -17 -118 -44 -178 -90 -98 -72 -128
-83 -219 -75 -45 4 -115 8 -156 8 -103 3 -160 -25 -265 -131 -94 -94 -128
-108 -241 -97 -80 7 -138 -4 -178 -36 -44 -35 -31 -54 39 -55 35 -1 92 -13
137 -28 42 -14 91 -26 109 -26 60 0 145 31 195 71 113 90 127 98 171 105 32 5
69 0 130 -16 120 -32 211 -25 296 20 145 78 175 91 222 96 50 6 50 6 63 -28 6
-19 12 -37 12 -40 0 -3 -125 -89 -277 -190 -580 -384 -847 -565 -857 -581 -8
-12 -7 -20 1 -28 9 -9 164 66 626 300 l615 310 28 -37 c15 -20 31 -42 35 -47
4 -6 -22 -45 -63 -90 -133 -150 -753 -860 -796 -911 -45 -54 -50 -69 -27 -78
9 -3 38 16 77 53 81 75 844 757 914 817 l53 46 46 -37 c25 -21 45 -39 45 -41
0 -1 -138 -275 -306 -608 -168 -333 -304 -613 -302 -623 2 -9 8 -18 15 -20 7
-3 173 238 394 569 210 315 382 574 384 576 1 1 19 -5 39 -13 32 -14 37 -20
31 -38 -40 -128 -47 -184 -40 -317 11 -234 9 -242 -75 -335 -29 -32 -61 -76
-71 -99 -23 -52 -25 -152 -3 -237 23 -89 15 -138 -33 -201 -54 -72 -63 -91
-63 -133 0 -54 22 -53 77 2 27 26 68 61 92 77 31 20 50 44 66 80 28 61 32 97
21 193 -11 100 2 132 90 223 47 48 83 97 101 135 26 57 28 67 29 215 0 161 7
201 49 296 23 53 24 53 62 47 21 -3 43 -10 49 -14 7 -6 14 -65 18 -147 4 -75
13 -238 21 -362 8 -124 21 -349 30 -500 21 -355 21 -360 45 -360 12 0 21 9 24
23 2 12 12 153 21 312 9 160 20 351 25 425 5 74 15 234 21 355 7 121 16 230
20 243 7 17 16 22 42 22 32 0 34 -2 45 -52 27 -118 82 -236 149 -321 89 -112
97 -134 87 -227 -21 -198 0 -268 107 -361 82 -71 92 -94 90 -200 -1 -91 6
-125 33 -152 24 -24 46 -10 46 28 0 19 14 67 30 108 17 42 30 88 30 104 0 58
-29 128 -75 182 -80 94 -90 134 -60 248 20 76 19 182 -2 235 -9 24 -37 75 -63
113 -81 121 -107 187 -125 317 l-6 47 47 20 c26 12 48 20 50 19 1 -2 173 -261
383 -576 209 -314 385 -572 390 -572 5 0 13 6 19 13 11 13 -28 93 -389 805
-167 328 -218 437 -209 447 6 7 28 25 50 40 l39 27 153 -138 c84 -75 189 -169
233 -209 44 -39 175 -157 291 -261 312 -280 340 -304 358 -304 25 0 19 27 -17
67 -67 76 -734 839 -801 916 -75 86 -75 86 -24 147 l20 25 612 -308 c336 -169
617 -308 624 -307 8 0 12 9 10 21 -3 23 -284 216 -863 594 -257 168 -275 182
-269 205 9 40 20 45 66 30 30 -9 90 -13 192 -12 172 2 197 -5 281 -82 73 -67
125 -90 217 -94 64 -3 90 1 157 23 108 37 152 31 244 -31 102 -70 172 -90 212
-61 22 17 14 32 -29 52 -19 9 -64 50 -102 92 -102 113 -199 150 -328 123 -73
-15 -148 -15 -177 0 -12 7 -56 44 -97 83 -108 100 -155 119 -313 127 -106 6
-136 12 -183 33 l-57 26 7 38 c4 21 7 39 8 39 0 1 132 9 291 18 761 44 1074
64 1088 73 15 9 6 33 -15 37 -26 6 -244 19 -1048 66 -278 16 -320 21 -320 33
0 7 -3 21 -6 33 -5 18 1 23 42 33 59 15 113 42 189 96 33 23 75 50 93 59 38
20 142 23 185 7 46 -18 141 -13 202 10 44 16 73 38 133 99 104 106 144 124
261 115 75 -6 94 -5 132 12 84 37 94 85 17 76 -31 -4 -66 2 -118 20 -108 37
-133 40 -197 27 -74 -16 -115 -37 -183 -96 -93 -80 -134 -88 -260 -53 -54 15
-96 20 -147 17 -66 -3 -83 -9 -192 -66 -85 -44 -135 -64 -173 -68 l-54 -6 -12
38 c-6 21 -8 42 -4 45 7 7 249 170 800 538 248 166 332 227 332 241 0 11 -7
20 -15 20 -14 0 -629 -303 -725 -357 -78 -44 -497 -253 -507 -253 -6 0 -18 12
-28 26 -16 25 -16 26 23 69 53 57 86 110 119 192 37 93 89 144 179 173 156 52
223 129 258 297 24 118 54 156 165 215 67 35 115 85 126 130 10 40 -14 45 -60
13 -21 -14 -48 -27 -59 -29 -105 -20 -140 -31 -187 -59 -71 -42 -111 -98 -145
-199 -37 -112 -73 -148 -174 -177 -147 -42 -222 -96 -285 -207 -51 -90 -78
-124 -124 -158 l-46 -34 -36 29 -37 29 275 553 c350 702 343 687 304 687 -18
0 -144 -185 -571 -840 -95 -146 -178 -271 -184 -278 -9 -10 -19 -10 -45 -1
-27 9 -32 15 -27 33 20 70 26 171 16 246 -17 124 -2 176 76 263 24 27 56 74
71 105 37 75 38 176 4 271 -35 97 -28 159 32 256 48 78 66 139 53 189 -9 37
-32 32 -52 -10 -10 -20 -55 -74 -100 -119 -69 -69 -85 -90 -98 -136 -20 -69
-22 -116 -6 -209 17 -109 6 -140 -84 -239 -108 -117 -136 -190 -136 -351 0
-77 -18 -161 -42 -192 -10 -13 -22 -16 -55 -11 l-41 5 -6 67 c-3 36 -11 152
-16 256 -6 105 -14 255 -20 335 -5 80 -17 269 -26 420 -17 276 -25 320 -52
287z m-615 -284 c-1 -123 12 -152 121 -260 96 -95 118 -146 108 -251 -19 -194
-19 -202 -1 -248 9 -24 36 -71 60 -103 51 -70 71 -106 95 -176 l18 -52 -79
-22 c-44 -12 -86 -24 -93 -27 -10 -4 -15 10 -20 49 -5 36 -26 92 -66 170 -76
150 -81 186 -46 329 37 150 29 185 -75 311 -49 58 -79 131 -79 193 0 40 43
184 55 184 1 0 2 -44 2 -97z m1292 65 c-7 -13 -24 -41 -38 -63 -15 -22 -32
-53 -39 -68 -19 -44 -15 -146 9 -213 24 -67 28 -150 11 -209 -6 -22 -40 -75
-77 -120 -88 -107 -97 -141 -89 -310 5 -91 3 -147 -6 -183 l-12 -51 -31 12
c-18 7 -58 19 -89 27 -32 7 -58 16 -58 19 0 3 9 30 21 60 14 39 22 92 28 185
9 156 22 187 116 286 91 94 101 117 96 220 -8 204 -6 233 17 276 16 32 135
154 150 154 1 0 -3 -10 -9 -22z m-634 -598 c8 -157 18 -334 21 -395 3 -60 8
-118 10 -127 5 -16 -3 -18 -60 -18 -62 0 -66 1 -66 23 0 12 7 128 15 257 8
129 19 314 25 410 5 96 13 213 17 260 l7 85 8 -105 c4 -58 14 -233 23 -390z
m-1064 20 c57 -89 133 -204 167 -258 186 -284 282 -433 282 -440 0 -8 -86 -62
-98 -62 -6 0 -448 874 -460 910 -11 30 16 -6 109 -150z m1943 -312 l-227 -455
-53 31 c-32 18 -52 36 -49 44 2 7 55 90 118 185 62 94 184 281 272 415 87 133
160 240 162 238 2 -2 -99 -208 -223 -458z m-2630 223 c43 -84 109 -145 179
-166 28 -8 59 -15 69 -15 30 0 101 -32 141 -63 44 -34 81 -94 97 -157 17 -66
59 -138 99 -170 20 -15 69 -42 109 -59 82 -34 120 -58 173 -108 l35 -33 -65
-65 c-35 -36 -65 -65 -66 -65 0 0 -30 28 -65 63 -36 35 -94 78 -128 97 -105
55 -159 131 -196 272 -32 122 -95 186 -213 217 -51 14 -119 64 -151 111 -29
43 -75 210 -58 210 3 0 21 -31 40 -69z m3506 34 c0 -3 -31 -20 -68 -39 -111
-56 -160 -123 -182 -249 -6 -34 -20 -81 -31 -104 -27 -56 -94 -116 -155 -138
-155 -56 -184 -83 -257 -235 -25 -53 -64 -117 -90 -145 l-44 -50 -66 70 -66
70 27 20 c50 36 89 83 135 162 68 118 118 157 247 197 47 14 99 35 117 46 47
28 88 91 108 163 21 77 70 148 128 181 48 28 197 67 197 51z m-1675 -555 c184
-20 345 -74 500 -167 275 -165 468 -422 552 -740 23 -87 26 -118 27 -273 1
-193 -9 -264 -57 -400 -243 -696 -1017 -1015 -1672 -688 -156 77 -287 182
-395 316 -118 147 -186 285 -236 479 -25 97 -28 125 -28 273 0 172 7 228 50
362 113 360 380 638 739 771 96 36 145 48 250 62 115 16 159 17 270 5z m-1414
-404 l247 -127 -30 -54 c-16 -30 -32 -55 -34 -55 -8 0 -874 581 -874 586 0 3
100 -46 223 -109 122 -63 333 -171 468 -241z m3294 345 c-16 -14 -853 -571
-867 -576 -16 -6 -74 93 -62 105 5 4 119 64 254 133 135 69 342 175 460 236
214 110 233 119 215 102z m-4345 -496 c110 -80 189 -93 312 -50 133 47 228 27
333 -67 85 -77 124 -92 235 -88 183 6 290 -5 290 -30 0 -9 -40 -163 -44 -167
0 -1 -32 9 -71 23 -55 18 -91 24 -167 24 -136 0 -188 21 -287 115 -42 40 -91
80 -109 89 -40 21 -129 23 -201 6 -104 -25 -220 14 -287 98 -22 26 -47 55 -56
64 -30 30 2 20 52 -17z m4697 2 c40 -13 76 -26 79 -30 3 -3 -45 -5 -108 -4
-138 2 -153 -4 -258 -112 -41 -42 -92 -85 -113 -95 -57 -26 -131 -30 -219 -12
-93 19 -162 9 -224 -32 -23 -15 -69 -46 -103 -69 -62 -41 -160 -79 -172 -65
-3 4 -13 36 -22 72 -8 36 -18 72 -22 81 -5 12 7 18 57 27 34 6 83 22 108 36
157 83 170 88 232 93 47 4 84 0 141 -16 138 -38 196 -25 301 67 97 85 189 102
323 59z m-3587 -643 l0 -66 -72 6 c-40 3 -158 10 -263 16 -104 6 -288 18 -408
26 -119 8 -234 14 -254 14 -20 0 -34 2 -31 5 2 3 121 12 264 20 142 9 354 22
469 29 116 7 229 14 253 15 l42 1 0 -66z m2765 47 c461 -26 764 -45 761 -48
-2 -2 -111 -10 -242 -18 -370 -22 -767 -45 -786 -45 -14 0 -17 10 -17 57 0 32
2 60 5 64 2 4 28 6 57 3 28 -2 129 -8 222 -13z m-2734 -332 c9 -35 19 -74 23
-85 6 -20 2 -22 -41 -29 -61 -9 -113 -30 -188 -75 -108 -65 -178 -74 -310 -40
-138 35 -196 23 -293 -64 -63 -55 -91 -70 -157 -84 -54 -11 -118 -3 -180 23
-21 8 -47 15 -58 15 -11 0 -17 3 -13 8 4 4 56 7 114 7 131 0 156 11 255 114
104 106 193 138 308 111 124 -30 202 -12 314 74 56 42 177 98 200 92 6 -1 17
-31 26 -67z m2522 20 c40 -13 88 -19 153 -19 131 0 182 -21 281 -114 88 -82
102 -91 166 -106 35 -7 65 -6 129 6 153 29 227 0 337 -135 40 -49 41 -52 15
-37 -16 9 -51 32 -77 51 -87 62 -155 69 -272 29 -61 -21 -89 -25 -143 -22 -81
5 -121 23 -195 89 -92 82 -127 93 -293 90 -169 -2 -239 10 -230 43 37 147 40
157 55 150 9 -4 42 -15 74 -25z m-2399 -340 c15 -28 24 -54 20 -59 -12 -11
-907 -460 -910 -457 -2 1 38 30 89 63 51 34 242 161 426 283 184 121 337 221
340 221 3 0 19 -23 35 -51z m2318 -22 c254 -165 744 -490 753 -499 9 -9 -913
449 -924 459 -4 3 50 113 56 113 1 0 53 -33 115 -73z m-2097 -305 c-32 -30
-644 -574 -689 -612 -33 -28 -37 -30 -21 -9 20 26 164 192 260 299 28 31 124
140 215 243 l164 187 45 -45 c45 -44 45 -45 26 -63z m1936 -44 c533 -605 558
-635 493 -577 -240 214 -710 633 -713 636 -4 3 79 93 85 93 1 0 62 -68 135
-152z m-1700 -95 c27 -16 49 -31 49 -35 0 -8 -546 -837 -562 -853 -6 -5 95
198 223 452 129 254 236 463 238 463 1 0 25 -12 52 -27z m1548 -435 c122 -241
219 -438 216 -438 -6 0 -555 827 -555 838 0 4 22 19 48 34 35 19 50 23 58 15
6 -7 111 -209 233 -449z m-1236 306 c37 -10 67 -21 67 -25 0 -4 -11 -31 -24
-60 -35 -81 -50 -178 -43 -280 7 -93 -4 -171 -31 -224 -8 -16 -48 -64 -87
-105 -99 -102 -108 -126 -100 -267 7 -103 6 -116 -15 -158 -21 -43 -47 -69
-115 -111 l-30 -19 18 25 c69 98 71 103 75 160 3 35 -2 79 -12 113 -20 69 -21
154 -1 200 8 19 38 62 66 94 93 105 100 136 84 363 -10 149 26 328 64 317 9
-3 46 -13 84 -23z m771 -219 c15 -32 45 -83 67 -113 87 -114 109 -213 74 -328
-19 -61 -19 -154 -1 -197 7 -18 36 -59 64 -91 66 -75 83 -138 58 -212 -9 -27
-24 -60 -32 -74 -14 -24 -15 -22 -9 33 10 101 -8 141 -100 232 -72 72 -83 87
-98 142 -16 57 -17 69 -3 142 24 124 9 175 -84 290 -64 80 -103 156 -135 267
-14 47 -25 90 -25 94 0 4 30 15 68 25 37 10 74 21 82 26 12 6 18 -9 31 -84 9
-51 29 -119 43 -152z m-398 48 c-4 -71 -13 -236 -21 -368 -8 -132 -17 -301
-21 -375 -8 -160 -19 -145 -28 40 -4 74 -13 234 -21 355 -8 121 -17 277 -20
348 l-7 127 62 0 62 0 -6 -127z"/>
</g>
</svg>
