<?xml version="1.0" standalone="no"?>
<!DOCTYPE svg PUBLIC "-//W3C//DTD SVG 20010904//EN"
 "http://www.w3.org/TR/2001/REC-SVG-20010904/DTD/svg10.dtd">
<svg version="1.0" xmlns="http://www.w3.org/2000/svg"
 width="1024.000000pt" height="559.000000pt" viewBox="0 0 1024.000000 559.000000"
 preserveAspectRatio="xMidYMid meet">
<metadata>
Created by potrace 1.16, written by Peter Selinger 2001-2019
</metadata>
<g transform="translate(0.000000,559.000000) scale(0.100000,-0.100000)"
fill="#000000" stroke="none">
<path d="M5096 4828 c-8 -18 -40 -105 -71 -193 -31 -88 -75 -209 -97 -270 -22
-60 -57 -159 -78 -220 -21 -60 -77 -218 -125 -350 -47 -132 -97 -271 -111
-309 -13 -38 -25 -71 -27 -72 -2 -2 -156 -8 -343 -14 -1237 -37 -1204 -35
-1204 -59 0 -21 -20 -4 570 -471 267 -211 519 -411 560 -444 41 -33 77 -61 79
-63 2 -1 -26 -107 -63 -235 -103 -368 -189 -673 -261 -933 -36 -132 -72 -262
-80 -289 -13 -46 -11 -76 4 -76 8 0 118 75 296 201 754 536 958 681 969 685 8
3 92 -50 187 -118 96 -68 332 -236 524 -373 193 -136 379 -269 415 -295 168
-122 186 -125 157 -23 -9 32 -46 164 -82 293 -36 129 -79 282 -95 340 -17 58
-62 220 -101 360 -39 140 -84 300 -99 354 -16 55 -27 103 -24 107 3 5 168 137
367 296 809 642 847 672 841 687 -7 17 -80 22 -544 36 -184 6 -465 15 -625 20
-159 5 -311 10 -336 10 l-46 0 -20 58 c-30 84 -128 358 -183 512 -27 74 -102
286 -168 470 -137 385 -147 410 -162 410 -6 0 -17 -15 -24 -32z m-1 -2126 c-4
-5 -15 -2 -275 83 -91 29 -320 104 -510 165 -190 61 -376 122 -415 135 -38 13
-218 72 -400 131 l-330 108 160 8 c167 8 1169 38 1242 38 51 0 49 -3 110 169
97 274 135 381 274 770 l144 404 3 -1003 c1 -552 0 -1005 -3 -1008z m206 1578
c83 -234 189 -530 235 -659 45 -128 86 -237 91 -241 4 -4 181 -13 393 -19 675
-20 1045 -33 1048 -36 4 -3 -206 -73 -723 -240 -181 -58 -348 -112 -370 -120
-22 -7 -195 -64 -385 -125 -190 -62 -364 -118 -388 -126 -23 -8 -47 -14 -52
-14 -6 0 -10 367 -10 1007 0 553 2 1004 5 1002 2 -3 72 -196 156 -429z m-1981
-1044 c80 -26 402 -131 715 -232 314 -102 653 -212 755 -245 102 -33 208 -68
235 -77 28 -9 53 -19 58 -22 6 -5 -63 -108 -292 -430 -64 -91 -368 -528 -684
-982 -106 -152 -195 -277 -199 -277 -4 -1 -3 10 2 24 8 21 45 152 70 250 4 17
38 136 74 265 169 596 238 852 233 864 -5 13 -185 158 -852 686 -304 241 -297
236 -275 228 8 -3 80 -26 160 -52z m3765 45 c-6 -4 -109 -87 -230 -183 -733
-580 -897 -712 -902 -724 -5 -12 22 -114 92 -359 25 -86 138 -489 234 -835 33
-118 59 -216 57 -217 -1 -1 -31 39 -66 90 -87 126 -290 417 -726 1040 -203
290 -375 536 -383 547 -11 17 -11 20 0 24 8 3 183 60 389 126 706 229 1115
362 1320 430 213 71 231 76 215 61z m-1558 -1223 c706 -1011 775 -1110 770
-1114 -2 -2 -84 54 -183 124 -211 151 -842 599 -931 662 l-63 44 -84 -60 c-47
-32 -190 -134 -318 -225 -507 -361 -754 -535 -768 -544 -9 -6 -7 3 7 26 28 44
636 915 953 1366 23 32 78 111 122 176 45 64 84 117 88 117 3 0 186 -258 407
-572z"/>
</g>
</svg>
