<?xml version="1.0" standalone="no"?>
<!DOCTYPE svg PUBLIC "-//W3C//DTD SVG 20010904//EN"
 "http://www.w3.org/TR/2001/REC-SVG-20010904/DTD/svg10.dtd">
<svg version="1.0" xmlns="http://www.w3.org/2000/svg"
 width="1024.000000pt" height="559.000000pt" viewBox="0 0 1024.000000 559.000000"
 preserveAspectRatio="xMidYMid meet">
<metadata>
Created by potrace 1.16, written by Peter Selinger 2001-2019
</metadata>
<g transform="translate(0.000000,559.000000) scale(0.100000,-0.100000)"
fill="#000000" stroke="none">
<path d="M5584 4947 c-10 -27 1 -150 14 -155 9 -3 12 18 12 82 0 52 -4 86 -10
86 -6 0 -13 -6 -16 -13z"/>
<path d="M5355 4890 c-9 -15 63 -140 80 -140 21 0 19 5 -20 76 -38 68 -50 80
-60 64z"/>
<path d="M5812 4863 c-25 -36 -52 -89 -52 -103 0 -5 6 -10 13 -10 12 0 77 109
77 129 0 20 -18 12 -38 -16z"/>
<path d="M5512 4721 c-85 -29 -142 -93 -167 -186 -30 -118 26 -238 140 -298
57 -30 174 -29 231 1 53 27 96 70 120 119 28 56 26 183 -3 239 -30 56 -92 107
-154 127 -65 21 -101 21 -167 -2z m208 -50 c116 -69 145 -240 58 -345 -45 -55
-101 -80 -179 -81 -56 0 -73 4 -114 30 -27 17 -63 50 -80 74 -27 39 -30 50
-30 125 0 73 3 87 28 124 70 106 208 138 317 73z"/>
<path d="M5180 4717 c0 -14 113 -87 135 -87 31 0 13 20 -53 60 -74 44 -82 46
-82 27z"/>
<path d="M5943 4684 c-35 -19 -63 -42 -63 -50 0 -8 3 -14 8 -14 15 0 136 75
140 88 6 21 -20 13 -85 -24z"/>
<path d="M3745 4483 c-87 -8 -262 -46 -363 -79 -615 -201 -1092 -742 -1232
-1398 -52 -242 -58 -440 -24 -689 89 -647 529 -1198 1144 -1435 199 -77 393
-112 625 -112 273 0 520 57 755 173 l125 62 470 5 c303 3 470 9 470 15 0 6
-154 12 -433 15 l-433 5 74 52 c197 137 351 292 479 484 l71 106 303 7 c197 4
366 3 486 -5 113 -7 318 -10 536 -7 l352 6 0 -324 0 -324 -185 0 -185 0 0 25
c0 18 5 25 20 25 24 0 44 35 36 65 -4 16 -16 26 -36 30 -22 5 -30 12 -30 29 0
62 -65 74 -77 14 -6 -30 -7 -30 -52 -24 -25 3 -96 16 -158 27 -98 19 -112 25
-115 43 -4 31 -67 36 -75 7 -4 -16 -13 -21 -38 -21 -39 0 -113 -25 -136 -46
-36 -33 -61 -15 -123 91 -144 247 -138 239 -188 263 -25 13 -71 26 -101 29
-48 5 -56 3 -66 -14 -16 -31 6 -51 74 -68 61 -16 103 -45 91 -63 -3 -6 -26
-17 -51 -26 -45 -15 -46 -15 -68 10 -47 54 -85 69 -174 68 -105 -2 -139 -26
-96 -69 12 -12 31 -16 72 -15 31 1 63 2 72 1 15 -1 187 -171 314 -308 37 -42
44 -53 29 -53 -33 0 -93 -20 -109 -36 -43 -44 2 -104 112 -150 91 -37 133 -69
133 -100 0 -13 6 -27 13 -29 21 -9 330 30 334 41 2 6 -25 30 -61 53 -74 47
-111 88 -137 149 -10 23 -25 45 -34 48 -20 8 -19 28 1 60 21 31 64 54 102 54
33 0 36 -6 48 -105 12 -109 74 -194 171 -237 60 -27 71 -14 28 33 -37 41 -70
103 -80 152 -3 15 -12 27 -19 27 -16 0 -26 31 -26 84 l0 39 38 -6 c20 -4 93
-15 162 -25 123 -18 125 -18 128 -45 l3 -26 -113 -3 c-149 -4 -150 -22 0 -26
103 -2 112 -4 112 -22 0 -11 -9 -34 -20 -52 -78 -129 85 -251 185 -138 14 16
20 36 20 72 0 43 -4 53 -33 79 -18 16 -41 29 -52 29 -11 0 -20 7 -20 15 0 13
28 15 195 15 l195 0 93 77 c51 43 262 219 468 392 l374 314 6 66 c4 36 7 476
8 978 l1 911 -32 11 c-18 6 -82 18 -143 27 -198 30 -372 4 -570 -82 l-99 -44
-131 46 c-116 41 -142 46 -240 51 -166 8 -207 -3 -544 -145 l-93 -40 -72 33
c-226 104 -491 142 -709 100 -43 -8 -87 -15 -97 -15 -11 0 -39 28 -71 72 -64
88 -199 230 -299 313 -205 171 -478 309 -732 370 -149 36 -389 53 -553 38z
m360 -38 c141 -19 278 -53 403 -101 88 -34 115 -54 73 -54 -11 0 -23 -5 -26
-10 -4 -7 -14 -5 -28 5 -25 17 -98 20 -114 4 -12 -12 2 -106 20 -127 16 -20
-11 -33 -40 -19 -38 17 -50 -3 -30 -53 15 -39 15 -40 -5 -40 -11 0 -22 -8 -25
-19 -3 -10 -17 -21 -31 -24 -15 -3 -37 -15 -49 -26 -19 -18 -26 -19 -48 -9
-33 15 -52 0 -36 -30 8 -16 7 -21 -4 -26 -9 -3 -15 0 -15 9 0 21 -53 51 -112
65 -26 7 -51 16 -54 21 -3 5 -28 9 -55 9 -68 0 -123 -34 -202 -122 -34 -38
-79 -78 -99 -89 -47 -24 -60 -48 -56 -107 l3 -47 49 0 c29 0 51 -5 53 -12 3
-7 -3 -9 -17 -6 -30 8 -60 -23 -60 -64 0 -29 -5 -35 -39 -49 -22 -8 -42 -22
-45 -29 -3 -8 -15 -19 -26 -25 -19 -10 -21 -9 -16 7 4 11 -2 35 -11 54 -10 19
-18 54 -18 79 -2 63 -19 92 -53 88 -22 -2 -30 -11 -43 -51 -8 -26 -18 -45 -21
-42 -3 3 -21 -2 -41 -10 -35 -15 -67 -63 -67 -102 0 -21 29 -28 63 -15 37 14
46 8 29 -18 -23 -38 -16 -43 54 -35 78 8 82 -9 4 -20 -53 -7 -80 -28 -64 -49
41 -57 46 -67 40 -92 -7 -26 -8 -26 -75 -20 -37 4 -74 4 -83 1 -10 -4 -19 -24
-23 -47 -4 -23 -13 -54 -19 -69 -18 -43 -8 -99 19 -109 40 -15 37 -27 -20 -76
-32 -28 -59 -61 -66 -81 -7 -23 -28 -47 -59 -69 -26 -19 -69 -65 -94 -102 -44
-66 -46 -71 -47 -143 0 -41 -6 -90 -13 -109 -16 -43 -4 -102 28 -145 13 -16
33 -48 44 -71 11 -23 47 -64 78 -93 l57 -53 121 6 c67 2 140 8 163 11 37 6 45
4 69 -21 17 -16 48 -31 78 -38 56 -13 52 -2 44 -113 -3 -37 2 -47 33 -80 42
-44 53 -64 80 -141 19 -55 19 -56 -1 -94 -11 -21 -23 -56 -26 -78 -6 -34 -1
-49 34 -107 22 -38 45 -85 50 -106 6 -21 29 -62 50 -90 22 -29 42 -64 46 -79
4 -16 16 -29 33 -35 40 -14 185 3 231 26 46 23 110 91 124 132 5 15 18 31 29
34 36 12 49 35 49 86 0 48 2 51 47 82 102 70 107 77 106 148 0 35 -4 91 -8
125 -9 80 2 100 124 229 53 55 108 124 123 152 30 54 58 150 51 171 -8 18 -44
15 -117 -13 -64 -24 -96 -25 -96 -1 0 6 -23 34 -51 61 -53 53 -112 135 -124
176 -4 13 -27 62 -52 108 -25 48 -41 87 -36 92 10 10 87 -94 119 -161 12 -25
31 -54 44 -65 24 -21 70 -110 70 -136 0 -9 9 -24 20 -34 25 -23 53 -16 149 41
158 94 232 173 247 266 6 32 3 36 -51 76 l-58 43 -26 -25 c-30 -29 -59 -34
-67 -11 -4 8 -12 15 -19 15 -16 0 -76 80 -69 91 2 5 25 -7 50 -26 44 -34 64
-40 112 -36 13 1 43 -5 67 -15 38 -14 52 -15 113 -4 66 12 72 12 106 -9 20
-13 36 -29 36 -36 0 -18 31 -35 63 -35 20 0 25 -7 35 -51 11 -48 84 -219 106
-247 5 -8 20 -12 32 -9 19 3 24 -1 29 -24 4 -18 13 -29 24 -29 44 0 56 66 19
103 -21 21 -23 29 -17 107 4 64 13 105 37 163 18 43 32 83 32 90 0 7 7 23 16
36 l16 23 19 -29 c11 -15 24 -47 30 -70 8 -31 16 -43 30 -43 21 0 24 -9 38
-135 6 -49 13 -100 17 -113 6 -21 4 -22 -18 -17 -36 9 -39 -9 -17 -106 43
-183 43 -165 8 -268 -131 -396 -365 -702 -712 -934 -206 -138 -411 -223 -672
-279 -84 -18 -133 -22 -310 -22 -181 0 -225 3 -319 23 -315 66 -541 173 -783
368 -104 85 -203 186 -203 208 0 7 -9 32 -20 56 -25 55 -25 66 0 74 26 8 27
53 3 152 -16 69 -16 75 2 127 16 46 17 60 7 93 -13 41 -67 104 -129 149 -82
60 -133 117 -133 150 0 48 -29 125 -66 173 -20 26 -38 65 -45 100 -7 31 -25
80 -41 109 -29 54 -35 105 -22 183 5 30 10 36 25 32 28 -8 33 20 14 75 -17 46
-17 53 0 128 9 43 32 125 50 180 33 101 51 132 152 256 40 49 48 55 64 45 27
-17 74 20 74 59 1 40 26 104 41 104 22 0 24 -17 4 -35 -11 -10 -20 -24 -20
-31 0 -20 34 -74 47 -74 17 0 40 38 48 80 4 19 17 51 29 70 12 19 28 55 35 80
7 25 27 71 43 102 17 32 28 64 24 73 -3 9 1 30 10 47 9 17 14 38 11 48 -5 20
-1 28 26 49 16 13 17 12 7 -13 -24 -64 7 -76 63 -26 19 17 41 30 49 30 7 0 60
51 117 114 94 103 112 118 180 149 260 119 586 168 866 132z m603 -192 c416
-230 728 -603 876 -1047 46 -139 79 -310 91 -476 7 -94 7 -95 -12 -77 -11 9
-27 15 -35 12 -10 -4 -17 6 -24 37 -6 27 -14 43 -24 43 -8 0 -30 26 -48 58
-18 31 -39 57 -46 57 -15 0 -66 -69 -66 -88 0 -7 -16 -52 -35 -101 -27 -68
-35 -103 -35 -151 0 -60 -16 -130 -31 -130 -17 0 -109 230 -109 276 0 11 -6
29 -14 39 -14 19 -15 19 -33 2 -26 -22 -32 -22 -42 7 -5 13 -30 36 -56 51 -44
25 -50 26 -91 15 -60 -17 -117 -16 -143 2 -14 10 -37 14 -69 10 -43 -4 -52 -1
-91 32 -46 39 -71 45 -91 21 -17 -21 -6 -55 32 -102 66 -81 130 -102 160 -53
10 16 15 15 55 -12 23 -16 43 -34 43 -39 0 -29 -55 -111 -102 -151 -80 -68
-222 -153 -242 -145 -6 3 -17 27 -24 54 -7 28 -30 70 -52 98 -22 28 -50 70
-61 95 -18 36 -93 143 -130 184 -5 5 -14 4 -22 -3 -11 -9 -17 -8 -27 4 -14 17
-40 20 -40 4 0 -6 27 -59 60 -118 33 -59 66 -125 73 -146 22 -62 57 -113 120
-175 31 -32 57 -62 57 -68 0 -7 11 -19 25 -28 26 -17 22 -17 159 26 28 9 28 9
22 -22 -14 -71 -55 -136 -151 -238 -156 -167 -154 -162 -141 -340 4 -52 4
-100 -1 -106 -4 -6 -35 -30 -68 -53 -70 -49 -84 -71 -78 -122 5 -34 2 -39 -26
-53 -17 -9 -39 -33 -50 -54 -11 -21 -39 -56 -63 -79 -46 -41 -85 -55 -195 -68
l-52 -6 -16 37 c-8 21 -31 57 -51 81 -20 24 -40 60 -46 81 -5 20 -28 67 -50
105 l-40 67 15 43 c8 23 20 56 27 72 20 48 -18 159 -76 227 l-46 53 7 65 c7
81 -4 99 -65 107 -32 4 -51 13 -67 32 -23 29 -23 29 -249 17 l-112 -5 -47 36
c-25 20 -58 57 -73 82 -14 25 -39 65 -55 89 -31 46 -32 69 -8 157 6 22 8 60 5
85 -5 40 -1 51 35 107 23 37 61 78 91 99 33 24 57 50 66 74 9 21 37 56 63 78
46 39 50 40 88 30 31 -7 52 -6 94 7 30 8 98 19 153 22 l99 6 -7 -45 c-8 -51
-1 -60 60 -82 22 -7 57 -25 78 -39 68 -47 136 -45 136 4 0 26 32 32 76 12 29
-13 64 -17 140 -17 134 1 150 6 169 51 21 49 24 131 5 143 -8 5 -18 6 -23 3
-16 -9 -151 -11 -168 -2 -24 12 -41 65 -25 78 6 5 44 22 85 36 60 22 78 25
103 16 48 -17 103 -13 129 8 20 16 22 22 12 44 -6 13 -31 36 -55 49 -24 13
-42 31 -41 39 1 7 5 26 9 42 5 22 3 27 -13 27 -28 0 -88 -43 -88 -62 0 -29
-12 -30 -29 -3 -13 19 -24 25 -44 23 -21 -2 -33 -14 -54 -57 -16 -30 -28 -67
-28 -83 0 -25 -4 -28 -41 -34 -22 -4 -50 -15 -62 -24 -19 -16 -20 -21 -9 -45
8 -17 9 -32 3 -43 -7 -12 -14 -6 -33 34 -14 27 -28 61 -31 75 -9 37 -128 139
-161 139 -23 0 -26 -4 -26 -35 0 -28 9 -43 49 -83 28 -28 47 -52 44 -55 -9 -9
-108 70 -123 99 -22 39 -45 48 -83 29 -18 -9 -42 -13 -59 -10 -20 5 -32 1 -48
-17 -11 -13 -24 -26 -28 -30 -4 -4 -22 -20 -39 -34 -18 -14 -33 -32 -33 -40 0
-8 -12 -26 -26 -39 -30 -28 -83 -33 -127 -12 -32 14 -34 33 -10 118 l17 60 40
-6 c23 -3 53 -8 67 -11 55 -11 89 74 50 126 -25 35 -26 41 -6 34 8 -4 21 -2
28 4 6 5 23 13 37 17 23 7 67 39 115 84 11 11 37 26 58 35 32 13 37 19 37 48
0 18 5 40 10 48 7 10 8 4 4 -20 -7 -45 8 -59 67 -61 64 -1 150 16 160 32 5 8
9 24 9 36 0 16 7 22 28 25 21 2 28 9 30 30 3 23 10 29 43 38 33 9 40 15 37 33
-3 20 -9 22 -63 22 -55 0 -60 2 -63 23 -2 12 6 34 17 48 25 31 27 57 7 74 -19
15 -35 6 -83 -50 -49 -56 -55 -71 -40 -109 9 -25 8 -33 -6 -49 -9 -10 -17 -24
-17 -30 0 -13 -28 -42 -40 -42 -5 0 -14 17 -20 38 -17 62 -24 68 -63 54 -46
-17 -47 -16 -47 21 0 35 19 59 75 92 17 10 48 41 70 69 54 68 126 116 174 116
33 -1 149 -35 179 -53 22 -15 12 -27 -18 -21 -54 11 -63 0 -33 -46 15 -22 37
-43 49 -46 25 -6 74 21 74 42 0 7 9 18 20 24 11 6 20 18 20 26 0 8 5 12 11 8
6 -3 23 5 37 19 15 13 43 30 64 36 20 7 39 18 41 26 4 9 17 12 45 8 54 -7 59
9 15 51 -21 19 -35 38 -31 41 9 9 96 -73 114 -107 20 -38 44 -37 44 3 0 24
-11 42 -43 75 -30 29 -39 45 -30 48 18 7 16 21 -4 42 -18 18 -20 21 -29 72 -6
30 -4 32 20 32 15 0 40 -7 56 -15 25 -13 33 -13 63 0 20 8 38 19 42 25 9 14
10 14 83 -27z m-1694 -95 c-38 -40 -73 -72 -80 -70 -6 1 -23 -9 -39 -23 -15
-15 -29 -24 -32 -21 -10 10 20 48 57 71 21 13 47 34 58 45 25 27 83 70 95 70
5 0 -21 -33 -59 -72z m-269 -203 c-26 -39 -32 -65 -15 -65 6 0 2 -17 -8 -37
-11 -21 -27 -62 -37 -91 -21 -65 -57 -92 -114 -85 -54 7 -67 -13 -74 -121 -2
-27 -27 -52 -27 -27 0 26 -42 7 -79 -36 -23 -27 -41 -43 -41 -36 0 29 132 239
209 331 58 69 203 214 208 208 2 -2 -7 -21 -22 -41z m1395 -70 c0 -11 -42 -25
-53 -18 -8 5 -2 10 18 14 17 4 31 7 33 8 1 0 2 -1 2 -4z m-250 -54 c-5 -11
-15 -23 -20 -26 -6 -3 -10 -24 -10 -45 0 -28 6 -43 22 -54 25 -17 36 -71 13
-62 -16 6 -45 -30 -45 -56 0 -9 -4 -19 -9 -23 -16 -9 -160 -15 -165 -6 -3 4
-2 21 3 37 7 27 8 27 13 6 15 -56 75 -35 113 39 20 42 25 61 20 91 -6 34 -3
43 27 77 36 42 55 53 38 22z m4115 -81 c33 -6 68 -13 78 -16 16 -5 17 -26 15
-312 l-3 -307 -142 -3 c-131 -2 -169 -10 -127 -26 9 -3 67 -6 130 -6 l115 0
-323 -262 c-178 -144 -383 -311 -456 -369 l-133 -107 -734 0 -734 0 7 46 c14
95 7 442 -11 537 -10 50 -21 105 -24 124 l-6 34 139 -4 c263 -7 496 0 492 14
-4 9 -81 13 -322 17 l-318 5 -34 105 c-37 113 -111 275 -170 371 -20 33 -34
62 -31 65 2 2 42 12 88 20 64 13 120 15 234 11 251 -9 379 -54 750 -264 77
-43 185 -100 240 -126 123 -57 293 -119 306 -112 16 10 10 23 -13 30 -123 35
-459 187 -445 201 2 2 69 17 150 34 277 56 406 97 602 193 137 67 244 102 370
121 46 7 243 -2 310 -14z m-882 -65 c64 -21 117 -42 117 -45 0 -10 -141 -64
-255 -98 -55 -16 -182 -46 -282 -66 l-182 -37 -101 57 c-55 31 -99 58 -98 59
11 11 297 127 353 144 105 30 102 30 220 27 96 -2 125 -7 228 -41z m-3718 -56
c-3 -9 0 -29 6 -45 18 -45 28 -95 22 -110 -3 -8 -19 -14 -39 -14 -29 0 -34 3
-34 24 0 13 7 26 15 30 17 6 21 61 5 71 -13 8 -13 41 1 67 9 17 13 18 20 7 5
-8 6 -21 4 -30z m-800 -67 c-12 -13 -24 22 -12 37 10 12 13 11 15 -8 2 -13 1
-26 -3 -29z m715 0 c0 -16 -32 -52 -46 -52 -18 0 -18 10 2 38 14 21 44 31 44
14z m40 -12 c0 -5 -5 -10 -11 -10 -5 0 -7 5 -4 10 3 6 8 10 11 10 2 0 4 -4 4
-10z m880 -260 c0 -5 -4 -10 -10 -10 -5 0 -10 5 -10 10 0 6 5 10 10 10 6 0 10
-4 10 -10z m-106 -35 c18 -27 45 -32 77 -14 17 8 31 5 75 -18 30 -15 54 -34
54 -40 0 -20 -44 -26 -104 -13 -49 10 -60 9 -103 -10 -41 -18 -49 -19 -61 -6
-13 13 -12 22 8 70 12 31 26 56 30 56 4 0 15 -11 24 -25z m-309 -126 c4 -11 5
-22 3 -24 -7 -8 -128 107 -128 121 0 19 117 -71 125 -97z m-192 27 c20 -25 51
-53 67 -63 40 -23 40 -53 1 -53 -36 0 -48 -15 -30 -37 29 -34 52 -32 86 6 18
20 32 42 33 49 0 6 6 12 14 12 8 0 16 6 19 13 2 7 12 -2 23 -21 61 -107 67
-111 103 -61 20 27 22 35 12 57 -10 20 -9 27 1 33 19 13 39 11 36 -3 -1 -7 4
-30 11 -51 15 -43 56 -70 104 -66 59 4 71 1 58 -15 -9 -11 -9 -16 0 -22 7 -4
21 3 35 19 13 15 26 27 29 27 10 0 5 -61 -9 -94 -14 -33 -14 -33 -97 -39 -80
-7 -103 -4 -193 23 -48 14 -82 2 -96 -36 -12 -30 -31 -27 -98 17 -24 15 -57
31 -73 34 -37 8 -44 20 -40 69 2 24 -2 42 -11 47 -18 12 -151 10 -213 -2 -87
-17 -152 -22 -159 -11 -3 5 13 12 37 15 43 6 97 51 97 82 0 8 13 21 29 30 16
8 38 26 49 40 14 18 30 25 53 25 19 0 41 5 49 10 25 16 34 12 73 -34z m4467
-230 l0 -125 -177 -141 c-97 -78 -231 -178 -297 -223 -66 -44 -164 -112 -217
-152 -91 -68 -209 -145 -223 -145 -3 0 -6 40 -6 89 l0 88 451 367 c248 201
455 366 460 366 5 0 9 -56 9 -124z m0 -265 l0 -88 -67 -52 c-38 -28 -111 -87
-163 -132 -52 -44 -156 -122 -230 -172 -74 -50 -165 -115 -202 -144 -109 -86
-241 -183 -250 -183 -4 0 -8 47 -8 105 l0 104 72 43 c40 24 116 75 168 113 52
39 151 109 220 155 69 47 196 142 284 212 87 71 162 128 167 128 5 0 9 -40 9
-89z m-2420 -123 c0 -19 -3 -38 -7 -41 -9 -9 -33 61 -33 97 l0 29 20 -26 c11
-14 20 -40 20 -59z m-3500 -70 c6 -29 23 -70 38 -92 46 -66 64 -107 69 -162 6
-58 -3 -48 204 -234 l61 -55 -7 -60 c-10 -103 -9 -168 5 -233 13 -61 13 -63
-9 -79 -19 -13 -22 -22 -17 -51 5 -35 5 -36 -14 -16 -10 10 -52 71 -93 135
-159 250 -258 556 -274 844 -5 94 -4 99 11 78 9 -12 21 -46 26 -75z m5920 25
c0 -35 -6 -42 -63 -86 -34 -26 -99 -80 -143 -120 -45 -40 -151 -121 -235 -179
-85 -59 -177 -126 -206 -150 -215 -180 -262 -218 -267 -218 -3 0 -6 24 -6 54
0 53 0 53 53 88 28 19 104 76 168 126 64 50 175 130 245 178 152 103 167 114
320 244 64 55 121 100 126 100 4 0 8 -17 8 -37z m-2440 -93 l-8 -35 -1 30 c-1
17 -4 41 -7 55 -6 24 -6 25 9 5 11 -16 13 -30 7 -55z m2438 -287 l-3 -298
-350 -293 c-192 -161 -394 -329 -448 -375 -55 -45 -103 -83 -108 -85 -5 -2 -9
129 -9 316 l0 320 48 34 c26 19 100 80 165 136 65 55 175 140 244 189 168 117
261 189 363 278 46 41 88 75 92 75 5 0 7 -134 6 -297z m-2469 221 c17 -28 20
-44 14 -77 l-7 -42 -18 70 c-25 100 -24 108 11 49z m1308 -24 l213 0 0 -96 0
-96 -207 5 c-115 3 -274 10 -355 17 -108 8 -196 8 -335 0 -103 -6 -282 -13
-397 -17 -201 -6 -208 -5 -203 13 3 10 11 46 17 79 6 33 14 68 16 77 5 16 30
18 282 21 152 2 385 2 516 0 132 -1 335 -3 453 -3z m-272 -205 c110 -8 264
-15 343 -15 l142 0 0 -111 0 -112 -112 7 c-62 4 -171 11 -243 16 -92 6 -206 4
-390 -7 -250 -14 -540 -12 -756 6 l-75 6 34 96 34 96 231 8 c128 4 288 11 357
14 198 12 224 11 435 -4z m280 -256 c50 -5 116 -9 148 -9 l57 0 0 -59 0 -59
-197 -7 c-109 -4 -335 -4 -503 1 -168 5 -453 7 -633 5 l-329 -4 37 73 37 73
151 -9 c190 -11 577 -9 762 4 144 10 312 7 470 -9z m-1153 -303 c37 -18 86
-78 68 -84 -6 -2 -24 12 -42 31 -25 26 -47 38 -91 47 -32 8 -61 18 -64 23 -10
16 87 3 129 -17z m-210 -76 c29 -8 76 -51 222 -205 102 -106 186 -196 186
-199 0 -25 -50 20 -209 189 l-184 195 -78 0 c-111 0 -115 23 -4 28 17 1 47 -3
67 -8z m278 -45 c0 -12 -114 -55 -122 -47 -5 5 13 18 44 29 55 22 78 27 78 18z
m109 -133 c29 -51 50 -96 47 -99 -10 -10 -20 4 -81 110 -31 53 -53 102 -49
108 7 13 14 3 83 -119z m-60 -1 c28 -49 51 -91 51 -95 0 -3 -11 -6 -24 -6 -17
0 -44 22 -96 80 l-72 79 34 15 c18 8 38 15 44 15 6 1 35 -39 63 -88z m428 -27
c-3 -3 -12 -4 -19 -1 -8 3 -5 6 6 6 11 1 17 -2 13 -5z m403 -50 c0 -14 -4 -23
-10 -19 -5 3 -10 15 -10 26 0 10 5 19 10 19 6 0 10 -12 10 -26z m-245 -15 c61
-12 155 -27 210 -33 77 -8 100 -14 100 -26 0 -22 -135 -15 -319 16 -243 42
-317 29 -361 -64 -21 -42 -41 -53 -51 -27 -17 44 43 126 111 151 51 19 163 13
310 -17z m-425 -38 c0 -13 -85 -25 -107 -16 -15 7 -13 9 12 15 45 11 95 11 95
1z m284 -42 c9 -47 7 -89 -4 -89 -13 0 -17 11 -25 73 -5 37 -3 47 8 47 8 0 17
-14 21 -31z m-314 -24 c0 -30 -10 -32 -33 -5 -22 27 -22 30 8 30 20 0 25 -5
25 -25z m718 -38 c5 -37 -15 -34 -20 3 -3 19 -1 29 6 27 6 -2 12 -16 14 -30z
m-659 -38 c44 -9 51 -14 64 -48 9 -21 28 -52 43 -70 14 -17 25 -33 23 -35 -2
-2 -44 -8 -94 -14 l-90 -10 -100 48 c-112 53 -145 81 -129 108 6 9 22 20 35
23 39 11 194 10 248 -2z m671 -94 c7 -42 6 -47 -5 -32 -16 23 -29 103 -18 119
5 9 9 5 11 -12 2 -14 7 -47 12 -75z m-360 16 c11 -29 24 -59 31 -67 7 -9 8
-14 1 -14 -16 0 -79 78 -91 112 -10 28 -9 29 15 26 21 -2 29 -13 44 -57z m439
-17 c41 -52 12 -127 -55 -140 -46 -9 -94 35 -94 84 0 60 14 68 35 23 19 -42
35 -54 61 -44 15 6 14 45 -3 89 -9 25 34 16 56 -12z m-555 -103 l30 -20 -25
-5 c-25 -5 -223 -25 -226 -22 0 0 -3 10 -5 21 -3 18 5 21 87 31 50 6 95 12
100 13 6 0 23 -8 39 -18z"/>
<path d="M3366 4345 c-87 -22 -126 -46 -126 -80 0 -6 -27 -33 -59 -59 -33 -27
-62 -54 -65 -62 -3 -7 -22 -22 -43 -33 -68 -34 -169 -157 -173 -211 -7 -79 22
-81 110 -5 36 29 76 57 90 60 14 3 54 14 90 25 36 11 82 22 103 25 38 6 73 32
210 156 34 31 81 66 105 78 40 21 53 43 32 56 -6 4 -8 10 -5 15 31 50 -125 71
-269 35z m221 -20 c7 -3 10 -11 6 -21 -3 -9 0 -20 8 -24 10 -7 7 -11 -14 -19
-15 -6 -56 -36 -91 -68 -146 -132 -173 -151 -233 -163 -137 -28 -203 -55 -275
-114 -51 -41 -58 -44 -58 -26 0 47 84 156 144 187 48 25 187 155 201 188 12
27 22 32 100 51 78 18 170 22 212 9z"/>
<path d="M3835 4255 c-5 -2 -22 -6 -37 -9 -19 -5 -28 -13 -28 -27 0 -28 28
-79 44 -79 14 0 96 85 96 100 0 15 -46 25 -75 15z m5 -42 c0 -5 -5 -15 -10
-23 -9 -13 -11 -13 -20 0 -15 22 -12 30 10 30 11 0 20 -3 20 -7z"/>
<path d="M4206 4197 c-53 -70 -16 -167 64 -167 29 0 34 19 12 43 -28 32 -31
48 -16 86 29 70 -15 97 -60 38z m29 -66 c0 -63 -10 -72 -21 -17 -5 27 7 76 19
76 1 0 2 -27 2 -59z"/>
<path d="M3222 3920 c-14 -39 -2 -67 33 -76 28 -7 88 11 106 32 18 22 -4 64
-33 64 -13 0 -39 3 -59 6 -34 6 -37 4 -47 -26z m84 -10 c35 0 30 -26 -7 -34
-38 -7 -49 -1 -49 26 0 14 5 18 16 14 9 -3 27 -6 40 -6z"/>
<path d="M4593 1627 c-28 -28 -65 -64 -82 -79 -23 -20 -31 -35 -31 -61 0 -19
-7 -48 -15 -63 -20 -40 -19 -70 5 -94 52 -52 100 -8 170 150 50 115 52 123 41
161 -7 21 -17 39 -24 39 -7 0 -35 -24 -64 -53z m55 -49 c-8 -18 -30 -68 -49
-111 -40 -90 -57 -114 -84 -119 -27 -4 -32 41 -11 87 9 18 16 47 16 64 0 26 6
34 39 51 22 11 49 33 61 51 30 41 49 25 28 -23z"/>
<path d="M4509 3363 c-15 -9 -34 -29 -43 -44 -15 -25 -15 -32 -3 -61 8 -18 31
-49 51 -68 28 -27 35 -40 31 -58 -9 -35 3 -60 35 -77 36 -19 71 -19 95 -1 18
13 19 18 6 58 -7 23 -13 55 -12 71 0 21 -8 33 -37 51 -21 13 -43 30 -50 39
-11 13 -10 17 7 27 23 12 28 49 9 68 -17 17 -58 15 -89 -5z m71 -21 c0 -5 -9
-17 -20 -27 -29 -26 -25 -38 23 -82 25 -23 41 -46 39 -56 -2 -9 6 -29 17 -43
12 -15 21 -32 21 -39 0 -20 -30 -26 -58 -12 -22 10 -27 19 -27 48 0 27 -9 46
-37 77 -61 67 -64 78 -29 112 27 28 71 41 71 22z"/>
<path d="M7547 3373 c-8 -10 -18 -30 -22 -45 -4 -17 -15 -28 -28 -30 -19 -3
-22 -10 -22 -46 0 -37 -3 -42 -23 -42 -31 0 -46 -41 -31 -87 10 -31 9 -36 -10
-49 -12 -9 -21 -22 -21 -29 0 -28 56 -76 115 -98 50 -19 60 -27 63 -50 3 -22
-3 -29 -33 -41 -45 -19 -39 -39 8 -25 17 5 49 7 71 3 30 -5 37 -3 34 7 -3 8
-14 15 -26 17 -17 3 -22 10 -22 33 0 39 26 63 94 84 80 25 111 76 66 108 -17
12 -18 18 -8 44 17 45 3 82 -32 89 -25 5 -29 11 -32 43 -2 29 -8 37 -25 39
-15 2 -25 13 -29 30 -8 34 -32 62 -54 62 -9 0 -24 -8 -33 -17z m51 -20 c5 -10
12 -35 16 -55 7 -37 19 -48 31 -28 14 23 26 -4 20 -43 l-7 -40 30 6 c20 4 34
1 42 -7 13 -17 4 -60 -16 -77 -20 -16 -17 -39 5 -39 10 0 24 -6 30 -14 16 -19
-22 -49 -84 -66 -25 -7 -48 -17 -51 -21 -3 -5 -10 -9 -16 -9 -18 0 14 30 54
51 21 11 38 24 38 29 0 15 -9 12 -58 -16 l-45 -26 7 28 c4 16 26 46 51 68 25
21 45 45 45 54 0 13 -3 13 -19 -2 -15 -13 -20 -14 -24 -4 -4 9 -6 8 -6 -3 -1
-9 -10 -24 -21 -34 -19 -18 -20 -17 -20 4 0 12 7 38 15 58 21 49 18 63 -5 33
l-20 -25 0 53 c0 28 -4 52 -10 52 -5 0 -10 -17 -10 -37 -1 -34 -2 -36 -14 -20
-26 34 -36 16 -11 -22 22 -32 26 -48 23 -97 l-3 -59 -17 32 c-10 18 -18 41
-18 53 0 11 -4 20 -10 20 -5 0 -10 -8 -10 -17 0 -15 -2 -14 -14 3 -8 10 -18
16 -22 12 -8 -9 10 -37 60 -93 20 -22 36 -48 36 -57 0 -15 -5 -14 -36 7 -33
22 -74 33 -74 20 0 -2 17 -13 38 -24 21 -11 44 -26 50 -34 11 -12 6 -12 -33 0
-77 26 -128 93 -70 93 29 0 30 6 9 48 -8 18 -14 42 -12 54 3 19 8 23 37 20 31
-2 33 -1 26 20 -4 13 -9 36 -12 51 -5 26 -3 27 20 22 22 -6 26 -3 32 27 9 41
23 68 35 68 5 0 13 -8 18 -17z"/>
<path d="M7212 3281 c-7 -21 -12 -57 -12 -80 0 -22 -2 -41 -5 -41 -3 0 -16 12
-29 27 -31 36 -50 23 -42 -28 6 -39 -1 -48 -21 -28 -7 7 -19 9 -27 6 -33 -13
-12 -76 49 -152 31 -39 70 -105 63 -108 -47 -23 -68 -56 -27 -41 23 9 97 10
129 2 29 -6 24 17 -6 27 -16 5 -30 10 -32 11 -2 1 22 52 53 113 32 62 55 121
53 134 -4 29 -35 34 -62 8 l-21 -20 3 75 c5 82 -10 134 -38 134 -11 0 -21 -13
-28 -39z m37 -156 c-19 -146 -29 -144 -26 5 3 144 15 195 30 125 5 -24 3 -76
-4 -130z m-60 -60 l-1 -40 -18 50 c-10 28 -19 61 -19 75 0 23 1 22 19 -10 11
-19 19 -53 19 -75z m101 -42 c-40 -78 -40 -78 -34 -33 7 52 18 75 48 108 35
39 29 8 -14 -75z m-168 60 c27 -29 68 -104 68 -124 0 -16 -68 68 -91 113 -23
45 -13 49 23 11z"/>
<path d="M6388 3182 c-58 -65 -68 -159 -25 -215 19 -25 27 -47 26 -74 l0 -38
-13 47 c-23 85 -56 115 -144 131 -43 9 -48 -6 -28 -77 18 -63 48 -91 113 -109
38 -10 45 -16 55 -50 13 -42 13 -42 -39 -73 -27 -17 -7 -29 23 -14 14 8 51 14
82 13 52 -1 55 0 38 13 -11 8 -28 14 -39 14 -13 0 -17 5 -13 18 3 9 8 29 11
43 5 22 14 28 45 33 72 11 130 83 130 161 0 30 -3 35 -22 35 -87 0 -146 -50
-157 -134 -10 -71 -21 -84 -21 -23 0 34 8 59 30 94 36 56 39 106 11 162 -28
54 -44 65 -63 43z m43 -67 c22 -49 19 -94 -7 -116 -12 -10 -14 -4 -14 35 0 29
-4 45 -10 41 -5 -3 -10 -27 -10 -53 0 -56 -19 -46 -27 15 -4 29 1 51 16 81 12
23 24 42 27 42 3 0 14 -20 25 -45z m149 -126 c0 -42 -33 -94 -70 -109 -43 -18
-46 -8 -11 33 37 42 29 58 -11 20 -20 -19 -28 -23 -28 -11 0 24 40 69 74 84
44 19 46 18 46 -17z m-313 10 c38 -14 73 -48 73 -72 0 -17 -2 -17 -21 7 -11
14 -27 26 -36 26 -10 0 -3 -14 22 -42 39 -46 34 -58 -15 -33 -35 18 -70 69
-70 103 0 25 7 27 47 11z"/>
<path d="M6820 3165 c-5 -14 -10 -31 -10 -36 0 -5 -11 -9 -25 -9 -22 0 -25 -4
-25 -32 0 -18 11 -51 25 -73 19 -32 24 -53 24 -105 0 -61 -1 -64 -14 -40 -8
14 -14 46 -15 71 0 49 -17 73 -43 63 -8 -3 -18 -1 -22 5 -3 6 -17 11 -31 11
-19 0 -24 -5 -24 -24 0 -14 4 -28 10 -31 6 -4 5 -13 -2 -25 -17 -26 4 -48 57
-61 36 -9 46 -18 65 -55 28 -53 46 -56 66 -9 11 26 27 40 68 60 56 27 74 49
56 70 -7 8 -7 21 -1 38 15 40 -10 55 -45 28 -15 -12 -33 -21 -40 -21 -19 0
-44 -53 -44 -94 0 -19 -5 -38 -12 -42 -8 -5 -9 4 -5 32 4 21 7 47 7 56 0 10
15 35 34 55 61 69 69 99 32 113 -18 7 -26 18 -28 42 -2 25 -8 34 -25 36 -17 3
-26 -3 -33 -23z m40 -47 c0 -35 2 -40 20 -35 29 8 24 -12 -14 -56 -36 -41 -39
-40 -70 20 -21 41 -21 60 -1 43 21 -17 31 -6 39 40 8 51 26 43 26 -12z m90
-148 c-8 -16 -9 -25 0 -35 9 -11 5 -17 -19 -29 -41 -22 -51 -20 -51 8 0 35 10
55 24 50 7 -3 21 4 31 16 22 25 31 19 15 -10z m-205 0 c13 11 15 7 15 -29 0
-44 -12 -51 -52 -30 -17 9 -18 13 -7 20 11 7 12 12 2 29 -19 29 -16 36 7 15
16 -15 22 -15 35 -5z"/>
<path d="M6520 3095 c0 -12 16 -15 96 -15 72 0 95 3 92 13 -3 8 -34 13 -96 15
-77 2 -92 0 -92 -13z"/>
<path d="M6024 2987 c-29 -15 -44 -38 -44 -67 0 -31 -40 -74 -48 -52 -2 7 -14
25 -27 40 -20 23 -27 25 -51 17 -41 -15 -51 -52 -32 -112 l15 -48 -33 -14
c-62 -24 -56 -96 11 -128 24 -12 35 -23 35 -39 0 -27 15 -40 57 -48 21 -5 43
-22 65 -51 18 -24 41 -48 51 -54 23 -15 53 1 62 31 9 28 44 68 60 68 20 0 55
40 55 62 0 12 15 36 34 53 31 28 34 35 35 93 0 55 -2 64 -24 78 -34 22 -78 4
-96 -39 l-13 -31 -7 33 c-4 19 -2 45 3 57 8 18 7 29 -6 48 -9 14 -16 33 -16
43 0 45 -50 80 -86 60z m57 -59 c3 -20 10 -43 16 -50 14 -18 10 -128 -6 -157
-7 -13 -11 -35 -8 -50 3 -14 -3 -46 -12 -70 l-18 -44 -7 44 c-4 24 -4 103 -1
174 4 90 3 125 -4 114 -6 -9 -13 -77 -17 -152 -7 -127 -8 -135 -21 -109 -8 15
-12 39 -9 54 3 17 -3 46 -14 74 -25 58 -25 90 0 104 13 7 20 21 20 38 0 38 27
74 53 70 16 -2 23 -12 28 -40z m-176 -60 c7 -18 17 -36 21 -40 10 -10 43 -109
43 -128 0 -8 -13 13 -28 46 -16 34 -34 64 -40 68 -14 9 -14 6 5 -39 18 -44 13
-52 -21 -37 -17 8 -25 20 -25 36 0 14 -7 41 -17 60 -13 29 -14 38 -3 51 21 26
50 18 65 -17z m337 -128 c-3 -47 -8 -59 -35 -82 -20 -18 -31 -37 -32 -55 0
-22 -9 -33 -43 -51 l-43 -24 29 58 c17 33 42 74 56 93 14 19 26 39 26 44 0 15
-38 -23 -63 -62 l-22 -36 -6 30 c-7 40 -3 50 27 63 13 7 24 17 24 25 0 28 32
58 58 55 26 -3 27 -5 24 -58z m-334 -37 c27 -14 45 -35 74 -88 43 -80 51 -117
12 -59 -35 53 -73 91 -112 116 -52 32 -47 16 8 -31 46 -39 120 -134 120 -154
0 -4 -17 10 -38 33 -22 22 -48 40 -58 40 -27 0 -44 19 -44 47 0 14 -6 23 -16
23 -8 0 -29 13 -45 30 -26 25 -28 32 -19 51 10 17 18 20 47 16 19 -3 51 -14
71 -24z"/>
<path d="M7008 2846 c-9 -10 -19 -11 -35 -3 -27 12 -53 -5 -53 -36 0 -20 -40
-65 -63 -68 -6 -1 -20 1 -29 5 -36 16 -53 3 -53 -41 0 -23 -3 -45 -7 -49 -14
-13 -9 -34 12 -51 11 -10 20 -28 20 -40 0 -17 7 -24 28 -29 44 -9 52 -13 51
-21 -4 -22 4 -34 31 -48 l31 -16 -23 -19 c-31 -25 -15 -38 21 -17 34 20 64 22
93 6 13 -7 23 -8 30 -1 7 7 3 14 -12 22 -22 12 -21 13 17 30 23 10 42 27 46
39 3 14 13 21 29 21 34 0 68 27 68 54 0 13 7 29 15 36 19 16 19 64 1 79 -8 7
-27 11 -43 10 -15 -1 -40 -1 -55 -1 -25 2 -26 5 -21 37 4 26 2 36 -11 41 -9 3
-16 14 -16 24 0 48 -42 69 -72 36z m47 -42 c1 -19 6 -30 18 -32 19 -4 23 -27
6 -38 -6 -3 -9 -18 -6 -33 4 -21 1 -29 -16 -36 -14 -7 -23 -21 -25 -40 -4 -32
-18 -55 -34 -55 -5 0 -7 15 -4 33 3 17 8 64 11 102 5 55 4 67 -5 58 -7 -6 -15
-51 -18 -102 -3 -55 -9 -88 -14 -84 -6 3 -8 22 -4 42 6 40 1 53 -30 69 -30 16
-38 53 -13 59 14 4 19 14 19 37 0 42 9 50 32 29 18 -16 20 -15 41 5 27 28 42
23 42 -14z m-225 -89 c7 -9 21 -13 35 -9 17 4 24 0 28 -16 3 -12 15 -24 27
-27 19 -5 21 -11 16 -41 -3 -19 -1 -44 5 -54 22 -41 1 -25 -37 27 -21 30 -45
55 -52 55 -7 0 5 -24 27 -52 41 -56 76 -118 66 -118 -19 0 -45 23 -45 40 0 13
-9 22 -27 26 -51 11 -54 13 -48 37 5 19 1 26 -22 36 -27 12 -27 13 -9 27 17
12 18 17 8 39 -7 14 -12 30 -12 35 0 15 26 12 40 -5z m353 -38 c45 7 50 -11
12 -47 -18 -17 -22 -27 -15 -40 7 -13 4 -20 -16 -29 -14 -6 -34 -11 -45 -11
-12 0 -23 -10 -29 -25 -5 -14 -21 -30 -35 -35 -37 -14 -37 -13 -21 18 15 29
78 91 112 110 10 6 16 14 12 18 -11 10 -86 -45 -116 -86 -37 -51 -42 -56 -42
-43 0 5 11 27 25 47 14 20 25 48 25 61 0 18 6 25 19 25 10 0 26 12 36 26 12
18 20 23 29 15 7 -6 29 -8 49 -4z"/>
<path d="M6560 2735 c-7 -8 -15 -36 -18 -61 -4 -37 -8 -44 -21 -38 -9 4 -28 9
-43 12 -24 4 -28 1 -28 -19 0 -34 34 -86 69 -104 17 -8 35 -24 41 -34 8 -17 4
-22 -28 -38 -20 -10 -35 -22 -32 -28 3 -5 10 -8 15 -6 34 13 75 16 109 9 21
-5 41 -6 45 -3 9 9 -29 35 -51 35 -34 0 -20 39 27 72 37 26 75 84 75 113 0 10
-69 5 -75 -5 -11 -19 -25 -10 -25 15 0 32 -26 95 -38 95 -5 0 -15 -7 -22 -15z
m30 -101 c0 -69 -14 -86 -24 -29 -8 41 2 107 15 99 5 -3 9 -34 9 -70z m-79
-24 c19 -11 54 -68 46 -77 -8 -7 -77 58 -77 73 0 17 5 17 31 4z m169 2 c0 -10
-18 -32 -47 -56 -19 -16 -23 -16 -23 -4 0 21 38 68 56 68 8 0 14 -4 14 -8z"/>
<path d="M3577 3173 c-10 -17 -18 -111 -10 -116 23 -15 41 44 34 111 -1 13
-17 16 -24 5z"/>
<path d="M3942 2948 c3 -7 22 -14 42 -16 28 -2 37 0 34 10 -3 7 -22 14 -42 16
-28 2 -37 0 -34 -10z"/>
<path d="M5120 4475 c0 -12 16 -15 80 -15 64 0 80 3 80 15 0 12 -16 15 -80 15
-64 0 -80 -3 -80 -15z"/>
<path d="M5982 4482 c-98 -4 -83 -22 19 -22 58 0 80 3 77 12 -5 14 -6 15 -96
10z"/>
<path d="M5238 4289 c-66 -39 -84 -59 -52 -59 16 0 97 44 126 68 16 14 16 33
0 32 -4 -1 -37 -19 -74 -41z"/>
<path d="M5875 4311 c-6 -10 25 -34 93 -71 30 -17 45 -21 53 -13 8 8 -8 22
-58 52 -74 44 -79 46 -88 32z"/>
<path d="M5385 4137 c-37 -67 -43 -91 -23 -85 12 4 86 124 87 141 1 4 -6 7
-14 7 -7 0 -30 -29 -50 -63z"/>
<path d="M5750 4190 c0 -15 71 -140 79 -140 21 0 17 19 -16 82 -21 37 -43 68
-50 68 -7 0 -13 -4 -13 -10z"/>
<path d="M5585 4148 c-10 -24 -1 -163 10 -163 13 0 19 155 6 168 -7 7 -12 5
-16 -5z"/>
</g>
</svg>
