<?xml version="1.0" standalone="no"?>
<!DOCTYPE svg PUBLIC "-//W3C//DTD SVG 20010904//EN"
 "http://www.w3.org/TR/2001/REC-SVG-20010904/DTD/svg10.dtd">
<svg version="1.0" xmlns="http://www.w3.org/2000/svg"
 width="1024.000000pt" height="559.000000pt" viewBox="0 0 1024.000000 559.000000"
 preserveAspectRatio="xMidYMid meet">
<metadata>
Created by potrace 1.16, written by Peter Selinger 2001-2019
</metadata>
<g transform="translate(0.000000,559.000000) scale(0.100000,-0.100000)"
fill="#000000" stroke="none">
<path d="M5002 4949 c-37 -24 -57 -57 -67 -112 -4 -20 -10 -37 -14 -37 -16 1
-26 18 -28 52 -2 39 -18 78 -33 78 -14 0 -60 -53 -66 -77 -5 -20 -7 -20 -33
-5 -15 8 -35 13 -44 9 -21 -8 -32 -71 -19 -113 10 -34 10 -34 -23 -34 -59 0
-79 -38 -49 -95 14 -27 14 -30 -2 -42 -9 -6 -29 -10 -44 -7 -24 5 -29 2 -38
-25 -10 -28 -13 -30 -31 -19 -17 10 -23 9 -40 -6 -21 -19 -21 -19 -21 33 0 56
-19 105 -45 115 -10 3 -25 -4 -40 -20 -25 -27 -38 -20 -35 19 5 62 1 77 -25
77 -27 0 -95 -54 -95 -76 0 -19 -4 -18 -39 15 -54 51 -111 43 -97 -13 5 -19 1
-25 -18 -30 -24 -6 -46 -48 -46 -88 0 -15 -3 -17 -19 -8 -11 5 -31 10 -45 10
-22 0 -26 -5 -26 -28 0 -15 9 -44 19 -65 19 -36 19 -37 -1 -37 -43 0 -120 -53
-111 -76 8 -21 57 -44 95 -44 29 0 35 -5 52 -43 11 -23 21 -44 23 -48 2 -3 -9
-10 -24 -15 -25 -9 -32 -6 -66 23 -46 41 -62 41 -83 1 -21 -42 -18 -40 -38
-32 -11 4 -16 18 -16 45 0 28 -8 47 -28 70 l-29 32 -21 -35 c-12 -20 -22 -43
-22 -52 0 -20 -1 -20 -44 0 -48 24 -66 14 -66 -36 0 -23 4 -49 9 -59 8 -15 4
-21 -23 -33 -26 -13 -41 -14 -73 -5 -72 19 -92 -7 -53 -71 20 -32 74 -72 98
-72 23 0 12 18 -19 30 -27 12 -69 61 -69 83 0 4 12 7 26 7 26 0 77 -43 100
-85 20 -36 23 1 3 39 -24 44 -18 56 25 56 45 0 48 6 20 47 -25 37 -32 83 -14
83 30 0 70 -34 90 -75 23 -47 37 -49 70 -11 15 19 46 21 56 4 9 -14 34 18 34
43 0 34 23 32 57 -5 l34 -37 46 16 c26 9 50 18 54 21 4 2 -5 30 -22 60 -16 31
-29 63 -29 70 0 11 -8 13 -33 9 -38 -7 -87 9 -87 28 0 21 45 37 100 37 59 0
62 9 20 57 -16 18 -30 45 -30 59 0 24 0 24 33 8 17 -9 36 -23 40 -30 4 -8 14
-14 22 -14 12 0 12 6 -1 36 -12 28 -13 43 -4 70 14 42 28 43 68 4 30 -28 52
-38 52 -24 0 4 -13 22 -30 41 -29 32 -42 93 -21 93 18 0 71 -52 71 -69 0 -9 6
-26 14 -37 14 -18 15 -18 21 11 12 57 34 94 66 111 l32 16 -6 -49 c-4 -40 -2
-52 16 -71 l22 -23 26 32 27 33 17 -34 c17 -32 16 -75 -1 -137 -9 -31 10 -30
48 3 l31 25 28 -27 c31 -29 35 -26 41 30 2 16 8 31 15 33 13 5 44 -23 61 -53
6 -10 14 -16 18 -12 8 9 -15 68 -27 68 -5 0 -9 5 -9 10 0 6 14 10 30 10 35 0
38 12 10 47 -29 37 -26 71 6 79 14 4 37 1 50 -5 49 -22 58 -7 24 36 -25 32
-28 113 -5 113 24 0 65 -46 71 -80 8 -38 17 -38 44 0 23 33 59 40 80 15 19
-23 30 -8 30 41 0 53 19 95 54 118 36 23 44 20 63 -19 20 -42 29 -44 45 -10 6
14 17 25 24 25 21 0 52 -48 59 -90 9 -51 21 -51 35 -1 12 47 35 70 44 45 9
-25 7 -72 -4 -79 -5 -3 -10 -16 -10 -28 0 -19 3 -18 33 11 39 38 89 45 80 12
-3 -11 -19 -31 -36 -44 l-31 -24 33 -28 c31 -25 33 -31 27 -71 -3 -24 -2 -43
3 -43 5 0 21 16 35 35 30 39 55 45 74 15 7 -11 19 -20 28 -20 13 0 15 8 10 38
-6 40 12 103 31 109 7 3 26 -15 42 -38 26 -35 32 -39 36 -23 14 47 52 109 67
112 12 2 19 -6 24 -33 6 -35 0 -58 -28 -97 -21 -29 0 -32 32 -4 30 25 80 36
80 17 0 -5 -11 -23 -25 -39 -31 -37 -31 -42 -1 -42 31 0 56 -10 56 -21 0 -6
-16 -19 -35 -30 -29 -17 -34 -26 -33 -54 1 -24 9 -39 29 -54 16 -12 32 -21 37
-21 5 0 17 -9 27 -20 17 -19 17 -20 -9 -30 -15 -5 -30 -10 -34 -10 -4 0 -15
-17 -24 -38 -10 -20 -23 -45 -30 -54 -20 -28 -3 -30 45 -7 52 25 77 20 77 -16
0 -37 16 -30 34 15 16 39 46 54 61 30 3 -5 13 -10 20 -10 18 0 15 94 -4 155
-10 31 -10 47 -1 70 l12 30 24 -28 c15 -18 24 -41 24 -62 0 -47 17 -52 34 -10
19 45 38 44 73 -5 31 -44 48 -50 58 -20 8 25 33 50 50 50 7 0 16 -11 19 -25
10 -40 26 -29 26 19 0 33 6 52 24 73 l24 28 12 -29 c12 -33 1 -77 -27 -108
-27 -30 -5 -34 26 -4 29 27 47 23 35 -8 -4 -11 -1 -16 10 -16 9 0 16 5 16 10
0 23 50 60 80 60 16 0 30 -5 30 -10 0 -23 -30 -66 -54 -80 -27 -14 -36 -42
-13 -39 32 4 57 -2 57 -14 0 -7 -13 -26 -30 -42 -16 -16 -30 -32 -30 -37 0
-12 42 -32 84 -37 56 -8 63 -25 47 -116 -7 -42 -10 -79 -7 -83 3 -3 16 4 29
15 30 27 61 43 86 43 22 0 29 -24 11 -35 -5 -3 -10 -13 -10 -22 0 -12 7 -14
35 -10 42 7 44 -1 10 -41 -22 -26 -32 -52 -21 -52 2 0 17 7 32 15 33 17 62 19
83 6 34 -22 -52 -76 -105 -68 -52 9 -51 -11 2 -33 46 -20 46 -21 29 -40 -10
-11 -36 -25 -57 -31 -45 -12 -45 -28 -2 -42 34 -11 76 -46 68 -58 -10 -16 -79
-9 -112 11 -18 11 -35 20 -38 20 -3 0 -2 -16 2 -37 l7 -36 -47 6 c-47 7 -58
-1 -31 -23 27 -23 17 -39 -31 -46 -25 -3 -61 -4 -79 -1 -51 8 -53 -10 -3 -23
71 -20 158 6 158 46 0 7 10 14 22 16 12 2 27 12 33 24 9 17 15 19 38 11 34
-11 91 -2 107 18 14 17 -4 48 -46 76 l-27 17 31 16 c43 22 57 50 36 70 -14 15
-13 17 8 25 28 10 78 59 78 75 0 21 -23 36 -57 36 -31 0 -33 2 -33 35 0 31 -3
35 -26 35 -23 0 -25 3 -19 29 5 25 3 29 -19 35 -14 3 -43 0 -64 -7 l-39 -14 2
75 c1 58 5 76 18 84 9 5 17 16 17 24 0 18 -58 54 -87 54 -17 0 -23 6 -23 21 0
12 -8 23 -20 26 -25 7 -25 7 0 41 11 15 23 41 26 58 5 27 3 33 -15 39 -29 9
-75 -2 -104 -25 -24 -19 -24 -19 -35 3 -6 12 -13 38 -17 58 -3 21 -12 43 -21
50 -12 10 -20 7 -44 -16 -16 -16 -32 -37 -36 -47 -10 -34 -47 -22 -66 22 -21
51 -45 61 -70 31 -10 -13 -18 -32 -18 -42 0 -12 -7 -19 -18 -19 -10 0 -23 -5
-28 -10 -8 -8 -24 2 -53 32 l-43 43 -20 -25 c-20 -25 -20 -37 -2 -172 6 -44 5
-46 -16 -41 -14 4 -29 -2 -44 -16 -16 -15 -26 -19 -31 -11 -4 6 -20 8 -41 4
-29 -5 -33 -4 -28 10 4 9 22 23 40 31 19 8 37 21 40 30 7 17 -31 65 -50 65
-21 1 -56 38 -56 59 0 12 4 21 9 21 14 0 61 51 61 67 0 7 -12 19 -27 25 -16 7
-29 13 -31 13 -1 1 4 18 13 37 12 31 13 38 0 48 -9 7 -26 9 -45 5 -28 -6 -30
-5 -30 25 0 35 -24 100 -38 100 -11 0 -67 -60 -81 -88 l-12 -23 -31 26 c-17
14 -35 24 -41 22 -17 -5 -47 -69 -47 -99 0 -25 -2 -27 -24 -17 -19 9 -29 8
-46 -4 -22 -15 -24 -14 -41 19 -17 35 -17 37 2 67 10 18 19 42 19 54 0 19 -6
22 -47 25 -39 2 -48 7 -51 23 -4 27 -24 65 -33 65 -5 0 -19 -12 -33 -26 l-24
-27 -15 29 c-8 17 -27 36 -41 44 -23 12 -29 12 -43 -3 -15 -15 -18 -14 -45 8
-35 30 -35 30 -76 4z m-132 -98 c0 -23 -8 -48 -19 -62 l-19 -24 -11 28 c-14
37 -14 36 9 75 25 40 40 34 40 -17z m1346 -322 c13 -26 13 -36 3 -60 -6 -17
-17 -28 -23 -26 -19 6 -30 65 -18 92 15 32 18 31 38 -6z m-2476 -265 c14 -36
12 -77 -4 -100 -15 -19 -15 -19 -30 1 -18 24 -20 65 -4 100 14 32 26 32 38 -1z
m2897 5 c36 -31 -71 -55 -112 -26 -17 13 -17 15 6 31 26 19 80 16 106 -5z"/>
<path d="M5007 4655 c-43 -42 -54 -88 -37 -149 12 -45 6 -106 -11 -106 -5 0
-9 23 -9 50 0 45 -4 55 -37 90 -21 22 -49 41 -63 42 -23 3 -25 -1 -28 -40 -4
-54 23 -100 77 -130 33 -19 41 -30 47 -60 3 -20 8 -46 11 -57 3 -13 -13 -1
-47 33 -49 49 -70 62 -70 44 0 -4 18 -26 41 -47 22 -22 55 -60 72 -85 30 -42
32 -51 32 -130 -1 -92 8 -66 -124 -354 -18 -37 -34 -66 -36 -64 -2 2 -9 34
-15 71 -10 64 -9 70 17 125 20 43 28 77 31 140 3 55 1 82 -7 82 -7 0 -11 -24
-11 -63 0 -35 -8 -86 -17 -113 l-17 -49 -13 33 c-9 23 -10 38 -3 52 26 49 4
130 -47 170 l-28 21 -18 -23 c-15 -18 -18 -34 -15 -77 4 -47 10 -59 42 -89 38
-34 56 -74 56 -121 l0 -25 -29 28 c-21 20 -43 30 -75 33 -43 5 -46 4 -46 -18
0 -58 68 -119 134 -119 22 0 26 -6 31 -44 8 -53 5 -94 -20 -240 -18 -104 -20
-108 -34 -87 -9 12 -44 58 -78 101 l-63 79 20 34 c11 19 21 51 22 71 2 49 -30
116 -54 116 -26 0 -61 -80 -56 -128 l4 -36 -38 43 c-52 60 -88 139 -88 197 l0
47 36 -6 c20 -3 49 -4 65 0 33 6 99 69 99 94 0 34 -77 40 -127 9 -18 -11 -33
-17 -33 -14 0 20 27 46 65 63 57 25 85 70 85 134 0 41 -3 47 -21 47 -32 0 -87
-38 -105 -71 -8 -16 -15 -46 -16 -67 0 -20 -16 -68 -34 -106 -19 -39 -34 -77
-34 -85 -1 -39 -19 18 -29 94 -7 44 -17 102 -22 128 -10 45 -9 52 19 105 34
65 54 129 42 137 -5 3 -16 -16 -25 -42 -9 -27 -24 -64 -34 -83 l-19 -34 -25
50 c-20 39 -24 60 -20 91 6 45 -14 93 -49 117 -34 24 -45 20 -58 -20 -15 -43
-1 -101 29 -129 25 -22 58 -120 70 -205 l8 -65 -26 34 c-14 19 -47 55 -72 80
-25 25 -52 63 -60 84 -7 20 -17 37 -22 37 -10 0 -1 -32 19 -72 19 -37 19 -38
-20 -38 -44 0 -52 -12 -30 -48 24 -41 52 -56 118 -62 54 -5 59 -7 76 -40 10
-19 23 -71 29 -116 8 -68 32 -154 66 -236 6 -15 -2 -14 -57 8 -34 13 -87 40
-116 60 -45 30 -53 39 -47 57 25 84 14 137 -39 186 -21 20 -28 22 -40 11 -31
-25 -31 -92 0 -167 11 -25 -97 30 -127 65 -30 33 -31 39 -26 96 2 34 3 67 0
74 -8 20 -25 14 -18 -8 3 -10 3 -35 -1 -55 l-6 -36 -49 53 c-29 32 -48 47 -49
37 0 -9 10 -24 21 -35 20 -18 99 -130 99 -140 0 -6 -4 -5 -134 35 -183 57
-172 33 14 -30 145 -49 205 -73 214 -87 3 -6 -22 -15 -58 -22 -53 -10 -73 -9
-126 4 -72 19 -80 19 -80 7 0 -5 15 -13 33 -16 49 -11 51 -15 22 -45 -17 -18
-27 -40 -28 -62 l-2 -33 45 3 c35 2 51 9 73 32 15 17 27 41 27 54 0 21 7 26
50 35 74 16 78 15 139 -31 31 -23 78 -57 104 -74 l48 -32 -33 -7 c-18 -4 -66
-9 -105 -12 -40 -2 -73 -9 -73 -14 0 -12 46 -22 71 -16 18 5 20 2 14 -16 -4
-12 -8 -33 -9 -47 -1 -23 2 -25 47 -24 56 0 94 24 120 75 19 38 31 39 104 8
140 -60 277 -257 327 -472 l6 -27 -46 35 c-25 19 -50 35 -55 35 -5 0 -25 7
-45 15 l-35 14 17 32 c22 44 14 109 -20 154 -32 42 -49 44 -64 10 -19 -41 -14
-104 10 -142 20 -33 20 -35 2 -25 -28 15 -50 43 -57 73 -10 41 -44 76 -92 94
-59 23 -79 15 -70 -27 4 -18 14 -43 22 -56 18 -30 72 -62 102 -62 28 0 139
-72 121 -78 -22 -8 -131 19 -177 44 -25 13 -55 24 -67 24 -27 -1 -101 -34
-111 -51 -12 -19 29 -47 82 -55 38 -6 55 -3 87 15 44 23 71 27 81 11 3 -5 -1
-10 -10 -10 -40 0 -105 -73 -105 -119 0 -17 6 -21 31 -21 41 0 97 27 111 54 6
11 14 35 18 51 6 29 7 30 74 33 125 5 195 -52 230 -192 8 -34 18 -70 21 -78 6
-14 2 -14 -37 -1 -36 12 -50 12 -83 1 -50 -17 -53 -31 -17 -67 34 -35 90 -48
138 -33 l33 10 30 -80 c50 -130 88 -318 65 -318 -5 0 -36 20 -69 45 -33 24
-88 57 -123 72 -52 24 -61 31 -57 48 20 67 17 104 -9 149 -15 26 -34 46 -42
46 -34 0 -56 -108 -34 -165 l10 -27 -32 20 c-18 11 -53 46 -77 77 -42 54 -44
59 -33 89 20 55 15 121 -11 151 -22 27 -22 27 -41 6 -10 -11 -21 -43 -25 -73
l-6 -52 -37 36 c-22 23 -46 62 -59 98 -21 58 -34 78 -45 67 -3 -3 6 -33 20
-68 14 -34 24 -64 23 -66 -6 -6 -90 27 -132 52 -22 13 -57 41 -79 63 l-38 40
10 61 c7 37 21 74 36 94 22 29 56 96 56 112 0 19 -19 -3 -39 -45 -36 -76 -63
-86 -35 -12 20 50 13 101 -20 139 l-24 27 -21 -34 c-34 -56 -27 -114 21 -166
18 -20 18 -27 7 -83 -6 -34 -16 -58 -21 -55 -5 4 -28 43 -50 88 l-39 81 6 93
c5 64 4 92 -4 92 -6 0 -11 -20 -12 -47 -1 -27 -4 -58 -8 -71 -6 -22 -8 -21
-40 21 -35 47 -89 93 -98 83 -3 -3 8 -22 24 -43 40 -51 48 -68 76 -156 l24
-75 -36 4 c-157 16 -152 14 -163 42 -6 15 -14 63 -17 106 -3 45 -11 81 -17 83
-8 3 -10 -11 -6 -43 l5 -48 -50 42 c-71 60 -87 52 -23 -12 49 -50 90 -119 77
-133 -3 -3 -36 11 -72 31 -69 38 -96 46 -77 23 6 -7 50 -32 97 -57 78 -39 96
-44 183 -51 53 -4 104 -9 112 -11 18 -4 16 13 -11 96 -10 33 -17 61 -16 63 2
2 29 -48 59 -109 58 -118 123 -203 187 -242 20 -12 68 -35 106 -50 133 -55
168 -82 251 -193 40 -53 67 -79 104 -98 27 -14 54 -25 60 -25 28 0 162 -72
229 -123 41 -31 79 -53 84 -50 15 9 0 201 -21 268 -11 33 -40 114 -65 180 -25
66 -60 179 -77 250 -40 165 -64 234 -106 313 -84 155 -161 226 -309 287 -92
37 -189 97 -285 176 l-25 20 35 -17 c19 -9 51 -29 70 -44 19 -15 55 -38 80
-52 52 -29 179 -73 187 -65 3 3 -11 43 -30 89 -38 90 -67 233 -67 333 0 34 -9
95 -21 136 -31 114 -31 117 -10 77 27 -48 47 -124 66 -252 30 -205 75 -294
231 -457 55 -59 123 -141 149 -183 27 -42 52 -76 55 -76 4 0 12 45 19 101 7
55 21 133 31 172 18 68 93 260 110 282 4 6 24 53 45 105 21 52 40 97 43 100
17 17 -16 -101 -62 -218 -29 -75 -58 -159 -65 -187 -75 -302 -47 -564 91 -855
28 -58 70 -149 94 -204 42 -95 44 -102 38 -167 -5 -49 -4 -69 5 -69 6 0 11 15
11 33 0 78 83 264 182 409 95 140 128 261 128 466 0 139 -11 226 -45 357 -44
170 -41 202 6 68 12 -35 27 -63 34 -63 12 0 87 149 125 250 14 36 23 90 27
154 5 78 8 94 16 75 5 -13 6 -68 3 -121 -5 -80 -4 -98 8 -98 11 0 98 60 151
105 20 17 76 136 73 153 -3 12 -9 7 -22 -18 -41 -78 -91 -142 -132 -170 -23
-17 -45 -30 -47 -30 -2 0 -7 51 -10 113 -4 61 -9 137 -13 167 -9 80 8 129 63
183 53 53 41 63 -18 16 -35 -27 -39 -29 -39 -11 0 11 7 25 16 33 46 38 58 149
21 187 -15 14 -18 14 -36 -2 -11 -10 -28 -38 -37 -62 -16 -41 -16 -47 0 -87
20 -52 20 -104 1 -227 -8 -52 -15 -99 -15 -103 0 -18 -79 85 -90 118 -14 41
-33 48 -24 8 10 -41 22 -62 71 -121 31 -39 43 -63 43 -86 0 -59 -39 -189 -86
-286 l-46 -95 -19 43 c-43 99 -50 153 -35 250 15 91 11 208 -7 219 -7 4 -8
-15 -4 -55 6 -70 -1 -142 -14 -142 -5 0 -9 6 -9 14 0 33 -90 106 -130 106 -15
0 -12 -65 4 -105 14 -34 14 -35 -7 -35 -29 0 -89 -37 -85 -53 2 -7 26 -23 53
-36 51 -26 57 -25 145 13 13 5 15 -4 12 -67 -3 -57 3 -101 28 -202 26 -107 53
-295 43 -295 -1 0 -19 17 -38 38 -26 27 -34 43 -30 60 13 55 -29 129 -94 162
-32 16 -46 0 -42 -51 3 -60 24 -93 80 -128 57 -34 106 -96 121 -150 6 -24 6
-65 0 -116 -17 -147 -39 -201 -138 -354 -30 -47 -74 -124 -98 -171 l-42 -85
-13 30 c-7 17 -32 72 -56 124 -47 102 -54 158 -32 247 10 39 15 45 33 40 66
-18 96 -18 139 3 50 24 78 64 59 83 -7 7 -38 12 -70 13 -45 0 -64 -5 -91 -24
l-34 -25 28 52 c23 43 31 50 46 42 48 -26 138 2 168 53 15 27 15 29 -3 43 -25
18 -93 18 -126 1 l-25 -13 4 83 c2 51 -1 83 -7 83 -5 0 -12 -37 -14 -82 -3
-67 -9 -95 -33 -142 -32 -63 -41 -62 -26 3 11 52 -1 99 -35 141 -40 47 -55 38
-78 -45 -9 -32 11 -86 44 -120 37 -38 39 -62 12 -145 -11 -36 -24 -78 -27 -95
l-7 -30 -14 25 c-27 49 -73 208 -85 295 -6 48 -9 143 -7 209 4 99 9 129 27
169 24 48 37 58 47 32 18 -45 136 -73 179 -41 18 13 18 14 -3 43 -27 38 -93
66 -136 58 -29 -6 -30 -5 -12 10 11 8 31 15 44 15 34 0 88 28 106 54 8 13 18
39 21 60 l7 36 -42 0 c-25 0 -56 -8 -75 -20 -31 -19 -65 -72 -65 -102 0 -7
-18 -33 -40 -58 l-39 -45 13 50 c7 28 36 109 64 180 27 72 60 168 73 215 21
77 28 90 76 137 30 29 67 60 84 68 16 9 27 20 24 25 -9 14 -51 -10 -107 -60
-56 -49 -56 -47 -32 81 29 157 28 156 94 189 63 32 83 58 95 123 l7 37 -37 0
c-55 0 -109 -57 -119 -124 -4 -27 -14 -59 -21 -70 -13 -20 -38 -124 -65 -271
-16 -88 -29 -115 -30 -60 0 22 -11 82 -24 133 -23 87 -23 96 -10 154 11 46 24
72 54 104 35 39 40 49 40 93 0 52 -14 101 -28 101 -5 0 -25 -16 -45 -35z m53
-61 c0 -27 -7 -51 -21 -68 -26 -33 -32 -30 -20 12 6 19 6 32 0 32 -5 0 -12
-12 -15 -26 -6 -23 -8 -24 -16 -10 -19 35 43 147 63 114 5 -7 9 -32 9 -54z
m196 -16 c-6 -30 -50 -88 -67 -88 -4 0 -5 10 -1 23 5 20 4 21 -11 8 -20 -16
-21 -12 -7 23 9 24 63 66 84 66 5 0 6 -14 2 -32z m404 -52 c-1 -17 -7 -42 -15
-56 l-14 -25 -1 30 c-1 29 -1 29 -15 11 -14 -19 -15 -18 -15 13 0 17 7 46 16
63 16 30 17 31 30 13 8 -10 14 -33 14 -49z m-761 -1 c32 -37 43 -95 18 -95
-28 0 -77 74 -77 116 0 25 27 15 59 -21z m-663 -105 c21 -31 25 -47 20 -74 -8
-41 -29 -39 -51 5 -21 39 -19 109 2 109 1 0 15 -18 29 -40z m329 -299 c-15
-31 -52 -58 -63 -47 -3 4 0 12 6 18 7 7 12 19 12 28 -1 11 -6 9 -20 -9 -19
-22 -20 -22 -20 -3 0 25 45 81 74 92 18 6 21 3 24 -21 2 -15 -4 -41 -13 -58z
m-407 18 c17 -6 38 -21 47 -35 l15 -24 -39 0 c-28 0 -49 8 -70 26 -17 14 -31
30 -31 35 0 12 40 11 78 -2z m591 -35 c25 -32 38 -91 22 -107 -8 -8 -11 -5
-11 10 0 12 -5 25 -11 29 -8 5 -10 -3 -7 -25 6 -39 3 -39 -22 2 -20 32 -25 72
-14 101 9 22 19 20 43 -10z m520 -48 c34 -18 56 -50 64 -94 l7 -33 -39 22
c-36 20 -71 71 -71 104 0 19 4 19 39 1z m-689 -70 c0 -27 -59 -66 -101 -66
-45 0 -48 8 -16 38 40 38 117 56 117 28z m-475 -53 c26 -40 32 -81 14 -114
-13 -26 -27 -16 -50 35 -18 42 -17 116 2 116 5 0 20 -17 34 -37z m1168 -4 c41
-11 47 -23 18 -39 -37 -19 -131 -4 -131 21 0 7 42 23 70 28 3 1 22 -4 43 -10z
m-556 -79 c18 -10 39 -33 48 -51 l17 -31 -33 7 c-19 4 -41 12 -50 18 -16 10
-49 58 -49 71 0 13 36 5 67 -14z m411 -90 c-11 -33 -52 -70 -76 -70 -13 0 -13
3 -4 12 21 21 13 31 -13 14 -27 -18 -30 -15 -14 15 13 26 68 59 96 59 20 0 21
-3 11 -30z m-518 -46 c15 -43 6 -95 -19 -118 -18 -16 -19 -15 -29 24 -13 52 3
130 28 130 5 0 14 -16 20 -36z m-744 -22 c-16 -32 -34 -42 -72 -42 -24 0 -24
0 -9 31 17 32 74 64 88 49 5 -4 2 -21 -7 -38z m1230 -113 c23 -21 23 -24 7
-30 -36 -15 -72 -9 -102 17 -17 14 -28 30 -25 36 11 18 93 2 120 -23z m-836
-6 c-1 -14 -34 -50 -57 -62 -31 -16 -73 -14 -73 3 0 25 59 66 96 66 19 0 34
-3 34 -7z m1020 -40 c17 -16 34 -43 39 -60 10 -34 4 -42 -17 -21 -9 9 -12 8
-12 -7 -1 -17 -5 -15 -30 13 -21 23 -30 43 -30 67 0 42 10 44 50 8z m-759
-228 c18 -40 18 -78 2 -108 -6 -10 -38 32 -48 61 -9 29 2 92 16 92 6 0 19 -20
30 -45z m-182 20 c16 -8 36 -30 45 -49 19 -41 20 -47 4 -42 -7 3 -26 7 -41 10
-27 6 -67 56 -67 84 0 16 25 15 59 -3z m-330 -70 c10 -37 -2 -95 -20 -95 -4 0
-14 18 -20 40 -9 30 -9 46 -1 65 16 35 29 31 41 -10z m1031 -10 c23 -37 25
-115 3 -122 -31 -10 -65 94 -47 141 9 24 20 19 44 -19z m246 -57 c4 -6 -5 -21
-21 -35 -22 -19 -37 -23 -74 -21 -25 2 -46 7 -46 13 0 5 15 20 34 32 36 24 95
31 107 11z m-997 -19 c17 -6 31 -17 31 -23 0 -15 -42 -36 -70 -36 -25 0 -70
21 -70 32 0 8 54 37 71 38 3 0 20 -5 38 -11z m131 -88 c0 -30 -46 -78 -80 -83
-34 -5 -38 6 -14 41 16 22 71 61 87 61 4 0 7 -9 7 -19z m820 -48 c9 -9 -51
-53 -73 -54 -30 -2 -71 2 -76 7 -8 7 25 37 54 50 26 12 81 10 95 -3z m-830
-212 c12 -24 13 -81 1 -100 -21 -33 -48 34 -36 89 8 35 20 38 35 11z m338 -21
c45 -28 40 -40 -17 -40 -49 0 -108 31 -96 51 11 16 79 10 113 -11z m-118 -176
c12 -36 7 -79 -13 -102 -8 -11 -14 -7 -28 20 -21 38 -23 75 -9 113 8 22 13 25
25 15 8 -6 19 -27 25 -46z"/>
<path d="M5447 4503 c-16 -16 -6 -101 16 -133 25 -38 81 -75 97 -65 15 9 12
92 -5 125 -15 29 -73 80 -92 80 -5 0 -13 -3 -16 -7z m43 -33 c28 -15 60 -73
60 -109 0 -37 -9 -39 -44 -6 -29 27 -46 64 -46 101 0 27 3 28 30 14z"/>
<path d="M5188 4453 c-38 -24 -57 -61 -38 -74 45 -28 92 -23 139 17 34 28 40
58 15 68 -29 11 -89 6 -116 -11z m100 -12 c23 -14 -34 -51 -79 -51 -43 0 -48
9 -21 32 30 27 75 35 100 19z"/>
<path d="M4684 4405 c-8 -44 20 -104 59 -125 24 -13 29 -13 38 0 18 27 4 99
-27 131 -38 40 -61 38 -70 -6z m66 -27 c22 -35 23 -69 3 -75 -15 -5 -41 34
-49 75 -9 44 19 44 46 0z"/>
<path d="M6090 4315 c-15 -45 -2 -87 40 -130 33 -34 36 -55 19 -135 -9 -45
-21 -64 -61 -105 -30 -30 -64 -80 -86 -125 l-36 -75 -18 70 c-9 39 -18 82 -18
98 0 15 -4 27 -10 27 -16 0 -12 -58 11 -147 l21 -82 -22 -68 c-29 -89 -82
-202 -108 -233 l-21 -25 -1 43 c0 34 -7 49 -34 80 l-35 37 -16 -40 c-21 -50
-15 -112 15 -154 26 -38 30 -33 -95 -145 l-90 -81 -12 125 c-27 292 -28 312
-3 343 28 35 82 58 145 61 60 3 98 25 119 71 30 63 13 83 -53 65 -41 -11 -70
-38 -95 -87 -9 -18 -22 -33 -29 -33 -7 0 -30 -9 -51 -19 l-38 -20 7 27 c18 76
57 132 143 205 48 40 107 84 132 99 172 98 200 124 200 183 0 57 -92 10 -111
-57 -17 -58 -23 -65 -91 -99 -85 -43 -237 -178 -268 -239 -51 -101 -66 -256
-41 -425 6 -38 11 -109 11 -157 0 -48 4 -90 10 -93 14 -8 240 205 296 278 58
77 92 146 134 267 69 203 123 292 213 354 72 50 84 42 15 -10 -71 -53 -114
-117 -152 -226 -39 -114 -72 -245 -63 -254 3 -4 28 3 55 14 26 11 95 32 152
47 120 29 213 70 270 117 51 43 54 70 3 30 -42 -32 -133 -87 -133 -79 0 19 39
90 71 131 22 27 39 56 39 65 0 12 -5 10 -19 -8 l-19 -24 -6 40 c-9 48 -42 106
-59 100 -7 -2 -22 -21 -35 -43 -28 -48 -25 -114 7 -148 27 -29 27 -55 -1 -96
-21 -31 -34 -37 -143 -66 -66 -17 -128 -35 -139 -39 -15 -7 -17 -4 -13 11 3
10 15 53 27 94 61 216 96 266 268 380 75 50 106 82 65 66 -9 -4 -40 -14 -67
-22 -28 -9 -66 -22 -83 -30 -31 -13 -33 -12 -33 5 0 71 88 191 141 191 33 0
73 31 89 69 18 43 7 65 -28 56 -45 -11 -73 -34 -93 -78 -10 -23 -36 -59 -58
-80 l-39 -38 5 65 c6 64 5 66 -30 101 -19 19 -40 35 -45 35 -6 0 -16 -16 -22
-35z m80 -86 l0 -40 -25 18 c-26 19 -42 71 -30 100 6 16 9 15 31 -10 17 -20
24 -40 24 -68z m210 82 c0 -23 -15 -43 -41 -56 -36 -19 -39 -19 -39 4 0 11 12
29 26 40 28 22 54 28 54 12z m-390 -177 c0 -21 -43 -73 -62 -74 -14 0 -9 35 8
58 13 19 54 32 54 16z m351 -281 c5 -15 8 -45 7 -67 -4 -40 -4 -40 -15 -16
l-12 25 0 -27 c-1 -31 -15 -37 -25 -12 -16 42 0 124 25 124 5 0 14 -12 20 -27z
m-561 -101 c0 -25 -50 -71 -80 -74 -35 -4 -36 23 -1 60 33 37 81 44 81 14z
m-15 -282 c16 -31 19 -61 9 -98 -14 -51 -61 43 -49 98 8 38 20 38 40 0z"/>
<path d="M6433 4151 c-31 -19 -49 -53 -39 -70 11 -17 74 -22 108 -8 40 17 75
64 60 79 -21 21 -95 20 -129 -1z m87 -11 c23 -16 -23 -50 -66 -50 -45 0 -46
26 -1 45 39 17 48 18 67 5z"/>
<path d="M6496 3960 c-50 -60 -43 -180 10 -180 27 0 64 72 64 123 0 87 -29
110 -74 57z m52 -46 c2 -38 -27 -104 -47 -104 -12 0 -21 52 -14 81 9 35 34 70
47 66 6 -2 12 -21 14 -43z"/>
<path d="M3425 3935 c-33 -18 -64 -53 -65 -73 0 -6 20 -17 45 -24 32 -9 45
-17 45 -30 0 -10 13 -26 29 -36 22 -13 26 -21 20 -37 -4 -11 -8 -30 -8 -42 -1
-19 4 -23 29 -23 16 0 40 5 54 11 14 7 32 9 41 5 15 -5 15 -8 1 -28 -33 -47
-16 -70 59 -83 22 -4 46 -12 53 -18 23 -18 12 -28 -23 -21 -33 6 -36 4 -50
-30 l-16 -37 -33 36 c-18 19 -38 35 -43 35 -6 0 -16 -14 -23 -30 -12 -28 -14
-29 -30 -15 -23 21 -35 19 -58 -10 l-20 -25 -35 35 c-42 42 -74 46 -83 10 -3
-14 -3 -36 0 -49 5 -21 2 -25 -21 -28 -25 -3 -28 -7 -27 -41 1 -21 9 -46 17
-55 24 -23 29 -10 13 30 -9 20 -13 38 -10 41 9 9 58 -9 102 -37 23 -14 43 -26
46 -26 2 0 6 23 8 51 4 33 12 58 26 72 l21 20 10 -24 c5 -13 12 -32 15 -42 9
-27 25 -11 32 32 10 61 20 71 45 41 11 -14 25 -37 31 -52 14 -40 36 -35 44 10
4 20 11 45 16 55 9 17 11 17 34 2 26 -17 44 -13 44 9 0 8 17 15 46 19 38 4 49
1 69 -19 30 -30 37 -30 72 1 26 22 26 24 8 25 -12 0 -27 -6 -34 -12 -10 -11
-17 -8 -35 13 -20 23 -28 26 -72 22 -41 -4 -52 -2 -68 16 -12 13 -31 21 -52
21 -72 0 -83 24 -32 71 18 16 27 30 20 30 -6 1 -16 3 -22 4 -5 1 -17 3 -25 4
-13 1 -14 9 -9 36 4 23 2 35 -5 35 -6 0 -11 -6 -11 -14 0 -21 -41 -63 -67 -71
-19 -5 -23 -2 -23 15 0 21 29 55 66 76 33 20 9 26 -29 8 -34 -16 -37 -16 -61
0 -32 21 -33 30 -2 44 26 12 54 52 37 52 -5 0 -12 -4 -16 -9 -12 -20 -71 -32
-100 -21 -27 10 -27 11 -10 30 25 27 78 41 117 29 35 -10 48 -5 31 12 -19 19
-95 21 -128 4z m-19 -490 c3 -12 4 -32 2 -44 -3 -20 -4 -20 -35 5 -27 21 -33
32 -33 65 l0 40 30 -21 c16 -12 33 -32 36 -45z"/>
<path d="M6608 3821 c-25 -16 -65 -55 -90 -87 -53 -68 -123 -136 -164 -157
-16 -8 -78 -32 -139 -52 -210 -72 -249 -99 -373 -254 -42 -53 -119 -141 -172
-196 -80 -84 -108 -123 -177 -245 -148 -265 -174 -329 -198 -488 -17 -111 -19
-228 -5 -237 5 -3 38 19 74 48 81 70 129 98 241 140 170 65 243 118 370 272
116 139 167 176 356 254 80 33 105 53 135 111 l19 35 3 -38 c4 -46 4 -46 112
19 123 74 147 98 180 189 17 44 30 84 30 90 0 22 -29 -25 -49 -81 -13 -35 -36
-75 -54 -92 -33 -31 -174 -122 -190 -122 -12 0 1 57 28 118 18 39 29 52 45 52
26 0 80 27 80 40 0 5 -16 2 -35 -6 -53 -22 -64 -17 -23 12 47 34 72 85 63 130
-8 45 -26 43 -78 -5 -40 -37 -42 -43 -43 -98 0 -51 -18 -103 -35 -103 -8 0
-29 72 -29 99 0 33 -17 59 -50 76 -48 25 -60 20 -60 -24 0 -45 35 -95 74 -105
13 -3 29 -18 35 -35 11 -26 9 -36 -23 -98 -41 -82 -75 -114 -151 -142 -168
-63 -247 -120 -364 -261 -49 -60 -114 -127 -143 -149 -47 -35 -166 -101 -183
-101 -4 0 4 19 18 43 14 23 43 89 66 146 30 75 55 120 89 159 64 73 96 121 88
130 -4 4 -12 -2 -19 -13 -6 -11 -36 -47 -68 -80 -32 -34 -70 -87 -87 -122
l-29 -61 -23 74 c-12 41 -27 77 -33 81 -10 6 -6 -29 8 -75 8 -24 8 -24 -23 -8
-17 9 -49 16 -72 16 -39 0 -40 -1 -34 -27 14 -60 50 -92 122 -108 17 -3 32
-11 32 -16 0 -16 -48 -102 -72 -130 -13 -15 -50 -40 -83 -57 -55 -27 -78 -43
-169 -114 l-29 -22 5 95 c9 149 41 263 112 403 113 220 126 239 203 279 37 19
93 40 124 47 51 12 61 11 129 -13 61 -21 77 -31 90 -58 21 -39 54 -58 103 -59
32 0 37 3 37 23 0 13 -9 32 -20 42 -27 24 -25 35 4 35 14 0 27 4 30 9 4 5 -40
11 -101 13 -60 2 -121 10 -138 17 -30 13 -29 14 60 36 50 13 104 29 120 36 17
7 64 13 105 14 74 1 150 20 150 38 0 5 -10 6 -22 3 -72 -21 -118 -28 -133 -22
-17 6 -17 7 0 26 25 27 15 25 -68 -14 -40 -19 -89 -37 -110 -40 -35 -7 -37 -5
-29 11 28 52 113 103 170 103 24 0 56 7 72 15 32 16 70 65 70 88 0 39 -94 30
-140 -13 l-29 -27 6 28 c8 39 -5 99 -21 99 -26 0 -66 -42 -77 -81 -9 -30 -9
-48 -1 -78 l12 -38 -60 -60 -61 -60 -102 -6 c-56 -3 -111 -9 -122 -13 -11 -4
14 28 55 72 42 43 103 115 137 159 81 107 126 148 198 183 61 30 251 95 314
107 18 4 29 10 23 14 -7 4 9 24 38 49 27 24 70 71 95 106 24 35 63 76 85 91
22 15 40 32 40 36 0 13 -1 12 -52 -20z m-523 -510 c11 -34 -22 -121 -46 -121
-15 0 -10 90 7 115 20 30 31 32 39 6z m571 -63 c-7 -34 -51 -88 -72 -88 -21 0
2 73 31 98 37 31 49 28 41 -10z m-416 14 c0 -37 -90 -86 -113 -62 -18 17 45
70 83 70 17 0 30 -3 30 -8z m217 -61 c17 -22 16 -61 -1 -61 -21 0 -56 48 -56
77 0 21 2 23 23 12 12 -7 27 -19 34 -28z m-362 0 c-3 -6 -11 -11 -17 -11 -6 0
-6 6 2 15 14 17 26 13 15 -4z m-275 -191 c0 -5 -15 -10 -32 -10 -41 0 -112
-21 -167 -49 -41 -21 -41 -21 -29 -2 15 25 44 37 128 55 80 18 100 19 100 6z
m246 -112 c22 -27 24 -34 11 -36 -23 -5 -67 19 -85 46 -14 21 -13 22 16 22 22
0 38 -9 58 -32z m-444 -335 c39 -37 37 -57 -4 -49 -32 6 -88 55 -88 77 0 20
62 0 92 -28z"/>
<path d="M4375 3750 c13 -47 85 -158 147 -227 35 -37 75 -84 90 -103 18 -23
28 -29 28 -19 0 9 -37 59 -83 112 -46 52 -97 117 -114 143 -72 116 -75 120
-68 94z"/>
<path d="M4831 3535 c-16 -56 -26 -274 -13 -305 8 -19 11 3 11 97 1 67 6 145
12 173 13 62 6 89 -10 35z"/>
<path d="M6715 3496 c-21 -20 -43 -32 -53 -29 -9 2 -37 -7 -61 -19 l-44 -24
-23 23 c-38 38 -124 26 -164 -22 -13 -15 -11 -20 13 -41 27 -23 68 -30 101
-18 25 10 19 22 -9 16 -14 -2 -39 1 -55 8 -29 12 -30 14 -15 30 35 39 123 31
112 -10 -7 -29 33 -26 79 5 45 31 62 32 66 3 4 -31 24 -33 32 -4 8 33 55 88
68 80 6 -4 8 -26 4 -55 -4 -27 -4 -49 -1 -49 3 0 16 9 27 20 32 29 43 19 41
-34 -3 -58 19 -63 36 -7 6 21 20 50 30 62 l19 24 10 -25 c6 -14 13 -38 17 -53
7 -34 25 -26 25 12 0 30 36 92 58 99 18 6 16 -82 -3 -98 -8 -7 -15 -19 -15
-27 0 -10 12 -4 37 16 27 23 48 31 75 31 46 0 48 -12 9 -51 -23 -23 -39 -29
-70 -29 -23 0 -41 -5 -41 -11 0 -6 21 -9 55 -8 30 1 57 0 61 -3 3 -3 -11 -18
-30 -33 -20 -15 -33 -31 -30 -36 3 -5 23 -18 45 -30 47 -23 43 -37 -12 -45
-46 -8 -42 -16 18 -33 45 -12 93 -64 73 -76 -21 -13 -79 6 -99 30 -18 24 -49
36 -35 14 4 -7 -2 -9 -17 -7 -21 3 -24 -1 -25 -27 -1 -60 -4 -65 -27 -65 -13
0 -32 7 -43 15 -34 26 -54 19 -54 -19 0 -18 -7 -39 -15 -46 -26 -22 -17 -30
33 -30 27 0 52 -3 55 -6 4 -4 -1 -20 -10 -35 -22 -37 -11 -46 30 -24 42 22 73
17 69 -12 -3 -21 0 -22 46 -16 61 7 71 -5 42 -54 -25 -43 -19 -55 15 -23 29
27 110 35 110 11 0 -25 -50 -53 -94 -53 -49 1 -53 -13 -8 -31 36 -16 67 -43
67 -59 0 -15 -69 -2 -90 17 -16 15 -40 20 -40 9 0 -3 9 -17 20 -31 22 -29 27
-73 7 -73 -7 0 -30 9 -51 21 -45 24 -58 18 -28 -14 22 -23 46 -77 38 -84 -12
-12 -63 17 -84 48 -28 42 -47 51 -37 18 18 -57 72 -99 125 -99 21 0 22 4 18
45 l-6 45 34 0 c32 0 34 2 34 34 0 34 1 35 42 38 23 2 43 8 45 14 2 6 -8 27
-21 47 -14 20 -21 37 -16 37 18 0 80 62 80 81 0 20 -52 35 -95 26 -21 -3 -24
-1 -20 13 8 24 -30 50 -72 50 -22 0 -33 5 -33 14 0 19 -31 29 -65 20 -19 -5
-26 -3 -25 7 5 32 -2 39 -40 45 -42 7 -45 10 -31 33 6 10 13 11 29 2 54 -29
92 -4 92 58 0 36 11 38 56 10 23 -14 46 -19 76 -17 37 3 43 6 46 28 3 25 -32
73 -59 82 -19 6 -2 26 42 49 51 26 50 55 -2 83 -50 27 -59 52 -36 99 25 49 13
62 -54 61 -46 0 -49 1 -49 26 0 14 -6 34 -13 44 -12 16 -17 17 -38 6 -13 -7
-32 -24 -42 -37 -18 -22 -21 -23 -36 -9 -24 22 -38 20 -57 -9 -15 -23 -18 -24
-29 -9 -8 12 -20 15 -38 10 -23 -5 -27 -3 -27 14 0 25 -17 60 -30 60 -5 0 -25
-15 -45 -34z m492 -247 c35 -29 -11 -47 -59 -23 -44 22 -45 23 -28 35 17 11
67 4 87 -12z"/>
<path d="M5453 3304 c1 -121 -1 -244 -5 -274 l-8 -55 17 45 c15 38 17 79 16
264 -1 126 -6 223 -12 229 -6 6 -9 -68 -8 -209z"/>
<path d="M5859 3363 c-60 -74 -95 -123 -86 -123 6 0 137 154 151 178 4 6 3 12
-1 12 -5 0 -34 -30 -64 -67z"/>
<path d="M3183 3355 c-3 -9 -3 -32 0 -51 5 -31 4 -35 -11 -28 -9 4 -33 8 -52
8 -41 1 -49 -18 -27 -62 13 -28 13 -29 -24 -50 -20 -12 -43 -35 -51 -52 -9
-22 -23 -33 -50 -41 -24 -6 -38 -16 -38 -25 0 -21 63 -84 84 -84 18 0 21 -15
6 -25 -6 -4 -10 -15 -8 -24 2 -10 -10 -29 -27 -43 l-29 -26 34 -21 c19 -11 48
-21 63 -21 16 0 27 -3 25 -7 -2 -5 -10 -20 -17 -35 -20 -38 -8 -58 33 -58 19
0 46 4 61 10 40 15 67 -6 59 -46 -3 -19 -1 -35 5 -39 23 -14 91 7 120 36 40
40 61 38 61 -5 0 -21 6 -36 15 -40 13 -4 12 -10 -3 -38 -9 -18 -18 -35 -20
-37 -1 -3 -8 1 -14 7 -7 7 -29 12 -50 12 -35 0 -38 -2 -38 -29 0 -15 9 -40 20
-54 26 -33 25 -34 -9 -42 -47 -10 -58 -31 -32 -59 l22 -23 -25 -17 c-39 -25
-51 -54 -32 -75 15 -16 13 -20 -15 -47 l-30 -29 22 -17 c13 -11 38 -18 64 -18
38 0 43 -2 38 -20 -3 -12 1 -22 11 -26 12 -4 13 -10 6 -24 -6 -10 -10 -35 -10
-56 0 -37 0 -37 36 -31 20 3 45 14 55 23 15 14 21 14 34 4 8 -7 24 -10 35 -7
16 4 23 -2 34 -26 7 -18 21 -39 31 -47 15 -13 19 -12 37 10 10 13 22 35 24 49
3 14 16 34 29 44 23 17 24 17 36 -5 35 -66 100 -60 99 9 0 15 -3 14 -19 -6
-23 -29 -47 -23 -61 16 -6 16 -13 35 -16 43 -4 12 -11 8 -30 -15 -25 -29 -26
-30 -39 -10 -38 54 -43 58 -59 52 -9 -4 -23 -22 -31 -40 -17 -41 -40 -63 -50
-47 -3 6 -3 35 0 65 8 64 2 67 -72 39 -24 -9 -46 -14 -50 -11 -3 4 6 24 21 45
14 21 26 43 26 48 0 12 -65 34 -97 34 -11 0 -26 6 -32 13 -13 16 19 50 57 62
30 9 28 22 -8 40 -52 27 -33 40 70 47 l35 3 -37 22 c-39 23 -75 77 -58 88 11
7 75 -19 84 -34 12 -19 26 -1 20 25 -8 31 13 56 71 84 24 12 46 27 49 35 7 19
-3 19 -43 -1 -19 -10 -42 -13 -57 -10 -22 6 -25 11 -19 34 4 15 7 31 8 36 1 5
-7 9 -18 11 -11 1 -30 5 -42 9 -16 5 -23 2 -28 -13 -9 -28 -53 -61 -81 -61
-30 0 -31 19 -3 54 25 32 19 44 -16 28 -37 -17 -38 -16 -31 28 6 41 -7 56 -19
21 -9 -29 -36 -49 -77 -56 -30 -6 -38 -4 -38 8 0 30 41 67 81 73 64 11 61 28
-4 21 -37 -3 -57 -2 -57 5 0 6 -7 7 -17 3 -20 -9 -60 -8 -74 1 -16 10 11 34
39 34 14 0 34 -8 44 -17 13 -12 22 -13 29 -6 8 8 4 15 -12 27 -13 9 -29 16
-35 16 -6 0 -17 7 -24 15 -11 13 -8 20 21 45 l34 29 -39 1 c-41 0 -109 36
-103 55 2 6 20 11 39 13 29 2 43 -3 71 -28 20 -17 38 -26 41 -21 4 5 -12 25
-34 44 -22 18 -40 41 -40 50 0 22 46 55 86 63 19 3 34 8 34 11 0 3 -11 18 -25
35 -14 16 -25 34 -25 39 0 19 44 8 77 -21 18 -16 40 -30 47 -30 14 0 76 -76
76 -92 0 -5 -18 -5 -40 -2 -25 4 -40 3 -40 -4 0 -5 19 -13 43 -16 23 -4 66
-17 95 -31 60 -28 70 -16 15 16 -21 12 -54 47 -75 78 -31 48 -36 63 -32 96 6
46 -8 77 -26 59 -9 -9 -9 -14 -1 -18 17 -11 13 -56 -6 -63 -20 -8 -59 35 -44
50 5 5 7 23 4 40 -6 27 -4 30 15 25 24 -7 28 2 10 20 -17 17 -37 15 -45 -3z
m177 -1124 c0 -5 -12 -19 -26 -30 -29 -22 -70 -27 -94 -11 -13 9 -12 13 9 30
24 21 111 29 111 11z m80 -117 c0 -31 -50 -84 -79 -84 -12 0 -21 5 -21 10 0
21 30 69 52 84 32 23 48 20 48 -10z m136 -35 c16 -32 13 -71 -9 -97 -25 -30
-49 67 -27 109 14 25 17 24 36 -12z"/>
<path d="M4680 3317 c0 -2 12 -32 26 -68 14 -35 35 -93 46 -129 24 -78 39 -99
27 -37 -11 63 -47 166 -71 205 -17 28 -28 39 -28 29z"/>
<path d="M6861 3158 c-63 -75 -173 -174 -256 -229 -33 -22 -122 -71 -197 -110
-76 -38 -138 -74 -138 -78 0 -5 19 -12 43 -16 23 -3 95 -24 159 -46 65 -21
130 -39 145 -39 50 0 142 -27 178 -51 31 -21 35 -29 35 -67 0 -61 24 -100 73
-122 22 -10 45 -16 50 -13 5 3 7 31 5 61 -6 62 -17 75 -129 147 l-62 39 134
24 c73 13 136 25 138 28 14 14 -18 16 -80 5 -38 -7 -73 -10 -77 -6 -4 4 10 21
31 38 20 18 37 36 37 40 0 13 -37 -11 -71 -48 -39 -41 -81 -55 -164 -55 l-60
1 44 22 c54 27 79 60 88 110 5 35 4 37 -22 37 -70 0 -135 -62 -135 -129 l0
-34 -44 6 c-24 4 -78 20 -120 37 -42 16 -85 30 -95 30 -43 0 -24 17 76 68 124
62 224 129 309 206 51 45 68 54 124 66 90 18 103 34 20 26 l-64 -6 30 32 c72
80 78 88 62 88 -8 0 -38 -28 -67 -62z m-93 -365 c-25 -52 -38 -68 -70 -84 -46
-24 -48 -24 -48 2 0 30 62 89 95 89 14 0 25 -3 23 -7z m129 -268 c25 -18 50
-92 35 -107 -14 -14 -69 37 -75 69 -5 28 0 53 12 53 4 0 16 -7 28 -15z"/>
<path d="M5645 3142 c-87 -84 -157 -166 -179 -210 -28 -54 -13 -46 31 16 23
31 85 103 138 160 109 115 115 137 10 34z"/>
<path d="M4811 3145 c-1 -32 18 -185 30 -240 14 -59 78 -205 91 -205 4 0 1 17
-8 38 -53 122 -64 160 -79 263 -17 117 -33 184 -34 144z"/>
<path d="M4545 3076 c-48 -22 -77 -60 -82 -110 -6 -52 3 -57 60 -32 52 22 80
60 81 108 1 48 -11 55 -59 34z m39 -50 c-7 -31 -58 -76 -85 -76 -23 0 -24 12
-4 51 18 34 75 73 88 60 4 -4 5 -20 1 -35z"/>
<path d="M3460 3031 c-14 -5 -47 -19 -75 -31 -27 -12 -75 -27 -105 -35 -42 -9
-51 -14 -36 -20 15 -7 74 7 134 32 7 3 4 -10 -8 -30 -12 -20 -22 -55 -23 -79
-2 -37 1 -43 20 -46 14 -2 36 9 60 32 36 33 38 37 37 95 -1 53 1 60 20 65 12
3 39 1 61 -4 22 -5 84 -10 139 -10 137 0 168 -11 246 -89 l65 -65 -49 -10
c-27 -6 -51 -17 -54 -25 -3 -9 2 -11 14 -8 77 22 83 21 197 -39 62 -31 125
-66 140 -77 28 -19 87 -92 87 -107 0 -4 -48 5 -107 21 -81 22 -131 29 -198 29
-102 0 -176 17 -239 54 -51 30 -66 56 -40 71 9 6 31 22 47 36 26 22 31 33 31
75 1 47 0 49 -24 46 -42 -4 -81 -53 -88 -107 l-5 -48 -24 46 c-23 46 -52 68
-106 81 -20 5 -29 2 -33 -9 -18 -46 38 -122 98 -132 33 -5 54 -20 118 -84 l78
-78 -42 -17 c-22 -9 -74 -19 -114 -22 -40 -2 -75 -9 -78 -13 -3 -5 -29 -9 -59
-9 -86 0 -73 -17 20 -25 47 -4 87 -10 90 -15 9 -14 -119 -137 -157 -150 -21
-8 -38 -18 -38 -22 0 -13 24 -9 63 11 l37 19 0 -43 c0 -32 7 -52 26 -74 30
-36 49 -39 64 -12 21 41 9 92 -33 139 l-21 22 54 55 c41 41 61 55 83 55 16 0
68 12 115 26 118 36 200 31 335 -21 l97 -38 -57 -34 c-32 -19 -65 -41 -73 -48
-8 -8 -38 -17 -65 -20 -48 -6 -51 -5 -83 29 -39 42 -65 50 -128 43 -59 -6 -72
-19 -51 -50 31 -47 76 -59 187 -50 55 5 100 6 100 3 -2 -14 -79 -90 -107 -104
-40 -20 -61 -20 -108 0 -22 9 -49 13 -66 9 -35 -8 -89 -51 -89 -71 0 -32 95
-45 140 -19 31 18 60 32 128 61 30 13 82 46 117 74 81 64 160 101 236 107 59
6 64 4 186 -58 92 -47 134 -75 159 -104 37 -45 83 -135 108 -208 23 -68 32
-379 17 -577 -26 -340 -55 -492 -111 -570 -22 -31 -108 -80 -140 -80 -9 0 -63
-24 -120 -54 l-105 -53 -205 -7 c-320 -9 -460 -18 -460 -28 0 -12 733 -1 912
14 129 11 143 10 236 -11 105 -24 156 -23 237 6 68 24 197 27 365 8 141 -17
353 -21 670 -13 30 1 134 -2 231 -7 135 -6 178 -5 183 4 5 7 6 14 4 16 -2 3
-139 7 -304 9 -289 5 -299 6 -308 26 -18 39 33 72 254 165 74 31 153 65 175
75 68 31 203 70 297 86 115 20 535 16 583 -5 l30 -13 -48 -13 c-62 -16 -83
-35 -39 -35 18 0 32 -4 32 -10 0 -5 17 -10 38 -11 l37 -1 -35 -12 c-34 -13
-34 -13 -11 -21 l25 -8 -27 -14 c-33 -17 -36 -37 -5 -27 13 4 54 7 93 8 38 1
76 5 84 10 9 6 17 3 23 -8 7 -13 17 -16 41 -10 29 6 30 5 18 -10 -12 -15 -12
-19 3 -34 16 -16 19 -16 55 4 32 18 51 21 110 17 75 -5 88 4 49 31 -22 15 -21
16 26 16 39 0 47 3 42 15 -4 12 3 15 37 15 23 0 48 4 56 9 10 7 18 5 26 -6 12
-15 29 -17 105 -7 25 3 64 5 86 5 25 -1 46 5 54 14 8 9 30 15 56 15 48 0 59
16 19 26 -14 3 -22 10 -20 15 3 4 -9 16 -27 25 l-33 18 49 14 c35 10 55 11 70
4 11 -6 34 -13 49 -17 23 -5 30 -2 34 15 4 15 14 20 38 20 49 0 68 9 54 26 -9
11 -5 15 20 20 46 9 48 24 4 24 -35 1 -37 2 -19 15 16 12 17 15 4 20 -9 4 -31
5 -49 4 -72 -5 -111 0 -106 15 6 16 -38 28 -70 20 -12 -3 -23 -1 -27 4 -9 15
56 23 128 16 57 -6 66 -5 66 10 0 10 8 16 24 16 14 0 28 5 31 10 3 6 24 10 45
10 54 0 72 8 61 28 -5 10 -9 22 -8 27 0 6 -9 15 -21 21 -21 10 -19 12 21 24
53 17 52 17 38 34 -11 12 -7 16 23 22 48 8 46 20 -5 28 -36 6 -39 9 -28 22 12
14 7 16 -44 13 -43 -3 -57 -1 -57 10 0 10 -12 12 -55 6 -46 -5 -55 -4 -55 9 0
22 -35 20 -89 -4 -56 -26 -68 -25 -67 3 1 27 13 37 49 37 15 0 36 9 47 20 17
17 17 20 4 20 -14 0 -14 3 -3 16 11 14 7 15 -42 14 -30 -2 -62 1 -72 5 -9 4
-35 3 -57 -3 -41 -10 -90 -5 -90 9 0 5 12 9 28 9 15 0 34 5 42 10 13 8 12 10
-4 10 -12 0 -16 5 -12 15 4 11 -1 15 -19 15 -14 0 -25 4 -25 9 0 20 -62 34
-127 28 -42 -3 -61 -2 -52 4 9 7 -2 9 -36 8 -27 -1 -58 2 -68 6 -11 4 -33 1
-55 -9 -20 -8 -51 -15 -67 -14 -17 0 -41 -3 -55 -7 -25 -9 -130 -13 -130 -6 0
2 8 10 18 17 15 12 14 13 -12 14 -28 0 -29 1 -10 15 17 13 14 14 -36 15 -31 0
-61 5 -66 10 -7 7 -33 7 -79 1 -37 -6 -80 -7 -95 -5 -17 4 -33 0 -44 -11 -12
-13 -26 -15 -56 -10 -51 9 -67 -1 -44 -26 16 -18 16 -19 -9 -19 -14 0 -29 5
-32 10 -3 5 -18 10 -32 10 -23 0 -24 2 -12 17 13 15 9 16 -38 11 -28 -3 -58
-1 -67 4 -9 5 -29 3 -52 -7 -29 -12 -44 -13 -82 -3 -42 10 -47 10 -60 -10 -11
-18 -24 -22 -63 -22 -48 0 -72 -13 -43 -24 20 -8 8 -26 -17 -26 -27 0 -24 -20
4 -21 12 0 16 -3 9 -6 -8 -3 -10 -9 -3 -16 11 -14 -36 -17 -57 -4 -6 5 -31 9
-54 9 -23 0 -48 6 -55 14 -10 9 -21 10 -46 3 -17 -5 -77 -10 -132 -11 -55 0
-107 -5 -116 -9 -9 -5 -45 -9 -80 -10 -79 -1 -102 -7 -95 -24 3 -10 -8 -16
-39 -20 -32 -5 -42 -11 -38 -21 3 -8 -1 -14 -11 -14 -27 0 -18 -17 17 -28 17
-5 24 -10 15 -11 -10 -1 -18 -5 -18 -11 0 -5 26 -10 58 -10 45 -1 53 -3 39
-11 -11 -7 -37 -8 -64 -4 -32 5 -51 2 -68 -9 -14 -9 -40 -16 -59 -16 -19 0
-38 -4 -41 -10 -3 -5 -19 -10 -35 -10 -16 0 -52 -5 -80 -12 -51 -12 -51 -12
-29 -29 l22 -17 -41 -7 c-55 -9 -54 -25 2 -25 25 0 48 -4 51 -10 3 -5 1 -10
-4 -10 -6 0 -11 -5 -11 -11 0 -11 46 -8 108 8 16 4 22 1 20 -8 -2 -9 6 -14 25
-14 30 1 37 -11 10 -18 -17 -4 -17 -5 0 -6 9 0 17 -4 17 -7 0 -4 -8 -13 -17
-21 -16 -13 -12 -14 36 -8 30 3 70 13 89 21 44 18 62 18 62 -1 0 -23 46 -23
90 0 21 11 26 10 36 -2 14 -21 77 -10 105 18 22 22 81 25 141 9 38 -11 78 -51
78 -77 0 -30 -61 -71 -167 -113 -205 -82 -570 -199 -670 -215 -40 -6 -43 -5
-62 26 -49 80 -71 226 -92 601 -15 275 -1 363 75 482 46 72 126 134 261 202
61 31 124 66 140 78 61 47 97 59 175 60 41 1 92 -3 113 -7 l38 -8 -30 -35
c-26 -29 -31 -43 -31 -88 0 -29 3 -56 7 -59 3 -4 20 2 38 13 l32 20 22 -30
c28 -39 45 -38 64 3 26 55 29 82 13 120 -26 64 -133 101 -273 96 -87 -4 -91
-5 -174 -55 -46 -29 -118 -69 -159 -89 -190 -95 -284 -198 -325 -355 -22 -83
-22 -287 0 -560 31 -379 76 -471 266 -543 52 -21 104 -44 115 -53 18 -14 14
-15 -45 -10 -36 3 -72 13 -81 21 -8 8 -37 24 -63 35 -26 12 -63 35 -83 52 -19
17 -37 28 -39 26 -13 -12 42 -60 101 -89 35 -18 62 -34 60 -36 -3 -3 -50 0
-106 6 -109 12 -132 23 -177 83 -13 18 -31 57 -40 88 -19 62 -33 85 -33 52 0
-37 41 -132 72 -168 l30 -34 -73 0 c-41 0 -84 -3 -96 -6 -22 -6 -23 -4 -24 57
0 59 -14 157 -19 134 -1 -5 -1 -51 0 -101 1 -61 -2 -94 -10 -99 -16 -10 -110
-34 -110 -29 0 3 12 28 26 56 29 57 53 173 54 257 0 30 -2 52 -4 50 -2 -2 -12
-56 -21 -119 -18 -120 -59 -235 -90 -246 -9 -4 -35 -3 -58 2 l-42 9 53 57 c36
37 59 74 73 113 24 68 46 253 34 281 -6 13 -11 -6 -16 -68 -16 -185 -38 -245
-121 -324 -50 -47 -56 -50 -93 -45 l-40 6 58 39 c58 39 113 104 105 127 -2 6
-16 -7 -31 -30 -16 -23 -57 -61 -97 -87 -62 -41 -78 -48 -147 -55 -43 -4 -109
-8 -148 -8 l-70 -1 60 34 c33 19 87 42 120 52 169 50 208 132 251 519 12 106
17 226 16 408 -1 286 -5 313 -68 443 -48 102 -102 153 -226 214 -57 28 -107
55 -113 61 -29 29 -174 -1 -272 -57 l-48 -27 30 27 c17 14 63 42 103 61 40 20
72 40 70 46 -5 14 -247 95 -309 103 -57 7 -90 2 -228 -34 -46 -11 -95 -20
-110 -18 -19 3 -10 7 34 17 33 7 85 25 115 38 52 23 54 26 35 38 -60 41 -62
45 -20 30 22 -8 76 -14 121 -15 83 0 162 -11 249 -35 116 -32 130 -34 138 -26
15 15 -43 108 -89 147 -24 19 -83 54 -131 78 -73 36 -101 57 -165 125 -102
109 -139 125 -278 126 -58 1 -130 4 -160 8 -30 3 -66 3 -80 -2z m-21 -116 c-8
-29 -42 -65 -60 -65 -22 0 -7 61 23 96 28 32 33 34 39 18 3 -11 2 -32 -2 -49z
m371 -40 c0 -26 -29 -74 -51 -86 -28 -15 -33 -6 -19 35 16 49 70 87 70 51z
m-196 -26 c26 -12 65 -74 53 -85 -20 -20 -107 52 -107 89 0 10 25 9 54 -4z
m43 -335 c-3 -3 -12 -4 -19 -1 -8 3 -5 6 6 6 11 1 17 -2 13 -5z m301 -134 c40
-25 41 -36 2 -44 -33 -6 -75 7 -103 31 -38 35 47 46 101 13z m-332 -81 c10
-20 13 -41 8 -62 l-6 -31 -24 28 c-15 16 -24 40 -24 60 0 55 18 57 46 5z
m2564 -69 c0 -30 -7 -47 -25 -65 -31 -32 -45 -32 -45 1 0 27 14 59 38 87 23
27 32 21 32 -23z m70 -39 c-1 -20 -6 -46 -13 -59 l-13 -23 -19 21 c-16 18 -17
24 -5 59 7 21 9 49 5 62 l-7 24 26 -24 c19 -18 26 -34 26 -60z m-2361 0 c28
-18 -62 -58 -105 -47 -32 8 -30 22 4 40 30 17 80 20 101 7z"/>
<path d="M4790 2951 c0 -32 45 -163 99 -284 29 -65 57 -146 63 -180 17 -110
28 -130 23 -44 -4 67 -14 99 -74 245 -38 92 -77 193 -86 225 -17 59 -25 71
-25 38z"/>
<path d="M5470 2869 c-59 -92 -67 -109 -52 -109 9 0 124 192 117 198 -2 2 -31
-38 -65 -89z"/>
<path d="M4880 2937 c0 -43 117 -316 151 -352 21 -22 6 22 -40 113 -27 53 -61
132 -76 175 -27 76 -35 90 -35 64z"/>
<path d="M5413 2885 c-12 -22 -51 -82 -87 -133 -74 -105 -101 -152 -87 -152 6
0 16 10 22 23 7 12 38 58 69 102 73 102 113 171 107 187 -2 7 -13 -5 -24 -27z"/>
<path d="M5718 2868 c-48 -40 -63 -120 -32 -179 20 -40 42 -34 71 21 28 51 26
92 -5 141 -15 24 -21 27 -34 17z m26 -44 c13 -33 6 -92 -13 -115 l-19 -24 -11
28 c-15 38 -14 63 4 97 17 33 30 38 39 14z"/>
<path d="M4280 2722 c0 -12 79 -87 85 -80 3 3 -6 20 -21 37 -27 33 -64 58 -64
43z"/>
<path d="M6138 2692 c-44 -25 -78 -60 -231 -235 -31 -36 -87 -85 -122 -108
-75 -48 -89 -75 -17 -33 74 43 122 86 197 179 93 114 135 154 203 192 35 20
49 33 37 33 -11 0 -41 -13 -67 -28z"/>
<path d="M5343 2688 c-18 -21 -83 -161 -83 -178 0 -8 23 27 51 79 27 51 48 98
47 103 -2 6 -9 4 -15 -4z"/>
<path d="M6233 2680 c-61 -13 -95 -34 -144 -88 -58 -64 -159 -209 -151 -216 3
-3 28 -6 56 -6 78 0 164 -24 299 -84 158 -70 192 -77 320 -70 107 7 190 -9
217 -41 7 -8 31 -13 70 -12 45 1 63 -3 79 -17 16 -15 18 -21 9 -28 -21 -13
-83 -9 -104 7 -26 20 -38 19 -29 -2 4 -10 9 -24 13 -32 8 -20 -85 -7 -109 15
-10 9 -22 13 -27 10 -5 -3 -27 10 -50 29 -44 38 -67 44 -76 19 -19 -48 4 -119
47 -147 32 -21 47 -6 47 45 0 21 3 38 6 38 20 0 44 -24 44 -46 0 -64 53 -124
110 -124 17 0 20 6 20 38 0 21 -7 47 -15 59 -13 19 -13 21 5 26 11 3 20 11 20
19 0 9 15 13 50 13 38 0 55 5 71 22 19 19 20 24 9 38 -24 29 -70 46 -115 44
-24 -2 -49 2 -57 8 -7 7 -46 21 -87 32 -60 17 -90 19 -166 14 -99 -6 -148 2
-231 37 -37 16 -45 23 -34 30 8 6 27 10 42 10 15 0 49 9 76 19 l50 20 22 -24
c58 -61 200 -50 149 11 -11 13 -10 17 4 25 85 48 85 92 -1 97 -47 3 -55 0 -94
-36 -40 -36 -114 -72 -148 -72 -8 0 5 10 29 22 43 21 80 76 81 121 0 40 -61
33 -112 -12 -28 -25 -33 -38 -38 -88 l-5 -58 -72 -3 c-56 -2 -89 3 -148 23
-41 14 -92 25 -113 26 -76 1 -76 6 -8 100 127 172 200 198 405 144 102 -27
146 -31 156 -15 3 6 -3 10 -13 10 -11 0 -63 11 -116 25 -114 30 -186 37 -243
25z m277 -196 c0 -29 -60 -94 -86 -94 -36 0 1 80 48 103 18 9 34 17 36 17 1 0
2 -12 2 -26z m195 -44 c12 -19 -38 -49 -82 -50 -50 0 -54 10 -15 39 29 22 86
28 97 11z m-77 -86 c33 -21 27 -34 -16 -34 -28 0 -45 7 -61 24 -17 18 -19 25
-9 29 18 7 58 -2 86 -19z m52 -280 c0 -41 -11 -43 -39 -8 -21 26 -28 74 -14
88 15 14 53 -44 53 -80z m144 -36 c15 -13 29 -38 32 -56 6 -29 4 -32 -12 -26
-35 13 -64 47 -64 76 0 34 11 35 44 6z"/>
<path d="M5808 2660 c-38 -21 -59 -63 -41 -81 5 -5 26 -12 46 -16 30 -4 45 0
77 21 40 26 70 70 57 82 -4 4 -28 9 -54 11 -35 2 -58 -2 -85 -17z m100 -9 c24
-15 -43 -61 -89 -61 -43 0 -48 8 -21 33 34 31 85 44 110 28z"/>
<path d="M4399 2581 c39 -73 177 -182 228 -181 10 1 -4 13 -32 27 -63 32 -98
62 -149 124 -40 49 -66 66 -47 30z"/>
<path d="M5301 2525 c-34 -82 -71 -233 -71 -295 0 -59 17 -19 30 70 12 85 54
235 72 257 5 7 8 20 6 30 -2 11 -17 -14 -37 -62z"/>
<path d="M4070 2581 c1 -7 189 -69 246 -81 22 -5 54 -13 72 -18 17 -6 32 -7
32 -3 0 12 -43 28 -121 45 -37 8 -84 22 -105 30 -49 19 -124 36 -124 27z"/>
<path d="M4980 2575 c0 -3 7 -22 16 -43 49 -117 93 -335 94 -459 0 -71 4 -103
12 -103 8 0 9 35 5 128 -4 100 -13 156 -42 266 -38 148 -56 199 -74 210 -6 4
-11 5 -11 1z"/>
<path d="M5206 2478 c-16 -38 -33 -147 -22 -136 10 9 47 160 41 166 -3 3 -11
-11 -19 -30z"/>
<path d="M4450 2442 c0 -10 93 -66 154 -92 71 -30 81 -19 13 14 -32 15 -80 40
-108 56 -54 32 -59 34 -59 22z"/>
<path d="M4650 2411 c0 -4 12 -13 28 -20 52 -23 98 -61 137 -112 21 -28 41
-46 43 -40 4 13 -35 68 -76 107 -40 37 -132 83 -132 65z"/>
<path d="M5177 2320 c-9 -27 -37 -364 -36 -440 1 -87 17 -70 18 20 1 30 8 135
17 233 14 165 14 225 1 187z"/>
<path d="M6779 2299 l-33 -31 24 -20 c34 -28 120 -21 155 12 14 13 25 29 25
35 0 18 -46 35 -94 35 -35 0 -50 -6 -77 -31z m119 5 c31 -9 28 -22 -12 -40
-23 -12 -45 -14 -70 -10 -45 9 -46 19 -3 40 35 17 50 19 85 10z"/>
<path d="M5731 2263 c-58 -29 -95 -53 -84 -53 41 0 210 90 193 102 -3 2 -52
-20 -109 -49z"/>
<path d="M4187 2303 c-26 -47 -11 -126 32 -167 42 -40 65 -32 69 23 4 54 -12
94 -50 126 -31 26 -44 30 -51 18z m69 -80 c17 -39 15 -74 -3 -80 -19 -7 -53
58 -53 100 0 35 1 37 21 27 11 -7 27 -27 35 -47z"/>
<path d="M4710 2301 c0 -5 11 -16 25 -25 14 -9 46 -53 72 -97 53 -91 73 -92
23 -1 -44 78 -120 157 -120 123z"/>
<path d="M5014 2275 c4 -22 13 -79 19 -127 7 -47 16 -90 21 -95 12 -11 -1 130
-19 196 -17 64 -31 82 -21 26z"/>
<path d="M4953 2248 c4 -13 16 -57 28 -98 17 -61 21 -103 22 -225 1 -145 -1
-154 -36 -274 -43 -145 -44 -170 -16 -277 12 -43 26 -99 31 -124 10 -45 28
-77 28 -50 0 8 -14 71 -31 140 -37 147 -36 178 12 325 30 92 32 111 33 240 0
141 -16 250 -50 331 -16 38 -29 46 -21 12z"/>
<path d="M5531 2223 c-72 -37 -143 -97 -195 -166 -16 -21 -26 -40 -23 -44 4
-3 17 7 29 23 53 71 138 142 219 182 49 24 75 41 63 42 -12 0 -54 -16 -93 -37z"/>
<path d="M4885 2175 c35 -86 65 -187 66 -225 1 -25 5 -58 10 -75 5 -20 7 0 5
60 -4 96 -38 212 -72 244 -16 15 -16 15 -9 -4z"/>
<path d="M6396 2167 c-52 -29 -78 -67 -80 -114 -1 -35 1 -38 24 -35 31 3 72
32 85 60 10 23 25 30 25 11 0 -5 -11 -27 -25 -47 -31 -46 -34 -118 -6 -153
l19 -23 30 32 c17 18 33 46 37 62 6 25 9 28 25 20 10 -6 28 -10 39 -10 18 0
21 6 21 38 0 38 -22 83 -35 70 -4 -3 -2 -15 4 -26 13 -24 15 -62 3 -62 -22 0
-82 81 -102 138 -13 34 -23 62 -24 61 0 0 -19 -10 -40 -22z m20 -49 c-6 -31
-46 -78 -67 -78 -21 0 -8 53 20 81 39 39 55 38 47 -3z m58 -84 c12 -31 6 -79
-14 -108 l-19 -30 -10 28 c-15 37 -14 52 5 92 18 37 29 42 38 18z"/>
<path d="M4042 2173 c-21 -4 -72 -60 -72 -79 0 -14 -81 -99 -107 -113 -21 -11
-23 -9 -23 14 0 15 5 35 11 47 14 27 1 38 -17 14 -8 -11 -14 -40 -14 -64 l0
-45 33 6 c32 5 34 4 45 -39 13 -48 27 -54 58 -25 37 34 49 78 36 128 -11 38
-10 48 8 83 23 44 40 52 40 18 0 -35 34 -82 71 -101 32 -15 35 -15 47 1 7 9
10 23 7 30 -3 8 -5 24 -5 36 0 27 -47 83 -75 89 -11 2 -30 2 -43 0z m58 -33
c31 -17 53 -100 26 -100 -21 0 -66 58 -66 86 0 26 11 30 40 14z m-128 -132 c2
-40 -2 -62 -18 -86 -20 -30 -34 -15 -34 37 0 52 48 98 52 49z"/>
<path d="M5515 2140 c-27 -16 -59 -38 -71 -48 -27 -23 -144 -181 -144 -194 0
-6 -6 -8 -14 -5 -30 12 -33 -87 -11 -318 8 -82 15 -188 16 -235 1 -47 5 -98 9
-115 12 -45 11 208 0 285 -5 36 -13 134 -17 218 -5 125 -4 152 7 150 7 -2 35
29 61 67 64 93 121 150 186 187 29 16 53 32 53 34 0 11 -30 1 -75 -26z"/>
<path d="M5215 2093 c-18 -44 -17 -389 1 -371 4 4 12 388 8 388 -1 0 -5 -8 -9
-17z"/>
<path d="M4885 1980 c15 -74 21 -190 14 -310 -14 -245 -18 -533 -8 -523 6 6
12 77 14 159 2 82 7 244 11 359 6 210 -2 316 -27 340 -9 7 -10 1 -4 -25z"/>
<path d="M5070 1810 c0 -36 9 -102 20 -148 26 -109 25 -152 -5 -256 -20 -69
-25 -107 -24 -189 1 -56 5 -115 9 -132 5 -19 8 17 7 95 0 105 4 141 26 225 32
118 33 143 7 255 -11 47 -20 108 -20 135 0 28 -5 57 -10 65 -7 11 -10 -4 -10
-50z"/>
<path d="M5140 1764 c0 -10 7 -54 15 -97 20 -105 19 -165 -5 -265 -11 -46 -20
-104 -19 -130 1 -44 2 -41 19 38 32 143 41 221 34 285 -11 101 -44 229 -44
169z"/>
<path d="M5005 1604 c-26 -61 -30 -133 -11 -197 9 -31 21 -57 26 -57 12 0 13
-5 -5 54 -19 63 -19 109 1 175 18 63 12 79 -11 25z"/>
<path d="M5224 1580 c3 -30 6 -88 6 -128 0 -52 3 -71 11 -66 15 9 7 203 -10
229 -10 17 -11 11 -7 -35z"/>
<path d="M5050 1568 c0 -29 -2 -71 -5 -93 l-5 -40 14 30 c17 34 21 141 6 150
-6 4 -10 -14 -10 -47z"/>
<path d="M5204 1355 c-13 -56 -11 -322 1 -334 7 -7 9 34 7 127 -2 76 0 153 5
172 6 19 7 44 3 55 -6 16 -9 13 -16 -20z"/>
<path d="M4937 1157 c-6 -70 -27 -164 -54 -233 -3 -8 -1 -14 5 -14 29 0 86
276 65 314 -7 14 -11 -3 -16 -67z"/>
<path d="M5240 1172 c0 -70 21 -206 41 -266 22 -65 91 -176 97 -157 2 6 -10
33 -26 59 -17 26 -37 64 -46 85 -22 54 -46 189 -46 258 0 33 -4 59 -10 59 -5
0 -10 -17 -10 -38z"/>
<path d="M5135 1069 c13 -164 46 -316 65 -304 5 3 3 24 -6 47 -14 40 -44 242
-44 298 0 16 -5 32 -11 36 -8 5 -9 -17 -4 -77z"/>
<path d="M5310 1084 c0 -62 42 -204 61 -204 4 0 4 12 -2 28 -6 15 -20 67 -30
117 -23 102 -29 115 -29 59z"/>
<path d="M4839 974 c-49 -144 -72 -174 -165 -221 -96 -48 -111 -74 -17 -31 96
44 111 55 138 102 43 74 103 246 85 246 -4 0 -23 -43 -41 -96z"/>
</g>
</svg>
