<?xml version="1.0" standalone="no"?>
<!DOCTYPE svg PUBLIC "-//W3C//DTD SVG 20010904//EN"
 "http://www.w3.org/TR/2001/REC-SVG-20010904/DTD/svg10.dtd">
<svg version="1.0" xmlns="http://www.w3.org/2000/svg"
 width="1024.000000pt" height="559.000000pt" viewBox="0 0 1024.000000 559.000000"
 preserveAspectRatio="xMidYMid meet">
<metadata>
Created by potrace 1.16, written by Peter Selinger 2001-2019
</metadata>
<g transform="translate(0.000000,559.000000) scale(0.100000,-0.100000)"
fill="#000000" stroke="none">
<path d="M5260 4509 c-349 -34 -761 -200 -1125 -454 -282 -197 -538 -461 -954
-980 -327 -408 -553 -628 -817 -793 -218 -136 -388 -196 -618 -217 -61 -6 -75
-10 -61 -18 26 -14 218 9 325 39 103 30 271 112 399 194 266 172 481 386 831
825 397 498 660 761 963 964 584 389 1149 508 1687 356 156 -44 416 -137 494
-177 152 -77 331 -268 298 -317 -5 -9 -16 -14 -24 -12 -38 11 -88 18 -88 12 0
-4 32 -43 71 -86 122 -137 165 -238 139 -329 -31 -113 -126 -108 -194 12 -17
29 -33 47 -37 41 -8 -14 -71 -14 -98 0 -11 7 -38 35 -59 64 -75 101 -168 169
-234 171 -49 1 -71 -23 -62 -70 7 -36 -16 -88 -45 -104 -48 -25 -87 -6 -222
109 -113 96 -223 132 -291 97 -23 -12 -28 -12 -28 -2 0 21 -77 93 -123 115
-23 11 -62 23 -87 26 l-45 5 57 -19 c115 -38 180 -97 203 -184 20 -77 19 -116
-4 -153 -23 -38 -77 -59 -132 -51 -22 3 -90 29 -152 58 -93 44 -123 54 -177
57 -48 2 -74 -2 -100 -15 -35 -18 -36 -18 -83 5 -42 21 -60 23 -131 20 -75 -3
-89 -7 -142 -39 -85 -54 -78 -65 12 -19 64 33 89 40 135 40 127 0 225 -74 205
-155 -8 -33 -30 -43 -123 -56 -102 -14 -190 -60 -274 -144 -111 -111 -166
-228 -196 -420 -39 -256 18 -484 185 -740 222 -340 548 -551 1032 -668 476
-116 789 -63 1320 223 160 86 282 140 316 140 14 0 13 -2 0 -22 -20 -29 -20
-81 0 -124 38 -81 185 -171 351 -216 98 -26 316 -36 418 -18 122 20 323 93
342 123 4 7 0 8 -13 3 -350 -139 -595 -150 -864 -40 -86 35 -183 105 -203 146
-34 72 -33 85 12 128 22 22 41 42 41 45 0 9 -66 6 -118 -6 -28 -5 -110 -42
-183 -80 -375 -196 -527 -260 -719 -306 -95 -23 -450 -26 -545 -5 -292 65
-420 105 -580 182 -355 169 -647 501 -747 846 -20 69 -23 100 -22 249 1 153 4
179 28 258 48 159 117 261 229 340 72 51 122 72 192 81 28 4 61 9 76 12 25 5
25 4 -22 -91 -112 -229 -149 -446 -114 -676 13 -90 71 -296 81 -287 2 3 -5 30
-15 60 -45 132 -56 206 -55 388 1 155 4 186 27 272 32 119 114 293 204 433 79
124 66 121 216 50 146 -68 228 -75 284 -24 50 47 64 110 39 181 -17 47 -6 58
55 58 41 0 139 -32 139 -46 0 -3 -14 -17 -30 -31 -51 -42 -150 -170 -199 -256
-100 -175 -131 -282 -131 -463 0 -200 54 -370 171 -540 29 -41 56 -77 61 -80
5 -3 -12 25 -38 63 -140 203 -209 468 -175 678 31 190 134 389 288 555 31 34
62 60 69 58 8 -2 48 -32 89 -67 66 -56 73 -66 58 -74 -38 -21 -123 -99 -156
-145 -209 -286 -221 -660 -29 -927 119 -165 306 -313 477 -378 270 -102 521
-112 745 -31 88 32 94 30 34 -8 -131 -84 -337 -165 -475 -188 -94 -15 -255
-12 -349 6 -157 29 -341 103 -460 183 -119 81 -242 236 -301 380 -18 44 -34
79 -37 77 -9 -9 62 -163 107 -234 128 -199 323 -328 606 -402 329 -85 637 -23
967 197 95 64 173 102 313 155 28 11 84 22 125 25 l74 6 -27 -32 c-35 -42 -34
-72 3 -114 63 -73 204 -107 434 -107 164 0 234 10 386 56 84 26 226 91 217
100 -2 2 -42 -9 -88 -27 -174 -64 -217 -76 -339 -94 -291 -44 -610 23 -610
128 0 17 12 35 37 55 l37 29 -23 12 c-12 7 -46 15 -74 18 -64 7 -168 -26 -368
-116 -249 -112 -360 -137 -559 -128 -194 9 -391 70 -530 162 -196 131 -331
292 -398 477 -25 67 -27 85 -27 223 0 170 12 219 88 375 34 68 59 103 129 172
l87 87 64 -6 c39 -3 72 -1 84 5 29 16 53 72 53 126 l0 46 39 0 c50 0 140 -65
202 -145 59 -78 90 -99 144 -100 42 -1 47 -4 74 -46 92 -146 252 -70 227 109
-9 65 -57 163 -108 219 -24 27 -50 56 -58 66 -12 17 -11 18 13 12 54 -14 75
42 41 108 -43 82 -189 214 -303 272 -53 26 -309 121 -416 153 -259 78 -482
103 -715 81z m-203 -853 c-3 -8 -22 -37 -43 -66 l-37 -52 -12 36 c-7 20 -18
42 -24 50 -15 17 -2 27 49 37 58 11 73 10 67 -5z"/>
<path d="M5210 4409 c-90 -11 -223 -44 -259 -65 -15 -9 -18 -13 -6 -9 90 30
121 38 200 50 168 27 415 15 606 -29 100 -24 196 -59 297 -110 50 -25 92 -44
92 -42 0 3 -26 20 -57 39 -138 80 -323 135 -543 162 -135 16 -214 17 -330 4z"/>
<path d="M4655 4111 c-213 -54 -431 -182 -640 -373 -106 -98 -260 -263 -311
-333 l-36 -50 43 50 c84 98 295 309 384 383 199 167 416 280 628 326 37 9 50
14 32 14 -16 0 -61 -8 -100 -17z"/>
<path d="M5745 4067 c11 -7 58 -50 104 -97 l83 -85 -60 76 c-60 75 -88 99
-127 112 l-20 6 20 -12z"/>
<path d="M5495 4044 c-16 -8 -37 -22 -45 -31 -10 -11 -4 -10 20 4 19 12 49 24
66 27 28 6 121 -9 179 -30 l20 -6 -20 14 c-49 36 -170 48 -220 22z"/>
<path d="M3864 3691 c-122 -103 -308 -317 -427 -490 -116 -168 -99 -160 29 14
119 163 217 278 355 418 64 64 115 117 114 117 -1 0 -32 -26 -71 -59z"/>
<path d="M3076 2760 c-24 -42 -148 -190 -182 -219 -16 -14 -62 -54 -103 -89
-189 -165 -429 -321 -595 -389 -93 -38 -88 -45 6 -9 271 101 704 434 852 653
27 40 47 75 45 78 -3 2 -13 -9 -23 -25z"/>
<path d="M3589 2156 c-71 -20 -160 -69 -329 -181 -194 -129 -306 -192 -462
-262 -147 -65 -292 -114 -408 -138 -113 -23 -272 -17 -349 13 -52 20 -76 22
-55 3 5 -5 32 -17 59 -27 41 -16 78 -19 200 -19 136 0 159 3 250 29 102 30
257 89 378 145 105 48 217 114 390 228 212 139 298 182 383 190 l67 6 -21 -21
c-67 -67 -76 -169 -24 -274 71 -145 296 -319 625 -484 537 -270 1172 -367
1662 -254 82 19 165 47 100 34 -214 -43 -272 -48 -535 -48 -231 0 -281 3 -390
23 -462 83 -824 230 -1185 479 -112 78 -225 194 -259 267 -24 49 -27 68 -24
120 3 51 9 70 33 100 51 63 51 65 35 75 -20 13 -85 11 -141 -4z"/>
<path d="M5107 1902 c211 -202 496 -317 813 -327 l125 -4 -120 10 c-202 16
-393 67 -548 146 -66 33 -152 90 -247 166 l-75 59 52 -50z"/>
</g>
</svg>
