<?xml version="1.0" standalone="no"?>
<!DOCTYPE svg PUBLIC "-//W3C//DTD SVG 20010904//EN"
 "http://www.w3.org/TR/2001/REC-SVG-20010904/DTD/svg10.dtd">
<svg version="1.0" xmlns="http://www.w3.org/2000/svg"
 width="1024.000000pt" height="559.000000pt" viewBox="0 0 1024.000000 559.000000"
 preserveAspectRatio="xMidYMid meet">
<metadata>
Created by potrace 1.16, written by Peter Selinger 2001-2019
</metadata>
<g transform="translate(0.000000,559.000000) scale(0.100000,-0.100000)"
fill="#000000" stroke="none">
<path d="M9030 4200 c-96 -26 -251 -66 -345 -89 -408 -98 -520 -159 -837 -453
-113 -105 -165 -147 -189 -152 -18 -3 -100 -18 -183 -32 -83 -14 -169 -30
-191 -36 -355 -95 -601 -219 -850 -428 -44 -38 -159 -143 -255 -235 -314 -301
-485 -435 -717 -560 l-158 -86 -75 5 c-89 5 -159 29 -298 98 -184 91 -477 318
-751 578 -340 324 -396 363 -674 466 -67 25 -156 58 -197 74 -41 15 -100 38
-130 50 -178 71 -360 110 -517 110 l-95 0 -67 58 c-65 57 -253 202 -354 273
-158 111 -390 224 -593 289 -108 34 -353 85 -461 95 -62 6 -74 5 -79 -9 -4 -9
-4 -19 -2 -22 3 -2 62 -11 131 -20 334 -41 673 -166 947 -350 147 -98 335
-245 412 -320 152 -152 310 -393 489 -748 137 -271 188 -357 303 -511 121
-160 261 -303 407 -416 67 -52 177 -140 244 -195 141 -116 176 -141 300 -214
50 -29 118 -73 151 -97 l62 -43 83 16 c125 23 348 81 441 115 180 66 258 121
258 182 0 69 -46 97 -240 147 -191 50 -260 89 -260 146 0 25 43 65 101 95 38
19 269 89 292 89 7 -1 -25 -19 -71 -41 -97 -47 -127 -82 -110 -130 19 -54 127
-87 451 -139 116 -18 219 -56 254 -92 17 -18 34 -43 37 -55 9 -27 -22 -100
-61 -147 -34 -41 -149 -138 -258 -218 -89 -66 -105 -85 -79 -95 19 -7 60 3
294 77 274 87 380 140 555 281 107 85 474 453 559 559 87 110 230 327 336 510
297 516 340 569 778 986 366 349 460 402 877 503 94 23 193 47 220 55 28 8
105 28 171 46 67 18 128 36 134 40 13 8 7 40 -7 39 -4 0 -87 -22 -183 -49z
m-6110 -764 c117 -27 713 -249 796 -297 108 -61 206 -142 379 -308 55 -53 134
-128 175 -166 73 -68 390 -320 480 -381 67 -46 235 -131 296 -151 30 -9 54
-19 54 -22 0 -3 -47 -19 -105 -34 -129 -36 -232 -84 -268 -126 -34 -40 -36
-96 -7 -134 31 -39 130 -83 278 -122 73 -19 145 -41 161 -50 113 -58 -14 -147
-340 -239 -117 -33 -311 -76 -341 -76 -8 0 -65 33 -128 74 -63 41 -151 97
-196 126 -45 29 -114 81 -155 116 -41 36 -135 112 -209 169 -177 136 -242 195
-353 325 -155 180 -235 305 -391 608 -156 303 -256 471 -373 626 l-75 99 108
-6 c60 -4 156 -17 214 -31z m4614 -78 c-206 -209 -256 -281 -565 -808 -208
-356 -315 -491 -633 -800 -243 -237 -369 -331 -531 -398 -82 -34 -365 -125
-371 -119 -2 2 29 28 68 58 168 128 247 236 234 321 -17 108 -108 154 -401
204 -263 44 -345 70 -345 108 0 20 62 55 183 106 125 52 380 179 466 233 130
80 391 300 616 518 238 232 388 345 580 442 220 111 368 158 680 216 55 10
104 19 110 20 5 1 -36 -45 -91 -101z"/>
</g>
</svg>
