<?xml version="1.0" standalone="no"?>
<!DOCTYPE svg PUBLIC "-//W3C//DTD SVG 20010904//EN"
 "http://www.w3.org/TR/2001/REC-SVG-20010904/DTD/svg10.dtd">
<svg version="1.0" xmlns="http://www.w3.org/2000/svg"
 width="1024.000000pt" height="559.000000pt" viewBox="0 0 1024.000000 559.000000"
 preserveAspectRatio="xMidYMid meet">
<metadata>
Created by potrace 1.16, written by Peter Selinger 2001-2019
</metadata>
<g transform="translate(0.000000,559.000000) scale(0.100000,-0.100000)"
fill="#000000" stroke="none">
<path d="M5470 4885 c-354 -43 -622 -116 -875 -240 -281 -137 -507 -327 -626
-525 -58 -98 -80 -171 -81 -267 0 -166 71 -298 228 -423 184 -147 451 -220
798 -220 527 0 993 170 1101 401 112 240 -134 432 -555 432 -213 0 -385 -44
-535 -138 -208 -130 -237 -283 -69 -372 155 -81 442 -84 588 -5 66 36 42 39
-46 6 -69 -26 -83 -28 -233 -29 -143 0 -167 2 -229 24 -45 15 -84 38 -113 64
-37 34 -43 45 -43 79 0 88 76 170 225 243 165 81 358 114 553 95 253 -24 410
-107 448 -237 14 -49 14 -58 -1 -108 -10 -29 -30 -68 -46 -87 l-29 -33 10 28
c15 44 11 118 -9 162 -36 79 -166 161 -272 171 l-54 4 54 -15 c196 -56 287
-154 267 -287 -14 -96 -88 -164 -251 -231 -333 -138 -829 -179 -1165 -96 -176
43 -242 77 -341 174 -97 96 -143 224 -119 333 37 169 170 297 456 440 278 139
568 222 947 272 183 24 482 9 694 -35 288 -60 499 -189 548 -335 29 -86 18
-189 -30 -286 l-39 -79 -6 65 c-29 296 -270 476 -732 545 -129 20 -408 19
-539 0 -111 -17 -273 -55 -265 -62 3 -3 54 4 113 15 310 60 615 55 879 -14
232 -60 401 -169 468 -301 22 -45 21 -45 -26 -1 -79 73 -275 166 -423 201
-166 40 -267 50 -485 50 -179 -1 -244 -5 -390 -27 -443 -65 -859 -226 -1004
-386 -108 -120 -109 -249 -1 -356 129 -129 408 -204 755 -204 312 1 566 70
705 192 141 124 105 292 -74 342 -101 28 -213 14 -285 -35 -59 -40 -71 -85
-32 -124 l24 -23 -23 -6 c-31 -8 -133 10 -161 29 -58 37 -65 84 -20 134 52 58
137 93 281 115 l90 14 -69 1 c-283 4 -472 -214 -257 -296 65 -25 221 -21 221
5 0 4 -14 12 -32 17 -72 22 -67 81 12 124 32 18 64 26 122 29 97 6 154 -10
207 -55 132 -113 19 -282 -250 -373 -126 -43 -258 -60 -468 -60 -219 0 -351
16 -475 56 -372 120 -432 348 -143 541 147 99 436 206 687 257 319 64 583 80
830 51 254 -29 473 -105 609 -209 71 -54 106 -111 122 -196 12 -68 12 -70 -15
-108 -29 -43 -120 -125 -208 -190 -246 -181 -748 -341 -1228 -393 -252 -27
-629 -10 -891 41 -532 102 -830 323 -833 615 -1 143 59 271 188 401 103 103
227 185 436 286 91 45 159 83 152 85 -31 11 -298 -87 -473 -173 -244 -120
-480 -293 -598 -439 -198 -244 -200 -484 -5 -694 90 -97 256 -200 422 -261 52
-19 66 -29 82 -60 10 -20 38 -61 62 -91 l43 -54 0 -115 c0 -110 1 -118 34
-184 73 -149 230 -266 473 -349 9 -3 28 -28 42 -55 68 -135 253 -272 473 -352
57 -20 62 -25 68 -58 10 -55 43 -112 96 -169 27 -28 49 -61 49 -73 0 -27 32
-90 59 -114 l20 -19 -29 -27 c-24 -22 -30 -37 -30 -69 0 -33 7 -47 40 -82 22
-23 39 -43 38 -44 -63 -36 -116 -76 -143 -108 -41 -48 -75 -132 -75 -186 0
-40 17 -101 29 -101 3 0 25 20 48 44 51 54 135 95 273 134 208 59 312 103 366
157 12 12 47 32 79 45 32 13 79 40 105 61 26 21 67 43 91 49 24 6 76 27 115
46 126 60 214 183 186 261 l-10 28 -1 -26 c-2 -54 -33 -119 -79 -164 -114
-113 -359 -172 -595 -146 -180 21 -290 62 -381 142 -41 36 -92 116 -82 126 2
2 23 -8 47 -21 217 -121 530 -132 738 -26 79 40 140 96 166 153 l23 48 16 -23
c21 -29 21 -100 0 -144 -37 -77 -146 -144 -269 -164 -27 -4 -102 -11 -165 -16
-99 -6 -110 -9 -80 -17 46 -12 240 -2 307 17 117 32 192 86 234 168 26 51 23
146 -5 177 -18 19 -16 22 50 88 42 41 81 92 99 128 26 53 30 71 31 151 1 86 3
95 36 150 20 33 44 82 54 111 21 59 28 64 138 88 166 37 321 4 412 -89 75 -77
91 -151 53 -252 -37 -98 -133 -168 -207 -149 -38 9 -82 59 -82 92 0 45 34 90
78 104 49 14 79 1 84 -38 4 -38 23 -26 22 14 -2 42 -17 60 -65 75 -74 22 -164
-26 -200 -107 -23 -49 -24 -94 -4 -142 21 -50 42 -72 90 -94 161 -74 386 82
425 294 13 69 0 153 -31 204 -25 40 -37 38 -16 -4 96 -186 -44 -448 -261 -489
-75 -14 -171 43 -188 112 -10 38 2 104 24 133 23 32 79 71 101 71 9 0 3 -8
-16 -20 -119 -72 -74 -234 66 -234 123 1 223 119 223 264 1 144 -78 237 -241
282 -91 25 -189 23 -302 -6 -111 -29 -124 -34 -325 -131 -291 -140 -597 -233
-784 -236 -30 -1 -66 -5 -80 -10 -41 -14 228 -2 300 14 234 52 344 93 660 245
58 28 106 47 108 42 5 -15 -54 -120 -102 -181 -93 -119 -305 -257 -482 -315
-162 -53 -256 -67 -439 -68 -122 0 -195 5 -260 17 -227 44 -434 141 -565 263
-48 45 -117 140 -108 149 10 10 155 -38 178 -59 72 -66 192 -133 324 -181 167
-60 230 -70 446 -70 205 0 270 10 439 65 85 28 220 92 251 118 18 16 -1 10
-65 -19 -109 -50 -261 -100 -375 -125 -119 -26 -391 -26 -510 0 -167 36 -378
128 -465 202 l-30 25 41 -5 c167 -23 271 -28 474 -23 412 9 655 69 1090 269
115 53 243 99 330 119 131 29 214 25 350 -15 24 -8 24 -7 5 7 -65 48 -234 60
-370 28 -103 -25 -154 -44 -405 -151 -331 -141 -460 -178 -750 -215 -135 -18
-489 -20 -606 -5 -466 63 -746 198 -857 415 -14 28 -28 66 -32 85 l-7 35 35
-45 c145 -183 481 -333 862 -386 146 -20 372 -28 465 -16 72 9 69 9 -75 11
-565 6 -1051 167 -1246 414 -34 43 -39 55 -39 103 0 30 2 54 5 54 3 0 50 -31
103 -70 53 -38 147 -94 207 -124 569 -284 1273 -309 2100 -76 138 38 238 53
365 54 190 0 302 -37 408 -137 78 -75 122 -172 122 -275 0 -30 4 -41 11 -36
20 12 4 152 -25 217 -63 142 -231 241 -448 263 l-67 7 49 56 c49 56 89 130 90
164 0 9 22 45 49 80 26 34 62 87 79 117 30 53 102 253 102 282 0 8 14 27 31
44 86 80 191 222 244 328 81 165 107 298 86 436 -25 161 -80 267 -204 397
-203 212 -531 355 -931 408 -143 18 -503 19 -656 0z m615 -25 c211 -22 454
-89 629 -175 292 -143 470 -347 516 -589 49 -260 -104 -576 -403 -829 -261
-222 -706 -433 -1099 -521 -264 -59 -370 -70 -678 -70 -307 1 -422 13 -680 70
-113 25 -395 113 -387 120 2 2 73 -5 158 -16 262 -33 524 -44 742 -31 735 44
1254 198 1627 481 177 135 287 288 331 458 24 95 24 149 -1 246 -54 213 -207
344 -520 444 -531 170 -1234 97 -1815 -188 -244 -120 -387 -238 -449 -370 -25
-53 -31 -81 -34 -148 -5 -93 10 -145 60 -221 16 -24 27 -45 25 -48 -11 -10
-111 119 -143 182 -77 158 -58 324 57 492 49 71 193 218 279 283 431 329 1126
496 1785 430z m-2290 -486 c-133 -80 -264 -204 -327 -309 -66 -109 -97 -247
-78 -345 32 -165 164 -321 360 -424 140 -73 402 -147 651 -183 159 -22 682
-25 829 -5 328 47 630 128 887 240 334 145 581 391 616 611 13 85 3 146 -34
219 l-29 57 49 -52 c85 -91 126 -245 102 -381 -14 -79 -63 -189 -118 -266
-149 -209 -451 -400 -823 -522 -310 -102 -790 -169 -1205 -168 -605 1 -1109
114 -1408 315 -209 142 -306 346 -252 533 28 96 40 97 41 3 2 -346 399 -605
1096 -717 181 -28 431 -43 596 -36 250 12 200 23 -128 29 -173 3 -346 10 -385
17 -454 76 -680 149 -886 287 -79 52 -185 159 -221 223 -62 107 -75 253 -31
351 57 128 325 344 608 491 142 74 184 89 90 32z m3060 -1176 c-78 -239 -655
-557 -1200 -662 -228 -43 -546 -52 -790 -21 -138 17 -425 75 -495 100 -50 18
-50 18 -50 7 0 -12 195 -69 315 -92 432 -82 814 -77 1170 15 380 98 767 292
957 479 45 44 40 24 -20 -69 -58 -91 -184 -215 -295 -290 -49 -33 -84 -61 -78
-63 18 -6 111 49 192 114 l81 65 -28 -51 c-15 -28 -50 -75 -78 -105 l-51 -55
-96 -15 c-104 -16 -211 -40 -354 -80 -308 -85 -557 -118 -905 -119 -174 0
-267 5 -360 18 -493 70 -905 268 -1104 529 -16 21 -26 40 -23 43 8 8 197 -46
247 -71 167 -84 528 -179 820 -217 135 -17 571 -17 700 0 378 51 734 162 1050
328 113 60 300 181 365 238 22 19 42 33 44 31 1 -2 -5 -28 -14 -57z m-730
-1294 c-17 -36 -53 -78 -107 -129 -48 -44 -74 -75 -65 -75 9 0 55 38 102 84
75 74 83 79 69 48 -21 -51 -69 -110 -131 -162 -154 -128 -388 -199 -619 -187
-108 5 -139 -6 -56 -20 154 -26 386 9 531 80 39 19 71 33 71 30 0 -17 -46 -76
-78 -101 -112 -86 -241 -125 -412 -125 -113 0 -187 14 -295 54 -101 38 -177
89 -232 156 -41 51 -73 126 -60 140 4 3 26 -8 50 -26 136 -104 333 -145 577
-122 126 12 261 42 328 74 66 30 43 31 -50 2 -117 -37 -251 -55 -408 -55 -156
0 -242 16 -341 61 -66 30 -94 58 -46 45 147 -40 454 -28 642 24 191 53 399
167 505 275 l45 46 3 -31 c2 -20 -7 -53 -23 -86z m-993 -673 c133 -71 235 -93
435 -93 79 1 143 -1 143 -4 0 -10 -92 -49 -155 -65 -90 -24 -272 -25 -358 -3
-122 31 -187 79 -187 136 0 21 32 68 46 68 1 0 35 -18 76 -39z m58 -196 c47
-13 82 -24 79 -24 -29 -4 -221 -78 -252 -98 -54 -34 -40 -39 24 -9 129 60 273
104 359 111 47 3 93 9 103 11 9 3 17 1 17 -4 0 -17 -157 -82 -299 -123 -177
-50 -242 -78 -303 -130 l-48 -40 0 34 c0 53 25 124 62 172 31 41 141 124 163
124 6 0 48 -11 95 -24z"/>
<path d="M5593 4673 c-24 -2 -43 -7 -43 -11 0 -4 78 -7 173 -8 541 -3 994
-194 1135 -479 19 -36 40 -89 48 -117 20 -65 28 -57 13 13 -46 215 -254 402
-564 507 -228 77 -537 115 -762 95z"/>
<path d="M6453 4664 c4 -4 49 -21 100 -38 106 -36 205 -89 280 -150 72 -58 83
-64 57 -28 -43 58 -175 139 -305 187 -64 24 -145 42 -132 29z"/>
<path d="M5010 4601 c-276 -59 -589 -206 -737 -348 -52 -49 -51 -49 93 48 131
88 246 148 379 197 114 43 275 92 304 92 21 1 81 28 61 28 -8 1 -53 -8 -100
-17z"/>
<path d="M7066 4128 c33 -123 10 -316 -55 -455 -122 -260 -350 -459 -756 -659
-189 -93 -227 -118 -104 -68 123 50 325 156 435 230 258 170 442 405 498 635
20 84 21 239 1 307 -21 68 -37 77 -19 10z"/>
<path d="M3270 3866 c-56 -149 26 -362 184 -478 65 -47 57 -32 -29 55 -124
124 -170 244 -146 379 12 67 8 87 -9 44z"/>
<path d="M6525 3513 c-165 -155 -413 -294 -686 -383 -52 -17 -100 -33 -108
-36 -8 -2 -11 -7 -8 -10 16 -16 298 85 450 161 159 80 374 239 421 309 27 42
5 29 -69 -41z"/>
<path d="M3825 4847 c-59 -27 -125 -116 -125 -168 0 -12 -12 -48 -26 -80 -30
-67 -27 -104 4 -43 31 60 41 65 139 67 117 3 162 25 222 108 24 33 50 63 57
66 25 9 15 21 -33 38 -66 23 -199 30 -238 12z m212 -27 l32 -12 -47 -60 c-64
-83 -96 -98 -201 -98 l-84 0 24 26 c33 36 95 71 152 85 53 13 65 32 15 23 -51
-10 -144 -54 -169 -80 -33 -35 -42 -30 -24 14 19 44 56 85 99 107 35 18 146
15 203 -5z"/>
<path d="M4350 4833 c-26 -10 -60 -46 -60 -64 0 -49 100 -42 123 8 10 22 8 28
-12 44 -24 20 -27 21 -51 12z m44 -32 c10 -15 -31 -43 -58 -39 -25 3 -26 4
-11 26 16 22 59 30 69 13z"/>
<path d="M3366 4425 c-24 -24 -38 -54 -31 -65 20 -32 101 17 93 57 -4 24 -41
28 -62 8z m44 -13 c0 -14 -39 -46 -47 -39 -3 4 2 16 12 27 19 21 35 26 35 12z"/>
<path d="M3833 4191 c-59 -42 -135 -125 -171 -184 -101 -168 -95 -323 18 -473
42 -56 161 -149 182 -142 7 3 -9 19 -35 36 -66 46 -139 123 -169 179 -93 174
-43 356 151 541 81 77 88 89 24 43z"/>
<path d="M5788 4152 c-16 -9 -28 -22 -28 -28 0 -16 66 -46 93 -42 30 4 34 41
8 67 -25 25 -38 26 -73 3z m70 -34 c2 -11 -3 -18 -13 -18 -25 0 -56 20 -49 31
10 16 58 6 62 -13z"/>
<path d="M6110 4011 c0 -5 12 -16 26 -26 31 -20 54 -71 54 -122 0 -44 21 -79
76 -127 l39 -35 -23 -42 c-12 -23 -19 -45 -16 -48 7 -7 54 49 54 65 0 6 9 19
21 30 34 31 59 90 59 139 0 74 -39 129 -112 160 -40 16 -178 21 -178 6z m180
-33 c64 -33 85 -67 85 -138 0 -41 -5 -64 -16 -75 -15 -15 -17 -11 -22 45 -4
45 -12 70 -32 95 -28 38 -58 49 -31 13 31 -43 46 -87 46 -138 0 -27 -3 -50 -7
-50 -15 0 -85 73 -94 97 -5 13 -9 41 -9 62 0 24 -9 52 -25 75 l-24 36 42 0
c25 0 62 -10 87 -22z"/>
<path d="M4565 3900 c-16 -11 -40 -20 -53 -20 -80 0 -127 -108 -85 -195 20
-42 26 -43 41 -10 6 13 30 37 53 52 49 32 60 57 49 107 -7 33 -6 38 20 53 16
9 27 20 24 25 -8 12 -16 10 -49 -12z m-70 -74 c-27 -40 -12 -52 15 -12 31 44
40 45 40 4 0 -40 -3 -44 -59 -87 -48 -37 -61 -32 -60 24 0 39 20 74 50 91 31
16 34 12 14 -20z"/>
<path d="M4540 3538 c-31 -51 -24 -73 18 -61 27 7 29 21 3 25 -18 3 -18 5 -5
22 13 19 14 19 34 1 27 -24 37 -12 16 20 -22 34 -42 32 -66 -7z"/>
<path d="M7216 3469 c-74 -81 -70 -123 11 -98 42 13 48 19 55 49 7 33 -6 90
-21 90 -4 0 -24 -18 -45 -41z m47 -26 c-6 -2 -9 -12 -6 -22 3 -13 -5 -20 -33
-29 -21 -6 -39 -10 -41 -8 -2 2 12 22 32 46 19 23 35 47 36 53 0 7 6 1 12 -12
9 -18 9 -25 0 -28z"/>
<path d="M4790 3403 c0 -7 2 -13 4 -13 2 0 11 -3 20 -6 11 -4 16 0 16 14 0 15
-6 20 -20 19 -11 -1 -20 -7 -20 -14z"/>
<path d="M2935 3220 c19 -65 102 -170 133 -170 11 0 0 17 -30 48 -25 26 -60
70 -78 97 -18 29 -29 39 -25 25z"/>
<path d="M7120 3153 c0 -60 -1 -62 -30 -68 -52 -11 -94 -62 -118 -141 -17 -56
-30 -79 -60 -106 -22 -20 -45 -37 -52 -40 -8 -2 -10 -9 -6 -17 13 -21 142 -3
212 29 87 39 119 84 119 165 0 39 -6 70 -16 86 -9 13 -18 48 -21 77 -8 80 -28
91 -28 15z m-10 -98 c0 -9 -16 -48 -36 -88 -31 -60 -33 -69 -14 -52 25 23 70
106 70 130 0 27 19 6 29 -33 27 -97 -56 -184 -197 -207 l-43 -7 33 44 c21 27
39 67 47 101 10 46 20 63 53 92 46 38 58 43 58 20z"/>
<path d="M3090 2837 c0 -19 7 -53 15 -76 12 -36 12 -45 0 -76 -33 -78 -10
-179 56 -244 51 -51 111 -74 208 -79 84 -5 216 12 226 29 3 5 -15 18 -40 30
-55 26 -81 59 -127 159 -53 117 -117 160 -236 160 -48 0 -53 2 -63 28 -6 15
-13 42 -16 60 -8 45 -23 51 -23 9z m181 -128 c66 -23 99 -57 146 -155 30 -63
57 -104 81 -124 20 -16 32 -33 28 -37 -4 -5 -58 -8 -119 -8 -97 0 -119 4 -159
24 -81 40 -138 120 -138 197 0 33 12 84 19 84 17 0 51 -81 52 -121 1 -24 5
-55 10 -69 6 -17 7 -7 3 35 l-5 60 36 -35 c20 -19 47 -59 60 -89 14 -30 28
-52 31 -48 3 3 -2 19 -10 36 -9 16 -16 32 -16 35 0 2 26 -11 57 -30 50 -30 83
-42 83 -30 0 2 -24 18 -53 34 -29 16 -59 38 -67 47 -14 17 -12 18 33 13 31 -4
45 -2 39 4 -5 5 -35 12 -66 15 -49 5 -61 10 -82 38 -13 17 -24 35 -24 40 0 4
26 5 58 2 54 -6 56 -5 27 8 -16 8 -48 14 -70 15 -34 0 -44 5 -58 29 -9 15 -14
31 -10 35 10 10 77 7 114 -5z"/>
<path d="M3435 2845 c4 -16 17 -41 31 -55 19 -20 28 -23 42 -14 37 24 22 84
-22 84 -20 0 -20 -1 3 -19 17 -13 22 -24 17 -37 -7 -18 -9 -17 -29 7 -12 14
-28 35 -35 45 -11 17 -12 16 -7 -11z"/>
<path d="M6700 2642 c0 -13 24 -22 60 -22 16 0 53 -9 82 -20 53 -20 53 -20 30
0 -35 30 -172 64 -172 42z"/>
<path d="M6390 2172 c-29 -14 -35 -23 -37 -53 -1 -21 4 -45 11 -55 12 -16 18
-14 70 31 56 49 69 78 40 89 -26 10 -47 7 -84 -12z m73 -8 c7 -7 -72 -83 -85
-84 -5 0 -8 14 -8 30 0 25 6 34 33 45 36 16 51 18 60 9z"/>
<path d="M3870 2145 c-41 -15 -41 -15 -17 -76 17 -43 23 -48 88 -73 64 -25 71
-26 98 -12 16 9 31 23 35 32 6 17 1 22 -60 65 -16 12 -38 35 -47 50 -18 32
-39 35 -97 14z m87 -38 c15 -18 43 -44 61 -56 26 -18 31 -26 21 -37 -16 -20
-39 -18 -101 10 -45 20 -56 30 -64 58 -9 30 -8 34 16 45 36 16 36 16 67 -20z"/>
<path d="M6230 1611 c0 -54 8 -71 35 -71 36 0 55 10 55 31 0 23 -38 66 -67 74
-21 6 -23 3 -23 -34z m54 -13 c18 -25 7 -44 -18 -35 -17 7 -23 57 -7 57 6 0
17 -10 25 -22z"/>
<path d="M4600 1610 c0 -6 9 -23 21 -39 11 -15 26 -50 33 -77 10 -42 16 -49
38 -52 20 -2 31 4 44 22 30 47 -10 104 -100 141 -23 10 -36 11 -36 5z m106
-75 c19 -29 15 -69 -7 -73 -11 -2 -18 10 -26 40 -6 24 -14 51 -18 62 -7 16 -6
17 13 7 12 -7 29 -23 38 -36z"/>
<path d="M4830 1186 c-16 -21 -9 -60 13 -64 41 -8 64 48 28 68 -25 13 -26 13
-41 -4z m29 -33 c0 -5 -3 -9 -9 -11 -5 -2 -10 4 -10 13 0 16 16 14 19 -2z"/>
</g>
</svg>
