<?xml version="1.0" standalone="no"?>
<!DOCTYPE svg PUBLIC "-//W3C//DTD SVG 20010904//EN"
 "http://www.w3.org/TR/2001/REC-SVG-20010904/DTD/svg10.dtd">
<svg version="1.0" xmlns="http://www.w3.org/2000/svg"
 width="1024.000000pt" height="559.000000pt" viewBox="0 0 1024.000000 559.000000"
 preserveAspectRatio="xMidYMid meet">
<metadata>
Created by potrace 1.16, written by Peter Selinger 2001-2019
</metadata>
<g transform="translate(0.000000,559.000000) scale(0.100000,-0.100000)"
fill="#000000" stroke="none">
<path d="M5695 4667 c-3 -83 -5 -365 -3 -626 2 -368 6 -475 16 -479 9 -3 12
126 12 622 0 357 -4 627 -9 630 -5 3 -12 -61 -16 -147z"/>
<path d="M4305 4713 c-267 -31 -522 -159 -723 -361 -134 -133 -222 -273 -285
-448 -61 -169 -60 -159 -66 -909 l-6 -690 -95 -6 c-52 -4 -162 -10 -243 -14
-139 -8 -171 -15 -151 -35 5 -5 123 -1 264 8 l255 17 3 96 3 96 182 6 c100 4
291 12 424 19 220 10 267 9 251 -7 -3 -3 -64 -9 -136 -13 -73 -5 -135 -11
-139 -15 -4 -4 -9 -36 -11 -71 l-4 -63 -172 -10 -171 -10 -32 36 c-32 36 -46
32 -18 -5 23 -31 19 -34 -49 -34 -36 0 -68 -4 -71 -10 -4 -6 24 -10 77 -10
l83 -1 42 -57 c35 -48 39 -58 25 -63 -9 -3 -90 -9 -178 -13 l-162 -7 -28 50
c-36 67 -52 66 -18 0 14 -28 23 -53 21 -55 -2 -2 -68 -7 -146 -11 -78 -3 -144
-11 -148 -16 -4 -6 50 -7 153 -3 l159 8 38 -78 c29 -57 35 -79 26 -85 -7 -4
-70 -11 -141 -14 -70 -4 -128 -12 -128 -17 0 -8 173 -4 261 7 l35 5 69 -148
c37 -81 119 -250 183 -375 63 -125 113 -229 111 -231 -2 -2 -73 -8 -157 -15
-195 -15 -248 -34 -67 -24 72 4 156 8 189 8 l59 0 77 -143 c43 -79 82 -148 89
-155 27 -27 6 25 -64 160 -41 78 -75 145 -75 147 0 2 44 7 98 11 53 3 173 13
266 21 126 11 172 11 182 3 8 -6 51 -67 96 -135 44 -68 85 -124 90 -124 10 0
-4 25 -98 171 l-62 97 46 6 c26 3 146 15 267 26 222 21 280 28 272 36 -5 5
-524 -33 -572 -42 -28 -5 -34 -1 -65 43 -19 26 -69 92 -112 146 -43 53 -78
101 -78 106 0 4 66 13 148 20 253 20 282 23 282 34 0 6 -27 8 -77 3 -241 -20
-365 -28 -377 -23 -20 8 -271 386 -262 394 4 4 84 13 179 20 95 7 179 14 189
15 16 3 138 -127 383 -407 63 -71 146 -159 186 -195 l72 -64 68 -1 67 0 117
-134 c64 -73 113 -136 111 -139 -3 -3 -70 -11 -148 -18 -331 -30 -461 -44
-467 -50 -7 -8 147 1 384 21 94 8 191 17 216 18 l47 4 107 -124 c102 -118 145
-155 110 -95 -9 15 -54 70 -100 122 -46 52 -83 96 -81 97 2 2 68 8 147 13 355
24 447 31 487 36 42 5 43 5 136 -85 52 -50 100 -91 107 -91 16 0 -9 30 -96
111 l-70 66 30 6 c17 3 125 15 240 27 258 25 340 41 175 34 -98 -4 -245 -18
-428 -39 l-43 -5 -121 113 c-138 129 -177 161 -184 154 -3 -2 57 -63 132 -135
l137 -130 -34 -6 c-19 -3 -146 -12 -284 -21 -137 -8 -275 -17 -305 -20 l-55
-5 -89 104 c-49 58 -104 119 -122 137 -19 18 -34 37 -34 41 0 4 21 8 47 8 26
0 120 7 208 15 88 8 243 21 345 30 341 28 444 37 570 50 69 7 127 11 129 9 2
-2 -2 -24 -9 -50 -10 -36 -19 -48 -42 -56 -68 -24 -52 -98 20 -98 21 0 46 6
55 13 9 6 28 52 42 101 14 50 28 92 30 95 5 4 243 29 292 30 20 1 21 -5 28
-102 4 -56 5 -124 3 -150 l-3 -48 -115 92 c-130 104 -188 144 -196 137 -3 -4
230 -193 315 -254 1 -2 -3 -35 -10 -75 -12 -67 -11 -73 6 -85 24 -18 76 -18
100 -1 15 12 17 22 11 57 -5 34 -4 41 6 33 7 -5 52 -40 101 -77 48 -37 87 -62
87 -54 0 12 -112 106 -182 151 l-28 19 0 183 0 183 31 6 c17 3 61 6 98 6 36 0
83 4 103 9 l37 9 11 -72 c15 -97 31 -167 42 -190 8 -15 18 -17 51 -13 66 9 83
58 32 91 -15 10 -27 32 -33 63 -6 26 -9 49 -7 51 5 5 324 -212 325 -220 0 -5
-15 -8 -34 -8 -19 0 -92 -6 -163 -14 -70 -8 -189 -20 -263 -27 -170 -16 -221
-31 -80 -24 204 11 538 47 561 60 3 3 18 -4 32 -15 27 -21 57 -26 57 -10 0 6
-99 76 -220 156 l-220 146 0 129 c0 72 5 161 11 199 l12 69 54 27 c73 35 95
71 90 143 -3 48 -8 59 -40 86 -20 18 -68 43 -107 56 -67 23 -71 25 -81 64 -9
30 -8 47 1 70 35 85 17 145 -45 145 -38 0 -40 2 -24 31 16 31 -5 49 -57 49
-36 0 -47 -5 -60 -25 -15 -24 -15 -27 0 -44 10 -11 16 -35 16 -67 0 -42 -6
-57 -43 -107 l-42 -59 -135 3 c-82 2 -149 -1 -170 -8 -19 -6 -59 -14 -88 -18
-30 -3 -93 -19 -140 -35 -114 -38 -142 -67 -142 -146 0 -70 9 -87 65 -119 24
-15 46 -34 49 -43 10 -34 26 -175 21 -181 -3 -3 -92 -12 -197 -21 l-190 -16 6
53 c3 30 3 66 -1 81 -6 21 -9 10 -18 -53 l-10 -80 -115 -11 c-327 -32 -580
-48 -591 -37 -7 7 -12 89 -13 224 -2 118 -7 226 -11 242 -9 34 12 152 31 168
8 7 82 15 181 20 93 4 245 13 340 20 94 6 177 8 182 4 7 -3 11 -44 11 -98 1
-71 3 -88 11 -73 7 11 10 52 7 101 l-4 82 110 7 c61 4 197 13 301 21 105 8
255 19 335 25 177 13 210 18 210 32 0 12 -134 7 -445 -17 -482 -37 -524 -39
-538 -26 -8 6 -39 25 -68 41 l-54 30 35 0 c42 1 278 15 488 30 84 6 164 15
179 21 23 8 25 12 12 24 -8 8 -84 41 -169 75 -309 122 -340 135 -340 141 0 3
38 9 84 13 l84 6 224 -84 c322 -122 491 -187 511 -197 20 -12 25 13 5 29 -16
12 -187 79 -493 193 -132 49 -251 94 -265 100 -14 6 -97 38 -185 71 -88 32
-207 77 -264 99 -56 21 -120 42 -141 45 -36 6 -38 8 -29 31 26 69 -3 674 -39
813 -45 172 -127 321 -247 448 -150 160 -336 273 -540 329 -92 25 -115 27
-285 28 -102 0 -200 -3 -219 -8 -63 -14 -24 4 51 24 247 63 506 42 743 -62
383 -167 647 -517 704 -933 12 -85 17 -100 32 -90 12 7 5 87 -17 189 -119 563
-629 974 -1199 963 -44 0 -93 -3 -110 -5z m271 -132 c307 -77 575 -290 713
-567 91 -182 109 -297 116 -707 l5 -317 -43 0 c-23 0 -208 -7 -412 -15 -203
-8 -453 -18 -555 -21 -298 -10 -311 -22 -291 -262 7 -78 10 -146 7 -151 -3 -5
-96 -12 -207 -16 -111 -4 -299 -13 -418 -20 -119 -6 -220 -9 -224 -5 -5 4 -6
268 -4 586 4 617 5 630 57 784 57 171 140 308 264 438 98 102 149 140 263 196
176 87 272 107 488 102 118 -3 181 -10 241 -25z m1164 -1725 c140 -53 259
-102 264 -107 6 -5 -5 -9 -30 -9 -21 0 -56 -4 -76 -9 -34 -8 -60 0 -265 83
l-228 91 -200 -3 c-186 -3 -203 -2 -240 17 l-39 21 29 1 c17 1 89 5 160 9 72
4 184 7 250 6 l120 -2 255 -98z m-823 67 c24 -10 43 -21 43 -24 0 -3 -88 -9
-195 -13 -188 -7 -289 -17 -301 -29 -12 -12 12 -29 221 -158 118 -72 215 -136
215 -140 0 -5 6 -9 12 -9 7 0 73 -37 146 -81 l133 -81 236 12 236 13 68 -34
c38 -18 69 -36 69 -39 0 -8 -260 -27 -480 -36 -180 -7 -217 -17 -242 -60 -22
-37 -23 -79 -16 -381 l6 -213 -28 23 c-15 12 -102 89 -194 172 l-166 150 0 77
c0 45 -4 78 -10 78 -6 0 -10 -28 -10 -65 0 -36 -3 -65 -6 -65 -3 0 -72 60
-155 133 l-149 132 0 118 c0 71 -4 117 -10 117 -6 0 -10 -42 -10 -105 0 -124
5 -123 -106 -18 l-71 68 -9 150 c-10 175 -9 244 4 257 6 6 45 -16 100 -54 l91
-63 2 -75 3 -75 3 68 c2 37 6 67 8 67 3 0 75 -48 160 -107 l156 -107 -3 -73
c-2 -40 0 -73 5 -73 4 0 7 29 7 65 0 36 4 65 8 65 4 0 86 -54 182 -120 164
-113 207 -137 198 -108 -3 7 -83 67 -178 133 l-173 120 56 3 c33 2 57 8 57 14
0 7 -22 9 -69 4 l-69 -6 -151 103 c-83 56 -151 105 -151 110 0 4 23 7 50 7 31
0 50 4 50 11 0 8 -19 10 -67 5 l-66 -7 -83 56 c-46 30 -88 55 -94 55 -5 0 -10
4 -10 9 0 9 101 17 405 30 286 13 296 12 342 -6z m923 -227 c245 -98 456 -183
470 -189 22 -9 18 -11 -40 -18 -36 -5 -177 -15 -315 -24 -243 -15 -445 -27
-652 -41 l-101 -7 -96 59 -96 59 168 14 168 13 113 -56 c62 -32 115 -55 118
-52 7 7 -46 39 -137 84 l-75 36 3 143 c2 95 0 143 -7 143 -7 0 -11 -52 -13
-142 l-3 -143 -142 -6 c-78 -4 -158 -10 -178 -13 -33 -7 -53 3 -270 136 -129
79 -234 146 -234 149 -1 3 160 11 357 19 196 7 359 14 362 17 3 3 39 3 80 1
70 -3 105 -16 520 -182z m1090 -174 c0 -5 -13 -7 -30 -4 -16 2 -30 6 -30 8 0
2 14 4 30 4 17 0 30 -4 30 -8z m-8 -46 c2 -16 11 -22 36 -24 21 -2 38 -12 48
-28 15 -22 15 -28 -5 -82 -18 -46 -20 -64 -11 -86 18 -48 12 -95 -15 -121 -19
-20 -34 -25 -75 -25 -69 0 -100 29 -100 94 0 36 7 54 37 93 40 52 54 118 36
170 -10 26 -8 28 18 29 21 1 29 -4 31 -20z m-2733 -89 c36 -34 88 -81 115
-105 27 -23 47 -44 44 -47 -2 -2 -60 -10 -128 -16 l-124 -11 -105 111 -106
111 40 5 c22 3 65 7 95 8 30 2 66 4 79 5 18 1 43 -16 90 -61z m-145 -173 c17
-22 26 -44 26 -68 0 -20 -2 -36 -5 -36 -6 0 -66 66 -139 152 -46 54 -56 73
-56 103 l0 37 74 -79 c40 -43 85 -92 100 -109z m-147 34 c33 -40 95 -111 137
-158 l77 -85 -43 -6 c-24 -4 -113 -10 -199 -14 l-156 -8 -47 69 c-27 37 -50
73 -53 80 -3 8 33 14 129 19 199 11 204 26 7 21 l-165 -5 -38 50 c-59 80 -65
75 104 82 84 4 159 11 168 17 9 5 18 10 18 10 1 0 28 -33 61 -72z m2663 -40
c28 -30 22 -50 -17 -60 -17 -5 -34 -16 -37 -26 -8 -24 -67 -52 -109 -52 -38 0
-97 33 -97 55 0 30 60 11 92 -29 l18 -21 0 21 c0 22 -23 47 -54 58 -25 9 -23
10 69 45 97 36 109 37 135 9z m-2027 -128 c64 -57 117 -107 117 -112 0 -4 -35
-8 -77 -8 -43 -1 -112 -5 -153 -10 l-75 -9 -44 47 c-25 26 -78 81 -118 123
-83 87 -83 89 30 90 40 0 92 4 117 8 35 6 49 4 65 -9 11 -9 73 -63 138 -120z
m2238 97 c10 -61 46 -90 118 -95 71 -5 101 10 127 61 9 17 18 33 19 35 5 6
138 -47 156 -64 67 -61 -44 -130 -266 -165 -114 -18 -398 -16 -517 4 -177 30
-311 99 -282 145 15 23 61 49 118 66 41 13 47 13 42 0 -3 -8 -8 -20 -12 -28
-8 -21 44 -74 85 -87 38 -11 66 -7 137 22 29 11 40 8 145 -36 80 -33 129 -48
164 -49 47 -1 50 1 50 24 0 32 -51 61 -159 90 -45 12 -87 24 -93 26 -10 2 -10
9 -2 27 8 18 8 30 -1 46 -11 22 -11 22 77 19 l88 -3 6 -38z m-2453 -299 c-1
-27 -4 -48 -7 -47 -3 0 -37 37 -76 82 -38 44 -88 101 -110 126 -35 40 -40 51
-37 86 l3 39 114 -119 115 -120 -2 -47z m-686 176 l57 -79 -77 -6 c-42 -4
-130 -10 -194 -13 l-117 -7 -41 80 c-40 80 -40 81 -18 86 24 5 305 23 323 20
6 -1 36 -37 67 -81z m3190 -32 c26 -26 -42 -11 -155 33 -64 25 -120 45 -126
45 -6 0 -11 6 -11 13 0 15 271 -70 292 -91z m-503 -81 c263 -63 659 -44 836
39 33 16 61 27 64 25 2 -3 -12 -20 -31 -39 -87 -87 -418 -130 -718 -91 -172
21 -281 54 -327 97 -42 40 -26 48 35 18 31 -16 95 -38 141 -49z m-2530 -118
c45 -71 106 -162 136 -205 l54 -76 -107 -7 c-165 -10 -179 -25 -17 -18 l140 5
46 -59 c112 -143 179 -231 179 -236 0 -7 -57 -13 -319 -33 -208 -16 -215 -15
-228 2 -22 30 -158 302 -263 526 l-97 206 116 7 c64 3 125 7 136 9 11 2 48 4
81 5 l61 1 82 -127z m1023 12 c67 -60 159 -143 202 -184 l80 -74 125 7 c70 3
178 11 241 16 115 9 115 9 153 -17 21 -15 40 -29 42 -33 2 -4 -60 -12 -138
-18 -78 -6 -227 -19 -332 -27 -104 -9 -238 -19 -298 -23 l-108 -7 -34 35 c-19
20 -35 39 -35 42 0 3 43 9 95 13 54 4 95 12 95 18 0 13 -169 1 -187 -15 -7 -6
-15 -9 -17 -7 -2 2 -79 85 -171 184 -102 111 -161 181 -152 183 19 4 278 20
299 18 9 0 72 -50 140 -111z m-311 -111 l163 -176 -3 -47 c-4 -70 9 -78 -131
84 -52 60 -119 135 -147 166 -48 51 -53 60 -53 102 0 26 2 47 4 47 3 0 78 -79
167 -176z m1782 146 c5 -4 11 -44 14 -89 5 -69 3 -81 -11 -87 -17 -7 -22 -49
-6 -59 22 -14 3 -156 -41 -308 l-20 -68 -37 3 c-45 4 -47 18 -5 37 37 16 56
65 73 178 17 117 9 317 -16 396 -5 16 -2 18 18 12 12 -4 27 -11 31 -15z m250
-35 l77 -7 0 -54 0 -54 -140 0 -140 0 0 29 c0 15 -3 49 -6 74 l-6 45 68 -13
c38 -8 104 -17 147 -20z m533 8 c-19 -88 -25 -232 -16 -348 12 -138 21 -172
52 -196 25 -19 16 -39 -17 -39 -21 0 -24 7 -39 88 -9 48 -21 131 -27 185 -8
84 -8 100 6 113 19 19 19 29 0 48 -23 23 -21 152 3 165 31 19 44 13 38 -16z
m-84 -50 l-4 -58 -124 -2 -124 -3 0 28 c0 63 8 72 64 73 28 1 76 4 106 9 30 4
62 8 70 9 12 1 14 -10 12 -56z m-279 -50 c-8 -90 -9 -640 -2 -703 4 -33 2 -35
-30 -38 l-33 -3 8 48 c10 51 7 419 -4 646 l-7 137 38 0 37 0 -7 -87z m267 -43
c0 -6 -46 -9 -122 -8 l-123 2 105 6 c58 3 113 7 123 8 9 1 17 -2 17 -8z m-360
-12 c0 -5 -63 -8 -140 -8 -77 0 -140 3 -140 8 0 4 63 7 140 7 77 0 140 -3 140
-7z m400 -16 c0 -12 -281 -144 -289 -136 -3 4 -1 9 4 11 6 2 69 33 140 68 138
67 145 70 145 57z m-785 -149 c-8 -62 13 -56 -260 -78 -104 -9 -207 -18 -227
-21 l-38 -6 0 49 0 49 250 21 c137 12 255 25 261 28 33 21 -22 24 -187 10
-367 -30 -328 -30 -368 0 -20 15 -36 31 -36 36 0 5 21 9 47 9 25 0 126 7 222
16 97 8 212 18 256 22 l80 7 3 -45 c2 -25 1 -68 -3 -97z m216 92 c70 -30 139
-57 153 -61 14 -3 26 -10 26 -15 0 -12 8 -14 -126 35 -160 60 -194 75 -194 86
0 15 4 14 141 -45z m459 50 c0 -5 -155 -85 -165 -85 -3 0 -5 18 -5 40 l0 39
83 4 c45 1 83 4 85 5 1 1 2 0 2 -3z m-290 -29 c0 -13 3 -31 6 -40 4 -10 1 -16
-7 -16 -17 0 -170 60 -183 72 -6 4 33 8 87 8 96 0 97 0 97 -24z m378 -101 c-2
-1 -50 -6 -108 -9 l-105 -6 65 30 c36 16 81 38 100 48 l35 18 8 -39 c5 -21 7
-40 5 -42z m-458 -3 l75 -26 -45 -7 c-25 -4 -92 -10 -149 -14 l-104 -8 6 39
c4 21 7 51 7 66 l0 28 68 -26 c37 -14 101 -38 142 -52z m-1770 -131 l0 -55
-42 42 c-41 39 -43 44 -39 93 l3 51 39 -38 c36 -35 39 -42 39 -93z m920 65 l0
-43 -57 -7 c-32 -3 -195 -17 -363 -32 -168 -14 -340 -29 -383 -33 -43 -4 -80
-5 -82 -2 -3 2 -5 23 -5 47 l0 42 53 6 c52 6 311 27 567 47 74 5 142 11 150
13 8 2 39 4 68 5 l52 1 0 -44z"/>
<path d="M6935 2423 c-19 -19 -15 -77 8 -100 20 -20 46 4 54 51 5 31 2 42 -12
52 -24 18 -30 18 -50 -3z m45 -29 c0 -8 -5 -25 -12 -37 -11 -21 -11 -21 -19
-2 -14 36 -10 55 11 55 11 0 20 -7 20 -16z"/>
<path d="M6330 2105 c7 -8 19 -15 27 -15 13 0 13 3 3 15 -7 8 -19 15 -27 15
-13 0 -13 -3 -3 -15z"/>
<path d="M6281 4369 c-79 -21 -149 -43 -155 -49 -7 -7 -14 -140 -19 -408 -8
-428 -1 -597 26 -617 21 -15 247 -65 307 -68 l45 -2 3 579 c1 419 -1 583 -9
592 -16 19 -35 17 -198 -27z m177 -57 l3 -60 -56 -7 c-48 -6 -68 -3 -147 26
-50 18 -86 35 -78 37 46 16 257 69 265 67 6 -1 11 -29 13 -63z m-233 -56 c33
-14 75 -28 94 -32 l33 -7 -7 -171 c-7 -151 -8 -511 -2 -590 2 -26 -4 -32 -73
-67 -41 -21 -87 -43 -102 -48 l-28 -10 0 481 c0 380 3 479 13 475 6 -3 39 -17
72 -31z m234 -441 c1 -223 -2 -405 -6 -405 -5 0 -24 5 -44 10 l-36 10 -7 105
c-4 58 -4 235 0 394 l7 290 36 3 c20 2 39 2 42 1 3 -1 7 -185 8 -408z m-36
-423 l37 -4 0 -69 c0 -67 -1 -69 -22 -64 -57 13 -258 55 -265 55 -4 0 35 22
87 49 52 26 102 46 110 43 8 -3 32 -7 53 -10z"/>
<path d="M3770 2410 c12 -16 26 -30 31 -30 11 0 4 16 -19 43 -25 29 -35 19
-12 -13z"/>
</g>
</svg>
