<?xml version="1.0" standalone="no"?>
<!DOCTYPE svg PUBLIC "-//W3C//DTD SVG 20010904//EN"
 "http://www.w3.org/TR/2001/REC-SVG-20010904/DTD/svg10.dtd">
<svg version="1.0" xmlns="http://www.w3.org/2000/svg"
 width="1024.000000pt" height="559.000000pt" viewBox="0 0 1024.000000 559.000000"
 preserveAspectRatio="xMidYMid meet">
<metadata>
Created by potrace 1.16, written by Peter Selinger 2001-2019
</metadata>
<g transform="translate(0.000000,559.000000) scale(0.100000,-0.100000)"
fill="#000000" stroke="none">
<path d="M5565 4794 c-22 -2 -128 -8 -235 -14 -107 -5 -330 -17 -495 -25 -165
-9 -464 -25 -665 -35 -201 -11 -554 -30 -785 -41 -231 -12 -425 -26 -432 -31
-15 -12 -10 -1020 7 -1253 8 -116 10 -273 6 -495 -4 -185 -2 -450 5 -615 l10
-290 34 -40 c18 -23 99 -110 181 -195 192 -202 371 -403 552 -620 168 -201
230 -266 291 -304 47 -30 41 -30 206 0 138 24 443 72 625 98 185 26 261 36
480 61 540 62 795 100 1435 210 116 20 235 41 265 45 30 5 100 16 155 25 55 9
109 18 120 19 18 2 21 12 26 107 4 57 9 401 13 764 6 612 23 1209 46 1670 5
105 10 269 10 367 l0 176 -42 20 c-24 11 -72 27 -108 35 -36 9 -177 45 -315
81 -137 36 -340 83 -450 106 -216 44 -440 94 -520 115 -27 7 -93 25 -145 39
-91 25 -150 29 -275 20z m211 -35 c322 -84 449 -114 669 -158 138 -28 293 -62
345 -76 52 -14 195 -51 317 -83 122 -31 220 -58 218 -60 -1 -2 -47 -12 -101
-23 -92 -19 -102 -20 -144 -5 -42 15 -172 47 -265 65 -22 5 -114 25 -205 45
-151 34 -249 57 -780 186 l-174 43 -306 -17 c-168 -9 -503 -26 -745 -37 -569
-25 -751 -35 -1083 -59 -371 -27 -382 -27 -462 14 l-65 34 75 6 c41 3 149 8
240 11 91 3 233 10 315 15 200 13 605 35 1200 65 723 37 848 44 853 50 8 7 12
7 98 -16z m-149 -271 c-3 -113 0 -265 9 -398 7 -118 14 -355 14 -525 l0 -310
-39 -1 c-39 -1 -39 -1 -34 33 10 62 -61 99 -106 54 -15 -15 -28 -18 -65 -14
-33 4 -59 0 -95 -16 -65 -28 -73 -27 -59 4 9 19 7 34 -6 70 -10 25 -21 45 -25
45 -13 0 -33 -90 -27 -120 3 -17 1 -30 -4 -30 -14 0 -12 -37 3 -47 7 -4 -12
-12 -48 -18 -58 -10 -60 -11 -63 -42 -3 -35 11 -48 107 -95 43 -21 48 -21 218
-9 96 6 188 14 204 18 l29 6 0 -241 0 -241 -45 19 c-25 11 -51 17 -58 15 -6
-2 -100 -13 -207 -25 -259 -27 -240 -21 -240 -74 0 -34 5 -47 22 -58 21 -14
21 -17 11 -92 -6 -43 -13 -79 -15 -81 -5 -5 -250 -35 -286 -35 l-31 0 2 658
c1 508 -1 668 -11 706 -31 118 -106 217 -200 265 -57 29 -162 42 -244 31 -128
-18 -233 -86 -304 -195 -89 -140 -103 -304 -86 -1034 7 -283 11 -515 9 -517
-3 -3 -130 -16 -367 -39 -85 -8 -204 -21 -265 -30 -60 -8 -117 -15 -127 -15
-14 0 -17 25 -20 248 -3 136 0 360 5 497 6 187 5 346 -7 630 -8 209 -18 529
-22 711 l-6 332 123 6 c68 4 178 11 244 17 254 20 861 52 1400 74 385 16 687
33 694 41 20 20 24 -12 18 -178z m103 162 c36 -11 92 -27 125 -35 33 -8 179
-43 325 -79 146 -36 396 -95 555 -131 160 -35 309 -70 333 -76 l42 -11 0 -242
c0 -132 -9 -430 -20 -661 -45 -957 -51 -1127 -51 -1482 -1 -205 -4 -375 -7
-377 -9 -5 -178 93 -302 175 -203 133 -339 219 -445 279 -211 119 -499 296
-534 326 -3 3 -7 26 -11 54 -6 45 -4 49 16 54 27 7 35 27 28 64 -4 22 -20 36
-65 61 l-59 32 0 244 0 243 43 7 c102 15 98 13 95 57 -3 38 -5 40 -68 67 -51
21 -65 31 -63 47 11 100 13 472 3 629 -15 247 -25 775 -14 775 5 0 38 -9 74
-20z m-2604 -246 c2 -71 9 -325 15 -564 14 -483 18 -1740 7 -1740 -5 0 -8 -9
-8 -21 0 -33 30 -72 275 -359 188 -221 322 -365 478 -515 l167 -160 0 -92 c0
-51 -3 -93 -8 -93 -15 0 -172 169 -297 320 -164 198 -336 390 -495 555 -69 72
-156 163 -193 204 l-68 74 -4 731 c-2 421 -8 784 -14 856 -6 69 -10 276 -10
460 1 184 -2 385 -6 447 l-7 112 82 -43 83 -43 3 -129z m4260 -321 c-4 -153
-11 -357 -16 -453 -16 -290 -29 -823 -35 -1410 -3 -305 -8 -632 -11 -727 l-6
-171 -47 -7 c-56 -7 -628 -103 -871 -145 -273 -47 -719 -108 -1135 -155 -328
-36 -607 -78 -1022 -150 -78 -14 -144 -25 -147 -25 -3 0 -6 42 -6 93 l0 93 63
2 c34 1 110 10 167 21 140 27 372 64 605 96 481 66 903 135 1410 230 72 13
249 45 395 70 146 25 280 52 297 60 19 9 34 24 37 37 3 13 7 250 10 528 2 278
9 588 15 690 32 571 44 901 45 1208 1 295 3 343 16 346 22 7 179 36 234 45 5
0 6 -114 2 -276z m-2934 -205 c42 -32 92 -125 107 -198 29 -143 36 -421 24
-972 l-6 -307 -56 -6 c-31 -3 -110 -12 -176 -20 -98 -12 -332 -35 -356 -35
-13 0 -20 903 -9 1078 12 194 26 240 100 339 101 133 280 191 372 121z m121 0
c53 -27 118 -94 144 -149 48 -101 54 -176 51 -559 -2 -195 -2 -471 -1 -612 1
-142 0 -258 -3 -258 -3 0 -39 23 -80 51 l-75 52 7 471 c7 460 0 670 -27 810
-12 67 -49 144 -90 190 l-33 39 34 -8 c19 -4 52 -16 73 -27z m665 -545 c-2
-15 -8 -28 -15 -30 -17 -6 -25 31 -13 63 10 26 12 27 21 11 6 -10 9 -29 7 -44z
m306 1 c31 -12 18 -52 -25 -81 -107 -72 -127 -76 -233 -39 -87 31 -104 46 -45
41 36 -4 39 -3 14 4 l-30 8 40 8 c22 4 48 12 59 17 13 7 16 7 12 -1 -10 -16
38 -35 68 -27 37 9 32 25 -6 22 -18 -2 -23 -1 -10 1 12 2 22 9 22 14 0 5 12 6
26 3 19 -5 29 -1 40 15 15 21 39 26 68 15z m138 -122 c26 -10 50 -20 53 -24 6
-6 -138 -23 -351 -42 l-142 -12 -53 31 -54 30 73 3 c53 2 78 -1 94 -13 15 -9
45 -15 85 -15 56 0 66 3 95 30 29 26 41 29 93 30 34 0 80 -8 107 -18z m-452
-114 c0 -18 -5 -17 -62 15 -40 22 -64 43 -66 55 -3 18 3 17 62 -15 48 -25 66
-40 66 -55z m550 48 c0 -16 -28 -21 -190 -36 -63 -6 -155 -15 -205 -20 -127
-14 -135 -13 -135 8 0 17 13 20 128 26 70 4 174 13 232 20 143 19 170 19 170
2z m-178 -548 c26 -12 48 -25 48 -29 0 -4 -26 -11 -57 -15 -32 -4 -52 -9 -45
-12 8 -2 40 1 73 7 48 10 63 9 86 -2 35 -19 37 -18 -215 -53 -188 -26 -203
-27 -219 -12 -15 16 -14 17 8 22 59 13 60 15 4 11 -43 -3 -65 0 -79 10 -11 8
-18 17 -15 19 2 2 40 9 83 15 44 6 82 14 85 17 6 6 -75 -3 -149 -17 -33 -6
-49 -4 -59 6 -11 11 1 14 75 20 49 4 136 13 194 20 58 7 111 13 119 14 8 0 36
-9 63 -21z m-452 -83 c0 -23 -2 -24 -20 -13 -11 7 -20 23 -20 36 0 20 3 21 20
12 12 -6 20 -21 20 -35z m48 -11 c19 -13 32 -54 17 -54 -17 0 -55 35 -55 51 0
23 9 24 38 3z m562 -14 c0 -11 -1 -20 -2 -20 -2 0 -30 -5 -63 -10 -33 -6 -123
-19 -200 -30 -77 -12 -152 -23 -167 -26 -25 -5 -28 -3 -28 20 0 20 5 26 23 26
30 0 245 29 332 45 100 18 105 18 105 -5z m-482 -59 c2 -11 0 -21 -4 -21 -16
0 -44 34 -44 53 0 18 2 18 23 5 12 -9 23 -25 25 -37z m-48 -21 c30 -19 61 -34
68 -32 9 2 12 -25 12 -113 0 -63 -4 -115 -8 -115 -17 0 -32 25 -32 52 0 16 -7
44 -14 63 -12 29 -20 35 -45 35 -22 0 -34 -7 -43 -25 -9 -16 -17 -22 -26 -16
-11 6 -11 20 -3 66 6 32 11 76 11 97 0 29 3 37 13 31 6 -4 37 -24 67 -43z
m442 -97 c5 -94 4 -101 -12 -93 -11 6 -20 27 -24 58 -10 80 -70 108 -98 46
-16 -35 -38 -12 -35 37 1 21 2 39 2 40 0 4 152 24 156 20 4 -3 9 -52 11 -108z
m53 10 c4 -60 8 -110 8 -113 0 -3 -6 -6 -15 -8 -13 -2 -17 14 -22 95 -4 54
-10 106 -12 116 -4 12 0 17 14 17 18 0 20 -10 27 -107z m-235 58 c0 -25 -4
-27 -62 -35 -46 -7 -48 -6 -48 18 0 20 6 25 33 29 71 9 77 8 77 -12z m-130
-93 c0 -51 3 -103 6 -114 4 -16 0 -23 -15 -27 -20 -5 -21 -2 -21 114 0 99 3
119 15 119 12 0 15 -17 15 -92z m-661 20 l91 -62 122 13 c68 7 140 15 161 18
29 4 37 2 37 -10 0 -20 46 -49 73 -45 12 2 27 14 33 26 15 30 23 17 31 -48 5
-42 11 -53 38 -70 27 -17 36 -18 68 -8 l37 11 0 94 c0 84 2 93 19 93 10 0 33
3 51 7 23 4 31 3 26 -5 -10 -17 35 -52 67 -52 20 0 30 6 34 20 9 34 21 22 29
-25 4 -33 14 -52 36 -70 34 -29 34 -29 78 -14 32 12 32 12 27 66 -4 39 -3 52
6 46 7 -3 44 -28 82 -53 107 -72 270 -171 370 -225 116 -63 262 -153 452 -279
83 -56 192 -123 242 -151 50 -27 91 -52 91 -56 0 -5 -92 -22 -345 -65 -49 -8
-182 -32 -295 -54 -481 -91 -842 -150 -1365 -225 -248 -35 -491 -71 -540 -80
-50 -9 -139 -25 -200 -35 -60 -11 -121 -20 -135 -20 -34 0 -395 356 -580 570
-73 85 -159 184 -190 220 -79 90 -153 180 -174 211 l-17 27 58 4 c32 3 139 15
238 27 99 11 259 29 355 38 l175 18 -3 76 -4 76 134 7 c73 4 192 16 263 26
218 30 218 30 324 -42z m881 15 c0 -5 -4 -15 -10 -23 -11 -18 -25 -7 -17 15 6
15 27 21 27 8z m-389 -76 c-8 -8 -11 -7 -11 4 0 20 13 34 18 19 3 -7 -1 -17
-7 -23z"/>
<path d="M6255 3531 c-5 -261 -4 -365 4 -375 20 -24 241 -110 252 -99 13 13
25 575 15 685 l-8 77 -98 31 c-55 17 -112 33 -128 36 l-29 6 -8 -361z m109
309 l69 -25 -7 -80 c-3 -44 -6 -173 -6 -286 l0 -206 -72 -31 c-40 -16 -74 -29
-76 -27 -2 1 2 110 9 241 6 132 8 286 4 343 -3 57 -3 102 2 100 5 -2 40 -15
77 -29z m117 -40 c18 -10 19 -24 19 -290 0 -153 -4 -281 -8 -284 -5 -3 -18 2
-30 10 -22 15 -22 19 -22 295 0 191 3 279 11 279 6 0 19 -5 30 -10z m-23 -586
c30 -14 32 -19 32 -70 0 -30 -3 -54 -7 -54 -4 0 -47 17 -97 37 l-89 37 64 32
c35 17 64 32 65 33 0 0 15 -6 32 -15z"/>
<path d="M5494 3316 c-8 -20 -1 -49 12 -53 17 -6 46 26 42 46 -4 21 -46 27
-54 7z m36 -14 c0 -13 -12 -22 -22 -16 -10 6 -1 24 13 24 5 0 9 -4 9 -8z"/>
<path d="M5518 2593 c12 -2 30 -2 40 0 9 3 -1 5 -23 4 -22 0 -30 -2 -17 -4z"/>
<path d="M4354 2266 l50 -43 -124 -13 c-69 -7 -119 -15 -112 -18 18 -6 434 37
468 49 26 8 25 9 -11 4 -22 -2 -78 -7 -125 -11 l-85 -6 -47 41 c-25 23 -50 41
-55 41 -4 0 14 -20 41 -44z"/>
<path d="M5410 2248 c0 -2 34 -28 75 -58 41 -30 75 -57 75 -60 0 -5 -229 -33
-370 -46 l-65 -5 -95 76 c-52 42 -99 79 -105 82 -13 6 46 -50 120 -113 l59
-52 -94 -6 c-52 -4 -133 -12 -180 -17 -145 -15 -204 -12 -226 12 -10 12 -41
40 -69 62 -49 39 -48 39 13 -24 l63 -65 -143 -13 c-79 -7 -177 -16 -218 -22
l-74 -9 -56 53 c-83 80 -104 90 -31 15 l64 -67 -34 -5 c-19 -3 -119 -15 -222
-27 l-188 -22 -87 84 c-81 78 -71 61 22 -38 22 -24 38 -44 35 -47 -2 -2 -71
-12 -153 -22 -82 -10 -144 -20 -137 -22 7 -2 80 4 163 13 l151 17 87 -94 c48
-51 86 -95 84 -97 -3 -3 -41 -10 -87 -17 -45 -6 -68 -12 -52 -13 17 0 59 4 95
10 l65 11 107 -114 c123 -130 128 -116 -47 -143 -60 -9 -117 -21 -125 -26 -11
-7 -8 -8 10 -4 14 3 81 14 150 25 l125 19 83 -86 c45 -47 82 -89 82 -94 0 -5
-15 -9 -32 -10 -18 0 -73 -9 -123 -19 -98 -21 -55 -20 88 1 l89 13 52 -54 c29
-30 63 -64 77 -75 l24 -20 -15 20 c-7 11 -39 46 -69 78 -31 31 -51 57 -46 57
6 0 120 16 255 35 l244 35 58 -57 c32 -32 58 -53 58 -47 0 6 -22 32 -50 58
-56 53 -62 48 80 67 47 6 87 13 89 15 8 8 -75 3 -153 -10 l-78 -13 -90 85
c-49 47 -85 89 -81 93 4 4 50 12 102 18 51 6 96 13 100 17 3 4 -16 4 -44 1
-27 -4 -81 -9 -120 -13 l-70 -6 -113 107 c-62 59 -111 110 -108 112 6 7 259
42 357 49 52 5 78 3 83 -5 4 -6 12 -11 18 -11 7 0 6 5 -2 14 -13 17 -17 16
165 40 289 39 275 38 300 22 30 -20 47 -20 21 -1 -11 8 -18 16 -15 18 4 3 49
10 308 44 116 15 126 15 152 -1 28 -16 43 -6 17 11 -8 5 6 10 37 14 l50 7 -57
-1 c-56 -1 -60 1 -138 62 -45 35 -80 64 -78 66 2 2 44 9 93 15 95 12 189 30
183 35 -2 2 -71 -5 -153 -16 l-150 -19 -87 60 c-78 54 -98 66 -98 58z m250
-188 c104 -77 104 -76 -2 -89 -51 -6 -150 -19 -220 -28 l-126 -17 -79 65 c-90
73 -90 73 32 84 44 3 121 13 170 20 148 21 150 21 225 -35z m-461 -62 c42 -34
78 -63 80 -65 10 -7 -15 -12 -204 -37 -110 -14 -210 -29 -222 -31 -17 -4 -42
13 -109 72 l-87 78 59 7 c32 5 131 14 219 22 88 7 166 14 174 15 8 0 48 -27
90 -61z m-484 -54 c47 -42 84 -79 81 -81 -2 -2 -96 -17 -208 -32 -235 -32
-207 -39 -321 77 l-69 69 124 12 c68 7 157 16 198 20 41 5 83 9 92 10 10 0 56
-33 103 -75z m-450 -55 c47 -45 84 -84 81 -86 -6 -6 -384 -62 -421 -63 -25 0
-44 15 -112 87 -45 49 -79 91 -75 94 8 8 324 46 394 48 46 1 49 -1 133 -80z
m304 -293 c19 -20 29 -36 23 -36 -7 0 -103 -13 -214 -30 -110 -16 -211 -30
-225 -30 -18 0 -51 28 -126 106 -56 59 -103 110 -105 115 -2 5 11 9 30 9 18 1
119 13 223 29 l190 28 85 -78 c47 -42 101 -93 119 -113z m141 -132 c50 -48 89
-89 87 -91 -3 -2 -69 -12 -148 -23 -79 -10 -189 -26 -244 -34 -78 -12 -102
-13 -111 -3 -102 111 -144 161 -139 165 5 6 397 67 447 71 9 0 58 -38 108 -85z"/>
<path d="M6085 1973 c-34 -4 -219 -31 -256 -38 -13 -2 -107 -16 -209 -30 -102
-14 -223 -32 -270 -40 -47 -8 -137 -19 -200 -25 -168 -16 -280 -30 -321 -40
-47 -13 -64 -48 -45 -93 19 -44 324 -343 369 -362 46 -19 127 -19 197 -1 l55
15 30 -30 c17 -16 35 -29 40 -29 6 0 -5 13 -24 29 -31 26 -33 29 -15 34 31 10
251 44 362 57 89 11 105 10 115 -3 7 -8 26 -22 42 -32 l30 -17 -32 29 c-18 16
-33 33 -33 36 0 4 15 7 33 7 18 0 89 11 157 24 69 13 161 29 205 36 l80 13 48
-33 c25 -19 49 -31 53 -28 3 4 -13 19 -35 34 -23 15 -40 28 -39 30 2 1 50 12
108 23 132 26 159 37 166 67 11 44 -15 82 -88 130 -172 111 -356 221 -387 232
-33 12 -73 13 -136 5z m-35 -39 c-53 -18 -89 -39 -93 -55 -8 -31 27 -63 162
-148 120 -75 133 -81 183 -81 78 0 189 26 212 50 18 17 19 23 8 40 -7 11 -10
20 -7 20 15 0 143 -91 149 -105 11 -29 7 -53 -11 -59 -9 -4 -139 -29 -287 -57
-262 -48 -395 -69 -671 -104 -113 -14 -192 -29 -360 -65 -67 -15 -147 -12
-182 8 -18 9 -104 88 -193 175 -205 203 -207 213 -40 236 47 6 137 16 200 21
63 5 159 16 212 25 54 8 148 22 210 30 152 20 297 42 388 59 72 13 151 20 120
10z m260 -52 c46 -26 109 -70 140 -99 50 -47 54 -53 39 -67 -13 -14 -158 -45
-209 -46 -14 0 -93 48 -238 143 -35 24 -61 48 -60 56 5 24 119 56 213 60 19 1
61 -16 115 -47z"/>
<path d="M4855 1718 c17 -12 66 -58 110 -102 73 -73 248 -210 200 -156 -11 12
-45 40 -76 61 -31 21 -76 59 -100 86 -51 56 -141 133 -155 133 -5 0 5 -10 21
-22z"/>
<path d="M6497 1634 c-49 -8 -126 -23 -170 -34 -45 -11 -163 -31 -262 -45 -99
-14 -205 -30 -235 -35 -50 -8 -47 -8 25 -4 117 7 283 31 420 60 66 14 174 35
240 48 132 26 121 32 -18 10z"/>
<path d="M5395 1455 c-27 -7 -41 -13 -30 -14 11 0 45 6 75 14 30 7 44 13 30
13 -14 0 -47 -6 -75 -13z"/>
<path d="M5200 1390 c0 -11 2 -20 4 -20 2 0 6 9 9 20 3 11 1 20 -4 20 -5 0 -9
-9 -9 -20z"/>
<path d="M6332 1719 c-24 -12 -41 -24 -38 -27 3 -3 12 0 20 7 8 7 43 18 78 26
57 12 59 13 23 14 -22 1 -59 -9 -83 -20z"/>
<path d="M3663 1693 c9 -2 23 -2 30 0 6 3 -1 5 -18 5 -16 0 -22 -2 -12 -5z"/>
<path d="M4008 1243 c7 -3 16 -2 19 1 4 3 -2 6 -13 5 -11 0 -14 -3 -6 -6z"/>
</g>
</svg>
