<?xml version="1.0" standalone="no"?>
<!DOCTYPE svg PUBLIC "-//W3C//DTD SVG 20010904//EN"
 "http://www.w3.org/TR/2001/REC-SVG-20010904/DTD/svg10.dtd">
<svg version="1.0" xmlns="http://www.w3.org/2000/svg"
 width="1024.000000pt" height="559.000000pt" viewBox="0 0 1024.000000 559.000000"
 preserveAspectRatio="xMidYMid meet">
<metadata>
Created by potrace 1.16, written by Peter Selinger 2001-2019
</metadata>
<g transform="translate(0.000000,559.000000) scale(0.100000,-0.100000)"
fill="#000000" stroke="none">
<path d="M4705 5136 c-363 -115 -517 -163 -900 -286 -82 -27 -238 -76 -345
-110 -107 -34 -220 -70 -250 -80 -30 -10 -143 -46 -250 -80 -107 -33 -206 -65
-220 -70 -14 -5 -106 -34 -205 -65 -99 -31 -196 -62 -215 -70 l-35 -13 -3
-1309 -2 -1309 1416 -704 c779 -388 1426 -706 1438 -707 11 -1 653 314 1426
700 l1405 702 0 1315 0 1314 -130 42 c-71 24 -260 84 -420 134 -159 50 -308
97 -330 105 -22 7 -76 24 -120 38 -130 40 -713 225 -940 297 -187 60 -250 80
-604 191 -156 49 -293 89 -305 88 -11 0 -196 -55 -411 -123z m405 -471 l0
-565 -40 -16 c-22 -9 -45 -25 -50 -35 -6 -10 -10 -81 -10 -158 0 -79 -4 -141
-9 -141 -5 0 -16 -3 -25 -6 -15 -6 -16 54 -16 635 0 353 -1 641 -2 641 -2 0
-66 -21 -143 -46 -77 -25 -306 -99 -510 -165 -203 -66 -408 -133 -455 -149
-80 -27 -745 -244 -1170 -383 l-195 -63 -5 -727 -5 -728 -82 -33 c-45 -19 -84
-31 -87 -28 -3 3 -6 371 -6 817 0 638 3 815 13 823 6 5 28 14 47 20 19 5 94
29 165 52 130 41 216 69 363 114 42 13 199 63 347 111 149 47 369 118 490 156
121 39 274 88 340 109 66 21 201 64 300 95 99 31 198 63 220 70 22 8 101 33
175 55 74 23 180 57 235 75 55 18 103 34 108 34 4 1 7 -253 7 -564z m181 515
c69 -21 189 -59 265 -84 77 -24 168 -54 204 -64 36 -11 160 -50 275 -87 116
-37 381 -121 590 -187 404 -128 526 -166 860 -273 116 -37 246 -78 290 -92 44
-14 98 -31 120 -38 l40 -12 3 -837 c1 -460 0 -836 -4 -836 -3 0 -28 10 -55 21
l-50 22 2 719 c0 396 -3 724 -8 729 -4 4 -75 30 -158 58 -123 41 -1271 427
-2187 735 -108 36 -201 66 -207 66 -8 0 -11 -151 -11 -526 0 -416 -3 -525 -12
-522 -7 3 -14 15 -16 29 -7 58 -12 66 -57 83 l-45 18 0 565 c0 530 1 565 17
559 10 -4 74 -25 144 -46z m1999 -850 l525 -177 3 -717 2 -717 -22 7 c-13 3
-117 44 -233 89 -115 46 -250 99 -300 118 -49 19 -178 70 -285 112 -107 42
-270 106 -363 141 -194 74 -207 80 -207 99 0 25 -41 39 495 -170 88 -35 248
-97 355 -138 107 -42 265 -103 350 -136 85 -33 156 -59 158 -57 1 2 4 302 5
666 l2 663 -40 14 c-59 21 -782 268 -1135 388 -168 57 -411 139 -540 183 -129
44 -345 117 -480 162 -135 46 -251 85 -257 88 -10 3 -13 -100 -13 -497 0 -499
0 -502 -20 -491 -20 10 -20 21 -20 530 l0 519 748 -251 c411 -138 983 -331
1272 -428z m-2340 37 l0 -633 -262 -103 c-145 -57 -353 -139 -463 -182 -110
-43 -342 -134 -515 -202 -305 -121 -316 -124 -335 -107 -38 34 -89 45 -137 31
-61 -19 -68 -27 -68 -86 0 -61 28 -44 -270 -161 -356 -139 -395 -154 -402
-154 -5 0 -8 321 -8 714 l0 715 113 36 c61 20 240 78 397 129 283 93 1038 340
1410 461 107 35 269 89 360 119 91 30 168 55 173 55 4 1 7 -284 7 -632z m941
373 c310 -105 629 -213 709 -240 80 -27 312 -106 515 -175 204 -69 432 -147
508 -172 l137 -47 0 -653 c0 -359 -2 -653 -4 -653 -2 0 -59 22 -127 48 -68 27
-232 91 -364 142 -132 51 -334 130 -450 175 -115 45 -254 99 -307 120 l-98 37
0 159 c0 177 3 170 -80 199 -30 10 -41 9 -81 -8 l-46 -20 -439 148 -439 147
-3 492 c-1 270 -1 491 1 491 2 0 258 -86 568 -190z m-734 -681 l28 -11 -33
-14 c-29 -12 -37 -12 -60 0 l-27 15 25 10 c33 13 34 13 67 0z m-77 -44 l30
-16 0 -209 0 -210 -35 0 -35 0 0 225 c0 124 2 225 5 225 4 0 19 -7 35 -15z
m120 -14 c0 -23 -7 -33 -27 -43 l-28 -13 -5 -185 -6 -185 -2 216 -2 215 28 11
c40 16 42 16 42 -16z m508 -212 c393 -132 482 -165 482 -180 0 -16 -7 -15 -72
10 -40 16 -264 92 -498 171 -234 78 -429 146 -434 151 -30 27 86 -7 522 -152z
m-171 7 c202 -68 422 -143 488 -166 66 -23 130 -44 143 -47 14 -3 22 -13 23
-27 0 -11 3 -93 6 -180 5 -152 4 -159 -13 -151 -11 4 -48 18 -84 30 -36 13
-65 27 -65 32 1 4 7 20 14 35 18 35 11 51 -39 87 -87 63 -475 209 -618 232
l-73 12 -72 -37 c-40 -20 -75 -36 -79 -36 -5 0 -8 77 -8 170 0 94 2 170 4 170
2 0 170 -56 373 -124z m-527 -89 l0 -32 -257 -102 c-342 -135 -956 -377 -1216
-479 -76 -30 -140 -54 -143 -54 -3 0 -4 14 -2 31 4 38 -119 -14 1173 494 176
69 345 136 375 149 71 31 70 31 70 -7z m0 -92 c0 -43 -1 -45 -47 -65 -98 -43
-169 -68 -213 -74 -54 -6 -191 -58 -232 -87 -38 -28 -203 -92 -368 -144 -74
-23 -205 -69 -290 -103 -222 -87 -342 -133 -366 -139 -12 -3 -35 2 -50 10
l-29 15 30 12 c30 11 307 120 590 232 83 32 218 86 300 118 340 133 436 171
550 218 66 27 121 50 123 51 1 0 2 -19 2 -44z m1340 24 c12 -6 9 -10 -13 -18
-35 -14 -39 -14 -74 0 l-28 11 30 14 c29 12 53 11 85 -7z m-915 -33 c77 -19
182 -53 315 -104 190 -73 280 -122 280 -152 0 -24 -87 -102 -144 -128 -106
-50 -116 -50 -302 13 -224 75 -469 172 -489 194 -14 17 -11 22 50 80 76 71
145 110 195 110 19 1 62 -6 95 -13z m830 -8 l25 -11 0 -304 c0 -166 -2 -303
-4 -303 -26 0 -31 15 -28 80 3 56 -1 79 -17 113 -19 39 -21 61 -21 240 0 118
4 197 10 197 5 0 21 -5 35 -12z m115 -601 l0 -613 -29 -17 c-16 -9 -32 -17
-35 -17 -3 0 -6 278 -6 618 l0 619 23 11 c49 24 47 52 47 -601z m-1240 557 c0
-4 -18 -26 -40 -50 -22 -24 -40 -50 -40 -58 0 -20 24 -43 69 -65 122 -62 585
-224 637 -222 43 1 140 38 191 72 23 16 46 29 51 29 24 0 198 -72 209 -87 17
-22 26 -112 16 -152 -8 -31 -16 -36 -156 -96 l-147 -62 0 67 c0 117 -47 158
-260 225 -63 20 -164 52 -225 71 -60 20 -189 68 -285 109 -172 72 -290 115
-317 115 -7 0 -13 5 -13 10 0 6 6 10 14 10 7 0 40 12 72 26 110 50 224 79 224
58z m-226 -146 c49 -16 163 -61 254 -100 91 -38 258 -99 371 -134 333 -104
371 -130 371 -250 0 -37 -5 -65 -12 -71 -13 -10 -169 -80 -199 -90 -14 -4 -16
2 -12 41 12 101 -26 165 -124 212 -31 14 -135 52 -232 84 -97 31 -248 89 -336
128 -191 84 -342 132 -424 134 -17 1 -31 3 -31 5 0 5 79 40 145 65 61 22 105
18 229 -24z m-241 -84 c80 -20 215 -71 381 -144 77 -33 205 -81 285 -106 247
-78 311 -117 327 -200 6 -33 1 -121 -7 -128 -2 -1 -202 -86 -444 -189 -242
-102 -502 -213 -579 -246 -76 -34 -140 -61 -142 -61 -2 0 -4 101 -4 226 l0
225 -56 25 -56 25 -54 -25 c-34 -16 -54 -31 -54 -42 0 -11 -6 -15 -17 -11 -44
14 -722 303 -723 308 0 3 30 16 68 29 37 13 151 56 254 96 104 41 232 87 285
103 96 28 273 93 343 125 39 18 94 15 193 -10z m1892 -134 c28 -10 138 -53
245 -95 107 -42 263 -103 345 -135 202 -79 395 -155 605 -238 l175 -69 3 -38
c3 -28 0 -36 -10 -32 -269 107 -1003 399 -1143 453 -369 145 -370 145 -373
182 l-3 32 53 -21 c29 -12 76 -29 103 -39z m-97 -46 c20 -8 123 -49 227 -89
105 -40 228 -89 275 -109 47 -19 240 -96 430 -171 190 -75 388 -153 440 -174
l95 -38 3 -392 c1 -215 -1 -391 -5 -391 -5 0 -29 7 -55 17 l-47 17 -3 278 c-3
322 6 296 -120 348 -65 27 -78 36 -78 55 0 12 -9 34 -21 49 -25 31 -62 34
-103 7 -28 -18 -32 -19 -65 -4 -58 25 -399 153 -489 184 -80 27 -84 27 -140
13 -141 -37 -310 -105 -369 -150 l-33 -25 0 295 c0 197 3 296 10 296 6 0 27
-7 48 -16z m-3143 -8 c19 -13 17 -15 -18 -21 -24 -5 -48 -3 -65 5 -25 12 -26
13 -7 21 31 12 69 10 90 -5z m-85 -41 l30 -16 0 -519 c0 -546 0 -541 -42 -507
-9 6 -21 39 -26 72 -10 55 -9 61 9 74 24 17 27 98 4 107 -13 5 -15 60 -15 405
0 219 2 399 5 399 4 0 19 -7 35 -15z m120 -23 c0 -33 -4 -39 -30 -49 l-30 -11
0 -85 c0 -76 2 -85 21 -93 19 -9 21 -19 23 -98 1 -84 0 -89 -22 -97 -13 -5
-25 -9 -28 -9 -2 0 -4 103 -4 230 l0 229 33 10 c17 5 33 10 35 10 1 1 2 -16 2
-37z m-192 -94 c-3 -32 -6 -34 -133 -85 -459 -182 -717 -283 -726 -283 -6 0
-9 15 -7 33 l3 32 285 111 c157 61 346 136 420 167 74 30 141 55 148 56 9 1
12 -9 10 -31z m633 -142 c495 -208 469 -196 469 -212 0 -16 2 -16 -150 49
-188 80 -542 229 -655 274 -60 24 -114 48 -119 54 -34 33 91 -12 455 -165z
m-389 110 c183 -75 335 -138 591 -246 l267 -113 0 -64 c0 -34 -1 -63 -3 -63
-1 0 -214 89 -472 199 l-470 199 -3 61 c-2 33 -1 61 2 61 3 0 42 -15 88 -34z
m2848 17 c0 -5 -55 -31 -123 -60 -67 -29 -311 -134 -542 -233 -1065 -461
-1095 -473 -1103 -465 -4 3 2 12 13 18 42 23 382 170 1040 447 116 49 320 136
455 194 135 58 248 106 253 106 4 0 7 -3 7 -7z m30 -68 c0 -52 48 -25 -380
-210 -157 -67 -420 -182 -585 -255 -606 -266 -822 -360 -829 -360 -4 0 -6 23
-4 52 l3 51 125 54 c69 30 379 164 690 297 311 134 592 256 625 270 166 74
331 144 343 145 8 1 12 -14 12 -44z m-3120 -270 c0 -162 -2 -295 -4 -295 -12
0 -116 51 -116 57 0 5 16 18 35 31 71 46 82 131 21 160 -37 19 -74 7 -94 -28
-16 -28 -20 -30 -84 -30 -49 0 -79 -6 -120 -25 -71 -33 -91 -33 -77 -1 9 19 8
34 -6 70 -10 25 -21 44 -25 41 -4 -2 -13 -25 -20 -51 -10 -35 -10 -51 -2 -64
9 -15 7 -21 -11 -33 -29 -20 -15 -44 41 -73 l42 -22 -63 -22 c-93 -34 -107
-45 -107 -85 0 -32 16 -59 41 -67 15 -5 -40 -289 -60 -305 -14 -12 -239 -103
-254 -103 -4 0 -7 180 -7 399 0 308 3 402 12 408 20 13 832 332 846 333 9 0
12 -65 12 -295z m3116 -272 c-2 -3 -18 3 -35 12 l-31 16 0 202 0 203 33 16 32
15 3 -230 c1 -126 0 -232 -2 -234z m-2669 356 c131 -56 330 -141 443 -189
l205 -87 3 -86 c1 -48 0 -87 -3 -87 -3 0 -67 27 -143 61 -75 33 -232 101 -348
149 -115 49 -222 94 -237 101 -18 8 -34 29 -48 65 -13 30 -24 52 -26 50 -2 -2
3 -21 11 -41 9 -21 16 -41 16 -46 0 -16 -46 12 -47 29 -2 26 -32 99 -33 79 0
-10 7 -32 16 -48 19 -38 11 -48 -24 -28 -20 11 -29 26 -34 59 -8 40 -2 120 8
120 2 0 110 -46 241 -101z m2578 -74 c0 -88 -3 -134 -10 -131 -5 2 -70 29
-142 60 -73 30 -141 59 -150 65 -17 9 -17 10 2 17 23 8 205 87 250 109 17 7
35 14 40 14 6 1 10 -51 10 -134z m978 -17 c307 -117 295 -99 117 -169 -111
-43 -132 -65 -110 -119 8 -18 26 -38 45 -47 29 -14 35 -14 74 6 23 12 47 19
53 15 6 -4 8 -3 5 3 -8 13 201 116 224 110 11 -3 16 -1 13 4 -12 21 29 19 85
-2 l61 -24 -83 -25 c-45 -15 -113 -43 -151 -63 -52 -27 -73 -34 -87 -27 -10 6
-21 10 -26 10 -4 -1 2 -6 15 -13 l22 -13 -34 -33 -34 -33 -333 135 c-184 75
-390 158 -458 185 l-124 50 73 37 c101 51 329 127 360 120 14 -3 146 -52 293
-107z m-2758 90 c32 -15 32 -21 -5 -35 -22 -8 -38 -8 -60 0 -36 14 -37 20 -7
35 29 14 41 14 72 0z m-62 -55 c16 -5 17 -40 17 -559 0 -305 -2 -554 -5 -554
-4 0 -19 7 -35 15 l-30 16 0 550 c0 521 1 551 18 544 9 -4 25 -10 35 -12z
m109 -523 c2 -297 1 -545 0 -550 -4 -10 -54 -40 -67 -40 -3 0 -5 247 -5 550
l0 549 28 15 c15 8 30 15 34 16 4 0 9 -243 10 -540z m-732 334 c201 -86 404
-172 452 -192 61 -26 88 -42 88 -54 0 -14 -22 -7 -122 37 -68 29 -280 121
-471 204 -192 82 -351 152 -355 155 -3 3 6 6 19 6 13 0 188 -70 389 -156z
m2297 87 l168 -70 3 -60 c3 -60 4 -61 42 -81 46 -23 75 -25 110 -5 14 8 28 14
33 15 4 0 7 -87 7 -192 0 -106 4 -198 8 -204 10 -16 48 -34 70 -34 11 0 31 9
45 20 l25 20 93 -40 c52 -21 218 -92 369 -157 l275 -119 5 -39 c4 -29 12 -43
30 -52 49 -26 110 8 110 61 0 31 5 34 140 101 92 46 143 66 148 59 8 -13 46
-34 61 -34 5 0 23 11 39 25 30 25 31 25 71 9 23 -9 41 -19 41 -23 0 -4 -375
-193 -832 -420 -458 -228 -1085 -540 -1393 -694 l-560 -279 -1403 698 c-771
383 -1402 700 -1402 704 0 4 54 27 120 52 96 37 120 43 116 30 -19 -70 -17
-91 9 -108 39 -25 69 -7 84 50 6 24 11 54 11 65 0 33 13 32 88 -4 l72 -34 0
-100 c0 -97 1 -101 26 -118 24 -15 29 -15 53 -2 25 14 26 18 29 115 l3 100 62
24 c34 13 79 32 99 42 l37 18 10 -37 c5 -21 13 -55 17 -76 7 -41 39 -63 74
-52 38 12 39 27 10 160 -15 72 -26 132 -24 134 2 2 15 -1 29 -7 20 -9 34 -7
75 10 l50 21 0 62 0 63 68 27 c37 16 104 42 148 60 l81 33 297 -131 296 -130
0 -234 0 -233 33 -20 c54 -33 94 -36 143 -9 l44 23 2 240 3 240 190 83 c105
46 249 109 320 140 117 50 662 290 775 341 25 11 53 21 62 21 10 1 93 -30 185
-68z m-2487 -56 c113 -48 223 -95 245 -105 22 -10 103 -45 180 -78 77 -33 176
-76 220 -96 l80 -35 3 -62 c2 -47 0 -60 -10 -56 -7 3 -148 65 -313 138 -165
72 -379 166 -475 208 l-175 77 -3 57 c-3 56 -3 57 20 48 13 -5 115 -48 228
-96z m-820 23 c0 -34 -16 -44 -29 -19 -14 26 5 84 19 61 6 -8 10 -27 10 -42z
m384 36 c24 -24 20 -71 -10 -101 -14 -14 -28 -22 -31 -19 -3 3 6 18 20 32 29
29 34 53 15 72 -16 16 -34 15 -53 -4 -13 -13 -15 -27 -10 -65 8 -59 -9 -89
-65 -114 -52 -23 -104 -17 -205 26 -95 40 -82 47 52 29 94 -13 184 -3 200 23
4 7 0 8 -13 2 -53 -22 -111 -26 -194 -12 -61 10 -79 16 -65 22 11 4 43 18 72
31 53 24 80 32 53 14 -11 -7 2 -10 43 -10 31 0 57 -4 57 -10 0 -15 -107 -13
-113 3 -2 6 -8 8 -13 4 -25 -24 74 -49 120 -31 21 8 20 30 -1 43 -14 8 -11 9
14 5 28 -6 33 -3 39 20 6 27 38 56 61 56 6 0 19 -7 27 -16z m3556 -94 c303
-122 616 -249 653 -264 37 -16 40 -23 29 -63 l-7 -22 -65 28 c-36 15 -127 54
-202 85 -119 51 -138 61 -138 81 0 17 -11 27 -49 44 -62 26 -71 26 -71 0 0
-13 -5 -19 -12 -16 -7 3 -95 40 -195 82 -145 62 -180 80 -176 94 3 9 7 22 9
29 3 10 12 9 41 -3 21 -9 103 -43 183 -75z m930 68 c26 -29 22 -59 -10 -75
-99 -48 -265 -129 -271 -131 -3 -2 -10 10 -14 25 -3 15 -14 36 -22 46 -15 16
-13 18 28 34 24 9 89 40 144 69 55 28 105 52 112 53 7 0 22 -9 33 -21z m-4500
-16 c0 -19 -18 -42 -32 -42 -10 0 -11 44 -1 53 13 14 33 7 33 -11z m235 -64
l25 -11 0 -188 c0 -176 -1 -189 -19 -199 -11 -5 -24 -10 -30 -10 -8 0 -11 68
-11 210 0 116 2 210 5 210 2 0 16 -5 30 -12z m3125 -244 c0 -227 -2 -255 -15
-244 -13 10 -15 52 -15 256 0 210 2 244 15 244 13 0 15 -35 15 -256z m156 186
c66 -28 138 -59 162 -70 l42 -20 0 -69 c0 -64 2 -71 27 -91 15 -12 38 -20 52
-18 25 3 26 7 29 70 l3 66 177 -72 177 -72 3 -221 2 -222 -92 41 c-51 22 -212
91 -358 153 -146 62 -286 123 -312 135 l-48 21 0 209 c0 116 4 210 9 210 5 0
62 -23 127 -50z m-3038 -53 c39 -17 72 -34 72 -37 0 -4 -35 -21 -77 -37 -43
-17 -102 -40 -130 -52 l-53 -21 0 115 0 115 58 -26 c31 -15 90 -40 130 -57z
m3662 53 c0 -5 -5 -10 -11 -10 -16 0 -6 -52 13 -64 29 -18 45 7 24 38 -9 15
-12 26 -7 26 27 0 39 -75 13 -85 -34 -13 -80 45 -67 86 7 20 35 27 35 9z m564
-36 c10 -27 7 -32 -36 -52 -24 -12 -119 -57 -212 -101 -93 -45 -173 -81 -178
-81 -10 0 0 50 15 67 5 7 14 10 20 6 5 -3 7 -1 4 5 -11 16 51 62 143 105 135
64 231 84 244 51z m-4666 -36 c36 -15 63 -30 61 -32 -2 -2 -72 -29 -156 -61
l-152 -57 -125 58 c-69 32 -123 61 -118 65 4 4 40 18 81 33 55 19 78 23 92 15
22 -11 24 -20 7 -37 -21 -21 15 -45 74 -49 69 -5 103 12 102 52 0 35 23 57 50
48 11 -3 49 -19 84 -35z m4119 27 c8 -22 -6 -33 -17 -15 -13 20 -12 30 0 30 6
0 13 -7 17 -15z m-343 -25 c3 0 -6 -175 -10 -179 -2 -2 -17 2 -34 9 l-30 12 0
94 0 94 36 -15 c20 -8 37 -15 38 -15z m-3934 -10 c27 -17 -6 -34 -65 -34 -61
0 -74 6 -55 29 14 17 96 21 120 5z m4835 -71 c9 -66 -5 -459 -16 -459 -5 0 -9
115 -9 255 0 243 9 319 25 204z m-5063 -26 c108 -49 127 -61 128 -80 0 -13 -3
-23 -7 -23 -3 0 -61 25 -129 56 -100 46 -123 60 -127 80 -2 13 -1 24 2 24 3 0
63 -26 133 -57z m466 35 c-2 -19 -24 -31 -123 -71 -66 -27 -137 -55 -158 -62
l-38 -15 3 27 c3 23 17 31 153 84 83 31 154 58 158 58 5 1 7 -9 5 -21z m4550
-189 l-3 -212 -172 -87 -173 -87 0 219 0 219 93 43 c50 24 126 60 167 80 41
19 78 36 83 36 4 0 6 -95 5 -211z m-4554 -66 c48 -228 48 -237 18 -241 -25 -4
-29 2 -46 88 -11 52 -11 62 2 69 17 10 7 51 -13 51 -8 0 -18 29 -29 88 -23
123 -23 120 24 131 3 0 23 -83 44 -186z m-505 161 c2 -2 -4 -46 -14 -98 -11
-61 -22 -96 -31 -100 -12 -5 -14 2 -9 32 5 35 4 36 -5 7 -5 -16 -8 -36 -5 -44
3 -7 0 -20 -6 -27 -6 -7 -9 -19 -6 -26 3 -8 6 -5 6 6 1 19 2 19 14 2 11 -15
11 -30 -2 -87 -13 -63 -17 -69 -39 -69 -24 0 -24 2 -18 48 3 26 21 120 38 210
30 152 33 162 52 156 12 -4 23 -8 25 -10z m397 -29 c9 -37 1 -50 -41 -62 -46
-15 -65 -8 -65 23 0 19 9 29 43 44 55 24 56 24 63 -5z m-312 -11 c43 -20 56
-30 56 -47 0 -18 -13 -27 -71 -49 l-71 -26 6 31 c4 18 9 51 13 75 3 23 7 42 8
42 1 0 28 -12 59 -26z m186 -29 c0 -8 -5 -24 -12 -35 -9 -15 -9 -24 1 -42 15
-29 11 -110 -6 -116 -10 -3 -13 21 -13 96 0 54 3 102 7 105 11 12 23 8 23 -8z
m4354 9 c14 -5 16 -38 16 -265 0 -257 0 -260 -20 -249 -19 10 -20 21 -20 265
0 140 2 255 4 255 2 0 11 -3 20 -6z m61 -501 c-2 -7 -9 -13 -15 -13 -16 0 -14
507 3 513 9 3 13 -51 15 -242 1 -135 0 -251 -3 -258z m-4466 267 c0 -121 -2
-227 -5 -235 -4 -8 -17 -15 -30 -15 l-24 0 0 235 0 235 30 0 29 0 0 -220z
m194 178 c9 -31 2 -34 -36 -16 l-32 16 25 10 c35 15 37 15 43 -10z m-60 -27
c64 -29 92 -51 64 -51 -22 0 -147 60 -147 71 0 14 14 11 83 -20z m-213 -5 c0
-8 -21 -22 -47 -32 -27 -10 -53 -21 -58 -25 -12 -9 -43 6 -34 16 7 6 119 53
132 54 4 1 7 -5 7 -13z m3655 -36 c0 -7 -6 -15 -12 -17 -8 -3 -13 4 -13 17 0
13 5 20 13 18 6 -3 12 -11 12 -18z m-3446 -9 l34 -18 -42 -16 c-23 -10 -44
-17 -46 -17 -3 0 -5 16 -5 35 0 40 9 42 59 16z m-209 -18 c0 -10 -4 -25 -10
-33 -8 -12 -14 -12 -47 4 l-38 19 35 13 c48 17 60 17 60 -3z m318 -18 c-7 -6
-52 -28 -100 -49 -127 -53 -121 -51 -117 -31 3 12 37 31 109 61 99 40 139 47
108 19z m-398 -25 c70 -35 99 -60 71 -60 -22 0 -170 76 -171 88 0 19 15 15
100 -28z m5000 -105 c0 -8 -7 -15 -15 -15 -8 0 -15 7 -15 15 0 8 7 15 15 15 8
0 15 -7 15 -15z"/>
<path d="M4590 4439 c-30 -12 -92 -35 -137 -51 l-83 -31 0 -158 c0 -87 3 -160
8 -163 4 -2 70 19 147 47 l140 52 3 163 c2 126 0 162 -10 161 -7 0 -38 -9 -68
-20z m43 -11 c-19 -30 -106 -163 -109 -167 -4 -4 -123 82 -124 89 0 5 214 87
233 89 4 1 4 -5 0 -11z m25 -221 l-3 -47 -57 41 c-32 22 -58 45 -58 50 0 6 24
47 53 92 l52 82 8 -85 c4 -47 6 -106 5 -133z m-200 80 c28 -22 52 -41 52 -43
0 -2 -26 -43 -57 -91 l-58 -86 -6 64 c-4 35 -7 97 -8 137 -1 82 -6 81 77 19z
m135 -99 c31 -23 55 -43 54 -45 -2 -1 -58 -22 -126 -47 -108 -39 -120 -42
-107 -22 9 11 35 51 58 88 24 37 48 68 53 68 6 0 36 -19 68 -42z"/>
<path d="M3935 4326 c-82 -28 -255 -88 -382 -131 l-233 -80 0 -292 c0 -272 1
-293 18 -293 17 0 63 17 530 191 l252 94 0 282 c0 263 -1 283 -17 282 -10 0
-85 -24 -168 -53z m175 -231 l0 -274 -32 -9 c-18 -5 -191 -69 -384 -141 -193
-72 -354 -131 -358 -131 -3 0 -6 128 -6 284 l0 284 23 5 c20 4 630 213 707
242 19 7 38 13 43 14 4 0 7 -123 7 -274z"/>
<path d="M3865 4238 c-93 -33 -222 -78 -285 -100 -63 -21 -134 -46 -157 -55
l-43 -16 0 -229 c0 -215 1 -230 18 -223 9 4 78 28 152 55 143 51 385 140 460
169 l45 17 3 222 c2 175 0 222 -10 221 -7 0 -89 -28 -183 -61z m159 30 c-24
-40 -86 -119 -92 -116 -24 11 -92 54 -92 58 0 5 165 67 183 69 5 1 5 -5 1 -11z
m-25 -141 c-28 -39 -53 -74 -55 -75 -1 -2 -22 10 -46 26 -24 17 -70 46 -102
65 l-57 35 32 11 c47 16 59 14 114 -24 57 -39 57 -40 118 48 l42 60 3 -37 c3
-31 -5 -48 -49 -109z m-151 -34 c56 -36 81 -57 75 -66 -29 -48 -197 -267 -204
-267 -16 0 -200 122 -197 131 2 5 48 69 103 143 90 122 101 134 120 124 11 -6
57 -35 103 -65z m202 -18 c0 -106 1 -105 -64 -52 l-29 24 43 61 c24 34 45 62
47 62 2 0 3 -43 3 -95z m-376 48 c-120 -160 -169 -223 -176 -223 -5 0 -31 15
-58 33 -47 30 -50 35 -50 75 0 47 -2 47 64 0 21 -15 43 -28 47 -28 4 0 33 35
64 78 52 71 88 100 124 102 9 0 3 -13 -15 -37z m-104 -35 c-17 -24 -39 -54
-49 -67 l-19 -24 -46 27 c-25 15 -46 30 -46 34 0 6 158 67 183 71 5 0 -6 -18
-23 -41z m430 -90 c47 -31 50 -35 50 -76 l0 -44 -51 37 c-28 20 -55 33 -60 28
-5 -5 -30 -40 -56 -78 -34 -49 -60 -76 -87 -88 -21 -10 -40 -16 -42 -14 -3 2
28 49 69 103 40 54 83 114 96 132 12 17 24 32 27 32 2 0 27 -15 54 -32z m-555
-85 c22 -14 42 -27 43 -29 4 -3 -88 -134 -94 -134 -2 0 -4 43 -4 95 0 52 3 95
8 95 4 0 25 -12 47 -27z m551 -14 c25 -17 44 -32 42 -34 -5 -5 -171 -65 -180
-65 -4 0 14 29 40 65 26 36 48 65 50 65 2 0 24 -14 48 -31z m-394 -86 c51 -31
97 -60 102 -64 5 -4 -9 -13 -31 -19 -37 -11 -42 -10 -98 24 -33 20 -63 36 -67
36 -10 0 -101 -130 -95 -136 3 -3 24 22 47 55 24 34 47 61 53 61 6 0 30 -11
54 -25 42 -25 55 -45 31 -45 -7 -1 -52 -15 -99 -33 -68 -26 -88 -30 -97 -20
-26 27 -13 69 44 147 30 42 57 76 60 76 2 0 45 -26 96 -57z"/>
<path d="M3666 4004 c-31 -42 -56 -80 -56 -85 0 -7 104 -79 115 -79 2 0 29 36
60 80 l57 80 -24 20 c-12 10 -40 28 -60 40 l-36 20 -56 -76z m110 29 c24 -16
44 -31 44 -35 0 -9 -90 -138 -96 -138 -15 0 -94 54 -94 64 0 13 88 136 97 136
3 0 25 -12 49 -27z"/>
<path d="M2898 3851 c-70 -26 -130 -50 -133 -53 -4 -3 -3 -81 1 -172 7 -163 7
-166 28 -160 12 3 76 26 144 51 l122 46 0 168 c0 155 -2 169 -17 168 -10 0
-75 -22 -145 -48z m125 16 c-52 -85 -108 -167 -116 -167 -5 0 -31 19 -59 41
-27 23 -51 39 -54 37 -4 -4 72 -72 105 -95 4 -2 -76 -133 -103 -168 -14 -18
-15 -8 -16 122 0 156 3 164 63 182 18 5 64 21 102 35 81 29 89 31 78 13z m20
-276 c-1 -2 -29 18 -62 44 -38 30 -58 52 -53 59 4 7 30 48 57 90 l50 79 5
-134 c3 -74 4 -136 3 -138z m-55 21 l54 -42 -29 -11 c-93 -36 -213 -76 -213
-72 0 3 25 45 56 94 38 59 60 86 68 81 6 -5 35 -28 64 -50z"/>
<path d="M5730 4535 c0 -3 7 -17 16 -31 9 -13 14 -27 11 -30 -3 -3 -31 4 -62
15 -49 18 -60 20 -83 9 -21 -10 -28 -21 -30 -51 -3 -32 2 -43 31 -72 38 -38
40 -73 6 -111 -14 -15 -18 -29 -13 -52 l6 -32 -31 11 c-18 6 -34 9 -37 6 -8
-7 547 -189 560 -183 6 2 3 5 -7 5 -24 1 -110 90 -127 130 -10 24 -10 35 -1
44 6 6 11 32 11 59 0 47 0 47 30 42 42 -9 49 17 16 60 -14 19 -26 39 -26 44 0
5 -7 15 -15 22 -12 10 -15 10 -15 -1 -1 -10 -4 -9 -14 4 -16 21 -26 22 -26 2
0 -23 -62 -105 -79 -105 -9 0 -43 14 -76 30 -33 16 -75 30 -92 30 -38 0 -73
30 -73 60 0 38 31 37 127 -1 29 -12 35 -11 49 3 19 19 12 50 -19 78 -20 19
-37 26 -37 15z m50 -61 c0 -12 -5 -26 -10 -29 -7 -4 -9 2 -4 19 4 16 1 33 -7
44 -13 15 -12 16 4 3 9 -7 17 -24 17 -37z m-69 -5 c45 -21 28 -20 -27 2 -43
17 -84 5 -84 -25 0 -40 34 -73 83 -79 25 -4 66 -18 92 -32 49 -25 115 -34 115
-14 0 5 4 7 10 4 6 -3 7 1 4 9 -3 9 -1 16 5 16 6 0 11 7 11 15 0 8 5 15 10 15
6 0 10 6 10 14 0 26 39 5 70 -37 19 -26 27 -44 20 -51 -6 -6 -15 -4 -25 4 -23
19 -37 0 -37 -53 0 -64 -21 -82 -80 -67 -38 11 -132 69 -149 93 -4 5 -10 4
-14 -3 -4 -7 -27 -21 -51 -32 -45 -20 -56 -42 -31 -67 10 -11 9 -13 -3 -9 -22
7 -25 66 -5 88 9 10 19 37 22 59 5 33 3 41 -10 41 -22 0 -57 48 -57 79 0 54
46 66 121 30z m35 -251 c-15 -23 -15 -27 4 -51 25 -32 26 -46 1 -23 -10 10
-21 13 -22 7 -6 -14 -65 14 -78 36 -13 25 -3 40 33 49 27 6 29 5 24 -20 -3
-14 1 -34 8 -43 11 -15 12 -12 7 24 -3 23 -3 50 1 59 6 16 8 16 22 2 15 -14
14 -18 0 -40z m102 -70 c-3 -35 -5 -38 -27 -33 -45 11 -80 70 -62 104 11 19
12 19 51 -6 37 -24 40 -30 38 -65z m36 15 c-4 -10 -8 -28 -8 -40 -2 -36 -16
-26 -16 10 0 34 6 47 23 47 5 0 6 -8 1 -17z m91 -42 c13 -28 33 -54 42 -60 14
-8 15 -10 3 -10 -8 0 -33 23 -55 52 -49 63 -51 67 -31 67 9 0 27 -22 41 -49z
m-5 -43 c9 -15 6 -16 -22 -7 -18 5 -34 9 -35 9 -1 0 -10 11 -19 25 -14 21 -14
28 -3 41 12 14 16 12 41 -18 16 -18 33 -41 38 -50z"/>
<path d="M6400 4367 c0 -2 14 -43 30 -92 17 -49 30 -91 30 -94 0 -2 -11 6 -25
19 -14 13 -27 21 -30 19 -2 -3 2 -27 10 -54 8 -26 15 -70 15 -97 0 -27 7 -59
16 -73 14 -21 14 -26 -1 -55 -19 -36 -14 -61 23 -109 28 -37 23 -58 -16 -76
-19 -8 -38 -34 -30 -40 7 -6 200 -75 208 -75 19 0 10 27 -20 65 -38 48 -38 75
0 97 28 16 30 20 29 80 -2 80 15 188 36 228 14 28 14 31 0 36 -9 4 -25 -2 -37
-12 -20 -19 -21 -19 -13 6 4 14 18 49 31 79 36 82 31 100 -19 61 -33 -26 -41
-25 -55 5 -16 36 -58 50 -88 30 -22 -14 -24 -13 -44 20 -12 19 -28 35 -36 35
-8 0 -14 -1 -14 -3z m61 -70 c15 -20 17 -20 33 -4 27 27 54 21 77 -17 21 -35
46 -39 70 -10 25 31 26 11 2 -43 -51 -115 -52 -155 -2 -107 33 32 35 30 14
-19 -8 -20 -15 -55 -15 -78 0 -22 -7 -53 -16 -69 -14 -22 -15 -34 -6 -59 6
-17 8 -32 4 -35 -9 -5 -152 40 -164 52 -6 6 -5 17 3 30 11 17 10 27 -4 59 -9
21 -18 67 -20 103 -2 36 -7 74 -11 85 -4 11 3 3 16 -17 13 -21 26 -38 31 -38
12 0 8 26 -19 111 -37 118 -37 117 -22 95 7 -10 20 -28 29 -39z m84 -436 c85
-28 86 -29 63 -45 -28 -20 -61 -20 -98 -1 -27 14 -60 51 -60 67 0 11 -1 11 95
-21z m0 -71 c7 0 16 -14 20 -31 4 -17 20 -46 37 -65 21 -24 26 -34 15 -34 -21
0 -177 60 -177 69 0 3 10 11 23 16 12 6 26 20 32 33 6 12 16 20 23 17 8 -3 20
-5 27 -5z"/>
<path d="M6496 4117 c-40 -38 -45 -66 -22 -121 15 -36 50 -66 77 -66 9 0 28
12 43 26 35 36 34 80 -2 130 -49 68 -55 69 -96 31z m83 -34 c34 -52 36 -61 19
-98 -12 -26 -47 -41 -72 -32 -24 10 -48 54 -49 93 -1 28 5 42 27 60 15 13 31
24 36 24 4 0 22 -21 39 -47z"/>
<path d="M7055 3999 c-32 -32 -38 -43 -29 -57 6 -9 22 -19 35 -22 21 -5 24
-12 22 -46 -1 -21 3 -54 9 -72 8 -26 6 -38 -6 -57 -21 -33 -74 -55 -103 -44
-13 5 -23 5 -23 1 0 -8 34 -21 329 -127 101 -36 199 -72 219 -80 19 -9 37 -13
40 -10 3 2 -16 13 -42 24 -46 20 -46 21 -40 60 5 32 2 45 -15 67 -12 15 -21
41 -21 60 0 29 3 34 25 34 61 0 71 96 15 144 -32 26 -43 31 -101 40 -53 9 -67
30 -35 51 28 18 26 35 -3 35 -21 0 -51 -30 -51 -52 0 -31 34 -58 87 -68 64
-12 90 -27 101 -60 18 -52 -14 -66 -72 -31 -17 10 -60 24 -95 30 -62 10 -111
39 -111 66 0 6 -9 28 -20 50 -11 22 -20 50 -20 63 0 17 -5 22 -17 20 -10 -2
-22 2 -28 8 -7 9 -21 1 -50 -27z m82 -13 c-1 -23 16 -76 24 -76 5 0 9 -12 9
-27 0 -14 3 -24 6 -20 3 3 16 -5 28 -19 15 -17 39 -28 81 -35 33 -6 78 -19
100 -30 75 -36 116 -15 91 46 -18 42 -35 53 -96 65 -54 10 -90 33 -90 56 0 15
27 44 42 44 6 0 0 -9 -13 -19 -20 -16 -22 -23 -13 -38 6 -10 26 -22 45 -26
102 -25 110 -29 129 -60 11 -18 20 -41 20 -53 0 -32 -33 -56 -64 -48 -26 6
-26 6 -19 -42 3 -27 14 -61 24 -75 21 -30 16 -89 -7 -89 -8 0 -14 5 -14 10 0
6 5 10 10 10 23 0 8 43 -29 83 -21 23 -46 57 -56 76 -15 29 -19 32 -27 18 -7
-13 -23 -17 -69 -17 -32 0 -67 5 -77 11 -15 10 -26 6 -62 -20 -24 -17 -52 -31
-64 -30 l-21 0 21 9 c12 4 31 20 42 35 12 15 26 24 32 20 13 -8 13 1 -2 28 -6
12 -14 51 -17 87 -5 58 -8 65 -29 68 -33 5 -40 32 -13 53 23 19 79 23 78 5z
m30 -333 c-10 -10 -21 -10 -50 -1 -20 6 -37 15 -37 19 0 5 17 17 38 28 l37 20
12 -27 c9 -21 9 -30 0 -39z m33 16 c0 -21 -5 -39 -11 -39 -6 0 -8 8 -4 19 3
10 1 30 -4 44 -8 21 -7 25 4 20 10 -3 15 -19 15 -44z m104 17 c3 -13 8 -31 12
-39 8 -22 -50 -49 -82 -37 -21 8 -24 16 -24 55 l0 45 44 0 c38 0 45 -3 50 -24z
m41 7 c18 -42 -9 -103 -44 -103 -12 0 -10 5 7 18 20 15 22 23 16 60 -7 43 7
59 21 25z m85 -106 c0 -23 -33 -34 -69 -24 -48 14 -48 15 -23 33 13 9 22 26
22 42 l0 26 35 -34 c19 -19 35 -38 35 -43z"/>
<path d="M5073 3900 c0 -30 2 -43 4 -27 2 15 2 39 0 55 -2 15 -4 2 -4 -28z"/>
<path d="M5081 3784 c0 -11 3 -14 6 -6 3 7 2 16 -1 19 -3 4 -6 -2 -5 -13z"/>
<path d="M5073 3705 c0 -27 2 -38 4 -22 2 15 2 37 0 50 -2 12 -4 0 -4 -28z"/>
<path d="M5218 3843 c7 -3 16 -2 19 1 4 3 -2 6 -13 5 -11 0 -14 -3 -6 -6z"/>
<path d="M5250 3837 c0 -7 122 -48 127 -43 3 2 -20 12 -49 21 -29 10 -59 20
-65 23 -7 2 -13 2 -13 -1z"/>
<path d="M5645 3610 c27 -12 43 -12 25 0 -8 5 -22 9 -30 9 -10 0 -8 -3 5 -9z"/>
<path d="M5710 3590 c8 -5 22 -9 30 -9 10 0 8 3 -5 9 -27 12 -43 12 -25 0z"/>
<path d="M5810 3555 c46 -18 64 -17 25 0 -16 8 -37 14 -45 14 -8 0 1 -7 20
-14z"/>
<path d="M6040 3530 c34 -11 60 -11 35 0 -11 5 -29 8 -40 8 -16 0 -15 -2 5 -8z"/>
<path d="M5455 3470 c11 -5 29 -8 40 -8 16 0 15 2 -5 8 -34 11 -60 11 -35 0z"/>
<path d="M5480 3420 c31 -10 115 -10 155 0 19 5 -7 8 -75 8 -66 0 -96 -3 -80
-8z"/>
<path d="M5960 3351 c-53 -16 -114 -54 -157 -97 -61 -61 -46 -69 17 -10 28 26
80 61 115 78 78 36 88 48 25 29z"/>
<path d="M6264 3380 c0 -52 1 -74 3 -47 2 26 2 68 0 95 -2 26 -3 4 -3 -48z"/>
<path d="M6334 3240 c0 -107 2 -151 3 -97 2 53 2 141 0 195 -1 53 -3 9 -3 -98z"/>
<path d="M6344 2690 c0 -58 1 -81 3 -52 2 28 2 76 0 105 -2 28 -3 5 -3 -53z"/>
<path d="M6100 3126 c-30 -13 -73 -31 -94 -40 -22 -9 -37 -18 -34 -21 4 -4
187 71 197 81 10 10 -18 2 -69 -20z"/>
<path d="M6158 2997 c-3 -19 -2 -25 4 -19 6 6 8 18 6 28 -3 14 -5 12 -10 -9z"/>
<path d="M4815 3345 c66 -18 137 -41 159 -50 21 -9 40 -14 42 -12 7 7 -126 54
-215 77 -127 32 -117 22 14 -15z"/>
<path d="M5727 2904 c3 -27 7 -51 9 -53 8 -9 3 75 -5 88 -5 8 -7 -5 -4 -35z"/>
<path d="M4515 3210 c11 -5 27 -9 35 -9 9 0 8 4 -5 9 -11 5 -27 9 -35 9 -9 0
-8 -4 5 -9z"/>
<path d="M4375 3094 l-180 -12 175 5 c96 3 204 8 240 13 l65 7 -60 0 c-33 0
-141 -6 -240 -13z"/>
<path d="M5024 3056 c11 -9 24 -16 30 -16 12 0 7 5 -24 19 -24 11 -24 11 -6
-3z"/>
<path d="M5070 3035 c0 -8 73 -36 78 -30 3 3 3 5 0 5 -3 0 -22 7 -42 15 -20 8
-36 13 -36 10z"/>
<path d="M4093 2993 c15 -2 37 -2 50 0 12 2 0 4 -28 4 -27 0 -38 -2 -22 -4z"/>
<path d="M4960 2990 c8 -5 20 -10 25 -10 6 0 3 5 -5 10 -8 5 -19 10 -25 10 -5
0 -3 -5 5 -10z"/>
<path d="M5170 2990 c8 -5 20 -10 25 -10 6 0 3 5 -5 10 -8 5 -19 10 -25 10 -5
0 -3 -5 5 -10z"/>
<path d="M4188 2983 c12 -2 30 -2 40 0 9 3 -1 5 -23 4 -22 0 -30 -2 -17 -4z"/>
<path d="M4285 2969 c51 -10 92 -10 50 1 -16 4 -43 8 -60 8 -25 0 -24 -2 10
-9z"/>
<path d="M5010 2972 c8 -5 26 -13 40 -16 17 -5 20 -4 10 2 -8 5 -26 13 -40 16
-17 5 -20 4 -10 -2z"/>
<path d="M4371 2956 c7 -7 181 -37 186 -33 2 3 -36 12 -84 21 -91 17 -109 19
-102 12z"/>
<path d="M4595 2910 c17 -4 39 -8 50 -8 16 0 15 2 -5 8 -14 4 -36 8 -50 8 -22
0 -22 -1 5 -8z"/>
<path d="M5372 2836 c-76 -35 -106 -54 -56 -36 47 18 150 68 139 69 -5 0 -43
-14 -83 -33z"/>
<path d="M5590 2821 c0 -12 -7 -38 -15 -59 -13 -32 -13 -35 0 -18 17 22 31 84
21 93 -3 4 -6 -4 -6 -16z"/>
<path d="M5050 2696 c-14 -8 -88 -37 -165 -65 -163 -60 -194 -73 -150 -64 47
9 293 102 328 124 36 21 26 25 -13 5z"/>
<path d="M4670 2422 c19 -11 55 -22 80 -26 52 -7 45 -2 -25 18 -27 7 -59 16
-70 20 -11 4 -4 -2 15 -12z"/>
<path d="M4522 2395 c0 -11 4 -31 8 -45 l8 -25 0 25 c0 14 -3 34 -8 45 l-9 20
1 -20z"/>
<path d="M4570 2407 c0 -2 15 -16 33 -33 l32 -29 -29 33 c-28 30 -36 37 -36
29z"/>
<path d="M3224 2900 c0 -52 1 -74 3 -47 2 26 2 68 0 95 -2 26 -3 4 -3 -48z"/>
<path d="M3234 2605 c0 -104 2 -146 3 -92 2 54 2 139 0 190 -1 51 -3 7 -3 -98z"/>
<path d="M3450 2840 c8 -5 20 -10 25 -10 6 0 3 5 -5 10 -8 5 -19 10 -25 10 -5
0 -3 -5 5 -10z"/>
<path d="M3520 2810 c8 -5 20 -10 25 -10 6 0 3 5 -5 10 -8 5 -19 10 -25 10 -5
0 -3 -5 5 -10z"/>
<path d="M3590 2780 c8 -5 20 -10 25 -10 6 0 3 5 -5 10 -8 5 -19 10 -25 10 -5
0 -3 -5 5 -10z"/>
<path d="M3900 2690 c8 -5 20 -10 25 -10 6 0 3 5 -5 10 -8 5 -19 10 -25 10 -5
0 -3 -5 5 -10z"/>
<path d="M3980 2662 c8 -5 26 -13 40 -16 17 -5 20 -4 10 2 -8 5 -26 13 -40 16
-17 5 -20 4 -10 -2z"/>
<path d="M4060 2630 c8 -5 20 -10 25 -10 6 0 3 5 -5 10 -8 5 -19 10 -25 10 -5
0 -3 -5 5 -10z"/>
<path d="M4110 2610 c8 -5 20 -10 25 -10 6 0 3 5 -5 10 -8 5 -19 10 -25 10 -5
0 -3 -5 5 -10z"/>
<path d="M6130 2830 c-8 -5 -10 -10 -5 -10 6 0 17 5 25 10 8 5 11 10 5 10 -5
0 -17 -5 -25 -10z"/>
<path d="M6040 2790 c-19 -11 -30 -19 -25 -19 6 0 26 8 45 19 19 11 31 19 25
19 -5 0 -26 -8 -45 -19z"/>
<path d="M5885 2720 c-55 -26 -97 -49 -94 -49 4 -1 53 21 110 48 57 27 100 50
94 50 -5 0 -55 -22 -110 -49z"/>
<path d="M5720 2645 c-14 -8 -20 -14 -15 -14 6 0 21 6 35 14 14 8 21 14 15 14
-5 0 -21 -6 -35 -14z"/>
<path d="M5050 2360 c-30 -16 -51 -29 -47 -30 10 0 107 49 107 55 0 7 1 7 -60
-25z"/>
<path d="M4945 2314 c-16 -8 -50 -23 -75 -34 -25 -11 -34 -17 -20 -14 31 8
149 62 135 63 -5 0 -23 -7 -40 -15z"/>
<path d="M4790 2250 c-8 -5 -10 -10 -5 -10 6 0 17 5 25 10 8 5 11 10 5 10 -5
0 -17 -5 -25 -10z"/>
<path d="M4740 2230 c-8 -5 -10 -10 -5 -10 6 0 17 5 25 10 8 5 11 10 5 10 -5
0 -17 -5 -25 -10z"/>
<path d="M4680 2205 c-14 -8 -20 -14 -15 -14 6 0 21 6 35 14 14 8 21 14 15 14
-5 0 -21 -6 -35 -14z"/>
<path d="M6258 2725 c-5 -38 -7 -101 -7 -140 2 -63 3 -58 11 40 10 127 7 204
-4 100z"/>
<path d="M4213 2348 c-20 -26 -26 -41 -15 -34 12 7 36 46 29 46 -3 0 -9 -6
-14 -12z"/>
<path d="M6869 2639 c24 -11 46 -18 48 -15 4 4 -73 36 -85 35 -4 0 13 -9 37
-20z"/>
<path d="M6970 2640 c8 -5 20 -10 25 -10 6 0 3 5 -5 10 -8 5 -19 10 -25 10 -5
0 -3 -5 5 -10z"/>
<path d="M7020 2620 c8 -5 20 -10 25 -10 6 0 3 5 -5 10 -8 5 -19 10 -25 10 -5
0 -3 -5 5 -10z"/>
<path d="M7070 2600 c8 -5 20 -10 25 -10 6 0 3 5 -5 10 -8 5 -19 10 -25 10 -5
0 -3 -5 5 -10z"/>
<path d="M6729 2575 c29 -14 55 -24 58 -22 2 3 -15 12 -39 22 -69 28 -78 27
-19 0z"/>
<path d="M7130 2576 c14 -7 36 -16 50 -20 14 -3 7 3 -15 13 -45 22 -73 27 -35
7z"/>
<path d="M6540 2570 c8 -5 20 -10 25 -10 6 0 3 5 -5 10 -8 5 -19 10 -25 10 -5
0 -3 -5 5 -10z"/>
<path d="M6610 2540 c8 -5 20 -10 25 -10 6 0 3 5 -5 10 -8 5 -19 10 -25 10 -5
0 -3 -5 5 -10z"/>
<path d="M6810 2540 c8 -5 20 -10 25 -10 6 0 3 5 -5 10 -8 5 -19 10 -25 10 -5
0 -3 -5 5 -10z"/>
<path d="M6680 2510 c8 -5 20 -10 25 -10 6 0 3 5 -5 10 -8 5 -19 10 -25 10 -5
0 -3 -5 5 -10z"/>
<path d="M4344 2165 c0 -132 2 -185 3 -117 2 68 2 176 0 240 -1 64 -3 9 -3
-123z"/>
<path d="M4414 2180 c0 -52 1 -74 3 -47 2 26 2 68 0 95 -2 26 -3 4 -3 -48z"/>
<path d="M4423 2010 c0 -36 2 -50 4 -32 2 17 2 47 0 65 -2 17 -4 3 -4 -33z"/>
<path d="M4434 1840 c0 -52 1 -74 3 -47 2 26 2 68 0 95 -2 26 -3 4 -3 -48z"/>
<path d="M5817 2270 c-106 -76 -300 -155 -480 -195 -59 -13 -82 -23 -93 -41
-11 -16 -20 -81 -30 -221 -8 -109 -17 -203 -18 -208 -2 -6 -37 -24 -77 -39
-192 -75 -289 -135 -289 -180 0 -12 -5 -27 -11 -33 -8 -8 -8 -43 0 -130 9 -86
9 -160 1 -273 -10 -154 -10 -155 12 -173 24 -20 72 -17 95 6 11 11 33 148 50
318 l8 77 56 -28 c31 -15 81 -37 111 -50 l55 -22 7 -130 c5 -112 23 -255 42
-351 8 -40 61 -65 103 -48 16 7 32 19 35 27 3 8 -1 78 -9 157 -22 211 -21 219
18 237 29 13 33 20 37 67 3 28 9 55 12 59 9 9 199 94 210 94 4 0 8 -46 8 -102
0 -149 23 -288 50 -310 26 -21 49 -23 85 -6 33 15 38 39 26 118 -18 109 -13
381 9 495 11 55 27 152 36 215 9 63 22 120 29 125 28 23 38 67 56 243 26 256
25 297 -4 317 -50 32 -78 29 -140 -15z m127 -8 c20 -11 -23 -472 -46 -500 -17
-20 -128 -92 -194 -125 -70 -35 -264 -101 -344 -117 -58 -11 -69 -11 -98 4
-32 16 -32 17 -32 89 1 97 25 385 33 393 3 4 18 -1 32 -10 23 -15 25 -22 20
-59 -8 -63 -25 -326 -24 -377 l1 -45 8 40 c4 22 13 126 20 231 l13 191 60 12
c163 34 428 144 510 212 50 41 40 49 -15 11 -116 -80 -353 -176 -501 -203 -53
-10 -68 -9 -92 4 l-30 15 45 11 c226 55 431 137 525 210 38 30 74 34 109 13z
m-114 -772 c-38 -189 -49 -388 -31 -564 11 -98 10 -120 -1 -127 -8 -5 -15 -2
-20 11 -13 35 -30 264 -26 358 2 77 1 92 -12 92 -8 -1 -98 -40 -200 -89 l-185
-88 -3 -134 c-2 -74 2 -183 8 -242 9 -86 9 -111 -1 -123 -19 -23 -25 -4 -39
106 -11 99 -16 444 -6 477 10 33 46 257 46 289 0 29 14 44 39 44 7 0 -11 -140
-37 -278 -7 -41 -7 -55 3 -58 15 -6 133 42 287 115 l106 51 27 112 c15 62 29
137 32 168 3 30 13 63 22 74 15 18 16 17 19 -10 1 -16 -11 -99 -28 -184z m-26
133 c-11 -62 -33 -164 -48 -223 l-15 -55 4 70 c5 83 27 215 38 233 17 25 28
12 21 -25z m-74 -123 c-12 -66 -20 -130 -17 -141 4 -16 -6 -25 -61 -53 -104
-51 -262 -119 -268 -114 -2 3 4 52 15 109 11 57 22 127 26 155 l6 50 102 33
c56 19 127 46 157 61 30 16 57 26 59 25 2 -2 -7 -58 -19 -125z m-475 -6 c19
-8 35 -17 35 -20 0 -53 -53 -284 -66 -284 -6 0 -255 111 -316 141 -55 26 -62
52 -25 87 22 21 153 86 257 127 l55 21 12 -28 c8 -17 26 -35 48 -44z m74 -139
c-36 -210 -39 -237 -39 -385 1 -137 12 -311 26 -373 5 -26 4 -27 -14 -16 -15
10 -23 31 -31 88 -21 142 -31 245 -31 316 0 101 -4 110 -63 135 -29 13 -86 38
-127 57 -169 79 -196 88 -165 53 16 -18 17 -33 11 -147 -9 -156 -28 -288 -41
-282 -5 2 -9 112 -10 270 l0 267 75 -38 c143 -72 312 -142 320 -134 21 24 70
217 70 279 0 32 16 50 32 36 4 -4 -2 -61 -13 -126z m420 -485 c15 -93 15 -98
-8 -75 -16 16 -23 49 -35 155 -22 184 -21 256 2 269 16 9 17 -1 23 -137 4 -81
12 -176 18 -212z m-799 278 c0 -71 -30 -319 -41 -340 -16 -30 -30 -21 -24 15
20 119 25 174 25 268 0 58 3 108 6 112 3 3 12 3 20 0 9 -3 14 -21 14 -55z
m465 -105 c-10 -55 -25 -65 -25 -17 0 41 5 54 23 54 5 0 6 -16 2 -37z"/>
<path d="M5546 1335 c-90 -40 -118 -55 -104 -55 8 0 198 87 205 94 11 11 -1 6
-101 -39z"/>
<path d="M4940 1386 c20 -7 59 -25 87 -40 75 -37 163 -76 163 -70 0 8 -230
114 -259 119 -18 4 -15 1 9 -9z"/>
<path d="M4798 1939 c-26 -10 -28 -14 -28 -72 l-1 -62 -19 36 c-20 38 -59 59
-110 59 -44 0 -57 -19 -65 -90 -7 -79 -7 -79 111 -139 129 -65 219 -64 219 4
0 23 -10 36 -45 63 -52 40 -28 38 52 -4 63 -33 135 -41 176 -20 58 30 34 77
-59 121 -56 26 -89 52 -89 71 0 29 -95 50 -142 33z m97 -29 c-8 -13 -65 -13
-85 0 -11 7 0 10 38 10 33 0 51 -4 47 -10z m100 -87 c20 -12 20 -12 -1 -12
-22 -1 -104 53 -104 68 0 22 27 15 55 -13 17 -17 39 -36 50 -43z m-84 16 c42
-42 83 -58 108 -42 11 8 24 7 42 -3 34 -17 42 -39 22 -60 -24 -23 -96 -14
-174 23 -35 17 -76 34 -91 37 -26 6 -28 10 -28 52 l0 46 41 -7 c29 -5 53 -19
80 -46z m-224 30 c22 -8 24 -12 13 -19 -32 -20 -100 -5 -86 19 9 14 37 14 73
0z m-28 -49 c11 0 28 -14 40 -34 12 -19 33 -42 47 -51 19 -12 23 -20 15 -28
-6 -6 -11 -16 -11 -21 0 -7 3 -7 8 0 4 6 22 19 40 28 31 16 34 16 62 -4 17
-12 30 -28 30 -36 0 -20 -47 -36 -84 -28 -40 8 -192 82 -207 100 -7 8 -8 29
-4 54 6 35 9 39 25 30 10 -6 28 -10 39 -10z m133 -61 c19 -10 20 -12 4 -21
-20 -11 -65 18 -86 57 -12 23 -12 28 0 35 10 6 21 -1 37 -25 13 -19 33 -40 45
-46z"/>
<path d="M3449 2485 c40 -20 75 -34 78 -32 2 2 -25 17 -59 32 -93 40 -104 40
-19 0z"/>
<path d="M3900 2270 c8 -5 20 -10 25 -10 6 0 3 5 -5 10 -8 5 -19 10 -25 10 -5
0 -3 -5 5 -10z"/>
<path d="M3960 2246 c0 -2 8 -10 18 -17 15 -13 16 -12 3 4 -13 16 -21 21 -21
13z"/>
<path d="M4020 2205 c0 -7 81 -47 86 -43 2 3 -17 14 -41 26 -25 12 -45 20 -45
17z"/>
<path d="M4150 2140 c8 -5 20 -10 25 -10 6 0 3 5 -5 10 -8 5 -19 10 -25 10 -5
0 -3 -5 5 -10z"/>
<path d="M3314 2255 c0 -49 1 -71 3 -48 2 23 2 64 0 90 -2 26 -3 8 -3 -42z"/>
<path d="M6580 2310 c8 -5 20 -10 25 -10 6 0 3 5 -5 10 -8 5 -19 10 -25 10 -5
0 -3 -5 5 -10z"/>
<path d="M6610 2160 c19 -11 40 -19 45 -19 6 0 -6 8 -25 19 -19 11 -39 19 -45
19 -5 0 6 -8 25 -19z"/>
<path d="M7020 2140 c8 -5 20 -10 25 -10 6 0 3 5 -5 10 -8 5 -19 10 -25 10 -5
0 -3 -5 5 -10z"/>
<path d="M6700 2120 c19 -11 40 -19 45 -19 6 0 -6 8 -25 19 -19 11 -39 19 -45
19 -5 0 6 -8 25 -19z"/>
<path d="M7090 2110 c8 -5 20 -10 25 -10 6 0 3 5 -5 10 -8 5 -19 10 -25 10 -5
0 -3 -5 5 -10z"/>
<path d="M7140 2090 c8 -5 20 -10 25 -10 6 0 3 5 -5 10 -8 5 -19 10 -25 10 -5
0 -3 -5 5 -10z"/>
<path d="M6800 2075 c14 -8 30 -14 35 -14 6 0 -1 6 -15 14 -14 8 -29 14 -35
14 -5 0 1 -6 15 -14z"/>
<path d="M6530 2045 c14 -8 30 -14 35 -14 6 0 -1 6 -15 14 -14 8 -29 14 -35
14 -5 0 1 -6 15 -14z"/>
<path d="M6850 2056 c0 -2 7 -7 16 -10 8 -3 12 -2 9 4 -6 10 -25 14 -25 6z"/>
<path d="M6600 2015 c14 -8 30 -14 35 -14 6 0 -1 6 -15 14 -14 8 -29 14 -35
14 -5 0 1 -6 15 -14z"/>
<path d="M6790 1990 c8 -5 20 -10 25 -10 6 0 3 5 -5 10 -8 5 -19 10 -25 10 -5
0 -3 -5 5 -10z"/>
<path d="M6850 1965 c14 -8 30 -14 35 -14 6 0 -1 6 -15 14 -14 8 -29 14 -35
14 -5 0 1 -6 15 -14z"/>
<path d="M7140 1970 c8 -5 20 -10 25 -10 6 0 3 5 -5 10 -8 5 -19 10 -25 10 -5
0 -3 -5 5 -10z"/>
<path d="M7190 1950 c8 -5 20 -10 25 -10 6 0 3 5 -5 10 -8 5 -19 10 -25 10 -5
0 -3 -5 5 -10z"/>
<path d="M6940 1925 c14 -8 30 -14 35 -14 6 0 -1 6 -15 14 -14 8 -29 14 -35
14 -5 0 1 -6 15 -14z"/>
<path d="M7020 1845 c14 -8 30 -14 35 -14 6 0 -1 6 -15 14 -14 8 -29 14 -35
14 -5 0 1 -6 15 -14z"/>
<path d="M7080 1820 c8 -5 20 -10 25 -10 6 0 3 5 -5 10 -8 5 -19 10 -25 10 -5
0 -3 -5 5 -10z"/>
<path d="M7630 2300 c-8 -5 -10 -10 -5 -10 6 0 17 5 25 10 8 5 11 10 5 10 -5
0 -17 -5 -25 -10z"/>
<path d="M7560 2270 c-8 -5 -10 -10 -5 -10 6 0 17 5 25 10 8 5 11 10 5 10 -5
0 -17 -5 -25 -10z"/>
<path d="M7490 2240 c-8 -5 -10 -10 -5 -10 6 0 17 5 25 10 8 5 11 10 5 10 -5
0 -17 -5 -25 -10z"/>
<path d="M6849 2235 c-9 -8 2 -65 12 -65 5 0 10 9 11 20 0 11 1 25 2 32 1 12
-17 22 -25 13z"/>
<path d="M2667 2219 c7 -7 15 -10 18 -7 3 3 -2 9 -12 12 -14 6 -15 5 -6 -5z"/>
<path d="M2707 2199 c7 -7 15 -10 18 -7 3 3 -2 9 -12 12 -14 6 -15 5 -6 -5z"/>
<path d="M3120 2220 c-8 -5 -10 -10 -5 -10 6 0 17 5 25 10 8 5 11 10 5 10 -5
0 -17 -5 -25 -10z"/>
<path d="M7550 2125 c-25 -13 -40 -24 -35 -24 6 0 30 11 55 24 25 13 41 24 35
24 -5 0 -30 -11 -55 -24z"/>
<path d="M7647 2118 c-14 -7 -17 -17 -12 -39 6 -25 2 -31 -27 -49 -38 -23 -52
-22 -56 7 -2 12 -9 24 -17 27 -40 15 -40 -77 0 -96 30 -13 101 7 131 37 43 43
27 139 -19 113z m23 -47 c0 -32 -5 -43 -29 -60 -44 -32 -91 -38 -108 -16 -15
22 -17 45 -3 45 6 0 10 -9 10 -20 0 -27 44 -27 89 1 30 18 33 24 28 55 -3 19
-2 34 4 34 5 0 9 -18 9 -39z"/>
<path d="M7480 2090 c-9 -6 -10 -10 -3 -10 6 0 15 5 18 10 8 12 4 12 -15 0z"/>
<path d="M7480 1900 c-8 -5 -10 -10 -5 -10 6 0 17 5 25 10 8 5 11 10 5 10 -5
0 -17 -5 -25 -10z"/>
<path d="M7580 1840 c-63 -32 -110 -59 -105 -59 6 0 62 27 125 59 63 32 111
59 105 59 -5 0 -62 -27 -125 -59z"/>
<path d="M3141 2134 c0 -11 3 -14 6 -6 3 7 2 16 -1 19 -3 4 -6 -2 -5 -13z"/>
<path d="M3161 2044 c0 -11 3 -14 6 -6 3 7 2 16 -1 19 -3 4 -6 -2 -5 -13z"/>
<path d="M3171 1994 c0 -11 3 -14 6 -6 3 7 2 16 -1 19 -3 4 -6 -2 -5 -13z"/>
<path d="M3192 1880 c0 -14 2 -19 5 -12 2 6 2 18 0 25 -3 6 -5 1 -5 -13z"/>
<path d="M3202 1830 c0 -14 2 -19 5 -12 2 6 2 18 0 25 -3 6 -5 1 -5 -13z"/>
<path d="M2661 2094 c0 -11 3 -14 6 -6 3 7 2 16 -1 19 -3 4 -6 -2 -5 -13z"/>
<path d="M2612 1850 c0 -14 2 -19 5 -12 2 6 2 18 0 25 -3 6 -5 1 -5 -13z"/>
<path d="M2884 1865 c0 -82 2 -115 3 -72 2 43 2 110 0 150 -1 40 -3 5 -3 -78z"/>
</g>
</svg>
