<?xml version="1.0" standalone="no"?>
<!DOCTYPE svg PUBLIC "-//W3C//DTD SVG 20010904//EN"
 "http://www.w3.org/TR/2001/REC-SVG-20010904/DTD/svg10.dtd">
<svg version="1.0" xmlns="http://www.w3.org/2000/svg"
 width="1024.000000pt" height="559.000000pt" viewBox="0 0 1024.000000 559.000000"
 preserveAspectRatio="xMidYMid meet">
<metadata>
Created by potrace 1.16, written by Peter Selinger 2001-2019
</metadata>
<g transform="translate(0.000000,559.000000) scale(0.100000,-0.100000)"
fill="#000000" stroke="none">
<path d="M5040 5242 c-384 -121 -499 -158 -655 -207 -99 -31 -304 -96 -455
-145 -151 -49 -363 -116 -470 -150 -107 -34 -222 -71 -255 -82 -33 -11 -94
-30 -135 -43 -270 -83 -776 -247 -782 -253 -9 -9 -18 -2187 -10 -2448 l5 -172
886 -440 c487 -242 1129 -561 1426 -709 l540 -270 1415 706 1415 706 3 1311 2
1311 -26 12 c-15 6 -126 43 -248 82 -122 38 -295 94 -386 123 -91 29 -212 68
-270 86 -120 37 -249 78 -570 180 -124 40 -245 78 -270 85 -25 8 -245 77 -490
155 -245 77 -479 151 -520 163 l-75 23 -75 -24z m68 -729 l-3 -718 -130 -51
c-403 -159 -621 -245 -895 -352 -168 -66 -498 -196 -735 -290 -829 -330 -1034
-409 -1040 -404 -3 3 -5 373 -5 823 l0 818 23 6 c12 4 99 31 192 61 94 30 215
68 270 85 55 17 132 42 170 54 65 22 200 65 665 212 96 30 207 66 245 78 82
27 832 266 950 302 44 14 125 40 180 58 55 19 103 34 108 34 4 1 6 -322 5
-716z m134 683 c56 -19 182 -59 278 -89 96 -30 213 -67 260 -82 47 -15 234
-74 415 -132 182 -57 395 -124 475 -149 80 -25 199 -62 265 -84 66 -21 201
-64 300 -95 99 -32 212 -67 250 -80 39 -13 131 -42 205 -65 74 -23 160 -50
190 -60 l55 -19 3 -835 c1 -460 0 -836 -3 -836 -3 0 -100 38 -217 84 -117 47
-265 105 -328 129 -236 92 -507 199 -557 219 -29 12 -55 28 -58 37 -128 332
-182 490 -178 512 7 36 -19 59 -66 59 -46 0 -57 -12 -64 -65 -4 -36 -118 -308
-136 -328 -5 -4 -65 15 -134 44 l-126 52 24 29 c40 48 51 99 31 151 -9 24 -28
54 -41 67 l-25 23 6 161 c4 89 8 162 9 164 1 1 71 -22 156 -52 238 -84 361
-127 664 -230 154 -53 290 -101 301 -106 20 -8 22 -18 28 -127 3 -65 8 -147
11 -183 l4 -65 -42 -20 c-82 -39 -114 -136 -61 -186 20 -19 36 -24 76 -24 43
0 53 4 79 33 34 38 37 71 14 177 -17 81 -21 340 -5 350 6 4 26 1 45 -5 l35
-12 0 -198 c0 -167 -2 -199 -15 -204 -18 -6 -21 -115 -5 -146 14 -26 76 -46
95 -30 21 17 21 143 0 160 -12 10 -15 46 -15 201 0 111 4 189 9 189 32 0 58
-22 70 -57 10 -31 9 -62 -3 -168 -9 -72 -19 -183 -22 -247 -6 -101 -5 -121 10
-143 14 -21 20 -24 32 -15 10 9 13 29 10 74 -5 78 15 315 25 289 12 -33 28
-225 24 -299 -4 -86 5 -106 34 -80 11 10 23 33 27 50 5 29 -27 388 -41 461 -4
18 -1 37 7 48 12 16 19 18 52 9 27 -8 45 -8 62 0 22 10 24 17 24 84 0 40 -4
75 -10 79 -11 7 -742 255 -1372 465 -403 135 -449 149 -478 139 -31 -11 -31
-12 -28 -72 3 -56 5 -62 33 -77 l30 -17 5 -174 c3 -96 3 -175 0 -177 -71 -36
-101 -78 -103 -148 -1 -24 -2 -44 -3 -44 -1 0 -59 24 -130 54 -71 29 -219 90
-329 135 -110 45 -210 86 -222 91 l-23 10 0 715 c0 393 2 715 4 715 2 0 51
-15 108 -34z m868 -1046 c80 -27 433 -146 785 -265 352 -119 682 -230 733
-247 50 -16 92 -34 92 -39 0 -16 105 -51 -1290 423 -146 49 -323 109 -395 132
-72 24 -123 45 -115 49 8 3 22 3 30 0 8 -2 80 -26 160 -53z m985 -369 c99 -34
276 -93 393 -133 l212 -71 0 -54 c0 -52 -1 -54 -22 -47 -34 10 -48 24 -48 49
0 35 -33 58 -70 50 -17 -4 -34 -13 -37 -21 -6 -17 -24 -18 -57 -3 -17 8 -26
21 -28 43 -3 27 -7 31 -33 31 -22 0 -30 -4 -29 -17 2 -20 -13 -23 -50 -9 -18
8 -25 19 -28 43 -4 41 -36 50 -68 18 l-21 -21 -107 37 c-105 36 -366 127 -652
226 -80 27 -198 68 -262 90 -110 37 -118 42 -118 66 0 57 -63 81 -112 43 -15
-13 -33 -18 -46 -14 -19 4 -22 13 -22 53 l0 48 513 -173 c281 -95 593 -200
692 -234z m-1047 96 l-5 -198 29 -36 c35 -44 42 -71 35 -126 -4 -28 -14 -49
-32 -64 -38 -33 -46 -28 -24 14 25 49 24 113 -3 174 -20 48 -21 61 -15 236 4
130 3 192 -5 207 -10 19 -10 20 7 6 16 -13 17 -31 13 -213z m-30 196 c5 -10 7
-103 4 -206 -4 -186 -5 -188 -26 -181 -11 4 -22 8 -24 9 -2 2 -6 78 -9 169 -6
164 -6 166 15 166 29 0 36 17 12 30 -11 6 -20 15 -20 20 0 17 39 11 48 -7z
m-42 -30 c-7 -7 -26 7 -26 19 0 6 6 6 15 -2 9 -7 13 -15 11 -17z m-866 -296
c0 -38 33 -22 -325 -162 -121 -48 -281 -111 -355 -140 -74 -29 -209 -82 -300
-118 -210 -83 -516 -203 -940 -372 -664 -264 -871 -345 -881 -345 -6 0 -9 14
-7 32 3 30 8 34 98 69 175 69 533 210 770 304 129 51 309 122 400 158 91 36
253 100 360 142 107 42 258 101 335 131 77 30 149 59 160 64 11 5 79 32 150
59 72 28 220 86 330 130 110 44 201 80 203 81 1 0 2 -15 2 -33z m162 -21 c74
-30 216 -88 314 -129 99 -41 196 -81 217 -88 22 -8 43 -23 49 -34 31 -61 96
-93 155 -76 27 8 53 0 173 -47 135 -55 141 -58 135 -82 -4 -14 -9 -28 -13 -31
-4 -4 -128 44 -277 106 -397 166 -777 323 -840 347 -52 19 -55 23 -55 54 0 19
1 34 3 34 2 0 64 -24 139 -54z m453 -273 c193 -79 395 -163 450 -185 55 -23
103 -44 108 -48 4 -3 -15 -57 -42 -119 l-48 -112 -10 39 c-6 23 -7 46 -2 54
16 24 9 53 -18 81 -16 15 -38 38 -51 51 -28 29 -91 46 -175 46 -105 0 -197
-44 -197 -94 0 -13 -10 -26 -25 -33 -25 -11 -25 -10 -25 31 0 47 -11 61 -70
92 -27 14 -57 19 -133 19 l-98 0 -10 36 c-8 26 -8 42 0 57 30 56 -2 122 -58
122 -16 0 -31 6 -34 14 -10 24 -53 47 -104 54 l-48 7 -3 67 -3 67 123 -50 c68
-28 281 -116 473 -196z m-617 175 l-3 -63 -46 -6 c-54 -8 -88 -24 -107 -51 -7
-10 -25 -18 -41 -18 -57 0 -90 -67 -60 -122 8 -15 8 -31 1 -57 -6 -20 -12 -60
-13 -89 -2 -44 -5 -52 -18 -46 -9 4 -49 9 -89 12 -85 5 -153 -16 -179 -54 -8
-13 -25 -24 -38 -24 -35 0 -59 -33 -50 -72 7 -34 8 -71 5 -173 -1 -34 5 -80
14 -105 9 -25 16 -48 16 -52 0 -3 -28 -17 -62 -31 -87 -34 -846 -355 -868
-367 -13 -7 -22 -4 -35 10 -21 23 -74 40 -127 40 l-38 0 0 53 c0 36 -8 69 -24
100 -20 40 -22 57 -18 122 5 79 -8 117 -45 129 -10 4 -25 21 -33 39 -19 41
-52 57 -118 57 -96 0 -157 -44 -133 -96 10 -22 8 -24 -13 -24 -38 0 -66 -44
-65 -99 1 -25 4 -57 8 -71 5 -17 1 -36 -12 -57 -17 -30 -39 -45 -36 -25 5 28
-6 44 -41 62 -49 25 -112 25 -167 1 -43 -20 -59 -47 -48 -81 4 -14 2 -20 -8
-20 -8 0 -27 -10 -42 -22 -27 -21 -27 -23 -22 -102 3 -61 1 -88 -11 -111 -25
-49 -19 -189 11 -264 14 -34 22 -63 18 -65 -15 -10 -254 -106 -262 -106 -5 0
-9 181 -9 403 l0 403 73 28 c39 16 223 88 407 161 682 271 1010 401 1420 562
91 35 203 80 250 98 47 18 195 77 330 129 135 53 259 103 275 110 52 25 56 22
53 -46z m1457 52 c4 -6 -8 -10 -29 -10 -20 0 -36 5 -36 10 0 6 13 10 29 10 17
0 33 -4 36 -10z m-564 -10 c74 -40 64 -217 -14 -244 -113 -40 -179 170 -73
235 35 21 58 24 87 9z m576 -23 c-5 -16 -40 -25 -64 -16 -36 13 -27 24 22 25
27 1 44 -3 42 -9z m696 -174 c-5 -154 -3 -200 11 -251 9 -35 16 -78 16 -96 0
-45 -33 -84 -76 -92 -47 -9 -53 1 -14 21 40 21 70 71 69 115 0 33 -1 33 -14
-15 -13 -51 -40 -81 -81 -91 -36 -9 -54 2 -54 33 0 42 34 89 79 109 22 9 42
23 44 29 3 6 1 76 -4 155 -11 206 -11 216 8 235 14 14 14 18 2 26 -12 7 -11 9
2 9 15 0 16 -18 12 -187z m-776 120 c-7 -22 -205 -480 -240 -555 -13 -29 -48
-109 -77 -178 -29 -69 -57 -129 -61 -134 -29 -33 -6 31 94 260 62 142 149 341
192 442 43 100 83 182 88 182 5 0 7 -8 4 -17z m52 -80 c1 -49 8 -236 16 -418
8 -181 17 -396 21 -477 4 -105 3 -148 -5 -148 -6 0 -11 8 -11 18 0 30 -30 760
-39 937 -5 94 -6 173 -4 178 12 21 20 -11 22 -90z m85 -61 c33 -86 81 -212
107 -279 26 -68 43 -123 39 -123 -14 0 -36 54 -156 380 -31 85 -59 161 -61
168 -3 6 -1 12 3 12 5 0 36 -71 68 -158z m791 148 c3 -5 1 -10 -4 -10 -6 0
-11 5 -11 10 0 6 2 10 4 10 3 0 8 -4 11 -10z m311 -116 c-11 -29 -21 -12 -21
34 0 68 19 92 23 28 2 -27 1 -55 -2 -62z m-314 -122 c-3 -204 -3 -215 17 -236
17 -18 20 -30 15 -72 -4 -34 -11 -51 -20 -51 -8 0 -14 5 -14 11 0 6 -5 4 -10
-4 -6 -10 -10 -11 -10 -2 0 6 -6 11 -12 10 -9 -2 -14 15 -16 56 -2 46 1 61 14
71 16 11 17 30 10 217 -3 112 -4 207 -1 209 3 3 11 6 18 6 9 0 11 -48 9 -215z
m186 173 c16 -34 15 -50 -3 -85 -13 -24 -14 -42 -6 -92 11 -64 41 -366 41
-404 0 -11 -7 -29 -16 -40 -14 -18 -15 -13 -10 55 3 41 -1 124 -9 185 -8 61
-19 148 -25 194 -9 70 -8 86 5 105 19 27 19 57 -1 85 -12 18 -13 22 -1 22 8 0
19 -11 25 -25z m-1091 -301 c-4 -5 -108 36 -120 46 -7 6 28 99 92 240 15 34
15 32 24 -124 4 -87 6 -160 4 -162z m-1279 282 c58 -30 38 -80 -42 -106 -54
-17 -172 -7 -206 18 -49 37 -32 79 40 101 50 15 168 8 208 -13z m2329 10 c-2
-6 -7 -11 -12 -11 -5 0 -10 5 -12 11 -2 6 3 11 12 11 9 0 14 -5 12 -11z m-871
-364 c-3 -2 -29 6 -59 18 l-54 23 -7 81 c-3 44 -6 115 -5 156 l0 75 65 -174
c35 -96 62 -176 60 -179z m859 319 c8 -17 11 -32 6 -35 -4 -3 -13 6 -20 20
-22 48 -10 61 14 15z m22 -3 c-3 -8 -6 -5 -6 6 -1 11 2 17 5 13 3 -3 4 -12 1
-19z m-2646 -18 c10 -6 19 -15 19 -21 0 -6 -8 -6 -21 1 -32 18 -52 -5 -45 -49
6 -36 6 -36 -8 -11 -21 35 -19 56 6 74 27 19 24 19 49 6z m419 -8 c18 -15 21
-24 15 -50 -3 -18 -11 -32 -16 -32 -5 0 -6 12 -3 27 9 33 -19 58 -47 42 -25
-13 -26 6 -1 20 23 14 27 14 52 -7z m-425 -42 c-3 -5 -11 -10 -16 -10 -6 0 -7
5 -4 10 3 6 11 10 16 10 6 0 7 -4 4 -10z m405 0 c0 -5 -4 -10 -10 -10 -5 0
-10 5 -10 10 0 6 5 10 10 10 6 0 10 -4 10 -10z m-270 -22 c53 -10 118 -4 188
17 18 6 30 0 61 -33 53 -56 57 -78 18 -103 -45 -27 -90 -39 -182 -46 -85 -6
-187 13 -233 43 -13 9 -26 13 -29 10 -4 -3 21 -18 53 -33 54 -26 69 -28 179
-28 115 0 124 2 183 31 68 34 83 29 25 -8 -70 -44 -80 -48 -164 -54 -93 -7
-183 6 -241 35 -21 10 -38 15 -38 11 0 -4 24 -18 53 -31 44 -20 69 -23 167
-24 63 0 129 3 147 7 29 7 32 5 35 -20 2 -17 -8 -45 -30 -77 -53 -82 -44 -78
-156 -72 -116 5 -136 11 -136 40 0 27 -28 57 -54 57 -31 0 -48 35 -45 93 4 74
25 126 67 170 27 28 42 36 57 32 11 -3 45 -11 75 -17z m2497 -35 c-3 -32 -13
-112 -21 -178 -8 -66 -13 -151 -10 -188 3 -44 1 -66 -6 -62 -5 3 -10 35 -10
69 0 66 27 355 37 393 10 43 16 23 10 -34z m-1086 -121 c38 -17 47 -26 51 -51
3 -17 3 -33 0 -35 -4 -5 -143 52 -155 63 -4 4 -3 20 2 34 11 29 8 30 102 -11z
m-881 6 c41 -12 80 -45 80 -68 0 -8 -7 -26 -16 -38 -8 -12 -12 -22 -7 -21 33
6 41 -17 50 -132 l4 -65 -188 -78 c-103 -43 -196 -86 -206 -94 -21 -18 -21
-18 -40 38 -34 100 -40 164 -23 222 18 63 52 112 72 104 18 -7 18 -1 -2 30
-55 83 121 148 276 102z m486 -26 c38 -17 50 -42 35 -70 -7 -14 -3 -28 20 -62
25 -37 29 -53 27 -95 l-3 -50 -145 -63 -145 -63 -37 17 c-20 9 -46 26 -57 38
-26 27 -51 88 -51 122 0 21 3 25 18 19 66 -28 92 -6 42 35 -30 24 -31 28 -19
48 9 14 20 20 29 16 58 -25 92 -33 143 -34 68 0 142 16 158 36 15 18 10 18
-37 -3 -59 -24 -180 -22 -237 6 -25 12 -48 29 -51 37 -8 20 9 51 35 64 59 32
211 33 275 2z m365 -54 c70 -28 79 -33 58 -39 -13 -4 -41 -7 -61 -8 -21 -1
-61 -10 -88 -20 -28 -11 -50 -16 -48 -12 2 3 12 30 22 59 11 29 23 52 27 52 4
0 45 -15 90 -32z m233 -8 c25 -10 46 -24 46 -29 0 -5 3 -16 6 -25 5 -13 0 -13
-43 -1 -26 8 -60 17 -75 20 -23 4 -28 11 -28 36 0 28 3 31 24 25 13 -3 45 -15
70 -26z m-1857 -4 c121 -62 -61 -154 -197 -100 -78 31 -74 82 8 109 56 18 146
14 189 -9z m1348 -16 c3 -5 1 -18 -5 -27 -11 -17 -11 -16 -5 1 3 11 0 23 -7
28 -9 5 -10 8 -1 8 6 0 15 -4 18 -10z m-415 -20 c0 -5 -7 -10 -16 -10 -27 0
-12 -43 23 -65 42 -26 43 -42 1 -18 -45 26 -67 65 -49 87 15 18 41 22 41 6z
m770 -31 c0 -16 -4 -17 -26 -9 -31 12 -44 13 -44 1 0 -5 12 -11 28 -14 33 -8
59 -24 50 -32 -3 -4 -28 2 -55 13 -26 11 -57 23 -68 27 -28 9 -2 23 42 23 19
0 36 2 39 4 11 12 34 3 34 -13z m456 -49 c98 -39 267 -105 374 -147 107 -42
283 -111 390 -154 l195 -77 3 -37 c3 -28 0 -36 -10 -32 -7 3 -202 80 -433 172
-756 300 -676 265 -691 308 -7 20 -12 37 -10 37 1 0 83 -32 182 -70z m-2428
48 c17 -17 15 -33 -3 -18 -36 30 -59 -15 -29 -58 10 -14 12 -27 6 -37 -6 -12
-13 -3 -27 39 -15 45 -16 57 -6 70 16 19 42 21 59 4z m380 0 c7 -7 12 -21 12
-32 -1 -28 -35 -91 -43 -79 -4 6 0 19 8 29 8 10 15 32 15 48 0 27 -2 28 -31
22 -27 -5 -30 -4 -19 9 15 18 42 19 58 3z m1793 -19 c75 -33 84 -53 13 -30
-33 11 -78 25 -101 32 -24 7 -43 17 -43 22 0 14 74 0 131 -24z m-336 2 c3 -5
-9 -11 -27 -13 -29 -3 -22 -7 62 -41 97 -39 118 -52 108 -63 -8 -7 -180 65
-189 79 -4 5 -11 7 -16 4 -5 -3 -15 -2 -22 3 -10 6 -7 12 15 24 33 17 60 20
69 7z m397 -103 c-12 -12 -186 66 -190 85 -3 12 20 5 97 -31 55 -26 97 -50 93
-54z m-2237 82 c3 -5 -1 -10 -9 -10 -9 0 -16 5 -16 10 0 6 4 10 9 10 6 0 13
-4 16 -10z m355 -6 c0 -8 -5 -12 -10 -9 -6 4 -8 11 -5 16 9 14 15 11 15 -7z
m1586 -15 c38 -17 59 -39 37 -39 -21 0 -132 54 -127 62 6 10 26 5 90 -23z
m-1836 0 c50 -12 109 -10 152 5 33 12 39 11 53 -4 8 -9 15 -22 15 -29 0 -6 12
-24 28 -39 24 -24 27 -34 27 -98 0 -61 -5 -80 -35 -140 -31 -60 -41 -71 -75
-83 -61 -22 -162 -20 -210 4 -32 16 -47 33 -73 85 -49 99 -56 211 -14 222 11
3 22 18 26 34 10 37 37 64 56 57 8 -3 31 -9 50 -14z m2089 0 c28 -12 51 -26
51 -30 0 -12 1 -13 -66 20 -69 35 -60 41 15 10z m-1635 -16 c60 -1 111 -5 114
-7 14 -15 -61 -28 -133 -23 -88 6 -140 21 -130 38 4 6 14 7 24 3 9 -4 65 -9
125 -11z m1299 -29 c112 -46 135 -59 125 -69 -3 -3 -58 17 -122 45 -65 27
-124 50 -132 50 -9 0 -12 5 -9 10 10 15 18 13 138 -36z m244 15 c26 -11 63
-27 82 -35 23 -10 31 -18 25 -24 -12 -12 -164 54 -164 70 0 13 1 13 57 -11z
m308 -37 c55 -22 255 -102 445 -177 190 -75 388 -153 440 -174 l95 -38 3 -393
2 -392 -27 7 c-15 3 -41 12 -58 19 l-30 13 1 242 c1 164 5 246 13 254 6 6 11
39 11 72 0 82 -9 89 -180 150 -36 13 -103 41 -150 63 -47 21 -114 49 -150 62
-36 12 -85 32 -110 45 -25 12 -110 48 -190 79 -80 31 -155 61 -167 66 -13 5
-29 29 -41 62 -11 29 -24 62 -28 72 -6 15 -4 18 7 14 8 -3 60 -24 114 -46z
m-1970 23 c23 -8 78 -14 133 -15 l92 0 0 -38 c0 -22 7 -61 15 -88 8 -27 15
-52 15 -56 0 -17 -63 -38 -115 -38 -58 0 -91 11 -112 39 -29 37 -87 212 -70
211 1 0 20 -7 42 -15z m1363 -13 c31 -16 83 -39 115 -51 67 -27 76 -43 15 -28
-24 5 -56 10 -71 9 -30 -1 -120 39 -132 58 -4 6 21 -3 55 -20 34 -17 66 -30
72 -28 6 2 -24 19 -66 38 -42 19 -76 38 -76 43 0 14 31 7 88 -21z m314 -19
c36 -16 54 -29 47 -34 -13 -8 -112 35 -117 51 -5 15 5 13 70 -17z m203 -96
c20 -54 34 -101 31 -104 -3 -4 -8 -4 -10 -2 -8 10 -76 195 -76 209 0 29 19 -7
55 -103z m-583 24 c15 -12 42 -28 60 -36 l33 -14 -73 -32 c-40 -18 -70 -34
-68 -37 3 -2 39 12 80 32 63 30 82 35 116 30 22 -4 40 -9 40 -13 0 -14 -48
-36 -90 -41 -37 -4 -46 -9 -48 -26 -2 -16 -13 -24 -38 -29 -32 -6 -35 -9 -32
-38 3 -28 6 -32 33 -32 17 1 46 4 65 8 31 7 32 6 16 -6 -22 -16 -16 -44 10
-54 9 -3 36 4 60 16 55 26 57 26 44 0 -14 -26 3 -49 36 -49 20 0 23 -5 26 -47
l3 -48 40 0 c23 0 53 -8 70 -19 l30 -19 -85 -41 -85 -41 -3 -52 c-2 -29 -5
-53 -6 -53 -11 0 -554 233 -573 245 -19 13 -23 24 -23 66 l0 50 48 21 c26 12
70 29 97 39 28 10 42 18 33 19 -28 0 -172 -60 -185 -77 -7 -9 -13 -36 -13 -59
l0 -43 -67 25 c-38 14 -92 36 -120 49 l-53 24 0 49 c0 28 6 54 13 60 6 5 46
24 87 42 71 30 102 34 160 18 8 -2 5 0 -8 6 -12 5 -21 14 -19 20 3 10 247 119
254 113 2 -2 -13 -41 -33 -85 -39 -86 -39 -116 -2 -110 18 2 32 25 72 116 43
98 51 111 60 94 6 -11 23 -30 38 -41z m101 3 c28 -8 73 -14 100 -14 40 0 47
-3 47 -20 0 -16 -5 -19 -27 -15 -16 2 -48 7 -73 10 -60 7 -145 48 -160 76
l-12 22 36 -22 c20 -13 60 -29 89 -37z m260 39 c29 -16 30 -18 10 -21 -25 -4
-63 14 -63 28 0 15 17 12 53 -7z m133 -12 c-19 -21 -93 -55 -143 -66 -26 -5
-33 -3 -33 8 0 11 18 20 54 28 30 6 72 22 93 34 44 25 54 24 29 -4z m-1041
-34 c8 -13 33 -34 56 -46 l41 -23 -83 -34 c-106 -43 -119 -56 -119 -111 0 -46
-5 -49 -45 -31 -26 12 -34 28 -13 28 6 0 8 3 5 6 -4 4 -13 2 -20 -5 -11 -8
-25 -6 -61 9 -25 12 -46 22 -46 24 0 2 61 30 135 62 74 31 133 59 132 61 -4 3
-196 -75 -246 -102 -31 -15 -36 -15 -82 1 -27 10 -49 20 -49 23 0 6 357 159
372 160 4 1 14 -9 23 -22z m1074 -7 c4 0 20 -31 35 -70 21 -53 32 -70 47 -70
26 0 33 23 20 61 -6 18 -9 34 -7 36 5 5 347 -134 359 -146 19 -19 -36 -29
-134 -23 -142 7 -250 -24 -299 -85 -18 -23 -21 -36 -16 -76 3 -27 14 -63 25
-81 22 -34 86 -75 135 -86 30 -6 27 -8 -61 -53 -96 -49 -99 -52 -105 -124 l-3
-32 -65 23 c-102 37 -184 75 -197 93 -15 20 -17 67 -3 92 5 10 48 35 96 56 70
30 95 36 128 31 28 -3 35 -2 21 4 -11 5 -36 9 -56 9 -20 1 -42 7 -48 15 -6 8
-25 19 -41 26 -28 12 -30 16 -30 67 0 54 0 54 22 39 55 -39 102 0 51 43 -21
17 -23 22 -8 16 11 -3 42 -11 68 -18 40 -9 50 -8 58 4 15 24 10 51 -11 56 -15
4 -19 11 -14 25 7 23 -10 38 -43 38 -14 0 -23 6 -23 15 0 21 -27 30 -45 15
-12 -10 -16 -9 -21 3 -3 9 -14 19 -25 22 -32 11 -21 21 34 34 28 7 68 21 87
31 19 11 41 17 48 15 8 -3 17 -5 21 -5z m-3598 -40 c11 -6 19 -21 19 -35 0
-36 -35 -55 -105 -55 -66 0 -105 18 -105 50 0 32 39 50 108 50 35 0 72 -5 83
-10z m1812 -84 c37 -27 160 -30 200 -3 14 9 28 17 31 17 2 0 12 -21 22 -47 12
-32 20 -89 23 -171 l6 -123 170 -72 c94 -40 177 -77 185 -82 11 -8 15 -29 15
-85 l0 -75 45 -23 c25 -12 117 -55 205 -94 129 -58 170 -72 211 -73 28 0 57
-5 65 -11 38 -31 82 -45 119 -39 31 5 38 3 42 -13 6 -21 85 -48 118 -39 15 4
20 0 20 -13 0 -13 15 -26 45 -39 29 -13 49 -29 55 -46 7 -19 30 -35 82 -59 40
-19 132 -61 203 -94 199 -91 218 -97 266 -83 23 7 183 83 357 170 l315 158 49
-20 c26 -11 48 -22 48 -26 0 -5 -2743 -1375 -2781 -1389 -10 -4 -2809 1389
-2809 1398 0 3 53 27 118 53 64 27 122 51 128 53 11 5 94 -124 94 -145 0 -21
53 -51 92 -51 49 0 74 13 92 47 l14 27 16 -39 c60 -146 164 -205 287 -164 49
17 74 43 115 123 l37 71 67 -3 c41 -3 76 1 90 8 13 7 37 44 57 88 85 183 97
329 33 397 -10 11 -18 29 -16 40 3 21 20 29 636 289 140 60 270 115 289 124
24 11 36 13 38 5 8 -24 64 -93 87 -109 33 -21 130 -29 184 -15 33 9 50 23 77
59 38 52 85 159 85 195 0 18 4 15 23 -17 12 -22 34 -48 50 -60z m1515 -38 c2
-85 1 -98 -14 -98 -10 0 -14 5 -10 15 3 8 9 22 12 31 5 11 -10 7 -55 -15 -33
-17 -61 -29 -61 -27 0 2 -2 11 -6 19 -4 10 14 22 60 42 37 15 66 31 66 35 0
23 -29 42 -58 38 -35 -5 -43 11 -16 33 12 10 20 10 34 1 17 -10 30 -7 30 9 0
4 -10 10 -22 12 -16 4 -13 5 7 4 l30 -2 3 -97z m95 50 c12 -19 18 -21 28 -10
21 20 41 15 34 -8 -6 -17 -2 -20 29 -20 20 0 36 -4 36 -9 0 -21 -21 -20 -86 4
-38 14 -70 25 -71 25 -2 0 -3 9 -3 20 0 26 14 25 33 -2z m-3342 -19 c19 -19
21 -28 13 -83 -4 -33 -7 -74 -7 -89 0 -25 -2 -27 -14 -14 -12 12 -12 25 -3 75
14 78 2 107 -38 97 -26 -6 -26 -6 -8 14 24 26 31 26 57 0z m3114 11 c13 -6 15
-9 5 -9 -8 -1 -25 -4 -37 -7 -17 -5 -23 -2 -23 10 0 17 23 20 55 6z m105 -24
c0 -17 -2 -18 -114 -46 -73 -18 -90 -20 -97 -8 -5 7 -9 16 -9 19 0 4 175 45
208 48 6 1 12 -5 12 -13z m-3466 -17 c26 -20 37 -14 14 9 -9 9 5 12 65 12 l77
0 -6 -38 c-7 -42 11 -122 27 -122 6 0 7 5 4 10 -15 24 13 7 33 -20 13 -16 31
-30 41 -30 22 0 37 -34 47 -101 l6 -47 -54 -28 c-46 -25 -53 -34 -56 -62 -2
-18 -14 -49 -28 -69 -13 -20 -24 -39 -24 -43 0 -4 -19 -4 -42 1 -24 4 -69 5
-100 2 -53 -5 -58 -4 -58 14 0 11 -9 32 -21 47 -18 23 -19 34 -13 96 5 57 3
78 -11 111 -14 30 -16 42 -7 51 9 9 12 9 12 0 0 -19 38 -14 50 7 5 11 10 31
10 45 0 14 5 26 10 26 6 0 10 -5 10 -12 0 -31 21 13 29 60 7 46 6 51 -13 56
-69 19 -85 -5 -66 -99 9 -45 9 -59 -2 -72 -14 -17 -13 -22 -33 122 -6 43 -4
53 14 73 27 27 51 28 85 1z m3755 -56 c3 -2 -1 -9 -7 -15 -9 -9 -12 -9 -12 2
0 12 -2 12 -9 2 -7 -11 -23 -9 -90 9 -76 21 -81 24 -81 49 l0 28 98 -36 c53
-20 99 -37 101 -39z m-1425 47 c26 -11 46 -26 46 -35 0 -19 -4 -19 -57 1 -29
12 -43 23 -43 35 0 23 -2 23 54 -1z m-2114 -39 c0 -42 -16 -63 -31 -40 -10 17
-12 63 -2 72 18 19 33 5 33 -32z m2388 -81 c12 -8 22 -20 22 -27 0 -17 -1 -17
-65 11 -37 17 -55 31 -55 43 0 14 -2 15 -9 4 -13 -21 -105 19 -109 48 -3 18 6
16 95 -22 54 -23 108 -49 121 -57z m642 90 c0 -5 -2 -10 -4 -10 -3 0 -8 5 -11
10 -3 6 -1 10 4 10 6 0 11 -4 11 -10z m-3260 -29 c0 -37 -26 -49 -34 -15 -8
29 -1 44 20 44 9 0 14 -10 14 -29z m2638 -139 c3 -21 -12 -31 -21 -14 -3 4
-71 34 -151 67 -82 34 -147 66 -150 75 -2 8 -3 -25 -3 -75 l1 -90 5 70 c3 39
9 65 13 59 9 -14 23 -174 15 -174 -3 0 -17 4 -31 10 -26 9 -26 10 -26 124 l0
114 173 -72 c141 -60 173 -76 175 -94z m1782 108 c52 -22 98 -44 103 -49 6 -6
-8 -18 -36 -31 -25 -12 -51 -28 -57 -35 -7 -8 12 -1 42 15 62 35 86 36 153 11
165 -61 178 -71 173 -135 -3 -40 -4 -41 -88 -83 l-85 -42 -5 50 c-4 36 -12 54
-25 62 -32 20 -185 86 -185 81 0 -3 42 -25 94 -49 51 -24 96 -51 100 -60 3 -9
6 -34 6 -55 l0 -39 -122 -59 c-203 -99 -399 -192 -404 -192 -2 0 -5 24 -6 53
l-2 52 -3 -47 c-5 -60 -12 -60 -130 -12 -137 56 -153 68 -153 115 0 49 18 67
112 116 64 32 83 37 153 39 44 1 102 9 129 18 l49 15 44 -32 c131 -94 155
-103 187 -68 27 30 12 54 -54 92 -132 75 -121 65 -105 96 21 41 19 115 -4 145
-11 13 -38 33 -61 43 -36 16 -39 20 -24 27 35 14 108 -1 204 -42z m-806 21
c14 -15 14 -20 3 -29 -17 -14 -37 3 -37 30 0 23 12 23 34 -1z m-1978 -14 c41
-8 64 -7 115 5 l63 16 -27 -24 c-51 -44 -165 -40 -219 7 -20 18 -21 20 -3 14
11 -4 43 -12 71 -18z m2562 -4 c55 -17 102 -59 102 -93 0 -24 -59 -75 -107
-91 -23 -9 -80 -14 -143 -14 -118 0 -165 12 -216 57 -54 47 -40 89 42 128 87
40 213 46 322 13z m-833 7 c3 -5 2 -10 -4 -10 -5 0 -13 5 -16 10 -3 6 -2 10 4
10 5 0 13 -4 16 -10z m145 -36 c0 -9 -7 -14 -17 -12 -25 5 -28 28 -4 28 12 0
21 -6 21 -16z m150 6 c0 -5 -10 -10 -22 -10 -19 0 -20 2 -8 10 19 13 30 13 30
0z m-1123 -80 c87 -36 102 -46 106 -68 3 -15 3 -29 1 -31 -2 -3 -37 10 -77 28
-39 18 -102 44 -139 58 -62 24 -68 28 -68 54 l0 28 38 -13 c20 -8 83 -33 139
-56z m-2729 24 c48 -33 16 -79 -64 -89 -70 -10 -127 15 -122 54 2 15 13 31 28
38 36 18 131 16 158 -3z m2932 -12 c92 -39 90 -36 90 -103 0 -32 -2 -59 -4
-59 -3 0 -38 15 -80 34 l-74 34 -4 61 c-1 34 -1 61 2 61 3 0 35 -12 70 -28z
m-132 -117 c30 -13 32 -17 32 -64 l0 -50 -140 61 -140 61 0 48 0 48 108 -45
c59 -25 122 -52 140 -59z m305 51 c23 -13 99 -47 169 -76 120 -51 146 -70 94
-70 -30 0 -87 -19 -104 -35 -15 -13 -54 -2 -174 52 l-58 26 0 63 c0 74 7 78
73 40z m-3023 -11 c8 -10 12 -38 10 -78 -2 -34 -3 -74 -4 -89 -1 -31 -8 -35
-24 -15 -8 9 -8 24 -1 51 6 20 9 53 7 74 -3 33 -6 37 -30 37 -31 -1 -34 5 -16
23 16 16 43 15 58 -3z m4390 -10 c-7 -9 -15 -13 -18 -10 -3 2 1 11 8 20 7 9
15 13 18 10 3 -2 -1 -11 -8 -20z m-339 -35 c68 -15 207 -9 265 12 37 13 42 13
51 -2 6 -9 39 -31 74 -49 81 -43 131 -80 124 -92 -12 -19 -63 -8 -101 22 -72
57 -121 88 -150 93 -16 4 -23 3 -16 0 23 -11 12 -22 -32 -33 -129 -32 -287 7
-327 81 l-11 21 33 -20 c19 -12 59 -26 90 -33z m-4149 -15 c-4 -59 14 -118 29
-95 7 12 14 9 35 -17 14 -18 33 -33 43 -33 17 0 41 -37 41 -64 0 -7 -9 -21
-19 -30 -26 -24 -31 -50 -16 -79 12 -23 10 -28 -17 -54 -46 -42 -69 -103 -67
-171 3 -99 -39 -155 -103 -138 -36 9 -40 15 -100 123 -69 124 -88 178 -95 268
-5 65 12 149 24 118 14 -38 71 7 58 46 -3 12 0 21 10 25 8 3 15 0 15 -6 0 -32
20 13 28 62 l8 56 -45 -1 -46 0 1 -45 c0 -25 2 -63 5 -84 5 -52 -17 -60 -25
-9 -23 145 -18 173 35 173 17 0 39 -5 49 -10 15 -8 18 -7 15 2 -4 10 13 13 67
13 l73 0 -3 -50z m62 17 c9 -15 -6 -83 -18 -79 -20 7 -31 54 -16 71 14 18 26
20 34 8z m2912 -31 c159 -69 144 -54 144 -134 0 -51 -3 -68 -12 -64 -128 54
-205 91 -215 104 -11 14 -19 133 -10 133 2 0 44 -17 93 -39z m-3141 -27 c0
-19 -5 -29 -15 -29 -16 0 -25 28 -16 51 10 25 31 10 31 -22z m846 -19 c55 -29
25 -81 -56 -96 -86 -16 -185 17 -185 62 0 52 163 74 241 34z m2809 -33 c34
-17 35 -18 30 -67 l-5 -51 -42 9 c-40 8 -43 10 -57 60 -21 70 2 85 74 49z
m-300 -13 c30 -11 58 -23 62 -25 3 -2 -4 -24 -18 -48 -18 -33 -26 -65 -30
-134 -4 -51 -8 -92 -9 -92 -1 0 -38 16 -81 37 -44 20 -83 37 -89 38 -5 2 -40
16 -77 33 l-68 31 0 65 c0 78 3 79 93 35 58 -29 63 -34 61 -63 -1 -26 -1 -27
3 -3 2 15 8 27 12 27 4 0 35 -11 69 -25 74 -30 88 -32 45 -5 -32 19 -33 22
-33 85 0 36 1 65 3 65 1 0 27 -9 57 -21z m211 -34 l17 -56 -35 -14 c-41 -18
-42 -17 -78 35 -32 46 -28 56 28 77 49 18 51 17 68 -42z m1575 -70 c-4 -15
-32 -34 -95 -63 -49 -23 -92 -42 -95 -42 -4 0 -6 30 -4 68 l3 67 95 46 95 46
3 -50 c2 -28 1 -61 -2 -72z m-1361 66 l64 -29 -25 -46 c-14 -25 -27 -46 -30
-46 -2 0 -22 9 -44 21 -39 21 -40 22 -40 75 0 30 2 54 5 54 3 0 34 -13 70 -29z
m-3040 -30 c33 0 78 6 100 14 38 14 41 13 57 -8 35 -45 43 -102 25 -182 -17
-79 -81 -237 -103 -256 -19 -16 -85 -22 -115 -11 -25 10 -26 14 -21 61 6 63
-17 129 -64 181 -23 26 -30 40 -23 50 16 26 10 60 -15 83 -25 24 -23 39 11 78
12 14 18 15 51 3 20 -7 64 -13 97 -13z m2733 -26 c32 -44 32 -45 16 -77 -9
-18 -18 -35 -20 -37 -7 -8 -84 49 -84 62 1 19 38 97 47 97 4 -1 23 -21 41 -45z
m600 -65 c45 -16 103 -40 129 -53 l47 -24 -3 -59 c-1 -33 -4 -60 -5 -62 -2 -1
-53 19 -114 45 -94 39 -114 52 -132 82 -39 66 -70 106 -108 138 l-37 31 70
-34 c39 -18 107 -47 153 -64z m-164 27 c34 -42 31 -56 -16 -85 -27 -16 -29
-16 -59 14 l-31 31 22 42 c25 51 41 50 84 -2z m1026 -21 l0 -63 -142 -70 c-79
-39 -145 -69 -146 -68 -2 2 -1 34 3 70 l8 67 131 64 c72 35 134 63 139 64 4 0
7 -29 7 -64z m-1219 2 c64 -27 78 -44 44 -52 -14 -4 -31 -4 -37 0 -7 4 -8 3
-4 -4 4 -7 5 -12 2 -12 -2 0 -13 -3 -23 -6 -15 -5 -15 -4 -3 5 9 7 11 11 3 11
-7 0 -16 -6 -20 -14 -4 -7 -36 -26 -70 -41 -35 -15 -63 -31 -63 -36 0 -13 -30
-39 -46 -39 -10 0 -14 14 -14 56 l0 55 56 26 c30 14 53 27 50 30 -2 3 -25 -4
-49 -15 l-45 -20 13 31 c7 16 27 38 45 47 38 19 79 14 161 -22z m-3182 14 c52
-26 60 -46 32 -76 -34 -36 -118 -54 -179 -37 -26 7 -57 19 -69 27 -25 16 -31
55 -10 72 39 33 173 42 226 14z m4611 -54 c0 -74 -8 -97 -41 -114 l-29 -15 0
75 c0 72 1 76 28 90 40 22 42 21 42 -36z m-1680 -90 c0 -32 -4 -58 -10 -58 -5
0 -25 8 -45 17 -34 16 -35 18 -35 73 0 31 3 59 6 63 4 3 24 -4 45 -16 38 -22
39 -23 39 -79z m1598 30 l-3 -73 -125 -61 c-181 -88 -167 -88 -169 -2 l-1 73
82 40 c104 49 201 92 211 94 4 1 7 -32 5 -71z m-1085 25 c43 -68 43 -81 2 -99
-34 -14 -39 -14 -55 1 -10 9 -24 30 -31 47 -12 30 -11 33 21 60 19 15 35 28
37 28 2 0 13 -17 26 -37z m-158 7 c10 -15 -123 -72 -149 -64 -17 6 -9 13 49
40 77 36 91 39 100 24z m811 -136 c-3 -7 -42 -32 -87 -55 l-82 -41 -95 38
c-52 21 -96 44 -99 50 -2 6 -3 36 -1 67 l3 55 70 -29 c93 -37 129 -36 217 6
l73 35 3 -57 c2 -30 1 -62 -2 -69z m-771 85 c9 -17 15 -32 13 -33 -2 -1 -25
-12 -52 -24 l-49 -23 -28 27 c-16 16 -26 31 -22 35 8 8 103 48 115 48 4 1 15
-13 23 -30z m-3438 4 c43 -3 86 0 108 7 36 12 38 11 70 -25 70 -76 73 -183 10
-304 -46 -86 -83 -121 -133 -122 -123 -4 -154 17 -217 140 -29 58 -42 144 -31
203 3 19 23 54 43 77 28 34 40 41 57 36 12 -4 53 -9 93 -12z m3193 -29 c0 -8
-4 -12 -10 -9 -5 3 -10 10 -10 16 0 5 5 9 10 9 6 0 10 -7 10 -16z m550 -120
l0 -73 -36 15 c-64 27 -46 8 25 -25 l69 -32 -5 -67 c-3 -37 -5 -70 -6 -73 -1
-4 -31 8 -67 25 -60 29 -65 33 -66 66 -10 188 -13 208 -33 246 -12 21 -21 42
-21 46 0 3 32 -8 70 -25 l70 -31 0 -72z m-442 89 c36 -27 33 -38 -10 -48 -22
-6 -30 -1 -52 31 -14 21 -26 42 -26 47 0 13 54 -5 88 -30z m-114 5 c8 -13 18
-36 22 -51 l7 -29 -42 21 c-42 22 -52 46 -29 69 17 17 26 15 42 -10z m1534
-33 c7 -81 -2 -98 -76 -137 -110 -59 -107 -60 -110 27 l-3 74 83 40 c46 21 88
38 93 37 6 -1 11 -20 13 -41z m-1232 0 c7 -19 14 -37 14 -40 0 -2 -22 -16 -50
-30 -27 -14 -50 -21 -50 -15 0 6 -12 22 -26 37 -14 14 -24 26 -22 28 8 7 104
54 111 55 4 0 15 -16 23 -35z m127 3 c19 -45 28 -106 17 -113 -11 -7 -87 12
-94 24 -3 4 -8 26 -12 48 -6 39 -5 40 32 56 22 9 40 16 41 16 2 1 9 -14 16
-31z m-369 -40 c-10 -16 -19 -7 -31 30 l-11 37 23 -29 c13 -17 22 -33 19 -38z
m1084 -10 l-3 -72 -130 -68 c-71 -37 -139 -68 -151 -68 -11 0 -81 26 -155 58
l-134 58 -3 73 c-2 57 0 72 10 68 7 -3 72 -30 144 -60 l131 -54 134 68 c74 38
140 68 147 69 10 0 12 -18 10 -72z m-958 -15 c12 -16 17 -29 11 -31 -18 -6
-81 19 -81 32 0 35 42 35 70 -1z m1150 -61 l0 -77 -137 -68 c-76 -37 -142 -67
-146 -67 -4 0 -7 35 -5 77 l3 77 135 67 c74 38 138 68 143 68 4 1 7 -34 7 -77z
m-1020 48 c0 -5 -8 -10 -17 -10 -15 0 -16 2 -3 10 19 12 20 12 20 0z m10 -55
l0 -35 -35 17 c-41 19 -44 30 -12 43 39 16 47 12 47 -25z m118 -7 c13 -11 17
-118 5 -118 -5 0 -26 10 -48 23 -37 21 -40 26 -43 71 l-3 48 38 -7 c21 -4 44
-11 51 -17z m306 -94 l107 -46 85 41 c47 22 88 41 90 41 2 0 4 -33 4 -74 l0
-75 -53 -30 c-29 -16 -74 -36 -99 -42 -46 -13 -50 -12 -150 32 l-103 45 -3 77
c-2 42 1 77 6 77 5 0 57 -21 116 -46z"/>
<path d="M4193 4361 c-27 -12 -42 -38 -36 -62 3 -11 -2 -35 -12 -55 -13 -27
-15 -49 -10 -89 4 -34 2 -55 -4 -60 -7 -4 -11 6 -11 25 0 17 -5 41 -12 53 -7
12 -11 32 -9 44 4 38 -32 63 -92 63 -71 0 -97 -19 -97 -70 0 -21 -4 -42 -10
-45 -5 -3 -10 -42 -10 -86 0 -46 -4 -79 -10 -79 -5 0 -10 13 -10 28 0 16 -7
37 -15 48 -8 10 -15 35 -15 55 0 46 -18 61 -79 67 -70 6 -111 -17 -111 -64 0
-19 -5 -45 -12 -57 -7 -12 -12 -55 -11 -94 0 -40 -3 -73 -8 -73 -5 0 -9 13 -9
28 0 16 -7 37 -15 48 -8 10 -15 35 -15 55 0 50 -20 64 -95 64 -78 0 -110 -22
-102 -70 3 -18 -1 -39 -9 -50 -9 -12 -14 -46 -14 -98 0 -49 -4 -76 -10 -72 -5
3 -10 16 -10 29 0 12 -7 31 -15 42 -8 10 -15 37 -15 60 0 34 -4 43 -25 52 -40
19 -106 14 -144 -9 -30 -18 -33 -24 -28 -53 3 -20 0 -39 -6 -45 -7 -7 -14 -48
-17 -93 -3 -53 -9 -83 -17 -86 -8 -2 -13 5 -13 20 0 13 -7 36 -15 52 -8 15
-15 44 -15 63 0 30 -5 36 -37 50 -43 18 -102 13 -139 -12 -20 -13 -25 -24 -23
-48 2 -18 -3 -42 -9 -54 -7 -12 -12 -55 -12 -96 l0 -74 -85 -32 -85 -32 0 -44
c0 -39 4 -46 30 -60 l30 -16 0 -129 c0 -129 0 -130 24 -136 53 -13 94 13 149
96 29 45 61 80 72 83 11 2 275 101 588 221 312 119 570 216 572 216 3 0 5 -20
5 -45 0 -57 21 -71 77 -52 31 11 48 29 98 102 l60 89 120 46 120 45 3 48 c4
54 14 46 -140 101 l-78 28 0 47 c0 26 -6 56 -14 67 -8 10 -12 30 -10 44 8 42
-16 63 -77 66 -30 2 -64 0 -76 -5z m105 -17 c12 -4 22 -12 22 -19 0 -24 -85
-34 -122 -14 -21 11 -21 12 -3 25 20 15 64 18 103 8z m22 -55 c0 -11 -30 -19
-70 -19 -40 0 -70 8 -70 19 0 3 31 6 70 6 38 0 70 -3 70 -6z m-260 -39 c13 -9
12 -12 -4 -25 -23 -18 -79 -20 -108 -4 -21 11 -21 12 -3 25 22 16 93 18 115 4z
m281 -11 c5 -8 9 -52 9 -98 0 -109 -10 -121 -93 -121 -88 0 -97 11 -97 121 0
48 2 93 5 101 8 19 163 17 176 -3z m-374 -38 c17 -5 48 -6 67 -1 36 8 50 -2
20 -14 -38 -14 -124 -4 -124 15 0 11 -2 11 37 0z m-152 -42 c16 -16 -15 -29
-70 -29 -55 0 -86 13 -70 29 22 21 118 21 140 0z m273 -3 c8 -5 12 -41 12
-105 0 -120 -5 -126 -97 -126 -85 0 -93 11 -93 126 0 48 2 94 5 101 4 10 26
14 84 13 42 -1 83 -5 89 -9z m-285 -53 c-18 -14 -73 -17 -110 -7 -43 12 -23
19 52 19 63 0 73 -2 58 -12z m660 -22 l79 -27 -364 -138 c-199 -76 -397 -151
-438 -167 -41 -16 -241 -92 -445 -168 l-369 -138 -96 40 c-52 21 -106 44 -120
49 -25 10 -24 10 15 25 73 27 80 27 93 -2 23 -49 115 -70 185 -40 46 19 57 40
57 108 0 38 4 57 14 60 9 4 16 -3 20 -18 14 -55 138 -79 206 -39 33 19 35 23
38 80 4 84 9 94 32 57 10 -18 28 -37 39 -42 29 -16 127 -13 160 4 35 18 41 32
41 101 0 57 9 68 25 32 16 -35 53 -49 122 -45 86 4 113 29 113 103 0 29 5 56
10 59 6 3 10 -3 10 -14 0 -11 12 -29 28 -41 23 -19 37 -21 95 -18 83 5 104 22
111 93 3 28 5 55 6 60 0 6 7 -2 16 -17 17 -32 48 -43 117 -42 64 1 101 28 105
77 2 21 6 37 10 37 4 0 42 -13 85 -29z m-911 -7 c33 -20 -52 -50 -104 -36 -39
10 -43 33 -8 43 25 8 95 3 112 -7z m296 -102 c3 -74 1 -91 -15 -110 -20 -25
-83 -39 -127 -28 -48 12 -56 30 -56 129 0 51 4 98 9 105 6 9 22 11 57 7 27 -4
60 -2 74 3 42 17 55 -6 58 -106z m720 41 c-3 -24 -13 -31 -103 -65 -259 -100
-388 -150 -475 -184 -235 -91 -1044 -394 -1052 -394 -5 0 -8 12 -6 27 3 27 16
33 318 147 173 65 538 203 810 306 272 104 499 189 503 189 5 1 7 -11 5 -26z
m-1008 6 c0 -21 -116 -26 -143 -6 -14 10 -4 12 63 12 44 0 80 -3 80 -6z m-276
-49 c15 -15 -3 -28 -47 -34 -78 -12 -133 29 -61 46 33 7 95 1 108 -12z m297
-1 c5 -8 9 -55 9 -105 0 -80 -3 -93 -21 -110 -27 -25 -140 -27 -163 -4 -19 19
-32 174 -18 210 9 24 13 25 97 24 63 0 89 -4 96 -15z m-308 -56 c-9 -7 -38
-13 -63 -13 -25 0 -54 6 -63 13 -14 10 -4 12 63 12 67 0 77 -2 63 -12z m47
-148 c0 -71 -4 -97 -15 -109 -33 -32 -142 -33 -174 -1 -20 19 -29 182 -12 213
9 18 18 19 69 15 35 -3 67 -1 78 5 15 9 22 7 37 -9 13 -17 17 -40 17 -114z
m-320 105 c40 -25 -69 -52 -125 -30 -29 11 -29 12 -11 26 22 16 113 19 136 4z
m1257 -85 c-38 -58 -63 -82 -74 -72 -5 6 65 119 79 129 35 22 33 2 -5 -57z
m-1247 33 c0 -9 -46 -21 -80 -21 -34 0 -80 12 -80 21 0 4 36 7 80 7 44 0 80
-3 80 -7z m1204 -14 c-13 -19 -19 -22 -26 -12 -7 9 -8 8 -4 -5 6 -20 -36 -92
-47 -80 -4 3 -7 23 -7 44 0 40 17 61 31 38 7 -11 9 -11 9 3 0 13 21 27 58 37
1 1 -5 -11 -14 -25z m-1284 -28 c14 0 40 3 57 8 30 7 34 5 43 -19 13 -34 13
-166 0 -199 -16 -42 -124 -56 -174 -22 -25 16 -26 20 -26 119 0 113 7 131 49
119 14 -3 37 -6 51 -6z m-12 -379 c2 -15 -1 -27 -5 -27 -5 0 -61 22 -124 49
-106 46 -114 52 -117 80 l-3 30 123 -53 c111 -47 123 -55 126 -79z m-176 -44
l2 -68 3 62 4 62 47 -20 c26 -11 48 -22 50 -24 6 -5 -110 -175 -120 -175 -4 0
-8 52 -8 115 0 70 4 115 10 115 6 0 11 -30 12 -67z m156 -12 c-36 -73 -119
-166 -133 -149 -1 2 22 40 51 85 39 60 58 81 69 77 9 -4 14 -9 13 -13z"/>
<path d="M3250 3520 c-8 -5 -10 -10 -5 -10 6 0 17 5 25 10 8 5 11 10 5 10 -5
0 -17 -5 -25 -10z"/>
<path d="M3200 3500 c-8 -5 -10 -10 -5 -10 6 0 17 5 25 10 8 5 11 10 5 10 -5
0 -17 -5 -25 -10z"/>
<path d="M3150 3480 c-8 -5 -10 -10 -5 -10 6 0 17 5 25 10 8 5 11 10 5 10 -5
0 -17 -5 -25 -10z"/>
<path d="M3070 3450 c-8 -5 -10 -10 -5 -10 6 0 17 5 25 10 8 5 11 10 5 10 -5
0 -17 -5 -25 -10z"/>
<path d="M2611 4142 c-1 -7 -17 -47 -36 -89 -20 -41 -34 -77 -32 -79 7 -8 79
156 74 168 -4 10 -6 10 -6 0z"/>
<path d="M4926 3939 c-8 -42 0 -50 9 -9 4 17 5 34 2 36 -2 3 -7 -10 -11 -27z"/>
<path d="M5321 4735 c0 -5 13 -35 29 -65 16 -30 29 -50 29 -45 0 6 -13 35 -29
65 -16 30 -29 51 -29 45z"/>
<path d="M5442 4575 c0 -16 2 -22 5 -12 2 9 2 23 0 30 -3 6 -5 -1 -5 -18z"/>
<path d="M5452 4515 c0 -16 2 -22 5 -12 2 9 2 23 0 30 -3 6 -5 -1 -5 -18z"/>
<path d="M5462 4455 c0 -16 2 -22 5 -12 2 9 2 23 0 30 -3 6 -5 -1 -5 -18z"/>
<path d="M7722 4155 c0 -11 4 -31 8 -45 6 -20 8 -21 8 -5 0 11 -4 31 -8 45 -6
20 -8 21 -8 5z"/>
<path d="M7481 4134 c0 -11 3 -14 6 -6 3 7 2 16 -1 19 -3 4 -6 -2 -5 -13z"/>
<path d="M7490 4104 c0 -6 10 -24 22 -39 12 -16 25 -47 29 -69 l6 -41 2 35 c1
24 -9 50 -29 80 -16 25 -30 40 -30 34z"/>
<path d="M4143 2670 c0 -30 2 -43 4 -27 2 15 2 39 0 55 -2 15 -4 2 -4 -28z"/>
<path d="M5926 3618 c-9 -12 -16 -32 -15 -43 1 -15 3 -13 9 8 5 16 14 35 21
43 6 8 9 14 6 14 -3 0 -13 -10 -21 -22z"/>
<path d="M5911 3524 c-1 -11 6 -29 15 -40 8 -10 12 -13 9 -6 -4 8 -11 26 -15
40 -7 22 -8 23 -9 6z"/>
<path d="M5033 3513 c-35 -7 -50 -31 -31 -50 48 -48 251 -29 232 21 -11 30
-119 45 -201 29z m150 -14 c71 -19 36 -39 -74 -39 -41 0 -72 5 -85 14 -16 12
-16 15 -4 19 8 3 22 8 30 10 26 9 94 7 133 -4z"/>
<path d="M5410 3229 c-71 -22 -82 -61 -25 -85 42 -17 171 -18 205 -1 36 18 34
58 -4 75 -37 18 -132 24 -176 11z m165 -23 c45 -19 44 -33 -2 -45 -75 -21
-219 -6 -210 22 12 36 146 50 212 23z"/>
<path d="M5378 3088 c17 -17 206 -18 223 -1 9 9 2 9 -27 2 -53 -12 -147 -11
-181 2 -23 8 -26 8 -15 -3z"/>
<path d="M6079 3187 c20 -26 10 -29 -43 -11 -59 20 -173 15 -210 -10 -26 -16
-43 -7 -30 17 5 9 4 9 -6 1 -24 -23 -1 -53 52 -69 134 -39 308 13 242 74 -17
15 -17 15 -5 -2z m-33 -28 l29 -12 -45 -14 c-64 -20 -210 -8 -210 17 0 27 165
34 226 9z"/>
<path d="M4644 3139 c-47 -14 -58 -32 -33 -55 29 -26 179 -28 205 -2 14 14 15
20 5 32 -26 31 -114 44 -177 25z m122 -10 c24 -6 44 -15 44 -20 0 -27 -111
-38 -169 -18 -40 14 -39 26 2 38 44 13 71 13 123 0z"/>
<path d="M4510 2885 c0 -2 21 -16 47 -31 82 -49 270 -43 338 11 18 14 15 14
-20 -1 -108 -44 -231 -45 -315 -1 -27 14 -50 24 -50 22z"/>
<path d="M5980 2730 c8 -5 20 -10 25 -10 6 0 3 5 -5 10 -8 5 -19 10 -25 10 -5
0 -3 -5 5 -10z"/>
<path d="M6041 2706 c2 -2 15 -9 29 -16 23 -12 24 -12 11 3 -7 10 -20 17 -29
17 -8 0 -13 -2 -11 -4z"/>
<path d="M5695 2671 c14 -14 157 -72 163 -66 3 3 3 5 0 5 -4 0 -44 16 -90 36
-45 19 -78 31 -73 25z"/>
<path d="M6170 2647 c8 -9 242 -108 247 -104 2 2 -47 25 -109 52 -130 55 -145
60 -138 52z"/>
<path d="M5970 2557 c0 -5 64 -33 329 -142 101 -42 185 -74 187 -72 5 5 -295
133 -503 214 -7 3 -13 3 -13 0z"/>
<path d="M6871 2676 c10 -9 69 -36 69 -32 0 6 -55 36 -66 36 -4 0 -5 -2 -3 -4z"/>
<path d="M6615 2291 c80 -38 135 -60 135 -55 0 7 -117 59 -150 68 -14 3 -7 -2
15 -13z"/>
<path d="M3053 2795 c-8 -23 1 -28 60 -32 61 -5 102 15 79 39 -11 11 -13 10
-10 -2 2 -12 -9 -15 -57 -15 -43 0 -59 4 -57 13 3 17 -7 15 -15 -3z"/>
<path d="M4251 2241 c-26 -26 -27 -56 -3 -73 10 -7 27 -26 38 -42 14 -23 16
-30 5 -34 -23 -8 -46 -41 -51 -74 -5 -31 -11 -35 -155 -95 -244 -102 -252
-106 -257 -145 -3 -18 -3 -49 -1 -69 4 -29 12 -40 39 -52 l34 -17 2 -287 3
-287 34 -23 c60 -41 103 -42 148 -6 20 17 22 29 30 256 l8 237 230 -111 c127
-61 313 -152 415 -201 102 -49 204 -99 227 -110 l43 -20 2 -297 3 -296 54 -29
54 -29 53 26 54 27 2 297 3 297 235 112 c129 62 240 113 245 113 6 1 9 -17 7
-41 -1 -24 1 -133 5 -243 l8 -200 44 -24 44 -24 53 26 54 27 0 290 0 290 28
17 c15 10 30 22 34 28 13 17 9 112 -5 123 -7 6 -111 54 -232 106 -164 71 -220
99 -220 112 0 22 -21 29 -40 14 -10 -9 -22 -7 -52 8 -21 11 -96 45 -168 75
-71 30 -193 83 -270 117 -276 122 -344 150 -362 150 -10 0 -36 -9 -58 -19 -32
-14 -57 -17 -127 -13 -81 4 -88 6 -116 36 -16 17 -34 45 -39 61 -12 38 -52 46
-82 16z m68 -33 c7 -18 43 -69 82 -113 100 -114 100 -115 40 -115 l-49 0 -47
86 c-26 47 -58 95 -71 107 -28 24 -30 42 -6 56 29 17 40 12 51 -21z m591 -171
c118 -52 278 -122 355 -156 77 -34 164 -72 193 -83 37 -15 52 -26 52 -40 0
-17 -10 -29 -70 -80 -28 -25 -26 -69 6 -99 22 -20 35 -24 90 -23 53 1 69 5 89
24 40 37 33 71 -22 118 -27 22 -46 43 -43 46 6 5 398 -159 413 -173 13 -13
-159 -84 -185 -76 -17 5 -19 4 -8 -4 12 -8 -7 -20 -84 -56 -54 -26 -105 -44
-112 -41 -8 3 -13 1 -11 -4 1 -6 -38 -29 -86 -51 -78 -36 -92 -40 -115 -30
-25 10 -25 10 -8 -3 18 -14 13 -18 -65 -54 -150 -68 -143 -67 -191 -44 -24 11
-124 59 -223 107 -99 48 -220 106 -270 130 -49 23 -180 85 -290 138 -110 52
-258 122 -330 156 l-129 62 174 75 c221 94 207 90 215 62 4 -13 20 -40 36 -60
16 -20 29 -48 29 -62 0 -30 26 -49 88 -66 87 -23 194 16 200 73 2 16 14 44 28
64 58 86 56 169 -4 206 l-27 16 35 15 c19 8 40 14 45 11 6 -2 107 -46 225 -98z
m-309 47 c19 -11 41 -32 49 -48 14 -26 14 -28 -17 -56 -43 -39 -102 -53 -198
-48 -79 4 -126 20 -159 53 -21 22 -20 37 5 69 25 32 49 21 28 -12 -34 -54 99
-105 211 -81 65 14 110 50 94 76 -17 30 -75 53 -131 53 -28 0 -55 5 -59 11
-12 20 138 5 177 -17z m-24 -29 c33 -22 25 -46 -21 -64 -32 -12 -40 -13 -44
-2 -2 7 -17 28 -33 46 -16 18 -29 36 -29 40 0 13 101 -3 127 -20z m-232 -36
c16 -29 16 -30 -4 -20 -25 14 -34 28 -26 41 9 15 13 13 30 -21z m-28 -71 c33
-20 52 -23 143 -23 91 0 110 3 143 23 21 12 40 22 43 22 2 0 -3 -17 -11 -37
-20 -46 -60 -91 -100 -110 -29 -14 -7 -12 28 2 12 5 17 2 17 -9 0 -46 -174
-62 -219 -22 -26 23 -27 41 -3 31 30 -12 60 -17 32 -5 -36 16 -79 59 -101 102
-29 57 -27 58 28 26z m1229 -182 c-6 -32 -3 -37 39 -71 37 -31 45 -43 44 -69
l-1 -31 -8 30 -8 30 -1 -30 c-1 -28 -16 -55 -31 -55 -3 0 -4 15 -2 34 2 20 -3
45 -13 62 -9 16 -13 20 -9 9 4 -11 8 -38 8 -60 1 -38 -1 -40 -29 -40 -25 0
-30 4 -33 28 -2 16 1 43 8 60 8 26 8 29 -2 19 -7 -7 -13 -35 -13 -62 0 -28 -3
-50 -7 -50 -10 0 -58 53 -58 64 0 5 20 28 45 50 33 30 45 49 45 69 0 16 4 26
10 22 6 -3 10 1 10 9 0 9 3 16 6 16 3 0 3 -15 0 -34z m-1390 -124 c159 -77
318 -153 354 -169 121 -57 274 -130 444 -212 92 -44 172 -81 176 -81 5 0 10
-25 12 -55 1 -30 2 -55 1 -55 -5 0 -168 77 -358 170 -115 56 -284 138 -375
182 -91 43 -254 122 -362 175 l-198 96 0 44 c0 24 4 43 8 43 5 0 139 -62 298
-138z m-182 -37 l36 -15 0 -275 c0 -151 -2 -275 -5 -275 -2 0 -20 8 -40 17
l-35 17 0 273 c0 150 2 273 4 273 2 0 20 -7 40 -15z m99 -49 c15 -12 17 -36
17 -249 l0 -236 -30 -16 -30 -16 0 266 c0 277 1 283 43 251z m1927 -51 c0 -41
-3 -46 -32 -59 -18 -7 -85 -39 -148 -69 -63 -30 -194 -92 -290 -137 -96 -45
-217 -102 -268 -126 -50 -24 -94 -44 -97 -44 -3 0 -5 22 -5 48 l0 48 63 29
c34 16 104 48 155 72 52 24 95 43 97 43 1 0 52 23 111 51 121 57 214 99 220
99 2 0 5 -12 5 -27 2 -26 2 -25 8 5 5 30 14 37 86 72 44 21 83 39 88 39 4 1 7
-19 7 -44z m-60 -380 l0 -274 -30 -16 c-16 -8 -34 -15 -40 -15 -7 0 -10 89
-10 273 l0 273 33 16 c17 8 35 16 40 17 4 0 7 -123 7 -274z m-98 -106 l3 -206
-32 15 -33 16 0 240 0 241 28 15 27 16 2 -66 c2 -36 4 -158 5 -271z m-700
-259 c2 -182 -1 -280 -7 -280 -5 0 -25 9 -42 20 l-33 20 0 280 0 280 40 -20
39 -20 3 -280z m98 30 l0 -279 -30 -16 c-16 -8 -34 -15 -40 -15 -7 0 -10 91
-10 278 l0 278 33 17 c17 8 35 16 40 16 4 1 7 -125 7 -279z"/>
<path d="M4790 2030 c8 -5 20 -10 25 -10 6 0 3 5 -5 10 -8 5 -19 10 -25 10 -5
0 -3 -5 5 -10z"/>
<path d="M4861 1943 c0 -7 -4 -12 -8 -12 -25 4 -34 -3 -28 -21 4 -13 -1 -30
-14 -46 -39 -50 -22 -98 41 -114 53 -15 79 -3 102 45 16 34 16 38 1 61 -9 14
-32 32 -50 40 -21 8 -35 22 -38 36 -2 13 -5 17 -6 11z m84 -118 c0 -43 -44
-71 -92 -59 -33 8 -38 13 -41 42 -2 19 3 41 11 50 8 10 17 25 20 34 6 16 11
15 54 -10 39 -23 48 -34 48 -57z"/>
<path d="M4820 1816 c0 -14 4 -27 8 -30 5 -3 6 8 4 25 -5 35 -12 38 -12 5z"/>
<path d="M4840 1816 c0 -8 4 -17 9 -20 5 -4 7 3 4 14 -6 23 -13 26 -13 6z"/>
<path d="M4901 1814 c0 -11 3 -14 6 -6 3 7 2 16 -1 19 -3 4 -6 -2 -5 -13z"/>
<path d="M5066 1942 c-4 -6 -22 -19 -40 -27 -38 -18 -49 -43 -32 -76 17 -34
41 -45 72 -34 47 17 55 43 29 99 -13 29 -25 45 -29 38z m24 -62 c16 -38 1 -60
-41 -60 -27 0 -49 22 -49 49 0 13 60 52 70 46 4 -3 13 -18 20 -35z"/>
<path d="M5290 1843 c-62 -22 -351 -138 -374 -150 -79 -41 88 -52 212 -14 68
20 72 23 66 46 -5 21 -3 25 18 25 13 0 48 9 78 19 59 21 75 45 44 68 -19 14
-21 14 -44 6z m38 -31 c2 -7 -4 -12 -13 -12 -8 0 -26 -6 -38 -14 -21 -13 -53
-20 -86 -17 -25 2 1 19 59 40 59 21 72 21 78 3z m-161 -69 c16 -34 11 -37 -79
-58 -70 -16 -167 -21 -154 -7 6 6 203 90 216 91 3 1 11 -11 17 -26z"/>
<path d="M4644 1762 c-18 -12 -34 -50 -28 -66 10 -25 69 -56 107 -56 56 0 83
42 57 90 -16 30 -106 52 -136 32z m85 -18 c3 -3 -4 -13 -16 -21 -13 -9 -23
-20 -23 -26 0 -6 13 2 29 17 26 25 30 26 45 11 49 -50 -27 -96 -92 -55 -42 26
-49 46 -26 71 14 15 26 19 48 15 16 -4 32 -9 35 -12z"/>
<path d="M4435 1693 c-30 -7 -46 -32 -35 -53 10 -19 60 -40 95 -40 13 0 28 -7
35 -15 15 -18 51 -20 68 -3 7 7 12 25 12 40 0 24 -7 32 -45 48 -50 22 -101 31
-130 23z m113 -32 c30 -15 32 -19 18 -30 -9 -8 -16 -20 -16 -28 0 -8 -4 -11
-10 -8 -5 3 -10 16 -10 28 0 17 -2 19 -9 8 -10 -16 -74 -10 -97 10 -43 36 63
53 124 20z m52 -39 c0 -13 -28 -47 -34 -42 -10 10 6 50 20 50 8 0 14 -4 14 -8z"/>
<path d="M4966 1581 c-14 -31 -17 -47 -9 -63 8 -18 6 -26 -11 -39 -20 -16 -20
-18 -3 -37 9 -10 49 -31 87 -46 66 -26 69 -29 64 -56 -6 -25 -2 -29 31 -40 73
-24 159 8 135 50 -6 11 9 30 61 74 71 59 86 86 75 131 -14 55 -94 58 -124 5
-14 -24 -21 -28 -42 -22 -38 10 -99 4 -134 -14 -17 -9 -45 -20 -63 -24 -31 -7
-31 -7 -26 24 3 17 -1 47 -9 65 l-14 34 -18 -42z m34 -48 c0 -26 -25 -31 -34
-7 -3 8 -1 25 5 36 9 17 13 18 20 7 5 -8 9 -24 9 -36z m368 35 c22 -22 14 -63
-18 -93 -36 -35 -40 -24 -5 17 29 35 30 41 9 62 -12 12 -20 13 -35 6 -19 -11
-23 -28 -19 -82 2 -40 -17 -68 -63 -89 -57 -25 -73 -24 -169 13 -90 34 -108
45 -108 61 0 6 6 4 13 -5 9 -12 39 -17 117 -22 104 -5 172 4 186 25 3 6 -4 5
-17 -2 -28 -16 -219 -16 -246 0 -14 7 -9 11 27 21 24 6 55 19 69 28 25 16 25
16 12 -1 -21 -27 1 -42 59 -42 60 0 85 19 55 42 -19 15 -19 15 8 9 21 -5 29
-2 34 11 16 47 64 68 91 41z m-20 -40 c-4 -29 -38 -38 -38 -10 0 22 8 32 27
32 9 0 13 -8 11 -22z m-140 -24 c39 -11 24 -24 -28 -24 -49 0 -68 14 -32 23
26 7 35 7 60 1z m27 -164 c0 -19 -50 -33 -91 -25 -50 9 -38 29 22 36 61 7 69
6 69 -11z"/>
<path d="M4660 1600 c0 -6 21 -20 46 -30 63 -28 70 -24 9 6 l-50 24 35 0 c20
0 44 -6 55 -13 26 -17 75 -38 75 -32 0 3 -22 16 -50 30 -50 25 -120 34 -120
15z"/>
<path d="M5770 1550 c8 -5 20 -10 25 -10 6 0 3 5 -5 10 -8 5 -19 10 -25 10 -5
0 -3 -5 5 -10z"/>
<path d="M3960 1685 c36 -19 70 -34 75 -34 6 0 -19 15 -55 34 -36 19 -69 34
-75 34 -5 0 19 -15 55 -34z"/>
<path d="M4057 1639 c7 -7 15 -10 18 -7 3 3 -2 9 -12 12 -14 6 -15 5 -6 -5z"/>
<path d="M4830 1270 c19 -11 40 -19 45 -19 6 0 -6 8 -25 19 -19 11 -39 19 -45
19 -5 0 6 -8 25 -19z"/>
<path d="M4911 1236 c2 -2 15 -9 29 -15 24 -11 24 -11 6 3 -16 13 -49 24 -35
12z"/>
<path d="M5592 1325 c0 -16 2 -22 5 -12 2 9 2 23 0 30 -3 6 -5 -1 -5 -18z"/>
<path d="M5902 1320 c0 -14 2 -19 5 -12 2 6 2 18 0 25 -3 6 -5 1 -5 -13z"/>
<path d="M5894 1005 c0 -66 1 -92 3 -57 2 34 2 88 0 120 -2 31 -3 3 -3 -63z"/>
<path d="M5814 1165 c0 -71 1 -99 3 -62 2 37 2 96 0 130 -2 34 -3 4 -3 -68z"/>
<path d="M5083 980 c0 -41 2 -58 4 -37 2 20 2 54 0 75 -2 20 -4 3 -4 -38z"/>
<path d="M5113 865 c0 -44 2 -61 4 -37 2 23 2 59 0 80 -2 20 -4 1 -4 -43z"/>
<path d="M5193 885 c0 -38 2 -53 4 -32 2 20 2 52 0 70 -2 17 -4 1 -4 -38z"/>
<path d="M5213 655 c0 -33 2 -45 4 -27 2 18 2 45 0 60 -2 15 -4 0 -4 -33z"/>
<path d="M6541 1565 c-13 -14 -31 -24 -40 -23 -12 2 -16 -5 -16 -35 0 -27 -4
-36 -13 -32 -25 9 -32 -6 -16 -36 20 -40 10 -65 -31 -79 -18 -6 -35 -15 -37
-20 -2 -6 -31 -13 -66 -16 -60 -7 -63 -8 -58 -30 3 -12 1 -26 -4 -29 -18 -11
1 -26 23 -19 18 5 20 4 10 -7 -19 -19 -16 -29 7 -29 11 0 20 -4 20 -10 0 -19
23 -10 66 25 23 19 49 35 56 35 8 0 23 7 34 15 29 22 72 18 105 -10 26 -21 59
-25 59 -6 0 3 21 7 48 9 27 1 52 9 58 17 6 8 24 15 39 15 27 0 27 1 12 18 -21
23 -22 33 -1 25 10 -4 17 1 21 16 3 14 13 21 29 21 30 0 42 21 19 34 -10 6
-25 19 -34 29 -8 9 -27 17 -41 17 l-25 0 23 18 c24 19 20 32 -10 32 -10 0 -18
7 -18 15 0 18 1 18 -43 0 l-35 -14 11 29 c18 48 -1 47 -43 0 -22 -25 -39 -39
-40 -31 0 7 -6 11 -15 8 -11 -5 -14 2 -12 30 3 44 -11 50 -42 18z m28 -22 c-1
-16 2 -36 6 -46 5 -12 2 -22 -11 -32 -11 -8 -14 -14 -6 -15 20 0 14 -30 -7
-30 -10 0 -24 -7 -31 -15 -7 -9 -15 -13 -18 -10 -3 3 2 13 10 22 8 10 18 32
21 48 5 24 3 22 -13 -12 -22 -50 -32 -53 -49 -17 -10 24 -10 25 10 19 20 -7
21 -5 14 36 -6 37 -5 42 7 31 12 -9 19 -6 37 18 27 37 33 38 30 3z m107 -11
c-8 -15 -24 -36 -37 -47 -25 -22 -19 -8 19 43 30 39 37 41 18 4z m64 -16 c0
-5 -86 -56 -95 -56 -14 0 9 22 43 40 37 19 52 24 52 16z m46 -25 c-3 -4 -18
-11 -33 -14 -16 -3 -37 -9 -48 -13 -16 -5 -18 -4 -8 6 6 7 26 16 45 20 46 11
50 11 44 1z m-41 -41 c-3 -5 -13 -10 -21 -10 -8 0 -12 5 -9 10 3 6 13 10 21
10 8 0 12 -4 9 -10z m-130 -10 c-9 -14 8 -13 23 2 7 7 12 8 12 2 0 -5 -9 -15
-20 -22 -14 -9 -20 -9 -20 -1 0 8 -6 7 -17 -2 -15 -11 -14 -10 1 9 20 23 32
30 21 12z m189 -4 c-4 -10 5 -16 25 -21 38 -8 41 -28 4 -23 -22 2 -28 -1 -26
-15 1 -19 -13 -20 -62 -2 -19 6 -19 6 -2 -8 23 -19 21 -27 -7 -27 -31 0 -44
-20 -22 -32 22 -12 9 -30 -16 -22 -13 4 -24 1 -29 -7 -6 -11 -11 -11 -21 -1
-18 18 -39 15 -31 -4 5 -14 3 -15 -14 -6 -11 6 -26 19 -34 28 -13 16 -12 17 9
12 17 -5 22 -2 22 14 0 18 -5 20 -37 15 l-38 -5 32 14 c30 13 35 12 53 -6 21
-21 50 -27 50 -11 0 5 12 11 28 13 19 2 27 9 27 23 0 15 -8 21 -34 23 -39 4
-61 -12 -43 -30 7 -7 12 -16 12 -22 0 -5 -8 -2 -17 8 -10 9 -27 23 -37 30 -18
13 -16 15 30 37 44 20 90 26 104 13 2 -3 -2 -9 -10 -14 -24 -15 -4 -22 25 -8
24 11 25 13 8 19 -16 6 -15 8 7 17 35 15 50 14 44 -2z m-320 -73 c-17 -17 -18
-17 -11 0 4 10 7 24 7 30 0 8 3 8 11 0 9 -9 7 -16 -7 -30z m51 18 c-3 -6 -11
-11 -17 -11 -6 0 -6 6 2 15 14 17 26 13 15 -4z m145 -11 c12 -8 11 -10 -7 -10
-13 0 -23 5 -23 10 0 13 11 13 30 0z m-150 -20 c-19 -11 -29 -19 -21 -20 8 0
12 -3 8 -6 -3 -3 -14 -1 -24 4 -16 10 -14 12 17 26 49 21 62 19 20 -4z m-60
-21 c6 -11 10 -25 7 -32 -2 -6 -11 3 -19 21 -18 35 -6 45 12 11z m-32 -1 c7
-7 12 -21 11 -32 0 -15 -2 -17 -6 -6 -3 8 -12 23 -21 33 -17 19 -3 24 16 5z
m337 -8 c7 -12 -2 -12 -30 0 -19 8 -19 9 2 9 12 1 25 -3 28 -9z m-358 -20 c3
-11 2 -12 -4 -2 -7 9 -22 10 -63 2 -65 -12 -70 -12 -70 -1 0 6 21 12 48 14 70
6 85 4 89 -13z m-22 -10 c-3 -5 -13 -10 -21 -10 -8 0 -13 -3 -11 -7 3 -5 -12
-18 -32 -31 l-36 -23 29 26 29 26 -39 -6 c-29 -5 -35 -4 -24 4 8 6 26 11 40
11 14 0 32 5 40 10 20 13 33 13 25 0z m10 -35 c-49 -41 -74 -49 -31 -10 22 19
44 35 50 35 6 0 -2 -11 -19 -25z"/>
<path d="M3225 2423 c-40 -15 -177 -14 -220 0 -11 4 -4 0 15 -9 45 -21 191
-16 235 9 36 20 24 20 -30 0z"/>
<path d="M7733 2394 c-29 -13 -53 -26 -53 -29 0 -5 110 42 119 50 10 11 -17 2
-66 -21z"/>
<path d="M7550 2310 c-19 -11 -30 -19 -25 -19 6 0 26 8 45 19 19 11 31 19 25
19 -5 0 -26 -8 -45 -19z"/>
<path d="M7305 2188 c-44 -23 -105 -52 -135 -65 -30 -12 -48 -23 -39 -23 18 0
259 116 259 125 0 7 4 9 -85 -37z"/>
<path d="M6935 2150 c33 -16 65 -29 70 -29 13 1 -107 57 -120 57 -5 0 17 -13
50 -28z"/>
<path d="M7030 2110 c8 -5 20 -10 25 -10 6 0 3 5 -5 10 -8 5 -19 10 -25 10 -5
0 -3 -5 5 -10z"/>
<path d="M7002 2550 c-53 -11 -124 -50 -129 -70 -2 -10 -1 -10 3 -2 10 21 76
50 142 62 95 17 204 -3 256 -48 20 -16 20 -16 6 2 -37 47 -182 76 -278 56z"/>
<path d="M2681 2511 c-12 -8 -12 -12 -2 -25 14 -16 102 -23 135 -10 20 8 21
30 2 37 -10 4 -13 1 -10 -7 6 -17 -44 -28 -87 -19 -20 4 -28 10 -25 19 6 16 6
17 -13 5z"/>
<path d="M5470 2400 c8 -5 20 -10 25 -10 6 0 3 5 -5 10 -8 5 -19 10 -25 10 -5
0 -3 -5 5 -10z"/>
<path d="M7422 2278 c3 -7 13 -15 22 -16 12 -3 17 1 14 10 -3 7 -13 15 -22 16
-12 3 -17 -1 -14 -10z"/>
<path d="M2607 2139 c7 -7 15 -10 18 -7 3 3 -2 9 -12 12 -14 6 -15 5 -6 -5z"/>
<path d="M2850 2128 c-28 -11 -155 -14 -191 -4 -22 6 -22 6 -5 -5 28 -17 164
-15 206 4 39 17 30 22 -10 5z"/>
<path d="M3323 2309 c-42 -12 -48 -24 -21 -43 26 -19 148 -22 179 -6 68 37
-61 77 -158 49z m132 -10 c34 -10 37 -13 20 -20 -28 -11 -147 -11 -165 1 -13
8 -13 10 0 14 52 17 95 19 145 5z"/>
<path d="M6291 2119 c-13 -5 -21 -12 -18 -15 3 -3 18 1 34 10 31 17 21 20 -16
5z"/>
<path d="M3021 2121 c-13 -3 -29 -14 -35 -24 -22 -36 38 -56 144 -48 37 2 80
25 80 42 0 29 -123 49 -189 30z m161 -19 c21 -21 -9 -32 -82 -32 -104 0 -140
17 -82 39 35 14 148 9 164 -7z"/>
<path d="M7113 1895 c0 -33 2 -45 4 -27 2 18 2 45 0 60 -2 15 -4 0 -4 -33z"/>
<path d="M6440 1975 c-14 -8 -20 -14 -15 -14 6 0 21 6 35 14 14 8 21 14 15 14
-5 0 -21 -6 -35 -14z"/>
<path d="M3255 1873 c-16 -10 -55 -23 -85 -30 l-55 -13 48 5 c42 4 127 38 127
50 0 7 -1 6 -35 -12z"/>
<path d="M2936 1860 c17 -11 53 -22 80 -25 l49 -4 -42 9 c-23 5 -55 16 -72 24
-42 22 -52 20 -15 -4z"/>
<path d="M3078 1823 c6 -2 18 -2 25 0 6 3 1 5 -13 5 -14 0 -19 -2 -12 -5z"/>
<path d="M6500 1895 c-14 -8 -20 -14 -15 -14 6 0 21 6 35 14 14 8 21 14 15 14
-5 0 -21 -6 -35 -14z"/>
<path d="M7113 1730 c0 -36 2 -50 4 -32 2 17 2 47 0 65 -2 17 -4 3 -4 -33z"/>
<path d="M7110 1572 c0 -33 4 -63 9 -66 8 -6 3 113 -5 123 -2 2 -4 -23 -4 -57z"/>
</g>
</svg>
