<?xml version="1.0" standalone="no"?>
<!DOCTYPE svg PUBLIC "-//W3C//DTD SVG 20010904//EN"
 "http://www.w3.org/TR/2001/REC-SVG-20010904/DTD/svg10.dtd">
<svg version="1.0" xmlns="http://www.w3.org/2000/svg"
 width="1024.000000pt" height="559.000000pt" viewBox="0 0 1024.000000 559.000000"
 preserveAspectRatio="xMidYMid meet">
<metadata>
Created by potrace 1.16, written by Peter Selinger 2001-2019
</metadata>
<g transform="translate(0.000000,559.000000) scale(0.100000,-0.100000)"
fill="#000000" stroke="none">
<path d="M5095 5259 c-11 -4 -216 -69 -455 -144 -239 -75 -509 -160 -600 -190
-91 -30 -309 -99 -485 -155 -176 -56 -376 -120 -445 -142 -69 -22 -271 -86
-450 -143 -179 -57 -337 -108 -352 -114 l-28 -11 0 -1307 0 -1308 1416 -705
c779 -388 1426 -706 1438 -707 11 -1 653 314 1426 700 l1405 702 3 1311 2
1311 -37 16 c-33 14 -235 79 -503 162 -41 13 -102 32 -135 43 -33 11 -127 41
-210 67 -82 25 -161 50 -175 55 -23 9 -468 149 -655 207 -44 14 -111 35 -150
48 -38 13 -266 85 -505 160 -239 75 -446 140 -460 144 -14 4 -34 5 -45 0z m15
-744 l0 -715 -54 -24 c-30 -13 -63 -27 -75 -31 l-21 -6 0 640 c0 508 -3 640
-12 636 -7 -2 -71 -22 -143 -45 -198 -63 -687 -221 -1005 -326 -157 -51 -377
-123 -490 -160 -113 -37 -344 -112 -515 -168 l-310 -102 -5 -728 -5 -728 -82
-33 c-45 -18 -84 -30 -87 -27 -3 3 -6 373 -6 823 l0 818 23 6 c12 4 96 31 187
60 91 29 226 72 300 95 74 23 153 48 175 55 22 8 135 44 250 80 246 78 484
154 755 241 107 34 276 88 375 119 303 95 525 166 630 201 55 18 103 33 108
33 4 1 7 -321 7 -714z m165 670 c66 -20 152 -48 190 -61 39 -13 135 -43 215
-68 80 -24 204 -63 275 -86 72 -23 337 -107 590 -187 253 -80 523 -165 600
-190 77 -24 174 -55 215 -68 41 -13 134 -42 205 -65 72 -23 166 -53 210 -67
44 -14 98 -31 120 -38 l40 -12 3 -837 c1 -460 0 -836 -4 -836 -3 0 -27 10 -55
21 l-49 21 -2 727 -3 726 -110 37 c-60 20 -513 172 -1005 338 -492 166 -1015
341 -1161 391 -146 49 -271 89 -277 89 -9 0 -12 -161 -12 -635 0 -349 -1 -635
-3 -635 -1 0 -30 10 -62 23 l-60 23 -3 718 c-2 586 0 717 11 713 7 -3 67 -22
132 -42z m870 -470 c402 -135 942 -317 1200 -404 l470 -158 3 -718 c2 -652 1
-717 -14 -711 -8 3 -19 6 -22 6 -4 0 -7 312 -7 692 l0 693 -35 12 c-19 6 -195
66 -390 133 -562 192 -966 329 -1090 370 -63 21 -301 102 -529 179 -228 78
-416 141 -418 141 -2 0 -3 -155 -3 -343 0 -527 -10 -857 -27 -857 -11 0 -13
110 -13 629 l0 629 73 -23 c39 -13 401 -134 802 -270z m-1195 -354 l0 -628
-47 -18 c-27 -10 -160 -62 -298 -117 -184 -73 -257 -98 -278 -94 -31 6 -81
-15 -95 -40 -8 -14 -241 -114 -264 -114 -5 0 -8 45 -8 100 l0 99 -31 16 c-24
13 -37 14 -64 5 -28 -9 -34 -17 -37 -43 -4 -40 -3 -40 -338 -170 -255 -100
-266 -103 -296 -89 -26 12 -35 12 -67 -1 l-36 -16 -3 -127 -3 -126 -290 -114
c-159 -63 -293 -114 -297 -114 -5 0 -8 321 -8 714 l0 713 123 40 c275 90 1039
340 1292 423 825 271 1031 337 1038 333 4 -2 7 -287 7 -632z m941 379 c688
-233 759 -257 1224 -415 204 -70 432 -147 508 -172 l137 -47 0 -537 0 -537
-30 11 c-23 9 -38 8 -62 -1 -28 -10 -43 -7 -172 44 -491 192 -476 185 -476
208 -1 60 -82 84 -132 39 -15 -13 -18 -33 -18 -103 l0 -87 -122 48 c-68 27
-220 86 -338 132 l-215 84 -3 195 -2 196 -31 13 c-24 10 -38 10 -64 0 -31 -11
-51 -4 -336 107 -290 112 -304 119 -307 145 -4 36 -51 61 -98 52 l-34 -6 0
411 c0 225 2 410 3 410 2 0 258 -86 568 -190z m-491 -661 c0 -5 -11 -9 -25 -9
-26 0 -34 15 -12 23 16 5 37 -3 37 -14z m6 -62 c-12 -10 -16 -38 -19 -137 l-3
-125 -2 147 c-2 131 0 148 16 157 13 8 18 6 20 -10 2 -12 -3 -26 -12 -32z
m-38 -110 c2 -142 2 -147 -18 -147 -19 0 -20 6 -20 151 0 138 1 150 18 147 15
-3 17 -20 20 -151z m230 44 c300 -114 447 -172 456 -182 18 -17 -8 -9 -124 37
-63 25 -203 79 -310 120 -107 41 -196 77 -199 79 -14 14 37 -1 177 -54z m-105
9 c94 -38 483 -189 524 -202 l31 -11 4 -111 c2 -61 2 -114 1 -118 -3 -5 -78
18 -92 29 -3 2 1 9 7 15 40 40 -20 90 -203 167 -212 90 -260 97 -325 51 -15
-11 -31 -20 -34 -20 -3 0 -6 52 -6 115 0 75 4 115 11 115 6 0 43 -13 82 -30z
m87 -189 c79 -22 263 -99 325 -135 52 -31 56 -52 18 -88 -32 -29 -104 -68
-128 -68 -40 0 -425 171 -425 188 0 13 83 88 115 105 17 9 30 16 30 17 0 0 29
-8 65 -19z m570 9 c0 -5 -11 -10 -24 -10 -14 0 -28 5 -31 10 -4 6 7 10 24 10
17 0 31 -4 31 -10z m-1040 -33 l0 -34 -361 -142 c-198 -79 -362 -142 -363
-140 -2 2 -6 16 -9 30 -7 26 -4 28 141 85 81 32 246 97 367 146 121 48 221 88
223 88 1 0 2 -15 2 -33z m85 9 l59 -24 -33 -16 c-21 -11 -43 -15 -62 -11 -25
6 -29 11 -29 41 0 19 1 34 3 34 2 0 30 -11 62 -24z m964 -522 c-6 -8 -15 -14
-20 -14 -5 0 -9 119 -9 265 0 241 2 265 18 274 16 9 17 -6 20 -251 2 -184 -1
-265 -9 -274z m-54 518 c13 -9 17 -412 4 -412 -5 0 -9 24 -9 53 0 28 -7 65
-15 81 -11 21 -15 62 -15 157 0 129 4 144 35 121z m-725 -31 c-5 -11 -15 -23
-20 -26 -6 -3 -10 -15 -10 -25 0 -27 53 -58 207 -124 70 -31 123 -56 118 -56
-18 0 -178 66 -295 124 -63 31 -123 56 -132 56 -9 0 -19 4 -22 9 -8 12 102 61
137 61 24 0 26 -2 17 -19z m-295 -48 c-16 -8 -52 -30 -80 -48 -27 -18 -88 -47
-135 -64 -47 -18 -114 -45 -150 -61 -231 -102 -284 -121 -309 -110 -13 6 -20
15 -15 19 5 4 137 58 294 120 157 61 310 122 340 135 62 27 101 33 55 9z m167
-27 c35 -13 110 -46 168 -74 58 -27 174 -75 258 -107 166 -63 212 -96 212
-155 0 -47 -10 -60 -71 -91 l-59 -29 0 45 c0 89 -45 131 -191 180 -41 14 -136
55 -212 92 -77 36 -176 79 -220 93 l-82 28 45 21 c58 26 76 26 152 -3z m-90
-72 c40 -15 120 -50 179 -79 58 -29 150 -70 205 -90 174 -65 209 -97 202 -180
-3 -44 8 -36 -293 -181 -99 -47 -219 -106 -267 -130 -47 -24 -89 -44 -92 -44
-3 0 -6 65 -6 145 l0 145 -35 17 c-33 16 -37 16 -70 0 -19 -9 -35 -21 -35 -26
0 -11 -32 2 -200 81 -63 30 -149 70 -190 88 -41 19 -78 36 -83 40 -8 6 199 96
368 159 55 21 118 47 140 59 53 28 89 27 177 -4z m-1237 -33 c7 -12 -28 -23
-49 -15 -9 3 -13 10 -10 15 7 12 51 12 59 0z m2138 -73 c11 -13 17 -37 17 -72
l0 -52 -81 -37 c-45 -20 -84 -37 -88 -37 -3 0 -6 18 -6 39 -1 62 -21 88 -99
127 -59 30 -65 34 -34 29 43 -8 92 6 138 40 l32 24 52 -20 c28 -11 59 -29 69
-41z m-2185 40 c15 -15 17 -298 2 -298 -6 0 -10 50 -10 130 0 80 -4 130 -10
130 -5 0 -10 11 -10 25 0 27 9 32 28 13z m62 -143 c0 -148 -1 -155 -20 -155
-19 0 -20 7 -20 149 0 146 2 157 33 160 4 1 7 -69 7 -154z m1780 115 c8 -5 11
-10 5 -10 -5 0 -17 5 -25 10 -8 5 -10 10 -5 10 6 0 17 -5 25 -10z m-1396 -6
c22 -9 10 -24 -20 -24 -25 0 -33 15 -11 23 6 3 13 6 14 6 1 1 8 -2 17 -5z
m-484 -13 c0 -5 -100 -48 -222 -96 -123 -49 -259 -103 -303 -121 -72 -29 -100
-35 -82 -18 4 4 562 228 605 243 1 1 2 -3 2 -8z m458 -224 c-1 -134 -3 -171
-8 -122 l-6 70 -2 -68 c-1 -43 -6 -66 -12 -62 -6 4 -10 82 -10 201 0 192 0
195 20 184 19 -10 20 -20 18 -203z m52 190 c0 -12 -9 -28 -20 -35 -18 -11 -20
-10 -20 17 0 20 6 31 18 34 9 3 18 5 20 6 1 0 2 -9 2 -22z m-490 -102 l0 -116
-37 26 c-49 33 -75 32 -198 -9 -112 -38 -205 -81 -274 -129 -41 -28 -43 -31
-37 -67 5 -35 4 -39 -22 -48 -15 -5 -35 -13 -44 -17 -17 -7 -18 2 -18 112 l0
118 203 80 c111 44 247 99 302 121 55 23 106 42 113 43 9 1 12 -28 12 -114z
m370 73 c0 -33 -1 -33 -123 -80 -68 -27 -129 -48 -135 -48 -7 0 -12 13 -12 28
0 27 6 31 128 80 70 28 130 51 135 51 4 1 7 -14 7 -31z m557 -209 c90 -40 163
-78 163 -82 0 -5 -3 -7 -7 -4 -5 2 -140 64 -300 138 -161 74 -293 137 -293
141 0 6 105 -40 437 -193z m1626 117 c117 -45 267 -104 335 -130 100 -39 122
-51 122 -68 0 -15 -4 -18 -17 -13 -10 4 -74 29 -143 55 -184 70 -476 187 -500
200 -18 9 -29 40 -14 40 3 0 100 -38 217 -84z m-1806 -65 c368 -169 343 -154
343 -200 l0 -39 -187 87 c-104 49 -242 112 -308 142 -120 55 -120 55 -123 92
-2 20 1 37 6 37 4 0 126 -54 269 -119z m-380 -138 c-2 -2 -24 6 -48 17 -24 11
-54 20 -67 20 -12 0 -52 13 -88 30 -55 25 -65 33 -62 52 2 18 25 31 133 74
l130 51 3 -120 c1 -66 1 -121 -1 -124z m1873 222 c0 -3 -91 -50 -202 -104
-112 -54 -320 -156 -463 -226 -143 -69 -276 -134 -295 -142 -19 -9 -38 -18
-42 -20 -5 -2 -8 -1 -8 2 0 5 398 203 600 298 30 14 134 64 230 111 189 93
180 88 180 81z m177 -20 c32 -13 168 -67 303 -120 135 -52 255 -100 268 -105
17 -7 22 -18 22 -44 l0 -35 -37 17 c-21 10 -54 28 -73 40 -19 12 -132 63 -250
114 -171 73 -225 92 -265 92 -49 1 -50 2 -53 34 -4 40 6 41 85 7z m690 13 c-2
-7 -17 -12 -33 -11 -26 2 -27 1 -11 -11 15 -12 17 -32 17 -160 0 -80 -2 -146
-4 -146 -2 0 -11 -3 -20 -6 -14 -5 -16 12 -16 158 0 114 4 168 12 176 16 16
61 16 55 0z m-851 -41 c-3 -12 -5 -25 -5 -29 -1 -5 -5 -8 -10 -8 -5 0 -232
-110 -506 -245 -273 -135 -499 -245 -501 -245 -2 0 -4 14 -4 31 0 29 5 32 193
123 372 181 792 386 807 395 21 12 30 4 26 -22z m874 -1 c0 -17 7 -27 23 -32
17 -5 385 -147 590 -228 15 -6 27 -16 27 -22 0 -7 -53 10 -127 41 -71 29 -211
85 -313 125 -102 40 -191 77 -198 83 -7 5 -14 8 -17 6 -2 -3 -5 -56 -6 -120
-4 -176 -18 -174 -18 3 -1 154 1 164 32 167 4 1 7 -10 7 -23z m-2648 -76 c-3
-39 -8 -60 -18 -64 -11 -4 -14 9 -14 69 0 69 1 74 18 64 14 -9 16 -22 14 -69z
m-1151 40 c17 -10 19 -23 19 -149 0 -105 -4 -148 -16 -177 -11 -25 -14 -53
-10 -81 3 -23 1 -45 -4 -48 -6 -4 -10 71 -10 206 0 190 2 213 18 226 15 12 14
13 -10 7 -33 -7 -57 4 -37 17 18 11 26 11 50 -1z m1474 -128 c154 -71 281
-135 282 -143 1 -8 -14 -24 -34 -37 l-37 -24 -180 82 c-100 46 -196 89 -213
97 -18 9 -33 19 -33 24 0 5 -7 6 -15 3 -8 -4 -15 -1 -15 6 0 6 -4 9 -8 6 -5
-3 -18 2 -30 10 -18 12 -22 25 -22 66 0 36 3 49 13 45 6 -3 138 -64 292 -135z
m-869 112 c34 -16 114 -98 114 -116 0 -13 -231 -123 -330 -156 -81 -27 -87
-28 -128 -14 -47 15 -122 80 -122 104 0 29 133 103 280 156 74 27 97 33 143
41 5 0 24 -6 43 -15z m2724 -86 l210 -92 -37 -11 c-56 -17 -119 -52 -145 -80
l-24 -25 -224 101 c-124 55 -229 104 -233 108 -8 8 117 75 173 92 37 11 52 7
280 -93z m1023 -135 l87 -36 0 -123 c0 -68 -3 -124 -7 -124 -22 2 -95 48 -85
54 23 14 13 54 -20 82 -68 57 -353 174 -425 174 -19 0 -47 -8 -61 -18 -54 -38
-52 -42 -52 91 l0 124 238 -94 c130 -52 276 -110 325 -130z m-4407 209 c8 -5
13 -138 16 -439 5 -427 5 -432 -14 -422 -17 9 -19 18 -14 62 2 29 8 69 12 90
4 26 2 44 -10 62 -14 21 -16 67 -16 340 0 173 3 315 8 315 4 0 12 -4 18 -8z
m2964 -7 c-7 -9 -15 -13 -19 -10 -3 3 1 10 9 15 21 14 24 12 10 -5z m-2122
-42 c34 -15 62 -30 62 -33 -1 -11 -340 -172 -425 -201 -177 -61 -215 -93 -215
-179 0 -22 -4 -40 -9 -40 -22 0 -179 81 -185 95 -9 26 -7 84 4 106 10 18 98
69 119 69 6 0 30 -14 55 -31 65 -46 112 -48 221 -9 173 60 325 142 325 173 0
6 -11 25 -26 44 -22 29 -23 33 -7 33 10 0 46 -12 81 -27z m2058 -5 c-13 -8
-16 -29 -16 -133 0 -69 -3 -125 -7 -125 -5 0 -72 28 -151 62 l-143 62 163 82
c90 45 165 77 167 72 2 -6 -4 -15 -13 -20z m-996 2 c13 -9 13 -11 0 -20 -8 -5
-17 -10 -20 -10 -3 0 -12 5 -20 10 -13 9 -13 11 0 20 8 5 17 10 20 10 3 0 12
-5 20 -10z m-30 -135 c0 -52 -4 -95 -8 -95 -24 0 -32 30 -32 117 0 91 1 93 20
83 18 -10 20 -21 20 -105z m60 -243 c0 -336 -1 -348 -20 -360 -20 -12 -20 -10
-20 342 0 355 1 362 33 365 4 1 7 -155 7 -347z m-639 304 c41 -18 99 -45 129
-58 317 -142 350 -158 324 -158 -10 0 -535 238 -543 246 -13 13 25 0 90 -30z
m1824 -52 c105 -47 207 -92 228 -101 38 -16 45 -27 26 -39 -17 -10 -180 66
-211 98 -26 28 -58 38 -58 18 0 -5 -43 11 -95 37 -52 26 -95 53 -95 60 0 7 4
13 8 13 4 0 93 -39 197 -86z m-2078 54 l48 -21 -49 -9 c-52 -9 -149 -53 -251
-112 -33 -20 -105 -52 -160 -71 -173 -62 -225 -107 -225 -194 0 -22 -2 -41 -5
-41 -2 0 -29 12 -59 27 -58 28 -73 56 -60 111 14 56 41 74 216 138 65 24 177
73 249 110 186 94 212 100 296 62z m436 -115 c139 -63 256 -118 260 -123 4 -4
-6 -13 -23 -20 -28 -12 -40 -9 -158 40 -70 29 -182 78 -249 109 -120 55 -122
57 -123 89 0 42 -21 49 293 -95z m1447 -50 c0 -80 -2 -144 -6 -141 -8 9 -10
288 -1 288 4 0 7 -66 7 -147z m127 86 c51 -23 53 -25 53 -64 0 -44 14 -65 42
-65 14 0 18 8 18 35 0 19 3 35 8 35 4 0 44 -16 90 -37 l82 -36 0 -50 c0 -49 0
-49 -27 -43 -18 4 -23 3 -15 -2 9 -6 1 -13 -30 -25 -118 -43 -102 -44 -223 12
l-110 50 -3 121 -3 121 33 -15 c18 -8 57 -25 85 -37z m-1858 -13 c104 -53 160
-77 354 -152 53 -20 97 -40 97 -44 0 -4 -28 -19 -62 -35 -35 -16 -132 -62
-215 -102 -84 -39 -153 -68 -153 -62 0 5 -14 16 -32 23 -27 12 -37 12 -65 -2
l-33 -16 0 -138 c0 -76 -4 -138 -9 -138 -5 0 -120 52 -257 116 -137 63 -284
131 -326 151 l-78 36 0 43 c0 34 7 51 32 79 37 43 73 62 193 104 49 18 141 61
205 96 109 60 154 79 210 88 14 2 27 5 29 6 2 0 52 -23 110 -53z m2428 17 c3
-7 -41 -35 -106 -68 -61 -30 -113 -55 -116 -55 -12 0 -4 31 10 36 8 4 13 10
10 14 -3 5 15 21 41 36 85 50 152 65 161 37z m113 -33 c0 -8 -70 -44 -75 -38
-3 3 -8 58 -6 70 1 9 81 -23 81 -32z m860 31 c0 -13 -27 -21 -45 -15 -25 10
-17 24 15 24 17 0 30 -4 30 -9z m-1866 -67 l156 -66 0 -49 c0 -40 4 -51 24
-64 20 -13 28 -14 44 -4 17 11 32 8 99 -20 43 -18 80 -35 82 -37 4 -3 -51 -29
-202 -95 -75 -32 -92 -36 -113 -27 -18 9 -24 19 -24 44 0 55 -55 81 -118 55
l-32 -13 0 -324 c0 -178 -3 -324 -6 -324 -3 0 -62 28 -130 62 l-124 63 0 82
c0 82 0 83 -31 99 -52 27 -109 3 -109 -46 0 -25 -8 -31 -86 -66 -48 -22 -173
-78 -278 -125 l-191 -86 -33 18 c-36 18 -79 12 -102 -15 -7 -9 -9 -124 -8
-357 l3 -344 38 -18 c36 -18 38 -18 70 0 l32 19 3 111 3 110 362 -167 c199
-92 410 -190 469 -218 l107 -51 3 -158 3 -158 36 -19 c36 -19 36 -19 70 0 l34
20 5 153 5 152 283 143 282 143 0 -118 0 -119 36 -17 c34 -17 37 -17 72 2 l37
20 5 375 5 375 55 28 c539 276 535 274 558 264 12 -6 22 -13 22 -16 0 -3 -48
-31 -108 -61 -93 -48 -108 -59 -112 -84 -3 -16 -4 -102 -2 -192 3 -149 5 -165
22 -174 13 -7 26 -7 43 1 21 9 37 5 106 -27 68 -31 81 -41 81 -61 0 -33 45
-50 71 -27 11 10 19 24 19 33 0 11 60 47 174 106 151 77 176 87 190 76 21 -17
66 0 66 24 0 12 6 15 23 9 47 -15 67 -24 67 -31 0 -6 -2737 -1376 -2780 -1391
-12 -4 -1096 538 -1091 546 3 4 24 19 48 34 l43 28 0 510 c0 333 3 510 10 510
6 0 10 42 10 105 0 58 4 105 8 105 5 0 16 -6 25 -12 14 -11 17 -36 19 -152 l3
-140 33 -19 c32 -19 36 -19 67 -4 l33 16 7 105 c4 58 5 122 3 142 l-4 37 264
128 c145 71 266 129 268 129 2 0 4 -47 4 -104 l0 -104 34 -12 c28 -9 40 -8 64
4 37 19 42 32 42 111 0 60 1 63 30 75 l30 12 0 152 0 152 298 147 c163 80 302
146 308 147 7 0 82 -30 168 -66z m410 60 c12 -4 16 -20 16 -53 0 -53 -7 -66
-27 -50 -12 10 -20 109 -9 109 2 0 11 -3 20 -6z m907 -18 c161 -53 333 -139
346 -173 9 -23 -72 -95 -125 -112 -40 -13 -45 -12 -174 39 -150 59 -231 98
-268 128 l-25 21 44 45 c42 43 92 75 117 76 6 0 45 -11 85 -24z m507 -225 c1
-124 -1 -221 -5 -218 -4 4 -6 27 -4 51 1 24 -5 60 -13 81 -12 28 -16 73 -16
177 0 127 2 139 18 136 15 -3 17 -23 20 -227z m62 -161 c0 -388 0 -391 -20
-380 -19 10 -20 21 -20 384 0 205 3 376 7 379 3 4 12 7 20 7 11 0 13 -72 13
-390z m-4662 348 l-3 -33 -265 -106 c-421 -168 -501 -199 -512 -199 -5 0 -8
15 -6 32 l3 33 240 93 c132 52 305 120 385 152 80 32 149 59 153 59 5 1 7 -14
5 -31z m3669 -15 c-3 -10 -5 -2 -5 17 0 19 2 27 5 18 2 -10 2 -26 0 -35z m-17
14 c0 -19 -13 -29 -75 -56 -41 -18 -79 -39 -86 -47 -17 -21 -29 -17 -29 9 0
18 17 31 93 69 50 26 93 47 95 47 1 1 2 -9 2 -22z m220 6 c0 -4 -10 -17 -21
-29 -41 -43 -22 -67 104 -128 132 -65 292 -126 327 -126 31 0 101 31 119 53
18 22 30 21 96 -7 61 -28 75 -49 75 -121 l0 -44 -89 -44 -88 -45 -6 55 c-3 30
-12 61 -19 70 -25 30 -84 60 -218 111 -74 27 -200 82 -280 121 -80 39 -150 71
-157 71 -27 0 -10 16 45 42 54 25 112 36 112 21z m-1980 -42 c0 -13 -27 -21
-45 -15 -8 4 -12 10 -9 15 7 12 54 12 54 0z m-1890 -170 l0 -148 -30 -7 c-20
-3 -37 -16 -48 -36 -16 -28 -20 -30 -84 -30 -49 0 -79 -6 -120 -25 -29 -14
-61 -25 -70 -25 -15 0 -16 4 -6 25 9 19 7 34 -6 70 -10 25 -21 43 -25 40 -5
-2 -14 -25 -21 -51 -10 -35 -10 -51 -2 -64 9 -15 7 -21 -11 -33 -29 -20 -15
-44 41 -73 l42 -22 -63 -22 c-93 -34 -107 -45 -107 -85 0 -32 16 -59 41 -67
11 -4 -37 -283 -51 -301 -7 -8 -248 -107 -262 -107 -4 0 -8 182 -8 403 l0 404
73 28 c159 61 556 218 622 245 39 16 76 29 83 30 9 0 12 -36 12 -149z m1860
104 c0 -23 -2 -24 -20 -13 -11 7 -20 23 -20 36 0 20 3 21 20 12 12 -6 20 -21
20 -35z m50 -273 c0 -313 -3 -342 -32 -342 -4 0 -8 146 -8 324 0 324 1 332 33
335 4 1 7 -142 7 -317z m1975 218 c66 -32 179 -81 251 -109 217 -81 234 -95
234 -178 l0 -53 -60 -30 c-33 -16 -61 -30 -63 -30 -2 0 -3 22 -3 49 0 86 -33
115 -194 178 -52 20 -160 69 -240 108 -80 39 -176 80 -213 90 -37 10 -64 22
-59 27 4 4 32 17 62 27 52 18 54 18 109 0 31 -11 110 -46 176 -79z m-466 43
c0 -31 -2 -34 -9 -18 -12 28 -12 55 0 55 6 0 10 -17 9 -37z m31 7 c0 -16 -4
-30 -10 -30 -5 0 -10 14 -10 30 0 17 5 30 10 30 6 0 10 -13 10 -30z m-1630
-17 c-1 -5 -67 -39 -148 -77 -81 -38 -207 -98 -279 -132 -73 -35 -133 -59
-133 -54 0 6 42 29 93 53 175 82 322 152 387 184 70 34 80 37 80 26z m20 -52
c0 -34 -4 -41 -32 -54 -113 -53 -301 -143 -410 -196 -70 -33 -130 -61 -133
-61 -3 0 -5 17 -5 38 0 32 4 39 33 51 29 14 195 92 442 211 55 27 101 49 103
49 1 1 2 -16 2 -38z m1782 18 c35 -12 124 -52 198 -89 74 -38 167 -80 207 -94
99 -35 169 -71 187 -98 10 -14 16 -43 16 -75 l0 -53 -247 -123 c-137 -67 -250
-124 -253 -127 -7 -8 -166 -90 -174 -90 -3 0 -6 70 -6 155 l0 154 -31 17 c-36
18 -70 13 -99 -16 -20 -20 -21 -20 -173 51 -83 40 -190 89 -236 111 -46 21
-81 41 -79 44 10 10 297 137 383 170 49 18 110 45 135 58 57 31 94 32 172 5z
m-2982 -261 c107 -50 258 -119 335 -155 143 -65 164 -78 152 -89 -6 -6 -256
108 -782 356 -44 21 -120 56 -168 79 -48 23 -86 45 -82 50 3 5 83 -27 178 -71
94 -44 260 -121 367 -170z m-190 49 c706 -329 675 -313 678 -347 l3 -30 -220
110 c-121 61 -223 110 -225 110 -6 0 -282 138 -346 172 -25 14 -52 25 -60 26
-46 3 -81 14 -137 42 -57 27 -63 34 -63 61 0 17 3 28 8 26 4 -3 167 -79 362
-170z m1406 16 c-12 -30 -26 1 -26 57 0 38 4 60 13 63 13 4 23 -92 13 -120z
m2919 88 c67 -27 70 -30 73 -65 2 -20 0 -36 -5 -35 -4 0 -42 15 -83 32 -69 30
-75 35 -78 65 -4 39 2 40 93 3z m-2965 -41 c0 -38 -4 -52 -19 -60 -27 -14 -31
-13 -25 8 2 9 -1 6 -8 -6 -8 -16 -51 -43 -127 -79 -293 -139 -260 -127 -284
-107 -22 18 -22 18 -5 -1 17 -18 16 -20 -28 -42 -25 -13 -47 -23 -50 -23 -2 0
-4 25 -4 55 0 30 4 55 9 55 8 0 213 96 451 212 41 20 78 37 83 37 4 1 7 -21 7
-49z m-1709 20 c27 -15 27 -86 0 -93 -17 -4 -20 2 -23 49 -1 30 -2 54 0 54 2
0 12 -5 23 -10z m2688 1 c11 -7 10 -10 -6 -15 -27 -9 -60 3 -41 15 17 11 29
11 47 0z m-49 -31 c13 -8 16 -58 18 -325 2 -173 0 -315 -5 -315 -28 1 -31 24
-38 333 -4 181 -4 317 1 317 5 0 16 -5 24 -10z m53 -47 c-16 -13 -18 -12 -21
8 -3 14 4 28 15 36 16 13 18 12 21 -8 3 -14 -4 -28 -15 -36z m-2603 30 c6 -6
-22 -23 -37 -23 -7 0 -13 9 -13 21 0 16 4 19 23 13 12 -3 24 -8 27 -11z m4658
-441 c1 -216 -1 -392 -4 -392 -3 0 -28 8 -55 17 l-49 18 0 153 c0 158 -9 202
-45 215 -13 6 -15 38 -15 226 l0 219 83 -32 82 -32 3 -392z m-3623 429 c7 -12
-28 -23 -49 -15 -9 3 -13 10 -10 15 7 12 51 12 59 0z m-585 -198 c214 -103
390 -190 390 -193 0 -3 -25 -18 -55 -33 l-54 -26 -173 83 c-95 45 -275 131
-400 191 -126 59 -228 111 -228 115 0 10 83 49 107 49 12 1 198 -83 413 -186z
m538 165 c14 -14 18 -678 4 -678 -29 0 -32 29 -32 357 0 183 4 333 8 333 4 0
13 -5 20 -12z m45 -666 c-17 -12 -18 4 -21 320 -2 308 -1 334 15 346 17 12 18
-4 21 -320 2 -308 1 -334 -15 -346z m-1593 616 c0 -34 -16 -44 -29 -19 -14 26
5 84 19 61 6 -8 10 -27 10 -42z m384 36 c24 -24 20 -71 -10 -101 -14 -14 -27
-23 -30 -20 -3 3 6 16 20 30 38 38 33 87 -10 87 -32 0 -47 -31 -39 -84 9 -55
-10 -86 -65 -111 -48 -22 -104 -17 -175 14 -27 13 -65 29 -82 37 -18 7 -33 18
-33 24 0 7 6 7 18 1 9 -5 61 -15 114 -21 99 -13 189 -3 205 23 4 7 0 8 -13 2
-52 -22 -112 -26 -193 -13 l-84 13 72 32 c39 17 69 27 66 22 -4 -5 16 -9 44
-9 27 0 53 -4 56 -10 4 -6 -15 -10 -49 -10 -34 0 -56 5 -59 13 -2 6 -8 9 -12
5 -4 -4 -2 -14 5 -23 13 -15 83 -21 114 -9 23 9 20 31 -5 39 -33 11 -16 16 19
6 29 -9 31 -7 37 20 6 29 38 59 62 59 6 0 19 -7 27 -16z m1811 7 c-10 -8 -466
-229 -532 -257 -18 -8 -33 -10 -33 -5 0 5 10 13 21 16 20 7 123 55 424 200
108 52 139 64 120 46z m1101 -35 c319 -142 549 -256 467 -232 -24 8 -574 264
-582 271 -13 14 27 0 115 -39z m-1066 -6 c0 -27 -6 -33 -52 -54 -52 -23 -526
-254 -540 -263 -5 -2 -8 12 -8 32 l0 36 153 73 c83 41 213 103 287 139 74 36
141 66 148 66 7 1 12 -11 12 -29z m1142 -63 c111 -52 249 -116 306 -142 l102
-48 0 -44 0 -43 -37 19 c-21 10 -112 53 -203 96 -91 42 -213 100 -272 127
l-108 51 0 39 c0 21 2 38 4 38 2 0 96 -42 208 -93z m-3002 62 c0 -17 -20 -49
-30 -49 -11 0 -14 43 -3 53 10 11 33 8 33 -4z m4575 2 c-8 -7 -357 -185 -835
-427 -176 -88 -192 -96 -185 -85 3 6 205 111 448 233 243 122 471 236 507 254
70 35 79 39 65 25z m-4263 -100 c226 -109 441 -212 531 -253 l67 -32 0 -88 c0
-48 -2 -88 -5 -88 -6 0 -531 255 -700 340 l-110 55 -3 83 c-4 81 -3 84 17 77
11 -3 103 -46 203 -94z m4286 58 c-3 -33 56 0 -613 -343 -137 -71 -292 -151
-343 -178 l-93 -50 3 37 3 37 450 229 c248 126 479 245 515 264 36 19 69 34
73 35 5 0 7 -14 5 -31z m-2738 -134 c0 -63 -2 -115 -4 -115 -31 0 -36 15 -36
115 0 100 3 111 33 114 4 1 7 -51 7 -114z m938 37 c-2 -41 -8 -67 -15 -70 -10
-3 -13 16 -13 72 0 64 2 74 15 69 13 -4 15 -19 13 -71z m94 19 c35 -16 164
-77 288 -134 l225 -104 3 -57 c2 -31 1 -56 -2 -56 -3 0 -83 36 -178 81 -95 45
-206 96 -245 115 -40 18 -73 37 -73 41 0 4 -12 9 -26 9 -43 3 -64 31 -64 86 0
26 2 48 4 48 3 0 33 -13 68 -29z m1705 -118 c-2 -27 -3 -5 -3 47 0 52 1 74 3
48 2 -27 2 -69 0 -95z m-4597 102 c0 -23 -2 -24 -20 -15 -23 12 -26 26 -7 33
23 10 27 7 27 -18z m4577 -97 c-2 -24 -4 -5 -4 42 0 47 2 66 4 43 2 -24 2 -62
0 -85z m-37 38 l0 -64 -34 10 c-31 10 -45 6 -159 -46 -118 -54 -127 -57 -153
-43 -21 11 -24 16 -13 23 15 9 352 183 357 184 1 0 2 -29 2 -64z m-4503 -7
c35 -15 63 -30 63 -33 0 -2 -35 -16 -77 -32 -43 -15 -112 -40 -153 -56 l-74
-29 -128 57 c-70 31 -128 59 -128 63 0 3 33 17 73 30 39 12 77 25 82 27 6 2
19 -2 30 -10 17 -12 17 -16 5 -30 -21 -27 9 -49 72 -53 71 -5 103 12 103 55 0
59 21 61 132 11z m3463 31 c13 -9 13 -11 0 -20 -8 -5 -17 -10 -20 -10 -3 0
-12 5 -20 10 -13 9 -13 11 0 20 8 5 17 10 20 10 3 0 12 -5 20 -10z m-3620 -45
c16 -20 -9 -30 -72 -29 -55 1 -66 7 -48 29 17 20 103 20 120 0z m3588 -182 c2
-184 2 -193 -18 -203 -20 -11 -20 -8 -20 195 0 191 1 206 18 203 15 -3 17 -22
20 -195z m62 -8 c0 -113 -2 -205 -4 -205 -2 0 -11 3 -20 6 -14 5 -16 32 -16
199 0 191 2 201 33 204 4 1 7 -91 7 -204z m-3355 173 l45 -22 0 -498 0 -498
-50 25 -50 25 0 495 c0 272 2 495 5 495 2 0 25 -10 50 -22z m2202 7 c-11 -7
-25 -11 -33 -8 -25 10 -15 23 19 23 30 -1 31 -2 14 -15z m598 -69 c88 -40 218
-101 289 -135 70 -33 132 -61 137 -61 5 0 9 -4 9 -10 0 -5 -2 -10 -4 -10 -5 0
-570 266 -593 279 -10 6 -13 11 -8 11 6 0 83 -33 170 -74z m-627 21 c3 -26 2
-27 -17 -15 -26 16 -28 51 -3 46 10 -2 18 -14 20 -31z m52 -32 c0 -51 -3 -65
-15 -65 -12 0 -15 13 -15 58 0 32 3 62 7 65 17 17 23 2 23 -58z m562 -16 c189
-89 265 -124 376 -175 72 -33 72 -33 72 -73 l0 -40 -157 76 c-201 96 -354 169
-420 199 -49 23 -53 27 -53 59 0 19 2 35 4 35 3 0 83 -36 178 -81z m-3309 12
c90 -43 127 -65 132 -81 4 -12 5 -23 3 -25 -3 -3 -257 110 -263 117 -9 11 -14
48 -7 48 6 0 66 -27 135 -59z m445 28 c-2 -17 -31 -33 -148 -80 -80 -32 -146
-59 -148 -59 -2 0 -2 12 0 26 3 24 16 32 138 79 74 29 141 53 148 54 8 1 12
-7 10 -20z m202 -14 l50 -25 -2 -436 -3 -435 -52 -30 -53 -31 0 491 c0 270 2
491 5 491 3 0 28 -11 55 -25z m4253 5 c57 -22 147 -75 147 -87 0 -5 -99 -57
-221 -117 l-221 -108 -26 24 c-35 32 -89 62 -138 77 -21 7 -46 15 -54 18 -18
6 6 19 240 129 96 46 185 83 197 84 12 0 46 -9 76 -20z m-2244 -14 c-2 -2 -60
-29 -129 -59 -69 -30 -161 -72 -205 -92 -136 -63 -235 -103 -235 -96 0 4 62
35 138 69 75 33 202 90 281 126 80 36 147 63 150 61 2 -3 2 -7 0 -9z m21 -42
c0 -20 -8 -28 -37 -40 -41 -17 -429 -200 -505 -240 l-48 -24 0 35 c0 35 1 36
92 78 297 136 475 215 486 216 6 1 12 -10 12 -25z m-1280 -67 c0 -91 -2 -94
-67 -130 -52 -28 -54 -25 -51 69 l3 86 50 29 c28 15 53 28 58 29 4 0 7 -38 7
-83z m1760 -36 c0 -94 -1 -99 -20 -94 -18 5 -20 14 -20 110 0 101 1 103 20 93
18 -10 20 -21 20 -109z m-2727 77 c12 -69 17 -173 8 -153 -10 20 -10 20 -10 0
-1 -12 4 -26 10 -32 9 -9 7 -11 -8 -7 -17 5 -24 21 -37 87 -18 94 -20 117 -7
117 5 0 12 -8 15 -17 4 -15 5 -15 4 2 -1 48 17 49 25 3z m502 -62 l195 -95 0
-501 c0 -304 -4 -500 -9 -498 -29 10 -511 254 -511 258 0 3 26 19 58 35 l57
30 3 433 c1 237 4 432 7 432 2 0 92 -43 200 -94z m-991 71 c17 -13 17 -17 1
-102 -16 -88 -31 -116 -48 -92 -5 7 -6 3 -2 -10 4 -14 2 -23 -4 -23 -6 0 -11
-10 -10 -22 0 -19 2 -20 7 -6 7 17 8 17 18 0 8 -12 6 -35 -5 -82 -14 -56 -19
-65 -40 -68 -23 -4 -24 -2 -17 45 12 89 70 373 76 373 3 0 14 -6 24 -13z m412
-32 c9 -37 1 -50 -41 -62 -46 -15 -65 -8 -65 23 0 19 9 29 43 44 55 24 56 24
63 -5z m3119 -106 l275 -132 0 -33 c0 -31 -5 -36 -61 -65 -71 -36 -104 -34
-165 8 -48 32 -128 68 -172 76 -18 4 -62 24 -97 44 l-65 38 0 98 c0 53 2 97 5
97 3 0 129 -59 280 -131z m-3431 95 c43 -20 56 -30 56 -47 0 -18 -13 -27 -70
-48 -39 -15 -70 -23 -70 -18 0 12 24 139 26 139 1 0 27 -12 58 -26z m2846 -55
c63 -32 151 -72 195 -89 44 -17 111 -50 150 -72 l69 -41 -66 -23 c-36 -12
-104 -47 -150 -77 -45 -29 -132 -76 -193 -102 -60 -26 -124 -58 -141 -71 -41
-30 -67 -86 -62 -135 2 -21 -1 -39 -6 -39 -5 0 -59 23 -120 51 -61 29 -169 78
-240 111 -71 32 -131 60 -134 62 -2 3 -10 22 -18 43 l-15 38 6 -38 6 -38 -50
26 c-56 28 -68 51 -58 112 8 44 45 85 100 108 23 10 139 64 257 121 224 108
275 126 325 117 17 -3 82 -32 145 -64z m2178 43 c4 -14 -172 -104 -184 -92
-13 12 -55 -7 -61 -28 -4 -15 -173 -112 -196 -112 -4 0 -7 8 -7 18 0 13 57 46
213 124 116 59 216 106 221 104 6 -1 11 -7 14 -14z m-4852 -46 c-4 -27 -3 -47
4 -51 5 -3 10 -31 10 -61 0 -41 -4 -54 -15 -54 -12 0 -15 18 -15 105 0 70 4
105 11 105 8 0 9 -14 5 -44z m-38 -202 c-2 -234 -7 -262 -43 -248 -13 5 -15
43 -15 240 l0 234 30 0 30 0 -2 -226z m4892 65 c0 -97 -4 -148 -10 -144 -6 4
-10 63 -10 144 0 121 3 151 17 151 2 0 3 -68 3 -151z m-4697 119 c8 -30 3 -33
-34 -18 l-31 13 24 13 c31 18 35 17 41 -8z m4667 -111 l0 -122 -187 -95 c-104
-52 -191 -96 -195 -98 -4 -2 -7 53 -7 122 l0 126 79 40 c44 22 84 40 90 40 5
0 10 -16 10 -35 0 -27 4 -35 18 -35 29 0 42 21 42 67 0 43 0 43 68 77 37 19
70 35 75 36 4 0 7 -55 7 -123z m-4726 84 c67 -30 100 -59 54 -48 -41 11 -138
58 -138 68 0 15 16 11 84 -20z m-214 -5 c0 -8 -21 -22 -47 -32 -27 -10 -53
-21 -58 -25 -12 -9 -43 6 -34 16 7 6 119 53 132 54 4 1 7 -5 7 -13z m4398 -27
c64 -33 108 -76 101 -98 -6 -15 -259 109 -259 127 0 24 84 8 158 -29z m-2464
25 c22 -8 10 -24 -19 -24 -27 0 -42 16 -23 23 19 8 24 8 42 1z m2846 -54 c0
-39 -4 -52 -20 -60 -19 -10 -20 -8 -20 43 0 56 4 67 27 67 9 0 13 -15 13 -50z
m-4572 12 l33 -18 -36 -17 c-43 -21 -55 -16 -55 24 0 33 11 36 58 11z m952
-536 l0 -504 -50 27 -50 26 0 503 0 502 50 -25 50 -25 0 -504z m750 203 c0
-327 0 -330 -20 -319 -19 10 -20 21 -20 341 0 327 0 330 20 319 19 -10 20 -21
20 -341z m60 283 c0 -46 -5 -75 -16 -91 -12 -16 -15 -37 -12 -76 3 -39 1 -56
-9 -59 -10 -4 -13 22 -13 134 0 122 2 140 18 149 29 18 32 13 32 -57z m-704
-927 c-2 -5 -22 -20 -45 -33 l-41 -23 0 498 0 499 43 21 42 20 3 -486 c1 -267
0 -490 -2 -496z m2981 768 c-1 -43 -3 -10 -3 72 0 83 2 118 3 78 2 -40 2 -107
0 -150z m-4249 172 c-1 -19 -4 -35 -5 -35 -2 0 -23 10 -46 22 l-42 21 35 13
c55 20 61 18 58 -21z m4376 -16 l106 -51 0 -124 c0 -68 -2 -124 -4 -124 -2 0
-51 23 -110 51 l-106 51 0 124 c0 68 2 124 4 124 2 0 52 -23 110 -51z m-4455
-7 c67 -34 100 -62 73 -62 -23 0 -172 76 -172 88 0 19 19 14 99 -26z m401 25
c-8 -8 -54 -30 -102 -51 -127 -53 -121 -51 -117 -31 3 13 33 31 94 56 95 39
152 51 125 26z m23 -55 c4 -18 3 -31 -2 -28 -10 7 -20 53 -13 61 7 7 8 5 15
-33z m3407 18 c12 -8 12 -10 -3 -16 -22 -8 -50 3 -42 16 8 12 25 13 45 0z
m-3429 -87 c14 -62 18 -119 19 -275 l0 -198 -425 212 c-234 117 -425 215 -425
219 0 3 54 26 120 51 96 37 120 43 116 30 -19 -70 -17 -91 9 -108 39 -25 69
-7 84 50 6 24 11 54 11 65 0 33 13 32 88 -4 l72 -34 0 -100 c0 -92 2 -101 22
-115 29 -20 47 -20 70 1 15 13 18 32 18 112 l0 97 83 32 c45 18 89 37 97 42 8
5 16 7 18 5 3 -2 13 -39 23 -82z m3387 55 c7 -7 11 -38 10 -77 -1 -48 -3 -55
-5 -24 -2 23 -11 47 -19 53 -15 13 -20 60 -6 60 4 0 13 -5 20 -12z m51 -714
c-6 -8 -15 -14 -20 -14 -5 0 -9 160 -9 360 0 331 1 360 18 369 16 9 17 -11 20
-346 2 -254 -1 -360 -9 -369z m751 561 c0 -90 -4 -145 -10 -145 -6 0 -10 55
-10 145 0 90 4 145 10 145 6 0 10 -55 10 -145z m30 1 c0 -86 -4 -147 -10 -151
-6 -4 -10 47 -10 144 0 94 4 151 10 151 6 0 10 -55 10 -144z m-1240 124 c12
-8 12 -10 -5 -10 -11 0 -38 -9 -60 -20 -22 -11 -31 -17 -20 -14 91 30 117 33
146 18 29 -14 31 -34 5 -34 -58 0 -359 -131 -435 -189 -19 -14 -64 -42 -100
-62 -75 -40 -91 -63 -91 -131 0 -27 -3 -48 -7 -47 -5 0 -33 12 -63 27 l-55 27
-3 59 c-3 58 -2 59 41 100 30 28 75 54 142 81 54 22 131 61 171 87 90 58 124
75 188 99 57 20 123 24 146 9z m380 -37 c-1 -11 -591 -296 -598 -289 -5 5 572
294 591 295 4 1 7 -2 7 -6z m20 -58 l0 -45 -167 -81 c-93 -45 -230 -113 -306
-150 -77 -38 -141 -69 -143 -69 -2 0 -4 20 -4 45 0 38 4 47 23 54 12 5 150 72
307 150 157 77 286 140 288 141 1 0 2 -20 2 -45z m-235 12 c13 -10 15 -16 6
-21 -6 -4 -17 -3 -24 2 -7 6 -25 12 -39 14 -44 6 -45 18 -2 18 22 0 48 -6 59
-13z m-38 -31 c8 -8 21 -1 -171 -94 -100 -49 -172 -79 -175 -73 -4 6 -23 17
-42 25 -33 14 -38 13 -67 -4 -19 -12 -32 -28 -32 -40 0 -12 -7 -20 -17 -20
-17 -1 -17 -1 0 -14 19 -15 23 -40 5 -34 -6 2 -18 14 -26 26 -14 21 -12 24 27
61 46 43 170 107 296 153 65 23 91 28 138 24 32 -2 61 -7 64 -10z m292 -103
c-2 -78 -4 -84 -24 -76 -19 7 -21 113 -3 131 23 23 29 11 27 -55z m-1366 -122
c526 -241 594 -273 582 -278 -6 -2 -110 42 -230 98 -121 56 -336 155 -477 220
-278 127 -300 138 -280 139 8 0 190 -81 405 -179z m217 -137 c370 -171 365
-168 368 -202 2 -18 1 -32 -3 -32 -3 0 -41 16 -83 36 -42 20 -144 68 -227 106
-222 103 -234 109 -435 203 -102 47 -202 93 -222 102 -33 13 -38 19 -38 48 l0
33 278 -127 c152 -70 315 -145 362 -167z m1088 234 l-3 -53 -155 -76 c-85 -43
-215 -107 -287 -143 l-133 -65 0 57 0 58 278 136 c152 75 283 137 290 137 10
1 12 -13 10 -51z m-1714 -34 c13 -5 16 -26 16 -124 0 -109 -1 -118 -20 -123
-19 -5 -20 0 -20 124 0 71 2 129 4 129 2 0 11 -3 20 -6z m1090 -3 c3 -5 -1
-11 -9 -15 -18 -6 -45 2 -45 15 0 12 47 12 54 0z m-34 -408 c0 -368 0 -374
-20 -363 -18 10 -19 24 -22 243 -2 127 -2 293 0 368 2 131 3 137 22 132 19 -5
20 -15 20 -380z m60 17 c0 -355 -1 -370 -19 -380 -11 -5 -22 -7 -24 -3 -3 5
-6 171 -6 370 -2 339 -1 362 16 372 10 6 21 11 26 11 4 0 7 -166 7 -370z
m-146 287 c25 -17 26 -21 26 -107 0 -50 -3 -90 -7 -90 -5 0 -45 16 -90 37
l-83 36 0 62 c0 67 12 86 75 118 29 15 30 14 41 -12 6 -15 23 -35 38 -44z
m775 69 c-10 -11 -604 -303 -608 -300 -7 7 -6 7 294 157 245 123 336 164 314
143z m21 -53 l0 -38 -315 -158 -315 -157 0 40 0 40 308 154 c169 85 310 155
315 155 4 1 7 -16 7 -36z m10 -198 c0 -74 -2 -135 -4 -135 -2 0 -11 3 -20 6
-13 5 -16 26 -16 129 0 120 3 131 33 134 4 1 7 -60 7 -134z"/>
<path d="M4590 4439 c-30 -12 -92 -35 -137 -51 l-83 -31 0 -158 c0 -87 4 -160
9 -163 4 -3 37 5 72 19 35 13 99 36 142 51 l77 29 0 162 c0 124 -3 163 -12
162 -7 0 -38 -9 -68 -20z m-7 -86 c-31 -49 -58 -90 -59 -92 -4 -4 -123 82
-124 89 0 5 213 87 232 89 4 1 -18 -38 -49 -86z m75 -151 l-3 -42 -57 41 c-32
22 -58 45 -58 49 0 5 24 47 53 92 l52 83 8 -90 c4 -50 6 -109 5 -133z m-208
92 c33 -25 60 -47 60 -50 0 -6 -113 -175 -115 -172 -4 6 -13 268 -9 268 2 0
31 -21 64 -46z m137 -101 c29 -21 52 -41 52 -44 1 -8 -4 -10 -135 -58 l-101
-38 56 88 c31 49 61 89 66 89 6 0 34 -17 62 -37z"/>
<path d="M3900 4315 c-102 -36 -274 -95 -382 -132 l-198 -68 0 -292 c0 -335
-10 -309 100 -269 36 14 182 68 325 121 143 53 286 106 318 118 l57 22 0 282
c0 263 -1 283 -17 282 -10 0 -101 -29 -203 -64z m210 -220 l0 -275 -27 -6
c-16 -4 -73 -24 -128 -45 -190 -72 -615 -229 -620 -229 -3 0 -5 128 -5 284 l0
284 23 5 c20 4 630 213 707 242 19 7 38 13 43 14 4 0 7 -123 7 -274z"/>
<path d="M3970 4275 c-36 -14 -164 -59 -285 -100 -121 -42 -239 -83 -262 -92
l-43 -16 0 -229 c0 -215 1 -230 18 -223 9 4 78 28 152 55 125 44 353 128 460
169 l45 17 3 222 c2 174 0 222 -10 221 -7 0 -42 -11 -78 -24z m54 -7 c-16 -26
-85 -118 -89 -118 -2 0 -20 11 -40 24 -20 14 -41 27 -48 29 -18 6 -10 11 83
44 98 36 104 37 94 21z m25 -143 c1 -162 4 -157 -63 -102 l-30 24 36 49 c67
93 49 86 -25 -9 l-27 -36 -95 61 c-52 33 -92 65 -89 69 2 5 20 11 38 15 28 5
43 0 87 -30 61 -41 60 -41 121 46 22 32 42 58 44 58 1 0 3 -65 3 -145z m-435
-82 c-49 -65 -94 -124 -100 -132 -10 -13 -20 -10 -68 19 -54 33 -56 36 -56 77
0 24 2 43 5 43 3 0 25 -16 51 -35 25 -19 49 -35 54 -35 5 0 34 35 65 78 39 53
68 82 93 93 20 9 39 15 41 13 2 -2 -37 -56 -85 -121z m240 47 c50 -33 74 -55
69 -63 -25 -43 -196 -267 -203 -267 -16 0 -195 118 -195 129 0 6 45 71 100
145 114 155 89 149 229 56z m-260 28 c-6 -11 -62 -84 -85 -112 -7 -8 -99 42
-99 54 0 4 161 64 188 69 2 1 0 -5 -4 -11z m406 -122 c40 -29 45 -38 48 -75
l3 -43 -43 29 c-24 16 -48 33 -55 36 -7 5 -33 -24 -67 -73 -41 -58 -66 -84
-93 -95 -20 -8 -38 -13 -40 -11 -5 4 189 266 197 265 3 0 25 -15 50 -33z
m-555 -83 c22 -14 42 -27 43 -29 4 -3 -88 -134 -94 -134 -2 0 -4 43 -4 95 0
52 3 95 8 95 4 0 25 -12 47 -27z m551 -14 c25 -17 44 -33 41 -35 -9 -9 -178
-63 -175 -56 5 12 83 122 86 122 2 0 24 -14 48 -31z m-394 -86 c51 -31 97 -60
102 -64 5 -4 -9 -13 -31 -19 -37 -11 -42 -10 -98 24 -33 20 -63 36 -67 36 -9
0 -101 -130 -95 -136 2 -3 26 24 51 60 l47 65 49 -30 c49 -30 63 -49 38 -49
-7 -1 -52 -15 -99 -33 -68 -26 -88 -30 -97 -20 -26 27 -13 69 44 147 30 42 57
76 60 76 2 0 45 -26 96 -57z"/>
<path d="M3683 4027 c-52 -67 -73 -100 -73 -109 0 -11 110 -79 119 -74 4 3 32
39 60 81 l53 76 -24 19 c-13 10 -39 28 -59 39 l-37 21 -39 -53z m93 6 c24 -16
44 -31 44 -35 0 -10 -90 -138 -97 -138 -12 0 -93 55 -93 64 0 9 91 136 98 136
3 0 24 -12 48 -27z"/>
<path d="M2895 3851 l-130 -48 4 -169 c2 -93 5 -171 7 -173 2 -2 67 20 144 49
l140 53 0 168 c0 155 -1 169 -17 168 -10 0 -76 -22 -148 -48z m128 16 c-54
-90 -109 -167 -117 -167 -6 0 -35 22 -65 48 l-54 48 29 11 c209 80 221 83 207
60z m20 -276 c-1 -2 -29 18 -62 44 -38 30 -58 52 -53 59 4 7 30 48 57 90 l50
79 5 -134 c3 -74 4 -136 3 -138z m-165 107 l24 -16 -53 -87 c-29 -47 -56 -88
-61 -91 -4 -3 -8 59 -8 137 l0 141 38 -34 c20 -18 48 -41 60 -50z m124 -97
l38 -29 -78 -30 c-110 -44 -162 -62 -162 -55 0 3 25 45 56 94 l57 89 26 -21
c14 -11 43 -33 63 -48z"/>
<path d="M5733 4528 c2 -7 8 -13 13 -13 15 0 34 -15 34 -28 0 -6 -7 -2 -15 9
-15 18 -15 18 -9 -9 5 -23 4 -26 -12 -21 -11 4 -23 10 -29 14 -5 4 -27 13 -48
20 -54 17 -87 -5 -87 -58 1 -41 13 -63 47 -81 19 -9 21 -17 16 -44 -3 -17 -14
-41 -24 -53 -14 -15 -18 -29 -13 -52 l6 -32 -41 15 c-23 8 -39 10 -36 5 8 -12
564 -194 572 -187 3 3 -5 9 -18 12 -53 13 -138 130 -119 165 5 10 10 39 10 64
0 45 0 45 30 40 42 -9 49 17 16 60 -14 19 -26 39 -26 43 0 16 -22 32 -36 26
-18 -7 -18 -23 -1 -23 16 0 78 -80 71 -91 -3 -5 -14 -4 -26 2 -29 16 -40 0
-40 -59 1 -42 -3 -51 -23 -62 -33 -17 -86 1 -157 56 -36 27 -60 39 -64 33 -4
-6 -26 -20 -50 -31 -45 -20 -56 -42 -31 -67 10 -11 9 -13 -3 -9 -22 7 -25 66
-4 89 21 24 29 89 12 101 -29 21 82 -3 127 -27 49 -25 115 -34 115 -14 0 5 4
7 10 4 6 -4 7 1 3 11 -4 12 -3 15 5 10 8 -5 12 0 12 13 0 12 5 21 11 21 6 0 9
9 6 20 -3 11 -1 20 4 20 5 0 9 5 9 11 0 16 -25 5 -25 -12 -1 -24 -57 -99 -74
-99 -9 0 -43 14 -76 30 -33 16 -75 30 -92 30 -38 0 -73 30 -73 60 0 38 31 37
127 -1 29 -12 35 -11 49 3 15 14 15 21 4 48 -15 37 -69 72 -57 38z m-18 -59
c39 -17 49 -19 56 -8 6 10 9 10 9 2 0 -23 -20 -24 -66 -4 -53 24 -85 26 -102
9 -18 -18 -15 -42 9 -72 11 -14 16 -26 11 -26 -28 0 -53 80 -32 105 17 21 59
19 115 -6z m37 -241 c-17 -17 -15 -44 5 -76 l17 -27 -21 18 c-11 10 -23 14
-24 8 -6 -14 -65 14 -78 36 -13 25 -3 40 32 48 26 7 27 5 27 -28 0 -20 4 -38
9 -41 5 -4 7 11 4 34 -3 21 -3 47 1 56 6 16 8 16 23 1 13 -13 15 -19 5 -29z
m96 -79 c-4 -49 -20 -50 -64 -3 -37 39 -39 46 -24 75 10 18 12 18 50 -7 37
-24 40 -30 38 -65z m42 22 c0 -6 -5 -13 -11 -17 -6 -3 -9 -17 -6 -30 2 -13 0
-24 -4 -24 -10 0 -12 64 -2 73 9 10 23 8 23 -2z m85 -50 c13 -28 33 -54 42
-60 14 -8 15 -10 3 -11 -13 0 -100 100 -100 115 0 3 7 5 15 5 8 0 26 -22 40
-49z m-5 -43 c9 -15 6 -16 -22 -7 -18 5 -34 9 -35 9 -1 0 -10 11 -19 25 -14
21 -14 28 -3 41 12 14 16 12 41 -18 16 -18 33 -41 38 -50z"/>
<path d="M6405 4353 c4 -10 16 -47 27 -82 11 -35 22 -71 25 -80 4 -11 -2 -8
-20 8 -15 14 -29 22 -32 20 -2 -3 2 -27 10 -54 8 -26 15 -69 15 -95 0 -26 6
-60 14 -75 13 -25 13 -32 0 -57 -18 -35 -7 -77 28 -116 25 -26 18 -49 -20 -67
-30 -13 -35 -33 -12 -45 25 -14 179 -70 191 -70 16 0 10 19 -21 62 -39 53 -38
78 1 101 31 17 31 18 24 73 -4 31 -2 60 3 67 5 7 12 39 15 73 2 33 12 75 21
93 15 28 15 32 1 37 -8 4 -22 1 -30 -6 -26 -22 -25 -8 6 64 41 97 38 117 -14
76 -33 -26 -39 -25 -58 9 -20 34 -49 43 -83 26 -24 -13 -27 -11 -46 21 -23 36
-58 49 -45 17z m56 -56 c16 -20 17 -20 34 -3 26 26 57 16 80 -26 l21 -37 29
24 c17 13 33 24 37 25 4 0 -5 -26 -19 -57 -51 -115 -52 -155 -2 -107 33 32 35
30 14 -19 -8 -20 -15 -55 -15 -78 0 -22 -7 -53 -16 -69 -14 -22 -15 -34 -6
-59 6 -17 8 -32 4 -35 -9 -5 -152 40 -164 52 -6 6 -5 17 3 30 11 17 10 27 -3
59 -9 21 -19 67 -21 103 -3 36 -8 74 -12 85 -3 11 4 3 17 -17 13 -21 27 -38
32 -38 12 0 -1 62 -30 144 -26 76 -29 91 -11 62 7 -10 19 -28 28 -39z m83
-436 c87 -28 88 -29 65 -45 -13 -9 -34 -16 -48 -16 -41 0 -111 53 -111 84 0 8
-7 9 94 -23z m25 -110 c6 -20 22 -48 36 -61 14 -13 25 -27 25 -31 0 -7 -80 19
-172 56 -24 10 -23 18 5 30 12 6 26 19 31 31 7 15 16 19 36 16 22 -3 30 -12
39 -41z"/>
<path d="M6495 4115 c-35 -32 -37 -38 -32 -77 7 -50 34 -90 72 -103 24 -8 30
-6 56 23 37 41 37 78 1 128 -50 68 -55 69 -97 29z m89 -38 c30 -47 30 -92 -2
-115 -41 -31 -94 7 -106 76 -5 28 -1 39 23 63 16 16 36 27 43 24 8 -3 26 -25
42 -48z"/>
<path d="M7055 3999 c-32 -32 -38 -43 -29 -57 6 -9 22 -19 35 -22 22 -5 24
-11 25 -66 0 -33 4 -66 8 -73 21 -34 -67 -96 -113 -79 -31 11 -40 2 -10 -11
22 -9 162 -60 324 -118 39 -14 110 -40 159 -59 94 -35 133 -39 52 -5 l-46 20
6 41 c5 31 3 45 -11 59 -9 11 -19 38 -22 60 -5 38 -4 41 19 41 39 0 62 32 55
76 -10 61 -53 94 -138 109 -53 8 -67 29 -35 50 28 18 26 35 -3 35 -21 0 -51
-30 -51 -52 0 -31 34 -58 87 -68 64 -12 90 -27 101 -60 18 -52 -14 -66 -72
-31 -17 10 -60 24 -95 30 -62 10 -111 39 -111 66 0 6 -9 28 -20 50 -11 22 -20
50 -20 63 0 17 -5 22 -17 20 -10 -2 -22 2 -28 8 -7 9 -21 1 -50 -27z m82 -18
c3 -39 9 -57 21 -69 6 -7 12 -23 12 -34 0 -12 3 -18 6 -15 4 3 15 -4 25 -17
18 -23 55 -35 150 -51 21 -3 42 -12 49 -20 7 -8 25 -15 41 -15 57 0 59 65 3
109 -28 22 -25 28 7 11 22 -12 49 -60 49 -89 0 -32 -28 -53 -61 -46 l-30 7 7
-44 c7 -45 21 -79 36 -89 14 -9 -2 -79 -18 -79 -8 0 -14 5 -14 10 0 6 5 10 10
10 23 0 8 43 -29 83 -21 23 -46 57 -56 76 -15 29 -19 32 -27 18 -10 -19 -99
-24 -142 -7 -21 8 -33 4 -70 -20 -44 -30 -76 -38 -76 -20 0 6 9 10 19 10 11 0
29 12 40 26 11 14 25 23 31 19 13 -8 13 -3 -2 32 -6 15 -14 55 -17 88 -5 53
-9 60 -29 63 -33 5 -40 32 -13 53 27 22 76 22 78 0z m185 -7 c-42 -29 -23 -59
49 -74 l44 -9 -43 3 c-44 4 -82 28 -82 52 0 16 28 44 43 44 6 0 1 -7 -11 -16z
m-155 -321 c-10 -10 -21 -10 -50 -1 -20 6 -37 15 -37 19 0 5 17 17 38 28 l37
20 12 -27 c9 -21 9 -30 0 -39z m33 16 c0 -21 -4 -39 -9 -39 -4 0 -8 12 -8 28
0 15 -3 35 -7 45 -6 13 -5 16 8 11 11 -4 16 -18 16 -45z m104 21 c3 -11 8 -29
11 -39 7 -25 -46 -54 -77 -42 -17 6 -22 17 -24 54 l-3 47 44 0 c35 0 45 -4 49
-20z m42 2 c18 -29 6 -78 -23 -91 -32 -14 -43 -7 -13 9 18 10 20 17 14 56 -6
46 3 57 22 26z m84 -107 c0 -5 -9 -16 -19 -22 -16 -10 -27 -9 -57 3 -36 15
-36 16 -15 30 12 9 21 26 21 42 l0 26 35 -34 c19 -19 35 -39 35 -45z"/>
<path d="M5643 3643 c15 -2 39 -2 55 0 15 2 2 4 -28 4 -30 0 -43 -2 -27 -4z"/>
<path d="M5880 3579 c-36 -21 -79 -67 -80 -83 0 -5 16 7 35 27 20 21 53 46 73
57 20 10 30 19 22 20 -8 0 -31 -10 -50 -21z"/>
<path d="M6144 3535 c0 -77 2 -107 3 -67 2 40 2 103 0 140 -2 37 -3 4 -3 -73z"/>
<path d="M5185 3610 c27 -12 43 -12 25 0 -8 5 -22 9 -30 9 -10 0 -8 -3 5 -9z"/>
<path d="M5270 3580 c8 -5 20 -10 25 -10 6 0 3 5 -5 10 -8 5 -19 10 -25 10 -5
0 -3 -5 5 -10z"/>
<path d="M5782 3280 c0 -14 2 -19 5 -12 2 6 2 18 0 25 -3 6 -5 1 -5 -13z"/>
<path d="M5023 3433 c9 -2 23 -2 30 0 6 3 -1 5 -18 5 -16 0 -22 -2 -12 -5z"/>
<path d="M5404 3376 c11 -9 24 -16 30 -16 12 0 7 5 -24 19 -24 11 -24 11 -6
-3z"/>
<path d="M4813 3363 c9 -2 23 -2 30 0 6 3 -1 5 -18 5 -16 0 -22 -2 -12 -5z"/>
<path d="M4878 3353 c6 -2 18 -2 25 0 6 3 1 5 -13 5 -14 0 -19 -2 -12 -5z"/>
<path d="M4928 3343 c6 -2 18 -2 25 0 6 3 1 5 -13 5 -14 0 -19 -2 -12 -5z"/>
<path d="M4978 3333 c6 -2 18 -2 25 0 6 3 1 5 -13 5 -14 0 -19 -2 -12 -5z"/>
<path d="M5028 3323 c7 -3 16 -2 19 1 4 3 -2 6 -13 5 -11 0 -14 -3 -6 -6z"/>
<path d="M5068 3313 c7 -3 16 -2 19 1 4 3 -2 6 -13 5 -11 0 -14 -3 -6 -6z"/>
<path d="M5495 3204 c-71 -36 -163 -79 -203 -96 -40 -17 -71 -33 -68 -35 11
-11 406 176 406 193 0 6 9 10 -135 -62z"/>
<path d="M5701 3214 c0 -11 3 -14 6 -6 3 7 2 16 -1 19 -3 4 -6 -2 -5 -13z"/>
<path d="M5200 2970 c8 -5 24 -10 34 -10 26 0 18 6 -19 14 -22 5 -26 4 -15 -4z"/>
<path d="M5981 3429 c-24 -11 -41 -22 -38 -25 3 -3 27 6 54 20 57 30 47 33
-16 5z"/>
<path d="M6041 3354 c0 -11 3 -14 6 -6 3 7 2 16 -1 19 -3 4 -6 -2 -5 -13z"/>
<path d="M4273 3285 c0 -22 2 -30 4 -17 2 12 2 30 0 40 -3 9 -5 -1 -4 -23z"/>
<path d="M5965 3210 c-3 -6 1 -7 9 -4 18 7 21 14 7 14 -6 0 -13 -4 -16 -10z"/>
<path d="M5280 2875 c-14 -8 -20 -14 -15 -14 6 0 21 6 35 14 14 8 21 14 15 14
-5 0 -21 -6 -35 -14z"/>
<path d="M4390 3175 c0 -5 5 -17 10 -25 5 -8 10 -10 10 -5 0 6 -5 17 -10 25
-5 8 -10 11 -10 5z"/>
<path d="M3350 3045 c0 -3 13 -11 30 -20 16 -8 47 -30 67 -47 l38 -32 -39 42
c-33 34 -96 72 -96 57z"/>
<path d="M6127 3129 c7 -7 15 -10 18 -7 3 3 -2 9 -12 12 -14 6 -15 5 -6 -5z"/>
<path d="M6220 3136 c0 -2 7 -7 16 -10 8 -3 12 -2 9 4 -6 10 -25 14 -25 6z"/>
<path d="M7420 2990 c8 -5 20 -10 25 -10 6 0 3 5 -5 10 -8 5 -19 10 -25 10 -5
0 -3 -5 5 -10z"/>
<path d="M7470 2970 c8 -5 20 -10 25 -10 6 0 3 5 -5 10 -8 5 -19 10 -25 10 -5
0 -3 -5 5 -10z"/>
<path d="M3134 2970 c0 -63 1 -89 3 -57 2 31 2 83 0 115 -2 31 -3 5 -3 -58z"/>
<path d="M3290 2866 c0 -2 7 -7 16 -10 8 -3 12 -2 9 4 -6 10 -25 14 -25 6z"/>
<path d="M5043 2770 c0 -36 2 -50 4 -32 2 17 2 47 0 65 -2 17 -4 3 -4 -33z"/>
<path d="M4108 3073 c7 -3 16 -2 19 1 4 3 -2 6 -13 5 -11 0 -14 -3 -6 -6z"/>
<path d="M4030 3050 c-8 -5 -10 -10 -5 -10 6 0 17 5 25 10 8 5 11 10 5 10 -5
0 -17 -5 -25 -10z"/>
<path d="M3539 2803 l-24 -28 28 24 c25 23 32 31 24 31 -2 0 -14 -12 -28 -27z"/>
<path d="M4370 3050 c8 -5 20 -10 25 -10 6 0 3 5 -5 10 -8 5 -19 10 -25 10 -5
0 -3 -5 5 -10z"/>
<path d="M3910 2825 c-25 -13 -41 -24 -37 -25 11 0 87 39 87 45 0 7 0 7 -50
-20z"/>
<path d="M4020 2800 c-8 -5 -10 -10 -5 -10 6 0 17 5 25 10 8 5 11 10 5 10 -5
0 -17 -5 -25 -10z"/>
<path d="M4408 2803 c7 -3 16 -2 19 1 4 3 -2 6 -13 5 -11 0 -14 -3 -6 -6z"/>
<path d="M4358 2793 c7 -3 16 -2 19 1 4 3 -2 6 -13 5 -11 0 -14 -3 -6 -6z"/>
<path d="M3970 2780 c-8 -5 -10 -10 -5 -10 6 0 17 5 25 10 8 5 11 10 5 10 -5
0 -17 -5 -25 -10z"/>
<path d="M4270 2780 c-20 -6 -21 -8 -5 -8 11 0 34 4 50 8 27 7 27 8 5 8 -14 0
-36 -4 -50 -8z"/>
<path d="M4175 2755 c-39 -14 -40 -14 -5 -8 41 7 82 22 60 22 -8 0 -33 -7 -55
-14z"/>
<path d="M3591 2684 c0 -11 3 -14 6 -6 3 7 2 16 -1 19 -3 4 -6 -2 -5 -13z"/>
<path d="M3879 2609 c35 -16 66 -28 68 -26 4 5 -114 57 -125 56 -4 0 22 -14
57 -30z"/>
<path d="M3970 2570 c8 -5 20 -10 25 -10 6 0 3 5 -5 10 -8 5 -19 10 -25 10 -5
0 -3 -5 5 -10z"/>
<path d="M4186 2383 c-6 -14 -5 -15 5 -6 7 7 10 15 7 18 -3 3 -9 -2 -12 -12z"/>
<path d="M5372 2738 c-7 -7 -12 -25 -12 -42 l0 -30 -21 23 c-16 17 -30 21 -62
19 -39 -3 -43 -6 -51 -39 -16 -64 -3 -85 74 -124 72 -36 135 -46 158 -23 19
19 14 37 -14 63 -33 30 -30 31 21 5 46 -24 117 -26 135 -5 21 25 6 49 -48 78
-28 16 -57 38 -63 50 -7 12 -17 25 -23 29 -18 12 -81 9 -94 -4z m70 -20 c-8
-8 -17 -8 -34 0 -22 10 -21 11 12 11 26 1 31 -2 22 -11z m25 -51 c23 -21 42
-30 69 -31 43 -1 70 -30 44 -46 -18 -12 -61 -4 -115 20 -22 10 -50 21 -62 25
-18 5 -23 14 -23 41 0 32 2 34 28 28 15 -4 41 -20 59 -37z m30 13 c38 -34 20
-42 -21 -9 -24 19 -34 39 -20 39 4 0 22 -13 41 -30z m-200 14 c28 -8 20 -24
-12 -24 -25 0 -39 12 -28 24 8 7 12 7 40 0z m80 -103 c-14 -5 -68 59 -60 72 3
5 21 -8 39 -29 18 -22 27 -41 21 -43z m-57 29 c24 -25 37 -46 34 -55 -8 -20
-16 -19 -66 9 -34 19 -44 30 -46 55 -5 45 29 41 78 -9z m120 -61 c8 -14 6 -20
-8 -28 -19 -10 -79 0 -74 12 1 4 2 12 2 17 0 13 41 29 58 23 7 -3 17 -14 22
-24z"/>
<path d="M6819 1819 c-13 -13 -19 -28 -16 -41 6 -20 5 -20 -17 1 -22 20 -80
29 -89 14 -3 -5 -7 -30 -8 -57 l-4 -49 55 -33 c65 -39 110 -50 139 -35 26 14
27 38 4 64 -18 19 -18 19 12 5 53 -27 89 -31 114 -11 29 23 20 46 -27 74 -21
12 -48 34 -62 49 -35 39 -74 46 -101 19z m56 -9 c8 -13 -15 -13 -35 0 -12 8
-11 10 7 10 12 0 25 -4 28 -10z m69 -69 c-7 -8 -54 30 -54 45 0 11 8 7 29 -13
16 -15 27 -30 25 -32z m-47 17 c22 -21 41 -31 62 -30 36 1 63 -24 40 -39 -19
-12 -63 -2 -126 28 -42 20 -53 30 -53 49 0 35 37 31 77 -8z m-135 10 c-8 -8
-17 -8 -34 0 -22 10 -21 11 12 11 26 1 31 -2 22 -11z m68 -74 c0 -13 -31 0
-44 18 -28 39 -17 52 14 18 17 -18 30 -34 30 -36z m-55 18 c16 -20 29 -40 27
-45 -1 -4 7 -2 18 5 23 15 53 2 58 -26 6 -27 -46 -19 -113 17 -48 26 -61 37
-63 60 -5 42 35 37 73 -11z"/>
<path d="M4841 1273 c-20 -21 -52 -46 -69 -55 -38 -20 -49 -42 -32 -63 14 -17
82 -20 111 -5 17 10 18 9 7 -16 -11 -23 -10 -28 7 -41 27 -19 75 -9 148 30 55
31 57 33 57 74 0 67 -33 88 -90 58 -29 -15 -30 -15 -30 8 0 58 -55 63 -109 10z
m79 7 c-20 -13 -40 -13 -40 0 0 6 12 10 28 10 21 0 24 -2 12 -10z m-71 -51
c-36 -27 -40 -23 -10 10 14 16 28 24 30 19 2 -6 -7 -19 -20 -29z m89 9 c-4
-32 -90 -77 -145 -78 -24 0 -43 4 -43 9 0 14 28 33 42 28 17 -6 58 15 82 42
11 12 30 21 43 21 20 0 24 -4 21 -22z m102 2 c0 -5 -7 -10 -15 -10 -8 0 -18
-1 -22 -2 -3 -2 -8 3 -10 10 -3 7 5 12 21 12 14 0 26 -4 26 -10z m-76 -61
c-28 -31 -36 -22 -12 16 16 24 24 30 26 19 2 -9 -4 -24 -14 -35z m86 12 c0
-24 -8 -32 -64 -60 -64 -33 -111 -38 -111 -12 0 24 32 38 56 23 12 -8 18 -9
15 -3 -4 5 2 15 13 20 11 6 22 20 26 30 5 18 21 27 53 30 7 1 12 -11 12 -28z"/>
<path d="M5280 1192 c-178 -80 -416 -197 -437 -216 -22 -19 -23 -25 -23 -218
l0 -198 26 -12 c20 -9 30 -9 45 0 16 10 34 5 114 -35 79 -39 95 -51 95 -71 0
-32 44 -48 76 -28 12 9 24 25 26 37 4 30 365 215 390 199 23 -13 51 -13 66 2
18 18 17 378 -2 421 -8 20 -35 47 -67 69 -54 37 -174 88 -207 88 -9 0 -55 -17
-102 -38z m221 -30 c35 -17 79 -44 98 -60 l34 -28 -39 -19 c-21 -10 -133 -65
-248 -121 l-208 -104 -19 23 c-21 27 -118 81 -190 105 l-50 18 238 112 c270
128 270 128 384 74z m135 -137 c-3 -8 -46 -35 -97 -60 -69 -35 -94 -43 -100
-34 -11 18 -59 -5 -66 -32 -4 -13 -38 -37 -104 -70 -54 -27 -104 -49 -110 -49
-5 0 -9 9 -7 21 2 16 55 46 243 138 132 65 242 114 243 109 2 -5 1 -15 -2 -23z
m14 -189 c0 -93 -4 -157 -10 -161 -7 -4 -10 50 -10 154 0 101 4 161 10 161 6
0 10 -58 10 -154z m-30 9 l0 -135 -211 -106 c-116 -58 -213 -104 -215 -102 -1
2 -4 62 -5 133 l-2 130 89 47 c49 26 92 47 97 48 4 0 7 -17 7 -38 0 -47 6 -54
36 -40 19 9 24 19 26 62 l3 51 80 42 c44 23 83 42 88 43 4 0 7 -61 7 -135z
m-627 67 c71 -33 132 -82 140 -112 7 -27 -6 -23 -143 45 -152 74 -150 73 -143
91 9 23 67 13 146 -24z m437 -52 c0 -33 -2 -60 -4 -60 -2 0 -11 -3 -20 -6 -14
-5 -16 3 -16 54 0 56 6 68 33 71 4 1 7 -26 7 -59z m-570 -131 c0 -104 -3 -158
-10 -154 -6 4 -10 68 -10 161 0 96 4 154 10 154 6 0 10 -60 10 -161z m145 87
l100 -51 3 -137 3 -138 -120 58 -120 57 0 137 c-1 125 0 137 16 131 9 -4 62
-29 118 -57z m135 -222 c0 -107 -3 -163 -10 -159 -6 4 -10 70 -10 166 0 99 4
159 10 159 6 0 10 -62 10 -166z m30 1 c0 -103 -4 -165 -10 -165 -6 0 -10 59
-10 158 0 139 3 172 17 172 2 0 3 -74 3 -165z"/>
<path d="M5450 1085 c-25 -13 -41 -24 -37 -25 11 0 87 39 87 45 0 7 0 7 -50
-20z"/>
<path d="M4990 880 c8 -5 20 -10 25 -10 6 0 3 5 -5 10 -8 5 -19 10 -25 10 -5
0 -3 -5 5 -10z"/>
<path d="M5400 830 c0 -11 5 -20 10 -20 6 0 10 9 10 20 0 11 -4 20 -10 20 -5
0 -10 -9 -10 -20z"/>
<path d="M4920 751 c0 -58 95 -98 121 -50 16 30 -4 48 -29 26 -16 -15 -21 -15
-38 -3 -10 8 -19 22 -19 32 0 10 -8 20 -17 22 -14 3 -18 -3 -18 -27z m79 -51
c11 0 22 8 24 18 4 15 5 15 6 0 1 -22 -15 -31 -44 -24 -25 6 -55 32 -55 46 0
5 11 -2 25 -15 13 -14 33 -25 44 -25z"/>
<path d="M4940 616 c0 -2 7 -7 16 -10 8 -3 12 -2 9 4 -6 10 -25 14 -25 6z"/>
<path d="M6260 2930 c0 -11 5 -20 10 -20 6 0 10 9 10 20 0 11 -4 20 -10 20 -5
0 -10 -9 -10 -20z"/>
<path d="M7188 2893 c7 -3 16 -2 19 1 4 3 -2 6 -13 5 -11 0 -14 -3 -6 -6z"/>
<path d="M7208 2863 c17 -2 47 -2 65 0 17 2 3 4 -33 4 -36 0 -50 -2 -32 -4z"/>
<path d="M7465 2798 c-29 -16 -75 -60 -87 -83 -6 -11 9 -1 33 21 24 23 58 49
74 57 17 9 23 16 15 16 -8 0 -24 -5 -35 -11z"/>
<path d="M7674 2835 c0 -49 1 -71 3 -48 2 23 2 64 0 90 -2 26 -3 8 -3 -42z"/>
<path d="M7723 2345 c0 -27 2 -38 4 -22 2 15 2 37 0 50 -2 12 -4 0 -4 -28z"/>
<path d="M7538 2629 c-21 -11 -38 -22 -38 -24 0 -5 79 32 89 41 12 11 -18 1
-51 -17z"/>
<path d="M7621 2583 c-1 -6 -4 -20 -7 -30 -5 -17 -5 -17 6 0 6 10 9 23 6 30
-3 9 -5 9 -5 0z"/>
<path d="M6785 2810 c27 -12 43 -12 25 0 -8 5 -22 9 -30 9 -10 0 -8 -3 5 -9z"/>
<path d="M6850 2785 c14 -8 30 -14 35 -14 6 0 -1 6 -15 14 -14 8 -29 14 -35
14 -5 0 1 -6 15 -14z"/>
<path d="M7351 2504 c0 -11 3 -14 6 -6 3 7 2 16 -1 19 -3 4 -6 -2 -5 -13z"/>
<path d="M4840 2740 c-19 -11 -30 -19 -25 -19 6 0 26 8 45 19 19 11 31 19 25
19 -5 0 -26 -8 -45 -19z"/>
<path d="M4770 2705 c-14 -8 -20 -14 -14 -15 5 0 19 7 30 15 24 18 16 19 -16
0z"/>
<path d="M6618 2633 c12 -2 30 -2 40 0 9 3 -1 5 -23 4 -22 0 -30 -2 -17 -4z"/>
<path d="M6458 2623 c23 -2 59 -2 80 0 20 2 1 4 -43 4 -44 0 -61 -2 -37 -4z"/>
<path d="M6338 2563 c7 -3 16 -2 19 1 4 3 -2 6 -13 5 -11 0 -14 -3 -6 -6z"/>
<path d="M6398 2553 c6 -2 18 -2 25 0 6 3 1 5 -13 5 -14 0 -19 -2 -12 -5z"/>
<path d="M6465 2540 c17 -4 41 -8 55 -8 22 0 22 1 -5 8 -16 4 -41 8 -55 8 -22
0 -22 -1 5 -8z"/>
<path d="M6910 2540 c8 -5 20 -10 25 -10 6 0 3 5 -5 10 -8 5 -19 10 -25 10 -5
0 -3 -5 5 -10z"/>
<path d="M6558 2523 c7 -3 16 -2 19 1 4 3 -2 6 -13 5 -11 0 -14 -3 -6 -6z"/>
<path d="M6598 2513 c6 -2 18 -2 25 0 6 3 1 5 -13 5 -14 0 -19 -2 -12 -5z"/>
<path d="M6678 2493 c7 -3 16 -2 19 1 4 3 -2 6 -13 5 -11 0 -14 -3 -6 -6z"/>
<path d="M7138 2439 c-59 -30 -80 -48 -30 -26 43 19 108 57 97 56 -5 0 -36
-13 -67 -30z"/>
<path d="M7271 2404 c0 -11 3 -14 6 -6 3 7 2 16 -1 19 -3 4 -6 -2 -5 -13z"/>
<path d="M6885 2309 c-55 -28 -89 -47 -75 -43 36 10 169 74 176 85 7 12 13 15
-101 -42z"/>
<path d="M6750 2152 c8 -5 26 -13 40 -16 17 -5 20 -4 10 2 -8 5 -26 13 -40 16
-17 5 -20 4 -10 -2z"/>
<path d="M3300 2650 c8 -5 20 -10 25 -10 6 0 3 5 -5 10 -8 5 -19 10 -25 10 -5
0 -3 -5 5 -10z"/>
<path d="M5821 2404 c0 -11 3 -14 6 -6 3 7 2 16 -1 19 -3 4 -6 -2 -5 -13z"/>
<path d="M4253 2075 c0 -38 2 -53 4 -32 2 20 2 52 0 70 -2 17 -4 1 -4 -38z"/>
<path d="M3255 2423 c46 -25 135 -63 135 -58 0 5 -149 75 -159 75 -3 -1 8 -8
24 -17z"/>
<path d="M3460 2325 c36 -19 70 -34 75 -34 6 0 -19 15 -55 34 -36 19 -69 34
-75 34 -5 0 19 -15 55 -34z"/>
<path d="M3670 2165 c36 -19 70 -34 75 -34 6 0 -19 15 -55 34 -36 19 -69 34
-75 34 -5 0 19 -15 55 -34z"/>
<path d="M3837 2139 c7 -7 15 -10 18 -7 3 3 -2 9 -12 12 -14 6 -15 5 -6 -5z"/>
<path d="M7545 2410 c-3 -6 1 -7 9 -4 18 7 21 14 7 14 -6 0 -13 -4 -16 -10z"/>
<path d="M7438 2354 c-38 -20 -36 -28 2 -9 17 9 30 18 30 20 0 7 -1 6 -32 -11z"/>
<path d="M6820 2040 c-19 -11 -30 -19 -25 -19 6 0 26 8 45 19 19 11 31 19 25
19 -5 0 -26 -8 -45 -19z"/>
<path d="M6760 2010 c-9 -6 -10 -10 -3 -10 6 0 15 5 18 10 8 12 4 12 -15 0z"/>
<path d="M5941 2350 c0 -8 4 -22 9 -30 12 -18 12 -2 0 25 -6 13 -9 15 -9 5z"/>
<path d="M5976 2327 c3 -10 9 -15 12 -12 3 3 0 11 -7 18 -10 9 -11 8 -5 -6z"/>
<path d="M6593 1970 c0 -25 2 -35 4 -22 2 12 2 32 0 45 -2 12 -4 2 -4 -23z"/>
<path d="M3234 2055 c0 -82 2 -115 3 -72 2 43 2 110 0 150 -1 40 -3 5 -3 -78z"/>
<path d="M3242 1775 c0 -16 2 -22 5 -12 2 9 2 23 0 30 -3 6 -5 -1 -5 -18z"/>
<path d="M3274 1600 c0 -63 1 -89 3 -57 2 31 2 83 0 115 -2 31 -3 5 -3 -58z"/>
<path d="M6370 1996 c0 -3 9 -10 20 -16 11 -6 20 -8 20 -6 0 3 -9 10 -20 16
-11 6 -20 8 -20 6z"/>
<path d="M2694 2206 c11 -9 24 -16 30 -16 12 0 7 5 -24 19 -24 11 -24 11 -6
-3z"/>
<path d="M3120 2220 c-8 -5 -10 -10 -5 -10 6 0 17 5 25 10 8 5 11 10 5 10 -5
0 -17 -5 -25 -10z"/>
<path d="M7640 2150 c-19 -11 -31 -19 -27 -20 11 0 67 29 67 35 0 7 -1 7 -40
-15z"/>
<path d="M5873 2130 c0 -25 2 -35 4 -22 2 12 2 32 0 45 -2 12 -4 2 -4 -23z"/>
<path d="M3151 2094 c0 -11 3 -14 6 -6 3 7 2 16 -1 19 -3 4 -6 -2 -5 -13z"/>
<path d="M3162 2040 c0 -14 2 -19 5 -12 2 6 2 18 0 25 -3 6 -5 1 -5 -13z"/>
<path d="M2661 2094 c0 -11 3 -14 6 -6 3 7 2 16 -1 19 -3 4 -6 -2 -5 -13z"/>
<path d="M2642 2000 c0 -14 2 -19 5 -12 2 6 2 18 0 25 -3 6 -5 1 -5 -13z"/>
<path d="M2611 1844 c0 -11 3 -14 6 -6 3 7 2 16 -1 19 -3 4 -6 -2 -5 -13z"/>
<path d="M5477 1923 c-9 -25 -16 -48 -14 -50 2 -2 12 17 22 42 9 26 15 48 13
50 -2 2 -12 -17 -21 -42z"/>
<path d="M5299 1912 c-20 -15 -45 -33 -55 -40 -11 -7 0 -3 24 10 23 12 50 30
59 40 22 24 15 22 -28 -10z"/>
<path d="M5709 1853 c-13 -16 -12 -17 4 -4 16 13 21 21 13 21 -2 0 -10 -8 -17
-17z"/>
<path d="M5441 1829 c-6 -18 -9 -34 -7 -36 2 -2 9 10 15 28 6 18 9 34 7 36 -2
2 -9 -10 -15 -28z"/>
<path d="M5800 1840 c-8 -5 -10 -10 -5 -10 6 0 17 5 25 10 8 5 11 10 5 10 -5
0 -17 -5 -25 -10z"/>
<path d="M5760 1820 c-9 -6 -10 -10 -3 -10 6 0 15 5 18 10 8 12 4 12 -15 0z"/>
<path d="M4833 1725 c0 -22 2 -30 4 -17 2 12 2 30 0 40 -3 9 -5 -1 -4 -23z"/>
<path d="M5020 1720 c19 -11 40 -19 45 -19 6 0 -6 8 -25 19 -19 11 -39 19 -45
19 -5 0 6 -8 25 -19z"/>
<path d="M5469 1713 c-13 -16 -12 -17 4 -4 9 7 17 15 17 17 0 8 -8 3 -21 -13z"/>
<path d="M5115 1681 c22 -10 51 -21 65 -25 14 -3 7 2 -15 13 -22 10 -51 21
-65 25 -14 3 -7 -2 15 -13z"/>
<path d="M5230 1636 c0 -2 7 -7 16 -10 8 -3 12 -2 9 4 -6 10 -25 14 -25 6z"/>
<path d="M5382 1480 c0 -19 2 -27 5 -17 2 9 2 25 0 35 -3 9 -5 1 -5 -18z"/>
<path d="M2884 1860 c0 -85 2 -120 3 -77 2 42 2 112 0 155 -1 42 -3 7 -3 -78z"/>
<path d="M7720 1900 c-9 -6 -10 -10 -3 -10 6 0 15 5 18 10 8 12 4 12 -15 0z"/>
<path d="M7170 1980 c8 -5 20 -10 25 -10 6 0 3 5 -5 10 -8 5 -19 10 -25 10 -5
0 -3 -5 5 -10z"/>
<path d="M7590 1920 c0 -11 5 -20 10 -20 6 0 10 9 10 20 0 11 -4 20 -10 20 -5
0 -10 -9 -10 -20z"/>
<path d="M3924 1720 c0 -80 2 -112 3 -72 2 39 2 105 0 145 -1 39 -3 7 -3 -73z"/>
<path d="M4724 1545 c0 -49 1 -71 3 -48 2 23 2 64 0 90 -2 26 -3 8 -3 -42z"/>
<path d="M7150 1842 c0 -39 30 -64 72 -60 25 2 34 8 36 26 4 24 -7 29 -25 11
-16 -16 -53 6 -53 31 0 11 -7 20 -15 20 -10 0 -15 -10 -15 -28z m44 -41 c-2
-3 -12 3 -22 13 -16 17 -16 18 5 5 12 -7 20 -15 17 -18z m51 0 c-3 -6 -14 -10
-23 -10 -15 1 -15 2 1 6 9 2 17 9 17 15 0 6 3 9 6 5 3 -3 3 -10 -1 -16z"/>
<path d="M7174 1716 c11 -9 24 -16 30 -16 12 0 7 5 -24 19 -24 11 -24 11 -6
-3z"/>
<path d="M6594 1650 c0 -63 1 -89 3 -57 2 31 2 83 0 115 -2 31 -3 5 -3 -58z"/>
<path d="M5670 1615 c-25 -13 -40 -24 -35 -24 6 0 30 11 55 24 25 13 41 24 35
24 -5 0 -30 -11 -55 -24z"/>
<path d="M5584 1574 c-18 -14 -18 -14 6 -3 31 14 36 19 24 19 -6 0 -19 -7 -30
-16z"/>
<path d="M4900 1550 c8 -5 20 -10 25 -10 6 0 3 5 -5 10 -8 5 -19 10 -25 10 -5
0 -3 -5 5 -10z"/>
<path d="M5520 1260 c8 -5 20 -10 25 -10 6 0 3 5 -5 10 -8 5 -19 10 -25 10 -5
0 -3 -5 5 -10z"/>
<path d="M5590 1230 c8 -5 20 -10 25 -10 6 0 3 5 -5 10 -8 5 -19 10 -25 10 -5
0 -3 -5 5 -10z"/>
<path d="M5690 1186 c0 -2 7 -7 16 -10 8 -3 12 -2 9 4 -6 10 -25 14 -25 6z"/>
<path d="M4783 1440 c0 -30 2 -43 4 -27 2 15 2 39 0 55 -2 15 -4 2 -4 -28z"/>
<path d="M5814 1135 c0 -110 2 -156 3 -103 2 53 2 143 0 200 -1 57 -3 13 -3
-97z"/>
<path d="M5874 1280 c0 -69 1 -97 3 -62 2 34 2 90 0 125 -2 34 -3 6 -3 -63z"/>
<path d="M5680 1410 c19 -11 40 -19 45 -19 6 0 -6 8 -25 19 -19 11 -39 19 -45
19 -5 0 6 -8 25 -19z"/>
<path d="M6450 1430 c-19 -11 -30 -19 -25 -19 6 0 26 8 45 19 19 11 31 19 25
19 -5 0 -26 -8 -45 -19z"/>
<path d="M6384 1394 c-18 -14 -18 -15 4 -4 12 6 22 13 22 15 0 8 -5 6 -26 -11z"/>
<path d="M6115 1260 c-3 -6 1 -7 9 -4 18 7 21 14 7 14 -6 0 -13 -4 -16 -10z"/>
<path d="M6531 1274 c0 -11 3 -14 6 -6 3 7 2 16 -1 19 -3 4 -6 -2 -5 -13z"/>
</g>
</svg>
