<?xml version="1.0" standalone="no"?>
<!DOCTYPE svg PUBLIC "-//W3C//DTD SVG 20010904//EN"
 "http://www.w3.org/TR/2001/REC-SVG-20010904/DTD/svg10.dtd">
<svg version="1.0" xmlns="http://www.w3.org/2000/svg"
 width="1024.000000pt" height="559.000000pt" viewBox="0 0 1024.000000 559.000000"
 preserveAspectRatio="xMidYMid meet">
<metadata>
Created by potrace 1.16, written by Peter Selinger 2001-2019
</metadata>
<g transform="translate(0.000000,559.000000) scale(0.100000,-0.100000)"
fill="#000000" stroke="none">
<path d="M5167 4599 c-4 -133 -3 -316 3 -445 8 -149 8 -283 1 -419 -10 -205
-3 -735 9 -735 13 0 17 216 15 755 -3 722 -6 950 -14 1015 -4 38 -9 -13 -14
-171z"/>
<path d="M6820 4574 c-91 -7 -291 -25 -445 -39 -386 -36 -461 -43 -605 -55
-122 -10 -262 -26 -327 -36 l-33 -5 0 -89 c0 -75 3 -91 18 -98 10 -6 95 -6
212 -1 331 14 913 30 918 24 3 -2 0 -37 -7 -77 -8 -52 -8 -104 -1 -178 5 -58
9 -140 10 -182 l0 -78 -43 0 c-49 0 -70 -16 -88 -68 -12 -36 1 -91 28 -114 9
-7 48 -16 87 -19 39 -4 96 -10 128 -14 52 -7 58 -6 82 18 22 22 26 35 26 80 0
75 -25 107 -85 107 l-44 0 -7 57 c-4 34 0 118 10 212 9 86 16 181 16 212 l0
56 128 6 c70 4 165 7 213 7 53 0 90 5 97 12 8 8 12 54 12 139 0 123 -1 127
-22 133 -31 8 -84 6 -278 -10z m232 -130 l3 -111 -110 -7 c-60 -3 -147 -6
-192 -6 l-83 0 0 33 c0 48 -18 104 -36 111 -9 4 -32 1 -51 -6 -27 -10 -38 -10
-53 0 -29 18 -48 15 -61 -9 -8 -16 -8 -28 0 -45 9 -20 18 -24 51 -24 39 0 40
-1 40 -34 l0 -33 -97 -7 c-82 -5 -918 -35 -1005 -36 l-28 0 0 78 0 78 148 13
c81 7 194 17 252 21 58 5 179 16 270 25 175 16 405 36 715 60 105 9 197 17
205 18 8 2 18 1 22 -2 4 -3 8 -56 10 -117z m48 0 c0 -95 -3 -114 -15 -114 -12
0 -15 20 -15 120 0 102 2 119 15 114 12 -5 15 -28 15 -120z m-590 -19 c0 -14
-4 -25 -10 -25 -5 0 -10 11 -10 25 0 14 5 25 10 25 6 0 10 -11 10 -25z m135
-97 c2 -51 1 -75 -1 -53 -7 56 -21 136 -30 160 -6 19 -6 19 11 3 14 -13 18
-36 20 -110z m-59 92 c8 0 14 -4 14 -10 0 -12 -57 -13 -64 -1 -8 12 6 22 22
16 7 -3 20 -5 28 -5z m1 -87 c-3 -10 -5 -4 -5 12 0 17 2 24 5 18 2 -7 2 -21 0
-30z m20 -10 c-3 -10 -5 -2 -5 17 0 19 2 27 5 18 2 -10 2 -26 0 -35z m13 -53
c0 -5 -4 -10 -10 -10 -5 0 -10 5 -10 10 0 6 5 10 10 10 6 0 10 -4 10 -10z m10
-59 c14 -27 13 -74 -6 -218 -12 -91 -13 -138 -6 -185 5 -35 9 -64 8 -65 0 0
-10 -3 -20 -5 -18 -3 -20 4 -21 97 0 55 -5 154 -9 220 -9 126 0 175 28 175 9
0 20 -9 26 -19z m-75 -487 c27 -12 46 -14 92 -7 74 11 88 8 102 -23 16 -35 14
-76 -5 -103 -15 -21 -21 -23 -73 -16 -31 3 -87 9 -126 13 -61 6 -71 10 -82 32
-18 36 -16 64 8 94 24 30 38 32 84 10z"/>
<path d="M6795 4484 c-18 -18 -20 -55 -3 -72 7 -7 42 -12 85 -12 70 0 73 1 73
24 0 24 -16 36 -48 36 -10 0 -34 9 -54 20 -33 18 -39 18 -53 4z m33 -36 c-2
-13 -7 -23 -13 -23 -5 0 -11 10 -13 23 -2 15 2 22 13 22 11 0 15 -7 13 -22z
m85 -8 c9 0 17 -5 17 -11 0 -15 -73 -6 -78 10 -4 10 1 12 19 8 13 -4 32 -7 42
-7z"/>
<path d="M6184 4423 c-12 -44 5 -57 80 -60 51 -2 68 1 73 13 7 20 -15 44 -41
44 -11 0 -34 7 -50 15 -40 21 -55 19 -62 -12z m38 -25 c-15 -15 -26 -4 -18 18
5 13 9 15 18 6 9 -9 9 -15 0 -24z m97 -4 c2 -2 2 -6 -1 -9 -8 -8 -68 6 -68 16
0 8 59 1 69 -7z"/>
<path d="M5924 4405 c-11 -43 10 -56 85 -53 58 3 66 5 66 23 0 15 -10 21 -45
28 -25 5 -49 13 -54 18 -19 18 -46 9 -52 -16z m36 -17 c0 -16 -3 -19 -11 -11
-6 6 -8 16 -5 22 11 17 16 13 16 -11z m85 -8 c16 -7 13 -9 -17 -9 -20 -1 -40
4 -43 9 -7 12 32 12 60 0z"/>
<path d="M5692 4408 c-16 -16 -15 -53 1 -64 10 -8 59 -10 115 -5 18 1 15 38
-4 45 -9 3 -26 6 -39 6 -12 0 -28 7 -35 15 -15 18 -22 19 -38 3z m28 -33 c0
-8 -4 -15 -10 -15 -5 0 -10 7 -10 15 0 8 5 15 10 15 6 0 10 -7 10 -15z m80
-15 c0 -6 -11 -8 -27 -4 -40 10 -41 14 -5 14 18 0 32 -5 32 -10z"/>
<path d="M5472 4388 c-16 -16 -15 -43 1 -55 6 -5 37 -9 67 -9 48 1 55 4 55 21
0 14 -10 21 -40 27 -22 5 -44 13 -49 18 -13 13 -19 13 -34 -2z m28 -27 c0 -6
-4 -13 -10 -16 -5 -3 -10 1 -10 9 0 9 5 16 10 16 6 0 10 -4 10 -9z m80 -17 c0
-2 -13 -4 -30 -4 -16 0 -30 4 -30 8 0 5 14 7 30 4 17 -2 30 -6 30 -8z"/>
<path d="M6660 3691 c-14 -27 -13 -74 3 -94 10 -15 12 -7 12 48 0 36 -1 65 -2
65 -1 0 -7 -9 -13 -19z"/>
<path d="M3203 4439 c-36 -11 -35 -7 -33 -119 1 -45 6 -78 13 -82 7 -4 38 -8
70 -8 32 0 57 -4 57 -10 0 -6 -11 -70 -24 -143 -14 -73 -34 -204 -46 -292 -11
-88 -28 -203 -37 -256 -19 -112 -11 -139 50 -178 35 -23 37 -27 37 -77 0 -60
8 -69 62 -65 26 2 46 -4 64 -18 15 -12 39 -21 55 -21 45 0 53 27 45 155 l-6
111 30 22 c58 43 62 59 46 153 -51 292 -97 539 -106 569 -5 19 -10 38 -10 42
0 5 56 8 125 8 104 0 125 -3 125 -15 0 -8 -5 -45 -10 -82 -60 -397 -59 -374
-25 -419 23 -30 25 -40 23 -122 l-3 -90 53 -50 c28 -28 52 -57 52 -65 0 -8 9
-22 20 -32 19 -17 21 -17 42 1 54 47 67 69 68 111 0 33 8 53 35 89 25 32 35
56 35 80 0 52 -45 356 -76 511 -8 40 -14 75 -14 78 0 3 168 5 374 5 l373 0 12
-100 c17 -156 15 -184 -15 -217 -36 -38 -44 -64 -44 -134 0 -116 49 -170 133
-145 50 14 79 53 87 114 9 72 -5 123 -43 155 l-32 28 0 149 0 149 60 3 60 3 3
97 3 96 -93 6 c-178 11 -1562 16 -1595 5z m1285 -25 l382 -6 0 -74 0 -74 -55
0 c-48 0 -55 3 -55 19 0 13 8 21 23 23 16 2 23 11 25 31 4 32 -21 46 -50 28
-15 -10 -23 -10 -34 0 -22 18 -44 -8 -51 -60 l-6 -41 -378 0 -378 0 -15 54
c-18 63 -38 86 -70 86 -39 0 -73 -36 -87 -90 -12 -48 -14 -50 -48 -50 -20 0
-79 -3 -132 -6 l-97 -7 -7 44 c-11 66 -31 99 -60 99 -29 0 -49 -27 -65 -87
l-11 -43 -49 0 -50 0 0 86 0 86 443 -6 c243 -3 614 -9 825 -12z m-1288 -81 c0
-42 -2 -74 -4 -72 -9 10 -14 149 -5 149 5 0 9 -34 9 -77z m233 -63 c107 -536
138 -710 135 -737 -2 -14 -17 -36 -34 -49 l-30 -23 -20 172 c-16 147 -19 163
-22 107 -3 -55 10 -226 34 -471 4 -43 2 -58 -10 -68 -14 -12 -22 -9 -55 14
-30 20 -49 26 -78 23 l-38 -3 3 100 c1 55 5 123 8 150 7 80 34 566 33 610 l-1
40 -9 -35 c-9 -40 -37 -401 -46 -602 -3 -76 -8 -138 -10 -138 -18 0 -65 35
-72 53 -5 13 1 75 14 157 12 74 30 194 40 265 9 72 26 175 36 230 11 55 26
135 34 178 16 92 40 137 60 116 7 -8 20 -48 28 -89z m428 73 c26 -68 80 -359
110 -590 13 -92 12 -93 -12 -119 l-24 -26 -12 69 c-11 64 -12 60 -9 -89 2
-140 1 -160 -15 -174 -16 -14 -18 -13 -29 21 -7 20 -34 57 -61 82 -26 26 -50
56 -52 67 -3 14 -5 10 -6 -11 -1 -26 6 -38 35 -60 41 -32 91 -120 76 -135 -6
-6 -17 3 -30 24 -11 18 -39 51 -61 73 -50 48 -49 26 -16 410 25 294 40 435 51
467 9 28 43 22 55 -9z m-90 -75 c-10 -69 -18 -151 -41 -427 -5 -62 -11 -116
-14 -118 -2 -3 -12 6 -20 20 -14 20 -15 35 -6 93 5 38 22 152 36 254 26 191
41 266 51 256 3 -3 1 -38 -6 -78z m1019 67 c0 -8 -4 -15 -10 -15 -5 0 -10 7
-10 15 0 8 5 15 10 15 6 0 10 -7 10 -15z m-50 -15 c-20 -13 -33 -13 -25 0 3 6
14 10 23 10 15 0 15 -2 2 -10z m-2 -43 c2 -12 -3 -17 -17 -17 -14 0 -21 6 -21
19 0 24 34 22 38 -2z m2 -57 c0 -5 -4 -10 -9 -10 -5 0 -16 -3 -25 -6 -11 -4
-16 -1 -16 10 0 10 9 16 25 16 14 0 25 -4 25 -10z m5 -180 l0 -130 -28 -11
c-39 -16 -50 -43 -49 -117 1 -45 7 -74 21 -98 23 -39 12 -46 -17 -9 -42 53
-35 170 15 229 25 30 26 33 20 147 -4 81 -2 120 6 128 23 23 31 -11 32 -139z
m54 -172 c8 -13 16 -50 17 -84 3 -79 -21 -125 -64 -121 -32 4 -52 14 -52 28 0
5 8 9 18 10 13 0 11 3 -6 10 -14 5 -22 16 -20 26 1 10 -1 23 -5 30 -11 18 9
96 29 110 28 20 67 16 83 -9z m-817 -265 c-6 -10 -20 -27 -31 -37 -19 -17 -21
-18 -21 -2 0 9 12 28 28 41 30 26 38 26 24 -2z"/>
<path d="M4149 4374 c-7 -9 -24 -20 -37 -25 -39 -15 -24 -44 23 -45 48 -1 65
10 65 42 0 31 -33 49 -51 28z m31 -29 c0 -8 -4 -15 -10 -15 -5 0 -10 7 -10 15
0 8 5 15 10 15 6 0 10 -7 10 -15z"/>
<path d="M4430 4359 c-49 -27 -47 -54 5 -55 57 -2 67 4 63 40 -4 38 -21 42
-68 15z m50 -14 c0 -8 -4 -15 -10 -15 -5 0 -10 7 -10 15 0 8 5 15 10 15 6 0
10 -7 10 -15z m-43 -21 c-3 -3 -12 -4 -19 -1 -8 3 -5 6 6 6 11 1 17 -2 13 -5z"/>
<path d="M3776 3853 c-16 -183 -16 -191 -6 -153 10 40 25 230 18 230 -3 0 -8
-35 -12 -77z"/>
<path d="M4710 3840 c0 -5 7 -7 15 -4 8 4 15 8 15 10 0 2 -7 4 -15 4 -8 0 -15
-4 -15 -10z"/>
<path d="M4757 3723 c-4 -3 -7 -11 -7 -17 0 -6 5 -5 12 2 6 6 9 14 7 17 -3 3
-9 2 -12 -2z"/>
<path d="M7074 4066 c-3 -9 -14 -16 -23 -16 -39 0 -56 -57 -26 -90 16 -18 10
-57 -75 -460 -22 -107 -45 -217 -50 -244 -6 -26 -20 -83 -31 -126 -25 -91 -21
-115 24 -164 32 -34 33 -37 26 -88 -4 -29 -8 -66 -8 -81 -1 -38 39 -77 79 -77
45 0 72 -17 65 -40 -10 -30 11 -57 59 -75 42 -16 48 -16 96 0 81 27 85 39 71
212 -12 138 -11 147 6 157 29 16 73 67 73 85 0 9 -11 75 -25 146 -23 121 -52
314 -90 600 -19 142 -41 229 -64 248 -9 8 -35 18 -58 22 -34 5 -44 4 -49 -9z
m75 -96 c16 -51 20 -56 16 -25 -3 22 -8 54 -11 70 -5 27 -4 28 10 15 20 -20
43 -129 66 -325 30 -242 42 -322 85 -549 18 -95 14 -119 -25 -144 -25 -15 -24
-20 -45 218 -9 102 -21 203 -25 225 l-8 40 -1 -38 c-1 -46 34 -528 49 -677
l11 -105 -27 -21 c-35 -28 -97 -38 -132 -22 -50 25 -51 59 -11 643 6 83 11
276 12 430 2 243 0 284 -14 312 -12 23 -14 33 -5 36 19 7 33 -15 55 -83z m-89
29 c0 -24 -23 -21 -28 4 -2 10 3 17 12 17 10 0 16 -9 16 -21z m26 -386 c-3
-186 -10 -392 -15 -459 -6 -66 -11 -187 -12 -268 l-1 -147 -47 7 c-82 11 -80
-9 -32 376 44 360 57 496 48 488 -12 -11 -68 -380 -82 -546 -9 -94 -17 -107
-45 -63 -24 38 -23 55 8 174 24 92 124 582 142 698 9 54 17 77 27 77 12 0 13
-50 9 -337z"/>
<path d="M7071 3785 c-1 -11 -4 -31 -6 -45 l-6 -25 11 25 c6 13 9 33 7 45 -4
19 -4 19 -6 0z"/>
<path d="M5628 3301 c-10 -14 -32 -20 -85 -26 -84 -8 -119 -34 -128 -94 -3
-20 -12 -61 -20 -91 -8 -30 -16 -64 -17 -75 -4 -24 -40 -27 -533 -45 -668 -25
-659 -24 -694 -49 -17 -12 -34 -33 -37 -46 -3 -13 -14 -25 -24 -28 -12 -3 -20
-16 -22 -38 l-3 -34 -66 -3 c-63 -3 -67 -2 -73 21 -4 18 -15 26 -40 31 -67 13
-70 7 -62 -123 4 -64 9 -133 12 -153 5 -33 4 -38 -14 -38 -11 0 -44 20 -73 45
l-53 45 -90 0 c-114 -1 -336 -16 -344 -25 -3 -3 -9 -27 -12 -53 l-5 -47 -65
-2 c-131 -5 -422 -25 -436 -30 -8 -3 -14 -9 -14 -15 0 -5 39 -7 98 -3 440 26
435 25 454 8 16 -14 18 -34 18 -155 l0 -138 -49 0 c-49 0 -49 0 -80 55 -17 30
-33 55 -36 55 -6 0 9 -40 31 -81 8 -17 13 -33 11 -35 -3 -3 -68 -8 -146 -11
-78 -3 -144 -11 -148 -16 -4 -7 49 -7 153 -3 l159 7 38 -77 c28 -56 35 -79 26
-84 -6 -5 -70 -11 -140 -15 -71 -4 -129 -11 -129 -17 0 -8 226 -3 276 7 18 4
29 -15 89 -143 37 -81 119 -248 181 -372 62 -124 110 -228 106 -231 -4 -4 -77
-12 -162 -19 -180 -14 -244 -34 -80 -25 58 3 142 8 186 11 l82 7 35 -64 c19
-35 54 -100 77 -144 23 -44 48 -87 56 -95 31 -32 12 17 -61 157 -41 78 -75
145 -75 147 0 2 46 7 103 11 56 3 176 13 266 21 119 10 167 11 177 3 7 -6 50
-67 95 -135 45 -68 86 -124 91 -124 11 0 -8 32 -98 170 l-62 95 36 6 c21 4 96
12 167 18 245 21 390 39 382 47 -5 5 -522 -33 -572 -42 -28 -5 -34 0 -78 60
-26 37 -47 71 -47 76 0 15 45 30 90 30 31 0 39 -4 44 -22 11 -43 54 -63 126
-60 109 4 103 -3 98 128 -2 63 -2 114 1 114 3 0 17 -16 29 -34 13 -19 65 -72
115 -118 l91 -83 67 0 67 0 117 -135 c137 -157 143 -142 -65 -160 -285 -23
-432 -39 -438 -46 -8 -8 167 1 383 21 88 8 183 17 211 19 l51 4 107 -124 c60
-68 112 -124 117 -124 17 0 -10 38 -101 142 -49 57 -87 104 -86 106 3 2 115
11 441 32 88 6 177 13 197 16 35 5 41 2 132 -85 89 -86 122 -109 110 -77 -3 7
-41 46 -85 86 -57 52 -77 75 -67 80 7 4 67 13 133 19 243 22 398 40 404 47 8
9 -187 -4 -399 -26 -96 -10 -180 -15 -186 -12 -7 4 -73 64 -149 135 -76 70
-143 127 -149 126 -6 0 51 -60 128 -134 l139 -134 -34 -5 c-19 -3 -113 -10
-209 -16 -96 -6 -233 -15 -305 -20 -71 -5 -133 -6 -136 -2 -62 73 -210 240
-222 251 -28 23 -19 31 34 31 28 0 122 7 208 15 86 8 269 24 406 35 138 11
264 23 281 26 30 5 30 5 45 -58 14 -61 15 -64 64 -88 59 -29 175 -39 239 -20
68 20 94 45 102 96 4 31 11 44 19 40 7 -2 87 -60 178 -128 343 -257 427 -317
427 -308 0 17 -62 67 -219 180 -282 202 -390 285 -390 301 -1 29 29 31 61 4
17 -14 48 -35 68 -45 21 -11 64 -42 96 -70 93 -81 102 -82 394 -35 52 8 131
20 175 26 44 6 87 17 97 26 9 8 23 12 30 8 34 -18 168 -111 168 -116 0 -3 -33
-9 -72 -12 -265 -23 -560 -55 -566 -62 -8 -8 169 0 308 15 238 25 306 33 330
40 19 6 33 3 51 -11 26 -20 59 -25 59 -9 0 6 -66 54 -147 108 l-148 97 -3 65
c-1 35 -8 73 -15 85 -8 11 -12 38 -9 60 2 22 3 51 3 65 -1 14 -1 59 -1 102 1
65 -2 80 -22 102 -21 23 -254 146 -278 146 -6 0 -10 66 -10 180 0 209 -7 235
-69 275 -44 27 -223 101 -440 181 l-133 49 6 84 c4 67 9 88 26 103 11 10 20
27 20 36 0 31 22 42 80 42 44 0 61 -4 75 -20 24 -27 70 -26 89 2 10 13 16 43
16 73 0 100 -72 152 -121 86 -19 -25 -28 -29 -97 -35 -41 -3 -86 -13 -99 -21
-33 -22 -56 -73 -59 -130 -4 -82 -30 -180 -45 -177 -47 11 -329 127 -329 136
0 33 22 141 30 146 5 3 13 17 19 32 9 23 18 27 66 33 50 7 59 5 76 -14 49 -53
105 -7 97 79 -8 83 -64 118 -105 67 -15 -19 -32 -25 -86 -31 -37 -3 -78 -12
-92 -18 -29 -13 -67 -86 -63 -120 2 -19 -28 -135 -38 -146 -1 -2 -60 17 -129
44 -114 42 -126 49 -121 68 3 12 6 35 6 53 0 17 7 38 15 47 8 8 19 26 25 40 9
24 14 26 69 26 43 0 60 -4 65 -15 8 -23 53 -18 70 7 9 12 16 41 16 63 0 22 -7
51 -16 63 -19 28 -68 30 -86 3z m62 -16 c17 -20 16 -95 -1 -105 -22 -14 -32 1
-14 20 22 24 16 62 -12 76 -13 6 -20 14 -16 17 11 12 30 8 43 -8z m-25 -50 c0
-18 -8 -21 -75 -25 -84 -6 -100 -12 -100 -41 0 -28 -44 -22 -48 7 -6 40 29 66
99 74 98 12 124 9 124 -15z m395 -40 c19 -23 18 -92 -2 -111 -9 -9 -21 -13
-27 -10 -6 4 -3 14 9 26 11 11 20 29 20 39 0 20 -25 51 -41 51 -5 0 -9 5 -9
10 0 15 36 12 50 -5z m-35 -55 c0 -24 -3 -25 -65 -28 -95 -3 -110 -9 -122 -42
-11 -33 -16 -36 -42 -17 -13 10 -15 18 -8 37 17 44 45 60 123 69 104 12 114
11 114 -19z m-569 -37 c-9 -43 -26 -284 -21 -318 2 -16 4 -50 5 -75 1 -25 4
-37 7 -27 2 9 6 17 9 17 2 0 55 -26 118 -57 97 -48 116 -61 118 -83 2 -14 7 4
12 40 47 388 58 436 91 423 13 -4 15 -13 10 -37 -23 -111 -35 -476 -16 -476 5
0 11 7 13 15 2 11 18 8 75 -18 40 -18 73 -35 73 -38 0 -3 -96 -11 -212 -18
-117 -7 -269 -16 -337 -22 -213 -16 -179 -26 -426 129 l-220 137 160 7 c88 4
201 12 250 17 111 12 185 5 186 -18 2 -48 18 39 28 154 11 119 33 244 47 266
3 5 12 9 21 9 12 0 14 -7 9 -27z m1056 -20 c25 -23 26 -118 1 -131 -19 -10
-43 -5 -43 8 0 4 9 10 20 13 31 8 28 71 -5 93 -14 9 -22 20 -19 25 8 14 25 11
46 -8z m-27 -53 c11 -34 -3 -40 -86 -40 -72 0 -82 -3 -104 -25 -14 -13 -25
-32 -25 -41 0 -13 -6 -15 -27 -9 -37 9 -37 8 -23 50 16 49 50 68 134 75 122
12 124 12 131 -10z m-1115 -82 c-1 -35 -16 -39 -191 -45 -165 -6 -176 -5 -214
16 -36 19 -37 21 -15 22 14 1 86 5 160 8 229 12 260 12 260 -1z m298 -65 c38
-13 42 -18 42 -48 0 -19 -4 -37 -10 -40 -5 -3 -60 14 -122 38 l-113 44 -3 42
-3 41 83 -31 c46 -17 102 -37 126 -46z m-745 35 l42 -22 -243 -12 c-239 -11
-281 -19 -255 -45 6 -6 82 -55 170 -109 87 -54 185 -116 218 -136 33 -21 122
-76 199 -122 l138 -85 236 13 235 13 68 -34 c38 -18 69 -36 69 -39 0 -8 -263
-27 -485 -36 -192 -8 -227 -18 -245 -73 -14 -44 -15 -81 -8 -368 3 -117 5
-213 4 -213 -1 0 -18 15 -38 33 -20 17 -106 95 -192 172 l-156 139 0 78 c0 45
-4 78 -10 78 -6 0 -10 -28 -10 -65 0 -36 -2 -65 -5 -65 -3 0 -73 59 -155 131
l-150 132 0 126 c0 85 -3 121 -10 111 -5 -8 -10 -59 -10 -112 0 -54 -3 -98 -7
-98 -5 1 -43 34 -86 74 l-79 72 11 90 c6 49 10 132 10 184 -1 81 -4 97 -20
108 -21 15 -26 45 -6 40 6 -2 51 -30 99 -63 l87 -60 2 -75 3 -75 5 68 6 69 40
-27 c22 -15 92 -63 155 -106 l116 -79 -2 -75 c-1 -41 2 -75 7 -75 5 0 9 30 9
66 0 55 3 65 15 60 9 -3 80 -50 158 -104 167 -115 204 -138 213 -130 11 12 -5
25 -178 144 l-171 119 54 3 c30 2 59 8 64 14 7 7 -13 9 -68 5 l-77 -5 -157
106 -157 107 57 3 c33 2 57 8 57 14 0 7 -21 9 -66 4 l-67 -7 -95 63 c-59 39
-89 64 -79 66 22 4 521 29 620 31 63 1 86 -3 120 -21z m1319 -49 c-9 -33 -21
-211 -22 -295 l0 -91 -67 -6 c-124 -12 -144 -9 -248 38 l-100 45 -3 76 c-2 43
1 74 6 72 5 -1 82 -32 171 -67 l161 -65 0 -45 c0 -78 10 -38 30 125 25 197 35
237 58 232 9 -3 15 -11 14 -19z m-886 -35 c-3 -26 -6 -59 -6 -74 0 -27 -1 -27
-42 -19 -24 5 -85 4 -138 -1 -52 -5 -173 -15 -268 -20 l-173 -11 -104 63 c-57
35 -104 66 -105 69 0 3 159 11 353 18 193 7 354 15 356 17 2 2 33 4 69 4 l65
0 -7 -46z m226 -34 c59 -23 110 -46 113 -51 4 -5 3 -40 -1 -78 l-6 -70 -37 23
c-49 30 -170 86 -187 86 -11 0 -14 17 -14 71 0 53 3 70 13 66 6 -3 60 -24 119
-47z m-1450 -25 c-2 -27 -6 -52 -9 -55 -2 -3 -45 -7 -94 -8 -85 -4 -89 -3 -89
17 0 19 6 21 70 21 58 0 70 3 70 16 0 13 3 14 14 5 20 -16 45 14 26 32 -10 9
-13 9 -17 0 -8 -21 -21 -14 -16 8 4 14 12 19 27 17 19 -3 21 -8 18 -53z m1781
16 c48 -19 87 -37 87 -41 0 -4 -34 -11 -75 -16 -89 -12 -131 2 -121 39 3 12 6
30 6 40 0 10 3 17 8 15 4 -2 46 -18 95 -37z m-1756 -23 c-2 -13 -4 -5 -4 17
-1 22 1 32 4 23 2 -10 2 -28 0 -40z m-284 27 c14 -13 34 -131 25 -140 -2 -2
-13 -2 -25 1 -23 6 -33 39 -33 110 0 46 9 54 33 29z m45 -65 l0 -25 -8 25 c-4
14 -8 36 -8 50 l0 25 8 -25 c4 -14 8 -36 8 -50z m240 -65 c-2 -2 -15 -6 -31
-10 -23 -6 -27 -4 -27 14 0 14 9 25 25 31 14 5 26 15 27 22 0 7 3 -2 5 -20 3
-19 3 -35 1 -37z m1952 49 c37 -15 40 -19 40 -54 0 -22 -4 -41 -9 -44 -10 -7
-241 86 -241 96 0 4 26 9 58 11 31 2 69 4 84 5 15 1 46 -5 68 -14z m-2112 -47
c4 -21 -19 -31 -53 -23 -18 5 -25 13 -25 30 0 21 3 22 37 17 25 -4 39 -12 41
-24z m92 4 c0 -18 -25 -31 -62 -31 -13 0 -18 8 -18 25 0 23 4 25 40 25 33 0
40 -4 40 -19z m2295 -60 c369 -140 460 -180 436 -195 -13 -8 -43 -11 -820 -67
-136 -10 -167 -10 -185 1 -11 8 -43 26 -71 42 l-50 28 40 0 c139 2 633 40 663
51 22 8 23 12 11 23 -8 8 -49 28 -91 46 l-78 32 0 44 c0 24 3 44 8 44 4 0 66
-22 137 -49z m-2360 13 c44 3 93 9 109 12 43 10 24 -13 -22 -26 -80 -22 -262
-5 -262 25 0 10 10 10 48 -2 33 -10 71 -13 127 -9z m-119 -37 c1 -1 4 -21 8
-44 6 -38 4 -43 -13 -43 -24 0 -32 12 -41 63 -7 38 -7 38 19 32 14 -4 26 -7
27 -8z m244 -11 c0 -43 -18 -76 -41 -76 -19 0 -21 4 -15 31 3 17 6 37 6 45 0
11 14 18 43 23 4 0 7 -10 7 -23z m-150 -42 c0 -43 0 -44 -34 -44 -33 0 -34 1
-38 46 -2 25 -2 46 -1 48 1 1 18 0 38 -2 34 -4 35 -5 35 -48z m-252 -16 c37
-35 112 -103 167 -153 55 -49 134 -121 175 -160 41 -38 162 -145 267 -236
l191 -167 -45 -6 c-97 -13 -116 -9 -158 35 -46 47 -78 68 -69 45 3 -8 26 -31
52 -52 l46 -39 -55 -7 c-30 -3 -77 -6 -105 -7 l-51 -1 -108 120 c-59 66 -110
120 -112 120 -3 0 1 -8 8 -17 48 -62 109 -135 148 -175 25 -26 43 -49 40 -52
-2 -2 -40 -5 -85 -7 l-80 -4 -80 94 c-43 52 -140 165 -214 250 -74 86 -183
215 -241 286 -58 72 -113 136 -122 144 -29 23 -19 31 40 31 57 0 58 0 127 -67
49 -48 60 -56 39 -28 -17 22 -43 51 -58 65 l-27 25 24 6 c13 4 41 7 63 8 35 1
46 -5 104 -61 l65 -63 -43 52 c-24 29 -48 56 -54 60 -7 4 -2 10 13 14 55 15
70 9 138 -53z m330 20 c-3 -40 -5 -43 -35 -46 -33 -3 -33 -3 -33 42 0 46 0 46
36 46 l35 0 -3 -42z m-637 -198 c121 -150 253 -306 445 -525 63 -72 71 -84 66
-113 -4 -27 -7 -30 -19 -20 -8 6 -93 109 -188 227 -248 309 -363 450 -417 513
-33 38 -48 64 -48 84 0 35 -9 45 161 -166z m2864 170 l40 -19 -37 0 c-20 -1
-43 -4 -52 -7 -12 -5 -16 0 -16 20 0 30 10 31 65 6z m-2300 -40 c39 0 85 4
103 9 36 11 44 -2 11 -19 -55 -30 -235 -17 -246 17 -3 9 4 10 29 2 18 -5 64
-9 103 -9z m-84 -40 c5 0 9 -7 9 -15 0 -21 -14 -19 -36 7 -18 20 -18 21 -1 15
10 -4 23 -7 28 -7z m209 -5 c0 -8 -2 -15 -4 -15 -2 0 -11 -3 -20 -6 -10 -4
-16 -1 -16 9 0 14 13 24 33 26 4 1 7 -6 7 -14z m-139 -5 c5 0 9 -8 9 -18 0
-15 -6 -18 -30 -14 -16 2 -30 10 -30 16 0 18 12 27 28 21 7 -3 18 -5 23 -5z
m79 -10 c0 -16 -7 -20 -30 -20 -19 0 -30 5 -30 14 0 13 9 17 53 25 4 0 7 -8 7
-19z m278 -171 c3 -6 -38 -12 -163 -24 l-60 -5 -80 75 -80 75 45 0 c54 1 120
23 132 44 7 13 27 0 106 -71 53 -48 98 -90 100 -94z m2506 145 c3 -9 6 -94 6
-190 0 -161 -1 -174 -18 -174 -10 0 -45 -7 -77 -16 -33 -9 -111 -18 -174 -20
-126 -4 -165 -18 -189 -68 -12 -23 -11 -31 1 -49 13 -19 12 -24 -5 -48 -19
-25 -19 -28 -4 -58 18 -33 15 -36 -29 -43 -17 -3 -19 3 -20 51 0 38 -5 57 -16
64 -21 14 -86 0 -109 -23 -16 -16 -29 -18 -97 -13 -82 6 -93 12 -93 54 0 41
-31 62 -78 54 -58 -9 -76 -33 -70 -93 4 -37 0 -54 -14 -71 -11 -15 -16 -32
-12 -46 3 -13 1 -26 -5 -29 -8 -5 -11 19 -11 75 0 99 -9 98 -18 -3 l-7 -73
-115 -11 c-326 -32 -580 -48 -591 -37 -6 6 -13 96 -16 234 -7 303 -6 344 9
376 17 35 40 39 238 47 85 3 224 10 308 17 84 6 159 8 167 5 12 -4 15 -26 15
-98 1 -72 3 -89 11 -74 7 11 10 52 7 101 l-4 82 110 7 c61 3 197 13 301 21
105 9 273 22 374 29 101 8 188 19 194 25 15 15 24 14 31 -5z m-3504 -93 c0
-99 -11 -196 -21 -179 -11 19 1 259 13 252 4 -3 8 -36 8 -73z m141 -158 c-12
-8 -26 -26 -31 -39 -8 -20 -16 -24 -50 -24 l-40 0 0 131 0 132 71 -92 c71 -92
71 -93 50 -108z m1027 -39 c73 -64 132 -120 132 -125 0 -5 -31 -9 -69 -9 -37
0 -88 -2 -112 -5 l-44 -6 -134 118 c-74 64 -129 119 -124 120 18 6 135 20 178
22 38 1 49 -6 173 -115z m-1218 13 c0 -24 50 -67 79 -67 60 0 92 12 102 39 11
27 26 41 45 41 13 0 129 -138 122 -145 -3 -4 -288 -25 -335 -25 -10 0 -93 147
-93 165 0 3 18 5 40 5 26 0 40 -5 40 -13z m3720 -184 c127 -65 164 -92 146
-110 -4 -4 -87 -8 -185 -8 -152 0 -181 -2 -204 -18 -15 -9 -27 -24 -27 -32 0
-26 40 -26 128 -1 63 18 117 26 195 28 140 4 135 -13 -9 -29 -60 -7 -157 -21
-215 -33 -120 -23 -135 -21 -202 34 -45 37 -126 80 -169 91 -40 10 -62 39 -49
63 16 30 56 40 176 46 61 2 130 11 155 19 86 29 115 23 260 -50z m-3294 -35
c28 -35 71 -90 97 -124 l47 -60 0 -87 0 -87 -57 -1 c-32 0 -67 -5 -78 -10 -14
-6 3 -8 55 -6 l75 2 5 -97 c4 -78 9 -102 26 -125 20 -26 26 -28 85 -26 86 2
129 11 129 27 0 6 6 20 14 31 12 17 16 14 55 -39 24 -32 41 -59 39 -62 -4 -4
-78 -10 -387 -35 -133 -10 -146 -10 -157 6 -22 30 -163 311 -263 524 l-98 209
131 9 c72 6 154 11 182 11 l51 2 49 -62z m1054 -25 c52 -47 145 -131 205 -186
l110 -100 125 7 c69 4 177 11 240 16 114 9 115 9 153 -17 20 -14 37 -29 37
-33 0 -4 -39 -11 -87 -14 -49 -4 -137 -11 -198 -16 -291 -26 -475 -40 -529
-40 -54 0 -63 3 -93 32 -18 18 -33 35 -33 39 0 4 43 10 95 14 54 4 95 12 95
18 0 13 -150 3 -178 -12 -18 -10 -27 -4 -74 45 -52 56 -53 57 -54 121 l-1 66
-64 58 c-35 32 -67 58 -71 59 -5 0 -8 4 -8 10 0 5 46 11 103 13 56 1 109 4
117 5 8 1 58 -37 110 -85z m1230 -38 l11 -55 85 0 c93 0 103 -6 84 -55 l-11
-28 -97 6 c-143 8 -144 8 -148 97 -2 40 -1 77 2 82 3 4 18 8 34 8 27 0 29 -4
40 -55z m-99 -82 c-12 -27 6 -49 47 -60 32 -9 238 -10 246 -2 3 3 10 28 15 54
9 49 31 76 60 74 9 0 4 -5 -11 -10 -22 -9 -28 -18 -34 -57 -12 -82 -11 -82
-128 -82 -145 0 -254 36 -218 72 7 7 13 41 13 78 l1 65 10 -55 c5 -35 5 -63
-1 -77z m612 53 c29 -13 81 -44 116 -70 76 -55 86 -56 277 -21 139 26 254 33
254 15 0 -13 -28 -18 -135 -24 -70 -3 -112 -12 -189 -40 -135 -49 -143 -48
-218 23 -90 85 -133 115 -68 47 l55 -57 -60 26 c-130 56 -155 75 -142 109 9
23 47 20 110 -8z m-205 -88 c-3 -46 -7 -86 -7 -89 -1 -7 -48 -29 -63 -29 -7 0
-8 25 -3 81 8 95 11 106 33 112 47 13 48 12 40 -75z m582 74 c0 -9 -110 -36
-118 -28 -9 9 4 18 40 26 45 11 78 12 78 2z m-2330 -46 l0 -34 -77 -6 c-43 -4
-119 -11 -170 -16 -147 -16 -153 -15 -153 19 0 17 4 32 8 35 4 2 51 8 105 12
94 7 97 6 97 -14 0 -32 18 -36 22 -5 3 25 8 29 53 34 113 13 115 13 115 -25z
m-414 -38 c-3 -17 -7 -32 -9 -34 -1 -1 -39 -5 -84 -9 l-83 -7 0 41 0 41 91 0
92 0 -7 -32z m2349 -7 c42 -17 97 -43 123 -59 80 -51 89 -51 252 6 108 37 286
53 296 27 12 -30 -14 -38 -150 -46 -103 -6 -154 -15 -213 -34 -86 -29 -119
-50 -63 -39 19 4 42 10 50 14 42 21 184 41 276 38 142 -4 125 -22 -26 -28
-111 -5 -134 -10 -203 -38 -114 -47 -176 -40 -255 29 -20 18 -69 47 -109 65
-61 28 -73 37 -73 57 0 21 7 37 16 37 2 0 37 -13 79 -29z m-2585 -210 c-1
-158 -2 -173 -15 -151 -11 19 -14 66 -15 189 0 144 2 162 15 151 12 -10 15
-44 15 -189z m2032 143 c2 -19 1 -34 -4 -34 -21 0 -57 25 -62 44 -11 41 -8 45
28 34 29 -9 35 -16 38 -44z m443 36 c8 -25 -10 -50 -36 -50 -15 0 -19 7 -19
35 0 30 3 35 24 35 16 0 27 -7 31 -20z m-1791 -47 c53 -55 56 -60 56 -111 0
-47 -2 -51 -17 -41 -10 7 -44 42 -75 79 -44 51 -58 76 -58 99 0 48 30 39 94
-26z m-121 -35 c4 -46 7 -118 7 -160 l0 -78 -55 0 c-45 0 -56 4 -65 21 -46 85
-224 75 -267 -16 -18 -38 -23 -40 -100 -50 l-53 -7 0 155 c0 86 -2 161 -5 169
-4 10 17 14 97 16 57 1 157 9 223 16 66 8 141 14 166 15 l46 1 6 -82z m1570
57 c33 -5 37 -9 37 -37 l0 -31 -52 7 c-65 9 -68 11 -68 47 0 25 3 29 23 25 12
-3 39 -8 60 -11z m159 -47 c-5 -5 -31 -10 -58 -11 -46 -2 -49 0 -52 25 -3 25
0 27 45 33 26 4 53 8 58 9 13 4 19 -44 7 -56z m-352 8 l0 -34 -84 -7 c-82 -7
-86 -6 -121 20 -20 16 -32 32 -28 36 7 7 58 12 186 17 l47 2 0 -34z m625 4
c26 -11 73 -41 105 -66 53 -41 66 -47 122 -51 56 -5 73 -1 143 28 77 33 85 34
195 32 132 -3 149 -12 145 -79 -4 -67 -10 -69 -325 -109 -69 -9 -136 -20 -150
-25 -25 -8 -25 -8 4 -9 60 -2 402 41 433 54 21 9 35 10 39 4 11 -18 -5 -39
-28 -39 -13 0 -117 -16 -232 -35 -289 -48 -278 -49 -375 34 -30 25 -79 60
-109 76 -65 35 -82 56 -63 79 11 13 17 13 49 -8 21 -13 55 -30 77 -36 22 -7
55 -26 74 -42 62 -54 115 -61 234 -28 39 11 121 25 180 30 113 10 160 24 165
51 10 51 -71 62 -211 29 -46 -11 -136 -26 -200 -33 -65 -8 -120 -17 -125 -22
-13 -14 200 6 303 28 115 24 196 28 202 10 7 -20 -41 -33 -161 -43 -61 -5
-146 -18 -189 -30 -90 -25 -118 -21 -178 22 -23 16 -70 43 -104 58 -72 32
-111 77 -101 115 8 30 20 31 81 5z m-516 -36 c65 -20 224 -18 289 5 42 15 52
15 52 4 0 -31 -70 -48 -200 -48 -107 0 -132 4 -172 22 -27 12 -48 27 -48 34 0
7 7 8 18 4 9 -4 37 -14 61 -21z m397 -56 c-29 -41 -42 -35 -38 16 4 50 29 66
48 31 8 -16 6 -26 -10 -47z m-402 -12 c3 -12 6 -36 6 -54 0 -30 -2 -33 -22
-26 -26 8 -38 22 -38 45 0 9 -3 30 -6 47 -6 31 -6 31 24 20 17 -7 33 -21 36
-32z m-83 -13 l5 -42 -40 -5 c-23 -3 -66 -8 -96 -11 l-55 -6 3 50 4 50 51 4
c29 2 68 3 87 3 33 -1 35 -3 41 -43z m413 -11 c-4 -34 -12 -52 -23 -55 -9 -3
-24 -8 -33 -12 -16 -6 -18 -1 -18 36 0 24 4 49 8 55 7 11 64 34 70 29 2 -2 0
-25 -4 -53z m-1568 16 c30 -29 34 -39 34 -88 l0 -54 -43 42 c-39 38 -42 45
-39 87 2 25 6 45 9 45 3 0 21 -15 39 -32z m954 -22 l0 -44 -52 -6 c-29 -3
-219 -19 -423 -36 -203 -17 -379 -31 -390 -33 -17 -2 -20 5 -23 44 l-3 47 53
6 c29 3 166 15 303 26 138 11 293 24 345 29 52 4 116 9 143 10 l47 1 0 -44z
m398 28 c9 -3 12 -19 10 -51 l-3 -48 -45 3 c-24 2 -45 4 -46 5 -1 1 -4 25 -8
54 l-6 51 42 -5 c24 -2 49 -6 56 -9z m128 -40 c-3 -25 -8 -50 -12 -55 -6 -11
-84 -12 -85 -1 0 4 -2 26 -5 49 -6 41 -5 42 28 46 85 10 81 12 74 -39z m-206
-75 c57 -14 204 -10 249 6 33 11 41 12 41 1 0 -42 -202 -61 -304 -29 -33 10
-61 24 -64 32 -3 10 2 11 19 6 13 -5 40 -12 59 -16z m-38 -41 c18 -15 31 -58
17 -58 -15 0 -49 39 -49 55 0 18 11 19 32 3z m316 -15 c-2 -9 -18 -26 -36 -36
l-34 -20 4 29 c2 20 10 30 28 35 39 11 42 10 38 -8z m-215 -8 c21 -4 27 -11
27 -30 0 -26 -19 -32 -67 -19 -29 8 -34 64 -5 59 9 -2 29 -6 45 -10z m133 -17
c-3 -13 -6 -26 -6 -30 0 -5 -19 -8 -43 -8 -39 0 -43 3 -43 23 1 17 9 23 36 28
62 11 63 11 56 -13z"/>
<path d="M5756 2899 c-4 -23 -5 -44 -2 -46 2 -2 7 14 11 37 4 23 5 43 2 46 -2
3 -7 -14 -11 -37z"/>
<path d="M5301 2666 c18 -20 39 -29 70 -32 l44 -4 -40 13 c-22 7 -54 22 -70
32 l-30 18 26 -27z"/>
<path d="M5570 2543 c0 -19 37 -53 58 -53 15 1 14 2 -3 12 -11 6 -28 20 -37
32 -10 11 -18 15 -18 9z"/>
<path d="M3852 2759 c1 -12 9 -24 16 -27 9 -3 13 3 10 19 -1 12 -9 24 -16 27
-9 3 -13 -3 -10 -19z"/>
<path d="M7038 1833 c7 -3 16 -2 19 1 4 3 -2 6 -13 5 -11 0 -14 -3 -6 -6z"/>
<path d="M5957 1843 c-11 -10 -8 -51 4 -59 6 -3 18 0 26 9 12 11 13 19 4 36
-12 22 -23 26 -34 14z m23 -29 c0 -8 -4 -12 -10 -9 -5 3 -10 10 -10 16 0 5 5
9 10 9 6 0 10 -7 10 -16z"/>
<path d="M6271 1756 c-17 -20 -4 -58 17 -54 11 2 17 13 17 32 0 33 -16 44 -34
22z m16 -28 c-3 -8 -6 -5 -6 6 -1 11 2 17 5 13 3 -3 4 -12 1 -19z"/>
</g>
</svg>
