<?xml version="1.0" standalone="no"?>
<!DOCTYPE svg PUBLIC "-//W3C//DTD SVG 20010904//EN"
 "http://www.w3.org/TR/2001/REC-SVG-20010904/DTD/svg10.dtd">
<svg version="1.0" xmlns="http://www.w3.org/2000/svg"
 width="1024.000000pt" height="559.000000pt" viewBox="0 0 1024.000000 559.000000"
 preserveAspectRatio="xMidYMid meet">
<metadata>
Created by potrace 1.16, written by Peter Selinger 2001-2019
</metadata>
<g transform="translate(0.000000,559.000000) scale(0.100000,-0.100000)"
fill="#000000" stroke="none">
<path d="M5630 4983 c-36 -14 -67 -28 -70 -30 -3 -3 -7 -187 -10 -411 l-5
-406 -165 -74 c-136 -62 -178 -76 -240 -82 -111 -12 -281 -80 -400 -160 -64
-43 -345 -155 -575 -230 -88 -28 -236 -83 -330 -122 -93 -38 -228 -94 -300
-123 -71 -30 -166 -67 -210 -83 -44 -17 -106 -42 -138 -56 -64 -30 -70 -29
-159 15 l-58 29 0 83 c0 45 -4 87 -8 94 -7 12 -142 73 -161 73 -27 0 -170 -63
-177 -78 -4 -9 -6 -420 -5 -912 2 -765 5 -897 17 -911 8 -9 46 -31 84 -48 78
-36 92 -35 193 16 l47 23 0 310 c0 171 2 310 4 310 2 0 60 -26 127 -59 68 -32
185 -86 259 -121 766 -355 996 -463 1007 -472 10 -8 13 -106 15 -407 l3 -396
77 -39 c42 -21 89 -39 104 -38 14 0 61 17 103 39 l76 40 3 407 2 407 73 33
c87 40 214 101 402 191 77 37 286 135 465 217 179 83 433 201 565 263 132 63
446 208 698 323 l457 210 1 -57 c1 -31 5 -188 8 -350 l6 -295 59 -29 c87 -43
112 -44 182 -9 33 17 66 37 72 45 9 11 11 267 10 1088 l-3 1073 -84 34 -83 34
-79 -36 -78 -36 -93 34 c-107 40 -322 116 -593 211 -104 36 -219 77 -255 90
-36 13 -105 38 -155 55 -49 17 -164 60 -255 94 l-165 62 -8 64 c-8 72 -17 82
-96 112 -60 23 -83 22 -161 -9z m137 -30 c24 -10 43 -20 43 -24 0 -3 -23 -13
-51 -23 -48 -18 -52 -18 -90 -1 -21 10 -39 21 -39 24 0 5 64 34 90 40 3 0 24
-7 47 -16z m-125 -73 l45 -20 6 -232 c4 -128 7 -286 7 -350 0 -106 -2 -118
-17 -118 -10 0 -35 -3 -55 -6 l-38 -7 0 377 c0 207 2 376 4 376 2 0 24 -9 48
-20z m198 -30 c0 -49 0 -49 -45 -69 l-45 -20 0 -305 c0 -197 -4 -306 -10 -306
-6 0 -10 125 -10 354 l0 353 48 21 c26 12 50 21 55 22 4 0 7 -22 7 -50z m181
-134 c85 -30 179 -63 209 -74 30 -11 109 -39 175 -62 66 -23 149 -52 185 -65
36 -13 233 -83 438 -156 353 -125 372 -133 372 -157 0 -28 10 -30 -145 26
-211 77 -591 214 -700 252 -660 234 -748 267 -729 278 28 17 29 17 195 -42z
m-101 -47 c63 -22 126 -44 140 -49 14 -4 77 -27 140 -50 63 -23 214 -77 335
-120 288 -103 825 -296 848 -305 16 -7 17 -30 17 -297 0 -159 -4 -288 -8 -286
-5 2 -65 25 -135 52 l-126 49 25 33 c14 18 28 48 31 68 5 32 2 40 -31 71 -80
75 -288 174 -649 310 -207 77 -306 104 -412 112 -89 6 -126 -6 -237 -73 -32
-20 -62 -33 -68 -29 -16 10 -14 555 3 555 6 0 64 -18 127 -41z m1708 -401 l53
-22 -43 -23 c-54 -28 -62 -28 -123 1 l-50 24 45 20 c57 26 55 26 118 0z
m-1420 -73 c171 -43 531 -178 743 -278 113 -54 199 -118 199 -149 0 -34 -143
-167 -220 -205 -103 -50 -225 -86 -249 -73 -11 6 -121 46 -243 89 -398 141
-732 282 -767 325 -12 14 -12 20 0 43 27 50 184 187 265 230 95 51 133 54 272
18z m1352 -537 c0 -279 -3 -508 -7 -507 -5 0 -17 4 -28 8 -18 7 -19 18 -20
142 0 119 -3 139 -23 176 -12 23 -26 44 -32 48 -6 4 -10 128 -10 350 l0 344
60 -26 60 -26 0 -509z m140 -478 l0 -1040 -50 -25 c-27 -14 -52 -25 -55 -25
-3 0 -5 467 -5 1038 l0 1038 53 26 c28 14 53 26 55 26 1 1 2 -466 2 -1038z
m-1950 922 c0 -4 -21 -28 -46 -52 -46 -46 -84 -106 -84 -135 0 -63 246 -176
839 -387 l254 -90 61 17 c94 28 226 92 277 135 l47 39 123 -47 c233 -90 241
-98 247 -252 2 -52 0 -111 -5 -130 -10 -38 -26 -46 -368 -197 l-110 -49 3 104
c4 95 2 107 -23 157 -48 99 -146 154 -448 251 -374 120 -476 159 -842 324 -88
40 -218 91 -288 115 -71 24 -131 45 -133 47 -2 3 31 18 74 35 42 17 127 51
187 77 90 37 121 46 173 46 34 0 62 -4 62 -8z m-410 -221 c132 -45 302 -115
476 -194 190 -86 329 -139 604 -226 320 -103 450 -163 497 -234 37 -55 49
-124 38 -223 l-7 -66 -81 -38 c-45 -21 -126 -59 -180 -84 l-98 -45 8 37 c4 20
7 73 7 117 -3 208 -89 273 -559 425 -157 51 -306 111 -490 200 -93 45 -213 99
-265 120 -192 77 -421 136 -478 124 -26 -5 -27 -5 -7 11 20 17 78 45 145 70
19 7 60 22 90 34 77 30 154 23 300 -28z m-391 -138 c153 -34 345 -108 586
-223 206 -99 327 -147 559 -225 330 -109 439 -173 466 -274 6 -22 9 -89 8
-148 l-3 -108 -60 -29 c-33 -16 -168 -77 -300 -136 -132 -59 -310 -139 -395
-178 -85 -38 -225 -102 -310 -140 -85 -39 -222 -102 -305 -142 -214 -103 -444
-210 -450 -210 -3 0 -5 169 -5 376 l0 376 -22 20 c-13 11 -54 33 -93 49 l-69
30 -71 -26 c-87 -32 -113 -51 -119 -90 -2 -16 -5 -31 -5 -32 -1 -2 -25 8 -53
21 -321 145 -496 223 -558 251 -41 18 -95 41 -120 53 -134 60 -255 113 -340
147 -52 21 -98 41 -102 44 -4 4 38 24 95 45 132 50 347 136 567 226 96 39 238
92 315 116 133 42 443 161 550 211 55 26 108 25 234 -4z m-2092 -310 c24 -10
43 -20 43 -23 0 -3 -24 -14 -53 -26 -52 -20 -53 -20 -100 -1 -26 11 -47 23
-47 27 0 9 69 38 95 39 11 1 39 -7 62 -16z m-82 -632 c8 -605 4 -1221 -8
-1221 -4 0 -30 11 -57 25 l-50 25 0 878 0 879 54 -25 54 -25 7 -536z m155 511
l0 -68 -42 -14 c-26 -9 -47 -25 -55 -40 -13 -26 -16 -132 -5 -215 6 -44 11
-51 44 -68 l36 -20 -5 -106 c-3 -58 -1 -125 5 -147 l9 -42 -39 -12 c-22 -6
-46 -14 -54 -17 -12 -4 -14 52 -12 382 l3 387 55 23 c30 13 56 24 58 24 1 1 2
-30 2 -67z m211 -185 c98 -41 212 -91 255 -110 44 -19 237 -105 429 -190 521
-231 545 -243 545 -267 0 -11 -4 -20 -9 -20 -5 0 -87 35 -182 79 -96 43 -228
102 -294 131 -66 29 -223 99 -350 155 -126 57 -309 138 -405 180 -96 42 -188
84 -205 93 -28 14 -28 16 -10 23 27 11 25 11 226 -74z m344 -238 c275 -122
565 -251 645 -286 80 -36 166 -74 193 -86 l47 -21 0 -108 c0 -59 -2 -108 -4
-108 -3 0 -58 25 -212 95 -71 33 -181 82 -359 162 -104 47 -210 94 -235 105
-72 33 -361 162 -537 241 l-163 71 0 108 0 107 63 -29 c34 -16 287 -129 562
-251z m4019 232 c3 -5 -20 -20 -52 -34 -58 -25 -812 -370 -975 -446 -49 -23
-90 -41 -91 -41 -2 0 -50 -22 -107 -49 -57 -26 -153 -71 -214 -98 -264 -121
-626 -289 -880 -408 -55 -26 -170 -78 -255 -117 -85 -39 -163 -75 -173 -80
-16 -8 -18 -6 -15 12 2 16 32 34 128 79 69 32 193 91 275 131 205 99 396 190
400 190 3 0 258 115 411 185 29 14 152 67 379 165 103 45 524 236 645 294 132
62 496 224 507 225 6 1 14 -3 17 -8z m56 -65 c0 -18 -3 -55 -7 -81 l-6 -47
-106 -50 c-58 -27 -196 -90 -306 -140 -398 -180 -657 -299 -862 -397 -259
-123 -345 -163 -553 -258 -172 -79 -552 -257 -823 -387 l-158 -75 3 91 3 91
225 103 c124 57 263 121 310 143 301 140 1009 466 1570 722 360 165 662 304
670 309 29 17 40 11 40 -24z m0 -571 c0 -217 -3 -395 -7 -394 -5 0 -28 10 -53
22 l-45 22 -3 347 -2 347 47 25 c27 14 51 25 56 26 4 0 7 -178 7 -395z m-4315
255 c138 -62 279 -125 315 -140 36 -15 121 -53 190 -85 130 -60 489 -222 573
-257 l47 -21 0 -148 c0 -82 -1 -149 -3 -149 -3 0 -228 102 -362 165 -154 71
-222 103 -526 239 l-307 138 -28 61 c-15 34 -33 80 -40 102 -7 22 -13 33 -13
24 -1 -24 29 -120 46 -146 8 -13 13 -23 10 -23 -15 0 -174 73 -187 86 -11 11
-16 45 -19 134 -2 66 -1 127 3 135 7 18 -11 25 301 -115z m1375 -35 c53 -22
54 -24 30 -33 -14 -6 -44 -17 -66 -27 -41 -16 -43 -16 -93 9 -28 15 -51 29
-51 32 0 8 83 43 105 43 11 0 45 -11 75 -24z m-146 -81 l56 -25 0 -935 c0
-514 -3 -934 -7 -934 -5 0 -30 13 -58 28 l-50 27 -3 933 c-1 512 0 932 2 932
2 0 29 -12 60 -26z m225 -903 l3 -930 -61 -30 c-33 -17 -64 -31 -68 -31 -9 0
-6 1861 3 1869 5 6 106 50 114 51 3 0 7 -418 9 -929z m-1499 706 c91 -41 272
-122 402 -181 131 -58 309 -139 395 -180 87 -40 201 -93 253 -116 52 -24 101
-47 108 -53 13 -10 17 -47 4 -47 -4 0 -189 84 -412 186 -353 162 -904 415
-1040 477 l-45 20 29 12 c26 11 36 9 85 -15 31 -15 130 -61 221 -103z m-333
68 c15 -8 57 -28 93 -44 36 -16 100 -45 143 -65 43 -20 80 -36 81 -36 2 0 57
-25 122 -55 157 -74 130 -61 374 -173 118 -54 322 -147 453 -207 l237 -109 0
-98 c0 -54 -4 -98 -9 -98 -5 0 -31 11 -58 24 -26 13 -113 54 -193 91 -129 60
-314 147 -570 268 -140 66 -621 287 -672 309 l-48 21 0 93 c0 52 4 94 9 94 5
0 22 -7 38 -15z m6 -240 l47 -20 0 -307 0 -308 -50 -25 c-27 -14 -52 -25 -55
-25 -3 0 -5 160 -5 356 0 196 4 354 8 352 4 -1 29 -12 55 -23z"/>
<path d="M5633 4750 c0 -25 2 -35 4 -22 2 12 2 32 0 45 -2 12 -4 2 -4 -23z"/>
<path d="M5644 4490 c0 -118 2 -167 3 -107 2 59 2 155 0 215 -1 59 -3 10 -3
-108z"/>
<path d="M5861 4596 c9 -8 312 -117 315 -113 3 2 -53 25 -123 51 -71 26 -138
51 -151 57 -23 9 -49 12 -41 5z"/>
<path d="M6200 4470 c8 -5 20 -10 25 -10 6 0 3 5 -5 10 -8 5 -19 10 -25 10 -5
0 -3 -5 5 -10z"/>
<path d="M6111 4455 c6 -5 371 -135 379 -135 15 1 -44 24 -198 79 -170 60
-190 66 -181 56z"/>
<path d="M5851 4401 c20 -13 172 -61 177 -56 2 2 -31 15 -75 28 -43 14 -87 28
-98 32 -16 5 -17 5 -4 -4z"/>
<path d="M6450 4239 c30 -12 105 -39 165 -61 61 -21 126 -45 145 -53 159 -61
254 -95 257 -92 8 8 -586 228 -612 226 -5 0 15 -9 45 -20z"/>
<path d="M6926 4151 c22 -19 393 -135 402 -126 2 2 -49 20 -114 40 -66 20
-159 49 -208 65 -49 16 -85 25 -80 21z"/>
<path d="M7260 3837 c8 -8 110 -47 110 -42 0 5 -52 28 -91 40 -13 4 -22 5 -19
2z"/>
<path d="M6230 3974 c19 -9 59 -18 90 -20 l55 -4 -60 14 c-132 29 -124 28 -85
10z"/>
<path d="M6248 3888 c20 -8 338 -11 330 -3 -3 3 -82 7 -176 8 -94 1 -164 -1
-154 -5z"/>
<path d="M7016 3764 c-88 -28 -193 -104 -256 -188 -22 -29 -40 -56 -40 -61 0
-4 34 25 76 64 89 86 170 139 253 171 34 12 61 24 61 26 0 8 -47 2 -94 -12z"/>
<path d="M7503 3975 c0 -66 3 -165 7 -220 l7 -100 0 130 c1 72 -2 171 -6 220
l-8 90 0 -120z"/>
<path d="M7627 3873 c-9 -170 -7 -469 2 -588 5 -56 8 63 9 318 0 224 0 407 -2
407 -2 0 -6 -61 -9 -137z"/>
<path d="M7641 2695 c-7 -132 -12 -256 -10 -275 5 -46 32 423 28 475 -2 22
-10 -68 -18 -200z"/>
<path d="M7285 3411 c-89 -35 -259 -121 -252 -127 2 -3 66 22 142 55 190 84
269 135 110 72z"/>
<path d="M7386 3275 c-4 -21 -14 -51 -21 -65 -19 -38 -27 -70 -18 -70 11 0 56
146 51 162 -3 7 -8 -5 -12 -27z"/>
<path d="M5031 3816 c3 -3 59 -19 125 -35 126 -32 287 -85 381 -126 31 -14 58
-24 60 -22 7 7 -145 76 -234 105 -126 43 -347 95 -332 78z"/>
<path d="M6639 3128 c18 -32 37 -104 45 -178 2 -19 3 -1 2 40 -3 72 -28 148
-56 165 -5 3 -1 -9 9 -27z"/>
<path d="M4737 3550 c23 -11 57 -23 75 -25 26 -4 22 -1 -17 13 -75 28 -106 34
-58 12z"/>
<path d="M4800 3360 c-41 -4 -192 -11 -335 -16 -245 -8 -254 -9 -160 -17 96
-8 531 13 675 33 53 7 52 7 -25 7 -44 0 -114 -3 -155 -7z"/>
<path d="M5450 3341 c63 -49 442 -222 456 -208 2 2 -39 21 -92 42 -52 20 -162
71 -242 111 -81 41 -136 65 -122 55z"/>
<path d="M3953 3193 c9 -2 23 -2 30 0 6 3 -1 5 -18 5 -16 0 -22 -2 -12 -5z"/>
<path d="M5443 3180 c45 -25 218 -92 223 -87 4 3 -210 93 -246 104 -8 2 2 -5
23 -17z"/>
<path d="M4025 3184 c17 -2 73 -9 125 -15 168 -19 455 -71 743 -133 65 -14
126 -26 135 -25 24 1 -64 25 -203 54 -66 13 -151 31 -190 39 -207 44 -513 87
-595 85 -30 -1 -35 -3 -15 -5z"/>
<path d="M6265 2981 c-59 -21 -325 -149 -325 -156 0 -9 122 44 365 159 42 20
20 18 -40 -3z"/>
<path d="M6455 2878 c-4 -24 -18 -69 -30 -100 -13 -32 -22 -58 -19 -58 12 0
54 104 60 149 8 61 -1 69 -11 9z"/>
<path d="M5678 2710 c-45 -24 -355 -153 -507 -211 -63 -23 -110 -44 -104 -46
13 -5 226 69 358 124 109 46 271 126 290 144 13 13 5 10 -37 -11z"/>
<path d="M4985 2225 c56 -35 129 -55 194 -53 40 1 46 2 21 5 -64 7 -160 33
-202 53 -56 27 -62 25 -13 -5z"/>
<path d="M4792 2180 c0 -30 6 -73 13 -95 l13 -40 -5 40 c-2 22 -8 65 -13 95
l-8 55 0 -55z"/>
<path d="M4876 2171 c10 -18 35 -45 54 -60 34 -25 34 -24 -9 24 -62 71 -67 74
-45 36z"/>
<path d="M2704 3035 c0 -88 2 -123 3 -77 2 46 2 118 0 160 -1 42 -3 5 -3 -83z"/>
<path d="M2725 2565 c0 -209 1 -296 2 -193 2 103 2 274 0 380 -1 106 -2 22 -2
-187z"/>
<path d="M3040 2935 c0 -9 320 -148 327 -142 2 2 -36 21 -84 42 -49 21 -123
53 -165 71 -43 18 -78 31 -78 29z"/>
<path d="M3730 2694 c52 -25 147 -66 210 -91 63 -25 155 -63 204 -84 49 -22
91 -37 93 -36 5 6 -167 84 -290 131 -61 24 -154 62 -206 85 -124 54 -130 51
-11 -5z"/>
<path d="M7310 2902 c-42 -20 -114 -54 -160 -76 -148 -67 -700 -339 -697 -343
2 -2 105 46 228 106 123 59 305 146 404 191 178 83 281 135 300 151 14 14 6
10 -75 -29z"/>
<path d="M5650 2134 c-73 -39 -296 -141 -380 -174 -83 -32 -391 -173 -387
-177 3 -2 99 38 255 108 23 11 71 30 105 43 148 56 477 216 477 232 0 6 0 6
-70 -32z"/>
<path d="M7514 2710 c0 -74 1 -105 3 -67 2 37 2 97 0 135 -2 37 -3 6 -3 -68z"/>
<path d="M7494 2485 c0 -110 2 -156 3 -103 2 53 2 143 0 200 -1 57 -3 13 -3
-97z"/>
<path d="M3007 2705 c8 -53 40 -140 57 -155 8 -6 1 21 -15 61 -16 39 -29 78
-29 88 0 9 -5 23 -10 31 -6 10 -7 2 -3 -25z"/>
<path d="M4144 2148 l-19 -23 23 19 c12 11 22 21 22 23 0 8 -8 2 -26 -19z"/>
<path d="M4288 2108 c-31 -41 -48 -73 -48 -89 0 -7 13 8 29 33 56 88 66 118
19 56z"/>
<path d="M4485 1740 c0 -250 1 -353 2 -228 2 126 2 330 0 455 -1 126 -2 23 -2
-227z"/>
<path d="M4654 2270 c0 -69 1 -97 3 -62 2 34 2 90 0 125 -2 34 -3 6 -3 -63z"/>
<path d="M4603 1765 c3 -110 11 -265 17 -345 6 -80 14 -212 19 -295 l8 -150 1
130 c0 72 -3 182 -8 245 -5 63 -14 225 -20 359 -5 134 -13 247 -16 250 -4 3
-4 -84 -1 -194z"/>
<path d="M2870 2416 c0 -5 126 -66 135 -66 3 0 64 -30 137 -66 145 -72 198
-95 198 -89 0 6 -260 136 -340 170 -36 15 -80 34 -97 42 -18 7 -33 11 -33 9z"/>
<path d="M3809 1949 c46 -22 86 -38 89 -35 2 3 -6 10 -19 15 -13 5 -50 21 -83
35 -90 40 -81 29 13 -15z"/>
<path d="M3920 1875 c0 -7 321 -165 335 -165 5 0 -65 38 -157 85 -167 85 -178
90 -178 80z"/>
<path d="M2851 2014 c1 -65 5 -150 9 -189 4 -38 5 13 2 115 -3 102 -6 187 -8
189 -2 2 -3 -49 -3 -115z"/>
</g>
</svg>
