<?xml version="1.0" standalone="no"?>
<!DOCTYPE svg PUBLIC "-//W3C//DTD SVG 20010904//EN"
 "http://www.w3.org/TR/2001/REC-SVG-20010904/DTD/svg10.dtd">
<svg version="1.0" xmlns="http://www.w3.org/2000/svg"
 width="1024.000000pt" height="559.000000pt" viewBox="0 0 1024.000000 559.000000"
 preserveAspectRatio="xMidYMid meet">
<metadata>
Created by potrace 1.16, written by Peter Selinger 2001-2019
</metadata>
<g transform="translate(0.000000,559.000000) scale(0.100000,-0.100000)"
fill="#000000" stroke="none">
<path d="M4090 4680 c-289 -54 -608 -115 -710 -135 -102 -19 -210 -40 -240
-45 -30 -4 -163 -29 -295 -55 -271 -52 -652 -124 -1015 -191 -135 -25 -258
-48 -275 -53 l-30 -7 2 -585 c1 -321 5 -880 9 -1242 l6 -658 27 -11 c46 -17
580 -138 1606 -363 507 -111 1261 -262 2025 -405 91 -17 221 -42 290 -55 69
-12 168 -30 220 -40 52 -9 115 -20 140 -25 25 -5 86 -16 135 -25 50 -8 214
-38 367 -65 152 -28 283 -50 292 -50 9 0 96 69 193 153 97 83 226 195 288 247
61 52 220 188 352 301 131 114 340 294 464 400 123 106 305 263 403 348 99 86
214 185 255 221 l76 66 2 109 c2 61 10 454 19 875 8 421 18 849 21 953 l6 187
-34 0 c-19 0 -173 9 -344 20 -302 19 -381 24 -915 55 -140 8 -327 20 -415 25
-321 20 -954 60 -1120 70 -397 24 -684 41 -900 55 -126 8 -264 17 -305 19 -64
4 -149 -9 -600 -94z m530 45 c0 -14 -1 -25 -3 -25 -1 0 -72 -14 -157 -31 -85
-17 -211 -41 -280 -54 -129 -24 -715 -137 -945 -181 -71 -14 -164 -32 -205
-39 -41 -8 -136 -26 -210 -40 -74 -15 -263 -50 -420 -80 -157 -30 -352 -67
-435 -83 -82 -17 -204 -40 -270 -52 -66 -11 -128 -23 -137 -26 -15 -4 -18 1
-18 28 l0 33 118 23 c310 58 670 125 787 147 72 13 191 36 265 50 74 14 254
48 400 76 146 27 324 60 395 74 72 14 240 45 375 70 135 25 346 66 470 89 275
54 270 53 270 21z m560 -5 c179 -11 438 -27 575 -35 138 -8 318 -20 400 -25
83 -5 265 -17 405 -25 140 -8 359 -22 485 -30 127 -8 309 -19 405 -25 210 -12
601 -36 835 -51 94 -6 224 -14 290 -17 l120 -7 0 -40 c0 -30 -4 -39 -15 -38
-8 1 -125 9 -260 18 -250 16 -818 54 -1195 80 -115 8 -275 19 -355 25 -80 5
-242 17 -360 25 -118 8 -316 21 -440 29 -124 9 -324 22 -444 31 -121 8 -281
20 -355 25 -75 5 -210 14 -301 20 -328 22 -325 22 -328 49 l-4 24 109 -6 c59
-4 254 -15 433 -27z m-260 -60 c74 -5 239 -17 365 -25 127 -9 325 -22 440 -30
418 -29 504 -35 715 -50 118 -8 319 -21 445 -30 127 -8 293 -20 370 -25 77 -6
237 -17 355 -25 118 -8 319 -22 445 -30 127 -9 319 -22 428 -29 108 -7 200
-16 204 -19 3 -4 1 -226 -6 -494 -7 -269 -15 -708 -18 -977 l-6 -488 -51 6
c-28 3 -100 13 -161 21 -60 8 -200 26 -310 40 -110 14 -249 32 -310 40 -60 8
-254 33 -430 55 -176 23 -326 43 -334 46 -12 4 -13 126 -7 828 l8 824 -69 6
c-37 3 -165 13 -283 21 -118 9 -269 20 -335 25 -250 20 -457 31 -471 26 -12
-4 -14 -52 -14 -293 0 -158 -3 -447 -7 -640 -6 -351 -6 -353 -27 -348 -12 3
-59 9 -106 15 -87 10 -169 20 -515 65 -110 15 -279 36 -375 48 l-175 23 0 71
c0 51 -5 76 -16 89 -15 17 -17 89 -23 647 l-6 629 72 -6 c40 -3 134 -10 208
-16z m-300 -594 l0 -605 -34 6 c-42 7 -79 -12 -72 -35 4 -12 -2 -21 -17 -27
-19 -9 -22 -19 -25 -72 -2 -52 -6 -63 -20 -63 -9 0 -215 -70 -457 -156 -242
-85 -469 -166 -505 -178 l-65 -23 -3 -56 -3 -56 38 -6 c21 -4 44 -8 51 -10 9
-3 12 -42 12 -149 l0 -144 -127 -52 c-192 -79 -725 -300 -748 -310 -11 -5
-150 -63 -310 -128 -159 -66 -384 -159 -498 -206 -174 -72 -214 -86 -243 -80
l-34 6 -1 352 c0 193 -4 722 -8 1176 -5 454 -5 828 -1 833 3 4 112 27 241 52
544 103 681 129 1389 265 146 28 288 55 315 60 170 31 1050 201 1060 205 6 2
22 4 38 4 l27 1 0 -604z m1700 263 c151 -10 334 -24 405 -29 72 -5 172 -13
224 -17 l94 -6 -6 -360 c-4 -198 -7 -565 -7 -815 l0 -455 -41 6 c-22 3 -42 7
-44 9 -2 1 1 345 5 763 5 418 6 763 2 766 -4 4 -164 19 -357 34 -505 39 -588
44 -595 40 -4 -2 -10 -268 -14 -591 -3 -324 -8 -590 -11 -592 -2 -2 -20 -1
-40 2 l-35 7 5 502 c3 276 8 561 11 633 l6 130 61 -3 c34 -2 186 -13 337 -24z
m-176 -95 c14 -5 16 -40 16 -288 0 -154 -3 -419 -7 -588 -6 -290 -7 -308 -25
-308 -22 0 -23 13 -3 30 21 17 19 35 -9 104 l-24 59 -17 -39 c-29 -68 -30
-102 -6 -128 22 -23 22 -23 2 -29 -26 -6 -27 -39 -3 -59 9 -8 50 -27 89 -42
65 -25 72 -30 63 -46 -14 -27 23 -50 80 -50 53 0 85 19 85 51 0 17 15 30 61
56 l61 33 102 -14 c57 -8 105 -17 107 -19 2 -2 -121 -75 -274 -162 -152 -87
-321 -185 -376 -217 l-99 -59 -131 21 c-72 11 -234 36 -361 55 -474 73 -752
116 -810 125 -33 5 -105 16 -160 24 -55 8 -172 26 -260 40 -88 14 -207 32
-265 41 -352 53 -494 75 -497 79 -2 2 31 15 74 30 108 38 236 83 313 111 284
103 583 204 589 200 5 -2 11 -19 15 -36 14 -72 68 -109 137 -94 25 6 35 16 51
54 11 25 22 48 24 50 3 3 189 -20 449 -54 187 -25 717 -93 780 -100 33 -3 67
-8 75 -10 13 -4 15 19 15 163 0 92 2 359 4 595 l4 427 58 0 c32 0 64 -3 73 -6z
m321 -23 l70 -6 3 -354 c1 -195 -1 -358 -5 -361 -7 -6 -164 8 -310 26 l-43 5
0 218 c0 120 3 279 7 355 l6 137 101 -7 c56 -4 133 -10 171 -13z m190 -343 l0
-327 -47 -26 -48 -26 0 356 0 356 48 -3 47 -3 0 -327z m268 305 c4 -2 7 -34 7
-71 l0 -67 -123 -50 c-67 -27 -124 -47 -127 -45 -3 3 -4 14 -4 25 1 11 2 67 3
124 l1 103 118 -7 c64 -4 120 -9 125 -12z m4 -847 l-7 -684 68 -11 c37 -6 123
-18 192 -26 175 -22 482 -61 655 -85 39 -5 129 -16 200 -25 72 -9 209 -27 305
-40 96 -13 203 -27 238 -30 35 -4 62 -10 60 -15 -2 -4 -55 -52 -118 -106 -62
-54 -148 -128 -190 -164 -41 -36 -187 -162 -325 -281 -137 -118 -347 -298
-465 -400 -163 -140 -756 -649 -880 -755 -13 -10 -33 -9 -115 6 -55 10 -167
30 -250 45 -171 30 -176 31 -690 125 -445 81 -792 146 -855 159 -25 6 -106 21
-180 36 -553 105 -1377 276 -1850 384 -25 6 -259 59 -520 117 -261 58 -488
110 -505 114 l-30 7 25 11 c45 20 162 69 340 142 201 83 736 305 1180 489
l305 127 7 -340 c6 -259 10 -341 20 -347 7 -5 37 -14 67 -21 51 -11 56 -10
100 14 l46 27 3 136 3 137 132 62 c73 35 212 102 311 150 98 47 180 86 182 86
2 0 4 -6 4 -12 0 -7 -33 -25 -73 -40 -91 -35 -186 -90 -248 -146 -40 -36 -49
-50 -49 -77 0 -35 21 -65 46 -65 10 0 14 -13 14 -45 0 -47 19 -77 64 -102 18
-10 17 -14 -9 -94 -15 -46 -52 -151 -82 -234 -50 -139 -53 -151 -36 -162 21
-16 75 -17 91 -1 6 6 44 110 84 230 66 198 74 219 93 214 11 -3 47 -8 81 -12
l61 -6 7 -82 c3 -44 6 -176 6 -291 0 -151 3 -214 12 -223 17 -17 83 -15 97 2
9 11 10 57 5 175 -7 157 -6 161 13 161 38 0 44 20 33 121 -16 153 -19 144 46
156 52 9 56 9 64 -11 4 -12 31 -86 60 -166 72 -197 77 -208 101 -220 21 -12
75 -5 84 11 4 5 -27 93 -68 196 -101 254 -96 228 -48 270 41 34 41 35 41 106
0 56 4 75 19 91 11 12 22 37 26 58 6 31 4 38 -17 52 -29 19 -196 79 -265 96
l-53 12 0 80 0 81 57 -7 c31 -4 153 -22 272 -42 119 -19 285 -46 369 -59 390
-64 466 -77 474 -81 4 -3 8 -218 8 -478 l0 -473 51 -11 c76 -18 92 -15 142 24
l47 37 0 127 0 128 28 17 c25 17 78 53 319 223 124 88 133 92 131 60 -3 -82 1
-96 35 -106 70 -22 76 -21 122 14 l45 35 0 313 c0 172 3 381 7 465 l6 152 31
16 c17 9 34 21 38 27 10 15 10 94 0 100 -4 2 -48 10 -97 16 -165 21 -157 18
-144 41 16 31 3 65 -30 79 -34 14 -64 7 -90 -21 -15 -17 -24 -18 -67 -10 -46
9 -74 6 -141 -14 l-23 -7 0 222 0 222 33 -5 c17 -3 86 -11 152 -17 66 -6 136
-12 156 -14 28 -3 52 4 95 29 l59 32 -4 189 -3 189 123 52 c68 29 128 52 133
53 6 0 7 -273 3 -684z m-2339 117 c-10 -2 -26 -2 -35 0 -10 3 -2 5 17 5 19 0
27 -2 18 -5z m62 -43 c11 -6 20 -16 20 -22 0 -6 -8 -4 -19 6 -23 21 -51 11
-51 -19 0 -28 27 -58 46 -51 25 10 18 -105 -9 -145 -54 -80 -147 -28 -147 82
0 39 4 48 31 68 28 21 31 27 26 63 l-5 41 44 -7 c25 -3 54 -10 64 -16z m-120
-4 c0 -2 -7 -7 -16 -10 -8 -3 -12 -2 -9 4 6 10 25 14 25 6z m112 -28 c7 -18
-2 -39 -13 -32 -12 7 -12 44 0 44 5 0 11 -6 13 -12z m-112 -13 c0 -8 -4 -15
-10 -15 -5 0 -10 7 -10 15 0 8 5 15 10 15 6 0 10 -7 10 -15z m1577 -262 c-15
-15 -17 -14 -28 10 -10 21 -10 33 0 55 l13 27 15 -38 c14 -35 14 -40 0 -54z
m393 -13 c19 -19 19 -23 6 -48 -20 -39 -146 -102 -203 -102 -40 0 -188 51
-208 73 -7 7 -4 8 8 3 11 -3 24 -3 30 1 7 5 -2 10 -23 14 -31 6 -29 7 18 8 29
0 69 8 89 16 44 19 52 19 28 1 -16 -12 -17 -16 -6 -30 17 -20 90 -21 117 -2
24 19 12 32 -41 45 -27 6 -32 9 -15 9 14 0 41 -5 60 -12 33 -12 37 -11 68 15
39 34 46 35 72 9z m-160 -50 c0 -5 -16 -10 -35 -10 -19 0 -35 5 -35 10 0 6 16
10 35 10 19 0 35 -4 35 -10z m416 -117 c-7 -31 15 -17 -528 -334 -131 -77
-240 -139 -243 -139 -3 0 -5 15 -5 33 1 31 5 35 222 157 122 69 296 168 387
221 91 53 168 95 169 94 2 -2 1 -16 -2 -32z m-400 -14 c10 -16 -15 -29 -56
-29 -19 0 -41 4 -49 9 -25 16 -1 31 49 31 27 0 52 -5 56 -11z m-2701 -48 c226
-35 525 -81 590 -91 33 -6 224 -35 425 -65 201 -30 392 -60 425 -65 33 -6 150
-24 260 -40 110 -17 227 -35 260 -40 71 -12 327 -50 338 -50 4 0 7 -16 7 -35
0 -41 1 -41 -126 -20 -100 17 -1673 264 -1914 300 -227 35 -347 54 -415 65
-33 5 -61 10 -62 10 -2 0 -3 14 -3 31 0 31 1 31 38 26 20 -3 100 -15 177 -26z
m3013 -509 c-4 -412 -5 -433 -24 -447 -10 -8 -23 -15 -28 -15 -5 0 -7 185 -4
447 l6 447 23 19 c23 19 24 19 28 1 2 -11 2 -214 -1 -452z m-3028 421 c7 -6
13 -960 7 -977 -5 -13 -11 -13 -52 0 l-45 16 0 331 c0 183 -3 403 -7 490 l-6
157 49 -6 c27 -4 51 -9 54 -11z m127 -18 c51 -8 121 -19 155 -24 66 -10 670
-104 773 -121 125 -21 665 -105 870 -136 55 -8 124 -20 153 -25 l52 -10 0 -51
c0 -49 0 -50 -27 -44 -33 6 -112 19 -243 40 -52 9 -205 33 -340 55 -135 22
-319 51 -410 65 -91 15 -275 44 -410 65 -135 22 -337 54 -450 72 -142 22 -209
37 -217 47 -14 17 -18 82 -5 82 4 0 49 -7 99 -15z m2825 -24 c-3 -33 -9 -41
-45 -61 -23 -13 -147 -86 -275 -162 -129 -77 -240 -142 -248 -145 -11 -4 -14
4 -14 33 l1 39 287 167 c158 92 289 168 292 168 3 0 4 -17 2 -39z m-2 -291 l0
-230 -34 0 c-19 0 -37 4 -41 10 -3 5 -3 99 1 208 l7 198 31 21 c17 12 32 22
34 22 1 1 2 -102 2 -229z m-2858 -105 c5 -170 5 -356 2 -413 -6 -101 -7 -103
-35 -118 l-29 -15 0 431 0 431 28 -3 27 -3 7 -310z m73 285 c-3 -4 -14 -10
-25 -13 -14 -4 -20 0 -20 13 0 13 6 16 25 12 14 -2 23 -8 20 -12z m136 -10
c30 -5 126 -21 214 -35 88 -14 171 -28 184 -31 20 -4 5 -14 -80 -53 -57 -27
-135 -63 -174 -81 -83 -39 -165 -76 -257 -118 l-68 -31 0 159 0 159 53 20 c62
24 59 24 128 11z m2556 -82 c-4 -46 -7 -137 -7 -203 l0 -120 -234 -152 c-128
-84 -236 -153 -239 -153 -4 0 -7 94 -7 209 0 175 2 211 15 221 24 20 459 279
469 280 5 0 6 -36 3 -82z m-2092 -17 c-6 -5 -131 -66 -280 -136 -148 -70 -291
-138 -317 -151 -44 -21 -48 -22 -48 -5 0 13 19 27 63 46 87 39 116 52 347 159
182 85 264 115 235 87z m85 -77 c0 -85 0 -86 -22 -80 -13 3 -31 6 -40 6 -28 0
-21 28 12 45 27 14 30 20 30 65 0 28 5 50 10 50 6 0 10 -35 10 -86z m58 80
c21 -6 22 -12 22 -91 0 -74 -2 -84 -16 -79 -9 3 -22 6 -30 6 -11 0 -14 18 -14
85 0 47 3 85 8 85 4 0 17 -3 30 -6z m-98 -48 c0 -26 -5 -36 -20 -41 -11 -3
-97 -44 -192 -89 -304 -147 -471 -226 -475 -226 -2 0 -3 16 -1 36 l3 35 190
88 c105 49 258 120 340 160 83 39 151 71 153 71 1 0 2 -15 2 -34z m1401 -37
l52 -11 -7 -526 c-4 -289 -8 -527 -9 -528 -1 -1 -23 3 -50 9 l-47 10 0 529 c0
290 2 528 5 528 2 0 27 -5 56 -11z m139 -509 l0 -496 -30 -22 c-16 -12 -32
-22 -35 -22 -7 0 -6 606 2 841 l6 194 29 1 28 1 0 -497z m-1559 349 c38 -75
51 -71 16 5 l-26 56 50 0 c89 0 261 -42 382 -92 41 -18 47 -24 47 -50 0 -35
-21 -55 -145 -147 -151 -111 -165 -118 -165 -77 0 18 17 34 73 71 88 58 214
152 222 165 14 23 -16 7 -91 -48 -43 -32 -107 -77 -142 -101 -63 -42 -64 -43
-125 -36 -74 8 -396 86 -464 112 -7 3 -13 1 -13 -5 0 -17 288 -97 445 -122 74
-12 80 -15 80 -36 0 -32 -14 -31 -181 11 -250 64 -329 87 -341 97 -38 31 12
95 130 166 57 34 182 90 204 91 7 1 27 -26 44 -60z m2119 -93 c-21 -19 -525
-356 -533 -356 -4 0 -7 11 -7 24 0 19 23 38 128 104 70 44 181 116 247 161 82
55 129 81 150 81 25 0 27 -2 15 -14z m38 -48 c-3 -28 -15 -41 -103 -102 -55
-38 -182 -127 -282 -198 -100 -70 -185 -128 -188 -128 -3 0 -5 19 -5 43 l1 42
277 186 c152 103 283 187 290 188 9 1 12 -9 10 -31z m-1737 -65 c-21 -40 -100
-93 -138 -93 -9 0 16 24 57 55 80 58 96 65 81 38z m1739 -99 l0 -96 -32 7
c-48 11 -48 11 -48 78 0 59 2 63 33 84 17 12 35 22 40 22 4 1 7 -42 7 -95z
m-2202 -22 c-66 -5 -248 45 -248 68 0 3 65 -10 145 -29 125 -31 139 -36 103
-39z m458 23 c-20 -31 -93 -68 -177 -91 -46 -12 -104 -18 -204 -18 -119 -1
-151 3 -214 22 -111 35 -151 64 -151 110 l0 23 26 -20 c65 -51 241 -86 394
-79 107 6 226 37 288 75 51 32 67 23 38 -22z m-31 -187 c21 -57 55 -143 76
-192 22 -49 39 -95 39 -103 0 -8 -12 -13 -30 -13 -35 0 -30 -9 -115 228 -48
135 -56 165 -44 173 28 18 37 7 74 -93z m-577 78 c1 -2 -30 -102 -70 -222 -66
-198 -75 -219 -97 -222 -45 -7 -44 11 9 159 29 79 63 179 77 222 24 76 25 79
51 72 15 -4 28 -8 30 -9z m285 -228 c4 -112 7 -245 7 -296 l0 -93 -32 3 -33 3
-3 293 -2 292 28 0 29 0 6 -202z m50 120 c10 -127 9 -158 -7 -158 -18 0 -26
45 -26 151 0 68 3 89 14 89 9 0 15 -23 19 -82z"/>
<path d="M4180 3103 c-266 -126 -265 -126 -265 -163 0 -37 9 -42 110 -55 22
-3 77 -13 123 -21 l82 -16 86 46 c48 25 92 46 100 46 8 0 14 3 14 8 0 4 23 20
50 35 42 24 50 33 50 57 0 32 7 29 -120 55 -124 25 -190 27 -230 8z m50 -13
c-8 -5 -22 -10 -30 -10 -13 0 -13 1 0 10 8 5 22 10 30 10 13 0 13 -1 0 -10z
m168 -14 c40 -8 76 -16 79 -19 2 -3 -8 -12 -24 -20 -26 -14 -37 -13 -122 7
-85 20 -92 23 -70 33 32 16 51 15 137 -1z m-259 -29 c-23 -20 -158 -82 -169
-79 -16 6 126 81 154 82 11 0 17 -2 15 -3z m146 -26 c42 -11 79 -22 81 -24 8
-8 -134 -77 -157 -76 -13 0 -55 8 -94 18 l-70 16 70 42 c39 23 75 42 81 42 6
1 46 -8 89 -18z m225 9 c0 -8 -51 -40 -65 -40 -15 0 -2 21 23 34 32 18 42 19
42 6z m-130 -69 c0 -8 -120 -81 -134 -81 -22 0 3 24 57 54 66 38 77 42 77 27z
m-410 -27 c0 -8 -9 -14 -20 -14 -13 0 -20 7 -20 19 0 14 5 18 20 14 11 -3 20
-12 20 -19z m35 -4 c3 -5 1 -10 -4 -10 -6 0 -11 5 -11 10 0 6 2 10 4 10 3 0 8
-4 11 -10z m131 -17 c55 -11 84 -21 84 -30 0 -16 4 -16 -99 5 -47 10 -86 23
-89 30 -5 16 3 15 104 -5z"/>
<path d="M4695 3032 c-198 -104 -225 -121 -225 -146 0 -26 29 -36 98 -36 28 0
33 -3 24 -12 -15 -15 -16 -45 -2 -53 11 -6 29 -10 314 -55 l189 -30 126 71
c184 105 201 117 201 139 0 28 -24 35 -178 57 -118 16 -129 19 -116 34 8 8 14
25 14 36 0 17 -8 23 -37 27 -34 6 -262 26 -288 26 -5 0 -59 -26 -120 -58z
m274 26 c143 -13 146 -4 -35 -108 l-121 -69 -147 11 c-80 6 -146 14 -146 18 0
3 48 31 108 63 59 31 123 65 142 76 42 24 44 24 199 9z m147 -36 c-3 -5 -58
-39 -123 -77 -65 -38 -129 -76 -142 -84 -16 -10 -23 -11 -20 -3 3 9 274 172
287 172 2 0 1 -4 -2 -8z m153 -79 c121 -19 125 -10 -57 -115 -123 -70 -124
-71 -180 -64 -114 13 -391 61 -398 69 -5 4 39 5 97 1 l104 -7 69 42 69 42 103
-20 c113 -23 143 -26 129 -12 -6 4 -52 16 -102 26 -51 10 -93 21 -93 26 0 9
17 13 35 9 55 -15 185 -40 205 -40 49 0 3 17 -92 34 -58 11 -95 22 -92 28 7
10 27 8 203 -19z m121 -46 c-25 -23 -281 -169 -287 -164 -2 3 40 31 94 63 54
31 118 69 143 85 48 29 74 38 50 16z m-695 -28 c99 -9 149 -19 99 -19 -59 0
-290 24 -298 31 -5 5 13 6 40 4 27 -3 98 -10 159 -16z m6 -73 c103 -17 267
-43 332 -52 26 -3 47 -10 47 -14 0 -8 -3 -8 -140 14 -52 8 -144 23 -205 32
-60 9 -117 21 -125 25 -21 12 -4 11 91 -5z"/>
<path d="M4825 3040 c44 -14 194 -24 174 -11 -8 5 -58 12 -110 15 -69 5 -86 3
-64 -4z"/>
<path d="M4770 3012 c8 -6 51 -13 95 -16 58 -5 74 -3 57 4 -32 14 -172 24
-152 12z"/>
<path d="M5555 2877 c-127 -48 -260 -112 -290 -138 -41 -38 -25 -52 38 -31 68
22 352 165 352 177 0 18 -39 15 -100 -8z m-90 -76 c-66 -32 -124 -56 -128 -54
-5 3 -6 7 -3 10 8 9 231 103 241 102 6 0 -44 -26 -110 -58z m-160 -70 c-3 -6
-11 -11 -17 -11 -6 0 -6 6 2 15 14 17 26 13 15 -4z"/>
<path d="M6431 3061 c-16 -30 -14 -71 4 -71 23 0 67 48 63 68 -5 26 -54 28
-67 3z m49 -11 c0 -5 -9 -14 -20 -20 -15 -8 -20 -8 -20 3 0 8 3 17 7 20 10 10
33 8 33 -3z"/>
<path d="M4654 2220 c-95 -10 -134 -19 -134 -32 0 -6 7 -7 16 -4 8 3 79 11
156 18 82 7 133 15 122 19 -23 9 -66 9 -160 -1z"/>
<path d="M4215 2170 c-70 -11 -143 -33 -123 -37 9 -2 50 3 92 11 41 9 116 16
166 16 53 0 90 4 90 10 0 12 -148 12 -225 0z"/>
<path d="M4480 2154 c0 -14 73 -134 81 -134 6 0 -6 32 -27 70 -20 39 -40 70
-45 70 -5 0 -9 -3 -9 -6z"/>
</g>
</svg>
