<?xml version="1.0" standalone="no"?>
<!DOCTYPE svg PUBLIC "-//W3C//DTD SVG 20010904//EN"
 "http://www.w3.org/TR/2001/REC-SVG-20010904/DTD/svg10.dtd">
<svg version="1.0" xmlns="http://www.w3.org/2000/svg"
 width="1024.000000pt" height="559.000000pt" viewBox="0 0 1024.000000 559.000000"
 preserveAspectRatio="xMidYMid meet">
<metadata>
Created by potrace 1.16, written by Peter Selinger 2001-2019
</metadata>
<g transform="translate(0.000000,559.000000) scale(0.100000,-0.100000)"
fill="#000000" stroke="none">
<path d="M5925 4253 c-8 -10 -37 -44 -65 -75 -27 -31 -56 -71 -65 -88 l-16
-31 -923 1 c-783 1 -929 -1 -958 -13 -24 -10 -65 -53 -139 -146 -161 -205
-164 -210 -164 -302 0 -44 6 -83 13 -91 7 -9 8 -18 2 -24 -5 -5 -11 -31 -13
-59 -3 -39 -4 -33 -5 26 -4 146 -27 169 -172 169 l-90 0 0 53 c0 28 5 70 10
92 17 74 21 72 -186 80 -134 5 -202 4 -247 -5 -34 -7 -92 -12 -128 -11 -73 1
-83 -6 -92 -54 -6 -40 -29 -98 -42 -107 -5 -4 -30 -8 -54 -8 -23 0 -84 -14
-135 -32 -50 -17 -111 -34 -136 -37 -42 -6 -45 -8 -44 -36 1 -16 7 -57 13 -90
24 -128 26 -116 -28 -160 -137 -112 -289 -245 -400 -349 -68 -64 -183 -164
-254 -221 -71 -58 -198 -170 -281 -248 -83 -79 -173 -163 -200 -188 -66 -59
-96 -125 -95 -209 0 -36 6 -83 14 -105 14 -38 13 -41 -10 -65 -24 -25 -25 -30
-25 -176 0 -82 3 -233 7 -336 l6 -188 78 0 c83 0 86 2 134 64 25 33 25 35 25
236 l0 203 362 -6 c199 -4 482 -7 630 -7 l268 0 0 -148 c0 -82 3 -197 7 -256
l6 -107 86 3 86 3 35 65 34 65 -3 227 -3 226 339 563 338 563 3 -82 3 -82 64
0 65 0 25 50 25 49 62 3 c61 3 63 4 85 43 19 34 23 55 23 143 l0 102 53 0 c48
0 55 3 65 25 7 14 12 59 12 100 l0 75 795 0 c700 0 795 2 795 15 0 13 -105 15
-889 15 l-890 0 -7 -22 c-4 -12 -5 -124 -3 -248 l4 -225 -50 0 -50 0 -3 292
-2 293 797 2 c524 2 798 6 798 13 0 7 -271 11 -787 13 l-788 2 -16 25 c-12 19
-15 42 -12 98 3 69 6 78 43 125 22 28 78 100 125 161 64 83 94 114 123 126 33
13 153 15 947 15 501 0 910 -4 910 -8 0 -5 -9 -17 -20 -27 -23 -21 -23 -54 0
-65 35 -18 189 -79 237 -94 28 -10 63 -26 77 -37 33 -26 45 -24 78 14 25 29
29 30 38 14 6 -9 22 -29 34 -44 24 -27 25 -27 152 -28 71 0 144 2 163 5 31 5
36 1 67 -44 31 -44 34 -55 34 -120 0 -49 -5 -79 -16 -94 l-15 -22 -495 0 -494
0 0 141 c0 77 5 149 10 160 21 37 -22 79 -61 59 -17 -9 -18 -18 -12 -85 l6
-74 -35 5 c-27 5 -40 1 -64 -19 -21 -17 -34 -22 -49 -16 -33 13 -93 10 -132
-6 -41 -17 -140 -21 -110 -4 21 13 23 77 2 105 -8 10 -15 29 -15 42 0 39 -17
24 -40 -39 l-23 -60 21 -29 21 -28 -22 -15 c-20 -13 -21 -17 -8 -40 10 -18 30
-32 65 -43 87 -29 104 -40 99 -68 -5 -22 0 -26 37 -36 68 -18 136 4 125 41 -5
14 2 24 25 37 18 9 48 27 66 39 l34 22 0 -44 0 -45 -45 0 c-33 0 -45 -4 -45
-15 0 -11 12 -15 45 -15 l45 0 0 -178 0 -179 -39 -12 c-22 -6 -50 -24 -61 -39
l-21 -27 21 -17 c35 -28 120 -41 189 -27 33 6 67 19 76 29 14 15 14 19 -5 42
-11 14 -38 33 -60 42 l-40 16 0 65 0 65 260 0 260 0 20 -41 c35 -68 310 -672
308 -674 -8 -6 -2658 -13 -2658 -7 0 4 73 168 162 364 l163 358 133 0 c81 0
132 4 132 10 0 6 -53 10 -140 10 l-140 0 -30 -62 c-16 -35 -95 -205 -174 -379
-134 -295 -143 -319 -139 -363 l6 -46 74 0 c50 0 75 -4 78 -12 2 -7 8 -211 12
-453 l8 -440 79 0 78 0 19 45 c16 40 18 80 18 388 1 291 3 342 15 342 10 0 16
-14 18 -42 l3 -43 62 -3 c60 -3 63 -2 78 27 8 17 15 37 15 46 0 13 84 15 798
15 l797 -1 20 -42 20 -42 60 0 60 0 3 43 c2 32 7 42 20 42 16 0 17 -25 14
-332 -3 -307 -2 -337 15 -388 l19 -55 74 -3 c40 -2 77 1 81 5 4 4 11 209 15
455 l7 447 76 3 76 3 3 51 c3 47 -7 72 -103 285 -59 129 -124 270 -144 314
-21 44 -50 108 -66 143 l-28 62 -268 0 -269 0 0 95 0 95 458 2 c251 1 480 2
507 3 l50 0 3 -145 c2 -80 0 -214 -3 -298 l-7 -153 -42 3 -41 3 -3 248 -2 247
-446 0 c-352 0 -445 -3 -441 -12 3 -10 80 -13 340 -13 l337 0 0 -63 c0 -43 6
-75 20 -102 19 -37 23 -39 71 -42 l51 -3 2 -105 c1 -91 4 -110 24 -142 23 -37
25 -38 83 -38 58 0 59 0 78 -38 28 -55 42 -64 103 -60 l53 3 5 100 5 99 82
-134 c45 -74 194 -319 332 -545 l251 -409 0 -281 1 -280 33 -55 32 -55 79 -3
c45 -2 81 1 84 7 4 6 8 137 10 293 1 156 4 284 4 284 1 1 286 5 634 9 l631 8
-5 -234 -5 -234 42 -58 42 -58 81 3 82 3 3 399 2 400 -26 27 c-24 26 -25 30
-14 65 7 20 13 72 13 114 0 112 -21 151 -128 242 -48 40 -174 147 -279 237
-105 90 -267 225 -361 299 -301 240 -319 255 -405 331 -47 41 -86 76 -88 77
-2 1 1 19 6 40 5 22 15 72 23 112 14 83 10 92 -46 92 -17 0 -70 14 -118 30
-48 17 -115 33 -150 37 l-63 6 -17 47 c-9 26 -17 56 -17 66 0 40 -15 46 -111
49 -52 2 -125 8 -164 13 -46 7 -98 7 -155 1 -47 -6 -110 -9 -140 -8 -30 1 -60
1 -66 0 -17 -2 -24 -38 -14 -69 5 -15 11 -60 14 -99 l6 -73 -105 0 c-90 0
-108 -3 -124 -19 -25 -25 -41 -81 -42 -151 -1 -47 -2 -51 -9 -23 -4 17 -3 58
2 90 12 78 3 131 -32 187 -17 26 -30 48 -30 50 0 2 14 6 30 10 41 8 39 31 -7
103 -47 76 -67 98 -136 161 -51 46 -62 52 -102 52 -41 0 -45 2 -45 25 0 27
-25 45 -63 45 -13 0 -45 9 -71 20 -25 12 -84 27 -130 35 -46 7 -93 18 -105 24
-17 9 -23 8 -36 -6z m129 -40 c44 -8 108 -25 144 -39 35 -13 75 -24 89 -24 27
0 27 -1 -8 -95 -24 -64 -40 -87 -120 -173 -65 -70 -67 -71 -84 -52 -10 11 -52
31 -94 44 -43 14 -106 39 -142 56 -35 16 -70 30 -78 30 -11 0 -11 3 2 18 8 9
24 37 35 62 27 64 143 202 162 193 8 -3 51 -12 94 -20z m424 -191 c35 -32 83
-89 107 -127 50 -81 56 -74 -72 -100 -58 -12 -101 -15 -167 -10 -109 8 -110 9
-136 52 l-21 36 24 26 c33 35 71 98 88 144 13 36 14 37 64 37 48 0 54 -3 113
-58z m859 -154 c43 -7 104 -12 136 -11 48 2 57 -1 57 -15 1 -15 14 -57 34
-104 7 -15 4 -15 -29 -5 -39 12 -55 2 -55 -36 0 -10 -11 -43 -24 -75 -13 -31
-27 -74 -31 -94 -9 -49 -20 -50 -250 -45 l-180 4 -7 39 c-3 22 -11 51 -17 66
-6 15 -15 67 -21 115 -5 49 -13 106 -16 127 l-6 39 48 -6 c27 -3 72 -2 99 3
79 12 177 11 262 -2z m-4079 -51 c34 1 62 -1 62 -5 -1 -49 -24 -208 -42 -285
l-23 -98 -46 6 c-25 4 -90 2 -145 -4 -54 -5 -128 -7 -163 -3 l-64 7 -13 53
c-8 29 -21 67 -31 85 -9 17 -19 48 -23 67 -6 34 -7 35 -48 33 l-41 -2 19 52
c11 29 20 59 20 67 0 12 14 15 68 16 37 1 96 6 132 12 39 6 107 8 170 4 58 -4
133 -6 168 -5z m2340 -4 c-2 -10 -10 -18 -18 -18 -8 0 -16 8 -18 18 -2 12 3
17 18 17 15 0 20 -5 18 -17z m-8 -398 c0 -208 4 -355 9 -355 5 0 11 5 13 12 5
13 80 -20 85 -38 6 -18 -45 -34 -111 -34 -64 0 -126 15 -126 31 0 15 84 53 88
40 2 -6 8 -11 13 -11 5 0 9 147 9 355 0 230 4 355 10 355 6 0 10 -125 10 -355z
m-430 282 c0 -22 -4 -28 -17 -25 -21 4 -27 29 -18 66 6 26 7 26 21 8 8 -11 14
-33 14 -49z m2490 -7 c48 -5 114 -19 152 -33 36 -14 87 -29 113 -33 38 -5 45
-9 39 -23 -4 -9 -11 -44 -15 -79 -5 -35 -24 -98 -44 -141 -19 -43 -35 -84 -35
-90 0 -14 1 -14 -45 9 -22 11 -53 20 -70 20 -45 0 -147 26 -215 55 -33 14 -71
25 -85 25 -18 0 -25 5 -25 19 0 11 4 22 9 25 5 3 12 27 16 53 4 27 18 75 31
109 13 33 24 67 24 76 0 23 12 30 40 23 14 -4 63 -11 110 -15z m-2112 -22 c19
-19 14 -53 -10 -74 -39 -35 -147 -84 -182 -84 -19 0 -68 14 -109 30 -42 17
-80 30 -86 30 -5 0 -13 5 -17 11 -4 7 0 9 14 5 11 -4 23 -2 27 4 3 5 -2 11
-12 11 -10 1 2 5 27 9 25 4 56 11 69 16 16 5 22 4 17 -4 -8 -14 32 -42 61 -42
24 0 73 20 73 30 0 3 -6 12 -12 19 -11 10 -8 11 13 6 20 -5 32 -1 52 19 28 28
56 33 75 14z m-2771 -96 c18 -48 36 -103 39 -122 4 -19 13 -47 20 -62 18 -36
18 -38 -10 -38 -13 0 -64 -16 -114 -35 -49 -19 -120 -39 -158 -45 -38 -6 -86
-19 -107 -29 -35 -18 -39 -18 -44 -3 -3 10 -17 42 -31 72 -26 55 -73 245 -64
255 3 3 20 5 38 5 19 0 67 13 109 30 54 21 100 32 163 36 48 4 94 10 102 15 8
5 17 8 20 9 3 0 20 -40 37 -88z m4188 -17 c11 -38 23 -75 28 -82 7 -12 108
-17 315 -16 93 1 111 -1 102 -12 -7 -8 -10 -24 -8 -36 2 -18 13 -25 53 -34 28
-6 79 -23 115 -37 36 -14 101 -31 145 -38 44 -7 92 -18 107 -26 40 -21 66 -18
73 9 10 37 38 97 44 97 3 -1 40 -30 81 -66 77 -66 192 -160 360 -294 129 -101
377 -308 475 -395 44 -39 127 -110 185 -158 58 -47 114 -100 124 -117 23 -39
32 -161 17 -218 -7 -24 -21 -48 -34 -56 -18 -11 -132 -15 -562 -22 -855 -14
-933 -13 -977 11 -40 21 -130 142 -270 365 -40 63 -126 201 -192 305 -65 105
-172 269 -236 365 -64 96 -138 210 -164 253 l-48 77 3 79 c6 115 14 122 143
119 l101 -3 20 -70z m-1587 58 c-10 -2 -28 -2 -40 0 -13 2 -5 4 17 4 22 1 32
-1 23 -4z m-1821 -49 c20 -32 29 -122 15 -163 -11 -33 -167 -289 -414 -681
-85 -135 -218 -346 -295 -470 -158 -252 -183 -285 -230 -308 -29 -14 -54 -14
-225 -3 -147 10 -224 10 -323 1 -181 -15 -939 -3 -977 16 -20 11 -29 25 -37
64 -14 67 -14 87 4 148 13 42 29 64 82 114 37 35 126 119 197 188 72 69 204
185 293 258 89 72 215 183 280 245 65 61 163 149 218 194 55 45 121 100 146
123 l46 40 16 -38 c9 -20 21 -49 27 -64 11 -31 34 -36 65 -14 11 8 61 21 110
31 50 9 123 30 163 46 41 16 84 29 97 29 12 0 33 8 46 19 22 17 22 20 7 42
l-15 24 111 1 c219 1 311 6 324 16 6 6 12 22 12 35 0 14 7 49 16 79 l15 54
104 0 c101 0 105 -1 122 -26z m1851 -91 c3 -9 -12 -13 -52 -13 -52 0 -74 9
-59 24 12 12 106 2 111 -11z m1301 -106 c13 -23 88 -139 166 -257 166 -252
244 -373 388 -605 58 -93 148 -231 199 -305 78 -113 100 -139 138 -158 l45
-23 715 6 c444 4 733 10 764 17 39 8 50 8 57 -3 13 -22 -86 -26 -850 -33 -382
-4 -707 -10 -722 -13 -25 -5 -31 0 -65 53 -21 33 -101 158 -179 279 -78 121
-195 303 -260 405 -65 102 -157 244 -204 315 -46 72 -110 171 -141 220 -31 50
-64 102 -74 118 -10 15 -14 27 -10 27 5 0 20 -19 33 -43z m-3109 -13 c0 -3
-109 -179 -241 -392 -133 -213 -312 -499 -397 -637 -85 -137 -176 -284 -202
-325 -25 -41 -53 -86 -61 -99 l-14 -23 -525 6 c-901 11 -1102 17 -1088 33 7 9
21 12 41 7 23 -5 1105 -16 1464 -15 45 0 108 27 134 57 9 11 40 60 69 109 30
50 114 185 188 300 113 176 288 455 566 902 44 72 66 97 66 77z m3267 -299
c99 -154 216 -336 260 -405 44 -69 140 -217 213 -330 73 -113 152 -237 176
-275 l44 -71 -2 -364 -3 -365 -22 42 c-22 41 -23 51 -23 318 l0 275 -298 488
c-164 268 -343 560 -398 649 -54 90 -105 163 -111 163 -10 0 -13 -43 -13 -182
0 -162 -2 -180 -15 -162 -21 27 -22 536 -1 514 7 -8 94 -141 193 -295z m-500
188 c-2 -21 -4 -4 -4 37 0 41 2 58 4 38 2 -21 2 -55 0 -75z m111 8 l-3 -86
-40 0 -40 0 -3 79 c-2 44 -1 84 1 90 3 7 21 10 47 8 l41 -4 -3 -87z m-2688
-108 c0 -111 -5 -205 -10 -213 -6 -10 -10 57 -10 198 0 135 4 212 10 212 6 0
10 -72 10 -197z m90 117 c0 -44 1 -83 3 -87 1 -5 -15 -9 -35 -11 l-38 -3 0 90
0 91 35 0 35 0 0 -80z m37 -27 c-2 -21 -4 -4 -4 37 0 41 2 58 4 38 2 -21 2
-55 0 -75z m2596 -95 c-3 -112 -7 -205 -9 -207 -2 -2 -4 89 -4 202 0 122 4
207 9 207 6 0 7 -80 4 -202z m-2904 -297 c-12 -24 -14 -16 -20 84 -4 61 -7
134 -8 163 0 28 -5 52 -10 52 -6 0 -93 -138 -194 -307 -102 -170 -285 -474
-407 -677 l-222 -370 8 -218 c6 -198 5 -222 -11 -258 -10 -22 -22 -40 -27 -40
-4 0 -8 89 -8 198 0 108 -3 240 -6 292 l-6 95 393 630 c216 347 420 675 453
729 l61 99 8 -223 c7 -178 6 -228 -4 -249z m3149 225 c31 -53 32 -57 32 -170
l0 -116 -40 0 -40 0 0 170 c0 94 3 170 8 170 4 0 22 -25 40 -54z m-3198 -289
c-4 -5 -23 -7 -41 -5 l-34 3 -3 91 c-3 90 -2 92 35 155 l38 64 6 -150 c4 -83
3 -154 -1 -158z m2920 -310 l0 -24 -892 -6 c-491 -4 -1094 -7 -1340 -7 l-448
0 0 30 0 30 1340 0 1340 0 0 -23z m-2406 -69 c3 -7 7 -205 10 -440 l6 -428
-54 0 -55 0 -5 43 c-8 67 -17 823 -9 830 12 13 103 8 107 -5z m2096 -38 l0
-50 -1035 0 -1035 0 0 43 c0 24 3 47 7 50 3 4 469 7 1035 7 l1028 0 0 -50z
m145 -337 c-3 -214 -8 -412 -11 -440 l-5 -53 -56 0 -56 0 6 212 c4 116 7 314
7 440 l0 228 60 0 60 0 -5 -387z m-2190 -79 c5 -239 4 -339 -4 -347 -8 -8 -11
56 -11 229 0 133 -3 289 -7 347 -4 70 -3 107 4 107 7 0 13 -121 18 -336z m159
320 c14 -36 7 -44 -39 -44 -43 0 -45 1 -45 30 0 28 2 30 39 30 26 0 41 -5 45
-16z m1696 6 c0 -5 -4 -10 -10 -10 -5 0 -10 5 -10 10 0 6 5 10 10 10 6 0 10
-4 10 -10z m100 -20 c0 -28 -2 -30 -40 -30 -38 0 -40 2 -40 30 0 28 2 30 40
30 38 0 40 -2 40 -30z m90 -317 c0 -229 -4 -343 -10 -333 -5 8 -10 69 -10 136
0 148 12 544 17 544 1 0 3 -156 3 -347z m3045 -315 c-4 -205 -8 -374 -10 -376
-1 -1 -26 -5 -54 -9 l-52 -6 1 293 c1 161 -1 294 -3 296 -5 5 -1368 -15 -1384
-21 -10 -3 -13 -71 -13 -295 l0 -290 -62 0 -61 0 6 376 c3 207 8 378 10 380 5
5 934 20 1361 22 l269 2 -8 -372z m-6722 241 c126 0 179 -4 182 -12 2 -7 6
-150 10 -319 l6 -308 -64 0 -64 0 -7 253 c-4 138 -9 254 -12 256 -2 2 -313 4
-691 5 l-688 1 4 -247 4 -248 -57 0 c-37 0 -58 4 -61 13 -2 6 -6 149 -8 316
l-5 304 637 -7 c350 -3 716 -7 814 -7z m6586 -236 c-1 -93 -4 -213 -8 -268
l-6 -100 -22 36 c-22 35 -23 45 -23 268 l0 231 30 0 30 0 -1 -167z m-7835 -98
c7 -194 7 -196 -16 -225 -13 -16 -26 -29 -30 -29 -5 -1 -8 100 -8 224 l0 225
24 0 23 0 7 -195z"/>
<path d="M6221 4078 c-45 -46 -125 -193 -115 -210 4 -6 24 25 45 68 20 44 58
101 83 129 25 27 46 51 46 52 0 12 -24 -4 -59 -39z"/>
<path d="M6317 3845 c-42 -14 -53 -22 -45 -30 3 -3 25 2 49 10 45 16 199 23
239 10 23 -7 27 10 4 19 -30 11 -209 5 -247 -9z"/>
<path d="M6965 3800 c34 -115 44 -162 44 -207 1 -33 5 -53 12 -53 16 0 4 142
-17 206 -18 53 -54 102 -39 54z"/>
<path d="M3265 3740 c-32 -62 -58 -241 -37 -254 4 -2 13 40 20 94 6 54 19 116
28 139 20 50 12 66 -11 21z"/>
<path d="M7891 3549 c-24 -39 -47 -107 -54 -161 -9 -63 10 -52 23 14 6 33 23
85 37 115 29 61 25 83 -6 32z"/>
<path d="M5481 3654 c-20 -14 -29 -62 -15 -77 9 -9 61 20 67 38 15 37 -18 62
-52 39z m33 -28 c-7 -19 -34 -29 -34 -12 0 16 10 26 26 26 8 0 11 -6 8 -14z"/>
<path d="M2330 3516 c0 -2 13 -32 29 -68 17 -36 33 -89 37 -117 4 -35 10 -49
17 -42 21 21 -45 231 -74 231 -5 0 -9 -2 -9 -4z"/>
<path d="M6726 3572 c-11 -18 206 -344 340 -512 64 -80 196 -268 325 -460 111
-166 148 -206 223 -243 84 -42 172 -49 375 -35 194 14 599 16 871 4 125 -6
183 -5 204 3 44 17 20 33 -29 20 -41 -12 -123 -9 -415 11 -143 10 -216 10
-400 -1 -124 -8 -292 -14 -375 -14 -141 0 -153 2 -205 26 -84 39 -122 78 -216
223 -97 146 -302 434 -429 600 -45 60 -122 171 -170 247 -48 77 -89 139 -91
139 -1 0 -5 -4 -8 -8z"/>
<path d="M7604 2289 c-10 -17 -17 -134 -10 -163 12 -49 23 -26 22 47 -1 39 2
84 7 100 7 27 -5 38 -19 16z"/>
<path d="M3474 3490 c-67 -91 -136 -197 -224 -345 -100 -168 -136 -223 -341
-515 -159 -229 -249 -369 -249 -389 0 -27 21 -5 62 67 25 42 121 185 214 317
186 267 262 382 349 530 32 55 98 160 147 233 49 72 88 137 86 144 -3 7 -22
-12 -44 -42z"/>
<path d="M1148 2195 c-5 -5 -8 -11 -8 -15 0 -3 69 -6 153 -5 83 0 256 -6 382
-13 181 -10 269 -10 415 -1 102 6 245 9 318 6 77 -4 132 -2 132 3 0 18 -79 25
-255 21 -288 -7 -642 -5 -895 3 -129 5 -238 5 -242 1z"/>
<path d="M2614 2128 c4 -13 10 -49 13 -80 3 -32 10 -55 14 -52 21 13 0 154
-23 154 -6 0 -8 -9 -4 -22z"/>
<path d="M5888 3683 c-137 -2 -228 -7 -228 -13 0 -21 66 -23 375 -11 176 6
372 9 435 5 97 -6 113 -4 102 7 -14 15 -230 19 -684 12z"/>
<path d="M3693 3674 c-59 -14 -6 -19 184 -20 115 0 421 -1 682 -3 327 -2 477
1 484 8 8 8 -90 11 -338 11 -193 0 -494 2 -670 4 -176 3 -330 3 -342 0z"/>
<path d="M4778 3299 c-20 -6 -44 -19 -54 -30 -15 -17 -15 -22 -3 -56 9 -22 29
-48 49 -61 19 -13 38 -31 42 -41 13 -36 142 -38 156 -2 3 9 23 32 44 51 27 24
41 46 45 72 5 31 2 38 -22 54 -33 22 -196 30 -257 13z m242 -29 l24 -13 -22
-18 c-52 -41 -282 -33 -282 10 0 8 36 25 75 35 35 9 181 -1 205 -14z m-110
-77 c47 3 94 8 105 12 17 7 17 4 -5 -18 -37 -38 -108 -54 -167 -39 -27 7 -59
24 -73 37 l-24 25 39 -11 c23 -7 77 -9 125 -6z m13 -80 c-18 -2 -48 -2 -65 0
-18 2 -4 4 32 4 36 0 50 -2 33 -4z"/>
<path d="M4447 3258 c-25 -9 -28 -15 -25 -39 4 -26 1 -29 -21 -29 -34 0 -48
-10 -60 -42 -10 -27 -1 -78 17 -101 5 -7 12 -34 15 -60 9 -64 44 -143 75 -167
38 -31 97 -27 132 8 31 31 60 115 60 172 0 20 7 45 15 56 8 10 15 37 15 60 0
47 -22 74 -63 74 -22 0 -25 4 -24 27 3 46 -66 67 -136 41z m113 -28 c0 -5 -25
-10 -55 -10 -30 0 -55 5 -55 10 0 6 25 10 55 10 30 0 55 -4 55 -10z m-10 -50
c0 -18 4 -20 35 -14 22 4 41 2 50 -6 20 -16 19 -61 -1 -86 -15 -18 -15 -18 -5
3 26 52 3 89 -49 78 -39 -9 -40 -36 0 -82 26 -29 30 -41 30 -91 -1 -110 -53
-175 -125 -155 -41 12 -85 97 -85 165 0 43 4 54 31 79 28 26 31 34 27 79 l-3
50 48 0 c41 0 47 -3 47 -20z m-110 -20 c11 -8 8 -9 -13 -4 -16 4 -33 1 -42 -6
-18 -15 -20 -61 -3 -78 9 -9 9 -12 0 -12 -13 0 -28 46 -23 70 7 37 48 52 81
30z m-16 -26 c22 -8 20 -27 -3 -41 -17 -11 -21 -9 -26 7 -3 11 -3 24 0 30 7
12 8 12 29 4z m192 -8 c3 -8 2 -22 -3 -31 -8 -14 -11 -14 -27 4 -10 11 -15 25
-11 30 9 16 35 13 41 -3z"/>
<path d="M5087 3264 c-19 -19 24 -24 224 -24 188 0 219 2 219 15 0 13 -31 15
-218 15 -120 0 -222 -3 -225 -6z"/>
<path d="M4610 3250 c0 -5 18 -10 39 -10 22 0 43 5 46 10 4 6 -12 10 -39 10
-25 0 -46 -4 -46 -10z"/>
<path d="M5980 2950 c-79 -10 -100 -23 -100 -65 0 -39 36 -87 82 -111 39 -20
138 -20 177 1 34 17 71 80 71 119 0 18 -8 30 -27 39 -36 18 -133 27 -203 17z
m174 -30 c92 -35 -100 -64 -222 -33 -28 7 -24 25 9 34 38 11 185 10 213 -1z
m-109 -65 c39 0 85 3 103 7 40 9 41 -2 3 -44 -28 -31 -33 -33 -99 -33 -74 0
-108 15 -139 62 -15 22 -14 22 24 15 21 -4 70 -7 108 -7z"/>
<path d="M4108 2904 c-36 -15 -38 -18 -38 -65 0 -40 5 -55 31 -83 21 -25 29
-41 24 -55 -8 -27 21 -41 87 -41 64 0 99 19 79 43 -10 13 -9 17 7 26 23 12 52
79 52 121 0 44 -36 63 -128 67 -55 2 -88 -1 -114 -13z m162 -15 c27 -6 50 -15
50 -20 0 -27 -137 -40 -199 -18 -39 14 -29 29 26 39 56 11 67 11 123 -1z m50
-80 c0 -27 -39 -68 -73 -78 l-32 -8 28 -12 c40 -16 24 -31 -33 -31 -51 0 -77
17 -41 27 24 6 28 23 6 23 -19 0 -72 50 -79 75 -6 19 -1 20 109 20 99 0 115
-2 115 -16z"/>
</g>
</svg>
