<?xml version="1.0" standalone="no"?>
<!DOCTYPE svg PUBLIC "-//W3C//DTD SVG 20010904//EN"
 "http://www.w3.org/TR/2001/REC-SVG-20010904/DTD/svg10.dtd">
<svg version="1.0" xmlns="http://www.w3.org/2000/svg"
 width="1024.000000pt" height="559.000000pt" viewBox="0 0 1024.000000 559.000000"
 preserveAspectRatio="xMidYMid meet">
<metadata>
Created by potrace 1.16, written by Peter Selinger 2001-2019
</metadata>
<g transform="translate(0.000000,559.000000) scale(0.100000,-0.100000)"
fill="#000000" stroke="none">
<path d="M5275 4821 c-48 -22 -69 -44 -90 -94 -42 -100 0 -215 123 -337 84
-84 198 -180 212 -180 15 0 130 98 213 182 93 93 137 175 137 252 0 96 -63
175 -152 191 -53 10 -130 -18 -167 -61 l-31 -34 -38 38 c-37 37 -96 62 -143
62 -13 0 -42 -9 -64 -19z m146 -37 c25 -12 58 -47 87 -90 12 -19 12 -19 25 0
53 82 121 122 184 110 53 -10 110 -71 118 -128 14 -93 -42 -188 -186 -317
-143 -127 -121 -118 -176 -73 -92 75 -192 176 -223 225 -63 98 -63 186 0 249
52 52 103 59 171 24z"/>
<path d="M4522 4390 c-90 -19 -152 -57 -242 -148 -95 -96 -107 -120 -130 -268
-15 -97 -1 -173 54 -294 25 -54 55 -123 67 -152 11 -29 29 -63 40 -74 20 -21
20 -24 4 -78 -9 -31 -27 -69 -41 -85 -29 -35 -105 -81 -132 -81 -11 0 -91 -37
-178 -82 -287 -150 -325 -207 -403 -608 -17 -85 -46 -227 -66 -314 l-35 -160
21 -22 c11 -12 47 -35 80 -50 32 -16 59 -31 59 -34 0 -3 9 -63 19 -135 30
-197 75 -328 126 -361 24 -15 24 -18 11 -39 -8 -12 -19 -41 -26 -64 -10 -37
-8 -48 13 -94 l24 -52 -34 -70 c-37 -79 -42 -135 -17 -193 9 -20 17 -66 18
-102 1 -84 18 -92 30 -16 8 51 7 68 -12 120 -27 75 -27 82 -2 148 28 75 37 87
50 68 5 -8 10 -25 10 -37 1 -118 395 -18 566 143 64 60 59 61 -26 4 -138 -93
-301 -158 -415 -167 l-70 -5 -53 103 c-29 57 -52 114 -52 127 0 12 9 40 20 62
17 34 24 39 48 35 92 -16 164 -25 210 -25 28 0 52 -3 52 -8 0 -4 -33 -20 -74
-36 -75 -28 -137 -37 -168 -22 -28 13 -22 -11 7 -30 23 -15 32 -15 88 -3 34 7
96 29 137 50 70 35 83 37 200 44 69 4 188 15 265 25 77 10 142 17 144 14 7 -7
-79 -113 -150 -184 -166 -167 -398 -302 -573 -332 -81 -15 -93 -28 -24 -28 88
0 250 60 372 138 144 92 270 209 370 344 50 68 61 78 88 78 17 0 59 5 93 11
54 9 72 8 131 -10 38 -11 88 -23 112 -27 23 -4 45 -10 47 -14 11 -18 -106
-403 -168 -555 -14 -33 -23 -62 -21 -64 12 -12 47 41 74 110 49 126 132 397
145 469 l6 35 100 0 99 0 0 -65 c0 -36 5 -116 10 -179 5 -69 6 -131 0 -155 -5
-23 -12 -87 -16 -143 -6 -92 -5 -103 10 -103 9 0 16 6 16 13 0 24 29 263 39
317 8 50 29 137 62 258 12 45 12 45 75 21 21 -7 21 -8 4 -87 -35 -161 -49
-334 -24 -310 2 3 11 57 19 119 14 110 31 217 41 249 3 12 14 15 38 12 l33 -4
7 -251 c6 -230 18 -339 33 -323 4 3 6 162 5 353 -1 192 2 400 8 463 5 63 13
163 16 222 8 125 17 133 83 73 21 -19 45 -35 54 -35 8 0 30 -12 47 -27 22 -18
43 -27 66 -26 82 2 147 -131 213 -432 6 -27 27 -161 46 -298 20 -136 41 -260
47 -275 l12 -27 4 27 c2 15 -11 128 -27 252 -17 123 -31 231 -31 240 0 12 10
16 45 16 l44 0 25 -82 c14 -46 33 -118 42 -160 9 -43 21 -78 26 -78 16 0 -20
189 -52 271 -11 30 -20 55 -20 55 0 1 15 4 33 7 17 4 42 9 55 13 20 6 26 -2
62 -80 44 -93 79 -195 110 -321 33 -134 40 -155 52 -155 37 0 -53 338 -132
495 -51 103 -53 145 -7 173 65 41 71 64 78 297 4 116 12 244 18 285 13 96 31
331 26 340 -2 4 7 18 22 31 38 36 55 82 42 116 -6 15 -12 47 -13 70 -1 24 -10
51 -19 61 -9 10 -17 29 -17 41 0 13 -13 35 -29 50 -15 14 -35 40 -44 57 -19
36 -28 41 -98 50 -30 4 -60 15 -70 25 -26 26 -65 24 -96 -7 l-25 -26 -34 33
c-43 41 -72 110 -75 179 l-3 55 54 12 c61 13 95 36 128 84 19 27 33 36 69 42
26 4 60 17 76 29 37 26 77 110 77 163 0 22 5 60 11 84 11 49 -8 130 -39 166
-29 34 -76 63 -113 70 -30 6 -39 14 -58 51 -68 141 -253 238 -424 221 -28 -2
-64 0 -79 5 -35 12 -89 -4 -131 -42 -20 -17 -48 -29 -76 -33 -50 -6 -106 -47
-136 -98 -24 -41 -26 -126 -4 -160 12 -18 13 -32 7 -54 -5 -16 -6 -55 -3 -85
6 -51 4 -58 -27 -99 -44 -58 -68 -94 -68 -103 0 -4 14 -23 30 -41 20 -24 30
-45 30 -68 0 -19 7 -74 15 -124 13 -78 18 -94 45 -117 31 -28 37 -30 145 -32
l60 -1 14 -58 c7 -32 11 -61 8 -64 -4 -3 -23 -7 -44 -10 -53 -5 -100 -21 -158
-54 l-51 -29 -94 126 c-51 69 -110 139 -131 156 -21 17 -43 43 -50 59 -14 34
-71 71 -144 92 -28 8 -68 26 -89 41 -21 14 -45 26 -52 26 -23 0 -23 15 -3 81
11 35 25 85 30 110 9 40 14 48 39 53 50 9 54 34 25 140 -24 89 -25 97 -10 132
8 20 15 66 15 101 0 50 5 71 20 90 15 19 20 41 20 87 0 78 -32 147 -96 206
-53 48 -179 111 -274 134 -79 20 -229 28 -288 16z m281 -51 c235 -59 370 -192
342 -336 l-7 -38 -15 40 c-9 22 -15 50 -14 63 1 32 -16 27 -35 -10 -16 -33
-63 -88 -73 -88 -3 0 -4 23 -2 51 5 72 -10 80 -48 25 -27 -39 -101 -96 -126
-96 -4 0 -5 14 -1 30 6 32 -7 80 -23 80 -5 0 -23 -25 -40 -55 -19 -34 -50 -68
-79 -90 -56 -40 -71 -63 -80 -129 -4 -27 -12 -51 -19 -53 -6 -2 -20 15 -31 39
-27 60 -55 83 -104 83 -91 0 -128 -111 -73 -222 21 -42 24 -58 17 -85 -4 -18
-13 -33 -20 -33 -6 0 -18 -9 -26 -20 -14 -19 -16 -18 -36 30 -12 28 -42 93
-66 147 -69 153 -78 227 -45 373 21 93 31 113 77 144 18 13 49 42 69 66 85
104 254 135 458 84z m157 -364 c-21 -56 32 -59 94 -5 l34 30 6 -22 c3 -13 9
-58 13 -100 5 -67 3 -81 -15 -112 l-21 -36 28 -100 c21 -73 25 -102 17 -109
-6 -6 -36 -11 -66 -13 -53 -3 -54 -4 -27 -15 31 -14 30 -11 16 -53 -12 -32
-13 -32 -58 -26 -25 3 -58 9 -73 12 -31 7 -38 -9 -10 -22 9 -4 42 -10 73 -13
l56 -6 -22 -68 c-29 -90 -42 -102 -110 -101 -42 1 -73 11 -137 43 -102 50
-152 90 -180 144 -17 32 -23 37 -26 24 -11 -52 59 -129 170 -187 35 -18 64
-34 66 -36 2 -1 -8 -25 -22 -53 -14 -28 -26 -59 -26 -71 0 -39 21 -20 51 46
17 38 35 64 42 61 13 -4 22 -106 13 -142 -7 -27 -70 -63 -132 -74 -72 -14
-190 3 -279 38 -83 34 -196 103 -234 144 l-23 25 43 27 c87 54 112 90 139 203
7 29 23 64 36 77 13 13 26 35 30 49 5 22 9 23 29 14 28 -12 78 -2 72 15 -2 6
-19 12 -37 13 -38 2 -70 34 -95 93 -47 108 39 203 109 120 14 -17 26 -35 26
-41 0 -20 33 -48 56 -48 28 0 39 19 49 84 6 44 14 56 83 122 42 41 77 74 78
74 2 0 -1 -13 -6 -30 -5 -17 -5 -32 1 -35 18 -12 92 20 132 56 23 20 43 36 45
34 1 -1 -2 -15 -8 -30z m1044 -26 c26 -17 72 -61 102 -96 53 -64 131 -199 120
-211 -3 -3 -7 -3 -9 -1 -121 164 -206 237 -329 283 l-62 23 30 16 c47 26 94
21 148 -14z m190 6 c190 -58 300 -239 266 -441 -16 -94 -10 -123 16 -69 14 31
18 64 18 153 0 61 2 112 5 112 2 0 24 -11 48 -25 66 -39 87 -89 79 -184 -9
-99 -29 -140 -78 -160 -21 -9 -38 -19 -38 -23 0 -12 38 -10 61 3 19 10 19 9 9
-10 -14 -26 -48 -48 -80 -52 -33 -4 -34 -1 -16 43 18 41 21 98 7 98 -5 0 -12
-14 -16 -31 -10 -46 -81 -182 -107 -206 -13 -12 -42 -26 -66 -33 -24 -6 -50
-14 -57 -16 -16 -6 -55 50 -55 79 0 9 13 36 30 58 16 23 32 57 36 75 5 29 12
35 44 44 36 10 79 45 67 56 -3 3 -17 -2 -32 -12 -44 -29 -155 -22 -224 13 -55
28 -60 33 -136 154 -11 17 -33 38 -50 47 -107 57 -157 117 -157 187 0 40 -13
55 -23 26 -3 -11 -17 -27 -31 -36 -14 -9 -38 -36 -54 -61 -31 -50 -43 -45 -43
17 0 52 37 104 91 130 118 58 288 -25 439 -213 33 -41 70 -76 96 -89 23 -12
59 -37 80 -55 39 -36 56 -40 88 -24 29 16 23 33 -9 25 -23 -5 -35 0 -63 28
-19 18 -41 38 -49 43 -9 5 -29 40 -44 77 -40 94 -95 177 -163 243 l-58 56 60
-6 c33 -4 82 -13 109 -21z m-444 -209 c14 -44 72 -100 141 -137 52 -28 58 -35
93 -112 21 -45 43 -93 50 -107 13 -27 53 -38 82 -22 19 10 114 -6 114 -20 0
-5 -9 -27 -20 -49 -23 -43 -76 -83 -100 -73 -8 3 -21 8 -27 11 -7 3 -13 -2
-13 -11 0 -20 45 -39 71 -31 14 5 19 1 19 -13 0 -11 11 -36 25 -56 15 -23 25
-51 25 -74 0 -44 21 -125 43 -168 9 -17 33 -46 54 -64 25 -22 33 -35 24 -38
-7 -2 -41 -24 -76 -47 -70 -48 -290 -145 -347 -152 -88 -13 -119 29 -98 132
17 82 60 113 60 44 0 -49 25 -29 28 23 3 39 -15 132 -34 182 -4 9 11 22 48 38
56 26 111 74 102 89 -3 5 -20 -2 -38 -16 -57 -43 -141 -76 -213 -82 -114 -9
-134 7 -147 120 l-7 57 59 0 c41 0 63 5 72 15 11 13 5 14 -47 9 -70 -8 -93 8
-93 61 0 24 -7 39 -25 53 -29 23 -32 44 -9 63 9 7 29 32 45 55 26 38 29 51 29
117 0 41 6 93 14 115 16 45 64 122 77 122 4 0 12 -15 19 -34z m341 -359 c-7
-7 -15 -6 -26 3 -24 20 -18 31 10 18 17 -8 22 -15 16 -21z m-1021 -196 c35
-25 65 -120 86 -278 10 -73 22 -133 27 -133 14 0 -1 181 -23 280 -10 46 -17
87 -14 89 2 3 35 -9 72 -25 47 -21 71 -38 80 -57 23 -49 37 -415 16 -436 -2
-2 -12 3 -21 11 -10 9 -42 28 -72 44 -41 21 -57 25 -70 17 -11 -7 -23 -8 -34
-1 -28 15 -51 1 -72 -44 -26 -55 -22 -76 21 -127 l35 -41 -31 18 c-30 16 -32
16 -46 -2 -20 -28 -10 -51 53 -123 29 -34 65 -87 80 -119 l26 -57 -17 -101
c-26 -163 -16 -184 19 -38 l17 73 26 -38 c14 -21 34 -48 45 -60 18 -21 19 -29
11 -90 l-9 -68 -66 -7 c-67 -6 -108 -23 -210 -84 -52 -31 -95 -44 -87 -26 74
166 162 452 140 452 -4 0 -27 -60 -50 -132 -24 -73 -62 -178 -85 -233 l-43
-100 -99 -3 c-55 -2 -114 0 -131 3 l-31 5 62 95 c71 108 134 245 194 423 39
115 54 190 31 151 -5 -9 -27 -65 -48 -125 -74 -204 -147 -353 -239 -482 l-45
-63 -42 6 c-58 8 -230 38 -234 40 -1 1 28 33 66 71 282 284 521 842 522 1217
l0 87 33 0 c17 0 46 9 62 19 33 21 56 19 95 -8z m-913 -40 c20 -32 135 -112
218 -152 147 -71 314 -87 419 -40 l46 20 -4 -22 c-3 -12 -12 -60 -21 -107 -27
-143 -103 -354 -186 -518 -69 -137 -181 -312 -199 -312 -8 0 -77 184 -121 323
-17 53 -33 97 -36 97 -20 0 45 -229 107 -380 l30 -72 -37 -45 c-21 -25 -60
-64 -88 -87 -50 -41 -52 -41 -115 -36 l-65 5 -3 41 c-3 39 -1 42 27 52 l31 11
0 93 c0 119 -25 390 -44 490 -19 95 -51 192 -78 236 -31 51 -33 31 -4 -54 15
-43 35 -118 45 -168 19 -94 36 -236 28 -236 -3 0 -42 67 -87 150 -45 82 -86
152 -91 155 -29 18 10 -68 120 -262 l63 -112 10 -121 c6 -66 8 -123 6 -126 -3
-2 -26 4 -51 15 -100 43 -274 75 -427 78 -80 2 -144 7 -143 11 0 4 24 122 53
262 93 461 111 519 191 605 22 24 62 57 87 73 75 48 276 152 292 152 8 0 20
-8 27 -19z m1316 -295 c49 -66 91 -125 94 -133 3 -8 -4 -24 -15 -36 -28 -31
-57 -92 -77 -162 -22 -76 -30 -84 -48 -49 -11 23 -12 46 -5 116 6 56 6 94 0
105 -8 13 -12 0 -17 -53 -4 -38 -11 -78 -15 -89 -7 -18 -8 -18 -20 5 -9 18
-14 83 -15 232 -1 181 1 206 14 195 8 -7 54 -66 104 -131z m985 -28 c28 -28 2
-88 -33 -75 -20 8 -30 54 -15 72 15 18 32 19 48 3z m127 -42 c43 -18 45 -42
10 -102 -29 -49 -94 -99 -108 -85 -9 9 -5 20 48 119 19 36 14 52 -10 32 -12
-10 -16 -9 -21 4 -17 44 19 57 81 32z m-806 -56 c-21 -99 6 -171 71 -185 33
-7 106 10 178 42 28 12 52 21 52 18 0 -12 -253 -222 -370 -308 -30 -23 -83
-67 -117 -100 l-62 -59 -15 31 c-23 43 -20 63 20 154 20 45 60 152 89 238 29
86 58 166 64 177 9 17 89 55 99 47 1 -1 -3 -26 -9 -55z m609 9 c12 -18 21 -21
57 -16 25 2 47 2 50 -1 3 -3 -26 -37 -63 -76 -96 -99 -155 -230 -182 -400 -6
-38 -34 -135 -61 -215 -87 -251 -79 -232 -99 -221 -10 6 -31 10 -45 10 -15 0
-40 11 -57 25 -16 14 -37 25 -47 25 -10 0 -28 12 -42 26 -31 34 -83 56 -114
48 -20 -5 -40 7 -112 69 -139 118 -136 101 -40 179 45 37 132 105 192 151 61
47 166 134 235 192 69 59 139 118 155 130 34 26 146 95 155 95 3 0 11 -10 18
-21z m-772 -106 c-73 -206 -130 -343 -137 -331 -23 35 15 208 68 312 25 49 81
112 91 102 3 -3 -7 -41 -22 -83z m1058 55 c25 -35 20 -52 -30 -107 -51 -57
-99 -88 -109 -70 -13 19 4 54 55 114 27 32 50 65 50 72 0 20 17 15 34 -9z
m-1503 -62 c43 -31 91 -78 114 -110 48 -67 78 -77 43 -15 -26 46 -87 114 -133
147 -52 38 -3 23 55 -16 58 -39 117 -109 151 -179 11 -23 30 -90 43 -150 12
-59 30 -125 41 -146 16 -35 116 -132 234 -227 l44 -36 -13 -152 c-7 -84 -16
-152 -20 -152 -13 0 -61 70 -55 80 7 12 -39 60 -58 60 -17 0 -57 42 -162 175
-48 61 -108 126 -133 145 -47 35 -81 91 -141 235 -14 33 -48 83 -78 115 -48
52 -64 80 -47 80 11 0 98 -67 128 -99 31 -32 46 -39 46 -20 0 16 -56 95 -122
172 -56 66 -68 87 -48 87 19 0 116 -87 164 -148 27 -33 53 -59 58 -56 16 10
-27 69 -114 157 -83 83 -100 107 -79 107 5 0 42 -24 82 -54z m1313 -66 c10 0
14 -10 14 -31 -1 -31 21 -59 47 -59 5 0 15 -10 20 -22 6 -15 21 -24 38 -26 19
-2 31 -11 37 -28 5 -13 15 -24 21 -24 8 0 10 -20 5 -71 -20 -197 -196 -657
-334 -871 -20 -32 -40 -58 -43 -58 -4 0 -15 34 -24 76 -23 104 -59 207 -95
270 -16 30 -30 58 -30 64 0 5 34 108 76 228 53 151 77 234 79 273 4 82 62 228
123 307 l25 33 13 -30 c7 -17 20 -31 28 -31z m236 3 c0 -29 -8 -42 -42 -74
-45 -41 -75 -49 -85 -24 -3 10 14 35 51 71 31 30 56 60 56 65 0 6 5 7 10 4 6
-3 10 -22 10 -42z m20 -95 c0 -24 -36 -68 -57 -68 -22 0 -15 32 14 62 32 34
43 35 43 6z m-100 -504 c-6 -48 -11 -160 -11 -248 -1 -193 -12 -232 -78 -265
-36 -19 -71 -27 -71 -17 0 2 15 27 34 55 32 46 54 106 44 117 -3 2 -22 -27
-43 -65 -21 -39 -50 -81 -64 -95 -26 -24 -87 -47 -80 -30 2 5 34 68 70 139 70
136 115 245 170 407 18 54 34 96 37 94 2 -3 -1 -44 -8 -92z m-3022 49 c4 -27
-6 -28 -53 -6 -40 19 -30 35 20 31 23 -2 31 -9 33 -25z m247 -3 c50 -9 116
-25 148 -34 l57 -17 0 -64 0 -64 -37 -6 c-52 -9 -63 -13 -63 -23 0 -5 57 -12
128 -15 74 -3 189 -16 277 -33 132 -25 174 -28 357 -28 l207 -1 113 57 c111
56 116 57 236 69 68 6 126 8 129 5 3 -3 -2 -14 -11 -25 -23 -25 -100 -44 -147
-36 -46 8 -62 -11 -22 -26 63 -25 213 -57 294 -64 96 -7 121 -17 101 -37 -9
-9 -52 -13 -155 -13 -144 0 -191 -12 -107 -28 25 -4 98 -6 163 -4 65 2 120 1
122 -3 16 -27 -128 -62 -240 -59 -105 2 -111 1 -99 -11 15 -15 172 -24 222
-12 58 14 53 -1 -10 -29 -42 -18 -71 -23 -142 -23 -56 -1 -91 -5 -93 -12 -4
-13 107 -27 133 -17 12 4 15 3 10 -5 -13 -22 -89 -34 -166 -28 -41 4 -131 21
-199 38 l-124 30 -261 -33 c-226 -29 -290 -34 -476 -34 -219 0 -358 14 -412
42 -61 30 -115 214 -143 481 -3 35 -9 70 -12 79 -5 14 2 15 63 8 38 -4 110
-15 159 -25z m1509 -57 c20 -25 35 -48 33 -50 -2 -1 -25 -7 -52 -12 l-47 -9 6
45 c3 25 6 52 6 59 0 25 17 15 54 -33z m114 -145 c63 -73 63 -72 -9 -64 -80 9
-109 16 -109 26 0 4 11 11 25 14 13 3 32 17 42 31 10 13 19 25 21 25 2 0 15
-14 30 -32z m219 -250 c17 -16 23 -32 23 -65 0 -24 -4 -43 -8 -43 -5 0 -39 9
-75 21 l-67 21 26 31 c23 28 59 55 73 57 3 0 15 -10 28 -22z m-82 -111 c28 -8
62 -18 78 -21 20 -5 27 -12 27 -31 0 -30 -22 -32 -101 -9 -66 20 -79 29 -79
61 0 16 5 23 13 21 6 -3 35 -12 62 -21z m-129 -112 c-13 -38 -27 -86 -32 -105
l-8 -35 -7 40 c-4 22 -8 72 -8 110 -1 68 0 71 32 91 l32 21 7 -26 c5 -17 0
-49 -16 -96z m1024 50 c0 -8 -10 -21 -22 -29 -22 -14 -132 -36 -177 -36 l-23
0 20 28 c20 26 54 35 190 51 6 0 12 -6 12 -14z"/>
<path d="M4856 3805 c-82 -29 -75 -52 10 -30 32 8 78 15 101 15 32 0 43 4 43
15 0 20 -99 20 -154 0z"/>
<path d="M4910 3715 c-16 -19 -5 -47 17 -43 23 4 31 58 10 58 -8 0 -20 -7 -27
-15z"/>
<path d="M5890 3738 c0 -22 71 -84 111 -96 54 -16 129 -24 129 -14 0 6 -24 16
-52 22 -79 19 -119 37 -155 72 -24 23 -33 27 -33 16z"/>
<path d="M6536 3599 c10 -11 27 -42 36 -67 l16 -47 1 41 c1 45 -28 94 -56 94
-14 0 -13 -3 3 -21z"/>
<path d="M6070 3540 c0 -5 10 -16 22 -24 25 -18 133 -22 143 -6 4 6 -13 10
-45 10 -28 0 -66 7 -85 14 -19 8 -35 11 -35 6z"/>
<path d="M6331 3229 c-13 -10 -38 -19 -57 -19 -39 0 -46 -17 -10 -26 27 -6 84
19 93 42 9 23 0 24 -26 3z"/>
<path d="M5706 3571 c-8 -12 -1 -16 54 -31 25 -7 57 -21 71 -31 36 -25 53 -25
40 0 -19 34 -151 85 -165 62z"/>
<path d="M5747 3484 c-4 -4 -7 -20 -7 -36 0 -23 4 -29 18 -26 11 2 17 13 17
32 0 29 -14 43 -28 30z"/>
<path d="M4985 2984 c-4 -88 -15 -212 -24 -276 -20 -131 -12 -159 13 -45 28
130 36 200 36 327 0 185 -16 181 -25 -6z"/>
<path d="M4220 2953 c0 -25 251 -353 319 -417 57 -54 44 -18 -21 57 -34 40
-110 135 -167 210 -103 136 -131 168 -131 150z"/>
<path d="M5703 2613 c-13 -62 -10 -240 5 -255 9 -10 12 18 12 140 0 84 -2 152
-5 152 -2 0 -8 -17 -12 -37z"/>
<path d="M6042 2428 c-141 -138 -268 -262 -282 -276 l-25 -25 44 24 c43 23
541 502 541 520 0 5 -5 9 -10 9 -6 0 -126 -113 -268 -252z"/>
<path d="M6267 2548 c-84 -119 -219 -384 -278 -548 -8 -23 -8 -23 16 5 14 17
25 33 25 38 0 30 206 422 284 540 37 55 -5 25 -47 -35z"/>
<path d="M6239 2349 c-38 -76 -109 -293 -109 -337 0 -36 44 82 125 336 18 53
11 54 -16 1z"/>
<path d="M5884 1793 c3 -16 13 -154 21 -308 19 -370 46 -615 66 -615 5 0 7 10
4 23 -4 21 -38 485 -50 697 -7 123 -24 230 -37 230 -5 0 -7 -12 -4 -27z"/>
<path d="M6023 1745 c50 -161 59 -214 92 -535 14 -135 30 -249 35 -254 18 -18
9 129 -26 434 -21 189 -58 335 -91 362 -14 11 -16 10 -10 -7z"/>
<path d="M5003 1335 c-6 -11 -27 -60 -48 -110 -46 -114 -132 -277 -201 -382
-59 -92 -57 -123 4 -41 80 107 181 304 236 457 26 71 31 118 9 76z"/>
<path d="M5265 1278 c-2 -13 -10 -86 -15 -163 -6 -77 -15 -168 -19 -202 -7
-62 1 -105 13 -67 19 59 47 454 33 454 -4 0 -9 -10 -12 -22z"/>
</g>
</svg>
