<?xml version="1.0" standalone="no"?>
<!DOCTYPE svg PUBLIC "-//W3C//DTD SVG 20010904//EN"
 "http://www.w3.org/TR/2001/REC-SVG-20010904/DTD/svg10.dtd">
<svg version="1.0" xmlns="http://www.w3.org/2000/svg"
 width="1024.000000pt" height="559.000000pt" viewBox="0 0 1024.000000 559.000000"
 preserveAspectRatio="xMidYMid meet">
<metadata>
Created by potrace 1.16, written by Peter Selinger 2001-2019
</metadata>
<g transform="translate(0.000000,559.000000) scale(0.100000,-0.100000)"
fill="#000000" stroke="none">
<path d="M5214 5190 c-12 -5 -25 -13 -29 -19 -3 -6 -17 -8 -30 -5 -31 8 -89
-21 -105 -51 -8 -15 -22 -25 -35 -25 -22 0 -55 -28 -55 -47 0 -5 -13 -24 -30
-41 -26 -27 -30 -39 -30 -86 0 -30 -4 -58 -10 -61 -15 -9 -12 -66 5 -95 8 -14
14 -42 15 -63 0 -45 23 -105 44 -113 8 -3 18 -20 22 -37 8 -39 21 -56 52 -68
24 -9 24 -12 18 -72 -3 -35 -14 -73 -24 -87 -24 -33 -80 -70 -104 -70 -34 0
-209 -93 -257 -136 -56 -50 -85 -102 -144 -254 -24 -64 -63 -152 -86 -197 -22
-46 -41 -87 -41 -93 0 -5 9 -19 21 -31 23 -23 24 -13 -21 -174 -32 -112 -32
-351 -2 -550 27 -173 27 -231 2 -340 -35 -149 -24 -228 37 -287 39 -37 138
-92 185 -102 l26 -6 -14 -55 c-8 -31 -12 -60 -9 -66 16 -24 109 -60 173 -65
37 -3 82 -10 100 -16 28 -8 32 -14 32 -44 0 -24 -8 -42 -25 -58 -14 -13 -25
-32 -25 -43 0 -12 -16 -31 -41 -48 -68 -48 -131 -126 -204 -254 -45 -80 -88
-141 -122 -174 -31 -30 -53 -60 -53 -72 0 -12 -16 -36 -35 -55 -22 -21 -35
-43 -35 -59 0 -18 -11 -33 -36 -50 -89 -61 -92 -108 -15 -217 56 -81 82 -129
105 -200 22 -67 72 -117 139 -137 124 -39 221 -30 233 20 10 37 -10 68 -65
108 -56 40 -58 45 -77 140 -18 88 -18 105 0 105 17 0 49 43 62 82 5 15 25 37
44 50 19 13 53 54 75 91 38 62 374 441 384 432 2 -2 7 -46 12 -97 12 -133 32
-208 92 -359 54 -132 70 -189 82 -281 4 -30 16 -59 32 -79 16 -19 29 -50 34
-82 6 -37 16 -58 33 -72 17 -14 27 -37 35 -78 17 -94 29 -111 78 -115 26 -2
70 7 115 22 40 14 108 32 151 40 87 17 165 49 242 100 105 70 125 105 84 142
-17 15 -32 18 -87 14 -108 -6 -184 -2 -227 13 -34 12 -41 19 -46 48 -6 39 -21
70 -43 89 -11 8 -16 30 -16 65 0 37 -9 72 -30 117 -16 36 -38 110 -49 164 -42
207 -73 401 -72 453 0 30 -11 103 -24 162 -14 59 -25 112 -25 118 0 6 12 11
26 11 15 0 49 12 76 27 l51 28 -7 85 c-3 47 -13 218 -21 380 -15 282 -35 463
-55 501 -14 26 -1 74 26 100 13 12 24 28 24 36 0 23 17 14 43 -24 14 -21 75
-91 135 -157 109 -117 119 -132 141 -211 6 -23 29 -65 51 -95 43 -57 44 -66
19 -128 -13 -30 -12 -34 14 -58 40 -37 94 -50 117 -29 9 8 27 18 40 20 31 6
48 22 71 66 21 43 24 94 8 169 -9 42 -23 63 -83 128 -90 96 -123 145 -170 250
-20 45 -52 119 -73 165 -39 88 -69 141 -114 198 -16 20 -36 64 -45 98 l-15 62
30 35 c29 33 30 36 17 67 -7 18 -25 59 -39 92 -14 33 -42 112 -62 175 -46 143
-88 222 -134 259 -54 42 -189 113 -201 106 -6 -4 -22 1 -35 9 -34 22 -35 73
-2 85 31 12 56 42 67 82 26 89 51 234 45 258 -14 55 -6 158 16 195 17 30 19
41 11 68 -6 18 -10 44 -10 58 0 39 -19 79 -45 91 -13 6 -31 23 -40 39 -23 38
-69 56 -112 43 -27 -9 -36 -7 -52 7 -22 22 -71 32 -99 20z m96 -40 c24 -17 33
-18 54 -9 35 16 85 -5 98 -43 6 -17 17 -28 29 -28 10 0 25 -10 33 -22 16 -27
32 -178 18 -178 -10 0 -37 78 -33 98 2 10 -2 10 -17 1 -24 -15 -52 -5 -52 19
0 10 -6 26 -13 35 -11 16 -12 14 -12 -14 0 -21 -7 -36 -22 -46 -20 -14 -24
-13 -46 11 -30 32 -33 32 -61 -1 -24 -27 -24 -27 -58 -11 l-34 16 -11 -28 c-8
-21 -19 -29 -39 -32 -27 -3 -29 -5 -26 -45 3 -32 -1 -46 -17 -59 -13 -12 -17
-23 -12 -37 8 -21 2 -77 -8 -77 -3 1 -15 15 -26 33 -23 37 -64 47 -89 22 -22
-22 -20 -82 4 -128 11 -20 16 -37 10 -37 -20 0 -45 55 -46 102 -1 27 -7 54
-12 61 -19 22 -23 62 -11 92 6 17 11 49 10 72 -2 34 3 48 24 69 14 14 30 37
35 50 6 14 22 29 37 35 14 5 44 26 66 45 33 31 44 35 72 30 22 -5 36 -2 45 9
18 21 77 19 110 -5z m23 -194 c8 -20 43 -25 71 -11 15 8 28 10 31 4 4 -5 17
-9 29 -9 25 0 39 -24 51 -86 6 -30 4 -32 -33 -38 -64 -10 -69 -24 -45 -121 11
-46 17 -89 13 -95 -11 -18 -98 -2 -104 19 -2 9 -4 5 -3 -9 2 -21 9 -26 46 -32
79 -13 96 16 67 114 -16 50 -11 68 10 40 12 -15 15 -15 23 -2 33 50 39 -88 10
-226 -28 -136 -50 -164 -127 -164 -38 0 -69 9 -130 40 -84 42 -128 83 -138
128 -11 52 -26 71 -58 74 -41 4 -77 65 -74 123 3 35 6 40 30 43 23 3 31 -3 45
-32 16 -35 45 -47 58 -26 4 6 7 32 8 59 1 26 8 56 16 65 9 10 12 29 8 51 -5
30 -3 35 13 35 10 0 27 10 37 23 14 18 24 22 43 17 28 -8 64 2 75 19 9 15 22
14 28 -3z m187 -179 c0 -10 -14 -14 -45 -14 -59 0 -59 21 0 25 33 2 45 -1 45
-11z m-495 -213 c29 -19 37 -78 10 -67 -23 8 -59 83 -40 83 3 0 17 -7 30 -16z
m65 -64 c6 -21 22 -52 35 -68 34 -41 154 -102 214 -109 l50 -6 -6 -63 c-4 -45
-2 -64 6 -64 6 0 11 9 11 20 0 24 3 24 40 5 38 -20 38 -37 0 -69 -40 -33 -105
-42 -194 -26 -81 14 -215 60 -265 91 l-34 21 30 15 c70 33 93 86 93 209 0 46
2 84 5 84 2 0 9 -18 15 -40z m45 -376 c192 -62 341 -35 357 64 3 21 6 20 73
-19 128 -76 150 -105 205 -274 18 -55 52 -149 77 -209 l44 -109 -33 -34 c-27
-28 -147 -99 -153 -91 -2 3 12 246 19 333 l5 60 -9 -53 c-4 -29 -10 -55 -13
-58 -2 -3 -7 26 -11 64 -11 110 -26 141 -18 37 10 -125 6 -382 -7 -490 -6 -49
-13 -110 -16 -135 l-5 -45 13 45 13 45 12 -65 c21 -119 20 -134 -17 -171 -21
-21 -39 -29 -63 -29 l-33 1 23 18 c41 35 23 33 -25 -2 -27 -19 -65 -39 -86
-45 -40 -11 -147 -5 -147 9 0 4 16 13 36 19 19 7 33 14 30 17 -3 3 -49 -9
-102 -27 -116 -39 -141 -37 -256 18 -46 22 -96 43 -113 47 -21 4 -14 -2 23
-19 28 -14 52 -28 52 -32 0 -4 -32 -4 -70 -1 -74 6 -131 32 -150 67 -13 25
-13 113 0 105 14 -9 12 38 -5 115 -18 82 -18 90 -1 90 12 0 39 76 62 174 4 16
19 48 34 70 26 38 54 115 46 124 -2 2 -10 -14 -17 -35 -6 -20 -21 -51 -31 -68
l-19 -30 5 70 c7 88 3 78 -29 -65 -14 -63 -32 -138 -40 -167 l-15 -51 -43 5
c-23 3 -67 16 -98 28 -61 24 -207 119 -215 139 -2 6 18 60 46 119 28 59 64
144 81 189 41 112 87 196 124 225 16 13 75 48 129 77 l100 53 75 -39 c42 -21
112 -50 156 -64z m-614 -664 c34 -22 88 -50 120 -61 l58 -21 -29 -59 c-25 -49
-30 -70 -30 -133 0 -41 -9 -146 -21 -233 -13 -103 -19 -196 -17 -268 l3 -110
42 -58 c33 -46 44 -73 57 -140 8 -45 18 -92 22 -104 4 -17 2 -23 -8 -23 -22 0
-43 29 -66 90 l-20 55 -11 -40 c-17 -62 -13 -114 14 -180 29 -71 20 -91 -24
-48 -18 19 -36 52 -46 89 -23 83 -25 88 -31 81 -11 -10 17 -122 38 -150 29
-41 15 -44 -26 -5 -24 23 -41 53 -55 98 l-21 65 6 -50 c3 -27 10 -58 16 -68
12 -24 6 -30 -15 -14 -10 6 -26 41 -37 77 l-20 65 4 -50 c4 -43 2 -47 -9 -31
-29 39 -29 120 -1 247 29 129 29 145 1 324 -38 233 -38 429 -1 560 8 28 20 69
26 93 6 23 13 42 15 42 2 0 32 -18 66 -40z m1330 -27 c9 -37 27 -76 56 -114
52 -72 76 -118 147 -282 72 -168 91 -199 182 -298 98 -107 101 -112 109 -189
5 -56 3 -71 -17 -110 -25 -49 -55 -61 -50 -21 1 14 9 38 17 55 11 22 12 32 4
37 -6 4 -10 20 -7 37 3 20 0 28 -7 25 -8 -2 -19 21 -31 59 -12 42 -19 56 -22
41 -2 -12 6 -52 17 -88 26 -84 26 -87 -1 -83 -16 2 -30 18 -48 55 -14 29 -37
59 -53 68 -16 10 -36 34 -45 54 -11 26 -17 31 -20 18 -5 -23 31 -80 61 -96 24
-13 53 -80 36 -82 -5 -1 -13 -2 -18 -3 -5 -1 -27 24 -50 54 -38 50 -51 79 -65
150 -3 14 -46 70 -96 125 -49 55 -119 136 -155 179 -75 92 -85 124 -92 292
l-5 112 38 12 c22 7 50 21 64 31 14 10 28 19 32 19 4 0 12 -25 19 -57z m-1094
-135 c6 -40 8 -111 6 -158 -5 -85 -5 -85 26 -114 31 -30 42 -81 22 -102 -20
-20 -64 -175 -86 -299 -12 -71 -25 -130 -28 -130 -3 0 -22 22 -41 50 -36 49
-36 51 -36 150 0 55 7 143 15 195 9 52 18 154 21 225 6 115 9 137 35 193 16
34 35 62 42 62 8 0 16 -26 24 -72z m219 -327 c67 -4 107 -11 119 -21 12 -10
38 -14 84 -13 36 1 98 1 136 0 163 -2 195 1 219 17 32 20 106 22 106 2 0 -15
-30 -28 -110 -48 -71 -17 -381 -17 -475 0 -104 18 -199 44 -207 56 -13 19 -9
28 10 20 9 -4 62 -10 118 -13z m-85 -51 c18 -10 18 -13 4 -40 -17 -33 -55
-185 -54 -215 0 -11 7 7 15 40 8 33 26 93 40 133 25 70 28 73 53 67 14 -4 27
-8 29 -10 2 -2 -6 -42 -18 -90 -12 -47 -20 -91 -18 -97 2 -6 14 27 26 73 13
46 26 90 31 97 6 10 25 11 94 2 105 -13 278 -15 368 -5 60 6 68 5 72 -11 10
-35 35 -218 48 -348 7 -71 15 -124 17 -117 10 30 -31 383 -54 469 -5 19 -2 22
19 22 28 0 36 -18 57 -124 7 -36 8 -37 9 -11 1 17 -6 57 -14 88 -19 72 -19 67
8 67 20 0 25 -8 36 -52 14 -65 36 -311 52 -608 18 -327 22 -291 -35 -319 -43
-20 -55 -22 -86 -12 -61 18 -145 13 -279 -19 -69 -16 -149 -32 -178 -36 -51
-6 -170 9 -205 28 -10 4 -63 15 -119 24 -96 14 -150 32 -164 53 -3 6 1 38 10
73 9 35 17 82 20 105 5 60 15 85 30 79 7 -2 21 1 30 8 14 10 16 21 11 47 -29
144 -29 156 -6 292 23 138 60 278 85 328 16 31 34 36 66 19z m1312 -503 c-15
-31 -31 -56 -35 -56 -13 -1 -8 43 7 63 8 11 15 36 15 55 l0 35 21 -20 21 -21
-29 -56z m-23 67 c0 -22 -39 -84 -52 -84 -6 0 -7 7 -3 18 5 9 13 32 19 50 11
33 36 44 36 16z m89 -26 c-7 -13 -15 -36 -18 -52 -6 -28 -34 -56 -46 -45 -6 6
6 40 24 69 5 8 12 23 15 33 3 9 12 17 21 17 13 0 14 -4 4 -22z m-1608 -245
c-10 -37 -19 -18 -26 53 l-6 59 20 -42 c14 -29 17 -50 12 -70z m896 -311 c17
-11 63 -206 63 -271 0 -51 -10 -129 -26 -201 -3 -14 -3 -22 1 -18 4 3 12 30
19 60 15 62 16 59 41 -102 29 -188 56 -303 92 -393 25 -64 34 -96 29 -118 -6
-32 4 -60 35 -94 9 -11 20 -32 24 -46 6 -23 3 -27 -22 -32 -16 -3 -58 -27 -94
-53 -133 -99 -186 -116 -207 -69 -7 14 -12 39 -12 54 0 16 -13 44 -30 66 -16
21 -30 50 -30 64 -1 57 -31 167 -85 301 -58 146 -95 296 -95 393 -1 29 -7 63
-15 77 -8 14 -14 42 -15 63 0 25 -18 74 -55 147 -53 106 -54 110 -32 110 13 0
77 13 143 29 166 41 243 51 271 33z m-471 -67 c21 -6 112 -207 119 -262 l6
-53 -118 -127 c-65 -71 -138 -150 -163 -176 -44 -47 -98 -123 -132 -185 -9
-17 -32 -37 -50 -45 -26 -11 -37 -24 -51 -66 -10 -29 -25 -55 -32 -57 -19 -8
-112 24 -153 51 -38 26 -78 76 -99 123 -14 33 -13 35 22 73 19 21 35 48 35 58
0 10 26 45 58 77 37 38 82 103 127 183 60 106 82 135 152 200 46 42 83 81 83
88 0 7 11 24 25 39 14 15 25 37 25 50 0 47 6 51 73 41 34 -5 67 -11 73 -12z
m-678 -839 c29 -64 137 -146 194 -146 12 0 19 -16 28 -72 6 -40 15 -86 21
-102 13 -42 12 -46 -18 -46 -16 0 -34 -4 -42 -9 -8 -5 4 -7 32 -4 43 5 50 3
97 -37 61 -51 76 -75 59 -96 -16 -19 -120 -19 -187 1 -78 23 -106 53 -143 152
-18 47 -52 112 -75 143 -88 120 -93 151 -34 204 47 42 53 44 68 12z m1652
-372 c155 -1 150 0 150 -24 0 -46 -202 -159 -333 -185 -42 -8 -111 -26 -151
-40 -121 -41 -129 -37 -150 73 l-13 71 29 6 c16 4 64 33 108 66 103 78 112 81
180 55 45 -17 79 -21 180 -22z"/>
<path d="M5211 4803 c-21 -17 -19 -18 64 -19 60 0 85 3 85 12 0 27 -118 32
-149 7z"/>
<path d="M5239 4749 c-23 -19 -23 -20 -2 -10 29 15 30 14 36 -10 6 -23 27 -17
27 8 0 10 6 13 16 9 14 -5 15 -4 4 9 -17 21 -54 19 -81 -6z"/>
<path d="M4987 4724 c-13 -14 -7 -26 7 -15 19 16 31 -3 31 -48 0 -21 6 -36 15
-39 13 -5 13 -3 1 12 -12 14 -12 19 -2 26 11 6 11 13 0 36 -14 28 -38 41 -52
28z"/>
<path d="M5137 4631 c3 -11 14 -28 25 -38 19 -17 19 -15 -2 20 -25 42 -31 46
-23 18z"/>
<path d="M5325 4500 c-22 -5 -7 -8 53 -9 49 -1 82 3 82 9 0 11 -90 11 -135 0z"/>
<path d="M5367 4448 c6 -11 51 -10 57 0 3 5 -10 8 -29 8 -18 -1 -31 -4 -28 -8z"/>
<path d="M5190 4278 c0 -12 52 -119 57 -114 2 2 -9 30 -26 62 -16 33 -30 56
-31 52z"/>
<path d="M4985 4123 c6 -6 53 -41 105 -78 93 -66 201 -125 229 -125 8 0 -21
17 -65 39 -43 21 -113 63 -155 94 -72 52 -136 91 -114 70z"/>
<path d="M5469 4054 c-13 -14 -40 -35 -59 -45 -27 -15 -29 -18 -10 -13 32 7
69 34 88 62 19 30 11 28 -19 -4z"/>
<path d="M4774 4022 c20 -30 45 -81 56 -115 16 -47 19 -53 14 -23 -7 49 -54
144 -84 171 -14 13 -9 1 14 -33z"/>
<path d="M5516 4015 c-4 -22 -21 -65 -37 -95 -24 -47 -25 -51 -6 -27 28 33 60
119 55 144 -2 10 -7 1 -12 -22z"/>
<path d="M5595 3408 c-11 -73 -55 -210 -85 -265 -15 -29 -24 -50 -19 -47 18
11 69 124 88 196 22 82 35 158 28 158 -3 0 -8 -19 -12 -42z"/>
<path d="M4815 3335 c7 -34 61 -155 70 -155 3 0 -4 19 -16 42 -12 24 -30 65
-41 93 -10 27 -16 37 -13 20z"/>
<path d="M5022 3238 c18 -34 57 -87 86 -118 l53 -55 -61 79 c-33 43 -70 96
-81 117 -10 22 -22 39 -25 39 -3 0 10 -28 28 -62z"/>
<path d="M4552 3295 c0 -5 6 -26 13 -45 7 -19 14 -28 14 -20 0 8 -6 29 -14 45
-7 17 -13 26 -13 20z"/>
<path d="M5784 3314 c-18 -14 -18 -15 4 -4 12 6 22 13 22 15 0 8 -5 6 -26 -11z"/>
<path d="M5152 2788 c-14 -86 -29 -276 -36 -438 -7 -158 8 -50 23 170 7 91 17
202 22 248 14 103 6 119 -9 20z"/>
<path d="M5243 2800 c0 -30 2 -43 4 -27 2 15 2 39 0 55 -2 15 -4 2 -4 -28z"/>
<path d="M5252 2715 c0 -16 2 -22 5 -12 2 9 2 23 0 30 -3 6 -5 -1 -5 -18z"/>
<path d="M5410 2677 c0 -13 53 -147 57 -144 2 3 -8 35 -22 73 -24 63 -35 86
-35 71z"/>
<path d="M5426 2425 c32 -66 79 -183 105 -260 26 -77 48 -132 48 -123 2 37
-82 267 -135 372 -75 151 -88 159 -18 11z"/>
<path d="M5470 2515 c0 -5 5 -17 10 -25 5 -8 10 -10 10 -5 0 6 -5 17 -10 25
-5 8 -10 11 -10 5z"/>
<path d="M4905 2403 c-3 -43 -15 -127 -25 -188 -10 -60 -21 -126 -25 -145 -5
-32 -4 -33 5 -10 23 52 73 420 57 420 -3 0 -8 -35 -12 -77z"/>
<path d="M5219 1774 c14 -29 135 -141 174 -160 38 -19 31 -12 -46 46 -32 24
-77 64 -99 89 -22 25 -35 37 -29 25z"/>
<path d="M5305 1550 c7 -11 65 -43 65 -36 0 2 -16 13 -36 25 -19 12 -32 16
-29 11z"/>
<path d="M5440 1081 c0 -22 99 -115 166 -155 41 -25 74 -44 74 -41 0 2 -33 26
-72 53 -40 27 -94 72 -120 100 -27 28 -48 47 -48 43z"/>
<path d="M5660 833 c-14 -14 -42 -37 -63 -51 -20 -14 -35 -27 -33 -30 8 -7 97
60 114 86 19 29 13 28 -18 -5z"/>
<path d="M5704 740 c-22 -11 -56 -37 -75 -56 -21 -23 -26 -33 -14 -26 11 5 29
20 40 33 11 12 43 32 70 45 28 13 43 23 35 23 -8 1 -33 -8 -56 -19z"/>
<path d="M4958 1708 c6 -6 32 -12 59 -14 48 -3 41 1 -31 16 -26 6 -35 5 -28
-2z"/>
<path d="M4926 1640 c6 -6 28 -13 50 -15 21 -2 30 -2 19 1 -11 3 -33 10 -50
15 -21 7 -26 6 -19 -1z"/>
<path d="M4812 1295 c-46 -24 -111 -53 -145 -64 -51 -17 -55 -19 -22 -15 41 6
204 79 240 107 30 24 19 20 -73 -28z"/>
<path d="M4516 1065 c3 -8 9 -14 12 -13 4 1 31 -6 61 -15 30 -9 68 -17 85 -16
20 0 5 6 -38 15 -38 9 -82 22 -98 30 -24 12 -27 12 -22 -1z"/>
<path d="M4539 1013 c11 -21 61 -63 76 -63 4 0 -5 10 -21 22 -16 13 -37 32
-47 43 -18 20 -18 20 -8 -2z"/>
</g>
</svg>
