<?xml version="1.0" standalone="no"?>
<!DOCTYPE svg PUBLIC "-//W3C//DTD SVG 20010904//EN"
 "http://www.w3.org/TR/2001/REC-SVG-20010904/DTD/svg10.dtd">
<svg version="1.0" xmlns="http://www.w3.org/2000/svg"
 width="1024.000000pt" height="559.000000pt" viewBox="0 0 1024.000000 559.000000"
 preserveAspectRatio="xMidYMid meet">
<metadata>
Created by potrace 1.16, written by Peter Selinger 2001-2019
</metadata>
<g transform="translate(0.000000,559.000000) scale(0.100000,-0.100000)"
fill="#000000" stroke="none">
<path d="M3640 5155 c-118 -52 -223 -99 -232 -105 -10 -5 -126 -10 -278 -10
-144 -1 -268 -4 -276 -7 -12 -4 -14 -311 -14 -2163 l0 -2157 -61 -7 c-34 -3
-89 -6 -122 -6 -33 0 -57 -3 -53 -7 4 -4 90 -6 191 -4 l184 3 442 -186 442
-187 61 14 61 13 3 51 3 51 84 3 c140 6 175 54 116 163 -19 37 -32 78 -36 121
-7 63 -7 65 24 94 20 19 31 39 31 57 0 18 10 36 30 53 22 19 35 43 46 86 21
80 55 138 164 275 51 63 117 157 147 210 31 52 71 111 90 131 31 33 81 137
147 305 l28 71 132 6 c97 4 152 11 213 29 l82 25 122 -130 123 -130 2 -61 c1
-43 -6 -84 -23 -136 -25 -73 -25 -80 -19 -266 6 -167 4 -198 -11 -240 -19 -55
-27 -261 -11 -281 6 -7 6 -18 -1 -30 -5 -11 -13 -47 -17 -81 -11 -102 17 -125
166 -136 45 -3 101 -16 140 -31 180 -71 372 -68 395 6 12 36 -25 70 -135 129
-57 30 -124 74 -151 98 -46 41 -47 44 -51 105 -2 47 1 70 16 95 15 27 17 45
12 95 -5 48 0 85 20 167 45 188 114 549 114 601 0 60 -30 140 -106 286 -30 57
-54 112 -54 123 0 38 -79 172 -197 336 -40 55 -73 110 -73 122 0 11 -11 34
-25 50 -14 17 -25 38 -25 48 0 11 -7 32 -15 47 -14 27 -13 29 24 65 34 33 39
45 50 115 11 67 18 84 54 129 23 28 56 70 73 92 17 23 44 52 58 66 26 23 28
24 40 8 7 -10 22 -18 34 -18 15 0 31 -19 60 -73 50 -90 114 -173 142 -182 20
-6 20 -8 20 -1099 0 -863 3 -1096 13 -1103 10 -8 118 -41 402 -123 158 -45
434 -128 686 -204 101 -31 88 -30 155 -10 l54 15 0 163 0 163 83 6 c45 4 106
7 136 7 30 0 52 3 48 6 -3 3 -65 5 -136 5 l-131 -2 0 919 0 919 25 11 c26 12
45 47 45 84 0 11 -16 35 -35 54 l-35 33 -2 1087 -3 1088 -55 19 -55 18 -450
-111 c-248 -61 -458 -113 -467 -116 -15 -4 -17 5 -20 68 l-3 73 -1152 3 -1153
2 0 89 0 89 -52 12 c-29 6 -60 13 -68 16 -8 2 -112 -39 -230 -91z m210 -998
l0 -1053 -51 -49 c-77 -75 -93 -103 -99 -165 l-5 -55 -85 0 c-80 0 -85 1 -88
22 -5 35 -42 40 -67 9 -13 -16 -31 -26 -48 -26 -33 0 -53 -31 -37 -60 7 -13
21 -20 40 -20 17 0 30 -4 30 -9 0 -17 31 -41 52 -41 11 0 22 8 25 20 9 32 23
12 23 -32 l0 -41 -87 6 c-151 11 -358 28 -359 30 -1 1 -4 54 -5 117 l-4 114
303 -3 302 -3 0 1114 0 1113 73 32 c39 17 75 32 80 32 4 1 7 -473 7 -1052z
m90 1044 l25 -7 2 -999 c1 -550 0 -1008 -3 -1017 -3 -9 -25 -28 -49 -42 l-45
-25 0 817 c0 449 -3 922 -7 1050 l-6 232 29 -1 c16 -1 40 -4 54 -8z m-262
-182 l-3 -110 -260 -105 c-143 -58 -276 -111 -296 -119 l-36 -13 5 101 c2 56
7 105 11 108 3 3 71 34 151 69 80 35 204 89 275 121 72 32 136 58 143 58 10 1
12 -25 10 -110z m3542 -713 l0 -785 -32 11 c-18 6 -37 17 -43 24 -5 7 -29 15
-51 17 l-42 3 -3 734 -4 734 85 22 c47 12 86 23 88 23 1 1 2 -352 2 -783z
m102 -389 c-1 -628 -2 -1640 -2 -2248 l0 -1107 -40 -10 -40 -10 4 1447 c2 795
3 1453 3 1461 0 8 -1 380 -3 827 l-4 812 42 -15 43 -14 -3 -1143z m-294 1011
l-3 -112 -30 -7 c-28 -6 -87 -19 -245 -54 -147 -32 -400 -85 -410 -85 -5 0
-10 9 -10 20 0 12 -11 32 -25 46 -14 14 -25 32 -25 40 0 8 -11 26 -25 39 -13
14 -23 25 -22 26 5 2 783 197 790 198 4 1 6 -49 5 -111z m-3718 84 c0 -3 -101
-51 -245 -115 l-100 -44 -5 -2069 -5 -2069 -47 -3 -48 -3 0 2157 0 2156 225
-3 c124 -2 225 -5 225 -7z m2968 -64 l-3 -61 -39 -14 c-36 -12 -41 -12 -61 7
-12 11 -33 20 -48 20 -14 0 -43 11 -63 25 -38 26 -55 29 -89 16 -12 -5 -33 -2
-53 6 -37 16 -73 9 -98 -18 -10 -11 -30 -19 -49 -19 -21 0 -40 -9 -55 -25
l-23 -25 -854 0 -853 0 0 75 0 75 1145 0 1146 0 -3 -62z m-350 -33 c16 -12 27
-13 41 -5 31 16 57 12 89 -15 18 -15 42 -25 61 -25 25 0 36 -7 49 -30 10 -18
25 -30 38 -30 24 0 38 -14 49 -48 3 -12 18 -34 32 -48 19 -19 23 -31 18 -53
-3 -17 -2 -32 4 -36 16 -9 13 -81 -3 -95 -8 -6 -16 -23 -18 -37 -2 -15 -9 -28
-15 -31 -18 -5 -16 58 2 82 8 11 15 25 15 30 0 6 -5 3 -11 -6 -12 -22 -49 -24
-49 -3 0 8 -4 15 -9 15 -5 0 -14 -7 -21 -15 -19 -23 -46 -18 -69 11 -17 22
-24 24 -36 14 -22 -18 -60 -5 -74 26 -9 20 -15 24 -23 16 -22 -22 -58 -14 -68
14 -12 31 -30 22 -30 -15 0 -31 -14 -47 -45 -53 -14 -2 -21 -12 -23 -36 -2
-24 -10 -35 -28 -42 -18 -7 -24 -17 -24 -40 0 -23 -4 -30 -20 -30 -16 0 -20 7
-20 34 0 84 -82 114 -127 47 -27 -40 -29 -81 -8 -142 18 -50 6 -74 -19 -37
-11 16 -14 35 -10 55 3 18 1 33 -5 37 -13 9 -15 63 -2 71 6 3 5 18 -3 37 -15
35 -5 82 20 92 10 4 13 13 8 31 -9 37 2 70 30 85 15 7 26 23 28 39 2 20 11 28
36 36 17 5 32 15 32 21 0 20 52 56 74 50 12 -3 31 5 48 20 34 28 55 30 86 9z
m-2264 -55 c-20 -18 -529 -210 -543 -205 -8 3 105 54 265 118 242 97 313 119
278 87z m-598 -4167 c-2 -2 -20 3 -40 11 l-36 15 0 1919 c0 1055 -3 1979 -6
2053 l-7 134 44 21 44 21 3 -2085 c1 -1147 0 -2087 -2 -2089z m604 3196 l0
-952 -255 5 c-140 2 -257 7 -260 9 -2 3 -5 383 -5 845 l-1 839 213 83 c117 46
233 91 258 101 25 11 46 19 48 20 1 1 2 -427 2 -950z m1965 931 c-18 -20 -31
-20 -832 -20 -806 0 -813 0 -813 20 0 20 7 20 832 20 830 0 831 0 813 -20z
m1390 -39 c-11 -10 -75 -25 -345 -81 -107 -22 -223 -47 -257 -55 -72 -17 -101
-19 -87 -6 5 5 117 32 249 60 132 29 276 60 320 71 88 20 134 25 120 11z
m-1415 -7 c0 -4 -11 -17 -25 -30 -17 -16 -25 -34 -25 -56 0 -19 -9 -51 -20
-73 -13 -25 -17 -47 -13 -60 4 -11 8 -45 10 -75 5 -121 9 -148 22 -163 7 -9
11 -23 8 -32 -5 -11 -12 -12 -36 -4 -22 8 -46 7 -83 -1 -29 -6 -132 -15 -228
-20 -201 -9 -245 -20 -346 -84 -38 -25 -122 -68 -187 -97 -95 -41 -118 -56
-123 -75 -4 -14 -20 -32 -38 -41 -65 -33 -222 -128 -244 -147 -12 -11 -33 -38
-46 -60 -13 -23 -41 -70 -63 -106 -45 -75 -71 -132 -125 -285 -21 -60 -43
-114 -48 -119 -7 -7 -10 268 -10 762 l0 772 810 0 c446 0 810 -3 810 -6z
m1420 -612 l0 -588 -33 -12 c-19 -7 -83 -45 -143 -85 -104 -70 -113 -74 -194
-85 -96 -14 -172 -15 -283 -6 l-77 7 1 281 c1 155 4 403 7 551 6 234 9 275 25
298 9 14 17 40 17 56 0 34 -10 30 160 66 69 14 204 43 300 64 96 21 185 39
198 40 l22 1 0 -588z m-3900 -372 c0 -833 0 -840 -20 -840 -20 0 -20 7 -20
850 0 848 0 851 20 840 20 -11 20 -21 20 -850z m2851 805 c15 5 25 1 36 -15
12 -16 24 -21 52 -19 22 2 47 -4 63 -15 18 -12 37 -16 52 -12 39 10 56 -2 56
-39 0 -69 -11 -95 -44 -103 -24 -7 -32 -5 -34 6 -3 9 -9 4 -18 -13 -8 -16 -14
-58 -14 -104 0 -122 -17 -150 -67 -111 -14 11 -32 20 -41 20 -9 0 -13 7 -9 20
3 11 1 20 -4 20 -5 0 -9 -2 -9 -4 0 -2 -3 -11 -6 -19 -3 -10 10 -23 42 -41 87
-48 104 -34 105 88 1 72 3 84 14 70 8 -12 14 -14 19 -6 16 27 23 9 14 -40 -11
-59 -135 -301 -170 -330 -49 -42 -119 -16 -212 80 -95 98 -106 117 -106 182 0
70 -21 54 -22 -18 -2 -57 8 -76 89 -169 l54 -61 -55 -32 c-31 -17 -58 -36 -62
-42 -4 -5 6 -2 22 8 27 18 28 18 21 1 -6 -16 -4 -16 19 2 38 30 48 26 27 -10
-36 -62 -100 -75 -169 -34 -74 43 -124 136 -139 256 -10 78 -2 95 53 119 26
12 57 31 70 43 14 13 37 22 54 22 18 0 33 6 36 14 3 8 0 11 -6 7 -30 -18 -72
50 -75 124 -1 44 25 90 53 90 24 0 50 -36 50 -70 0 -32 17 -50 46 -50 22 0 34
17 34 48 0 10 10 22 23 27 14 6 23 21 25 38 2 19 11 31 27 37 14 5 30 18 37
29 9 15 16 17 30 10 10 -6 28 -7 39 -4z m304 -922 c-6 -235 -10 -283 -21 -283
-22 0 -16 993 6 1030 14 23 15 3 18 -220 2 -135 0 -372 -3 -527z m-74 683 c-7
-8 -21 -12 -33 -8 -21 5 -21 6 -2 13 33 13 48 11 35 -5z m21 -493 c-3 -474 -4
-482 -39 -483 -18 0 -27 44 -14 68 8 15 6 34 -10 78 -27 79 -46 165 -55 244
-3 36 -13 80 -20 99 -27 65 -19 106 45 220 60 107 81 163 81 214 0 15 3 27 8
27 4 0 6 -210 4 -467z m-727 385 c-36 -19 -45 -40 -45 -107 0 -113 40 -211
112 -278 79 -72 159 -80 217 -21 16 17 33 44 36 59 9 39 16 41 63 19 45 -22
102 -26 132 -10 32 17 53 -38 60 -160 4 -58 8 -96 9 -85 1 11 10 -9 20 -45 10
-36 24 -86 31 -111 13 -46 13 -47 -16 -73 -45 -40 -130 -77 -201 -87 -79 -11
-111 -4 -115 24 -4 32 61 122 98 136 17 6 41 23 55 38 16 19 17 23 4 12 -11
-9 -35 -24 -54 -34 -38 -19 -36 -13 14 50 33 41 59 85 51 85 -2 0 -14 -16 -26
-36 -26 -41 -36 -40 -19 2 13 33 29 98 23 91 -2 -2 -24 -45 -49 -95 -60 -125
-134 -231 -197 -286 -80 -68 -115 -100 -95 -86 46 33 20 -7 -62 -96 -88 -96
-116 -141 -45 -73 l36 34 -7 -50 c-15 -106 -35 -128 -135 -151 -63 -15 -73
-12 -33 11 15 9 19 14 9 10 -108 -33 -150 -38 -225 -26 -104 17 -196 67 -286
155 -70 68 -80 68 -27 -1 13 -18 20 -33 14 -33 -21 0 -134 84 -166 123 -69 86
-73 123 -21 200 l35 52 1 -45 c1 -41 2 -39 16 30 8 41 20 99 26 129 l12 54 85
42 c85 42 85 43 147 32 45 -8 68 -8 85 1 20 9 17 11 -27 12 -27 1 -59 5 -69 9
-16 6 -10 10 28 21 25 7 49 17 52 21 18 30 -153 -22 -254 -76 -34 -19 -69 -32
-78 -28 -18 7 -90 110 -111 161 -20 49 -34 148 -26 196 6 37 9 40 90 77 47 22
87 39 91 39 3 0 -3 -10 -14 -22 -10 -11 15 3 56 33 166 121 186 128 417 140
100 5 199 13 220 18 21 5 47 9 58 10 l20 0 -20 -11z m-935 -443 c6 -27 27 -76
46 -108 20 -32 34 -60 32 -62 -2 -2 -46 -13 -98 -25 -93 -21 -120 -30 -87 -30
9 0 17 -2 17 -5 0 -19 -74 -138 -120 -192 -167 -199 -233 -317 -250 -448 -8
-59 -18 -93 -40 -128 -16 -26 -35 -65 -41 -87 -21 -70 -46 -43 -34 36 4 29 16
56 30 70 13 13 19 24 12 24 -18 0 -62 -30 -152 -104 -44 -36 -85 -66 -92 -66
-30 0 -20 26 36 87 57 62 71 83 54 83 -4 0 -38 -30 -75 -67 -68 -67 -68 -67
-68 -37 0 31 37 91 79 128 11 11 21 26 21 35 0 9 -25 -10 -60 -48 -38 -40 -60
-58 -60 -47 0 25 35 88 64 115 14 14 26 31 26 40 0 10 -14 1 -40 -24 -31 -31
-40 -35 -40 -21 0 27 126 147 190 180 31 16 61 38 66 50 6 12 23 44 37 71 15
28 45 101 67 163 39 112 91 219 165 340 37 60 47 69 165 138 l125 75 7 -43 c5
-24 13 -65 18 -93z m126 -216 c21 -20 21 -22 8 -82 -10 -41 -30 -84 -61 -129
-45 -65 -46 -69 -40 -126 6 -71 -13 -135 -61 -205 -54 -77 -100 -185 -127
-297 -14 -58 -48 -197 -75 -309 -28 -112 -50 -209 -50 -217 0 -7 20 -25 45
-40 42 -24 45 -29 40 -58 -2 -17 -9 -73 -15 -125 -12 -100 -17 -116 -49 -145
-12 -11 -21 -30 -21 -42 0 -15 -26 -52 -71 -101 -82 -90 -120 -165 -173 -333
-20 -63 -40 -122 -46 -130 -6 -10 -10 221 -10 693 0 685 1 707 19 707 24 0 37
16 50 65 6 22 22 56 36 75 29 39 40 78 50 170 5 56 15 80 68 170 34 58 92 139
128 180 75 86 115 143 153 218 22 43 31 52 54 52 15 0 47 7 72 14 25 8 47 15
49 15 3 1 15 -8 27 -20z m2424 -49 c0 -5 -17 -10 -37 -10 -40 -1 -165 -59
-128 -60 12 0 38 9 60 20 28 14 59 20 107 20 83 0 97 -15 20 -23 -31 -3 -82
-15 -112 -28 -63 -26 -65 -27 -58 -34 2 -3 29 3 59 14 30 10 87 20 127 23 61
3 72 1 70 -12 -2 -10 -24 -19 -64 -26 -65 -11 -176 -53 -169 -64 2 -3 33 -2
68 3 66 10 157 2 157 -13 0 -11 -21 -17 -95 -25 -65 -7 -178 -62 -189 -91 -8
-21 20 -54 46 -54 22 0 60 -18 70 -34 14 -21 9 -38 -9 -31 -10 4 -54 13 -97
21 -54 10 -95 24 -126 44 -29 19 -60 30 -82 30 -20 0 -112 -24 -204 -54 -217
-69 -269 -79 -397 -74 -87 3 -109 7 -127 23 -24 22 -134 195 -127 201 2 2 26
8 53 13 66 13 159 48 174 66 18 22 37 18 43 -7 l6 -23 258 1 c142 1 277 6 299
11 23 6 82 38 130 71 140 95 173 112 227 112 26 0 47 -4 47 -10z m100 -143 c0
-9 -12 -11 -42 -8 l-43 5 40 7 c22 3 41 7 43 8 1 0 2 -5 2 -12z m0 -1471 l0
-1384 -87 28 -88 28 2 1238 c2 1230 2 1237 23 1251 26 18 26 55 0 78 -23 21
-29 108 -8 121 10 6 45 12 146 23 9 1 12 -282 12 -1383z m-195 1304 c0 -32
-13 -37 -47 -19 l-21 11 24 19 c34 26 44 24 44 -11z m-213 -79 c30 -20 67 -33
123 -42 44 -7 83 -17 86 -22 3 -5 7 -37 8 -73 l2 -64 -208 0 c-114 0 -279 3
-365 7 l-158 6 0 48 0 47 48 11 c26 6 115 33 197 60 179 59 208 61 267 22z
m-2001 -131 c35 -16 69 -30 75 -30 7 0 35 -15 63 -34 98 -66 149 -79 304 -78
77 1 148 4 159 8 12 4 18 2 15 -4 -27 -42 -300 -51 -432 -14 -131 38 -299 136
-362 213 -20 23 -21 31 -12 57 l11 31 58 -59 c37 -38 81 -71 121 -90z m-183
27 l22 -23 -30 -40 c-16 -22 -34 -54 -39 -70 -11 -32 -14 -34 42 52 16 24 32
44 35 44 4 0 18 -9 31 -19 l23 -18 -26 -51 c-29 -58 -57 -153 -55 -192 1 -18
4 -14 10 15 15 68 41 148 61 187 l18 38 38 -24 c117 -73 224 -111 365 -127
112 -13 232 -2 287 26 42 22 48 19 56 -22 4 -21 17 -51 30 -66 13 -16 24 -38
24 -49 0 -12 33 -67 73 -122 76 -105 187 -280 187 -294 0 -5 -21 -9 -46 -11
-56 -3 -155 -38 -300 -106 -61 -29 -145 -64 -187 -78 -224 -75 -479 -55 -767
60 -154 61 -160 66 -150 106 5 18 36 151 70 297 42 180 73 289 97 340 36 80
91 170 102 170 4 0 17 -10 29 -23z m1545 3 l58 0 -7 -1102 c-4 -607 -7 -1104
-8 -1105 -1 -1 -34 8 -74 19 l-72 21 0 1090 0 1089 23 -6 c12 -3 48 -6 80 -6z
m107 -45 c0 -33 -4 -45 -15 -45 -11 0 -15 12 -15 45 0 33 4 45 15 45 11 0 15
-12 15 -45z m738 -81 c9 -2 12 -36 12 -125 l0 -122 -132 6 c-73 3 -251 12
-395 18 l-263 13 0 113 0 113 383 -6 c210 -3 388 -7 395 -10z m362 -73 c14
-26 13 -64 -2 -79 -22 -22 -28 -13 -28 43 0 56 11 70 30 36z m-3880 0 c0 -5
-7 -14 -15 -21 -8 -7 -15 -23 -15 -36 0 -12 7 -29 15 -38 19 -18 19 -26 0 -26
-8 0 -19 9 -25 19 -21 41 -5 111 25 111 8 0 15 -4 15 -9z m-70 -51 c0 -13 -7
-20 -20 -20 -13 0 -20 7 -20 20 0 13 7 20 20 20 13 0 20 -7 20 -20z m254 4 c9
-3 16 -14 16 -24 0 -17 -8 -18 -92 -14 -110 7 -118 9 -118 29 0 12 16 15 89
15 49 0 96 -3 105 -6z m277 -1233 c1 -655 0 -1194 -3 -1196 -2 -2 -23 -8 -46
-13 l-42 -10 0 1172 0 1171 42 37 c24 20 44 35 45 34 2 -1 3 -539 4 -1195z
m-343 1077 c-3 -102 -3 -103 -28 -103 -23 0 -26 5 -32 55 -3 30 -6 76 -7 103
l-1 47 35 0 36 0 -3 -102z m118 44 c41 -45 48 -47 97 -27 16 7 17 -52 17
-1150 0 -922 -3 -1156 -12 -1152 -7 3 -43 17 -80 33 l-68 28 0 1108 0 1108
-25 6 c-22 5 -25 12 -25 48 0 24 3 45 6 48 13 13 52 -9 90 -50z m2542 -804
c-3 -755 -4 -803 -20 -806 -17 -3 -18 21 -18 405 0 703 11 1203 27 1203 11 0
13 -136 11 -802z m462 781 c146 -6 271 -12 278 -14 9 -4 12 -133 12 -602 0
-329 -3 -722 -7 -874 l-6 -276 -141 37 c-78 21 -239 63 -358 95 l-218 58 0
800 0 800 88 -6 c48 -4 206 -11 352 -18z m-3612 -871 c-3 -822 -4 -873 -20
-876 -17 -3 -18 44 -18 872 0 870 0 876 20 876 20 0 20 -5 18 -872z m225 851
c167 -12 177 -14 178 -33 2 -70 33 -112 73 -100 29 9 30 9 36 62 3 26 10 47
15 47 7 0 11 -324 13 -947 l2 -946 -219 83 c-120 46 -237 89 -260 96 l-41 12
0 875 c0 703 2 873 13 869 7 -2 92 -10 190 -18z m2507 -553 c113 -226 117
-271 33 -440 -18 -38 -32 -71 -30 -73 2 -1 16 22 31 53 15 31 29 54 31 52 4
-4 -58 -303 -92 -442 -22 -93 -25 -117 -16 -159 9 -43 7 -53 -15 -94 -20 -39
-22 -51 -14 -84 10 -38 9 -40 -18 -54 -16 -8 -60 -20 -98 -27 -57 -9 -79 -9
-123 3 l-54 14 -1 100 c-1 72 5 118 19 165 17 57 18 80 11 200 -4 74 -7 155
-5 180 3 51 28 152 47 192 11 20 11 33 2 59 -9 27 -8 34 7 45 16 12 13 18 -36
71 -29 32 -91 97 -138 145 l-85 87 28 11 c37 14 29 16 118 -36 44 -25 82 -44
84 -42 2 3 -33 25 -78 50 l-81 46 59 30 c84 42 202 90 249 101 83 19 75 26
165 -153z m-1357 19 c88 -34 272 -85 309 -85 15 0 18 -5 12 -22 -11 -37 -95
-240 -117 -283 -24 -49 -93 -114 -169 -162 -32 -20 -58 -38 -58 -40 0 -3 26 9
57 26 31 17 58 30 59 28 6 -6 -84 -148 -131 -208 -159 -200 -197 -262 -208
-332 -4 -24 -19 -53 -41 -78 -23 -25 -36 -49 -36 -67 0 -54 -42 -65 -138 -37
-51 16 -52 16 -52 55 l0 39 43 -24 c23 -14 51 -24 62 -24 13 0 7 5 -17 14 -86
32 -88 35 -88 152 0 92 3 109 24 146 13 23 43 101 66 172 56 171 80 217 155
295 67 70 85 97 85 129 0 10 12 28 26 38 25 18 28 30 45 159 20 158 18 144 22
144 1 0 42 -16 90 -35z m2017 -1100 c118 -31 235 -63 260 -70 25 -7 86 -23
135 -36 90 -22 114 -33 102 -45 -5 -6 -206 44 -367 91 -25 7 -92 25 -150 40
-58 15 -125 33 -149 41 -25 8 -53 14 -63 14 -18 0 -24 11 -11 24 4 3 12 5 17
3 6 -3 108 -30 226 -62z m-135 -10 c72 -19 191 -51 265 -71 74 -19 169 -45
210 -56 41 -11 95 -25 120 -32 l45 -11 3 -104 c1 -58 1 -110 -2 -117 -3 -8
-47 1 -153 33 -215 64 -303 90 -438 129 -66 19 -138 41 -160 48 l-40 14 -3
101 c-2 77 0 101 10 101 7 0 72 -16 143 -35z m-2985 -191 c140 -53 259 -99
264 -104 32 -31 -24 -17 -189 47 -104 41 -227 88 -272 105 -74 27 -105 48 -70
48 7 0 127 -43 267 -96z m5 -51 c138 -53 255 -100 261 -105 18 -13 19 -232 2
-225 -7 3 -71 30 -143 60 -71 30 -200 84 -285 120 l-155 66 -3 106 -3 106 38
-16 c21 -9 151 -59 288 -112z m641 62 c13 -3 35 -7 48 -10 21 -4 24 -12 31
-77 4 -50 16 -89 36 -128 52 -100 39 -120 -86 -128 l-86 -5 3 74 3 74 45 7 45
6 -47 -1 -48 -2 0 103 c0 91 2 103 16 98 9 -3 27 -8 40 -11z m1961 -160 c50
-25 98 -54 107 -67 15 -21 15 -24 -4 -43 -18 -18 -32 -20 -118 -19 -86 2 -111
7 -215 43 -87 30 -133 41 -177 41 -108 0 -133 29 -112 129 6 29 13 55 14 56 2
1 31 -2 64 -8 51 -9 74 -7 140 9 l79 19 65 -58 c42 -38 97 -74 157 -102z"/>
<path d="M6228 4698 c7 -7 12 -21 12 -32 0 -10 3 -17 6 -13 10 10 -5 57 -18
57 -9 0 -9 -3 0 -12z"/>
<path d="M5647 4493 c-4 -3 -7 -13 -7 -22 0 -12 3 -11 13 4 8 10 19 15 25 11
17 -10 15 -41 -3 -56 -20 -16 -19 -44 2 -61 15 -13 15 -12 2 8 -12 20 -11 25
9 46 20 21 21 28 11 51 -11 24 -37 34 -52 19z"/>
<path d="M5910 4460 c-12 -8 -11 -10 6 -10 19 0 119 -59 112 -65 -2 -2 -25 2
-51 8 -38 8 -50 8 -60 -3 -10 -10 -9 -12 6 -7 23 8 47 -2 47 -19 0 -8 7 -14
15 -14 8 0 15 5 15 11 0 6 7 9 15 5 8 -3 15 -1 15 4 0 6 11 10 25 10 41 0 29
16 -39 54 -68 38 -82 42 -106 26z"/>
<path d="M6097 4401 c-4 -17 -3 -21 5 -13 5 5 8 16 6 23 -3 8 -7 3 -11 -10z"/>
<path d="M5780 4316 c0 -11 30 -66 36 -66 2 0 -3 15 -12 33 -19 36 -24 44 -24
33z"/>
<path d="M5642 4110 c0 -14 2 -19 5 -12 2 6 2 18 0 25 -3 6 -5 1 -5 -13z"/>
<path d="M5950 4104 c19 -9 55 -18 80 -20 l45 -4 -55 14 c-103 26 -107 27 -70
10z"/>
<path d="M5633 4025 c0 -22 2 -30 4 -17 2 12 2 30 0 40 -3 9 -5 -1 -4 -23z"/>
<path d="M5970 4041 c8 -6 28 -11 44 -11 39 0 31 6 -19 14 -29 5 -36 4 -25 -3z"/>
<path d="M5622 3940 c0 -19 2 -27 5 -17 2 9 2 25 0 35 -3 9 -5 1 -5 -18z"/>
<path d="M5113 4150 c38 -54 50 -103 44 -183 -3 -40 -8 -83 -11 -97 -3 -14 0
-9 8 10 18 43 20 149 5 201 -7 21 -25 53 -41 71 l-29 33 24 -35z"/>
<path d="M5391 4054 c0 -11 3 -14 6 -6 3 7 2 16 -1 19 -3 4 -6 -2 -5 -13z"/>
<path d="M5406 3990 c4 -19 10 -42 15 -50 11 -18 1 34 -13 65 -5 13 -6 9 -2
-15z"/>
<path d="M5430 3916 c0 -11 30 -66 36 -66 2 0 -3 15 -12 33 -19 36 -24 44 -24
33z"/>
<path d="M5470 3836 c0 -2 8 -10 18 -17 15 -13 16 -12 3 4 -13 16 -21 21 -21
13z"/>
<path d="M5782 3769 c-18 -21 -52 -45 -75 -53 -30 -11 -33 -14 -12 -10 36 7
83 37 108 71 30 39 15 33 -21 -8z"/>
<path d="M4980 3565 c0 -15 53 -85 91 -120 l43 -40 -46 51 c-25 28 -53 65 -62
82 -15 29 -26 40 -26 27z"/>
<path d="M4851 3354 c0 -11 3 -14 6 -6 3 7 2 16 -1 19 -3 4 -6 -2 -5 -13z"/>
<path d="M4866 3312 c8 -30 44 -112 49 -112 5 0 -6 29 -34 90 -12 25 -18 34
-15 22z"/>
<path d="M5528 3323 c7 -3 16 -2 19 1 4 3 -2 6 -13 5 -11 0 -14 -3 -6 -6z"/>
<path d="M5332 3302 c-51 -8 -91 -17 -88 -20 3 -2 54 3 113 12 60 9 119 18
133 20 14 2 5 3 -20 3 -25 0 -87 -6 -138 -15z"/>
<path d="M4930 3170 c6 -11 13 -20 16 -20 2 0 0 9 -6 20 -6 11 -13 20 -16 20
-2 0 0 -9 6 -20z"/>
<path d="M5005 3070 c10 -11 20 -20 23 -20 3 0 -3 9 -13 20 -10 11 -20 20 -23
20 -3 0 3 -9 13 -20z"/>
<path d="M5040 3044 c0 -7 71 -36 76 -31 2 2 -14 11 -36 20 -22 8 -40 13 -40
11z"/>
<path d="M5168 2993 c6 -2 18 -2 25 0 6 3 1 5 -13 5 -14 0 -19 -2 -12 -5z"/>
<path d="M5218 2983 c6 -2 18 -2 25 0 6 3 1 5 -13 5 -14 0 -19 -2 -12 -5z"/>
<path d="M4318 3723 c-32 -35 -54 -78 -62 -123 l-6 -35 14 36 c22 57 47 102
69 127 11 12 18 22 16 22 -3 0 -17 -12 -31 -27z"/>
<path d="M4241 3544 c0 -11 3 -14 6 -6 3 7 2 16 -1 19 -3 4 -6 -2 -5 -13z"/>
<path d="M4231 3504 c0 -11 3 -14 6 -6 3 7 2 16 -1 19 -3 4 -6 -2 -5 -13z"/>
<path d="M6925 3420 c-3 -5 -2 -10 4 -10 5 0 13 5 16 10 3 6 2 10 -4 10 -5 0
-13 -4 -16 -10z"/>
<path d="M6122 3272 l-23 -37 26 28 c14 15 25 32 25 38 0 14 -3 11 -28 -29z"/>
<path d="M4649 3113 c24 -36 84 -89 130 -116 45 -26 38 -14 -10 17 -23 15 -64
51 -91 79 -34 35 -44 42 -29 20z"/>
<path d="M4827 2969 c7 -7 15 -10 18 -7 3 3 -2 9 -12 12 -14 6 -15 5 -6 -5z"/>
<path d="M4830 2790 c39 -34 164 -100 189 -100 9 0 -11 12 -44 25 -33 14 -87
43 -120 65 -47 32 -53 34 -25 10z"/>
<path d="M5341 2770 c-68 -42 -75 -53 -13 -20 36 19 92 60 82 59 -3 0 -34 -18
-69 -39z"/>
<path d="M5358 2681 c-96 -83 -263 -164 -376 -180 -44 -7 -49 -9 -22 -10 76
-2 218 48 310 110 60 40 139 108 128 109 -4 0 -22 -13 -40 -29z"/>
<path d="M5055 2680 c19 -8 83 -14 74 -6 -2 2 -24 6 -49 9 -30 4 -38 3 -25 -3z"/>
<path d="M5309 2482 c-80 -89 -216 -185 -329 -234 -36 -15 -59 -28 -52 -28 20
0 133 54 198 95 76 48 154 115 194 165 40 51 33 52 -11 2z"/>
<path d="M3580 2636 c0 -31 5 -56 10 -56 6 0 10 22 10 49 0 28 -4 53 -10 56
-6 4 -10 -15 -10 -49z"/>
<path d="M5565 2010 c3 -4 14 -10 25 -13 11 -3 18 -2 15 3 -3 4 -14 10 -25 13
-11 3 -18 2 -15 -3z"/>
<path d="M5696 1798 c3 -4 -12 -9 -33 -9 -25 -2 -30 -3 -13 -6 14 -2 43 0 65
5 l40 8 -32 5 c-18 3 -30 2 -27 -3z"/>
<path d="M5600 1755 c0 -12 67 -45 90 -44 21 1 20 2 -7 9 -18 4 -44 15 -58 24
-14 9 -25 14 -25 11z"/>
<path d="M5673 1318 c-17 -29 -47 -75 -67 -103 l-37 -50 36 40 c38 42 109 154
102 162 -3 2 -18 -20 -34 -49z"/>
<path d="M5620 1020 c8 -5 22 -9 30 -9 10 0 8 3 -5 9 -27 12 -43 12 -25 0z"/>
<path d="M5700 960 c-8 -5 -10 -10 -5 -10 6 0 17 5 25 10 8 5 11 10 5 10 -5 0
-17 -5 -25 -10z"/>
<path d="M5605 940 l-50 -7 45 -1 c25 0 54 3 65 8 23 10 12 10 -60 0z"/>
<path d="M5553 895 c14 -16 30 -20 75 -19 32 0 67 6 78 13 16 10 15 10 -11 4
-50 -11 -122 -8 -142 7 -17 13 -17 13 0 -5z"/>
<path d="M4386 1815 c4 -22 11 -47 16 -55 6 -10 7 -3 2 20 -10 54 -25 83 -18
35z"/>
<path d="M4332 1760 c0 -19 2 -27 5 -17 2 9 2 25 0 35 -3 9 -5 1 -5 -18z"/>
<path d="M4342 1700 c0 -14 2 -19 5 -12 2 6 2 18 0 25 -3 6 -5 1 -5 -13z"/>
<path d="M4329 1363 c-13 -16 -12 -17 4 -4 16 13 21 21 13 21 -2 0 -10 -8 -17
-17z"/>
<path d="M4224 1292 c-45 -31 -90 -63 -100 -70 -11 -7 -1 -4 21 7 41 19 165
107 165 116 0 7 2 9 -86 -53z"/>
<path d="M4020 1125 c0 -18 38 -73 62 -89 13 -8 37 -17 53 -20 24 -5 22 -3 -9
9 -50 19 -63 31 -86 74 -11 20 -19 32 -20 26z"/>
<path d="M4020 1005 c0 -13 71 -35 107 -34 35 1 34 2 -13 9 -28 4 -60 13 -72
19 -12 6 -22 9 -22 6z"/>
</g>
</svg>
