<?xml version="1.0" standalone="no"?>
<!DOCTYPE svg PUBLIC "-//W3C//DTD SVG 20010904//EN"
 "http://www.w3.org/TR/2001/REC-SVG-20010904/DTD/svg10.dtd">
<svg version="1.0" xmlns="http://www.w3.org/2000/svg"
 width="1024.000000pt" height="559.000000pt" viewBox="0 0 1024.000000 559.000000"
 preserveAspectRatio="xMidYMid meet">
<metadata>
Created by potrace 1.16, written by Peter Selinger 2001-2019
</metadata>
<g transform="translate(0.000000,559.000000) scale(0.100000,-0.100000)"
fill="#000000" stroke="none">
<path d="M5606 5073 c-4 -4 -34 -8 -67 -9 -46 -1 -65 -6 -82 -23 -13 -11 -31
-21 -40 -21 -31 0 -65 -23 -83 -56 -10 -19 -22 -34 -26 -34 -4 0 -19 -12 -33
-27 -17 -19 -25 -39 -25 -64 0 -20 -7 -42 -15 -49 -8 -7 -15 -19 -15 -26 0 -8
-9 -14 -19 -14 -11 0 -32 -11 -48 -24 -15 -13 -37 -26 -48 -30 -30 -9 -94 -99
-116 -164 -11 -32 -28 -100 -37 -152 l-17 -95 -45 -5 c-63 -8 -124 -40 -226
-120 -49 -39 -124 -88 -168 -111 -137 -72 -177 -120 -211 -255 -15 -60 -16
-77 -6 -102 20 -47 67 -89 108 -95 38 -7 153 6 193 21 18 7 33 4 57 -10 26
-16 31 -25 28 -46 -2 -15 -6 -55 -9 -90 -4 -42 -17 -88 -41 -139 -37 -81 -43
-123 -21 -163 12 -21 12 -29 0 -52 -8 -15 -14 -35 -14 -45 0 -10 -9 -31 -21
-48 -61 -90 -135 -292 -163 -445 -13 -67 -81 -319 -101 -372 -5 -13 5 -26 39
-50 41 -28 46 -35 41 -62 -3 -17 -10 -69 -16 -116 -9 -70 -15 -90 -40 -117
-16 -19 -29 -44 -29 -56 0 -14 -21 -43 -55 -77 -100 -98 -151 -195 -210 -390
-15 -54 -42 -112 -70 -154 -25 -38 -45 -80 -45 -93 0 -14 -10 -38 -21 -55 -17
-24 -20 -38 -16 -73 5 -32 -3 -82 -27 -182 -56 -228 -54 -288 11 -326 81 -47
276 -41 321 10 19 21 22 33 17 62 -4 20 -13 43 -20 51 -17 19 -35 108 -35 170
0 36 6 56 24 77 13 15 27 39 31 53 4 14 21 41 38 62 16 20 33 57 38 82 10 54
74 152 184 281 42 50 95 121 118 158 23 37 69 105 102 151 43 59 78 125 124
234 l64 152 111 0 c82 0 140 7 221 25 l110 25 40 -42 c21 -24 74 -79 115 -124
73 -76 77 -83 83 -136 4 -45 0 -73 -20 -135 -28 -84 -31 -144 -23 -373 4 -102
1 -122 -19 -178 -21 -57 -22 -68 -11 -108 10 -34 10 -50 0 -73 -9 -23 -9 -37
1 -64 9 -26 9 -42 0 -67 -12 -36 -15 -118 -5 -145 11 -28 63 -46 157 -54 51
-4 110 -16 132 -25 66 -28 196 -56 260 -55 33 0 80 8 105 17 37 14 46 23 48
46 5 39 -16 58 -129 118 -53 28 -121 72 -150 98 -50 44 -53 49 -60 111 -6 52
-5 69 9 89 13 19 17 48 18 115 0 66 9 124 33 218 32 130 73 347 92 489 9 72 8
83 -16 155 -15 43 -49 121 -78 173 -28 52 -54 115 -58 140 -8 52 -87 193 -194
350 -41 59 -75 121 -79 141 -3 20 -17 46 -31 59 -15 14 -25 35 -25 52 0 16 -8
40 -17 54 -16 25 -16 26 14 55 30 27 53 94 53 149 0 37 33 105 105 215 39 61
81 125 92 144 l21 34 30 -54 c17 -30 37 -66 46 -81 12 -23 22 -28 53 -28 34 0
41 -5 61 -40 51 -89 135 -158 224 -181 41 -11 52 -11 83 4 52 25 68 69 69 192
1 119 -7 139 -121 308 -96 143 -153 256 -194 387 -23 76 -40 112 -61 131 -15
15 -31 42 -34 61 -4 18 -10 40 -15 49 -4 9 1 39 13 75 11 32 24 104 29 159 13
149 20 188 35 206 9 10 15 44 17 90 1 61 -2 80 -18 103 -21 30 -25 37 -42 71
-5 11 -23 27 -40 36 -17 8 -46 28 -64 43 -27 23 -40 27 -69 23 -26 -3 -42 1
-59 14 -23 19 -90 26 -105 12z m105 -42 c18 -13 30 -16 42 -10 22 13 65 1 81
-23 8 -11 29 -27 47 -36 19 -9 39 -27 45 -39 6 -13 18 -31 26 -40 24 -28 37
-77 26 -96 -5 -10 -6 -26 -3 -37 7 -22 -2 -60 -15 -60 -9 0 -24 67 -21 95 2
16 0 18 -10 8 -20 -20 -49 -15 -59 10 -5 12 -9 16 -9 10 -1 -7 -12 -20 -27
-29 -24 -16 -26 -16 -52 3 -27 20 -28 20 -51 2 -25 -21 -53 -18 -83 8 -15 13
-18 12 -28 -7 -12 -22 -30 -23 -72 -5 -15 6 -18 2 -18 -19 0 -16 -10 -35 -26
-48 -19 -17 -24 -29 -19 -46 4 -15 0 -31 -9 -41 -8 -9 -16 -34 -18 -56 -4 -49
-18 -51 -39 -5 -10 20 -29 42 -43 50 -24 12 -29 11 -55 -7 l-28 -21 16 43 c14
40 14 45 -2 63 -9 10 -17 24 -17 30 0 6 -10 18 -22 27 -22 15 -22 17 -5 30 12
9 17 20 13 33 -9 29 10 71 39 84 13 6 27 20 31 32 12 38 35 56 75 56 28 0 39
5 44 18 9 30 47 43 88 30 28 -9 39 -8 58 6 27 19 61 15 100 -13z m-37 -271
c25 -12 31 -12 55 1 24 14 29 14 50 1 18 -13 28 -13 55 -4 52 19 77 4 92 -54
17 -63 17 -74 2 -74 -7 0 -26 -7 -42 -15 -24 -13 -31 -13 -38 -3 -5 9 -8 6 -8
-9 0 -26 9 -28 59 -13 39 11 44 9 35 -13 -4 -12 -11 -14 -23 -7 -28 14 -77 -3
-73 -26 2 -10 8 -52 14 -92 15 -88 7 -103 -45 -84 -18 7 -41 12 -49 12 -9 0
-18 6 -21 13 -3 8 -4 8 -3 -1 1 -19 99 -52 120 -40 20 11 22 86 2 151 -15 50
-11 67 10 39 11 -14 16 -15 33 -5 18 11 20 9 26 -37 6 -40 0 -74 -31 -183
l-38 -133 -50 0 c-49 0 -83 -11 -137 -47 -25 -17 -26 -16 -100 39 -84 64 -88
69 -111 144 l-16 55 -1 -41 c-2 -78 28 -122 132 -194 26 -18 47 -38 47 -44 0
-6 -19 -30 -42 -55 -24 -25 -35 -39 -25 -32 15 12 17 11 17 -5 0 -14 5 -10 20
14 11 17 24 32 30 32 13 0 13 -6 -4 -38 -31 -60 -77 -80 -142 -62 -83 24 -161
114 -189 220 l-13 51 52 77 c38 56 59 77 76 78 12 1 26 7 31 15 11 19 2 24
-16 9 -21 -17 -46 6 -80 73 -30 62 -32 90 -5 117 26 26 53 13 78 -37 20 -43
31 -48 56 -30 13 9 19 26 18 47 0 18 6 43 14 56 9 13 13 32 9 43 -4 14 0 23
14 31 12 6 24 21 27 35 5 20 10 23 34 19 18 -4 32 -1 41 10 8 8 16 14 19 13 3
-2 18 -9 34 -17z m-417 -53 c-3 -19 -19 -56 -36 -84 -17 -28 -31 -59 -31 -71
0 -33 -11 -52 -31 -52 -15 0 -18 5 -12 33 5 29 27 77 53 117 5 8 16 32 24 53
19 47 41 50 33 4z m-57 -2 c0 -7 -16 -44 -35 -81 -19 -37 -35 -80 -35 -95 0
-20 -5 -29 -17 -31 -10 0 2 -4 27 -7 38 -5 47 -3 57 14 7 11 12 28 13 37 0 22
62 148 73 148 13 0 7 -40 -12 -78 -49 -96 -66 -253 -28 -260 10 -2 30 11 49
32 17 20 38 36 45 36 15 0 18 -46 3 -55 -6 -4 -32 -39 -59 -78 -48 -71 -70
-89 -151 -120 -53 -21 -211 -159 -340 -297 -63 -67 -137 -138 -165 -156 -30
-21 -43 -34 -32 -34 26 0 73 26 118 67 l39 35 0 -26 c0 -53 -138 -114 -282
-123 -98 -7 -125 4 -153 58 -15 28 -15 36 4 110 33 132 72 169 254 243 217 89
383 187 391 231 2 11 9 55 16 98 17 113 47 200 86 252 53 69 77 52 31 -23 -13
-20 -27 -55 -30 -76 -3 -22 -12 -43 -19 -48 -8 -5 -9 -8 -2 -8 17 0 31 21 43
65 6 22 20 54 31 70 11 17 20 38 20 48 0 11 9 32 21 48 20 29 39 31 39 4z
m109 -239 c6 -7 8 -16 4 -19 -31 -32 -57 54 -36 118 5 14 9 5 14 -33 4 -29 12
-58 18 -66z m-40 -72 c-17 -21 -33 -2 -25 32 l7 27 15 -22 c13 -18 13 -25 3
-37z m-390 -163 c-45 -34 -113 -74 -169 -98 l-55 -23 40 35 c53 47 154 105
184 105 l24 0 -24 -19z m1025 -70 c-2 -2 -10 -1 -19 3 -13 5 -14 9 -4 28 l13
23 6 -25 c4 -14 5 -27 4 -29z m-630 -36 c39 -117 129 -196 231 -203 54 -4 64
-1 92 22 18 15 37 42 43 60 7 22 19 36 33 39 12 2 30 8 41 12 16 7 17 6 6 -15
-20 -38 7 -157 47 -202 9 -10 31 -20 49 -24 19 -3 36 -14 39 -24 3 -9 21 -31
40 -49 25 -23 40 -49 54 -98 36 -126 36 -137 -3 -166 -19 -15 -44 -43 -56 -62
l-22 -36 -39 67 c-21 36 -39 72 -39 79 0 7 13 18 30 25 16 7 35 19 42 28 11
14 9 13 -12 -1 -41 -28 -55 -21 -26 14 15 17 34 45 42 63 16 33 12 30 -32 -29
-15 -19 -15 -19 -9 5 3 14 7 43 11 65 5 39 5 39 -15 -12 -52 -139 -105 -227
-186 -308 -74 -75 -78 -85 -11 -26 16 15 25 19 21 11 -16 -28 -128 -195 -158
-235 l-31 -40 36 33 35 33 -12 -77 c-14 -91 -26 -104 -122 -134 -67 -20 -138
-27 -129 -11 3 4 26 14 51 21 84 24 40 20 -61 -5 -121 -30 -153 -31 -238 -5
-71 22 -151 79 -218 154 -21 22 -38 38 -38 34 0 -5 16 -26 36 -48 20 -22 35
-43 32 -46 -13 -12 -104 41 -153 90 -71 71 -77 101 -36 187 l30 64 1 -38 c0
-23 4 -36 10 -32 6 4 10 53 10 114 0 136 6 168 34 177 11 4 42 21 68 39 38 25
59 32 105 34 31 1 64 7 72 12 13 8 12 9 -4 5 -11 -3 -33 -2 -49 2 l-30 8 33
23 c74 53 -12 24 -104 -34 -30 -19 -56 -35 -59 -35 -3 0 1 19 9 41 8 23 15 61
15 85 0 43 3 47 118 162 l117 117 6 -65 6 -65 2 70 2 70 56 43 c31 23 64 42
72 42 9 1 32 9 51 20 19 10 38 15 41 12 4 -4 14 -29 23 -57z m613 11 l72 -29
22 -71 c11 -39 27 -91 35 -115 22 -67 125 -260 172 -322 23 -31 60 -91 82
-133 35 -68 40 -85 40 -145 0 -89 -22 -164 -54 -181 -78 -41 -225 64 -311 222
l-27 50 28 29 c37 38 44 37 44 -9 0 -55 27 -137 55 -169 l25 -28 -19 45 c-11
25 -27 100 -35 166 -8 67 -26 155 -39 195 -17 48 -22 76 -15 80 6 4 2 9 -9 13
-44 14 -118 129 -90 139 7 3 -5 4 -27 4 -33 -1 -35 -2 -17 -11 26 -11 28 -26
3 -26 -32 0 -54 24 -50 55 3 27 9 31 52 42 26 7 51 15 54 18 11 10 -102 -7
-115 -18 -10 -7 -13 -3 -13 16 0 33 15 44 73 52 26 4 50 11 52 15 9 15 -110
-2 -128 -19 -18 -15 -18 -14 -11 14 4 17 8 33 10 36 2 3 38 12 81 20 77 14 77
14 31 17 -27 2 -48 7 -48 13 0 16 -54 10 -85 -11 -46 -30 -109 -22 -71 9 11
10 15 8 19 -6 4 -15 5 -14 6 3 0 12 7 26 14 32 12 10 108 42 117 39 3 -1 38
-15 77 -31z m-110 -52 c-3 -3 -12 -4 -19 -1 -8 3 -5 6 6 6 11 1 17 -2 13 -5z
m-1054 -434 c-17 -30 -37 -37 -61 -21 -10 6 -5 13 20 29 50 31 63 28 41 -8z
m1187 -281 c0 -5 -7 -9 -15 -9 -9 0 -12 6 -9 15 6 15 24 11 24 -6z m-1232
-288 c52 -43 86 -62 147 -81 22 -7 65 -28 96 -47 87 -53 143 -64 294 -57 72 3
148 9 170 14 55 12 57 4 4 -19 -156 -68 -406 -48 -604 49 -44 22 -102 59 -129
82 -42 38 -47 46 -41 71 4 15 9 27 12 27 2 0 25 -17 51 -39z m-64 -144 c-19
-28 -34 -56 -34 -62 0 -5 17 16 36 48 20 31 39 57 44 57 4 0 18 -8 31 -19 l23
-18 -21 -44 c-29 -63 -52 -146 -57 -214 l-6 -60 14 71 c16 78 59 211 75 227 7
7 32 0 78 -21 200 -90 428 -105 594 -38 68 27 79 24 79 -25 0 -15 10 -38 21
-53 12 -15 27 -46 34 -70 7 -23 45 -88 83 -143 78 -111 183 -294 175 -305 -2
-5 -15 -8 -28 -8 -41 0 -153 -40 -273 -97 -138 -65 -169 -77 -276 -104 -164
-41 -355 -42 -511 -3 -160 40 -365 123 -365 147 0 7 14 54 30 106 16 52 48
173 70 270 21 97 48 201 58 231 23 66 78 178 100 203 15 16 16 16 38 -4 l22
-20 -34 -52z m1244 -854 c118 -237 120 -255 52 -408 -38 -85 -38 -99 1 -20 16
33 29 53 29 44 0 -22 -64 -343 -90 -454 -13 -53 -22 -123 -22 -170 0 -63 -4
-87 -20 -113 -16 -26 -19 -42 -13 -81 l7 -50 -39 -10 c-99 -28 -160 -34 -207
-21 -59 16 -70 30 -60 77 4 21 6 42 5 47 -8 33 -1 108 14 151 14 40 17 75 14
170 -7 241 -4 275 25 363 19 60 25 93 20 119 -4 24 -3 38 6 43 18 11 7 26
-124 166 -65 69 -117 126 -115 128 30 25 45 21 176 -47 74 -38 136 -67 138
-65 2 1 -53 32 -121 67 -68 36 -124 68 -124 71 0 16 311 145 357 149 7 1 48
-70 91 -156z m-1321 -14 c47 -15 128 -38 181 -49 53 -12 98 -23 101 -25 5 -6
-43 -127 -106 -263 -28 -62 -93 -128 -176 -179 -31 -20 -55 -38 -53 -41 3 -2
28 10 56 27 28 17 52 31 55 31 6 0 -41 -85 -69 -125 -11 -16 -59 -75 -105
-130 -114 -137 -156 -201 -176 -271 -10 -34 -29 -72 -46 -89 -16 -17 -31 -45
-35 -63 -10 -48 -24 -55 -89 -43 -75 14 -121 37 -151 76 -28 37 -31 71 -8 96
9 10 20 37 25 61 5 24 26 66 45 95 22 32 54 108 85 199 57 170 94 235 179 319
45 44 64 71 72 103 6 23 14 42 19 42 21 0 39 52 49 140 17 143 17 142 42 129
11 -6 59 -24 105 -40z m-603 -1198 c25 -23 105 -51 145 -51 l29 0 4 -92 c3
-74 10 -105 31 -152 45 -98 25 -116 -132 -116 -86 0 -102 3 -132 23 -30 20
-34 28 -37 75 -4 67 49 332 66 332 3 0 15 -9 26 -19z m2083 -239 c55 -28 106
-58 113 -67 19 -23 5 -43 -37 -54 -83 -23 -181 -10 -333 44 -47 17 -106 29
-158 32 -110 8 -117 14 -108 112 3 41 7 76 9 78 2 1 19 -2 38 -7 51 -15 117
-12 189 9 l65 18 61 -57 c39 -36 98 -76 161 -108z"/>
<path d="M5843 4917 c12 -13 24 -22 26 -20 6 4 -30 43 -40 43 -5 0 2 -10 14
-23z"/>
<path d="M5601 4629 c-37 -23 -41 -33 -6 -17 21 9 37 7 90 -11 62 -22 95 -23
95 -2 0 5 -10 11 -22 14 -13 3 -46 12 -75 20 -48 14 -54 13 -82 -4z"/>
<path d="M5337 4573 c-4 -3 -7 -16 -6 -27 0 -19 1 -19 10 3 8 19 12 21 24 11
12 -10 14 -24 9 -55 -6 -40 7 -67 24 -50 3 3 0 10 -8 15 -12 8 -13 13 -2 30
21 35 -24 101 -51 73z"/>
<path d="M5624 4564 c-20 -16 -13 -16 31 2 11 4 15 0 15 -15 0 -12 6 -21 15
-21 8 0 15 7 15 16 0 11 5 14 16 10 14 -5 15 -4 4 9 -16 20 -71 19 -96 -1z"/>
<path d="M5520 4415 c13 -14 26 -25 28 -25 3 0 -5 11 -18 25 -13 14 -26 25
-28 25 -3 0 5 -11 18 -25z"/>
<path d="M5723 4273 c26 -2 67 -2 90 0 23 2 2 3 -48 3 -49 0 -68 -1 -42 -3z"/>
<path d="M5749 4227 c5 -5 24 -7 42 -5 33 3 33 4 -8 8 -23 3 -39 2 -34 -3z"/>
<path d="M5433 4115 c0 -27 2 -38 4 -22 2 15 2 37 0 50 -2 12 -4 0 -4 -28z"/>
<path d="M5442 4040 c0 -14 2 -19 5 -12 2 6 2 18 0 25 -3 6 -5 1 -5 -13z"/>
<path d="M5118 4403 c6 -2 18 -2 25 0 6 3 1 5 -13 5 -14 0 -19 -2 -12 -5z"/>
<path d="M5071 4380 c0 -3 8 -30 19 -60 14 -38 18 -44 14 -20 -5 29 -33 96
-33 80z"/>
<path d="M5159 4333 l-24 -28 30 25 c17 14 32 26 34 28 2 1 0 2 -6 2 -5 0 -20
-12 -34 -27z"/>
<path d="M4994 4118 l-19 -23 23 19 c21 18 27 26 19 26 -2 0 -12 -10 -23 -22z"/>
<path d="M4353 3794 l-28 -25 33 22 c17 13 32 24 32 26 0 8 -11 1 -37 -23z"/>
<path d="M4420 3699 c-7 -11 -10 -23 -7 -25 2 -2 9 7 15 21 14 30 7 33 -8 4z"/>
<path d="M5220 4094 c0 -10 5 -26 10 -34 8 -11 9 -7 4 15 -8 37 -14 45 -14 19z"/>
<path d="M5240 4036 c0 -12 39 -84 49 -91 6 -3 -2 16 -16 42 -30 55 -33 59
-33 49z"/>
<path d="M5012 3900 c0 -14 2 -19 5 -12 2 6 2 18 0 25 -3 6 -5 1 -5 -13z"/>
<path d="M5619 3893 c-8 -9 -32 -24 -54 -34 -22 -10 -34 -19 -27 -19 20 0 65
25 86 49 11 12 17 21 14 21 -3 0 -12 -7 -19 -17z"/>
<path d="M5498 3833 c7 -3 16 -2 19 1 4 3 -2 6 -13 5 -11 0 -14 -3 -6 -6z"/>
<path d="M4865 3630 c9 -31 54 -120 60 -120 4 0 -54 131 -63 140 -2 3 -1 -6 3
-20z"/>
<path d="M5400 3390 c-18 -12 -2 -12 25 0 13 6 15 9 5 9 -8 0 -22 -4 -30 -9z"/>
<path d="M5282 3348 c-45 -17 -81 -33 -79 -35 4 -4 168 54 176 63 9 9 -17 1
-97 -28z"/>
<path d="M5160 3300 c-8 -5 -10 -10 -5 -10 6 0 17 5 25 10 8 5 11 10 5 10 -5
0 -17 -5 -25 -10z"/>
<path d="M4895 3157 c21 -26 55 -61 75 -77 52 -41 147 -90 174 -89 12 0 4 6
-21 13 -62 20 -110 52 -192 130 -65 62 -70 65 -36 23z"/>
<path d="M5937 4070 c10 -11 19 -20 21 -20 1 0 -2 9 -8 20 -6 11 -15 20 -20
20 -6 0 -2 -9 7 -20z"/>
<path d="M5917 4019 c7 -7 15 -10 18 -7 3 3 -2 9 -12 12 -14 6 -15 5 -6 -5z"/>
<path d="M5900 3956 c0 -2 7 -9 15 -16 9 -7 15 -8 15 -2 0 5 -7 12 -15 16 -8
3 -15 4 -15 2z"/>
<path d="M6271 3274 c0 -11 3 -14 6 -6 3 7 2 16 -1 19 -3 4 -6 -2 -5 -13z"/>
<path d="M6281 3234 c0 -11 3 -14 6 -6 3 7 2 16 -1 19 -3 4 -6 -2 -5 -13z"/>
<path d="M6181 3174 c0 -11 3 -14 6 -6 3 7 2 16 -1 19 -3 4 -6 -2 -5 -13z"/>
<path d="M4645 3071 c31 -36 90 -80 129 -96 50 -21 45 -10 -6 16 -24 12 -65
40 -93 63 -27 22 -41 30 -30 17z"/>
<path d="M5377 2809 c-15 -12 -51 -34 -80 -50 -28 -16 -48 -29 -43 -29 15 0
125 62 142 81 22 24 16 24 -19 -2z"/>
<path d="M5375 2718 c-48 -49 -166 -138 -215 -164 -19 -9 -73 -30 -120 -45
-47 -16 -75 -28 -64 -29 38 0 177 50 234 85 61 37 184 146 200 176 14 26 11
24 -35 -23z"/>
<path d="M4883 2730 c24 -16 127 -50 146 -49 9 0 -15 11 -54 24 -38 12 -79 26
-90 29 -18 7 -18 6 -2 -4z"/>
<path d="M5466 2693 c-6 -14 -5 -15 5 -6 7 7 10 15 7 18 -3 3 -9 -2 -12 -12z"/>
<path d="M5068 2673 c12 -2 30 -2 40 0 9 3 -1 5 -23 4 -22 0 -30 -2 -17 -4z"/>
<path d="M5342 2518 c-75 -109 -246 -248 -379 -308 -29 -13 -51 -25 -50 -27 8
-7 123 50 191 94 79 51 195 163 245 236 17 26 30 47 27 47 -3 0 -18 -19 -34
-42z"/>
<path d="M5660 1800 c8 -5 20 -10 25 -10 6 0 3 5 -5 10 -8 5 -19 10 -25 10 -5
0 -3 -5 5 -10z"/>
<path d="M5658 1763 c18 -2 45 -2 60 0 15 2 0 4 -33 4 -33 0 -45 -2 -27 -4z"/>
<path d="M5633 1718 c11 -10 31 -18 46 -17 24 1 23 2 -6 9 -18 4 -39 11 -46
16 -7 5 -4 1 6 -8z"/>
<path d="M5705 1342 c-17 -31 -54 -91 -83 -132 l-52 -75 44 50 c41 46 133 201
124 210 -2 2 -17 -22 -33 -53z"/>
<path d="M5580 1016 c0 -2 7 -7 16 -10 8 -3 12 -2 9 4 -6 10 -25 14 -25 6z"/>
<path d="M5630 990 c8 -5 24 -10 34 -10 26 0 18 6 -19 14 -22 5 -26 4 -15 -4z"/>
<path d="M5700 930 c-8 -5 -10 -10 -5 -10 6 0 17 5 25 10 8 5 11 10 5 10 -5 0
-17 -5 -25 -10z"/>
<path d="M5600 910 l-45 -7 45 -1 c25 0 54 3 65 8 l20 9 -20 -1 c-11 -1 -40
-4 -65 -8z"/>
<path d="M5554 866 c11 -9 29 -16 40 -15 17 1 16 2 -6 9 -14 4 -32 11 -40 15
-7 3 -4 -1 6 -9z"/>
<path d="M5717 873 c-4 -3 -24 -9 -44 -13 -35 -7 -35 -8 -8 -8 17 -1 41 5 55
13 14 8 20 14 14 15 -6 0 -14 -3 -17 -7z"/>
<path d="M4395 1808 c2 -26 11 -62 20 -80 8 -18 13 -24 9 -13 -3 11 -12 47
-20 80 -13 56 -14 57 -9 13z"/>
<path d="M4332 1755 c0 -16 2 -22 5 -12 2 9 2 23 0 30 -3 6 -5 -1 -5 -18z"/>
<path d="M4342 1695 c0 -16 2 -22 5 -12 2 9 2 23 0 30 -3 6 -5 -1 -5 -18z"/>
<path d="M4300 1338 c-36 -27 -99 -70 -140 -94 -41 -24 -70 -44 -65 -44 28 0
275 167 275 186 0 7 -2 5 -70 -48z"/>
<path d="M4020 1099 c0 -23 36 -67 70 -84 47 -25 48 -17 2 11 -25 15 -50 40
-58 58 -7 17 -13 24 -14 15z"/>
<path d="M4040 990 c8 -5 22 -9 30 -9 10 0 8 3 -5 9 -27 12 -43 12 -25 0z"/>
<path d="M3960 984 c0 -21 56 -63 97 -72 24 -6 40 -6 37 -1 -3 5 -14 9 -25 9
-28 0 -75 26 -93 52 -9 12 -16 18 -16 12z"/>
<path d="M4098 973 c6 -2 18 -2 25 0 6 3 1 5 -13 5 -14 0 -19 -2 -12 -5z"/>
<path d="M4055 605 c27 -8 51 -12 53 -10 5 5 -69 25 -88 24 -8 0 7 -7 35 -14z"/>
<path d="M3968 603 c6 -2 18 -2 25 0 6 3 1 5 -13 5 -14 0 -19 -2 -12 -5z"/>
</g>
</svg>
