<?xml version="1.0" standalone="no"?>
<!DOCTYPE svg PUBLIC "-//W3C//DTD SVG 20010904//EN"
 "http://www.w3.org/TR/2001/REC-SVG-20010904/DTD/svg10.dtd">
<svg version="1.0" xmlns="http://www.w3.org/2000/svg"
 width="1024.000000pt" height="559.000000pt" viewBox="0 0 1024.000000 559.000000"
 preserveAspectRatio="xMidYMid meet">
<metadata>
Created by potrace 1.16, written by Peter Selinger 2001-2019
</metadata>
<g transform="translate(0.000000,559.000000) scale(0.100000,-0.100000)"
fill="#000000" stroke="none">
<path d="M5495 5093 c-11 -3 -26 -10 -34 -17 -8 -6 -37 -10 -66 -8 -46 3 -55
1 -73 -22 -11 -14 -27 -26 -36 -26 -33 0 -74 -30 -85 -61 -6 -17 -22 -40 -36
-51 -34 -27 -48 -56 -47 -96 1 -19 -5 -44 -13 -55 -18 -26 -19 -80 -3 -110 6
-12 11 -38 9 -58 -2 -26 4 -44 22 -65 13 -16 22 -34 20 -41 -5 -15 24 -73 37
-73 6 0 10 -10 10 -22 0 -12 9 -31 20 -43 18 -19 18 -23 4 -43 -8 -12 -24 -22
-35 -22 -11 0 -48 -11 -82 -25 -34 -13 -97 -36 -141 -50 -240 -78 -297 -191
-299 -590 -1 -109 4 -222 11 -265 11 -68 10 -82 -8 -145 -26 -90 -26 -145 0
-178 24 -30 20 -87 -10 -147 -26 -53 -59 -206 -66 -308 -11 -153 29 -285 116
-384 l40 -46 -33 -5 c-17 -3 -59 -9 -92 -12 -33 -3 -107 -12 -165 -20 -134
-17 -246 -30 -440 -50 -211 -22 -213 -23 -224 -67 -14 -57 2 -101 42 -113 l32
-9 0 -596 0 -597 58 -17 c55 -17 59 -17 107 1 l50 19 3 492 c2 420 4 492 17
492 8 0 60 -9 117 -19 57 -11 133 -25 169 -31 l67 -12 7 -176 c4 -98 5 -338 3
-535 -4 -252 -2 -361 6 -370 6 -8 34 -19 63 -26 52 -12 118 -3 151 22 9 7 12
129 12 548 l0 539 25 0 c14 0 28 -1 31 -2 3 -2 8 -165 11 -363 3 -198 6 -361
7 -362 1 -1 23 -8 48 -14 39 -11 55 -10 95 2 l48 15 3 386 2 385 133 23 c72
13 144 26 160 31 36 10 35 -1 -8 -70 -51 -83 -80 -178 -100 -326 -21 -159 -39
-233 -72 -299 -20 -38 -26 -65 -25 -106 1 -30 -6 -74 -14 -97 -11 -27 -14 -55
-10 -75 4 -19 0 -59 -10 -98 -22 -85 -10 -116 56 -142 25 -10 74 -29 110 -44
189 -76 188 -76 310 -77 172 0 241 36 193 102 -20 26 -37 39 -135 99 -58 36
-158 124 -158 140 0 5 15 12 33 15 17 3 44 10 60 16 l27 11 0 205 c0 197 1
208 24 253 37 73 130 299 156 377 12 39 36 102 53 140 22 51 30 86 30 128 0
31 3 57 7 57 4 0 19 -9 32 -20 23 -17 25 -25 20 -67 -2 -27 -17 -75 -32 -108
-40 -87 -48 -121 -69 -323 -16 -148 -24 -192 -46 -239 -20 -46 -26 -71 -24
-118 2 -34 -3 -70 -10 -83 -6 -12 -11 -46 -10 -75 2 -28 -3 -79 -11 -112 -25
-114 2 -141 153 -151 45 -3 123 -17 172 -30 150 -41 333 -44 370 -8 40 41 5
89 -90 123 -71 26 -147 69 -194 108 -31 27 -34 33 -37 98 -2 61 0 72 22 98 20
24 24 39 24 99 0 62 11 104 89 342 49 149 99 303 112 341 16 49 23 98 25 165
1 52 5 103 9 113 4 10 5 53 3 95 -6 97 -37 151 -153 272 l-83 85 -25 100 c-14
55 -33 154 -42 220 -21 152 -38 219 -80 325 -23 58 -36 113 -42 172 -9 85 -8
88 16 112 l25 25 -21 103 c-34 162 -34 162 -13 195 10 17 40 45 67 63 26 18
58 44 70 59 22 25 23 25 23 5 0 -38 25 -49 78 -35 97 25 202 107 202 156 0 26
-17 35 -69 35 l-38 0 -12 69 c-7 38 -18 77 -25 87 -10 12 -12 42 -8 104 3 63
0 102 -13 146 -26 93 -36 104 -98 104 -45 0 -87 -13 -183 -56 -17 -8 -37 97
-24 130 7 18 7 40 1 61 -6 24 -5 36 5 47 9 8 14 39 15 81 1 55 -2 72 -18 90
-11 12 -26 37 -33 55 -14 35 -36 52 -68 52 -11 0 -23 7 -26 15 -10 26 -74 48
-106 37 -20 -8 -31 -7 -41 3 -17 17 -57 25 -84 18z m76 -44 c15 -15 24 -18 32
-10 20 20 72 13 97 -14 13 -14 32 -25 42 -25 23 0 68 -43 68 -65 0 -8 9 -24
19 -34 15 -15 19 -33 18 -80 0 -34 -3 -64 -7 -66 -14 -8 -32 54 -25 82 6 26 5
27 -8 9 -21 -28 -47 -14 -48 26 l-1 33 -7 -31 c-4 -17 -11 -36 -15 -42 -10
-17 -51 -15 -66 3 -12 14 -15 13 -35 -5 -26 -24 -43 -25 -74 -4 -22 16 -24 15
-46 -12 -21 -26 -25 -27 -49 -16 -36 16 -36 17 -36 -23 0 -24 -6 -37 -20 -45
-17 -9 -20 -17 -14 -46 4 -22 2 -40 -7 -50 -7 -9 -12 -31 -10 -49 4 -48 -12
-50 -48 -5 -46 58 -101 55 -121 -6 -14 -42 0 -93 40 -144 21 -27 26 -40 19
-57 -5 -13 -12 -23 -17 -23 -17 0 -34 30 -29 49 3 14 -3 25 -19 36 -15 10 -24
25 -24 41 0 14 -11 39 -25 56 -26 31 -31 53 -15 78 6 10 3 24 -11 46 -24 40
-24 55 2 87 15 20 18 35 14 61 -8 42 6 71 45 91 18 9 30 23 30 36 0 31 46 72
74 65 18 -4 26 0 34 19 13 29 55 42 92 28 21 -8 31 -6 49 9 31 24 76 23 102
-3z m158 -242 c33 20 56 5 77 -50 10 -28 20 -55 22 -58 2 -4 -13 -13 -32 -20
-37 -14 -60 -54 -46 -80 4 -8 17 -43 29 -78 l21 -63 -22 -17 c-13 -11 -35 -17
-57 -15 -30 2 -36 6 -35 23 0 13 -3 18 -9 12 -19 -19 -3 -46 30 -49 l33 -3
-22 -32 c-13 -18 -31 -42 -42 -54 -13 -15 -15 -23 -7 -23 7 0 21 -10 31 -22
18 -23 18 -23 -3 -29 -20 -6 -19 -7 10 -14 17 -4 42 -18 54 -31 l23 -24 -21
-21 c-12 -13 -39 -23 -66 -26 -40 -5 -58 0 -130 36 -105 52 -162 100 -177 149
-12 37 -30 65 -30 46 1 -31 30 -99 54 -124 15 -17 58 -46 94 -67 37 -20 69
-38 71 -39 4 -4 0 -10 -56 -84 -18 -24 -33 -50 -33 -59 0 -10 9 -3 21 17 26
39 29 40 29 3 0 -38 -41 -81 -77 -81 -42 1 -105 33 -148 75 -46 46 -135 181
-135 204 0 10 22 40 50 69 27 28 52 63 56 77 4 17 13 25 29 25 12 0 28 7 35
15 11 13 8 14 -17 9 -26 -5 -34 -1 -62 33 -39 48 -53 94 -39 133 14 42 61 42
82 2 23 -44 41 -55 66 -42 16 9 21 19 19 45 -2 18 3 40 10 49 9 10 12 29 8 51
-5 28 -2 37 14 45 11 6 19 21 19 36 0 23 3 25 25 20 17 -4 31 0 44 13 17 17
24 18 51 8 25 -10 36 -9 58 4 21 12 33 13 55 5 20 -8 33 -7 46 1z m96 -174
c-11 -46 -57 -58 -63 -17 -2 14 5 23 25 31 42 17 46 15 38 -14z m6 -99 c4 -23
2 -44 -4 -53 -9 -10 -15 -3 -28 35 -11 35 -13 51 -5 56 20 13 31 2 37 -38z
m283 -36 c20 -57 36 -118 36 -143 0 -18 -7 -20 -78 -20 -77 0 -77 0 -140 -48
-34 -27 -69 -61 -77 -78 -9 -16 -17 -29 -18 -29 -2 0 -17 11 -35 23 -42 32
-92 95 -92 118 0 26 89 111 156 149 65 38 155 69 201 69 28 1 33 -3 47 -41z
m33 -192 c10 -10 -1 -15 -56 -26 -29 -5 -66 -21 -82 -34 -15 -13 -34 -26 -41
-29 -7 -2 -10 -7 -7 -11 4 -4 35 0 70 9 60 16 66 16 97 -1 35 -19 44 -39 12
-29 -22 7 -143 -25 -122 -32 8 -3 32 0 55 7 49 13 97 1 97 -25 0 -9 -5 -13
-10 -10 -6 4 -34 -1 -63 -11 -61 -20 -46 -32 19 -14 35 10 47 10 59 0 19 -16
20 -41 1 -34 -30 11 -96 -36 -133 -94 -47 -75 -70 -100 -115 -123 -29 -15 -61
-55 -149 -187 -122 -183 -185 -265 -251 -328 -60 -58 -208 -164 -228 -164 -51
0 -320 233 -320 276 0 23 64 107 105 138 42 33 113 66 140 66 12 0 29 -14 42
-34 l22 -34 -21 -18 c-22 -21 -48 -66 -48 -85 0 -7 13 6 29 28 34 47 64 71
176 138 57 35 117 86 210 180 l130 130 59 133 c55 123 63 135 114 173 30 23
66 45 81 50 28 9 117 6 128 -5z m-7 -49 c0 -8 -15 -12 -44 -12 -51 0 -48 12 4
18 19 2 36 5 38 5 1 1 2 -4 2 -11z m-980 -34 c0 -36 42 -115 102 -192 121
-154 284 -163 303 -15 6 52 27 99 43 99 6 0 40 -21 76 -47 46 -34 66 -54 66
-70 0 -37 -219 -250 -334 -326 -108 -70 -125 -72 -137 -14 -3 17 -20 48 -38
70 -17 22 -31 53 -32 68 -1 16 -5 40 -10 54 -7 20 -8 16 -5 -18 5 -55 -7 -46
-34 25 -39 104 -130 208 -200 228 -14 3 -2 -7 26 -24 28 -16 65 -47 81 -68 39
-50 76 -122 70 -137 -3 -7 19 -49 49 -92 29 -43 54 -82 54 -86 0 -5 -13 -8
-28 -8 -74 0 -216 -116 -265 -216 -11 -24 -24 -44 -27 -44 -3 0 -34 48 -67
108 -62 108 -113 183 -113 167 0 -4 14 -33 31 -63 33 -59 32 -76 -4 -46 -13
10 -4 1 18 -21 23 -22 60 -72 83 -111 45 -78 57 -87 102 -78 26 6 36 -1 94
-60 82 -83 193 -156 236 -156 41 0 218 127 290 208 27 31 50 53 50 50 0 -20
-48 -155 -80 -225 -21 -45 -41 -93 -45 -105 -5 -22 -5 -22 9 2 14 24 14 23 21
-34 4 -33 4 -71 -1 -85 -12 -35 -75 -64 -149 -68 l-60 -4 52 24 c86 38 72 39
-37 2 -149 -50 -180 -52 -275 -20 -43 14 -111 42 -150 61 -61 30 -66 31 -40 9
17 -14 33 -25 38 -25 4 0 7 -4 7 -9 0 -18 -122 19 -175 54 -52 33 -85 76 -85
111 0 28 33 123 41 119 4 -3 10 -21 14 -41 3 -20 9 -34 11 -31 3 3 -4 56 -16
119 -14 74 -24 172 -27 284 -13 395 47 550 237 618 41 15 107 40 145 55 88 36
85 36 85 4z m642 -124 c-15 -32 -31 -59 -37 -59 -5 1 -28 16 -49 35 l-39 35
27 0 c33 0 82 24 89 44 4 9 13 13 20 10 12 -4 10 -16 -11 -65z m486 -75 c19
-6 14 -20 -18 -52 -60 -60 -210 -117 -210 -79 0 6 9 26 20 42 11 17 20 42 20
56 0 36 31 48 110 42 36 -3 71 -6 78 -9z m-208 -54 c0 -5 -5 -10 -11 -10 -5 0
-7 5 -4 10 3 6 8 10 11 10 2 0 4 -4 4 -10z m-216 -390 l22 -100 -20 -19 c-28
-26 -126 -71 -172 -78 -32 -5 -36 -4 -31 13 3 10 9 30 12 44 10 34 159 264
163 251 2 -6 14 -55 26 -111z m-893 -177 c1 -5 -5 -9 -14 -11 -12 -3 -15 1
-11 13 6 15 18 14 25 -2z m879 -73 c1 -63 13 -112 53 -215 21 -52 42 -134 52
-195 30 -195 37 -235 57 -315 25 -101 41 -127 123 -199 48 -43 64 -63 60 -76
-3 -10 7 -43 24 -77 33 -62 55 -193 33 -193 -16 0 -29 28 -40 90 -11 56 -56
165 -72 175 -9 5 -2 -15 36 -115 7 -19 13 -61 14 -94 0 -51 -2 -57 -15 -46 -8
7 -20 31 -25 54 -6 22 -17 55 -25 72 -18 41 -73 104 -90 104 -8 0 -21 7 -29
16 -15 14 -17 14 -23 -2 -3 -9 -1 -43 5 -74 13 -59 8 -90 -12 -90 -6 0 -26 45
-45 100 -29 87 -33 107 -27 160 6 54 4 69 -29 150 -20 50 -52 119 -71 153 -92
164 -124 241 -149 364 -14 68 -29 133 -34 144 -5 15 -1 40 12 75 19 52 34 63
82 64 11 0 43 11 70 24 58 27 63 22 65 -54z m-225 -237 c21 -124 39 -176 97
-280 63 -115 140 -274 135 -280 -9 -9 -208 151 -227 184 -11 18 -30 37 -44 43
-15 5 -27 20 -31 38 -3 17 -15 38 -26 48 -24 22 -24 36 2 60 39 35 49 67 42
138 -6 67 12 165 28 149 4 -4 15 -49 24 -100z m-709 -188 c49 -7 116 -23 149
-35 51 -19 73 -21 140 -16 44 3 116 8 160 10 44 2 90 8 103 11 38 12 24 -12
-17 -28 -156 -63 -498 -39 -687 47 -48 22 -54 28 -54 55 l0 30 58 -31 c40 -20
88 -34 148 -43z m-193 -16 c12 -7 23 -13 25 -14 2 -2 -3 -16 -11 -32 -8 -15
-17 -44 -20 -63 -6 -33 -5 -32 7 6 26 77 32 84 66 72 17 -5 30 -11 30 -12 0
-2 -9 -38 -20 -81 -11 -43 -19 -101 -19 -129 l2 -51 8 62 c7 55 35 183 42 189
1 2 41 -6 87 -16 47 -11 97 -20 112 -20 20 0 32 -8 43 -30 9 -16 18 -30 21
-30 2 0 0 9 -6 19 -17 32 -13 34 51 27 33 -3 103 -1 155 5 119 13 126 14 163
33 44 23 50 21 72 -29 12 -27 31 -51 48 -60 16 -8 31 -25 34 -38 4 -14 54 -59
138 -122 l131 -99 -6 -66 c-4 -40 -3 -78 4 -94 12 -33 8 -37 -86 -86 -68 -35
-132 -41 -216 -20 -58 15 -139 0 -218 -40 -51 -26 -137 -106 -204 -189 -34
-42 -93 -88 -168 -130 l-58 -33 -9 24 c-6 12 -33 75 -61 138 -28 63 -52 120
-54 126 -1 6 -26 38 -55 70 -96 107 -131 201 -131 349 0 107 25 257 56 333 18
47 17 46 47 31z m1516 -613 c43 -74 39 -83 -4 -12 -19 32 -35 60 -35 62 0 13
12 -3 39 -50z m-192 -11 c29 -21 70 -93 78 -140 10 -55 31 -85 59 -85 14 0 26
4 28 9 2 5 14 0 28 -11 23 -19 25 -27 24 -97 -1 -61 -7 -90 -31 -148 -17 -40
-27 -71 -23 -68 10 6 -16 -77 -83 -275 -69 -201 -97 -306 -97 -362 0 -38 -6
-57 -26 -84 -25 -33 -26 -37 -15 -76 7 -22 9 -44 4 -48 -4 -3 -36 -14 -70 -23
-120 -32 -253 -15 -253 33 0 11 7 37 15 57 10 24 13 51 9 83 -5 36 -2 56 15
87 28 56 40 113 57 283 17 170 32 237 74 321 23 44 29 69 25 89 -3 16 -2 31 4
35 23 14 9 36 -45 72 -32 22 -63 52 -74 72 -10 20 -41 68 -69 106 l-51 70 60
7 c44 5 83 19 136 48 66 36 75 39 80 23 23 -76 41 -108 62 -111 48 -7 65 39
43 116 -11 36 0 42 36 17z m-407 -155 c94 -123 115 -170 115 -255 0 -60 -5
-80 -35 -140 -19 -39 -34 -76 -33 -84 2 -23 -50 -156 -152 -386 -85 -193 -95
-222 -95 -274 0 -50 -4 -65 -27 -92 -24 -28 -28 -42 -28 -93 0 -53 -2 -61 -18
-58 -9 2 -47 -5 -85 -14 -81 -21 -147 -22 -190 -5 -42 18 -48 43 -23 92 17 33
20 50 15 90 -6 42 -3 58 19 102 33 66 53 141 72 280 27 195 55 280 124 382 12
17 21 46 21 65 0 20 7 45 15 57 17 25 24 18 -119 116 -31 21 -56 42 -56 47 0
18 121 150 166 181 61 42 138 68 201 69 l52 0 61 -80z m-872 -2 c5 -7 26 -44
45 -83 42 -83 46 -78 -90 -95 -91 -12 -144 -29 -88 -29 17 0 48 3 70 8 22 5
65 12 96 16 l56 6 21 -50 c11 -28 20 -51 19 -51 -6 0 -238 -40 -264 -46 -18
-3 -61 -2 -95 4 -115 20 -559 90 -623 98 -99 13 -95 10 -95 70 0 48 2 55 18
50 35 -10 141 -27 287 -46 83 -11 211 -29 285 -40 74 -11 144 -20 155 -19 l20
0 -20 9 c-19 9 -438 70 -585 85 -36 4 -71 10 -77 14 -7 4 60 15 150 25 131 15
674 81 698 85 4 1 11 -5 17 -11z m406 -224 c-2 -10 -142 -56 -156 -52 -5 2 19
22 54 44 55 36 66 40 83 29 11 -7 19 -16 19 -21z m-1206 -622 c1 -325 -2 -592
-6 -592 -5 0 -23 5 -41 11 l-31 11 0 587 0 588 38 -6 37 -6 3 -593z m1298 568
c50 -35 48 -32 32 -77 -10 -26 -18 -33 -39 -33 -15 0 -60 -6 -100 -14 -70 -14
-296 -56 -404 -75 -27 -5 -51 -8 -52 -8 -1 1 -3 36 -4 77 -2 73 -2 75 22 78
13 2 62 9 108 17 59 10 90 11 103 4 21 -11 101 4 213 40 78 25 70 26 121 -9z
m-1256 -65 l0 -85 31 -7 32 -6 -4 -489 -4 -489 -38 -11 c-20 -6 -38 -9 -40 -7
-8 14 5 1179 13 1179 6 0 10 -36 10 -85z m150 61 c41 -8 128 -22 193 -31 l117
-18 0 -66 c0 -36 -4 -71 -8 -77 -5 -8 -59 -2 -192 22 -102 19 -197 34 -212 34
-26 0 -26 1 -30 75 l-3 75 30 0 c17 0 64 -6 105 -14z m387 -62 l23 -6 2 -629
c3 -625 3 -629 -17 -623 -11 4 -30 10 -42 15 l-23 9 0 417 c0 230 -3 509 -7
621 l-6 202 24 0 c13 0 34 -3 46 -6z m129 -616 c-1 -610 -2 -621 -21 -629 -11
-4 -30 -8 -42 -8 l-23 -1 0 624 0 625 28 4 c15 2 34 5 43 6 14 1 16 -59 15
-621z m274 121 l0 -370 -36 -15 c-20 -8 -37 -14 -38 -12 0 2 0 173 2 380 3
408 0 383 55 387 16 1 17 -23 17 -370z m-90 -24 c0 -206 -2 -375 -4 -375 -1 0
-17 5 -35 11 l-31 11 0 357 c0 197 3 361 7 364 3 4 19 7 35 7 l28 0 0 -375z
m638 -481 c-2 -1 -15 -5 -30 -9 -25 -7 -27 -5 -34 41 -5 37 -3 55 10 77 9 16
16 51 16 80 0 29 8 74 17 101 l18 49 3 -168 c1 -92 1 -169 0 -171z m-75 21 l5
-50 -14 44 c-7 24 -11 48 -8 53 9 14 11 8 17 -47z m412 30 c27 4 68 11 90 17
39 11 42 10 107 -40 37 -28 102 -67 145 -87 43 -20 94 -44 113 -53 42 -21 50
-46 18 -64 -42 -23 -210 -15 -320 16 -54 14 -140 30 -192 35 -144 14 -158 28
-132 132 9 33 16 62 16 63 0 2 24 -3 53 -11 32 -9 71 -12 102 -8z m-400 -183
c40 -37 101 -83 136 -101 76 -40 109 -68 109 -92 0 -30 -39 -42 -146 -47 -117
-5 -179 6 -270 49 -36 17 -98 41 -137 54 -38 13 -74 30 -78 37 -12 18 -11 61
2 114 10 40 14 45 33 39 48 -15 115 -15 171 -2 97 24 100 23 180 -51z"/>
<path d="M5545 4666 c-28 -12 -65 -46 -51 -46 4 0 21 7 38 16 23 12 45 14 88
9 39 -5 60 -3 65 5 10 16 8 16 -55 23 -35 4 -66 1 -85 -7z"/>
<path d="M5585 4581 c-36 -4 -45 -8 -32 -13 29 -12 61 -9 83 7 10 8 15 14 9
13 -5 -1 -32 -4 -60 -7z"/>
<path d="M5251 4561 c-16 -28 -14 -38 3 -16 12 16 16 17 30 6 12 -10 15 -23
10 -47 -5 -26 -2 -34 15 -43 12 -7 21 -8 21 -2 0 5 -7 12 -15 15 -13 5 -14 10
-4 27 9 18 7 26 -8 47 -25 34 -39 37 -52 13z"/>
<path d="M5425 4467 c5 -12 65 -63 65 -54 0 1 -16 17 -35 36 -19 18 -33 26
-30 18z"/>
<path d="M5371 4184 c0 -11 3 -14 6 -6 3 7 2 16 -1 19 -3 4 -6 -2 -5 -13z"/>
<path d="M5382 4135 c0 -11 4 -31 8 -45 6 -20 8 -21 8 -5 0 11 -4 31 -8 45 -6
20 -8 21 -8 5z"/>
<path d="M5401 4044 c0 -11 3 -14 6 -6 3 7 2 16 -1 19 -3 4 -6 -2 -5 -13z"/>
<path d="M5968 4488 c-73 -27 -184 -103 -215 -148 -24 -34 -25 -34 -2 -9 65
69 158 128 259 160 30 10 46 18 35 18 -11 0 -46 -10 -77 -21z"/>
<path d="M5920 4170 c-6 -11 -8 -20 -6 -20 3 0 10 9 16 20 6 11 8 20 6 20 -3
0 -10 -9 -16 -20z"/>
<path d="M5804 3768 l-29 -33 33 29 c17 17 32 31 32 33 0 8 -8 1 -36 -29z"/>
<path d="M5307 3294 c-17 -9 -40 -13 -55 -10 -26 5 -26 5 -4 -6 19 -9 31 -8
65 10 23 11 38 21 32 21 -5 0 -23 -7 -38 -15z"/>
<path d="M5200 4021 c5 -11 15 -23 21 -27 6 -3 3 5 -6 20 -20 30 -30 35 -15 7z"/>
<path d="M5256 3949 c16 -20 31 -34 33 -32 3 2 -10 18 -29 36 l-34 32 30 -36z"/>
<path d="M5181 3894 c0 -11 3 -14 6 -6 3 7 2 16 -1 19 -3 4 -6 -2 -5 -13z"/>
<path d="M5300 3906 c0 -2 8 -10 18 -17 15 -13 16 -12 3 4 -13 16 -21 21 -21
13z"/>
<path d="M5515 3823 c-22 -19 -31 -31 -20 -25 19 9 74 63 64 62 -2 -1 -22 -17
-44 -37z"/>
<path d="M4998 3092 c52 -50 114 -88 157 -97 19 -4 12 2 -18 14 -47 19 -92 48
-153 100 -16 14 -10 7 14 -17z"/>
<path d="M6195 3996 c-52 -24 -115 -71 -115 -87 0 -5 23 9 52 31 29 21 71 45
95 52 24 7 43 16 43 20 0 14 -23 9 -75 -16z"/>
<path d="M4750 2935 c0 -7 61 -37 66 -33 2 3 -12 12 -31 21 -19 9 -35 15 -35
12z"/>
<path d="M5463 2719 c-19 -20 -50 -36 -84 -45 -53 -14 -53 -14 -9 -8 52 6 96
29 118 62 20 30 12 28 -25 -9z"/>
<path d="M5026 2689 c27 -4 101 -24 163 -44 131 -41 161 -41 40 0 -103 35
-186 55 -224 53 -20 0 -13 -3 21 -9z"/>
<path d="M5511 2611 c-30 -37 -54 -54 -89 -65 -46 -15 -46 -15 -8 -10 51 7 76
24 115 79 42 59 34 57 -18 -4z"/>
<path d="M4982 2582 c-29 -11 -59 -25 -65 -32 -7 -7 2 -5 20 4 17 9 64 21 103
28 60 10 83 10 148 -4 84 -17 106 -16 45 2 -71 22 -192 23 -251 2z"/>
<path d="M5315 2465 c33 -20 84 -58 114 -84 87 -75 121 -97 56 -36 -61 57
-176 139 -211 151 -10 3 8 -11 41 -31z"/>
<path d="M5430 2431 c39 -23 148 -51 194 -50 l51 2 -65 7 c-36 5 -92 17 -125
29 -63 22 -79 26 -55 12z"/>
<path d="M4799 2242 c36 -46 93 -95 158 -136 67 -41 65 -30 -3 13 -33 22 -89
68 -124 103 -52 50 -58 55 -31 20z"/>
<path d="M4825 2090 c10 -11 20 -18 23 -16 5 6 -23 36 -34 36 -4 0 1 -9 11
-20z"/>
<path d="M5717 2089 c7 -7 15 -10 18 -7 3 3 -2 9 -12 12 -14 6 -15 5 -6 -5z"/>
<path d="M5754 2071 c7 -11 177 -74 183 -67 2 2 -15 10 -39 19 -24 8 -67 24
-96 36 -29 12 -51 17 -48 12z"/>
<path d="M5975 1900 c-38 -10 -62 -19 -52 -19 25 -1 110 20 122 30 5 5 7 8 5
8 -3 -1 -36 -9 -75 -19z"/>
<path d="M5902 1819 c7 -5 38 -8 68 -8 66 1 56 6 -23 12 -32 2 -52 0 -45 -4z"/>
<path d="M5861 1273 c-61 -75 -64 -79 -16 -28 32 33 66 72 77 88 38 53 11 26
-61 -60z"/>
<path d="M5780 1076 c0 -3 9 -10 20 -16 11 -6 20 -8 20 -6 0 3 -9 10 -20 16
-11 6 -20 8 -20 6z"/>
<path d="M5840 1040 c8 -5 22 -9 30 -9 10 0 8 3 -5 9 -27 12 -43 12 -25 0z"/>
<path d="M5898 1023 c7 -3 16 -2 19 1 4 3 -2 6 -13 5 -11 0 -14 -3 -6 -6z"/>
<path d="M5918 985 c-2 -3 -38 -14 -79 -24 -41 -11 -64 -20 -53 -20 24 -1 154
37 154 44 0 7 -15 6 -22 0z"/>
<path d="M5755 900 c42 -21 74 -23 115 -9 19 6 16 7 -15 3 -22 -2 -53 0 -70 5
-16 5 -39 12 -50 15 -11 4 -2 -3 20 -14z"/>
<path d="M5908 903 c7 -3 16 -2 19 1 4 3 -2 6 -13 5 -11 0 -14 -3 -6 -6z"/>
<path d="M5254 1945 c22 -17 120 -55 139 -54 7 0 -11 9 -39 18 -27 10 -66 26
-85 35 -27 14 -30 14 -15 1z"/>
<path d="M5423 1807 c-48 -14 -73 -32 -28 -21 45 11 102 33 85 32 -8 0 -34 -5
-57 -11z"/>
<path d="M5474 1744 c-18 -14 -18 -15 4 -4 12 6 22 13 22 15 0 8 -5 6 -26 -11z"/>
<path d="M5383 1713 c9 -2 23 -2 30 0 6 3 -1 5 -18 5 -16 0 -22 -2 -12 -5z"/>
<path d="M5645 1588 c-16 -24 -22 -38 -14 -31 15 12 53 73 46 73 -2 0 -17 -19
-32 -42z"/>
<path d="M5414 1303 c-16 -21 -67 -78 -114 -127 -48 -51 -69 -78 -48 -62 41
31 210 226 195 226 -2 0 -17 -17 -33 -37z"/>
<path d="M5175 935 c26 -22 116 -65 135 -64 8 0 -6 8 -32 18 -26 10 -64 29
-85 41 -22 12 -30 15 -18 5z"/>
<path d="M5317 859 c-10 -6 -48 -17 -85 -25 -66 -14 -66 -14 -12 -8 47 5 154
41 125 43 -5 0 -18 -4 -28 -10z"/>
<path d="M5120 791 c0 -6 4 -13 10 -16 6 -3 7 1 4 9 -7 18 -14 21 -14 7z"/>
<path d="M5260 780 c-20 -6 -21 -8 -5 -8 11 0 29 3 40 8 25 11 -1 11 -35 0z"/>
<path d="M5168 763 c12 -2 32 -2 45 0 12 2 2 4 -23 4 -25 0 -35 -2 -22 -4z"/>
<path d="M4593 1840 c0 -25 2 -35 4 -22 2 12 2 32 0 45 -2 12 -4 2 -4 -23z"/>
</g>
</svg>
