<?xml version="1.0" standalone="no"?>
<!DOCTYPE svg PUBLIC "-//W3C//DTD SVG 20010904//EN"
 "http://www.w3.org/TR/2001/REC-SVG-20010904/DTD/svg10.dtd">
<svg version="1.0" xmlns="http://www.w3.org/2000/svg"
 width="1024.000000pt" height="559.000000pt" viewBox="0 0 1024.000000 559.000000"
 preserveAspectRatio="xMidYMid meet">
<metadata>
Created by potrace 1.16, written by Peter Selinger 2001-2019
</metadata>
<g transform="translate(0.000000,559.000000) scale(0.100000,-0.100000)"
fill="#000000" stroke="none">
<path d="M5010 4726 c-120 -27 -255 -84 -348 -148 -46 -32 -82 -81 -82 -112 0
-10 -13 -35 -29 -55 -61 -77 -76 -119 -76 -211 0 -69 5 -94 23 -130 20 -39 24
-64 27 -185 4 -122 0 -175 -21 -272 -2 -14 -12 -23 -23 -23 -10 0 -31 -10 -47
-22 -16 -13 -38 -21 -52 -20 -34 5 -65 -19 -93 -72 -13 -25 -31 -46 -39 -46
-34 0 -65 -38 -112 -137 -78 -166 -92 -242 -93 -528 l-2 -240 -35 -75 c-39
-82 -107 -199 -277 -480 -171 -281 -228 -413 -252 -584 -14 -101 1 -257 31
-315 54 -106 185 -152 342 -120 79 16 240 98 352 179 l99 71 26 -24 c91 -83
111 -80 239 39 56 53 102 92 102 87 0 -8 24 -260 36 -386 4 -37 11 -70 16 -73
40 -25 466 618 998 1506 213 355 253 415 288 429 37 15 80 4 139 -36 21 -14
54 -30 73 -35 104 -27 229 -87 236 -113 2 -5 -14 -18 -36 -28 -97 -45 -221
-320 -284 -632 -28 -135 -62 -399 -96 -739 -22 -216 -25 -341 -11 -351 16 -9
31 30 31 79 0 49 24 317 40 456 38 321 53 423 74 532 50 246 126 451 212 569
19 26 41 50 50 53 39 15 193 -82 275 -173 59 -64 114 -168 244 -456 42 -93
102 -223 133 -289 l57 -118 -43 -39 c-91 -80 -249 -172 -386 -225 -105 -41
-278 -87 -307 -82 -19 3 -27 25 -65 183 -67 275 -85 335 -100 335 -26 0 -21
-24 80 -430 l31 -125 64 0 c60 -1 65 -2 72 -25 4 -14 19 -71 34 -128 28 -102
38 -123 56 -105 7 7 -1 52 -20 128 -17 64 -31 123 -31 130 0 7 31 22 73 35
113 34 265 99 345 148 40 24 75 43 76 41 6 -6 43 -176 71 -319 26 -137 36
-163 56 -143 10 10 -32 256 -75 435 l-14 57 59 51 c38 33 59 59 59 73 0 38
-325 742 -384 830 -48 72 -135 152 -214 197 -37 21 -62 42 -62 52 -1 50 -97
115 -237 159 -38 12 -94 38 -126 57 -65 40 -133 48 -180 23 -24 -13 -30 -12
-74 15 -61 37 -120 124 -152 222 l-24 73 31 32 c17 18 50 68 72 112 23 44 71
133 107 197 78 141 109 229 130 368 19 127 7 245 -34 349 -39 98 -107 187
-175 227 -8 5 -28 33 -43 63 -69 126 -217 205 -484 255 -97 19 -242 19 -321 2z
m414 -65 c200 -51 297 -109 357 -216 16 -27 58 -76 94 -108 119 -106 161 -224
152 -432 -4 -111 -10 -143 -37 -224 -17 -52 -60 -144 -95 -205 -34 -61 -81
-147 -103 -191 -22 -44 -49 -88 -59 -98 -20 -17 -21 -16 -36 40 -29 106 -27
116 25 163 66 58 111 152 116 242 5 80 -8 118 -51 154 -27 23 -38 26 -89 22
-66 -5 -104 -33 -139 -100 -11 -21 -25 -38 -32 -38 -30 0 -37 25 -37 130 0
144 -9 171 -86 250 -74 77 -102 134 -111 226 -3 37 -11 68 -18 70 -7 3 -48
-19 -92 -49 -83 -56 -143 -81 -227 -93 l-49 -7 21 31 c26 35 61 111 62 130 0
26 -30 23 -67 -7 -47 -38 -233 -134 -233 -120 0 5 7 26 15 46 22 51 5 63 -37
28 -46 -39 -78 -88 -104 -163 -21 -60 -23 -63 -34 -42 -39 74 -14 207 55 287
23 27 35 51 35 70 0 35 32 68 114 117 209 126 431 154 690 87z m-510 -383 c-4
-7 -22 -32 -41 -55 -19 -24 -31 -48 -27 -54 11 -18 160 -5 225 20 32 12 84 39
117 60 l60 39 7 -46 c10 -75 50 -148 115 -216 34 -35 65 -78 70 -97 6 -19 10
-82 10 -142 0 -102 1 -109 25 -133 19 -19 34 -24 57 -22 27 2 37 11 61 54 33
57 70 84 115 84 139 0 111 -268 -38 -368 -33 -22 -44 -23 -97 -7 -17 6 -23 3
-23 -8 0 -21 38 -47 67 -47 19 0 23 -5 23 -34 0 -67 84 -322 133 -404 29 -49
116 -132 138 -132 18 0 8 -22 -39 -93 -27 -40 -72 -111 -100 -159 -40 -65 -63
-93 -100 -116 -219 -141 -494 -150 -580 -19 -23 35 -27 51 -27 111 1 50 6 81
20 106 l19 35 24 -77 c25 -81 52 -106 52 -48 0 24 -41 152 -75 232 -5 13 -1
20 16 27 75 29 259 169 259 197 0 28 -22 23 -62 -14 -53 -48 -166 -122 -233
-151 -27 -12 -79 -27 -115 -33 -56 -10 -74 -9 -121 6 -101 32 -126 70 -209
321 l-53 159 17 88 c15 79 15 91 1 124 -8 20 -23 38 -34 41 -29 7 -32 25 -18
116 7 45 12 133 11 195 l-1 112 25 0 c13 0 46 -12 72 -26 50 -27 85 -29 85 -4
0 18 -118 80 -153 80 -23 0 -24 2 -18 41 9 56 44 158 63 183 10 14 14 16 10 4
-3 -9 0 -23 6 -33 12 -15 16 -14 57 9 88 48 195 104 203 105 5 1 5 -5 1 -11z
m-416 -781 c2 -31 -7 -78 -26 -139 -49 -154 -70 -289 -47 -308 20 -16 31 10
38 90 3 36 18 106 33 155 15 50 32 109 38 133 6 23 15 41 21 39 19 -6 16 -87
-5 -173 -33 -136 -46 -280 -33 -371 16 -109 51 -131 118 -72 20 18 37 30 39
28 1 -2 13 -23 26 -46 l24 -43 -21 -22 c-11 -13 -46 -63 -77 -111 -55 -83 -86
-113 -176 -170 -69 -43 -157 -277 -264 -697 -66 -259 -87 -322 -132 -412 -26
-51 -26 -82 0 -72 30 11 136 275 136 338 0 10 5 16 12 14 18 -6 116 -176 147
-258 35 -90 43 -78 -114 -195 -298 -223 -509 -280 -639 -173 -51 42 -64 72
-75 180 -24 235 35 395 303 833 81 132 172 292 204 355 l57 114 1 241 c1 280
15 362 83 510 43 93 68 128 82 119 15 -9 10 -56 -15 -134 -21 -63 -39 -149
-49 -235 -1 -11 5 -21 15 -23 23 -4 38 34 38 96 0 26 14 85 30 132 18 53 30
105 30 138 0 70 42 152 77 152 22 0 15 -67 -18 -175 -41 -137 -62 -275 -44
-294 19 -19 31 8 39 89 3 36 22 117 41 180 19 63 35 133 35 154 0 27 7 47 22
63 30 32 42 24 46 -30z m116 -453 l38 -116 -36 -36 c-19 -20 -39 -33 -43 -29
-20 20 -23 297 -4 297 4 0 24 -52 45 -116z m182 -293 c57 -28 130 -35 199 -21
53 11 60 11 72 -6 7 -10 10 -21 6 -25 -5 -5 -82 -38 -173 -74 -279 -113 -327
-145 -469 -318 -35 -42 -66 -76 -68 -74 -2 2 14 46 34 98 37 92 40 95 102 136
87 57 105 76 159 163 36 58 93 140 98 140 0 0 18 -9 40 -19z m247 -142 c-22
-43 -28 -140 -13 -194 48 -173 310 -219 568 -100 67 31 71 32 60 12 -42 -80
-421 -688 -566 -907 -239 -364 -333 -495 -342 -479 -11 20 -39 343 -59 671
-10 158 -20 291 -24 294 -3 3 -11 3 -18 -1 -12 -8 -10 -99 7 -418 l7 -118 -44
-45 c-82 -85 -159 -147 -163 -132 -2 7 -16 56 -31 108 -31 114 -106 271 -169
357 l-45 62 39 154 c57 219 59 225 157 339 48 57 108 127 132 156 63 74 148
125 328 198 86 35 158 66 161 69 3 3 11 5 18 5 9 0 9 -7 -3 -31z m-638 -1390
c4 -22 5 -42 2 -45 -2 -3 -19 7 -36 22 l-32 27 22 23 c27 29 35 24 44 -27z"/>
<path d="M4827 3993 c-12 -12 -7 -79 7 -99 21 -28 26 -15 19 49 -6 54 -11 65
-26 50z"/>
<path d="M5032 3960 c-40 -17 -81 -30 -91 -30 -26 0 -44 -23 -29 -38 19 -19
55 -14 126 17 93 41 111 44 159 27 61 -22 75 1 21 34 -46 28 -100 25 -186 -10z"/>
<path d="M4626 3824 c-19 -18 -20 -38 -6 -65 21 -37 70 -13 70 35 0 16 -26 46
-40 46 -5 0 -16 -7 -24 -16z"/>
<path d="M4727 3768 c-109 -228 -112 -269 -23 -303 36 -14 51 -15 77 -6 18 6
45 11 60 11 19 0 29 5 29 15 0 21 -41 28 -89 15 -50 -13 -94 3 -99 37 -2 12
22 80 53 152 51 120 59 151 35 151 -4 0 -24 -33 -43 -72z"/>
<path d="M5046 3824 c-23 -22 -20 -71 3 -84 27 -14 28 -13 47 15 29 44 -15
105 -50 69z"/>
<path d="M4970 3516 c0 -2 20 -33 44 -69 42 -63 81 -151 93 -209 3 -16 12 -28
20 -28 11 0 12 9 7 38 -16 93 -115 272 -150 272 -8 0 -14 -2 -14 -4z"/>
<path d="M4722 3363 c-36 -7 -52 -41 -42 -88 29 -141 53 -233 65 -252 20 -30
104 -56 158 -48 60 9 116 43 139 85 52 95 -33 267 -149 299 -37 11 -126 13
-171 4z m178 -47 c19 -7 35 -17 34 -22 -1 -13 -102 -26 -149 -19 -51 7 -69 19
-62 39 5 13 21 16 74 15 37 0 84 -6 103 -13z m122 -196 c-7 -63 -90 -117 -165
-107 -62 8 -67 21 -23 66 41 41 112 72 161 68 26 -2 30 -6 27 -27z"/>
<path d="M5509 3238 c-6 -24 -20 -60 -30 -80 -23 -45 -24 -58 -4 -58 17 0 41
42 61 109 18 58 18 71 -1 71 -8 0 -19 -17 -26 -42z"/>
<path d="M4800 2914 c0 -16 24 -24 75 -24 51 0 75 8 75 24 0 7 -25 11 -75 11
-50 0 -75 -4 -75 -11z"/>
<path d="M4240 2871 c0 -5 12 -35 27 -67 20 -44 28 -80 31 -141 5 -86 15 -103
33 -55 23 58 -37 272 -77 272 -8 0 -14 -4 -14 -9z"/>
<path d="M3325 4083 c-107 -152 -186 -329 -231 -518 -31 -134 -44 -403 -25
-534 36 -245 124 -465 269 -668 27 -40 51 -63 63 -63 30 0 23 19 -42 110 -251
350 -324 817 -194 1250 33 112 141 328 204 410 55 71 61 90 31 90 -13 0 -38
-26 -75 -77z"/>
<path d="M3614 3868 c-231 -314 -266 -775 -86 -1133 43 -87 109 -184 128 -192
36 -13 31 15 -12 77 -139 200 -213 485 -184 712 26 204 87 369 193 519 36 52
42 79 16 79 -5 0 -30 -28 -55 -62z"/>
<path d="M3845 3663 c-40 -55 -88 -164 -112 -255 -25 -97 -23 -272 6 -378 38
-142 133 -302 162 -273 8 8 -2 32 -35 87 -25 42 -58 111 -74 153 -25 72 -27
90 -27 228 0 130 3 159 23 219 26 78 57 142 97 200 25 37 27 66 5 66 -5 0 -26
-21 -45 -47z"/>
<path d="M6048 2663 c-59 -67 -355 -651 -344 -679 4 -10 10 -14 15 -8 5 5 64
117 131 249 67 132 147 284 177 338 36 63 52 102 46 108 -6 6 -15 3 -25 -8z"/>
<path d="M6072 2368 c-93 -250 -232 -756 -307 -1118 -10 -47 -21 -100 -25
-117 -9 -34 3 -54 21 -36 5 5 31 105 58 223 92 400 189 758 266 978 39 114 41
122 21 122 -8 0 -23 -23 -34 -52z"/>
<path d="M5583 1678 c-5 -7 -57 -110 -116 -228 -58 -118 -155 -298 -216 -400
-73 -122 -107 -188 -101 -194 16 -16 40 15 134 173 144 240 336 635 319 652
-6 6 -14 5 -20 -3z"/>
</g>
</svg>
