<?xml version="1.0" standalone="no"?>
<!DOCTYPE svg PUBLIC "-//W3C//DTD SVG 20010904//EN"
 "http://www.w3.org/TR/2001/REC-SVG-20010904/DTD/svg10.dtd">
<svg version="1.0" xmlns="http://www.w3.org/2000/svg"
 width="1024.000000pt" height="559.000000pt" viewBox="0 0 1024.000000 559.000000"
 preserveAspectRatio="xMidYMid meet">
<metadata>
Created by potrace 1.16, written by Peter Selinger 2001-2019
</metadata>
<g transform="translate(0.000000,559.000000) scale(0.100000,-0.100000)"
fill="#000000" stroke="none">
<path d="M3545 5190 l-700 -5 -3 -2236 -2 -2237 -123 -10 c-114 -9 -108 -9 93
-6 838 14 1010 15 1010 2 0 -7 -5 -42 -11 -77 -17 -106 3 -148 82 -177 58 -20
204 -20 253 0 58 24 63 55 27 148 -53 133 -133 118 629 118 l660 0 0 -44 c0
-24 3 -52 6 -61 11 -27 60 -45 141 -51 50 -4 116 -19 183 -42 93 -31 117 -35
210 -36 126 -1 170 15 170 63 0 37 -34 67 -135 116 -41 21 -78 42 -81 46 -3 5
266 9 615 9 407 0 621 -3 621 -10 0 -6 82 -9 228 -9 150 1 209 4 172 9 -30 5
-85 8 -123 9 l-67 1 4 983 c2 540 7 1013 11 1051 4 42 3 84 -4 105 -7 24 -12
419 -14 1182 -2 631 -7 1152 -11 1158 -7 11 -2323 12 -3841 1z m2258 -20
l1577 0 0 -1151 c0 -916 -3 -1150 -12 -1147 -8 3 -14 27 -16 62 -3 49 -6 58
-27 68 -13 6 -39 8 -59 4 -36 -7 -36 -7 -37 -59 -1 -29 -1 -58 0 -64 1 -7 -3
-13 -9 -13 -7 0 -11 342 -12 1083 l-3 1082 -2084 3 c-1661 2 -2086 0 -2093
-10 -4 -7 -8 -979 -8 -2160 l0 -2146 -65 -7 c-35 -4 -71 -5 -80 -1 -13 5 -15
250 -15 2237 l0 2232 683 -6 c375 -4 1392 -7 2260 -7z m1185 -1228 l2 -1072
-90 0 -90 0 0 1070 0 1069 78 3 c42 2 82 3 87 3 7 -1 11 -368 13 -1073z m176
1072 l26 -6 0 -1069 0 -1069 -89 0 -90 0 -3 1068 c-2 587 -2 1070 -1 1073 3 8
126 11 157 3z m-3914 -2144 l0 -2140 -100 0 -100 0 0 2140 0 2140 100 0 100 0
0 -2140z m1590 2035 l0 -105 -537 0 c-296 0 -649 -3 -785 -7 l-248 -6 0 111 0
112 785 0 785 0 0 -105z m270 -268 l0 -373 -57 -12 c-32 -7 -87 -25 -121 -42
-35 -16 -66 -30 -68 -30 -2 0 -4 187 -4 415 l0 415 125 0 125 0 0 -373z m257
141 c-4 -128 -7 -297 -7 -376 l0 -143 -112 3 -113 3 -3 373 -2 372 121 0 122
0 -6 -232z m1432 127 l-1 -105 -273 0 c-230 0 -275 2 -285 15 -7 8 -31 20 -54
27 -22 7 -56 23 -75 35 -23 16 -47 22 -75 21 -22 -1 -56 5 -74 13 -30 12 -36
12 -75 -9 -23 -12 -55 -22 -70 -22 -18 0 -39 -10 -56 -27 -46 -46 -84 -56
-238 -60 l-143 -5 0 111 0 111 710 0 711 0 -2 -105z m-817 -34 c16 -13 29 -17
39 -10 26 17 60 9 90 -20 19 -20 35 -27 49 -24 27 7 68 -21 72 -49 2 -15 11
-24 26 -26 21 -3 52 -46 52 -73 0 -6 7 -17 16 -24 10 -7 18 -29 20 -56 2 -24
6 -57 10 -72 5 -21 1 -34 -14 -50 -11 -12 -22 -33 -24 -46 -1 -14 -8 -26 -14
-28 -15 -5 -5 58 12 75 17 16 18 29 4 37 -5 3 -10 -3 -10 -14 0 -25 -37 -29
-47 -6 -5 14 -7 14 -24 0 -23 -21 -57 -11 -71 20 -10 22 -12 23 -34 8 -22 -14
-26 -14 -49 1 -14 9 -25 25 -25 36 0 21 -15 27 -25 10 -11 -18 -43 -10 -63 15
-25 31 -32 31 -32 2 0 -29 -31 -59 -56 -55 -14 2 -20 -5 -24 -27 -3 -18 -14
-34 -27 -40 -13 -5 -23 -20 -25 -35 -2 -13 -10 -26 -19 -28 -13 -2 -17 8 -21
43 -7 58 -32 87 -72 83 -59 -6 -94 -99 -66 -174 9 -22 8 -31 -5 -43 -15 -15
-17 -14 -28 4 -11 18 -17 72 -16 135 0 14 0 50 -1 81 0 44 4 59 20 74 15 14
19 26 15 46 -8 34 8 65 35 74 11 4 27 22 35 41 12 28 19 34 44 34 20 0 31 5
31 14 0 24 52 58 79 53 16 -3 35 2 50 14 30 24 62 24 93 0z m-1164 -103 c-7
-19 -1519 -19 -1525 0 -4 9 153 12 762 12 609 0 766 -3 763 -12z m842 -3 c0
-12 -20 -15 -119 -15 -93 0 -121 3 -131 15 -11 13 3 15 119 15 110 0 131 -2
131 -15z m1108 3 c-4 -10 -61 -14 -234 -16 -191 -2 -233 0 -249 13 -18 13 7
14 233 15 199 0 253 -3 250 -12z m-3468 -924 c0 -797 -2 -904 -15 -904 -13 0
-15 108 -15 916 0 814 2 915 15 904 13 -11 15 -125 15 -916z m2110 665 c0
-206 -2 -239 -15 -239 -13 0 -15 35 -15 251 0 222 2 250 15 239 13 -10 15 -51
15 -251z m1380 -649 c0 -802 -2 -910 -15 -910 -13 0 -15 106 -15 895 0 872 1
921 28 925 1 0 2 -409 2 -910z m-1955 303 c-18 -48 -23 15 -25 278 0 224 2
295 12 307 11 12 13 -38 16 -279 1 -162 0 -299 -3 -306z m-37 270 l-3 -297
-115 -51 c-77 -34 -118 -58 -125 -72 -5 -12 -65 -54 -140 -98 -71 -41 -138
-82 -148 -90 -22 -16 -93 -221 -107 -308 -5 -34 -12 -118 -15 -187 -8 -169
-23 -319 -37 -352 l-10 -28 -299 0 -299 0 -2 828 c-1 563 -4 749 -8 582 -4
-135 -8 -507 -9 -827 l-1 -583 -34 0 c-18 0 -54 -3 -80 -6 l-46 -7 0 897 0
896 740 0 740 0 -2 -297z m809 279 c-10 -10 -17 -34 -17 -52 0 -18 -8 -42 -17
-53 -12 -13 -19 -39 -20 -81 -5 -140 -1 -212 15 -228 19 -19 14 -30 -10 -22
-26 8 -82 7 -109 -1 -18 -6 -19 4 -19 224 l0 231 97 0 c92 0 95 -1 80 -18z
m1140 -179 c-4 -108 -7 -508 -7 -890 0 -671 -1 -693 -19 -693 -10 0 -24 6 -30
14 -7 8 -44 20 -84 26 -90 16 -127 40 -272 180 -60 58 -126 116 -146 128 -30
18 -37 29 -42 64 -4 30 -1 48 9 59 18 20 18 42 -1 123 -8 35 -19 117 -25 182
-5 65 -17 139 -26 164 l-17 47 61 94 c66 102 92 155 92 191 0 13 12 41 25 63
14 22 25 47 25 55 0 8 10 20 23 25 12 6 27 24 32 41 6 17 16 38 23 46 15 19
16 46 5 132 -6 40 -16 74 -25 80 -8 6 -18 23 -22 39 l-6 27 216 0 217 0 -6
-197z m-725 -10 c7 2 26 -7 42 -20 20 -17 38 -23 55 -20 16 3 34 -2 50 -15 19
-15 34 -18 63 -13 43 8 43 6 32 -78 -6 -40 -11 -47 -37 -57 -22 -7 -33 -7 -38
1 -12 21 -39 -53 -39 -109 0 -66 -18 -132 -36 -132 -11 0 -77 40 -93 55 -2 3
2 13 10 22 13 16 12 17 -3 4 -10 -7 -18 -19 -18 -26 0 -18 95 -76 115 -69 16
7 -87 -164 -109 -178 -19 -13 -70 -8 -111 11 -44 20 -166 156 -186 207 -6 17
-8 50 -4 79 5 41 4 48 -7 37 -8 -8 -13 -38 -13 -76 0 -61 2 -66 49 -127 27
-35 54 -70 59 -76 7 -9 -3 -18 -36 -32 -25 -11 -48 -25 -53 -32 -4 -7 3 -5 17
4 30 22 40 21 32 0 -6 -17 -5 -17 14 0 38 33 48 16 11 -18 -66 -61 -142 -42
-215 53 -39 51 -73 155 -73 222 0 63 7 80 34 80 13 0 43 14 69 31 39 25 49 28
65 18 20 -13 52 -7 52 10 0 5 -9 7 -20 4 -16 -4 -23 2 -35 31 -27 63 -29 117
-6 154 37 58 78 38 89 -45 6 -40 11 -49 30 -51 29 -4 52 14 52 40 0 11 8 22
19 25 11 3 25 18 31 34 7 16 18 29 25 29 7 0 23 11 36 24 21 22 25 23 46 9 12
-8 28 -13 35 -10z m213 -233 c-3 -5 -13 -10 -21 -10 -8 0 -12 5 -9 10 3 6 13
10 21 10 8 0 12 -4 9 -10z m-33 -35 c13 5 14 0 7 -39 -9 -47 -32 -100 -48
-110 -5 -4 -5 9 0 32 5 20 9 60 9 87 0 30 4 45 8 37 5 -7 16 -10 24 -7z m-682
-13 c-29 -9 -40 -36 -40 -103 0 -203 142 -373 275 -329 32 11 77 53 88 82 3
10 8 9 23 -3 24 -20 79 -39 115 -39 15 0 41 11 57 25 l30 25 12 -35 c12 -37
15 -142 5 -192 -4 -22 -3 -24 4 -8 10 24 9 27 37 -124 l17 -94 -24 -20 c-13
-11 -49 -32 -79 -46 -45 -21 -70 -26 -137 -26 -45 0 -84 3 -88 7 -4 4 10 34
31 68 28 46 47 65 79 79 23 10 46 24 50 31 4 6 -11 2 -34 -9 -23 -12 -41 -19
-41 -16 0 3 20 30 45 60 56 69 79 113 32 60 l-36 -40 19 59 c30 90 25 86 -31
-21 -102 -193 -174 -284 -291 -364 -32 -22 -58 -42 -58 -45 0 -3 12 3 28 14
15 10 33 22 40 27 24 13 -2 -24 -68 -100 -34 -38 -71 -83 -83 -100 l-20 -30
35 33 36 34 -5 -49 c-11 -104 -44 -136 -153 -148 l-55 -6 48 26 c26 14 47 27
47 29 0 2 -37 -9 -82 -25 -99 -34 -157 -36 -249 -9 -105 32 -200 103 -287 215
l-24 30 23 -40 c12 -22 31 -50 42 -62 29 -32 16 -38 -31 -14 -66 34 -158 126
-178 178 l-18 46 40 74 39 74 5 -53 c5 -51 6 -49 23 61 10 62 22 124 27 136 6
15 36 37 81 60 67 34 76 36 110 26 45 -14 109 -14 109 -1 0 6 -17 10 -37 10
-58 0 -75 17 -27 26 38 7 38 8 12 15 -40 11 -99 -6 -199 -57 -88 -45 -91 -46
-111 -28 -32 29 -95 143 -112 203 -17 57 -21 158 -8 177 4 7 52 33 106 58 94
43 98 45 75 19 -21 -24 -21 -25 -3 -13 245 166 228 160 484 171 113 5 221 13
240 17 34 8 69 3 40 -6z m-941 -496 c12 -26 30 -61 41 -77 l21 -28 -38 -10
c-21 -6 -48 -11 -60 -11 -32 0 -82 -22 -62 -27 15 -4 15 -11 -2 -81 -10 -42
-36 -117 -59 -166 -54 -117 -79 -196 -86 -281 l-7 -70 47 -55 c54 -64 58 -80
15 -80 -25 0 -32 -6 -46 -37 -17 -43 -14 -140 6 -153 10 -5 7 -12 -10 -23 -28
-20 -34 -17 -65 45 -14 27 -28 48 -30 45 -3 -3 -1 -14 4 -24 5 -10 12 -30 16
-45 5 -23 3 -28 -13 -28 -13 0 -27 17 -47 57 -15 32 -29 52 -31 46 -2 -6 3
-25 11 -42 20 -38 20 -51 1 -51 -9 0 -27 24 -41 55 -29 61 -52 76 -28 19 19
-45 12 -55 -13 -18 -27 42 -22 123 15 219 37 98 41 124 52 350 5 99 14 205 20
235 16 87 79 277 96 291 9 7 68 43 132 81 l117 68 11 -78 c6 -42 21 -99 33
-126z m114 -161 c15 -13 27 -31 27 -39 0 -34 -35 -113 -76 -175 -45 -67 -52
-98 -34 -146 8 -20 5 -35 -11 -66 -11 -23 -18 -43 -15 -46 3 -3 -10 -27 -28
-52 -18 -25 -41 -61 -50 -79 -16 -31 -20 -33 -64 -30 -39 3 -50 8 -68 35 -18
27 -20 39 -13 83 13 81 35 148 82 250 25 52 52 129 62 170 9 41 18 79 19 85 2
8 85 29 131 33 6 1 22 -10 38 -23z m1427 -235 c0 -29 39 -80 62 -80 5 0 66
-55 136 -123 141 -136 193 -172 267 -182 28 -4 61 -12 74 -17 38 -14 85 -69
102 -121 16 -48 16 -48 -5 -45 -11 2 -30 17 -41 34 -25 39 -68 65 -86 53 -22
-14 -93 -10 -115 6 -22 17 -38 20 -29 5 13 -21 -94 -11 -133 13 -20 13 -62 34
-92 46 -156 66 -221 103 -283 161 -55 51 -68 71 -95 140 l-30 80 47 0 c53 0
133 20 176 43 41 22 45 21 45 -13z m-308 -22 c9 -7 29 -50 44 -96 24 -71 37
-91 84 -138 65 -64 77 -72 155 -113 l60 -31 -301 0 -301 0 14 78 c8 42 22 89
31 103 56 88 164 209 187 209 6 0 18 -6 27 -12z m-995 -307 c34 -17 67 -31 73
-31 6 0 41 -18 77 -40 111 -67 147 -75 318 -73 138 1 147 0 117 -13 -54 -23
-169 -34 -267 -24 -185 18 -342 89 -473 215 -51 50 -52 52 -41 84 l12 33 61
-61 c35 -34 88 -73 123 -90z m-183 -23 c-27 -31 -57 -79 -51 -84 2 -2 18 19
36 46 18 28 36 50 41 50 4 0 17 -8 29 -17 l21 -18 -30 -60 c-31 -63 -66 -195
-57 -217 3 -7 6 -4 6 7 3 61 73 255 92 255 5 0 37 -18 72 -39 87 -53 184 -86
310 -107 90 -14 119 -15 187 -6 45 7 101 21 126 31 43 19 44 19 54 1 5 -10 10
-27 10 -38 0 -11 9 -30 20 -44 10 -14 25 -43 33 -64 7 -21 41 -78 75 -125 34
-47 88 -130 121 -185 l60 -99 -42 -9 c-79 -15 -172 -49 -286 -103 -151 -71
-235 -100 -338 -118 -116 -20 -198 -19 -326 5 -198 38 -484 151 -473 188 3 9
14 49 25 87 11 39 41 158 66 265 58 248 86 324 158 429 l29 43 26 -26 26 -25
-20 -23z m2694 -65 c3 -42 3 -43 -30 -44 -29 -2 -30 -2 -6 -6 43 -7 49 -23 46
-124 l-3 -94 -32 -3 -31 -3 -6 108 c-3 59 -8 132 -12 161 l-6 53 38 -3 c38 -3
39 -4 42 -45z m-3248 -12 c0 -5 -3 -23 -6 -40 l-6 -31 -88 0 c-79 0 -88 2 -93
20 -7 29 -54 27 -68 -3 -8 -17 -20 -24 -47 -25 -45 -3 -55 -12 -50 -43 2 -20
10 -25 43 -27 25 -2 44 -11 53 -23 19 -27 68 -26 75 2 9 33 27 12 27 -32 l0
-39 -188 0 c-104 0 -250 3 -325 7 l-137 6 0 119 0 118 405 0 c225 0 405 -4
405 -9z m390 -8 c0 -10 -4 -25 -10 -33 -7 -11 -11 -9 -19 13 -14 37 -14 37 9
37 12 0 20 -7 20 -17z m1805 -12 l60 -28 -419 -7 c-342 -6 -421 -5 -427 6 -13
19 -12 22 19 40 24 16 64 17 367 17 l340 0 60 -28z m523 0 c6 -39 -12 -41 -35
-4 l-23 34 28 -3 c20 -2 28 -9 30 -27z m-2933 -91 c0 -41 -4 -60 -12 -60 -17
0 -27 43 -19 85 11 59 32 43 31 -25z m2820 -1 c28 -53 79 -74 109 -43 14 14
14 18 1 45 l-16 29 236 0 236 0 -3 -71 -3 -70 -250 1 c-238 1 -250 2 -272 22
-16 15 -29 19 -49 14 -16 -4 -30 -3 -34 4 -4 6 -15 11 -26 10 -61 -2 -83 -6
-97 -18 -9 -8 -21 -11 -26 -8 -5 4 -19 -3 -30 -15 l-20 -22 -437 6 c-444 5
-453 6 -454 41 0 6 -9 19 -19 30 -11 12 -23 34 -26 49 l-7 28 586 -2 587 -1
14 -29z m705 -45 c0 -35 -4 -64 -9 -64 -9 0 -20 128 -12 136 13 12 21 -15 21
-72z m-3580 46 c0 -16 -7 -20 -35 -20 -22 0 -35 5 -35 13 0 20 10 27 42 27 21
0 28 -5 28 -20z m250 16 c0 -31 -15 -36 -101 -36 -49 0 -89 2 -89 4 0 31 15
36 101 36 49 0 89 -2 89 -4z m375 -13 c-3 -10 -11 -39 -16 -65 -9 -41 -14 -48
-34 -48 -23 0 -40 33 -31 62 2 7 7 25 10 41 6 23 11 27 42 27 30 0 35 -3 29
-17z m-423 -138 c-4 -100 -6 -105 -31 -105 -33 0 -41 22 -41 113 l0 88 38 -3
37 -3 -3 -90z m56 48 c11 -33 0 -55 -18 -37 -7 8 -14 53 -11 79 2 15 17 -7 29
-42z m2580 -39 c23 -46 22 -64 -3 -64 -19 0 -43 37 -51 78 -6 27 -4 32 13 32
13 0 26 -15 41 -46z m-78 11 c23 -60 23 -75 2 -75 -26 0 -30 6 -38 58 -5 35
-4 42 10 42 9 0 21 -11 26 -25z m154 -9 c22 -30 24 -36 11 -46 -13 -10 -19 -9
-35 5 -23 20 -34 50 -25 65 10 17 22 11 49 -24z m-214 -12 c14 -35 13 -44 -5
-44 -17 0 -35 38 -28 58 8 20 23 14 33 -14z m-3210 -833 c0 -724 -2 -830 -15
-841 -13 -11 -15 82 -15 829 0 741 2 841 15 841 13 0 15 -99 15 -829z m182
182 c1 -437 4 -609 9 -528 5 66 8 356 7 645 l-2 525 210 0 209 0 3 -45 c4 -56
16 -70 57 -70 41 0 56 18 63 75 4 39 8 45 28 45 14 0 47 -12 75 -27 38 -19 71
-27 127 -31 l76 -5 29 34 c20 24 27 28 24 14 -3 -11 -24 -92 -46 -181 -22 -88
-45 -172 -51 -188 -19 -51 -13 -69 33 -97 l44 -27 -13 -108 c-19 -157 -22
-168 -49 -194 -13 -12 -27 -37 -31 -54 -4 -19 -34 -60 -78 -106 -82 -86 -114
-147 -175 -330 -22 -69 -49 -137 -59 -151 -54 -81 -62 -97 -62 -123 0 -17 -10
-40 -22 -53 -21 -23 -22 -23 -295 -23 l-273 0 0 825 0 825 80 0 80 0 2 -647z
m2967 624 c5 -13 16 -28 24 -35 18 -15 194 -25 202 -12 3 6 19 10 36 10 l29 0
0 -785 c0 -432 1 -788 3 -792 1 -5 -197 -9 -439 -11 l-442 -2 -6 22 c-11 42
-6 86 25 219 47 204 109 527 109 568 0 59 -25 128 -96 267 -36 71 -67 143 -69
159 -3 35 -105 211 -188 327 -31 42 -53 79 -50 82 4 3 197 6 430 6 l423 0 9
-23z m344 -1656 c-2 -2 -9 2 -18 9 -14 11 -15 103 -13 829 2 523 7 821 13 831
7 10 12 -260 15 -825 3 -462 4 -842 3 -844z m187 921 c0 -418 3 -854 7 -970
l6 -212 -91 0 -92 0 0 970 0 970 85 0 85 0 0 -758z m208 -215 l2 -968 -92 3
c-51 2 -92 6 -90 11 1 4 2 439 2 967 l0 961 88 -3 87 -3 3 -968z m42 909 c0
-60 12 -76 56 -76 56 0 64 8 64 60 0 55 8 82 21 74 5 -3 9 -417 9 -980 l0
-974 -85 0 -85 0 0 981 c0 651 3 978 10 974 6 -3 10 -30 10 -59z m100 -1 l0
-45 -40 0 -40 0 0 45 0 45 40 0 40 0 0 -45z m-1491 -467 c33 -62 74 -149 91
-192 41 -102 39 -157 -12 -273 -38 -88 -42 -110 -8 -43 11 22 22 40 23 40 5 0
-57 -301 -83 -405 -14 -57 -23 -125 -24 -185 -1 -74 -5 -101 -20 -122 -14 -22
-17 -38 -11 -75 6 -48 6 -49 -27 -60 -18 -7 -63 -17 -100 -24 -111 -20 -191
15 -172 74 4 12 6 52 5 89 -1 41 4 86 14 114 13 38 15 87 13 258 -3 210 -3
211 25 283 21 55 26 82 21 109 -5 25 -3 39 7 44 15 10 -38 76 -174 216 l-88
91 30 13 c28 11 35 9 88 -23 68 -41 243 -129 243 -123 0 3 -53 32 -117 66 -65
33 -129 69 -143 80 l-25 19 105 49 c111 51 185 78 235 85 17 2 33 5 37 6 4 0
34 -50 67 -111z m-1220 -65 c58 -19 126 -37 153 -40 27 -3 50 -9 53 -12 2 -4
-10 -38 -26 -76 -17 -39 -46 -109 -65 -157 -39 -96 -97 -163 -195 -225 -72
-45 -75 -53 -6 -15 31 18 57 29 57 25 0 -16 -100 -165 -174 -257 -119 -150
-154 -204 -171 -270 -9 -39 -26 -71 -45 -91 -16 -17 -32 -45 -36 -63 -10 -49
-23 -55 -96 -41 -78 15 -108 30 -142 69 -31 38 -33 68 -6 112 11 18 20 44 20
57 0 14 18 53 40 87 27 40 58 113 89 207 57 172 79 212 170 310 37 40 71 87
75 103 4 16 19 41 33 56 22 23 27 42 40 150 8 67 16 129 18 135 3 10 18 8 57
-8 29 -12 100 -37 157 -56z m709 -46 l32 -33 0 -629 1 -630 -113 0 -113 0 0
644 0 644 65 17 c91 24 92 24 128 -13z m-220 -652 l-3 -640 -122 -3 -123 -3 0
643 0 643 125 0 125 0 -2 -640z m300 94 c-2 -302 0 -475 6 -469 15 15 46 12
46 -5 0 -9 -9 -15 -24 -15 -60 0 -56 -33 -56 502 0 439 2 489 15 478 14 -11
15 -72 13 -491z m-568 0 c0 -427 -2 -480 -15 -469 -13 11 -15 73 -15 450 0
399 5 500 26 500 2 0 4 -217 4 -481z m701 284 c6 -48 3 -70 -19 -133 -27 -80
-31 -141 -22 -385 3 -92 1 -118 -16 -160 -11 -29 -27 -51 -37 -53 -16 -3 -17
26 -17 445 l0 448 52 -52 c47 -47 52 -57 59 -110z m-743 -320 l-3 -408 -260 0
-260 0 3 25 c4 32 91 163 176 265 37 44 95 124 128 178 34 54 79 120 102 147
23 27 54 82 71 124 17 42 33 76 38 76 4 0 6 -183 5 -407z m-930 -435 c-4 -10
-73 -14 -291 -16 -253 -2 -286 -1 -281 13 5 13 46 15 291 15 223 0 284 -3 281
-12z m950 -5 c3 -10 -57 -13 -277 -13 -155 0 -281 4 -281 8 0 5 3 12 7 15 4 4
128 6 276 5 206 -2 271 -6 275 -15z m1942 2 c11 -13 -39 -15 -444 -15 -399 0
-456 2 -456 15 0 13 56 15 444 15 382 0 445 -2 456 -15z m-2885 -56 c4 -12 2
-38 -4 -58 -6 -20 -17 -61 -24 -91 l-13 -55 -282 -3 -282 -2 0 115 0 115 299
0 c298 0 300 0 306 -21z m971 -91 l-3 -113 -351 -3 -352 -2 0 38 c0 28 7 45
24 61 13 12 27 36 30 54 3 17 16 41 28 54 l21 23 303 0 303 0 -3 -112z m630
88 c3 -13 1 -33 -5 -44 -14 -27 -14 -58 0 -80 8 -13 9 -28 2 -48 -8 -25 -15
-29 -51 -32 l-42 -3 0 115 0 116 45 0 c39 0 45 -3 51 -24z m1324 -92 l0 -117
-445 6 -446 6 -36 29 c-33 26 -37 35 -44 93 -13 108 -59 99 491 99 l480 0 0
-116z m-2818 -2 c15 -6 49 -14 76 -18 l50 -6 4 -92 c3 -72 10 -103 31 -150 30
-66 29 -88 -9 -104 -41 -19 -203 -15 -244 6 -60 30 -66 57 -40 186 12 61 29
137 37 168 l16 58 26 -18 c14 -10 38 -23 53 -30z m1876 -102 c41 -37 102 -78
157 -106 139 -70 158 -102 73 -125 -68 -18 -180 -5 -304 37 -72 24 -136 38
-187 42 -103 7 -111 15 -104 104 3 37 8 72 11 77 4 5 24 5 48 -1 47 -10 126
-4 191 17 23 7 44 13 45 14 2 1 34 -26 70 -59z"/>
<path d="M6271 4623 c7 -12 15 -20 18 -17 3 2 -3 12 -13 22 -17 16 -18 16 -5
-5z"/>
<path d="M5683 4468 c-17 -22 -25 -44 -9 -24 19 24 46 14 46 -18 0 -15 -7 -25
-20 -29 -24 -6 -26 -39 -3 -58 15 -13 15 -12 3 10 -11 22 -11 27 9 39 23 16
27 42 11 73 -12 22 -24 24 -37 7z"/>
<path d="M5930 4390 c-11 -7 -7 -10 17 -10 21 0 44 -10 65 -29 42 -36 76 -54
88 -46 14 8 13 25 -1 25 -7 0 -31 16 -55 35 -43 35 -84 44 -114 25z"/>
<path d="M6131 4343 c0 -6 -4 -20 -7 -30 -5 -14 -4 -15 5 -7 7 7 11 20 8 30
-3 11 -5 14 -6 7z"/>
<path d="M5965 4321 c21 -5 29 -12 27 -24 -3 -18 23 -24 33 -7 3 5 12 7 20 3
27 -10 16 6 -15 22 -16 8 -44 14 -62 14 l-33 -1 30 -7z"/>
<path d="M5801 4270 c0 -14 28 -72 29 -59 0 4 -7 22 -15 40 -8 19 -14 27 -14
19z"/>
<path d="M5899 4103 l-24 -28 28 24 c25 23 32 31 24 31 -2 0 -14 -12 -28 -27z"/>
<path d="M5652 4040 c0 -14 2 -19 5 -12 2 6 2 18 0 25 -3 6 -5 1 -5 -13z"/>
<path d="M5970 4041 c45 -18 110 -34 110 -27 0 5 -134 46 -147 45 -4 0 12 -8
37 -18z"/>
<path d="M5642 3985 c0 -16 2 -22 5 -12 2 9 2 23 0 30 -3 6 -5 -1 -5 -18z"/>
<path d="M5980 3980 c8 -5 28 -10 44 -10 39 0 30 6 -19 13 -27 4 -35 3 -25 -3z"/>
<path d="M5631 3924 c0 -11 3 -14 6 -6 3 7 2 16 -1 19 -3 4 -6 -2 -5 -13z"/>
<path d="M5109 4161 c57 -80 70 -184 34 -285 -7 -22 -11 -41 -9 -43 5 -5 31
77 41 125 12 59 -37 203 -77 228 -7 4 -1 -7 11 -25z"/>
<path d="M5421 4044 c0 -11 3 -14 6 -6 3 7 2 16 -1 19 -3 4 -6 -2 -5 -13z"/>
<path d="M5430 4008 c0 -22 38 -120 52 -133 8 -7 9 -6 3 4 -4 8 -18 44 -31 80
-13 36 -24 58 -24 49z"/>
<path d="M5830 3792 c0 -19 -83 -61 -141 -71 l-54 -10 52 4 c72 6 171 60 149
82 -3 3 -6 1 -6 -5z"/>
<path d="M4991 3521 c12 -22 40 -57 62 -78 l41 -38 -43 50 c-24 28 -49 62 -57
78 -8 15 -17 27 -20 27 -3 0 5 -18 17 -39z"/>
<path d="M4860 3357 c0 -5 10 -32 22 -60 32 -76 99 -176 154 -229 46 -44 130
-96 139 -86 3 2 -14 13 -38 23 -73 31 -170 143 -227 258 -28 56 -50 98 -50 94z"/>
<path d="M5463 3333 c15 -2 37 -2 50 0 12 2 0 4 -28 4 -27 0 -38 -2 -22 -4z"/>
<path d="M5305 3315 c-80 -17 -40 -17 55 -1 44 8 60 14 40 14 -19 0 -62 -6
-95 -13z"/>
<path d="M5208 3293 c6 -2 18 -2 25 0 6 3 1 5 -13 5 -14 0 -19 -2 -12 -5z"/>
<path d="M5203 2973 c9 -2 23 -2 30 0 6 3 -1 5 -18 5 -16 0 -22 -2 -12 -5z"/>
<path d="M4315 3736 c-23 -34 -35 -85 -34 -136 1 -41 2 -40 10 18 4 35 17 82
28 103 23 43 20 52 -4 15z"/>
<path d="M4281 3474 c0 -11 3 -14 6 -6 3 7 2 16 -1 19 -3 4 -6 -2 -5 -13z"/>
<path d="M6076 3243 c-6 -14 -5 -15 5 -6 7 7 10 15 7 18 -3 3 -9 -2 -12 -12z"/>
<path d="M6000 3230 c8 -5 22 -9 30 -9 10 0 8 3 -5 9 -27 12 -43 12 -25 0z"/>
<path d="M6370 2946 c0 -3 9 -10 20 -16 11 -6 20 -8 20 -6 0 3 -9 10 -20 16
-11 6 -20 8 -20 6z"/>
<path d="M4640 3121 c0 -17 108 -106 169 -139 82 -45 77 -34 -6 16 -38 22 -89
61 -115 86 -27 25 -48 42 -48 37z"/>
<path d="M4809 2807 c49 -55 213 -138 269 -137 9 1 -15 11 -55 24 -80 26 -145
61 -201 109 -32 27 -34 28 -13 4z"/>
<path d="M5346 2765 c-38 -25 -66 -45 -61 -45 11 0 123 69 130 81 9 14 5 12
-69 -36z"/>
<path d="M5350 2669 c-113 -89 -242 -151 -371 -179 l-44 -9 51 4 c132 13 315
107 418 214 42 43 32 38 -54 -30z"/>
<path d="M5108 2663 c6 -2 18 -2 25 0 6 3 1 5 -13 5 -14 0 -19 -2 -12 -5z"/>
<path d="M5449 2643 c-13 -16 -12 -17 4 -4 9 7 17 15 17 17 0 8 -8 3 -21 -13z"/>
<path d="M5309 2464 c-62 -65 -193 -157 -294 -206 -55 -27 -89 -46 -75 -42 49
13 186 87 250 134 59 44 172 150 159 150 -3 0 -21 -16 -40 -36z"/>
<path d="M7272 2943 c2 -10 10 -18 18 -18 22 0 18 29 -3 33 -14 3 -18 -1 -15
-15z m28 -3 c0 -5 -4 -10 -10 -10 -5 0 -10 5 -10 10 0 6 5 10 10 10 6 0 10 -4
10 -10z"/>
<path d="M3970 2657 c0 -36 4 -56 10 -52 13 8 13 75 0 95 -7 11 -10 -2 -10
-43z"/>
<path d="M7277 2614 c-14 -14 -7 -35 11 -32 9 2 17 10 17 17 0 16 -18 25 -28
15z m18 -14 c3 -5 1 -10 -4 -10 -6 0 -11 5 -11 10 0 6 2 10 4 10 3 0 8 -4 11
-10z"/>
<path d="M5710 1780 c8 -5 22 -10 30 -10 13 0 13 1 0 10 -8 5 -22 10 -30 10
-13 0 -13 -1 0 -10z"/>
<path d="M5663 1763 c9 -2 25 -2 35 0 9 3 1 5 -18 5 -19 0 -27 -2 -17 -5z"/>
<path d="M5630 1717 c8 -9 31 -19 50 -22 l35 -5 -35 11 c-19 6 -42 16 -50 22
-13 9 -13 9 0 -6z"/>
<path d="M5710 1351 c-7 -17 -38 -69 -70 -116 -32 -47 -57 -85 -54 -85 18 0
152 215 141 226 -2 3 -10 -9 -17 -25z"/>
<path d="M5580 1016 c0 -2 7 -7 16 -10 8 -3 12 -2 9 4 -6 10 -25 14 -25 6z"/>
<path d="M5630 990 c8 -5 24 -10 34 -10 26 0 18 6 -19 14 -22 5 -26 4 -15 -4z"/>
<path d="M5690 929 c-14 -6 -50 -14 -80 -19 l-55 -9 55 3 c30 2 71 10 90 19
38 17 30 22 -10 6z"/>
<path d="M5554 866 c26 -21 132 -21 166 0 15 9 17 12 5 8 -35 -14 -142 -16
-167 -4 -22 11 -22 10 -4 -4z"/>
<path d="M4382 1835 c0 -16 5 -48 13 -70 17 -52 17 -35 0 40 -8 37 -13 49 -13
30z"/>
<path d="M4327 1725 c7 -49 13 -58 13 -19 0 16 -5 36 -10 44 -6 10 -7 2 -3
-25z"/>
<path d="M4265 1323 c-33 -25 -91 -63 -130 -85 -38 -22 -61 -37 -50 -34 33 11
168 95 210 131 56 48 41 42 -30 -12z"/>
<path d="M4019 1094 c22 -45 53 -70 97 -78 25 -5 25 -4 -4 6 -30 10 -68 46
-100 94 -7 10 -3 1 7 -22z"/>
<path d="M4010 1005 c0 -12 70 -35 102 -34 28 1 26 3 -13 9 -26 4 -56 13 -68
19 -11 7 -21 9 -21 6z"/>
<path d="M3950 994 c0 -11 29 -45 53 -63 20 -16 99 -32 91 -20 -3 5 -14 9 -25
9 -29 0 -74 26 -98 56 -12 15 -21 23 -21 18z"/>
<path d="M4025 610 c28 -4 59 -11 70 -14 11 -4 7 0 -10 8 -16 8 -48 15 -70 14
-39 0 -39 -1 10 -8z"/>
<path d="M3930 600 c-18 -12 -2 -12 25 0 13 6 15 9 5 9 -8 0 -22 -4 -30 -9z"/>
</g>
</svg>
