<?xml version="1.0" standalone="no"?>
<!DOCTYPE svg PUBLIC "-//W3C//DTD SVG 20010904//EN"
 "http://www.w3.org/TR/2001/REC-SVG-20010904/DTD/svg10.dtd">
<svg version="1.0" xmlns="http://www.w3.org/2000/svg"
 width="1024.000000pt" height="559.000000pt" viewBox="0 0 1024.000000 559.000000"
 preserveAspectRatio="xMidYMid meet">
<metadata>
Created by potrace 1.16, written by Peter Selinger 2001-2019
</metadata>
<g transform="translate(0.000000,559.000000) scale(0.100000,-0.100000)"
fill="#000000" stroke="none">
<path d="M6708 5030 c-74 -13 -153 -54 -204 -106 l-46 -48 -101 0 c-118 -1
-164 -18 -236 -87 -64 -61 -96 -137 -96 -226 l0 -71 -49 -34 c-227 -153 -176
-541 81 -611 40 -10 43 -14 53 -60 16 -74 37 -113 87 -157 58 -50 135 -74 221
-67 l63 5 52 -53 c71 -70 142 -98 257 -99 76 0 93 3 158 34 68 31 114 70 152
128 13 21 19 22 43 13 47 -18 186 -13 233 8 103 47 171 145 181 261 5 60 9 69
30 79 78 36 134 108 160 208 37 141 -35 295 -167 363 -37 19 -40 23 -40 63 0
104 -56 200 -147 254 -55 32 -176 44 -238 23 -34 -11 -39 -11 -48 6 -5 11 -36
44 -67 75 -86 83 -210 120 -332 99z m214 -58 c59 -26 122 -83 155 -139 19 -33
30 -42 42 -37 90 38 131 42 210 18 110 -32 192 -157 176 -267 l-7 -43 54 -22
c175 -72 224 -309 94 -450 -22 -25 -60 -53 -82 -63 l-41 -17 0 -64 c0 -150
-103 -264 -248 -276 -44 -3 -79 0 -114 12 -27 9 -53 16 -58 16 -4 0 -21 -20
-36 -44 -96 -152 -319 -192 -474 -84 -24 16 -54 45 -66 64 -23 37 -31 38 -110
18 -42 -10 -148 22 -192 59 -45 36 -85 117 -85 170 0 21 -5 39 -12 41 -7 2
-35 10 -63 17 -69 18 -155 102 -180 178 -26 78 -22 178 8 245 28 60 89 125
142 150 l35 17 -6 63 c-9 90 15 161 74 221 55 56 80 70 159 85 47 10 73 10
107 1 66 -16 71 -15 100 28 34 48 90 88 159 113 68 24 192 20 259 -10z"/>
<path d="M6691 4818 c-6 -16 -18 -28 -28 -28 -16 0 -16 -2 3 -18 12 -9 24 -26
28 -37 l7 -20 11 20 c6 11 20 28 32 37 18 15 19 18 4 18 -10 0 -24 12 -32 28
l-14 27 -11 -27z m29 -38 c0 -5 -7 -10 -15 -10 -8 0 -15 5 -15 10 0 6 7 10 15
10 8 0 15 -4 15 -10z"/>
<path d="M6930 4728 c0 -10 -12 -25 -26 -35 l-26 -17 22 -8 c12 -4 24 -17 27
-28 5 -18 7 -17 34 11 33 36 34 39 14 39 -8 0 -21 12 -29 28 -11 19 -15 22
-16 10z m20 -46 c0 -13 -12 -22 -22 -16 -10 6 -1 24 13 24 5 0 9 -4 9 -8z"/>
<path d="M6517 4673 c-4 -3 -7 -15 -7 -26 0 -12 -11 -23 -30 -30 l-29 -11 29
-13 c19 -7 30 -19 30 -32 0 -30 17 -34 24 -6 3 13 18 31 33 38 l27 14 -23 8
c-13 4 -28 20 -35 36 -7 16 -15 26 -19 22z m17 -52 c4 -5 3 -16 0 -25 -5 -12
-10 -14 -20 -6 -7 7 -10 18 -7 26 6 16 19 18 27 5z"/>
<path d="M7114 4642 c-7 -29 -17 -41 -49 -56 l-39 -20 25 -10 c40 -17 57 -35
64 -67 9 -39 21 -37 29 7 6 29 14 39 49 54 41 19 41 19 14 25 -31 8 -67 49
-67 76 0 34 -17 28 -26 -9z m44 -52 c23 -29 23 -29 2 -40 -11 -6 -20 -17 -20
-25 0 -21 -8 -19 -34 12 l-24 27 22 28 c11 15 23 27 26 27 3 0 15 -13 28 -29z"/>
<path d="M6715 4497 c-62 -25 -102 -58 -127 -104 -52 -95 -45 -175 24 -280 45
-71 57 -108 63 -208 4 -66 7 -71 45 -107 55 -52 93 -52 149 0 38 36 41 42 41
93 0 83 23 163 64 222 75 109 72 240 -7 325 -53 58 -182 88 -252 59z m146 -28
c43 -15 95 -63 120 -111 35 -68 22 -144 -38 -231 -18 -27 -38 -68 -43 -90 -17
-66 -18 -67 -46 -67 l-27 0 7 78 c4 54 14 93 33 130 18 36 23 56 16 63 -7 7
-17 3 -31 -15 -29 -37 -93 -37 -117 0 -12 19 -20 23 -28 15 -8 -8 -4 -23 12
-57 17 -32 25 -70 29 -130 l5 -84 -26 0 c-22 0 -26 6 -32 39 -4 22 -23 66 -42
98 -59 97 -63 106 -63 166 0 147 131 242 271 196z m-37 -308 c-3 -9 -8 -55
-11 -103 -7 -112 -27 -120 -36 -15 -4 39 -9 86 -12 102 -6 29 -5 30 30 31 29
0 35 -3 29 -15z m56 -236 c0 -12 -16 -15 -84 -15 -47 0 -87 4 -91 9 -7 12 28
17 113 20 49 1 62 -2 62 -14z m0 -60 c0 -12 -16 -15 -85 -15 -69 0 -85 3 -85
15 0 12 16 15 85 15 69 0 85 -3 85 -15z m-60 -65 c-20 -13 -47 -13 -55 0 -4 6
9 10 32 10 28 0 34 -3 23 -10z"/>
<path d="M5758 4585 c-33 -18 -52 -72 -39 -108 26 -68 124 -79 156 -16 23 43
18 77 -14 110 -32 32 -62 36 -103 14z m77 -40 c30 -29 31 -49 5 -75 -24 -24
-47 -25 -72 -3 -24 21 -23 58 2 83 26 26 36 25 65 -5z"/>
<path d="M5040 4506 c-62 -17 -84 -30 -117 -69 -15 -18 -44 -45 -64 -60 -20
-15 -49 -51 -65 -79 -27 -50 -29 -59 -28 -168 0 -110 2 -119 38 -205 21 -49
44 -105 53 -123 14 -28 14 -35 0 -55 -25 -37 -69 -77 -86 -77 -63 0 -295 -101
-359 -156 -84 -71 -184 -271 -243 -484 -26 -96 -41 -131 -93 -210 l-61 -95 2
-75 c1 -48 -4 -90 -14 -117 -18 -50 -13 -101 15 -141 23 -32 22 -76 -3 -202
-12 -61 -16 -116 -13 -192 4 -98 8 -113 39 -178 l35 -70 -35 -10 c-20 -5 -67
-16 -106 -25 -166 -36 -172 -38 -185 -83 -6 -22 -10 -198 -10 -438 0 -333 2
-404 14 -413 25 -21 27 30 24 443 -3 351 -1 397 13 411 9 9 83 31 166 50 l151
35 44 -25 c24 -13 77 -29 118 -36 79 -12 377 -17 545 -9 87 4 100 3 103 -12 2
-12 -11 -20 -55 -32 -32 -9 -67 -21 -79 -25 -11 -5 -41 -5 -65 -1 -24 5 -123
13 -219 20 -96 6 -273 18 -393 26 -267 17 -257 17 -257 -1 0 -8 3 -15 8 -15
25 -1 332 -22 522 -35 362 -26 401 -26 489 1 42 13 76 24 76 24 0 0 -1 -117
-3 -260 l-3 -260 28 -11 c15 -6 66 -18 113 -26 47 -8 87 -17 90 -19 2 -3 6
-34 8 -69 3 -46 -1 -77 -13 -107 -9 -24 -19 -75 -22 -114 -5 -66 -4 -72 17
-87 13 -9 49 -21 79 -28 31 -6 106 -22 167 -35 232 -50 441 -15 420 69 -8 32
-43 57 -123 90 -73 30 -157 84 -218 141 -40 37 -45 46 -47 95 l-3 53 40 13
c22 7 74 29 115 49 109 53 114 51 107 -33 -3 -39 -11 -80 -17 -92 -7 -12 -14
-56 -17 -98 -8 -109 -7 -110 204 -127 293 -25 356 -27 418 -15 68 13 78 19 78
57 0 38 -25 55 -133 93 -95 33 -167 72 -237 128 -42 33 -43 36 -43 93 0 58 1
59 35 76 33 15 39 26 47 78 2 12 20 25 54 38 27 11 63 29 79 42 l28 23 -27
149 c-15 82 -33 183 -41 224 -7 41 -21 116 -30 165 -31 172 -57 290 -73 330
-28 73 -73 123 -137 155 -48 23 -63 36 -73 63 -7 19 -21 42 -31 51 -16 15 -17
23 -9 59 14 57 3 231 -21 352 -11 55 -29 165 -41 245 -24 159 -83 402 -105
436 -8 13 -42 32 -80 45 -48 18 -65 28 -61 39 2 8 14 42 26 75 12 33 26 101
30 152 4 50 11 96 14 101 3 5 6 26 7 48 1 21 10 53 21 70 40 69 5 196 -77 279
-95 95 -310 148 -445 111z m219 -32 c130 -32 214 -92 265 -189 27 -51 35 -128
16 -140 -5 -3 -10 2 -10 11 0 15 -19 80 -26 92 -2 2 -22 -17 -47 -42 -54 -57
-67 -58 -60 -6 7 47 -4 50 -38 14 -29 -31 -75 -59 -109 -67 -24 -6 -25 -5 -22
38 5 58 -13 60 -54 6 -16 -22 -45 -49 -65 -60 -48 -28 -60 -43 -75 -99 l-12
-47 -17 42 c-28 69 -99 76 -133 13 -17 -33 -9 -112 17 -153 14 -24 17 -38 10
-56 -5 -13 -11 -22 -13 -20 -2 2 -23 51 -47 109 -42 101 -44 109 -44 210 0
130 9 147 116 251 112 108 196 130 348 93z m245 -315 c3 -17 6 -53 6 -80 0
-45 -2 -49 -24 -49 -32 0 -56 -10 -56 -22 0 -6 16 -8 35 -6 29 3 35 1 35 -15
0 -33 -20 -57 -46 -57 -14 0 -22 -4 -19 -10 3 -5 17 -10 31 -10 21 0 24 -5 24
-33 0 -40 -25 -128 -50 -177 -14 -27 -28 -38 -61 -48 -55 -17 -129 -70 -129
-94 0 -22 -2 -22 -49 1 -65 33 -139 99 -168 148 -24 41 -28 45 -31 26 -6 -41
103 -166 161 -186 7 -2 1 -15 -15 -32 -25 -27 -55 -111 -44 -123 3 -3 9 9 12
27 7 35 24 52 24 24 0 -10 -5 -35 -11 -55 -9 -36 -12 -38 -50 -38 -89 0 -215
106 -283 239 l-18 33 49 43 c34 30 59 64 79 108 24 54 34 66 58 71 31 7 26 21
-9 28 -29 5 -65 65 -65 107 0 38 23 81 42 81 19 0 48 -32 48 -52 0 -10 9 -27
21 -39 28 -28 45 -12 60 56 9 39 18 56 35 64 13 5 41 26 63 46 l40 36 -2 -28
c-2 -26 1 -28 31 -26 19 0 56 13 84 27 46 24 49 24 43 6 -4 -13 -1 -22 7 -25
19 -8 79 19 102 44 26 28 32 26 40 -10z m-2 -551 c31 -11 64 -28 73 -38 9 -9
29 -71 45 -136 34 -141 44 -195 111 -624 28 -175 17 -285 -34 -361 -54 -80
-125 -72 -223 26 -65 65 -169 227 -160 250 5 13 147 125 158 125 3 0 2 -19 -3
-42 -14 -71 -11 -194 4 -207 12 -9 15 8 21 97 3 59 13 143 22 187 8 44 16 137
17 207 2 126 2 127 25 121 30 -7 28 3 -9 44 -27 31 -30 41 -27 89 2 30 6 54
10 54 5 0 8 7 8 16 0 12 -7 14 -32 9 -41 -9 -45 -12 -30 -27 19 -19 14 -30
-10 -26 -20 3 -23 9 -23 43 0 39 1 40 50 53 58 16 59 17 51 31 -7 11 -101 -13
-123 -31 -7 -6 -13 -23 -13 -39 0 -16 -4 -29 -10 -29 -14 0 -12 73 3 94 7 9
37 23 66 29 61 13 89 45 30 33 -96 -19 -110 -26 -128 -67 -21 -47 -33 -42 -19
9 14 52 21 58 88 71 33 7 60 17 60 23 0 18 -118 1 -155 -22 -18 -11 -40 -20
-50 -20 -17 0 -17 1 1 21 28 31 106 69 129 63 11 -3 46 -15 77 -26z m-721 -55
c71 -130 188 -227 292 -241 20 -2 37 -10 37 -16 0 -12 -32 -100 -57 -156 -19
-43 -116 -200 -123 -200 -4 0 -38 88 -127 335 -14 39 -36 87 -50 107 -31 46
-100 95 -114 81 -7 -7 -1 -16 18 -28 59 -37 94 -99 147 -265 21 -63 50 -144
66 -181 l28 -66 -41 -13 c-75 -22 -207 -88 -287 -145 l-79 -55 -32 102 c-59
195 -87 272 -98 276 -13 4 -14 -27 -2 -60 4 -13 11 -36 15 -53 l7 -30 -34 33
c-56 54 -54 19 1 -40 42 -45 55 -68 81 -148 42 -127 39 -124 98 -117 26 4 59
10 72 13 43 13 18 -18 -45 -53 -82 -46 -203 -83 -271 -83 -54 0 -58 2 -100 45
-23 25 -45 56 -49 70 -13 53 67 374 136 548 75 188 137 270 247 327 41 21 201
87 215 89 3 1 25 -34 49 -76z m423 -59 c23 -59 -7 -245 -65 -407 -44 -126 -42
-117 -28 -117 5 0 23 29 40 65 47 104 80 231 86 335 l6 94 47 -52 c26 -29 56
-73 68 -99 51 -116 125 -322 129 -359 l5 -41 -122 -92 c-67 -51 -123 -91 -125
-89 -2 2 5 40 16 83 45 181 66 310 51 319 -16 10 -22 -6 -38 -99 -17 -96 -54
-245 -87 -348 -20 -63 -23 -67 -47 -63 -14 3 -44 8 -66 11 -37 6 -43 11 -59
48 -10 23 -33 75 -52 116 l-33 74 51 74 c61 89 141 255 163 338 8 33 18 92 21
130 4 39 8 76 11 83 5 17 21 15 28 -4z m109 -4 c5 -4 7 -19 5 -34 l-3 -26 -39
40 -39 40 34 -6 c19 -4 38 -10 42 -14z m96 -154 c1 -10 21 -38 45 -62 51 -50
63 -95 49 -179 l-8 -50 -49 134 c-27 73 -60 153 -73 178 l-23 45 29 -24 c17
-12 30 -31 30 -42z m81 -21 c0 -14 -1 -25 -3 -25 -2 0 -14 11 -27 25 l-23 25
26 0 c22 0 27 -5 27 -25z m-571 -497 c14 -35 39 -95 57 -134 l32 -71 69 -12
c37 -7 118 -24 180 -38 l111 -27 56 -62 55 -62 -64 -11 c-95 -17 -344 -41
-436 -42 -70 -1 -83 2 -113 24 -63 48 -258 359 -238 379 19 19 226 118 247
118 15 0 26 -15 44 -62z m-812 -45 c-5 -21 -10 -56 -11 -79 -1 -75 102 -183
176 -184 64 0 179 33 272 79 l98 49 17 -30 c35 -67 118 -185 159 -227 23 -25
42 -45 42 -46 0 -2 -19 -5 -42 -9 -24 -3 -65 -10 -93 -15 -27 -6 -79 -10 -115
-10 l-65 0 60 29 c71 35 119 72 114 88 -2 7 -25 -2 -59 -23 -141 -88 -287
-107 -452 -60 -142 41 -179 73 -175 150 2 54 15 64 33 28 18 -37 47 -64 56
-55 6 6 -4 30 -21 58 -58 91 -65 156 -24 239 31 63 46 72 30 18z m483 -53
c-20 -13 -33 -13 -25 0 3 6 14 10 23 10 15 0 15 -2 2 -10z m720 -76 c17 -31
29 -58 27 -61 -4 -4 -128 25 -135 31 -8 9 23 65 41 74 33 16 33 16 67 -44z
m475 -224 c-5 -7 -55 -1 -55 7 0 2 5 14 11 26 l12 21 18 -23 c11 -13 17 -27
14 -31z m-10 -41 c71 -13 122 -38 163 -79 51 -51 79 -159 158 -605 14 -82 32
-184 40 -225 20 -111 21 -108 -42 -137 -30 -14 -58 -22 -61 -19 -4 3 -15 124
-24 268 -10 144 -21 269 -24 278 -6 13 -7 13 -15 0 -4 -8 -4 -87 1 -175 25
-409 26 -449 12 -466 -20 -23 -89 -39 -172 -39 -98 0 -161 -16 -262 -65 -125
-61 -205 -72 -374 -50 -71 9 -147 21 -168 27 l-38 11 7 253 c6 226 5 255 -9
278 -10 14 -17 39 -17 55 0 38 23 138 50 215 24 70 24 76 6 76 -16 0 -59 -119
-80 -221 l-13 -64 -79 -8 c-131 -13 -550 -2 -609 17 -145 45 -211 191 -186
410 14 127 20 149 37 142 28 -11 171 -46 218 -53 l48 -8 -61 -48 c-34 -26 -64
-54 -68 -63 -10 -27 7 -28 35 -2 74 70 298 188 334 176 6 -2 -17 -21 -51 -41
-64 -40 -161 -128 -161 -146 0 -22 24 -10 74 37 137 129 312 190 636 222 125
12 177 6 280 -32 140 -51 174 -59 244 -56 103 4 96 24 -11 31 -67 4 -110 14
-177 40 -49 19 -85 37 -80 39 5 3 48 11 96 18 65 9 96 9 119 1 45 -15 102 -14
125 4 23 18 26 18 99 4z m-1525 -90 c41 -11 113 -19 160 -20 l85 0 -40 -19
c-22 -10 -56 -19 -75 -19 -54 -1 -199 25 -255 46 -41 15 -51 23 -53 46 l-3 27
53 -21 c29 -12 87 -30 128 -40z m1660 -1188 c0 -27 2 -55 5 -63 7 -21 -85 -78
-126 -78 -58 0 -67 14 -61 102 l4 77 72 4 c39 1 79 4 89 5 14 2 17 -6 17 -47z
m-507 -133 c4 -33 3 -54 -4 -57 -5 -1 -30 -18 -54 -37 -53 -40 -86 -50 -114
-34 -19 10 -21 20 -21 95 l0 85 94 0 93 0 6 -52z m624 -26 c91 -61 128 -78
224 -106 68 -19 88 -38 68 -62 -12 -14 -33 -16 -174 -10 -282 10 -437 23 -447
38 -9 13 -4 102 8 132 5 13 9 14 21 4 8 -6 36 -11 63 -11 39 1 57 7 96 37 26
20 48 36 50 36 1 0 42 -26 91 -58z m-530 -117 c38 -30 97 -68 133 -85 36 -18
85 -41 110 -53 97 -47 34 -89 -135 -91 -93 0 -227 22 -387 65 l-38 10 0 62 c0
76 9 94 38 78 30 -16 73 -13 103 7 71 48 95 62 101 62 5 0 38 -25 75 -55z"/>
<path d="M5198 4033 c-14 -2 -32 -11 -40 -20 -12 -14 -8 -15 33 -9 25 4 64 3
86 -2 47 -11 77 0 47 16 -24 12 -91 21 -126 15z"/>
<path d="M5404 3908 c4 -29 10 -70 13 -90 l6 -38 -47 0 c-52 0 -62 -14 -15
-24 86 -17 97 2 72 119 -19 94 -40 117 -29 33z"/>
<path d="M5200 3928 c0 -14 52 -30 77 -23 43 10 26 30 -27 31 -28 0 -50 -3
-50 -8z"/>
<path d="M5250 3680 c0 -6 30 -10 70 -10 40 0 70 4 70 10 0 6 -30 10 -70 10
-40 0 -70 -4 -70 -10z"/>
<path d="M5151 2890 c-18 -38 -51 -99 -73 -135 -43 -72 -44 -93 -2 -54 27 25
109 184 120 232 11 50 -12 28 -45 -43z"/>
<path d="M4551 2488 c-93 -53 -150 -69 -254 -75 -65 -4 -97 -9 -94 -17 6 -18
129 -18 199 -1 73 19 199 78 224 106 16 18 16 19 -2 18 -10 -1 -43 -15 -73
-31z"/>
<path d="M5440 2176 c0 -19 101 -106 162 -138 48 -27 118 -38 118 -19 0 5 -15
13 -32 16 -51 11 -97 38 -171 99 -38 31 -71 56 -73 56 -2 0 -4 -6 -4 -14z"/>
<path d="M5850 2103 c0 -27 -45 -197 -80 -303 -40 -121 -88 -237 -146 -352
-25 -49 -43 -93 -39 -96 8 -9 20 6 65 87 78 137 141 303 190 496 31 123 38
185 20 185 -5 0 -10 -8 -10 -17z"/>
<path d="M5092 1903 c-17 -38 -49 -98 -71 -135 -23 -37 -41 -72 -41 -77 0 -60
139 159 156 247 11 53 -10 36 -44 -35z"/>
<path d="M5593 4448 c-51 -24 -31 -108 27 -108 36 0 60 23 60 59 0 44 -45 69
-87 49z m53 -63 c-3 -9 -14 -15 -23 -13 -22 4 -30 38 -11 49 18 11 43 -15 34
-36z"/>
<path d="M6194 3466 c-33 -33 -36 -40 -31 -77 6 -48 29 -76 71 -87 42 -11 71
-4 101 24 20 18 25 33 25 68 0 60 -30 95 -87 103 -39 5 -46 2 -79 -31z m115
-22 c41 -53 11 -118 -51 -112 -68 7 -88 91 -30 122 39 22 58 19 81 -10z"/>
<path d="M6012 3334 c-28 -19 -30 -74 -4 -97 42 -38 102 -8 102 50 0 54 -52
80 -98 47z m68 -48 c0 -29 -28 -42 -48 -22 -20 20 -8 46 23 46 20 0 25 -5 25
-24z"/>
<path d="M4758 1504 c-2 -20 -2 -211 0 -425 4 -321 7 -389 18 -389 12 0 14 51
14 288 0 159 -3 350 -7 425 -6 133 -16 175 -25 101z"/>
</g>
</svg>
