<?xml version="1.0" standalone="no"?>
<!DOCTYPE svg PUBLIC "-//W3C//DTD SVG 20010904//EN"
 "http://www.w3.org/TR/2001/REC-SVG-20010904/DTD/svg10.dtd">
<svg version="1.0" xmlns="http://www.w3.org/2000/svg"
 width="1024.000000pt" height="559.000000pt" viewBox="0 0 1024.000000 559.000000"
 preserveAspectRatio="xMidYMid meet">
<metadata>
Created by potrace 1.16, written by Peter Selinger 2001-2019
</metadata>
<g transform="translate(0.000000,559.000000) scale(0.100000,-0.100000)"
fill="#000000" stroke="none">
<path d="M5397 4649 c-16 -43 -25 -54 -58 -68 -46 -19 -49 -27 -11 -34 41 -9
61 -28 76 -72 17 -49 28 -51 37 -7 8 40 30 66 70 82 37 16 37 26 0 33 -38 8
-67 40 -76 83 -3 19 -9 34 -13 34 -4 0 -15 -23 -25 -51z m55 -51 l33 -33 -33
-32 -32 -31 -29 29 -30 29 25 27 c13 14 24 30 24 34 0 14 7 11 42 -23z"/>
<path d="M5670 4686 c-27 -33 18 -72 48 -42 13 13 14 20 6 34 -15 23 -38 26
-54 8z m34 -27 c-3 -5 -10 -7 -15 -3 -5 3 -7 10 -3 15 3 5 10 7 15 3 5 -3 7
-10 3 -15z"/>
<path d="M5667 4488 c-21 -24 -25 -33 -15 -40 7 -4 16 -8 19 -8 4 0 10 -11 13
-25 8 -30 22 -32 31 -5 3 11 17 28 30 38 l24 19 -25 12 c-13 6 -27 18 -30 26
-8 21 -15 19 -47 -17z m46 -14 c8 -8 -3 -34 -14 -34 -5 0 -9 9 -9 20 0 19 11
26 23 14z"/>
<path d="M6068 4416 c-109 -45 -176 -110 -232 -226 -28 -59 -31 -74 -31 -165
0 -89 3 -106 28 -157 73 -148 229 -230 379 -199 253 52 397 309 312 555 -24
71 -121 166 -197 194 -80 30 -183 29 -259 -2z m249 -21 c47 -20 108 -78 136
-130 19 -34 22 -56 22 -145 0 -98 -2 -109 -32 -171 -64 -130 -193 -218 -323
-220 -71 -1 -121 14 -177 54 -57 41 -89 89 -110 169 -15 58 -16 74 -4 130 41
205 210 348 393 333 32 -3 75 -12 95 -20z m202 -329 c-5 -6 -8 15 -8 50 l2 59
7 -50 c4 -27 3 -54 -1 -59z m1 -36 c0 -11 -4 -20 -10 -20 -5 0 -10 9 -10 20 0
11 5 20 10 20 6 0 10 -9 10 -20z m-18 -70 c-6 -15 -11 -19 -16 -12 -10 17 4
56 15 45 6 -6 6 -19 1 -33z m-25 -61 c-6 -10 -15 -19 -18 -19 -4 0 -10 -11
-13 -25 -4 -14 -13 -25 -21 -25 -21 0 -19 16 5 40 11 11 22 31 26 45 5 20 9
23 20 14 10 -8 11 -15 1 -30z m-82 -109 c-12 -14 -22 -17 -29 -10 -6 6 -3 16
9 30 12 14 22 17 29 10 6 -6 3 -16 -9 -30z m-41 -19 c9 -14 -22 -34 -40 -27
-16 6 -15 8 2 21 22 17 31 18 38 6z m-54 -40 c0 -11 -39 -25 -47 -18 -3 3 -2
10 2 16 8 13 45 15 45 2z m-66 -20 c3 -5 -3 -11 -14 -14 -22 -6 -37 8 -18 16
20 8 26 8 32 -2z m-59 -11 c4 -6 -10 -9 -37 -9 l-43 2 35 7 c19 4 36 8 37 9 1
0 5 -3 8 -9z"/>
<path d="M6103 4340 c-12 -5 -28 -18 -35 -30 -16 -25 -28 -26 -21 -1 3 10 1
21 -5 25 -15 9 -51 -37 -61 -79 -5 -24 -9 -31 -10 -17 -1 12 -7 22 -14 22 -23
0 -38 -49 -31 -99 7 -43 6 -44 -10 -28 -27 26 -36 21 -36 -23 0 -27 7 -47 20
-60 30 -30 27 -52 -5 -40 -21 8 -25 7 -25 -9 0 -28 37 -69 70 -76 35 -8 41
-24 6 -18 -35 7 -44 -16 -15 -38 16 -13 41 -19 79 -19 l55 0 -34 -21 c-44 -26
-33 -36 19 -15 52 21 53 21 90 -10 38 -32 53 -24 20 11 l-23 25 25 0 c14 0 39
-5 56 -11 25 -8 38 -7 67 7 39 18 42 37 6 42 -22 3 -22 4 -4 17 10 8 28 15 40
15 26 0 83 46 83 66 0 9 -11 14 -32 14 l-33 0 42 38 c42 39 60 79 49 108 -6
15 -8 15 -26 -1 -28 -25 -38 -10 -17 24 19 33 22 73 7 102 -15 26 -27 24 -38
-8 l-9 -28 -7 32 c-8 33 -47 73 -72 73 -22 0 -16 -36 11 -68 23 -28 23 -30 5
-25 -50 13 -6 -50 53 -75 15 -6 27 -16 27 -22 0 -15 -16 -12 -30 5 -16 20 -40
19 -40 0 0 -9 7 -29 15 -46 12 -22 12 -29 3 -27 -10 2 -13 -14 -12 -62 1 -36
-1 -53 -3 -37 -9 58 -53 19 -53 -47 0 -19 -5 -38 -11 -41 -16 -11 -20 0 -10
28 5 14 7 27 4 31 -13 12 -64 -27 -77 -59 -16 -38 -36 -44 -81 -23 -16 7 -25
19 -25 35 0 27 -26 83 -39 83 -11 0 -22 54 -21 103 1 38 -7 46 -28 25 -9 -9
-12 -9 -12 -1 0 7 10 15 23 19 32 9 57 34 57 57 0 14 -5 18 -20 14 -11 -3 -20
-1 -20 4 0 5 14 9 30 9 34 0 90 25 90 40 0 6 -9 10 -21 10 -11 0 -17 5 -14 10
3 6 14 10 24 10 22 0 65 45 56 59 -7 13 -22 13 -52 1z m28 -24 c-14 -16 -51
-28 -51 -16 0 11 30 29 49 30 10 0 11 -3 2 -14z m-112 -48 c-7 -13 -14 -18
-16 -11 -3 7 1 22 8 35 7 13 14 18 16 11 3 -7 -1 -22 -8 -35z m299 14 c8 -13
10 -22 4 -22 -13 0 -42 28 -42 42 0 15 22 4 38 -20z m-248 -42 c-8 -5 -24 -10
-35 -10 -17 0 -17 2 -5 10 8 5 24 10 35 10 17 0 17 -2 5 -10z m320 -25 c0 -19
-4 -35 -10 -35 -11 0 -13 30 -4 54 10 25 14 19 14 -19z m-439 -32 c-9 -15 -10
-13 -11 13 0 17 3 34 8 38 11 12 14 -32 3 -51z m379 22 c10 -12 10 -15 -3 -15
-8 0 -20 7 -27 15 -10 12 -10 15 3 15 8 0 20 -7 27 -15z m-320 -33 c0 -5 -12
-14 -27 -21 l-28 -11 24 20 c26 22 31 24 31 12z m350 -81 c-1 -12 -5 -10 -20
8 -26 30 -26 49 0 26 11 -10 20 -25 20 -34z m-446 13 c3 -9 6 -23 6 -32 -1
-15 -3 -14 -15 2 -17 22 -20 46 -6 46 5 0 12 -7 15 -16z m490 -32 c-10 -14
-19 -21 -21 -15 -3 7 4 24 13 39 10 15 20 21 22 15 2 -6 -4 -24 -14 -39z
m-444 -18 c-18 -21 -24 -10 -9 18 8 14 14 18 17 10 2 -7 -2 -19 -8 -28z m372
-56 c-9 -9 -12 -4 -11 23 0 32 1 33 11 11 8 -17 8 -26 0 -34z m-357 -15 c-9
-37 -18 -20 -9 19 4 18 9 27 11 20 3 -7 2 -24 -2 -39z m-53 -10 c10 -9 18 -20
18 -25 0 -11 -38 14 -44 29 -7 18 4 16 26 -4z m362 -25 c-8 -27 -12 -33 -19
-27 -7 8 7 49 17 49 5 0 6 -10 2 -22z m81 2 c-10 -11 -25 -20 -34 -20 -12 1
-10 5 8 20 30 26 49 26 26 0z m-378 -22 c-3 -7 -5 -2 -5 12 0 14 2 19 5 13 2
-7 2 -19 0 -25z m43 -23 c0 -17 -2 -17 -10 -5 -5 8 -10 24 -10 35 0 17 2 17
10 5 5 -8 10 -24 10 -35z m170 -14 c-10 -20 -30 -29 -30 -14 0 10 33 44 37 39
3 -2 0 -14 -7 -25z m-200 -16 c10 -12 9 -15 -7 -15 -10 0 -28 7 -39 15 -18 14
-18 14 7 15 15 0 32 -7 39 -15z m278 -14 c10 -6 7 -10 -11 -15 -33 -8 -65 3
-45 15 17 11 39 11 56 0z"/>
<path d="M5510 4356 c-5 -14 -18 -30 -30 -36 -25 -14 -26 -26 0 -33 10 -3 25
-20 33 -38 l14 -34 16 32 c9 17 26 38 37 46 19 13 19 14 -5 27 -14 8 -28 24
-31 37 -8 30 -22 29 -34 -1z m33 -62 c-7 -18 -17 -18 -32 -1 -8 10 -7 17 1 25
15 15 39 -3 31 -24z"/>
<path d="M4455 4179 c-243 -36 -465 -208 -478 -371 -2 -24 -12 -58 -22 -77
-29 -57 -17 -175 29 -280 46 -105 81 -153 148 -203 29 -21 76 -63 103 -92 28
-29 58 -57 68 -63 36 -19 -8 -113 -63 -136 -8 -4 -76 -53 -150 -109 -199 -153
-247 -234 -257 -438 -5 -93 -1 -126 31 -290 20 -102 49 -234 63 -293 l27 -109
-27 -103 c-30 -113 -32 -143 -13 -194 10 -27 9 -44 -3 -91 -19 -73 -6 -125 45
-174 l36 -35 -36 -58 c-85 -139 -209 -543 -166 -543 5 0 14 19 20 43 46 175
127 401 173 480 l26 44 57 -28 c31 -16 63 -29 69 -29 9 0 3 -19 -15 -53 -53
-96 -131 -367 -107 -367 3 0 24 57 47 128 63 188 100 272 120 272 9 0 31 -5
48 -11 25 -9 30 -14 23 -27 -12 -25 -39 -158 -46 -227 -8 -89 10 -43 40 105
14 68 28 126 30 129 3 2 53 -3 113 -12 226 -36 401 -32 575 15 43 11 80 18 83
16 8 -9 -17 -161 -47 -278 -34 -134 -35 -148 -8 -98 29 57 79 262 79 329 0 57
1 59 38 83 20 13 40 21 44 17 19 -17 94 -328 120 -496 2 -11 10 -20 18 -20 11
0 14 10 12 40 -5 65 -50 276 -83 387 -47 158 -48 176 -5 232 51 67 68 132 57
215 -18 131 -21 238 -8 370 14 153 23 169 77 138 36 -22 57 -17 94 22 l27 28
52 -28 c67 -36 226 -89 266 -89 50 0 93 23 151 81 117 117 218 263 338 490
128 241 116 226 218 278 50 26 104 56 120 68 16 11 63 36 104 55 115 53 174
136 121 170 -19 12 -19 13 8 47 61 78 64 121 10 121 l-30 0 20 29 c23 32 27
71 9 89 -25 25 -54 11 -120 -59 -69 -73 -87 -83 -44 -26 37 49 66 114 60 131
-10 25 -42 29 -73 9 -16 -10 -49 -43 -74 -73 -24 -31 -64 -72 -88 -91 -36 -30
-48 -34 -66 -26 -17 8 -35 2 -90 -27 -41 -23 -56 -28 -38 -14 150 115 160 135
103 194 -18 18 -40 34 -49 34 -20 0 -46 -28 -54 -60 -3 -14 -22 -36 -43 -49
-75 -49 -147 -94 -142 -88 3 3 44 46 93 96 95 98 109 131 63 152 -36 17 -90
-14 -229 -130 -106 -89 -170 -131 -182 -119 -2 2 3 31 11 63 26 97 0 179 -54
173 -24 -3 -30 -11 -54 -87 -15 -47 -38 -107 -51 -135 -21 -44 -30 -86 -53
-242 -4 -32 -146 -197 -230 -268 l-41 -35 -100 103 c-55 57 -123 118 -150 135
-28 17 -54 38 -57 47 -7 18 -145 84 -175 84 -11 0 -35 9 -54 20 -37 22 -37 25
-16 96 8 27 17 32 82 52 116 34 153 85 122 171 -8 24 -15 56 -15 72 0 19 -7
32 -21 40 -15 8 -18 14 -10 22 15 15 13 47 -4 77 -12 23 -11 27 11 51 43 45
31 74 -61 147 -78 63 -80 65 -86 117 -4 31 -15 64 -30 84 -16 22 -23 42 -21
66 6 64 -35 114 -133 163 -69 34 -143 44 -230 31z m223 -65 c74 -36 112 -76
112 -118 0 -18 -14 -10 -92 59 -28 23 -38 18 -38 -20 0 -19 -7 -53 -17 -76
l-16 -42 -16 43 c-22 60 -38 61 -47 3 -3 -26 -13 -64 -21 -83 l-14 -35 -20 28
c-29 39 -39 34 -39 -21 0 -59 -6 -67 -38 -46 -13 8 -26 13 -28 11 -3 -3 2 -29
10 -59 14 -47 14 -60 2 -107 -14 -56 -9 -92 21 -136 7 -11 13 -23 13 -27 0
-15 -32 -8 -61 13 -98 69 -202 -1 -169 -114 14 -52 42 -87 98 -121 31 -19 42
-33 42 -51 0 -15 -6 -25 -14 -25 -10 0 -16 -13 -18 -37 l-3 -38 -60 61 c-33
34 -85 80 -115 102 -59 44 -102 106 -146 212 -34 81 -40 200 -11 243 9 14 17
43 17 63 0 90 95 204 225 271 124 63 184 79 299 82 61 1 79 -3 144 -35z m78
-151 c64 -66 84 -100 77 -135 -8 -39 14 -68 102 -134 44 -33 75 -64 75 -74 0
-12 -19 -27 -55 -44 -30 -14 -55 -30 -55 -36 0 -13 16 -13 40 0 17 9 22 5 35
-26 19 -46 20 -41 -16 -60 -38 -19 -79 -61 -79 -80 0 -18 24 -18 58 0 63 32
69 30 76 -16 3 -24 9 -59 12 -79 3 -20 1 -46 -5 -57 -17 -32 -112 -62 -215
-69 -115 -7 -188 7 -239 48 -21 17 -40 29 -43 26 -9 -9 9 -37 40 -60 43 -33
96 -47 184 -47 39 0 72 -1 72 -3 0 -2 -9 -43 -21 -93 -25 -109 -35 -204 -21
-204 12 0 22 24 22 51 0 35 17 20 30 -27 12 -41 11 -48 -7 -72 -29 -39 -106
-42 -197 -8 -95 36 -340 172 -326 181 20 13 48 87 55 148 5 41 12 57 22 57 12
0 14 10 11 45 -3 44 -2 45 26 45 31 0 66 24 66 47 0 17 -15 17 -30 -2 -32 -39
-152 10 -185 76 -35 67 -12 139 44 139 15 0 43 -11 63 -25 37 -25 63 -30 92
-19 22 8 20 23 -8 84 -20 43 -22 57 -14 87 5 20 8 55 6 78 -2 30 1 41 9 38 15
-6 33 28 33 63 0 26 1 27 14 9 14 -19 15 -19 35 -1 12 11 26 36 32 57 12 37
12 37 28 17 17 -20 17 -20 44 11 14 18 32 50 38 71 7 22 16 40 20 40 5 0 30
-21 55 -47z m210 -548 c-11 -8 -22 -12 -25 -9 -6 6 19 24 34 24 6 -1 1 -7 -9
-15z m1309 -66 c4 -5 -39 -57 -94 -114 -62 -63 -101 -112 -101 -124 0 -40 29
-29 203 80 112 70 137 80 137 55 0 -21 -50 -65 -167 -149 -65 -46 -103 -79
-103 -90 0 -25 20 -19 162 53 78 39 120 55 125 47 10 -17 -82 -92 -168 -137
-77 -40 -108 -65 -95 -77 9 -9 123 15 159 33 15 9 38 14 50 12 37 -5 -53 -63
-144 -93 -44 -14 -118 -48 -166 -75 -47 -27 -108 -57 -134 -65 -60 -20 -122
-85 -238 -249 -149 -211 -212 -289 -345 -422 -146 -146 -211 -194 -265 -194
-62 0 -299 62 -443 116 -79 30 -78 27 -24 149 52 115 73 150 123 205 l48 52
104 -51 c74 -38 101 -56 97 -67 -11 -29 21 -12 69 37 28 28 113 98 190 156 77
59 165 129 195 155 71 63 228 236 244 268 7 14 19 68 25 120 8 57 23 117 38
150 29 64 63 167 63 193 0 21 13 22 30 2 12 -15 11 -64 -6 -192 -5 -39 -3 -53
6 -53 31 0 153 77 230 146 82 72 165 134 181 134 4 0 11 -5 14 -11z m412 -102
c-14 -23 -51 -70 -82 -105 -41 -45 -55 -66 -47 -74 17 -17 98 37 178 119 71
72 94 87 94 59 0 -28 -96 -141 -157 -186 -34 -25 -62 -51 -62 -57 -2 -36 94
10 165 79 31 30 59 49 69 46 32 -6 -59 -112 -142 -164 -70 -44 -93 -74 -55
-74 32 0 109 31 128 51 16 18 44 26 44 13 0 -3 -10 -20 -22 -36 -14 -20 -50
-44 -102 -69 -45 -20 -119 -60 -165 -88 -47 -28 -101 -56 -120 -61 -33 -9 -42
-20 -100 -127 -185 -340 -246 -437 -359 -567 -63 -72 -132 -126 -163 -126 -36
0 -186 53 -271 96 -88 44 -88 44 -76 71 7 16 35 55 63 88 27 33 70 88 95 122
25 35 50 62 55 62 6 0 20 -8 31 -18 16 -13 20 -25 17 -44 -8 -40 12 -33 47 18
17 24 101 115 188 202 106 106 176 185 211 240 52 80 56 83 116 103 116 38
185 99 160 140 -8 12 -64 10 -100 -5 -11 -4 3 9 30 28 28 19 63 48 78 64 15
15 83 84 150 153 90 92 122 120 125 107 2 -10 -8 -37 -21 -60z m-307 43 c0
-10 -31 -23 -38 -15 -8 7 19 35 29 29 5 -3 9 -9 9 -14z m-1513 -342 c62 -68
120 -280 124 -458 l1 -45 9 50 c18 101 -21 342 -66 412 -9 13 -14 27 -12 30 3
3 36 -10 74 -29 64 -31 70 -37 100 -98 34 -69 73 -184 97 -290 l16 -65 -43
-38 -42 -37 -3 42 c-7 120 -63 381 -78 366 -2 -3 5 -40 16 -84 12 -43 26 -137
32 -207 l12 -128 -41 -41 -41 -40 -71 37 c-53 28 -70 42 -66 53 3 9 8 72 12
141 6 147 -13 283 -52 370 -14 29 -25 60 -25 67 0 21 24 17 47 -8z m-455 -114
c162 -88 276 -134 332 -134 17 0 48 9 69 19 20 10 39 16 41 12 20 -32 12 -328
-8 -349 -4 -3 -17 6 -29 20 -12 14 -59 45 -104 68 -68 35 -91 53 -142 115 -56
69 -152 155 -171 155 -5 0 29 -38 76 -84 46 -47 84 -89 84 -95 0 -6 -36 14
-81 44 -89 60 -169 94 -240 102 -69 8 -67 -11 4 -26 70 -14 117 -37 202 -94
33 -23 121 -75 196 -117 l136 -75 -53 -59 c-90 -99 -170 -275 -197 -434 l-12
-71 -190 120 c-104 67 -209 132 -232 145 -69 41 -59 9 14 -42 97 -68 96 -66
18 -60 -66 6 -68 5 -40 -8 17 -8 59 -18 95 -22 58 -6 80 -16 204 -90 76 -46
143 -84 148 -84 20 0 55 24 104 72 32 31 54 46 58 39 4 -6 -10 -43 -30 -81
-81 -154 -346 -366 -493 -394 -43 -8 -108 9 -120 32 -4 9 -12 39 -16 67 -4 27
-29 135 -55 240 -141 558 -148 731 -34 903 23 36 65 75 132 124 53 39 112 84
130 100 18 15 36 28 39 28 4 0 78 -39 165 -86z m853 -141 l113 -117 -62 -48
c-33 -26 -65 -46 -70 -45 -5 2 -19 44 -32 95 -13 51 -37 124 -53 162 -16 39
-25 70 -19 70 5 0 61 -53 123 -117z m826 0 c-33 -43 -129 -146 -214 -229
l-154 -150 -26 20 -25 21 76 106 c117 161 141 186 208 213 33 13 86 39 119 59
33 19 64 36 68 36 5 1 -19 -34 -52 -76z m-707 -721 c-6 -32 -27 -42 -39 -21
-7 10 34 63 42 56 2 -2 0 -18 -3 -35z m-746 -60 c1 -5 -18 -26 -44 -47 l-47
-39 7 48 c12 75 13 76 49 61 17 -7 33 -17 35 -23z m163 -43 c24 -7 48 -16 53
-20 12 -10 -30 -98 -102 -212 -79 -126 -92 -152 -51 -107 45 50 111 154 150
235 19 39 35 72 36 73 1 2 36 -4 78 -13 l76 -17 -7 -32 c-42 -199 -195 -500
-291 -576 -42 -33 -20 -32 25 1 115 85 229 317 287 586 3 14 10 20 19 17 22
-8 88 13 126 41 19 14 36 21 38 16 2 -5 -8 -101 -22 -212 -14 -111 -26 -208
-26 -216 0 -25 17 -5 25 29 l8 33 8 -40 c27 -132 -11 -235 -106 -290 -45 -27
-265 -85 -265 -71 0 2 20 17 45 33 42 26 65 53 46 53 -5 0 -55 -24 -112 -54
-135 -70 -210 -84 -340 -66 -51 7 -111 18 -133 24 l-41 12 60 24 c95 38 194
100 259 163 69 66 60 65 -35 -4 -74 -54 -196 -118 -279 -146 -129 -42 -327 -3
-372 75 -17 29 -25 122 -12 135 4 4 20 -5 36 -18 28 -24 48 -32 48 -20 0 3
-18 28 -39 55 -59 75 -66 105 -45 198 10 42 21 81 24 85 4 5 13 -22 20 -59 10
-51 10 -69 2 -72 -35 -11 27 -94 85 -113 87 -29 230 26 380 145 46 37 85 66
88 66 15 0 -106 -149 -173 -212 -96 -90 -173 -130 -260 -136 -79 -6 -78 -26 2
-30 171 -9 412 224 569 550 29 60 57 106 63 103 7 -2 32 -9 55 -16z m347 -755
c-13 -67 -262 -134 -494 -134 -184 0 -300 18 -474 72 -97 31 -146 57 -80 43
19 -4 71 -11 115 -15 44 -5 114 -18 155 -30 112 -33 268 -38 357 -12 37 11
104 23 148 26 77 6 211 37 244 56 24 14 33 12 29 -6z"/>
<path d="M4705 3805 c-55 -25 -88 -56 -104 -97 -16 -42 4 -43 35 -2 18 23 49
45 86 62 41 17 58 30 58 43 0 24 -13 23 -75 -6z"/>
<path d="M4714 3715 c-11 -27 5 -65 27 -65 27 0 34 25 15 55 -19 28 -34 32
-42 10z"/>
<path d="M4287 3453 c-4 -3 -7 -15 -7 -27 0 -15 3 -17 12 -8 17 17 47 15 54
-3 7 -16 44 -21 44 -6 0 29 -84 64 -103 44z"/>
<path d="M4340 3370 c0 -5 5 -10 11 -10 5 0 7 5 4 10 -3 6 -8 10 -11 10 -2 0
-4 -4 -4 -10z"/>
<path d="M6457 2876 c-51 -14 -98 -43 -105 -65 -3 -8 13 -2 34 13 21 14 64 31
96 37 32 6 58 16 58 20 0 12 -25 10 -83 -5z"/>
<path d="M5122 1467 c-12 -45 -40 -119 -62 -164 -43 -92 -37 -112 10 -30 35
61 68 154 79 226 12 77 -1 61 -27 -32z"/>
<path d="M4873 889 c-20 -44 -128 -187 -201 -269 -84 -92 -82 -108 4 -22 97
96 221 275 212 304 -2 6 -9 0 -15 -13z"/>
</g>
</svg>
