<?xml version="1.0" standalone="no"?>
<!DOCTYPE svg PUBLIC "-//W3C//DTD SVG 20010904//EN"
 "http://www.w3.org/TR/2001/REC-SVG-20010904/DTD/svg10.dtd">
<svg version="1.0" xmlns="http://www.w3.org/2000/svg"
 width="1024.000000pt" height="559.000000pt" viewBox="0 0 1024.000000 559.000000"
 preserveAspectRatio="xMidYMid meet">
<metadata>
Created by potrace 1.16, written by Peter Selinger 2001-2019
</metadata>
<g transform="translate(0.000000,559.000000) scale(0.100000,-0.100000)"
fill="#000000" stroke="none">
<path d="M5363 5119 c-18 -11 -33 -25 -33 -30 0 -5 -12 -9 -26 -9 -28 0 -84
-49 -84 -73 0 -7 -11 -19 -24 -25 -37 -16 -59 -56 -54 -94 3 -21 -1 -43 -13
-63 -23 -36 -24 -84 -5 -111 8 -10 12 -29 9 -41 -3 -12 2 -36 11 -54 9 -18 16
-42 16 -54 0 -12 9 -34 20 -48 11 -14 20 -30 20 -37 0 -6 11 -22 25 -36 l25
-25 -19 -38 c-24 -45 -64 -75 -92 -66 -11 4 -41 0 -67 -8 -26 -9 -77 -18 -114
-21 -75 -7 -119 -23 -195 -72 -30 -19 -104 -53 -166 -75 -124 -46 -137 -53
-137 -80 0 -12 -17 -27 -52 -45 -74 -37 -179 -106 -206 -136 -23 -25 -53 -143
-67 -261 -4 -31 -2 -155 5 -275 12 -210 12 -219 -9 -292 -41 -147 -22 -244 57
-277 40 -18 115 -34 147 -33 11 0 33 0 50 0 34 0 75 35 75 64 0 11 9 29 19 40
24 26 26 39 16 101 -10 66 -24 91 -79 145 -45 44 -46 45 -46 110 0 86 14 167
45 265 15 44 31 112 38 152 l11 72 61 14 60 14 36 -35 37 -34 46 20 46 21 2
-102 c5 -183 2 -223 -20 -283 -33 -94 -36 -124 -12 -169 28 -55 26 -91 -10
-132 -55 -63 -130 -241 -130 -312 -1 -79 -69 -228 -164 -355 -36 -49 -66 -92
-66 -96 0 -11 90 -96 131 -124 l36 -25 -21 -60 c-11 -33 -28 -62 -36 -64 -8
-2 -34 10 -57 25 -68 46 -127 67 -246 87 -127 22 -163 34 -194 62 -11 12 -41
23 -65 26 -24 3 -56 16 -71 29 -16 13 -39 24 -52 24 -12 0 -29 8 -36 17 -29
34 -103 73 -140 73 -46 0 -80 -36 -138 -148 -23 -43 -72 -113 -110 -155 -52
-59 -75 -94 -95 -148 -48 -130 -47 -188 4 -209 43 -18 81 1 130 66 42 56 92
94 179 138 l53 27 22 -20 c15 -14 36 -21 62 -21 30 0 47 -6 64 -25 24 -26 76
-45 120 -45 14 0 113 -42 220 -94 379 -183 393 -189 464 -184 50 3 73 10 106
33 48 33 217 240 297 363 41 62 60 82 76 82 13 0 47 6 76 14 l54 14 91 -67
c50 -37 126 -91 169 -119 62 -42 77 -58 77 -78 0 -14 11 -36 24 -49 20 -20 28
-44 40 -127 22 -146 42 -199 133 -344 112 -180 126 -209 148 -317 3 -15 20
-44 38 -65 18 -20 39 -56 45 -79 12 -40 18 -48 57 -81 8 -7 15 -23 15 -36 0
-12 12 -47 28 -77 27 -53 28 -54 75 -57 41 -3 62 4 126 36 43 22 116 52 162
67 106 35 143 54 207 105 92 72 135 153 100 188 -18 18 -77 15 -143 -8 -58
-20 -153 -26 -227 -14 -28 5 -38 12 -43 32 -3 14 -21 40 -39 57 -25 23 -34 42
-39 79 -5 35 -18 62 -47 98 -31 39 -48 78 -79 177 -130 416 -130 418 -152 532
-12 66 -52 130 -196 311 -32 40 -53 76 -53 91 0 24 -20 48 -214 265 l-30 33 2
162 c1 89 1 167 2 174 0 7 20 32 45 56 l45 45 0 96 c0 81 4 106 28 168 16 40
37 95 47 122 l18 50 22 -28 c19 -24 24 -26 47 -15 28 12 36 6 122 -98 14 -17
51 -47 80 -67 75 -49 115 -49 193 4 123 81 173 137 307 335 42 62 77 103 94
111 39 16 118 107 137 158 16 43 16 45 -9 97 -14 30 -37 65 -51 78 -14 13 -25
27 -25 32 0 5 -8 9 -18 9 -10 0 -29 11 -42 25 -13 14 -34 25 -47 25 -24 0 -73
-40 -73 -60 0 -5 -9 -10 -19 -10 -28 0 -68 -38 -85 -80 -14 -36 -13 -41 19
-155 8 -29 -104 -138 -197 -192 l-73 -42 -17 22 c-10 13 -15 32 -11 49 4 21
-8 47 -61 127 -37 55 -83 139 -104 188 -43 101 -92 157 -189 215 -60 35 -62
38 -52 62 11 24 14 24 79 19 64 -5 70 -4 94 20 19 19 26 36 26 66 0 22 4 42 9
46 5 3 13 30 16 59 6 49 9 54 36 60 37 7 38 35 3 123 -22 54 -24 69 -15 90 7
15 9 44 5 72 -6 43 -3 51 21 75 22 22 26 33 20 59 -3 18 -9 49 -12 69 -6 42
-50 88 -84 88 -11 0 -22 7 -26 15 -9 26 -61 47 -94 40 -22 -5 -36 -2 -49 10
-15 13 -30 16 -67 11 -60 -7 -68 -7 -118 -1 -30 4 -48 0 -72 -16z m102 -13
c28 -12 36 -12 52 0 27 20 74 17 100 -8 20 -18 26 -20 48 -10 29 13 49 6 79
-27 10 -11 31 -23 46 -26 36 -8 62 -37 59 -67 -1 -13 4 -35 11 -50 11 -23 10
-31 -4 -53 -21 -32 -36 -24 -36 18 -1 27 -2 29 -11 15 -14 -25 -56 -23 -70 3
l-11 21 -19 -21 c-23 -25 -51 -27 -69 -6 -19 22 -27 18 -34 -16 -5 -27 -9 -30
-38 -27 -32 3 -33 2 -30 -34 3 -33 0 -39 -22 -48 -17 -6 -24 -14 -20 -25 4 -8
2 -21 -4 -28 -6 -6 -12 -23 -14 -37 -5 -37 -26 -31 -51 15 -20 36 -27 40 -65
43 -38 3 -43 0 -62 -30 -26 -44 -25 -74 5 -134 27 -52 26 -94 -2 -94 -9 0 -21
-7 -27 -16 -16 -21 -43 -9 -51 23 -3 14 -15 38 -27 53 -11 15 -17 33 -14 38 4
6 -3 26 -13 43 -12 20 -18 42 -15 55 3 12 -1 36 -10 52 -22 42 -20 55 9 90 21
25 24 34 15 56 -13 36 4 75 40 89 18 7 31 21 35 36 10 37 24 51 54 51 17 0 38
11 56 29 15 17 37 32 49 34 11 2 22 5 24 6 1 0 18 -5 37 -13z m271 -235 c5 -5
23 -11 39 -13 28 -3 31 -7 42 -66 11 -52 11 -68 -1 -89 -12 -23 -10 -33 15
-92 44 -103 39 -117 -37 -105 -40 6 -45 9 -40 27 5 19 4 19 -11 4 -13 -13 -14
-19 -3 -31 7 -9 23 -16 37 -16 21 0 24 -4 21 -32 -3 -31 -5 -33 -48 -36 -25
-2 -49 -7 -53 -12 -5 -4 11 -5 36 -3 51 6 68 -8 43 -36 -9 -10 -16 -35 -16
-57 0 -22 -5 -45 -12 -52 -24 -24 -84 -13 -177 33 -98 50 -127 78 -137 134 -9
55 -17 70 -22 41 -11 -65 40 -135 131 -181 23 -12 43 -22 44 -23 5 -4 -37 -80
-62 -115 -25 -33 -34 -78 -15 -66 6 3 10 12 10 19 0 8 7 19 15 26 12 10 15 7
21 -15 8 -34 -9 -73 -38 -84 -59 -22 -154 35 -272 163 -75 83 -84 95 -66 101
20 7 80 73 80 89 0 17 45 76 58 76 7 0 16 10 21 22 6 16 16 22 41 22 18 1 35
6 37 13 3 7 -3 9 -17 6 -50 -13 -114 99 -91 160 21 55 83 53 103 -4 5 -16 19
-34 29 -40 27 -14 59 5 59 36 0 13 5 27 10 30 6 3 10 14 10 23 0 10 9 25 20
35 11 9 20 28 20 42 0 18 5 25 20 25 11 0 25 9 32 20 10 16 20 18 49 14 22 -4
39 -2 43 5 9 13 19 14 32 2z m-511 -684 c136 -153 241 -210 314 -173 35 19 46
49 38 107 -3 21 -4 39 -2 39 2 0 31 -16 64 -36 87 -52 125 -95 167 -193 21
-47 68 -133 106 -191 l69 -105 -63 -60 c-70 -67 -148 -131 -192 -159 -29 -18
-29 -18 -47 5 -10 13 -19 32 -19 42 0 33 49 193 80 258 16 35 30 73 30 84 -1
11 -12 -9 -26 -44 -13 -36 -26 -67 -28 -69 -2 -2 -2 43 0 100 4 110 -1 98 -26
-71 -7 -40 -23 -115 -36 -166 -23 -88 -43 -147 -128 -362 -38 -97 -45 -125
-21 -83 13 23 14 21 15 -46 0 -70 -1 -73 -35 -102 -72 -64 -174 -52 -296 34
-44 31 -82 54 -85 52 -2 -3 23 -24 56 -47 33 -23 60 -43 60 -45 0 -1 -29 1
-65 5 -77 10 -115 29 -219 108 -43 34 -83 61 -89 61 -5 0 14 -19 42 -41 29
-23 50 -43 49 -45 -7 -6 -91 17 -128 36 -42 22 -80 74 -80 112 0 13 11 55 24
94 l24 69 6 -40 c22 -127 26 -51 5 97 -5 37 -9 118 -9 180 l0 114 38 17 c21 9
63 17 93 17 30 1 68 7 84 15 l30 15 -30 -5 c-108 -16 -111 -16 -91 -3 60 42
62 49 6 27 -30 -11 -97 -40 -149 -65 l-95 -44 -38 37 c-50 49 -91 133 -122
253 -14 52 -24 95 -23 96 1 1 52 21 112 44 61 23 144 61 185 85 79 46 133 64
190 66 19 0 55 6 80 13 76 22 79 21 175 -87z m1261 -142 c4 -13 -65 -57 -77
-49 -27 16 13 66 50 62 13 -2 26 -7 27 -13z m63 -39 c9 -11 5 -18 -23 -34 -19
-11 -47 -39 -62 -62 -19 -28 -30 -38 -38 -30 -7 7 -3 15 13 26 17 13 22 24 19
52 -2 30 1 38 22 49 33 17 55 16 69 -1z m-2069 -38 c22 -87 43 -144 67 -186
27 -48 27 -49 -53 -60 l-47 -7 -18 -90 c-10 -50 -27 -117 -38 -151 -24 -72
-51 -219 -51 -281 0 -55 17 -87 73 -139 38 -35 46 -50 56 -103 10 -49 10 -66
0 -77 -10 -13 -15 -11 -31 13 -11 17 -16 37 -13 51 6 25 -10 30 -19 6 -3 -9
-6 -37 -5 -62 1 -38 3 -42 9 -22 l7 25 12 -29 c12 -29 7 -60 -11 -83 -16 -20
-26 -16 -68 30 -41 43 -55 41 -20 -3 25 -32 25 -40 1 -40 -11 0 -38 19 -61 43
l-42 42 22 -37 c19 -33 19 -38 5 -38 -9 0 -32 17 -50 38 -19 20 -35 32 -35 27
0 -6 5 -16 12 -23 9 -9 9 -12 0 -12 -6 0 -20 12 -29 27 -23 35 -21 153 3 225
14 44 16 82 9 312 -6 241 -5 269 15 366 11 57 27 114 35 126 15 23 220 153
242 154 7 0 17 -19 23 -42z m1925 5 c39 -18 45 -37 17 -52 -13 -7 -27 -6 -46
5 -24 12 -27 12 -23 0 3 -8 1 -17 -6 -20 -7 -2 -1 -5 13 -5 16 -1 39 -17 64
-46 22 -25 45 -45 51 -45 7 0 18 -7 25 -15 19 -23 54 -18 79 11 28 33 19 45
-12 16 -27 -26 -57 -29 -57 -6 0 9 16 32 35 51 72 72 114 15 56 -76 -39 -61
-66 -85 -118 -109 -24 -10 -40 -21 -37 -24 11 -12 -153 -236 -225 -308 -77
-77 -157 -136 -198 -147 -41 -10 -86 19 -177 111 l-89 90 34 25 c19 14 66 56
105 94 l71 68 17 -27 c17 -25 17 -28 -3 -74 -26 -61 -27 -88 -1 -36 28 56 43
70 120 110 71 38 150 102 199 164 l29 38 -20 59 c-21 63 -19 99 8 140 19 29
40 31 89 8z m190 -25 c15 -22 14 -23 -17 -36 -18 -7 -47 -30 -65 -50 -26 -30
-34 -35 -45 -24 -27 27 50 130 99 132 6 0 19 -10 28 -22z m-1695 -924 c40 -8
86 -24 101 -35 38 -27 104 -49 148 -49 21 0 73 -9 117 -21 44 -11 100 -19 127
-17 50 3 52 2 37 -22 -7 -11 -30 -14 -97 -13 -149 1 -356 54 -501 127 -60 30
-72 40 -72 61 l0 24 34 -20 c18 -11 66 -26 106 -35z m-112 -34 c38 -23 38 -24
12 -60 -22 -31 -60 -115 -60 -133 0 -6 18 24 40 67 22 44 43 83 48 88 4 4 26
1 48 -8 l41 -16 -22 -66 c-12 -37 -25 -94 -28 -127 -6 -63 -3 -56 28 78 27
112 26 112 108 87 52 -16 68 -26 71 -43 3 -12 9 -40 15 -62 l10 -40 -5 45 c-3
25 -8 54 -11 64 -4 15 -2 18 13 12 32 -13 167 -35 216 -36 l47 0 10 -52 c6
-29 12 -64 15 -78 3 -14 3 0 1 30 -2 30 -7 65 -10 76 -6 18 -2 22 22 27 15 3
29 4 30 3 9 -8 14 -128 9 -188 l-7 -75 -89 88 c-48 48 -99 93 -112 99 -12 7
14 -26 60 -72 45 -45 94 -99 110 -119 15 -20 82 -97 150 -170 67 -74 122 -137
122 -141 0 -3 -18 -9 -39 -13 -51 -8 -140 -51 -259 -124 -182 -112 -268 -140
-429 -141 -93 0 -203 18 -258 42 -75 33 -211 117 -258 159 -58 52 -60 36 21
143 55 72 79 113 108 184 l24 57 1 -145 c1 -110 4 -133 9 -95 5 28 9 112 9
187 1 152 18 253 57 338 28 62 83 150 93 150 3 0 21 -9 39 -20z m-1140 -719
c20 -10 48 -30 61 -44 l23 -26 -30 -38 c-44 -54 -69 -118 -78 -191 l-7 -63
-61 -31 c-95 -48 -139 -82 -185 -143 -46 -61 -75 -78 -105 -63 -16 9 -18 18
-13 67 9 92 42 161 122 255 40 46 92 121 115 165 39 74 87 131 111 131 5 0 26
-9 47 -19z m2133 -188 c62 -82 121 -170 132 -198 14 -34 22 -88 27 -170 4 -66
8 -96 8 -66 1 30 4 52 7 50 2 -3 25 -75 50 -160 92 -306 112 -361 155 -413 33
-39 40 -56 40 -90 0 -36 6 -49 40 -84 22 -22 40 -45 40 -50 0 -19 -145 -143
-197 -168 -74 -37 -94 -31 -113 34 -9 32 -26 61 -42 75 -19 16 -32 41 -43 87
-20 81 -61 163 -150 305 -82 130 -113 214 -127 343 -9 79 -15 98 -35 115 -12
11 -23 31 -23 43 0 27 -42 64 -209 179 -84 58 -126 93 -118 98 7 4 46 27 87
51 41 24 114 66 162 94 81 47 174 85 189 76 4 -2 58 -70 120 -151z m-1959 82
c19 -16 42 -25 64 -25 22 0 49 -10 74 -29 31 -22 63 -33 138 -46 148 -26 222
-50 284 -93 79 -56 99 -50 133 39 15 38 29 69 32 69 3 0 18 -9 33 -20 82 -58
226 -99 353 -100 l58 0 -18 -31 c-36 -61 -201 -275 -259 -335 -93 -96 -151
-101 -305 -31 -41 19 -117 53 -169 77 -52 24 -140 67 -196 97 -72 38 -118 55
-161 61 -48 7 -70 16 -98 40 -29 26 -44 32 -80 32 -40 0 -45 3 -51 26 -19 76
17 196 79 262 37 39 50 40 89 7z m2877 -1289 c17 -20 -5 -59 -61 -112 -75 -71
-110 -92 -223 -130 -60 -20 -140 -52 -177 -72 -39 -20 -83 -35 -105 -36 -36
-1 -39 2 -61 45 -13 26 -25 62 -28 80 -6 34 -4 35 46 58 29 13 83 53 120 88
l68 63 93 -10 c102 -12 145 -8 229 21 67 22 84 23 99 5z"/>
<path d="M5800 4965 c0 -5 5 -17 10 -25 5 -8 10 -10 10 -5 0 6 -5 17 -10 25
-5 8 -10 11 -10 5z"/>
<path d="M5640 4739 l-35 -20 33 7 c20 3 51 -1 81 -12 44 -15 94 -14 77 3 -9
9 -98 43 -111 43 -5 -1 -26 -10 -45 -21z"/>
<path d="M5330 4680 c-10 -19 -10 -20 10 -8 18 11 23 10 36 -7 13 -17 13 -21
-1 -31 -18 -13 -19 -36 -3 -52 19 -19 33 -14 15 6 -21 23 -21 32 -2 32 21 0
19 43 -3 63 -25 22 -39 21 -52 -3z"/>
<path d="M5663 4683 c-7 -2 -13 -9 -13 -14 0 -6 8 -6 19 1 27 14 31 13 31 -10
0 -11 4 -20 10 -20 9 0 30 31 30 44 0 7 -60 6 -77 -1z"/>
<path d="M5520 4573 c0 -5 12 -20 28 -34 l27 -24 -25 30 c-14 17 -26 32 -27
34 -2 2 -3 0 -3 -6z"/>
<path d="M5407 4255 c3 -33 9 -76 13 -95 6 -23 6 -10 3 35 -4 39 -10 81 -14
95 -4 14 -5 -1 -2 -35z"/>
<path d="M4992 4215 c2 -5 15 -32 28 -60 28 -58 38 -161 21 -220 -7 -28 -7
-35 1 -27 16 16 22 150 9 197 -6 22 -22 58 -36 80 -15 22 -25 36 -23 30z"/>
<path d="M5251 4060 c58 -84 130 -160 151 -160 5 0 -8 15 -29 33 -48 40 -53
47 -113 134 -27 39 -55 75 -62 79 -6 4 17 -35 53 -86z"/>
<path d="M4704 4052 c22 -25 169 -102 195 -102 9 1 -4 9 -29 19 -49 19 -133
65 -165 90 -20 16 -20 16 -1 -7z"/>
<path d="M5591 3974 c0 -11 3 -14 6 -6 3 7 2 16 -1 19 -3 4 -6 -2 -5 -13z"/>
<path d="M5575 3931 c-3 -12 -22 -43 -42 -69 -35 -46 -35 -46 -5 -18 31 29 68
93 59 103 -3 2 -8 -5 -12 -16z"/>
<path d="M4959 3676 c32 -34 120 -91 128 -82 4 3 1 6 -5 6 -6 0 -42 23 -79 51
-37 28 -57 40 -44 25z"/>
<path d="M5762 3666 c-46 -33 -53 -43 -14 -20 19 10 38 25 44 32 15 17 8 14
-30 -12z"/>
<path d="M4831 3606 c-2 -31 66 -221 99 -280 40 -71 49 -73 14 -4 -31 62 -69
160 -94 243 -10 33 -19 52 -19 41z"/>
<path d="M5080 3343 c0 -13 94 -148 145 -208 23 -27 63 -65 88 -83 36 -25 27
-13 -41 55 -48 49 -111 124 -139 167 -29 44 -53 75 -53 69z"/>
<path d="M4276 3831 c-10 -11 -19 -39 -22 -63 -3 -42 -3 -42 5 -6 4 20 15 48
25 62 20 31 16 34 -8 7z"/>
<path d="M6421 3825 c-1 -11 -4 -31 -7 -45 -5 -22 -4 -23 6 -7 6 10 9 30 7 45
-3 18 -5 20 -6 7z"/>
<path d="M4815 3029 c6 -9 156 -72 160 -67 2 2 -34 20 -80 39 -47 20 -82 33
-80 28z"/>
<path d="M5015 2700 c-15 -6 -2 -9 45 -10 43 0 93 -10 148 -28 45 -16 82 -27
82 -25 0 1 -14 10 -31 19 -73 37 -206 62 -244 44z"/>
<path d="M5112 2589 c-75 -15 -59 -21 22 -10 61 9 127 4 199 -14 12 -2 7 2
-12 11 -43 20 -142 26 -209 13z"/>
<path d="M4730 2473 c0 -6 20 -38 45 -71 44 -58 111 -121 190 -176 38 -28 38
-27 -5 10 -97 84 -164 151 -196 199 -19 27 -34 45 -34 38z"/>
<path d="M5350 1999 c54 -36 221 -100 259 -98 9 0 -11 9 -44 18 -69 21 -186
69 -199 82 -6 5 -15 9 -20 9 -6 0 -4 -5 4 -11z"/>
<path d="M5638 1893 c7 -3 16 -2 19 1 4 3 -2 6 -13 5 -11 0 -14 -3 -6 -6z"/>
<path d="M5650 1780 l-65 -7 65 -1 c36 0 74 3 85 8 l20 9 -20 -1 c-11 -1 -49
-4 -85 -8z"/>
<path d="M5630 1710 c14 -4 34 -8 45 -8 16 0 15 2 -5 8 -14 4 -34 8 -45 8 -16
0 -15 -2 5 -8z"/>
<path d="M5830 1238 c0 -24 271 -190 286 -176 2 3 -26 20 -63 38 -58 28 -120
67 -204 129 -11 7 -19 11 -19 9z"/>
<path d="M6049 949 c-30 -28 -35 -34 -14 -21 30 20 73 62 63 62 -3 0 -25 -18
-49 -41z"/>
<path d="M6140 914 c-25 -9 -70 -22 -100 -29 -35 -8 -45 -13 -28 -14 14 -1 55
8 89 19 35 10 65 18 67 16 1 -2 -25 -29 -60 -61 -35 -32 -49 -48 -33 -37 37
25 133 122 120 121 -6 0 -30 -7 -55 -15z"/>
<path d="M3793 2094 c-20 -8 -56 -73 -63 -115 -4 -21 -4 -36 0 -34 4 2 10 21
13 41 4 21 20 55 37 76 17 21 30 38 28 37 -2 0 -8 -3 -15 -5z"/>
<path d="M3811 1990 c0 -41 3 -80 7 -87 4 -7 6 20 4 60 -4 102 -10 115 -11 27z"/>
<path d="M3965 1981 c31 -56 135 -174 192 -216 21 -16 -5 16 -58 71 -52 54
-108 120 -123 147 -37 62 -45 61 -11 -2z"/>
<path d="M4426 1879 c-7 -32 -10 -79 -6 -109 2 -14 6 9 10 50 6 78 5 100 -4
59z"/>
<path d="M4470 1881 c0 -17 53 -171 57 -167 5 5 -47 176 -53 176 -2 0 -4 -4
-4 -9z"/>
</g>
</svg>
