<?xml version="1.0" standalone="no"?>
<!DOCTYPE svg PUBLIC "-//W3C//DTD SVG 20010904//EN"
 "http://www.w3.org/TR/2001/REC-SVG-20010904/DTD/svg10.dtd">
<svg version="1.0" xmlns="http://www.w3.org/2000/svg"
 width="1024.000000pt" height="559.000000pt" viewBox="0 0 1024.000000 559.000000"
 preserveAspectRatio="xMidYMid meet">
<metadata>
Created by potrace 1.16, written by Peter Selinger 2001-2019
</metadata>
<g transform="translate(0.000000,559.000000) scale(0.100000,-0.100000)"
fill="#000000" stroke="none">
<path d="M5090 4743 c-179 -17 -352 -117 -380 -222 -5 -21 -19 -46 -31 -57
-42 -38 -71 -113 -76 -199 -6 -94 12 -178 58 -272 34 -70 136 -213 168 -235
19 -14 20 -17 5 -77 -24 -106 -22 -104 -189 -166 -302 -113 -364 -163 -468
-377 -162 -334 -201 -437 -168 -438 3 -1 18 -11 34 -23 l27 -23 -25 -119 c-61
-286 -40 -445 63 -492 37 -17 200 -23 254 -10 37 10 50 -5 52 -64 1 -38 -5
-68 -20 -99 -30 -64 -70 -190 -94 -297 -47 -218 -108 -699 -90 -717 19 -19 29
9 45 139 59 477 100 675 174 849 17 38 25 47 39 41 9 -4 49 -16 87 -27 39 -11
71 -22 73 -23 2 -2 -6 -34 -17 -72 -43 -142 -81 -417 -61 -437 17 -17 26 6 38
108 14 113 46 271 68 344 15 46 20 53 38 48 60 -15 275 -28 379 -23 64 3 117
3 117 -1 1 -4 5 -27 10 -52 18 -82 40 -323 47 -498 6 -165 13 -202 35 -171 19
28 -6 448 -38 637 -9 51 -14 95 -12 97 2 2 16 5 32 7 27 3 31 -1 47 -49 11
-29 30 -110 45 -180 14 -70 28 -131 30 -135 10 -16 24 4 24 35 0 40 -44 248
-63 303 l-15 42 55 20 54 20 18 -41 c49 -113 95 -342 161 -797 26 -178 29
-190 45 -190 21 0 22 18 9 110 -8 47 -25 164 -39 260 -44 298 -90 514 -134
629 -25 68 -19 154 14 191 43 48 57 91 71 224 8 72 14 142 14 156 0 21 6 16
38 -31 108 -163 220 -238 313 -210 80 24 170 133 239 291 32 72 100 271 155
453 25 83 30 91 73 120 167 115 317 295 297 357 -3 10 -15 20 -26 23 -19 5
-20 7 -5 36 22 41 20 78 -4 93 -12 8 -20 24 -20 40 0 26 -22 58 -40 58 -5 0
-22 -11 -38 -25 -37 -31 -40 -31 -44 3 -2 20 -9 28 -26 30 -31 5 -56 -19 -103
-99 -21 -37 -58 -91 -81 -120 l-43 -54 -6 62 c-7 77 -29 113 -68 113 -24 0
-31 -6 -40 -31 -6 -18 -11 -44 -11 -59 0 -15 -9 -68 -19 -118 -16 -76 -17
-103 -9 -164 l10 -73 -45 -95 c-39 -81 -153 -276 -178 -304 -4 -4 -15 6 -24
24 -16 31 -16 35 0 70 l17 38 -102 199 c-115 222 -156 289 -205 332 -51 44
-149 96 -253 132 -84 29 -93 34 -88 53 3 12 6 27 6 34 0 7 14 12 35 12 45 0
105 30 138 69 34 40 65 124 89 241 20 98 20 113 -2 292 -12 97 -12 112 5 164
15 48 16 64 6 108 -39 168 -234 280 -451 259z m196 -60 c65 -21 146 -74 171
-109 36 -53 60 -139 45 -162 -6 -9 -14 1 -26 32 -18 46 -80 116 -103 116 -8 0
-17 -10 -22 -22 -13 -33 -88 -98 -114 -98 -2 0 0 17 6 38 6 22 7 47 4 56 -6
15 -18 6 -71 -48 -35 -36 -69 -66 -75 -66 -7 0 -12 12 -11 28 5 64 -15 72 -44
17 -11 -19 -45 -60 -77 -90 -32 -30 -61 -66 -65 -80 -4 -15 -4 -58 -2 -95 3
-38 3 -72 0 -74 -3 -3 -18 6 -34 19 -16 14 -38 25 -48 25 -121 0 -117 -199 6
-257 35 -17 38 -27 25 -88 l-6 -29 -31 39 c-17 22 -49 67 -71 100 -118 177
-135 385 -39 493 18 20 40 58 50 85 26 70 105 129 226 168 74 24 238 25 306 2z
m146 -240 c15 -27 29 -65 33 -85 7 -37 7 -38 -21 -33 -32 6 -80 -14 -73 -30 2
-5 18 -11 34 -11 77 -3 73 -1 80 -51 3 -27 11 -78 16 -114 18 -117 -35 -354
-94 -418 -46 -50 -117 -63 -212 -37 -65 17 -83 27 -141 77 -33 28 -50 37 -57
30 -27 -27 86 -120 179 -147 47 -13 53 -18 49 -37 -28 -136 -28 -157 0 -157 8
0 17 15 21 35 7 39 7 39 35 24 15 -8 19 -17 15 -37 -18 -94 -18 -94 -52 -108
-43 -18 -154 -18 -224 1 -103 27 -307 147 -275 161 68 30 91 52 113 107 22 56
56 310 45 330 -3 5 -15 6 -28 3 -63 -16 -136 122 -89 168 22 23 37 20 72 -14
36 -34 41 -35 68 -16 17 13 19 25 16 114 l-3 99 48 39 c35 29 57 39 86 41 22
1 55 12 77 27 31 20 39 22 44 11 14 -38 109 -4 159 56 36 43 42 41 79 -28z
m1078 -828 c0 -15 -46 -117 -71 -158 -34 -56 -36 -67 -9 -67 19 0 33 18 159
190 10 14 22 21 27 17 12 -12 -42 -111 -98 -181 -51 -63 -54 -71 -37 -81 15
-10 54 30 110 113 46 66 69 87 69 62 0 -20 -40 -89 -90 -155 -27 -36 -50 -70
-50 -75 0 -28 28 -14 85 41 36 34 67 60 70 58 9 -10 -69 -114 -134 -179 -37
-36 -94 -85 -129 -108 -72 -49 -79 -61 -122 -202 -105 -349 -175 -510 -260
-604 -89 -97 -160 -94 -264 10 -56 57 -166 219 -166 245 0 11 22 33 58 55 31
20 87 62 123 94 l66 59 21 -44 21 -44 -24 -48 c-31 -62 -36 -106 -13 -111 12
-2 19 5 24 25 10 41 36 91 134 253 138 229 183 331 169 380 -12 42 -9 142 6
205 8 33 15 79 15 102 0 43 13 63 26 41 5 -7 11 -47 14 -88 4 -68 7 -75 27
-78 38 -6 114 83 197 231 15 26 31 47 36 47 6 0 10 -2 10 -5z m-1635 -258
c118 -59 236 -83 329 -66 32 6 59 9 61 7 7 -7 -59 -180 -104 -272 -85 -175
-198 -333 -350 -489 -97 -100 -106 -104 -247 -112 l-121 -7 11 46 c9 40 14 46
36 46 49 0 50 3 94 223 28 137 32 197 16 197 -16 0 -25 -30 -60 -205 -17 -88
-34 -163 -36 -166 -5 -9 -149 26 -225 54 -78 30 -225 103 -234 116 -6 11 113
281 191 431 78 152 131 196 330 278 l119 49 60 -47 c33 -26 92 -63 130 -83z
m494 104 c11 -7 13 -31 8 -123 -7 -127 -34 -268 -77 -402 -29 -90 -27 -132 3
-85 42 65 91 272 110 467 11 116 13 122 30 109 48 -34 46 -378 -3 -636 -13
-72 -13 -91 4 -91 9 0 18 18 24 48 47 217 62 479 36 615 -9 42 18 34 79 -25
54 -54 72 -84 212 -351 l77 -148 -79 -77 c-71 -71 -161 -142 -179 -142 -4 0
-4 78 -1 173 6 168 1 215 -22 192 -6 -6 -17 -150 -26 -340 -16 -348 -26 -471
-45 -520 -26 -68 -92 -114 -204 -139 -62 -15 -127 -21 -99 -10 19 8 93 109 93
127 0 10 -7 17 -15 17 -8 0 -15 -4 -15 -9 0 -16 -83 -103 -124 -129 -40 -26
-46 -27 -181 -26 -77 0 -153 4 -169 8 -28 7 -28 7 30 42 74 44 122 90 108 104
-6 6 -27 -3 -61 -29 -121 -90 -192 -106 -333 -71 -49 12 -92 26 -95 30 -3 5
21 16 52 25 32 9 135 40 230 70 94 30 184 55 200 55 15 0 66 -7 113 -15 68
-12 101 -13 165 -5 100 14 145 35 167 79 9 18 30 42 47 52 17 10 33 30 37 45
4 15 15 35 25 45 32 32 18 79 -23 79 -14 0 -16 6 -12 29 5 23 1 32 -18 45 -21
14 -33 14 -118 1 -52 -8 -108 -15 -124 -15 l-28 0 36 41 c29 31 36 47 34 71
-4 45 -28 56 -70 32 -19 -10 -67 -36 -107 -58 -47 -26 -86 -56 -114 -90 -23
-28 -46 -54 -52 -58 -13 -10 -107 -30 -112 -24 -3 2 17 24 42 47 26 24 81 84
123 134 194 231 333 509 378 757 9 48 19 88 23 88 3 0 12 -4 20 -9z m-174
-840 c-3 -11 -28 -37 -55 -57 -28 -21 -50 -46 -50 -56 0 -16 9 -18 68 -18 37
0 107 7 157 15 56 9 93 11 99 5 12 -12 -24 -26 -129 -51 -87 -21 -103 -30 -83
-46 9 -7 51 -4 133 8 199 30 170 -11 -32 -47 -67 -11 -103 -22 -103 -30 0 -24
19 -25 110 -10 120 21 133 20 93 -5 -18 -11 -72 -29 -120 -38 -84 -17 -112
-34 -79 -47 9 -3 44 -1 78 5 72 12 86 7 35 -14 -72 -30 -167 -37 -263 -21
-127 23 -144 21 -299 -29 -252 -82 -359 -107 -486 -112 -186 -8 -215 18 -213
202 1 104 5 137 40 296 l15 66 87 -37 c48 -20 117 -45 155 -55 74 -20 77 -25
56 -95 -11 -35 -15 -38 -58 -43 -64 -8 -101 -23 -101 -43 0 -13 7 -15 33 -10
79 14 196 26 377 40 107 8 211 20 230 26 23 7 49 29 78 65 23 30 64 66 90 81
26 15 67 40 92 55 48 31 55 31 45 0z m-678 -647 c183 -49 473 -74 646 -55 94
10 219 36 269 56 14 6 16 2 9 -22 -9 -36 -51 -56 -173 -85 -78 -18 -123 -21
-278 -21 -160 0 -202 4 -310 26 -191 40 -229 56 -230 100 0 21 -4 21 67 1z"/>
<path d="M5107 4286 c-45 -16 -67 -34 -67 -52 0 -19 10 -18 61 6 24 11 60 20
80 20 42 0 53 8 38 27 -14 16 -63 16 -112 -1z"/>
<path d="M5310 4240 c0 -7 16 -53 36 -102 40 -98 39 -105 -18 -117 -47 -10
-44 -36 4 -35 48 2 88 28 88 57 -1 40 -74 201 -93 205 -9 2 -17 -2 -17 -8z"/>
<path d="M5417 4224 c-4 -4 -7 -18 -7 -31 0 -20 5 -24 23 -21 16 2 22 10 22
28 0 24 -23 39 -38 24z"/>
<path d="M5134 4186 c-9 -24 3 -46 26 -46 17 0 21 5 18 27 -3 31 -34 44 -44
19z"/>
<path d="M5267 3909 c-96 -50 -64 -148 49 -149 51 0 83 31 91 89 10 77 -55
105 -140 60z m103 -45 c0 -45 -17 -64 -58 -64 -39 0 -62 14 -62 37 0 19 60 53
93 53 22 0 27 -4 27 -26z"/>
<path d="M6380 3248 c-67 -19 -125 -77 -101 -101 8 -8 19 -3 39 19 16 18 51
39 81 49 76 25 59 56 -19 33z"/>
<path d="M5764 4076 c-85 -52 -117 -87 -77 -85 27 0 188 102 188 118 0 27 -22
21 -111 -33z"/>
<path d="M5692 3893 c3 -16 17 -18 128 -18 111 0 125 2 128 18 3 15 -8 17
-128 17 -120 0 -131 -2 -128 -17z"/>
<path d="M5657 3793 c-14 -14 -5 -23 84 -78 61 -38 95 -53 102 -46 18 18 0 36
-85 84 -90 50 -91 51 -101 40z"/>
</g>
</svg>
