<?xml version="1.0" standalone="no"?>
<!DOCTYPE svg PUBLIC "-//W3C//DTD SVG 20010904//EN"
 "http://www.w3.org/TR/2001/REC-SVG-20010904/DTD/svg10.dtd">
<svg version="1.0" xmlns="http://www.w3.org/2000/svg"
 width="1024.000000pt" height="559.000000pt" viewBox="0 0 1024.000000 559.000000"
 preserveAspectRatio="xMidYMid meet">
<metadata>
Created by potrace 1.16, written by Peter Selinger 2001-2019
</metadata>
<g transform="translate(0.000000,559.000000) scale(0.100000,-0.100000)"
fill="#000000" stroke="none">
<path d="M5900 4735 c-109 -30 -176 -71 -240 -147 -55 -66 -90 -136 -90 -181
0 -11 9 -36 19 -56 12 -21 24 -72 29 -122 7 -64 16 -95 35 -125 14 -21 28 -59
32 -84 10 -64 28 -102 97 -209 56 -87 59 -94 42 -104 -46 -26 -115 -103 -147
-165 -19 -37 -67 -139 -107 -227 -40 -88 -93 -198 -118 -246 l-47 -87 27 -38
27 -38 -25 -46 c-18 -34 -44 -58 -101 -95 -72 -47 -298 -210 -353 -254 -21
-17 -22 -20 -7 -21 26 0 49 14 171 104 60 45 150 108 200 141 69 47 94 70 110
102 12 23 24 42 27 43 3 0 24 -16 47 -36 44 -38 164 -104 188 -104 23 0 17
-19 -30 -90 -75 -114 -136 -156 -405 -280 -96 -44 -176 -80 -178 -80 -1 0 -16
26 -32 58 -42 82 -157 197 -212 213 -24 6 -66 22 -93 35 -28 13 -58 24 -68 24
-21 0 -24 23 -5 37 6 6 34 16 60 23 26 7 61 25 77 40 27 25 30 35 30 87 0 32
-7 85 -15 118 -11 48 -12 67 -2 93 11 31 10 36 -10 50 -11 10 -37 30 -57 45
-25 19 -36 36 -36 55 -1 15 -8 45 -16 67 -8 22 -16 63 -17 91 -6 133 -160 207
-351 170 -98 -19 -189 -61 -239 -110 -39 -37 -76 -106 -77 -139 0 -10 -9 -35
-20 -56 -32 -64 -35 -111 -12 -188 28 -91 69 -153 134 -202 132 -100 157 -125
152 -151 -7 -30 -32 -60 -51 -60 -23 0 -240 -86 -288 -115 -58 -34 -110 -99
-170 -216 -27 -52 -75 -141 -107 -198 -53 -97 -56 -106 -42 -123 15 -16 13
-26 -25 -127 -45 -121 -55 -216 -27 -270 l15 -28 -132 -17 c-279 -36 -482 -68
-490 -75 -18 -17 23 -17 143 0 468 66 519 71 572 58 51 -12 298 -7 360 7 22 5
27 2 30 -17 4 -31 421 -349 456 -349 21 0 366 59 550 94 47 9 82 22 97 36 21
20 27 21 58 9 29 -10 49 -9 118 4 46 9 156 28 244 43 242 40 235 38 235 83 l0
37 -222 122 c-123 66 -223 126 -223 132 0 13 76 109 88 110 4 0 7 -20 7 -44 0
-51 16 -68 64 -71 18 -1 37 -5 42 -8 5 -3 44 -5 86 -5 63 -1 82 3 104 20 31
25 57 80 48 103 -4 10 11 34 45 70 29 30 59 71 67 90 18 43 32 50 152 74 l92
18 5 -21 c2 -11 13 -85 24 -164 20 -137 40 -209 49 -170 2 9 -8 92 -22 184
-15 92 -23 171 -19 175 7 6 144 39 163 39 14 0 29 -52 60 -205 39 -191 59
-274 75 -304 23 -44 27 -3 6 71 -11 40 -34 141 -51 223 -37 185 -64 285 -94
350 -51 109 -120 174 -172 161 -26 -7 -32 5 -10 23 23 20 128 51 169 51 27 0
59 -11 95 -31 30 -17 56 -29 58 -26 10 10 -61 62 -105 77 l-51 17 25 23 c65
61 226 18 328 -89 81 -84 118 -166 197 -427 23 -76 48 -146 56 -154 22 -22 18
-3 -27 148 -80 271 -123 365 -202 450 -56 59 -161 117 -231 129 l-38 6 5 48
c8 63 19 84 125 225 49 65 110 153 135 194 47 78 117 231 117 256 0 32 -19 11
-38 -43 -12 -32 -46 -101 -76 -153 -60 -106 -199 -297 -204 -281 -6 18 70 326
113 458 72 219 170 387 236 408 13 5 17 11 12 16 -16 16 -57 -7 -101 -56 -103
-117 -213 -425 -287 -805 -9 -47 -27 -113 -41 -147 -13 -34 -24 -74 -24 -90 0
-23 -8 -32 -45 -52 -26 -13 -55 -37 -66 -53 -11 -15 -29 -28 -40 -28 -29 0
-115 -46 -133 -72 -9 -12 -16 -30 -16 -39 0 -16 -84 -56 -267 -128 l-51 -20
-12 49 c-9 39 -9 61 0 100 7 27 16 47 21 44 18 -11 8 52 -16 104 -29 64 -31
96 -8 154 l18 43 5 -30 c4 -16 2 -35 -2 -42 -15 -19 10 -25 35 -8 28 18 69 74
124 170 60 105 322 621 394 775 76 166 135 273 172 313 24 26 31 28 65 22 20
-3 53 -19 73 -35 20 -16 64 -38 98 -49 81 -26 169 -89 140 -99 -18 -7 -9 -28
20 -50 38 -28 89 -102 112 -163 46 -119 104 -504 130 -857 14 -193 5 -345 -32
-515 -11 -50 -24 -114 -30 -142 -9 -45 -72 -305 -85 -347 -3 -10 -1 -18 5 -18
10 0 61 152 61 183 0 9 4 17 8 17 9 0 32 -335 32 -452 0 -64 11 -95 24 -63 7
20 -1 264 -15 437 -13 157 -10 199 25 363 36 169 49 316 41 470 -16 318 -81
771 -131 920 -17 51 -73 143 -99 165 -8 7 -15 17 -15 22 0 6 -7 25 -16 43 -20
43 -85 88 -165 115 -35 12 -73 30 -84 40 -24 22 -87 50 -112 50 -10 0 -31 -7
-47 -15 -42 -22 -51 -19 -107 34 -43 42 -50 54 -44 73 4 13 11 59 15 103 4 44
13 105 19 136 10 49 9 70 -9 150 -37 166 -57 193 -198 275 -82 47 -84 47 -185
51 -69 2 -120 -2 -157 -12z m257 -29 c42 -15 145 -76 175 -103 26 -24 52 -75
71 -143 27 -95 29 -135 13 -231 -8 -52 -15 -109 -15 -128 0 -47 -13 -56 -39
-28 -20 21 -21 28 -12 53 15 38 16 122 2 157 -7 15 -23 32 -36 38 -53 24 -103
-14 -115 -88 -8 -45 -21 -47 -35 -6 -12 34 -27 54 -70 90 -21 17 -25 28 -20
48 8 31 -3 95 -16 95 -6 0 -10 -31 -10 -70 0 -69 0 -69 40 -101 22 -18 44 -47
50 -65 22 -67 73 -71 85 -6 10 57 31 84 63 80 52 -6 66 -93 29 -180 -13 -30
-22 -38 -41 -38 -15 0 -26 -4 -26 -9 0 -15 29 -21 55 -11 22 8 28 4 57 -31 69
-86 102 -121 129 -135 l28 -14 -30 -52 c-17 -28 -50 -91 -74 -139 -40 -79 -49
-90 -103 -123 -77 -47 -148 -64 -187 -45 -38 19 -64 56 -72 102 -7 47 12 50
60 7 39 -34 47 -36 47 -15 0 8 -15 26 -34 41 l-33 27 30 27 c16 14 28 32 25
40 -3 9 -15 3 -40 -19 -68 -59 -163 -80 -207 -43 -12 9 -43 53 -71 97 l-49 80
27 5 c36 7 92 38 92 51 0 6 -6 9 -12 6 -7 -3 -29 -12 -49 -20 -54 -24 -60 -13
-62 99 -2 128 -20 130 -27 4 -5 -88 -6 -93 -17 -65 -7 17 -17 54 -23 82 -5 29
-17 64 -26 78 -16 25 -16 25 15 25 44 0 39 18 -6 22 -33 3 -39 7 -44 33 -9 40
-10 184 -3 213 9 30 22 28 26 -5 4 -36 25 -40 40 -8 l12 26 13 -25 c8 -14 18
-26 23 -26 5 0 26 22 47 50 43 56 53 61 53 25 0 -14 4 -25 9 -25 24 0 65 23
90 51 l29 31 12 -36 c6 -20 16 -39 22 -42 16 -10 2 54 -18 84 l-15 23 -49 -45
c-58 -54 -72 -57 -63 -16 9 46 -18 38 -70 -20 -25 -27 -48 -50 -52 -50 -4 0
-4 19 0 41 9 50 -8 50 -42 1 l-21 -32 -7 42 -7 42 -25 -28 c-13 -16 -27 -41
-30 -57 -8 -40 -23 -36 -23 5 0 52 15 83 77 159 64 77 127 116 247 148 78 21
165 19 233 -5z m-270 -1042 c31 -21 46 -25 85 -21 45 4 47 3 52 -27 8 -41 39
-91 70 -111 40 -27 119 -21 188 13 32 16 58 24 58 19 0 -16 -343 -685 -394
-768 -57 -94 -72 -108 -79 -77 -11 45 -47 366 -58 523 -15 220 -33 231 -25 15
3 -91 8 -183 12 -205 4 -29 3 -36 -5 -24 -13 20 -58 158 -67 204 -8 43 -24 56
-24 20 0 -49 56 -219 100 -304 9 -17 33 -172 27 -177 -7 -7 -126 30 -177 54
-33 16 -87 58 -134 104 l-79 76 37 67 c20 37 69 138 107 224 119 265 140 302
201 364 31 31 59 57 62 57 3 0 22 -12 43 -26z m-1297 -214 c45 -23 90 -77 90
-108 0 -19 -5 -17 -37 18 -21 22 -41 40 -45 40 -5 0 -8 -17 -8 -37 0 -21 -9
-51 -19 -66 l-19 -29 -8 38 c-13 54 -30 53 -44 -4 -6 -27 -24 -64 -39 -83
l-28 -33 -7 28 c-11 44 -29 25 -32 -33 -1 -30 -8 -67 -15 -83 -7 -17 -9 -49
-6 -78 6 -53 3 -58 -27 -35 -33 25 -91 19 -115 -11 -12 -15 -21 -35 -21 -46 0
-38 30 -88 69 -115 36 -26 39 -31 34 -63 -3 -19 -7 -37 -9 -39 -2 -2 -23 14
-47 35 -24 21 -69 58 -100 81 -111 83 -166 263 -109 354 12 20 22 46 22 58 0
52 63 133 140 179 35 20 119 47 175 56 58 8 166 -4 205 -24z m95 -193 c14 -28
25 -68 25 -88 0 -37 17 -58 91 -110 20 -14 22 -19 11 -45 -9 -21 -9 -39 -2
-64 5 -19 10 -36 10 -36 0 -6 -84 -34 -100 -34 -11 0 -20 -4 -20 -10 0 -15 57
-12 89 5 16 8 31 11 35 8 3 -4 6 -32 6 -64 0 -63 -12 -83 -65 -104 -68 -28
-135 -28 -245 1 -22 6 -23 5 -10 -8 20 -20 75 -38 118 -38 31 0 34 -2 28 -22
-20 -67 -30 -148 -19 -159 9 -9 13 -2 19 26 9 49 24 26 24 -37 0 -45 -3 -49
-41 -75 -50 -33 -113 -36 -185 -8 -61 22 -136 76 -170 121 l-26 34 30 34 c30
34 52 105 52 166 0 23 5 30 29 35 16 3 32 13 35 21 5 12 -1 14 -28 9 -62 -12
-128 39 -130 102 -1 30 4 39 26 52 25 15 29 14 58 -8 22 -16 39 -21 56 -17 26
7 30 28 13 72 -8 22 -6 41 8 86 10 32 23 58 30 58 14 0 61 56 76 89 10 26 11
26 14 4 8 -46 49 -19 78 51 16 37 17 37 35 21 11 -10 31 -40 45 -68z m1125
-541 c0 -2 -9 -23 -20 -47 -26 -59 -25 -106 5 -172 l26 -55 -22 -53 c-20 -53
-21 -79 -4 -164 5 -29 3 -32 -137 -115 -80 -48 -165 -107 -193 -135 -37 -37
-161 -207 -192 -263 -1 -2 -43 -10 -95 -17 -260 -37 -376 -57 -411 -70 l-37
-15 -37 59 c-22 36 -52 68 -73 80 -26 14 -61 57 -122 149 -94 140 -108 155
-135 150 -37 -7 -26 -47 38 -144 34 -52 60 -96 58 -97 -2 -2 -48 -22 -102 -45
-80 -34 -110 -42 -160 -42 -53 0 -236 26 -245 34 -1 2 0 10 3 18 5 13 12 14
36 5 34 -13 50 -2 67 48 6 17 26 75 46 130 35 96 47 160 27 140 -5 -6 -33 -75
-61 -155 -29 -80 -54 -147 -56 -149 -2 -2 -18 9 -36 24 -43 36 -146 86 -242
116 -42 13 -76 27 -76 31 0 3 17 37 39 75 21 37 71 129 111 203 95 175 128
206 265 259 151 58 151 58 169 23 23 -45 104 -111 173 -143 78 -36 179 -40
229 -10 l30 19 -12 -67 c-18 -94 -58 -214 -104 -315 -22 -47 -40 -91 -40 -96
0 -51 77 87 123 220 37 106 57 199 63 299 5 73 3 92 -14 124 l-20 37 28 0 c15
0 44 -11 64 -25 20 -14 46 -25 57 -25 29 0 88 -29 99 -49 31 -59 42 -751 11
-770 -7 -4 -57 -14 -112 -21 -90 -12 -120 -22 -106 -36 7 -7 540 68 551 77 5
5 5 13 -1 21 -6 7 -20 44 -32 82 l-22 69 20 21 c12 12 21 29 21 37 0 8 -29 73
-65 144 -36 72 -65 135 -65 142 0 6 35 26 78 43 142 60 298 137 358 177 78 53
116 94 167 176 32 51 47 67 64 67 13 0 23 -2 23 -4z m-713 -486 c41 -85 86
-179 101 -208 l27 -54 -49 -44 c-43 -37 -177 -114 -200 -114 -11 0 4 135 25
225 18 77 26 175 13 162 -4 -3 -12 -35 -18 -69 -12 -63 -12 -62 -20 102 -4 91
-10 176 -13 190 l-6 25 33 -30 c20 -19 59 -87 107 -185z m1179 95 c31 -24 114
-172 114 -202 0 -12 -58 -27 -268 -69 -70 -14 -140 -33 -156 -42 -16 -9 -41
-39 -56 -67 -16 -29 -53 -73 -91 -104 -38 -33 -65 -64 -67 -78 -4 -28 14 -31
23 -3 3 11 13 20 21 20 11 0 13 -6 9 -22 -12 -38 -46 -68 -77 -68 -33 0 -38 9
-47 82 -3 30 -12 53 -20 56 -11 4 -12 -9 -6 -67 l7 -71 -26 0 c-28 0 -31 6
-41 105 -9 96 -25 91 -25 -8 0 -89 -5 -99 -40 -78 -10 7 -15 36 -18 105 -2 53
-8 93 -13 90 -5 -3 -9 -17 -9 -31 0 -15 -17 -44 -45 -77 -25 -28 -67 -80 -93
-116 -29 -41 -56 -66 -70 -68 -12 -2 -22 1 -22 5 0 20 123 214 181 287 54 67
80 89 169 143 191 116 214 128 310 167 52 21 142 59 200 86 58 26 109 48 114
49 5 1 24 -10 42 -24z m-1883 -318 c2 -6 36 -58 75 -115 66 -95 77 -120 40
-89 -16 13 -148 201 -148 211 0 12 28 6 33 -7z m-652 -106 c67 -23 199 -89
199 -99 0 -4 -6 -14 -13 -23 -9 -12 -31 -15 -96 -15 -117 1 -120 -19 -4 -27
48 -3 120 -13 158 -21 39 -8 116 -18 171 -22 l100 -7 111 48 111 47 64 -28
c34 -15 73 -37 86 -48 33 -30 64 -83 60 -103 -3 -15 -12 -10 -44 24 -37 39
-120 93 -143 93 -26 0 -7 -20 45 -50 39 -22 60 -41 70 -65 8 -19 14 -37 14
-40 0 -11 -28 -4 -41 11 -13 16 -108 74 -121 74 -22 0 -2 -23 47 -55 52 -33
67 -56 45 -70 -5 -3 -32 6 -59 20 -28 14 -55 25 -61 25 -22 0 -8 -17 35 -40
48 -26 54 -47 14 -43 -13 2 -64 7 -114 11 -49 5 -100 14 -112 20 -29 16 -71
15 -216 -4 -154 -20 -347 -16 -394 9 -70 37 -73 110 -12 280 22 64 42 117 43
117 2 0 27 -8 57 -19z m1478 -127 c1 -22 -18 -26 -224 -47 -15 -1 -21 5 -23
24 -3 23 3 28 45 44 26 10 75 35 108 55 l60 36 17 -45 c9 -26 17 -56 17 -67z
m31 -98 c0 -3 -5 -17 -10 -31 -26 -68 41 -88 100 -30 l36 36 95 -52 c216 -118
310 -172 306 -176 -3 -2 -132 -26 -288 -52 l-284 -49 -125 82 c-69 45 -162
106 -207 135 -46 29 -83 57 -83 61 0 9 26 16 120 29 165 23 286 42 295 46 14
5 45 6 45 1z m-367 -172 c73 -48 164 -107 204 -133 39 -25 72 -49 72 -52 1 -4
-16 -9 -36 -12 -21 -3 -156 -26 -301 -51 -145 -25 -269 -46 -277 -46 -7 0
-100 64 -206 143 -186 137 -192 142 -159 145 19 2 59 -3 89 -11 31 -9 101 -18
156 -22 l100 -6 37 35 c57 53 73 50 143 -22 92 -94 110 -82 50 34 -38 73 -44
100 -20 90 9 -3 75 -45 148 -92z m-173 24 c30 -41 39 -65 20 -53 -18 11 -71
95 -61 95 6 0 24 -19 41 -42z m-487 -121 c62 -46 154 -114 205 -151 50 -37 92
-74 92 -82 0 -8 -3 -14 -7 -14 -16 0 -408 301 -411 315 -2 8 -1 15 3 15 3 0
56 -37 118 -83z m1592 -17 c10 -16 -32 -27 -227 -60 -101 -18 -211 -36 -245
-42 -56 -10 -123 -5 -110 8 4 4 228 45 569 103 4 0 10 -4 13 -9z m-645 -109
c0 -25 -31 -32 -345 -87 -49 -8 -108 -19 -130 -24 -22 -5 -65 -11 -96 -15 -47
-6 -56 -4 -56 9 0 19 -1 18 167 46 69 12 177 30 240 41 145 26 203 36 213 38
4 0 7 -3 7 -8z"/>
<path d="M5750 4300 c-45 -15 -50 -18 -26 -19 34 -1 96 19 96 31 0 10 -4 10
-70 -12z"/>
<path d="M5795 4260 c-27 -10 -68 -19 -90 -20 -40 -2 -40 -2 -10 -11 22 -7 49
-3 105 13 41 12 79 25 85 30 16 14 -38 7 -90 -12z"/>
<path d="M5861 4184 c-19 -8 -32 -16 -30 -18 2 -2 44 -2 93 1 78 5 87 8 71 20
-24 17 -91 16 -134 -3z"/>
<path d="M5905 4110 c-7 -12 12 -40 27 -40 13 0 6 43 -9 47 -6 2 -14 -1 -18
-7z"/>
<path d="M5714 4086 c-6 -17 2 -36 17 -36 12 0 12 37 -1 45 -6 3 -13 -1 -16
-9z"/>
<path d="M6123 4036 c-26 -53 -27 -56 -12 -56 13 0 41 66 37 87 -2 8 -13 -6
-25 -31z"/>
<path d="M5895 4040 c3 -5 25 -9 48 -9 40 1 40 2 12 9 -44 11 -67 11 -60 0z"/>
<path d="M6257 3960 c-3 -22 -15 -60 -27 -85 -25 -51 -23 -66 4 -36 34 38 59
142 37 155 -5 3 -11 -12 -14 -34z"/>
<path d="M5966 3929 c3 -6 22 -17 41 -25 19 -9 38 -25 44 -41 12 -32 24 -23
15 12 -5 19 -20 32 -52 45 -53 23 -58 24 -48 9z"/>
<path d="M5967 3854 c-15 -8 -50 -18 -77 -21 -56 -7 -58 -23 -2 -23 41 0 122
33 122 50 0 13 -9 12 -43 -6z"/>
<path d="M5923 3783 c-38 -5 -45 -23 -9 -23 31 0 56 10 56 21 0 5 -3 8 -7 7
-5 0 -23 -3 -40 -5z"/>
<path d="M5990 3486 c0 -27 41 -142 68 -190 42 -77 55 -66 18 16 -19 40 -42
99 -52 131 -16 53 -34 75 -34 43z"/>
<path d="M4578 3174 c-29 -15 -64 -71 -53 -82 4 -4 16 6 27 21 11 15 33 34 49
43 16 8 27 19 24 24 -8 13 -15 12 -47 -6z"/>
<path d="M4604 3096 c-7 -19 3 -36 22 -36 10 0 14 8 12 22 -4 26 -26 36 -34
14z"/>
<path d="M4763 2448 c11 -118 -24 -368 -72 -523 -18 -55 -19 -77 -5 -63 13 14
56 155 73 245 35 175 39 403 9 403 -7 0 -9 -22 -5 -62z"/>
<path d="M4871 2310 c-9 -179 -38 -355 -80 -490 -23 -71 -26 -105 -11 -95 14
9 56 148 79 262 25 125 36 280 23 313 -6 14 -11 18 -11 10z"/>
<path d="M5150 1643 c-196 -32 -263 -44 -271 -49 -17 -10 8 -30 170 -133 111
-71 168 -101 189 -101 38 0 442 67 450 75 11 10 -16 27 -220 138 -68 38 -125
53 -82 22 12 -8 74 -43 138 -79 65 -35 114 -66 109 -69 -4 -3 -99 -19 -209
-38 l-202 -32 -155 99 c-85 54 -150 102 -144 105 7 3 64 14 127 23 140 21 160
26 160 37 0 9 -14 10 -60 2z"/>
<path d="M4220 1486 c0 -6 315 -235 332 -241 7 -3 52 1 98 10 47 8 154 26 238
40 158 27 202 38 186 47 -9 5 -261 -34 -431 -67 l-82 -16 -143 104 c-157 114
-198 140 -198 123z"/>
<path d="M4833 1439 c-47 -14 -41 -28 10 -22 55 6 67 10 67 23 0 12 -33 12
-77 -1z"/>
<path d="M4915 1394 c-11 -3 -47 -11 -80 -18 -33 -8 -98 -19 -145 -26 -109
-15 -120 -18 -120 -36 0 -11 5 -12 18 -5 16 8 139 27 155 23 4 -1 42 7 85 17
42 11 94 22 115 26 21 3 35 10 32 16 -6 9 -24 10 -60 3z"/>
<path d="M4448 4684 c-5 -4 -8 -16 -8 -26 0 -12 -7 -18 -21 -18 -12 0 -23 -8
-26 -19 -3 -11 -16 -22 -29 -25 l-24 -6 2 -258 3 -257 189 -3 c146 -2 193 -6
209 -17 27 -19 87 -19 114 0 16 11 62 15 204 17 l184 3 3 257 2 258 -25 6
c-15 4 -25 13 -25 24 0 12 -9 20 -22 22 -15 2 -24 11 -26 26 -3 20 -9 22 -58
22 -83 0 -204 -28 -254 -59 l-45 -27 -34 23 c-19 13 -57 30 -85 39 -58 17
-217 30 -228 18z m207 -40 c33 -8 77 -26 98 -40 l37 -24 0 -221 c0 -207 -1
-221 -17 -214 -91 39 -158 57 -230 62 l-83 6 0 222 c0 122 3 225 7 229 9 9
113 -2 188 -20z m473 -205 l2 -226 -77 -6 c-81 -7 -149 -24 -201 -51 -17 -9
-33 -16 -37 -16 -3 0 -5 101 -5 225 l0 225 38 18 c20 11 54 25 75 31 37 13
158 30 187 27 13 -1 15 -35 18 -227z m-688 -33 l0 -213 78 -7 c99 -9 165 -24
188 -41 17 -12 13 -13 -25 -4 -24 5 -93 11 -155 12 l-111 2 -3 220 c-2 222 -1
245 18 245 6 0 10 -74 10 -214z m740 -20 l0 -234 -117 -1 c-65 0 -133 -5 -152
-11 -49 -14 -49 -6 -1 14 23 9 86 22 141 28 l99 12 0 206 c0 114 3 210 7 213
20 20 23 -13 23 -227z m-790 -35 l0 -218 143 -6 c78 -3 169 -12 201 -20 53
-13 67 -13 125 0 36 8 128 17 204 20 l137 6 0 218 c0 188 2 219 15 219 13 0
15 -33 15 -235 l0 -235 -172 0 c-134 0 -179 -4 -202 -15 -34 -18 -97 -20 -114
-3 -9 9 -68 14 -196 17 l-183 3 -2 224 c-1 124 1 229 4 234 20 33 25 -9 25
-209z"/>
<path d="M3472 3887 c-18 -5 -46 -25 -62 -44 -22 -25 -38 -33 -62 -33 -92 0
-152 -97 -114 -185 10 -25 10 -36 -2 -67 -37 -93 47 -204 148 -197 28 2 45 -3
68 -23 17 -14 49 -29 71 -33 69 -11 161 27 176 74 4 12 18 20 46 24 87 12 131
75 109 159 -8 34 -8 52 -1 67 46 85 -42 210 -140 198 -26 -4 -38 0 -47 13 -15
25 -92 60 -128 59 -16 -1 -44 -6 -62 -12z m155 -52 c33 -28 50 -35 83 -35 77
0 124 -44 124 -115 0 -19 -6 -46 -14 -60 -11 -21 -12 -30 -2 -45 7 -11 12 -33
12 -49 0 -64 -39 -105 -98 -103 -22 0 -37 -9 -65 -42 -59 -71 -148 -80 -212
-20 -22 20 -35 25 -58 20 -47 -9 -115 26 -132 68 -18 42 -19 76 -4 109 8 18 7
36 -4 74 -14 48 -14 54 4 91 22 43 53 62 104 62 23 0 39 7 49 21 27 39 68 59
122 59 43 0 56 -5 91 -35z"/>
<path d="M3482 3717 c-23 -24 -29 -52 -13 -62 6 -3 16 7 23 22 9 19 22 29 41
31 56 7 76 -41 34 -81 -44 -41 -62 -97 -32 -97 8 0 15 7 15 16 0 9 16 34 35
55 41 45 46 88 15 119 -29 29 -90 27 -118 -3z"/>
<path d="M3527 3494 c-15 -15 -7 -45 11 -42 9 2 17 12 17 22 0 20 -16 31 -28
20z"/>
<path d="M6637 3790 c-78 -69 -162 -226 -252 -472 -44 -119 -55 -162 -36 -142
6 5 38 79 72 164 108 271 183 400 264 453 39 25 44 37 16 37 -10 0 -39 -18
-64 -40z"/>
<path d="M6593 3488 c-20 -25 -92 -216 -163 -433 -40 -121 -95 -280 -121 -353
-27 -74 -49 -136 -49 -139 0 -3 7 0 15 7 21 18 86 190 191 505 50 154 106 313
123 353 27 65 29 92 4 60z"/>
<path d="M3748 3349 c-26 -15 -23 -64 4 -83 12 -9 28 -16 35 -16 18 0 53 37
53 55 0 21 -36 55 -57 55 -10 0 -26 -5 -35 -11z m52 -24 c17 -20 5 -45 -20
-45 -11 0 -23 7 -26 15 -6 15 11 45 26 45 4 0 13 -7 20 -15z"/>
<path d="M3855 3251 c-9 -30 5 -51 35 -51 34 0 44 13 36 46 -5 18 -13 24 -36
24 -19 0 -31 -6 -35 -19z m50 -10 c7 -12 -12 -24 -25 -16 -11 7 -4 25 10 25 5
0 11 -4 15 -9z"/>
<path d="M6235 2958 c-203 -436 -263 -536 -347 -576 -36 -17 -40 -21 -24 -28
31 -12 86 26 136 94 52 71 152 264 235 455 59 138 59 137 47 137 -5 0 -26 -37
-47 -82z"/>
<path d="M6900 2957 c-25 -34 -66 -77 -92 -96 -51 -38 -55 -62 -6 -34 62 37
190 194 156 192 -7 0 -33 -28 -58 -62z"/>
<path d="M6573 2650 c-31 -10 -50 -27 -40 -36 2 -2 32 3 65 11 130 34 305 -32
363 -135 32 -56 51 -54 30 3 -16 42 -81 98 -150 130 -53 24 -83 30 -151 33
-47 2 -99 -1 -117 -6z"/>
<path d="M6482 2324 c45 -94 68 -162 113 -343 67 -266 115 -411 137 -411 11 0
11 2 -18 77 -14 38 -54 182 -89 321 -63 246 -101 350 -134 360 -7 3 -12 1 -9
-4z"/>
<path d="M6620 2160 c0 -16 56 -181 95 -280 77 -196 177 -361 242 -401 48 -30
52 -17 8 22 -91 80 -215 327 -309 617 -10 28 -22 52 -27 52 -5 0 -9 -4 -9 -10z"/>
<path d="M6124 1958 c-10 -24 -36 -65 -57 -93 -36 -48 -35 -74 3 -40 20 18 90
146 90 164 0 24 -18 9 -36 -31z"/>
<path d="M5882 1770 c4 -13 17 -19 398 -180 646 -274 974 -410 990 -410 20 0
10 17 -17 30 -88 40 -1324 558 -1347 564 -19 5 -27 3 -24 -4z"/>
<path d="M5985 1390 c-48 -19 -72 -76 -51 -121 6 -14 -6 -21 -66 -39 -132 -40
-238 -65 -463 -110 -90 -18 -458 -70 -540 -76 -78 -6 -82 -6 -130 25 -57 36
-78 38 -122 11 -23 -13 -34 -29 -39 -54 -14 -76 -26 -66 421 -372 50 -34 104
-65 122 -68 18 -4 58 -1 95 8 173 41 402 90 577 121 183 33 297 61 439 107 53
17 62 23 57 39 -7 22 0 23 43 8 27 -9 46 -6 124 20 107 36 150 59 174 96 20
31 22 98 3 121 -12 15 -138 78 -264 134 -22 9 -103 47 -180 83 -161 74 -173
78 -200 67z m194 -94 c86 -40 199 -93 251 -117 52 -23 96 -44 98 -45 2 -1 -11
-15 -28 -32 -18 -18 -30 -41 -30 -56 0 -14 -2 -26 -5 -26 -3 0 -117 56 -254
125 -257 128 -275 141 -251 184 10 20 37 40 54 41 4 0 79 -33 165 -74z m63
-196 c145 -71 273 -130 286 -130 25 0 62 32 62 54 0 18 -27 46 -45 46 -24 0
-28 -21 -6 -27 28 -7 24 -37 -5 -41 -11 -2 -27 4 -34 13 -27 33 36 104 80 90
49 -16 49 -87 0 -129 -45 -38 -198 -89 -240 -81 -72 14 -85 12 -85 -14 0 -23
-9 -27 -115 -58 -125 -36 -239 -61 -425 -93 -66 -12 -208 -41 -315 -65 -260
-60 -279 -62 -309 -38 -34 27 -32 80 4 111 45 39 101 22 93 -29 -4 -27 -30
-44 -53 -35 -17 6 -17 7 -1 25 20 22 4 40 -19 21 -32 -27 -6 -80 39 -80 29 0
54 27 62 67 9 44 -18 68 -215 192 -196 124 -195 109 -11 131 330 40 679 109
880 174 41 13 83 24 92 25 9 1 135 -57 280 -129z m-1373 -148 c102 -65 201
-127 219 -137 34 -20 42 -35 18 -35 -23 0 -66 -59 -66 -91 0 -16 -2 -29 -5
-29 -2 0 -57 37 -122 83 -65 45 -160 111 -211 146 -51 35 -97 72 -103 82 -21
40 18 99 65 99 10 0 103 -53 205 -118z"/>
<path d="M3762 1348 c-17 -17 -15 -32 6 -51 21 -19 331 -156 447 -198 85 -31
150 -38 143 -16 -11 30 -99 79 -308 169 -253 108 -270 114 -288 96z m251 -109
c197 -84 244 -109 202 -109 -8 0 -103 39 -212 86 -109 47 -204 88 -210 91 -14
6 -18 23 -5 23 4 0 105 -41 225 -91z m261 -115 c23 -9 20 -23 -4 -17 -11 3
-20 9 -20 14 0 11 3 11 24 3z"/>
</g>
</svg>
