<?xml version="1.0" standalone="no"?>
<!DOCTYPE svg PUBLIC "-//W3C//DTD SVG 20010904//EN"
 "http://www.w3.org/TR/2001/REC-SVG-20010904/DTD/svg10.dtd">
<svg version="1.0" xmlns="http://www.w3.org/2000/svg"
 width="1024.000000pt" height="559.000000pt" viewBox="0 0 1024.000000 559.000000"
 preserveAspectRatio="xMidYMid meet">
<metadata>
Created by potrace 1.16, written by Peter Selinger 2001-2019
</metadata>
<g transform="translate(0.000000,559.000000) scale(0.100000,-0.100000)"
fill="#000000" stroke="none">
<path d="M5075 4728 c-11 -6 -37 -11 -57 -9 -44 2 -104 -23 -119 -50 -5 -11
-30 -29 -54 -40 -47 -22 -68 -46 -79 -94 -4 -16 -16 -39 -27 -51 -26 -27 -36
-70 -29 -119 3 -22 2 -51 -3 -65 -11 -33 -1 -96 22 -135 10 -16 24 -48 31 -70
7 -22 19 -49 26 -60 7 -11 18 -40 25 -64 8 -26 24 -51 41 -64 27 -20 28 -25
28 -99 0 -92 12 -81 -181 -152 -222 -82 -253 -109 -362 -311 -35 -66 -79 -144
-96 -173 -17 -29 -31 -55 -31 -58 0 -3 -11 -22 -25 -42 -32 -46 -31 -65 1
-108 25 -32 26 -35 10 -59 -19 -29 -22 -29 -101 -11 -121 29 -216 73 -270 125
-55 54 -88 73 -155 91 -25 6 -64 23 -87 36 -46 27 -73 30 -91 12 -32 -32 -3
-87 66 -122 l47 -24 -30 -12 c-16 -6 -86 -27 -155 -46 -68 -19 -131 -40 -138
-48 -8 -7 -15 -26 -17 -42 -2 -16 -6 -39 -10 -51 -5 -17 -1 -25 22 -39 15 -10
34 -27 41 -36 8 -10 26 -18 43 -18 19 0 37 -8 48 -22 27 -33 104 -34 241 -5
63 14 127 30 142 36 24 9 38 2 150 -73 139 -93 259 -147 328 -150 67 -2 115
34 184 137 49 74 59 84 81 79 21 -4 25 -10 25 -43 0 -21 -5 -41 -11 -45 -19
-11 -59 -107 -59 -142 0 -18 6 -45 14 -60 12 -23 12 -37 2 -81 -20 -91 -20
-91 -267 73 -121 80 -229 146 -240 146 -27 0 -75 -26 -91 -48 -9 -14 -32 -21
-83 -26 -38 -4 -149 -18 -245 -31 -96 -14 -229 -33 -295 -42 l-120 -16 -39 26
c-21 15 -47 27 -58 27 -28 0 -96 -37 -107 -59 -7 -13 -26 -20 -68 -24 -110
-12 -196 -27 -210 -38 -9 -8 -13 -37 -13 -90 l0 -78 83 -66 84 -67 2 -581 c1
-537 6 -638 26 -584 4 8 5 268 3 576 -2 309 -1 561 2 561 3 0 46 -33 95 -73
50 -39 144 -115 210 -167 66 -52 206 -162 310 -245 251 -199 259 -205 281
-205 10 0 82 16 159 36 136 34 677 176 822 215 40 10 75 19 78 19 2 0 6 -163
7 -363 2 -233 7 -362 13 -362 6 0 11 131 13 367 l2 367 38 10 c20 6 59 16 85
23 55 14 59 20 76 101 15 71 15 71 -110 157 -70 48 -89 66 -89 85 0 28 -41 63
-195 165 -60 40 -114 76 -118 80 -4 4 27 20 69 35 62 23 80 26 95 17 31 -19
47 -14 94 29 25 23 46 40 48 38 1 -2 7 -13 13 -24 6 -12 24 -21 42 -23 17 -2
36 -10 42 -18 7 -8 25 -14 41 -14 15 0 31 -4 34 -10 11 -18 70 -10 105 14 19
12 52 29 73 35 21 7 51 24 68 39 30 25 32 25 92 13 99 -21 97 -17 97 -129 0
-82 -7 -123 -44 -267 -113 -433 -212 -695 -356 -939 -50 -85 -58 -106 -41
-106 25 0 177 272 227 405 l19 50 3 -250 c1 -146 6 -253 12 -259 7 -7 10 91
10 281 0 288 0 293 26 363 31 87 134 446 135 474 1 12 5 1 9 -24 4 -25 11
-241 15 -481 4 -240 11 -443 16 -450 10 -16 10 823 0 1114 -4 114 -2 187 3
187 6 0 36 -5 67 -12 l57 -12 6 -55 c3 -31 9 -346 14 -701 5 -355 13 -653 17
-662 4 -10 11 -18 15 -18 8 0 6 372 -5 1075 -4 304 -15 409 -56 533 -26 77
-82 142 -124 142 -23 0 -26 2 -15 15 8 10 31 15 69 15 46 0 66 -6 104 -30 51
-32 64 -20 20 18 l-28 23 45 -7 c100 -14 170 -77 215 -192 30 -78 52 -96 40
-34 -26 146 -130 245 -273 261 l-67 8 45 21 c73 35 188 24 241 -24 26 -23 37
-9 13 17 -67 76 -234 76 -317 1 -18 -16 -18 -15 -11 13 9 40 44 109 97 192 48
76 58 96 87 171 22 58 24 72 11 72 -5 0 -19 -24 -31 -54 -17 -43 -138 -257
-153 -273 -5 -4 -5 -7 28 197 14 85 32 187 41 225 37 168 57 251 64 263 11 21
96 -80 119 -142 10 -29 36 -115 56 -192 20 -76 47 -175 60 -219 66 -223 95
-376 95 -505 -1 -98 -34 -447 -44 -457 -3 -4 -41 -1 -83 5 -77 11 -78 11 -100
-14 -13 -14 -23 -31 -23 -37 0 -7 45 -57 100 -112 l100 -99 0 -347 c-1 -190 2
-352 5 -361 4 -9 -3 -19 -19 -26 -36 -16 -105 -81 -122 -114 -28 -53 -3 -50
47 5 27 30 68 66 91 80 99 57 363 148 515 177 45 9 69 20 89 41 30 32 61 36
102 15 15 -7 61 -21 102 -31 41 -9 86 -20 100 -25 24 -7 24 -8 -15 -24 -22
-10 -75 -27 -117 -40 -93 -27 -111 -41 -43 -33 59 7 156 37 213 66 36 18 59
21 176 21 152 0 138 9 152 -97 10 -76 28 -68 21 10 -3 34 -8 70 -12 80 -5 13
-2 17 13 17 22 0 42 -36 70 -123 16 -50 17 -51 20 -20 2 18 -7 58 -21 92 l-24
60 51 13 c28 7 55 13 60 13 22 0 66 -184 66 -275 0 -63 12 -83 30 -50 8 14 8
45 0 107 -14 110 -17 125 -46 192 -30 67 -31 112 -3 137 40 36 52 72 45 143
-18 209 -19 286 -2 300 35 29 13 444 -30 565 -14 39 -29 85 -33 103 -14 51
-44 96 -82 120 -18 12 -54 37 -78 55 -35 26 -57 34 -105 38 l-61 5 -24 49
c-18 35 -21 51 -13 54 7 2 22 23 34 45 11 23 47 77 78 119 65 86 93 157 94
238 0 81 -12 127 -43 163 -15 17 -35 53 -45 79 -44 118 -192 183 -397 176 -98
-3 -112 -6 -175 -38 -109 -56 -167 -156 -132 -227 9 -19 13 -53 10 -105 -4
-74 -6 -79 -48 -128 -50 -59 -54 -83 -20 -119 19 -21 26 -45 36 -116 13 -103
34 -154 70 -172 14 -7 55 -13 92 -13 l68 0 21 -42 c13 -25 17 -44 11 -46 -32
-10 -103 -67 -124 -100 -33 -52 -51 -96 -104 -262 -26 -80 -49 -150 -51 -156
-2 -6 7 -25 21 -41 23 -27 24 -34 15 -62 -6 -17 -14 -31 -18 -31 -17 0 -61 59
-67 90 -11 54 -31 96 -65 134 -17 20 -29 39 -27 43 1 5 25 47 51 95 40 73 46
91 37 108 -22 42 -47 24 -106 -76 l-56 -95 -37 5 c-41 7 -78 -9 -95 -39 -6
-11 -21 -33 -33 -48 -13 -16 -23 -39 -23 -52 0 -13 -4 -27 -10 -30 -5 -3 -10
-15 -10 -26 0 -10 -7 -19 -15 -19 -18 0 -18 -2 -5 75 5 33 16 138 25 233 18
204 11 286 -40 487 -19 72 -59 227 -90 345 -63 245 -101 336 -169 398 -25 23
-46 51 -48 64 -3 25 -77 67 -152 89 -21 6 -55 21 -75 34 -20 13 -50 26 -68 30
l-31 6 29 64 c47 104 67 198 74 349 6 110 11 146 26 170 23 37 25 98 5 134 -8
15 -18 45 -21 66 -7 40 -53 96 -80 96 -8 0 -24 14 -36 31 -25 35 -73 59 -121
59 -18 1 -44 7 -58 15 -30 17 -107 19 -135 3z m136 -37 c21 -11 46 -17 58 -14
29 7 77 -14 95 -42 9 -13 33 -33 55 -45 40 -23 61 -54 61 -93 1 -12 7 -33 15
-47 16 -28 20 -96 6 -104 -5 -3 -12 9 -15 27 -3 18 -15 49 -26 70 -11 20 -20
46 -20 58 0 28 -24 19 -28 -12 -8 -49 -39 -65 -44 -22 -4 34 -28 43 -28 11 0
-28 -17 -53 -42 -61 -14 -5 -18 -1 -18 20 0 26 -34 73 -53 73 -5 0 -7 -13 -3
-30 3 -16 1 -30 -4 -30 -5 0 -25 14 -43 30 -19 17 -37 30 -41 30 -3 0 -6 -16
-6 -35 0 -43 -9 -44 -55 -4 -24 21 -36 27 -38 17 -2 -7 -12 -37 -21 -66 -10
-30 -15 -56 -13 -58 9 -9 38 29 44 57 5 26 7 27 27 14 36 -23 86 -23 86 0 0
14 3 14 30 0 33 -17 50 -13 50 11 0 8 5 12 11 9 6 -4 7 -19 4 -35 -9 -39 23
-49 70 -21 19 11 42 18 50 14 9 -3 25 3 35 12 19 17 20 17 35 -19 9 -20 18
-72 22 -115 l6 -77 -34 4 c-38 4 -89 -12 -89 -28 0 -6 22 -7 58 -4 l57 6 -3
-88 c-4 -139 -79 -356 -137 -402 -69 -55 -228 -2 -326 107 -43 48 -49 52 -49
31 0 -31 77 -105 153 -149 66 -37 154 -51 208 -32 18 6 34 9 37 7 8 -9 -23
-110 -43 -140 -41 -60 -212 -86 -321 -49 -132 45 -220 159 -147 192 21 10 28
9 34 -1 7 -10 11 -10 21 0 10 10 13 56 13 175 l0 162 -32 3 c-69 7 -119 149
-68 192 19 16 45 0 64 -41 30 -63 81 -46 81 26 0 30 6 47 21 61 18 16 20 25
14 59 -4 22 -7 57 -6 79 1 34 -1 37 -15 25 -13 -11 -15 -25 -10 -76 6 -56 4
-63 -14 -73 -16 -9 -20 -21 -20 -60 0 -28 -3 -50 -7 -50 -5 0 -17 17 -28 38
-25 47 -73 56 -111 21 l-23 -22 -11 29 c-7 16 -8 43 -5 59 4 17 6 59 5 94 -1
55 2 67 24 90 13 14 29 44 35 67 12 46 34 69 73 79 15 4 34 18 43 32 21 31 78
56 114 49 14 -3 37 1 51 9 35 20 89 18 131 -4z m-331 -736 c0 -30 -15 -33 -30
-6 -14 27 -13 31 10 31 15 0 20 -7 20 -25z m569 -259 c15 -8 33 -21 40 -29 6
-8 28 -18 49 -22 43 -8 137 -49 146 -64 4 -6 -7 -66 -23 -133 -36 -147 -83
-383 -106 -528 -41 -269 -32 -239 -76 -257 -22 -8 -44 -24 -50 -34 -8 -16 -21
-19 -76 -19 -58 0 -65 2 -60 18 3 9 28 82 55 162 57 165 66 200 53 200 -5 0
-17 -24 -25 -52 -8 -29 -37 -114 -64 -188 l-49 -135 -127 -3 c-69 -1 -126 0
-126 3 0 3 29 54 65 114 60 99 121 228 113 237 -2 2 -33 -47 -68 -109 -77
-136 -157 -257 -170 -257 -16 0 -154 -125 -180 -163 -19 -27 -44 -43 -122 -76
-54 -22 -103 -41 -109 -41 -14 0 0 43 17 53 12 7 9 16 -11 51 -31 53 -31 83
-3 143 l22 47 8 -39 c7 -32 5 -42 -8 -52 -15 -11 -14 -13 9 -24 22 -10 32 -8
69 14 92 54 233 220 405 477 196 293 302 503 334 658 14 66 21 72 68 48z
m-651 -122 c18 -33 91 -95 137 -115 87 -38 223 -43 309 -10 16 7 31 10 33 7
11 -11 -115 -233 -230 -406 -105 -157 -246 -350 -256 -350 -7 0 -47 126 -78
243 -9 37 -21 67 -26 67 -20 0 31 -209 73 -302 11 -23 9 -30 -16 -64 -16 -21
-51 -55 -79 -77 l-49 -39 -8 28 c-4 16 -15 171 -23 344 -17 342 -23 410 -34
391 -4 -7 -6 -80 -4 -164 5 -170 -1 -174 -42 -27 -30 105 -52 143 -40 70 11
-68 33 -146 59 -214 14 -33 27 -94 31 -135 l7 -73 -23 7 c-84 26 -215 113
-299 199 -45 47 -53 59 -44 74 30 48 126 218 169 298 97 183 132 216 298 280
l112 43 6 -27 c3 -15 11 -36 17 -48z m2192 -68 c105 -25 189 -87 211 -155 7
-20 26 -53 43 -75 30 -37 31 -42 31 -135 0 -108 -11 -139 -90 -241 -23 -30
-52 -74 -64 -97 -24 -48 -36 -53 -46 -22 -4 12 -13 18 -20 15 -15 -6 -30 9
-39 41 -5 15 3 36 24 69 37 59 41 116 8 151 -29 32 -79 31 -109 -2 -36 -37
-49 -32 -49 21 0 34 -6 54 -24 75 -14 16 -28 49 -32 74 -7 49 -18 58 -27 23
-6 -21 -7 -21 -26 -4 -11 10 -28 38 -37 62 -9 24 -20 44 -25 44 -5 0 -13 -19
-20 -42 -10 -40 -12 -41 -25 -23 -8 11 -20 39 -26 63 -6 23 -14 42 -18 42 -12
0 -58 -57 -65 -81 -11 -35 -28 -5 -21 35 12 64 89 133 179 162 55 17 197 17
267 0z m-332 -248 c18 -22 51 -23 58 -3 5 11 12 7 30 -15 14 -16 33 -32 44
-35 10 -3 22 -16 26 -28 4 -12 15 -33 25 -46 12 -15 19 -40 19 -67 0 -36 5
-47 25 -60 25 -17 27 -16 59 15 81 78 134 -20 60 -109 -21 -24 -34 -31 -58
-30 -46 3 -50 1 -36 -15 7 -8 25 -15 40 -15 22 0 30 -7 42 -39 11 -27 23 -40
38 -43 18 -2 27 -15 41 -55 10 -29 25 -65 34 -80 l16 -28 -79 -82 c-92 -94
-127 -115 -196 -117 l-51 -1 -3 34 c-3 30 -1 33 11 22 12 -9 16 -9 20 1 5 14
-39 147 -54 162 -17 19 -9 32 31 50 22 10 45 26 50 37 14 25 8 24 -38 -4 -20
-13 -52 -29 -71 -35 -48 -17 -142 -15 -168 3 -21 14 -24 25 -38 107 l-6 37 52
3 c74 4 76 26 2 24 l-58 -1 -3 40 c-2 30 -10 46 -34 66 l-31 26 40 44 c55 60
63 79 63 142 0 55 20 128 42 154 10 12 14 10 26 -14 8 -15 21 -36 30 -45z
m-3085 -142 c23 -14 68 -31 99 -39 58 -15 129 -62 149 -98 19 -35 164 -96 301
-124 82 -18 102 -27 145 -68 18 -17 35 -28 39 -25 10 11 -16 48 -55 76 -32 24
-37 31 -30 50 9 23 10 22 66 -23 31 -26 85 -63 120 -83 35 -20 63 -41 63 -47
0 -7 -18 -38 -41 -71 -85 -122 -116 -141 -196 -120 -72 19 -164 66 -278 141
-55 37 -102 68 -104 71 -2 2 2 10 9 19 21 26 3 29 -34 6 -50 -31 -289 -84
-343 -76 -65 10 -51 35 20 35 40 0 107 18 107 29 0 17 -13 18 -66 5 -30 -7
-89 -16 -131 -19 -62 -6 -75 -5 -71 6 3 9 35 19 85 26 45 7 93 17 107 23 35
13 34 34 -1 26 -16 -3 -68 -12 -118 -20 -49 -8 -97 -17 -106 -21 -22 -8 -33 9
-15 24 8 6 40 17 72 23 105 19 164 38 164 52 0 11 -10 11 -57 0 -92 -21 -173
-32 -178 -24 -8 13 19 27 75 39 66 14 239 67 259 80 22 14 3 47 -39 66 -47 21
-80 50 -80 70 0 21 15 19 63 -9z m3698 -544 l22 -19 -37 -6 c-46 -7 -122 -51
-136 -78 -10 -17 -4 -16 42 10 29 16 74 35 100 41 42 11 52 10 92 -9 24 -12
52 -33 60 -46 18 -27 15 -30 -15 -14 -11 5 -42 10 -69 11 -89 0 -171 -67 -222
-182 -46 -105 -89 -355 -87 -509 1 -87 15 -36 34 124 30 247 71 381 142 464
62 73 155 93 211 46 71 -59 98 -179 103 -455 l4 -185 -125 1 c-93 1 -145 7
-204 23 -44 11 -81 23 -83 25 -2 2 2 37 10 77 36 178 44 279 20 256 -7 -8 -63
-301 -63 -334 0 -16 8 -25 26 -29 20 -5 24 -11 21 -28 -3 -11 -11 -52 -18 -89
l-13 -69 -95 7 c-53 4 -98 9 -100 11 -2 2 8 55 23 116 83 353 96 412 93 422
-8 19 -28 -44 -68 -209 -72 -296 -81 -325 -97 -325 -33 0 -148 23 -179 36 -58
25 -55 51 20 199 199 392 272 519 360 625 82 98 173 135 228 92z m-1749 -9
c26 -29 56 -96 72 -160 9 -34 16 -63 16 -65 0 -6 -152 23 -242 46 l-67 17 -52
-35 c-28 -20 -63 -39 -78 -43 -14 -3 -39 -17 -54 -30 -25 -20 -77 -32 -77 -17
0 3 11 20 25 38 40 53 29 64 -18 18 -42 -41 -70 -52 -82 -32 -3 5 10 33 30 62
19 29 35 56 35 60 0 21 -23 3 -61 -47 -42 -56 -70 -68 -77 -32 -2 10 15 46 37
81 45 69 48 76 26 76 -8 0 -15 -3 -15 -7 0 -12 -188 -203 -200 -203 -38 0 45
125 146 219 l76 71 272 0 c247 0 274 -2 288 -17z m-1318 -154 c108 -71 198
-134 201 -138 2 -5 -29 -23 -70 -41 l-74 -32 -168 114 c-190 129 -200 143
-144 198 16 17 36 30 45 30 8 0 103 -59 210 -131z m2559 51 c-5 -40 -2 -54 12
-70 20 -22 76 -27 121 -10 15 6 28 9 30 7 2 -2 -15 -34 -37 -73 -23 -38 -86
-156 -141 -262 -55 -106 -102 -192 -103 -190 -2 2 1 86 6 187 5 101 7 186 4
189 -11 11 -17 -10 -26 -104 -17 -166 -20 -184 -28 -184 -4 0 -25 15 -46 33
l-39 34 57 174 c31 96 67 192 79 214 19 31 97 105 113 105 2 0 1 -23 -2 -50z
m-2875 -12 c-3 -35 -5 -36 -133 -64 -99 -21 -252 -41 -376 -50 -103 -6 -108
-6 -143 19 l-38 25 69 11 c37 6 122 18 188 26 174 23 398 55 410 60 22 8 26 4
23 -27z m-777 -41 c19 -13 104 -77 189 -143 86 -65 249 -188 364 -273 l208
-154 -29 -12 c-39 -17 -81 -68 -89 -110 l-6 -34 -112 88 c-61 48 -223 174
-361 280 -137 107 -262 205 -277 219 -49 45 -31 119 36 148 40 17 38 18 77 -9z
m960 -114 c77 -53 142 -100 145 -105 3 -4 -7 -13 -23 -19 -66 -25 -93 -42 -93
-59 0 -30 26 -31 114 -3 l85 26 83 -57 c46 -32 127 -88 181 -124 53 -37 92
-68 85 -70 -7 -2 -51 -19 -98 -37 -49 -19 -147 -45 -230 -60 -167 -31 -252
-56 -332 -96 -71 -36 -75 -36 -49 -3 27 35 27 93 1 127 -12 15 -89 77 -173
139 -187 139 -439 328 -450 338 -4 4 59 12 140 19 128 11 417 61 431 76 16 16
57 -5 183 -92z m-1131 23 c0 -19 8 -43 18 -54 9 -11 109 -92 222 -179 113 -87
284 -220 380 -295 242 -187 247 -191 292 -185 20 3 86 28 146 56 94 43 136 56
307 91 115 23 223 52 258 67 32 15 73 26 90 25 18 0 56 -2 86 -3 50 -3 56 -1
88 34 20 22 39 35 46 31 7 -4 40 -28 75 -53 46 -33 59 -47 48 -53 -8 -4 -67
-22 -132 -38 -326 -85 -522 -135 -759 -195 -143 -36 -275 -70 -292 -76 -32
-10 -36 -8 -300 203 -375 299 -744 591 -772 610 l-23 17 33 6 c76 14 135 23
162 24 24 1 27 -2 27 -33z m1770 27 c-1 -20 -29 -34 -205 -100 -269 -101 -307
-114 -312 -110 -4 5 34 21 332 147 161 68 185 76 185 63z m1700 0 c0 -12 -151
-273 -162 -279 -23 -14 -12 10 64 144 71 124 98 161 98 135z m-3433 -264 c259
-207 662 -526 740 -587 42 -33 42 -34 36 -80 -3 -26 -8 -49 -10 -51 -2 -3 -18
9 -36 26 -17 16 -205 167 -417 334 -212 167 -430 340 -485 384 l-100 80 -3 54
c-2 33 1 52 7 50 6 -2 127 -97 268 -210z m1656 45 c114 -75 128 -87 111 -96
-36 -20 -63 -50 -69 -79 -4 -16 -9 -29 -12 -29 -13 0 -323 223 -318 228 5 5
138 58 154 61 2 1 63 -38 134 -85z m1594 40 c19 -5 21 -9 12 -26 -6 -11 -16
-17 -23 -15 -10 4 -15 -10 -19 -50 -3 -30 -9 -58 -12 -61 -13 -13 -25 25 -25
80 0 44 4 59 18 67 20 12 21 12 49 5z m133 -88 c16 -25 35 -67 42 -95 13 -60
25 -73 124 -147 72 -55 80 -66 68 -97 -4 -12 -13 -8 -42 19 -20 19 -48 37 -62
40 -14 3 -45 12 -69 20 -25 8 -57 14 -71 14 -20 0 -40 14 -74 50 -26 28 -46
56 -43 63 5 18 47 21 47 4 0 -23 40 -67 61 -67 10 0 19 5 19 10 0 6 -4 10 -10
10 -15 0 -50 38 -50 55 0 8 9 15 20 15 11 0 20 5 20 10 0 6 -23 10 -50 10 -36
0 -52 4 -57 15 -8 22 -4 24 66 38 62 13 72 27 20 27 -27 0 -28 2 -17 25 6 14
15 25 19 25 4 0 22 -20 39 -44z m-230 -25 c0 -15 9 -40 21 -55 17 -21 18 -26
5 -26 -9 0 -22 13 -31 30 -17 33 -20 80 -5 80 6 0 10 -13 10 -29z m-1318 -58
c28 -25 23 -70 -11 -104 -16 -16 -35 -29 -42 -29 -6 0 0 9 14 20 32 25 41 53
27 80 -12 22 -40 26 -58 8 -20 -20 -14 -29 14 -22 22 6 25 4 22 -12 -4 -25
-48 -47 -65 -32 -35 29 14 103 71 107 5 1 18 -6 28 -16z m1401 -29 c-4 -10 -9
-12 -15 -6 -12 12 -1 35 12 27 5 -3 6 -13 3 -21z m-259 2 c55 -8 127 -17 159
-21 52 -6 70 -16 50 -28 -5 -3 -33 -1 -63 3 -30 4 -95 13 -145 20 -109 14
-127 19 -120 31 8 11 -1 12 119 -5z m634 -44 c20 -15 23 -26 20 -65 l-3 -48
-33 28 c-31 26 -33 32 -27 66 8 42 11 43 43 19z m-587 -17 c59 -8 117 -15 130
-15 17 0 51 -27 114 -90 81 -81 87 -90 63 -90 -14 0 -48 9 -74 21 -51 21 -88
19 -98 -6 -8 -21 47 -129 76 -149 12 -9 18 -16 12 -16 -5 0 -95 83 -199 185
-158 155 -185 185 -160 180 17 -3 78 -12 136 -20z m297 -87 c56 -57 97 -105
91 -107 -14 -4 -199 179 -199 196 0 7 2 13 3 13 2 0 50 -46 105 -102z m-2371
-41 c23 -50 -44 -124 -80 -88 -17 17 5 47 32 44 25 -3 27 9 6 27 -19 16 -40 8
-60 -24 -22 -33 -11 -64 28 -81 l32 -14 -37 -1 c-62 0 -84 40 -53 100 31 61
111 83 132 37z m2513 2 c54 -16 76 -31 130 -83 36 -35 81 -69 100 -75 56 -19
187 -40 321 -51 68 -5 136 -13 152 -16 35 -8 36 13 1 26 -22 9 -26 15 -21 39
3 15 9 51 13 80 4 28 11 54 16 57 4 3 39 -1 76 -9 37 -9 95 -18 129 -22 l61
-7 -34 -130 c-36 -134 -76 -229 -113 -262 -18 -17 -31 -18 -103 -13 -96 7
-201 36 -416 114 l-153 55 -93 -11 c-98 -13 -148 -8 -140 13 3 8 -13 20 -41
30 -25 10 -45 22 -45 27 0 5 11 4 26 -1 34 -13 57 -13 52 2 -2 6 -27 19 -55
29 -55 18 -103 46 -103 60 0 4 19 0 43 -10 61 -27 107 -34 107 -17 0 8 -20 19
-47 25 -60 15 -133 57 -133 76 0 19 -1 19 60 -5 83 -33 220 -23 220 17 0 7 -6
13 -13 13 -7 0 -28 16 -47 35 -39 41 -37 41 50 14z m-1410 -21 c0 -7 -5 -29
-10 -49 -9 -31 -15 -37 -53 -46 -23 -6 -224 -58 -447 -118 -537 -142 -744
-195 -747 -191 -6 6 15 88 24 96 4 4 118 35 253 69 274 70 506 129 780 201
217 56 200 53 200 38z m2457 -120 c-1 -46 4 -117 12 -158 16 -86 12 -116 -23
-153 -23 -25 -71 -45 -82 -35 -2 3 7 25 21 49 43 75 29 90 -17 19 -35 -53 -54
-70 -99 -93 -64 -32 -140 -43 -223 -32 -48 5 -55 9 -45 21 10 13 -3 14 -98 8
-97 -6 -114 -5 -142 12 -37 22 -38 30 -7 66 l24 27 90 -29 c136 -45 209 -60
294 -60 75 0 78 1 112 34 40 40 84 148 116 281 31 128 29 125 50 125 18 0 19
-7 17 -82z m-1253 -117 c20 -5 53 -24 72 -41 20 -17 48 -36 63 -42 24 -9 162
-4 204 8 15 5 17 1 11 -34 -7 -44 14 -95 46 -112 26 -14 27 -50 0 -50 -10 0
-34 -13 -52 -29 -18 -16 -49 -32 -68 -35 -111 -22 -330 -90 -433 -135 -27 -12
-51 -21 -53 -21 -2 0 -4 151 -4 336 l0 337 89 -86 c60 -57 101 -89 125 -96z
m463 -107 c38 -15 72 -30 77 -35 4 -4 0 -19 -10 -33 -16 -21 -27 -25 -65 -26
-47 0 -68 14 -82 53 -7 17 0 67 9 67 2 0 34 -12 71 -26z m49 -145 c3 -6 27
-20 52 -31 36 -16 57 -19 106 -14 42 5 76 2 111 -8 90 -28 256 -15 310 24 6 4
34 10 63 13 39 5 52 3 52 -7 0 -21 -20 -33 -90 -52 -101 -28 -392 -25 -518 4
-106 25 -152 46 -152 67 0 18 55 21 66 4z"/>
<path d="M5225 4330 c28 -12 117 -12 135 0 10 7 -12 10 -70 9 -57 0 -78 -3
-65 -9z"/>
<path d="M4910 4286 c6 -8 18 -12 27 -9 12 5 12 7 1 14 -7 5 -19 9 -27 9 -11
0 -11 -3 -1 -14z"/>
<path d="M5135 4291 c-3 -6 0 -11 7 -11 7 -1 45 -5 83 -10 76 -10 204 5 187
22 -5 5 -28 4 -58 -2 -44 -10 -114 -8 -186 6 -14 3 -29 0 -33 -5z"/>
<path d="M5107 4210 c-38 -7 -66 -25 -55 -36 3 -3 22 -1 42 5 20 5 61 7 91 4
39 -4 55 -2 55 6 0 20 -73 32 -133 21z"/>
<path d="M5317 4163 c-3 -4 2 -50 11 -101 14 -82 14 -94 2 -102 -8 -5 -22 -8
-30 -5 -49 14 -70 16 -70 8 0 -15 47 -33 83 -33 61 0 68 27 41 151 -16 74 -27
98 -37 82z"/>
<path d="M5147 4143 c-15 -15 -7 -43 13 -43 15 0 20 7 20 25 0 24 -18 34 -33
18z"/>
<path d="M5387 4144 c-15 -15 -7 -45 11 -42 9 2 17 12 17 22 0 20 -16 31 -28
20z"/>
<path d="M5163 4068 c-20 -10 -32 -28 -18 -28 12 0 55 24 55 32 0 10 -9 9 -37
-4z"/>
<path d="M5380 4060 c0 -5 7 -10 16 -10 8 0 12 5 9 10 -3 6 -10 10 -16 10 -5
0 -9 -4 -9 -10z"/>
<path d="M4970 4029 c0 -8 14 -28 30 -44 39 -37 39 -15 0 27 -20 22 -30 28
-30 17z"/>
<path d="M5136 3907 c-26 -34 -35 -77 -16 -77 6 0 10 8 10 18 0 9 9 32 21 51
27 45 17 51 -15 8z"/>
<path d="M5187 3873 c-25 -6 -17 -35 13 -51 36 -19 129 -10 147 14 7 10 12 23
10 29 -4 10 -137 17 -170 8z m108 -34 c-17 -5 -42 -5 -60 0 -25 8 -21 9 30 9
50 0 55 -1 30 -9z"/>
<path d="M5230 3770 c0 -5 18 -10 40 -10 22 0 40 5 40 10 0 6 -18 10 -40 10
-22 0 -40 -4 -40 -10z"/>
<path d="M5177 3583 c-29 -40 -29 -47 -3 -37 14 6 46 52 46 69 0 15 -20 1 -43
-32z"/>
<path d="M5459 3635 c-4 -5 -10 -30 -14 -55 -28 -185 -97 -422 -184 -635 -44
-105 -52 -141 -27 -115 42 46 161 384 207 586 26 119 37 249 18 219z"/>
<path d="M5569 3475 c-4 -5 -14 -57 -24 -115 -9 -58 -29 -170 -46 -250 -32
-157 -34 -174 -20 -166 9 6 14 24 46 176 42 193 66 390 44 355z"/>
<path d="M4766 3433 c17 -73 139 -282 188 -322 37 -31 25 2 -23 66 -28 37 -75
116 -104 175 -51 105 -74 135 -61 81z"/>
<path d="M6592 3178 c3 -7 18 -15 35 -19 17 -3 41 -13 54 -22 29 -21 39 -21
39 -2 0 8 -15 24 -32 35 -37 22 -102 28 -96 8z"/>
<path d="M6614 3096 c-8 -22 3 -49 19 -43 6 2 12 14 12 27 0 27 -22 39 -31 16z"/>
<path d="M3640 2950 c0 -20 52 -60 87 -66 53 -10 63 11 11 24 -24 6 -53 20
-65 32 -25 22 -33 25 -33 10z"/>
<path d="M6987 2313 c-49 -81 -100 -193 -168 -371 -56 -145 -71 -198 -50 -176
5 5 44 95 86 199 42 105 101 237 131 294 59 115 58 111 45 111 -5 0 -25 -26
-44 -57z"/>
<path d="M3855 2308 c-22 -5 -57 -14 -78 -19 -21 -6 -35 -14 -31 -20 3 -5 13
-8 22 -5 10 2 52 12 95 21 42 9 77 21 77 26 0 11 -33 10 -85 -3z"/>
<path d="M3565 2253 c-82 -15 -93 -18 -82 -30 6 -5 124 11 170 23 16 5 15 25
-1 23 -4 -1 -43 -8 -87 -16z"/>
<path d="M3933 2259 c-18 -5 -33 -14 -33 -19 0 -12 -2 -12 60 1 27 6 50 15 50
20 0 11 -34 10 -77 -2z"/>
<path d="M3665 2206 c-57 -12 -98 -25 -95 -31 6 -12 -2 -13 140 15 63 12 119
26 125 31 16 15 -64 8 -170 -15z"/>
<path d="M4022 2210 c-12 -5 -100 -25 -194 -45 -95 -19 -177 -40 -182 -45 -16
-16 19 -12 189 24 201 43 245 54 245 66 0 12 -27 12 -58 0z"/>
<path d="M3988 2134 c-27 -8 -48 -19 -48 -24 0 -13 -3 -13 58 5 29 9 52 20 52
25 0 12 -4 12 -62 -6z"/>
<path d="M3777 2086 c-47 -13 -64 -22 -56 -30 6 -6 156 27 165 37 11 11 -56 7
-109 -7z"/>
<path d="M3960 2046 c0 -9 7 -12 20 -9 31 8 34 23 6 23 -16 0 -26 -6 -26 -14z"/>
<path d="M4175 2038 c-22 -5 -80 -18 -130 -29 -118 -27 -186 -49 -180 -58 6
-10 365 80 365 91 0 9 0 9 -55 -4z"/>
<path d="M3832 2030 c-42 -10 -66 -30 -35 -30 28 0 83 20 83 31 0 10 -2 10
-48 -1z"/>
<path d="M4277 1995 c-50 -14 -64 -21 -55 -30 8 -8 148 26 148 36 0 12 -35 10
-93 -6z"/>
<path d="M4307 1932 c-56 -17 -84 -29 -78 -35 7 -7 38 -2 88 12 43 13 86 25
96 28 9 2 17 9 17 14 0 13 -24 9 -123 -19z"/>
<path d="M4020 1929 c-41 -11 -79 -24 -84 -29 -15 -15 21 -13 80 4 27 8 67 17
89 21 22 3 47 10 55 15 26 17 -59 10 -140 -11z"/>
<path d="M4046 1866 c-40 -12 -67 -43 -30 -33 11 3 40 10 67 17 26 7 50 17 53
21 7 12 -43 9 -90 -5z"/>
<path d="M4465 1730 c-214 -54 -437 -111 -495 -125 -103 -26 -130 -38 -117
-51 9 -9 1024 247 1046 263 36 27 -54 9 -434 -87z"/>
<path d="M2950 3609 c0 -32 -17 -56 -45 -63 -33 -8 -32 -19 5 -33 22 -8 32
-20 36 -42 8 -40 17 -39 33 4 9 27 20 37 42 42 38 7 37 22 -1 29 -24 5 -32 14
-42 45 -12 42 -28 52 -28 18z m26 -70 c10 -17 -13 -36 -27 -22 -12 12 -4 33
11 33 5 0 12 -5 16 -11z"/>
<path d="M3235 3481 c-19 -67 -38 -87 -92 -97 -50 -9 -48 -21 6 -39 59 -19 71
-32 86 -93 7 -26 16 -46 21 -44 5 1 14 22 21 47 15 60 25 71 84 90 27 9 47 20
44 24 -2 5 -25 14 -51 21 -49 14 -68 35 -79 90 -14 67 -22 67 -40 1z m36 -50
c6 -16 25 -36 45 -47 l34 -19 -34 -17 c-18 -9 -39 -31 -46 -48 l-12 -30 -17
32 c-9 18 -30 40 -48 49 l-32 16 33 16 c19 9 38 28 46 46 15 38 18 38 31 2z"/>
<path d="M3050 3151 c-8 -33 -17 -42 -45 -51 -36 -12 -39 -30 -6 -30 23 0 51
-31 51 -57 0 -36 12 -33 34 10 13 26 30 44 44 47 30 7 33 24 5 28 -25 4 -53
37 -53 64 0 34 -19 27 -30 -11z m34 -83 c-13 -14 -20 -15 -31 -7 -16 14 -17
31 -1 47 9 9 16 8 30 -5 17 -15 17 -17 2 -35z"/>
<path d="M5740 2497 c0 -3 9 -33 19 -68 21 -70 43 -178 61 -306 16 -107 35
-111 26 -6 -14 148 -68 361 -97 378 -5 4 -9 4 -9 2z"/>
<path d="M5315 2158 c-111 -333 -233 -608 -353 -798 -33 -52 -58 -97 -55 -100
13 -13 98 111 187 273 55 101 150 336 216 535 76 230 84 262 71 262 -4 0 -34
-78 -66 -172z"/>
<path d="M4755 2204 c-76 -57 -90 -83 -27 -50 30 16 98 83 91 90 -2 3 -31 -16
-64 -40z"/>
<path d="M5088 2150 c-8 -14 -37 -61 -63 -105 -26 -44 -56 -91 -66 -104 -21
-26 -24 -41 -10 -41 24 0 167 237 159 262 -3 8 -11 3 -20 -12z"/>
<path d="M5840 1820 c0 -156 51 -648 71 -679 12 -20 10 8 -20 349 -29 327 -30
340 -42 340 -5 0 -9 -5 -9 -10z"/>
<path d="M3735 1278 c-3 -8 -4 -105 -3 -217 2 -153 6 -205 16 -209 15 -5 18
423 2 433 -6 3 -12 0 -15 -7z"/>
<path d="M6500 1095 c0 -9 83 -45 103 -45 32 0 17 15 -32 33 -50 18 -71 21
-71 12z"/>
<path d="M6745 995 c-277 -72 -328 -85 -350 -85 -13 0 -27 -5 -31 -12 -14 -22
139 1 281 43 130 39 149 42 260 43 101 0 129 -4 175 -22 61 -24 70 -26 70 -14
0 12 -63 39 -130 57 -78 21 -171 18 -275 -10z"/>
</g>
</svg>
