<?xml version="1.0" standalone="no"?>
<!DOCTYPE svg PUBLIC "-//W3C//DTD SVG 20010904//EN"
 "http://www.w3.org/TR/2001/REC-SVG-20010904/DTD/svg10.dtd">
<svg version="1.0" xmlns="http://www.w3.org/2000/svg"
 width="1024.000000pt" height="559.000000pt" viewBox="0 0 1024.000000 559.000000"
 preserveAspectRatio="xMidYMid meet">
<metadata>
Created by potrace 1.16, written by Peter Selinger 2001-2019
</metadata>
<g transform="translate(0.000000,559.000000) scale(0.100000,-0.100000)"
fill="#000000" stroke="none">
<path d="M6535 4732 l-60 -17 -3 -187 -2 -187 -38 -22 c-20 -13 -68 -53 -107
-89 -63 -60 -77 -68 -140 -83 -38 -9 -86 -16 -105 -16 -19 0 -125 -1 -235 -3
-181 -3 -200 -5 -203 -20 -3 -14 -14 -18 -50 -18 -85 0 -226 -22 -262 -40 -51
-27 -120 -99 -127 -133 -3 -16 -11 -30 -17 -32 -6 -1 -76 -21 -156 -43 -216
-60 -471 -119 -590 -137 -152 -22 -188 -31 -355 -87 -214 -71 -323 -96 -503
-117 -162 -20 -233 -40 -256 -72 -10 -15 -50 -25 -202 -49 -242 -39 -373 -64
-504 -95 -58 -14 -154 -37 -215 -51 -257 -59 -390 -107 -448 -162 -70 -66 -97
-190 -77 -348 6 -53 10 -97 8 -98 -2 -2 -37 -11 -78 -22 l-75 -19 3 -460 2
-460 42 -37 c23 -20 57 -45 75 -55 31 -17 35 -16 102 5 38 12 74 29 80 36 10
11 134 -68 664 -422 359 -239 680 -455 715 -479 l62 -44 0 -73 c0 -82 2 -85
104 -152 l58 -38 97 33 c53 19 102 38 108 44 10 7 13 92 15 339 l3 331 140 47
c77 26 314 105 526 175 353 117 388 127 403 113 19 -19 30 -16 231 61 72 27
171 62 220 76 50 15 186 58 304 96 117 39 270 83 340 99 339 79 526 135 736
222 233 97 280 114 392 138 116 24 241 63 303 93 42 20 45 25 45 60 0 35 4 40
34 53 19 8 44 15 56 16 12 1 97 -32 191 -74 93 -42 225 -101 294 -131 l125
-55 5 -58 5 -59 65 -33 c74 -37 104 -38 183 -2 l47 21 0 132 c0 73 5 312 10
532 30 1201 30 1169 13 1187 -9 10 -20 18 -24 18 -11 0 -440 198 -989 455
-764 358 -889 415 -910 414 -8 0 -42 -8 -75 -17z m175 -53 c0 -4 -22 -12 -49
-19 -44 -10 -54 -9 -96 10 -26 12 -45 23 -42 26 2 2 24 10 48 17 39 12 49 11
92 -7 26 -11 47 -23 47 -27z m-155 -26 l55 -27 0 -106 0 -106 -55 -27 c-31
-15 -58 -27 -60 -27 -3 0 -5 72 -5 160 0 88 2 160 5 160 2 0 29 -12 60 -27z
m404 -84 c119 -55 220 -105 225 -110 13 -12 -27 -12 -40 0 -17 17 -69 21 -94
8 -23 -12 -40 -6 -205 72 -99 46 -184 87 -188 91 -7 6 48 32 82 39 2 1 101
-44 220 -100z m-20 -96 l75 -35 -40 -14 c-35 -12 -44 -12 -94 8 -30 12 -66 30
-79 40 -36 27 -73 22 -122 -16 -23 -19 -47 -32 -51 -30 -9 6 -11 178 -2 187 3
3 58 -20 122 -50 65 -30 150 -71 191 -90z m-150 -26 c9 -8 42 -24 74 -37 56
-22 58 -24 51 -54 -8 -39 -44 -79 -111 -122 -29 -19 -54 -34 -56 -34 -3 0 -7
12 -10 28 -3 15 -13 36 -22 47 -15 19 -15 18 -2 -10 27 -55 24 -70 -27 -139
-26 -36 -52 -66 -58 -66 -5 0 -26 9 -48 20 -22 11 -45 20 -52 20 -7 0 13 -12
44 -26 l57 -26 -26 -42 c-15 -23 -28 -58 -29 -80 -1 -34 -15 -55 -36 -56 -4 0
-34 26 -67 58 -33 33 -88 79 -122 103 -119 85 -118 66 -9 172 84 81 112 100
227 160 72 37 136 74 143 82 15 19 58 19 79 2z m350 -11 c8 -10 24 -12 52 -9
33 5 44 1 65 -18 15 -13 30 -33 34 -45 5 -13 21 -24 40 -27 23 -5 34 -15 46
-42 8 -20 12 -40 9 -46 -4 -5 7 -22 24 -38 33 -31 41 -74 21 -112 -8 -14 -7
-25 5 -41 21 -30 19 -50 -7 -84 -14 -17 -21 -38 -20 -55 3 -20 -4 -32 -23 -46
-15 -10 -35 -25 -44 -33 -9 -9 -36 -26 -59 -38 l-42 -22 0 24 c0 37 -33 60
-80 53 -22 -3 -42 -2 -45 2 -5 9 33 45 57 54 9 3 18 18 20 34 2 20 12 32 34
43 29 14 31 18 26 54 -4 32 -1 42 18 56 l22 17 -31 12 c-43 18 -54 36 -53 81
2 38 0 40 -27 40 -38 0 -54 22 -49 65 3 23 1 32 -6 25 -6 -6 -20 -10 -33 -10
-28 0 -42 42 -22 68 7 9 2 7 -12 -5 -14 -13 -34 -23 -45 -23 -10 0 -28 -7 -38
-15 -25 -19 -36 -19 -36 0 0 22 37 55 60 55 11 0 29 9 40 20 23 23 82 27 99 6z
m251 -69 c30 -13 259 -120 508 -236 249 -116 458 -211 464 -211 22 0 -6 -17
-53 -33 l-46 -15 -110 52 c-60 28 -142 67 -183 85 -481 223 -555 261 -567 290
-13 31 -57 71 -79 71 -8 0 -14 2 -14 4 0 2 -3 12 -7 21 -5 14 -3 16 13 7 10
-5 44 -21 74 -35z m-335 -37 c10 -11 25 -20 34 -20 10 0 21 -13 26 -32 7 -21
21 -38 40 -48 22 -11 31 -23 32 -44 2 -31 28 -66 50 -66 16 0 16 -1 -2 -36 -8
-16 -12 -39 -9 -51 4 -15 2 -23 -7 -23 -19 0 -49 -31 -49 -51 0 -10 -10 -24
-22 -30 -27 -14 -57 -49 -58 -66 0 -19 21 -27 65 -24 54 2 74 -18 55 -54 -18
-35 -72 -57 -127 -53 -39 2 -50 8 -60 28 -12 23 -13 24 -19 5 -3 -11 -27 -33
-55 -50 -51 -30 -127 -97 -144 -127 -9 -16 -14 -15 -70 10 -157 71 -267 164
-280 236 -9 46 -3 52 35 36 24 -10 28 -15 19 -26 -17 -21 9 -18 47 5 l32 19
37 -38 c80 -82 252 -133 323 -96 46 24 39 27 -18 10 -44 -13 -56 -13 -98 0
-76 22 -167 72 -197 107 -43 52 -48 74 -26 118 37 71 140 200 183 228 24 15
58 41 76 57 l34 31 32 -38 c17 -21 34 -35 38 -32 11 11 -4 45 -29 65 l-24 19
48 25 c59 31 65 31 88 6z m442 -122 c38 -18 223 -105 413 -193 l344 -162 -3
-224 c-1 -123 -4 -225 -6 -227 -2 -2 -62 27 -135 63 l-132 66 19 22 c48 52
124 180 125 207 1 39 -15 57 -82 89 -30 15 -93 55 -140 90 -95 70 -224 136
-347 177 -69 23 -82 31 -88 53 -4 14 -16 36 -27 49 -28 29 -21 28 59 -10z
m-1272 -88 c-3 -5 -10 -10 -16 -10 -5 0 -9 5 -9 10 0 6 7 10 16 10 8 0 12 -4
9 -10z m1363 -46 c156 -62 178 -74 307 -164 61 -43 126 -84 145 -92 19 -8 41
-23 49 -32 19 -22 1 -61 -79 -171 -127 -174 -243 -253 -477 -323 -54 -17 -122
-39 -150 -51 -59 -23 -63 -22 -153 30 -36 21 -96 50 -135 64 -38 15 -95 40
-126 57 -52 27 -59 35 -87 99 -17 38 -36 69 -41 69 -24 0 -9 31 32 66 l42 37
103 1 c56 0 102 0 102 -2 0 -1 -7 -14 -16 -28 -9 -13 -14 -27 -12 -30 3 -2 19
17 37 44 65 102 177 159 336 172 l90 7 -87 1 -87 2 24 25 c14 13 25 29 25 34
0 10 40 24 120 40 36 7 39 9 15 10 -16 0 -49 -4 -73 -9 -55 -13 -68 -5 -42 27
21 27 27 87 11 112 -8 12 -4 51 6 51 2 0 56 -21 121 -46z m-1808 21 c25 -3
108 -1 185 6 204 17 256 1 422 -132 60 -48 70 -59 58 -69 -31 -26 -12 -107 39
-168 41 -48 170 -129 264 -164 l83 -32 36 -75 c32 -68 36 -85 36 -156 0 -99
-15 -128 -143 -270 -49 -55 -90 -103 -90 -107 0 -5 -6 -8 -12 -8 -7 0 -28 29
-46 64 -18 35 -48 81 -66 102 -40 47 -126 96 -181 104 l-40 6 105 68 c58 37
114 76 125 86 27 23 81 40 163 50 l67 7 -56 2 c-59 1 -149 -21 -171 -42 -16
-16 -98 -56 -98 -49 0 4 24 31 53 61 45 46 47 50 14 26 -20 -15 -51 -46 -67
-69 -17 -22 -61 -61 -98 -86 -48 -32 -68 -52 -70 -70 -5 -38 -60 -89 -101 -95
-66 -10 -115 -27 -216 -72 -149 -67 -247 -101 -269 -93 -17 6 -19 17 -20 97
l-1 90 63 -55 c34 -30 62 -52 62 -48 0 3 -30 36 -67 73 -57 57 -72 79 -91 137
-25 72 -23 89 5 64 55 -47 37 -20 -24 36 -67 62 -133 162 -133 202 0 18 -41
126 -46 121 -2 -2 3 -25 12 -51 9 -26 14 -49 11 -52 -3 -3 -43 32 -90 78 -47
46 -83 80 -81 76 7 -11 -1 -10 -31 4 -27 12 -29 16 -16 37 11 17 34 13 187
-39 l122 -41 12 -45 c7 -24 30 -68 50 -97 21 -29 48 -76 60 -105 26 -61 64
-96 88 -83 11 6 21 3 31 -9 9 -10 37 -20 64 -24 43 -5 49 -3 58 17 6 13 20 27
32 32 20 9 22 17 21 82 -2 66 0 72 20 75 13 2 22 11 24 25 4 31 -125 175 -191
214 -56 31 -145 105 -137 111 24 19 288 117 364 134 l61 14 -64 -3 -64 -3 29
23 c39 31 23 29 -29 -4 -23 -15 -89 -47 -147 -71 -58 -24 -110 -45 -116 -48
-7 -3 -13 20 -18 67 -3 40 -15 92 -26 116 l-19 44 32 -5 c18 -3 52 -8 77 -11z
m-100 -73 c13 -49 13 -149 -1 -158 -7 -4 -39 23 -78 64 -67 72 -100 92 -149
92 -25 -1 -24 -2 9 -14 51 -18 78 -39 129 -100 54 -64 151 -147 237 -201 35
-22 61 -45 58 -52 -2 -7 0 -15 4 -18 5 -2 22 -40 39 -82 35 -88 51 -186 32
-198 -16 -10 -21 -2 -31 52 -5 26 -19 71 -31 98 -26 59 -27 60 -33 53 -3 -3 6
-35 20 -72 29 -77 35 -176 10 -176 -8 0 -17 12 -21 28 -18 78 -28 111 -51 155
-31 61 -40 56 -13 -7 23 -54 50 -163 42 -171 -14 -14 -26 1 -58 73 -47 104
-56 122 -65 122 -3 0 4 -36 18 -81 14 -44 22 -83 20 -86 -12 -11 -30 12 -57
72 -15 34 -44 84 -63 111 -20 28 -40 69 -46 93 -10 48 -22 64 -48 67 -38 5
-160 45 -211 70 -39 19 -62 39 -83 72 -41 65 -38 96 13 145 66 63 113 79 258
86 69 4 128 5 132 3 4 -1 12 -19 18 -40z m2775 -147 c32 -14 56 -28 54 -30 -2
-2 -27 -12 -55 -23 l-51 -19 -59 30 -59 30 48 12 c26 7 50 15 54 18 8 9 2 11
68 -18z m-3201 -83 c20 -22 20 -24 3 -34 -10 -5 -22 -21 -28 -35 -8 -22 -13
-24 -47 -19 -145 24 -336 17 -502 -19 -373 -81 -385 -85 -396 -129 -5 -21 -18
-28 -87 -46 -133 -35 -143 -39 -213 -91 -37 -27 -71 -49 -76 -49 -5 0 -59 -25
-120 -55 l-110 -55 -37 29 c-60 47 -173 113 -226 131 l-49 17 46 11 c26 7 90
17 143 22 200 21 270 37 605 143 92 29 195 54 282 67 125 18 558 122 703 167
l60 19 14 -25 c7 -14 23 -36 35 -49z m3081 22 l58 -27 -7 -341 c-3 -188 -9
-384 -13 -438 l-6 -96 -28 10 c-16 5 -31 13 -33 17 -2 3 2 31 11 61 23 86 12
256 -21 325 -26 51 -26 55 -26 283 0 128 2 232 4 232 2 0 30 -12 61 -26z m181
-311 c-6 -315 -19 -801 -32 -1249 l-7 -232 -36 -11 c-20 -7 -42 -15 -48 -17
-16 -7 -17 234 -3 726 5 184 12 500 16 702 l7 367 41 15 c75 26 70 51 62 -301z
m-1491 217 c3 -5 33 -10 66 -10 39 0 58 -4 54 -10 -4 -6 -28 -11 -53 -11 -26
1 -66 -2 -89 -5 -48 -7 -56 5 -20 29 26 19 34 20 42 7z m-1879 -41 c31 -6 64
-21 85 -38 l34 -29 -65 14 c-36 7 -94 13 -130 12 -71 -1 -70 -1 75 -18 55 -6
103 -10 107 -8 3 2 18 -8 33 -22 l27 -25 -49 -6 -48 -6 58 -1 57 -2 48 -61
c60 -77 120 -176 156 -257 l28 -64 -24 -25 c-12 -14 -41 -39 -62 -54 -21 -16
-35 -29 -30 -29 13 0 53 28 90 62 l31 29 12 -45 c6 -25 11 -77 11 -117 0 -100
-17 -119 -109 -119 -52 0 -77 -6 -119 -27 -64 -32 -133 -91 -161 -137 -16 -25
-36 -39 -83 -56 -35 -12 -97 -40 -139 -60 l-75 -38 -17 63 c-12 46 -15 83 -11
137 5 58 3 87 -11 129 -18 55 -65 128 -106 164 -41 37 -99 138 -124 218 -54
170 -112 249 -218 297 l-61 28 34 7 c19 3 105 22 190 40 290 64 412 73 566 44z
m129 -9 c15 -6 68 -49 119 -96 69 -63 97 -96 107 -126 7 -22 33 -64 56 -93 47
-57 81 -145 103 -270 16 -93 -1 -167 -36 -152 -3 1 -8 37 -11 80 -10 179 -122
397 -294 572 -49 49 -89 91 -89 92 0 6 20 3 45 -7z m725 -147 c0 -7 -6 -13
-14 -13 -11 0 -33 38 -54 95 -2 6 12 -8 32 -30 19 -22 35 -46 36 -52z m-1660
37 c-20 -13 -33 -13 -25 0 3 6 14 10 23 10 15 0 15 -2 2 -10z m113 -50 c61
-39 116 -124 146 -226 13 -44 32 -96 42 -116 23 -46 33 -42 -176 -63 -88 -9
-172 -18 -187 -21 -32 -6 -32 -6 -14 32 8 16 17 40 20 54 3 14 -5 0 -19 -30
-38 -82 -39 -85 -76 -91 -19 -3 -79 -33 -134 -66 -135 -80 -176 -98 -314 -137
-130 -37 -163 -52 -233 -103 -32 -23 -65 -37 -104 -43 -46 -8 -63 -16 -89 -45
-50 -54 -61 -48 -75 44 -15 97 -61 188 -108 212 -40 20 -25 39 31 39 34 0 45
6 81 45 32 34 55 49 103 64 35 10 127 55 205 99 79 45 205 111 280 147 76 36
150 76 165 89 42 35 103 63 174 80 35 9 96 27 134 40 39 14 77 25 86 25 8 1
36 -12 62 -29z m3807 -170 c29 -41 43 -129 38 -245 -5 -112 -22 -156 -66 -178
-35 -18 -156 -59 -432 -148 -124 -39 -232 -74 -240 -77 -8 -3 9 20 39 50 29
31 62 71 73 89 l20 34 -23 -30 c-37 -49 -155 -165 -167 -165 -8 0 -12 22 -12
63 -1 86 -24 205 -49 255 -36 71 -121 121 -382 226 l-117 47 -5 57 c-2 31 -3
58 -2 60 1 2 18 -5 36 -16 19 -10 70 -33 114 -51 44 -18 110 -50 147 -72 36
-21 78 -39 92 -39 32 0 346 105 411 137 63 32 161 101 199 142 l29 30 138 -70
c91 -46 145 -80 159 -99z m-4811 40 c46 -21 201 -121 201 -130 0 -3 -33 -23
-72 -45 -153 -85 -233 -125 -251 -125 -34 0 -82 -30 -105 -65 -19 -30 -27 -35
-63 -35 -30 0 -46 -6 -64 -26 -14 -15 -25 -30 -25 -34 0 -9 -74 4 -145 25 -27
8 -84 37 -125 65 -87 58 -132 71 -160 45 -32 -29 -33 -66 -5 -141 35 -94 68
-138 140 -190 39 -28 84 -73 123 -126 73 -99 101 -118 173 -118 52 0 55 2 104
55 36 38 59 55 76 55 14 0 33 6 44 14 26 18 160 32 169 17 4 -6 28 -11 53 -11
27 0 65 -9 89 -20 37 -19 49 -20 108 -10 53 8 93 7 184 -5 181 -24 337 -29
430 -16 l83 12 47 -39 c51 -42 83 -64 240 -166 117 -77 162 -129 187 -218 16
-59 37 -309 26 -319 -9 -8 -246 -83 -411 -128 -80 -23 -203 -61 -275 -86 -344
-121 -492 -155 -580 -135 -67 15 -166 66 -234 120 -113 91 -168 129 -271 185
-124 68 -303 177 -415 254 -145 100 -339 243 -357 265 -9 11 -17 17 -18 12 0
-4 -12 0 -27 10 -16 10 -80 47 -143 82 -236 132 -269 175 -278 365 -8 189 33
275 157 331 122 55 753 206 961 231 66 8 261 42 310 54 54 14 71 12 119 -9z
m3656 -212 c160 -64 227 -100 276 -149 64 -63 75 -116 90 -443 12 -250 11
-260 -7 -273 -24 -17 -206 -74 -344 -106 -100 -23 -153 -43 -419 -152 -183
-75 -309 -111 -676 -198 -82 -20 -208 -56 -280 -81 -71 -24 -193 -63 -270 -86
-161 -47 -268 -84 -410 -140 l-100 -39 -8 32 c-4 18 -11 145 -17 282 -9 248
-23 353 -54 412 -26 49 -107 118 -256 217 -144 95 -190 129 -190 140 0 3 24 6
53 6 28 0 86 6 127 14 69 13 76 13 100 -3 51 -37 130 -71 163 -71 20 0 78 20
138 49 150 70 144 69 158 21 7 -23 20 -43 29 -46 9 -3 27 -10 39 -16 12 -6 33
-8 47 -4 13 3 28 2 31 -4 13 -20 62 -9 124 29 41 26 81 42 115 46 56 8 121 33
167 66 l30 21 82 -41 c45 -23 73 -34 62 -25 -11 8 -42 27 -70 41 -27 15 -45
28 -40 29 6 2 84 10 175 19 153 14 301 45 376 78 16 6 61 31 100 54 70 41 72
42 141 36 70 -6 70 -6 100 28 161 181 204 234 223 278 l23 50 36 -15 c20 -9
81 -34 136 -56z m-692 -17 c57 -25 118 -80 151 -136 14 -24 26 -46 26 -48 0
-3 -37 -26 -82 -52 -46 -27 -99 -58 -118 -70 -88 -55 -218 -84 -519 -115 -57
-5 -114 -16 -126 -23 -97 -54 -130 -67 -189 -78 -47 -8 -84 -22 -127 -51 -73
-47 -109 -45 -63 3 16 17 53 45 82 62 45 27 65 47 47 47 -17 0 -88 -44 -144
-89 -67 -54 -76 -58 -87 -40 -8 14 89 113 144 145 23 14 42 30 42 35 0 20 -95
-44 -161 -108 -41 -40 -69 -61 -73 -54 -8 13 -5 19 46 88 22 29 63 66 94 84
47 29 67 49 48 49 -24 0 -126 -77 -159 -121 -46 -60 -58 -50 -20 16 29 48 59
74 136 119 38 22 67 28 157 36 160 14 254 41 452 130 129 58 159 68 257 84 43
8 68 14 56 15 -13 0 -23 3 -23 6 0 9 85 85 97 85 6 0 32 -9 56 -19z m-1675
-121 c90 -99 114 -156 110 -262 l-3 -83 -39 -13 c-45 -15 -299 -62 -304 -57
-2 2 9 11 25 20 29 17 24 16 -63 -15 -106 -37 -232 -52 -351 -40 -105 10 -207
25 -247 37 -10 3 -16 1 -13 -3 9 -16 -215 -11 -243 6 -14 8 -50 17 -80 20 -45
4 -56 9 -58 25 -4 31 119 108 221 138 45 14 96 28 112 32 17 3 77 27 134 52
97 42 111 45 207 48 67 3 114 9 133 20 17 8 45 15 64 15 22 0 84 24 168 65 74
35 141 65 149 65 8 0 43 -32 78 -70z m-198 55 c0 -3 -27 -19 -61 -35 -58 -30
-62 -30 -75 -13 -21 28 -18 31 44 38 51 6 82 10 90 14 1 0 2 -1 2 -4z m-171
-44 c12 -16 21 -32 21 -35 0 -3 -21 -6 -47 -6 -32 0 -56 -7 -73 -20 -20 -16
-41 -20 -110 -20 l-85 0 47 30 c27 17 61 30 76 30 16 0 37 9 47 19 9 11 34 22
54 24 20 2 39 4 43 5 4 1 16 -11 27 -27z m-1578 -55 c93 -61 199 -96 285 -96
46 0 55 -4 78 -30 29 -36 66 -145 66 -199 0 -31 -9 -46 -58 -99 -44 -47 -64
-62 -85 -62 -53 0 -101 35 -155 114 -36 52 -73 90 -121 124 -79 58 -98 83
-135 169 -28 68 -32 103 -14 121 22 22 55 12 139 -42z m3829 -66 c12 -22 4
-25 -38 -14 -21 6 -21 7 -5 20 24 18 31 17 43 -6z m1708 -14 l24 -13 -29 -11
c-15 -6 -190 -66 -388 -132 -198 -66 -376 -126 -397 -134 -33 -13 -37 -12 -41
4 -5 21 23 31 483 180 140 45 266 91 280 101 30 22 38 22 68 5z m-2648 -6 c0
-5 -11 -10 -24 -10 -13 0 -33 -3 -43 -6 -12 -5 -15 -4 -8 4 18 18 75 28 75 12z
m2688 -117 l-3 -87 -135 -46 c-433 -148 -708 -240 -718 -240 -8 0 -12 26 -12
88 l1 87 422 142 c232 77 428 142 435 142 10 1 12 -20 10 -86z m-4928 -118 c0
-11 -12 -15 -47 -15 -51 0 -50 15 2 23 17 2 33 5 38 6 4 0 7 -6 7 -14z m4924
-332 c-4 -186 -8 -339 -9 -341 -1 -2 -28 8 -59 22 l-56 25 2 293 3 292 55 22
c30 12 58 23 63 23 4 1 4 -151 1 -336z m-3504 277 c7 -22 10 -43 6 -47 -4 -4
-37 8 -74 27 l-67 34 50 12 c72 17 71 18 85 -26z m3353 -208 l-8 -28 -148 64
c-81 36 -145 68 -141 71 3 3 72 29 152 57 l147 51 3 -93 c1 -51 -1 -106 -5
-122z m-6303 189 c0 -5 11 -23 25 -39 l25 -30 -40 -16 c-39 -15 -40 -15 -94
17 -31 17 -56 35 -56 38 0 7 96 37 123 38 9 1 17 -3 17 -8z m-99 -81 l47 -31
7 -222 c3 -122 5 -320 3 -440 l-3 -218 -46 33 -47 32 -6 271 c-9 408 -11 605
-7 605 2 0 26 -14 52 -30z m227 -49 c31 -21 82 -51 112 -66 88 -45 173 -100
365 -239 205 -148 409 -281 558 -362 145 -80 193 -110 272 -175 78 -63 168
-122 203 -133 32 -10 27 -21 -15 -34 -42 -13 -13 -29 -403 226 -118 78 -276
180 -350 229 -74 48 -218 142 -320 208 -102 67 -212 138 -245 158 -33 21 -117
76 -188 122 -124 81 -126 84 -100 93 44 16 51 14 111 -27z m6163 -111 c5 0 9
-12 9 -26 0 -20 -4 -25 -17 -21 -16 5 -225 96 -343 149 l-45 20 28 13 c27 11
42 6 194 -62 91 -40 169 -73 174 -73z m-6168 17 c78 -51 318 -207 532 -346
215 -139 509 -330 654 -425 l264 -173 -2 -94 c-1 -51 -3 -94 -4 -95 -1 -1
-257 168 -569 375 -313 207 -669 443 -792 524 -124 81 -227 156 -229 165 -7
28 -9 162 -2 162 3 0 70 -42 148 -93z m5902 24 c88 -37 186 -80 218 -94 l57
-26 0 -50 c0 -28 -2 -51 -4 -51 -2 0 -72 31 -157 68 -85 38 -209 93 -276 122
-68 30 -123 57 -123 60 0 7 86 38 110 39 8 1 87 -30 175 -68z m-5947 -203 l33
-20 -3 -136 -3 -135 -50 -16 -50 -16 -3 -65 c-1 -36 1 -70 5 -76 5 -6 30 -25
56 -43 26 -18 46 -38 44 -44 -5 -15 -105 -52 -115 -43 -4 4 -8 154 -10 333
l-3 325 33 -21 c18 -13 48 -32 66 -43z m300 -200 c108 -72 323 -214 477 -316
154 -102 378 -250 498 -329 l217 -145 0 -119 c0 -111 -1 -119 -17 -110 -10 5
-272 176 -583 379 -311 204 -625 409 -697 457 l-133 86 0 125 c0 122 0 125 20
114 12 -6 109 -70 218 -142z m125 -364 c186 -121 593 -388 879 -575 184 -121
186 -123 190 -161 2 -22 2 -40 1 -42 -2 -2 -146 91 -321 207 -174 116 -516
342 -759 503 -244 161 -443 296 -443 298 0 3 15 9 33 14 35 9 -1 30 420 -244z
m267 -276 c327 -217 641 -425 698 -462 l102 -69 0 -54 c0 -30 -4 -53 -9 -51
-5 2 -351 232 -770 513 l-761 509 0 54 0 53 73 -49 c39 -28 340 -227 667 -444z
m2238 430 c-3 -23 49 -4 -760 -269 l-307 -101 -32 22 -31 23 89 23 c48 13 182
55 298 94 115 39 288 94 385 121 96 27 213 62 260 78 104 36 102 36 98 9z m2
-110 c0 -35 3 -79 6 -98 l6 -35 -514 -170 c-282 -94 -523 -173 -535 -177 -23
-6 -23 -5 -23 97 l0 103 513 170 c281 93 520 170 530 171 14 1 17 -8 17 -61z
m-1214 -222 c59 -2 124 -30 107 -47 -4 -4 -43 -19 -85 -33 l-78 -26 -62 40
c-34 22 -63 42 -66 44 -7 8 84 34 104 29 11 -2 47 -5 80 -7z m-127 -83 l61
-38 0 -442 0 -442 -65 40 -65 41 0 297 c0 163 -3 360 -7 439 -4 99 -3 142 5
142 6 0 38 -17 71 -37z m255 -420 c-4 -241 -8 -439 -9 -441 -1 -1 -39 -16 -83
-32 l-82 -30 0 443 0 442 78 26 c42 14 83 27 90 27 11 2 12 -78 6 -435z"/>
<path d="M6860 4215 c0 -8 9 -24 20 -35 19 -19 19 -19 -21 -30 -39 -11 -79
-41 -79 -60 0 -14 72 -90 86 -90 6 0 18 8 25 18 13 15 12 16 -3 4 -15 -12 -22
-9 -55 23 -48 46 -40 60 55 99 40 17 72 34 72 38 0 5 -10 3 -22 -3 -19 -10
-25 -8 -50 20 -18 20 -28 26 -28 16z"/>
<path d="M7025 4151 c-3 -6 12 -27 34 -49 22 -22 43 -51 47 -66 10 -40 28 -32
21 11 -8 50 -86 129 -102 104z"/>
<path d="M6981 4069 c-1 -23 35 -65 60 -72 20 -5 19 -3 -7 22 -16 15 -34 36
-41 47 -10 15 -12 16 -12 3z"/>
<path d="M6752 3976 c29 -36 54 -63 57 -61 9 10 -83 125 -101 125 -5 0 15 -29
44 -64z"/>
<path d="M6699 3963 c12 -23 29 -38 37 -31 2 3 -8 15 -22 29 -25 23 -26 23
-15 2z"/>
<path d="M6978 3853 c12 -2 32 -2 45 0 12 2 2 4 -23 4 -25 0 -35 -2 -22 -4z"/>
<path d="M6573 3818 c-15 -20 -25 -38 -20 -38 3 0 12 11 21 25 17 26 16 35 -1
13z"/>
<path d="M7123 3813 c-7 -2 -13 -11 -13 -19 0 -8 -10 -14 -26 -14 -14 0 -23
-4 -19 -10 11 -18 41 -11 64 16 24 28 48 27 43 -2 -3 -15 -1 -16 8 -7 29 27
-14 54 -57 36z"/>
<path d="M6663 3693 c15 -2 39 -2 55 0 15 2 2 4 -28 4 -30 0 -43 -2 -27 -4z"/>
<path d="M8015 3755 c-230 -64 -380 -145 -499 -269 -48 -50 -166 -193 -166
-201 0 -3 15 4 33 15 18 11 60 29 93 40 32 11 102 39 155 61 108 45 212 124
289 217 25 31 60 73 79 94 33 37 37 48 16 43z m-26 -37 c-8 -7 -43 -45 -77
-85 -73 -83 -185 -172 -257 -203 -113 -49 -245 -97 -245 -90 0 4 41 51 91 104
124 131 234 202 405 261 81 28 106 32 83 13z"/>
<path d="M6350 3874 c-13 -32 -13 -75 0 -94 6 -10 8 -4 4 22 -4 20 -2 50 4 67
13 37 6 42 -8 5z"/>
<path d="M6360 3680 c36 -29 179 -97 220 -104 24 -4 17 1 -25 17 -33 12 -96
42 -140 65 -44 23 -69 33 -55 22z"/>
<path d="M6040 3269 c34 -24 136 -69 155 -68 11 0 -3 8 -31 18 -28 9 -68 27
-88 39 -38 22 -63 30 -36 11z"/>
<path d="M5774 3192 c7 -11 124 -69 156 -76 l25 -6 -25 12 c-14 6 -56 27 -93
46 -38 18 -66 29 -63 24z"/>
<path d="M5178 3543 c6 -2 18 -2 25 0 6 3 1 5 -13 5 -14 0 -19 -2 -12 -5z"/>
<path d="M4909 3442 c19 -36 132 -152 186 -192 56 -40 205 -132 205 -125 0 2
-51 38 -112 79 -119 79 -150 105 -237 201 -30 33 -49 50 -42 37z"/>
<path d="M5101 3409 c29 -57 106 -132 168 -163 28 -15 51 -24 51 -21 0 2 -19
14 -42 26 -55 28 -145 114 -169 161 -11 21 -22 38 -24 38 -3 0 4 -19 16 -41z"/>
<path d="M5335 3390 c-13 -6 -2 -7 30 -3 28 3 52 7 54 9 9 8 -65 2 -84 -6z"/>
<path d="M4780 3306 c14 -18 146 -86 250 -130 25 -11 53 -23 63 -27 9 -5 17
-6 17 -3 0 3 -26 17 -57 31 -158 71 -250 116 -268 131 -19 16 -19 16 -5 -2z"/>
<path d="M5539 3034 c-13 -15 -58 -49 -99 -76 -85 -56 -92 -62 -65 -52 53 20
169 104 186 135 14 26 7 24 -22 -7z"/>
<path d="M5120 2761 c-36 -26 -76 -61 -90 -77 -25 -29 -24 -29 10 2 19 17 61
50 93 74 49 37 64 50 55 50 -2 0 -32 -22 -68 -49z"/>
<path d="M4190 3169 c-1 -13 -7 -42 -15 -64 -12 -33 -12 -37 0 -22 15 21 30
95 21 104 -3 4 -6 -5 -6 -18z"/>
<path d="M3397 2989 c20 -20 137 -41 243 -44 l115 -3 -110 8 c-60 4 -143 17
-183 27 -40 11 -69 16 -65 12z"/>
<path d="M3338 2914 c12 -17 36 -42 54 -56 30 -22 70 -48 58 -37 -3 3 -34 32
-69 65 -44 39 -58 49 -43 28z"/>
<path d="M3235 2910 c4 -8 15 -23 23 -32 8 -10 21 -41 28 -70 l14 -53 -6 50
c-7 58 -14 73 -45 100 -13 12 -19 14 -14 5z"/>
<path d="M3326 2825 c3 -11 11 -36 16 -55 6 -19 13 -30 15 -23 2 6 -5 31 -16
55 -12 24 -18 34 -15 23z"/>
<path d="M7922 3183 c-150 -58 -271 -108 -268 -110 2 -2 55 15 117 37 63 23
138 50 168 61 83 30 245 100 256 110 13 12 30 19 -273 -98z"/>
<path d="M8100 3012 c0 -7 -11 -35 -24 -63 -14 -28 -19 -46 -12 -40 17 14 50
100 42 108 -3 4 -6 1 -6 -5z"/>
<path d="M7741 2838 c-18 -28 -26 -47 -19 -40 14 11 62 92 55 92 -2 0 -19 -23
-36 -52z"/>
<path d="M3070 3195 c0 -13 162 -71 221 -79 36 -4 33 -2 -21 13 -36 10 -95 30
-132 44 -38 14 -68 24 -68 22z"/>
<path d="M2034 2941 c10 -15 139 -109 291 -213 156 -105 165 -111 165 -105 0
2 -51 39 -112 82 -62 43 -166 116 -231 162 -65 46 -116 79 -113 74z"/>
<path d="M1995 2798 c-2 -13 -1 -48 4 -78 l9 -55 -1 78 c-1 80 -3 93 -12 55z"/>
<path d="M2050 2722 c0 -18 55 -164 74 -197 20 -35 16 -22 -31 105 -37 98 -43
111 -43 92z"/>
<path d="M2011 2644 c0 -11 3 -14 6 -6 3 7 2 16 -1 19 -3 4 -6 -2 -5 -13z"/>
<path d="M2658 2643 c12 -2 30 -2 40 0 9 3 -1 5 -23 4 -22 0 -30 -2 -17 -4z"/>
<path d="M2775 2622 c33 -11 69 -22 80 -26 11 -4 4 2 -16 13 -21 11 -57 23
-80 26 -41 5 -40 4 16 -13z"/>
<path d="M3720 2548 c10 -9 240 -129 240 -125 0 6 -106 70 -155 94 -39 20 -95
40 -85 31z"/>
<path d="M3205 2531 c-12 -5 9 -6 55 -4 41 3 101 0 133 -5 40 -6 55 -6 48 1
-13 13 -209 20 -236 8z"/>
<path d="M2246 2470 c27 -57 93 -154 100 -147 2 2 -20 40 -48 84 -29 44 -59
88 -66 99 -7 10 0 -6 14 -36z"/>
<path d="M2905 2345 c11 -9 78 -53 150 -97 71 -45 161 -104 200 -133 83 -61
200 -130 235 -140 14 -3 -2 8 -35 26 -66 35 -123 72 -206 135 -71 55 -394 251
-344 209z"/>
<path d="M4581 2114 c-68 -24 -224 -69 -345 -99 -222 -57 -350 -94 -344 -101
2 -2 53 10 113 26 61 16 175 45 255 65 164 39 329 91 410 128 80 37 52 31 -89
-19z"/>
<path d="M3498 1842 c-61 -49 -70 -59 -30 -36 28 16 94 76 81 73 -2 0 -25 -17
-51 -37z"/>
<path d="M3571 1834 c-14 -25 -52 -70 -85 -101 -45 -42 -52 -52 -27 -37 42 24
109 99 128 143 21 49 11 47 -16 -5z"/>
<path d="M3686 1808 c-3 -13 -5 -79 -4 -148 l2 -125 6 145 c3 80 5 146 4 148
-1 1 -4 -8 -8 -20z"/>
<path d="M6928 3093 c7 -3 16 -2 19 1 4 3 -2 6 -13 5 -11 0 -14 -3 -6 -6z"/>
<path d="M6975 3082 c31 -14 83 -24 65 -13 -8 5 -31 11 -50 15 -24 4 -28 3
-15 -2z"/>
<path d="M6911 2938 c91 -41 116 -58 140 -95 24 -36 25 -21 2 19 -18 30 -127
90 -188 103 -16 4 4 -9 46 -27z"/>
<path d="M7280 2929 c0 -4 7 -23 15 -43 8 -19 21 -71 29 -113 8 -43 15 -64 15
-48 1 39 -25 149 -44 183 -8 15 -14 24 -15 21z"/>
<path d="M6870 2820 c-37 -13 -43 -17 -20 -13 41 7 111 32 90 32 -8 0 -40 -9
-70 -19z"/>
<path d="M6481 2817 c14 -12 118 -64 114 -57 -8 12 -92 60 -106 60 -7 0 -10
-2 -8 -3z"/>
<path d="M7256 2693 c-15 -202 -18 -258 -13 -252 7 6 29 320 23 326 -2 2 -6
-31 -10 -74z"/>
<path d="M6634 2707 c27 -87 40 -141 51 -206 8 -47 13 -63 14 -41 1 48 -34
203 -54 237 -9 15 -14 20 -11 10z"/>
<path d="M6150 2573 c-85 -29 -139 -51 -120 -47 44 7 191 56 250 82 72 33 36
23 -130 -35z"/>
<path d="M6566 2518 c-6 -51 -46 -226 -70 -303 -4 -11 1 -5 9 14 35 75 92 351
72 351 -2 0 -8 -28 -11 -62z"/>
<path d="M5968 2513 c7 -3 16 -2 19 1 4 3 -2 6 -13 5 -11 0 -14 -3 -6 -6z"/>
<path d="M6702 2395 c0 -16 2 -22 5 -12 2 9 2 23 0 30 -3 6 -5 -1 -5 -18z"/>
<path d="M5272 2332 c-105 -31 -188 -58 -183 -60 10 -3 214 53 331 92 138 45
47 26 -148 -32z"/>
<path d="M5621 2144 c-30 -63 -85 -162 -123 -220 -37 -58 -64 -103 -58 -99 15
9 129 183 160 245 32 63 81 182 77 186 -1 1 -27 -49 -56 -112z"/>
<path d="M6322 2883 c-24 -8 -41 -17 -39 -19 5 -5 69 16 82 27 11 11 10 11
-43 -8z"/>
<path d="M4311 2905 c-17 -20 -31 -41 -31 -48 0 -6 7 0 17 13 9 14 25 35 36
48 11 12 18 22 15 22 -3 0 -20 -16 -37 -35z"/>
<path d="M3738 2773 c-35 -39 -62 -82 -54 -90 3 -3 6 -1 6 4 0 6 18 34 40 62
44 56 48 66 8 24z"/>
<path d="M3641 2758 c0 -9 -4 -25 -7 -35 -5 -17 -5 -17 6 0 6 10 9 25 7 35 -4
15 -5 15 -6 0z"/>
<path d="M4240 2725 c18 -22 108 -65 135 -64 11 0 -4 9 -34 19 -29 10 -67 28
-85 41 -23 17 -27 18 -16 4z"/>
<path d="M3551 2715 c-1 -30 10 -65 21 -65 5 0 6 5 2 12 -4 6 -11 25 -15 42
-4 19 -7 23 -8 11z"/>
<path d="M2680 2977 c0 -16 29 -63 51 -82 l24 -20 -21 25 c-12 14 -29 39 -37
55 -9 17 -16 26 -17 22z"/>
</g>
</svg>
