<?xml version="1.0" standalone="no"?>
<!DOCTYPE svg PUBLIC "-//W3C//DTD SVG 20010904//EN"
 "http://www.w3.org/TR/2001/REC-SVG-20010904/DTD/svg10.dtd">
<svg version="1.0" xmlns="http://www.w3.org/2000/svg"
 width="1024.000000pt" height="559.000000pt" viewBox="0 0 1024.000000 559.000000"
 preserveAspectRatio="xMidYMid meet">
<metadata>
Created by potrace 1.16, written by Peter Selinger 2001-2019
</metadata>
<g transform="translate(0.000000,559.000000) scale(0.100000,-0.100000)"
fill="#000000" stroke="none">
<path d="M5510 5098 c-13 -5 -30 -14 -38 -21 -8 -6 -29 -10 -47 -9 -34 3 -95
-37 -95 -63 0 -7 -12 -16 -26 -19 -42 -11 -74 -50 -74 -90 0 -25 -6 -38 -19
-46 -28 -14 -44 -70 -31 -105 8 -20 7 -37 -2 -62 -11 -30 -10 -39 5 -65 9 -16
17 -47 17 -68 0 -21 7 -45 15 -54 8 -8 15 -29 15 -46 0 -20 9 -40 25 -56 l25
-25 -41 -44 c-31 -34 -49 -45 -71 -45 -50 0 -311 -87 -361 -121 -82 -54 -127
-125 -172 -273 -15 -49 -47 -138 -71 -197 -24 -60 -44 -115 -44 -123 0 -8 11
-21 24 -29 l23 -16 -15 -73 c-19 -95 -21 -280 -4 -337 17 -55 52 -91 90 -91
16 0 35 -7 42 -15 15 -19 8 -83 -14 -117 -49 -75 -89 -360 -66 -473 15 -77 63
-174 111 -229 l39 -44 -33 -5 c-17 -3 -59 -9 -92 -12 -33 -3 -107 -12 -165
-20 -103 -14 -140 -18 -472 -55 -92 -10 -171 -21 -177 -24 -16 -10 -23 -69
-14 -107 7 -26 16 -36 41 -44 l32 -9 2 -595 3 -595 50 -19 c43 -16 56 -17 95
-6 25 7 51 16 58 22 9 7 12 119 12 498 0 385 3 489 13 489 23 0 351 -61 357
-66 3 -3 6 -246 6 -541 1 -294 5 -538 10 -542 5 -5 30 -14 57 -21 38 -10 56
-10 95 0 26 7 53 17 60 23 9 7 12 129 12 548 l0 539 25 0 c14 0 28 1 31 3 4 1
9 -162 11 -363 3 -201 6 -366 7 -367 1 -1 23 -8 48 -14 39 -11 55 -10 95 2
l48 15 3 386 2 385 33 6 c17 3 87 15 155 27 68 12 126 20 129 17 2 -3 -14 -36
-36 -73 -52 -85 -76 -165 -96 -319 -20 -153 -39 -234 -72 -298 -19 -39 -25
-65 -24 -110 1 -36 -5 -69 -15 -89 -11 -21 -14 -44 -10 -72 3 -24 -1 -67 -11
-106 -21 -85 -9 -116 57 -142 25 -10 74 -29 110 -44 189 -76 188 -76 310 -77
237 -1 277 72 96 177 -83 49 -182 130 -188 154 -2 9 17 20 52 31 l55 17 5 214
c5 195 7 219 26 255 32 59 128 290 154 370 13 39 36 101 52 138 22 52 29 84
29 133 l0 66 32 -25 c30 -23 32 -28 29 -78 -2 -30 -12 -67 -22 -84 -36 -59
-60 -162 -80 -344 -16 -148 -25 -195 -46 -240 -19 -44 -25 -69 -23 -116 2 -34
-3 -70 -10 -83 -6 -12 -11 -46 -10 -75 2 -28 -3 -79 -11 -112 -25 -114 2 -141
153 -151 45 -4 125 -18 177 -32 78 -22 117 -27 215 -27 136 0 165 9 165 54 0
37 -31 63 -105 90 -72 27 -135 62 -192 107 -38 31 -41 37 -36 71 2 21 0 49 -5
63 -8 21 -5 30 19 58 26 29 29 40 29 103 0 61 11 104 89 342 135 411 144 447
139 532 -6 89 -23 120 -130 232 -44 46 -78 90 -78 102 0 22 -182 186 -337 303
-51 38 -101 86 -113 105 -11 19 -29 37 -40 40 -12 3 -24 20 -32 45 -6 21 -20
44 -30 49 -27 14 -22 41 13 75 30 28 31 31 25 99 -3 39 -2 75 2 81 4 7 37 21
74 32 78 25 127 48 187 92 35 25 42 36 38 56 -6 31 0 30 26 -3 84 -109 207
-193 282 -193 83 0 130 105 130 290 0 63 -8 158 -17 210 -29 162 -33 227 -28
405 4 125 -8 156 -81 212 -87 67 -102 73 -162 59 -49 -11 -54 -11 -89 12 -30
20 -40 22 -58 12 -12 -6 -24 -10 -26 -7 -3 2 9 38 26 80 21 52 30 92 30 130 0
30 7 71 15 91 9 20 13 42 9 47 -3 6 5 23 19 37 13 15 27 41 30 57 3 17 9 42
12 57 5 17 1 39 -9 59 -9 18 -16 42 -16 54 0 28 -36 75 -58 75 -10 0 -23 13
-30 29 -14 32 -57 55 -93 49 -15 -2 -33 7 -51 26 -25 24 -34 27 -66 22 -54 -9
-64 -9 -97 1 -18 6 -40 7 -55 1z m71 -34 c17 -15 21 -15 53 0 40 19 78 10 96
-24 9 -17 17 -20 43 -15 24 5 39 1 60 -15 15 -12 27 -28 27 -36 0 -8 14 -20
30 -26 34 -12 54 -40 45 -67 -3 -10 3 -27 15 -41 23 -27 25 -49 6 -75 -7 -10
-11 -26 -9 -34 2 -9 -2 -25 -10 -35 -14 -19 -15 -17 -22 23 -4 27 -3 47 4 54
17 17 13 31 -4 17 -25 -21 -45 -5 -39 32 l5 33 -14 -31 c-23 -48 -65 -55 -88
-13 -9 18 -10 18 -29 -1 -27 -27 -46 -25 -77 6 l-25 25 -20 -20 c-23 -26 -29
-26 -62 0 -24 19 -31 18 -27 -5 4 -21 -13 -48 -35 -56 -19 -8 -24 -17 -24 -45
0 -24 -6 -39 -20 -47 -12 -8 -20 -24 -20 -40 0 -15 -5 -30 -10 -33 -14 -9 -40
13 -40 34 0 24 -37 61 -61 61 -11 0 -31 -11 -44 -25 -34 -33 -34 -104 0 -170
23 -46 25 -95 5 -95 -21 0 -42 35 -36 61 4 19 -1 32 -15 45 -17 15 -20 26 -15
55 4 26 1 40 -9 49 -18 15 -20 71 -3 88 9 9 9 18 0 37 -20 44 -15 73 18 97 25
18 30 27 25 50 -9 38 8 63 54 81 22 9 42 25 46 37 10 32 49 53 84 45 23 -5 35
-1 50 14 25 25 68 27 92 5z m79 -263 c0 -18 57 -33 79 -22 16 9 26 8 45 -5 16
-10 36 -14 53 -10 40 9 49 -2 57 -66 7 -57 7 -58 -18 -58 -14 0 -39 -12 -56
-27 -30 -27 -31 -30 -21 -78 18 -94 20 -123 7 -140 -12 -16 -15 -16 -44 -1
-17 9 -39 16 -48 16 -11 0 -15 6 -11 20 7 26 -10 26 -18 0 -8 -25 1 -40 24
-40 10 0 31 -6 46 -14 43 -23 69 -7 73 42 2 23 -1 64 -6 91 -9 48 -1 70 12 35
5 -13 9 -14 21 -4 11 9 15 5 21 -26 12 -64 -50 -239 -80 -228 -9 3 -14 11 -13
17 3 17 -74 29 -114 18 -59 -18 -66 -34 -35 -79 30 -44 34 -64 9 -55 -10 4 2
-12 25 -34 54 -52 49 -68 -20 -60 -32 4 -63 16 -87 34 -117 88 -171 163 -171
235 0 26 -4 48 -10 48 -16 0 -11 -89 7 -128 10 -21 52 -71 94 -113 l77 -77
-34 -33 c-43 -41 -45 -63 -3 -23 l32 29 -7 -35 c-20 -104 -149 -100 -254 9
-40 41 -122 173 -122 197 0 6 14 17 30 24 37 15 85 68 112 126 13 26 29 44 41
46 11 2 22 8 24 15 3 7 -3 10 -15 6 -56 -14 -111 158 -64 200 29 26 55 14 78
-36 11 -24 27 -43 38 -46 23 -4 46 23 46 54 0 11 9 26 20 33 13 8 20 23 20 45
0 24 6 35 23 42 12 6 23 20 25 31 3 20 6 21 33 11 24 -9 32 -8 46 6 19 18 33
22 33 8z m237 -198 c-2 -5 -7 -16 -11 -27 -5 -15 -9 -16 -21 -6 -8 6 -23 9
-36 5 -15 -5 -20 -3 -17 6 4 13 37 26 71 28 10 1 16 -2 14 -6z m-137 -303 c0
-13 -60 -13 -80 0 -11 7 -2 10 33 10 26 0 47 -4 47 -10z m-80 -31 c0 -4 -5
-11 -10 -14 -13 -8 -42 14 -35 25 6 10 45 1 45 -11z m244 -16 c12 -7 15 -13 7
-17 -6 -4 -11 -18 -11 -31 0 -13 -4 -27 -10 -30 -16 -10 -12 -43 8 -57 9 -7
18 -20 20 -28 2 -8 8 -17 13 -18 9 -4 19 -13 48 -47 9 -11 26 -15 54 -13 34 2
42 -1 45 -15 6 -30 -27 -57 -67 -57 -43 0 -168 39 -206 64 -38 25 -145 175
-145 203 0 57 11 62 123 59 56 -1 110 -7 121 -13z m-774 -14 c0 -37 72 -160
125 -214 125 -127 262 -126 295 3 l13 47 75 -2 c76 -2 77 -2 105 -40 15 -21
40 -45 54 -53 17 -10 40 -46 68 -106 24 -50 68 -130 99 -178 31 -48 56 -89 56
-93 0 -3 -8 -11 -17 -18 -14 -10 -22 -9 -44 7 -18 14 -61 25 -135 35 -60 9
-111 17 -113 19 -3 2 5 14 16 27 21 23 53 80 53 94 0 4 -12 -11 -26 -34 -29
-50 -39 -55 -29 -15 14 54 22 133 13 138 -4 3 -8 -1 -8 -8 0 -7 -10 -57 -22
-110 l-23 -98 -85 0 c-98 0 -255 -23 -276 -41 -18 -15 -18 -82 1 -119 14 -28
14 -31 -22 -79 -46 -62 -65 -66 -268 -65 -167 0 -176 3 -166 41 6 22 14 29 42
33 33 5 34 6 54 90 11 47 32 105 47 130 30 50 51 101 44 107 -2 2 -9 -11 -15
-29 -6 -18 -19 -43 -29 -56 -18 -23 -18 -22 -15 45 l3 68 -13 -55 c-8 -30 -25
-106 -38 -169 l-24 -113 -47 5 c-104 13 -333 101 -345 134 -3 7 13 59 36 116
22 57 56 151 75 210 38 117 53 144 105 200 47 51 71 63 231 118 163 56 150 53
150 28z m960 -9 c27 -21 21 -26 -11 -9 -14 7 -36 6 -80 -5 -33 -9 -65 -16 -70
-16 -19 0 -8 18 19 28 67 26 110 27 142 2z m30 -43 c93 -34 102 -54 96 -217
-4 -125 8 -269 40 -480 18 -117 15 -174 -16 -273 -35 -114 -63 -127 -165 -78
-42 20 -81 50 -132 105 -40 42 -73 80 -73 84 0 5 12 19 26 33 30 28 68 99 78
146 4 18 19 39 33 48 26 17 26 17 19 -6 -24 -83 -36 -167 -30 -208 11 -76 20
-76 20 1 0 46 9 107 24 163 19 71 24 116 24 212 l1 122 -32 33 c-40 41 -41 48
-7 48 14 0 34 5 45 10 22 12 23 11 9 -26 -14 -37 3 -88 36 -103 30 -13 34 -14
34 -3 0 4 -14 13 -31 19 l-31 12 5 73 c4 40 6 82 7 92 0 19 0 19 22 0 12 -10
18 -13 14 -6 -5 8 -1 12 11 13 10 0 -2 9 -26 20 -29 13 -55 18 -73 14 -30 -7
-68 1 -68 15 0 26 129 37 183 15 9 -4 17 -3 17 3 0 5 -21 15 -46 22 -36 10
-59 11 -114 1 -38 -7 -74 -10 -80 -6 -20 12 10 34 67 51 54 16 93 12 158 -13
12 -4 16 -3 12 5 -4 6 -29 18 -56 27 -46 15 -54 15 -108 -1 -72 -20 -105 -22
-110 -7 -5 14 27 32 87 49 61 17 57 17 130 -9z m-197 -253 c28 -9 52 -26 63
-42 9 -15 26 -34 37 -44 16 -12 22 -30 25 -82 2 -36 1 -82 -3 -103 l-7 -37
-50 80 c-45 69 -128 225 -128 239 0 8 14 6 63 -11z m-137 -325 c60 -6 124 -17
143 -25 32 -14 33 -16 27 -55 -8 -53 -38 -110 -82 -159 -32 -35 -38 -38 -60
-28 -20 9 -35 8 -75 -6 -63 -23 -155 -18 -222 12 -54 24 -62 50 -22 76 14 10
31 28 37 42 9 18 20 24 47 26 l36 1 -32 4 c-20 3 -33 10 -33 19 0 11 23 14
128 14 128 0 238 13 257 31 5 5 1 9 -12 9 -12 0 -30 3 -40 6 -14 5 -15 4 -4
-4 22 -16 -162 -26 -333 -17 -83 3 -153 9 -155 11 -15 15 38 19 242 19 173 0
214 2 162 8 -91 11 -381 2 -420 -13 -37 -14 -21 -26 47 -35 42 -6 47 -9 36
-22 -9 -11 -23 -13 -53 -9 -40 6 -40 6 -10 -7 l30 -13 -29 -19 c-28 -18 -29
-18 -42 0 -17 23 -18 45 -1 45 6 0 4 5 -5 11 -27 16 -22 48 10 60 63 25 273
34 428 18z m-266 -106 c0 -20 -12 -39 -40 -66 -55 -51 -52 -70 15 -103 73 -35
172 -43 243 -20 49 16 72 15 72 -3 0 -5 -27 -22 -59 -40 -42 -22 -73 -31 -107
-32 -52 0 -139 -15 -114 -19 8 -1 47 -1 85 0 67 1 91 9 208 68 4 2 7 -1 7 -7
0 -20 -121 -91 -155 -91 -18 0 -54 -3 -81 -7 l-49 -8 40 -5 40 -6 -36 -11
c-28 -8 -62 -6 -154 8 l-118 18 -106 -30 c-58 -16 -128 -36 -156 -44 -159 -47
-210 -57 -311 -62 -136 -7 -158 -2 -181 40 -15 26 -18 57 -18 177 0 86 6 166
13 197 l14 51 62 -28 c34 -16 94 -37 132 -46 83 -21 88 -25 80 -58 -5 -20 -15
-27 -59 -36 -28 -6 -63 -18 -77 -26 -25 -15 -24 -15 10 -7 19 4 124 6 233 4
129 -2 221 1 263 9 59 11 68 16 91 51 14 21 49 53 77 70 28 17 61 40 73 51 12
11 26 17 33 13 6 -3 10 -3 9 2 -3 15 1 23 11 23 6 0 10 -12 10 -27z m-76 -367
c37 -8 70 -17 73 -19 2 -3 -3 -19 -11 -36 -20 -37 -21 -51 -2 -26 12 17 14 14
20 -29 6 -36 4 -53 -9 -73 -22 -33 -90 -63 -145 -63 l-45 0 47 27 c27 14 46
28 45 30 -2 2 -47 -15 -100 -37 -144 -60 -187 -57 -370 29 -104 49 -121 52
-52 10 l50 -30 -55 6 c-54 5 -169 55 -191 82 -9 11 2 13 64 13 75 0 187 24
346 75 184 59 225 64 335 41z m-549 -232 c44 -3 100 -15 125 -26 71 -30 133
-39 193 -26 28 6 84 12 122 13 39 1 83 6 99 10 22 6 28 5 24 -6 -9 -27 -99
-51 -218 -56 -173 -8 -372 24 -497 81 -47 22 -53 28 -53 55 l0 31 63 -35 c50
-27 78 -35 142 -41z m-167 -29 c2 -2 -3 -16 -11 -32 -8 -15 -17 -44 -20 -63
-6 -33 -5 -32 7 6 26 78 32 84 67 72 25 -8 30 -15 25 -32 -23 -90 -35 -158
-35 -196 1 -43 2 -43 10 15 14 101 41 197 53 192 6 -2 54 -12 106 -22 52 -9
102 -20 110 -24 24 -10 239 -4 310 9 36 6 79 20 97 30 29 17 32 17 46 2 9 -9
19 -30 23 -46 4 -17 20 -36 40 -48 19 -11 37 -30 40 -43 3 -14 41 -49 92 -88
101 -75 325 -264 330 -278 2 -5 -3 -6 -11 -3 -18 6 -131 -37 -197 -76 -94 -55
-136 -63 -228 -44 -60 12 -84 13 -130 3 -116 -24 -167 -61 -331 -243 -34 -37
-118 -99 -179 -130 -31 -16 -32 -16 -42 6 -5 13 -32 75 -60 138 -28 63 -53
123 -55 133 -2 9 -17 28 -33 42 -45 37 -101 125 -128 199 -20 55 -24 86 -24
170 0 134 37 321 72 363 9 11 35 5 56 -12z m1376 -665 c47 -50 98 -112 113
-138 25 -41 28 -56 27 -127 -1 -58 -7 -95 -24 -135 -12 -30 -24 -66 -26 -80
-2 -14 -42 -142 -89 -285 -66 -197 -88 -278 -92 -335 -5 -58 -12 -82 -30 -107
-22 -29 -23 -35 -13 -73 6 -24 8 -46 3 -50 -4 -3 -36 -14 -70 -23 -120 -32
-253 -15 -253 33 0 11 7 37 15 57 10 24 13 51 9 83 -5 36 -2 56 15 87 28 56
40 113 57 283 17 170 32 237 74 321 23 44 29 69 25 89 -3 16 -2 31 4 35 23 14
9 36 -45 72 -32 22 -63 52 -74 72 -10 20 -41 68 -69 106 l-51 70 58 7 c45 5
88 21 176 67 64 34 129 61 145 61 23 0 45 -17 115 -90z m-475 -112 c86 -117
100 -143 107 -216 8 -77 -10 -133 -81 -246 -54 -86 -69 -121 -19 -46 15 22 29
39 31 37 7 -7 -56 -166 -152 -382 -85 -192 -95 -222 -95 -274 0 -50 -4 -64
-30 -97 -29 -35 -30 -42 -24 -91 l6 -53 -29 0 c-16 0 -54 -7 -84 -16 -101 -31
-210 -17 -224 27 -4 12 2 37 14 60 17 33 20 50 15 90 -6 42 -3 58 19 102 34
68 54 146 72 287 21 160 48 248 100 335 31 50 45 85 45 109 0 19 5 38 10 41
27 17 6 45 -77 102 -48 33 -88 64 -90 70 -6 17 111 148 163 184 61 42 138 68
201 69 l53 0 69 -92z m-881 10 c5 -7 26 -44 45 -83 25 -49 32 -72 24 -76 -7
-3 -55 -12 -107 -19 -87 -11 -152 -29 -109 -30 9 0 60 7 115 15 54 8 104 15
110 15 6 0 21 -22 32 -49 l20 -50 -26 -5 c-163 -33 -285 -46 -339 -37 -110 20
-534 86 -608 95 -110 14 -105 11 -105 72 0 48 2 55 18 50 41 -12 693 -107 729
-105 71 2 -229 51 -587 95 -104 13 -91 20 67 38 222 24 687 80 704 85 4 0 11
-5 17 -11z m407 -223 c0 -9 -82 -39 -136 -50 -31 -6 -28 -2 31 38 57 40 67 44
85 32 11 -7 20 -16 20 -20z m-1205 -617 c0 -390 3 -587 10 -583 6 4 10 210 10
586 0 379 3 579 10 579 6 0 10 -35 10 -85 l0 -85 31 -7 31 -6 -3 -488 -2 -488
-30 -11 c-39 -13 -76 -13 -116 1 l-31 11 0 587 0 587 40 -4 40 -4 0 -590z
m1296 560 c35 -25 43 -36 38 -52 -4 -12 -7 -27 -7 -34 0 -14 -3 -15 -157 -42
-63 -11 -176 -31 -250 -44 -74 -14 -147 -28 -162 -30 l-28 -5 0 79 0 80 28 0
c15 1 63 7 106 15 55 10 85 11 98 4 21 -11 100 4 213 40 78 25 70 26 121 -11z
m-1106 -2 c41 -8 128 -22 193 -31 l118 -18 -3 -76 c-3 -69 -5 -76 -23 -74 -11
1 -87 14 -170 28 -82 15 -171 30 -197 32 l-47 5 -3 74 -3 74 30 0 c17 0 64 -6
105 -14z m388 -62 l22 -6 0 -629 0 -628 -32 11 c-18 6 -36 13 -39 17 -4 3 -9
284 -11 624 l-5 617 21 0 c12 0 31 -3 44 -6z m128 -616 l-1 -622 -43 -12 -42
-13 0 629 0 629 28 4 c65 10 59 70 58 -615z m274 121 l0 -370 -36 -15 c-20 -8
-37 -14 -38 -12 -1 2 0 173 2 380 5 407 1 383 55 387 16 1 17 -23 17 -370z
m-90 -23 l0 -375 -32 10 c-18 5 -34 9 -35 9 -6 0 -2 717 4 723 3 4 19 7 35 7
l28 0 0 -374z m638 -482 c-2 -1 -15 -5 -30 -9 -25 -7 -27 -5 -34 41 -5 37 -3
55 10 77 9 16 16 51 16 80 0 29 8 74 17 101 l18 49 3 -168 c1 -92 1 -169 0
-171z m672 -55 c47 -22 101 -48 120 -57 42 -20 50 -46 18 -63 -42 -24 -209
-16 -323 14 -55 15 -145 31 -200 37 -140 13 -152 30 -113 161 l10 36 52 -14
c55 -15 131 -10 194 11 36 13 38 12 97 -35 32 -27 98 -67 145 -90z m-751 84
l-1 -48 -8 40 c-7 37 -5 55 6 55 2 0 3 -21 3 -47z m16 -161 c41 -38 104 -85
142 -105 159 -83 131 -135 -72 -136 -107 -1 -155 9 -242 50 -36 17 -97 41
-136 54 -38 13 -74 30 -78 37 -12 18 -11 61 2 114 10 40 14 45 33 39 48 -15
115 -15 171 -2 97 24 100 24 180 -51z"/>
<path d="M5583 4665 c-43 -18 -42 -29 1 -21 23 4 52 0 90 -14 53 -20 76 -20
76 0 0 9 -102 50 -123 50 -7 -1 -27 -7 -44 -15z"/>
<path d="M5307 4633 c-4 -3 -7 -13 -7 -22 0 -12 3 -11 14 4 13 18 14 18 25 -4
9 -17 10 -26 1 -36 -17 -21 -8 -59 15 -63 20 -4 20 -4 0 11 -19 15 -19 16 -2
35 17 19 17 22 2 51 -15 29 -34 39 -48 24z"/>
<path d="M5590 4589 c-12 -8 -9 -9 11 -5 22 5 28 2 32 -16 6 -21 7 -21 26 -4
12 11 25 15 33 10 10 -6 10 -4 -1 9 -15 19 -77 23 -101 6z"/>
<path d="M5460 4485 c0 -5 10 -21 21 -35 13 -17 17 -18 10 -5 -17 33 -31 51
-31 40z"/>
<path d="M5586 4328 c-9 -12 -16 -32 -15 -43 1 -15 3 -13 9 8 5 16 14 35 21
43 6 8 9 14 6 14 -3 0 -13 -10 -21 -22z"/>
<path d="M5362 4205 c0 -16 2 -22 5 -12 2 9 2 23 0 30 -3 6 -5 -1 -5 -18z"/>
<path d="M5373 4125 c0 -22 2 -30 4 -17 2 12 2 30 0 40 -3 9 -5 -1 -4 -23z"/>
<path d="M5750 4135 c19 -22 43 -51 53 -65 17 -24 17 -24 0 8 -10 18 -33 47
-52 65 l-35 32 34 -40z"/>
<path d="M5800 4160 c0 -5 10 -10 23 -10 18 0 19 2 7 10 -19 13 -30 13 -30 0z"/>
<path d="M5826 4030 c5 -5 50 -23 99 -40 111 -38 100 -22 -14 19 -93 34 -100
36 -85 21z"/>
<path d="M4927 4067 c23 -26 49 -71 59 -98 10 -28 20 -45 22 -39 7 20 -46 115
-84 150 l-38 35 41 -48z"/>
<path d="M5194 4024 c20 -41 102 -132 137 -149 47 -25 44 -17 -7 18 -43 29
-69 56 -127 137 l-17 25 14 -31z"/>
<path d="M5572 3901 c-16 -46 -58 -97 -95 -115 -18 -8 -25 -16 -17 -16 26 0
87 58 110 106 12 25 20 47 17 50 -2 3 -9 -9 -15 -25z"/>
<path d="M6122 3745 c0 -16 2 -22 5 -12 2 9 2 23 0 30 -3 6 -5 -1 -5 -18z"/>
<path d="M5924 3514 c-6 -3 -47 -9 -90 -14 l-79 -9 83 4 c45 3 90 9 100 14 17
10 7 14 -14 5z"/>
<path d="M5673 3483 c15 -2 37 -2 50 0 12 2 0 4 -28 4 -27 0 -38 -2 -22 -4z"/>
<path d="M4610 3170 c0 -21 65 -50 110 -49 25 1 34 3 20 6 -14 2 -40 6 -58 9
-18 3 -42 14 -53 25 -10 10 -19 14 -19 9z"/>
<path d="M5064 3041 c9 -14 106 -67 136 -75 14 -3 6 3 -16 13 -23 10 -60 31
-84 46 -23 15 -39 22 -36 16z"/>
<path d="M4774 2922 c8 -13 110 -52 134 -51 9 0 -8 8 -38 18 -30 9 -66 23 -79
30 -13 7 -21 8 -17 3z"/>
<path d="M4938 2863 c7 -3 16 -2 19 1 4 3 -2 6 -13 5 -11 0 -14 -3 -6 -6z"/>
<path d="M5080 2761 c0 -6 4 -13 10 -16 6 -3 7 1 4 9 -7 18 -14 21 -14 7z"/>
<path d="M5465 2720 c-16 -17 -43 -35 -60 -39 -20 -6 -23 -9 -10 -10 26 -1 81
33 95 58 15 29 9 26 -25 -9z"/>
<path d="M5026 2689 c27 -4 101 -24 163 -44 136 -42 169 -45 51 -4 -102 35
-201 59 -238 58 -15 -1 -5 -5 24 -10z"/>
<path d="M5338 2663 c6 -2 18 -2 25 0 6 3 1 5 -13 5 -14 0 -19 -2 -12 -5z"/>
<path d="M5507 2605 c-27 -32 -51 -49 -85 -59 -30 -9 -39 -15 -24 -15 36 -1
88 27 115 62 52 70 48 77 -6 12z"/>
<path d="M4982 2581 c-29 -10 -59 -24 -65 -31 -8 -8 -1 -7 18 3 74 36 176 44
285 22 14 -2 7 2 -15 9 -57 20 -160 19 -223 -3z"/>
<path d="M5315 2465 c33 -20 84 -58 114 -84 79 -69 114 -90 51 -32 -57 54
-172 136 -206 147 -10 3 8 -11 41 -31z"/>
<path d="M5430 2431 c39 -23 148 -51 194 -50 l51 2 -65 7 c-36 4 -92 17 -125
29 -63 22 -80 26 -55 12z"/>
<path d="M4799 2242 c36 -46 92 -95 158 -136 65 -40 65 -31 0 12 -32 21 -88
67 -124 102 -54 53 -61 57 -34 22z"/>
<path d="M4825 2090 c10 -11 20 -18 23 -15 7 6 -18 35 -31 35 -5 0 -2 -9 8
-20z"/>
<path d="M5724 2084 c23 -16 176 -77 182 -71 2 1 -43 22 -99 45 -56 22 -93 34
-83 26z"/>
<path d="M5995 1904 c-27 -7 -61 -14 -75 -15 -14 0 -19 -3 -12 -6 17 -7 131
17 138 28 3 5 4 9 2 8 -2 0 -25 -7 -53 -15z"/>
<path d="M5902 1819 c7 -5 38 -8 68 -8 66 1 56 6 -23 12 -32 2 -52 0 -45 -4z"/>
<path d="M5861 1273 c-61 -75 -64 -79 -16 -28 32 33 66 72 77 88 38 53 11 26
-61 -60z"/>
<path d="M5800 1061 c27 -21 69 -36 78 -26 3 3 -1 5 -9 5 -8 0 -32 9 -54 20
-39 20 -39 20 -15 1z"/>
<path d="M5891 1026 c2 -2 18 -6 34 -10 22 -5 26 -4 15 4 -14 9 -59 15 -49 6z"/>
<path d="M5918 985 c-2 -3 -38 -14 -79 -24 -41 -11 -64 -20 -53 -20 24 -1 154
37 154 44 0 7 -15 6 -22 0z"/>
<path d="M5765 895 c33 -15 66 -17 105 -5 18 5 9 7 -30 6 -30 -1 -66 2 -80 6
-19 6 -18 4 5 -7z"/>
<path d="M5285 1930 c33 -16 74 -31 90 -35 17 -3 7 3 -21 14 -27 10 -64 26
-82 35 -17 9 -35 16 -39 15 -4 0 19 -14 52 -29z"/>
<path d="M5423 1807 c-48 -14 -73 -32 -28 -21 45 11 102 33 85 32 -8 0 -34 -5
-57 -11z"/>
<path d="M5474 1744 c-18 -14 -18 -15 4 -4 12 6 22 13 22 15 0 8 -5 6 -26 -11z"/>
<path d="M5383 1713 c9 -2 25 -2 35 0 9 3 1 5 -18 5 -19 0 -27 -2 -17 -5z"/>
<path d="M5414 1303 c-15 -21 -66 -78 -113 -127 -47 -49 -70 -78 -51 -63 48
35 215 227 197 227 -2 0 -17 -17 -33 -37z"/>
<path d="M5175 935 c26 -22 116 -65 135 -64 8 0 -6 8 -32 18 -26 10 -64 29
-85 41 -22 12 -30 15 -18 5z"/>
<path d="M5317 859 c-10 -6 -48 -17 -85 -25 -66 -14 -66 -14 -12 -8 47 5 154
41 125 43 -5 0 -18 -4 -28 -10z"/>
<path d="M5235 775 c-28 -8 -39 -13 -25 -13 14 0 43 5 65 13 51 17 25 17 -40
0z"/>
<path d="M4593 1845 c0 -27 2 -38 4 -22 2 15 2 37 0 50 -2 12 -4 0 -4 -28z"/>
</g>
</svg>
