<?xml version="1.0" standalone="no"?>
<!DOCTYPE svg PUBLIC "-//W3C//DTD SVG 20010904//EN"
 "http://www.w3.org/TR/2001/REC-SVG-20010904/DTD/svg10.dtd">
<svg version="1.0" xmlns="http://www.w3.org/2000/svg"
 width="1024.000000pt" height="559.000000pt" viewBox="0 0 1024.000000 559.000000"
 preserveAspectRatio="xMidYMid meet">
<metadata>
Created by potrace 1.16, written by Peter Selinger 2001-2019
</metadata>
<g transform="translate(0.000000,559.000000) scale(0.100000,-0.100000)"
fill="#000000" stroke="none">
<path d="M5570 4690 c-30 -11 -73 -22 -95 -25 -69 -12 -165 -85 -165 -126 0
-6 -11 -24 -24 -40 -52 -62 -88 -231 -90 -421 -1 -42 -5 -80 -9 -85 -5 -4 -41
-8 -80 -9 -40 0 -119 -11 -177 -23 -58 -12 -144 -31 -191 -41 -122 -26 -173
-54 -255 -135 -60 -60 -80 -89 -132 -196 -33 -69 -82 -189 -108 -267 -46 -134
-51 -144 -116 -217 -71 -82 -85 -116 -75 -182 5 -26 1 -46 -12 -67 -33 -55
-35 -90 -8 -153 31 -71 30 -98 -6 -144 -37 -50 -63 -130 -89 -278 -61 -362 18
-526 331 -690 8 -4 17 -13 19 -19 3 -9 -25 -12 -99 -12 -93 0 -129 -6 -196
-31 -34 -13 -57 -66 -56 -134 1 -354 10 -442 50 -516 39 -73 84 -93 218 -97
119 -4 189 8 204 36 4 9 11 34 15 54 7 40 4 45 -69 103 l-30 23 0 115 c0 122
8 147 49 147 13 0 32 -15 49 -40 42 -59 104 -105 202 -151 115 -53 220 -79
320 -79 130 0 183 20 408 150 117 66 208 110 233 110 20 0 12 -40 -23 -125
-37 -90 -49 -134 -57 -202 l-7 -63 33 -20 c18 -11 67 -27 108 -36 41 -9 129
-32 195 -51 66 -19 152 -37 190 -40 83 -6 180 10 215 36 27 19 38 67 21 84 -6
6 -11 18 -11 27 0 24 -27 45 -85 67 -62 24 -247 145 -274 180 -24 29 -26 55
-10 118 11 42 13 44 60 54 73 16 126 47 153 89 19 31 33 40 74 51 29 7 63 22
77 33 l25 19 0 194 c0 129 6 232 17 307 9 62 16 169 17 238 0 109 -3 133 -23
184 -27 68 -85 130 -154 164 -26 13 -47 24 -47 25 0 1 9 26 20 54 46 123 37
211 -46 451 -29 84 -62 191 -74 237 l-21 85 77 106 c84 115 100 156 110 279 5
57 2 80 -16 128 -13 33 -30 62 -43 68 -32 17 -32 17 -2 41 36 28 51 67 66 170
14 99 3 145 -59 258 -105 191 -336 293 -522 230z m282 -52 c121 -57 198 -140
252 -275 23 -55 24 -66 16 -150 -5 -56 -16 -105 -28 -129 l-20 -39 5 70 5 70
-34 -32 c-42 -41 -50 -41 -36 -3 5 17 7 37 4 46 -5 13 -11 11 -40 -11 -36 -27
-123 -61 -133 -51 -3 3 1 14 10 23 31 35 33 93 2 64 -13 -12 -104 -41 -128
-41 -18 0 -18 1 2 34 26 42 27 61 4 51 -56 -24 -146 -55 -150 -52 -2 2 1 17 7
32 18 46 2 42 -53 -15 -29 -30 -66 -62 -83 -71 -16 -9 -39 -33 -49 -55 l-19
-39 -7 71 c-4 39 -12 81 -18 92 -14 26 -50 37 -92 28 l-31 -6 7 43 c13 84 36
147 71 193 20 26 37 54 39 63 4 32 71 71 165 97 52 13 96 27 100 30 3 4 39 4
80 2 59 -4 91 -12 152 -40z m-522 -418 c16 -16 20 -33 20 -83 0 -41 5 -70 16
-85 19 -28 33 -19 59 38 10 22 27 42 39 46 12 3 37 18 56 32 21 16 45 25 61
24 14 -2 45 4 68 14 43 17 64 13 43 -8 -35 -35 26 -51 107 -28 43 12 46 9 21
-20 -30 -34 -25 -40 33 -40 37 0 64 7 95 25 47 27 48 26 27 -16 -14 -26 -14
-30 0 -35 8 -4 27 1 41 11 14 9 28 14 32 11 8 -9 -17 -76 -39 -105 -11 -13
-19 -29 -19 -36 0 -7 -10 -15 -22 -19 -18 -5 -30 2 -55 29 -19 23 -34 32 -38
25 -13 -21 5 -59 40 -80 47 -29 49 -64 4 -67 -17 -1 -45 5 -61 13 -25 13 -29
20 -23 42 5 24 5 25 -8 12 -8 -9 -19 -55 -25 -109 -8 -64 -17 -100 -28 -110
-15 -15 -16 -13 -10 27 4 27 2 51 -6 65 -7 12 -11 26 -10 30 1 4 -2 17 -8 27
-8 14 -20 19 -48 18 -20 0 -46 2 -58 6 -17 6 -34 -4 -83 -49 -33 -32 -61 -53
-61 -49 0 28 24 88 41 105 12 12 18 23 16 26 -11 10 -46 -38 -58 -79 -14 -48
-24 -64 -32 -51 -4 6 7 38 23 72 17 35 30 70 29 79 0 11 -4 8 -11 -8 -6 -14
-22 -46 -35 -73 -25 -49 -27 -94 -4 -89 7 1 11 -2 9 -7 -3 -11 -91 -81 -95
-77 -2 1 4 27 13 56 25 83 3 150 -44 136 -11 -4 -26 -23 -35 -44 l-15 -37 -1
70 c-1 55 -4 66 -12 52 -6 -11 -11 -55 -11 -98 1 -52 -5 -92 -15 -117 -9 -20
-19 -75 -23 -122 l-5 -85 -52 51 c-77 78 -132 206 -133 310 0 46 10 59 56 68
18 4 53 20 78 37 42 26 49 28 62 14 17 -17 64 -21 64 -5 0 6 -6 10 -14 10 -24
0 -54 48 -61 99 -8 57 8 124 36 152 24 24 44 24 69 -1z m733 -291 c24 -69 41
-254 25 -283 -6 -11 -39 -59 -73 -106 -34 -47 -67 -95 -73 -106 -16 -30 8
-136 78 -344 75 -222 87 -293 65 -386 -16 -70 -64 -158 -91 -168 -31 -12 -89
-5 -131 15 -76 37 -132 117 -193 277 l-30 76 43 44 42 43 6 -98 c4 -88 30
-185 44 -171 3 2 0 41 -6 85 -9 58 -9 133 -1 274 9 178 6 253 -13 350 -10 48
10 88 80 164 31 33 52 51 46 40 -5 -11 -24 -33 -41 -50 -39 -37 -60 -75 -60
-110 0 -34 16 -32 23 3 3 15 28 55 56 90 57 70 76 125 67 192 -3 25 -2 51 3
59 16 25 34 -29 39 -116 3 -46 8 -83 13 -83 15 0 21 89 10 137 -15 65 -18 157
-6 163 16 8 47 -98 53 -177 2 -40 9 -73 13 -73 16 0 9 125 -11 198 -11 39 -20
83 -20 98 0 42 22 23 43 -37z m59 -63 c8 -32 9 -53 1 -77 -11 -34 -11 -34 -12
17 -1 28 -8 71 -16 94 -8 23 -15 50 -14 59 1 20 25 -35 41 -93z m-1002 84 c-8
-5 -27 -10 -41 -10 -82 0 -88 -147 -13 -306 29 -61 95 -139 135 -160 16 -8 29
-21 29 -28 0 -21 -154 -248 -198 -289 l-39 -38 -13 48 c-6 26 -19 69 -27 95
-8 26 -23 93 -33 150 -23 131 -51 205 -101 268 -51 65 -68 65 -24 0 44 -65 70
-138 91 -247 13 -75 59 -263 71 -299 3 -7 -22 -14 -69 -18 -136 -13 -233 -52
-351 -143 -32 -25 -60 -44 -62 -42 -2 2 -10 54 -19 114 -23 167 -58 345 -68
345 -4 0 -6 -17 -3 -37 2 -21 7 -63 10 -93 5 -51 4 -53 -10 -35 -8 10 -21 34
-27 52 -7 18 -16 33 -20 33 -10 0 14 -59 46 -115 15 -27 30 -83 45 -170 14
-85 26 -134 36 -141 13 -10 4 -14 -48 -23 -126 -22 -196 -9 -226 41 -17 27
-17 32 -1 96 10 37 27 108 39 157 32 131 84 272 156 420 49 101 75 142 117
183 92 93 146 116 352 153 66 12 136 27 155 34 43 16 134 20 111 5z m520 -113
c0 -13 -44 -74 -118 -166 -23 -28 -29 -41 -19 -41 18 0 67 53 130 141 45 64
68 84 81 72 3 -4 6 -12 6 -19 0 -19 -76 -141 -122 -196 -22 -26 -38 -53 -36
-59 5 -16 91 82 128 147 17 29 35 56 40 59 40 25 -13 -107 -74 -185 -25 -32
-46 -64 -46 -71 0 -20 48 31 91 96 47 72 52 48 8 -36 -41 -75 -135 -179 -210
-230 -33 -22 -66 -50 -74 -62 -8 -13 -44 -95 -80 -182 -106 -256 -185 -395
-291 -507 -108 -114 -132 -125 -203 -88 -82 41 -184 200 -252 389 l-23 63 24
18 c13 10 52 32 86 49 89 44 264 78 264 51 0 -5 -22 -33 -49 -62 -47 -50 -81
-105 -96 -155 -12 -42 13 -24 44 31 17 30 82 109 145 176 105 111 192 227 246
327 16 31 20 56 20 137 0 93 2 104 40 192 22 52 40 99 40 105 0 6 6 9 13 6 13
-4 14 -56 2 -144 -6 -42 -5 -53 6 -53 18 0 129 89 197 158 50 51 82 66 82 39z
m260 -64 c0 -63 -19 -83 -21 -21 l-1 43 -8 -48 c-12 -70 -21 -71 -16 -1 l5 59
-11 -58 c-7 -42 -7 -62 0 -69 8 -8 -11 -37 -65 -99 -41 -49 -79 -89 -84 -89
-5 0 7 28 26 63 19 35 35 72 35 81 0 10 13 30 28 45 25 22 30 37 36 97 l7 71
34 -11 c34 -11 35 -12 35 -63z m-165 -365 c10 -77 10 -263 1 -340 -5 -42 -12
-59 -25 -63 -24 -7 -99 -83 -107 -107 -8 -27 -21 -22 -33 12 -9 27 -6 39 19
89 40 79 75 173 100 271 35 138 18 132 -29 -10 -57 -173 -285 -633 -340 -687
-41 -40 -93 -65 -169 -82 -83 -17 -91 -12 -32 19 71 38 52 38 -50 0 l-82 -30
72 77 c128 138 201 265 335 586 39 93 65 143 82 155 14 9 54 38 89 64 74 54
72 60 28 -88 -27 -92 -30 -127 -7 -74 25 57 53 162 53 200 0 31 5 37 38 52 20
9 40 17 43 17 3 1 10 -27 14 -61z m-1566 -364 c-9 -39 -15 -51 -19 -38 -6 16
-8 15 -13 -8 -16 -61 41 -151 106 -169 63 -17 231 2 318 36 12 4 20 -6 34 -42
34 -93 110 -225 157 -274 27 -28 71 -60 99 -73 l51 -22 -94 -17 c-52 -9 -112
-17 -134 -17 -62 0 -159 27 -242 67 l-77 36 70 8 c80 8 164 31 215 59 45 25
36 25 -53 0 -172 -48 -336 -46 -422 5 -77 44 -135 153 -114 213 14 40 23 40
39 2 13 -32 35 -42 26 -12 -20 65 -37 161 -32 187 6 29 84 131 93 121 3 -2 -1
-30 -8 -62z m394 -124 c6 -25 -1 -30 -37 -23 l-29 6 24 18 c31 24 36 23 42 -1z
m1035 -96 c15 -3 32 -7 37 -9 6 -1 18 -27 29 -56 10 -30 34 -78 52 -107 19
-29 34 -54 34 -56 0 -2 -30 -6 -66 -10 -85 -9 -266 -44 -317 -62 -22 -8 -43
-12 -45 -9 -3 3 11 22 30 43 23 23 66 98 114 197 l77 160 14 -43 c11 -32 21
-43 41 -48z m32 36 c0 -5 -4 -10 -10 -10 -5 0 -10 5 -10 10 0 6 5 10 10 10 6
0 10 -4 10 -10z m-1504 -276 c40 -31 97 -53 138 -54 15 0 54 -16 86 -35 174
-105 331 -124 561 -65 98 26 220 33 192 12 -29 -21 -166 -60 -257 -74 -100
-14 -246 -2 -387 33 -107 26 -270 105 -334 163 -55 49 -54 62 1 20z m30 -82
c16 -9 15 -12 -9 -41 -27 -32 -67 -145 -66 -185 0 -11 12 13 27 54 26 70 67
150 79 150 2 0 23 -11 46 -24 191 -111 514 -155 727 -100 79 20 158 54 202 87
51 36 117 58 140 46 14 -7 41 -4 102 11 107 27 300 60 349 60 24 0 53 -10 80
-27 30 -19 59 -28 102 -31 55 -4 64 -1 94 24 l33 27 42 -20 c97 -47 147 -119
167 -240 9 -55 8 -95 -6 -208 -29 -246 -35 -337 -34 -468 2 -148 3 -147 -83
-171 -45 -13 -61 -23 -73 -45 -19 -37 -58 -68 -104 -82 -20 -6 -112 -14 -206
-18 -203 -10 -204 -10 -451 -146 -97 -53 -201 -106 -232 -116 -112 -39 -259
-20 -437 56 -74 32 -102 51 -155 104 -111 112 -170 220 -170 312 0 59 -13 59
138 1 74 -28 115 -51 145 -79 23 -22 53 -47 68 -55 42 -26 120 -49 143 -42 17
6 12 9 -28 21 -53 16 -186 95 -169 100 10 4 145 -27 188 -43 l20 -7 -20 21
c-12 13 -58 32 -115 47 -234 64 -412 138 -536 222 -106 72 -152 135 -185 252
-24 84 -24 161 1 319 23 153 40 211 75 264 l26 39 34 -30 c19 -16 42 -34 51
-39z m-6 -967 c0 -3 -27 -46 -60 -95 -57 -85 -80 -107 -80 -76 0 38 22 122 37
138 20 23 103 49 103 33z m130 -11 c0 -31 28 -122 51 -167 21 -43 27 -63 19
-65 -29 -10 -50 -44 -56 -92 l-7 -51 -31 8 c-39 10 -162 10 -197 1 l-26 -8 -5
77 -5 78 39 50 c21 27 58 77 82 111 43 60 44 61 90 60 25 -1 46 -2 46 -2z
m-279 -47 c-6 -16 -9 -122 -6 -264 3 -208 6 -244 23 -283 11 -25 27 -52 37
-60 39 -32 143 -43 293 -29 45 4 53 -11 11 -22 -49 -14 -228 -10 -266 6 -94
40 -112 86 -121 315 -11 279 -9 312 11 344 22 33 32 29 18 -7z m1854 -229 c-4
-13 -10 -46 -12 -75 -4 -47 -2 -54 31 -91 20 -22 36 -42 36 -44 0 -3 -14 -11
-30 -18 -38 -16 -84 -68 -101 -115 -14 -36 -14 -37 -59 -30 -25 4 -48 12 -52
18 -20 31 -70 174 -70 201 0 49 35 165 52 170 8 2 59 4 114 5 98 1 98 1 91
-21z m-1607 -119 c31 -10 42 -32 42 -80 0 -26 0 -27 -37 -13 -54 19 -115 17
-178 -5 l-55 -19 0 49 c0 47 2 51 33 64 38 17 151 19 195 4z m1381 -217 c14
-26 2 -28 -47 -11 -35 12 -44 37 -33 95 14 72 23 73 47 2 12 -35 27 -75 33
-86z m-1386 99 c23 -6 52 -24 73 -45 19 -20 41 -36 49 -36 21 0 37 -34 23 -48
-18 -18 -56 -14 -62 6 -8 24 -54 67 -63 59 -3 -4 3 -17 15 -30 12 -13 22 -31
22 -40 0 -30 -29 -18 -44 17 -14 34 -33 53 -43 43 -3 -3 2 -16 11 -29 21 -30
20 -48 -2 -48 -13 0 -24 13 -35 40 -8 22 -21 40 -27 40 -8 0 -9 -7 -5 -17 4
-10 10 -29 13 -41 4 -19 1 -23 -14 -20 -11 2 -21 15 -25 36 -4 19 -12 39 -19
45 -10 10 -11 4 -6 -25 11 -63 -20 -59 -54 7 -27 53 -25 62 13 74 72 22 121
25 180 12z m1742 -16 l36 -24 -33 -14 c-37 -16 -98 -79 -98 -103 0 -23 -24
-27 -64 -10 l-37 15 16 38 c21 50 51 82 100 104 22 10 41 19 42 19 1 0 18 -11
38 -25z m219 -136 c8 -12 12 -27 9 -32 -3 -6 -10 -1 -14 10 -10 28 -48 53 -79
53 -23 -1 -22 -3 13 -21 41 -21 56 -44 40 -60 -7 -7 -13 -2 -17 15 -5 19 -19
30 -62 46 -31 11 -62 19 -68 17 -12 -4 24 -27 69 -42 39 -13 44 -41 10 -57
-22 -10 -35 -9 -75 5 -26 9 -61 17 -78 17 -39 0 -47 12 -28 47 21 40 56 70 96
81 30 8 44 4 102 -24 36 -19 73 -43 82 -55z m-564 4 c41 -7 125 -29 185 -48
61 -20 118 -35 128 -35 9 0 44 -7 76 -16 54 -15 61 -15 91 0 18 9 40 16 49 16
9 0 28 7 44 14 23 13 27 13 27 1 0 -32 -61 -50 -170 -50 -92 0 -121 5 -230 37
-69 21 -158 44 -198 53 -40 8 -82 20 -93 25 -24 13 -26 35 -1 24 9 -4 51 -13
92 -21z"/>
<path d="M5263 4185 c-17 -14 -16 -14 8 -15 34 0 47 -45 18 -61 -20 -10 -26
-54 -9 -64 6 -3 10 4 10 15 0 13 8 24 20 27 22 6 26 35 11 76 -12 31 -34 39
-58 22z"/>
<path d="M5807 4021 c-10 -19 -15 -36 -13 -38 8 -8 38 46 34 59 -3 7 -12 -3
-21 -21z"/>
<path d="M5520 4033 c0 -13 128 -43 184 -43 43 0 66 13 66 38 0 10 -8 12 -32
6 -38 -9 -38 -9 -140 1 -52 5 -78 4 -78 -2z"/>
<path d="M5530 3962 c0 -16 47 -52 77 -61 33 -10 83 -4 83 10 0 5 -17 9 -39 9
-24 0 -51 9 -75 25 -40 27 -46 29 -46 17z"/>
<path d="M4954 3535 c4 -22 9 -95 13 -163 3 -72 10 -118 14 -110 5 7 9 36 9
63 0 55 -27 236 -37 245 -3 3 -3 -13 1 -35z"/>
<path d="M5507 3234 c-10 -39 -17 -93 -15 -120 3 -42 6 -49 25 -52 28 -4 39
31 28 96 -4 26 -11 70 -14 97 l-6 50 -18 -71z m22 -111 c1 -24 -3 -43 -8 -43
-18 0 -23 21 -15 73 5 40 9 47 15 32 4 -11 8 -39 8 -62z"/>
<path d="M5413 3043 c-28 -43 -65 -98 -84 -123 l-33 -45 38 35 c44 41 99 120
121 173 8 20 14 37 12 37 -3 0 -27 -35 -54 -77z"/>
<path d="M5384 2828 c-26 -35 -86 -103 -133 -152 -90 -93 -82 -102 13 -15 56
51 135 150 162 201 23 44 9 33 -42 -34z"/>
<path d="M4430 2729 c-105 -22 -209 -24 -256 -4 -26 11 -34 11 -32 2 7 -20 69
-36 144 -36 67 -1 205 27 242 48 24 14 6 12 -98 -10z"/>
<path d="M5510 2721 c-16 -62 -10 -105 16 -109 28 -4 34 22 23 84 -13 67 -25
75 -39 25z m29 -63 c1 -29 -13 -38 -22 -15 -2 6 -2 28 1 47 4 29 6 32 13 15 4
-11 8 -32 8 -47z"/>
<path d="M5150 2375 c-45 -42 -103 -87 -128 -102 -50 -30 -43 -44 10 -17 57
29 173 132 201 180 15 26 -1 14 -83 -61z"/>
<path d="M5360 2409 c-1 -2 -7 -40 -15 -84 -24 -133 -19 -195 16 -195 37 0 42
33 24 158 -14 97 -24 143 -25 121z m19 -216 c1 -32 -3 -43 -14 -43 -20 0 -23
35 -8 110 l6 35 7 -30 c4 -16 8 -49 9 -72z"/>
<path d="M4460 2301 c14 -5 42 -9 64 -10 39 -1 128 -21 204 -47 50 -16 63 -18
42 -4 -37 24 -176 60 -252 65 -54 3 -74 2 -58 -4z"/>
<path d="M5675 2254 c-175 -161 -275 -223 -405 -250 -84 -17 -98 -24 -51 -24
102 0 246 66 358 163 62 53 172 167 161 167 -1 0 -30 -25 -63 -56z"/>
<path d="M5220 2255 c-25 -25 -70 -58 -100 -73 -71 -35 -180 -37 -285 -5 -222
68 -362 67 -512 -4 -29 -14 -58 -34 -63 -43 -8 -14 2 -12 43 11 140 75 335 79
532 10 87 -31 222 -29 290 3 55 25 107 72 131 117 8 16 13 29 11 29 -1 0 -23
-20 -47 -45z"/>
<path d="M5840 2136 c-80 -163 -191 -337 -290 -454 -34 -41 -60 -76 -57 -78 9
-10 155 157 211 241 71 107 165 288 194 375 12 35 21 64 19 66 -1 1 -36 -66
-77 -150z"/>
<path d="M6158 1929 c-50 -211 -95 -518 -70 -479 5 8 13 40 16 70 9 69 29 187
62 358 32 169 27 202 -8 51z"/>
<path d="M5030 1987 c0 -3 29 -26 64 -51 35 -25 98 -83 141 -128 75 -81 76
-82 44 -30 -35 57 -118 139 -182 179 -43 27 -67 38 -67 30z"/>
<path d="M5882 1737 c-28 -56 -79 -145 -113 -197 -64 -99 -54 -106 12 -8 57
83 170 308 156 308 -2 0 -26 -46 -55 -103z"/>
<path d="M5366 1513 c1 -192 0 -183 24 -183 28 0 40 30 40 97 -1 70 -12 125
-42 193 l-23 52 1 -159z m39 -62 c0 -67 -4 -95 -12 -98 -10 -4 -13 23 -13 114
1 96 3 114 13 98 7 -12 12 -59 12 -114z"/>
<path d="M4406 1488 c21 -70 78 -149 138 -190 22 -16 14 -4 -26 39 -31 34 -68
87 -83 118 -28 57 -42 72 -29 33z"/>
<path d="M5224 1204 c-79 -83 -81 -100 -3 -27 40 37 91 106 77 102 -2 0 -35
-34 -74 -75z"/>
<path d="M5070 1202 c-59 -24 -78 -26 -197 -27 -151 0 -156 -16 -6 -23 101 -5
209 20 254 58 30 25 28 24 -51 -8z"/>
<path d="M4157 1442 c-23 -25 -21 -59 3 -72 19 -10 20 -10 8 9 -16 27 -1 55
33 59 41 6 46 22 8 22 -22 0 -42 -7 -52 -18z"/>
<path d="M5645 1167 c-18 -43 -19 -61 -5 -88 16 -28 32 -24 18 5 -8 18 -8 37
0 68 14 54 7 62 -13 15z"/>
<path d="M5360 983 c0 -29 -7 -84 -15 -124 -17 -78 -14 -104 13 -114 25 -9 52
30 52 77 0 49 -28 190 -41 203 -5 5 -9 -11 -9 -42z m29 -144 c1 -37 -4 -61
-13 -68 -22 -18 -25 7 -13 94 13 87 24 75 26 -26z"/>
<path d="M5093 809 c-44 -13 -42 -36 5 -56 l37 -17 -143 -13 c-163 -14 -212
-25 -236 -52 -14 -15 -14 -20 -3 -29 19 -16 136 -32 235 -32 82 0 93 -5 70
-29 -11 -10 -9 -16 9 -30 19 -16 53 -19 261 -25 132 -4 257 -4 279 -1 62 10
113 36 113 57 0 12 -13 25 -37 35 l-38 17 53 8 c96 15 119 44 60 74 -22 11
-67 19 -132 22 -86 4 -99 7 -103 24 -6 20 -40 33 -70 25 -13 -3 -9 -6 15 -12
21 -5 32 -13 32 -25 0 -24 19 -30 108 -31 81 -1 155 -17 154 -34 -1 -9 -17
-14 -104 -29 -49 -9 -48 -29 2 -49 22 -8 40 -20 40 -26 0 -6 -25 -18 -56 -27
-48 -14 -90 -15 -298 -9 -132 3 -249 9 -259 12 -18 5 -18 6 -1 24 29 32 5 41
-138 51 -73 5 -144 13 -158 18 -25 8 -25 8 10 23 19 8 96 21 169 27 151 14
183 21 189 38 2 7 -9 17 -25 22 -61 23 -59 22 -38 30 11 5 63 9 115 10 66 2
86 5 65 10 -42 11 -144 10 -182 -1z"/>
<path d="M5855 633 c-27 -7 -45 -22 -45 -39 0 -31 132 -41 167 -12 37 31 -52
68 -122 51z m83 -19 c53 -15 -1 -34 -72 -26 -20 2 -36 8 -36 12 0 16 67 25
108 14z"/>
</g>
</svg>
