<?xml version="1.0" standalone="no"?>
<!DOCTYPE svg PUBLIC "-//W3C//DTD SVG 20010904//EN"
 "http://www.w3.org/TR/2001/REC-SVG-20010904/DTD/svg10.dtd">
<svg version="1.0" xmlns="http://www.w3.org/2000/svg"
 width="1024.000000pt" height="559.000000pt" viewBox="0 0 1024.000000 559.000000"
 preserveAspectRatio="xMidYMid meet">
<metadata>
Created by potrace 1.16, written by Peter Selinger 2001-2019
</metadata>
<g transform="translate(0.000000,559.000000) scale(0.100000,-0.100000)"
fill="#000000" stroke="none">
<path d="M5790 4790 l-25 -25 26 -25 25 -25 23 28 c20 24 21 28 6 33 -9 4 -20
14 -23 23 -6 14 -11 12 -32 -9z m34 -34 c-5 -13 -9 -14 -20 -5 -11 9 -12 15
-3 26 15 17 32 2 23 -21z"/>
<path d="M5973 4741 c1 -12 6 -20 12 -18 14 5 13 29 -2 34 -7 3 -11 -4 -10
-16z"/>
<path d="M5660 4701 c0 -5 5 -13 10 -16 6 -3 10 -2 10 4 0 5 -4 13 -10 16 -5
3 -10 2 -10 -4z"/>
<path d="M6094 4655 c-9 -23 3 -45 25 -45 23 0 32 18 19 43 -11 21 -37 22 -44
2z m36 -20 c0 -8 -7 -15 -15 -15 -8 0 -15 7 -15 15 0 8 7 15 15 15 8 0 15 -7
15 -15z"/>
<path d="M5900 4586 c-6 -20 -23 -44 -36 -53 l-25 -16 23 -11 c13 -6 31 -27
40 -46 12 -22 18 -28 18 -16 0 10 15 33 34 52 31 31 32 34 14 40 -11 3 -28 24
-38 46 l-18 40 -12 -36z m38 -38 l21 -23 -23 -26 -23 -26 -21 24 c-21 24 -21
25 -4 48 21 30 24 30 50 3z"/>
<path d="M5730 4590 c0 -15 5 -20 18 -18 9 2 17 10 17 18 0 8 -8 16 -17 18
-13 2 -18 -3 -18 -18z m30 0 c0 -5 -4 -10 -10 -10 -5 0 -10 5 -10 10 0 6 5 10
10 10 6 0 10 -4 10 -10z"/>
<path d="M3563 4593 c-25 -9 -13 -56 28 -110 l40 -54 -61 45 c-74 54 -97 63
-117 43 -20 -20 -7 -43 59 -101 29 -25 50 -46 46 -46 -4 0 -30 9 -59 20 -56
22 -89 19 -89 -9 0 -23 23 -41 89 -71 l55 -25 -55 -5 c-46 -4 -54 -8 -57 -27
-4 -28 23 -42 105 -54 42 -6 75 -17 96 -33 18 -14 53 -33 78 -44 38 -17 57
-36 119 -123 183 -259 211 -288 381 -397 l96 -62 6 -55 c9 -92 20 -104 136
-156 57 -26 107 -51 111 -56 5 -4 20 -68 34 -142 l26 -133 -23 -42 c-43 -73
-51 -111 -32 -148 10 -22 14 -45 10 -68 -5 -28 -1 -44 19 -73 32 -46 32 -49 2
-95 -35 -53 -66 -152 -77 -248 -7 -66 -16 -93 -42 -135 -31 -51 -32 -56 -35
-179 l-4 -128 -39 -15 c-38 -15 -51 -33 -63 -87 -4 -16 -31 -43 -70 -72 -47
-34 -66 -55 -71 -77 -9 -43 -49 -71 -99 -71 -51 0 -110 -16 -125 -34 -6 -7
-18 -42 -25 -77 -50 -221 -58 -312 -32 -373 21 -50 80 -91 132 -91 65 0 84 24
96 125 19 157 53 256 97 280 16 8 25 3 59 -38 21 -26 57 -75 80 -108 88 -131
187 -188 366 -209 104 -12 123 -17 183 -52 l68 -39 -3 -48 c-2 -26 -15 -79
-28 -117 -29 -83 -31 -149 -6 -171 23 -21 234 -103 297 -116 32 -7 68 -7 98
-2 87 17 104 37 87 101 -10 35 -18 43 -78 73 -37 19 -93 58 -124 86 -61 54
-65 64 -52 141 5 31 11 38 36 43 16 3 45 21 64 40 19 19 51 40 72 47 74 23 82
39 82 163 0 61 9 181 20 266 22 171 25 340 10 488 -18 166 -50 372 -77 492
-32 140 -31 166 7 205 42 44 51 77 50 184 -1 84 22 286 34 298 2 2 24 -2 48
-10 24 -9 60 -18 81 -22 36 -7 37 -6 68 44 l32 51 111 -6 c102 -6 116 -5 166
17 95 40 182 97 311 204 101 85 133 106 173 115 27 6 69 19 94 30 24 11 65 21
91 21 73 2 105 12 109 33 5 25 -23 46 -62 47 -25 1 -20 4 28 19 66 21 92 41
83 64 -7 18 -70 22 -111 6 -41 -15 -30 3 14 24 51 24 80 52 80 76 0 33 -35 33
-101 0 -34 -17 -63 -29 -65 -27 -2 2 15 20 37 41 27 26 39 46 37 60 -6 39 -41
30 -119 -29 -41 -31 -87 -63 -102 -71 l-28 -15 6 43 c6 47 -8 83 -38 102 -24
15 -47 -15 -47 -61 0 -19 -11 -60 -25 -93 -14 -33 -25 -73 -25 -89 0 -42 -37
-65 -240 -151 -41 -17 -107 -48 -146 -69 -44 -24 -76 -36 -85 -31 -8 4 -30 11
-49 15 -19 4 -42 15 -50 24 -8 10 -44 28 -80 41 -36 12 -100 40 -142 61 -43
22 -83 39 -89 39 -6 0 -24 14 -39 30 -19 21 -38 30 -58 30 -17 0 -34 5 -37 10
-3 6 -19 10 -35 10 -16 0 -32 5 -35 10 -3 6 -15 10 -26 10 -35 0 -20 25 31 48
34 16 52 30 56 47 3 13 4 84 2 158 -3 124 -5 136 -29 173 -25 38 -43 89 -58
169 -12 60 -18 69 -74 117 l-52 43 -90 -1 c-79 0 -98 -4 -157 -31 -87 -41
-164 -116 -173 -169 -4 -22 -14 -58 -22 -82 -19 -50 -13 -112 17 -179 12 -28
56 -83 110 -138 86 -87 101 -113 82 -143 -7 -10 -28 -6 -99 18 -50 16 -111 30
-135 30 -24 0 -73 11 -108 25 -35 14 -82 25 -104 25 -63 1 -139 39 -181 89
-20 24 -82 82 -138 129 -56 46 -126 107 -154 135 -50 49 -53 55 -53 104 0 28
-5 64 -11 80 -7 15 -15 62 -18 103 -6 72 -7 75 -33 78 -33 4 -50 -23 -58 -91
l-5 -49 -40 39 c-22 21 -64 64 -93 96 -53 57 -56 60 -79 50z m99 -105 c85 -94
124 -121 138 -98 6 8 10 38 10 66 0 33 5 56 15 64 16 13 18 9 15 -31 0 -15 6
-53 14 -87 9 -33 16 -85 16 -116 0 -54 1 -57 62 -122 34 -36 89 -87 123 -112
33 -25 98 -82 145 -127 67 -65 100 -88 155 -111 39 -15 73 -33 77 -39 26 -37
13 -255 -15 -255 -6 0 -70 37 -142 81 -164 103 -239 175 -370 359 -111 157
-127 174 -165 185 -14 4 -50 23 -80 41 -39 24 -74 36 -119 41 -89 11 -94 33
-8 33 l65 0 12 38 c7 20 23 56 36 79 l24 42 -50 66 c-49 64 -59 85 -42 85 5 0
43 -37 84 -82z m-90 -44 c59 -42 66 -50 53 -63 -16 -16 -11 -19 -97 52 -51 43
-70 72 -41 65 10 -3 48 -27 85 -54z m1503 5 c42 -11 125 -82 125 -107 0 -7
-11 -1 -26 15 -17 19 -27 24 -31 15 -3 -9 -12 -7 -34 9 -29 20 -49 19 -49 -4
0 -7 -8 -24 -17 -37 l-17 -24 -6 24 c-9 37 -23 33 -43 -10 -19 -40 -37 -53
-37 -25 0 26 -29 16 -36 -12 -4 -16 -13 -41 -21 -56 -11 -22 -17 -26 -27 -18
-19 16 -19 -124 0 -161 20 -38 18 -40 -20 -21 -47 22 -85 11 -93 -27 -3 -17
-9 -30 -13 -30 -4 0 -17 23 -29 51 -22 54 -28 137 -12 167 6 9 13 35 16 56 5
30 20 52 63 96 48 47 69 60 137 83 89 29 112 32 170 16z m-1547 -95 c70 -26
83 -36 62 -49 -12 -7 -150 54 -150 66 0 13 8 11 88 -17z m1625 -24 c9 0 25
-13 36 -29 l21 -29 -30 -6 c-41 -8 -38 -26 5 -26 25 0 37 -5 41 -17 3 -10 19
-46 36 -80 27 -55 31 -76 36 -172 2 -60 2 -121 -2 -135 -9 -38 -53 -56 -139
-56 -84 0 -129 12 -171 47 -33 27 -43 25 -26 -7 16 -30 91 -61 162 -67 l59 -6
-7 -75 c-5 -56 -4 -73 4 -68 7 4 12 17 12 29 0 15 3 18 11 10 5 -5 9 -32 7
-59 l-3 -49 -65 0 c-80 0 -151 32 -227 102 -51 48 -51 48 -30 64 19 15 22 27
24 108 2 89 -2 102 -24 80 -26 -26 -105 28 -118 81 -4 15 0 33 9 45 15 19 16
19 46 3 63 -36 86 -18 54 44 -18 34 -11 123 10 131 7 3 18 24 25 48 11 38 14
41 24 24 9 -17 13 -16 43 21 25 29 34 34 34 21 0 -30 33 -15 55 25 l19 36 27
-19 c15 -10 34 -19 42 -19z m1295 -498 c2 -48 7 -72 15 -72 17 0 73 36 143 91
60 47 84 59 84 40 0 -5 -26 -32 -57 -60 -55 -48 -57 -52 -44 -73 8 -13 22 -48
31 -78 l16 -55 63 -10 c76 -12 70 -25 -11 -25 -39 0 -78 -8 -117 -24 -33 -13
-77 -27 -99 -31 -30 -5 -72 -33 -175 -115 -143 -114 -218 -163 -311 -206 -53
-24 -59 -25 -147 -15 -50 6 -94 12 -96 15 -2 2 2 28 11 57 8 30 17 79 21 110
l6 55 58 -15 58 -15 64 36 c35 20 105 53 154 73 116 48 182 81 223 112 26 19
32 31 32 61 0 20 10 57 21 82 11 25 23 67 26 93 9 72 28 53 31 -31z m-1560 4
c3 -15 1 -16 -17 -4 -26 16 -27 27 -3 24 9 -2 19 -11 20 -20z m1897 -15 c-3
-5 -39 -30 -80 -54 -66 -40 -76 -43 -84 -29 -8 14 2 23 62 54 69 35 115 48
102 29z m-2259 -44 c32 -13 88 -26 124 -30 72 -7 190 -43 190 -59 0 -5 24 -34
53 -65 70 -75 168 -123 249 -123 68 0 68 -1 37 -92 -53 -153 -158 -327 -259
-429 -92 -91 -232 -159 -244 -116 -2 6 -9 55 -16 107 -7 52 -20 136 -31 185
-23 109 -23 106 -4 99 8 -4 15 -1 15 5 0 14 -68 52 -160 92 -41 17 -76 33 -78
34 -2 2 8 25 21 52 14 26 30 72 36 101 13 64 14 185 2 230 -5 17 -6 32 -2 32
4 0 34 -11 67 -23z m2274 -66 c0 -4 -28 -16 -62 -25 -35 -10 -71 -20 -81 -23
-14 -4 -18 0 -15 14 2 13 18 21 63 29 77 15 95 16 95 5z m-1533 -50 c18 -21
22 -23 23 -8 0 24 25 21 43 -5 13 -19 18 -20 26 -9 5 8 16 11 25 8 75 -29 101
-482 43 -727 -14 -58 -28 -114 -32 -125 -3 -11 2 -6 12 10 l18 30 3 -64 c3
-58 0 -67 -26 -100 -29 -37 -115 -75 -154 -69 -16 2 -11 9 23 36 56 42 32 41
-49 -4 -85 -46 -170 -68 -236 -59 -57 7 -125 33 -91 34 11 1 49 15 84 31 85
41 193 149 244 246 50 97 47 101 -11 13 -62 -95 -165 -196 -235 -232 -104 -52
-224 -59 -306 -18 -44 23 -61 46 -61 86 0 23 2 24 20 15 27 -14 25 -7 -10 42
-16 22 -30 47 -30 54 0 21 31 94 40 94 11 0 19 -64 9 -68 -16 -7 -9 -31 12
-43 60 -32 186 27 294 136 96 98 171 216 231 363 67 166 78 263 38 360 -9 20
29 2 53 -27z m262 -105 c36 -19 101 -46 144 -61 l77 -28 0 -42 c0 -90 -80
-315 -112 -315 -23 0 -148 43 -148 51 0 4 13 23 29 41 28 33 76 118 66 118 -3
0 -21 -25 -41 -55 -20 -30 -40 -55 -45 -55 -4 0 1 30 12 67 23 80 24 131 1 58
l-15 -50 -18 135 c-9 74 -20 143 -24 153 -10 24 -1 22 74 -17z m-1119 -77 c0
-16 -30 -69 -39 -69 -11 0 -21 36 -21 78 l0 33 30 -16 c17 -9 30 -20 30 -26z
m295 -874 c22 -8 60 -14 85 -15 25 0 72 -9 103 -20 86 -30 134 -34 207 -16 36
9 90 18 120 21 30 2 72 7 93 10 99 17 -16 -47 -121 -67 -87 -16 -273 -5 -362
22 -72 21 -170 65 -170 75 0 7 -1 7 45 -10z m-7 -114 c-16 -31 -31 -74 -34
-96 -4 -35 -2 -31 24 30 15 39 34 79 41 91 l13 20 82 -25 c71 -22 100 -25 238
-25 87 -1 158 -2 158 -3 0 -1 -18 -46 -40 -100 -63 -154 -173 -332 -295 -478
-72 -87 -84 -104 -46 -70 136 123 331 435 377 602 15 56 20 63 48 69 17 3 43
13 58 20 27 14 27 13 37 -23 6 -21 19 -85 30 -143 74 -406 86 -625 51 -920
-11 -91 -20 -211 -20 -266 l0 -102 -55 -22 c-30 -12 -67 -35 -84 -50 -73 -70
-205 -66 -332 11 -60 36 -77 41 -187 55 -66 8 -138 22 -159 30 -64 26 -140 91
-183 154 -23 34 -62 86 -88 118 -59 73 -92 142 -99 208 -5 47 -3 55 18 73 13
11 40 34 60 50 20 17 39 31 43 31 3 0 6 -17 7 -37 0 -21 4 -47 9 -58 6 -13 9
15 9 80 1 100 1 101 30 118 36 21 41 21 41 0 0 -13 3 -14 12 -5 7 7 14 67 18
159 5 108 11 156 23 178 9 17 16 23 17 16 0 -10 3 -11 9 -5 5 5 17 59 26 119
17 120 34 184 60 236 30 58 32 59 74 36 l38 -21 -29 -55z m-484 -968 c3 -21
13 -51 21 -67 16 -31 16 -32 -27 -56 -13 -8 -37 -60 -54 -117 -2 -9 -15 -7
-46 7 -24 11 -58 20 -76 20 l-33 0 7 46 c6 39 16 56 66 107 51 52 108 94 129
96 4 1 9 -16 13 -36z m-114 9 c0 -4 -18 -26 -40 -47 -30 -30 -40 -35 -40 -21
0 10 13 31 29 47 28 28 51 37 51 21z m-101 -77 c-6 -28 -19 -93 -29 -145 -11
-52 -24 -117 -29 -145 -8 -44 -9 -46 -10 -15 -1 39 45 301 60 339 15 37 18 21
8 -34z m106 -192 c35 -17 40 -29 29 -70 -6 -22 -6 -22 -43 -4 -20 10 -53 21
-73 25 -39 7 -47 22 -32 61 8 20 63 15 119 -12z m-24 -94 c21 -10 40 -22 42
-26 2 -5 1 -33 -2 -63 -5 -43 -10 -56 -25 -58 -17 -4 -18 0 -12 39 5 41 5 42
-9 25 -8 -11 -15 -23 -15 -28 0 -4 -5 -8 -11 -8 -7 0 -8 11 -4 31 5 22 4 29
-4 25 -6 -4 -11 -14 -11 -22 0 -8 -5 -14 -11 -14 -7 0 -9 10 -5 25 4 14 2 25
-4 25 -5 0 -10 -7 -10 -15 0 -8 -4 -15 -9 -15 -5 0 -7 10 -3 22 3 14 2 19 -6
14 -8 -5 -12 5 -12 35 l0 41 37 -7 c20 -4 54 -15 74 -26z m-68 -148 c-5 -6
-63 51 -63 61 0 5 15 -6 34 -24 18 -18 31 -35 29 -37z m44 -7 c-3 -3 -12 -4
-19 -1 -8 3 -5 6 6 6 11 1 17 -2 13 -5z m1107 -155 c-6 -55 -5 -58 29 -95 l35
-39 -36 -20 c-21 -11 -44 -35 -52 -53 -13 -27 -19 -31 -40 -26 -14 3 -25 6
-26 7 0 1 -14 39 -32 84 -26 68 -29 87 -21 115 5 18 9 49 9 68 l0 36 70 -10
71 -10 -7 -57z m-151 -126 c3 -10 12 -35 21 -56 l17 -39 -23 7 c-40 12 -50 29
-43 69 8 39 20 47 28 19z m266 -47 c10 -12 7 -18 -17 -30 -17 -9 -39 -27 -49
-42 -15 -20 -25 -25 -41 -20 -30 10 -28 37 6 68 42 40 81 49 101 24z m77 -51
c10 -8 15 -15 10 -15 -4 0 2 -9 15 -19 19 -16 22 -22 12 -32 -11 -11 -13 -10
-13 3 0 8 -6 20 -12 25 -20 16 -68 25 -68 13 0 -5 11 -12 24 -16 30 -7 42 -32
20 -41 -15 -5 -124 16 -124 24 0 15 25 45 48 57 35 19 63 20 88 1z m-309 -20
c40 -13 94 -33 120 -44 26 -11 74 -27 106 -35 55 -14 62 -14 110 4 59 22 71
20 31 -7 -47 -31 -151 -23 -254 19 -47 19 -106 42 -132 52 -26 10 -50 22 -53
27 -8 12 -11 12 72 -16z m363 -7 c0 -6 -6 -5 -15 2 -8 7 -15 14 -15 16 0 2 7
1 15 -2 8 -4 15 -11 15 -16z"/>
<path d="M3757 4343 c-13 -12 -7 -79 9 -99 14 -18 15 -18 8 5 -3 13 -6 41 -6
63 1 40 0 42 -11 31z"/>
<path d="M4971 4204 c-17 -14 -31 -32 -31 -40 0 -18 10 -18 24 1 6 9 29 22 51
29 49 17 58 36 17 36 -18 0 -43 -11 -61 -26z"/>
<path d="M5140 4194 c0 -8 19 -35 42 -60 34 -37 40 -49 31 -62 -5 -9 -21 -19
-34 -20 -41 -6 -46 -22 -7 -22 41 0 68 21 68 52 0 12 -22 45 -50 74 -27 29
-50 46 -50 38z"/>
<path d="M5192 4189 c1 -13 8 -23 13 -21 15 3 12 35 -3 40 -9 3 -13 -3 -10
-19z"/>
<path d="M5010 4141 c0 -19 23 -35 34 -24 14 15 5 43 -14 43 -13 0 -20 -7 -20
-19z"/>
<path d="M5165 3985 c-49 -13 -93 -21 -97 -19 -20 13 -5 -36 15 -49 76 -49
161 -37 172 26 13 67 10 68 -90 42z m58 -24 c-24 -20 -106 -37 -125 -25 -13 8
83 42 122 43 l25 0 -22 -18z"/>
<path d="M4787 3993 c-13 -13 -7 -21 13 -16 15 4 20 0 20 -14 0 -20 18 -43 34
-43 5 0 1 9 -8 19 -13 15 -14 20 -4 24 10 4 8 10 -6 21 -21 17 -38 20 -49 9z"/>
<path d="M5195 3860 l-30 -8 32 -1 c17 0 35 4 38 9 7 11 3 11 -40 0z"/>
<path d="M6470 3696 c0 -24 -3 -53 -6 -63 -5 -16 -4 -16 10 1 18 22 22 91 6
101 -6 4 -10 -11 -10 -39z"/>
<path d="M4631 3470 c0 -20 57 -189 58 -170 1 21 -23 108 -42 150 -8 19 -16
28 -16 20z"/>
<path d="M4740 3349 c0 -26 56 -182 88 -244 52 -103 64 -105 17 -3 -25 54 -57
133 -71 175 -27 82 -34 96 -34 72z"/>
<path d="M5298 3473 c3 -113 0 -164 -12 -217 -20 -86 -13 -98 11 -20 14 46 18
92 18 204 0 84 -4 153 -11 163 -7 13 -9 -24 -6 -130z"/>
<path d="M5381 3523 c4 -26 8 -82 9 -123 1 -62 3 -70 11 -45 10 33 -5 193 -19
207 -5 5 -6 -12 -1 -39z"/>
<path d="M5261 3364 c0 -11 3 -14 6 -6 3 7 2 16 -1 19 -3 4 -6 -2 -5 -13z"/>
<path d="M5243 3299 c-6 -24 -25 -80 -42 -124 -27 -69 -55 -121 -153 -282 -32
-53 -16 -38 36 32 80 109 184 349 174 401 -1 10 -8 -3 -15 -27z"/>
<path d="M5390 3143 c-28 -148 -90 -323 -151 -423 l-21 -35 30 33 c62 69 126
239 152 405 16 96 7 113 -10 20z"/>
<path d="M4840 2774 c-61 -36 -84 -44 -123 -44 -30 0 -46 -4 -42 -10 20 -33
171 17 225 75 13 14 22 25 19 24 -2 0 -38 -20 -79 -45z"/>
<path d="M5291 2405 c-65 -280 -249 -632 -421 -806 -103 -105 -195 -161 -302
-183 -49 -11 -33 -29 19 -22 181 25 409 250 563 556 90 179 180 439 180 521 0
57 -18 27 -39 -66z"/>
<path d="M4990 2304 c-141 -144 -341 -240 -419 -201 -32 16 -40 10 -19 -11 7
-7 37 -12 67 -12 101 1 239 72 351 181 56 55 100 109 88 109 -2 0 -33 -30 -68
-66z"/>
<path d="M5262 1950 c0 -14 2 -19 5 -12 2 6 2 18 0 25 -3 6 -5 1 -5 -13z"/>
<path d="M5237 1835 c-42 -206 -102 -374 -206 -570 -60 -115 -51 -117 15 -4
58 100 114 228 148 340 33 110 68 274 64 302 -2 12 -11 -19 -21 -68z"/>
<path d="M4438 1785 c-5 -22 13 -99 31 -133 12 -23 49 -47 58 -38 3 3 -2 12
-11 21 -23 24 -47 73 -61 125 -8 32 -13 39 -17 25z"/>
<path d="M5357 1448 c-34 -155 -57 -286 -56 -318 2 -29 2 -27 55 232 41 204
42 270 1 86z"/>
<path d="M5037 1518 c-57 -95 -152 -199 -263 -286 -25 -20 -22 -19 25 5 67 35
176 150 231 245 22 39 39 73 37 75 -3 2 -16 -15 -30 -39z"/>
<path d="M4360 1446 c24 -28 76 -56 102 -56 7 0 -7 10 -32 21 -25 11 -56 30
-70 42 l-25 22 25 -29z"/>
<path d="M6210 4535 c0 -8 5 -15 10 -15 6 0 10 7 10 15 0 8 -4 15 -10 15 -5 0
-10 -7 -10 -15z"/>
<path d="M5583 4523 c-20 -7 -16 -50 5 -55 9 -3 23 -3 30 -1 14 5 17 53 3 53
-5 0 -7 -8 -4 -19 6 -23 -8 -33 -27 -21 -12 8 -13 13 -2 30 7 11 11 20 10 19
-2 0 -9 -3 -15 -6z"/>
<path d="M6088 4443 c7 -3 16 -2 19 1 4 3 -2 6 -13 5 -11 0 -14 -3 -6 -6z"/>
<path d="M5765 4400 c-11 -17 5 -32 21 -19 7 6 11 15 8 20 -7 12 -21 11 -29
-1z"/>
<path d="M6222 4383 c5 -25 28 -28 28 -4 0 12 -6 21 -16 21 -9 0 -14 -7 -12
-17z"/>
<path d="M5640 4345 c-10 -12 -10 -18 0 -29 16 -20 42 -8 38 17 -4 26 -21 32
-38 12z m30 -15 c0 -5 -7 -10 -16 -10 -8 0 -12 5 -9 10 3 6 10 10 16 10 5 0 9
-4 9 -10z"/>
<path d="M6110 4308 c0 -9 -13 -27 -29 -41 l-29 -24 23 -13 c13 -7 27 -24 31
-39 l7 -26 14 34 c8 18 23 35 33 38 25 7 26 23 1 23 -11 0 -25 13 -35 33 -8
17 -16 25 -16 15z m19 -80 c-10 -19 -11 -19 -30 -2 -18 16 -18 18 -2 36 16 18
18 18 30 2 9 -12 9 -22 2 -36z"/>
<path d="M5897 4294 c-8 -8 1 -24 14 -24 5 0 9 7 9 15 0 15 -12 20 -23 9z"/>
<path d="M5797 4193 c-20 -19 1 -53 33 -53 12 0 20 28 14 45 -6 15 -35 20 -47
8z m33 -23 c0 -21 -15 -27 -25 -10 -7 12 2 30 16 30 5 0 9 -9 9 -20z"/>
<path d="M5677 4165 c-7 -16 8 -29 23 -20 10 6 2 35 -10 35 -4 0 -10 -7 -13
-15z"/>
<path d="M5962 4113 c2 -10 8 -18 13 -18 5 0 11 8 13 18 2 10 -3 17 -13 17
-10 0 -15 -7 -13 -17z"/>
<path d="M5570 4085 c0 -8 7 -15 15 -15 8 0 15 7 15 15 0 8 -7 15 -15 15 -8 0
-15 -7 -15 -15z"/>
<path d="M6134 2821 c-18 -11 -39 -37 -49 -62 l-19 -44 -5 39 c-8 51 -25 56
-51 14 -16 -25 -20 -44 -16 -79 6 -60 -6 -79 -23 -34 -15 42 -24 44 -39 10
-17 -36 -15 -86 3 -112 10 -14 13 -32 9 -48 l-6 -26 -20 31 c-10 17 -24 30
-31 27 -30 -10 -17 -98 19 -129 13 -12 24 -33 24 -47 l0 -24 -23 21 c-32 30
-47 28 -47 -7 0 -33 39 -86 70 -96 21 -7 46 -43 36 -53 -4 -3 -12 0 -18 6 -16
16 -58 15 -58 -1 0 -7 14 -28 31 -45 22 -23 41 -32 63 -32 30 0 56 -15 56 -32
0 -4 -16 -8 -35 -8 -43 0 -46 -20 -8 -45 20 -13 39 -16 79 -12 63 6 77 -6 34
-28 -40 -21 -38 -32 9 -46 34 -10 45 -9 78 8 24 12 49 17 66 14 l29 -6 -31
-23 c-17 -12 -31 -29 -31 -38 0 -11 10 -7 38 15 34 27 57 35 89 32 7 0 28 -15
47 -31 19 -17 37 -26 40 -21 4 5 -9 22 -29 38 l-35 28 27 5 c17 4 46 -2 72
-13 74 -32 149 7 78 41 -40 19 -26 27 42 24 46 -2 62 1 84 18 36 29 34 40 -9
40 -29 0 -35 3 -30 16 3 9 6 18 6 20 0 2 16 4 35 4 37 0 105 49 105 76 0 16
-33 18 -61 4 -42 -23 -13 25 33 53 32 20 54 51 63 90 6 22 4 27 -11 27 -10 0
-28 -10 -41 -22 -23 -21 -23 -21 -23 -1 0 11 9 28 21 39 42 38 66 122 39 139
-13 8 -40 -13 -50 -40 -7 -19 -8 -18 -15 7 -5 18 -2 34 9 50 20 27 21 97 3
123 -18 23 -34 13 -42 -26 -10 -46 -25 -15 -18 37 8 59 -36 138 -58 103 -5 -8
-9 -27 -10 -44 0 -29 -1 -29 -19 12 -27 61 -110 109 -110 64 0 -27 37 -69 78
-88 l37 -17 -32 -4 c-19 -2 -33 -9 -33 -17 0 -24 51 -55 90 -55 25 0 40 -5 44
-16 11 -28 6 -32 -24 -21 -16 6 -33 8 -37 4 -13 -14 24 -61 63 -83 22 -11 41
-28 42 -38 4 -18 3 -18 -27 0 -17 10 -33 15 -37 11 -13 -13 17 -87 41 -103 16
-11 25 -25 25 -43 l-1 -26 -20 28 c-11 15 -27 27 -35 27 -22 0 -17 -67 7 -106
15 -25 18 -38 10 -51 -9 -16 -11 -14 -21 15 -7 17 -16 32 -21 32 -19 0 -31
-45 -25 -95 4 -40 2 -56 -9 -65 -13 -11 -15 -6 -15 34 0 25 -4 46 -9 46 -20 0
-55 -64 -55 -99 0 -33 -9 -50 -28 -51 -4 0 -3 12 3 27 20 54 -14 72 -51 26
-12 -15 -24 -40 -27 -55 -9 -43 -76 -59 -155 -37 -30 8 -38 15 -38 34 0 28
-45 85 -67 85 -12 0 -15 -8 -10 -40 5 -36 3 -39 -13 -30 -12 7 -16 17 -12 36
5 30 -22 89 -45 98 -18 7 -26 -16 -21 -54 5 -34 1 -37 -17 -14 -8 12 -9 27 -2
53 10 37 6 73 -12 101 -12 18 -20 11 -36 -37 l-13 -38 -7 28 c-5 20 -2 33 10
47 20 22 32 104 17 114 -6 3 -19 -5 -30 -19 -24 -30 -32 -32 -32 -5 0 11 11
27 26 36 28 19 54 63 54 94 0 26 -10 25 -45 -1 l-27 -22 4 23 c2 16 14 27 38
35 40 13 87 72 70 89 -6 6 -18 5 -36 -3 -31 -14 -42 -8 -24 14 7 8 27 15 44
15 38 0 96 34 96 56 0 13 -8 15 -39 12 -45 -4 -44 6 2 26 57 24 111 106 70
106 -10 0 -32 -9 -49 -19z m27 -30 c-13 -24 -49 -46 -59 -36 -4 4 8 20 26 37
37 32 50 32 33 -1z m403 4 c31 -29 34 -45 6 -38 -21 6 -59 63 -42 63 5 0 21
-11 36 -25z m116 -84 c-1 -34 -2 -35 -15 -17 -8 11 -15 36 -15 55 1 34 2 35
15 17 8 -11 15 -36 15 -55z m-654 -18 l-15 -28 -1 33 c0 18 6 43 12 55 13 22
13 22 16 -5 2 -15 -4 -40 -12 -55z m84 -17 c-8 -8 -28 -18 -45 -21 l-30 -6 24
20 c28 25 75 31 51 7z m524 -1 c11 -8 17 -17 14 -20 -6 -7 -78 21 -78 29 0 12
46 5 64 -9z m119 -90 c-3 -14 -9 -25 -14 -25 -11 0 -12 94 -2 104 11 10 22
-47 16 -79z m-790 46 c7 -36 -7 -95 -17 -68 -14 41 -16 50 -10 73 8 32 20 30
27 -5z m69 -61 c-34 -31 -55 -39 -46 -17 5 14 53 46 69 46 6 0 -5 -13 -23 -29z
m655 -2 c29 -28 30 -41 0 -27 -28 13 -54 49 -35 49 6 0 22 -10 35 -22z m-764
-128 l7 -35 -20 24 c-12 14 -20 37 -20 60 1 36 1 36 14 11 7 -14 16 -41 19
-60z m860 -8 c-17 -26 -18 -27 -21 -5 -2 12 5 39 15 60 l18 38 3 -33 c2 -20
-4 -44 -15 -60z m-773 41 c0 -15 -40 -73 -50 -73 -16 0 -12 19 11 51 19 27 39
38 39 22z m720 -61 c-1 -13 -6 -11 -25 11 -14 15 -25 36 -25 45 1 13 6 11 25
-11 14 -15 25 -36 25 -45z m-816 -85 c15 -19 26 -39 26 -45 0 -21 -18 -13 -38
16 -43 62 -32 87 12 29z m72 -39 l-16 -22 0 27 c0 16 6 38 12 50 13 22 13 22
16 -5 2 -15 -4 -38 -12 -50z m712 47 c16 -34 16 -73 1 -58 -13 13 -30 83 -20
83 4 0 13 -11 19 -25z m99 -6 c-7 -18 -23 -39 -36 -48 -23 -15 -23 -15 -16 9
8 27 43 70 57 70 4 0 2 -14 -5 -31z m-757 -124 c0 -25 -4 -45 -10 -45 -5 0
-10 20 -10 45 0 25 5 45 10 45 6 0 10 -20 10 -45z m620 -5 c0 -41 -14 -61 -24
-34 -9 22 4 85 15 78 5 -3 9 -23 9 -44z m87 -26 c-33 -29 -78 -35 -56 -7 16
18 71 44 79 36 3 -2 -8 -16 -23 -29z m-779 6 c38 -23 42 -39 8 -33 -28 6 -78
53 -55 53 8 0 29 -9 47 -20z m152 -84 c-1 -29 -1 -30 -15 -12 -8 11 -15 34
-15 50 1 29 1 30 15 12 8 -11 15 -34 15 -50z m465 32 c-4 -18 -13 -40 -21 -48
-12 -12 -14 -11 -14 7 0 28 20 73 32 73 5 0 7 -14 3 -32z m-371 -67 c10 -17
16 -35 12 -38 -9 -10 -34 16 -45 48 -14 41 7 34 33 -10z m286 28 c0 -15 -39
-69 -50 -69 -11 0 -2 24 20 58 16 24 30 29 30 11z m-430 -24 c22 -12 23 -14 7
-20 -18 -7 -73 10 -83 26 -8 14 48 10 76 -6z m610 7 c0 -11 -46 -32 -70 -32
-25 0 -26 16 -2 29 21 13 72 14 72 3z m-480 -81 c0 -12 -48 -23 -71 -16 -11 4
-17 11 -14 16 8 12 85 12 85 0z m360 -1 c12 -8 12 -10 -3 -16 -22 -8 -87 4
-87 16 0 13 70 13 90 0z"/>
</g>
</svg>
