<?xml version="1.0" standalone="no"?>
<!DOCTYPE svg PUBLIC "-//W3C//DTD SVG 20010904//EN"
 "http://www.w3.org/TR/2001/REC-SVG-20010904/DTD/svg10.dtd">
<svg version="1.0" xmlns="http://www.w3.org/2000/svg"
 width="1024.000000pt" height="559.000000pt" viewBox="0 0 1024.000000 559.000000"
 preserveAspectRatio="xMidYMid meet">
<metadata>
Created by potrace 1.16, written by Peter Selinger 2001-2019
</metadata>
<g transform="translate(0.000000,559.000000) scale(0.100000,-0.100000)"
fill="#000000" stroke="none">
<path d="M5066 5015 c-3 -9 1 -18 10 -22 19 -7 39 11 30 26 -10 16 -33 13 -40
-4z"/>
<path d="M5074 4855 c-7 -18 3 -35 21 -35 21 0 28 19 15 35 -16 19 -29 19 -36
0z"/>
<path d="M6104 4846 c-9 -23 0 -79 14 -84 8 -2 12 11 12 47 0 48 -14 68 -26
37z"/>
<path d="M5640 4810 c0 -15 5 -20 18 -18 9 2 17 10 17 18 0 8 -8 16 -17 18
-13 2 -18 -3 -18 -18z"/>
<path d="M5351 4800 c-17 -10 -7 -40 14 -40 8 0 15 9 15 19 0 24 -12 32 -29
21z"/>
<path d="M5890 4787 c0 -7 13 -28 30 -47 23 -28 29 -31 30 -17 0 21 -36 77
-51 77 -5 0 -9 -6 -9 -13z"/>
<path d="M6301 4771 c-22 -31 -27 -51 -12 -51 12 0 51 54 51 69 0 20 -18 11
-39 -18z"/>
<path d="M4505 4780 c-8 -14 3 -30 21 -30 8 0 14 9 14 20 0 21 -24 28 -35 10z"/>
<path d="M4812 4773 c2 -10 10 -18 18 -18 8 0 16 8 18 18 2 12 -3 17 -18 17
-15 0 -20 -5 -18 -17z"/>
<path d="M5533 4684 c-3 -8 -1 -20 5 -26 15 -15 43 8 35 28 -7 19 -32 18 -40
-2z"/>
<path d="M6005 4672 c-89 -38 -175 -104 -175 -135 0 -23 76 -86 142 -117 107
-51 200 -49 311 7 54 27 127 89 127 108 0 22 -89 95 -153 126 -52 24 -74 29
-137 28 -47 0 -90 -6 -115 -17z m-4 -56 c-13 -20 -21 -50 -21 -76 0 -26 8 -56
21 -76 11 -19 18 -34 14 -34 -12 0 -101 51 -129 73 -24 21 -26 28 -17 45 10
20 127 102 144 102 5 0 -1 -15 -12 -34z m185 16 c64 -51 58 -150 -11 -188 -36
-19 -104 -15 -132 8 -51 42 -48 138 5 177 34 26 108 28 138 3z m123 -31 c76
-51 81 -63 45 -94 -33 -29 -123 -81 -130 -75 -2 2 6 22 17 44 25 48 20 104
-11 147 l-22 29 23 -7 c13 -4 48 -24 78 -44z"/>
<path d="M6093 4580 c-3 -11 -12 -20 -19 -20 -21 0 -17 -37 6 -60 11 -11 29
-20 40 -20 26 0 60 34 60 60 0 26 -34 60 -61 60 -12 0 -23 -8 -26 -20z"/>
<path d="M4614 4659 c-3 -6 0 -17 7 -25 18 -17 44 -2 36 20 -7 18 -33 21 -43
5z"/>
<path d="M5030 4516 c-72 -20 -100 -40 -180 -123 -53 -56 -80 -93 -93 -128
-23 -68 -22 -173 4 -260 11 -39 25 -88 30 -110 6 -22 20 -58 33 -81 21 -38 22
-43 8 -70 -20 -41 -53 -74 -71 -74 -22 0 -196 -66 -256 -97 -115 -59 -176
-134 -253 -307 -24 -54 -61 -159 -82 -233 -27 -94 -48 -147 -72 -180 -77 -109
-82 -122 -81 -203 1 -47 -4 -91 -14 -117 -19 -50 -13 -101 16 -142 23 -32 22
-69 -3 -194 -31 -153 -17 -304 37 -402 l25 -45 -36 -9 c-20 -6 -68 -17 -107
-26 -149 -32 -170 -39 -182 -63 -4 -9 -9 -206 -11 -438 -3 -359 -1 -422 12
-433 12 -10 15 -7 21 18 4 17 5 209 3 426 -3 350 -1 396 13 410 9 9 82 31 165
50 l149 34 51 -25 c27 -13 79 -29 115 -35 70 -12 384 -17 544 -9 87 4 100 3
103 -12 2 -12 -11 -20 -55 -33 -32 -9 -66 -18 -75 -21 -26 -8 -22 -24 6 -24
17 0 151 36 151 40 0 0 -1 -117 -3 -260 l-3 -260 28 -11 c15 -6 66 -18 113
-26 47 -8 87 -17 90 -19 2 -3 6 -34 8 -69 3 -46 -1 -77 -13 -107 -9 -24 -19
-75 -22 -114 -5 -66 -4 -72 17 -87 13 -9 49 -21 79 -28 31 -6 106 -22 167 -35
222 -48 424 -18 424 63 0 26 -54 67 -125 96 -80 33 -158 83 -220 141 -40 37
-45 46 -47 95 l-3 53 40 13 c22 7 74 29 115 49 41 20 83 36 94 36 17 0 18 -5
12 -71 -3 -39 -11 -80 -17 -91 -6 -11 -13 -55 -16 -97 -8 -110 -8 -110 209
-127 302 -25 351 -27 413 -15 68 13 78 19 78 57 0 38 -26 55 -135 93 -95 34
-161 69 -235 128 -42 33 -43 36 -43 93 0 58 1 59 35 76 33 15 39 26 47 78 2
12 20 25 54 38 27 11 63 29 78 42 l29 22 -27 150 c-15 82 -34 183 -41 224 -74
410 -83 450 -118 521 l-33 65 58 17 c32 10 82 28 112 41 49 22 57 30 91 95 31
58 42 71 62 71 36 0 60 16 67 45 4 14 11 25 16 25 11 0 60 95 60 118 0 9 7 26
15 36 19 25 19 55 1 75 -13 14 -4 34 73 172 117 210 125 228 112 262 -19 49
-101 82 -155 61 -9 -3 -39 -50 -67 -104 l-50 -99 -67 -6 c-37 -3 -82 -10 -101
-15 -21 -6 -41 -5 -52 0 -10 6 -46 10 -80 10 -59 0 -61 1 -54 23 18 58 17 68
-5 93 -29 30 -77 44 -121 35 -42 -8 -55 -30 -135 -225 l-61 -151 -54 -17 c-29
-10 -57 -22 -63 -28 -17 -17 -23 -12 -40 31 -14 35 -14 43 -2 61 13 18 8 36
-44 186 -83 239 -88 250 -141 325 -30 41 -43 67 -35 67 67 0 168 204 187 375
5 44 12 107 15 140 4 34 15 70 25 84 67 85 -7 267 -137 338 -116 63 -270 88
-374 59z m261 -47 c120 -34 198 -105 234 -211 16 -46 13 -114 -4 -104 -4 3
-14 30 -21 61 -7 31 -17 58 -21 61 -5 3 -26 -13 -48 -35 -37 -37 -77 -59 -87
-48 -3 2 1 16 7 30 6 14 9 34 5 43 -6 15 -11 14 -39 -13 -36 -34 -87 -63 -113
-63 -13 0 -15 6 -10 34 9 48 -8 53 -34 11 -12 -20 -46 -54 -75 -75 -49 -36
-55 -45 -65 -95 -6 -30 -16 -55 -21 -55 -5 0 -9 6 -9 14 0 7 -9 25 -21 40 -27
34 -71 35 -104 1 -32 -31 -34 -103 -5 -160 22 -43 24 -63 11 -84 -12 -19 -26
8 -64 132 -25 82 -31 120 -31 192 0 105 16 145 86 211 23 22 54 53 67 68 64
72 208 90 362 45z m188 -286 c6 -21 11 -61 11 -90 0 -43 -3 -51 -15 -47 -22 9
-67 -5 -63 -18 3 -7 20 -12 39 -12 25 -1 33 -5 31 -16 -2 -8 -8 -54 -13 -103
-10 -96 -49 -212 -98 -289 -61 -96 -166 -85 -293 31 -31 28 -61 64 -68 81 -12
30 -30 32 -30 4 0 -29 57 -99 113 -139 31 -22 56 -43 57 -47 0 -4 -14 -29 -31
-57 -34 -54 -32 -85 3 -54 21 18 21 18 14 -22 -10 -51 -17 -59 -61 -57 -81 3
-193 95 -269 220 l-35 59 48 50 c33 35 56 71 71 112 19 52 26 61 47 61 31 0
26 24 -6 28 -50 8 -81 123 -44 164 27 31 51 22 75 -27 33 -68 70 -59 83 20 11
67 14 72 58 101 31 22 51 28 79 26 21 -2 55 5 82 17 45 20 46 20 46 0 0 -36
93 -18 129 25 20 24 29 19 40 -21z m-704 -625 c72 -130 195 -232 298 -246 21
-2 37 -10 37 -17 0 -35 -83 -212 -140 -298 -35 -53 -67 -97 -71 -97 -3 0 -28
73 -54 163 -65 224 -73 246 -100 293 -30 51 -89 104 -115 104 -29 0 -25 -13
11 -34 64 -38 102 -121 183 -406 41 -145 41 -140 21 -140 -47 0 -250 -89 -334
-146 -19 -13 -39 -24 -42 -24 -4 0 -26 80 -49 178 -23 97 -46 187 -51 200 -13
32 -33 28 -26 -5 3 -16 9 -46 12 -68 l8 -40 -23 28 c-15 18 -26 25 -32 19 -7
-7 4 -28 31 -62 23 -29 44 -64 47 -78 22 -94 48 -190 56 -205 8 -16 19 -18 70
-15 38 2 62 -1 65 -8 4 -13 -117 -71 -190 -90 -29 -8 -76 -14 -106 -14 -51 0
-57 2 -98 45 -23 25 -45 56 -49 70 -10 41 54 328 108 480 33 93 114 256 148
296 42 52 119 100 235 147 55 22 102 41 105 41 3 0 23 -32 45 -71z m508 -78
c65 -71 87 -114 157 -309 39 -106 70 -197 70 -202 0 -5 -30 -29 -67 -53 -71
-45 -173 -100 -173 -92 0 3 7 35 16 73 37 157 55 343 34 343 -11 0 -14 -12
-30 -130 -18 -138 -80 -408 -97 -429 -4 -5 -185 -30 -219 -31 -18 0 -26 15
-52 91 l-32 92 38 46 c63 76 101 137 149 237 55 118 82 207 89 304 7 99 8 100
48 100 27 0 41 -8 69 -40z m1312 -195 c29 -28 31 -38 9 -59 -22 -23 -32 -20
-27 8 6 30 -14 44 -31 21 -11 -15 -14 -15 -36 3 -33 27 -21 52 25 52 25 0 44
-8 60 -25z m-615 -63 l25 -17 -23 -3 c-13 -2 -30 2 -39 9 -13 11 -19 9 -37
-14 l-22 -28 -12 25 c-10 22 -8 27 11 41 25 18 58 13 97 -13z m510 13 c7 -8
21 -15 31 -15 25 0 24 -27 -2 -40 -25 -14 -109 -40 -109 -34 0 13 52 104 59
104 5 0 14 -7 21 -15z m-533 -128 c33 -10 85 -17 116 -17 46 0 59 -4 69 -20 7
-11 18 -20 25 -20 7 0 17 9 23 20 9 16 21 20 63 20 61 0 215 32 271 55 21 9
40 14 43 11 3 -2 -35 -74 -83 -159 -82 -145 -90 -156 -125 -166 -37 -11 -73
-46 -64 -62 3 -4 -6 -14 -19 -22 -13 -9 -26 -28 -29 -44 -3 -15 -10 -48 -15
-72 -7 -29 -6 -52 0 -67 8 -18 4 -33 -24 -80 -40 -69 -64 -84 -183 -119 -80
-23 -109 -26 -260 -27 -144 -2 -175 1 -203 16 -42 22 -48 38 -33 87 l12 39 67
0 c125 0 170 27 245 145 50 77 57 93 57 119 0 35 -13 40 -117 46 -51 3 -95 8
-98 11 -3 3 26 80 64 170 38 90 72 174 75 187 l7 22 29 -28 c17 -18 52 -36 87
-45z m31 58 c1 -1 0 -9 -4 -18 -4 -12 -11 -13 -35 -5 -29 10 -35 19 -23 31 6
6 52 -1 62 -8z m-478 -314 l15 -43 -55 -48 c-43 -37 -65 -49 -108 -57 l-54
-10 -19 45 c-11 25 -18 46 -17 47 2 2 39 21 83 43 44 22 89 47 100 56 28 22
38 16 55 -33z m-623 -106 c38 -115 38 -115 16 -115 -29 0 -50 -17 -37 -30 8
-8 19 -8 39 0 16 6 114 22 219 35 302 38 293 35 415 142 84 74 143 97 125 49
-3 -9 -12 -16 -20 -16 -8 0 -14 -4 -14 -10 0 -20 45 -32 142 -38 62 -4 103
-11 105 -19 6 -18 -61 -35 -129 -32 -38 2 -63 -2 -65 -8 -5 -15 77 -27 133
-19 27 3 44 2 44 -5 0 -18 -68 -39 -131 -39 -44 0 -60 -3 -56 -12 2 -9 26 -13
70 -13 37 0 67 -4 67 -8 0 -15 -69 -37 -116 -37 -32 0 -44 -4 -41 -12 2 -8 22
-13 50 -13 26 0 47 -3 47 -7 0 -20 -97 -27 -255 -19 -47 2 -72 -3 -115 -22
-149 -67 -480 -166 -555 -167 -48 0 -128 120 -209 314 -28 70 -34 91 -24 98
42 29 234 109 252 104 5 -1 25 -47 43 -101z m1550 51 c-12 -31 -107 -50 -107
-22 0 8 17 20 38 26 20 7 41 16 47 21 13 13 29 -6 22 -25z m-2333 -37 c-20
-65 -13 -102 31 -161 36 -50 97 -88 139 -88 54 0 174 32 244 66 41 20 75 34
76 32 1 -2 21 -45 46 -97 25 -52 62 -117 83 -144 21 -27 37 -51 34 -53 -2 -3
-51 -7 -108 -10 l-104 -5 50 24 c51 25 93 62 82 73 -3 4 -25 -5 -49 -19 -74
-43 -166 -69 -249 -69 -122 0 -289 54 -331 106 -19 23 -25 111 -8 121 5 3 21
-12 34 -34 28 -44 42 -56 50 -42 4 5 -7 31 -24 58 -57 90 -64 161 -22 240 15
29 30 53 34 53 4 0 0 -23 -8 -51z m1166 -66 c0 -7 -9 -13 -21 -13 -15 0 -19 4
-15 16 3 9 6 23 6 32 1 15 3 14 15 -2 8 -11 15 -26 15 -33z m1140 32 c0 -21
-33 -35 -84 -35 -34 0 -46 4 -46 15 0 15 19 22 80 28 19 2 38 5 43 5 4 1 7 -5
7 -13z m-1866 -25 c-10 -4 -21 -6 -24 -3 -8 7 24 22 34 16 5 -4 1 -10 -10 -13z
m1817 -61 c-18 -15 -32 -18 -55 -13 -69 14 -56 34 22 34 l57 -1 -24 -20z m-46
-49 c18 -7 18 -9 3 -15 -23 -9 -50 -3 -56 13 -4 14 22 15 53 2z m-805 -110 c0
-5 -5 -21 -12 -35 -11 -24 -14 -25 -111 -25 -55 0 -98 2 -96 4 2 2 38 18 79
35 74 30 140 40 140 21z m-5 -119 c41 -48 97 -60 273 -57 151 2 154 1 173 -22
43 -55 67 -150 134 -527 20 -110 43 -236 50 -280 21 -116 22 -113 -41 -142
-30 -14 -58 -22 -62 -19 -3 4 -14 124 -24 268 -10 145 -20 269 -23 278 -6 13
-7 13 -14 0 -8 -14 -6 -73 18 -480 4 -80 6 -151 3 -157 -7 -21 -100 -43 -178
-43 -101 0 -163 -15 -265 -65 -125 -61 -204 -71 -374 -50 -71 9 -147 21 -168
27 l-38 11 7 253 c6 226 5 256 -9 278 -10 14 -17 39 -17 55 0 38 23 138 50
215 24 70 24 76 6 76 -16 0 -59 -119 -80 -221 l-13 -64 -79 -8 c-132 -13 -550
-2 -609 17 -153 47 -218 210 -182 449 8 54 17 100 19 102 2 2 42 -7 88 -20 47
-13 109 -27 139 -32 l54 -8 -62 -48 c-34 -26 -64 -54 -68 -63 -10 -27 7 -28
35 -2 74 70 298 188 334 176 6 -2 -17 -21 -51 -41 -64 -40 -161 -128 -161
-146 0 -22 24 -10 74 37 96 91 260 169 392 187 27 4 65 11 85 16 65 16 233 26
309 18 41 -5 100 -18 130 -30 129 -49 174 -60 244 -57 103 4 96 24 -11 31 -69
4 -109 14 -183 43 -73 28 -116 38 -185 43 -135 11 -78 26 106 30 l149 2 25
-30z m-1270 -71 c28 -7 95 -16 150 -19 l100 -6 -45 -21 c-44 -20 -46 -20 -155
-3 -149 23 -209 46 -213 81 l-3 27 58 -23 c32 -12 81 -28 108 -36z m1675
-1189 c0 -27 2 -55 5 -63 7 -21 -85 -78 -126 -78 -58 0 -67 14 -61 102 l4 77
72 4 c39 1 79 4 89 5 14 2 17 -6 17 -47z m-507 -133 c4 -33 3 -54 -4 -57 -5
-1 -30 -18 -54 -37 -53 -40 -86 -50 -114 -34 -19 10 -21 20 -21 95 l0 85 94 0
93 0 6 -52z m624 -26 c91 -61 128 -78 224 -106 67 -19 88 -38 68 -62 -12 -14
-34 -16 -174 -11 -273 10 -437 24 -447 39 -9 13 -4 102 8 132 5 13 9 14 21 4
8 -6 36 -12 62 -12 39 0 56 7 96 37 26 20 49 37 51 37 1 0 42 -26 91 -58z
m-530 -117 c38 -30 97 -68 133 -85 36 -18 85 -41 110 -53 97 -47 34 -89 -135
-91 -93 0 -227 22 -387 65 l-38 10 0 62 c0 76 9 94 38 78 30 -16 73 -13 103 7
71 48 95 62 101 62 5 0 38 -25 75 -55z"/>
<path d="M5158 4049 c-33 -19 -18 -24 67 -24 47 0 85 3 85 8 0 24 -118 36
-152 16z"/>
<path d="M5220 3976 c-14 -18 -6 -50 13 -44 15 6 22 37 10 49 -6 6 -15 4 -23
-5z"/>
<path d="M5373 3953 c4 -21 9 -65 13 -97 l7 -59 -46 6 c-49 7 -62 -4 -28 -23
48 -25 101 -1 101 44 0 42 -32 166 -42 166 -7 0 -8 -15 -5 -37z"/>
<path d="M5420 3952 c0 -26 11 -34 27 -21 20 17 16 39 -7 39 -13 0 -20 -7 -20
-18z"/>
<path d="M5227 3713 c-28 -28 17 -73 73 -73 28 0 41 6 57 29 16 21 19 31 10
40 -12 12 -129 16 -140 4z m104 -23 c11 0 19 -5 19 -11 0 -16 -93 -7 -98 10
-4 11 3 13 28 8 18 -4 41 -7 51 -7z"/>
<path d="M5216 3408 c-10 -102 -31 -197 -66 -297 -51 -145 -50 -141 -35 -141
15 0 75 149 99 245 20 80 36 216 29 243 -10 41 -20 22 -27 -50z"/>
<path d="M5207 3023 c-3 -5 -20 -44 -38 -88 -18 -44 -52 -114 -75 -155 -41
-72 -48 -104 -18 -79 31 25 119 203 145 291 7 25 -4 49 -14 31z"/>
<path d="M4545 2482 c-97 -49 -148 -64 -247 -69 -93 -5 -117 -13 -82 -27 29
-11 126 -6 188 10 69 18 177 67 195 88 21 25 -3 25 -54 -2z"/>
<path d="M5440 2177 c0 -18 116 -118 169 -144 45 -23 111 -31 111 -13 0 5 -17
12 -37 16 -45 8 -96 39 -176 106 -63 52 -67 54 -67 35z"/>
<path d="M5841 2058 c-36 -178 -123 -423 -217 -610 -25 -49 -42 -93 -39 -97
14 -13 94 127 149 260 86 208 161 509 128 509 -4 0 -14 -28 -21 -62z"/>
<path d="M5092 1903 c-17 -38 -49 -98 -71 -135 -42 -69 -49 -88 -31 -88 15 0
100 135 127 200 44 106 23 125 -25 23z"/>
<path d="M4302 4493 c5 -26 38 -29 38 -4 0 15 -6 21 -21 21 -14 0 -19 -5 -17
-17z"/>
<path d="M4445 4430 c-4 -7 -3 -16 3 -22 14 -14 45 -2 40 15 -6 16 -34 21 -43
7z"/>
<path d="M5957 4216 c-7 -18 1 -26 25 -26 13 0 18 6 16 17 -4 22 -34 29 -41 9z"/>
<path d="M4394 4195 c-7 -18 3 -35 21 -35 18 0 26 25 12 39 -15 15 -27 14 -33
-4z"/>
<path d="M5785 4201 c-9 -16 3 -31 26 -31 14 0 19 6 17 17 -4 20 -33 29 -43
14z"/>
<path d="M4220 4185 c0 -10 7 -15 17 -13 22 4 23 22 1 26 -11 2 -18 -3 -18
-13z"/>
<path d="M5757 3977 c-3 -8 -2 -20 3 -27 11 -18 42 -4 38 17 -4 22 -34 29 -41
10z"/>
<path d="M5910 3909 c0 -25 33 -22 38 4 2 12 -3 17 -17 17 -15 0 -21 -6 -21
-21z"/>
<path d="M3850 1625 c0 -8 3 -15 8 -15 46 -2 727 -48 826 -57 65 -5 78 -4 74
8 -6 18 -50 25 -258 39 -96 6 -273 18 -393 26 -267 17 -257 17 -257 -1z"/>
<path d="M4758 1507 c-2 -19 -2 -210 0 -425 4 -325 7 -392 18 -392 12 0 14 51
14 298 0 320 -9 552 -20 552 -4 0 -10 -15 -12 -33z"/>
</g>
</svg>
