<?xml version="1.0" standalone="no"?>
<!DOCTYPE svg PUBLIC "-//W3C//DTD SVG 20010904//EN"
 "http://www.w3.org/TR/2001/REC-SVG-20010904/DTD/svg10.dtd">
<svg version="1.0" xmlns="http://www.w3.org/2000/svg"
 width="1024.000000pt" height="559.000000pt" viewBox="0 0 1024.000000 559.000000"
 preserveAspectRatio="xMidYMid meet">
<metadata>
Created by potrace 1.16, written by Peter Selinger 2001-2019
</metadata>
<g transform="translate(0.000000,559.000000) scale(0.100000,-0.100000)"
fill="#000000" stroke="none">
<path d="M5980 5045 c-8 -9 -29 -15 -55 -15 -33 0 -48 -5 -62 -22 -10 -13 -31
-28 -48 -33 -16 -6 -39 -25 -50 -42 -11 -18 -28 -35 -38 -38 -23 -8 -50 -62
-44 -87 3 -12 -4 -28 -20 -44 -22 -22 -25 -32 -20 -71 3 -27 -1 -55 -9 -72
-11 -22 -11 -35 -3 -59 7 -21 7 -37 0 -50 -7 -14 -6 -25 5 -41 20 -28 11 -59
-12 -40 -8 7 -68 18 -132 26 -64 7 -164 23 -221 34 -126 26 -212 22 -321 -15
-68 -23 -166 -44 -278 -61 -23 -4 -48 -15 -55 -24 -6 -10 -39 -26 -72 -36 -94
-27 -311 -114 -338 -135 -25 -20 -27 -27 -74 -215 -27 -107 -27 -117 -28 -420
-1 -273 -3 -314 -18 -342 -10 -18 -21 -33 -25 -33 -4 0 -49 14 -99 32 -78 26
-97 29 -118 20 -42 -19 -60 -97 -31 -135 8 -10 51 -31 97 -48 110 -40 110 -40
128 -90 12 -32 29 -52 71 -81 30 -21 61 -38 68 -38 19 0 7 -37 -60 -190 -32
-74 -68 -157 -79 -183 l-19 -49 40 -37 40 -37 -20 -78 c-11 -44 -20 -88 -20
-98 0 -11 -15 -27 -34 -39 -22 -13 -37 -31 -41 -49 -5 -23 -21 -37 -83 -71
-89 -49 -172 -129 -221 -215 -97 -168 -123 -204 -179 -247 -41 -31 -59 -53
-67 -78 -5 -20 -24 -48 -42 -63 -17 -15 -34 -39 -38 -54 -4 -17 -22 -38 -51
-57 -91 -61 -104 -123 -55 -265 17 -47 34 -126 40 -178 13 -115 32 -151 103
-186 48 -24 62 -26 172 -25 140 1 186 13 201 53 12 36 -7 70 -65 114 -56 42
-66 65 -74 177 l-7 90 31 12 c22 8 36 23 47 52 12 31 26 46 58 61 35 17 48 32
70 78 32 69 57 96 205 223 63 54 144 126 180 159 36 34 90 79 120 100 30 21
69 53 86 71 33 36 126 186 164 268 l23 47 148 -1 148 0 197 -354 197 -354 -17
-65 c-9 -36 -29 -81 -44 -100 -22 -29 -27 -46 -27 -96 0 -40 -7 -73 -19 -95
-16 -30 -17 -40 -6 -68 7 -22 8 -38 2 -46 -21 -27 -43 -118 -40 -168 5 -81 24
-91 195 -100 85 -4 173 -16 228 -29 75 -19 108 -21 200 -17 l110 5 57 -35 c58
-34 90 -64 52 -48 -10 4 -140 9 -289 10 -173 2 -313 8 -390 18 -135 17 -444
31 -405 17 14 -4 68 -8 120 -9 90 -1 136 -5 355 -32 50 -6 198 -12 330 -14
182 -2 259 -6 320 -20 107 -23 159 -21 249 9 60 20 96 26 168 26 84 0 200 -21
221 -40 5 -5 35 -6 67 -3 51 5 59 3 73 -17 13 -19 19 -21 49 -12 67 20 130 22
195 6 78 -19 92 -13 26 12 -26 9 -77 38 -113 63 -150 104 -266 245 -350 424
-35 74 -44 86 -70 92 l-30 7 0 149 c0 133 2 149 17 149 9 0 141 -31 292 -69
306 -77 514 -121 573 -121 49 0 94 23 104 52 11 35 9 157 -2 168 -5 5 -75 24
-154 40 -178 37 -315 70 -468 114 -126 36 -231 61 -299 71 l-43 7 0 79 c0 73
-2 80 -26 95 -33 22 -138 24 -179 4 -29 -15 -30 -18 -33 -91 l-3 -77 -48 -6
c-48 -6 -209 -47 -243 -61 -22 -9 -22 -8 -51 130 l-23 110 36 69 c30 59 35 80
38 150 3 75 1 85 -28 141 -18 33 -63 103 -100 156 -52 72 -73 112 -85 160 -28
110 -65 220 -96 280 -28 56 -28 59 -12 87 17 29 16 32 -25 135 -46 115 -49
143 -30 271 11 79 13 82 55 114 32 24 54 32 84 32 55 0 72 11 109 72 18 29 61
85 96 124 84 93 108 147 109 243 1 46 6 76 13 79 9 3 89 114 175 246 15 23 31
60 34 82 4 21 19 56 35 78 15 21 28 46 28 55 1 9 15 25 32 36 18 11 35 29 38
40 3 11 13 32 23 46 15 23 17 39 11 109 -5 61 -12 88 -26 102 -10 10 -18 28
-18 41 0 26 -34 67 -55 67 -8 0 -15 6 -15 14 0 20 -57 66 -81 66 -11 0 -31 12
-44 28 -20 23 -31 27 -74 27 -27 0 -56 6 -62 13 -18 17 -94 15 -109 -3z m93
-25 c20 -16 34 -19 66 -14 37 6 44 3 70 -25 18 -19 39 -31 54 -31 30 0 57 -24
57 -51 0 -12 7 -19 19 -19 22 0 61 -44 61 -68 0 -9 8 -24 18 -35 16 -18 18
-32 23 -147 0 -14 -8 -32 -20 -41 -12 -10 -21 -26 -21 -37 0 -11 -7 -25 -15
-32 -13 -11 -15 -8 -15 22 0 21 7 40 20 51 11 9 20 25 20 34 -1 17 -1 17 -14
1 -7 -10 -23 -18 -36 -18 -17 0 -21 4 -17 20 6 24 -5 26 -23 5 -22 -26 -60
-19 -73 14 -9 26 -13 28 -34 18 -34 -15 -73 5 -73 38 0 25 -14 33 -25 15 -13
-21 -45 -9 -61 21 -12 25 -18 29 -25 18 -5 -8 -9 -24 -9 -35 0 -23 -21 -37
-55 -38 -14 -1 -21 -10 -25 -31 -3 -18 -15 -34 -30 -42 -15 -7 -27 -24 -30
-40 -9 -47 -34 -35 -40 19 -9 84 -62 114 -113 63 -30 -31 -40 -79 -32 -150 8
-61 -6 -80 -28 -37 -12 25 -12 33 -1 55 9 17 10 28 4 32 -13 8 -13 62 0 70 6
4 8 28 4 60 -6 49 -5 54 19 70 21 14 25 22 20 50 -4 25 0 38 16 54 11 11 28
21 36 21 8 0 15 9 15 19 0 25 26 51 52 51 11 0 33 14 49 31 24 26 33 30 59 24
22 -5 37 -1 56 14 33 26 45 26 77 1z m26 -333 c11 3 24 -5 35 -21 12 -20 25
-26 51 -26 23 0 42 -8 59 -25 19 -19 31 -23 59 -18 19 3 37 1 40 -4 7 -11 -2
-106 -12 -121 -3 -6 -23 -13 -44 -17 -33 -7 -37 -5 -31 11 3 11 -3 5 -15 -13
-12 -20 -24 -63 -30 -110 -5 -43 -13 -86 -17 -96 -9 -23 -39 -21 -77 5 -18 13
-33 24 -35 25 -2 1 2 12 9 25 11 21 11 22 -4 9 -23 -18 -21 -48 2 -56 10 -3
26 -14 36 -25 24 -27 61 -25 80 3 8 13 18 59 22 102 5 64 8 75 18 61 8 -10 19
-14 30 -10 14 6 16 4 8 -12 -6 -10 -13 -34 -17 -53 -3 -18 -34 -72 -69 -120
-35 -47 -76 -105 -90 -128 -34 -54 -58 -66 -109 -58 -53 9 -104 57 -173 160
-52 78 -55 86 -56 146 0 54 -2 60 -11 39 -5 -14 -10 -46 -11 -71 -1 -40 7 -59
56 -137 31 -50 53 -93 49 -95 -4 -3 -30 -12 -59 -21 -28 -10 -57 -25 -65 -34
-12 -14 -10 -14 12 1 31 21 41 22 33 1 -5 -14 -3 -15 16 -4 31 16 37 6 12 -19
-72 -72 -187 -5 -230 133 -29 94 -30 240 -2 256 11 5 28 10 38 10 11 0 40 13
66 30 26 16 49 25 52 20 8 -13 55 -13 55 -1 0 5 -10 11 -22 13 -19 2 -25 13
-35 63 -6 33 -9 72 -6 87 6 31 37 68 58 68 22 0 45 -41 45 -82 0 -27 5 -40 20
-48 28 -15 60 4 60 35 0 17 6 25 18 25 23 0 42 19 42 43 0 11 11 22 30 29 17
5 35 19 41 29 9 17 12 18 30 5 11 -7 28 -12 38 -9z m-844 -226 c119 -26 154
-31 241 -37 52 -4 97 -11 100 -15 3 -5 -1 -6 -9 -3 -7 2 -25 -4 -38 -15 -23
-18 -24 -25 -24 -128 0 -125 18 -192 69 -264 76 -104 201 -107 253 -6 23 46
32 48 74 20 21 -13 55 -27 77 -30 35 -5 41 -9 46 -35 7 -36 -8 -107 -34 -158
-10 -20 -48 -69 -84 -108 -36 -39 -72 -86 -82 -104 -25 -49 -44 -68 -71 -68
-22 0 -20 4 26 60 28 33 56 71 62 83 6 12 30 42 53 67 22 24 31 36 19 26 -27
-22 -29 -16 -7 25 30 58 7 39 -51 -44 -130 -183 -185 -238 -312 -309 -51 -29
-91 -54 -89 -55 2 -2 25 6 52 17 l49 20 -45 -42 c-25 -24 -72 -67 -105 -96
-50 -45 -54 -50 -22 -32 l37 22 -20 -54 c-12 -29 -31 -60 -42 -69 -20 -15 -82
-29 -131 -29 -27 0 -10 17 23 23 14 3 -18 2 -70 0 -102 -6 -186 9 -258 46 -46
23 -160 136 -202 199 -39 59 -39 45 1 -24 17 -30 28 -54 25 -54 -20 0 -92 61
-123 104 -21 28 -40 53 -43 56 -23 19 -40 61 -40 96 0 35 7 49 41 85 l40 44
-5 -50 c-9 -71 7 -44 33 59 12 49 31 112 42 141 21 56 18 54 146 86 47 11 57
11 90 -5 43 -21 121 -37 128 -26 3 4 -12 10 -33 14 -20 4 -50 13 -67 20 l-30
13 53 7 c28 5 52 12 52 17 0 19 -136 9 -239 -17 l-105 -27 -15 23 c-9 13 -29
53 -45 89 -27 60 -30 76 -30 171 0 66 6 120 15 145 13 37 17 40 74 51 33 7 80
15 105 18 45 6 45 6 18 -9 -56 -31 -26 -23 70 20 54 24 109 45 123 48 43 8
193 6 234 -2z m1049 -46 c-8 -19 -15 -19 -40 0 -18 14 -17 14 13 15 25 0 31
-4 27 -15z m-1715 -112 c-20 -52 -12 -194 14 -267 l25 -66 -89 0 c-48 0 -91
-4 -94 -10 -3 -5 -1 -10 5 -10 21 0 0 -120 -42 -234 -55 -149 -64 -186 -78
-302 -15 -122 -8 -152 55 -222 43 -48 65 -88 65 -118 0 -18 -25 -18 -44 1 -19
20 -29 19 -50 -4 -40 -44 -43 -161 -5 -161 11 0 19 -4 19 -10 0 -13 -58 -42
-71 -35 -5 4 -25 37 -44 73 -35 70 -46 65 -20 -8 18 -52 18 -50 1 -50 -8 0
-29 27 -47 60 -17 33 -36 60 -40 60 -12 0 -11 -4 8 -45 16 -33 14 -53 -4 -42
-5 3 -19 26 -32 51 -24 49 -47 64 -30 20 15 -41 1 -42 -16 -1 -22 54 -19 88
22 195 l37 97 3 310 3 310 34 140 c39 158 42 162 149 203 148 58 243 91 259
92 15 0 16 -4 7 -27z m80 -402 l23 -35 -27 -69 c-18 -45 -46 -90 -80 -128 -53
-60 -69 -97 -59 -146 7 -37 -25 -97 -75 -139 -22 -19 -50 -50 -62 -70 -41 -67
-46 -3 -14 177 12 64 55 198 96 298 6 13 13 52 16 86 l6 61 76 0 c76 -1 77 -1
100 -35z m-70 -504 c50 -68 92 -104 158 -134 29 -13 55 -29 59 -34 16 -26 110
-90 161 -109 32 -12 94 -26 138 -31 44 -5 100 -13 125 -18 l45 -7 -59 -9
c-219 -30 -502 95 -663 293 -38 47 -41 55 -31 77 6 14 15 25 19 25 5 0 26 -24
48 -53z m-75 -42 c15 -23 15 -25 -13 -46 -17 -12 -33 -29 -36 -37 -3 -8 11 0
31 18 l36 31 24 -22 c13 -12 24 -26 24 -31 0 -5 -15 -32 -34 -61 -19 -28 -37
-63 -40 -77 -6 -22 -5 -21 10 5 9 17 30 51 46 77 l30 47 65 -54 c148 -122 350
-194 516 -183 41 3 87 12 104 20 39 19 53 8 53 -42 0 -28 5 -40 24 -49 13 -8
32 -30 41 -51 9 -21 41 -58 69 -83 43 -37 55 -55 68 -101 l15 -56 -161 0 c-88
0 -178 3 -199 7 l-38 6 48 51 48 51 -55 -52 -56 -53 -129 1 c-72 0 -137 3
-146 7 -9 4 -51 53 -94 110 -79 106 -131 153 -236 218 -50 31 -59 41 -59 66 0
40 -22 86 -63 133 l-34 40 25 35 c33 45 84 100 93 100 4 0 14 -11 23 -25z
m1063 -82 l-10 -92 38 -103 c21 -57 39 -107 41 -113 2 -5 0 -16 -5 -24 -7 -10
-17 -5 -45 25 -19 22 -36 45 -36 52 0 29 -22 8 -49 -48 -27 -56 -52 -90 -66
-90 -3 0 -10 11 -15 25 -7 18 -5 32 7 53 15 26 15 36 4 85 -10 41 -11 63 -3
86 6 18 7 31 2 31 -6 0 -1 24 11 53 14 37 36 67 77 104 31 28 57 50 58 50 0
-1 -4 -43 -9 -94z m-1615 -69 c40 -14 76 -29 79 -33 4 -3 -1 -27 -10 -52 l-16
-47 -83 31 c-95 34 -119 58 -103 101 13 34 38 34 133 0z m1432 -123 c6 -10
-44 -22 -58 -14 -11 7 14 23 36 23 9 0 19 -4 22 -9z m-938 -72 c103 -53 162
-97 224 -167 91 -102 240 -331 425 -657 57 -99 127 -220 155 -270 29 -49 132
-232 230 -405 98 -173 188 -332 200 -352 19 -33 20 -39 6 -44 -30 -11 -43 4
-108 128 -36 68 -109 197 -163 288 -106 178 -152 258 -208 360 -197 363 -252
458 -392 676 -78 122 -188 275 -193 269 -2 -2 14 -27 35 -57 86 -117 310 -486
473 -778 57 -102 193 -342 302 -534 110 -192 196 -352 191 -356 -4 -5 -28 -10
-53 -12 l-44 -3 -64 110 c-36 61 -177 313 -315 560 -463 834 -544 971 -632
1059 -33 34 -85 74 -115 90 -30 16 -58 34 -62 40 -17 24 -1 96 21 96 4 0 43
-18 87 -41z m926 9 c-18 -19 -22 -20 -22 -6 0 9 8 21 17 27 27 15 29 3 5 -21z
m38 -20 c0 -22 -17 -41 -29 -34 -8 5 -8 13 -1 27 12 21 30 26 30 7z m162 -60
c103 -135 133 -234 258 -853 39 -192 76 -374 82 -403 10 -45 10 -55 -2 -62
-19 -11 -26 -4 -39 40 l-10 35 5 -42 c5 -39 3 -43 -25 -57 -33 -17 -61 -21
-61 -8 0 5 -13 73 -29 153 -16 79 -48 252 -71 384 -23 132 -51 275 -61 318
l-20 78 26 20 c44 35 23 109 -31 109 -19 0 -24 7 -30 38 -9 50 -32 108 -62
156 -15 25 -20 41 -13 45 5 4 17 23 26 44 8 20 19 37 24 37 5 0 20 -15 33 -32z
m-1103 -114 c61 -55 172 -218 260 -382 13 -25 4 -31 -89 -57 -25 -7 -38 -14
-28 -14 9 -1 43 7 76 17 l59 19 55 -96 55 -96 -36 -8 c-90 -21 -364 22 -493
77 -82 35 -215 111 -261 148 l-29 23 37 80 c46 100 99 228 114 278 10 29 18
37 36 37 13 0 27 -4 30 -10 13 -20 65 -10 97 19 38 34 42 33 117 -35z m1061
-203 c78 -5 85 -8 88 -28 3 -23 2 -23 -116 -23 -65 0 -228 3 -361 7 l-242 6
-21 30 -21 30 294 -8 c162 -4 332 -10 379 -14z m-551 -93 c-27 -23 -36 -23
-49 2 -10 18 -8 19 30 17 40 -2 41 -2 19 -19z m509 5 c70 -5 82 -9 82 -24 0
-42 -420 -272 -465 -255 -7 2 -37 47 -67 99 -31 52 -63 105 -72 119 -16 25
-16 26 16 47 31 19 47 21 228 21 107 0 232 -3 278 -7z m102 -91 c0 -4 16 -93
35 -197 19 -103 33 -190 30 -193 -10 -10 -139 18 -147 32 -5 8 -60 49 -123 91
-63 42 -117 81 -120 85 -3 5 9 17 26 26 30 15 34 15 78 -5 61 -27 153 -61 166
-60 6 0 -36 18 -93 41 -57 22 -102 42 -99 44 2 2 53 35 113 74 104 66 134 80
134 62z m351 -261 c15 -45 6 -123 -22 -189 -12 -29 -23 -51 -25 -49 -4 4 -94
446 -94 461 1 17 129 -185 141 -223z m-1675 94 c71 -34 230 -85 265 -85 11 0
19 -2 19 -5 0 -18 -150 -267 -182 -301 -38 -41 -101 -76 -226 -124 -77 -31
-68 -38 13 -10 32 11 60 18 62 16 5 -5 -95 -97 -229 -209 -150 -127 -188 -167
-213 -229 -18 -44 -28 -56 -70 -78 -37 -18 -51 -32 -53 -50 -8 -58 -52 -73
-133 -45 -77 28 -133 100 -145 189 -6 41 -4 45 30 71 24 18 38 38 42 62 5 26
19 44 58 73 35 26 71 68 107 125 147 231 151 236 213 282 33 25 82 56 108 69
34 17 52 34 62 58 12 29 41 56 59 56 3 0 7 -12 10 -28 7 -36 48 -144 53 -140
2 2 -9 42 -25 88 l-28 84 19 90 c28 139 22 131 71 100 23 -14 74 -41 113 -59z
m994 -53 c19 -16 75 -54 123 -85 80 -52 87 -59 77 -78 -7 -11 -9 -31 -6 -43 3
-14 -4 -36 -20 -60 -15 -21 -38 -65 -53 -97 l-27 -59 -118 205 c-65 114 -116
208 -114 211 6 5 81 32 93 33 6 1 26 -12 45 -27z m339 -182 c64 0 64 0 75 -65
2 -16 19 -105 36 -196 32 -165 32 -166 13 -202 -15 -30 -34 -44 -99 -75 l-80
-39 -25 47 -25 47 42 36 c23 20 57 56 75 79 23 31 12 23 -41 -29 -40 -40 -76
-73 -79 -73 -3 0 -30 42 -59 93 -52 94 -52 94 -38 134 18 52 54 122 78 152 11
14 18 37 16 55 -3 43 8 59 32 46 10 -5 46 -10 79 -10z m864 -186 c14 -4 17
-17 17 -75 0 -62 -2 -69 -20 -69 -17 0 -19 8 -22 68 -3 63 -4 67 -28 70 -14 2
-29 8 -35 14 -10 10 42 5 88 -8z m-70 -19 l38 -6 -3 -57 -3 -57 -62 -3 -63 -3
0 70 0 71 28 -5 c15 -2 44 -7 65 -10z m138 -170 c82 -12 320 -68 339 -80 13
-8 367 -94 458 -111 50 -10 92 -22 92 -26 0 -4 -7 -8 -15 -8 -21 0 -35 -41
-35 -106 0 -30 -2 -54 -4 -54 -17 0 -377 76 -436 91 -485 131 -638 149 -855
104 -103 -21 -203 -56 -338 -115 l-107 -48 -35 62 -34 61 42 21 c62 32 272
119 347 144 149 49 351 63 510 35 82 -14 245 -55 360 -90 199 -60 456 -117
519 -114 31 1 20 4 -165 44 -67 14 -223 54 -348 90 -264 74 -355 93 -489 98
-54 2 -100 7 -104 11 -12 12 202 6 298 -9z m-275 -236 c-3 -17 -6 -79 -6 -136
l0 -105 -27 6 c-16 3 -59 9 -96 12 -37 4 -70 10 -72 14 -2 3 -11 38 -19 76 -8
38 -16 75 -18 83 -4 16 64 44 157 65 89 21 88 21 81 -15z m149 -141 c-4 -95
-9 -174 -10 -176 -1 -1 -28 0 -59 4 l-56 7 0 168 0 169 66 0 66 0 -7 -172z
m52 40 c-4 -66 -7 -146 -7 -175 0 -46 -3 -54 -17 -51 -15 3 -17 15 -15 93 5
182 13 255 30 255 13 0 14 -16 9 -122z m-439 106 c-17 -16 -263 -123 -299
-129 -88 -15 -18 19 246 118 44 16 62 20 53 11z m1432 -52 c0 -63 -12 -86 -48
-95 -21 -5 -23 -3 -18 16 3 12 6 45 6 74 0 41 4 53 18 56 40 11 42 8 42 -51z
m-2109 -34 c22 -40 65 -114 95 -165 30 -50 54 -94 54 -97 0 -3 -21 -14 -46
-25 -37 -17 -45 -25 -41 -41 4 -17 0 -20 -28 -20 -49 0 -136 20 -162 36 -28
18 -29 44 -4 85 15 25 18 43 14 79 -5 40 -1 53 20 85 14 21 32 60 38 87 7 26
14 48 15 48 2 0 22 -33 45 -72z m667 -73 c12 -58 25 -112 28 -120 5 -11 -1
-15 -18 -15 -22 0 -25 7 -48 111 -20 95 -22 112 -9 120 8 5 16 9 19 9 3 0 15
-47 28 -105z m-49 -47 l19 -88 -34 -1 c-19 -1 -39 -2 -46 -3 -11 -1 -55 126
-57 164 -1 9 18 24 42 35 50 24 45 30 76 -107z m-2609 77 c0 -24 45 -108 72
-132 26 -24 104 -62 129 -63 13 0 17 -18 22 -100 7 -117 19 -145 86 -197 54
-42 67 -66 45 -87 -34 -35 -253 -34 -320 0 -51 27 -72 71 -85 180 -5 49 -21
122 -36 163 -14 41 -27 94 -27 119 -1 41 3 48 47 88 52 47 67 53 67 29z m2470
-57 c6 -24 15 -58 20 -77 5 -19 8 -36 7 -37 -1 -1 -27 -4 -57 -5 l-55 -3 -37
64 c-20 36 -37 70 -37 76 -1 6 24 12 61 13 35 1 65 4 67 7 12 12 21 0 31 -38z
m364 -82 c33 -6 62 -18 64 -25 4 -11 -12 -13 -82 -9 -47 2 -87 6 -90 9 -2 2
-7 14 -10 26 -8 25 -18 25 118 -1z m335 -65 c7 -5 26 -38 41 -73 60 -143 189
-309 309 -398 33 -25 60 -48 61 -52 0 -5 -15 -8 -32 -9 -18 -1 -44 -4 -58 -8
-18 -5 -33 -2 -52 12 -21 16 -36 19 -73 14 -32 -5 -55 -2 -76 8 -16 9 -64 23
-106 31 -99 21 -195 14 -298 -22 -101 -35 -144 -29 -239 35 -39 27 -143 91
-231 143 -196 117 -325 211 -325 237 0 10 90 34 215 58 116 23 540 25 723 4
67 -8 125 -11 129 -7 4 3 -2 13 -13 21 -14 11 -15 14 -4 15 8 0 21 -4 29 -9z
m-1229 -123 c30 -5 74 -8 97 -5 35 4 46 1 65 -21 20 -22 221 -158 319 -217
l34 -20 -71 -3 c-48 -2 -109 5 -188 23 -78 16 -149 25 -209 25 -166 0 -201 24
-179 120 20 85 39 123 59 115 10 -3 43 -11 73 -17z"/>
<path d="M6347 4765 c12 -8 24 -25 26 -38 4 -20 4 -20 6 4 1 28 -15 49 -38 49
-11 0 -9 -4 6 -15z"/>
<path d="M5749 4608 c-12 -22 -11 -22 8 -5 11 9 23 14 26 10 14 -14 6 -51 -14
-65 -16 -10 -20 -20 -15 -36 4 -12 12 -22 17 -22 6 0 6 8 -1 20 -8 15 -6 21
10 30 20 11 26 43 14 74 -9 23 -31 20 -45 -6z"/>
<path d="M6015 4560 c-19 -8 -19 -9 2 -9 12 -1 45 -21 75 -46 41 -36 60 -45
82 -43 16 2 31 10 34 18 4 12 2 12 -8 3 -10 -10 -21 -5 -52 20 -81 66 -96 73
-133 57z"/>
<path d="M6005 4485 c6 -2 22 -6 37 -9 18 -4 25 -11 22 -20 -8 -21 17 -32 28
-12 5 9 13 14 19 11 5 -4 9 -2 9 4 0 12 -64 31 -100 30 -14 0 -20 -2 -15 -4z"/>
<path d="M5861 4442 c-1 -15 26 -82 33 -82 3 0 -1 15 -8 33 -7 17 -16 39 -19
47 -3 10 -6 10 -6 2z"/>
<path d="M5959 4253 l-24 -28 30 25 c17 14 32 26 34 28 2 1 0 2 -6 2 -5 0 -20
-12 -34 -27z"/>
<path d="M5701 4244 c0 -11 3 -14 6 -6 3 7 2 16 -1 19 -3 4 -6 -2 -5 -13z"/>
<path d="M5680 4166 c-6 -31 -10 -62 -7 -69 2 -6 9 17 15 52 14 80 8 93 -8 17z"/>
<path d="M5995 4193 c11 -2 44 -13 73 -24 75 -27 88 -23 18 6 -33 14 -71 24
-85 24 -21 -1 -22 -2 -6 -6z"/>
<path d="M6034 4125 c11 -8 29 -15 40 -15 26 0 16 9 -25 20 -31 9 -32 8 -15
-5z"/>
<path d="M5662 4060 c0 -14 2 -19 5 -12 2 6 2 18 0 25 -3 6 -5 1 -5 -13z"/>
<path d="M5195 4390 c39 -75 26 -196 -31 -299 -13 -24 -18 -38 -10 -32 28 23
70 136 74 199 4 62 -16 143 -40 158 -5 3 -2 -8 7 -26z"/>
<path d="M5453 4215 c0 -22 2 -30 4 -17 2 12 2 30 0 40 -3 9 -5 -1 -4 -23z"/>
<path d="M5465 4125 c3 -47 42 -171 51 -163 2 2 -5 28 -16 57 -11 28 -25 75
-30 104 l-9 52 4 -50z"/>
<path d="M5806 3891 c-16 -16 -41 -35 -57 -42 -17 -6 -28 -14 -25 -16 8 -8 60
25 90 56 17 17 27 31 25 31 -3 0 -18 -13 -33 -29z"/>
<path d="M4951 3822 c-2 -25 58 -138 94 -177 l37 -40 -31 41 c-27 37 -78 130
-94 174 -3 10 -6 10 -6 2z"/>
<path d="M5673 3823 c9 -2 23 -2 30 0 6 3 -1 5 -18 5 -16 0 -22 -2 -12 -5z"/>
<path d="M4864 3462 c62 -122 205 -262 267 -262 7 0 -10 12 -39 26 -63 31
-160 134 -209 221 -41 74 -54 84 -19 15z"/>
<path d="M5222 3473 c37 -2 100 -2 140 0 40 1 10 3 -67 3 -77 0 -110 -1 -73
-3z"/>
<path d="M4283 4118 c-11 -13 -25 -38 -32 -57 -12 -37 -13 -158 -1 -206 4 -16
5 9 2 57 -6 98 9 172 40 206 12 12 19 22 16 22 -2 0 -14 -10 -25 -22z"/>
<path d="M4550 3424 c0 -17 79 -114 125 -154 16 -14 4 3 -28 38 -31 35 -64 77
-72 93 -14 27 -25 37 -25 23z"/>
<path d="M4720 3001 c53 -42 231 -122 268 -120 9 0 -13 11 -49 23 -37 13 -107
44 -155 70 -49 25 -78 37 -64 27z"/>
<path d="M5200 2964 c-36 -19 -59 -34 -52 -34 17 0 109 47 117 60 3 5 5 9 3 8
-2 0 -32 -16 -68 -34z"/>
<path d="M5200 2871 c-93 -58 -187 -100 -248 -111 -33 -5 -38 -8 -18 -9 72 -3
205 55 319 139 62 45 32 35 -53 -19z"/>
<path d="M5448 1364 c-14 -14 -8 -52 9 -58 9 -4 23 -1 30 7 11 11 11 16 -2 32
-12 17 -14 17 -9 3 3 -10 1 -18 -4 -18 -6 0 -12 9 -14 21 -2 11 -6 17 -10 13z"/>
<path d="M5604 2840 c60 -140 87 -248 181 -720 53 -265 82 -389 70 -295 -17
127 -130 687 -161 791 -31 107 -79 234 -99 260 -8 10 -4 -6 9 -36z"/>
<path d="M5862 1765 c0 -11 4 -31 8 -45 6 -20 8 -21 8 -5 0 11 -4 31 -8 45 -6
20 -8 21 -8 5z"/>
<path d="M4588 2363 c7 -3 16 -2 19 1 4 3 -2 6 -13 5 -11 0 -14 -3 -6 -6z"/>
<path d="M4023 2015 c0 -27 2 -38 4 -22 2 15 2 37 0 50 -2 12 -4 0 -4 -28z"/>
<path d="M3940 1645 c-36 -21 -173 -74 -260 -101 -41 -12 -65 -23 -53 -23 44
-2 322 105 351 134 11 10 -14 4 -38 -10z"/>
<path d="M3541 1450 c-1 -32 27 -75 76 -117 l38 -33 -30 6 c-16 4 -48 13 -70
20 -51 17 -57 11 -8 -9 53 -21 133 -32 133 -19 0 6 -8 13 -18 16 -30 10 -93
81 -107 122 -12 32 -14 34 -14 14z"/>
<path d="M3460 1352 c0 -23 27 -77 51 -99 23 -20 114 -50 104 -33 -3 4 -20 11
-38 14 -39 7 -79 46 -101 96 -8 19 -15 29 -16 22z"/>
<path d="M5575 1995 c22 -14 47 -25 55 -25 8 0 -7 12 -33 25 -62 32 -74 32
-22 0z"/>
<path d="M6327 1594 c-14 -15 -6 -43 14 -49 25 -8 42 6 37 31 -3 19 -38 31
-51 18z"/>
<path d="M5295 1200 c22 -25 76 -54 118 -64 40 -9 33 1 -10 15 -21 6 -58 25
-83 42 -36 23 -41 25 -25 7z"/>
<path d="M5428 1105 c-3 -3 -41 -10 -84 -15 l-79 -9 78 3 c43 2 83 8 90 15 6
6 9 11 6 11 -3 0 -8 -2 -11 -5z"/>
<path d="M3460 860 c-10 -6 11 -7 60 -3 41 3 77 7 79 9 10 9 -125 3 -139 -6z"/>
<path d="M6525 983 c29 -69 79 -144 138 -207 32 -33 47 -45 32 -26 -97 128
-120 161 -146 213 -33 64 -47 77 -24 20z"/>
<path d="M4640 939 c56 -7 327 -12 319 -5 -2 2 -87 5 -189 8 -102 3 -160 2
-130 -3z"/>
<path d="M2920 874 c80 -7 172 -12 205 -12 36 1 3 6 -80 14 -77 7 -169 12
-205 12 -42 -1 -14 -5 80 -14z"/>
<path d="M4005 814 c66 -14 537 -44 671 -42 l159 1 -190 7 c-104 4 -239 12
-300 18 -115 12 -374 24 -340 16z"/>
<path d="M6900 790 c30 -7 226 -24 525 -45 42 -3 62 -1 50 4 -20 8 -69 13
-340 31 -82 5 -177 12 -210 15 -49 3 -53 3 -25 -5z"/>
</g>
</svg>
