<?xml version="1.0" standalone="no"?>
<!DOCTYPE svg PUBLIC "-//W3C//DTD SVG 20010904//EN"
 "http://www.w3.org/TR/2001/REC-SVG-20010904/DTD/svg10.dtd">
<svg version="1.0" xmlns="http://www.w3.org/2000/svg"
 width="1024.000000pt" height="559.000000pt" viewBox="0 0 1024.000000 559.000000"
 preserveAspectRatio="xMidYMid meet">
<metadata>
Created by potrace 1.16, written by Peter Selinger 2001-2019
</metadata>
<g transform="translate(0.000000,559.000000) scale(0.100000,-0.100000)"
fill="#000000" stroke="none">
<path d="M6018 5036 c-16 -9 -42 -12 -65 -9 -31 4 -43 0 -66 -21 -15 -14 -39
-26 -53 -26 -13 0 -33 -10 -44 -22 -23 -25 -21 -24 -67 -66 -21 -20 -33 -40
-33 -57 0 -16 -10 -35 -27 -50 -24 -20 -28 -30 -26 -71 1 -26 -4 -56 -11 -68
-12 -20 -16 -150 -5 -186 3 -10 -2 -14 -16 -12 -65 9 -389 -1 -464 -14 -155
-26 -209 -51 -298 -137 -111 -106 -227 -298 -299 -494 -29 -80 -49 -117 -96
-174 l-59 -72 2 -66 c1 -44 -4 -76 -15 -96 -9 -16 -16 -35 -16 -41 0 -6 -7
-17 -15 -24 -29 -24 -102 -145 -129 -213 -15 -37 -40 -133 -57 -213 -16 -80
-50 -221 -74 -312 -25 -92 -45 -175 -45 -184 0 -10 20 -29 46 -44 29 -17 43
-32 40 -41 -3 -7 -11 -55 -17 -106 -10 -83 -14 -94 -40 -115 -16 -13 -29 -31
-29 -41 0 -21 -22 -42 -112 -104 -86 -61 -120 -104 -207 -262 -50 -92 -85
-143 -120 -175 -54 -51 -71 -77 -71 -114 0 -18 -9 -30 -30 -41 -27 -14 -41
-40 -44 -84 -1 -9 -20 -36 -43 -60 -60 -61 -69 -98 -49 -202 9 -46 20 -128 25
-182 6 -60 16 -109 26 -124 30 -45 97 -67 220 -71 130 -5 178 9 189 52 8 33
-18 92 -50 113 -31 20 -54 98 -54 180 0 57 2 64 23 72 28 11 42 28 50 61 4 15
21 33 44 45 37 20 46 33 78 110 12 30 76 98 239 255 123 118 244 232 269 252
48 40 96 125 177 311 l42 97 112 0 c110 0 227 20 325 53 l44 16 66 -58 c36
-31 96 -83 133 -115 58 -49 66 -60 58 -77 -6 -10 -8 -30 -4 -43 4 -17 -3 -44
-21 -81 -14 -31 -31 -81 -38 -110 -10 -51 -12 -53 -36 -43 -52 19 -113 -16
-106 -61 67 -385 71 -444 37 -544 -13 -37 -14 -54 -5 -77 8 -22 8 -39 -3 -71
-23 -64 -28 -125 -14 -158 12 -31 39 -45 103 -58 40 -8 47 -17 81 -97 l17 -39
-58 7 c-85 9 -358 26 -428 25 -43 0 -54 -3 -40 -9 11 -5 67 -9 124 -9 182 -2
424 -29 484 -55 203 -90 572 -126 917 -91 296 30 478 93 496 173 3 15 18 51
31 79 17 36 24 63 20 85 -6 43 36 242 62 293 14 27 21 58 21 100 1 33 7 86 15
119 17 71 9 94 -42 132 -21 16 -39 29 -40 29 -1 1 6 50 17 110 23 127 25 208
8 223 -22 17 -120 42 -168 42 -87 0 -101 -26 -125 -225 -9 -77 -9 -76 -105
-59 -106 18 -596 29 -735 16 -55 -5 -101 -8 -102 -8 -2 2 19 78 81 289 25 88
46 175 46 194 0 51 -44 154 -122 280 -37 61 -68 121 -68 133 0 24 -38 83 -117
182 -29 37 -53 69 -53 72 0 11 129 -44 171 -72 24 -17 63 -35 86 -41 34 -9 47
-19 62 -50 11 -20 27 -43 35 -50 12 -10 16 -31 16 -76 0 -71 6 -95 25 -95 13
0 25 30 25 63 0 29 -20 9 -22 -21 0 -15 -4 8 -7 50 -5 58 -12 83 -28 100 -11
13 -24 33 -27 45 -6 20 -4 21 36 17 24 -3 75 -10 114 -15 71 -11 114 -3 114
21 0 6 11 10 25 10 15 0 28 7 32 18 3 9 14 25 25 35 20 19 24 52 8 62 -6 4 -7
13 -1 23 20 38 -36 101 -115 131 l-49 19 38 7 c28 6 43 3 63 -11 28 -20 42
-28 72 -43 10 -5 19 -24 23 -50 3 -23 11 -47 17 -53 15 -15 16 -64 2 -73 -5
-3 -10 -26 -10 -49 0 -35 -4 -45 -20 -49 -23 -6 -25 5 -8 36 10 20 10 21 -5 8
-10 -7 -17 -23 -17 -35 0 -12 -6 -30 -13 -40 -12 -16 -16 -17 -34 -5 -18 10
-24 10 -37 0 -12 -10 -16 -11 -16 -1 0 9 -6 8 -23 -3 -19 -12 -27 -13 -46 -2
-13 6 -45 10 -71 8 -41 -3 -51 0 -64 19 -9 12 -18 19 -22 16 -11 -12 16 -48
41 -54 19 -5 38 -34 92 -141 65 -130 67 -137 65 -199 -3 -46 3 -84 19 -131 20
-60 20 -67 5 -75 -42 -24 -2 -138 49 -138 12 0 28 -7 35 -15 7 -8 23 -15 35
-15 13 0 35 -6 50 -14 18 -9 35 -12 49 -6 12 4 29 4 37 0 25 -15 78 25 100 75
14 33 18 55 13 86 -6 34 -4 41 7 37 24 -9 59 10 59 31 0 11 -10 40 -21 63 -12
24 -33 67 -48 96 -18 38 -45 68 -89 104 -69 54 -80 74 -107 186 -17 70 -17 75
-1 103 10 16 16 42 15 57 -1 15 4 40 12 56 12 25 11 32 -8 68 -12 21 -20 45
-17 52 10 26 -15 64 -50 76 -30 10 -37 18 -47 53 -6 23 -28 83 -50 134 -37 88
-39 97 -39 198 0 102 1 107 26 128 l26 23 -11 89 c-6 50 -13 153 -14 230 -3
104 -8 150 -20 179 l-17 38 42 52 c23 28 66 77 94 108 34 37 58 75 69 110 10
29 33 70 51 91 19 20 34 45 34 56 0 13 10 20 30 25 20 3 34 14 40 30 5 14 19
35 30 46 16 16 21 34 21 73 0 29 1 69 1 89 1 23 -5 45 -15 56 -9 10 -17 32
-17 49 0 17 -9 38 -20 49 -11 10 -25 24 -31 29 -5 6 -19 25 -30 43 -12 21 -29
35 -49 38 -16 4 -37 17 -45 31 -19 29 -77 56 -100 47 -9 -4 -25 2 -38 14 -30
28 -76 35 -109 18z m91 -42 c20 -16 37 -23 49 -19 30 9 71 -12 90 -45 12 -20
22 -28 34 -24 22 7 68 -38 68 -66 0 -11 7 -20 15 -20 24 0 56 -43 53 -71 -1
-14 5 -34 15 -43 18 -19 23 -71 7 -81 -6 -4 -6 -15 0 -31 15 -38 12 -53 -14
-77 -13 -12 -25 -31 -27 -42 -3 -11 -12 -21 -22 -23 -15 -3 -17 1 -11 25 4 15
15 37 25 49 11 11 19 27 19 34 0 9 -6 6 -16 -8 -8 -12 -21 -22 -28 -22 -16 0
-29 27 -20 41 8 13 -4 11 -31 -7 -30 -19 -60 -6 -69 31 -6 22 -9 24 -27 15
-30 -17 -56 -3 -69 35 -10 30 -14 33 -30 23 -15 -10 -23 -9 -39 6 -11 10 -21
28 -23 40 -4 27 -22 28 -26 1 -6 -32 -34 -56 -61 -53 -19 2 -26 -2 -31 -21 -5
-24 -18 -34 -52 -45 -10 -3 -18 -14 -18 -24 0 -11 -6 -25 -14 -31 -20 -17 -31
4 -27 51 7 98 -84 129 -134 45 -14 -23 -19 -51 -20 -101 0 -74 -12 -92 -32
-49 -11 22 -10 31 3 51 11 17 13 27 5 35 -17 17 -13 52 8 71 16 15 18 23 10
44 -14 35 -4 68 26 88 18 11 25 25 25 47 0 35 25 67 52 67 10 0 18 6 18 13 0
26 27 49 56 49 18 0 38 10 52 25 20 21 29 24 61 19 25 -4 44 -1 57 9 28 21 59
18 93 -11z m-313 -349 c10 -16 14 -36 11 -54 -3 -15 -3 -37 0 -49 11 -44 70
-38 80 9 4 23 11 29 30 29 18 0 28 8 36 30 9 23 18 30 38 30 15 0 32 7 39 15
11 13 15 13 33 0 12 -8 32 -15 44 -15 13 0 23 -6 23 -14 0 -20 39 -46 67 -46
12 0 34 -12 48 -26 15 -14 35 -24 48 -23 33 3 58 -11 53 -30 -31 -120 -25
-111 -67 -111 -22 0 -39 5 -39 11 0 32 -38 -45 -52 -106 -22 -93 -35 -125 -51
-125 -7 0 -30 16 -51 35 -34 31 -37 37 -25 52 12 14 12 16 -1 11 -28 -9 -22
-38 16 -73 68 -62 97 -43 123 79 9 40 16 55 23 48 6 -6 17 -8 25 -5 23 9 -20
-92 -61 -140 -189 -224 -185 -221 -258 -196 -51 16 -84 56 -148 174 -51 94
-52 99 -47 159 5 55 4 59 -8 36 -33 -64 -30 -90 28 -203 l54 -106 -31 -7 c-43
-9 -100 -33 -94 -39 3 -3 17 -1 31 4 22 9 25 8 20 -6 -5 -13 -2 -13 21 2 41
27 43 10 3 -30 -42 -42 -79 -46 -127 -12 -52 35 -88 95 -110 181 -22 88 -24
152 -6 211 11 36 15 40 55 47 25 4 62 19 84 34 35 23 41 24 49 10 10 -18 43
-22 53 -6 3 6 -3 10 -15 10 -29 0 -43 42 -38 119 4 55 8 67 32 87 34 30 42 30
62 -1z m-254 -230 c-50 -22 -65 -69 -59 -185 5 -103 27 -174 73 -242 31 -44
98 -88 135 -88 35 0 87 35 110 75 12 19 23 35 26 35 3 0 18 -11 35 -25 40 -34
103 -50 145 -37 l33 10 16 -56 c12 -41 15 -77 11 -134 -4 -48 -1 -123 9 -195
12 -95 13 -118 2 -128 -38 -35 -200 -69 -303 -63 l-60 3 -3 42 c-3 36 2 49 29
83 18 22 40 40 49 40 27 0 108 31 121 46 8 9 -4 7 -35 -7 -71 -31 -88 -21 -35
20 24 19 60 53 79 75 l35 41 -57 -49 c-61 -51 -71 -53 -38 -6 19 27 60 115 60
128 0 4 -19 -22 -41 -58 -51 -80 -143 -192 -200 -245 -24 -23 -86 -65 -137
-94 -87 -51 -140 -91 -74 -57 35 18 56 21 47 6 -3 -5 -39 -34 -79 -65 -87 -65
-117 -97 -61 -64 l38 23 -7 -35 c-3 -18 -14 -42 -24 -51 -16 -16 -21 -14 -87
43 -38 33 -94 74 -122 91 -57 32 -56 30 -32 113 4 17 11 55 15 85 5 33 14 60
25 70 15 12 20 36 25 110 5 73 11 103 28 130 24 38 56 113 56 132 0 7 -16 -21
-35 -61 -20 -41 -37 -72 -39 -70 -3 2 2 29 10 59 21 82 18 238 -6 306 -23 66
-60 118 -104 145 -49 30 -55 22 -7 -8 33 -22 50 -44 79 -103 34 -71 36 -81 37
-175 0 -70 -5 -114 -17 -145 -9 -25 -22 -100 -29 -167 -11 -115 -13 -122 -31
-112 -72 39 -303 62 -395 41 -52 -12 -50 -20 -24 145 24 150 35 273 21 253 -5
-8 -10 -23 -10 -32 0 -9 -5 -41 -12 -70 -10 -47 -12 -50 -19 -28 -6 17 -7 9
-3 -22 3 -26 -2 -83 -10 -128 -24 -123 -22 -156 11 -173 26 -14 26 -16 30
-133 2 -66 9 -161 16 -211 7 -51 10 -93 7 -93 -4 0 -25 13 -47 29 -45 33 -72
67 -121 156 -18 33 -30 49 -26 35 3 -14 19 -49 34 -77 15 -29 26 -53 24 -53
-3 0 -21 9 -42 19 -77 40 -151 144 -159 225 -5 47 -2 55 33 103 22 29 41 53
44 53 3 0 4 -24 3 -52 l-3 -53 14 60 c74 325 297 695 463 766 72 31 183 48
319 50 71 1 152 5 179 9 28 4 61 8 75 8 22 1 22 0 -8 -13z m746 -61 c-12 -12
-24 -14 -49 -8 l-34 8 40 7 c22 3 44 7 50 8 5 0 2 -6 -7 -15z m-1297 -739 c67
-13 129 -29 146 -40 5 -3 -19 -133 -34 -187 -13 -47 -20 -58 -37 -58 -13 0 2
-13 44 -36 36 -19 94 -59 130 -90 130 -110 217 -170 329 -226 62 -32 124 -58
137 -58 13 0 47 9 76 21 29 11 94 24 143 29 50 4 98 11 108 15 11 5 17 2 17
-7 0 -28 -25 -38 -95 -39 -66 -1 -68 -2 -30 -11 123 -29 182 -52 218 -86 53
-51 46 -74 -11 -32 -31 23 -135 53 -129 37 2 -6 23 -16 48 -23 48 -14 129 -77
129 -100 0 -19 -4 -18 -74 15 -67 32 -133 50 -122 33 3 -6 22 -16 41 -22 49
-16 125 -60 125 -71 0 -20 -28 -18 -99 6 -78 26 -101 30 -101 17 0 -4 29 -19
65 -32 36 -13 65 -28 65 -33 0 -5 -21 -7 -47 -4 -264 33 -280 37 -348 82 -34
22 -134 61 -307 119 -274 91 -290 98 -438 184 -120 70 -137 86 -144 131 -13
79 -36 329 -36 386 0 73 6 82 50 88 70 8 99 7 181 -8z m689 -214 c0 -29 4 -40
19 -44 14 -3 20 -18 25 -63 4 -33 11 -75 16 -94 5 -20 14 -71 20 -115 6 -44
13 -87 16 -96 5 -17 -33 -39 -67 -39 -25 0 -164 70 -252 126 -67 44 -67 44
-47 64 11 11 23 38 26 59 5 32 21 55 77 113 63 65 139 126 160 127 4 1 7 -16
7 -38z m-1237 -44 c33 -56 94 -110 153 -137 26 -12 69 -39 96 -61 28 -21 55
-39 62 -39 7 0 19 -12 26 -26 8 -14 32 -36 55 -50 47 -28 45 -29 -26 -8 -72
22 -180 76 -255 130 -74 52 -164 148 -164 175 0 19 17 59 24 59 2 0 16 -20 29
-43z m1599 -79 c4 -101 8 -121 38 -188 18 -41 36 -87 41 -102 7 -25 5 -28 -16
-28 -17 0 -25 6 -27 23 -3 22 -5 22 -113 18 -60 -2 -120 -7 -133 -12 -28 -11
-29 -8 -42 96 -9 75 -34 210 -45 246 -5 14 9 17 92 22 54 4 118 13 143 21 25
8 48 14 51 15 4 1 9 -50 11 -111z m-1644 2 l23 -30 -26 -27 c-26 -27 -75 -114
-75 -130 1 -4 12 12 25 37 13 25 37 59 52 77 l28 32 30 -24 29 -24 -31 -63
c-34 -68 -63 -159 -63 -192 1 -12 13 17 29 64 28 86 66 170 77 170 4 0 27 -15
53 -34 89 -65 278 -146 341 -146 15 0 71 -23 125 -51 54 -27 162 -70 239 -95
78 -25 154 -51 169 -56 25 -10 153 -161 211 -250 l18 -27 -39 -6 c-63 -10
-119 -34 -293 -121 -271 -135 -361 -159 -600 -158 -146 0 -177 3 -273 28 -129
33 -353 126 -371 154 -2 4 9 57 25 117 43 162 75 297 99 415 23 115 41 172 78
240 27 49 84 130 92 129 3 0 15 -13 28 -29z m1854 -883 c18 -49 29 -64 83
-103 54 -40 68 -57 112 -144 28 -54 49 -101 46 -104 -21 -21 -81 23 -98 71 -6
20 -54 58 -62 50 -3 -3 6 -16 19 -29 14 -13 29 -34 33 -48 4 -14 13 -32 20
-40 22 -26 27 -108 9 -146 -15 -32 -48 -64 -66 -64 -18 0 -7 50 13 61 18 9 19
13 8 20 -12 8 -11 12 4 23 20 16 23 27 3 20 -17 -7 -29 46 -14 64 8 9 7 11 -6
6 -12 -5 -16 -19 -16 -59 0 -50 -21 -110 -45 -127 -10 -7 -65 38 -65 53 0 15
35 15 60 0 19 -11 22 -11 13 -1 -9 10 -10 17 -2 27 9 10 8 13 -5 13 -20 0 -22
46 -1 57 8 5 -21 8 -68 8 -45 0 -72 -1 -59 -3 27 -4 30 -22 3 -22 -25 0 -33
13 -59 97 -16 49 -22 94 -21 140 1 58 -4 79 -35 150 -20 44 -36 91 -36 104 0
21 1 21 19 5 25 -23 36 -15 52 32 18 57 27 64 54 46 22 -14 25 -14 42 6 18 21
18 20 31 -42 7 -35 22 -89 34 -121z m-232 151 c16 -10 24 -10 41 0 28 18 30
13 18 -31 -11 -40 -23 -46 -38 -19 -13 22 -28 7 -33 -33 -3 -28 -4 -27 -30 28
-16 32 -28 60 -28 62 0 10 51 4 70 -7z m-333 -140 c26 -40 70 -115 97 -168 47
-87 51 -100 50 -161 0 -60 -6 -78 -52 -170 -28 -57 -42 -93 -32 -79 11 14 20
29 20 34 0 5 3 6 6 3 4 -4 -10 -65 -31 -136 l-38 -130 -51 -10 c-28 -5 -68
-12 -90 -16 l-38 -6 23 38 c12 21 29 48 37 61 8 12 12 22 9 22 -2 0 -24 -29
-47 -65 -23 -36 -45 -65 -49 -65 -3 0 -16 -3 -27 -6 -19 -5 -22 0 -28 39 -8
54 -34 89 -77 107 -28 12 -31 17 -26 45 3 18 20 68 37 111 20 49 29 89 26 105
-3 15 1 35 9 47 14 19 11 24 -38 70 -28 27 -86 78 -127 112 -41 35 -79 67 -84
71 -4 4 6 15 24 24 26 14 38 15 59 6 22 -10 23 -9 9 2 -14 11 0 21 112 80 126
67 218 105 253 106 11 1 34 -25 64 -71z m-1460 -114 c78 -34 236 -80 306 -89
32 -4 60 -11 62 -16 7 -10 -104 -262 -138 -316 -14 -21 -38 -50 -53 -64 -26
-24 -136 -75 -202 -94 -13 -4 -22 -9 -19 -11 2 -2 32 4 65 15 l61 19 -55 -62
c-30 -35 -113 -116 -184 -181 -147 -134 -172 -163 -198 -231 -13 -36 -29 -56
-59 -77 -23 -15 -45 -38 -49 -50 -18 -60 -51 -69 -138 -37 -63 24 -110 71
-125 127 -17 61 -13 80 23 113 21 19 36 44 39 65 4 24 23 51 64 92 43 43 75
91 123 181 75 141 127 206 214 264 33 22 71 49 82 60 l21 19 8 -63 c5 -39 10
-54 13 -38 2 14 -1 49 -8 79 -12 55 -12 55 18 80 28 24 31 34 41 123 6 53 11
101 11 107 0 16 13 14 77 -15z m2033 -334 c0 -27 -2 -30 -20 -20 -11 6 -24 19
-30 30 -10 18 -7 20 20 20 27 0 30 -3 30 -30z m-125 -22 c11 -32 10 -38 -2
-38 -8 0 -21 16 -29 35 -18 43 -18 47 2 43 9 -2 22 -20 29 -40z m75 -16 c0 -9
3 -28 7 -41 5 -21 4 -22 -16 -12 -24 13 -45 57 -37 78 8 19 46 -2 46 -25z
m717 -95 c12 -5 23 -14 23 -19 0 -11 -24 -10 -36 2 -5 5 -36 16 -69 25 l-60
15 59 -6 c32 -3 70 -11 83 -17z m-87 -8 c30 -6 58 -16 62 -22 7 -11 3 -48 -18
-153 -7 -39 -19 -116 -25 -170 -6 -54 -13 -102 -15 -106 -2 -4 -30 2 -61 13
-31 10 -63 19 -72 19 -43 1 -43 4 -8 185 9 44 21 115 27 159 12 89 15 99 38
92 10 -2 42 -10 72 -17z m115 -106 c-30 -181 -38 -215 -52 -220 -22 -9 -24 1
-13 63 5 33 15 98 21 147 11 79 14 87 34 87 22 0 22 0 10 -77z m-1636 -28 c30
-10 63 -25 72 -34 12 -11 25 -55 38 -126 11 -61 24 -132 30 -160 5 -27 9 -51
8 -51 -1 -1 -11 -4 -22 -8 -19 -5 -22 5 -48 151 -15 87 -34 166 -41 178 -8 12
-39 27 -77 38 -46 14 -59 21 -48 28 7 5 19 7 24 5 6 -2 35 -11 64 -21z m45
-148 c10 -51 28 -152 42 -225 14 -73 24 -137 22 -142 -4 -11 -115 33 -135 53
-12 12 -83 387 -83 438 0 14 8 13 69 -8 l68 -25 17 -91z m1085 38 c182 -17
225 -25 214 -36 -4 -4 -48 -1 -98 7 -51 8 -207 17 -357 21 -148 3 -268 10
-268 14 0 14 343 10 509 -6z m-534 -4 c-33 -13 -215 -24 -215 -12 0 10 56 16
170 19 41 0 58 -2 45 -7z m-225 -19 c0 -4 -42 -16 -92 -25 -51 -10 -103 -20
-115 -23 -13 -4 -23 -2 -23 4 0 10 42 21 150 41 61 12 80 12 80 3z m252 -51
l3 -49 -65 -7 c-36 -3 -84 -8 -106 -11 l-41 -6 -7 47 c-4 26 -6 49 -3 51 3 3
106 15 199 23 12 1 17 -10 20 -48z m453 41 l50 -7 -4 -45 c-1 -25 -4 -46 -4
-46 -1 -1 -54 1 -117 5 l-115 6 4 44 c2 29 -1 41 -8 37 -6 -4 -11 -25 -11 -47
l0 -39 -114 0 -114 0 -7 40 c-4 21 -4 44 0 50 7 11 356 13 440 2z m136 -11
c30 -5 75 -12 100 -16 l46 -6 -9 -48 -10 -47 -100 13 c-56 7 -103 15 -105 17
-7 7 8 96 16 96 4 0 32 -4 62 -9z m-819 -41 c1 -16 2 -38 2 -47 1 -14 -10 -19
-44 -24 -25 -4 -66 -10 -91 -14 l-47 -7 -4 43 c-3 24 -3 46 -2 48 7 8 110 29
147 30 34 1 37 -1 39 -29z m-196 -96 c-8 -22 -33 -17 -40 9 -11 43 -7 75 12
79 13 3 19 -6 25 -35 5 -21 6 -45 3 -53z m1461 57 c27 -19 40 -58 26 -80 -25
-41 -176 -101 -208 -84 -15 9 -9 13 36 28 109 35 148 91 94 133 -46 36 2 39
52 3z m-69 -17 c12 -8 22 -22 22 -30 0 -12 -54 -54 -71 -54 -4 0 -3 19 2 43 4
23 8 45 9 50 0 11 14 8 38 -9z m-358 -24 c95 -12 243 -45 268 -59 27 -15 -100
-46 -298 -73 -127 -17 -657 -17 -765 0 -233 36 -296 57 -254 83 17 10 133 36
229 50 182 26 621 26 820 -1z m437 -134 c-8 -31 -22 -56 -37 -68 -24 -17 -132
-59 -138 -53 -2 1 0 25 4 52 6 50 6 50 59 67 29 9 68 27 86 39 19 13 35 21 36
18 2 -3 -3 -28 -10 -55z m-1363 1 c60 -10 67 -14 53 -25 -14 -12 -33 -10 -121
8 -63 14 -103 27 -99 32 6 11 43 7 167 -15z m1155 4 c12 -8 10 -11 -10 -15
-157 -33 -205 -37 -219 -21 -8 10 9 16 77 27 107 19 134 20 152 9z m-1219 -42
c52 -11 95 -21 96 -22 1 -1 4 -26 7 -56 l6 -53 -37 7 c-112 20 -173 38 -181
53 -4 9 -11 37 -15 61 -6 39 -5 43 11 36 10 -3 61 -15 113 -26z m362 2 c28 -4
35 -9 29 -19 -7 -11 -30 -11 -132 -2 -68 7 -126 14 -128 15 -1 2 0 8 3 14 7
11 147 6 228 -8z m612 0 c7 -10 -32 -17 -152 -27 -62 -5 -86 -3 -99 7 -14 12
-10 15 38 20 90 10 207 10 213 0z m273 -8 c-3 -10 -8 -35 -12 -55 -5 -33 -10
-38 -43 -44 -20 -4 -68 -12 -107 -20 -38 -7 -72 -11 -75 -9 -3 2 -3 26 -2 54
3 43 7 52 25 55 199 40 220 42 214 19z m-537 -8 c11 -13 -7 -15 -148 -15 -139
0 -161 2 -156 15 5 12 31 15 149 15 114 0 145 -3 155 -15z m-2780 -52 c29 -55
70 -86 146 -110 l54 -17 0 -65 c1 -100 15 -149 60 -198 49 -52 53 -88 13 -104
-45 -17 -222 -6 -269 17 -50 24 -74 71 -74 144 -1 30 -7 91 -15 135 -18 97
-19 149 -4 178 13 25 50 67 58 67 3 0 17 -21 31 -47z m2305 32 c152 -11 145
-8 145 -70 0 -64 13 -60 -150 -42 l-105 12 -7 40 c-12 70 -11 78 15 71 12 -3
58 -8 102 -11z m-315 -80 c177 -47 385 -68 675 -68 210 1 288 5 404 22 212 31
362 74 415 120 18 15 19 15 12 -14 -17 -72 -66 -101 -241 -146 -278 -70 -751
-80 -1094 -23 -156 26 -331 83 -360 118 -6 7 -14 27 -17 44 l-6 32 58 -30 c33
-16 102 -41 154 -55z m1073 33 c-3 -29 -6 -54 -7 -55 -3 -5 -165 -23 -208 -23
l-51 0 7 52 c4 29 9 54 11 56 2 3 130 14 232 21 21 1 22 -2 16 -51z m-273 -23
l0 -55 -159 0 -158 0 -7 38 c-12 78 -25 72 159 72 l165 0 0 -55z m-994 -72 c8
-44 3 -48 -29 -22 -30 23 -31 27 -16 66 10 27 11 27 25 9 7 -11 17 -35 20 -53z
m165 -35 c8 -12 42 -238 36 -244 -3 -3 -32 8 -65 25 l-60 30 -16 89 c-9 48
-20 102 -25 119 -5 17 -7 34 -4 36 5 6 125 -44 134 -55z m1469 -65 c-13 -59
-30 -116 -39 -127 -18 -21 -62 -45 -103 -57 -34 -9 -34 -5 -14 107 8 44 16 92
18 108 3 26 10 31 71 52 38 12 71 25 75 28 14 15 12 -11 -8 -111z m-1332 41
l89 -17 15 -126 c8 -69 14 -128 12 -129 -5 -6 -194 39 -194 46 0 10 -29 193
-36 226 -5 24 -3 28 10 23 9 -4 56 -14 104 -23z m1178 -11 c-6 -31 -36 -215
-36 -224 0 -5 -95 -28 -183 -44 -20 -4 -20 1 -1 195 l5 55 102 21 c56 12 106
22 110 22 5 1 6 -10 3 -25z m-1480 -1 c24 -15 49 -180 30 -199 -2 -2 -23 1
-45 7 -59 16 -68 40 -46 129 17 71 30 84 61 63z m595 -29 l66 -6 7 -124 c4
-69 5 -127 2 -130 -4 -5 -174 14 -212 23 -19 5 -23 17 -34 117 -7 61 -15 118
-18 126 -4 12 5 13 59 7 35 -4 94 -10 130 -13z m640 -136 c-6 -55 -13 -102
-15 -104 -5 -5 -148 -22 -188 -23 l-38 0 0 53 c0 30 3 88 6 130 l7 77 66 1
c36 0 89 4 116 7 47 7 50 6 53 -17 2 -13 -1 -69 -7 -124z m-250 13 c-1 -61 -5
-118 -8 -126 -4 -11 -33 -14 -149 -14 l-144 0 0 63 c0 34 -3 92 -6 129 l-7 67
158 -4 157 -3 -1 -112z m-879 -40 c113 -66 471 -129 740 -130 123 0 328 17
438 36 115 20 271 69 303 95 l27 20 0 -26 c0 -108 -341 -195 -765 -195 -293 0
-566 45 -706 115 -52 27 -64 39 -73 78 -8 32 -7 33 36 7z m66 -122 c37 -16 54
-29 59 -45 3 -13 3 -26 1 -28 -10 -11 -106 47 -116 70 -14 30 -11 31 56 3z
m1388 -13 c-16 -24 -113 -81 -122 -72 -3 3 -2 16 1 29 5 19 21 31 68 50 34 13
64 23 66 21 2 -1 -4 -14 -13 -28z m-1204 -41 c68 -15 77 -20 81 -43 3 -14 3
-28 1 -31 -9 -8 -178 40 -186 53 -15 23 -9 49 10 43 9 -2 51 -12 94 -22z
m1068 -9 c0 -17 -8 -29 -22 -35 -23 -10 -151 -40 -169 -40 -16 0 -6 52 11 60
12 6 130 33 173 39 4 1 7 -10 7 -24z m-818 -30 c56 -5 67 -10 72 -28 9 -37 -7
-41 -118 -27 -103 13 -104 13 -108 41 -3 16 -3 31 -1 33 2 2 23 0 46 -4 23 -4
72 -11 109 -15z m608 -10 c0 -35 -26 -45 -137 -52 -89 -6 -96 -5 -90 11 4 10
7 23 7 30 0 9 31 16 103 23 56 5 105 11 110 11 4 1 7 -9 7 -23z m-240 -24 c0
-17 -6 -31 -16 -35 -20 -8 -178 -8 -226 0 -34 6 -38 10 -38 35 l0 29 140 0
140 0 0 -29z"/>
<path d="M6372 4688 c7 -15 15 -23 17 -17 2 6 -4 18 -13 27 -15 15 -15 15 -4
-10z"/>
<path d="M5747 4629 c-9 -6 -17 -15 -17 -21 0 -7 5 -6 15 2 8 6 19 9 25 5 15
-9 12 -55 -4 -55 -7 0 -19 -7 -26 -15 -13 -16 -5 -55 12 -55 6 0 5 7 -3 16
-11 14 -10 18 6 30 10 8 22 14 27 14 13 0 9 67 -5 78 -8 7 -18 7 -30 1z"/>
<path d="M5985 4510 c-4 -6 5 -10 20 -10 19 0 41 -15 76 -51 29 -30 56 -49 66
-47 9 2 17 5 17 8 1 3 -25 29 -57 58 -41 38 -65 52 -87 52 -16 0 -32 -4 -35
-10z"/>
<path d="M5990 4441 c0 -5 13 -11 30 -14 20 -5 28 -11 24 -21 -7 -18 14 -32
28 -18 6 6 17 8 26 5 37 -15 -2 18 -45 37 -50 22 -63 24 -63 11z"/>
<path d="M6187 4421 c-4 -17 -3 -21 5 -13 5 5 8 16 6 23 -3 8 -7 3 -11 -10z"/>
<path d="M5838 4403 c5 -21 7 -23 10 -9 2 10 0 22 -6 28 -6 6 -7 0 -4 -19z"/>
<path d="M5904 4238 c-19 -23 -19 -23 1 -6 11 9 31 18 45 21 l25 4 -26 2 c-16
0 -33 -8 -45 -21z"/>
<path d="M5651 4214 c0 -11 3 -14 6 -6 3 7 2 16 -1 19 -3 4 -6 -2 -5 -13z"/>
<path d="M5930 4201 c0 -3 14 -23 30 -43 37 -45 85 -63 126 -47 l29 11 -35 12
c-20 7 -61 26 -93 43 -31 17 -57 28 -57 24z m130 -74 c9 -3 4 -6 -12 -6 -16
-1 -39 10 -55 24 l-28 26 40 -19 c22 -11 47 -22 55 -25z"/>
<path d="M5616 4104 c-10 -31 -16 -58 -14 -60 3 -2 12 21 22 52 10 31 16 58
14 60 -3 2 -12 -21 -22 -52z"/>
<path d="M5960 4086 c8 -8 31 -18 50 -21 29 -4 31 -4 9 4 -14 4 -36 14 -50 21
-22 11 -23 11 -9 -4z"/>
<path d="M5422 4145 c0 -16 2 -22 5 -12 2 9 2 23 0 30 -3 6 -5 -1 -5 -18z"/>
<path d="M5432 4090 c0 -14 3 -34 8 -45 l9 -20 -1 20 c0 11 -4 31 -8 45 l-8
25 0 -25z"/>
<path d="M5451 4015 c1 -19 18 -51 18 -35 0 8 -4 22 -9 30 -5 8 -9 11 -9 5z"/>
<path d="M5291 3964 c0 -11 3 -14 6 -6 3 7 2 16 -1 19 -3 4 -6 -2 -5 -13z"/>
<path d="M5018 3893 c22 -27 50 -57 63 -68 13 -11 -3 10 -35 48 -32 37 -61 67
-63 67 -3 0 13 -21 35 -47z"/>
<path d="M5780 3885 c-23 -27 -71 -58 -104 -65 -25 -7 -27 -8 -7 -9 30 -1 97
36 116 66 17 26 14 31 -5 8z"/>
<path d="M5608 3813 c6 -2 18 -2 25 0 6 3 1 5 -13 5 -14 0 -19 -2 -12 -5z"/>
<path d="M5252 3421 c-12 -7 180 -4 203 4 6 2 -35 4 -90 4 -55 0 -106 -3 -113
-8z"/>
<path d="M4871 3228 c-1 -15 9 -37 22 -50 12 -13 16 -16 8 -6 -7 9 -17 32 -21
50 -7 31 -8 31 -9 6z"/>
<path d="M4980 3144 c0 -7 52 -25 57 -20 2 2 -10 8 -26 14 -17 6 -31 9 -31 6z"/>
<path d="M5943 2863 c9 -2 23 -2 30 0 6 3 -1 5 -18 5 -16 0 -22 -2 -12 -5z"/>
<path d="M5928 2803 c7 -3 16 -2 19 1 4 3 -2 6 -13 5 -11 0 -14 -3 -6 -6z"/>
<path d="M4436 3321 c22 -38 116 -127 166 -155 40 -23 32 -15 -54 54 -38 29
-68 56 -68 59 -1 3 -15 22 -32 41 l-31 35 19 -34z"/>
<path d="M5870 3101 c19 -17 39 -31 44 -31 5 0 7 1 5 3 -2 2 -22 15 -44 31
l-40 27 35 -30z"/>
<path d="M5972 3085 c-17 -37 -14 -45 4 -12 9 16 14 31 11 33 -2 2 -9 -7 -15
-21z"/>
<path d="M4623 2968 c87 -75 212 -128 297 -126 l55 1 -66 7 c-70 7 -176 51
-266 110 -31 20 -38 23 -20 8z"/>
<path d="M4381 2894 c0 -11 3 -14 6 -6 3 7 2 16 -1 19 -3 4 -6 -2 -5 -13z"/>
<path d="M5120 2811 c-41 -30 -165 -90 -222 -108 -29 -9 -93 -19 -143 -23
l-90 -7 77 -1 c42 -1 101 3 130 9 61 13 218 87 263 124 35 28 22 33 -15 6z"/>
<path d="M5120 2657 c-99 -97 -183 -158 -301 -221 -100 -54 -98 -61 3 -11 104
52 193 114 286 200 68 64 114 116 100 115 -2 0 -41 -38 -88 -83z"/>
<path d="M6150 2380 c0 -8 5 -22 10 -30 9 -13 10 -13 10 0 0 8 -5 22 -10 30
-9 13 -10 13 -10 0z"/>
<path d="M6121 2365 c1 -19 18 -51 18 -35 0 8 -4 22 -9 30 -5 8 -9 11 -9 5z"/>
<path d="M6180 2237 c0 -44 76 -107 126 -106 25 0 21 3 -24 20 -37 15 -60 31
-77 57 -14 20 -25 33 -25 29z"/>
<path d="M6235 2090 l-60 -7 55 -1 c30 0 64 3 75 8 22 10 17 10 -70 0z"/>
<path d="M5310 2261 c45 -26 181 -83 186 -79 3 3 -184 89 -210 96 -6 2 5 -6
24 -17z"/>
<path d="M5576 2023 c-4 -5 -38 -11 -74 -14 l-67 -6 71 -1 c48 -2 76 3 90 13
15 12 16 14 3 15 -9 0 -19 -3 -23 -7z"/>
<path d="M5450 1954 c0 -7 52 -25 57 -20 2 2 -10 8 -26 14 -17 6 -31 9 -31 6z"/>
<path d="M5528 1923 c7 -3 16 -2 19 1 4 3 -2 6 -13 5 -11 0 -14 -3 -6 -6z"/>
<path d="M4131 2030 c5 -23 17 -54 25 -69 8 -14 13 -19 10 -10 -2 10 -10 37
-17 60 -17 59 -30 72 -18 19z"/>
<path d="M3940 1553 c-41 -20 -111 -48 -155 -64 -44 -16 -73 -29 -64 -29 28 0
153 46 234 88 98 50 88 54 -15 5z"/>
<path d="M3621 1365 c-2 -37 55 -104 89 -105 8 0 2 8 -15 18 -38 24 -54 43
-65 79 -6 20 -8 23 -9 8z"/>
<path d="M3541 1284 c0 -11 3 -14 6 -6 3 7 2 16 -1 19 -3 4 -6 -2 -5 -13z"/>
<path d="M3600 1265 c0 -12 86 -45 115 -44 25 1 23 2 -12 9 -23 5 -55 16 -72
25 -17 8 -31 13 -31 10z"/>
<path d="M3550 1254 c0 -34 93 -105 137 -104 10 1 2 7 -18 14 -47 17 -78 39
-100 73 -11 15 -19 23 -19 17z"/>
<path d="M6786 1721 c-12 -13 -16 -31 -14 -58 3 -33 7 -38 29 -41 22 -3 29 2
38 29 8 24 8 38 -2 57 -16 33 -30 37 -51 13z m16 -46 c-4 -48 -22 -53 -22 -6
0 20 15 51 25 51 0 0 -1 -20 -3 -45z"/>
<path d="M5265 1540 c-8 -26 11 -87 30 -94 20 -7 34 23 28 59 -10 54 -45 75
-58 35z m37 -35 c4 -39 -6 -48 -16 -12 -8 31 -7 47 3 47 5 0 11 -16 13 -35z"/>
<path d="M5945 1394 c-96 -8 -242 -27 -260 -36 -17 -7 -16 -8 5 -4 23 5 114
14 365 35 l100 8 -85 0 c-47 0 -103 -2 -125 -3z"/>
<path d="M6381 1376 c2 -2 42 -6 89 -9 59 -3 73 -3 45 3 -40 9 -142 13 -134 6z"/>
<path d="M5915 1340 c-22 -4 21 -5 95 -2 74 3 137 6 139 8 8 7 -193 1 -234 -6z"/>
<path d="M6158 1303 c34 -2 88 -2 120 0 31 2 3 3 -63 3 -66 0 -92 -1 -57 -3z"/>
<path d="M3543 830 c-36 -15 -27 -19 20 -8 23 5 62 7 87 3 32 -4 41 -3 30 4
-18 13 -107 13 -137 1z"/>
<path d="M5952 2283 c-1 -51 2 -84 9 -89 19 -11 29 18 27 76 -1 53 -2 53 -5
10 -6 -80 -17 -77 -23 5 l-6 80 -2 -82z"/>
<path d="M4640 940 c55 -8 337 -13 329 -6 -2 2 -89 5 -194 8 -104 3 -165 2
-135 -2z"/>
<path d="M2930 875 c279 -23 335 -27 329 -21 -7 8 -359 36 -429 35 -30 -1 15
-7 100 -14z"/>
<path d="M4055 810 c211 -24 475 -40 620 -38 l160 1 -190 8 c-104 4 -237 12
-295 18 -58 5 -166 12 -240 15 -115 4 -123 3 -55 -4z"/>
<path d="M7030 781 c13 -7 149 -20 395 -36 44 -3 63 -2 50 4 -11 4 -96 14
-190 20 -93 6 -192 14 -220 16 -31 3 -44 2 -35 -4z"/>
</g>
</svg>
