<?xml version="1.0" standalone="no"?>
<!DOCTYPE svg PUBLIC "-//W3C//DTD SVG 20010904//EN"
 "http://www.w3.org/TR/2001/REC-SVG-20010904/DTD/svg10.dtd">
<svg version="1.0" xmlns="http://www.w3.org/2000/svg"
 width="1024.000000pt" height="559.000000pt" viewBox="0 0 1024.000000 559.000000"
 preserveAspectRatio="xMidYMid meet">
<metadata>
Created by potrace 1.16, written by Peter Selinger 2001-2019
</metadata>
<g transform="translate(0.000000,559.000000) scale(0.100000,-0.100000)"
fill="#000000" stroke="none">
<path d="M4140 4657 c-100 -29 -170 -80 -206 -150 -9 -17 -34 -51 -54 -74 -65
-74 -85 -191 -55 -308 16 -61 128 -283 172 -343 l24 -33 -21 -63 c-20 -62 -55
-107 -95 -123 -11 -4 -73 -37 -138 -73 -199 -108 -233 -157 -327 -477 -22 -76
-49 -163 -60 -193 -30 -83 -28 -97 26 -123 l46 -22 -7 -43 c-14 -93 -21 -290
-14 -382 8 -108 42 -254 101 -438 l40 -125 -16 -86 c-28 -155 -62 -424 -72
-563 -6 -85 -5 -98 9 -98 17 0 22 26 32 155 9 115 38 344 62 485 10 64 22 3
22 -125 1 -124 18 -231 45 -283 18 -34 92 -90 158 -120 44 -19 45 -19 87 0 23
10 45 26 48 34 3 9 -6 55 -21 102 -33 110 -33 122 1 88 31 -32 85 -33 91 -3 2
9 -13 61 -34 115 -30 77 -49 108 -90 152 -28 30 -56 71 -62 90 -12 37 -42 262
-42 310 l0 28 47 -14 c25 -8 48 -16 51 -19 3 -2 -3 -33 -12 -69 -17 -71 -21
-126 -8 -126 5 0 18 39 30 87 12 48 25 90 30 95 8 8 159 -6 169 -16 3 -3 1
-45 -6 -93 -7 -48 -15 -135 -17 -193 -5 -92 -4 -103 9 -88 8 10 17 53 21 100
3 46 11 127 18 180 l11 98 79 2 c168 4 152 8 160 -37 16 -87 29 -239 37 -433
5 -112 12 -206 16 -210 3 -4 10 0 15 8 17 26 -8 461 -34 610 -8 41 -13 76 -12
77 1 1 14 3 30 5 28 3 31 0 48 -55 10 -32 26 -104 35 -159 12 -65 23 -103 32
-106 19 -6 8 88 -25 226 -14 57 -24 105 -22 107 10 8 70 36 73 33 2 -2 13 -27
24 -55 43 -110 83 -367 117 -758 9 -110 21 -206 27 -212 19 -25 28 0 23 61 -4
33 -13 138 -22 231 -31 347 -61 534 -106 674 -37 114 -37 156 3 219 17 27 34
74 40 110 l11 63 27 -24 c62 -58 137 -65 206 -17 77 53 125 126 328 501 23 42
31 48 104 74 157 55 186 77 263 198 41 65 67 149 54 180 -5 14 -73 47 -95 47
-8 0 -49 -24 -92 -54 -78 -54 -133 -83 -143 -74 -3 3 5 25 17 48 28 53 18 93
-23 98 -21 3 -32 -5 -57 -42 -18 -25 -53 -70 -80 -100 -26 -31 -53 -74 -60
-98 -8 -24 -18 -58 -23 -77 -10 -34 -138 -199 -201 -260 l-35 -33 -15 48 c-13
47 -13 50 10 75 12 14 23 33 23 42 0 26 -168 437 -203 496 -40 66 -138 149
-228 192 -59 28 -68 36 -63 54 12 37 23 44 57 34 76 -22 151 5 163 58 3 15 12
44 19 64 16 42 12 50 -35 75 l-35 19 40 3 c49 4 65 17 65 51 0 21 7 31 32 42
55 25 56 38 10 136 -38 80 -41 95 -40 163 0 50 5 81 15 92 8 9 17 34 20 55 11
85 -40 174 -126 217 -112 57 -347 90 -441 63z m292 -51 c146 -35 214 -83 239
-169 9 -32 3 -87 -9 -87 -4 0 -16 26 -28 57 -11 31 -25 58 -31 60 -6 2 -20
-16 -32 -41 -12 -24 -33 -52 -46 -60 l-25 -16 7 45 c5 37 3 45 -10 45 -9 0
-24 -15 -33 -32 -19 -38 -51 -76 -77 -90 -16 -8 -18 -6 -11 26 5 29 3 36 -10
36 -8 0 -22 -12 -30 -27 -8 -16 -28 -45 -45 -67 -28 -35 -31 -46 -31 -107 0
-38 -2 -69 -5 -69 -3 0 -18 14 -33 30 -41 45 -82 49 -123 12 -30 -27 -33 -35
-33 -83 0 -38 7 -66 23 -95 20 -36 21 -45 11 -80 -6 -23 -25 -50 -45 -67 l-33
-27 -72 135 c-90 171 -100 201 -100 294 0 86 27 157 75 201 15 14 32 39 39 55
24 55 97 112 176 136 53 16 194 9 292 -15z m188 -253 c8 -21 15 -80 17 -131 3
-83 7 -101 38 -162 19 -38 35 -74 35 -79 0 -5 -16 -15 -35 -21 -35 -12 -39
-18 -35 -54 2 -25 -17 -36 -65 -36 -48 0 -70 -12 -62 -34 5 -14 55 -50 80 -59
15 -5 -16 -108 -37 -119 -44 -23 -189 17 -268 74 -9 7 -20 9 -25 5 -13 -14 12
-41 65 -70 l51 -28 -25 -72 c-24 -71 -28 -125 -9 -119 6 2 15 20 20 40 9 30
12 33 18 19 4 -10 7 -38 7 -63 0 -62 -27 -78 -121 -72 -56 4 -87 14 -152 46
-46 22 -104 57 -131 78 l-49 37 31 26 c37 30 69 100 78 165 5 33 16 55 40 80
18 18 38 51 44 72 11 36 14 39 48 39 26 0 37 4 37 15 0 9 -7 14 -17 12 -65
-11 -124 116 -82 176 23 33 58 28 90 -13 27 -35 65 -47 80 -24 3 6 7 44 8 84
2 76 16 109 45 102 19 -4 82 25 100 47 12 15 15 15 26 -1 11 -15 16 -14 58 11
26 14 51 35 57 46 15 29 24 25 40 -17z m-705 -843 c12 -19 111 -88 171 -118
92 -46 168 -65 237 -59 l59 5 -7 -36 c-25 -146 -118 -381 -217 -552 -106 -182
-252 -351 -346 -399 -57 -29 -65 -27 -59 12 39 223 37 217 66 217 53 0 52 -2
81 220 24 185 24 190 6 190 -17 0 -21 -17 -41 -174 -8 -66 -18 -137 -22 -159
l-6 -39 -61 6 c-131 15 -360 90 -373 122 -3 7 11 62 30 121 19 59 52 162 72
228 67 218 104 266 286 367 112 62 115 63 124 48z m533 -9 c8 -5 15 -40 19
-97 7 -114 -15 -268 -63 -437 -20 -70 -34 -130 -30 -134 12 -12 34 32 59 117
43 148 60 257 61 392 1 71 4 128 7 128 20 0 31 -42 41 -157 22 -256 -31 -591
-136 -866 -24 -62 -25 -68 -9 -65 12 2 28 31 50 89 94 253 143 566 128 822 -5
75 -4 117 3 117 5 0 29 -25 52 -55 29 -38 68 -117 127 -262 47 -115 88 -220
90 -234 4 -21 -4 -32 -49 -66 -69 -52 -101 -73 -110 -73 -5 0 -8 26 -8 58 0
149 -13 302 -26 302 -10 0 -14 -86 -16 -432 -3 -474 -2 -461 -65 -519 -28 -27
-94 -52 -168 -65 l-40 -7 46 49 c25 27 57 69 72 94 29 50 87 216 87 250 0 45
-24 11 -50 -71 -38 -120 -82 -201 -144 -263 -72 -72 -121 -83 -282 -67 -60 6
-116 11 -122 11 -21 0 -13 15 17 33 47 28 138 115 187 179 64 83 154 238 154
265 0 33 -14 28 -33 -11 -80 -168 -259 -377 -364 -425 -50 -23 -55 -23 -105
-10 l-53 14 -16 88 -16 88 66 30 c84 38 229 183 320 319 83 125 180 326 230
475 43 130 74 308 64 368 -6 37 0 44 25 28z m853 -330 c-38 -59 -34 -85 13
-75 52 11 128 49 186 93 30 22 59 41 65 41 14 -1 -83 -86 -122 -107 -31 -17
-45 -43 -23 -43 23 0 88 41 137 84 50 45 73 56 73 36 0 -5 -6 -10 -13 -10 -7
0 -31 -18 -52 -41 -22 -23 -64 -54 -92 -71 -74 -42 -67 -62 12 -33 12 4 3 -8
-20 -29 -22 -19 -36 -38 -33 -42 16 -15 60 9 86 46 28 40 42 50 42 28 -1 -26
-57 -94 -96 -115 -22 -13 -78 -36 -125 -52 -53 -19 -91 -39 -103 -55 -10 -13
-48 -80 -84 -148 -213 -403 -321 -487 -440 -339 -27 33 -29 45 -36 147 -4 60
-4 128 0 150 5 35 12 42 72 77 36 20 66 36 66 35 1 -2 9 -25 18 -53 16 -47 16
-50 -1 -70 -21 -23 -51 -79 -51 -95 0 -22 27 -9 44 23 11 17 53 70 95 116 93
102 202 238 217 271 6 14 17 48 23 75 7 28 25 66 42 85 16 19 51 63 77 98 38
51 48 59 50 42 2 -12 -10 -43 -27 -69z m319 -33 c0 -7 -7 -22 -15 -32 -12 -15
-18 -17 -27 -8 -9 9 -7 16 7 32 21 23 35 26 35 8z m-1988 -522 c136 -36 128
-20 98 -176 -24 -124 -24 -158 -6 -265 8 -44 19 -134 26 -200 14 -155 37 -321
50 -365 5 -19 33 -57 61 -86 39 -40 59 -72 88 -145 21 -52 37 -95 35 -97 -9
-12 -44 24 -64 67 -58 125 -79 0 -28 -167 11 -35 18 -71 16 -80 -6 -28 -46 43
-70 126 -13 43 -26 72 -35 72 -7 0 -13 -8 -13 -17 0 -15 30 -107 64 -198 5
-12 -4 -7 -24 15 -19 22 -39 63 -53 109 -23 76 -47 105 -47 57 0 -14 11 -56
25 -93 13 -37 23 -69 21 -70 -8 -8 -41 56 -60 116 -12 36 -26 64 -31 61 -10
-5 -10 -12 -1 -65 5 -30 4 -29 -11 5 -12 25 -19 82 -24 200 -7 172 -9 183 -77
385 -86 253 -118 437 -108 620 11 203 16 237 35 229 9 -4 69 -21 133 -38z
m912 -603 c-25 -18 -104 -41 -189 -55 -105 -16 -380 -4 -478 21 -95 25 -97 26
-97 57 0 27 7 28 65 14 213 -53 486 -51 665 3 43 12 45 12 48 -7 2 -11 -4 -26
-14 -33z"/>
<path d="M4492 4225 c-31 -14 -51 -40 -39 -52 4 -3 21 1 39 10 18 8 50 19 71
22 21 4 36 12 34 19 -5 17 -68 18 -105 1z"/>
<path d="M4537 4143 c-4 -3 -7 -17 -7 -30 0 -16 6 -23 20 -23 16 0 20 7 20 30
0 28 -17 40 -33 23z"/>
<path d="M4072 2390 c-69 -76 -164 -149 -236 -181 -47 -20 -60 -39 -28 -39 61
0 239 128 307 219 58 81 29 81 -43 1z"/>
<path d="M5233 2980 c-18 -11 -33 -24 -33 -28 0 -19 15 -21 39 -5 14 9 53 19
86 22 77 8 78 25 0 29 -46 2 -68 -2 -92 -18z"/>
<path d="M6010 4426 c-25 -7 -67 -25 -95 -39 -27 -15 -58 -27 -67 -27 -22 0
-85 -55 -104 -91 -18 -36 -18 -116 1 -149 9 -15 14 -54 15 -101 0 -71 -3 -81
-34 -128 -51 -75 -52 -86 -16 -112 20 -15 30 -31 30 -49 0 -33 17 -50 50 -51
25 0 25 -1 3 -11 -32 -16 -34 -29 -10 -99 28 -81 47 -92 143 -84 l71 6 11 -39
c7 -22 12 -53 12 -69 0 -25 -6 -33 -41 -48 -100 -46 -176 -123 -199 -204 -6
-20 -22 -90 -35 -157 -13 -66 -33 -144 -44 -173 -28 -70 -27 -135 6 -222 25
-69 26 -75 16 -163 -6 -50 -25 -147 -41 -216 -17 -69 -38 -179 -47 -245 -31
-216 -52 -318 -90 -425 -38 -103 -38 -106 -26 -174 14 -85 33 -125 80 -173
l36 -38 -7 -90 c-7 -92 -4 -125 13 -125 14 0 15 7 34 250 27 366 78 683 137
843 24 66 32 72 72 57 21 -8 26 -15 21 -28 -38 -89 -92 -550 -67 -566 15 -9
19 14 32 159 21 233 58 423 81 416 8 -2 64 -6 126 -9 88 -3 113 -8 118 -20 3
-8 13 -78 21 -156 22 -196 24 -206 36 -206 14 0 3 204 -16 303 -9 50 -10 70
-2 72 10 2 132 20 191 27 11 2 19 -2 18 -7 -1 -6 -18 -107 -37 -226 -46 -275
-54 -301 -114 -369 -58 -65 -62 -73 -100 -177 -21 -56 -27 -85 -20 -96 11 -20
39 -22 56 -5 17 17 16 -2 -4 -73 -19 -69 -16 -82 27 -103 37 -18 65 -21 74 -6
3 5 13 10 22 10 25 0 123 71 138 100 26 51 37 108 44 240 8 131 10 139 61 268
29 73 55 131 57 128 23 -22 69 -360 98 -716 8 -94 13 -110 31 -110 12 0 14 11
10 58 -3 31 -11 114 -16 185 l-11 127 30 26 c16 14 40 41 51 60 20 31 21 43
15 124 l-7 90 32 27 c32 26 32 29 27 87 -3 34 -13 106 -22 161 -21 136 -52
382 -60 483 -6 71 -5 86 10 102 16 18 15 29 -20 212 -44 233 -82 401 -101 447
-11 27 -12 37 -2 49 8 9 13 44 13 86 0 67 -3 76 -44 144 -43 71 -44 74 -36
130 18 127 13 170 -32 260 l-42 83 1 112 c1 129 -14 191 -69 275 -57 86 -133
138 -246 168 -63 17 -186 17 -247 0z m280 -49 c110 -40 166 -93 217 -202 24
-54 28 -74 31 -195 4 -133 5 -136 42 -210 50 -98 54 -123 34 -200 -21 -82 -15
-112 35 -190 36 -55 41 -70 41 -122 0 -32 -3 -58 -7 -58 -5 1 -17 15 -28 33
-26 40 -104 94 -158 107 -170 42 -217 96 -217 251 0 37 -5 80 -11 96 -8 22 -7
30 7 40 35 26 54 67 54 120 0 44 -4 55 -26 72 -33 26 -68 27 -103 1 -26 -18
-30 -18 -50 -3 -13 8 -31 35 -41 58 -10 24 -35 55 -57 71 -81 61 -142 131
-156 180 -8 26 -18 49 -23 51 -10 3 -58 -60 -85 -111 l-17 -30 -7 32 c-3 18
-1 47 5 66 12 36 71 96 94 96 8 0 42 13 77 30 114 53 236 59 349 17z m-405
-207 c19 -42 89 -113 141 -145 20 -11 40 -37 54 -66 34 -77 98 -113 130 -74
16 19 64 19 80 0 34 -41 -27 -145 -85 -145 -32 0 -32 -18 -1 -30 31 -12 39
-37 41 -135 1 -94 26 -156 80 -204 l34 -30 -36 -22 c-20 -13 -59 -43 -86 -67
-59 -52 -83 -62 -153 -64 -68 -2 -88 13 -79 61 9 48 16 57 27 37 5 -9 13 -14
19 -11 14 9 10 135 -6 180 -20 55 -20 58 20 79 19 11 35 25 35 33 0 17 -3 17
-58 -11 -26 -13 -74 -29 -106 -35 -77 -14 -108 -1 -116 49 -4 20 -9 41 -13 47
-5 8 7 20 33 33 59 30 55 42 -22 55 -33 5 -38 9 -38 33 0 18 -10 35 -32 53
l-31 26 25 34 c44 59 52 82 58 174 6 88 37 185 58 185 5 0 17 -18 27 -40z
m647 -882 c26 -11 54 -28 64 -39 16 -18 16 -19 -15 -19 -91 0 -177 -109 -224
-285 -17 -63 -55 -299 -82 -500 -18 -142 -33 -210 -52 -247 -13 -26 -18 -28
-76 -28 -34 0 -79 3 -100 7 l-38 6 34 36 c43 46 58 71 90 153 29 72 32 88 17
88 -5 0 -30 -43 -55 -97 -30 -63 -59 -109 -86 -135 -37 -35 -44 -38 -77 -32
-49 9 -109 40 -121 62 -5 9 -11 60 -13 112 -4 80 -9 106 -38 170 -24 55 -34
94 -38 146 l-4 71 118 95 c66 52 187 157 269 233 246 225 265 238 335 229 25
-3 66 -15 92 -26z m-560 -46 c-6 -62 18 -85 95 -92 l55 -5 -143 -126 c-143
-124 -219 -186 -219 -177 0 3 18 44 40 91 22 47 43 99 46 116 10 47 -14 38
-36 -14 -11 -25 -21 -45 -24 -45 -7 0 22 116 39 157 9 21 26 49 38 62 25 27
96 81 107 81 4 0 5 -21 2 -48z m642 -54 c62 -28 87 -106 170 -548 14 -74 26
-140 26 -147 0 -24 -193 -73 -290 -73 -90 0 -90 0 -90 94 -1 44 -5 128 -10
185 -9 100 -20 135 -34 112 -10 -16 14 -394 26 -408 6 -7 19 -13 29 -13 21 0
26 -13 34 -107 l7 -72 -39 -10 c-43 -12 -176 -32 -180 -27 -2 1 5 38 16 82 10
43 26 138 36 209 63 492 111 650 219 716 36 22 46 23 80 7z m176 -823 c0 -62
38 -363 66 -534 l26 -154 -38 -33 c-22 -18 -40 -31 -42 -29 -2 1 -9 84 -16
184 -8 100 -17 185 -20 189 -20 20 -22 -36 -7 -240 15 -209 18 -228 39 -250
30 -33 29 -79 -4 -117 -32 -38 -44 -39 -44 -3 0 51 -30 235 -52 317 -29 109
-28 140 16 290 33 116 38 146 42 275 3 80 8 152 10 160 9 25 24 -10 24 -55z
m-1024 -17 c-6 -65 -4 -77 15 -108 31 -49 32 -111 2 -188 -43 -112 -88 -334
-126 -621 -6 -51 -16 -94 -22 -95 -5 0 -14 31 -18 69 -12 93 -15 104 -28 85
-16 -25 1 -160 27 -212 13 -26 24 -58 24 -70 -1 -21 -3 -20 -30 12 -35 41 -60
116 -60 179 0 28 16 90 39 157 25 70 46 153 56 225 33 232 46 307 75 434 16
72 32 147 35 168 10 65 18 40 11 -35z m961 -65 c-10 -185 -40 -300 -162 -623
-62 -163 -63 -167 -68 -290 -6 -121 -26 -222 -48 -236 -8 -4 -8 0 0 14 14 25
15 82 1 82 -5 0 -14 -19 -21 -42 -13 -49 -44 -114 -58 -123 -6 -3 -2 14 9 37
22 50 40 125 32 132 -8 8 -32 -14 -32 -30 0 -24 -40 -122 -62 -149 -26 -34
-34 -26 -14 17 27 58 46 119 46 150 0 44 -22 30 -35 -23 -15 -57 -54 -144 -61
-136 -3 3 1 34 10 69 22 90 39 198 33 205 -12 12 -37 -7 -37 -28 0 -24 -37
-89 -50 -89 -4 0 4 34 18 76 20 57 40 91 81 137 77 87 87 116 131 397 12 74
31 180 43 235 15 68 22 134 22 207 l0 107 45 6 c25 3 68 9 95 14 97 16 89 28
82 -116z m-762 -130 c101 -21 321 -22 423 -1 65 14 72 13 72 -1 0 -28 -14 -37
-75 -50 -151 -30 -359 -24 -491 15 -47 13 -54 19 -54 41 0 21 3 24 23 19 12
-4 58 -14 102 -23z m852 -615 c-3 -7 -5 -2 -5 12 0 14 2 19 5 13 2 -7 2 -19 0
-25z"/>
<path d="M6010 4195 c0 -19 35 -67 75 -104 40 -37 119 -81 146 -81 25 0 2 22
-62 60 -45 27 -82 58 -102 86 -26 37 -57 58 -57 39z"/>
<path d="M6354 3643 c9 -66 54 -151 98 -186 58 -46 68 -23 14 32 -47 48 -86
128 -86 176 0 16 -6 25 -16 25 -14 0 -16 -8 -10 -47z"/>
<path d="M5835 4041 c-10 -18 4 -31 34 -31 15 0 36 -7 47 -15 24 -18 44 -19
44 -2 0 27 -111 70 -125 48z"/>
<path d="M5854 3946 c-9 -22 2 -46 21 -46 12 0 15 8 13 27 -3 30 -25 42 -34
19z"/>
<path d="M6384 3272 c-42 -31 -139 -132 -219 -227 -27 -33 -84 -98 -125 -145
-101 -114 -103 -117 -90 -125 13 -8 41 21 240 250 82 94 171 188 199 210 28
22 51 45 51 52 0 20 -13 16 -56 -15z"/>
<path d="M6375 3183 c-81 -102 -220 -402 -198 -424 7 -7 22 18 48 78 58 138
125 262 177 331 27 35 48 65 48 68 0 2 -7 4 -15 4 -8 0 -35 -26 -60 -57z"/>
<path d="M5979 2558 c-22 -46 -63 -116 -90 -157 -49 -72 -55 -89 -25 -78 31
12 176 262 176 304 0 33 -23 6 -61 -69z"/>
<path d="M5086 4201 c-3 -5 3 -19 13 -32 56 -72 91 -190 91 -305 0 -115 -26
-196 -100 -311 -8 -12 -11 -26 -7 -30 40 -39 147 208 147 338 0 104 -43 247
-96 316 -25 34 -38 40 -48 24z"/>
<path d="M4955 4081 c-2 -5 10 -37 28 -71 28 -56 32 -72 32 -145 0 -73 -4 -89
-33 -145 -35 -68 -33 -94 4 -59 69 65 85 250 31 361 -26 54 -50 77 -62 59z"/>
<path d="M4847 3974 c-3 -4 1 -21 10 -38 20 -39 20 -104 -2 -146 -18 -35 -15
-46 10 -36 22 8 45 67 45 113 0 58 -41 128 -63 107z"/>
<path d="M5390 3865 c0 -21 204 -113 214 -96 9 13 -13 27 -108 71 -96 44 -106
47 -106 25z"/>
<path d="M5408 3671 c-70 -6 -88 -15 -71 -32 7 -7 46 -7 129 1 123 12 134 15
134 31 0 10 -81 10 -192 0z"/>
<path d="M5545 3529 c-90 -64 -102 -76 -89 -89 7 -7 37 9 95 52 77 58 88 70
70 83 -3 2 -37 -18 -76 -46z"/>
</g>
</svg>
