<?xml version="1.0" standalone="no"?>
<!DOCTYPE svg PUBLIC "-//W3C//DTD SVG 20010904//EN"
 "http://www.w3.org/TR/2001/REC-SVG-20010904/DTD/svg10.dtd">
<svg version="1.0" xmlns="http://www.w3.org/2000/svg"
 width="1024.000000pt" height="559.000000pt" viewBox="0 0 1024.000000 559.000000"
 preserveAspectRatio="xMidYMid meet">
<metadata>
Created by potrace 1.16, written by Peter Selinger 2001-2019
</metadata>
<g transform="translate(0.000000,559.000000) scale(0.100000,-0.100000)"
fill="#000000" stroke="none">
<path d="M5281 5069 c-18 -11 -39 -18 -46 -16 -21 9 -74 -24 -87 -54 -7 -15
-23 -31 -35 -34 -25 -6 -83 -79 -83 -104 0 -9 -10 -35 -22 -58 -20 -37 -21
-46 -10 -76 9 -25 10 -42 2 -62 -11 -28 -6 -60 13 -84 6 -7 12 -29 13 -47 0
-19 8 -42 17 -52 10 -10 17 -30 17 -45 0 -16 10 -33 26 -46 24 -19 25 -21 10
-49 -18 -34 -18 -34 -271 -51 -82 -5 -166 -15 -185 -22 -53 -18 -138 -77 -171
-118 -16 -21 -76 -77 -134 -125 -106 -91 -115 -101 -115 -140 0 -13 -20 -41
-51 -71 -70 -69 -106 -123 -129 -197 -38 -121 -24 -153 87 -193 95 -35 207
-43 305 -22 37 8 69 12 72 10 6 -6 -17 -87 -43 -151 -26 -65 -26 -88 -2 -128
26 -43 18 -101 -25 -171 -40 -67 -89 -221 -105 -333 -6 -47 -29 -170 -50 -273
-46 -222 -47 -241 -16 -261 22 -15 22 -18 14 -118 -8 -88 -13 -107 -33 -129
-13 -14 -24 -37 -24 -51 0 -17 -22 -52 -66 -104 -78 -93 -125 -188 -160 -321
-38 -149 -54 -194 -88 -243 -24 -35 -31 -56 -32 -97 0 -28 -7 -62 -16 -75 -25
-38 -30 -66 -18 -100 10 -29 7 -48 -29 -156 -61 -184 -55 -225 42 -259 70 -24
208 -24 259 1 56 27 66 62 39 142 -13 36 -25 90 -28 119 -5 50 -4 57 19 75 17
13 28 34 32 62 5 30 16 50 37 68 25 21 32 36 40 94 10 77 28 111 133 252 36
49 95 146 131 215 36 70 82 148 104 174 28 34 55 91 101 213 l63 167 136 1
c107 0 155 5 224 23 l88 23 32 -29 c18 -15 82 -72 143 -125 109 -95 112 -99
112 -140 0 -24 1 -50 2 -58 1 -8 -9 -55 -24 -104 -30 -100 -32 -161 -14 -341
10 -108 10 -126 -6 -177 -12 -38 -16 -69 -12 -95 4 -21 6 -51 6 -68 -1 -16 -2
-50 -1 -75 0 -25 0 -61 -1 -80 -6 -160 -4 -172 24 -193 22 -16 50 -22 130 -28
76 -5 121 -14 173 -34 59 -23 90 -28 196 -32 104 -5 131 -3 157 11 34 18 42
49 22 87 -6 10 -61 43 -123 73 -135 66 -220 135 -211 171 3 13 1 40 -6 60 -10
31 -9 41 10 79 18 39 20 51 11 104 -8 51 -6 79 15 179 21 101 57 300 95 527 7
41 7 75 -1 110 -12 55 -83 195 -161 317 -27 42 -49 85 -49 96 0 25 -89 150
-206 293 -48 58 -92 119 -99 135 -7 17 -25 40 -39 52 -15 13 -26 33 -26 47 0
14 -11 38 -25 54 -14 17 -25 34 -25 38 0 4 15 23 32 41 l33 34 -3 98 c-2 91
-1 102 27 158 17 33 40 86 51 117 12 31 24 56 28 56 4 -1 19 -28 34 -60 22
-49 31 -60 50 -60 18 0 34 -15 65 -62 54 -82 141 -184 178 -209 38 -25 77 -20
195 26 102 39 134 58 290 172 81 59 142 95 205 120 133 53 168 78 219 158 45
68 46 72 46 152 0 58 -4 84 -13 90 -8 4 -21 30 -30 57 -23 69 -58 110 -119
140 -210 105 -432 -117 -327 -326 11 -24 34 -57 50 -73 l29 -31 -28 -32 c-44
-51 -148 -83 -375 -115 -21 -3 -67 99 -67 150 0 20 -20 70 -49 125 -27 51 -59
127 -71 168 -40 137 -67 175 -177 254 l-51 37 22 22 c13 13 31 48 41 78 10 30
31 83 48 119 21 46 32 91 38 155 13 135 20 168 37 188 8 9 16 33 16 52 1 18 5
37 9 41 12 12 8 54 -7 82 -8 15 -17 39 -21 55 -3 15 -14 35 -25 45 -11 9 -38
34 -60 55 -30 28 -47 37 -74 37 -24 0 -43 8 -60 25 -27 27 -83 34 -104 13 -9
-9 -18 -9 -37 0 -36 17 -55 15 -94 -9z m94 -21 c19 -9 28 -9 37 0 22 22 76 14
94 -13 14 -21 22 -25 46 -20 34 8 73 -14 83 -45 3 -11 15 -20 25 -20 22 0 50
-36 50 -65 0 -11 7 -29 15 -39 16 -21 20 -72 7 -80 -5 -3 -7 -18 -4 -34 2 -16
-1 -33 -7 -36 -15 -10 -24 37 -18 87 4 29 4 35 -3 21 -14 -34 -39 -38 -51 -7
l-10 26 -15 -21 c-19 -28 -60 -29 -75 -1 l-11 21 -19 -21 c-26 -27 -41 -26
-78 5 -26 22 -32 23 -37 10 -8 -21 -42 -20 -66 0 -19 18 -24 13 -30 -36 -2
-15 -12 -29 -26 -35 -19 -8 -22 -15 -17 -41 4 -23 0 -35 -14 -48 -15 -13 -18
-26 -14 -52 5 -27 2 -34 -11 -34 -9 0 -21 12 -27 27 -16 42 -39 63 -70 63 -63
0 -77 -111 -25 -190 26 -39 34 -70 18 -70 -16 0 -32 25 -32 50 0 15 -9 35 -21
46 -16 14 -20 27 -16 51 4 23 0 36 -14 49 -22 20 -24 42 -7 79 9 19 9 28 0 37
-20 20 -15 76 8 90 12 8 20 24 20 41 0 35 46 97 71 97 12 0 24 13 33 35 16 37
50 57 83 49 11 -3 26 3 37 15 21 24 53 27 91 9z m109 -288 c12 0 27 5 34 12 8
8 15 8 25 0 8 -7 37 -11 65 -10 29 1 56 -2 61 -7 4 -6 11 -33 15 -60 l6 -51
-44 -13 c-51 -15 -66 -40 -55 -91 7 -32 12 -105 10 -137 -1 -7 -12 -13 -26
-13 -36 0 -87 28 -79 43 5 9 4 9 -6 0 -19 -17 0 -36 51 -53 29 -10 46 -11 57
-3 21 12 27 69 14 129 -6 25 -6 47 -1 50 5 3 9 -2 9 -10 0 -21 27 -20 39 2 8
13 10 -1 11 -54 0 -60 -6 -86 -44 -182 -73 -181 -74 -182 -144 -182 -50 0
-109 31 -181 96 -62 57 -91 104 -91 153 -1 20 -3 22 -9 11 -5 -8 -6 -35 -1
-59 6 -34 20 -56 66 -103 33 -32 78 -72 102 -88 24 -15 38 -31 33 -35 -6 -3
-18 -23 -27 -43 -10 -20 -19 -40 -21 -44 -2 -5 0 -8 5 -8 5 0 15 11 22 25 19
35 31 31 18 -5 -13 -40 -53 -70 -92 -70 -48 0 -132 46 -171 94 -67 82 -111
216 -71 216 21 0 62 57 78 108 7 23 18 42 24 42 6 0 18 7 25 16 12 15 11 16
-9 10 -29 -10 -50 7 -73 59 -23 51 -24 97 -1 125 24 30 50 17 73 -36 14 -35
23 -44 43 -44 25 0 36 16 36 57 0 13 7 32 16 40 9 10 14 26 11 41 -4 19 2 31
19 45 13 10 24 25 24 33 0 9 11 14 34 14 19 0 38 5 41 10 4 6 16 3 32 -10 14
-11 35 -20 47 -20z m206 -154 c0 -24 -17 -36 -51 -36 -43 0 -52 16 -16 30 23
9 67 13 67 6z m-663 -367 c1 -22 15 -69 32 -104 59 -128 162 -202 265 -192 62
6 91 38 101 109 l7 48 41 0 c34 -1 56 -11 120 -56 90 -64 128 -117 153 -214 9
-36 40 -113 70 -172 30 -58 54 -109 54 -111 0 -2 -18 -7 -41 -10 -64 -8 -165
-76 -231 -155 l-27 -32 -25 56 c-14 31 -26 60 -26 64 0 15 49 118 59 125 14 8
57 84 66 115 3 14 -8 1 -25 -28 -17 -30 -33 -52 -35 -50 -2 1 3 28 11 58 8 30
14 73 13 95 -1 37 -2 35 -19 -30 -47 -179 -101 -296 -174 -374 -48 -51 -48
-53 -12 -26 l39 29 -8 -24 c-4 -14 -28 -65 -53 -115 -47 -94 -75 -165 -68
-172 2 -2 12 15 22 38 l19 42 6 -29 c16 -73 10 -105 -25 -139 -21 -19 -50 -35
-73 -39 -21 -4 -47 -9 -58 -11 -11 -3 3 6 30 19 66 32 48 32 -45 0 -106 -37
-217 -43 -291 -15 -53 20 -164 88 -220 135 -14 11 2 -5 35 -36 l60 -57 -65 20
c-35 11 -71 23 -79 25 -8 3 -28 23 -44 44 -16 22 -32 38 -34 35 -3 -2 1 -11 8
-20 24 -28 5 -24 -28 6 -41 38 -65 85 -59 113 3 11 16 51 30 88 l24 67 16 -67
c15 -62 16 -63 11 -17 -3 28 -8 71 -11 96 -7 55 -5 56 115 68 43 5 87 13 99
20 12 6 36 11 53 11 38 0 64 13 112 56 21 18 60 45 88 59 57 29 81 65 60 90
-17 21 -69 19 -105 -5 -41 -27 -55 -25 -55 9 0 20 8 34 25 45 29 19 31 33 8
58 -15 17 -15 18 11 18 37 0 66 17 66 39 0 10 7 24 15 31 23 19 15 54 -13 58
-13 2 -47 -8 -76 -22 -29 -14 -59 -26 -66 -26 -15 0 -107 -67 -164 -119 -21
-20 -47 -55 -57 -78 -18 -42 -20 -43 -64 -43 -25 0 -45 3 -45 7 0 12 93 103
105 103 15 0 88 51 81 57 -2 3 -15 -2 -28 -11 -33 -24 -41 -20 -21 12 17 26
-97 -68 -141 -117 -24 -26 -36 -27 -36 -2 0 27 -74 134 -114 164 -18 14 -54
36 -80 48 -25 13 -46 25 -45 28 0 4 35 35 77 70 46 40 73 57 69 45 -5 -13 -1
-11 11 6 40 59 139 152 186 175 44 22 73 26 215 35 90 5 166 12 169 15 16 15
28 0 29 -36z m1533 -289 c20 -1 16 -6 -25 -26 -27 -13 -69 -44 -93 -67 -46
-45 -102 -141 -103 -179 0 -13 -4 -32 -9 -43 -7 -18 -9 -18 -19 9 -54 136 14
272 154 307 17 4 39 6 50 3 11 -2 31 -4 45 -4z m64 -29 c3 -5 -7 -11 -22 -14
-40 -8 -113 -60 -152 -108 -43 -53 -79 -142 -80 -194 -1 -38 -1 -39 -16 -20
-19 24 -12 89 16 153 25 55 115 150 165 173 43 20 81 24 89 10z m-1604 -26 c0
-11 -10 -15 -37 -14 l-38 1 35 13 c19 7 36 14 38 14 1 1 2 -6 2 -14z m1664
-33 c13 -21 27 -52 31 -70 6 -28 4 -32 -14 -32 -11 0 -26 -10 -32 -22 -8 -14
-14 -18 -17 -10 -6 19 -40 14 -52 -7 -5 -11 -10 -46 -10 -78 0 -76 -15 -101
-24 -40 -9 59 -29 86 -53 71 -14 -9 -19 -26 -21 -84 l-3 -72 -31 6 c-18 3 -43
13 -56 22 -21 14 -24 22 -20 63 10 105 88 219 181 265 71 36 92 34 121 -12z
m-2349 2 c59 -40 94 -74 122 -122 20 -34 23 -45 13 -57 -17 -21 -35 -19 -105
10 -61 25 -132 31 -170 15 -15 -6 -6 -9 33 -9 35 -1 80 -12 130 -32 80 -32
192 -59 244 -59 25 0 29 -3 25 -20 -3 -11 -1 -20 3 -20 5 0 21 32 37 70 26 65
31 71 66 81 32 8 43 7 77 -12 37 -21 58 -58 26 -46 -42 16 -82 17 -101 3 -16
-13 -17 -15 -2 -10 19 7 24 -12 5 -19 -8 -4 -9 -6 -2 -6 6 -1 17 5 23 13 9 11
19 12 47 3 26 -8 40 -8 53 0 14 9 21 7 34 -8 21 -24 38 -24 70 2 32 24 82 31
82 10 0 -8 -22 -28 -49 -44 -27 -16 -68 -44 -90 -63 -50 -43 -96 -55 -331 -90
-60 -9 -132 -20 -160 -24 -94 -16 -179 -11 -254 13 -96 32 -116 52 -107 109
13 85 48 147 136 243 47 52 90 94 95 94 6 1 28 -11 50 -25z m650 -13 c19 -8
19 -8 0 -18 -46 -24 -153 -25 -139 -1 15 24 96 35 139 19z m-86 -72 c33 -14
41 -23 33 -31 -7 -7 -22 -8 -50 -1 -22 6 -64 8 -93 6 l-54 -5 34 26 c42 31 71
32 130 5z m-35 -49 c18 -7 26 -17 26 -34 l0 -24 -30 28 c-42 39 -41 47 4 30z
m1850 -12 c3 -13 6 -50 6 -84 0 -81 -53 -193 -92 -194 -4 0 -5 8 -2 18 5 14 4
14 -4 2 -6 -8 -9 -17 -7 -20 5 -8 -34 -27 -130 -65 -43 -17 -118 -63 -195
-119 -68 -50 -158 -108 -200 -129 -91 -46 -202 -81 -229 -72 -30 9 -132 123
-197 221 l-58 87 54 49 c49 43 161 108 188 108 10 0 56 -97 67 -141 5 -20 1
-31 -17 -45 -46 -37 -38 -42 19 -13 42 21 87 34 160 44 58 8 136 27 178 44 64
25 75 27 75 12 0 -10 8 -3 20 16 25 41 52 55 101 52 51 -4 59 8 59 93 0 37 4
69 9 73 14 8 31 -60 31 -122 0 -28 5 -55 10 -58 6 -3 10 3 10 15 0 11 10 34
22 50 17 24 22 43 21 95 -1 83 19 106 36 41 15 -60 14 -97 -4 -139 -23 -56
-17 -67 10 -17 19 35 24 61 25 117 0 73 6 103 20 103 4 0 10 -10 14 -22z m46
-51 c0 -95 -18 -105 -22 -13 -1 43 -1 79 1 82 13 12 21 -15 21 -69z m-360
-157 c0 -5 -5 -10 -11 -10 -5 0 -7 5 -4 10 3 6 8 10 11 10 2 0 4 -4 4 -10z
m-1843 -472 c44 -29 177 -78 216 -78 10 0 39 -11 65 -24 64 -32 147 -49 207
-43 28 3 91 10 140 14 50 5 97 13 104 17 9 6 12 3 9 -10 -8 -47 -231 -79 -386
-55 -137 21 -274 68 -364 124 -40 24 -48 34 -48 58 0 16 3 29 6 29 3 0 26 -14
51 -32z m-43 -63 c19 -15 19 -16 -2 -54 -31 -54 -27 -65 4 -13 14 23 27 42 30
42 5 0 45 -20 52 -25 2 -2 -6 -21 -17 -42 -21 -42 -51 -149 -50 -179 0 -11 7
6 15 36 23 91 56 170 69 170 6 0 43 -11 81 -24 199 -70 446 -82 570 -27 57 25
84 16 84 -30 0 -21 11 -40 35 -65 19 -19 35 -41 35 -49 0 -8 33 -54 74 -103
40 -48 108 -135 151 -192 l77 -105 -38 -8 c-62 -12 -120 -37 -269 -113 -295
-152 -481 -175 -790 -100 -133 32 -265 49 -315 41 -48 -8 -48 -10 -21 120 42
201 59 292 64 340 9 88 48 227 88 313 21 45 41 82 46 82 4 0 17 -7 27 -15z
m1274 -807 c98 -159 140 -242 148 -294 7 -50 -15 -153 -46 -215 -23 -45 -26
-67 -4 -26 9 16 17 27 19 25 5 -5 -27 -187 -66 -381 -27 -131 -29 -153 -19
-202 10 -50 9 -58 -11 -94 -20 -37 -21 -43 -9 -86 8 -27 9 -50 4 -55 -15 -14
-115 -40 -155 -40 -57 0 -136 19 -150 36 -10 12 -10 25 -1 58 8 31 8 54 1 81
-9 30 -7 58 7 125 15 74 15 99 6 176 -20 149 -16 242 14 335 17 56 25 98 22
133 l-3 51 51 -3 c45 -3 142 14 133 23 -2 1 -29 -1 -61 -6 -32 -5 -66 -5 -80
0 -12 4 -91 68 -174 142 l-151 134 29 15 c27 13 33 12 101 -23 84 -43 168 -79
173 -74 2 2 -48 27 -111 56 -63 30 -115 56 -114 60 1 8 243 129 294 146 75 26
77 25 153 -97z m-1268 -82 c175 -38 225 -50 229 -52 4 -4 -8 -39 -77 -214 -53
-136 -77 -169 -180 -246 -42 -32 -81 -62 -87 -67 -19 -18 40 16 88 49 l47 34
-49 -97 c-27 -54 -88 -153 -135 -221 -107 -152 -123 -182 -131 -254 -6 -46
-13 -62 -41 -89 -19 -18 -34 -43 -34 -55 0 -13 -5 -35 -10 -49 -9 -23 -14 -26
-38 -21 -15 4 -64 11 -109 15 -93 9 -123 26 -123 73 0 16 8 40 17 54 11 17 16
42 14 71 -2 37 4 54 35 99 24 38 45 90 65 162 66 246 85 286 179 397 42 49 62
81 66 108 4 24 15 44 29 53 19 12 23 27 28 97 4 45 10 104 13 131 l7 49 66 -7
c36 -3 95 -12 131 -20z m-555 -1292 c130 -10 122 -4 130 -90 4 -41 15 -99 26
-130 33 -92 4 -117 -136 -116 -91 0 -160 18 -177 45 -15 23 -9 63 29 184 30
96 41 122 53 117 8 -3 42 -8 75 -10z m1896 -48 c54 -49 99 -75 231 -136 52
-23 69 -53 45 -77 -11 -12 -40 -15 -124 -14 -95 1 -120 5 -198 32 -66 23 -118
34 -193 40 -59 4 -110 13 -119 21 -13 10 -14 27 -10 87 3 40 10 78 15 83 6 6
24 6 48 -1 51 -14 129 -13 179 4 60 20 62 19 126 -39z"/>
<path d="M5607 4920 c12 -5 26 -17 32 -27 6 -10 11 -13 11 -7 0 15 -34 44 -51
43 -8 0 -4 -4 8 -9z"/>
<path d="M5373 4654 c-41 -21 -43 -36 -3 -21 24 9 43 8 92 -5 59 -16 78 -16
78 0 0 6 -117 43 -132 42 -1 0 -18 -8 -35 -16z"/>
<path d="M5117 4613 c-4 -3 -7 -16 -6 -27 0 -20 1 -20 9 2 12 27 16 28 31 1 8
-16 8 -27 -1 -45 -11 -19 -11 -26 0 -39 7 -8 15 -13 18 -10 3 2 -1 11 -7 19
-8 10 -9 16 -1 21 14 9 12 46 -4 68 -14 18 -28 22 -39 10z"/>
<path d="M5388 4583 c-10 -2 -18 -8 -18 -13 0 -5 13 -5 30 0 26 7 30 6 30 -11
0 -23 18 -25 27 -3 3 8 12 13 21 9 12 -4 13 -3 2 10 -12 14 -54 18 -92 8z"/>
<path d="M5250 4483 c0 -6 9 -21 21 -34 l20 -24 -17 30 c-24 39 -24 40 -24 28z"/>
<path d="M5360 4385 c-19 -22 -8 -25 13 -3 9 10 13 18 8 18 -5 0 -14 -7 -21
-15z"/>
<path d="M5427 4310 c36 -34 49 -40 86 -40 37 0 47 5 66 31 21 29 22 31 4 25
-11 -4 -55 1 -99 9 -43 8 -83 15 -89 15 -5 0 9 -18 32 -40z m127 -12 c-8 -12
-51 -10 -88 6 -59 24 -47 33 24 18 38 -9 67 -19 64 -24z"/>
<path d="M5473 4228 c16 -10 64 -10 70 0 3 4 -15 7 -38 7 -24 0 -39 -3 -32 -7z"/>
<path d="M5212 4175 c0 -16 3 -50 7 -75 6 -33 9 -37 9 -15 0 17 -3 50 -7 75
-6 33 -9 37 -9 15z"/>
<path d="M5339 4063 c-13 -17 -13 -17 6 -3 11 8 22 16 24 17 2 2 0 3 -6 3 -6
0 -17 -8 -24 -17z"/>
<path d="M4714 4195 c11 -17 25 -52 32 -80 10 -39 12 -43 13 -20 1 34 -30 108
-50 121 -8 5 -6 -4 5 -21z"/>
<path d="M5000 4106 c0 -11 40 -86 45 -86 3 0 -4 19 -16 43 -23 45 -29 54 -29
43z"/>
<path d="M4762 4035 c0 -16 2 -22 5 -12 2 9 2 23 0 30 -3 6 -5 -1 -5 -18z"/>
<path d="M5050 4006 c0 -2 8 -10 18 -17 15 -13 16 -12 3 4 -13 16 -21 21 -21
13z"/>
<path d="M4752 3970 c0 -19 2 -27 5 -17 2 9 2 25 0 35 -3 9 -5 1 -5 -18z"/>
<path d="M5420 3924 c-18 -32 -63 -65 -104 -74 -29 -7 -29 -8 -5 -9 14 -1 41
9 59 22 36 24 77 73 69 82 -3 3 -12 -7 -19 -21z"/>
<path d="M5233 3433 c15 -2 37 -2 50 0 12 2 0 4 -28 4 -27 0 -38 -2 -22 -4z"/>
<path d="M5065 3420 c-18 -5 3 -6 50 -3 44 3 82 7 84 9 8 7 -104 2 -134 -6z"/>
<path d="M4993 3403 c9 -2 23 -2 30 0 6 3 -1 5 -18 5 -16 0 -22 -2 -12 -5z"/>
<path d="M4758 3234 c38 -56 130 -132 203 -168 40 -20 79 -36 88 -36 9 0 -10
11 -41 24 -86 35 -152 81 -215 150 -31 33 -47 47 -35 30z"/>
<path d="M4764 3535 c-10 -32 -10 -35 3 -22 8 8 13 24 11 37 -2 17 -5 15 -14
-15z"/>
<path d="M5690 3383 c0 -11 48 -59 53 -52 1 2 -10 17 -25 33 -16 16 -28 24
-28 19z"/>
<path d="M4534 3026 c21 -19 129 -76 143 -76 4 0 -25 18 -64 39 -40 21 -79 42
-86 47 -7 5 -4 1 7 -10z"/>
<path d="M5245 2783 c-21 -14 -60 -34 -85 -44 -25 -10 -37 -18 -27 -19 22 0
103 40 137 69 35 29 22 26 -25 -6z"/>
<path d="M4747 2751 c85 -41 199 -81 226 -80 12 0 -2 7 -31 15 -29 7 -92 30
-140 50 -112 47 -134 52 -55 15z"/>
<path d="M5220 2645 c-102 -81 -163 -109 -262 -124 -50 -7 -55 -9 -24 -10 42
-1 146 23 186 44 32 17 215 165 203 165 -4 0 -51 -34 -103 -75z"/>
<path d="M4848 2503 c6 -2 18 -2 25 0 6 3 1 5 -13 5 -14 0 -19 -2 -12 -5z"/>
<path d="M5213 2451 c-80 -77 -136 -114 -263 -178 -58 -29 -100 -53 -94 -53 6
0 66 28 133 61 105 52 135 74 209 145 48 46 85 83 82 83 -3 0 -33 -26 -67 -58z"/>
<path d="M5604 1745 c22 -17 84 -31 93 -21 4 3 -4 6 -16 6 -12 0 -38 7 -59 15
-32 13 -35 13 -18 0z"/>
<path d="M5685 1332 c-16 -31 -48 -81 -70 -111 -48 -66 -58 -81 -51 -81 18 0
165 234 154 245 -2 2 -17 -22 -33 -53z"/>
<path d="M5585 1015 c29 -24 109 -44 122 -31 4 3 -7 6 -24 6 -16 0 -52 11 -79
25 l-49 24 30 -24z"/>
<path d="M5705 944 c-22 -9 -60 -19 -85 -24 -36 -6 -39 -8 -14 -9 36 -1 131
25 139 39 7 12 10 12 -40 -6z"/>
<path d="M5537 879 c7 -7 15 -10 18 -7 3 3 -2 9 -12 12 -14 6 -15 5 -6 -5z"/>
<path d="M5583 863 c9 -2 23 -2 30 0 6 3 -1 5 -18 5 -16 0 -22 -2 -12 -5z"/>
<path d="M4301 1814 c-2 -16 30 -117 35 -112 2 3 -4 31 -15 64 -10 32 -19 54
-20 48z"/>
<path d="M4262 1700 c0 -14 2 -19 5 -12 2 6 2 18 0 25 -3 6 -5 1 -5 -13z"/>
<path d="M4235 1306 c-63 -55 -192 -146 -209 -146 -5 0 -7 -3 -3 -6 14 -14
183 104 251 175 45 47 28 37 -39 -23z"/>
<path d="M3960 1064 c0 -17 69 -92 90 -99 34 -11 22 -21 -22 -18 l-43 2 45
-10 c25 -5 56 -7 70 -3 25 6 25 6 -8 20 -43 18 -79 47 -109 86 -12 18 -23 27
-23 22z"/>
<path d="M3929 897 c10 -13 28 -17 80 -15 l66 1 -65 6 c-36 3 -72 10 -80 15
-13 9 -13 8 -1 -7z"/>
<path d="M6175 4173 c6 -5 39 -33 75 -62 l65 -53 -53 51 c-30 28 -63 56 -75
62 -12 6 -17 7 -12 2z"/>
<path d="M6220 4025 c13 -14 26 -25 28 -25 3 0 -5 11 -18 25 -13 14 -26 25
-28 25 -3 0 5 -11 18 -25z"/>
<path d="M6481 3122 c-18 -99 -74 -259 -131 -375 -27 -56 -43 -93 -34 -82 29
37 103 199 133 293 30 91 57 219 49 227 -3 3 -10 -25 -17 -63z"/>
<path d="M6582 3145 c0 -16 2 -22 5 -12 2 9 2 23 0 30 -3 6 -5 -1 -5 -18z"/>
<path d="M6571 3094 c0 -11 3 -14 6 -6 3 7 2 16 -1 19 -3 4 -6 -2 -5 -13z"/>
<path d="M6561 3054 c0 -11 3 -14 6 -6 3 7 2 16 -1 19 -3 4 -6 -2 -5 -13z"/>
</g>
</svg>
