<?xml version="1.0" standalone="no"?>
<!DOCTYPE svg PUBLIC "-//W3C//DTD SVG 20010904//EN"
 "http://www.w3.org/TR/2001/REC-SVG-20010904/DTD/svg10.dtd">
<svg version="1.0" xmlns="http://www.w3.org/2000/svg"
 width="1024.000000pt" height="559.000000pt" viewBox="0 0 1024.000000 559.000000"
 preserveAspectRatio="xMidYMid meet">
<metadata>
Created by potrace 1.16, written by Peter Selinger 2001-2019
</metadata>
<g transform="translate(0.000000,559.000000) scale(0.100000,-0.100000)"
fill="#000000" stroke="none">
<path d="M6062 4929 c-18 -6 -51 -28 -74 -51 -36 -36 -47 -42 -79 -39 -72 5
-147 -43 -180 -114 -24 -51 -23 -89 0 -142 18 -38 18 -44 4 -85 -37 -102 38
-208 147 -208 24 0 42 -11 78 -48 91 -92 230 -96 311 -9 20 22 32 26 71 26
154 -4 254 151 185 285 -13 24 -13 31 0 56 19 37 19 113 0 149 -31 61 -118
109 -175 97 -22 -4 -32 0 -44 18 -38 58 -157 90 -244 65z m145 -30 c15 -5 45
-27 66 -47 35 -34 42 -37 97 -37 54 0 62 -3 95 -35 19 -19 41 -52 47 -73 10
-33 8 -45 -11 -91 l-22 -54 20 -33 c68 -111 -46 -269 -175 -244 -31 5 -40 2
-75 -30 -22 -20 -51 -40 -65 -45 -82 -32 -207 16 -235 89 -8 19 -14 22 -38 18
-107 -22 -192 90 -147 192 17 37 17 39 -3 72 -43 70 -18 155 59 207 27 18 46
23 88 21 50 -3 55 0 79 29 48 63 145 89 220 61z"/>
<path d="M6085 4786 c-42 -18 -85 -72 -85 -104 0 -37 22 -97 44 -121 13 -14
16 -28 11 -49 -5 -25 -16 -34 -61 -52 -53 -22 -94 -59 -94 -86 0 -22 15 -16
30 11 7 13 33 33 57 45 l44 20 37 -25 c20 -14 54 -28 74 -31 l37 -6 -35 -55
c-35 -56 -39 -78 -8 -52 18 15 74 126 74 147 0 6 5 12 10 12 12 0 13 -31 1
-62 -17 -46 -21 -78 -11 -78 5 0 17 27 27 60 9 33 20 60 24 60 7 0 32 -29 56
-66 11 -18 12 -18 12 3 1 33 -52 87 -100 103 -37 13 -39 15 -21 23 29 13 45
59 46 131 1 33 4 66 8 71 10 16 -18 72 -44 89 -34 22 -98 28 -133 12z m125
-35 c14 -10 26 -27 28 -37 2 -12 0 -15 -5 -8 -20 28 -153 -10 -153 -44 0 -13
-8 -17 -27 -17 -37 2 -42 34 -11 76 43 59 112 72 168 30z m20 -134 c0 -103
-33 -142 -86 -102 -33 25 -51 16 -19 -10 57 -46 65 -55 65 -70 0 -23 -72 -19
-103 5 -22 18 -25 25 -17 46 15 37 12 84 -4 90 -17 7 -28 32 -20 45 4 6 11 6
19 -1 18 -15 35 -5 35 19 0 26 23 42 64 44 19 2 38 6 42 9 16 17 24 -8 24 -75z"/>
<path d="M5010 4596 c-111 -25 -180 -68 -230 -145 -17 -25 -45 -66 -62 -90
-28 -39 -32 -54 -36 -126 -2 -44 1 -107 8 -138 13 -64 137 -322 167 -350 17
-15 19 -24 12 -62 -22 -117 -53 -146 -220 -204 -245 -86 -319 -131 -363 -224
-58 -124 -59 -239 -2 -587 38 -232 41 -240 102 -240 47 0 47 -25 -2 -125 -62
-126 -67 -193 -23 -302 12 -28 10 -37 -19 -100 -39 -84 -39 -106 -7 -183 30
-71 31 -93 6 -128 -63 -91 -72 -139 -46 -265 13 -58 14 -88 6 -138 -14 -81
-14 -206 -1 -214 12 -8 17 15 29 167 9 106 8 140 -5 210 -16 87 -14 118 12
174 19 39 39 35 31 -6 -3 -15 -1 -32 6 -39 24 -24 138 -3 231 44 61 31 166
108 179 130 18 32 -2 25 -67 -24 -88 -67 -202 -121 -271 -128 l-54 -6 6 69 c5
62 2 77 -22 134 -33 76 -36 118 -10 183 20 53 36 51 37 -4 1 -19 6 -37 12 -41
33 -22 125 1 208 52 45 28 52 30 87 19 46 -14 105 7 122 44 9 20 20 26 58 29
26 3 73 17 105 31 l58 27 -41 -49 c-141 -168 -357 -306 -510 -327 -59 -8 -69
-24 -13 -24 159 1 428 172 557 354 38 54 42 57 75 52 19 -3 45 -6 58 -6 l22 0
-29 -57 c-64 -126 -205 -315 -323 -434 -109 -109 -203 -180 -300 -227 -43 -20
-78 -40 -78 -44 -1 -31 130 29 237 108 181 134 391 386 505 607 l19 39 82 -7
c45 -4 85 -10 89 -14 16 -15 -103 -334 -183 -491 -55 -108 -166 -282 -227
-354 -46 -55 -46 -83 0 -39 69 65 208 281 282 437 43 90 109 261 140 358 l28
88 89 -2 c72 -2 89 -5 89 -18 0 -73 -93 -449 -166 -670 -36 -109 -41 -135 -24
-125 40 25 206 603 211 738 2 46 16 -29 23 -119 7 -97 33 -401 42 -501 5 -58
15 -76 28 -54 7 11 -6 188 -50 682 l-6 66 74 12 c166 27 209 51 229 126 14 51
6 231 -17 349 l-17 88 28 22 27 21 -47 115 c-26 63 -69 172 -95 241 -65 169
-94 226 -146 280 -25 25 -53 61 -62 80 -12 25 -34 43 -81 66 -52 27 -67 40
-83 75 -10 24 -25 55 -33 69 -12 26 -12 28 26 44 21 10 41 26 44 36 8 25 -12
59 -35 59 -24 0 -24 3 -5 57 21 60 27 186 17 338 -7 102 -6 136 5 157 31 63 8
142 -67 236 -53 67 -105 96 -202 116 -90 19 -152 19 -228 2z m278 -43 c95 -30
207 -170 200 -250 l-3 -38 -21 46 c-12 26 -27 50 -33 53 -6 4 -11 16 -11 27 0
28 -19 23 -32 -8 -12 -29 -57 -83 -68 -83 -4 0 -5 11 -2 25 2 13 1 32 -2 41
-5 14 -12 10 -36 -23 -23 -32 -65 -63 -84 -63 -2 0 0 17 5 37 10 49 -4 64 -30
32 -11 -13 -20 -27 -21 -31 0 -9 -83 -58 -98 -58 -7 0 -12 11 -12 25 0 56 -30
13 -46 -65 -3 -19 -17 -53 -30 -76 -15 -25 -24 -57 -24 -82 0 -23 -4 -42 -10
-42 -5 0 -10 5 -10 10 0 21 -49 60 -76 60 -34 0 -74 -36 -74 -67 0 -42 -17
-24 -39 42 -23 73 -28 181 -10 236 7 19 27 50 45 69 19 20 34 41 34 48 0 46
141 138 235 153 67 10 188 2 253 -18z m145 -250 c16 -38 37 -109 37 -128 0 -5
-21 -10 -47 -10 -65 0 -71 -19 -8 -25 l49 -5 13 -95 c13 -100 10 -154 -14
-259 -17 -75 -29 -101 -46 -101 -17 0 -104 -46 -150 -80 -48 -35 -73 -30 -82
16 -6 37 -41 82 -65 85 -36 4 -50 -2 -50 -21 0 -28 -11 -25 -45 10 -16 17 -32
30 -37 30 -20 0 -4 -27 43 -74 l51 -51 -8 -70 c-4 -38 -8 -107 -7 -152 2 -98
1 -98 -96 -53 -70 33 -185 120 -196 148 -4 12 1 22 17 32 75 48 106 117 115
253 3 42 10 80 14 83 20 12 7 24 -25 24 -42 0 -78 41 -96 108 -9 37 -9 48 5
68 8 13 25 24 36 24 20 0 69 -44 69 -62 0 -5 12 -8 28 -6 25 3 27 6 30 57 2
37 11 65 28 90 13 19 24 48 24 63 0 21 5 28 20 28 24 0 75 22 107 45 20 16 21
15 16 -4 -4 -18 -1 -21 23 -21 16 0 42 9 58 19 27 18 31 18 41 4 11 -14 15
-14 48 2 20 9 43 28 52 41 21 33 29 30 48 -13z m-553 -505 c0 -36 -4 -35 -29
6 -27 43 -26 48 4 34 18 -8 25 -19 25 -40z m263 -155 c10 -17 20 -54 24 -82 3
-28 11 -51 17 -51 6 0 38 20 71 45 82 61 167 105 203 105 43 0 48 -16 11 -35
-76 -40 -141 -87 -129 -95 7 -4 25 -1 40 8 30 17 60 11 60 -13 0 -8 -11 -21
-25 -27 -29 -13 -36 -45 -7 -33 39 16 49 16 56 -1 4 -11 -1 -25 -15 -40 -26
-28 -16 -53 12 -28 17 16 19 16 25 0 4 -10 2 -27 -4 -39 -17 -38 -122 -146
-167 -173 -54 -31 -57 -39 -134 -327 -67 -250 -111 -386 -148 -462 -37 -74
-111 -182 -140 -205 -59 -46 -156 -13 -237 81 -39 46 -135 195 -164 256 l-17
35 45 41 c25 22 72 53 105 68 61 29 151 49 143 33 -2 -5 -21 -43 -42 -86 -26
-54 -36 -86 -34 -110 l4 -33 13 30 c8 17 24 53 37 81 12 29 55 103 95 165 80
125 171 299 221 424 29 73 33 92 36 210 2 72 4 168 3 213 -1 91 8 102 42 45z
m-350 -238 c61 -58 164 -120 249 -148 17 -6 17 -9 -1 -55 -32 -81 -126 -271
-177 -357 l-47 -80 -19 45 c-11 25 -28 79 -40 120 -24 90 -86 222 -126 269
-44 53 -46 22 -2 -45 42 -62 95 -182 85 -192 -3 -3 -14 4 -25 15 -34 37 -89
75 -101 71 -7 -2 4 -19 27 -39 85 -75 121 -120 145 -187 13 -36 26 -70 27 -74
2 -4 -10 -8 -26 -8 -46 0 -152 -36 -204 -69 -26 -17 -83 -64 -126 -106 -44
-41 -82 -75 -85 -75 -3 0 -8 24 -12 53 -4 28 -20 133 -36 232 -32 202 -36 294
-14 378 29 111 70 169 150 210 41 21 262 105 280 106 6 1 41 -28 78 -64z m820
-63 c27 -30 56 -233 64 -447 7 -218 -4 -495 -21 -499 -94 -24 -136 -32 -136
-27 0 3 7 49 15 101 17 109 19 150 6 150 -4 0 -16 -50 -25 -111 -24 -152 -25
-154 -86 -169 -28 -7 -53 -10 -55 -8 -2 2 14 63 35 136 22 73 50 186 64 250
30 147 54 388 39 403 -7 7 -14 -27 -22 -108 -20 -202 -65 -415 -127 -600 -14
-43 -30 -83 -35 -89 -9 -11 -306 -50 -315 -42 -2 3 11 36 30 74 165 325 246
530 282 714 19 94 29 113 78 141 17 10 18 7 11 -83 -9 -122 -36 -256 -79 -400
-36 -118 -43 -150 -28 -132 16 17 53 118 78 213 30 114 50 232 59 361 7 87 10
98 41 139 19 24 34 55 34 68 l0 23 38 -19 c20 -10 45 -28 55 -39z m140 -191
c20 -36 60 -131 90 -211 31 -80 69 -178 86 -219 17 -41 31 -78 31 -82 0 -15
-212 -109 -245 -109 -6 0 -10 93 -11 268 -1 178 -6 300 -16 365 l-14 97 22
-21 c13 -12 38 -51 57 -88z m-449 -43 c-16 -97 -121 -421 -123 -381 -1 21 91
357 105 385 19 37 25 35 18 -4z m625 -595 c47 -239 41 -391 -18 -423 -12 -6
-61 -20 -109 -30 -118 -26 -296 -26 -542 1 l-195 22 -65 -33 c-51 -26 -81 -34
-140 -38 -76 -5 -130 -26 -112 -44 6 -6 18 -5 30 3 30 19 41 1 13 -22 -28 -22
-60 -24 -86 -5 -19 14 -19 15 3 68 39 93 21 105 -24 16 -23 -45 -27 -49 -41
-36 -13 13 -11 23 16 81 16 37 26 69 21 72 -10 6 -22 -9 -49 -62 -12 -24 -26
-43 -31 -43 -19 0 -10 40 20 93 33 58 35 67 20 67 -6 0 -25 -22 -42 -50 -17
-27 -35 -47 -39 -44 -20 12 -6 48 35 92 l45 47 38 -36 c65 -62 133 -87 189
-69 18 6 53 33 76 59 l43 47 127 13 c141 13 270 37 423 76 55 14 133 29 173
32 78 6 95 26 28 31 l-37 3 3 46 3 45 81 28 c44 15 89 32 100 38 29 17 30 16
43 -45z m-1459 -13 l20 -40 -62 0 -62 0 39 40 c21 22 40 40 42 40 1 0 12 -18
23 -40z m95 -156 l52 -80 -44 -48 c-55 -58 -75 -57 -84 4 -4 25 -14 80 -22
122 -8 43 -12 80 -9 83 4 3 17 5 30 3 18 -2 38 -25 77 -84z m-111 -109 c8 -49
8 -50 -12 -32 -13 12 -22 15 -27 8 -10 -17 50 -71 79 -71 15 0 26 -6 26 -14 0
-7 9 -25 20 -39 11 -14 20 -31 20 -39 0 -7 21 -35 46 -60 l45 -46 -43 -26
c-53 -31 -122 -56 -154 -56 -21 0 -24 5 -24 36 0 20 -16 72 -35 115 -47 107
-45 139 12 266 24 53 26 56 33 33 4 -14 10 -48 14 -75z"/>
<path d="M5153 4140 c-38 -9 -83 -36 -83 -50 0 -13 17 -13 43 2 12 6 46 16 76
22 62 13 82 37 29 35 -18 -1 -48 -4 -65 -9z"/>
<path d="M5330 4093 c0 -5 14 -48 31 -97 35 -101 31 -118 -30 -114 -48 4 -52
-15 -5 -25 48 -10 84 12 84 51 0 36 -54 185 -68 190 -7 2 -12 0 -12 -5z"/>
<path d="M5404 4075 c-7 -18 14 -47 27 -39 5 3 9 16 9 30 0 27 -27 34 -36 9z"/>
<path d="M5157 4056 c-8 -21 19 -54 33 -40 7 7 10 20 8 30 -4 23 -33 30 -41
10z"/>
<path d="M5310 3783 c-47 -8 -90 -25 -90 -35 0 -6 9 -8 23 -3 12 3 55 9 95 12
70 5 89 14 56 27 -16 6 -42 6 -84 -1z"/>
<path d="M5290 3710 c0 -5 18 -10 40 -10 22 0 40 5 40 10 0 6 -18 10 -40 10
-22 0 -40 -4 -40 -10z"/>
<path d="M5560 3303 c0 -10 7 -56 15 -103 22 -131 35 -300 35 -465 0 -101 4
-145 10 -135 5 8 10 98 10 201 0 177 -16 354 -41 462 -11 48 -29 73 -29 40z"/>
<path d="M4429 2030 c25 -21 76 -27 86 -10 7 12 -4 16 -65 24 l-45 6 24 -20z"/>
<path d="M5782 4214 c-33 -23 -30 -76 5 -104 67 -53 152 40 90 98 -27 26 -64
28 -95 6z m78 -29 c15 -18 10 -45 -12 -59 -33 -20 -69 20 -54 60 7 18 50 18
66 -1z"/>
<path d="M5652 4098 c-34 -34 14 -102 56 -79 28 15 35 40 17 67 -17 26 -53 32
-73 12z m58 -40 c0 -15 -32 -21 -40 -7 -13 20 9 43 26 28 8 -6 14 -16 14 -21z"/>
<path d="M6542 2336 c-10 -38 -17 -46 -54 -61 l-43 -17 41 -18 c39 -17 45 -25
69 -95 7 -19 8 -19 17 5 28 71 32 76 88 98 l25 10 -30 11 c-51 19 -60 27 -73
69 -8 23 -17 42 -21 42 -4 0 -12 -20 -19 -44z m62 -68 c12 -10 15 -18 8 -18
-7 0 -21 -15 -32 -32 -11 -18 -20 -28 -20 -22 0 7 -11 22 -24 35 l-24 23 26
33 c23 28 28 30 36 15 5 -9 18 -25 30 -34z"/>
<path d="M6305 2120 c-22 -11 -49 -31 -60 -44 -15 -17 -33 -25 -71 -28 -28 -3
-63 -13 -77 -24 -59 -44 -84 -136 -53 -196 12 -23 12 -34 1 -71 -25 -83 14
-161 97 -194 38 -15 40 -17 34 -52 -3 -20 -19 -62 -36 -94 -35 -67 -35 -67
-13 -67 26 0 114 65 143 105 15 21 31 33 40 31 86 -27 96 -28 139 -16 25 6 59
26 78 45 22 22 45 34 74 38 109 14 171 132 123 233 -13 28 -14 40 -5 60 17 38
13 105 -9 141 -24 40 -91 75 -135 72 -24 -3 -40 4 -64 26 -58 56 -137 69 -206
35z m143 -24 c15 -8 38 -26 51 -40 19 -20 34 -26 68 -26 62 0 101 -23 124 -74
19 -44 15 -90 -12 -122 -8 -10 -6 -20 9 -41 41 -60 35 -128 -17 -177 -23 -22
-43 -30 -80 -34 -39 -3 -54 -10 -66 -28 -19 -30 -85 -64 -122 -64 -16 0 -46 9
-68 20 l-39 20 -25 -32 c-34 -45 -92 -100 -99 -94 -2 3 3 21 12 41 9 19 20 58
23 85 5 47 4 50 -17 50 -43 0 -87 30 -111 75 -24 45 -24 45 -6 96 17 46 17 53
3 74 -9 14 -16 45 -16 71 0 41 5 51 39 85 34 35 44 39 88 39 41 0 54 5 74 26
56 62 128 81 187 50z"/>
<path d="M6313 1985 c-33 -33 -35 -39 -29 -77 4 -22 15 -53 25 -67 25 -37 16
-60 -34 -81 -24 -10 -50 -29 -59 -42 -19 -31 -24 -80 -8 -85 7 -3 12 4 12 19
0 32 27 68 63 83 26 11 34 10 61 -6 17 -10 41 -19 54 -19 28 0 28 -2 -3 -50
-13 -21 -21 -42 -16 -45 12 -7 43 38 63 88 l14 39 32 -27 c18 -15 32 -35 32
-44 0 -9 7 -26 15 -37 15 -18 15 -16 9 26 -7 50 -31 82 -76 101 -24 10 -27 14
-14 21 28 16 43 103 29 181 -6 33 -47 57 -99 57 -28 0 -44 -8 -71 -35z m128
-5 l24 -19 -25 -2 c-56 -4 -87 -16 -94 -34 -7 -20 -46 -19 -46 1 0 8 13 29 29
45 35 35 78 38 112 9z m19 -99 c0 -71 -16 -91 -61 -74 -37 14 -41 -8 -4 -25
15 -7 25 -20 25 -32 0 -23 -17 -25 -55 -8 -23 10 -25 15 -20 53 5 31 3 44 -9
54 -22 18 -20 31 3 31 11 0 22 8 26 19 5 16 48 37 83 40 8 1 12 -17 12 -58z"/>
<path d="M5926 1319 c-20 -16 -26 -29 -26 -58 0 -36 -1 -38 -52 -53 -119 -37
-297 -72 -424 -83 -67 -6 -73 -5 -119 24 -27 17 -62 31 -77 31 -66 0 -105 -92
-61 -142 16 -18 166 -126 323 -233 l85 -58 95 6 c94 5 255 34 358 63 38 11 56
23 64 39 10 23 13 23 42 11 29 -12 42 -10 122 13 164 50 204 80 204 157 0 31
-6 49 -19 60 -10 9 -86 51 -167 93 -82 42 -179 94 -215 114 -76 43 -96 45
-133 16z m123 -43 c31 -19 111 -62 179 -96 67 -35 122 -65 122 -67 0 -3 -9
-16 -20 -30 -11 -14 -20 -34 -20 -44 0 -20 -15 -26 -24 -10 -5 7 -100 62 -288
166 -72 39 -86 66 -52 99 22 23 40 20 103 -18z m-2 -142 c259 -146 299 -165
327 -154 14 5 26 11 26 14 0 2 3 11 6 19 3 8 -2 22 -11 31 -20 20 -41 11 -24
-10 10 -12 9 -17 0 -27 -10 -9 -15 -8 -26 7 -12 16 -12 22 1 42 34 51 84 38
84 -23 0 -51 -32 -76 -148 -114 -92 -30 -106 -32 -144 -22 -45 12 -68 4 -68
-23 0 -28 -270 -87 -404 -88 -101 -1 -118 10 -100 61 18 53 84 62 84 12 0 -24
-18 -33 -36 -18 -19 16 -30 4 -14 -16 15 -18 51 -20 68 -3 7 7 12 27 12 45 0
38 -18 53 -183 155 -115 71 -116 70 39 87 100 12 320 62 352 81 28 16 38 13
159 -56z m-680 -62 c65 -43 139 -91 165 -106 62 -36 65 -43 34 -67 -14 -11
-28 -35 -32 -54 l-6 -33 -121 86 c-226 159 -227 160 -227 192 0 33 23 60 50
60 10 0 71 -35 137 -78z"/>
</g>
</svg>
