<?xml version="1.0" standalone="no"?>
<!DOCTYPE svg PUBLIC "-//W3C//DTD SVG 20010904//EN"
 "http://www.w3.org/TR/2001/REC-SVG-20010904/DTD/svg10.dtd">
<svg version="1.0" xmlns="http://www.w3.org/2000/svg"
 width="1024.000000pt" height="559.000000pt" viewBox="0 0 1024.000000 559.000000"
 preserveAspectRatio="xMidYMid meet">
<metadata>
Created by potrace 1.16, written by Peter Selinger 2001-2019
</metadata>
<g transform="translate(0.000000,559.000000) scale(0.100000,-0.100000)"
fill="#000000" stroke="none">
<path d="M4943 4711 c-121 -42 -200 -107 -237 -196 -9 -20 -27 -50 -41 -67
-39 -46 -56 -96 -62 -179 -6 -84 6 -153 43 -237 30 -69 101 -176 160 -242 42
-45 46 -55 42 -88 -3 -20 -13 -54 -21 -75 -24 -55 -58 -66 -208 -66 -113 1
-135 -3 -244 -34 -127 -37 -261 -67 -301 -67 -13 0 -31 -8 -41 -19 -10 -10
-38 -20 -64 -23 l-47 -5 -38 96 c-21 53 -59 141 -85 196 -61 131 -122 309
-121 360 0 22 1 72 2 110 2 56 -2 84 -23 138 -15 38 -32 99 -38 135 -15 88
-23 102 -59 102 -44 0 -64 -45 -55 -123 l6 -59 -22 15 c-38 27 -100 109 -135
178 -35 70 -78 114 -102 104 -7 -3 -23 2 -35 10 -12 8 -25 15 -29 15 -16 0
-38 -34 -38 -60 0 -16 -4 -32 -10 -35 -17 -10 -11 -57 19 -155 16 -52 32 -114
36 -137 9 -55 47 -111 151 -222 96 -101 98 -106 129 -301 33 -207 77 -404 112
-503 75 -217 109 -246 314 -267 111 -11 119 -14 119 -38 1 -25 38 -104 62
-129 26 -28 71 -30 188 -7 45 8 84 14 86 12 1 -2 13 -97 25 -211 l23 -208 -32
-65 c-37 -74 -42 -137 -15 -187 9 -18 15 -47 14 -64 -1 -18 7 -49 18 -70 30
-57 32 -119 5 -173 -70 -142 -141 -501 -189 -957 -6 -53 -4 -63 8 -63 9 0 18
4 21 8 3 4 12 69 21 143 26 221 74 506 105 632 33 132 82 253 102 250 17 -2
162 -44 166 -48 2 -2 -3 -23 -12 -48 -40 -120 -87 -440 -67 -460 17 -17 28 5
35 77 12 109 47 298 68 364 19 64 20 64 51 58 90 -18 245 -28 359 -23 141 7
129 12 143 -66 19 -116 36 -305 42 -470 5 -164 8 -187 22 -185 12 3 17 19 19
73 5 89 -25 464 -44 574 -8 46 -14 85 -12 86 2 2 16 5 33 7 28 3 31 0 51 -57
12 -33 33 -115 46 -182 16 -87 27 -123 37 -123 20 0 8 107 -25 235 -38 148
-38 145 23 166 l52 17 20 -61 c48 -144 95 -383 146 -732 14 -99 28 -192 31
-208 5 -26 27 -37 38 -19 4 7 -13 135 -54 392 -5 30 -13 87 -19 126 -17 118
-69 347 -99 441 -36 111 -32 182 11 228 15 17 34 50 42 75 11 37 35 258 35
333 0 10 26 -21 59 -70 63 -93 143 -177 186 -193 41 -15 96 -11 143 10 l43 20
-7 -48 c-3 -26 -9 -50 -13 -53 -3 -3 -35 -12 -71 -19 -140 -26 -160 -42 -160
-123 0 -54 19 -98 52 -121 47 -33 71 -29 637 118 74 19 146 44 160 54 60 44
92 142 111 342 16 160 14 155 59 172 30 12 42 23 47 45 4 15 15 39 26 52 10
13 18 39 18 57 0 18 5 36 11 40 7 4 9 22 6 45 -3 22 -1 42 4 45 5 3 9 20 9 39
0 26 -7 39 -31 58 l-30 24 22 45 22 46 69 4 c61 3 72 7 101 36 29 30 32 38 32
96 0 50 -5 71 -21 93 -28 37 -79 54 -130 43 -73 -16 -278 -30 -457 -30 -194 0
-222 -6 -269 -56 -62 -67 -128 -266 -150 -454 -5 -52 -12 -100 -14 -107 -3
-12 -75 -53 -91 -53 -5 0 -26 34 -46 76 -34 68 -37 79 -26 107 11 31 5 45
-106 269 -97 197 -125 246 -167 288 -28 28 -64 58 -82 66 -17 9 -42 26 -56 39
-14 12 -53 38 -87 56 -56 31 -64 33 -94 22 -39 -15 -48 -11 -41 22 4 21 10 25
39 25 38 0 99 28 125 57 29 32 65 124 93 239 29 118 29 131 2 354 -10 75 -11
109 -3 119 6 8 11 51 11 96 0 77 -2 85 -36 136 -43 65 -95 103 -184 135 -55
20 -85 24 -178 24 -97 0 -123 -4 -194 -29z m392 -44 c107 -50 165 -126 165
-217 l0 -45 -30 55 c-32 58 -72 100 -95 100 -7 0 -23 -16 -35 -35 -21 -35 -69
-75 -89 -75 -6 0 -8 18 -4 50 5 42 3 50 -11 50 -9 0 -16 -4 -16 -8 0 -15 -68
-87 -100 -106 l-32 -18 2 28 c5 65 -14 74 -44 22 -10 -18 -45 -59 -79 -90
l-62 -57 -1 -88 c0 -48 -1 -91 -2 -95 -1 -4 -13 4 -27 17 -31 32 -75 32 -112
1 -60 -52 -21 -197 63 -232 33 -14 34 -15 34 -75 0 -33 -4 -58 -9 -55 -20 13
-134 181 -161 239 -73 154 -63 311 24 412 14 16 28 42 32 59 8 36 78 108 136
137 94 48 146 59 273 56 107 -2 126 -5 180 -30z m-2074 -123 c42 -95 110 -186
125 -171 9 8 0 24 -48 94 -31 43 -81 163 -69 163 4 0 27 -36 51 -80 65 -120
147 -211 204 -226 l28 -7 -7 89 c-3 54 -2 95 4 104 14 21 19 12 35 -71 8 -41
24 -99 37 -129 19 -47 23 -74 24 -185 1 -116 5 -140 32 -220 17 -49 56 -146
87 -215 72 -158 116 -270 130 -335 8 -32 17 -50 26 -50 11 0 14 10 12 36 -3
36 -2 36 44 43 81 11 89 9 107 -28 24 -51 45 -141 52 -228 l7 -76 -58 -4 c-33
-1 -110 0 -172 4 -194 11 -227 41 -296 263 -44 141 -59 210 -96 430 -17 99
-36 198 -42 220 -8 27 -40 71 -101 137 -121 131 -137 157 -149 239 -10 69 -5
124 11 114 5 -3 12 -29 16 -58 9 -64 26 -106 53 -130 32 -29 36 -3 6 43 -31
46 -25 64 10 31 39 -37 40 -6 1 37 -19 22 -35 42 -35 46 0 13 -73 162 -91 185
-10 13 -16 27 -14 32 13 20 36 -9 76 -97z m-62 -2 c18 -36 19 -39 2 -61 l-18
-24 -6 39 c-8 47 -9 84 -2 84 2 0 13 -17 24 -38z m2231 -87 c11 -18 27 -54 34
-80 13 -42 13 -47 -2 -52 -51 -17 -102 -43 -102 -51 0 -19 29 -21 69 -5 23 9
43 14 46 11 6 -5 22 -119 31 -218 7 -72 -9 -160 -52 -292 -36 -110 -79 -148
-168 -148 -70 0 -141 27 -210 80 -84 64 -107 68 -66 10 27 -37 113 -93 176
-114 l52 -17 -9 -37 c-20 -89 -2 -163 22 -92 12 33 21 37 38 17 7 -9 8 -29 3
-58 -6 -35 -13 -47 -37 -59 -42 -20 -177 -18 -240 4 -66 24 -159 81 -213 130
l-42 39 40 18 c31 14 45 29 60 62 27 60 43 173 38 270 l-4 82 -30 3 c-39 5
-72 37 -85 85 -22 81 29 127 81 72 13 -14 34 -25 47 -25 34 0 45 39 37 130 -6
74 -5 76 21 100 15 14 38 35 51 47 14 13 31 19 43 16 30 -8 66 4 99 32 24 20
31 22 36 10 14 -38 126 -1 166 55 25 35 35 31 70 -25z m-676 -979 c123 -126
320 -202 455 -176 30 5 57 8 59 5 18 -18 -98 -287 -183 -424 -149 -241 -382
-475 -564 -566 -29 -15 -54 -25 -57 -22 -2 2 -13 80 -24 173 -10 93 -24 212
-30 265 -7 53 -10 105 -8 114 2 11 18 23 43 29 45 13 56 42 15 40 -14 -1 -85
-14 -157 -30 -73 -15 -135 -25 -138 -22 -3 3 0 40 6 84 20 143 -3 320 -56 424
l-25 50 22 4 c13 3 60 12 105 21 44 8 116 27 159 41 104 34 174 44 263 37 72
-5 76 -7 115 -47z m614 12 c17 -17 15 -174 -3 -283 -9 -49 -30 -141 -47 -203
-30 -111 -31 -140 -4 -111 40 42 96 313 109 526 2 38 3 40 20 28 15 -11 20
-38 30 -139 12 -134 2 -305 -28 -491 -18 -111 -18 -115 -1 -115 18 0 21 9 40
135 28 183 38 346 26 456 -5 56 -8 104 -5 107 8 8 95 -69 126 -111 16 -22 76
-136 135 -255 l106 -215 -49 -49 c-39 -40 -199 -158 -214 -158 -2 0 -3 88 -1
195 3 182 -1 220 -23 185 -3 -5 -12 -172 -20 -372 -9 -200 -20 -390 -26 -422
-14 -80 -42 -131 -87 -161 -36 -24 -173 -65 -216 -65 -18 0 -17 3 10 33 81 86
124 161 167 287 30 92 41 147 28 154 -5 3 -23 -38 -41 -92 -45 -134 -94 -225
-164 -300 -70 -75 -96 -89 -169 -98 -67 -8 -289 5 -282 16 3 4 29 22 58 38 59
33 177 140 177 160 0 22 -26 12 -61 -24 -52 -55 -174 -132 -236 -150 -52 -15
-59 -15 -145 6 -103 24 -143 42 -158 69 -15 28 -12 51 5 51 21 0 19 6 -16 49
-22 28 -30 49 -31 80 0 43 18 101 33 101 14 0 11 -68 -3 -73 -10 -3 -10 -8 1
-21 43 -52 256 77 446 268 194 197 350 443 429 678 40 122 61 250 45 280 -8
14 -6 18 9 18 10 0 23 -5 30 -12z m1655 -219 c52 -24 65 -122 22 -164 -21 -22
-33 -25 -92 -25 -69 0 -297 -23 -388 -40 -27 -4 -69 -11 -92 -14 l-42 -6 14
35 c21 48 19 104 -5 150 -11 22 -20 40 -20 41 0 1 107 4 238 7 130 3 253 10
272 15 48 14 65 14 93 1z m-639 -50 c14 -11 26 -24 26 -28 0 -5 -23 -11 -52
-13 -67 -7 -98 -39 -98 -101 0 -95 44 -112 226 -86 71 11 170 24 219 29 50 6
105 13 122 16 l33 5 -19 -43 c-10 -24 -22 -58 -25 -75 -6 -25 -15 -34 -44 -44
-46 -14 -82 -46 -82 -72 0 -10 -9 -30 -20 -44 -21 -27 -26 -58 -11 -67 4 -3 6
-17 4 -31 -3 -13 -2 -33 2 -42 4 -10 8 -29 9 -43 1 -16 9 -29 23 -35 21 -9 22
-14 17 -85 -8 -108 -32 -257 -49 -311 -27 -82 -58 -103 -203 -138 -70 -18
-203 -52 -297 -76 -93 -25 -173 -45 -178 -45 -4 0 -1 10 7 23 40 60 80 286 91
512 16 331 58 566 125 699 53 106 116 141 174 95z m36 -89 c0 -13 -7 -20 -20
-20 -13 0 -20 7 -20 20 0 13 7 20 20 20 13 0 20 -7 20 -20z m-78 -30 c2 -21 8
-25 36 -25 40 0 40 -19 0 -48 -23 -17 -32 -19 -52 -9 -33 15 -43 64 -21 98 18
29 31 23 37 -16z m-2210 -145 c-4 -58 -10 -85 -21 -85 -7 0 -61 109 -61 123 0
8 31 15 60 14 23 -2 24 -5 22 -52z m2747 -72 c21 -39 -40 -83 -115 -83 -51 0
-39 20 27 47 30 12 55 29 57 37 4 21 19 20 31 -1z m-9 -113 c0 -33 -56 -60
-123 -60 -49 0 -58 3 -55 17 2 12 24 21 80 33 43 9 81 20 85 23 10 11 13 8 13
-13z m-976 -221 c-27 -28 -35 -42 -27 -50 8 -8 24 0 58 26 50 38 124 79 131
73 2 -2 -1 -62 -6 -134 -5 -71 -10 -144 -10 -162 0 -30 -5 -35 -52 -57 -105
-49 -160 -26 -259 107 -58 78 -135 206 -128 212 2 2 32 18 65 35 34 18 90 57
125 86 l64 53 38 -75 39 -76 -38 -38z m956 131 c0 -34 -111 -62 -145 -36 -24
17 -20 19 70 34 33 5 63 10 68 11 4 0 7 -3 7 -9z m-50 -95 c-15 -19 -81 -17
-87 2 -3 8 12 13 44 15 58 4 59 3 43 -17z m-794 -521 c-3 -9 -9 -27 -12 -41
-4 -13 -16 -28 -28 -32 -17 -7 -22 -3 -33 28 -7 19 -11 36 -10 37 1 1 16 6 32
12 44 15 58 14 51 -4z m-106 -81 c0 -31 2 -33 35 -33 l36 0 -16 -31 c-9 -16
-26 -34 -38 -38 -79 -29 -143 105 -74 154 19 13 23 13 39 -2 10 -9 18 -30 18
-50z m-1218 -43 c246 -29 290 -32 398 -25 114 6 279 33 334 54 35 14 40 10 32
-22 -7 -30 -50 -48 -179 -79 -135 -31 -416 -31 -572 0 -202 41 -245 59 -245
101 l0 27 69 -22 c39 -13 112 -28 163 -34z"/>
<path d="M3385 4241 c-3 -5 21 -26 54 -45 34 -21 68 -51 80 -71 21 -36 41 -46
41 -21 0 19 -41 76 -70 97 -37 27 -98 50 -105 40z"/>
<path d="M5054 4286 c-27 -20 -16 -26 57 -32 124 -10 134 -10 134 6 0 10 -19
18 -65 27 -85 16 -102 16 -126 -1z"/>
<path d="M5325 4240 c-3 -5 8 -44 25 -86 40 -100 39 -114 -4 -114 -39 0 -69
-26 -42 -36 22 -8 84 2 102 17 22 18 17 47 -22 142 -35 84 -46 98 -59 77z"/>
<path d="M5414 4216 c-9 -24 4 -48 23 -44 12 2 18 12 18 28 0 29 -32 41 -41
16z"/>
<path d="M5140 4199 c-10 -17 -9 -24 4 -37 15 -15 17 -15 33 1 13 13 15 21 7
34 -16 26 -31 26 -44 2z"/>
<path d="M5308 3943 c-41 -6 -88 -66 -88 -111 0 -42 5 -51 40 -75 30 -21 79
-22 107 -2 40 28 58 149 27 179 -15 16 -31 17 -86 9z m10 -123 c43 -26 40 -40
-8 -40 -29 0 -42 5 -50 19 -24 45 2 55 58 21z"/>
<path d="M5263 3706 c-13 -20 53 -35 91 -20 9 3 16 11 16 18 0 13 -99 16 -107
2z"/>
<path d="M5120 2599 c-191 -274 -402 -455 -558 -478 -32 -4 -47 -11 -47 -21 0
-28 83 -13 170 30 101 49 210 136 303 242 115 129 209 279 175 278 -5 0 -24
-23 -43 -51z"/>
<path d="M5785 4264 c-121 -112 -151 -151 -109 -142 21 5 274 240 274 255 0
31 -37 6 -165 -113z"/>
<path d="M6135 4281 c-389 -218 -476 -272 -462 -287 10 -11 89 31 400 208 199
114 259 158 215 158 -7 0 -76 -36 -153 -79z"/>
<path d="M5838 3911 c-135 -6 -166 -13 -138 -32 15 -9 502 -2 615 10 201 21
-131 36 -477 22z"/>
<path d="M5672 3783 c2 -12 93 -64 273 -155 280 -142 325 -160 325 -136 0 12
-571 309 -593 308 -5 0 -7 -8 -5 -17z"/>
<path d="M5620 3674 c0 -17 51 -70 192 -202 77 -72 98 -84 98 -58 0 15 -237
248 -270 266 -16 9 -20 8 -20 -6z"/>
</g>
</svg>
