<?xml version="1.0" standalone="no"?>
<!DOCTYPE svg PUBLIC "-//W3C//DTD SVG 20010904//EN"
 "http://www.w3.org/TR/2001/REC-SVG-20010904/DTD/svg10.dtd">
<svg version="1.0" xmlns="http://www.w3.org/2000/svg"
 width="1024.000000pt" height="559.000000pt" viewBox="0 0 1024.000000 559.000000"
 preserveAspectRatio="xMidYMid meet">
<metadata>
Created by potrace 1.16, written by Peter Selinger 2001-2019
</metadata>
<g transform="translate(0.000000,559.000000) scale(0.100000,-0.100000)"
fill="#000000" stroke="none">
<path d="M5635 5031 c-11 -5 -29 -18 -39 -30 -11 -12 -31 -21 -47 -21 -18 0
-35 -9 -49 -27 -11 -15 -34 -35 -51 -45 -16 -10 -34 -30 -40 -44 -5 -15 -21
-40 -35 -57 -18 -22 -25 -40 -23 -66 1 -20 -5 -50 -14 -68 -21 -40 -21 -62 -1
-92 12 -17 13 -26 5 -34 -14 -14 -14 -53 1 -80 7 -12 11 -32 9 -45 -1 -13 4
-34 13 -46 18 -29 5 -46 -35 -46 -39 0 -341 -76 -422 -107 -84 -31 -157 -99
-192 -178 -50 -113 -107 -560 -74 -581 18 -11 3 -88 -32 -156 -30 -60 -31 -64
-19 -113 9 -39 10 -57 1 -73 -6 -11 -11 -30 -11 -42 0 -12 -11 -36 -24 -53
-57 -77 -89 -165 -162 -446 -21 -80 -52 -188 -70 -240 -17 -52 -30 -100 -28
-106 3 -6 24 -21 48 -34 29 -16 42 -30 39 -40 -2 -9 -10 -66 -17 -127 -11 -96
-18 -118 -44 -156 -17 -25 -34 -58 -38 -74 -4 -16 -39 -63 -78 -104 -81 -86
-118 -155 -166 -310 -33 -106 -61 -168 -105 -229 -14 -19 -25 -47 -25 -63 0
-17 -8 -42 -19 -56 -26 -39 -32 -74 -16 -96 10 -12 11 -24 5 -36 -19 -36 -70
-285 -70 -343 1 -105 52 -139 206 -140 155 0 209 44 165 135 -45 95 -52 229
-13 271 11 12 24 36 28 52 4 17 20 45 35 62 24 28 49 87 49 116 0 16 88 144
167 242 44 55 107 143 139 195 32 52 75 113 96 136 38 42 64 94 136 274 l42
105 108 -4 c108 -3 213 10 287 36 l40 14 55 -58 c169 -177 192 -206 186 -236
-3 -16 -1 -37 4 -47 7 -13 3 -40 -16 -96 -33 -103 -39 -174 -25 -322 11 -115
11 -128 -10 -209 -15 -62 -20 -102 -15 -139 4 -32 1 -63 -5 -78 -9 -19 -8 -31
3 -53 12 -24 12 -35 2 -63 -13 -38 -18 -128 -8 -155 11 -27 59 -44 141 -51 43
-3 110 -16 148 -30 163 -56 282 -67 365 -36 38 15 45 22 48 48 4 39 -19 60
-126 114 -81 41 -96 52 -170 116 -32 28 -37 39 -43 95 -6 53 -4 69 11 90 23
32 25 52 16 109 -6 36 0 81 28 205 37 163 90 444 99 525 9 75 -10 139 -88 296
-42 83 -75 155 -74 160 1 5 1 16 0 25 -2 24 -123 230 -200 340 -39 55 -71 109
-71 121 0 12 -9 31 -20 43 -12 12 -23 40 -27 61 -3 21 -12 47 -20 56 -14 15
-11 21 26 57 44 43 47 52 55 156 4 45 14 84 28 111 38 69 123 203 128 204 4 0
12 -16 19 -35 17 -48 39 -68 67 -61 21 6 29 -2 61 -56 50 -81 98 -135 152
-170 74 -47 118 -35 176 47 60 83 76 142 85 314 13 228 16 238 67 296 47 52
123 191 123 224 0 11 5 23 11 27 14 8 5 114 -11 145 -6 11 -13 43 -15 71 -5
75 -17 81 -140 74 -85 -4 -276 -43 -306 -61 -13 -9 -11 2 6 35 8 15 18 55 21
87 4 32 15 70 25 85 11 14 19 36 19 49 0 13 11 32 26 44 40 32 64 145 41 191
-8 16 -12 34 -10 41 5 14 -24 73 -36 73 -5 0 -18 17 -28 38 -13 25 -30 40 -51
47 -18 5 -32 13 -32 17 0 19 -46 48 -78 48 -19 0 -45 9 -59 20 -28 22 -73 26
-103 10 -13 -7 -26 -5 -47 5 -31 17 -39 17 -68 6z m74 -38 c19 -13 28 -14 42
-5 31 20 87 15 101 -8 9 -14 24 -20 50 -20 34 0 68 -20 68 -41 0 -5 8 -9 18
-9 25 0 62 -28 62 -47 0 -8 14 -28 31 -44 20 -18 30 -36 28 -51 -2 -13 2 -33
9 -45 15 -26 16 -79 2 -88 -5 -3 -10 -19 -10 -34 0 -16 -6 -34 -14 -40 -11 -9
-14 -5 -18 23 -2 19 2 42 9 52 21 29 16 50 -5 24 -19 -24 -42 -20 -42 6 0 20
-14 18 -35 -6 -24 -27 -39 -25 -65 7 -16 20 -23 24 -32 15 -23 -23 -63 -14
-82 19 -16 27 -20 29 -28 15 -13 -23 -55 -20 -68 4 -15 29 -30 25 -30 -9 0
-31 -14 -47 -45 -53 -14 -2 -21 -12 -23 -36 -2 -21 -12 -38 -27 -48 -13 -9
-25 -27 -27 -41 -5 -39 -25 -39 -32 1 -17 89 -95 116 -131 45 -19 -35 -18 -92
0 -144 10 -28 11 -43 3 -52 -18 -23 -41 5 -35 43 4 22 1 37 -9 45 -16 13 -19
65 -4 74 6 4 4 17 -5 35 -20 39 -19 66 5 90 16 16 18 24 9 50 -9 24 -8 35 6
56 9 14 23 28 31 31 8 3 14 14 14 26 0 26 28 57 51 57 10 0 21 9 24 20 10 30
34 50 62 50 14 0 38 11 55 25 35 29 55 31 87 8z m76 -313 c14 5 26 0 43 -17
18 -20 29 -24 55 -19 20 3 39 0 51 -9 24 -18 58 -19 74 -3 23 23 42 -10 42
-73 0 -55 -2 -60 -27 -70 -14 -5 -31 -8 -37 -6 -6 2 -18 -8 -27 -23 -14 -22
-16 -44 -11 -115 4 -77 3 -90 -13 -101 -15 -11 -22 -11 -44 1 -14 7 -34 16
-45 19 -12 4 -17 13 -13 26 3 11 1 18 -4 14 -18 -10 -9 -43 14 -50 12 -3 29
-13 39 -21 9 -8 29 -13 44 -11 36 4 46 39 40 133 -3 39 -3 62 0 53 6 -19 34
-25 34 -8 0 6 4 10 9 10 16 0 -1 -94 -26 -146 -20 -41 -34 -55 -67 -70 -49
-21 -82 -19 -143 7 -25 11 -48 18 -50 16 -5 -6 93 -47 111 -47 34 0 6 -40 -28
-41 -19 0 -19 -1 -3 -8 10 -3 27 -26 37 -49 l19 -42 -23 -15 c-16 -11 -36 -13
-72 -8 -43 5 -58 14 -118 72 -107 103 -126 133 -126 203 0 37 -4 57 -10 53 -5
-3 -10 -35 -10 -69 0 -71 7 -83 94 -173 27 -29 48 -54 45 -57 -2 -2 -23 -13
-46 -25 -24 -12 -43 -24 -43 -27 0 -3 5 -2 10 1 6 3 10 -2 10 -11 0 -15 4 -14
25 6 36 34 43 16 7 -20 -36 -35 -68 -38 -127 -11 -85 38 -173 169 -183 270
l-4 49 43 19 c24 11 58 34 76 52 26 28 34 31 51 22 21 -11 52 -5 52 9 0 5 -10
10 -22 12 -28 4 -67 77 -68 125 -1 73 47 116 82 73 10 -12 18 -35 18 -50 0
-35 22 -54 55 -46 23 6 29 18 28 53 0 7 7 15 17 18 18 6 40 45 40 70 0 8 7 15
15 15 8 0 22 11 31 24 12 20 20 23 37 17 12 -5 31 -5 42 -1z m253 -232 c-5
-15 -78 -24 -78 -9 0 10 22 18 58 20 15 1 22 -4 20 -11z m-723 -148 c-3 -5
-12 -10 -18 -10 -7 0 -6 4 3 10 19 12 23 12 15 0z m-43 -56 c-10 -125 98 -289
215 -328 65 -22 104 -15 138 26 14 16 25 33 25 36 0 4 4 13 9 20 7 11 15 11
46 -2 47 -20 124 -21 151 -2 19 14 23 12 52 -19 20 -20 41 -61 56 -106 13 -41
23 -75 22 -75 0 -1 -32 4 -71 11 -38 7 -60 13 -48 14 86 4 114 81 29 81 -22 0
-59 -5 -81 -10 -31 -7 -41 -6 -48 6 -4 7 -13 14 -19 14 -17 0 -147 -141 -210
-226 -48 -67 -61 -77 -138 -114 -109 -54 -210 -87 -285 -94 -44 -5 -54 -4 -37
4 20 9 22 16 22 102 1 66 6 109 20 148 11 30 19 66 19 80 0 14 -8 -3 -16 -37
-9 -35 -19 -63 -23 -63 -4 0 -8 6 -7 13 0 6 -1 37 -2 67 -2 41 -5 50 -11 35
-5 -11 -9 -85 -9 -164 l-1 -143 -22 6 c-107 31 -239 30 -338 -4 -30 -10 -56
-18 -57 -17 -4 4 48 395 58 442 16 69 52 138 96 181 50 51 134 86 293 124 109
26 167 42 176 49 0 1 -1 -24 -4 -55z m1139 26 c38 -21 8 -145 -35 -145 -10 0
-24 -8 -30 -17 -10 -17 -10 -21 20 -93 6 -15 -1 -12 -29 13 -21 17 -41 32 -46
32 -18 0 -33 -31 -27 -55 6 -22 3 -25 -19 -25 -34 0 -146 -38 -167 -57 -14
-13 -21 -12 -60 8 -23 12 -58 33 -75 46 -34 26 -93 113 -93 138 0 65 481 198
561 155z m49 -180 c7 -33 10 -63 7 -66 -11 -12 -49 78 -43 102 10 40 23 27 36
-36z m-25 -72 c13 -46 13 -51 -8 -91 l-22 -42 -10 75 c-6 41 -17 85 -24 98 -7
13 -10 31 -7 39 10 26 54 -23 71 -79z m-59 -70 c30 -58 20 -94 -56 -183 -38
-46 -66 -85 -61 -87 6 -2 5 -73 -1 -173 -11 -189 -26 -251 -83 -341 -36 -56
-64 -71 -109 -60 -44 11 -129 101 -180 190 l-48 86 28 23 c41 33 138 97 147
97 4 0 -4 -22 -17 -49 -26 -51 -47 -159 -29 -148 6 4 13 24 16 44 4 21 27 74
52 118 64 111 107 244 103 315 -3 67 2 76 49 83 44 8 73 -12 67 -46 -2 -12 -2
-17 2 -10 3 7 12 9 20 6 21 -8 7 25 -28 65 -41 48 -35 88 7 42 10 -11 22 -20
27 -20 4 0 22 -15 39 -32 23 -26 28 -28 19 -10 -6 13 -9 30 -6 39 4 8 -8 39
-25 69 -16 30 -27 59 -24 65 9 13 70 -43 91 -83z m-90 3 c-5 -7 -15 -7 -33 2
l-26 12 24 6 c27 7 45 -4 35 -20z m-86 -11 c-6 -11 -19 -20 -28 -20 -10 0 -34
-9 -55 -19 -22 -11 -40 -15 -43 -9 -9 14 6 26 62 48 66 26 78 26 64 0z m-142
-71 c7 -11 21 -19 31 -19 29 0 36 -73 15 -149 -18 -63 -27 -74 -39 -43 -19 50
-85 245 -85 253 0 14 63 -21 78 -42z m147 31 c6 -9 -5 -13 -75 -25 -43 -7 -29
9 20 23 47 13 48 14 55 2z m-455 -21 c0 -12 -29 -38 -43 -39 -4 0 0 11 10 25
19 26 33 32 33 14z m178 -11 c-3 -7 -28 -20 -56 -28 -53 -16 -151 -69 -152
-82 0 -4 33 2 73 13 67 19 151 20 179 3 23 -14 -18 -34 -68 -34 -50 0 -164
-36 -164 -51 0 -4 37 -6 83 -5 91 1 140 -8 134 -27 -2 -7 -35 -14 -88 -17 -46
-3 -93 -11 -104 -18 -11 -6 -18 -12 -15 -12 3 0 40 -2 83 -4 42 -1 80 -6 83
-9 15 -14 -11 -25 -76 -31 -63 -7 -75 -11 -117 -47 -65 -57 -85 -69 -142 -84
-34 -9 -86 -38 -153 -87 -225 -163 -307 -208 -451 -247 -103 -28 -132 -27
-162 5 -40 43 -85 220 -85 335 l0 57 51 12 c52 13 196 9 232 -5 34 -14 19 -41
-36 -63 -30 -13 -67 -36 -83 -53 l-29 -30 57 29 c56 30 76 35 248 68 85 16
228 74 304 123 22 14 70 66 107 115 58 76 78 95 141 129 73 41 114 54 176 56
23 1 32 -3 30 -11z m131 -301 c-6 -13 -33 -33 -61 -46 -27 -12 -88 -52 -135
-88 -47 -35 -86 -63 -87 -61 -1 2 -10 22 -21 46 -18 41 -18 43 1 77 20 38 24
40 99 50 28 3 57 8 67 11 21 6 31 33 18 49 -8 10 -6 15 9 20 12 3 25 15 31 25
13 24 -3 36 -71 52 l-54 12 57 6 c31 3 63 11 70 18 20 20 91 -140 77 -171z
m-1359 -87 c0 -5 -2 -10 -4 -10 -3 0 -8 5 -11 10 -3 6 -1 10 4 10 6 0 11 -4
11 -10z m1000 -29 c0 -4 -44 -75 -98 -157 -119 -180 -156 -247 -84 -150 l22
29 0 -44 c-1 -80 -16 -132 -45 -155 -35 -28 -131 -57 -175 -52 -34 3 -34 3 28
27 34 13 65 27 68 32 5 9 -33 -4 -126 -41 -65 -26 -191 -29 -256 -6 -59 21
-145 65 -174 90 -19 17 -21 17 -10 2 14 -18 13 -18 -10 -12 -73 22 -147 74
-191 135 -45 62 -46 113 -3 155 10 10 19 41 23 73 8 79 27 79 36 1 8 -78 40
-210 61 -251 24 -46 63 -77 97 -77 16 0 56 7 88 15 58 15 59 15 98 -10 44 -30
121 -56 160 -54 18 1 12 4 -17 10 -46 9 -162 58 -162 68 0 4 26 16 57 26 73
25 150 72 330 201 80 57 156 104 167 104 18 0 43 11 114 49 1 0 2 -3 2 -8z
m-1025 -370 c42 -39 132 -91 157 -91 6 0 56 -21 110 -46 65 -30 120 -49 161
-54 70 -8 264 3 315 19 48 14 30 -7 -27 -32 -98 -44 -379 -31 -529 25 -74 28
-184 94 -223 134 -25 26 -30 38 -25 58 3 14 9 26 13 26 3 0 25 -18 48 -39z
m-50 -71 c16 -18 17 -22 3 -37 -17 -20 -48 -78 -48 -90 0 -4 14 16 30 45 33
56 45 62 76 35 25 -23 134 -76 197 -97 172 -57 426 -61 536 -8 l39 19 11 -24
c6 -13 11 -34 11 -47 0 -13 9 -31 20 -41 11 -10 20 -28 20 -40 0 -12 12 -40
28 -62 96 -138 154 -228 194 -300 l46 -82 -36 -7 c-61 -11 -169 -52 -317 -121
-77 -36 -183 -76 -235 -90 -85 -22 -110 -24 -230 -20 -149 5 -232 23 -390 84
-116 44 -250 110 -250 123 0 5 13 48 29 97 17 48 52 176 79 283 52 205 81 287
125 358 31 48 37 50 62 22z m1234 -918 c97 -194 112 -251 87 -337 -10 -33 -26
-76 -37 -97 -10 -20 -19 -41 -19 -45 1 -4 10 9 21 30 11 22 22 37 24 35 2 -2
-2 -30 -9 -63 -7 -33 -18 -89 -25 -125 -7 -36 -26 -126 -42 -200 -25 -108 -30
-151 -27 -213 4 -68 2 -82 -16 -105 -16 -21 -21 -39 -19 -84 2 -66 1 -66 -124
-88 -58 -11 -80 -11 -117 0 -58 16 -70 30 -60 72 4 18 6 61 5 96 -1 38 4 82
14 112 13 40 16 85 13 252 -3 200 -3 204 25 290 23 68 26 90 18 106 -9 16 -7
24 5 37 15 14 12 20 -32 73 -27 31 -86 96 -132 144 -78 80 -83 87 -64 97 29
16 50 14 80 -8 31 -22 132 -73 132 -67 0 2 -34 23 -75 47 -41 23 -75 46 -75
49 0 7 112 61 218 104 52 22 112 41 144 45 5 1 44 -70 87 -157z m-1380 43 c63
-31 283 -105 316 -105 16 0 25 -6 25 -15 0 -8 -28 -84 -62 -168 -69 -167 -94
-200 -209 -275 -94 -62 -97 -64 -26 -28 37 20 67 33 67 29 0 -17 -102 -167
-178 -262 -111 -139 -147 -195 -167 -265 -9 -32 -30 -72 -45 -90 -16 -18 -32
-45 -36 -62 -11 -48 -23 -56 -68 -49 -80 12 -135 36 -166 71 -35 40 -38 71
-10 116 11 18 20 44 20 58 0 14 19 52 40 85 27 40 56 107 86 200 57 174 81
219 167 311 39 42 73 89 82 114 8 23 23 53 34 66 27 35 38 73 51 192 7 56 16
102 21 102 6 0 31 -11 58 -25z m-545 -1264 c25 -22 108 -51 147 -51 l27 0 4
-92 c3 -74 10 -105 31 -152 45 -98 25 -116 -132 -116 -86 0 -102 3 -132 23
-30 20 -34 28 -37 75 -4 67 49 332 66 332 3 0 15 -8 26 -19z m1986 -184 c19
-14 69 -42 110 -62 121 -60 137 -85 73 -112 -62 -25 -186 -13 -313 31 -73 26
-130 39 -188 43 -110 8 -116 14 -108 112 3 41 7 76 9 78 2 1 19 -2 38 -7 50
-15 105 -12 184 9 l70 18 45 -42 c25 -23 61 -54 80 -68z"/>
<path d="M6028 4792 c9 -10 19 -17 21 -16 6 5 -20 34 -30 34 -5 0 -1 -8 9 -18z"/>
<path d="M5452 4558 c-6 -6 -12 -19 -11 -27 0 -11 4 -8 11 7 14 28 30 24 39
-9 4 -17 0 -29 -14 -40 -16 -13 -17 -19 -8 -37 7 -12 16 -22 21 -22 6 0 5 8
-2 19 -10 16 -9 23 3 38 32 37 -5 105 -39 71z"/>
<path d="M5716 4537 c-15 -11 -12 -12 21 -13 24 0 54 -10 80 -27 44 -28 68
-34 77 -18 8 12 -106 71 -137 71 -13 0 -31 -6 -41 -13z"/>
<path d="M5916 4495 c-9 -26 -7 -32 5 -12 6 10 9 21 6 23 -2 3 -7 -2 -11 -11z"/>
<path d="M5726 4462 c-2 -4 11 -6 30 -4 27 3 33 1 28 -11 -8 -22 17 -33 31
-14 7 9 14 16 16 14 2 -1 -2 4 -10 11 -16 13 -87 17 -95 4z"/>
<path d="M5590 4374 c0 -5 7 -18 15 -28 8 -11 15 -16 15 -10 0 5 -7 18 -15 28
-8 11 -15 16 -15 10z"/>
<path d="M5690 4245 c-6 -8 -10 -19 -8 -24 1 -6 8 1 15 14 13 28 11 31 -7 10z"/>
<path d="M5464 4095 c0 -49 1 -71 3 -48 2 23 2 64 0 90 -2 26 -3 8 -3 -42z"/>
<path d="M4967 4090 c24 -24 54 -66 68 -94 14 -28 23 -40 19 -26 -15 57 -67
131 -108 151 -11 7 -2 -8 21 -31z"/>
<path d="M5240 4075 c0 -5 5 -17 10 -25 5 -8 10 -10 10 -5 0 6 -5 17 -10 25
-5 8 -10 11 -10 5z"/>
<path d="M5279 3994 c11 -22 27 -47 36 -54 16 -13 8 1 -43 76 -7 11 -3 1 7
-22z"/>
<path d="M5646 3888 c-9 -13 -33 -33 -54 -45 -20 -13 -32 -23 -26 -23 17 0 75
43 92 68 19 29 8 29 -12 0z"/>
<path d="M5518 3813 c6 -2 18 -2 25 0 6 3 1 5 -13 5 -14 0 -19 -2 -12 -5z"/>
<path d="M6323 4243 c15 -2 39 -2 55 0 15 2 2 4 -28 4 -30 0 -43 -2 -27 -4z"/>
<path d="M6175 4224 c-76 -18 -188 -55 -182 -60 2 -2 31 5 65 17 33 11 101 29
149 39 48 10 75 19 58 18 -16 0 -57 -6 -90 -14z"/>
<path d="M5920 4135 c-25 -13 -40 -24 -35 -24 6 0 30 11 55 24 25 13 41 24 35
24 -5 0 -30 -11 -55 -24z"/>
<path d="M6184 3808 l-19 -23 23 19 c12 11 22 21 22 23 0 8 -8 2 -26 -19z"/>
<path d="M6161 3738 c-1 -23 9 -48 21 -48 7 0 7 4 0 13 -5 6 -12 21 -15 32 -3
15 -5 16 -6 3z"/>
<path d="M6141 3634 c0 -11 3 -14 6 -6 3 7 2 16 -1 19 -3 4 -6 -2 -5 -13z"/>
<path d="M5659 3733 c-13 -17 -13 -17 6 -3 11 8 22 16 24 17 2 2 0 3 -6 3 -6
0 -17 -8 -24 -17z"/>
<path d="M5675 3670 c-3 -5 -2 -10 4 -10 5 0 13 5 16 10 3 6 2 10 -4 10 -5 0
-13 -4 -16 -10z"/>
<path d="M5448 3409 c-21 -11 -38 -22 -38 -24 0 -3 18 4 40 15 22 11 40 23 40
25 0 7 0 7 -42 -16z"/>
<path d="M4824 3213 c15 -18 29 -23 60 -21 l41 1 -40 4 c-22 3 -49 12 -60 21
-20 17 -20 17 -1 -5z"/>
<path d="M4631 3083 c17 -25 83 -80 114 -94 11 -6 7 0 -10 13 -16 12 -50 41
-74 63 -25 22 -38 30 -30 18z"/>
<path d="M4671 2876 c-28 -76 -44 -142 -38 -158 3 -7 6 -2 7 12 0 14 14 63 30
109 33 95 34 124 1 37z"/>
<path d="M5351 2785 c-71 -45 -78 -55 -13 -20 29 16 57 34 63 42 15 17 13 16
-50 -22z"/>
<path d="M4900 2725 c14 -8 30 -14 35 -14 6 0 -1 6 -15 14 -14 8 -29 14 -35
14 -5 0 1 -6 15 -14z"/>
<path d="M5374 2699 c-65 -69 -286 -196 -372 -214 -18 -4 -31 -9 -28 -12 8 -9
119 28 190 63 99 50 260 174 244 189 -2 3 -18 -9 -34 -26z"/>
<path d="M4980 2695 c19 -7 42 -13 50 -13 8 0 -1 6 -20 13 -19 7 -42 13 -50
13 -8 0 1 -6 20 -13z"/>
<path d="M5063 2673 c9 -2 23 -2 30 0 6 3 -1 5 -18 5 -16 0 -22 -2 -12 -5z"/>
<path d="M5445 2654 c-9 -15 -12 -23 -6 -20 11 7 35 46 28 46 -3 0 -12 -12
-22 -26z"/>
<path d="M5318 2477 c-61 -71 -179 -160 -280 -213 -46 -24 -78 -44 -73 -44 17
0 148 70 200 108 61 44 160 137 187 175 30 41 18 32 -34 -26z"/>
<path d="M5584 1986 c11 -9 24 -16 30 -16 12 0 7 5 -24 19 -24 11 -24 11 -6
-3z"/>
<path d="M5663 1763 c9 -2 23 -2 30 0 6 3 -1 5 -18 5 -16 0 -22 -2 -12 -5z"/>
<path d="M5678 1693 c7 -3 16 -2 19 1 4 3 -2 6 -13 5 -11 0 -14 -3 -6 -6z"/>
<path d="M5715 1359 c-11 -23 -45 -79 -76 -125 -32 -46 -56 -84 -53 -84 18 0
163 235 151 246 -2 2 -12 -14 -22 -37z"/>
<path d="M5630 990 c8 -5 24 -10 34 -10 26 0 18 6 -19 14 -22 5 -26 4 -15 -4z"/>
<path d="M5700 930 c-8 -5 -10 -10 -5 -10 6 0 17 5 25 10 8 5 11 10 5 10 -5 0
-17 -5 -25 -10z"/>
<path d="M5600 910 l-45 -7 45 -1 c25 0 54 3 65 8 l20 9 -20 -1 c-11 -1 -40
-4 -65 -8z"/>
<path d="M5554 866 c11 -9 31 -16 45 -15 24 1 24 2 -5 8 -17 4 -37 11 -45 15
-8 4 -5 0 5 -8z"/>
<path d="M5716 873 c-3 -4 -25 -10 -49 -14 -41 -6 -41 -7 -7 -7 19 -1 46 5 60
13 14 8 20 14 14 15 -6 0 -14 -3 -18 -7z"/>
<path d="M4385 1830 c7 -52 25 -124 30 -118 2 2 -5 39 -16 83 -11 48 -17 62
-14 35z"/>
<path d="M4333 1760 c0 -25 2 -35 4 -22 2 12 2 32 0 45 -2 12 -4 2 -4 -23z"/>
<path d="M4265 1323 c-33 -25 -91 -63 -130 -84 -38 -21 -66 -39 -61 -39 26 0
256 148 256 166 0 6 -1 6 -65 -43z"/>
<path d="M4010 1117 c-1 -38 79 -108 122 -107 7 1 -8 10 -33 21 -31 14 -53 32
-67 57 -12 20 -22 33 -22 29z"/>
<path d="M4024 995 c22 -17 79 -30 98 -22 7 3 0 6 -15 6 -15 1 -44 8 -65 16
-32 13 -35 13 -18 0z"/>
<path d="M3966 966 c8 -21 61 -52 102 -59 45 -9 40 0 -8 13 -21 6 -53 22 -70
36 -19 16 -28 20 -24 10z"/>
<path d="M3961 609 c-53 -16 -32 -18 34 -4 36 8 48 13 30 13 -16 0 -45 -4 -64
-9z"/>
<path d="M4075 600 c27 -12 43 -12 25 0 -8 5 -22 9 -30 9 -10 0 -8 -3 5 -9z"/>
<path d="M6299 4514 c-7 -9 -43 -31 -79 -49 -48 -24 -71 -43 -85 -69 -11 -19
-16 -38 -12 -42 4 -4 7 0 7 8 0 28 41 68 99 97 47 24 106 71 89 71 -3 0 -11
-7 -19 -16z"/>
<path d="M6345 4419 c-27 -10 -41 -18 -30 -18 11 0 38 8 60 18 50 24 36 24
-30 0z"/>
<path d="M6249 4379 l-24 -20 30 17 c39 24 40 24 28 24 -6 0 -21 -9 -34 -21z"/>
</g>
</svg>
