<?xml version="1.0" standalone="no"?>
<!DOCTYPE svg PUBLIC "-//W3C//DTD SVG 20010904//EN"
 "http://www.w3.org/TR/2001/REC-SVG-20010904/DTD/svg10.dtd">
<svg version="1.0" xmlns="http://www.w3.org/2000/svg"
 width="1024.000000pt" height="559.000000pt" viewBox="0 0 1024.000000 559.000000"
 preserveAspectRatio="xMidYMid meet">
<metadata>
Created by potrace 1.16, written by Peter Selinger 2001-2019
</metadata>
<g transform="translate(0.000000,559.000000) scale(0.100000,-0.100000)"
fill="#000000" stroke="none">
<path d="M5845 5056 c-12 -8 -32 -12 -51 -9 -34 6 -72 -10 -92 -39 -7 -10 -20
-18 -28 -18 -29 0 -74 -31 -80 -54 -3 -13 -16 -29 -29 -36 -27 -14 -45 -50
-45 -87 0 -15 -8 -35 -17 -46 -13 -13 -19 -39 -20 -86 -5 -168 -3 -203 17
-238 26 -45 11 -54 -107 -58 -95 -3 -98 -2 -133 26 -19 16 -39 29 -45 29 -10
1 -85 105 -85 119 0 5 8 11 18 13 27 8 56 70 48 104 -22 89 -279 257 -428 279
-41 6 -49 4 -79 -23 -31 -27 -34 -35 -33 -81 l2 -50 -38 25 c-27 18 -52 26
-83 26 -108 0 -167 -72 -261 -322 -50 -132 -66 -156 -129 -185 -29 -14 -69
-39 -90 -56 -76 -62 -192 -266 -252 -444 -18 -52 -38 -89 -58 -107 -27 -26
-29 -32 -23 -76 4 -26 8 -130 9 -232 2 -135 8 -207 21 -264 16 -75 17 -82 1
-117 -16 -34 -16 -39 0 -73 38 -81 179 -166 286 -174 58 -4 58 -4 97 46 10 14
35 27 62 33 24 6 81 27 126 48 l82 39 -24 -52 c-28 -62 -55 -167 -84 -331 -12
-66 -35 -176 -51 -244 -39 -165 -39 -164 17 -186 38 -14 45 -21 40 -39 -2 -11
-8 -75 -12 -141 -6 -113 -8 -122 -35 -153 -16 -18 -29 -44 -29 -58 0 -18 -19
-47 -59 -90 -80 -88 -114 -157 -165 -337 -44 -155 -63 -201 -97 -246 -11 -14
-19 -40 -19 -62 0 -21 -9 -53 -20 -71 -22 -37 -25 -66 -10 -100 9 -18 4 -44
-23 -128 -56 -173 -62 -202 -46 -236 18 -38 73 -64 158 -75 96 -12 179 3 209
36 27 32 28 58 3 127 -11 29 -22 77 -25 106 -6 49 -5 55 18 73 15 12 28 35 32
57 4 20 19 52 35 69 15 18 31 50 34 70 16 92 61 177 184 342 32 43 81 124 109
179 29 55 67 118 85 140 29 35 78 152 157 376 6 17 15 19 61 17 80 -3 213 16
304 44 l79 24 136 -134 c130 -129 136 -136 137 -177 1 -24 2 -50 2 -58 1 -8
-8 -51 -20 -95 -22 -84 -22 -83 -3 -386 5 -77 3 -108 -11 -149 -11 -34 -15
-65 -11 -93 4 -23 6 -53 5 -67 -1 -24 -1 -69 2 -127 0 -16 -2 -58 -6 -95 -6
-53 -4 -72 8 -91 18 -28 81 -47 156 -47 30 0 85 -12 134 -28 112 -39 206 -56
285 -50 81 7 120 23 128 55 10 39 -21 70 -119 119 -98 49 -118 63 -183 124
-38 35 -42 44 -48 104 -5 52 -3 71 10 91 13 20 15 38 9 95 -6 57 -1 102 24
238 48 258 81 482 81 543 0 47 -8 73 -49 157 -28 56 -70 137 -95 180 -26 43
-46 90 -46 103 0 29 -76 146 -201 310 -49 64 -89 123 -89 131 0 9 -13 32 -30
53 -16 21 -30 44 -30 52 0 8 -8 28 -17 43 -14 24 -14 31 -3 45 12 14 16 13 42
-11 15 -15 28 -33 28 -40 0 -6 6 -17 14 -23 7 -6 16 -30 20 -52 11 -69 145
-179 218 -179 14 0 43 7 64 16 31 13 45 14 77 4 24 -7 60 -9 95 -4 145 18 273
129 304 264 11 46 15 52 56 70 57 25 189 143 210 187 12 25 13 40 6 61 -8 21
-6 35 9 65 29 57 18 93 -58 177 -36 40 -65 81 -65 92 0 36 -32 88 -73 118 -45
33 -87 38 -127 15 -14 -8 -37 -14 -51 -15 -23 0 -30 8 -48 53 -11 28 -30 90
-42 137 -13 52 -34 105 -55 137 -19 29 -34 55 -34 59 0 3 36 58 79 122 57 85
82 132 91 172 7 30 23 68 36 83 13 16 24 38 24 50 0 13 9 26 22 32 12 6 24 17
28 25 4 8 16 34 28 57 19 37 21 52 16 115 -4 40 -13 83 -20 95 -8 12 -14 30
-14 38 0 9 -17 34 -37 56 -21 22 -46 48 -55 59 -10 11 -29 20 -42 20 -14 0
-38 13 -55 31 -25 25 -38 30 -69 28 -23 -2 -47 4 -62 14 -30 21 -79 22 -105 3z
m95 -31 c17 -19 27 -22 41 -15 30 17 49 11 82 -22 18 -18 36 -31 41 -30 17 5
65 -20 71 -37 3 -10 19 -27 35 -39 17 -13 30 -32 30 -44 0 -12 8 -30 17 -41
11 -11 19 -39 21 -70 4 -86 3 -101 -13 -110 -8 -4 -15 -18 -15 -30 0 -22 -16
-47 -30 -47 -12 0 2 69 16 81 8 6 14 20 14 31 0 19 -1 19 -18 -3 -21 -25 -56
-21 -46 6 8 19 1 19 -36 0 -28 -14 -31 -14 -50 5 -11 11 -20 25 -20 31 0 8 -4
8 -14 0 -27 -22 -70 -9 -86 27 -14 29 -17 31 -31 17 -20 -20 -48 -10 -60 21
-11 31 -29 31 -29 1 0 -32 -20 -55 -50 -59 -19 -2 -26 -10 -30 -33 -3 -20 -14
-34 -33 -43 -18 -9 -27 -21 -27 -37 0 -27 -15 -41 -26 -24 -4 7 -8 28 -10 47
-4 40 -38 82 -67 82 -10 0 -32 -14 -49 -32 -29 -31 -30 -35 -25 -103 3 -38 7
-79 9 -89 5 -31 -18 -29 -32 3 -8 21 -9 35 -2 48 8 13 6 25 -6 45 -15 26 -15
30 0 56 11 19 14 33 8 42 -17 26 -11 76 10 95 13 12 20 31 20 56 0 35 28 79
51 79 4 0 12 14 18 30 10 30 49 54 73 45 7 -3 21 9 31 26 16 30 20 31 63 26
37 -4 50 -1 65 14 26 26 61 24 89 -6z m-1107 -116 c117 -39 266 -137 317 -209
36 -50 8 -110 -51 -110 -22 0 -39 -10 -62 -35 l-32 -35 -98 66 c-103 70 -207
161 -207 182 0 7 23 -6 51 -28 60 -47 153 -100 227 -129 73 -29 65 -17 -12 18
-133 60 -286 178 -286 221 0 24 17 61 34 72 19 13 54 9 119 -13z m-226 -104
c19 -13 23 -22 19 -40 -3 -13 -2 -35 4 -49 5 -15 6 -36 1 -48 -7 -21 -9 -20
-20 14 -25 75 -88 95 -135 42 -36 -40 -77 -121 -116 -234 -18 -52 -40 -101
-48 -107 -9 -7 -31 -13 -49 -13 l-34 0 20 28 c11 15 41 81 66 147 69 179 113
248 175 274 32 13 85 7 117 -14z m66 -73 c-3 -12 -9 -19 -14 -16 -11 6 -12 48
-2 58 11 11 23 -18 16 -42z m52 -53 c-3 -5 0 -6 7 -4 18 7 71 -49 66 -70 -3
-15 -6 -15 -30 5 -16 12 -28 28 -28 36 0 8 -5 12 -11 9 -18 -12 -49 26 -49 59
l1 31 24 -28 c14 -16 23 -33 20 -38z m-138 -19 c15 -50 11 -59 -61 -148 -49
-61 -125 -122 -153 -122 -20 0 -22 -6 47 175 28 73 62 128 92 149 31 22 59 2
75 -54z m1343 46 c14 -1 33 -11 43 -23 13 -16 29 -23 53 -23 20 0 47 -9 64
-21 19 -15 36 -20 53 -16 13 4 31 1 40 -6 15 -10 16 -20 6 -74 -11 -60 -13
-63 -39 -63 -16 0 -36 -3 -44 -6 -12 -5 -15 -2 -10 12 3 11 -3 6 -14 -11 -12
-19 -24 -63 -30 -118 -12 -95 -16 -107 -37 -107 -24 0 -94 52 -88 66 3 8 10
14 16 14 6 0 7 3 4 6 -9 9 -37 -15 -37 -31 0 -12 90 -75 107 -75 26 0 43 40
49 114 4 42 11 79 15 82 5 3 9 -2 9 -11 0 -13 6 -16 25 -11 22 6 23 4 15 -21
-4 -16 -11 -40 -14 -55 -6 -27 -138 -231 -179 -275 -49 -54 -145 -13 -229 97
-79 102 -92 132 -85 194 5 49 5 50 -8 21 -31 -67 -6 -140 85 -252 l50 -62 -34
-12 c-20 -7 -37 -21 -40 -33 -8 -29 -1 -31 30 -7 30 24 40 22 26 -6 -53 -99
-192 -61 -259 71 -32 62 -56 179 -48 228 6 32 13 40 48 56 23 10 56 35 73 54
20 23 35 33 41 27 11 -11 43 -2 43 12 0 4 -6 6 -13 3 -21 -8 -37 19 -49 84 -8
46 -8 67 1 89 30 74 91 58 91 -24 0 -36 4 -45 23 -52 30 -12 57 4 57 34 0 14
5 25 12 25 20 0 48 32 48 57 0 18 5 23 25 23 14 0 30 9 37 20 8 13 19 18 28
14 8 -4 26 -7 40 -8z m-1074 -190 c114 -76 108 -69 91 -103 -11 -20 -27 -32
-59 -40 -24 -7 -66 -28 -94 -47 -27 -20 -107 -75 -178 -123 -83 -57 -133 -97
-139 -113 -5 -14 -30 -41 -55 -60 -173 -133 -266 -262 -267 -371 0 -35 5 -63
14 -73 42 -50 267 -136 357 -136 19 0 34 -3 34 -7 0 -4 -18 -37 -40 -74 -22
-37 -40 -79 -40 -92 0 -20 -4 -24 -20 -20 -11 3 -34 0 -50 -7 -28 -12 -37 -9
-120 33 -144 74 -315 196 -398 286 -51 55 -92 117 -92 140 0 42 72 238 123
333 122 231 185 281 390 308 68 9 91 17 137 48 62 43 134 127 180 213 l32 60
52 -48 c29 -26 92 -75 142 -107z m22 33 l4 -23 -34 26 c-18 14 -35 36 -36 49
l-4 23 34 -26 c18 -14 35 -36 36 -49z m53 -10 c16 -11 29 -28 29 -37 0 -12 3
-13 8 -5 6 9 18 6 46 -14 32 -21 36 -27 23 -35 -25 -13 -147 69 -147 99 0 18
7 16 41 -8z m162 1 c-3 -11 -9 -17 -14 -14 -14 8 -10 34 5 34 9 0 12 -7 9 -20z
m33 -27 c7 -10 13 -29 13 -43 l1 -25 -20 25 c-19 24 -27 60 -14 60 4 0 13 -8
20 -17z m-60 -10 c20 -27 16 -38 -6 -18 -20 18 -26 35 -14 35 4 0 13 -8 20
-17z m97 -46 c3 -8 1 -20 -4 -28 -6 -10 -9 -7 -9 14 0 29 5 35 13 14z m990
-18 c-8 -8 -19 -8 -40 -1 -28 10 -28 10 12 11 28 1 36 -2 28 -10z m-1028 -45
c51 -52 55 -63 20 -57 -24 5 -65 53 -45 53 6 0 9 4 5 10 -3 5 -12 7 -20 3 -16
-5 -45 13 -45 28 0 24 46 4 85 -37z m-100 6 c4 -6 -7 -10 -24 -10 -33 0 -34 1
-25 24 5 12 11 13 24 6 11 -6 22 -15 25 -20z m169 4 c4 -9 4 -19 1 -22 -7 -8
-35 19 -29 29 8 14 21 11 28 -7z m54 -21 c34 -51 54 -154 32 -168 -5 -3 -10
-11 -10 -17 0 -7 6 -6 15 2 13 11 15 5 15 -42 0 -30 -6 -62 -14 -73 -12 -17
-14 -15 -20 31 -4 28 -6 54 -5 60 2 5 -1 27 -5 49 -4 24 -3 53 4 70 9 27 9 28
-4 11 -14 -17 -16 -14 -22 34 -4 34 -10 47 -15 38 -6 -9 -9 -7 -9 10 0 30 15
28 38 -5z m-139 -78 c40 -80 61 -187 68 -346 l6 -146 -41 -6 c-32 -4 -56 -18
-104 -62 l-63 -57 -70 6 c-83 6 -135 16 -135 25 0 14 100 61 131 61 19 1 48 7
64 15 29 13 29 13 -20 8 l-50 -5 35 24 c28 18 31 24 16 26 -10 2 -63 -24 -118
-57 -56 -34 -105 -61 -109 -61 -5 0 -24 25 -44 56 -20 30 -54 79 -77 107 -48
61 -88 141 -88 178 0 21 13 34 71 70 39 24 75 43 81 41 6 -1 36 21 67 51 104
98 170 128 280 124 l75 -2 25 -50z m305 38 c-5 -10 -9 -56 -8 -103 2 -185 108
-330 240 -330 51 0 86 26 110 81 13 29 22 38 34 33 8 -4 37 -12 63 -18 41 -9
54 -8 77 6 l29 16 30 -46 c34 -55 51 -110 51 -169 0 -28 4 -43 13 -43 11 0 54
-99 45 -104 -2 -1 -21 -10 -43 -20 -68 -31 -170 -103 -185 -132 -18 -32 -59
-51 -72 -32 -17 28 -5 51 62 124 39 41 70 79 70 84 0 5 -18 -10 -40 -33 l-40
-42 24 60 c24 63 39 115 32 115 -2 0 -20 -34 -40 -76 -44 -93 -131 -227 -180
-275 -19 -20 -62 -56 -93 -80 -69 -51 -89 -69 -50 -46 15 10 27 14 27 10 0
-15 -52 -87 -95 -133 -23 -25 -55 -63 -70 -85 l-29 -40 44 40 c29 27 41 34 36
20 -4 -11 -12 -45 -18 -77 -6 -36 -18 -63 -31 -76 -28 -24 -100 -52 -135 -52
l-27 1 30 14 c42 19 26 18 -26 -1 -64 -24 -201 -24 -264 0 -65 25 -158 88
-218 148 -52 52 -46 29 9 -32 l35 -39 -58 22 c-38 15 -74 38 -105 70 -26 27
-45 40 -41 30 6 -16 5 -16 -10 -4 -9 7 -17 17 -17 21 0 4 46 24 103 45 126 46
250 104 344 161 55 34 82 44 115 44 63 0 116 18 129 43 6 12 19 31 29 42 10
11 21 31 25 45 4 14 13 32 20 40 8 8 17 42 20 76 7 59 6 61 -24 87 l-32 27 10
76 c16 111 14 339 -4 431 -8 43 -15 79 -15 80 0 1 21 4 48 6 26 2 53 4 61 5 9
1 11 -3 5 -15z m-233 -32 c9 -9 29 -71 23 -71 -24 0 -74 58 -74 85 0 7 42 -4
51 -14z m46 -142 c5 -27 7 -49 3 -49 -16 0 -45 45 -56 85 l-11 44 27 -16 c20
-11 29 -28 37 -64z m-5 -56 c15 -18 30 -103 17 -103 -16 0 -37 39 -42 78 -6
45 1 52 25 25z m84 -85 c-4 -35 -6 -89 -6 -121 1 -31 -2 -62 -6 -68 -3 -6 -8
-29 -9 -50 -4 -41 -11 -59 -25 -59 -11 0 -1 60 13 78 6 8 6 12 -1 12 -11 0 -4
90 9 105 12 12 11 28 -1 20 -17 -11 -12 93 6 120 9 14 19 25 22 25 2 0 2 -28
-2 -62z m-801 -42 c14 -30 55 -92 90 -138 35 -46 62 -84 61 -85 -1 -2 -32 9
-67 23 -72 30 -161 41 -199 26 -22 -10 -19 -11 25 -11 66 -1 114 -15 212 -63
84 -40 232 -78 310 -78 33 0 50 7 85 36 23 20 45 39 48 43 13 18 57 41 77 41
24 0 32 -25 11 -34 -25 -10 23 -35 79 -42 42 -5 57 -3 64 7 7 11 12 10 29 -7
27 -27 18 -50 -26 -64 -43 -15 -46 -34 -3 -25 26 6 30 4 27 -12 -2 -10 -20
-27 -41 -38 -42 -23 -50 -39 -11 -25 46 18 24 -22 -26 -47 -32 -17 -38 -23
-22 -23 30 0 28 -14 -3 -28 -38 -17 -109 -15 -189 7 -57 16 -117 20 -311 24
-175 4 -256 10 -298 21 -83 23 -224 93 -238 117 -25 47 21 171 94 253 32 36
181 171 194 175 1 1 14 -23 28 -53z m745 -60 c0 -39 -3 -47 -15 -42 -17 6 -21
-9 -5 -19 6 -3 10 -27 10 -52 0 -40 -2 -44 -16 -33 -13 12 -14 10 -3 -13 13
-29 8 -44 -11 -32 -8 5 -10 22 -5 53 4 24 6 88 6 141 l-1 96 20 -25 c13 -17
20 -41 20 -74z m-1470 -245 c0 -8 18 -38 40 -67 23 -30 40 -65 41 -81 1 -26 1
-26 7 -5 7 22 8 22 43 -15 27 -29 35 -44 30 -61 -6 -21 -10 -18 -68 39 -53 51
-63 66 -64 97 -2 33 -2 34 -6 8 l-5 -29 -18 29 c-12 17 -17 39 -15 54 3 14 2
19 -1 13 -7 -15 -24 -17 -24 -4 0 5 5 22 11 38 8 22 12 24 19 13 6 -8 10 -21
10 -29z m2550 -48 c22 -21 42 -50 46 -65 5 -24 3 -28 -23 -33 -103 -21 -198
-61 -280 -117 -24 -16 -43 -24 -43 -18 0 14 76 169 93 190 12 16 54 44 97 67
41 21 68 15 110 -24z m-215 -34 c-38 -42 -95 -156 -95 -190 0 -30 -29 -23 -75
20 -23 21 -48 41 -56 44 -39 16 178 166 240 167 22 0 22 -2 -14 -41z m-2145
-229 c94 -71 240 -159 314 -189 37 -16 56 -29 56 -40 0 -37 26 -55 86 -61 l57
-5 -24 -27 c-45 -51 -219 -134 -321 -152 -72 -13 -226 58 -295 138 -19 21 -33
30 -33 22 0 -8 22 -37 49 -64 52 -52 173 -112 225 -112 29 0 32 -8 13 -35 -11
-14 -23 -17 -63 -13 -94 9 -215 82 -250 151 -14 27 -14 32 2 62 17 32 17 37 0
117 -20 89 -33 304 -22 361 l6 35 63 -65 c34 -36 96 -91 137 -123z m2425 141
c3 -5 -20 -15 -52 -21 -74 -16 -164 -54 -235 -101 -67 -43 -90 -35 -26 9 63
43 124 72 203 98 77 25 101 29 110 15z m-629 -48 c-10 -10 -19 5 -10 18 6 11
8 11 12 0 2 -7 1 -15 -2 -18z m696 -33 c58 -60 66 -88 43 -140 -14 -30 -21
-37 -34 -31 -35 17 -315 62 -379 60 -48 -1 4 -15 103 -28 117 -15 233 -37 268
-50 62 -24 43 -77 -60 -166 -83 -73 -115 -92 -170 -101 -48 -7 -58 4 -66 71
-4 41 -23 94 -55 158 -2 4 8 3 23 -3 50 -19 50 -10 0 14 -53 25 -79 56 -80 94
-1 16 12 31 45 52 91 58 234 115 299 119 8 1 36 -21 63 -49z m-2475 18 c21
-23 39 -78 26 -78 -17 0 -63 56 -63 77 0 29 11 29 37 1z m1918 -18 c45 -35 64
-60 65 -79 0 -8 -21 6 -47 32 -27 26 -57 53 -68 62 -16 12 -17 14 -4 15 9 0
33 -14 54 -30z m-950 -6 c-53 -42 -419 -199 -437 -188 -17 11 -6 57 26 119
l35 65 3 -53 4 -52 8 63 9 62 186 0 c171 -1 184 -2 166 -16z m932 -38 l58 -54
-95 -44 c-99 -47 -246 -150 -282 -199 -20 -27 -22 -27 -49 -14 -15 8 -30 19
-33 24 -11 17 13 72 52 118 22 27 47 62 56 80 17 34 109 117 147 132 56 22 85
14 146 -43z m-1684 -86 c53 -30 101 -64 107 -75 8 -14 9 -15 6 -2 -6 21 4 22
30 3 13 -10 16 -18 8 -25 -7 -8 -24 -6 -57 5 -26 9 -47 19 -47 22 0 4 -12 21
-26 37 l-26 30 23 -35 24 -35 -55 31 c-35 19 -62 43 -73 65 -12 22 -17 26 -14
12 3 -13 2 -23 -2 -23 -18 0 -71 58 -77 84 l-7 29 45 -34 c25 -19 88 -59 141
-89z m847 113 c0 -9 -62 -53 -73 -53 -3 0 -4 8 -1 18 3 9 -1 6 -9 -8 -13 -21
-97 -78 -97 -65 0 23 31 56 71 76 27 13 49 27 49 32 0 4 14 7 30 7 17 0 30 -3
30 -7z m980 -88 c0 -17 -2 -17 -10 -5 -5 8 -10 24 -10 35 0 17 2 17 10 5 5 -8
10 -24 10 -35z m-35 -10 c-4 -41 -15 -42 -15 -1 0 20 4 35 9 32 5 -4 8 -17 6
-31z m-1125 17 c0 -18 -27 -42 -62 -57 -58 -23 -43 17 17 49 34 17 45 19 45 8z
m1090 -31 c0 -5 -37 -27 -82 -50 -174 -86 -331 -233 -372 -346 -12 -34 -15
-36 -15 -14 -1 38 45 123 102 185 63 70 157 137 267 191 90 45 100 48 100 34z
m-1200 -30 c-10 -20 -68 -51 -96 -51 -28 0 9 39 56 58 25 11 46 18 48 16 2 -1
-1 -12 -8 -23z m1282 -8 c46 -52 108 -196 108 -250 0 -42 -18 -24 -30 30 -14
57 -56 154 -90 205 -23 34 -14 44 12 15z m7 -96 c17 -34 36 -83 42 -108 11
-42 11 -47 -9 -67 -26 -26 -27 -40 -6 -70 15 -21 15 -25 -2 -43 -24 -27 -54
-24 -97 12 -45 37 -90 38 -95 1 -3 -17 -8 -21 -26 -16 -25 6 -61 -20 -50 -37
3 -6 -2 -16 -12 -24 -16 -11 -17 -18 -8 -43 9 -24 8 -31 -5 -39 -14 -9 -14
-14 -3 -33 7 -12 12 -23 10 -25 -15 -12 -51 -25 -73 -25 -33 0 -70 19 -126 66
-51 42 -59 54 -71 107 -8 34 -5 48 18 96 l28 55 18 -74 c23 -95 56 -130 121
-129 32 0 38 2 22 9 -11 5 -32 9 -46 9 -36 1 -59 31 -75 98 -24 102 -21 113
49 180 68 65 175 139 259 178 l51 24 28 -20 c16 -11 42 -48 58 -82z m-1401 63
c-13 -20 -86 -55 -96 -46 -13 14 58 63 96 65 10 1 10 -3 0 -19z m-168 -4 c0
-9 -64 -36 -84 -36 -20 1 -20 1 3 20 20 17 81 29 81 16z m58 -38 c-19 -29 -62
-40 -85 -22 -10 7 -16 14 -13 14 3 0 23 7 45 15 60 21 71 20 53 -7z m-128 -18
c0 -10 -39 -34 -46 -27 -3 2 -2 12 2 21 7 17 44 23 44 6z m69 -46 c3 -3 0 -9
-6 -15 -15 -15 -43 -4 -43 16 0 12 6 15 23 9 12 -3 24 -8 26 -10z m120 -27
c53 -47 137 -91 200 -106 22 -5 62 -23 88 -39 96 -61 198 -82 316 -64 144 22
150 23 137 6 -45 -53 -293 -64 -444 -19 -109 32 -215 80 -292 133 -85 57 -98
73 -83 106 7 14 16 26 22 26 5 0 30 -19 56 -43z m-189 23 c0 -5 -7 -10 -16
-10 -8 0 -12 5 -9 10 3 6 10 10 16 10 5 0 9 -4 9 -10z m1093 -52 c12 -7 24
-14 26 -15 5 -3 -63 -133 -70 -133 -4 0 -12 6 -18 13 -8 10 -6 23 9 52 11 22
20 52 20 67 0 32 2 33 33 16z m-943 -59 l48 -41 -25 -55 c-28 -60 -53 -147
-52 -178 0 -11 8 10 18 47 20 73 60 178 68 178 3 0 42 -18 86 -40 44 -22 118
-52 166 -68 78 -24 100 -27 241 -27 148 0 157 1 207 27 28 14 54 24 57 21 3
-4 6 -19 6 -34 0 -17 12 -42 30 -62 17 -19 30 -44 30 -55 0 -12 13 -36 28 -54
78 -92 252 -332 252 -348 0 -4 -17 -11 -37 -14 -66 -12 -155 -47 -283 -111
-197 -99 -245 -117 -374 -140 -112 -19 -190 -19 -302 0 -181 31 -474 124 -474
150 0 7 11 57 24 111 24 96 35 155 72 354 9 52 27 127 40 167 24 72 101 213
117 213 4 0 30 -18 57 -41z m1593 -50 c81 -22 76 -98 -14 -193 -48 -51 -71
-68 -113 -81 -50 -16 -58 -16 -110 -1 -44 13 -61 24 -81 54 -45 66 -30 84 21
23 32 -37 41 -41 149 -68 40 -10 0 15 -50 31 -37 12 -61 28 -88 61 -20 24 -37
49 -37 54 0 21 31 10 69 -24 37 -33 129 -71 153 -63 6 2 -11 14 -38 25 -35 15
-60 36 -83 68 -49 68 -27 72 58 10 37 -28 124 -36 120 -12 -4 24 12 45 32 40
29 -8 22 10 -14 32 -33 21 -49 55 -25 55 7 0 30 -5 51 -11z m87 -23 c0 -3 -4
-8 -10 -11 -5 -3 -10 -1 -10 4 0 6 5 11 10 11 6 0 10 -2 10 -4z m-398 -241
c16 -14 38 -25 49 -25 10 0 19 -5 19 -11 0 -25 -98 19 -108 49 -6 19 7 14 40
-13z m-56 -532 c112 -196 134 -248 133 -318 0 -33 -4 -82 -9 -110 -5 -27 -19
-113 -30 -190 -12 -77 -32 -196 -47 -265 -20 -98 -24 -141 -19 -198 4 -57 2
-80 -10 -104 -12 -23 -14 -45 -10 -82 l7 -52 -58 -18 c-81 -26 -170 -32 -213
-14 l-35 14 -1 100 c-1 60 4 122 13 159 10 42 13 85 9 140 -20 268 -19 326 7
404 19 58 22 79 14 101 -12 31 -3 65 14 54 43 -26 -43 68 -200 220 -50 49 -90
90 -89 90 26 15 62 25 70 20 6 -4 8 -3 5 3 -10 16 250 140 328 156 49 11 53 7
121 -110z m-1336 -73 c47 -16 137 -39 202 -52 l116 -22 -33 -91 c-85 -233 -98
-259 -148 -312 -27 -28 -78 -71 -113 -94 -35 -23 -64 -43 -64 -46 0 -7 90 46
113 65 9 8 20 12 23 9 9 -9 -78 -157 -157 -267 -91 -128 -148 -227 -155 -270
-11 -69 -14 -79 -41 -111 -16 -18 -33 -51 -38 -73 l-10 -41 -70 2 c-86 3 -148
25 -175 63 -25 35 -25 68 0 100 12 15 20 41 20 65 0 27 10 54 30 84 17 25 42
83 55 130 82 284 98 319 185 421 37 42 63 82 66 102 4 18 18 43 32 55 26 22
27 28 36 173 8 130 12 150 25 145 9 -4 54 -20 101 -35z m-430 -1329 c36 -6 68
-11 72 -11 3 0 9 -28 13 -62 4 -35 16 -85 26 -113 11 -27 19 -60 19 -72 0 -52
-107 -75 -229 -49 -40 8 -79 21 -87 27 -22 18 -16 84 17 193 17 56 32 109 35
118 5 15 7 15 37 -2 18 -10 61 -24 97 -29z m1851 -16 c49 -46 94 -76 156 -106
134 -63 152 -88 86 -116 -63 -26 -206 -13 -323 30 -70 25 -119 36 -185 40 -69
5 -93 10 -102 24 -14 18 -15 76 -4 128 l6 30 75 -3 c53 -2 94 3 140 17 36 11
69 20 74 20 5 1 39 -28 77 -64z"/>
<path d="M6188 4790 c12 -11 22 -26 22 -32 0 -6 3 -9 6 -6 9 10 -14 45 -33 52
-14 6 -13 2 5 -14z"/>
<path d="M4755 4889 c-12 -19 94 -106 186 -153 90 -45 179 -70 179 -49 0 6
-24 33 -53 60 -83 79 -293 174 -312 142z m183 -69 c88 -45 179 -119 148 -120
-49 -1 -306 150 -306 180 0 13 67 -12 158 -60z"/>
<path d="M5594 4619 c-9 -10 -14 -22 -11 -25 4 -4 9 1 13 10 3 9 12 16 20 16
20 0 18 -56 -2 -64 -17 -6 -16 -48 1 -51 6 -1 7 0 3 3 -13 7 -9 31 7 39 14 8
20 31 17 64 -3 26 -28 30 -48 8z"/>
<path d="M5835 4570 c-4 -6 7 -10 26 -10 22 0 45 -12 79 -40 26 -22 56 -39 66
-37 26 4 44 16 44 30 0 7 -5 4 -11 -7 -6 -10 -14 -14 -18 -10 -3 5 -31 26 -61
47 -54 37 -111 49 -125 27z"/>
<path d="M5878 4500 c18 -6 30 -15 27 -20 -4 -6 2 -13 11 -17 10 -4 19 -2 22
5 2 6 11 8 20 5 15 -5 15 -4 2 10 -9 9 -38 19 -65 22 -45 4 -47 4 -17 -5z"/>
<path d="M5711 4434 c0 -11 3 -14 6 -6 3 7 2 16 -1 19 -3 4 -6 -2 -5 -13z"/>
<path d="M5720 4405 c0 -5 5 -17 10 -25 5 -8 10 -10 10 -5 0 6 -5 17 -10 25
-5 8 -10 11 -10 5z"/>
<path d="M5800 4275 c-7 -9 -11 -17 -9 -20 3 -2 10 5 17 15 14 24 10 26 -8 5z"/>
<path d="M5895 4195 c39 -13 77 -24 85 -24 25 1 -103 48 -130 48 -14 0 6 -10
45 -24z"/>
<path d="M5565 4140 c-4 -34 -5 -63 -2 -66 2 -3 7 23 11 57 4 33 5 63 3 66 -3
2 -8 -23 -12 -57z"/>
<path d="M5875 4150 c6 -10 64 -24 71 -17 3 2 -13 9 -36 15 -22 5 -38 6 -35 2z"/>
<path d="M4400 4303 c0 -18 70 -91 107 -112 41 -23 41 -24 -34 40 -16 13 -38
37 -51 53 -12 16 -22 24 -22 19z"/>
<path d="M4130 4211 c0 -16 134 -153 169 -174 47 -28 37 -13 -20 29 -28 20
-73 64 -100 96 -27 32 -49 54 -49 49z"/>
<path d="M4070 3975 c13 -14 26 -25 28 -25 3 0 -5 11 -18 25 -13 14 -26 25
-28 25 -3 0 5 -11 18 -25z"/>
<path d="M4000 3887 c0 -2 15 -16 33 -33 l32 -29 -29 33 c-28 30 -36 37 -36
29z"/>
<path d="M4990 4316 c0 -2 8 -10 18 -17 15 -13 16 -12 3 4 -13 16 -21 21 -21
13z"/>
<path d="M5037 4232 c14 -45 13 -141 -2 -212 l-6 -25 11 25 c27 61 20 237 -10
255 -4 3 -1 -16 7 -43z"/>
<path d="M5352 4135 c0 -11 3 -29 8 -40 11 -25 11 1 0 35 -6 20 -8 21 -8 5z"/>
<path d="M5370 4065 c0 -5 5 -17 10 -25 5 -8 10 -10 10 -5 0 6 -5 17 -10 25
-5 8 -10 11 -10 5z"/>
<path d="M5752 3890 c-12 -16 -39 -39 -60 -49 -20 -11 -30 -20 -22 -21 19 0
86 54 100 81 16 28 7 23 -18 -11z"/>
<path d="M5573 3813 c15 -2 39 -2 55 0 15 2 2 4 -28 4 -30 0 -43 -2 -27 -4z"/>
<path d="M5378 3393 c23 -2 61 -2 85 0 23 2 4 4 -43 4 -47 0 -66 -2 -42 -4z"/>
<path d="M5293 3383 c9 -2 23 -2 30 0 6 3 -1 5 -18 5 -16 0 -22 -2 -12 -5z"/>
<path d="M4880 3171 c20 -39 104 -115 154 -140 25 -12 63 -24 83 -27 36 -4 36
-4 -8 9 -69 20 -131 60 -189 124 -29 32 -47 47 -40 34z"/>
<path d="M4288 3673 c13 -13 28 -23 35 -23 7 0 3 6 -8 12 -11 6 -27 16 -35 22
-9 6 -5 1 8 -11z"/>
<path d="M4348 3643 c7 -3 16 -2 19 1 4 3 -2 6 -13 5 -11 0 -14 -3 -6 -6z"/>
<path d="M5218 3633 c7 -3 16 -2 19 1 4 3 -2 6 -13 5 -11 0 -14 -3 -6 -6z"/>
<path d="M3820 3380 c12 -23 120 -116 183 -159 54 -37 196 -111 212 -111 5 0
-35 24 -90 53 -113 60 -189 113 -264 186 -28 27 -47 41 -41 31z"/>
<path d="M4240 3100 c8 -5 20 -10 25 -10 6 0 3 5 -5 10 -8 5 -19 10 -25 10 -5
0 -3 -5 5 -10z"/>
<path d="M6390 3328 c-41 -11 -70 -34 -30 -24 101 26 124 35 95 34 -16 0 -46
-4 -65 -10z"/>
<path d="M6309 3084 c-18 -20 -47 -45 -64 -55 -16 -10 -26 -19 -21 -19 19 0
75 42 100 75 35 45 29 44 -15 -1z"/>
<path d="M5767 3333 c18 -2 50 -2 70 0 21 2 7 4 -32 4 -38 0 -55 -2 -38 -4z"/>
<path d="M5990 3163 c0 -27 -7 -75 -14 -108 -16 -68 -13 -87 4 -28 13 44 26
183 16 183 -3 0 -6 -21 -6 -47z"/>
<path d="M5637 2733 c-8 -12 5 -18 63 -27 26 -4 30 -4 15 3 -11 5 -30 10 -42
10 -12 1 -23 6 -25 13 -3 9 -6 9 -11 1z"/>
<path d="M4577 3072 c45 -44 150 -112 170 -112 5 0 -12 12 -37 27 -25 14 -76
50 -115 80 l-70 55 52 -50z"/>
<path d="M4528 2983 c-17 -20 -41 -63 -35 -63 3 0 16 18 31 40 28 42 29 52 4
23z"/>
<path d="M4719 2800 c69 -60 235 -131 300 -129 14 0 -3 7 -38 14 -73 16 -162
56 -241 109 -47 31 -50 32 -21 6z"/>
<path d="M5302 2808 c-6 -6 -33 -24 -59 -39 -52 -31 -52 -39 0 -13 37 19 93
64 80 64 -5 0 -14 -5 -21 -12z"/>
<path d="M5309 2714 c-25 -30 -136 -104 -216 -143 -85 -42 -131 -57 -233 -76
-36 -7 -55 -13 -42 -14 41 -2 170 29 241 58 80 33 191 104 240 155 19 20 32
36 29 36 -3 0 -11 -7 -19 -16z"/>
<path d="M5369 2673 c-13 -16 -12 -17 4 -4 16 13 21 21 13 21 -2 0 -10 -8 -17
-17z"/>
<path d="M5339 2633 c-13 -16 -12 -17 4 -4 9 7 17 15 17 17 0 8 -8 3 -21 -13z"/>
<path d="M5232 2485 c-79 -88 -240 -204 -340 -244 -18 -8 -31 -16 -29 -18 6
-6 53 16 132 61 113 64 195 131 257 209 41 51 29 47 -20 -8z"/>
<path d="M5350 2105 c0 -7 241 -127 246 -123 2 2 -53 32 -121 66 -69 34 -125
60 -125 57z"/>
<path d="M5688 1793 c7 -3 16 -2 19 1 4 3 -2 6 -13 5 -11 0 -14 -3 -6 -6z"/>
<path d="M5618 1783 c12 -2 30 -2 40 0 9 3 -1 5 -23 4 -22 0 -30 -2 -17 -4z"/>
<path d="M5610 1726 c14 -8 39 -15 55 -14 29 0 29 0 -5 8 -19 4 -44 10 -55 14
-13 5 -11 2 5 -8z"/>
<path d="M5679 1348 c-13 -29 -46 -86 -72 -126 -26 -40 -43 -70 -36 -67 28 18
148 229 136 241 -2 2 -14 -20 -28 -48z"/>
<path d="M5597 1009 c7 -7 15 -10 18 -7 3 3 -2 9 -12 12 -14 6 -15 5 -6 -5z"/>
<path d="M5638 993 c6 -2 18 -2 25 0 6 3 1 5 -13 5 -14 0 -19 -2 -12 -5z"/>
<path d="M5705 945 c-16 -8 -55 -19 -85 -26 -30 -6 -49 -14 -42 -16 16 -6 149
34 157 47 7 12 8 12 -30 -5z"/>
<path d="M5690 874 c-43 -16 -80 -17 -117 -4 -27 10 -27 9 -8 -6 24 -19 108
-14 152 10 34 18 21 19 -27 0z"/>
<path d="M4320 1808 c0 -19 40 -131 45 -126 2 2 -7 35 -21 73 -13 39 -24 62
-24 53z"/>
<path d="M4275 1700 c3 -30 10 -59 14 -63 12 -12 1 84 -11 103 -6 10 -7 -4 -3
-40z"/>
<path d="M4227 1270 c-53 -44 -121 -93 -150 -110 -58 -33 -57 -41 2 -10 36 18
131 91 221 169 69 59 23 29 -73 -49z"/>
<path d="M3985 1035 c8 -16 20 -37 27 -46 15 -18 78 -53 84 -46 3 2 -9 10 -26
17 -28 12 -56 39 -88 86 -7 11 -6 6 3 -11z"/>
<path d="M3996 930 c18 -18 85 -23 119 -10 18 8 25 14 17 17 -8 3 -19 0 -25
-6 -14 -14 -57 -14 -94 0 -21 8 -25 7 -17 -1z"/>
<path d="M3942 900 c17 -29 67 -49 118 -49 43 1 31 5 -34 14 -34 5 -56 15 -74
33 -26 27 -26 27 -10 2z"/>
</g>
</svg>
