<?xml version="1.0" standalone="no"?>
<!DOCTYPE svg PUBLIC "-//W3C//DTD SVG 20010904//EN"
 "http://www.w3.org/TR/2001/REC-SVG-20010904/DTD/svg10.dtd">
<svg version="1.0" xmlns="http://www.w3.org/2000/svg"
 width="1024.000000pt" height="559.000000pt" viewBox="0 0 1024.000000 559.000000"
 preserveAspectRatio="xMidYMid meet">
<metadata>
Created by potrace 1.16, written by Peter Selinger 2001-2019
</metadata>
<g transform="translate(0.000000,559.000000) scale(0.100000,-0.100000)"
fill="#000000" stroke="none">
<path d="M6708 5030 c-74 -13 -153 -54 -204 -107 l-47 -48 -101 0 c-86 0 -108
-4 -148 -24 -114 -56 -182 -164 -183 -288 l0 -71 -49 -34 c-227 -153 -176
-541 81 -611 40 -10 43 -14 53 -59 32 -151 150 -238 308 -225 l63 5 52 -52
c71 -71 151 -101 265 -100 74 1 90 5 156 38 69 34 109 68 146 124 13 21 18 22
44 12 51 -19 177 -15 228 8 106 47 175 144 185 262 5 61 9 69 31 80 82 37 141
120 162 226 27 138 -43 279 -169 343 -38 20 -38 21 -44 91 -9 105 -64 187
-160 236 -42 22 -154 30 -213 15 -43 -11 -48 -10 -57 6 -5 10 -36 43 -67 74
-86 83 -210 120 -332 99z m214 -58 c59 -26 122 -83 155 -139 19 -33 30 -42 42
-37 57 24 91 33 127 34 148 1 280 -142 259 -283 l-7 -43 56 -23 c94 -39 155
-126 164 -236 9 -117 -57 -234 -155 -276 l-43 -18 0 -68 c0 -110 -54 -198
-152 -249 -48 -25 -147 -30 -207 -10 -27 9 -53 16 -58 16 -4 0 -21 -20 -36
-44 -30 -48 -68 -80 -137 -117 -38 -20 -59 -24 -140 -24 -82 0 -102 4 -144 25
-51 26 -115 80 -133 114 -10 18 -14 18 -72 6 -55 -11 -69 -11 -121 5 -32 10
-75 31 -96 48 -44 36 -84 117 -84 170 0 21 -5 39 -12 41 -7 2 -35 10 -63 17
-70 18 -147 92 -176 168 -31 81 -29 182 4 254 27 60 88 125 139 150 l33 16 0
88 c0 101 18 145 82 209 69 67 176 93 288 70 40 -8 42 -7 69 32 34 49 90 89
159 114 68 24 192 20 259 -10z"/>
<path d="M6782 4644 c2 -33 7 -58 13 -56 15 3 13 104 -3 110 -10 3 -12 -10
-10 -54z"/>
<path d="M6560 4624 c0 -25 40 -84 56 -84 21 0 17 12 -16 58 -33 46 -40 50
-40 26z"/>
<path d="M6986 4604 c-27 -40 -33 -64 -16 -64 18 0 64 80 53 91 -8 8 -19 0
-37 -27z"/>
<path d="M6719 4501 c-36 -12 -94 -52 -117 -82 -33 -41 -54 -119 -47 -168 8
-54 20 -81 64 -148 37 -58 50 -105 55 -202 4 -60 6 -66 45 -102 56 -53 94 -53
150 -1 38 36 41 42 41 93 0 80 24 159 69 229 89 137 56 296 -74 362 -43 23
-144 33 -186 19z m142 -32 c47 -16 114 -83 128 -128 22 -76 10 -133 -46 -214
-18 -27 -38 -68 -43 -90 -17 -66 -18 -67 -46 -67 l-27 0 6 73 c7 79 22 133 45
159 8 10 12 25 8 34 -6 15 -10 14 -34 -9 -38 -37 -93 -37 -116 -2 -9 14 -21
25 -26 25 -16 0 -12 -26 11 -70 15 -28 23 -67 27 -125 l5 -85 -26 0 c-22 0
-26 6 -32 39 -4 22 -23 66 -42 98 -59 97 -63 106 -63 166 0 147 131 242 271
196z m-37 -309 c-3 -8 -8 -54 -11 -102 -7 -114 -27 -120 -37 -10 -3 42 -9 88
-12 102 -5 23 -3 25 30 25 28 0 35 -3 30 -15z m56 -235 c0 -12 -16 -15 -85
-15 -69 0 -85 3 -85 15 0 12 16 15 85 15 69 0 85 -3 85 -15z m0 -60 c0 -12
-16 -15 -85 -15 -69 0 -85 3 -85 15 0 12 16 15 85 15 69 0 85 -3 85 -15z m-55
-65 c-3 -5 -17 -10 -30 -10 -13 0 -27 5 -30 10 -4 6 8 10 30 10 22 0 34 -4 30
-10z"/>
<path d="M6410 4467 c0 -13 68 -57 89 -57 27 0 7 28 -34 48 -53 26 -55 26 -55
9z"/>
<path d="M7118 4460 c-42 -22 -53 -36 -38 -45 14 -9 102 43 95 56 -8 12 -14
11 -57 -11z"/>
<path d="M6405 4273 c-38 -6 -54 -20 -32 -29 26 -10 109 5 104 19 -4 13 -27
17 -72 10z"/>
<path d="M7110 4266 c0 -9 15 -15 46 -18 52 -4 78 6 54 22 -24 16 -100 13
-100 -4z"/>
<path d="M5758 4585 c-33 -18 -52 -72 -39 -108 26 -68 124 -79 156 -16 23 43
18 77 -14 110 -32 32 -62 36 -103 14z m88 -50 c34 -52 -31 -111 -76 -70 -38
34 -18 95 30 95 21 0 35 -8 46 -25z"/>
<path d="M4969 4508 c-78 -28 -138 -73 -165 -125 -10 -20 -29 -49 -41 -63 -54
-60 -76 -173 -53 -271 14 -61 102 -242 133 -277 l20 -22 -30 -37 c-22 -28 -41
-40 -69 -45 -95 -16 -278 -96 -348 -151 -83 -66 -180 -257 -245 -482 -32 -110
-47 -144 -97 -220 l-59 -90 2 -75 c1 -48 -4 -90 -14 -117 -18 -49 -13 -100 14
-141 23 -32 22 -83 -1 -195 -31 -153 -17 -304 37 -402 l25 -45 -36 -9 c-20 -6
-80 -19 -132 -31 -137 -31 -148 -36 -160 -79 -6 -21 -10 -198 -10 -438 0 -384
3 -433 28 -408 4 4 7 193 7 420 0 358 2 416 15 430 9 8 83 30 166 49 l150 35
50 -25 c27 -13 76 -29 109 -34 94 -16 357 -22 505 -12 118 8 137 7 148 -7 11
-14 3 -19 -65 -39 -87 -27 -87 -27 -79 -41 4 -6 32 -3 77 10 39 11 75 20 80
22 6 1 9 -93 9 -255 -1 -299 -14 -269 132 -294 51 -9 95 -18 98 -20 2 -3 6
-34 8 -69 3 -46 -1 -77 -13 -107 -9 -24 -19 -75 -22 -114 -5 -66 -4 -72 17
-87 13 -9 49 -21 79 -28 31 -6 106 -22 167 -35 274 -59 491 0 397 108 -8 9
-51 31 -95 49 -75 30 -210 119 -250 165 -9 11 -18 41 -20 73 l-3 53 40 13 c22
7 74 29 115 49 109 53 114 51 107 -33 -3 -39 -11 -80 -17 -92 -7 -12 -14 -56
-17 -98 -8 -109 -8 -109 209 -127 286 -24 378 -27 433 -12 48 12 50 15 53 50
4 46 -9 55 -133 98 -93 33 -159 69 -232 127 -42 33 -43 36 -43 93 0 57 1 58
38 77 31 17 38 26 42 58 5 35 9 39 56 57 27 11 63 29 78 41 l28 23 -27 149
c-109 606 -120 661 -142 719 -29 75 -73 124 -140 157 -42 20 -63 36 -63 47 0
10 -13 33 -28 52 -25 30 -28 39 -21 70 19 82 11 184 -40 470 -11 63 -27 160
-36 215 -20 121 -71 322 -90 351 -7 12 -41 31 -74 44 -65 24 -66 25 -51 65 22
57 40 224 30 268 -14 62 -12 206 4 253 33 94 -45 225 -166 279 -56 25 -77 29
-188 32 -111 3 -133 1 -191 -19z m341 -35 c40 -13 68 -31 103 -68 61 -63 79
-97 75 -143 l-3 -37 -34 63 c-19 34 -38 62 -42 62 -5 0 -16 -14 -25 -31 -19
-37 -61 -79 -80 -79 -8 0 -11 12 -7 40 7 48 -5 51 -36 9 -23 -31 -77 -69 -98
-69 -8 0 -13 14 -13 35 0 46 -25 47 -40 1 -6 -18 -33 -54 -60 -80 l-50 -47 0
-72 0 -71 -29 32 c-56 61 -141 29 -141 -52 0 -38 32 -111 55 -123 13 -8 14
-14 5 -37 -5 -15 -14 -25 -19 -22 -19 12 -121 239 -130 293 -16 82 2 165 44
212 18 20 42 54 53 76 29 58 102 108 185 125 62 13 224 4 287 -17z m128 -226
c10 -23 22 -59 26 -79 7 -37 7 -37 -31 -40 -26 -2 -38 -8 -38 -18 0 -11 9 -14
36 -12 l37 3 7 -106 c8 -115 3 -178 -22 -267 -12 -44 -20 -58 -34 -58 -23 0
-64 -18 -112 -49 -35 -22 -41 -23 -80 -11 -67 20 -113 47 -156 92 -45 46 -61
46 -37 0 19 -38 60 -72 114 -96 23 -10 42 -23 42 -28 0 -6 -20 -36 -44 -68
-59 -77 -69 -97 -55 -106 7 -4 18 1 25 11 19 25 24 17 15 -25 -6 -33 -10 -35
-48 -38 -79 -6 -174 64 -257 187 -25 38 -46 73 -46 79 0 5 18 21 40 36 40 26
100 115 100 149 0 12 8 17 30 17 20 0 30 5 30 15 0 10 -10 15 -29 15 -33 0
-77 44 -87 87 -11 40 7 77 38 81 26 3 30 0 67 -48 16 -20 23 -23 38 -14 14 9
19 28 23 87 5 74 6 77 45 110 29 25 50 34 79 35 24 1 51 11 72 27 27 21 34 23
34 10 0 -40 80 -19 121 33 13 17 27 31 31 31 4 1 16 -18 26 -42z m74 -643 c64
-24 67 -27 82 -72 35 -109 56 -213 102 -497 55 -343 57 -365 46 -447 -30 -208
-130 -251 -268 -113 -65 65 -169 227 -160 250 5 13 147 125 158 125 3 0 1 -22
-4 -50 -11 -64 -6 -192 8 -197 7 -2 13 30 17 94 4 54 14 138 23 187 8 49 16
145 17 212 2 122 2 123 25 117 30 -7 28 3 -9 44 -27 32 -30 41 -27 87 2 28 7
54 13 58 18 13 -11 29 -39 22 -27 -6 -33 -18 -16 -29 18 -11 10 -26 -12 -23
-20 3 -23 9 -23 43 0 39 1 40 50 53 58 16 59 17 51 31 -7 11 -101 -13 -123
-31 -7 -6 -13 -23 -13 -39 0 -16 -4 -29 -10 -29 -13 0 -13 66 0 90 6 12 31 23
65 31 53 12 74 24 62 36 -8 8 -108 -17 -134 -33 -13 -8 -25 -29 -29 -50 -4
-22 -9 -31 -14 -24 -8 13 6 78 21 96 5 6 36 17 69 23 33 7 60 17 60 23 0 17
-120 -1 -156 -23 -17 -10 -40 -19 -50 -19 -16 0 -16 3 6 24 37 36 101 67 125
60 11 -3 50 -17 87 -30z m-751 -16 c78 -155 222 -278 324 -278 14 0 25 -4 25
-8 0 -13 -36 -115 -56 -159 -20 -46 -117 -203 -124 -203 -3 0 -27 60 -53 133
-96 262 -107 288 -133 322 -33 44 -92 81 -105 68 -7 -7 0 -16 18 -28 59 -37
94 -99 147 -265 21 -63 50 -144 66 -181 l28 -66 -41 -13 c-75 -22 -207 -88
-287 -145 l-79 -55 -31 103 c-59 190 -88 271 -99 275 -13 4 -14 -27 -2 -60 4
-13 11 -36 15 -53 l7 -30 -34 33 c-56 55 -54 18 3 -42 43 -46 55 -67 80 -147
16 -52 34 -100 39 -108 8 -13 37 -13 121 1 8 2 17 -1 20 -7 7 -14 -163 -98
-228 -113 -30 -6 -76 -12 -104 -12 -48 0 -54 3 -95 45 -23 25 -45 56 -49 70
-10 41 54 328 108 480 33 93 114 256 148 296 43 53 124 103 237 148 54 22 101
40 105 40 4 1 17 -18 29 -41z m491 -40 c2 -18 11 -24 38 -28 34 -5 35 -6 30
-45 l-5 -40 -54 52 c-45 44 -52 55 -41 68 18 21 28 19 32 -7z m-44 -112 c4
-90 -20 -214 -68 -347 -43 -122 -37 -158 10 -55 45 99 80 230 87 328 3 48 9
88 14 88 15 0 81 -86 104 -135 46 -98 128 -321 132 -361 l5 -41 -122 -92 c-67
-51 -123 -91 -125 -89 -3 2 2 28 10 58 19 70 52 231 61 293 5 39 4 47 -9 47
-11 0 -18 -13 -23 -37 -25 -151 -58 -286 -96 -405 -21 -64 -24 -68 -48 -64
-14 3 -44 8 -66 11 l-42 6 -51 119 -52 118 41 53 c23 30 68 108 100 174 58
121 87 211 96 308 8 79 14 99 27 94 7 -2 13 -29 15 -71z m171 -57 c17 -17 31
-37 31 -45 0 -8 20 -34 45 -58 39 -38 45 -51 51 -97 3 -30 2 -72 -3 -93 -9
-39 -9 -39 -62 105 -29 79 -64 161 -77 182 -29 45 -25 47 15 6z m111 -64 c0
-14 -1 -25 -3 -25 -2 0 -14 11 -27 25 l-23 25 26 0 c22 0 27 -5 27 -25z m-540
-567 l55 -132 65 -13 c36 -7 117 -25 180 -39 l116 -27 57 -62 57 -63 -63 -11
c-99 -17 -354 -41 -440 -41 -93 0 -116 12 -176 94 -42 56 -181 286 -181 298 0
17 224 128 260 127 10 0 34 -45 70 -131z m-843 25 c-19 -70 -14 -114 18 -163
32 -47 82 -86 124 -97 50 -12 191 24 294 76 l99 50 16 -30 c45 -80 117 -184
157 -226 25 -25 44 -47 42 -48 -17 -9 -143 -27 -217 -31 l-95 -5 54 26 c61 29
121 71 121 86 0 15 -17 10 -72 -22 -88 -52 -183 -81 -269 -81 -122 0 -289 54
-331 106 -19 22 -25 110 -9 120 5 3 20 -12 35 -34 14 -22 33 -40 41 -40 20 0
20 2 -15 57 -54 85 -63 157 -29 226 20 40 38 67 44 67 2 0 -2 -17 -8 -37z
m483 -53 c-20 -13 -33 -13 -25 0 3 6 14 10 23 10 15 0 15 -2 2 -10z m720 -76
c17 -31 29 -58 27 -60 -4 -4 -128 24 -135 30 -8 8 23 65 41 74 33 16 33 16 67
-44z m480 -223 c0 -4 -13 -6 -30 -3 -34 5 -34 5 -19 35 l12 21 18 -23 c11 -13
19 -26 19 -30z m31 -52 c48 -12 120 -62 140 -96 25 -42 46 -112 69 -220 27
-134 120 -658 120 -678 0 -17 -106 -72 -118 -61 -3 4 -14 124 -24 268 -10 145
-20 269 -23 278 -6 13 -7 13 -14 0 -8 -14 -3 -151 18 -474 5 -82 7 -155 4
-162 -8 -22 -100 -44 -179 -44 -100 0 -163 -15 -264 -65 -128 -62 -205 -72
-373 -51 -72 10 -149 22 -170 28 l-38 11 7 252 c7 234 6 254 -11 283 -17 29
-18 38 -6 106 7 42 23 108 36 148 29 86 29 88 11 88 -16 0 -58 -118 -79 -220
l-13 -65 -79 -8 c-133 -13 -551 -2 -610 17 -72 22 -126 72 -160 148 -26 56
-29 74 -29 168 -1 118 20 244 38 237 40 -16 170 -46 218 -52 l57 -6 -61 -47
c-34 -26 -66 -55 -72 -64 -22 -37 5 -27 75 27 41 32 94 67 119 80 59 30 169
69 175 63 3 -3 -22 -22 -55 -42 -63 -39 -160 -127 -160 -145 0 -22 27 -10 65
30 22 22 73 61 112 86 125 78 258 115 503 139 170 16 216 11 353 -43 80 -32
103 -37 181 -37 122 -1 128 19 9 27 -67 4 -110 14 -177 40 -49 19 -85 37 -80
39 5 3 48 11 96 18 65 9 96 9 119 1 43 -15 89 -14 119 4 26 14 81 12 151 -6z
m-1555 -84 c40 -8 108 -15 151 -16 l78 0 -50 -23 -50 -22 -110 17 c-149 23
-209 46 -213 81 l-3 27 62 -24 c35 -14 95 -32 135 -40z m1644 -1184 c0 -27 2
-55 5 -63 7 -21 -85 -78 -126 -78 -57 0 -65 14 -61 102 l4 77 71 4 c40 1 80 4
90 5 14 2 17 -6 17 -47z m-507 -133 c4 -29 3 -54 -1 -56 -4 -1 -33 -20 -66
-42 -62 -42 -76 -46 -107 -30 -16 9 -19 22 -19 95 l0 85 94 0 93 0 6 -52z
m600 -12 c69 -49 161 -94 251 -122 64 -21 92 -47 66 -65 -24 -16 -590 7 -620
26 -9 6 -11 24 -7 65 9 78 15 94 34 78 8 -6 36 -12 63 -12 41 0 56 6 96 37 26
20 49 37 51 37 3 0 32 -20 66 -44z m-506 -131 c38 -30 97 -68 133 -85 36 -18
85 -41 110 -53 97 -47 34 -89 -135 -91 -93 0 -227 22 -387 65 l-38 10 0 62 c0
76 9 94 38 78 30 -16 73 -13 103 7 71 48 95 62 101 62 5 0 38 -25 75 -55z"/>
<path d="M5175 4102 c-36 -12 -58 -29 -51 -40 5 -8 19 -7 48 4 22 7 58 14 79
14 28 0 39 4 39 15 0 11 -12 15 -47 14 -27 -1 -57 -4 -68 -7z"/>
<path d="M5360 4067 c0 -3 14 -43 30 -88 17 -45 27 -86 23 -90 -4 -4 -23 -9
-42 -11 -19 -2 -36 -9 -39 -16 -3 -10 9 -12 49 -10 77 4 83 27 38 133 -19 43
-40 80 -47 83 -6 2 -12 1 -12 -1z"/>
<path d="M5424 4055 c-4 -8 -3 -23 0 -32 6 -15 8 -15 23 -1 16 17 12 48 -7 48
-6 0 -13 -7 -16 -15z"/>
<path d="M5210 4036 c-10 -13 -10 -19 0 -32 12 -14 15 -14 29 0 14 15 14 17 0
32 -14 14 -17 14 -29 0z"/>
<path d="M5293 3770 c-13 -5 -23 -15 -23 -21 0 -7 8 -9 23 -5 12 4 48 10 80
13 31 3 57 10 57 14 0 12 -109 10 -137 -1z"/>
<path d="M5343 3723 c-20 -7 -15 -23 6 -23 28 0 52 11 45 21 -6 10 -31 11 -51
2z"/>
<path d="M5151 2890 c-18 -38 -50 -98 -72 -134 -43 -72 -45 -76 -26 -76 25 0
124 175 143 253 12 50 -12 28 -45 -43z"/>
<path d="M4551 2488 c-93 -53 -150 -69 -254 -75 -65 -4 -97 -9 -94 -17 6 -18
119 -18 193 -1 76 17 203 76 230 106 16 18 16 19 -2 18 -10 -1 -43 -15 -73
-31z"/>
<path d="M5440 2177 c0 -19 128 -127 175 -148 54 -23 105 -28 105 -10 0 5 -21
14 -47 20 -50 13 -77 29 -166 103 -63 52 -67 54 -67 35z"/>
<path d="M5857 2110 c-3 -8 -17 -60 -31 -115 -48 -191 -115 -374 -202 -547
-25 -49 -42 -93 -39 -97 9 -8 28 19 79 114 75 138 149 344 191 532 16 68 17
147 2 113z"/>
<path d="M5090 1898 c-18 -40 -50 -100 -72 -134 -39 -62 -46 -84 -28 -84 15 0
100 135 127 200 45 109 23 124 -27 18z"/>
<path d="M5593 4448 c-51 -25 -31 -108 27 -108 15 0 36 7 44 16 24 23 20 70
-6 88 -26 18 -35 19 -65 4z m53 -63 c-3 -9 -14 -15 -23 -13 -22 4 -30 38 -11
49 18 11 43 -15 34 -36z"/>
<path d="M6195 3467 c-41 -41 -45 -75 -15 -124 51 -85 180 -47 180 53 0 58
-30 93 -87 101 -39 5 -46 2 -78 -30z m110 -22 c30 -29 32 -68 4 -96 -46 -46
-135 7 -113 68 9 26 45 53 72 53 7 0 24 -11 37 -25z"/>
<path d="M6012 3334 c-28 -19 -30 -74 -4 -97 42 -38 102 -8 102 50 0 54 -52
80 -98 47z m68 -48 c0 -29 -28 -42 -48 -22 -20 20 -8 46 23 46 20 0 25 -5 25
-24z"/>
<path d="M3850 1626 c0 -11 19 -16 73 -20 145 -11 376 -27 527 -36 85 -5 190
-13 234 -16 65 -6 78 -5 74 7 -6 19 -49 25 -263 39 -99 6 -276 18 -393 26
-259 17 -252 17 -252 0z"/>
<path d="M4758 1507 c-2 -19 -2 -210 0 -425 4 -325 7 -392 18 -392 12 0 14 47
14 273 0 309 -10 577 -20 577 -5 0 -10 -15 -12 -33z"/>
</g>
</svg>
