<?xml version="1.0" standalone="no"?>
<!DOCTYPE svg PUBLIC "-//W3C//DTD SVG 20010904//EN"
 "http://www.w3.org/TR/2001/REC-SVG-20010904/DTD/svg10.dtd">
<svg version="1.0" xmlns="http://www.w3.org/2000/svg"
 width="1024.000000pt" height="559.000000pt" viewBox="0 0 1024.000000 559.000000"
 preserveAspectRatio="xMidYMid meet">
<metadata>
Created by potrace 1.16, written by Peter Selinger 2001-2019
</metadata>
<g transform="translate(0.000000,559.000000) scale(0.100000,-0.100000)"
fill="#000000" stroke="none">
<path d="M5042 4739 c-78 -13 -200 -67 -245 -108 -22 -20 -50 -58 -63 -85 -12
-27 -27 -52 -31 -55 -23 -16 -62 -81 -78 -130 -22 -69 -16 -191 14 -278 26
-78 105 -213 161 -276 47 -53 48 -64 15 -174 -18 -61 -30 -69 -163 -113 -228
-75 -346 -144 -401 -234 -60 -101 -66 -139 -66 -454 0 -329 -5 -314 106 -327
l61 -7 24 -53 25 -53 -20 -39 c-31 -61 -35 -102 -12 -146 16 -31 18 -44 9 -69
-12 -34 2 -97 27 -118 27 -22 19 -99 -19 -181 -68 -147 -123 -409 -166 -788
-14 -127 -18 -187 -10 -195 19 -19 29 9 45 139 57 457 88 620 151 786 40 106
35 104 134 78 47 -13 86 -23 87 -24 1 0 -8 -34 -21 -75 -28 -88 -54 -231 -63
-348 -5 -72 -4 -82 11 -82 9 0 16 1 16 3 0 56 54 355 78 432 15 48 22 60 38
58 152 -19 252 -24 366 -20 156 6 140 15 157 -93 18 -116 33 -291 40 -465 5
-142 9 -170 21 -170 11 0 16 15 18 65 4 83 -25 479 -43 589 -8 47 -13 86 -12
88 2 1 17 6 35 9 31 6 31 6 51 -62 12 -38 32 -122 46 -188 13 -65 27 -121 30
-124 3 -3 10 -1 17 6 12 12 -6 120 -48 281 -13 52 -22 97 -19 100 12 11 98 40
106 35 5 -2 21 -46 38 -97 29 -93 60 -255 106 -562 44 -292 54 -348 65 -359
30 -30 27 24 -20 329 -76 494 -86 541 -131 660 -30 79 -28 156 7 203 44 57 57
102 63 222 l6 115 24 -40 c136 -226 276 -273 403 -137 88 93 159 240 247 509
32 99 64 189 70 200 6 12 31 33 55 47 25 14 54 38 66 53 l20 26 78 -26 c122
-43 175 -32 188 40 6 31 3 40 -19 59 -14 12 -31 24 -38 26 -26 9 20 99 209
406 77 126 91 222 38 257 -13 8 -70 26 -127 39 -57 13 -157 38 -222 55 -108
28 -120 30 -146 17 -68 -35 -64 -123 7 -152 6 -3 -24 -61 -75 -148 -28 -48
-55 -100 -58 -115 -3 -16 -27 -44 -60 -70 -83 -66 -125 -169 -125 -306 0 -44
-9 -71 -49 -152 -46 -90 -145 -249 -176 -282 -11 -11 -16 -8 -30 19 -16 31
-16 33 4 54 12 12 21 29 21 38 0 9 -18 56 -41 105 -23 48 -66 146 -95 216 -68
160 -88 192 -161 256 -42 37 -66 70 -88 116 -34 73 -62 92 -120 81 -49 -10
-46 14 9 67 49 48 83 109 117 212 21 65 23 85 21 261 -2 152 1 198 13 227 49
117 -25 271 -164 342 -100 51 -235 72 -339 54z m238 -56 c136 -37 227 -131
237 -245 4 -40 2 -58 -6 -58 -6 0 -11 8 -11 18 0 29 -59 122 -86 134 -22 10
-27 8 -60 -31 -33 -38 -90 -78 -100 -69 -2 2 2 20 8 40 12 40 5 70 -14 63 -7
-3 -24 -21 -37 -40 -23 -34 -77 -75 -99 -75 -7 0 -10 15 -9 36 3 52 -16 52
-47 1 -14 -25 -48 -61 -76 -81 -28 -20 -55 -48 -60 -62 -6 -14 -10 -61 -10
-106 l0 -80 -31 26 c-38 32 -90 35 -119 6 -15 -15 -20 -33 -20 -79 0 -66 24
-113 77 -146 29 -18 32 -25 33 -72 0 -29 -2 -53 -5 -53 -8 0 -106 151 -136
210 -82 161 -76 334 15 439 17 20 42 57 55 83 27 54 69 86 161 124 112 46 219
51 340 17z m167 -263 c17 -36 35 -79 38 -97 6 -32 6 -32 -29 -26 -45 7 -86 -3
-86 -22 0 -11 12 -15 48 -15 26 0 53 -4 60 -9 10 -6 14 -47 15 -162 2 -164 -7
-213 -63 -332 -22 -46 -52 -81 -36 -41 29 71 0 192 -47 196 -95 6 -158 -43
-128 -100 6 -11 24 -23 40 -27 33 -7 33 -8 -9 -98 -19 -40 -26 -47 -44 -41
-58 17 -126 56 -174 99 -29 26 -55 45 -58 42 -25 -24 78 -124 163 -157 32 -13
60 -25 62 -26 2 -2 -7 -30 -21 -61 -14 -32 -34 -93 -43 -135 -17 -73 -20 -78
-44 -78 -75 0 -210 59 -301 131 l-53 42 45 23 c32 16 49 33 61 61 21 49 45
185 50 291 l4 82 -29 0 c-56 0 -111 94 -89 153 15 38 37 40 75 7 69 -61 96
-33 96 101 0 69 3 81 21 97 12 9 36 29 54 44 23 19 35 24 42 17 12 -12 71 3
109 28 19 12 22 12 27 -2 14 -36 127 1 169 55 13 16 28 28 33 27 6 -2 24 -32
42 -67z m1170 -569 c87 -22 170 -42 186 -46 27 -5 27 -6 12 -35 -8 -16 -15
-36 -15 -46 0 -9 -6 -14 -12 -11 -30 11 -237 67 -288 78 -63 13 -80 24 -80 50
0 15 24 49 35 49 2 0 75 -18 162 -39z m-1289 -3 c-13 -18 -24 -35 -25 -37 -6
-9 -53 20 -53 32 0 17 36 35 73 36 l28 1 -23 -32z m10 -175 c-25 -82 -38 -108
-55 -116 -26 -12 -31 -37 -7 -37 8 0 47 5 85 12 52 8 73 8 81 0 16 -16 8 -21
-48 -28 -78 -9 -96 -14 -91 -27 2 -8 32 -12 93 -12 81 0 89 -2 92 -20 2 -18
-3 -20 -65 -20 -54 0 -68 -3 -68 -15 0 -11 17 -16 70 -20 l70 -5 -1 -44 c-1
-35 -7 -49 -28 -68 -15 -13 -31 -23 -37 -23 -18 0 -8 30 16 46 29 19 24 34 -9
34 -32 0 -44 -18 -56 -78 -16 -86 -48 -140 -102 -175 -45 -30 -55 -44 -128
-187 -141 -277 -252 -444 -372 -556 -66 -63 -105 -84 -154 -84 -77 0 -142 69
-219 232 -70 150 -72 141 26 188 77 37 185 66 211 58 6 -2 -8 -25 -31 -51 -50
-58 -64 -84 -57 -103 9 -23 23 -16 47 24 13 20 111 127 219 237 107 110 216
228 242 263 48 64 54 80 107 285 17 64 48 152 70 195 21 42 53 111 71 152 18
41 37 81 44 89 25 31 17 -43 -16 -146z m1576 91 c19 -50 -8 -116 -119 -294
-119 -188 -185 -334 -185 -407 0 -13 -2 -23 -4 -23 -7 0 -200 68 -237 84 l-36
15 -6 88 -6 88 40 41 c33 34 42 51 46 88 6 50 -7 76 -38 76 -15 0 -9 16 36 93
30 52 57 106 61 121 4 18 11 25 23 22 9 -3 34 -9 56 -14 22 -5 98 -26 168 -47
108 -32 132 -36 153 -26 30 13 27 37 -5 34 -16 -2 -21 3 -21 21 0 45 60 77 74
40z m-2161 -324 c78 -64 203 -127 282 -142 33 -6 62 -12 63 -14 2 -1 -3 -27
-12 -58 -11 -38 -36 -80 -78 -133 -67 -85 -281 -303 -296 -303 -6 0 -23 52
-38 115 -15 64 -33 124 -40 133 -27 37 -27 -20 -1 -137 15 -64 27 -119 27
-123 0 -3 -28 -9 -62 -13 -81 -9 -170 -45 -281 -112 -48 -29 -90 -53 -93 -53
-3 0 -4 118 -2 263 4 208 8 272 21 312 39 119 113 187 275 252 97 39 153 60
165 62 4 0 36 -22 70 -49z m1617 12 c0 -18 -15 -44 -45 -79 l-46 -52 7 -79 c5
-63 3 -86 -10 -112 -9 -18 -16 -39 -16 -47 0 -18 29 -17 36 2 8 19 24 19 66 1
18 -8 42 -17 52 -21 18 -5 18 -7 -4 -30 -13 -14 -43 -36 -66 -50 -48 -28 -51
-34 -130 -274 -92 -280 -204 -479 -295 -526 -87 -46 -178 18 -281 197 -42 71
-48 90 -48 138 l0 55 70 38 c39 21 90 54 115 72 l44 34 19 -42 c19 -42 19 -42
-5 -80 -13 -21 -26 -51 -30 -67 -9 -49 23 -38 51 18 13 26 61 99 106 162 45
63 107 165 137 226 50 101 56 120 64 205 15 160 27 187 119 269 44 38 82 70
85 70 3 0 5 -12 5 -28z m-736 -176 c18 -28 61 -118 96 -201 34 -82 76 -177 93
-210 l30 -60 -53 -46 c-53 -47 -181 -129 -200 -129 -6 0 -8 10 -6 23 3 12 8
92 11 179 4 112 3 158 -5 163 -7 4 -15 3 -20 -1 -8 -8 -21 -227 -40 -649 -4
-99 -13 -193 -19 -210 -33 -81 -106 -131 -226 -155 -33 -6 -69 -14 -80 -17
-12 -4 0 16 35 55 71 78 115 153 156 260 41 109 52 166 33 160 -8 -3 -28 -43
-45 -90 -60 -167 -143 -295 -234 -361 -42 -30 -52 -32 -139 -36 -111 -4 -241
7 -241 20 0 5 4 9 10 9 37 0 250 176 250 207 0 24 -26 13 -65 -28 -54 -55
-150 -123 -220 -155 -48 -22 -66 -26 -114 -21 -83 9 -182 44 -209 74 -29 32
-27 77 3 79 11 1 24 2 28 3 5 0 -10 22 -32 47 -40 46 -47 67 -35 112 9 32 22
27 26 -10 3 -31 5 -33 40 -30 26 2 47 -5 73 -23 48 -32 118 -34 178 -4 23 12
78 58 122 103 118 119 216 270 358 552 55 108 73 135 107 156 22 15 40 23 40
19 0 -4 -13 -52 -30 -107 -34 -114 -34 -114 -16 -114 7 0 20 19 29 43 23 59
67 216 67 236 0 9 5 32 10 52 8 29 17 38 45 46 l35 11 0 -56 c0 -63 -24 -293
-40 -387 -13 -78 -13 -85 4 -85 24 0 48 143 71 420 8 96 18 192 21 212 l6 38
30 -22 c17 -11 45 -44 62 -72z m1050 -182 c19 -7 21 -35 4 -52 -23 -23 -38
-13 -38 23 0 35 5 40 34 29z m-2357 -524 c11 -29 11 -30 -20 -29 -18 0 -41 4
-51 8 -17 6 -15 10 15 29 19 12 36 22 39 22 3 0 11 -13 17 -30z m343 -634
c140 -23 364 -31 490 -18 90 10 179 29 268 57 18 6 22 4 22 -12 0 -39 -46 -62
-183 -95 -124 -29 -433 -32 -572 -4 -196 39 -258 67 -242 111 5 10 16 9 60 -5
30 -10 101 -26 157 -34z"/>
<path d="M5109 4281 c-43 -14 -69 -31 -69 -46 0 -19 7 -19 60 0 23 8 62 15 86
15 31 0 44 4 44 14 0 25 -63 34 -121 17z"/>
<path d="M5320 4218 c0 -12 12 -61 26 -106 30 -94 27 -102 -34 -102 -26 0 -33
-4 -30 -17 2 -13 14 -19 40 -21 51 -4 92 34 82 75 -34 135 -84 236 -84 171z"/>
<path d="M5411 4196 c-15 -18 -3 -46 19 -46 10 0 21 7 24 16 6 16 -9 44 -24
44 -4 0 -13 -6 -19 -14z"/>
<path d="M5137 4194 c-12 -13 -7 -52 7 -57 18 -7 39 17 34 40 -3 18 -29 29
-41 17z"/>
<path d="M6494 3668 c-10 -16 5 -24 114 -57 118 -37 157 -42 157 -22 0 22
-260 98 -271 79z"/>
<path d="M6512 3534 c-24 -17 -30 -44 -9 -44 7 0 18 5 24 11 6 6 21 9 34 7 35
-5 37 -41 4 -65 -66 -46 -85 -66 -85 -89 0 -31 24 -31 38 1 6 13 29 33 51 45
66 33 82 92 35 129 -32 25 -61 27 -92 5z"/>
<path d="M6450 3270 c0 -15 5 -20 18 -18 9 2 17 10 17 18 0 8 -8 16 -17 18
-13 2 -18 -3 -18 -18z"/>
<path d="M5111 2581 c-82 -115 -202 -245 -300 -325 -85 -70 -210 -136 -256
-136 -37 0 -56 -17 -34 -31 35 -22 168 30 274 106 117 83 253 229 355 380 48
70 61 105 41 105 -5 0 -41 -45 -80 -99z"/>
<path d="M5795 4094 c-33 -20 -75 -45 -92 -56 -34 -21 -44 -48 -18 -48 28 0
196 104 193 119 -5 25 -22 22 -83 -15z"/>
<path d="M5686 3901 c-15 -23 26 -32 140 -29 104 3 119 5 122 21 3 15 -8 17
-127 17 -71 0 -132 -4 -135 -9z"/>
<path d="M5657 3793 c-14 -14 -4 -23 84 -78 65 -42 93 -55 101 -47 17 17 -3
35 -91 87 -83 48 -84 49 -94 38z"/>
</g>
</svg>
