<?xml version="1.0" standalone="no"?>
<!DOCTYPE svg PUBLIC "-//W3C//DTD SVG 20010904//EN"
 "http://www.w3.org/TR/2001/REC-SVG-20010904/DTD/svg10.dtd">
<svg version="1.0" xmlns="http://www.w3.org/2000/svg"
 width="1024.000000pt" height="559.000000pt" viewBox="0 0 1024.000000 559.000000"
 preserveAspectRatio="xMidYMid meet">
<metadata>
Created by potrace 1.16, written by Peter Selinger 2001-2019
</metadata>
<g transform="translate(0.000000,559.000000) scale(0.100000,-0.100000)"
fill="#000000" stroke="none">
<path d="M5049 4740 c-78 -12 -183 -54 -239 -95 -50 -37 -100 -100 -100 -128
0 -9 -13 -31 -29 -49 -101 -116 -108 -298 -18 -478 37 -74 98 -161 151 -214
l37 -36 -12 -63 c-15 -74 -42 -105 -114 -132 -380 -138 -439 -182 -548 -407
-113 -233 -188 -405 -182 -419 3 -8 21 -25 41 -38 26 -18 34 -30 31 -45 -75
-330 -74 -505 3 -569 40 -34 126 -51 214 -43 39 4 78 9 86 11 30 9 43 -12 44
-67 1 -36 -5 -68 -20 -98 -31 -65 -72 -198 -99 -325 -47 -219 -103 -671 -85
-689 20 -20 29 13 50 179 28 232 47 356 70 472 41 206 107 390 136 379 8 -3
47 -15 87 -27 40 -12 73 -23 75 -24 2 -2 -6 -34 -18 -71 -20 -67 -52 -246 -65
-370 -5 -43 -3 -64 5 -69 19 -12 26 9 38 109 14 108 45 269 67 345 16 52 17
53 48 47 84 -17 254 -28 365 -23 67 3 122 4 122 3 0 -2 5 -28 10 -57 19 -98
40 -322 47 -497 6 -165 13 -202 35 -171 19 27 -7 454 -38 637 -9 51 -14 95
-12 97 2 2 16 5 32 7 27 3 31 -1 48 -49 10 -29 29 -110 43 -179 14 -69 28
-130 31 -135 10 -17 24 2 24 31 0 39 -45 254 -63 306 l-15 42 55 20 54 20 20
-45 c31 -74 71 -245 109 -468 16 -98 27 -166 61 -395 15 -104 20 -120 34 -120
21 0 22 18 9 110 -8 47 -25 164 -39 260 -44 299 -90 514 -134 631 -28 73 -20
149 23 202 l30 38 26 -93 c15 -51 52 -158 84 -238 32 -80 71 -183 87 -230 29
-83 29 -85 13 -133 -17 -50 -17 -56 5 -249 12 -108 17 -125 42 -133 14 -5 18
-12 13 -23 -18 -45 -16 -64 10 -88 14 -14 26 -29 26 -33 0 -17 32 -21 58 -7
55 30 103 109 126 210 23 96 21 120 -24 279 -37 134 -51 225 -65 412 -17 223
-45 396 -85 510 -12 33 -32 138 -45 234 l-24 174 47 42 c45 41 46 43 35 76
-25 79 -162 428 -186 474 -57 113 -259 254 -363 255 -34 0 -57 19 -46 36 4 6
23 14 43 18 47 8 98 43 121 82 29 50 87 228 99 303 8 56 7 87 -4 153 -27 149
-29 185 -12 217 8 17 15 54 15 84 0 130 -94 246 -241 296 -69 23 -184 33 -260
21z m237 -57 c145 -48 233 -158 222 -274 l-3 -34 -21 46 c-22 48 -89 129 -106
129 -5 0 -33 -25 -62 -55 -61 -64 -90 -73 -75 -23 20 73 -2 93 -42 37 -21 -29
-94 -89 -109 -89 -4 0 -7 16 -6 36 1 52 -17 52 -48 0 -14 -25 -48 -64 -76 -87
-62 -52 -71 -79 -63 -182 l6 -82 -32 28 c-76 63 -155 6 -138 -100 9 -51 52
-112 93 -129 27 -11 34 -20 33 -42 0 -15 -4 -36 -8 -47 -7 -16 -16 -9 -62 55
-77 105 -87 123 -116 198 -22 56 -26 84 -27 167 -1 109 14 154 68 204 14 14
26 31 26 38 0 49 69 127 150 168 107 56 292 73 396 38z m165 -291 c17 -35 29
-65 27 -68 -3 -2 -19 1 -36 7 -39 13 -77 8 -77 -11 0 -9 15 -17 42 -22 65 -11
83 -24 83 -61 0 -18 7 -68 16 -112 10 -51 13 -100 9 -135 -8 -63 -76 -276
-100 -313 -36 -55 -127 -72 -221 -40 -53 17 -139 70 -169 103 -23 25 -35 26
-35 1 0 -22 67 -84 120 -111 19 -9 59 -25 88 -35 40 -13 52 -21 48 -33 -21
-79 -27 -125 -18 -134 16 -16 30 -1 37 42 6 34 9 39 21 29 14 -12 17 -61 5
-114 -8 -39 -58 -57 -157 -56 -83 0 -149 17 -237 62 -65 33 -157 96 -157 107
0 4 23 20 51 35 73 41 95 103 100 291 l3 100 -31 8 c-62 16 -110 109 -84 164
14 31 41 31 71 -1 13 -14 34 -25 46 -25 37 0 48 33 40 129 l-6 85 50 47 c36
33 59 48 78 47 32 0 80 17 103 38 15 13 17 13 22 -1 15 -38 127 -1 169 55 l22
30 23 -22 c13 -13 38 -51 54 -86z m-68 -1020 c-3 -113 -40 -310 -83 -438 -27
-83 -28 -116 -1 -100 15 10 66 180 92 306 11 58 24 156 27 218 7 107 8 112 25
99 48 -35 46 -409 -3 -666 -14 -72 -13 -91 4 -91 18 0 21 10 40 125 26 153 38
361 29 478 -5 59 -6 107 -2 107 3 0 27 -16 52 -35 81 -62 97 -94 236 -460 27
-71 47 -134 44 -140 -7 -18 -95 -81 -167 -121 l-69 -38 6 175 c6 168 0 216
-22 194 -6 -6 -17 -157 -26 -345 -8 -185 -19 -370 -25 -413 -15 -117 -52 -179
-129 -213 -35 -16 -201 -55 -201 -48 0 2 20 29 45 59 42 52 64 99 52 111 -10
10 -25 -5 -61 -60 -20 -28 -57 -68 -83 -87 l-48 -34 -140 1 c-77 0 -153 4
-169 8 l-30 7 55 31 c83 47 150 118 111 118 -4 0 -32 -19 -62 -41 -74 -56
-150 -89 -206 -89 -48 0 -203 36 -218 50 -5 5 11 13 35 20 24 6 129 38 233 71
166 54 196 60 240 55 28 -3 92 -9 142 -12 151 -11 284 29 284 85 0 11 15 28
35 39 21 13 37 32 41 49 4 15 13 35 21 45 8 9 13 29 11 45 -2 24 -8 28 -36 31
-30 3 -31 5 -18 23 7 11 11 29 9 40 -10 36 -44 40 -155 19 -145 -28 -149 -27
-110 13 40 42 57 88 42 116 -6 12 -19 21 -28 21 -33 0 -186 -105 -258 -176
-58 -59 -78 -73 -113 -79 -55 -9 -60 -3 -21 25 46 33 212 230 278 330 134 204
252 507 252 649 0 46 9 57 29 36 13 -13 16 -36 14 -113z m-500 -22 c34 -16 89
-37 122 -46 69 -18 197 -21 238 -5 37 14 36 3 -9 -117 -95 -253 -249 -486
-457 -690 l-64 -63 -128 -9 c-70 -5 -131 -8 -135 -5 -3 2 -2 25 4 50 10 42 13
45 44 45 41 0 41 1 81 200 32 160 38 220 21 220 -17 0 -27 -36 -60 -205 -18
-88 -35 -163 -39 -167 -7 -8 -148 27 -227 56 -61 21 -212 97 -224 111 -8 9 0
37 26 96 75 172 203 425 233 460 45 54 129 106 258 159 l116 48 69 -54 c38
-29 97 -67 131 -84z m317 -704 c0 -8 -28 -41 -61 -74 -34 -34 -58 -65 -55 -71
10 -16 88 -13 211 9 60 11 112 17 115 14 10 -10 -34 -35 -90 -50 -90 -25 -123
-38 -119 -49 4 -11 38 -11 179 -1 l95 6 -38 -18 c-20 -10 -82 -27 -137 -37
-65 -12 -100 -23 -100 -31 0 -7 3 -15 8 -17 7 -5 171 18 205 29 9 3 17 1 17
-3 0 -16 -65 -41 -146 -58 -87 -18 -97 -22 -88 -37 5 -7 33 -9 83 -5 65 6 73
4 58 -7 -47 -36 -161 -42 -374 -20 -54 6 -75 2 -185 -35 -276 -91 -413 -122
-538 -124 -137 -2 -176 32 -187 161 -5 68 12 208 42 339 l16 71 57 -25 c31
-14 102 -41 157 -59 108 -36 104 -30 84 -105 -8 -32 -14 -37 -47 -43 -73 -12
-112 -27 -112 -43 0 -12 8 -14 43 -9 23 3 127 12 230 20 207 17 337 33 372 46
12 5 40 31 61 58 22 27 53 59 69 71 30 22 168 110 173 111 1 0 2 -6 2 -14z
m575 -58 c10 -116 34 -246 60 -333 41 -134 64 -273 80 -490 14 -179 36 -316
69 -433 20 -68 36 -140 36 -160 -1 -96 -47 -211 -109 -266 -31 -28 -28 -2 9
76 35 73 39 141 13 191 -9 18 -17 46 -17 62 -1 42 -28 39 -43 -5 -7 -19 -12
-61 -12 -92 -1 -66 -8 -88 -27 -88 -8 0 -14 1 -15 3 0 1 -5 43 -10 92 -4 50
-11 115 -15 145 -4 38 -1 72 10 109 15 51 15 55 -10 129 -15 42 -54 149 -89
237 -119 305 -131 362 -116 538 6 72 11 162 11 199 l0 68 58 29 c31 16 66 36
77 45 11 8 23 16 26 16 4 0 10 -33 14 -72z m-1260 -614 c76 -23 285 -53 420
-60 170 -9 387 18 497 61 14 6 16 2 9 -22 -9 -36 -51 -56 -173 -85 -134 -31
-405 -31 -565 0 -204 41 -253 61 -253 108 0 17 3 17 65 -2z m1368 -982 c-16
-32 -29 -49 -31 -39 -2 8 6 34 18 56 11 23 24 62 28 88 l7 48 3 -49 c2 -37 -3
-61 -25 -104z"/>
<path d="M5118 4310 c-41 -12 -98 -50 -98 -64 0 -25 13 -25 53 1 22 14 61 28
86 32 32 4 47 11 49 24 3 13 -3 17 -30 16 -18 0 -45 -4 -60 -9z"/>
<path d="M5310 4235 c0 -15 14 -60 32 -98 39 -84 33 -101 -36 -105 -67 -4 -55
-27 14 -27 45 0 56 4 72 26 l20 26 -38 89 c-20 49 -43 96 -51 104 -11 12 -13
10 -13 -15z"/>
<path d="M5403 4218 c-40 -19 -27 -36 24 -33 53 2 68 20 28 35 -14 5 -27 10
-28 9 -1 0 -12 -5 -24 -11z"/>
<path d="M5103 4185 c-24 -17 -31 -45 -13 -45 6 0 22 7 35 16 17 11 34 14 56
9 26 -6 30 -4 27 12 -4 25 -74 30 -105 8z"/>
<path d="M5440 4001 c0 -5 7 -25 16 -46 19 -46 40 -35 23 12 -9 29 -39 54 -39
34z"/>
<path d="M5106 3959 c-15 -18 -26 -43 -26 -60 0 -37 17 -38 25 0 3 16 15 37
26 47 20 18 26 44 10 44 -5 0 -21 -14 -35 -31z"/>
<path d="M5271 3939 c-132 -10 -135 -11 -127 -51 25 -124 171 -189 240 -107
29 34 62 129 53 153 -7 17 -6 17 -166 5z m129 -28 c0 -17 -26 -29 -83 -36 -61
-7 -137 1 -137 15 0 4 44 12 98 17 53 6 103 11 110 12 6 0 12 -3 12 -8z m-92
-108 l37 -17 -37 -4 c-38 -3 -78 11 -78 28 0 15 37 12 78 -7z"/>
<path d="M5302 3723 c-28 -3 -42 -9 -39 -16 8 -26 97 -19 97 8 0 8 -3 14 -7
13 -5 -1 -27 -3 -51 -5z"/>
<path d="M6141 4216 c-6 -13 -13 -59 -17 -102 -6 -63 -5 -76 7 -72 8 2 15 16
17 30 4 37 47 44 69 12 18 -28 33 -31 33 -6 -1 24 -72 155 -87 160 -7 2 -17
-8 -22 -22z m42 -60 c6 -15 -1 -26 -15 -26 -4 0 -8 9 -8 20 0 23 15 27 23 6z"/>
<path d="M6040 4180 c0 -38 -2 -40 -30 -40 -27 0 -30 3 -30 30 0 20 -5 30 -15
30 -18 0 -18 -11 -4 -101 9 -49 16 -69 27 -69 10 0 13 9 10 35 -3 23 1 36 10
40 29 11 40 4 46 -30 4 -21 13 -35 21 -35 8 0 15 3 15 8 0 14 -21 137 -26 155
-10 31 -24 18 -24 -23z"/>
<path d="M5745 4055 c-77 -41 -103 -65 -71 -65 25 0 166 73 166 87 0 24 -17
20 -95 -22z"/>
<path d="M5680 3901 c0 -11 25 -16 123 -26 53 -6 58 -5 55 12 -3 16 -15 18
-91 21 -53 2 -87 -1 -87 -7z"/>
<path d="M5967 3853 c-11 -18 -57 -146 -57 -159 0 -28 29 -13 40 20 10 30 14
34 33 27 21 -8 25 -22 16 -66 -3 -13 1 -20 10 -20 21 0 69 151 54 166 -9 9
-15 2 -27 -25 -11 -28 -19 -34 -33 -29 -31 11 -32 12 -22 45 8 30 -2 61 -14
41z"/>
<path d="M5640 3796 c0 -18 117 -99 131 -91 14 9 -12 37 -71 75 -53 34 -60 36
-60 16z"/>
<path d="M6136 3772 c-32 -36 -86 -117 -86 -129 0 -19 19 -16 38 6 23 27 62
12 62 -24 0 -36 26 -31 34 6 13 67 2 159 -19 159 -6 0 -19 -8 -29 -18z m10
-79 c-11 -11 -19 6 -11 24 8 17 8 17 12 0 3 -10 2 -21 -1 -24z"/>
</g>
</svg>
