<?xml version="1.0" standalone="no"?>
<!DOCTYPE svg PUBLIC "-//W3C//DTD SVG 20010904//EN"
 "http://www.w3.org/TR/2001/REC-SVG-20010904/DTD/svg10.dtd">
<svg version="1.0" xmlns="http://www.w3.org/2000/svg"
 width="1024.000000pt" height="559.000000pt" viewBox="0 0 1024.000000 559.000000"
 preserveAspectRatio="xMidYMid meet">
<metadata>
Created by potrace 1.16, written by Peter Selinger 2001-2019
</metadata>
<g transform="translate(0.000000,559.000000) scale(0.100000,-0.100000)"
fill="#000000" stroke="none">
<path d="M6034 4725 c-127 -40 -224 -161 -224 -280 0 -48 40 -117 80 -138 108
-56 222 65 148 158 -26 33 -18 52 33 77 116 58 223 -50 175 -177 -13 -33 -42
-67 -111 -131 -120 -110 -149 -163 -143 -260 4 -58 8 -70 32 -90 60 -53 146
-15 146 64 0 62 36 115 126 185 123 95 157 142 172 241 25 161 -65 305 -221
351 -60 18 -156 18 -213 0z m241 -49 c106 -50 160 -135 159 -251 0 -112 -38
-172 -171 -271 -91 -68 -112 -99 -123 -176 -6 -40 -15 -67 -26 -75 -48 -35
-89 4 -88 82 2 84 33 135 135 222 101 86 131 135 133 217 1 92 -54 155 -142
164 -68 6 -115 -12 -157 -61 -19 -22 -35 -43 -35 -46 0 -3 14 -14 30 -23 25
-14 30 -23 30 -57 0 -46 -26 -71 -73 -71 -81 0 -117 84 -85 194 16 55 99 138
158 159 26 9 79 16 125 16 64 1 90 -4 130 -23z"/>
<path d="M4985 4713 c-50 -12 -113 -36 -152 -59 -49 -28 -111 -98 -120 -134
-3 -14 -19 -40 -34 -58 -42 -47 -59 -86 -70 -154 -14 -87 2 -186 45 -272 37
-76 145 -230 179 -258 20 -15 21 -19 8 -70 -33 -131 -40 -138 -239 -217 -135
-54 -185 -80 -252 -130 -70 -53 -115 -121 -164 -246 -21 -55 -67 -173 -102
-262 -35 -89 -64 -167 -64 -173 0 -6 16 -20 35 -31 19 -12 35 -26 35 -32 0 -7
-7 -61 -16 -121 -23 -154 -16 -287 16 -346 14 -24 41 -55 60 -68 31 -21 43
-23 105 -19 39 3 82 9 98 12 21 6 27 4 27 -8 0 -9 12 -29 26 -46 23 -27 25
-38 21 -84 -3 -28 -21 -97 -41 -153 -41 -116 -77 -285 -112 -534 -51 -355 -55
-426 -24 -394 5 5 16 63 25 129 30 231 35 261 59 415 27 168 75 365 108 442
16 39 23 46 37 39 9 -5 46 -17 81 -26 36 -9 66 -18 67 -19 1 -1 -7 -31 -18
-66 -41 -132 -87 -416 -70 -433 15 -15 27 24 41 123 15 108 54 287 75 335 14
35 17 37 48 31 75 -16 270 -26 373 -20 127 7 115 15 133 -91 19 -112 31 -241
40 -423 6 -100 13 -187 16 -192 4 -6 11 -7 17 -4 20 12 -13 509 -43 657 -7 31
-10 60 -7 63 3 3 21 7 40 11 l35 5 22 -71 c20 -66 38 -143 58 -250 9 -52 33
-68 33 -23 0 32 -29 181 -54 273 -8 30 -16 61 -18 67 -2 7 23 23 55 36 l58 24
13 -33 c38 -90 74 -274 116 -595 52 -402 54 -410 76 -410 17 0 17 21 4 104 -5
34 -21 149 -35 256 -49 376 -87 573 -128 670 -21 49 -11 136 19 169 36 39 54
105 54 199 l0 84 40 -58 c45 -68 93 -104 148 -111 123 -16 230 98 431 459 80
143 83 147 129 164 233 86 238 89 322 216 67 101 73 117 68 174 -2 33 -7 40
-27 42 -13 2 -31 10 -38 18 -19 19 -42 18 -74 -4 -105 -70 -139 -91 -178 -106
-24 -9 -45 -15 -47 -13 -2 2 5 21 16 42 23 44 26 85 8 103 -21 21 -56 14 -77
-16 -11 -16 -51 -65 -89 -110 -58 -69 -72 -94 -90 -155 -18 -63 -32 -85 -105
-172 -47 -55 -103 -117 -124 -138 l-40 -38 -17 42 -17 42 30 28 c17 15 31 31
31 34 0 3 -12 34 -26 68 -15 34 -53 132 -86 217 -32 85 -75 182 -93 216 -35
62 -96 126 -140 146 -14 6 -32 22 -40 35 -20 30 -156 93 -200 93 -29 0 -32 2
-27 25 3 19 11 25 31 25 50 0 106 23 137 55 38 41 79 149 99 262 13 75 13 95
0 176 -19 117 -19 187 0 223 19 37 19 115 1 159 -8 19 -36 64 -62 100 -52 74
-97 102 -205 129 -61 15 -234 21 -284 9z m235 -37 c111 -20 175 -50 208 -100
16 -22 40 -58 55 -79 27 -39 45 -116 32 -137 -4 -7 -21 16 -40 57 -36 72 -74
117 -91 105 -5 -4 -20 -24 -33 -44 -20 -33 -69 -78 -85 -78 -3 0 -6 22 -6 49
0 28 -4 52 -9 55 -5 3 -26 -18 -47 -46 -39 -52 -95 -98 -120 -98 -9 0 -10 8
-3 32 7 25 5 36 -6 47 -12 13 -17 9 -34 -33 -12 -26 -44 -71 -72 -101 l-52
-55 5 -70 c3 -38 4 -70 2 -70 -2 0 -14 11 -28 25 -48 48 -125 26 -142 -40 -17
-66 25 -161 82 -187 20 -9 24 -18 24 -55 0 -27 -4 -42 -10 -38 -16 10 -116
149 -149 207 -80 142 -80 314 1 412 18 22 42 61 54 86 34 73 121 130 235 155
82 17 136 18 229 1z m223 -274 c14 -31 29 -69 32 -84 7 -27 6 -28 -36 -28 -24
0 -50 -4 -58 -9 -25 -16 0 -31 53 -31 l53 0 8 -97 c17 -204 5 -295 -55 -419
-39 -80 -72 -99 -161 -92 -73 6 -151 39 -222 93 -54 41 -59 42 -55 13 4 -28
109 -100 179 -123 30 -10 55 -19 57 -20 1 -1 -5 -34 -14 -73 -9 -40 -13 -80
-9 -89 6 -17 7 -17 21 1 8 11 14 29 14 39 0 16 3 17 15 7 16 -13 21 -95 7
-118 -20 -31 -168 -43 -262 -21 -66 15 -178 72 -229 117 l-44 38 45 26 c63 38
99 131 114 294 4 41 11 74 15 74 5 0 9 6 9 14 0 8 -16 16 -39 20 -44 7 -73 36
-91 92 -14 42 1 90 32 99 21 7 66 -17 75 -41 3 -8 18 -14 35 -14 l31 0 -6 82
-5 83 43 46 c28 30 47 43 53 37 14 -14 99 26 139 64 l32 31 -2 -29 c-2 -26 1
-29 27 -27 38 3 101 45 128 87 27 42 36 37 71 -42z m-53 -920 c74 -36 75 -38
82 -82 12 -78 9 -241 -8 -404 -8 -87 -13 -160 -10 -164 24 -24 45 117 53 351
3 114 8 207 11 207 2 0 21 -14 42 -30 58 -46 97 -116 170 -304 37 -94 77 -194
88 -223 l21 -52 -42 -34 c-40 -33 -138 -87 -182 -101 -20 -6 -20 -3 -12 165 6
124 6 174 -3 183 -8 8 -13 8 -19 -2 -6 -11 -17 -217 -37 -716 -4 -101 -10
-138 -25 -167 -34 -68 -106 -108 -236 -133 l-72 -14 55 62 c64 70 132 204 163
317 23 83 26 109 11 109 -5 0 -23 -43 -40 -95 -45 -143 -103 -249 -168 -313
-78 -77 -116 -92 -233 -92 -107 0 -219 10 -218 19 0 3 32 26 72 51 77 49 195
159 245 229 59 82 21 62 -81 -42 -110 -113 -237 -203 -323 -231 -51 -17 -52
-17 -146 14 -95 30 -123 48 -130 84 -2 14 22 31 117 80 66 34 180 99 253 144
77 47 149 84 170 87 200 30 278 56 344 114 20 17 39 43 43 58 3 15 15 39 26
55 11 15 22 38 23 51 2 12 9 34 16 49 13 28 12 33 -18 83 -27 44 -63 44 -158
-3 -43 -22 -94 -43 -112 -47 l-33 -7 26 38 c16 24 25 51 25 76 0 21 11 60 25
88 70 138 139 353 151 469 6 61 4 74 -11 91 -27 30 -2 25 85 -18z m-637 -38
c55 -49 129 -90 217 -120 58 -19 211 -26 263 -11 28 8 28 7 21 -30 -8 -46 -73
-222 -116 -316 -28 -61 -40 -74 -129 -142 -103 -79 -123 -102 -158 -175 -12
-25 -34 -53 -49 -62 -42 -24 -316 -118 -346 -118 -3 0 -6 9 -6 19 0 16 8 20
42 23 50 4 46 -6 89 238 18 105 25 168 19 174 -17 17 -28 -6 -44 -99 -8 -49
-22 -128 -31 -175 -8 -47 -15 -88 -15 -92 0 -14 -50 -8 -153 17 -171 43 -305
102 -293 128 3 7 43 110 90 230 47 120 95 239 108 265 31 63 120 151 188 185
69 34 232 106 244 106 4 1 31 -20 59 -45z m1600 -220 c7 -7 -10 -47 -41 -96
-32 -49 -24 -72 20 -63 62 14 151 55 204 95 30 22 62 43 71 46 27 8 -77 -84
-119 -106 -41 -22 -52 -35 -43 -50 9 -14 90 31 151 84 54 46 80 60 89 46 3 -5
-9 -16 -27 -24 -18 -7 -49 -30 -68 -51 -19 -20 -56 -48 -82 -61 -27 -13 -48
-31 -48 -39 0 -19 13 -19 53 0 32 16 32 15 -7 -20 -30 -26 -37 -38 -28 -47 14
-14 51 9 88 57 31 41 48 46 34 10 -28 -73 -97 -121 -248 -171 -98 -32 -98 -32
-207 -228 -166 -301 -260 -406 -362 -406 -37 0 -50 6 -88 41 -41 38 -101 140
-106 179 -1 8 -1 52 0 96 l1 82 68 27 c37 15 81 35 99 46 34 21 35 21 52 -33
12 -36 11 -40 -23 -84 -20 -26 -36 -57 -36 -70 0 -31 21 -23 44 17 10 16 70
85 134 152 162 169 204 227 231 315 18 61 32 84 80 135 31 34 66 77 76 95 19
32 27 37 38 26z m310 -134 c-18 -32 -28 -37 -38 -19 -8 13 23 49 42 49 11 0
11 -6 -4 -30z m-1553 -254 c0 -8 -23 -40 -51 -71 -37 -40 -49 -59 -41 -67 17
-17 141 16 237 64 46 23 88 39 92 35 12 -13 -42 -58 -117 -96 -76 -38 -98 -61
-61 -61 26 0 122 48 171 85 24 17 36 22 39 13 6 -17 -74 -84 -139 -115 -59
-29 -74 -43 -61 -56 9 -9 124 44 154 70 9 9 17 11 17 6 0 -17 -70 -74 -117
-95 -24 -10 -43 -25 -43 -33 0 -20 18 -19 65 5 l40 21 -27 -25 c-38 -34 -127
-65 -233 -82 -49 -8 -99 -16 -110 -19 -11 -2 -92 -47 -180 -100 -243 -147
-375 -207 -482 -220 -94 -12 -154 50 -168 173 -5 49 19 314 31 333 2 3 49 -9
104 -28 56 -18 119 -36 142 -39 73 -12 61 -68 -20 -97 -56 -19 -101 -51 -89
-63 4 -4 20 -3 35 3 15 6 72 25 127 43 55 17 150 46 210 65 61 19 134 47 164
62 48 25 59 37 91 98 30 56 52 81 106 123 38 29 76 60 84 67 18 19 30 19 30 1z
m340 -901 c-16 -19 -101 -50 -196 -71 -118 -26 -431 -24 -574 4 -154 30 -214
52 -218 80 -4 28 8 28 84 2 39 -14 81 -20 124 -19 36 1 119 -4 185 -11 191
-19 435 3 554 50 45 18 46 18 49 -2 2 -10 -2 -25 -8 -33z"/>
<path d="M5109 4240 c-19 -10 -41 -25 -48 -33 -20 -25 5 -29 46 -9 21 11 57
23 81 27 26 4 42 12 42 21 0 21 -77 17 -121 -6z"/>
<path d="M5328 4204 c-9 -8 6 -52 41 -123 36 -69 33 -79 -20 -90 -48 -10 -49
-31 -2 -31 47 0 83 23 83 53 0 24 -79 197 -90 197 -4 0 -9 -3 -12 -6z"/>
<path d="M5417 4193 c-4 -3 -7 -17 -7 -30 0 -16 6 -23 20 -23 25 0 36 25 20
45 -14 16 -23 19 -33 8z"/>
<path d="M5151 4156 c-9 -11 -10 -20 -1 -35 13 -25 23 -26 41 -5 9 11 10 20 3
32 -15 22 -29 25 -43 8z"/>
<path d="M5310 3889 c-85 -34 -77 -99 12 -99 49 0 78 24 78 64 0 45 -33 58
-90 35z m50 -44 c0 -11 -11 -15 -37 -15 -36 1 -37 2 -19 15 26 19 56 19 56 0z"/>
<path d="M5336 3761 c-40 -8 -46 -31 -9 -31 15 0 35 5 43 10 22 14 0 28 -34
21z"/>
<path d="M5367 3348 c-4 -62 -19 -169 -33 -238 -30 -142 -33 -163 -19 -170 22
-12 74 244 82 403 5 100 4 117 -9 117 -12 0 -16 -22 -21 -112z"/>
<path d="M4803 2247 c-76 -62 -158 -109 -232 -133 -80 -26 -96 -50 -27 -41 76
11 208 84 298 165 33 30 42 52 20 52 -4 0 -30 -19 -59 -43z"/>
<path d="M6274 2959 c-35 -10 -69 -43 -60 -58 4 -6 20 -2 41 10 20 12 61 23
95 26 41 4 60 10 60 19 0 16 -85 18 -136 3z"/>
<path d="M6053 3783 c-35 -7 -73 -59 -73 -99 0 -89 82 -140 164 -103 25 12 56
63 56 93 0 40 -30 87 -64 101 -36 15 -43 16 -83 8z m87 -55 c29 -32 27 -81 -6
-107 -30 -24 -43 -26 -78 -10 -33 15 -50 57 -37 91 19 50 85 64 121 26z"/>
</g>
</svg>
