<?xml version="1.0" standalone="no"?>
<!DOCTYPE svg PUBLIC "-//W3C//DTD SVG 20010904//EN"
 "http://www.w3.org/TR/2001/REC-SVG-20010904/DTD/svg10.dtd">
<svg version="1.0" xmlns="http://www.w3.org/2000/svg"
 width="1024.000000pt" height="559.000000pt" viewBox="0 0 1024.000000 559.000000"
 preserveAspectRatio="xMidYMid meet">
<metadata>
Created by potrace 1.16, written by Peter Selinger 2001-2019
</metadata>
<g transform="translate(0.000000,559.000000) scale(0.100000,-0.100000)"
fill="#000000" stroke="none">
<path d="M4960 4722 c-30 -10 -73 -28 -95 -39 -42 -22 -115 -87 -115 -103 0
-5 -20 -32 -45 -60 -28 -32 -50 -68 -57 -96 -10 -35 -21 -50 -48 -66 -19 -11
-89 -73 -155 -138 -214 -208 -348 -334 -467 -438 -194 -169 -289 -286 -350
-432 -70 -168 -43 -243 111 -304 36 -14 206 -46 247 -46 6 0 22 -28 34 -62 26
-71 76 -128 112 -128 12 1 67 9 121 19 53 9 97 17 98 17 1 -1 13 -95 28 -211
l28 -210 -34 -61 c-39 -72 -44 -132 -13 -182 12 -19 20 -50 20 -76 0 -28 7
-52 19 -68 30 -37 30 -121 1 -178 -60 -118 -122 -403 -170 -780 -24 -190 -25
-230 -5 -230 17 0 20 11 35 150 32 294 77 539 127 700 45 147 68 194 91 185 9
-4 50 -17 90 -28 58 -16 72 -24 67 -36 -30 -76 -85 -366 -85 -450 0 -70 22
-63 32 10 18 130 41 251 66 347 l27 104 30 -7 c89 -17 245 -27 361 -22 130 6
132 6 138 -16 11 -44 46 -395 53 -547 11 -213 28 -197 27 25 -1 168 -25 450
-44 516 -6 19 -10 35 -10 35 0 1 12 5 27 9 23 5 33 -1 73 -42 74 -77 109 -103
136 -103 l26 0 -3 -407 c-4 -382 -3 -408 14 -411 16 -3 17 22 17 411 l0 415
32 6 c17 3 32 5 33 4 1 -2 9 -93 19 -203 20 -229 44 -406 57 -419 19 -21 21 9
5 131 -19 152 -46 433 -46 478 0 23 10 44 36 71 19 22 50 62 69 90 55 82 61
84 70 17 5 -32 7 -275 6 -540 -2 -444 2 -519 23 -485 3 5 8 220 12 478 9 593
-4 732 -73 815 -51 60 -128 77 -176 39 -28 -22 -37 -25 -37 -11 0 19 53 72 91
91 43 22 127 27 162 9 33 -17 77 -60 94 -93 19 -37 38 -21 23 20 -39 102 -181
154 -280 104 l-40 -20 0 28 c0 21 8 33 32 47 51 31 89 43 138 44 71 1 116 -16
170 -67 93 -86 110 -178 145 -807 9 -154 23 -352 30 -440 8 -88 15 -166 15
-172 0 -7 7 -13 16 -13 19 0 19 -15 -15 510 -50 775 -59 838 -146 930 -26 27
-40 57 -60 130 -15 52 -35 121 -46 152 -10 32 -19 59 -19 61 0 3 13 20 30 38
16 19 30 40 30 47 0 7 -20 59 -44 115 -25 56 -65 156 -89 222 -24 66 -54 140
-66 163 -30 58 -98 125 -158 156 -27 13 -66 41 -85 60 -20 20 -44 36 -53 36
-9 0 -28 9 -42 20 -14 11 -41 20 -60 20 -30 0 -34 3 -31 22 2 17 14 25 52 34
26 7 59 23 73 36 34 31 68 108 93 211 24 100 27 170 16 329 -8 98 -7 121 6
140 22 34 31 100 19 143 -13 46 -91 165 -131 198 -60 51 -133 70 -275 74 -105
2 -141 -1 -185 -15z m298 -27 c80 -19 133 -46 163 -84 83 -103 93 -122 97
-181 3 -36 0 -60 -7 -64 -7 -5 -11 1 -11 14 0 49 -64 150 -95 150 -6 0 -21
-14 -34 -31 -38 -52 -122 -93 -106 -51 3 9 9 29 12 45 7 34 -19 38 -41 5 -16
-22 -92 -78 -107 -78 -4 0 -5 16 -2 35 8 50 -16 46 -56 -10 -38 -53 -54 -66
-43 -33 12 33 6 106 -9 124 -8 10 -20 13 -33 9 -12 -3 -39 -11 -61 -16 -22 -6
-54 -21 -72 -35 -17 -13 -34 -24 -36 -24 -3 0 -33 -16 -67 -35 -34 -19 -64
-35 -67 -35 -16 0 14 61 47 95 21 22 45 54 53 71 27 52 142 118 236 134 76 13
172 11 239 -5z m-282 -239 c-14 -18 -66 -71 -116 -116 -49 -46 -90 -87 -90
-91 0 -24 35 0 128 87 56 53 102 91 102 84 0 -13 -59 -74 -168 -169 -45 -41
-92 -86 -103 -102 -35 -49 -11 -52 43 -5 53 46 94 64 110 48 6 -6 -11 -26 -43
-53 -29 -24 -82 -72 -118 -106 -72 -67 -116 -88 -203 -98 -54 -6 -61 -10 -109
-63 -62 -70 -182 -251 -267 -404 -36 -65 -91 -146 -128 -188 -44 -50 -61 -77
-54 -84 15 -15 57 20 110 90 25 33 50 62 55 65 27 11 68 -218 51 -285 -6 -26
-6 -26 -110 -26 -199 0 -336 32 -405 96 -32 29 -36 37 -34 78 2 53 47 159 109
257 46 73 146 178 274 290 104 89 294 269 455 430 108 107 132 125 240 184
114 61 150 69 109 23 -11 -11 -39 -34 -64 -51 -52 -34 -110 -87 -110 -99 0
-17 23 -6 82 42 71 57 103 69 40 14 -41 -34 -52 -54 -33 -54 13 0 134 102 187
156 23 23 45 55 48 71 9 33 29 50 34 27 2 -8 -8 -30 -22 -48z m-46 27 c0 -10
-18 -38 -39 -63 l-40 -45 6 40 c7 53 73 114 73 68z m505 -26 c18 -28 45 -113
45 -144 0 -20 -5 -23 -39 -23 -49 0 -71 -8 -71 -26 0 -11 14 -14 58 -12 l57 3
8 -100 c4 -55 5 -131 2 -170 -11 -136 -59 -280 -107 -320 -26 -22 -39 -25
-107 -25 -67 0 -86 4 -148 34 -43 21 -90 53 -116 80 -47 49 -57 55 -57 31 0
-50 164 -164 260 -180 39 -7 40 -8 35 -38 -2 -18 -6 -57 -7 -87 -2 -43 0 -55
12 -55 8 0 17 11 21 25 10 41 22 -2 15 -54 -6 -39 -10 -44 -45 -55 -127 -38
-306 15 -432 128 l-53 48 31 18 c56 33 83 120 89 283 l4 122 -26 0 c-33 0 -84
50 -84 84 0 18 12 33 45 56 43 30 44 30 55 10 12 -22 40 -26 58 -8 7 7 12 42
12 85 0 41 6 89 14 107 19 45 98 108 139 111 17 1 51 12 75 24 33 17 42 18 42
7 0 -8 5 -18 11 -21 19 -13 98 17 136 51 46 40 48 40 68 11z m-508 -202 c-7
-31 -14 -42 -21 -35 -5 5 -19 10 -30 10 -18 1 -14 7 19 35 22 19 41 35 41 35
1 0 -3 -20 -9 -45z m-11 -143 c-4 -3 -11 -1 -18 6 -8 8 -8 15 3 28 13 16 14
16 17 -5 2 -13 1 -25 -2 -29z m-148 -146 c11 -19 34 -42 51 -51 27 -13 31 -21
31 -55 0 -22 -2 -40 -4 -40 -4 0 -89 127 -105 158 -19 36 5 25 27 -12z m-30
-49 c12 -24 44 -67 69 -96 l47 -53 -13 -62 c-28 -138 -57 -160 -206 -150 -94
5 -127 0 -319 -50 -54 -14 -104 -26 -112 -26 -8 0 -4 15 13 48 48 87 170 266
216 318 44 49 49 51 108 57 37 3 79 15 107 30 26 14 52 26 57 26 6 1 20 -18
33 -42z m7 -430 c26 -36 125 -109 191 -141 103 -51 232 -67 321 -40 23 6 23 6
8 -44 -25 -84 -101 -250 -160 -348 -153 -256 -384 -495 -579 -598 -27 -15 -53
-23 -57 -19 -8 8 -68 445 -72 522 -2 32 1 35 31 42 40 8 49 16 35 30 -9 9 -47
6 -145 -11 -73 -12 -136 -24 -140 -27 -11 -6 -11 -7 12 83 36 139 26 332 -21
427 -27 52 -14 74 49 82 26 4 94 19 152 35 58 16 114 31 125 34 11 2 67 4 125
3 102 -2 106 -3 125 -30z m625 8 c22 -23 23 -29 17 -132 -5 -99 -50 -336 -76
-407 -13 -34 -14 -76 -2 -76 34 0 111 344 111 493 0 56 4 97 10 97 21 0 39
-50 51 -144 14 -117 7 -257 -22 -458 -20 -134 -20 -176 0 -164 9 6 34 137 51
275 12 99 13 318 1 379 -5 25 -5 42 1 42 14 0 100 -61 127 -90 27 -29 83 -137
101 -195 7 -22 42 -111 77 -198 l66 -158 -34 -35 c-38 -40 -181 -138 -217
-149 l-23 -7 7 221 c5 163 4 221 -4 221 -17 0 -20 -23 -31 -270 -6 -124 -13
-286 -17 -360 -5 -105 -10 -140 -24 -160 -9 -14 -21 -35 -24 -47 -6 -19 -14
-23 -50 -23 -48 0 -62 -9 -151 -95 -34 -32 -54 -59 -50 -66 10 -15 -13 -29
-48 -29 -27 0 -26 2 30 60 71 74 119 151 162 259 34 88 53 190 33 177 -7 -4
-19 -33 -28 -64 -49 -168 -125 -291 -244 -397 l-51 -45 -93 0 c-110 0 -246 10
-246 19 0 3 26 20 58 38 60 33 165 122 182 153 22 40 -11 28 -74 -28 -76 -67
-173 -128 -231 -143 -69 -19 -256 35 -290 84 -21 29 -19 44 6 50 21 6 20 8
-15 48 -42 49 -47 95 -19 157 l17 37 4 -38 c2 -21 -1 -44 -7 -51 -29 -35 51
-35 125 0 127 60 335 245 466 414 89 115 191 289 245 416 47 110 93 274 93
330 0 31 -21 64 -41 64 -6 0 -7 5 -4 10 11 18 51 10 75 -15z m-1204 -512 c-3
-10 -10 -36 -15 -58 -14 -53 -26 -69 -44 -62 -14 5 -67 105 -67 126 0 7 26 11
66 11 57 0 65 -2 60 -17z m1693 -430 c16 -54 33 -110 36 -124 l6 -26 -60 16
c-71 18 -151 7 -202 -30 -17 -11 -32 -19 -34 -17 -2 2 -1 38 2 79 6 74 6 76
37 87 17 7 65 34 106 61 41 28 76 50 77 51 1 0 16 -44 32 -97z m-149 -422 c32
-22 69 -96 70 -140 0 -23 -7 -39 -23 -51 -12 -10 -50 -55 -82 -99 -68 -92
-113 -121 -188 -121 -62 0 -60 16 2 24 47 6 82 28 63 40 -5 3 -24 1 -43 -4
-43 -13 -126 -13 -134 -1 -3 5 29 17 70 26 53 12 75 21 75 32 0 13 -7 14 -42
7 -63 -12 -151 -11 -155 2 -2 7 13 14 35 18 43 6 128 41 137 56 12 19 -16 19
-66 0 -33 -13 -69 -20 -98 -18 -39 3 -46 6 -49 26 -3 18 1 22 25 22 59 1 190
86 168 109 -7 7 -27 -1 -65 -28 -99 -69 -136 -62 -61 12 67 66 93 77 184 77
65 0 80 3 94 20 19 22 42 20 83 -9z m-1030 -190 c203 -27 346 -34 453 -25
l108 9 15 -29 c8 -16 13 -31 11 -32 -12 -12 -233 -26 -342 -21 -139 6 -348 44
-422 77 -36 16 -43 23 -43 48 l0 28 68 -22 c37 -12 105 -27 152 -33z"/>
<path d="M4581 4137 c-36 -74 -48 -90 -87 -113 -33 -19 -42 -30 -34 -38 17
-17 79 22 112 69 36 51 71 146 59 158 -6 6 -26 -25 -50 -76z"/>
<path d="M5073 4265 c-18 -8 -33 -19 -33 -26 0 -8 10 -9 33 -4 17 4 64 9 102
10 52 2 70 6 70 16 0 20 -130 23 -172 4z"/>
<path d="M5330 4222 c0 -5 14 -48 30 -95 17 -48 30 -93 30 -101 0 -18 -22 -26
-72 -26 -60 0 -43 -24 19 -28 56 -3 83 13 83 51 0 38 -62 207 -77 207 -7 0
-13 -4 -13 -8z"/>
<path d="M5417 4204 c-4 -4 -7 -16 -7 -26 0 -14 6 -19 23 -16 14 2 22 10 22
23 0 20 -25 32 -38 19z"/>
<path d="M5137 4186 c-3 -8 1 -22 8 -33 13 -17 15 -17 31 -1 9 9 14 24 11 32
-8 20 -43 21 -50 2z"/>
<path d="M5202 3890 c-19 -8 -21 -13 -13 -29 23 -41 142 -67 191 -41 19 10 43
64 33 74 -10 10 -186 6 -211 -4z m167 -36 c-10 -12 -26 -15 -66 -12 -30 3 -59
10 -65 16 -9 9 7 12 66 12 71 0 77 -2 65 -16z"/>
<path d="M5263 3767 c-7 -12 21 -19 63 -15 58 5 53 25 -7 24 -28 -1 -53 -4
-56 -9z"/>
<path d="M5117 2594 c-93 -123 -164 -211 -214 -261 -107 -107 -255 -199 -342
-212 -60 -8 -67 -31 -9 -31 132 1 352 162 514 376 58 75 114 163 114 177 0 20
-25 0 -63 -49z"/>
<path d="M5940 1817 c0 -24 4 -90 10 -148 5 -57 14 -181 20 -276 10 -178 15
-207 32 -197 7 4 8 49 4 128 -9 153 -34 451 -42 494 -9 49 -24 49 -24 -1z"/>
</g>
</svg>
