<?xml version="1.0" standalone="no"?>
<!DOCTYPE svg PUBLIC "-//W3C//DTD SVG 20010904//EN"
 "http://www.w3.org/TR/2001/REC-SVG-20010904/DTD/svg10.dtd">
<svg version="1.0" xmlns="http://www.w3.org/2000/svg"
 width="1024.000000pt" height="559.000000pt" viewBox="0 0 1024.000000 559.000000"
 preserveAspectRatio="xMidYMid meet">
<metadata>
Created by potrace 1.16, written by Peter Selinger 2001-2019
</metadata>
<g transform="translate(0.000000,559.000000) scale(0.100000,-0.100000)"
fill="#000000" stroke="none">
<path d="M5066 5015 c-3 -9 1 -18 10 -22 19 -7 39 11 30 26 -10 16 -33 13 -40
-4z"/>
<path d="M5074 4855 c-7 -18 3 -35 21 -35 21 0 28 19 15 35 -16 19 -29 19 -36
0z"/>
<path d="M5640 4810 c0 -15 5 -20 18 -18 9 2 17 10 17 18 0 8 -8 16 -17 18
-13 2 -18 -3 -18 -18z"/>
<path d="M5351 4800 c-17 -10 -7 -40 14 -40 8 0 15 9 15 19 0 24 -12 32 -29
21z"/>
<path d="M4502 4773 c5 -26 38 -29 38 -4 0 15 -6 21 -21 21 -14 0 -19 -5 -17
-17z"/>
<path d="M4810 4776 c0 -15 24 -28 34 -19 13 14 5 33 -14 33 -11 0 -20 -6 -20
-14z"/>
<path d="M6035 4728 c-20 -61 -21 -63 -72 -83 -29 -11 -53 -23 -53 -27 0 -3
15 -9 33 -13 55 -12 75 -32 92 -90 19 -63 31 -70 40 -21 12 61 40 94 90 107
25 6 45 15 45 19 0 5 -23 16 -50 25 -57 19 -75 41 -85 103 -4 23 -10 42 -14
42 -4 0 -16 -28 -26 -62z m45 -41 c8 -18 29 -39 47 -47 41 -19 41 -26 2 -34
-24 -4 -34 -15 -47 -46 -9 -22 -19 -40 -22 -40 -4 0 -12 16 -18 35 -10 25 -22
37 -47 47 -19 6 -35 14 -35 18 0 3 15 12 33 20 18 8 39 29 47 47 8 18 17 33
20 33 3 0 12 -15 20 -33z"/>
<path d="M5533 4684 c-3 -8 -1 -20 6 -27 14 -14 47 15 37 32 -10 16 -36 13
-43 -5z"/>
<path d="M4614 4659 c-3 -6 0 -17 7 -25 18 -17 44 -2 36 20 -7 18 -33 21 -43
5z"/>
<path d="M4975 4586 c-70 -22 -120 -53 -158 -98 -20 -24 -45 -52 -55 -63 -11
-11 -32 -40 -48 -64 -26 -41 -29 -53 -31 -140 l-1 -95 -62 -30 c-36 -17 -73
-44 -88 -64 -15 -19 -67 -84 -117 -145 -49 -60 -124 -152 -166 -203 -42 -52
-132 -155 -200 -230 -212 -234 -272 -325 -310 -471 -38 -149 -19 -216 74 -262
41 -20 63 -24 136 -23 l87 0 24 -44 c55 -105 113 -118 241 -53 45 22 83 38 85
36 3 -2 13 -59 23 -126 l18 -122 -44 -87 c-56 -113 -66 -194 -34 -266 27 -62
27 -62 -9 -138 -36 -77 -37 -102 -5 -178 30 -72 31 -99 5 -133 -32 -41 -60
-109 -60 -148 0 -20 7 -70 15 -112 13 -58 14 -88 6 -138 -14 -81 -14 -206 -1
-214 12 -8 17 15 29 167 9 106 8 140 -5 210 -16 87 -14 118 12 174 21 44 38
44 31 0 -3 -19 0 -39 6 -45 26 -26 125 -7 228 43 62 31 168 107 182 131 18 33
-3 25 -68 -24 -87 -67 -201 -121 -270 -128 l-54 -6 6 69 c5 62 2 78 -26 149
-34 83 -34 93 -4 173 18 49 35 44 35 -12 0 -42 18 -51 84 -41 105 15 250 123
371 273 247 307 460 804 489 1139 9 108 -2 189 -28 215 l-21 21 41 -5 c55 -8
88 -34 115 -90 26 -56 42 -62 34 -13 -3 19 -4 35 -2 35 13 0 103 -44 119 -58
26 -24 33 -48 51 -160 32 -210 44 -529 26 -703 -7 -64 -18 -96 -65 -193 -32
-64 -55 -123 -52 -131 3 -8 21 -17 40 -21 43 -8 43 -5 16 -162 -37 -219 -90
-428 -161 -646 -40 -123 -46 -152 -29 -141 33 21 140 369 194 634 13 63 25
110 28 105 3 -5 8 -54 12 -109 6 -86 18 -242 42 -512 5 -58 15 -76 28 -54 6 9
-3 153 -30 459 -10 105 -15 194 -12 197 2 3 19 -2 37 -11 27 -13 40 -14 78 -5
57 15 107 40 164 84 41 31 46 32 74 21 43 -18 89 -17 114 4 12 9 39 62 60 117
l38 99 49 16 c36 12 57 28 81 61 35 46 53 82 53 103 0 6 5 17 11 23 5 5 12 32
14 59 1 27 6 61 10 76 6 21 2 32 -19 53 l-25 25 75 153 c81 163 87 194 47 240
-24 27 -91 57 -128 57 -57 0 -78 -20 -112 -105 l-31 -80 -114 1 c-89 0 -130 5
-192 24 -73 22 -79 23 -91 7 -11 -16 -13 -15 -23 10 -53 147 -68 185 -93 229
-16 28 -46 71 -66 95 -21 24 -45 57 -53 72 -16 32 -51 55 -135 87 -33 13 -69
31 -80 40 -33 28 -62 40 -99 40 -49 0 -47 24 3 39 49 14 73 43 105 129 44 120
49 144 57 342 5 107 11 225 15 261 7 80 -11 124 -84 201 -80 86 -169 118 -322
117 -52 0 -113 -6 -135 -13z m279 -33 c77 -21 122 -49 167 -104 52 -64 69
-102 69 -156 l-1 -48 -34 73 c-20 39 -39 72 -43 72 -4 0 -15 -18 -25 -39 -10
-22 -29 -47 -43 -55 l-24 -17 6 41 c5 31 3 40 -8 40 -8 0 -20 -11 -26 -25 -10
-22 -65 -65 -83 -65 -4 0 -4 20 -1 45 2 25 1 45 -2 45 -4 0 -19 -13 -32 -30
-33 -38 -72 -65 -106 -74 -26 -6 -27 -5 -22 24 4 16 3 30 -2 30 -14 0 -33 -36
-44 -84 -5 -25 -21 -61 -35 -82 -14 -20 -25 -49 -26 -63 0 -14 -4 -34 -7 -43
-6 -15 -11 -13 -35 17 l-27 34 22 12 c40 20 68 52 68 76 0 38 -40 39 -138 4
-48 -17 -93 -31 -100 -31 -16 0 -16 99 0 152 6 22 28 58 48 81 19 23 44 54 53
70 62 97 268 145 431 100z m190 -281 c8 -26 18 -66 21 -89 7 -43 6 -43 -23
-43 -38 0 -82 -16 -82 -30 0 -6 20 -8 55 -4 l55 7 0 -114 c0 -130 -22 -240
-69 -343 -25 -55 -34 -65 -66 -76 -82 -27 -219 18 -304 100 -41 40 -61 50 -61
30 0 -20 88 -96 148 -128 33 -18 81 -35 107 -39 41 -5 46 -8 41 -27 -4 -12 -9
-47 -13 -80 -5 -48 -4 -58 8 -54 8 2 15 17 17 32 6 45 27 23 34 -35 7 -61 0
-75 -49 -96 -101 -42 -306 23 -435 138 -32 28 -58 54 -58 59 0 4 10 10 23 14
66 16 107 113 107 258 0 42 5 80 10 83 20 12 10 25 -19 25 -38 0 -45 12 -43
71 1 41 -3 52 -24 68 -32 25 -28 55 8 59 20 2 32 -5 53 -32 48 -63 85 -45 85
42 0 19 10 47 21 64 12 17 25 44 28 62 6 28 11 32 49 37 23 3 56 16 73 28 27
20 30 21 27 4 -5 -28 45 -29 89 -2 20 13 33 17 29 11 -12 -21 24 -26 59 -9 19
9 41 28 51 42 21 32 29 26 48 -33z m-514 -101 c0 -14 -23 -29 -126 -81 -80
-41 -104 -49 -131 -44 -26 5 -33 3 -33 -10 0 -9 7 -16 16 -16 35 0 155 -42
161 -56 12 -31 -5 -28 -129 21 -12 5 -18 2 -18 -8 0 -8 19 -22 43 -32 79 -31
107 -47 107 -61 0 -26 -22 -25 -75 2 -30 16 -57 25 -62 20 -4 -5 0 -13 11 -20
86 -52 106 -67 106 -77 0 -20 -69 -81 -87 -77 -26 5 -22 32 5 36 25 4 30 27 7
36 -25 9 -41 -3 -80 -59 -40 -58 -80 -89 -132 -100 -21 -4 -39 -17 -52 -39
-32 -51 -134 -261 -186 -381 -71 -164 -113 -244 -158 -303 -22 -29 -37 -55
-33 -59 13 -13 61 35 101 100 22 37 43 67 46 67 9 0 18 -48 26 -131 4 -49 2
-73 -7 -84 -22 -26 -198 -77 -286 -83 -100 -5 -142 7 -185 55 -30 35 -31 40
-26 97 17 180 75 275 369 602 59 65 140 160 180 211 290 366 276 353 488 439
105 43 140 52 140 35z m-62 -371 l3 -35 -21 25 c-24 31 -26 53 -2 48 11 -2 18
-14 20 -38z m-19 -54 c20 -22 23 -31 16 -73 -15 -103 -45 -143 -115 -157 -167
-34 -280 -61 -303 -73 -16 -8 -31 -12 -34 -9 -3 3 15 42 39 87 42 77 47 83 95
101 32 11 65 34 87 59 31 34 39 38 57 29 30 -16 76 -3 101 30 13 16 26 29 29
29 3 1 16 -10 28 -23z m-52 -335 c141 -136 359 -206 480 -156 19 8 36 15 38
15 5 0 -24 -182 -40 -240 -25 -99 -75 -238 -106 -301 -31 -62 -130 -198 -177
-243 l-31 -28 -30 60 c-43 85 -95 213 -126 312 -29 91 -45 119 -45 79 0 -40
77 -257 132 -371 l51 -107 -57 -52 c-73 -67 -128 -110 -133 -106 -7 7 -42 201
-53 292 -15 127 -20 149 -32 137 -12 -12 13 -216 43 -357 10 -49 19 -91 19
-93 0 -1 -34 -19 -75 -38 -84 -41 -152 -55 -159 -33 -10 35 -78 480 -74 484 2
1 22 14 46 29 23 14 42 31 42 36 0 20 -35 9 -114 -39 -93 -55 -148 -83 -153
-77 -2 2 3 21 11 41 29 68 41 205 27 296 -7 44 -17 92 -23 105 -9 20 -1 45 53
170 l64 147 60 28 c33 16 96 36 140 45 44 9 96 20 115 24 19 4 35 8 35 9 0 0
32 -30 72 -68z m953 -271 c30 -60 100 -241 100 -259 0 -6 -13 -37 -29 -69 -15
-31 -44 -102 -62 -157 l-34 -100 -6 240 c-4 132 -12 272 -18 310 -6 39 -13 86
-16 105 l-5 35 21 -25 c12 -14 34 -50 49 -80z m741 -100 c52 -27 69 -62 44
-90 -28 -31 -46 -26 -32 9 9 25 8 33 -8 50 -24 28 -71 27 -85 0 -9 -16 -14
-18 -26 -8 -17 14 -18 46 -1 52 27 11 70 6 108 -13z m-16 -61 c-9 -14 -45 -11
-45 4 0 8 3 17 6 20 10 9 46 -12 39 -24z m-33 -39 c30 0 16 -24 -18 -31 -48
-11 -104 -10 -104 1 0 6 7 26 15 45 l14 35 37 -25 c20 -14 46 -25 56 -25z
m-461 -45 c101 -33 400 -36 494 -5 20 7 39 10 41 7 3 -3 -22 -59 -55 -126
l-61 -121 -60 7 c-73 7 -115 -13 -107 -53 4 -21 0 -24 -25 -24 -48 0 -68 -16
-68 -55 0 -18 -5 -37 -11 -41 -7 -4 -9 -21 -6 -41 5 -29 -4 -55 -50 -147 -30
-61 -56 -112 -58 -114 -1 -1 -61 -10 -133 -19 -111 -14 -141 -14 -206 -3 -83
14 -88 19 -56 72 29 50 107 238 152 368 54 158 127 310 148 310 9 0 36 -7 61
-15z m-1735 -142 c-2 -10 -8 -34 -11 -53 -11 -54 -43 -110 -63 -110 -31 0
-110 98 -97 120 3 5 14 10 23 10 9 1 42 12 72 25 68 29 83 30 76 8z m2134
-134 c58 -12 81 -41 61 -77 -6 -11 -11 -36 -11 -55 0 -19 -7 -48 -15 -63 -8
-16 -15 -37 -15 -46 0 -10 -4 -18 -10 -18 -5 0 -17 -14 -25 -30 -9 -17 -30
-40 -48 -50 -37 -23 -60 -27 -32 -6 18 13 16 16 -35 39 -57 25 -98 61 -82 71
5 3 31 -3 58 -13 59 -23 108 -30 111 -16 2 6 -34 22 -79 38 -88 29 -114 47
-105 71 5 13 17 12 94 -9 48 -13 95 -26 104 -30 21 -8 33 9 16 23 -6 5 -48 20
-92 32 -84 23 -112 40 -100 60 9 15 96 6 173 -17 48 -15 81 -12 56 5 -6 4 -13
14 -17 24 -3 10 -26 21 -61 28 -59 12 -78 26 -55 41 19 12 48 11 109 -2z
m-1342 -175 c-88 -166 -212 -338 -306 -426 -94 -88 -220 -158 -284 -158 -14 0
-18 8 -18 36 0 20 -16 71 -35 114 -47 104 -45 139 12 267 29 66 35 61 48 -37
l7 -55 -21 19 c-21 19 -21 19 -21 -2 0 -32 46 -62 96 -62 115 0 269 93 439
265 66 67 121 120 123 120 1 -1 -17 -38 -40 -81z m1189 -154 c20 0 17 -14 -33
-142 -49 -124 -60 -136 -112 -123 -32 8 -72 43 -72 63 0 8 28 70 62 137 l62
122 39 -28 c22 -16 46 -29 54 -29z m-242 -197 c-2 -51 -5 -60 -34 -84 -49 -41
-135 -79 -179 -79 -62 0 -88 27 -95 100 -9 98 -12 95 111 97 84 2 192 14 198
22 0 1 0 -25 -1 -56z"/>
<path d="M5086 4114 c-37 -20 -21 -39 20 -24 18 7 53 9 92 5 42 -5 62 -3 62 4
0 31 -124 41 -174 15z"/>
<path d="M5330 4071 c0 -5 11 -50 24 -100 28 -102 26 -106 -41 -102 -24 1 -43
-2 -43 -7 0 -14 26 -22 70 -22 46 0 65 25 56 73 -13 66 -47 167 -56 167 -6 0
-10 -4 -10 -9z"/>
<path d="M5396 4054 c-7 -19 1 -34 19 -34 15 0 28 27 19 41 -9 14 -31 10 -38
-7z"/>
<path d="M5152 4038 c2 -13 10 -23 18 -23 8 0 16 10 18 23 3 17 -2 22 -18 22
-16 0 -21 -5 -18 -22z"/>
<path d="M5203 3767 c-9 -16 7 -20 84 -24 68 -4 117 6 103 20 -9 9 -182 12
-187 4z"/>
<path d="M5265 3700 c-3 -5 0 -13 9 -16 21 -8 71 -1 71 11 0 14 -72 19 -80 5z"/>
<path d="M4750 3345 c0 -26 205 -297 278 -369 54 -52 93 -62 46 -11 -92 97
-146 163 -221 268 -74 101 -103 133 -103 112z"/>
<path d="M4534 3325 c51 -130 68 -271 48 -390 -6 -33 -6 -64 -2 -69 16 -17 34
80 34 189 1 124 -26 236 -65 271 -22 19 -22 19 -15 -1z"/>
<path d="M4595 2058 c-39 -15 -65 -19 -118 -15 -63 4 -67 3 -52 -12 24 -24
137 -21 198 6 26 12 47 27 47 32 0 15 -16 12 -75 -11z"/>
<path d="M4302 4493 c5 -26 38 -29 38 -4 0 15 -6 21 -21 21 -14 0 -19 -5 -17
-17z"/>
<path d="M5794 4474 c-75 -45 -127 -85 -120 -91 7 -7 196 107 196 118 0 15
-14 10 -76 -27z"/>
<path d="M4445 4430 c-4 -7 -3 -16 3 -22 14 -14 45 -2 40 15 -6 16 -34 21 -43
7z"/>
<path d="M5957 4216 c-7 -18 1 -26 25 -26 13 0 18 6 16 17 -4 22 -34 29 -41 9z"/>
<path d="M4397 4204 c-16 -16 -7 -44 14 -44 15 0 20 5 17 22 -3 22 -19 33 -31
22z"/>
<path d="M5785 4201 c-9 -16 3 -31 26 -31 14 0 19 6 17 17 -4 20 -33 29 -43
14z"/>
<path d="M4220 4185 c0 -10 7 -15 17 -13 22 4 23 22 1 26 -11 2 -18 -3 -18
-13z"/>
<path d="M5756 3981 c-10 -16 5 -42 23 -39 21 4 21 42 -1 46 -9 2 -19 -1 -22
-7z"/>
<path d="M5910 3909 c0 -25 33 -22 38 4 2 12 -3 17 -17 17 -15 0 -21 -6 -21
-21z"/>
<path d="M5412 3214 c0 -215 -13 -283 -112 -597 -6 -19 -6 -27 2 -25 29 10
108 276 129 435 13 103 8 308 -8 337 -8 15 -11 -22 -11 -150z"/>
<path d="M5550 3316 c0 -3 7 -38 16 -78 28 -135 44 -301 44 -470 0 -92 4 -168
9 -168 14 0 24 169 16 297 -12 203 -51 423 -76 423 -5 0 -9 -2 -9 -4z"/>
<path d="M5495 3043 c-48 -581 -299 -1151 -663 -1510 -101 -99 -190 -165 -284
-211 -43 -20 -78 -40 -78 -44 0 -29 120 25 230 103 89 63 243 216 322 319 213
281 377 646 453 1010 19 90 45 297 45 363 0 76 -18 54 -25 -30z"/>
<path d="M5538 2610 c-4 -8 -12 -53 -18 -100 -24 -166 -95 -472 -141 -604
-107 -305 -214 -513 -366 -713 -65 -86 -72 -119 -11 -55 93 97 214 296 302
496 111 251 193 542 236 841 12 80 10 165 -2 135z"/>
<path d="M5060 2051 c0 -4 -46 -55 -102 -113 -156 -159 -317 -255 -457 -274
-76 -10 -65 -28 13 -21 83 8 167 43 269 111 103 69 181 139 246 220 50 62 61
86 41 86 -5 0 -10 -4 -10 -9z"/>
<path d="M5926 1319 c-20 -16 -26 -29 -26 -60 0 -21 -2 -39 -5 -39 -2 0 -53
-13 -112 -29 -120 -32 -252 -56 -359 -66 -67 -6 -73 -5 -119 24 -74 47 -124
39 -151 -24 -17 -42 -8 -72 34 -107 l31 -26 -40 -15 c-47 -18 -49 -30 -9 -54
38 -22 38 -29 -1 -37 -20 -4 -29 -11 -27 -21 2 -8 102 -80 223 -160 193 -127
224 -144 250 -139 17 3 103 25 193 49 89 24 268 65 397 90 129 25 246 50 260
55 30 11 25 32 -13 50 l-27 13 33 13 c40 17 41 30 1 52 -64 36 -64 35 -30 69
26 26 31 39 31 77 0 33 -5 51 -19 62 -10 9 -86 51 -167 93 -82 42 -179 94
-215 114 -76 43 -96 45 -133 16z m121 -43 c32 -18 111 -60 175 -94 152 -78
143 -72 119 -88 -11 -8 -24 -28 -28 -43 l-8 -29 -70 40 c-91 52 -133 76 -227
127 -63 35 -78 47 -78 66 0 26 24 55 45 55 8 0 40 -15 72 -34z m11 -148 c70
-39 159 -89 197 -111 78 -44 121 -50 142 -21 17 23 14 43 -9 58 -23 14 -34 1
-18 -20 12 -13 11 -17 -1 -24 -19 -13 -33 4 -26 32 16 60 87 55 87 -5 0 -48
-22 -72 -92 -100 -106 -41 -162 -52 -205 -39 -39 12 -63 3 -63 -24 0 -41 -454
-118 -495 -84 -35 29 -3 103 43 98 29 -3 42 -32 23 -51 -7 -7 -15 -6 -26 3 -8
7 -19 10 -23 6 -4 -4 4 -16 17 -27 21 -17 26 -18 45 -6 24 17 33 71 15 93 -7
8 -70 51 -141 96 -131 83 -142 98 -70 98 78 0 352 57 432 89 14 5 28 10 33 10
4 1 64 -31 135 -71z m-691 -56 c65 -43 142 -93 171 -111 28 -18 52 -35 52 -38
0 -2 -11 -14 -25 -26 -13 -12 -28 -36 -32 -53 l-8 -31 -170 122 c-151 107
-170 125 -173 152 -3 34 19 63 48 63 10 0 71 -35 137 -78z m54 -218 c79 -55
154 -103 167 -107 27 -6 216 16 317 39 136 30 176 44 187 69 9 20 14 22 31 13
26 -14 97 -5 174 22 57 20 64 20 92 6 16 -9 32 -20 36 -25 8 -14 -63 -33 -235
-66 -249 -46 -422 -83 -513 -109 l-88 -24 -82 61 c-45 34 -134 94 -197 135
-63 40 -115 77 -115 80 0 9 58 20 71 13 5 -3 75 -51 155 -107z m-97 -28 c44
-30 110 -76 146 -103 121 -89 97 -85 250 -47 74 19 241 54 370 79 129 25 250
49 267 54 26 8 37 6 54 -8 21 -17 19 -18 -112 -45 -248 -51 -413 -88 -501
-112 -47 -13 -114 -30 -148 -38 l-61 -15 -122 83 c-67 45 -157 104 -199 131
-43 27 -78 52 -78 56 0 4 10 10 23 12 12 2 24 5 26 6 2 0 40 -23 85 -53z"/>
</g>
</svg>
