<?xml version="1.0" standalone="no"?>
<!DOCTYPE svg PUBLIC "-//W3C//DTD SVG 20010904//EN"
 "http://www.w3.org/TR/2001/REC-SVG-20010904/DTD/svg10.dtd">
<svg version="1.0" xmlns="http://www.w3.org/2000/svg"
 width="1024.000000pt" height="559.000000pt" viewBox="0 0 1024.000000 559.000000"
 preserveAspectRatio="xMidYMid meet">
<metadata>
Created by potrace 1.16, written by Peter Selinger 2001-2019
</metadata>
<g transform="translate(0.000000,559.000000) scale(0.100000,-0.100000)"
fill="#000000" stroke="none">
<path d="M5370 5124 c-14 -10 -29 -24 -33 -31 -4 -7 -19 -13 -33 -13 -28 0
-84 -49 -84 -73 0 -7 -11 -19 -24 -25 -37 -17 -59 -57 -53 -95 4 -23 -1 -40
-14 -58 -22 -29 -25 -88 -5 -115 8 -10 12 -29 9 -41 -3 -12 2 -36 11 -54 9
-18 16 -42 16 -54 0 -12 8 -33 18 -46 10 -13 23 -36 30 -52 6 -15 23 -32 37
-39 14 -6 25 -14 25 -18 0 -4 -13 -25 -29 -48 -29 -38 -52 -53 -96 -58 -22 -2
-167 -59 -258 -101 -66 -31 -148 -111 -192 -188 -70 -123 -129 -218 -165 -267
-41 -53 -49 -85 -28 -106 12 -12 9 -19 -82 -222 -29 -63 -43 -114 -56 -199
-17 -115 -17 -190 2 -553 l7 -127 -46 -108 c-63 -147 -81 -215 -73 -276 3 -28
11 -54 18 -58 7 -4 10 -10 8 -12 -3 -3 -72 -12 -155 -21 -255 -28 -305 -35
-315 -41 -15 -9 -22 -68 -13 -106 7 -26 16 -36 41 -44 l32 -9 2 -595 3 -595
50 -19 c43 -16 56 -17 95 -6 25 7 51 16 58 22 9 7 12 119 12 498 0 411 2 489
14 489 13 0 85 -12 268 -46 l86 -16 7 -146 c4 -81 6 -321 3 -535 -3 -270 -1
-392 6 -401 21 -26 101 -40 153 -27 26 7 53 17 60 23 10 8 13 127 13 549 l0
539 25 0 c14 0 28 -1 31 -2 3 -2 8 -165 11 -363 3 -198 6 -361 7 -362 1 -1 23
-8 48 -14 39 -11 55 -10 95 2 l48 15 3 385 2 386 103 18 c56 9 128 23 159 30
32 7 60 10 62 7 3 -3 -3 -17 -13 -31 -31 -43 -81 -147 -95 -198 -8 -26 -22
-104 -31 -173 -21 -154 -39 -229 -72 -294 -19 -38 -25 -64 -24 -109 1 -36 -5
-69 -15 -89 -11 -22 -14 -45 -10 -76 4 -28 0 -64 -10 -98 -18 -64 -11 -109 20
-129 12 -8 54 -26 92 -39 38 -13 100 -38 137 -56 112 -51 279 -61 384 -24 87
31 67 83 -62 159 -91 55 -182 129 -187 153 -2 9 17 20 52 31 l55 17 5 214 5
215 51 110 c28 61 70 160 94 220 23 61 51 133 62 160 51 125 60 160 54 208 -5
50 -2 52 36 19 14 -11 15 -19 7 -34 -6 -11 -9 -32 -6 -46 3 -16 -4 -44 -18
-73 -44 -86 -65 -166 -75 -291 -14 -173 -29 -255 -57 -317 -17 -40 -23 -70
-21 -110 1 -31 -4 -78 -12 -104 -11 -37 -12 -52 -2 -67 9 -15 8 -28 -3 -61
-20 -56 -19 -112 3 -138 20 -25 95 -41 191 -41 39 0 102 -10 156 -25 108 -30
276 -35 325 -10 62 32 44 91 -37 120 -89 33 -175 75 -225 111 -42 31 -49 41
-43 61 3 13 1 42 -5 64 -10 36 -9 43 14 70 22 26 26 41 26 92 0 73 5 90 103
397 134 419 146 481 113 561 -15 36 -72 112 -156 209 -28 33 -49 64 -46 69 3
5 -2 19 -12 32 -10 13 -26 46 -36 72 -10 26 -40 73 -66 104 -67 79 -97 166
-140 413 -10 63 -34 158 -51 210 -29 88 -31 103 -25 173 l8 76 50 31 51 31 -7
57 c-4 31 -11 136 -16 232 -12 241 -19 261 -136 368 -67 61 -75 72 -65 89 9
19 18 20 74 16 57 -5 67 -3 86 16 16 16 21 32 19 61 -1 21 3 44 9 52 7 7 15
37 19 65 6 46 9 52 35 57 37 7 38 30 3 121 -21 57 -23 73 -14 96 7 16 9 45 5
72 -6 39 -4 47 20 71 22 22 26 33 20 59 -3 18 -9 49 -12 69 -5 40 -50 88 -81
88 -9 0 -26 12 -38 27 -19 24 -30 28 -71 28 -28 0 -57 6 -66 14 -11 9 -31 11
-64 7 -60 -7 -69 -7 -118 -1 -29 5 -47 1 -65 -11z m95 -18 c28 -12 36 -12 52
0 27 20 74 17 99 -7 21 -20 26 -20 54 -9 29 12 33 11 64 -19 17 -17 39 -31 48
-31 29 0 69 -41 67 -69 -1 -14 4 -38 11 -53 11 -23 10 -31 -4 -53 -21 -32 -36
-24 -36 18 -1 27 -2 29 -11 15 -13 -24 -55 -23 -72 2 -13 19 -13 19 -30 0 -20
-24 -50 -26 -67 -5 -19 22 -27 18 -34 -16 -5 -27 -9 -30 -38 -27 -32 3 -33 2
-30 -34 3 -33 0 -39 -22 -48 -17 -6 -24 -14 -20 -25 4 -8 2 -21 -4 -28 -6 -6
-12 -23 -14 -37 -5 -37 -26 -31 -51 15 -20 36 -27 40 -65 43 -38 3 -43 0 -62
-30 -27 -44 -25 -75 8 -140 30 -61 31 -98 1 -98 -10 0 -19 -7 -19 -15 0 -18
-31 -20 -48 -3 -7 7 -12 21 -12 31 0 10 -9 26 -21 36 -12 9 -22 30 -23 46 -1
17 -9 44 -18 61 -9 17 -15 40 -12 51 3 11 -2 35 -11 53 -19 37 -14 71 15 98
17 16 19 23 9 50 -13 39 7 78 45 88 15 3 27 16 31 32 10 38 24 52 54 52 17 0
38 11 56 29 15 17 37 32 49 34 11 2 22 5 24 6 1 0 18 -5 37 -13z m271 -235 c5
-5 22 -11 39 -13 27 -3 31 -8 42 -58 10 -42 11 -63 2 -92 -10 -32 -9 -44 15
-102 40 -101 36 -112 -40 -100 -40 6 -45 9 -40 27 5 19 4 19 -11 4 -13 -13
-14 -19 -3 -31 7 -9 23 -16 37 -16 21 0 24 -4 21 -32 -3 -31 -5 -33 -48 -36
-25 -2 -49 -7 -53 -12 -5 -4 11 -5 36 -3 50 6 68 -8 43 -35 -9 -11 -14 -34
-13 -60 2 -53 -12 -64 -73 -59 -56 5 -217 82 -242 117 -10 14 -22 45 -28 70
l-9 45 3 -53 c4 -65 36 -103 123 -146 32 -16 59 -30 60 -31 4 -2 -31 -68 -61
-112 -15 -23 -26 -47 -24 -54 2 -7 14 3 26 22 l22 34 0 -42 c0 -114 -128 -111
-253 5 -70 66 -144 165 -128 170 28 9 78 62 99 106 13 25 31 51 41 58 10 7 23
23 29 35 7 12 24 23 39 25 14 2 28 8 30 14 2 6 -7 9 -25 6 -23 -3 -34 2 -51
23 -48 62 -49 148 -1 172 31 15 58 1 72 -38 5 -16 19 -34 29 -40 27 -14 59 5
59 36 0 13 5 27 10 30 6 3 10 14 10 23 0 10 9 25 20 35 11 9 20 28 20 42 0 18
5 25 20 25 11 0 25 9 32 20 10 16 20 18 49 14 22 -4 39 -2 43 5 9 13 19 14 32
2z m-573 -626 c24 -50 154 -183 212 -216 38 -22 63 -29 103 -29 84 0 111 38
103 143 -1 15 2 27 7 27 5 0 43 -33 84 -72 97 -93 104 -117 118 -373 5 -104
12 -201 15 -215 5 -21 0 -29 -37 -51 -42 -25 -134 -56 -143 -48 -6 7 59 205
89 272 33 73 34 98 1 32 -14 -27 -23 -41 -20 -30 3 10 8 55 10 100 l5 80 -20
-100 c-36 -184 -70 -295 -145 -475 -61 -146 -76 -193 -41 -130 l25 45 0 -85
c1 -49 -5 -96 -12 -110 -18 -36 -82 -67 -152 -74 l-60 -7 45 26 c25 14 36 23
25 20 -210 -65 -257 -61 -420 42 -135 84 -168 95 -55 18 l55 -38 -48 6 c-52 7
-100 29 -164 75 -54 40 -61 73 -34 152 12 33 21 67 21 75 0 8 16 37 35 64 34
47 38 50 78 48 l42 -2 40 81 c30 61 57 98 105 144 51 48 54 53 15 21 -27 -22
-51 -39 -52 -37 -2 2 6 25 17 51 11 27 19 53 17 59 -2 6 -39 -60 -82 -146 -88
-180 -75 -171 -190 -118 -110 50 -261 186 -239 215 42 58 149 225 185 289 63
113 113 164 202 209 42 20 82 37 89 38 7 0 40 13 73 29 33 16 65 29 71 29 6 1
18 -15 27 -34z m-505 -749 c37 -24 77 -47 90 -50 12 -4 22 -13 22 -19 0 -7
-25 -44 -55 -82 -62 -77 -60 -71 -74 -210 -6 -56 -21 -148 -35 -205 -34 -145
-46 -234 -46 -332 0 -77 3 -89 36 -151 26 -50 38 -87 44 -145 5 -42 12 -89 16
-104 5 -21 3 -28 -8 -28 -24 0 -46 31 -58 83 -8 29 -18 47 -27 47 -21 0 -59
-95 -72 -180 -15 -98 -19 -110 -38 -110 -14 0 -15 15 -10 125 4 69 5 125 3
125 -9 0 -40 -118 -46 -177 -7 -62 -24 -98 -41 -87 -14 9 -10 136 6 190 8 27
15 60 14 74 -1 49 -37 -76 -44 -155 -8 -82 -18 -83 -29 -3 -5 30 -2 67 9 108
9 34 14 69 12 79 -4 22 -37 -89 -37 -129 0 -18 -4 -29 -10 -25 -15 9 -12 74 7
130 9 28 36 99 61 158 l45 108 -9 197 c-19 418 -6 551 71 717 26 55 53 115 61
133 l14 33 31 -35 c17 -20 61 -55 97 -80z m1047 -126 c-15 -66 -7 -136 23
-225 17 -49 38 -135 47 -190 21 -128 58 -277 84 -337 11 -26 38 -67 59 -90 22
-24 47 -59 57 -78 18 -34 18 -35 -1 -20 -10 8 -50 45 -89 82 -38 36 -104 94
-145 129 -70 58 -79 70 -143 193 -47 91 -66 137 -61 151 4 11 10 74 14 140 6
92 14 137 35 192 26 69 28 72 63 76 21 2 43 4 50 5 10 2 12 -6 7 -28z m-1016
-136 c-10 -24 -13 -26 -17 -10 -2 10 2 30 10 44 17 33 23 6 7 -34z m4 -191
c-4 -21 -16 -58 -29 -83 -12 -25 -28 -64 -35 -88 -21 -71 -21 -39 -1 49 11 46
23 107 27 134 10 76 14 83 30 52 9 -17 12 -41 8 -64z m82 -13 c29 -20 70 -35
122 -46 43 -8 107 -28 143 -44 63 -28 71 -29 215 -29 82 1 160 5 173 10 40 15
21 -13 -24 -36 -32 -16 -59 -19 -159 -19 -132 0 -238 19 -373 64 -127 44 -173
76 -159 114 8 21 11 21 62 -14z m-37 -68 l22 -17 -20 -42 c-10 -22 -22 -60
-25 -84 -5 -43 -5 -43 10 10 16 57 44 111 58 111 4 0 22 -7 38 -16 23 -11 29
-20 23 -32 -15 -37 -34 -140 -32 -187 0 -44 2 -41 9 25 10 88 36 170 52 169 7
0 52 -10 102 -23 86 -22 90 -24 107 -62 17 -35 20 -21 4 16 -6 14 13 16 141
15 133 0 152 2 193 22 40 21 45 21 62 7 9 -9 22 -31 28 -50 6 -18 20 -36 31
-39 11 -4 27 -18 36 -31 9 -14 50 -53 92 -87 101 -81 148 -123 260 -231 l93
-90 -48 -11 c-27 -6 -94 -35 -149 -64 l-100 -53 -105 6 c-169 11 -243 -20
-415 -174 -82 -73 -207 -144 -275 -155 -35 -6 -35 -6 -56 52 -12 32 -38 96
-58 143 l-37 85 27 -25 c19 -17 13 -5 -19 40 -70 96 -113 176 -141 262 -46
136 -30 363 35 490 22 43 25 44 57 20z m821 -106 l50 -98 -37 33 c-20 18 -42
44 -48 58 -6 14 -21 35 -33 45 -11 11 -21 24 -21 29 0 9 32 38 37 33 1 -1 25
-46 52 -100z m-954 -347 c6 -28 5 -32 -6 -21 -10 9 -15 43 -16 105 l-1 92 8
-71 c4 -39 11 -86 15 -105z m136 -310 l28 -57 -102 -12 c-56 -6 -114 -14 -129
-16 -34 -7 -35 2 -8 82 27 77 36 85 45 35 4 -28 16 -49 37 -66 34 -29 38 -30
62 -12 17 12 17 16 2 67 -9 29 -16 70 -16 89 l0 36 26 -45 c14 -25 39 -70 55
-101z m1344 41 c159 -186 175 -221 156 -333 -6 -38 -18 -82 -27 -98 -8 -17
-17 -45 -19 -64 -3 -19 -43 -154 -90 -299 -74 -229 -85 -273 -85 -335 0 -64
-3 -73 -30 -105 -26 -29 -29 -38 -20 -61 23 -61 16 -71 -62 -91 -83 -21 -192
-23 -225 -5 -28 14 -31 57 -8 102 13 24 14 37 5 67 -10 33 -8 46 19 113 23 57
33 103 41 190 19 214 30 271 67 359 20 47 37 103 39 125 2 22 6 51 9 65 5 21
-1 29 -40 55 -31 20 -55 47 -72 80 -14 28 -43 76 -65 107 -56 83 -56 83 3 84
40 1 73 13 162 57 120 59 133 65 158 66 9 1 47 -35 84 -79z m-504 -40 c22 -13
121 -161 155 -235 46 -96 28 -200 -57 -328 -24 -38 -30 -50 -14 -32 26 29 26
29 20 5 -8 -29 -108 -269 -189 -452 -47 -107 -56 -136 -56 -186 0 -51 -4 -65
-30 -98 -29 -35 -30 -42 -24 -91 6 -52 6 -53 -20 -53 -15 0 -63 -9 -107 -21
-85 -22 -128 -20 -181 7 -33 17 -35 36 -8 87 16 30 19 48 14 88 -6 42 -3 58
19 102 33 64 62 182 77 307 6 52 16 115 22 140 14 57 58 156 92 206 15 22 26
53 26 72 0 18 7 44 16 58 16 24 16 26 -12 55 -16 17 -61 55 -101 86 l-72 55
37 31 c20 17 61 53 91 80 65 58 137 97 211 113 71 16 68 16 91 4z m-769 -165
c41 -98 49 -88 -87 -106 -100 -13 -152 -27 -100 -28 17 0 48 3 70 8 22 5 67
12 100 15 l60 6 15 -33 15 -32 90 1 c60 1 113 8 157 21 51 16 70 18 77 9 11
-13 -17 -18 -399 -81 -187 -31 -223 -35 -275 -26 -33 6 -103 17 -155 25 -52 8
-169 27 -260 41 -91 14 -195 31 -232 36 l-68 11 0 52 0 53 113 -18 c219 -36
628 -90 640 -86 20 8 -26 15 -356 61 -176 25 -321 46 -323 48 -2 3 67 12 154
22 86 10 176 20 200 23 32 4 42 2 42 -8 0 -8 16 -29 35 -47 39 -39 68 -37 84
6 6 17 10 20 10 10 1 -10 10 -22 21 -28 26 -14 56 16 65 63 l7 35 101 12 c56
6 111 12 122 14 11 2 25 4 31 5 6 0 27 -37 46 -84z m346 -116 c-14 -7 -151
-39 -165 -39 -4 1 26 18 67 39 69 35 76 37 93 23 14 -12 15 -17 5 -23z m-1188
-651 c0 -390 3 -587 10 -583 6 4 10 210 10 586 0 379 3 579 10 579 6 0 10 -35
10 -85 l0 -85 30 -6 30 -6 0 -412 c0 -226 -3 -448 -7 -493 l-6 -82 -44 -7
c-26 -4 -61 -2 -84 5 l-39 12 0 587 0 588 40 -4 40 -4 0 -590z m1312 569 c37
-31 37 -33 25 -70 -7 -24 -19 -39 -32 -42 -11 -2 -135 -25 -275 -50 -140 -25
-265 -48 -277 -50 -22 -5 -23 -3 -23 72 l0 78 123 19 c91 14 365 63 417 75 3
0 22 -14 42 -32z m-1026 -27 c104 -16 195 -30 202 -30 8 0 12 -23 12 -81 0
-61 -3 -80 -12 -77 -7 3 -106 20 -220 39 l-208 34 0 35 c0 19 -3 52 -6 73 -8
47 -16 46 232 7z m297 -48 c17 -7 18 -42 17 -632 0 -686 5 -633 -56 -610 l-24
10 0 432 c0 238 -3 517 -7 621 l-6 187 29 -1 c16 0 37 -4 47 -7z m123 -614
l-1 -622 -43 -12 -42 -13 0 629 0 629 33 4 c17 2 37 5 43 5 8 2 11 -173 10
-620z m273 121 l0 -371 -36 -14 c-19 -9 -36 -14 -38 -12 -2 2 -1 173 2 380 6
405 3 383 55 387 17 1 18 -24 17 -370z m-89 -23 l0 -375 -32 10 c-18 5 -34 9
-35 9 -1 0 -4 162 -5 360 -2 233 1 361 7 364 6 3 22 5 38 5 l27 1 0 -374z
m638 -482 c-2 -1 -15 -5 -30 -9 -25 -6 -27 -5 -33 39 -5 33 -3 55 9 80 9 19
16 56 16 83 0 27 8 72 18 99 l17 49 3 -169 c1 -93 1 -170 0 -172z m612 -26
c25 -14 74 -36 110 -48 79 -27 110 -52 94 -77 -25 -40 -193 -41 -334 -2 -41
11 -125 24 -187 28 -159 10 -169 23 -133 152 l10 37 43 -10 c50 -12 146 -5
202 15 40 14 40 14 95 -28 30 -23 75 -53 100 -67z m-687 47 l5 -50 -14 44 c-7
24 -11 48 -8 53 9 14 11 8 17 -47z m15 -154 c40 -38 97 -81 125 -96 85 -45
119 -74 115 -98 -4 -32 -56 -46 -168 -46 -113 -1 -159 9 -249 51 -36 17 -93
40 -126 50 -97 32 -109 54 -84 154 10 40 14 45 33 39 48 -15 124 -16 176 -1
91 25 98 23 178 -53z"/>
<path d="M5800 4965 c0 -5 5 -17 10 -25 5 -8 10 -10 10 -5 0 6 -5 17 -10 25
-5 8 -10 11 -10 5z"/>
<path d="M5643 4744 c-41 -18 -42 -28 -3 -19 20 4 49 0 79 -11 44 -15 94 -14
77 3 -9 10 -98 43 -111 42 -5 0 -25 -7 -42 -15z"/>
<path d="M5329 4678 c-11 -21 -11 -22 4 -9 9 7 24 11 32 7 17 -6 21 -46 5 -46
-14 0 -13 -33 2 -48 20 -20 32 -13 14 7 -18 19 -14 47 5 36 17 -11 9 42 -9 58
-25 23 -39 21 -53 -5z"/>
<path d="M5663 4683 c-7 -2 -13 -9 -13 -14 0 -6 8 -6 19 1 27 14 31 13 31 -10
0 -11 7 -20 15 -20 8 0 15 4 15 9 0 5 3 16 6 25 5 13 -1 16 -27 15 -19 0 -40
-3 -46 -6z"/>
<path d="M5520 4573 c0 -5 10 -18 23 -29 l22 -19 -20 25 c-11 14 -21 27 -22
29 -2 2 -3 0 -3 -6z"/>
<path d="M5402 4230 c-1 -14 3 -43 7 -65 6 -26 9 -31 9 -15 1 14 -3 43 -7 65
-6 26 -9 31 -9 15z"/>
<path d="M4964 4100 c39 -47 57 -91 73 -175 l13 -70 -5 65 c-6 74 -40 153 -82
191 l-27 24 28 -35z"/>
<path d="M5228 4067 c72 -104 169 -189 214 -186 7 0 2 5 -12 10 -51 20 -101
64 -162 140 -68 87 -85 102 -40 36z"/>
<path d="M5569 3918 c-7 -17 -26 -47 -42 -65 -16 -18 -25 -33 -20 -33 6 0 17
8 25 18 22 23 62 102 56 108 -3 2 -11 -10 -19 -28z"/>
<path d="M4791 3348 c-1 -19 27 -98 40 -112 5 -6 0 15 -10 45 -30 88 -29 86
-30 67z"/>
<path d="M4980 3296 c0 -4 18 -38 39 -74 42 -72 90 -126 143 -162 18 -13 7 0
-24 29 -32 29 -80 89 -108 134 -27 45 -50 78 -50 73z"/>
<path d="M4450 3331 c-5 -11 -9 -32 -9 -48 1 -25 2 -25 8 7 4 20 11 41 15 48
4 7 5 12 2 12 -3 0 -10 -9 -16 -19z"/>
<path d="M4602 3290 c0 -14 2 -19 5 -12 2 6 2 18 0 25 -3 6 -5 1 -5 -13z"/>
<path d="M5598 3213 c6 -2 18 -2 25 0 6 3 1 5 -13 5 -14 0 -19 -2 -12 -5z"/>
<path d="M4790 2991 c30 -16 66 -31 80 -35 14 -3 -8 10 -49 29 -88 42 -109 46
-31 6z"/>
<path d="M4900 2946 c0 -2 9 -6 20 -9 11 -3 18 -1 14 4 -5 9 -34 13 -34 5z"/>
<path d="M5451 2764 c-13 -9 -44 -25 -70 -35 -25 -10 -38 -18 -28 -19 23 0 73
23 107 50 30 24 24 26 -9 4z"/>
<path d="M5030 2729 c36 -8 178 -51 290 -87 8 -3 12 -2 9 2 -13 14 -237 84
-289 89 -55 5 -55 5 -10 -4z"/>
<path d="M5496 2658 c-31 -42 -33 -48 -12 -28 24 21 63 80 53 80 -1 0 -20 -24
-41 -52z"/>
<path d="M5053 2629 c-24 -4 -51 -13 -60 -19 -17 -11 -17 -11 0 -6 63 20 148
27 202 17 73 -14 85 -7 15 8 -58 12 -96 13 -157 0z"/>
<path d="M5326 2519 c27 -17 89 -70 138 -117 59 -58 77 -72 53 -41 -59 74
-200 189 -231 189 -6 0 12 -14 40 -31z"/>
<path d="M5425 2491 c7 -13 150 -71 172 -70 10 0 0 6 -22 13 -22 7 -66 25 -98
39 -32 15 -55 22 -52 18z"/>
<path d="M5628 2413 c7 -3 16 -2 19 1 4 3 -2 6 -13 5 -11 0 -14 -3 -6 -6z"/>
<path d="M4767 2358 c23 -41 161 -181 193 -197 l25 -12 -25 21 c-58 49 -163
157 -182 188 -25 41 -35 42 -11 0z"/>
<path d="M5700 2115 c0 -10 121 -62 160 -69 19 -4 1 7 -40 22 -42 16 -86 34
-98 41 -12 6 -22 9 -22 6z"/>
<path d="M5908 2033 c7 -3 16 -2 19 1 4 3 -2 6 -13 5 -11 0 -14 -3 -6 -6z"/>
<path d="M6028 1915 c-3 -3 -36 -12 -74 -20 -63 -14 -65 -14 -18 -11 45 4 135
33 108 35 -6 1 -13 -1 -16 -4z"/>
<path d="M5990 1840 c-8 -5 -10 -10 -5 -10 6 0 17 5 25 10 8 5 11 10 5 10 -5
0 -17 -5 -25 -10z"/>
<path d="M5908 1823 c12 -2 32 -2 45 0 12 2 2 4 -23 4 -25 0 -35 -2 -22 -4z"/>
<path d="M6160 1700 c-6 -11 -8 -20 -6 -20 3 0 10 9 16 20 6 11 8 20 6 20 -3
0 -10 -9 -16 -20z"/>
<path d="M5914 1343 c-15 -21 -52 -67 -82 -103 l-54 -65 68 72 c61 63 114 133
101 133 -3 0 -17 -17 -33 -37z"/>
<path d="M5785 1050 c27 -18 123 -45 132 -37 2 2 -26 12 -62 22 -36 9 -68 21
-71 26 -3 5 -11 9 -17 9 -7 0 1 -9 18 -20z"/>
<path d="M5818 962 c-49 -14 -86 -27 -84 -30 5 -5 154 36 175 48 24 14 5 10
-91 -18z"/>
<path d="M5739 907 c14 -14 115 -13 151 2 30 12 12 13 -55 2 -27 -5 -62 -5
-79 0 -23 7 -27 6 -17 -4z"/>
<path d="M5250 1973 c0 -8 104 -50 140 -57 38 -6 38 -6 -67 34 -40 15 -73 26
-73 23z"/>
<path d="M5438 1903 c7 -3 16 -2 19 1 4 3 -2 6 -13 5 -11 0 -14 -3 -6 -6z"/>
<path d="M5370 1790 c-19 -12 14 -12 80 -1 l45 8 -55 2 c-30 0 -62 -4 -70 -9z"/>
<path d="M5440 1734 c-36 -12 -60 -23 -55 -23 23 -1 99 21 119 34 26 19 16 17
-64 -11z"/>
<path d="M5389 1278 c-18 -24 -72 -83 -119 -132 -47 -50 -67 -75 -45 -58 43
34 132 131 178 194 39 51 29 48 -14 -4z"/>
<path d="M5174 931 c20 -22 58 -42 106 -57 24 -7 23 -8 -15 -20 -22 -7 -31
-12 -20 -12 11 0 38 5 60 12 l40 12 -56 17 c-30 9 -73 28 -95 43 -33 22 -36
23 -20 5z"/>
<path d="M5173 833 c9 -2 25 -2 35 0 9 3 1 5 -18 5 -19 0 -27 -2 -17 -5z"/>
<path d="M5122 790 c10 -31 54 -35 141 -13 45 12 73 22 61 22 -11 1 -43 -6
-70 -14 -64 -19 -93 -19 -117 3 -16 13 -19 14 -15 2z"/>
<path d="M4593 1845 c0 -27 2 -38 4 -22 2 15 2 37 0 50 -2 12 -4 0 -4 -28z"/>
</g>
</svg>
