<?xml version="1.0" standalone="no"?>
<!DOCTYPE svg PUBLIC "-//W3C//DTD SVG 20010904//EN"
 "http://www.w3.org/TR/2001/REC-SVG-20010904/DTD/svg10.dtd">
<svg version="1.0" xmlns="http://www.w3.org/2000/svg"
 width="1024.000000pt" height="559.000000pt" viewBox="0 0 1024.000000 559.000000"
 preserveAspectRatio="xMidYMid meet">
<metadata>
Created by potrace 1.16, written by Peter Selinger 2001-2019
</metadata>
<g transform="translate(0.000000,559.000000) scale(0.100000,-0.100000)"
fill="#000000" stroke="none">
<path d="M5621 5071 c-8 -5 -38 -7 -66 -4 -44 5 -56 2 -74 -16 -11 -11 -33
-21 -49 -21 -35 0 -66 -22 -81 -57 -6 -16 -24 -34 -40 -41 -31 -14 -51 -49
-51 -89 0 -15 -9 -37 -21 -49 -22 -24 -29 -95 -11 -117 7 -8 7 -18 2 -27 -15
-23 -12 -74 5 -96 8 -10 15 -35 15 -55 0 -20 7 -42 15 -49 8 -7 15 -22 15 -34
0 -12 9 -32 21 -44 23 -25 18 -42 -13 -42 -11 0 -48 -7 -82 -16 -33 -9 -123
-27 -199 -40 -232 -39 -231 -38 -456 -262 -162 -162 -192 -197 -188 -217 3
-18 -12 -43 -64 -107 -76 -91 -100 -135 -124 -228 -19 -72 -14 -116 15 -153
31 -39 182 -71 301 -65 88 5 89 5 89 -18 0 -13 5 -35 12 -49 12 -27 1 -83 -30
-140 -8 -16 -33 -62 -54 -101 -38 -71 -68 -174 -138 -464 -18 -74 -44 -166
-57 -205 l-24 -70 23 -20 c13 -11 33 -27 46 -35 21 -15 21 -15 7 -128 -13
-102 -17 -117 -45 -148 -16 -19 -30 -45 -30 -57 0 -15 -26 -50 -73 -99 -86
-89 -127 -165 -181 -340 -25 -79 -51 -138 -81 -184 -29 -44 -45 -79 -45 -99 0
-20 -8 -39 -21 -51 -18 -16 -20 -27 -16 -67 5 -36 -3 -84 -29 -190 -37 -150
-46 -246 -25 -285 41 -76 307 -94 361 -25 25 32 25 46 1 97 -25 55 -41 125
-41 184 0 40 6 57 30 87 17 21 30 44 30 51 0 8 15 34 34 58 19 25 36 61 40 86
7 48 71 146 170 262 75 88 132 166 169 231 16 26 49 75 75 110 31 40 69 115
111 214 l64 153 111 0 c75 0 142 7 206 21 52 12 102 22 112 23 9 0 66 -52 131
-120 113 -121 114 -122 120 -179 4 -43 1 -69 -12 -104 -36 -92 -45 -178 -32
-324 12 -141 8 -185 -26 -274 -13 -36 -14 -50 -3 -88 10 -35 10 -51 0 -74 -9
-23 -9 -37 1 -64 9 -26 9 -42 0 -67 -18 -54 -14 -137 8 -159 26 -26 82 -41
151 -41 31 0 80 -9 110 -20 142 -53 281 -72 363 -49 38 10 77 40 77 58 0 25
-57 71 -142 115 -54 27 -119 70 -151 100 -55 50 -56 52 -60 117 -4 54 -1 69
15 89 17 21 19 34 13 85 -5 49 1 88 30 215 38 161 42 181 74 370 34 207 34
211 6 297 -15 43 -49 121 -78 173 -28 52 -54 115 -58 140 -8 52 -85 190 -195
350 -41 59 -74 115 -74 124 0 22 -24 69 -44 85 -9 8 -16 27 -16 43 0 16 -8 40
-17 55 -17 25 -16 26 10 47 14 12 31 35 37 51 9 28 17 32 75 43 84 16 132 15
235 -3 130 -23 212 -19 295 13 99 39 119 70 111 174 -4 64 -14 97 -56 192 -44
98 -49 117 -39 134 11 17 7 29 -28 88 -59 100 -77 140 -107 229 -35 104 -66
155 -125 206 l-48 42 50 146 c31 93 53 175 58 226 12 115 20 147 41 175 28 39
29 152 1 205 -12 22 -27 52 -33 67 -7 15 -26 32 -43 39 -17 7 -43 26 -57 42
-22 24 -34 30 -70 30 -29 0 -51 6 -64 18 -21 20 -80 25 -105 10z m104 -41 c14
-12 30 -16 53 -13 35 6 82 -18 82 -41 0 -8 13 -17 30 -21 30 -7 60 -38 60 -63
0 -8 9 -25 20 -39 15 -20 19 -39 18 -94 0 -38 -7 -77 -13 -86 -11 -14 -14 -10
-24 35 -6 28 -9 57 -7 64 1 7 1 10 -1 6 -3 -5 -18 -8 -34 -8 -23 0 -29 4 -29
22 l0 22 -16 -22 c-18 -26 -60 -29 -85 -6 -17 15 -19 15 -34 0 -22 -22 -44
-20 -72 6 l-23 22 -20 -22 c-24 -26 -30 -27 -56 -7 -28 21 -34 18 -34 -15 0
-21 -8 -35 -25 -46 -21 -14 -25 -22 -20 -44 4 -19 1 -33 -11 -45 -10 -10 -18
-32 -18 -49 -1 -17 -4 -32 -8 -33 -20 -7 -27 -1 -33 27 -7 34 -39 60 -71 60
-60 0 -76 -103 -28 -188 17 -30 25 -56 21 -67 -10 -25 -37 -1 -37 34 0 15 -9
35 -21 45 -17 14 -20 25 -16 51 4 23 1 38 -9 46 -10 9 -14 29 -13 68 1 31 -2
72 -6 91 -6 30 -3 39 18 61 17 16 25 35 25 55 -1 41 18 73 47 80 14 3 25 13
25 21 0 8 13 28 30 44 22 22 35 28 53 24 18 -5 31 0 50 19 28 28 56 33 88 16
14 -8 26 -7 46 4 32 17 69 11 98 -14z m-59 -265 c18 -17 65 -20 80 -5 7 7 19
6 38 -4 20 -10 37 -12 58 -5 18 5 38 5 48 -1 10 -5 20 -7 22 -4 6 6 28 -76 28
-104 0 -15 -9 -22 -37 -27 -21 -4 -40 -5 -41 -3 -2 1 -10 -12 -18 -31 -11 -25
-12 -43 -4 -70 14 -51 13 -148 -2 -153 -23 -8 -92 19 -100 38 -7 16 -7 16 -5
-5 2 -19 12 -27 51 -39 34 -11 53 -13 65 -5 19 12 26 78 12 128 -8 31 -7 35 9
35 10 0 25 3 34 6 13 5 16 -2 16 -41 0 -52 -83 -319 -107 -347 -43 -49 -132
-30 -243 52 -87 65 -113 99 -126 163 l-8 42 -4 -34 c-2 -19 -1 -45 3 -58 8
-34 69 -98 143 -151 l65 -46 -39 -36 c-22 -20 -40 -46 -41 -58 -2 -17 5 -12
37 21 42 45 54 34 25 -23 -64 -125 -266 -39 -333 142 -38 102 -37 110 5 145
21 16 47 47 58 67 11 20 27 36 35 36 17 0 40 19 40 32 0 5 -8 5 -17 -1 -27
-15 -48 3 -77 69 -21 47 -25 67 -19 87 20 59 68 55 89 -6 10 -30 28 -50 46
-51 17 0 38 35 38 64 0 19 7 39 16 47 9 8 14 22 11 37 -3 16 3 31 19 47 13 13
24 31 24 39 0 12 5 14 24 6 17 -6 29 -5 42 5 24 18 22 18 40 0z m274 -180 c0
-2 -5 -16 -12 -30 -9 -19 -19 -25 -44 -25 -46 0 -53 27 -11 45 31 14 67 19 67
10z m-675 -295 c-65 -72 52 -302 181 -356 44 -19 118 -18 155 2 31 16 68 81
69 120 0 19 7 22 78 27 l77 5 44 -37 c57 -48 94 -115 125 -226 13 -50 25 -83
25 -75 1 8 22 -23 47 -70 25 -46 50 -90 56 -97 8 -10 4 -22 -15 -46 -52 -68
-185 -136 -268 -137 -43 0 -47 2 -68 41 -33 57 -17 93 56 126 60 28 73 42 16
18 -44 -19 -51 -14 -27 21 39 54 84 129 84 139 -1 6 -10 -6 -20 -25 -11 -19
-29 -46 -41 -60 -17 -21 -20 -22 -14 -5 11 34 45 169 44 180 0 6 -18 -39 -39
-99 -37 -102 -127 -280 -170 -336 l-19 -25 -63 34 c-35 18 -75 40 -91 50 -24
14 -29 14 -37 1 -18 -28 -10 -52 30 -93 51 -51 40 -61 -55 -51 -38 4 -97 8
-130 8 -58 1 -60 0 -60 -24 0 -22 9 -28 80 -53 69 -24 74 -27 35 -22 -140 17
-156 17 -168 3 -9 -11 -8 -20 6 -39 9 -13 15 -33 14 -45 -2 -16 5 -25 27 -35
17 -8 32 -23 33 -33 2 -11 21 -31 43 -44 35 -20 50 -23 122 -19 l82 5 -11 -24
c-14 -31 -132 -74 -202 -74 -37 0 -27 10 32 33 26 9 36 15 22 12 -14 -3 -68
-15 -120 -26 -106 -23 -160 -20 -244 11 -57 22 -153 98 -203 162 -18 22 -33
37 -33 32 0 -5 18 -31 40 -59 22 -27 35 -51 31 -53 -21 -7 -111 50 -154 98
-50 55 -68 104 -46 125 8 7 37 20 64 28 28 8 115 35 194 61 92 29 163 46 195
46 40 0 67 9 126 41 67 37 84 42 162 46 89 6 116 18 105 47 -4 9 -33 20 -69
28 l-63 13 84 6 c65 5 87 11 98 25 19 27 0 41 -72 52 l-60 10 56 1 c70 1 114
29 88 56 -8 8 -44 21 -80 27 -59 11 -62 12 -32 19 43 9 65 28 61 53 -3 19 -9
21 -80 19 -47 -1 -88 -8 -107 -18 -30 -15 -31 -15 -31 5 0 25 -17 60 -29 60
-16 0 -171 -161 -210 -219 -22 -33 -49 -62 -58 -65 -15 -4 -175 -26 -192 -26
-3 0 13 18 34 40 21 22 48 40 60 40 11 0 38 11 60 25 46 28 43 32 -10 9 -46
-19 -56 -11 -25 21 13 14 18 25 12 25 -7 0 -50 -36 -96 -80 -103 -99 -116
-101 -169 -24 -41 59 -109 117 -188 161 -27 16 -49 30 -49 33 0 3 39 41 87 85
47 43 81 69 74 58 -25 -47 -9 -33 31 28 57 86 142 170 200 198 52 25 131 45
218 56 65 8 204 39 240 54 35 14 35 13 15 -9z m-29 -474 c-4 -15 -23 -37 -44
-50 -20 -14 -50 -36 -67 -50 -38 -33 -8 -24 50 14 97 64 222 103 252 79 12
-10 14 -10 9 -1 -4 7 -1 12 8 12 9 0 16 -6 16 -14 0 -8 -19 -18 -47 -25 -27
-7 -73 -24 -103 -39 -68 -33 -64 -31 -58 -38 3 -3 34 2 69 11 41 11 80 15 109
11 25 -4 54 -8 64 -9 11 -1 21 -8 24 -16 3 -10 0 -12 -12 -8 -9 4 -15 3 -12
-2 3 -4 -29 -11 -72 -14 -70 -5 -152 -28 -152 -44 0 -3 26 -3 57 0 80 8 143
-1 144 -22 0 -12 2 -12 8 3 5 14 10 16 15 8 14 -23 -4 -29 -86 -34 -85 -4
-142 -23 -118 -38 7 -4 46 -11 87 -15 103 -10 91 -28 -23 -36 -77 -5 -98 -11
-160 -44 -56 -29 -88 -39 -150 -46 -48 -5 -148 -30 -254 -63 -96 -31 -201 -61
-232 -67 -68 -14 -223 -8 -240 9 -7 7 -28 12 -48 12 -71 0 -93 58 -62 167 11
38 26 81 33 96 22 41 161 207 174 207 34 0 215 -151 215 -179 0 -5 -46 -6
-103 -4 -83 5 -109 3 -133 -10 -29 -16 -28 -16 31 -11 36 4 102 -1 167 -11 90
-14 124 -15 215 -6 170 17 191 27 243 110 37 59 173 199 184 190 5 -4 6 -19 2
-33z m929 -415 c59 -133 70 -256 27 -293 -31 -27 -139 -58 -203 -58 -34 0
-107 7 -162 16 -109 17 -122 17 -313 -17 -116 -20 -137 -21 -172 -10 -22 8
-46 17 -53 22 -23 14 -2 21 33 11 41 -11 140 -4 132 10 -4 6 -25 7 -50 3 -33
-5 -59 -1 -104 16 -33 12 -57 25 -54 30 3 5 -2 6 -10 3 -11 -4 -16 0 -16 10 0
19 1 19 70 1 63 -17 146 -20 155 -5 4 6 -14 10 -46 10 -72 0 -169 28 -169 49
0 13 -2 13 -9 2 -6 -10 -10 -10 -16 -1 -15 24 12 28 85 14 113 -23 225 1 128
26 -116 30 -162 47 -166 59 -5 14 25 13 179 -5 35 -4 71 -2 93 6 l36 11 -22
30 c-12 16 -29 31 -38 34 -19 6 -43 52 -35 66 4 5 18 0 33 -10 15 -10 51 -33
80 -51 30 -18 65 -50 78 -71 13 -21 34 -43 46 -50 38 -20 135 -5 227 36 72 32
92 37 139 33 49 -4 52 -3 31 8 -33 18 -109 17 -155 -2 -37 -15 -38 -15 -55 7
-21 29 -18 36 24 44 43 10 124 52 167 86 19 16 37 25 41 21 4 -4 24 -45 44
-91z m-420 30 c13 -40 45 -71 69 -65 18 4 27 -1 44 -28 25 -38 22 -41 -60 -58
-65 -13 -85 -6 -117 39 l-21 29 33 51 c35 56 43 60 52 32z m-1055 -359 c39
-32 83 -56 130 -71 39 -13 73 -27 76 -32 9 -15 96 -55 145 -67 51 -13 274 -8
342 7 56 13 59 5 6 -18 -109 -48 -289 -53 -444 -12 -103 27 -233 92 -291 145
-40 36 -45 45 -39 69 4 15 9 27 11 27 2 0 31 -22 64 -48z m-71 -126 c-32 -48
-55 -101 -39 -91 6 3 10 10 10 15 0 15 61 110 70 110 4 0 18 -8 31 -19 l23
-18 -21 -44 c-29 -63 -52 -146 -57 -214 l-6 -60 14 71 c16 78 59 211 75 227 7
7 32 0 78 -21 200 -90 428 -105 594 -38 68 27 79 24 79 -25 0 -14 11 -40 24
-58 14 -19 28 -48 32 -65 3 -17 40 -80 81 -140 66 -97 183 -295 183 -310 0 -3
-14 -6 -31 -6 -43 0 -157 -40 -284 -100 -130 -62 -163 -74 -269 -101 -212 -52
-409 -41 -651 38 -104 34 -225 91 -225 106 0 7 14 54 30 105 16 51 45 165 65
255 20 89 46 191 57 227 23 72 82 195 106 223 15 16 16 16 38 -4 l22 -21 -29
-42z m1241 -861 c115 -237 118 -253 55 -399 -42 -96 -44 -113 -4 -31 16 33 29
54 29 46 0 -24 -60 -328 -87 -441 -15 -66 -24 -135 -24 -185 -1 -63 -5 -87
-21 -113 -16 -26 -19 -42 -13 -81 l7 -50 -39 -10 c-99 -28 -160 -34 -207 -21
-61 17 -72 32 -60 78 5 20 7 56 4 79 -4 23 0 63 7 90 27 100 31 148 21 263
-12 140 -6 201 28 304 18 56 24 90 19 114 -4 23 -2 38 5 42 18 11 6 27 -125
166 -91 97 -115 128 -104 135 24 15 40 10 131 -36 48 -25 88 -44 88 -41 0 2
-36 24 -80 48 -44 24 -80 46 -80 49 0 16 318 146 360 147 10 1 42 -55 90 -153z
m-1300 -23 c52 -17 134 -38 181 -47 l87 -17 -24 -57 c-12 -31 -32 -75 -43 -98
-12 -23 -21 -46 -21 -52 0 -23 -56 -117 -90 -151 -21 -21 -69 -59 -107 -84
-75 -51 -75 -64 0 -16 26 17 50 30 52 30 6 0 -42 -87 -76 -135 -15 -22 -61
-79 -102 -127 -104 -120 -153 -194 -172 -264 -10 -34 -29 -72 -46 -89 -16 -17
-31 -45 -35 -63 -10 -48 -24 -55 -89 -43 -75 14 -121 37 -151 76 -29 38 -31
69 -5 101 10 13 22 40 26 60 3 20 22 60 41 89 21 31 56 113 85 201 60 178 81
216 174 314 53 56 74 85 79 113 4 20 11 37 16 37 21 0 41 51 50 131 18 156 17
151 48 135 15 -7 70 -27 122 -44z m-626 -1191 c25 -23 105 -51 145 -51 l29 0
4 -92 c3 -74 10 -105 31 -152 32 -70 32 -71 7 -96 -18 -18 -33 -20 -129 -20
-96 0 -112 3 -142 23 -31 20 -34 28 -37 76 -4 65 50 331 66 331 3 0 15 -9 26
-19z m2008 -200 c21 -13 68 -37 106 -56 104 -51 119 -84 45 -104 -83 -23 -182
-10 -333 44 -48 18 -105 29 -158 33 -110 7 -117 13 -108 111 3 41 7 76 9 78 2
1 19 -2 38 -7 49 -14 115 -11 189 9 l65 18 55 -52 c30 -29 72 -62 92 -74z"/>
<path d="M5608 4624 c-36 -19 -35 -25 3 -17 17 3 55 0 84 -7 29 -7 62 -9 72
-5 14 6 6 12 -37 26 -67 22 -87 22 -122 3z"/>
<path d="M5346 4584 c-18 -18 -21 -34 -6 -34 6 0 10 7 10 15 0 24 19 17 33
-12 9 -21 9 -27 -1 -31 -18 -6 -15 -37 6 -53 15 -13 16 -12 3 4 -11 14 -12 22
-2 41 11 19 10 29 -3 55 -19 36 -19 36 -40 15z"/>
<path d="M5634 4536 c22 -18 63 -21 86 -6 10 6 4 8 -20 7 -19 -1 -46 2 -60 6
-24 8 -24 7 -6 -7z"/>
<path d="M5515 4430 c10 -11 20 -20 23 -20 3 0 -3 9 -13 20 -10 11 -20 20 -23
20 -3 0 3 -9 13 -20z"/>
<path d="M5740 4270 c36 -4 71 -4 79 0 8 4 -22 7 -65 7 l-79 1 65 -8z"/>
<path d="M5736 4219 c6 -11 61 -12 67 -1 3 4 -13 8 -34 8 -21 1 -36 -2 -33 -7z"/>
<path d="M5432 4175 c0 -16 2 -22 5 -12 2 9 2 23 0 30 -3 6 -5 -1 -5 -18z"/>
<path d="M5442 4110 c0 -19 2 -27 5 -17 2 9 2 25 0 35 -3 9 -5 1 -5 -18z"/>
<path d="M5451 4044 c0 -11 3 -14 6 -6 3 7 2 16 -1 19 -3 4 -6 -2 -5 -13z"/>
<path d="M4893 4149 c41 -54 57 -112 58 -208 1 -79 2 -82 9 -38 15 89 -20 218
-72 263 -17 15 -16 12 5 -17z"/>
<path d="M5216 4090 c7 -28 52 -110 60 -110 3 0 -3 15 -14 33 -11 17 -27 48
-36 67 -10 22 -14 26 -10 10z"/>
<path d="M5295 3950 c10 -11 20 -20 23 -20 3 0 -3 9 -13 20 -10 11 -20 20 -23
20 -3 0 3 -9 13 -20z"/>
<path d="M5670 3932 c0 -7 -17 -31 -37 -54 -26 -28 -31 -38 -16 -30 24 13 69
80 59 89 -3 4 -6 1 -6 -5z"/>
<path d="M5208 3333 c7 -3 16 -2 19 1 4 3 -2 6 -13 5 -11 0 -14 -3 -6 -6z"/>
<path d="M5141 3319 c-18 -6 -31 -12 -29 -14 5 -5 78 14 78 20 0 6 -8 5 -49
-6z"/>
<path d="M4848 3194 c64 -93 228 -205 300 -204 9 1 -10 10 -42 21 -77 27 -161
84 -226 156 -29 32 -44 44 -32 27z"/>
<path d="M5189 3683 c-13 -17 -13 -17 6 -3 11 8 22 16 24 17 2 2 0 3 -6 3 -6
0 -17 -8 -24 -17z"/>
<path d="M5210 3620 c-8 -5 -10 -10 -5 -10 6 0 17 5 25 10 8 5 11 10 5 10 -5
0 -17 -5 -25 -10z"/>
<path d="M4250 3432 c0 -12 19 -26 26 -19 2 2 -2 10 -11 17 -9 8 -15 8 -15 2z"/>
<path d="M4913 3423 c9 -2 25 -2 35 0 9 3 1 5 -18 5 -19 0 -27 -2 -17 -5z"/>
<path d="M4308 3403 c7 -3 16 -2 19 1 4 3 -2 6 -13 5 -11 0 -14 -3 -6 -6z"/>
<path d="M6161 3166 l-24 -31 28 27 c16 15 27 29 24 31 -2 3 -15 -10 -28 -27z"/>
<path d="M5498 3083 c7 -3 16 -2 19 1 4 3 -2 6 -13 5 -11 0 -14 -3 -6 -6z"/>
<path d="M4636 3078 c12 -31 180 -138 214 -138 6 0 -19 16 -57 36 -37 19 -89
53 -115 75 -26 22 -45 34 -42 27z"/>
<path d="M5377 2809 c-15 -12 -51 -34 -80 -50 -28 -16 -48 -29 -43 -29 15 0
125 62 142 81 22 24 16 24 -19 -2z"/>
<path d="M5402 2744 c-14 -26 -168 -149 -224 -179 -28 -16 -90 -41 -137 -56
-91 -30 -83 -40 10 -13 69 20 112 39 174 79 58 38 171 138 186 166 12 23 4 26
-9 3z"/>
<path d="M4890 2725 c14 -8 30 -14 35 -14 6 0 -1 6 -15 14 -14 8 -29 14 -35
14 -5 0 1 -6 15 -14z"/>
<path d="M4990 2690 c30 -10 73 -19 95 -18 33 0 27 2 -30 13 -38 8 -81 16 -95
19 -14 3 0 -3 30 -14z"/>
<path d="M5466 2693 c-6 -14 -5 -15 5 -6 7 7 10 15 7 18 -3 3 -9 -2 -12 -12z"/>
<path d="M5332 2506 c-83 -109 -206 -214 -320 -271 -59 -30 -70 -43 -17 -21
108 45 269 179 344 285 53 76 48 80 -7 7z"/>
<path d="M4925 2190 c-3 -6 1 -7 9 -4 18 7 21 14 7 14 -6 0 -13 -4 -16 -10z"/>
<path d="M5610 1970 c19 -11 40 -19 45 -19 6 0 -6 8 -25 19 -19 11 -39 19 -45
19 -5 0 6 -8 25 -19z"/>
<path d="M5660 1800 c8 -5 20 -10 25 -10 6 0 3 5 -5 10 -8 5 -19 10 -25 10 -5
0 -3 -5 5 -10z"/>
<path d="M5658 1763 c18 -2 45 -2 60 0 15 2 0 4 -33 4 -33 0 -45 -2 -27 -4z"/>
<path d="M5621 1726 c17 -18 93 -41 83 -25 -3 5 -15 9 -27 9 -13 0 -34 7 -47
16 -24 16 -24 16 -9 0z"/>
<path d="M5710 1353 c-19 -37 -58 -101 -87 -142 l-53 -76 44 50 c41 45 143
221 134 230 -2 2 -19 -26 -38 -62z"/>
<path d="M5580 1016 c0 -2 7 -7 16 -10 8 -3 12 -2 9 4 -6 10 -25 14 -25 6z"/>
<path d="M5630 990 c8 -5 24 -10 34 -10 26 0 18 6 -19 14 -22 5 -26 4 -15 -4z"/>
<path d="M5712 935 c-19 -8 -62 -19 -95 -24 -56 -8 -58 -9 -20 -10 42 -1 129
23 148 40 12 12 6 11 -33 -6z"/>
<path d="M5554 866 c11 -9 29 -16 40 -15 17 1 16 2 -6 9 -14 4 -32 11 -40 15
-7 3 -4 -1 6 -9z"/>
<path d="M5717 873 c-4 -3 -24 -9 -44 -13 -35 -7 -35 -8 -8 -8 17 -1 41 5 55
13 14 8 20 14 14 15 -6 0 -14 -3 -17 -7z"/>
<path d="M4395 1808 c2 -26 11 -62 20 -80 9 -21 12 -24 8 -8 -3 14 -12 50 -20
80 l-13 55 5 -47z"/>
<path d="M4332 1755 c0 -16 2 -22 5 -12 2 9 2 23 0 30 -3 6 -5 -1 -5 -18z"/>
<path d="M4342 1695 c0 -16 2 -22 5 -12 2 9 2 23 0 30 -3 6 -5 -1 -5 -18z"/>
<path d="M4280 1324 c-47 -35 -114 -79 -150 -99 -36 -19 -60 -35 -55 -35 30
-1 295 176 295 196 0 6 0 6 -90 -62z"/>
<path d="M4020 1099 c0 -23 36 -67 70 -84 47 -25 48 -17 2 11 -25 15 -50 40
-58 58 -7 17 -13 24 -14 15z"/>
<path d="M4040 990 c8 -5 22 -9 30 -9 10 0 8 3 -5 9 -27 12 -43 12 -25 0z"/>
<path d="M3960 984 c0 -15 51 -61 75 -67 60 -16 76 -17 70 -7 -3 5 -17 10 -31
10 -33 0 -79 24 -98 52 -9 12 -16 18 -16 12z"/>
<path d="M4098 973 c6 -2 18 -2 25 0 6 3 1 5 -13 5 -14 0 -19 -2 -12 -5z"/>
<path d="M4030 611 c21 -12 90 -25 70 -13 -8 5 -31 12 -50 15 -22 4 -29 3 -20
-2z"/>
<path d="M3945 600 c-14 -7 -8 -8 20 -3 22 3 42 7 44 9 9 8 -45 2 -64 -6z"/>
</g>
</svg>
