<?xml version="1.0" standalone="no"?>
<!DOCTYPE svg PUBLIC "-//W3C//DTD SVG 20010904//EN"
 "http://www.w3.org/TR/2001/REC-SVG-20010904/DTD/svg10.dtd">
<svg version="1.0" xmlns="http://www.w3.org/2000/svg"
 width="1024.000000pt" height="559.000000pt" viewBox="0 0 1024.000000 559.000000"
 preserveAspectRatio="xMidYMid meet">
<metadata>
Created by potrace 1.16, written by Peter Selinger 2001-2019
</metadata>
<g transform="translate(0.000000,559.000000) scale(0.100000,-0.100000)"
fill="#000000" stroke="none">
<path d="M5685 5076 c-15 -11 -34 -14 -72 -9 -49 5 -54 4 -80 -24 -16 -16 -40
-33 -55 -36 -15 -4 -35 -20 -45 -35 -9 -15 -32 -41 -50 -58 -20 -19 -33 -41
-33 -56 0 -14 -9 -33 -20 -43 -25 -23 -35 -76 -20 -105 9 -16 9 -25 1 -33 -14
-14 -14 -94 -1 -102 6 -3 10 -28 10 -54 0 -29 6 -53 14 -60 7 -6 16 -30 19
-52 3 -26 13 -46 27 -56 16 -12 18 -18 9 -29 -7 -8 -21 -11 -34 -8 -12 3 -40
1 -63 -5 -22 -6 -90 -18 -151 -26 -139 -18 -231 -39 -279 -64 -40 -21 -124
-104 -162 -161 -24 -35 -62 -83 -157 -197 -29 -35 -53 -65 -53 -68 0 -2 5 -15
11 -29 10 -22 8 -32 -19 -73 -92 -146 -144 -312 -122 -392 16 -59 44 -78 148
-97 50 -9 92 -21 92 -26 0 -5 -5 -18 -11 -29 -5 -11 -12 -32 -14 -47 -1 -16
-17 -49 -34 -74 -61 -90 -93 -185 -176 -528 -16 -63 -39 -146 -52 -184 -13
-38 -23 -75 -23 -82 0 -7 19 -24 43 -38 l43 -26 -17 -131 c-14 -108 -22 -137
-44 -168 -14 -21 -28 -51 -31 -66 -3 -17 -35 -60 -77 -105 -84 -90 -116 -150
-176 -338 -24 -73 -53 -145 -66 -160 -31 -37 -55 -87 -55 -112 0 -12 -8 -34
-18 -48 -28 -40 -33 -60 -21 -86 9 -19 5 -49 -19 -147 -51 -203 -57 -280 -28
-328 41 -65 299 -76 354 -15 28 32 28 41 -4 117 -17 40 -28 88 -31 137 -5 70
-4 78 19 105 14 17 29 41 33 55 4 14 21 42 37 64 17 21 35 59 41 85 10 50 77
155 161 255 82 97 110 136 161 221 26 44 65 101 87 127 25 31 57 94 92 180 30
73 61 148 69 167 l14 34 139 1 c114 1 153 6 218 25 l79 23 22 -24 c222 -232
222 -232 227 -293 4 -45 -1 -74 -20 -129 -27 -76 -31 -143 -22 -376 4 -102 1
-122 -19 -178 -21 -57 -22 -68 -11 -108 10 -34 10 -50 0 -73 -9 -23 -9 -37 1
-64 9 -26 9 -42 0 -67 -12 -36 -15 -118 -5 -145 11 -28 63 -46 157 -54 51 -5
115 -17 142 -29 183 -73 405 -64 405 17 0 36 -25 57 -135 116 -50 26 -115 69
-145 95 -51 45 -54 49 -61 111 -6 55 -5 69 13 96 16 28 19 43 13 95 -5 50 -1
85 18 168 56 234 88 395 109 551 13 98 2 139 -92 328 -39 78 -68 147 -64 152
8 13 -99 202 -191 338 -40 60 -78 127 -84 148 -6 22 -20 48 -31 58 -12 10 -20
31 -20 48 0 17 -7 39 -16 48 -16 17 -14 21 19 58 27 30 37 51 42 88 11 94 32
152 86 236 30 48 57 86 62 87 4 0 7 -10 7 -23 0 -29 18 -47 46 -47 19 0 25
-10 39 -57 44 -150 147 -263 240 -263 54 0 81 25 116 107 48 114 51 197 10
323 -52 160 -82 304 -105 509 -12 100 -18 125 -34 137 -14 10 -20 30 -25 82
-5 62 -2 79 25 148 18 47 35 111 40 159 16 152 20 175 29 175 15 0 40 60 34
80 -3 10 -1 21 5 25 17 10 11 72 -10 112 -11 21 -20 43 -20 50 0 19 -114 133
-134 133 -10 0 -32 12 -49 26 -25 21 -38 25 -68 21 -24 -3 -42 0 -51 9 -22 23
-80 28 -103 10z m105 -41 c14 -12 23 -14 36 -7 21 12 70 -3 78 -24 3 -8 15
-14 26 -14 31 0 140 -112 140 -143 0 -13 7 -30 15 -37 15 -13 21 -81 8 -94 -4
-3 -7 -21 -7 -38 -1 -17 -6 -33 -12 -35 -17 -6 -27 63 -14 88 9 16 9 24 -1 33
-8 7 -10 7 -6 0 4 -6 0 -20 -8 -30 -15 -19 -15 -18 -33 2 -18 21 -19 21 -30 3
-17 -27 -68 -25 -82 2 -11 19 -13 19 -29 5 -25 -23 -57 -20 -79 9 -19 24 -20
24 -37 5 -23 -25 -37 -25 -60 0 -25 28 -35 25 -35 -10 0 -29 -29 -70 -50 -70
-5 0 -7 -13 -4 -29 5 -23 1 -34 -19 -51 -14 -12 -23 -29 -20 -36 5 -15 -13
-44 -27 -44 -5 0 -11 13 -15 29 -7 35 -47 81 -70 81 -26 0 -63 -45 -71 -85 -5
-29 -1 -50 15 -89 13 -28 24 -55 27 -61 2 -5 0 -16 -5 -24 -15 -23 -41 5 -41
42 0 17 -8 39 -17 50 -11 12 -17 34 -17 60 1 23 -5 51 -12 62 -18 25 -18 55 1
81 11 17 12 27 3 52 -12 30 -9 41 21 92 5 8 13 28 18 45 5 17 20 35 36 43 15
7 27 21 27 32 0 20 44 60 67 60 8 0 28 14 43 30 30 32 58 38 90 18 16 -11 23
-10 37 5 22 22 85 18 113 -8z m43 -335 c13 0 28 5 33 10 7 7 21 5 43 -6 26
-13 38 -14 58 -5 45 21 60 7 68 -60 4 -33 6 -61 4 -62 -2 -2 -21 -10 -41 -20
-28 -12 -38 -13 -39 -4 0 6 -5 -1 -10 -18 -5 -18 -4 -65 3 -122 15 -115 10
-123 -59 -101 -39 13 -48 20 -46 38 2 12 -1 19 -7 15 -20 -13 -10 -45 18 -56
15 -6 35 -15 44 -20 30 -15 54 -10 67 14 10 19 10 40 -1 105 -12 67 -12 82 -1
82 7 0 12 -3 12 -7 -4 -22 3 -24 21 -8 20 18 20 17 20 -41 0 -80 -94 -330
-119 -317 -28 14 -135 7 -170 -11 -37 -20 -33 -22 -124 64 -56 52 -77 87 -77
129 0 16 -4 33 -10 36 -15 9 -12 -70 4 -109 7 -18 43 -59 80 -91 72 -64 82
-91 44 -122 -13 -10 -30 -27 -38 -38 -15 -20 -14 -20 8 -1 12 11 22 16 22 11
0 -4 7 -2 15 5 19 16 19 7 0 -30 -19 -37 -43 -50 -93 -50 -101 0 -198 137
-219 307 -5 50 -5 52 22 59 15 4 40 24 57 48 21 30 37 41 55 41 15 0 28 6 31
14 3 8 -1 12 -9 9 -56 -20 -118 139 -76 196 24 32 59 17 78 -34 12 -32 23 -46
38 -48 28 -4 51 14 51 40 0 11 9 31 20 45 11 14 20 37 20 50 0 15 10 33 25 45
14 11 25 26 25 33 0 11 8 13 29 9 16 -3 37 -2 46 4 13 7 23 4 36 -9 11 -11 29
-19 42 -19z m200 -181 c-4 -12 -11 -18 -20 -15 -8 3 -24 6 -36 7 -19 1 -18 3
8 14 42 20 54 18 48 -6z m-707 -307 c2 -149 88 -291 196 -321 26 -7 58 -11 72
-7 37 9 83 53 96 90 8 26 17 35 41 38 26 4 28 2 22 -16 -12 -33 -6 -162 9
-193 8 -17 25 -32 46 -38 17 -5 32 -16 32 -24 0 -8 11 -34 25 -57 24 -41 25
-52 23 -150 l-3 -107 -48 -26 c-27 -14 -59 -37 -73 -50 -29 -28 -33 -26 -41
22 -6 41 11 71 86 151 42 45 41 55 -1 18 -16 -13 -15 -9 2 41 36 103 21 91
-40 -30 -40 -80 -79 -140 -117 -184 -32 -35 -49 -57 -38 -49 17 13 16 10 -5
-25 -13 -22 -49 -74 -80 -115 -69 -93 -83 -118 -35 -65 l36 40 -5 -42 c-15
-111 -18 -121 -44 -145 -35 -32 -78 -46 -160 -53 -60 -4 -64 -3 -37 8 42 17
144 69 120 61 -11 -4 -56 -20 -100 -36 -70 -25 -91 -28 -170 -25 -126 4 -194
37 -305 147 -74 72 -90 71 -22 -2 32 -34 25 -35 -36 -4 -46 23 -142 101 -142
114 0 4 28 8 63 9 34 1 121 14 192 29 72 15 157 31 190 36 33 5 83 16 111 24
28 8 65 14 83 14 18 0 63 7 101 16 120 27 169 93 185 254 5 48 14 76 36 107
33 48 35 56 13 78 -21 21 -47 12 -104 -36 -44 -37 -137 -89 -159 -89 -18 0
-13 20 14 52 48 57 44 130 -7 136 -20 2 -30 -4 -47 -31 -12 -19 -45 -58 -74
-86 -36 -35 -60 -69 -76 -111 -13 -33 -31 -66 -39 -73 -21 -17 -269 -17 -297
1 -18 11 -16 12 16 6 35 -5 37 -4 80 59 29 44 56 70 80 81 19 9 46 28 60 42
l24 27 -47 -27 c-27 -16 -48 -25 -48 -22 0 4 12 25 26 49 l27 42 -33 -30 c-17
-16 -59 -67 -92 -112 -32 -46 -66 -83 -74 -83 -61 0 -251 140 -297 218 l-17
30 61 74 c33 40 67 80 75 88 13 13 14 13 9 -5 -4 -11 11 11 31 49 48 87 119
164 181 198 55 29 103 41 292 69 74 10 137 22 140 24 13 13 16 -1 17 -73z
m644 -102 c0 -28 -13 -40 -24 -22 -7 12 5 52 15 52 5 0 9 -13 9 -30z m-36 -46
l75 -46 6 -67 c16 -177 52 -370 99 -527 45 -152 47 -220 8 -316 -36 -90 -53
-108 -98 -108 -40 0 -98 38 -143 93 -26 31 -60 109 -85 194 l-15 53 45 26 c25
15 47 24 49 22 3 -2 0 -20 -5 -39 -14 -48 -12 -140 4 -168 12 -22 13 -20 9 25
-3 29 4 92 16 153 12 58 21 142 21 192 0 61 4 89 12 89 6 0 -5 16 -25 35 -26
26 -37 46 -42 79 -4 25 -4 49 -1 54 3 5 -8 12 -24 14 -27 4 -29 3 -15 -12 19
-21 9 -33 -17 -19 -25 13 -38 49 -26 72 7 13 22 17 66 18 55 1 56 1 22 11 -19
5 -49 8 -67 6 -25 -3 -33 0 -33 12 0 29 23 40 90 41 l65 1 -55 10 c-30 5 -65
7 -77 5 -27 -5 -30 9 -7 34 10 12 26 16 47 14 18 -2 49 -6 70 -9 20 -3 37 -1
37 5 0 5 -9 9 -20 9 -12 0 -35 7 -52 16 -24 12 -46 14 -99 9 -60 -6 -69 -5
-69 9 0 23 38 36 152 55 4 0 41 -20 82 -45z m-574 -317 c0 -20 -12 -47 -30
-71 -17 -22 -30 -45 -30 -52 0 -7 -6 -15 -12 -17 -7 -3 7 -6 33 -6 54 -1 122
30 193 89 51 42 76 50 76 24 0 -13 -3 -14 -14 -5 -12 10 -13 8 -9 -9 3 -12 -2
-29 -12 -40 -15 -16 -21 -18 -34 -7 -14 10 -14 10 -3 -5 11 -14 8 -21 -23 -50
-54 -49 -67 -79 -15 -35 24 20 47 37 52 37 20 0 5 -40 -32 -80 -45 -52 -54
-77 -12 -37 15 15 31 27 34 27 14 0 -6 -40 -33 -66 -32 -31 -41 -58 -9 -29 12
11 20 13 20 6 0 -41 -126 -101 -214 -101 -21 0 -65 -7 -99 -15 -34 -8 -98 -21
-142 -30 -44 -8 -123 -24 -175 -35 -168 -38 -412 -22 -465 31 -45 45 -11 213
71 354 26 44 48 82 50 84 2 2 34 -25 71 -60 38 -35 90 -75 116 -89 26 -14 47
-27 47 -30 0 -3 -35 -5 -78 -6 -43 0 -92 -7 -111 -15 -32 -14 -29 -14 70 -14
66 0 135 -7 189 -19 66 -15 104 -17 179 -12 53 4 105 13 117 20 11 8 31 40 43
72 23 61 119 174 155 184 11 3 21 12 24 20 3 13 2 13 -7 0 -5 -8 -13 -11 -17
-7 -9 9 16 38 27 31 5 -3 9 -20 9 -37z m-695 -641 c37 -34 143 -96 164 -96 5
0 38 -18 72 -40 95 -61 165 -79 316 -80 71 -1 146 3 168 9 22 5 41 9 43 7 9
-10 -52 -35 -109 -45 -199 -34 -428 13 -593 123 -106 70 -120 86 -111 125 4
17 8 31 10 31 1 0 19 -15 40 -34z m-55 -139 c-15 -23 -30 -53 -34 -67 -4 -16
2 -10 16 16 13 22 30 51 40 63 15 22 17 22 42 6 14 -10 26 -18 26 -19 0 0 -14
-34 -30 -75 -17 -40 -33 -92 -35 -115 -4 -30 0 -22 18 34 13 41 32 92 41 113
l16 37 40 -25 c49 -31 147 -70 225 -89 143 -35 353 -29 440 14 42 21 55 15 55
-26 0 -12 11 -37 23 -56 13 -19 27 -46 31 -61 3 -15 36 -71 73 -124 68 -99
183 -291 183 -305 0 -5 -9 -8 -19 -8 -37 0 -185 -52 -291 -102 -294 -139 -413
-161 -657 -119 -161 28 -370 103 -470 168 l-21 14 24 71 c13 39 46 165 73 279
53 221 92 336 141 413 l31 48 24 -22 23 -22 -28 -41z m1250 -879 c94 -191 109
-245 89 -315 -7 -26 -12 -52 -10 -58 4 -14 -24 -164 -71 -380 -28 -125 -40
-204 -40 -259 0 -59 -5 -88 -20 -117 -15 -29 -18 -48 -13 -83 l7 -44 -38 -11
c-100 -28 -161 -34 -208 -21 -61 17 -72 32 -60 78 5 20 7 55 3 77 -4 26 -1 59
10 95 12 43 16 101 16 270 1 207 2 218 28 293 20 58 25 88 21 117 -4 26 -3 40
4 40 29 0 -4 42 -176 221 l-83 86 30 12 c25 11 33 10 68 -12 50 -32 143 -79
143 -72 0 2 -21 16 -47 29 -27 14 -66 36 -88 50 l-40 25 50 21 c28 12 64 28
80 37 78 39 196 78 248 82 13 1 37 -39 97 -161z m-1349 27 c91 -39 244 -85
283 -85 15 0 26 -4 26 -9 0 -15 -90 -241 -117 -295 -31 -60 -76 -104 -172
-167 -84 -56 -85 -66 -1 -14 30 18 56 32 58 30 11 -11 -83 -155 -170 -258 -92
-109 -154 -206 -174 -272 -10 -34 -33 -76 -51 -98 -18 -20 -33 -48 -33 -61 0
-39 -21 -49 -83 -37 -80 15 -121 34 -151 73 -29 38 -34 79 -12 97 8 6 19 33
25 59 7 26 27 70 45 98 19 28 54 111 79 186 60 179 92 241 171 324 37 38 69
80 72 94 8 35 20 61 45 92 17 21 25 54 37 152 11 85 19 126 28 126 7 0 49 -16
95 -35z m-577 -1244 c25 -23 105 -51 145 -51 l29 0 4 -92 c3 -74 10 -105 31
-152 45 -98 25 -116 -132 -116 -86 0 -102 3 -132 23 -30 20 -34 28 -37 75 -4
67 49 332 66 332 3 0 15 -9 26 -19z m1993 -190 c17 -12 67 -39 110 -60 116
-57 132 -89 56 -110 -83 -23 -181 -10 -333 44 -47 17 -106 29 -158 32 -110 8
-116 14 -109 111 3 41 7 76 9 78 3 2 20 -1 39 -6 49 -14 115 -11 189 9 l65 18
50 -47 c28 -26 64 -57 82 -69z"/>
<path d="M5988 4872 c9 -10 19 -17 21 -16 6 5 -20 34 -30 34 -5 0 -1 -8 9 -18z"/>
<path d="M5700 4574 l-25 -15 33 6 c22 5 53 -1 97 -16 46 -17 67 -21 75 -13 8
8 -5 17 -45 32 -66 26 -100 27 -135 6z"/>
<path d="M5437 4573 c-4 -3 -7 -13 -7 -22 0 -12 3 -11 14 4 13 18 14 17 28
-10 15 -27 14 -30 -6 -46 -17 -14 -19 -21 -10 -36 6 -10 20 -19 30 -20 14 -2
15 -1 4 4 -26 11 -30 27 -10 48 17 18 17 23 5 53 -13 30 -33 41 -48 25z"/>
<path d="M5906 4555 c-9 -26 -7 -32 5 -12 6 10 9 21 6 23 -2 3 -7 -2 -11 -11z"/>
<path d="M5743 4520 c-32 -13 -29 -17 7 -12 23 3 30 0 30 -12 0 -21 26 -21 34
0 3 8 12 12 18 9 7 -4 4 1 -6 9 -22 18 -49 19 -83 6z"/>
<path d="M5599 4392 c5 -10 18 -25 27 -33 11 -9 9 -2 -6 19 -26 35 -36 42 -21
14z"/>
<path d="M5751 4226 c2 -2 45 -6 94 -9 65 -4 77 -3 45 3 -46 9 -147 13 -139 6z"/>
<path d="M5493 4125 c0 -44 2 -61 4 -37 2 23 2 59 0 80 -2 20 -4 1 -4 -43z"/>
<path d="M5823 4168 c16 -10 77 -10 77 0 0 4 -20 7 -44 7 -25 0 -40 -3 -33 -7z"/>
<path d="M4983 4147 c40 -53 56 -99 68 -197 l8 -65 -4 76 c-4 89 -32 163 -77
205 -29 28 -29 27 5 -19z"/>
<path d="M5272 4120 c0 -14 2 -19 5 -12 2 6 2 18 0 25 -3 6 -5 1 -5 -13z"/>
<path d="M5280 4083 c0 -16 31 -95 36 -90 2 2 -5 25 -16 53 -10 27 -19 43 -20
37z"/>
<path d="M5650 3848 c-19 -16 -26 -26 -15 -20 18 9 64 53 54 52 -2 -1 -20 -15
-39 -32z"/>
<path d="M5528 3803 c12 -2 30 -2 40 0 9 3 -1 5 -23 4 -22 0 -30 -2 -17 -4z"/>
<path d="M4925 3121 c36 -39 161 -119 170 -109 2 2 -21 16 -51 32 -31 16 -79
50 -107 74 l-52 46 40 -43z"/>
<path d="M5960 3931 c0 -6 4 -13 10 -16 6 -3 7 1 4 9 -7 18 -14 21 -14 7z"/>
<path d="M5961 3564 c0 -11 3 -14 6 -6 3 7 2 16 -1 19 -3 4 -6 -2 -5 -13z"/>
<path d="M5390 3530 c-9 -6 -10 -10 -3 -10 6 0 15 5 18 10 8 12 4 12 -15 0z"/>
<path d="M5395 3450 c-13 -6 -15 -9 -5 -9 8 0 22 4 30 9 18 12 2 12 -25 0z"/>
<path d="M4420 3382 c0 -23 57 -72 82 -71 18 1 16 3 -10 10 -20 6 -40 22 -52
42 -11 18 -20 26 -20 19z"/>
<path d="M4548 3303 c6 -2 18 -2 25 0 6 3 1 5 -13 5 -14 0 -19 -2 -12 -5z"/>
<path d="M4664 3065 c43 -40 166 -115 166 -100 0 2 -22 16 -50 30 -27 14 -75
45 -107 71 l-58 45 49 -46z"/>
<path d="M5325 2770 c-27 -17 -46 -30 -41 -30 11 0 96 49 96 55 0 7 0 7 -55
-25z"/>
<path d="M4850 2753 c0 -17 203 -84 251 -82 13 0 -7 7 -46 16 -38 8 -100 27
-137 43 -38 15 -68 26 -68 23z"/>
<path d="M5360 2698 c-99 -90 -213 -154 -342 -193 -58 -18 -69 -23 -38 -19
128 18 255 83 361 183 80 75 93 97 19 29z"/>
<path d="M4621 2714 c0 -11 3 -14 6 -6 3 7 2 16 -1 19 -3 4 -6 -2 -5 -13z"/>
<path d="M5308 2477 c-57 -66 -169 -152 -268 -207 -41 -23 -64 -38 -51 -34 82
23 292 182 352 265 31 43 20 35 -33 -24z"/>
<path d="M4930 2220 c-8 -5 -10 -10 -5 -10 6 0 17 5 25 10 8 5 11 10 5 10 -5
0 -17 -5 -25 -10z"/>
<path d="M5584 1986 c11 -9 24 -16 30 -16 12 0 7 5 -24 19 -24 11 -24 11 -6
-3z"/>
<path d="M5663 1763 c15 -2 37 -2 50 0 12 2 0 4 -28 4 -27 0 -38 -2 -22 -4z"/>
<path d="M5633 1718 c11 -10 27 -18 36 -17 10 0 7 4 -8 10 -14 5 -30 13 -36
17 -6 4 -2 -1 8 -10z"/>
<path d="M5918 1695 c-3 -11 -9 -29 -13 -40 -3 -11 1 -7 10 8 9 16 15 33 12
40 -2 6 -6 3 -9 -8z"/>
<path d="M5886 1613 c-6 -14 -5 -15 5 -6 7 7 10 15 7 18 -3 3 -9 -2 -12 -12z"/>
<path d="M5705 1342 c-17 -31 -54 -91 -83 -132 l-52 -75 44 50 c41 46 133 201
124 210 -2 2 -17 -22 -33 -53z"/>
<path d="M5630 990 c8 -5 24 -10 34 -10 26 0 18 6 -19 14 -22 5 -26 4 -15 -4z"/>
<path d="M5700 930 c-8 -5 -10 -10 -5 -10 6 0 17 5 25 10 8 5 11 10 5 10 -5 0
-17 -5 -25 -10z"/>
<path d="M5600 910 l-45 -7 45 -1 c25 0 54 3 65 8 l20 9 -20 -1 c-11 -1 -40
-4 -65 -8z"/>
<path d="M5554 866 c11 -9 29 -16 40 -15 17 1 16 2 -6 9 -14 4 -32 11 -40 15
-7 3 -4 -1 6 -9z"/>
<path d="M5717 873 c-4 -3 -24 -9 -44 -13 -35 -7 -35 -8 -8 -8 17 -1 41 5 55
13 14 8 20 14 14 15 -6 0 -14 -3 -17 -7z"/>
<path d="M4382 1825 c0 -16 5 -48 13 -70 17 -51 17 -15 0 50 -10 39 -13 44
-13 20z"/>
<path d="M4323 1765 c0 -22 2 -30 4 -17 2 12 2 30 0 40 -3 9 -5 -1 -4 -23z"/>
<path d="M4270 1324 c-47 -35 -110 -77 -140 -94 -30 -16 -50 -30 -45 -30 27 0
275 167 275 186 0 6 0 6 -90 -62z"/>
<path d="M4010 1117 c-2 -36 71 -107 110 -107 8 0 -4 10 -28 21 -27 14 -50 35
-62 58 -10 20 -19 32 -20 28z"/>
<path d="M4024 995 c22 -17 79 -30 98 -22 7 3 0 6 -15 6 -15 1 -44 8 -65 16
-32 13 -35 13 -18 0z"/>
<path d="M3968 964 c12 -22 56 -47 105 -58 16 -4 26 -3 23 2 -3 5 -22 12 -42
15 -21 4 -51 19 -67 34 -24 23 -28 24 -19 7z"/>
<path d="M3980 611 c-19 -7 -13 -8 25 -7 28 0 64 -2 80 -7 21 -5 25 -4 14 2
-23 15 -90 21 -119 12z"/>
</g>
</svg>
