<?xml version="1.0" standalone="no"?>
<!DOCTYPE svg PUBLIC "-//W3C//DTD SVG 20010904//EN"
 "http://www.w3.org/TR/2001/REC-SVG-20010904/DTD/svg10.dtd">
<svg version="1.0" xmlns="http://www.w3.org/2000/svg"
 width="1024.000000pt" height="559.000000pt" viewBox="0 0 1024.000000 559.000000"
 preserveAspectRatio="xMidYMid meet">
<metadata>
Created by potrace 1.16, written by Peter Selinger 2001-2019
</metadata>
<g transform="translate(0.000000,559.000000) scale(0.100000,-0.100000)"
fill="#000000" stroke="none">
<path d="M6736 4974 c-8 -20 -8 -128 0 -148 14 -38 24 -10 24 68 0 80 -11 115
-24 80z"/>
<path d="M6982 4817 c-48 -48 -64 -77 -44 -77 13 0 112 104 112 118 0 22 -15
13 -68 -41z"/>
<path d="M6440 4841 c0 -11 99 -111 111 -111 22 0 5 31 -41 74 -47 44 -70 56
-70 37z"/>
<path d="M6665 4723 c-45 -23 -65 -44 -87 -87 -27 -54 -22 -140 13 -190 34
-51 115 -90 172 -84 64 7 116 36 145 81 23 34 27 52 27 107 0 56 -4 73 -28
109 -35 52 -92 81 -162 80 -27 0 -63 -7 -80 -16z m172 -39 c51 -38 68 -71 68
-132 0 -69 -26 -112 -85 -142 -48 -25 -83 -25 -136 -1 -55 25 -87 71 -92 135
-3 43 1 58 24 93 16 23 42 50 59 58 40 21 127 15 162 -11z"/>
<path d="M5099 4653 c-12 -42 -20 -51 -59 -70 l-45 -21 28 -11 c16 -6 32 -11
37 -11 14 0 48 -53 51 -80 6 -36 21 -31 32 10 11 45 31 66 73 80 35 12 38 30
5 30 -30 0 -70 39 -82 81 -7 21 -15 39 -19 39 -3 0 -13 -21 -21 -47z m54 -55
l32 -31 -29 -31 -29 -31 -31 29 -31 30 22 22 c13 13 23 28 23 34 0 16 8 12 43
-22z"/>
<path d="M5369 4684 c-17 -21 0 -49 32 -49 27 0 37 28 19 50 -16 19 -34 19
-51 -1z m35 -25 c-3 -5 -10 -7 -15 -3 -5 3 -7 10 -3 15 3 5 10 7 15 3 5 -3 7
-10 3 -15z"/>
<path d="M7023 4564 c-7 -3 -13 -10 -13 -15 0 -6 37 -9 88 -7 49 2 87 7 87 13
0 10 -140 18 -162 9z"/>
<path d="M6316 4551 c-8 -12 29 -21 84 -21 25 0 55 3 67 6 44 12 10 24 -67 24
-43 0 -81 -4 -84 -9z"/>
<path d="M5385 4501 c-3 -11 -15 -23 -26 -26 -25 -8 -24 -22 1 -30 11 -3 20
-10 20 -14 0 -4 6 -16 14 -27 14 -18 15 -18 25 9 6 16 20 31 31 34 27 7 25 17
-5 31 -14 7 -28 19 -31 27 -8 21 -21 19 -29 -4z m30 -31 c11 -17 -5 -32 -21
-19 -7 6 -11 15 -8 20 7 12 21 11 29 -1z"/>
<path d="M5215 4360 c-4 -11 -17 -28 -31 -36 -30 -20 -30 -27 -1 -39 12 -6 26
-20 32 -32 12 -28 22 -29 30 -3 4 11 18 28 32 37 l25 16 -31 24 c-17 14 -31
31 -31 39 0 21 -18 17 -25 -6z m32 -46 c9 -23 -11 -38 -26 -20 -13 16 -7 36
10 36 5 0 12 -7 16 -16z"/>
<path d="M6494 4328 c-70 -68 -70 -103 0 -38 26 24 52 52 57 63 21 38 -1 28
-57 -25z"/>
<path d="M6930 4348 c0 -15 103 -118 118 -118 23 0 11 20 -43 75 -54 54 -75
66 -75 43z"/>
<path d="M5890 4307 c0 -32 -4 -36 -62 -64 -50 -24 -81 -32 -151 -36 -48 -3
-92 -9 -98 -12 -5 -4 1 -15 15 -26 40 -31 61 -102 61 -204 0 -168 -54 -274
-125 -245 -39 16 -52 34 -59 78 -6 33 -10 37 -40 40 -41 4 -51 -8 -51 -68 0
-61 14 -107 49 -163 l30 -46 -42 -12 c-23 -6 -59 -9 -80 -6 -25 4 -37 2 -34
-6 7 -23 62 -27 141 -11 47 10 82 12 87 7 6 -6 -3 -25 -21 -49 -46 -57 -16
-58 34 -1 36 42 44 46 69 39 l28 -7 -26 -35 c-28 -38 -31 -50 -11 -50 7 0 26
18 41 40 23 34 33 40 62 40 l35 0 -21 -34 c-24 -39 -26 -46 -8 -46 6 0 27 21
46 45 26 35 40 45 62 45 34 0 35 -3 11 -38 -30 -44 -33 -50 -23 -57 6 -3 27
17 48 45 32 43 42 50 71 50 l34 0 -26 -34 c-28 -38 -33 -56 -13 -56 6 0 26 20
42 44 23 34 37 45 63 48 39 5 39 2 7 -42 -28 -38 -31 -50 -11 -50 7 0 29 22
47 50 37 54 43 56 129 38 48 -10 64 -9 114 7 51 16 65 17 121 6 67 -14 108 -9
139 14 28 21 16 26 -28 14 -35 -10 -116 -4 -116 8 0 3 14 34 31 68 36 74 48
179 30 267 -14 67 -27 80 -67 69 -21 -6 -28 -13 -26 -27 13 -76 13 -88 -3
-125 -20 -42 -41 -60 -97 -78 -37 -12 -178 -31 -178 -23 0 2 16 22 35 45 54
63 79 137 79 237 1 68 -4 95 -22 135 -14 30 -19 51 -12 53 5 2 10 8 10 13 0 5
-36 9 -80 9 -69 0 -88 4 -144 32 -56 27 -65 36 -68 62 -4 43 -28 46 -28 3z
m99 -93 c2 -2 -12 -4 -32 -4 -30 0 -37 4 -37 20 0 20 1 20 33 4 17 -9 34 -18
36 -20z m-99 11 c0 -11 -11 -15 -37 -15 l-38 1 25 14 c33 19 50 19 50 0z m289
-91 c46 -97 34 -228 -28 -322 -27 -41 -28 -42 -45 -23 -52 57 -270 50 -438
-14 -15 -6 -15 -1 3 55 25 82 25 188 -2 260 -11 30 -22 62 -25 70 -4 13 29 15
254 19 l259 3 22 -48z m286 -275 c10 -84 -10 -179 -49 -236 -28 -41 -38 -48
-99 -66 -61 -18 -73 -19 -122 -7 -31 7 -54 16 -52 19 23 44 29 62 23 69 -7 6
-29 -15 -60 -60 -6 -9 -29 -20 -50 -23 l-39 -8 26 38 c36 53 21 67 -20 19 -18
-21 -33 -42 -33 -46 0 -5 -16 -8 -36 -8 l-36 0 22 36 c32 51 14 56 -28 6 -27
-31 -44 -42 -64 -42 -34 0 -34 3 -7 42 35 49 10 46 -35 -4 -31 -35 -49 -48
-69 -48 -33 0 -33 3 -6 47 32 51 13 54 -29 5 -27 -31 -44 -42 -64 -42 -33 0
-34 7 -8 40 40 51 15 55 -32 5 -30 -31 -36 -34 -68 -27 -62 14 -120 112 -120
205 0 26 4 37 15 37 9 0 15 -9 15 -24 0 -30 33 -71 73 -94 61 -32 602 -26 766
9 57 12 105 41 135 82 17 23 21 43 21 98 0 55 2 66 12 54 6 -9 14 -43 18 -76z
m-575 -109 l0 -50 -145 0 c-83 0 -145 4 -145 9 0 17 169 72 255 84 17 2 31 5
33 6 1 0 2 -21 2 -49z m187 25 c26 -17 27 -23 10 -46 -8 -11 -36 -18 -84 -22
l-73 -6 0 51 0 51 62 -7 c34 -3 72 -13 85 -21z"/>
<path d="M6736 4274 c-8 -20 -8 -128 0 -148 13 -35 24 0 24 80 0 78 -10 106
-24 68z"/>
<path d="M4450 4175 c-102 -20 -180 -51 -252 -101 -78 -53 -154 -147 -164
-202 -4 -20 -17 -63 -30 -94 -42 -102 -31 -215 36 -353 28 -60 54 -95 97 -134
32 -30 86 -80 120 -113 34 -32 66 -58 72 -58 16 0 14 -65 -3 -105 -13 -29 -31
-42 -123 -88 -182 -92 -316 -167 -362 -205 -67 -55 -128 -158 -183 -311 -91
-256 -151 -416 -170 -453 -27 -56 -23 -85 18 -126 l37 -37 -18 -113 c-31 -196
-2 -366 74 -434 58 -53 92 -55 204 -13 52 19 97 35 100 35 2 0 7 -26 9 -57 4
-46 10 -61 33 -81 l28 -24 -22 -36 c-77 -128 -211 -472 -211 -544 0 -34 24
-14 39 33 67 205 179 470 216 508 11 11 24 9 84 -14 40 -16 70 -31 69 -34 -2
-3 -17 -33 -34 -66 -41 -77 -90 -218 -99 -281 -11 -74 6 -45 55 91 23 66 58
150 76 187 l34 67 32 -11 c111 -35 203 -49 368 -54 189 -7 303 6 418 46 31 11
58 20 59 20 17 0 -27 -240 -64 -349 -60 -179 -62 -201 -9 -96 45 91 106 337
106 430 0 25 6 35 28 45 15 8 31 14 35 15 19 1 74 -201 106 -388 22 -123 26
-137 42 -137 28 0 -29 321 -86 480 -32 93 -28 148 16 198 34 39 32 19 34 312
0 129 5 243 9 253 7 14 16 0 42 -63 46 -114 87 -160 185 -210 137 -68 214 -51
256 58 14 36 18 74 18 167 -1 140 -10 168 -104 335 -52 92 -58 107 -45 121 21
23 19 30 -39 126 -30 48 -85 147 -122 218 -106 201 -96 188 -251 336 -27 26
-67 52 -89 59 -22 7 -56 21 -75 31 -19 11 -45 19 -57 19 -12 0 -37 9 -55 20
-18 11 -43 20 -55 20 -19 0 -23 5 -23 33 0 42 7 50 61 70 25 10 59 31 75 48
l29 30 -1 142 c0 170 -20 270 -68 350 -18 30 -36 73 -40 97 -3 23 -16 60 -27
83 -12 22 -22 62 -24 89 -3 58 -42 121 -90 147 -17 9 -43 26 -58 38 -53 41
-151 51 -267 28z m278 -78 c70 -46 82 -59 102 -111 14 -37 2 -32 -58 24 -54
52 -72 56 -72 17 -1 -33 -26 -86 -32 -67 -3 8 -9 29 -14 45 -12 40 -36 38 -45
-3 -4 -18 -19 -51 -34 -74 -30 -46 -35 -44 -49 25 -9 37 -33 34 -41 -5 -4 -18
-17 -48 -28 -67 l-21 -34 -11 33 c-6 19 -16 35 -22 37 -12 4 -23 -29 -23 -69
0 -14 -3 -33 -6 -42 -5 -14 -9 -13 -32 4 -37 30 -46 12 -28 -51 13 -44 14 -64
5 -107 -10 -48 -8 -61 11 -113 13 -33 20 -62 17 -65 -3 -4 -18 3 -34 14 -42
29 -71 35 -104 21 -61 -25 -73 -102 -28 -176 24 -38 103 -93 136 -93 21 0 23
-5 23 -46 l0 -45 -116 108 c-97 91 -121 119 -149 178 -68 141 -80 250 -37 334
12 23 22 52 22 64 1 75 121 207 233 257 92 41 187 60 278 57 83 -3 88 -4 157
-50z m91 -179 l43 -53 -48 -5 c-35 -4 -49 -9 -49 -20 0 -11 14 -16 56 -18 l57
-3 12 -47 c6 -26 22 -67 35 -92 37 -68 45 -95 60 -205 30 -210 17 -272 -70
-315 -45 -22 -61 -24 -171 -23 -110 0 -128 3 -180 27 -32 15 -66 34 -76 43
-10 9 -20 14 -23 11 -22 -21 72 -90 145 -107 25 -6 85 -11 133 -11 l88 0 -5
-32 c-24 -151 -27 -181 -21 -196 6 -16 8 -15 21 2 8 11 14 28 14 39 0 29 18
10 29 -31 10 -33 8 -39 -16 -65 -88 -91 -294 -62 -501 70 l-53 34 29 33 c38
44 56 118 50 212 -4 55 -1 77 9 85 13 11 19 49 7 49 -3 0 -12 -7 -20 -15 -21
-20 -47 -19 -94 5 -56 28 -90 77 -90 128 0 33 5 45 25 58 23 15 27 15 69 -10
51 -30 78 -33 96 -11 11 13 9 27 -13 81 -24 56 -26 70 -17 109 6 28 7 60 1 85
-9 40 -4 49 16 29 16 -16 33 -2 33 26 0 18 4 22 19 18 19 -5 51 31 70 78 10
24 10 24 10 -4 1 -48 30 -46 78 7 24 26 43 54 43 62 0 8 5 14 11 14 7 0 9 -10
5 -25 -5 -18 -2 -27 9 -31 20 -8 49 18 70 62 15 32 17 33 39 19 12 -8 42 -39
65 -67z m110 -954 c32 -27 94 -145 106 -201 7 -34 25 -55 25 -29 0 32 -23 123
-41 160 -10 22 -17 42 -14 44 2 3 30 -8 62 -23 32 -15 69 -33 83 -39 31 -14
63 -78 89 -180 21 -79 45 -245 38 -252 -2 -3 -22 26 -43 63 -56 96 -97 133
-185 165 -41 15 -86 30 -101 33 -16 4 -26 10 -24 14 3 4 0 43 -5 86 -8 66 -23
111 -57 178 -9 18 39 5 67 -19z m-607 -98 c86 -59 152 -92 239 -116 120 -33
247 -22 301 27 22 20 24 18 31 -29 5 -35 4 -38 -21 -43 -76 -16 -118 -32 -126
-50 -5 -11 -23 -27 -40 -35 -26 -12 -31 -20 -28 -45 1 -16 3 -44 2 -62 0 -21
7 -37 21 -47 25 -17 18 -34 -40 -91 l-41 -39 6 47 c5 35 2 53 -10 72 -27 42
-51 32 -110 -47 -29 -40 -64 -82 -76 -93 -30 -26 -46 -65 -59 -145 -7 -36 -14
-77 -17 -92 -6 -29 -88 -96 -192 -157 l-54 -32 7 43 c4 24 22 68 40 98 41 69
67 149 63 192 -3 30 -5 27 -27 -37 -48 -141 -49 -141 -47 1 1 135 -7 190 -26
178 -7 -4 -8 -27 -5 -61 6 -60 -16 -295 -36 -383 -11 -49 -17 -57 -50 -73 -36
-17 -39 -17 -75 2 -94 48 -288 85 -384 74 -27 -3 -48 -2 -48 4 0 5 15 45 34
90 19 44 67 173 106 285 118 333 147 373 355 483 72 37 153 81 180 96 28 16
53 28 57 29 4 0 35 -20 70 -44z m993 -146 c19 -26 71 -116 116 -201 45 -85
102 -187 127 -228 l46 -74 -45 -38 c-24 -21 -47 -39 -51 -39 -14 0 -159 166
-178 205 -14 29 -20 62 -20 111 0 71 -19 191 -45 275 -12 41 -12 47 1 42 7 -3
30 -26 49 -53z m-266 -86 c85 -33 92 -41 186 -204 87 -149 117 -187 279 -354
119 -121 136 -135 136 -112 0 19 -17 44 -60 88 -33 34 -59 62 -57 63 1 1 13 9
26 18 24 16 25 15 43 -14 10 -16 42 -77 72 -134 67 -131 82 -201 66 -318 -13
-94 -30 -129 -76 -153 -32 -17 -34 -17 -103 10 -85 33 -153 91 -188 160 -14
28 -43 100 -63 161 -21 60 -52 148 -68 195 l-31 85 -67 34 c-50 26 -78 48
-111 92 -50 64 -76 80 -175 104 -70 18 -103 40 -76 50 13 5 90 -3 206 -22 18
-3 32 -1 32 5 0 17 -140 72 -211 82 -80 11 -89 15 -89 36 0 26 153 19 245 -11
119 -39 119 -12 1 31 -52 19 -87 24 -155 24 -66 0 -92 4 -101 15 -17 20 17 32
112 40 63 6 82 3 144 -19 73 -27 114 -33 114 -17 0 9 -15 16 -118 52 -49 17
-76 21 -127 17 -74 -6 -86 6 -22 21 69 16 155 7 236 -25z m-456 -204 c8 -32
-11 -86 -48 -135 -19 -25 -35 -47 -35 -50 0 -28 149 72 203 137 27 32 35 37
30 20 -3 -14 1 -29 10 -40 14 -16 13 -20 -14 -56 -33 -44 -36 -56 -14 -56 8 0
29 18 46 40 32 40 52 48 78 31 11 -7 5 -22 -32 -74 -46 -65 -56 -87 -38 -87 9
0 82 85 108 126 10 17 12 15 12 -18 1 -28 -11 -53 -48 -109 -66 -97 -52 -124
18 -35 31 39 43 29 20 -17 -43 -82 -142 -162 -278 -224 -95 -44 -125 -68 -342
-279 -97 -94 -209 -193 -250 -220 -90 -60 -257 -135 -316 -142 -38 -4 -46 -1
-77 30 -72 72 -94 254 -57 463 29 161 27 155 64 155 50 0 209 -36 258 -57 l44
-20 -96 -47 c-102 -49 -143 -83 -137 -112 3 -15 7 -14 33 8 38 32 87 57 245
125 184 79 376 205 399 260 6 16 17 63 25 105 18 91 25 106 86 178 26 30 55
70 66 88 21 37 30 40 37 12z m184 4 c-3 -3 -12 -4 -19 -1 -8 3 -5 6 6 6 11 1
17 -2 13 -5z m206 -182 l27 -37 -17 -55 c-60 -203 -143 -380 -255 -545 -40
-59 -79 -117 -87 -129 -8 -11 4 -3 28 19 59 55 161 211 220 336 52 111 121
298 121 330 0 25 6 24 43 -7 17 -14 47 -32 68 -41 34 -13 41 -23 74 -101 20
-48 39 -98 42 -112 2 -14 -3 -87 -12 -161 -13 -111 -14 -160 -6 -270 16 -217
-8 -268 -154 -322 -65 -24 -172 -57 -184 -57 -3 0 13 18 34 40 21 22 36 40 33
40 -3 0 -43 -20 -90 -45 -153 -81 -296 -95 -521 -49 -26 5 -22 9 47 39 42 18
109 53 148 78 75 46 197 151 188 160 -3 3 -48 -26 -100 -65 -157 -116 -352
-198 -473 -198 -55 0 -173 40 -193 67 -20 26 -27 58 -20 96 5 26 18 39 72 72
55 34 74 40 124 41 64 1 142 33 244 98 31 20 59 36 62 36 12 0 -116 -134 -167
-175 -122 -96 -193 -116 -249 -69 -17 15 -34 24 -37 20 -13 -13 18 -57 52 -73
31 -15 42 -15 83 -5 99 27 210 112 327 252 92 111 171 232 231 353 28 55 57
100 68 105 37 17 126 103 152 148 20 34 25 55 24 96 -6 139 6 159 53 90z
m-1423 -387 c0 -29 -12 -32 -31 -9 -10 13 -10 17 2 25 23 14 29 11 29 -16z
m1089 -47 c-34 -67 -100 -170 -128 -201 -62 -67 -289 -197 -371 -212 -32 -5
-17 11 165 190 169 165 212 202 275 234 41 22 76 38 78 36 2 -2 -7 -23 -19
-47z m511 -681 c0 -32 -79 -75 -205 -112 -212 -61 -511 -52 -755 23 l-55 17
55 6 c41 4 80 -1 150 -18 141 -36 264 -41 386 -15 55 12 135 28 179 37 44 8
114 28 155 44 89 35 90 35 90 18z"/>
<path d="M4580 3793 c-39 -14 -93 -60 -111 -95 -25 -48 -6 -52 37 -7 16 17 47
40 69 51 70 36 74 76 5 51z"/>
<path d="M4831 3767 c-18 -18 -13 -45 10 -58 27 -14 44 1 35 34 -7 29 -29 40
-45 24z"/>
<path d="M4750 3742 c0 -12 26 -49 60 -85 33 -36 60 -72 60 -80 0 -9 -19 -25
-45 -36 -27 -12 -45 -26 -45 -37 0 -11 5 -14 18 -9 9 3 30 9 45 12 30 6 67 46
67 72 -1 9 -37 54 -80 100 -61 64 -80 79 -80 63z"/>
<path d="M4580 3685 c-18 -21 2 -65 30 -65 15 0 20 7 20 28 0 26 -15 52 -31
52 -4 0 -12 -7 -19 -15z"/>
<path d="M4233 3443 c-19 -7 -16 -23 5 -23 10 0 28 -7 40 -16 19 -13 22 -13
22 -1 0 24 -42 49 -67 40z"/>
<path d="M4845 3414 c-47 -17 -103 -59 -93 -70 5 -4 32 4 60 19 29 14 70 29
91 33 21 3 36 11 34 18 -5 16 -47 17 -92 0z"/>
<path d="M4880 3343 c-8 -3 -26 -10 -39 -15 -17 -6 -21 -12 -14 -19 15 -15 93
7 93 26 0 15 -13 18 -40 8z"/>
<path d="M5131 2813 c-1 -19 29 -156 36 -162 11 -11 -5 105 -20 139 -9 19 -16
30 -16 23z"/>
<path d="M5110 2018 c0 -3 -13 -56 -29 -119 -83 -323 -163 -516 -269 -649 -56
-71 -56 -70 -43 -70 40 0 163 188 221 337 65 166 144 482 126 500 -3 4 -6 4
-6 1z"/>
<path d="M5151 1600 c-44 -161 -92 -276 -149 -362 -28 -43 -23 -61 8 -33 49
44 116 194 146 324 19 84 15 142 -5 71z"/>
<path d="M4199 908 c-16 -61 -28 -162 -19 -171 6 -7 27 77 44 181 8 47 -11 39
-25 -10z"/>
<path d="M4837 863 c-58 -84 -165 -210 -224 -263 -48 -43 -52 -49 -23 -33 75
39 218 201 274 311 24 46 11 39 -27 -15z"/>
</g>
</svg>
