<?xml version="1.0" standalone="no"?>
<!DOCTYPE svg PUBLIC "-//W3C//DTD SVG 20010904//EN"
 "http://www.w3.org/TR/2001/REC-SVG-20010904/DTD/svg10.dtd">
<svg version="1.0" xmlns="http://www.w3.org/2000/svg"
 width="1024.000000pt" height="559.000000pt" viewBox="0 0 1024.000000 559.000000"
 preserveAspectRatio="xMidYMid meet">
<metadata>
Created by potrace 1.16, written by Peter Selinger 2001-2019
</metadata>
<g transform="translate(0.000000,559.000000) scale(0.100000,-0.100000)"
fill="#000000" stroke="none">
<path d="M5214 5190 c-12 -5 -25 -14 -29 -20 -4 -6 -15 -8 -26 -5 -31 10 -87
-14 -106 -46 -11 -19 -25 -29 -40 -29 -16 0 -30 -11 -43 -32 -11 -18 -31 -45
-45 -61 -19 -21 -25 -38 -25 -74 0 -26 -5 -62 -12 -80 -10 -27 -10 -40 1 -66
7 -17 17 -57 21 -88 8 -59 22 -93 43 -106 7 -4 20 -26 28 -48 9 -25 25 -45 42
-53 30 -14 34 -43 17 -117 -10 -48 -79 -115 -117 -115 -38 0 -211 -90 -265
-139 -58 -52 -86 -104 -140 -260 -22 -64 -57 -151 -79 -195 -21 -43 -39 -84
-39 -91 0 -8 13 -23 29 -34 32 -23 32 -14 0 -175 -22 -111 -27 -291 -10 -397
6 -36 23 -122 37 -190 27 -125 33 -227 25 -394 -7 -139 31 -208 143 -261 35
-17 35 -19 29 -58 -4 -23 -8 -58 -8 -80 0 -38 1 -39 60 -60 l60 -21 3 -109 c2
-78 -2 -120 -12 -150 -9 -22 -15 -59 -14 -81 1 -22 -11 -85 -27 -140 -25 -87
-29 -116 -28 -225 0 -69 6 -170 13 -224 10 -87 10 -110 -5 -181 -16 -73 -16
-84 -2 -111 10 -19 13 -46 10 -79 -3 -34 0 -56 9 -69 11 -14 12 -32 6 -79 -7
-50 -5 -64 9 -85 10 -14 27 -41 38 -61 31 -56 98 -84 210 -89 173 -6 212 53
110 168 -25 28 -56 72 -69 98 -21 42 -22 50 -10 67 16 22 19 98 4 125 -7 13
-5 30 9 62 16 37 18 52 9 109 -9 58 -6 87 20 230 17 90 34 204 37 252 4 49 15
107 25 130 10 23 23 69 30 102 9 51 53 232 66 273 2 7 14 12 26 10 21 -3 25
-13 39 -98 12 -69 13 -103 6 -127 -7 -24 -7 -43 2 -71 10 -29 10 -47 2 -78
-24 -81 -25 -241 -2 -377 24 -146 26 -186 9 -255 -9 -41 -8 -57 3 -84 8 -19
12 -56 10 -86 -1 -29 2 -58 7 -65 6 -8 6 -32 -1 -70 -9 -52 -8 -60 10 -85 25
-33 48 -40 142 -41 45 -1 105 -10 150 -23 95 -28 268 -32 316 -8 63 32 34 96
-54 120 -54 15 -145 64 -196 105 -39 33 -45 42 -45 77 0 21 -8 50 -17 64 -16
24 -15 28 1 59 13 24 17 45 12 77 -16 118 -17 154 -7 244 6 54 14 154 17 223
3 69 12 151 20 182 8 31 14 81 14 110 0 29 5 101 12 160 l12 106 50 25 51 24
-2 70 c-8 224 -75 736 -112 854 -22 70 -21 92 2 39 8 -19 34 -74 57 -124 69
-147 73 -161 59 -230 -10 -54 -9 -67 10 -124 l22 -64 -26 -50 c-30 -58 -27
-97 11 -140 34 -39 88 -44 131 -11 45 34 71 81 87 159 14 66 13 70 -14 164
-48 159 -70 287 -95 531 -10 98 -31 188 -60 259 -15 36 -29 94 -32 133 l-6 68
37 33 37 32 -29 80 c-17 44 -42 132 -57 195 -44 188 -63 238 -105 279 -49 46
-203 134 -240 136 -39 2 -60 22 -60 56 0 20 7 31 27 41 14 7 34 24 44 38 24
34 72 265 63 304 -14 60 -5 153 17 190 17 30 19 41 11 68 -6 18 -10 44 -10 58
0 38 -19 78 -41 85 -11 3 -30 21 -41 40 -26 42 -84 64 -119 45 -19 -10 -26 -9
-44 8 -26 24 -74 34 -103 22z m93 -40 c27 -16 37 -18 58 -8 35 16 92 -11 101
-47 4 -15 13 -25 25 -25 26 0 49 -38 49 -82 0 -20 4 -48 9 -61 7 -18 6 -30 -4
-43 -11 -15 -14 -16 -15 -4 0 8 -7 28 -15 43 -8 15 -11 35 -8 43 5 14 3 14
-14 3 -25 -15 -53 -6 -53 19 0 10 -6 26 -13 37 -13 16 -14 15 -10 -11 8 -56
-52 -81 -78 -33 -13 26 -26 24 -53 -8 -24 -27 -24 -27 -58 -11 l-34 16 -11
-28 c-8 -21 -19 -29 -39 -32 -28 -3 -29 -5 -26 -50 3 -39 0 -48 -17 -58 -17
-9 -19 -15 -11 -30 10 -18 3 -80 -9 -80 -3 1 -15 15 -26 33 -23 37 -64 47 -89
22 -22 -22 -20 -78 4 -125 11 -22 16 -40 10 -40 -20 0 -45 55 -46 102 -1 27
-7 54 -12 61 -19 22 -23 62 -11 92 7 17 11 35 10 40 -10 38 -1 81 21 100 13
11 29 32 36 48 6 15 24 32 39 38 14 5 44 26 66 45 33 31 44 35 72 30 22 -5 36
-2 45 9 17 21 69 19 107 -5z m54 -213 c9 -3 28 1 43 8 15 8 28 10 31 4 4 -5
17 -9 29 -9 25 0 39 -24 51 -86 6 -30 4 -32 -34 -38 -40 -6 -76 -39 -64 -59 3
-5 14 -40 23 -78 14 -55 15 -70 5 -79 -19 -15 -93 -1 -99 19 -3 9 -4 5 -3 -9
2 -21 9 -26 46 -32 79 -13 96 16 67 114 -16 50 -11 68 10 40 12 -16 14 -16 27
3 15 19 16 18 22 -19 18 -94 -26 -315 -71 -353 -41 -37 -105 -31 -202 17 -84
42 -128 83 -138 128 -9 45 -27 73 -42 67 -39 -15 -95 69 -90 133 3 32 7 37 29
40 21 2 31 -4 47 -32 35 -60 68 -43 67 34 0 25 6 51 14 59 8 10 11 28 8 53 -4
32 -2 38 13 38 10 0 28 12 39 26 16 21 23 23 40 15 24 -13 69 1 78 25 5 15 8
14 22 -3 9 -11 23 -23 32 -26z m159 -160 c0 -10 -14 -14 -45 -14 -59 0 -59 21
0 25 33 2 45 -1 45 -11z m-495 -213 c27 -18 35 -64 11 -64 -18 0 -33 19 -41
53 -8 31 -4 33 30 11z m106 -140 c33 -35 159 -95 213 -101 l45 -5 -6 -64 c-4
-45 -2 -64 6 -64 6 0 11 9 11 20 0 24 3 24 40 5 36 -19 38 -34 7 -63 -66 -62
-208 -52 -400 28 -76 32 -115 60 -85 60 24 0 85 63 97 99 6 19 11 75 12 125
l0 91 18 -53 c10 -29 29 -64 42 -78z m4 -300 c192 -62 341 -35 357 64 3 21 7
19 88 -29 148 -88 155 -100 205 -314 14 -60 39 -152 57 -204 l31 -94 -24 -19
c-31 -25 -115 -68 -131 -68 -13 0 -11 107 5 305 2 33 3 44 0 25 -7 -57 -23
-60 -24 -4 0 27 -7 72 -14 99 l-14 50 7 -50 c10 -79 6 -462 -6 -550 -6 -44
-13 -100 -16 -125 l-6 -45 13 45 13 45 16 -85 c22 -116 4 -161 -70 -176 -33
-7 -46 11 -17 22 8 4 15 10 15 16 0 5 -21 -7 -46 -27 -60 -45 -111 -59 -188
-50 l-60 7 44 24 c62 32 36 30 -67 -6 -47 -16 -101 -30 -119 -30 -18 0 -77 20
-130 45 -53 25 -108 47 -123 50 -14 3 -3 -6 27 -20 28 -13 52 -28 52 -31 0 -4
-28 -4 -63 -2 -68 6 -140 37 -157 67 -13 26 -13 114 0 106 14 -9 12 27 -5 118
-19 101 -19 106 4 100 26 -7 35 14 57 122 10 51 27 104 40 123 24 34 49 100
42 108 -3 2 -15 -21 -27 -51 -26 -63 -43 -73 -30 -17 9 41 12 98 4 90 -3 -3
-19 -76 -35 -162 -16 -86 -34 -165 -40 -175 -8 -16 -16 -17 -52 -11 -51 10
-131 36 -173 57 -59 29 -145 88 -145 99 0 6 18 49 39 95 21 46 58 138 81 204
46 132 86 203 134 240 18 14 74 46 126 73 l93 49 76 -39 c42 -21 112 -50 156
-64z m-585 -668 c30 -16 85 -39 122 -50 l66 -21 -29 -64 c-28 -62 -29 -69 -35
-280 -9 -289 -9 -389 -1 -432 4 -21 29 -66 56 -102 36 -50 51 -81 60 -127 7
-33 19 -79 26 -101 14 -39 14 -40 -7 -37 -22 3 -31 16 -64 91 -23 52 -36 34
-35 -49 0 -52 6 -80 26 -121 29 -59 26 -81 -9 -58 -31 20 -63 81 -78 146 -6
30 -14 46 -16 35 -6 -29 17 -107 44 -148 30 -47 17 -49 -29 -5 -22 21 -39 49
-46 77 -14 55 -30 94 -36 88 -3 -2 4 -36 14 -74 11 -38 18 -70 17 -71 -8 -8
-34 39 -50 90 -9 31 -20 57 -23 57 -5 0 3 -53 13 -88 3 -9 -3 -3 -13 13 -16
26 -18 51 -15 205 2 167 1 184 -34 355 -44 223 -55 411 -31 526 9 41 19 94 23
119 7 49 12 63 22 58 4 -2 32 -16 62 -32z m1260 -36 c0 -31 15 -93 39 -167 28
-84 43 -150 51 -228 25 -236 52 -380 112 -591 19 -69 -5 -171 -52 -223 -59
-65 -84 -47 -35 25 14 20 25 49 25 63 0 15 6 33 12 39 10 10 10 14 0 21 -9 5
-11 24 -8 62 8 80 -12 37 -23 -51 -10 -79 -13 -85 -36 -77 -11 5 -15 22 -15
70 0 40 -5 70 -15 83 -8 11 -15 43 -15 74 -1 40 -4 50 -10 35 -14 -32 -11 -74
6 -110 9 -19 14 -42 11 -52 -3 -14 -6 -12 -16 12 -21 50 -27 107 -17 162 11
62 -5 113 -90 286 -30 61 -54 116 -54 123 0 7 12 30 26 51 28 40 28 51 4 178
-5 28 -9 90 -9 138 -1 75 2 88 17 93 9 3 31 12 47 19 44 20 45 19 45 -35z
m-1045 -242 c0 -125 0 -127 28 -155 33 -36 34 -62 2 -141 -14 -33 -36 -118
-50 -188 -14 -70 -27 -130 -30 -132 -13 -14 -20 49 -19 183 2 459 4 502 26
551 18 43 21 45 32 28 6 -11 11 -70 11 -146z m200 -205 c56 -3 103 -11 125
-21 23 -11 58 -16 100 -16 36 1 92 1 125 1 171 -3 192 -1 218 16 14 9 45 17
67 17 34 0 41 -3 38 -17 -2 -12 -24 -24 -68 -37 -53 -16 -98 -19 -250 -20
-181 -1 -242 5 -397 41 -54 12 -73 21 -77 35 -3 15 -1 18 12 12 9 -4 58 -9
107 -11z m-74 -53 c18 -10 18 -13 3 -42 -21 -41 -64 -186 -63 -212 1 -20 1
-20 6 -1 13 58 64 212 75 228 18 24 73 14 62 -12 -14 -31 -54 -195 -51 -206 2
-5 7 6 11 25 11 51 45 163 55 178 6 10 32 10 137 0 l129 -13 6 -55 6 -55 1 55
2 55 58 0 c31 0 87 3 124 8 l66 7 11 -52 c6 -29 24 -168 40 -308 16 -140 29
-241 30 -225 1 47 -27 328 -45 445 -23 148 -23 144 8 148 25 3 27 0 42 -70 8
-40 17 -82 19 -93 4 -18 5 -18 6 2 0 12 -6 54 -14 93 -16 77 -14 90 14 90 20
0 23 -8 46 -112 29 -132 88 -611 98 -797 3 -52 -29 -70 -149 -82 -54 -6 -144
-20 -199 -32 -127 -28 -247 -27 -455 1 -176 25 -243 38 -283 59 -24 12 -27 19
-23 44 20 99 15 92 53 86 69 -12 80 15 38 97 -16 32 -25 65 -24 95 l0 46 12
-34 c7 -19 24 -43 38 -54 22 -16 30 -17 49 -7 16 9 20 17 15 33 -17 56 -27 96
-37 142 -11 57 -22 81 -51 112 l-20 22 23 123 c21 111 36 168 69 251 11 29 30
34 62 17z m969 -577 c0 -30 -43 -93 -55 -81 -4 4 2 19 14 34 11 15 21 34 21
44 0 15 8 30 17 30 2 0 3 -12 3 -27z m-8 -107 c-39 -45 -52 -28 -16 19 18 24
30 33 37 26 7 -7 0 -22 -21 -45z m68 25 c0 -6 -5 -13 -10 -16 -6 -4 -20 -25
-31 -47 -14 -27 -24 -37 -31 -30 -11 11 3 44 35 80 21 23 37 29 37 13z m-255
-413 c-4 -29 -10 -107 -15 -173 -7 -113 -25 -189 -60 -255 -6 -12 -9 -24 -7
-27 3 -3 12 8 21 24 l15 28 0 -50 c1 -27 -6 -111 -14 -185 -18 -163 -19 -252
-4 -317 10 -42 9 -55 -6 -87 -16 -33 -17 -43 -6 -70 7 -17 16 -43 18 -58 4
-23 2 -28 -14 -28 -11 0 -53 -11 -93 -25 -79 -27 -129 -31 -161 -15 -21 12
-21 15 -19 242 1 67 -6 157 -15 209 -24 140 -28 227 -15 309 21 137 23 166 10
189 -9 18 -9 29 0 51 10 23 9 48 -5 125 -10 53 -16 97 -14 99 12 8 236 51 299
56 41 4 79 7 84 8 5 1 6 -21 1 -50z m-725 22 c194 -26 240 -35 240 -44 0 -6
-11 -51 -24 -101 -14 -49 -30 -119 -37 -155 -6 -36 -23 -87 -37 -115 -21 -42
-25 -62 -23 -121 1 -46 -9 -129 -29 -238 -27 -143 -31 -181 -25 -252 6 -69 4
-88 -9 -109 -18 -27 -21 -71 -6 -80 11 -7 13 -54 4 -79 -5 -12 -15 -14 -49 -9
-29 4 -66 -2 -120 -18 -76 -22 -78 -22 -92 -3 -9 12 -12 31 -8 55 4 23 1 50
-10 75 -14 34 -14 43 1 107 16 65 16 80 0 251 -19 202 -15 251 29 408 14 47
24 104 23 125 0 21 4 48 10 60 7 13 12 71 12 143 l0 122 48 -7 c26 -4 72 -11
102 -15z m697 -1274 c54 -48 111 -81 205 -120 146 -60 134 -89 -38 -94 -87 -3
-126 0 -162 13 -26 9 -98 20 -160 25 -141 12 -152 18 -152 73 0 78 6 87 60 87
26 0 81 11 121 25 41 13 77 24 81 25 5 0 25 -15 45 -34z m-682 -54 c6 -4 22
-32 36 -62 15 -30 50 -84 78 -119 28 -35 51 -69 51 -77 0 -40 -78 -61 -178
-49 -84 10 -135 36 -155 77 -9 20 -23 41 -32 48 -16 13 -19 51 -9 110 6 34 9
37 77 57 77 23 116 27 132 15z"/>
<path d="M5211 4803 c-21 -17 -20 -18 63 -18 57 0 86 4 86 11 0 27 -118 32
-149 7z"/>
<path d="M5239 4749 c-18 -15 -19 -18 -5 -11 15 8 24 5 38 -12 l18 -21 6 23
c4 15 12 21 22 17 12 -4 13 -3 2 10 -18 21 -54 19 -81 -6z"/>
<path d="M4987 4724 c-13 -14 -7 -26 7 -15 19 16 31 -3 31 -48 0 -21 6 -36 15
-39 13 -5 13 -3 1 12 -12 14 -12 19 -2 26 11 6 11 13 0 36 -14 28 -38 41 -52
28z"/>
<path d="M5137 4631 c3 -11 14 -28 25 -38 19 -17 19 -15 -2 20 -25 42 -31 46
-23 18z"/>
<path d="M5320 4500 c-17 -5 1 -8 58 -9 48 -1 82 3 82 9 0 12 -103 12 -140 0z"/>
<path d="M5367 4448 c6 -11 51 -10 57 0 3 5 -10 8 -29 8 -18 -1 -31 -4 -28 -8z"/>
<path d="M5217 4215 c15 -30 29 -53 31 -51 4 5 -46 106 -53 106 -3 0 7 -25 22
-55z"/>
<path d="M4986 4122 c88 -77 294 -202 334 -202 8 0 -18 16 -58 35 -40 19 -117
66 -172 105 -54 38 -102 70 -106 70 -5 0 -4 -4 2 -8z"/>
<path d="M5531 4074 c0 -11 3 -14 6 -6 3 7 2 16 -1 19 -3 4 -6 -2 -5 -13z"/>
<path d="M5469 4054 c-13 -14 -40 -35 -59 -45 -27 -15 -29 -18 -10 -13 32 7
69 34 88 62 19 30 11 28 -19 -4z"/>
<path d="M4764 4040 c16 -19 40 -57 53 -85 13 -27 21 -39 17 -25 -9 36 -48
102 -75 125 -18 15 -16 11 5 -15z"/>
<path d="M5516 4015 c-4 -22 -21 -65 -37 -95 -24 -47 -25 -51 -6 -27 28 33 60
119 55 144 -2 10 -7 1 -12 -22z"/>
<path d="M5595 3413 c-11 -73 -57 -218 -85 -270 -15 -29 -24 -51 -20 -48 12 7
55 86 69 126 29 81 60 229 48 229 -4 0 -9 -17 -12 -37z"/>
<path d="M4821 3320 c-1 -17 55 -140 64 -140 3 0 -4 19 -16 42 -12 23 -27 58
-34 77 -8 20 -14 29 -14 21z"/>
<path d="M5027 3228 c15 -29 52 -77 82 -108 l53 -55 -51 64 c-28 35 -63 83
-77 107 -36 61 -41 55 -7 -8z"/>
<path d="M4453 3215 c0 -22 2 -30 4 -17 2 12 2 30 0 40 -3 9 -5 -1 -4 -23z"/>
<path d="M4462 3150 c0 -14 2 -19 5 -12 2 6 2 18 0 25 -3 6 -5 1 -5 -13z"/>
<path d="M5739 3263 c-13 -16 -12 -17 4 -4 16 13 21 21 13 21 -2 0 -10 -8 -17
-17z"/>
<path d="M5167 2846 c-12 -31 -54 -513 -45 -521 3 -3 11 61 17 142 7 81 18
202 25 268 13 120 13 139 3 111z"/>
<path d="M5362 2690 c0 -14 2 -19 5 -12 2 6 2 18 0 25 -3 6 -5 1 -5 -13z"/>
<path d="M5372 2620 c0 -19 2 -27 5 -17 2 9 2 25 0 35 -3 9 -5 1 -5 -18z"/>
<path d="M4822 2620 c0 -14 2 -19 5 -12 2 6 2 18 0 25 -3 6 -5 1 -5 -13z"/>
<path d="M5383 2545 c0 -22 2 -30 4 -17 2 12 2 30 0 40 -3 9 -5 -1 -4 -23z"/>
<path d="M4892 2300 c0 -14 2 -19 5 -12 2 6 2 18 0 25 -3 6 -5 1 -5 -13z"/>
<path d="M5112 2280 c0 -19 2 -27 5 -17 2 9 2 25 0 35 -3 9 -5 1 -5 -18z"/>
<path d="M4875 2200 c-4 -34 -5 -63 -2 -66 2 -3 7 23 11 57 4 33 5 63 3 66 -3
2 -8 -23 -12 -57z"/>
<path d="M4861 2084 c0 -11 3 -14 6 -6 3 7 2 16 -1 19 -3 4 -6 -2 -5 -13z"/>
<path d="M5371 1729 c18 -33 50 -79 71 -102 l39 -42 -37 50 c-20 28 -50 74
-66 103 -41 72 -46 66 -7 -9z"/>
<path d="M5360 1554 c0 -6 19 -28 43 -49 l42 -40 -40 45 c-22 25 -41 47 -42
49 -2 2 -3 0 -3 -5z"/>
<path d="M5380 1086 c0 -22 75 -147 107 -177 l37 -34 -36 43 c-20 24 -52 74
-72 110 -19 37 -36 63 -36 58z"/>
<path d="M5475 808 c-103 -34 -109 -37 -95 -53 7 -8 22 -14 34 -14 20 1 20 2
1 6 -53 13 -38 24 65 47 14 3 34 12 45 20 11 9 18 15 15 14 -3 0 -32 -10 -65
-20z"/>
<path d="M5450 689 c-41 -16 -59 -26 -40 -23 33 6 146 53 125 52 -5 0 -44 -13
-85 -29z"/>
<path d="M4831 1779 c-1 -19 29 -122 34 -117 2 2 -5 32 -15 68 -10 36 -19 58
-19 49z"/>
<path d="M4870 1645 c0 -5 5 -17 10 -25 5 -8 10 -10 10 -5 0 6 -5 17 -10 25
-5 8 -10 11 -10 5z"/>
<path d="M5004 1435 c-33 -35 -53 -60 -45 -55 22 12 123 122 110 119 -2 0 -31
-29 -65 -64z"/>
<path d="M5028 1358 c-22 -34 -39 -68 -35 -68 8 0 59 82 54 86 -2 3 -11 -6
-19 -18z"/>
<path d="M4790 956 c0 -17 59 -102 92 -131 l33 -30 -27 30 c-14 17 -42 55 -62
85 -20 30 -36 51 -36 46z"/>
<path d="M4887 729 c-21 -11 -57 -24 -80 -29 -36 -7 -38 -8 -12 -9 28 -1 135
42 135 54 0 7 0 7 -43 -16z"/>
<path d="M4855 646 c-23 -7 -50 -18 -60 -25 -20 -12 -20 -12 0 -5 11 4 39 12
62 18 23 7 45 15 49 19 10 10 -4 8 -51 -7z"/>
</g>
</svg>
