<?xml version="1.0" standalone="no"?>
<!DOCTYPE svg PUBLIC "-//W3C//DTD SVG 20010904//EN"
 "http://www.w3.org/TR/2001/REC-SVG-20010904/DTD/svg10.dtd">
<svg version="1.0" xmlns="http://www.w3.org/2000/svg"
 width="1024.000000pt" height="559.000000pt" viewBox="0 0 1024.000000 559.000000"
 preserveAspectRatio="xMidYMid meet">
<metadata>
Created by potrace 1.16, written by Peter Selinger 2001-2019
</metadata>
<g transform="translate(0.000000,559.000000) scale(0.100000,-0.100000)"
fill="#000000" stroke="none">
<path d="M6165 5047 c-11 -6 -43 -10 -71 -8 -42 2 -56 -2 -80 -22 -16 -13 -42
-27 -59 -31 -34 -9 -65 -33 -65 -52 0 -6 -16 -21 -35 -33 -37 -22 -55 -54 -55
-101 0 -15 -6 -30 -14 -33 -25 -10 -40 -77 -25 -112 6 -16 12 -58 13 -92 1
-52 5 -66 27 -90 26 -27 36 -55 44 -121 2 -18 9 -40 16 -48 6 -8 10 -16 8 -18
-6 -6 -316 -121 -379 -141 -104 -33 -182 -81 -250 -150 -36 -37 -116 -110
-177 -162 -92 -77 -113 -99 -113 -121 0 -20 -26 -55 -101 -137 -55 -60 -106
-121 -113 -135 -20 -37 -40 -278 -32 -388 4 -52 18 -163 31 -246 13 -83 28
-213 32 -289 7 -121 6 -136 -7 -131 -35 15 -109 32 -168 37 -89 7 -71 -1 34
-17 125 -19 154 -33 186 -92 14 -27 34 -80 43 -119 19 -75 37 -105 66 -105 26
0 41 34 35 78 -4 29 -1 24 14 -22 28 -83 33 -87 99 -82 31 2 57 5 57 5 1 1 5
13 8 27 4 16 12 24 20 21 8 -3 24 1 36 10 20 14 22 22 18 92 -3 42 -8 84 -12
94 -6 13 -5 16 8 11 23 -9 63 3 70 22 9 23 -112 144 -180 180 -30 16 -62 36
-70 45 -21 23 -20 231 1 364 32 199 35 221 35 285 l0 65 63 34 c63 33 64 33
97 16 18 -9 41 -15 51 -12 17 5 19 -1 19 -46 0 -27 -7 -73 -16 -101 -15 -48
-15 -54 1 -91 20 -46 23 -91 8 -120 -32 -61 -47 -279 -24 -354 13 -41 7 -50
-16 -28 -24 21 -117 67 -134 66 -8 0 2 -8 21 -17 70 -33 150 -87 156 -104 3
-10 32 -54 64 -98 l59 -79 -48 6 c-28 3 -51 1 -54 -4 -4 -6 19 -12 58 -15 80
-7 80 -7 182 -197 90 -165 101 -174 196 -169 l62 3 -2 -30 c-2 -16 2 -42 8
-57 8 -20 7 -45 -5 -103 -21 -103 -20 -186 5 -330 15 -91 19 -141 14 -207 -5
-66 -3 -93 8 -115 10 -19 13 -46 10 -83 -4 -45 -2 -58 14 -73 17 -15 18 -23
10 -65 -15 -70 -3 -110 49 -169 25 -29 60 -81 78 -115 55 -109 152 -149 325
-134 133 11 160 56 96 164 -19 33 -47 70 -61 81 -32 25 -91 100 -132 168 -25
43 -29 53 -17 63 11 9 13 43 9 163 -5 210 -5 213 11 318 8 52 21 148 30 214 9
66 23 167 31 225 18 132 18 167 -1 220 -8 23 -15 44 -15 45 0 2 12 6 27 10 15
3 61 22 101 41 l74 34 39 -20 c34 -18 39 -25 39 -55 0 -20 -10 -52 -23 -73
-12 -20 -28 -49 -34 -64 -14 -31 -39 -163 -48 -256 -4 -36 -17 -82 -31 -109
-14 -25 -27 -66 -29 -90 -3 -24 -12 -57 -21 -74 -9 -18 -13 -41 -9 -58 4 -19
-2 -41 -19 -72 -34 -59 -42 -118 -22 -156 19 -38 44 -54 130 -84 55 -19 84
-38 140 -89 39 -36 87 -71 106 -78 19 -8 60 -23 90 -35 81 -32 141 -29 179 7
24 23 31 38 31 68 0 58 -23 92 -92 136 -92 57 -201 183 -180 204 7 7 12 32 12
57 0 34 6 51 25 71 18 18 29 46 37 91 7 40 36 119 81 214 186 401 182 389 182
495 0 115 -7 130 -124 244 -75 74 -79 80 -68 105 6 14 20 33 31 42 15 13 20
29 20 66 0 78 -39 127 -148 184 -49 26 -93 54 -97 62 -14 24 -38 193 -44 312
-7 119 -19 195 -42 263 -14 42 -14 44 13 79 25 34 28 45 32 152 10 256 9 282
-18 335 -14 27 -42 63 -63 82 l-39 33 15 68 c10 43 15 113 15 190 -1 108 1
124 20 147 29 37 30 173 1 210 -10 13 -19 32 -19 41 0 21 -53 75 -74 75 -8 0
-20 9 -26 20 -14 25 -65 52 -93 48 -12 -1 -33 5 -47 15 -28 20 -105 22 -135 4z
m126 -36 c15 -12 35 -17 51 -14 33 6 67 -12 78 -43 6 -15 17 -24 31 -24 29 0
59 -28 59 -53 0 -12 10 -31 21 -44 12 -12 21 -35 21 -50 -1 -38 -1 -64 -1 -92
1 -38 -19 -49 -31 -16 -13 33 -14 61 -5 95 6 23 5 24 -8 8 -19 -24 -25 -22
-20 6 3 13 0 27 -6 30 -6 4 -9 1 -5 -7 2 -7 -4 -24 -14 -37 -23 -28 -67 -22
-77 11 -7 20 -8 19 -26 -10 -25 -41 -67 -45 -105 -10 -22 20 -44 25 -44 10 0
-17 -31 -41 -54 -41 -12 0 -33 11 -46 25 -29 31 -40 24 -40 -25 0 -32 -5 -43
-27 -57 -16 -9 -29 -18 -31 -19 -2 -1 4 -13 12 -27 18 -26 13 -52 -9 -61 -11
-4 -13 -18 -8 -56 5 -42 3 -50 -11 -50 -9 0 -16 6 -16 14 0 28 -50 76 -80 76
-29 0 -38 -6 -64 -45 -14 -19 -15 -18 -31 16 -15 32 -16 40 -3 65 13 26 12 33
-5 66 -21 42 -17 68 16 99 15 13 21 29 19 49 -4 38 13 69 46 81 15 5 34 24 42
42 12 25 22 33 47 35 20 2 44 15 62 33 31 31 68 37 101 17 15 -10 22 -9 37 4
37 32 77 32 124 -1z m-39 -281 c27 -25 78 -26 104 -1 15 14 25 16 38 9 10 -6
31 -8 48 -6 26 4 32 1 43 -26 7 -17 15 -45 18 -61 5 -28 2 -32 -38 -48 -24
-10 -51 -30 -60 -44 -15 -22 -15 -29 -2 -61 24 -63 41 -162 30 -173 -7 -7 -29
-8 -64 -2 -46 7 -53 12 -51 28 3 16 1 18 -9 7 -22 -20 3 -46 52 -55 95 -16
110 7 79 127 -19 75 -18 118 2 82 11 -20 28 -21 28 -1 0 18 16 20 26 3 28 -45
21 -126 -27 -326 -26 -107 -39 -128 -86 -141 -61 -17 -86 -13 -169 28 -103 52
-160 102 -189 165 -17 37 -24 45 -24 28 -1 -12 8 -42 20 -67 23 -49 76 -93
176 -145 67 -35 69 -43 24 -84 -12 -11 -21 -26 -21 -35 0 -10 15 -1 41 27 23
24 42 42 44 40 10 -10 -29 -87 -55 -110 -25 -23 -40 -28 -81 -28 -65 0 -146
38 -194 91 -78 86 -117 218 -78 261 19 22 41 25 23 3 -10 -12 -10 -15 3 -15 8
0 25 20 37 44 11 24 27 47 35 50 25 9 17 27 -8 21 -19 -5 -31 2 -60 34 -48 53
-66 113 -46 150 27 48 73 34 99 -30 9 -20 19 -29 35 -29 34 0 48 24 40 66 -5
27 -2 41 11 55 12 13 15 29 11 52 -4 26 -1 36 14 45 12 8 19 23 19 42 0 35 -2
34 37 15 34 -17 79 -7 89 20 8 19 11 19 36 -5z m258 -173 c0 -31 -8 -38 -30
-24 -14 8 -25 8 -44 -1 -21 -9 -26 -9 -26 1 0 7 19 20 43 29 56 22 57 22 57
-5z m-580 -273 c0 -2 -4 -4 -10 -4 -14 0 -50 42 -50 58 0 8 13 1 30 -18 17
-18 30 -34 30 -36z m-62 -54 c-28 -29 -30 -35 -26 -88 5 -69 38 -138 97 -204
72 -80 178 -120 260 -98 50 13 95 69 105 130 6 39 7 40 47 40 78 0 121 41 135
129 4 23 11 44 17 48 16 10 70 -59 91 -117 16 -45 18 -66 11 -154 -5 -55 -9
-133 -9 -172 -1 -56 -5 -76 -20 -93 -24 -27 -85 -65 -92 -58 -7 7 24 123 43
159 20 42 33 78 27 78 -3 0 -12 -15 -20 -32 -15 -33 -15 -33 -10 27 6 76 -7
55 -29 -46 -42 -188 -80 -288 -144 -374 -52 -69 -59 -84 -27 -55 l27 25 -10
-27 c-5 -14 -24 -54 -41 -88 -17 -34 -35 -74 -41 -88 l-9 -27 20 24 20 23 0
-57 c0 -51 -3 -60 -32 -87 -30 -28 -98 -68 -115 -68 -4 0 1 7 11 15 43 32 -2
13 -58 -25 -66 -45 -139 -70 -202 -70 -40 0 -180 35 -256 65 -61 24 -44 7 25
-25 l62 -29 -47 0 c-112 -2 -200 38 -264 119 -34 43 -48 44 -18 2 21 -30 5
-28 -43 7 -56 41 -70 79 -49 134 9 25 16 72 16 113 l0 70 68 66 c49 49 77 68
103 73 20 4 54 18 75 31 41 27 23 25 -45 -2 -48 -20 -60 -17 -31 9 14 13 32
31 40 42 30 39 -86 -53 -178 -140 l-94 -89 -42 22 c-69 37 -140 106 -173 169
-36 67 -66 164 -58 184 4 8 45 45 92 83 80 65 84 67 69 35 -16 -33 -16 -33 1
-9 51 70 139 173 167 194 47 37 119 70 237 110 58 19 155 56 215 80 60 25 114
45 121 45 6 1 -2 -13 -19 -29z m-888 -626 c18 -62 77 -152 131 -196 24 -20 41
-39 39 -41 -3 -3 -39 -23 -80 -46 -41 -22 -67 -41 -57 -41 25 0 23 -112 -8
-289 -18 -105 -25 -180 -25 -277 0 -155 3 -160 105 -215 48 -26 165 -129 165
-145 0 -10 -58 -3 -71 9 -8 6 -28 32 -43 55 -44 70 -43 40 3 -53 36 -75 41
-93 41 -155 0 -38 -4 -70 -10 -70 -15 0 -30 36 -30 71 0 33 -47 149 -60 149
-5 0 0 -28 11 -62 24 -80 26 -208 4 -208 -18 0 -19 3 -33 90 -10 66 -48 167
-58 157 -3 -3 3 -36 15 -74 22 -76 31 -165 16 -173 -12 -6 -29 28 -56 115 -40
133 -73 140 -56 14 10 -78 5 -121 -13 -103 -6 6 -20 48 -31 94 -12 47 -33 103
-47 125 -23 35 -27 56 -34 170 -4 72 -15 177 -24 235 -37 248 -43 310 -43 395
0 115 22 278 40 303 24 34 184 211 190 212 4 0 12 -21 19 -46z m1583 -86 c21
-80 25 -111 37 -288 6 -80 18 -176 28 -215 l17 -70 89 -47 c130 -69 157 -100
155 -180 -1 -25 -3 -32 -6 -18 -5 34 -44 120 -55 120 -11 0 -11 -1 13 -54 15
-36 19 -57 13 -91 -9 -62 -24 -67 -24 -8 0 44 -34 142 -45 131 -3 -2 2 -25 11
-51 9 -25 14 -54 12 -64 -3 -16 -7 -15 -31 9 -15 15 -27 35 -27 46 0 10 -7 27
-15 38 -15 18 -16 17 -9 -16 l7 -34 -37 28 c-21 15 -72 52 -115 82 -75 51 -79
56 -86 99 -9 63 -36 137 -91 255 l-47 100 18 57 c24 77 63 143 84 143 10 0 26
10 37 22 l19 22 -28 -18 c-16 -10 -31 -16 -33 -13 -10 10 17 58 38 67 47 18
54 13 71 -52z m-183 -344 c41 -88 94 -243 86 -251 -9 -10 -68 30 -78 53 -7 14
-29 34 -50 45 -33 17 -37 22 -28 39 5 10 10 52 10 94 0 67 6 106 16 106 1 0
21 -39 44 -86z m-920 -230 c74 -48 110 -57 255 -63 234 -9 264 -7 336 27 35
17 91 42 124 56 l60 26 -40 -35 c-67 -59 -175 -106 -276 -121 -80 -12 -103
-11 -219 6 -151 22 -245 53 -324 104 -42 28 -56 44 -56 62 l0 23 53 -31 c28
-17 68 -42 87 -54z m867 47 c17 -11 34 -28 37 -38 4 -10 44 -42 91 -71 91 -57
325 -224 325 -232 0 -3 -16 -6 -35 -7 -59 -3 -122 -41 -224 -137 -159 -148
-241 -179 -370 -137 -98 32 -192 29 -268 -9 -85 -42 -133 -99 -172 -199 -17
-45 -34 -97 -37 -114 l-5 -32 23 28 24 27 28 -29 27 -29 -35 -6 c-68 -13 -79
-4 -149 127 -36 67 -77 139 -91 160 l-26 38 32 -24 c40 -29 97 -65 83 -51 -5
6 -32 27 -60 49 -113 87 -190 181 -221 268 -34 95 -35 254 -3 354 l10 32 60
-39 c77 -50 154 -75 309 -101 144 -24 235 -21 332 12 83 27 189 92 230 139 39
45 43 46 85 21z m563 -478 c121 -121 142 -158 141 -248 0 -70 -18 -119 -69
-190 -20 -29 -26 -42 -13 -31 27 25 27 22 -10 -55 -123 -254 -169 -362 -175
-414 -5 -41 -14 -62 -35 -85 -24 -24 -29 -39 -29 -79 0 -58 -5 -61 -100 -61
-75 0 -103 9 -167 53 -51 36 -57 50 -38 87 8 16 15 45 15 65 0 20 11 55 24 78
25 43 40 105 51 212 10 92 25 144 64 220 19 39 36 81 36 95 0 24 3 25 87 32
48 3 95 11 105 18 15 9 12 10 -17 6 -128 -19 -158 -19 -187 1 -15 11 -74 42
-130 68 -57 26 -103 51 -103 54 1 3 23 16 50 29 27 13 93 64 148 116 55 51
119 102 143 114 78 39 90 34 209 -85z m-779 -161 c19 -8 42 -42 89 -134 64
-122 65 -123 64 -203 -1 -69 -6 -92 -38 -163 -43 -100 -46 -117 -6 -42 16 30
29 50 30 45 1 -22 -21 -187 -46 -345 -21 -130 -25 -182 -19 -245 4 -44 6 -91
5 -105 0 -14 -1 -58 -1 -98 l0 -74 -52 -24 c-73 -33 -146 -32 -212 4 -43 23
-50 32 -53 61 -2 19 -1 44 2 57 l6 23 46 -26 c25 -14 47 -23 50 -21 2 3 -20
18 -48 33 -29 16 -57 35 -63 44 -5 9 -11 72 -11 141 -1 69 -9 163 -18 210 -21
111 -20 207 2 302 15 62 17 80 6 99 -6 13 -10 38 -7 56 5 29 -1 39 -55 95
l-60 63 13 36 c39 109 103 177 198 211 54 19 127 19 178 0z m262 -66 c52 -25
57 -29 40 -40 -25 -17 -153 -70 -156 -65 -6 8 -77 137 -77 141 0 1 30 1 67 -2
46 -4 87 -15 126 -34z m66 -920 c54 -37 131 -53 196 -43 33 5 37 3 100 -78 52
-67 80 -93 135 -125 38 -22 74 -49 80 -60 16 -30 12 -85 -7 -102 -36 -31 -62
-31 -164 3 -89 29 -105 38 -151 85 -55 57 -113 92 -195 118 -56 19 -103 63
-103 98 0 18 48 138 55 138 2 0 26 -15 54 -34z m-489 -441 c34 -19 116 -19
174 1 26 9 48 15 50 13 1 -2 19 -34 40 -71 20 -37 68 -101 106 -142 95 -103
120 -157 86 -185 -8 -7 -55 -15 -104 -18 -162 -10 -235 24 -293 138 -16 32
-49 81 -74 109 -46 52 -52 73 -39 139 7 34 17 37 54 16z"/>
<path d="M6341 4920 c-8 -5 -3 -9 16 -13 17 -3 34 -16 41 -29 7 -15 11 -18 11
-7 2 32 -43 65 -68 49z"/>
<path d="M5976 4884 c-9 -8 -16 -20 -16 -25 0 -5 -11 -9 -25 -9 -23 0 -54 -35
-42 -47 3 -2 10 5 17 16 6 12 21 21 33 21 12 0 28 9 35 20 7 11 21 20 33 20
11 0 17 5 14 10 -9 15 -31 12 -49 -6z"/>
<path d="M6142 4564 c-31 -21 -28 -36 6 -23 16 6 55 8 98 4 55 -5 73 -3 82 8
10 12 2 15 -49 21 -91 9 -112 8 -137 -10z"/>
<path d="M6183 4508 c-13 -6 -23 -15 -23 -20 0 -11 17 -10 25 2 10 15 35 12
35 -5 0 -22 31 -18 37 5 5 17 8 18 21 8 13 -11 14 -10 10 2 -6 19 -74 24 -105
8z"/>
<path d="M5874 4485 c-4 -9 -4 -19 0 -22 3 -4 6 -1 6 5 0 17 25 15 40 -3 10
-12 10 -22 3 -38 -13 -28 0 -57 24 -57 14 0 14 2 -3 14 -17 13 -17 17 -6 37
12 19 11 25 -6 48 -23 31 -50 39 -58 16z"/>
<path d="M6050 4384 c1 -11 28 -43 60 -69 14 -11 7 1 -15 25 -22 25 -41 47
-42 49 -2 2 -3 0 -3 -5z"/>
<path d="M6328 4221 c-31 -3 -60 -9 -64 -14 -10 -10 147 3 166 14 17 10 -12
10 -102 0z"/>
<path d="M6355 4160 l-30 -8 37 -1 c20 0 40 4 43 9 7 11 -6 11 -50 0z"/>
<path d="M6035 4068 c7 -44 35 -141 40 -136 4 3 -31 143 -40 163 -3 6 -3 -7 0
-27z"/>
<path d="M5488 3995 c50 -56 62 -92 72 -205 l7 -85 1 76 c3 108 -42 219 -100
250 -15 8 -9 -3 20 -36z"/>
<path d="M5810 4005 c0 -16 60 -101 92 -130 l33 -30 -32 35 c-17 19 -45 57
-62 84 -17 28 -31 46 -31 41z"/>
<path d="M6305 3854 c-25 -46 -89 -104 -118 -105 -17 -1 -18 -2 -4 -6 27 -7
82 33 116 84 27 41 37 63 28 63 -1 0 -11 -16 -22 -36z"/>
<path d="M5549 3423 c20 -40 108 -94 176 -108 17 -3 4 5 -28 18 -62 27 -74 35
-126 81 -27 25 -31 27 -22 9z"/>
<path d="M5396 3330 c14 -75 80 -204 117 -226 6 -5 0 8 -14 27 -34 45 -57 90
-85 169 -14 37 -21 50 -18 30z"/>
<path d="M6042 3311 c-63 -27 -117 -53 -120 -57 -4 -4 0 -5 8 -2 33 13 235
101 239 104 13 12 -27 -2 -127 -45z"/>
<path d="M5885 3240 c-3 -6 1 -7 9 -4 18 7 21 14 7 14 -6 0 -13 -4 -16 -10z"/>
<path d="M6080 3052 c-50 -24 -66 -27 -165 -27 -60 1 -96 -2 -80 -6 96 -21
251 3 294 46 20 19 17 19 -49 -13z"/>
<path d="M4796 3378 c-11 -43 -6 -152 10 -210 22 -78 29 -68 8 13 -11 43 -15
89 -12 141 3 43 4 78 3 78 -2 0 -5 -10 -9 -22z"/>
<path d="M4878 2543 c7 -3 16 -2 19 1 4 3 -2 6 -13 5 -11 0 -14 -3 -6 -6z"/>
<path d="M6264 2901 c-21 -15 -48 -39 -59 -52 l-20 -24 20 16 c11 9 42 33 68
53 27 20 44 36 39 36 -5 0 -27 -13 -48 -29z"/>
<path d="M6205 2743 c-46 -41 -91 -62 -155 -73 l-45 -8 40 -1 c51 -1 130 36
174 83 44 46 38 46 -14 -1z"/>
<path d="M5585 2760 c-45 -9 -95 -27 -95 -34 0 -2 21 2 47 10 67 20 205 18
293 -5 94 -25 104 -19 16 8 -77 24 -203 34 -261 21z"/>
<path d="M6320 2637 c-64 -23 -222 -34 -287 -19 -24 5 -41 6 -38 2 2 -4 38
-13 78 -20 59 -10 89 -10 148 0 69 12 159 43 159 55 0 3 -1 4 -2 4 -2 -1 -28
-11 -58 -22z"/>
<path d="M5878 2613 c7 -3 16 -2 19 1 4 3 -2 6 -13 5 -11 0 -14 -3 -6 -6z"/>
<path d="M6000 2560 c52 -29 113 -62 135 -73 27 -15 61 -22 105 -23 l65 -2
-60 7 c-71 9 -73 10 -195 77 -52 29 -106 55 -120 59 -14 3 18 -17 70 -45z"/>
<path d="M6655 2149 c22 -10 58 -18 80 -18 37 1 34 2 -30 19 -88 24 -101 23
-50 -1z"/>
<path d="M6724 1829 c-30 -33 -126 -105 -180 -135 -37 -20 -42 -25 -20 -20 42
10 122 66 181 125 27 28 47 51 44 51 -3 0 -14 -10 -25 -21z"/>
<path d="M6530 1562 c0 -9 60 -46 64 -40 2 1 -12 13 -30 25 -19 12 -34 19 -34
15z"/>
<path d="M6450 1456 c24 -27 87 -62 97 -53 2 3 -11 10 -29 16 -18 6 -46 24
-63 39 l-30 27 25 -29z"/>
<path d="M6515 1469 c25 -9 90 -9 130 1 20 5 0 7 -60 7 -55 0 -82 -3 -70 -8z"/>
<path d="M5916 1980 c-48 -37 -52 -40 -39 -40 10 0 93 69 83 69 -3 0 -22 -13
-44 -29z"/>
<path d="M5910 1890 c-19 -17 -30 -30 -24 -30 6 0 23 14 39 30 36 38 30 38
-15 0z"/>
<path d="M6100 1525 c-15 -45 -78 -174 -111 -222 -11 -18 -18 -33 -15 -33 24
0 153 255 143 283 -2 7 -10 -6 -17 -28z"/>
<path d="M5943 1176 c29 -26 85 -47 127 -45 14 1 -2 8 -34 15 -32 8 -73 24
-90 35 l-31 21 28 -26z"/>
<path d="M6086 1064 c-26 -19 -62 -38 -80 -43 -29 -9 -29 -9 -5 -10 26 -1 103
43 128 72 18 22 14 21 -43 -19z"/>
<path d="M7125 2876 c-86 -31 -175 -72 -175 -80 0 -5 270 101 278 109 11 10
-14 3 -103 -29z"/>
<path d="M5080 2806 c0 -5 98 -66 106 -66 4 0 -4 8 -17 19 -27 21 -89 54 -89
47z"/>
<path d="M4485 2615 c22 -9 81 -36 130 -61 50 -24 81 -37 70 -28 -28 23 -174
91 -210 98 -23 5 -20 3 10 -9z"/>
<path d="M4635 2160 c-44 -15 -144 -51 -222 -78 -125 -45 -337 -110 -462 -142
-23 -6 -41 -13 -39 -16 8 -7 279 64 398 104 122 42 412 151 419 158 9 9 -18 2
-94 -26z"/>
</g>
</svg>
