<?xml version="1.0" standalone="no"?>
<!DOCTYPE svg PUBLIC "-//W3C//DTD SVG 20010904//EN"
 "http://www.w3.org/TR/2001/REC-SVG-20010904/DTD/svg10.dtd">
<svg version="1.0" xmlns="http://www.w3.org/2000/svg"
 width="1024.000000pt" height="559.000000pt" viewBox="0 0 1024.000000 559.000000"
 preserveAspectRatio="xMidYMid meet">
<metadata>
Created by potrace 1.16, written by Peter Selinger 2001-2019
</metadata>
<g transform="translate(0.000000,559.000000) scale(0.100000,-0.100000)"
fill="#000000" stroke="none">
<path d="M5655 5063 c-11 -3 -29 -13 -40 -23 -11 -10 -37 -21 -57 -24 -28 -5
-42 -14 -53 -36 -9 -17 -24 -30 -34 -30 -20 0 -61 -40 -61 -59 0 -7 -14 -29
-31 -49 -26 -30 -30 -41 -26 -73 3 -25 0 -42 -11 -53 -16 -16 -17 -34 -8 -146
9 -123 15 -152 33 -172 13 -14 15 -23 7 -35 -15 -24 -26 -28 -159 -58 -295
-68 -383 -120 -450 -268 -45 -98 -81 -272 -104 -499 -6 -64 -17 -104 -41 -155
-48 -101 -51 -119 -35 -168 13 -37 13 -47 0 -78 -8 -20 -15 -43 -15 -51 0 -8
-14 -35 -30 -60 -54 -80 -81 -156 -156 -449 -40 -158 -78 -296 -84 -306 -18
-34 -11 -48 33 -74 l44 -26 -18 -130 c-14 -102 -24 -138 -43 -168 -14 -21 -28
-51 -32 -68 -4 -17 -38 -62 -78 -105 -84 -88 -117 -152 -174 -335 -30 -95 -51
-143 -77 -177 -21 -26 -38 -62 -42 -84 -3 -22 -14 -50 -23 -64 -26 -39 -30
-58 -19 -84 9 -19 5 -49 -20 -147 -65 -265 -62 -316 22 -358 40 -20 64 -24
140 -24 106 0 160 18 179 58 10 22 7 36 -16 93 -19 44 -30 93 -33 142 -5 70
-4 78 20 106 14 17 29 44 33 60 4 16 22 46 40 67 19 20 34 48 34 61 0 48 76
168 190 301 54 63 125 166 155 225 10 19 37 58 61 86 32 38 61 94 112 220 l70
169 104 -4 c104 -3 177 6 276 37 l54 16 46 -49 c25 -28 79 -85 121 -127 71
-74 75 -80 82 -135 6 -48 3 -71 -18 -133 -28 -80 -32 -145 -23 -380 4 -102 1
-122 -19 -178 -21 -57 -22 -68 -11 -108 10 -34 10 -50 0 -73 -9 -23 -9 -37 1
-64 9 -26 9 -42 0 -67 -12 -36 -15 -118 -5 -145 11 -28 63 -46 157 -54 51 -5
115 -17 142 -29 133 -53 300 -66 373 -28 25 13 32 23 32 45 0 36 -21 54 -135
115 -52 28 -118 72 -148 98 -53 46 -55 48 -59 110 -4 51 -2 69 14 95 16 27 18
44 13 95 -5 53 0 92 34 238 22 96 47 216 56 265 9 50 20 110 25 135 31 157 23
200 -76 400 -41 83 -72 155 -68 161 8 14 -102 209 -192 339 -39 58 -77 124
-83 146 -6 23 -20 49 -31 59 -12 10 -20 31 -20 48 0 17 -8 39 -17 50 -17 18
-17 20 8 40 31 26 49 57 49 86 0 17 6 21 33 21 17 1 78 5 135 10 l102 9 44
-44 c53 -53 104 -67 148 -42 37 21 78 5 78 -29 0 -12 12 -37 26 -54 25 -29 30
-31 88 -29 66 2 163 33 184 58 8 10 11 29 8 50 l-5 34 24 -23 c14 -13 34 -38
44 -56 l19 -31 -34 -17 c-39 -18 -42 -36 -15 -80 26 -41 64 -62 146 -81 78
-18 169 -61 160 -75 -4 -6 -80 -10 -182 -10 l-177 0 -62 -40 c-65 -43 -74 -58
-74 -125 0 -52 8 -63 50 -67 l35 -4 5 -970 5 -969 67 -3 c62 -3 69 -1 102 29
l36 31 0 264 0 264 265 0 265 0 0 -174 c0 -96 4 -186 10 -201 6 -17 20 -27 40
-31 29 -6 30 -8 30 -63 0 -50 4 -61 28 -83 15 -14 37 -31 49 -37 23 -12 104
-15 141 -5 l22 6 0 969 0 969 28 0 c15 0 32 4 38 8 14 9 27 103 18 127 -4 9
-48 37 -98 61 l-91 44 -132 0 c-72 0 -134 4 -137 9 -6 9 7 19 136 98 93 57
129 103 135 170 10 122 -122 187 -206 102 -17 -16 -33 -46 -37 -65 -5 -27 -10
-34 -23 -28 -9 3 -61 9 -116 11 -77 4 -115 1 -165 -12 -36 -10 -83 -20 -106
-22 l-41 -5 -47 85 c-35 61 -66 102 -114 144 -63 56 -70 59 -181 88 l-116 30
-11 55 c-6 30 -27 114 -46 185 -38 139 -59 246 -83 418 -8 60 -22 118 -30 130
-10 14 -13 33 -9 59 4 22 2 43 -5 52 -9 10 -1 32 36 96 34 61 49 99 54 141 4
35 15 68 28 85 11 15 21 39 21 54 0 19 7 30 25 38 14 7 27 23 31 39 3 15 13
46 21 69 13 37 13 45 -1 79 -9 20 -16 50 -16 65 0 15 -9 35 -21 46 -11 10 -27
33 -34 52 -9 19 -26 38 -44 45 -16 7 -39 25 -51 40 -17 21 -30 27 -61 27 -21
0 -39 4 -39 8 0 4 -13 15 -29 25 -32 19 -82 22 -97 7 -7 -7 -20 -6 -40 5 -30
15 -35 16 -69 8z m71 -37 c13 -10 25 -11 35 -5 28 18 79 10 103 -16 18 -20 30
-24 53 -19 25 5 34 1 52 -22 12 -16 35 -34 51 -41 18 -7 35 -25 44 -47 8 -20
19 -36 24 -36 13 0 35 -57 27 -69 -3 -6 1 -21 9 -33 20 -28 20 -57 2 -84 -8
-11 -16 -33 -18 -49 -1 -16 -9 -30 -15 -33 -16 -5 -18 74 -3 83 6 3 10 16 9
28 l0 22 -9 -22 c-12 -29 -38 -30 -48 -2 l-8 20 -18 -20 c-26 -28 -50 -26 -76
6 -16 20 -23 24 -32 15 -22 -22 -57 -14 -77 18 -16 27 -20 29 -31 15 -19 -23
-47 -18 -66 11 -19 27 -30 22 -36 -15 -2 -15 -15 -31 -33 -41 -19 -11 -30 -25
-31 -40 -1 -13 -13 -33 -27 -44 -14 -12 -27 -32 -29 -46 -5 -41 -31 -30 -41
17 -15 76 -75 100 -117 46 -29 -37 -34 -83 -16 -142 15 -50 13 -81 -5 -81 -14
0 -31 41 -25 63 3 11 -2 33 -10 49 -12 23 -13 36 -5 60 7 20 7 36 1 48 -15 28
-12 63 7 90 10 14 16 39 14 61 -2 34 17 69 38 69 5 0 11 13 14 29 8 36 35 64
58 58 13 -3 21 3 28 24 10 29 50 53 74 43 7 -2 23 7 35 21 25 28 66 33 98 11z
m59 -322 c14 4 28 0 36 -10 19 -23 58 -36 76 -25 11 6 22 2 35 -11 13 -13 31
-19 56 -17 63 3 62 4 62 -65 0 -64 0 -64 -32 -72 -18 -5 -37 -9 -43 -9 -25 0
-34 -34 -35 -126 0 -76 -3 -99 -16 -110 -12 -10 -19 -10 -32 -1 -10 7 -30 17
-45 23 -21 8 -27 17 -24 30 3 11 1 17 -4 13 -18 -11 -8 -43 19 -56 15 -8 37
-21 50 -29 16 -10 26 -11 39 -3 22 14 36 84 28 147 -5 45 6 65 19 31 5 -14 9
-14 23 -3 15 13 16 10 10 -32 -8 -56 -15 -75 -67 -164 -23 -38 -48 -85 -56
-102 -16 -37 -21 -39 -48 -18 -25 19 -99 19 -151 -1 l-40 -14 -38 42 c-87 96
-97 116 -97 185 0 72 -14 77 -23 10 -9 -67 7 -108 73 -180 64 -70 73 -97 38
-121 -12 -9 -23 -25 -25 -36 -3 -20 -1 -19 24 4 33 31 39 27 19 -12 -17 -34
-59 -52 -100 -45 -62 12 -163 138 -194 243 -25 87 -24 96 18 124 22 14 52 44
66 66 22 34 30 38 54 34 15 -4 31 -1 34 5 5 7 -1 11 -14 11 -27 0 -64 78 -63
132 1 68 51 112 83 73 6 -8 14 -32 17 -55 5 -32 11 -42 29 -46 30 -8 54 11 54
42 0 14 8 25 20 29 10 3 25 21 31 40 7 18 23 39 36 46 12 7 25 20 29 31 4 15
9 16 26 7 11 -6 30 -8 43 -5z m245 -249 c-14 -17 -47 -20 -69 -6 -12 8 -10 11
10 15 71 15 78 14 59 -9z m-744 -182 c-12 -55 41 -201 101 -280 14 -18 45 -46
71 -63 79 -52 155 -34 183 45 11 29 18 35 41 35 l27 0 -18 -32 c-12 -21 -18
-48 -16 -73 1 -22 3 -56 4 -76 1 -40 41 -89 72 -89 12 0 21 -10 25 -27 4 -16
17 -41 29 -58 31 -42 36 -69 28 -158 l-6 -78 -65 -30 c-36 -16 -66 -29 -68
-29 -2 0 -4 12 -4 26 0 33 44 108 89 151 30 29 31 32 9 18 -32 -20 -33 -19
-13 28 23 54 18 79 -6 32 -60 -115 -143 -257 -154 -261 -7 -3 -44 4 -83 16
-39 12 -91 24 -117 28 -47 7 -47 7 -70 69 -13 34 -21 71 -18 83 5 19 -38 142
-59 164 -4 6 -9 53 -10 105 l-2 96 -6 -75 c-6 -80 -5 -80 -32 30 -23 94 -87
195 -153 240 -55 38 -71 40 -19 1 83 -59 150 -174 158 -268 3 -30 23 -94 49
-155 l44 -103 -26 -3 c-132 -13 -231 -54 -303 -128 -24 -24 -46 -44 -50 -44
-3 0 -21 46 -38 102 -29 94 -94 248 -104 248 -4 0 15 -67 33 -112 14 -38 -2
-35 -33 5 -14 17 -26 28 -26 22 0 -5 18 -27 39 -50 30 -31 45 -60 65 -124 36
-118 47 -131 99 -131 39 0 45 -3 59 -33 24 -51 123 -200 147 -221 22 -20 183
-60 288 -72 58 -6 63 -8 63 -31 0 -31 -38 -66 -88 -81 -44 -13 -162 -28 -162
-20 0 3 28 15 63 28 98 35 90 42 -12 9 -110 -35 -191 -38 -284 -9 -92 28 -201
113 -270 210 l-18 25 12 -25 c6 -14 27 -44 46 -67 19 -24 32 -43 28 -43 -3 0
-28 11 -56 25 -67 35 -123 87 -149 141 -21 42 -21 46 -5 91 8 27 22 59 30 73
l13 25 6 -25 c3 -14 7 -36 9 -50 3 -14 5 7 6 45 2 111 28 344 50 451 41 202
86 289 182 353 59 40 86 49 274 101 55 15 101 28 103 29 2 0 1 -11 -2 -26z
m636 -198 c-4 -32 -6 -35 -19 -23 -11 12 -12 20 -2 41 16 35 26 27 21 -18z
m-56 -26 c35 -22 68 -47 74 -54 6 -7 17 -70 26 -140 8 -70 16 -131 18 -134 2
-3 11 -49 20 -101 9 -52 30 -138 46 -191 17 -53 33 -117 36 -143 l7 -47 -27
11 c-14 5 -72 16 -128 25 -56 8 -103 17 -105 19 -2 1 2 27 8 56 6 29 14 105
18 169 l6 116 -27 23 c-25 21 -56 111 -45 129 3 5 -9 10 -26 11 -30 3 -31 2
-12 -12 29 -21 11 -32 -20 -12 -17 11 -25 25 -25 46 0 32 10 37 85 43 l40 3
-39 8 c-25 6 -50 5 -68 -2 -24 -9 -28 -8 -28 8 0 37 29 53 87 48 30 -3 56 -2
58 2 7 12 -107 20 -127 9 -22 -12 -25 8 -5 35 11 16 25 18 90 14 42 -2 77 0
77 4 0 5 -10 8 -22 8 -13 0 -38 9 -57 21 -25 15 -46 19 -90 17 -43 -2 -56 0
-56 11 0 8 6 16 14 19 9 3 11 0 7 -9 -4 -8 -1 -7 6 2 15 19 38 26 87 28 25 1
52 -11 97 -40z m-554 -574 l27 -70 -27 -12 -27 -12 36 -1 c59 0 147 -19 286
-61 72 -21 176 -46 230 -55 149 -24 225 -39 373 -76 l134 -33 64 -59 c76 -72
115 -134 107 -169 -6 -21 -3 -26 17 -30 21 -4 20 -4 -5 -6 -22 -1 -32 7 -57
47 -16 26 -47 63 -70 81 -22 17 -40 41 -40 51 0 11 -5 20 -11 20 -8 0 -9 -12
-3 -37 14 -67 11 -127 -7 -131 -13 -2 -20 13 -32 70 l-16 73 2 -75 c1 -83 -4
-100 -34 -100 -11 0 -19 6 -18 13 4 34 -2 119 -8 113 -5 -4 -10 -35 -13 -69
-5 -59 -6 -62 -33 -65 -34 -4 -72 19 -80 47 -8 31 13 37 34 10 21 -29 33 -21
20 13 -7 19 -23 29 -68 41 -38 11 -76 31 -103 55 l-44 37 -151 -5 c-263 -9
-414 -4 -485 14 -36 10 -81 21 -101 27 -32 8 -45 22 -111 126 -76 120 -108
176 -108 190 0 13 92 72 146 93 30 12 68 19 99 17 l50 -2 27 -70z m-337 -76
c-4 -5 -13 -9 -22 -9 -13 0 -13 3 -3 15 13 15 35 11 25 -6z m838 -57 c-5 -36
-9 -42 -29 -42 -20 0 -44 24 -44 44 0 5 73 46 77 42 1 -1 -1 -20 -4 -44z
m-139 3 c3 -9 0 -15 -9 -15 -8 0 -15 7 -15 15 0 8 4 15 9 15 5 0 11 -7 15 -15z
m-1009 -239 c38 -36 143 -96 166 -96 7 0 40 -18 73 -39 34 -22 90 -49 126 -61
58 -19 80 -21 215 -17 82 2 161 8 175 12 l25 7 -24 -17 c-56 -42 -254 -58
-393 -31 -146 28 -279 90 -378 175 -39 33 -42 40 -35 69 3 18 8 32 10 32 1 0
19 -15 40 -34z m1308 -74 c30 -31 27 -42 -10 -42 -30 0 -72 21 -97 49 l-19 21
50 0 c41 0 54 -5 76 -28z m-1362 -66 c-16 -22 -31 -52 -35 -66 -4 -16 2 -10
16 16 13 22 30 51 40 63 15 22 17 22 42 6 14 -10 26 -18 26 -19 0 0 -14 -34
-30 -75 -17 -40 -33 -92 -35 -115 -4 -30 1 -21 18 34 13 41 31 92 39 112 l16
37 64 -35 c146 -79 343 -116 508 -96 51 6 111 20 133 31 44 22 57 16 57 -25 0
-12 11 -37 23 -56 13 -19 27 -47 31 -62 4 -15 36 -70 73 -122 63 -92 183 -291
183 -305 0 -4 -19 -10 -42 -14 -59 -10 -159 -46 -263 -95 -296 -139 -412 -161
-649 -124 -153 24 -383 106 -483 171 l-21 14 19 57 c11 31 45 156 74 277 70
283 98 363 157 448 l20 28 24 -22 23 -22 -28 -41z m2613 28 c20 -21 26 -37 26
-71 0 -75 -35 -119 -135 -172 -22 -11 -58 -34 -80 -51 -82 -62 -221 -62 -351
-1 -35 16 -83 33 -107 36 -57 9 -118 43 -137 78 -14 26 -14 29 4 43 11 8 34
13 50 13 31 -2 31 -2 4 -6 -44 -7 -32 -23 16 -23 40 0 76 18 44 22 -7 1 19 4
57 8 39 4 99 15 135 25 64 17 146 17 263 -1 33 -6 37 -4 37 15 0 91 112 146
174 85z m-684 -74 c0 -5 -4 -10 -10 -10 -5 0 -10 5 -10 10 0 6 5 10 10 10 6 0
10 -4 10 -10z m454 -302 c19 -17 18 -18 -8 -28 -35 -13 -197 -13 -232 0 -25
10 -25 12 -11 28 23 25 223 25 251 0z m313 -33 c144 -64 132 -54 133 -112 l0
-53 -590 0 -590 0 0 53 0 52 577 -2 c380 -2 573 0 563 7 -9 6 -225 10 -569 10
l-554 0 44 30 44 30 163 0 c147 0 166 -2 188 -19 50 -39 265 -40 304 -1 21 21
51 26 157 28 58 2 84 -3 130 -23z m-867 -1145 c0 -522 0 -953 0 -957 0 -5 -21
-8 -47 -8 l-48 0 -3 958 -2 957 50 0 50 0 0 -950z m33 900 c3 -25 6 -64 6 -87
1 -28 6 -43 14 -43 19 0 11 -1022 -9 -1033 -20 -12 -19 -126 1 -133 13 -5 15
-44 15 -268 0 -256 -3 -286 -32 -286 -4 0 -8 428 -8 952 0 523 2 949 4 947 2
-2 6 -24 9 -49z m717 -30 l0 -80 -350 0 -350 0 0 80 0 80 350 0 350 0 0 -80z
m30 -875 l0 -956 -25 18 -24 18 -1 261 c0 253 1 262 20 267 17 4 20 14 20 67
0 53 -3 63 -20 67 -20 5 -20 14 -21 447 0 242 -2 472 -2 510 -2 62 0 69 21 77
20 8 22 15 22 94 0 47 2 85 5 85 3 0 5 -430 5 -955z m140 -5 l0 -960 -60 0
-60 0 0 960 0 960 60 0 60 0 0 -960z m-1500 659 c91 -185 109 -246 91 -311 -6
-24 -13 -61 -15 -83 -4 -59 -42 -257 -77 -402 -22 -91 -31 -153 -31 -212 0
-64 -5 -93 -20 -122 -15 -29 -18 -48 -13 -82 7 -42 6 -45 -22 -54 -16 -6 -61
-16 -100 -23 -58 -11 -80 -11 -117 0 -62 17 -72 32 -59 81 6 22 7 56 3 78 -4
24 -1 55 8 87 12 37 16 104 17 274 1 220 2 227 28 297 21 55 26 82 21 109 -5
25 -3 39 7 44 15 10 -38 76 -174 216 l-88 91 29 12 c26 11 34 10 68 -12 49
-30 124 -69 124 -63 0 2 -29 21 -65 40 -35 20 -67 41 -70 46 -10 17 240 130
315 143 61 10 57 14 140 -154z m1200 -354 l0 -475 -265 0 -265 0 0 475 0 475
265 0 265 0 0 -475z m80 -40 l0 -515 -25 0 -25 0 0 515 0 515 25 0 25 0 0
-515z m-2488 370 c61 -19 124 -35 140 -35 15 0 28 -4 28 -10 0 -17 -100 -262
-128 -313 -16 -31 -50 -67 -91 -100 -84 -65 -95 -76 -48 -48 20 13 37 20 37
16 0 -28 -79 -146 -185 -275 -93 -113 -140 -189 -161 -255 -10 -33 -30 -74
-46 -90 -15 -17 -30 -45 -34 -63 -10 -52 -24 -56 -111 -37 -67 15 -83 23 -115
57 -41 42 -50 86 -23 108 8 7 17 28 21 49 3 20 24 67 47 105 22 37 60 126 83
196 54 165 94 239 172 320 42 44 66 78 73 105 6 22 19 49 29 60 31 35 37 57
50 175 7 63 14 118 16 122 3 4 34 -6 70 -22 36 -16 115 -45 176 -65z m2416
-852 l-3 -28 -267 0 -268 -1 0 28 0 28 271 0 270 0 -3 -27z m122 -98 l0 -45
-252 0 c-139 0 -297 -3 -350 -7 l-98 -6 0 51 0 52 350 0 350 0 0 -45z m-50
-270 c0 -153 -3 -195 -13 -195 -33 0 -37 23 -37 207 l0 183 25 0 25 0 0 -195z
m-3160 -1 c19 -8 56 -18 81 -21 l47 -6 4 -91 c3 -72 10 -103 31 -150 45 -98
25 -116 -132 -116 -86 0 -102 3 -132 23 -30 20 -34 28 -37 75 -3 49 24 206 50
295 11 35 12 37 32 22 12 -8 37 -22 56 -31z m1947 -163 c17 -12 67 -39 110
-60 118 -59 132 -89 51 -112 -69 -18 -181 -5 -299 36 -73 26 -129 38 -187 42
-108 8 -116 15 -110 104 6 84 10 90 51 78 47 -13 114 -10 187 10 l65 18 50
-47 c28 -26 64 -57 82 -69z"/>
<path d="M6038 4812 c9 -10 19 -17 21 -16 6 5 -20 34 -30 34 -5 0 -1 -8 9 -18z"/>
<path d="M5447 4593 c-4 -3 -7 -13 -7 -22 0 -11 3 -10 15 5 13 16 16 17 25 4
14 -22 12 -47 -5 -54 -20 -7 -19 -41 3 -57 14 -11 15 -11 5 1 -18 19 -16 50 2
50 16 0 20 35 9 64 -6 16 -35 22 -47 9z"/>
<path d="M5725 4565 l-30 -13 34 -1 c19 -1 55 -14 83 -31 51 -32 78 -38 78
-17 0 10 -78 56 -120 70 -9 3 -29 -1 -45 -8z"/>
<path d="M5753 4483 c19 -3 27 -9 23 -18 -2 -7 2 -16 10 -19 8 -3 17 1 21 10
3 9 12 13 22 10 11 -4 10 -2 -3 9 -11 8 -37 14 -60 14 -32 -2 -35 -3 -13 -6z"/>
<path d="M5590 4391 c0 -6 4 -13 10 -16 6 -3 7 1 4 9 -7 18 -14 21 -14 7z"/>
<path d="M5765 4195 c33 -8 76 -17 95 -20 31 -5 30 -4 -10 10 -25 8 -67 17
-95 20 l-50 5 60 -15z"/>
<path d="M5464 4105 c0 -55 1 -76 3 -47 2 29 2 74 0 100 -2 26 -3 2 -3 -53z"/>
<path d="M5775 4142 c14 -14 72 -25 78 -15 3 5 -4 10 -16 10 -12 1 -33 5 -47
8 -16 4 -21 3 -15 -3z"/>
<path d="M5270 4066 c0 -19 64 -126 88 -148 l27 -23 -23 26 c-12 14 -38 55
-57 90 -19 35 -35 60 -35 55z"/>
<path d="M5633 3874 c-9 -15 -31 -35 -48 -45 -16 -11 -25 -19 -20 -19 17 0 52
28 75 60 12 17 19 30 16 30 -3 0 -13 -12 -23 -26z"/>
<path d="M5528 3803 c7 -3 16 -2 19 1 4 3 -2 6 -13 5 -11 0 -14 -3 -6 -6z"/>
<path d="M4851 3210 c19 -39 140 -155 186 -179 67 -34 64 -25 -6 16 -59 35
-117 89 -169 158 -19 25 -21 26 -11 5z"/>
<path d="M5911 3973 c7 -10 15 -20 16 -22 2 -2 3 3 3 11 0 9 -7 19 -16 22 -15
6 -15 4 -3 -11z"/>
<path d="M5880 3916 c0 -2 7 -9 15 -16 13 -11 14 -10 9 4 -5 14 -24 23 -24 12z"/>
<path d="M5901 3554 c0 -11 3 -14 6 -6 3 7 2 16 -1 19 -3 4 -6 -2 -5 -13z"/>
<path d="M5199 3228 c14 -16 32 -28 40 -27 14 0 14 1 1 6 -8 3 -26 15 -40 27
l-25 21 24 -27z"/>
<path d="M5268 3193 c7 -3 16 -2 19 1 4 3 -2 6 -13 5 -11 0 -14 -3 -6 -6z"/>
<path d="M5869 3127 c5 -5 19 -7 32 -5 20 3 19 5 -9 9 -20 3 -29 2 -23 -4z"/>
<path d="M6300 3137 c0 -3 12 -12 26 -22 15 -9 23 -12 20 -6 -7 11 -46 35 -46
28z"/>
<path d="M6251 3097 c2 -1 13 -9 24 -17 19 -14 19 -14 6 3 -7 9 -18 17 -24 17
-6 0 -8 -1 -6 -3z"/>
<path d="M6202 3046 c7 -8 15 -12 17 -11 5 6 -10 25 -20 25 -5 0 -4 -6 3 -14z"/>
<path d="M4664 3065 c43 -40 166 -115 166 -100 0 2 -22 16 -50 30 -27 14 -75
45 -107 71 l-58 45 49 -46z"/>
<path d="M5325 2770 c-27 -17 -46 -30 -41 -30 11 0 96 49 96 55 0 7 0 7 -55
-25z"/>
<path d="M4855 2749 c6 -10 144 -63 149 -58 2 2 -32 18 -75 35 -43 17 -76 27
-74 23z"/>
<path d="M5360 2698 c-100 -90 -214 -154 -342 -192 -97 -29 -85 -34 17 -7 131
34 239 97 335 195 55 57 50 59 -10 4z"/>
<path d="M4621 2714 c0 -11 3 -14 6 -6 3 7 2 16 -1 19 -3 4 -6 -2 -5 -13z"/>
<path d="M5040 2680 c25 -8 87 -13 79 -6 -2 2 -26 6 -54 9 -34 4 -42 3 -25 -3z"/>
<path d="M5308 2477 c-58 -67 -170 -153 -268 -206 -83 -45 -89 -56 -7 -15 116
59 253 168 308 246 31 42 19 34 -33 -25z"/>
<path d="M4930 2220 c-8 -5 -10 -10 -5 -10 6 0 17 5 25 10 8 5 11 10 5 10 -5
0 -17 -5 -25 -10z"/>
<path d="M7113 2964 c-24 -24 -25 -30 -18 -87 4 -34 7 -71 7 -82 0 -11 2 -14
5 -7 3 6 13 12 23 12 10 0 35 15 54 34 31 29 36 40 36 79 0 36 -5 49 -22 61
-32 23 -55 20 -85 -10z m68 -4 c32 -17 26 -75 -12 -113 -35 -35 -42 -30 -54
40 -5 34 -3 45 14 62 24 24 26 25 52 11z"/>
<path d="M6792 2890 c-105 -16 -48 -50 85 -50 73 0 123 12 123 29 0 18 -140
32 -208 21z m183 -20 c4 -6 -33 -10 -104 -10 -67 0 -111 4 -111 10 0 6 41 10
104 10 59 0 108 -4 111 -10z"/>
<path d="M6463 2819 c7 -4 77 -9 157 -11 80 -3 129 -1 110 3 -44 9 -283 16
-267 8z"/>
<path d="M7049 2820 c-9 -5 -60 -16 -115 -24 -54 -7 -87 -14 -72 -15 49 -2
177 21 195 35 21 15 16 18 -8 4z"/>
<path d="M6783 2793 c9 -2 23 -2 30 0 6 3 -1 5 -18 5 -16 0 -22 -2 -12 -5z"/>
<path d="M5584 1986 c11 -9 24 -16 30 -16 12 0 7 5 -24 19 -24 11 -24 11 -6
-3z"/>
<path d="M5680 1770 l-45 -7 42 -1 c23 -1 45 3 48 8 3 6 5 9 3 8 -2 0 -23 -4
-48 -8z"/>
<path d="M5633 1718 c11 -10 27 -18 36 -17 10 0 7 4 -8 10 -14 5 -30 13 -36
17 -6 4 -2 -1 8 -10z"/>
<path d="M5902 1653 c-13 -30 -21 -57 -19 -59 2 -2 14 21 26 52 13 30 22 57
19 59 -2 2 -14 -21 -26 -52z"/>
<path d="M5711 1352 c-13 -26 -47 -82 -77 -124 -30 -43 -52 -78 -49 -78 19 0
164 234 153 246 -3 2 -15 -18 -27 -44z"/>
<path d="M5630 990 c8 -5 24 -10 34 -10 26 0 18 6 -19 14 -22 5 -26 4 -15 -4z"/>
<path d="M5700 930 c-8 -5 -10 -10 -5 -10 6 0 17 5 25 10 8 5 11 10 5 10 -5 0
-17 -5 -25 -10z"/>
<path d="M5605 910 l-50 -7 45 -1 c25 0 54 3 65 8 23 10 12 10 -60 0z"/>
<path d="M5554 866 c11 -9 29 -16 40 -15 17 1 16 2 -6 9 -14 4 -32 11 -40 15
-7 3 -4 -1 6 -9z"/>
<path d="M5717 873 c-4 -3 -24 -9 -44 -13 -35 -7 -35 -8 -8 -8 17 -1 41 5 55
13 14 8 20 14 14 15 -6 0 -14 -3 -17 -7z"/>
<path d="M4382 1830 c0 -19 5 -53 13 -75 17 -53 18 -25 1 50 -11 48 -14 53
-14 25z"/>
<path d="M4323 1765 c0 -22 2 -30 4 -17 2 12 2 30 0 40 -3 9 -5 -1 -4 -23z"/>
<path d="M4480 1525 c-14 -8 -20 -14 -14 -15 5 0 19 7 30 15 24 18 16 19 -16
0z"/>
<path d="M4339 1373 c-13 -16 -12 -17 4 -4 16 13 21 21 13 21 -2 0 -10 -8 -17
-17z"/>
<path d="M4250 1309 c-36 -26 -90 -62 -120 -78 -30 -17 -50 -31 -45 -31 18 0
158 86 200 124 55 49 42 43 -35 -15z"/>
<path d="M4010 1117 c-2 -36 71 -107 110 -107 8 0 -4 9 -27 19 -28 13 -48 32
-62 58 -11 21 -20 34 -21 30z"/>
<path d="M4010 1005 c0 -12 70 -35 102 -34 28 1 26 3 -13 9 -26 4 -56 13 -68
19 -11 7 -21 9 -21 6z"/>
<path d="M3964 977 c3 -10 6 -20 6 -22 0 -2 15 -12 33 -23 36 -22 102 -37 92
-22 -3 6 -15 10 -26 10 -28 0 -75 26 -95 52 -12 17 -15 18 -10 5z"/>
<path d="M4013 613 c9 -2 23 -2 30 0 6 3 -1 5 -18 5 -16 0 -22 -2 -12 -5z"/>
<path d="M3940 600 c-11 -8 -7 -9 15 -4 37 8 45 14 19 14 -10 0 -26 -5 -34
-10z"/>
<path d="M4075 600 c27 -12 43 -12 25 0 -8 5 -22 9 -30 9 -10 0 -8 -3 5 -9z"/>
</g>
</svg>
