<?xml version="1.0" standalone="no"?>
<!DOCTYPE svg PUBLIC "-//W3C//DTD SVG 20010904//EN"
 "http://www.w3.org/TR/2001/REC-SVG-20010904/DTD/svg10.dtd">
<svg version="1.0" xmlns="http://www.w3.org/2000/svg"
 width="1024.000000pt" height="559.000000pt" viewBox="0 0 1024.000000 559.000000"
 preserveAspectRatio="xMidYMid meet">
<metadata>
Created by potrace 1.16, written by Peter Selinger 2001-2019
</metadata>
<g transform="translate(0.000000,559.000000) scale(0.100000,-0.100000)"
fill="#000000" stroke="none">
<path d="M5794 5023 c-13 -13 -15 -28 -11 -73 4 -31 9 -63 12 -72 5 -13 -17
-14 -174 -10 -278 7 -452 -22 -689 -115 -409 -160 -682 -366 -902 -680 -70
-100 -39 -84 47 24 105 132 201 232 298 310 227 182 592 352 880 408 101 20
351 29 473 18 51 -5 97 -6 103 -2 8 5 8 17 -1 43 -13 41 -18 121 -8 131 14 15
73 -10 184 -77 86 -52 151 -82 248 -115 72 -25 168 -62 214 -84 69 -33 88 -48
111 -85 16 -24 32 -64 35 -89 9 -54 20 -63 158 -136 122 -64 188 -122 188
-165 -1 -53 -38 -114 -117 -191 -80 -77 -150 -130 -158 -121 -3 3 -1 17 5 32
5 15 10 47 10 71 0 51 -26 78 -94 96 -67 19 -232 16 -295 -5 -90 -31 -191
-144 -193 -215 -2 -75 81 -183 176 -229 82 -40 142 -42 204 -7 23 13 42 19 42
14 0 -26 -54 -120 -78 -138 -45 -32 -138 -54 -195 -47 -82 11 -111 29 -249
153 -303 273 -319 292 -341 428 -6 41 -15 75 -19 75 -24 0 4 -178 34 -217 7
-8 -7 -13 -49 -18 -66 -8 -184 -40 -227 -62 -63 -33 -151 -131 -170 -190 -13
-41 12 -25 49 32 38 57 86 100 144 130 59 30 163 55 228 55 56 0 64 -3 79 -25
9 -14 60 -62 113 -108 53 -45 131 -116 174 -157 99 -94 117 -105 195 -121 128
-27 263 22 309 111 44 87 50 140 14 140 -9 0 -38 -11 -66 -25 -27 -13 -63 -24
-80 -25 -37 0 -119 37 -163 75 -38 32 -92 120 -92 151 0 11 18 48 40 82 30 47
51 68 92 89 50 26 60 28 183 28 107 0 137 -3 168 -19 43 -21 47 -43 21 -119
-42 -124 50 -99 209 58 117 114 153 208 108 282 -23 37 -74 73 -196 138 -112
60 -121 68 -130 113 -16 87 -76 156 -174 200 -31 13 -120 46 -199 73 -104 35
-167 63 -230 103 -150 94 -212 114 -248 79z"/>
<path d="M6247 4623 c-27 -26 13 -149 57 -178 56 -37 186 -26 186 15 0 29 -82
106 -149 139 -61 31 -82 37 -94 24z m72 -42 c21 -11 60 -40 87 -65 41 -38 47
-47 34 -56 -22 -16 -97 -5 -122 16 -24 22 -48 74 -48 104 0 25 2 25 49 1z"/>
<path d="M4363 3931 c-53 -14 -136 -58 -173 -94 -25 -24 -45 -34 -67 -34 -37
0 -149 -79 -201 -142 -39 -48 -76 -175 -66 -230 11 -66 86 -296 106 -323 16
-24 20 -55 28 -245 10 -227 25 -332 60 -424 26 -69 83 -146 118 -161 15 -7 28
-13 30 -14 1 0 -9 -24 -23 -51 -79 -152 -50 -292 124 -588 42 -72 125 -262
183 -420 25 -67 39 -93 58 -102 16 -8 67 -13 136 -13 93 0 122 -4 175 -24 51
-19 66 -30 76 -54 l13 -31 -83 -55 c-45 -30 -123 -71 -174 -91 -50 -20 -99
-45 -108 -55 -24 -27 -22 -70 5 -92 35 -28 184 -25 379 8 l34 5 -22 -27 c-37
-47 -22 -79 48 -103 53 -17 215 -13 301 8 167 41 374 110 388 128 29 38 -18
213 -67 253 -11 8 -42 60 -69 115 -46 92 -49 101 -35 117 18 20 11 44 -34 127
-13 24 -22 45 -21 47 2 2 28 -3 58 -11 267 -71 536 33 638 246 69 144 78 308
28 500 -26 99 -32 184 -21 275 6 43 3 59 -19 102 -14 28 -26 66 -26 85 0 20
-13 52 -34 85 -20 31 -36 71 -40 100 -9 66 -45 120 -112 167 -43 30 -70 61
-108 122 -78 125 -168 233 -253 305 -100 84 -142 109 -233 143 -66 25 -90 28
-197 29 -111 1 -126 -1 -166 -23 -45 -25 -77 -23 -77 3 0 23 -88 234 -116 278
-56 88 -152 147 -247 154 -29 2 -77 5 -107 8 -30 3 -69 1 -87 -3z m274 -56
c43 -18 119 -90 148 -139 31 -55 109 -255 102 -262 -12 -12 -47 8 -47 26 0 29
-30 102 -53 128 -28 31 -90 31 -111 0 -18 -26 -20 -65 -6 -104 15 -38 4 -42
-29 -10 -19 18 -47 32 -78 37 -37 7 -54 17 -76 44 -37 45 -53 44 -61 -2 -13
-76 -46 -126 -46 -70 0 29 -15 51 -29 43 -6 -4 -11 -16 -11 -26 0 -11 -12 -45
-26 -77 l-26 -58 -12 32 c-14 40 -28 42 -41 4 -20 -60 -27 -44 -20 45 8 104
-1 134 -40 134 -31 0 -54 -34 -71 -103 l-12 -52 -1 40 c-1 65 17 112 65 166
45 51 53 76 32 97 -16 16 34 60 117 103 l60 31 120 -7 c66 -4 134 -13 152 -20z
m-570 -149 c-54 -44 -61 -56 -91 -150 -18 -56 -20 -76 -8 -76 10 0 34 53 52
112 11 35 108 138 131 138 18 0 8 -23 -32 -71 -22 -26 -44 -63 -50 -81 -20
-69 -4 -188 25 -188 17 0 34 39 42 97 6 51 26 89 42 79 14 -8 3 -265 -14 -309
-23 -62 -18 -90 28 -149 61 -77 136 -148 267 -253 65 -51 133 -111 152 -134
47 -53 80 -55 47 -2 -10 16 -7 26 15 58 15 21 39 51 53 67 l26 29 46 -24 c26
-13 86 -63 135 -111 l89 -87 -32 -41 c-44 -56 -185 -183 -255 -231 -99 -67
-136 -56 -277 83 -99 97 -122 128 -326 433 -132 198 -158 244 -188 330 -49
140 -64 208 -54 247 26 99 32 120 35 116 2 -2 -3 -29 -10 -61 -8 -36 -10 -59
-3 -63 13 -8 12 -9 32 66 33 123 36 128 94 174 74 59 101 60 29 2z m701 -126
c38 -41 54 -138 27 -160 -21 -17 -19 -30 5 -30 10 0 24 9 30 20 6 11 14 18 19
16 4 -3 35 -6 70 -7 71 -3 68 9 33 -111 -11 -37 -33 -89 -51 -115 l-31 -48 0
45 c0 52 -16 116 -31 126 -17 10 -18 1 -7 -50 7 -34 7 -71 -1 -125 -10 -65
-18 -86 -59 -146 -63 -91 -85 -104 -149 -87 -108 29 -224 103 -308 198 l-56
64 22 38 c13 22 20 46 16 55 -9 24 -24 21 -30 -5 -4 -13 -13 -32 -20 -43 -13
-17 -17 -17 -32 -5 -13 11 -15 23 -11 53 8 46 37 108 43 90 12 -34 66 11 93
76 11 28 14 30 25 14 11 -15 15 -15 30 -3 20 16 55 83 55 105 0 20 16 20 24 0
7 -19 65 -45 98 -45 13 0 36 -13 51 -30 49 -51 100 -31 78 31 -14 41 -14 72 1
87 18 18 45 15 66 -8z m535 -135 c120 -31 218 -96 342 -226 96 -101 176 -219
251 -371 48 -99 54 -118 48 -153 -15 -90 -66 -148 -157 -179 -78 -26 -181 -18
-317 26 -79 25 -220 95 -220 108 0 27 62 74 140 106 83 33 120 58 108 70 -3 3
-39 -8 -79 -25 -40 -17 -74 -29 -76 -27 -2 2 12 29 31 59 35 55 43 77 28 77
-4 0 -68 -81 -142 -179 l-134 -180 -39 62 c-55 87 -169 201 -254 253 l-72 45
106 162 c120 184 182 253 259 291 49 24 70 46 44 46 -21 0 -117 -48 -147 -74
-39 -33 -40 -29 -12 51 12 37 27 64 37 66 41 11 202 6 255 -8z m-896 -491 c-8
-9 -107 77 -160 139 -90 106 -65 98 49 -16 64 -64 114 -120 111 -123z m-292
-96 c54 -84 120 -183 147 -221 34 -47 50 -81 55 -112 6 -49 10 -53 27 -30 10
13 18 9 55 -29 l45 -45 -49 -43 c-76 -68 -115 -90 -162 -96 -41 -4 -46 -2 -83
38 -74 80 -103 193 -125 479 -8 112 -15 205 -15 207 0 14 19 -12 105 -148z
m411 50 c39 -18 90 -34 121 -36 l53 -5 -37 -46 c-20 -25 -38 -48 -39 -49 -1
-2 -31 20 -66 50 -35 29 -78 64 -96 76 -18 13 -30 28 -27 33 9 14 17 12 91
-23z m1456 -75 c47 -52 67 -165 48 -268 -7 -36 -10 -69 -6 -72 9 -10 36 63 36
99 l0 32 21 -21 c15 -15 23 -38 27 -75 2 -29 13 -65 24 -81 30 -42 33 -96 9
-134 -40 -64 -216 -131 -405 -154 -114 -14 -166 -7 -258 35 -40 18 -120 48
-177 67 l-104 34 -113 108 c-63 60 -114 114 -114 121 0 31 23 36 64 12 80 -45
90 -44 142 23 l47 60 71 -39 c227 -124 483 -145 600 -49 73 61 108 188 71 259
-9 17 -20 41 -25 55 -9 23 -8 24 8 16 9 -5 25 -18 34 -28z m-902 -276 c0 -4
-14 0 -31 8 -26 14 -28 19 -18 31 11 14 15 13 31 -8 9 -13 18 -26 18 -31z m-2
-190 c23 -22 40 -42 38 -45 -3 -2 -30 2 -61 9 -49 11 -61 19 -97 63 -51 65
-54 73 -33 96 17 19 19 18 64 -32 25 -28 65 -69 89 -91z m-142 -5 c-2 -1 -34
0 -71 4 l-68 7 38 35 38 35 33 -39 c18 -21 31 -40 30 -42z m-436 6 c0 -5 -16
-8 -37 -8 -35 0 -36 1 -19 19 15 16 21 18 37 8 10 -6 19 -15 19 -19z m527 -69
c232 -51 477 -143 618 -233 73 -47 161 -130 232 -219 30 -38 57 -66 60 -63 22
21 -130 210 -217 271 -23 16 -37 31 -32 33 20 6 199 -87 267 -138 37 -28 70
-48 73 -45 15 15 -129 128 -207 163 l-42 19 103 6 c86 5 151 17 257 48 10 3
20 -16 34 -66 16 -55 20 -101 21 -215 0 -129 -2 -151 -23 -205 -62 -156 -158
-242 -325 -290 -77 -23 -233 -16 -326 14 l-65 21 -53 102 c-29 57 -72 130 -97
163 -25 33 -45 68 -45 78 0 33 -68 150 -124 212 -65 72 -85 68 -27 -5 47 -60
116 -178 108 -187 -6 -5 -191 141 -216 170 -16 20 -31 22 -31 3 0 -15 60 -72
197 -188 51 -43 106 -98 122 -122 30 -44 221 -412 221 -426 0 -12 -103 -58
-233 -102 -104 -36 -137 -42 -222 -46 -90 -3 -108 0 -175 24 -62 23 -98 28
-204 33 l-130 6 -58 155 c-59 158 -124 295 -223 475 -61 111 -95 209 -95 277
0 56 23 135 52 178 20 29 99 82 167 110 38 16 171 25 171 11 0 -6 -6 -11 -13
-11 -22 0 -85 -72 -105 -120 -25 -58 -37 -133 -21 -128 7 2 18 28 26 58 7 29
23 68 34 87 30 49 99 93 146 93 21 0 56 9 78 20 52 25 140 19 322 -21z m1117
-75 c10 -38 -6 -50 -92 -72 -81 -21 -232 -37 -232 -24 0 4 36 15 80 25 43 10
112 35 152 56 40 21 76 39 79 40 4 0 10 -11 13 -25z m-627 -1141 c15 -32 40
-80 55 -106 34 -58 34 -61 6 -87 -29 -26 -55 -25 -149 6 -68 23 -79 31 -89 57
-5 17 -22 46 -36 64 -15 19 -22 38 -18 42 5 4 45 20 89 35 44 16 87 32 95 37
8 5 16 9 18 9 1 0 14 -26 29 -57z m-215 -130 c22 -41 22 -42 4 -62 -25 -28
-32 -26 -41 7 -3 15 -20 47 -36 71 -33 51 -36 68 -11 74 20 5 52 -29 84 -90z
m-124 34 c24 -63 -40 -83 -138 -43 -61 25 -80 39 -80 61 0 6 42 10 103 11
l104 1 11 -30z m-156 -75 c59 -27 123 -28 165 -3 l31 20 17 -42 17 -42 -39
-32 c-78 -67 -122 -86 -228 -100 -294 -37 -380 -38 -392 -6 -8 21 12 36 110
77 98 41 174 84 226 126 19 16 37 28 40 26 3 -1 27 -12 53 -24z m630 -55 c8
-17 19 -48 22 -67 4 -19 10 -43 12 -52 8 -27 -28 -43 -211 -98 -240 -71 -342
-82 -452 -48 -60 18 -42 40 92 112 72 39 132 83 197 144 41 39 51 39 151 2 65
-23 108 -17 142 20 24 27 29 25 47 -13z"/>
<path d="M4490 3420 c-8 -5 -39 -14 -68 -21 -57 -12 -66 -32 -16 -37 31 -3
136 36 144 53 7 13 -41 18 -60 5z"/>
<path d="M4494 3325 c-7 -18 13 -45 33 -45 19 0 28 27 13 45 -16 19 -39 19
-46 0z"/>
<path d="M4610 3315 c0 -40 24 -107 42 -116 22 -12 48 4 48 29 0 20 -45 79
-70 92 -16 9 -20 7 -20 -5z m68 -86 c-7 -22 -22 -11 -34 26 l-14 40 26 -29
c14 -15 24 -32 22 -37z"/>
<path d="M4376 3232 c-3 -5 14 -46 37 -93 37 -74 45 -84 67 -81 29 2 90 64 71
70 -7 2 -22 -5 -34 -15 -42 -38 -45 -37 -87 47 -41 81 -45 86 -54 72z"/>
<path d="M4315 3200 c-11 -18 6 -50 26 -50 22 0 26 29 7 48 -15 15 -25 15 -33
2z"/>
<path d="M4602 3080 c-42 -30 -67 -64 -58 -79 3 -5 17 -12 31 -15 19 -5 36 2
71 29 25 19 49 35 54 35 18 0 21 35 4 47 -28 20 -58 15 -102 -17z m87 -4 c-22
-21 -110 -73 -114 -66 -9 14 64 70 92 70 14 0 24 -2 22 -4z"/>
<path d="M5160 2475 c36 -38 184 -137 270 -180 96 -48 204 -85 249 -85 51 0
29 13 -74 44 -111 34 -231 96 -350 181 -94 67 -138 86 -95 40z"/>
<path d="M5310 2485 c23 -28 169 -93 262 -116 95 -24 251 -30 270 -11 9 9 -2
12 -54 12 -135 0 -263 34 -478 127 -13 6 -13 5 0 -12z"/>
<path d="M6065 2417 c-35 -54 -80 -97 -141 -133 -32 -19 -6 -29 30 -12 69 33
139 115 161 186 11 39 -9 23 -50 -41z"/>
<path d="M4320 2027 c-1 -27 88 -159 194 -287 79 -96 252 -277 279 -291 40
-22 12 16 -93 127 -123 129 -221 244 -295 348 -66 90 -84 113 -85 103z"/>
<path d="M4491 1639 c-1 -27 194 -296 250 -344 l23 -20 -20 35 c-12 20 -63 92
-115 161 -144 193 -138 186 -138 168z"/>
<path d="M3674 3385 c-7 -38 -44 -75 -75 -75 -31 0 -21 -14 24 -35 34 -16 44
-27 51 -57 11 -45 24 -49 32 -9 8 37 37 69 69 77 29 7 34 24 7 24 -30 0 -61
29 -73 70 -15 49 -26 51 -35 5z m45 -56 l31 -31 -25 -20 c-14 -11 -25 -26 -25
-35 0 -10 -11 -3 -32 19 l-33 33 25 32 c14 17 26 32 27 32 1 1 15 -13 32 -30z"/>
<path d="M5920 3155 c0 -4 26 -37 57 -73 71 -85 121 -161 170 -262 21 -44 42
-80 46 -80 26 0 -77 208 -147 297 -48 62 -126 134 -126 118z"/>
<path d="M3797 3101 c-4 -19 -17 -35 -34 -45 l-28 -14 28 -13 c15 -7 30 -23
33 -36 8 -30 18 -29 32 2 7 14 23 30 36 37 l25 11 -32 21 c-18 12 -33 32 -35
44 -5 31 -18 27 -25 -7z m31 -44 c7 -8 6 -18 -4 -31 -14 -20 -14 -20 -28 0
-14 18 -6 44 14 44 4 0 12 -6 18 -13z"/>
<path d="M6100 3104 c0 -3 13 -24 29 -47 15 -23 41 -67 57 -97 18 -35 29 -49
32 -38 6 28 -86 188 -108 188 -6 0 -10 -3 -10 -6z"/>
<path d="M3911 2559 c-1 -72 37 -184 84 -243 29 -37 25 -9 -8 56 -18 36 -39
92 -46 124 -23 102 -29 116 -30 63z"/>
<path d="M3841 2460 c-1 -36 29 -113 48 -124 16 -10 14 1 -10 64 -39 101 -38
98 -38 60z"/>
<path d="M4036 1893 c11 -63 42 -135 79 -185 35 -48 71 -69 43 -25 -41 62 -78
138 -93 190 -18 64 -40 79 -29 20z"/>
<path d="M6315 1668 c-34 -104 -87 -190 -163 -266 -41 -40 -72 -75 -70 -78 10
-10 119 79 152 124 47 64 94 165 102 219 9 63 -1 63 -21 1z"/>
<path d="M6359 1508 c-12 -24 -37 -62 -56 -86 -20 -24 -32 -46 -29 -49 16 -16
103 95 121 155 11 38 -13 24 -36 -20z"/>
</g>
</svg>
