<?xml version="1.0" standalone="no"?>
<!DOCTYPE svg PUBLIC "-//W3C//DTD SVG 20010904//EN"
 "http://www.w3.org/TR/2001/REC-SVG-20010904/DTD/svg10.dtd">
<svg version="1.0" xmlns="http://www.w3.org/2000/svg"
 width="1024.000000pt" height="559.000000pt" viewBox="0 0 1024.000000 559.000000"
 preserveAspectRatio="xMidYMid meet">
<metadata>
Created by potrace 1.16, written by Peter Selinger 2001-2019
</metadata>
<g transform="translate(0.000000,559.000000) scale(0.100000,-0.100000)"
fill="#000000" stroke="none">
<path d="M5338 4724 c-5 -4 -8 -20 -8 -35 0 -33 -44 -89 -70 -89 -30 0 -32
-17 -4 -24 36 -9 74 -50 74 -80 0 -31 18 -44 26 -19 18 57 36 84 66 97 l33 14
-25 10 c-36 14 -59 43 -73 91 -6 24 -15 39 -19 35z m46 -152 c-8 -7 -19 -22
-24 -33 -10 -18 -13 -17 -40 15 l-30 34 28 30 27 30 26 -31 c22 -26 24 -33 13
-45z"/>
<path d="M5527 4675 c-17 -24 -17 -25 3 -45 l21 -21 24 23 23 22 -24 23 c-14
13 -26 23 -27 23 -1 0 -10 -12 -20 -25z m33 -21 c0 -8 -5 -12 -10 -9 -6 4 -8
11 -5 16 9 14 15 11 15 -7z"/>
<path d="M5909 4647 c-19 -12 -44 -42 -56 -66 -31 -61 -47 -75 -39 -35 4 17 2
43 -4 59 l-11 28 -24 -23 c-34 -32 -48 -82 -41 -143 3 -29 2 -59 -3 -67 -12
-18 -15 -14 -27 35 -10 46 -32 52 -51 15 -19 -37 -16 -108 6 -144 15 -25 16
-38 8 -66 -6 -22 -12 -29 -15 -20 -9 29 -43 70 -57 70 -40 0 -27 -106 20 -159
18 -20 34 -50 37 -68 l4 -31 -35 29 c-20 16 -43 29 -52 29 -15 0 -16 -6 -8
-42 13 -53 40 -92 82 -111 27 -13 57 -51 57 -71 0 -2 -21 3 -46 12 -57 19 -70
8 -44 -36 26 -42 76 -72 122 -72 25 0 40 -6 47 -17 8 -16 3 -19 -36 -28 -26
-5 -48 -15 -50 -20 -2 -6 16 -23 39 -38 44 -28 88 -34 133 -17 20 8 32 6 48
-5 12 -8 16 -15 8 -15 -23 0 -81 -32 -81 -45 0 -36 107 -46 159 -14 26 16 42
19 74 13 l41 -6 -29 -22 c-53 -38 -68 -57 -56 -69 8 -8 15 -5 27 11 8 12 34
32 56 43 53 27 94 19 142 -27 21 -20 40 -34 43 -31 11 12 -9 43 -43 67 l-37
25 39 8 c31 6 46 4 75 -13 40 -22 92 -26 134 -10 38 15 28 41 -22 60 -40 15
-41 16 -22 29 17 10 27 10 50 0 16 -6 47 -9 68 -6 38 5 101 42 101 59 0 12
-46 28 -77 28 -25 0 -25 1 -9 19 10 10 36 21 61 23 49 6 94 34 115 72 21 41 2
52 -54 34 l-45 -15 15 29 c8 16 27 33 42 39 51 19 82 61 97 127 5 26 4 32 -11
32 -9 0 -32 -12 -51 -26 l-34 -26 7 29 c4 15 22 45 40 65 18 20 36 52 39 71
16 85 -19 116 -57 51 l-22 -37 -9 27 c-7 22 -5 36 12 66 25 44 27 87 6 136
-18 45 -35 40 -56 -15 -15 -41 -16 -41 -26 -19 -6 14 -7 35 -1 55 11 40 -4
100 -33 137 -28 35 -42 22 -42 -38 0 -52 -11 -51 -34 5 -8 21 -28 50 -44 63
-28 24 -85 43 -96 32 -19 -19 67 -126 101 -126 8 0 24 -9 37 -20 l24 -20 -40
5 c-22 3 -47 1 -55 -4 -13 -9 -10 -15 17 -42 25 -25 42 -33 82 -37 45 -4 54
-9 67 -35 15 -28 15 -30 -2 -22 -76 30 -94 24 -70 -24 19 -37 62 -71 98 -78
16 -3 28 -11 28 -17 0 -6 3 -22 7 -36 l7 -25 -33 28 c-41 34 -61 35 -61 2 0
-35 23 -78 60 -108 30 -26 41 -69 20 -82 -5 -3 -10 -2 -10 4 0 16 -51 71 -61
65 -5 -3 -9 -29 -9 -57 0 -40 6 -62 25 -90 24 -34 25 -39 11 -59 -15 -21 -15
-21 -22 8 -4 16 -14 37 -22 47 -14 16 -16 16 -28 -2 -20 -28 -28 -96 -15 -132
10 -30 9 -36 -11 -56 l-23 -23 3 45 c2 25 1 53 -2 61 -6 15 -9 15 -27 -2 -32
-29 -49 -69 -49 -117 0 -38 -4 -45 -26 -56 -24 -10 -26 -10 -18 6 13 31 17
103 5 103 -23 0 -87 -76 -96 -115 -10 -37 -13 -40 -66 -53 -47 -11 -64 -11
-109 0 -53 14 -55 16 -72 64 -16 45 -68 104 -91 104 -10 0 -5 -76 7 -103 8
-16 6 -16 -17 -6 -21 10 -25 19 -29 70 -3 48 -10 65 -33 89 -34 36 -45 27 -45
-40 l0 -44 -21 21 c-18 17 -19 24 -9 43 15 28 9 123 -10 145 -16 20 -36 5 -45
-36 -9 -38 -23 -46 -30 -16 -5 17 2 36 19 62 20 29 26 50 26 91 0 30 -4 54 -9
54 -5 0 -23 -16 -40 -35 l-31 -36 0 30 c0 20 8 34 25 45 36 23 65 75 65 114 0
39 -9 40 -50 6 -17 -15 -32 -25 -34 -23 -2 2 1 18 6 35 6 25 15 33 41 38 41 8
107 76 107 110 0 11 -45 6 -74 -9 -39 -20 -40 -19 -19 15 14 25 24 30 56 30
42 0 83 18 111 48 27 30 11 45 -41 39 -43 -4 -43 -4 -27 14 9 11 24 19 32 19
39 0 112 77 112 119 0 19 -45 12 -81 -12z m51 -8 c0 -14 -65 -79 -79 -79 -22
0 -10 29 24 59 37 32 55 39 55 20z m514 -41 c35 -49 8 -52 -40 -4 -19 19 -34
39 -34 45 0 17 55 -14 74 -41z m-694 -99 c-7 -16 -16 -29 -21 -29 -15 0 -10
48 8 88 l17 37 4 -34 c2 -18 -2 -46 -8 -62z m815 47 c12 -31 14 -49 7 -62 -9
-16 -10 -16 -20 3 -6 11 -14 39 -18 62 -9 55 10 54 31 -3z m-711 -76 c-23 -24
-102 -42 -89 -21 9 16 63 40 90 41 19 0 19 0 -1 -20z m665 -8 l26 -17 -25 -3
c-26 -4 -90 25 -90 41 0 14 59 0 89 -21z m-856 -51 c3 -16 3 -46 0 -66 -6 -35
-7 -36 -20 -20 -20 29 -15 134 7 120 4 -2 10 -18 13 -34z m1002 -3 c8 -50 -10
-112 -25 -88 -11 17 -13 55 -4 99 9 44 22 39 29 -11z m-917 -84 c-44 -40 -80
-48 -56 -12 16 23 78 61 87 52 3 -3 -11 -21 -31 -40z m819 16 c29 -17 63 -60
48 -60 -22 0 -95 55 -95 72 0 13 12 10 47 -12z m-967 -122 c33 -73 23 -119
-13 -59 -16 27 -24 101 -12 101 4 0 15 -19 25 -42z m1130 22 c0 -29 -24 -82
-43 -99 -15 -12 -17 -11 -17 8 0 26 39 111 51 111 5 0 9 -9 9 -20z m-1024 -68
c-27 -51 -66 -70 -52 -24 9 26 59 77 64 64 2 -6 -4 -24 -12 -40z m934 -42 c0
-30 -28 -14 -50 31 -11 21 -20 44 -20 51 1 21 70 -60 70 -82z m-1019 -142 c21
-41 16 -47 -19 -22 -25 17 -52 64 -52 90 0 15 4 14 26 -7 14 -13 35 -41 45
-61z m92 50 c-8 -42 -31 -88 -43 -88 -12 0 -12 7 0 49 8 29 36 71 46 71 2 0 1
-15 -3 -32z m1012 -5 c-15 -37 -57 -83 -76 -83 -12 0 -12 6 6 39 12 25 69 81
81 81 2 0 -3 -17 -11 -37z m-119 -28 c3 -18 4 -41 2 -52 -6 -27 -38 38 -38 78
0 27 2 30 15 19 8 -7 17 -27 21 -45z m-846 -137 c0 -44 -9 -70 -21 -62 -10 6
-12 84 -3 109 10 25 24 -2 24 -47z m785 32 c8 -25 -3 -100 -15 -100 -11 0 -20
26 -20 60 0 55 22 80 35 40z m-876 -64 c34 -18 49 -46 23 -46 -24 0 -79 35
-92 59 -10 19 -9 20 15 11 14 -5 38 -16 54 -24z m1002 5 c-19 -34 -101 -68
-101 -42 0 17 97 76 108 66 2 -2 -1 -13 -7 -24z m-811 -110 l-1 -36 -19 24
c-12 14 -20 38 -20 60 l1 36 19 -24 c12 -14 20 -38 20 -60z m575 -6 c-10 -19
-21 -32 -26 -30 -12 8 0 65 20 95 l16 25 3 -27 c2 -15 -4 -43 -13 -63z m-442
-71 c3 -16 0 -23 -7 -21 -18 6 -56 68 -56 91 1 19 4 17 29 -12 16 -19 31 -45
34 -58z m343 53 c-7 -28 -43 -77 -57 -77 -15 0 0 40 28 78 27 37 39 36 29 -1z
m-532 -19 c30 -13 25 -28 -10 -28 -33 0 -94 26 -94 41 0 13 64 6 104 -13z
m764 13 c19 -11 -50 -43 -86 -39 -37 4 -34 21 8 35 42 14 61 15 78 4z m-604
-100 c14 -22 -83 -41 -114 -21 -12 7 -10 11 10 19 31 12 97 14 104 2z m443 -2
c22 -8 24 -12 13 -19 -21 -13 -64 -12 -95 2 -50 23 25 39 82 17z"/>
<path d="M6049 4430 c-44 -27 -60 -81 -79 -270 -6 -58 -15 -119 -21 -137 -9
-28 -14 -32 -38 -27 -35 7 -61 -17 -61 -56 0 -60 27 -72 269 -120 163 -32 176
-29 215 47 15 29 21 76 44 303 l7 75 45 5 c38 4 46 9 54 33 6 17 6 37 0 54
-11 32 -33 39 -236 72 -70 12 -139 23 -155 26 -15 3 -35 1 -44 -5z m211 -50
c74 -12 137 -24 139 -26 2 -2 -1 -10 -7 -17 -20 -24 -43 -145 -52 -280 -11
-153 -36 -222 -80 -222 -30 0 -38 26 -19 61 7 13 10 26 8 28 -3 3 -67 18 -144
33 -110 22 -139 31 -136 43 2 8 7 31 12 50 5 19 14 85 19 145 16 170 38 220
95 212 16 -2 91 -14 165 -27z m198 -64 c4 -35 -9 -50 -37 -41 -25 8 -27 23 -5
53 20 29 38 24 42 -12z m-438 -370 c63 -13 131 -27 151 -30 35 -6 36 -8 35
-46 0 -22 -1 -40 -2 -40 -5 0 -293 62 -306 66 -20 6 -30 31 -23 55 8 24 7 24
145 -5z"/>
<path d="M6076 4301 c10 -10 216 -52 223 -45 10 10 -15 18 -101 35 -107 21
-136 23 -122 10z"/>
<path d="M6075 4231 c29 -13 128 -30 139 -24 17 11 -21 22 -90 28 -45 3 -62 2
-49 -4z"/>
<path d="M5379 4387 c-8 -17 -24 -36 -36 -42 -30 -13 -29 -21 3 -29 17 -5 31
-19 41 -44 l16 -37 8 28 c9 35 27 57 53 67 18 6 18 8 -9 21 -16 8 -35 24 -41
37 -17 34 -19 34 -35 -1z m40 -41 c17 -20 -13 -43 -34 -26 -12 10 -13 16 -4
26 6 8 15 14 19 14 4 0 13 -6 19 -14z"/>
<path d="M4435 4176 c-242 -47 -448 -210 -456 -361 -1 -22 -11 -58 -22 -79
-57 -116 33 -382 161 -476 26 -19 72 -60 102 -91 30 -31 66 -62 79 -68 19 -11
22 -18 17 -44 -9 -45 -52 -106 -84 -119 -58 -25 -264 -173 -315 -227 -106
-111 -137 -214 -137 -453 1 -239 17 -499 32 -514 7 -7 38 -19 68 -27 l55 -14
3 -48 c2 -29 -5 -71 -17 -108 -25 -72 -26 -112 -6 -151 13 -25 13 -33 -2 -75
-22 -63 -12 -111 35 -163 l36 -40 -36 -67 c-92 -170 -199 -531 -158 -531 5 0
14 19 20 43 49 181 110 359 160 457 35 68 28 67 121 28 52 -22 56 -25 43 -43
-41 -56 -131 -340 -122 -381 6 -23 5 -25 47 111 18 55 48 139 68 188 38 93 48
100 106 78 24 -9 25 -11 12 -48 -13 -39 -45 -212 -45 -245 0 -32 17 -11 23 29
12 76 47 236 52 241 3 3 36 1 73 -6 175 -30 290 -36 413 -24 67 7 157 21 201
33 44 11 82 18 85 15 8 -7 -16 -153 -42 -256 -13 -52 -26 -108 -29 -125 -6
-29 -5 -28 14 8 30 55 80 263 80 333 0 60 0 60 38 79 20 11 40 21 43 23 4 1
12 -17 18 -40 47 -179 74 -291 90 -378 19 -106 25 -120 41 -104 9 9 -2 78 -46
294 -4 19 -3 21 5 9 18 -27 71 -199 71 -228 0 -35 9 -61 21 -61 5 0 9 24 9 53
0 56 -19 114 -119 366 -33 85 -61 161 -61 169 0 8 14 31 30 52 63 80 70 122
50 300 -11 97 -8 286 6 383 5 31 12 40 41 52 20 8 37 15 38 15 2 0 6 -42 10
-92 9 -133 23 -212 51 -304 37 -123 51 -210 68 -424 30 -374 52 -530 77 -546
20 -12 19 4 0 117 -11 63 -25 175 -30 249 -26 330 -32 389 -46 460 -8 41 -22
100 -30 130 -39 132 -44 162 -56 294 l-11 139 51 50 c28 27 51 56 51 64 0 8
-22 81 -49 161 -27 81 -65 197 -84 258 -54 170 -76 209 -183 313 -91 88 -175
141 -225 141 -10 0 -34 11 -54 24 -20 14 -41 26 -47 28 -9 3 -9 18 1 60 l12
57 52 11 c79 17 134 48 152 87 15 32 15 38 -4 96 -11 34 -24 89 -27 122 -4 33
-13 72 -20 86 -12 24 -11 28 11 49 17 16 25 34 25 57 0 29 -8 39 -73 87 -90
66 -93 71 -99 128 -3 26 -16 61 -29 79 -13 19 -22 44 -21 56 9 65 -36 122
-134 172 -75 38 -151 46 -249 27z m243 -62 c74 -36 112 -76 112 -118 0 -18
-14 -10 -92 59 -28 24 -38 18 -38 -25 0 -21 -8 -55 -17 -75 l-17 -36 -15 42
c-22 60 -38 60 -46 2 -3 -26 -13 -64 -21 -83 -15 -33 -17 -34 -30 -15 -8 10
-14 22 -14 27 0 4 -7 8 -15 8 -11 0 -15 -12 -15 -48 0 -59 -6 -67 -38 -46 -13
8 -26 14 -28 11 -3 -2 2 -30 10 -61 13 -48 13 -64 2 -108 -14 -53 -9 -88 21
-135 22 -33 -1 -37 -54 -8 -80 42 -141 27 -163 -41 -23 -68 14 -145 93 -194
36 -23 47 -36 47 -55 0 -15 -6 -25 -14 -25 -10 0 -16 -13 -18 -37 l-3 -38 -65
66 c-36 36 -86 80 -113 99 -81 57 -162 212 -173 329 -5 56 -3 76 15 115 11 27
21 64 21 83 0 82 96 194 225 260 124 63 184 79 299 82 61 1 79 -3 144 -35z
m113 -188 c28 -35 39 -58 39 -83 0 -53 24 -87 100 -142 39 -29 74 -59 77 -67
8 -21 -14 -40 -62 -57 -23 -8 -41 -22 -43 -31 -3 -15 -1 -16 16 -7 31 17 37
14 55 -24 l16 -34 -57 -31 c-67 -36 -90 -64 -70 -87 9 -12 25 -14 63 -10 27 3
57 8 65 11 12 5 19 -6 29 -53 7 -32 11 -67 9 -77 -9 -48 -167 -91 -303 -82
-74 5 -135 29 -169 67 -11 12 -23 21 -28 21 -17 0 -7 -27 20 -52 47 -44 92
-61 182 -67 62 -4 84 -10 82 -19 -44 -214 -52 -297 -29 -290 6 3 13 23 15 46
2 23 7 42 12 42 9 0 40 -85 40 -112 0 -57 -66 -94 -147 -83 -86 13 -261 95
-401 190 l-32 22 21 19 c31 27 57 91 65 157 5 38 11 57 20 57 14 0 17 14 14
63 -1 21 3 27 19 27 33 0 71 22 71 42 0 22 -13 23 -31 2 -18 -22 -80 -13 -131
21 -46 30 -81 97 -71 136 15 62 64 76 125 34 37 -25 63 -30 92 -19 22 8 20 22
-9 86 -21 47 -23 60 -14 87 6 17 9 51 8 75 -3 30 0 42 8 39 15 -6 33 28 33 64
1 27 1 27 15 9 14 -19 15 -19 35 -1 11 10 25 35 31 56 12 37 12 37 29 17 16
-21 17 -20 48 17 17 21 34 55 37 76 l7 38 30 -22 c16 -12 48 -44 69 -71z m199
-510 c0 -25 -21 -36 -72 -36 -38 0 -35 12 10 38 48 28 62 28 62 -2z m-109
-485 c21 -21 46 -44 55 -52 16 -13 17 -11 10 14 -3 15 -4 27 -2 27 3 0 34 -14
70 -31 64 -30 66 -32 94 -103 27 -65 49 -135 66 -208 4 -17 2 -28 -4 -28 -5 0
-10 8 -10 19 0 10 -7 24 -15 31 -27 22 -61 -3 -95 -69 -16 -33 -57 -89 -90
-123 l-59 -63 -2 85 c-1 47 -1 126 1 175 2 120 -15 217 -51 289 -16 33 -29 63
-29 68 0 18 24 6 61 -31z m-514 -113 c186 -111 266 -142 365 -142 66 -1 80 2
101 22 l24 23 7 -32 c3 -17 6 -56 6 -85 0 -51 -1 -54 -22 -49 -38 9 -49 -8
-64 -96 -8 -46 -21 -101 -29 -122 -10 -24 -15 -73 -15 -141 l0 -104 -82 -74
c-95 -84 -135 -115 -206 -157 -48 -28 -50 -29 -55 -9 -4 14 3 27 20 42 l25 22
-27 125 c-15 68 -35 162 -45 209 -21 100 -47 172 -84 235 -42 71 -48 53 -10
-29 18 -41 41 -105 49 -143 37 -171 75 -355 75 -366 0 -9 -25 -11 -95 -9 -72
3 -114 -2 -177 -18 -86 -22 -208 -74 -259 -110 -16 -12 -33 -20 -36 -17 -9 9
-24 517 -17 587 13 138 57 242 132 317 38 37 265 203 278 203 2 0 65 -37 141
-82z m893 -184 c16 -33 47 -121 70 -195 22 -74 58 -185 80 -248 l39 -114 -37
-35 c-36 -34 -119 -92 -132 -92 -4 0 -10 52 -13 116 -4 90 -2 125 10 161 13
38 14 52 4 79 -7 19 -9 49 -6 68 5 23 2 46 -9 67 -9 18 -16 45 -16 61 0 15 -9
37 -19 47 -16 16 -50 111 -77 216 -10 38 77 -69 106 -131z m-120 -77 c0 -32
-35 -131 -60 -172 -11 -18 -20 -41 -20 -51 1 -31 54 40 95 124 20 42 41 72 50
72 33 0 6 -111 -50 -203 -36 -60 -42 -77 -26 -77 14 0 92 121 98 152 7 33 23
37 23 6 0 -40 -19 -92 -55 -152 -44 -73 -46 -105 -4 -56 17 19 39 51 50 70
l20 35 -6 -40 c-13 -84 -109 -203 -227 -281 -51 -34 -90 -71 -137 -133 -265
-341 -359 -439 -501 -525 -128 -78 -195 -71 -266 26 -72 97 -199 433 -175 462
14 17 158 71 229 85 29 6 79 11 112 11 63 0 61 1 75 -66 5 -28 2 -34 -35 -59
-44 -30 -100 -90 -100 -105 0 -18 17 -10 61 30 24 22 82 64 129 92 105 63 175
114 263 192 91 80 97 93 90 193 -5 64 -2 95 15 149 11 38 24 95 27 127 4 31
12 60 17 63 21 13 33 -21 38 -109 5 -85 7 -92 26 -95 33 -5 123 90 173 181 43
77 71 98 71 54z m100 -514 c0 -97 -11 -242 -36 -466 -14 -133 -14 -190 1 -143
16 50 18 52 25 21 30 -123 -11 -235 -105 -290 -37 -22 -154 -56 -235 -69 l-35
-5 25 17 c42 29 86 71 74 72 -6 0 -58 -24 -115 -54 -142 -73 -209 -84 -367
-62 -64 10 -122 21 -130 25 -10 6 6 16 53 35 90 36 209 114 265 172 37 40 40
44 15 29 -16 -10 -56 -38 -89 -62 -108 -79 -289 -153 -377 -153 -41 0 -175 27
-199 40 -26 14 -69 68 -76 96 -6 24 12 84 25 84 4 0 16 -7 27 -15 42 -32 42
-12 -1 40 -24 31 -48 67 -51 80 -3 14 2 55 12 91 19 70 22 70 49 -7 13 -36 13
-40 0 -35 -8 3 -15 1 -15 -5 0 -12 45 -59 57 -59 4 0 16 -18 27 -39 26 -55 88
-117 132 -131 58 -20 124 -6 201 40 143 87 234 173 381 362 42 53 78 96 80 94
4 -5 -67 -143 -105 -205 -38 -63 -11 -42 36 27 42 62 121 214 121 233 0 32 64
109 118 142 52 32 182 153 190 177 2 6 8 10 13 10 5 0 9 -39 9 -87z m-1326
-269 c11 -28 6 -34 -21 -28 -38 9 -41 13 -19 30 25 18 32 18 40 -2z m1225
-680 c-29 -35 -151 -78 -284 -99 -148 -24 -378 -17 -530 16 -77 17 -239 70
-250 81 -7 7 -2 8 15 3 14 -5 66 -11 115 -15 50 -4 124 -18 165 -30 49 -14
114 -24 185 -27 94 -4 119 -2 172 16 34 12 84 21 110 21 64 0 224 34 271 57
28 14 38 15 40 5 2 -7 -2 -20 -9 -28z"/>
<path d="M4735 3803 c-63 -9 -102 -24 -124 -47 -31 -33 -17 -56 15 -26 16 16
41 24 89 29 40 4 70 13 75 21 10 17 4 31 -13 29 -7 -1 -25 -4 -42 -6z"/>
<path d="M4723 3733 c-18 -7 -16 -49 3 -68 20 -20 38 -15 42 12 4 24 -28 63
-45 56z"/>
<path d="M4287 3453 c-4 -3 -7 -15 -7 -27 0 -15 3 -17 12 -8 17 17 45 15 52
-3 7 -19 46 -20 46 -1 0 29 -82 60 -103 39z"/>
<path d="M4340 3371 c0 -5 5 -13 10 -16 6 -3 10 -2 10 4 0 5 -4 13 -10 16 -5
3 -10 2 -10 -4z"/>
<path d="M5000 2848 c0 -2 11 -37 25 -78 14 -44 24 -64 25 -49 0 30 -28 117
-41 125 -5 3 -9 4 -9 2z"/>
<path d="M4964 2785 c3 -11 10 -74 15 -139 6 -65 13 -121 16 -124 3 -3 5 26 5
64 0 76 -16 180 -31 204 -8 12 -9 11 -5 -5z"/>
<path d="M4396 2395 c4 -33 10 -109 13 -170 l7 -110 8 60 c6 38 5 92 -3 147
-14 104 -35 166 -25 73z"/>
<path d="M5065 1908 c-36 -185 -86 -334 -162 -480 -53 -102 -152 -238 -173
-238 -6 0 -10 -5 -10 -11 0 -22 94 59 135 116 101 141 200 405 221 592 7 58
-1 73 -11 21z"/>
<path d="M5140 1536 c0 -30 -53 -183 -86 -249 -41 -83 -24 -85 22 -3 48 87 97
266 73 266 -5 0 -9 -7 -9 -14z"/>
<path d="M4020 1255 c20 -24 110 -45 110 -25 0 6 -8 10 -19 10 -10 0 -35 7
-54 15 -45 19 -53 19 -37 0z"/>
<path d="M4839 833 c-48 -74 -126 -171 -198 -245 -64 -67 -35 -60 34 8 88 87
228 284 212 300 -2 3 -24 -26 -48 -63z"/>
</g>
</svg>
