<?xml version="1.0" standalone="no"?>
<!DOCTYPE svg PUBLIC "-//W3C//DTD SVG 20010904//EN"
 "http://www.w3.org/TR/2001/REC-SVG-20010904/DTD/svg10.dtd">
<svg version="1.0" xmlns="http://www.w3.org/2000/svg"
 width="1024.000000pt" height="559.000000pt" viewBox="0 0 1024.000000 559.000000"
 preserveAspectRatio="xMidYMid meet">
<metadata>
Created by potrace 1.16, written by Peter Selinger 2001-2019
</metadata>
<g transform="translate(0.000000,559.000000) scale(0.100000,-0.100000)"
fill="#000000" stroke="none">
<path d="M5476 5075 c-10 -8 -23 -12 -28 -9 -23 14 -81 5 -104 -17 -13 -12
-36 -24 -50 -25 -29 -3 -74 -40 -74 -60 0 -6 -12 -20 -27 -30 -41 -26 -52 -45
-53 -85 0 -20 -7 -42 -15 -49 -22 -18 -34 -71 -22 -100 6 -14 9 -48 8 -76 -1
-36 3 -55 14 -64 8 -7 15 -27 15 -45 0 -18 9 -44 20 -58 11 -14 20 -32 20 -41
0 -8 14 -31 31 -50 17 -20 28 -40 25 -45 -3 -5 -23 -11 -43 -14 -53 -7 -300
-72 -354 -93 -94 -37 -142 -86 -181 -185 -19 -50 -21 -78 -24 -356 -3 -298 -3
-303 -28 -360 -37 -86 -38 -97 -20 -143 13 -33 14 -46 5 -66 -6 -14 -11 -32
-11 -40 0 -8 -11 -30 -24 -47 -52 -68 -96 -184 -141 -367 -58 -237 -72 -289
-101 -380 l-25 -75 24 -20 c12 -11 32 -27 44 -35 21 -15 21 -17 8 -127 -12
-101 -17 -117 -44 -150 -17 -21 -31 -47 -31 -58 0 -12 -21 -41 -46 -65 -102
-99 -153 -193 -214 -387 -20 -66 -47 -126 -76 -169 -28 -44 -44 -79 -44 -99 0
-20 -8 -39 -21 -51 -17 -15 -20 -26 -15 -59 3 -22 6 -44 6 -50 0 -5 -13 -62
-29 -125 -66 -256 -63 -307 23 -349 41 -21 64 -25 140 -24 105 0 160 18 178
58 10 22 7 35 -17 93 -20 48 -29 90 -33 149 -4 74 -3 82 16 92 11 6 28 33 37
61 9 27 22 53 29 57 21 13 43 55 50 95 8 44 83 159 161 248 75 85 127 156 172
232 20 35 57 90 82 123 30 39 68 113 109 212 l64 151 111 1 c82 1 141 8 222
26 l110 25 116 -122 117 -123 4 -60 c3 -42 -1 -76 -13 -112 -35 -99 -43 -183
-30 -321 13 -132 9 -167 -26 -274 -12 -38 -13 -54 -3 -82 9 -28 9 -44 0 -72
-9 -27 -9 -42 0 -64 8 -20 9 -38 1 -66 -12 -43 -14 -123 -5 -149 11 -27 63
-46 143 -52 43 -3 113 -18 161 -33 119 -39 200 -54 273 -48 84 7 127 30 127
67 0 37 -26 59 -138 117 -51 26 -117 70 -147 98 -55 51 -55 51 -57 116 -2 49
2 72 16 93 15 22 17 38 12 85 -5 47 0 87 28 208 53 230 98 492 98 569 0 78
-26 148 -110 304 -26 49 -45 96 -44 111 2 32 -96 211 -190 344 -39 55 -76 121
-84 146 -8 26 -23 55 -34 65 -12 11 -20 31 -20 50 0 18 -7 38 -15 45 -24 20
-18 43 23 81 36 34 39 40 48 126 12 99 10 96 167 398 114 220 107 215 283 215
132 0 134 1 167 66 14 28 23 32 86 42 80 14 219 56 272 83 51 26 99 68 110 97
7 19 2 47 -26 124 -52 148 -79 196 -174 314 -47 60 -108 142 -136 183 -27 41
-67 87 -87 101 -20 14 -76 52 -124 85 l-87 60 -74 0 -75 0 -21 40 c-11 22 -23
47 -27 55 -4 8 -21 22 -39 31 -17 9 -43 29 -57 44 -20 21 -32 26 -63 24 -23
-2 -48 4 -64 14 -32 21 -85 22 -111 2z m102 -30 c26 -22 34 -24 56 -14 20 10
30 9 51 -5 14 -9 25 -23 25 -31 0 -8 8 -15 19 -15 28 0 71 -39 71 -65 0 -12 7
-25 15 -29 8 -3 15 -11 15 -19 0 -15 -83 -40 -88 -26 -2 5 -13 -2 -24 -16 -22
-29 -75 -35 -85 -10 -5 13 -8 13 -20 -5 -18 -26 -57 -26 -83 0 -11 11 -22 20
-24 20 -2 0 -6 -9 -9 -20 -5 -21 -51 -29 -62 -10 -12 20 -25 10 -25 -19 0 -20
-9 -36 -25 -49 -20 -16 -24 -26 -19 -49 4 -20 1 -33 -9 -42 -11 -9 -14 -24
-11 -52 4 -31 1 -39 -11 -39 -8 0 -20 12 -26 27 -32 85 -99 84 -126 -1 l-9
-29 -22 23 c-23 25 -26 42 -13 74 4 11 2 35 -5 55 -13 39 -3 86 22 95 9 4 12
14 8 36 -8 37 16 77 51 86 16 4 25 13 25 25 0 27 36 59 66 59 16 0 36 11 50
25 25 27 71 34 91 14 9 -9 19 -6 39 10 35 27 56 27 92 -4z m407 -215 c-3 -5
-23 -10 -44 -10 -41 0 -132 -27 -143 -43 -3 -6 -4 -17 -1 -24 4 -11 -2 -14
-27 -11 -19 2 -35 8 -37 15 -5 15 85 62 141 73 60 12 118 12 111 0z m-209 -19
c-3 -4 -19 -14 -36 -21 -31 -13 -39 -37 -18 -58 9 -9 7 -12 -10 -12 -24 0 -45
30 -34 48 4 6 28 20 52 31 52 24 53 24 46 12z m352 -62 c96 -64 112 -79 155
-147 27 -42 84 -120 127 -174 98 -121 121 -160 166 -281 43 -118 42 -149 -7
-189 -43 -35 -182 -83 -312 -109 -139 -27 -137 -28 -137 25 l0 44 43 6 c23 4
53 14 67 22 16 10 18 13 5 8 -40 -14 -105 -27 -110 -23 -8 9 17 132 34 169 14
31 21 35 58 38 34 3 42 0 48 -17 7 -24 81 -101 96 -101 6 0 -4 17 -21 37 -43
49 -65 100 -85 203 -18 94 -88 250 -135 300 -24 26 -35 30 -79 30 -33 0 -74 9
-111 25 -33 14 -68 25 -79 25 -11 0 -21 9 -24 22 -8 30 -4 32 43 20 49 -12 64
5 34 40 l-19 21 65 -5 c65 -6 65 -6 30 9 -28 12 -44 13 -83 4 -47 -11 -87 -3
-87 18 0 10 110 39 165 44 22 2 42 4 43 5 2 1 52 -30 110 -69z m-565 23 c15
-2 34 1 42 8 20 16 40 3 24 -16 -10 -12 -8 -19 10 -37 18 -19 32 -22 92 -21
l70 1 -3 -31 c-3 -26 -9 -32 -41 -41 -22 -6 -43 -18 -48 -27 -9 -16 5 -15 78
7 18 6 21 4 16 -13 -4 -16 -11 -19 -41 -16 -60 8 -67 -3 -48 -78 30 -118 18
-141 -59 -114 -29 11 -39 19 -37 33 2 17 2 17 -9 0 -6 -11 -7 -22 -3 -26 16
-13 90 -33 110 -29 24 4 30 62 14 137 -9 40 -9 56 0 65 8 8 10 7 5 -5 -9 -24
15 -36 30 -16 18 25 22 21 29 -34 5 -38 1 -73 -19 -147 -41 -153 -45 -162 -65
-162 -10 0 -48 -15 -83 -34 -36 -18 -69 -31 -74 -27 -5 3 -15 25 -21 48 -7 24
-21 47 -32 53 -31 16 -58 12 -65 -11 -7 -20 -8 -20 -40 11 -34 33 -48 60 -60
114 -10 47 -18 21 -10 -35 7 -47 14 -59 63 -107 l56 -53 -13 -52 c-7 -29 -15
-73 -18 -99 -5 -52 -15 -58 -61 -34 -67 36 -142 148 -156 236 -6 31 -3 37 25
55 21 13 39 37 51 70 11 28 26 54 34 58 24 14 15 27 -15 21 -24 -5 -31 -1 -50
30 -12 19 -26 50 -32 68 -27 94 49 137 84 48 11 -28 21 -40 35 -40 29 0 45 25
39 59 -4 20 -1 33 9 42 10 8 14 24 11 42 -3 21 3 36 20 53 12 13 23 29 23 37
0 9 10 12 35 9 23 -3 35 0 35 8 0 8 6 9 18 5 9 -4 29 -10 45 -13z m94 -24 c-3
-8 -6 -5 -6 6 -1 11 2 17 5 13 3 -3 4 -12 1 -19z m223 -38 c18 -12 2 -12 -25
0 -13 6 -15 9 -5 9 8 0 22 -4 30 -9z m62 -126 c32 -13 77 -24 102 -24 51 0 61
-10 119 -125 33 -65 56 -139 71 -226 l6 -36 -127 4 c-79 3 -144 10 -169 20
-23 8 -73 18 -112 21 l-70 7 29 95 c20 68 28 117 29 172 0 42 5 89 10 103 11
30 15 29 112 -11z m-748 -77 c3 -19 22 -52 40 -74 24 -27 32 -44 26 -53 -7
-12 -12 -11 -29 4 -12 11 -21 29 -21 40 0 12 -9 29 -20 39 -12 10 -20 29 -20
47 0 40 16 38 24 -3z m-14 -232 c-28 -34 16 -169 82 -250 30 -35 94 -75 122
-75 27 0 28 -21 2 -58 -37 -52 -184 -199 -232 -233 l-42 -28 -12 47 c-7 26
-13 88 -13 137 l0 90 -6 -70 c-6 -62 -8 -67 -17 -45 -7 14 -19 57 -29 95 -9
39 -28 92 -43 118 -26 49 -96 127 -114 127 -5 0 7 -14 27 -31 20 -18 47 -52
62 -76 27 -47 63 -152 63 -186 0 -20 0 -20 -22 -1 -50 44 -61 45 -22 3 47 -50
60 -71 80 -137 7 -26 14 -47 14 -47 0 0 -28 0 -63 0 -80 -1 -172 -43 -244
-113 l-51 -51 -11 47 c-5 26 -18 83 -28 127 -11 50 -17 121 -17 190 -1 139 19
200 85 266 49 50 101 71 302 123 54 14 106 30 115 36 24 13 26 12 12 -5z m316
-53 c19 -29 27 -98 14 -121 -6 -12 -8 -21 -6 -21 3 0 38 20 78 44 40 24 89 49
109 56 72 26 96 -16 29 -50 -22 -11 -40 -25 -40 -31 0 -6 6 -6 19 1 48 25 66
2 34 -47 -17 -25 -17 -26 6 -18 21 6 23 5 19 -16 -3 -13 -9 -32 -13 -42 -6
-13 -4 -16 9 -11 21 8 20 -4 -3 -42 -24 -40 -97 -99 -147 -120 -38 -16 -107
-79 -108 -99 -2 -21 -204 -335 -244 -379 -46 -48 -209 -166 -231 -166 -51 0
-153 133 -215 282 l-28 66 33 31 c56 50 149 91 208 91 62 0 65 -11 12 -57 -22
-18 -49 -54 -61 -79 -24 -49 -21 -74 3 -27 22 40 80 92 169 152 79 52 217 185
265 254 20 29 27 51 28 100 2 34 10 90 19 124 10 39 14 77 10 103 -5 30 -3 40
7 40 8 0 19 -8 25 -18z m415 -47 c24 -9 51 -18 59 -21 10 -4 7 -11 -15 -29
-17 -13 -25 -24 -19 -25 6 0 19 9 29 20 23 25 75 40 142 40 l52 0 -25 -53
c-29 -66 -48 -195 -42 -294 l5 -73 -103 0 c-56 0 -111 -3 -121 -6 -11 -4 -2
10 22 37 75 82 80 94 9 27 -38 -38 -73 -68 -77 -68 -4 0 15 42 43 93 27 52 50
98 50 103 -1 5 -17 -21 -36 -58 -19 -38 -37 -68 -40 -68 -3 0 -3 19 1 43 11
65 0 43 -45 -93 -54 -161 -88 -231 -147 -304 -97 -118 -102 -125 -53 -81 l43
40 -43 -80 c-24 -44 -55 -98 -70 -120 -15 -22 -35 -56 -44 -75 -18 -38 -20
-39 36 30 13 16 18 19 14 7 -3 -9 -8 -46 -12 -82 -8 -73 -29 -100 -102 -128
-53 -21 -122 -37 -121 -28 0 3 27 19 60 35 33 15 59 30 56 32 -2 2 -23 -6 -47
-17 -124 -60 -227 -74 -328 -44 -68 21 -179 86 -244 143 -45 40 -49 42 -30 15
13 -18 37 -42 54 -55 41 -28 21 -35 -34 -10 -65 29 -151 104 -172 150 -18 41
-18 42 4 97 26 63 40 70 40 21 0 -19 3 -37 8 -40 4 -2 4 33 0 77 -16 194 -4
324 16 184 8 -54 34 -87 69 -87 20 0 31 -14 65 -84 61 -123 151 -216 210 -216
32 0 270 181 271 206 1 6 8 17 16 24 8 6 42 58 76 113 164 269 176 284 235
311 32 15 78 49 109 81 54 55 55 56 54 115 -1 33 -5 62 -9 65 -10 6 -9 84 1
91 5 3 9 16 9 30 0 21 4 24 39 24 21 0 58 -7 82 -15z m228 -407 l-13 -23 -6
25 c-4 18 -2 27 9 31 21 8 25 -5 10 -33z m-1374 -298 c3 -5 -1 -10 -10 -10 -9
0 -13 5 -10 10 3 6 8 10 10 10 2 0 7 -4 10 -10z m-40 -436 c24 -17 73 -39 111
-48 37 -9 86 -28 108 -41 74 -43 158 -58 280 -50 60 4 132 13 160 20 28 7 53
12 55 10 9 -10 -70 -46 -131 -60 -142 -32 -364 -5 -509 63 -65 31 -189 116
-189 129 0 5 3 18 6 30 l6 23 30 -23 c16 -12 49 -36 73 -53z m-30 -82 c17 -9
17 -13 -8 -73 -29 -70 -57 -179 -56 -219 1 -14 7 5 14 41 15 73 59 207 73 221
6 6 25 2 48 -10 69 -35 204 -72 303 -84 119 -14 229 -2 321 35 70 29 80 25 80
-25 0 -14 11 -40 25 -56 14 -17 28 -45 32 -64 3 -18 46 -91 94 -163 76 -114
169 -273 169 -289 0 -3 -13 -6 -28 -6 -47 0 -128 -29 -289 -101 -349 -158
-574 -174 -918 -62 -97 31 -225 90 -225 104 0 5 16 62 34 127 19 64 51 187 70
272 48 210 86 315 148 403 l20 28 38 -34 c20 -19 45 -39 55 -45z m1172 -886
c106 -214 109 -241 50 -375 -20 -47 -35 -86 -33 -88 2 -2 14 21 27 51 12 31
25 54 27 51 6 -6 -21 -152 -70 -375 -29 -132 -40 -206 -40 -259 1 -59 -3 -81
-19 -108 -17 -27 -20 -42 -14 -82 6 -47 6 -49 -22 -58 -16 -6 -61 -16 -100
-23 -58 -11 -80 -11 -118 0 -53 15 -68 35 -56 76 4 16 6 56 3 90 -3 41 1 76
13 110 13 37 16 75 14 159 -7 236 -3 295 25 379 19 56 25 88 20 113 -4 24 -2
38 6 43 18 11 7 26 -125 166 -91 97 -115 128 -104 135 24 15 39 10 160 -51 65
-33 121 -60 126 -60 4 1 -28 19 -72 41 -44 23 -100 52 -124 66 l-43 25 123 55
c102 46 219 89 252 92 4 1 46 -78 94 -173z m-1210 -30 c54 -13 115 -28 135
-33 l37 -8 -67 -155 c-74 -172 -107 -215 -222 -286 -33 -20 -60 -38 -60 -40 0
-7 54 17 80 36 16 11 31 20 35 20 19 0 -88 -157 -173 -255 -98 -112 -160 -208
-177 -270 -9 -37 -26 -70 -45 -90 -16 -17 -32 -45 -36 -63 -10 -48 -24 -55
-89 -43 -75 14 -121 37 -151 76 -29 38 -30 58 -5 99 10 17 21 47 25 66 3 19
22 57 41 84 21 29 50 97 76 175 63 188 92 243 181 338 52 55 78 90 78 106 0
13 14 38 30 55 17 18 30 36 30 41 0 12 18 154 25 197 l5 32 75 -29 c40 -16
118 -40 172 -53z m-711 -1171 c39 -27 94 -45 135 -45 26 0 26 -1 31 -93 4 -73
11 -107 32 -152 31 -69 31 -70 6 -95 -17 -17 -33 -20 -125 -20 -149 0 -187 22
-187 107 1 57 56 323 68 323 2 0 20 -11 40 -25z m2066 -229 c142 -72 161 -103
76 -127 -68 -18 -181 -5 -299 36 -72 25 -130 38 -187 42 -109 8 -116 15 -109
105 3 37 8 72 11 77 4 6 21 5 43 -1 43 -12 136 -4 203 16 l45 13 62 -57 c39
-37 95 -75 155 -104z"/>
<path d="M5671 4957 c2 -1 14 -11 27 -21 12 -11 22 -16 22 -13 0 10 -31 37
-42 37 -6 0 -9 -1 -7 -3z"/>
<path d="M5950 4711 c8 -6 26 -11 40 -11 19 0 31 -9 45 -37 31 -56 91 -86 139
-67 30 11 16 19 -27 16 -39 -3 -47 0 -80 34 -20 21 -37 44 -37 51 0 7 -10 13
-22 13 -13 0 -34 3 -48 6 -20 4 -22 3 -10 -5z"/>
<path d="M6160 4566 c0 -2 8 -10 18 -17 15 -13 16 -12 3 4 -13 16 -21 21 -21
13z"/>
<path d="M6531 4003 c-10 -26 -10 -27 4 -9 8 11 15 23 15 28 0 15 -7 8 -19
-19z"/>
<path d="M5469 4640 l-24 -20 28 10 c21 7 43 6 87 -6 80 -23 114 -10 45 17
-64 24 -107 24 -136 -1z"/>
<path d="M5666 4613 c-6 -14 -5 -15 5 -6 7 7 10 15 7 18 -3 3 -9 -2 -12 -12z"/>
<path d="M5499 4580 l-24 -21 33 16 c31 15 32 15 32 -5 0 -11 7 -20 15 -20 8
0 15 7 15 16 0 11 5 14 16 10 14 -5 15 -4 4 9 -18 21 -64 19 -91 -5z"/>
<path d="M5224 4575 c-4 -9 -4 -19 0 -22 3 -4 6 2 6 11 0 21 19 17 34 -7 8
-12 8 -22 -1 -35 -12 -20 0 -52 19 -52 7 0 6 5 -1 14 -9 10 -9 20 -2 33 7 14
6 27 -2 44 -15 29 -45 37 -53 14z"/>
<path d="M5410 4425 c13 -14 26 -25 28 -25 3 0 -5 11 -18 25 -13 14 -26 25
-28 25 -3 0 5 -11 18 -25z"/>
<path d="M5558 4313 c6 -2 18 -2 25 0 6 3 1 5 -13 5 -14 0 -19 -2 -12 -5z"/>
<path d="M5628 4303 c17 -2 47 -2 65 0 17 2 3 4 -33 4 -36 0 -50 -2 -32 -4z"/>
<path d="M5621 4249 c18 -11 50 -11 67 0 8 5 -5 8 -34 9 -32 0 -43 -3 -33 -9z"/>
<path d="M5332 4205 c0 -16 2 -22 5 -12 2 9 2 23 0 30 -3 6 -5 -1 -5 -18z"/>
<path d="M5342 4145 c0 -16 2 -22 5 -12 2 9 2 23 0 30 -3 6 -5 -1 -5 -18z"/>
<path d="M5352 4085 c0 -16 2 -22 5 -12 2 9 2 23 0 30 -3 6 -5 -1 -5 -18z"/>
<path d="M5150 4084 c0 -13 57 -103 84 -132 11 -13 30 -28 41 -34 11 -6 3 5
-17 23 -21 19 -54 61 -73 93 -19 33 -35 55 -35 50z"/>
<path d="M5071 3934 c0 -11 3 -14 6 -6 3 7 2 16 -1 19 -3 4 -6 -2 -5 -13z"/>
<path d="M5616 4084 c-5 -14 -4 -15 9 -4 17 14 19 20 6 20 -5 0 -12 -7 -15
-16z"/>
<path d="M5669 4023 c-13 -16 -12 -17 4 -4 16 13 21 21 13 21 -2 0 -10 -8 -17
-17z"/>
<path d="M4957 3269 c7 -7 15 -10 18 -7 3 3 -2 9 -12 12 -14 6 -15 5 -6 -5z"/>
<path d="M4998 3263 c6 -2 18 -2 25 0 6 3 1 5 -13 5 -14 0 -19 -2 -12 -5z"/>
<path d="M5979 4093 c-29 -35 -41 -53 -36 -53 2 0 17 16 31 35 28 36 31 49 5
18z"/>
<path d="M5460 3400 c-8 -5 -10 -10 -5 -10 6 0 17 5 25 10 8 5 11 10 5 10 -5
0 -17 -5 -25 -10z"/>
<path d="M5390 3370 c-19 -11 -30 -19 -25 -19 6 0 26 8 45 19 19 11 31 19 25
19 -5 0 -26 -8 -45 -19z"/>
<path d="M5320 3340 c-8 -5 -10 -10 -5 -10 6 0 17 5 25 10 8 5 11 10 5 10 -5
0 -17 -5 -25 -10z"/>
<path d="M4870 3156 c0 -3 27 -26 60 -50 71 -52 143 -81 220 -89 l55 -6 -60
13 c-107 24 -157 47 -237 109 -21 16 -38 26 -38 23z"/>
<path d="M4630 3076 c0 -21 157 -127 186 -126 5 1 -13 13 -41 27 -27 14 -71
43 -97 65 -27 22 -48 37 -48 34z"/>
<path d="M4611 2932 c-43 -67 -39 -76 4 -12 20 29 34 55 32 57 -3 2 -19 -18
-36 -45z"/>
<path d="M5346 2789 c-78 -51 -83 -59 -19 -24 29 15 60 36 69 46 23 26 18 23
-50 -22z"/>
<path d="M5355 2698 c-100 -96 -229 -169 -365 -207 -21 -5 -27 -10 -15 -10 36
-2 178 50 237 85 57 35 207 168 198 176 -3 3 -27 -17 -55 -44z"/>
<path d="M4955 2700 c11 -5 27 -9 35 -9 9 0 8 4 -5 9 -11 5 -27 9 -35 9 -9 0
-8 -4 5 -9z"/>
<path d="M5018 2683 c7 -3 16 -2 19 1 4 3 -2 6 -13 5 -11 0 -14 -3 -6 -6z"/>
<path d="M5063 2673 c9 -2 25 -2 35 0 9 3 1 5 -18 5 -19 0 -27 -2 -17 -5z"/>
<path d="M5337 2512 c-56 -86 -208 -217 -315 -272 -24 -12 -41 -25 -38 -28 3
-3 43 17 88 44 86 52 248 202 281 262 25 44 15 41 -16 -6z"/>
<path d="M4935 2195 c-25 -12 -26 -14 -5 -9 14 4 29 10 35 15 12 12 5 11 -30
-6z"/>
<path d="M5663 1763 c15 -2 37 -2 50 0 12 2 0 4 -28 4 -27 0 -38 -2 -22 -4z"/>
<path d="M5633 1718 c11 -10 29 -18 41 -17 17 1 16 2 -7 9 -16 5 -34 12 -41
17 -6 4 -3 0 7 -9z"/>
<path d="M5711 1352 c-13 -26 -47 -82 -77 -124 -30 -43 -52 -78 -49 -78 19 0
164 234 153 246 -3 2 -15 -18 -27 -44z"/>
<path d="M5630 990 c8 -5 24 -10 34 -10 26 0 18 6 -19 14 -22 5 -26 4 -15 -4z"/>
<path d="M5700 930 c-8 -5 -10 -10 -5 -10 6 0 17 5 25 10 8 5 11 10 5 10 -5 0
-17 -5 -25 -10z"/>
<path d="M5605 910 l-50 -7 45 -1 c25 0 54 3 65 8 23 10 12 10 -60 0z"/>
<path d="M5554 866 c11 -9 29 -16 40 -15 17 1 16 2 -6 9 -14 4 -32 11 -40 15
-7 3 -4 -1 6 -9z"/>
<path d="M5670 860 c-35 -7 -35 -7 -5 -9 17 0 37 4 45 9 17 11 11 11 -40 0z"/>
<path d="M4391 1834 c-1 -32 27 -139 35 -132 2 3 -1 19 -7 36 -6 17 -14 52
-19 79 -6 36 -8 40 -9 17z"/>
<path d="M4332 1755 c0 -16 2 -22 5 -12 2 9 2 23 0 30 -3 6 -5 -1 -5 -18z"/>
<path d="M4342 1695 c0 -16 2 -22 5 -12 2 9 2 23 0 30 -3 6 -5 -1 -5 -18z"/>
<path d="M4339 1363 c-13 -16 -12 -17 4 -4 16 13 21 21 13 21 -2 0 -10 -8 -17
-17z"/>
<path d="M4245 1298 c-38 -27 -90 -60 -115 -73 -25 -13 -40 -24 -35 -25 16 0
156 85 195 119 50 43 36 37 -45 -21z"/>
<path d="M4020 1094 c0 -28 77 -95 107 -94 4 1 -9 10 -30 21 -21 11 -47 34
-57 52 -11 18 -20 27 -20 21z"/>
<path d="M3957 985 c19 -34 56 -63 97 -74 22 -6 42 -9 44 -6 2 2 -15 9 -39 15
-27 8 -57 26 -78 48 -19 21 -30 28 -24 17z"/>
<path d="M4040 990 c8 -5 22 -9 30 -9 10 0 8 3 -5 9 -27 12 -43 12 -25 0z"/>
<path d="M4098 973 c6 -2 18 -2 25 0 6 3 1 5 -13 5 -14 0 -19 -2 -12 -5z"/>
<path d="M3973 603 c9 -2 25 -2 35 0 9 3 1 5 -18 5 -19 0 -27 -2 -17 -5z"/>
<path d="M4043 603 c9 -2 23 -2 30 0 6 3 -1 5 -18 5 -16 0 -22 -2 -12 -5z"/>
</g>
</svg>
