<?xml version="1.0" standalone="no"?>
<!DOCTYPE svg PUBLIC "-//W3C//DTD SVG 20010904//EN"
 "http://www.w3.org/TR/2001/REC-SVG-20010904/DTD/svg10.dtd">
<svg version="1.0" xmlns="http://www.w3.org/2000/svg"
 width="1024.000000pt" height="559.000000pt" viewBox="0 0 1024.000000 559.000000"
 preserveAspectRatio="xMidYMid meet">
<metadata>
Created by potrace 1.16, written by Peter Selinger 2001-2019
</metadata>
<g transform="translate(0.000000,559.000000) scale(0.100000,-0.100000)"
fill="#000000" stroke="none">
<path d="M4980 4724 c-131 -34 -241 -109 -280 -191 -12 -26 -31 -64 -41 -83
-65 -124 -64 -120 -64 -230 1 -82 5 -118 22 -163 29 -76 100 -181 178 -262
l64 -66 -15 -57 c-26 -97 -25 -97 -219 -168 -177 -64 -244 -101 -315 -173 -59
-60 -76 -88 -193 -321 -70 -140 -127 -262 -127 -270 1 -8 19 -28 40 -45 45
-34 45 -37 26 -114 -49 -188 -60 -275 -59 -436 0 -88 8 -216 17 -285 47 -350
46 -331 25 -437 -21 -109 -24 -229 -6 -285 12 -36 103 -148 120 -148 5 0 22
-9 37 -20 27 -19 29 -24 23 -70 -5 -42 -3 -50 10 -50 17 0 24 19 29 74 2 24 9
31 35 38 41 11 50 39 34 115 -6 31 -11 77 -11 102 l0 46 20 -32 c23 -38 54
-56 80 -48 25 8 32 33 20 75 -6 19 -17 67 -25 107 -8 42 -25 89 -41 112 -26
40 -27 43 -16 109 13 75 60 246 85 305 10 24 22 37 29 33 7 -2 46 -15 86 -27
65 -20 73 -25 67 -43 -61 -206 -105 -504 -72 -494 7 3 19 51 29 124 27 184 66
354 88 377 4 5 43 3 86 -4 44 -7 162 -13 264 -13 l185 -1 7 -40 c18 -102 39
-314 47 -476 9 -179 13 -205 33 -193 20 13 -11 495 -43 653 -6 34 -9 64 -7 67
3 3 21 7 40 10 l34 6 27 -88 c14 -49 32 -118 38 -154 19 -106 24 -123 37 -128
8 -2 12 7 12 26 0 37 -34 205 -57 280 -10 31 -18 61 -18 65 0 4 26 19 58 32
l58 23 13 -33 c8 -18 24 -71 35 -117 35 -139 44 -198 96 -593 38 -287 45 -319
68 -296 7 7 7 34 -1 93 -7 46 -23 171 -37 278 -46 350 -73 497 -112 605 -32
86 -33 178 -3 210 47 50 59 103 70 311 6 110 14 229 18 266 l7 67 70 -54 c39
-30 79 -54 91 -55 12 0 37 11 57 24 l36 25 88 -42 c75 -35 98 -41 155 -42 75
0 108 17 143 76 32 55 27 181 -13 288 -36 97 -53 127 -176 316 -51 77 -112
176 -138 220 l-46 80 -6 131 c-5 102 -12 149 -32 210 -34 106 -62 154 -94 161
-14 3 -34 19 -45 36 -14 22 -30 33 -50 35 -16 2 -38 10 -48 17 -13 9 -27 11
-43 5 -21 -8 -25 -6 -30 18 -3 15 -10 43 -15 62 -23 94 -27 168 -12 212 29 83
-21 206 -109 266 -97 67 -283 92 -418 56z m305 -45 c55 -17 78 -31 120 -72 53
-54 81 -118 73 -168 -3 -22 -6 -20 -26 19 -30 57 -90 122 -112 122 -10 0 -23
-13 -30 -30 -13 -31 -73 -90 -92 -90 -7 0 -9 16 -6 45 4 29 1 48 -7 55 -14 11
-21 4 -45 -43 -8 -16 -32 -45 -55 -65 l-40 -37 -5 40 c-3 22 -9 40 -15 40 -5
0 -22 -22 -36 -48 -14 -26 -45 -67 -68 -91 -48 -49 -61 -84 -50 -141 5 -22 8
-55 9 -72 l0 -33 -32 20 c-44 26 -74 25 -103 -5 -20 -19 -25 -34 -25 -77 0
-66 32 -119 90 -148 39 -20 40 -22 40 -73 l-1 -52 -60 64 c-126 136 -180 251
-180 387 0 76 15 126 54 178 13 17 29 51 36 74 25 87 134 172 264 207 81 21
222 19 302 -6z m87 -166 c21 -24 52 -80 66 -120 l11 -32 -47 -3 c-36 -2 -48
-7 -50 -21 -3 -16 2 -18 30 -16 77 5 73 10 98 -120 14 -76 20 -129 15 -147 -4
-16 -7 -64 -6 -107 3 -93 -26 -191 -71 -242 -40 -46 -113 -63 -189 -45 -65 15
-99 31 -161 77 -30 22 -49 30 -53 22 -18 -28 116 -119 198 -134 42 -8 42 -6
22 -82 -19 -74 -20 -123 -1 -123 8 0 17 14 21 30 7 33 14 37 33 18 15 -15 15
-41 2 -89 -11 -41 -34 -54 -111 -64 -105 -15 -280 51 -381 144 l-53 49 35 15
c51 21 76 50 94 104 22 69 38 169 35 220 -2 29 2 47 10 53 23 13 2 30 -38 30
-47 0 -86 35 -101 91 -21 76 30 117 80 64 27 -28 52 -32 70 -10 12 15 9 96 -6
166 -5 21 3 36 42 80 34 38 56 54 75 56 33 2 66 18 100 50 l26 24 6 -22 c5
-18 10 -20 34 -15 40 10 96 51 116 86 21 35 28 37 49 13z m238 -473 c0 -9 14
-59 30 -110 35 -109 36 -120 12 -120 -13 0 -22 19 -40 83 -12 45 -27 99 -33
119 -14 47 -6 76 16 58 8 -7 15 -20 15 -30z m70 -12 c11 -18 20 -44 20 -58 0
-14 9 -50 20 -80 24 -69 25 -93 4 -88 -11 2 -22 26 -34 73 -10 39 -25 89 -34
113 -13 36 -13 72 0 72 2 0 13 -15 24 -32z m-111 -104 c22 -64 30 -105 26
-124 l-6 -29 96 -3 c95 -3 118 3 96 25 -6 6 -11 21 -11 34 0 13 -9 50 -21 84
-12 33 -19 63 -16 66 11 10 29 -10 49 -56 40 -92 49 -139 57 -281 l7 -145 68
-110 c37 -60 101 -162 142 -225 137 -211 191 -348 181 -461 -6 -65 -19 -90
-60 -114 -59 -35 -174 -3 -316 89 l-69 44 9 42 c5 23 17 58 25 78 l16 37 34
-67 c18 -36 38 -69 44 -73 28 -17 25 13 -9 88 -21 45 -45 109 -55 142 -42 146
-116 365 -141 419 -26 54 -33 60 -93 87 -35 16 -86 49 -113 73 -28 25 -66 50
-87 57 -52 16 -57 24 -25 38 23 9 36 9 66 -4 55 -23 86 -20 97 11 17 43 11
124 -15 229 -14 55 -25 110 -25 123 0 47 19 19 49 -74z m-40 -196 c1 -37 -2
-69 -7 -72 -4 -2 -21 2 -39 9 l-31 13 29 57 c16 32 29 67 30 79 0 21 1 21 9 1
5 -11 9 -50 9 -87z m-135 -157 c31 -8 65 -28 106 -65 37 -33 80 -61 110 -71
43 -14 50 -21 69 -65 12 -27 21 -52 21 -55 0 -4 -23 13 -50 38 -28 25 -71 55
-96 67 -25 13 -48 28 -50 35 -9 23 -126 69 -176 70 -26 1 -50 4 -53 6 -2 3 0
21 6 41 11 41 37 53 56 27 7 -9 33 -22 57 -28z m-662 -99 c7 -9 36 -37 63 -61
120 -104 291 -153 437 -126 l37 7 -18 -48 c-80 -213 -164 -365 -313 -564 -128
-171 -361 -369 -475 -404 -24 -8 -27 3 -37 156 l-6 76 39 -5 c47 -6 48 -5 84
127 15 52 38 137 52 189 18 66 23 97 16 104 -21 21 -26 6 -91 -230 -29 -106
-47 -153 -56 -153 -17 0 -114 32 -204 67 -59 23 -230 127 -230 139 0 3 57 118
126 255 165 328 193 356 435 449 120 45 124 46 141 22z m642 7 c20 -9 24 -17
20 -43 -2 -17 -9 -73 -14 -125 -22 -192 -114 -500 -206 -683 -24 -48 -44 -90
-44 -93 0 -3 7 -5 15 -5 16 0 96 152 138 265 74 197 131 445 131 577 1 97 7
104 52 65 l27 -24 -1 -154 c-1 -170 -16 -296 -63 -532 -17 -87 -29 -161 -25
-164 15 -15 28 20 56 149 40 184 60 334 67 520 l6 157 31 -16 c17 -9 65 -50
106 -92 l76 -76 39 -137 38 -137 -21 -49 c-30 -69 -52 -158 -52 -209 0 -24 -3
-43 -6 -43 -3 0 -35 23 -71 51 l-64 52 3 115 c2 81 0 116 -9 119 -19 7 -21
-19 -33 -292 -20 -478 -30 -555 -78 -608 -26 -30 -105 -66 -179 -83 -38 -8
-77 -17 -88 -21 -15 -4 -12 4 16 33 86 93 175 250 181 320 5 54 -14 39 -42
-31 -59 -149 -157 -278 -243 -318 -37 -18 -193 -22 -307 -8 l-55 6 50 29 c89
52 195 146 195 174 0 20 -9 15 -64 -34 -67 -61 -149 -113 -213 -136 -66 -23
-72 -23 -169 3 -146 38 -161 53 -171 169 l-5 65 39 1 c119 5 378 211 547 437
189 253 346 591 350 754 0 35 4 63 8 63 4 0 18 -5 32 -11z m446 -824 c7 -9 11
-17 9 -18 -2 -1 -12 -9 -21 -16 -16 -12 -18 -10 -18 18 0 34 11 39 30 16z
m-1520 -106 c36 -12 68 -23 72 -25 3 -3 -10 -55 -31 -117 -34 -101 -38 -126
-44 -252 -4 -77 -14 -205 -23 -285 -8 -80 -14 -192 -12 -250 l3 -105 47 -67
c26 -38 50 -85 54 -105 3 -21 12 -65 19 -98 7 -33 11 -62 9 -64 -10 -10 -35
28 -53 79 -21 60 -46 76 -57 36 -10 -39 -10 -165 0 -233 5 -40 5 -63 -1 -63
-15 0 -31 43 -48 132 -21 108 -23 114 -36 101 -13 -13 6 -162 27 -211 10 -25
11 -33 1 -30 -20 6 -55 89 -62 148 -8 71 -14 90 -27 90 -11 0 -6 -122 7 -170
l7 -25 -17 23 c-9 12 -22 57 -28 99 -14 90 -36 111 -38 36 l-1 -48 -10 55 c-7
42 -5 78 9 155 24 134 23 236 -6 450 -36 261 -35 474 3 645 15 69 31 139 37
156 l10 31 62 -33 c34 -18 91 -43 127 -55z m81 -270 c-33 -58 -23 -184 18
-240 31 -42 28 -105 -13 -208 -19 -47 -44 -133 -57 -190 -21 -93 -24 -101 -31
-70 -7 34 3 212 21 363 6 44 13 140 16 211 4 88 13 153 27 200 l21 70 9 -50
c8 -42 6 -55 -11 -86z m334 -345 c242 -35 564 -18 691 36 57 25 56 25 52 -7
-4 -36 -43 -58 -164 -90 -90 -23 -117 -26 -294 -26 -205 0 -305 12 -458 55
-75 22 -98 42 -87 77 5 16 9 16 73 -5 37 -12 121 -30 187 -40z"/>
<path d="M5086 4307 c-78 -45 -76 -86 3 -44 27 15 59 27 72 27 31 0 53 15 45
29 -12 18 -79 12 -120 -12z"/>
<path d="M5304 4275 c-4 -9 11 -45 35 -87 49 -84 51 -105 14 -114 -48 -10 -55
-14 -50 -27 6 -18 74 -13 97 8 30 28 24 60 -27 147 -51 87 -60 97 -69 73z"/>
<path d="M5395 4250 c-11 -17 5 -50 25 -50 20 0 32 23 24 45 -7 17 -40 20 -49
5z"/>
<path d="M5131 4212 c-17 -32 25 -72 44 -41 11 16 -4 59 -20 59 -8 0 -19 -8
-24 -18z"/>
<path d="M5315 3970 c-40 -16 -77 -67 -82 -112 -4 -36 -1 -47 21 -70 36 -39
106 -40 141 -2 21 23 25 37 25 94 0 52 -4 71 -18 83 -20 18 -55 21 -87 7z m20
-124 c38 -16 46 -41 16 -51 -31 -9 -68 4 -79 30 -18 38 4 45 63 21z"/>
<path d="M5596 3642 c-12 -11 -6 -20 18 -26 13 -3 37 -21 54 -40 30 -35 42
-36 42 -6 0 33 -94 92 -114 72z"/>
<path d="M4903 2372 c-101 -114 -266 -227 -360 -248 -56 -12 -63 -16 -63 -30
0 -19 16 -18 91 6 77 23 159 71 250 146 100 81 187 194 151 194 -4 0 -35 -31
-69 -68z"/>
<path d="M6388 4637 c-24 -18 -108 -139 -108 -154 0 -31 32 -8 80 58 28 38 53
76 56 84 8 19 -10 27 -28 12z"/>
<path d="M6530 4384 c-91 -56 -108 -70 -94 -84 13 -13 198 92 202 114 6 28
-29 18 -108 -30z"/>
<path d="M6135 4380 c-4 -6 14 -33 39 -61 57 -64 92 -134 112 -229 25 -117 5
-258 -48 -345 -31 -52 -20 -86 16 -47 68 76 98 306 56 444 -27 90 -60 150
-113 206 -43 44 -52 49 -62 32z"/>
<path d="M6024 4247 c-4 -11 7 -31 30 -58 74 -87 91 -221 43 -339 -18 -45 -23
-68 -16 -75 27 -26 79 108 79 203 0 108 -33 193 -99 256 -26 25 -31 27 -37 13z"/>
<path d="M5917 4124 c-3 -4 6 -22 20 -41 34 -45 43 -125 18 -173 -13 -24 -14
-35 -5 -44 14 -14 36 13 50 64 15 55 12 82 -17 141 -26 50 -49 69 -66 53z"/>
<path d="M6625 4109 c-117 -18 -125 -20 -125 -34 0 -18 53 -19 160 -2 57 9 76
16 78 30 4 19 -14 20 -113 6z"/>
<path d="M6486 3852 c-10 -16 15 -29 110 -58 93 -27 143 -27 113 0 -8 7 -52
23 -99 35 -47 12 -92 24 -102 27 -9 3 -19 1 -22 -4z"/>
<path d="M6395 3640 c-4 -6 -1 -18 7 -27 21 -26 129 -103 144 -103 32 0 10 31
-53 77 -89 64 -91 65 -98 53z"/>
</g>
</svg>
