<?xml version="1.0" standalone="no"?>
<!DOCTYPE svg PUBLIC "-//W3C//DTD SVG 20010904//EN"
 "http://www.w3.org/TR/2001/REC-SVG-20010904/DTD/svg10.dtd">
<svg version="1.0" xmlns="http://www.w3.org/2000/svg"
 width="1024.000000pt" height="559.000000pt" viewBox="0 0 1024.000000 559.000000"
 preserveAspectRatio="xMidYMid meet">
<metadata>
Created by potrace 1.16, written by Peter Selinger 2001-2019
</metadata>
<g transform="translate(0.000000,559.000000) scale(0.100000,-0.100000)"
fill="#000000" stroke="none">
<path d="M7265 4694 c-234 -19 -501 -56 -705 -99 -542 -112 -1103 -285 -1590
-489 l-131 -55 -45 19 c-175 76 -505 104 -716 61 -310 -63 -516 -201 -626
-421 -20 -41 -38 -77 -39 -79 -2 -2 -21 17 -44 43 -141 160 -370 147 -549 -31
-78 -79 -148 -210 -176 -328 -31 -133 -23 -133 -95 5 -75 146 -113 190 -165
190 -78 0 -148 -84 -289 -345 -130 -241 -164 -349 -122 -380 43 -31 70 1 92
110 43 207 182 439 282 469 21 7 26 0 57 -67 42 -92 94 -174 146 -231 l41 -44
-11 -83 c-12 -102 -13 -260 0 -354 12 -93 54 -237 83 -283 15 -24 26 -59 29
-98 14 -149 101 -249 171 -194 15 12 27 26 27 32 0 6 14 40 32 75 28 58 43 73
127 136 53 40 143 119 201 177 120 121 178 211 230 354 11 29 12 28 78 -95 66
-123 139 -212 217 -266 16 -12 28 -24 25 -26 -3 -3 -64 10 -135 29 -183 47
-264 43 -296 -18 -6 -12 -25 -36 -42 -54 -60 -67 -118 -177 -179 -344 -47
-125 -62 -192 -55 -247 4 -38 0 -51 -28 -92 -48 -73 -105 -269 -105 -365 l0
-43 -67 -7 c-149 -15 -259 -115 -209 -191 21 -32 53 -32 114 -1 26 13 81 34
122 46 41 12 91 32 110 45 54 35 96 115 128 247 36 146 93 268 140 304 49 38
95 143 137 314 55 224 53 220 76 220 10 0 60 -20 109 -45 157 -79 248 -90 335
-42 53 30 95 99 102 171 3 31 9 55 12 53 116 -64 247 -107 332 -107 l45 0 -23
-107 c-13 -60 -26 -153 -29 -208 -5 -87 -3 -104 14 -130 l18 -30 -52 -110
c-29 -60 -62 -146 -73 -190 -25 -98 -44 -249 -36 -285 9 -42 -47 -115 -135
-176 -85 -59 -105 -83 -96 -118 12 -49 105 -57 186 -16 67 34 152 144 180 232
9 30 16 37 33 35 41 -4 141 178 184 335 12 42 18 101 18 177 0 110 1 115 27
143 28 30 68 170 68 239 0 19 3 44 6 56 6 21 8 20 43 -18 33 -34 44 -39 83
-39 36 0 49 5 73 30 26 27 30 40 33 103 4 64 0 84 -31 167 -20 52 -33 97 -30
100 3 3 8 -1 10 -8 20 -56 121 -147 225 -202 128 -69 218 -62 298 21 l48 50
74 -53 c122 -90 160 -111 346 -197 8 -3 26 -38 41 -78 16 -40 40 -92 54 -116
31 -52 119 -135 153 -143 17 -4 24 -13 24 -30 0 -35 43 -146 81 -211 64 -107
298 -320 407 -371 39 -18 64 -23 90 -19 29 5 43 1 81 -27 103 -75 202 -109
348 -120 45 -4 102 -15 125 -25 70 -29 95 -33 112 -15 25 24 20 78 -10 114
-43 50 -72 60 -181 60 -96 0 -99 1 -147 35 -27 19 -54 35 -58 35 -5 0 -32 10
-59 22 l-50 21 25 24 c31 29 32 55 6 131 -54 153 -227 359 -380 451 -46 27
-33 27 38 -3 255 -106 500 -156 762 -156 265 0 474 44 686 145 118 57 129 73
128 185 -5 376 -229 833 -579 1186 -135 135 -224 210 -370 309 -55 37 -101 68
-103 70 -1 1 66 17 150 35 323 69 602 178 813 317 273 181 258 336 -40 397
-130 26 -236 44 -295 51 -96 11 -96 12 -16 66 122 81 180 163 154 217 -19 40
-71 60 -187 71 -128 14 -240 12 -446 -5z m411 -44 c127 -10 174 -23 174 -48 0
-43 -76 -114 -202 -191 l-72 -44 -180 13 c-248 17 -619 15 -786 -5 -434 -51
-915 -190 -1445 -418 l-80 -34 -48 32 c-26 18 -65 40 -87 50 -22 10 -40 21
-40 24 0 3 53 26 118 50 64 24 164 61 222 83 739 279 1566 467 2165 491 39 2
86 4 105 5 19 1 90 -3 156 -8z m-301 -320 c209 -13 324 -26 530 -61 199 -34
259 -51 300 -83 86 -69 -14 -190 -266 -320 -216 -113 -433 -187 -721 -246
l-157 -33 -79 41 c-205 107 -445 191 -682 239 -131 26 -429 24 -533 -5 -177
-49 -307 -154 -395 -321 -30 -55 -49 -81 -59 -79 -10 2 -25 36 -42 98 -15 52
-35 115 -44 139 -10 24 -14 47 -10 51 8 8 338 132 452 170 189 63 299 117 400
194 87 67 222 152 261 164 35 12 285 48 370 55 104 8 527 6 675 -3z m-1194
-98 c-14 -9 -63 -45 -110 -80 -132 -97 -185 -123 -481 -230 -151 -55 -299
-109 -328 -121 -29 -12 -57 -21 -61 -21 -11 0 -75 99 -69 106 9 9 218 94 383
156 159 59 331 116 475 156 41 12 98 28 125 36 28 8 59 14 70 14 18 1 18 -1
-4 -16z m-1556 -166 c55 -13 131 -37 170 -51 70 -27 225 -106 225 -115 0 -3
-35 -20 -78 -39 -135 -59 -455 -218 -517 -256 -57 -35 -65 -37 -155 -38 -81
-2 -104 -6 -155 -30 -140 -65 -205 -181 -135 -240 44 -37 93 -50 160 -43 45 5
72 2 119 -14 71 -24 121 -25 176 -4 52 21 365 88 530 114 72 12 152 25 178 31
75 14 115 12 121 -8 3 -10 8 -59 12 -109 5 -71 3 -104 -10 -150 -25 -85 -125
-351 -145 -384 -9 -16 -68 -74 -130 -130 l-113 -102 -44 50 c-73 84 -173 112
-228 63 -29 -26 -93 -140 -118 -213 -15 -46 -29 -68 -42 -72 -27 -7 -152 10
-202 27 -165 59 -341 193 -434 330 -14 20 -31 37 -37 37 -45 0 38 -131 146
-232 82 -76 97 -106 85 -161 l-6 -31 -14 26 c-8 15 -32 34 -59 44 -25 11 -48
27 -51 37 -3 10 -36 40 -73 67 -84 61 -129 119 -220 282 -70 125 -71 128 -61
170 6 24 13 97 16 163 7 139 -10 265 -53 379 -36 97 -35 130 11 220 94 184
275 315 526 381 112 30 160 34 335 30 140 -3 187 -8 270 -29z m483 -250 c18
-24 32 -48 32 -53 0 -5 -53 -30 -117 -57 -244 -101 -566 -266 -550 -282 2 -3
60 24 128 60 151 79 285 139 546 243 15 6 35 -41 74 -171 21 -73 26 -102 18
-107 -7 -4 -37 -10 -68 -14 -135 -15 -445 -73 -624 -114 -48 -12 -100 -21
-115 -21 -40 0 -128 44 -147 74 -42 63 32 124 340 279 131 66 433 206 446 207
3 0 20 -20 37 -44z m1101 9 c132 -17 287 -54 418 -100 8 -3 6 -26 -7 -85 -10
-45 -21 -84 -24 -88 -4 -3 -98 -9 -209 -14 -111 -4 -269 -12 -350 -18 -82 -5
-164 -10 -183 -10 l-35 0 7 153 c4 83 8 154 11 156 19 22 227 25 372 6z m-410
-97 c-1 -46 -4 -114 -8 -153 l-6 -70 -165 -17 c-91 -9 -180 -17 -198 -17 l-33
-1 33 61 c66 121 163 209 280 254 99 38 98 39 97 -57z m-2564 -17 c94 -42 181
-177 227 -351 17 -67 22 -114 22 -220 1 -328 -112 -555 -393 -787 -89 -73
-117 -73 -186 2 -63 67 -85 70 -120 15 -30 -48 -58 -65 -74 -46 -19 23 -60
155 -76 245 -15 89 -20 256 -9 348 l7 53 37 -6 c27 -4 41 -2 53 11 26 26 20
50 -24 101 -37 43 -40 50 -34 88 27 175 101 348 187 437 117 121 264 163 383
110z m3551 -49 c60 -27 122 -55 138 -64 26 -14 28 -16 10 -21 -28 -8 -294 -30
-300 -25 -4 4 3 45 22 136 2 12 8 22 13 22 5 0 58 -22 117 -48z m423 -233 c95
-66 96 -66 94 -105 -8 -113 -120 -387 -237 -577 -95 -155 -176 -255 -314 -390
l-111 -108 -60 30 c-83 42 -253 141 -269 156 -11 10 4 36 79 141 250 349 387
586 475 824 l42 115 64 11 c74 13 83 9 237 -97z m-2916 86 c-33 -23 -63 -79
-63 -115 0 -42 59 -101 122 -123 l43 -15 -33 -1 c-18 -1 -58 8 -89 19 -39 13
-83 20 -136 20 -133 0 -171 41 -107 114 54 61 169 113 255 115 29 1 29 1 8
-14z m2577 -4 c0 -23 -57 -166 -111 -276 -81 -167 -185 -339 -355 -581 -102
-148 -144 -216 -144 -236 0 -15 -4 -28 -9 -28 -5 0 -27 25 -51 54 l-42 55 65
98 c151 230 311 589 383 863 l10 35 104 7 c58 4 112 10 120 12 26 7 30 6 30
-3z m-290 -30 c0 -5 -22 -76 -49 -157 -83 -255 -203 -510 -334 -712 l-60 -94
-89 95 c-104 113 -186 177 -286 224 -58 28 -72 39 -67 52 44 107 87 292 106
455 7 59 18 110 24 112 16 6 515 31 643 33 61 0 112 -3 112 -8z m-4152 -40
c15 -16 49 -73 76 -127 48 -97 153 -261 182 -284 8 -7 14 -16 14 -21 0 -35
-89 40 -157 131 -23 30 -64 101 -92 157 -57 115 -72 125 -136 99 -21 -9 -40
-15 -42 -13 -8 9 88 87 108 87 11 0 33 -13 47 -29z m3348 -53 c-22 -189 -95
-496 -120 -503 -99 -27 -193 -106 -322 -271 -36 -46 -70 -82 -75 -78 -5 3 -29
39 -53 80 l-43 75 37 87 c81 191 121 326 130 445 5 62 16 129 24 149 14 32 21
37 58 43 73 10 291 33 332 34 l39 1 -7 -62z m1643 -118 c38 -33 72 -64 76 -70
8 -13 -57 -205 -103 -304 -48 -101 -122 -220 -203 -328 -62 -82 -338 -371
-371 -389 -12 -7 -35 0 -83 23 -36 18 -65 35 -65 38 1 3 21 21 46 40 172 133
390 428 498 675 43 99 116 325 116 361 0 25 18 16 89 -46z m187 -179 c36 -39
90 -101 120 -138 63 -79 63 -68 0 -223 -100 -248 -268 -465 -508 -657 -37 -29
-70 -53 -73 -53 -6 0 -163 67 -257 109 l-47 21 131 128 c156 151 285 309 369
451 61 101 143 288 169 384 7 26 16 47 21 47 5 0 39 -31 75 -69z m-5588 -222
c-6 -30 -13 -46 -15 -37 -5 19 16 103 23 95 2 -2 -1 -28 -8 -58z m5867 -142
c47 -77 47 -80 35 -120 -53 -183 -205 -395 -370 -517 -78 -58 -208 -130 -234
-130 -27 0 -136 41 -136 51 0 5 4 9 9 9 16 0 154 115 231 192 162 163 298 381
365 586 l17 52 18 -22 c9 -13 39 -58 65 -101z m-2245 100 c0 -2 -7 -18 -16
-36 -16 -32 -12 -78 9 -113 9 -13 7 -22 -10 -40 -11 -13 -54 -79 -96 -148
-119 -196 -173 -249 -243 -235 -39 7 -64 38 -64 78 0 65 248 384 364 469 35
25 56 34 56 25z m180 -83 c111 -72 363 -344 547 -589 92 -122 117 -174 110
-227 -16 -122 -188 -198 -312 -138 -83 40 -125 108 -219 356 -114 299 -168
416 -229 496 -62 81 -71 116 -41 149 21 23 56 11 144 -47z m-680 -105 c0 -6
20 -45 45 -86 l45 -74 -26 -45 c-21 -35 -25 -54 -22 -94 1 -28 0 -50 -3 -50
-25 0 -161 105 -193 148 l-37 52 58 53 c118 109 133 120 133 96z m563 -66 c24
-39 33 -58 87 -179 47 -103 101 -246 96 -252 -13 -12 -256 132 -340 202 l-29
24 33 58 c59 104 112 184 121 184 5 0 19 -17 32 -37z m2331 -148 c64 -163 100
-340 94 -459 -3 -62 -6 -71 -30 -89 -25 -19 -43 -21 -200 -21 -105 -1 -201 4
-243 12 -119 23 -285 65 -285 72 0 4 19 16 42 26 119 54 254 163 353 287 64
80 150 233 175 311 l13 40 23 -45 c13 -24 39 -84 58 -134z m-3287 133 c71 -42
162 -223 170 -338 4 -56 2 -68 -16 -87 -39 -42 -78 -26 -121 50 -28 49 -30 58
-30 165 0 117 -12 163 -45 176 -24 9 -43 8 -29 -2 24 -16 32 -50 28 -127 -15
-289 -37 -453 -69 -515 -40 -76 -153 -91 -184 -24 -15 33 -14 76 5 192 35 221
104 423 170 501 39 45 58 47 121 9z m1653 -207 c72 -43 304 -168 363 -196 37
-17 37 -18 37 -76 0 -32 -7 -80 -16 -106 -20 -60 -72 -143 -89 -143 -8 0 -47
15 -88 34 l-74 34 -5 53 c-6 74 -34 126 -150 276 -54 70 -96 134 -93 141 3 8
5 23 5 34 0 19 1 20 23 4 12 -9 51 -33 87 -55z m-2744 23 c106 -27 152 -34
191 -31 71 7 117 -21 121 -75 3 -31 -2 -40 -30 -61 -68 -52 -144 -44 -291 32
-42 21 -92 44 -112 51 -29 10 -35 16 -35 40 0 20 -9 36 -32 54 l-33 26 41 0
c23 0 104 -16 180 -36z m-710 -104 c21 0 17 -14 -12 -41 -15 -13 -44 -61 -65
-106 -22 -46 -43 -83 -49 -83 -17 0 -58 72 -69 120 -18 79 -14 115 14 130 14
7 34 29 46 48 l20 35 50 -52 c28 -28 57 -51 65 -51z m502 88 c16 -16 15 -63
-2 -96 -7 -15 -26 -80 -41 -145 -49 -214 -93 -328 -141 -366 -46 -36 -124 -22
-124 22 0 76 85 318 156 445 39 70 109 152 128 152 7 0 17 -5 24 -12z m3468
-275 c43 -20 146 -64 229 -98 l150 -61 8 -44 c10 -58 0 -134 -22 -161 -16 -21
-20 -21 -111 -9 -133 16 -430 89 -430 105 0 2 11 20 25 40 39 58 65 140 65
205 0 33 2 60 4 60 2 0 39 -17 82 -37z m554 -208 c130 -35 274 -54 400 -56
l105 0 -43 -20 c-122 -54 -358 -98 -524 -99 l-97 0 16 46 c11 31 14 65 10 106
-5 58 -4 60 16 54 12 -4 65 -18 117 -31z m-916 -119 c149 -106 266 -238 325
-367 51 -109 51 -112 -12 -147 -30 -17 -64 -43 -76 -58 -43 -55 -105 -31 -259
99 -130 110 -207 199 -252 291 -21 45 -41 93 -44 109 -6 26 -5 27 32 27 54 0
122 25 163 60 19 16 40 29 48 30 7 0 41 -20 75 -44z m-1972 -1 c22 -29 1 -199
-37 -308 -22 -62 -85 -189 -104 -209 -4 -4 -33 -2 -64 4 l-57 12 0 41 c1 99
53 280 120 415 l28 55 53 0 c30 0 57 -4 61 -10z m-1384 -80 c1 -1 -12 -32 -28
-69 -17 -37 -46 -126 -66 -199 -37 -139 -56 -176 -82 -155 -39 33 39 348 105
420 13 15 53 17 71 3z m-194 -475 c-11 -9 -46 -25 -79 -34 -33 -9 -90 -30
-127 -46 -39 -16 -70 -24 -74 -19 -11 19 70 87 111 94 22 3 69 12 105 19 75
14 90 11 64 -14z m1356 -16 c0 -34 -63 -146 -109 -193 -48 -49 -115 -79 -148
-67 -21 9 -8 23 67 71 68 43 107 90 143 168 17 37 47 51 47 21z m2655 -81 c17
-7 43 -22 58 -35 25 -20 42 -24 147 -28 105 -4 122 -8 141 -26 11 -12 19 -29
17 -37 -3 -15 -8 -14 -45 3 -24 10 -87 23 -150 29 -59 6 -136 20 -170 32 -58
19 -183 91 -183 105 0 4 7 12 17 19 13 10 27 6 77 -19 34 -17 75 -37 91 -43z"/>
<path d="M3061 3504 c-64 -32 -109 -90 -150 -194 -83 -208 -101 -473 -41 -591
39 -76 115 -113 189 -91 184 56 329 593 219 811 -17 34 -35 52 -68 69 -57 29
-84 28 -149 -4z m149 -40 c43 -37 61 -86 67 -185 13 -211 -74 -494 -180 -585
-33 -28 -49 -34 -85 -34 -36 0 -50 6 -77 33 -38 38 -53 83 -62 187 -10 126 33
355 87 460 67 130 177 185 250 124z"/>
</g>
</svg>
