<?xml version="1.0" standalone="no"?>
<!DOCTYPE svg PUBLIC "-//W3C//DTD SVG 20010904//EN"
 "http://www.w3.org/TR/2001/REC-SVG-20010904/DTD/svg10.dtd">
<svg version="1.0" xmlns="http://www.w3.org/2000/svg"
 width="1024.000000pt" height="559.000000pt" viewBox="0 0 1024.000000 559.000000"
 preserveAspectRatio="xMidYMid meet">
<metadata>
Created by potrace 1.16, written by Peter Selinger 2001-2019
</metadata>
<g transform="translate(0.000000,559.000000) scale(0.100000,-0.100000)"
fill="#000000" stroke="none">
<path d="M4765 4719 c-290 -19 -554 -63 -730 -121 -109 -36 -162 -65 -204
-114 -31 -34 -32 -40 -27 -93 3 -31 17 -157 31 -281 13 -124 43 -396 65 -605
22 -209 51 -477 65 -595 13 -118 42 -381 65 -585 22 -203 47 -426 55 -495 8
-69 28 -250 45 -403 18 -164 36 -290 45 -306 51 -99 257 -186 550 -232 298
-47 748 -32 975 32 200 56 303 108 356 177 28 36 32 51 43 153 7 63 28 254 47
424 19 171 39 353 44 405 6 52 26 235 45 405 19 171 52 479 75 685 22 206 47
434 55 505 34 304 65 606 71 690 6 88 6 91 -21 123 -142 169 -923 278 -1650
231z m579 -39 c524 -23 927 -108 1031 -219 28 -30 29 -33 14 -59 -91 -163
-889 -278 -1605 -232 -527 35 -934 146 -934 256 0 113 487 232 1035 253 110 4
207 9 215 9 8 1 118 -3 244 -8z m-1339 -422 c395 -144 1220 -186 1850 -92 158
23 358 76 449 118 44 20 80 35 81 34 2 -3 -4 -65 -30 -293 -8 -71 -22 -200
-31 -285 -9 -85 -18 -156 -19 -158 -2 -2 -23 11 -47 27 -94 64 -302 116 -608
153 -234 28 -793 31 -1025 4 -304 -34 -551 -96 -647 -161 l-37 -25 -5 32 c-3
18 -12 98 -21 178 -8 80 -24 226 -35 325 -26 238 -28 220 18 192 20 -13 69
-35 107 -49z m1495 -518 c526 -38 879 -161 770 -270 -114 -114 -590 -194
-1145 -193 -556 1 -1024 78 -1140 187 -43 41 -44 60 -5 96 89 83 407 154 820
183 113 8 569 6 700 -3z m776 -458 c-9 -75 -28 -243 -41 -372 -14 -129 -35
-316 -46 -415 -40 -360 -59 -525 -89 -810 -20 -181 -37 -298 -46 -312 -20 -32
-89 -76 -165 -106 -191 -76 -632 -121 -959 -98 -418 30 -666 99 -735 204 -15
23 -39 211 -94 732 -11 99 -42 385 -70 635 -28 250 -57 508 -64 573 -7 64 -12
117 -10 117 1 0 29 -14 62 -30 326 -166 1293 -214 1906 -94 159 31 330 92 351
126 16 25 16 -16 0 -150z m-221 -2014 c-3 -29 -8 -68 -11 -86 -20 -131 -310
-239 -729 -273 -294 -23 -673 19 -897 101 -87 32 -174 85 -196 120 -12 21 -37
168 -29 176 3 3 24 -8 48 -24 79 -52 205 -90 414 -123 157 -26 544 -36 750
-20 296 22 533 83 625 160 14 11 26 20 28 21 1 0 0 -24 -3 -52z"/>
<path d="M4985 4623 c-733 -21 -1204 -144 -996 -262 263 -147 1303 -196 1946
-91 262 42 402 110 362 175 -33 52 -230 110 -477 139 -229 27 -616 46 -835 39z
m725 -47 c450 -53 660 -130 533 -194 -163 -83 -624 -142 -1113 -142 -523 0
-1050 71 -1147 154 -27 24 -28 24 -9 45 48 53 308 113 611 140 66 7 138 13
160 15 108 10 848 -4 965 -18z"/>
<path d="M3971 4110 c-1 -59 29 -339 40 -365 6 -16 8 -14 8 13 1 46 -28 315
-38 360 l-9 37 -1 -45z"/>
<path d="M4720 3670 c-136 -10 -294 -34 -395 -60 -90 -23 -187 -68 -193 -89
-3 -10 4 -8 25 7 41 29 130 57 258 81 122 22 363 50 452 52 32 1 72 5 88 9 39
10 -93 10 -235 0z"/>
<path d="M5575 3622 c-64 -24 -83 -26 -225 -26 -85 -1 -170 2 -187 6 -19 4
-33 3 -33 -2 0 -16 91 -25 240 -24 131 1 152 3 216 27 l71 27 69 -24 c38 -12
94 -26 124 -29 49 -5 51 -4 20 5 -19 5 -74 23 -123 39 -48 16 -91 29 -95 28
-4 -1 -38 -13 -77 -27z"/>
<path d="M4520 3454 c-54 -18 -91 -24 -133 -21 -31 2 -52 0 -45 -5 26 -16 141
-8 210 14 68 22 69 22 116 4 105 -41 193 -56 322 -55 l125 2 -110 8 c-143 11
-226 26 -299 55 -72 29 -90 29 -186 -2z"/>
<path d="M6000 3471 c-35 -21 -324 -81 -450 -94 -20 -2 -9 -4 27 -5 113 -3
439 67 458 98 8 12 -15 12 -35 1z"/>
<path d="M5525 3459 c-121 -13 -128 -16 -35 -17 47 0 103 5 125 13 48 15 29
16 -90 4z"/>
<path d="M6146 3193 c-12 -41 -116 -962 -116 -1032 0 -51 12 -8 26 91 35 249
108 948 100 956 -2 2 -7 -5 -10 -15z"/>
<path d="M4106 2945 c9 -165 74 -780 93 -875 20 -101 10 32 -34 453 -48 454
-69 603 -59 422z"/>
<path d="M4274 2250 c3 -19 8 -78 11 -130 7 -108 42 -360 51 -369 7 -7 -1 93
-21 259 -7 63 -17 144 -20 180 -4 36 -11 72 -16 80 -6 10 -8 4 -5 -20z"/>
<path d="M6008 1945 c-8 -14 -41 -315 -35 -321 8 -8 27 93 38 204 10 99 9 137
-3 117z"/>
<path d="M4940 1563 c-103 -4 -332 -32 -407 -49 -155 -36 -272 -93 -281 -137
-2 -9 11 -2 31 17 169 159 1110 199 1542 65 82 -25 112 -39 143 -69 33 -31 40
-17 8 15 -78 78 -309 134 -642 155 -151 9 -221 10 -394 3z"/>
<path d="M4915 1474 c-230 -24 -433 -68 -465 -101 -13 -14 -13 -14 5 -5 41 20
257 62 401 78 101 11 209 15 338 12 114 -2 177 0 160 5 -31 9 -373 18 -439 11z"/>
<path d="M5546 1435 c19 -10 184 -52 184 -48 0 11 -92 42 -140 47 -30 3 -50 3
-44 1z"/>
</g>
</svg>
