<?xml version="1.0" standalone="no"?>
<!DOCTYPE svg PUBLIC "-//W3C//DTD SVG 20010904//EN"
 "http://www.w3.org/TR/2001/REC-SVG-20010904/DTD/svg10.dtd">
<svg version="1.0" xmlns="http://www.w3.org/2000/svg"
 width="1408.000000pt" height="768.000000pt" viewBox="0 0 1408.000000 768.000000"
 preserveAspectRatio="xMidYMid meet">
<metadata>
Created by potrace 1.16, written by Peter Selinger 2001-2019
</metadata>
<g transform="translate(0.000000,768.000000) scale(0.100000,-0.100000)"
fill="#000000" stroke="none">
<path d="M4590 6923 c-51 -20 -59 -46 -86 -294 -16 -146 -15 -254 2 -331 6
-27 6 -27 -25 -15 -41 15 -60 -1 -43 -38 11 -25 6 -31 -13 -17 -6 4 -28 30
-48 59 -21 29 -80 88 -130 131 -154 133 -244 239 -305 357 -42 82 -94 109
-139 71 -27 -23 -28 -29 -31 -120 -6 -153 35 -321 123 -503 49 -101 119 -184
218 -260 l59 -45 -30 -32 c-17 -17 -52 -65 -78 -106 -26 -41 -71 -100 -100
-130 -28 -30 -59 -70 -69 -89 -18 -35 -18 -41 1 -217 8 -76 -6 -128 -82 -301
-81 -184 -203 -515 -210 -567 -12 -82 10 -135 121 -299 30 -45 80 -69 192 -93
175 -37 285 8 333 137 27 70 55 97 171 162 48 27 120 75 160 108 51 40 95 65
139 80 36 12 78 28 94 37 28 14 31 13 52 -11 12 -14 56 -82 98 -152 75 -124
151 -229 299 -414 96 -120 112 -154 142 -296 29 -143 48 -199 93 -290 49 -100
91 -159 170 -243 66 -71 70 -76 86 -155 10 -45 36 -140 57 -212 60 -197 80
-311 89 -495 8 -146 12 -176 41 -265 32 -98 32 -104 32 -280 0 -147 -4 -201
-22 -295 -27 -135 -29 -138 -95 -211 -61 -67 -159 -255 -154 -297 2 -20 13
-32 43 -46 75 -37 277 -31 358 11 46 23 68 90 65 190 l-3 83 57 52 c71 67 75
85 60 293 -13 175 -15 379 -3 409 5 14 13 0 30 -55 31 -104 49 -351 32 -451
-6 -40 -16 -108 -21 -150 -10 -88 -25 -125 -78 -189 -25 -31 -52 -85 -81 -163
-49 -132 -48 -152 11 -182 70 -36 250 -28 343 16 73 35 102 127 72 228 -20 66
-13 89 54 159 49 52 49 52 49 120 0 37 -7 109 -15 158 -8 50 -20 165 -27 256
-12 166 -12 167 15 275 24 99 27 131 31 344 4 203 18 387 42 572 l7 49 71 -6
c39 -3 152 -16 251 -28 218 -26 583 -30 705 -8 171 31 347 98 514 196 l45 26
61 -123 c105 -209 150 -289 231 -413 63 -97 85 -141 114 -230 53 -164 61 -217
46 -322 -19 -138 -58 -306 -105 -448 -24 -71 -51 -155 -60 -186 -13 -45 -31
-72 -82 -128 -50 -54 -75 -93 -109 -168 -25 -54 -45 -108 -45 -119 0 -54 133
-85 283 -66 102 13 129 27 165 88 20 33 22 48 18 103 -7 78 3 97 59 122 47 21
92 67 100 102 2 12 11 74 20 137 9 63 27 171 41 240 29 149 155 620 165 620 4
0 11 -10 15 -22 3 -13 28 -83 55 -156 l49 -132 0 -168 c0 -191 -13 -321 -39
-407 -10 -33 -22 -98 -25 -143 -9 -101 -16 -122 -68 -189 -36 -48 -96 -187
-113 -265 -18 -79 143 -123 298 -83 157 41 187 91 163 272 l-9 61 55 54 c77
77 84 105 64 285 -22 193 -6 442 49 778 34 203 33 208 -20 307 -151 276 -185
379 -185 560 0 147 13 210 101 503 38 127 77 265 86 308 26 119 35 70 36 -183
0 -186 -4 -237 -26 -375 -37 -221 -42 -312 -24 -412 22 -120 94 -263 132 -263
24 0 58 -107 80 -252 6 -39 31 -57 51 -36 15 16 40 95 54 173 6 33 10 115 8
182 -3 114 -2 121 13 102 9 -12 24 -20 35 -17 17 3 19 12 17 83 -2 88 -33 210
-84 329 -79 184 -81 196 -90 576 -8 366 -17 445 -69 600 -47 141 -105 236
-225 373 -107 123 -205 198 -349 267 -223 106 -340 135 -556 134 -157 0 -222
-10 -546 -85 -584 -134 -880 -139 -1439 -25 -93 19 -210 38 -260 41 -107 8
-124 17 -242 134 -72 71 -79 81 -57 81 28 0 42 24 25 44 -6 7 -39 21 -72 31
-58 16 -60 17 -40 31 12 8 21 19 21 25 0 10 -51 35 -91 43 -21 5 -25 10 -22
29 4 20 -3 29 -34 47 -21 13 -60 40 -88 61 -27 21 -63 41 -78 44 -24 6 -25 9
-12 19 10 7 14 18 9 30 -6 16 -16 18 -74 14 l-68 -4 24 29 c13 16 24 33 24 38
0 17 -32 22 -81 13 l-48 -10 14 26 c16 31 11 42 -35 65 -19 10 -63 37 -98 61
-63 43 -80 46 -113 17 -14 -12 -17 -8 -22 38 -10 85 -45 101 -68 32 -14 -42
-23 -31 -33 39 -8 51 -36 95 -54 84 -6 -4 -16 -25 -23 -48 l-11 -41 -19 42
c-14 32 -29 46 -61 61 -24 11 -53 20 -64 20 -37 0 -48 29 -75 200 -39 255
-160 478 -266 495 -16 2 -35 2 -43 -2z m80 -80 c74 -69 148 -250 171 -418 17
-131 7 -281 -26 -390 -39 -128 -42 -145 -18 -145 15 0 26 22 56 113 20 61 38
123 40 137 2 18 10 4 27 -50 24 -76 32 -186 20 -289 -3 -29 -1 -45 7 -48 19
-7 45 57 51 124 2 35 6 63 7 63 19 0 199 -117 313 -203 275 -208 337 -254 493
-364 276 -196 379 -247 582 -288 36 -7 59 -60 88 -198 25 -116 30 -333 15
-544 -6 -82 -5 -123 1 -123 21 0 53 235 53 387 0 116 -27 304 -55 390 -14 40
-25 76 -25 79 0 9 104 -7 290 -46 487 -102 808 -100 1295 6 514 112 488 108
660 108 131 0 176 -4 246 -21 236 -59 459 -185 586 -331 132 -152 201 -264
241 -394 49 -158 55 -209 62 -568 8 -382 8 -385 82 -564 39 -97 88 -248 88
-270 -1 -6 -8 3 -17 19 -23 44 -44 65 -65 65 -10 0 -18 -2 -18 -3 0 -2 9 -46
20 -98 14 -69 20 -131 19 -234 0 -147 -9 -205 -23 -150 -4 16 -27 79 -51 140
-49 125 -64 196 -71 323 -2 47 -7 88 -10 91 -11 11 -32 -31 -39 -77 -3 -26 -1
-78 4 -117 14 -95 13 -109 -6 -55 -26 76 -21 276 11 455 24 130 27 176 27 350
0 202 -10 330 -36 440 -7 33 -16 110 -19 170 -8 164 -46 285 -89 285 -22 0
-21 -20 9 -120 25 -85 30 -305 10 -415 -25 -130 -60 -266 -123 -470 -76 -246
-93 -333 -93 -486 0 -177 18 -240 137 -477 l97 -193 -27 -182 c-42 -280 -48
-338 -54 -534 -4 -123 -2 -217 7 -286 15 -128 8 -158 -54 -210 -55 -45 -71
-89 -62 -169 l6 -60 -33 22 c-56 37 -120 63 -169 68 -27 2 -48 6 -48 9 0 2 13
21 29 41 37 48 50 90 56 186 3 44 14 109 25 145 29 97 40 214 40 411 0 159 -3
181 -24 240 -13 36 -44 121 -68 190 -48 135 -60 156 -155 298 -35 51 -91 148
-124 215 -34 67 -85 154 -114 192 -71 96 -95 134 -157 252 -29 56 -71 123 -92
149 -45 53 -100 82 -122 63 -19 -16 -18 -22 10 -39 25 -15 25 -15 -81 -95
-307 -233 -492 -321 -764 -361 -143 -21 -412 -15 -669 15 -96 12 -195 21 -220
21 -79 0 -79 2 -32 147 22 70 44 145 47 166 7 42 4 42 69 22 120 -36 568 -72
781 -62 221 11 365 41 598 126 161 59 195 75 178 85 -6 4 -87 -17 -179 -48
-217 -72 -301 -93 -447 -112 -203 -27 -670 -6 -908 41 -74 15 -88 21 -91 39
-30 163 -94 376 -112 376 -20 0 -18 -22 22 -181 51 -202 50 -243 -14 -439 -27
-85 -55 -186 -61 -225 -25 -169 -44 -416 -46 -615 -2 -198 -4 -224 -30 -325
l-28 -110 11 -175 c7 -96 19 -213 27 -260 8 -47 15 -111 15 -142 0 -56 -2 -59
-49 -107 -67 -67 -81 -115 -57 -183 10 -27 16 -52 14 -54 -2 -2 -22 8 -43 23
-49 33 -116 59 -178 68 l-49 7 30 32 c47 49 71 109 82 198 5 46 15 121 22 167
9 65 9 117 0 235 -11 153 -21 194 -77 341 -25 63 -28 89 -36 260 -5 105 -15
226 -23 270 -39 214 -109 515 -129 555 -41 83 -62 55 -32 -44 8 -27 15 -53 15
-58 0 -16 -197 92 -244 133 -25 22 -70 78 -101 124 -64 98 -81 113 -71 65 7
-40 37 -92 99 -176 51 -69 148 -140 255 -185 37 -15 70 -34 74 -41 3 -7 25
-114 49 -238 37 -195 43 -250 49 -415 3 -104 3 -208 -1 -230 -18 -90 -22 -300
-9 -473 16 -221 13 -239 -44 -279 -58 -41 -83 -103 -68 -165 6 -23 9 -44 7
-46 -2 -2 -30 12 -62 32 -50 31 -78 42 -172 72 -10 3 -1 19 31 52 61 63 71 87
98 227 18 95 23 157 24 300 l1 180 -37 120 c-33 109 -37 134 -42 270 -6 172
-22 259 -95 507 -27 95 -55 200 -62 233 -10 54 -18 67 -84 135 -81 84 -117
135 -165 229 -46 93 -58 131 -85 267 -13 67 -35 146 -49 175 -14 30 -76 117
-137 194 -128 162 -217 287 -283 399 -26 44 -60 96 -76 115 l-28 36 47 47 c95
94 145 225 145 383 1 116 -8 158 -31 153 -13 -2 -16 -21 -18 -118 -6 -271
-119 -429 -354 -495 -32 -9 -73 -30 -92 -47 -84 -73 -119 -99 -184 -137 -38
-23 -72 -41 -75 -41 -3 0 -6 23 -7 50 -4 70 -24 104 -89 147 -47 31 -61 48
-90 109 -58 122 -151 184 -276 184 -26 0 -48 4 -48 10 0 5 25 67 55 137 86
202 98 270 71 386 -19 78 -7 117 58 186 29 31 80 97 114 146 77 115 112 153
191 204 73 47 81 49 81 22 0 -30 17 -34 48 -14 15 10 44 26 65 36 66 30 39 58
-32 34 -40 -14 -42 -14 -52 7 -6 11 -27 36 -47 54 l-37 33 63 -6 c50 -6 62 -4
62 7 0 8 -5 19 -12 26 -17 17 -2 15 26 -3 32 -21 51 0 36 39 -13 36 -13 39 6
28 21 -12 78 -153 98 -244 4 -16 13 -28 21 -28 31 0 18 93 -35 249 -42 125
-50 162 -51 227 -2 94 29 401 42 427 14 25 44 21 79 -10z m-768 -123 c64 -127
106 -235 134 -342 35 -134 49 -164 128 -281 36 -55 66 -105 66 -112 0 -30 -23
-25 -76 15 -153 118 -241 267 -299 499 -29 121 -38 197 -29 256 9 66 31 56 76
-35z m299 -335 c113 -102 169 -169 169 -202 0 -4 -17 -9 -38 -10 -106 -4 -121
-45 -32 -85 33 -14 60 -33 60 -40 0 -8 -17 -20 -37 -27 -21 -8 -44 -16 -50
-18 -7 -3 -13 1 -13 9 0 8 -27 56 -59 106 -65 102 -96 173 -135 308 -14 50
-28 99 -31 110 -5 14 -1 11 14 -8 12 -15 80 -79 152 -143z m839 -231 c8 -8 22
-45 30 -82 20 -86 39 -92 74 -25 l25 48 1 -58 c0 -97 32 -126 70 -64 l21 32
-7 -50 c-5 -41 -3 -54 11 -65 16 -13 22 -10 59 33 22 26 44 47 49 47 4 0 33
-17 65 -39 31 -21 65 -42 74 -47 16 -9 15 -14 -12 -54 -51 -77 -40 -100 31
-65 56 29 78 32 54 9 -61 -62 -54 -96 18 -77 23 7 51 15 62 18 15 5 13 1 -7
-15 -54 -42 -31 -68 43 -50 62 15 86 9 139 -35 23 -19 49 -39 58 -44 15 -8 13
-12 -11 -31 -47 -37 -32 -54 48 -60 l70 -5 -32 -18 c-63 -34 -37 -67 54 -67
45 0 65 -14 32 -23 -24 -6 -23 -36 1 -47 73 -34 98 -51 129 -89 l35 -43 -39
16 c-110 46 -328 193 -730 494 -231 173 -328 236 -405 266 l-46 17 -23 92
c-13 51 -26 97 -28 104 -6 16 66 -3 87 -23z m-1053 -1326 c53 -24 84 -61 129
-150 28 -55 44 -75 88 -104 61 -40 86 -86 86 -155 0 -32 -6 -45 -29 -65 -16
-13 -41 -54 -57 -91 -15 -38 -32 -74 -38 -81 -17 -24 -84 -52 -122 -52 l-37 0
26 20 c33 26 169 208 171 228 2 28 -24 24 -57 -10 -17 -19 -58 -67 -90 -107
-74 -92 -125 -119 -195 -101 -61 15 -81 31 -119 93 -70 114 -77 130 -77 192
-1 59 5 79 94 310 11 28 24 62 30 78 10 27 10 27 82 21 40 -3 92 -15 115 -26z
m4725 -1583 c53 -105 88 -161 177 -285 29 -41 73 -117 97 -168 24 -51 77 -143
119 -205 54 -81 75 -122 75 -145 0 -17 -20 -100 -44 -184 -88 -303 -142 -541
-171 -753 -21 -151 -25 -162 -78 -184 -74 -32 -121 -111 -102 -170 3 -12 4
-21 1 -21 -3 0 -33 18 -68 39 -35 22 -84 46 -110 53 -27 6 -48 15 -48 18 0 3
16 22 36 41 45 43 70 92 89 171 8 35 25 90 39 123 29 73 79 260 100 375 34
198 31 259 -29 446 -27 88 -50 134 -111 229 -42 66 -108 179 -146 250 -39 72
-92 171 -119 220 -46 86 -47 91 -29 102 10 7 56 42 101 79 45 37 96 75 113 85
38 23 37 24 108 -116z m-79 -2092 c32 -14 78 -40 102 -57 42 -31 43 -32 27
-54 -30 -38 -198 -56 -285 -29 l-38 12 41 84 c46 95 42 93 153 44z m-2732 2
c67 -22 198 -89 198 -100 1 -6 -6 -20 -14 -32 -25 -36 -202 -56 -287 -33 l-37
11 41 84 c24 47 45 85 49 85 4 0 26 -7 50 -15z m3455 -133 c63 -22 154 -79
154 -97 0 -44 -137 -90 -249 -83 -98 5 -101 10 -67 113 l28 85 42 0 c22 -1 64
-9 92 -18z m-3004 -11 c74 -20 178 -78 178 -98 0 -57 -181 -101 -299 -73 -28
6 -51 13 -51 15 0 6 52 140 61 157 12 23 28 23 111 -1z"/>
<path d="M4633 6613 c-5 -16 -8 -84 -8 -153 l0 -125 45 -100 c39 -87 45 -109
46 -173 1 -40 4 -75 8 -79 14 -15 30 20 34 75 3 48 -1 71 -23 123 -69 162 -74
185 -75 327 0 128 -10 166 -27 105z"/>
<path d="M4432 5450 c-34 -21 -91 -104 -92 -132 0 -26 19 -32 40 -13 17 15 26
16 63 7 58 -15 110 0 137 38 11 16 30 30 43 32 14 2 22 10 22 23 0 15 -12 24
-50 36 -88 29 -127 31 -163 9z m104 -40 c26 -10 26 -11 9 -30 -24 -26 -47 -32
-79 -21 -27 11 -36 45 -13 54 21 9 54 7 83 -3z"/>
<path d="M4106 5120 c-31 -62 -53 -117 -50 -122 8 -13 23 10 79 120 33 66 44
97 36 105 -7 7 -27 -24 -65 -103z"/>
<path d="M8477 4683 c-12 -12 -8 -18 24 -32 56 -25 134 -116 188 -219 42 -81
50 -92 51 -67 0 43 -59 161 -111 219 -24 27 -64 62 -88 78 -48 30 -54 32 -64
21z"/>
<path d="M5913 4483 c-23 -49 -72 -144 -108 -214 -46 -88 -73 -155 -90 -224
-35 -139 -21 -155 21 -23 19 58 64 164 100 235 108 208 122 239 129 277 12 60
-8 41 -52 -51z"/>
<path d="M8737 3933 c-3 -5 -8 -30 -12 -58 -6 -41 -48 -172 -80 -247 -15 -36
25 -18 44 20 44 87 85 272 63 286 -6 3 -13 3 -15 -1z"/>
<path d="M6270 3330 c0 -5 16 -28 37 -50 54 -60 243 -148 243 -112 0 4 -40 26
-88 49 -52 24 -105 58 -129 82 -40 40 -63 51 -63 31z"/>
<path d="M9500 2603 c0 -16 14 -57 31 -93 18 -36 37 -83 44 -105 14 -47 29
-52 33 -12 2 17 -10 54 -31 95 -19 37 -40 84 -46 105 -15 43 -31 49 -31 10z"/>
<path d="M3896 4531 c-4 -5 -2 -21 3 -34 8 -21 5 -32 -20 -63 -39 -49 -40 -99
-3 -116 24 -11 29 -9 60 24 52 58 58 135 12 178 -23 21 -43 26 -52 11z"/>
<path d="M8978 2664 c-8 -7 10 -65 51 -166 19 -47 31 -94 31 -122 0 -46 12
-61 24 -30 15 40 4 98 -38 193 -54 121 -60 133 -68 125z"/>
<path d="M8982 2013 c-39 -99 -96 -363 -82 -377 5 -5 11 -8 13 -5 5 5 97 385
97 399 0 20 -18 9 -28 -17z"/>
</g>
</svg>
