<?xml version="1.0" standalone="no"?>
<!DOCTYPE svg PUBLIC "-//W3C//DTD SVG 20010904//EN"
 "http://www.w3.org/TR/2001/REC-SVG-20010904/DTD/svg10.dtd">
<svg version="1.0" xmlns="http://www.w3.org/2000/svg"
 width="1024.000000pt" height="559.000000pt" viewBox="0 0 1024.000000 559.000000"
 preserveAspectRatio="xMidYMid meet">
<metadata>
Created by potrace 1.16, written by Peter Selinger 2001-2019
</metadata>
<g transform="translate(0.000000,559.000000) scale(0.100000,-0.100000)"
fill="#000000" stroke="none">
<path d="M4535 4764 c-38 -8 -92 -19 -120 -24 -27 -5 -87 -16 -132 -25 -46 -8
-118 -22 -160 -29 -43 -8 -235 -45 -428 -81 -192 -36 -386 -72 -430 -80 -44
-8 -177 -33 -295 -55 -118 -23 -237 -45 -265 -50 -50 -9 -379 -71 -900 -170
-148 -28 -271 -52 -272 -54 -9 -8 -13 -1232 -7 -1813 l7 -681 66 -16 c36 -8
298 -67 581 -131 283 -64 621 -141 750 -171 495 -114 570 -131 577 -124 4 4
93 51 197 104 104 53 195 101 202 107 21 17 18 96 -3 103 -10 3 -148 34 -308
70 -451 100 -495 110 -495 116 0 11 1134 520 1580 709 l275 116 145 -22 c80
-12 240 -36 355 -52 l210 -30 85 51 c121 73 391 252 418 277 21 20 22 30 22
153 l0 130 33 -6 c17 -3 94 -13 170 -21 l138 -16 45 25 44 25 0 -204 c0 -112
2 -210 5 -217 4 -9 -42 -52 -130 -121 -120 -95 -135 -110 -135 -137 0 -38 15
-44 135 -60 91 -12 421 -65 463 -75 17 -4 22 -12 22 -38 0 -29 -12 -43 -102
-122 -55 -50 -107 -96 -115 -103 -11 -11 -13 0 -13 66 0 95 -12 111 -91 119
-46 4 -59 1 -89 -19 l-35 -24 -5 -176 -5 -176 -48 -42 c-60 -53 -343 -285
-379 -312 l-28 -19 -1 35 c-1 20 -3 45 -4 56 -1 11 -3 29 -4 41 -3 51 -155 66
-193 19 -16 -19 -18 -42 -18 -174 l0 -153 -46 -33 -46 -32 -261 46 c-270 49
-417 77 -667 126 l-145 29 -255 -123 c-144 -69 -255 -128 -255 -136 0 -14 111
-38 680 -146 283 -54 985 -184 1215 -225 63 -11 165 -29 225 -40 61 -11 166
-29 235 -41 l126 -21 540 464 c881 756 1295 1112 1390 1196 l89 79 7 320 c3
175 12 562 19 859 8 297 14 630 14 740 l0 200 -165 11 c-91 7 -286 19 -435 28
-561 34 -783 48 -1475 91 -217 14 -586 36 -820 50 -553 33 -709 42 -974 60
-251 17 -221 17 -311 -1z m156 -179 c38 -87 69 -163 69 -167 0 -5 -64 42 -142
104 -221 173 -229 180 -224 186 9 8 178 40 205 39 21 -2 32 -21 92 -162z m92
159 l37 -7 -52 -56 c-61 -64 -64 -66 -71 -49 -3 7 -14 37 -26 66 l-21 52 48 0
c26 0 64 -3 85 -6z m309 -23 c4 -3 -49 -69 -118 -146 -70 -77 -133 -150 -141
-162 -9 -13 -19 -23 -23 -23 -4 0 -26 45 -50 100 l-43 101 64 67 c35 37 68 70
73 73 10 8 228 -1 238 -10z m236 -11 c31 0 43 -4 39 -12 -2 -7 -98 -141 -212
-298 -114 -157 -211 -292 -215 -300 -11 -19 -12 -17 -37 50 -12 30 -36 89 -54
132 l-32 76 68 79 c37 43 109 124 159 181 l91 103 74 -6 c41 -3 94 -5 119 -5z
m-903 -67 c40 -32 138 -109 218 -172 l146 -114 55 -131 c31 -71 54 -131 52
-134 -2 -2 -42 26 -87 61 -46 35 -204 152 -351 260 -341 249 -336 245 -318
251 25 7 163 33 189 35 15 0 50 -20 96 -56z m1283 42 c2 -2 -101 -152 -229
-335 -230 -327 -233 -331 -263 -326 -17 3 -67 8 -111 11 -44 3 -99 8 -123 11
l-43 5 17 27 c14 23 365 509 428 595 l21 28 150 -6 c82 -4 151 -8 153 -10z
m219 -13 l51 -7 -124 -175 c-158 -222 -202 -280 -213 -280 -6 0 -81 -34 -167
-75 -87 -41 -159 -74 -161 -72 -2 2 36 60 85 128 48 68 145 206 215 307 l128
182 67 -1 c37 -1 90 -4 119 -7z m229 -12 c30 0 54 -4 54 -10 0 -5 -38 -65 -84
-133 -83 -121 -86 -124 -153 -155 -237 -108 -253 -114 -253 -107 0 3 66 98
147 211 l147 206 44 -6 c25 -3 69 -6 98 -6z m-1971 -78 c50 -37 167 -123 260
-191 269 -196 454 -335 455 -343 0 -6 -126 -48 -190 -63 -21 -4 -58 18 -211
127 -102 73 -296 212 -432 308 -135 96 -244 177 -241 180 7 6 211 47 244 49
16 0 56 -23 115 -67z m2250 60 l50 -7 -130 -69 c-71 -38 -159 -85 -195 -104
l-65 -36 19 30 c11 16 44 66 75 111 l56 82 70 0 c39 0 93 -4 120 -7z m136 -87
l34 -60 -30 19 c-86 56 -105 69 -105 77 0 12 54 39 61 31 4 -4 22 -34 40 -67z
m322 56 c4 -4 -16 -39 -45 -78 -29 -38 -69 -93 -88 -121 -19 -29 -38 -52 -42
-52 -4 0 -30 42 -59 93 -28 50 -63 112 -77 135 l-25 44 164 -7 c90 -4 167 -10
172 -14z m306 -17 c2 -2 -22 -38 -52 -81 -31 -43 -107 -151 -169 -240 -62 -90
-115 -163 -118 -163 -3 0 -12 12 -21 28 -8 15 -37 64 -63 108 l-47 81 103 142
103 141 130 -6 c71 -4 132 -8 134 -10z m-3248 -121 c90 -65 285 -203 432 -308
147 -104 267 -192 267 -195 0 -7 -258 -90 -280 -90 -7 0 -110 73 -229 162
-119 89 -313 231 -431 316 -118 84 -221 159 -228 167 -12 10 8 17 115 38 70
14 142 25 159 26 23 1 66 -25 195 -116z m3446 109 l52 -7 -38 -50 c-54 -71
-360 -509 -400 -573 -19 -29 -37 -50 -41 -45 -4 4 -27 45 -51 90 l-43 81 28
44 c16 23 96 139 178 256 l150 212 57 -1 c31 -1 79 -4 108 -7z m-769 -135 c12
-14 112 -188 112 -194 0 -6 -363 241 -394 268 -4 4 13 18 39 32 l48 24 93 -59
c51 -33 97 -65 102 -71z m1071 117 c2 -1 -37 -60 -85 -131 -49 -70 -105 -151
-124 -179 -248 -359 -274 -394 -289 -390 -9 3 -58 8 -109 11 -77 6 -92 10 -88
22 9 23 212 315 402 579 l73 101 108 -5 c59 -2 110 -6 112 -8z m269 -19 c4 -3
-244 -351 -401 -564 l-99 -134 -106 7 c-58 4 -108 9 -110 11 -3 2 9 21 25 42
16 21 126 177 243 347 l213 309 116 -8 c64 -4 117 -8 119 -10z m249 -13 l42
-7 -139 -195 -139 -195 -173 -95 c-95 -53 -194 -108 -220 -123 -27 -15 -48
-24 -48 -20 0 3 37 56 82 117 45 61 149 204 231 319 l149 207 86 -1 c48 0 106
-4 129 -7z m-4751 -30 c21 -16 111 -80 199 -142 88 -63 275 -199 415 -304
l255 -189 -117 -39 -116 -39 -309 204 c-169 112 -397 265 -505 339 l-198 136
123 22 c67 11 138 25 157 30 53 12 53 12 96 -18z m5037 12 c75 -3 137 -10 137
-13 0 -4 -17 -15 -37 -25 -21 -10 -146 -77 -278 -150 -132 -73 -251 -139 -265
-146 l-24 -13 18 29 c11 16 69 98 130 182 l111 153 35 -5 c19 -3 97 -8 173
-12z m-1969 -154 c120 -82 222 -150 227 -150 8 0 82 -120 77 -125 -2 -2 -70
39 -153 91 -82 52 -221 138 -308 191 l-158 97 43 23 c24 12 45 22 48 23 3 0
104 -67 224 -150z m2156 -236 c-21 -747 -30 -1187 -30 -1440 l0 -260 -87 -75
c-49 -42 -144 -125 -213 -184 -169 -147 -518 -446 -603 -519 l-70 -60 6 465
c4 255 10 746 14 1091 l6 627 121 87 c367 266 634 463 760 559 54 42 100 74
102 72 3 -2 0 -166 -6 -363z m-5343 138 c160 -109 386 -261 502 -337 117 -76
209 -140 206 -144 -4 -3 -72 -27 -151 -52 l-144 -47 -525 350 c-289 192 -525
352 -525 356 0 5 57 18 128 31 70 13 141 27 157 31 17 5 37 9 46 9 9 1 147
-88 306 -197z m3094 37 c134 -84 286 -178 338 -210 80 -50 99 -66 122 -109 15
-28 25 -50 21 -48 -4 2 -95 55 -202 119 -107 64 -287 171 -399 237 l-204 120
34 21 c19 12 37 21 40 21 3 0 115 -68 250 -151z m2104 112 c-6 -6 -88 -67
-182 -138 -149 -111 -189 -135 -290 -177 -65 -27 -183 -78 -263 -114 -80 -35
-155 -68 -167 -73 -46 -17 -21 0 65 47 48 26 208 115 357 197 148 82 303 168
345 190 41 22 89 49 105 59 33 20 44 23 30 9z m-2197 -167 c559 -330 588 -349
559 -352 -21 -3 -67 20 -175 84 -157 93 -211 125 -474 278 l-167 98 -88 -40
c-48 -22 -158 -70 -243 -108 -85 -37 -211 -93 -279 -126 -68 -32 -136 -58
-150 -58 l-26 0 30 18 c44 26 265 130 470 222 99 44 200 91 225 104 25 13 51
25 58 25 6 1 123 -65 260 -145z m-3154 -214 c289 -193 526 -352 526 -355 0 -2
-60 -22 -132 -45 -73 -22 -149 -47 -169 -55 l-37 -14 -303 211 c-167 115 -416
285 -554 376 l-250 167 50 8 c28 5 102 19 165 32 63 13 129 23 146 24 26 1
132 -65 558 -349z m2884 121 l-3 -59 -48 89 -47 88 47 25 48 24 3 -54 c2 -29
2 -80 0 -113z m-3480 -82 c364 -245 712 -485 732 -505 8 -8 -25 -22 -116 -51
l-126 -41 -251 165 c-577 379 -906 598 -907 604 0 4 69 20 153 37 83 16 153
30 155 31 2 0 164 -107 360 -240z m3533 231 c17 -10 19 -22 19 -146 0 -120 -2
-135 -16 -130 -9 3 -20 6 -25 6 -5 0 -9 62 -9 140 0 77 3 140 6 140 3 0 14 -5
25 -10z m123 -73 c19 -14 18 -17 -25 -86 -24 -39 -48 -71 -52 -71 -7 0 -4 177
2 198 1 4 53 -24 75 -41z m-234 -85 c48 -92 55 -112 40 -112 -23 0 -29 8 -89
122 -37 68 -48 98 -39 101 7 3 17 4 21 3 5 -1 35 -52 67 -114z m-3727 -175
c227 -151 490 -324 585 -387 95 -62 170 -115 167 -118 -7 -7 -212 -73 -245
-79 -20 -4 -62 19 -180 96 -85 55 -245 158 -355 229 -713 461 -717 463 -694
471 12 4 278 57 302 60 5 1 194 -122 420 -272z m3707 77 c0 -7 -154 2 -340 20
l-125 12 65 29 c36 17 117 53 180 81 l115 51 53 -93 c28 -52 52 -97 52 -100z
m319 147 c19 -12 -92 -171 -121 -171 -20 0 -20 0 -1 29 109 168 99 156 122
142z m226 -133 c69 -40 123 -73 121 -75 -4 -4 -387 27 -404 33 -9 2 4 29 38
79 l51 76 36 -21 c19 -11 90 -53 158 -92z m-4941 51 l43 -30 6 -1191 c4 -655
6 -1192 4 -1193 -1 -1 -25 4 -53 12 l-51 15 -6 810 c-4 445 -5 813 -2 818 2 4
5 184 6 399 1 215 4 391 6 391 3 0 24 -14 47 -31z m6471 -48 c-32 -28 -155
-110 -180 -118 -16 -6 -165 -67 -329 -137 -165 -69 -301 -125 -302 -123 -1 1
35 26 81 54 46 29 209 106 362 173 153 66 296 129 318 140 43 20 65 26 50 11z
m-6215 -120 c63 -40 158 -102 210 -136 52 -34 223 -144 380 -245 157 -101 293
-190 303 -198 13 -11 17 -30 17 -74 l0 -60 -32 7 c-18 3 -45 8 -60 11 -26 5
-28 9 -28 54 0 37 -4 52 -17 58 -18 9 -89 24 -268 56 -49 9 -224 41 -387 71
-163 30 -300 55 -303 55 -3 0 -5 117 -5 261 l0 261 38 -23 c20 -13 89 -57 152
-98z m3900 90 c862 -71 959 -81 1003 -103 20 -10 37 -21 37 -24 0 -6 -109 0
-285 16 -55 6 -158 14 -230 20 -71 5 -211 16 -310 25 -181 15 -541 44 -560 45
-5 1 10 12 35 24 25 13 47 23 50 21 3 -2 120 -13 260 -24z m-840 -60 c0 -45
-2 -49 -27 -55 -30 -7 -559 -179 -1083 -351 -690 -227 -996 -328 -1008 -333
-10 -3 -12 10 -10 59 l3 63 40 12 c22 7 292 92 600 189 556 175 644 203 793
249 42 13 212 67 377 120 165 52 303 95 308 95 4 1 7 -21 7 -48z m435 19 c204
-16 426 -34 495 -40 69 -6 181 -15 250 -20 69 -6 177 -15 240 -20 117 -10 393
-33 600 -50 63 -5 192 -15 285 -21 94 -6 176 -15 183 -18 8 -5 -12 -23 -54
-50 l-67 -42 -131 11 c-336 27 -940 78 -1246 105 -96 8 -256 22 -355 30 -99 8
-227 20 -285 25 -58 5 -139 12 -180 15 -41 3 -92 8 -112 11 -37 6 -38 7 -38
50 0 39 3 44 23 44 12 0 189 -13 392 -30z m-364 -392 c0 -167 3 -428 5 -580
l5 -277 -24 -6 c-13 -4 -43 -5 -68 -3 l-44 3 -3 125 c-2 69 0 328 3 577 8 505
0 460 83 462 l42 1 1 -302z m214 282 c72 -6 162 -13 200 -16 39 -3 78 -8 88
-10 16 -5 17 -30 17 -342 0 -185 -3 -354 -6 -375 -6 -35 -8 -37 -38 -33 -45 7
-172 24 -316 41 -68 9 -125 17 -126 18 -1 1 -5 168 -9 370 l-7 368 33 -5 c19
-3 93 -10 164 -16z m2610 -5 c-11 -8 -41 -32 -67 -52 -27 -21 -122 -68 -235
-116 -480 -202 -587 -247 -590 -243 -4 4 203 136 213 136 6 0 276 113 599 251
100 42 109 45 80 24z m-2968 -237 c-4 -128 -7 -284 -7 -347 l0 -114 -52 7
c-29 4 -72 9 -96 12 l-42 6 2 306 3 305 80 28 c131 45 119 66 112 -203z m819
199 c2 -2 4 -270 4 -597 1 -661 7 -611 -69 -612 -21 0 -48 5 -61 12 l-23 12 7
277 c3 152 9 422 12 600 l7 324 60 -7 c33 -3 62 -7 63 -9z m294 -23 c102 -8
235 -19 295 -24 61 -6 173 -14 250 -20 200 -15 185 -8 185 -85 0 -63 -1 -65
-22 -60 -36 8 -557 55 -614 55 l-52 0 -4 -315 c-2 -173 -6 -317 -10 -320 -6
-6 -277 23 -290 32 -5 2 -8 175 -8 384 l0 380 43 -5 c23 -4 125 -13 227 -22z
m-1338 -306 c-1 -161 -4 -298 -6 -303 -4 -12 -194 -91 -201 -84 -2 3 -5 142
-5 309 l-1 303 98 33 c54 18 103 33 108 33 7 1 9 -101 7 -291z m2211 232 c19
0 20 -4 13 -147 -7 -142 -8 -149 -31 -166 -16 -12 -25 -29 -25 -47 0 -24 5
-29 28 -32 l27 -3 3 -433 2 -432 -26 -10 c-36 -14 -87 -12 -108 3 -17 12 -17
43 -7 615 6 331 11 616 11 633 l0 32 46 -7 c26 -3 56 -6 67 -6z m854 -287 c-4
-164 -10 -650 -14 -1081 -3 -449 -10 -785 -15 -788 -5 -3 -50 -3 -99 1 l-89 7
7 853 6 854 -24 5 c-13 3 -49 7 -79 10 -242 23 -557 60 -563 66 -5 4 15 17 45
28 52 20 421 174 683 286 72 30 134 55 139 56 5 0 6 -121 3 -297z m-597 266
c85 -6 156 -12 158 -14 1 -1 -24 -18 -55 -37 -32 -19 -116 -71 -186 -116 -71
-45 -132 -82 -135 -82 -4 0 -6 61 -4 136 l3 136 32 -5 c18 -3 102 -11 187 -18z
m-2707 -336 c4 -186 7 -460 7 -610 0 -270 0 -272 -22 -287 -28 -20 -108 -21
-133 -2 -17 13 -18 30 -12 382 4 203 7 468 7 590 l0 220 63 21 c34 12 67 22
73 22 7 1 13 -103 17 -336z m-178 -49 l-7 -302 -67 -26 c-37 -14 -70 -26 -74
-26 -4 0 -7 77 -7 170 0 135 -3 172 -14 176 -14 5 -85 -18 -233 -75 l-83 -32
0 -180 c0 -153 -2 -181 -15 -186 -9 -3 -17 -4 -19 -2 -2 2 -5 148 -7 323 l-4
320 265 87 c226 75 266 85 269 71 2 -9 0 -152 -4 -318z m2025 311 c311 -31
455 -47 459 -50 2 -2 0 -207 -4 -455 -7 -408 -9 -451 -24 -448 -15 3 -16 42
-12 424 2 272 0 424 -7 428 -13 8 -388 46 -487 49 l-80 2 -5 -410 c-3 -225 -7
-411 -8 -411 -1 -1 -14 1 -28 4 l-27 5 7 135 c3 74 6 272 6 439 l0 303 28 0
c15 0 97 -7 182 -15z m-73 -75 c8 0 10 -94 6 -367 l-5 -368 -26 -22 c-15 -13
-31 -23 -36 -23 -8 0 -6 766 2 783 2 5 14 6 26 3 11 -3 26 -6 33 -6z m208 -19
l50 -6 -4 -225 c-1 -124 -4 -227 -6 -229 -2 -2 -51 3 -109 9 l-106 13 0 229 0
229 63 -7 c34 -4 84 -10 112 -13z m155 -242 l0 -230 -42 3 c-37 3 -43 6 -42
26 0 12 1 114 2 227 l2 205 40 0 40 0 0 -231z m108 24 l-4 -196 -30 -23 c-50
-41 -54 -35 -54 84 0 59 3 158 7 220 l6 112 40 0 40 0 -5 -197z m-4677 132
c134 -25 332 -61 439 -81 107 -20 205 -38 218 -41 22 -5 23 -10 20 -56 -3 -57
-5 -55 105 -77 l57 -11 -1 -157 c-1 -86 -4 -244 -8 -351 l-6 -194 -80 -33
c-44 -18 -86 -33 -92 -33 -10 -1 -13 50 -13 223 0 126 -4 227 -9 231 -5 3 -95
-23 -200 -57 l-191 -62 0 -411 0 -412 -72 -29 c-40 -16 -76 -30 -79 -32 -4 -2
-10 15 -14 37 -5 30 -3 45 8 56 8 8 13 23 11 33 -4 13 5 22 31 35 39 18 54 42
37 59 -7 7 -7 16 1 29 9 14 8 28 -3 61 -19 52 -36 59 -43 16 -3 -18 -8 -40
-12 -49 -3 -9 1 -23 9 -32 14 -14 13 -16 -13 -22 -17 -3 -40 -1 -52 5 -13 7
-45 10 -75 8 -30 -3 -54 -1 -54 4 0 4 -13 8 -30 8 -24 0 -31 -5 -36 -27 -6
-21 -2 -31 20 -49 23 -20 25 -26 14 -43 -10 -17 -9 -23 6 -40 16 -17 17 -30
12 -93 l-7 -73 -80 -34 c-44 -18 -82 -32 -84 -30 -2 3 -5 401 -7 887 -3 804
-2 882 13 882 9 0 126 -20 260 -45z m1699 -167 c0 -101 5 -392 11 -647 12
-534 18 -496 -81 -496 -32 0 -61 3 -65 7 -3 3 -3 293 2 644 l8 638 50 17 c28
10 56 18 63 19 9 0 12 -43 12 -182z m-152 -41 c4 -242 -7 -497 -22 -497 -10 0
-143 -50 -383 -144 -51 -20 -94 -36 -96 -36 -5 0 -16 347 -19 555 l-1 129 249
83 c137 45 254 82 259 83 6 0 11 -66 13 -173z m3555 66 c4 -2 7 -96 7 -208 0
-112 -3 -206 -7 -208 -5 -2 -46 1 -93 7 l-85 11 -3 209 -2 208 87 -7 c49 -4
91 -9 96 -12z m120 -13 l37 0 0 -348 0 -348 -67 2 -68 3 3 308 c2 169 6 328 9
351 5 39 8 43 27 38 11 -3 38 -6 59 -6z m-3150 -182 c9 -240 9 -418 -2 -418
-4 0 -10 119 -13 265 -3 156 -9 270 -15 276 -10 10 -194 -51 -222 -74 -11 -10
-13 -59 -10 -296 3 -223 1 -285 -9 -288 -10 -4 -12 58 -10 303 l3 308 125 48
c69 26 130 47 136 48 7 0 13 -58 17 -172z m3395 156 l42 -6 0 -215 0 -215 -32
6 c-18 3 -65 10 -105 15 -39 5 -76 12 -82 16 -7 4 -11 77 -11 212 l0 206 73
-7 c39 -4 91 -9 115 -12z m-4464 -236 c3 -112 8 -338 11 -503 3 -165 8 -399
11 -521 l6 -221 -44 -22 c-45 -21 -84 -26 -127 -14 l-24 6 8 376 c4 207 11
531 14 721 l6 344 55 17 c30 9 60 17 66 18 8 1 13 -61 18 -201z m1029 75 c10
-157 8 -423 -2 -423 -41 0 -41 2 -41 264 0 139 3 256 7 259 22 23 30 1 36
-100z m-63 -173 l0 -259 38 -11 c35 -9 48 -6 131 30 51 22 96 40 102 40 5 0 9
-56 9 -135 0 -132 0 -135 25 -151 42 -27 95 -28 145 -2 l45 23 0 179 0 179
113 48 c111 47 115 47 175 38 139 -21 127 -14 127 -68 0 -27 3 -69 6 -94 6
-40 11 -47 37 -56 42 -15 83 -14 117 4 29 15 30 18 30 90 0 71 1 75 23 75 24
0 424 -50 445 -56 8 -2 12 -31 12 -99 l0 -96 37 -16 c46 -19 116 -13 143 12
17 15 20 31 20 95 l0 76 163 -23 c89 -12 164 -23 167 -23 3 -1 -80 -43 -184
-94 l-189 -92 -221 32 c-121 17 -283 39 -358 49 l-138 19 -57 -24 c-148 -59
-1018 -434 -1313 -565 -91 -40 -223 -99 -295 -130 -71 -32 -161 -73 -199 -92
-37 -19 -69 -33 -71 -31 -9 8 -8 419 0 427 13 11 445 193 465 195 12 1 14 -21
11 -140 -3 -138 -2 -142 20 -158 30 -21 120 -21 159 -1 l30 16 0 188 0 188 50
23 50 23 0 291 0 291 58 22 c31 12 60 22 65 22 4 1 7 -116 7 -259z m849 210
c35 -5 65 -11 67 -13 2 -2 1 -49 -3 -106 l-6 -103 -56 6 c-31 4 -73 9 -93 12
l-37 6 0 101 c1 56 3 105 6 109 2 4 16 5 31 3 15 -3 56 -9 91 -15z m-149 -97
l0 -108 -93 -39 c-50 -21 -98 -41 -104 -43 -10 -4 -13 21 -13 104 l0 109 98
41 c53 23 100 42 105 42 4 1 7 -47 7 -106z m700 36 c85 -10 161 -19 168 -19 9
0 12 -30 12 -115 0 -85 -3 -115 -12 -115 -12 0 -86 10 -348 45 -58 8 -108 15
-112 15 -5 0 -8 50 -8 111 l0 112 73 -7 c39 -4 142 -16 227 -27z m535 -69
c151 -19 135 -3 135 -135 l0 -114 -32 5 c-18 2 -81 11 -139 19 -59 8 -109 15
-113 15 -3 0 -6 52 -6 115 l0 116 33 -5 c17 -3 73 -10 122 -16z m-1655 -134
l0 -114 -65 -26 c-36 -14 -70 -26 -75 -26 -7 0 -10 40 -8 111 l3 111 70 28
c39 15 71 28 73 29 1 1 2 -50 2 -113z m2793 -12 l57 -6 0 -117 0 -117 -82 9
c-46 5 -84 10 -85 11 -1 0 -5 54 -9 120 l-7 119 34 -6 c19 -3 60 -9 92 -13z
m-4425 -406 c-2 -294 -6 -382 -15 -386 -10 -3 -13 72 -13 352 0 278 -3 356
-12 356 -7 0 -71 -19 -143 -43 l-130 -42 -8 -160 c-4 -88 -5 -255 -1 -371 4
-156 3 -214 -6 -219 -6 -4 -13 -5 -14 -4 -2 2 -7 180 -11 394 l-7 390 174 57
c95 32 176 58 181 58 4 0 6 -172 5 -382z m4890 234 l3 -112 -48 1 c-26 1 -77
6 -113 13 l-65 11 2 115 c2 63 3 115 3 115 0 1 48 -6 108 -15 l107 -16 3 -112z
m-3740 -9 c-2 -83 -7 -128 -14 -130 -17 -6 -30 223 -14 242 26 31 31 12 28
-112z m-1198 -273 c0 -334 0 -341 -19 -330 -11 5 -22 13 -24 18 -3 4 -8 149
-12 324 -8 344 -11 322 43 327 9 1 12 -73 12 -339z m-80 34 c0 -230 -2 -275
-14 -271 -7 3 -46 15 -85 27 l-71 21 2 227 3 226 65 22 c110 38 100 64 100
-252z m1050 157 c0 -118 -4 -151 -20 -151 -5 0 -111 -43 -236 -95 -126 -52
-232 -95 -235 -95 -4 0 -7 61 -6 136 l2 137 240 92 c132 51 243 94 248 94 4 1
7 -53 7 -118z m3192 -63 l3 -102 37 -14 c43 -17 96 -10 129 17 19 15 23 30 27
100 l5 83 31 -6 c17 -3 55 -8 84 -12 28 -4 52 -10 52 -15 0 -5 -4 -9 -8 -9 -5
0 -18 -9 -30 -20 -20 -19 -22 -31 -22 -122 l0 -100 -31 6 c-42 8 -269 43 -415
64 -66 9 -122 22 -123 27 -3 11 228 203 246 204 9 1 13 -29 15 -101z m-1527
53 c83 -12 215 -30 295 -41 189 -26 200 -29 200 -46 0 -11 -9 -13 -37 -9 -21
3 -132 19 -248 35 -115 16 -256 37 -312 45 l-102 15 -223 -94 c-226 -95 -572
-246 -728 -316 -759 -343 -937 -424 -948 -433 -7 -5 -9 -14 -5 -18 9 -8 381
-97 628 -149 189 -40 180 -37 165 -55 -6 -7 -17 -12 -23 -9 -7 2 -100 22 -207
44 -107 22 -226 46 -265 55 -38 8 -124 27 -190 41 -66 14 -136 29 -155 33 -19
5 -48 12 -65 16 l-29 6 49 31 c62 39 160 84 545 255 1036 458 1430 624 1470
619 19 -2 103 -14 185 -25z m694 15 c-8 -9 -160 -106 -164 -106 -3 0 -5 6 -5
13 0 7 37 32 83 55 80 40 95 47 86 38z m1607 -60 c1 0 -2 -221 -6 -491 -4
-269 -6 -493 -4 -496 2 -4 34 -9 72 -13 38 -4 81 -10 95 -14 29 -8 56 16 -508
-466 -121 -103 -267 -229 -325 -279 -58 -50 -112 -96 -120 -103 -12 -10 -48
-6 -180 17 -399 71 -1178 213 -1320 240 -85 16 -189 36 -230 44 -271 51 -706
137 -709 141 -2 2 31 20 75 40 43 20 126 58 183 86 116 56 95 55 286 13 167
-36 788 -159 912 -180 l101 -18 33 26 32 25 18 -21 c15 -19 27 -22 97 -22 109
0 112 3 112 126 l0 98 98 78 c53 42 155 126 226 187 l129 109 -7 -339 c-4
-186 -9 -385 -12 -441 l-6 -103 43 -20 c56 -25 100 -25 148 -1 l38 20 6 227
c4 125 7 318 7 429 0 111 3 255 7 321 l6 119 111 97 111 97 3 -82 c1 -45 -1
-212 -6 -372 -5 -159 -7 -295 -5 -301 8 -22 74 -44 131 -44 45 0 65 6 95 25
l37 26 0 593 c0 326 3 607 6 623 l6 29 106 -14 c59 -8 108 -15 108 -16z m-253
18 c26 -27 -60 -60 -130 -49 -53 8 -61 20 -26 39 27 15 143 22 156 10z m2
-842 l-7 -384 -32 -19 c-37 -23 -94 -24 -143 -4 l-36 15 6 233 c4 127 10 390
14 583 l6 351 71 -4 c39 -3 82 0 96 5 l25 9 3 -201 c2 -110 0 -374 -3 -584z
m-4433 585 l-3 -144 -77 -31 c-42 -18 -83 -32 -89 -32 -10 0 -13 35 -13 139
l0 139 88 35 c48 19 89 35 92 36 3 1 4 -63 2 -142z m3928 53 c151 -23 279 -46
284 -51 23 -21 -15 -19 -191 10 -103 17 -237 38 -297 46 -61 9 -112 17 -114
20 -9 9 11 25 26 21 10 -3 141 -24 292 -46z m-4334 -193 c60 -21 69 -27 72
-51 2 -18 15 -34 42 -51 22 -14 45 -25 53 -25 7 0 59 20 115 45 56 25 107 45
114 45 8 0 10 -52 5 -196 l-5 -195 25 -10 c13 -5 41 -9 62 -9 29 0 40 -5 43
-18 4 -13 23 -21 74 -31 38 -7 105 -22 149 -32 83 -19 316 -69 445 -94 41 -9
108 -23 149 -31 l74 -16 -144 -72 -144 -71 -5 -45 c-6 -54 16 -54 -240 5 -102
23 -286 66 -410 94 -124 29 -243 56 -265 61 -62 15 -240 55 -350 80 -55 12
-163 37 -240 55 -77 18 -175 41 -218 50 -43 10 -80 21 -82 25 -4 7 135 70 154
70 5 0 7 -9 4 -21 -4 -16 -8 -18 -14 -7 -8 11 -11 11 -18 -1 -14 -21 -1 -42
23 -39 16 2 23 14 30 45 8 34 15 44 39 53 39 13 37 14 37 -19 0 -17 5 -33 10
-36 6 -4 10 10 10 34 0 30 5 43 20 51 23 12 23 12 36 -65 8 -45 12 -50 37 -53
25 -3 28 0 25 20 -2 13 -7 21 -13 18 -5 -3 -9 -9 -7 -15 2 -5 -2 -4 -9 3 -7 6
-13 35 -14 64 l0 51 118 50 117 49 0 129 c0 99 3 129 13 129 7 0 44 -11 83
-23z m4318 -7 c36 -13 32 -26 -10 -40 -37 -12 -99 -6 -109 11 -7 10 49 38 77
39 9 0 28 -4 42 -10z m-4584 -25 c0 -14 -4 -25 -10 -25 -5 0 -10 11 -10 25 0
14 5 25 10 25 6 0 10 -11 10 -25z m4880 3 c0 -16 -29 -48 -97 -108 -130 -114
-133 -116 -133 -92 0 13 42 57 113 120 61 56 113 101 115 101 1 1 2 -9 2 -21z
m-264 -675 c-7 -639 -7 -648 -27 -665 -14 -12 -38 -18 -73 -18 -96 0 -89 -48
-77 555 6 292 14 582 17 645 l7 115 53 -3 c29 -2 61 1 71 7 10 6 22 11 27 11
5 0 6 -264 2 -647z m-4866 620 c-1 -18 -18 -35 -24 -24 -4 6 -4 16 -1 21 7 12
25 13 25 3z m125 -13 c-3 -5 -22 -10 -41 -10 -21 0 -33 4 -29 10 3 6 22 10 41
10 21 0 33 -4 29 -10z m-89 -14 c9 -23 52 -28 86 -11 17 8 52 15 77 15 l46 0
-63 -35 c-69 -39 -119 -45 -150 -17 -28 24 -39 62 -17 62 8 0 18 -6 21 -14z
m123 -91 c-13 -13 -126 -12 -138 0 -7 7 18 10 69 10 53 0 76 -3 69 -10z m-75
-86 c8 -57 4 -64 -38 -75 -25 -6 -28 -5 -23 10 4 10 7 40 7 67 0 45 2 49 24
49 21 0 24 -6 30 -51z m66 7 c0 -40 -11 -56 -36 -56 -2 0 -4 23 -4 50 0 43 3
50 20 50 17 0 20 -7 20 -44z m4523 -160 c-5 -24 -89 -100 -343 -307 -106 -86
-110 -89 -110 -62 0 25 24 48 188 180 103 83 203 165 222 182 43 37 49 38 43
7z m-495 -170 c12 -12 9 -15 -18 -21 -37 -8 -117 2 -125 16 -18 29 115 34 143
5z m-2138 -63 c0 -26 -14 -35 -190 -125 l-190 -98 0 35 0 34 183 90 c100 50
185 90 190 90 4 1 7 -11 7 -26z m2092 15 c21 1 42 3 46 6 5 3 12 -83 16 -191
5 -161 4 -199 -7 -211 -21 -20 -89 -26 -132 -12 l-38 12 7 91 c3 49 6 141 6
204 l0 115 32 -7 c17 -4 49 -7 70 -7z m-1184 -177 c54 -11 171 -33 262 -51 91
-17 185 -35 210 -40 25 -5 86 -16 135 -24 50 -9 151 -27 225 -40 l135 -24 30
22 c53 39 55 39 55 9 0 -22 -10 -36 -40 -59 -46 -36 -10 -39 -355 27 -373 72
-763 151 -809 166 -18 5 -18 6 5 19 31 17 34 17 147 -5z"/>
<path d="M5317 2431 c-58 -34 -77 -51 -56 -51 23 0 120 60 114 70 -8 12 -2 14
-58 -19z"/>
<path d="M5574 2399 c-28 -17 -35 -18 -110 -5 -43 8 -82 12 -87 9 -18 -11 8
-22 68 -28 53 -6 63 -10 54 -21 -6 -7 -9 -18 -7 -23 3 -8 119 56 142 79 18 18
-27 9 -60 -11z"/>
<path d="M5850 2401 c0 -12 21 -19 80 -27 27 -4 50 -9 50 -13 0 -3 -12 -14
-25 -24 -23 -16 -32 -17 -106 -6 l-82 13 29 22 c42 34 22 40 -31 10 -72 -42
-66 -47 82 -67 l91 -13 38 30 c21 16 42 32 48 36 18 12 0 20 -81 34 -94 16
-93 16 -93 5z"/>
<path d="M4690 2380 c0 -5 14 -13 32 -18 l32 -8 -45 -25 c-24 -14 -52 -29 -61
-32 -21 -7 -24 -27 -5 -27 6 0 44 17 82 38 68 37 71 38 118 26 29 -7 49 -8 53
-2 8 13 10 13 -96 37 -109 24 -110 24 -110 11z"/>
<path d="M4970 2320 c-78 -36 -864 -386 -972 -433 -27 -12 -48 -26 -48 -33 0
-7 63 -23 168 -43 92 -17 226 -43 297 -57 72 -13 240 -44 375 -69 135 -24 333
-60 440 -80 107 -20 202 -34 210 -32 21 5 869 554 894 578 16 15 17 19 5 23
-17 6 -399 65 -659 101 -102 14 -272 39 -379 55 -107 17 -206 30 -220 29 -14
0 -64 -18 -111 -39z m200 5 c52 -7 235 -34 405 -59 437 -64 654 -96 694 -105
l35 -7 -55 -34 c-30 -19 -225 -145 -434 -281 l-380 -246 -345 62 c-190 35
-370 68 -400 73 -30 6 -93 18 -140 26 -47 9 -180 34 -295 56 -116 22 -218 40
-228 40 -9 0 -17 4 -17 8 0 5 222 107 493 227 270 120 508 226 527 235 44 22
29 22 140 5z"/>
<path d="M4935 2184 c-99 -47 -198 -94 -220 -104 -242 -111 -360 -171 -363
-182 -2 -11 49 -23 210 -52 117 -21 301 -53 408 -72 107 -20 236 -42 285 -50
50 -8 98 -16 108 -18 10 -3 151 76 325 181 169 102 322 195 340 206 18 11 31
25 29 31 -2 6 -109 26 -258 47 -140 21 -350 51 -467 68 -117 17 -213 31 -215
31 -1 0 -83 -39 -182 -86z m175 26 c0 -25 -6 -32 -42 -48 -24 -11 -162 -78
-308 -150 l-265 -131 -50 11 -50 11 40 19 c78 37 670 317 673 317 1 1 2 -12 2
-29z m495 -34 c215 -31 395 -58 400 -60 17 -5 -59 -46 -85 -46 -33 1 -362 49
-650 96 -146 24 -140 21 -140 50 0 32 -55 36 475 -40z m-57 -76 c188 -30 342
-57 342 -60 0 -3 -116 -74 -258 -159 l-257 -154 -125 22 c-69 12 -161 29 -205
37 -148 27 -479 84 -487 84 -24 0 -1 20 45 40 28 12 156 74 282 136 206 103
235 114 275 111 25 -2 199 -28 388 -57z"/>
<path d="M6129 2309 c-74 -48 -74 -48 -68 -54 3 -2 19 1 36 7 24 9 47 8 113
-5 45 -9 86 -14 91 -11 18 11 -2 22 -53 28 -29 4 -64 10 -77 13 -23 6 -23 6 8
25 29 19 41 38 23 38 -5 0 -38 -19 -73 -41z"/>
<path d="M4359 2247 c-96 -41 -106 -47 -88 -57 8 -4 55 -16 104 -25 l91 -18
72 33 c40 18 72 39 72 45 0 8 -27 18 -67 25 -38 7 -77 16 -89 20 -14 6 -44 -2
-95 -23z m137 -9 c35 -6 64 -14 64 -17 0 -4 -22 -17 -49 -30 -46 -21 -54 -22
-103 -11 -99 22 -97 21 -43 46 61 27 54 27 131 12z"/>
<path d="M4255 2119 c-46 -24 -68 -29 -95 -25 -110 17 -125 18 -115 8 16 -17
228 -63 239 -52 10 10 0 15 -39 23 -15 3 -9 9 28 27 26 13 47 30 47 37 0 16 6
18 -65 -18z"/>
<path d="M6426 2024 l-49 -37 -57 11 c-68 14 -118 16 -104 3 10 -10 204 -51
241 -51 33 0 21 16 -19 24 -36 8 -37 6 26 51 10 7 16 19 14 25 -2 7 -24 -4
-52 -26z"/>
<path d="M3675 1929 c-4 -5 0 -11 7 -13 39 -12 110 -26 133 -26 45 0 18 17
-47 30 -35 6 -68 14 -75 16 -7 1 -15 -1 -18 -7z"/>
<path d="M6098 1888 c-34 -24 -63 -47 -63 -53 0 -5 45 -19 99 -32 l99 -22 58
45 c61 46 75 62 66 71 -7 7 -145 33 -174 33 -11 0 -50 -19 -85 -42z m180 6
c23 -4 42 -9 42 -13 -1 -3 -21 -21 -46 -39 l-46 -34 -62 12 c-92 17 -95 22
-39 59 36 24 55 31 78 27 17 -3 49 -8 73 -12z"/>
<path d="M3928 1737 c-107 -58 -120 -67 -94 -67 9 0 48 16 86 36 38 19 73 33
78 30 5 -3 53 -15 108 -27 54 -11 102 -24 106 -27 4 -4 -15 -18 -43 -31 -27
-14 -49 -31 -49 -38 0 -15 -6 -18 128 54 45 25 80 49 76 54 -3 5 -18 2 -35 -7
-28 -14 -38 -13 -144 10 -63 14 -118 26 -122 26 -4 0 0 5 10 11 20 12 23 29 5
28 -7 0 -57 -24 -110 -52z"/>
<path d="M5874 1779 c-6 -10 0 -13 66 -30 l45 -11 -25 -17 c-44 -29 -75 -59
-68 -66 3 -4 31 12 62 34 61 46 70 47 140 26 56 -17 76 -19 76 -6 0 16 -287
84 -296 70z"/>
<path d="M4435 1652 c-118 -67 -145 -85 -140 -91 4 -3 54 -18 113 -33 l107
-26 83 45 c46 25 81 50 79 57 -2 6 -50 23 -108 38 -57 15 -104 27 -104 27 0 0
-13 -8 -30 -17z m112 -27 c104 -24 103 -23 33 -61 l-64 -36 -83 18 c-46 10
-83 22 -83 25 0 9 101 68 117 68 6 1 42 -6 80 -14z"/>
<path d="M5642 1628 c4 -11 117 -47 153 -48 39 0 -2 21 -76 40 -88 23 -82 23
-77 8z"/>
<path d="M4939 1577 c-111 -67 -158 -100 -153 -109 3 -5 20 0 37 11 l32 20
140 -30 c181 -39 172 -35 150 -59 -12 -13 -14 -20 -5 -20 17 0 160 90 160 101
0 14 -8 11 -56 -17 -50 -29 -38 -30 -227 12 -128 27 -129 28 -105 46 12 9 38
25 56 33 32 16 44 36 20 34 -7 0 -29 -11 -49 -22z"/>
</g>
</svg>
