<?xml version="1.0" standalone="no"?>
<!DOCTYPE svg PUBLIC "-//W3C//DTD SVG 20010904//EN"
 "http://www.w3.org/TR/2001/REC-SVG-20010904/DTD/svg10.dtd">
<svg version="1.0" xmlns="http://www.w3.org/2000/svg"
 width="1024.000000pt" height="559.000000pt" viewBox="0 0 1024.000000 559.000000"
 preserveAspectRatio="xMidYMid meet">
<metadata>
Created by potrace 1.16, written by Peter Selinger 2001-2019
</metadata>
<g transform="translate(0.000000,559.000000) scale(0.100000,-0.100000)"
fill="#000000" stroke="none">
<path d="M4925 4559 c-154 -20 -297 -79 -625 -261 -275 -152 -340 -195 -358
-232 -7 -15 -16 -72 -20 -128 l-7 -102 -30 -8 c-36 -9 -124 4 -183 27 -68 28
-142 17 -227 -32 -38 -22 -90 -51 -115 -65 -677 -374 -850 -492 -923 -626 -71
-131 -84 -555 -26 -852 31 -160 222 -316 624 -514 263 -130 280 -137 390 -174
180 -60 400 -95 710 -112 175 -10 278 -9 615 5 423 18 637 15 830 -10 437 -58
742 -149 1170 -351 202 -95 301 -113 435 -79 126 32 300 136 432 258 57 53
157 184 182 241 43 99 66 325 58 588 -6 220 -23 297 -97 443 -106 211 -233
340 -550 559 -126 87 -278 215 -336 282 -28 33 -93 118 -144 189 -122 169
-198 260 -307 366 -190 185 -299 253 -583 369 -292 118 -566 204 -706 220
-100 11 -111 11 -209 -1z m375 -78 c248 -71 612 -209 755 -286 231 -125 424
-314 663 -652 132 -185 254 -298 524 -486 265 -185 397 -326 495 -532 61 -128
55 -242 -17 -370 -116 -204 -445 -412 -686 -432 -87 -7 -153 12 -329 97 -391
189 -835 320 -1235 365 -152 17 -530 20 -680 5 -360 -34 -581 -33 -897 6 -493
60 -701 132 -1093 379 -245 154 -304 212 -335 331 -28 110 -14 187 50 262 20
23 31 30 38 23 14 -14 102 -14 128 -1 25 14 25 -2 0 -24 -20 -19 -51 -96 -51
-128 0 -10 10 -28 21 -39 20 -20 29 -21 128 -16 86 4 123 11 196 38 87 31 97
33 295 39 227 8 250 13 467 94 131 49 163 55 183 31 16 -19 7 -82 -17 -124
-25 -43 -9 -49 35 -14 49 40 73 83 81 145 5 44 11 56 39 74 35 24 189 64 250
65 34 0 35 1 14 11 -27 13 -169 -13 -245 -45 -58 -24 -77 -49 -77 -100 0 -47
-18 -83 -61 -122 -18 -16 -28 -23 -22 -15 25 35 35 90 23 121 -23 54 -52 52
-233 -17 -182 -69 -258 -84 -424 -84 -146 0 -211 -11 -362 -60 -52 -16 -85
-20 -165 -18 -96 3 -101 4 -104 26 -6 40 27 117 66 154 38 37 557 309 668 350
57 21 71 22 364 20 352 -3 365 -5 475 -87 121 -89 164 -116 219 -135 65 -22
107 -42 296 -142 80 -42 217 -106 305 -143 299 -125 447 -215 497 -303 15 -26
28 -53 28 -60 0 -29 74 -160 127 -225 70 -87 85 -115 72 -138 -20 -38 -68 -36
-384 16 -49 8 -169 22 -265 31 -177 16 -287 12 -506 -16 -445 -58 -836 -56
-1077 6 -82 21 -440 155 -517 194 -118 59 -285 201 -345 293 -16 25 -16 29 -1
45 8 10 48 26 88 36 101 23 369 115 338 116 -14 0 -84 -20 -157 -44 -72 -25
-157 -49 -189 -55 -105 -20 -133 -57 -91 -120 36 -54 153 -171 220 -220 95
-69 235 -130 556 -242 276 -96 596 -105 1221 -33 294 34 458 27 830 -37 224
-39 310 -27 310 44 0 26 -16 55 -71 128 -79 105 -97 137 -134 236 -16 41 -41
83 -63 106 -77 81 -232 168 -467 265 -146 60 -205 88 -359 170 -65 36 -165 84
-222 107 -99 41 -156 76 -254 156 -25 20 -72 47 -105 59 -57 22 -73 23 -370
24 -361 1 -360 1 -570 -109 -420 -220 -517 -265 -575 -265 -38 0 -38 9 3 47
46 43 126 95 342 220 413 240 622 353 652 353 17 0 59 -10 94 -21 41 -14 92
-22 144 -23 68 -1 88 3 130 24 93 48 107 117 40 201 l-35 44 27 22 c24 19 462
267 560 317 31 15 32 15 52 -10 12 -15 26 -44 33 -66 23 -79 -16 -160 -152
-312 -99 -111 -115 -139 -115 -207 0 -98 18 -113 375 -313 91 -51 248 -141
350 -201 102 -59 259 -150 350 -202 323 -185 522 -309 623 -384 120 -91 194
-155 187 -162 -8 -8 -220 100 -470 240 -118 66 -316 173 -440 238 -124 65
-263 139 -310 165 -47 26 -209 108 -360 183 -151 74 -315 159 -365 189 -49 29
-119 67 -155 83 l-65 30 -274 3 c-220 3 -289 0 -352 -13 -87 -17 -223 -73
-363 -147 -50 -27 -141 -74 -203 -106 -61 -31 -110 -59 -108 -61 5 -5 160 71
310 152 123 65 281 131 355 146 34 8 157 12 323 11 321 0 322 -1 526 -122 75
-45 213 -119 306 -165 237 -117 388 -194 400 -203 10 -8 192 -105 440 -235 72
-37 155 -82 185 -100 133 -78 452 -251 528 -287 100 -45 132 -49 132 -14 0 16
-20 42 -63 82 -131 123 -295 231 -731 481 -326 188 -445 257 -545 318 -52 31
-168 97 -257 145 -204 111 -234 131 -267 170 -60 71 -44 122 88 275 128 149
150 190 150 280 0 55 -5 78 -22 106 -13 20 -23 39 -23 41 0 14 172 73 270 92
14 2 84 3 155 1 108 -3 148 -9 235 -34z m-1300 -513 c11 -18 20 -42 20 -52 0
-20 -36 -66 -52 -66 -9 0 -11 94 -2 128 8 29 11 28 34 -10z m-1555 -1105 c12
-48 78 -135 137 -181 167 -130 530 -333 708 -397 327 -116 1006 -182 1400
-135 189 23 686 20 850 -4 233 -34 495 -99 735 -183 149 -52 208 -76 470 -197
135 -61 212 -80 300 -73 294 25 665 294 745 540 l17 51 6 -48 c16 -115 0 -443
-28 -577 -18 -90 -45 -142 -120 -236 -106 -133 -286 -263 -436 -318 -151 -54
-246 -43 -448 52 -296 141 -478 209 -726 273 -337 87 -600 115 -985 106 -922
-21 -1021 -19 -1283 20 -271 40 -389 80 -713 239 -310 153 -499 280 -535 360
-10 22 -19 34 -19 26 0 -11 -3 -11 -16 0 -28 23 -44 68 -60 166 -19 118 -32
559 -16 550 5 -4 13 -19 17 -34z"/>
<path d="M4965 4457 c-103 -55 -245 -159 -245 -179 0 -5 33 14 74 43 63 44 80
51 105 46 17 -4 68 0 114 8 115 20 212 19 288 -4 35 -11 106 -29 157 -40 51
-11 113 -29 138 -41 58 -25 62 -25 39 0 -18 20 -109 53 -181 65 -22 4 -81 20
-132 36 -104 33 -164 36 -273 15 -88 -17 -169 -27 -169 -21 0 2 32 23 70 46
39 23 73 45 76 50 8 13 5 12 -61 -24z"/>
<path d="M4568 4268 c-8 -72 -37 -120 -139 -233 -84 -93 -123 -155 -134 -218
-15 -81 72 -181 240 -274 219 -122 554 -314 710 -408 284 -170 485 -283 485
-271 0 3 -24 18 -52 33 -93 51 -459 265 -743 433 -71 42 -188 110 -260 150
-71 40 -149 83 -171 96 -68 38 -160 121 -179 160 -38 81 -7 158 116 291 105
113 142 179 137 249 l-3 49 -7 -57z"/>
<path d="M5381 4271 c-17 -22 -42 -64 -55 -94 -30 -66 -60 -91 -134 -112 -132
-37 -186 -69 -347 -206 -85 -73 -144 -98 -230 -100 -63 -2 -65 -3 -25 -8 99
-14 187 24 304 130 95 86 155 122 252 153 154 48 167 56 193 136 6 19 23 49
37 65 18 21 24 24 19 10 -14 -39 -22 -80 -18 -92 8 -23 59 -14 162 28 111 44
162 48 66 4 -33 -15 -114 -52 -180 -83 -66 -30 -151 -68 -190 -83 -72 -28 -72
-38 0 -18 22 6 119 47 215 91 96 44 204 89 239 101 57 19 69 19 125 8 100 -20
263 -104 384 -198 96 -74 257 -237 311 -313 61 -88 142 -251 149 -302 5 -43
-10 -88 -37 -105 -24 -15 -142 -39 -264 -54 -53 -7 -97 -16 -97 -20 0 -33 197
-48 321 -25 95 18 148 12 219 -26 19 -10 49 -18 68 -18 60 0 264 -115 447
-254 133 -101 246 -243 284 -359 45 -135 38 -198 -34 -299 -25 -35 -57 -85
-71 -113 -60 -112 -127 -166 -259 -211 -71 -24 -96 -27 -215 -28 -135 -1 -136
-1 -202 33 -37 18 -78 45 -92 60 -13 14 -52 81 -86 149 -47 93 -77 139 -128
195 -37 39 -80 88 -95 107 l-28 35 17 -35 c9 -19 48 -71 86 -115 52 -60 85
-111 128 -200 32 -67 69 -134 83 -151 15 -17 60 -48 102 -70 71 -35 85 -39
174 -42 120 -5 238 17 336 63 92 43 144 90 185 167 18 35 53 90 77 122 61 82
76 120 76 196 1 74 -19 143 -71 245 -75 147 -324 353 -598 495 -67 34 -145 82
-173 107 -59 52 -84 92 -161 258 -79 168 -117 224 -244 353 -136 139 -207 197
-344 279 -133 80 -210 105 -318 102 -44 -2 -85 1 -91 4 -7 4 -56 -10 -110 -32
-135 -54 -142 -55 -149 -37 -3 9 -1 30 6 48 37 101 30 121 -19 59z m1412
-1048 c18 -15 46 -38 62 -51 l30 -22 -30 6 c-16 4 -43 15 -60 25 -58 34 -126
42 -211 25 -85 -18 -239 -21 -249 -6 -4 6 6 10 23 10 28 0 90 10 200 31 66 13
108 47 117 95 l6 37 40 -61 c22 -33 54 -73 72 -89z"/>
<path d="M4985 4269 c-73 -40 -152 -97 -170 -126 -15 -22 -8 -18 32 17 27 25
80 62 116 84 58 33 75 46 64 46 -1 0 -20 -10 -42 -21z"/>
<path d="M4947 4111 c3 -10 -3 -32 -12 -47 l-17 -29 21 24 c22 24 28 56 12 65
-5 4 -7 -3 -4 -13z"/>
<path d="M4842 4055 c-36 -41 -66 -94 -58 -103 3 -3 6 0 6 6 0 6 21 37 46 67
50 63 55 87 6 30z"/>
<path d="M4939 3844 c-18 -19 -69 -55 -111 -79 -110 -64 -125 -92 -89 -163 20
-39 91 -113 91 -95 0 6 -8 17 -17 24 -36 31 -73 93 -73 125 0 36 17 52 123
114 56 34 141 110 121 110 -6 0 -26 -16 -45 -36z"/>
<path d="M5555 3725 c-92 -11 -212 -41 -202 -51 2 -2 24 3 48 11 24 9 100 22
168 30 68 8 126 16 129 19 7 8 -23 6 -143 -9z"/>
<path d="M6231 3717 c-6 -12 -26 -32 -44 -44 -17 -13 -27 -23 -21 -23 26 0 95
73 81 86 -2 2 -9 -6 -16 -19z"/>
<path d="M5998 3624 c-101 -31 -59 -49 94 -39 156 10 248 10 298 2 29 -5 38
-4 25 1 -11 5 -52 15 -90 22 -60 11 -79 10 -133 -4 -68 -17 -188 -21 -211 -7
-10 6 5 14 50 24 35 8 53 15 39 15 -14 1 -46 -6 -72 -14z"/>
<path d="M5375 3459 c-85 -10 -210 -37 -175 -38 14 0 61 6 105 14 122 22 200
19 291 -11 66 -22 89 -25 143 -19 107 11 113 23 9 17 -81 -4 -107 -1 -155 16
-73 26 -129 31 -218 21z"/>
<path d="M4195 3390 c-16 -4 -65 -16 -107 -25 -71 -16 -146 -50 -136 -61 3 -2
19 3 37 12 18 9 87 29 154 45 67 17 123 32 126 34 7 8 -41 4 -74 -5z"/>
<path d="M3495 3380 c-22 -5 -72 -22 -112 -39 -80 -35 -111 -37 -198 -16 -33
8 -71 14 -85 14 l-25 -1 25 -8 c14 -4 61 -16 106 -25 l80 -17 65 27 c94 39
146 55 219 64 63 8 63 8 15 9 -27 0 -68 -4 -90 -8z"/>
<path d="M5418 3353 c12 -2 30 -2 40 0 9 3 -1 5 -23 4 -22 0 -30 -2 -17 -4z"/>
<path d="M3580 3340 c-10 -7 13 -8 75 -4 50 4 92 8 94 10 10 9 -156 3 -169 -6z"/>
<path d="M3391 3260 l-53 -40 -142 -2 c-77 -1 -168 -2 -201 -1 -42 2 -54 0
-40 -7 11 -4 101 -6 200 -3 194 6 224 14 274 67 34 36 24 33 -38 -14z"/>
<path d="M5898 3066 c-37 -6 -71 -16 -75 -20 -4 -5 3 -6 17 -1 44 13 216 18
266 7 27 -6 85 -13 129 -16 95 -6 55 4 -117 28 -122 18 -129 18 -220 2z"/>
<path d="M6665 2969 c-44 -16 -71 -29 -60 -29 11 0 54 13 95 29 95 38 71 37
-35 0z"/>
<path d="M4267 2868 c-19 -24 -48 -72 -65 -108 -32 -70 -70 -114 -142 -163
-92 -62 -140 -113 -186 -199 -24 -46 -8 -31 21 18 39 67 91 121 155 161 88 56
129 101 167 183 19 41 51 92 71 113 20 20 31 37 25 37 -7 0 -27 -19 -46 -42z"/>
<path d="M6785 2904 c-75 -11 -135 -26 -140 -35 -4 -5 6 -4 22 2 49 19 232 23
281 6 49 -17 54 -14 12 8 -31 16 -125 26 -175 19z"/>
<path d="M6214 2847 c-17 -7 -42 -20 -55 -30 -24 -17 -24 -17 7 -2 70 32 115
36 223 15 103 -20 167 -17 210 11 13 9 12 9 -4 4 -47 -16 -143 -16 -208 -1
-79 19 -129 19 -173 3z"/>
<path d="M3494 2776 c-109 -46 -186 -90 -224 -131 -35 -37 -14 -30 33 11 37
31 77 53 267 142 76 35 30 22 -76 -22z"/>
<path d="M6833 2793 c15 -2 39 -2 55 0 15 2 2 4 -28 4 -30 0 -43 -2 -27 -4z"/>
<path d="M4246 2685 c-3 -9 -6 -29 -6 -44 0 -15 -9 -61 -20 -102 -11 -41 -19
-85 -19 -99 1 -36 38 103 48 185 10 70 9 90 -3 60z"/>
<path d="M3512 2659 c-56 -41 -54 -48 3 -9 39 27 53 40 42 40 -2 0 -22 -14
-45 -31z"/>
<path d="M5342 2590 c6 -25 15 -54 20 -65 6 -15 7 -15 3 -2 -3 10 -5 31 -5 46
0 15 -6 36 -14 47 -13 17 -13 14 -4 -26z"/>
<path d="M5722 2618 c-29 -29 -4 -82 80 -178 22 -25 51 -70 64 -99 51 -114 84
-141 256 -203 254 -91 279 -99 346 -101 l66 -2 13 37 c10 31 10 46 -3 88 -15
51 -79 135 -95 125 -13 -9 -58 18 -121 72 -36 31 -90 62 -150 87 -51 21 -119
56 -150 78 -106 71 -188 108 -243 108 -28 0 -56 -5 -63 -12z m166 -37 c21 -11
77 -44 125 -74 49 -31 105 -61 125 -68 64 -21 145 -66 202 -113 30 -26 71 -51
90 -58 40 -13 52 -26 80 -85 21 -44 25 -89 11 -112 -12 -18 -105 -9 -181 18
-354 125 -350 124 -391 168 -15 15 -41 55 -57 89 -17 33 -60 95 -96 138 -36
42 -66 86 -66 97 0 41 78 41 158 0z"/>
<path d="M7265 2615 c55 -7 132 -25 170 -39 43 -16 62 -20 50 -11 -35 27 -144
55 -234 60 l-86 4 100 -14z"/>
<path d="M6580 2590 c8 -5 20 -10 25 -10 6 0 3 5 -5 10 -8 5 -19 10 -25 10 -5
0 -3 -5 5 -10z"/>
<path d="M6669 2555 c77 -36 120 -71 139 -115 17 -36 102 -122 102 -102 0 6
-17 25 -39 44 -21 18 -46 49 -56 68 -9 19 -27 43 -39 53 -27 23 -103 62 -136
71 -14 3 -1 -5 29 -19z"/>
<path d="M6851 2538 c12 -13 34 -43 50 -68 16 -25 40 -60 54 -78 20 -28 23
-41 18 -83 -4 -32 -1 -58 7 -74 14 -25 97 -75 126 -75 11 0 -3 11 -31 24 -77
36 -90 56 -87 130 3 59 2 64 -36 106 -21 25 -47 61 -57 80 -17 33 -42 59 -57
60 -4 0 2 -10 13 -22z"/>
<path d="M2486 2619 c-4 -38 -5 -93 -2 -122 17 -169 29 -257 33 -253 2 2 -1
48 -7 102 -6 55 -11 154 -11 222 0 67 -1 122 -3 122 -2 0 -7 -32 -10 -71z"/>
<path d="M2633 2440 c0 -30 2 -43 4 -27 2 15 2 39 0 55 -2 15 -4 2 -4 -28z"/>
<path d="M2576 2271 c2 -57 8 -110 13 -119 9 -17 8 7 -9 148 -9 72 -9 71 -4
-29z"/>
<path d="M2711 2274 c1 -32 5 -70 9 -84 5 -15 6 7 3 55 -7 96 -13 112 -12 29z"/>
<path d="M3701 2102 c-2 -38 24 -86 76 -144 66 -72 106 -132 128 -192 11 -27
21 -44 23 -37 9 26 -69 158 -137 234 -51 57 -73 90 -80 120 -5 24 -9 32 -10
19z"/>
<path d="M3466 1995 c7 -114 25 -247 36 -270 7 -16 7 -13 4 11 -3 17 -12 96
-21 175 -18 163 -28 204 -19 84z"/>
<path d="M4685 2009 c151 -54 237 -81 243 -74 2 2 -18 10 -45 19 -26 8 -106
35 -178 60 -71 25 -137 45 -145 45 -8 0 48 -23 125 -50z"/>
<path d="M7697 1848 c-4 -62 -9 -149 -11 -193 -4 -65 -4 -72 4 -35 10 52 26
340 18 340 -3 0 -8 -51 -11 -112z"/>
<path d="M5760 1867 c0 -35 21 -57 102 -104 94 -54 136 -94 178 -166 16 -29
30 -47 30 -42 0 6 -13 33 -30 61 -30 53 -97 119 -146 144 -72 36 -106 64 -119
93 -9 20 -14 25 -15 14z"/>
<path d="M3561 1819 c1 -30 5 -67 10 -84 5 -18 6 1 2 50 -6 93 -14 113 -12 34z"/>
<path d="M3997 1730 c20 -44 38 -78 41 -75 5 5 -64 155 -72 155 -2 0 12 -36
31 -80z"/>
<path d="M5625 1771 c88 -46 178 -122 204 -173 19 -36 22 -38 17 -13 -12 56
-175 193 -252 210 -18 5 -6 -5 31 -24z"/>
<path d="M6475 1700 c0 -99 -2 -108 -30 -154 -16 -27 -24 -46 -17 -42 7 4 24
29 37 56 20 39 25 63 24 117 -1 37 -4 82 -8 98 -3 17 -6 -17 -6 -75z"/>
<path d="M6556 1615 c-5 -27 -24 -84 -43 -125 -45 -97 -54 -128 -41 -136 6 -4
8 -3 5 3 -4 6 11 46 33 90 43 89 64 158 58 194 -3 16 -7 8 -12 -26z"/>
<path d="M7008 1435 c4 -224 9 -251 9 -50 1 88 -2 174 -6 190 -4 17 -5 -46 -3
-140z"/>
<path d="M7097 1356 c-4 -27 -6 -79 -6 -115 2 -64 2 -63 10 29 10 106 7 162
-4 86z"/>
</g>
</svg>
