<?xml version="1.0" standalone="no"?>
<!DOCTYPE svg PUBLIC "-//W3C//DTD SVG 20010904//EN"
 "http://www.w3.org/TR/2001/REC-SVG-20010904/DTD/svg10.dtd">
<svg version="1.0" xmlns="http://www.w3.org/2000/svg"
 width="1024.000000pt" height="559.000000pt" viewBox="0 0 1024.000000 559.000000"
 preserveAspectRatio="xMidYMid meet">
<metadata>
Created by potrace 1.16, written by Peter Selinger 2001-2019
</metadata>
<g transform="translate(0.000000,559.000000) scale(0.100000,-0.100000)"
fill="#000000" stroke="none">
<path d="M5070 5120 c-32 -17 -318 -157 -685 -335 -382 -185 -515 -250 -720
-350 -121 -59 -269 -131 -330 -160 -60 -29 -216 -104 -345 -167 -129 -63 -341
-166 -470 -228 -129 -63 -253 -123 -275 -135 l-40 -20 -3 -932 -2 -932 192
-97 c106 -53 283 -143 393 -199 110 -56 367 -187 570 -290 472 -239 966 -491
1310 -667 149 -76 312 -160 363 -186 l92 -47 213 107 c212 108 636 323 1162
592 154 79 483 246 730 372 248 125 531 270 630 320 l180 92 3 935 2 934 -137
66 c-76 36 -255 123 -398 193 -293 143 -524 255 -730 354 -77 37 -300 145
-495 240 -195 95 -418 203 -495 240 -77 37 -256 124 -399 194 -142 69 -263
126 -270 125 -6 -1 -27 -9 -46 -19z m341 -143 c41 -19 205 -99 364 -177 160
-78 331 -161 380 -185 50 -24 229 -111 399 -194 170 -83 310 -151 311 -151 2
0 159 -76 350 -170 191 -93 349 -170 350 -170 5 0 427 -209 432 -213 6 -6 -68
-48 -86 -50 -16 -1 -66 23 -531 251 -358 175 -669 327 -835 407 -82 40 -233
113 -335 163 -102 49 -264 128 -360 175 -96 46 -296 144 -444 216 -148 72
-275 131 -282 131 -14 0 -133 -56 -479 -225 -252 -123 -469 -229 -720 -350
-221 -107 -507 -246 -790 -385 -137 -67 -369 -181 -515 -252 -146 -72 -274
-130 -285 -130 -11 0 -38 10 -59 23 l-40 23 166 81 c90 44 245 119 344 167 98
48 296 144 439 214 143 69 314 152 380 184 66 32 219 106 340 165 371 181 902
439 1140 554 l80 38 106 -53 c58 -29 139 -68 180 -87z m-301 -645 l0 -648 -33
-12 c-43 -16 -83 -58 -100 -107 -11 -31 -21 -41 -53 -52 -87 -30 -920 -456
-946 -484 -17 -17 -28 -41 -28 -57 0 -24 -8 -32 -65 -60 l-65 -32 0 -110 0
-110 -84 -39 c-78 -36 -88 -38 -128 -29 -24 5 -74 7 -113 5 -145 -11 -225 -65
-225 -153 l0 -44 -232 -114 c-128 -63 -334 -164 -457 -225 -124 -61 -226 -111
-228 -111 -2 0 -3 380 -3 846 l0 845 143 68 c78 38 261 127 407 198 567 278
1120 548 1225 598 61 29 218 106 350 170 132 65 326 159 430 211 105 51 193
93 198 93 4 1 7 -291 7 -647z m92 619 c35 -16 189 -91 343 -166 154 -76 339
-165 410 -200 138 -66 354 -171 730 -355 127 -62 266 -129 310 -150 44 -21
263 -128 488 -238 l407 -201 0 -845 0 -846 -96 48 -97 49 -1 196 c-1 179 -3
198 -21 224 -15 20 -113 74 -365 200 -319 159 -349 172 -401 172 -30 1 -75 -6
-100 -14 -93 -33 -188 -125 -209 -206 l-11 -39 -329 165 -329 165 -3 117 -3
117 -51 29 -52 30 2 61 c1 44 -4 70 -17 89 -13 20 -97 66 -324 177 -169 83
-318 153 -330 156 l-23 6 0 644 c0 354 2 644 5 644 2 0 33 -13 67 -29z m-2928
-1287 l46 -26 0 -853 c0 -670 3 -855 13 -862 6 -6 291 -151 632 -323 341 -172
755 -381 920 -465 165 -84 503 -255 750 -380 248 -125 456 -232 463 -238 12
-9 18 -107 6 -107 -4 0 -30 13 -58 29 -51 28 -270 141 -851 436 -170 87 -400
204 -510 260 -110 56 -416 212 -680 346 -264 133 -547 277 -630 320 l-150 77
-3 906 c-1 498 0 906 2 906 2 0 24 -12 50 -26z m5734 -1790 c-7 -6 -238 -125
-513 -264 -468 -237 -609 -308 -1170 -595 -121 -62 -364 -186 -540 -275 -176
-89 -393 -200 -481 -246 -89 -46 -165 -84 -169 -84 -3 0 -5 23 -3 51 l3 52
175 89 c96 49 519 262 940 475 421 212 860 434 975 493 116 59 319 162 453
229 l242 122 0 859 0 860 48 24 47 24 3 -901 c2 -713 -1 -904 -10 -913z
m-2577 1655 l264 -131 -30 -15 c-17 -9 -40 -25 -52 -36 -30 -27 -56 -99 -51
-137 3 -16 2 -30 -1 -30 -7 0 -61 27 -348 176 -118 61 -207 114 -214 126 -16
30 -2 84 33 124 71 81 89 77 399 -77z m-457 -53 c3 -13 21 -33 38 -44 94 -56
610 -312 630 -312 54 0 118 70 118 129 0 66 -60 93 -107 49 -41 -39 -22 -108
27 -93 30 10 26 37 -5 29 -32 -8 -34 17 -5 46 43 43 80 12 61 -50 -18 -60 -78
-97 -118 -72 -53 34 -22 161 48 198 46 23 94 18 119 -13 32 -41 25 -127 -16
-186 -26 -38 -53 -54 -279 -167 -138 -69 -343 -174 -455 -235 -316 -169 -371
-195 -404 -195 -36 0 -113 35 -250 114 -55 32 -158 87 -230 123 -72 36 -139
72 -148 81 -13 11 -18 30 -18 72 0 42 5 61 18 72 34 29 934 476 963 478 4 0
10 -11 13 -24z m871 -313 c19 -9 35 -20 35 -24 0 -4 -42 -29 -92 -54 -51 -26
-120 -62 -153 -80 -76 -41 -605 -316 -911 -472 l-111 -56 -229 118 c-325 167
-519 267 -522 270 -4 3 67 45 76 45 4 0 15 -12 24 -27 11 -18 75 -58 209 -128
107 -56 243 -128 303 -160 83 -44 120 -58 151 -58 43 0 102 28 485 233 85 46
259 134 386 196 183 90 239 122 268 154 20 22 36 45 36 50 0 13 3 13 45 -7z
m53 -89 c-3 -35 -3 -35 -198 -135 -107 -55 -262 -135 -345 -178 -82 -43 -277
-144 -431 -225 -155 -80 -284 -146 -288 -146 -3 0 -6 15 -6 33 0 29 6 35 57
62 32 17 139 72 238 123 395 205 569 295 760 396 110 58 204 105 208 106 5 0
7 -16 5 -36z m2 -116 l0 -53 -52 -27 c-29 -16 -56 -24 -61 -19 -4 4 -7 28 -5
52 3 41 6 46 53 71 28 15 53 28 58 28 4 0 7 -24 7 -52z m-140 -63 c0 -25 -2
-45 -5 -45 -3 0 -24 9 -47 21 l-41 21 39 24 c22 13 42 24 47 24 4 0 7 -20 7
-45z m507 -180 l322 -160 0 -195 1 -195 357 -179 357 -179 180 93 c100 51 187
99 195 106 12 10 29 5 104 -32 49 -25 87 -47 86 -49 -2 -1 -249 -127 -549
-278 -300 -152 -777 -393 -1060 -536 -283 -143 -655 -332 -827 -418 l-312
-158 -323 164 c-178 90 -444 226 -593 301 -148 76 -522 265 -830 420 -819 414
-995 504 -995 511 0 3 73 41 163 84 89 43 288 141 441 217 154 76 282 138 285
137 3 0 17 -14 30 -30 l23 -30 -42 -131 c-31 -95 -40 -136 -33 -147 13 -20 66
-26 81 -9 10 12 30 77 66 208 7 25 18 45 24 44 7 -1 23 -2 37 -2 l25 -2 2
-197 3 -198 27 -9 c22 -8 32 -6 49 10 21 18 21 25 17 207 l-4 187 22 0 c12 0
29 2 37 5 11 5 21 -18 41 -92 46 -165 50 -173 98 -173 51 0 52 25 3 170 l-45
133 25 25 c22 22 25 34 25 94 0 65 -2 72 -31 99 -17 16 -35 29 -40 29 -24 0
-4 18 46 43 l55 27 80 -42 81 -42 68 34 69 33 168 -88 c93 -48 174 -91 181
-97 7 -5 13 -39 15 -75 l3 -65 72 -40 71 -39 76 42 76 43 0 67 0 67 93 47 c50
26 128 67 172 90 44 24 198 104 343 179 l263 137 66 -36 65 -36 71 39 c40 22
79 36 87 33 9 -3 160 -78 337 -166z m-2298 66 c64 -33 204 -105 311 -161 107
-55 223 -115 258 -133 57 -29 62 -34 62 -64 0 -18 -2 -33 -5 -33 -2 0 -80 39
-172 88 -92 48 -260 134 -373 192 -199 102 -205 106 -208 138 -2 17 0 32 4 32
4 0 59 -27 123 -59z m3074 -10 c228 -109 508 -251 495 -251 -7 0 -40 -13 -73
-29 -100 -48 -161 -131 -172 -235 -3 -31 -8 -56 -12 -56 -3 0 -155 75 -338
166 l-333 167 7 41 c15 102 94 189 206 227 79 28 107 24 220 -30z m-3133 -56
l50 -25 0 -55 0 -55 -60 30 -60 30 0 50 c0 28 5 50 10 50 6 0 33 -11 60 -25z
m125 -62 c19 -9 35 -20 35 -25 0 -7 -72 -48 -85 -48 -3 0 -5 20 -5 45 0 50 4
52 55 28z m-348 -111 c110 -57 86 -131 -53 -167 -79 -20 -149 -19 -227 5 -45
14 -73 30 -90 50 -42 49 -17 89 75 122 75 26 234 21 295 -10z m3058 -104 l125
-63 0 -50 c0 -27 6 -61 13 -75 17 -34 57 -55 90 -46 25 6 27 11 27 56 l0 50
145 -72 145 -73 0 -163 0 -163 -327 166 c-181 91 -331 169 -335 173 -8 9 -22
322 -14 322 3 0 62 -28 131 -62z m880 46 c20 -8 45 -56 45 -86 0 -20 -25 -36
-173 -111 -94 -48 -175 -87 -179 -87 -22 0 7 120 40 169 30 45 97 98 139 111
34 10 106 12 128 4z m-3070 -102 c49 -27 50 -28 53 -79 4 -62 -2 -64 -68 -24
-43 26 -45 29 -48 79 -2 29 1 52 5 52 4 0 31 -13 58 -28z m195 -21 c0 -49 0
-49 -55 -80 -30 -17 -57 -31 -60 -31 -3 0 -5 24 -5 53 0 52 1 52 48 79 67 38
72 36 72 -21z m-1398 12 c49 -26 62 -28 173 -28 110 0 124 2 175 27 30 15 56
25 58 23 8 -8 -27 -54 -50 -66 -37 -20 -120 -39 -170 -39 -106 0 -215 39 -236
84 -6 14 -10 26 -8 26 3 0 28 -12 58 -27z m3628 -97 c0 -51 -19 -65 -56 -41
-20 13 -24 24 -24 70 l0 55 40 -20 c37 -19 40 -23 40 -64z m690 -94 l0 -158
-169 -87 c-92 -48 -173 -87 -180 -87 -8 0 -11 46 -11 158 l0 157 173 87 c94
48 175 87 180 87 4 1 7 -70 7 -157z m-4301 109 c12 -8 9 -29 -20 -127 -34
-117 -59 -156 -78 -125 -8 13 67 261 79 261 3 0 11 -4 19 -9z m383 -119 c40
-123 42 -153 5 -139 -20 8 -90 249 -74 259 7 4 16 6 20 5 5 -1 27 -58 49 -125z
m-202 -72 c6 -199 5 -212 -24 -208 -20 3 -21 9 -24 128 -4 170 4 252 26 248
15 -3 18 -25 22 -168z"/>
<path d="M3770 4127 c-91 -45 -261 -128 -377 -185 l-213 -103 0 -414 c0 -280
3 -416 11 -420 5 -4 110 41 232 100 122 59 293 141 380 183 l157 76 0 423 c0
332 -3 423 -12 422 -7 0 -87 -37 -178 -82z m166 -724 c-2 -2 -31 11 -65 29
l-61 33 0 47 c0 36 -5 50 -21 62 l-21 14 26 35 c35 46 34 60 -4 55 -25 -4 -30
-2 -25 11 4 9 6 104 5 212 l-1 197 83 39 83 40 3 -385 c1 -212 0 -387 -2 -389z
m-196 509 c0 -153 -2 -171 -19 -186 -17 -15 -19 -15 -25 -1 -3 9 -6 29 -6 45
0 34 -22 56 -37 38 -10 -13 -16 -28 -27 -80 l-6 -27 -25 25 c-41 41 -67 25
-40 -25 20 -39 19 -44 -4 -31 -27 14 -51 13 -51 -3 0 -7 11 -28 25 -46 l24
-34 -19 -25 c-24 -30 -25 -57 -5 -96 34 -64 28 -70 -129 -145 -79 -38 -154
-72 -165 -76 -21 -6 -21 -6 -21 287 l0 294 248 119 c136 65 251 122 257 127 5
4 13 8 17 8 4 0 8 -76 8 -168z m-66 -257 c-9 -72 -20 -85 -27 -33 -6 44 -1
107 10 138 10 27 23 -53 17 -105z m-50 -27 c3 -16 4 -28 1 -28 -7 0 -45 88
-45 103 0 18 37 -45 44 -75z m111 50 c-7 -18 -20 -46 -29 -63 -14 -27 -16 -28
-16 -7 0 27 36 102 50 102 5 0 3 -15 -5 -32z m-155 -58 c24 -26 56 -90 45 -90
-2 0 -24 27 -49 60 -48 62 -45 82 4 30z m200 23 c-1 -13 -71 -105 -76 -100 -8
8 16 61 38 85 21 22 38 29 38 15z m-217 -100 c-5 -12 -2 -15 10 -10 10 4 20 0
25 -9 5 -9 27 -17 53 -19 34 -3 48 0 66 17 12 11 26 17 32 13 6 -3 11 1 11 11
0 14 3 15 11 7 21 -21 1 -40 -51 -53 -105 -25 -241 28 -153 59 1 1 -1 -7 -4
-16z m112 -70 c33 3 71 8 84 13 18 5 23 4 19 -7 -15 -44 -238 -34 -238 12 0 4
17 1 37 -8 26 -10 56 -14 98 -10z m-10 -48 c22 0 54 4 71 8 l32 8 -10 -48
c-12 -60 -29 -73 -91 -73 -63 0 -84 12 -97 58 -16 58 -14 62 23 54 17 -4 50
-7 72 -7z m198 -17 l62 -31 -185 -91 c-102 -50 -263 -128 -358 -173 l-172 -82
0 87 0 88 63 29 c34 16 106 51 161 77 54 26 103 48 108 48 4 0 13 -11 17 -23
11 -30 83 -52 132 -42 59 12 77 30 89 90 6 30 13 55 16 55 3 0 33 -14 67 -32z"/>
<path d="M5330 3040 c-253 -131 -531 -272 -597 -303 -35 -17 -63 -36 -63 -43
0 -20 17 -12 344 156 402 205 480 247 484 259 6 19 -10 12 -168 -69z"/>
<path d="M4022 2985 c2 -12 94 -66 278 -162 151 -78 278 -143 283 -143 30 0
-13 29 -140 96 -228 119 -313 164 -371 197 -46 25 -53 27 -50 12z"/>
<path d="M4610 2621 c0 -23 5 -41 10 -41 6 0 10 15 10 34 0 19 -4 38 -10 41
-6 4 -10 -10 -10 -34z"/>
<path d="M5495 1991 l-450 -229 -3 -56 c-3 -54 -2 -57 27 -74 l31 -17 2 -265
3 -265 38 -20 37 -20 38 20 37 20 3 223 c1 127 6 222 11 220 5 -2 57 -28 115
-58 l106 -55 0 -266 0 -265 38 -22 c38 -21 39 -21 73 -3 l34 18 3 259 2 260
135 67 c74 37 137 67 140 67 3 0 5 -11 5 -25 0 -18 9 -29 37 -44 38 -19 38
-19 75 3 36 20 37 23 40 85 l3 63 100 53 c55 30 106 54 113 54 9 1 12 -49 12
-217 l0 -218 38 -22 37 -21 38 22 37 21 0 260 0 261 31 17 c28 17 30 21 27 70
l-3 53 -110 58 c-252 133 -422 217 -435 217 -8 -1 -217 -104 -465 -229z m923
-28 c24 -14 40 -28 35 -33 -4 -4 -201 -105 -438 -224 l-430 -218 -170 88 c-93
47 -208 107 -254 132 l-84 45 444 223 444 222 205 -105 c113 -58 225 -117 248
-130z m60 -85 c-3 -36 25 -20 -565 -317 l-313 -157 0 32 c0 32 1 33 258 163
141 71 336 171 432 220 96 50 179 90 183 90 5 1 7 -13 5 -31z m-48 -333 c0
-231 -1 -245 -19 -255 -11 -5 -22 -10 -25 -10 -3 0 -6 110 -6 245 0 222 2 245
18 254 9 6 20 11 25 11 4 0 7 -110 7 -245z m-70 -25 c0 -238 0 -241 -20 -230
-19 10 -20 21 -20 230 0 198 2 220 18 229 9 6 18 11 20 11 1 0 2 -108 2 -240z
m-857 -17 c63 -33 67 -38 67 -70 l0 -34 -72 39 c-40 22 -149 79 -243 127 -93
48 -176 92 -182 98 -7 5 -13 23 -13 39 l0 30 188 -97 c103 -54 217 -113 255
-132z m-359 91 c14 -5 16 -38 16 -262 0 -254 0 -255 -20 -237 -19 17 -20 31
-20 262 0 133 2 243 4 243 2 0 11 -3 20 -6z m906 -44 c0 -38 -4 -52 -19 -60
-30 -15 -31 -14 -31 36 0 33 5 51 18 60 28 21 32 17 32 -36z m-820 -225 c0
-214 -1 -225 -20 -235 -20 -11 -20 -8 -20 235 0 243 0 246 20 235 19 -10 20
-21 20 -235z m750 195 c0 -22 -4 -40 -8 -40 -28 0 -44 63 -19 73 24 10 27 7
27 -33z m-446 -126 c14 -5 16 -38 16 -260 0 -252 0 -255 -20 -244 -19 10 -20
21 -20 260 0 138 2 250 4 250 2 0 11 -3 20 -6z m86 -259 c0 -135 -2 -245 -4
-245 -2 0 -11 -3 -20 -6 -14 -6 -16 20 -16 239 0 244 1 253 33 256 4 1 7 -109
7 -244z"/>
<path d="M5607 1983 c-205 -105 -206 -99 17 -215 109 -57 180 -88 200 -88 18
1 88 31 171 74 157 83 171 100 113 136 -52 32 -325 170 -337 170 -6 0 -80 -35
-164 -77z m342 -35 c87 -46 160 -87 162 -93 2 -5 -62 -44 -144 -85 l-147 -75
-175 90 c-96 50 -175 92 -175 95 0 9 284 149 303 150 9 0 89 -37 176 -82z"/>
<path d="M5638 1954 c-71 -35 -128 -68 -128 -72 0 -4 65 -41 145 -82 l144 -75
128 65 c70 36 128 70 128 75 0 9 -239 139 -275 149 -8 3 -72 -24 -142 -60z
m250 -19 c59 -30 113 -58 121 -63 10 -7 -16 -25 -98 -66 l-112 -56 -72 37
c-40 20 -96 50 -126 67 l-54 29 104 53 c57 29 110 53 117 53 7 1 61 -24 120
-54z"/>
<path d="M5955 1790 c-3 -5 -1 -10 4 -10 6 0 11 5 11 10 0 6 -2 10 -4 10 -3 0
-8 -4 -11 -10z"/>
<path d="M5326 1753 c-11 -29 15 -41 145 -68 129 -27 199 -30 206 -8 7 20 -52
42 -178 68 -144 30 -165 30 -173 8z m149 -28 c106 -19 120 -23 112 -32 -9 -8
-237 39 -237 49 0 5 8 7 18 4 9 -2 58 -12 107 -21z"/>
<path d="M6920 2286 c0 -37 19 -51 22 -16 0 11 1 25 2 32 1 6 -5 13 -11 16 -9
2 -13 -8 -13 -32z"/>
</g>
</svg>
