<?xml version="1.0" standalone="no"?>
<!DOCTYPE svg PUBLIC "-//W3C//DTD SVG 20010904//EN"
 "http://www.w3.org/TR/2001/REC-SVG-20010904/DTD/svg10.dtd">
<svg version="1.0" xmlns="http://www.w3.org/2000/svg"
 width="1408.000000pt" height="768.000000pt" viewBox="0 0 1408.000000 768.000000"
 preserveAspectRatio="xMidYMid meet">
<metadata>
Created by potrace 1.16, written by Peter Selinger 2001-2019
</metadata>
<g transform="translate(0.000000,768.000000) scale(0.100000,-0.100000)"
fill="#000000" stroke="none">
<path d="M9148 7093 c-25 -29 -43 -72 -82 -195 -20 -65 -65 -189 -100 -275
-87 -216 -125 -334 -139 -428 -9 -69 -16 -87 -52 -135 -76 -101 -106 -150
-187 -303 -44 -84 -103 -184 -131 -224 -43 -62 -49 -76 -45 -110 4 -29 0 -45
-17 -68 -12 -16 -34 -51 -49 -76 -22 -39 -34 -49 -69 -58 -48 -12 -88 -36
-177 -103 -70 -54 -130 -75 -440 -152 -102 -25 -228 -57 -280 -72 -112 -31
-208 -33 -669 -13 -495 21 -844 4 -1064 -52 -177 -45 -294 -96 -532 -231 -210
-120 -260 -162 -363 -301 -105 -142 -174 -303 -241 -562 -44 -173 -65 -233
-112 -328 -70 -138 -182 -263 -283 -314 -60 -30 -156 -41 -209 -24 -107 36
-183 149 -175 260 9 120 108 256 218 297 39 15 56 27 58 42 5 34 -32 46 -138
47 -91 0 -100 -2 -170 -37 -88 -44 -169 -119 -200 -185 -23 -49 -50 -159 -50
-205 0 -20 -6 -27 -23 -30 -19 -3 -22 -10 -25 -53 -7 -98 40 -231 110 -310 26
-30 28 -36 12 -33 -13 2 -20 -3 -22 -18 -4 -29 99 -124 176 -163 68 -34 166
-61 225 -61 21 0 36 -4 33 -9 -4 -5 -3 -16 0 -25 13 -33 175 -11 267 36 22 11
58 33 80 49 36 26 43 28 53 15 16 -22 33 -20 79 10 79 53 160 143 232 262 l34
57 -7 -60 c-3 -33 -16 -94 -27 -135 -31 -118 -32 -138 -9 -142 19 -3 19 -5 -8
-118 -16 -63 -38 -137 -50 -165 -45 -106 -132 -229 -245 -350 -26 -27 -59 -68
-73 -89 l-27 -40 -7 -395 c-3 -218 -9 -446 -14 -508 -12 -193 21 -330 90 -373
56 -34 255 -48 346 -24 120 31 140 52 125 131 -15 83 -77 159 -149 183 -20 6
-41 21 -47 32 -17 31 -23 240 -10 359 12 125 26 169 91 305 79 164 157 271
278 381 58 54 147 136 197 183 49 47 107 101 129 120 l38 35 -22 -45 c-27 -53
-109 -179 -155 -235 -47 -58 -75 -119 -75 -162 0 -44 130 -431 185 -548 20
-44 66 -154 102 -245 68 -174 87 -204 137 -219 92 -27 191 -43 234 -38 164 20
205 27 230 39 24 12 27 19 26 60 0 59 -43 131 -101 172 -34 24 -56 30 -124 36
-61 5 -86 12 -95 25 -19 25 -71 174 -101 285 -32 120 -29 235 11 354 56 167
112 251 282 426 272 281 377 439 435 660 11 41 30 104 41 140 24 75 96 220
109 220 20 0 189 -71 319 -133 161 -77 662 -256 833 -297 134 -33 238 -49 307
-50 l45 0 18 -53 c66 -191 71 -231 98 -762 14 -286 19 -467 15 -599 l-7 -189
47 -44 c60 -58 77 -100 119 -287 46 -208 59 -231 152 -266 45 -17 78 -20 196
-20 181 0 277 23 292 70 9 28 -19 118 -49 159 -35 47 -85 78 -162 102 -62 19
-67 23 -86 66 -11 25 -33 98 -50 162 -27 107 -29 125 -24 236 3 66 10 224 15
350 14 327 22 435 32 405 17 -56 42 -486 35 -616 -6 -122 -5 -133 14 -157 11
-14 29 -29 40 -32 23 -7 47 -70 55 -148 4 -38 19 -81 42 -124 19 -37 46 -98
60 -137 32 -89 43 -102 107 -120 134 -38 280 -38 425 -1 79 20 86 38 47 121
-27 59 -78 119 -116 139 -15 8 -51 17 -81 20 -30 3 -64 8 -76 11 -40 8 -95
143 -128 316 -14 71 -14 107 -5 243 5 88 15 260 20 382 12 271 57 618 106 828
19 77 27 95 136 305 137 261 176 412 185 714 4 161 9 205 30 281 15 55 26 131
30 195 3 65 11 111 19 120 7 9 28 54 46 100 20 51 46 97 64 116 27 26 35 47
58 150 38 166 62 228 110 281 l41 45 252 2 251 2 64 33 c117 60 167 107 236
221 34 58 67 121 72 141 23 83 -25 125 -302 270 -211 110 -248 142 -248 214 0
26 -9 63 -20 84 -23 46 -139 155 -228 214 -54 37 -62 45 -58 68 30 165 38 265
33 404 -6 161 -18 224 -48 251 -35 31 -63 6 -119 -106 -51 -101 -239 -400
-252 -400 -11 0 -46 102 -58 171 -21 122 -61 264 -86 306 -44 75 -103 104
-136 66z m80 -83 c26 -38 50 -117 86 -285 29 -136 87 -267 137 -309 30 -26 59
-34 59 -17 0 23 164 -15 251 -59 66 -34 185 -127 250 -197 41 -44 47 -55 53
-110 5 -44 15 -72 36 -102 35 -48 60 -64 238 -156 72 -38 132 -72 132 -75 0
-3 -13 -11 -28 -18 -32 -14 -52 -49 -52 -90 0 -30 34 -92 50 -92 5 0 16 -15
24 -34 8 -18 24 -40 36 -49 22 -15 22 -17 7 -41 -13 -19 -42 -33 -119 -58
-141 -44 -262 -46 -430 -4 -111 27 -119 28 -143 12 -14 -9 -25 -23 -25 -31 0
-26 42 -38 144 -40 56 -1 133 -7 171 -14 75 -13 160 -7 235 15 41 12 43 12 25
-3 -48 -37 -81 -43 -267 -44 -101 0 -205 -1 -233 -2 -35 0 -65 8 -102 26 -90
46 -132 23 -53 -29 l39 -26 -31 -26 c-46 -39 -83 -128 -120 -285 -27 -119 -35
-140 -54 -147 -12 -5 -25 -18 -29 -29 -9 -29 -39 -27 -149 10 -173 58 -407
200 -579 354 -116 103 -237 233 -287 308 -45 66 -44 74 14 154 19 27 72 118
117 203 67 127 163 283 199 323 5 5 16 -17 25 -49 23 -79 62 -154 80 -154 22
0 19 21 -17 118 -27 76 -32 100 -32 187 0 115 10 149 137 472 41 103 79 202
85 218 24 70 10 -20 -24 -157 -30 -120 -36 -161 -36 -250 0 -98 2 -113 27
-160 28 -53 28 -56 13 -173 -5 -34 26 -22 39 15 20 58 15 112 -13 166 -40 76
-37 193 10 392 26 107 37 177 38 235 0 90 14 150 31 144 7 -2 22 -19 35 -37z
m568 -200 c6 -94 -9 -272 -32 -381 l-5 -27 -47 17 c-41 15 -47 21 -55 56 -10
47 -2 135 19 220 18 69 67 226 85 270 l12 30 8 -40 c5 -22 11 -87 15 -145z
m-161 -111 c-19 -70 -25 -188 -12 -232 7 -25 5 -28 -10 -23 -10 3 -42 7 -71 8
-34 2 -58 8 -68 19 -13 14 -6 28 64 135 43 66 84 130 91 143 21 38 23 17 6
-50z m935 -1055 c60 -40 63 -64 18 -140 -32 -54 -53 -65 -76 -42 -18 18 -15
25 17 31 32 7 56 39 47 63 -7 18 -37 18 -62 -1 -10 -8 -27 -15 -36 -15 -24 0
-52 45 -44 73 11 44 90 61 136 31z m-2038 -409 c174 -208 410 -396 648 -515
102 -51 237 -100 276 -100 30 0 30 -6 0 -75 -25 -54 -25 -55 -68 -55 -260 0
-831 395 -996 688 l-22 39 38 56 c20 31 40 56 43 54 3 -1 40 -43 81 -92z
m-166 -117 c94 -147 262 -306 475 -451 191 -130 378 -215 517 -233 49 -6 52
-8 52 -35 0 -67 -24 -187 -61 -306 -52 -166 -69 -283 -24 -167 14 37 15 29 10
-126 -7 -255 -35 -355 -186 -647 -112 -217 -126 -261 -168 -518 -48 -297 -61
-418 -71 -690 -6 -143 -13 -314 -16 -380 -9 -162 21 -310 92 -462 31 -66 58
-82 150 -93 67 -7 80 -12 111 -42 33 -31 73 -96 73 -116 0 -6 -17 -13 -37 -16
-21 -4 -46 -9 -55 -12 -13 -4 -21 3 -28 23 -20 54 -34 74 -67 94 -31 19 -53
19 -53 -1 0 -5 15 -18 34 -29 39 -24 65 -79 44 -93 -34 -21 -269 9 -299 39 -5
5 -20 42 -34 82 -14 40 -39 96 -56 126 -19 34 -35 83 -45 141 -17 96 -40 144
-78 161 l-23 11 -1 184 c0 178 -14 389 -48 709 -16 145 -16 163 0 254 9 54 25
118 36 143 35 78 126 191 269 332 100 98 156 163 205 237 72 109 140 259 133
296 -3 19 -6 16 -21 -18 -39 -92 -88 -185 -135 -255 -57 -87 -171 -220 -186
-216 -20 5 -142 -107 -209 -192 -120 -152 -134 -198 -181 -587 -15 -124 -31
-340 -40 -530 -8 -176 -17 -341 -21 -367 -8 -60 10 -184 45 -307 49 -168 69
-193 183 -221 26 -7 63 -26 83 -44 39 -34 82 -130 64 -142 -13 -8 -13 -8 -27
42 -17 57 -112 144 -112 102 0 -7 14 -26 31 -44 32 -33 63 -104 50 -116 -4 -5
-36 -9 -71 -10 l-64 -3 -8 40 c-10 44 -62 105 -90 105 -25 0 -23 -7 18 -52 25
-28 34 -47 32 -66 -3 -26 -5 -27 -68 -26 -83 1 -152 30 -175 74 -9 17 -27 84
-41 148 -43 204 -78 292 -129 326 -42 28 -46 46 -34 157 11 102 10 153 -21
784 -17 336 -39 494 -86 617 -17 44 -17 53 -4 110 9 37 15 111 14 178 0 111
-2 119 -46 235 -51 136 -68 198 -68 249 0 20 -5 36 -11 36 -22 0 -2 -158 36
-285 43 -141 54 -255 35 -345 -7 -33 -16 -62 -19 -64 -15 -9 -227 17 -321 39
-212 51 -674 214 -863 304 -222 106 -433 181 -516 181 -14 0 -32 4 -39 9 -25
15 113 34 194 27 76 -7 94 2 49 22 -36 17 -189 15 -255 -3 -110 -29 -196 -81
-294 -178 -109 -107 -151 -168 -234 -332 -62 -124 -186 -311 -250 -378 -48
-50 -379 -365 -511 -486 -118 -108 -155 -155 -246 -314 -124 -216 -150 -327
-143 -617 3 -176 4 -180 28 -203 14 -13 46 -32 71 -41 52 -19 93 -67 110 -132
10 -33 8 -40 -8 -51 -17 -13 -19 -11 -25 27 -11 63 -59 130 -92 130 -13 0 -5
-39 11 -51 20 -18 43 -71 43 -103 0 -28 -21 -36 -92 -36 l-48 0 0 43 c0 49
-29 102 -60 112 -33 11 -35 -1 -6 -43 31 -45 35 -99 9 -104 -30 -6 -100 8
-127 25 -54 36 -57 87 -41 827 5 275 11 382 20 400 8 14 49 64 93 112 178 193
259 354 305 610 13 67 13 80 0 98 -11 16 -12 28 -4 53 33 100 61 430 61 719 0
245 53 426 185 632 39 62 44 86 16 86 -22 0 -91 -100 -150 -218 -79 -156 -109
-336 -111 -652 -1 -182 -6 -207 -55 -297 -64 -116 -209 -303 -236 -303 -4 0
-9 9 -12 20 -8 32 -35 24 -106 -34 -78 -63 -126 -89 -205 -109 -49 -13 -57
-13 -52 -1 14 36 -3 43 -98 43 -51 0 -113 5 -137 11 -57 15 -151 65 -180 96
l-22 24 21 0 c37 0 29 43 -13 71 -65 44 -130 160 -149 266 -4 27 -2 32 17 35
20 3 23 11 29 82 7 77 33 186 47 196 4 3 17 21 29 42 28 45 89 101 140 127 37
19 160 47 168 38 3 -2 -13 -16 -35 -30 -79 -53 -154 -172 -169 -272 -36 -227
168 -412 384 -350 162 46 319 212 418 441 19 43 55 160 81 259 107 422 248
640 510 795 156 92 317 174 410 209 269 102 595 134 1121 111 154 -6 377 -13
495 -13 l214 -2 145 42 c80 24 215 59 300 78 238 54 313 83 400 154 75 60 79
63 117 77 21 7 41 13 44 14 3 0 23 -28 45 -62z m-2049 -1817 l41 -11 -43 -88
c-24 -48 -62 -152 -85 -232 -23 -80 -62 -185 -85 -235 -53 -109 -179 -271
-344 -440 -140 -143 -198 -219 -251 -330 -47 -101 -66 -165 -79 -270 -14 -110
0 -201 55 -365 68 -203 77 -213 202 -224 96 -9 143 -42 178 -125 17 -41 8 -51
-46 -51 -32 0 -37 4 -55 43 -11 23 -35 52 -54 65 -40 26 -47 27 -54 8 -3 -8 9
-23 31 -37 43 -28 65 -75 42 -89 -25 -16 -134 -11 -221 10 -45 10 -86 23 -89
27 -4 4 -24 52 -43 105 -20 53 -71 177 -113 275 -43 98 -87 210 -100 248 -12
39 -41 124 -64 189 -28 82 -39 129 -35 148 4 15 40 74 82 130 83 115 131 196
177 302 18 40 58 104 91 144 109 133 184 246 247 371 79 158 119 219 202 308
77 83 150 139 186 144 38 6 179 -7 227 -20z"/>
<path d="M8991 6448 c-20 -56 -31 -161 -21 -202 9 -40 44 -85 56 -73 4 3 -1
23 -11 43 -18 38 -17 84 1 217 8 55 -8 64 -25 15z"/>
<path d="M9366 6371 c-10 -11 -30 -60 -46 -110 -42 -136 -93 -210 -162 -234
-28 -10 -21 -27 10 -27 16 0 43 13 65 31 61 50 79 89 163 342 8 23 -9 22 -30
-2z"/>
<path d="M9785 6130 c-5 -9 33 -30 54 -30 5 0 14 -7 21 -15 16 -19 40 -19 40
-1 0 36 -97 75 -115 46z"/>
<path d="M9770 6023 c-8 -3 -36 -19 -62 -35 -52 -32 -64 -62 -25 -56 13 1 35
-5 49 -14 42 -28 75 -32 104 -13 20 13 28 14 40 4 11 -9 18 -9 26 -1 8 8 0 26
-32 67 -42 54 -60 63 -100 48z"/>
<path d="M9076 5672 c-11 -18 14 -116 44 -179 56 -114 139 -163 318 -187 62
-9 115 -16 117 -16 3 0 5 6 5 14 0 16 -20 21 -138 36 -182 21 -268 94 -310
258 -19 75 -26 90 -36 74z"/>
<path d="M8987 5593 c-13 -12 -7 -135 9 -196 19 -72 43 -122 98 -201 23 -32
52 -74 65 -94 27 -41 66 -149 76 -213 9 -63 15 -79 27 -79 17 0 3 95 -28 188
-17 54 -46 111 -80 160 -95 136 -132 223 -145 337 -12 108 -12 108 -22 98z"/>
<path d="M9612 5144 c-44 -26 -100 -96 -82 -102 6 -2 35 18 64 46 28 27 62 53
74 56 12 4 22 12 22 17 0 16 -34 9 -78 -17z"/>
<path d="M7761 4773 c-40 -49 -85 -158 -105 -255 -19 -92 -20 -111 -4 -106 6
2 19 42 28 89 21 100 61 204 101 259 16 22 29 42 29 45 0 15 -22 1 -49 -32z"/>
<path d="M7859 4565 c-37 -58 4 -391 57 -473 25 -37 26 -20 4 44 -35 100 -42
144 -49 294 -3 80 -9 141 -12 135z"/>
<path d="M9024 4198 c37 -130 39 -143 33 -300 -4 -87 -3 -158 2 -158 14 0 20
37 27 156 7 116 -4 214 -33 285 -16 41 -40 55 -29 17z"/>
<path d="M5870 4055 c0 -5 12 -46 27 -90 40 -123 44 -286 10 -421 -14 -55 -35
-124 -47 -154 -14 -36 -18 -56 -11 -63 12 -12 41 51 79 173 22 74 26 103 26
230 1 127 -2 154 -23 218 -21 65 -60 134 -61 107z"/>
<path d="M6166 3692 c-3 -5 25 -19 62 -31 176 -61 333 -156 474 -289 126 -119
178 -158 178 -134 0 14 -250 241 -312 283 -81 55 -232 131 -303 153 -91 27
-93 27 -99 18z"/>
<path d="M8922 3470 c-84 -79 -292 -456 -292 -531 0 -34 17 -20 35 29 58 153
176 365 276 495 24 32 13 36 -19 7z"/>
<path d="M8925 2962 c-49 -48 -108 -102 -130 -119 -43 -34 -42 -55 2 -32 34
17 233 212 233 228 0 22 -16 10 -105 -77z"/>
<path d="M4587 2155 c-26 -35 -81 -99 -122 -144 -79 -86 -105 -132 -105 -188
0 -46 22 -39 32 11 12 56 30 86 109 172 79 87 142 178 137 198 -2 7 -25 -15
-51 -49z"/>
<path d="M8118 2175 c-3 -4 -4 -23 -2 -43 27 -240 53 -613 48 -673 -6 -59 -5
-71 7 -67 18 6 32 104 25 178 -24 263 -60 596 -66 603 -3 4 -9 5 -12 2z"/>
<path d="M8774 1853 c-3 -16 -15 -61 -26 -101 -27 -101 -17 -101 15 0 38 122
39 128 28 128 -6 0 -13 -12 -17 -27z"/>
<path d="M5368 2208 c-25 -51 -71 -128 -102 -171 -71 -98 -73 -103 -80 -157
-7 -50 4 -102 22 -108 9 -3 12 16 12 63 0 74 9 97 77 189 78 106 155 276 125
276 -4 0 -28 -42 -54 -92z"/>
</g>
</svg>
