<?xml version="1.0" standalone="no"?>
<!DOCTYPE svg PUBLIC "-//W3C//DTD SVG 20010904//EN"
 "http://www.w3.org/TR/2001/REC-SVG-20010904/DTD/svg10.dtd">
<svg version="1.0" xmlns="http://www.w3.org/2000/svg"
 width="1024.000000pt" height="559.000000pt" viewBox="0 0 1024.000000 559.000000"
 preserveAspectRatio="xMidYMid meet">
<metadata>
Created by potrace 1.16, written by Peter Selinger 2001-2019
</metadata>
<g transform="translate(0.000000,559.000000) scale(0.100000,-0.100000)"
fill="#000000" stroke="none">
<path d="M4985 5014 c-147 -15 -324 -60 -490 -126 -242 -96 -345 -158 -461
-279 -124 -131 -169 -241 -129 -318 13 -26 12 -34 -25 -119 -22 -50 -57 -158
-79 -239 -22 -81 -54 -195 -71 -252 -43 -147 -41 -198 10 -285 55 -94 54 -120
-11 -227 -28 -46 -69 -118 -90 -160 -21 -42 -70 -130 -109 -195 -80 -134 -88
-174 -47 -235 39 -58 91 -85 200 -104 29 -5 40 -12 48 -33 12 -30 5 -96 -15
-145 -17 -43 -5 -88 37 -129 l32 -33 -18 -35 c-26 -51 -16 -95 32 -144 59 -61
65 -85 41 -163 -45 -144 -12 -264 90 -328 70 -44 96 -48 352 -54 228 -6 249
-8 274 -27 49 -36 63 -67 88 -191 16 -82 33 -138 52 -170 71 -123 94 -173 108
-233 8 -36 22 -97 31 -137 l17 -72 39 -6 c101 -17 367 45 592 139 329 137 855
459 907 556 7 13 -2 54 -34 151 -76 234 -114 481 -96 625 6 43 16 84 23 93 15
17 15 19 106 225 34 76 110 233 169 350 109 212 157 337 186 476 59 289 44
547 -49 853 -68 224 -113 312 -236 461 -91 110 -155 168 -274 247 -187 124
-364 191 -635 239 -96 17 -171 23 -325 25 -110 2 -218 1 -240 -1z m356 -35
c339 -34 568 -101 760 -220 183 -114 287 -208 391 -354 138 -193 248 -580 248
-873 0 -272 -51 -472 -193 -752 -103 -203 -207 -424 -259 -547 -16 -40 -34
-75 -39 -78 -15 -10 -63 22 -116 77 -68 73 -113 163 -124 252 -5 39 -14 104
-20 143 l-12 72 36 68 c133 256 97 516 -85 607 -86 43 -196 28 -282 -37 -18
-14 -48 -32 -68 -40 -75 -31 -117 -83 -172 -210 l-25 -58 -63 7 c-121 14 -112
3 -119 140 -9 187 -38 261 -141 362 -35 34 -74 69 -86 78 -29 20 -72 95 -72
126 0 13 14 67 31 119 39 121 48 224 24 304 -13 48 -27 70 -69 111 -123 120
-290 132 -656 49 -80 -18 -175 -36 -212 -40 -60 -7 -67 -5 -77 13 -36 68 14
177 139 302 98 97 187 153 357 224 327 136 612 185 904 155z m-623 -643 c65
-18 132 -56 165 -96 39 -46 52 -96 51 -195 -1 -74 -7 -105 -33 -177 -17 -47
-31 -103 -31 -124 0 -55 38 -110 135 -199 126 -114 153 -176 164 -372 4 -79
12 -138 19 -145 6 -6 55 -13 114 -16 l103 -4 33 80 c30 73 100 172 122 172 5
0 1 -19 -10 -42 -27 -60 -14 -67 23 -12 69 105 150 156 247 157 94 0 167 -51
214 -153 17 -37 21 -64 20 -150 0 -99 -2 -111 -38 -198 -48 -117 -95 -180
-232 -312 -119 -115 -167 -145 -220 -137 -44 7 -92 42 -100 72 -3 13 -13 30
-22 37 -14 12 -15 9 -9 -26 16 -97 131 -145 231 -96 23 11 95 74 161 140 66
66 123 120 127 120 3 0 9 -30 12 -67 15 -171 31 -224 97 -323 41 -62 78 -98
128 -128 l33 -20 3 -179 c3 -206 24 -323 95 -534 l41 -124 -53 -48 c-63 -57
-131 -103 -339 -228 -397 -239 -754 -379 -1005 -396 l-82 -6 -12 59 c-29 145
-44 194 -82 264 -80 147 -90 173 -108 277 -24 133 -53 186 -119 216 -39 18
-70 22 -205 25 l-158 4 146 49 c138 46 226 83 226 94 0 3 -17 -2 -37 -11 -21
-9 -110 -41 -198 -72 -199 -68 -266 -74 -358 -29 -67 33 -101 77 -117 152 -9
42 -7 63 10 129 26 101 25 122 -5 174 l-24 42 24 0 c32 0 135 39 135 51 0 5
-16 3 -35 -5 -45 -19 -118 -30 -150 -22 -20 5 -25 13 -25 37 0 17 8 44 18 61
17 30 18 30 87 24 218 -17 240 -19 254 -34 22 -22 27 3 7 33 -13 19 -22 24
-41 19 -17 -4 -57 11 -149 60 -123 65 -157 75 -185 57 -30 -19 -41 -2 -25 41
19 54 18 148 -1 175 -10 15 -37 26 -86 38 -124 28 -169 65 -169 139 0 33 11
59 51 121 28 44 70 118 94 165 24 47 73 137 109 199 82 143 84 165 25 263 -41
67 -41 70 -36 141 3 39 21 124 40 187 19 63 47 162 62 220 15 58 46 149 68
203 36 89 42 97 67 97 29 0 194 30 305 56 195 45 339 55 433 30z m-781 -2135
c54 -26 105 -51 113 -55 8 -3 -5 -4 -30 -1 -25 3 -82 8 -127 12 -71 5 -86 9
-112 34 -37 33 -39 46 -8 52 51 10 71 5 164 -42z"/>
<path d="M4105 3570 c-129 -20 -241 -61 -251 -92 -7 -24 19 -65 52 -80 21 -10
40 -7 107 15 185 59 257 57 457 -13 69 -25 112 -35 116 -29 13 21 -114 111
-237 169 -73 34 -152 44 -244 30z m186 -35 c55 -19 161 -73 191 -98 20 -17 21
-18 3 -12 -213 71 -337 73 -488 10 -20 -8 -47 -15 -61 -15 -27 0 -56 23 -56
45 0 17 67 44 170 65 106 23 184 24 241 5z"/>
<path d="M4099 3343 c-13 -16 -33 -32 -43 -36 -15 -6 -16 -10 -6 -22 7 -8 21
-15 31 -15 14 0 19 -7 19 -30 0 -17 7 -47 15 -67 11 -25 12 -40 5 -47 -21 -21
-10 -57 31 -99 43 -45 43 -36 -3 27 -15 21 -28 42 -28 46 0 4 35 9 78 12 63 4
89 10 139 37 41 22 68 31 82 26 12 -4 21 -2 21 4 0 19 -202 111 -268 122 -81
14 -78 34 5 33 51 -1 76 -8 157 -48 54 -27 99 -46 102 -43 8 8 -112 77 -172
98 -30 11 -74 22 -98 25 -38 6 -45 3 -67 -23z m96 -87 c14 -10 17 -21 12 -51
-4 -21 -13 -46 -22 -54 -13 -14 -17 -14 -31 1 -9 9 -19 39 -22 67 -4 49 -3 51
20 51 13 0 32 -6 43 -14z m112 -35 l68 -30 -55 -24 c-30 -13 -68 -27 -84 -31
-25 -6 -28 -5 -21 11 4 10 10 37 12 61 3 23 7 42 8 42 2 0 34 -13 72 -29z"/>
<path d="M5728 3267 c-60 -46 -90 -104 -96 -187 -5 -74 8 -128 38 -155 24 -22
25 -9 4 44 -8 21 -14 53 -12 70 l3 31 53 -35 c67 -46 92 -86 92 -148 0 -82
-43 -137 -107 -137 -23 0 -44 -10 -71 -34 -35 -32 -51 -40 -79 -37 -21 2 -15
46 8 67 43 39 52 71 39 135 -15 72 -35 68 -27 -5 5 -54 -1 -72 -40 -119 -31
-38 -30 -82 2 -103 30 -20 56 -12 104 31 20 18 53 35 73 39 72 13 128 82 128
156 0 82 -42 145 -122 186 -52 27 -57 40 -34 95 40 94 144 136 215 87 61 -41
76 -79 75 -193 0 -84 -5 -110 -26 -162 -28 -66 -65 -123 -123 -188 -62 -70
-37 -63 32 9 76 80 114 155 138 275 38 186 -31 311 -173 311 -42 0 -58 -6 -94
-33z"/>
<path d="M5021 2822 c-27 -54 -107 -138 -223 -239 -54 -46 -105 -99 -113 -116
-15 -31 -15 -31 2 -8 9 13 68 66 130 117 62 52 131 118 154 146 43 55 84 127
75 135 -2 3 -14 -13 -25 -35z"/>
<path d="M3932 2707 c47 -38 62 -112 32 -155 -8 -12 -32 -31 -52 -42 l-37 -19
33 -1 c52 0 92 45 92 105 0 52 -19 96 -52 119 -34 24 -47 19 -16 -7z"/>
<path d="M4030 2604 c0 -11 123 -214 127 -210 4 4 -116 216 -123 216 -2 0 -4
-3 -4 -6z"/>
<path d="M3681 2571 c-26 -16 -2 -31 40 -25 26 5 54 1 85 -11 46 -17 62 -16
49 5 -20 32 -139 53 -174 31z"/>
<path d="M3799 2367 c-2 -37 -1 -67 3 -67 13 0 21 71 11 103 -9 29 -10 26 -14
-36z"/>
<path d="M5426 2352 c-5 -8 -19 -61 -32 -117 -28 -123 -69 -211 -127 -268 -59
-58 -181 -128 -416 -237 -121 -56 -198 -97 -192 -103 17 -17 397 156 536 243
79 50 144 121 178 194 39 83 87 341 53 288z"/>
<path d="M4280 2172 c11 -29 21 -62 21 -75 1 -15 3 -17 6 -5 6 22 -13 88 -31
113 -11 14 -9 4 4 -33z"/>
<path d="M5981 2056 c-50 -135 -155 -552 -175 -700 -6 -48 4 -40 14 11 37 193
117 512 166 662 28 88 25 106 -5 27z"/>
<path d="M3911 1876 c7 -7 119 -45 119 -40 0 8 -84 44 -104 44 -11 0 -17 -2
-15 -4z"/>
<path d="M5260 1533 c-40 -120 -100 -289 -132 -377 -32 -87 -57 -160 -55 -163
6 -6 99 222 147 362 52 152 122 386 117 391 -2 2 -37 -94 -77 -213z"/>
</g>
</svg>
