<?xml version="1.0" standalone="no"?>
<!DOCTYPE svg PUBLIC "-//W3C//DTD SVG 20010904//EN"
 "http://www.w3.org/TR/2001/REC-SVG-20010904/DTD/svg10.dtd">
<svg version="1.0" xmlns="http://www.w3.org/2000/svg"
 width="1024.000000pt" height="559.000000pt" viewBox="0 0 1024.000000 559.000000"
 preserveAspectRatio="xMidYMid meet">
<metadata>
Created by potrace 1.16, written by Peter Selinger 2001-2019
</metadata>
<g transform="translate(0.000000,559.000000) scale(0.100000,-0.100000)"
fill="#000000" stroke="none">
<path d="M5880 4334 c-461 -40 -791 -146 -1220 -389 -238 -135 -433 -219 -775
-335 -297 -100 -417 -148 -563 -225 -134 -71 -200 -117 -295 -205 -131 -121
-209 -251 -244 -403 -35 -154 -17 -518 34 -697 85 -297 436 -540 1035 -715
501 -148 959 -153 1393 -18 280 87 481 196 942 509 115 77 278 181 363 229
383 218 568 352 709 516 121 141 165 237 196 434 23 143 26 471 6 565 -48 222
-205 393 -496 540 -169 86 -345 140 -570 175 -97 15 -423 27 -515 19z m345
-54 c77 -6 167 -15 200 -20 495 -84 886 -330 969 -611 55 -184 -30 -388 -248
-597 -142 -136 -275 -229 -601 -417 -93 -54 -269 -160 -390 -235 -418 -260
-556 -335 -770 -423 -215 -87 -391 -134 -610 -163 -178 -22 -509 -16 -677 15
-625 111 -1114 389 -1239 702 -30 75 -36 196 -15 279 51 200 259 411 546 555
111 56 280 122 460 180 335 109 546 199 820 350 457 251 802 361 1200 384 198
12 203 12 355 1z m1195 -1103 c-12 -143 -31 -247 -57 -317 -60 -158 -227 -339
-467 -505 -54 -38 -97 -64 -94 -59 39 82 58 127 58 138 0 15 27 100 45 141 38
85 28 116 -44 142 l-48 17 81 54 c245 164 433 355 510 517 27 56 30 30 16
-128z m-550 -485 c43 -21 48 -45 21 -109 -10 -26 -32 -88 -47 -137 -37 -120
-73 -170 -167 -228 -99 -62 -210 -118 -232 -118 -14 0 -16 5 -10 28 20 80 18
98 -15 125 -48 41 -109 37 -221 -13 -49 -22 -98 -40 -109 -40 -23 0 -27 28 -9
62 6 11 7 18 1 14 -5 -3 -15 -20 -22 -37 -12 -28 -12 -33 5 -45 22 -16 35 -13
135 33 98 45 165 53 203 23 30 -24 35 -55 15 -110 -9 -28 -8 -35 5 -45 15 -11
9 -17 -46 -51 -61 -37 -150 -97 -397 -266 -286 -195 -497 -303 -760 -386 -369
-117 -777 -122 -1220 -16 -132 32 -406 123 -485 161 l-60 28 -33 110 c-25 81
-34 130 -34 185 -1 50 -4 67 -9 50 -11 -38 -10 -115 1 -146 6 -15 19 -57 29
-93 10 -36 22 -74 26 -83 7 -17 5 -17 -31 -2 -22 9 -67 33 -101 53 -74 43 -97
82 -114 191 -6 41 -24 106 -41 143 -30 70 -56 172 -47 182 3 3 39 -17 80 -44
226 -150 577 -277 913 -331 532 -85 1013 -7 1517 245 158 78 211 109 534 310
143 89 341 208 440 264 99 57 184 107 190 112 12 12 46 4 95 -19z m-4020 -259
c38 -68 140 -185 199 -228 38 -28 41 -33 41 -80 0 -54 14 -106 54 -200 14 -33
26 -73 26 -90 0 -16 9 -54 19 -82 10 -29 15 -53 11 -53 -15 0 -138 101 -192
157 -107 113 -147 201 -173 383 -15 105 -27 250 -21 250 2 0 19 -26 36 -57z"/>
<path d="M5955 4234 c-170 -13 -426 -52 -565 -86 -109 -27 -302 -100 -360
-136 -29 -18 -45 -35 -45 -47 0 -18 7 -20 80 -18 44 1 153 3 243 4 89 2 162 6
162 10 0 15 -180 22 -305 12 -71 -6 -134 -8 -138 -4 -9 9 94 54 243 105 114
40 273 74 475 102 161 22 483 25 600 6 208 -35 301 -63 342 -102 32 -31 26
-51 -22 -75 -90 -44 -166 -87 -162 -91 7 -7 191 74 215 95 55 49 1 115 -128
155 -161 51 -454 83 -635 70z"/>
<path d="M6017 4129 c46 -48 62 -74 111 -179 11 -23 12 -23 6 10 -13 80 -78
176 -138 207 -27 13 -24 8 21 -38z"/>
<path d="M6168 4072 c9 -35 18 -58 20 -52 6 18 -7 75 -22 95 -11 15 -10 5 2
-43z"/>
<path d="M6730 3946 c-70 -20 -116 -43 -154 -76 l-35 -31 -38 20 c-131 66
-345 50 -540 -41 -49 -23 -70 -28 -100 -23 -55 9 -110 32 -157 64 -61 42 -122
71 -148 71 -17 0 -11 -7 28 -28 28 -16 66 -40 85 -55 47 -36 138 -77 172 -77
32 0 33 -7 7 -40 -34 -43 -22 -54 18 -15 113 113 403 181 564 132 152 -46 159
-134 18 -236 -74 -54 -90 -79 -90 -139 0 -72 66 -137 225 -222 124 -66 153
-89 202 -157 57 -81 86 -103 133 -103 46 0 92 30 178 113 146 143 218 301 210
461 -6 108 -45 193 -127 275 -64 64 -104 82 -232 105 -102 19 -158 19 -219 2z
m231 -32 c46 -8 103 -26 126 -40 58 -33 120 -107 156 -184 27 -57 30 -76 30
-150 0 -97 -21 -167 -77 -259 -69 -112 -225 -261 -275 -261 -36 0 -56 16 -110
89 -55 74 -100 108 -239 181 -103 55 -147 91 -173 142 -31 60 -16 92 76 159
52 37 81 67 95 95 25 50 25 71 1 111 -18 29 -18 32 -3 45 97 81 224 104 393
72z"/>
<path d="M6955 3686 c44 -8 102 -19 129 -25 27 -7 51 -10 53 -7 10 10 -117 38
-187 42 l-75 3 80 -13z"/>
<path d="M6690 3660 c181 -14 371 -86 475 -178 17 -15 8 -4 -19 25 -95 100
-271 164 -446 162 l-105 -2 95 -7z"/>
<path d="M4999 3900 c-103 -10 -204 -23 -225 -30 -37 -12 -171 -76 -244 -117
-86 -48 -345 -147 -675 -259 -186 -63 -238 -92 -233 -131 4 -38 38 -57 190
-110 76 -25 136 -48 135 -50 -2 -1 -71 11 -153 28 -187 40 -292 42 -419 10
-119 -30 -188 -69 -262 -144 -126 -129 -174 -228 -181 -377 -5 -110 12 -166
77 -267 82 -128 159 -178 271 -177 77 1 125 17 366 120 98 42 235 98 304 125
69 26 120 48 114 49 -28 1 -256 -79 -414 -145 -241 -100 -303 -119 -376 -118
-72 1 -108 17 -168 79 -62 63 -113 149 -133 227 -58 220 129 511 385 599 96
33 259 31 439 -6 118 -23 356 -47 343 -33 -3 2 -33 12 -67 21 -89 22 -391 136
-409 153 -8 8 -12 19 -8 24 10 17 78 47 214 92 136 46 369 128 470 167 30 11
143 63 250 115 186 91 200 96 300 109 378 51 539 48 661 -15 22 -11 67 -44 99
-74 34 -32 75 -59 99 -66 23 -7 41 -18 41 -26 0 -29 -56 -96 -114 -138 -60
-42 -191 -119 -325 -192 -216 -117 -368 -215 -568 -365 -61 -46 -147 -104
-190 -128 -194 -110 -242 -150 -180 -150 82 1 291 105 565 281 86 55 350 199
365 199 4 0 -10 -26 -32 -57 -21 -32 -50 -80 -64 -108 -26 -53 -90 -245 -84
-252 2 -2 19 36 37 84 41 109 90 209 144 291 36 56 50 68 118 103 43 21 80 39
83 39 3 0 -17 -24 -46 -52 -62 -65 -130 -165 -169 -252 -43 -95 -37 -92 21 9
58 103 176 262 221 300 40 34 221 125 317 159 55 20 102 28 182 33 99 5 110 4
146 -16 21 -13 74 -61 117 -108 72 -77 88 -89 191 -138 142 -68 194 -121 227
-228 19 -63 20 -73 7 -96 -32 -58 -231 -143 -364 -156 -87 -9 -154 -25 -199
-47 -55 -28 -134 -105 -167 -163 -34 -60 -103 -129 -184 -183 -95 -63 -286
-166 -423 -227 -163 -74 -458 -173 -519 -175 -23 0 -13 36 27 101 124 200 170
310 209 496 35 171 26 168 -51 -15 -95 -229 -178 -361 -303 -481 -116 -111
-147 -124 -303 -129 -199 -6 -398 22 -632 90 -247 71 -380 132 -380 173 0 38
60 79 264 181 116 58 225 117 241 131 17 13 21 20 10 15 -64 -31 -194 -91
-288 -133 -191 -84 -257 -134 -257 -193 0 -61 57 -97 270 -169 233 -79 377
-108 623 -128 256 -20 326 2 476 149 103 101 190 230 247 364 44 106 56 104
20 -4 -29 -91 -76 -184 -156 -314 -59 -96 -72 -136 -48 -150 53 -33 371 63
643 196 315 152 472 267 560 410 70 112 153 153 358 180 137 17 301 92 343
155 36 55 -1 187 -75 267 -37 41 -65 57 -201 121 -28 13 -85 62 -150 128 -75
75 -116 110 -144 119 -49 16 -204 8 -291 -14 -96 -25 -814 -392 -1000 -511
-88 -56 -203 -125 -255 -154 -94 -52 -239 -115 -246 -108 -2 2 51 35 118 72
113 64 202 124 402 268 85 62 213 143 311 197 33 18 109 59 169 92 253 139
328 191 372 258 17 26 24 49 22 71 -3 33 -9 39 -65 59 -18 7 -52 32 -75 57
-83 86 -226 134 -393 132 -49 -1 -174 -10 -276 -19z"/>
<path d="M6143 3805 c-102 -28 -213 -101 -213 -141 0 -60 56 -84 192 -84 110
0 163 12 245 54 91 46 119 99 77 147 -34 39 -197 52 -301 24z m239 -27 c46
-13 64 -39 48 -68 -6 -11 -45 -36 -88 -57 -76 -37 -78 -37 -203 -38 -170 0
-212 21 -151 77 85 80 276 122 394 86z"/>
<path d="M4945 3690 c-105 -9 -215 -26 -224 -36 -3 -4 12 -4 34 -1 22 4 110
12 195 18 85 6 182 14 215 18 57 8 55 8 -35 8 -52 0 -135 -3 -185 -7z"/>
<path d="M5205 3594 c-88 -7 -171 -13 -184 -13 -13 -1 -22 -4 -18 -7 8 -8 359
14 407 26 l35 8 -40 0 c-22 0 -112 -6 -200 -14z"/>
<path d="M4105 3358 c51 -15 399 -14 440 0 25 9 21 10 -30 6 -101 -8 -245 -9
-350 -2 -83 6 -93 5 -60 -4z"/>
<path d="M5990 3278 c-71 -114 -114 -207 -154 -329 -35 -105 -71 -270 -63
-292 2 -6 9 17 16 53 38 190 125 414 238 608 44 75 15 44 -37 -40z"/>
<path d="M5126 3310 c-59 -18 -249 -41 -460 -55 -120 -8 -221 -17 -224 -19 -7
-8 290 3 428 15 110 10 246 36 300 58 21 8 22 10 5 10 -11 -1 -33 -5 -49 -9z"/>
<path d="M6022 3098 c-26 -82 -45 -164 -40 -179 2 -6 18 45 35 113 17 67 29
124 28 126 -2 2 -12 -25 -23 -60z"/>
<path d="M4195 3135 c-15 -5 -217 -23 -394 -36 -85 -7 -166 -15 -180 -20 -21
-7 -18 -8 14 -4 22 2 110 7 195 10 85 4 215 13 288 21 74 8 166 14 205 15 40
1 97 4 127 9 41 5 17 7 -95 8 -82 0 -154 -1 -160 -3z"/>
<path d="M6426 3055 c4 -11 19 -53 32 -93 14 -39 27 -71 28 -69 8 8 -29 124
-47 152 -12 16 -17 21 -13 10z"/>
<path d="M3560 2959 c-95 -10 -210 -32 -283 -56 -76 -24 -51 -23 63 3 58 13
161 31 230 40 183 22 176 32 -10 13z"/>
<path d="M4370 2949 c-59 -24 -276 -79 -405 -104 -77 -14 -169 -32 -205 -40
l-65 -14 65 5 c85 8 250 38 375 69 123 30 314 97 269 94 -5 0 -20 -5 -34 -10z"/>
<path d="M3879 2726 c-2 -3 -118 -28 -257 -56 -238 -48 -358 -79 -392 -102
-12 -7 -11 -8 5 -3 48 15 167 44 240 59 317 62 483 103 429 105 -11 1 -23 -1
-25 -3z"/>
<path d="M5381 2573 c-29 -107 -53 -186 -105 -338 -20 -57 31 51 56 120 32 87
91 320 86 336 -2 5 -19 -48 -37 -118z"/>
<path d="M4779 2573 c-64 -86 -242 -266 -341 -345 -49 -39 -88 -72 -88 -75 0
-2 35 20 78 49 133 92 299 263 387 401 30 47 9 29 -36 -30z"/>
<path d="M6021 2409 c-1 -27 24 -58 36 -45 3 3 1 6 -5 6 -6 0 -16 15 -21 33
-9 30 -9 30 -10 6z"/>
<path d="M4101 2294 c-118 -66 -244 -168 -294 -239 -12 -18 6 -5 44 30 76 72
157 134 258 198 88 55 83 62 -8 11z"/>
<path d="M4600 2217 c-41 -40 -100 -94 -130 -120 -40 -35 -44 -41 -15 -20 72
50 135 106 181 160 25 29 44 53 42 53 -2 0 -37 -33 -78 -73z"/>
</g>
</svg>
