<?xml version="1.0" standalone="no"?>
<!DOCTYPE svg PUBLIC "-//W3C//DTD SVG 20010904//EN"
 "http://www.w3.org/TR/2001/REC-SVG-20010904/DTD/svg10.dtd">
<svg version="1.0" xmlns="http://www.w3.org/2000/svg"
 width="1024.000000pt" height="559.000000pt" viewBox="0 0 1024.000000 559.000000"
 preserveAspectRatio="xMidYMid meet">
<metadata>
Created by potrace 1.16, written by Peter Selinger 2001-2019
</metadata>
<g transform="translate(0.000000,559.000000) scale(0.100000,-0.100000)"
fill="#000000" stroke="none">
<path d="M5580 4791 c-45 -15 -91 -41 -385 -221 -159 -97 -380 -230 -490 -295
-110 -65 -207 -125 -216 -134 -9 -9 -28 -47 -43 -86 -30 -80 -68 -139 -109
-169 -22 -17 -42 -20 -100 -20 -40 1 -90 6 -111 12 -59 17 -33 31 -676 -361
-571 -348 -670 -413 -756 -494 -29 -27 -30 -32 -32 -118 -2 -50 2 -163 7 -252
l9 -163 50 -74 c92 -137 125 -265 125 -486 0 -179 -23 -291 -83 -412 l-42 -83
7 -220 c11 -350 18 -415 45 -437 28 -23 85 -23 188 -2 71 14 991 218 1037 229
11 3 94 21 185 40 91 20 282 63 425 95 352 80 870 195 1035 231 211 45 273 63
281 79 4 8 15 35 25 58 23 56 81 105 149 127 50 15 58 15 109 1 30 -9 64 -27
77 -42 48 -52 63 -64 80 -64 32 0 374 77 874 195 83 20 165 39 182 42 43 7 48
15 72 103 24 93 45 253 68 520 24 292 24 947 -1 1185 -21 205 -41 323 -66 379
-56 131 -526 442 -920 609 -334 141 -884 267 -1000 228z m323 -82 c175 -35
436 -112 597 -176 109 -43 343 -157 458 -223 155 -88 484 -331 469 -347 -4 -3
-145 -34 -407 -87 -69 -14 -280 -57 -470 -96 -190 -39 -423 -86 -518 -105
l-174 -35 -29 20 c-48 35 -169 72 -251 77 -138 10 -282 -35 -334 -103 -21 -27
-25 -42 -22 -79 2 -25 3 -45 3 -45 -2 -1 -800 -163 -935 -190 -107 -21 -339
-69 -515 -105 -176 -36 -374 -77 -440 -90 -196 -39 -513 -106 -567 -120 -16
-4 -28 -5 -28 -2 0 15 286 193 890 557 113 68 257 155 320 194 109 67 118 70
165 66 28 -2 93 -4 146 -3 83 0 105 5 158 28 107 48 161 133 141 220 -5 22
-10 43 -10 47 0 3 94 62 210 130 115 67 290 172 387 232 479 294 442 276 553
268 30 -2 122 -17 203 -33z m-1417 -750 c-41 -61 -47 -46 -13 31 30 65 32 68
35 39 2 -21 -5 -44 -22 -70z m2983 -86 c32 -119 61 -535 61 -878 0 -435 -45
-992 -92 -1129 l-13 -39 -120 -29 c-66 -15 -167 -39 -225 -52 -58 -14 -163
-38 -235 -55 -337 -79 -438 -101 -454 -101 -9 0 -30 14 -47 31 -49 52 -100 73
-179 73 -117 -1 -212 -62 -260 -170 -23 -49 -25 -51 -72 -58 -40 -5 -724 -154
-858 -186 -56 -14 -933 -211 -1025 -230 -155 -33 -349 -76 -475 -105 -355 -81
-606 -135 -630 -135 -17 0 -28 7 -34 23 -4 12 -11 108 -14 212 -4 105 -10 231
-13 280 l-7 90 48 13 c26 7 78 32 115 56 141 91 230 266 230 449 0 104 -15
167 -61 265 -64 133 -167 225 -313 278 l-61 22 -6 73 c-4 41 -10 144 -14 230
l-8 155 104 18 c172 30 507 94 794 152 149 30 579 117 957 193 l687 138 11
-33 c14 -42 75 -104 123 -128 85 -40 218 -36 307 9 86 44 180 167 180 237 0
36 11 45 70 57 149 28 1512 307 1517 310 1 1 7 -16 12 -36z m-1746 -212 c32
-13 69 -33 83 -44 23 -21 24 -23 10 -73 -7 -29 -28 -73 -45 -98 -60 -87 -137
-126 -251 -126 -69 0 -102 10 -153 44 -30 20 -77 93 -77 118 0 9 -7 21 -15 28
-8 7 -15 28 -15 47 0 47 44 87 123 113 86 28 255 23 340 -9z m-2844 -1283
c106 -71 178 -169 217 -296 22 -74 19 -231 -6 -308 -22 -66 -81 -162 -122
-201 -26 -25 -140 -95 -145 -89 -2 2 10 36 26 77 89 222 81 581 -17 782 -21
43 -33 77 -27 77 7 0 40 -19 74 -42z"/>
<path d="M5635 4610 c3 -5 20 -10 37 -10 72 0 440 -90 551 -135 9 -4 17 -3 17
3 0 14 -130 63 -250 96 -172 46 -371 72 -355 46z"/>
<path d="M6420 4402 c0 -5 44 -28 97 -53 121 -55 113 -52 113 -40 0 11 -174
101 -196 101 -8 0 -14 -4 -14 -8z"/>
<path d="M6045 4241 c-84 -38 -99 -96 -36 -138 47 -32 94 -43 176 -42 120 1
188 43 166 102 -13 32 -66 67 -103 67 -15 0 -33 7 -42 15 -21 21 -111 19 -161
-4z m120 -25 c8 -7 32 -16 55 -20 53 -8 100 -32 100 -51 0 -32 -49 -49 -144
-49 -75 0 -98 3 -134 22 -56 30 -54 56 7 89 50 26 96 30 116 9z"/>
<path d="M5145 4231 c-77 -19 -161 -79 -170 -121 -15 -69 50 -113 165 -113
190 0 311 95 238 188 -12 15 -36 34 -54 41 -35 15 -128 17 -179 5z m162 -48
c19 -9 40 -27 46 -41 10 -22 8 -28 -22 -53 -81 -67 -307 -71 -319 -6 -6 32 60
84 138 108 44 13 121 10 157 -8z"/>
<path d="M6832 4064 c-33 -46 -36 -68 -7 -44 20 17 47 68 43 81 -2 6 -18 -11
-36 -37z"/>
<path d="M6901 4058 c2 -13 0 -29 -4 -35 -5 -8 -3 -13 7 -13 21 0 28 15 20 45
-8 31 -27 33 -23 3z"/>
<path d="M4846 3739 c-37 -41 -43 -68 -17 -77 10 -3 12 0 8 12 -5 12 7 31 38
61 34 35 40 45 26 45 -10 0 -35 -18 -55 -41z"/>
<path d="M4950 3699 c-15 -28 -4 -38 15 -13 17 22 19 34 5 34 -5 0 -14 -9 -20
-21z"/>
<path d="M3930 3568 c-126 -65 -85 -165 56 -139 142 27 187 95 91 141 -53 26
-93 25 -147 -2z m100 -18 c0 -5 11 -12 25 -16 36 -9 31 -27 -12 -48 -76 -36
-172 -29 -147 11 21 35 134 80 134 53z"/>
<path d="M7355 3698 c14 -65 26 -196 37 -400 7 -126 16 -228 21 -228 14 0 1
399 -16 505 -8 50 -18 102 -22 118 -9 32 -28 37 -20 5z"/>
<path d="M6615 3400 c-46 -14 -107 -71 -140 -131 -27 -48 -30 -63 -30 -140 0
-76 3 -90 27 -126 34 -52 87 -77 159 -77 213 2 338 325 174 450 -30 23 -49 29
-99 31 -33 1 -75 -2 -91 -7z m161 -65 c65 -50 73 -173 16 -261 -47 -73 -91
-99 -168 -99 -56 0 -66 3 -93 29 -70 67 -65 188 11 286 56 72 170 94 234 45z"/>
<path d="M4890 3052 c0 -4 16 -23 35 -42 37 -36 34 -56 -7 -62 -23 -3 -34 -19
-43 -60 -5 -28 -48 -58 -81 -58 -14 0 -15 10 -9 83 9 102 -8 95 -26 -11 -11
-64 -10 -75 4 -89 18 -18 46 -13 95 17 33 21 36 24 46 73 5 20 12 27 29 27 27
0 47 17 47 40 0 9 -17 33 -38 53 -37 37 -52 45 -52 29z"/>
<path d="M5651 2819 c-93 -18 -189 -100 -240 -204 -26 -53 -31 -74 -31 -137 0
-66 4 -80 33 -128 43 -73 104 -105 197 -104 119 1 214 66 269 184 22 47 26 69
26 150 0 83 -3 101 -25 140 -44 77 -135 117 -229 99z m119 -61 c83 -42 113
-157 74 -288 -20 -67 -101 -153 -160 -169 -113 -31 -198 0 -245 91 -57 110 26
294 163 362 64 32 110 33 168 4z"/>
<path d="M3656 2790 c-102 -40 -169 -139 -170 -251 0 -56 4 -73 28 -109 68
-103 213 -105 324 -5 137 123 127 308 -20 370 -49 20 -102 18 -162 -5z m151
-40 c112 -50 110 -199 -2 -298 -96 -85 -219 -81 -264 7 -51 100 3 236 114 287
61 29 97 30 152 4z"/>
<path d="M7390 2650 c-1 -121 -18 -308 -45 -496 -25 -168 -27 -216 -6 -162 12
32 48 266 61 397 13 130 13 301 0 321 -7 10 -10 -8 -10 -60z"/>
<path d="M7035 2634 c-14 -15 -25 -31 -25 -35 0 -16 20 -9 32 11 22 34 44 24
58 -25 14 -52 10 -60 -31 -60 -42 0 -40 -19 2 -23 69 -6 82 33 41 118 -22 44
-45 49 -77 14z"/>
<path d="M6625 2314 c-75 -28 -125 -97 -125 -173 0 -75 51 -121 133 -121 57 0
105 32 135 90 63 125 -23 249 -143 204z m92 -56 c43 -48 38 -111 -12 -164 -26
-28 -40 -34 -72 -34 -61 0 -93 30 -93 87 0 41 5 51 44 89 51 52 98 60 133 22z"/>
<path d="M4910 2261 c-118 -36 -200 -146 -200 -271 0 -187 178 -261 320 -133
117 106 140 274 48 360 -47 44 -112 61 -168 44z m121 -68 c67 -56 75 -130 27
-224 -75 -143 -229 -175 -288 -59 -26 52 -25 113 4 176 24 52 93 120 130 127
60 12 95 6 127 -20z"/>
<path d="M4162 2160 c-31 -34 -84 -144 -77 -162 8 -19 32 -31 47 -22 5 3 1 12
-9 19 -17 13 -17 15 1 52 10 21 31 57 46 80 31 45 25 68 -8 33z"/>
<path d="M4212 2051 c2 -14 9 -26 16 -29 17 -5 15 10 -3 34 -15 18 -15 18 -13
-5z"/>
<path d="M3645 1635 c-47 -17 -62 -31 -86 -78 -27 -52 -28 -141 -1 -176 68
-92 189 -94 274 -4 77 81 74 205 -6 254 -36 22 -122 24 -181 4z m173 -60 c59
-69 -4 -202 -103 -221 -130 -24 -192 130 -91 223 34 31 38 32 103 28 58 -3 71
-8 91 -30z"/>
<path d="M4578 1493 c-33 -36 -73 -101 -82 -133 -6 -22 -3 -21 26 12 25 29 37
35 48 28 26 -17 66 -11 88 13 21 22 29 47 16 47 -3 0 -13 -9 -22 -20 -22 -26
-61 -30 -75 -8 -9 14 -7 22 12 42 13 14 28 23 34 19 5 -3 8 0 5 7 -8 24 -23
21 -50 -7z"/>
<path d="M3046 1198 c-30 -45 -57 -119 -54 -145 4 -38 32 -52 65 -33 30 17 51
46 40 56 -4 4 -18 -3 -32 -16 -13 -12 -31 -20 -39 -17 -19 8 -9 46 32 122 21
39 26 55 16 55 -7 0 -20 -10 -28 -22z"/>
<path d="M3190 1109 c0 -11 5 -17 10 -14 6 3 10 13 10 21 0 8 -4 14 -10 14 -5
0 -10 -9 -10 -21z"/>
</g>
</svg>
