<?xml version="1.0" standalone="no"?>
<!DOCTYPE svg PUBLIC "-//W3C//DTD SVG 20010904//EN"
 "http://www.w3.org/TR/2001/REC-SVG-20010904/DTD/svg10.dtd">
<svg version="1.0" xmlns="http://www.w3.org/2000/svg"
 width="1024.000000pt" height="559.000000pt" viewBox="0 0 1024.000000 559.000000"
 preserveAspectRatio="xMidYMid meet">
<metadata>
Created by potrace 1.16, written by Peter Selinger 2001-2019
</metadata>
<g transform="translate(0.000000,559.000000) scale(0.100000,-0.100000)"
fill="#000000" stroke="none">
<path d="M6053 4488 c-33 -16 -36 -38 -17 -129 21 -95 12 -172 -30 -264 l-25
-56 -30 16 c-17 8 -36 15 -44 15 -8 0 -17 13 -20 29 -7 35 -50 87 -88 106 -67
35 -167 4 -214 -65 l-19 -28 -32 24 c-95 73 -236 21 -264 -97 -11 -43 -15 -49
-33 -43 -80 25 -182 -19 -223 -98 -18 -35 -17 -126 1 -158 19 -34 19 -37 -9
-44 -13 -3 -37 -21 -53 -39 l-30 -34 -118 -5 -118 -5 -71 59 c-139 117 -290
185 -482 218 -139 24 -208 25 -333 5 -225 -37 -456 -151 -614 -303 -75 -72
-183 -222 -232 -320 -31 -62 -52 -92 -72 -102 -85 -44 -226 -129 -278 -168
-91 -68 -203 -180 -246 -246 -97 -148 -106 -332 -23 -506 104 -220 330 -413
713 -612 75 -39 211 -111 302 -159 196 -105 302 -153 465 -207 246 -83 403
-113 849 -163 55 -6 260 -13 455 -16 288 -4 386 -2 520 11 363 37 570 83 855
188 105 39 364 163 470 225 28 16 106 58 175 92 546 276 814 557 821 862 3 94
-8 145 -51 235 -31 63 -56 98 -122 163 -92 93 -212 183 -335 251 l-80 45 -6
95 c-9 149 -44 234 -128 318 -78 77 -188 116 -312 110 l-75 -3 15 29 c20 39
85 108 132 141 22 14 42 34 45 42 8 20 -29 80 -54 88 -37 12 -114 -49 -172
-138 l-26 -38 -6 36 c-12 64 -44 124 -91 171 -46 46 -108 80 -126 69 -50 -31
-65 -219 -24 -316 5 -14 -6 -17 -87 -22 -51 -3 -104 -8 -117 -12 -21 -7 -23
-6 -16 15 4 12 4 42 0 66 -10 68 -86 144 -144 144 -15 0 -22 11 -31 50 -13 55
-11 82 14 149 37 97 42 267 10 319 -12 17 -23 22 -57 21 -23 0 -52 -5 -64 -11z
m95 -115 c3 -95 -16 -190 -54 -266 -29 -57 -74 -120 -81 -113 -3 2 12 39 32
81 31 64 38 91 43 161 3 51 0 108 -8 145 -15 68 -8 82 40 77 24 -3 25 -6 28
-85z m-365 -215 c12 -6 29 -20 37 -32 32 -43 29 -50 -24 -76 -44 -22 -86 -65
-98 -101 -2 -6 -25 2 -51 16 -42 24 -47 30 -47 61 0 47 22 96 55 122 31 25 92
29 128 10z m-269 -70 c40 -39 56 -96 28 -104 -52 -16 -103 -47 -123 -74 -13
-16 -29 -30 -36 -30 -7 0 -26 19 -43 42 -44 61 -42 109 9 159 34 34 44 39 85
39 39 0 52 -5 80 -32z m406 -73 c48 -25 70 -62 70 -119 0 -82 -7 -96 -47 -96
-38 0 -67 -12 -99 -42 -44 -39 -114 21 -114 99 0 75 29 123 95 157 37 20 58
20 95 1z m199 -36 c1 -8 -15 -23 -34 -32 -43 -21 -45 -21 -45 -2 0 8 3 15 8
15 4 0 18 16 32 36 21 32 25 34 31 18 4 -11 8 -26 8 -35z m526 20 c73 -64 115
-176 98 -261 l-9 -43 -18 60 c-19 65 -60 150 -76 160 -14 9 -13 4 14 -56 27
-62 61 -177 54 -184 -3 -3 -25 10 -50 29 -77 59 -111 161 -88 269 13 67 24 70
75 26z m-1390 -61 c24 -12 86 -94 78 -102 -4 -3 -21 -6 -40 -6 -61 0 -124 -38
-164 -99 l-15 -24 -32 29 c-42 37 -51 87 -27 138 35 72 126 102 200 64z m371
-14 c46 -22 64 -50 64 -99 -1 -66 -31 -117 -91 -154 -42 -26 -60 -32 -87 -27
-131 21 -130 217 2 277 51 23 69 23 112 3z m1363 2 c9 -11 2 -21 -38 -50 -56
-42 -106 -105 -151 -192 -43 -85 -27 -19 18 73 36 75 123 183 147 183 7 0 18
-6 24 -14z m-740 -62 c32 -34 33 -39 29 -96 -4 -49 -9 -64 -29 -79 -13 -10
-31 -16 -39 -12 -8 3 -34 8 -57 11 -35 3 -46 10 -67 42 -14 21 -35 41 -46 45
-15 5 -19 12 -15 23 4 10 9 29 12 44 9 48 88 83 148 66 17 -4 45 -24 64 -44z
m-2184 -13 l40 -8 -30 -7 c-58 -15 -130 -39 -180 -61 -39 -17 -57 -20 -80 -12
-16 5 -75 12 -130 16 l-100 7 72 23 c141 45 307 62 408 42z m272 -66 c169 -68
319 -191 414 -338 54 -83 73 -147 72 -242 -1 -95 -20 -149 -83 -236 -49 -68
-68 -80 -225 -137 -149 -54 -251 -78 -440 -102 -88 -12 -187 -28 -220 -36
-100 -26 -198 -77 -256 -134 l-54 -52 -70 7 c-162 14 -337 89 -433 183 -72 70
-98 118 -113 212 -22 131 26 290 138 458 125 188 350 371 478 387 48 7 228 -9
247 -21 5 -4 -19 -25 -54 -49 -35 -23 -96 -73 -137 -111 l-74 -69 -131 3 c-95
2 -142 -1 -171 -11 -38 -13 -32 -14 105 -13 80 1 150 -2 157 -7 8 -5 -2 -26
-35 -70 -54 -71 -115 -184 -130 -239 -16 -60 1 -44 42 40 39 78 109 185 153
234 l25 26 61 -18 c78 -22 108 -35 179 -78 l58 -35 -33 -36 c-66 -73 -159
-216 -192 -293 -28 -70 2 -39 64 65 34 56 89 135 123 175 l60 73 52 -44 c28
-24 86 -85 129 -136 42 -51 77 -86 77 -79 0 28 -65 115 -146 197 -46 46 -82
87 -79 91 11 18 146 121 208 159 l68 42 40 -31 c42 -34 103 -103 168 -192 43
-60 68 -75 55 -35 -11 35 -72 116 -152 199 l-74 77 37 15 c53 22 164 56 184
56 10 0 26 7 37 16 38 30 -94 10 -195 -30 l-91 -37 -44 30 c-44 31 -161 92
-211 111 -15 6 -25 13 -23 16 9 8 173 62 212 69 20 4 38 11 41 15 6 10 108
-14 182 -45z m1043 45 c0 -5 -4 -10 -10 -10 -5 0 -10 5 -10 10 0 6 5 10 10 10
6 0 10 -4 10 -10z m-28 -52 c9 -7 18 -30 21 -51 3 -20 15 -51 27 -67 28 -40
21 -55 -32 -68 -24 -6 -63 -28 -86 -48 -51 -43 -82 -41 -112 9 -27 44 -25 101
5 152 38 66 135 106 177 73z m690 -69 c32 -39 42 -81 36 -150 -9 -91 -88 -140
-171 -105 -36 14 -37 17 -37 66 0 31 -8 68 -20 92 -25 53 -25 54 5 94 47 61
137 62 187 3z m-232 -21 c0 -6 -9 -7 -22 -3 -13 4 -35 9 -50 12 -26 5 -38 30
-22 45 8 8 94 -42 94 -54z m-1815 -28 c111 -54 158 -88 137 -97 -32 -13 -167
-109 -217 -155 l-55 -50 -27 20 c-44 31 -143 77 -205 96 -32 10 -58 21 -58 26
0 16 172 155 241 195 52 29 52 29 184 -35z m2624 4 c40 -19 79 -34 87 -34 16
0 20 -65 5 -74 -4 -3 -29 8 -54 24 -56 35 -76 21 -29 -21 40 -36 131 -63 180
-54 57 11 102 32 102 49 0 9 -1 16 -2 16 -2 0 -27 -7 -55 -14 -60 -16 -64 -12
-39 48 13 31 17 33 77 39 116 12 243 -29 318 -102 149 -145 148 -463 -3 -714
-36 -61 -43 -67 -66 -62 -14 3 -52 -4 -84 -15 -33 -11 -62 -20 -65 -20 -2 0
12 15 32 34 38 35 44 54 27 87 -25 45 -87 53 -119 15 -8 -9 -45 -44 -83 -78
l-69 -61 -32 30 c-109 104 -260 108 -450 11 -89 -46 -90 -46 -136 36 -107 187
-122 479 -35 663 58 122 154 202 274 229 75 17 131 9 219 -32z m-1517 -22 c-7
-48 16 -108 52 -140 19 -16 39 -31 46 -34 6 -2 8 -11 5 -21 -6 -15 -9 -15 -28
-2 -25 18 -128 20 -158 4 -28 -15 -56 11 -64 60 -13 79 48 160 121 161 28 0
30 -2 26 -28z m659 1 c30 -18 69 -85 69 -119 0 -43 -23 -98 -57 -135 -33 -36
-39 -39 -90 -39 -51 0 -58 3 -95 40 -40 39 -40 41 -36 103 3 45 10 72 27 96
48 67 122 89 182 54z m413 -1 c3 -5 -6 -21 -19 -38 l-24 -29 -1 38 c0 30 4 37
19 37 11 0 22 -4 25 -8z m-647 -46 c1 -1 -2 -8 -6 -15 -7 -11 -14 -11 -40 0
-42 19 -39 31 7 23 20 -4 38 -7 39 -8z m-617 -64 c0 -28 8 -62 20 -85 l20 -38
-25 -43 c-27 -46 -34 -130 -15 -166 8 -14 4 -21 -17 -35 l-26 -17 6 31 c9 46
-17 179 -46 237 -14 28 -42 72 -61 97 -20 26 -36 49 -36 52 0 2 28 6 63 8 34
2 74 4 90 5 26 2 27 0 27 -46z m571 8 c13 -7 19 -21 19 -45 0 -18 5 -57 12
-85 10 -45 9 -56 -5 -83 -21 -39 -77 -77 -123 -84 -46 -7 -111 22 -130 58 -18
36 -18 102 0 137 16 29 69 83 101 100 25 14 100 15 126 2z m-326 -134 c30 -13
35 -20 35 -48 0 -19 9 -51 20 -73 24 -47 24 -45 4 -45 -8 0 -38 -23 -65 -51
-49 -50 -51 -51 -97 -46 -132 15 -148 191 -22 255 52 26 78 27 125 8z m687
-40 c-21 -42 -34 -56 -59 -64 -20 -6 -35 -6 -39 -1 -3 5 0 9 5 9 16 0 89 69
96 91 4 10 10 19 15 19 4 0 -4 -24 -18 -54z m208 35 c0 -4 -5 -22 -11 -38 -5
-17 -13 -68 -17 -114 -7 -80 -8 -84 -32 -87 -34 -3 -85 30 -106 69 -20 40 -20
98 1 138 14 29 18 30 58 25 23 -3 53 -1 67 5 32 12 40 13 40 2z m-396 -99 c52
-14 60 -19 73 -51 21 -49 11 -132 -20 -181 -49 -73 -140 -89 -198 -34 -65 62
-62 147 7 225 24 27 44 54 44 60 0 7 7 8 18 4 9 -5 43 -15 76 -23z m232 -149
c21 -18 43 -33 51 -33 34 0 -3 -92 -49 -120 -39 -24 -88 -26 -128 -5 l-29 15
31 66 c28 59 30 72 24 129 -6 56 -4 64 11 67 13 3 22 -8 35 -42 10 -25 34 -60
54 -77z m-570 46 c54 -14 84 -48 84 -97 0 -40 -35 -121 -56 -129 -19 -7 -186
17 -201 29 -17 14 -16 51 2 96 20 46 51 81 90 98 37 16 28 16 81 3z m-344 -79
c18 -11 52 -22 75 -26 l43 -6 0 -48 0 -47 -87 -12 c-49 -7 -100 -14 -114 -17
-22 -5 -27 -2 -32 18 -9 36 11 98 43 130 34 33 31 33 72 8z m-2093 -71 c-19
-116 6 -229 70 -322 l31 -46 -21 -63 c-42 -125 -7 -251 106 -376 67 -73 178
-149 332 -226 95 -47 114 -61 129 -91 22 -47 105 -120 179 -157 75 -38 225
-82 356 -104 135 -22 411 -15 549 15 89 20 106 20 270 10 241 -16 599 -3 870
32 47 6 170 26 274 46 184 33 193 34 360 28 224 -9 348 4 434 46 69 34 124 95
144 161 6 21 14 38 18 38 4 0 56 -9 116 -20 133 -24 152 -24 176 -3 26 23 24
87 -2 106 -19 14 -18 15 20 20 22 3 47 11 55 17 18 15 19 60 3 95 -14 31 -44
40 -105 31 l-46 -6 40 43 c76 82 85 243 20 360 l-35 64 53 106 c29 58 60 138
70 179 10 40 19 75 21 76 8 10 184 -102 292 -185 99 -77 169 -158 214 -250 30
-61 33 -76 33 -158 0 -86 -2 -96 -39 -170 -106 -215 -452 -468 -886 -648 -476
-197 -1002 -303 -1628 -327 -854 -33 -1665 112 -2267 406 -468 228 -755 508
-755 738 0 184 170 380 495 569 33 20 61 34 62 33 1 -1 -2 -31 -8 -67z m3153
-23 c19 -99 58 -201 105 -275 19 -29 33 -54 31 -56 -2 -1 -38 -19 -81 -41
-104 -52 -175 -110 -245 -197 -31 -40 -87 -101 -123 -137 -78 -77 -94 -102
-80 -129 14 -25 30 -30 136 -47 93 -14 175 -34 175 -44 -1 -17 -138 -82 -220
-104 -123 -32 -178 -56 -214 -94 -49 -52 -34 -62 86 -55 97 5 132 2 378 -31
l85 -12 -50 -11 c-262 -60 -764 -96 -1080 -78 l-140 8 145 48 c217 73 420 182
532 287 56 52 117 137 142 197 23 53 39 217 34 344 -3 92 -7 114 -30 159 -24
46 -25 52 -11 64 21 17 53 87 53 117 0 13 8 29 17 36 15 11 22 10 46 -7 102
-73 232 -26 266 95 8 26 17 47 20 47 4 0 14 -38 23 -84z m-546 -31 c34 -26 55
-35 85 -35 33 0 39 -3 39 -21 0 -23 -15 -55 -37 -81 -14 -15 -18 -14 -56 15
-23 18 -61 41 -85 51 -23 11 -41 22 -40 25 2 3 12 23 23 44 10 20 20 37 22 37
1 0 23 -16 49 -35z m-683 -58 c-25 -15 -34 -3 -16 22 16 23 17 23 23 5 5 -12
2 -22 -7 -27z m525 -21 c173 -65 272 -164 272 -273 0 -55 -57 -168 -121 -237
-135 -148 -486 -319 -814 -396 -212 -50 -387 -61 -560 -35 -287 42 -448 115
-526 237 -68 106 -46 226 58 318 100 88 183 116 456 155 250 35 311 51 547
145 77 30 231 79 304 96 82 18 324 12 384 -10z m1682 -97 c0 -9 -138 -122
-171 -139 -34 -19 -36 17 -3 43 16 12 55 46 87 75 47 43 61 51 73 41 8 -6 14
-15 14 -20z m-370 -50 c112 -51 180 -165 180 -304 0 -83 -4 -86 -70 -71 -47
11 -55 16 -58 37 -4 42 -23 99 -32 99 -5 0 -5 -14 1 -32 5 -18 9 -45 9 -59 0
-24 -5 -27 -62 -39 -51 -10 -172 -49 -260 -85 -15 -6 -18 -2 -18 21 0 31 -41
127 -59 138 -16 10 -14 4 13 -51 13 -26 26 -64 30 -83 l6 -36 -87 -43 c-48
-24 -89 -39 -90 -35 -2 5 -12 27 -23 49 -21 42 -21 42 -3 -46 4 -23 -2 -30
-48 -59 -58 -36 -48 -36 -189 3 -30 8 -85 18 -123 22 -37 4 -70 11 -72 15 -3
5 18 28 46 52 28 24 83 82 121 130 77 97 152 168 177 168 22 0 74 -55 98 -104
11 -21 22 -35 25 -30 10 16 -33 93 -69 125 -19 16 -34 31 -32 33 2 1 40 21 84
43 44 23 117 61 162 85 l82 43 31 -30 c18 -17 46 -54 63 -84 17 -30 32 -50 35
-43 5 15 -33 86 -69 127 -18 20 -30 37 -28 39 11 11 80 24 129 25 35 0 71 -7
100 -20z m499 -81 c6 -17 10 -32 8 -34 -4 -5 -289 -75 -292 -72 -1 2 -5 12 -9
24 -6 19 5 25 121 67 71 25 135 46 145 46 9 1 20 -12 27 -31z m101 -32 c28
-56 32 -76 32 -141 0 -86 -9 -106 -37 -75 -10 11 -23 20 -29 20 -6 0 -74 -36
-150 -80 -76 -44 -140 -80 -143 -80 -2 0 -17 13 -32 28 -27 27 -28 30 -18 80
9 44 14 51 31 47 76 -15 189 -26 210 -21 27 7 56 51 56 85 0 25 -36 51 -72 51
-43 0 -33 17 12 23 67 9 90 30 90 82 0 25 4 45 9 45 6 0 24 -29 41 -64z
m-4171 -44 c56 -42 119 -74 199 -101 56 -18 93 -26 219 -46 l32 -6 -15 -34
c-20 -50 -33 -221 -23 -327 5 -51 8 -93 6 -94 -5 -5 -183 89 -252 134 -94 60
-195 164 -231 238 -37 75 -44 171 -19 238 11 28 22 43 29 39 6 -4 31 -22 55
-41z m3970 -79 c63 -6 86 -22 63 -45 -16 -16 -232 10 -232 28 0 21 66 28 169
17z m-1443 -135 c-9 -108 -47 -187 -133 -278 -139 -148 -427 -286 -778 -373
-307 -77 -580 -69 -858 24 -209 69 -288 163 -304 361 l-6 70 69 -68 c255 -254
864 -287 1396 -78 288 114 532 276 594 396 8 15 17 28 21 28 3 0 3 -37 -1 -82z
m1623 -2 c9 -11 5 -19 -18 -39 -43 -36 -230 -130 -247 -123 -30 12 -10 33 76
80 50 27 105 60 123 72 38 27 50 29 66 10z m-412 -71 c54 -33 87 -76 107 -144
28 -97 17 -163 -40 -238 -30 -40 -108 -81 -168 -89 l-44 -7 9 39 c10 44 2 141
-13 150 -6 4 -7 -17 -3 -59 5 -42 3 -78 -5 -101 l-12 -36 -149 0 -149 0 0 56
c0 61 -18 144 -31 144 -5 0 -5 -15 -1 -32 4 -18 7 -62 7 -97 l0 -63 -120 1
c-66 1 -181 11 -255 23 -74 11 -182 23 -240 27 l-105 6 55 17 c30 10 87 26
126 37 45 13 113 46 185 90 80 48 118 66 126 59 7 -5 20 -29 29 -54 9 -24 20
-41 25 -39 10 7 -5 60 -27 92 -20 31 -32 22 155 115 l143 72 19 -22 c15 -19
33 -62 65 -151 2 -8 7 -11 10 -8 11 11 -18 106 -42 143 -13 19 -24 37 -24 39
0 5 105 44 149 55 61 16 170 3 218 -25z m503 -109 c0 -28 -7 -30 -200 -46
-146 -12 -140 -13 -140 5 0 22 175 62 283 64 54 1 57 0 57 -23z m-4657 -237
c332 -248 807 -443 1343 -553 674 -139 1508 -145 2184 -15 633 122 1221 379
1539 674 43 39 50 43 33 18 -30 -42 -141 -144 -227 -207 -108 -80 -193 -131
-410 -244 -110 -57 -231 -122 -269 -144 -273 -159 -627 -276 -1006 -332 -362
-54 -907 -54 -1335 0 -510 65 -741 136 -1144 353 -91 49 -209 110 -261 136
-262 131 -480 285 -596 422 l-49 58 60 -54 c33 -30 95 -81 138 -112z m4528
131 c63 -12 73 -20 64 -50 -5 -16 -12 -20 -28 -16 -12 3 -70 14 -129 23 -91
14 -108 20 -108 35 0 16 10 18 74 18 40 0 97 -5 127 -10z"/>
<path d="M4141 3740 c-60 -22 -96 -46 -45 -31 59 18 99 34 109 42 14 14 -4 10
-64 -11z"/>
<path d="M3575 3674 c-14 -11 -33 -14 -65 -9 -32 4 -41 3 -30 -4 8 -6 23 -11
33 -11 9 0 17 -3 17 -7 0 -3 -8 -15 -17 -26 -17 -19 -17 -20 4 -8 12 6 24 15
27 20 3 5 22 5 41 1 41 -9 46 -4 9 10 l-26 10 24 20 c27 23 12 27 -17 4z"/>
<path d="M4180 3680 c0 -5 6 -10 14 -10 8 0 18 5 21 10 3 6 -3 10 -14 10 -12
0 -21 -4 -21 -10z"/>
<path d="M4425 3500 c3 -5 11 -10 16 -10 6 0 7 5 4 10 -3 6 -11 10 -16 10 -6
0 -7 -4 -4 -10z"/>
<path d="M4110 3390 c6 -11 15 -20 20 -20 6 0 5 9 -2 20 -7 11 -16 20 -21 20
-4 0 -3 -9 3 -20z"/>
<path d="M3235 3350 c-17 -33 -8 -59 15 -45 9 6 9 9 0 15 -9 6 -9 12 0 30 6
12 9 24 7 27 -3 3 -13 -10 -22 -27z"/>
<path d="M3305 3349 c-4 -6 -5 -12 -2 -15 2 -3 7 2 10 11 7 17 1 20 -8 4z"/>
<path d="M3510 3335 c-7 -9 -8 -15 -2 -15 5 0 12 7 16 15 3 8 4 15 2 15 -2 0
-9 -7 -16 -15z"/>
<path d="M4240 3275 c0 -8 4 -15 10 -15 5 0 7 7 4 15 -4 8 -8 15 -10 15 -2 0
-4 -7 -4 -15z"/>
<path d="M4716 3123 c-8 -16 -31 -49 -50 -72 -20 -24 -36 -48 -36 -54 0 -20
70 57 91 101 24 48 19 71 -5 25z"/>
<path d="M3038 2834 c31 -59 161 -140 261 -163 69 -15 54 0 -28 29 -91 31
-139 59 -200 115 -26 24 -40 32 -33 19z"/>
<path d="M3871 3634 c-15 -11 -33 -14 -54 -10 -28 5 -30 4 -15 -8 16 -12 16
-14 -6 -35 -19 -18 -31 -22 -58 -17 -31 6 -32 6 -10 -7 l22 -13 -30 -29 c-16
-16 -30 -33 -30 -39 0 -5 15 4 33 22 38 36 46 38 88 16 29 -14 30 -17 15 -33
-25 -28 -19 -37 8 -12 23 22 25 22 53 6 l28 -17 -24 21 -24 22 23 24 c27 29
48 31 76 10 10 -8 24 -14 29 -15 11 0 -46 49 -57 50 -4 0 -23 9 -42 21 l-36
21 23 19 c27 23 20 25 -12 3z m39 -74 c0 -3 -13 -16 -29 -28 -29 -21 -31 -21
-60 -4 -38 21 -38 25 -5 51 24 19 27 19 60 4 19 -9 34 -20 34 -23z"/>
<path d="M6336 3590 c-22 -11 -50 -30 -63 -42 -28 -26 -87 -141 -81 -159 2 -6
19 18 36 54 35 70 95 130 145 142 15 4 27 11 27 16 0 14 -21 10 -64 -11z"/>
<path d="M7129 3405 c16 -35 31 -46 31 -22 0 16 -28 57 -39 57 -5 0 -1 -16 8
-35z"/>
<path d="M7213 3350 c9 -25 27 -42 27 -26 0 15 -21 56 -29 56 -5 0 -4 -13 2
-30z"/>
<path d="M7070 3326 c0 -8 5 -18 10 -21 6 -3 10 1 10 9 0 8 -4 18 -10 21 -5 3
-10 -1 -10 -9z"/>
<path d="M7187 3251 c3 -12 10 -21 15 -21 13 0 6 32 -9 37 -7 3 -9 -3 -6 -16z"/>
<path d="M6166 3232 c-4 -18 -5 -36 -2 -39 11 -12 17 5 14 39 l-3 33 -9 -33z"/>
<path d="M7202 3033 c-43 -102 -62 -154 -52 -148 21 13 87 181 76 192 -2 2
-13 -18 -24 -44z"/>
<path d="M5002 2878 c-82 -11 -221 -60 -395 -137 -171 -76 -251 -98 -397 -111
-225 -20 -307 -38 -406 -88 -58 -29 -119 -86 -145 -133 -17 -33 -15 -119 4
-156 36 -69 151 -137 312 -184 73 -22 98 -24 295 -23 194 0 227 3 340 27 318
67 667 224 792 354 115 121 136 247 57 338 -40 46 -140 92 -235 110 -83 16
-127 17 -222 3z m280 -42 c71 -21 145 -70 176 -116 44 -65 19 -166 -64 -259
-133 -148 -512 -313 -864 -377 -116 -21 -387 -24 -475 -5 -149 31 -255 76
-320 132 -50 44 -68 83 -62 135 15 139 171 222 472 250 232 21 290 38 565 159
116 51 215 83 293 96 75 11 213 4 279 -15z"/>
<path d="M4952 2739 c-95 -47 -108 -112 -32 -163 33 -22 166 -22 218 0 77 32
112 92 79 135 -40 52 -184 68 -265 28z m216 -36 c63 -39 -23 -105 -138 -107
-111 -1 -157 49 -87 93 65 40 173 47 225 14z"/>
<path d="M6351 2652 c19 -22 36 -39 38 -37 7 8 -29 54 -51 66 -16 9 -13 2 13
-29z"/>
<path d="M5960 2358 c12 -21 23 -38 25 -38 10 0 -10 41 -27 57 -19 17 -19 15
2 -19z"/>
<path d="M6725 2230 c4 -14 15 -54 26 -90 16 -57 18 -61 18 -29 1 41 -15 94
-37 124 -14 19 -14 19 -7 -5z"/>
</g>
</svg>
