<?xml version="1.0" standalone="no"?>
<!DOCTYPE svg PUBLIC "-//W3C//DTD SVG 20010904//EN"
 "http://www.w3.org/TR/2001/REC-SVG-20010904/DTD/svg10.dtd">
<svg version="1.0" xmlns="http://www.w3.org/2000/svg"
 width="1408.000000pt" height="768.000000pt" viewBox="0 0 1408.000000 768.000000"
 preserveAspectRatio="xMidYMid meet">
<metadata>
Created by potrace 1.16, written by Peter Selinger 2001-2019
</metadata>
<g transform="translate(0.000000,768.000000) scale(0.100000,-0.100000)"
fill="#000000" stroke="none">
<path d="M5259 6728 c-90 -85 -161 -199 -225 -364 -25 -65 -52 -127 -61 -136
-23 -25 -56 -5 -88 54 -37 67 -42 142 -19 249 10 46 18 102 18 124 1 34 -2 40
-19 40 -47 0 -125 -215 -125 -344 0 -77 20 -125 104 -243 43 -60 62 -101 94
-200 22 -67 51 -147 65 -175 14 -29 22 -53 17 -53 -13 0 -76 74 -103 121 -34
59 -53 119 -71 224 -15 82 -28 115 -47 115 -16 0 -29 -76 -29 -166 0 -189 80
-335 238 -434 37 -24 113 -74 169 -111 56 -38 155 -94 220 -125 147 -69 212
-110 224 -142 5 -14 8 -27 5 -29 -2 -3 -31 13 -63 36 -41 29 -93 51 -178 77
-66 20 -133 37 -150 38 -27 1 -30 -2 -33 -32 -4 -43 42 -143 104 -223 47 -61
120 -108 169 -109 35 0 44 -14 57 -87 l12 -72 -51 -54 c-75 -79 -96 -177 -50
-234 13 -15 31 -40 40 -55 24 -39 58 -58 114 -66 l48 -7 3 -48 c2 -26 -5 -85
-14 -130 -22 -108 -23 -235 -2 -251 8 -6 19 -27 22 -46 31 -154 93 -273 223
-427 38 -45 46 -62 57 -130 26 -145 65 -220 201 -377 40 -48 76 -95 79 -104 3
-9 15 -60 26 -111 12 -52 39 -154 62 -225 38 -122 41 -142 49 -301 4 -93 12
-184 17 -201 30 -99 19 -392 -23 -598 -27 -132 -40 -161 -114 -263 -28 -38
-51 -79 -51 -90 0 -40 95 -55 201 -32 68 15 96 43 104 105 11 86 15 98 28 85
18 -18 44 -13 51 11 3 13 1 54 -5 92 -18 113 -6 527 18 676 12 69 29 226 37
350 9 124 19 254 22 288 l6 64 36 -7 c21 -4 38 -8 40 -9 1 -2 7 -75 13 -162
10 -137 9 -179 -5 -292 -18 -142 -16 -191 16 -282 41 -120 50 -412 18 -608
-15 -92 -32 -153 -65 -234 -60 -144 -57 -153 56 -165 50 -5 66 -2 112 21 64
31 77 54 77 140 0 61 1 63 24 59 40 -8 39 12 -9 222 -11 45 -18 139 -22 265
-5 175 -3 204 16 282 11 48 23 117 27 155 3 37 25 158 49 268 24 110 49 235
56 278 l12 77 41 0 c22 0 86 -7 141 -15 115 -16 281 -19 340 -5 33 8 42 7 50
-6 91 -144 157 -236 224 -312 45 -51 94 -117 109 -145 24 -47 27 -62 27 -152
-1 -91 -5 -112 -44 -230 -109 -327 -180 -476 -281 -589 -107 -120 -92 -153 66
-143 115 7 134 18 162 97 27 75 29 77 44 62 7 -7 20 -12 30 -12 19 0 28 27 47
148 18 117 138 451 266 741 58 131 57 142 -9 240 -73 106 -120 202 -141 280
-22 88 -17 104 20 55 27 -36 129 -148 336 -369 93 -99 131 -159 178 -276 63
-160 101 -470 82 -674 -8 -94 -17 -132 -46 -203 -19 -47 -35 -94 -35 -104 0
-26 37 -40 105 -40 112 0 165 45 165 140 0 66 11 102 30 102 29 0 30 23 5 101
-43 137 -68 380 -81 786 -4 123 -12 221 -18 232 -6 10 -39 52 -73 92 -120 141
-170 275 -160 424 3 44 26 162 51 262 25 101 48 204 52 230 7 52 23 92 24 61
0 -21 13 -23 27 -5 20 24 35 120 31 186 -11 144 -62 206 -282 343 -313 195
-444 221 -871 178 -380 -39 -506 -31 -705 42 -147 54 -208 67 -315 67 -55 1
-117 6 -138 12 -49 13 -99 58 -120 106 -34 80 -167 422 -167 430 0 5 13 25 30
44 22 28 39 38 70 42 98 13 171 87 214 218 30 90 33 131 10 149 -13 11 -31 9
-107 -15 -143 -45 -177 -62 -228 -115 -54 -56 -68 -62 -62 -25 9 46 72 83 258
150 332 119 580 284 700 465 23 36 68 116 99 178 46 92 71 129 135 195 88 92
111 130 111 182 0 42 -25 59 -46 31 -10 -15 -12 -6 -7 56 4 56 1 93 -16 158
-38 149 -107 259 -127 205 -4 -9 1 -67 11 -128 24 -154 18 -244 -21 -322 -45
-90 -61 -84 -96 38 -43 151 -113 280 -206 380 -43 45 -74 58 -87 37 -3 -5 11
-42 31 -82 49 -98 105 -229 102 -239 -2 -5 -33 19 -71 52 -67 61 -97 70 -97
31 0 -28 56 -111 125 -182 91 -95 99 -115 92 -225 -3 -49 -12 -110 -20 -135
l-13 -45 -7 62 c-9 86 -35 197 -51 219 -12 15 -16 16 -30 5 -13 -11 -16 -35
-16 -125 -1 -298 -108 -473 -363 -591 -42 -19 -78 -35 -80 -35 -3 0 11 32 31
71 35 68 37 77 37 168 0 90 -1 96 -21 99 -18 3 -24 -6 -39 -60 -30 -107 -63
-163 -154 -256 -92 -92 -180 -147 -203 -124 -19 19 -12 114 17 212 35 116 41
239 13 266 -25 25 -45 4 -59 -64 -6 -31 -27 -97 -46 -145 -63 -165 -72 -227
-48 -343 7 -29 4 -33 -49 -63 -31 -17 -66 -31 -78 -31 -45 -1 -114 43 -149 94
-19 27 -58 78 -87 114 -97 118 -114 160 -132 322 -12 104 -28 136 -55 109 -8
-8 -19 -39 -25 -68 -21 -112 -8 -226 37 -314 l24 -49 -52 28 c-66 36 -185 146
-208 193 -10 20 -26 60 -36 89 -9 30 -27 59 -40 68 -38 25 -83 215 -70 299 10
69 37 99 142 161 54 32 117 76 141 98 75 69 129 186 86 186 -9 0 -47 -29 -86
-65 -71 -65 -145 -109 -207 -121 -32 -7 -33 -6 -26 17 20 65 71 181 112 253
44 78 60 145 38 153 -6 2 -27 -11 -46 -29z m1755 -110 c63 -90 110 -189 141
-298 14 -52 35 -103 45 -114 42 -43 103 14 140 133 24 75 25 137 5 250 -8 47
-13 86 -11 88 6 7 55 -147 66 -209 8 -44 7 -72 -5 -130 -8 -40 -15 -79 -15
-85 0 -21 38 -15 54 9 9 12 16 17 16 10 0 -26 -30 -69 -90 -127 -76 -73 -105
-115 -158 -226 -93 -194 -196 -310 -371 -418 -133 -81 -234 -130 -386 -186
-157 -58 -213 -85 -261 -127 l-36 -32 -47 25 c-29 16 -45 30 -42 39 2 8 3 33
1 55 -12 153 -6 196 42 325 25 69 48 136 51 150 3 17 5 13 6 -15 0 -22 -13
-89 -29 -150 -42 -154 -38 -237 12 -269 32 -20 133 39 228 134 87 86 127 144
150 213 19 59 21 39 4 -35 -17 -72 -60 -147 -137 -237 -62 -72 -61 -99 1 -39
32 32 68 54 115 72 254 95 404 243 452 448 8 35 15 106 15 158 2 125 20 88 27
-55 8 -160 -29 -275 -125 -393 -19 -23 -31 -46 -27 -50 11 -11 99 92 127 151
116 236 142 321 141 457 -1 148 -37 295 -113 458 -21 45 -37 82 -35 82 2 0 24
-28 49 -62z m-1810 -54 c-139 -275 -172 -552 -90 -769 13 -33 28 -94 35 -135
13 -85 50 -172 88 -212 38 -40 22 -34 -45 15 -32 23 -89 60 -127 82 -173 100
-268 261 -264 450 0 33 5 24 24 -52 13 -51 36 -116 52 -145 37 -70 125 -157
195 -193 62 -32 88 -27 46 8 -40 33 -89 136 -142 293 -39 119 -57 155 -115
242 -81 118 -97 171 -81 266 10 60 49 190 56 184 2 -2 -3 -41 -11 -87 -23
-130 1 -235 67 -302 36 -36 76 -38 107 -5 12 13 37 63 55 112 44 119 94 216
150 292 25 34 48 62 50 62 2 0 -20 -48 -50 -106z m1829 -190 c9 -6 22 -25 27
-44 10 -34 10 -34 -48 23 -32 32 -66 72 -77 90 -17 30 -15 29 31 -14 27 -25
57 -50 67 -55z m-1633 26 c-28 -39 -81 -82 -144 -115 -28 -16 -73 -43 -100
-62 l-49 -35 7 39 c12 68 14 70 57 71 50 2 149 49 204 97 49 42 52 43 25 5z
m99 -736 c3 -84 40 -161 141 -296 55 -73 100 -136 100 -140 0 -4 -19 -17 -41
-29 l-42 -21 -41 40 c-22 22 -87 63 -144 92 -133 68 -201 129 -246 223 -19 40
-38 88 -41 107 -5 29 -1 25 25 -27 58 -118 150 -195 293 -248 33 -12 62 -34
92 -69 25 -27 47 -47 50 -44 3 3 -20 43 -51 89 -94 139 -108 176 -111 304 -1
71 1 99 6 80 5 -16 9 -44 10 -61z m-130 -453 c104 -31 143 -49 195 -86 36 -26
66 -48 66 -50 0 -1 -27 -30 -61 -64 l-60 -61 -42 11 c-23 6 -56 19 -73 30 -31
19 -96 103 -129 168 -19 38 -36 91 -29 91 2 0 62 -18 133 -39z m1195 12 c-36
-153 -106 -256 -183 -269 -92 -15 -98 -20 -173 -132 -18 -28 -14 -50 6 -33 10
8 29 -30 81 -162 37 -94 83 -206 103 -247 19 -41 45 -106 58 -145 l24 -70 -4
60 -5 60 20 -23 c10 -13 26 -47 34 -74 35 -118 29 -242 -19 -393 -25 -78 -18
-103 10 -37 55 128 66 333 25 443 -12 30 -21 54 -21 54 0 0 62 -3 137 -7 210
-11 278 -37 422 -162 36 -31 67 -53 70 -50 6 6 -64 75 -114 112 l-30 22 56
-19 c139 -47 356 -52 674 -16 249 28 416 18 549 -33 62 -24 75 -34 109 -82 21
-30 72 -94 114 -143 162 -184 177 -224 178 -497 1 -173 -1 -206 -22 -295 -13
-55 -26 -130 -30 -166 -12 -136 52 -310 164 -445 32 -38 64 -77 72 -87 10 -13
15 -62 17 -190 8 -371 37 -673 78 -802 13 -41 20 -75 16 -75 -24 0 -40 -35
-40 -84 0 -29 -3 -55 -6 -59 -4 -3 -24 3 -45 13 -21 11 -52 20 -69 20 -25 0
-30 3 -26 18 18 56 27 144 27 267 1 297 -53 545 -156 721 -26 44 -150 184
-336 379 -48 49 -125 145 -172 212 -93 131 -122 159 -171 168 -42 8 -68 -3
-177 -75 -51 -33 -115 -67 -143 -76 -85 -26 -233 -34 -344 -18 -114 16 -142
17 -142 5 0 -12 157 -26 300 -26 149 0 187 11 341 96 103 57 154 71 186 51 25
-16 -208 -166 -311 -202 -82 -28 -204 -40 -301 -30 -172 19 -290 32 -292 34
-1 1 17 46 39 101 52 128 57 190 29 349 -12 65 -21 136 -21 157 0 22 -4 39
-10 39 -15 0 -12 -107 6 -218 21 -129 15 -190 -26 -290 -18 -45 -35 -80 -38
-78 -2 3 1 35 7 72 10 65 8 85 -5 71 -6 -6 -9 -30 -34 -263 -6 -55 -33 -201
-60 -323 -28 -123 -50 -246 -50 -274 0 -29 -9 -86 -21 -127 -41 -153 -34 -460
14 -661 l23 -96 -22 5 c-21 4 -23 -1 -29 -62 -4 -36 -8 -66 -9 -66 -1 0 -19 9
-41 20 -22 11 -54 20 -72 20 -37 0 -37 -1 -22 37 18 46 49 231 55 333 9 141
-11 376 -39 453 -19 54 -21 76 -17 172 10 245 3 538 -13 615 -26 117 -105 214
-224 274 -49 24 -40 2 10 -27 88 -52 156 -141 173 -226 7 -34 7 -34 -24 -28
-50 10 -238 104 -277 138 -20 18 -39 28 -43 24 -11 -10 65 -71 135 -107 34
-18 61 -34 59 -35 -5 -5 -111 29 -149 49 -57 28 -119 90 -167 163 -23 36 -46
62 -52 59 -13 -8 57 -132 100 -177 63 -66 166 -115 273 -131 37 -5 46 -10 43
-24 -2 -9 -8 -82 -14 -162 -22 -335 -32 -431 -52 -550 -18 -103 -21 -168 -22
-370 -1 -135 3 -269 7 -298 7 -50 7 -53 -11 -43 -29 15 -51 -15 -60 -83 l-7
-56 -37 25 c-21 14 -51 28 -68 31 -16 4 -30 8 -30 10 0 1 9 18 20 37 25 43 65
219 79 349 16 142 14 360 -4 443 -8 39 -15 118 -15 177 0 115 -16 218 -50 313
-21 60 -56 198 -80 308 -10 51 -22 70 -86 144 -126 144 -181 237 -198 338 -4
22 -10 49 -13 60 -9 34 104 -84 154 -160 57 -86 52 -79 59 -73 9 9 -40 99 -84
154 -22 28 -84 97 -139 155 -180 190 -247 317 -269 517 -5 47 -10 62 -20 58
-20 -8 -18 42 7 169 11 59 19 122 17 141 -2 18 -1 31 3 28 15 -9 39 -75 39
-109 0 -24 4 -34 11 -29 17 10 4 92 -20 125 -27 36 -27 39 7 39 59 -1 170 -78
187 -130 3 -11 11 -20 16 -20 14 0 1 38 -23 72 -24 35 -96 85 -134 94 -42 10
-46 14 -33 30 15 18 1 17 -31 -1 -40 -23 -142 -19 -174 6 -46 37 -34 42 78 35
105 -7 162 3 181 34 12 19 2 20 -45 4 -31 -11 -57 -13 -93 -7 l-50 8 41 48
c45 52 51 76 25 102 -13 14 -28 16 -82 11 -99 -10 -106 1 -43 68 51 54 102
143 102 179 0 27 -18 20 -24 -11 -7 -30 -55 -95 -56 -74 0 7 7 20 15 28 21 22
19 38 -10 73 l-26 30 56 57 c47 49 55 63 55 95 0 43 28 72 90 90 31 10 41 9
64 -6 35 -23 115 -23 155 1 l30 18 76 -40 c41 -21 75 -43 75 -47 0 -4 -7 -21
-15 -36 -17 -34 -9 -47 16 -25 10 9 33 16 51 17 28 1 38 8 57 38 35 55 69 76
184 114 128 42 129 42 121 8z m-975 -605 c70 21 86 8 26 -21 -38 -18 -47 -50
-19 -61 15 -6 15 -8 -1 -26 -39 -43 -113 -10 -99 44 4 17 1 31 -10 42 -24 23
-11 34 29 21 25 -7 45 -7 74 1z m-106 -128 c-7 -8 -33 32 -33 49 0 9 8 3 19
-14 10 -16 16 -32 14 -35z m3055 -517 c154 -98 216 -211 215 -398 0 -73 -35
-300 -47 -313 -2 -2 -3 64 -2 145 2 228 -26 305 -166 464 -77 87 -123 144
-143 178 -8 14 46 -15 143 -76z m263 -226 c25 -58 32 -177 12 -212 -11 -19
-12 -19 -17 5 -2 14 -7 59 -10 101 -3 49 -13 99 -29 139 l-26 62 24 -22 c13
-12 33 -45 46 -73z m-735 -879 c42 -48 51 -73 56 -158 6 -107 40 -192 132
-329 36 -54 66 -108 66 -120 0 -13 -30 -93 -66 -179 -152 -358 -237 -608 -250
-737 -6 -57 -8 -62 -24 -53 -28 18 -50 2 -72 -52 l-21 -50 -26 17 c-14 9 -40
24 -58 33 l-32 15 36 54 c44 65 145 309 207 499 55 168 65 251 42 341 -21 81
-41 115 -139 226 -70 81 -217 287 -217 305 0 4 33 23 73 43 39 19 115 64 167
100 52 36 98 66 101 66 3 1 14 -9 25 -21z m-356 -1688 c-30 -37 -40 -47 -40
-35 0 6 61 75 67 75 3 0 -10 -18 -27 -40z m114 17 c22 -12 41 -28 44 -34 5
-18 -41 -33 -103 -33 l-54 0 27 45 c15 24 32 44 37 45 6 0 28 -10 49 -23z
m970 -39 c-12 -40 -34 -78 -45 -78 -12 0 -4 29 18 73 16 33 37 37 27 5z m92 1
c19 -11 34 -27 34 -35 0 -19 -41 -44 -86 -51 -31 -5 -36 -4 -31 9 3 9 11 34
18 57 7 23 17 41 22 41 5 0 25 -9 43 -21z m-2618 -64 c-43 -58 -58 -58 -18 0
17 25 35 45 41 45 5 0 -5 -20 -23 -45z m130 12 c37 -22 40 -32 14 -46 -21 -11
-143 -33 -150 -27 -2 2 13 27 33 54 39 55 41 55 103 19z m344 -78 c-15 -46
-35 -70 -48 -57 -5 6 23 77 38 96 22 26 26 10 10 -39z m123 22 c37 -21 38 -38
4 -63 -28 -21 -109 -37 -109 -21 0 5 7 33 16 62 17 57 24 59 89 22z"/>
<path d="M5310 5181 c0 -4 33 -24 73 -43 70 -34 99 -57 96 -74 -4 -21 3 -32
26 -42 32 -15 45 -15 45 -2 0 5 -11 12 -24 16 -16 4 -23 11 -19 20 6 17 -30
60 -69 80 -50 26 -128 54 -128 45z"/>
<path d="M6430 5164 c-65 -37 -99 -73 -111 -116 -7 -27 -16 -39 -34 -44 -25
-6 -52 -31 -43 -39 3 -3 25 4 50 15 40 18 47 25 57 65 9 36 20 51 52 73 97 65
116 96 29 46z"/>
<path d="M5965 4989 c-49 -43 -82 -109 -55 -109 5 0 16 15 24 33 14 36 69 87
92 87 8 0 14 5 14 10 0 21 -41 9 -75 -21z"/>
<path d="M6018 4915 c-30 -17 -68 -73 -68 -101 0 -17 2 -17 18 4 14 18 23 21
49 16 49 -10 79 2 94 37 11 28 11 33 -6 45 -24 18 -53 17 -87 -1z"/>
<path d="M5791 4820 c-49 -49 -79 -90 -65 -90 3 0 37 32 75 70 38 39 63 70 56
70 -8 0 -37 -23 -66 -50z"/>
<path d="M6194 4572 c-1 -121 -7 -159 -53 -346 -18 -72 10 -21 35 65 28 98 50
294 40 362 -12 82 -21 51 -22 -81z"/>
<path d="M6096 4523 c-16 -32 -60 -75 -93 -92 -12 -6 -55 -11 -95 -12 -86 -1
-135 -14 -77 -20 74 -9 184 6 217 30 28 19 82 95 82 114 0 17 -21 4 -34 -20z"/>
<path d="M6106 4176 c-4 -15 -4 -31 -1 -37 8 -11 -18 -104 -51 -181 -27 -64
-28 -68 -15 -68 5 0 23 33 39 73 36 86 58 198 44 223 -8 14 -10 13 -16 -10z"/>
<path d="M5727 4103 c-11 -10 -8 -166 3 -183 7 -10 10 18 10 88 0 102 -1 108
-13 95z"/>
<path d="M7010 3978 c0 -9 5 -20 11 -24 14 -9 69 -124 69 -146 0 -9 5 -20 11
-24 9 -5 10 4 5 32 -13 66 -95 206 -96 162z"/>
<path d="M5763 3894 c6 -76 24 -127 42 -120 6 2 21 -22 33 -53 20 -53 79 -137
89 -128 2 3 -12 31 -32 63 -19 33 -44 87 -56 122 -11 34 -25 60 -29 57 -5 -3
-7 -13 -4 -23 5 -14 4 -14 -6 1 -7 11 -14 46 -17 78 -3 33 -10 62 -16 66 -7 4
-8 -17 -4 -63z"/>
<path d="M7810 3855 c0 -3 26 -31 58 -63 31 -31 70 -84 87 -117 19 -37 31 -53
33 -43 5 27 -44 110 -96 163 -44 44 -82 72 -82 60z"/>
<path d="M6431 3798 c-5 -13 -27 -66 -49 -118 -42 -98 -66 -175 -77 -254 -11
-73 10 -54 24 22 11 60 45 158 110 320 11 28 16 52 11 52 -6 0 -14 -10 -19
-22z"/>
<path d="M8094 3432 c0 -120 -2 -133 -37 -236 -41 -119 -42 -152 -3 -63 33 73
54 157 62 244 7 72 -2 183 -14 183 -4 0 -7 -57 -8 -128z"/>
<path d="M6319 3344 c-5 -44 27 -169 49 -186 14 -11 15 -10 8 7 -4 11 -17 56
-28 100 -20 79 -27 97 -29 79z"/>
<path d="M8071 3043 c16 -42 52 -103 61 -103 4 0 -7 29 -24 65 -32 64 -57 90
-37 38z"/>
<path d="M7210 3052 c0 -17 90 -42 144 -41 49 1 48 2 -36 19 -48 10 -92 21
-97 25 -6 3 -11 2 -11 -3z"/>
<path d="M6360 2666 c0 -3 20 -47 45 -98 25 -51 62 -145 82 -208 38 -118 56
-138 29 -30 -28 108 -128 340 -147 340 -5 0 -9 -2 -9 -4z"/>
<path d="M6916 2622 c-2 -4 -7 -25 -11 -47 -4 -22 -23 -91 -42 -153 -39 -132
-51 -202 -34 -202 6 0 11 11 11 24 0 13 17 84 39 157 46 162 64 264 37 221z"/>
<path d="M8677 2543 c11 -31 50 -88 92 -137 35 -40 41 -54 41 -92 0 -28 4 -43
10 -39 6 3 10 26 10 49 0 39 -7 52 -61 116 -33 40 -66 84 -71 96 -13 28 -31
33 -21 7z"/>
<path d="M6828 1896 c-10 -7 -15 -16 -12 -19 9 -8 44 11 44 23 0 13 -12 12
-32 -4z"/>
<path d="M8096 2533 c16 -64 38 -113 85 -191 45 -73 51 -88 47 -127 -3 -48 6
-60 16 -22 12 47 5 75 -44 157 -46 77 -90 176 -90 200 0 6 -5 10 -10 10 -6 0
-8 -11 -4 -27z"/>
</g>
</svg>
