<?xml version="1.0" standalone="no"?>
<!DOCTYPE svg PUBLIC "-//W3C//DTD SVG 20010904//EN"
 "http://www.w3.org/TR/2001/REC-SVG-20010904/DTD/svg10.dtd">
<svg version="1.0" xmlns="http://www.w3.org/2000/svg"
 width="1024.000000pt" height="559.000000pt" viewBox="0 0 1024.000000 559.000000"
 preserveAspectRatio="xMidYMid meet">
<metadata>
Created by potrace 1.16, written by Peter Selinger 2001-2019
</metadata>
<g transform="translate(0.000000,559.000000) scale(0.100000,-0.100000)"
fill="#000000" stroke="none">
<path d="M4755 4289 c-527 -41 -930 -182 -1257 -440 -474 -373 -656 -938 -478
-1480 49 -151 97 -241 195 -369 407 -532 1346 -811 2268 -674 683 101 1321
484 1546 929 86 171 123 395 87 533 -20 78 -20 72 4 72 37 0 130 41 150 67 36
47 18 103 -42 130 -35 16 -38 20 -38 58 0 65 -17 80 -88 78 -57 -1 -61 0 -72
27 -26 63 -81 81 -125 40 -26 -24 -50 -81 -60 -141 -5 -32 -9 -36 -28 -32 -47
10 -46 9 -31 65 30 114 9 279 -51 397 -109 217 -442 461 -817 600 -336 125
-739 174 -1163 140z m505 -64 c448 -40 830 -177 1137 -407 272 -203 386 -433
325 -653 l-17 -59 -70 -16 c-84 -19 -161 -59 -226 -117 -39 -35 -54 -43 -87
-43 l-40 0 -7 64 c-17 162 -90 301 -225 430 -250 238 -616 381 -1007 394 -119
3 -163 8 -163 17 0 21 -78 133 -125 181 -49 48 -49 59 -6 98 22 20 27 36 13
36 -5 0 -26 -15 -48 -34 l-39 -33 -36 24 c-44 29 -126 56 -134 43 -3 -5 23
-22 58 -39 92 -44 96 -51 59 -108 -40 -61 -75 -140 -69 -156 2 -7 12 4 22 23
23 46 105 160 114 160 11 0 83 -79 135 -147 l47 -63 -43 0 c-60 0 -218 -25
-308 -49 -70 -18 -76 -18 -85 -3 -30 51 -131 136 -200 169 l-75 35 5 37 c6 34
5 35 -9 17 -9 -11 -16 -26 -16 -34 0 -11 -8 -13 -32 -8 -73 15 -136 18 -142 8
-7 -12 0 -14 92 -33 l64 -12 -7 -31 c-16 -80 -25 -146 -25 -196 1 -67 14 -49
24 30 15 118 29 180 43 180 32 0 153 -73 208 -125 l60 -57 -35 -16 c-207 -93
-290 -146 -397 -251 -109 -108 -181 -222 -218 -346 -19 -64 -27 -246 -12 -297
l7 -28 -56 36 c-31 20 -77 43 -103 51 -25 9 -50 19 -54 23 -12 10 66 39 128
48 61 9 65 26 7 30 -46 3 -128 -20 -177 -50 -24 -14 -41 -17 -86 -12 -79 9
-238 -20 -219 -40 3 -2 42 0 87 6 45 6 93 8 107 4 24 -6 22 -9 -47 -79 -66
-67 -131 -167 -152 -234 -12 -42 10 -23 45 38 43 75 120 165 189 220 l52 42
53 -12 c58 -13 178 -69 212 -98 11 -10 40 -55 63 -100 73 -141 189 -250 366
-343 44 -23 81 -44 83 -45 2 -2 -16 -12 -40 -23 -24 -10 -64 -35 -90 -55 -46
-35 -48 -36 -48 -14 0 12 6 47 14 77 8 30 13 56 11 58 -11 11 -38 -57 -48
-117 -9 -60 -17 -78 -53 -122 -48 -59 -97 -144 -92 -160 2 -6 25 21 51 59 69
101 77 106 77 45 0 -57 35 -202 52 -218 8 -7 9 -5 4 9 -4 11 -12 77 -18 147
-10 114 -10 130 5 153 20 29 120 99 181 127 42 18 44 18 97 0 78 -28 213 -61
299 -75 l75 -11 -37 -23 c-113 -70 -238 -278 -238 -396 0 -39 13 -24 29 34 37
127 133 266 241 345 48 35 50 36 117 29 66 -7 71 -9 180 -91 157 -119 149
-107 113 -184 -32 -69 -91 -231 -86 -237 6 -5 33 43 77 138 64 138 64 137 84
120 10 -8 54 -61 98 -118 45 -57 83 -99 85 -93 5 16 -67 135 -115 191 -68 80
-66 75 -47 112 22 43 93 135 136 174 49 46 100 51 223 19 128 -32 211 -72 207
-100 -3 -27 -28 -119 -64 -238 -17 -54 -28 -100 -26 -103 9 -8 76 149 102 240
14 49 27 90 29 92 8 9 121 -94 181 -165 38 -45 71 -79 74 -77 2 3 -10 31 -29
62 -36 60 -118 151 -182 200 l-38 29 25 116 c14 64 28 122 31 130 8 21 89 69
116 69 61 0 189 -34 258 -68 l76 -37 3 -46 c3 -40 -26 -241 -45 -308 -12 -44
15 -13 31 37 19 58 56 228 56 262 0 22 10 14 85 -60 47 -47 85 -80 85 -74 0
21 -59 100 -114 154 l-56 54 0 82 c0 95 -31 230 -60 258 -11 11 -21 18 -24 15
-2 -2 6 -35 19 -74 14 -41 26 -110 30 -167 l7 -98 -58 29 c-75 37 -143 58
-216 66 l-58 6 65 55 c51 44 236 258 314 365 21 29 101 84 150 103 83 32 143
38 216 21 87 -20 133 -45 179 -96 64 -70 80 -118 84 -250 3 -100 1 -128 -22
-215 -88 -333 -359 -613 -816 -841 -402 -200 -903 -296 -1379 -263 -289 19
-587 77 -797 155 -666 247 -1024 688 -1024 1260 0 203 36 358 130 550 201 416
653 727 1230 849 276 58 596 76 880 51z m-108 -476 c284 -31 589 -152 790
-315 178 -144 272 -318 272 -504 -1 -155 -45 -262 -143 -347 -269 -230 -645
-353 -1081 -353 -516 0 -918 168 -1103 462 -39 62 -67 173 -67 267 0 173 66
317 215 467 256 257 655 373 1117 323z m1827 -574 c22 -51 52 -64 107 -47 40
12 46 7 38 -34 -8 -43 9 -72 57 -90 21 -9 39 -22 39 -29 0 -13 -86 -51 -127
-57 -15 -2 -30 9 -51 35 -35 44 -95 93 -123 102 -10 4 -19 14 -19 24 0 41 39
141 56 141 2 0 12 -20 23 -45z m-659 -302 c-1 -16 -50 -68 -50 -53 0 35 13 60
31 60 11 0 19 -3 19 -7z m-444 -520 c-7 -16 -46 -187 -46 -198 0 -3 -17 3 -37
14 -39 19 -144 54 -198 66 -27 6 -22 10 60 39 50 17 117 45 150 62 72 37 79
39 71 17z m-580 -218 c-25 -30 -57 -75 -71 -100 l-27 -45 -32 27 c-18 16 -67
53 -110 83 l-77 55 109 7 c61 5 134 12 163 17 94 15 93 16 45 -44z"/>
<path d="M5181 4143 c8 -10 31 -39 51 -64 21 -25 38 -49 38 -53 0 -5 -12 -17
-26 -29 -35 -27 -114 -135 -114 -155 0 -10 33 19 76 66 42 45 81 82 88 82 14
0 77 -86 122 -167 16 -29 32 -53 37 -53 25 0 -17 94 -85 192 l-42 59 30 25
c16 14 47 37 68 52 30 21 35 28 22 30 -10 2 -43 -14 -74 -35 -31 -21 -60 -39
-64 -41 -4 -2 -33 22 -64 52 -53 53 -93 77 -63 39z"/>
<path d="M5832 3981 c47 -99 47 -111 -6 -144 -52 -33 -146 -115 -146 -128 0
-4 43 21 96 57 53 36 100 62 105 57 4 -4 16 -59 25 -120 10 -62 22 -113 28
-113 9 0 3 152 -10 222 -7 38 -6 38 40 59 26 11 80 26 119 33 67 11 70 13 48
25 -28 16 -93 8 -166 -20 -27 -10 -53 -19 -56 -19 -4 0 -14 20 -24 45 -17 45
-59 105 -74 105 -4 0 5 -26 21 -59z"/>
<path d="M3548 3708 c-21 -6 -38 -13 -38 -16 0 -4 57 -7 128 -7 151 -1 246
-20 346 -71 38 -19 71 -33 73 -31 8 9 -64 61 -116 84 -104 46 -297 66 -393 41z"/>
<path d="M6366 3686 c-9 -14 -22 -36 -30 -48 -9 -16 -31 -27 -71 -36 -94 -22
-210 -80 -193 -97 4 -4 27 2 52 14 24 12 74 30 111 41 62 18 67 18 62 2 -3 -9
-16 -57 -31 -105 -16 -57 -23 -95 -17 -104 11 -20 12 -18 55 113 42 128 41
127 155 117 46 -5 62 -3 57 5 -9 15 -72 32 -118 32 -21 0 -38 2 -38 4 0 2 7
20 16 41 18 44 12 57 -10 21z"/>
<path d="M3343 3450 c-37 -15 -26 -25 22 -22 47 4 136 -20 154 -42 9 -10 -7
-18 -72 -35 -94 -25 -181 -67 -244 -118 -50 -40 -58 -65 -10 -34 92 61 258
127 347 138 l45 5 83 -87 c46 -47 86 -84 89 -82 9 10 -31 72 -81 125 l-51 54
40 -7 c47 -7 125 -34 143 -48 22 -17 13 9 -10 30 -33 29 -102 53 -153 53 -32
0 -62 10 -109 36 -69 38 -151 52 -193 34z"/>
<path d="M6448 3275 c34 -20 68 -35 75 -32 18 6 -64 56 -103 63 -31 5 -29 2
28 -31z"/>
<path d="M6615 2840 c4 -8 16 -24 26 -35 24 -28 94 -161 110 -210 7 -22 20
-74 30 -115 15 -68 24 -68 20 0 -6 106 -76 263 -147 330 -26 25 -43 38 -39 30z"/>
<path d="M3722 2540 c-33 -22 -75 -60 -93 -84 -24 -30 -50 -51 -86 -66 -61
-25 -143 -82 -126 -87 6 -2 39 10 73 27 34 17 64 29 66 27 2 -2 -3 -18 -12
-36 -36 -73 -60 -231 -34 -231 6 0 10 13 10 28 0 80 77 255 118 270 64 24 145
36 249 37 62 0 113 3 113 6 0 4 -20 12 -45 19 -45 13 -191 9 -260 -6 l-30 -7
39 41 c21 23 63 51 92 64 62 27 68 38 20 38 -23 0 -53 -13 -94 -40z"/>
<path d="M5071 3685 c2 -5 20 -39 38 -75 26 -48 35 -78 35 -117 1 -28 4 -49 9
-46 4 2 7 -24 8 -59 0 -35 4 -81 8 -103 l7 -40 12 65 c8 44 9 86 2 129 -10 70
2 106 55 169 14 16 25 33 25 37 0 15 -43 -30 -70 -72 l-27 -41 -26 56 c-14 32
-38 69 -53 82 -15 14 -25 21 -23 15z"/>
<path d="M4456 3601 c-4 -5 17 -14 45 -20 58 -13 137 -50 188 -88 21 -16 47
-53 68 -97 l34 -71 -6 45 -5 45 17 -35 c9 -19 19 -62 23 -95 l7 -60 2 66 c1
55 -4 76 -30 127 -43 86 -98 132 -201 165 -86 28 -133 34 -142 18z"/>
<path d="M5638 3445 c-51 -19 -118 -66 -158 -111 -35 -40 -90 -148 -90 -176 0
-24 19 -33 26 -11 24 74 70 147 125 197 60 56 124 96 154 96 8 0 15 5 15 10 0
13 -27 12 -72 -5z"/>
<path d="M4174 3290 c-55 -11 -114 -37 -114 -49 0 -5 22 -3 53 5 62 18 214 21
230 5 8 -8 2 -11 -21 -11 -44 0 -86 -23 -115 -62 -37 -51 -42 -76 -8 -39 34
37 104 70 145 71 41 0 110 -35 141 -72 46 -54 75 -122 69 -160 -5 -27 -1 -40
21 -66 l27 -32 -46 0 c-142 0 -317 -119 -341 -231 -11 -49 2 -45 28 8 27 53
95 121 148 148 47 25 158 55 200 55 21 0 68 -15 111 -35 107 -51 214 -69 373
-62 72 3 155 13 184 21 50 14 61 14 120 -1 113 -27 187 -68 263 -146 37 -39
68 -67 68 -63 0 20 -43 85 -77 117 -63 60 -145 103 -237 124 l-29 6 54 34 c30
19 73 56 97 84 28 33 64 61 109 83 63 31 75 33 163 32 66 0 107 -6 134 -17 54
-24 66 -21 33 8 -39 35 -99 48 -197 43 -78 -5 -108 -13 -192 -56 -5 -2 -8 3
-8 12 0 31 -25 16 -68 -40 l-44 -57 -45 52 c-54 62 -164 118 -297 151 -73 18
-111 21 -203 18 -95 -3 -113 -1 -113 12 -1 12 -3 12 -11 -2 -5 -9 -36 -29 -68
-43 -32 -15 -74 -42 -92 -61 l-33 -34 -37 79 c-39 84 -70 115 -154 152 -55 24
-156 33 -221 19z m973 -218 c102 -33 182 -79 213 -122 28 -39 26 -47 -22 -68
-84 -38 -208 -62 -317 -62 -172 0 -391 84 -391 149 0 47 87 113 173 131 82 18
244 4 344 -28z"/>
<path d="M4982 2708 c-57 -58 -105 -159 -109 -228 l-3 -55 19 55 c30 90 58
144 106 209 52 71 46 80 -13 19z"/>
</g>
</svg>
