<?xml version="1.0" standalone="no"?>
<!DOCTYPE svg PUBLIC "-//W3C//DTD SVG 20010904//EN"
 "http://www.w3.org/TR/2001/REC-SVG-20010904/DTD/svg10.dtd">
<svg version="1.0" xmlns="http://www.w3.org/2000/svg"
 width="1024.000000pt" height="559.000000pt" viewBox="0 0 1024.000000 559.000000"
 preserveAspectRatio="xMidYMid meet">
<metadata>
Created by potrace 1.16, written by Peter Selinger 2001-2019
</metadata>
<g transform="translate(0.000000,559.000000) scale(0.100000,-0.100000)"
fill="#000000" stroke="none">
<path d="M4700 4329 c-237 -25 -542 -92 -765 -169 -250 -86 -581 -272 -800
-449 -148 -120 -389 -365 -289 -294 16 12 38 31 49 43 28 32 175 155 270 227
146 110 363 242 510 311 61 29 58 26 -35 -36 -225 -147 -393 -312 -704 -692
-65 -80 -155 -183 -200 -229 -62 -65 -70 -76 -36 -50 62 47 156 143 280 284
237 272 400 440 520 535 235 188 469 313 695 372 431 112 939 137 1445 72 460
-59 1031 -312 1440 -638 116 -92 121 -94 40 -17 -163 156 -367 293 -635 427
-93 47 -161 83 -150 79 316 -102 554 -219 890 -437 23 -15 20 -11 -10 16 -74
68 -301 212 -436 279 -392 192 -810 311 -1276 361 -157 18 -652 20 -803 5z"/>
<path d="M6907 3471 c-12 -93 -51 -209 -117 -347 l-57 -122 -79 -30 c-92 -35
-168 -61 -171 -58 -1 1 9 33 23 71 52 143 68 315 42 454 l-12 66 -7 -90 c-9
-105 -41 -223 -98 -355 -37 -83 -96 -190 -107 -190 -2 0 -44 -9 -92 -20 -129
-28 -337 -58 -498 -70 -206 -15 -189 -20 -149 48 48 80 92 205 111 315 14 78
14 105 4 172 -10 69 -32 145 -42 145 -2 0 -4 -37 -4 -83 -3 -176 -87 -395
-215 -557 l-39 -50 -93 0 c-50 0 -155 5 -232 10 -143 10 -229 19 -670 66 -323
35 -733 40 -910 11 -192 -32 -300 -65 -488 -148 -186 -82 -287 -149 -364 -239
-95 -110 -84 -208 26 -241 37 -11 63 -9 214 16 197 34 335 37 437 11 71 -18
67 -16 290 -111 245 -105 566 -231 675 -264 270 -83 549 -121 878 -121 408 0
654 54 972 212 174 87 419 262 534 381 l33 35 94 -5 c217 -13 478 73 670 222
38 30 107 72 153 94 124 60 305 187 354 248 50 62 50 66 -3 20 -45 -39 -258
-157 -283 -157 -4 0 13 28 38 62 48 64 110 184 125 241 7 26 7 29 -3 13 -53
-85 -269 -314 -337 -359 -31 -20 -233 -57 -310 -57 -69 0 -216 24 -285 47 -51
17 -100 41 -141 71 -26 19 -27 22 -15 41 7 11 17 10 56 -9 116 -56 305 -51
439 13 124 59 229 142 276 219 33 54 23 54 -35 -3 -120 -117 -255 -173 -415
-173 -85 0 -101 3 -155 29 -32 17 -61 35 -62 40 -2 6 25 27 59 47 88 50 184
124 210 161 l23 32 -28 -18 c-37 -24 -262 -147 -269 -147 -3 0 5 36 18 80 30
102 46 225 42 320 l-3 75 -8 -64z m-373 -243 c-16 -147 -89 -335 -176 -453
-163 -221 -393 -365 -646 -405 -92 -15 -222 7 -280 48 -10 7 -8 19 9 58 12 27
23 50 24 52 2 2 20 -9 41 -23 114 -77 305 -71 474 15 136 69 282 199 370 329
73 109 158 304 176 404 10 59 16 43 8 -25z m-859 -25 c-9 -83 -65 -258 -107
-333 -95 -171 -249 -322 -361 -355 -138 -41 -255 15 -292 138 -22 73 -20 91 8
83 12 -3 28 -6 35 -6 6 0 12 -7 12 -17 0 -9 11 -35 25 -58 47 -82 140 -96 261
-39 80 37 222 181 287 290 51 87 110 240 121 317 11 72 19 56 11 -20z m1160
-100 c-111 -295 -331 -531 -550 -589 -58 -16 -135 -18 -135 -4 0 15 31 28 107
45 95 22 221 94 311 180 85 80 192 234 241 348 37 83 55 98 26 20z m935 -120
c-157 -268 -455 -486 -749 -548 -83 -17 -255 -20 -333 -5 -86 17 -168 42 -162
51 2 4 -8 7 -24 7 -15 -1 -43 7 -61 17 l-34 17 49 30 c44 28 51 30 79 18 248
-105 431 -112 663 -24 175 65 400 235 524 395 34 43 63 79 66 79 2 0 -6 -17
-18 -37z m-908 -42 c67 -45 146 -64 249 -59 106 5 97 -6 -18 -23 -67 -10 -97
-10 -155 1 -75 13 -133 33 -142 49 -5 8 12 61 20 61 2 0 22 -13 46 -29z m-193
-38 c-7 -10 -22 -28 -33 -40 l-19 -23 -15 21 c-8 11 -12 22 -10 25 4 3 76 31
87 33 2 1 -3 -7 -10 -16z m-91 -56 l19 -33 -24 -29 -24 -28 -40 39 c-21 21
-39 41 -39 45 0 4 19 14 43 22 23 9 43 16 44 16 0 1 10 -14 21 -32z m-95 -62
c21 -24 36 -48 33 -53 -3 -5 -23 -21 -45 -36 l-40 -28 -30 23 c-17 13 -31 26
-31 31 0 11 64 108 70 107 3 -1 22 -21 43 -44z m-2716 -26 c-11 -129 -132
-298 -259 -362 l-53 -27 45 6 c185 26 361 187 416 379 l19 65 62 0 c71 0 71
-1 49 -73 -28 -92 -119 -214 -221 -295 -39 -31 -39 -31 -10 -23 127 35 280
169 335 294 12 26 24 47 27 47 12 0 -7 -119 -28 -174 -47 -127 -216 -250 -360
-263 -57 -6 -60 -7 -38 -19 13 -7 55 -13 92 -14 178 -1 310 90 433 296 9 15
10 7 6 -37 -6 -76 12 -179 42 -241 l26 -53 -8 45 c-15 94 0 208 39 296 l22 49
9 -68 c18 -153 112 -297 235 -360 51 -27 57 -20 20 23 -47 55 -93 144 -112
215 -17 67 -20 160 -5 150 6 -3 10 -14 10 -24 0 -9 17 -53 39 -97 106 -218
262 -336 448 -338 96 -1 136 18 54 26 -67 7 -168 58 -235 119 -97 89 -157 211
-175 356 -11 89 -8 102 23 96 21 -4 24 -11 28 -76 10 -133 71 -243 178 -322
130 -95 244 -108 377 -43 l41 21 29 -20 c87 -62 249 -113 358 -113 84 0 205
33 279 75 129 73 145 106 25 51 -106 -49 -156 -60 -257 -54 -63 4 -107 13
-159 34 -40 16 -73 31 -73 34 0 3 43 3 96 1 112 -4 189 9 293 49 61 24 77 27
100 17 15 -6 84 -11 166 -11 128 0 146 2 212 27 69 26 75 27 115 13 24 -7 63
-19 86 -26 l44 -11 -63 -57 c-137 -124 -298 -234 -469 -321 -141 -71 -214
-101 -350 -140 -404 -116 -962 -100 -1457 43 -123 35 -523 190 -708 274 -132
59 -255 101 -328 111 -64 9 -68 12 -97 89 -38 101 -18 246 46 321 24 29 30 31
211 72 65 14 66 13 60 -30 -14 -107 -120 -246 -226 -299 -54 -26 -55 -27 -25
-30 68 -7 223 76 301 160 46 51 87 124 98 178 11 50 11 50 72 50 l56 0 -6 -61z
m133 51 c0 -5 -10 -35 -21 -67 -43 -115 -131 -224 -234 -289 -22 -14 -15 -3
28 46 76 85 118 170 124 254 l6 66 48 0 c27 0 49 -4 49 -10z m242 0 c17 0 19
-4 13 -27 -11 -46 -71 -135 -122 -184 -75 -71 -90 -78 -48 -24 46 61 91 153
100 207 5 29 11 38 22 34 8 -3 24 -6 35 -6z m2641 -25 c128 -87 382 -128 569
-91 74 14 78 7 15 -27 -39 -20 -55 -22 -212 -22 -183 1 -272 18 -375 70 -79
41 -87 49 -71 79 8 14 16 26 18 26 2 0 27 -16 56 -35z m972 14 c-32 -22 -121
-69 -130 -69 -33 0 114 87 150 89 6 1 -3 -8 -20 -20z m-4135 -5 c0 -9 -14 -45
-31 -81 -32 -68 -110 -154 -170 -187 l-34 -20 43 48 c50 55 89 132 98 196 9
60 9 60 55 60 29 0 39 -4 39 -16z m641 6 c26 0 29 -3 29 -33 0 -88 -63 -216
-153 -310 -58 -60 -178 -127 -227 -127 -18 0 -9 7 32 24 166 68 261 206 261
379 0 64 2 77 14 73 8 -3 28 -6 44 -6z m77 -33 c-16 -33 -18 -33 -18 1 0 24 4
30 15 26 12 -5 12 -10 3 -27z m1922 24 c0 -5 -18 -28 -39 -52 l-39 -44 -31 29
c-17 17 -31 33 -31 37 0 4 28 14 63 22 80 19 77 19 77 8z m-1806 -11 c38 -4
72 -13 76 -20 4 -6 0 -45 -8 -88 -24 -126 3 -254 79 -372 l23 -35 -39 35 c-97
89 -159 235 -153 359 l3 70 -22 -21 c-28 -26 -62 -106 -83 -193 l-17 -70 -7
45 c-8 58 15 190 44 253 12 26 25 47 29 47 3 -1 37 -5 75 -10z m177 -16 l35
-6 -4 -60 c-12 -166 97 -368 253 -471 33 -21 49 -36 35 -32 -186 55 -360 288
-386 518 -7 63 -8 63 67 51z m1469 -16 c0 -6 11 -26 25 -44 l25 -32 -42 -31
c-23 -17 -47 -31 -54 -31 -19 0 -94 62 -112 92 -20 34 -13 41 51 49 85 10 107
10 107 -3z m-1258 -73 c12 -135 80 -232 203 -291 109 -53 206 -45 306 27 41
29 36 7 -8 -31 -51 -46 -116 -72 -190 -78 -58 -4 -70 -2 -138 32 -82 41 -163
114 -195 176 -27 53 -50 144 -50 198 0 43 0 43 33 40 l32 -3 7 -70z m1088 -6
c14 -21 41 -50 59 -63 29 -21 31 -26 17 -32 -30 -11 -186 111 -186 146 0 5 15
10 33 12 33 4 34 3 77 -63z m806 32 c35 -21 99 -48 142 -60 95 -26 246 -42
314 -34 59 7 60 -8 1 -28 -49 -16 -215 -5 -315 20 -81 21 -224 77 -233 92 -5
7 15 49 23 49 2 0 32 -18 68 -39z m-1669 -21 c12 -25 22 -48 22 -52 2 -18 -24
-5 -55 28 -40 42 -46 77 -12 72 16 -2 30 -18 45 -48z m-1906 -12 c-23 -46 -26
-65 -26 -153 0 -85 3 -106 23 -142 12 -23 22 -45 22 -48 0 -3 -22 -5 -49 -5
-56 0 -164 -13 -299 -36 -186 -33 -244 7 -173 117 35 54 77 94 157 148 61 41
173 95 181 88 2 -2 -1 -16 -7 -31 -12 -32 -12 -93 0 -121 6 -15 9 -8 9 29 1
59 19 121 40 140 23 20 113 65 132 66 13 0 12 -9 -10 -52z m2028 30 c24 -65
24 -67 -11 -76 -18 -5 -36 -7 -41 -5 -4 3 -19 27 -32 54 l-25 49 50 0 c43 0
52 -3 59 -22z m105 14 l39 -7 -41 -28 c-23 -15 -44 -27 -47 -27 -5 0 -35 55
-35 65 0 7 35 6 84 -3z m361 -28 c8 -20 29 -54 47 -77 l33 -41 -34 20 c-41 23
-123 113 -115 125 3 5 16 9 29 9 19 0 28 -9 40 -36z m140 17 c7 -23 88 -106
126 -128 16 -10 29 -20 29 -24 0 -4 -18 -14 -41 -23 -39 -16 -42 -16 -72 5
-64 44 -167 157 -167 183 0 3 27 6 59 6 49 0 61 -3 66 -19z m-224 -18 c21 -56
106 -125 192 -158 26 -10 47 -22 47 -27 0 -14 -89 2 -145 27 -50 22 -147 102
-165 135 -15 28 -1 50 31 50 23 0 32 -6 40 -27z m804 -13 c21 -23 23 -21 -33
-49 -65 -33 -81 -21 -41 29 37 45 48 48 74 20z m-1433 -128 c53 -54 103 -76
181 -77 64 -1 70 -3 104 -37 l36 -36 -43 -12 c-77 -21 -196 25 -269 105 -36
40 -82 136 -81 173 1 9 10 -5 20 -32 11 -27 34 -65 52 -84z m1731 99 c76 -43
208 -79 317 -87 113 -9 91 -20 -55 -30 -98 -7 -212 10 -308 47 -84 31 -86 34
-52 69 16 16 32 30 37 30 5 0 32 -13 61 -29z m-1193 11 c0 -18 75 -95 124
-128 56 -37 41 -46 -29 -16 -69 29 -105 55 -106 77 0 11 -3 14 -6 7 -4 -10 -9
-9 -24 4 -19 17 -19 18 3 41 22 23 38 30 38 15z m-56 -81 c20 -22 13 -41 -27
-79 l-25 -23 -23 32 -22 32 34 28 c41 34 41 34 63 10z m-95 -93 l24 -30 -24
-19 c-31 -24 -46 -21 -76 18 l-24 32 28 15 c38 21 44 19 72 -16z m1075 7 c18
-14 14 -15 -50 -14 -67 1 -68 1 -39 14 39 18 65 18 89 0z m-154 -35 l95 -17
-49 -8 c-53 -8 -233 -2 -244 9 -4 4 4 16 18 27 18 14 33 18 55 13 17 -4 73
-14 125 -24z m-695 -155 c28 -14 84 -34 125 -44 62 -16 69 -20 38 -20 -86 -2
-217 38 -314 95 l-45 27 21 22 22 23 51 -39 c29 -22 75 -51 102 -64z"/>
<path d="M2985 1897 c84 -32 236 -114 347 -188 253 -168 524 -297 768 -363
174 -47 465 -97 551 -95 42 1 41 2 -16 10 -517 79 -865 205 -1275 464 -174
110 -312 175 -395 189 -35 5 -32 3 20 -17z"/>
<path d="M4718 1243 c6 -2 18 -2 25 0 6 3 1 5 -13 5 -14 0 -19 -2 -12 -5z"/>
</g>
</svg>
