<?xml version="1.0" standalone="no"?>
<!DOCTYPE svg PUBLIC "-//W3C//DTD SVG 20010904//EN"
 "http://www.w3.org/TR/2001/REC-SVG-20010904/DTD/svg10.dtd">
<svg version="1.0" xmlns="http://www.w3.org/2000/svg"
 width="1408.000000pt" height="768.000000pt" viewBox="0 0 1408.000000 768.000000"
 preserveAspectRatio="xMidYMid meet">
<metadata>
Created by potrace 1.16, written by Peter Selinger 2001-2019
</metadata>
<g transform="translate(0.000000,768.000000) scale(0.100000,-0.100000)"
fill="#000000" stroke="none">
<path d="M5397 6499 c-136 -15 -324 -88 -387 -151 -31 -31 -44 -36 -120 -47
-499 -71 -667 -130 -806 -284 -105 -116 -128 -259 -33 -203 27 16 34 16 121
-3 113 -24 237 -38 427 -47 l145 -7 78 -60 c90 -68 145 -143 180 -244 34 -101
31 -240 -11 -448 -62 -306 -49 -615 25 -554 9 7 20 22 24 33 4 13 10 -13 14
-72 4 -50 16 -131 25 -179 18 -85 71 -233 93 -260 16 -20 46 -15 53 8 5 16 13
3 35 -58 105 -295 309 -596 560 -826 140 -128 334 -264 486 -340 27 -14 55
-36 61 -49 6 -12 59 -90 118 -173 59 -82 113 -161 120 -175 15 -30 45 -158 45
-193 0 -25 -103 -185 -207 -325 -92 -121 -156 -144 -393 -140 -135 3 -148 1
-193 -20 -73 -37 -137 -126 -109 -154 6 -6 20 -4 42 7 24 12 45 15 76 10 51
-7 57 -15 45 -47 -5 -14 -6 -31 -1 -39 8 -12 14 -12 42 0 18 8 49 14 68 13
122 -5 157 -1 277 27 105 25 151 31 235 30 56 -1 114 -4 128 -8 22 -7 18 -9
-30 -20 -30 -7 -109 -16 -175 -20 -130 -8 -165 -20 -223 -75 -80 -74 -83 -172
-4 -120 22 15 49 18 137 19 61 1 123 5 138 9 l28 8 -20 -33 c-28 -49 -35 -100
-17 -124 15 -20 16 -20 78 12 35 17 93 41 130 52 36 11 106 44 155 73 l88 53
90 -4 c96 -4 202 -4 275 -1 25 1 59 -1 76 -5 24 -5 33 -3 38 10 11 29 -32 104
-77 133 -36 24 -52 27 -141 30 -103 4 -126 11 -126 42 0 42 191 391 245 450
13 14 39 50 57 80 19 30 40 56 48 58 44 10 57 76 40 206 -7 48 -10 89 -8 92 3
2 42 -7 89 -21 114 -33 198 -41 224 -21 19 14 19 17 4 43 l-15 28 91 0 c95 0
145 17 145 50 0 11 14 9 66 -11 198 -74 631 -191 793 -214 80 -11 89 -15 200
-89 343 -230 512 -309 632 -298 47 4 67 1 109 -19 108 -50 224 -69 271 -44 15
8 38 4 99 -16 69 -24 82 -25 109 -14 24 10 31 19 31 40 0 50 -79 118 -428 369
-79 57 -141 106 -138 108 3 3 56 -8 118 -25 202 -55 276 -60 291 -20 19 55
-112 187 -323 323 -52 34 -216 133 -365 221 -148 87 -305 185 -348 218 -72 54
-77 60 -63 75 22 24 20 64 -4 111 -11 22 -20 46 -20 54 0 32 -44 114 -97 181
-149 186 -395 393 -737 620 -254 168 -263 175 -410 333 -218 234 -377 369
-684 577 -76 51 -189 124 -253 164 -189 116 -195 122 -309 357 -54 112 -120
236 -145 275 -40 62 -44 74 -31 81 25 14 19 37 -22 92 -66 86 -333 356 -395
398 -147 100 -357 149 -550 127z m256 -63 c182 -35 287 -104 493 -324 130
-139 153 -168 135 -170 -11 -2 -21 -10 -21 -17 0 -8 27 -56 61 -107 33 -51
108 -189 166 -307 121 -245 136 -264 283 -355 283 -174 550 -363 711 -502 111
-95 533 -538 560 -587 10 -17 8 -17 -28 -2 -66 28 -204 105 -298 167 -68 45
-94 57 -110 52 -11 -5 -49 -8 -85 -7 -109 1 -247 71 -367 185 -56 55 -91 69
-76 33 7 -20 -28 -20 -98 1 -87 26 -177 78 -293 171 -138 112 -145 117 -153
109 -10 -10 102 -120 191 -187 139 -106 287 -165 354 -141 27 9 32 7 63 -26
55 -58 143 -118 226 -153 68 -29 89 -33 168 -34 87 0 93 -2 140 -35 191 -136
434 -242 459 -201 9 13 -8 47 -43 85 l-26 29 40 -23 c73 -43 329 -222 425
-299 129 -102 300 -269 371 -364 32 -43 59 -82 59 -88 0 -5 -10 -9 -21 -9 -20
0 -21 -1 -5 -22 108 -149 109 -164 13 -155 -127 12 -306 88 -633 269 -128 70
-237 128 -243 128 -20 0 -11 -19 22 -44 99 -75 505 -295 631 -342 45 -16 47
-19 30 -32 -162 -124 -461 -59 -1049 227 -121 59 -243 121 -271 137 l-51 29
91 0 c79 0 97 3 136 26 43 24 47 25 95 12 95 -26 186 -1 225 61 19 31 24 34
46 26 34 -13 98 -13 128 1 33 16 50 59 42 111 -8 51 -62 182 -82 199 -21 17
-18 0 16 -108 37 -115 38 -138 4 -159 -22 -15 -32 -15 -80 -5 -124 28 -303
138 -491 302 -56 49 -104 89 -107 89 -37 0 115 -156 250 -256 39 -29 112 -76
162 -105 80 -45 90 -54 81 -70 -24 -45 -106 -64 -186 -43 -117 30 -270 127
-457 288 -48 42 -92 76 -97 76 -21 0 -4 -22 74 -96 96 -93 222 -191 314 -244
l64 -38 -38 -13 c-91 -32 -253 -3 -379 67 -87 48 -221 154 -351 278 -61 58
-114 106 -117 106 -35 0 79 -131 224 -258 73 -64 239 -182 273 -195 8 -3 4
-13 -9 -27 -60 -62 -227 -22 -399 93 -126 85 -304 245 -434 390 -28 32 -47 45
-53 39 -17 -17 1 -47 83 -138 136 -149 322 -305 448 -377 30 -17 49 -33 43
-35 -8 -2 -5 -13 9 -33 23 -33 21 -33 -53 -18 -143 31 -317 131 -506 294 -108
93 -136 109 -113 67 11 -22 176 -167 261 -229 124 -92 305 -171 400 -174 l53
-2 33 -71 c18 -39 35 -86 39 -103 l7 -33 -42 0 c-159 0 -409 135 -615 332
-180 172 -385 431 -464 590 -93 184 -107 357 -39 501 39 81 108 157 180 200
62 36 188 77 238 77 48 0 80 14 80 35 0 45 -226 3 -340 -62 -109 -64 -198
-178 -234 -302 -37 -127 -13 -319 60 -462 139 -276 496 -672 739 -819 161 -97
333 -157 424 -147 39 4 54 -1 130 -45 113 -65 314 -162 421 -203 128 -48 210
-66 303 -65 70 1 95 -3 177 -33 52 -19 154 -52 225 -73 123 -35 134 -41 195
-95 36 -31 135 -110 220 -174 l155 -118 -46 6 c-143 19 -688 182 -805 242 -38
19 -75 35 -81 35 -19 0 -16 -39 7 -75 l20 -32 -49 -6 c-27 -3 -78 0 -117 9
-38 8 -75 14 -82 14 -25 0 -24 -31 3 -66 15 -19 25 -37 22 -40 -6 -6 -84 11
-184 41 -75 23 -82 28 -88 55 -5 21 -12 30 -27 30 -20 0 -20 -4 -14 -87 21
-301 21 -274 -4 -271 -18 3 -26 -6 -42 -49 -23 -58 -81 -133 -105 -133 -8 0
-30 16 -47 35 -24 25 -37 33 -53 29 -18 -5 -23 -1 -28 22 -3 16 -11 49 -16 74
-19 87 -94 221 -194 345 -125 156 -253 295 -271 295 -27 0 -14 -27 56 -113 38
-48 65 -87 60 -87 -16 0 -182 61 -284 105 -485 208 -886 592 -1106 1060 -45
95 -85 206 -110 305 -7 25 -17 51 -22 58 -16 19 -38 -5 -38 -42 0 -63 -16 -59
-38 9 -35 105 -54 239 -56 385 -1 128 -2 135 -21 135 -14 0 -28 -15 -46 -52
-23 -45 -28 -49 -33 -30 -18 69 -1 251 45 482 51 250 32 415 -64 557 -23 34
-66 82 -96 106 l-54 44 106 -7 107 -7 48 44 c27 25 66 51 88 58 96 30 112 72
43 118 -101 69 -141 104 -134 120 4 9 9 38 12 64 7 58 -9 100 -49 132 l-30 23
35 27 c44 34 189 93 270 111 83 18 228 18 320 1z m-618 -199 c27 -23 31 -40
27 -128 l-2 -46 -82 4 c-170 8 -313 43 -306 74 2 7 -12 23 -31 35 -23 16 -29
25 -20 29 23 8 311 53 351 54 25 1 45 -6 63 -22z m-455 -52 c0 -8 9 -20 20
-27 11 -7 20 -18 20 -25 0 -19 60 -59 115 -78 33 -11 97 -19 183 -23 l134 -5
84 -56 c46 -31 82 -60 81 -66 -2 -5 -26 -18 -53 -28 -27 -10 -67 -36 -90 -58
l-41 -40 -65 11 c-36 5 -188 17 -338 25 -232 13 -455 37 -468 50 -8 7 105 36
198 51 163 26 385 29 594 9 103 -10 189 -15 193 -11 50 50 -488 87 -759 52
-130 -17 -234 -44 -300 -77 -21 -11 -38 -15 -38 -10 0 5 18 33 40 62 84 111
212 190 382 234 112 29 108 29 108 10z m2832 -2728 c106 -63 278 -151 430
-221 90 -41 97 -47 107 -82 6 -20 8 -41 5 -46 -9 -15 -83 -8 -147 13 -34 11
-134 56 -221 100 -88 43 -162 76 -165 74 -12 -12 40 -47 168 -114 214 -110
336 -145 375 -105 15 14 17 13 26 -12 16 -40 9 -115 -12 -128 -34 -21 -299 86
-533 216 -55 30 -111 59 -125 63 -25 8 -25 7 -6 -13 44 -50 375 -225 522 -276
l69 -25 -45 0 c-112 -2 -320 71 -569 200 -206 106 -204 105 -219 176 -7 33
-33 96 -61 146 -27 48 -48 87 -48 87 1 0 24 -7 51 -15 74 -23 177 -20 209 5
14 11 29 30 32 41 7 21 7 21 33 -3 15 -14 71 -50 124 -81z m668 -322 c48 -24
246 -84 335 -101 72 -13 128 -35 279 -106 241 -114 328 -149 392 -155 46 -5
53 -3 64 16 19 37 -16 108 -126 259 -19 25 75 -40 205 -143 155 -123 331 -308
331 -348 0 -15 -79 1 -224 43 -197 58 -696 226 -1004 338 l-274 99 -24 59
c-13 33 -24 60 -24 62 0 5 42 -9 70 -23z m843 -36 c41 -23 174 -207 192 -266
5 -20 3 -23 -19 -23 -14 0 -54 10 -88 22 -93 32 -426 188 -402 188 44 0 125
32 166 65 39 31 48 34 88 29 25 -3 53 -10 63 -15z m-646 -178 c441 -167 1065
-372 1214 -399 146 -27 142 42 -11 202 -47 49 -74 83 -60 76 73 -38 310 -183
415 -254 115 -78 255 -198 255 -218 0 -16 -81 -2 -236 41 -505 139 -729 200
-1034 281 -404 107 -510 136 -682 191 l-128 41 20 25 c11 14 22 40 26 59 3 19
8 34 9 34 2 0 97 -35 212 -79z m-1730 -274 c48 -19 132 -46 185 -62 l98 -28
60 -76 c33 -42 58 -82 56 -91 -29 -104 -40 -132 -66 -168 -25 -34 -35 -41 -58
-39 -15 2 -33 7 -40 11 -6 4 -27 4 -46 1 -33 -7 -33 -7 -40 40 -18 115 -31
141 -167 330 -73 100 -82 115 -75 115 2 0 44 -15 93 -33z m2234 -43 c134 -36
305 -81 379 -100 312 -81 426 -116 450 -134 28 -22 246 -186 449 -337 75 -56
150 -116 166 -134 l30 -32 -35 6 c-79 15 -363 173 -648 362 -89 59 -136 85
-143 78 -7 -7 11 -27 53 -60 60 -48 364 -250 458 -305 25 -15 54 -34 65 -43
19 -15 17 -16 -34 -10 -115 13 -352 149 -794 458 -122 84 -164 104 -121 55 30
-34 243 -190 439 -320 99 -66 182 -123 185 -126 10 -10 -82 9 -132 28 -83 31
-258 132 -446 257 -179 119 -593 423 -575 423 5 0 119 -30 254 -66z m-1753
-346 c17 -40 33 -91 37 -113 4 -22 11 -55 17 -73 9 -29 4 -43 -55 -155 -76
-144 -128 -234 -155 -268 -19 -22 -21 -23 -39 -8 -25 22 -78 39 -122 39 -51 0
-111 19 -111 34 0 7 12 35 26 62 36 67 244 364 255 364 15 0 88 120 95 156 3
19 10 34 14 34 5 0 22 -33 38 -72z m-240 -133 c2 -2 -44 -72 -101 -156 -127
-187 -139 -210 -135 -256 4 -51 38 -72 129 -84 84 -10 132 -26 126 -43 -4 -13
-72 -13 -232 -2 -105 8 -118 6 -275 -29 -142 -31 -175 -35 -239 -30 l-74 7 32
20 c20 13 61 23 114 29 97 10 159 24 199 45 34 18 27 38 -10 29 -15 -3 -86
-12 -158 -19 -88 -9 -143 -20 -170 -34 -35 -18 -45 -18 -99 -8 l-60 13 30 19
c25 16 55 20 225 25 299 9 299 9 515 329 54 80 107 150 119 157 18 10 43 5 64
-12z m382 -94 c0 -6 14 -18 30 -28 17 -9 30 -21 30 -27 0 -5 -18 -38 -41 -73
-71 -113 -159 -302 -159 -342 0 -76 46 -101 182 -99 66 1 82 -2 113 -23 l35
-24 -53 -9 c-28 -5 -86 -7 -127 -5 -41 2 -116 3 -165 4 l-90 0 -101 -58 c-56
-32 -131 -66 -166 -76 -36 -10 -75 -24 -87 -30 -25 -14 -27 -4 -4 29 27 39 54
58 111 80 84 32 162 88 162 117 0 20 -19 16 -69 -16 -62 -39 -118 -57 -257
-80 -78 -12 -142 -17 -186 -14 -66 6 -67 6 -45 23 46 36 73 42 202 50 99 7
151 15 209 34 167 56 212 107 376 419 74 139 100 178 100 148z"/>
<path d="M5404 6236 c-99 -44 -98 -170 3 -212 26 -11 43 -12 73 -4 53 14 80
51 80 109 0 55 -20 88 -66 107 -41 17 -50 17 -90 0z m96 -61 c10 -12 10 -18 0
-30 -25 -30 -61 -7 -46 30 3 8 12 15 19 15 8 0 20 -7 27 -15z"/>
<path d="M5931 5714 c-41 -77 -126 -134 -200 -134 -12 0 -21 -6 -21 -15 0 -39
135 -2 193 53 34 32 67 92 67 122 0 32 -13 24 -39 -26z"/>
<path d="M8220 3801 c0 -21 308 -191 346 -191 33 0 5 20 -144 103 -159 89
-202 108 -202 88z"/>
<path d="M7989 2696 c28 -30 166 -94 211 -98 60 -5 45 16 -32 43 -40 14 -96
38 -125 52 -65 33 -83 34 -54 3z"/>
</g>
</svg>
