<?xml version="1.0" standalone="no"?>
<!DOCTYPE svg PUBLIC "-//W3C//DTD SVG 20010904//EN"
 "http://www.w3.org/TR/2001/REC-SVG-20010904/DTD/svg10.dtd">
<svg version="1.0" xmlns="http://www.w3.org/2000/svg"
 width="1024.000000pt" height="559.000000pt" viewBox="0 0 1024.000000 559.000000"
 preserveAspectRatio="xMidYMid meet">
<metadata>
Created by potrace 1.16, written by Peter Selinger 2001-2019
</metadata>
<g transform="translate(0.000000,559.000000) scale(0.100000,-0.100000)"
fill="#000000" stroke="none">
<path d="M5240 3993 c-14 -2 -103 -24 -198 -49 -201 -51 -481 -105 -767 -149
-60 -9 -148 -23 -195 -30 -47 -7 -177 -25 -290 -40 -247 -32 -533 -78 -690
-110 -182 -37 -281 -45 -432 -33 -159 12 -246 7 -432 -27 -77 -13 -241 -36
-365 -50 -124 -14 -237 -29 -251 -32 l-25 -6 25 -7 c44 -14 320 -10 458 5 74
8 137 17 141 19 3 2 51 12 106 21 83 15 136 17 310 11 226 -7 305 0 500 39
156 31 463 81 590 95 236 27 818 119 1075 170 58 12 184 42 280 67 162 42 182
45 276 41 98 -3 102 -4 175 -48 81 -49 77 -58 -17 -41 -121 23 -274 3 -396
-50 -40 -18 -143 -54 -228 -80 -85 -26 -143 -48 -127 -48 47 -1 279 48 347 74
139 52 291 69 407 45 117 -25 470 -71 602 -80 389 -25 480 -30 524 -30 45 0
47 -1 47 -28 0 -38 42 -120 86 -168 l36 -39 -22 35 c-26 42 -76 146 -85 178
-6 21 -4 22 68 22 l74 0 6 -60 c6 -55 32 -138 41 -129 2 2 -2 40 -10 84 -17
106 -17 105 9 105 23 0 196 -46 205 -54 3 -3 -14 -44 -37 -92 -22 -47 -41 -89
-41 -92 1 -16 72 106 82 141 6 20 16 37 22 37 6 0 52 -12 101 -25 128 -36 214
-55 335 -74 l105 -17 12 -40 11 -39 1 38 c1 32 4 37 26 37 20 0 25 -6 30 -37
4 -21 11 -49 16 -63 8 -21 8 -18 5 15 -2 22 -7 48 -12 59 -7 18 -3 18 77 11
100 -8 225 -29 220 -35 -6 -9 30 -84 52 -108 51 -56 189 -102 301 -102 59 0
69 3 103 33 21 17 40 35 41 40 9 20 22 3 22 -30 -1 -89 -78 -178 -205 -239
-86 -41 -160 -60 -290 -74 -106 -11 -151 -9 -309 17 l-98 16 6 51 c3 28 1 57
-3 65 -7 10 -11 1 -15 -30 -3 -24 -5 -53 -4 -64 3 -18 -6 -21 -92 -33 -107
-14 -318 -10 -425 8 -148 25 -138 20 -151 75 -8 35 -12 42 -13 23 0 -15 3 -38
9 -52 9 -24 8 -26 -22 -26 l-31 0 6 103 c5 92 4 99 -8 67 -7 -19 -14 -65 -14
-102 -1 -62 -3 -68 -23 -72 -240 -46 -391 -59 -525 -46 -59 5 -133 12 -164 14
-104 9 -182 57 -245 150 -19 28 -34 44 -34 35 0 -34 83 -141 132 -168 l48 -27
-35 -17 c-18 -9 -69 -50 -112 -91 -121 -115 -162 -142 -278 -178 -65 -20 -288
-38 -270 -21 6 5 44 22 85 38 84 32 242 106 237 112 -2 2 -85 -23 -183 -55
-98 -32 -180 -58 -182 -57 -1 1 11 38 28 81 30 79 70 226 69 254 0 8 -12 -7
-27 -35 l-27 -50 -3 59 c-2 32 1 79 7 105 11 54 7 65 -11 25 -7 -16 -13 -77
-14 -139 l-2 -110 -55 -115 c-30 -63 -71 -164 -92 -225 -41 -119 -80 -205 -94
-205 -23 0 -65 169 -77 310 -9 110 -20 131 -29 56 -9 -71 1 -202 20 -276 8
-30 13 -56 10 -58 -2 -2 -63 36 -137 85 -73 48 -146 96 -163 106 -70 43 120
-116 310 -260 89 -67 148 -99 245 -133 134 -45 184 -51 505 -60 320 -8 396
-17 534 -61 162 -51 276 -141 305 -239 20 -66 20 -135 0 -175 -8 -16 -12 -21
-8 -10 27 94 7 194 -54 264 -37 43 -39 44 -112 48 -93 6 -155 -9 -191 -48 -31
-33 -64 -154 -75 -274 -5 -62 -4 -73 16 -97 12 -16 30 -28 40 -28 10 0 21 -4
24 -8 3 -5 -27 -14 -67 -21 -116 -20 -229 -41 -274 -51 -23 -6 -60 -10 -82
-10 l-40 0 24 43 c25 44 49 131 58 205 7 62 0 48 -23 -44 -12 -43 -35 -107
-52 -141 -37 -74 -28 -73 -200 -39 -240 47 -275 51 -512 49 -262 -2 -368 12
-472 65 -57 29 -82 45 -189 119 l-50 35 61 -59 c34 -32 89 -74 123 -94 l61
-36 -218 -7 c-449 -15 -800 63 -1076 238 -28 18 -94 60 -146 94 -186 119 -364
189 -580 226 -125 21 -448 40 -490 29 -30 -8 -17 -10 80 -16 144 -8 339 -33
450 -57 97 -22 277 -82 330 -111 l35 -20 -80 6 c-82 6 -334 -8 -440 -25 -33
-5 -114 -17 -180 -26 -245 -33 -520 -100 -571 -139 -25 -19 -30 -20 231 21
472 73 550 84 678 95 153 14 348 7 427 -15 30 -9 113 -51 185 -94 71 -44 153
-91 181 -105 88 -44 250 -95 407 -129 l152 -32 380 -1 c219 -1 387 -5 395 -11
8 -5 148 -12 310 -15 280 -6 304 -8 465 -39 94 -18 204 -33 245 -34 78 -1 370
49 618 106 192 43 254 92 282 221 11 54 -6 160 -35 217 -24 47 -83 108 -131
136 l-43 25 57 57 c78 77 97 118 96 212 0 68 -4 84 -45 170 -25 52 -92 164
-147 248 -56 84 -102 155 -102 157 0 3 40 5 89 5 104 0 217 13 316 38 87 21
228 20 350 -2 106 -19 348 -22 440 -5 52 10 76 9 146 -5 169 -35 394 -31 538
11 175 50 310 151 352 263 19 49 20 61 10 111 -6 30 -11 64 -11 76 0 11 -8 27
-17 36 -33 29 -188 58 -408 77 -60 5 -141 16 -180 24 -38 8 -140 22 -225 30
-183 18 -320 43 -485 87 -66 17 -159 42 -207 54 -48 13 -93 27 -100 31 -7 5
-114 12 -238 16 -469 14 -655 27 -930 64 l-114 16 -61 54 c-33 30 -93 71 -134
91 -67 34 -82 37 -165 39 -50 1 -102 0 -116 -3z m3005 -573 c72 -5 169 -17
218 -26 72 -13 87 -19 87 -34 0 -25 -76 -88 -114 -96 -79 -14 -284 57 -324
114 -24 33 -29 64 -9 57 6 -2 71 -9 142 -15z m-1975 -516 c33 -6 43 -18 152
-188 111 -173 178 -291 178 -314 0 -6 -20 -21 -45 -33 -55 -28 -51 -39 5 -14
51 23 64 12 63 -53 -1 -62 -17 -92 -90 -171 l-60 -63 -29 15 c-102 53 -307 87
-518 87 l-159 0 24 26 c13 14 51 42 84 61 58 34 65 36 223 48 90 8 166 16 168
18 8 7 -79 26 -153 33 -40 4 -99 1 -142 -6 -85 -14 -82 -17 -138 98 -27 55
-36 87 -37 129 l-1 56 65 54 c36 30 98 86 138 125 40 38 85 76 100 84 28 14
111 18 172 8z m-869 -268 c49 -20 154 -29 226 -18 34 5 60 5 57 0 -8 -13 -86
-56 -130 -71 -22 -8 -71 -29 -109 -47 -79 -37 -165 -52 -165 -28 0 26 50 162
63 170 16 10 19 10 58 -6z m338 -113 c15 -64 39 -119 74 -171 16 -24 27 -44
25 -46 -50 -31 -93 -65 -122 -96 -35 -38 -37 -39 -93 -34 -104 9 -213 26 -219
35 -3 5 19 20 48 34 40 18 81 27 163 33 105 8 109 9 80 22 -18 9 -67 15 -125
16 l-95 1 -12 34 c-7 19 -12 46 -12 60 -1 28 3 31 128 79 42 17 90 41 106 55
17 13 33 24 36 25 4 0 12 -21 18 -47z m-379 -115 l40 10 0 -40 c0 -21 5 -49
11 -61 10 -17 9 -23 -6 -32 -10 -5 -30 -20 -46 -33 l-28 -23 -65 30 c-36 16
-66 32 -66 36 0 3 13 32 30 65 30 59 30 59 60 48 21 -7 43 -7 70 0z m1207
-519 c12 -4 35 -27 50 -50 25 -38 28 -52 28 -124 0 -72 -3 -86 -27 -123 -16
-23 -43 -49 -60 -58 -56 -29 -224 -31 -268 -4 -12 7 -10 12 11 29 42 32 72
115 66 177 -5 47 -33 121 -42 112 -2 -2 3 -24 11 -48 22 -63 13 -150 -20 -201
-32 -48 -56 -51 -56 -8 0 39 37 221 51 253 13 27 38 42 94 55 41 10 123 5 162
-10z"/>
<path d="M6525 2262 c6 -7 26 -15 45 -18 26 -5 32 -4 25 4 -6 7 -26 15 -45 18
-26 5 -32 4 -25 -4z"/>
<path d="M5840 2977 c-30 -11 -116 -35 -190 -53 -101 -25 -125 -33 -93 -33 89
-2 285 52 346 94 29 20 6 17 -63 -8z"/>
<path d="M5144 2830 c0 -63 1 -89 3 -57 2 31 2 83 0 115 -2 31 -3 5 -3 -58z"/>
<path d="M4796 2793 c15 -84 66 -184 114 -228 28 -26 25 -9 -6 27 -34 41 -69
112 -89 181 -19 65 -29 76 -19 20z"/>
<path d="M5151 2694 c0 -11 3 -14 6 -6 3 7 2 16 -1 19 -3 4 -6 -2 -5 -13z"/>
<path d="M5886 1907 c-23 -34 -44 -99 -61 -188 -23 -123 -17 -175 7 -59 11 52
32 134 47 183 16 48 27 87 25 87 -2 0 -10 -10 -18 -23z"/>
<path d="M5990 1755 c0 -55 -7 -129 -15 -165 -7 -36 -12 -66 -11 -68 2 -1 12
16 21 40 22 51 32 229 16 268 -8 20 -10 3 -11 -75z"/>
<path d="M5742 1708 c-25 -66 -35 -151 -24 -198 7 -29 9 -19 14 60 3 52 13
115 22 139 9 24 14 46 12 48 -2 3 -13 -20 -24 -49z"/>
</g>
</svg>
