<?xml version="1.0" standalone="no"?>
<!DOCTYPE svg PUBLIC "-//W3C//DTD SVG 20010904//EN"
 "http://www.w3.org/TR/2001/REC-SVG-20010904/DTD/svg10.dtd">
<svg version="1.0" xmlns="http://www.w3.org/2000/svg"
 width="1408.000000pt" height="768.000000pt" viewBox="0 0 1408.000000 768.000000"
 preserveAspectRatio="xMidYMid meet">
<metadata>
Created by potrace 1.16, written by Peter Selinger 2001-2019
</metadata>
<g transform="translate(0.000000,768.000000) scale(0.100000,-0.100000)"
fill="#000000" stroke="none">
<path d="M5815 6894 c-22 -2 -98 -13 -170 -24 -71 -11 -199 -29 -282 -40 -175
-22 -218 -32 -287 -67 l-50 -25 -127 12 c-208 21 -302 11 -517 -55 -101 -31
-204 -65 -228 -77 -57 -26 -122 -92 -165 -168 -19 -33 -75 -126 -126 -207 -51
-80 -108 -187 -128 -237 -20 -50 -59 -130 -86 -177 -70 -124 -94 -195 -140
-422 -39 -191 -70 -292 -168 -552 -74 -197 -151 -556 -151 -703 0 -49 -2 -52
-42 -80 -97 -67 -244 -124 -413 -162 -115 -25 -148 -42 -143 -72 7 -48 95 -78
229 -78 74 0 237 29 308 54 58 21 63 20 59 -11 -3 -26 -11 -31 -118 -65 -63
-21 -141 -45 -174 -54 -55 -15 -96 -42 -96 -64 0 -20 40 -49 82 -61 42 -11
226 -7 290 7 23 5 28 2 33 -17 13 -60 35 -454 35 -644 0 -208 20 -524 41 -640
45 -253 138 -450 267 -565 31 -28 95 -70 141 -93 l84 -42 126 0 c123 0 128 1
193 33 49 24 82 50 120 94 29 33 70 77 92 97 99 93 86 175 -29 177 -48 0 -56
4 -92 42 -31 32 -47 42 -72 42 -49 0 -86 -42 -95 -107 -10 -82 -61 -96 -153
-43 -59 34 -75 59 -119 190 -28 84 -28 88 -27 305 1 162 5 237 17 285 9 36 16
90 16 120 0 30 7 82 15 115 8 33 15 85 15 115 0 30 5 71 11 90 6 19 14 82 19
140 15 177 79 480 124 582 13 29 28 76 35 103 9 35 33 78 80 140 38 50 79 106
92 127 22 33 26 35 44 22 26 -19 99 -18 137 2 18 9 58 38 90 65 100 83 137
100 240 109 116 11 151 21 260 76 48 24 92 44 98 44 5 0 10 -17 10 -38 0 -63
20 -154 43 -195 27 -48 86 -84 152 -92 46 -6 52 -10 70 -47 10 -22 37 -60 58
-84 34 -38 40 -53 48 -116 5 -40 17 -116 26 -168 14 -81 15 -132 7 -380 -13
-414 -10 -493 30 -771 61 -421 68 -487 75 -789 7 -263 11 -309 35 -424 40
-194 25 -258 -93 -379 -84 -87 -125 -163 -126 -230 0 -41 4 -53 28 -73 51 -44
200 -68 357 -58 l105 6 1 -36 c1 -65 59 -105 193 -130 179 -34 591 -5 706 50
49 23 78 82 78 156 -1 49 -10 76 -54 170 -52 109 -54 116 -54 198 0 47 6 126
12 175 8 52 13 196 13 340 0 627 36 989 117 1170 63 143 92 236 99 323 6 67
10 82 24 82 23 0 306 -82 410 -119 176 -62 403 -131 517 -156 185 -42 319 -55
602 -62 257 -6 264 -6 269 -27 8 -31 122 -251 171 -328 79 -126 105 -237 104
-458 -1 -156 -8 -222 -53 -517 -43 -275 -61 -317 -210 -478 -88 -95 -106 -124
-116 -182 -23 -145 119 -187 562 -165 388 19 425 46 410 295 -6 101 -4 119 15
172 19 52 22 76 18 175 -7 232 -2 435 15 550 32 218 99 480 122 480 20 0 135
-131 176 -200 56 -95 134 -275 163 -375 38 -131 52 -234 66 -467 15 -251 11
-269 -85 -404 -67 -95 -86 -136 -86 -191 0 -113 123 -150 470 -140 452 14 536
76 480 357 -22 107 -23 119 -10 235 15 144 10 169 -55 341 -92 239 -129 381
-140 539 -4 50 -16 146 -27 215 -21 124 -21 127 -3 299 20 193 17 434 -9 681
-41 383 -41 371 -1 625 20 127 39 271 43 320 l8 90 12 -55 c26 -118 43 -298
57 -597 13 -289 26 -412 69 -654 12 -69 12 -82 -6 -150 -27 -102 -29 -300 -4
-384 22 -74 73 -165 92 -165 8 0 14 5 14 10 0 6 3 10 8 10 14 0 66 -164 67
-209 0 -63 20 -62 44 3 14 39 22 92 28 188 6 109 8 125 15 89 9 -52 14 -59 31
-42 19 19 21 178 3 252 -9 35 -45 123 -81 194 -95 190 -99 225 -101 890 -2
546 -8 643 -55 924 -49 295 -156 554 -367 891 -168 269 -341 457 -647 706
-171 139 -434 269 -665 328 -341 87 -551 87 -951 0 -441 -95 -393 -89 -639
-88 l-225 0 -230 48 c-126 26 -327 72 -445 101 -118 30 -237 59 -263 65 -34 7
-69 28 -125 72 -85 68 -205 129 -297 153 -61 15 -246 26 -320 19z m213 -54
c165 -18 274 -73 453 -230 107 -94 222 -227 344 -400 167 -236 168 -239 173
-294 4 -48 -1 -62 -57 -172 -34 -65 -73 -133 -85 -151 -13 -18 -31 -63 -40
-100 -25 -99 -71 -178 -156 -267 -84 -89 -139 -127 -253 -176 -50 -21 -85 -43
-98 -62 -11 -15 -59 -51 -107 -79 -102 -60 -128 -82 -152 -130 -20 -39 -103
-115 -185 -169 -27 -18 -70 -52 -95 -76 -25 -24 -76 -57 -115 -75 -38 -18
-104 -56 -145 -84 -122 -85 -174 -108 -260 -113 -71 -4 -78 -3 -107 22 -57 48
-68 98 -67 291 4 583 11 748 32 835 29 112 29 230 2 311 -28 83 -83 204 -87
192 -2 -6 10 -53 27 -104 45 -133 51 -260 19 -384 -19 -76 -23 -130 -30 -345
-4 -140 -11 -307 -15 -371 l-7 -116 -121 -55 c-123 -57 -201 -78 -286 -78 -60
0 -144 -42 -224 -110 -73 -63 -109 -82 -148 -78 -38 4 -51 28 -15 28 68 0 128
87 172 250 14 52 34 115 43 140 l18 45 84 -3 c72 -3 90 0 118 17 17 12 32 25
32 31 0 15 -11 12 -33 -7 -14 -14 -38 -18 -98 -20 -79 -1 -79 -1 -64 20 20 28
19 37 -4 37 -24 0 -77 -44 -95 -79 -8 -14 -26 -75 -40 -135 -28 -115 -76 -220
-109 -238 -20 -10 -69 -7 -175 12 -104 18 -200 -17 -249 -92 -14 -21 -31 -37
-37 -35 -23 8 -9 129 28 246 32 101 38 137 20 119 -3 -4 -26 -64 -50 -135 -46
-131 -51 -181 -29 -264 6 -24 -3 -37 -88 -121 -97 -97 -229 -194 -349 -254
-37 -19 -70 -34 -73 -34 -8 0 -6 128 3 134 4 2 44 -1 90 -7 72 -9 105 -7 91 8
-3 2 -47 10 -98 16 l-93 13 6 95 c3 53 5 119 6 146 0 28 8 91 18 140 l17 90
49 3 c71 5 201 -45 264 -101 13 -12 22 -16 22 -8 0 22 -50 62 -118 94 -54 26
-81 32 -142 34 -41 1 -76 2 -77 3 -4 1 31 135 53 202 23 69 28 77 47 73 12 -2
49 -9 82 -16 72 -14 110 -32 193 -93 68 -51 85 -47 23 6 -70 59 -145 98 -221
114 -40 8 -79 13 -87 10 -7 -3 -13 -3 -13 -1 0 3 30 81 66 173 71 178 109 313
144 507 27 153 65 263 128 373 28 48 61 117 75 153 34 89 57 132 131 246 35
54 85 136 111 183 84 153 118 177 360 248 257 76 329 85 519 60 l90 -11 -30
-24 c-16 -12 -45 -28 -64 -34 -51 -17 -60 -29 -19 -29 39 0 93 26 172 82 72
52 140 73 297 93 74 9 189 25 255 36 113 19 242 35 310 37 17 1 72 -3 123 -8z
m667 -275 c139 -39 319 -82 560 -133 l220 -46 250 0 250 0 285 62 c426 93 561
107 780 78 368 -49 702 -197 975 -432 313 -270 415 -388 607 -707 114 -189
184 -337 242 -509 49 -147 67 -224 99 -433 19 -126 21 -189 23 -635 2 -592 8
-694 54 -915 32 -156 32 -157 11 -143 -28 17 -37 54 -75 293 -47 297 -44 276
-56 580 -15 369 -44 602 -102 803 l-21 72 27 50 c18 33 29 71 32 108 l4 57
-18 -60 c-10 -33 -25 -71 -32 -85 -14 -24 -15 -23 -23 35 -24 177 -66 332
-102 379 -27 36 -28 7 -2 -91 48 -182 60 -303 54 -558 -5 -187 -10 -252 -30
-345 l-23 -115 -13 58 c-7 31 -17 57 -23 57 -6 0 -8 -9 -4 -22 4 -13 11 -133
17 -268 5 -135 18 -330 29 -435 27 -270 34 -452 20 -575 -23 -218 -23 -317 -1
-439 12 -63 21 -137 21 -164 l0 -49 -37 23 c-21 12 -66 40 -101 62 -34 22 -65
37 -68 35 -8 -9 126 -106 172 -125 40 -17 42 -19 48 -73 10 -85 51 -238 97
-357 101 -268 99 -256 84 -464 -7 -98 -5 -127 10 -190 37 -148 21 -214 -59
-250 -46 -20 -185 -46 -283 -51 l-61 -4 -13 43 c-16 57 -67 103 -115 103 -44
0 -101 -51 -110 -99 -10 -49 -21 -45 -27 8 -13 110 -60 162 -118 129 -16 -10
-29 -13 -29 -9 0 5 23 39 51 77 63 86 75 108 94 181 17 60 15 96 -16 450 -27
319 -194 701 -373 856 -28 24 -103 81 -166 127 -130 93 -180 138 -251 227 -77
95 -192 163 -314 183 -32 6 -142 3 -300 -7 -212 -13 -283 -14 -465 -3 -361 20
-459 40 -912 188 -167 55 -351 112 -410 127 -62 16 -108 33 -108 40 0 7 16 99
35 206 49 273 65 402 65 537 0 123 -14 207 -31 181 -5 -8 -9 -55 -9 -106 0
-112 -29 -340 -70 -563 -21 -108 -34 -220 -40 -325 -9 -174 -15 -199 -90 -359
-47 -102 -73 -202 -95 -369 -20 -153 -35 -505 -35 -824 0 -171 -5 -290 -16
-374 -9 -68 -14 -157 -12 -199 3 -68 8 -87 52 -175 100 -200 69 -282 -116
-301 l-66 -7 -22 42 c-21 42 -65 71 -108 71 -31 0 -73 -40 -96 -93 l-22 -49
-17 61 c-9 33 -29 75 -44 91 -58 65 -154 43 -198 -45 l-20 -40 -6 69 c-5 56
-10 72 -29 86 l-24 18 62 67 c114 125 145 235 104 371 -18 59 -68 274 -86 369
-4 17 -11 125 -16 240 -10 220 -18 281 -105 800 -52 309 -54 330 -64 610 -10
279 -17 343 -62 590 -24 134 -28 145 -41 145 -13 0 -3 -143 22 -313 10 -67 16
-124 14 -126 -10 -11 -118 123 -165 202 -70 118 -94 115 -45 -6 34 -81 69
-131 151 -211 l70 -69 7 -251 c7 -249 28 -434 83 -716 47 -239 77 -476 85
-675 9 -219 27 -331 97 -585 23 -87 24 -100 13 -155 -16 -80 -31 -106 -107
-187 -35 -38 -73 -89 -84 -113 l-20 -45 -58 0 -58 0 -11 39 c-28 93 -83 116
-147 60 -19 -17 -35 -38 -35 -46 0 -8 -4 -11 -10 -8 -5 3 -10 21 -10 40 0 48
-20 86 -53 100 l-28 12 75 76 c86 88 115 150 123 258 l6 67 37 6 c37 6 90 39
90 56 0 5 -28 -4 -62 -20 -34 -16 -65 -26 -69 -22 -4 4 -17 52 -29 107 -17 82
-23 155 -30 405 -10 325 -20 432 -72 740 l-33 195 3 463 c2 380 0 479 -12 552
-9 48 -19 121 -22 162 -6 68 -9 76 -49 118 -42 45 -85 103 -85 114 0 3 7 6 15
6 29 0 129 51 206 105 44 31 112 71 152 89 42 19 91 51 113 73 21 22 67 59
101 81 85 57 180 148 204 193 14 29 40 50 111 92 51 31 111 74 133 96 21 23
43 41 48 41 5 0 53 20 106 45 84 40 107 57 186 138 96 98 141 170 170 272 22
77 46 135 55 135 4 0 38 60 75 133 66 131 67 133 63 203 -3 65 -7 75 -53 142
-170 245 -259 366 -328 444 -43 48 -74 88 -70 88 5 0 49 -12 98 -25z m-2611
-2245 c51 -1 51 -15 3 -93 -171 -273 -490 -505 -809 -586 -133 -34 -343 -51
-392 -32 -26 10 -20 13 121 55 375 111 625 272 820 531 33 44 69 88 80 97 24
22 89 38 127 32 16 -2 38 -4 50 -4z m-901 -431 c-12 -11 -172 -56 -250 -70
-111 -19 -342 5 -248 26 182 41 328 91 430 149 l60 33 8 -65 c5 -35 5 -68 0
-73z m703 -29 c-15 -39 -34 -96 -43 -128 -29 -115 -53 -228 -53 -254 0 -15 -5
-39 -12 -55 -16 -40 -20 -60 -19 -123 1 -30 -5 -95 -14 -145 -18 -116 -34
-236 -45 -355 -4 -52 -13 -106 -18 -120 -9 -23 -30 -367 -24 -400 1 -8 5 -42
8 -75 8 -84 80 -281 112 -305 19 -16 23 -25 18 -47 -4 -16 -8 -32 -9 -38 -1
-5 2 -12 8 -15 5 -3 13 9 18 26 l9 32 42 -19 c22 -10 49 -19 58 -19 9 0 19 -9
23 -19 3 -11 13 -25 22 -33 15 -12 16 -10 10 17 -5 25 -2 32 19 42 22 10 27 8
46 -17 12 -16 25 -27 29 -25 10 7 0 42 -16 55 -10 8 -9 20 2 58 8 26 17 58 21
72 12 41 43 36 85 -15 37 -44 39 -45 97 -45 77 0 78 -12 3 -89 -32 -32 -77
-79 -101 -105 -110 -122 -327 -141 -491 -43 -49 29 -171 141 -171 157 0 3 18
14 40 24 52 23 52 39 1 19 -22 -9 -46 -13 -53 -10 -8 3 -29 33 -47 67 l-33 62
28 -6 c16 -3 43 1 59 9 29 13 29 13 -32 14 l-61 1 -17 53 c-9 28 -18 57 -20
64 -3 9 9 10 43 6 29 -3 60 0 81 9 33 13 32 14 -42 14 -42 0 -81 4 -86 9 -6 6
-13 29 -17 52 l-6 42 58 -4 59 -4 -62 11 -62 11 -6 56 c-3 31 -8 65 -10 77 -4
20 -1 21 78 17 96 -5 87 11 -11 20 -35 3 -65 7 -67 9 -2 1 -6 45 -10 97 l-8
94 34 -6 c19 -4 66 -9 104 -11 l70 -5 -102 21 -103 22 0 52 c0 29 -3 60 -6 69
-6 15 1 16 72 11 88 -7 73 8 -20 22 l-51 7 -3 73 c-2 39 0 72 5 72 4 0 35 -7
68 -15 67 -16 161 -20 169 -6 3 4 -25 11 -62 15 -37 3 -93 9 -124 12 l-58 6 0
83 c0 46 -3 91 -7 101 -5 15 -2 16 28 10 70 -14 179 -19 179 -8 0 9 -27 13
-180 25 -23 2 -25 7 -28 51 l-3 49 141 -6 c77 -4 139 -3 136 2 -7 11 -221 34
-252 27 -19 -5 -24 -3 -24 12 0 11 -3 40 -6 66 l-7 46 131 0 c76 0 133 4 137
10 4 6 -42 10 -130 10 -150 0 -141 -4 -148 72 l-5 48 42 10 c121 30 316 118
422 191 37 25 42 26 56 12 9 -8 24 -13 34 -11 16 3 15 6 -10 19 l-28 16 28 21
c16 11 47 39 69 60 22 22 42 38 44 36 2 -2 -8 -35 -23 -74z m5316 -1011 c98
-33 136 -60 251 -184 71 -75 141 -138 203 -181 73 -51 94 -70 89 -83 -16 -37
-85 -325 -106 -441 -21 -113 -23 -155 -24 -435 0 -303 -1 -311 -24 -373 -22
-59 -23 -68 -13 -126 24 -130 8 -203 -54 -238 -37 -21 -179 -37 -335 -38
l-105 0 -18 40 c-45 102 -142 107 -186 8 l-17 -38 -11 66 c-13 77 -32 111 -66
116 -23 3 -18 10 65 102 139 153 151 186 210 586 52 352 46 636 -17 786 -8 18
-49 93 -91 166 -80 141 -133 245 -133 265 0 13 51 18 223 21 76 2 111 -3 159
-19z m1839 -123 c44 -22 49 -21 49 16 0 43 10 30 54 -69 34 -75 73 -219 63
-230 -3 -2 -13 29 -22 69 -27 110 -63 183 -82 165 -2 -3 4 -43 15 -89 11 -46
23 -121 26 -168 l5 -85 -19 60 c-10 33 -26 87 -36 120 -27 89 -31 30 -5 -78
11 -46 23 -108 26 -138 l6 -54 -44 100 c-55 126 -58 137 -66 265 -7 98 -8 103
-20 75 -9 -21 -12 -64 -8 -145 5 -125 -5 -120 -23 12 -11 77 -9 129 7 233 l6
40 17 -41 c12 -27 29 -47 51 -58z m-2233 -1848 c6 -18 13 -52 16 -75 7 -49 -1
-53 -59 -29 -48 20 -61 52 -41 99 12 31 20 37 45 37 25 0 31 -5 39 -32z
m-3323 -24 c3 -19 8 -50 11 -70 5 -36 5 -36 -23 -30 -69 18 -87 50 -58 106 26
50 61 47 70 -6z m190 -38 c23 -35 25 -81 3 -80 -10 0 -43 1 -73 2 l-55 2 11
28 c26 68 85 93 114 48z m3349 -7 c14 -17 26 -40 26 -51 0 -18 -4 -20 -31 -14
-17 3 -53 6 -80 6 -53 0 -55 7 -17 63 27 38 68 37 102 -4z m1192 -34 c8 -20
17 -56 21 -81 l6 -45 -29 6 c-58 13 -93 26 -103 39 -23 27 32 116 71 116 12 0
24 -13 34 -35z m-4261 -27 c2 -7 5 -43 7 -80 4 -74 -5 -84 -50 -52 -26 18 -29
58 -8 109 15 35 43 47 51 23z m4500 -10 c14 -13 30 -40 34 -60 l9 -38 -88 0
c-49 0 -91 4 -94 8 -8 13 30 89 51 101 29 17 60 13 88 -11z m-4285 -28 c25
-13 39 -41 56 -103 l13 -50 -88 6 c-49 4 -96 9 -105 13 -34 13 -8 97 38 125
35 21 58 24 86 9z m289 -75 c48 -55 50 -53 -96 -69 -23 -2 -44 -2 -47 1 -3 3
4 23 14 44 36 69 82 77 129 24z"/>
<path d="M5980 6704 c-38 -17 -80 -52 -80 -67 0 -6 10 -1 23 10 28 26 61 43
112 59 38 12 38 13 10 13 -16 0 -46 -7 -65 -15z"/>
<path d="M5070 6572 c0 -23 53 -72 95 -88 49 -18 139 -15 172 6 14 9 4 10 -44
5 -81 -8 -135 7 -184 52 -21 19 -39 31 -39 25z"/>
<path d="M5512 6435 c-83 -42 -144 -94 -240 -207 -82 -98 -112 -144 -112 -177
0 -20 2 -21 15 -11 13 11 15 7 15 -26 0 -22 -4 -64 -9 -94 -16 -98 -25 -280
-13 -280 15 0 37 107 62 295 12 88 23 169 26 180 5 28 158 201 219 248 28 20
82 53 120 72 l70 34 -41 0 c-28 1 -64 -10 -112 -34z"/>
<path d="M4759 6349 c32 -107 60 -180 87 -226 30 -51 44 -52 18 -1 -9 18 -37
87 -61 153 -48 131 -73 175 -44 74z"/>
<path d="M4831 6385 c-1 -26 32 -150 52 -198 19 -44 77 -127 89 -127 4 0 -8
25 -28 55 -19 31 -49 99 -65 153 -17 53 -34 106 -39 117 l-9 20 0 -20z"/>
<path d="M5230 6279 c-25 -21 -72 -53 -105 -71 -38 -20 -54 -34 -43 -36 34 -7
152 67 183 114 25 38 15 36 -35 -7z"/>
<path d="M4251 6296 c-37 -45 -12 -163 50 -239 43 -52 47 -40 6 20 -46 69 -64
134 -49 187 12 46 10 53 -7 32z"/>
<path d="M6293 6163 c-67 -9 -30 -23 61 -23 110 0 210 -17 330 -57 94 -32 112
-29 40 5 -103 50 -330 90 -431 75z"/>
<path d="M4992 6150 c5 -17 56 -55 63 -48 3 3 -11 18 -31 33 -20 16 -35 22
-32 15z"/>
<path d="M4679 6076 c-78 -28 -140 -80 -175 -148 -27 -52 -9 -51 25 2 38 58
123 127 169 136 18 4 32 10 32 15 0 12 -7 11 -51 -5z"/>
<path d="M5277 5882 c-7 -104 -36 -228 -85 -372 -84 -241 -89 -514 -12 -688
32 -71 35 -42 4 40 -57 155 -43 377 42 640 60 187 74 254 74 363 0 127 -15
138 -23 17z"/>
<path d="M6330 5877 c0 -3 44 -20 97 -38 55 -19 134 -57 181 -86 46 -29 82
-47 79 -40 -7 22 -125 95 -204 125 -76 30 -153 49 -153 39z"/>
<path d="M4210 5647 c-36 -24 -66 -67 -80 -116 -15 -52 7 -44 26 9 10 28 31
62 47 78 25 23 37 27 95 29 83 2 80 1 62 13 -29 19 -115 12 -150 -13z"/>
<path d="M4984 5538 c1 -62 -2 -147 -6 -188 l-7 -75 16 55 c19 65 24 293 7
310 -7 7 -10 -24 -10 -102z"/>
<path d="M4820 5630 c0 -3 10 -30 22 -60 18 -46 22 -74 21 -175 0 -116 0 -118
12 -70 27 103 11 232 -35 287 -11 12 -19 21 -20 18z"/>
<path d="M6050 5589 c14 -11 64 -46 111 -79 47 -33 123 -95 169 -137 88 -81
80 -53 -10 37 -49 49 -263 200 -283 200 -6 0 -1 -9 13 -21z"/>
<path d="M4430 5592 c0 -10 123 -82 130 -76 3 3 -4 12 -15 21 -33 24 -115 64
-115 55z"/>
<path d="M4254 5568 c-19 -9 -74 -93 -74 -112 0 -17 19 -2 30 24 18 43 65 80
103 80 18 0 56 -11 85 -25 30 -14 58 -25 64 -25 21 0 -7 23 -56 46 -53 25
-116 30 -152 12z"/>
<path d="M4796 5550 c4 -19 9 -82 13 -140 5 -79 9 -98 15 -77 12 42 1 177 -18
217 l-16 35 6 -35z"/>
<path d="M4263 5490 c-12 -5 -25 -22 -29 -37 -4 -15 -13 -41 -21 -56 -18 -36
-14 -40 18 -23 21 11 29 11 44 0 10 -8 29 -14 41 -14 29 0 80 43 88 74 5 22
10 24 41 19 38 -6 48 9 18 25 -27 14 -175 23 -200 12z"/>
<path d="M3600 5461 c0 -6 18 -11 45 -11 25 0 73 -11 107 -25 80 -32 89 -23
12 12 -63 29 -164 44 -164 24z"/>
<path d="M3673 5330 c38 -11 86 -29 108 -40 21 -11 39 -16 39 -11 0 18 -111
64 -163 68 l-52 3 68 -20z"/>
<path d="M4421 5314 c-41 -42 -78 -44 -140 -9 -52 30 -68 23 -26 -11 70 -56
157 -49 190 16 23 44 16 45 -24 4z"/>
<path d="M3963 5253 c-51 -84 -86 -154 -80 -159 6 -6 29 30 87 136 26 50 45
90 41 90 -3 0 -25 -30 -48 -67z"/>
<path d="M4211 5249 c9 -13 33 -37 53 -54 35 -27 44 -30 112 -30 63 0 77 3 96
23 l23 23 -44 -16 c-78 -27 -153 -14 -196 35 -11 12 -29 27 -40 32 -19 11 -19
10 -4 -13z"/>
<path d="M3842 5183 c-38 -59 -104 -201 -100 -213 2 -6 34 49 72 121 69 133
83 178 28 92z"/>
<path d="M6140 5200 c6 -11 13 -20 16 -20 2 0 0 9 -6 20 -6 11 -13 20 -16 20
-2 0 0 -9 6 -20z"/>
<path d="M5852 5193 c2 -5 27 -55 56 -112 28 -57 57 -130 64 -162 7 -33 16
-59 21 -59 15 0 -1 77 -33 157 -28 70 -93 183 -106 183 -3 0 -4 -3 -2 -7z"/>
<path d="M3627 5174 c35 -7 76 -20 92 -29 35 -18 45 -19 35 -4 -13 22 -90 49
-139 48 l-50 -1 62 -14z"/>
<path d="M4837 5160 c-3 -19 -13 -73 -22 -120 -8 -47 -24 -116 -35 -155 -28
-99 -8 -103 23 -3 29 93 51 225 45 278 l-4 35 -7 -35z"/>
<path d="M4951 5043 c-1 -102 -19 -217 -45 -296 -26 -77 -18 -99 12 -34 38 82
63 285 44 362 -10 38 -10 37 -11 -32z"/>
<path d="M3471 4996 c4 -4 40 -15 80 -25 69 -16 130 -48 213 -112 28 -22 29
-22 17 -1 -12 23 -118 101 -165 120 -31 14 -155 29 -145 18z"/>
<path d="M4469 4936 c35 -19 71 -41 80 -49 30 -26 47 -32 27 -9 -27 31 -106
79 -141 87 -21 4 -10 -5 34 -29z"/>
<path d="M4798 4650 c-38 -54 -90 -86 -178 -108 -77 -19 -146 -49 -136 -59 3
-3 29 4 58 15 29 11 71 23 92 27 85 14 183 86 199 146 8 30 -5 22 -35 -21z"/>
<path d="M3931 4635 c-11 -32 -44 -103 -119 -259 -3 -5 0 -6 7 -2 37 23 137
245 128 285 -2 9 -9 -1 -16 -24z"/>
<path d="M3650 4269 c0 -40 34 -119 51 -119 7 0 8 7 4 18 -4 9 -16 41 -26 71
-24 68 -29 73 -29 30z"/>
<path d="M3305 4161 c17 -5 75 -21 130 -36 55 -14 109 -29 120 -32 18 -5 18
-4 5 10 -24 25 -138 58 -214 63 -53 3 -63 1 -41 -5z"/>
<path d="M8716 6335 c-88 -18 -194 -53 -202 -67 -8 -12 -6 -12 136 28 85 24
112 27 265 27 154 1 179 -2 265 -26 136 -38 151 -40 100 -17 -101 47 -178 62
-340 66 -108 2 -176 -1 -224 -11z"/>
<path d="M9410 5929 c0 -4 9 -27 20 -52 28 -63 39 -159 28 -240 -9 -68 -17
-95 -57 -195 -26 -65 -10 -59 24 9 55 107 71 265 39 378 -13 47 -53 121 -54
100z"/>
<path d="M10194 5769 c32 -35 85 -102 118 -149 76 -107 169 -222 175 -216 7 7
-195 282 -256 348 -30 33 -63 64 -75 70 -11 6 6 -18 38 -53z"/>
<path d="M6960 4936 c0 -5 36 -77 79 -160 122 -233 126 -247 221 -660 23 -99
71 -234 104 -291 23 -40 17 -15 -32 125 -22 63 -52 171 -66 240 -68 317 -86
368 -201 579 -74 137 -104 184 -105 167z"/>
<path d="M9202 4836 c-23 -30 -92 -99 -154 -154 -211 -186 -218 -212 -10 -35
108 93 169 159 201 221 19 37 6 25 -37 -32z"/>
<path d="M9232 4674 c-159 -152 -272 -293 -346 -434 -26 -50 -46 -93 -44 -95
2 -2 28 37 58 87 88 150 164 245 328 410 86 87 154 160 151 162 -3 3 -69 -56
-147 -130z"/>
<path d="M6017 4553 c-18 -30 -127 -306 -123 -310 9 -10 101 197 125 282 9 33
8 45 -2 28z"/>
<path d="M6926 4500 c5 -8 27 -44 51 -79 73 -109 112 -243 113 -381 0 -52 3
-70 10 -60 16 25 11 153 -10 236 -26 104 -68 187 -125 249 -26 28 -43 43 -39
35z"/>
<path d="M10547 4459 c32 -32 68 -84 93 -133 22 -45 37 -67 34 -51 -17 79 -94
194 -148 222 -27 13 -24 9 21 -38z"/>
<path d="M5899 4424 c-51 -133 -99 -270 -96 -278 2 -5 16 21 31 60 41 101 87
237 81 242 -2 3 -9 -8 -16 -24z"/>
<path d="M9137 4277 c-44 -58 -93 -156 -162 -322 -37 -88 -87 -196 -112 -240
-25 -44 -48 -83 -50 -87 -2 -5 0 -8 4 -8 5 0 28 30 52 67 45 68 87 158 160
345 38 98 79 181 125 251 26 38 14 34 -17 -6z"/>
<path d="M5628 4263 c-6 -16 -29 -66 -50 -112 -42 -93 -42 -91 -29 -91 14 0
79 136 90 188 10 48 6 54 -11 15z"/>
<path d="M10444 4257 c68 -50 112 -95 148 -151 46 -72 51 -52 6 24 -34 56
-140 150 -168 149 -10 0 -5 -8 14 -22z"/>
<path d="M10340 4136 c0 -3 29 -26 65 -51 35 -26 83 -67 105 -92 22 -25 40
-41 40 -34 0 18 -71 91 -134 138 -53 39 -76 51 -76 39z"/>
<path d="M9295 3830 c42 -123 61 -225 75 -405 11 -141 27 -251 37 -242 7 7
-15 324 -28 417 -19 127 -85 330 -108 330 -5 0 6 -45 24 -100z"/>
<path d="M6535 3538 c-46 -99 -85 -216 -84 -252 0 -11 19 33 43 99 24 66 55
148 69 183 38 93 22 75 -28 -30z"/>
<path d="M6470 3523 c-38 -90 -80 -227 -79 -257 0 -21 0 -21 9 -1 4 11 15 47
25 80 9 33 33 102 52 153 19 52 32 96 30 98 -3 3 -19 -30 -37 -73z"/>
<path d="M6708 3518 c-108 -165 -168 -414 -147 -608 10 -87 38 -204 64 -267
27 -64 27 -28 0 73 -72 278 -45 532 82 767 27 49 27 75 1 35z"/>
<path d="M7380 3371 c0 -12 96 -59 184 -90 130 -46 372 -104 353 -85 -4 4 -67
23 -140 41 -72 18 -192 57 -264 87 -73 30 -133 51 -133 47z"/>
<path d="M9321 3238 c-2 -63 110 -323 189 -438 37 -53 110 -131 110 -117 0 4
-21 34 -47 66 -67 83 -169 273 -214 399 -21 59 -38 99 -38 90z"/>
<path d="M6712 3228 c-5 -7 -18 -40 -28 -73 -22 -72 -25 -248 -5 -337 15 -71
36 -91 27 -27 -3 24 -8 96 -12 159 -5 96 -3 129 14 200 11 47 19 86 18 88 -2
1 -8 -3 -14 -10z"/>
<path d="M8580 3213 c-76 -11 -90 -15 -90 -21 0 -4 57 -6 127 -4 207 5 382
-43 544 -149 102 -67 120 -62 27 7 -161 120 -433 194 -608 167z"/>
<path d="M5906 3110 c14 -15 173 -42 222 -38 26 2 2 9 -78 21 -63 10 -124 21
-135 24 -15 4 -17 2 -9 -7z"/>
<path d="M6450 2737 c0 -11 80 -168 102 -199 11 -16 23 -28 28 -28 5 0 -14 39
-42 88 -77 131 -88 148 -88 139z"/>
<path d="M9705 2645 c78 -71 97 -71 22 0 -32 30 -63 55 -70 55 -7 0 15 -25 48
-55z"/>
<path d="M10626 2458 c-30 -15 -52 -19 -93 -16 -64 6 -69 -5 -9 -22 53 -15
101 -2 136 35 28 30 18 31 -34 3z"/>
<path d="M6040 2031 c0 -13 44 -65 146 -171 39 -41 83 -94 99 -118 38 -58 45
-45 9 17 -30 50 -254 291 -254 272z"/>
<path d="M5652 1914 c-1 -17 -15 -75 -32 -129 -16 -55 -28 -101 -25 -103 6 -7
43 85 55 140 7 29 10 69 8 88 -5 34 -5 34 -6 4z"/>
<path d="M6126 1798 c45 -46 91 -98 104 -116 32 -47 37 -31 7 20 -28 49 -158
178 -178 178 -8 0 23 -37 67 -82z"/>
<path d="M10291 1663 c5 -17 162 -193 168 -188 2 2 -13 26 -32 52 -39 53 -142
155 -136 136z"/>
<path d="M5737 1511 c-20 -15 -50 -34 -67 -41 -29 -12 -41 -30 -20 -30 34 0
143 81 128 95 -3 3 -21 -8 -41 -24z"/>
<path d="M6305 1384 c-41 -16 -152 -15 -187 1 -10 4 -18 3 -18 -3 0 -17 64
-37 120 -36 36 1 70 9 98 23 64 33 57 41 -13 15z"/>
<path d="M6142 1248 c13 -38 132 -44 207 -11 44 19 26 28 -26 14 -48 -14 -124
-14 -158 -1 -20 8 -26 7 -23 -2z"/>
<path d="M10650 1220 c0 -12 79 -47 125 -55 22 -4 38 -5 35 -2 -12 12 -160 64
-160 57z"/>
<path d="M10326 1181 c-4 -5 15 -14 41 -20 27 -6 81 -20 122 -31 80 -21 128
-27 101 -11 -13 8 -162 50 -232 65 -15 3 -29 2 -32 -3z"/>
<path d="M6308 1165 c-3 -3 -35 -6 -72 -6 -72 -1 -88 -14 -30 -25 38 -7 140
11 149 27 6 9 -38 13 -47 4z"/>
<path d="M10335 1070 c155 -43 225 -59 225 -51 0 13 -167 61 -211 60 -41 -1
-42 -2 -14 -9z"/>
<path d="M6533 1063 c-35 -5 -46 -23 -14 -23 34 0 81 12 81 21 0 9 -8 9 -67 2z"/>
<path d="M6560 1008 c-48 -13 -61 -28 -24 -28 32 1 82 24 68 32 -5 3 -25 1
-44 -4z"/>
<path d="M3760 3680 c-39 -5 -42 -6 -20 -12 26 -7 92 4 75 13 -6 3 -30 2 -55
-1z"/>
<path d="M3306 3571 c6 -7 63 -13 145 -16 94 -4 127 -3 111 4 -34 16 -270 26
-256 12z"/>
<path d="M4100 1956 c0 -23 45 -80 74 -95 19 -9 38 -11 58 -5 37 11 33 30 -5
26 -35 -4 -70 18 -93 58 -19 32 -34 39 -34 16z"/>
<path d="M9162 2243 c49 -92 53 -98 44 -58 -8 33 -67 135 -78 135 -4 0 11 -35
34 -77z"/>
<path d="M9505 1966 c15 -20 38 -42 49 -48 13 -7 6 5 -18 33 -49 55 -69 64
-31 15z"/>
<path d="M9235 1894 c-13 -61 -39 -117 -86 -190 -28 -42 -48 -78 -45 -81 5 -5
91 108 111 147 15 30 39 139 31 147 -3 3 -8 -8 -11 -23z"/>
<path d="M9324 1513 c-10 -32 -19 -89 -19 -128 0 -59 4 -75 24 -102 35 -47 44
-41 16 10 -29 49 -32 108 -10 207 7 36 12 66 10 68 -2 2 -11 -23 -21 -55z"/>
</g>
</svg>
