<?xml version="1.0" standalone="no"?>
<!DOCTYPE svg PUBLIC "-//W3C//DTD SVG 20010904//EN"
 "http://www.w3.org/TR/2001/REC-SVG-20010904/DTD/svg10.dtd">
<svg version="1.0" xmlns="http://www.w3.org/2000/svg"
 width="1024.000000pt" height="559.000000pt" viewBox="0 0 1024.000000 559.000000"
 preserveAspectRatio="xMidYMid meet">
<metadata>
Created by potrace 1.16, written by Peter Selinger 2001-2019
</metadata>
<g transform="translate(0.000000,559.000000) scale(0.100000,-0.100000)"
fill="#000000" stroke="none">
<path d="M4980 5250 c-211 -16 -412 -60 -597 -133 -248 -98 -462 -265 -630
-493 -137 -186 -229 -455 -264 -775 -14 -122 -6 -391 15 -554 8 -60 17 -141
21 -179 l7 -68 -38 42 c-46 51 -82 70 -130 70 -30 0 -44 -7 -73 -38 -62 -65
-81 -170 -62 -343 6 -58 16 -152 21 -210 13 -143 39 -238 111 -398 34 -75 70
-160 81 -189 43 -115 145 -181 218 -142 22 12 24 7 40 -95 48 -307 115 -486
247 -663 104 -139 425 -442 598 -564 107 -76 181 -114 280 -144 86 -27 100
-28 295 -29 228 0 295 12 423 76 145 73 335 226 563 453 172 172 235 253 299
381 68 139 90 218 145 527 l12 66 30 -10 c38 -14 91 -5 128 22 32 23 61 78
164 315 80 184 90 228 117 480 31 294 19 397 -51 467 -61 62 -132 50 -204 -33
l-35 -42 4 34 c5 33 12 103 36 329 6 60 9 191 6 305 -4 163 -9 224 -31 326
-56 275 -140 465 -281 642 -231 288 -528 458 -933 532 -108 20 -397 50 -422
43 -3 0 -52 -4 -110 -8z m285 -40 c332 -28 619 -118 844 -267 111 -73 298
-261 374 -375 178 -267 262 -644 237 -1060 -6 -89 -12 -174 -15 -188 -17 -90
-37 -342 -45 -560 -7 -211 -12 -270 -30 -340 -26 -99 -111 -284 -202 -437 -91
-152 -120 -203 -114 -203 7 0 191 300 223 365 17 33 38 81 48 108 10 26 20 46
22 43 3 -2 -14 -93 -36 -203 -21 -109 -56 -284 -75 -390 -20 -105 -48 -229
-62 -275 -65 -207 -186 -375 -437 -607 -402 -372 -548 -446 -882 -444 -308 2
-455 72 -796 379 -393 352 -508 545 -574 959 -19 114 -102 534 -112 562 -13
39 14 -5 42 -67 36 -79 77 -152 163 -290 116 -187 95 -136 -36 85 -72 122
-146 276 -171 355 -33 104 -41 179 -51 450 -5 140 -16 309 -24 375 -43 336
-46 609 -11 805 62 344 175 568 400 795 239 241 591 388 1015 425 126 11 183
11 305 0z m-1809 -2132 c80 -84 82 -88 90 -257 5 -115 4 -152 -5 -147 -6 4
-11 14 -11 22 0 25 -78 203 -111 256 -35 54 -60 72 -88 63 -20 -6 -46 -56 -39
-76 2 -7 10 2 17 19 16 38 39 40 64 6 17 -22 17 -27 4 -47 -30 -47 -75 -263
-58 -280 5 -5 11 16 15 45 8 55 53 238 61 246 5 6 95 -182 95 -198 0 -6 -16
-24 -35 -41 -40 -35 -75 -120 -75 -181 0 -71 30 -146 80 -198 25 -27 54 -61
66 -76 14 -18 26 -25 37 -21 28 10 20 64 -18 133 -40 71 -44 115 -16 183 l18
45 13 -85 c7 -46 34 -196 62 -333 27 -137 47 -255 44 -263 -8 -20 -47 -31 -80
-22 -49 14 -81 55 -126 162 -24 56 -59 136 -78 177 -68 148 -81 205 -107 450
-34 331 -6 460 100 460 35 0 47 -6 81 -42z m3476 13 c42 -49 51 -106 45 -259
-8 -169 -31 -380 -50 -447 -8 -27 -28 -81 -44 -120 -17 -38 -55 -126 -85 -195
-30 -69 -61 -135 -68 -146 -29 -47 -106 -69 -143 -41 -16 11 -14 29 32 257 27
135 54 284 61 332 7 48 16 85 20 83 3 -2 15 -29 25 -59 l19 -56 -42 -80 c-41
-77 -53 -132 -32 -145 18 -11 48 5 59 34 7 15 31 46 55 68 100 94 102 275 3
374 l-38 38 32 73 c39 91 99 182 121 186 12 2 22 -8 32 -30 l14 -33 1 28 c1
30 -30 67 -55 67 -38 0 -118 -130 -171 -280 l-23 -65 0 144 0 144 31 48 c70
109 150 141 201 80z m-3410 -448 c17 -45 17 -46 -9 -97 -38 -74 -37 -137 4
-202 35 -55 51 -104 34 -104 -6 0 -17 12 -25 28 -8 15 -31 42 -51 61 -90 81
-97 238 -17 332 19 22 37 37 40 34 4 -3 14 -27 24 -52z m3286 -16 c52 -101 31
-245 -43 -302 -19 -14 -42 -39 -50 -56 -9 -16 -20 -29 -26 -29 -17 0 -3 44 33
101 44 71 47 120 12 192 l-27 59 17 55 c17 53 18 54 39 40 12 -8 33 -35 45
-60z"/>
<path d="M4100 3427 c-36 -12 -87 -35 -115 -51 -58 -34 -175 -143 -175 -163 0
-7 2 -13 4 -13 2 0 42 20 88 45 198 105 327 109 661 20 161 -42 240 -45 245
-8 8 54 -64 108 -188 143 -197 54 -408 66 -520 27z m375 -23 c135 -25 243 -63
281 -99 69 -66 42 -69 -148 -20 -216 56 -276 66 -395 66 -111 1 -153 -9 -298
-66 -47 -19 66 61 130 91 113 54 242 62 430 28z"/>
<path d="M5780 3435 c-105 -17 -229 -53 -265 -75 -51 -31 -87 -75 -83 -101 5
-38 87 -38 224 0 354 97 490 93 696 -20 81 -44 78 -44 78 -25 0 7 -32 43 -70
80 -74 69 -161 120 -245 142 -62 17 -234 16 -335 -1z m367 -36 c52 -17 199
-106 191 -114 -2 -3 -40 10 -84 27 -150 58 -303 54 -577 -16 -190 -49 -217
-53 -217 -33 0 33 64 77 149 103 198 61 418 75 538 33z"/>
<path d="M4285 3145 c-96 -21 -170 -53 -236 -101 -77 -57 -72 -68 7 -16 75 50
176 86 283 101 134 20 219 0 322 -74 53 -38 66 -34 22 7 -79 72 -151 98 -263
97 -41 -1 -102 -7 -135 -14z"/>
<path d="M4884 3094 c51 -100 66 -185 67 -392 2 -166 2 -172 11 -92 11 109 3
283 -18 363 -17 68 -60 161 -81 179 -8 6 2 -20 21 -58z"/>
<path d="M5333 3107 c-58 -98 -84 -218 -82 -387 2 -215 16 -245 18 -40 2 223
12 285 65 396 20 42 35 78 33 80 -2 2 -17 -20 -34 -49z"/>
<path d="M5679 3137 c-63 -26 -102 -52 -138 -91 -34 -36 -18 -33 38 8 66 48
98 62 168 76 130 26 343 -29 461 -117 47 -35 51 -22 5 16 -91 76 -224 121
-378 127 -89 4 -106 2 -156 -19z"/>
<path d="M4285 3076 c-5 -3 -35 -12 -66 -20 -32 -9 -92 -40 -140 -72 -108 -73
-113 -78 -67 -71 21 3 40 1 44 -4 12 -21 110 -76 163 -92 97 -31 231 -20 401
32 19 6 51 11 71 11 22 0 42 7 50 16 12 14 7 22 -36 60 -60 52 -140 101 -197
122 -40 14 -200 27 -223 18z m57 -52 c-26 -18 -29 -60 -5 -86 19 -21 33 -22
67 -7 33 15 41 47 12 51 -15 2 -21 10 -21 31 -1 24 2 27 35 27 47 0 60 -15 60
-68 0 -37 -6 -50 -34 -78 -29 -29 -41 -34 -79 -34 -34 0 -53 6 -76 25 -34 30
-55 82 -45 118 6 28 19 34 74 36 34 1 34 1 12 -15z m-81 -140 c96 -103 259
-45 259 93 0 41 1 42 25 33 33 -13 175 -108 175 -118 0 -4 -30 -13 -67 -20
-38 -6 -99 -20 -138 -31 -143 -40 -303 -18 -405 56 -37 28 -39 31 -22 46 9 8
44 30 77 47 l60 32 6 -57 c5 -39 14 -64 30 -81z"/>
<path d="M5748 3061 c-108 -36 -251 -137 -246 -175 3 -18 12 -22 63 -28 33 -4
89 -17 125 -29 42 -13 103 -23 171 -26 91 -5 116 -2 170 16 35 12 87 38 115
60 42 31 57 37 85 33 42 -5 38 -1 -69 71 -98 67 -158 87 -272 93 -65 3 -98 0
-142 -15z m102 -29 c-39 -11 -52 -63 -23 -94 23 -26 58 -22 83 10 l22 27 -22
3 c-17 3 -21 9 -17 27 2 14 -1 26 -7 29 -6 2 7 5 29 5 22 0 45 -3 52 -7 22
-14 26 -62 8 -102 -51 -114 -225 -80 -225 44 0 50 11 63 60 68 37 4 64 -3 40
-10z m-128 -49 c-9 -107 113 -187 207 -138 53 27 81 71 81 126 0 27 3 49 6 49
14 0 124 -63 139 -80 15 -16 12 -20 -35 -50 -27 -18 -78 -41 -113 -52 -84 -27
-218 -20 -336 16 -47 14 -99 26 -118 26 -18 0 -33 4 -33 9 0 13 177 129 200
131 3 0 4 -17 2 -37z"/>
<path d="M4580 2759 c-90 -37 -172 -59 -217 -59 -17 0 -34 -4 -37 -8 -6 -11
110 3 154 18 62 21 165 63 175 72 14 12 6 10 -75 -23z"/>
<path d="M5612 2769 c59 -31 207 -76 272 -83 84 -9 63 3 -26 15 -41 6 -116 28
-171 50 -106 43 -133 49 -75 18z"/>
<path d="M4916 2297 c-9 -23 -15 -67 -15 -97 l2 -55 7 65 c5 36 13 78 19 94 7
16 10 30 8 33 -2 2 -12 -16 -21 -40z"/>
<path d="M4753 2184 c-35 -77 -41 -143 -18 -194 14 -31 30 -46 72 -66 29 -15
57 -23 61 -19 4 4 2 9 -3 12 -35 12 -82 44 -99 66 -26 35 -24 126 4 196 29 74
16 77 -17 5z"/>
<path d="M5430 2240 c0 -3 10 -33 21 -65 28 -80 30 -156 3 -192 -11 -15 -44
-40 -74 -55 -42 -22 -48 -28 -29 -28 14 0 45 10 69 23 78 39 100 123 60 230
-18 47 -49 101 -50 87z"/>
<path d="M4969 2056 c20 -24 99 -56 138 -56 42 0 111 28 131 53 8 9 -9 4 -40
-13 -69 -38 -111 -38 -183 0 -32 17 -52 24 -46 16z"/>
<path d="M4843 1995 c-8 -21 -1 -26 40 -30 42 -4 71 -18 114 -56 35 -30 85
-48 124 -44 13 1 32 3 42 4 9 0 37 19 60 41 40 36 83 60 108 60 6 0 7 -4 4
-10 -10 -16 11 -11 35 8 58 47 -43 60 -106 13 -21 -15 -48 -38 -58 -50 -48
-54 -147 -47 -206 15 -19 19 -47 42 -62 50 -36 19 -87 18 -95 -1z"/>
<path d="M5031 1728 c-7 -36 -10 -76 -6 -87 7 -23 54 -52 82 -50 10 0 3 5 -14
10 -51 15 -66 45 -52 107 6 28 9 60 7 69 -2 10 -10 -12 -17 -49z"/>
<path d="M4875 1551 c-27 -10 -110 -48 -184 -85 -73 -37 -140 -65 -148 -61
-18 6 -43 -11 -43 -30 0 -14 210 -14 375 0 70 6 104 4 151 -9 78 -20 126 -20
195 0 43 13 74 15 154 9 186 -15 365 -15 365 0 0 18 -27 38 -41 30 -6 -4 -87
30 -180 75 -200 97 -231 104 -331 69 l-69 -24 -64 23 c-77 26 -114 27 -180 3z
m145 -16 c55 -28 114 -30 180 -5 86 32 119 25 300 -64 l154 -76 -59 0 c-33 0
-115 5 -181 12 -109 11 -130 10 -201 -6 -81 -19 -103 -18 -208 5 -47 10 -83
10 -180 1 -66 -7 -147 -12 -180 -12 l-60 0 115 56 c223 109 261 120 320 89z"/>
<path d="M4685 1266 c51 -46 157 -102 226 -119 130 -34 334 -30 453 10 62 20
158 76 200 115 l31 30 -35 -21 c-162 -100 -239 -121 -440 -121 -203 0 -257 14
-430 115 l-45 26 40 -35z"/>
<path d="M4957 1001 c-37 -10 -73 -23 -80 -31 -10 -10 -8 -12 8 -5 121 46 297
53 420 17 47 -14 64 -16 51 -7 -58 43 -279 58 -399 26z"/>
<path d="M3360 2334 c0 -11 93 -159 124 -199 37 -47 -7 42 -56 115 -60 88 -68
98 -68 84z"/>
<path d="M6855 2908 c23 -76 44 -166 50 -211 9 -63 24 -97 25 -54 0 44 -39
226 -56 258 -17 35 -29 38 -19 7z"/>
<path d="M6823 2262 c-55 -82 -87 -141 -80 -148 2 -2 20 22 39 53 19 32 49 82
68 111 52 82 31 69 -27 -16z"/>
</g>
</svg>
