<?xml version="1.0" standalone="no"?>
<!DOCTYPE svg PUBLIC "-//W3C//DTD SVG 20010904//EN"
 "http://www.w3.org/TR/2001/REC-SVG-20010904/DTD/svg10.dtd">
<svg version="1.0" xmlns="http://www.w3.org/2000/svg"
 width="1408.000000pt" height="768.000000pt" viewBox="0 0 1408.000000 768.000000"
 preserveAspectRatio="xMidYMid meet">
<metadata>
Created by potrace 1.16, written by Peter Selinger 2001-2019
</metadata>
<g transform="translate(0.000000,768.000000) scale(0.100000,-0.100000)"
fill="#000000" stroke="none">
<path d="M6393 6844 c-17 -7 -52 -66 -64 -106 -5 -18 -16 -89 -24 -158 -24
-191 -12 -182 -118 -87 -51 45 -132 116 -182 157 -49 40 -109 91 -133 112 -35
32 -45 37 -62 28 -29 -16 -25 -52 20 -195 36 -112 70 -267 70 -315 0 -10 -33
-42 -75 -75 -148 -113 -198 -191 -219 -343 -18 -124 -22 -134 -100 -235 -69
-91 -83 -128 -66 -171 15 -39 13 -44 -15 -39 -61 12 -212 -32 -244 -71 -19
-23 5 -21 65 6 36 15 70 21 128 22 93 1 110 -14 41 -37 -66 -23 -160 -93 -195
-145 -29 -43 -36 -62 -25 -62 3 0 32 26 64 58 58 55 143 114 188 126 16 5 23
2 28 -13 5 -16 -3 -29 -31 -53 -71 -62 -160 -229 -151 -282 2 -16 11 -4 34 44
41 84 102 177 141 214 l31 29 33 -27 c18 -15 51 -51 74 -79 71 -91 118 -113
271 -123 l92 -7 12 -35 c19 -58 5 -148 -50 -315 -50 -154 -81 -304 -81 -401 0
-77 29 -252 57 -340 14 -45 57 -151 95 -236 92 -203 132 -309 168 -444 103
-387 175 -1214 118 -1347 -14 -32 -21 -37 -62 -42 -119 -17 -186 -90 -186
-204 0 -103 52 -151 177 -161 43 -3 63 -9 63 -18 0 -7 14 -29 30 -48 42 -47
140 -85 222 -86 35 0 83 -1 108 -2 64 -1 140 35 194 92 47 50 67 88 95 180
l17 55 62 3 61 3 -19 -43 c-23 -51 -26 -128 -5 -167 8 -16 31 -39 51 -52 21
-13 50 -32 66 -43 18 -11 50 -19 82 -21 29 -1 58 -5 65 -9 22 -14 117 -7 198
13 74 19 431 81 463 81 41 -1 -215 -95 -354 -131 -239 -62 -543 -88 -801 -70
-332 23 -523 80 -835 247 -146 79 -202 97 -265 85 -111 -21 -155 -118 -105
-228 51 -113 258 -256 503 -347 322 -120 797 -183 1177 -156 505 36 944 160
1235 351 119 78 251 215 303 315 58 112 75 193 69 324 -3 79 -11 125 -31 185
l-27 79 25 141 c54 296 69 561 46 783 -14 126 -62 364 -101 494 -117 397 -261
661 -478 879 -166 167 -291 245 -605 380 -154 66 -183 90 -238 198 -49 96 -91
158 -166 245 -24 28 -50 64 -58 79 -9 16 -28 120 -45 232 -37 255 -67 373
-128 500 -57 120 -120 205 -206 281 -44 38 -83 86 -124 152 -81 133 -198 287
-264 350 -52 48 -74 58 -104 46z m97 -161 c92 -165 150 -327 150 -423 0 -26
-9 -80 -20 -121 -26 -98 -26 -149 -1 -149 15 0 21 11 29 58 6 31 18 90 27 131
20 93 10 171 -39 297 -19 49 -37 98 -41 109 -9 26 96 -123 139 -195 49 -84 96
-203 112 -288 15 -80 25 -99 43 -88 15 10 14 79 -3 149 -7 31 -11 57 -7 57 10
0 66 -71 109 -139 86 -132 136 -300 172 -572 30 -232 33 -241 150 -389 109
-139 153 -230 210 -440 17 -63 36 -118 43 -122 32 -20 35 32 8 145 -10 43 -16
76 -12 75 3 -2 34 -18 69 -36 34 -18 86 -42 115 -53 103 -41 272 -131 362
-194 323 -225 549 -606 680 -1148 90 -375 97 -649 24 -1084 l-30 -182 27 -83
c35 -110 43 -247 19 -338 -66 -254 -318 -470 -706 -605 -325 -113 -658 -168
-1019 -168 -584 0 -1127 155 -1373 392 -59 56 -77 88 -77 139 0 65 61 101 143
82 20 -4 96 -41 168 -80 342 -190 597 -253 1019 -254 236 0 334 9 540 49 345
69 701 237 886 420 70 69 121 146 109 165 -13 21 -35 8 -69 -38 -67 -92 -209
-205 -289 -231 -18 -6 -156 -31 -307 -56 -151 -25 -311 -55 -355 -66 -144 -37
-195 -28 -195 35 0 32 42 106 60 106 6 0 10 9 10 20 0 32 -39 24 -76 -15 -36
-39 -57 -95 -48 -132 5 -19 2 -23 -18 -23 -44 0 -68 26 -68 76 0 49 10 73 46
117 22 26 23 57 3 57 -25 0 -82 -69 -98 -120 l-19 -55 -7 36 c-13 71 42 155
124 186 38 15 77 18 231 18 183 -1 186 -1 270 -33 93 -35 153 -39 158 -10 3
13 -17 23 -95 48 -119 37 -185 71 -255 129 -110 92 -188 214 -225 351 -26 99
-24 290 6 400 63 236 200 416 386 504 93 45 153 57 277 59 57 1 105 6 108 12
8 17 -45 35 -122 41 -155 13 -333 -54 -460 -174 -148 -140 -229 -295 -263
-507 -19 -115 -19 -181 0 -291 28 -160 88 -276 205 -393 l75 -76 -100 3 c-55
2 -118 -1 -140 -6 -38 -8 -43 -6 -95 34 -30 23 -79 67 -109 97 l-54 55 18 74
c10 40 74 242 142 448 155 468 183 574 183 685 0 46 -6 112 -14 147 -8 35 -18
107 -22 161 -4 54 -10 100 -15 103 -31 19 -39 -148 -14 -279 32 -165 22 -209
-161 -755 -125 -376 -161 -501 -209 -734 -47 -232 -91 -326 -174 -379 -51 -33
-124 -47 -146 -29 -22 18 -19 87 5 125 18 29 18 34 5 45 -12 10 -20 7 -44 -19
-29 -31 -45 -87 -39 -136 3 -17 -2 -20 -37 -17 -57 4 -79 32 -70 92 4 25 15
59 26 76 24 40 24 46 -3 42 -30 -4 -64 -58 -73 -114 -6 -42 -8 -44 -20 -27
-33 43 -5 148 51 192 15 12 44 26 66 33 80 24 99 74 142 363 60 407 82 780 57
970 -29 218 -104 436 -138 401 -3 -3 8 -57 25 -118 34 -125 56 -227 50 -234
-5 -4 -208 209 -319 336 -184 208 -290 407 -337 630 -43 204 -37 339 25 540
20 63 45 144 55 180 23 76 28 204 9 238 -11 22 -11 23 16 20 19 -2 28 2 31 14
6 28 -41 41 -184 48 -118 6 -137 10 -178 34 -39 23 -102 93 -92 103 1 2 24 -6
51 -18 65 -29 199 -25 242 7 l29 22 50 -36 c70 -50 168 -154 231 -244 30 -43
57 -78 59 -78 2 0 4 9 4 19 0 30 -91 158 -168 237 -126 129 -332 249 -332 193
0 -5 24 -20 54 -33 29 -13 56 -28 60 -34 9 -15 -99 -35 -148 -28 -63 10 -145
54 -167 90 -10 17 -19 48 -19 68 0 31 5 40 30 53 27 14 50 58 37 71 -3 3 -33
7 -68 10 -35 3 -65 7 -68 9 -2 3 21 35 51 72 79 96 96 136 104 234 8 110 30
156 111 241 103 106 245 193 387 237 97 30 100 29 76 -19 -35 -68 2 -86 45
-22 38 56 71 173 85 302 12 111 42 220 60 220 5 0 36 -48 70 -107z m-393 -181
c68 -58 120 -108 118 -111 -3 -3 -39 -15 -81 -27 l-75 -21 -10 24 c-5 13 -9
29 -9 34 0 12 -59 129 -99 198 -49 82 -60 89 156 -97z m-142 -27 c24 -49 47
-104 50 -122 6 -28 3 -34 -24 -47 l-30 -16 -6 37 c-16 96 -38 200 -51 237 -13
37 -12 39 2 21 8 -11 35 -60 59 -110z m-400 -1005 c18 -8 18 -9 2 -9 -11 -1
-21 -10 -24 -21 -3 -11 -9 -20 -14 -20 -9 0 -29 33 -29 49 0 13 36 13 65 1z
m-16 -162 c12 -21 20 -38 17 -38 -8 0 -46 62 -46 74 0 11 1 10 29 -36z m784
-2033 c75 -82 170 -186 211 -230 l75 -80 1 -160 c0 -235 -24 -482 -84 -852
-17 -104 -34 -173 -47 -189 -5 -6 -27 -17 -49 -24 -65 -21 -116 -73 -141 -140
-18 -50 -26 -60 -45 -60 -27 0 -54 34 -54 70 0 14 9 40 21 59 15 24 17 37 9
45 -29 29 -84 -56 -75 -116 6 -45 -7 -49 -32 -11 -22 33 -21 102 2 140 25 42
59 63 122 74 72 13 89 28 111 98 26 85 23 407 -7 661 -47 417 -89 643 -150
810 -17 46 -25 78 -18 70 8 -8 75 -82 150 -165z m713 -1417 c17 -18 51 -52 78
-75 44 -39 46 -42 27 -52 -11 -6 -56 -11 -101 -11 -80 0 -82 1 -77 23 3 12 11
50 18 85 6 34 15 62 19 62 4 0 20 -15 36 -32z"/>
<path d="M5905 5871 c-32 -13 -47 -37 -56 -87 -5 -25 -18 -58 -29 -74 -11 -15
-20 -33 -20 -39 0 -16 26 -13 44 5 14 14 18 13 38 -5 29 -28 87 -28 123 1 27
21 95 118 95 136 0 11 -107 60 -145 66 -16 3 -39 1 -50 -3z m145 -81 c0 -4
-18 -28 -41 -54 -46 -52 -78 -59 -103 -24 -18 25 -21 75 -6 98 8 12 10 9 10
-12 0 -60 40 -110 61 -77 5 8 9 35 9 61 l0 48 35 -17 c19 -9 35 -20 35 -23z"/>
<path d="M5811 5442 c-30 -21 4 -29 136 -35 185 -7 296 -36 506 -131 31 -14
57 -21 57 -16 0 33 -234 136 -375 165 -93 20 -304 31 -324 17z"/>
<path d="M5765 5380 c-3 -5 -1 -10 4 -10 6 0 11 5 11 10 0 6 -2 10 -4 10 -3 0
-8 -4 -11 -10z"/>
<path d="M5847 5383 c-15 -15 -3 -22 81 -48 162 -51 269 -108 435 -233 54 -41
102 -71 105 -67 9 9 -88 99 -170 158 -100 71 -201 122 -319 161 -112 38 -122
40 -132 29z"/>
</g>
</svg>
