<?xml version="1.0" standalone="no"?>
<!DOCTYPE svg PUBLIC "-//W3C//DTD SVG 20010904//EN"
 "http://www.w3.org/TR/2001/REC-SVG-20010904/DTD/svg10.dtd">
<svg version="1.0" xmlns="http://www.w3.org/2000/svg"
 width="1024.000000pt" height="559.000000pt" viewBox="0 0 1024.000000 559.000000"
 preserveAspectRatio="xMidYMid meet">
<metadata>
Created by potrace 1.16, written by Peter Selinger 2001-2019
</metadata>
<g transform="translate(0.000000,559.000000) scale(0.100000,-0.100000)"
fill="#000000" stroke="none">
<path d="M4980 4709 c-268 -17 -487 -79 -728 -205 -344 -180 -598 -449 -744
-786 -88 -204 -122 -358 -121 -548 2 -290 102 -466 353 -618 184 -111 448
-177 752 -189 l167 -6 -5 -26 c-2 -14 -13 -89 -24 -167 -21 -150 -35 -220 -96
-484 -35 -153 -38 -176 -38 -325 -1 -153 0 -162 26 -217 84 -179 274 -261 608
-260 322 0 508 75 582 233 72 152 62 317 -42 744 -28 115 -80 438 -80 499 0 3
51 6 113 6 431 0 831 145 1010 366 184 227 195 574 30 974 -80 194 -172 331
-327 486 -157 157 -274 243 -451 333 -297 149 -628 213 -985 190z m382 -55
c404 -55 752 -225 1024 -500 144 -145 240 -293 328 -507 48 -115 73 -210 91
-349 31 -241 -24 -437 -164 -581 -128 -134 -317 -223 -582 -277 -110 -22 -433
-48 -462 -37 -9 3 -17 15 -17 25 0 18 11 20 98 27 360 26 656 106 781 211 85
72 109 176 60 263 -47 84 -207 189 -379 250 -344 120 -721 167 -1204 149 -502
-18 -963 -150 -1149 -327 -61 -58 -87 -107 -87 -167 0 -159 164 -260 555 -343
58 -12 191 -27 318 -36 85 -7 87 -7 87 -32 l0 -26 -147 7 c-500 23 -858 176
-1002 429 -58 103 -76 186 -75 347 1 218 40 372 154 603 201 405 614 720 1095
836 208 50 470 64 677 35z m-249 -1376 c-2 -5 -3 -55 -3 -113 l0 -105 -40 0
c-37 0 -41 3 -64 48 -24 47 -56 144 -56 169 0 11 18 13 83 11 45 -2 81 -6 80
-10z m179 6 c7 -7 -22 -102 -52 -172 -23 -53 -23 -53 -64 -50 l-41 3 -3 113
-3 112 79 0 c43 0 81 -3 84 -6z m-351 -61 c7 -32 23 -81 35 -110 l22 -52 -46
-7 c-46 -7 -47 -6 -90 42 -41 45 -122 157 -122 168 0 9 35 14 112 15 l77 1 12
-57z m538 51 l31 -6 -50 -72 c-27 -39 -67 -88 -89 -110 -36 -35 -42 -38 -80
-31 -23 4 -41 7 -41 8 0 1 14 40 30 87 16 47 30 95 30 108 0 21 4 22 69 22 38
0 82 -3 100 -6z m-748 -31 c25 -51 71 -118 108 -156 40 -42 36 -51 -31 -62
-53 -9 -162 46 -296 150 -28 22 -51 43 -52 47 0 6 153 35 246 47 6 0 17 -11
25 -26z m979 -3 l85 -16 -87 -65 c-94 -69 -217 -139 -245 -139 -10 0 -35 5
-56 11 l-37 10 50 62 c28 34 62 85 77 114 l27 52 51 -6 c27 -4 88 -14 135 -23z
m-1249 -46 c41 -44 133 -111 210 -153 l73 -40 -28 -11 c-34 -12 -127 5 -267
51 -107 34 -270 115 -249 123 28 11 205 55 221 56 8 0 26 -12 40 -26z m1472 0
c56 -14 106 -29 110 -33 12 -11 -160 -93 -263 -126 -140 -44 -220 -58 -253
-44 l-28 12 68 36 c89 47 149 90 198 140 21 23 45 41 53 41 7 0 59 -12 115
-26z m-1696 -83 c90 -55 190 -95 316 -127 59 -15 107 -32 107 -37 0 -12 -179
-1 -315 19 -107 16 -249 52 -329 83 l-50 19 44 22 c42 22 136 58 153 59 4 1
38 -17 74 -38z m1930 8 c131 -52 129 -48 33 -81 -147 -49 -317 -81 -506 -94
-133 -8 -143 7 -23 35 110 25 246 79 337 131 37 22 70 40 74 40 4 0 42 -14 85
-31z m-2179 -78 c106 -54 336 -104 590 -126 72 -7 92 -18 50 -28 -63 -16 -287
-37 -393 -37 -170 0 -465 39 -465 61 0 17 55 71 112 108 33 23 62 41 65 41 2
0 20 -9 41 -19z m2360 -12 c54 -37 110 -87 123 -111 8 -14 1 -18 -44 -27 -98
-21 -302 -41 -415 -41 -170 0 -412 29 -412 50 0 5 30 11 68 15 150 14 302 38
388 60 99 26 204 62 219 76 14 14 23 11 73 -22z m-1078 -19 c129 -17 133 -18
127 -49 -3 -14 -8 -67 -11 -116 l-5 -90 13 108 c7 59 16 110 19 113 3 3 18 2
34 -3 32 -11 32 3 14 -238 -7 -105 -8 -198 -3 -270 l9 -110 2 171 c1 156 13
344 26 401 5 19 8 21 28 12 l22 -10 0 -307 c0 -245 4 -332 18 -432 16 -110 73
-392 113 -565 66 -283 40 -486 -75 -587 -41 -36 -119 -74 -175 -84 l-40 -7 22
28 c50 63 93 213 91 312 -1 42 -3 38 -14 -35 -27 -171 -81 -289 -143 -313 -44
-18 -272 -23 -374 -9 -221 30 -259 59 -304 233 -20 79 -20 276 1 386 9 46 14
85 12 88 -12 12 -40 -157 -44 -270 -6 -143 9 -232 54 -320 l24 -48 -30 15
c-43 23 -98 92 -123 155 -41 105 -26 325 37 571 26 99 74 353 91 480 19 134
26 549 11 647 -8 52 -7 53 25 73 18 10 33 18 34 17 2 -1 10 -81 19 -177 16
-167 16 -226 0 -495 l-4 -70 14 85 c19 120 19 426 -1 557 -8 58 -13 107 -11
109 2 2 17 7 34 10 l31 6 7 -73 c4 -41 11 -110 16 -154 7 -74 7 -71 4 30 -3
61 -7 131 -11 157 l-7 47 39 7 c128 24 266 29 384 14z m-1451 -135 c176 -45
508 -60 701 -30 52 8 104 15 115 15 20 -1 20 -1 1 -15 -37 -28 -264 -95 -416
-124 -70 -13 -306 -41 -347 -41 -74 0 -154 123 -127 194 7 19 3 19 73 1z
m2679 -25 c5 -51 -5 -78 -51 -127 l-42 -45 -85 6 c-121 10 -275 33 -387 57
-92 20 -318 90 -330 103 -16 16 14 16 111 2 208 -31 587 -14 731 32 42 14 50
10 53 -28z m-1838 -40 c0 -15 -169 -123 -264 -169 -96 -46 -195 -81 -229 -81
-36 0 -177 45 -243 77 l-58 28 65 2 c171 6 424 52 583 104 50 17 97 34 105 39
21 13 41 12 41 0z m983 -9 c127 -55 432 -118 622 -130 l110 -6 -40 -21 c-61
-32 -178 -72 -232 -79 -58 -8 -133 15 -268 83 -112 56 -245 142 -245 159 0 17
0 17 53 -6z m-983 -75 c0 -39 -6 -50 -60 -109 -88 -96 -116 -110 -193 -102
-107 11 -187 27 -187 36 0 5 9 9 20 9 50 0 247 92 350 164 36 25 66 45 68 45
1 1 2 -19 2 -43z m1011 -15 c107 -70 283 -151 329 -151 11 0 20 -4 20 -9 0 -9
-80 -25 -188 -36 -62 -7 -63 -7 -119 36 -31 24 -74 67 -95 96 -33 44 -39 57
-33 83 4 16 8 30 9 30 2 0 36 -22 77 -49z m-1001 -113 c0 -96 -2 -98 -86 -98
-75 0 -92 9 -51 27 12 6 45 35 72 66 28 30 53 55 58 56 4 1 7 -23 7 -51z m961
-3 c23 -25 55 -53 71 -63 15 -9 28 -20 28 -24 0 -4 -34 -8 -75 -8 l-75 0 0 70
c0 39 2 70 5 70 2 0 23 -20 46 -45z"/>
<path d="M4560 4471 c-41 -15 -93 -37 -115 -50 -42 -23 -32 -21 50 11 28 11
79 31 115 44 36 13 56 23 45 23 -11 0 -54 -12 -95 -28z"/>
<path d="M4148 4258 c-142 -96 -290 -250 -393 -410 -35 -56 -6 -26 67 70 89
115 223 246 334 327 88 65 101 75 92 75 -4 0 -49 -28 -100 -62z"/>
<path d="M6525 3768 c97 -208 135 -414 113 -618 -6 -54 -5 -60 4 -35 19 50 15
319 -6 395 -33 124 -100 284 -140 335 -9 11 4 -24 29 -77z"/>
<path d="M3606 3550 c-34 -86 -57 -188 -61 -275 -4 -90 -4 -90 5 -21 11 89 37
204 61 274 22 65 19 81 -5 22z"/>
<path d="M6728 3300 c4 -82 -6 -203 -23 -290 -3 -14 2 -7 11 15 19 48 31 282
17 335 -8 26 -9 11 -5 -60z"/>
<path d="M5472 2325 c0 -16 2 -22 5 -12 2 9 2 23 0 30 -3 6 -5 -1 -5 -18z"/>
<path d="M5540 1759 c43 -165 54 -243 54 -389 1 -105 -4 -161 -16 -203 -9 -31
-13 -55 -8 -52 12 7 38 115 44 185 3 36 2 112 -4 169 -10 102 -63 337 -80 355
-5 5 0 -25 10 -65z"/>
</g>
</svg>
