<?xml version="1.0" standalone="no"?>
<!DOCTYPE svg PUBLIC "-//W3C//DTD SVG 20010904//EN"
 "http://www.w3.org/TR/2001/REC-SVG-20010904/DTD/svg10.dtd">
<svg version="1.0" xmlns="http://www.w3.org/2000/svg"
 width="1408.000000pt" height="768.000000pt" viewBox="0 0 1408.000000 768.000000"
 preserveAspectRatio="xMidYMid meet">
<metadata>
Created by potrace 1.16, written by Peter Selinger 2001-2019
</metadata>
<g transform="translate(0.000000,768.000000) scale(0.100000,-0.100000)"
fill="#000000" stroke="none">
<path d="M5386 6629 c-15 -12 -41 -47 -59 -77 l-31 -57 -11 36 c-12 43 -32 69
-52 69 -37 0 -88 -82 -108 -174 l-6 -29 -23 22 c-48 45 -88 14 -102 -80 -4
-30 -17 -55 -39 -79 -18 -19 -40 -49 -49 -67 -21 -41 -21 -125 0 -166 17 -31
17 -32 -12 -52 -16 -11 -52 -43 -80 -71 -53 -52 -89 -130 -82 -176 3 -27 15
-27 186 -14 l102 9 -15 -43 c-24 -69 -20 -167 11 -228 14 -29 37 -61 51 -72
34 -27 95 -42 124 -32 32 12 79 -7 79 -33 0 -11 -34 -153 -74 -316 -106 -421
-131 -622 -107 -878 40 -437 210 -773 516 -1020 100 -81 358 -268 435 -315 36
-22 112 -63 170 -92 104 -52 106 -54 132 -111 42 -89 148 -224 235 -298 43
-37 77 -72 75 -79 -28 -112 -173 -410 -211 -435 -29 -19 -128 -21 -282 -7 -90
8 -100 7 -144 -14 -32 -15 -52 -33 -58 -51 -6 -16 -21 -30 -35 -34 -66 -16
-132 -81 -132 -130 0 -29 17 -32 70 -13 25 8 44 8 80 -1 39 -10 63 -9 136 3
49 9 92 16 97 16 4 0 -4 -17 -18 -39 -32 -48 -42 -102 -23 -119 11 -9 22 -6
51 13 23 16 50 25 75 25 28 0 85 21 193 71 170 79 213 89 285 65 32 -10 75
-15 124 -13 73 3 75 4 78 30 5 39 -39 78 -126 111 -74 29 -102 54 -102 93 0
26 45 145 115 309 39 89 55 115 83 133 40 26 38 27 144 -66 37 -32 76 -65 86
-73 20 -15 20 -16 -3 -105 -33 -127 -101 -329 -131 -386 -40 -80 -49 -83 -237
-76 -100 4 -176 3 -198 -3 -52 -15 -103 -52 -107 -78 -3 -20 1 -22 40 -23 38
-1 33 -3 -41 -20 -114 -25 -181 -81 -181 -149 0 -24 19 -25 76 -5 32 11 49 12
77 3 28 -9 64 -6 174 11 169 26 163 26 122 -2 -43 -28 -79 -98 -79 -154 0 -57
21 -66 63 -25 18 16 55 36 85 45 29 8 88 37 130 64 42 28 107 69 144 92 37 24
72 49 79 57 16 20 55 18 124 -7 43 -15 72 -19 105 -15 51 7 73 8 115 4 41 -4
45 28 9 71 -25 30 -91 71 -113 71 -21 0 -122 42 -136 56 -27 27 -17 96 34 246
27 79 65 184 86 235 35 88 39 94 88 121 67 39 138 111 189 192 40 64 42 66
127 99 124 48 239 112 354 199 204 153 337 304 387 439 12 32 32 69 45 83 34
37 53 80 87 197 29 103 30 118 13 200 -7 28 -4 33 26 48 89 46 168 136 190
219 6 22 24 60 41 84 46 66 70 146 77 253 l6 96 55 47 c74 63 185 191 212 246
32 65 32 169 0 203 l-23 24 31 52 c87 148 94 307 15 369 -27 21 -27 21 -12 69
27 86 30 148 8 197 -10 24 -33 54 -49 66 -26 19 -29 26 -21 47 16 43 11 111
-11 133 -32 32 -93 38 -151 15 -14 -5 -15 0 -6 44 29 141 -81 197 -252 128
-191 -77 -355 -239 -517 -510 -152 -255 -214 -324 -338 -383 -108 -51 -304
-83 -621 -100 -141 -8 -253 5 -412 46 -125 32 -174 54 -250 111 -99 74 -152
169 -278 494 -116 299 -285 538 -470 665 -51 35 -194 104 -238 115 l-27 7 29
34 c29 33 51 89 51 129 -1 32 -36 102 -58 114 -37 20 -78 12 -130 -24 -56 -38
-62 -35 -62 34 0 62 -42 81 -94 40z m48 -83 c12 -77 55 -89 132 -37 55 36 79
39 94 12 16 -32 12 -103 -10 -138 -28 -46 -63 -60 -165 -65 -73 -4 -100 -10
-144 -32 -104 -54 -191 -160 -195 -239 -1 -26 3 -33 23 -35 42 -6 71 8 130 62
89 82 150 84 267 8 73 -47 91 -67 69 -75 -19 -8 -55 -66 -55 -90 0 -13 10 -7
40 24 36 38 43 41 76 36 40 -7 64 -23 64 -42 0 -20 -48 -74 -81 -91 -41 -21
-37 -38 6 -30 33 7 35 5 35 -20 0 -47 -22 -103 -57 -143 -33 -39 -93 -68 -113
-56 -6 4 -18 4 -26 1 -12 -4 -13 -10 -4 -26 8 -14 21 -20 46 -20 44 0 80 19
120 62 51 53 68 96 69 169 1 52 6 72 23 94 46 58 13 128 -67 141 -23 4 -41 10
-41 14 0 15 -66 72 -117 101 -62 36 -135 47 -189 29 -21 -7 -64 -37 -94 -65
-30 -29 -65 -56 -78 -60 -23 -7 -23 -6 7 52 35 68 97 131 165 167 94 50 239
29 416 -58 92 -46 150 -86 219 -155 150 -146 271 -359 387 -676 81 -223 187
-367 323 -439 73 -38 241 -86 374 -107 147 -23 560 5 754 51 190 45 297 130
422 335 226 372 367 522 563 602 73 29 153 36 169 13 13 -19 6 -136 -10 -170
-7 -14 -28 -36 -48 -50 -58 -40 -233 -221 -298 -308 -58 -78 -62 -81 -101 -82
-22 0 -63 -7 -91 -15 -58 -17 -193 -102 -217 -136 -31 -45 -16 -50 37 -10 88
66 187 112 253 118 106 9 141 -24 90 -84 -20 -24 -175 -133 -280 -197 -20 -13
-25 -21 -17 -29 7 -7 32 -4 83 11 105 30 158 36 224 22 72 -15 106 -34 128
-70 26 -45 20 -76 -24 -124 -39 -42 -126 -86 -171 -86 -35 0 -20 -17 36 -40
95 -39 180 -156 160 -220 -13 -40 -60 -67 -129 -75 -36 -3 -66 -11 -66 -16 0
-5 13 -27 29 -49 91 -126 9 -196 -136 -115 -34 20 -63 33 -63 29 0 -5 -14 10
-30 33 -30 40 -60 62 -60 43 0 -12 78 -127 91 -136 5 -3 9 2 9 10 0 20 14 20
31 0 22 -27 92 -57 132 -57 49 0 89 30 101 75 8 32 1 57 -42 141 -2 4 10 7 27
7 74 0 139 52 148 119 8 59 -34 141 -98 189 -26 20 -48 39 -48 42 -1 4 14 11
32 18 123 47 168 197 79 269 -13 11 1 30 94 129 165 175 255 292 327 425 l19
34 29 -33 c100 -112 -50 -405 -391 -765 -45 -48 -80 -90 -77 -94 11 -10 110
73 205 171 98 101 186 215 247 319 22 37 43 67 47 67 5 0 18 -15 29 -32 17
-28 19 -44 15 -98 -13 -156 -173 -380 -410 -576 -27 -22 -45 -43 -40 -47 30
-18 248 158 342 278 40 50 57 38 57 -39 -1 -39 -8 -65 -30 -102 -43 -74 -216
-242 -320 -309 -87 -56 -105 -71 -105 -88 0 -13 54 4 103 34 27 16 51 29 54
29 9 0 -8 -129 -24 -184 -21 -71 -63 -133 -128 -189 -30 -27 -55 -52 -55 -58
0 -14 33 -11 58 7 36 25 25 0 -25 -56 -45 -50 -151 -130 -172 -130 -14 0 -14
1 11 -76 l22 -66 -22 -67 c-12 -36 -29 -88 -37 -116 -19 -62 -35 -89 -35 -60
0 32 -16 6 -54 -89 -50 -124 -102 -200 -209 -303 -157 -150 -313 -258 -478
-328 -66 -29 -80 -32 -74 -18 29 69 47 124 42 130 -13 13 -45 -30 -97 -130
-65 -125 -127 -215 -174 -250 -42 -33 -46 -33 -38 -5 5 19 -2 16 -45 -20 -28
-23 -55 -42 -61 -42 -5 0 -15 -7 -22 -15 -23 -28 -78 -18 -128 22 -40 34 -45
35 -40 15 4 -12 2 -22 -2 -22 -13 0 -240 211 -293 271 -25 28 -64 82 -88 121
-64 102 -157 228 -169 228 -19 0 -10 -22 41 -107 28 -46 49 -86 48 -88 -6 -5
-220 77 -362 138 -157 68 -296 151 -497 296 -218 158 -311 240 -407 361 -132
166 -227 378 -270 602 -22 117 -25 517 -5 646 7 46 42 202 78 345 35 144 69
290 75 324 10 56 14 64 38 69 89 21 134 88 129 192 -3 66 -3 67 27 78 l30 12
-25 10 c-14 5 -74 34 -135 63 -146 70 -145 70 -145 59 0 -18 46 -53 109 -83
53 -25 66 -37 82 -71 23 -52 23 -90 0 -142 -12 -27 -30 -46 -54 -57 -44 -21
-62 -21 -112 2 -77 34 -115 104 -115 206 1 67 25 176 42 186 7 5 33 6 57 3 41
-6 60 3 61 28 0 14 -104 76 -148 89 -33 9 -41 16 -36 28 3 9 8 21 10 27 3 5
-5 19 -17 30 -16 14 -36 19 -81 19 -53 0 -61 3 -73 25 -30 54 -10 153 38 184
29 20 47 56 47 99 0 18 5 39 10 47 8 13 12 12 25 -7 18 -26 57 -30 78 -8 8 7
18 36 22 62 9 63 44 131 56 112 5 -8 9 -21 9 -30 0 -22 38 -59 61 -59 12 0 27
12 37 31 32 58 74 119 82 119 4 0 11 -20 14 -44z m-359 -605 c0 -37 3 -39 84
-74 l54 -23 -105 4 c-115 5 -181 -9 -270 -54 -53 -27 -60 -19 -29 32 33 55
127 126 184 140 73 18 82 15 82 -25z m59 -127 c14 -5 14 -8 1 -27 -13 -19 -24
-21 -139 -21 -110 -1 -122 1 -100 12 54 28 201 50 238 36z m-29 -111 c-4 -10
-9 -51 -12 -90 -7 -82 10 -142 54 -193 20 -24 22 -30 9 -30 -29 0 -66 31 -93
78 -22 38 -27 58 -26 111 1 82 23 141 54 141 16 0 20 -4 14 -17z m4065 -68
c51 -61 -111 -338 -354 -603 -34 -37 -71 -80 -83 -95 l-22 -28 -57 17 c-40 11
-79 15 -126 12 l-68 -5 82 56 c86 59 113 88 124 133 5 23 0 33 -26 58 l-32 30
98 111 c129 147 292 285 376 319 35 14 74 12 88 -5z m-2665 -3068 c61 -24 138
-52 173 -62 52 -16 67 -25 85 -54 12 -20 48 -67 81 -104 37 -43 55 -72 49 -78
-5 -5 -37 -15 -70 -21 -55 -10 -64 -9 -94 9 -19 11 -40 18 -47 16 -19 -7 -212
193 -259 270 -23 37 -39 67 -35 67 4 0 57 -20 117 -43z m282 -370 l32 1 -36
-81 c-19 -45 -53 -125 -76 -177 -80 -186 -61 -248 93 -304 36 -12 65 -27 65
-32 0 -16 -75 -16 -127 2 -79 26 -129 15 -302 -67 -109 -51 -164 -72 -198 -73
-41 -3 -46 -1 -38 14 9 17 29 29 162 89 88 40 144 83 133 101 -4 6 -29 -2 -63
-19 -76 -39 -108 -47 -301 -71 -132 -17 -169 -19 -192 -10 -16 7 -41 10 -56 7
l-27 -5 25 19 c30 23 96 36 224 44 199 12 308 41 374 100 20 18 55 68 78 111
45 86 127 282 138 332 6 29 9 31 33 25 15 -4 41 -7 59 -6z m531 -212 c-61
-148 -121 -341 -126 -406 -4 -63 -3 -67 28 -102 26 -30 48 -42 119 -63 47 -15
94 -32 104 -39 16 -11 11 -14 -42 -20 -49 -6 -73 -3 -127 15 -37 13 -77 23
-89 23 -21 0 -80 -36 -265 -159 -66 -44 -133 -77 -182 -88 -60 -14 -18 41 67
89 71 39 195 149 195 171 0 21 -24 17 -49 -10 -36 -38 -86 -53 -289 -86 -154
-26 -199 -30 -223 -21 -17 6 -43 8 -57 4 -18 -4 -23 -2 -18 6 15 23 80 41 225
61 288 40 405 90 461 200 39 77 150 430 150 477 0 17 8 19 73 19 l74 -1 -29
-70z m-1088 -274 c53 -7 54 -7 20 -14 -89 -16 -132 -18 -165 -6 -19 7 -35 17
-35 21 0 10 103 9 180 -1z m550 -250 l55 -6 -78 -18 c-97 -21 -127 -21 -172 0
-30 15 -33 18 -18 24 22 9 139 9 213 0z"/>
<path d="M5364 6066 c-21 -18 -28 -32 -28 -61 0 -47 31 -75 84 -75 46 0 72 26
73 76 1 28 -5 42 -27 60 -35 30 -67 30 -102 0z m96 -47 c0 -13 -38 -11 -46 2
-9 16 18 30 33 17 7 -6 13 -14 13 -19z"/>
<path d="M5457 5084 c-11 -98 26 -275 64 -310 20 -18 21 -18 35 1 8 10 14 26
14 34 0 11 -3 10 -14 -4 -13 -18 -14 -18 -24 1 -20 38 -44 149 -49 236 -6 96
-17 114 -26 42z"/>
<path d="M6450 5034 c0 -19 40 -77 83 -121 l51 -52 -40 10 c-58 16 -88 34
-159 94 -35 30 -67 55 -70 55 -2 0 7 -30 21 -67 30 -78 93 -263 89 -263 -36 0
-184 85 -185 106 0 16 -37 47 -43 36 -3 -4 3 -42 13 -83 23 -88 27 -229 7
-229 -20 0 -98 54 -136 94 -19 20 -39 36 -44 36 -6 0 -7 -30 -4 -75 4 -41 3
-75 -1 -75 -22 0 -109 69 -167 133 -57 63 -65 69 -65 47 0 -59 163 -210 226
-210 33 0 39 21 27 87 l-10 54 41 -39 c51 -49 99 -74 134 -70 24 3 29 10 41
58 10 40 11 73 5 120 l-9 65 48 -32 c50 -33 105 -50 133 -39 20 8 13 56 -22
159 -13 39 -24 72 -24 74 0 2 18 -8 39 -23 43 -28 120 -54 160 -54 57 0 52 14
-44 113 -52 53 -95 94 -95 91z"/>
<path d="M5574 4885 c-7 -18 20 -103 59 -180 54 -110 139 -193 165 -162 13 15
-4 156 -20 172 -7 7 -8 3 -5 -10 3 -11 9 -46 13 -79 l7 -58 -27 17 c-42 28
-119 155 -146 239 -23 75 -35 90 -46 61z"/>
<path d="M7871 4741 c-19 -12 0 -17 59 -13 27 2 50 8 50 13 0 11 -90 12 -109
0z"/>
<path d="M8015 4672 c6 -5 39 -17 75 -26 36 -9 88 -28 116 -41 28 -14 57 -25
63 -25 23 0 -49 52 -99 71 -58 22 -171 37 -155 21z"/>
<path d="M7182 4590 c2 -7 55 -30 117 -51 144 -48 330 -140 457 -225 106 -72
161 -114 147 -114 -5 0 -13 4 -19 9 -12 13 -129 51 -151 50 -15 0 -14 -3 6
-17 14 -9 45 -26 70 -37 157 -69 237 -120 316 -200 73 -74 185 -211 185 -227
0 -3 -45 20 -100 52 -112 64 -354 177 -400 187 -64 12 -22 -15 148 -99 211
-103 389 -208 417 -245 11 -15 28 -47 38 -71 17 -43 17 -43 -2 -37 -11 3 -64
17 -118 30 -130 32 -294 83 -479 151 -149 55 -152 56 -133 75 23 23 25 91 5
132 -14 26 -14 27 13 27 15 0 36 6 47 14 26 19 23 91 -7 150 -24 49 -131 160
-148 155 -6 -2 9 -29 35 -59 78 -94 98 -136 95 -199 -1 -23 -4 -23 -51 -18
-36 4 -63 16 -96 42 -74 56 -72 41 4 -40 97 -101 111 -162 46 -194 -39 -20
-128 -3 -217 39 -37 18 -71 30 -75 25 -11 -11 42 -48 108 -74 170 -68 84 -184
-101 -137 -35 9 -97 32 -138 51 -86 41 -103 44 -72 11 29 -31 102 -70 174 -92
31 -10 57 -20 57 -24 0 -13 -43 -52 -67 -61 -13 -5 -53 -9 -88 -9 -70 0 -199
40 -294 91 -64 34 -75 36 -62 10 15 -28 177 -107 279 -137 22 -6 -6 -44 -46
-61 -54 -23 -254 -13 -342 17 -184 62 -366 201 -479 365 -99 143 -133 257
-111 376 12 70 10 86 -8 75 -41 -25 -55 -163 -27 -266 76 -288 423 -583 734
-625 30 -4 99 -23 155 -41 55 -19 159 -46 231 -61 112 -23 156 -26 320 -27
194 -1 302 13 407 50 24 8 79 22 122 30 74 14 141 40 175 68 8 6 41 16 74 23
113 23 161 82 134 161 -8 22 -30 62 -49 89 -20 26 -47 71 -62 100 -102 203
-486 535 -780 674 -170 80 -405 151 -394 119z m500 -819 c109 -64 543 -209
688 -230 l45 -6 -50 -25 c-47 -24 -59 -25 -210 -24 -180 1 -311 22 -586 93
-144 37 -184 43 -149 21 86 -55 448 -140 670 -156 l95 -8 -60 -20 c-52 -18
-84 -20 -250 -20 -204 1 -280 10 -533 65 -125 28 -168 32 -150 14 25 -25 352
-97 523 -115 61 -7 111 -13 113 -15 2 -1 -43 -8 -100 -15 -176 -22 -439 3
-643 61 l-40 11 50 19 c53 20 85 50 85 79 0 15 11 18 65 22 73 4 111 25 135
75 13 27 21 31 68 36 30 3 65 13 78 22 30 20 47 61 39 94 -4 15 -1 27 7 32 23
15 76 10 110 -10z"/>
<path d="M8180 4451 c0 -5 23 -23 50 -41 28 -18 73 -57 100 -88 27 -31 53 -53
56 -49 10 10 -42 92 -77 121 -34 29 -101 66 -119 66 -5 0 -10 -4 -10 -9z"/>
<path d="M5253 3995 c11 -132 104 -366 179 -449 51 -56 47 -32 -11 70 -64 110
-97 193 -131 327 -15 59 -30 111 -35 115 -4 4 -5 -24 -2 -63z"/>
<path d="M6340 3913 c0 -36 126 -169 218 -232 65 -44 137 -80 160 -81 31 0 6
22 -65 59 -84 44 -213 150 -265 219 -30 39 -48 52 -48 35z"/>
<path d="M5560 3382 c0 -29 101 -134 115 -120 8 8 -88 127 -102 128 -7 0 -13
-4 -13 -8z"/>
<path d="M8187 2900 c-31 -39 -98 -103 -149 -143 -59 -46 -86 -73 -75 -75 52
-10 199 122 276 251 36 59 10 43 -52 -33z"/>
<path d="M4995 5934 c-9 -9 -14 -19 -11 -21 10 -11 56 8 56 22 0 20 -25 19
-45 -1z"/>
</g>
</svg>
