<?xml version="1.0" standalone="no"?>
<!DOCTYPE svg PUBLIC "-//W3C//DTD SVG 20010904//EN"
 "http://www.w3.org/TR/2001/REC-SVG-20010904/DTD/svg10.dtd">
<svg version="1.0" xmlns="http://www.w3.org/2000/svg"
 width="1024.000000pt" height="559.000000pt" viewBox="0 0 1024.000000 559.000000"
 preserveAspectRatio="xMidYMid meet">
<metadata>
Created by potrace 1.16, written by Peter Selinger 2001-2019
</metadata>
<g transform="translate(0.000000,559.000000) scale(0.100000,-0.100000)"
fill="#000000" stroke="none">
<path d="M5461 4924 c-70 -30 -102 -37 -192 -44 -86 -6 -120 -13 -163 -34 -29
-14 -56 -26 -60 -26 -4 0 -22 11 -39 24 -60 44 -118 56 -276 56 -120 0 -166 5
-256 25 -127 29 -219 32 -295 9 -71 -21 -111 -47 -212 -141 -69 -64 -111 -93
-215 -146 -219 -113 -316 -222 -384 -431 -10 -32 -19 -63 -19 -68 0 -6 -14
-40 -32 -77 -40 -85 -122 -170 -263 -277 -134 -100 -198 -166 -232 -240 -46
-101 -47 -211 -4 -379 32 -123 27 -159 -44 -307 -46 -96 -56 -176 -31 -243 10
-24 51 -91 93 -147 99 -135 119 -177 149 -311 34 -150 69 -219 157 -314 40
-43 94 -112 120 -153 25 -41 66 -98 91 -126 39 -44 193 -169 268 -217 15 -9
56 -47 90 -83 218 -228 498 -394 844 -499 63 -19 124 -35 135 -35 12 0 42 -22
68 -49 59 -62 110 -87 224 -113 124 -28 352 -30 447 -4 99 27 168 65 214 118
40 45 49 50 203 102 310 105 455 193 653 395 80 82 166 159 212 189 138 93
204 169 293 337 57 108 88 154 148 220 117 131 178 272 197 455 23 229 30 272
56 343 95 261 110 331 101 462 -7 98 -36 193 -92 305 -47 94 -61 150 -69 289
-10 154 -52 226 -191 321 -38 26 -78 57 -88 68 -11 11 -39 69 -62 128 -24 58
-56 124 -71 146 -53 76 -134 125 -292 177 -111 37 -170 74 -273 168 -151 139
-219 169 -352 160 -45 -3 -109 -15 -141 -27 -77 -26 -114 -25 -186 5 -80 34
-127 31 -229 -11z m717 -42 c29 -14 85 -55 125 -91 155 -142 199 -169 352
-217 109 -34 198 -92 242 -157 17 -26 46 -86 64 -133 42 -112 73 -153 161
-212 140 -95 167 -145 179 -327 8 -129 16 -161 73 -273 110 -219 115 -384 16
-639 -48 -123 -69 -214 -80 -356 -12 -150 -29 -232 -65 -313 -24 -54 -92 -157
-132 -199 -44 -46 -104 -136 -149 -220 -82 -156 -131 -216 -248 -305 -23 -17
-25 -21 43 93 62 103 167 319 210 433 25 64 48 101 110 175 43 52 77 96 74 99
-3 3 -34 -25 -69 -63 -35 -37 -64 -63 -64 -57 0 5 9 42 20 82 11 40 26 110 34
155 14 81 48 153 128 270 27 41 78 148 60 128 -14 -16 -92 -134 -129 -195
l-33 -55 -2 160 c-5 316 -7 311 105 456 65 86 107 157 107 181 0 6 -19 -17
-43 -52 -23 -36 -64 -92 -91 -125 -27 -33 -61 -85 -75 -115 l-25 -55 -7 35
c-20 95 41 372 113 514 11 21 15 35 8 31 -15 -9 -74 -129 -95 -194 -10 -30
-25 -100 -34 -155 l-17 -101 -18 60 c-10 33 -41 116 -68 185 -44 110 -49 131
-44 173 9 68 51 178 103 275 45 82 53 119 16 65 -56 -80 -117 -218 -132 -298
l-8 -40 -15 36 c-44 101 -48 197 -12 311 36 113 36 173 1 226 -22 34 -37 44
-84 59 -62 18 -256 23 -344 9 l-46 -7 21 61 c16 47 27 63 51 74 17 7 46 21 65
30 41 19 117 82 109 90 -3 3 -27 -11 -55 -30 -45 -33 -133 -78 -140 -72 -1 2
13 43 32 91 19 49 34 94 34 100 -2 25 -63 -110 -97 -211 -38 -116 -50 -142
-61 -142 -5 0 -30 21 -58 48 -27 26 -86 75 -131 110 -76 58 -82 65 -92 112
-15 70 -13 233 3 303 7 31 10 57 7 57 -13 0 -31 -66 -42 -150 -9 -69 -9 -100
4 -165 8 -44 14 -81 13 -82 0 -1 -19 11 -41 26 -46 31 -79 105 -91 204 -3 31
-11 60 -16 64 -15 9 1 -112 22 -174 10 -29 17 -53 16 -53 -2 0 -36 16 -77 36
-245 119 -447 164 -744 164 l-176 0 15 28 c23 44 112 121 169 146 38 17 78 25
147 28 80 4 110 11 185 41 105 44 140 45 220 12 74 -30 114 -31 196 -4 137 44
207 44 297 1z m-1703 -7 c37 -13 94 -18 225 -21 177 -3 231 -13 288 -50 l23
-15 -39 -43 c-21 -23 -47 -61 -57 -84 -17 -39 -22 -42 -74 -52 -167 -33 -377
-102 -490 -160 -39 -20 -41 -20 -41 -2 0 11 14 46 31 79 17 32 33 79 36 104 7
56 -9 41 -25 -25 -7 -27 -19 -57 -26 -67 -12 -18 -15 -14 -34 44 -20 63 -61
142 -68 134 -2 -2 10 -37 27 -78 21 -52 32 -96 36 -149 l5 -75 -54 -35 c-29
-19 -56 -36 -60 -38 -4 -2 -22 13 -39 33 -80 90 -190 116 -230 53 -17 -28 -19
-43 -14 -94 9 -104 -35 -212 -144 -346 -25 -31 -49 -57 -53 -57 -5 -1 -8 10
-8 24 0 14 -9 67 -21 118 -11 50 -24 119 -28 152 l-8 60 -2 -61 c0 -34 6 -99
15 -144 8 -45 14 -86 12 -91 -4 -11 -47 28 -84 76 -15 20 -29 33 -32 31 -9 -9
40 -76 84 -114 59 -53 58 -73 -12 -159 -85 -103 -150 -204 -212 -327 l-56
-111 -13 70 c-7 39 -16 115 -19 170 -5 93 -4 107 24 191 17 50 35 135 42 190
25 222 74 338 190 454 64 65 94 86 208 144 110 57 149 83 225 153 86 80 137
114 197 134 39 13 219 2 275 -16z m855 -299 c197 -24 401 -87 558 -173 84 -45
287 -177 296 -191 2 -4 -37 -8 -87 -9 -51 -1 -113 -6 -139 -11 -40 -8 -59 -5
-130 18 -102 33 -129 47 -193 101 -62 52 -135 86 -200 93 l-50 5 50 -15 c78
-23 137 -53 180 -88 l39 -33 -94 4 c-64 3 -110 0 -140 -9 -43 -14 -40 -14 85
-14 126 1 133 0 240 -38 61 -21 114 -42 118 -46 5 -4 -6 -10 -23 -13 -114 -23
-356 -192 -455 -318 -55 -70 -58 -85 -7 -37 20 19 58 49 83 66 48 32 229 133
229 127 0 -2 -15 -25 -33 -53 -19 -27 -55 -101 -82 -163 -83 -199 -132 -280
-243 -403 -37 -41 -33 -38 22 14 37 36 82 85 101 110 40 54 102 176 145 286
58 146 112 217 189 251 101 45 228 73 326 72 128 -1 139 -8 68 -43 -164 -80
-275 -190 -450 -446 -51 -74 -151 -209 -223 -300 -136 -172 -210 -277 -275
-394 -35 -63 -39 -67 -46 -45 -4 13 -15 53 -25 89 -9 36 -40 116 -67 177 l-49
113 17 51 c10 28 38 81 63 117 70 103 82 135 82 229 0 45 4 93 10 108 5 14 39
54 75 88 65 62 65 63 65 118 0 72 -28 117 -144 229 -123 120 -130 133 -123
233 4 68 2 87 -14 119 l-19 38 77 0 c43 0 130 -7 193 -14z m-309 -25 c29 -29
29 -30 23 -114 -9 -112 3 -136 134 -266 110 -109 148 -169 136 -216 -3 -14
-30 -47 -59 -73 -76 -69 -82 -83 -87 -197 -5 -108 -12 -127 -80 -228 -21 -31
-47 -76 -57 -99 l-17 -42 -54 80 c-92 137 -211 272 -430 487 -116 115 -210
211 -207 214 3 3 21 0 39 -6 19 -6 75 -15 124 -20 116 -10 148 -29 284 -166
58 -59 122 -115 142 -126 52 -27 58 -24 12 7 -21 14 -88 76 -149 138 -60 62
-125 120 -143 128 l-33 15 47 7 c117 16 251 -2 365 -48 68 -27 69 -16 1 18
-89 45 -177 57 -402 54 -175 -3 -213 0 -262 15 -49 16 -60 24 -84 64 -31 54
-33 52 77 108 114 58 167 69 331 70 102 0 141 3 130 10 -9 6 -75 10 -147 10
-152 0 -236 -21 -347 -86 -36 -21 -71 -39 -76 -39 -5 0 -14 11 -20 25 -10 23
-8 27 31 53 157 108 379 192 622 237 107 20 123 19 156 -14z m-961 -170 c43
-35 100 -108 130 -169 49 -99 110 -172 288 -346 235 -231 327 -332 292 -323
-66 19 -204 46 -208 42 -7 -6 44 -25 98 -35 127 -26 165 -48 228 -135 107
-149 196 -333 251 -520 23 -79 16 -72 -49 47 -60 111 -165 216 -283 283 -48
28 -116 66 -149 85 -92 52 -173 131 -208 203 -16 34 -45 123 -64 199 -55 216
-79 251 -227 329 -110 57 -141 89 -185 187 -70 154 -22 239 86 153z m-90 -247
c40 -64 75 -93 163 -136 134 -66 152 -92 208 -308 44 -172 54 -199 104 -265
47 -64 131 -126 265 -200 131 -72 185 -111 249 -181 46 -50 121 -164 121 -183
0 -4 14 -28 30 -54 17 -26 30 -53 30 -60 0 -21 -133 -285 -219 -435 -172 -301
-234 -448 -265 -627 -29 -163 -16 -323 35 -460 49 -132 119 -215 263 -309 110
-73 186 -142 186 -171 0 -29 -70 -16 -214 41 -259 103 -509 245 -633 361 -117
109 -135 317 -40 466 19 29 71 95 116 147 96 110 152 189 187 263 38 83 27 89
-16 8 -44 -80 -93 -145 -195 -261 -125 -143 -164 -219 -172 -340 -4 -68 2
-118 22 -175 3 -11 -23 11 -60 49 -79 83 -178 228 -234 345 -37 76 -41 93 -41
161 0 172 75 317 231 449 72 60 102 73 329 136 121 33 216 85 294 158 l61 58
-75 -54 c-131 -95 -166 -111 -382 -170 -49 -13 -88 -22 -88 -21 0 2 33 28 73
57 163 122 270 243 340 382 31 62 61 145 52 145 -1 0 -19 -34 -39 -76 -86
-181 -189 -297 -416 -469 -169 -128 -226 -179 -286 -257 -72 -93 -114 -196
-116 -286 -4 -133 -86 199 -95 383 -5 105 -4 114 26 193 68 185 138 277 361
472 145 126 214 200 246 263 27 50 11 38 -53 -43 -56 -70 -180 -190 -197 -190
-4 0 -1 10 5 22 22 40 138 332 134 336 -8 9 -165 -344 -165 -372 0 -4 -43 -48
-96 -99 -115 -110 -173 -188 -225 -305 l-39 -87 0 55 c0 211 128 644 296 999
30 63 54 116 54 119 0 12 -50 -63 -126 -187 -43 -72 -80 -128 -82 -126 -2 2 4
70 12 152 16 144 28 208 59 306 19 60 12 61 -13 2 -33 -76 -49 -156 -65 -312
-19 -185 -24 -208 -85 -353 -70 -165 -105 -288 -131 -455 l-12 -79 -39 154
c-68 274 -70 295 -43 424 13 61 42 171 64 245 23 74 39 136 37 138 -12 12
-125 -346 -127 -401 0 -21 -1 -21 -9 -1 -5 11 -9 88 -10 170 -1 120 -4 143
-12 115 -15 -52 -3 -296 22 -435 11 -66 39 -190 62 -275 39 -150 40 -162 48
-370 4 -118 6 -217 4 -219 -2 -2 -7 5 -11 15 -3 10 -28 53 -54 95 -115 184
-160 316 -195 569 l-13 95 4 -100 c4 -112 32 -250 70 -351 26 -68 51 -116 136
-260 62 -103 76 -138 104 -254 13 -52 35 -128 50 -168 15 -41 25 -75 23 -77
-2 -1 -48 36 -103 84 -108 94 -179 181 -245 300 -55 101 -40 50 19 -64 48 -94
118 -172 283 -317 61 -54 85 -85 123 -155 133 -246 364 -483 610 -626 44 -26
74 -47 68 -47 -24 0 -264 102 -344 146 -307 170 -556 428 -711 739 -289 578
-280 1279 24 1820 61 108 122 191 252 345 99 116 153 197 177 264 7 20 15 36
19 36 3 -1 21 -26 40 -56z m2279 12 c45 -38 37 -49 -18 -30 -57 21 -205 17
-297 -7 -126 -33 -337 -124 -416 -181 -16 -11 -28 -16 -28 -11 1 12 145 115
218 157 75 42 185 83 256 95 28 5 94 9 148 10 96 1 96 1 137 -33z m471 -42
c31 -7 29 -8 -67 -59 -75 -41 -121 -58 -196 -74 -142 -30 -176 -54 -262 -191
-64 -100 -84 -120 -195 -200 -65 -46 -120 -96 -171 -157 -52 -61 -106 -110
-173 -157 -163 -116 -249 -230 -277 -366 -6 -30 -13 -152 -14 -270 -3 -183 -6
-227 -25 -295 -36 -135 -96 -223 -219 -321 -88 -71 -121 -112 -151 -196 -28
-75 -50 -110 -123 -202 -69 -85 -100 -173 -101 -285 0 -42 2 -89 6 -106 5 -23
2 -20 -13 13 -35 75 -51 177 -47 297 4 106 6 113 42 175 51 88 111 165 163
207 46 38 51 57 7 28 -40 -26 -111 -103 -156 -170 -22 -33 -38 -51 -35 -40 3
11 9 34 13 50 11 48 79 215 114 280 58 108 140 171 270 209 62 18 96 36 70 36
-37 0 -140 -34 -198 -66 -35 -19 -61 -31 -59 -27 85 146 149 267 241 456 152
312 193 378 425 667 50 63 141 187 201 276 121 178 214 279 325 353 75 50 205
103 310 126 64 14 241 19 295 9z m114 -66 c22 -32 20 -65 -11 -160 -22 -65
-27 -101 -27 -168 1 -93 14 -138 129 -434 104 -270 146 -517 125 -729 -27
-277 -103 -537 -234 -802 -121 -244 -223 -394 -365 -535 -64 -64 -146 -137
-182 -162 -78 -55 -269 -157 -269 -144 0 2 30 26 67 52 83 60 199 176 278 279
33 44 85 99 115 122 92 73 180 154 191 176 8 15 0 11 -27 -14 -46 -42 -118
-99 -156 -124 l-28 -17 34 65 c19 35 49 103 67 151 28 75 44 99 124 189 110
123 154 186 205 292 61 129 56 139 -10 20 -33 -60 -79 -135 -103 -166 -59 -78
-171 -198 -163 -174 4 11 17 79 28 150 11 72 37 184 58 250 22 66 44 138 49
161 6 22 36 78 66 124 31 45 65 100 75 121 28 54 70 187 69 218 0 15 -14 -12
-33 -69 -37 -108 -41 -117 -105 -219 l-46 -74 -3 45 c-3 46 24 225 53 353 18
79 32 339 17 315 -5 -8 -12 -62 -15 -120 -3 -58 -19 -170 -35 -250 -17 -80
-37 -211 -46 -291 -12 -115 -54 -311 -70 -326 -2 -2 -6 51 -10 117 -8 138 -31
326 -52 420 -45 202 -56 274 -57 370 -2 97 1 114 36 220 35 105 73 297 62 309
-10 10 -17 -10 -26 -81 -10 -67 -19 -104 -67 -270 -27 -96 -26 -101 -57 242
-12 136 -13 140 -14 60 0 -47 4 -150 10 -230 5 -80 14 -228 19 -330 5 -102 12
-212 15 -245 l6 -60 -33 60 c-19 33 -62 103 -97 155 -75 111 -123 215 -180
399 -23 73 -44 131 -47 129 -4 -5 59 -243 78 -293 27 -72 91 -191 147 -274
136 -202 161 -288 161 -549 0 -208 -27 -380 -87 -565 l-27 -82 -7 95 c-9 120
-34 202 -115 368 -49 102 -64 142 -64 177 0 59 -20 116 -95 265 -34 69 -68
142 -75 163 -6 21 -14 36 -17 34 -10 -11 22 -99 77 -212 91 -186 121 -318 50
-219 -19 27 -86 101 -150 164 -131 131 -193 213 -250 331 -43 89 -50 93 -23
13 21 -63 73 -151 130 -221 45 -56 45 -56 17 -49 -87 21 -134 38 -170 63 -65
47 -97 66 -89 53 18 -30 130 -100 183 -115 121 -33 141 -45 227 -130 195 -196
345 -510 345 -725 0 -128 -36 -216 -149 -367 -61 -81 -198 -221 -188 -191 3 9
11 45 17 80 23 124 -10 287 -93 466 -63 134 -75 172 -92 297 l-13 90 -1 -67
c-1 -90 22 -194 64 -285 38 -83 43 -99 20 -66 -8 12 -75 66 -148 121 -165 123
-221 185 -287 315 -8 16 -16 24 -18 19 -5 -16 53 -123 98 -180 38 -49 78 -83
260 -222 133 -102 194 -229 193 -405 0 -99 -27 -189 -66 -226 -51 -49 -380
-239 -392 -227 -3 2 0 20 5 39 40 140 -36 329 -225 554 -78 93 -109 144 -142
229 l-24 61 6 -45 c8 -70 56 -154 160 -282 127 -159 187 -270 209 -387 l6 -33
-28 29 c-15 16 -65 48 -112 72 -104 54 -148 87 -205 158 -52 63 -59 58 -14
-10 41 -62 95 -107 182 -153 168 -87 189 -116 156 -220 -10 -33 -12 -34 -153
-95 -77 -34 -100 -39 -163 -39 l-74 0 -14 35 c-24 56 -74 104 -175 170 -52 34
-107 75 -122 91 -62 67 -106 224 -94 339 10 96 33 149 103 238 36 45 79 111
95 147 16 36 38 84 48 107 13 28 45 63 100 108 148 123 211 216 249 366 16 61
21 124 24 310 5 244 10 278 57 369 30 58 110 142 190 198 107 75 156 120 212
189 34 43 92 96 163 148 124 92 148 117 205 214 65 113 118 149 249 171 67 11
96 23 245 104 60 32 80 33 100 4z m-3515 -110 c-4 -24 -17 -72 -29 -108 -32
-100 -35 -177 -11 -320 30 -182 29 -219 -6 -336 -29 -93 -53 -214 -71 -359
l-8 -60 -12 53 c-21 91 -72 209 -118 272 -46 63 -71 83 -34 28 103 -155 157
-355 175 -653 l7 -99 -45 61 c-40 53 -127 133 -147 133 -3 0 29 -36 71 -81 93
-95 118 -144 159 -301 62 -242 153 -463 249 -607 47 -71 48 -76 21 -61 -52 28
-154 139 -207 224 -31 50 -86 123 -123 162 -93 99 -115 140 -154 296 -40 158
-60 200 -155 330 -39 53 -78 112 -86 132 -22 52 -18 113 11 181 97 225 97 225
54 400 -65 260 -26 352 225 540 61 45 137 111 170 148 33 36 63 66 66 66 4 1
3 -18 -2 -41z m596 -662 c-32 -72 -119 -333 -139 -416 -38 -160 -46 -206 -57
-348 -11 -130 -11 -170 4 -299 40 -358 154 -633 369 -888 189 -224 428 -388
776 -530 51 -21 91 -39 89 -41 -7 -7 -192 27 -250 47 -189 63 -383 186 -551
349 -145 141 -227 248 -304 399 -99 194 -149 354 -177 564 -36 277 0 616 92
871 28 76 137 311 154 333 20 23 18 14 -6 -41z m2677 -706 c19 -105 22 -163
22 -365 0 -210 -2 -252 -22 -338 -66 -298 -188 -537 -371 -729 -190 -200 -386
-308 -656 -363 -44 -9 -88 -18 -98 -20 -27 -5 -10 12 19 19 49 13 337 160 429
220 344 224 540 518 625 941 31 151 38 456 16 646 -8 73 -18 168 -21 209 l-5
75 20 -85 c11 -47 30 -141 42 -210z m-1402 -1873 c181 -1 242 2 314 16 48 10
90 16 93 13 9 -9 -78 -65 -125 -80 -115 -38 -246 -44 -408 -21 -101 14 -183
39 -230 70 -42 27 -26 33 54 18 49 -9 159 -15 302 -16z"/>
<path d="M3105 3320 c16 -30 39 -95 51 -145 25 -99 32 -79 10 26 -16 73 -45
137 -72 160 -11 9 -8 -3 11 -41z"/>
</g>
</svg>
