<?xml version="1.0" standalone="no"?>
<!DOCTYPE svg PUBLIC "-//W3C//DTD SVG 20010904//EN"
 "http://www.w3.org/TR/2001/REC-SVG-20010904/DTD/svg10.dtd">
<svg version="1.0" xmlns="http://www.w3.org/2000/svg"
 width="1024.000000pt" height="559.000000pt" viewBox="0 0 1024.000000 559.000000"
 preserveAspectRatio="xMidYMid meet">
<metadata>
Created by potrace 1.16, written by Peter Selinger 2001-2019
</metadata>
<g transform="translate(0.000000,559.000000) scale(0.100000,-0.100000)"
fill="#000000" stroke="none">
<path d="M4934 5222 c-39 -28 -92 -86 -127 -136 -12 -18 -27 -26 -46 -26 -47
0 -93 -39 -110 -94 -12 -37 -24 -54 -52 -72 -26 -16 -43 -38 -60 -78 -20 -50
-26 -56 -51 -56 -41 0 -82 -24 -115 -66 -15 -20 -50 -53 -78 -74 -61 -45 -101
-115 -140 -245 -48 -158 -58 -171 -201 -259 -90 -55 -146 -106 -158 -144 -5
-14 -19 -21 -55 -26 -55 -7 -114 -45 -157 -101 -33 -43 -167 -125 -205 -125
-53 0 -158 40 -208 80 -53 42 -120 130 -168 220 -76 143 -88 220 -80 506 9
305 4 315 -147 310 -119 -4 -134 -18 -166 -159 -10 -45 -30 -122 -45 -172 -32
-108 -36 -211 -17 -480 14 -193 8 -261 -26 -319 l-18 -31 -102 -3 c-97 -3
-102 -4 -131 -33 -35 -34 -45 -76 -39 -157 6 -88 38 -140 150 -249 55 -54 144
-152 198 -219 143 -176 264 -278 386 -323 68 -26 102 -26 184 -1 93 28 152 26
226 -9 66 -31 104 -75 147 -169 20 -43 22 -63 22 -222 0 -158 2 -179 20 -205
11 -17 18 -34 16 -40 -36 -116 -31 -218 15 -266 24 -25 24 -26 7 -60 -13 -24
-18 -58 -18 -116 l0 -82 41 -39 c50 -48 79 -65 102 -58 14 5 21 -2 30 -28 16
-44 107 -91 163 -83 35 5 37 3 43 -27 9 -48 47 -80 84 -71 17 3 38 15 48 26 9
10 20 19 24 19 3 0 14 -26 24 -57 21 -68 41 -93 72 -93 27 0 77 40 101 81 10
16 20 29 23 29 3 0 12 -33 19 -73 13 -72 34 -126 55 -139 19 -13 71 -9 95 8
26 19 76 120 86 177 7 36 25 52 25 22 0 -29 43 -129 66 -152 31 -31 78 -30
109 1 13 13 34 59 48 101 l25 79 17 -59 c22 -76 50 -131 70 -139 24 -9 64 -7
84 4 21 11 56 87 66 143 10 52 22 54 30 5 17 -99 58 -158 112 -158 48 0 77 36
104 127 l23 76 27 -83 c29 -91 53 -120 101 -120 43 0 83 45 103 116 22 76 31
84 39 38 25 -128 121 -227 182 -186 20 13 42 66 55 132 7 36 16 69 20 73 3 5
16 -8 28 -27 44 -71 101 -95 134 -58 10 10 24 43 33 73 9 30 17 55 19 57 1 2
20 -8 40 -23 39 -26 52 -29 80 -19 19 8 45 55 45 83 0 18 5 20 43 15 59 -8
141 33 158 79 10 28 16 33 44 33 38 0 105 52 125 97 16 36 8 162 -12 202 -15
28 -15 31 7 51 46 43 55 143 21 240 -12 35 -11 41 12 74 24 34 24 37 18 180
-6 129 -5 152 13 210 32 103 81 166 154 201 75 35 134 37 227 9 82 -25 116
-25 184 0 122 46 274 173 384 320 30 41 110 129 177 196 146 146 175 194 175
295 0 79 -10 111 -46 144 -24 23 -35 25 -116 25 -49 0 -97 4 -107 10 -39 20
-54 86 -53 230 1 74 6 178 12 230 20 194 12 249 -86 596 -7 28 -25 61 -39 74
-23 21 -36 25 -111 26 -81 2 -87 1 -117 -26 l-32 -28 4 -249 c4 -337 -13 -417
-133 -597 -89 -133 -177 -196 -302 -213 -36 -5 -52 0 -107 31 -36 20 -96 67
-135 105 -67 67 -111 91 -167 91 -13 0 -28 14 -43 43 -18 34 -43 57 -110 100
-191 124 -178 108 -232 272 -52 154 -83 209 -145 255 -28 21 -63 54 -78 74
-33 42 -74 66 -116 66 -25 0 -31 5 -42 38 -17 52 -36 78 -73 100 -23 14 -36
32 -46 67 -18 55 -51 85 -107 94 -28 5 -43 15 -61 41 -32 49 -91 110 -127 132
-36 22 -123 24 -150 4 -17 -12 -23 -12 -47 0 -47 24 -119 18 -164 -14z m170
-9 c21 -3 56 0 77 7 34 11 44 11 79 -5 22 -10 62 -43 90 -74 27 -31 60 -68 72
-82 21 -23 22 -28 10 -64 -7 -22 -15 -60 -17 -85 -4 -34 1 -24 17 38 20 76 24
82 48 82 39 0 68 -26 81 -73 15 -52 24 -64 69 -92 45 -28 63 -79 90 -248 32
-199 92 -405 132 -454 7 -9 7 -13 0 -13 -15 0 -108 105 -136 153 -35 60 -65
157 -86 272 l-18 100 -1 -85 c-2 -176 50 -303 173 -426 95 -94 326 -256 466
-326 111 -55 306 -121 429 -144 243 -46 523 45 604 197 l18 34 -22 -30 c-40
-52 -90 -95 -140 -120 -27 -14 -50 -25 -53 -25 -2 0 22 26 53 59 64 67 140
189 175 282 41 110 49 196 40 406 -11 228 -10 258 11 290 15 22 22 24 53 18
21 -3 54 -6 74 -5 44 1 74 -26 88 -80 99 -388 95 -360 80 -565 -25 -350 -16
-443 52 -500 27 -23 38 -25 123 -25 89 0 95 -1 114 -26 16 -21 21 -41 21 -89
0 -98 -24 -140 -159 -274 -65 -64 -145 -152 -178 -196 -111 -147 -280 -290
-380 -319 -18 -6 -21 -3 -20 21 1 15 0 63 -1 105 -2 72 -4 80 -34 114 -31 35
-33 43 -39 134 -7 126 -25 157 -112 198 -48 23 -72 43 -102 83 -44 59 -69 72
-252 129 -116 36 -159 67 -201 144 -15 27 -32 51 -39 54 -7 2 5 -27 25 -65 48
-88 98 -122 251 -169 149 -47 162 -54 206 -113 27 -38 53 -59 102 -83 82 -40
102 -77 103 -186 0 -78 8 -101 47 -143 19 -21 25 -37 24 -75 0 -27 5 -64 10
-82 9 -26 8 -38 -6 -58 -19 -29 -36 -29 -135 0 -109 32 -198 14 -318 -63 -86
-56 -140 -107 -184 -176 -43 -66 -81 -178 -76 -222 3 -25 6 -21 22 27 31 92
73 165 125 221 l50 54 -22 -55 c-20 -50 -22 -70 -20 -218 3 -176 -3 -208 -39
-197 -15 5 -30 -4 -61 -38 l-42 -44 -26 19 c-25 19 -28 19 -57 4 -16 -8 -46
-34 -64 -56 -39 -44 -48 -49 -48 -22 0 10 -5 23 -12 30 -23 23 -56 13 -92 -30
l-36 -41 -11 31 c-6 18 -15 32 -19 32 -5 0 -16 3 -25 6 -11 5 -30 -8 -60 -40
l-43 -47 -7 50 c-13 99 -72 129 -137 72 -19 -16 -51 -61 -73 -100 -22 -39 -43
-71 -47 -71 -4 0 -12 18 -18 39 -14 55 -60 101 -99 101 -43 0 -94 -54 -122
-130 -20 -56 -39 -78 -39 -45 0 29 -33 111 -57 143 -80 107 -208 65 -263 -86
-29 -80 -49 -82 -75 -7 -24 71 -75 131 -124 146 -83 25 -151 -30 -187 -151
-10 -33 -20 -60 -23 -60 -4 0 -17 27 -29 60 -30 78 -79 130 -120 130 -36 0
-83 -49 -102 -104 -6 -20 -15 -36 -18 -36 -4 0 -20 26 -37 57 -42 82 -103 143
-142 143 -41 0 -62 -27 -75 -98 l-11 -61 -29 40 c-39 54 -71 68 -98 44 -11
-10 -20 -26 -20 -37 0 -10 -4 -18 -10 -18 -5 0 -10 4 -10 9 0 5 -14 23 -31 40
-41 41 -77 41 -92 1 -6 -16 -14 -30 -18 -30 -3 0 -17 16 -30 36 -13 19 -40 44
-60 54 -33 17 -38 17 -65 4 -28 -15 -30 -14 -56 15 -33 37 -62 53 -82 45 -29
-11 -37 41 -31 190 5 131 4 146 -18 209 l-24 68 39 -38 c48 -46 82 -102 126
-207 l33 -81 -5 59 c-6 70 -56 181 -111 244 -88 101 -244 192 -342 200 -37 3
-81 -3 -138 -18 -81 -22 -86 -22 -111 -6 -21 15 -24 22 -19 44 4 15 11 57 14
94 6 56 12 73 36 98 28 29 30 38 36 131 7 120 18 139 108 187 44 24 73 49 98
83 42 59 55 66 204 113 152 47 203 81 250 168 22 39 31 64 22 61 -8 -3 -25
-27 -38 -53 -38 -75 -82 -104 -229 -151 -168 -54 -179 -60 -223 -120 -28 -39
-51 -58 -100 -81 -87 -42 -103 -70 -112 -198 -6 -92 -8 -101 -36 -130 -27 -28
-30 -39 -37 -128 -4 -63 -3 -101 4 -109 16 -19 -9 -16 -61 7 -108 49 -238 168
-358 325 -33 44 -109 126 -167 183 -123 117 -156 173 -156 260 0 58 19 106 47
117 10 4 55 6 100 6 77 -1 84 0 116 29 22 19 39 47 48 77 16 56 16 218 -2 435
-13 164 -8 211 40 383 16 55 34 123 40 150 17 70 43 95 100 95 25 0 60 1 76 2
26 3 33 -2 48 -33 16 -34 16 -51 5 -235 -13 -229 -5 -316 42 -445 33 -91 120
-229 185 -294 24 -25 42 -45 39 -45 -2 0 -26 11 -52 24 -43 22 -104 76 -147
131 -16 19 -16 19 -4 -4 43 -89 162 -163 322 -202 149 -35 280 -21 507 53 181
59 274 109 493 262 205 143 271 217 323 362 28 76 44 202 35 264 l-7 45 -8
-65 c-21 -184 -70 -307 -161 -408 -32 -35 -59 -61 -62 -58 -2 2 4 21 15 43 37
72 80 228 107 388 36 209 54 258 106 287 33 18 42 31 55 75 17 57 43 83 84 83
24 0 27 -6 45 -77 10 -43 23 -82 28 -88 6 -6 7 -3 4 10 -3 11 -11 45 -17 75
-7 30 -16 61 -20 68 -4 8 4 25 19 42 14 15 46 52 71 80 49 59 111 94 150 84
14 -3 42 -8 64 -11z m734 -521 c28 -37 59 -69 108 -113 39 -35 65 -88 115
-234 22 -66 52 -134 65 -152 14 -18 69 -60 124 -94 147 -90 180 -135 180 -253
0 -37 -1 -38 -27 -32 -81 20 -258 122 -454 263 l-76 54 -51 162 c-47 147 -92
357 -92 427 0 28 0 28 41 18 28 -8 49 -22 67 -46z m-1335 -42 c-21 -144 -48
-255 -96 -395 l-44 -130 -134 -93 c-138 -96 -255 -165 -348 -203 -65 -28 -75
-19 -65 61 10 93 38 127 164 202 141 85 149 94 206 264 48 143 76 196 125 236
22 18 56 54 75 81 36 50 61 65 105 66 l26 1 -14 -90z m-721 -777 c3 -27 7 -54
9 -62 4 -15 -99 -51 -201 -71 -30 -6 -65 -13 -77 -16 -33 -7 -28 11 7 26 16 7
58 41 94 77 56 57 112 91 152 93 6 0 14 -21 16 -47z m2732 36 c26 -7 64 -34
116 -84 42 -40 86 -76 98 -79 34 -11 26 -26 -10 -20 -34 6 -148 34 -227 55
-43 12 -43 12 -37 48 3 20 6 48 6 64 0 31 1 31 54 16z m-2803 -1962 c-6 -25
-11 -78 -11 -116 0 -83 -6 -86 -65 -37 l-40 34 0 74 c1 44 8 94 19 127 l18 53
46 -45 45 -45 -12 -45z m2922 63 c19 -67 22 -148 6 -182 -10 -21 -70 -68 -87
-68 -4 0 -8 35 -9 77 -2 42 -7 91 -13 109 -11 31 -9 37 26 79 21 25 43 45 49
45 5 0 18 -27 28 -60z m-2286 -12 c17 -18 52 -66 78 -107 l47 -73 -11 -56 c-6
-30 -11 -87 -11 -127 0 -69 -1 -72 -37 -107 -59 -55 -78 -62 -102 -37 -11 12
-30 43 -43 68 -21 42 -23 59 -22 191 0 185 20 280 58 280 7 0 26 -15 43 -32z
m1621 0 c20 -42 35 -193 30 -304 -5 -105 -18 -142 -71 -201 -18 -20 -22 -21
-46 -8 -14 7 -39 27 -54 43 -26 27 -29 39 -33 109 -2 43 -9 101 -15 128 -11
51 -11 51 36 125 58 90 104 142 125 138 8 -2 21 -15 28 -30z m-2115 -35 c50
-51 54 -59 45 -82 -5 -14 -12 -69 -14 -121 -4 -104 -15 -119 -54 -80 -13 13
-30 20 -40 17 -47 -12 -71 89 -51 207 15 84 27 116 44 116 8 0 39 -26 70 -57z
m2634 12 c21 -61 27 -192 11 -240 -12 -36 -16 -40 -46 -40 -21 0 -37 -6 -43
-17 -6 -10 -19 -18 -29 -18 -18 0 -20 7 -20 68 0 38 -5 94 -12 126 l-11 57 54
55 c30 30 60 53 68 52 8 -2 20 -21 28 -43z m-1534 14 c70 -36 106 -107 132
-256 16 -94 20 -230 6 -252 -14 -22 -160 -37 -232 -23 -88 16 -99 29 -99 116
0 71 19 194 41 271 19 67 48 115 82 135 37 23 41 24 70 9z m390 2 c61 -23 107
-139 137 -343 25 -166 -2 -194 -187 -192 -140 2 -153 11 -153 102 1 155 40
327 87 383 21 24 65 53 90 59 1 0 13 -4 26 -9z m-1328 -55 l37 -45 -12 -77
c-7 -42 -10 -104 -8 -137 l3 -60 -36 -12 c-20 -7 -41 -10 -47 -6 -35 21 -43
163 -16 284 25 118 25 118 79 53z m2288 -41 c24 -112 28 -166 14 -230 -10 -51
-16 -61 -35 -63 -13 -2 -36 1 -50 7 -26 11 -27 13 -24 83 2 40 -1 98 -8 131
-9 48 -9 62 3 80 24 37 70 78 78 70 4 -4 14 -39 22 -78z m-1659 41 c17 -18 46
-70 64 -114 33 -79 33 -83 23 -151 -6 -38 -11 -88 -11 -110 0 -53 -21 -64
-111 -59 -98 5 -123 26 -127 105 -3 64 26 223 53 286 17 41 48 77 66 77 7 0
26 -15 43 -34z m1031 8 c42 -45 85 -209 85 -325 0 -58 -3 -68 -26 -90 -21 -20
-38 -24 -100 -27 -94 -5 -114 8 -114 78 0 25 -5 71 -10 102 -10 53 -9 59 31
152 38 87 74 136 101 136 5 0 20 -12 33 -26z m-1505 -31 l42 -48 -6 -80 c-3
-44 -2 -106 2 -137 l9 -58 -38 -25 c-66 -43 -80 -33 -106 69 -15 63 -15 74 1
173 19 114 30 153 45 153 5 0 28 -21 51 -47z m1980 -5 c28 -129 34 -207 22
-264 -13 -65 -35 -104 -59 -104 -9 0 -30 11 -48 24 l-31 24 1 140 c1 102 5
146 15 159 32 41 65 73 76 73 7 0 17 -24 24 -52z m-1020 -145 c0 -22 -2 -25
-10 -13 -13 20 -13 40 0 40 6 0 10 -12 10 -27z m-1405 -66 c11 -18 30 -33 43
-35 l22 -3 -21 -40 c-12 -25 -21 -63 -22 -99 -2 -55 -4 -60 -25 -60 -13 0 -41
17 -65 40 -40 39 -42 44 -41 98 0 31 6 74 13 95 11 32 16 37 44 37 25 -1 36
-8 52 -33z m2885 6 c7 -16 15 -56 18 -90 l5 -62 -51 -51 c-31 -30 -56 -48 -65
-44 -9 3 -17 28 -21 72 -4 38 -15 80 -27 98 l-19 31 30 6 c19 4 35 17 45 37
21 41 66 42 85 3z m-2739 -80 c14 4 24 -3 34 -24 9 -16 26 -31 39 -35 22 -5
23 -6 9 -57 -8 -31 -12 -71 -8 -100 5 -43 4 -48 -19 -59 -40 -17 -122 25 -137
71 -14 40 -7 155 11 193 11 23 16 26 32 17 11 -6 29 -9 39 -6z m2576 -24 c13
-36 15 -149 4 -188 -3 -13 -13 -28 -21 -32 -114 -58 -131 -51 -135 56 -1 44
-6 90 -10 102 -5 16 -2 23 14 28 12 3 28 19 36 34 11 22 20 27 38 24 14 -3 28
0 32 7 11 18 29 6 42 -31z m-2379 -54 c12 -20 32 -37 47 -41 19 -5 24 -11 19
-23 -4 -9 -9 -53 -12 -99 -4 -79 -6 -84 -37 -107 -73 -56 -100 -15 -100 150 0
80 4 106 18 128 23 36 41 34 65 -8z m2175 -5 c15 -29 18 -52 14 -135 -6 -152
-31 -184 -101 -130 -33 25 -34 28 -38 113 -3 48 -8 95 -12 104 -6 13 -3 15 12
12 13 -4 27 4 45 26 15 17 27 36 27 42 0 22 36 1 53 -32z m-1973 -50 c13 -22
35 -43 47 -46 22 -6 23 -11 23 -86 0 -76 -1 -81 -39 -131 -76 -102 -96 -107
-120 -25 -39 130 -32 272 17 330 28 34 24 36 72 -42z m1810 -46 c19 -90 -7
-262 -44 -293 -17 -15 -55 14 -97 75 -27 40 -31 54 -33 129 -3 68 -1 85 11 85
19 0 57 43 78 87 l18 37 27 -31 c18 -20 33 -52 40 -89z m-1591 55 c16 -12 44
-24 62 -28 28 -6 34 -11 32 -32 -1 -13 3 -49 7 -79 8 -50 5 -66 -27 -163 -38
-113 -74 -167 -110 -167 -38 0 -70 118 -80 290 l-6 116 44 42 c24 23 45 42 47
42 2 0 16 -9 31 -21z m1340 -19 l44 -40 -6 -128 c-3 -70 -11 -145 -17 -167
-19 -69 -42 -115 -59 -115 -68 1 -142 186 -138 344 l2 86 37 10 c20 6 47 19
60 30 12 11 25 19 28 20 3 0 25 -18 49 -40z m-1076 -15 c12 -13 38 -28 57 -33
34 -8 35 -10 38 -62 3 -53 -23 -171 -53 -245 -20 -47 -49 -61 -80 -41 -39 26
-100 244 -93 331 3 38 5 40 41 46 21 3 43 11 50 18 15 15 15 15 40 -14z m783
10 c16 -8 42 -15 58 -15 l29 0 -5 -77 c-6 -93 -42 -231 -72 -276 -45 -66 -82
-39 -122 90 -18 57 -28 112 -28 157 l-1 70 38 9 c21 5 45 20 55 33 9 13 18 24
18 24 1 0 15 -7 30 -15z m-439 -128 c-14 -215 -98 -344 -151 -232 -21 43 -52
173 -60 248 l-6 57 67 1 c38 1 82 5 98 9 60 15 59 18 52 -83z m177 76 l88 -6
-7 -62 c-3 -34 -14 -93 -24 -131 -36 -140 -73 -182 -117 -131 -36 42 -74 193
-74 295 0 52 1 54 23 48 12 -4 62 -10 111 -13z"/>
<path d="M5111 5096 c-15 -61 -14 -115 5 -221 15 -77 15 -105 5 -190 -13 -114
-14 -295 -1 -255 4 14 8 59 9 101 1 42 6 113 12 158 10 71 8 97 -11 210 -19
108 -21 136 -11 181 14 65 8 78 -8 16z"/>
<path d="M4837 4745 c-3 -55 -18 -147 -32 -205 -33 -137 -61 -298 -74 -435
-15 -155 -15 -166 9 -172 19 -5 19 -7 -10 -58 -47 -83 -83 -177 -133 -350 -61
-212 -70 -268 -65 -372 13 -214 94 -331 278 -402 91 -35 163 -40 210 -16 43
22 37 38 -6 20 -41 -17 -111 -20 -134 -5 -13 8 -12 10 3 10 30 0 93 37 113 67
52 77 65 127 74 293 4 80 14 181 20 224 10 64 10 113 -1 250 -16 198 -16 269
-3 421 10 101 4 239 -10 275 -5 12 3 15 43 15 l50 0 -7 -30 c-7 -31 -8 -214
-1 -415 2 -63 -1 -183 -6 -267 -6 -84 -7 -189 -3 -235 4 -46 12 -148 17 -228
10 -154 23 -213 65 -284 26 -44 88 -85 132 -87 18 0 18 -1 -1 -9 -32 -14 -100
-11 -139 5 -43 18 -49 2 -6 -20 45 -23 117 -18 210 15 91 33 95 35 158 94 83
78 122 185 122 339 0 105 -4 128 -57 312 -70 244 -121 365 -196 472 -42 58
-81 135 -114 223 -60 159 -110 199 -192 153 -30 -17 -32 -17 -62 0 -77 43
-127 7 -184 -135 -39 -100 -107 -234 -131 -258 -10 -10 -17 -11 -25 -3 -18 18
18 328 56 493 54 233 66 333 46 385 -5 12 -10 -17 -14 -80z m225 -534 c6 -58
4 -123 -4 -201 -15 -143 -15 -202 0 -415 10 -127 10 -189 2 -245 -6 -41 -15
-140 -19 -220 -10 -167 -31 -240 -87 -295 -108 -108 -303 -4 -365 194 -13 42
-19 91 -19 149 0 100 14 137 50 137 33 0 52 -41 59 -132 10 -110 54 -143 121
-87 45 38 60 83 59 178 0 90 -8 114 -81 246 -25 47 -53 109 -62 138 -14 48
-14 58 0 98 15 44 64 133 111 202 l23 35 0 -29 c0 -16 -9 -63 -20 -104 -28
-105 -35 -171 -20 -214 10 -30 16 -36 39 -36 71 0 110 133 90 305 -23 197 -3
323 64 389 27 28 30 28 39 11 6 -10 15 -57 20 -104z m189 82 c28 -32 59 -132
61 -196 1 -34 -2 -126 -7 -204 -9 -157 0 -214 41 -258 31 -34 71 -33 84 1 16
41 12 97 -15 210 -36 153 -33 160 27 68 116 -178 117 -204 16 -401 -70 -138
-73 -148 -77 -224 -4 -95 15 -155 60 -194 66 -55 114 -19 121 91 8 112 43 160
89 118 16 -15 19 -31 19 -124 0 -159 -44 -265 -138 -333 -143 -104 -267 -59
-312 113 -7 25 -16 108 -21 185 -5 77 -13 169 -19 205 -10 69 -7 166 12 367 9
98 9 139 -2 210 -16 104 -16 319 0 368 12 38 27 37 61 -2z m-332 -463 c0 -88
-14 -147 -45 -181 -25 -28 -41 -24 -53 14 -12 36 -6 79 28 212 12 43 21 92 21
109 0 16 6 45 12 64 13 34 13 34 25 -49 6 -46 11 -122 12 -169z m454 145 c4
-33 18 -105 32 -160 36 -140 19 -219 -35 -170 -47 43 -59 151 -38 333 10 90
13 100 23 80 7 -13 15 -50 18 -83z m-602 -503 l54 -104 0 -96 c0 -85 -3 -101
-23 -129 -48 -68 -102 -44 -102 46 0 97 -38 168 -86 158 -13 -2 -24 0 -24 6 0
10 25 98 67 236 l25 83 18 -48 c9 -27 41 -96 71 -152z m837 40 c23 -81 42
-152 42 -158 0 -6 -10 -9 -24 -7 -48 10 -86 -60 -86 -162 0 -27 -7 -58 -15
-69 -20 -26 -58 -14 -87 27 -20 28 -23 43 -23 127 l1 95 67 134 c37 73 67 140
67 147 0 44 20 -3 58 -134z"/>
<path d="M5386 4806 c-13 -43 0 -145 39 -316 40 -175 65 -351 68 -475 1 -52 6
-84 12 -82 29 10 -2 312 -56 549 -23 101 -44 221 -48 268 -6 68 -9 79 -15 56z"/>
<path d="M4517 4033 c-69 -102 -128 -170 -212 -242 -35 -30 -39 -36 -15 -20
74 48 136 107 193 184 51 68 114 175 104 175 -2 0 -33 -44 -70 -97z"/>
<path d="M5665 4100 c59 -117 195 -277 277 -324 19 -12 -5 16 -59 67 -54 52
-117 125 -154 180 -71 106 -89 127 -64 77z"/>
<path d="M2780 3799 c0 -22 44 -110 77 -154 17 -22 45 -49 64 -59 30 -17 28
-13 -18 33 -30 30 -67 82 -88 123 -19 39 -35 64 -35 57z"/>
<path d="M7422 3738 c-20 -40 -54 -89 -84 -118 -57 -56 -56 -66 2 -20 43 34
90 105 109 163 20 60 9 50 -27 -25z"/>
<path d="M3880 3343 c-19 -10 -43 -33 -53 -51 -18 -30 -18 -34 -3 -56 16 -25
52 -43 64 -32 3 4 -4 13 -16 22 -29 20 -28 48 4 73 44 34 98 26 153 -23 l24
-21 -17 32 c-31 62 -98 86 -156 56z"/>
<path d="M6264 3346 c-29 -13 -64 -50 -64 -68 0 -4 16 4 36 17 57 39 130 29
152 -21 10 -20 7 -26 -15 -44 -14 -11 -23 -23 -20 -26 11 -11 47 7 63 31 42
64 -73 147 -152 111z"/>
<path d="M4073 3038 c26 -102 28 -124 23 -228 -2 -63 -12 -146 -21 -185 -27
-113 -28 -125 -9 -85 50 107 68 300 40 440 -15 74 -48 170 -58 170 -2 0 9 -51
25 -112z"/>
<path d="M5094 3065 c1 -49 -2 -115 -6 -145 -5 -41 -5 -48 3 -25 15 47 21 166
11 215 -8 39 -9 33 -8 -45z"/>
<path d="M5135 3094 c-7 -59 1 -165 16 -199 5 -12 6 -5 2 20 -4 22 -7 84 -7
138 0 53 0 97 -2 97 -1 0 -5 -25 -9 -56z"/>
<path d="M6170 3108 c-63 -145 -65 -377 -4 -546 25 -69 26 -43 2 54 -32 129
-31 314 3 442 14 50 23 92 21 92 -1 0 -12 -19 -22 -42z"/>
<path d="M4790 2695 c0 -3 37 -23 83 -45 159 -78 189 -145 216 -485 l8 -100 1
115 c3 255 -46 402 -150 456 -42 22 -158 65 -158 59z"/>
<path d="M5365 2668 c-101 -40 -163 -98 -188 -178 -23 -72 -37 -202 -36 -320
l2 -95 8 80 c38 375 54 412 209 490 49 25 90 47 90 50 0 6 8 9 -85 -27z"/>
<path d="M4322 2463 c-1 -13 -22 -86 -47 -163 -25 -77 -44 -155 -44 -173 1
-21 3 -25 6 -12 3 11 25 83 50 159 29 92 43 152 40 175 -2 20 -4 26 -5 14z"/>
<path d="M5915 2435 c2 -27 20 -97 39 -155 19 -58 38 -122 41 -143 4 -20 11
-40 16 -42 14 -10 -2 68 -41 190 -21 66 -43 138 -49 160 l-11 40 5 -50z"/>
<path d="M6140 2314 c0 -10 7 -48 16 -84 8 -36 16 -88 17 -116 2 -58 17 -50
17 9 0 35 -36 196 -46 206 -2 2 -4 -4 -4 -15z"/>
<path d="M4070 2228 c-18 -72 -21 -104 -14 -134 l8 -39 3 45 c2 25 10 82 20
128 23 114 10 114 -17 0z"/>
<path d="M4801 2187 c-13 -70 -21 -130 -18 -133 3 -4 8 4 11 17 3 13 12 59 21
101 9 43 15 92 13 110 -2 21 -11 -12 -27 -95z"/>
<path d="M5411 2287 c-1 -32 37 -229 46 -237 9 -8 -7 96 -27 185 -10 44 -19
67 -19 52z"/>
<path d="M3908 2217 c-10 -40 -17 -93 -17 -118 2 -31 3 -35 6 -14 2 17 10 60
19 96 9 37 14 77 12 88 -2 12 -11 -12 -20 -52z"/>
<path d="M6311 2270 c0 -14 4 -43 10 -65 5 -22 14 -65 18 -95 l8 -55 1 50 c1
28 -8 82 -18 120 -10 39 -19 59 -19 45z"/>
<path d="M4541 2174 c-13 -52 -21 -97 -19 -100 7 -7 51 161 47 179 -2 9 -15
-27 -28 -79z"/>
<path d="M5671 2254 c-1 -26 38 -176 49 -188 9 -9 3 19 -29 139 -11 39 -20 61
-20 49z"/>
</g>
</svg>
