<?xml version="1.0" standalone="no"?>
<!DOCTYPE svg PUBLIC "-//W3C//DTD SVG 20010904//EN"
 "http://www.w3.org/TR/2001/REC-SVG-20010904/DTD/svg10.dtd">
<svg version="1.0" xmlns="http://www.w3.org/2000/svg"
 width="1024.000000pt" height="559.000000pt" viewBox="0 0 1024.000000 559.000000"
 preserveAspectRatio="xMidYMid meet">
<metadata>
Created by potrace 1.16, written by Peter Selinger 2001-2019
</metadata>
<g transform="translate(0.000000,559.000000) scale(0.100000,-0.100000)"
fill="#000000" stroke="none">
<path d="M5842 4844 c-41 -21 -71 -72 -113 -192 l-32 -94 -31 6 c-171 35 -250
41 -551 41 -277 0 -323 -3 -435 -23 -342 -61 -480 -127 -515 -245 -17 -59 -20
-241 -5 -284 6 -15 25 -40 43 -55 26 -21 30 -29 20 -39 -19 -20 -15 -78 7
-115 19 -30 20 -36 7 -66 -8 -18 -38 -62 -67 -98 -74 -92 -97 -130 -124 -212
-43 -129 -48 -241 -44 -1108 4 -889 1 -851 70 -987 121 -243 532 -393 1073
-393 291 0 522 41 725 129 155 68 248 149 305 266 66 135 65 126 65 1048 0
866 -3 928 -44 1063 -17 54 -67 134 -140 223 -57 70 -62 91 -35 148 19 38 20
50 11 81 -11 33 -9 38 23 74 l35 38 0 128 c0 70 -5 144 -11 165 -14 51 -57 97
-123 132 l-55 29 21 40 c37 73 68 166 68 206 0 78 -79 128 -148 94z m89 -45
c38 -38 22 -105 -65 -284 l-75 -155 -43 0 c-76 0 -76 1 -23 161 26 79 60 171
75 205 40 90 88 116 131 73z m-408 -253 c147 -22 159 -25 155 -44 -2 -10 -12
-16 -23 -15 -11 2 -51 7 -90 13 -38 5 -115 9 -170 8 l-100 -1 120 -13 c143
-15 245 -33 245 -44 0 -16 -22 -70 -29 -70 -4 0 -12 5 -19 12 -6 6 -15 8 -19
4 -13 -12 13 -41 48 -53 44 -15 161 -16 194 -1 27 12 32 24 14 30 -12 4 25 88
39 88 20 -1 108 -59 126 -83 19 -26 19 -30 6 -55 -30 -54 -156 -119 -304 -156
-184 -48 -521 -73 -749 -57 -368 27 -594 82 -708 172 -134 106 100 221 561
278 112 14 586 5 703 -13z m-1294 -290 c51 -54 227 -119 407 -150 185 -31 305
-41 504 -41 273 1 477 26 660 81 100 31 140 50 203 98 l47 36 0 -58 c0 -51 -4
-62 -27 -84 -37 -35 -131 -81 -223 -108 -129 -39 -120 -54 12 -21 81 21 186
69 207 95 19 23 31 20 31 -9 0 -117 -331 -225 -780 -254 -339 -22 -773 44
-981 150 -68 34 -99 70 -99 115 0 36 10 43 29 21 11 -14 89 -55 151 -80 62
-25 176 -48 216 -45 36 3 34 4 -36 21 -111 27 -198 56 -263 89 -83 41 -97 58
-97 118 0 28 4 50 8 50 5 0 19 -11 31 -24z m256 -379 c229 -59 394 -79 640
-80 196 0 349 14 522 49 121 24 252 63 306 90 30 16 36 5 10 -18 -75 -66 -270
-123 -528 -153 -229 -26 -258 -35 -105 -29 260 9 525 72 626 149 39 30 45 31
37 8 -31 -88 -228 -163 -533 -205 -138 -19 -534 -16 -685 5 -240 34 -433 96
-497 162 -32 32 -41 70 -10 42 66 -59 317 -138 434 -136 46 1 49 2 23 9 -16 5
-66 16 -110 25 -175 34 -345 105 -353 147 -3 15 6 13 60 -11 35 -16 108 -40
163 -54z m-122 -122 c173 -80 421 -119 765 -119 157 -1 241 -5 238 -11 -29
-74 -164 -403 -194 -475 l-40 -95 -58 -2 c-133 -6 -355 -25 -444 -39 -251 -39
-450 -113 -498 -184 l-23 -34 3 -611 c4 -667 3 -657 65 -762 29 -50 123 -139
184 -175 95 -56 274 -107 489 -140 112 -17 458 -17 575 0 196 30 378 86 476
148 35 22 57 44 44 44 -3 0 -37 -16 -75 -35 -95 -48 -192 -79 -345 -111 -122
-26 -147 -28 -385 -28 -225 0 -269 2 -374 23 -175 33 -279 66 -391 122 -92 46
-103 54 -136 107 -102 160 -99 135 -99 769 l0 542 60 -35 c89 -54 227 -97 411
-128 l36 -6 -29 -58 c-24 -46 -29 -65 -24 -102 3 -25 10 -81 15 -126 13 -108
30 -145 86 -185 25 -19 69 -54 98 -78 127 -106 216 -96 344 39 37 40 87 85
110 101 58 40 83 86 94 172 5 39 18 95 28 122 11 28 21 59 23 70 3 16 14 21
63 28 224 29 341 52 462 93 65 22 139 60 163 84 20 20 20 18 23 -347 4 -681 3
-729 -21 -808 -13 -41 -41 -98 -66 -135 -50 -71 -52 -89 -6 -45 46 44 79 106
100 192 19 71 20 113 20 668 l0 592 -23 34 c-60 90 -373 183 -690 205 -54 4
-99 10 -101 13 -6 9 244 605 257 613 6 3 31 9 56 13 73 11 209 53 272 85 l59
29 15 -35 c8 -19 41 -67 74 -107 96 -117 125 -190 141 -354 13 -137 13 -1663
0 -1739 -22 -120 -60 -196 -139 -275 -112 -112 -287 -186 -560 -236 -139 -26
-554 -26 -696 0 -463 85 -657 208 -732 463 -15 53 -17 135 -21 793 -5 1119 -1
1152 162 1356 31 39 62 85 68 103 7 17 13 32 14 32 0 0 35 -16 77 -35z m1157
-105 c0 -6 -34 -91 -76 -188 -84 -196 -202 -481 -241 -584 l-25 -67 -45 22
c-30 15 -43 26 -39 37 9 30 313 760 318 765 4 5 64 19 101 24 4 1 7 -4 7 -9z
m-410 -640 c0 -5 -12 -39 -26 -75 l-26 -65 -59 1 c-67 1 -99 -17 -99 -58 0
-12 -4 -23 -10 -23 -24 0 -6 -20 38 -41 42 -21 60 -24 177 -23 135 0 184 11
216 50 13 16 12 17 -11 10 -54 -16 -66 -17 -84 -3 -18 13 -17 18 25 120 l43
107 41 0 c72 0 288 -28 389 -50 183 -40 287 -82 342 -137 38 -38 41 -53 19
-87 -56 -85 -278 -156 -615 -198 -154 -19 -582 -16 -744 6 -387 50 -623 153
-578 250 27 61 188 130 392 170 199 39 570 69 570 46z m15 -211 c36 -17 65
-36 65 -42 0 -11 -214 -4 -242 8 -21 8 -24 45 -5 64 20 21 109 6 182 -30z
m-406 -327 c7 -20 15 -43 17 -49 4 -8 -2 -13 -15 -13 -11 0 -23 -5 -27 -11
-11 -19 -8 -88 5 -103 10 -12 10 -22 0 -49 -10 -28 -10 -41 1 -66 26 -63 114
-121 217 -142 74 -15 120 -1 135 42 7 20 18 29 42 33 45 9 70 37 64 76 -4 28
-2 31 33 40 60 17 87 77 58 131 -8 17 -5 25 20 48 19 17 31 39 31 54 0 20 6
26 33 30 17 3 35 2 39 -2 3 -3 -4 -32 -17 -64 -13 -32 -28 -89 -34 -126 -11
-84 -30 -122 -79 -158 -20 -15 -71 -62 -112 -104 -78 -80 -103 -97 -158 -110
-48 -10 -95 6 -149 53 -27 23 -69 54 -94 70 -77 47 -86 72 -106 291 -6 65 8
121 39 163 16 21 45 3 57 -34z m220 18 c86 -10 226 -72 260 -117 23 -29 28
-85 9 -101 -30 -24 -82 -17 -145 21 -65 38 -172 86 -235 107 -40 12 -78 55
-78 88 0 22 7 22 189 2z m331 -17 c0 -22 -29 -53 -50 -53 -9 0 -45 16 -80 35
l-65 35 98 0 c84 0 97 -2 97 -17z m-429 -113 c101 -32 262 -121 277 -153 17
-36 5 -52 -44 -60 -29 -5 -43 -1 -70 19 -35 27 -204 104 -228 104 -22 0 -56
49 -56 81 0 25 4 29 29 29 16 0 57 -9 92 -20z m31 -160 c115 -51 150 -76 146
-104 -3 -18 -11 -21 -52 -24 -98 -6 -236 75 -236 139 0 25 4 29 26 29 15 0 66
-18 116 -40z"/>
<path d="M4725 4505 c-199 -24 -364 -80 -387 -130 -9 -19 -7 -29 6 -51 54 -82
429 -154 801 -154 360 0 730 79 759 162 5 14 5 34 1 44 -8 17 -9 16 -13 -6 -6
-38 -28 -57 -101 -84 -149 -55 -294 -76 -566 -83 -374 -10 -717 36 -828 111
-44 30 -45 51 -5 76 87 54 298 93 587 110 96 5 176 12 179 15 10 10 -334 3
-433 -10z"/>
<path d="M4700 3981 c24 -14 130 -25 130 -13 0 14 -36 22 -95 22 -33 -1 -45
-4 -35 -9z"/>
<path d="M4241 3595 c-35 -48 -74 -112 -87 -143 -24 -62 -44 -207 -44 -324 1
-107 16 -64 25 67 11 182 41 277 115 370 38 47 62 93 58 106 -2 5 -32 -29 -67
-76z"/>
<path d="M5970 3604 c0 -3 13 -24 29 -47 68 -101 93 -180 111 -356 6 -58 13
-107 16 -110 13 -12 -5 235 -21 294 -20 75 -60 154 -97 194 -28 30 -38 37 -38
25z"/>
<path d="M4556 3555 c-9 -9 -19 -27 -22 -40 -6 -23 -7 -24 -35 -10 -34 18 -91
19 -107 3 -38 -38 21 -133 98 -158 l40 -13 -36 -30 c-38 -32 -53 -61 -60 -118
l-4 -36 53 -13 c44 -10 62 -10 93 0 49 16 101 54 109 80 5 17 12 20 40 14 57
-10 94 52 64 108 -13 25 -1 39 35 41 14 1 24 7 23 12 -7 19 -40 17 -68 -4 -28
-21 -29 -21 -29 -2 0 11 12 29 27 40 29 24 26 36 -7 26 -12 -4 -28 -22 -36
-41 -8 -19 -21 -34 -29 -34 -7 0 -21 -10 -29 -22 -9 -12 -16 -20 -17 -18 0 3
-1 42 -2 87 -2 65 -6 87 -23 110 -25 33 -55 40 -78 18z m60 -30 c18 -27 32
-155 18 -155 -12 1 -67 79 -75 105 -8 27 10 75 27 75 7 0 21 -11 30 -25z
m-108 -54 c22 -17 55 -51 73 -77 l32 -47 -46 6 c-59 8 -119 38 -146 73 -21 27
-27 55 -14 67 15 16 63 5 101 -22z m240 -127 c23 -16 31 -67 11 -79 -39 -25
-95 47 -63 80 19 19 24 19 52 -1z m-158 -48 c0 -13 11 -40 25 -60 21 -31 22
-38 10 -43 -32 -12 -86 74 -71 112 9 24 36 18 36 -9z m77 -3 c10 -30 6 -63 -6
-63 -14 0 -38 34 -45 63 -6 24 -3 27 18 27 17 0 27 -8 33 -27z m-137 -26 c0
-24 24 -64 49 -83 13 -10 11 -13 -8 -19 -28 -8 -43 4 -66 55 -15 32 -15 42 -5
55 18 22 30 19 30 -8z m-41 -72 c22 -37 21 -41 -10 -25 -11 6 -19 21 -19 35 0
33 4 32 29 -10z"/>
<path d="M4870 1480 c-234 -16 -436 -65 -484 -119 -24 -26 -16 -27 34 -1 131
67 384 104 710 104 356 0 612 -43 679 -115 17 -19 21 -20 21 -6 0 104 -463
170 -960 137z"/>
<path d="M5237 3067 c-56 -135 -65 -163 -48 -153 12 8 113 265 109 278 -2 6
-30 -50 -61 -125z"/>
<path d="M5450 2943 c0 -5 44 -15 97 -22 83 -11 196 -38 278 -67 18 -6 18 -5
-2 10 -29 22 -92 44 -173 61 -95 19 -200 29 -200 18z"/>
<path d="M4587 2925 c-156 -26 -293 -80 -317 -125 -21 -38 -10 -54 13 -19 33
49 105 80 257 113 216 46 208 44 165 44 -22 0 -75 -6 -118 -13z"/>
<path d="M4777 2856 c-72 -26 -96 -68 -62 -112 14 -18 15 -17 10 16 -7 41 7
58 65 80 72 27 60 42 -13 16z"/>
<path d="M5365 2840 c3 -5 12 -10 19 -10 20 0 46 -34 46 -59 0 -17 -14 -28
-65 -53 -76 -35 -79 -48 -7 -24 63 21 92 49 92 87 0 22 -8 34 -32 49 -35 21
-63 27 -53 10z"/>
<path d="M4790 2763 c0 -16 32 -41 83 -63 54 -24 194 -43 217 -29 11 6 6 8
-17 9 -80 0 -228 44 -265 77 -10 9 -18 12 -18 6z"/>
<path d="M5875 2730 c-15 -24 -118 -65 -240 -96 -107 -28 -119 -33 -70 -28
132 12 269 60 315 109 13 14 18 25 12 25 -6 0 -14 -5 -17 -10z"/>
<path d="M4780 2656 c0 -10 78 -42 118 -50 55 -10 35 9 -30 29 -35 10 -69 20
-75 23 -7 2 -13 1 -13 -2z"/>
<path d="M5261 2631 c-13 -11 -36 -23 -52 -26 -48 -11 -48 -29 0 -22 48 6 91
31 91 52 0 20 -13 19 -39 -4z"/>
<path d="M4980 2376 c0 -5 135 -78 163 -89 9 -3 17 -3 17 2 0 5 -36 27 -79 50
-72 37 -101 48 -101 37z"/>
<path d="M4950 2236 c0 -6 105 -66 115 -66 16 0 -20 32 -56 51 -37 18 -59 24
-59 15z"/>
</g>
</svg>
