<?xml version="1.0" standalone="no"?>
<!DOCTYPE svg PUBLIC "-//W3C//DTD SVG 20010904//EN"
 "http://www.w3.org/TR/2001/REC-SVG-20010904/DTD/svg10.dtd">
<svg version="1.0" xmlns="http://www.w3.org/2000/svg"
 width="1024.000000pt" height="559.000000pt" viewBox="0 0 1024.000000 559.000000"
 preserveAspectRatio="xMidYMid meet">
<metadata>
Created by potrace 1.16, written by Peter Selinger 2001-2019
</metadata>
<g transform="translate(0.000000,559.000000) scale(0.100000,-0.100000)"
fill="#000000" stroke="none">
<path d="M4670 4325 c-625 -76 -1106 -269 -1540 -619 -89 -71 -263 -239 -293
-281 l-21 -30 25 20 c13 11 51 45 84 75 197 179 470 368 705 485 52 26 93 45
90 42 -3 -3 -45 -32 -95 -65 -217 -145 -390 -316 -689 -682 -65 -80 -155 -183
-200 -229 -45 -46 -67 -75 -50 -63 53 36 186 172 329 337 393 453 673 677
1016 814 263 105 753 171 1174 157 344 -10 669 -60 930 -143 197 -62 513 -223
708 -361 215 -152 519 -444 710 -680 59 -74 107 -131 107 -128 0 11 -161 229
-233 316 -206 247 -522 513 -771 650 -164 90 -63 54 152 -54 202 -101 549
-324 725 -465 48 -39 87 -66 87 -62 0 27 -262 243 -445 367 -501 339 -1032
529 -1672 599 -176 19 -677 19 -833 0z"/>
<path d="M4855 3709 c-436 -32 -789 -143 -1095 -347 -156 -103 -214 -153 -440
-376 -217 -214 -254 -243 -475 -381 -227 -141 -290 -219 -265 -329 10 -45 49
-89 105 -119 37 -20 59 -22 330 -28 160 -3 306 -11 325 -16 64 -18 174 -65
303 -130 182 -91 271 -128 442 -185 378 -124 678 -172 1080 -172 286 0 429 17
661 78 545 143 1156 562 1339 918 l39 75 84 -55 c101 -66 198 -108 267 -116
42 -5 46 -4 25 5 -188 84 -295 159 -540 379 -242 217 -397 331 -617 458 -462
264 -1005 382 -1568 341z m502 -64 c138 -15 386 -61 444 -83 60 -23 185 -188
254 -336 71 -151 90 -242 89 -436 0 -137 -4 -178 -22 -242 -109 -396 -385
-664 -781 -760 -128 -31 -332 -29 -462 5 -127 33 -230 77 -317 135 -246 164
-403 401 -458 689 -19 103 -15 297 9 403 41 180 139 360 267 490 l85 87 80 16
c44 9 130 21 190 27 61 6 119 13 130 14 64 10 367 4 492 -9z m-1066 -148
c-126 -152 -213 -342 -242 -527 -15 -99 -6 -355 16 -435 43 -161 97 -271 197
-402 348 -461 1008 -561 1485 -224 229 162 383 401 439 680 21 107 15 373 -11
466 -44 159 -98 274 -180 384 -31 40 -54 76 -51 78 6 7 195 -70 311 -127 208
-101 427 -247 615 -411 58 -50 145 -125 193 -166 83 -72 87 -78 81 -107 -21
-101 -253 -362 -454 -512 -280 -209 -600 -364 -919 -444 -228 -57 -309 -65
-621 -64 -234 0 -312 4 -435 22 -386 54 -682 146 -1042 322 -100 48 -221 101
-269 117 -84 27 -89 30 -130 86 -83 112 -118 218 -118 352 0 158 -1 157 227
382 282 279 457 404 727 518 67 29 219 83 233 84 5 1 -19 -32 -52 -72z m-1156
-784 c-4 -10 -10 -57 -13 -105 -7 -142 35 -283 116 -386 l30 -37 -252 1 c-280
1 -308 6 -356 60 -74 85 -13 175 210 309 59 36 110 65 113 65 2 0 0 -21 -5
-47 -10 -55 -3 -120 18 -166 11 -22 13 -24 8 -7 -3 14 -8 57 -11 95 -6 95 9
133 77 189 59 48 76 56 65 29z"/>
<path d="M5043 3279 c-155 -27 -291 -127 -359 -264 -162 -327 73 -708 436
-708 143 0 258 51 359 158 136 144 170 371 81 545 -24 47 -36 50 -45 13 -12
-56 -71 -103 -128 -103 -98 0 -168 92 -138 183 15 43 45 71 95 87 l39 13 -24
18 c-60 45 -221 75 -316 58z m146 -50 c36 -5 68 -12 72 -14 4 -3 -6 -19 -22
-36 -69 -74 -59 -195 21 -263 71 -59 174 -59 239 -1 l38 34 11 -50 c47 -201
-50 -405 -236 -499 -325 -164 -697 131 -621 492 40 187 218 336 414 347 11 0
49 -4 84 -10z"/>
<path d="M7290 2527 c-49 -73 -325 -347 -450 -447 -383 -305 -803 -485 -1315
-562 -140 -20 -625 -17 -790 5 -425 59 -738 158 -1189 377 -258 125 -227 100
84 -65 338 -181 697 -295 1100 -351 151 -21 581 -30 720 -15 676 73 1254 360
1694 842 89 98 208 271 184 269 -2 0 -19 -24 -38 -53z"/>
</g>
</svg>
