<?xml version="1.0" standalone="no"?>
<!DOCTYPE svg PUBLIC "-//W3C//DTD SVG 20010904//EN"
 "http://www.w3.org/TR/2001/REC-SVG-20010904/DTD/svg10.dtd">
<svg version="1.0" xmlns="http://www.w3.org/2000/svg"
 width="1024.000000pt" height="559.000000pt" viewBox="0 0 1024.000000 559.000000"
 preserveAspectRatio="xMidYMid meet">
<metadata>
Created by potrace 1.16, written by Peter Selinger 2001-2019
</metadata>
<g transform="translate(0.000000,559.000000) scale(0.100000,-0.100000)"
fill="#000000" stroke="none">
<path d="M4775 5055 c-181 -62 -436 -150 -565 -195 -129 -45 -305 -105 -390
-135 -85 -29 -220 -76 -300 -103 -715 -248 -979 -337 -1760 -599 -272 -91
-499 -169 -503 -173 -13 -11 -9 -381 4 -396 6 -7 8 -18 4 -23 -3 -6 2 -18 12
-28 38 -39 39 -57 31 -448 l-9 -380 -30 -26 c-42 -37 -69 -95 -69 -150 0 -57
7 -64 135 -124 200 -94 283 -134 450 -215 94 -45 278 -134 410 -197 309 -148
447 -215 620 -298 77 -37 181 -86 230 -110 50 -23 205 -98 345 -165 140 -68
314 -151 385 -185 240 -115 629 -304 950 -460 110 -54 246 -119 303 -146 l102
-48 123 58 c67 32 244 118 392 191 149 73 356 174 460 225 105 51 404 197 665
325 261 128 538 263 615 300 77 37 235 114 350 170 116 56 282 137 370 180 88
43 255 124 370 180 116 56 289 140 385 187 96 46 178 90 182 96 11 18 10 95
-2 102 -5 3 -10 19 -10 35 0 22 -7 33 -28 44 -51 26 -52 33 -54 449 l-3 388
25 19 25 19 -1 216 c-1 118 -3 218 -6 220 -3 3 -367 126 -809 274 -442 148
-889 299 -994 335 -104 35 -282 96 -395 134 -113 39 -331 114 -485 167 -154
53 -291 101 -305 105 -14 4 -155 53 -315 108 -159 55 -342 118 -405 140 -64
22 -129 42 -145 45 -22 4 -117 -24 -360 -108z m547 19 c309 -105 703 -240
1118 -384 539 -186 1084 -371 1820 -617 355 -118 651 -218 658 -222 7 -4 -115
-61 -290 -134 -167 -69 -411 -172 -543 -227 -132 -56 -469 -199 -750 -317
-576 -243 -925 -391 -1035 -438 -85 -37 -301 -128 -630 -268 -124 -53 -297
-127 -385 -165 -149 -65 -162 -69 -190 -57 -16 7 -205 87 -420 178 -680 288
-2256 951 -2430 1022 -44 18 -258 107 -475 197 -217 91 -410 171 -428 178 -18
7 -29 16 -25 20 4 4 159 58 343 120 798 268 1418 478 1795 610 66 23 138 47
160 55 22 7 146 50 275 95 129 45 298 104 375 130 389 134 697 240 760 263 39
14 77 25 87 26 9 1 103 -29 210 -65z m-3757 -1374 c149 -61 353 -147 455 -190
165 -69 399 -167 635 -265 134 -56 1275 -535 1345 -565 36 -15 223 -94 415
-175 193 -81 388 -164 435 -185 47 -21 121 -52 165 -70 44 -18 83 -36 88 -40
4 -3 6 -95 5 -203 l-3 -197 -61 29 -61 29 -12 63 c-19 100 -71 198 -136 257
-57 53 -141 92 -196 92 -74 0 -149 -67 -169 -152 -7 -27 -15 -48 -19 -46 -143
61 -140 59 -147 97 -32 199 -147 350 -290 382 -46 10 -60 10 -99 -5 -54 -21
-98 -72 -115 -132 -14 -50 -12 -50 -104 -9 l-52 23 -11 66 c-17 97 -62 187
-130 255 -138 137 -300 117 -354 -44 -7 -22 -14 -41 -15 -43 0 -1 -30 11 -66
27 l-66 29 -10 61 c-23 129 -111 259 -205 301 -61 28 -143 26 -188 -4 -31 -22
-42 -38 -75 -123 l-9 -21 -65 31 c-64 32 -65 33 -72 80 -15 106 -106 245 -188
287 -112 57 -219 14 -250 -100 -12 -43 -5 -43 -95 -5 -46 20 -55 30 -55 67 0
15 -9 52 -20 82 -45 120 -132 196 -224 196 -32 0 -62 -7 -82 -19 -32 -19 -64
-74 -64 -109 0 -32 -10 -32 -70 -3 l-55 26 -3 174 c-2 137 0 172 10 168 7 -3
135 -56 283 -117z m7405 27 c0 -52 3 -128 6 -170 l7 -77 -57 -25 c-31 -14 -58
-25 -60 -25 -1 0 -8 19 -15 42 -25 84 -67 118 -142 118 -65 0 -132 -42 -179
-113 -40 -59 -70 -139 -70 -184 0 -20 -12 -29 -66 -54 -36 -17 -67 -29 -68
-27 -1 2 -8 21 -14 43 -23 77 -73 115 -152 115 -128 0 -246 -125 -282 -300
l-13 -63 -63 -28 c-35 -16 -65 -29 -67 -29 -2 0 -7 15 -10 33 -12 53 -45 98
-89 118 -83 37 -169 15 -252 -66 -62 -61 -97 -128 -120 -233 -16 -73 -17 -74
-61 -93 -84 -36 -87 -35 -100 13 -23 86 -79 128 -170 128 -144 -1 -288 -165
-318 -362 -7 -46 -7 -46 -76 -77 -48 -21 -71 -27 -73 -18 -48 167 -143 215
-289 147 -102 -48 -192 -182 -218 -323 l-13 -69 -70 -33 c-39 -18 -74 -31 -78
-28 -5 2 -8 15 -8 29 0 52 -44 116 -102 145 -45 23 -83 24 -145 3 -132 -45
-241 -192 -260 -354 -5 -46 -6 -47 -67 -73 -33 -15 -64 -27 -69 -27 -4 0 -6
90 -5 201 l3 201 70 30 c213 91 1081 460 1540 655 660 279 971 411 1240 525
116 50 269 114 340 143 72 30 236 99 365 153 129 55 243 100 253 101 15 1 17
-10 17 -92z m-194 -182 c22 -14 54 -72 54 -98 0 -14 -5 -14 -45 -1 -39 14 -46
21 -55 54 -6 22 -15 42 -20 45 -6 3 -10 11 -10 16 0 12 47 1 76 -16z m-7226 7
c0 -4 -4 -12 -9 -17 -5 -6 -13 -25 -18 -44 -7 -28 -17 -37 -57 -53 l-49 -19 7
33 c3 17 13 43 22 56 21 32 104 68 104 44z m7144 -30 c7 -15 17 -46 21 -70 4
-26 15 -48 28 -57 l22 -16 -3 -392 c-2 -215 -6 -395 -10 -398 -4 -4 -74 22
-157 57 -82 34 -154 65 -159 66 -12 5 -27 411 -16 422 6 6 10 17 10 26 0 8 8
20 19 27 12 7 22 33 30 75 26 144 78 241 150 279 39 21 46 19 65 -19z m-7075
14 c71 -37 131 -142 152 -266 9 -58 18 -80 36 -95 28 -23 29 -27 25 -285 l-2
-175 -164 -66 -164 -66 -6 101 c-3 56 -7 230 -9 388 -2 279 -1 287 19 310 12
12 27 46 33 73 12 47 35 95 47 95 3 0 18 -7 33 -14z m-230 -143 c1 -1 0 -6 -3
-12 -9 -14 -96 28 -96 46 0 9 14 6 48 -9 26 -13 49 -24 51 -25z m7571 32 c-23
-22 -88 -46 -95 -35 -6 10 67 48 95 49 13 1 13 -1 0 -14z m-142 -16 c43 -16
22 -28 -23 -12 -25 8 -45 19 -45 25 0 9 17 6 68 -13z m-7313 3 c-6 -5 -29 -16
-52 -25 -50 -20 -59 -4 -10 17 36 16 76 21 62 8z m-75 -61 c17 6 33 9 36 6 3
-3 -11 -10 -30 -17 -27 -9 -44 -9 -71 0 -19 6 -35 15 -35 20 0 5 15 3 34 -5
27 -11 41 -12 66 -4z m7425 6 c6 0 24 3 40 7 25 6 28 5 17 -6 -7 -7 -33 -13
-57 -13 -24 0 -50 6 -57 13 -11 11 -8 12 17 6 16 -4 34 -7 40 -7z m-641 -21
c46 -19 102 -116 67 -116 -23 0 -82 33 -87 48 -3 9 -12 32 -20 50 -15 36 -9
39 40 18z m-6143 -42 c-13 -40 -23 -50 -59 -66 -24 -11 -46 -17 -49 -14 -11
11 20 72 50 99 17 15 41 27 53 27 21 0 21 0 5 -46z m116 16 c80 -46 93 -71 93
-178 0 -49 -3 -123 -6 -165 l-7 -75 -119 -48 c-65 -26 -120 -45 -122 -43 -8 8
-9 305 -1 332 4 15 15 32 25 37 10 5 21 26 25 47 8 46 41 123 52 123 4 0 31
-14 60 -30z m5962 8 c6 -13 18 -47 26 -77 8 -30 21 -59 30 -64 32 -17 37 -58
30 -223 l-7 -161 -124 50 -124 50 0 176 0 177 28 26 c35 33 93 68 113 68 9 0
21 -10 28 -22z m765 -103 c3 -60 8 -229 11 -374 6 -239 5 -265 -11 -282 -19
-21 -67 -25 -109 -9 l-26 10 6 203 c3 111 8 283 11 382 l6 180 53 0 53 0 6
-110z m-7459 80 c2 -11 7 -183 10 -382 7 -356 6 -362 -13 -372 -26 -14 -77
-14 -103 -1 -18 10 -19 23 -19 199 0 103 3 275 6 382 l7 194 54 0 c46 0 54 -3
58 -20z m6995 -73 c0 -9 -20 -20 -87 -48 -27 -12 -33 -12 -33 -1 0 7 21 23 48
34 52 23 72 27 72 15z m-6581 -23 c45 -19 67 -39 42 -39 -17 0 -99 38 -105 49
-10 16 5 14 63 -10z m6439 -28 c5 -15 2 -14 -52 9 -25 12 -46 25 -46 30 0 11
93 -25 98 -39z m-6258 34 c0 -5 -49 -31 -85 -45 -18 -7 -25 -6 -25 3 0 6 21
19 48 28 53 19 62 21 62 14z m5901 -314 c3 -328 6 -313 -71 -309 l-45 3 0 157
c0 150 1 157 23 181 13 14 25 36 28 48 2 13 6 40 10 59 7 43 45 163 50 158 2
-2 4 -136 5 -297z m-5617 228 c8 -26 20 -78 27 -115 8 -49 17 -74 33 -86 20
-16 21 -25 21 -175 l0 -158 -34 -3 c-19 -2 -44 -1 -57 2 l-24 6 0 297 c0 177
4 293 9 288 5 -6 16 -31 25 -56z m6057 27 c-18 -22 -67 -29 -107 -16 -44 15
-38 25 8 12 25 -7 43 -6 64 3 39 18 49 18 35 1z m-6470 -14 c20 -2 46 1 58 7
12 7 21 8 21 2 0 -15 -67 -33 -99 -26 -16 3 -36 14 -43 23 -11 14 -11 15 7 7
11 -4 36 -10 56 -13z m6473 -237 c16 -605 17 -574 -5 -596 -24 -24 -86 -25
-118 -2 l-24 16 7 385 c4 211 10 390 12 396 2 6 29 11 63 11 l59 0 6 -210z
m-6400 -5 c3 -113 9 -289 12 -391 5 -164 4 -187 -10 -202 -24 -24 -79 -31
-113 -15 -25 12 -28 19 -31 73 -2 33 -1 213 3 400 l7 340 63 0 63 0 6 -205z
m686 197 c0 -1 -9 -20 -20 -42 -11 -22 -20 -44 -20 -51 0 -10 -80 -48 -87 -41
-7 7 18 71 34 90 21 23 93 58 93 44z m4957 -17 c32 -19 63 -66 63 -95 0 -12
-6 -15 -22 -9 -56 17 -65 24 -77 61 -7 21 -15 44 -17 51 -8 18 17 15 53 -8z
m-4907 -129 l0 -140 -36 -29 c-53 -44 -45 -69 36 -109 l65 -32 -69 -30 c-37
-17 -79 -34 -91 -37 l-23 -6 -4 144 c-4 141 5 201 32 210 6 2 17 30 26 63 8
33 24 67 34 76 11 9 16 19 13 23 -4 3 -1 6 5 6 9 0 12 -40 12 -139z m4770 -3
c0 -160 -7 -178 -67 -178 -67 0 -73 10 -73 114 0 80 3 97 22 121 22 29 95 85
110 85 4 0 8 -64 8 -142z m-4681 102 c65 -47 81 -82 81 -172 0 -68 -3 -79 -22
-92 -27 -19 -78 -21 -102 -3 -15 11 -18 32 -19 155 -1 98 1 142 9 142 6 0 30
-14 53 -30z m4744 5 c8 -7 18 -35 21 -60 5 -30 16 -53 34 -70 22 -20 27 -35
30 -90 2 -36 1 -112 -3 -169 l-7 -103 -84 36 c-46 19 -84 38 -84 41 0 4 27 19
60 35 32 15 61 34 64 41 6 16 -4 54 -15 54 -4 0 -20 12 -34 27 -24 27 -25 33
-25 150 0 100 3 123 14 123 8 0 21 -7 29 -15z m-5080 -115 c28 -14 37 -30 15
-29 -23 1 -101 44 -106 57 -4 13 12 8 91 -28z m5377 31 c0 -8 -102 -61 -116
-61 -2 0 -4 6 -4 13 0 6 24 22 53 34 59 25 67 27 67 14z m-142 -50 c2 -7 -14
-5 -44 6 -26 10 -49 23 -51 30 -3 7 12 5 44 -7 26 -10 49 -23 51 -29z m-5088
25 c-24 -21 -103 -49 -98 -34 3 7 25 21 49 30 54 21 68 22 49 4z m4703 -73
c-5 -53 -24 -93 -43 -93 -5 0 -4 18 1 41 11 45 35 109 43 109 2 0 2 -26 -1
-57z m-4383 -20 c11 -36 18 -68 16 -70 -2 -2 -13 5 -24 17 -20 21 -36 120 -20
120 4 0 16 -30 28 -67z m4857 40 c-19 -20 -119 -25 -137 -7 -8 8 6 9 43 6 30
-2 63 1 73 7 29 16 40 13 21 -6z m-5269 -7 c31 0 47 -3 40 -8 -22 -14 -103 -9
-124 8 -18 14 -18 15 6 7 14 -4 49 -8 78 -7z m-268 -135 l0 -119 -35 -33 c-57
-54 -49 -73 46 -119 69 -33 84 -37 105 -28 13 6 26 9 29 7 2 -3 1 -77 -2 -165
l-6 -160 -171 84 c-94 46 -179 91 -188 99 -16 14 -18 37 -18 194 l0 178 80
-40 c86 -42 90 -43 90 -30 0 5 -38 27 -84 49 -68 32 -85 45 -90 67 -4 15 -3
31 1 35 9 9 223 99 236 100 4 0 7 -54 7 -119z m5840 71 c101 -41 115 -50 118
-72 3 -24 -5 -30 -93 -69 -52 -24 -95 -47 -95 -52 0 -13 2 -12 96 31 48 22 89
40 91 40 2 0 3 -80 2 -177 -2 -176 -2 -176 -28 -201 -23 -22 -334 -182 -353
-182 -4 0 -8 72 -8 160 l0 160 38 -5 c30 -4 50 2 107 32 40 22 71 46 73 56 2
11 -12 32 -37 55 l-41 37 0 118 c0 64 3 117 8 117 4 -1 59 -22 122 -48z m-306
-97 c3 -71 8 -252 10 -401 6 -314 7 -309 -72 -309 -91 0 -86 -27 -78 430 4
220 9 402 11 405 2 3 30 5 63 5 l60 0 6 -130z m-5220 -90 c11 -374 9 -607 -6
-616 -27 -17 -77 -21 -105 -7 l-28 13 -3 160 c-2 88 0 273 3 410 l7 250 63 0
62 0 7 -210z m703 168 c-8 -15 -17 -39 -20 -53 -5 -19 -18 -30 -52 -42 -49
-18 -52 -14 -31 35 15 36 37 59 81 81 36 19 40 15 22 -21z m3662 -20 c-2 -5
-24 -1 -48 10 l-45 19 25 14 c21 11 27 10 48 -11 13 -12 22 -27 20 -32z m62
34 c31 -20 85 -104 74 -115 -9 -10 -95 30 -95 44 0 8 -9 33 -20 54 -24 47 -12
53 41 17z m-3632 4 c11 -7 5 -13 -24 -25 -44 -19 -51 -16 -35 13 11 22 35 27
59 12z m92 -61 c36 -33 41 -41 29 -50 -12 -7 -18 -3 -28 21 -15 36 -34 34 -46
-7 -14 -48 -23 -59 -42 -56 -10 2 -23 -2 -28 -10 -10 -12 -105 -58 -120 -58
-14 0 -4 23 18 43 13 13 28 40 31 61 7 35 13 41 69 67 33 15 64 28 67 29 4 0
26 -18 50 -40z m3436 8 c47 -18 52 -24 62 -64 6 -23 17 -47 25 -51 12 -7 36
-45 36 -57 0 -8 -125 45 -128 55 -2 5 -12 9 -22 9 -32 0 -50 11 -50 32 0 24
-18 58 -30 58 -5 0 -15 -11 -22 -25 -10 -18 -17 -22 -28 -14 -12 7 -7 16 28
50 30 28 48 39 60 34 9 -4 40 -16 69 -27z m507 -15 c29 -4 55 0 76 10 38 19
37 -1 -1 -21 -49 -26 -159 2 -159 41 0 6 9 2 20 -8 10 -9 39 -20 64 -22z
m-4589 -3 c20 0 50 7 66 16 37 19 46 14 19 -11 -27 -25 -97 -31 -143 -12 -20
9 -37 21 -37 27 0 6 11 5 30 -5 16 -8 45 -15 65 -15z m-81 -36 c51 -23 74 -40
65 -49 -7 -6 -129 56 -129 66 0 12 0 12 64 -17z m226 13 c0 -15 -127 -73 -137
-63 -10 10 7 22 72 50 33 14 61 25 63 26 1 0 2 -6 2 -13z m4450 -54 c13 -14
12 -15 -11 -10 -49 12 -119 48 -119 62 0 11 14 8 58 -11 31 -14 64 -32 72 -41z
m150 57 c0 -8 -110 -70 -125 -70 -30 0 84 77 118 80 4 0 7 -4 7 -10z m-4110
-71 c0 -44 -4 -68 -10 -64 -5 3 -10 35 -10 71 0 36 4 64 10 64 6 0 10 -30 10
-71z m3349 9 c-1 -87 -17 -105 -18 -20 -1 42 3 72 9 72 6 0 10 -24 9 -52z
m441 31 c0 -5 -25 -21 -55 -35 -63 -27 -65 -28 -65 -14 0 6 24 21 53 34 60 28
67 30 67 15z m197 5 c-3 -3 -12 -4 -19 -1 -8 3 -5 6 6 6 11 1 17 -2 13 -5z
m-4367 -29 c28 -14 50 -30 50 -35 0 -13 0 -13 -64 15 -31 14 -56 29 -56 35 0
16 17 12 70 -15z m180 15 c0 -10 -38 -32 -85 -50 -18 -7 -25 -6 -25 3 0 10 26
23 108 56 1 1 2 -3 2 -9z m3842 -38 c9 -9 8 -12 -5 -12 -23 0 -97 38 -97 49 0
11 85 -20 102 -37z m-5272 -102 c0 -77 -3 -140 -6 -140 -15 0 -304 153 -299
158 7 7 285 121 298 122 4 0 7 -63 7 -140z m1169 106 c-7 -7 -370 -156 -380
-156 -5 0 -9 8 -9 18 0 13 45 36 183 93 155 66 184 75 196 63 8 -7 13 -15 10
-18z m565 -13 c13 -27 34 -95 46 -153 15 -67 31 -113 44 -128 19 -22 21 -38
24 -203 3 -159 2 -180 -13 -185 -10 -4 -83 25 -188 75 -95 45 -189 89 -209 98
l-38 17 0 88 c0 70 3 90 15 94 8 4 15 13 15 21 0 9 11 26 25 39 48 44 26 119
-29 98 -12 -4 -15 -2 -10 9 3 9 1 24 -5 35 -10 18 -4 23 55 48 l65 28 25 -30
c35 -42 47 -64 34 -64 -5 0 -10 -4 -10 -10 0 -5 20 -10 45 -10 25 0 45 5 45
10 0 6 -7 10 -15 10 -11 0 -7 11 15 42 31 42 38 72 20 83 -6 4 -17 1 -25 -5
-12 -10 -15 -9 -15 8 0 11 6 23 13 25 33 14 48 5 71 -40z m3184 41 c15 -4 22
-14 22 -31 0 -20 -3 -22 -19 -14 -39 21 -42 -20 -5 -75 16 -23 22 -40 15 -42
-27 -9 -7 -22 34 -22 25 0 45 5 45 10 0 6 -4 10 -10 10 -17 0 -10 13 28 58
l38 42 64 -26 c36 -14 67 -28 69 -29 1 -2 -4 -14 -12 -26 -9 -11 -13 -28 -10
-35 4 -10 0 -12 -11 -8 -29 11 -48 -16 -41 -55 3 -20 12 -41 18 -46 7 -6 21
-24 33 -40 18 -26 20 -40 16 -111 l-4 -82 -172 -82 -172 -81 -45 19 -46 20 -6
62 c-16 151 -6 232 34 272 9 9 20 42 24 74 12 95 64 244 85 244 3 0 15 -3 28
-6z m745 -87 c111 -46 147 -66 147 -79 0 -10 -3 -18 -6 -18 -5 0 -376 151
-383 157 -2 1 2 9 9 17 11 14 16 14 48 0 21 -8 103 -43 185 -77z m1083 38 c75
-31 141 -58 146 -61 12 -8 -52 -50 -130 -85 -35 -17 -86 -41 -113 -55 l-49
-24 0 140 c0 77 2 140 5 140 2 0 66 -25 141 -55z m-5154 -39 c10 -19 10 -20
-6 -7 -9 8 -22 24 -28 35 -10 19 -10 20 6 7 9 -8 22 -24 28 -35z m3770 22
c-20 -20 -114 -22 -137 -3 l-20 17 20 -7 c47 -16 84 -16 111 -2 31 16 45 14
26 -5z m263 -72 c99 -41 180 -79 180 -83 0 -4 -30 -23 -67 -40 l-67 -33 -96
45 c-92 42 -95 45 -89 72 7 35 -15 58 -47 50 -34 -9 -49 3 -49 37 0 40 6 47
34 36 11 -5 102 -42 201 -84z m-4421 60 c10 -42 -1 -55 -35 -43 -24 9 -32 8
-46 -6 -14 -14 -15 -22 -6 -46 l11 -29 -106 -45 -105 -45 -61 28 c-34 15 -61
33 -61 40 0 8 74 43 178 86 99 40 182 75 185 78 14 15 40 4 46 -18z m77 2 c20
-7 37 -5 63 6 20 8 36 11 36 5 0 -32 -119 -35 -149 -3 -15 16 -15 16 4 9 11
-4 32 -11 46 -17z m384 -8 c-9 -16 -18 -30 -20 -30 -6 0 6 32 18 48 17 22 18
13 2 -18z m3366 12 c-5 -10 -18 -25 -27 -33 -16 -12 -17 -12 -9 1 10 18 37 50
42 50 2 0 -1 -8 -6 -18z m-96 -13 c10 -30 0 -33 -13 -4 -6 14 -7 25 -2 25 5 0
12 -9 15 -21z m-4382 -36 c41 6 51 -9 12 -19 -29 -7 -71 2 -102 22 -37 24 -26
33 15 12 25 -13 49 -18 75 -15z m5578 6 c-25 -21 -115 -27 -126 -9 -4 6 14 10
47 10 31 0 63 6 74 14 28 21 33 8 5 -15z m-762 -557 c2 -184 -1 -268 -9 -277
-25 -30 -122 -25 -141 7 -9 13 -2 611 7 755 l6 83 36 -6 c21 -3 48 -1 62 4
l25 9 6 -156 c4 -86 7 -274 8 -419z m-4055 558 l53 0 7 -412 8 -413 -22 -17
c-25 -20 -90 -24 -121 -8 -18 10 -19 24 -19 269 0 386 10 593 27 586 8 -3 38
-5 67 -5z m4886 -23 c0 -12 -99 -67 -120 -67 -26 0 -4 21 53 48 34 17 63 31
65 31 1 1 2 -5 2 -12z m755 -3 c32 -21 107 -21 139 0 32 20 35 3 4 -18 -13
-10 -44 -16 -75 -16 -41 0 -58 5 -80 25 -32 28 -25 33 12 9z m-7385 -24 c26 0
55 7 66 15 24 18 35 19 28 1 -7 -19 -49 -36 -88 -36 -46 0 -96 19 -96 37 0 12
3 12 22 -1 12 -9 43 -16 68 -16z m895 3 c51 -25 70 -43 45 -43 -16 0 -108 48
-115 60 -10 17 12 11 70 -17z m711 5 c7 -22 7 -22 15 -3 6 15 8 10 8 -19 1
-37 0 -39 -14 -20 -15 18 -15 18 -9 -9 5 -22 3 -26 -9 -21 -15 5 -37 53 -37
80 0 23 38 16 46 -8z m944 19 c0 -1 -9 -20 -20 -42 -11 -22 -20 -47 -20 -56 0
-15 -78 -55 -88 -45 -7 7 19 70 39 94 22 28 89 64 89 49z m93 -13 c26 -9 47
-20 47 -25 0 -5 -3 -9 -7 -9 -15 0 -55 -69 -48 -81 4 -6 2 -15 -6 -19 -10 -7
-10 -16 0 -50 15 -51 8 -63 -13 -21 -28 53 -76 68 -76 23 0 -40 28 -92 49 -92
17 0 41 -18 41 -31 0 -4 -10 -9 -22 -11 -12 -2 -23 -9 -26 -16 -3 -10 5 -12
34 -6 22 3 44 11 50 15 6 5 19 7 28 3 9 -3 16 -2 16 4 0 5 -10 12 -22 15 l-22
6 24 26 c13 14 32 25 42 25 20 0 24 15 7 26 -6 3 -24 -3 -40 -15 -50 -37 -55
-20 -9 33 17 19 30 38 29 43 -2 4 4 20 11 36 10 21 11 30 2 39 -7 7 -12 19
-12 28 1 27 81 -72 110 -135 51 -110 61 -98 -150 -192 -102 -45 -191 -82 -197
-82 -10 -1 -13 29 -13 115 0 115 6 140 39 173 10 10 23 45 30 78 9 49 41 113
55 113 1 0 23 -7 49 -16z m2241 -6 c13 -21 4 -31 -31 -32 -19 -1 -29 -7 -31
-21 -6 -31 -42 -55 -65 -43 -25 13 -33 3 -41 -50 -5 -33 -3 -44 9 -48 8 -4 15
-15 15 -25 0 -10 5 -20 10 -20 6 -1 14 -2 20 -3 5 0 15 -8 22 -17 7 -9 28 -25
46 -35 31 -18 33 -18 65 0 17 10 39 28 48 39 28 35 40 12 33 -66 -4 -40 -8
-74 -10 -76 -5 -5 -360 142 -373 155 -2 2 11 34 29 71 47 95 112 156 200 186
24 9 42 3 54 -15z m99 -17 c24 -23 61 -100 53 -109 -2 -1 -24 6 -50 17 -31 14
-46 26 -46 39 0 10 -9 35 -19 56 l-20 38 27 -7 c15 -3 40 -19 55 -34z m908
-19 c-13 -35 -27 -52 -44 -52 -4 0 -3 9 3 19 17 34 11 37 -10 6 l-20 -30 0 25
c0 14 8 33 18 42 9 9 23 24 31 33 23 29 37 2 22 -43z m-64 26 c-3 -8 -6 -5 -6
6 -1 11 2 17 5 13 3 -3 4 -12 1 -19z m653 -29 c0 -18 -35 -5 -38 14 -3 16 -1
17 17 7 12 -6 21 -15 21 -21z m-6191 -34 c29 -15 50 -30 45 -34 -5 -5 -51 -27
-101 -49 l-93 -41 -66 30 c-36 17 -65 32 -63 34 2 1 39 18 82 35 64 28 77 37
77 56 0 22 1 22 33 9 17 -8 56 -26 86 -40z m731 47 c0 -5 -11 -14 -25 -20 -20
-9 -25 -9 -25 2 0 14 14 24 38 25 6 1 12 -3 12 -7z m6269 -15 c6 -15 31 -33
75 -53 36 -16 66 -32 66 -35 0 -4 -29 -20 -65 -37 l-65 -31 -95 41 c-52 23
-95 44 -95 48 0 4 153 86 168 89 1 1 6 -9 11 -22z m93 -4 c46 -19 68 -33 68
-45 0 -14 -11 -12 -72 16 -39 18 -74 38 -76 44 -5 17 6 15 80 -15z m228 13 c0
-8 -21 -24 -47 -37 -27 -12 -56 -26 -65 -31 -14 -7 -18 -5 -18 10 0 12 18 27
53 44 60 31 77 34 77 14z m-7689 -22 c42 -19 59 -32 59 -46 0 -11 -3 -17 -7
-15 -5 3 -34 16 -65 31 -34 15 -58 32 -58 41 0 20 3 19 71 -11z m219 16 c0
-10 -111 -70 -130 -70 -28 0 -3 24 53 50 68 33 77 35 77 20z m1750 -29 c0 -16
-7 -35 -16 -42 -9 -7 -21 -25 -27 -39 l-11 -25 -4 23 c-2 13 4 35 14 50 16 24
16 26 1 13 -23 -19 -23 5 0 31 24 27 43 22 43 -11z m823 -23 c8 -5 5 -13 -7
-27 -10 -11 -16 -27 -13 -35 3 -8 -1 -20 -9 -26 -17 -15 -19 5 -4 44 6 17 6
26 0 26 -6 0 -10 -6 -10 -12 0 -9 -4 -8 -10 2 -14 21 -12 30 5 30 8 0 15 8 15
18 0 29 15 37 19 10 1 -12 8 -26 14 -30z m2201 21 c9 -49 7 -69 -9 -85 -8 -9
-15 -26 -15 -40 0 -13 -5 -24 -11 -24 -7 0 -9 22 -5 68 4 45 3 60 -3 47 -5
-11 -11 -40 -12 -65 -2 -42 -3 -42 -6 -10 -3 19 -14 43 -25 54 -16 15 -17 20
-6 27 7 5 14 13 14 19 1 5 2 15 3 21 0 6 10 8 20 4 11 -3 22 -1 26 5 11 18 22
10 29 -21z m2566 21 c0 -5 -6 -10 -14 -10 -8 0 -18 5 -21 10 -3 6 3 10 14 10
12 0 21 -4 21 -10z m-7475 -10 c-3 -5 -12 -7 -20 -3 -21 7 -19 13 6 13 11 0
18 -4 14 -10z m5607 -7 c10 -9 18 -23 17 -32 0 -10 -2 -12 -6 -3 -2 6 -9 12
-15 12 -6 0 -3 -11 6 -25 17 -26 21 -55 7 -55 -5 0 -12 8 -15 18 -4 9 -14 30
-22 45 -15 26 -13 57 2 57 4 0 16 -7 26 -17z m-5537 -133 c105 -51 226 -109
270 -130 44 -21 154 -74 245 -117 91 -44 356 -173 590 -286 234 -112 515 -249
625 -302 110 -54 250 -121 310 -150 61 -29 187 -90 280 -135 94 -45 233 -113
310 -150 167 -81 398 -193 748 -363 l257 -126 0 -35 c0 -20 -2 -36 -4 -36 -2
0 -129 61 -282 136 -263 129 -348 170 -674 327 -74 35 -207 99 -295 142 -88
43 -200 97 -250 120 -49 23 -151 72 -225 107 -308 149 -1132 544 -1225 588
-55 26 -246 118 -425 204 -179 87 -364 175 -412 198 -85 40 -86 41 -90 80 -2
21 -2 41 0 43 3 2 16 -2 31 -9 15 -8 112 -56 216 -106z m1524 109 c21 -7 31
-17 31 -32 0 -18 -2 -19 -17 -5 -35 30 -47 29 -15 -1 37 -35 43 -62 12 -54
-11 3 -20 14 -20 24 0 11 -4 19 -10 19 -16 0 -51 40 -45 50 8 13 25 13 64 -1z
m6019 -21 c-4 -39 46 -12 -548 -300 -234 -114 -533 -259 -665 -324 -132 -64
-298 -145 -370 -179 -71 -34 -240 -117 -375 -182 -135 -66 -425 -208 -645
-315 -220 -108 -557 -273 -750 -368 -363 -179 -511 -250 -521 -250 -3 0 -4 16
-2 36 l3 35 185 88 c102 49 298 143 435 211 138 67 304 148 370 180 66 32 329
160 585 285 546 267 842 412 1035 505 77 37 255 124 395 192 140 68 325 158
410 199 85 41 220 106 300 146 80 39 149 72 153 72 5 1 7 -14 5 -31z m-1693 2
c0 -8 -12 -21 -27 -28 -16 -7 -28 -19 -28 -27 0 -13 -29 -35 -44 -35 -16 0 -2
23 32 56 38 37 25 37 -15 1 -19 -17 -23 -18 -23 -4 0 8 12 25 27 37 30 23 78
24 78 0z m-4405 -5 c0 -9 11 -20 24 -26 13 -6 27 -20 29 -30 3 -10 17 -23 31
-29 20 -7 26 -16 26 -40 0 -16 -3 -30 -7 -29 -5 0 -60 26 -123 58 l-114 58 49
26 c57 30 85 34 85 12z m4496 -11 l59 -27 -123 -58 c-68 -33 -125 -59 -128
-59 -2 0 -4 10 -4 23 0 17 10 28 35 40 19 9 35 23 35 30 0 8 11 19 25 25 15 7
25 20 25 32 0 26 6 25 76 -6z m218 -161 c-4 -105 -12 -186 -18 -194 -26 -33
-74 -60 -378 -207 -6 -3 -17 325 -12 336 2 3 191 -71 287 -112 20 -9 37 -12
37 -7 0 8 -161 80 -282 126 -27 10 -48 24 -48 32 0 7 19 22 43 32 23 11 116
55 207 99 91 44 166 79 168 77 2 -1 0 -83 -4 -182z m-4804 83 l195 -93 -4
-194 c-2 -107 -4 -195 -6 -197 -1 -1 -83 38 -182 88 -112 56 -187 99 -196 114
-13 19 -17 61 -19 200 -2 113 1 176 7 175 6 0 98 -42 205 -93z m3325 84 c4 -6
15 -8 26 -5 13 4 19 2 19 -9 0 -9 6 -16 14 -16 9 0 15 -14 18 -40 l3 -39 -28
35 c-16 19 -32 33 -35 29 -3 -3 4 -15 15 -28 11 -12 28 -34 38 -49 16 -25 16
-28 1 -28 -9 0 -16 7 -16 15 0 9 -11 20 -25 25 -14 5 -25 16 -25 24 0 8 -8 19
-17 25 -14 8 -15 12 -6 22 8 8 9 18 2 31 -10 19 4 27 16 8z m445 -5 c0 -9 -24
-26 -56 -40 -66 -29 -64 -29 -64 -11 0 7 26 25 58 39 68 32 62 30 62 12z
m-4799 -5 c32 -18 25 -65 -16 -97 -21 -17 -35 -37 -35 -50 0 -13 -2 -23 -5
-23 -3 0 -47 21 -97 46 l-91 46 99 43 c110 48 117 49 145 35z m1918 -11 c28
-12 51 -28 51 -35 0 -8 -2 -14 -4 -14 -15 0 -116 52 -116 60 0 14 11 13 69
-11z m4859 -24 c50 -22 92 -42 92 -45 0 -5 -145 -80 -155 -80 -3 0 -5 8 -5 18
0 10 -18 33 -40 51 -46 37 -53 72 -17 89 12 6 24 10 27 9 3 -1 47 -20 98 -42z
m-4678 25 c0 -10 -81 -50 -101 -50 -34 0 46 49 99 59 1 1 2 -4 2 -9z m2514
-10 c25 -10 46 -24 46 -30 0 -14 -5 -13 -55 10 -79 36 -70 54 9 20z m-2354 -4
c0 -3 -4 -8 -10 -11 -5 -3 -10 -1 -10 4 0 6 5 11 10 11 6 0 10 -2 10 -4z
m2290 -25 c0 -4 -16 -23 -36 -42 l-36 -34 16 30 c8 17 17 38 20 47 5 17 36 15
36 -1z m-2344 -42 c18 -36 18 -38 -4 -33 -17 5 -42 47 -42 72 0 20 27 -3 46
-39z m-202 5 c13 3 32 9 43 12 17 5 17 4 -1 -10 -34 -27 -146 -16 -146 14 0 6
18 3 40 -6 22 -9 51 -13 64 -10z m2570 -6 c-3 -4 -11 -8 -19 -8 -7 0 -15 -6
-18 -14 -3 -8 -16 -20 -29 -27 l-22 -12 19 29 c26 41 58 65 67 51 4 -6 4 -15
2 -19z m167 12 c-28 -24 -98 -27 -127 -5 -22 17 -9 19 33 5 22 -8 37 -7 64 4
47 21 58 19 30 -4z m1699 -18 c0 -15 50 -32 94 -32 29 0 52 7 70 21 28 22 36
11 10 -15 -33 -34 -138 -34 -174 -1 -22 20 -26 35 -10 35 6 0 10 -4 10 -8z
m-6383 -22 c33 -26 98 -26 141 0 35 22 43 13 12 -15 -42 -38 -157 -28 -181 16
-13 24 -3 24 28 -1z m4698 -417 l7 -427 -22 -18 c-27 -22 -88 -23 -118 -2 -21
14 -22 22 -22 162 0 81 3 272 7 424 l6 277 61 4 c34 2 64 4 67 5 4 1 10 -190
14 -425z m1655 417 c0 -5 -2 -10 -4 -10 -3 0 -8 5 -11 10 -3 6 -1 10 4 10 6 0
11 -4 11 -10z m-6400 -10 c0 -5 -2 -10 -4 -10 -3 0 -8 5 -11 10 -3 6 -1 10 4
10 6 0 11 -4 11 -10z m2034 -50 c3 -30 8 -218 12 -418 7 -340 6 -363 -11 -382
-24 -26 -103 -28 -134 -2 l-22 17 11 395 c5 217 10 407 10 421 0 25 2 26 64
25 l64 -1 6 -55z m-1616 -19 c50 -24 92 -47 92 -50 0 -3 -48 -27 -106 -53
l-107 -47 -78 40 c-44 21 -79 42 -79 44 0 3 34 21 75 40 65 29 75 37 75 59 0
29 -10 32 128 -33z m2372 17 c-11 -24 -20 -51 -20 -60 0 -18 -77 -65 -88 -54
-8 9 16 79 37 104 18 21 67 52 83 52 4 0 -2 -19 -12 -42z m145 14 c17 -8 31
-16 33 -17 1 -1 -13 -19 -32 -39 -28 -31 -37 -36 -53 -28 -28 16 -38 3 -53
-65 -12 -58 -15 -63 -51 -77 -22 -9 -41 -16 -44 -16 -10 0 24 63 38 71 10 6
18 31 23 67 7 59 16 85 42 114 16 19 44 16 97 -10z m883 -22 c12 -25 22 -63
22 -86 0 -33 5 -46 24 -61 27 -20 44 -63 26 -63 -7 0 -43 16 -81 36 -56 30
-69 41 -69 60 0 13 -4 24 -8 24 -5 0 -14 12 -21 26 -9 21 -14 24 -26 14 -8 -7
-15 -18 -15 -25 0 -7 -10 -15 -22 -18 -22 -6 -58 8 -58 22 0 29 154 125 190
119 8 -2 25 -23 38 -48z m89 6 c28 -30 59 -103 49 -114 -2 -2 -22 6 -45 17
-31 16 -42 29 -50 59 -6 20 -18 48 -27 61 -17 24 -17 24 12 17 16 -4 43 -22
61 -40z m499 -51 l167 -70 -6 -224 c-4 -123 -7 -266 -7 -317 0 -93 0 -94 -33
-125 -19 -18 -119 -73 -223 -124 -104 -51 -190 -91 -190 -91 -1 1 -4 88 -8
194 l-7 193 166 80 c91 43 165 83 165 88 0 4 -41 27 -91 50 -68 32 -89 46 -85
58 26 66 11 86 -43 58 l-31 -16 0 38 c0 79 -44 85 -56 8 -8 -55 -28 -55 -32
-1 -3 40 19 100 41 109 7 2 18 38 25 78 21 114 19 111 52 96 15 -6 103 -43
196 -82z m2037 61 c37 -16 67 -35 67 -43 0 -7 -2 -13 -5 -13 -16 0 -135 66
-140 78 -3 7 -1 12 3 10 4 -1 38 -16 75 -32z m227 19 c0 -13 -106 -75 -129
-75 -27 0 8 33 62 59 34 17 63 30 65 30 1 1 2 -6 2 -14z m-6635 -27 c36 -18
65 -38 65 -45 0 -17 2 -18 -74 18 -36 17 -66 37 -66 45 0 19 0 19 75 -18z
m235 22 c0 -11 -140 -84 -147 -76 -11 11 12 29 71 56 69 32 76 34 76 20z
m6078 -10 c7 -11 45 -35 85 -54 l72 -33 -92 -46 -92 -47 -103 49 -103 48 100
51 c55 28 105 51 110 51 6 1 16 -8 23 -19z m182 -10 c0 -5 -5 -10 -11 -10 -5
0 -7 5 -4 10 3 6 8 10 11 10 2 0 4 -4 4 -10z m-6403 -6 c-3 -3 -12 -4 -19 -1
-8 3 -5 6 6 6 11 1 17 -2 13 -5z m2349 -70 c4 -36 14 -62 26 -74 11 -10 25
-29 32 -42 13 -26 10 -108 -5 -108 -5 0 -9 7 -9 15 0 24 -22 65 -36 65 -18 0
-25 -14 -27 -58 -1 -38 -2 -39 -37 -38 -32 1 -35 -1 -32 -24 2 -23 -6 -29 -88
-64 -49 -21 -90 -43 -90 -48 0 -5 57 -36 128 -69 70 -33 142 -67 160 -76 l32
-15 0 -199 c0 -110 -2 -199 -5 -199 -6 0 -354 174 -392 196 -18 10 -37 28 -43
40 -15 28 -29 583 -15 592 27 18 381 169 387 166 4 -3 10 -29 14 -60z m531 3
c14 -35 14 -39 -3 -58 -10 -11 -21 -41 -25 -67 -6 -38 -7 -31 -6 35 1 44 -1
76 -5 70 -4 -7 -8 -48 -8 -92 l-1 -80 -19 50 c-27 69 -26 111 6 152 14 19 30
33 36 31 6 -2 17 -21 25 -41z m41 -23 c-4 -3 -12 5 -18 18 -12 22 -12 22 6 6
10 -10 15 -20 12 -24z m-2478 1 c42 -22 40 -58 -5 -99 -19 -18 -35 -42 -35
-54 0 -12 -5 -22 -10 -22 -16 0 -193 91 -187 96 4 4 197 92 205 93 2 1 16 -6
32 -14z m2318 3 c7 -7 12 -27 12 -45 0 -18 11 -60 24 -93 14 -33 23 -60 21
-60 -9 0 -48 79 -61 124 l-14 51 4 -46 c3 -26 15 -64 28 -85 l23 -38 -27 19
c-15 11 -35 34 -44 51 -15 27 -15 37 -4 82 13 54 18 60 38 40z m812 -13 c0
-18 4 -23 16 -18 14 5 15 3 6 -14 -22 -40 -38 -45 -56 -19 -19 30 -20 37 -4
34 7 -2 14 7 16 20 5 30 22 28 22 -3z m2466 -14 c43 -21 90 -41 103 -46 30 -9
21 -17 -77 -65 l-82 -39 0 29 c0 20 -7 33 -22 41 -30 15 -57 49 -58 71 0 13
25 35 56 48 0 0 36 -17 80 -39z m-4527 -67 c110 -52 205 -93 210 -90 15 10 16
-12 11 -217 l-5 -198 -200 100 c-127 63 -205 108 -214 123 -18 29 -30 378 -14
378 6 0 101 -43 212 -96z m3571 -84 l0 -180 -48 -37 c-50 -39 -367 -201 -376
-192 -10 9 -19 469 -10 469 5 -1 20 -7 34 -15 47 -27 43 -28 315 100 39 18 73
34 78 34 4 1 7 -80 7 -179z m-2610 130 c48 -24 45 -47 -3 -26 -71 30 -87 40
-87 52 0 15 22 9 90 -26z m1528 28 c-5 -13 -27 -26 -92 -53 -30 -13 -36 -13
-36 -1 0 7 26 25 58 39 66 30 75 32 70 15z m-1358 -8 c0 -10 -38 -32 -85 -50
-45 -17 -28 9 23 34 54 28 62 30 62 16z m340 -72 c0 -3 -23 -26 -52 -50 l-52
-43 38 68 c21 37 33 67 28 67 -5 0 -25 -30 -44 -66 l-35 -65 4 58 c4 50 9 62
36 86 l31 27 23 -37 c13 -21 23 -41 23 -45z m527 43 c16 -19 -2 -34 -30 -25
-16 5 -18 1 -15 -32 2 -29 9 -41 32 -54 16 -9 32 -22 34 -29 3 -10 0 -11 -17
-2 -22 12 -41 7 -41 -10 0 -5 6 -9 14 -9 8 0 27 -5 43 -12 34 -15 124 -17 120
-3 -2 6 -20 10 -41 10 -48 0 -45 23 7 49 33 16 38 22 32 43 -4 19 -3 24 7 20
7 -3 37 -15 66 -27 l52 -23 -1 -181 c0 -99 -3 -198 -7 -220 l-7 -38 -225 -108
c-124 -59 -228 -106 -232 -104 -3 2 -7 91 -8 198 -1 198 4 227 41 271 9 11 19
34 22 50 3 17 11 55 16 86 13 66 36 135 56 166 13 20 18 21 43 11 15 -7 33
-19 39 -27z m343 -18 c0 -14 -24 -7 -80 22 -51 26 -33 34 25 12 30 -12 55 -28
55 -34z m-250 -13 c-8 -5 -20 -29 -27 -52 -10 -39 -11 -40 -12 -13 -1 33 23
75 42 75 7 0 6 -4 -3 -10z m-1046 -16 c37 16 51 5 17 -14 -38 -20 -141 -6
-141 19 0 6 19 3 44 -5 39 -13 48 -13 80 0z m996 -43 c0 -34 -16 -15 -24 29
-5 32 -5 34 9 16 8 -11 15 -31 15 -45z m346 44 c50 20 64 18 35 -5 -13 -11
-38 -20 -56 -20 -40 0 -85 16 -85 29 0 6 16 3 35 -5 31 -13 39 -12 71 1z
m-270 -19 c2 -23 -22 -44 -34 -31 -3 3 1 5 9 5 12 0 12 2 0 9 -12 8 -12 12 -2
25 19 22 26 20 27 -8z m2137 -14 c42 -12 89 -2 118 24 17 16 19 16 19 1 0 -47
-127 -68 -178 -30 -14 11 -28 26 -30 34 -4 11 -1 10 14 -3 10 -9 36 -21 57
-26z m-5188 -7 c48 0 68 5 84 19 12 11 21 15 21 10 -1 -51 -131 -74 -184 -33
-14 11 -26 25 -26 31 0 6 9 3 21 -8 16 -14 36 -19 84 -19z m2935 25 c0 -5 0
-13 0 -17 0 -16 -23 -7 -26 10 -1 9 4 17 12 17 8 0 14 -4 14 -10z m2430 -4 c0
-3 -4 -8 -10 -11 -5 -3 -10 -1 -10 4 0 6 5 11 10 11 6 0 10 -2 10 -4z m-3090
-146 c10 0 23 12 29 28 7 16 32 49 57 73 51 50 59 46 69 -31 3 -25 10 -53 16
-62 5 -10 9 -28 9 -42 0 -13 7 -29 15 -36 9 -7 23 -28 32 -47 14 -30 15 -60 9
-226 -4 -105 -9 -193 -11 -196 -7 -6 -457 212 -461 224 -1 6 -5 101 -7 212
l-4 202 46 20 46 20 69 -69 c37 -39 76 -70 86 -70z m1176 28 l-14 -53 -1 76
c-1 82 9 109 22 60 5 -19 2 -50 -7 -83z m-1449 88 c1 -1 5 -196 9 -433 6 -340
4 -435 -5 -447 -32 -38 -146 -26 -156 17 -3 12 -1 204 4 427 6 223 11 414 11
425 0 19 5 21 68 17 37 -2 68 -5 69 -6z m1366 -260 c12 -469 10 -611 -10 -627
-26 -22 -109 -18 -132 6 -19 20 -20 29 -11 385 5 201 9 397 10 435 l0 70 68 0
69 0 6 -269z m-1564 184 c-1 -22 -2 -21 -10 8 -13 43 -21 41 -15 -5 l6 -38
-11 32 c-7 18 -8 44 -4 60 l8 28 13 -30 c7 -16 13 -41 13 -55z m3344 43 c39
-19 67 -38 67 -47 0 -21 -144 47 -148 70 -2 9 0 15 5 12 4 -2 38 -18 76 -35z
m237 22 c0 -8 -31 -30 -70 -50 -61 -31 -70 -33 -70 -17 0 12 21 28 68 49 37
18 68 32 70 32 1 1 2 -6 2 -14z m-5451 -34 c42 -22 57 -38 47 -49 -11 -10
-136 57 -136 73 0 16 19 11 89 -24z m221 25 c0 -7 -31 -27 -68 -45 -77 -35
-82 -36 -82 -18 0 7 30 27 68 44 79 36 82 37 82 19z m163 -48 c42 -21 77 -40
77 -43 0 -6 -190 -95 -204 -95 -15 0 -166 72 -166 80 0 3 36 23 80 43 62 28
80 41 80 56 0 23 -3 25 133 -41z m4730 42 c3 -12 33 -33 86 -57 l81 -38 -95
-44 -95 -44 -93 43 c-50 23 -95 45 -100 49 -6 6 183 108 204 110 4 1 9 -8 12
-19z m-1509 -42 c-10 -33 -33 -65 -51 -72 -14 -6 -14 -4 1 18 24 38 19 45 -9
11 -21 -25 -23 -26 -19 -7 8 27 52 72 71 72 10 0 12 -6 7 -22z m-1775 -55 c7
-14 10 -28 7 -30 -2 -2 -7 4 -10 15 -4 11 -13 23 -21 26 -12 4 -12 0 2 -21 17
-26 17 -26 -4 -15 -21 12 -33 32 -33 58 0 22 46 -3 59 -33z m1645 3 c1 -19 -2
-32 -6 -28 -7 8 -11 29 -9 56 2 31 13 10 15 -28z m-1577 3 c0 -24 -2 -27 -10
-14 -5 9 -6 23 -3 31 8 22 13 17 13 -17z m-1362 -26 c50 -24 49 -61 -5 -104
-26 -21 -40 -40 -40 -56 0 -23 -3 -22 -101 28 -56 27 -98 53 -94 57 10 11 178
90 192 91 7 1 28 -7 48 -16z m4429 -28 c53 -24 96 -47 96 -50 0 -6 -147 -80
-179 -90 -17 -5 -21 -2 -21 18 0 16 -13 34 -40 56 -53 42 -54 73 -2 94 20 8
40 15 43 16 4 1 50 -19 103 -44z m-3139 -33 c-28 -5 -43 -22 -20 -22 10 0 36
-8 57 -17 36 -17 39 -20 34 -52 -3 -18 -7 -35 -9 -37 -2 -3 -64 24 -138 60
l-134 64 75 35 74 35 40 -31 c34 -27 37 -32 21 -35z m793 37 c28 -12 52 -29
52 -36 0 -17 -9 -16 -56 3 -42 17 -74 42 -74 57 0 10 2 10 78 -24z m202 17 c0
-8 -24 -26 -54 -40 -62 -30 -76 -32 -76 -12 0 7 26 25 58 39 68 31 72 31 72
13z m845 -17 c41 -18 75 -35 75 -39 0 -3 -63 -36 -140 -73 l-140 -66 0 48 0
47 60 13 c33 7 57 18 54 23 -4 5 -17 7 -30 4 -13 -4 -24 -2 -24 3 0 9 60 71
68 71 1 0 36 -14 77 -31z m-1769 -67 c-4 -3 -11 -1 -17 5 -7 7 -6 19 3 39 l13
29 3 -34 c2 -18 1 -36 -2 -39z m1587 28 c3 -13 0 -20 -9 -20 -8 0 -14 10 -14
26 0 28 15 25 23 -6z m-758 -28 c49 17 59 3 14 -19 -46 -24 -135 -9 -146 23
-3 8 12 6 42 -4 42 -16 48 -16 90 0z m2055 -22 c0 -27 -49 -50 -105 -50 -53 0
-105 23 -105 47 0 14 2 14 20 -2 28 -25 109 -31 148 -11 18 9 32 21 32 26 0 6
2 10 5 10 3 0 5 -9 5 -20z m-4100 -34 c36 0 58 6 80 22 33 25 41 15 11 -12
-43 -39 -145 -42 -183 -4 -29 29 -21 41 12 16 22 -16 44 -22 80 -22z m-125 14
c3 -5 1 -10 -4 -10 -6 0 -11 5 -11 10 0 6 2 10 4 10 3 0 8 -4 11 -10z m4260 0
c-3 -5 -11 -10 -16 -10 -6 0 -7 5 -4 10 3 6 11 10 16 10 6 0 7 -4 4 -10z
m-2060 -205 c4 -110 7 -317 8 -460 l2 -260 -42 -13 c-49 -16 -118 -2 -131 26
-4 9 -5 139 -1 287 4 149 7 349 8 445 l1 175 74 0 74 0 7 -200z m-2095 100 c0
-20 -1 -20 -80 20 -49 25 -68 39 -64 50 5 12 19 8 75 -20 39 -20 69 -42 69
-50z m180 72 c0 -13 -149 -92 -157 -83 -11 11 13 30 81 61 39 19 72 34 74 34
1 1 2 -5 2 -12z m3738 -69 c100 -46 104 -37 -45 -104 l-83 -37 -104 49 -105
49 122 61 c111 56 122 60 125 42 3 -14 29 -32 90 -60z m41 37 c46 -23 66 -45
41 -45 -21 0 -140 65 -140 77 0 15 21 8 99 -32z m221 30 c0 -14 -37 -37 -112
-68 -35 -15 -38 -15 -38 1 0 11 23 28 68 49 79 37 82 37 82 18z m-3844 -51
l116 -57 -101 -48 c-55 -27 -105 -49 -110 -49 -13 0 -201 89 -201 95 0 2 36
21 80 41 58 27 80 42 80 55 0 11 4 19 10 19 5 0 62 -25 126 -56z m-309 20 c-3
-3 -12 -4 -19 -1 -8 3 -5 6 6 6 11 1 17 -2 13 -5z m488 -106 c33 -16 45 -28
45 -44 0 -22 -52 -84 -71 -84 -5 0 -9 -13 -9 -30 0 -16 -2 -30 -5 -30 -16 0
-206 102 -201 108 4 4 48 28 99 53 51 25 93 47 94 47 1 1 23 -8 48 -20z m3230
-75 c11 -6 18 -13 15 -15 -3 -2 -49 -24 -102 -50 l-98 -48 0 30 c0 17 -4 30
-9 30 -19 0 -71 62 -71 86 0 18 10 28 38 42 l37 18 85 -41 c47 -23 94 -46 105
-52z m-2107 -39 c97 -47 199 -95 225 -106 l49 -21 -7 -196 c-4 -108 -8 -197
-9 -197 0 -1 -96 45 -211 101 -149 73 -214 110 -222 127 -14 26 -23 378 -11
378 5 0 88 -39 186 -86z m952 -96 c-1 -135 -4 -188 -14 -200 -10 -14 -425
-228 -441 -228 -3 0 -5 90 -5 200 0 113 4 200 9 200 5 0 105 47 223 104 117
58 216 105 221 105 4 1 7 -81 7 -181z m874 71 c-28 -31 -87 -44 -134 -30 -40
12 -70 34 -70 53 0 6 9 3 19 -6 44 -40 158 -36 184 6 7 10 14 13 15 8 2 -6 -4
-20 -14 -31z m-2894 22 c0 -14 65 -41 100 -41 35 0 86 23 93 42 2 7 7 10 11 7
13 -12 -6 -38 -39 -53 -42 -20 -97 -20 -135 -1 -31 16 -59 55 -40 55 5 0 10
-4 10 -9z m-35 -21 c3 -5 1 -10 -4 -10 -6 0 -11 5 -11 10 0 6 2 10 4 10 3 0 8
-4 11 -10z m275 0 c0 -5 -5 -10 -11 -10 -5 0 -7 5 -4 10 3 6 8 10 11 10 2 0 4
-4 4 -10z m2435 0 c3 -5 2 -10 -4 -10 -5 0 -13 5 -16 10 -3 6 -2 10 4 10 5 0
13 -4 16 -10z m270 0 c-3 -5 -11 -10 -16 -10 -6 0 -7 5 -4 10 3 6 11 10 16 10
6 0 7 -4 4 -10z m-155 -108 c0 -8 -4 -12 -8 -10 -82 32 -142 66 -142 80 0 15
11 12 75 -19 41 -21 75 -44 75 -51z m178 71 c-3 -19 -111 -82 -140 -83 -35 0
-5 31 61 65 77 40 84 41 79 18z m-2953 -25 c44 -22 65 -38 65 -50 0 -15 -10
-13 -75 19 -41 21 -75 43 -75 50 0 19 13 16 85 -19z m245 19 c0 -7 -34 -29
-75 -50 -66 -33 -75 -35 -75 -18 0 13 19 27 68 49 77 35 82 37 82 19z m155
-44 c63 -32 115 -61 115 -65 0 -4 -44 -29 -97 -56 l-98 -49 -110 52 -110 52
80 40 c48 23 84 48 90 61 5 12 11 22 12 22 2 0 55 -26 118 -57z m2198 37 c3
-13 34 -34 86 -59 55 -26 77 -42 68 -48 -6 -5 -52 -28 -102 -51 l-90 -43 -105
55 -105 55 115 55 c63 30 118 56 121 56 4 0 9 -9 12 -20z m-2508 -20 c-3 -5
-12 -7 -20 -3 -21 7 -19 13 6 13 11 0 18 -4 14 -10z m2712 4 c-3 -3 -12 -4
-19 -1 -8 3 -5 6 6 6 11 1 17 -2 13 -5z m-267 -194 c0 -6 -213 -110 -225 -110
-3 0 -5 10 -5 23 0 16 -14 35 -40 56 -29 23 -40 39 -40 59 0 24 8 32 53 54
l52 25 103 -51 c56 -28 102 -53 102 -56z m-1940 77 c67 -33 66 -76 -2 -120
-18 -11 -28 -26 -28 -42 0 -14 -3 -25 -7 -25 -3 0 -54 23 -112 51 l-105 51
100 53 c54 29 101 53 104 53 3 1 25 -9 50 -21z m160 -157 c51 0 65 4 85 25 23
22 25 22 25 5 0 -47 -138 -72 -193 -35 -15 9 -27 26 -27 36 0 16 3 15 25 -6
20 -21 34 -25 85 -25z m1446 3 c-43 -37 -161 -30 -188 11 -15 22 -7 29 12 11
43 -39 188 -25 191 18 0 7 3 7 6 -2 3 -8 -6 -24 -21 -38z m-1576 7 c0 -5 -2
-10 -4 -10 -3 0 -8 5 -11 10 -3 6 -1 10 4 10 6 0 11 -4 11 -10z m1360 0 c0 -5
-2 -10 -4 -10 -3 0 -8 5 -11 10 -3 6 -1 10 4 10 6 0 11 -4 11 -10z m280 6 c0
-3 -4 -8 -10 -11 -5 -3 -10 -1 -10 4 0 6 5 11 10 11 6 0 10 -2 10 -4z m-1600
-61 c40 -20 70 -42 70 -50 0 -20 -1 -20 -80 20 -40 20 -70 42 -70 50 0 20 1
20 80 -20z m250 20 c0 -8 -30 -30 -70 -50 -79 -40 -80 -40 -80 -20 0 11 99 67
148 84 1 1 2 -6 2 -14z m158 -41 l117 -57 -109 -54 -109 -55 -93 44 c-51 23
-93 45 -94 48 0 3 35 23 78 45 57 30 78 46 80 63 2 12 6 22 8 22 3 0 58 -25
122 -56z m854 34 c2 -18 23 -33 88 -65 l85 -41 -99 -47 c-54 -25 -104 -45
-110 -43 -19 5 -196 103 -196 108 0 7 202 109 217 109 6 1 13 -9 15 -21z m102
-13 c44 -21 76 -42 76 -50 0 -8 -2 -15 -5 -15 -18 0 -155 77 -155 87 0 17 -4
18 84 -22z m256 20 c0 -8 -30 -30 -70 -50 -76 -38 -90 -42 -90 -21 0 7 33 29
73 49 83 41 87 42 87 22z m-1523 -31 c-3 -3 -12 -4 -19 -1 -8 3 -5 6 6 6 11 1
17 -2 13 -5z m1370 0 c-3 -3 -12 -4 -19 -1 -8 3 -5 6 6 6 11 1 17 -2 13 -5z
m-872 -101 c46 -23 55 -31 55 -54 0 -26 -48 -79 -71 -79 -5 0 -9 -16 -9 -35 0
-19 -3 -35 -7 -34 -5 0 -60 26 -123 58 l-114 58 104 55 c58 31 106 56 107 57
2 0 27 -11 58 -26z m511 -30 l105 -57 -113 -58 c-62 -31 -116 -57 -120 -57 -5
-1 -8 12 -8 29 0 21 -8 34 -27 47 -79 51 -80 87 -3 125 30 15 56 27 58 27 1 1
50 -25 108 -56z m-339 -133 c46 0 98 21 106 42 2 7 7 10 11 6 13 -11 -12 -45
-44 -58 -42 -17 -144 -9 -170 15 -35 32 -24 47 16 20 25 -17 50 -25 81 -25z
m-134 16 c4 -10 1 -13 -8 -9 -8 3 -12 9 -9 14 7 12 11 11 17 -5z m286 -7 c-16
-10 -23 -4 -14 10 3 6 11 8 17 5 6 -4 5 -9 -3 -15z m-236 -55 c61 -29 74 -39
70 -55 -3 -10 -7 -19 -9 -19 -2 0 -37 17 -79 37 -51 26 -75 43 -75 55 0 25 8
23 93 -18z m257 14 c0 -19 -15 -30 -80 -60 l-80 -36 0 24 c0 20 12 29 73 58
87 42 87 42 87 14z m-163 -24 c-3 -3 -12 -4 -19 -1 -8 3 -5 6 6 6 11 1 17 -2
13 -5z"/>
<path d="M4945 4973 c-88 -30 -284 -97 -435 -148 -151 -52 -475 -162 -720
-245 -1082 -369 -2082 -708 -2125 -721 -16 -5 -37 -13 -45 -19 -27 -17 -22
-19 290 -147 112 -46 303 -126 415 -173 50 -22 302 -127 560 -236 713 -298
2198 -925 2218 -935 14 -8 95 23 355 134 185 80 477 204 647 277 171 72 398
169 505 215 107 46 326 138 485 205 272 114 467 197 1050 445 132 56 293 124
358 150 64 27 117 54 117 61 0 6 -19 18 -42 27 -42 15 -581 198 -833 282 -106
35 -916 309 -1360 460 -923 312 -1259 425 -1269 424 -6 0 -83 -25 -171 -56z
m380 -38 c88 -30 401 -135 695 -235 294 -99 600 -203 680 -230 80 -26 447
-150 815 -275 369 -125 751 -254 850 -287 99 -33 186 -63 193 -67 14 -8 -72
-51 -101 -51 -8 0 -59 16 -113 35 -53 20 -215 77 -358 126 -144 50 -317 110
-386 134 -69 24 -244 85 -390 135 -146 50 -314 109 -375 130 -60 21 -184 64
-275 95 -91 31 -214 74 -275 95 -116 41 -494 171 -905 313 l-245 84 -3 33 c-3
28 -1 32 15 26 10 -4 90 -32 178 -61z m-217 29 c-4 -31 25 -19 -393 -163 -423
-145 -759 -262 -1140 -396 -99 -35 -232 -81 -295 -103 -438 -153 -582 -203
-785 -274 -126 -44 -288 -100 -360 -124 -71 -25 -181 -63 -244 -85 l-113 -40
-54 21 c-30 12 -54 25 -54 29 0 3 71 29 158 58 140 46 504 169 1062 358 102
35 419 143 705 240 590 200 713 242 1160 395 176 60 328 109 338 109 14 1 18
-5 15 -25z m232 -126 c96 -32 225 -77 285 -98 61 -21 184 -64 275 -95 91 -31
215 -74 275 -95 61 -22 301 -105 535 -185 234 -80 454 -157 490 -170 36 -14
92 -33 125 -44 33 -11 166 -56 295 -101 505 -176 726 -252 758 -263 17 -6 32
-13 32 -16 0 -4 -414 -182 -506 -218 -7 -3 -16 18 -22 56 -23 130 -103 236
-197 260 -51 13 -85 7 -133 -21 -32 -20 -82 -92 -82 -119 -1 -37 -15 -40 -76
-18 -32 13 -61 24 -63 26 -3 2 -8 33 -13 69 -9 77 -42 155 -87 206 -40 46
-123 88 -173 88 -80 0 -159 -64 -179 -146 -6 -24 -12 -44 -13 -44 -1 0 -28 10
-61 23 l-59 23 -12 70 c-20 122 -71 213 -145 260 -74 47 -165 42 -230 -13 -31
-26 -69 -91 -69 -117 0 -26 -15 -26 -76 -3 l-59 23 -7 62 c-13 117 -78 221
-163 261 -109 51 -226 -3 -265 -121 -6 -21 -14 -38 -18 -38 -3 0 -32 10 -64
22 -58 23 -58 23 -58 64 0 52 -33 147 -68 198 -99 143 -288 128 -347 -28 -10
-25 -21 -44 -24 -41 -4 2 -8 83 -9 181 -2 165 -1 176 15 169 10 -4 97 -34 193
-67z m-231 -115 l0 -178 -24 50 c-28 59 -41 76 -77 99 -94 61 -219 22 -284
-90 -29 -50 -54 -133 -54 -184 0 -33 -3 -36 -59 -57 -32 -13 -61 -23 -64 -23
-3 0 -11 17 -17 38 -39 119 -158 174 -267 121 -83 -40 -148 -147 -162 -268
l-6 -55 -60 -23 c-32 -13 -60 -23 -62 -23 -1 0 -8 19 -15 43 -19 64 -93 134
-151 142 -58 9 -94 1 -149 -34 -75 -48 -115 -123 -143 -266 l-11 -59 -57 -22
c-53 -21 -59 -21 -64 -6 -32 91 -56 123 -115 153 -142 73 -313 -74 -337 -289
l-6 -54 -59 -24 c-33 -13 -63 -24 -67 -24 -3 0 -11 19 -17 43 -32 125 -164
177 -275 108 -71 -43 -136 -165 -137 -253 0 -31 -4 -48 -12 -48 -14 0 -518
209 -531 220 -4 4 34 21 85 38 51 17 289 99 528 182 239 83 485 169 545 190
61 21 144 50 185 65 41 14 93 32 115 40 22 7 123 42 225 78 332 116 610 213
880 307 146 50 299 103 340 118 197 70 347 120 363 121 16 1 17 -14 16 -176z
m-176 -52 c14 -17 33 -56 42 -88 10 -32 28 -66 39 -75 19 -15 21 -29 24 -160
1 -79 -1 -183 -5 -232 l-8 -89 -180 -72 -180 -73 -8 86 c-4 48 -6 139 -5 203
2 95 6 121 21 136 12 14 20 47 26 109 12 133 59 221 140 264 50 26 65 25 94
-9z m482 6 c82 -46 128 -140 139 -281 4 -46 12 -76 24 -89 15 -17 17 -42 15
-219 0 -110 -3 -202 -6 -204 -7 -7 -360 137 -369 150 -4 6 -8 109 -8 228 0
215 0 217 24 243 13 14 32 53 42 86 20 65 52 109 81 109 10 0 36 -10 58 -23z
m-395 -26 c21 -21 40 -51 42 -65 6 -30 7 -30 -28 -14 -16 8 -35 30 -47 58 -12
25 -23 48 -25 53 -11 22 26 2 58 -32z m247 -12 c-14 -33 -32 -56 -50 -66 -16
-8 -31 -12 -34 -10 -9 9 36 85 63 106 40 32 44 26 21 -30z m-157 -130 c0 -13
-15 -11 -55 8 -50 24 -43 35 10 16 25 -8 45 -19 45 -24z m126 33 c-8 -14 -86
-46 -93 -39 -9 10 1 17 44 32 45 17 56 18 49 7z m-868 -74 c11 -13 30 -49 42
-80 11 -31 31 -69 43 -84 18 -24 23 -44 26 -124 2 -52 0 -159 -4 -236 l-7
-142 -141 -57 c-78 -32 -163 -66 -189 -76 l-46 -18 -7 102 c-11 163 -3 321 17
344 11 12 19 45 24 98 8 100 34 169 81 225 59 69 123 88 161 48z m784 11 c40
14 51 5 12 -9 -30 -12 -89 -6 -99 10 -3 5 8 4 25 -1 21 -8 39 -8 62 0z m675
-52 c-17 -44 -28 -59 -51 -67 -16 -5 -31 -8 -33 -6 -10 9 39 86 69 110 18 14
33 24 35 23 1 -2 -8 -28 -20 -60z m146 50 c80 -34 144 -152 154 -286 5 -55 12
-84 29 -109 20 -28 23 -43 19 -91 -2 -31 -7 -119 -10 -195 -3 -77 -7 -141 -8
-143 -2 -2 -87 30 -188 71 l-184 74 -8 93 c-4 52 -6 161 -5 242 3 122 6 151
19 160 16 13 39 58 58 117 14 42 48 80 73 80 10 0 33 -6 51 -13z m-1525 -22
c28 -24 68 -92 59 -101 -2 -2 -17 1 -33 6 -22 8 -34 23 -50 65 -12 30 -18 55
-13 55 4 0 21 -11 37 -25z m733 -10 c0 0 4 -160 9 -355 8 -348 8 -355 -12
-372 -25 -22 -76 -23 -106 -2 -22 15 -22 16 -17 232 3 119 8 280 11 357 l6
140 54 0 c30 0 54 0 55 0z m-511 -99 c0 -7 -23 -23 -51 -35 -60 -24 -69 -26
-69 -8 0 9 54 35 118 56 1 1 2 -5 2 -13z m981 -13 c27 -10 49 -23 49 -30 0 -7
-4 -13 -9 -13 -18 0 -111 43 -111 51 0 13 17 11 71 -8z m-1123 -31 c3 -9 -8
-7 -32 5 -20 9 -36 20 -36 25 0 12 63 -16 68 -30z m1262 30 c0 -5 -16 -16 -35
-25 -28 -13 -35 -14 -35 -3 0 7 15 18 33 24 17 5 33 10 35 11 1 1 2 -3 2 -7z
m-1987 -72 c14 -16 28 -44 32 -62 9 -44 35 -101 53 -114 21 -16 25 -83 17
-307 l-7 -204 -191 -77 c-146 -59 -192 -74 -199 -64 -6 11 -14 361 -9 408 1 8
10 26 20 40 12 17 20 52 24 105 9 134 64 242 145 285 54 28 86 25 115 -10z
m817 10 c-18 -12 -107 -13 -114 -2 -2 4 12 6 32 4 21 -2 48 1 62 6 29 11 42 5
20 -8z m1086 2 c24 2 39 -1 35 -5 -13 -13 -114 -4 -119 11 -3 11 0 12 18 2 12
-6 42 -10 66 -8z m880 -17 c73 -56 119 -160 127 -288 3 -48 10 -74 23 -88 18
-20 19 -37 16 -238 -2 -119 -7 -219 -10 -222 -4 -3 -93 30 -198 73 l-191 80
-7 232 c-7 222 -2 286 22 286 10 0 38 63 47 108 4 18 18 46 33 63 22 27 30 31
64 26 21 -3 55 -17 74 -32z m-2713 1 c25 -24 72 -104 64 -112 -10 -10 -67 19
-67 34 0 10 -9 36 -20 60 -21 47 -15 53 23 18z m2545 17 c-8 -16 -26 -59 -37
-86 -9 -24 -57 -55 -68 -44 -9 10 21 65 55 100 32 33 60 49 50 30z m-1794
-127 c3 -50 8 -215 12 -368 6 -270 5 -277 -14 -287 -30 -16 -98 -13 -116 4
-16 16 -16 14 0 550 l6 190 53 1 53 0 6 -90z m1117 59 c13 -532 15 -693 7
-707 -12 -24 -109 -25 -128 -3 -10 12 -12 72 -6 273 3 141 9 304 12 362 l7
105 53 0 c53 0 54 0 55 -30z m-1643 -67 c-4 -14 -84 -57 -105 -58 -32 -1 -8
27 40 47 63 25 70 27 65 11z m2123 -15 c27 -10 49 -23 49 -30 0 -7 -4 -13 -9
-13 -17 0 -99 38 -105 49 -10 16 9 14 65 -6z m-2261 -30 c0 -11 -6 -10 -32 0
-46 19 -48 37 -3 23 19 -6 35 -17 35 -23z m2394 19 c-19 -17 -64 -32 -64 -21
0 5 15 16 33 24 32 13 49 12 31 -3z m-2294 -41 c0 -15 -59 -31 -91 -24 -46 9
-42 18 6 15 24 -2 52 1 62 7 22 13 23 13 23 2z m2216 -9 c38 3 42 1 27 -9 -9
-7 -24 -13 -33 -13 -27 0 -80 21 -80 31 0 6 9 5 21 -2 12 -6 41 -9 65 -7z
m-3057 -18 c12 -15 26 -45 33 -68 6 -22 15 -45 20 -50 4 -6 8 -18 8 -28 0 -10
6 -21 14 -24 33 -12 37 -55 29 -298 l-8 -240 -122 -49 -123 -50 -67 28 c-38
15 -73 33 -80 39 -8 8 -13 59 -14 164 -1 141 0 156 19 182 15 20 24 53 31 122
14 141 66 233 153 277 57 28 82 27 107 -5z m3771 -19 c-11 -22 -20 -47 -20
-57 0 -16 -58 -51 -68 -42 -2 1 1 18 8 38 10 31 86 113 96 104 2 -3 -5 -22
-16 -43z m149 25 c88 -44 150 -158 158 -290 4 -52 11 -81 23 -95 29 -33 32
-59 25 -209 l-8 -143 -84 -36 -85 -36 -118 47 -118 47 -4 240 c-4 238 0 277
30 300 7 6 14 17 15 25 2 8 5 20 9 25 3 6 11 29 17 51 15 56 46 94 77 94 14 0
42 -9 63 -20z m-3852 -8 c26 -21 63 -81 63 -104 0 -14 -4 -15 -29 -5 -22 8
-34 22 -44 51 -8 23 -18 49 -22 59 -9 22 4 22 32 -1z m766 -161 c4 -81 10
-248 14 -374 6 -216 5 -228 -13 -242 -10 -8 -37 -15 -60 -15 -74 0 -72 -13
-64 405 4 204 8 370 9 370 1 0 25 0 55 1 l53 0 6 -145z m2261 94 c3 -27 7
-195 10 -372 4 -279 3 -325 -10 -338 -21 -21 -98 -20 -119 2 -18 17 -18 36 1
589 l6 170 54 0 53 -1 5 -50z m-1284 -104 l0 -130 -35 -27 c-58 -44 -44 -73
53 -114 29 -13 49 -26 45 -30 -4 -4 -39 -19 -78 -34 l-70 -27 -99 45 c-55 25
-102 43 -105 41 -7 -7 -2 -10 94 -55 l90 -41 -84 -35 c-97 -39 -111 -41 -111
-16 0 9 -14 29 -32 44 l-33 27 0 167 0 168 36 14 c34 13 40 11 166 -42 139
-59 143 -61 143 -48 0 5 -54 31 -120 58 -66 27 -120 51 -120 54 0 5 238 108
253 109 4 1 7 -57 7 -128z m440 24 l35 -13 -27 -11 c-108 -42 -204 -84 -212
-92 -20 -18 13 -8 120 37 141 59 139 58 174 44 l30 -12 0 -164 0 -163 -35 -28
c-21 -17 -35 -37 -35 -50 0 -13 -3 -23 -6 -23 -17 0 -173 73 -169 80 2 4 41
22 85 41 44 18 80 37 80 41 0 12 -29 3 -123 -40 l-79 -36 -46 19 c-26 10 -62
23 -79 29 -18 6 -33 13 -33 16 0 3 32 20 70 38 84 38 91 61 35 108 l-35 29 0
127 0 127 108 -46 c59 -25 123 -51 142 -58z m-1956 20 c-4 -8 -8 -15 -10 -15
-2 0 -26 -9 -54 -20 -46 -18 -51 -18 -48 -4 2 9 23 24 48 34 57 23 71 24 64 5z
m3294 -9 c50 -19 61 -29 44 -40 -12 -7 -112 41 -112 54 0 7 4 10 8 8 4 -1 31
-12 60 -22z m-3469 -7 c26 -9 44 -29 26 -29 -10 0 -65 30 -65 35 0 7 3 6 39
-6z m3601 -3 c-20 -18 -60 -30 -60 -18 0 6 12 15 28 20 39 15 48 14 32 -2z
m-3474 -51 c-11 -8 -31 -15 -45 -14 -24 0 -23 2 9 14 46 18 59 18 36 0z m3391
0 c22 0 39 -3 36 -7 -5 -9 -75 -11 -97 -2 -9 3 -16 11 -16 16 0 6 7 7 18 2 9
-4 36 -8 59 -9z m-4240 -10 c12 -8 29 -36 38 -62 9 -27 21 -56 26 -65 5 -10 9
-24 9 -32 0 -8 6 -19 14 -23 28 -17 36 -54 36 -162 0 -61 -3 -111 -7 -111 -5
0 -83 32 -175 71 -190 80 -181 69 -154 180 23 99 83 178 156 208 33 13 33 13
57 -4z m5092 -5 c79 -40 151 -164 151 -260 l0 -37 -167 -71 c-93 -38 -169 -69
-170 -68 -1 1 -3 49 -4 108 -3 96 -1 110 18 135 11 16 31 58 43 93 22 60 62
120 82 120 5 0 26 -9 47 -20z m-5005 -20 c32 -28 65 -94 53 -106 -2 -3 -16 1
-31 7 -17 8 -29 25 -36 48 -5 20 -17 46 -25 59 -23 32 -2 27 39 -8z m4871 -27
c-16 -37 -32 -61 -50 -71 -15 -7 -29 -12 -31 -9 -3 2 3 23 12 46 15 38 64 91
84 91 4 0 -3 -26 -15 -57z m-4101 -170 c3 -115 9 -286 13 -380 l6 -173 -78 32
-77 33 7 315 c3 173 8 327 11 342 5 24 10 27 52 31 26 2 50 4 53 5 3 1 9 -91
13 -205z m3426 69 c0 -71 3 -223 7 -338 l6 -210 -74 -31 c-41 -17 -75 -30 -75
-30 -1 1 2 121 7 267 4 146 8 311 8 368 l1 102 60 0 60 0 0 -128z m-2430 -36
l0 -123 -35 -34 c-55 -54 -48 -74 36 -113 l71 -32 -67 -29 c-37 -15 -73 -28
-79 -28 -6 0 -53 19 -105 42 -51 23 -96 40 -99 37 -8 -9 -3 -12 88 -54 l85
-40 -45 -20 c-25 -11 -69 -30 -97 -41 -52 -20 -53 -20 -53 -1 0 10 -18 36 -40
56 l-40 37 0 159 0 158 32 13 c30 12 39 10 162 -45 71 -32 135 -57 140 -54 10
3 -65 41 -188 95 -27 12 -46 25 -42 29 8 7 255 110 269 111 4 1 7 -55 7 -123z
m1518 42 c56 -23 101 -42 99 -44 -2 -2 -57 -26 -123 -54 -112 -49 -152 -70
-128 -70 9 0 102 38 221 89 34 15 62 21 78 17 l25 -6 0 -158 0 -158 -35 -34
c-20 -19 -35 -44 -35 -57 0 -29 -4 -29 -89 7 -40 17 -84 35 -99 41 -26 10 -26
10 28 33 111 47 130 56 130 66 0 5 -47 -10 -104 -35 l-105 -43 -65 26 c-36 15
-66 29 -66 32 0 3 29 20 65 38 78 38 84 61 30 109 l-35 31 0 126 0 126 53 -21
c28 -11 98 -39 155 -61z m-921 3 c31 -16 95 -14 121 5 28 20 45 8 18 -12 -23
-16 -128 -19 -157 -4 -10 6 -19 18 -19 28 0 10 3 13 8 6 4 -6 17 -16 29 -23z
m-2139 7 c-4 -13 -52 -39 -95 -52 -17 -5 -23 -3 -23 7 0 8 23 23 53 35 64 24
70 25 65 10z m4515 -35 c5 -3 5 -9 -1 -15 -13 -13 -106 26 -110 46 -3 14 3 14
49 -4 29 -12 57 -24 62 -27z m-4656 -3 c2 0 1 -4 -2 -10 -4 -6 -17 -4 -35 5
-43 22 -47 38 -5 21 21 -9 39 -16 42 -16z m4748 20 c-3 -6 -19 -17 -36 -25
-25 -13 -29 -13 -29 -1 0 8 12 19 28 24 36 14 44 14 37 2z m-2447 -51 c12 -5
22 -13 22 -19 0 -14 -5 -13 -66 17 -61 30 -74 52 -16 27 20 -9 47 -20 60 -25z
m182 36 c0 -6 -117 -65 -130 -65 -28 0 -3 21 53 43 64 27 77 30 77 22z m-133
-21 c-3 -3 -12 -4 -19 -1 -8 3 -5 6 6 6 11 1 17 -2 13 -5z m-2261 -19 c-21
-16 -101 -21 -110 -7 -2 4 13 6 34 4 21 -2 47 1 57 7 27 16 41 13 19 -4z
m4571 0 c22 0 39 -3 36 -7 -8 -14 -89 -8 -109 8 -18 14 -18 15 6 7 14 -4 44
-8 67 -8z m-4565 -169 c3 -72 4 -133 2 -135 -2 -2 -31 7 -64 20 l-60 24 0 90
c0 129 1 130 64 131 l53 0 5 -130z m4608 25 l0 -106 -58 -23 c-32 -12 -60 -22
-62 -22 -3 0 -4 57 -2 128 l3 127 60 1 59 1 0 -106z m-3590 -66 l0 -124 -35
-28 c-25 -20 -35 -36 -35 -56 0 -25 8 -32 72 -62 l72 -35 -59 -25 c-91 -41
-102 -41 -183 0 -91 45 -122 57 -122 47 0 -4 39 -27 86 -50 50 -25 83 -47 78
-52 -5 -5 -30 -18 -55 -28 l-46 -20 -61 27 c-105 47 -102 40 -102 222 l0 157
45 17 44 18 125 -57 c69 -31 130 -56 136 -56 31 0 -2 20 -106 65 -64 28 -117
53 -119 56 -4 6 231 106 253 108 9 1 12 -30 12 -124z m1210 107 c0 -13 -17
-25 -57 -42 -170 -68 -411 -167 -503 -205 -58 -24 -170 -71 -250 -104 -80 -32
-235 -96 -344 -141 -178 -74 -201 -81 -225 -70 l-26 12 45 17 c25 10 158 64
295 121 138 56 286 117 330 135 236 96 579 237 640 264 83 35 95 37 95 13z
m156 -28 c108 -45 698 -287 949 -389 186 -75 309 -127 313 -130 2 -2 -6 -8
-17 -15 -22 -11 10 -24 -631 240 -118 49 -294 121 -390 160 -342 139 -353 144
-356 163 -3 25 12 22 132 -29z m1247 -16 c70 -28 127 -54 127 -57 0 -4 -52
-29 -116 -56 -106 -45 -132 -60 -123 -70 2 -1 65 24 139 56 123 53 138 58 168
48 l32 -11 -2 -161 -3 -162 -49 -26 c-92 -50 -117 -54 -172 -30 l-49 22 90 41
c97 43 101 45 94 53 -3 2 -51 -16 -107 -40 l-102 -45 -82 34 -82 34 63 31 c35
17 69 36 77 42 20 17 8 48 -32 85 l-34 31 0 122 c0 113 1 123 18 117 9 -4 74
-30 145 -58z m-1948 -28 c11 0 38 9 60 20 48 24 48 24 36 1 -22 -40 -134 -46
-177 -10 -27 22 -14 27 23 8 21 -10 47 -19 58 -19z m1120 5 c39 0 59 5 75 20
16 14 22 16 18 5 -2 -8 -20 -23 -39 -33 -52 -27 -149 -8 -149 30 0 14 3 14 21
-3 15 -14 36 -19 74 -19z m-587 4 c-10 -5 -18 -18 -18 -28 0 -27 -10 -32 -34
-16 -26 19 -31 19 -51 -1 -11 -11 -14 -25 -10 -45 6 -27 3 -31 -47 -54 -53
-25 -83 -32 -75 -17 3 4 1 18 -4 31 -8 19 -12 21 -24 11 -8 -7 -15 -19 -15
-27 0 -10 -6 -12 -19 -8 -12 3 -23 0 -28 -8 -4 -8 -19 -14 -33 -13 -22 1 -25
-3 -23 -29 2 -29 -1 -32 -85 -68 -119 -53 -122 -53 -122 -29 0 11 -6 25 -14
31 -11 10 -17 7 -30 -11 -9 -12 -16 -33 -16 -45 0 -20 -4 -22 -30 -16 -25 5
-30 2 -30 -14 0 -15 -13 -25 -47 -38 -78 -29 -143 -65 -143 -78 0 -12 96 -57
432 -198 l197 -83 -40 -27 c-47 -31 -79 -74 -79 -106 0 -13 -2 -23 -4 -23 -3
0 -94 38 -203 84 -263 111 -576 243 -638 269 -27 11 -54 23 -58 27 -9 7 159
78 993 420 184 75 219 90 260 108 33 14 62 15 38 1z m507 -174 c105 -43 253
-103 330 -135 77 -31 221 -90 320 -130 99 -41 183 -76 187 -80 4 -3 -45 -28
-110 -54 -64 -27 -268 -114 -454 -193 -185 -78 -339 -143 -342 -143 -3 0 -6
14 -6 32 0 25 -10 42 -49 78 l-50 47 97 41 c427 182 522 227 522 245 0 13 -51
39 -147 77 -18 7 -33 18 -33 26 0 20 -17 26 -40 14 -18 -10 -20 -8 -20 18 0
15 -7 37 -15 48 -15 19 -15 19 -30 0 -8 -10 -16 -24 -18 -29 -2 -7 -49 8 -113
35 -102 43 -109 47 -106 72 3 31 -20 45 -43 26 -13 -10 -15 -9 -15 10 0 17 -4
21 -20 17 -13 -3 -24 1 -30 14 -15 28 -40 24 -40 -6 0 -30 1 -30 -58 -5 -26
11 -52 31 -57 43 -10 22 -21 24 -64 11 -22 -7 -23 -5 -17 20 4 17 1 34 -9 49
-8 12 -15 24 -15 28 0 4 57 -17 128 -46 70 -29 213 -87 317 -130z m-452 146
c8 -15 13 -44 12 -64 -2 -38 -23 -97 -34 -97 -3 0 -5 35 -4 77 1 54 -1 70 -7
53 -4 -14 -9 -47 -9 -75 l-1 -50 -20 43 c-18 39 -18 46 -5 65 8 12 15 29 15
37 0 17 18 40 31 40 4 0 14 -13 22 -29z m-650 -23 c34 -17 57 -33 51 -35 -13
-4 -120 42 -129 56 -11 19 13 12 78 -21z m207 22 c0 -12 -96 -60 -118 -60 -29
0 -4 23 48 45 65 27 70 28 70 15z m908 -20 c28 -13 52 -29 52 -36 0 -12 -7
-11 -37 2 -21 9 -50 20 -65 26 -16 5 -28 17 -28 25 0 8 6 13 13 10 6 -3 36
-15 65 -27z m207 20 c-10 -16 -107 -61 -124 -57 -9 2 11 17 49 35 69 33 85 38
75 22z m-773 -64 c-2 -9 4 -26 13 -38 8 -13 15 -32 14 -43 0 -19 -1 -19 -11 3
-6 12 -21 25 -33 28 -17 4 -24 15 -28 41 -4 20 -4 40 -1 45 9 14 49 -18 46
-36z m198 -41 c0 -26 -6 -39 -25 -51 -14 -9 -25 -22 -25 -30 0 -12 -29 -34
-45 -34 -10 0 22 49 53 82 14 15 23 30 20 33 -3 3 -24 -16 -47 -42 l-42 -48
22 46 c19 40 58 78 82 79 4 0 7 -16 7 -35z m-400 -24 c0 -20 -19 -82 -29 -94
-4 -4 -3 20 3 53 9 56 26 83 26 41z m567 -43 c6 -35 9 -64 8 -66 -5 -5 -35 90
-35 110 0 42 18 13 27 -44z m-2097 -33 c0 -47 -4 -85 -9 -85 -4 0 -41 14 -82
31 -41 17 -85 35 -99 41 -23 9 -17 13 75 53 55 24 103 43 108 44 4 1 7 -37 7
-84z m1744 39 c37 -45 32 -54 -8 -15 -21 20 -41 31 -50 28 -15 -6 -40 15 -31
25 13 13 65 -10 89 -38z m2049 -34 c5 -4 -31 -24 -78 -44 -48 -21 -90 -35 -93
-31 -4 3 -8 40 -10 81 l-4 74 88 -36 c49 -21 93 -40 97 -44z m-1783 49 c52
-22 79 -64 34 -53 -35 9 -31 -22 8 -63 18 -18 27 -33 20 -33 -7 0 -12 -4 -12
-8 0 -5 17 -8 38 -6 20 2 44 3 52 4 13 0 13 2 1 9 -12 8 -12 13 3 36 9 14 24
29 32 32 13 5 209 -69 227 -86 4 -4 -3 -7 -15 -7 -29 1 -26 -25 7 -73 24 -34
24 -35 5 -48 -11 -8 -20 -19 -20 -26 0 -8 3 -8 12 1 15 15 62 16 88 2 11 -6
21 -6 25 -1 3 5 -4 12 -15 16 -26 8 -25 13 9 53 l28 33 82 -32 c45 -18 78 -35
74 -39 -4 -4 -55 -27 -113 -53 -58 -25 -184 -80 -280 -122 -229 -101 -223 -99
-239 -96 -7 1 -24 6 -37 11 -22 9 -22 10 -7 49 9 22 13 51 9 65 -8 32 -76 72
-138 81 -38 6 -48 11 -48 26 0 19 8 23 48 19 15 -1 22 4 22 17 0 26 -19 43
-50 43 -14 0 -31 -5 -38 -12 -9 -9 -12 -6 -12 14 0 34 -24 55 -45 38 -21 -18
-19 -29 10 -42 16 -7 25 -19 25 -34 0 -29 -14 -38 -30 -19 -7 8 -26 15 -42 15
-17 0 -27 4 -23 10 8 14 48 13 63 -2 6 -6 15 -8 19 -4 11 10 -26 36 -51 36
-23 0 -56 -27 -56 -46 0 -19 17 -26 38 -15 13 7 22 7 30 -1 23 -23 11 -34 -48
-46 -61 -13 -114 -47 -125 -82 -3 -10 1 -35 10 -55 20 -50 20 -52 -16 -59 -26
-5 -86 17 -340 126 -170 73 -309 135 -309 139 0 3 24 15 53 27 28 11 66 26 83
33 30 12 33 11 62 -22 29 -32 30 -34 11 -43 -29 -14 -23 -27 9 -19 33 9 61 9
87 -1 15 -6 14 -2 -7 16 l-26 23 29 35 c35 41 37 67 7 72 -16 2 9 16 77 46 55
23 104 42 108 42 4 0 18 -12 31 -27 22 -25 22 -29 7 -40 -14 -11 -11 -12 21
-13 20 0 44 -3 54 -7 14 -5 16 -3 11 11 -5 12 2 29 23 53 33 37 31 58 -5 49
-41 -10 -18 30 28 48 39 15 42 15 64 -6 13 -12 23 -28 23 -35 0 -7 12 -18 26
-24 15 -5 40 -21 56 -34 34 -29 56 -32 65 -10 3 9 23 25 44 36 22 11 39 24 39
30 0 9 46 63 58 68 2 0 25 -8 52 -20z m-531 -36 c-1 -34 -2 -35 -9 -13 -11 36
-11 50 0 50 6 0 10 -17 9 -37z m652 -15 l-9 -33 -1 36 c-1 20 2 39 6 43 13 12
15 -10 4 -46z m-686 5 c10 -21 20 -41 22 -45 2 -5 2 -8 0 -8 -5 0 -57 77 -57
85 0 18 20 -1 35 -32z m745 31 c0 -12 -42 -75 -47 -70 -7 7 28 76 38 76 5 0 9
-3 9 -6z m-1515 -34 c30 0 59 6 71 15 24 18 35 19 28 1 -19 -50 -194 -45 -194
5 0 6 10 3 22 -5 13 -10 43 -16 73 -16z m1066 -6 l34 -35 -42 23 c-24 13 -43
29 -43 36 0 20 14 14 51 -24z m1194 6 c30 0 60 6 73 16 12 8 22 11 22 5 0 -21
-46 -41 -95 -41 -49 0 -95 20 -95 41 0 6 10 3 22 -5 13 -10 43 -16 73 -16z
m-2331 -46 c52 -24 79 -44 58 -44 -17 0 -120 49 -127 59 -10 17 8 13 69 -15z
m216 16 c0 -10 -30 -27 -93 -54 -35 -14 -38 -14 -35 0 2 9 28 26 58 40 62 26
70 28 70 14z m720 -15 c-13 -14 -26 -22 -29 -19 -3 3 5 14 18 25 33 27 39 24
11 -6z m545 -6 c14 -22 -3 -18 -26 7 -23 25 -23 26 -2 15 12 -6 25 -16 28 -22z
m793 0 c25 -11 42 -25 42 -35 0 -9 -5 -14 -12 -11 -94 39 -118 52 -118 64 0
16 16 13 88 -18z m202 23 c0 -4 -29 -22 -65 -40 -43 -21 -65 -27 -65 -19 0 7
24 25 53 39 54 28 77 34 77 20z m-1906 -109 c-5 -25 -9 -31 -15 -21 -11 16
-12 82 -2 92 12 12 24 -35 17 -71z m1296 25 c0 -24 -5 -50 -10 -58 -7 -11 -10
2 -10 43 0 31 4 57 10 57 6 0 10 -19 10 -42z m-1341 -47 c22 -31 27 -46 11
-36 -17 10 -52 65 -41 65 5 0 19 -13 30 -29z m1401 20 c0 -17 -49 -67 -50 -52
0 8 10 25 22 38 24 25 28 27 28 14z m-1321 -33 c-31 -45 -33 -46 -24 -18 9 30
24 50 37 50 5 0 -1 -15 -13 -32z m1215 10 c22 -31 21 -61 0 -33 -9 11 -20 28
-25 38 -14 25 7 22 25 -5z m-634 -18 c0 -5 -2 -10 -4 -10 -3 0 -8 5 -11 10 -3
6 -1 10 4 10 6 0 11 -4 11 -10z m94 -49 c3 -5 -9 -11 -28 -13 -24 -3 -32 0
-29 9 6 15 49 18 57 4z m-64 -87 c0 -12 3 -36 6 -53 6 -28 4 -31 -20 -31 -25
0 -26 2 -26 54 0 49 2 55 20 53 13 -1 20 -8 20 -23z m-75 -14 c-11 -5 -32 -11
-46 -14 -45 -10 -73 -39 -66 -68 10 -39 56 -53 177 -53 87 0 110 3 133 19 22
15 27 25 25 50 -3 27 -9 33 -48 45 -25 8 -54 17 -65 22 -49 19 26 8 80 -12
146 -54 57 -144 -140 -144 -100 1 -174 25 -195 65 -10 18 -8 26 11 46 24 25
90 52 129 53 23 0 23 -1 5 -9z m17 -52 c3 -31 5 -33 43 -33 37 0 40 2 45 31
l5 31 46 -13 c100 -30 56 -75 -77 -82 -155 -8 -231 46 -119 86 47 16 54 14 57
-20z m14 -126 c57 -3 96 0 136 12 72 21 76 20 45 -4 -89 -71 -255 -66 -321 9
l-19 21 39 -16 c21 -9 75 -19 120 -22z m-142 -11 c3 -5 -15 -16 -40 -25 -95
-32 -145 -91 -125 -148 12 -32 10 -33 -29 -13 -74 38 -5 127 139 180 45 17 48
17 55 6z m468 -37 c25 -13 56 -36 68 -51 28 -36 24 -83 -10 -100 -31 -15 -33
-12 -20 22 8 22 7 34 -7 59 -17 29 -91 75 -143 89 -12 3 -19 10 -16 15 8 13
65 -2 128 -34z m-403 -3 c12 -8 8 -11 -15 -16 -89 -19 -123 -30 -156 -51 -42
-27 -51 -19 -15 12 19 18 68 42 117 58 25 8 54 6 69 -3z m342 -22 c44 -22 79
-53 79 -69 0 -6 -10 -2 -22 10 -23 21 -117 60 -146 60 -9 0 -28 3 -41 7 -23 6
-24 7 -5 14 27 12 89 2 135 -22z m-183 -62 c10 -55 10 -63 -5 -74 -22 -17 -74
-17 -97 0 -16 11 -16 19 -5 77 l12 65 41 -3 42 -4 12 -61z m-124 26 c-3 -16
-10 -41 -14 -56 -5 -15 -7 -34 -4 -41 14 -37 116 -48 155 -18 21 18 22 22 11
77 -7 32 -10 61 -7 63 8 9 118 -19 172 -43 68 -30 78 -59 34 -96 -53 -44 -139
-64 -276 -64 -143 0 -225 21 -283 71 l-37 33 25 25 c27 27 157 75 203 76 25 0
27 -3 21 -27z m115 -224 c-45 -20 -45 -20 -90 0 l-44 20 90 0 90 0 -46 -20z"/>
<path d="M4727 3080 c-22 -26 -21 -33 3 -55 11 -10 20 -22 20 -28 0 -5 -8 1
-18 13 -17 20 -21 21 -43 9 -13 -8 -25 -15 -27 -15 -1 -1 2 -13 7 -28 9 -22
16 -26 43 -24 30 3 33 0 38 -34 4 -20 3 -35 -2 -32 -4 3 -8 14 -8 24 0 16 -7
19 -35 18 -43 -2 -46 -6 -36 -44 7 -26 12 -29 47 -29 35 0 39 -3 42 -27 4 -38
22 -36 22 2 0 31 3 34 50 44 19 4 25 12 27 35 2 24 -2 30 -25 34 -34 7 -42 1
-42 -28 0 -13 -5 -27 -11 -30 -7 -5 -9 6 -7 31 3 33 7 39 37 49 21 7 35 19 37
30 4 24 -15 48 -33 41 -9 -4 -13 3 -13 19 0 16 -6 25 -15 25 -8 0 -15 5 -15
10 0 17 -25 11 -43 -10z m50 -20 c14 0 13 -3 -2 -20 -23 -25 -40 -12 -29 21 4
13 9 18 11 12 3 -7 12 -13 20 -13z m4 -57 c-8 -15 -10 -15 -11 -2 0 17 10 32
18 25 2 -3 -1 -13 -7 -23z m37 -5 c-2 -6 -10 -14 -16 -16 -7 -2 -10 2 -6 12 7
18 28 22 22 4z m-99 -15 c0 -5 -3 -9 -9 -11 -5 -2 -10 4 -10 13 0 16 16 14 19
-2z m100 -92 c-15 -5 -22 6 -14 19 6 9 10 9 16 -1 5 -8 4 -15 -2 -18z m-95
-13 c-3 -4 -12 -8 -20 -8 -15 0 -15 21 1 32 11 8 26 -12 19 -24z"/>
<path d="M5490 3090 c0 -5 -7 -10 -15 -10 -10 0 -15 -10 -15 -27 0 -14 -3 -23
-6 -20 -4 3 -15 2 -26 -4 -13 -7 -17 -18 -15 -37 3 -23 9 -27 40 -30 36 -3 37
-4 36 -45 l-1 -42 -11 32 c-7 18 -15 33 -19 33 -56 1 -57 0 -53 -27 2 -16 4
-31 4 -35 1 -5 16 -8 35 -8 37 0 53 -21 40 -54 -3 -9 -1 -16 5 -16 6 0 11 9
11 19 0 25 17 36 55 36 22 0 30 4 29 18 -1 9 2 17 7 17 19 0 8 28 -13 34 -38
10 -46 7 -57 -21 -10 -27 -10 -26 -8 12 2 39 3 40 35 37 20 -2 34 2 37 10 10
30 9 53 -2 53 -6 0 -15 3 -19 8 -13 12 -20 8 -33 -19 -6 -15 -15 -24 -18 -20
-4 3 3 20 15 36 26 35 26 35 5 60 -18 21 -43 27 -43 10z m29 -56 c-16 -19 -30
-5 -23 23 5 20 8 21 21 7 12 -12 13 -17 2 -30z m-29 -29 c0 -8 -2 -15 -4 -15
-2 0 -6 7 -10 15 -3 8 -1 15 4 15 6 0 10 -7 10 -15z m-26 -10 c3 -9 0 -15 -8
-15 -8 0 -16 7 -20 15 -3 9 0 15 8 15 8 0 16 -7 20 -15z m100 -10 c-4 -8 -10
-15 -15 -15 -5 0 -9 7 -9 15 0 8 7 15 15 15 9 0 12 -6 9 -15z m-114 -95 c-18
-11 -22 -7 -14 14 5 13 10 14 18 6 8 -8 7 -13 -4 -20z m117 -5 c0 -8 -9 -15
-19 -15 -20 0 -21 1 -12 24 7 18 31 11 31 -9z"/>
<path d="M2165 2383 c-90 -35 -122 -53 -94 -53 15 0 175 61 205 79 42 24 -22
9 -111 -26z"/>
<path d="M7986 2421 c13 -14 184 -81 203 -81 24 1 -25 25 -119 60 -87 32 -99
35 -84 21z"/>
<path d="M3434 2425 c-10 -15 -15 -38 -12 -60 3 -29 1 -34 -11 -29 -9 4 -29 9
-44 12 -26 4 -28 3 -21 -24 9 -37 20 -52 66 -80 45 -29 52 -64 14 -64 -29 0
-46 -19 -19 -21 10 -1 31 -2 46 -3 16 -1 33 -10 39 -19 6 -12 14 -15 25 -8 9
4 25 6 36 3 14 -3 18 -1 13 6 -4 7 -20 12 -35 12 -35 0 -51 17 -51 52 0 21 6
29 25 34 53 13 104 114 57 114 -10 0 -28 -7 -40 -16 -22 -15 -22 -15 -22 28 0
42 -21 88 -40 88 -5 0 -17 -11 -26 -25z m46 -31 c13 -32 -6 -112 -22 -96 -12
12 -23 86 -15 107 9 23 26 18 37 -11z m-68 -84 c22 -17 44 -60 31 -60 -13 0
-73 54 -73 66 0 19 13 17 42 -6z m148 11 c0 -23 -15 -43 -41 -56 -15 -8 -30
-15 -34 -15 -14 0 -2 24 24 51 29 29 51 37 51 20z"/>
<path d="M6760 2408 c-11 -18 -20 -46 -20 -62 0 -23 -3 -27 -17 -21 -10 4 -27
8 -38 9 -16 1 -20 -5 -18 -27 3 -36 17 -54 65 -78 26 -13 38 -26 38 -41 0 -25
-26 -47 -57 -48 -34 0 -36 -17 -3 -22 16 -3 35 1 42 9 7 7 34 14 58 17 52 4
60 20 12 24 -29 3 -32 6 -26 25 3 12 7 22 8 23 0 0 18 11 39 23 41 25 57 48
57 82 0 22 -17 23 -63 4 -13 -5 -16 -3 -11 8 7 20 -12 81 -31 97 -11 10 -18 5
-35 -22z m40 -24 c10 -26 -5 -104 -20 -104 -19 0 -26 81 -10 111 14 25 19 24
30 -7z m-76 -85 c14 -11 31 -29 36 -40 17 -31 -16 -24 -51 10 -47 47 -36 70
15 30z m156 15 c0 -17 -24 -46 -50 -59 -37 -19 -38 -6 -4 34 23 27 54 42 54
25z"/>
<path d="M6725 2270 c3 -5 11 -10 16 -10 6 0 7 5 4 10 -3 6 -11 10 -16 10 -6
0 -7 -4 -4 -10z"/>
<path d="M2860 2141 c-153 -64 -189 -83 -175 -88 9 -3 312 121 323 131 2 2 0
6 -5 9 -4 3 -69 -21 -143 -52z"/>
<path d="M6090 1627 c14 -6 76 -35 139 -64 63 -29 116 -51 119 -48 8 8 3 11
-122 70 -65 30 -127 55 -139 54 -21 0 -21 -1 3 -12z"/>
<path d="M4041 1585 c-127 -56 -138 -61 -129 -70 7 -8 265 102 274 117 10 16
-24 5 -145 -47z"/>
<path d="M5420 1801 c-14 -28 -12 -102 5 -131 8 -14 14 -34 14 -45 0 -13 -5
-7 -15 16 -14 34 -47 59 -79 59 -39 0 5 -89 53 -109 26 -11 53 -47 40 -55 -1
-1 -20 -9 -41 -19 -21 -9 -35 -22 -32 -27 4 -6 12 -6 23 0 32 18 123 50 143
50 12 0 17 4 13 11 -4 7 -21 9 -40 6 -28 -5 -34 -3 -34 13 0 10 15 27 34 38
23 14 39 34 51 66 24 62 11 77 -39 48 l-36 -21 0 28 c0 41 -20 91 -36 91 -7 0
-18 -9 -24 -19z m39 -36 c5 -20 6 -47 1 -62 -8 -27 -8 -26 -9 10 -1 43 -18 50
-24 10 -4 -26 -4 -25 -6 5 -1 30 13 72 24 72 2 0 8 -16 14 -35z m86 -77 c-8
-26 -44 -68 -57 -68 -5 0 0 14 12 30 27 37 19 39 -16 3 l-27 -28 18 30 c33 54
83 77 70 33z m-153 -25 c22 -19 25 -41 3 -23 -15 13 -21 2 -7 -16 4 -5 -3 1
-15 14 -38 38 -21 61 19 25z"/>
<path d="M4804 1805 c-12 -18 -15 -39 -12 -77 5 -48 5 -50 -11 -31 -23 30 -61
47 -74 34 -18 -18 20 -97 59 -121 19 -12 34 -30 34 -40 0 -15 -6 -17 -40 -13
-52 7 -54 -13 -2 -22 44 -7 108 -28 118 -38 11 -10 24 -8 24 4 0 5 -16 17 -35
25 -46 19 -44 38 5 69 42 27 56 46 61 85 6 39 -26 37 -66 -3 -38 -38 -43 -37
-20 3 19 33 19 84 0 120 -9 17 -18 30 -20 30 -3 0 -12 -11 -21 -25z m33 -61
c1 -45 0 -46 -7 -14 l-7 35 -2 -35 c-1 -30 -3 -32 -12 -17 -14 23 -2 90 14 84
7 -2 13 -25 14 -53z m-69 -57 c12 -11 22 -25 22 -30 0 -6 -10 -2 -22 9 -23 20
-17 3 10 -28 22 -26 -1 -22 -26 5 -26 27 -42 84 -21 72 8 -4 24 -17 37 -28z
m152 -4 c0 -17 -40 -73 -52 -73 -9 0 -9 3 0 12 18 18 14 32 -5 17 -15 -13 -15
-12 -5 8 16 30 62 56 62 36z"/>
<path d="M4705 1284 c-117 -59 -121 -61 -113 -69 4 -5 206 92 238 114 13 10
13 11 0 10 -8 0 -64 -25 -125 -55z"/>
<path d="M5396 1319 c10 -17 253 -131 267 -126 11 4 -248 137 -266 137 -5 0
-5 -5 -1 -11z"/>
</g>
</svg>
