<?xml version="1.0" standalone="no"?>
<!DOCTYPE svg PUBLIC "-//W3C//DTD SVG 20010904//EN"
 "http://www.w3.org/TR/2001/REC-SVG-20010904/DTD/svg10.dtd">
<svg version="1.0" xmlns="http://www.w3.org/2000/svg"
 width="1024.000000pt" height="559.000000pt" viewBox="0 0 1024.000000 559.000000"
 preserveAspectRatio="xMidYMid meet">
<metadata>
Created by potrace 1.16, written by Peter Selinger 2001-2019
</metadata>
<g transform="translate(0.000000,559.000000) scale(0.100000,-0.100000)"
fill="#000000" stroke="none">
<path d="M4934 4516 c-38 -17 -74 -61 -74 -91 0 -13 15 -45 34 -72 75 -110
125 -235 150 -376 l13 -77 -26 -5 c-131 -26 -205 -61 -280 -135 -96 -95 -139
-197 -196 -466 -57 -271 -94 -362 -264 -633 -151 -240 -194 -340 -226 -519
-79 -455 211 -942 635 -1063 84 -25 195 -24 290 1 97 25 167 25 266 -1 209
-55 428 14 622 195 320 302 401 767 202 1167 -21 41 -81 144 -134 228 -165
260 -200 345 -261 628 -19 90 -44 190 -55 224 -68 201 -176 311 -355 360 -44
12 -81 23 -83 24 -6 5 26 61 43 75 13 11 27 9 89 -8 142 -42 295 -45 406 -11
165 52 315 193 430 402 36 67 41 81 29 92 -19 18 -255 65 -364 72 -324 20
-547 -142 -599 -437 -6 -36 -15 -71 -19 -77 -15 -24 -27 -13 -27 26 0 96 -80
388 -124 454 -25 37 -71 46 -122 23z m76 -35 c0 -17 -62 -61 -86 -61 -21 0
-23 3 -14 19 5 11 20 27 32 35 24 17 68 22 68 7z m1029 -30 c52 -12 96 -23 99
-25 2 -3 -13 -33 -34 -68 -114 -189 -228 -294 -380 -349 -78 -29 -259 -31
-349 -5 -95 27 -90 24 -69 47 87 96 383 241 602 294 74 18 101 41 35 30 -140
-24 -339 -91 -453 -153 -56 -30 -129 -78 -201 -131 -24 -17 -24 -8 1 71 46
149 170 265 325 305 74 19 306 10 424 -16z m-966 -121 c53 -160 69 -270 65
-444 -2 -102 -7 -151 -15 -153 -7 -3 -13 24 -17 84 -17 232 -73 420 -162 540
l-24 31 29 7 c16 3 39 17 52 31 12 13 26 21 31 16 4 -4 23 -54 41 -112z m-13
-535 c0 -30 -2 -55 -4 -55 -2 0 -23 7 -47 15 -51 18 -74 6 -36 -19 75 -50 235
-48 299 3 27 23 20 35 -13 23 -13 -5 -37 -12 -53 -16 l-29 -7 5 51 c3 28 8 53
11 57 4 3 28 0 54 -6 203 -51 311 -189 374 -479 50 -230 69 -302 99 -381 31
-80 120 -242 205 -371 162 -249 226 -452 212 -680 -15 -233 -107 -431 -281
-606 -186 -186 -387 -251 -603 -195 -103 27 -164 27 -266 -1 -145 -38 -255
-26 -390 43 -216 109 -374 300 -457 550 -67 207 -47 460 55 678 19 40 80 144
134 231 175 277 208 358 277 668 77 352 148 457 357 533 29 10 62 18 75 19 20
0 22 -5 22 -55z"/>
<path d="M4815 3638 c-67 -79 -113 -203 -129 -348 -8 -72 6 -42 33 75 25 104
66 196 117 266 44 60 29 65 -21 7z"/>
<path d="M5540 3279 c0 -3 9 -52 19 -110 25 -134 63 -254 112 -352 47 -93 128
-221 136 -214 2 3 -13 36 -35 74 -99 170 -139 271 -184 458 -17 71 -35 134
-39 140 -5 5 -9 7 -9 4z"/>
<path d="M4219 2174 c-17 -40 -17 -284 0 -359 20 -88 66 -199 115 -274 38 -58
96 -124 96 -109 0 3 -24 41 -54 85 -120 179 -181 440 -146 623 12 61 6 76 -11
34z"/>
<path d="M5911 1583 c-62 -105 -140 -196 -224 -260 -34 -26 -64 -48 -66 -50
-2 -2 -2 -5 1 -8 6 -6 113 64 154 102 58 54 127 148 162 221 19 40 32 75 30
78 -3 2 -29 -35 -57 -83z"/>
</g>
</svg>
