<?xml version="1.0" standalone="no"?>
<!DOCTYPE svg PUBLIC "-//W3C//DTD SVG 20010904//EN"
 "http://www.w3.org/TR/2001/REC-SVG-20010904/DTD/svg10.dtd">
<svg version="1.0" xmlns="http://www.w3.org/2000/svg"
 width="1024.000000pt" height="559.000000pt" viewBox="0 0 1024.000000 559.000000"
 preserveAspectRatio="xMidYMid meet">
<metadata>
Created by potrace 1.16, written by Peter Selinger 2001-2019
</metadata>
<g transform="translate(0.000000,559.000000) scale(0.100000,-0.100000)"
fill="#000000" stroke="none">
<path d="M4285 4150 c-178 -23 -377 -92 -580 -203 -274 -149 -446 -260 -695
-451 -91 -69 -216 -163 -279 -207 -123 -88 -252 -205 -305 -278 -50 -68 -61
-118 -42 -192 15 -57 15 -62 -4 -99 -29 -57 -26 -93 12 -136 35 -39 46 -45
273 -136 238 -96 540 -194 1176 -383 537 -159 831 -248 1259 -382 446 -139
498 -154 730 -218 196 -54 285 -81 435 -130 140 -47 443 -134 560 -161 157
-37 232 -37 305 -3 84 40 204 144 319 275 57 65 165 180 241 254 102 100 143
149 163 190 52 108 45 221 -18 303 -21 27 -76 72 -146 117 -130 85 -234 169
-432 352 -214 197 -350 303 -607 475 -58 39 -178 125 -267 191 -284 211 -458
317 -586 357 -94 30 -126 46 -171 85 -77 68 -521 244 -796 316 -234 62 -404
81 -545 64z m437 -80 c131 -32 165 -50 94 -50 -44 0 -129 -26 -196 -60 -72
-37 -110 -68 -43 -35 94 45 153 65 243 81 105 18 95 20 360 -79 271 -102 348
-137 418 -190 43 -32 95 -59 151 -79 108 -38 200 -84 321 -161 105 -66 336
-235 362 -264 31 -34 132 -237 159 -323 16 -47 28 -75 29 -63 0 35 -55 177
-105 269 -25 46 -45 86 -45 89 0 6 231 -151 385 -263 136 -99 258 -202 440
-372 142 -132 237 -208 356 -286 53 -34 112 -78 132 -98 71 -71 81 -192 23
-290 -27 -45 -142 -161 -133 -133 25 72 48 159 45 173 -2 10 -18 -34 -36 -97
-33 -112 -35 -115 -99 -181 -37 -37 -71 -64 -76 -61 -6 3 -7 1 -3 -5 4 -7 2
-12 -3 -12 -6 0 -11 -5 -11 -11 0 -13 -128 -159 -194 -222 -66 -61 -163 -127
-188 -127 -11 0 -61 14 -111 30 -50 17 -155 42 -233 56 -183 32 -248 49 -417
113 -151 57 -269 94 -727 230 -510 151 -812 247 -870 276 -161 81 -287 196
-315 288 -10 30 -21 122 -26 217 -25 424 -26 429 -25 115 1 -322 -2 -349 -50
-380 -56 -36 -262 -62 -279 -35 -3 6 -21 10 -38 10 -18 0 -70 11 -117 24 -101
28 -484 143 -520 156 -14 5 -86 28 -160 50 -213 66 -340 112 -340 122 0 5 -27
46 -59 91 -109 152 -146 259 -139 400 3 43 1 72 -3 65 -14 -22 -10 -170 6
-233 20 -75 61 -152 131 -244 31 -40 54 -74 52 -77 -7 -6 -106 33 -207 83
-110 53 -164 103 -209 193 -60 119 -39 193 70 253 64 36 234 97 268 97 10 0
21 4 25 9 9 15 138 41 202 41 64 0 138 -13 343 -60 74 -17 180 -39 235 -50 98
-18 135 -24 365 -56 145 -20 212 -38 386 -107 76 -31 189 -74 249 -97 195 -74
353 -167 661 -391 231 -168 312 -217 529 -323 72 -35 209 -102 305 -149 96
-48 229 -115 295 -151 85 -47 169 -81 292 -122 278 -90 361 -140 398 -238 18
-46 17 -128 0 -170 -6 -14 -5 -18 6 -14 39 13 54 130 25 200 -46 109 -142 167
-432 258 -81 25 -179 66 -255 106 -68 35 -269 136 -445 223 -392 193 -457 231
-699 407 -330 240 -469 320 -715 412 -74 28 -180 70 -235 92 -151 62 -275 91
-490 115 -146 16 -422 69 -439 86 -5 4 31 33 82 66 49 32 99 63 109 70 10 7 0
5 -22 -4 -46 -18 -164 -92 -182 -115 -12 -13 -22 -13 -95 3 -251 55 -335 52
-538 -14 -74 -24 -153 -52 -175 -62 l-40 -17 39 41 c22 22 107 90 190 151 83
60 216 159 296 220 340 259 716 479 956 560 189 63 229 69 409 67 144 -3 174
-6 297 -37z m-2252 -1381 c29 -48 122 -118 206 -155 194 -86 572 -211 1184
-389 332 -97 1079 -321 1365 -409 154 -48 366 -112 470 -142 383 -112 523
-156 650 -204 185 -71 207 -76 465 -120 30 -6 102 -24 159 -42 93 -29 101 -33
75 -40 -18 -5 -59 -2 -109 7 -97 19 -280 62 -315 74 -14 5 -59 19 -100 31 -41
13 -142 44 -225 71 -151 48 -383 117 -485 144 -200 54 -263 72 -415 120 -93
29 -231 72 -305 95 -74 23 -211 66 -305 95 -197 62 -471 145 -645 195 -706
202 -1151 345 -1472 472 -191 75 -234 99 -258 140 -13 25 -13 31 4 63 11 19
22 35 25 35 4 0 17 -18 31 -41z m1990 -572 c33 -46 88 -96 158 -142 23 -15 41
-29 39 -31 -6 -6 -527 151 -527 159 0 4 15 5 34 2 49 -10 155 20 189 52 17 17
30 42 34 67 l6 40 18 -52 c10 -29 32 -72 49 -95z"/>
<path d="M3925 3956 c-19 -46 -12 -74 22 -82 21 -6 321 58 458 97 89 25 -101
-8 -238 -42 -87 -22 -176 -39 -198 -39 -35 0 -39 2 -39 26 0 14 5 34 11 46 6
11 8 22 5 25 -3 4 -13 -11 -21 -31z"/>
<path d="M4240 3753 c-166 -87 -269 -156 -373 -250 -47 -43 -84 -80 -82 -82 2
-1 43 31 92 74 101 87 218 166 362 244 91 49 144 81 131 80 -3 0 -61 -30 -130
-66z"/>
<path d="M4118 3803 c12 -2 32 -2 45 0 12 2 2 4 -23 4 -25 0 -35 -2 -22 -4z"/>
<path d="M4850 3800 c-43 -5 -28 -7 70 -9 189 -2 329 -24 397 -60 42 -23 51
-26 38 -11 -10 11 -41 28 -69 39 -83 31 -331 54 -436 41z"/>
<path d="M4010 3790 c-14 -4 -69 -21 -124 -36 -54 -15 -94 -30 -88 -32 6 -2
35 4 64 13 29 9 94 27 143 40 50 13 77 24 60 24 -16 -1 -41 -4 -55 -9z"/>
<path d="M3339 3613 c-12 -26 -22 -68 -23 -93 -1 -43 0 -45 29 -48 19 -2 64
11 115 33 149 64 250 95 420 129 14 3 -2 2 -35 -1 -92 -8 -233 -48 -365 -103
-66 -28 -127 -50 -135 -50 -28 0 -28 29 -2 103 30 84 28 100 -4 30z"/>
<path d="M4330 3645 c-100 -17 -36 -17 115 -1 119 13 119 14 40 13 -44 0 -114
-5 -155 -12z"/>
<path d="M5444 3635 c-33 -16 -62 -42 -85 -73 l-33 -47 54 55 c33 33 73 62
100 72 25 9 38 17 29 17 -8 1 -38 -10 -65 -24z"/>
<path d="M4934 3636 c11 -9 24 -16 30 -16 12 0 7 5 -24 19 -24 11 -24 11 -6
-3z"/>
<path d="M5492 3573 c-129 -68 -164 -100 -46 -40 82 41 192 107 178 107 -5 -1
-64 -30 -132 -67z"/>
<path d="M4420 3570 c-20 -5 8 -6 65 -3 55 3 102 7 104 9 8 7 -133 1 -169 -6z"/>
<path d="M3076 3433 c-59 -94 -59 -164 0 -176 40 -7 107 13 289 86 135 54 222
81 350 110 15 4 14 5 -6 6 -51 2 -216 -47 -394 -118 -138 -55 -189 -71 -220
-69 -39 3 -40 4 -43 46 -3 34 4 56 32 108 20 35 34 64 32 64 -3 0 -21 -26 -40
-57z"/>
<path d="M5850 3436 c0 -2 8 -10 18 -17 15 -13 16 -12 3 4 -13 16 -21 21 -21
13z"/>
<path d="M4215 3403 c-124 -11 -490 -76 -504 -89 -9 -8 26 -3 119 16 131 27
372 60 510 69 l115 8 -100 0 c-55 0 -118 -2 -140 -4z"/>
<path d="M5197 3396 c-50 -18 -113 -63 -138 -97 -27 -38 -24 -46 5 -12 36 42
98 83 159 104 28 10 43 18 32 18 -11 0 -37 -6 -58 -13z"/>
<path d="M5939 3355 c71 -82 172 -234 215 -325 20 -41 56 -145 80 -231 69
-239 99 -303 177 -374 25 -23 21 -16 -15 29 -26 33 -55 76 -65 95 -22 43 -74
202 -96 291 -25 102 -62 192 -116 282 -60 99 -143 210 -195 258 -27 25 -22 17
15 -25z"/>
<path d="M5480 3367 c0 -2 28 -21 63 -43 34 -21 89 -65 121 -98 33 -34 50 -47
38 -29 -33 47 -120 121 -174 149 -26 13 -48 23 -48 21z"/>
<path d="M3655 3300 c-13 -5 -14 -9 -5 -9 8 0 24 4 35 9 13 5 14 9 5 9 -8 0
-24 -4 -35 -9z"/>
<path d="M4170 3273 c-53 -10 -38 -20 17 -11 31 5 59 11 62 13 5 6 -43 4 -79
-2z"/>
<path d="M4849 3207 c-20 -18 -87 -59 -148 -92 -112 -60 -221 -137 -221 -155
0 -6 24 10 54 34 30 24 107 72 171 107 111 61 196 121 185 132 -3 3 -21 -9
-41 -26z"/>
<path d="M4895 3150 c-22 -11 -68 -47 -103 -80 -35 -33 -85 -71 -112 -85 -28
-14 -50 -28 -50 -30 0 -17 115 56 165 105 33 32 83 70 110 84 28 14 46 26 40
26 -5 0 -28 -9 -50 -20z"/>
<path d="M2782 3061 c-32 -137 9 -256 151 -446 47 -63 121 -127 202 -175 54
-32 44 -23 -50 47 -124 92 -234 239 -279 375 -28 83 -32 131 -15 191 6 21 9
43 7 49 -2 6 -9 -13 -16 -41z"/>
<path d="M3150 3084 c0 -5 7 -34 16 -64 13 -48 54 -354 71 -537 5 -59 5 -61
-18 -66 -23 -4 -23 -4 3 -6 38 -2 42 21 24 131 -9 51 -22 161 -31 243 -8 83
-24 184 -36 225 -19 70 -29 96 -29 74z"/>
<path d="M3351 3051 c-1 -37 9 -62 54 -140 72 -127 92 -176 115 -274 15 -61
18 -69 14 -32 -9 90 -34 158 -101 278 -38 70 -68 137 -73 165 l-8 47 -1 -44z"/>
<path d="M2956 3013 c-15 -38 -18 -132 -6 -169 25 -74 129 -234 153 -234 5 0
7 10 3 23 -3 12 -13 67 -22 122 -9 55 -20 107 -25 115 -6 10 -7 5 -4 -15 3
-16 12 -72 21 -124 8 -51 13 -95 12 -97 -6 -5 -89 126 -114 180 -13 28 -24 69
-24 91 0 49 17 115 30 115 5 0 18 -17 29 -37 11 -21 20 -33 21 -28 0 19 -40
75 -54 75 -8 0 -17 -8 -20 -17z"/>
<path d="M3590 3015 c0 -18 77 -145 87 -145 3 0 -3 12 -13 28 -10 15 -31 51
-46 81 -16 30 -28 46 -28 36z"/>
<path d="M5359 2996 c19 -20 37 -36 39 -36 8 0 -44 59 -58 65 -8 3 1 -10 19
-29z"/>
<path d="M5417 2995 c9 -19 18 -33 21 -31 4 5 -26 66 -33 66 -3 0 3 -16 12
-35z"/>
<path d="M2582 2939 c-2 -90 4 -117 48 -214 15 -33 35 -81 45 -107 10 -27 20
-48 22 -48 10 0 -8 51 -54 157 -40 94 -47 121 -53 203 l-7 95 -1 -86z"/>
<path d="M6307 2905 c7 -51 35 -116 58 -135 11 -9 8 0 -9 24 -14 21 -26 46
-27 55 0 9 -7 34 -14 56 l-14 40 6 -40z"/>
<path d="M5190 2863 c18 -34 41 -70 52 -80 11 -10 -1 15 -26 56 -57 93 -68
103 -26 24z"/>
<path d="M2521 2875 c-1 -35 25 -148 40 -177 18 -34 20 -14 3 33 -8 24 -22 73
-29 109 -8 39 -13 53 -14 35z"/>
<path d="M3341 2874 c-2 -43 26 -248 44 -319 21 -84 67 -174 111 -215 22 -21
32 -27 26 -15 -5 11 -20 29 -31 39 -30 28 -67 93 -84 154 -13 43 -40 204 -60
357 l-4 30 -2 -31z"/>
<path d="M5976 2735 c24 -52 65 -167 91 -255 26 -87 49 -158 51 -156 5 5 -34
157 -65 251 -26 82 -98 241 -114 250 -4 3 12 -37 37 -90z"/>
<path d="M4456 2811 c-16 -25 -36 -109 -35 -146 1 -35 2 -33 14 25 7 36 18 78
24 94 11 28 9 47 -3 27z"/>
<path d="M6621 2804 c0 -11 3 -14 6 -6 3 7 2 16 -1 19 -3 4 -6 -2 -5 -13z"/>
<path d="M4049 2774 c21 -43 102 -122 142 -138 38 -15 43 -15 66 -1 31 21 43
54 42 113 l-1 47 -8 -50 c-11 -77 -19 -94 -46 -101 -45 -12 -99 25 -184 126
-17 20 -19 21 -11 4z"/>
<path d="M3850 2678 c58 -57 128 -119 155 -137 42 -27 45 -28 15 -4 -19 15
-89 77 -155 137 l-120 109 105 -105z"/>
<path d="M6790 2746 c0 -2 7 -17 15 -32 8 -16 15 -38 15 -50 0 -11 6 -27 13
-35 16 -21 87 -61 87 -49 0 5 -9 11 -19 15 -37 11 -71 46 -71 71 0 24 -25 84
-35 84 -3 0 -5 -2 -5 -4z"/>
<path d="M4526 2653 c10 -43 52 -111 77 -124 20 -11 20 -9 -4 17 -30 33 -59
86 -59 108 0 8 -5 18 -10 21 -7 4 -9 -3 -4 -22z"/>
<path d="M5574 2604 c36 -74 75 -205 77 -258 1 -17 5 -42 10 -56 14 -41 -1 97
-18 164 -16 66 -61 170 -87 201 -9 11 -1 -12 18 -51z"/>
<path d="M6380 2663 c0 -13 29 -38 35 -31 3 3 -4 13 -15 23 -11 10 -20 13 -20
8z"/>
<path d="M3701 2649 c-1 -8 6 -24 15 -35 15 -19 15 -19 6 1 -5 11 -12 27 -15
35 -5 13 -6 13 -6 -1z"/>
<path d="M7057 2623 c3 -10 9 -22 14 -28 24 -32 84 -203 106 -303 22 -100 54
-192 67 -192 2 0 -5 23 -16 52 -11 29 -28 94 -39 146 -22 103 -51 186 -98 280
-30 59 -48 82 -34 45z"/>
<path d="M4780 2601 c0 -5 -21 -23 -47 -40 -52 -34 -40 -43 13 -10 36 22 63
59 44 59 -5 0 -10 -4 -10 -9z"/>
<path d="M3730 2586 c0 -2 8 -10 18 -17 15 -13 16 -12 3 4 -13 16 -21 21 -21
13z"/>
<path d="M6846 2530 c12 -13 27 -21 33 -19 6 2 -4 12 -22 22 l-32 18 21 -21z"/>
<path d="M3605 2520 c13 -22 203 -228 258 -280 51 -47 102 -79 127 -79 8 -1
-5 9 -29 22 -47 24 -98 71 -260 242 -58 60 -101 103 -96 95z"/>
<path d="M6690 2528 c0 -15 40 -107 95 -218 31 -63 69 -151 85 -195 16 -44 29
-75 29 -69 2 21 -30 114 -63 185 -56 123 -146 304 -146 297z"/>
<path d="M3821 2516 c4 -4 36 -28 72 -54 36 -26 96 -72 134 -103 70 -58 123
-95 123 -86 0 2 -17 16 -38 30 -21 14 -70 52 -108 84 -73 63 -209 159 -183
129z"/>
<path d="M4337 2474 c-11 -14 -37 -29 -65 -36 -25 -6 -41 -13 -35 -15 36 -12
131 39 122 65 -2 6 -12 -1 -22 -14z"/>
<path d="M4450 2463 c0 -6 21 -33 48 -61 61 -66 119 -92 197 -90 l60 1 -68 8
c-81 9 -138 40 -196 105 -23 26 -41 42 -41 37z"/>
<path d="M5860 2448 c0 -3 11 -48 24 -100 14 -51 28 -112 31 -135 4 -24 10
-45 14 -48 16 -9 -37 237 -59 274 -5 9 -10 13 -10 9z"/>
<path d="M5109 2424 c-20 -24 -62 -43 -156 -69 -49 -13 -79 -24 -68 -24 33 -1
143 28 183 48 39 20 83 61 65 61 -6 0 -16 -7 -24 -16z"/>
<path d="M7330 2302 c23 -82 34 -103 64 -122 23 -14 136 -43 143 -36 5 4 -32
16 -102 32 -47 11 -64 32 -87 108 -28 95 -43 109 -18 18z"/>
<path d="M5365 2219 c-46 -47 -137 -86 -313 -134 -180 -50 -285 -58 -377 -30
-27 8 -51 12 -53 10 -3 -3 1 -7 9 -9 8 -2 32 -10 54 -17 78 -25 206 -15 365
29 205 57 311 107 340 162 14 27 10 25 -25 -11z"/>
<path d="M6170 2185 c0 -23 64 -119 120 -178 33 -36 66 -80 75 -98 8 -21 14
-27 15 -16 0 29 -19 57 -86 129 -35 38 -77 92 -94 120 -16 29 -30 49 -30 43z"/>
<path d="M7710 2083 c-77 -60 -100 -85 -160 -174 -68 -101 -134 -162 -221
-209 -139 -73 -210 -135 -208 -181 0 -8 4 -4 9 8 12 29 80 78 193 139 115 62
177 119 243 219 52 80 87 118 157 170 42 31 66 66 45 64 -7 0 -33 -16 -58 -36z"/>
<path d="M5535 2081 c-22 -16 -62 -42 -90 -59 -27 -17 -77 -48 -110 -69 -33
-21 -96 -52 -140 -70 -44 -18 -76 -32 -72 -33 28 -1 122 36 184 73 142 83 273
169 273 178 0 11 2 12 -45 -20z"/>
<path d="M7374 2030 c16 -5 45 -5 65 -1 32 8 29 9 -29 9 -52 0 -59 -1 -36 -8z"/>
<path d="M5880 1992 c0 -6 -28 -28 -61 -49 -34 -21 -105 -67 -158 -102 -53
-36 -118 -78 -146 -93 -27 -16 -39 -26 -25 -22 40 11 81 34 140 79 30 23 90
61 133 85 78 45 136 94 124 107 -4 3 -7 1 -7 -5z"/>
<path d="M6621 1939 c-1 -24 39 -152 51 -164 8 -7 9 -4 3 10 -4 11 -16 49 -26
85 -23 80 -27 89 -28 69z"/>
<path d="M7024 1905 c22 -17 84 -31 93 -21 4 3 -4 6 -16 6 -12 0 -38 7 -59 15
-32 13 -35 13 -18 0z"/>
<path d="M6277 1749 c-30 -19 -93 -41 -162 -59 -111 -28 -169 -52 -210 -85
-11 -9 8 -2 42 14 33 17 106 41 161 55 102 25 188 62 211 90 18 22 13 20 -42
-15z"/>
<path d="M7537 1688 c-26 -63 -28 -84 -2 -29 14 30 23 56 21 59 -3 2 -11 -11
-19 -30z"/>
<path d="M6914 1692 c-7 -4 23 -8 65 -8 49 -1 67 1 51 6 -33 10 -102 12 -116
2z"/>
<path d="M7360 1629 c-25 -97 -44 -147 -80 -209 -20 -36 -43 -76 -50 -90 -13
-25 -13 -25 8 -7 34 30 111 196 127 272 16 77 12 101 -5 34z"/>
<path d="M6555 1614 c-22 -13 -85 -38 -141 -55 -55 -17 -112 -40 -125 -51
l-24 -19 30 14 c17 8 71 27 120 42 86 25 167 64 180 85 9 14 5 13 -40 -16z"/>
<path d="M6780 1480 c-36 -27 -92 -63 -125 -80 -33 -17 -49 -28 -35 -24 37 9
159 80 205 119 59 51 30 41 -45 -15z"/>
<path d="M6927 1382 c-26 -27 -36 -49 -17 -37 10 6 53 65 48 65 -3 0 -16 -13
-31 -28z"/>
</g>
</svg>
