<?xml version="1.0" standalone="no"?>
<!DOCTYPE svg PUBLIC "-//W3C//DTD SVG 20010904//EN"
 "http://www.w3.org/TR/2001/REC-SVG-20010904/DTD/svg10.dtd">
<svg version="1.0" xmlns="http://www.w3.org/2000/svg"
 width="1408.000000pt" height="768.000000pt" viewBox="0 0 1408.000000 768.000000"
 preserveAspectRatio="xMidYMid meet">
<metadata>
Created by potrace 1.16, written by Peter Selinger 2001-2019
</metadata>
<g transform="translate(0.000000,768.000000) scale(0.100000,-0.100000)"
fill="#000000" stroke="none">
<path d="M4794 6301 c-68 -42 -214 -247 -234 -330 -7 -29 -11 -90 -9 -138 l4
-87 -52 -18 -53 -18 -67 68 c-77 77 -129 113 -293 202 -93 50 -132 79 -206
151 -96 94 -121 105 -148 67 -23 -32 -19 -84 10 -153 40 -94 44 -112 55 -245
5 -69 17 -152 25 -185 25 -97 87 -216 137 -262 44 -40 44 -42 26 -59 -10 -9
-28 -42 -39 -73 -58 -160 -98 -199 -284 -285 -121 -55 -131 -58 -180 -51 -129
18 -162 5 -206 -81 -23 -44 -25 -59 -25 -179 0 -120 2 -135 25 -179 32 -63 62
-84 137 -99 56 -10 64 -15 83 -49 40 -71 152 -146 319 -214 47 -19 115 -52
152 -75 94 -57 188 -87 338 -108 99 -15 147 -27 212 -56 46 -20 111 -47 144
-60 107 -40 167 -75 335 -195 211 -151 289 -199 408 -251 54 -23 105 -49 115
-57 16 -15 69 -169 151 -447 50 -169 63 -231 92 -432 27 -195 25 -251 -16
-446 -23 -105 -40 -144 -115 -267 -59 -98 -78 -141 -66 -156 3 -5 24 -21 47
-37 35 -24 49 -27 120 -27 158 0 231 40 258 142 10 35 19 69 22 77 3 9 12 2
27 -20 26 -39 61 -49 75 -22 21 39 33 188 33 408 -1 211 8 314 22 275 3 -8 18
-67 32 -130 32 -135 35 -249 10 -390 -25 -145 -31 -165 -102 -313 -56 -118
-65 -143 -57 -165 6 -17 19 -29 34 -32 14 -3 38 -14 55 -25 58 -39 207 -19
296 40 37 24 56 60 80 154 l11 45 26 -42 c51 -79 82 -66 101 42 17 94 14 162
-16 365 -30 210 -27 242 28 373 17 39 37 110 44 157 7 47 23 129 35 181 12 52
34 160 51 240 16 80 41 178 55 218 l27 73 91 -6 c370 -23 624 -35 831 -40 132
-3 257 -10 278 -16 21 -5 60 -30 87 -54 57 -51 88 -59 179 -50 95 9 199 39
336 97 66 28 177 70 247 93 111 37 128 40 133 26 4 -9 29 -79 57 -156 27 -77
80 -198 117 -270 124 -237 127 -318 25 -656 -58 -194 -70 -220 -158 -353 -81
-122 -106 -167 -106 -190 0 -9 22 -27 50 -41 59 -30 161 -34 255 -9 76 19 106
48 135 130 l23 67 14 -27 c39 -74 96 15 138 214 50 234 67 295 141 488 41 106
74 194 74 196 0 3 5 17 10 32 l11 28 30 -45 c115 -170 143 -307 128 -633 -10
-228 -16 -253 -95 -431 -70 -159 -70 -185 1 -185 12 0 25 -7 28 -14 11 -28 76
-37 151 -21 87 18 156 54 179 92 9 17 25 70 35 119 l18 88 23 -32 c12 -18 31
-32 41 -32 33 0 45 61 41 210 -13 429 -2 579 54 818 36 148 34 177 -20 293
-56 119 -79 219 -72 314 5 64 14 86 99 255 164 322 247 620 256 915 7 238 -26
414 -117 626 -22 51 -39 94 -38 96 2 1 21 -6 42 -17 55 -28 153 -28 189 1 21
17 24 24 16 40 -6 10 -19 19 -30 19 -21 0 -100 29 -100 37 0 2 13 21 30 41 39
49 62 115 63 182 1 74 -18 125 -66 177 -134 145 -365 41 -344 -156 2 -25 8
-55 13 -66 4 -11 -28 13 -72 54 -259 243 -609 422 -966 495 -251 52 -351 60
-678 60 -375 0 -385 -1 -1230 -133 -418 -66 -463 -70 -971 -87 -546 -19 -505
-22 -742 53 -171 54 -326 84 -473 90 l-131 6 -61 101 c-72 121 -84 144 -107
216 -44 138 -101 180 -181 131z m89 -49 c10 -10 28 -50 41 -88 28 -84 57 -142
131 -264 135 -221 156 -298 136 -504 -7 -72 -20 -144 -28 -159 -21 -41 -76
-62 -124 -48 -20 6 -46 11 -59 11 -34 0 -9 -25 46 -46 56 -21 108 -13 147 23
39 37 46 59 63 183 24 181 15 265 -42 389 -13 30 -22 56 -20 58 8 8 231 -18
326 -38 52 -12 167 -42 255 -69 213 -64 280 -73 474 -60 86 5 289 14 451 20
323 11 432 23 920 100 713 113 721 114 1085 114 326 1 388 -4 630 -51 378 -72
721 -246 992 -502 100 -96 144 -121 209 -121 61 0 110 25 141 71 52 79 37 173
-31 206 -106 50 -182 -89 -101 -186 32 -37 31 -41 -5 -41 -27 0 -34 6 -55 53
-40 85 -32 161 22 211 117 109 300 -23 263 -190 -20 -88 -62 -146 -140 -193
-19 -11 -43 -21 -52 -21 -33 0 -29 -37 16 -144 149 -348 163 -660 50 -1075
-41 -149 -101 -302 -168 -431 -120 -230 -111 -202 -110 -325 1 -127 9 -164 70
-297 48 -106 53 -144 30 -224 -62 -211 -92 -574 -65 -800 6 -52 8 -120 4 -152
l-7 -57 -24 30 c-16 20 -24 43 -24 68 0 42 -27 54 -34 14 -2 -12 -13 -73 -25
-136 -11 -62 -22 -116 -25 -118 -3 -3 -26 10 -52 28 -54 37 -133 69 -169 69
-14 0 -25 3 -25 8 0 4 12 43 26 87 22 68 27 110 35 285 11 226 7 285 -23 409
-27 115 -44 151 -138 297 -60 93 -98 167 -146 287 -88 219 -97 234 -276 455
-151 185 -198 221 -303 231 l-60 6 50 30 c35 21 45 31 32 33 -21 4 -156 -66
-273 -143 -47 -31 -136 -81 -197 -112 -62 -31 -105 -58 -96 -60 24 -6 107 30
274 117 236 122 296 121 428 -11 42 -42 77 -81 77 -86 0 -14 -244 -114 -435
-179 -93 -31 -233 -83 -310 -115 -161 -66 -229 -85 -337 -95 l-77 -7 -42 41
c-78 78 -108 83 -484 93 -181 4 -388 13 -460 18 -71 6 -173 11 -225 11 -115 0
-144 6 -135 29 4 9 13 63 21 121 7 58 21 130 29 160 22 78 30 245 16 322 -7
35 -28 110 -47 168 -63 189 -88 200 -35 14 59 -207 65 -334 23 -519 -11 -49
-24 -119 -30 -155 -5 -36 -30 -120 -56 -188 -27 -71 -57 -178 -72 -255 -14
-73 -37 -179 -51 -237 -13 -58 -30 -144 -38 -191 -7 -47 -30 -130 -50 -185
-20 -54 -39 -121 -42 -149 -3 -29 6 -122 21 -222 25 -165 31 -294 17 -358 -6
-30 -7 -30 -39 29 -18 33 -32 74 -32 93 0 61 -16 34 -45 -78 -17 -61 -33 -115
-36 -121 -4 -7 -19 -1 -40 15 -51 38 -132 76 -179 83 -27 4 -39 11 -36 19 46
121 77 300 77 440 0 105 -7 152 -41 285 -12 45 -30 150 -40 233 -32 246 -92
540 -134 649 -24 66 -67 141 -86 153 -13 8 -13 -21 1 -47 13 -25 10 -23 -86
45 -38 27 -116 95 -172 150 -56 56 -105 99 -107 96 -9 -9 119 -163 175 -210
30 -26 90 -70 134 -99 67 -43 109 -80 92 -80 -3 0 -85 27 -183 59 -331 109
-529 205 -744 360 -228 165 -260 185 -361 225 -162 65 -211 89 -198 97 17 10
-6 15 -171 34 -179 21 -193 25 -355 104 -77 38 -192 94 -255 125 -102 49 -200
115 -200 134 0 4 64 7 143 7 l142 0 123 48 c68 26 140 47 160 47 20 0 44 5 52
10 13 9 12 13 -5 26 -28 22 -91 13 -198 -30 -113 -44 -208 -66 -291 -66 -97 0
-103 5 -62 51 92 101 66 249 -72 401 l-24 26 34 7 c18 4 92 35 163 70 181 88
225 133 280 287 11 31 39 70 85 118 60 62 147 190 173 255 6 15 2 14 -21 -8
l-30 -29 -15 49 c-8 26 -21 71 -28 98 -25 102 -82 183 -184 261 -27 21 -67 54
-87 73 -21 19 -38 32 -38 28 0 -25 38 -71 106 -127 95 -80 137 -144 168 -257
14 -48 30 -102 37 -120 12 -30 11 -34 -37 -99 -69 -95 -75 -97 -123 -50 -80
79 -135 228 -147 402 -8 124 -21 186 -55 258 -16 33 -29 77 -29 96 l0 35 83
-85 c72 -73 101 -94 213 -154 158 -85 239 -141 294 -203 l41 -47 -28 -21 c-49
-35 -79 -68 -65 -73 7 -2 24 3 37 12 26 17 226 98 231 93 1 -1 10 -38 18 -82
21 -101 35 -145 47 -145 16 0 9 92 -17 225 -34 170 -30 247 15 331 63 120 174
244 216 244 7 0 19 -8 28 -18z m5741 -834 c22 -30 20 -66 -4 -106 -18 -29 -23
-32 -36 -21 -39 32 -57 112 -32 137 19 19 55 14 72 -10z m77 -334 c17 -8 29
-18 26 -20 -9 -9 -88 17 -82 26 9 14 21 12 56 -6z m-7254 -251 c35 -20 123
-125 152 -182 42 -84 34 -166 -23 -228 -35 -38 -47 -41 -144 -28 -100 14 -138
89 -131 255 6 119 46 195 104 199 6 1 25 -7 42 -16z m6052 -1553 c103 -123
133 -178 212 -377 28 -70 61 -148 75 -172 13 -24 24 -52 24 -63 0 -11 -27 -88
-59 -171 -120 -306 -129 -336 -171 -547 -11 -58 -30 -136 -42 -175 l-21 -70
-13 30 c-8 17 -13 45 -11 64 2 35 -15 52 -29 29 -5 -7 -26 -58 -46 -112 -21
-55 -40 -101 -43 -104 -2 -3 -23 12 -45 32 -32 29 -92 64 -158 92 -1 0 13 27
33 59 45 75 66 133 121 325 55 193 67 266 58 355 -10 108 -29 165 -88 273 -30
54 -65 123 -76 153 -28 69 -110 303 -107 304 1 1 52 21 112 45 61 24 130 53
155 66 25 13 50 23 57 24 7 0 35 -27 62 -60z m-3674 -101 c235 -73 207 -59
222 -115 28 -109 75 -357 91 -484 l18 -135 -29 -85 c-30 -85 -30 -85 -24 -260
6 -167 -7 -390 -23 -390 -8 0 -38 67 -42 95 -6 36 -31 22 -44 -25 -22 -81 -47
-165 -50 -169 -2 -2 -37 19 -78 47 -42 27 -91 55 -110 62 l-35 11 19 32 c29
50 50 123 70 239 31 175 33 234 17 333 -8 50 -18 119 -22 155 -4 36 -13 94
-20 130 -14 63 -152 536 -174 593 -18 46 -14 47 52 22 34 -13 107 -39 162 -56z
m3422 -1524 c32 -19 71 -46 88 -59 l29 -25 -39 -17 c-39 -16 -215 -33 -215
-20 0 3 14 31 31 61 19 35 29 62 24 73 -7 19 -2 25 -63 -63 -50 -71 -51 -45
-2 30 50 76 53 77 147 20z m-3440 -2 c24 -15 62 -39 84 -51 49 -29 41 -45 -34
-67 -45 -13 -187 -22 -187 -11 0 2 13 32 30 67 27 57 30 79 12 79 -4 0 -20
-20 -35 -44 -15 -24 -35 -50 -44 -58 -15 -12 -15 -11 -3 12 7 14 24 44 39 68
24 40 29 43 59 38 19 -3 54 -18 79 -33z m4283 -149 c25 -8 67 -31 94 -51 l50
-36 -27 -23 c-33 -29 -116 -54 -174 -54 -41 0 -44 1 -37 23 49 154 41 195 -17
82 -19 -36 -40 -65 -46 -65 -20 0 -16 19 17 88 29 62 31 63 62 57 18 -3 53
-13 78 -21z m-3790 -26 c79 -33 149 -80 143 -95 -14 -36 -184 -91 -239 -77
-29 7 -28 2 -5 61 29 77 34 103 17 103 -9 0 -30 -27 -48 -60 -33 -59 -58 -83
-58 -54 0 8 16 46 35 85 l36 70 37 -7 c20 -3 57 -15 82 -26z"/>
<path d="M4692 6013 c-35 -73 -37 -84 -37 -173 0 -111 16 -154 108 -288 30
-44 58 -90 62 -101 7 -23 21 -28 27 -9 4 10 10 -2 40 -84 13 -34 45 -46 67
-24 12 13 18 44 22 129 4 62 10 130 14 152 6 31 5 37 -4 29 -20 -18 -41 -115
-41 -189 0 -75 -14 -116 -25 -80 -19 57 -41 98 -63 116 -39 30 -150 205 -167
261 -8 29 -15 70 -15 93 0 43 26 145 54 208 10 22 12 37 6 37 -6 0 -28 -35
-48 -77z"/>
<path d="M5960 5535 c0 -3 15 -26 34 -52 18 -27 44 -68 57 -93 15 -30 24 -39
27 -28 3 17 -27 83 -60 131 -18 25 -58 55 -58 42z"/>
<path d="M4395 5230 c-23 -9 -50 -38 -43 -45 3 -3 19 2 37 11 43 22 92 12 159
-32 58 -38 75 -24 20 18 -72 54 -123 69 -173 48z"/>
<path d="M4384 5072 c-17 -20 -37 -48 -44 -61 -11 -22 -11 -23 6 -16 21 9 37
9 109 0 43 -6 53 -4 69 14 11 12 27 21 37 21 31 0 11 26 -40 54 -68 37 -99 34
-137 -12z"/>
<path d="M5130 5000 c1 -56 75 -336 101 -380 19 -34 8 29 -38 199 -42 160 -63
220 -63 181z"/>
<path d="M4340 4923 c0 -3 11 -21 24 -38 25 -32 67 -58 119 -70 40 -10 34 11
-7 25 -19 6 -55 29 -79 50 -44 39 -57 47 -57 33z"/>
<path d="M4810 4797 c0 -98 13 -129 26 -61 8 43 -2 134 -16 148 -7 7 -10 -21
-10 -87z"/>
<path d="M3653 4781 c19 -21 38 -48 42 -60 7 -22 25 -29 25 -10 0 30 -63 109
-88 109 -9 0 -1 -15 21 -39z"/>
<path d="M5380 4652 c0 -8 5 -56 11 -109 18 -147 -3 -267 -77 -447 -13 -34 15
-8 35 32 60 117 85 298 62 437 -11 66 -30 120 -31 87z"/>
<path d="M8960 4368 c-18 -111 -65 -288 -98 -365 -16 -38 -53 -107 -81 -152
-29 -46 -50 -85 -48 -88 10 -10 90 104 132 187 59 117 99 262 120 438 10 81
-11 63 -25 -20z"/>
<path d="M4872 4234 c-17 -33 -52 -82 -78 -107 -54 -53 -53 -74 1 -32 44 33
90 95 105 141 21 61 4 60 -28 -2z"/>
<path d="M4603 4101 c-58 -27 -145 -43 -206 -39 -29 1 -54 -2 -57 -7 -3 -6 30
-11 88 -13 83 -2 99 0 152 24 33 15 65 33 71 40 15 19 2 17 -48 -5z"/>
<path d="M5620 3824 c-132 -83 -270 -85 -459 -9 -91 37 -99 24 -11 -19 157
-75 299 -85 417 -32 62 29 123 71 123 87 0 14 -10 10 -70 -27z"/>
<path d="M9273 3730 c-13 -5 -23 -11 -23 -13 0 -1 32 -3 70 -3 68 0 87 7 54
20 -22 9 -75 6 -101 -4z"/>
<path d="M6644 3554 c25 -41 145 -171 146 -157 0 15 -131 175 -149 181 -10 3
-10 -2 3 -24z"/>
<path d="M5980 3474 c0 -9 82 -41 123 -48 64 -12 41 10 -35 33 -77 22 -88 24
-88 15z"/>
<path d="M10150 3050 c-36 -10 -92 -21 -125 -25 -48 -6 -55 -9 -41 -17 37 -21
180 7 227 43 29 23 22 23 -61 -1z"/>
<path d="M10005 2900 c8 -13 85 -13 105 0 11 7 -4 10 -48 10 -40 0 -61 -4 -57
-10z"/>
<path d="M10365 2673 c7 -26 17 -49 23 -51 16 -5 15 10 -4 58 -22 55 -34 51
-19 -7z"/>
<path d="M3330 4620 c0 -52 2 -60 19 -60 10 0 22 7 25 16 16 42 -2 104 -29
104 -12 0 -15 -14 -15 -60z"/>
<path d="M3465 4660 c-9 -14 26 -111 42 -117 20 -8 43 16 43 47 0 50 -64 104
-85 70z"/>
</g>
</svg>
