<?xml version="1.0" standalone="no"?>
<!DOCTYPE svg PUBLIC "-//W3C//DTD SVG 20010904//EN"
 "http://www.w3.org/TR/2001/REC-SVG-20010904/DTD/svg10.dtd">
<svg version="1.0" xmlns="http://www.w3.org/2000/svg"
 width="1024.000000pt" height="559.000000pt" viewBox="0 0 1024.000000 559.000000"
 preserveAspectRatio="xMidYMid meet">
<metadata>
Created by potrace 1.16, written by Peter Selinger 2001-2019
</metadata>
<g transform="translate(0.000000,559.000000) scale(0.100000,-0.100000)"
fill="#000000" stroke="none">
<path d="M4802 5203 c-29 -9 -66 -28 -82 -43 -30 -28 -30 -29 -30 -142 0 -62
4 -282 10 -488 5 -206 12 -539 16 -740 l6 -365 -33 -49 c-19 -28 -60 -67 -91
-88 -72 -49 -246 -115 -352 -134 -137 -24 -236 -15 -169 15 44 20 138 99 183
154 88 107 150 285 150 432 0 63 1 65 26 65 92 0 158 221 120 404 -9 46 -16
126 -16 194 0 95 -4 131 -25 199 -23 76 -25 95 -23 245 3 154 2 166 -21 211
-31 64 -81 97 -144 97 -66 0 -98 -19 -207 -125 -97 -93 -96 -92 -312 -194 -37
-18 -91 -54 -120 -80 -31 -29 -67 -51 -88 -56 -107 -23 -223 -93 -254 -153
-11 -21 -29 -32 -73 -46 -335 -104 -643 -449 -815 -910 -176 -475 -209 -1054
-87 -1540 132 -524 461 -940 848 -1072 289 -98 572 -59 798 111 132 100 220
235 263 405 19 72 21 104 18 208 -3 67 -4 121 -2 120 8 -8 38 -161 55 -283 25
-174 27 -495 4 -729 -16 -169 -20 -474 -5 -421 5 17 16 134 25 260 9 127 21
295 26 375 18 238 -2 508 -53 725 -78 336 -243 522 -480 542 -37 3 -68 10 -68
14 0 13 65 74 123 117 92 68 333 202 363 202 12 0 121 -181 151 -254 41 -95
86 -265 105 -391 18 -124 15 -814 -6 -1232 -9 -177 -16 -333 -15 -345 0 -22 1
-22 8 -3 23 57 61 797 61 1190 0 336 -22 513 -89 710 -32 93 -106 238 -153
297 -15 20 -25 39 -20 42 26 16 168 40 239 40 159 2 172 -32 172 -449 0 -154
-4 -343 -9 -420 -5 -77 -14 -396 -20 -710 -6 -314 -13 -576 -15 -583 -8 -22
23 -71 56 -88 94 -48 221 -58 313 -23 102 38 96 19 101 304 2 138 7 717 11
1288 l7 1038 23 -22 23 -21 -4 -397 c-2 -218 -9 -531 -15 -696 -7 -165 -13
-545 -13 -845 l-2 -544 59 -31 c52 -26 70 -30 140 -30 87 1 155 26 176 64 6
13 10 154 10 388 0 202 5 483 10 623 5 140 14 449 20 685 5 237 13 468 16 514
l7 84 86 -7 c76 -6 242 -39 263 -53 5 -2 -11 -28 -36 -56 -129 -152 -217 -354
-262 -602 -34 -186 -28 -889 11 -1410 9 -110 20 -213 25 -230 11 -33 10 7 -15
565 -19 425 -19 821 -1 972 33 262 102 455 222 623 61 86 93 117 112 110 44
-17 284 -159 329 -195 46 -36 133 -148 133 -171 0 -5 -26 -9 -58 -9 -31 0 -88
-9 -126 -20 -268 -76 -405 -321 -461 -822 -19 -166 -18 -303 0 -533 8 -99 20
-252 26 -340 6 -88 15 -173 20 -190 13 -42 2 367 -12 475 -16 118 -16 484 -1
600 16 115 51 296 63 324 6 14 6 7 1 -19 -10 -59 -7 -192 7 -255 43 -200 174
-387 339 -483 145 -84 265 -117 433 -117 346 0 656 189 891 545 146 220 242
481 295 800 15 90 18 165 17 420 0 271 -3 327 -23 444 -70 425 -198 752 -400
1021 -92 123 -240 260 -352 328 -31 19 -35 25 -31 56 3 28 -2 41 -34 75 -59
66 -137 105 -269 137 -33 8 -130 51 -215 96 -151 79 -157 81 -225 82 -101 0
-235 -18 -271 -37 -49 -25 -202 -183 -229 -236 -13 -27 -34 -82 -45 -123 -11
-40 -41 -116 -66 -168 -42 -86 -47 -105 -55 -195 -4 -55 -13 -122 -18 -150
-25 -112 34 -224 111 -213 17 3 20 -5 24 -77 6 -103 36 -211 82 -299 40 -76
132 -182 188 -217 19 -12 33 -23 30 -26 -8 -8 -177 28 -251 54 -157 55 -251
128 -265 205 -33 172 -36 647 -10 1277 6 135 8 252 5 262 -12 36 -73 54 -185
54 -123 0 -148 -6 -183 -41 l-27 -27 0 -591 c0 -563 -9 -845 -28 -897 -8 -20
-10 -16 -15 27 -12 93 -47 1189 -47 1452 0 122 0 124 -28 152 -49 49 -192 64
-300 33z m258 -43 l40 -20 0 -83 c0 -180 20 -967 30 -1207 13 -291 30 -416 65
-476 90 -153 317 -260 680 -320 117 -19 409 -22 550 -4 166 20 288 60 353 116
62 53 74 83 15 38 -61 -47 -111 -69 -213 -95 -109 -27 -116 -24 -80 30 41 60
53 112 48 206 -4 83 -32 153 -81 206 l-21 22 32 -6 c44 -9 76 8 96 51 l18 36
21 -54 c18 -46 27 -56 49 -58 36 -4 56 28 70 112 l11 66 24 -35 c27 -39 63
-53 99 -36 28 13 29 10 7 -32 -21 -41 -43 -123 -43 -162 0 -17 7 -41 16 -54
21 -30 64 -23 117 20 l38 31 -8 -29 c-21 -75 0 -123 64 -144 l34 -11 -44 -28
c-63 -40 -112 -94 -127 -140 -12 -35 -11 -45 2 -74 20 -40 54 -50 143 -40 l59
7 -27 -32 c-41 -49 -36 -111 14 -167 l19 -21 -77 5 c-98 5 -146 -12 -169 -61
-43 -89 23 -163 190 -214 l48 -14 -33 -17 c-19 -9 -40 -29 -48 -43 -13 -23
-12 -32 1 -72 l15 -45 -56 39 c-61 43 -122 59 -146 39 -36 -30 -11 -121 64
-235 57 -87 58 -90 33 -76 -53 28 -102 4 -122 -61 l-13 -43 -12 50 c-19 79
-42 124 -70 137 -22 10 -29 9 -46 -9 -23 -22 -38 -78 -39 -138 l0 -40 -32 39
c-30 36 -34 38 -75 32 -23 -3 -43 -4 -43 -1 0 2 10 20 22 41 26 44 36 165 19
241 -9 45 -46 135 -87 215 l-14 27 52 -4 53 -5 -62 22 c-35 12 -65 19 -68 16
-4 -3 1 -22 9 -41 l15 -36 -53 43 c-55 45 -288 181 -379 220 -76 34 -182 55
-304 62 -250 13 -333 55 -535 272 -71 76 -87 76 -40 1 l27 -44 -6 -390 c-4
-214 -8 -691 -9 -1060 -1 -368 -5 -776 -9 -905 l-6 -235 -44 -24 c-89 -49
-276 -34 -333 26 -20 22 -23 33 -21 101 1 42 7 277 13 522 5 245 15 551 22
680 15 318 15 688 -1 769 -26 134 -67 171 -191 171 -157 0 -323 -55 -520 -173
-130 -77 -164 -102 -234 -167 -48 -44 -48 -44 -32 -12 15 29 15 33 2 38 -9 3
-40 -2 -69 -11 -73 -23 -101 -18 -105 18 -3 26 -2 27 17 18 25 -14 77 -13 119
2 46 17 274 181 344 247 32 31 58 63 58 73 0 24 -32 41 -140 77 -121 41 -313
133 -411 199 -70 47 -126 99 -156 147 -11 16 -11 15 -3 -9 20 -57 40 -85 93
-125 76 -59 209 -137 299 -174 43 -18 78 -35 78 -38 0 -3 -13 -13 -28 -23 -16
-9 -67 -51 -113 -93 -98 -89 -149 -126 -239 -172 -62 -32 -63 -33 -25 -27 58
10 164 76 279 174 55 48 116 98 134 110 32 22 36 23 65 9 l32 -15 -50 -26
c-103 -52 -338 -236 -358 -281 -28 -60 -30 -93 -8 -115 25 -25 63 -27 120 -6
22 8 41 13 41 12 0 -2 -13 -34 -30 -72 -24 -58 -29 -84 -30 -150 0 -67 4 -87
25 -124 14 -23 25 -45 25 -47 0 -1 -13 2 -29 7 -39 14 -80 -5 -101 -46 l-15
-30 -3 35 c-14 190 -102 217 -154 46 l-21 -69 -13 39 c-18 52 -40 67 -90 61
l-42 -4 49 74 c27 41 56 100 66 130 15 49 16 57 2 81 -25 45 -65 41 -144 -13
-45 -31 -65 -41 -60 -28 15 34 17 93 4 109 -7 8 -28 23 -47 33 l-35 18 49 12
c122 31 204 93 204 155 0 65 -81 102 -193 90 l-62 -7 21 24 c49 55 56 102 24
155 l-21 33 75 -2 c65 -2 78 1 97 20 55 54 -4 171 -119 236 l-42 24 40 12 c55
16 74 48 67 111 l-6 49 41 -29 c45 -33 88 -39 108 -15 20 24 14 114 -12 185
l-24 65 42 -3 c37 -3 44 0 71 33 l30 36 6 -38 c8 -48 32 -83 58 -83 23 0 56
50 65 98 8 41 17 41 32 -2 16 -42 53 -60 100 -47 18 6 32 7 30 3 -81 -157 -83
-164 -83 -257 0 -77 4 -98 27 -147 14 -31 45 -77 68 -102 24 -25 40 -46 37
-46 -4 0 -41 14 -84 31 -123 48 -218 105 -266 159 -28 31 -43 42 -40 30 3 -11
25 -42 49 -69 56 -62 199 -134 385 -195 286 -94 408 -97 624 -18 131 47 202
115 226 215 13 57 9 678 -11 1515 -12 491 -16 461 55 493 59 27 221 26 275 -1z
m-673 -40 c40 -24 72 -85 80 -151 5 -43 2 -55 -25 -98 -16 -27 -33 -60 -36
-73 -4 -13 2 -7 14 14 34 62 42 58 35 -18 -5 -58 -2 -83 21 -159 29 -98 47
-284 25 -271 -6 4 -11 13 -11 19 0 7 -16 37 -36 67 -42 65 -41 60 7 -40 88
-181 93 -418 12 -527 -30 -41 -64 -43 -92 -7 -12 15 -36 76 -55 136 -26 81
-43 118 -69 147 -19 21 -47 60 -62 87 -37 65 -68 97 -142 150 -74 54 -163 95
-280 130 -78 24 -106 27 -240 28 l-152 1 27 28 c34 35 131 84 197 97 28 6 72
16 99 21 47 10 140 48 134 55 -2 1 -30 -6 -62 -17 -32 -11 -66 -19 -74 -17
-31 6 74 78 178 123 55 25 114 53 129 65 44 30 46 24 10 -22 -23 -30 -26 -37
-10 -23 13 11 49 52 79 90 133 168 218 215 299 165z m1167 -73 l39 -17 -6
-118 c-22 -406 -29 -671 -24 -957 9 -464 24 -533 136 -604 134 -87 301 -135
467 -136 110 0 112 0 190 40 74 38 103 65 151 141 11 17 12 16 12 -12 1 -24
-11 -43 -56 -90 -32 -33 -71 -69 -88 -81 -16 -11 -27 -23 -24 -27 3 -3 34 -9
68 -12 63 -7 76 -22 30 -35 -13 -4 -102 -5 -196 -2 -190 7 -203 2 -143 -47
l31 -25 -67 3 c-49 3 -75 10 -101 28 -19 13 -73 35 -120 49 -122 37 -191 70
-245 116 -47 40 -62 41 -33 3 8 -10 15 -40 15 -66 0 -43 -2 -46 -22 -41 -47
10 -224 102 -263 136 l-39 34 16 39 c8 21 28 66 42 98 38 82 9 54 -38 -38 -43
-83 -47 -84 -81 -3 -13 31 -12 40 6 88 28 74 38 328 39 985 0 575 -4 544 75
563 59 14 184 8 229 -12z m885 -98 c17 -6 70 -33 117 -59 102 -57 205 -101
294 -126 121 -33 218 -92 241 -146 11 -27 10 -32 -6 -44 -25 -19 -35 -18 -166
12 -72 16 -135 24 -172 22 -60 -3 -71 4 -36 22 11 7 18 14 15 17 -3 4 -24 -8
-45 -25 -22 -18 -52 -37 -67 -42 -37 -15 -144 -28 -144 -19 0 4 12 22 26 39
15 17 24 33 21 36 -5 6 -38 -33 -83 -97 -41 -59 -119 -110 -229 -148 -61 -21
-80 -31 -60 -31 l29 0 -39 -41 c-22 -22 -53 -50 -69 -61 l-28 -21 7 24 c13 46
-13 -3 -61 -116 -58 -136 -109 -214 -156 -240 -32 -17 -38 -17 -54 -5 -45 38
-56 127 -28 233 19 74 38 113 73 151 24 26 24 28 4 17 -13 -6 -34 -28 -49 -49
l-26 -37 5 49 c7 66 88 224 139 272 22 20 51 40 66 44 24 7 25 8 5 9 -13 1
-40 -15 -63 -35 -22 -20 -40 -32 -40 -27 0 25 35 124 63 176 43 82 179 209
242 227 64 18 72 4 25 -48 -52 -56 -40 -53 25 6 73 67 148 87 224 61z m400
-394 c206 -49 417 -183 559 -357 411 -503 565 -1532 330 -2213 -88 -256 -208
-462 -355 -608 -89 -88 -144 -129 -242 -181 -265 -139 -515 -152 -749 -39 -58
28 -97 58 -158 118 -121 120 -171 236 -181 425 -15 262 119 500 281 500 68 0
100 -28 120 -105 3 -11 3 -3 1 19 -5 42 -25 70 -67 92 -86 45 -222 -38 -290
-178 -106 -217 -79 -511 66 -704 144 -193 428 -297 679 -250 281 53 515 205
682 442 65 92 165 286 209 406 165 444 176 1009 32 1558 -133 508 -372 852
-703 1013 l-90 44 70 -3 c67 -2 75 -4 149 -54 222 -148 431 -433 549 -747 102
-271 147 -490 170 -823 17 -259 -7 -562 -62 -785 -142 -568 -485 -978 -914
-1091 -104 -27 -294 -25 -400 5 -255 71 -428 232 -511 476 -24 70 -27 96 -28
205 -1 102 3 140 22 205 34 118 86 207 166 289 60 61 81 75 131 90 33 11 92
21 131 24 68 4 72 3 79 -19 4 -12 8 -50 8 -83 1 -103 -36 -167 -192 -331 -100
-105 -131 -160 -131 -234 0 -87 57 -170 172 -251 152 -107 273 -104 306 8 22
75 24 139 7 282 -19 156 -20 280 -5 362 35 184 116 3 140 -313 13 -176 29
-260 59 -321 32 -65 76 -92 136 -83 112 15 284 144 320 238 40 105 -7 191
-205 377 -134 126 -206 219 -241 311 -23 61 -24 88 -2 96 35 14 122 -49 282
-203 190 -182 235 -214 304 -214 42 0 53 5 78 31 63 68 114 221 107 326 -8
131 -72 162 -395 193 -254 24 -395 105 -357 205 27 69 222 58 444 -25 230 -86
302 -82 347 18 22 51 22 235 -1 329 -22 90 -47 130 -94 150 -50 21 -104 8
-252 -62 -148 -69 -222 -93 -307 -101 -57 -5 -72 -4 -86 10 -35 36 -14 90 62
158 66 60 150 93 291 117 148 25 223 53 252 94 35 49 31 153 -10 241 -59 125
-132 211 -189 222 -70 13 -129 -36 -248 -211 -182 -265 -303 -314 -235 -93 26
85 79 169 175 278 176 200 190 294 60 408 -54 47 -139 89 -205 102 -73 14
-110 -4 -140 -65 -26 -54 -27 -59 -40 -340 -10 -216 -29 -338 -55 -364 -32
-33 -77 138 -94 364 -18 222 -54 295 -146 295 -130 0 -313 -168 -340 -312 -9
-48 20 -113 69 -156 21 -18 75 -57 120 -86 96 -62 139 -102 185 -174 l33 -52
-26 -44 c-43 -73 -117 -128 -213 -156 -40 -12 -43 -11 -101 24 -66 40 -167
142 -206 208 -47 81 -77 194 -82 308 l-5 105 30 33 c17 17 33 32 35 32 3 0 0
-15 -5 -32 -14 -49 -11 -185 6 -256 31 -131 116 -252 217 -307 66 -37 163 -42
214 -11 37 22 64 65 63 98 -1 23 -1 23 -8 -3 -23 -73 -63 -100 -147 -101 -149
-1 -287 147 -330 357 -26 127 -6 261 61 402 27 58 53 91 131 168 53 52 108 98
123 102 49 11 105 46 161 98 53 50 58 53 121 57 36 3 78 13 95 21 37 20 121
21 203 2z m-3039 -74 c167 -54 316 -155 361 -242 10 -21 39 -63 63 -92 33 -41
49 -73 66 -133 11 -44 35 -104 52 -133 30 -54 30 -57 26 -165 -4 -88 -11 -126
-33 -186 -57 -156 -158 -270 -302 -345 l-52 -26 -45 20 c-94 41 -139 118 -140
237 -1 76 1 85 30 125 17 24 62 67 100 96 200 150 214 167 214 248 0 98 -106
231 -234 295 -83 42 -137 41 -181 -3 -43 -43 -54 -84 -66 -247 -12 -163 -35
-300 -60 -357 -47 -110 -74 -10 -88 332 -10 238 -20 287 -69 325 -31 25 -73
25 -155 0 -78 -24 -175 -93 -214 -152 -36 -53 -37 -114 -5 -180 13 -26 65 -95
116 -155 115 -134 152 -189 175 -256 84 -244 -34 -214 -223 58 -135 195 -196
242 -270 211 -50 -21 -112 -94 -158 -184 -35 -69 -43 -96 -46 -153 -3 -42 1
-81 8 -100 24 -56 112 -90 310 -119 138 -20 274 -101 312 -188 18 -40 18 -45
4 -68 -12 -18 -25 -24 -52 -24 -65 0 -179 32 -289 82 -142 64 -233 98 -268 98
-98 1 -157 -124 -157 -334 0 -120 13 -168 57 -206 28 -25 42 -30 86 -30 29 1
82 12 122 26 280 101 414 129 495 105 50 -15 64 -43 43 -84 -36 -72 -180 -118
-458 -148 -207 -22 -276 -59 -291 -154 -21 -146 93 -385 185 -385 62 0 129 47
290 203 152 148 231 212 279 224 58 14 53 -44 -14 -164 -47 -83 -111 -155
-267 -301 -107 -101 -150 -167 -155 -241 -5 -69 8 -98 72 -164 123 -125 280
-181 350 -126 57 45 81 131 101 364 8 94 22 201 30 239 18 83 54 161 75 161
42 0 59 -193 35 -400 -36 -302 2 -406 142 -392 105 11 266 127 317 229 55 109
29 185 -115 340 -147 158 -163 182 -178 262 -9 47 -8 64 7 104 l18 47 80 0
c114 -1 165 -22 239 -100 108 -114 165 -235 184 -395 27 -219 -45 -434 -196
-586 -257 -257 -680 -289 -1023 -76 -290 180 -528 539 -630 952 -91 369 -99
752 -24 1140 83 425 257 776 508 1025 126 125 237 196 386 245 105 35 138 39
285 36 124 -3 151 -7 235 -35z m3153 -176 c107 -32 214 -130 224 -205 10 -70
-54 -166 -256 -386 -68 -75 -126 -65 -156 25 -15 45 -15 75 -7 263 9 221 20
274 60 304 23 18 76 17 135 -1z m-3512 -107 c33 -43 42 -103 48 -303 6 -209 0
-268 -34 -305 -10 -11 -29 -20 -43 -20 -31 0 -85 33 -105 64 -8 12 -52 64 -96
114 -157 179 -179 247 -105 335 30 36 105 93 144 109 97 41 163 43 191 6z
m3055 -15 c35 -38 51 -107 66 -283 15 -185 14 -227 -6 -274 -12 -30 -20 -36
-45 -36 -47 0 -77 15 -214 107 -143 96 -182 139 -181 204 2 64 81 180 163 241
101 74 174 88 217 41z m-2601 -22 c107 -51 225 -197 225 -278 0 -71 -30 -103
-229 -237 -97 -66 -119 -77 -150 -74 -31 3 -39 9 -55 41 -22 46 -23 67 -8 278
12 181 27 239 71 276 35 30 74 29 146 -6z m3485 -336 c63 -33 158 -186 180
-290 10 -49 9 -64 -5 -100 -20 -55 -64 -78 -190 -100 -49 -9 -123 -23 -163
-31 -78 -17 -131 -13 -171 13 -21 14 -23 20 -18 68 6 63 28 108 119 243 83
124 133 180 173 198 38 17 40 17 75 -1z m-4393 -127 c39 -37 183 -235 183
-253 0 -4 -5 -3 -12 1 -7 4 -8 3 -4 -5 4 -6 12 -9 17 -5 12 7 55 -87 65 -139
5 -32 3 -42 -16 -62 -35 -37 -73 -39 -236 -11 -196 33 -246 49 -278 87 -62 73
-7 255 113 380 40 41 53 49 84 49 30 0 47 -8 84 -42z m817 -437 c26 -49 62
-80 136 -115 63 -30 68 -31 200 -30 123 1 144 4 235 34 139 45 248 102 303
158 l45 47 -5 -102 c-5 -82 -11 -111 -30 -145 -21 -39 -28 -44 -83 -55 -158
-33 -245 -58 -297 -84 -31 -16 -59 -33 -63 -39 -7 -11 -125 -14 -125 -2 0 4
27 24 60 46 41 26 60 45 60 58 0 20 -4 20 -122 14 -68 -3 -152 -8 -188 -12
-58 -5 -67 -4 -84 15 l-19 21 46 0 c58 0 69 16 24 35 -42 18 -99 79 -132 144
-28 56 -31 86 -13 146 l11 40 12 -70 c6 -38 19 -85 29 -104z m2719 17 c-13
-72 -19 -78 -67 -78 l-45 0 52 54 c29 30 55 54 59 55 4 1 5 -14 1 -31z m-2688
-166 l28 -22 -27 0 c-29 0 -70 52 -82 105 -6 27 -3 25 24 -16 16 -25 42 -55
57 -67z m2003 8 c56 -18 102 -34 102 -37 0 -8 -99 7 -211 34 -111 25 -118 30
-119 85 0 15 10 12 63 -16 34 -19 108 -49 165 -66z m1777 24 c32 -21 50 -70
69 -191 26 -161 1 -276 -64 -303 -45 -19 -98 -8 -271 55 -174 64 -213 85 -240
129 -51 84 2 146 201 237 74 34 151 68 170 75 48 18 106 17 135 -2z m-1189
-52 c-8 -8 -52 -15 -117 -19 -86 -5 -110 -3 -137 11 -18 9 -32 19 -32 21 0 3
67 4 150 3 122 -3 147 -5 136 -16z m-3503 -102 c163 -76 237 -133 237 -183 0
-29 -35 -83 -71 -109 -23 -18 -187 -81 -334 -130 -144 -47 -206 11 -205 195 1
78 23 204 43 243 48 93 101 90 330 -16z m1267 26 c0 -2 -25 -20 -56 -40 -49
-33 -61 -37 -93 -31 -42 8 -134 46 -127 52 13 13 276 32 276 19z m378 -21
c-58 -31 -210 -75 -252 -74 -29 1 -28 2 24 27 49 23 220 70 260 71 8 0 -6 -11
-32 -24z m867 -131 c39 -17 92 -35 118 -39 l48 -6 -5 -87 c-3 -48 -11 -244
-16 -437 -6 -192 -15 -498 -20 -678 -6 -180 -10 -493 -10 -696 0 -417 6 -387
-84 -417 -59 -20 -131 -14 -195 18 l-46 23 2 430 c0 237 7 637 15 890 7 253
13 609 13 791 l0 330 55 -45 c30 -24 87 -59 125 -77z m-1346 -85 c17 -6 31
-15 31 -19 0 -11 -141 -126 -243 -200 -113 -81 -153 -100 -209 -100 -52 0 -56
4 -32 38 24 35 292 231 359 263 33 16 60 29 61 29 1 0 15 -5 33 -11z m3276
-314 c155 -20 218 -38 244 -71 44 -56 36 -176 -20 -302 -40 -89 -72 -122 -119
-122 -53 0 -109 41 -247 182 -125 127 -162 183 -163 244 0 36 14 51 67 70 50
17 94 17 238 -1z m-4250 -56 c123 -34 99 -114 -94 -313 -122 -124 -204 -186
-247 -186 -12 0 -34 10 -49 22 -38 29 -101 167 -115 251 -11 59 -10 74 4 112
26 68 70 87 246 110 123 16 205 18 255 4z m3853 -357 c53 -21 229 -177 287
-254 98 -131 96 -190 -14 -298 -123 -122 -254 -165 -313 -102 -52 54 -75 164
-85 402 -6 171 1 222 34 255 18 19 37 18 91 -3z m-375 -40 c8 -9 21 -30 27
-46 22 -60 44 -245 44 -391 1 -166 -7 -195 -62 -216 -64 -25 -202 39 -298 138
-126 129 -113 219 56 397 117 122 194 161 233 118z m-3219 -7 c30 -31 39 -94
32 -240 -3 -77 -13 -182 -21 -232 -35 -217 -90 -254 -253 -173 -97 49 -197
147 -208 206 -15 83 33 162 190 308 142 132 219 171 260 131z m381 -40 c18 -9
75 -60 128 -114 152 -154 177 -232 108 -339 -53 -84 -196 -186 -277 -198 -67
-10 -91 1 -115 49 -19 36 -22 58 -21 152 0 111 24 321 44 385 24 81 60 99 133
65z"/>
<path d="M4830 5155 c-57 -17 -90 -39 -90 -62 0 -36 168 -65 249 -43 41 11 91
48 91 68 0 41 -155 63 -250 37z m216 -27 c15 -15 14 -17 -17 -34 -19 -9 -63
-19 -99 -21 -68 -4 -165 15 -165 32 0 6 16 18 35 27 48 24 221 22 246 -4z"/>
<path d="M4773 4770 c0 -25 2 -35 4 -22 2 12 2 32 0 45 -2 12 -4 2 -4 -23z"/>
<path d="M4778 4403 c-3 -153 -2 -321 2 -373 4 -62 7 36 8 278 1 204 0 372 -1
372 -2 0 -6 -125 -9 -277z"/>
<path d="M4794 3590 c0 -58 1 -81 3 -52 2 28 2 76 0 105 -2 28 -3 5 -3 -53z"/>
<path d="M6738 3585 c-9 -44 -46 -87 -71 -83 -12 2 -32 18 -44 37 -28 42 -30
28 -3 -17 17 -28 25 -33 53 -30 26 2 36 11 55 45 13 24 22 51 20 60 -3 12 -6
7 -10 -12z"/>
<path d="M5066 3542 c-37 -73 -59 -169 -52 -227 6 -54 33 -142 46 -150 4 -2 1
14 -8 38 -36 102 -24 245 29 349 11 21 17 38 14 38 -2 0 -16 -22 -29 -48z"/>
<path d="M3500 3542 c0 -22 26 -76 43 -90 22 -19 54 -6 72 28 22 42 18 50 -5
12 -29 -47 -58 -41 -87 18 -13 24 -23 39 -23 32z"/>
<path d="M6551 3465 c33 -75 38 -197 10 -261 -13 -31 -15 -42 -6 -29 20 25 45
110 45 149 0 35 -43 163 -60 180 -6 6 -1 -11 11 -39z"/>
<path d="M6796 3469 c-11 -55 -7 -86 15 -113 22 -27 62 -34 89 -15 12 8 10 9
-8 4 -62 -18 -96 28 -85 115 7 47 -2 54 -11 9z"/>
<path d="M3696 3465 c-9 -26 -7 -32 5 -12 6 10 9 21 6 23 -2 3 -7 -2 -11 -11z"/>
<path d="M5071 3424 c0 -11 3 -14 6 -6 3 7 2 16 -1 19 -3 4 -6 -2 -5 -13z"/>
<path d="M3437 3365 c5 -60 3 -73 -15 -95 -19 -23 -22 -24 -63 -13 -39 10 -42
10 -25 -3 28 -20 80 -18 99 4 19 20 23 121 7 157 -6 12 -7 -6 -3 -50z"/>
<path d="M3671 3380 c-15 -69 -14 -107 5 -169 21 -71 26 -61 7 14 -13 49 -14
73 -5 130 13 82 9 98 -7 25z"/>
<path d="M5061 3335 c0 -38 3 -76 8 -84 5 -7 7 17 4 60 -6 99 -11 109 -12 24z"/>
<path d="M6870 3218 c0 -23 -90 -103 -149 -133 -64 -32 -64 -50 3 -76 61 -23
71 -17 22 12 -20 11 -36 22 -36 24 0 2 22 17 50 35 74 47 136 127 116 147 -3
4 -6 -1 -6 -9z"/>
<path d="M6921 3174 c-53 -56 -75 -106 -66 -150 6 -37 46 -74 79 -74 16 0 13
4 -14 18 -19 9 -41 30 -48 45 -12 25 -12 35 3 72 9 24 34 64 56 89 53 60 44
60 -10 0z"/>
<path d="M3313 3091 c68 -82 86 -152 47 -191 -20 -20 -41 -27 -100 -33 -26 -3
-21 -4 17 -5 42 -2 57 3 82 24 25 21 31 33 31 65 0 50 -28 104 -76 149 l-38
35 37 -44z"/>
<path d="M6488 3000 c-85 -15 -159 -41 -165 -57 -4 -10 6 -24 28 -42 18 -14
81 -74 139 -132 83 -84 119 -113 173 -138 38 -18 71 -31 73 -28 3 3 -21 20
-53 38 -37 20 -106 81 -189 165 l-132 132 62 17 c80 23 218 31 285 16 65 -14
77 -8 27 13 -44 18 -185 28 -248 16z"/>
<path d="M5420 2955 c0 -8 81 -46 90 -43 4 2 -14 13 -41 25 -27 12 -49 20 -49
18z"/>
<path d="M6968 2943 c6 -2 18 -2 25 0 6 3 1 5 -13 5 -14 0 -19 -2 -12 -5z"/>
<path d="M6097 2913 c-25 -25 19 -76 138 -158 39 -27 88 -63 110 -81 47 -38
109 -71 156 -84 28 -7 31 -7 15 3 -52 32 -266 184 -341 242 -18 14 -18 16 -3
32 16 15 20 15 63 -2 48 -18 147 -90 270 -196 75 -65 169 -125 213 -135 17 -5
-1 12 -49 44 -42 28 -115 86 -163 129 -119 106 -208 168 -272 193 -54 20 -124
27 -137 13z m53 -27 c0 -3 -4 -8 -10 -11 -5 -3 -10 -1 -10 4 0 6 5 11 10 11 6
0 10 -2 10 -4z"/>
<path d="M5543 2903 c9 -2 23 -2 30 0 6 3 -1 5 -18 5 -16 0 -22 -2 -12 -5z"/>
<path d="M5695 2889 c64 -6 152 -22 210 -39 55 -15 102 -27 103 -25 2 2 -40
18 -94 35 -82 26 -119 32 -214 35 l-115 4 110 -10z"/>
<path d="M6900 2799 c-44 -27 -56 -44 -69 -96 -17 -64 18 -132 84 -165 11 -5
5 2 -13 17 -63 52 -78 115 -43 183 24 47 52 63 121 72 l55 7 -50 2 c-35 1 -60
-5 -85 -20z"/>
<path d="M4462 2769 c-81 -16 -55 -22 31 -8 128 21 243 -16 280 -92 9 -19 17
-28 17 -20 0 30 -43 81 -87 102 -53 26 -158 34 -241 18z"/>
<path d="M3250 2731 c8 -6 25 -11 38 -11 55 0 112 -56 112 -110 0 -35 -28 -79
-72 -110 -50 -36 -38 -40 15 -5 87 60 89 178 2 219 -39 18 -117 32 -95 17z"/>
<path d="M4791 2614 c0 -11 3 -14 6 -6 3 7 2 16 -1 19 -3 4 -6 -2 -5 -13z"/>
<path d="M3500 2489 c-11 -8 -7 -9 18 -6 l33 4 -6 -56 c-5 -55 -5 -56 8 -21 8
19 17 47 21 63 6 25 4 27 -26 27 -18 0 -40 -5 -48 -11z"/>
<path d="M3255 2460 c-3 -6 1 -7 9 -4 18 7 21 14 7 14 -6 0 -13 -4 -16 -10z"/>
<path d="M6844 2423 c-37 -27 -41 -108 -8 -163 10 -16 13 -18 8 -5 -35 102
-23 158 34 163 19 2 48 -2 65 -8 24 -8 29 -8 20 1 -14 14 -104 23 -119 12z"/>
<path d="M6551 2409 c-1 -3 6 -27 15 -53 12 -34 15 -68 11 -115 -3 -49 -2 -59
5 -41 13 34 5 137 -15 180 -8 19 -16 32 -16 29z"/>
<path d="M3310 2370 c-11 -7 -6 -8 17 -4 91 18 118 -34 79 -151 -4 -11 0 -7
10 10 24 42 24 107 0 134 -21 23 -79 29 -106 11z"/>
<path d="M5098 2120 c-17 -576 -17 -575 -3 -320 8 135 14 319 12 410 -2 160
-2 157 -9 -90z"/>
<path d="M3656 2238 c-8 -30 -6 -98 2 -120 4 -10 7 19 7 62 0 44 -1 80 -1 80
-1 0 -4 -10 -8 -22z"/>
<path d="M6665 2196 c-13 -13 -29 -43 -35 -66 -15 -56 -7 -62 9 -8 26 86 76
110 126 61 28 -28 26 -14 -3 20 -22 25 -68 21 -97 -7z"/>
<path d="M3492 2163 c-14 -6 -52 -75 -52 -95 1 -7 8 3 16 22 21 49 43 70 74
70 31 0 53 -21 74 -70 17 -38 22 -27 6 14 -20 54 -70 79 -118 59z"/>
<path d="M6561 2154 c0 -11 3 -14 6 -6 3 7 2 16 -1 19 -3 4 -6 -2 -5 -13z"/>
<path d="M4800 1879 c0 -28 -19 -837 -24 -1009 -4 -147 -3 -157 4 -65 11 149
33 1075 26 1083 -3 3 -6 -1 -6 -9z"/>
<path d="M4298 5043 c7 -3 16 -2 19 1 4 3 -2 6 -13 5 -11 0 -14 -3 -6 -6z"/>
<path d="M4233 5008 c-42 -44 -50 -78 -24 -102 11 -10 26 -16 33 -13 9 4 7 6
-4 6 -10 1 -22 10 -28 21 -13 25 8 69 47 99 15 11 23 21 17 21 -5 0 -24 -15
-41 -32z"/>
<path d="M3980 4752 c0 -17 42 -42 70 -42 15 0 35 7 46 16 18 15 18 15 -3 5
-34 -17 -65 -13 -90 11 -13 12 -23 16 -23 10z"/>
<path d="M4203 4703 c-9 -21 -18 -57 -21 -80 -4 -35 0 -46 21 -67 14 -14 34
-26 44 -26 13 1 11 5 -10 16 -38 21 -49 54 -37 111 6 25 15 54 21 64 5 11 7
19 4 19 -3 0 -13 -17 -22 -37z"/>
<path d="M3663 4620 c1 -19 8 -26 31 -28 16 -2 33 1 38 6 5 5 -3 7 -22 4 -24
-3 -32 0 -40 19 l-10 24 3 -25z"/>
<path d="M3864 4562 c15 -17 30 -22 71 -22 54 0 85 -19 85 -53 0 -18 37 -47
60 -46 13 0 13 1 0 6 -26 10 -50 35 -50 53 0 31 -33 50 -86 50 -30 0 -59 7
-74 17 l-25 17 19 -22z"/>
<path d="M4286 4482 c6 -4 14 -23 17 -42 13 -79 20 -100 36 -112 14 -11 14
-11 5 2 -12 16 -24 66 -27 115 -2 30 -13 45 -32 45 -6 0 -5 -4 1 -8z"/>
<path d="M4428 4238 c7 -7 12 -26 12 -42 1 -25 2 -28 10 -14 12 20 -3 68 -22
68 -9 0 -9 -3 0 -12z"/>
<path d="M4381 4052 c-1 -42 14 -72 37 -72 20 0 42 18 42 35 0 5 -5 2 -11 -7
-5 -10 -19 -18 -29 -18 -19 0 -24 10 -33 70 -3 20 -5 18 -6 -8z"/>
<path d="M5337 5041 c-70 -15 -75 -50 -12 -76 39 -17 170 -20 208 -6 34 13 42
40 19 64 -15 14 -37 20 -98 22 -44 2 -96 0 -117 -4z m194 -22 c22 -11 22 -12
4 -25 -37 -28 -235 -13 -235 17 0 27 184 34 231 8z"/>
<path d="M5543 4655 c0 -44 2 -61 4 -37 2 23 2 59 0 80 -2 20 -4 1 -4 -43z"/>
<path d="M5533 4520 c0 -25 2 -35 4 -22 2 12 2 32 0 45 -2 12 -4 2 -4 -23z"/>
<path d="M5517 4381 c-4 -52 -6 -158 -5 -235 1 -136 1 -134 10 74 9 234 7 311
-5 161z"/>
<path d="M5276 3807 c-4 -54 -6 -101 -3 -103 7 -7 20 158 15 182 -2 10 -8 -25
-12 -79z"/>
<path d="M5522 3700 c0 -19 2 -27 5 -17 2 9 2 25 0 35 -3 9 -5 1 -5 -18z"/>
<path d="M5262 3670 c0 -14 2 -19 5 -12 2 6 2 18 0 25 -3 6 -5 1 -5 -13z"/>
<path d="M5530 3652 c0 -29 22 -171 31 -197 10 -31 37 -65 79 -100 14 -11 6 1
-16 26 -47 52 -59 83 -74 193 -9 69 -20 112 -20 78z"/>
<path d="M5314 3577 c-11 -40 -24 -81 -28 -92 -4 -11 1 -4 12 15 19 34 48 138
41 145 -2 2 -13 -29 -25 -68z"/>
<path d="M5251 3624 c0 -11 3 -14 6 -6 3 7 2 16 -1 19 -3 4 -6 -2 -5 -13z"/>
<path d="M6428 4874 c12 -8 22 -23 23 -32 0 -10 3 -12 5 -5 8 18 -15 53 -34
53 -13 0 -12 -3 6 -16z"/>
<path d="M6036 4788 c-37 -57 -28 -109 18 -107 l21 0 -21 9 c-12 4 -24 15 -27
22 -8 22 20 78 45 88 l23 9 -22 0 c-13 1 -29 -9 -37 -21z"/>
<path d="M6618 4775 c33 -15 77 -12 88 7 4 7 -2 7 -17 2 -29 -9 -47 -10 -79
-1 -16 4 -13 1 8 -8z"/>
<path d="M6470 4710 c0 -6 -18 -7 -44 -4 -24 4 -46 2 -49 -2 -3 -5 18 -9 46
-9 31 0 52 5 54 13 3 6 2 12 -1 12 -3 0 -6 -4 -6 -10z"/>
<path d="M6943 4689 c11 -6 25 -25 33 -43 11 -26 13 -28 14 -8 0 24 -32 62
-52 62 -7 0 -5 -5 5 -11z"/>
<path d="M6156 4575 c-9 -9 -20 -34 -26 -55 -12 -46 -17 -50 -65 -54 -22 -1
-44 -11 -58 -26 -20 -22 -20 -22 -1 -7 11 9 40 19 63 21 52 5 55 8 78 71 13
36 25 51 43 56 23 6 23 7 3 8 -12 1 -29 -6 -37 -14z"/>
<path d="M5781 4068 c-2 -53 7 -68 39 -68 19 0 33 8 45 26 9 14 15 28 12 30
-2 3 -12 -7 -21 -21 -9 -14 -25 -25 -36 -25 -19 0 -24 10 -33 70 -3 17 -5 14
-6 -12z"/>
<path d="M3455 4469 c-38 -4 -106 -19 -150 -34 -376 -126 -647 -458 -801 -984
-134 -454 -152 -956 -49 -1364 52 -206 163 -452 275 -609 158 -222 383 -373
645 -434 108 -25 295 -15 400 20 288 98 445 322 445 634 0 266 -127 472 -291
472 -41 0 -63 -5 -81 -20 -30 -23 -52 -71 -45 -97 3 -12 5 -8 6 11 1 18 14 41
36 63 34 34 38 35 91 31 131 -11 231 -151 265 -370 20 -131 -9 -298 -74 -423
-48 -92 -154 -192 -257 -242 -122 -60 -193 -76 -330 -76 -155 0 -270 30 -435
116 -201 105 -357 278 -489 543 -147 295 -211 587 -209 959 2 591 192 1174
483 1479 151 158 304 249 506 300 170 43 398 -5 578 -121 343 -221 444 -686
204 -939 -89 -95 -196 -128 -278 -86 -39 19 -79 81 -81 127 -1 25 -2 26 -6 7
-11 -59 53 -143 123 -162 78 -22 176 21 262 115 86 93 127 210 126 355 -3 365
-330 699 -714 728 -47 4 -116 4 -155 1z"/>
<path d="M6801 4098 c-6 -35 -13 -103 -16 -153 -4 -75 -1 -65 15 60 19 155 20
203 1 93z"/>
<path d="M6861 4134 c0 -11 3 -14 6 -6 3 7 2 16 -1 19 -3 4 -6 -2 -5 -13z"/>
<path d="M6846 4059 c-4 -28 -5 -53 -3 -56 3 -2 8 19 12 47 4 28 5 53 2 56 -2
3 -7 -19 -11 -47z"/>
<path d="M6929 3978 c-40 -96 -44 -108 -30 -88 16 22 73 161 68 166 -2 2 -19
-33 -38 -78z"/>
<path d="M7067 3968 c-31 -46 -73 -105 -93 -133 -32 -44 -32 -46 -5 -15 54 60
171 230 158 230 -2 0 -29 -37 -60 -82z"/>
<path d="M6972 3933 c-63 -114 -77 -140 -64 -128 12 11 105 171 115 198 15 38
-4 12 -51 -70z"/>
<path d="M6832 3965 c0 -16 2 -22 5 -12 2 9 2 23 0 30 -3 6 -5 -1 -5 -18z"/>
<path d="M6822 3910 c0 -14 2 -19 5 -12 2 6 2 18 0 25 -3 6 -5 1 -5 -13z"/>
<path d="M6876 3855 c-9 -26 -7 -32 5 -12 6 10 9 21 6 23 -2 3 -7 -2 -11 -11z"/>
<path d="M3421 4074 c0 -11 3 -14 6 -6 3 7 2 16 -1 19 -3 4 -6 -2 -5 -13z"/>
<path d="M3431 4029 c1 -45 37 -294 38 -264 1 37 -28 277 -34 284 -3 2 -5 -7
-4 -20z"/>
<path d="M3382 4015 c0 -16 2 -22 5 -12 2 9 2 23 0 30 -3 6 -5 -1 -5 -18z"/>
<path d="M3270 3975 c0 -12 92 -226 96 -222 3 3 -84 216 -92 226 -2 2 -4 1 -4
-4z"/>
<path d="M3392 3960 c0 -14 2 -19 5 -12 2 6 2 18 0 25 -3 6 -5 1 -5 -13z"/>
<path d="M3136 3915 c24 -43 98 -145 131 -180 36 -40 29 -28 -48 75 -35 47
-72 96 -82 110 -18 25 -18 25 -1 -5z"/>
<path d="M3231 3888 c31 -62 119 -208 126 -208 3 0 -1 10 -9 23 -8 12 -41 68
-72 125 -59 103 -84 137 -45 60z"/>
<path d="M3402 3915 c-1 -11 3 -38 7 -60 7 -34 9 -35 9 -10 0 35 -15 101 -16
70z"/>
<path d="M6475 4075 c4 -11 22 -78 41 -150 18 -71 31 -107 28 -80 -7 57 -50
211 -65 234 -9 13 -9 12 -4 -4z"/>
<path d="M6431 3989 c11 -23 36 -87 54 -143 37 -111 47 -118 14 -10 -23 76
-74 194 -84 194 -3 0 4 -19 16 -41z"/>
<path d="M6330 3855 c26 -44 110 -155 118 -155 2 0 -7 15 -20 33 -14 17 -42
57 -63 87 -49 71 -65 86 -35 35z"/>
<path d="M6238 3864 c16 -30 151 -173 176 -185 11 -6 -6 15 -39 47 -33 33 -80
82 -104 109 -24 28 -39 41 -33 29z"/>
<path d="M6262 3768 c44 -43 89 -83 101 -89 12 -6 4 4 -18 22 -22 18 -67 58
-101 89 -35 31 -27 22 18 -22z"/>
<path d="M3730 3979 c-6 -24 -15 -60 -21 -79 -5 -19 -9 -46 -8 -60 0 -14 11
20 25 74 13 54 22 101 20 104 -3 2 -10 -16 -16 -39z"/>
<path d="M3789 3943 c-28 -63 -70 -194 -69 -218 1 -5 18 42 40 106 21 64 45
130 54 148 9 17 14 31 11 31 -3 0 -19 -30 -36 -67z"/>
<path d="M3893 3828 c-22 -35 -55 -82 -73 -105 -17 -24 -30 -43 -27 -43 8 0
93 114 121 163 40 67 27 58 -21 -15z"/>
<path d="M3911 3753 c-88 -103 -89 -104 -19 -33 64 65 126 140 116 140 -2 0
-45 -48 -97 -107z"/>
<path d="M3995 3772 c-27 -26 -72 -67 -100 -91 l-50 -43 46 31 c41 29 170 151
159 151 -3 0 -27 -22 -55 -48z"/>
<path d="M3692 3790 c0 -14 2 -19 5 -12 2 6 2 18 0 25 -3 6 -5 1 -5 -13z"/>
<path d="M7204 3698 c-48 -51 -133 -168 -121 -168 2 0 19 21 37 48 19 26 56
73 83 105 58 67 58 75 1 15z"/>
<path d="M7269 3687 c-57 -48 -163 -167 -183 -207 -5 -8 4 1 19 20 16 19 74
81 131 138 57 56 102 102 101 102 -2 0 -32 -24 -68 -53z"/>
<path d="M7190 3547 c-31 -29 -67 -65 -80 -82 -14 -16 13 6 58 50 74 72 87 86
80 85 -2 -1 -28 -24 -58 -53z"/>
<path d="M7248 3444 c-60 -30 -108 -56 -108 -59 0 -8 196 89 215 106 15 15 4
10 -107 -47z"/>
<path d="M7298 3402 c-81 -31 -145 -58 -143 -60 5 -6 180 56 250 88 92 43 55
33 -107 -28z"/>
<path d="M2900 3646 c0 -2 8 -10 18 -17 15 -13 16 -12 3 4 -13 16 -21 21 -21
13z"/>
<path d="M3028 3608 c22 -25 57 -69 77 -97 20 -28 39 -51 42 -51 12 0 -39 70
-96 129 -35 36 -45 45 -23 19z"/>
<path d="M3027 3529 c51 -52 102 -105 114 -119 12 -14 9 -7 -6 15 -36 51 -109
128 -160 168 -22 17 1 -12 52 -64z"/>
<path d="M3040 3462 c25 -23 61 -58 80 -79 19 -22 28 -30 20 -18 -27 38 -85
97 -115 117 -17 11 -10 3 15 -20z"/>
<path d="M2890 3396 c0 -2 7 -7 16 -10 8 -3 12 -2 9 4 -6 10 -25 14 -25 6z"/>
<path d="M2930 3376 c0 -7 181 -99 185 -94 2 2 -35 24 -82 48 -98 52 -103 54
-103 46z"/>
<path d="M2830 3341 c16 -9 189 -74 230 -86 64 -19 1 10 -110 50 -122 44 -149
52 -120 36z"/>
<path d="M4655 3249 c-22 -17 -71 -46 -110 -65 -38 -19 -63 -34 -56 -34 26 0
137 59 176 94 49 43 44 46 -10 5z"/>
<path d="M7405 3064 c-67 -20 -186 -66 -182 -71 2 -1 44 11 93 28 48 17 111
37 139 44 28 8 39 14 25 14 -14 0 -47 -7 -75 -15z"/>
<path d="M7395 2999 c-27 -5 -70 -15 -95 -24 -39 -13 -40 -14 -10 -9 19 3 73
14 120 24 86 18 76 25 -15 9z"/>
<path d="M7310 2826 c91 -16 205 -28 198 -21 -5 5 -110 20 -218 30 -44 4 -40
2 20 -9z"/>
<path d="M7300 2774 c68 -22 221 -54 255 -53 17 0 -1 7 -40 14 -38 7 -108 22
-154 34 -96 24 -129 26 -61 5z"/>
<path d="M2738 2993 c7 -3 16 -2 19 1 4 3 -2 6 -13 5 -11 0 -14 -3 -6 -6z"/>
<path d="M2775 2985 c6 -2 53 -18 105 -34 52 -16 104 -32 115 -36 16 -6 17 -5
5 4 -19 14 -155 58 -200 65 -19 3 -30 4 -25 1z"/>
<path d="M2718 2923 c6 -2 18 -2 25 0 6 3 1 5 -13 5 -14 0 -19 -2 -12 -5z"/>
<path d="M2785 2913 c17 -3 68 -13 115 -24 47 -10 96 -21 110 -24 l25 -6 -25
12 c-38 16 -191 49 -225 47 l-30 -1 30 -4z"/>
<path d="M2993 2753 c9 -2 23 -2 30 0 6 3 -1 5 -18 5 -16 0 -22 -2 -12 -5z"/>
<path d="M2835 2735 c-74 -10 -81 -13 -40 -13 28 -1 79 5 115 12 81 17 44 17
-75 1z"/>
<path d="M2890 2684 c-47 -13 -107 -28 -135 -33 -38 -7 -42 -9 -19 -10 31 -1
196 38 244 57 42 18 -1 11 -90 -14z"/>
<path d="M5283 2705 c0 -22 2 -30 4 -17 2 12 2 30 0 40 -3 9 -5 -1 -4 -23z"/>
<path d="M5292 2439 c-1 -119 -4 -278 -6 -355 l-5 -139 10 120 c5 66 8 226 6
355 l-2 235 -3 -216z"/>
<path d="M5506 1698 c-10 -161 -19 -401 -21 -533 l-3 -240 8 237 c5 130 13
301 19 380 14 191 25 448 20 448 -3 0 -13 -132 -23 -292z"/>
<path d="M5273 1880 c0 -36 2 -50 4 -32 2 17 2 47 0 65 -2 17 -4 3 -4 -33z"/>
<path d="M7355 2411 c189 -44 184 -43 140 -26 -49 20 -207 55 -237 54 -13 0
31 -13 97 -28z"/>
<path d="M7344 2354 c54 -19 100 -33 102 -31 5 4 -176 68 -191 67 -5 -1 34
-17 89 -36z"/>
<path d="M7170 2306 c35 -38 134 -113 180 -136 35 -18 16 -1 -65 56 -38 27
-88 64 -110 83 l-40 35 35 -38z"/>
<path d="M7160 2262 c0 -12 144 -140 208 -184 62 -42 51 -28 -20 28 -34 27
-91 75 -125 107 -35 33 -63 55 -63 49z"/>
<path d="M2893 2364 c-82 -17 -175 -45 -171 -49 2 -2 58 9 123 25 66 15 129
30 140 33 16 4 15 5 -5 5 -14 0 -53 -6 -87 -14z"/>
<path d="M2901 2305 c-51 -19 -96 -37 -100 -41 -3 -4 3 -4 14 0 11 4 61 21
110 38 50 17 92 32 94 34 12 12 -34 -1 -118 -31z"/>
<path d="M3040 2229 c-25 -22 -73 -58 -107 -80 -63 -41 -83 -60 -40 -38 41 21
142 97 171 128 40 42 30 38 -24 -10z"/>
<path d="M3049 2184 c-19 -20 -72 -68 -119 -107 -97 -80 -112 -94 -90 -82 55
31 259 209 249 219 -3 3 -21 -10 -40 -30z"/>
<path d="M7084 1906 c42 -48 95 -116 117 -150 23 -33 39 -53 36 -43 -14 37
-88 136 -157 208 l-71 74 75 -89z"/>
<path d="M7018 1908 c45 -63 92 -138 120 -193 12 -22 21 -36 22 -32 1 29 -155
277 -176 277 -2 0 13 -24 34 -52z"/>
<path d="M6871 1864 c-2 -31 36 -232 54 -284 8 -25 13 -34 10 -20 -9 44 -43
223 -53 275 -5 28 -10 41 -11 29z"/>
<path d="M6920 1861 c0 -20 58 -188 76 -219 8 -15 12 -18 8 -7 -4 11 -24 70
-45 130 -21 61 -38 104 -39 96z"/>
<path d="M6433 1918 c-48 -54 -94 -120 -122 -178 -22 -48 -18 -42 40 49 19 31
57 82 82 114 56 67 56 74 0 15z"/>
<path d="M6456 1878 c-36 -58 -80 -148 -90 -188 -4 -14 13 16 37 65 24 50 56
109 70 133 15 23 25 42 22 42 -3 0 -20 -24 -39 -52z"/>
<path d="M6612 1730 c-1 -74 -4 -160 -7 -190 l-4 -55 10 48 c5 26 8 112 6 190
l-3 142 -2 -135z"/>
<path d="M6531 1823 c0 -12 -10 -60 -22 -108 -11 -48 -18 -89 -16 -92 8 -7 49
185 44 204 -4 14 -5 14 -6 -4z"/>
<path d="M6561 1692 c-7 -68 -11 -125 -8 -128 6 -7 30 221 25 238 -3 7 -10
-43 -17 -110z"/>
<path d="M6542 1530 c0 -14 2 -19 5 -12 2 6 2 18 0 25 -3 6 -5 1 -5 -13z"/>
<path d="M6531 1484 c0 -11 3 -14 6 -6 3 7 2 16 -1 19 -3 4 -6 -2 -5 -13z"/>
<path d="M3166 1872 c-60 -61 -97 -109 -151 -197 -29 -46 -13 -28 52 60 33 44
85 108 117 143 32 34 56 62 54 62 -3 0 -35 -31 -72 -68z"/>
<path d="M3201 1837 c-47 -63 -128 -207 -117 -207 2 0 22 33 44 73 22 39 61
101 87 135 25 35 45 65 43 67 -2 2 -27 -29 -57 -68z"/>
<path d="M3309 1783 c-7 -26 -25 -81 -41 -121 -34 -89 -35 -106 -3 -34 28 61
69 192 62 198 -2 3 -10 -17 -18 -43z"/>
<path d="M3355 1753 c-7 -56 -39 -219 -51 -255 -3 -10 -3 -18 0 -18 11 0 51
173 62 270 4 33 4 60 1 60 -2 0 -8 -26 -12 -57z"/>
<path d="M3226 1553 c-6 -14 -5 -15 5 -6 7 7 10 15 7 18 -3 3 -9 -2 -12 -12z"/>
<path d="M3803 1878 c15 -18 54 -73 87 -122 65 -97 78 -108 29 -24 -30 51
-128 178 -137 178 -3 0 7 -15 21 -32z"/>
<path d="M3776 1841 c14 -24 44 -78 65 -120 22 -42 37 -65 33 -51 -10 38 -71
151 -99 185 l-26 30 27 -44z"/>
<path d="M3628 1733 c-3 -49 -3 -124 2 -168 6 -69 7 -57 8 88 1 92 0 167 -2
167 -1 0 -5 -39 -8 -87z"/>
<path d="M3702 1800 c0 -14 2 -19 5 -12 2 6 2 18 0 25 -3 6 -5 1 -5 -13z"/>
<path d="M3660 1799 c2 -84 29 -294 36 -286 5 5 -26 290 -32 296 -2 2 -4 -2
-4 -10z"/>
<path d="M3712 1755 c0 -29 25 -124 27 -100 0 11 -6 43 -13 70 -8 28 -14 41
-14 30z"/>
<path d="M3741 1620 c0 -8 4 -24 9 -35 5 -13 9 -14 9 -5 0 8 -4 24 -9 35 -5
13 -9 14 -9 5z"/>
<path d="M3702 1475 c0 -16 2 -22 5 -12 2 9 2 23 0 30 -3 6 -5 -1 -5 -18z"/>
<path d="M6003 2648 c-105 -111 -206 -338 -227 -508 -3 -25 5 -4 19 49 48 183
117 334 202 437 49 61 52 70 6 22z"/>
<path d="M4283 2545 c49 -71 85 -146 123 -255 18 -52 33 -87 34 -78 0 26 -59
187 -91 248 -16 30 -45 73 -65 95 l-36 40 35 -50z"/>
<path d="M6231 2375 c-145 -68 -264 -208 -325 -385 -27 -77 -17 -69 17 15 68
166 179 296 309 359 40 20 69 36 63 36 -5 0 -34 -11 -64 -25z"/>
<path d="M4067 2310 c111 -63 211 -201 269 -369 13 -36 23 -60 23 -54 2 24
-41 138 -77 207 -44 85 -128 178 -196 217 -28 16 -55 29 -61 29 -5 0 14 -14
42 -30z"/>
<path d="M4441 2174 c0 -11 3 -14 6 -6 3 7 2 16 -1 19 -3 4 -6 -2 -5 -13z"/>
<path d="M4451 2134 c0 -11 3 -14 6 -6 3 7 2 16 -1 19 -3 4 -6 -2 -5 -13z"/>
<path d="M5762 2065 c0 -16 2 -22 5 -12 2 9 2 23 0 30 -3 6 -5 -1 -5 -18z"/>
<path d="M5752 2010 c0 -14 2 -19 5 -12 2 6 2 18 0 25 -3 6 -5 1 -5 -13z"/>
<path d="M5881 1904 c0 -11 3 -14 6 -6 3 7 2 16 -1 19 -3 4 -6 -2 -5 -13z"/>
<path d="M4372 1820 c0 -14 2 -19 5 -12 2 6 2 18 0 25 -3 6 -5 1 -5 -13z"/>
</g>
</svg>
