<?xml version="1.0" standalone="no"?>
<!DOCTYPE svg PUBLIC "-//W3C//DTD SVG 20010904//EN"
 "http://www.w3.org/TR/2001/REC-SVG-20010904/DTD/svg10.dtd">
<svg version="1.0" xmlns="http://www.w3.org/2000/svg"
 width="1024.000000pt" height="559.000000pt" viewBox="0 0 1024.000000 559.000000"
 preserveAspectRatio="xMidYMid meet">
<metadata>
Created by potrace 1.16, written by Peter Selinger 2001-2019
</metadata>
<g transform="translate(0.000000,559.000000) scale(0.100000,-0.100000)"
fill="#000000" stroke="none">
<path d="M4665 5013 c-11 -105 -35 -199 -60 -235 -37 -55 -136 -123 -295 -204
-80 -41 -195 -105 -257 -143 -62 -38 -145 -81 -185 -96 -148 -56 -220 -88
-266 -120 -124 -84 -257 -329 -308 -565 -15 -68 -19 -130 -19 -305 -1 -193 -3
-230 -22 -300 -48 -177 -83 -485 -83 -734 0 -113 -19 -249 -54 -381 -46 -176
-61 -330 -61 -615 1 -186 6 -300 18 -400 10 -77 24 -194 33 -259 8 -66 16
-122 19 -124 11 -11 4 231 -9 343 -26 213 -39 427 -33 540 10 171 43 408 77
540 32 123 34 147 60 602 13 221 46 426 106 658 4 16 3 17 -5 5 -18 -25 -14
271 5 381 31 182 135 415 231 519 59 65 119 99 286 164 112 45 194 87 282 146
22 15 106 61 187 102 175 91 217 119 285 190 37 40 56 70 67 109 21 69 33 224
18 233 -7 4 -13 -14 -17 -51z"/>
<path d="M5563 4964 c3 -81 10 -122 24 -155 42 -94 131 -168 323 -265 63 -32
165 -88 225 -125 133 -81 193 -111 265 -134 99 -31 219 -96 265 -141 63 -63
119 -154 170 -275 78 -186 87 -233 91 -483 3 -186 7 -236 28 -335 14 -64 30
-141 36 -171 16 -82 38 -332 45 -525 7 -199 18 -286 50 -410 40 -157 75 -436
75 -610 0 -101 -16 -309 -40 -530 -12 -108 -12 -289 -1 -260 14 34 57 412 72
629 16 232 -10 526 -66 761 -38 159 -44 206 -55 455 -14 321 -38 509 -86 685
-13 48 -16 99 -15 251 3 277 -29 435 -132 639 -96 193 -177 262 -403 349 -111
42 -174 73 -276 137 -42 27 -143 82 -222 123 -174 89 -219 119 -278 185 -40
44 -47 59 -62 133 -9 46 -16 99 -16 118 0 19 -5 42 -11 50 -7 11 -9 -16 -6
-96z"/>
<path d="M4300 4118 c55 -24 90 -47 133 -89 64 -64 76 -65 21 -1 -34 41 -179
122 -215 122 -8 0 20 -15 61 -32z"/>
<path d="M5888 4096 c-91 -44 -146 -96 -162 -156 -4 -14 6 -2 23 26 32 55 49
69 156 126 86 46 75 49 -17 4z"/>
<path d="M5127 3713 c-16 -615 -18 -846 -9 -1038 9 -190 9 -179 11 230 1 237
5 518 10 625 5 107 6 256 2 330 -6 130 -7 125 -14 -147z"/>
<path d="M6550 3363 c-77 -169 -100 -243 -141 -458 -32 -169 -67 -292 -138
-485 -63 -170 -108 -370 -131 -577 -12 -115 -4 -212 36 -413 14 -69 27 -177
30 -240 4 -82 14 -145 34 -220 43 -158 67 -259 75 -315 8 -60 25 -126 37 -139
13 -16 9 95 -7 190 -9 49 -33 154 -55 234 -29 111 -40 172 -44 260 -4 63 -15
156 -26 205 -11 50 -27 145 -37 213 -16 116 -16 129 1 255 26 192 51 302 108
477 54 166 59 169 72 55 16 -138 43 -256 96 -421 34 -107 49 -229 50 -406 0
-170 23 -296 110 -613 17 -60 39 -150 50 -200 39 -175 53 -226 61 -231 31 -19
-24 262 -122 626 -45 170 -58 261 -65 484 -7 211 -14 251 -73 441 -17 55 -37
134 -45 175 -8 41 -24 127 -36 190 l-22 116 26 94 c14 52 41 181 61 285 22
123 50 237 80 324 46 139 53 178 15 94z"/>
<path d="M3670 3396 c0 -5 20 -68 44 -140 31 -90 54 -188 75 -312 17 -100 45
-230 61 -288 17 -59 28 -111 25 -115 -2 -5 -23 -98 -44 -208 -22 -110 -45
-213 -51 -229 -6 -16 -25 -76 -42 -134 -27 -96 -31 -124 -38 -325 -9 -226 -20
-311 -63 -475 -14 -52 -41 -156 -61 -230 -47 -180 -68 -298 -64 -362 3 -51 4
-47 36 87 19 77 50 201 69 275 20 74 47 176 60 225 38 146 53 259 59 445 6
212 15 274 59 411 37 116 67 254 85 393 14 100 15 100 59 -25 57 -161 88 -290
116 -478 25 -174 18 -296 -30 -491 -8 -36 -20 -130 -25 -210 -7 -116 -16 -170
-44 -266 -40 -142 -62 -251 -71 -350 -12 -125 23 -90 40 41 10 68 28 149 70
301 27 99 37 160 45 269 5 77 16 172 25 210 47 205 54 333 30 504 -29 195 -54
303 -105 446 -106 298 -115 333 -171 610 -20 100 -46 197 -71 259 -40 100 -77
178 -78 162z"/>
<path d="M5601 3395 c-2 -24 62 -216 93 -280 40 -85 125 -181 195 -219 62 -33
68 -28 8 8 -61 35 -152 136 -189 209 -17 34 -48 113 -69 177 -21 63 -38 111
-38 105z"/>
<path d="M4632 3320 c0 -14 2 -19 5 -12 2 6 2 18 0 25 -3 6 -5 1 -5 -13z"/>
<path d="M4616 3263 c-4 -16 -27 -70 -52 -121 -45 -94 -94 -154 -189 -231
l-40 -32 46 30 c83 54 147 129 194 226 39 82 64 155 52 155 -3 0 -8 -12 -11
-27z"/>
<path d="M5128 2130 c-15 -276 -20 -743 -9 -805 8 -50 9 -35 5 85 -2 79 1 284
7 455 6 170 9 333 7 360 -2 28 -6 -15 -10 -95z"/>
<path d="M7026 1823 c-3 -32 -2 -74 3 -93 7 -28 9 -18 10 58 1 50 -1 92 -3 92
-2 0 -7 -26 -10 -57z"/>
<path d="M3207 1857 c-3 -7 -1 -40 3 -72 l7 -60 2 73 c1 70 -2 85 -12 59z"/>
<path d="M5131 1244 c0 -11 3 -14 6 -6 3 7 2 16 -1 19 -3 4 -6 -2 -5 -13z"/>
<path d="M4759 964 c55 -41 108 -97 164 -174 17 -24 17 -24 0 9 -24 46 -117
146 -169 182 -66 45 -63 34 5 -17z"/>
<path d="M5474 959 c-59 -46 -162 -179 -140 -179 3 0 13 14 22 32 9 17 49 64
90 105 40 40 72 73 70 73 -2 0 -21 -14 -42 -31z"/>
</g>
</svg>
