<?xml version="1.0" standalone="no"?>
<!DOCTYPE svg PUBLIC "-//W3C//DTD SVG 20010904//EN"
 "http://www.w3.org/TR/2001/REC-SVG-20010904/DTD/svg10.dtd">
<svg version="1.0" xmlns="http://www.w3.org/2000/svg"
 width="1408.000000pt" height="768.000000pt" viewBox="0 0 1408.000000 768.000000"
 preserveAspectRatio="xMidYMid meet">
<metadata>
Created by potrace 1.16, written by Peter Selinger 2001-2019
</metadata>
<g transform="translate(0.000000,768.000000) scale(0.100000,-0.100000)"
fill="#000000" stroke="none">
<path d="M4470 6626 c-19 -7 -62 -26 -95 -42 -53 -27 -62 -35 -75 -75 -10 -28
-37 -67 -75 -106 -59 -61 -61 -63 -95 -53 -19 6 -72 28 -116 51 -99 49 -163
58 -253 35 -81 -21 -125 -48 -141 -87 -20 -47 7 -119 75 -201 82 -98 143 -134
240 -141 28 -2 30 -5 39 -59 9 -56 9 -57 -40 -143 -77 -135 -165 -246 -228
-288 -81 -54 -87 -67 -92 -204 -5 -161 13 -214 80 -229 17 -3 47 -23 66 -44
67 -73 241 -98 353 -50 l58 24 113 -22 c63 -12 151 -22 200 -22 125 0 138 -9
213 -155 25 -49 84 -155 131 -234 145 -246 175 -329 227 -624 32 -186 50 -232
125 -332 34 -44 87 -134 119 -200 105 -215 241 -321 437 -340 l72 -7 6 -36
c38 -222 40 -243 38 -442 -2 -230 9 -320 58 -473 51 -160 41 -347 -34 -637
-41 -159 -45 -168 -110 -265 -90 -134 -140 -237 -132 -269 18 -71 275 -90 401
-30 19 9 49 37 66 63 30 45 31 48 25 131 -5 70 -3 89 10 109 13 18 23 22 44
17 20 -3 33 1 45 14 16 18 17 27 5 112 -12 93 -16 619 -5 676 11 54 60 212 66
212 13 0 78 -171 90 -240 15 -82 19 -480 6 -561 -5 -28 -36 -95 -82 -177 -88
-154 -93 -180 -37 -206 77 -37 295 -30 352 12 14 10 36 39 50 64 24 46 24 46
8 115 -22 91 -14 132 31 155 19 9 38 23 43 30 9 15 8 19 -33 208 -65 305 -87
538 -65 703 14 104 14 129 2 220 -9 62 -15 195 -15 344 l-1 241 50 7 c66 9
139 1 350 -40 96 -19 245 -44 330 -56 85 -11 200 -32 255 -45 123 -30 234 -31
325 -5 79 22 273 91 393 138 l87 34 73 -71 c39 -39 102 -89 138 -110 l66 -39
7 -77 c7 -86 23 -120 62 -130 38 -10 76 23 96 82 9 27 18 42 21 34 64 -214
117 -474 117 -576 0 -118 -58 -355 -133 -551 -19 -48 -53 -137 -77 -198 -28
-74 -56 -128 -86 -165 -57 -71 -127 -177 -160 -241 -51 -101 -16 -124 186
-124 117 0 140 3 175 21 54 27 85 88 85 165 0 66 29 114 62 105 27 -7 64 9 72
31 4 10 11 63 16 118 5 55 19 136 30 180 33 122 120 382 189 560 34 88 74 191
89 229 l26 69 58 -177 c33 -98 63 -212 69 -258 30 -217 -18 -710 -80 -828
-150 -288 -156 -306 -126 -340 10 -11 26 -20 35 -20 9 0 32 -7 50 -17 44 -21
157 -21 231 0 74 22 120 54 143 101 17 35 18 46 7 102 -19 103 12 184 71 184
29 0 32 45 13 167 -15 96 -17 150 -12 336 9 314 49 698 87 827 18 61 12 111
-21 180 -115 242 -161 400 -161 555 0 113 8 168 58 375 46 189 108 505 129
650 10 63 21 124 25 135 5 11 10 -154 12 -375 5 -639 5 -641 -22 -775 -34
-173 -33 -337 4 -459 15 -49 43 -123 63 -165 33 -70 37 -85 41 -188 7 -174 42
-170 94 11 20 70 23 101 21 236 -1 157 -24 346 -45 365 -7 7 -9 -58 -4 -230 3
-132 2 -258 -3 -280 -6 -28 -9 -33 -10 -15 0 14 -19 97 -42 185 -38 150 -41
167 -36 263 3 56 1 102 -3 102 -4 0 -13 -20 -20 -45 -12 -44 -10 -195 5 -255
5 -24 5 -24 -4 -3 -6 13 -18 62 -27 110 -20 107 -14 225 18 368 21 92 22 121
20 355 -7 753 -11 942 -22 1010 -6 41 -11 130 -10 197 1 189 -14 295 -53 366
-40 75 -114 157 -186 207 -31 20 -65 47 -75 59 -20 22 -46 28 -46 10 0 -24 25
-51 101 -110 85 -66 156 -154 186 -230 25 -63 25 -480 0 -654 -34 -232 -78
-475 -123 -672 -87 -383 -94 -421 -94 -543 0 -179 32 -294 145 -536 49 -106
54 -138 30 -231 -44 -176 -78 -543 -79 -863 -1 -217 2 -264 17 -319 10 -35 17
-64 15 -66 -2 -1 -18 -10 -35 -19 -18 -9 -39 -27 -48 -39 -24 -38 -37 -118
-26 -167 5 -25 9 -46 8 -47 -2 -1 -35 20 -75 47 -67 45 -99 59 -175 75 l-27 5
24 48 c65 129 114 608 87 849 -16 141 -107 416 -198 597 -35 71 -90 199 -122
285 -102 273 -205 454 -329 574 -146 140 -296 163 -451 69 -71 -43 -134 -92
-128 -99 3 -2 55 22 116 54 104 54 114 57 183 58 61 0 83 -5 131 -29 117 -57
231 -198 338 -420 32 -66 59 -126 59 -132 0 -6 -23 -23 -50 -38 -58 -32 -75
-55 -85 -113 -3 -22 -13 -49 -21 -60 -14 -17 -14 -17 -29 1 -8 11 -15 34 -15
51 0 61 -19 94 -58 105 -45 12 -112 13 -131 1 -7 -5 -23 -39 -35 -77 -36 -109
-76 -92 -76 32 0 31 -5 64 -10 74 -6 11 -43 38 -83 62 -41 24 -103 73 -143
115 -40 40 -80 73 -89 73 -10 0 -81 -24 -159 -54 -383 -147 -454 -159 -648
-112 -58 14 -146 30 -195 36 -117 14 -236 34 -423 72 -181 36 -321 40 -465 14
-49 -9 -94 -16 -99 -16 -13 0 1 45 47 150 37 86 41 103 40 175 -1 144 -18 350
-28 350 -19 0 -25 -81 -19 -241 l6 -162 -37 -88 c-67 -159 -93 -247 -114 -384
-58 -382 -81 -542 -87 -610 -4 -42 -22 -124 -42 -185 l-36 -110 0 -335 c-1
-184 3 -361 7 -392 l8 -58 -29 0 c-21 0 -38 -9 -55 -29 -37 -45 -44 -102 -21
-183 8 -28 -12 -22 -90 26 -39 24 -96 52 -126 61 -30 10 -57 19 -59 21 -2 2
15 30 37 64 26 38 45 81 52 118 7 31 25 107 41 169 59 233 63 441 12 613 -47
153 -57 233 -49 395 7 179 4 209 -79 722 -23 137 -51 218 -92 264 -44 49 -61
41 -28 -14 43 -74 59 -137 90 -356 l6 -44 -68 7 c-96 9 -194 59 -273 139 -50
50 -74 85 -120 182 -34 69 -83 150 -114 190 -79 98 -87 124 -141 418 -41 221
-73 299 -242 592 -44 77 -94 168 -112 202 -38 77 -85 132 -128 149 -20 9 -71
14 -130 14 -54 0 -125 7 -158 15 -33 8 -75 14 -92 15 -40 0 -41 6 -7 33 26 20
54 73 54 102 0 28 -29 15 -54 -23 -13 -20 -31 -43 -40 -51 -21 -18 -122 -16
-214 3 -40 9 -118 16 -172 16 -91 0 -100 2 -114 22 -21 29 -21 78 -1 78 16 0
30 41 22 68 -3 9 -12 33 -20 52 -13 30 -13 40 -2 67 13 32 14 32 44 17 21 -11
55 -14 118 -12 126 4 112 22 -21 26 l-108 3 67 61 c129 118 286 389 273 468
l-5 25 -11 -25 c-10 -24 -11 -23 -13 15 -8 129 10 163 163 301 114 102 138
133 166 205 13 34 142 89 209 89 59 0 206 -50 239 -81 13 -13 29 -40 34 -60
11 -39 77 -107 133 -135 15 -8 27 -19 27 -23 0 -5 -19 -25 -41 -44 -41 -33
-46 -57 -13 -57 9 0 52 35 97 78 45 43 92 84 104 91 65 34 213 32 284 -5 23
-12 29 -21 29 -48 0 -43 -61 -136 -149 -227 -80 -82 -114 -94 -221 -79 -71 10
-104 4 -122 -24 -14 -20 -8 -23 70 -24 42 -1 88 -4 102 -5 41 -4 102 12 142
38 l37 25 74 -40 c103 -56 303 -127 404 -145 53 -9 150 -15 252 -15 195 0 274
-8 511 -55 513 -100 977 -133 1465 -105 387 22 557 40 870 91 144 23 260 24
420 4 66 -8 161 -15 211 -15 119 0 176 -12 282 -57 191 -83 308 -265 351 -548
33 -213 37 -414 19 -935 -18 -537 -7 -654 93 -1000 16 -59 22 -108 24 -223 2
-83 7 -153 13 -159 31 -31 53 144 33 272 -7 41 -28 133 -47 203 -19 71 -42
161 -50 200 -23 118 -28 396 -14 817 14 416 7 650 -25 850 -30 182 -96 333
-192 439 -47 52 -73 71 -169 118 l-114 55 -133 10 c-72 5 -199 15 -282 23
-189 19 -265 19 -390 -1 -318 -48 -433 -64 -550 -73 -720 -57 -1214 -34 -1815
84 -228 44 -333 55 -537 55 -109 0 -193 6 -238 15 -122 26 -415 144 -422 170
-1 6 23 42 54 80 96 119 115 188 67 244 -34 40 -105 61 -211 61 -95 0 -135
-13 -200 -66 l-43 -35 -33 22 c-57 40 -106 92 -112 121 -11 47 -63 92 -140
121 -135 50 -198 58 -265 33z m-466 -273 c56 -25 103 -48 106 -50 3 -3 -8 -15
-25 -28 l-29 -24 -48 45 c-59 55 -102 74 -166 74 -51 0 -112 -16 -112 -30 0
-4 26 -6 58 -3 82 7 136 -10 192 -63 l48 -45 -29 -56 c-16 -31 -29 -71 -29
-90 l0 -36 -47 7 c-81 11 -167 79 -235 185 -50 80 -35 115 64 146 85 27 142
19 252 -32z m-34 -1289 c148 -28 141 -25 90 -41 -73 -22 -221 0 -256 39 -16
17 -15 18 32 18 27 0 87 -7 134 -16z m2627 -2169 c1 -146 7 -299 13 -340 9
-59 8 -97 -5 -199 -14 -106 -14 -145 -5 -244 15 -156 44 -337 79 -500 l29
-133 -29 -14 c-49 -26 -73 -92 -58 -163 5 -26 12 -59 15 -75 6 -27 6 -27 -22
-17 -16 6 -73 36 -126 66 l-97 56 21 41 c17 34 23 71 30 197 17 284 -6 510
-64 624 -17 33 -41 89 -54 123 -23 62 -24 65 -10 165 34 246 87 583 96 618 10
36 12 37 73 47 34 6 73 11 87 12 l25 1 2 -265z m2723 -30 c18 -49 55 -135 83
-191 l50 -100 -52 -140 c-29 -76 -79 -206 -111 -289 -64 -165 -151 -439 -175
-553 -8 -40 -15 -99 -15 -130 0 -69 -5 -77 -50 -87 -67 -14 -93 -52 -100 -148
l-5 -67 -80 60 c-44 33 -97 66 -117 72 -21 6 -38 13 -38 15 0 2 22 32 49 68
30 39 57 89 71 132 13 37 34 93 47 123 47 103 103 271 139 413 51 197 55 299
20 472 -22 108 -86 356 -103 403 -3 7 4 12 19 12 38 0 55 -21 62 -74 11 -90
61 -129 114 -89 27 20 36 41 47 106 5 31 14 43 53 67 26 16 50 26 53 22 3 -4
21 -47 39 -97z m-2860 -1624 c47 -27 102 -54 123 -61 42 -13 43 -24 5 -53 -48
-36 -308 -33 -308 4 0 12 83 159 90 159 2 0 43 -22 90 -49z m2380 -54 c41 -28
77 -52 79 -54 3 -2 -5 -13 -17 -26 -20 -19 -35 -22 -130 -25 -61 -2 -125 1
-150 7 l-42 12 16 32 c9 18 32 56 50 84 l34 53 42 -17 c24 -9 77 -39 118 -66z
m-2940 -70 c19 -8 65 -33 102 -55 l68 -39 -24 -26 c-13 -14 -48 -33 -77 -41
-56 -17 -219 -22 -219 -7 0 5 11 34 25 65 52 118 24 117 -46 -2 -17 -29 -35
-50 -39 -47 -12 8 2 43 51 125 l40 69 42 -14 c23 -7 58 -20 77 -28z m3740 -14
c59 -24 181 -104 177 -117 -14 -42 -173 -92 -253 -80 -25 3 -44 12 -44 19 0 7
11 42 25 78 14 38 21 69 15 72 -10 6 -66 -77 -76 -112 -4 -14 -14 -23 -26 -23
-24 0 -20 15 28 117 l34 71 42 -5 c24 -3 59 -12 78 -20z"/>
<path d="M5219 6327 c-79 -22 -125 -69 -144 -147 -10 -39 -17 -48 -53 -65 -44
-21 -55 -45 -21 -45 54 0 109 49 109 96 0 67 91 134 181 134 44 0 70 12 52 23
-21 13 -83 15 -124 4z"/>
<path d="M4541 5999 c-31 -31 -49 -74 -36 -87 3 -4 13 1 20 11 13 18 14 18 34
-2 29 -29 76 -27 106 4 14 13 25 31 25 39 0 8 8 16 18 18 32 7 -48 48 -95 48
-33 0 -48 -6 -72 -31z"/>
<path d="M4986 5705 c-3 -9 -6 -45 -6 -79 0 -74 -20 -158 -55 -226 -14 -27
-25 -55 -25 -61 0 -26 49 35 76 94 23 52 29 79 32 165 3 61 0 108 -6 114 -6 6
-12 4 -16 -7z"/>
<path d="M3956 5375 c-9 -14 -29 -28 -44 -31 -60 -15 -81 -65 -42 -104 24 -24
58 -26 89 -4 42 30 67 124 39 152 -17 17 -24 15 -42 -13z m9 -75 c-19 -37 -47
-54 -63 -38 -18 18 -14 38 6 38 10 0 27 7 38 15 30 22 36 18 19 -15z"/>
<path d="M4655 5248 c-66 -43 -135 -68 -230 -83 -95 -15 -127 -27 -112 -41 3
-4 57 1 119 9 126 19 225 60 248 103 18 32 11 35 -25 12z"/>
<path d="M9804 2798 c9 -60 44 -152 67 -177 38 -41 38 -10 -1 71 -22 45 -43
96 -46 115 -9 50 -28 41 -20 -9z"/>
</g>
</svg>
