<?xml version="1.0" standalone="no"?>
<!DOCTYPE svg PUBLIC "-//W3C//DTD SVG 20010904//EN"
 "http://www.w3.org/TR/2001/REC-SVG-20010904/DTD/svg10.dtd">
<svg version="1.0" xmlns="http://www.w3.org/2000/svg"
 width="1024.000000pt" height="559.000000pt" viewBox="0 0 1024.000000 559.000000"
 preserveAspectRatio="xMidYMid meet">
<metadata>
Created by potrace 1.16, written by Peter Selinger 2001-2019
</metadata>
<g transform="translate(0.000000,559.000000) scale(0.100000,-0.100000)"
fill="#000000" stroke="none">
<path d="M6724 5113 c3 -16 15 -61 26 -102 24 -89 25 -182 5 -271 -47 -198
-134 -333 -291 -451 -51 -39 -57 -41 -104 -35 -27 4 -82 20 -122 37 -102 42
-106 43 -78 19 59 -52 187 -96 256 -88 l36 4 -8 -45 c-4 -25 -6 -118 -5 -206
2 -193 -11 -341 -46 -535 -23 -125 -27 -172 -27 -340 0 -225 6 -257 114 -590
65 -196 92 -301 109 -415 23 -149 13 -231 -53 -426 -20 -56 -34 -105 -32 -107
7 -6 69 153 85 220 9 37 19 68 22 68 4 0 10 -28 13 -62 8 -71 39 -221 66 -323
38 -145 71 -307 94 -471 35 -240 37 -254 49 -261 16 -10 1 265 -23 402 -11 66
-31 167 -45 225 -71 294 -87 377 -101 510 -31 305 -43 365 -130 640 -31 96
-65 202 -75 235 -56 175 -64 401 -24 642 44 269 48 316 50 568 1 138 6 260 11
273 5 12 48 62 96 110 106 109 166 222 199 377 30 142 14 302 -40 403 -17 31
-35 28 -27 -5z"/>
<path d="M3523 4704 c23 -226 115 -564 259 -944 83 -220 128 -354 165 -493 24
-90 27 -120 27 -257 0 -179 -8 -210 -116 -470 -34 -80 -88 -224 -120 -320 -33
-96 -93 -256 -133 -355 -104 -257 -145 -396 -181 -617 -22 -130 -27 -549 -6
-569 10 -10 12 6 12 81 0 194 31 460 75 647 34 146 53 202 155 458 48 121 97
252 109 290 32 99 112 311 165 438 74 178 91 258 90 427 -1 133 -4 156 -37
281 -35 131 -103 327 -185 534 -88 222 -182 537 -237 790 -29 135 -51 177 -42
79z"/>
<path d="M5445 4442 c-103 -101 -178 -146 -315 -193 -82 -28 -112 -33 -221
-37 -146 -5 -239 10 -351 58 -94 40 -219 125 -288 194 -66 68 -83 72 -38 10
86 -120 280 -240 458 -285 115 -28 319 -23 425 11 170 54 294 142 383 269 24
33 42 61 40 61 -2 0 -44 -40 -93 -88z"/>
<path d="M5582 4017 c-35 -35 -95 -83 -134 -108 -116 -73 -221 -153 -261 -200
-44 -51 -111 -158 -104 -165 2 -3 18 19 35 49 51 90 127 163 265 254 71 47
147 101 168 120 37 33 105 113 97 113 -2 0 -32 -28 -66 -63z"/>
<path d="M6047 3959 c28 -30 74 -90 103 -134 65 -100 73 -108 27 -25 -48 86
-106 161 -148 190 -28 19 -25 13 18 -31z"/>
<path d="M5804 3910 c14 -100 18 -340 7 -450 -21 -217 -22 -230 -11 -187 17
64 40 277 40 364 0 82 -26 303 -37 313 -3 3 -3 -15 1 -40z"/>
<path d="M6252 3473 c-1 -17 -14 -89 -29 -160 -23 -107 -27 -150 -26 -263 1
-74 6 -157 11 -185 7 -37 8 -11 5 105 -5 152 -1 198 32 383 9 48 14 102 12
120 l-4 32 -1 -32z"/>
<path d="M5785 2908 c0 -95 -3 -211 -7 -258 l-7 -85 16 80 c18 89 22 335 7
398 -7 28 -9 -8 -9 -135z"/>
<path d="M5071 2987 c-17 -96 -13 -185 14 -361 34 -229 32 -217 34 -180 0 16
-8 95 -19 175 -22 150 -27 301 -15 382 11 70 -1 57 -14 -16z"/>
<path d="M6230 2489 c0 -8 5 -32 10 -54 22 -88 50 -305 50 -383 0 -97 -31
-307 -65 -442 -27 -108 -100 -331 -122 -373 -8 -16 -13 -31 -10 -33 8 -8 75
150 112 264 20 62 50 179 67 260 26 127 30 168 31 307 0 160 -6 215 -44 375
-20 83 -29 108 -29 79z"/>
<path d="M5774 2435 c-25 -60 12 -175 56 -175 11 0 20 1 20 3 0 1 -11 24 -25
51 -26 52 -33 120 -13 132 7 4 16 0 22 -10 27 -44 36 -50 21 -12 -8 21 -15 40
-15 42 0 2 -11 4 -26 4 -19 0 -28 -8 -40 -35z"/>
<path d="M5167 1980 c6 -86 34 -225 67 -338 36 -119 134 -359 136 -332 0 3
-18 50 -40 104 -22 54 -58 158 -80 230 -35 118 -50 185 -79 356 -9 52 -9 51
-4 -20z"/>
<path d="M4516 1799 c22 -17 81 -62 132 -101 50 -38 116 -97 146 -131 30 -34
67 -75 81 -92 15 -16 8 -2 -16 33 -54 79 -136 157 -267 250 -104 74 -145 96
-76 41z"/>
<path d="M6300 1202 c0 -5 -64 -105 -141 -222 -78 -116 -139 -213 -137 -216 8
-7 52 52 140 186 90 135 153 248 144 257 -3 4 -6 1 -6 -5z"/>
<path d="M5162 1070 c23 -36 73 -126 110 -200 37 -74 68 -127 68 -117 0 27
-83 197 -128 263 -59 86 -101 131 -50 54z"/>
</g>
</svg>
