<?xml version="1.0" encoding="UTF-8"?>
<svg version="1.1" xmlns="http://www.w3.org/2000/svg" width="1254" height="1254">
<path d="M0 0 C0.99444626 -0.00095673 1.98889252 -0.00191345 3.01347351 -0.00289917 C5.10167505 -0.00357462 7.18987876 -0.00176508 9.27807617 0.00244141 C12.43087615 0.00778143 15.58353259 0.00248339 18.73632812 -0.00390625 C34.81472151 -0.01136722 50.4684684 0.9329794 66.38671875 3.2578125 C67.49138992 3.41870865 67.49138992 3.41870865 68.61837769 3.58285522 C82.79390389 5.68188061 96.43085944 8.92726656 110.13671875 13.1328125 C111.79912598 13.63482178 111.79912598 13.63482178 113.49511719 14.14697266 C116.8598846 15.168334 120.21843418 16.20733427 123.57421875 17.2578125 C124.57461182 17.57016846 125.57500488 17.88252441 126.60571289 18.2043457 C133.3636678 20.38460625 139.71325544 23.11990233 146.13671875 26.1328125 C147.27238281 26.61492187 148.40804688 27.09703125 149.578125 27.59375 C182.53393771 41.84686768 214.22846198 60.20130612 241.13671875 84.1328125 C242.53235209 85.34137682 243.92816085 86.54973863 245.32421875 87.7578125 C246.59565035 88.88213631 247.86647376 90.00714824 249.13671875 91.1328125 C249.8328125 91.73609375 250.52890625 92.339375 251.24609375 92.9609375 C256.97950316 98.00172027 262.41743781 103.30777693 267.82421875 108.6953125 C268.53698975 109.40349121 269.24976074 110.11166992 269.98413086 110.84130859 C274.57171049 115.44221027 278.92950701 120.18237882 283.13671875 125.1328125 C283.64436768 125.72843994 284.1520166 126.32406738 284.67504883 126.93774414 C302.81128407 148.4225715 318.43577444 172.11260551 331.14892578 197.18798828 C332.12101627 199.10189654 333.10964993 201.00646052 334.1015625 202.91015625 C337.22163842 208.95353195 340.00419346 214.963203 342.1171875 221.4375 C343.13080829 224.28959136 343.13080829 224.28959136 344.88671875 227.421875 C348.3162325 234.17676267 350.55555972 241.46249135 352.94921875 248.6328125 C353.213396 249.42226257 353.47757324 250.21171265 353.74975586 251.02508545 C359.11620927 267.18330618 363.06000756 283.3924737 366.13671875 300.1328125 C366.3476416 301.27395508 366.55856445 302.41509766 366.77587891 303.59082031 C377.23039103 361.7168853 372.87906209 422.27415607 353.7890625 478.20947266 C353.16624405 480.0457615 352.57260102 481.89186881 351.98046875 483.73828125 C350.35810433 488.78358878 348.59247096 493.4259541 346.13671875 498.1328125 C345.47827695 499.75274463 344.83371989 501.37835431 344.19921875 503.0078125 C342.70745741 506.80554079 341.06287744 510.44058805 339.1640625 514.05078125 C338.32023894 515.76088755 337.5582659 517.51114377 336.8203125 519.26953125 C324.97721058 547.12719204 307.19496535 572.91832144 287.85058594 596.05419922 C286.62468811 597.54099325 285.41917962 599.04469279 284.22753906 600.55908203 C278.3131236 608.00731893 271.84184157 614.73519387 265.09912109 621.43115234 C263.26424606 623.25529997 261.44032543 625.08991123 259.6171875 626.92578125 C252.76394534 633.78712766 245.77204606 640.14100583 238.13671875 646.1328125 C236.91650289 647.13335258 235.69870294 648.13685331 234.484375 649.14453125 C218.08624137 662.56967391 200.74780618 674.02064299 182.13671875 684.1328125 C181.23614746 684.63022949 180.33557617 685.12764648 179.40771484 685.64013672 C164.12690136 694.05796938 148.41842954 700.88926939 132.13671875 707.1328125 C131.31977539 707.44976074 130.50283203 707.76670898 129.66113281 708.09326172 C113.33274266 714.37647255 96.19895864 718.38186432 79.13671875 722.1328125 C78.21777832 722.35253975 78.21777832 722.35253975 77.28027344 722.57670593 C57.41562989 727.22676302 37.06647147 727.67597223 16.76171875 727.5703125 C14.86516541 727.56525192 14.86516541 727.56525192 12.93029785 727.56008911 C-27.9804841 727.40252183 -67.43779192 721.85874853 -105.86328125 707.1328125 C-106.94351563 706.73320313 -108.02375 706.33359375 -109.13671875 705.921875 C-114.99406771 703.72352489 -120.63975134 701.39923206 -126.15625 698.44140625 C-128.59341212 697.26326872 -131.02171923 696.27314046 -133.54296875 695.29296875 C-138.80348894 693.21234784 -143.79877574 690.76894007 -148.80078125 688.1328125 C-150.15768066 687.41822876 -150.15768066 687.41822876 -151.54199219 686.68920898 C-188.52807541 666.91667321 -224.90665748 639.15574327 -252.15234375 607.11328125 C-253.32513123 605.75573957 -254.53045346 604.42582961 -255.76171875 603.12109375 C-284.06432326 572.97724173 -307.16952044 533.10369693 -321.58984375 494.49609375 C-322.29927748 492.62240529 -323.01988333 490.75249316 -323.78271484 488.89990234 C-326.31873472 482.73682669 -328.39247376 476.53486985 -330.23828125 470.1328125 C-330.53645752 469.09954834 -330.83463379 468.06628418 -331.1418457 467.00170898 C-336.82601077 446.94961459 -340.87306289 426.74883125 -343.86328125 406.1328125 C-344.05148437 404.90175781 -344.2396875 403.67070313 -344.43359375 402.40234375 C-350.22647879 358.32375482 -345.55989481 310.52419262 -332.86328125 268.1328125 C-332.58645508 267.19969238 -332.30962891 266.26657227 -332.02441406 265.30517578 C-328.38660155 253.17454585 -324.29727044 241.27552139 -319.61328125 229.5078125 C-319.20118408 228.47124512 -318.78908691 227.43467773 -318.36450195 226.36669922 C-316.19080737 221.02345566 -313.79306833 216.09577079 -310.86328125 211.1328125 C-310.24005613 209.64894316 -309.65180669 208.14947599 -309.11328125 206.6328125 C-299.30958989 181.52028002 -282.5326625 158.13296437 -265.86328125 137.1328125 C-265.13625 136.21113281 -264.40921875 135.28945313 -263.66015625 134.33984375 C-254.85792714 123.36872005 -245.14405932 113.31731645 -235.24642944 103.34072876 C-233.84298737 101.92537679 -232.44352467 100.5060824 -231.04418945 99.08666992 C-224.96192801 92.9967544 -218.58905212 87.49597914 -211.86328125 82.1328125 C-210.8358338 81.26930217 -209.81242581 80.40090824 -208.796875 79.5234375 C-185.77969246 59.78413228 -158.857743 42.84788617 -130.86328125 31.1328125 C-129.30249076 30.45126392 -127.74266688 29.76749926 -126.18359375 29.08203125 C-86.84940341 11.89888187 -43.20068203 -0.09429646 0 0 Z " fill="none" transform="translate(613.86328125,259.8671875)"/>
<path d="M0 0 C1.03578186 0.00082581 2.07156372 0.00165161 3.13873291 0.00250244 C23.61250914 0.03985545 44.41870817 0.52194763 64.5090332 4.8527832 C66.83088528 5.34275826 69.15866289 5.73990839 71.5 6.125 C93.82248 10.19501739 115.78787345 16.48400543 136.6875 25.3125 C137.39567871 25.58707031 138.10385742 25.86164063 138.83349609 26.14453125 C146.29632028 29.03905503 153.48855381 32.44573117 160.6875 35.9375 C161.32479034 36.24585785 161.96208069 36.5542157 162.61868286 36.87191772 C206.29308272 58.04301385 247.84011308 87.38983229 279.6875 124.3125 C281.14470131 125.89687524 282.6030734 127.48017432 284.0625 129.0625 C289.60035669 135.22420536 294.65266307 141.73924067 299.6875 148.3125 C300.4290332 149.27663818 300.4290332 149.27663818 301.18554688 150.26025391 C314.14912643 167.15712031 325.15829942 184.79922593 335.6875 203.3125 C336.31954346 204.40522217 336.31954346 204.40522217 336.96435547 205.52001953 C351.57143024 230.86218526 371.6875 270.67876683 371.6875 300.3125 C405.0175 300.3125 438.3475 300.3125 472.6875 300.3125 C474.21573494 303.36896989 473.824479 306.55814548 473.81448364 309.91127014 C473.81604363 310.70448258 473.81760362 311.49769503 473.81921089 312.31494421 C473.82321696 314.98740653 473.82003276 317.65981259 473.81689453 320.33227539 C473.81824873 322.24225396 473.82002877 324.15223227 473.82220459 326.06221008 C473.82677634 331.26034661 473.82499049 336.45846335 473.8218255 341.65660024 C473.81930095 347.08539335 473.82163968 352.51418473 473.82321167 357.94297791 C473.82503293 367.06005153 473.82262803 376.17711706 473.81787109 385.29418945 C473.81242693 395.85062179 473.81419243 406.40703483 473.8196975 416.9634667 C473.82422793 426.01143245 473.82487957 435.05939236 473.82225883 444.10735887 C473.82069588 449.51820628 473.82050282 454.9290446 473.82379532 460.33989143 C473.82667307 465.42463655 473.82470012 470.50935665 473.81890106 475.59409904 C473.81757301 477.46585931 473.81796833 479.33762166 473.82016373 481.2093811 C473.82287345 483.7531875 473.81949633 486.29691238 473.81448364 488.8407135 C473.81671436 489.59128039 473.81894509 490.34184728 473.82124341 491.11515862 C473.80164996 496.19835004 473.80164996 496.19835004 472.6875 497.3125 C471.29606311 497.40793095 469.89981633 497.43438575 468.50511169 497.43275452 C467.60342255 497.43412918 466.7017334 497.43550385 465.77272034 497.43692017 C464.77578659 497.43332489 463.77885284 497.42972961 462.75170898 497.42602539 C461.70793091 497.42617142 460.66415283 497.42631744 459.58874512 497.4264679 C456.12034057 497.42576826 452.65198897 497.41797353 449.18359375 497.41015625 C446.78605682 497.40829225 444.3885195 497.40686826 441.99098206 497.40586853 C435.66654416 497.40204194 429.34212906 497.39221046 423.0177002 497.38116455 C416.56974598 497.37095345 410.12178809 497.36637156 403.67382812 497.36132812 C391.011709 497.35058832 378.34960571 497.33370119 365.6875 497.3125 C365.53613083 498.42004639 365.38476166 499.52759277 365.22880554 500.66870117 C364.79825246 503.5669697 364.29048512 505.91211386 363.26953125 508.625 C362.84655762 509.76243652 362.84655762 509.76243652 362.41503906 510.92285156 C362.11307617 511.71143555 361.81111328 512.50001953 361.5 513.3125 C361.18901367 514.13975586 360.87802734 514.96701172 360.55761719 515.81933594 C343.79952775 560.16093372 321.76035892 601.94477359 290.17626953 637.61328125 C288.65569392 639.34880212 287.16686826 641.10753106 285.68359375 642.875 C279.54054031 650.15896166 273.11019519 657.0703884 266.375 663.8125 C265.63427246 664.5540332 264.89354492 665.29556641 264.13037109 666.05957031 C259.47159687 670.67141263 254.65719022 675.03990975 249.6875 679.3125 C248.63941806 680.23821865 247.59247108 681.1652245 246.546875 682.09375 C221.08124999 704.47263258 192.33255465 722.8590721 161.6875 737.3125 C160.82979004 737.71742676 159.97208008 738.12235352 159.08837891 738.53955078 C149.0162683 743.26597998 138.99043061 747.80517928 128.44140625 751.3671875 C125.52640391 752.32208318 125.52640391 752.32208318 122.1875 753.875 C117.14210944 755.94721398 111.93843247 757.31348646 106.68261719 758.75341797 C104.68902868 759.31207163 102.70799038 759.90366441 100.7265625 760.50390625 C88.33317422 764.19409698 75.74713355 766.49843419 63.015625 768.70581055 C61.14683033 769.04647624 59.27968012 769.39802612 57.42053223 769.78791809 C39.73153059 773.49295652 21.71829331 773.61519234 3.71337891 773.51831055 C0.13567153 773.49973085 -3.44178001 773.49780392 -7.01953125 773.49804688 C-9.3151064 773.49314103 -11.61067982 773.48731684 -13.90625 773.48046875 C-14.96557739 773.47935593 -16.02490479 773.4782431 -17.11633301 773.47709656 C-21.96937599 773.44581066 -26.53611131 773.26927124 -31.3125 772.3125 C-33.68658022 772.18913555 -36.06180171 772.08679482 -38.4375 772 C-47.47540336 771.54682829 -56.12452856 769.70671271 -64.95068359 767.8046875 C-67.07337984 767.36233112 -69.19562371 766.96315145 -71.33203125 766.59375 C-94.99562149 762.49953459 -117.89467835 755.34536535 -140.0625 746.1875 C-141.05048584 745.77983398 -142.03847168 745.37216797 -143.05639648 744.95214844 C-148.3149688 742.73169309 -153.27006925 740.27434218 -158.21582031 737.42993164 C-160.18537888 736.38024958 -162.08164005 735.60656465 -164.1875 734.87890625 C-169.56380901 732.97833851 -174.38271033 730.08338707 -179.3125 727.25 C-180.32562256 726.67145264 -181.33874512 726.09290527 -182.38256836 725.49682617 C-195.84957109 717.76223316 -208.84832253 709.58250487 -221.3125 700.3125 C-221.8600293 699.90531738 -222.40755859 699.49813477 -222.97167969 699.07861328 C-234.95130697 690.11699893 -246.28664865 680.41953041 -257.3125 670.3125 C-257.86615234 669.80928223 -258.41980469 669.30606445 -258.99023438 668.78759766 C-271.62434016 657.29739063 -271.62434016 657.29739063 -276.55078125 651.390625 C-278.3918064 649.2189501 -280.31184043 647.1314134 -282.25048828 645.046875 C-312.35367126 612.64222543 -334.33676573 574.48177587 -352.3125 534.3125 C-352.89680786 533.03753662 -352.89680786 533.03753662 -353.49291992 531.73681641 C-355.44694303 527.44635349 -357.07280246 523.23109836 -358.375 518.6875 C-359.41059161 515.17708907 -360.43909375 511.81124287 -362 508.5 C-363.57570942 504.67327713 -363.86088643 501.41922902 -364.3125 497.3125 C-365.12917806 497.31526538 -365.12917806 497.31526538 -365.96235466 497.31808662 C-379.19853049 497.36221901 -392.43469346 497.39520623 -405.67092705 497.41612434 C-412.07182423 497.42657904 -418.47266846 497.44076892 -424.87353516 497.46337891 C-431.04617969 497.48504725 -437.21877317 497.49705591 -443.39145279 497.50225449 C-445.7510674 497.50596107 -448.11067909 497.51319867 -450.47027206 497.52396011 C-453.76523718 497.53839516 -457.05998903 497.5404813 -460.35498047 497.53955078 C-461.3389682 497.54674133 -462.32295593 497.55393188 -463.33676147 497.56134033 C-464.23141113 497.558591 -465.12606079 497.55584167 -466.04782104 497.55300903 C-467.21757634 497.55577441 -467.21757634 497.55577441 -468.41096306 497.55859566 C-470.3125 497.3125 -470.3125 497.3125 -472.3125 495.3125 C-472.50998116 492.75874721 -472.58179296 490.31335222 -472.56646729 487.75842285 C-472.56958727 486.96999953 -472.57270725 486.1815762 -472.57592177 485.36926126 C-472.583934 482.71289623 -472.57756567 480.05675759 -472.57128906 477.40039062 C-472.5739975 475.50188564 -472.57755759 473.6033817 -472.58190918 471.70487976 C-472.59105303 466.53764728 -472.58748073 461.37049436 -472.58115101 456.20326042 C-472.57610132 450.80563003 -472.58077958 445.40800663 -472.58392334 440.01037598 C-472.587566 430.94456758 -472.58275603 421.87879174 -472.57324219 412.81298828 C-472.56235707 402.31904 -472.56588244 391.82516941 -472.576895 381.33122301 C-472.58595934 372.33504078 -472.58725734 363.33888199 -472.58201766 354.34269667 C-472.57889325 348.96366571 -472.57850148 343.58467133 -472.58509064 338.2056427 C-472.59085109 333.14959371 -472.58689115 328.09364528 -472.57530212 323.03760719 C-472.57264855 321.17755615 -472.57343244 319.3174967 -472.57782745 317.45744896 C-472.58325697 314.92704253 -472.57648063 312.39696253 -472.56646729 309.86657715 C-472.57092873 309.12281405 -472.57539017 308.37905095 -472.57998681 307.61274958 C-472.54080015 302.54080015 -472.54080015 302.54080015 -470.3125 300.3125 C-468.50466728 300.06640434 -468.50466728 300.06640434 -466.27560425 300.07199097 C-465.43143951 300.06924164 -464.58727478 300.06649231 -463.7175293 300.06365967 C-462.789646 300.07085022 -461.8617627 300.07804077 -460.90576172 300.08544922 C-459.93011261 300.08515717 -458.9544635 300.08486511 -457.94924927 300.08456421 C-454.71347259 300.08596132 -451.47792412 300.10154049 -448.2421875 300.1171875 C-446.00302252 300.12091627 -443.76385591 300.12376388 -441.52468872 300.12576294 C-435.6227368 300.13341008 -429.72088286 300.15306785 -423.81896973 300.1751709 C-417.79989955 300.19560608 -411.78081359 300.20475967 -405.76171875 300.21484375 C-393.94526938 300.23631271 -382.12889283 300.27046167 -370.3125 300.3125 C-370.24724341 299.69525496 -370.18198683 299.07800991 -370.11475277 298.44206047 C-370.02733098 297.63198099 -369.93990919 296.82190151 -369.84983826 295.98727417 C-369.76395667 295.18440413 -369.67807508 294.38153408 -369.58959103 293.55433464 C-369.27421128 291.00272098 -368.74033072 288.6045946 -368.03515625 286.1328125 C-367.77452393 285.21838379 -367.5138916 284.30395508 -367.24536133 283.36181641 C-366.81453247 281.91427979 -366.81453247 281.91427979 -366.375 280.4375 C-366.06780029 279.40157715 -365.76060059 278.3656543 -365.4440918 277.29833984 C-350.83417807 229.13133678 -327.24024722 181.67946657 -294.3125 143.3125 C-293.44261903 142.27199498 -292.57420623 141.23026131 -291.70703125 140.1875 C-282.64982012 129.32659061 -273.10218868 119.01997863 -263.125 109 C-262.37661865 108.2469458 -261.6282373 107.4938916 -260.85717773 106.71801758 C-256.17072261 102.04500699 -251.34242074 97.61195922 -246.3125 93.3125 C-245.29145221 92.42342331 -244.27060281 91.53411871 -243.25 90.64453125 C-201.46238329 54.80275894 -151.63978489 27.41212244 -98.3125 13.3125 C-97.46816406 13.08111328 -96.62382813 12.84972656 -95.75390625 12.61132812 C-83.64681146 9.30549019 -71.50062728 6.65624266 -59.125 4.5625 C-57.96395752 4.36398438 -56.80291504 4.16546875 -55.60668945 3.9609375 C-37.11090945 0.96820064 -18.71998063 -0.063557 0 0 Z M-49.3125 26.3125 C-50.1979248 26.45703613 -51.08334961 26.60157227 -51.99560547 26.75048828 C-58.13987653 27.77020465 -64.22640317 28.99226479 -70.3125 30.3125 C-71.25319336 30.51182129 -72.19388672 30.71114258 -73.16308594 30.91650391 C-96.57323026 35.94291341 -119.79737364 43.03113692 -141.41381836 53.41870117 C-143.43284851 54.36915371 -145.47456466 55.25257029 -147.5234375 56.13671875 C-178.05446767 69.65690643 -206.46909495 89.1007782 -231.3125 111.3125 C-232.22128906 112.11042969 -233.13007813 112.90835938 -234.06640625 113.73046875 C-240.58851468 119.56603945 -246.82261597 125.69632829 -253.03417969 131.85894775 C-254.45631295 133.26917858 -255.88239288 134.67542595 -257.30859375 136.08154297 C-263.41557884 142.18089433 -268.94220409 148.56115665 -274.3125 155.3125 C-275.28906839 156.48632882 -276.26896204 157.65740907 -277.25390625 158.82421875 C-296.70564739 182.2239051 -313.36869361 209.31056831 -325.3125 237.3125 C-325.90759983 238.6202523 -326.506743 239.92617026 -327.109375 241.23046875 C-332.23077569 252.37265722 -336.54977677 263.64301413 -340.3125 275.3125 C-340.63750488 276.31925781 -340.96250977 277.32601562 -341.29736328 278.36328125 C-349.19662219 303.16248793 -354.66531924 328.41036954 -357.3125 354.3125 C-357.45606934 355.63954956 -357.45606934 355.63954956 -357.60253906 356.9934082 C-358.48957599 366.11688078 -358.4701336 375.21851773 -358.4375 384.375 C-358.43528442 385.19941589 -358.43306885 386.02383179 -358.43078613 386.87322998 C-358.28915338 431.76536392 -352.00545246 480.36024267 -332.64453125 521.36328125 C-331.16684687 524.63498712 -329.90159871 527.95738282 -328.625 531.3125 C-324.95878689 540.70694459 -320.19084822 549.50119259 -315.3125 558.3125 C-314.87244629 559.10736816 -314.43239258 559.90223633 -313.97900391 560.72119141 C-301.42727496 583.22061332 -287.06873844 605.55186828 -269.3125 624.3125 C-268.18108452 625.59855085 -267.05592054 626.89013217 -265.9375 628.1875 C-255.37029093 640.28865877 -244.56666303 652.13098116 -231.96484375 662.15234375 C-229.47567198 664.17960735 -227.14941184 666.30079181 -224.8125 668.5 C-198.24932242 692.59120995 -163.96193533 712.87529347 -130.375 725.3125 C-129.03255208 725.8125 -127.69010417 726.3125 -126.34765625 726.8125 C-124.35849582 727.55238526 -122.36910618 728.29157815 -120.37841797 729.02734375 C-116.69696316 730.39529583 -113.05170642 731.82592316 -109.41796875 733.31640625 C-73.39401053 747.77406727 -34.04985973 750.66765303 4.3125 750.75 C5.53305084 750.7561734 6.75360168 750.7623468 8.01113892 750.76870728 C37.32779148 750.86407123 65.49980414 747.14950767 93.62402344 738.91064453 C95.60154618 738.33741563 97.58380669 737.7872664 99.5703125 737.24609375 C101.36082031 736.75302734 101.36082031 736.75302734 103.1875 736.25 C104.2084375 735.97027344 105.229375 735.69054687 106.28125 735.40234375 C110.85046208 733.94040548 115.24749356 732.12367504 119.6875 730.3125 C121.32366932 729.66527598 122.96038692 729.01943626 124.59765625 728.375 C155.68415311 716.00368933 185.10971104 700.74765777 211.6875 680.3125 C212.30866699 679.84005859 212.92983398 679.36761719 213.56982422 678.88085938 C217.10786472 676.18467077 220.60084369 673.43995478 224.0546875 670.63671875 C225.61228493 669.37349978 227.18088691 668.12388593 228.75 666.875 C237.3421969 659.87622621 245.15331461 652.05890546 253 644.25 C253.55989624 643.69537079 254.11979248 643.14074158 254.69665527 642.56930542 C261.83537184 635.48251393 268.42851409 628.20282154 274.6875 620.3125 C275.73528247 619.06428564 276.78807316 617.82024401 277.84765625 616.58203125 C291.67904576 600.20898617 303.20660466 581.97625115 313.6875 563.3125 C314.15559082 562.4870166 314.62368164 561.6615332 315.10595703 560.81103516 C316.60054778 558.17067304 318.08368478 555.52422627 319.5625 552.875 C320.01536377 552.07030273 320.46822754 551.26560547 320.93481445 550.43652344 C323.60483347 545.5960856 325.83242961 540.73097787 327.79125977 535.56054688 C328.66138157 533.37801309 329.65536783 531.32753936 330.75 529.25 C332.51872762 525.82309024 333.75713858 522.3694018 334.87890625 518.68359375 C335.75477717 516.11521863 336.82478763 513.65576548 337.90454102 511.16772461 C344.88287849 494.63252458 348.53537128 476.71416029 352.6875 459.3125 C352.88722412 458.50248535 353.08694824 457.6924707 353.29272461 456.85791016 C357.37681075 439.68043119 359.36083226 420.94880306 359.6875 403.3125 C359.70796387 402.39710449 359.72842773 401.48170898 359.74951172 400.53857422 C360.25420399 374.54900796 358.41336512 348.88054948 353.6875 323.3125 C353.35371338 321.49637207 353.35371338 321.49637207 353.01318359 319.64355469 C349.9255213 303.31976448 345.77244519 287.56833176 340.5 271.8125 C340.24210693 271.03996887 339.98421387 270.26743774 339.71850586 269.47149658 C337.14843199 261.82975848 334.4770612 254.45020099 330.6875 247.3125 C329.90709575 245.30321242 329.15518063 243.28253582 328.4375 241.25 C326.04610326 234.90219457 323.03539965 229.11069127 319.77734375 223.18359375 C318.04035067 220.01151925 316.4474259 216.78960998 314.88500977 213.52880859 C302.94544249 188.75136081 285.91837868 165.11182162 267.171875 145.0078125 C265.21829784 142.88836558 263.32879375 140.74229311 261.44921875 138.55859375 C257.40950143 133.92560078 253.10604983 129.58399388 248.75 125.25 C247.61014648 124.1043457 247.61014648 124.1043457 246.44726562 122.93554688 C231.66399993 108.17753014 215.02465311 94.73419088 197.43701172 83.44335938 C195.50060517 82.19169385 193.58124941 80.91565898 191.66015625 79.640625 C178.2022512 70.82005078 164.04364639 63.53675565 149.6875 56.3125 C148.62015625 55.7664209 147.5528125 55.2203418 146.453125 54.65771484 C141.22498982 51.99888582 136.12458803 49.55046443 130.5625 47.6875 C126.63437334 46.35928451 122.77597874 44.95335395 118.94140625 43.37890625 C110.66914394 40.04130419 102.08746439 37.65293558 93.53417969 35.14990234 C91.07179611 34.42554766 88.61796614 33.67814167 86.1640625 32.92578125 C75.73199324 29.8475242 65.11627452 28.1463026 54.375 26.5625 C53.65315521 26.4554071 52.93131042 26.34831421 52.18759155 26.23797607 C35.09277134 23.73143271 18.19418718 23.07408373 0.9375 23.0625 C-0.10541199 23.06149292 -1.14832397 23.06048584 -2.22283936 23.05944824 C-18.12285589 23.06982107 -33.60638928 23.63041038 -49.3125 26.3125 Z " fill="#D09F26" transform="translate(626.3125,236.6875)"/>
<path d="M0 0 C5.15838925 2.010237 9.27026345 5.27555473 13.62109375 8.63671875 C15.29496883 9.89966577 16.97073992 11.16010397 18.6484375 12.41796875 C19.44878418 13.01867187 20.24913086 13.619375 21.07373047 14.23828125 C29.65743712 20.56963228 37.27224005 26.05273255 48.30859375 24.88671875 C51.7138252 24.10515618 54.95897456 23.00071028 58.24609375 21.82421875 C59.60492676 21.35810181 59.60492676 21.35810181 60.99121094 20.88256836 C65.49350296 19.31776652 69.94328455 17.65690946 74.359375 15.86328125 C75.15287354 15.54238525 75.94637207 15.22148926 76.76391602 14.89086914 C78.24370981 14.28361681 79.71750889 13.66144023 81.18334961 13.02124023 C87.59343013 10.36164928 93.35577928 9.9358124 99.99609375 12.07421875 C106.90233386 15.85310485 110.93231104 20.76391296 115.81640625 26.83203125 C125.8414237 40.02404805 125.8414237 40.02404805 140.3984375 46.28125 C149.31073618 46.69735081 157.09131981 44.88836 165.65966797 42.68603516 C173.98618823 40.59412073 182.43343565 38.98983442 190.68359375 42.26171875 C199.33630467 47.55048592 203.64044132 58.89535174 208.13793945 67.578125 C212.44909877 75.71340559 217.02616209 83.11577521 226.09619141 86.24609375 C233.60878709 87.74427365 241.36499214 87.41338375 248.99609375 87.38671875 C252.47971033 87.37461954 255.96182671 87.38845394 259.4453125 87.41796875 C260.23089035 87.40664917 261.0164682 87.39532959 261.82585144 87.38366699 C268.40902632 87.44358293 272.6303375 89.36150571 277.49609375 93.94921875 C281.34445524 100.1862184 283.16024957 107.34627417 285.24609375 114.32421875 C287.67229439 122.32877047 290.24086317 130.17381186 295.30859375 136.88671875 C295.30859375 137.54671875 295.30859375 138.20671875 295.30859375 138.88671875 C305.46086445 144.13572105 315.56123707 145.90046823 326.8125 147.22070312 C335.62081225 148.39825724 342.6183993 150.49206439 348.73046875 157.23046875 C352.76870581 163.16806972 352.89953742 170.43416147 353.55859375 177.38671875 C353.84653664 180.12729522 354.14715754 182.86641652 354.44921875 185.60546875 C354.58859863 186.8785791 354.72797852 188.15168945 354.87158203 189.46337891 C355.92567977 197.72067414 357.80601823 205.38347312 364.58203125 210.7265625 C370.79820822 215.26432941 378.06951877 217.76259631 385.18164062 220.5612793 C401.9585931 227.20912471 401.9585931 227.20912471 406.49731445 234.90136719 C407.68993575 237.81993367 407.534062 240.43666064 407.49609375 243.57421875 C407.48964844 244.73308594 407.48320313 245.89195312 407.4765625 247.0859375 C407.35539399 249.82772734 407.14592926 252.43501317 406.8125 255.1484375 C406.18974416 260.43708033 406.08771078 265.69058178 406.05859375 271.01171875 C406.03796875 271.96175781 406.01734375 272.91179687 405.99609375 273.890625 C405.95310556 281.63924705 407.43143783 287.39609444 412.72460938 293.36376953 C416.04382936 296.55509109 419.81379895 299.16066752 423.55859375 301.82421875 C445.19148589 317.40197122 445.19148589 317.40197122 446.81005859 323.89990234 C447.94564609 331.78601869 445.87055567 338.2294007 443.43359375 345.69921875 C442.68465102 348.08024315 441.93719559 350.46173601 441.19140625 352.84375 C440.85512207 353.8850708 440.51883789 354.9263916 440.17236328 355.99926758 C438.83334615 360.47539974 438.15454714 364.59162607 438.12109375 369.26171875 C438.09982422 370.60363281 438.09982422 370.60363281 438.078125 371.97265625 C438.27041476 375.62784498 438.27041476 375.62784498 440.30859375 381.88671875 C420.83859375 381.88671875 401.36859375 381.88671875 381.30859375 381.88671875 C380.0015031 377.96544679 378.76907299 374.10114093 377.64453125 370.1328125 C372.2246999 351.24847992 365.69153084 333.23845519 357.93359375 315.19921875 C357.28994873 313.7002002 357.28994873 313.7002002 356.63330078 312.17089844 C356.22966309 311.24825195 355.82602539 310.32560547 355.41015625 309.375 C355.05260254 308.55555908 354.69504883 307.73611816 354.32666016 306.8918457 C353.36020017 304.73141047 353.36020017 304.73141047 351.30859375 302.88671875 C350.62455325 301.01037236 349.94154467 299.13364235 349.26416016 297.25488281 C347.4290776 292.70702875 344.92909102 288.51085624 342.49609375 284.26171875 C341.9249585 283.26043945 341.35382324 282.25916016 340.76538086 281.22753906 C328.37656122 259.70611957 314.79746215 238.9865336 298.3203125 220.35546875 C295.87497153 217.59018447 293.58642621 214.72109234 291.2890625 211.83203125 C286.13567657 205.51106033 280.48221115 199.75784404 274.69824219 194.015625 C272.93579137 192.263903 271.18430807 190.50172447 269.43359375 188.73828125 C263.43036647 182.72846385 257.35512116 177.0544428 250.67529297 171.79418945 C248.27721806 169.86143112 246.04256428 167.81821315 243.80859375 165.69921875 C195.96157059 122.30483654 130.01296701 95.15440007 67.30859375 82.88671875 C65.39481934 82.50132935 65.39481934 82.50132935 63.44238281 82.1081543 C54.27324077 80.29091953 45.12901528 78.99637627 35.80859375 78.19921875 C35.08891418 78.13667908 34.36923462 78.0741394 33.62774658 78.00970459 C4.85216239 75.59420467 -25.36044699 74.65654914 -53.92041016 79.43798828 C-56.88371371 79.9178607 -59.85087513 80.31182598 -62.828125 80.6953125 C-121.66332352 88.54180736 -180.22566674 111.74889709 -228.69140625 145.88671875 C-229.3555957 146.35013672 -230.01978516 146.81355469 -230.70410156 147.29101562 C-241.20215324 154.63548407 -251.11568661 162.37915681 -260.69140625 170.88671875 C-262.10740429 172.11665561 -263.52395881 173.34595254 -264.94140625 174.57421875 C-266.19256109 175.67707667 -267.44237542 176.78145587 -268.69140625 177.88671875 C-269.77168091 178.84082642 -269.77168091 178.84082642 -270.8737793 179.81420898 C-277.19316833 185.4447027 -283.26748163 191.27969267 -289.25390625 197.26171875 C-290.57551758 198.56496094 -290.57551758 198.56496094 -291.92382812 199.89453125 C-297.21494352 205.173932 -302.09567281 210.62924608 -306.75390625 216.47558594 C-308.48745941 218.63291595 -310.27562288 220.70734176 -312.12890625 222.76171875 C-328.7304886 241.72958999 -342.63779139 263.79969833 -354.69140625 285.88671875 C-355.1620752 286.73524414 -355.63274414 287.58376953 -356.11767578 288.45800781 C-369.8212346 313.26780729 -379.54906513 339.37783037 -388.29296875 366.25 C-388.50700348 366.90408844 -388.72103821 367.55817688 -388.94155884 368.23208618 C-390.3990602 372.76413514 -391.53079453 377.24427188 -392.69140625 381.88671875 C-412.16140625 381.88671875 -431.63140625 381.88671875 -451.69140625 381.88671875 C-450.69140625 375.88671875 -450.69140625 375.88671875 -449.69140625 373.88671875 C-449.09295705 365.78658235 -450.99989455 358.72781923 -453.12890625 350.94921875 C-453.45439453 349.71880859 -453.77988281 348.48839844 -454.11523438 347.22070312 C-455.524865 341.41662186 -455.524865 341.41662186 -457.69140625 335.88671875 C-457.91962963 333.68537426 -458.05076044 331.47348201 -458.12890625 329.26171875 C-458.18949219 328.07320313 -458.25007812 326.8846875 -458.3125 325.66015625 C-456.9991256 317.68078722 -451.22141623 313.13733652 -444.91455078 308.61206055 C-444.09841309 308.04269775 -443.28227539 307.47333496 -442.44140625 306.88671875 C-440.74539749 305.66502851 -439.05007829 304.44238037 -437.35546875 303.21875 C-435.80117593 302.10752067 -434.24652837 300.99678722 -432.69140625 299.88671875 C-430.71205739 298.47219784 -428.75972326 297.03904532 -426.81640625 295.57421875 C-426.11773437 295.06246094 -425.4190625 294.55070312 -424.69921875 294.0234375 C-419.0809255 288.0444367 -417.10678591 282.36424833 -417.203125 274.21289062 C-417.25919922 272.72112305 -417.25919922 272.72112305 -417.31640625 271.19921875 C-417.33058594 270.19310547 -417.34476563 269.18699219 -417.359375 268.15039062 C-417.45559279 263.28497763 -417.83569902 258.68139576 -418.69140625 253.88671875 C-419.59687889 237.74492771 -419.59687889 237.74492771 -415.69140625 231.88671875 C-409.74672397 225.39008598 -402.7730968 222.41376132 -394.69140625 219.26171875 C-380.29138899 214.17441641 -380.29138899 214.17441641 -369.69140625 203.88671875 C-366.55058351 193.93214864 -365.51467916 183.64728236 -364.40625 173.3125 C-363.34118501 164.63722704 -361.5590968 158.86184515 -355.44140625 152.57421875 C-349.33364129 148.82627207 -343.15637571 147.67302225 -336.09375 147.12890625 C-333.20593698 146.83777713 -330.5407126 146.18504224 -327.75 145.41015625 C-325.43235634 144.82085027 -323.11363345 144.45962874 -320.75390625 144.07421875 C-313.88779175 142.6904326 -308.19179721 140.38067972 -304.1875 134.453125 C-301.1047713 129.26215799 -299.36952933 123.68286508 -297.56640625 117.94921875 C-297.23253906 116.91603516 -296.89867187 115.88285156 -296.5546875 114.81835938 C-294.69009708 109.05475486 -294.69009708 109.05475486 -292.90307617 103.2668457 C-291.6132344 99.09904183 -290.56485481 95.9652053 -287.25390625 92.94921875 C-286.67769531 92.40394531 -286.10148438 91.85867187 -285.5078125 91.296875 C-282.30208576 88.80812801 -279.67322098 87.6387207 -275.60058594 87.63134766 C-274.80585876 87.62438873 -274.01113159 87.61742981 -273.19232178 87.61026001 C-271.91569672 87.61175552 -271.91569672 87.61175552 -270.61328125 87.61328125 C-268.79426477 87.59298444 -266.9752544 87.57213351 -265.15625 87.55078125 C-262.30154254 87.52823764 -259.44707737 87.51173041 -256.59228516 87.50585938 C-253.82800943 87.49628281 -251.06481268 87.46243758 -248.30078125 87.42578125 C-247.4577948 87.43082672 -246.61480835 87.43587219 -245.74627686 87.44107056 C-240.54950854 87.35569591 -236.92240726 86.42615851 -232.39654541 83.84042358 C-230.69140625 82.88671875 -230.69140625 82.88671875 -227.69140625 81.88671875 C-226.59796778 80.04964311 -226.59796778 80.04964311 -225.69140625 77.88671875 C-224.89205118 76.52475139 -224.07788297 75.17143291 -223.25390625 73.82421875 C-221.11776469 70.3095819 -219.04826113 66.7652899 -217.02734375 63.18359375 C-216.55095459 62.34449463 -216.07456543 61.50539551 -215.58374023 60.64086914 C-214.62884324 58.95621868 -213.68021656 57.26799546 -212.73852539 55.57592773 C-209.1136922 49.20569716 -205.35594304 44.29168139 -198.69140625 40.88671875 C-189.82347079 39.70835595 -181.08046289 41.49756334 -172.44140625 43.38671875 C-157.31344594 46.80594396 -157.31344594 46.80594396 -142.69140625 42.88671875 C-136.65178802 38.57270573 -132.10565308 32.90559934 -127.4921875 27.13671875 C-115.2445799 11.83240773 -115.2445799 11.83240773 -107.71875 10.55078125 C-98.98281556 10.38749276 -91.45425864 14.11467007 -83.53515625 17.46484375 C-82.49230469 17.903125 -81.44945312 18.34140625 -80.375 18.79296875 C-78.24696503 19.69118228 -76.12451745 20.60274625 -74.0078125 21.52734375 C-66.07099166 24.82372422 -59.10048304 26.3505153 -50.66015625 24.06640625 C-43.15216871 20.09857739 -36.45576355 15.24441289 -29.71679688 10.08935547 C-11.81532252 -3.56335124 -11.81532252 -3.56335124 0 0 Z " fill="#D09E25" transform="translate(632.69140625,143.11328125)"/>
<path d="M0 0 C25.74 0 51.48 0 78 0 C80.06111233 4.80926211 81.80670727 9.30303636 83.375 14.25 C85.13585901 19.65575108 87.13455825 24.83262262 89.57421875 29.96875 C90.65669328 32.27012052 91.69555152 34.57387047 92.70703125 36.90625 C107.45780607 70.88695136 126.06104154 101.9269252 149 131 C150.20269531 132.52560547 150.20269531 132.52560547 151.4296875 134.08203125 C156.53802713 140.43564229 161.97832233 146.4531075 167.53222656 152.41455078 C169.06184237 154.06680046 170.57523422 155.73279377 172.0859375 157.40234375 C176.79178197 162.58824057 181.44714555 167.64787412 186.83203125 172.14453125 C189.11159391 174.0955083 191.29186384 176.13794509 193.47387695 178.19677734 C200.06317725 184.39537685 206.92760331 190.07107752 214.11816406 195.55517578 C216.07910482 197.0607346 218.02077828 198.58886787 219.9609375 200.12109375 C240.98148907 216.61943463 263.97988871 230.51882867 288.06835938 242.06884766 C290.02761493 243.01331185 291.97476518 243.97999717 293.921875 244.94921875 C328.31873877 261.86017685 366.71580397 273.02085543 404.71337891 277.71191406 C406.84798226 277.98084765 408.97643005 278.2763539 411.10546875 278.5859375 C426.66765199 280.81141034 442.1230628 281.20603428 457.8125 281.1875 C458.7598703 281.18689575 459.7072406 281.1862915 460.68331909 281.18566895 C475.87008273 281.15944545 490.90290201 280.79972046 506 279 C507.50796143 278.82259277 507.50796143 278.82259277 509.04638672 278.64160156 C561.61623194 272.14578355 614.91489792 254.30168732 659.91796875 226.29492188 C662.1345026 224.91634594 664.36389061 223.56002608 666.59375 222.203125 C682.22035083 212.60365248 696.99705932 201.84212381 711 190 C711.98613281 189.18660156 712.97226562 188.37320313 713.98828125 187.53515625 C728.23554909 175.73059128 741.94244595 163.04808005 754 149 C754.88354655 147.99168947 755.76770766 146.98391726 756.65234375 145.9765625 C773.71865179 126.44114736 788.90236075 105.38577023 802 83 C802.40927734 82.30390625 802.81855469 81.6078125 803.24023438 80.890625 C816.62522654 57.95724067 827.19936661 33.81882053 836.12841797 8.84375 C836.48693848 7.8434375 836.84545898 6.843125 837.21484375 5.8125 C837.53445068 4.91144531 837.85405762 4.01039063 838.18334961 3.08203125 C839 1 839 1 840 0 C842.43396019 -0.09498646 844.83942952 -0.12558417 847.27368164 -0.11352539 C848.03460617 -0.11367142 848.7955307 -0.11381744 849.57951355 -0.1139679 C852.10642298 -0.11326862 854.63325962 -0.10547555 857.16015625 -0.09765625 C858.9075059 -0.09579212 860.65485607 -0.0943682 862.40220642 -0.09336853 C867.01031934 -0.08954293 871.61840095 -0.07971229 876.22650146 -0.06866455 C880.92508521 -0.05845134 885.62367399 -0.0538711 890.32226562 -0.04882812 C899.54819087 -0.03809005 908.77409284 -0.02101313 918 0 C916.86758168 10.62731041 912.09885509 15.33102752 904 22 C900.43996583 24.84698639 896.84508951 27.64953075 893.25390625 30.45703125 C892.69074707 30.89740723 892.12758789 31.3377832 891.54736328 31.79150391 C890.25052728 32.80433733 888.95167512 33.81458855 887.65234375 34.82421875 C882.8217916 38.73173546 880.30697659 42.27934469 879.6015625 48.53125 C879.65682406 57.88887387 880.4642768 66.9118587 881.93212891 76.16015625 C884.27534039 91.2367625 884.27534039 91.2367625 881.5 97.25 C874.06913065 105.42395628 864.53883122 109.13885058 854.5546875 113.41210938 C846.02282029 117.18810397 837.63123624 121.57373764 833.73828125 130.54296875 C831.56404497 137.77891911 831.08811516 145.40004186 830.765625 152.9140625 C830.71184692 154.16546021 830.71184692 154.16546021 830.65698242 155.44213867 C830.59566417 157.06160601 830.54813129 158.68167619 830.5168457 160.30200195 C830.27491654 167.63895405 828.991163 173.40625879 823.7109375 178.76953125 C818.11999343 183.27114794 811.51509 184.29340978 804.625 185.6875 C786.63998294 188.8618521 786.63998294 188.8618521 773 200 C771.21898208 203.64898317 769.96113999 207.37939846 768.75 211.25 C768.26273438 212.70986328 768.26273438 212.70986328 767.765625 214.19921875 C765.8626952 219.97706609 764.19096475 225.80015563 762.64648438 231.68334961 C760.83759698 238.16542381 757.5693512 242.3230305 752 246 C748.3106355 247.22309569 744.60298499 247.23660043 740.7421875 247.39453125 C739.29683595 247.46337772 737.85152434 247.53306688 736.40625 247.60351562 C734.14895341 247.7101807 731.8919408 247.81184857 729.63378906 247.89868164 C714.05988636 248.3717941 714.05988636 248.3717941 701.28515625 256.5 C697.27433778 261.57371473 694.37969506 267.26467164 691.4375 273 C680.75349154 293.67707505 680.75349154 293.67707505 673 297 C665.78905632 297.7410456 658.76987024 297.04337788 651.625 296 C637.28053158 293.61052968 637.28053158 293.61052968 623.5625 296.875 C615.81309367 302.94931631 609.84735511 311.25909631 603.98120117 319.08959961 C600.41582115 323.76320137 596.72520615 328.09159795 591 330 C581.87401684 330.80248932 573.6481531 328.57924269 565.07641602 325.71118164 C552.20310325 321.17799989 552.20310325 321.17799989 539.09375 323.21484375 C535.66750973 325.19185361 532.76623845 327.52240212 529.8125 330.125 C528.67367052 331.10604184 527.53433879 332.08650093 526.39453125 333.06640625 C525.82814941 333.55641113 525.26176758 334.04641602 524.67822266 334.55126953 C522.13727212 336.74475229 519.57680898 338.91109115 517 341.0625 C516.154375 341.77535156 515.30875 342.48820312 514.4375 343.22265625 C509.6842476 346.68856946 505.15854012 347.73447508 499.34765625 347.640625 C491.94281906 346.22359665 485.45991169 341.73426122 479 338 C466.7859234 330.98036299 466.7859234 330.98036299 453 331 C446.57710571 333.47327091 440.77697712 336.91977937 434.90625 340.46875 C420.82020328 348.89361669 420.82020328 348.89361669 413 347 C407.89096652 345.52908576 404.36261274 342.23695616 400.375 338.875 C385.70234462 325.89737414 385.70234462 325.89737414 367.27734375 321.6796875 C361.71898229 322.22293618 356.71590211 324.08210308 351.5 326 C343.29952541 329.01532979 335.81610508 331.30663888 327 330 C317.34571844 325.26558396 310.29184636 314.41886189 304.01879883 305.85986328 C300.26063815 300.88289778 296.03874703 297.01291568 290 295 C287.50691394 294.87577903 285.05562955 294.81017622 282.5625 294.8125 C281.84457275 294.81185547 281.12664551 294.81121094 280.38696289 294.81054688 C276.1314952 294.8522625 272.12925967 295.19477096 267.9375 296 C259.60407031 297.56891309 248.32482121 299.42322488 240.7421875 294.671875 C235.07779639 289.2360916 231.80166472 281.60859947 228.296875 274.6875 C227.58688354 273.29615845 227.58688354 273.29615845 226.86254883 271.87670898 C225.93159325 270.03824317 225.01658935 268.19158853 224.11987305 266.33618164 C219.93729379 257.99983628 214.90002164 252.98014769 206.05175781 249.73779297 C198.75783797 247.97441491 191.05288149 248.17654783 183.58056641 248.01196289 C166.75061526 247.59202515 166.75061526 247.59202515 161 242 C156.22605254 236.50633848 154.8172078 230.17069727 153.09765625 223.234375 C151.91844751 218.55303832 150.49350813 213.96457716 149 209.375 C148.76289307 208.61719238 148.52578613 207.85938477 148.28149414 207.07861328 C145.88185217 199.80227955 141.97755359 194.55888047 135 191 C130.43917587 189.49924728 125.80651543 188.42943935 121.125 187.375 C95.8759069 181.49325953 95.8759069 181.49325953 90.96484375 173.8203125 C87.89657253 167.51160397 87.875211 160.44846922 87.375 153.5625 C86.83698265 136.47423016 86.83698265 136.47423016 79 122 C71.74483394 116.44663523 62.87146264 113.22933931 54.5546875 109.63671875 C47.02754948 106.27482996 39.74081946 102.81456117 35.5234375 95.40625 C33.60638565 86.59353403 35.22643482 78.115356 37 69.4375 C40.30091359 54.83764047 40.30091359 54.83764047 36.4375 40.8515625 C31.40419117 34.36844188 24.36945626 29.72126437 17.89135742 24.79052734 C2.8812346 13.30402148 2.8812346 13.30402148 0 6 C0 4.02 0 2.04 0 0 Z " fill="#D09E25" transform="translate(168,746)"/>
<path d="M0 0 C1.19049564 0.00553076 1.19049564 0.00553076 2.40504169 0.01117325 C3.31599944 0.00566326 4.22695719 0.00015327 5.16551971 -0.00552368 C6.16650853 0.00886875 7.16749735 0.02326118 8.19881916 0.03808975 C9.26969682 0.03760761 10.34057447 0.03712547 11.44390297 0.03662872 C14.91698756 0.03961894 18.38921788 0.07010045 21.86214924 0.10156631 C24.00362452 0.10744601 26.14510553 0.11152761 28.28658772 0.11377335 C36.23503953 0.1347616 44.18336836 0.19060632 52.13168049 0.24219131 C69.88980549 0.32469131 87.64793049 0.40719131 105.94418049 0.49219131 C105.94418049 65.50219131 105.94418049 130.51219131 105.94418049 197.49219131 C88.00043049 197.55406631 70.05668049 197.61594131 51.56918049 197.67969131 C45.89682209 197.70700333 40.22446369 197.73431534 34.38021564 197.76245499 C27.47030354 197.77600479 27.47030354 197.77600479 24.23870564 197.77852249 C21.9746089 197.78313877 19.71051967 197.79370946 17.44646931 197.808918 C14.0232121 197.83077007 10.60040679 197.83391297 7.17709064 197.83276749 C6.16313536 197.84356181 5.14918007 197.85435614 4.10449886 197.86547756 C3.18652208 197.86134507 2.2685453 197.85721258 1.32275105 197.85295486 C0.52079115 197.85572024 -0.28116875 197.85848562 -1.10743046 197.8613348 C-1.75039885 197.73951745 -2.39336723 197.6177001 -3.05581951 197.49219131 C-5.42687764 193.93560412 -5.5712602 192.68646361 -5.05581951 188.49219131 C-3.68373933 186.022447 -2.32779928 183.88466254 -0.68081951 181.61719131 C0.25099406 180.2788253 1.18061866 178.93893305 2.10824299 177.59766006 C2.58422932 176.91494034 3.06021564 176.23222061 3.5506258 175.52881241 C5.69825 172.3901507 7.69834807 169.16622088 9.69418049 165.92969131 C13.65157203 159.54802285 17.65879885 153.19984177 21.69418049 146.86719131 C22.28175129 145.94502823 22.86932209 145.02286514 23.47469807 144.07275772 C24.68262102 142.17746947 25.89071212 140.28228837 27.09896564 138.38721085 C30.19600872 133.52815597 33.28862277 128.66628365 36.38168049 123.80469131 C37.48452434 122.0716052 38.58738825 120.33853186 39.69027424 118.60547256 C40.21605061 117.77612198 40.74182697 116.94677139 41.28353596 116.09228897 C42.46925467 114.23579025 43.66762671 112.38734819 44.87435627 110.54443741 C45.50712482 109.57200089 46.13989338 108.59956436 46.79183674 107.59766006 C47.37070637 106.71618301 47.949576 105.83470596 48.54598713 104.92651749 C49.8489984 102.6579082 50.70611599 101.08808634 50.94418049 98.49219131 C50.21496308 96.56656252 50.21496308 96.56656252 48.90902424 94.71875381 C48.4369051 93.98833878 47.96478596 93.25792374 47.47836018 92.50537491 C46.95145588 91.71727432 46.42455158 90.92917374 45.88168049 90.11719131 C44.76038053 88.3933671 43.63929505 86.66940335 42.51839924 84.94531631 C41.92849201 84.04748428 41.33858479 83.14965225 40.73080158 82.22461319 C37.83879437 77.80163632 35.02164119 73.33158169 32.19418049 68.86719131 C26.41460043 59.78130761 20.60566473 50.71427546 14.79623127 41.64746475 C10.02570923 34.19651952 5.28546636 26.72704581 0.57259846 19.23950577 C0.12029865 18.52109512 -0.33200115 17.80268448 -0.79800701 17.06250381 C-1.18843182 16.44133682 -1.57885662 15.82016983 -1.98111248 15.1801796 C-2.98476886 13.60378701 -4.01920673 12.04711049 -5.05581951 10.49219131 C-5.40538048 7.2063182 -5.47609649 5.22431226 -3.81509209 2.33084869 C-2.05581951 0.49219131 -2.05581951 0.49219131 0 0 Z " fill="#CF9D25" transform="translate(38.055819511413574,536.5078086853027)"/>
<path d="M0 0 C26.3896875 -0.0928125 26.3896875 -0.0928125 53.3125 -0.1875 C58.87134033 -0.21481201 64.43018066 -0.24212402 70.1574707 -0.27026367 C76.93591309 -0.28381348 76.93591309 -0.28381348 80.10734558 -0.28633118 C82.32639875 -0.29094349 84.54544431 -0.30150612 86.76445007 -0.31672668 C90.12215272 -0.3386101 93.47939519 -0.34172059 96.8371582 -0.34057617 C97.82877866 -0.3513705 98.82039911 -0.36216482 99.84206867 -0.37328625 C101.1959105 -0.36708751 101.1959105 -0.36708751 102.57710266 -0.36076355 C103.36339208 -0.36352893 104.14968149 -0.36629431 104.95979786 -0.36914349 C107.55690739 0.10076391 108.42990702 0.90735867 110 3 C111.0942342 9.66488104 108.33455421 13.47449398 104.75 18.75 C103.64146894 20.43980371 102.53340918 22.12991668 101.42578125 23.8203125 C100.85553223 24.67915039 100.2852832 25.53798828 99.69775391 26.42285156 C97.04535329 30.44913009 94.49627511 34.53886793 91.9375 38.625 C85.91218774 48.18131167 79.77225091 57.66182405 73.61328125 67.13232422 C71.31166402 70.6725919 69.0161057 74.21640896 66.734375 77.76953125 C64.86047357 80.68546832 62.94902715 83.57243231 61.015625 86.44921875 C60.07250291 87.88254034 59.1297799 89.31612461 58.1875 90.75 C57.73624756 91.40556885 57.28499512 92.0611377 56.82006836 92.73657227 C54.45769217 96.30684882 54.45769217 96.30684882 54.4296875 100.4375 C54.94789062 101.283125 55.46609375 102.12875 56 103 C56.34168213 103.59329102 56.68336426 104.18658203 57.03540039 104.79785156 C58.29902237 106.97302863 59.61224863 109.11183908 60.9375 111.25 C61.42476562 112.04140381 61.91203125 112.83280762 62.4140625 113.64819336 C67.04708287 121.14037685 71.82285802 128.53721653 76.63818359 135.91308594 C78.87004429 139.33329842 81.09233586 142.75968641 83.3125 146.1875 C83.97717285 147.21363403 83.97717285 147.21363403 84.65527344 148.26049805 C90.2507898 156.91414428 95.78379213 165.60842614 101.28930664 174.31958008 C102.49714063 176.2120889 103.72197186 178.09380131 104.95874023 179.9675293 C105.59497314 180.93859619 106.23120605 181.90966309 106.88671875 182.91015625 C107.46897217 183.78808838 108.05122559 184.66602051 108.65112305 185.57055664 C110.59252797 189.06719382 110.74614567 191.10346148 110 195 C108 197 108 197 106.06722832 197.24609566 C105.27264277 197.24425207 104.47805721 197.24240849 103.65939331 197.24050903 C102.29502294 197.24464152 102.29502294 197.24464152 100.90308952 197.2488575 C99.8985026 197.24166128 98.89391567 197.23446507 97.85888672 197.22705078 C96.7881296 197.22729185 95.71737247 197.22753292 94.61416817 197.2277813 C91.13592445 197.22628429 87.65789305 197.21103372 84.1796875 197.1953125 C82.03719181 197.19237327 79.89469468 197.19033209 77.75219727 197.18920898 C69.79310966 197.17870775 61.83405276 197.15078551 53.875 197.125 C36.09625 197.08375 18.3175 197.0425 0 197 C0 131.99 0 66.98 0 0 Z " fill="#CF9E25" transform="translate(1111,537)"/>
<path d="M0 0 C-2.90504972 15.86604075 -13.32610981 30.09247791 -26.4375 39.25 C-36.51511707 45.61117167 -46.10754591 48.37753823 -58 48 C-56.35948111 34.29439912 -46.65158379 21.25649908 -36.24609375 12.65625 C-25.44675548 4.69291187 -13.63453399 -0.92437519 0 0 Z " fill="#D0A029" transform="translate(944,729)"/>
<path d="M0 0 C8.78457954 5.75180804 16.10093157 12.94655609 21.28125 22.1484375 C10.29004994 26.99749635 -4.35179028 26.67264017 -15.54345703 22.46191406 C-28.98401288 16.93839796 -39.73013767 8.31391113 -47.71875 -3.8515625 C-47.71875 -4.5115625 -47.71875 -5.1715625 -47.71875 -5.8515625 C-31.72882363 -11.27517266 -14.38845755 -8.11920105 0 0 Z " fill="#D1A028" transform="translate(419.71875,844.8515625)"/>
<path d="M0 0 C15.24397603 -1.10641762 27.00422475 4.54139288 38.62890625 14.1796875 C47.19161932 22.15412257 52.82079785 32.12385007 57 43 C57 44.32 57 45.64 57 47 C42.40139532 48.31650744 29.49467521 41.52768203 18.4375 32.4375 C10.29591671 24.88672187 3.50335913 14.54528702 0 4 C0 2.68 0 1.36 0 0 Z " fill="#D2A028" transform="translate(311,730)"/>
<path d="M0 0 C-1.53041934 5.441491 -5.17819216 9.02325401 -9 13 C-9.62648438 13.66386719 -10.25296875 14.32773437 -10.8984375 15.01171875 C-21.62333717 25.46952322 -36.14289817 31.36793695 -51 31.3125 C-51.86367188 31.32861328 -52.72734375 31.34472656 -53.6171875 31.36132812 C-59.18391957 31.36555816 -63.04342398 30.55236727 -68 28 C-61.46867812 13.77553456 -46.82091087 4.50320414 -32.703125 -0.875 C-22.60320025 -3.69358365 -9.94608812 -2.89340745 0 0 Z " fill="#D09F28" transform="translate(882,839)"/>
<path d="M0 0 C-1.71158007 10.98912206 -10.49331466 20.96692824 -19.1640625 27.453125 C-33.42531129 37.48085358 -46.93023276 39.82684556 -64 39 C-63.15971557 32.41974448 -58.9826556 28.08156058 -55 23 C-54.40058594 22.20851563 -53.80117188 21.41703125 -53.18359375 20.6015625 C-39.70260875 4.00510149 -20.50477671 -1.14197395 0 0 Z " fill="#D09F27" transform="translate(918,786)"/>
<path d="M0 0 C19.50249083 -0.66823255 35.2291552 3.44072536 50 17 C55.95484555 22.86889933 60.74857966 29.82227735 65 37 C65 37.66 65 38.32 65 39 C45.84971317 39.89090226 31.15675757 37.5703675 16.15625 24.52734375 C9.79291867 18.45246014 4.07177217 11.85187012 0 4 C0 2.68 0 1.36 0 0 Z " fill="#D1A028" transform="translate(336,786)"/>
<path d="M0 0 C8.60663281 1.82795741 14.95403653 5.85142116 22 11 C23.051875 11.7425 24.10375 12.485 25.1875 13.25 C37.11873068 24.91609222 44.21404983 39.382559 45.1796875 56.11328125 C45.18621017 58.41904451 45.14313842 60.69918243 45 63 C28.57111047 56.78689269 17.07463215 45.65610047 8 31 C7.56945312 30.31421875 7.13890625 29.6284375 6.6953125 28.921875 C2.02514048 20.59521171 -0.77517485 9.4958919 0 0 Z " fill="#D2A028" transform="translate(836,418)"/>
<path d="M0 0 C12.73217596 0.25464352 23.45871895 8.22828871 32 17 C32.63421875 17.60199219 33.2684375 18.20398438 33.921875 18.82421875 C43.12689933 28.21252896 48 42.01139355 48 55 C33.30673998 53.72232522 21.41367058 44.90628861 12 34 C3.7849888 23.33361778 -0.94703513 13.60047677 0 0 Z " fill="#D2A028" transform="translate(296,670)"/>
<path d="M0 0 C0.54650759 15.02895883 -5.45600371 27.86056636 -14 40 C-14.42539062 40.62390625 -14.85078125 41.2478125 -15.2890625 41.890625 C-22.15092364 50.89944883 -33.78471216 57.52786938 -44 62 C-44.72976867 43.48549851 -39.61920395 28.79924402 -27 15 C-22.50788375 10.263747 -17.40536773 6.85370432 -11.8125 3.5625 C-11.21808105 3.20784668 -10.62366211 2.85319336 -10.01123047 2.48779297 C-6.53305936 0.52297245 -4.00246657 -0.4296433 0 0 Z " fill="#D09F27" transform="translate(418,419)"/>
<path d="M0 0 C0.89251081 15.47018732 -6.02262885 26.7583312 -15.375 38.4375 C-23.58703625 47.27251831 -36.13184362 53.35213191 -48 55 C-48.19208128 40.51158342 -41.96114362 27.35287399 -32 17 C-23.92467327 8.72808292 -12.18126339 -0.71654491 0 0 Z " fill="#D1A02A" transform="translate(958,670)"/>
<path d="M0 0 C13.04160697 3.50432876 23.90442727 12.32556032 31.25 23.625 C38.31176813 36.44664605 39.74020462 47.64003032 39 62 C23.69293887 57.25946298 12.95845823 46.6525935 5.26953125 32.90625 C0.91312169 24.54525493 -0.15900784 17.9342944 -0.0625 8.625 C-0.05798828 7.79355469 -0.05347656 6.96210937 -0.04882812 6.10546875 C-0.03713164 4.07028103 -0.01919935 2.03513077 0 0 Z " fill="#D09F28" transform="translate(292,610)"/>
<path d="M0 0 C12.12237968 5.58852825 21.06815503 16.77760161 26 29 C26.29777344 29.73347656 26.59554688 30.46695313 26.90234375 31.22265625 C30.73729117 42.09128603 29.54277047 53.93802046 27 65 C26.67 65.66 26.34 66.32 26 67 C13.33853972 61.20149938 4.05263059 47.97100055 -1.03515625 35.453125 C-4.68518396 24.24838876 -4.50056276 10.90314907 0 0 Z " fill="#D1A02A" transform="translate(300,550)"/>
<path d="M0 0 C0.42371931 19.39692844 -3.53781098 34.93749993 -17.38671875 49.51171875 C-22.9352081 54.78147709 -29.95793479 61 -38 61 C-38.62889282 42.85527742 -35.83962815 28.92592271 -23.6875 14.6875 C-18.05133774 8.71528037 -8.84848135 0 0 0 Z " fill="#D09F27" transform="translate(962,610)"/>
<path d="M0 0 C10.61034542 8.01189348 16.08836492 19.193959 19 32 C20.52524996 44.65689883 18.12127385 58.7572019 12 70 C4.46588154 67.17470558 -1.65952477 56.0663899 -5 49 C-10.36592643 35.65517428 -9.23416357 21.36893299 -4.38671875 8.13671875 C-3.11330287 5.2562879 -1.69534243 2.64990473 0 0 Z " fill="#D19F28" transform="translate(321,493)"/>
<path d="M0 0 C6.38365651 5.1069252 9.29525089 13.14888916 11 21 C11.9297279 39.04029705 8.55015312 57.02700976 -4 71 C-4.66 71 -5.32 71 -6 71 C-6 70.01 -6 69.02 -6 68 C-6.66 68 -7.32 68 -8 68 C-15.13811307 52.75867184 -17.969079 38.2863141 -13.04296875 21.7734375 C-9.91910717 13.46653966 -6.13814919 6.43044201 0 0 Z " fill="#D1A029" transform="translate(354,441)"/>
<path d="M0 0 C5.05293348 11.57963922 4.23972063 24.8601704 0.3984375 36.7109375 C-1.9984631 42.34834059 -5.28955816 47.15178595 -9 52 C-9.495 52.66644531 -9.99 53.33289063 -10.5 54.01953125 C-14.55416667 59.12179214 -19.65688112 63.30017847 -25 67 C-25.66 67 -26.32 67 -27 67 C-29.76409732 50.83894711 -29.94484977 32.56872316 -20.8046875 18.44921875 C-7.21052632 0 -7.21052632 0 0 0 Z " fill="#D1A02A" transform="translate(954,551)"/>
<path d="M0 0 C10.84497719 29.09930902 10.84497719 29.09930902 5.9375 43.125 C5.3184185 44.4296998 4.66751874 45.71940553 4 47 C3.51273438 48.07894531 3.02546875 49.15789063 2.5234375 50.26953125 C-0.89394658 57.70123988 -4.73203036 64.55335052 -11 70 C-11.66 70 -12.32 70 -13 70 C-15.78887754 64.39516845 -17.58423434 59.15342196 -18.60546875 52.96875 C-18.80968082 51.00552495 -18.80968082 51.00552495 -20 50 C-21.3920177 31.96342787 -17.06788146 17.39953982 -5.25 3.375 C-2.28853755 0 -2.28853755 0 0 0 Z " fill="#D0A02A" transform="translate(934,493)"/>
<path d="M0 0 C6.20365019 2.25713166 9.21709987 9.35468831 12 15 C17.81457488 30.15765246 18.78421145 43.62801988 13 59 C11.18006165 62.78635954 9.19313474 66.41787993 7 70 C0.02432584 67.3593181 -2.61959456 58.96442067 -5.5625 52.64453125 C-10.56268939 39.84575101 -11.54579275 24.51715176 -6.75 11.5 C-4.86037443 7.39235239 -2.76219759 3.5806265 0 0 Z " fill="#D09F27" transform="translate(899,441)"/>
<path d="M0 0 C7.50914827 2.22990807 12.28942218 9.86007377 16.4296875 16.18359375 C17.45402035 18.09329956 18.25861106 19.96412243 19 22 C19.29519531 22.78246094 19.59039063 23.56492187 19.89453125 24.37109375 C25.01840041 40.11704782 21.57118116 52.5165803 15 67 C7.77527519 64.5917584 3.43488878 55.52954062 0.125 49.0625 C-6.08135413 36.302619 -7.19592371 21.21269102 -3.0625 7.625 C-2.15151694 4.99327116 -1.24443909 2.48887818 0 0 Z " fill="#D19F28" transform="translate(877,676)"/>
<path d="M0 0 C4.12538015 8.25076029 1.70552391 23.00723877 -0.79174805 31.52539062 C-3.32793363 39.05120202 -6.37513555 45.27587323 -12 51 C-12.82242187 51.88558594 -13.64484375 52.77117188 -14.4921875 53.68359375 C-21.77118057 61.2973773 -21.77118057 61.2973773 -27 63 C-30.74366148 51.03365347 -32.40643926 37.71696536 -27 26 C-22.03491087 16.59486564 -12.44061942 0 0 0 Z " fill="#D09F29" transform="translate(372,627)"/>
<path d="M0 0 C1.26013199 17.54850473 -3.50806487 30.90431944 -14.98828125 44.32421875 C-20.79304552 50.57468704 -27.47892618 55.03983631 -35 59 C-35.66 59 -36.32 59 -37 59 C-37.59861435 40.68683499 -35.79931512 26.34792581 -22.9375 12.3125 C-17.0774709 6.71516186 -8.30112042 0 0 0 Z " fill="#CF9E26" transform="translate(374,578)"/>
<path d="M0 0 C3 1 3 1 4.14819336 3.08642578 C6.74153778 10.14703138 7.67240581 16.37121124 7.5625 23.875 C7.54823975 25.4520874 7.54823975 25.4520874 7.53369141 27.06103516 C7.31252404 35.32860386 6.04341793 41.68992601 2 49 C1.53078125 49.89589844 1.0615625 50.79179688 0.578125 51.71484375 C-2.61319901 57.41976435 -6.52150234 62.25650248 -11 67 C-13.31987488 64.13661157 -14.79609627 61.43212933 -16.125 58 C-16.45757812 57.154375 -16.79015625 56.30875 -17.1328125 55.4375 C-20.84331219 45.00798735 -20.83381137 30.4898876 -16.32421875 20.37890625 C-11.94069027 12.5040719 -6.58775964 6.12576092 0 0 Z " fill="#D19F27" transform="translate(375,676)"/>
<path d="M0 0 C4.1412927 1.48799694 5.25251811 3.75258981 7.125 7.625 C7.62257813 8.62789062 8.12015625 9.63078125 8.6328125 10.6640625 C14.86030306 25.85913946 13.1028919 42.09758955 7 57 C5.17521003 61.09309779 3.1631693 65.07507426 1 69 C-6.67454971 62.67978259 -11.35943335 51.6820327 -13 42 C-14.56405035 25.59484963 -9.72661876 13.17799961 0 0 Z " fill="#D09F27" transform="translate(390,723)"/>
<path d="M0 0 C8.41539453 1.1515803 15.70047855 8.64818123 21 15 C28.86438436 26.54288672 30.95387921 37.12105746 30 51 C29.21889393 55.07355898 28.20134336 59.03127641 27 63 C15.91249629 57.93564132 7.52942334 47.0238171 3 36 C0.22076385 28.14865789 -1.14186294 20.7930879 -1.125 12.4375 C-1.12757813 11.15746094 -1.13015625 9.87742187 -1.1328125 8.55859375 C-1.02078522 5.55692156 -0.70355355 2.90913811 0 0 Z " fill="#D09F27" transform="translate(882,627)"/>
<path d="M0 0 C11.48439915 1.91406653 21.36846068 9.21208618 28.3125 18.3125 C35.08353457 28.11836082 37.1760429 37.10011356 37.0625 48.8125 C37.05798828 49.69615234 37.05347656 50.57980469 37.04882812 51.49023438 C37.03709866 53.66018559 37.01916495 55.83010172 37 58 C27.29614216 56.83194304 18.01610543 47.85928329 11.93359375 40.671875 C2.94089103 28.24559488 -0.24106386 15.05309863 0 0 Z " fill="#D19F26" transform="translate(880,578)"/>
<path d="M0 0 C7.26103205 2.95525593 10.85763296 11.23483386 13.8125 18.0625 C20.48538663 35.31542397 18.10188182 50.85661775 12 68 C0.76865215 59.28997514 -6.14604122 47.17623029 -8 33 C-9.04237408 20.95288974 -5.76139742 10.49397388 0 0 Z " fill="#D09F28" transform="translate(413,767)"/>
<path d="M0 0 C6.19476191 2.45654352 8.6292001 8.96434848 11.23828125 14.7421875 C16.16021281 26.80539432 17.07095234 39.88610108 12.2734375 52.203125 C5.94466732 66.10312331 5.94466732 66.10312331 1 68 C-7.75703461 51.79948597 -12.60827072 34.8553903 -8.01171875 16.4609375 C-6.18438173 10.35139289 -3.65843691 5.19060279 0 0 Z " fill="#D1A027" transform="translate(862,723)"/>
<path d="M0 0 C6.46807839 5.87378914 8.86551062 13.5426464 9.4921875 22.06640625 C10.09851578 37.4378735 6.64017917 48.85422361 -3 61 C-3.84691406 62.07507813 -3.84691406 62.07507813 -4.7109375 63.171875 C-6.07591723 64.83648443 -7.52995953 66.42739857 -9 68 C-9.66 68 -10.32 68 -11 68 C-11.65264429 65.98135603 -12.29678746 63.95996273 -12.9375 61.9375 C-13.29714844 60.81214844 -13.65679688 59.68679688 -14.02734375 58.52734375 C-18.5501386 42.125401 -16.51987407 25.72262385 -8.6953125 10.78125 C-6.24067904 6.75429373 -3.31786955 3.33750191 0 0 Z " fill="#D09F27" transform="translate(840,767)"/>
<path d="M0 0 C-0.36855523 15.14426943 -7.93265258 26.90576142 -18.34375 37.3515625 C-25.79628423 43.78558372 -36.17005657 49.52082756 -46 51 C-47.11231644 40.09929886 -42.44974643 28.73502541 -35.8671875 20.203125 C-35.25101562 19.47609375 -34.63484375 18.7490625 -34 18 C-33.40445312 17.29359375 -32.80890625 16.5871875 -32.1953125 15.859375 C-24.4440462 7.43268715 -11.8607384 -0.88955538 0 0 Z " fill="#D09F28" transform="translate(386,531)"/>
<path d="M0 0 C13.40503263 -0.98727736 23.79648526 2.47118568 34.42578125 10.6953125 C41.1576562 16.72233257 46.49817635 23.66990435 50 32 C50.44472656 32.92619141 50.44472656 32.92619141 50.8984375 33.87109375 C52.57533505 37.44796238 53.13324796 40.08917229 53 44 C36.09298068 41.51367363 20.80502718 34.92763874 9.75 21.3125 C5.85482517 15.68613636 0 7.01017338 0 0 Z " fill="#D1A129" transform="translate(849,487)"/>
<path d="M0 0 C-0.54808593 12.33193349 -9.41761276 21.93740741 -18 30 C-26.74500723 37.18292197 -40.41406578 43.74571947 -52 43 C-51.53195513 37.26328791 -50.40733037 32.775906 -47.625 27.6875 C-47.2741333 27.04304932 -46.9232666 26.39859863 -46.56176758 25.73461914 C-40.57166532 15.28013424 -32.03582645 7.84982508 -21 3 C-20.25105469 2.66226562 -19.50210938 2.32453125 -18.73046875 1.9765625 C-12.56391344 -0.44561598 -6.54880767 -0.29918411 0 0 Z " fill="#CF9F28" transform="translate(405,487)"/>
<path d="M0 0 C11.49046326 -1.20952245 22.76306477 7.4178533 31.25 14.25 C41.95741234 24.05596695 45.31388713 36.01749286 46 50 C31.60201936 48.50363192 20.0439037 39.59153757 11.09765625 28.6796875 C5.55807372 20.81432605 -0.57777127 9.82211163 0 0 Z " fill="#D2A128" transform="translate(868,531)"/>
<path d="M0 0 C5.24543897 10.84213501 5.90419057 22.93055933 2.375 34.4375 C-2.26373065 46.26868757 -9.73894504 56.68282283 -21 63 C-21.66 63 -22.32 63 -23 63 C-26.82655665 45.66783603 -24.0662781 28.6773265 -14.796875 13.6640625 C-5.58064516 0 -5.58064516 0 0 0 Z " fill="#D1A129" transform="translate(812,806)"/>
<path d="M0 0 C8.63788448 4.17596039 13.26049487 11.9403728 18 20 C18.5775 20.94875 19.155 21.8975 19.75 22.875 C24.94688251 35.86720628 25.48199617 49.50726483 22 63 C9.41236716 56.08914275 0.57209391 46.16120981 -3.54199219 32.15478516 C-4.44365726 27.91272975 -4.26985996 23.57085699 -4.3125 19.25 C-4.34150391 18.28578125 -4.37050781 17.3215625 -4.40039062 16.328125 C-4.4585058 9.74769912 -3.39504454 5.65171123 0 0 Z " fill="#D09F27" transform="translate(443,806)"/>
<path d="M0 0 C3.82551763 0.66428746 6.60574568 2.43289946 9.8828125 4.46484375 C10.44969788 4.81369125 11.01658325 5.16253876 11.60064697 5.5219574 C12.81434281 6.26893382 14.02674966 7.01800794 15.23797607 7.76898193 C18.41550807 9.73663242 21.60596946 11.68304209 24.796875 13.62890625 C25.426008 14.01272461 26.05514099 14.39654297 26.70333862 14.79199219 C34.33926322 19.43952077 42.09072914 23.83473265 50 28 C50.86286621 28.45600586 51.72573242 28.91201172 52.61474609 29.38183594 C63.26031529 34.96621238 73.8280296 40.06160261 85.2734375 43.78125 C87.87367903 44.63164346 90.40349516 45.51808093 92.953125 46.49609375 C97.7358082 48.31446734 102.61951446 49.75485769 107.52734375 51.19335938 C112.78446003 52.78446003 112.78446003 52.78446003 115 55 C115.125 57.625 115.125 57.625 115 60 C111.40624124 60.92050663 109.14043793 61.04681264 105.625 59.875 C104.32755859 59.44960938 104.32755859 59.44960938 103.00390625 59.015625 C102.01261719 58.68046875 101.02132812 58.3453125 100 58 C98.81277344 57.62359375 97.62554688 57.2471875 96.40234375 56.859375 C89.70081671 54.72015054 83.1987789 52.37930838 76.85546875 49.30859375 C74.36093344 48.16540725 71.86259107 47.14822915 69.30859375 46.1484375 C43.56577257 35.92229414 20.17333082 20.69618558 -1 3 C-0.67 2.01 -0.34 1.02 0 0 Z " fill="#D4A42F" transform="translate(451,867)"/>
<path d="M0 0 C-7.69092771 18.95112574 -45.66627714 33.83104408 -63 42 C-63.80356934 42.38172363 -64.60713867 42.76344727 -65.43505859 43.15673828 C-72.69533109 46.53904983 -80.10371571 49.380067 -87.625 52.125 C-88.78773438 52.55425781 -89.95046875 52.98351562 -91.1484375 53.42578125 C-110.54500933 60.55687383 -110.54500933 60.55687383 -115 60 C-116 59 -116 59 -116.1875 56.5625 C-116 54 -116 54 -114 52 C-111.21277558 51.16383268 -108.44246427 50.40513446 -105.625 49.6875 C-99.29098874 47.99789098 -93.29287675 46.09253625 -87.2890625 43.4296875 C-84.71379911 42.31027372 -82.14241941 41.2659516 -79.5234375 40.2578125 C-59.32267004 32.46980602 -40.97020493 22.4094042 -22.59375 11.05078125 C-20.396761 9.69901196 -18.19885513 8.34873161 -16 7 C-14.33130859 5.97205322 -14.33130859 5.97205322 -12.62890625 4.92333984 C-11.56542969 4.28219238 -10.50195312 3.64104492 -9.40625 2.98046875 C-8.46072266 2.40578857 -7.51519531 1.8311084 -6.54101562 1.23901367 C-4 0 -4 0 0 0 Z " fill="#D3A42D" transform="translate(804,868)"/>
<path d="M0 0 C-1.52059907 3.88014936 -3.86078531 5.73906562 -7.125 8.25 C-8.03507813 8.95640625 -8.94515625 9.6628125 -9.8828125 10.390625 C-10.58148437 10.92171875 -11.28015625 11.4528125 -12 12 C-12.66 11.67 -13.32 11.34 -14 11 C-14.296875 8.70703125 -14.296875 8.70703125 -14 6 C-11.953125 4.19921875 -11.953125 4.19921875 -9.25 2.6875 C-8.36828125 2.17574219 -7.4865625 1.66398438 -6.578125 1.13671875 C-4 0 -4 0 0 0 Z " fill="#CD9C22" transform="translate(804,868)"/>
<path d="M0 0 C0.75410156 0.00322266 1.50820313 0.00644531 2.28515625 0.00976562 C3.06246094 0.01814453 3.83976563 0.02652344 4.640625 0.03515625 C5.43339844 0.03966797 6.22617187 0.04417969 7.04296875 0.04882812 C8.99222008 0.0605706 10.94143238 0.07850479 12.890625 0.09765625 C12.560625 1.74765625 12.230625 3.39765625 11.890625 5.09765625 C11.230625 4.76765625 10.570625 4.43765625 9.890625 4.09765625 C8.44213918 4.01423466 6.98991631 3.99032764 5.5390625 4 C4.26289062 4.00483398 4.26289062 4.00483398 2.9609375 4.00976562 C2.07148437 4.01814453 1.18203125 4.02652344 0.265625 4.03515625 C-1.08015625 4.04192383 -1.08015625 4.04192383 -2.453125 4.04882812 C-4.67194148 4.06063034 -6.89062518 4.0770947 -9.109375 4.09765625 C-8.779375 3.10765625 -8.449375 2.11765625 -8.109375 1.09765625 C-5.41165718 0.07962888 -2.8613733 -0.02167707 0 0 Z " fill="#D3A63B" transform="translate(905.109375,785.90234375)"/>
<path d="M0 0 C2 3 2 3 2 5 C-16.15 5 -34.3 5 -53 5 C-53 4.67 -53 4.34 -53 4 C-52.36550934 3.99413376 -51.73101868 3.98826752 -51.07730103 3.98222351 C-44.49133974 3.91843848 -37.9058739 3.83405833 -31.3203125 3.73754883 C-28.86041788 3.70423234 -26.40044558 3.67622164 -23.94042969 3.65356445 C-20.4104695 3.62014219 -16.88122566 3.56783234 -13.3515625 3.51171875 C-12.24632233 3.50532883 -11.14108215 3.4989389 -10.00234985 3.49235535 C-8.98144257 3.47256119 -7.96053528 3.45276703 -6.90869141 3.43237305 C-5.55633896 3.41571846 -5.55633896 3.41571846 -4.17666626 3.39872742 C-3.45836639 3.26714737 -2.74006653 3.13556732 -2 3 C-1.34 2.01 -0.68 1.02 0 0 Z " fill="#D4A22F" transform="translate(1070,518)"/>
<path d="M0 0 C3.63 1.98 7.26 3.96 11 6 C9.35 7.65 7.7 9.3 6 11 C2.99229937 8.99486625 1.24691165 7.42900705 0 4 C0 2.68 0 1.36 0 0 Z " fill="#D9AA3A" transform="translate(464,874)"/>
<path d="M0 0 C0.33 0 0.66 0 1 0 C0.67 8.58 0.34 17.16 0 26 C-0.66 25.67 -1.32 25.34 -2 25 C-2 17.74 -2 10.48 -2 3 C-1.34 3 -0.68 3 0 3 C0 2.01 0 1.02 0 0 Z " fill="#D4A732" transform="translate(855,741)"/>
<path d="M0 0 C0.77085937 -0.01417969 1.54171875 -0.02835938 2.3359375 -0.04296875 C4.84334888 0.20948393 6.45761902 0.93556533 8.625 2.1875 C7.11078999 3.70171001 5.70027232 3.40059856 3.58984375 3.50390625 C2.78095703 3.54580078 1.97207031 3.58769531 1.13867188 3.63085938 C-0.1365332 3.68983398 -0.1365332 3.68983398 -1.4375 3.75 C-2.71850586 3.81477539 -2.71850586 3.81477539 -4.02539062 3.88085938 C-6.14172037 3.98726702 -8.25833813 4.08791731 -10.375 4.1875 C-6.7234899 1.38800892 -4.63299167 0.03848 0 0 Z " fill="#D5AA3B" transform="translate(624.375,141.8125)"/>
<path d="M0 0 C4.32504836 1.65863505 7.09418825 4.871041 10.25 8.125 C11.08144531 8.96998047 11.08144531 8.96998047 11.9296875 9.83203125 C13.29104485 11.21686028 14.64614859 12.60783204 16 14 C15.34 14.66 14.68 15.32 14 16 C11.65861457 13.71643754 9.32833018 11.42186626 7 9.125 C5.99839844 8.14853516 5.99839844 8.14853516 4.9765625 7.15234375 C4.34492187 6.52714844 3.71328125 5.90195312 3.0625 5.2578125 C2.47597656 4.6817627 1.88945313 4.10571289 1.28515625 3.51220703 C0 2 0 2 0 0 Z " fill="#D4A636" transform="translate(900,328)"/>
<path d="M0 0 C0.66 0 1.32 0 2 0 C3.49821059 3.37097383 4 5.20442119 4 9 C2.22950311 9.05410687 0.45853151 9.09284119 -1.3125 9.125 C-2.79169922 9.15980469 -2.79169922 9.15980469 -4.30078125 9.1953125 C-7 9 -7 9 -10 7 C-4.555 6.505 -4.555 6.505 1 6 C0.67 4.02 0.34 2.04 0 0 Z " fill="#D6A736" transform="translate(364,768)"/>
<path d="M0 0 C0 0.99 0 1.98 0 3 C-5.82254243 4.96818336 -10.83381819 6.40214229 -17 6 C-14.1485357 4.0990238 -11.70289524 3.03734101 -8.5 1.875 C-7.5409375 1.52179687 -6.581875 1.16859375 -5.59375 0.8046875 C-3 0 -3 0 0 0 Z " fill="#D8AF47" transform="translate(754,964)"/>
<path d="M0 0 C-1.58667578 3.90285767 -4.13350481 6.33520982 -7.125 9.25 C-8.03507812 10.14203125 -8.94515625 11.0340625 -9.8828125 11.953125 C-10.58148438 12.62859375 -11.28015625 13.3040625 -12 14 C-12.66 13.34 -13.32 12.68 -14 12 C-12.04761147 9.99387601 -10.08862178 7.99507567 -8.125 6 C-7.29162109 5.14148438 -7.29162109 5.14148438 -6.44140625 4.265625 C-2.2265625 0 -2.2265625 0 0 0 Z " fill="#D6AA3B" transform="translate(383,358)"/>
<path d="M0 0 C-1.39332574 3.36720387 -2.9789286 4.9859524 -6 7 C-6 6.34 -6 5.68 -6 5 C-7.65 5 -9.3 5 -11 5 C-4.40909091 0 -4.40909091 0 0 0 Z " fill="#D0A436" transform="translate(804,868)"/>
<path d="M0 0 C0 0.33 0 0.66 0 1 C-1.15628906 1.09087891 -1.15628906 1.09087891 -2.3359375 1.18359375 C-3.84027344 1.30927734 -3.84027344 1.30927734 -5.375 1.4375 C-6.87160156 1.55931641 -6.87160156 1.55931641 -8.3984375 1.68359375 C-10.97927613 1.84965626 -10.97927613 1.84965626 -13 3 C-15.37783105 2.91161539 -17.75345146 2.75653579 -20.125 2.5625 C-21.40632812 2.46066406 -22.68765625 2.35882813 -24.0078125 2.25390625 C-25.48894531 2.12822266 -25.48894531 2.12822266 -27 2 C-27 1.67 -27 1.34 -27 1 C-17.98175113 -0.06996173 -9.06335876 -0.10234659 0 0 Z " fill="#EEE0B8" transform="translate(619,260)"/>
<path d="M0 0 C1.13115234 0.08217773 1.13115234 0.08217773 2.28515625 0.16601562 C3.06246094 0.23884766 3.83976563 0.31167969 4.640625 0.38671875 C5.82978516 0.47856445 5.82978516 0.47856445 7.04296875 0.57226562 C8.99338369 0.72500896 10.94222055 0.89767119 12.890625 1.07421875 C12.890625 1.40421875 12.890625 1.73421875 12.890625 2.07421875 C2.495625 2.56921875 2.495625 2.56921875 -8.109375 3.07421875 C-3.609375 -0.30078125 -3.609375 -0.30078125 0 0 Z " fill="#DAB149" transform="translate(903.109375,990.92578125)"/>
<path d="M0 0 C3.06526326 4.59789489 2.99333668 7.25687406 2.5625 12.625 C2.51029297 13.33140625 2.45808594 14.0378125 2.40429688 14.765625 C2.27458793 16.51079987 2.13795046 18.25545725 2 20 C1.67 20 1.34 20 1 20 C0.67 13.4 0.34 6.8 0 0 Z " fill="#D8AF4B" transform="translate(254,876)"/>
<path d="M0 0 C0 0.66 0 1.32 0 2 C-6.93 1.34 -13.86 0.68 -21 0 C-21 -0.33 -21 -0.66 -21 -1 C-13.58773774 -2.18982084 -7.30139977 -1.67959957 0 0 Z " fill="#D6A835" transform="translate(377,994)"/>
<path d="M0 0 C2.31 0.33 4.62 0.66 7 1 C7 1.33 7 1.66 7 2 C5.02 2.66 3.04 3.32 1 4 C1 6.31 1 8.62 1 11 C0.01 10.34 -0.98 9.68 -2 9 C-2.43132515 4.94554358 -2.30019361 3.45029042 0 0 Z " fill="#D3A42E" transform="translate(35,538)"/>
<path d="M0 0 C5 1 5 1 7 3 C5.35 2.67 3.7 2.34 2 2 C2 4.97 2 7.94 2 11 C1.34 11 0.68 11 0 11 C0 7.37 0 3.74 0 0 Z " fill="#D4A537" transform="translate(880,578)"/>
<path d="M0 0 C0 0.99 0 1.98 0 3 C-1.32 3.33 -2.64 3.66 -4 4 C-4 4.66 -4 5.32 -4 6 C-5.32 6 -6.64 6 -8 6 C-8 6.66 -8 7.32 -8 8 C-9.65 7.67 -11.3 7.34 -13 7 C-10.31767339 5.21178226 -7.69711039 3.79857396 -4.8125 2.375 C-3.91144531 1.92898438 -3.01039063 1.48296875 -2.08203125 1.0234375 C-1.39496094 0.68570312 -0.70789063 0.34796875 0 0 Z " fill="#D4A93A" transform="translate(257,354)"/>
<path d="M0 0 C-0.33 0.99 -0.66 1.98 -1 3 C-3.64 3 -6.28 3 -9 3 C-9 3.66 -9 4.32 -9 5 C-11.31 5.33 -13.62 5.66 -16 6 C-11.74276476 2.11295913 -5.72456601 0 0 0 Z " fill="#D6AE43" transform="translate(932,731)"/>
<path d="M0 0 C2.02907167 3.3146667 2.12742133 5.4315979 1.625 9.25 C1.51414062 10.14203125 1.40328125 11.0340625 1.2890625 11.953125 C1.19367188 12.62859375 1.09828125 13.3040625 1 14 C-1.01696222 10.97455666 -1.25811096 10.38932618 -1.1875 7 C-1.18105469 6.319375 -1.17460938 5.63875 -1.16796875 4.9375 C-1 3 -1 3 0 0 Z " fill="#D9AF4A" transform="translate(1078,465)"/>
<path d="M0 0 C3.16115776 1.36983503 3.9927092 1.9890638 6 5 C3 5 3 5 0 4 C-0.33 4.66 -0.66 5.32 -1 6 C-1.33 5.01 -1.66 4.02 -2 3 C-1.34 2.01 -0.68 1.02 0 0 Z " fill="#D1A335" transform="translate(443,806)"/>
<path d="M0 0 C0.66 0.99 1.32 1.98 2 3 C1.21718695 4.33855056 0.42348123 5.67073644 -0.375 7 C-0.81585938 7.7425 -1.25671875 8.485 -1.7109375 9.25 C-2.13632812 9.8275 -2.56171875 10.405 -3 11 C-3.66 11 -4.32 11 -5 11 C-3.77472971 6.94718288 -2.30119506 3.55639236 0 0 Z " fill="#D7AC40" transform="translate(293,438)"/>
<path d="M0 0 C0 0.99 0 1.98 0 3 C-1.28745036 3.38922918 -2.58019597 3.76098036 -3.875 4.125 C-4.95394531 4.43824219 -4.95394531 4.43824219 -6.0546875 4.7578125 C-6.69664062 4.83773437 -7.33859375 4.91765625 -8 5 C-8.66 4.34 -9.32 3.68 -10 3 C-3.375 0 -3.375 0 0 0 Z " fill="#D7AC41" transform="translate(764,960)"/>
<path d="M0 0 C1.65 1.65 3.3 3.3 5 5 C3.02 5.99 3.02 5.99 1 7 C0.01 6.34 -0.98 5.68 -2 5 C-1.34 3.35 -0.68 1.7 0 0 Z " fill="#D5A736" transform="translate(436,861)"/>
<path d="M0 0 C2 2 2 2 2.125 4.625 C2.08375 5.40875 2.0425 6.1925 2 7 C-0.31 6.67 -2.62 6.34 -5 6 C-2.25 1.125 -2.25 1.125 0 0 Z " fill="#DBB554" transform="translate(900,524)"/>
<path d="M0 0 C0.99 0.33 1.98 0.66 3 1 C1.12050295 4.57104439 -0.17053157 6.54744301 -4 8 C-2.87548273 5.0280615 -1.77706209 2.66559313 0 0 Z " fill="#D6A83C" transform="translate(899,441)"/>
<path d="M0 0 C-1.375 2 -1.375 2 -4 4 C-7.3580469 4.35791096 -10.63536357 4.23115823 -14 4 C-11.37350692 2.24900461 -9.38191413 1.30690675 -6.4375 0.3125 C-5.65246094 0.04050781 -4.86742187 -0.23148438 -4.05859375 -0.51171875 C-2 -1 -2 -1 0 0 Z " fill="#DDB859" transform="translate(714,914)"/>
<path d="M0 0 C1.29608947 0.93137592 2.58671632 1.8703566 3.875 2.8125 C4.59429687 3.33457031 5.31359375 3.85664062 6.0546875 4.39453125 C8 6 8 6 10 9 C6.71245489 8.42110619 5.06327505 7.45171589 2.75 5.0625 C2.22921875 4.53785156 1.7084375 4.01320313 1.171875 3.47265625 C0 2 0 2 0 0 Z " fill="#D4A635" transform="translate(345,910)"/>
<path d="M0 0 C2.8992226 0.46761655 3.86675182 0.86675182 6 3 C4.35 3.66 2.7 4.32 1 5 C0.34 3.68 -0.32 2.36 -1 1 C-0.67 0.67 -0.34 0.34 0 0 Z " fill="#D5A943" transform="translate(451,867)"/>
<path d="M0 0 C0.66 0.33 1.32 0.66 2 1 C-2.82142857 7.29464286 -2.82142857 7.29464286 -7 8 C-6.02133662 6.85373678 -5.04205413 5.70800212 -4.0625 4.5625 C-3.51722656 3.92441406 -2.97195313 3.28632812 -2.41015625 2.62890625 C-1.63204305 1.73008851 -0.84063472 0.84063472 0 0 Z " fill="#D4A93C" transform="translate(906,743)"/>
<path d="M0 0 C0.66 0.66 1.32 1.32 2 2 C1.21654285 3.17219543 0.42297164 4.33763668 -0.375 5.5 C-0.81585938 6.1496875 -1.25671875 6.799375 -1.7109375 7.46875 C-2.13632812 7.9740625 -2.56171875 8.479375 -3 9 C-3.66 9 -4.32 9 -5 9 C-3.7508258 5.54074837 -2.32472205 2.85306797 0 0 Z " fill="#D5A633" transform="translate(351,550)"/>
<path d="M0 0 C0.66 0.33 1.32 0.66 2 1 C-3.14285714 6.57142857 -3.14285714 6.57142857 -7 7 C-2.25 1.125 -2.25 1.125 0 0 Z " fill="#D5A42E" transform="translate(518,157)"/>
<path d="M0 0 C1.98 0 3.96 0 6 0 C6 0.66 6 1.32 6 2 C7.65 2 9.3 2 11 2 C11 2.33 11 2.66 11 3 C9.741875 3.020625 8.48375 3.04125 7.1875 3.0625 C6.47980469 3.07410156 5.77210938 3.08570313 5.04296875 3.09765625 C3 3 3 3 0 2 C0 1.34 0 0.68 0 0 Z " fill="#DCB24B" transform="translate(576,1005)"/>
<path d="M0 0 C0 0.66 0 1.32 0 2 C0.969375 2.12375 1.93875 2.2475 2.9375 2.375 C4.4534375 2.684375 4.4534375 2.684375 6 3 C6.33 3.66 6.66 4.32 7 5 C5.39402675 4.54803755 3.79027492 4.08817673 2.1875 3.625 C1.29417969 3.36976563 0.40085937 3.11453125 -0.51953125 2.8515625 C-3 2 -3 2 -6 0 C-3 -1 -3 -1 0 0 Z " fill="#DDB757" transform="translate(508,988)"/>
<path d="M0 0 C0 0.66 0 1.32 0 2 C-2.25 3.75 -2.25 3.75 -5 5 C-7.3125 4.1875 -7.3125 4.1875 -9 3 C-2.25 0 -2.25 0 0 0 Z " fill="#D4A736" transform="translate(237,364)"/>
<path d="M0 0 C-1.6875 1.5625 -1.6875 1.5625 -4 3 C-6.75 2.6875 -6.75 2.6875 -9 2 C-4.13793103 -1.24137931 -4.13793103 -1.24137931 0 0 Z " fill="#D7AC3E" transform="translate(780,999)"/>
<path d="M0 0 C0.66 1.32 1.32 2.64 2 4 C3.98 4 5.96 4 8 4 C6 6 6 6 3.4375 6.1875 C1 6 1 6 0 5 C-0.04063832 3.33382885 -0.042721 1.66611905 0 0 Z " fill="#D8AC42" transform="translate(688,922)"/>
<path d="M0 0 C0.33 1.32 0.66 2.64 1 4 C-0.65 5.32 -2.3 6.64 -4 8 C-4.66 7.67 -5.32 7.34 -6 7 C-4.02 4.69 -2.04 2.38 0 0 Z " fill="#F8F0DB" transform="translate(929,555)"/>
<path d="M0 0 C2.0625 2.3125 2.0625 2.3125 4 5 C3.67 5.99 3.34 6.98 3 8 C0.9375 6.25 0.9375 6.25 -1 4 C-0.75 1.75 -0.75 1.75 0 0 Z " fill="#D9AC3E" transform="translate(892,508)"/>
<path d="M0 0 C2.50037734 2.17424117 3.43628586 3.73045798 4 7 C3.01 7 2.02 7 1 7 C0.34 5.02 -0.32 3.04 -1 1 C-0.67 0.67 -0.34 0.34 0 0 Z " fill="#D9AE42" transform="translate(312,797)"/>
<path d="M0 0 C1.98 1.65 3.96 3.3 6 5 C5.01 6.485 5.01 6.485 4 8 C0 2.25 0 2.25 0 0 Z " fill="#D3A333" transform="translate(914,372)"/>
<path d="M0 0 C4.455 0.99 4.455 0.99 9 2 C9 2.33 9 2.66 9 3 C6.03 3 3.06 3 0 3 C0 2.01 0 1.02 0 0 Z " fill="#DBAF47" transform="translate(545,915)"/>
<path d="M0 0 C3.82946843 1.45255699 5.12050295 3.42895561 7 7 C4.13302508 5.71480435 2.02392288 4.42870746 0 2 C0 1.34 0 0.68 0 0 Z " fill="#D6A93A" transform="translate(336,901)"/>
<path d="M0 0 C1.32 0.33 2.64 0.66 4 1 C1.69 2.65 -0.62 4.3 -3 6 C-3 3 -3 3 -1.75 1.25 C-1.1725 0.8375 -0.595 0.425 0 0 Z " fill="#D4A635" transform="translate(871,800)"/>
<path d="M0 0 C0.33 0.99 0.66 1.98 1 3 C2.98 2.67 4.96 2.34 7 2 C4.4345406 4.5654594 2.52313332 4.54046087 -1 5 C-0.67 3.35 -0.34 1.7 0 0 Z " fill="#D09A1B" transform="translate(911,720)"/>
<path d="M0 0 C0.66 0 1.32 0 2 0 C2 1.65 2 3.3 2 5 C2.66 5 3.32 5 4 5 C4.33 5.99 4.66 6.98 5 8 C4.01 8 3.02 8 2 8 C0.74335022 5.09399739 0 3.20395416 0 0 Z " fill="#D8B14C" transform="translate(299,686)"/>
<path d="M0 0 C0.66 0.33 1.32 0.66 2 1 C0.125 5.75 0.125 5.75 -1 8 C-1.66 8 -2.32 8 -3 8 C-1.125 2.25 -1.125 2.25 0 0 Z " fill="#D7A739" transform="translate(359,512)"/>
<path d="M0 0 C0.99 0.33 1.98 0.66 3 1 C0.03 3.475 0.03 3.475 -3 6 C-3.66 5.67 -4.32 5.34 -5 5 C-3.35 3.35 -1.7 1.7 0 0 Z " fill="#D4A735" transform="translate(372,337)"/>
<path d="M0 0 C1.32 0.33 2.64 0.66 4 1 C1.69 2.65 -0.62 4.3 -3 6 C-3 3 -3 3 -1.75 1.25 C-1.1725 0.8375 -0.595 0.425 0 0 Z " fill="#D2A530" transform="translate(381,329)"/>
</svg>
