<?xml version="1.0" standalone="no"?>
<!DOCTYPE svg PUBLIC "-//W3C//DTD SVG 20010904//EN"
 "http://www.w3.org/TR/2001/REC-SVG-20010904/DTD/svg10.dtd">
<svg version="1.0" xmlns="http://www.w3.org/2000/svg"
 width="1024.000000pt" height="559.000000pt" viewBox="0 0 1024.000000 559.000000"
 preserveAspectRatio="xMidYMid meet">
<metadata>
Created by potrace 1.16, written by Peter Selinger 2001-2019
</metadata>
<g transform="translate(0.000000,559.000000) scale(0.100000,-0.100000)"
fill="#000000" stroke="none">
<path d="M4880 5015 c-331 -27 -554 -77 -650 -145 -65 -46 -88 -147 -55 -241
21 -60 55 -101 116 -140 41 -26 57 -44 75 -86 13 -30 24 -56 24 -59 0 -2 -24
13 -52 35 -147 111 -293 137 -443 80 -45 -17 -76 -39 -125 -89 -106 -106 -150
-222 -150 -392 0 -118 20 -213 90 -433 77 -238 100 -352 100 -485 0 -78 -5
-129 -17 -168 -14 -46 -18 -96 -18 -257 0 -256 21 -378 111 -658 111 -341 371
-813 573 -1040 60 -67 61 -69 61 -127 0 -74 24 -106 113 -149 229 -112 685
-120 940 -16 119 48 157 91 157 182 0 44 5 53 58 114 118 134 327 470 430 689
98 211 176 437 213 615 49 238 54 501 13 658 -12 47 -15 91 -11 182 5 135 22
213 97 455 77 247 92 320 92 435 0 119 -20 206 -67 290 -99 178 -275 258 -460
209 -62 -16 -156 -65 -213 -111 l-34 -27 15 34 c33 79 42 91 83 115 54 32 108
94 122 144 19 62 15 151 -8 189 -61 99 -289 164 -695 198 -199 16 -275 16
-485 -1z m523 -36 c318 -27 539 -84 607 -154 60 -62 50 -178 -23 -262 -103
-117 -441 -193 -862 -193 -409 0 -731 68 -859 181 -66 57 -93 196 -51 256 25
34 128 87 210 108 240 61 682 90 978 64z m-1264 -538 c81 -21 156 -64 227
-130 40 -38 49 -53 60 -105 17 -80 29 -256 18 -255 -5 0 -24 31 -42 69 -36 76
-114 169 -174 206 -59 37 -141 56 -195 44 -95 -22 -132 -52 -184 -150 -21 -40
-24 -57 -23 -160 1 -131 15 -196 90 -405 26 -71 54 -159 64 -194 l17 -64 -51
-76 c-29 -42 -61 -95 -72 -118 -10 -23 -22 -43 -26 -43 -5 0 -8 30 -8 68 0 81
-34 234 -89 402 -80 247 -95 314 -95 445 -1 165 32 261 122 357 56 60 117 97
186 114 71 17 92 17 175 -5z m2206 -20 c164 -76 254 -256 241 -481 -6 -116
-14 -153 -86 -380 -65 -203 -91 -316 -99 -420 l-6 -85 -27 50 c-14 28 -47 81
-72 119 -25 38 -46 76 -46 84 0 9 31 109 69 222 89 264 105 335 99 453 -7 148
-49 222 -152 268 -148 65 -317 -24 -421 -222 l-44 -84 -1 85 c0 47 6 119 14
160 14 72 17 77 72 129 62 57 170 115 245 131 66 13 147 3 214 -29z m-1840
-16 c340 -98 912 -96 1253 5 79 23 92 25 87 11 -62 -158 -89 -314 -81 -466 14
-255 68 -356 285 -530 180 -144 262 -254 338 -455 99 -259 53 -702 -117 -1130
-131 -330 -372 -734 -542 -912 -121 -126 -416 -194 -723 -168 -148 12 -226 29
-335 70 -77 29 -93 40 -166 114 -158 159 -424 609 -540 913 -125 329 -182 665
-155 908 19 161 63 280 156 420 64 96 107 141 236 245 174 142 233 229 263
389 36 188 10 414 -69 605 -7 16 -5 18 11 12 10 -4 55 -18 99 -31z m-328 -190
c74 -37 156 -129 200 -222 20 -43 43 -86 51 -95 12 -15 13 -27 2 -80 -27 -138
-103 -248 -245 -356 -33 -25 -82 -66 -108 -91 -39 -38 -49 -43 -57 -31 -5 8
-10 22 -10 30 0 9 -29 101 -65 206 -102 301 -115 448 -50 560 57 97 178 131
282 79z m2079 6 c48 -22 100 -82 114 -131 36 -124 19 -245 -76 -527 -35 -105
-64 -201 -64 -212 0 -25 -13 -27 -31 -5 -7 9 -61 54 -120 100 -176 138 -233
217 -264 365 -13 62 -13 74 -1 88 7 9 32 52 54 96 98 197 253 287 388 226z
m-1481 -3459 c288 -73 677 -44 874 64 24 13 46 24 48 24 13 0 -12 -88 -31
-109 -81 -91 -413 -157 -661 -132 -164 16 -260 38 -342 77 -84 40 -113 72
-113 125 l0 38 73 -34 c39 -18 108 -42 152 -53z"/>
<path d="M4885 4923 c-292 -23 -470 -59 -510 -103 -61 -67 67 -123 365 -162
160 -20 664 -17 805 5 251 39 328 68 333 123 3 35 -25 61 -75 69 -16 2 -64 13
-108 24 -44 12 -120 23 -170 25 -83 5 -86 5 -30 -4 187 -30 319 -64 353 -92
15 -13 1 -33 -40 -54 -26 -13 -35 -13 -76 -1 -87 28 -136 36 -317 53 -287 26
-658 7 -872 -47 -75 -18 -84 -19 -112 -5 -61 32 -50 55 42 85 112 36 224 52
582 80 l100 8 -115 0 c-63 0 -133 -2 -155 -4z m560 -134 c90 -9 230 -32 279
-46 31 -9 1 -19 -109 -37 -287 -46 -714 -49 -952 -6 -157 29 -169 32 -145 41
36 14 188 36 322 48 69 7 143 13 165 15 58 6 324 -3 440 -15z"/>
<path d="M6004 4735 c-23 -35 -139 -89 -254 -119 -52 -13 -88 -25 -80 -25 28
-2 213 50 254 71 45 22 83 54 97 81 15 26 2 20 -17 -8z"/>
<path d="M4229 4733 c6 -11 26 -30 44 -42 51 -31 203 -79 307 -96 156 -25 156
-15 0 15 -178 34 -307 82 -348 130 -11 13 -11 12 -3 -7z"/>
<path d="M3903 4364 c-74 -36 -143 -115 -170 -195 -26 -79 -34 -110 -23 -104
4 2 10 22 14 43 17 112 125 232 239 268 31 9 36 13 17 13 -14 0 -48 -11 -77
-25z"/>
<path d="M6275 4387 c101 -34 161 -82 209 -167 31 -53 35 -46 6 10 -45 88
-128 151 -216 164 l-39 6 40 -13z"/>
<path d="M6437 3785 c-10 -47 -40 -155 -68 -241 -28 -86 -49 -158 -47 -160 3
-2 28 65 56 149 49 144 88 304 80 327 -2 6 -11 -28 -21 -75z"/>
<path d="M5713 4223 c-25 -111 -25 -380 1 -473 22 -75 67 -174 96 -210 11 -14
2 9 -20 51 -57 109 -83 235 -82 409 0 80 7 167 16 214 21 104 13 110 -11 9z"/>
<path d="M4523 4250 c47 -205 27 -458 -48 -612 -14 -29 -18 -44 -9 -33 56 68
94 220 94 379 0 109 -21 271 -37 285 -3 3 -3 -5 0 -19z"/>
<path d="M5623 4110 c0 -25 2 -35 4 -22 2 12 2 32 0 45 -2 12 -4 2 -4 -23z"/>
<path d="M5615 3960 c5 -98 32 -266 43 -256 2 3 -1 28 -8 56 -7 28 -18 109
-26 178 l-13 127 4 -105z"/>
<path d="M4631 4034 c0 -11 3 -14 6 -6 3 7 2 16 -1 19 -3 4 -6 -2 -5 -13z"/>
<path d="M4636 3944 c-3 -26 -6 -64 -6 -85 0 -106 -71 -311 -143 -413 -12 -16
-15 -26 -8 -22 21 13 76 107 104 176 36 90 57 189 64 297 6 98 0 125 -11 47z"/>
<path d="M4214 3342 c-55 -43 -115 -97 -135 -119 -41 -46 -124 -181 -116 -189
3 -3 15 15 27 40 47 92 114 163 310 325 14 11 22 20 19 21 -4 0 -51 -35 -105
-78z"/>
<path d="M6118 3225 c82 -104 121 -174 169 -305 14 -40 21 -51 17 -30 -17 105
-91 245 -171 328 l-55 57 40 -50z"/>
<path d="M3892 2610 c-4 -272 105 -655 292 -1029 74 -146 181 -331 193 -331 3
0 -3 12 -13 28 -65 99 -196 358 -258 510 -130 316 -191 557 -206 802 l-7 115
-1 -95z"/>
<path d="M6332 2640 c0 -14 2 -19 5 -12 2 6 2 18 0 25 -3 6 -5 1 -5 -13z"/>
<path d="M6337 2596 c-4 -10 -7 -39 -7 -64 0 -68 -26 -220 -61 -351 -16 -63
-28 -115 -26 -117 5 -5 51 151 71 236 17 76 40 282 34 301 -3 9 -6 8 -11 -5z"/>
<path d="M6021 1542 c-90 -182 -171 -312 -303 -487 -13 -16 -18 -26 -11 -22
18 11 156 197 206 277 50 82 172 328 165 335 -2 2 -28 -44 -57 -103z"/>
</g>
</svg>
