<?xml version="1.0" standalone="no"?>
<!DOCTYPE svg PUBLIC "-//W3C//DTD SVG 20010904//EN"
 "http://www.w3.org/TR/2001/REC-SVG-20010904/DTD/svg10.dtd">
<svg version="1.0" xmlns="http://www.w3.org/2000/svg"
 width="1024.000000pt" height="559.000000pt" viewBox="0 0 1024.000000 559.000000"
 preserveAspectRatio="xMidYMid meet">
<metadata>
Created by potrace 1.16, written by Peter Selinger 2001-2019
</metadata>
<g transform="translate(0.000000,559.000000) scale(0.100000,-0.100000)"
fill="#000000" stroke="none">
<path d="M5203 4510 c-78 -10 -130 -31 -140 -57 -4 -9 -23 -31 -43 -49 -51
-46 -70 -124 -47 -186 9 -24 21 -94 26 -157 9 -107 12 -119 58 -210 44 -87 53
-99 98 -123 37 -21 44 -28 28 -28 -31 0 -142 -54 -174 -84 -15 -14 -48 -60
-75 -103 -26 -43 -49 -80 -50 -81 -1 -2 -15 6 -31 18 -51 37 -85 -4 -47 -58
15 -22 15 -22 -28 -22 -24 0 -53 3 -65 6 -21 6 -20 7 12 35 38 34 48 72 30
115 -26 62 -118 67 -164 8 -22 -28 -33 -30 -66 -8 -39 26 -134 22 -181 -6 -42
-25 -111 -31 -191 -15 -59 11 -110 -1 -118 -27 -10 -29 24 -70 74 -89 23 -8
39 -18 36 -21 -4 -3 -3 -27 1 -53 7 -48 34 -84 100 -131 41 -29 120 -54 171
-54 36 0 57 -9 118 -50 102 -69 211 -122 261 -128 38 -4 46 -1 85 35 l42 40
38 -16 c30 -13 39 -22 43 -51 9 -49 9 -60 1 -102 -6 -29 -3 -43 15 -68 27 -38
28 -77 7 -195 -16 -89 -43 -476 -49 -693 l-3 -113 70 -29 c38 -17 75 -30 82
-30 13 0 17 -21 39 -239 12 -123 13 -156 2 -162 -6 -4 -51 -22 -99 -39 -126
-45 -164 -97 -81 -113 28 -6 162 16 222 36 58 19 63 26 56 80 -4 27 -4 134 0
238 l7 189 27 0 c14 0 51 -7 81 -16 30 -10 88 -17 130 -17 l76 0 18 -106 c9
-58 24 -146 32 -195 l14 -89 -31 -41 c-43 -57 -90 -128 -90 -137 0 -18 34 -39
61 -39 49 0 96 26 125 69 23 36 26 47 20 93 -4 29 -8 149 -9 265 -2 222 -2
223 41 223 23 0 99 39 105 53 2 7 1 37 -4 67 -11 76 -59 482 -59 500 0 8 20
26 44 38 61 33 74 66 53 135 -9 29 -19 68 -22 87 -7 47 -39 98 -69 110 -31 11
-57 83 -38 102 15 15 15 80 2 129 -13 48 12 247 40 319 37 94 50 183 35 245
-7 30 -20 65 -29 79 -9 14 -16 32 -16 39 0 23 -35 48 -122 85 -57 25 -99 36
-133 36 l-50 1 -9 57 c-9 55 -8 58 22 93 18 20 32 43 32 51 0 9 11 34 24 57
19 33 26 63 31 138 10 142 4 168 -67 250 -37 43 -70 71 -86 75 -15 3 -39 12
-54 20 -36 20 -107 25 -195 14z m192 -46 c11 -8 28 -14 39 -14 10 0 43 -26 73
-57 60 -65 90 -140 78 -199 -5 -31 -8 -33 -26 -23 -26 13 -65 -10 -82 -49 -11
-26 -12 -24 -15 26 -2 28 -7 52 -12 52 -5 0 -10 17 -12 38 -3 32 -6 37 -25 35
-20 -2 -23 2 -23 32 0 38 -13 44 -44 20 -25 -19 -46 -19 -46 0 0 19 -19 19
-45 1 -11 -7 -30 -16 -42 -20 -19 -6 -22 -4 -16 10 6 16 2 16 -31 -4 -46 -27
-49 -27 -41 -2 8 27 -14 26 -49 -1 l-26 -20 0 20 c0 34 -16 24 -38 -21 -23
-48 -29 -29 -11 34 10 38 59 93 92 104 9 3 17 11 17 19 0 19 25 26 115 35 91
8 141 3 170 -16z m-4 -221 c12 -3 19 -14 19 -28 0 -12 7 -28 14 -35 8 -6 16
-33 18 -58 4 -61 30 -70 52 -18 8 20 22 39 31 42 23 9 45 -15 45 -50 0 -34
-33 -95 -52 -98 -7 0 -19 -2 -27 -2 -16 -1 -24 -45 -25 -147 -1 -81 12 -121
45 -135 18 -8 18 -11 4 -31 -40 -57 -225 -84 -293 -43 -18 11 -30 25 -27 30 9
14 32 13 37 -2 6 -17 28 0 28 22 0 13 15 25 45 39 61 27 145 114 145 149 -1
26 -1 26 -16 7 -75 -101 -158 -151 -231 -140 -56 8 -73 25 -124 127 -34 67
-43 97 -49 163 -4 44 -5 83 -3 88 2 4 24 7 49 7 24 0 44 4 44 10 0 13 -44 23
-75 18 -23 -5 -25 -3 -25 38 0 55 8 74 30 74 11 0 22 5 26 12 5 8 11 6 20 -6
9 -13 19 -16 36 -10 13 4 33 7 45 5 12 -1 35 5 52 14 25 12 34 13 50 3 16 -10
26 -9 53 4 l33 15 3 -29 c2 -20 10 -32 23 -35z m129 -287 c0 -8 -4 -18 -10
-21 -5 -3 -10 3 -10 14 0 12 5 21 10 21 6 0 10 -6 10 -14z m104 -246 c46 -19
53 -28 37 -45 -11 -12 -42 -85 -36 -85 3 0 16 23 30 50 14 28 30 50 35 50 6 0
27 -7 48 -16 24 -11 32 -18 22 -21 -40 -14 -95 -63 -141 -125 -27 -38 -54 -66
-58 -63 -5 2 -12 -6 -15 -20 -4 -14 -32 -55 -62 -91 -31 -36 -60 -80 -65 -97
-13 -50 -36 -58 -98 -38 l-52 17 34 44 c101 133 257 404 257 445 0 20 9 19 64
-5z m-444 -75 c51 -55 156 -67 261 -30 23 9 44 14 46 11 2 -2 -9 -17 -25 -33
-18 -20 -49 -37 -87 -48 -89 -26 -93 -28 -64 -32 14 -2 47 5 73 17 27 11 50
19 52 17 11 -10 -191 -303 -207 -301 -5 1 -14 2 -19 3 -6 0 -15 11 -20 24 l-9
22 0 -23 c-1 -21 -3 -21 -33 -9 -31 12 -34 18 -45 83 l-12 69 5 -67 c2 -38 2
-68 0 -68 -3 0 -16 4 -30 10 -24 9 -26 14 -26 72 0 66 -11 100 -25 78 -4 -7
-4 -38 -1 -71 4 -32 5 -59 2 -59 -3 0 -18 19 -32 43 -15 23 -37 51 -49 62
l-23 20 56 85 c49 73 66 90 117 117 33 18 63 33 66 33 3 0 16 -11 29 -25z
m637 -84 c42 -99 -9 -283 -130 -468 -23 -35 -44 -63 -47 -63 -3 0 -16 26 -29
57 -29 67 -93 150 -127 165 -13 6 -24 15 -24 19 0 4 26 38 58 76 32 37 84 105
116 150 32 45 75 93 94 107 34 24 37 25 55 8 11 -9 26 -32 34 -51z m-1095 -18
c20 -18 23 -54 7 -85 -11 -20 -117 -73 -127 -63 -3 3 -17 -5 -31 -18 -55 -51
-151 -61 -254 -26 -34 11 -68 26 -75 31 -7 6 -20 11 -30 12 -29 3 -96 26 -122
42 -25 15 -24 15 15 8 22 -3 65 -10 95 -14 30 -5 89 -16 130 -25 84 -19 173
-14 228 12 44 21 35 27 -11 8 -46 -19 -171 -20 -246 -1 -31 8 -81 17 -111 21
-75 9 -130 24 -130 35 0 17 49 23 95 11 73 -18 137 -14 189 14 63 33 146 35
178 3 21 -21 21 -21 2 -35 -20 -15 -140 -14 -179 1 -19 7 -19 7 -1 -8 45 -37
193 -26 204 16 2 10 9 15 14 12 5 -3 24 10 43 30 37 41 85 49 117 19z m159
-130 c36 -22 63 -46 77 -72 13 -22 37 -49 55 -59 35 -22 149 -57 294 -92 l92
-22 29 33 c36 40 50 36 96 -28 l35 -48 -22 -23 c-42 -45 -108 -82 -136 -76
-56 12 -122 39 -271 110 l-155 74 -80 -9 c-44 -5 -96 -6 -115 -1 l-35 8 33 1
c43 1 33 17 -16 24 -20 4 -46 14 -57 23 -18 14 -18 15 -2 10 10 -3 37 -9 60
-12 57 -9 37 10 -28 25 -49 12 -101 38 -92 47 2 2 20 -3 40 -11 38 -16 134
-21 107 -6 -8 5 -35 11 -59 15 -55 8 -115 38 -87 44 10 2 38 -1 61 -7 56 -14
152 -14 161 0 3 6 -8 25 -25 43 -29 30 -41 52 -23 44 4 -2 32 -18 63 -35z
m-691 -98 c0 -29 -3 -36 -10 -25 -5 8 -10 33 -10 55 0 29 3 36 10 25 5 -8 10
-33 10 -55z m40 16 c0 -21 3 -54 6 -72 5 -32 5 -33 -10 -15 -18 22 -23 126 -6
126 6 0 10 -17 10 -39z m380 13 c0 -21 106 -143 137 -157 32 -14 29 -29 -4
-21 -45 10 -178 55 -193 64 -12 7 -12 12 -2 22 17 17 15 39 -4 53 -15 10 -13
14 17 32 42 26 49 27 49 7z m-327 -66 c3 -29 8 -62 12 -73 6 -18 5 -18 -14 3
-31 35 -41 146 -12 127 5 -2 11 -28 14 -57z m232 14 c20 -12 20 -12 1 -27 -28
-21 -154 -21 -162 0 -13 33 2 41 73 40 37 0 77 -6 88 -13z m-186 -35 l18 -43
73 4 c54 3 75 1 82 -9 7 -11 11 -11 15 -2 3 10 10 9 26 -2 25 -16 183 -69 237
-80 27 -6 32 -4 23 5 -6 7 -9 19 -6 26 10 26 48 14 87 -25 l38 -39 -21 -31
c-30 -42 -70 -71 -97 -71 -37 0 -127 44 -235 115 -97 63 -101 65 -165 65 l-65
0 -19 43 c-19 40 -26 87 -15 87 3 0 14 -19 24 -43z m699 -135 c2 -18 -4 -34
-17 -46 -20 -18 -21 -18 -45 10 -13 16 -34 40 -45 53 -24 27 -19 37 19 43 38
6 84 -25 88 -60z m722 -51 c-6 -45 -6 -88 0 -114 17 -74 13 -101 -24 -143 -33
-38 -36 -39 -98 -39 -41 0 -71 -5 -82 -14 -27 -23 -28 -7 -1 51 14 30 27 77
30 104 l5 49 -15 -54 c-36 -126 -65 -158 -148 -163 -31 -1 -57 -2 -57 0 0 1
15 15 33 31 17 16 42 48 55 72 14 26 16 34 5 19 -42 -57 -78 -92 -111 -105
-80 -34 -239 -7 -292 50 -22 23 -23 29 -13 67 8 31 8 50 -1 77 -16 44 -11 61
17 61 12 0 40 15 62 34 39 33 40 33 72 18 18 -9 33 -19 33 -22 0 -4 -36 -42
-80 -85 -44 -43 -79 -79 -77 -81 12 -12 149 119 172 163 2 3 127 -47 133 -52
8 -7 -104 -159 -140 -190 -23 -19 -36 -35 -30 -35 22 0 92 73 143 149 44 65
56 76 82 79 17 1 48 13 68 27 33 21 39 22 50 9 7 -9 31 -25 53 -36 l40 -21 37
43 c20 23 47 62 59 87 12 24 24 43 25 41 2 -2 0 -36 -5 -77z m-655 47 c30 -13
31 -20 8 -40 -36 -30 -41 -29 -45 12 -4 44 -1 46 37 28z m500 -66 c6 -21 5
-23 -13 -13 -29 15 -37 32 -21 42 16 10 24 3 34 -29z m170 -312 c5 -17 4 -22
-3 -15 -5 6 -13 21 -17 35 -5 17 -4 22 3 15 5 -5 13 -21 17 -35z m-402 -15
c114 0 207 -3 207 -7 0 -14 -78 -23 -205 -23 -141 0 -243 17 -278 46 -21 17
-20 17 23 1 37 -14 83 -17 253 -17z m247 10 c7 -14 11 -28 7 -31 -3 -3 -13 8
-22 25 -8 17 -12 31 -7 31 5 0 15 -11 22 -25z m110 20 c0 -12 -64 -36 -78 -29
-13 5 -7 10 23 20 46 14 55 16 55 9z m10 -35 c0 -5 -5 -10 -11 -10 -5 0 -7 5
-4 10 3 6 8 10 11 10 2 0 4 -4 4 -10z m-607 -29 c4 -4 3 -32 -2 -62 -11 -67
-22 -193 -16 -187 3 3 34 213 35 236 0 2 17 2 38 0 30 -2 37 -7 35 -23 -14
-140 -23 -298 -22 -379 2 -99 2 -98 10 44 7 136 26 341 32 346 1 1 30 0 65 -3
l62 -6 2 -86 2 -86 3 86 4 86 67 7 c37 4 77 9 90 13 22 5 22 4 22 -97 0 -96
-1 -103 -24 -121 -36 -28 -46 -68 -30 -115 8 -21 14 -49 14 -61 0 -12 5 -25
11 -29 8 -5 9 -30 5 -79 -7 -79 -4 -84 46 -77 24 4 28 8 27 36 -1 17 -6 41
-12 54 -13 27 0 55 27 60 12 3 24 -12 41 -51 34 -74 48 -84 74 -56 12 13 21
29 21 36 0 17 -31 53 -47 53 -13 0 -18 16 -28 93 l-6 47 53 0 54 0 18 -152
c23 -202 45 -369 52 -390 8 -28 -33 -46 -169 -73 -143 -28 -224 -31 -282 -10
-23 8 -78 14 -131 15 -85 0 -121 7 -219 43 -47 18 -45 -12 -27 347 14 259 24
382 44 493 10 61 13 67 32 61 12 -3 24 -9 29 -13z m720 -26 c20 -42 22 -76 5
-93 -10 -10 -16 -8 -28 8 -19 25 -50 18 -50 -11 0 -13 -7 -19 -23 -19 -28 0
-47 19 -76 77 -11 23 -29 44 -38 46 -10 3 7 6 37 7 30 1 66 6 80 10 55 18 75
12 93 -25z m-254 -102 c1 -43 -3 -73 -9 -73 -6 0 -10 39 -9 98 1 112 16 91 18
-25z m72 32 c19 -44 58 -75 94 -75 9 0 25 -10 34 -22 21 -25 41 -17 41 17 0
14 8 29 20 35 17 9 20 6 31 -28 9 -30 8 -44 -1 -61 -29 -54 -165 -79 -226 -42
-36 22 -44 50 -44 152 0 84 20 94 51 24z m144 -43 c-8 -8 -25 10 -19 20 4 6 9
5 15 -3 4 -7 6 -15 4 -17z m10 -32 c3 -5 1 -10 -4 -10 -6 0 -11 5 -11 10 0 6
2 10 4 10 3 0 8 -4 11 -10z m-225 -60 c0 -5 -4 -10 -10 -10 -5 0 -10 5 -10 10
0 6 5 10 10 10 6 0 10 -4 10 -10z m-60 -38 c-25 -33 -19 -78 11 -87 10 -4 19
-11 19 -16 0 -6 -6 -7 -12 -3 -53 30 -62 73 -27 118 28 36 37 26 9 -12z m89
-16 c28 -30 13 -49 -41 -50 -38 -1 -43 2 -46 22 -7 49 50 68 87 28z m32 -49
c-10 -9 -11 -8 -5 6 3 10 9 15 12 12 3 -3 0 -11 -7 -18z m-48 -47 c-4 -16 0
-20 20 -20 16 0 27 7 31 18 2 9 4 4 4 -13 -1 -32 20 -85 34 -85 4 0 8 -6 8
-14 0 -8 6 -16 14 -18 12 -3 12 -5 0 -16 -11 -10 -19 -2 -44 48 -20 40 -36 60
-48 60 -10 0 -23 5 -29 11 -11 11 -6 49 7 49 5 0 6 -9 3 -20z m-63 -25 c0 -9
9 -15 25 -15 28 0 34 -15 10 -24 -18 -6 -19 -102 -2 -123 7 -10 4 -13 -12 -13
-20 0 -20 3 -14 75 4 49 2 75 -4 75 -6 0 -13 9 -16 20 -3 11 -1 20 4 20 5 0 9
-7 9 -15z m-294 -599 c-4 -25 -9 -129 -11 -233 l-3 -188 -59 -18 c-73 -22
-189 -35 -179 -19 3 6 43 25 89 42 116 45 127 53 127 98 0 21 -9 109 -20 197
-11 88 -20 161 -20 162 0 2 19 3 41 3 l41 0 -6 -44z m447 -18 c2 -29 4 -124 2
-212 -1 -87 3 -175 8 -195 13 -47 -5 -86 -52 -118 -33 -22 -81 -31 -81 -15 0
8 26 48 84 131 l29 42 -17 107 c-21 134 -44 259 -51 282 -6 19 8 26 51 29 19
1 22 -6 27 -51z"/>
<path d="M5242 4180 c-40 -9 -49 -17 -35 -31 8 -8 17 -7 33 1 13 7 40 10 61 7
36 -5 60 5 42 16 -19 11 -71 15 -101 7z"/>
<path d="M5516 4108 c-19 -27 -22 -63 -4 -52 8 5 9 2 5 -9 -3 -10 -2 -17 3
-17 16 0 23 42 9 51 -11 8 -11 12 4 23 19 15 22 26 8 26 -6 0 -17 -10 -25 -22z"/>
<path d="M5121 4060 c-23 -108 -8 -140 56 -124 57 14 55 35 -2 27 l-46 -6 7
77 c4 42 4 76 1 76 -3 0 -10 -23 -16 -50z"/>
<path d="M5064 4086 c-7 -20 2 -46 16 -46 13 0 13 47 0 55 -6 3 -13 -1 -16 -9z"/>
<path d="M5240 4081 c0 -24 18 -37 31 -24 13 13 1 43 -17 43 -8 0 -14 -9 -14
-19z"/>
<path d="M5183 3873 c-83 -6 -64 -24 22 -21 41 2 75 6 75 9 0 8 -28 20 -38 17
-4 -1 -31 -3 -59 -5z"/>
<path d="M5183 3813 c9 -2 25 -2 35 0 9 3 1 5 -18 5 -19 0 -27 -2 -17 -5z"/>
<path d="M5556 3615 c-35 -91 -99 -223 -156 -317 -40 -69 -13 -39 38 40 64
100 103 179 136 275 40 116 26 117 -18 2z"/>
<path d="M5591 3576 c-11 -30 -23 -68 -26 -83 -3 -15 8 8 25 51 16 44 28 81
26 83 -2 3 -13 -20 -25 -51z"/>
<path d="M5140 3609 c0 -31 62 -139 98 -169 51 -42 54 -28 5 23 -23 23 -55 69
-72 102 -16 33 -30 53 -31 44z"/>
<path d="M4637 3518 c-18 -15 -37 -59 -37 -90 0 -18 4 -20 36 -15 64 11 106
71 72 105 -16 16 -50 15 -71 0z m58 -32 c0 -22 -48 -61 -64 -52 -12 8 3 56 22
68 20 13 42 4 42 -16z"/>
<path d="M4370 3500 c-40 -25 69 -52 125 -30 29 11 29 12 11 26 -22 16 -113
19 -136 4z m120 -10 c0 -5 -20 -10 -45 -10 -25 0 -45 5 -45 10 0 6 20 10 45
10 25 0 45 -4 45 -10z"/>
<path d="M4080 3471 c0 -10 51 -22 63 -14 4 2 5 9 2 14 -8 12 -65 12 -65 0z"/>
<path d="M4398 3257 c25 -6 50 -6 62 -1 15 7 3 9 -42 10 l-63 1 43 -10z"/>
<path d="M5686 2925 c-3 -9 -6 -24 -6 -33 0 -9 -7 -30 -16 -47 -14 -28 -14
-29 1 -14 9 9 21 35 26 59 10 43 7 65 -5 35z"/>
<path d="M5364 2080 c0 -63 1 -89 3 -57 2 31 2 83 0 115 -2 31 -3 5 -3 -58z"/>
<path d="M5641 2560 c-1 -42 14 -109 27 -122 6 -6 7 4 1 29 -5 21 -13 58 -18
83 -8 43 -9 44 -10 10z"/>
<path d="M4518 1513 c-21 -5 -31 -32 -18 -48 8 -10 4 -14 -15 -19 -37 -9 -58
-63 -46 -116 8 -36 7 -40 -11 -40 -36 0 -56 17 -51 44 3 14 3 33 -1 41 -8 21
-43 3 -58 -30 -9 -20 -14 -22 -30 -14 -27 14 -36 2 -12 -16 19 -14 19 -14 -4
-37 l-22 -22 -16 22 c-18 26 -71 31 -80 7 -11 -28 -23 -15 -26 27 -2 31 -8 44
-20 46 -13 3 -18 -3 -18 -21 0 -22 -4 -24 -40 -23 -29 0 -46 -5 -62 -22 -20
-19 -21 -24 -8 -32 20 -13 77 -13 101 0 10 6 19 7 19 3 -1 -14 -25 -38 -55
-53 -16 -9 -36 -27 -43 -40 -28 -54 12 -185 75 -246 16 -14 52 -37 82 -51 46
-22 72 -26 185 -31 204 -7 311 18 370 89 52 62 70 109 71 185 0 68 -2 73 -32
102 -37 34 -38 37 -18 72 17 29 19 93 5 121 -6 10 -20 19 -30 19 -22 0 -26 10
-9 27 7 7 9 18 6 26 -10 26 -131 45 -189 30z m156 -34 c5 -4 -1 -20 -14 -36
l-22 -28 33 -3 c63 -7 75 -41 39 -112 -16 -31 -18 -45 -10 -65 12 -32 -2 -93
-28 -123 -9 -11 -38 -25 -64 -30 l-48 -10 0 35 c0 61 -32 103 -78 103 -15 0
-17 14 -19 95 -2 86 0 96 19 109 15 11 26 12 40 5 15 -8 18 -6 18 15 0 14 -4
28 -10 31 -15 10 -12 23 8 28 24 6 125 -4 136 -14z m-328 -167 c-15 -15 -16
-15 -16 4 0 28 24 52 28 28 2 -9 -3 -24 -12 -32z m-239 6 c-3 -8 -6 -5 -6 6
-1 11 2 17 5 13 3 -3 4 -12 1 -19z m-42 -24 c24 -9 -1 -24 -40 -24 -29 1 -29
1 -11 15 22 17 27 18 51 9z m148 -20 c9 -10 -4 -34 -18 -34 -17 0 -28 17 -20
30 7 11 28 13 38 4z m186 -20 c29 -37 26 -44 -14 -44 -24 0 -41 -8 -58 -26
l-24 -26 -12 30 c-20 47 -11 76 24 83 53 12 63 9 84 -17z m-251 -31 c5 -17
-26 -29 -40 -15 -6 6 -7 15 -3 22 9 14 37 9 43 -7z m102 -13 c-9 -6 -19 -5
-25 1 -6 6 -5 13 5 19 9 6 19 5 25 -1 6 -6 5 -13 -5 -19z m-46 -7 c7 -17 -12
-36 -26 -27 -4 3 -8 14 -8 25 0 23 25 25 34 2z m-119 -29 c0 -10 -8 -20 -17
-22 -18 -3 -26 27 -11 42 12 11 28 0 28 -20z m181 -11 c-10 -10 -19 5 -10 18
6 11 8 11 12 0 2 -7 1 -15 -2 -18z m160 15 c5 -8 2 -9 -9 -5 -10 3 -17 2 -17
-2 0 -5 7 -12 16 -15 24 -9 54 -7 54 4 0 6 -5 10 -11 10 -5 0 -7 5 -4 10 10
16 33 12 55 -10 21 -21 28 -84 11 -94 -5 -4 -44 -9 -87 -13 -68 -5 -79 -4 -90
12 -33 45 -4 115 46 115 16 0 32 -5 36 -12z m334 -23 c0 -7 -12 -21 -27 -30
-24 -16 -26 -16 -20 0 4 9 10 28 13 41 5 20 9 22 20 13 8 -6 14 -17 14 -24z
m-607 11 c8 -20 -20 -43 -35 -28 -14 14 -3 42 16 42 7 0 16 -6 19 -14z m85
-29 c2 -10 -3 -17 -12 -17 -18 0 -29 16 -21 31 9 14 29 6 33 -14z m-194 -3 c5
-14 4 -15 -9 -4 -17 14 -19 20 -6 20 5 0 12 -7 15 -16z m254 -11 c-2 -10 -8
-18 -13 -18 -5 0 -11 8 -13 18 -2 10 3 17 13 17 10 0 15 -7 13 -17z m-184 -8
c11 -8 18 -17 15 -19 -7 -7 -49 13 -49 24 0 14 11 12 34 -5z m86 -21 c0 -16
-26 -19 -35 -4 -3 6 -4 14 0 20 8 13 35 1 35 -16z m-137 -9 c79 -33 190 -49
345 -49 138 -1 152 -2 152 -18 0 -17 -12 -22 -70 -31 -14 -3 -7 -5 18 -6 27
-1 42 -6 42 -14 0 -17 -21 -43 -40 -51 -18 -7 55 1 88 10 22 6 23 5 11 -15
-19 -30 -61 -36 -237 -36 -133 0 -155 2 -166 17 -8 10 -20 15 -33 12 -13 -4
-30 4 -49 20 -29 25 -29 25 -4 19 14 -3 34 -13 44 -22 11 -9 16 -10 12 -3 -9
15 17 15 64 -1 19 -7 51 -10 70 -7 l35 6 -42 7 c-26 4 -46 14 -53 26 -14 28
-14 29 23 34 l32 4 -36 1 c-26 2 -39 8 -47 25 -9 19 -11 19 -11 3 -1 -16 -6
-17 -38 -11 -21 3 -46 16 -56 28 -16 19 -18 19 -13 3 5 -14 2 -17 -10 -12 -8
3 -20 6 -25 6 -14 0 -49 39 -49 55 0 18 0 18 43 0z m192 4 c10 -15 -1 -23 -20
-15 -9 3 -13 10 -10 16 8 13 22 13 30 -1z m505 -1 c0 -19 -12 -33 -37 -47 -30
-16 -43 -14 -44 7 0 13 -2 12 -9 -5 -6 -13 -23 -26 -47 -32 -52 -15 -55 -14
-51 11 2 17 14 24 61 35 32 7 70 19 85 27 34 19 42 19 42 4z m-450 -8 c0 -5
-5 -10 -11 -10 -5 0 -7 5 -4 10 3 6 8 10 11 10 2 0 4 -4 4 -10z m420 -70 c-12
-23 -58 -55 -66 -47 -10 9 17 48 39 57 34 13 39 12 27 -10z m-612 -17 c6 -9
12 -23 12 -30 0 -11 -5 -11 -22 -2 -31 16 -58 40 -58 52 0 14 53 -2 68 -20z
m109 -29 c20 -28 16 -34 -19 -27 -36 6 -68 29 -68 48 0 19 71 1 87 -21z m418
7 c-4 -13 -20 -24 -43 -31 -51 -14 -52 -14 -41 19 9 25 17 30 47 33 46 4 45 4
37 -21z m40 -31 c-3 -6 -21 -17 -38 -26 l-32 -15 28 25 c28 26 54 35 42 16z"/>
<path d="M4550 1470 c8 -5 38 -9 65 -9 44 1 46 2 20 9 -46 12 -103 12 -85 0z"/>
<path d="M4482 1398 c-14 -14 -16 -67 -3 -87 12 -19 46 -5 59 25 17 36 15 52
-7 64 -25 13 -34 13 -49 -2z m43 -18 c7 -12 -12 -50 -25 -50 -11 0 -14 43 -3
53 9 10 21 9 28 -3z"/>
<path d="M4651 1391 c-20 -13 -18 -68 3 -89 21 -21 47 -7 61 32 16 46 -25 82
-64 57z m43 -20 c4 -5 1 -22 -5 -38 -11 -28 -11 -28 -21 -6 -16 34 8 74 26 44z"/>
<path d="M4507 1239 c7 -7 46 -13 90 -15 l78 -3 -73 9 c-40 4 -80 11 -90 15
-13 5 -14 4 -5 -6z"/>
<path d="M4828 944 c-56 -30 -20 -86 55 -88 50 -1 77 16 77 50 0 47 -75 69
-132 38z m101 -18 c10 -11 8 -16 -9 -21 -26 -8 -90 2 -90 15 0 22 82 27 99 6z
m-19 -50 c-12 -5 -33 -5 -52 1 -31 9 -30 9 20 9 39 -1 47 -3 32 -10z"/>
<path d="M4698 845 c-35 -19 -38 -59 -7 -76 29 -15 128 -7 140 12 35 55 -64
103 -133 64z m96 -11 c33 -13 14 -24 -39 -24 -76 0 -71 22 7 29 9 0 23 -2 32
-5z m16 -46 c0 -5 -27 -8 -60 -8 -33 0 -60 3 -60 8 0 4 27 7 60 7 33 0 60 -3
60 -7z"/>
</g>
</svg>
