<?xml version="1.0" standalone="no"?>
<!DOCTYPE svg PUBLIC "-//W3C//DTD SVG 20010904//EN"
 "http://www.w3.org/TR/2001/REC-SVG-20010904/DTD/svg10.dtd">
<svg version="1.0" xmlns="http://www.w3.org/2000/svg"
 width="1024.000000pt" height="559.000000pt" viewBox="0 0 1024.000000 559.000000"
 preserveAspectRatio="xMidYMid meet">
<metadata>
Created by potrace 1.16, written by Peter Selinger 2001-2019
</metadata>
<g transform="translate(0.000000,559.000000) scale(0.100000,-0.100000)"
fill="#000000" stroke="none">
<path d="M5780 4124 c-120 -23 -197 -37 -654 -120 -182 -33 -217 -43 -264 -71
-46 -28 -64 -33 -118 -33 -60 0 -64 1 -64 23 0 29 -18 47 -45 47 -28 0 -45
-19 -45 -51 l0 -26 -127 -6 c-113 -5 -202 -20 -365 -62 -27 -7 -28 -6 -28 33
0 58 -8 72 -41 72 -35 0 -49 -23 -49 -83 l0 -44 -77 -11 c-43 -7 -106 -12
-139 -12 -34 0 -101 -7 -150 -15 -49 -9 -96 -17 -104 -18 -10 -1 -16 8 -18 28
-5 39 -19 55 -47 55 -26 0 -31 -9 -40 -74 -6 -39 -11 -47 -34 -53 -14 -3 -60
-23 -101 -43 -62 -31 -90 -38 -160 -44 -47 -3 -94 -7 -105 -9 -15 -1 -21 5
-23 26 -7 56 -81 54 -83 -3 -1 -16 -2 -35 -3 -40 0 -6 -20 -19 -43 -30 -23
-10 -90 -47 -150 -83 -59 -35 -156 -84 -215 -109 -107 -46 -108 -46 -108 -22
0 27 -30 47 -57 37 -27 -10 -33 -23 -33 -72 0 -39 -6 -50 -54 -102 -30 -32
-68 -82 -84 -111 -17 -30 -52 -75 -78 -101 -42 -43 -49 -47 -81 -41 -25 5 -39
2 -54 -12 -17 -15 -20 -29 -18 -94 1 -53 -3 -85 -15 -107 -27 -54 -42 -164
-28 -221 8 -35 8 -61 1 -86 -7 -25 -7 -54 0 -89 6 -29 10 -70 9 -92 -1 -22 2
-107 5 -190 6 -138 9 -155 36 -210 16 -34 31 -85 34 -116 3 -31 15 -75 26 -97
12 -23 21 -60 21 -82 0 -48 12 -75 40 -90 23 -13 60 2 60 24 0 21 125 -45 174
-92 23 -22 62 -52 89 -67 45 -26 47 -29 47 -71 0 -51 28 -87 63 -82 18 2 23
11 25 46 2 23 7 42 12 42 23 0 64 -23 113 -63 29 -24 81 -60 115 -81 56 -34
62 -40 62 -71 0 -26 6 -39 25 -51 32 -21 65 -10 65 22 0 13 3 24 8 24 16 0
230 -42 290 -57 58 -14 62 -17 62 -43 0 -16 4 -41 10 -55 9 -23 15 -26 47 -23
37 3 38 4 39 43 0 35 3 40 32 47 26 7 32 13 32 37 0 28 -26 61 -48 61 -22 0
-12 29 11 32 20 3 22 8 22 63 0 52 3 61 20 65 13 4 21 16 23 34 3 22 -5 36
-37 65 -35 32 -41 44 -41 77 0 51 -23 84 -59 84 -36 0 -51 -17 -51 -57 0 -31
-1 -32 -27 -22 -16 6 -73 19 -127 30 -60 11 -108 26 -120 37 -12 10 -38 29
-58 41 l-38 23 0 89 c0 83 -1 89 -25 105 -23 15 -27 15 -50 0 -23 -15 -25 -23
-25 -87 l0 -71 -28 7 c-18 4 -70 47 -140 116 l-112 109 0 60 c0 47 -4 64 -20
80 -39 39 -77 23 -82 -37 l-3 -41 -70 42 c-67 41 -72 46 -120 138 -27 52 -62
110 -76 128 l-25 33 32 48 c18 27 34 52 36 57 1 5 30 28 62 51 50 35 61 39 68
26 12 -21 51 -19 71 3 10 10 17 34 17 53 0 26 8 43 30 64 29 28 30 28 44 9 35
-46 59 -111 67 -180 16 -122 64 -225 172 -369 84 -111 246 -270 344 -339 46
-32 91 -71 100 -87 21 -35 48 -44 106 -35 69 9 110 24 169 60 l56 33 49 -49
c140 -143 411 -295 648 -364 40 -12 70 -28 92 -51 18 -18 40 -33 50 -33 31 0
116 45 174 93 49 40 119 127 119 147 0 4 -13 24 -30 45 -20 25 -30 49 -30 71
0 18 -5 56 -11 84 -12 54 -8 69 13 53 12 -10 33 -21 231 -128 48 -26 87 -52
87 -59 0 -14 116 -86 138 -86 29 0 162 62 162 76 0 8 21 24 48 35 177 77 755
319 757 317 1 -2 14 -32 29 -68 70 -167 204 -266 408 -301 97 -16 333 -14 436
5 88 15 189 57 247 102 49 37 123 152 151 236 30 88 32 168 5 193 -17 15 -64
97 -58 100 89 52 353 175 376 175 27 0 86 26 117 51 7 6 15 66 19 154 4 80 9
145 10 145 2 0 38 -18 81 -39 56 -27 88 -51 110 -80 17 -23 67 -71 110 -107
82 -67 92 -81 93 -124 1 -14 10 -43 21 -65 15 -29 20 -59 20 -116 0 -85 10
-103 57 -97 27 3 28 6 31 63 l3 60 22 -45 c12 -25 29 -45 37 -45 19 0 25 55
12 95 -9 24 -8 29 10 33 18 5 19 11 14 54 -4 26 -6 91 -6 143 0 91 -2 97 -35
151 -19 32 -35 70 -35 85 0 35 13 22 30 -29 9 -30 16 -38 33 -35 26 4 35 52
18 100 -8 22 -8 35 0 44 10 12 21 91 20 149 -1 17 -17 62 -36 100 -30 60 -35
80 -35 141 0 81 -17 108 -66 102 -22 -2 -30 -10 -36 -36 l-9 -34 -42 39 c-23
21 -64 54 -92 73 -27 18 -91 73 -142 121 -50 47 -105 93 -122 100 -28 13 -31
18 -31 61 0 39 -4 50 -24 63 -32 21 -64 5 -73 -36 -3 -16 -6 -29 -7 -29 -2 0
-22 7 -47 15 -24 8 -83 21 -130 29 -66 12 -98 23 -139 50 -30 20 -82 48 -117
63 l-63 27 0 47 c0 54 -16 72 -57 67 -25 -3 -28 -8 -31 -42 -3 -37 -4 -38 -35
-32 -18 3 -75 11 -127 17 -69 8 -116 20 -170 44 -41 19 -87 37 -101 40 -23 6
-28 14 -34 53 -8 56 -20 72 -51 72 -26 0 -44 -31 -44 -75 0 -22 -4 -23 -62
-23 -41 -1 -89 8 -137 24 -41 13 -91 27 -112 30 -36 6 -39 9 -39 41 0 26 -5
36 -22 42 -34 12 -55 2 -62 -30 -7 -35 10 -35 -256 -6 l-205 22 50 29 c204
117 285 169 285 185 0 18 -27 62 -38 60 -4 -1 -63 -12 -132 -25z m140 -23 c0
-4 -55 -17 -122 -30 -68 -12 -154 -29 -193 -36 -38 -7 -106 -20 -150 -28 -44
-9 -176 -34 -294 -57 -174 -34 -215 -39 -222 -28 -11 17 14 23 434 98 183 33
377 68 432 78 97 18 115 19 115 3z m-65 -49 c-6 -5 -71 -44 -145 -87 -74 -43
-153 -89 -174 -103 -36 -22 -42 -23 -78 -11 -35 11 -41 10 -69 -10 -18 -14
-42 -22 -62 -21 -49 3 -56 1 -76 -19 -25 -25 -187 -71 -224 -64 -18 3 -34 0
-45 -10 -9 -9 -80 -31 -157 -50 -150 -38 -269 -71 -297 -82 -49 -20 2 18 200
149 l217 143 170 32 c94 18 296 56 450 85 325 62 302 58 290 48z m-1197 -176
c2 -49 -1 -72 -10 -77 -32 -21 -38 -10 -38 64 0 77 4 90 30 85 11 -3 16 -19
18 -72z m262 39 c0 -19 -458 -326 -467 -312 -3 5 7 19 22 31 68 50 431 295
438 296 4 0 7 -7 7 -15z m-872 -58 c3 -46 2 -48 -20 -45 -25 3 -34 32 -23 75
4 16 12 23 23 21 13 -2 18 -15 20 -51z m708 8 c-26 -20 -76 -20 -76 0 0 11 12
15 48 15 43 -1 46 -2 28 -15z m-166 -8 c0 -9 -38 -16 -137 -24 -93 -7 -184
-23 -278 -46 -157 -39 -170 -41 -420 -62 -99 -8 -197 -19 -217 -24 -36 -8 -48
-6 -48 10 0 15 158 39 359 54 84 6 204 26 306 51 149 36 254 52 343 53 69 1
92 -2 92 -12z m1550 -62 c0 -73 -1 -75 -25 -75 -24 0 -25 3 -25 59 0 72 6 91
31 91 17 0 19 -8 19 -75z m-547 45 c-3 -11 -14 -20 -24 -20 -24 0 -25 16 -1
29 25 15 31 13 25 -9z m162 1 c77 -11 179 -22 228 -26 68 -5 87 -10 87 -22 0
-13 -16 -14 -112 -8 -62 3 -125 11 -140 17 -16 6 -37 8 -47 5 -17 -4 -77 3
-138 18 -13 3 -23 12 -23 20 0 8 1 15 3 15 1 0 65 -9 142 -19z m-1055 -15 c0
-3 -4 -8 -10 -11 -5 -3 -10 -1 -10 4 0 6 5 11 10 11 6 0 10 -2 10 -4z m798
-13 c17 -3 32 -8 32 -12 -1 -17 -41 -51 -59 -51 -18 0 -21 5 -16 28 4 26 4 26
-6 -3 -11 -29 -68 -75 -92 -75 -7 0 -32 18 -56 39 -44 37 -44 39 -23 50 12 7
33 8 49 4 l28 -7 -25 -7 -25 -7 26 -1 c16 -1 38 10 58 30 24 23 39 29 54 25
12 -4 37 -9 55 -13z m1066 11 c12 -5 16 -21 16 -69 0 -58 -2 -63 -20 -58 -17
5 -20 14 -20 69 0 35 2 64 4 64 2 0 11 -3 20 -6z m-1974 -19 c0 -13 -21 -15
-127 -15 -78 0 -123 4 -117 9 11 12 57 17 162 19 67 2 82 -1 82 -13z m-1122
-78 c3 -77 3 -77 -23 -77 -28 0 -29 3 -19 99 6 49 10 61 23 59 13 -3 17 -19
19 -81z m2212 63 c18 -12 2 -12 -25 0 -13 6 -15 9 -5 9 8 0 22 -4 30 -9z m-85
-10 c17 -7 15 -9 -12 -9 -18 -1 -33 4 -33 9 0 12 17 12 45 0z m751 -39 c203
-67 241 -77 379 -96 353 -47 345 -46 345 -72 0 -11 -6 -14 -22 -9 -32 8 -129
23 -283 42 -147 17 -283 50 -400 96 -44 17 -107 39 -139 48 -59 16 -87 40 -48
40 11 0 87 -22 168 -49z m-1846 29 c103 -1 113 -2 96 -15 -22 -17 -76 -18
-294 -8 -133 6 -163 14 -102 26 14 3 61 4 105 1 44 -2 132 -4 195 -4z m1310
-5 c7 -9 29 -15 51 -15 26 0 47 -8 66 -24 15 -13 26 -26 23 -28 -17 -12 -103
-48 -107 -45 -2 3 8 14 23 26 15 11 22 21 17 21 -6 0 -22 -11 -36 -25 -33 -34
-77 -26 -78 14 0 14 -4 35 -9 46 -6 14 -7 6 -3 -22 5 -36 3 -43 -11 -43 -12 0
-16 5 -12 18 4 10 -1 27 -9 38 -28 37 -18 46 56 53 9 0 22 -6 29 -14z m-122
-23 c6 -19 -23 -14 -42 7 -18 19 -17 20 10 12 15 -4 29 -12 32 -19z m350 18
c26 0 32 -4 32 -21 0 -14 -5 -19 -17 -16 -10 3 -39 10 -66 17 -60 16 -76 36
-21 27 21 -4 54 -7 72 -7z m-788 -9 c0 -13 -67 -34 -82 -25 -7 5 3 12 28 20
51 15 54 16 54 5z m300 -1 c0 -5 -7 -10 -16 -10 -8 0 -12 5 -9 10 3 6 10 10
16 10 5 0 9 -4 9 -10z m-1317 -21 c27 -1 -35 -18 -138 -37 -182 -34 -385 -57
-385 -43 0 10 93 28 185 36 39 4 122 17 185 30 63 12 121 21 128 19 8 -2 19
-4 25 -5z m1401 -4 c11 -8 30 -15 43 -15 34 0 28 -17 -21 -66 -50 -51 -71 -57
-55 -18 14 38 4 41 -11 4 -17 -41 -53 -41 -70 0 -7 16 -19 35 -27 42 -8 6 -5
-4 7 -25 30 -51 8 -48 -49 5 -42 39 -43 42 -25 55 13 10 34 13 64 10 28 -4 54
0 70 8 32 18 50 18 74 0z m580 6 c17 -6 17 -8 4 -14 -22 -8 -51 -2 -56 11 -4
13 23 15 52 3z m296 -1 c8 -5 12 -11 10 -13 -8 -8 -70 5 -70 14 0 12 41 11 60
-1z m-2565 -21 c-22 -4 -53 -8 -70 -7 l-30 0 30 8 c17 4 48 8 70 8 l40 0 -40
-9z m595 7 c0 -2 -15 -14 -34 -25 -36 -23 -118 -26 -256 -12 l-65 7 50 16 c35
12 88 17 178 17 70 1 127 -1 127 -3z m764 -18 c8 -14 -1 -27 -53 -77 -35 -32
-70 -57 -77 -54 -26 10 -24 36 6 76 16 23 30 46 30 53 0 27 77 28 94 2z m771
4 c5 -4 60 -5 121 -4 70 1 123 -2 140 -10 27 -11 24 -12 -46 -18 -98 -9 -249
4 -288 24 -18 9 -32 19 -32 22 0 6 91 -6 105 -14z m-2290 -1 c-18 -15 -228
-79 -315 -94 -47 -9 -130 -19 -185 -22 -107 -7 -249 -23 -277 -31 -12 -3 -18
0 -18 9 0 18 82 33 230 42 147 9 280 30 400 64 56 17 105 32 108 35 3 4 19 6
36 6 18 0 26 -4 21 -9z m1265 -2 c12 -8 9 -9 -10 -4 -19 4 -21 4 -9 -4 9 -6
38 -7 75 -2 68 10 81 6 61 -17 -8 -10 -22 -32 -31 -49 -9 -18 -21 -33 -27 -33
-7 0 -8 12 -4 33 5 24 4 28 -4 17 -6 -8 -11 -25 -11 -36 0 -21 -17 -34 -43
-34 -7 0 -20 14 -29 30 -9 17 -23 30 -29 30 -7 0 -2 -11 11 -25 35 -37 20 -39
-43 -4 -58 31 -66 49 -21 49 17 0 30 9 42 30 18 31 45 38 72 19z m1630 -9 c38
-16 41 -19 19 -19 -46 -1 -89 11 -89 25 0 18 15 17 70 -6z m-3080 -4 c-52 -19
-117 -30 -105 -17 6 5 33 14 60 19 70 14 86 13 45 -2z m-200 -10 c0 -16 -69
-46 -107 -46 -36 0 -21 13 42 39 61 24 65 25 65 7z m1975 -6 c13 -6 15 -9 5
-9 -8 0 -22 4 -30 9 -18 12 -2 12 25 0z m-1215 -15 c-58 -22 -109 -17 -83 8 3
4 31 7 62 6 l56 -1 -35 -13z m1930 -20 c69 -20 141 -41 159 -47 l35 -11 -100
-34 c-93 -32 -271 -97 -629 -230 -82 -31 -154 -56 -160 -55 -5 0 -77 23 -160
52 -82 29 -254 87 -381 131 -127 43 -258 88 -290 100 l-58 22 178 49 c157 43
202 51 185 33 -3 -2 -67 -21 -142 -41 -75 -21 -137 -41 -137 -44 0 -4 181 -68
403 -143 l402 -137 210 76 c116 42 260 94 320 116 61 21 137 49 170 60 72 25
95 36 95 46 0 4 -56 23 -124 42 -68 19 -122 38 -119 43 6 10 8 10 143 -28z
m-2040 11 c0 -14 -29 -31 -38 -22 -2 3 -2 12 1 21 8 19 37 20 37 1z m270 6 c0
-23 -326 -98 -505 -117 -33 -3 -78 -8 -100 -11 l-40 -4 46 24 c32 17 74 28
145 36 96 10 304 52 348 70 26 11 106 13 106 2z m1480 -18 c37 -8 45 -13 26
-13 -36 -1 -106 19 -106 31 0 5 6 6 13 1 6 -4 37 -13 67 -19z m1340 -55 c0
-70 -2 -80 -16 -75 -9 3 -20 6 -25 6 -5 0 -9 34 -9 75 0 73 1 75 25 75 25 0
25 -1 25 -81z m-4193 65 c-3 -3 -12 -4 -19 -1 -8 3 -5 6 6 6 11 1 17 -2 13 -5z
m1043 -8 c0 -16 -12 -21 -75 -31 -22 -3 -49 -9 -60 -12 -38 -10 0 17 51 37 59
23 84 25 84 6z m440 -1 c-7 -8 -10 -23 -7 -34 3 -14 -2 -20 -19 -24 -19 -3
-22 -1 -14 9 9 10 -1 14 -47 20 l-58 7 40 18 c22 10 57 18 79 18 33 1 37 -1
26 -14z m1008 -7 c23 -19 14 -55 -18 -68 -17 -7 -49 -26 -71 -42 l-41 -29 -39
27 c-22 15 -42 31 -44 35 -3 4 17 27 44 52 48 43 52 44 103 39 29 -2 59 -9 66
-14z m1043 -22 c126 -42 277 -76 344 -76 17 0 57 -14 90 -30 33 -17 51 -28 40
-26 -11 3 -49 7 -85 11 -156 15 -324 54 -457 106 -184 72 -135 82 68 15z m24
23 l20 -8 -20 0 c-11 0 -36 7 -55 15 l-35 14 35 -6 c19 -4 44 -10 55 -15z
m-477 -20 c62 -18 111 -34 109 -36 -2 -2 -40 -16 -84 -31 l-80 -28 -47 53
c-44 49 -51 73 -23 73 7 0 63 -14 125 -31z m289 3 c32 -16 69 -34 83 -40 23
-10 21 -11 -22 -11 -34 -1 -48 3 -48 12 0 16 -28 32 -90 51 -43 13 -44 14 -13
15 18 1 58 -12 90 -27z m-3357 -46 c0 -55 -3 -64 -20 -69 -19 -5 -20 0 -20 64
0 62 2 69 20 69 18 0 20 -7 20 -64z m725 55 c-12 -12 -157 -61 -179 -61 -9 0
-16 6 -16 14 0 8 28 21 78 33 87 23 131 28 117 14z m70 -37 c-187 -86 -347
-124 -510 -124 l-80 1 35 18 c19 10 91 26 160 35 152 21 204 34 312 79 54 22
101 35 133 36 l50 1 -100 -46z m1988 31 c20 -8 53 -15 72 -15 29 0 45 -9 83
-45 54 -51 53 -54 -37 -82 -47 -16 -55 -16 -59 -3 -7 22 -79 86 -113 100 -42
18 -38 56 7 59 6 1 28 -6 47 -14z m-829 -21 c25 -14 48 -29 50 -33 3 -4 -15
-24 -40 -45 l-44 -37 -118 40 c-64 21 -110 42 -102 45 18 6 192 54 201 55 4 1
27 -11 53 -25z m1661 16 c18 -8 17 -9 -7 -9 -16 -1 -28 4 -28 9 0 12 8 12 35
0z m-2237 -26 c2 -1 -34 -14 -79 -29 -65 -20 -95 -25 -131 -20 -27 4 -48 10
-48 14 0 15 156 47 205 43 28 -3 52 -6 53 -8z m2368 5 c54 -10 124 -38 98 -39
-27 -1 -180 32 -188 41 -13 12 16 12 90 -2z m-1077 -14 c-5 -5 -37 -10 -69
-10 -32 0 -63 5 -69 10 -7 7 16 10 69 10 53 0 76 -3 69 -10z m-2159 -10 c0
-16 -35 -21 -44 -6 -8 12 4 21 26 21 10 0 18 -7 18 -15z m3535 -40 c61 -24
148 -54 195 -66 87 -22 170 -58 137 -59 -21 0 -175 34 -237 54 -90 27 -270
107 -270 118 0 14 65 -4 175 -47z m-3605 31 c0 -9 -20 -17 -57 -24 -32 -6 -60
-9 -61 -7 -2 2 13 13 35 24 45 24 83 27 83 7z m1718 -1 c-28 -16 -103 -23
-115 -12 -3 4 14 7 38 7 24 0 51 5 59 10 8 5 22 10 30 9 8 0 3 -6 -12 -14z
m-1898 -41 c-93 -50 -204 -98 -320 -137 -94 -32 -222 -68 -227 -63 -2 2 11 14
29 28 20 15 76 36 138 52 121 32 215 69 315 126 49 27 82 39 110 39 40 1 40 1
-45 -45z m1240 26 c0 -17 -6 -20 -42 -19 -69 2 -154 15 -138 21 35 14 48 16
113 17 61 1 67 -1 67 -19z m1023 14 c4 -4 -7 -25 -24 -48 l-31 -41 39 40 c39
40 41 41 93 35 l53 -5 18 -50 c11 -33 18 -42 18 -27 1 13 -6 37 -15 53 -24 47
-6 49 32 5 19 -22 34 -35 34 -29 0 5 -11 20 -25 33 -37 35 -30 45 13 20 36
-22 92 -77 92 -91 0 -4 -28 -17 -62 -28 -35 -12 -121 -43 -192 -70 l-130 -49
-58 20 c-66 22 -69 30 -37 95 21 43 58 77 128 120 41 24 45 25 54 17z m1777
-36 c30 -17 102 -63 160 -103 118 -81 182 -115 320 -170 85 -33 147 -71 136
-83 -6 -6 -243 95 -316 136 -36 20 -116 69 -178 109 -62 41 -137 86 -167 100
-30 15 -55 33 -55 41 0 18 29 9 100 -30z m-4360 17 c0 -8 -27 -28 -59 -45 -33
-16 -99 -54 -148 -83 -49 -30 -120 -66 -158 -82 -39 -15 -87 -36 -107 -46 -46
-23 -48 -23 -48 0 0 18 25 32 170 92 30 12 98 48 150 80 166 99 200 113 200
84z m215 -12 c-86 -45 -186 -83 -284 -109 -51 -13 -98 -24 -104 -24 -30 0 45
36 128 61 51 15 128 43 172 62 43 19 92 35 108 36 28 0 27 -2 -20 -26z m925
17 c-20 -13 -33 -13 -25 0 3 6 14 10 23 10 15 0 15 -2 2 -10z m1228 -57 c22
-17 23 -20 8 -48 -9 -17 -16 -43 -16 -59 0 -23 -3 -27 -17 -21 -10 4 -85 30
-168 58 -82 28 -154 53 -158 57 -11 10 42 42 75 46 23 3 28 0 29 -19 l2 -22 4
23 c3 17 11 22 36 22 18 1 46 7 62 14 27 12 35 11 75 -9 25 -13 56 -31 68 -42z
m1032 -72 l0 -139 -31 -11 c-18 -6 -36 -11 -40 -11 -5 0 -9 63 -9 139 l0 139
28 10 c53 20 52 22 52 -127z m768 124 c14 -14 -9 -13 -39 0 l-34 16 34 -6 c19
-3 37 -7 39 -10z m-4053 -5 c-3 -5 -12 -10 -18 -10 -7 0 -6 4 3 10 19 12 23
12 15 0z m970 0 c-3 -5 -12 -10 -19 -10 -7 0 -24 -8 -37 -18 -13 -10 -69 -31
-124 -46 -55 -15 -111 -31 -124 -37 -13 -5 -26 -8 -28 -5 -6 6 307 125 330
126 5 0 5 -4 2 -10z m573 -11 c19 -8 22 -15 22 -69 0 -33 -3 -60 -6 -60 -4 0
-24 5 -45 12 l-39 11 0 64 c0 71 -3 68 68 42z m1946 15 c9 -3 16 -17 16 -30
l0 -24 -72 26 c-40 15 -75 28 -77 30 -7 7 116 4 133 -2z m-109 -29 c74 -33
213 -69 350 -90 97 -14 204 -49 192 -62 -3 -2 -58 3 -123 12 -240 33 -484 106
-484 146 0 24 -4 24 65 -6z m-2580 -4 c-76 -34 -310 -110 -400 -130 -105 -24
-245 -45 -251 -38 -11 11 86 46 146 52 77 8 207 42 340 90 86 31 127 40 185
43 11 0 2 -7 -20 -17z m650 -111 c354 -118 369 -124 340 -136 -17 -7 -40 -13
-51 -14 -16 0 -649 207 -754 247 -15 5 66 32 85 28 6 -1 176 -58 380 -125z
m-177 121 c24 -15 -33 -19 -64 -5 l-29 12 40 1 c22 0 46 -3 53 -8z m1922 -131
c0 -87 -4 -140 -10 -140 -6 0 -10 53 -10 140 0 87 4 140 10 140 6 0 10 -53 10
-140z m364 134 c17 -6 23 -44 7 -44 -23 0 -41 14 -41 31 0 20 8 23 34 13z
m-406 -80 l-3 -76 -115 -45 c-63 -25 -137 -53 -165 -64 -27 -10 -115 -43 -194
-74 -79 -31 -145 -54 -146 -53 -2 2 -4 38 -6 81 l-4 79 205 75 c113 41 252 92
310 113 58 21 109 39 113 39 4 1 7 -33 5 -75z m-2582 40 c-74 -25 -96 -29 -96
-16 0 9 104 39 140 40 14 0 -6 -10 -44 -24z m874 12 c0 -18 -101 -28 -142 -14
-28 10 -30 12 -12 19 10 4 49 8 87 8 50 1 67 -2 67 -13z m149 -48 c-1 -68 -6
-61 -11 15 -2 26 0 47 4 47 5 0 7 -28 7 -62z m2132 25 c33 -14 57 -28 55 -31
-3 -2 -46 3 -96 13 -77 15 -90 20 -90 37 0 18 4 19 36 14 19 -4 62 -19 95 -33z
m459 27 c13 -9 13 -10 0 -10 -8 0 -22 5 -30 10 -13 9 -13 10 0 10 8 0 22 -5
30 -10z m-4300 -4 c0 -2 -9 -6 -20 -9 -11 -3 -18 -1 -14 4 5 9 34 13 34 5z
m2063 -107 l297 -102 0 -85 c0 -101 22 -99 -205 -15 -133 49 -161 62 -163 80
-3 23 -19 31 -172 81 l-85 29 -3 63 c-3 56 -1 62 15 57 10 -3 152 -51 316
-108z m-756 20 c131 -44 299 -101 373 -126 74 -24 140 -50 147 -57 7 -6 10
-21 6 -36 l-7 -25 -6 25 c-8 34 -22 40 -410 170 -184 62 -342 116 -350 121
-40 22 29 2 247 -72z m2694 45 c80 -41 230 -95 361 -129 114 -30 208 -68 208
-85 0 -13 -213 38 -354 84 -80 27 -335 142 -353 160 -15 14 101 -11 138 -30z
m-531 11 l25 -14 -32 -1 c-23 0 -33 5 -33 15 0 18 8 18 40 0z m-2900 -4 c0
-15 -19 -23 -38 -16 -14 5 -14 7 -2 15 19 12 40 13 40 1z m533 -15 c31 -11 57
-22 57 -25 0 -3 -46 -19 -103 -35 -56 -16 -180 -53 -275 -82 l-173 -52 -74 27
c-41 14 -75 28 -75 31 0 3 75 25 168 48 92 24 219 58 282 77 63 18 120 32 125
31 6 -1 36 -10 68 -20z m457 8 c0 -12 -6 -15 -22 -10 -13 3 -27 6 -33 6 -5 0
-3 5 5 10 23 15 50 12 50 -6z m2580 -4 c26 -7 41 -40 18 -40 -7 1 -40 14 -73
30 l-60 29 45 -6 c25 -4 56 -9 70 -13z m-3640 -4 c0 -18 -17 -24 -82 -31 l-53
-5 50 25 c56 28 85 32 85 11z m4327 8 c-3 -3 -12 -4 -19 -1 -8 3 -5 6 6 6 11
1 17 -2 13 -5z m-4557 -12 c0 -8 -101 -61 -153 -81 -24 -10 -27 -8 -27 12 0
20 10 27 63 45 34 11 73 23 87 25 14 2 26 5 28 6 1 0 2 -3 2 -7z m100 -6 c-8
-8 -67 -42 -131 -75 -94 -49 -121 -60 -140 -53 -20 8 -12 14 72 54 51 25 105
54 119 66 30 25 105 32 80 8z m3870 -33 c0 -19 -4 -24 -16 -19 -9 3 -18 6 -20
6 -2 0 -4 11 -4 24 0 19 4 23 20 19 13 -4 20 -14 20 -30z m390 21 c76 -15 130
-36 130 -50 0 -12 -6 -15 -22 -10 -13 4 -54 15 -91 25 -38 10 -76 26 -85 35
-16 16 -15 17 13 11 17 -3 41 -8 55 -11z m201 6 c5 0 9 -34 9 -75 0 -41 -3
-75 -6 -75 -3 0 -14 5 -25 10 -16 9 -19 22 -19 81 0 61 2 70 16 65 9 -3 20 -6
25 -6z m-1329 -26 c43 -22 49 -28 34 -36 -25 -14 -106 19 -106 43 0 25 11 24
72 -7z m112 10 c9 -3 16 -10 16 -15 0 -16 -57 -9 -101 12 l-44 20 57 -5 c31
-3 63 -9 72 -12z m-2334 -33 c50 -17 79 -31 70 -35 -8 -3 -134 -42 -279 -86
l-264 -81 -90 32 c-50 18 -86 34 -81 36 56 18 542 162 549 162 6 1 49 -12 95
-28z m3072 -8 c43 -20 76 -38 74 -40 -4 -4 -140 32 -156 42 -11 7 -14 35 -3
35 4 0 42 -16 85 -37z m-675 21 c-3 -3 -12 -4 -19 -1 -8 3 -5 6 6 6 11 1 17
-2 13 -5z m764 -4 c9 0 65 -36 124 -81 121 -90 207 -137 340 -184 66 -24 96
-41 113 -63 l23 -30 -118 47 c-159 64 -209 91 -338 179 -60 41 -139 91 -175
109 -63 34 -64 35 -25 29 22 -3 47 -6 56 -6z m-4379 -35 c-5 -30 -42 -36 -42
-7 0 23 8 32 30 32 13 0 16 -6 12 -25z m3831 -22 c42 -20 77 -39 77 -43 0 -4
-37 -1 -82 6 -46 8 -88 14 -93 14 -6 0 -15 10 -20 22 -6 13 -21 29 -35 36 -58
31 77 0 153 -35z m-4446 31 c-3 -3 -12 -4 -19 -1 -8 3 -5 6 6 6 11 1 17 -2 13
-5z m338 -2 c-32 -28 -218 -173 -260 -203 -75 -52 -226 -142 -231 -137 -11 11
40 57 94 86 67 36 160 102 242 172 56 48 124 89 150 90 8 0 10 -3 5 -8z m3685
-2 c12 -8 11 -10 -7 -10 -12 0 -25 5 -28 10 -8 13 15 13 35 0z m1253 -11 c20
-7 37 -18 37 -26 0 -10 -14 -6 -50 12 -27 14 -50 28 -50 31 0 3 6 3 13 0 6 -2
29 -10 50 -17z m-4725 -6 c-2 -12 -17 -20 -48 -25 -64 -11 -70 -5 -19 20 53
26 72 28 67 5z m3738 -4 c18 -15 18 -43 -1 -59 -24 -20 -18 -41 21 -81 25 -25
36 -47 37 -69 2 -32 0 -33 -67 -56 -37 -13 -75 -29 -83 -35 -25 -21 -39 5 -25
44 25 69 6 98 -74 113 -36 7 -37 8 -16 17 29 13 41 56 18 69 -32 18 -16 59 29
71 31 9 146 -1 161 -14z m-4276 -77 c0 -74 -3 -89 -19 -99 -17 -11 -19 -6 -24
80 -3 50 -4 94 -1 99 3 4 14 8 25 8 17 0 19 -8 19 -88z m2112 17 c-4 -3 -41
-15 -82 -28 -41 -12 -164 -52 -273 -87 l-197 -65 -62 22 c-35 12 -78 29 -98
37 l-35 14 260 78 c143 43 270 82 283 87 16 6 49 0 116 -22 52 -16 91 -32 88
-36z m1698 17 l0 -53 -80 -6 c-83 -5 -128 -24 -137 -56 -3 -12 -53 -33 -163
-70 -88 -30 -164 -59 -170 -65 -5 -5 -10 -41 -10 -78 0 -71 -3 -75 -45 -56
-24 11 -25 14 -25 107 l0 96 188 69 c103 39 241 91 307 117 66 26 123 48 128
48 4 1 7 -23 7 -53z m790 9 c122 -63 233 -101 371 -129 74 -15 130 -33 149
-46 16 -12 30 -23 30 -24 0 -1 -45 5 -99 15 -180 31 -295 71 -478 163 -112 57
-124 65 -94 65 22 1 66 -15 121 -44z m-562 20 c8 -8 -3 -14 -36 -21 -28 -6
-32 -4 -32 16 0 20 4 22 32 16 17 -3 34 -8 36 -11z m642 1 c34 -12 55 -46 28
-46 -7 0 -40 13 -73 30 -59 28 -59 29 -25 29 19 0 51 -6 70 -13z m763 -8 c18
-12 70 -58 117 -103 47 -45 105 -94 129 -110 74 -46 141 -114 141 -144 0 -24
-3 -23 -52 26 -29 28 -80 70 -114 94 -72 52 -264 232 -264 248 0 16 8 14 43
-11z m-4612 -4 c-25 -8 -47 -18 -50 -23 -6 -8 -85 -51 -94 -51 -3 0 -7 9 -10
20 -7 25 37 51 103 61 78 11 99 8 51 -7z m4397 -44 c75 -38 101 -60 70 -60
-16 0 -153 86 -169 107 -12 16 -12 17 1 7 8 -6 52 -30 98 -54z m-4827 37 c-6
-8 -30 -20 -53 -27 -24 -7 -69 -26 -102 -42 -32 -16 -60 -27 -63 -24 -10 9 88
70 140 87 67 22 93 24 78 6z m691 -58 c90 -33 190 -71 223 -84 33 -13 130 -49
215 -80 85 -32 157 -59 158 -60 2 -2 -20 -11 -50 -20 l-53 -17 -375 142 c-206
78 -377 143 -378 145 -2 2 18 10 45 18 26 8 49 15 50 16 1 1 76 -26 165 -60z
m-993 1 c-35 -27 -67 -50 -71 -50 -5 0 -8 9 -8 20 0 14 17 28 58 49 85 45 94
37 21 -19z m4679 21 c3 -19 0 -22 -13 -17 -9 3 -19 6 -21 6 -2 0 -4 9 -4 21 0
29 34 21 38 -10z m-4146 2 c10 -9 18 -26 18 -38 0 -77 -312 -225 -472 -225
-46 0 -78 24 -78 60 0 104 451 276 532 203z m3843 2 c54 -5 90 -16 158 -48
107 -50 117 -74 20 -45 -38 11 -80 27 -95 34 -15 8 -49 14 -75 14 -49 0 -170
17 -185 26 -4 3 -2 12 5 20 9 11 25 13 57 9 25 -2 77 -7 115 -10z m-1450 -120
l0 -88 -38 -13 c-64 -22 -67 -16 -67 111 l0 114 53 -18 52 -18 0 -88z m135
-20 l0 -146 -22 21 c-12 11 -28 20 -37 20 -8 0 -23 7 -33 17 -15 13 -18 32
-18 109 l0 92 43 15 c70 25 67 32 67 -128z m893 138 c7 -6 -155 -63 -180 -63
-35 0 -4 19 70 42 89 29 100 31 110 21z m832 -9 c61 -15 187 -83 155 -84 -40
0 -216 52 -227 67 -28 37 -19 40 72 17z m540 6 c3 -5 2 -10 -4 -10 -5 0 -13 5
-16 10 -3 6 -2 10 4 10 5 0 13 -4 16 -10z m-3192 -26 c43 -14 77 -27 75 -29
-2 -1 -132 -43 -289 -93 l-285 -91 -79 31 c-43 18 -74 33 -69 34 5 1 77 24
159 49 83 26 186 58 230 72 44 13 96 31 115 38 48 19 54 19 143 -11z m-1453
-5 c0 -5 -18 -16 -40 -25 -22 -9 -49 -28 -60 -42 -17 -21 -20 -22 -20 -6 1 27
20 48 65 72 39 20 55 20 55 1z m133 -19 c285 -110 347 -133 500 -190 136 -50
167 -66 167 -81 0 -10 -3 -19 -7 -19 -14 0 -619 232 -678 260 -33 16 -68 31
-77 34 -16 5 -26 36 -13 36 3 0 52 -18 108 -40z m1595 18 c-2 -18 -15 -27 -53
-40 -66 -22 -65 -22 -65 6 0 19 8 26 53 38 70 21 69 21 65 -4z m-2606 -72
c-16 -17 -57 -73 -92 -124 -34 -50 -80 -106 -101 -123 -37 -29 -39 -29 -39 -9
0 11 19 39 44 63 24 24 65 76 91 117 26 41 64 92 84 113 33 35 36 37 39 16 2
-13 -7 -33 -26 -53z m4137 56 c-13 -11 -39 -24 -58 -31 -67 -22 -86 -56 -55
-99 9 -13 13 -30 10 -39 -6 -13 -12 -10 -35 18 -27 31 -28 36 -15 61 8 15 11
33 8 41 -3 9 5 18 23 25 15 5 46 17 68 26 22 8 48 15 59 15 16 1 16 -1 -5 -17z
m-1409 -29 c36 -13 111 -40 168 -60 82 -28 102 -39 102 -54 0 -15 -7 -19 -33
-19 -38 0 -77 -24 -77 -48 0 -10 7 -28 16 -40 9 -13 14 -25 13 -26 -2 -2 -68
22 -146 52 l-143 54 0 90 c0 82 2 89 18 83 9 -4 46 -18 82 -32z m2444 27 c6 0
52 -29 101 -65 90 -66 211 -130 340 -180 45 -18 79 -38 95 -58 14 -18 18 -28
10 -25 -229 96 -380 175 -498 262 -89 65 -110 85 -76 72 9 -3 21 -6 28 -6z
m296 -32 c0 -16 -3 -17 -20 -8 -11 6 -20 17 -20 24 0 9 7 12 20 9 11 -3 20
-14 20 -25z m-5231 -15 c-18 -15 -48 -45 -68 -65 -36 -40 -55 -48 -49 -23 2 8
35 39 73 69 72 55 103 68 44 19z m3713 9 c20 -20 20 -22 5 -46 -23 -34 -22
-40 13 -78 35 -38 36 -45 13 -71 -12 -13 -18 -35 -18 -68 0 -27 0 -49 0 -49 0
0 -63 24 -140 53 -139 53 -140 53 -136 82 1 16 16 45 33 63 27 32 28 35 14 58
-41 61 -3 86 122 80 58 -2 78 -7 94 -24z m563 7 c65 -21 92 -39 58 -39 -22 0
-124 38 -137 51 -16 14 9 11 79 -12z m146 4 c19 -19 -15 -20 -71 -1 l-55 18
58 -3 c32 -2 62 -8 68 -14z m-2213 -15 c2 -8 -5 -18 -15 -20 -10 -3 -139 -44
-288 -91 -315 -99 -307 -97 -310 -75 -3 14 18 24 101 49 58 18 191 60 297 95
106 34 197 61 202 60 6 -2 11 -10 13 -18z m2884 -18 c37 -23 68 -45 68 -50 0
-15 -6 -13 -53 17 -52 34 -101 73 -91 73 4 0 38 -18 76 -40z m-4358 0 c44 -39
62 -89 80 -220 8 -58 20 -118 25 -133 12 -31 9 -33 -29 -11 -25 15 -29 25 -40
108 -14 108 -35 172 -66 203 -47 47 -124 16 -144 -58 -6 -21 -13 -39 -15 -39
-2 0 -9 16 -14 36 -8 30 -7 43 10 75 38 75 131 93 193 39z m4559 17 c18 -8 39
-22 47 -32 14 -17 13 -17 -10 -10 -41 12 -80 35 -80 45 0 13 4 13 43 -3z
m-2933 -94 c0 -54 3 -134 6 -178 l7 -80 -35 -13 c-60 -21 -58 -27 -58 166 l0
178 28 11 c52 21 52 20 52 -84z m2276 83 c10 -8 16 -17 12 -21 -8 -8 -48 13
-48 25 0 14 13 12 36 -4z m-4836 -10 c0 -15 -40 -49 -48 -41 -5 5 31 54 41 55
4 0 7 -6 7 -14z m4197 -8 c15 -16 15 -19 0 -42 -22 -34 -21 -58 4 -90 22 -28
34 -122 17 -132 -5 -4 -9 -23 -7 -43 3 -56 0 -71 -13 -71 -7 0 -66 21 -130 47
l-118 46 0 40 c0 42 30 101 55 111 17 6 21 81 5 91 -18 11 -10 45 13 55 36 16
154 7 174 -12z m277 -1 l29 -13 -36 -11 c-33 -10 -35 -9 -40 13 -5 27 4 29 47
11z m378 -44 c98 -32 178 -60 178 -64 0 -3 -34 -18 -75 -34 -41 -15 -73 -30
-70 -33 2 -3 43 10 90 28 82 32 86 32 105 15 25 -23 26 -57 2 -78 -15 -14
-342 -157 -358 -157 -2 0 -4 9 -4 21 0 11 -13 33 -29 49 -16 16 -27 31 -25 32
2 2 -5 4 -14 5 -9 0 -81 24 -158 52 -78 28 -157 53 -175 56 l-34 6 35 -15 c19
-8 100 -38 180 -68 148 -54 200 -85 200 -119 0 -31 -28 -34 -94 -10 -33 13
-124 45 -201 73 -138 48 -165 61 -152 74 6 6 147 -40 297 -97 85 -33 139 -39
75 -9 -22 10 -110 45 -195 76 -169 62 -180 68 -180 94 0 14 20 25 83 46 45 15
134 47 197 70 63 24 122 44 130 44 8 1 95 -25 192 -57z m151 5 c16 -11 26 -22
24 -24 -10 -10 -152 44 -155 59 -3 14 2 14 50 0 29 -9 66 -25 81 -35z m-4313
7 c0 -47 34 -146 66 -195 26 -40 98 -92 144 -105 43 -13 142 -66 138 -74 -2
-5 -31 -32 -66 -60 -71 -59 -135 -136 -165 -199 -21 -42 -21 -43 -2 -78 10
-19 28 -36 39 -39 12 -2 39 -7 61 -11 l40 -7 -48 -12 c-63 -17 -91 -36 -111
-78 -23 -50 -20 -105 9 -163 24 -47 71 -92 173 -164 52 -37 96 -97 128 -176
13 -33 24 -62 24 -66 0 -4 -30 -21 -67 -39 -51 -24 -85 -33 -138 -36 l-70 -4
-78 59 c-174 132 -363 346 -440 498 -30 60 -57 158 -57 209 0 50 24 139 55
202 38 80 48 136 34 202 -13 63 -46 134 -83 178 l-26 31 58 6 c103 12 277 81
342 135 34 28 40 26 40 -14z m1779 -162 c1 -103 -3 -163 -9 -163 -6 0 -10 67
-9 183 0 111 4 174 9 162 5 -11 9 -93 9 -182z m3170 163 c13 -11 56 -61 96
-111 82 -101 159 -178 223 -220 23 -15 42 -32 42 -36 0 -13 -6 -11 -51 11 -70
36 -409 401 -358 385 13 -4 35 -17 48 -29z m-4514 -23 c50 -19 156 -59 238
-90 l147 -56 0 -83 c0 -61 -3 -84 -12 -84 -7 0 -112 40 -233 89 l-220 90 -7
51 c-5 28 -17 69 -27 91 l-20 40 22 -7 c12 -3 63 -22 112 -41z m1305 -32 l0
-78 -207 -68 c-115 -37 -256 -84 -315 -104 -123 -44 -118 -47 -118 66 l0 62
133 41 c72 23 213 68 312 100 99 32 183 59 188 59 4 1 7 -34 7 -78z m1240 61
c0 -4 -46 -23 -102 -42 -57 -19 -103 -39 -103 -45 0 -13 173 -82 811 -325
l321 -122 184 82 c101 46 243 108 314 140 72 31 144 64 160 72 l30 16 -30 12
c-16 7 -51 18 -77 26 -44 14 -65 34 -35 34 18 0 227 -73 227 -79 0 -11 -78
-43 -89 -37 -9 6 -134 -47 -514 -217 -44 -20 -63 -33 -55 -38 15 -10 13 -11
-38 -37 l-41 -21 -269 105 c-367 143 -552 216 -729 286 -82 33 -161 61 -175
63 -42 5 -107 36 -90 43 72 27 269 91 283 91 9 1 17 -2 17 -7z m1538 -97 c63
-41 113 -75 111 -75 -2 0 -33 9 -68 20 -55 18 -221 121 -221 138 0 18 82 -20
178 -83z m222 50 c0 -8 -4 -15 -8 -15 -13 0 -32 23 -32 37 0 11 5 11 20 3 11
-6 20 -17 20 -25z m-4530 -14 c21 -41 44 -163 38 -204 -3 -23 -4 -23 -35 -10
-33 13 -33 14 -33 81 0 37 -3 91 -6 120 -8 64 7 69 36 13z m-850 -16 c-7 -8
-16 -15 -21 -15 -16 0 -10 32 9 46 14 10 18 10 20 -2 2 -8 -2 -21 -8 -29z
m790 36 c0 -10 -30 -24 -37 -17 -3 3 -2 9 2 15 8 13 35 15 35 2z m2801 -20
c-12 -16 -21 -39 -21 -51 0 -24 -10 -23 -85 9 l-40 17 75 26 c95 33 95 34 71
-1z m1578 18 c24 -5 68 -24 98 -42 44 -26 53 -36 53 -60 l0 -29 -37 23 c-107
65 -185 119 -172 119 8 0 34 -5 58 -11z m317 -29 c22 -10 48 -29 57 -44 17
-25 17 -25 -5 -17 -88 35 -138 63 -138 77 0 17 14 14 86 -16z m-5406 7 c0 -15
-71 -69 -160 -122 -36 -21 -76 -45 -89 -54 l-24 -15 17 32 c10 20 35 41 67 57
62 32 156 91 164 105 9 14 25 12 25 -3z m5830 3 c8 -5 11 -12 8 -16 -10 -9
-38 3 -38 16 0 12 10 13 30 0z m-5960 -29 c0 -17 -66 -68 -76 -58 -5 5 56 77
67 77 5 0 9 -9 9 -19z m840 -6 c0 -23 -24 -45 -49 -45 -18 0 -12 48 7 59 28
17 42 12 42 -14z m5000 -66 c30 -31 50 -60 50 -73 -1 -16 -18 -3 -80 64 -44
46 -80 88 -80 93 0 13 54 -28 110 -84z m-2724 62 c22 -17 22 -19 5 -24 -10 -2
-25 -1 -33 4 -8 5 -31 3 -51 -3 -28 -9 -46 -8 -76 2 -49 16 -78 8 -36 -11 37
-16 168 -18 212 -3 18 6 35 9 37 6 3 -3 -13 -26 -36 -51 -65 -71 -88 -79 -68
-25 9 27 9 28 -5 10 -8 -11 -15 -26 -15 -33 0 -7 -11 -13 -24 -13 -18 0 -27 9
-40 40 -9 22 -18 40 -21 40 -3 0 2 -16 10 -36 18 -45 18 -45 1 -38 -26 10 -99
113 -92 130 5 13 17 15 79 9 42 -4 82 -2 97 4 14 5 27 10 28 10 2 1 15 -7 28
-18z m-374 -43 c79 -29 133 -55 126 -58 -7 -4 -50 -18 -96 -30 -73 -21 -86
-22 -120 -11 -20 8 -43 18 -49 23 -13 11 -19 128 -6 128 3 0 69 -23 145 -52z
m3231 -41 c-2 -45 -6 -93 -9 -106 l-5 -24 -25 23 c-20 20 -24 33 -24 80 0 32
3 71 6 87 5 25 9 29 34 25 l28 -4 -5 -81z m-5823 75 c0 -10 -42 -49 -92 -87
-35 -25 -38 -26 -38 -8 0 12 22 35 57 61 57 42 73 49 73 34z m5580 -77 c30
-33 77 -85 106 -115 36 -37 53 -62 51 -78 0 -12 -4 -21 -7 -20 -18 9 -260 279
-260 291 0 19 65 -27 110 -78z m-2327 48 c25 -12 27 -18 27 -74 0 -58 -1 -60
-22 -53 -70 21 -78 31 -78 95 0 58 1 60 23 53 12 -3 34 -13 50 -21z m-3493 13
c0 -2 -16 -30 -35 -62 l-35 -58 0 41 c0 33 5 45 28 62 25 19 42 26 42 17z
m1864 -12 c4 -11 -6 -20 -37 -34 -54 -25 -77 -25 -77 -1 0 14 13 24 43 34 55
20 64 20 71 1z m3656 -35 c0 -24 -4 -30 -16 -25 -9 3 -18 6 -20 6 -2 0 -4 16
-4 35 0 33 2 35 20 25 13 -7 20 -21 20 -41z m-5214 26 c18 -13 15 -14 -30 -15
-42 0 -47 2 -36 15 16 19 41 19 66 0z m624 -46 c0 -46 -12 -48 -44 -5 -18 23
-19 28 -6 36 34 22 50 12 50 -31z m2380 26 c0 -8 -7 -15 -15 -15 -16 0 -20 12
-8 23 11 12 23 8 23 -8z m237 -82 c-2 -21 -4 -6 -4 32 0 39 2 55 4 38 2 -18 2
-50 0 -70z m518 -103 c88 -34 236 -91 329 -126 92 -35 170 -65 173 -67 2 -3 2
-47 1 -100 l-3 -95 -252 102 c-229 92 -252 103 -255 126 -3 26 10 20 -413 187
l-70 28 -3 72 -3 72 168 -68 c92 -37 240 -96 328 -131z m-1547 98 l-3 -91 -58
-20 c-49 -16 -63 -17 -82 -7 -31 17 -58 9 -65 -18 -4 -20 -29 -31 -184 -83
-99 -32 -187 -66 -196 -74 -34 -31 -40 -19 -40 84 l0 99 223 72 c122 40 260
85 307 101 47 16 89 29 93 29 4 0 6 -41 5 -92z m3097 31 c22 -23 33 -40 25
-37 -88 32 -100 40 -100 69 0 25 3 28 18 20 9 -5 35 -28 57 -52z m-5825 42 c0
-11 -39 -25 -47 -18 -3 3 -2 10 2 16 8 13 45 15 45 2z m1605 -106 c50 -20 101
-41 115 -47 l24 -9 -31 -20 c-17 -11 -41 -39 -52 -62 l-21 -42 0 58 c0 48 -4
62 -25 82 -31 32 -72 32 -150 -1 -33 -13 -64 -26 -69 -27 -11 -3 -34 64 -42
123 l-6 49 83 -33 c46 -18 125 -50 174 -71z m335 -32 l0 -95 -32 27 c-18 15
-42 31 -55 36 -21 8 -23 14 -23 88 l0 79 55 -21 55 -20 0 -94z m3932 116 c31
-15 62 -46 108 -107 36 -47 96 -116 133 -154 40 -40 67 -75 65 -85 -4 -22
-100 66 -191 177 -39 47 -93 109 -121 138 -28 28 -47 52 -43 52 3 0 26 -10 49
-21z m-5767 -89 c-24 -92 -123 -290 -146 -290 -18 0 -9 57 12 76 30 26 83 139
104 221 10 38 23 74 29 82 19 24 19 -20 1 -89z m201 73 c-6 -16 -184 -138
-192 -130 -2 1 5 17 16 34 17 28 168 128 178 118 2 -2 1 -12 -2 -22z m248 17
c14 -5 32 -23 41 -39 15 -31 21 -66 7 -45 -32 46 -120 59 -159 22 -17 -16 -23
-32 -23 -66 0 -58 19 -95 91 -181 55 -65 59 -74 53 -106 -8 -45 -18 -51 -33
-19 -6 14 -38 61 -72 105 -71 93 -98 150 -99 202 0 103 95 165 194 127z m1525
-325 l1 -160 -20 25 c-11 14 -37 67 -60 118 -39 91 -40 97 -40 206 l0 113 53
15 52 15 6 -86 c4 -47 7 -158 8 -246z m3429 311 c23 -12 23 -13 -19 -29 -23
-9 -43 -16 -44 -14 0 1 -9 14 -18 29 -9 15 -17 30 -17 34 0 9 70 -5 98 -20z
m-5519 -227 c-13 -21 -26 -39 -30 -39 -4 0 -8 58 -8 128 l-2 128 28 10 28 10
3 -99 c2 -86 0 -103 -19 -138z m3567 205 c90 -36 121 -54 94 -54 -25 0 -200
71 -200 81 0 14 10 12 106 -27z m-336 7 c0 -4 -100 -41 -222 -81 -123 -39
-255 -83 -295 -96 -77 -26 -93 -29 -93 -15 0 4 39 21 88 36 48 15 179 58 292
96 210 70 230 75 230 60z m2178 -3 c29 -29 12 -45 -105 -96 -65 -28 -152 -66
-193 -86 l-75 -35 -5 26 c-8 41 -27 39 -22 -2 4 -32 2 -35 -21 -35 -30 0 -321
100 -387 133 -38 18 -46 27 -48 55 -3 26 0 32 17 32 20 0 265 -83 365 -123
l59 -24 51 20 c28 12 116 49 196 83 169 72 153 67 168 52z m-5053 -15 c-5 -10
-11 -36 -15 -58 l-7 -40 -2 46 c0 25 4 50 11 57 17 17 21 15 13 -5z m5587 -96
c44 -50 49 -66 11 -39 -27 18 -142 74 -190 93 -16 6 -23 17 -23 33 l0 25 83
-35 c60 -25 92 -46 119 -77z m-5874 66 c-13 -50 -28 -65 -28 -28 0 23 23 65
36 65 1 0 -2 -17 -8 -37z m2867 25 c18 -8 22 -14 13 -20 -24 -15 -48 -9 -48
12 0 23 1 24 35 8z m573 -8 c43 -19 47 -23 47 -55 l0 -34 -26 28 c-14 15 -37
36 -52 46 -24 16 -36 35 -21 35 3 0 26 -9 52 -20z m2822 -22 c21 -42 41 -160
25 -146 -22 21 -68 188 -51 188 3 0 15 -19 26 -42z m-2910 20 c0 -11 -87 -21
-125 -14 -59 11 -39 21 45 21 44 0 80 -3 80 -7z m2287 -95 c-4 -58 -7 -191 -7
-295 l0 -188 -32 -20 c-18 -11 -37 -20 -43 -20 -7 0 -8 102 -5 295 l5 295 35
19 c19 11 39 20 44 20 5 1 6 -44 3 -106z m374 40 c16 -16 29 -45 33 -70 3 -24
5 -43 3 -43 -5 0 -137 169 -137 175 0 12 77 -35 101 -62z m-2929 -10 c-47 -47
-76 -86 -93 -125 -28 -68 -44 -77 -23 -14 9 25 14 55 12 68 -2 19 -9 23 -38
21 -84 -3 -161 -20 -182 -40 -13 -11 -36 -27 -53 -34 -18 -9 -31 -23 -33 -37
-2 -12 -6 -22 -10 -22 -14 0 -86 45 -86 54 -1 4 53 25 119 46 87 27 419 136
452 149 2 1 -28 -29 -65 -66z m-2917 -57 l-76 -78 52 81 c28 45 61 88 73 97
19 13 21 13 24 -4 2 -11 -25 -47 -73 -96z m319 106 c2 -4 -18 -22 -45 -40
l-49 -32 0 24 c0 14 10 32 22 40 24 17 64 21 72 8z m2710 -11 c3 -4 -6 -19
-20 -32 -14 -13 -30 -33 -36 -44 -6 -11 9 -1 33 21 41 39 49 42 109 47 36 2
73 7 82 11 23 10 118 -83 118 -116 0 -33 -8 -40 -79 -73 -80 -37 -150 -104
-180 -171 l-23 -51 -34 36 c-29 33 -147 101 -174 101 -14 0 -3 44 28 105 23
47 141 175 161 175 6 0 12 -4 15 -9z m2299 -182 c-5 -5 -115 -57 -246 -118
l-237 -109 0 57 0 58 139 64 c77 35 138 66 136 68 -2 2 -64 -24 -136 -58 -73
-33 -133 -60 -133 -58 -1 1 -7 12 -13 24 -10 17 -10 24 0 30 6 4 120 56 252
114 l240 107 3 -86 c2 -47 -1 -89 -5 -93z m32 -417 c-3 -3 -7 -3 -9 -1 -2 2
-1 139 3 304 l6 300 3 -299 c1 -164 0 -301 -3 -304z m-4990 571 c14 -11 15
-14 4 -10 -11 3 -33 -12 -65 -44 -36 -37 -51 -46 -61 -37 -23 19 -14 37 39 73
29 19 55 35 58 35 3 0 14 -8 25 -17z m3015 -5 c8 0 31 3 51 7 32 6 38 5 44
-15 4 -12 22 -28 41 -36 37 -16 43 -30 17 -38 -10 -3 -31 -17 -47 -31 -27 -24
-56 -33 -56 -18 0 3 12 22 26 42 l26 36 -37 -38 c-44 -46 -64 -43 -66 10 l-2
38 -6 -35 c-7 -40 -15 -32 -25 23 -4 21 -10 46 -13 54 -5 13 -2 15 13 8 10 -4
26 -8 34 -7z m320 -63 c91 -35 192 -75 225 -88 l60 -25 -30 -12 c-16 -6 -50
-15 -75 -20 -25 -5 -72 -20 -105 -34 -337 -141 -844 -328 -863 -317 -10 6 6
16 54 34 38 14 175 66 304 115 672 256 629 237 586 259 -15 8 -84 36 -155 63
-154 59 -201 81 -201 93 0 5 8 6 18 2 9 -4 91 -35 182 -70z m1856 59 c26 -11
87 -66 181 -162 127 -131 167 -182 143 -182 -10 0 -167 154 -250 246 -36 39
-78 80 -95 92 -36 26 -30 27 21 6z m-5597 -31 c-12 -21 -48 -75 -78 -121 -31
-45 -72 -108 -91 -139 l-34 -55 -9 27 c-8 23 -4 35 32 84 22 31 64 90 92 131
42 61 89 110 107 110 2 0 -7 -17 -19 -37z m1404 13 c8 -8 16 -44 20 -84 7 -87
39 -153 100 -209 61 -57 94 -69 211 -77 55 -4 121 -16 148 -26 166 -63 329
-329 411 -670 28 -112 47 -221 47 -259 0 -34 -3 -37 -57 -60 -60 -26 -165
-116 -188 -162 l-14 -27 -93 28 c-320 94 -647 318 -739 506 -32 64 -34 75 -34
164 1 52 3 133 5 180 3 72 1 93 -18 135 -41 91 -143 174 -214 175 -16 0 -33 9
-42 22 -13 18 -13 25 -1 55 58 137 289 310 432 322 6 1 18 -5 26 -13z m-1302
-39 c-5 -7 -29 -23 -53 -36 l-43 -24 50 52 c36 37 51 47 53 36 2 -9 -1 -22 -7
-28z m339 19 c0 -19 -10 -27 -55 -43 -30 -12 -55 -18 -55 -15 0 11 84 81 98
82 6 0 12 -11 12 -24z m4097 -41 c241 -89 220 -79 192 -91 -20 -9 -53 0 -206
59 -112 43 -183 75 -183 84 0 7 4 13 9 13 5 0 90 -29 188 -65z m1076 12 c26
-22 46 -42 43 -44 -10 -11 -115 63 -116 80 0 22 8 18 73 -36z m-3907 -30 c23
-26 54 -78 73 -123 18 -44 44 -96 58 -117 l25 -39 -34 7 c-18 4 -36 10 -39 14
-4 3 -23 46 -43 95 -44 110 -84 156 -136 156 -54 0 -83 -36 -90 -108 l-5 -57
-23 35 c-16 25 -20 43 -16 65 18 84 71 129 144 122 38 -4 51 -12 86 -50z
m4284 -39 c0 -59 -44 -13 -55 57 l-6 40 30 -35 c18 -20 31 -46 31 -62z m76
-33 c-19 -294 -17 -281 -38 -256 -20 26 -22 63 -12 259 l7 120 25 -11 c24 -11
25 -12 18 -112z m-6331 40 c-8 -87 4 -148 47 -243 15 -35 28 -80 27 -100 0
-36 -1 -35 -34 35 -57 120 -68 162 -67 248 0 74 13 135 28 135 3 0 3 -34 -1
-75z m415 50 c0 -8 -19 -27 -42 -43 -48 -32 -167 -102 -174 -102 -2 0 2 13 11
29 10 20 44 47 102 80 98 55 103 57 103 36z m2246 -25 c8 -19 20 -40 26 -48 7
-8 13 -21 14 -28 1 -8 25 -37 52 -63 32 -31 54 -63 61 -87 12 -43 5 -86 -14
-82 -36 8 -224 105 -225 115 0 6 -8 9 -19 6 -35 -9 -31 14 9 63 22 27 40 53
40 59 0 5 4 4 8 -3 5 -7 6 15 4 47 -4 52 -2 59 13 57 10 -1 24 -18 31 -36z
m1444 -44 l34 -13 -124 -48 c-116 -45 -125 -47 -134 -30 -6 10 -23 32 -37 49
-43 52 -43 63 1 86 21 11 41 24 44 29 3 5 45 -7 94 -26 48 -19 103 -40 122
-47z m1934 47 c36 -37 81 -103 70 -103 -6 0 -106 107 -117 126 -15 27 11 14
47 -23z m-2979 17 c-3 -5 -21 -12 -40 -16 -18 -3 -41 -15 -51 -25 -11 -12 -30
-19 -53 -19 l-36 0 26 25 c17 18 42 28 84 34 33 5 64 9 68 10 5 0 6 -3 2 -9z
m17 -46 c-36 -95 -35 -93 -42 -49 l-7 40 -2 -47 c-1 -38 -5 -48 -18 -49 -10 0
-28 -2 -41 -5 -21 -4 -125 46 -137 66 -8 12 13 22 27 14 24 -15 92 -3 121 22
16 13 39 24 51 24 13 0 31 9 41 20 26 29 28 19 7 -36z m2801 16 c60 -33 196
-150 174 -150 -3 0 -37 20 -74 44 -37 24 -94 58 -125 76 -39 21 -58 38 -58 51
0 10 2 19 5 19 3 0 38 -18 78 -40z m-5173 9 c0 -11 -10 -42 -21 -70 l-21 -49
-39 43 c-21 23 -38 45 -39 49 0 6 95 46 113 47 4 1 7 -8 7 -20z m5684 4 c3
-10 11 -25 17 -34 7 -9 9 -25 5 -35 -6 -16 -11 -14 -32 21 -13 22 -24 46 -24
53 0 18 27 14 34 -5z m-5959 -23 c-3 -5 -11 -10 -16 -10 -6 0 -7 5 -4 10 3 6
11 10 16 10 6 0 7 -4 4 -10z m2159 -9 c-5 -5 -60 -25 -121 -46 -62 -20 -113
-40 -113 -44 0 -7 382 -197 580 -289 67 -31 72 -36 50 -42 -20 -5 -85 23 -315
138 -159 80 -299 146 -310 148 -11 1 -38 12 -60 23 -47 23 -60 16 144 81 138
45 167 51 145 31z m1082 2 c14 -9 45 -17 69 -17 48 -1 52 -16 4 -16 -34 0 -93
22 -103 39 -10 16 1 14 30 -6z m-1786 -38 c0 -40 -1 -40 -41 -19 -30 15 -30
16 -13 35 9 10 25 19 36 19 14 0 18 -8 18 -35z m4290 -63 c0 -42 1 -43 -44 36
l-36 63 40 -31 c33 -26 40 -38 40 -68z m-5714 76 c4 -6 -5 -21 -22 -35 -37
-29 -184 -107 -183 -96 2 28 52 78 109 107 73 38 86 41 96 24z m1519 -109 c21
-49 36 -91 34 -94 -3 -2 -27 -1 -54 3 l-50 7 -3 104 c-3 103 -2 104 16 87 11
-9 37 -57 57 -107z m1655 115 c0 -4 -17 -22 -37 -41 l-38 -35 43 32 c38 29 45
31 74 21 17 -6 53 -11 79 -11 43 0 51 -4 73 -33 15 -19 26 -38 26 -43 0 -8
-423 -176 -469 -186 -8 -2 -19 9 -24 24 -13 35 28 120 87 176 54 53 186 121
186 96z m2196 -9 c10 -8 14 -15 8 -15 -5 0 -19 7 -30 15 -10 8 -14 15 -8 15 5
0 19 -7 30 -15z m-3278 -43 c-14 -15 -31 -36 -39 -48 l-14 -21 -50 23 c-31 15
-44 25 -35 28 65 25 156 53 159 50 3 -3 -7 -17 -21 -32z m3077 -99 l-7 -62
-225 -111 c-124 -60 -231 -110 -239 -110 -11 0 -14 21 -14 98 l0 98 133 59
c72 32 182 83 242 112 l110 53 3 -38 c2 -20 1 -65 -3 -99z m769 69 c17 -44 22
-103 8 -86 -15 16 -52 116 -52 137 0 19 2 19 14 7 7 -8 21 -34 30 -58z m-3636
34 c88 -45 121 -96 88 -138 -18 -25 -23 -23 -30 13 -3 18 -29 55 -62 90 -32
32 -54 59 -50 59 4 0 28 -11 54 -24z m3135 -39 c15 -17 27 -34 27 -38 0 -4
-29 7 -65 24 -52 24 -65 35 -65 53 0 22 1 23 38 8 20 -8 49 -29 65 -47z
m-5413 39 c0 -3 -4 -8 -10 -11 -5 -3 -10 -1 -10 4 0 6 5 11 10 11 6 0 10 -2
10 -4z m1383 -13 c14 -4 17 -17 17 -70 0 -60 -1 -63 -19 -53 -33 17 -51 52
-51 98 0 38 2 43 18 37 9 -4 25 -10 35 -12z m2447 -204 l0 -221 -30 -35 -30
-34 -17 38 c-12 29 -17 86 -21 239 l-5 200 39 16 c68 28 64 40 64 -203z m1677
129 c32 -39 101 -107 153 -151 95 -80 95 -80 96 -128 1 -48 23 -95 50 -106 15
-6 20 -33 5 -33 -36 0 -81 79 -81 143 0 18 -14 37 -52 68 -90 73 -138 121
-197 199 -76 101 -79 105 -52 91 11 -6 46 -44 78 -83z m-5843 23 c-15 -23 -29
-39 -32 -36 -3 2 8 23 23 45 36 53 45 44 9 -9z m63 -48 c-54 -86 -87 -114 -87
-76 0 36 45 108 89 141 24 18 46 30 49 28 3 -3 -20 -45 -51 -93z m217 62 c-13
-9 -20 -10 -23 -3 -2 6 5 17 15 25 13 9 20 10 22 3 2 -6 -4 -17 -14 -25z m37
-36 c-45 -42 -125 -101 -179 -133 -34 -20 22 56 61 82 23 16 67 50 97 75 37
31 58 43 65 36 7 -7 -7 -27 -44 -60z m2434 11 c-6 -9 -12 -6 -21 11 -20 36
-17 46 7 22 13 -12 18 -26 14 -33z m175 45 c0 -17 -70 -45 -110 -44 l-45 1 48
8 c27 5 58 15 70 24 23 15 37 20 37 11z m1505 -90 c116 -48 226 -92 245 -99
32 -12 35 -16 38 -59 2 -31 -1 -47 -9 -47 -6 0 -9 -8 -6 -20 4 -15 0 -20 -14
-20 -10 0 -33 -7 -52 -16 -32 -15 -36 -15 -85 6 -39 17 -52 28 -52 44 0 11 -5
28 -10 36 -8 13 -14 13 -44 -4 l-35 -19 -106 49 -105 48 0 99 c0 76 3 98 13
94 6 -3 107 -45 222 -92z m525 -291 c-6 -29 -8 -64 -4 -78 5 -21 3 -25 -9 -20
-8 3 -18 20 -21 38 -4 18 -17 43 -31 56 -25 23 -25 26 -25 180 l0 157 48 26
47 26 3 -167 c2 -98 -1 -188 -8 -218z m1130 318 c0 -68 18 -121 51 -155 34
-33 31 -46 -6 -29 -31 14 -60 73 -69 137 -4 28 -10 65 -13 84 -5 31 -4 32 16
22 17 -9 21 -21 21 -59z m-2074 -148 c-2 -7 -40 -26 -83 -42 -43 -17 -166 -67
-273 -112 -197 -83 -537 -220 -545 -220 -3 0 -5 53 -5 118 l0 117 53 19 c188
65 283 101 537 201 157 62 292 114 300 117 12 4 15 -11 18 -90 1 -53 1 -101
-2 -108z m44 62 c0 -86 -4 -147 -10 -151 -6 -4 -10 47 -10 144 0 94 4 151 10
151 6 0 10 -55 10 -144z m739 123 l51 -22 0 -153 0 -154 -27 0 -26 0 23 25
c21 23 22 25 5 31 -13 5 -25 -1 -41 -22 -15 -18 -27 -25 -33 -19 -12 14 -26
335 -13 335 5 0 32 -10 61 -21z m-2729 -70 c0 -70 -2 -80 -16 -75 -9 3 -18 6
-20 6 -7 0 -4 136 3 143 3 4 12 7 20 7 10 0 13 -20 13 -81z m-1849 28 c-29
-29 -36 -16 -9 18 14 18 23 24 26 16 2 -7 -5 -22 -17 -34z m1931 26 l38 -17 0
-114 0 -114 -42 43 c-42 42 -42 42 -46 131 -3 48 -1 88 3 88 5 0 26 -8 47 -17z
m872 -12 c67 -30 134 -89 161 -142 9 -17 13 -35 8 -39 -11 -10 -222 -90 -238
-90 -20 0 -265 119 -265 128 0 5 17 35 37 66 27 40 44 56 60 56 21 0 22 -1 7
-36 -8 -20 -13 -38 -11 -40 3 -3 11 13 20 34 13 32 23 41 59 51 23 7 52 19 63
27 26 18 26 18 99 -15z m2894 -14 c39 -26 82 -79 82 -100 0 -12 -76 55 -118
104 -39 45 -35 45 36 -4z m189 11 c-3 -8 -6 -5 -6 6 -1 11 2 17 5 13 3 -3 4
-12 1 -19z m-5989 -115 c-33 -65 -67 -127 -74 -138 -13 -18 -14 -18 -14 11 0
53 110 242 142 244 4 0 -21 -53 -54 -117z m2112 -30 c0 -93 -3 -133 -10 -123
-13 20 -13 260 0 260 6 0 10 -52 10 -137z m-2270 77 c0 -55 -10 -64 -28 -24
-10 21 -9 29 5 49 10 14 19 25 21 25 1 0 2 -22 2 -50z m2838 -340 c1 -62 -1
-110 -5 -108 -4 2 -53 26 -108 55 -55 28 -174 90 -265 137 l-165 85 -3 61 c-3
60 -2 62 20 56 l23 -6 -22 11 c-19 10 -23 21 -23 55 l0 43 273 -139 272 -139
3 -111z m-2736 294 c-29 -55 -38 -64 -40 -46 -3 20 64 129 74 119 2 -2 -13
-35 -34 -73z m248 42 c0 -22 -29 -41 -42 -28 -9 9 -7 17 7 32 18 20 35 18 35
-4z m5745 -43 c3 -15 16 -40 27 -56 20 -28 20 -29 1 -19 -27 15 -39 31 -62 85
l-20 47 23 -16 c13 -8 27 -27 31 -41z m193 -61 c-3 -26 -4 -25 -26 15 -12 23
-22 57 -22 75 l1 33 25 -48 c14 -27 24 -60 22 -75z m-6391 41 c24 -62 39 -133
29 -133 -11 0 -52 103 -59 148 -10 59 4 52 30 -15z m5623 -50 l0 -88 -189 -97
c-162 -83 -193 -96 -217 -89 l-29 8 32 19 c32 19 42 38 24 48 -4 3 -17 -1 -27
-9 -26 -19 -29 -19 -30 8 0 12 -4 33 -8 47 -6 24 1 29 211 132 120 58 221 107
226 107 4 1 7 -38 7 -86z m-5490 32 c7 -9 10 -18 7 -21 -7 -8 -47 14 -47 26 0
15 26 12 40 -5z m4408 -90 c2 -1 -3 -21 -10 -43 l-12 -40 -23 24 c-24 26 -53
32 -53 11 0 -7 14 -23 30 -35 65 -49 24 -56 -67 -12 l-63 29 0 80 0 80 98 -46
c53 -25 98 -46 100 -48z m1852 -15 c0 -5 -4 -12 -10 -15 -11 -7 -40 57 -40 89
0 16 7 10 25 -23 14 -23 25 -47 25 -51z m-6265 67 c16 5 29 -92 23 -172 l-3
-50 -21 35 c-25 40 -46 215 -24 193 7 -6 18 -9 25 -6z m4035 -26 c0 -16 -5
-52 -12 -79 -11 -50 -11 -50 -45 -45 -41 7 -112 -19 -142 -51 l-23 -24 24 -15
c33 -22 97 -30 146 -19 23 6 42 9 42 7 0 -8 -159 -76 -457 -195 -178 -72 -349
-142 -380 -155 -30 -14 -57 -25 -59 -25 -2 0 -4 61 -4 135 0 120 2 136 18 142
62 21 727 290 832 337 50 22 60 20 60 -13z m-2765 -23 c23 -23 25 -29 10 -23
-11 4 -45 10 -76 12 -52 5 -57 3 -77 -22 -54 -68 -8 -150 135 -242 50 -32 53
-36 53 -75 l0 -41 -48 44 c-27 24 -74 63 -105 86 -79 59 -112 112 -112 180 0
44 4 57 27 79 51 52 144 53 193 2z m4914 6 c2 -2 0 -34 -4 -71 l-7 -68 -19 24
c-13 16 -19 39 -19 78 0 52 1 54 23 47 12 -3 24 -8 26 -10z m-1699 -38 c0 -29
-7 -52 -21 -70 -28 -36 -32 -28 -14 24 21 61 17 63 -11 5 l-24 -50 6 40 c4 32
45 95 61 95 2 0 3 -20 3 -44z m-4602 -29 c11 -28 23 -60 27 -69 4 -10 3 -18
-3 -18 -12 0 -47 74 -55 118 -10 48 8 31 31 -31z m61 0 c2 -78 100 -185 239
-262 120 -67 172 -103 172 -120 0 -20 -3 -19 -46 10 -21 14 -80 49 -133 78
-165 90 -252 197 -250 308 0 39 3 49 9 34 5 -11 9 -33 9 -48z m2604 -100 l267
-138 0 -135 0 -134 -57 32 c-32 18 -123 67 -203 109 l-145 77 -72 143 c-64
127 -89 197 -65 187 4 -1 128 -65 275 -141z m3717 65 c12 -29 13 -72 2 -72 -5
0 -14 17 -20 39 -7 21 -19 44 -27 51 -8 7 -15 24 -15 39 l0 26 25 -30 c14 -16
30 -40 35 -53z m-3255 51 c40 13 75 12 75 -2 0 -4 -27 -17 -61 -29 l-61 -22
-49 21 c-27 12 -49 25 -49 29 0 15 35 17 70 3 30 -11 42 -11 75 0z m1063 -42
c0 -28 6 -60 13 -73 l11 -23 -22 21 c-22 22 -37 90 -26 119 11 29 23 7 24 -44z
m-2781 22 c15 -10 31 -33 35 -49 10 -38 -1 -154 -16 -154 -21 1 -131 86 -153
119 -25 37 -30 80 -10 100 18 19 112 9 144 -16z m3291 -5 c32 -9 32 -9 17 -39
-15 -28 -17 -29 -38 -14 -12 8 -29 15 -39 15 -20 0 -21 4 -12 38 5 16 11 21
23 16 9 -3 31 -10 49 -16z m-1628 -443 c0 -212 -3 -385 -6 -385 -4 0 -28 12
-55 27 l-49 26 0 117 c0 64 -3 239 -7 389 l-6 273 61 -31 62 -31 0 -385z m150
53 l0 -393 -57 -25 c-31 -14 -60 -26 -65 -28 -4 -2 -8 174 -8 390 l0 394 63
26 c34 14 63 26 65 27 1 0 2 -176 2 -391z m1644 386 c24 -9 20 -37 -4 -29 -24
8 -25 2 -4 -19 17 -18 69 -22 79 -6 3 6 -3 10 -15 10 -36 0 -17 25 22 28 38 3
72 -19 82 -53 4 -16 -4 -24 -44 -42 -40 -17 -54 -30 -71 -67 -22 -44 -23 -45
-50 -30 -15 8 -44 14 -64 14 l-36 0 17 30 c24 40 8 52 -22 17 -21 -24 -24 -25
-24 -9 0 11 -3 34 -6 51 -6 27 -1 36 34 71 39 39 68 48 106 34z m-4620 -124
c26 -49 43 -90 39 -90 -15 0 -51 38 -59 62 -3 12 -20 43 -35 69 -16 25 -29 54
-29 64 0 33 33 -8 84 -105z m4896 91 c5 -11 10 -35 9 -53 -1 -31 -1 -31 -9 -8
-8 25 -8 24 -9 -5 -2 -47 -21 -9 -21 43 0 45 13 55 30 23z m1210 -34 c0 -5 -7
-4 -15 3 -8 7 -15 20 -15 29 1 13 3 13 15 -3 8 -11 15 -24 15 -29z m-1963 17
c46 -18 53 -33 26 -55 -14 -12 -17 -12 -21 1 -3 8 -19 27 -35 43 -34 31 -29
33 30 11z m-4382 -56 c25 -53 33 -108 16 -108 -13 0 -51 95 -51 129 0 17 2 31
5 31 3 0 17 -24 30 -52z m4130 43 c3 -6 -9 -8 -29 -4 -18 3 -42 0 -52 -6 -15
-8 -7 -10 41 -11 39 0 56 -3 49 -10 -15 -15 -97 -24 -141 -15 l-38 7 30 24
c23 18 42 24 82 24 28 0 54 -4 58 -9z m508 -2 c29 -13 44 -37 55 -86 l9 -38
-46 -1 c-55 0 -91 -22 -116 -68 -19 -35 -45 -39 -45 -6 0 10 -7 23 -15 30 -8
7 -15 29 -15 50 0 21 -7 43 -15 50 -25 21 9 50 59 50 23 0 50 7 60 15 24 18
37 19 69 4z m-293 -24 c20 -24 8 -49 -28 -56 -26 -5 -35 -3 -43 13 -21 39 42
78 71 43z m2019 -100 c-1 -28 -2 -26 -24 20 -13 28 -24 61 -24 75 0 21 4 18
24 -20 13 -25 24 -58 24 -75z m-6178 63 l21 -43 -26 24 c-14 14 -26 33 -26 43
0 28 8 22 31 -24z m-112 -42 c35 -78 89 -132 178 -179 38 -20 79 -50 92 -68
13 -17 20 -30 15 -28 -152 67 -272 161 -298 233 -16 45 -28 106 -21 106 3 0
18 -29 34 -64z m6209 -20 c-2 -46 -7 -61 -18 -61 -12 0 -16 15 -18 67 -3 63
-2 66 18 61 19 -5 21 -12 18 -67z m-1195 42 c9 -5 17 -18 17 -30 0 -17 -2 -18
-15 -8 -23 19 -31 3 -10 -20 19 -20 75 -28 75 -10 0 6 -7 10 -16 10 -27 0 -9
25 21 28 112 13 132 -163 25 -218 -38 -19 -177 -60 -205 -60 -6 0 -20 6 -30
14 -16 12 -19 25 -17 78 2 41 -3 73 -13 91 -12 24 -13 33 -1 60 32 75 99 101
169 65z m-854 -7 c10 -7 11 -16 4 -37 -11 -32 -45 -43 -69 -24 -41 35 18 91
65 61z m199 -3 c20 -20 13 -43 -17 -55 -27 -10 -30 -9 -41 18 -7 15 -9 33 -5
38 8 15 48 14 63 -1z m-305 -18 c-3 -11 -13 -20 -22 -20 -42 0 -70 -63 -74
-166 -2 -41 -3 -42 -62 -67 -33 -14 -130 -56 -215 -92 -85 -37 -198 -84 -250
-105 -52 -21 -130 -54 -173 -74 -43 -20 -82 -36 -88 -36 -5 0 -9 29 -9 65 0
45 4 65 13 65 9 0 9 2 -1 9 -8 5 -12 21 -10 41 l3 33 340 137 c187 75 385 157
440 182 55 26 103 47 107 47 3 1 4 -8 1 -19z m-3991 -44 c10 -19 10 -20 -6 -7
-9 8 -22 24 -28 35 -10 19 -10 20 6 7 9 -8 22 -24 28 -35z m4198 26 c40 -33
-4 -88 -55 -68 -21 8 -19 62 3 75 23 14 27 14 52 -7z m-4335 -42 c8 -16 15
-46 14 -67 l-1 -38 -19 40 c-17 36 -26 95 -14 95 2 0 11 -13 20 -30z m4693 14
c13 -4 22 -14 22 -25 0 -12 -5 -16 -15 -13 -26 10 -16 -12 10 -24 17 -8 33 -8
50 -2 30 11 34 30 5 23 -14 -4 -20 0 -20 11 0 22 42 30 85 16 45 -15 75 -61
75 -113 0 -40 -33 -115 -53 -122 -7 -2 -66 -6 -132 -10 l-120 -6 -19 31 c-22
38 -32 135 -17 172 11 29 64 68 91 68 8 0 25 -3 38 -6z m-546 -16 c14 -11 14
-17 2 -45 -21 -49 -74 -40 -74 12 0 40 40 58 72 33z m-4073 -60 c33 -73 70
-111 160 -165 35 -22 71 -49 79 -62 15 -22 15 -22 -14 -9 -122 54 -220 142
-248 225 -32 92 -17 99 23 11z m198 -18 c18 -23 9 -23 -34 -1 -54 29 -73 46
-73 64 0 13 10 10 47 -16 26 -17 53 -39 60 -47z m4188 63 c16 -15 15 -17 -9
-30 -23 -12 -28 -11 -46 7 -24 24 -25 27 -2 33 32 9 40 7 57 -10z m-3930 -14
c11 -17 2 -18 -25 -4 -24 14 -24 14 -3 15 12 0 25 -5 28 -11z m3721 -10 c22
-24 10 -52 -25 -57 -41 -6 -67 38 -39 66 18 18 43 15 64 -9z m-3708 -112 c1
-48 -1 -87 -5 -87 -5 0 -19 7 -31 16 -20 13 -22 24 -22 94 l0 78 28 -7 c27 -7
27 -9 30 -94z m3850 66 c2 -25 -1 -33 -18 -38 -26 -8 -50 10 -50 40 0 29 9 37
40 33 20 -2 26 -9 28 -35z m902 -3 c-15 -28 -20 -23 -13 13 4 18 9 25 15 19 6
-6 6 -18 -2 -32z m-1003 8 c-3 -8 -6 -5 -6 6 -1 11 2 17 5 13 3 -3 4 -12 1
-19z m-1563 -90 l194 -103 5 -105 c2 -58 3 -107 1 -109 -2 -2 -80 38 -174 89
-143 77 -171 97 -176 119 -3 14 -16 66 -30 114 -26 96 -26 97 -18 97 3 0 92
-46 198 -102z m1776 83 c15 -29 13 -39 -15 -57 -24 -16 -27 -16 -45 1 -24 22
-25 38 -4 59 21 22 51 20 64 -3z m-4369 -23 c11 -21 11 -22 -4 -9 -10 7 -17
17 -17 22 0 15 9 10 21 -13z m279 -64 c43 -42 92 -78 142 -103 42 -21 89 -53
104 -70 l27 -33 -39 17 c-92 38 -193 104 -256 166 -36 37 -72 77 -78 89 -11
20 -10 21 12 10 13 -7 52 -41 88 -76z m3690 60 c0 -17 -12 -18 -28 -2 -18 18
-15 27 8 21 11 -3 20 -12 20 -19z m60 6 c0 -5 11 -12 25 -16 18 -4 25 -13 25
-30 0 -29 0 -29 -45 -7 -25 12 -35 23 -35 40 0 14 6 23 15 23 8 0 15 -4 15
-10z m-4029 -114 c24 -20 64 -48 89 -62 25 -14 55 -40 68 -60 l23 -35 -59 30
c-114 58 -193 138 -217 221 -6 19 -1 16 23 -16 16 -22 49 -57 73 -78z m4178
80 c15 -16 21 -31 17 -44 -6 -17 -12 -19 -43 -12 -40 9 -54 25 -45 49 13 37
40 40 71 7z m-4103 -17 c19 -11 39 -30 45 -41 10 -18 9 -19 -13 -7 -40 21 -78
50 -78 60 0 13 9 11 46 -12z m5078 -23 c-13 -37 -23 -47 -67 -69 l-52 -26 -6
32 -5 32 -8 -37 c-9 -39 -17 -44 -114 -72 l-54 -15 7 42 c4 23 8 42 9 43 0 0
39 10 86 23 47 12 112 37 145 56 33 18 63 34 67 34 4 1 0 -19 -8 -43z m-1064
-37 c120 -39 228 -52 430 -53 107 -1 225 2 261 7 l67 7 -8 -36 c-11 -46 -19
-51 -100 -59 -101 -10 -104 -14 -7 -12 48 1 87 0 87 -3 -1 -3 -9 -21 -18 -40
-14 -29 -25 -37 -67 -46 l-50 -12 43 -1 c41 -1 42 -2 31 -23 -11 -22 -10 -22
17 3 16 14 49 30 74 36 25 7 53 15 64 19 15 6 14 1 -8 -33 -29 -44 -54 -54
-166 -72 -97 -16 -305 -13 -399 4 -70 14 -86 21 -111 48 -15 18 -28 33 -27 33
7 7 124 -19 132 -29 6 -7 19 -19 30 -27 16 -11 17 -11 8 0 -23 25 -14 30 50
31 l62 2 -75 11 c-68 10 -76 14 -97 45 -13 19 -23 38 -23 44 0 5 33 8 80 5 44
-2 80 0 80 4 0 5 -17 8 -39 8 -21 0 -59 3 -85 6 -41 6 -49 11 -61 40 -17 42
-27 44 -15 4 7 -24 6 -30 -7 -30 -33 0 -153 41 -153 53 -1 7 -7 26 -15 42
l-15 30 5 -37 c3 -21 3 -38 0 -38 -24 0 -107 55 -120 80 -29 56 -21 63 37 34
29 -15 77 -35 108 -45z m215 20 c0 -26 -21 -35 -61 -25 -31 8 -32 39 -2 60 19
13 25 14 43 2 11 -7 20 -24 20 -37z m-3984 24 c13 -16 12 -17 -3 -4 -10 7 -18
15 -18 17 0 8 8 3 21 -13z m4084 -23 c21 -40 20 -40 -25 -40 -38 0 -40 2 -40
29 0 48 42 55 65 11z m-4465 -55 c1 -21 62 -90 115 -130 54 -40 95 -85 77 -85
-20 0 -130 80 -164 120 -35 40 -68 114 -68 149 0 17 40 -36 40 -54z m600 -32
c180 -188 217 -210 424 -244 158 -26 216 -45 216 -70 0 -22 -4 -23 -29 -10
-10 6 -78 22 -152 36 -260 51 -284 64 -451 238 -107 110 -134 147 -109 147 4
0 50 -44 101 -97z m-342 58 c15 -16 47 -52 71 -81 53 -62 126 -113 201 -139
30 -11 61 -29 69 -41 14 -20 13 -21 -15 -14 -51 12 -154 62 -205 100 -45 33
-106 104 -154 177 -24 37 -2 36 33 -2z m4587 9 c3 -5 -1 -10 -10 -10 -9 0 -13
5 -10 10 3 6 8 10 10 10 2 0 7 -4 10 -10z m-4454 -77 c6 -6 9 -22 7 -35 -3
-21 -7 -19 -50 26 -27 27 -48 54 -48 58 0 11 76 -30 91 -49z m454 35 c3 -13 5
-64 3 -115 l-3 -92 -25 19 c-23 17 -25 26 -28 114 l-4 96 26 0 c18 0 27 -6 31
-22z m4325 -33 c-17 -35 -33 -51 -71 -70 -26 -14 -50 -25 -53 -25 -2 0 3 18
12 41 12 32 26 46 63 65 26 13 51 29 54 34 4 6 9 9 12 6 3 -3 -5 -26 -17 -51z
m-1000 -66 c11 -21 20 -40 20 -43 0 -7 -62 15 -88 32 -20 13 -72 88 -72 105 0
3 27 -8 60 -25 46 -23 65 -39 80 -69z m-4105 60 c11 -17 -1 -21 -15 -4 -8 9
-8 15 -2 15 6 0 14 -5 17 -11z m1373 -21 c8 -39 -227 -118 -262 -88 -24 19
-19 30 13 30 39 0 149 35 186 59 35 23 58 23 63 -1z m-968 -50 c0 -29 -1 -30
-22 -16 -14 10 -24 28 -26 47 l-3 32 25 -16 c18 -12 26 -26 26 -47z m4578 45
c-38 -79 -40 -81 -105 -98 -35 -10 -66 -15 -69 -12 -3 3 3 22 14 43 17 33 26
39 83 55 77 20 81 21 77 12z m-4920 -31 c20 -30 11 -28 -19 4 -13 15 -18 25
-10 22 8 -2 21 -14 29 -26z m195 -30 c65 -57 170 -122 199 -122 8 0 27 -13 43
-30 16 -16 26 -30 23 -30 -17 0 -139 57 -187 88 -56 35 -161 129 -161 143 0
19 19 7 83 -49z m3945 38 c47 -11 55 -16 73 -52 11 -22 18 -42 16 -45 -8 -8
-118 25 -135 41 -10 8 -26 29 -36 47 l-19 32 24 -6 c14 -3 48 -11 77 -17z
m-4018 -85 c11 -18 47 -57 78 -87 67 -61 135 -93 322 -147 110 -32 125 -39
128 -59 3 -22 2 -23 -25 -9 -15 8 -84 31 -153 52 -165 49 -254 93 -314 152
-42 42 -126 153 -126 167 0 15 72 -40 90 -69z m310 2 c-3 -2 -20 2 -37 9 -26
11 -33 20 -33 41 l0 28 37 -37 c20 -21 35 -39 33 -41z m60 13 c0 -5 25 -36 56
-69 38 -41 77 -71 118 -90 60 -29 176 -61 219 -61 26 0 91 -49 66 -50 -9 0
-61 9 -115 20 -104 22 -200 61 -259 106 -33 25 -165 176 -165 189 0 3 18 -4
40 -15 22 -11 40 -25 40 -30z m-570 16 c24 -26 22 -56 -4 -56 -18 0 -36 30
-36 59 0 28 11 26 40 -3z m5025 -23 c-22 -19 -58 -44 -79 -55 l-39 -20 32 41
c29 37 108 85 121 74 3 -3 -13 -21 -35 -40z m-4305 17 c0 -5 -2 -10 -4 -10 -3
0 -8 5 -11 10 -3 6 -1 10 4 10 6 0 11 -4 11 -10z m3460 -45 c14 -12 36 -30 50
-39 l25 -18 -25 7 c-51 15 -140 70 -140 86 0 13 63 -12 90 -36z m-3882 -20
c29 -21 52 -47 52 -57 0 -10 -2 -18 -5 -18 -10 0 -106 94 -117 113 -12 23 -5
19 70 -38z m390 -19 c23 -16 42 -33 42 -37 0 -20 -24 -7 -68 37 -49 48 -44 48
26 0z m182 24 c14 -11 20 -20 13 -20 -21 0 -63 19 -63 30 0 16 23 11 50 -10z
m390 -30 c0 -5 -9 -10 -20 -10 -11 0 -20 5 -20 10 0 6 9 10 20 10 11 0 20 -4
20 -10z m-4 -30 c11 0 14 -17 14 -75 0 -72 -1 -75 -24 -75 -21 0 -24 6 -30 53
-10 88 -8 110 10 103 9 -3 22 -6 30 -6z m-855 -10 c10 -6 19 -18 19 -26 0 -23
-31 -13 -41 14 -9 25 -6 27 22 12z m219 -30 c19 -15 53 -38 75 -52 44 -27 175
-78 203 -78 24 0 122 -47 122 -58 0 -10 -120 16 -215 48 -34 11 -90 38 -123
58 -64 39 -142 102 -142 113 0 14 45 -4 80 -31z m176 16 c10 -8 16 -18 12 -22
-10 -9 -58 12 -58 26 0 14 23 12 46 -4z m-286 -27 c50 -18 134 -68 128 -75 -2
-1 -46 12 -98 29 -67 23 -96 37 -98 50 -4 22 1 21 68 -4z m439 -24 c15 -15 14
-16 -9 -11 -14 4 -43 10 -65 14 -25 5 -41 14 -43 24 -3 15 2 15 49 3 29 -8 59
-21 68 -30z m1545 29 c4 -9 5 -17 4 -18 -2 -1 -21 -10 -42 -19 -58 -27 -154
-104 -183 -148 -29 -44 -38 -47 -53 -18 -10 18 -3 29 62 93 65 65 160 126 194
126 6 0 15 -7 18 -16z m-1412 -67 c77 -52 168 -78 201 -57 22 13 32 7 24 -15
-9 -22 -91 -20 -161 5 -48 16 -186 104 -186 118 0 14 65 -13 122 -51z m90 7
c28 -14 38 -34 18 -34 -16 0 -78 27 -103 46 -21 16 -21 16 18 9 21 -4 52 -13
67 -21z m188 -56 c0 -10 -3 -18 -7 -17 -16 1 -64 69 -58 80 10 15 65 -39 65
-63z m1131 43 c-50 -70 -221 -193 -221 -159 0 19 106 121 164 157 65 40 84 41
57 2z m-2087 -17 c10 -4 16 -18 16 -40 0 -27 -4 -34 -20 -34 -17 0 -20 7 -20
40 0 43 0 43 24 34z m321 -114 c55 -27 141 -59 190 -71 50 -12 101 -29 115
-39 14 -9 32 -20 40 -23 34 -12 -19 -7 -106 12 -163 35 -256 74 -356 149 -27
20 -48 37 -48 39 0 7 77 -24 165 -67z m417 20 c61 -31 92 -40 130 -40 42 0 49
-3 46 -17 -5 -29 -67 -28 -145 3 -62 25 -173 90 -173 102 0 12 70 -12 142 -48z
m-351 30 c12 -7 19 -21 19 -40 0 -28 -1 -29 -25 -18 -14 6 -25 17 -25 24 0 7
-3 19 -6 28 -7 18 8 21 37 6z m122 -35 c31 -8 87 -33 122 -56 86 -54 193 -99
247 -102 35 -2 43 -7 43 -23 0 -44 -129 -10 -270 72 -44 26 -111 64 -150 85
-77 43 -76 46 8 24z m397 0 c-15 -18 -63 -18 -110 0 -34 13 -33 13 44 14 69 1
77 -1 66 -14z m-377 -65 c5 -4 -16 -1 -47 8 -43 12 -56 20 -56 35 0 18 3 17
48 -8 26 -15 51 -31 55 -35z m195 9 c34 -17 62 -37 62 -45 0 -16 -43 1 -120
48 -64 39 -21 37 58 -3z m132 -60 c0 -15 -4 -19 -16 -15 -9 3 -18 6 -20 6 -2
0 -4 7 -4 15 0 8 9 15 20 15 14 0 20 -7 20 -21z m-459 1 c5 0 9 -12 9 -26 0
-21 -4 -25 -22 -22 -17 2 -24 11 -26 32 -3 23 0 28 13 22 9 -3 21 -6 26 -6z
m443 -106 c10 -4 16 -18 16 -41 0 -27 -4 -34 -17 -31 -13 2 -19 14 -21 41 -3
39 -3 40 22 31z"/>
<path d="M5360 3730 c6 -11 13 -20 16 -20 2 0 0 9 -6 20 -6 11 -13 20 -16 20
-2 0 0 -9 6 -20z"/>
<path d="M5810 3695 c-7 -9 -11 -17 -9 -20 3 -2 10 5 17 15 14 24 10 26 -8 5z"/>
<path d="M5319 3598 c-17 -24 -18 -29 -6 -19 18 14 42 51 33 51 -3 0 -15 -15
-27 -32z"/>
<path d="M5850 3550 c6 -11 13 -20 16 -20 2 0 0 9 -6 20 -6 11 -13 20 -16 20
-2 0 0 -9 6 -20z"/>
<path d="M5538 3495 c-4 -16 -9 -39 -12 -50 -4 -11 1 -5 9 14 9 18 14 41 13
50 -2 9 -7 3 -10 -14z"/>
<path d="M5150 3485 c35 -37 46 -44 34 -22 -13 23 -47 57 -58 57 -5 0 5 -16
24 -35z"/>
<path d="M6253 3400 c0 -36 2 -50 4 -32 2 17 2 47 0 65 -2 17 -4 3 -4 -33z"/>
<path d="M4532 3460 c0 -19 2 -27 5 -17 2 9 2 25 0 35 -3 9 -5 1 -5 -18z"/>
<path d="M4805 3370 c27 -12 43 -12 25 0 -8 5 -22 9 -30 9 -10 0 -8 -3 5 -9z"/>
<path d="M4860 3352 c8 -5 26 -13 40 -16 17 -5 20 -4 10 2 -8 5 -26 13 -40 16
-17 5 -20 4 -10 -2z"/>
<path d="M6454 3319 c-15 -25 83 -48 132 -32 32 11 41 28 20 36 -10 4 -13 1
-9 -9 4 -11 -5 -14 -45 -14 -61 0 -90 9 -70 21 10 7 9 9 -4 9 -9 0 -20 -5 -24
-11z"/>
<path d="M6481 3249 c17 -11 106 -12 112 -1 3 4 -24 8 -60 8 -40 1 -60 -2 -52
-7z"/>
<path d="M6610 3124 c-39 -11 -41 -12 -15 -13 17 0 41 6 55 14 30 17 21 17
-40 -1z"/>
<path d="M3350 3242 c8 -5 26 -13 40 -16 17 -5 20 -4 10 2 -8 5 -26 13 -40 16
-17 5 -20 4 -10 -2z"/>
<path d="M3430 3210 c8 -5 20 -10 25 -10 6 0 3 5 -5 10 -8 5 -19 10 -25 10 -5
0 -3 -5 5 -10z"/>
<path d="M3920 3020 c8 -5 20 -10 25 -10 6 0 3 5 -5 10 -8 5 -19 10 -25 10 -5
0 -3 -5 5 -10z"/>
<path d="M2822 3243 c-35 -8 -62 -17 -59 -19 2 -3 24 0 48 5 24 6 60 10 79 10
33 0 34 0 15 -15 -60 -46 -251 -120 -333 -130 l-47 -5 30 25 c17 14 53 38 82
53 28 15 50 29 48 31 -7 7 -143 -70 -166 -94 -20 -21 -21 -27 -9 -35 38 -25
234 28 354 95 71 40 91 59 82 81 -7 18 -41 18 -124 -2z"/>
<path d="M5322 3125 c0 -16 2 -22 5 -12 2 9 2 23 0 30 -3 6 -5 -1 -5 -18z"/>
<path d="M5452 3145 c0 -16 2 -22 5 -12 2 9 2 23 0 30 -3 6 -5 -1 -5 -18z"/>
<path d="M6018 3173 c-57 -15 40 -48 115 -40 60 8 72 14 56 33 -13 16 -34 19
-24 5 8 -14 -59 -24 -102 -16 -32 6 -35 9 -18 15 21 9 2 11 -27 3z"/>
<path d="M6027 3098 c2 -5 35 -8 73 -8 38 0 71 3 73 8 3 4 -30 7 -73 7 -43 0
-76 -3 -73 -7z"/>
<path d="M4812 3050 c0 -19 2 -27 5 -17 2 9 2 25 0 35 -3 9 -5 1 -5 -18z"/>
<path d="M6320 3125 c0 -19 33 -27 101 -23 40 2 54 7 54 18 0 8 -9 16 -20 18
-15 2 -16 1 -7 -6 11 -7 8 -11 -10 -15 -30 -8 -99 3 -92 14 3 5 -2 9 -10 9 -9
0 -16 -7 -16 -15z"/>
<path d="M6372 3058 c24 -6 48 -6 65 0 23 7 17 9 -37 9 -61 0 -62 0 -28 -9z"/>
<path d="M6363 2893 c20 -2 54 -2 75 0 20 2 3 4 -38 4 -41 0 -58 -2 -37 -4z"/>
<path d="M7200 3010 c-8 -5 -10 -10 -5 -10 6 0 17 5 25 10 8 5 11 10 5 10 -5
0 -17 -5 -25 -10z"/>
<path d="M7140 2985 c-14 -8 -20 -14 -15 -14 6 0 21 6 35 14 14 8 21 14 15 14
-5 0 -21 -6 -35 -14z"/>
<path d="M7073 2923 c-35 -15 -61 -28 -58 -31 4 -4 145 48 145 55 0 8 -30 0
-87 -24z"/>
<path d="M6990 2925 c-19 -7 -28 -14 -20 -14 8 0 29 6 45 14 39 17 21 18 -25
0z"/>
<path d="M2980 2957 c0 -35 77 -135 123 -158 12 -6 3 5 -21 26 -24 21 -56 60
-72 89 -17 28 -30 47 -30 43z"/>
<path d="M2666 2875 c4 -11 15 -54 25 -95 l19 -75 -6 60 c-3 33 -15 76 -26 95
-10 19 -16 26 -12 15z"/>
<path d="M2640 2513 c-7 -16 -14 -59 -16 -98 l-3 -70 9 65 c4 36 13 78 19 94
15 38 8 44 -9 9z"/>
<path d="M2721 2100 c37 -80 207 -274 311 -355 52 -40 45 -32 -40 49 -85 82
-216 233 -270 312 -10 16 -11 15 -1 -6z"/>
<path d="M3630 2910 c8 -5 20 -10 25 -10 6 0 3 5 -5 10 -8 5 -19 10 -25 10 -5
0 -3 -5 5 -10z"/>
<path d="M3680 2890 c8 -5 20 -10 25 -10 6 0 3 5 -5 10 -8 5 -19 10 -25 10 -5
0 -3 -5 5 -10z"/>
<path d="M3730 2872 c8 -5 26 -13 40 -16 17 -5 20 -4 10 2 -8 5 -26 13 -40 16
-17 5 -20 4 -10 -2z"/>
<path d="M4450 2985 c-36 -13 -60 -24 -54 -24 13 -1 134 39 134 45 0 7 -12 4
-80 -21z"/>
<path d="M5930 2820 c19 -11 40 -19 45 -19 6 0 -6 8 -25 19 -19 11 -39 19 -45
19 -5 0 6 -8 25 -19z"/>
<path d="M6605 2541 c22 -11 54 -22 70 -26 18 -3 9 3 -20 15 -68 27 -100 34
-50 11z"/>
<path d="M4652 2813 c-24 -8 -41 -17 -39 -19 4 -5 97 26 97 32 0 6 -11 4 -58
-13z"/>
<path d="M3883 2830 c0 -30 2 -43 4 -27 2 15 2 39 0 55 -2 15 -4 2 -4 -28z"/>
<path d="M6580 2825 c0 -3 20 -14 45 -25 56 -24 319 -120 328 -120 17 0 5 19
-15 25 -13 4 -88 31 -168 60 -169 62 -190 68 -190 60z"/>
<path d="M7654 2625 c0 -66 1 -92 3 -57 2 34 2 88 0 120 -2 31 -3 3 -3 -63z"/>
<path d="M5410 2774 c33 -56 46 -66 21 -17 -11 23 -26 45 -33 49 -6 4 -1 -10
12 -32z"/>
<path d="M5275 2753 c-8 -20 -13 -38 -10 -41 3 -3 5 -3 5 0 0 3 7 22 15 42 8
20 13 36 10 36 -2 0 -12 -16 -20 -37z"/>
<path d="M5108 2578 c16 -21 74 -48 99 -47 10 0 2 5 -17 11 -19 5 -48 19 -65
31 -19 14 -25 15 -17 5z"/>
<path d="M7460 2660 c-9 -6 -10 -10 -3 -10 6 0 15 5 18 10 8 12 4 12 -15 0z"/>
<path d="M7380 2625 c-14 -8 -20 -14 -15 -14 6 0 21 6 35 14 14 8 21 14 15 14
-5 0 -21 -6 -35 -14z"/>
<path d="M3494 2706 c-127 -58 -275 -188 -310 -271 -19 -48 -18 -47 40 33 54
73 178 169 284 220 39 19 72 36 72 38 0 10 -40 1 -86 -20z"/>
<path d="M3492 2605 c-64 -37 -156 -110 -183 -147 -48 -64 -41 -63 27 4 82 80
102 95 174 136 30 18 48 32 40 32 -8 0 -34 -11 -58 -25z"/>
<path d="M3630 2506 c0 -18 49 -72 81 -90 32 -18 31 -16 -8 18 -24 21 -50 47
-58 59 -8 12 -15 17 -15 13z"/>
<path d="M3358 2317 c44 -52 70 -107 82 -169 l9 -53 -4 58 c-4 65 -34 124 -86
172 l-33 30 32 -38z"/>
<path d="M4058 2319 c23 -12 66 -42 95 -68 39 -35 46 -38 27 -15 -29 37 -125
104 -149 104 -9 0 3 -10 27 -21z"/>
<path d="M3441 1930 c0 -36 4 -74 8 -85 5 -11 6 12 4 55 -6 98 -11 112 -12 30z"/>
<path d="M4410 1780 c0 -3 9 -39 20 -80 11 -41 20 -88 21 -105 1 -25 2 -26 6
-6 5 23 -23 153 -38 181 -5 8 -8 13 -9 10z"/>
<path d="M3639 1571 c36 -34 95 -82 132 -107 74 -49 248 -144 264 -144 6 0
-32 23 -84 50 -119 63 -243 146 -318 211 -55 48 -55 48 6 -10z"/>
<path d="M4461 1534 c0 -11 3 -14 6 -6 3 7 2 16 -1 19 -3 4 -6 -2 -5 -13z"/>
<path d="M4060 1310 c8 -5 20 -10 25 -10 6 0 3 5 -5 10 -8 5 -19 10 -25 10 -5
0 -3 -5 5 -10z"/>
<path d="M4517 2555 c-24 -50 -20 -58 4 -12 11 22 19 41 17 43 -3 2 -12 -12
-21 -31z"/>
<path d="M4563 2525 c0 -38 2 -53 4 -32 2 20 2 52 0 70 -2 17 -4 1 -4 -38z"/>
<path d="M4605 2565 c38 -119 48 -146 52 -142 5 6 -35 125 -49 147 -7 12 -8
10 -3 -5z"/>
<path d="M4860 2570 c27 -20 37 -19 23 2 -4 7 -17 14 -28 15 -17 1 -17 -1 5
-17z"/>
<path d="M5561 2564 c-12 -20 -20 -41 -19 -46 2 -5 14 9 27 32 29 51 21 64 -8
14z"/>
<path d="M5691 2544 c0 -11 3 -14 6 -6 3 7 2 16 -1 19 -3 4 -6 -2 -5 -13z"/>
<path d="M5355 2459 c-4 -6 -5 -12 -2 -15 2 -3 7 2 10 11 7 17 1 20 -8 4z"/>
<path d="M6183 2440 c0 -36 2 -50 4 -32 2 17 2 47 0 65 -2 17 -4 3 -4 -33z"/>
<path d="M6994 2385 c0 -71 1 -99 3 -62 2 37 2 96 0 130 -2 34 -3 4 -3 -68z"/>
<path d="M5990 2425 c-14 -8 -20 -14 -15 -14 6 0 21 6 35 14 14 8 21 14 15 14
-5 0 -21 -6 -35 -14z"/>
<path d="M5930 2400 c-8 -5 -10 -10 -5 -10 6 0 17 5 25 10 8 5 11 10 5 10 -5
0 -17 -5 -25 -10z"/>
<path d="M5880 2380 c-8 -5 -10 -10 -5 -10 6 0 17 5 25 10 8 5 11 10 5 10 -5
0 -17 -5 -25 -10z"/>
<path d="M5830 2360 c-8 -5 -10 -10 -5 -10 6 0 17 5 25 10 8 5 11 10 5 10 -5
0 -17 -5 -25 -10z"/>
<path d="M5790 2290 c-8 -5 -10 -10 -5 -10 6 0 17 5 25 10 8 5 11 10 5 10 -5
0 -17 -5 -25 -10z"/>
<path d="M5395 2191 c-22 -11 -35 -19 -30 -19 14 -1 93 36 80 37 -5 0 -28 -8
-50 -18z"/>
<path d="M5275 2145 c-25 -12 -26 -14 -5 -9 28 7 60 23 45 23 -5 0 -23 -6 -40
-14z"/>
<path d="M6873 2345 c0 -38 2 -53 4 -32 2 20 2 52 0 70 -2 17 -4 1 -4 -38z"/>
<path d="M4213 2450 c0 -30 2 -43 4 -27 2 15 2 39 0 55 -2 15 -4 2 -4 -28z"/>
<path d="M5020 2479 c42 -34 67 -42 30 -10 -19 17 -39 30 -45 31 -5 0 1 -9 15
-21z"/>
<path d="M4918 2465 c-9 -24 4 -90 17 -90 6 0 11 14 12 30 1 27 1 27 -5 5 -5
-20 -7 -14 -12 25 -4 36 -7 44 -12 30z"/>
<path d="M4370 2365 c0 -7 141 -77 146 -73 2 2 -30 21 -71 41 -41 20 -75 35
-75 32z"/>
<path d="M4450 2275 c0 -2 18 -14 40 -25 22 -11 40 -18 40 -15 0 2 -18 14 -40
25 -22 11 -40 18 -40 15z"/>
<path d="M4594 2196 c11 -9 24 -16 30 -16 12 0 7 5 -24 19 -24 11 -24 11 -6
-3z"/>
<path d="M7440 2235 c-25 -13 -40 -24 -35 -24 6 0 30 11 55 24 25 13 41 24 35
24 -5 0 -30 -11 -55 -24z"/>
<path d="M7210 2170 c-9 -6 -10 -10 -3 -10 6 0 15 5 18 10 8 12 4 12 -15 0z"/>
<path d="M5690 1975 c-14 -8 -20 -14 -15 -14 6 0 21 6 35 14 14 8 21 14 15 14
-5 0 -21 -6 -35 -14z"/>
<path d="M5355 1905 c-88 -35 -155 -64 -150 -64 11 -1 316 117 324 125 12 11
-27 -2 -174 -61z"/>
<path d="M5630 1950 c-8 -5 -10 -10 -5 -10 6 0 17 5 25 10 8 5 11 10 5 10 -5
0 -17 -5 -25 -10z"/>
<path d="M5580 1930 c-8 -5 -10 -10 -5 -10 6 0 17 5 25 10 8 5 11 10 5 10 -5
0 -17 -5 -25 -10z"/>
<path d="M4953 1670 c0 -30 2 -43 4 -27 2 15 2 39 0 55 -2 15 -4 2 -4 -28z"/>
<path d="M5084 2055 c0 -49 1 -71 3 -48 2 23 2 64 0 90 -2 26 -3 8 -3 -42z"/>
<path d="M5123 2055 c0 -33 2 -45 4 -27 2 18 2 45 0 60 -2 15 -4 0 -4 -33z"/>
<path d="M5114 1560 c0 -69 1 -97 3 -62 2 34 2 90 0 125 -2 34 -3 6 -3 -63z"/>
<path d="M5083 1500 c0 -36 2 -50 4 -32 2 17 2 47 0 65 -2 17 -4 3 -4 -33z"/>
<path d="M5750 1760 c-8 -5 -10 -10 -5 -10 6 0 17 5 25 10 8 5 11 10 5 10 -5
0 -17 -5 -25 -10z"/>
<path d="M5665 1729 c-54 -22 -75 -36 -35 -24 37 12 107 44 95 44 -5 0 -32 -9
-60 -20z"/>
<path d="M5367 1663 c-59 -25 -105 -48 -103 -50 4 -4 215 83 225 93 11 11 -21
-1 -122 -43z"/>
<path d="M5570 1690 c-8 -5 -10 -10 -5 -10 6 0 17 5 25 10 8 5 11 10 5 10 -5
0 -17 -5 -25 -10z"/>
<path d="M5220 1600 c-8 -5 -10 -10 -5 -10 6 0 17 5 25 10 8 5 11 10 5 10 -5
0 -17 -5 -25 -10z"/>
<path d="M4510 1775 c0 -2 32 -21 70 -40 39 -19 70 -33 70 -30 0 2 -31 21 -70
40 -38 19 -70 33 -70 30z"/>
<path d="M7487 2049 c-59 -14 -112 -45 -125 -74 -15 -32 -15 -70 -2 -96 8 -14
7 -25 -5 -41 -23 -34 -19 -82 16 -176 5 -12 22 -30 39 -40 l30 -19 -55 -12
c-30 -7 -69 -24 -85 -37 -52 -44 -49 -132 5 -168 78 -51 259 -60 343 -17 82
42 95 140 25 187 l-32 22 57 16 c31 9 71 27 87 40 27 21 30 30 30 78 0 34 6
62 18 78 23 34 22 95 -3 120 -11 11 -22 31 -26 45 -18 74 -188 124 -317 94z
m75 -44 c-17 -19 -17 -19 8 -2 40 28 48 30 94 23 58 -9 110 -44 114 -77 12
-98 -273 -131 -378 -43 -39 33 -38 47 5 81 43 34 67 42 127 40 45 -2 46 -3 30
-22z m-134 -135 c7 0 12 -5 12 -11 0 -5 5 -7 10 -4 6 3 10 1 10 -4 0 -14 -3
-14 -33 0 -12 6 -29 20 -36 32 -13 21 -13 21 6 5 11 -10 25 -18 31 -18z m398
8 c14 -46 -64 -85 -186 -93 -36 -2 -54 -2 -40 1 59 11 155 38 160 45 3 4 10 6
15 6 6 -1 14 13 20 31 11 37 21 41 31 10z m-96 -29 c0 -5 -4 -7 -10 -4 -5 3
-10 1 -10 -5 0 -6 -4 -9 -9 -5 -5 3 -12 1 -15 -4 -15 -23 -185 -20 -193 4 -2
6 28 9 79 7 46 -2 94 1 108 7 33 13 50 13 50 0z m-330 -23 c0 -7 9 -25 21 -40
11 -14 16 -26 10 -26 -5 0 -19 12 -30 26 -12 15 -21 22 -21 15 0 -18 40 -53
56 -47 7 3 32 -1 55 -9 23 -8 56 -15 73 -15 22 -1 27 -3 16 -9 -19 -11 -129 2
-161 19 -56 29 -76 69 -47 98 13 13 28 7 28 -12z m418 -16 c-10 -16 -53 -41
-78 -46 -3 0 -13 -4 -22 -8 -32 -15 -191 -10 -186 5 2 6 44 11 98 11 94 1 149
14 180 44 20 19 22 18 8 -6z m-358 -18 c0 -12 -3 -12 -15 -2 -8 7 -15 13 -15
15 0 1 7 2 15 2 8 0 15 -7 15 -15z m30 -13 c0 -5 -4 -9 -10 -9 -5 0 -10 7 -10
16 0 8 5 12 10 9 6 -3 10 -10 10 -16z m30 -9 c0 -5 -4 -10 -10 -10 -5 0 -10 5
-10 10 0 6 5 10 10 10 6 0 10 -4 10 -10z m273 -56 c-13 -35 -127 -75 -207 -73
-49 1 -48 2 27 14 88 15 148 42 162 73 10 22 27 10 18 -14z m-33 22 c0 -2 -11
-11 -25 -20 -21 -14 -25 -14 -25 -2 0 8 8 17 18 19 25 7 32 7 32 3z m-327 -25
c4 -1 12 -1 17 -1 6 0 10 -4 10 -10 0 -14 -43 4 -48 21 -2 10 -1 10 5 2 4 -6
11 -12 16 -12z m267 -5 c0 -23 -140 -40 -147 -18 -3 8 8 12 34 13 21 1 52 5
68 9 44 11 45 11 45 -4z m-190 -17 c0 -11 -27 -12 -34 0 -3 4 -3 11 0 14 8 8
34 -3 34 -14z m30 1 c0 -5 -4 -10 -10 -10 -5 0 -10 5 -10 10 0 6 5 10 10 10 6
0 10 -4 10 -10z m254 -13 c-6 -15 -64 -52 -64 -40 0 7 59 53 67 53 1 0 0 -6
-3 -13z m-374 -24 c0 -12 -2 -12 -15 1 -8 8 -15 17 -15 20 0 3 7 3 15 0 8 -4
15 -13 15 -21z m90 -31 c0 -9 -6 -12 -17 -7 -18 7 -40 13 -55 14 -5 1 -8 7 -8
15 0 11 8 11 40 3 23 -6 40 -17 40 -25z m7 32 c-3 -3 -12 -4 -19 -1 -8 3 -5 6
6 6 11 1 17 -2 13 -5z m200 -26 c-3 -8 -6 -5 -6 6 -1 11 2 17 5 13 3 -3 4 -12
1 -19z m-17 -2 c0 -17 -103 -31 -149 -21 -55 12 -33 24 52 28 45 1 85 4 90 5
4 1 7 -4 7 -12z m-107 -57 c23 -5 57 -23 76 -38 45 -37 38 -71 -22 -103 -36
-20 -57 -23 -152 -23 -121 0 -178 18 -202 65 -20 40 19 83 90 100 48 12 163
11 210 -1z m87 -153 c0 -2 -7 -7 -16 -10 -8 -3 -12 -2 -9 4 6 10 25 14 25 6z
m-300 -23 c52 -11 162 -13 198 -5 31 7 42 7 39 -1 -13 -41 -277 -27 -277 15 0
5 6 6 13 1 6 -4 19 -9 27 -10z"/>
<path d="M7508 1995 c-9 -19 -7 -29 6 -50 10 -15 15 -32 13 -39 -4 -9 12 -17
45 -24 69 -16 73 -15 54 13 -9 14 -12 25 -6 25 14 0 33 52 22 59 -5 3 -11 14
-15 24 -3 9 -12 17 -19 16 -10 0 -10 -2 0 -6 15 -6 16 -33 1 -33 -5 0 -7 5 -4
10 3 6 2 10 -4 10 -5 0 -13 -4 -16 -10 -3 -5 -17 -10 -30 -10 -31 0 -40 -16
-18 -29 10 -6 13 -11 8 -11 -15 0 -35 21 -35 36 0 7 7 20 16 28 8 9 11 16 4
16 -6 0 -15 -11 -22 -25z m117 -25 c8 0 11 -7 8 -20 -3 -12 -14 -20 -25 -20
-20 0 -20 -1 -3 -26 18 -29 22 -28 -42 -9 -25 7 -30 20 -12 30 5 4 15 18 20
32 6 17 14 23 25 19 9 -3 22 -6 29 -6z"/>
<path d="M7423 1993 c-13 -8 -23 -21 -23 -27 0 -6 4 -5 9 3 13 20 33 3 25 -22
-3 -12 -3 -19 1 -15 4 4 16 3 27 -3 16 -8 17 -13 7 -25 -10 -12 -9 -13 5 -8
21 8 20 21 -3 36 -15 9 -17 15 -9 26 9 10 6 14 -11 19 -17 4 -19 8 -10 19 15
18 10 17 -18 -3z"/>
<path d="M7675 1990 c3 -5 10 -10 16 -10 5 0 9 5 9 10 0 6 -7 10 -16 10 -8 0
-12 -4 -9 -10z"/>
<path d="M7705 1970 c-8 -12 2 -30 17 -30 6 0 8 3 5 7 -4 3 -2 12 4 20 9 10 8
13 -4 13 -9 0 -19 -4 -22 -10z"/>
<path d="M7400 1931 c0 -5 5 -13 10 -16 6 -3 10 -2 10 4 0 5 -4 13 -10 16 -5
3 -10 2 -10 -4z"/>
<path d="M7690 1920 c0 -4 9 -10 20 -13 11 -3 20 -2 20 3 0 4 -9 10 -20 13
-11 3 -20 2 -20 -3z"/>
<path d="M7465 1562 c-57 -7 -70 -35 -36 -79 11 -13 18 -30 15 -37 -5 -13 41
-26 95 -26 23 0 23 1 8 18 -15 17 -15 19 0 35 16 15 16 19 1 50 -17 36 -35 45
-83 39z m69 -37 c19 -30 14 -45 -16 -45 -21 0 -21 0 2 -25 22 -23 22 -25 4
-25 -37 0 -62 12 -67 32 -4 15 -2 18 10 14 11 -5 14 -2 9 10 -4 9 -3 22 1 28
5 7 1 4 -9 -6 -20 -22 -34 -23 -42 -2 -10 26 13 44 54 44 29 0 41 -6 54 -25z"/>
<path d="M7360 1535 c7 -9 15 -13 17 -11 7 7 -7 26 -19 26 -6 0 -6 -6 2 -15z"/>
<path d="M7593 1540 c4 -18 37 -27 37 -10 0 6 -5 8 -11 4 -6 -3 -16 0 -21 7
-8 12 -9 11 -5 -1z"/>
<path d="M7334 1505 c0 -14 6 -23 11 -22 14 5 13 39 -1 44 -7 2 -11 -6 -10
-22z"/>
<path d="M7632 1513 c-6 -2 -10 -8 -7 -13 3 -5 -2 -15 -10 -24 -9 -9 -11 -17
-5 -21 6 -3 17 1 26 9 12 12 12 16 2 17 -7 0 -4 4 7 9 13 6 15 9 5 9 -13 1
-13 2 0 11 16 10 4 12 -18 3z"/>
<path d="M7672 1490 c0 -19 2 -27 5 -17 2 9 2 25 0 35 -3 9 -5 1 -5 -18z"/>
<path d="M7348 1463 c6 -2 18 -2 25 0 6 3 1 5 -13 5 -14 0 -19 -2 -12 -5z"/>
<path d="M7380 1439 c0 -5 5 -7 10 -4 6 3 10 8 10 11 0 2 -4 4 -10 4 -5 0 -10
-5 -10 -11z"/>
</g>
</svg>
