<?xml version="1.0" standalone="no"?>
<!DOCTYPE svg PUBLIC "-//W3C//DTD SVG 20010904//EN"
 "http://www.w3.org/TR/2001/REC-SVG-20010904/DTD/svg10.dtd">
<svg version="1.0" xmlns="http://www.w3.org/2000/svg"
 width="1024.000000pt" height="559.000000pt" viewBox="0 0 1024.000000 559.000000"
 preserveAspectRatio="xMidYMid meet">
<metadata>
Created by potrace 1.16, written by Peter Selinger 2001-2019
</metadata>
<g transform="translate(0.000000,559.000000) scale(0.100000,-0.100000)"
fill="#000000" stroke="none">
<path d="M4752 4559 c-56 -11 -120 -47 -146 -82 -25 -34 -26 -108 -2 -176 9
-24 16 -45 16 -47 0 -9 -115 -3 -224 13 -100 14 -128 15 -179 4 -74 -15 -103
-30 -142 -71 -28 -29 -30 -37 -29 -103 1 -83 31 -159 103 -262 100 -142 95
-131 77 -157 -20 -28 -21 -88 -2 -113 12 -17 12 -25 -6 -60 -39 -77 -125 -201
-229 -330 -245 -305 -310 -397 -388 -551 -90 -180 -115 -276 -114 -449 0 -112
4 -142 27 -220 15 -49 47 -130 70 -180 101 -211 223 -315 507 -430 140 -57
202 -88 329 -164 47 -28 110 -61 140 -72 179 -68 429 -101 618 -80 184 20 277
45 482 131 63 27 174 65 245 85 132 37 253 88 335 140 43 28 50 29 145 26 98
-2 102 -2 172 34 81 40 129 90 171 175 24 49 27 66 27 160 0 92 -3 112 -26
161 -15 31 -42 74 -61 95 -33 37 -35 44 -46 157 l-11 119 40 53 c79 104 107
240 75 363 -21 82 -54 138 -117 197 -69 64 -144 96 -246 104 l-83 6 -84 127
c-46 71 -96 159 -111 198 l-27 70 23 47 c23 47 23 48 -5 114 -5 11 25 51 99
133 62 69 117 140 131 170 29 63 31 129 5 172 -38 62 -169 104 -328 104 -40 0
-73 2 -73 4 0 2 8 24 18 48 58 134 27 205 -110 249 -94 30 -203 23 -348 -22
-145 -44 -213 -44 -300 1 -159 83 -199 100 -260 109 -74 12 -97 12 -158 0z
m218 -56 c25 -8 74 -31 110 -51 122 -69 141 -75 220 -76 59 0 96 7 175 33 166
55 307 53 395 -5 42 -28 52 -57 23 -69 -10 -3 -51 -13 -92 -20 -41 -8 -84 -21
-97 -30 -29 -19 -62 -90 -76 -164 -15 -81 -15 -80 -45 -92 -60 -23 -92 -76
-133 -224 -12 -44 -24 -81 -25 -83 -8 -9 -57 28 -132 100 -102 98 -151 121
-241 116 l-66 -3 -17 60 c-10 33 -23 80 -29 104 -6 23 -13 41 -16 39 -4 -5 37
-170 50 -200 6 -12 0 -21 -24 -33 -17 -9 -63 -41 -103 -72 l-72 -55 -11 76
c-32 205 -86 243 -304 216 -190 -24 -272 -24 -319 -1 -71 36 -74 71 -12 123
51 43 127 52 270 33 143 -20 319 -18 345 4 9 8 20 11 23 7 12 -12 -11 -40 -48
-58 -19 -10 -27 -18 -19 -18 8 0 29 9 46 19 l31 19 12 -67 c14 -79 51 -205 57
-198 6 6 -20 163 -46 277 -23 96 -49 142 -92 156 -28 8 -22 39 14 69 30 25 36
27 119 23 90 -3 99 4 18 16 -85 12 -162 -20 -181 -76 -4 -10 -10 -8 -27 6 -27
24 -27 37 2 63 67 61 195 76 317 36z m-278 -174 c26 -17 48 -37 48 -44 0 -12
-49 -35 -75 -35 -7 0 -15 15 -18 33 -4 17 -9 42 -13 55 -8 29 0 28 58 -9z
m1203 -89 c-9 -28 -23 -54 -31 -57 -19 -7 -103 14 -133 34 -35 23 -10 40 84
58 43 9 81 18 84 20 13 13 11 -9 -4 -55z m-10 -101 c283 -26 302 -30 349 -60
63 -39 71 -73 25 -111 l-34 -29 -6 36 c-3 19 -16 46 -29 60 -23 25 -95 46
-153 44 -18 0 0 -7 43 -14 62 -12 80 -19 103 -45 19 -21 27 -40 25 -58 -3 -23
-9 -28 -53 -35 -69 -12 -146 4 -290 59 -66 25 -143 48 -173 51 -43 5 -52 9
-47 22 4 9 9 31 12 49 3 17 6 32 7 32 1 0 19 -9 41 -20 22 -11 46 -20 55 -20
8 1 -6 10 -32 21 -47 21 -62 38 -52 62 4 11 15 8 52 -10 34 -16 78 -26 157
-34z m-1606 -126 c53 3 138 10 189 17 137 18 222 -1 208 -48 -7 -22 -33 -34
-125 -57 -152 -37 -187 -104 -145 -273 9 -35 14 -66 11 -69 -14 -13 -100 65
-129 116 -17 31 -54 88 -82 126 -54 75 -116 188 -116 210 0 11 10 9 46 -7 40
-17 61 -19 143 -15z m1472 -27 c25 -8 79 -28 120 -46 161 -69 269 -75 393 -24
19 7 19 7 0 -25 -10 -18 -54 -69 -97 -114 -68 -71 -122 -137 -181 -223 -27
-39 -236 -136 -236 -109 0 27 72 153 117 204 34 39 40 49 21 37 -54 -35 -119
-131 -147 -216 -8 -27 -19 -38 -48 -49 -35 -12 -110 -17 -120 -7 -2 2 19 50
48 107 47 94 53 112 57 185 5 92 -3 114 -68 189 -43 50 -50 78 -22 94 25 15
109 13 163 -3z m-1021 -138 c7 -37 10 -74 7 -82 -9 -23 -112 -49 -164 -42 -78
10 -133 48 -133 91 0 24 57 55 137 75 43 11 89 29 103 39 30 22 31 21 50 -81z
m888 -30 c29 -40 28 -63 -4 -93 -23 -21 -37 -25 -90 -25 -34 0 -65 4 -68 9 -3
4 3 26 13 47 11 22 27 66 36 99 10 33 20 64 22 68 4 7 30 -22 91 -105z m-472
67 c20 -8 71 -48 113 -89 95 -93 163 -129 252 -134 49 -3 75 0 99 13 l33 17
-6 -33 c-4 -19 -36 -92 -73 -162 -89 -174 -104 -222 -111 -344 -9 -168 31
-340 110 -471 44 -74 87 -94 87 -40 0 27 -41 180 -46 175 -3 -2 2 -30 11 -63
8 -32 15 -74 15 -92 0 -30 -2 -33 -16 -21 -25 20 -61 100 -90 196 -23 77 -27
107 -28 233 -1 80 3 162 7 183 7 33 11 37 37 37 29 0 30 -2 30 -45 0 -38 6
-50 38 -85 22 -22 47 -40 58 -41 10 -1 28 -2 39 -3 46 -3 87 -143 88 -296 1
-112 -21 -205 -88 -374 -78 -197 -106 -355 -87 -486 7 -51 6 -69 -4 -85 -24
-34 -17 -83 15 -116 16 -16 39 -29 50 -29 27 0 45 -43 36 -88 -5 -27 -3 -34
17 -41 26 -9 78 3 90 21 14 23 8 102 -11 143 -11 24 -16 54 -13 76 5 45 -11
77 -45 90 l-26 10 6 97 c7 109 15 140 97 367 77 213 94 298 87 445 -2 63 -8
124 -13 135 -7 17 -6 18 8 7 9 -7 32 -46 52 -88 l37 -75 -18 -47 c-13 -35 -18
-75 -18 -157 0 -105 2 -113 33 -176 30 -60 32 -70 23 -105 -8 -30 -18 -42 -40
-51 -24 -8 -33 -21 -47 -66 -16 -51 -16 -58 -1 -80 11 -16 16 -45 15 -86 -1
-51 3 -66 22 -86 28 -30 50 -31 80 -7 21 17 22 22 12 52 -16 44 -15 60 2 60
40 0 70 86 46 130 -8 16 4 80 15 80 2 0 20 -9 39 -21 107 -63 265 -63 372 0
32 19 32 19 37 -2 9 -37 20 -157 14 -157 -3 0 -24 9 -48 20 -32 14 -66 20
-124 20 -72 0 -88 -4 -150 -34 -79 -39 -108 -62 -153 -124 -73 -101 -83 -264
-25 -383 30 -61 91 -130 139 -157 19 -11 19 -11 -1 -26 -47 -36 -188 -99 -292
-130 -62 -18 -113 -32 -113 -29 0 7 58 54 149 121 47 34 81 62 76 62 -18 0
-160 -86 -255 -154 -291 -209 -660 -280 -1040 -199 -222 47 -330 118 -461 304
-25 36 -66 80 -90 99 l-44 35 45 -55 c50 -60 147 -205 133 -198 -4 2 -33 16
-63 30 -30 15 -111 50 -179 77 -258 105 -389 221 -482 429 -99 219 -110 409
-38 626 60 180 155 332 392 629 177 221 234 300 272 377 15 30 29 57 31 59 2
2 25 -10 52 -28 27 -17 62 -36 79 -41 30 -11 30 -12 22 -52 -16 -69 -67 -191
-104 -247 -20 -29 -34 -56 -32 -58 8 -8 99 102 122 147 59 118 75 273 41 413
-23 99 -23 100 32 69 40 -23 58 -27 127 -26 98 1 138 17 255 105 46 35 103 74
125 86 47 26 111 29 161 8z m-841 -269 c26 -24 65 -52 86 -62 36 -15 39 -21
39 -56 0 -21 -2 -38 -5 -38 -8 0 -102 55 -126 75 -40 32 -62 72 -55 100 4 14
8 25 9 25 2 0 25 -20 52 -44z m1755 -87 c0 -43 -47 -86 -138 -126 l-70 -31
-21 22 -21 23 67 31 c38 17 83 41 102 53 l34 23 -12 -23 c-7 -12 -33 -36 -59
-53 -26 -17 -39 -28 -30 -25 46 16 97 59 114 97 21 48 34 51 34 9z m-28 -146
c43 -105 67 -150 128 -243 39 -58 70 -110 70 -116 0 -5 -15 -16 -34 -22 -19
-7 -50 -24 -70 -37 -41 -28 -46 -29 -46 -14 0 18 -84 141 -133 195 -40 44 -47
58 -47 93 0 23 -7 56 -16 72 -8 17 -14 32 -12 34 3 3 79 35 83 35 2 0 6 -16 9
-35 9 -46 39 -113 65 -145 14 -17 9 -2 -13 45 -44 91 -53 140 -29 154 27 16
32 14 45 -16z m-225 -19 c23 -20 24 -24 8 -20 -48 12 -80 16 -60 8 18 -8 17
-9 -8 -16 -43 -10 -95 -63 -108 -109 -10 -38 -12 -40 -21 -21 -8 16 -5 33 11
68 11 26 16 44 10 41 -5 -4 -16 -21 -23 -38 -9 -21 -15 -26 -15 -14 -1 28 26
73 61 101 45 35 106 36 145 0z m-197 11 c0 -3 -7 -17 -16 -30 -16 -25 -64 -36
-64 -14 0 27 22 49 50 49 17 0 30 -2 30 -5z m228 -72 c11 -10 23 -29 27 -42 6
-21 5 -23 -11 -16 -37 15 -54 17 -80 11 -34 -9 -74 -53 -74 -83 0 -18 -5 -24
-17 -21 -26 5 -28 65 -5 104 35 56 120 81 160 47z m68 -157 c156 -170 249
-426 229 -629 -13 -132 -59 -307 -76 -290 -5 5 -1 31 11 66 11 31 20 69 19 84
0 16 -8 -4 -20 -46 -20 -78 -25 -89 -35 -78 -4 4 0 30 9 59 43 140 47 311 12
443 -20 78 -92 227 -137 286 -42 54 -62 89 -55 95 7 7 70 -73 111 -141 44 -73
48 -66 5 10 -17 30 -62 89 -100 131 -38 42 -69 80 -69 85 0 19 38 -11 96 -75z
m-103 28 c85 -141 109 -373 59 -569 -12 -44 -44 -140 -72 -213 -74 -193 -93
-284 -88 -409 4 -95 3 -103 -14 -103 -29 0 -41 46 -40 165 0 128 15 195 91
396 78 210 85 239 85 374 -1 136 -18 214 -67 307 -30 56 -31 57 -12 77 10 12
21 21 24 21 3 0 19 -20 34 -46z m702 -211 c76 -40 136 -102 172 -178 25 -53
28 -71 28 -160 0 -88 -3 -107 -27 -157 -77 -165 -257 -252 -424 -203 -66 19
-114 49 -114 71 0 12 6 11 29 -6 35 -24 105 -50 135 -49 11 0 -4 7 -34 15 -72
19 -134 60 -125 82 3 9 11 52 17 95 12 84 29 86 23 3 l-4 -51 8 45 c9 48 4 97
-10 106 -5 3 -9 14 -9 26 0 17 2 18 15 8 8 -7 15 -23 15 -36 0 -12 8 -30 17
-40 19 -19 24 -88 9 -136 -8 -27 -7 -28 32 -28 22 0 61 -10 88 -21 40 -18 53
-20 79 -10 17 6 43 11 57 11 47 0 52 23 13 59 -31 28 -35 37 -35 80 0 41 3 49
25 59 27 13 29 19 16 74 -7 28 -5 40 5 49 19 15 18 34 -2 50 -21 17 -54 93
-54 124 0 29 -34 55 -72 55 -15 0 -29 4 -33 9 -7 12 -49 8 -67 -6 -7 -6 -24
-13 -38 -16 -14 -4 -42 -23 -64 -42 -21 -20 -40 -34 -43 -31 -3 2 -6 19 -6 37
-2 27 4 37 40 62 23 16 63 36 90 43 30 8 39 13 23 13 -31 1 -108 -33 -138 -61
-17 -17 -25 -19 -34 -10 -14 14 2 29 67 64 59 31 91 37 185 34 72 -2 94 -7
145 -33z m-175 -84 c-7 -11 -9 -23 -6 -26 3 -3 8 2 12 11 12 30 104 16 104
-16 0 -4 -13 -8 -29 -8 -17 0 -33 -5 -36 -10 -4 -6 -10 -8 -15 -5 -10 6 -20
-19 -20 -50 0 -13 -4 -27 -10 -30 -5 -3 -10 -14 -10 -25 0 -13 -5 -17 -20 -13
-11 3 -20 7 -20 9 0 4 19 52 33 81 5 12 7 33 3 46 -7 28 1 57 15 57 6 0 5 -9
-1 -21z m-33 -19 c-4 -16 -2 -32 4 -36 6 -3 6 -10 1 -17 -5 -7 -15 -30 -22
-52 -22 -71 -51 -84 -49 -22 0 25 2 28 8 13 6 -16 9 -17 17 -5 18 28 33 84 24
87 -5 2 -6 11 -3 20 2 9 7 23 9 30 7 25 16 11 11 -18z m-41 -16 c-9 -13 -16
-30 -16 -39 0 -8 -4 -15 -10 -15 -5 0 -10 -18 -10 -41 0 -32 -4 -42 -20 -46
-22 -6 -27 -28 -9 -39 8 -4 8 -9 0 -17 -15 -15 -20 -8 -31 52 -12 67 -5 99 32
133 54 51 94 59 64 12z m14 -40 c0 -8 -4 -12 -10 -9 -5 3 -10 10 -10 16 0 5 5
9 10 9 6 0 10 -7 10 -16z m168 4 c7 -7 12 -20 12 -30 0 -9 13 -33 30 -51 31
-36 30 -46 -4 -48 -12 0 -15 -3 -8 -6 6 -2 12 -19 12 -37 0 -18 5 -37 11 -43
7 -7 2 -17 -19 -31 -24 -18 -35 -20 -62 -12 -18 5 -44 19 -57 32 -12 12 -23
17 -23 11 0 -17 38 -45 72 -52 28 -6 33 -12 40 -45 5 -22 6 -41 4 -43 -2 -3
-25 4 -50 16 -25 11 -46 18 -46 16 0 -2 24 -17 53 -34 29 -16 63 -41 76 -55
l24 -26 -23 0 c-13 0 -38 -5 -55 -11 -26 -10 -39 -8 -79 10 -27 11 -62 21 -77
21 -27 0 -29 2 -22 28 5 15 7 48 6 75 -2 26 1 47 5 47 8 0 32 43 32 55 0 14
-17 2 -25 -17 -12 -26 -48 -31 -53 -7 -2 9 7 33 19 53 21 37 22 37 33 14 7
-15 22 -24 41 -26 l30 -3 -25 13 c-30 16 -53 59 -40 72 6 6 19 5 35 -2 35 -16
37 -15 30 9 -4 13 -1 27 10 39 9 10 15 24 14 32 -3 26 1 37 19 41 32 8 48 7
60 -5z m-414 -102 c-4 -11 -2 -16 4 -13 9 6 23 -86 21 -147 l-1 -31 -13 30
c-8 17 -14 24 -15 17 0 -7 7 -27 16 -43 11 -22 13 -38 6 -57 -8 -26 -9 -25
-29 28 -29 79 -36 140 -23 212 7 34 14 67 18 72 9 15 23 -46 16 -68z m196 -76
c-6 -11 -15 -18 -20 -15 -5 3 -1 19 8 35 19 34 31 15 12 -20z m-215 -380 c9
-27 53 -60 72 -53 11 4 14 1 11 -13 -6 -32 -51 -30 -89 4 -26 23 -31 33 -25
55 8 32 22 35 31 7z m-24 -77 c18 -21 77 -45 91 -37 6 4 9 1 6 -7 -8 -26 -63
-22 -97 6 -17 15 -31 33 -31 41 0 19 14 18 31 -3z m557 -73 c60 -26 135 -101
163 -165 44 -99 43 -218 -2 -309 -105 -209 -396 -213 -528 -8 -175 274 78 606
367 482z m-547 -37 c2 -24 2 -25 6 -5 5 28 23 29 23 1 0 -11 5 -30 11 -41 9
-16 8 -23 -2 -29 -17 -11 -21 -11 -36 -1 -17 11 -30 102 -14 102 6 0 12 -12
12 -27z m-251 -223 c-6 -11 -8 -20 -5 -20 3 0 12 15 20 33 14 31 14 31 15 6 0
-54 -70 -110 -111 -89 -28 15 -24 28 15 44 37 15 65 49 67 81 2 13 3 11 6 -7
2 -15 -1 -36 -7 -48z m-58 20 c6 0 6 -6 -2 -15 -15 -19 -50 -20 -50 -2 0 19
12 29 28 22 7 -3 18 -5 24 -5z m405 -22 c-3 -8 -6 -5 -6 6 -1 11 2 17 5 13 3
-3 4 -12 1 -19z m3 -38 c0 -11 -4 -20 -9 -20 -5 0 -7 9 -4 20 3 11 7 20 9 20
2 0 4 -9 4 -20z m-302 -55 c7 -14 12 -44 12 -66 0 -40 -5 -45 -49 -53 -2 -1
-4 17 -5 39 -2 22 -6 51 -10 64 -6 17 -5 22 5 19 7 -2 17 -15 21 -29 5 -16 6
-12 2 14 -6 43 7 49 24 12z m306 -6 c4 -37 27 -102 42 -120 8 -9 11 -19 7 -22
-3 -4 -1 -7 6 -7 8 0 11 -6 7 -17 -4 -10 -4 -14 0 -10 4 3 24 -8 44 -27 21
-18 46 -38 56 -44 10 -6 16 -14 12 -17 -22 -23 -170 117 -153 145 3 5 2 10 -2
10 -17 0 -39 90 -34 134 2 16 12 -1 15 -25z m216 -279 c0 -5 3 -9 8 -9 20 3
42 -2 42 -10 0 -5 -17 -4 -40 1 -39 10 -55 28 -25 28 8 0 15 -4 15 -10z m97
-26 c-3 -3 -12 -4 -19 -1 -8 3 -5 6 6 6 11 1 17 -2 13 -5z"/>
<path d="M5749 4391 c18 -5 46 -19 62 -30 16 -12 29 -17 29 -12 0 17 -46 42
-86 46 l-39 5 34 -9z"/>
<path d="M5130 4363 c0 -12 117 -55 163 -60 44 -4 66 0 136 28 46 18 79 35 73
37 -5 1 -38 -9 -72 -23 -82 -35 -157 -35 -239 -2 -34 14 -61 23 -61 20z"/>
<path d="M5415 4197 c-7 -18 -25 -75 -40 -127 -33 -121 -44 -148 -64 -160 -14
-8 -14 -9 2 -10 22 0 49 60 77 168 10 43 26 96 34 120 18 50 11 57 -9 9z"/>
<path d="M4191 4172 c-19 -9 -41 -28 -50 -42 -12 -21 -10 -20 18 7 32 32 52
38 156 46 25 2 16 4 -25 5 -45 1 -76 -3 -99 -16z"/>
<path d="M4648 4153 c6 -2 18 -2 25 0 6 3 1 5 -13 5 -14 0 -19 -2 -12 -5z"/>
<path d="M4430 3984 c-25 -8 -83 -18 -130 -23 -78 -8 -80 -8 -27 -10 31 0 99
8 150 20 56 12 113 19 145 16 30 -2 47 0 40 4 -21 14 -129 9 -178 -7z"/>
<path d="M5656 3932 c-2 -4 10 -6 28 -4 20 2 63 -8 112 -27 43 -16 70 -24 60
-16 -51 38 -186 70 -200 47z"/>
<path d="M6053 3823 c15 -2 37 -2 50 0 12 2 0 4 -28 4 -27 0 -38 -2 -22 -4z"/>
<path d="M4553 3841 c-42 -20 -68 -52 -59 -74 2 -7 5 -6 5 4 1 24 45 59 92 74
24 8 35 14 24 14 -11 0 -39 -8 -62 -18z"/>
<path d="M5023 3838 c-18 -6 -69 -42 -115 -81 -91 -77 -163 -115 -242 -128
-50 -8 -50 -8 13 -4 77 6 150 42 239 120 92 80 138 100 194 84 21 -6 28 -5 21
2 -15 15 -74 19 -110 7z"/>
<path d="M5320 3655 c0 -2 19 -15 43 -29 49 -29 112 -41 145 -29 18 7 12 9
-30 9 -40 -1 -67 6 -106 26 -29 15 -52 25 -52 23z"/>
<path d="M5153 3603 c-3 -10 -12 -33 -20 -52 -7 -19 -16 -58 -20 -88 -3 -33
-12 -57 -20 -60 -16 -6 -198 13 -265 28 -53 12 -64 35 -23 45 28 7 33 22 10
30 -38 15 -100 -59 -111 -132 -7 -47 9 -109 31 -117 20 -8 25 2 13 29 -15 32
-9 35 36 23 36 -10 38 -12 33 -43 -6 -35 -53 -141 -88 -196 l-22 -35 27 30
c36 41 96 166 96 200 0 28 0 28 53 21 28 -4 89 -9 133 -13 l82 -6 6 -61 c7
-65 37 -208 43 -202 2 2 -3 45 -12 97 -8 52 -15 110 -15 130 0 35 2 37 38 41
20 3 38 4 40 3 2 -2 -4 -17 -13 -35 -15 -30 -15 -32 1 -28 9 1 26 16 38 31 17
23 21 43 21 102 0 64 -3 78 -22 97 -26 25 -40 19 -24 -10 12 -23 -2 -32 -50
-32 -36 0 -37 12 -5 133 20 79 25 114 9 70z m-303 -210 c36 -8 134 -17 218
-20 l152 -6 0 -27 c0 -23 -5 -29 -31 -34 -96 -19 -404 19 -443 54 -5 5 -6 21
-2 35 5 20 11 25 24 20 9 -4 46 -13 82 -22z"/>
<path d="M4893 3343 c9 -2 23 -2 30 0 6 3 -1 5 -18 5 -16 0 -22 -2 -12 -5z"/>
<path d="M4993 3333 c31 -2 83 -2 115 0 31 2 5 3 -58 3 -63 0 -89 -1 -57 -3z"/>
<path d="M5432 3358 c-22 -59 -43 -177 -41 -235 1 -21 8 11 16 71 8 60 23 132
33 160 11 27 18 52 16 54 -2 2 -13 -21 -24 -50z"/>
<path d="M4264 3189 c-10 -12 -62 -54 -115 -94 -93 -71 -179 -157 -179 -178 0
-6 14 8 30 30 17 23 70 71 118 107 78 58 185 156 171 156 -3 0 -14 -10 -25
-21z"/>
<path d="M4572 3018 c-12 -47 -102 -216 -142 -268 -86 -111 -230 -243 -247
-227 -12 12 11 69 53 132 24 38 35 60 24 50 -33 -30 -91 -131 -97 -170 -5 -30
-3 -35 14 -35 74 0 262 201 348 370 28 56 67 170 58 170 -3 0 -7 -10 -11 -22z"/>
<path d="M5092 2685 c-17 -37 -14 -45 4 -12 9 16 14 31 11 33 -2 2 -9 -7 -15
-21z"/>
<path d="M5049 2599 c-21 -42 -153 -183 -214 -228 l-30 -22 33 18 c57 31 147
119 197 193 27 38 46 73 42 76 -3 3 -16 -14 -28 -37z"/>
<path d="M3614 2233 c-7 -95 5 -214 31 -301 25 -82 27 -57 3 33 -16 63 -21
110 -21 218 0 75 -2 137 -3 137 -1 0 -6 -39 -10 -87z"/>
<path d="M3822 2140 c0 -14 2 -19 5 -12 2 6 2 18 0 25 -3 6 -5 1 -5 -13z"/>
<path d="M3834 2065 c10 -113 79 -259 150 -315 25 -20 22 -15 -13 25 -53 61
-93 144 -116 245 -22 97 -26 106 -21 45z"/>
<path d="M3726 1752 c10 -18 28 -41 38 -50 12 -10 8 0 -9 23 -40 56 -51 66
-29 27z"/>
<path d="M4560 1704 c41 -26 107 -71 147 -100 65 -48 181 -114 200 -114 4 0
-21 16 -57 36 -36 20 -94 58 -130 84 -72 53 -213 140 -226 140 -5 0 25 -21 66
-46z"/>
<path d="M4808 1641 c40 -35 131 -63 217 -66 l80 -4 -80 9 c-76 8 -161 34
-215 66 l-25 15 23 -20z"/>
<path d="M5794 1413 c-194 -145 -292 -196 -439 -228 -33 -7 -49 -14 -36 -14
46 -2 156 31 236 69 69 34 178 109 306 212 66 53 21 27 -67 -39z"/>
<path d="M4270 3592 c14 -18 41 -43 60 -54 19 -12 33 -19 30 -17 -3 3 -30 28
-60 55 -44 40 -50 43 -30 16z"/>
<path d="M6096 2479 c-4 -33 -5 -63 -3 -66 3 -2 8 23 12 57 4 34 5 63 2 66 -2
3 -7 -23 -11 -57z"/>
<path d="M5783 3130 c17 -36 33 -62 35 -58 4 8 -30 75 -52 103 -9 11 -1 -9 17
-45z"/>
<path d="M5832 3005 c-1 -11 3 -38 7 -60 7 -34 9 -35 9 -10 0 35 -15 101 -16
70z"/>
<path d="M5676 2178 c-4 -18 -9 -71 -11 -118 -2 -47 -2 -69 1 -50 2 19 9 70
15 113 11 80 7 115 -5 55z"/>
<path d="M5671 1944 c0 -11 3 -14 6 -6 3 7 2 16 -1 19 -3 4 -6 -2 -5 -13z"/>
<path d="M6516 2921 c50 -29 86 -67 117 -126 18 -34 22 -29 7 9 -14 37 -79
105 -121 127 -58 29 -60 22 -3 -10z"/>
<path d="M6512 2857 l-22 -24 20 -18 c11 -10 20 -13 20 -7 0 6 -5 14 -11 17
-7 5 -2 16 12 31 12 13 18 24 12 24 -5 0 -19 -10 -31 -23z"/>
<path d="M6563 2798 c-13 -6 -23 -15 -23 -20 0 -12 6 -10 42 12 34 21 20 27
-19 8z"/>
<path d="M6593 2748 c-34 -11 -39 -22 -24 -47 14 -22 71 7 71 36 0 25 -1 25
-47 11z m37 -18 c0 -5 -2 -10 -4 -10 -3 0 -8 5 -11 10 -3 6 -1 10 4 10 6 0 11
-4 11 -10z m-40 -16 c0 -8 -4 -12 -10 -9 -5 3 -10 10 -10 16 0 5 5 9 10 9 6 0
10 -7 10 -16z"/>
<path d="M6574 2658 c-3 -4 5 -8 17 -8 21 0 21 -1 6 -18 -22 -24 -22 -39 -1
-21 9 7 26 13 38 14 14 0 22 7 24 21 3 18 -2 21 -38 20 -23 0 -44 -4 -46 -8z
m76 -20 c0 -4 -4 -8 -9 -8 -6 0 -12 4 -15 8 -3 5 1 9 9 9 8 0 15 -4 15 -9z"/>
<path d="M6585 2560 c5 -15 1 -26 -12 -36 -16 -14 -15 -15 22 -9 22 4 42 9 44
11 6 5 -20 34 -42 45 -17 9 -18 8 -12 -11z"/>
<path d="M6653 2497 c-15 -54 -62 -119 -115 -157 -22 -16 -35 -30 -29 -30 7 0
41 28 75 63 47 47 66 74 76 110 7 26 11 50 8 52 -2 2 -9 -15 -15 -38z"/>
<path d="M6213 2475 c0 -27 2 -38 4 -22 2 15 2 37 0 50 -2 12 -4 0 -4 -28z"/>
<path d="M6399 2751 c-13 -11 -22 -22 -19 -24 3 -3 18 6 33 19 33 28 20 33
-14 5z"/>
<path d="M6013 2630 c0 -30 2 -43 4 -27 2 15 2 39 0 55 -2 15 -4 2 -4 -28z"/>
<path d="M6304 2086 c-66 -29 -155 -132 -154 -178 0 -7 13 12 29 42 30 58 99
120 155 138 17 5 24 10 16 11 -8 0 -29 -6 -46 -13z"/>
<path d="M6481 2096 c8 -8 79 -35 79 -30 0 3 -16 12 -35 20 -33 14 -53 18 -44
10z"/>
<path d="M6426 2033 c-4 -4 -22 -8 -41 -10 -91 -5 -151 -113 -113 -200 7 -15
15 -30 18 -33 3 -3 14 -24 24 -47 18 -41 18 -57 0 -127 -5 -23 -3 -26 18 -26
13 0 40 -8 61 -19 42 -22 142 -37 151 -23 3 5 -3 20 -13 34 -11 13 -22 45 -26
71 -7 44 -6 47 19 57 27 10 29 16 26 63 -1 18 5 34 16 42 17 12 17 14 -1 41
-10 16 -24 54 -30 84 -10 49 -15 57 -50 77 -46 25 -49 26 -59 16z m43 -33 c26
0 51 -15 51 -31 0 -4 -12 -9 -27 -11 -19 -2 -32 -12 -41 -30 -7 -16 -17 -28
-23 -28 -5 0 -9 -9 -9 -20 0 -11 -5 -20 -10 -20 -20 0 -22 30 -5 56 9 14 15
35 14 47 -2 12 1 33 6 47 7 20 10 21 13 8 2 -12 13 -18 31 -18z m-59 1 c0 -6
-5 -13 -11 -17 -8 -4 -7 -9 2 -15 14 -8 6 -31 -32 -89 -9 -14 -24 -38 -33 -53
-10 -16 -20 -26 -23 -23 -3 3 2 18 12 33 l18 28 -26 -23 c-29 -27 -35 -21 -38
34 -2 47 19 90 58 115 30 20 73 25 73 10z m119 -96 c6 -24 15 -47 21 -50 15
-9 12 -35 -3 -35 -9 0 -13 -13 -11 -40 2 -33 -2 -44 -22 -57 -19 -12 -24 -24
-24 -55 l0 -40 -27 17 c-18 11 -11 0 21 -34 52 -53 56 -68 12 -52 -14 6 -32 8
-41 5 -8 -3 -28 4 -44 15 -16 12 -43 21 -60 21 -29 0 -30 2 -21 26 6 14 10 43
10 65 0 25 5 42 14 45 8 3 17 13 21 22 5 14 4 14 -13 -1 -10 -9 -23 -17 -29
-17 -20 0 -24 33 -6 54 10 12 19 23 20 25 1 2 11 -7 22 -20 11 -13 22 -21 26
-17 4 3 -3 16 -14 27 -23 23 -25 30 -11 51 8 13 11 12 23 -4 16 -22 37 -14 37
14 0 10 5 22 11 25 5 4 14 17 19 29 5 13 18 22 33 24 21 1 26 -4 36 -43z"/>
<path d="M6357 1911 c-24 -42 -21 -52 4 -13 12 18 20 35 17 37 -2 2 -12 -9
-21 -24z"/>
<path d="M6486 1884 c-11 -8 -16 -14 -10 -14 13 0 39 18 34 24 -3 2 -14 -2
-24 -10z"/>
<path d="M6620 1963 c-27 -10 -39 -24 -33 -39 3 -8 9 -14 14 -14 4 0 6 6 3 14
-3 9 3 17 15 21 12 3 21 11 21 16 0 5 -1 9 -2 8 -2 0 -10 -3 -18 -6z"/>
<path d="M6628 1893 c-10 -2 -18 -9 -18 -14 0 -12 10 -11 40 6 24 14 14 18
-22 8z"/>
<path d="M6143 1820 c0 -41 2 -58 4 -37 2 20 2 54 0 75 -2 20 -4 3 -4 -38z"/>
<path d="M6638 1843 c-21 -5 -24 -31 -5 -39 21 -8 67 14 67 31 0 15 -24 18
-62 8z m52 -7 c0 -3 -4 -8 -10 -11 -5 -3 -10 -1 -10 4 0 6 5 11 10 11 6 0 10
-2 10 -4z m-40 -16 c0 -5 -2 -10 -4 -10 -3 0 -8 5 -11 10 -3 6 -1 10 4 10 6 0
11 -4 11 -10z"/>
<path d="M6630 1770 c0 -6 6 -10 13 -10 7 -1 5 -6 -5 -14 -10 -7 -18 -17 -18
-21 0 -4 6 -3 13 3 7 6 22 9 34 6 13 -4 22 0 27 12 8 20 9 20 -31 27 -19 4
-33 2 -33 -3z m55 -20 c-3 -5 -11 -10 -16 -10 -6 0 -7 5 -4 10 3 6 11 10 16
10 6 0 7 -4 4 -10z"/>
<path d="M6284 1719 c0 -31 2 -45 7 -33 5 16 7 14 11 -11 5 -29 5 -29 6 5 1
19 -4 48 -11 63 -11 27 -12 26 -13 -24z"/>
<path d="M6615 1692 c6 -19 2 -25 -17 -30 l-23 -6 25 -6 c30 -8 62 -1 54 11
-3 5 -10 6 -16 3 -6 -4 -8 -3 -5 3 4 6 0 19 -9 29 -14 18 -15 18 -9 -4z"/>
<path d="M6680 1652 c0 -6 -16 -32 -37 -59 -20 -26 -26 -39 -14 -29 28 25 65
85 57 93 -3 4 -6 1 -6 -5z"/>
<path d="M6255 1560 c10 -11 20 -20 23 -20 3 0 -3 9 -13 20 -10 11 -20 20 -23
20 -3 0 3 -9 13 -20z"/>
<path d="M6550 1520 c-9 -6 -10 -10 -3 -10 6 0 15 5 18 10 8 12 4 12 -15 0z"/>
<path d="M6470 1500 l-45 -7 40 -1 c22 -1 47 3 55 8 8 5 11 9 5 8 -5 0 -30 -4
-55 -8z"/>
</g>
</svg>
