<?xml version="1.0" standalone="no"?>
<!DOCTYPE svg PUBLIC "-//W3C//DTD SVG 20010904//EN"
 "http://www.w3.org/TR/2001/REC-SVG-20010904/DTD/svg10.dtd">
<svg version="1.0" xmlns="http://www.w3.org/2000/svg"
 width="1024.000000pt" height="559.000000pt" viewBox="0 0 1024.000000 559.000000"
 preserveAspectRatio="xMidYMid meet">
<metadata>
Created by potrace 1.16, written by Peter Selinger 2001-2019
</metadata>
<g transform="translate(0.000000,559.000000) scale(0.100000,-0.100000)"
fill="#000000" stroke="none">
<path d="M4825 4664 c-388 -27 -638 -87 -726 -175 -46 -46 -72 -125 -72 -219
1 -77 14 -114 55 -157 29 -30 30 -33 15 -56 -8 -13 -55 -51 -105 -85 -153
-105 -280 -245 -350 -387 -90 -182 -126 -346 -126 -575 1 -312 71 -565 256
-935 118 -236 235 -406 441 -639 45 -51 48 -59 56 -129 10 -84 14 -95 56 -129
137 -114 520 -196 860 -185 303 10 567 72 712 167 63 42 81 74 85 160 2 62 5
67 47 110 224 229 414 532 559 890 99 244 132 396 139 641 4 139 2 198 -11
278 -29 172 -98 353 -176 459 -58 80 -178 197 -262 257 -141 100 -161 126
-117 153 54 34 76 172 43 282 -20 68 -36 92 -83 125 -102 70 -389 131 -733
155 -180 12 -328 11 -563 -6z m612 -34 c270 -22 504 -67 614 -119 95 -45 121
-89 127 -218 4 -82 2 -96 -18 -128 -73 -118 -537 -215 -1030 -215 -499 0 -957
93 -1041 211 -42 59 -34 210 15 282 64 94 370 168 796 190 141 8 421 6 537 -3z
m-1216 -591 c216 -89 707 -143 1099 -120 330 19 623 72 752 137 25 13 28 12
44 -16 10 -16 57 -57 105 -90 257 -177 381 -361 449 -666 30 -131 33 -378 6
-534 -42 -252 -181 -599 -350 -875 -136 -221 -338 -456 -435 -505 -194 -97
-475 -152 -776 -151 -268 1 -551 56 -734 142 -77 37 -95 51 -174 138 -208 230
-397 542 -532 881 -86 215 -120 393 -119 635 0 228 33 383 116 550 69 137 199
279 353 385 44 30 89 69 100 87 11 18 21 32 21 33 1 0 34 -14 75 -31z m132
-2702 c101 -56 308 -114 497 -139 52 -7 181 -12 285 -12 209 0 355 18 515 61
102 27 267 90 276 104 15 24 22 3 17 -48 -7 -70 -29 -98 -111 -138 -177 -87
-428 -136 -697 -137 -271 -1 -539 49 -713 134 -97 48 -121 83 -122 176 0 27 1
27 53 -1z"/>
<path d="M4670 4544 c-232 -28 -365 -64 -394 -106 -53 -76 117 -135 498 -173
443 -45 1081 15 1187 111 42 38 -3 105 -73 110 -18 1 -51 7 -73 13 -100 28
-391 66 -375 48 3 -2 61 -12 130 -21 293 -39 424 -86 358 -130 -102 -67 -420
-110 -798 -110 -495 1 -907 78 -817 152 56 47 354 96 672 111 l170 8 -185 0
c-102 1 -237 -5 -300 -13z"/>
<path d="M6118 4359 c-31 -50 -147 -100 -333 -145 -55 -13 -80 -22 -55 -19 89
11 246 56 308 88 40 20 71 44 84 65 11 17 17 32 14 32 -3 0 -11 -9 -18 -21z"/>
<path d="M4121 4350 c37 -61 293 -145 474 -155 l70 -4 -55 9 c-278 48 -424 95
-481 153 l-23 22 15 -25z"/>
<path d="M4050 3859 c-100 -81 -146 -125 -183 -178 -25 -36 -15 -29 49 35 43
44 111 108 149 141 39 34 68 62 65 62 -3 0 -39 -27 -80 -60z"/>
<path d="M6130 3908 c8 -8 44 -41 80 -74 60 -55 62 -56 31 -16 -18 23 -54 56
-80 74 -25 17 -39 24 -31 16z"/>
<path d="M3774 3537 c63 -55 315 -171 333 -153 3 3 -8 8 -23 12 -53 13 -222
92 -286 134 -60 39 -61 40 -24 7z"/>
<path d="M6389 3525 c-133 -100 -411 -198 -724 -255 -89 -16 -98 -19 -45 -15
255 19 702 175 799 279 32 35 25 32 -30 -9z"/>
<path d="M6520 3409 c0 -3 6 -28 14 -55 39 -136 48 -216 44 -394 -3 -113 -1
-163 5 -140 5 19 9 105 10 190 0 136 -3 168 -26 263 -23 92 -46 158 -47 136z"/>
<path d="M4135 3370 c11 -5 27 -9 35 -9 9 0 8 4 -5 9 -11 5 -27 9 -35 9 -9 0
-8 -4 5 -9z"/>
<path d="M5498 3243 c12 -2 30 -2 40 0 9 3 -1 5 -23 4 -22 0 -30 -2 -17 -4z"/>
<path d="M5393 3233 c9 -2 23 -2 30 0 6 3 -1 5 -18 5 -16 0 -22 -2 -12 -5z"/>
<path d="M3683 2870 c0 -36 2 -50 4 -32 2 17 2 47 0 65 -2 17 -4 3 -4 -33z"/>
<path d="M3691 2782 c-2 -43 30 -177 75 -312 41 -123 190 -447 227 -495 9 -11
-17 48 -58 131 -110 224 -184 426 -225 614 -10 47 -18 75 -19 62z"/>
<path d="M6562 2760 c0 -14 2 -19 5 -12 2 6 2 18 0 25 -3 6 -5 1 -5 -13z"/>
<path d="M6521 2554 c0 -11 3 -14 6 -6 3 7 2 16 -1 19 -3 4 -6 -2 -5 -13z"/>
<path d="M6502 2488 c-6 -23 -9 -44 -7 -46 2 -2 9 15 15 38 6 23 9 44 7 46 -2
3 -9 -14 -15 -38z"/>
<path d="M4177 1690 c17 -25 49 -65 72 -90 29 -31 23 -20 -19 35 -74 95 -94
117 -53 55z"/>
</g>
</svg>
