<?xml version="1.0" standalone="no"?>
<!DOCTYPE svg PUBLIC "-//W3C//DTD SVG 20010904//EN"
 "http://www.w3.org/TR/2001/REC-SVG-20010904/DTD/svg10.dtd">
<svg version="1.0" xmlns="http://www.w3.org/2000/svg"
 width="1024.000000pt" height="559.000000pt" viewBox="0 0 1024.000000 559.000000"
 preserveAspectRatio="xMidYMid meet">
<metadata>
Created by potrace 1.16, written by Peter Selinger 2001-2019
</metadata>
<g transform="translate(0.000000,559.000000) scale(0.100000,-0.100000)"
fill="#000000" stroke="none">
<path d="M5265 4510 c-3 -5 -25 -10 -47 -10 -23 0 -65 -8 -94 -17 -65 -20
-137 -97 -159 -170 -18 -60 -19 -81 -1 -114 7 -14 19 -70 25 -125 7 -54 21
-124 32 -156 27 -81 83 -172 121 -196 l32 -21 -60 -26 c-81 -36 -118 -75 -171
-180 -25 -49 -68 -130 -96 -179 -39 -70 -48 -93 -39 -106 5 -9 7 -22 2 -29 -5
-10 -20 -7 -61 10 -109 46 -159 86 -159 127 0 15 -13 47 -30 72 -28 42 -29 49
-23 115 5 66 4 72 -22 103 -48 57 -125 35 -125 -37 0 -33 -5 -42 -39 -64 -26
-18 -40 -35 -45 -57 -9 -49 -7 -128 4 -135 6 -3 10 -14 10 -24 0 -33 63 -88
120 -105 29 -9 59 -16 66 -16 7 0 53 -32 101 -71 104 -83 179 -128 228 -136
34 -5 40 -2 89 49 44 45 57 53 71 45 16 -8 14 -11 -14 -23 -33 -14 -41 -46
-21 -84 7 -12 5 -33 -5 -67 -8 -26 -15 -58 -15 -70 0 -31 45 -80 81 -88 29 -7
31 -9 24 -39 -25 -119 -36 -223 -49 -451 -9 -143 -18 -302 -22 -352 -5 -84 -4
-93 13 -99 10 -4 44 -18 75 -31 l57 -25 6 -57 c4 -31 16 -107 26 -169 27 -164
27 -170 -18 -188 -21 -9 -71 -31 -111 -51 -61 -29 -73 -38 -70 -56 3 -19 10
-22 59 -25 60 -3 182 19 225 40 l27 13 2 200 c2 110 6 219 10 243 9 50 21 53
111 21 43 -15 77 -19 126 -17 l68 4 5 -31 c23 -148 55 -356 55 -363 0 -5 -22
-40 -50 -77 -69 -94 -67 -135 6 -135 44 0 92 28 119 69 23 34 26 46 20 83 -4
24 -7 144 -7 268 l1 225 39 7 c43 7 97 31 107 48 3 5 -1 51 -9 102 -8 51 -22
156 -30 233 -38 344 -57 485 -72 536 -24 85 -23 109 3 147 12 19 23 47 23 61
0 22 7 29 34 39 41 15 56 50 56 128 0 52 1 54 35 68 29 13 35 19 31 38 -3 13
-10 48 -15 78 -17 91 -39 192 -57 250 -18 61 -58 145 -74 155 -5 3 -17 21 -26
40 -13 28 -27 38 -72 55 -32 11 -69 27 -85 36 -16 9 -44 14 -69 12 -37 -3 -43
0 -49 22 -11 38 -10 108 1 115 23 14 82 152 85 200 2 28 7 73 11 101 8 62 -13
135 -54 182 -15 17 -36 43 -47 57 -31 39 -215 99 -230 75z m117 -43 c85 -31
92 -36 122 -77 49 -66 67 -116 64 -173 -2 -39 -7 -51 -17 -49 -30 6 -62 -9
-80 -39 l-18 -30 -6 48 c-3 26 -10 49 -16 51 -6 2 -11 18 -11 35 0 37 -18 70
-27 50 -8 -22 -23 -14 -23 12 0 28 -13 31 -50 10 -34 -19 -40 -18 -40 5 0 26
-4 25 -58 -6 -35 -20 -44 -23 -39 -10 9 22 -12 20 -43 -4 -32 -25 -40 -25 -40
0 0 26 -18 25 -48 -2 l-25 -23 6 23 c9 37 -13 25 -34 -20 l-20 -43 4 41 c7 59
32 105 72 133 19 13 33 28 32 34 -3 16 70 35 135 36 31 1 60 6 63 11 9 15 25
13 97 -13z m-90 -194 c13 2 30 8 39 11 12 5 18 0 23 -18 3 -14 13 -26 20 -26
8 0 17 -15 20 -34 4 -19 13 -37 21 -40 10 -3 15 -19 15 -45 0 -29 5 -43 18
-50 16 -8 20 -4 31 25 23 65 81 61 81 -5 0 -36 -40 -95 -67 -99 -24 -4 -33
-42 -32 -132 0 -71 18 -122 47 -135 28 -12 28 -16 -2 -48 -27 -29 -110 -57
-171 -57 -45 0 -131 26 -141 42 -7 11 13 28 34 28 6 0 12 -7 12 -15 0 -8 5
-15 10 -15 6 0 10 9 10 20 0 13 11 24 33 34 43 18 104 71 123 108 23 44 12 55
-15 16 -13 -19 -46 -51 -74 -71 -42 -32 -57 -37 -102 -37 -71 0 -95 21 -151
135 -40 80 -48 105 -52 169 l-5 76 44 0 c33 0 40 3 31 12 -6 6 -27 12 -47 12
l-35 1 0 58 c0 43 3 57 13 54 6 -2 20 3 30 11 16 14 19 14 31 -3 13 -18 15
-18 38 -3 17 11 29 13 35 7 7 -7 23 -4 49 9 28 14 43 17 51 10 7 -6 23 -8 35
-5z m218 -317 c0 -8 -4 -18 -10 -21 -5 -3 -10 3 -10 14 0 12 5 21 10 21 6 0
10 -6 10 -14z m117 -245 l52 -24 -20 -28 c-22 -31 -89 -174 -89 -190 0 -6 22
34 50 89 59 118 71 130 105 112 l24 -13 -31 -36 c-17 -19 -44 -63 -60 -97 -24
-51 -85 -277 -125 -459 -8 -39 -10 -40 -54 -43 -79 -5 -81 11 -21 136 29 59
52 112 52 117 -1 6 -23 -34 -49 -88 -27 -54 -53 -103 -58 -108 -6 -6 -21 -4
-40 6 -26 13 -38 13 -75 4 -49 -13 -93 -7 -101 15 -3 8 26 55 66 107 119 157
253 378 292 482 10 26 21 46 24 45 4 -2 30 -14 58 -27z m-352 -111 c54 -11
126 -6 174 12 13 5 26 7 28 4 7 -6 -96 -174 -181 -295 l-80 -115 -14 30 c-12
28 -11 5 2 -26 11 -25 -66 -97 -108 -102 l-36 -4 0 97 c0 117 -9 196 -21 177
-5 -7 -9 -77 -9 -155 0 -79 -4 -143 -8 -143 -4 0 -26 18 -47 41 -22 22 -62 54
-90 71 -27 18 -51 33 -53 34 -2 1 8 20 21 41 14 22 53 94 86 161 71 141 108
187 175 217 l48 21 29 -27 c19 -18 50 -32 84 -39z m-805 3 c22 -16 23 -16 17
3 -6 14 -2 13 13 -6 11 -14 19 -32 19 -40 0 -8 -4 -5 -9 8 -14 34 -18 27 -12
-26 5 -52 -12 -78 -42 -66 -12 5 -13 10 -5 26 12 22 -3 48 -27 48 -17 0 -18
42 -2 58 16 16 19 15 48 -5z m1320 -22 c41 -58 65 -136 105 -336 18 -88 21
-121 12 -127 -21 -13 -131 -19 -187 -11 l-55 8 -2 55 c-5 98 -14 160 -25 160
-8 0 -9 -35 -5 -112 6 -113 10 -125 51 -142 8 -3 7 -7 -1 -13 -16 -11 -132
-37 -138 -31 -3 3 2 25 10 49 9 24 32 105 51 179 19 74 44 162 55 196 23 73
73 154 93 154 8 0 24 -13 36 -29z m-1360 -67 c0 -4 -15 -23 -33 -43 -17 -20
-42 -49 -55 -66 l-23 -30 6 40 c8 46 18 61 60 87 31 19 45 22 45 12z m20 -73
c15 -29 13 -31 -20 -14 -17 8 -28 19 -25 24 10 15 34 10 45 -10z m79 -46 c18
-31 34 -70 38 -88 10 -56 56 -91 202 -154 85 -38 101 -41 78 -15 -21 23 -22
42 -3 42 14 0 116 -71 116 -81 0 -19 -75 -100 -97 -105 -37 -10 -124 37 -236
125 -74 58 -99 72 -156 86 -73 18 -111 46 -130 98 -16 42 -14 55 14 82 26 27
66 33 84 12 8 -11 5 -13 -17 -10 -20 3 -34 -3 -56 -26 -37 -39 -29 -50 12 -16
36 30 63 32 87 5 10 -11 13 -20 7 -20 -6 0 -14 5 -17 10 -3 6 -12 10 -20 10
-19 0 -72 -47 -63 -56 5 -4 16 0 26 9 23 21 56 22 72 2 10 -12 10 -19 1 -28
-9 -9 -14 -9 -21 3 -7 12 -12 12 -22 2 -10 -10 -10 -15 2 -22 20 -13 47 -13
55 0 9 15 31 12 49 -6 15 -14 16 -14 16 1 0 8 -11 21 -25 27 -18 8 -25 19 -25
38 0 15 -3 30 -7 34 -5 4 -8 17 -9 29 0 12 -4 32 -8 45 -15 45 22 22 53 -33z
m639 -297 c-6 -18 -28 -21 -28 -4 0 9 7 16 16 16 9 0 14 -5 12 -12z m-61 -24
c-9 -9 -28 6 -21 18 4 6 10 6 17 -1 6 -6 8 -13 4 -17z m-37 -5 c0 -5 -4 -9
-10 -9 -5 0 -10 7 -10 16 0 8 5 12 10 9 6 -3 10 -10 10 -16z m782 -50 c-4 -66
-21 -94 -64 -104 -18 -5 -105 -9 -193 -10 l-160 -1 -56 -32 c-31 -18 -69 -32
-85 -31 -29 1 -29 1 -4 9 25 8 25 8 -5 10 -16 1 -39 5 -50 10 -16 7 -13 9 18
9 51 1 47 21 -5 22 -66 1 -95 17 -33 18 74 2 95 21 23 21 -31 0 -69 5 -85 12
-26 11 -23 12 43 18 93 8 159 48 104 63 -35 9 -24 37 14 37 25 0 45 -10 79
-40 33 -29 54 -40 79 -40 46 0 278 51 278 62 0 4 -9 8 -21 8 -11 0 -18 3 -16
8 3 4 36 6 74 6 l68 -1 -3 -54z m-688 42 c3 -5 -1 -11 -9 -14 -9 -4 -12 -1 -8
9 6 16 10 17 17 5z m100 -27 c4 -9 4 -19 1 -22 -3 -3 -5 0 -5 6 0 19 -48 13
-135 -16 -74 -25 -80 -29 -89 -62 -10 -34 -10 -34 -14 -8 -5 42 14 66 61 78
23 5 62 16 87 24 61 19 87 19 94 0z m-194 -5 c-19 -6 -43 -19 -52 -31 -10 -11
-18 -15 -18 -9 0 6 -4 11 -9 11 -6 0 -6 -12 0 -32 5 -17 7 -33 5 -35 -6 -7
-28 56 -24 69 5 13 77 36 113 36 11 0 4 -4 -15 -9z m170 -29 c0 -5 -15 -10
-32 -9 -28 0 -30 2 -13 9 28 12 45 12 45 0z m-97 -81 c20 -27 53 -59 72 -72
19 -12 34 -29 32 -37 -4 -24 -105 -59 -168 -60 -72 0 -109 25 -109 75 0 52 8
67 32 54 21 -12 48 3 48 27 0 29 20 64 37 63 10 0 35 -22 56 -50z m617 -55 c0
-28 -33 -73 -66 -89 -36 -17 -85 -20 -99 -6 -12 11 -55 -4 -55 -19 0 -5 -5
-10 -10 -10 -6 0 -4 10 4 23 8 12 17 33 21 47 4 16 -3 10 -20 -18 -15 -24 -38
-47 -52 -53 -26 -9 -103 -13 -103 -4 0 3 13 18 30 33 26 23 69 102 56 102 -3
0 -19 -20 -36 -45 -39 -56 -64 -73 -121 -81 -51 -7 -46 -7 -84 -5 -28 1 -28 3
-10 13 11 6 31 21 45 33 14 13 43 28 66 34 23 6 56 22 75 35 32 23 41 24 197
25 142 1 162 -1 162 -15z m-154 -172 c-9 -8 -14 0 -21 33 l-6 30 16 -28 c9
-16 14 -31 11 -35z m114 49 c0 -5 -20 -16 -44 -24 -37 -13 -45 -13 -50 -2 -3
9 8 17 32 23 49 13 62 14 62 3z m-336 -30 c202 1 196 2 171 -13 -36 -21 -244
-22 -352 -3 -72 14 -91 20 -73 25 14 4 38 3 54 -2 16 -4 106 -7 200 -7z m-255
-64 c-5 -17 -11 -68 -14 -112 l-4 -80 13 87 c22 139 21 137 58 129 25 -6 33
-12 31 -27 -15 -156 -23 -285 -22 -372 l2 -107 8 140 c7 125 27 347 32 352 1
1 30 -1 65 -4 l62 -6 2 -91 2 -91 3 91 4 91 73 6 c40 4 80 9 90 13 14 5 16 -5
16 -94 0 -99 0 -101 -31 -131 -27 -28 -30 -36 -26 -74 9 -70 19 -111 30 -125
6 -7 7 -40 3 -81 -7 -75 -4 -80 46 -73 26 4 28 8 28 48 0 24 -4 44 -10 44 -14
0 -13 33 2 48 23 23 39 12 64 -42 34 -74 48 -85 74 -55 27 33 25 45 -15 83
-35 31 -36 34 -37 107 -1 81 -8 104 -43 134 -21 18 -24 30 -26 114 -3 88 -2
95 18 104 37 16 49 3 62 -74 17 -96 19 -102 20 -54 1 22 -5 64 -12 93 -15 55
-13 62 13 62 28 0 45 -100 85 -490 10 -91 25 -219 35 -285 21 -143 21 -144
-82 -165 -35 -7 -101 -21 -148 -32 -91 -21 -151 -19 -214 7 -23 10 -69 15
-131 15 -78 0 -109 5 -158 24 -34 13 -70 27 -81 30 -16 6 -18 13 -12 64 3 31
10 163 16 292 11 235 31 432 50 502 10 35 12 36 39 27 27 -10 29 -13 20 -42z
m460 -99 c1 -40 -3 -68 -9 -68 -6 0 -10 38 -9 98 2 109 16 85 18 -30z m1 -98
c0 -5 -4 -10 -10 -10 -5 0 -10 5 -10 10 0 6 5 10 10 10 6 0 10 -4 10 -10z m60
-31 c13 -23 12 -60 0 -79 -7 -11 -8 -5 -4 18 5 25 2 40 -15 62 -15 21 -17 28
-6 24 9 -4 20 -15 25 -25z m-114 2 c-28 -31 -28 -60 0 -88 14 -14 23 -27 20
-30 -10 -10 -56 47 -56 70 0 21 32 67 47 67 3 0 -1 -8 -11 -19z m88 -17 c14
-37 6 -53 -29 -60 -19 -3 -42 -4 -50 0 -18 7 -20 47 -3 64 18 18 75 15 82 -4z
m-18 -96 c-1 -17 5 -24 22 -26 16 -2 22 2 22 15 0 14 2 15 9 4 5 -8 7 -20 4
-28 -8 -20 17 -73 34 -73 10 0 13 -6 9 -16 -4 -12 -2 -15 9 -10 19 7 20 -8 1
-23 -11 -9 -19 0 -44 46 -20 39 -37 60 -53 63 -24 6 -35 30 -25 56 8 21 13 17
12 -8z m-40 -48 c27 0 32 -15 9 -24 -19 -7 -21 -76 -2 -77 10 0 10 -2 0 -6 -7
-2 -13 -13 -13 -23 0 -10 6 -21 13 -24 6 -3 3 -5 -8 -3 -18 2 -20 9 -16 75 2
43 -1 72 -7 72 -12 0 -23 36 -13 45 3 4 7 -3 9 -14 2 -15 11 -21 28 -21z
m-321 -609 c-4 -36 -8 -142 -10 -236 l-1 -169 -80 -18 c-43 -9 -99 -17 -124
-17 l-45 0 35 17 c19 10 60 28 90 41 30 13 63 31 74 40 22 19 20 46 -17 261
-14 79 -24 147 -22 150 2 3 26 3 55 1 l52 -3 -7 -67z m454 -155 c-2 -116 0
-232 5 -257 8 -43 6 -48 -23 -82 -32 -36 -85 -57 -103 -39 -6 6 7 33 36 76 39
57 46 73 46 116 0 40 -36 280 -55 367 -4 19 1 23 37 31 24 5 47 7 52 4 4 -3 7
-100 5 -216z"/>
<path d="M5208 4148 c-42 -15 -35 -32 10 -24 20 3 55 6 77 6 37 1 39 2 21 15
-22 17 -68 18 -108 3z"/>
<path d="M5498 4094 c-9 -20 -9 -27 0 -33 7 -4 10 -15 6 -24 -3 -9 -2 -17 4
-17 5 0 12 10 16 23 8 32 7 39 -4 32 -5 -3 -10 1 -10 9 0 8 8 20 18 25 16 10
16 10 -1 11 -9 0 -23 -12 -29 -26z"/>
<path d="M5116 4073 c-11 -40 -18 -114 -12 -138 7 -28 34 -33 82 -15 19 8 24
14 17 21 -8 8 -17 7 -33 -1 -43 -23 -52 -7 -45 75 7 70 3 97 -9 58z"/>
<path d="M5224 4065 c-8 -20 16 -49 29 -36 11 11 0 51 -14 51 -5 0 -12 -7 -15
-15z"/>
<path d="M5046 4061 c-8 -12 3 -41 15 -41 5 0 9 11 9 25 0 25 -14 34 -24 16z"/>
<path d="M5175 3850 c-27 -3 -45 -8 -40 -11 6 -3 37 -3 70 0 33 4 51 8 40 11
-11 3 -42 3 -70 0z"/>
<path d="M5170 3800 c0 -13 20 -13 40 0 12 8 9 10 -12 10 -16 0 -28 -4 -28
-10z"/>
<path d="M5549 3598 c-48 -115 -78 -173 -156 -301 -29 -49 -49 -86 -45 -83 16
9 93 128 137 210 45 83 120 265 112 272 -3 3 -24 -42 -48 -98z"/>
<path d="M5150 3618 c0 -3 9 -28 21 -55 21 -50 60 -98 94 -115 11 -6 5 3 -13
18 -18 16 -48 58 -67 94 -19 36 -35 62 -35 58z"/>
<path d="M5417 3564 c-3 -4 -35 -15 -69 -25 -38 -10 -53 -18 -37 -18 30 -1
116 27 125 40 6 10 -9 12 -19 3z"/>
<path d="M5096 3385 c5 -63 33 -209 39 -203 4 3 -31 218 -39 248 -3 8 -3 -12
0 -45z"/>
<path d="M4482 3540 c0 -14 2 -19 5 -12 2 6 2 18 0 25 -3 6 -5 1 -5 -13z"/>
<path d="M5001 2822 c-1 -20 18 -52 31 -52 7 0 5 7 -4 18 -9 9 -18 24 -21 32
-4 10 -6 11 -6 2z"/>
<path d="M5057 2779 c7 -7 15 -10 18 -7 3 3 -2 9 -12 12 -14 6 -15 5 -6 -5z"/>
<path d="M5671 2827 c-13 -21 -12 -21 5 -5 10 10 16 20 13 22 -3 3 -11 -5 -18
-17z"/>
<path d="M5364 2085 c0 -66 1 -92 3 -57 2 34 2 88 0 120 -2 31 -3 3 -3 -63z"/>
<path d="M5372 1930 c0 -14 2 -19 5 -12 2 6 2 18 0 25 -3 6 -5 1 -5 -13z"/>
</g>
</svg>
