<?xml version="1.0" standalone="no"?>
<!DOCTYPE svg PUBLIC "-//W3C//DTD SVG 20010904//EN"
 "http://www.w3.org/TR/2001/REC-SVG-20010904/DTD/svg10.dtd">
<svg version="1.0" xmlns="http://www.w3.org/2000/svg"
 width="1024.000000pt" height="559.000000pt" viewBox="0 0 1024.000000 559.000000"
 preserveAspectRatio="xMidYMid meet">
<metadata>
Created by potrace 1.16, written by Peter Selinger 2001-2019
</metadata>
<g transform="translate(0.000000,559.000000) scale(0.100000,-0.100000)"
fill="#000000" stroke="none">
<path d="M3384 5059 c-94 -49 -91 -42 -82 -166 4 -59 5 -109 3 -111 -2 -2 -37
-5 -77 -6 l-73 -1 -3 32 -3 32 -88 -6 c-86 -6 -88 -5 -94 18 -4 13 -7 36 -7
51 0 44 -20 46 -285 20 l-70 -7 0 -93 c0 -108 19 -96 -168 -112 -71 -6 -138
-15 -150 -21 -16 -6 -7 -7 31 -3 29 3 108 11 175 18 l122 11 -2 93 c-1 65 2
92 10 92 7 1 60 7 120 14 59 7 110 10 112 7 3 -2 5 -47 6 -100 1 -53 5 -121 9
-151 6 -35 7 2 3 104 l-5 159 32 -7 c18 -3 36 -6 41 -6 5 0 9 -30 10 -67 1
-38 4 -93 9 -123 l7 -55 2 66 c1 78 2 79 100 79 l68 0 6 -107 c4 -58 7 -131 7
-162 0 -31 5 -63 10 -71 6 -9 7 37 3 126 l-6 141 33 6 c18 4 49 7 69 7 61 0
64 5 59 124 l-4 106 153 0 153 0 1 -57 c1 -32 5 -150 9 -263 l7 -205 -1 267
-1 267 63 36 62 37 60 -38 60 -39 0 -110 0 -110 75 3 c41 2 75 7 75 11 0 5
-32 6 -71 3 l-70 -5 2 107 2 108 -66 44 -66 44 -160 0 c-158 0 -159 0 -217
-31z m336 13 c0 -4 -22 -19 -49 -34 -47 -27 -54 -28 -197 -28 l-149 0 45 28
c41 25 56 27 173 32 70 3 139 6 152 7 14 2 25 -1 25 -5z"/>
<path d="M7200 4999 c-224 -94 -240 -102 -231 -113 6 -7 12 -95 14 -207 l2
-194 3 199 2 198 43 -6 c23 -3 91 -10 151 -16 60 -6 113 -13 118 -16 4 -3 9
-80 10 -172 l2 -167 6 173 5 173 132 62 c73 34 133 65 133 68 0 16 -357 32
-390 18z m210 -15 l145 -7 -122 -58 -122 -59 -156 17 c-85 9 -153 19 -149 22
13 14 230 99 244 96 8 -2 80 -7 160 -11z"/>
<path d="M4087 4993 c-12 -12 -7 -41 8 -47 13 -5 15 -44 12 -296 -2 -207 -7
-294 -15 -302 -22 -22 -14 -45 19 -52 40 -8 83 -8 103 0 18 7 22 40 5 46 -7 2
-12 100 -16 296 -6 271 -5 293 12 312 29 32 5 50 -65 50 -31 0 -60 -3 -63 -7z
m123 -22 c0 -5 -7 -12 -16 -15 -15 -6 -15 -35 -9 -305 l7 -298 -22 -6 c-51
-13 -50 -17 -50 304 0 257 -2 300 -15 305 -33 13 -12 24 45 24 33 0 60 -4 60
-9z m8 -645 c11 -12 -8 -18 -55 -19 -49 -1 -77 8 -69 21 5 9 115 6 124 -2z"/>
<path d="M4327 4994 c-11 -11 -8 -44 3 -44 6 0 10 -95 10 -266 0 -226 -2 -268
-15 -281 -9 -8 -14 -20 -12 -26 8 -26 103 -35 132 -13 18 13 19 15 3 33 -14
15 -17 54 -19 281 -3 211 -1 265 10 271 7 5 11 17 9 27 -3 15 -14 20 -58 22
-31 2 -59 0 -63 -4z m98 -34 c-17 -19 -18 -38 -11 -285 l7 -265 -37 0 -37 0 7
270 c7 241 6 271 -8 276 -33 13 -14 24 41 24 55 0 56 0 38 -20z m13 -580 c3
-8 -13 -10 -49 -8 -29 2 -54 8 -56 14 -3 8 14 10 49 8 29 -1 54 -7 56 -14z"/>
<path d="M4563 4984 c-3 -8 -1 -20 6 -27 7 -7 11 -84 11 -244 0 -195 -3 -238
-16 -258 -14 -22 -14 -24 6 -35 11 -6 42 -10 68 -8 41 3 47 6 44 23 -2 11 -7
43 -12 70 -13 78 -12 439 1 452 24 24 2 43 -51 43 -37 0 -52 -4 -57 -16z m94
-18 c-17 -13 -17 -30 -11 -260 l7 -246 -33 0 -33 0 6 242 c5 213 4 245 -10
260 -15 17 -13 18 38 18 48 -1 52 -2 36 -14z m3 -532 c3 -5 -6 -10 -19 -12
-29 -5 -71 6 -71 17 0 11 84 7 90 -5z"/>
<path d="M5913 4944 c-3 -8 -1 -20 6 -27 17 -17 14 -75 -6 -85 -16 -9 -16 -11
0 -36 14 -21 17 -52 17 -184 0 -107 -4 -162 -12 -170 -18 -18 8 -23 98 -20
l79 3 5 133 c5 126 6 135 29 153 31 25 64 24 96 -3 29 -26 32 -42 34 -186 l1
-103 86 3 86 3 -1 177 c-1 129 2 183 11 198 11 17 11 22 -1 29 -9 6 -12 25
-10 67 l4 59 -258 3 c-227 2 -258 0 -264 -14z m395 -11 c-71 -2 -185 -2 -255
0 -71 1 -13 3 127 3 140 0 198 -2 128 -3z m-31 -23 l133 0 0 -40 0 -40 -235 0
-235 0 0 39 c0 22 6 42 13 45 6 3 52 4 101 1 49 -3 149 -5 223 -5z m158 -100
c-4 -6 -100 -10 -255 -10 -155 0 -251 4 -255 10 -4 7 83 10 255 10 172 0 259
-3 255 -10z m-117 -26 l92 -7 0 -63 0 -64 -70 0 c-54 0 -70 3 -70 14 0 8 -12
28 -26 45 -21 26 -33 31 -69 31 -35 0 -48 -5 -64 -26 -11 -14 -23 -34 -26 -45
-5 -16 -16 -19 -76 -19 l-69 0 0 70 0 70 143 0 c79 0 185 -3 235 -6z m-236
-249 c-4 -105 -22 -132 -22 -32 0 90 -34 132 -74 91 -12 -11 -16 -35 -16 -85
0 -55 -3 -69 -15 -69 -12 0 -15 17 -15 95 l0 95 73 0 72 0 -3 -95z m330 0 c3
-85 1 -95 -14 -95 -15 0 -18 10 -18 68 0 80 -8 95 -46 90 -33 -4 -41 -25 -43
-105 -1 -29 -5 -53 -11 -53 -6 0 -10 38 -10 95 l0 95 69 0 70 0 3 -95z m-372
-23 l5 -72 -32 0 -33 0 0 53 c0 76 8 99 34 95 19 -3 22 -11 26 -76z m318 66
c7 -7 12 -40 12 -79 l0 -67 -32 3 -33 3 1 59 c0 33 4 68 7 77 7 19 28 21 45 4z"/>
<path d="M3723 4880 c0 -25 2 -35 4 -22 2 12 2 32 0 45 -2 12 -4 2 -4 -23z"/>
<path d="M3793 4880 c0 -25 2 -35 4 -22 2 12 2 32 0 45 -2 12 -4 2 -4 -23z"/>
<path d="M5703 4873 c-22 -4 -23 -7 -21 -116 l2 -112 3 108 4 107 52 1 c29 1
66 5 82 9 23 6 14 8 -35 7 -36 0 -75 -2 -87 -4z"/>
<path d="M6683 4830 c-75 -36 -78 -39 -78 -71 l0 -34 -55 -1 c-80 -2 -84 -7
-11 -13 l64 -6 -2 -87 c-1 -52 2 -89 8 -93 8 -4 11 34 11 120 l0 127 68 -6
c193 -16 254 -18 248 -7 -4 6 -31 11 -60 11 -85 0 -236 12 -236 19 0 4 27 19
59 34 47 21 75 27 137 28 87 1 82 6 -13 12 -55 3 -71 -1 -140 -33z"/>
<path d="M4833 4823 l117 -4 0 -84 c0 -57 4 -85 11 -85 8 0 10 15 5 46 -3 26
-6 66 -6 90 l0 44 -122 -2 -123 -2 118 -3z"/>
<path d="M2726 4773 c9 -65 14 -67 14 -5 0 30 -4 52 -11 52 -7 0 -8 -16 -3
-47z"/>
<path d="M7068 4803 c-21 -5 -24 -33 -6 -51 13 -13 13 -47 -1 -433 -6 -174 -9
-210 -25 -234 -27 -42 -4 -60 77 -60 58 0 62 2 65 24 2 13 -1 28 -7 34 -7 7
-11 113 -11 325 0 281 2 317 18 344 16 28 16 30 -2 44 -19 13 -71 17 -108 7z
m99 -29 c6 -19 -27 -45 -51 -40 -11 3 -8 0 7 -7 l29 -11 -7 -306 c-4 -168 -9
-307 -11 -309 -5 -6 -54 -4 -60 2 -3 3 -1 143 6 311 10 266 10 310 -3 335 -13
27 -13 30 2 35 28 8 84 1 88 -10z m-17 -696 c0 -10 -77 -10 -84 0 -2 4 15 7
40 7 24 0 44 -3 44 -7z m-29 -18 c27 0 49 -4 49 -9 0 -15 -77 -22 -104 -9 -28
12 -37 34 -10 24 9 -3 38 -6 65 -6z"/>
<path d="M7108 4773 c12 -2 30 -2 40 0 9 3 -1 5 -23 4 -22 0 -30 -2 -17 -4z"/>
<path d="M5362 4718 l2 -83 3 73 4 72 112 1 c175 2 195 16 25 18 l-148 1 2
-82z"/>
<path d="M7830 4691 c-148 -25 -155 -27 -158 -50 -2 -14 3 -30 11 -35 8 -7 16
-35 19 -68 3 -34 11 -65 21 -76 16 -17 17 -39 7 -258 -5 -131 -11 -297 -13
-368 -4 -120 -6 -131 -26 -144 -30 -21 -26 -49 12 -73 25 -16 45 -19 94 -17
35 2 68 9 74 15 12 12 10 17 -16 63 -12 20 -13 86 -8 390 3 201 10 370 15 377
7 9 18 9 46 -1 20 -7 54 -16 75 -20 27 -5 37 -12 37 -26 0 -10 8 -23 17 -28
16 -9 16 -29 0 -323 -10 -173 -17 -357 -17 -410 0 -90 -2 -98 -26 -122 -34
-34 -28 -56 21 -84 32 -19 49 -22 85 -18 83 12 90 15 90 45 0 16 -6 30 -12 33
-18 5 -12 846 5 864 10 10 26 9 77 -3 71 -16 118 -14 55 3 -22 6 -139 37 -260
69 -374 98 -340 86 -343 118 -7 54 -3 55 115 29 59 -13 173 -37 253 -54 80
-16 153 -32 163 -35 9 -3 17 -1 17 3 0 5 -24 14 -52 20 -242 53 -306 66 -398
85 -58 11 -111 25 -117 31 -22 16 -4 26 30 16 67 -19 479 -100 484 -95 8 8 0
10 -252 61 -126 26 -231 48 -233 49 -3 4 269 46 295 46 12 0 25 5 28 10 9 15
-43 11 -215 -19z m-35 -213 c48 -13 60 -28 21 -28 -31 0 -86 20 -86 31 0 12
11 11 65 -3z m37 -400 c-1 -200 -5 -369 -7 -375 -7 -19 -84 -17 -92 3 -3 8 0
169 7 357 8 188 14 350 14 360 0 13 9 17 41 17 l40 0 -3 -362z m308 306 l35
-13 -55 0 c-50 0 -90 14 -90 33 0 9 64 -3 110 -20z m12 -292 c-2 -142 -7 -327
-10 -412 l-7 -155 -29 -3 c-15 -2 -40 -1 -53 3 l-26 6 6 97 c4 53 11 216 17
362 6 146 13 288 16 315 l5 50 42 -3 43 -4 -4 -256z m-345 -416 c19 4 33 2 33
-4 0 -14 -75 -23 -104 -12 -38 14 -33 31 6 19 18 -5 48 -6 65 -3z m-67 -46 c0
-14 -12 -12 -38 6 -33 23 -27 37 8 19 17 -9 30 -20 30 -25z m120 5 c0 -9 -9
-15 -24 -15 -13 0 -38 -3 -55 -6 -24 -5 -31 -3 -31 9 0 11 12 17 43 20 23 2
48 4 55 5 6 1 12 -5 12 -13z m244 -130 c64 -1 71 -21 10 -30 -44 -6 -104 8
-104 25 0 14 14 20 29 13 9 -4 38 -8 65 -8z m-86 -31 c18 -8 32 -22 32 -31 0
-13 -5 -12 -32 4 -17 10 -33 24 -36 31 -5 16 -2 15 36 -4z m160 -16 c-5 -14
-61 -30 -92 -26 -35 5 -24 23 19 29 66 10 77 10 73 -3z"/>
<path d="M5163 4703 c32 -2 81 -2 110 0 29 2 3 3 -58 3 -60 0 -84 -1 -52 -3z"/>
<path d="M6693 4675 c0 -22 2 -30 4 -17 2 12 2 30 0 40 -3 9 -5 -1 -4 -23z"/>
<path d="M6790 4664 c0 -21 4 -33 10 -29 6 3 10 19 10 36 0 16 -4 29 -10 29
-5 0 -10 -16 -10 -36z"/>
<path d="M7391 4683 c-7 -13 -5 -23 7 -37 20 -21 20 -8 8 -429 -9 -304 -9
-309 -32 -323 -26 -18 -22 -47 9 -69 22 -15 111 -21 141 -9 20 8 21 41 1 60
-12 13 -15 47 -15 180 0 90 1 164 3 164 1 0 38 -11 82 -25 89 -27 99 -29 91
-16 -4 5 -44 19 -91 32 l-85 22 0 178 c0 169 8 229 32 229 20 0 6 41 -18 50
-44 17 -122 12 -133 -7z m97 0 c-10 -2 -26 -2 -35 0 -10 3 -2 5 17 5 19 0 27
-2 18 -5z m39 -28 c-9 -7 -17 -17 -17 -23 0 -6 -8 -16 -17 -21 -13 -7 -14 -10
-4 -11 12 0 13 -52 8 -347 -4 -190 -9 -348 -12 -351 -7 -7 -64 -7 -71 1 -10 9
17 692 28 695 5 2 -2 19 -16 37 l-25 32 72 1 c60 0 69 -2 54 -13z m-20 -778
c10 -10 -40 -19 -73 -13 -56 11 -48 25 12 21 31 -2 58 -6 61 -8z m-42 -23 c73
-2 83 -20 16 -29 -53 -7 -100 8 -109 34 -4 11 0 12 14 5 11 -4 46 -9 79 -10z"/>
<path d="M3291 4653 c1 -15 5 -41 9 -58 7 -26 8 -23 9 22 0 28 -3 55 -9 58 -6
4 -10 -5 -9 -22z"/>
<path d="M3474 4599 c-4 -6 1 -9 12 -8 34 6 44 -10 45 -74 1 -34 5 -73 10 -87
6 -16 7 6 4 64 -3 49 -10 95 -16 103 -14 16 -45 17 -55 2z"/>
<path d="M2515 4570 c-66 -15 -214 -48 -330 -74 -206 -46 -271 -64 -232 -65
10 -1 46 6 80 14 34 8 177 40 317 70 140 30 273 60 296 65 26 6 51 6 70 0 49
-17 325 -100 332 -100 18 -1 -44 -26 -293 -120 -650 -244 -1145 -439 -1145
-451 0 -12 -6 -14 126 40 108 44 269 107 579 226 61 24 247 95 415 158 168 63
313 118 323 122 13 5 17 2 17 -12 0 -21 -149 -88 -570 -258 -156 -63 -298
-125 -505 -217 -49 -22 -169 -74 -265 -115 -96 -41 -179 -79 -185 -85 -16 -16
24 -2 200 73 l160 68 12 -147 c6 -81 12 -187 13 -237 2 -90 17 -178 19 -110 1
39 -16 351 -24 436 l-7 65 41 19 c23 10 43 16 45 14 2 -2 9 -101 15 -219 6
-118 14 -248 18 -287 l6 -73 -314 -2 c-229 -1 -286 -3 -209 -8 58 -4 198 -8
311 -9 l206 -1 224 148 c123 82 325 212 449 290 124 77 257 163 295 189 l70
48 1 65 c1 36 5 67 10 69 10 4 146 -13 313 -38 l104 -16 -105 -87 c-100 -83
-137 -118 -125 -118 6 0 219 172 265 213 l22 20 0 -25 c0 -21 -22 -45 -103
-115 l-103 -88 -222 -55 -223 -55 -227 -270 c-125 -148 -268 -321 -317 -383
l-90 -113 -270 6 c-148 3 -354 8 -457 11 -120 4 -188 3 -188 -3 0 -10 385 -23
723 -24 166 -1 168 -1 165 -22 -3 -20 3 -23 55 -31 60 -9 70 -22 44 -58 -12
-15 -43 -16 -398 -8 -463 11 -604 11 -539 0 25 -4 242 -11 482 -15 l437 -7 6
-40 c4 -22 5 -41 3 -43 -1 -2 -104 1 -228 5 -217 9 -784 11 -707 3 21 -3 37
-10 37 -17 0 -7 8 -23 19 -34 16 -19 19 -48 25 -219 15 -393 17 -406 126 -624
160 -321 355 -549 673 -786 113 -84 264 -176 280 -170 6 2 -16 19 -49 37 -103
59 -353 236 -354 251 0 7 195 -42 420 -105 85 -24 179 -50 208 -57 28 -7 52
-15 52 -18 0 -4 -29 -26 -65 -50 -70 -48 -115 -90 -83 -78 10 3 51 31 91 62
41 30 76 55 78 55 2 0 3 -53 1 -117 -2 -65 -1 -115 4 -110 4 4 9 61 11 126 4
108 3 120 -14 125 -87 26 -578 159 -652 176 -93 22 -94 23 -173 98 -70 67
-202 216 -222 250 -6 10 60 12 346 7 l353 -6 140 211 c270 406 771 1145 967
1426 58 84 70 106 64 128 -4 17 -13 26 -26 26 -11 0 -20 6 -20 14 0 8 -15 17
-34 20 -34 7 -35 7 -40 69 -10 103 -12 435 -2 548 l8 106 -108 17 c-101 16
-147 24 -328 57 l-68 13 5 101 c4 55 7 111 9 124 3 23 -4 27 -87 54 -162 52
-295 87 -328 86 -17 -1 -86 -14 -152 -29z m544 -397 l1 -142 -31 -21 c-16 -12
-33 -20 -36 -17 -8 8 -24 247 -18 258 4 5 -7 6 -24 3 -23 -5 -30 -2 -35 12 -3
11 -3 -59 -1 -153 4 -161 3 -173 -14 -182 -17 -10 -19 -5 -25 42 -3 28 -7 91
-8 140 -2 75 -4 87 -19 87 -10 0 -21 -5 -25 -12 -5 -8 -12 -2 -21 17 -10 26
-12 8 -7 -115 2 -80 7 -162 9 -183 5 -34 2 -39 -27 -57 -31 -19 -33 -19 -39
-2 -4 10 -9 78 -10 151 l-4 132 -32 -6 c-29 -5 -33 -3 -33 15 0 11 -3 20 -7
20 -5 0 -5 -57 -1 -127 3 -71 6 -157 7 -193 1 -64 0 -65 -35 -88 -20 -13 -38
-22 -40 -19 -2 2 -5 77 -7 165 -2 156 -3 161 -22 156 -11 -3 -30 -13 -43 -21
l-23 -14 6 -172 7 -172 -37 -23 c-20 -13 -39 -22 -41 -19 -7 7 -23 320 -17
330 6 10 -28 6 -59 -8 -15 -6 -18 -2 -18 18 0 14 -4 29 -10 32 -10 6 -15 -37
-5 -46 2 -3 7 -80 10 -172 2 -93 8 -179 11 -191 5 -20 -1 -28 -37 -50 -32 -18
-45 -22 -50 -13 -4 7 -9 90 -11 184 -1 95 -6 173 -10 173 -4 0 -26 -7 -49 -16
l-41 -17 6 -151 c4 -83 9 -174 12 -203 l5 -52 -48 -35 c-26 -19 -50 -33 -54
-31 -3 2 -11 114 -18 247 -6 134 -14 262 -17 285 l-5 43 66 30 c82 38 310 133
560 236 105 42 237 98 295 124 l105 46 7 -41 c3 -22 7 -104 7 -182z m-95 -68
c8 -127 5 -145 -19 -145 -10 0 -14 30 -17 128 -5 136 -4 142 16 142 10 0 15
-32 20 -125z m396 60 c91 -16 167 -30 169 -32 15 -12 -20 -12 -105 1 -55 8
-153 23 -219 32 -119 16 -143 23 -131 42 3 6 27 5 63 -3 32 -7 132 -25 223
-40z m-506 -77 c10 -154 8 -186 -13 -197 -18 -10 -19 -4 -26 124 -6 102 -4
139 5 150 7 8 16 15 20 15 4 0 10 -41 14 -92z m-140 -125 c7 -136 6 -148 -11
-161 -16 -12 -19 -10 -25 25 -4 21 -7 91 -7 155 -1 112 2 124 30 127 3 1 9
-65 13 -146z m784 -19 c-45 -45 -57 -52 -81 -47 -15 3 -27 9 -25 14 2 4 37 37
78 72 72 62 75 64 78 39 3 -19 -8 -37 -50 -78z m-944 -1 c3 -49 8 -118 11
-155 5 -61 3 -68 -17 -83 -22 -15 -23 -14 -30 17 -3 18 -8 90 -9 161 -3 104 0
130 11 137 8 6 18 10 22 10 3 0 9 -39 12 -87z m977 -16 c-16 -16 -26 0 -10 19
9 11 15 12 17 4 2 -6 -1 -17 -7 -23z m-1140 -54 c0 -43 4 -118 8 -168 6 -83 5
-91 -14 -107 -11 -10 -23 -17 -26 -18 -4 0 -9 48 -13 108 -4 59 -9 137 -12
173 -5 61 -4 66 18 76 13 7 26 12 31 12 4 1 7 -34 8 -76z m1153 -215 c4 -159
3 -255 -3 -261 -5 -5 -17 -7 -25 -4 -14 6 -16 39 -16 262 0 241 1 255 18 255
18 0 19 -16 26 -252z m-129 224 c-6 -5 -86 -28 -180 -51 -93 -23 -186 -46
-207 -52 -32 -8 -66 -47 -298 -337 -402 -503 -366 -462 -403 -462 -71 0 -67 7
117 231 344 419 469 562 501 572 238 69 499 124 470 99z m52 -17 c-4 -8 -14
-15 -23 -15 -16 0 -16 2 1 20 20 22 31 20 22 -5z m-1243 -208 l8 -154 -30 -22
-30 -21 -7 168 c-4 92 -8 178 -9 191 -1 17 7 29 24 38 24 12 25 11 31 -17 4
-16 9 -98 13 -183z m1129 160 c-355 -314 -634 -564 -819 -736 -169 -158 -164
-154 -164 -131 0 11 29 55 65 98 59 71 476 594 536 672 24 32 36 36 205 81
221 58 224 58 177 16z m135 -12 c2 -26 -2 -45 -8 -45 -5 0 -10 20 -10 45 0 58
14 58 18 0z m-120 -52 c-18 -19 -118 -114 -223 -211 -214 -199 -563 -526 -693
-649 -48 -45 -90 -82 -94 -83 -5 0 -8 18 -8 41 0 37 5 46 52 87 29 26 134 121
233 212 173 159 283 258 609 549 133 119 151 132 154 112 3 -16 -7 -35 -30
-58z m100 -160 c16 -307 17 -283 -11 -283 -23 0 -24 3 -30 122 -4 66 -7 183
-7 260 0 127 1 138 18 138 17 0 19 -19 30 -237z m-77 129 c-9 -17 -51 -38 -51
-26 0 7 55 53 58 49 2 -2 -1 -12 -7 -23z m17 -109 l-2 -98 -5 90 c-3 50 -5 93
-3 98 9 21 12 -3 10 -90z m-28 65 c0 -7 4 -76 10 -153 5 -77 10 -183 11 -235
l3 -95 -29 0 -30 0 -3 239 c-2 185 1 241 10 248 19 11 28 10 28 -4z m-69 -271
c-16 -16 -24 58 -18 159 8 143 22 135 25 -15 1 -77 -2 -139 -7 -144z m-41 198
c-7 -8 -19 -15 -28 -15 -12 0 -10 6 9 26 24 26 41 16 19 -11z m1 -27 c0 -2 6
-120 13 -263 12 -271 12 -278 -29 -273 -19 3 -20 14 -28 262 -6 208 -5 261 5
267 12 8 37 12 39 7z m-61 -146 c0 -104 -4 -143 -14 -158 -8 -10 -17 -17 -19
-14 -8 8 -9 222 -1 255 6 28 21 55 30 55 2 0 4 -62 4 -138z m-66 51 c-36 -26
-49 -14 -18 18 24 26 30 28 33 13 2 -10 -5 -24 -15 -31z m7 -40 c0 -10 6 -139
12 -286 11 -255 11 -269 -6 -279 -10 -5 -27 -6 -37 -3 -18 6 -20 16 -20 79 0
40 -3 168 -7 283 -6 202 -5 211 13 216 36 9 44 7 45 -10z m-72 -169 c1 -124 0
-132 -22 -153 l-24 -22 -6 123 c-5 77 -3 126 3 132 5 5 10 22 10 36 0 14 6 32
12 38 21 21 27 -12 27 -154z m531 131 c0 -6 -72 -109 -340 -490 -73 -104 -208
-296 -298 -425 -91 -129 -246 -349 -346 -489 l-180 -254 -211 7 c-115 3 -283
9 -373 13 l-163 6 -14 27 c-13 24 -13 30 0 40 19 16 19 49 1 69 -9 11 -15 48
-17 110 l-4 94 80 -2 c44 -1 81 -3 82 -4 4 -4 4 -212 1 -229 -2 -10 -7 -21
-11 -24 -11 -12 -8 -23 13 -44 31 -31 129 -28 167 4 l28 24 -17 54 c-10 29
-20 90 -24 136 l-6 82 75 0 75 0 55 61 55 62 7 -138 c7 -127 4 -209 -11 -261
-10 -36 20 -54 90 -54 49 0 69 5 90 21 29 23 32 42 12 81 -10 18 -18 97 -25
250 -7 123 -14 234 -17 248 -3 20 4 34 35 64 l39 38 6 -38 c9 -62 10 -315 1
-356 -7 -36 -7 -37 32 -48 29 -9 49 -9 80 -1 62 17 70 32 50 95 -10 29 -17 72
-17 95 0 39 1 41 16 27 25 -26 107 -21 141 8 l28 24 -18 36 c-29 61 -24 76 26
76 23 0 53 7 66 16 19 14 22 22 16 48 -11 54 -23 207 -24 317 l-1 105 34 33
34 33 6 -114 c4 -62 5 -133 4 -158 l-3 -45 51 -3 c41 -2 54 1 69 18 15 17 17
25 8 39 -6 10 -14 98 -18 207 -7 184 -7 189 14 208 l21 19 2 -94 c1 -52 1
-117 0 -146 -3 -45 0 -52 18 -58 31 -10 88 3 99 23 6 10 6 23 0 34 -16 29 -24
363 -10 372 7 5 14 6 15 5 8 -9 12 -209 4 -223 -14 -25 35 -51 75 -39 l32 9
-5 99 c-9 183 -6 278 8 283 11 3 13 -18 11 -113 -4 -116 -3 -118 20 -126 15
-6 32 -5 50 4 24 11 26 17 23 63 -4 50 -3 51 27 51 44 0 61 18 54 58 -5 33 -5
34 33 37 34 3 39 6 37 26 -2 16 2 22 17 22 11 0 20 -2 20 -5z m-590 -25 c0
-11 -12 -26 -30 -35 -45 -23 -47 -18 -10 20 19 19 35 35 37 35 2 0 3 -9 3 -20z
m540 0 c0 -5 -12 -10 -27 -9 l-28 1 25 8 c14 4 26 8 28 9 1 1 2 -3 2 -9z m73
-6 c3 -4 -13 -34 -37 -68 -47 -66 -70 -100 -364 -529 -300 -438 -721 -1049
-740 -1075 l-17 -23 -363 9 c-339 8 -364 10 -377 28 -8 10 -15 22 -15 27 0 9
123 8 460 -3 176 -5 269 -5 277 2 7 6 61 78 120 162 428 604 450 636 763 1084
151 215 278 392 281 392 3 0 8 -3 12 -6z m37 -25 c0 -11 -33 -66 -73 -122 -89
-123 -277 -398 -579 -847 -231 -344 -487 -721 -510 -752 -12 -17 -35 -17 -363
-8 -345 10 -350 10 -369 32 l-18 23 53 3 c30 1 191 -1 359 -6 178 -6 310 -6
316 0 7 5 32 39 57 76 25 37 127 184 226 327 99 143 218 316 265 385 46 69
138 202 203 297 65 95 186 271 268 392 83 121 153 220 158 221 4 0 7 -9 7 -21z
m-651 -286 c6 -148 13 -290 15 -316 3 -43 0 -50 -20 -59 -34 -16 -51 -4 -58
39 -3 21 -8 163 -12 315 l-6 276 23 5 c13 2 29 5 35 6 8 1 15 -83 23 -266z
m-89 73 l0 -162 -34 -33 c-30 -29 -35 -31 -39 -15 -9 29 -10 255 -2 294 7 35
53 91 68 83 4 -2 7 -77 7 -167z m555 153 c-7 -11 -65 -12 -65 -1 0 4 16 8 35
9 20 1 33 -3 30 -8z m-635 -68 c0 -12 -49 -51 -63 -51 -6 0 2 14 18 30 29 30
45 38 45 21z m554 -52 c-7 -12 -61 -12 -69 0 -3 6 12 10 35 9 22 0 37 -4 34
-9z m-562 -360 c10 -278 10 -322 -3 -330 -20 -13 -55 -11 -67 4 -6 7 -11 140
-13 341 l-4 329 24 4 c14 2 27 6 30 9 14 14 22 -64 33 -357z m-128 270 c-9
-10 -26 -19 -38 -19 -17 0 -16 4 15 36 26 27 35 32 37 19 2 -9 -4 -25 -14 -36z
m25 -71 l-2 -63 -7 55 c-6 51 -5 70 6 70 2 0 3 -28 3 -62z m-29 31 c0 -7 7
-134 15 -283 25 -465 25 -415 -1 -433 -14 -9 -34 -13 -48 -9 -23 6 -24 9 -30
153 -3 82 -9 243 -12 360 l-7 212 34 4 c19 2 37 5 42 5 4 1 7 -3 7 -9z m595
-18 c-8 -14 -72 -15 -80 -2 -3 6 14 11 37 13 50 3 52 3 43 -11z m-686 -241 c1
-73 -3 -110 -11 -119 -7 -8 -8 -11 -2 -8 16 9 24 -70 24 -223 0 -138 -14 -190
-24 -94 -4 33 -9 118 -11 189 -3 72 -9 189 -14 260 -5 78 -5 134 0 140 5 5 9
25 9 45 0 20 3 40 8 44 9 10 19 -100 21 -234z m-65 143 c-10 -7 -27 -13 -38
-13 -17 0 -15 5 15 36 33 34 34 34 37 13 2 -14 -3 -28 -14 -36z m15 -230 c6
-115 17 -286 23 -381 7 -118 7 -177 0 -184 -13 -13 -79 -15 -91 -2 -8 8 -31
517 -31 686 l0 77 33 4 c17 2 37 5 43 5 7 1 15 -70 23 -205z m621 166 c0 -11
-29 -19 -66 -19 -21 0 -34 5 -34 13 0 8 17 12 50 12 28 0 50 -3 50 -6z m-731
-274 l1 -81 -40 -39 -40 -39 0 59 c0 33 -5 103 -10 155 -7 78 -6 97 6 111 8 8
14 24 14 34 0 11 12 32 28 48 l27 28 6 -98 c4 -54 7 -134 8 -178z m-839 196
c0 -24 -105 -40 -141 -21 -37 21 -18 30 61 30 44 0 80 -4 80 -9z m150 -5 c0
-8 7 -22 16 -30 13 -14 17 -63 25 -294 5 -152 11 -287 13 -299 3 -22 1 -23
-80 -23 -70 0 -84 3 -84 16 0 33 -40 540 -45 567 -3 17 2 38 11 53 15 21 23
24 80 24 49 0 64 -3 64 -14z m180 3 c0 -18 -72 -41 -108 -35 -35 5 -62 22 -62
37 0 5 38 9 85 9 53 0 85 -4 85 -11z m106 5 c20 -5 21 -16 33 -237 6 -128 14
-276 18 -329 l6 -98 -65 0 -65 0 -6 73 c-4 39 -14 177 -22 305 -19 271 -16
292 45 292 19 0 44 -3 56 -6z m311 -18 c-9 -24 -82 -39 -123 -26 -61 21 -43
39 44 42 42 2 79 2 81 1 2 -1 1 -9 -2 -17z m-177 2 c0 -6 8 -21 19 -32 17 -19
19 -45 24 -251 l5 -230 -57 -64 -58 -63 -12 288 c-7 159 -15 306 -18 327 l-6
37 52 0 c33 0 51 -4 51 -12z m-565 -378 c13 -184 28 -372 31 -417 3 -46 10
-81 14 -78 15 9 19 -23 5 -41 -11 -16 -19 -6 -68 96 -89 185 -85 162 -112 676
l-6 111 28 -4 c15 -3 39 0 53 5 17 7 26 6 27 -2 1 -6 14 -162 28 -346z m325
-40 c23 -364 25 -441 8 -458 -16 -16 -83 -15 -95 1 -10 12 -26 281 -39 654
l-7 182 49 3 c49 3 49 3 56 -32 4 -19 16 -177 28 -350z m420 7 c25 -442 25
-467 -11 -484 -20 -10 -34 -10 -58 -2 -28 10 -31 15 -31 51 0 22 -4 138 -10
257 -5 119 -11 289 -14 378 l-4 162 51 3 c29 2 53 3 54 2 1 0 12 -165 23 -367z
m664 296 c-19 -14 -52 -17 -78 -7 -30 12 -16 24 28 24 25 0 48 5 52 12 6 9 9
9 12 -2 3 -7 -3 -19 -14 -27z m-193 -202 c-17 -8 -40 -11 -55 -7 -43 11 -29
21 29 21 55 0 55 0 26 -14z m29 -16 c-16 -20 -74 -29 -97 -16 -15 8 -9 10 29
11 26 0 50 5 53 10 3 6 11 10 17 10 7 0 6 -5 -2 -15z m-120 -136 c-25 -15 -59
-22 -85 -15 -40 10 -29 25 14 19 21 -3 47 -1 57 5 23 13 35 5 14 -9z m9 -25
c-23 -22 -89 -29 -114 -11 -18 14 -16 15 27 10 25 -3 54 0 64 6 28 16 41 13
23 -5z m-212 -172 c21 3 47 8 58 13 19 7 19 7 4 -9 -33 -35 -129 -30 -129 6 0
6 6 5 15 -2 8 -7 31 -10 52 -8z m83 -17 c0 -2 -13 -11 -30 -20 -38 -19 -91
-19 -116 1 -18 14 -18 15 -1 10 50 -16 66 -16 98 -2 37 16 49 19 49 11z m-649
-219 c-29 -35 -141 -25 -141 13 0 14 2 14 10 1 14 -23 109 -21 124 3 6 9 13
12 14 7 2 -6 -1 -17 -7 -24z m415 -13 c-37 -31 -105 -32 -132 -1 -19 21 -19
21 1 12 35 -15 117 -11 129 8 5 9 14 14 20 11 5 -4 -3 -17 -18 -30z m-386 -3
c0 -16 -47 -42 -87 -47 -46 -6 -93 11 -93 32 0 12 4 14 19 5 28 -14 91 -12
121 4 31 17 40 19 40 6z m396 -38 c-24 -25 -130 -23 -153 2 -17 18 -17 18 7
12 61 -17 86 -16 120 1 38 20 52 11 26 -15z"/>
<path d="M2480 4073 c0 -4 5 -15 10 -23 8 -13 10 -13 10 2 0 9 -4 20 -10 23
-5 3 -10 3 -10 -2z"/>
<path d="M2130 3903 c0 -12 5 -25 10 -28 13 -8 13 15 0 35 -8 12 -10 11 -10
-7z"/>
<path d="M4725 4571 c-22 -4 151 -7 385 -6 234 0 504 -3 600 -7 127 -5 167 -4
145 4 -35 12 -1066 21 -1130 9z"/>
<path d="M4490 4550 c-34 -7 -34 -7 13 -9 26 0 47 4 47 9 0 11 -8 11 -60 0z"/>
<path d="M3955 4464 c-369 -64 -528 -95 -650 -126 -65 -18 -113 -34 -107 -36
7 -2 48 5 90 17 82 22 195 47 277 61 28 5 131 23 230 40 99 18 197 34 218 37
21 3 40 10 43 14 6 11 0 10 -101 -7z"/>
<path d="M6533 4414 c5 -6 455 -74 486 -74 8 0 12 3 8 6 -6 6 -127 26 -270 45
-43 5 -101 14 -129 19 -57 11 -104 13 -95 4z"/>
<path d="M5100 4315 c-6 -8 -9 -23 -5 -35 4 -12 2 -20 -4 -20 -16 0 -51 -61
-51 -88 0 -12 7 -25 15 -28 11 -5 15 -21 15 -60 l0 -54 -93 0 -93 0 -32 -65
c-32 -65 -45 -155 -22 -155 6 0 10 16 10 35 l0 35 285 0 285 0 0 -33 c0 -22
-7 -36 -21 -45 -16 -10 -19 -20 -15 -38 4 -15 1 -33 -9 -47 -15 -22 -15 -21
-9 9 4 22 1 36 -11 47 -34 34 -69 10 -63 -44 2 -20 -2 -34 -9 -36 -8 -3 -13 4
-13 15 0 11 -6 25 -14 31 -8 7 -12 20 -9 30 7 29 -15 61 -42 61 -18 0 -26 -7
-31 -25 -3 -14 -4 -31 -1 -39 3 -8 0 -20 -8 -26 -8 -6 -17 -25 -20 -41 -4 -16
-10 -29 -14 -29 -15 0 -20 13 -12 29 13 24 -3 55 -30 61 -16 4 -23 13 -22 26
5 40 -7 64 -32 64 -25 0 -37 -24 -32 -65 1 -12 -5 -21 -16 -23 -16 -3 -17 1
-12 30 5 25 2 38 -10 48 -23 19 -50 1 -52 -36 0 -16 -2 -33 -2 -38 -1 -6 -10
0 -22 13 -14 14 -27 20 -38 16 -36 -15 -46 -11 -46 22 -1 38 -15 56 -41 51
-15 -3 -19 -12 -19 -41 0 -39 -22 -59 -31 -29 -3 9 -9 24 -14 34 -5 9 -5 31 1
51 6 24 6 49 -2 79 -6 23 -13 58 -16 76 -3 19 -12 36 -19 39 -22 8 -46 -17
-40 -43 4 -13 2 -25 -3 -28 -11 -7 -31 46 -31 81 0 31 -29 42 -47 17 -7 -10
-11 -24 -9 -31 3 -7 -1 -25 -9 -40 -17 -32 -19 -63 -5 -63 6 0 10 13 10 29 0
17 5 33 10 36 6 3 10 20 10 36 0 20 4 29 13 26 6 -2 10 -14 9 -27 -2 -12 1
-26 7 -30 6 -3 14 -43 18 -88 3 -45 9 -82 12 -82 3 0 5 20 3 45 -3 32 1 53 14
73 11 15 19 36 19 47 0 29 20 25 21 -5 1 -14 6 -38 13 -53 16 -41 14 -68 -4
-61 -21 8 -46 -15 -44 -40 1 -12 -3 -33 -11 -48 -9 -19 -10 -40 -3 -82 10 -54
0 -87 -14 -49 -3 10 -11 24 -16 31 -6 7 -11 59 -12 115 -3 122 -1 113 -20 121
-18 6 -48 -22 -41 -40 3 -7 -4 -30 -14 -51 -20 -40 -22 -39 -24 17 -1 30 -5
35 -28 38 -23 3 -28 8 -28 32 0 16 5 32 10 35 6 3 10 22 10 41 0 44 24 42 26
-2 1 -16 9 -51 17 -79 14 -45 15 -47 16 -18 1 17 -4 44 -10 60 -7 15 -12 39
-13 53 -1 33 -41 41 -51 10 -4 -12 -4 -24 -1 -27 3 -3 -1 -18 -9 -34 -16 -30
-20 -69 -7 -69 23 0 -4 -106 -36 -139 -8 -8 -12 -25 -9 -39 3 -14 -3 -38 -14
-56 -22 -38 -23 -61 -10 -191 6 -55 10 -115 11 -133 0 -29 3 -33 22 -30 20 3
23 8 20 41 -2 20 1 37 6 37 5 0 9 -8 9 -17 -1 -63 3 -73 26 -73 30 0 40 10 27
25 -13 15 -2 175 11 175 5 0 9 -9 9 -19 0 -11 5 -23 10 -26 6 -3 10 -26 10
-51 0 -37 3 -44 20 -44 17 0 20 7 20 46 0 28 4 43 10 39 6 -4 10 -24 8 -46 -2
-43 4 -54 26 -46 11 5 14 15 10 39 -4 27 -3 30 6 16 6 -10 14 -40 17 -68 5
-41 9 -50 25 -50 16 0 19 5 14 24 -3 13 -2 35 3 48 8 21 9 20 16 -17 10 -60
13 -67 31 -63 13 2 16 19 19 87 2 56 7 86 16 91 11 7 10 25 -3 102 -18 106
-14 159 13 184 14 13 16 21 8 35 -12 23 -4 39 18 39 12 0 14 -7 10 -30 -4 -16
-2 -32 4 -36 6 -3 17 -20 24 -38 12 -28 11 -33 -7 -53 -23 -25 -40 -104 -27
-125 5 -7 9 -48 9 -90 0 -42 5 -80 10 -83 6 -3 10 -24 10 -46 0 -32 3 -39 20
-39 17 0 20 7 20 40 0 53 18 51 22 -2 3 -45 19 -57 48 -38 12 7 12 12 2 22
-15 15 -16 60 -1 75 7 7 9 29 6 55 -2 23 0 73 5 109 9 55 8 71 -6 97 -9 18
-21 32 -26 32 -17 0 -11 17 15 48 17 21 21 32 13 40 -14 14 -3 42 18 42 13 0
16 -7 11 -35 -4 -25 -2 -37 10 -43 20 -12 36 -93 34 -174 -1 -38 2 -69 8 -73
14 -8 14 -72 0 -80 -6 -4 -13 -5 -15 -2 -3 3 -7 66 -8 141 -2 76 -6 139 -9
142 -3 3 -6 -60 -6 -141 0 -138 1 -147 20 -152 12 -3 19 -14 19 -29 0 -12 5
-26 10 -29 6 -3 10 -22 10 -41 0 -27 4 -34 20 -34 16 0 20 7 20 30 0 20 5 30
15 30 10 0 15 -10 15 -30 0 -25 4 -30 25 -30 27 0 32 9 13 28 -10 10 -10 17 0
32 7 11 12 53 12 97 0 80 16 93 22 18 2 -27 8 -40 18 -40 10 0 17 14 21 40 l5
40 5 -40 c3 -28 9 -41 22 -43 13 -3 17 3 17 24 0 51 11 17 16 -49 2 -39 0 -68
-6 -72 -18 -11 -11 -25 14 -25 28 0 36 16 36 76 0 24 5 44 10 44 6 0 10 -27
10 -60 0 -53 2 -60 20 -60 17 0 20 7 20 40 0 27 5 43 15 46 9 4 15 19 15 35 0
16 5 29 10 29 6 0 10 -16 10 -35 0 -24 5 -35 15 -35 10 0 15 10 15 34 0 18 7
47 15 62 l15 29 0 -47 c0 -26 5 -50 10 -53 6 -3 10 -19 10 -35 0 -16 -4 -32
-10 -35 -20 -12 -9 -26 18 -23 24 3 28 8 33 48 l5 45 5 -45 c5 -60 33 -63 37
-5 2 22 11 48 19 58 15 16 20 97 8 118 -3 4 0 17 6 27 9 15 9 30 1 65 -7 25
-12 61 -13 79 0 30 -1 31 -10 10 -5 -13 -13 -20 -19 -17 -12 8 15 64 35 71 9
4 13 19 12 42 -1 27 2 37 13 37 10 0 15 -10 15 -31 0 -18 9 -42 20 -54 16 -18
17 -23 5 -30 -11 -7 -12 -20 -5 -67 6 -32 9 -75 7 -95 -3 -32 -7 -38 -26 -38
-22 0 -23 -3 -18 -47 6 -56 6 -57 27 -50 10 4 15 20 15 47 0 22 5 40 10 40 14
0 13 -143 -1 -157 -8 -8 -5 -14 12 -23 31 -17 49 9 49 69 1 38 3 43 11 27 6
-10 8 -35 5 -57 -5 -34 -4 -39 13 -39 24 0 31 26 31 117 0 39 5 75 10 78 6 3
10 19 10 36 0 16 3 29 8 29 12 0 14 -161 1 -176 -9 -11 -8 -15 5 -20 31 -12
46 4 47 48 l1 43 8 -38 c4 -20 10 -40 13 -43 14 -14 27 11 27 54 1 26 6 79 12
117 13 90 11 154 -7 181 -8 12 -15 50 -17 85 -2 52 0 64 12 64 10 0 14 -8 12
-23 -2 -13 2 -30 10 -39 7 -9 16 -48 19 -87 l6 -71 1 66 c1 44 7 71 17 79 9 8
12 22 8 41 -4 22 -2 29 10 29 9 0 17 -12 19 -32 3 -18 8 -41 13 -50 5 -13 3
-18 -9 -18 -19 0 -33 -47 -17 -63 8 -8 6 -15 -5 -28 -20 -23 -49 -166 -36
-182 16 -20 24 -158 11 -174 -16 -19 1 -36 32 -31 15 2 24 10 25 23 0 11 2 34
3 50 2 28 3 29 11 7 5 -12 7 -29 3 -38 -6 -16 15 -37 29 -28 4 3 8 25 8 49 0
24 5 47 10 50 6 3 10 28 10 56 0 47 1 49 29 49 l29 0 7 109 c4 60 3 115 -1
123 -5 7 -7 38 -6 70 2 35 -1 59 -8 63 -9 6 -10 -2 -5 -26 6 -28 5 -32 -6 -21
-19 18 -47 15 -53 -5 -3 -10 -3 4 -1 31 3 27 11 56 18 64 6 8 12 29 12 46 0
21 5 31 15 31 10 0 14 -9 13 -29 -1 -16 4 -38 12 -50 10 -13 15 -47 16 -96 1
-68 2 -72 11 -40 12 44 6 124 -13 146 -7 9 -12 29 -11 44 2 14 -3 32 -11 38
-18 15 -47 5 -48 -17 -4 -40 -6 -48 -17 -74 -14 -33 -16 -131 -3 -123 14 9 19
-17 7 -36 -9 -15 -13 -12 -35 20 -13 20 -26 47 -27 62 -8 61 -21 120 -31 132
-6 7 -13 27 -15 43 -2 24 -8 30 -28 30 -21 0 -25 -5 -26 -30 0 -16 -6 -40 -12
-52 -7 -12 -12 -31 -12 -42 0 -11 -4 -23 -10 -26 -5 -3 -10 -22 -10 -41 0 -27
-4 -34 -19 -34 -11 0 -23 -9 -26 -20 -9 -30 -25 -14 -25 25 0 19 -4 37 -10 40
-14 9 -12 69 3 84 6 6 12 22 12 34 0 32 20 37 21 6 1 -14 5 -32 10 -40 5 -8
11 -34 15 -59 l6 -45 2 52 c0 28 -4 55 -10 59 -6 3 -8 16 -5 28 7 28 -7 49
-30 44 -12 -2 -20 -13 -22 -33 -2 -16 -10 -38 -17 -48 -13 -18 -14 -18 -25 3
-6 12 -9 28 -6 35 2 7 -2 21 -9 32 -18 24 -50 6 -51 -28 0 -23 -14 -63 -35
-105 -6 -12 -9 -32 -7 -45 2 -16 -2 -24 -12 -24 -12 0 -14 13 -12 71 3 51 0
75 -10 85 -8 8 -14 28 -14 44 1 26 -3 30 -24 30 -19 0 -26 -6 -28 -25 -5 -42
-31 -87 -52 -93 -14 -4 -20 -13 -20 -35 0 -40 -9 -62 -25 -62 -20 0 -29 -20
-27 -56 2 -18 -2 -35 -8 -39 -5 -3 -10 3 -10 14 0 11 -4 23 -10 26 -5 3 -10
27 -10 53 0 29 -10 72 -26 110 l-27 62 -82 0 -81 0 10 73 c8 52 17 79 34 95
20 20 31 62 15 62 -4 0 -17 -10 -29 -21 l-23 -22 -30 26 c-16 13 -27 27 -24
30 3 4 3 18 -1 32 -7 28 -36 34 -56 10z m40 -31 c0 -13 -4 -24 -9 -24 -13 0
-24 37 -16 50 10 16 25 1 25 -26z m-5 -44 c8 -13 -27 -71 -40 -66 -5 2 -9 9
-7 15 1 6 -2 11 -8 11 -21 0 -9 -30 18 -44 32 -18 25 -20 -14 -6 -23 9 -26 14
-20 43 9 45 54 75 71 47z m43 -38 c2 -17 -3 -46 -12 -64 -41 -91 -56 -133 -38
-109 9 13 22 38 29 55 11 30 12 29 12 -27 1 -57 1 -58 -35 -73 -20 -8 -39 -12
-43 -9 -3 4 -6 40 -6 80 l0 73 26 -5 c32 -6 48 13 25 30 -15 11 -15 15 1 49
21 44 37 44 41 0z m63 14 c-15 -16 -29 -22 -40 -18 -13 6 -12 7 6 10 12 2 27
10 33 18 7 8 15 14 18 14 3 0 -5 -11 -17 -24z m-41 -95 c-3 -33 -10 -64 -14
-68 -5 -4 -6 10 -3 32 4 22 7 52 7 68 0 15 4 27 8 27 4 0 5 -27 2 -59z m420
-75 c0 -13 7 -37 15 -52 21 -41 19 -54 -9 -54 -25 0 -43 -30 -31 -50 3 -5 3
-15 -1 -21 -11 -19 -24 12 -24 61 0 26 7 55 16 68 9 13 13 30 10 38 -7 18 0
34 15 34 5 0 9 -11 9 -24z m374 -18 c-3 -11 1 -27 9 -36 9 -9 18 -30 21 -47 3
-16 3 -24 0 -17 -3 6 -9 12 -13 12 -8 0 -9 -6 -15 -65 -2 -16 -4 -34 -5 -40
-3 -22 -25 32 -22 56 1 17 -4 29 -14 32 -19 8 -10 56 14 73 12 10 13 15 3 27
-7 8 -9 22 -6 31 9 24 36 -1 28 -26z m-229 -19 c0 -13 9 -37 19 -52 19 -27 19
-30 2 -58 -9 -16 -15 -38 -11 -48 3 -11 1 -22 -4 -25 -13 -9 -33 28 -25 48 3
8 -4 24 -15 35 -18 18 -19 25 -9 46 6 14 15 25 19 25 5 0 6 14 2 31 -5 25 -3
31 8 27 8 -3 14 -16 14 -29z m-697 -39 c-3 -33 -1 -40 15 -40 9 0 20 7 23 15
4 8 13 15 20 15 8 0 17 -7 20 -15 4 -8 14 -15 24 -15 15 0 17 6 13 40 l-6 41
93 -3 92 -3 20 -49 c10 -27 17 -50 15 -52 -2 -3 -128 -3 -279 -2 l-275 3 24
53 24 52 90 0 91 0 -4 -40z m-523 -60 c-3 -16 -2 -31 4 -35 6 -3 11 -17 11
-30 0 -18 -4 -23 -15 -18 -9 3 -24 -2 -34 -11 -29 -26 -32 1 -8 49 12 22 20
44 19 49 -5 17 8 37 19 31 6 -4 7 -19 4 -35z m1010 2 c0 -16 3 -34 8 -38 4 -4
7 -28 8 -53 1 -45 1 -45 9 -13 4 19 13 39 19 45 6 6 11 23 11 38 0 33 13 44
29 25 9 -10 9 -16 1 -21 -6 -4 -9 -13 -7 -20 3 -6 -4 -20 -15 -29 -14 -13 -18
-24 -14 -42 9 -34 -16 -61 -35 -38 -7 8 -21 13 -32 10 -16 -4 -18 -1 -14 22 3
15 1 35 -5 45 -6 13 -6 23 2 33 7 7 10 21 6 29 -7 20 4 47 18 42 6 -2 11 -18
11 -35z m-1108 -26 c-3 -22 -1 -39 7 -45 21 -18 38 -88 26 -110 -5 -11 -14
-37 -19 -58 -7 -30 -9 -33 -10 -12 -1 15 -7 32 -15 38 -10 8 -12 24 -9 51 4
31 2 41 -11 46 -18 7 -22 39 -6 49 6 3 10 22 10 41 0 25 4 34 16 34 13 0 15
-7 11 -34z m220 -15 c-3 -15 1 -33 9 -42 8 -9 17 -47 20 -85 4 -47 2 -64 -4
-55 -6 8 -8 20 -5 28 3 7 2 25 -1 39 -6 24 -11 26 -41 21 -40 -6 -43 2 -20 47
8 15 15 38 15 50 0 26 9 38 22 30 6 -4 8 -18 5 -33z m1062 6 c-1 -12 4 -34 11
-49 11 -23 10 -29 -5 -44 -12 -12 -15 -27 -12 -51 7 -40 -8 -53 -18 -15 -3 15
-13 35 -22 44 -13 15 -13 20 2 51 9 20 15 44 14 54 -4 23 9 45 22 37 6 -3 9
-16 8 -27z m93 -23 c-2 -19 3 -36 13 -44 8 -7 15 -20 15 -29 0 -14 2 -14 10
-1 8 13 10 13 10 -1 0 -9 -7 -22 -15 -29 -8 -7 -15 -29 -15 -49 0 -20 -5 -43
-10 -51 -8 -12 -10 -9 -10 12 0 16 -8 31 -18 37 -14 7 -18 18 -14 42 3 19 0
34 -8 39 -11 7 -10 13 2 32 10 15 14 35 11 52 -5 23 -3 27 13 24 15 -3 18 -11
16 -34z m336 -30 c2 -16 8 -34 14 -41 5 -6 11 -38 13 -70 3 -53 3 -54 -5 -18
-7 30 -8 16 -5 -52 5 -91 4 -93 -18 -93 -20 0 -22 4 -22 64 0 48 -5 69 -18 84
-18 19 -18 21 2 62 13 28 18 52 14 72 -5 24 -3 30 8 26 8 -2 16 -18 17 -34z
m-1117 -1 c5 -111 1 -145 -19 -158 -19 -14 -20 -12 -27 31 -5 34 -3 50 8 62 9
11 13 29 10 50 -4 25 -2 32 11 32 9 0 16 -8 17 -17z m466 -13 c0 -14 2 -27 3
-30 8 -27 4 -93 -7 -102 -7 -6 -13 -17 -13 -24 0 -8 -4 -14 -10 -14 -5 0 -10
11 -10 25 0 13 -5 36 -12 49 -9 21 -8 29 4 43 10 12 14 29 11 51 -5 29 -3 33
13 30 12 -2 20 -13 21 -28z m413 1 c0 -3 -5 -13 -10 -21 -9 -13 -12 -12 -25 4
-19 25 -1 53 21 35 8 -6 14 -14 14 -18z m-1368 -42 c-12 -18 -11 -24 7 -43 22
-23 27 -76 12 -126 -5 -16 -2 -36 6 -53 20 -39 10 -57 -29 -57 -58 0 -61 7
-55 111 6 91 6 93 -8 54 l-15 -40 6 45 c3 25 15 55 26 67 13 14 18 28 13 43
-4 12 -1 27 6 36 11 13 14 13 28 -1 13 -13 14 -19 3 -36z m663 10 c0 -22 7
-39 19 -48 15 -11 17 -21 11 -55 -9 -50 -9 -91 0 -134 l7 -33 -48 3 -49 3 -3
60 c-7 121 -6 134 11 153 9 10 17 32 17 49 0 16 3 33 7 37 15 14 28 -2 28 -35z
m207 -17 c-2 -21 4 -38 17 -51 22 -22 29 -47 9 -35 -8 5 -10 -21 -5 -104 7
-112 6 -112 -16 -112 -13 0 -28 -5 -35 -12 -18 -18 -16 56 3 92 18 34 12 101
-12 138 -13 21 -13 26 1 41 9 10 14 25 10 35 -8 22 3 49 19 43 7 -2 11 -17 9
-35z m-1012 -2 c0 -16 -5 -30 -11 -30 -6 0 1 -14 15 -31 14 -17 26 -40 26 -52
0 -12 2 -40 5 -62 4 -38 4 -37 -14 15 -23 65 -27 37 -6 -34 8 -27 15 -66 15
-88 0 -34 -3 -38 -24 -38 -14 0 -35 4 -49 9 -23 9 -23 11 -20 128 2 92 6 121
18 129 11 8 14 20 10 37 -8 30 0 47 21 47 9 0 14 -11 14 -30z m1669 -4 c-2
-23 3 -42 15 -55 10 -11 15 -28 13 -38 -3 -10 -3 -60 1 -111 4 -51 5 -98 1
-103 -3 -5 -26 -11 -50 -12 -44 -2 -44 -2 -47 35 -2 20 6 67 17 104 24 77 24
74 11 74 -5 0 -10 -8 -10 -17 0 -10 -9 -36 -20 -58 -11 -22 -17 -29 -13 -15 3
14 12 49 18 78 7 29 20 59 30 66 15 11 15 16 5 33 -16 24 -7 53 15 53 13 0 16
-8 14 -34z m-1212 8 c3 -9 0 -26 -7 -37 -10 -17 -10 -23 6 -34 10 -7 21 -13
25 -13 12 0 29 -69 22 -88 -5 -12 -10 -7 -20 19 l-13 34 5 -45 c3 -25 8 -77
11 -117 l7 -72 -36 -6 c-70 -13 -71 -12 -69 100 2 55 5 108 8 118 3 9 1 17 -5
17 -5 0 -12 -15 -14 -32 -2 -18 -3 -13 -2 12 2 34 9 50 30 67 19 17 24 27 17
39 -12 22 -3 54 14 54 8 0 17 -7 21 -16z m-200 -36 c-3 -30 -9 -44 -20 -46
-10 -2 -17 1 -17 7 0 6 5 11 12 11 6 0 4 6 -6 13 -15 11 -17 17 -7 35 6 12 19
22 27 22 12 0 14 -9 11 -42z m669 1 c-6 -35 -4 -41 13 -46 26 -7 43 -52 38
-99 l-4 -39 -1 43 c-1 27 -6 41 -12 37 -6 -4 -9 -35 -6 -81 3 -41 2 -74 -2
-74 -4 0 -24 19 -45 42 -36 40 -43 35 -9 -5 8 -9 13 -20 9 -23 -14 -15 -40 50
-38 97 2 57 -4 63 -18 17 l-9 -33 -1 32 c-1 48 15 82 44 89 24 6 36 24 16 24
-12 0 -24 37 -16 50 3 5 15 10 27 10 18 0 20 -4 14 -41z m437 7 c-1 -16 6 -40
17 -54 11 -13 20 -32 20 -41 0 -14 -2 -14 -11 -1 -7 11 -8 -6 -4 -58 6 -63 -3
-254 -11 -227 -1 6 -5 40 -9 78 -4 37 -10 65 -15 62 -5 -3 -14 -39 -21 -80 -9
-57 -16 -75 -28 -75 -11 0 -12 3 -4 8 8 5 12 37 11 97 0 50 4 103 11 118 6 16
11 40 10 55 -1 22 -4 18 -15 -18 -30 -97 -38 -95 -19 5 8 42 20 74 31 82 14
10 15 17 7 35 -13 29 -6 50 16 46 11 -3 15 -13 14 -32z m154 22 c5 -7 10 -59
11 -115 l2 -101 -32 -11 c-50 -17 -51 -16 -44 47 16 142 16 142 1 87 l-13 -50
-1 51 c-1 73 47 131 76 92z m-360 -14 c3 -9 1 -24 -5 -34 -8 -13 -6 -21 9 -37
17 -17 20 -36 23 -141 4 -131 3 -132 -52 -132 -51 0 -57 11 -44 82 6 34 16 80
21 101 5 22 5 39 0 43 -5 3 -9 -3 -9 -13 0 -24 -20 -96 -26 -91 -2 2 1 33 7
69 8 44 18 69 32 81 19 15 20 19 8 41 -7 14 -10 30 -7 36 11 16 36 13 43 -5z
m-475 -45 c-11 -18 -9 -23 18 -49 26 -24 30 -35 29 -77 l-1 -48 -10 43 c-16
73 -20 39 -9 -74 6 -59 11 -113 11 -120 0 -16 -34 -24 -77 -17 l-36 6 6 126
c6 116 5 123 -8 81 -9 -31 -13 -37 -14 -21 -2 45 22 103 46 112 26 10 27 12
11 38 -9 15 -9 23 2 36 12 14 15 15 29 0 13 -13 13 -19 3 -36z m605 -56 c-3
-10 -5 -2 -5 17 0 19 2 27 5 18 2 -10 2 -26 0 -35z m-987 -27 c0 -11 2 -39 5
-61 4 -38 4 -37 -14 15 -24 69 -27 39 -4 -44 22 -85 16 -98 -44 -94 l-48 3 1
115 1 115 34 6 c39 6 69 -18 69 -55z m747 12 c-3 -7 -5 -2 -5 12 0 14 2 19 5
13 2 -7 2 -19 0 -25z m-1120 -20 c-3 -8 -6 -5 -6 6 -1 11 2 17 5 13 3 -3 4
-12 1 -19z m254 -24 c-5 -16 -10 -21 -10 -12 -1 18 10 51 15 45 2 -1 -1 -16
-5 -33z m1023 4 c4 -17 2 -28 -4 -28 -5 0 -10 14 -10 32 0 36 4 35 14 -4z
m513 10 c-3 -8 -6 -5 -6 6 -1 11 2 17 5 13 3 -3 4 -12 1 -19z m-1647 -25 c0
-7 -4 -13 -10 -13 -5 0 -10 12 -10 28 0 21 2 24 10 12 5 -8 10 -21 10 -27z
m991 -18 c-8 -46 -9 -47 -10 -13 -1 34 8 73 15 66 2 -2 -1 -26 -5 -53z m346
18 c-3 -10 -5 -4 -5 12 0 17 2 24 5 18 2 -7 2 -21 0 -30z m113 -105 c0 -51 -5
-47 -14 10 -4 29 -3 41 4 37 5 -3 10 -25 10 -47z m-617 7 c23 -1 57 -26 57
-41 0 -16 -14 -14 -72 8 -23 8 -28 17 -28 42 1 30 1 30 16 11 8 -11 20 -20 27
-20z m567 -15 c0 -65 -14 -65 -18 0 -1 30 2 50 8 50 5 0 10 -22 10 -50z m-623
18 c-3 -8 -6 -5 -6 6 -1 11 2 17 5 13 3 -3 4 -12 1 -19z m413 -5 c0 -22 -2
-25 -10 -13 -13 20 -13 40 0 40 6 0 10 -12 10 -27z m-481 -10 c0 -25 -1 -26
-9 -8 -12 27 -12 35 0 35 6 0 10 -12 9 -27z m48 -20 c-3 -10 -5 -2 -5 17 0 19
2 27 5 18 2 -10 2 -26 0 -35z m-717 3 c0 -19 -4 -38 -10 -41 -6 -4 -10 10 -10
34 0 23 5 41 10 41 6 0 10 -15 10 -34z m53 -3 c-8 -52 -13 -54 -13 -5 0 23 4
42 9 42 6 0 7 -17 4 -37z m864 -40 c-3 -10 -5 -2 -5 17 0 19 2 27 5 18 2 -10
2 -26 0 -35z m-1067 -14 c0 -24 -4 -38 -10 -34 -5 3 -10 22 -10 41 0 19 5 34
10 34 6 0 10 -18 10 -41z m62 -36 c8 -10 6 -13 -6 -13 -13 0 -16 10 -14 48 1
40 2 42 5 12 3 -19 9 -41 15 -47z m867 50 c0 -16 -4 -46 -8 -68 -8 -37 -9 -35
-10 28 -1 39 3 67 9 67 6 0 10 -12 9 -27z m801 -13 c0 -22 -3 -40 -7 -40 -5 0
-7 17 -6 37 2 44 2 43 8 43 3 0 5 -18 5 -40z m-1408 -22 c2 -21 0 -38 -4 -38
-4 0 -8 21 -7 48 1 52 6 48 11 -10z m1344 -26 c-11 -10 -13 3 -7 43 l6 40 3
-39 c2 -21 1 -41 -2 -44z m-1409 6 c-2 -13 -4 -3 -4 22 0 25 2 35 4 23 2 -13
2 -33 0 -45z m732 10 c-1 -45 -2 -49 -9 -23 -11 44 -11 75 0 75 6 0 9 -23 9
-52z m-535 -8 c4 -25 3 -31 -4 -20 -5 8 -10 26 -10 39 0 32 6 24 14 -19z m68
5 c4 -39 -6 -48 -16 -12 -8 31 -7 47 3 47 5 0 11 -16 13 -35z m625 -27 c-2
-13 -4 -3 -4 22 0 25 2 35 4 23 2 -13 2 -33 0 -45z m60 15 c-3 -10 -5 -2 -5
17 0 19 2 27 5 18 2 -10 2 -26 0 -35z m-527 -25 c0 -19 -2 -20 -10 -8 -13 19
-13 30 0 30 6 0 10 -10 10 -22z m57 -15 c-3 -10 -5 -4 -5 12 0 17 2 24 5 18 2
-7 2 -21 0 -30z"/>
<path d="M7180 4312 c0 -7 32 -15 190 -49 55 -12 10 7 -60 25 -116 30 -130 33
-130 24z"/>
<path d="M8437 4110 c-9 -96 -25 -388 -33 -600 -6 -173 -18 -223 -56 -233 -34
-9 -20 -44 30 -73 51 -29 101 -33 173 -14 34 9 39 15 39 39 0 16 -7 31 -15 35
-8 3 -15 14 -15 24 0 10 -4 22 -9 27 -6 6 -7 86 -1 215 10 219 13 456 6 449
-3 -3 -10 -151 -17 -329 -13 -352 -12 -350 -69 -350 -14 0 -34 6 -44 13 -18
13 -18 28 4 418 20 378 24 552 7 379z m40 -820 c22 0 44 5 51 12 9 9 12 9 12
0 0 -15 -33 -32 -64 -32 -30 0 -76 19 -76 32 0 5 9 4 19 -2 11 -5 37 -10 58
-10z m20 -27 c57 6 73 -6 22 -17 -52 -10 -93 -7 -117 10 -33 23 -26 37 10 18
23 -12 46 -15 85 -11z m-67 -55 c0 -14 -5 -14 -40 5 -22 12 -40 30 -40 39 0
14 5 14 40 -5 22 -12 40 -30 40 -39z m140 23 c0 -16 -12 -22 -55 -32 -40 -9
-59 -9 -66 -2 -18 18 0 33 39 34 20 0 46 4 57 9 11 5 21 9 23 9 1 1 2 -8 2
-18z"/>
<path d="M4197 4044 c-4 -4 -7 -17 -7 -29 0 -13 -7 -39 -15 -58 -17 -42 -20
-77 -5 -77 6 0 10 15 10 33 0 18 7 43 16 55 8 12 12 26 9 32 -3 5 -2 17 3 26
12 22 24 3 27 -42 1 -23 -3 -34 -12 -34 -7 0 -13 -9 -13 -20 0 -26 -20 -110
-32 -133 -5 -10 -7 -31 -3 -45 4 -20 0 -30 -15 -40 -19 -11 -20 -10 -20 22 0
19 -6 41 -13 48 -7 7 -12 31 -12 53 0 36 -3 40 -25 40 -16 0 -29 -9 -38 -25
-12 -23 -13 -22 -6 20 3 25 12 52 20 60 7 9 12 29 11 45 -1 22 3 30 17 33 16
3 18 0 13 -27 -4 -18 -1 -41 8 -58 8 -15 19 -53 24 -83 l10 -55 -4 69 c-3 37
-10 75 -17 83 -6 8 -12 31 -12 51 -1 25 -6 38 -17 40 -22 4 -50 -25 -42 -43 3
-8 -2 -33 -11 -55 -19 -48 -21 -107 -4 -112 10 -4 8 -13 -6 -39 -14 -27 -17
-47 -12 -94 3 -33 7 -97 8 -142 2 -45 6 -84 10 -88 15 -15 28 9 28 53 0 34 3
43 10 32 5 -8 10 -32 10 -52 0 -30 4 -38 18 -38 17 0 20 12 25 97 4 53 12 101
18 107 8 8 10 1 4 -29 -13 -72 -13 -195 1 -206 7 -6 11 -16 8 -23 -3 -7 0 -25
5 -40 9 -23 14 -25 31 -16 16 9 20 8 20 -5 0 -9 9 -15 24 -15 31 0 40 14 25
38 -8 12 -9 29 -4 48 5 16 7 46 6 68 -2 24 2 42 10 47 11 6 11 19 1 67 -7 32
-12 68 -12 79 0 11 -6 26 -14 32 -10 8 -12 24 -9 51 5 34 3 41 -19 50 -24 11
-24 13 -14 70 6 32 15 62 19 66 13 13 27 -19 15 -33 -7 -9 -7 -17 2 -28 8 -9
13 -41 12 -78 0 -34 2 -54 5 -44 10 36 23 15 23 -38 0 -32 4 -55 11 -55 12 0
3 97 -13 139 -10 29 -2 61 17 61 9 0 15 -15 18 -42 l4 -43 1 48 c2 36 -2 47
-13 47 -17 0 -22 65 -5 75 6 4 9 19 8 33 -2 19 2 27 12 27 10 0 16 -12 17 -35
6 -82 15 -140 23 -135 9 6 1 96 -11 111 -4 5 -6 20 -2 32 3 12 0 29 -7 37 -17
21 -52 1 -49 -28 2 -12 -3 -32 -10 -45 -6 -12 -10 -36 -7 -52 2 -17 1 -30 -4
-30 -13 0 -18 24 -13 53 3 15 0 34 -7 42 -7 9 -13 32 -14 53 -1 29 -5 38 -21
40 -12 2 -24 0 -28 -4z m-93 -217 c-9 -25 -34 -21 -34 6 0 13 3 27 7 31 11 11
34 -19 27 -37z m25 -103 c11 -64 0 -86 -15 -29 l-13 50 5 -50 c9 -76 10 -235
2 -235 -5 0 -8 17 -8 38 0 20 -5 55 -12 77 -11 38 -12 39 -19 15 -4 -14 -8
-47 -10 -75 -1 -27 -5 18 -9 100 -5 141 -5 151 14 168 19 17 20 17 39 -1 11
-11 22 -37 26 -58z m101 37 c0 -17 -5 -33 -10 -36 -6 -4 -2 -13 10 -23 12 -10
24 -37 29 -67 5 -27 12 -61 16 -75 5 -19 1 -17 -14 10 -11 19 -20 47 -21 63 0
15 -5 27 -11 27 -12 0 -4 -47 17 -99 18 -42 19 -130 2 -136 -7 -2 -29 -1 -48
3 -34 7 -35 10 -38 57 -2 27 1 68 7 90 6 24 7 55 2 78 -7 29 -6 41 7 54 10 10
15 29 13 49 -2 29 1 34 18 34 17 0 21 -6 21 -29z m-193 -83 c-2 -13 -4 -5 -4
17 -1 22 1 32 4 23 2 -10 2 -28 0 -40z m150 -315 c-3 -10 -5 -2 -5 17 0 19 2
27 5 18 2 -10 2 -26 0 -35z m33 20 c0 -20 -3 -24 -11 -16 -7 7 -9 19 -6 27 10
24 17 19 17 -11z m23 -15 c3 -21 2 -38 -4 -38 -5 0 -9 19 -9 42 0 49 5 47 13
-4z"/>
<path d="M4180 3589 c0 -16 37 -66 43 -59 2 3 -7 20 -20 39 -12 19 -23 28 -23
20z"/>
<path d="M1961 4004 c0 -11 3 -14 6 -6 3 7 2 16 -1 19 -3 4 -6 -2 -5 -13z"/>
<path d="M8279 3954 c-1 -88 -16 -305 -22 -310 -3 -3 -20 1 -38 10 -38 19 -42
20 -34 6 4 -6 52 -34 108 -62 56 -28 96 -44 89 -36 -7 9 -35 26 -63 39 l-51
24 6 45 c4 25 9 98 13 162 3 64 9 122 13 128 4 7 19 6 50 -5 24 -8 45 -13 48
-10 6 5 -50 30 -91 40 -26 7 -27 5 -28 -31z"/>
<path d="M3901 3957 c-6 -8 -9 -21 -5 -30 3 -8 -2 -29 -10 -46 -14 -26 -15
-49 -6 -168 5 -76 10 -148 10 -160 0 -19 6 -23 31 -23 26 0 29 2 20 14 -7 8
-11 27 -8 43 4 27 4 27 6 -4 1 -30 4 -33 31 -33 17 0 30 5 30 10 0 6 -5 10
-11 10 -7 0 -10 40 -9 118 1 64 -4 135 -10 157 -6 22 -12 58 -13 80 -2 32 -6
41 -23 43 -11 2 -26 -3 -33 -11z m46 -13 c3 -9 2 -24 -4 -33 -6 -11 -5 -24 4
-41 18 -34 17 -70 -2 -70 -9 0 -18 7 -20 15 -3 8 -7 22 -10 31 -9 28 -17 7
-10 -24 5 -24 14 -32 43 -40 29 -8 32 -10 12 -11 -57 -2 -70 8 -70 54 0 26 6
47 16 56 10 8 13 21 9 36 -9 39 18 62 32 27z m17 -206 c14 -53 7 -74 -27 -86
-18 -7 -36 -12 -40 -12 -4 0 -7 27 -7 60 l0 60 34 0 c26 0 35 -5 40 -22z m-1
-136 c3 -24 1 -40 -4 -36 -5 3 -9 24 -9 46 0 51 5 47 13 -10z m-51 -9 c-5 -59
-10 -63 -11 -10 -1 26 3 47 7 47 4 0 6 -17 4 -37z"/>
<path d="M6270 3870 c-6 -12 -8 -30 -5 -41 4 -11 1 -27 -7 -36 -7 -9 -19 -39
-26 -67 -27 -107 -27 -100 -3 -93 21 5 22 4 15 -86 -4 -51 -11 -98 -16 -104
-7 -9 -5 -15 6 -19 36 -14 54 16 57 95 1 14 5 2 10 -28 7 -39 6 -58 -3 -68
-10 -12 -7 -14 18 -11 l29 3 7 100 c3 55 10 131 13 168 7 61 5 72 -14 98 -14
18 -20 37 -16 49 8 26 -11 60 -35 60 -11 0 -24 -9 -30 -20z m47 -34 c-3 -21 1
-37 14 -52 27 -29 35 -101 16 -144 -15 -35 -15 -35 -11 35 l4 70 -13 -65 c-7
-36 -9 -69 -5 -75 4 -5 7 -50 7 -100 l-2 -90 -9 75 c-5 41 -11 82 -14 90 -9
26 -22 -8 -30 -77 -3 -35 -11 -63 -16 -63 -5 0 -7 12 -4 28 3 15 7 86 10 157
4 98 3 120 -5 88 -5 -23 -16 -47 -24 -53 -13 -11 -13 -7 0 23 8 20 15 46 15
57 0 11 9 29 20 40 14 14 18 28 14 45 -8 34 1 56 22 48 11 -4 15 -14 11 -37z"/>
<path d="M7860 3831 c0 -5 8 -11 18 -14 9 -3 41 -19 70 -36 28 -17 52 -28 52
-23 0 5 -24 22 -52 38 -68 37 -88 45 -88 35z"/>
<path d="M7026 3798 c-36 -21 -191 -70 -276 -87 l-85 -17 -3 -43 c-2 -23 2
-48 8 -56 11 -13 13 -244 3 -312 -7 -43 -27 -33 -56 26 -17 37 -20 53 -13 74
13 36 -11 62 -48 53 -22 -5 -26 -12 -26 -41 0 -24 -6 -37 -19 -45 -28 -15 -38
-63 -36 -170 2 -52 3 -99 5 -105 1 -5 1 -38 0 -72 -1 -59 0 -63 25 -69 31 -8
40 -1 30 23 -10 22 -6 72 6 93 6 10 8 2 9 -27 0 -59 8 -73 41 -73 28 0 39 13
20 25 -6 3 -10 62 -10 131 0 115 1 125 17 119 9 -4 25 -10 35 -13 16 -4 18
-12 13 -56 l-6 -51 86 -97 c67 -78 81 -98 65 -98 -28 0 -54 -41 -46 -73 5 -20
2 -28 -15 -37 -40 -21 -76 -139 -49 -156 9 -5 10 -39 6 -114 -5 -88 -4 -110 8
-120 9 -7 15 -29 15 -51 0 -34 3 -39 23 -39 13 0 28 5 35 12 9 9 12 7 12 -10
0 -17 6 -22 28 -22 16 0 37 7 48 15 19 14 19 15 -3 21 -24 7 -33 47 -13 59 6
3 10 35 10 69 0 55 3 64 18 62 19 -1 19 2 4 132 -7 58 -16 93 -31 112 -12 17
-17 31 -11 35 6 3 10 23 10 43 l1 37 19 -24 c19 -22 24 -23 90 -16 38 4 70 11
70 16 0 4 -22 5 -50 2 l-50 -6 0 77 c0 86 -4 82 87 90 l62 6 4 -33 c3 -28 4
-27 5 9 1 27 -3 46 -13 54 -11 9 -15 29 -14 64 4 108 -1 155 -17 171 -10 9
-14 24 -11 37 8 28 -9 58 -32 58 -26 0 -44 -26 -39 -55 3 -14 -1 -30 -8 -36
-12 -9 -14 1 -14 60 l0 71 80 0 c64 0 224 13 285 23 5 1 10 -16 10 -37 0 -35
-3 -40 -30 -48 -16 -5 -64 -12 -105 -16 l-75 -7 -3 -34 c-2 -18 1 -38 7 -44 7
-7 12 -69 13 -156 l2 -146 6 140 6 140 3 -140 c3 -160 18 -151 20 13 l1 102
108 -95 c59 -52 124 -107 145 -122 l36 -28 1 -98 c0 -63 -4 -96 -10 -92 -5 3
-10 14 -10 25 0 11 -10 20 -25 24 -14 4 -25 13 -25 20 0 8 -10 16 -22 18 -19
2 -24 11 -28 43 -4 35 -8 40 -34 43 -16 2 -26 -1 -22 -6 3 -6 3 -24 0 -41 -6
-28 -10 -31 -45 -31 -21 0 -41 -5 -44 -11 -5 -7 7 -8 39 -4 41 6 46 5 46 -11
0 -11 9 -30 20 -44 l20 -25 0 33 c0 21 5 32 14 32 24 0 27 -16 9 -63 -14 -39
-15 -48 -3 -62 7 -9 22 -14 31 -12 10 3 20 0 22 -7 3 -7 9 -6 22 4 10 8 19 13
21 10 1 -3 6 -2 10 3 4 4 0 7 -9 7 -21 0 -27 12 -20 38 7 30 18 28 33 -8 9
-21 10 -54 4 -119 l-9 -90 -70 79 c-38 44 -74 79 -78 80 -14 0 7 -27 80 -104
l73 -76 -6 -93 c-5 -65 -3 -89 4 -82 7 6 13 102 18 250 4 132 10 269 15 305 8
63 5 -205 -6 -455 -3 -81 -2 -98 5 -65 5 25 9 69 9 98 1 50 2 52 30 52 15 0
49 3 75 6 l46 7 0 -39 c0 -22 -3 -63 -6 -91 -6 -50 -8 -53 -35 -53 -16 0 -29
-5 -29 -11 0 -11 59 -3 72 10 3 3 8 49 10 103 l3 96 -77 81 -78 80 0 59 c0 33
3 87 6 121 7 59 8 61 35 61 28 0 29 -2 29 -47 0 -27 3 -66 7 -88 6 -36 7 -38
14 -15 4 14 7 53 8 88 1 41 5 64 14 66 6 2 86 11 177 19 91 9 173 19 183 22
14 6 17 1 17 -34 0 -40 0 -40 -52 -56 -29 -9 -104 -25 -166 -35 -63 -11 -118
-23 -123 -26 -16 -9 -11 -127 7 -152 17 -25 20 -204 7 -494 -5 -135 -8 -148
-24 -148 -13 0 -28 19 -48 65 -16 36 -35 65 -41 65 -6 0 -5 8 4 23 7 12 17 38
20 59 8 43 -11 68 -53 68 -41 0 -65 -31 -58 -76 5 -30 3 -37 -14 -41 -26 -7
-71 -96 -69 -137 1 -17 1 -96 0 -177 -2 -118 1 -147 13 -157 11 -9 13 -24 10
-53 -7 -51 8 -63 54 -44 32 14 33 13 33 -11 0 -30 17 -38 61 -27 39 10 50 32
20 40 -26 7 -29 54 -5 74 14 12 16 32 12 149 l-5 135 43 -4 c42 -3 44 -4 44
-36 0 -19 5 -37 10 -40 6 -4 65 -75 132 -158 67 -84 147 -182 176 -219 30 -38
58 -68 62 -68 20 0 29 35 35 142 l8 116 91 17 c50 9 106 19 124 22 l32 5 0
-44 c0 -25 -3 -72 -6 -105 l-6 -59 -107 -19 c-102 -17 -159 -34 -119 -35 10 0
63 9 119 20 57 11 105 18 107 15 15 -14 -251 -289 -363 -377 -85 -66 -243
-175 -306 -212 l-46 -26 -83 65 c-46 36 -87 65 -92 65 -4 0 -57 -24 -116 -54
-337 -169 -563 -246 -902 -310 -122 -23 -349 -56 -386 -56 -11 0 -14 -23 -14
-129 0 -76 4 -132 10 -136 6 -4 10 33 11 102 0 59 3 101 6 93 22 -57 96 -203
100 -194 2 5 -17 53 -41 106 -25 52 -48 107 -51 120 -6 25 -5 25 72 32 156 14
395 59 593 112 180 48 304 97 549 215 90 43 166 79 169 79 8 0 152 -112 152
-119 0 -7 -114 -66 -260 -134 -47 -22 -79 -42 -72 -44 23 -9 374 173 512 265
168 111 246 174 383 310 321 317 537 692 617 1072 22 104 35 221 22 200 -5 -8
-12 -43 -16 -76 -9 -81 -58 -273 -90 -354 l-26 -65 6 125 c22 450 22 444 1
461 -10 8 -35 24 -55 35 -115 60 -356 226 -392 268 -18 23 -32 20 -103 -19
-35 -19 -67 -35 -71 -35 -4 0 -4 51 0 114 l7 115 -64 29 c-80 36 -212 121
-304 195 -38 31 -74 57 -78 57 -5 0 -44 -15 -87 -34 -43 -19 -93 -38 -112 -41
l-33 -6 3 113 3 113 -47 25 c-25 13 -96 57 -156 97 -61 40 -113 73 -117 73 -3
0 -15 -6 -25 -12z m136 -77 c57 -37 123 -78 148 -91 l45 -23 -54 -24 c-75 -33
-260 -90 -318 -99 -55 -8 -73 -19 -73 -45 0 -11 -2 -19 -5 -19 -6 0 -127 102
-197 166 -33 29 -52 74 -32 74 4 0 36 -26 73 -58 105 -92 161 -135 161 -124 0
5 -49 51 -110 101 -60 50 -110 96 -110 101 0 6 12 10 28 10 43 0 176 37 249
69 38 16 73 29 80 30 6 1 58 -30 115 -68z m198 -175 c0 -75 -10 -79 -245 -96
-71 -5 -145 -10 -162 -10 -59 0 -35 18 40 30 79 14 262 72 317 101 19 10 38
18 43 19 4 0 7 -20 7 -44z m-663 -193 c-1 -43 -3 -10 -3 72 0 83 2 118 3 78 2
-40 2 -107 0 -150z m93 138 c0 -4 27 -27 60 -51 l60 -45 0 -82 c0 -46 -3 -83
-6 -83 -3 0 -27 18 -53 40 -49 42 -97 53 -107 25 -4 -8 -13 -15 -22 -15 -13 0
-14 13 -9 98 4 53 7 114 7 135 l0 38 35 -27 c19 -14 35 -29 35 -33z m557 -93
c-2 -13 -4 -3 -4 22 0 25 2 35 4 23 2 -13 2 -33 0 -45z m478 -113 c50 -32 109
-67 132 -77 24 -10 43 -21 43 -23 0 -3 -32 -21 -72 -41 -86 -43 -225 -80 -350
-93 -80 -8 -95 -7 -113 8 -12 9 -88 72 -169 141 -158 134 -160 136 -70 139 55
2 218 48 295 83 l74 35 70 -57 c39 -32 111 -83 160 -115z m-1237 112 c2 -18
-2 -29 -12 -33 -20 -8 -21 -24 -2 -24 8 0 21 -18 30 -41 12 -30 26 -44 52 -55
20 -8 34 -18 30 -21 -9 -9 -66 18 -80 39 -14 19 -14 19 -21 -2 -4 -11 -4 -54
0 -95 l7 -74 -36 -6 c-57 -11 -66 -3 -66 60 0 30 2 55 5 55 3 0 16 -7 28 -15
15 -9 27 -11 37 -5 12 8 10 14 -12 37 -15 15 -28 42 -31 58 -4 29 -4 29 -6 -4
-1 -23 6 -42 21 -58 29 -31 8 -30 -26 2 -21 19 -25 30 -20 52 9 44 26 72 46
79 13 4 17 11 12 30 -7 26 12 57 30 51 6 -2 12 -16 14 -30z m337 -535 c-3 -3
-7 -3 -9 -1 -1 2 0 132 3 289 l6 285 3 -284 c1 -156 0 -286 -3 -289z m100 483
c0 -16 -6 -30 -13 -33 -17 -5 -33 39 -19 56 16 20 32 8 32 -23z m327 -212 c86
-72 117 -104 117 -121 l1 -24 -38 29 c-21 15 -98 80 -170 143 -99 86 -132 121
-132 138 0 22 4 20 53 -22 28 -25 105 -90 169 -143z m-559 160 c-7 -2 -19 -2
-25 0 -7 3 -2 5 12 5 14 0 19 -2 13 -5z m253 -18 c10 -15 14 -34 10 -48 -7
-29 -43 -77 -58 -77 -7 0 -7 4 1 13 16 20 42 87 34 87 -5 0 -16 -18 -26 -40
-22 -47 -42 -53 -32 -11 3 17 1 39 -5 51 -25 47 46 71 76 25z m-232 -11 c9
-22 -1 -34 -30 -34 -33 0 -31 18 4 23 25 4 24 4 -6 6 -19 0 -31 5 -27 11 10
16 52 12 59 -6z m86 -140 l0 -82 -105 107 c-58 58 -105 107 -105 108 0 2 11 3
25 3 15 0 25 -6 25 -15 0 -31 54 -38 88 -12 7 6 10 17 7 26 -3 9 10 0 29 -18
35 -34 36 -36 36 -117z m60 91 c0 -14 -4 -25 -9 -25 -4 0 -6 11 -3 25 2 14 6
25 8 25 2 0 4 -11 4 -25z m-151 -102 l91 -97 0 -73 c0 -40 -3 -73 -6 -73 -5 0
-30 27 -148 160 -61 69 -66 79 -66 121 0 86 17 81 129 -38z m251 25 l0 -51
-25 23 -24 23 22 28 c12 15 23 28 25 28 1 1 2 -22 2 -51z m960 -28 c0 -55 -2
-61 -24 -70 -40 -15 -231 -38 -378 -46 -133 -6 -138 -6 -138 13 0 18 9 21 90
27 122 9 269 48 360 94 41 22 78 40 83 40 4 1 7 -25 7 -58z m-1053 39 c6 -6 9
-18 6 -25 -3 -9 0 -12 9 -9 8 3 33 -11 59 -34 42 -39 43 -40 18 -41 -14 0 -47
-3 -73 -6 l-47 -7 2 67 c2 67 6 75 26 55z m-447 -115 c-2 -16 -4 -43 -5 -61 0
-17 -3 -29 -7 -26 -5 2 -8 31 -8 64 0 44 3 60 13 56 7 -2 10 -15 7 -33z m62
-19 c4 -64 -7 -60 -16 8 -5 28 -3 47 2 47 6 0 12 -25 14 -55z m1437 -7 c0 -13
-4 -32 -9 -43 -7 -15 -9 -10 -9 23 -1 23 4 42 9 42 6 0 10 -10 9 -22z m233
-49 c82 -68 170 -128 311 -210 72 -42 94 -59 85 -67 -25 -19 -194 -100 -264
-125 -67 -24 -192 -56 -277 -71 -38 -7 -39 -6 -185 131 -81 77 -171 161 -200
188 l-53 49 98 17 c157 27 328 85 388 133 11 8 21 16 23 16 1 0 35 -27 74 -61z
m-932 -19 c0 -5 -2 -10 -4 -10 -3 0 -8 5 -11 10 -3 6 -1 10 4 10 6 0 11 -4 11
-10z m267 -57 c-2 -16 -4 -5 -4 22 0 28 2 40 4 28 2 -13 2 -35 0 -50z m-262
11 c1 -21 -16 -54 -27 -54 -10 0 -11 64 -1 74 12 11 28 0 28 -20z m-489 -2 c8
-4 9 -21 5 -47 -5 -31 -11 -41 -28 -43 -18 -3 -23 3 -29 34 -5 30 -3 40 11 51
21 15 26 16 41 5z m1033 -247 c111 -104 201 -197 201 -206 0 -9 -8 -27 -18
-39 -21 -26 -50 -18 -58 16 -3 13 -11 25 -18 25 -6 1 -18 2 -26 3 -8 0 -20 17
-26 36 -8 23 -19 37 -35 40 -13 3 -30 18 -37 33 -7 15 -21 27 -32 27 -11 0
-22 11 -29 30 -7 20 -17 30 -31 30 -13 0 -26 12 -37 35 -9 19 -23 35 -30 35
-23 0 -44 45 -41 89 2 22 6 40 10 38 3 -1 97 -87 207 -192z m-464 175 c11 -17
-5 -32 -21 -19 -8 6 -14 15 -14 20 0 12 27 11 35 -1z m-576 -45 c31 -15 41
-33 41 -71 0 -25 -24 -33 -34 -11 -3 6 -4 -7 -1 -30 3 -24 1 -43 -4 -43 -11 0
-47 85 -55 133 -8 42 4 48 53 22z m-65 -36 c8 -49 30 -95 61 -129 20 -22 24
-37 26 -114 3 -86 3 -89 -21 -98 -17 -6 -37 -4 -67 7 l-43 17 0 83 c0 93 11
114 28 56 7 -21 22 -46 33 -57 l22 -19 -17 27 c-30 47 -56 131 -56 185 0 87
22 115 34 42z m616 17 c0 -14 -5 -28 -10 -31 -13 -8 -24 20 -16 40 9 24 26 17
26 -9z m-660 -73 c0 -26 -3 -34 -11 -26 -9 9 -3 63 7 63 2 0 4 -17 4 -37z
m892 -114 c-10 -3 -41 -9 -71 -12 l-54 -6 7 52 c3 29 6 64 6 80 0 26 4 23 64
-40 51 -54 61 -69 48 -74z m93 -140 c-5 -138 -12 -232 -18 -236 -7 -4 -8 45
-4 153 4 87 7 202 7 254 1 72 3 91 11 77 7 -13 8 -92 4 -248z m953 134 l-3
-107 -46 -17 c-99 -37 -367 -68 -473 -55 l-56 7 0 39 c0 37 0 38 48 44 147 21
423 120 497 179 11 9 24 17 28 17 4 0 6 -48 5 -107z m-1782 70 c3 -16 10 -40
14 -55 15 -48 -7 -30 -24 19 -19 54 -19 63 -6 63 5 0 12 -12 16 -27z m890 -17
c8 -20 37 -56 45 -56 6 0 20 -11 30 -24 11 -14 28 -27 38 -31 9 -3 24 -20 32
-38 9 -20 22 -33 37 -35 12 -2 22 -8 22 -13 0 -6 11 -21 25 -35 21 -21 28 -23
46 -14 21 12 21 11 14 -117 -4 -70 -9 -130 -11 -132 -1 -1 -8 0 -14 4 -7 5 -8
11 -2 17 15 15 -55 78 -88 78 -16 0 -31 4 -35 9 -6 11 -64 9 -82 -2 -6 -4 -18
-4 -27 -1 -8 3 -29 -2 -45 -12 -17 -10 -32 -16 -35 -13 -2 2 -1 100 2 217 5
210 5 212 26 206 12 -4 21 -7 22 -8z m884 -198 c-1 -89 -23 -355 -31 -367 -7
-11 -8 24 -4 114 8 183 16 265 26 265 5 0 9 -6 9 -12z m-50 -220 c-12 -166
-20 -231 -32 -253 l-17 -30 2 44 c2 61 -28 85 -100 79 -68 -6 -83 -20 -83 -74
0 -25 -5 -44 -11 -44 -7 0 -10 -18 -7 -49 l3 -50 -21 20 c-20 18 -21 27 -16
175 l5 155 -28 29 c-22 23 -25 31 -16 48 25 47 2 92 -48 92 -38 0 -51 -17 -51
-68 0 -36 -6 -50 -34 -80 -19 -20 -36 -34 -38 -32 -2 3 -2 50 0 105 l4 100
131 2 c118 2 328 31 345 48 25 24 26 -7 12 -217z m-1840 172 c0 -11 6 -20 13
-20 8 0 7 -4 -3 -10 -24 -16 -30 -12 -30 20 0 17 5 30 10 30 6 0 10 -9 10 -20z
m40 -5 c0 -9 -6 -12 -15 -9 -8 4 -15 10 -15 15 0 5 7 9 15 9 8 0 15 -7 15 -15z
m36 -10 c3 -14 14 -25 23 -26 9 -1 5 -4 -9 -8 -26 -8 -38 5 -39 42 -1 26 18
20 25 -8z m1257 -41 c-14 -330 -36 -736 -42 -764 -16 -81 -16 4 0 315 10 182
18 372 18 423 1 70 4 93 14 89 8 -3 11 -23 10 -63z m-535 -24 c3 -45 -8 -60
-44 -63 -27 -2 -29 1 -32 37 -5 56 3 68 40 64 30 -3 33 -6 36 -38z m693 30
c10 -6 19 -18 19 -27 0 -14 -3 -14 -25 1 -14 9 -30 14 -35 11 -6 -3 -10 -2
-10 4 0 8 11 16 28 20 2 1 12 -4 23 -9z m-8 -44 c32 -25 16 -86 -22 -86 -14 1
-13 3 2 14 22 17 22 26 -2 26 -19 0 -31 18 -31 46 0 18 29 18 53 0z m-349 -67
c-3 -5 -10 -7 -15 -3 -5 3 -7 10 -3 15 3 5 10 7 15 3 5 -3 7 -10 3 -15z m-352
-26 c30 -27 51 -83 37 -99 -17 -20 -26 -17 -44 14 l-16 27 6 -30 c3 -16 13
-35 21 -41 15 -12 20 -74 5 -74 -35 0 -91 124 -91 201 0 37 0 38 31 29 18 -5
41 -17 51 -27z m308 29 c0 -13 -12 -22 -22 -16 -10 6 -1 24 13 24 5 0 9 -4 9
-8z m-52 -14 c-3 -7 -8 -13 -13 -13 -5 0 -10 6 -12 13 -3 6 3 12 12 12 9 0 15
-6 13 -12z m186 -17 c15 -15 26 -34 24 -42 -2 -7 7 -18 19 -23 22 -10 23 -14
17 -111 -4 -55 -8 -101 -9 -102 -1 -2 -12 8 -25 22 l-24 26 22 6 c12 3 22 9
22 14 0 5 -11 4 -24 -1 -18 -6 -28 -5 -36 5 -12 15 -7 19 33 29 15 3 27 10 27
15 0 5 -19 3 -42 -4 -40 -11 -43 -15 -46 -50 -3 -34 2 -43 44 -86 l46 -47 -8
-142 -9 -142 -75 93 c-41 51 -93 115 -114 143 -22 28 -66 82 -98 119 -69 81
-75 112 -24 121 19 4 37 14 40 23 4 9 5 16 4 17 -2 1 -13 7 -25 13 -12 7 -28
10 -35 8 -10 -4 -12 6 -10 39 l4 45 96 -117 c52 -64 125 -151 161 -192 36 -41
67 -77 68 -79 2 -2 5 -2 8 1 3 3 -68 92 -157 199 -129 155 -158 195 -143 198
11 2 21 -3 24 -10 2 -7 20 -30 40 -51 l36 -39 60 11 c98 17 105 20 105 37 0 9
-11 31 -26 50 -32 42 -10 45 30 4z m219 9 c5 -20 7 -20 41 -6 35 15 37 14 52
-9 11 -17 14 -36 10 -60 -8 -41 -17 -49 -41 -31 -15 10 -16 16 -6 35 7 12 10
27 8 34 -2 7 -12 -11 -22 -39 -14 -38 -26 -54 -47 -62 l-28 -10 -1 66 c-1 37
-4 57 -6 44 -4 -19 -7 -21 -19 -11 -13 10 -11 16 12 41 33 33 40 35 47 8z
m-748 -82 c16 -65 58 -134 86 -143 18 -6 19 -15 17 -113 l-3 -107 -37 -3 c-22
-2 -56 5 -84 17 l-46 21 6 77 c14 168 27 299 33 323 5 22 7 23 10 5 2 -11 11
-46 18 -77z m466 69 c-13 -13 -26 -3 -16 12 3 6 11 8 17 5 6 -4 6 -10 -1 -17z
m-115 -54 c-8 -8 -56 45 -56 62 0 5 14 -5 32 -22 18 -18 28 -36 24 -40z m19
37 c-5 -8 -11 -8 -17 -2 -6 6 -7 16 -3 22 5 8 11 8 17 2 6 -6 7 -16 3 -22z
m55 20 c0 -5 -7 -10 -15 -10 -8 0 -15 5 -15 10 0 6 7 10 15 10 8 0 15 -4 15
-10z m70 -20 c0 -5 -7 -10 -16 -10 -8 0 -12 5 -9 10 3 6 10 10 16 10 5 0 9 -4
9 -10z m-90 -10 c0 -5 -7 -10 -15 -10 -8 0 -15 5 -15 10 0 6 7 10 15 10 8 0
15 -4 15 -10z m45 0 c-3 -5 -10 -10 -16 -10 -5 0 -9 5 -9 10 0 6 7 10 16 10 8
0 12 -4 9 -10z m55 -19 c0 -12 -18 -18 -83 -26 -38 -5 -57 -4 -57 3 0 6 21 14
48 17 26 4 52 8 57 10 19 7 35 5 35 -4z m175 -1 c3 -5 -3 -10 -14 -10 -12 0
-21 5 -21 10 0 6 6 10 14 10 8 0 18 -4 21 -10z m-734 -47 c-10 -17 -10 -16
-11 3 0 23 13 41 18 25 2 -6 -1 -18 -7 -28z m759 -8 c0 -37 -13 -44 -42 -21
-34 25 -20 50 30 55 7 1 12 -12 12 -34z m-499 -15 c27 0 49 -4 49 -9 0 -14
-111 -23 -126 -10 -17 14 -7 32 13 25 8 -3 37 -6 64 -6z m603 4 c41 -16 -10
-48 -92 -58 -64 -8 -62 6 2 23 25 6 51 18 58 26 16 17 13 16 32 9z m-154 -44
c-18 -11 -22 -7 -14 14 5 13 10 14 18 6 8 -8 7 -13 -4 -20z m185 -128 c-8 -8
-105 90 -99 100 3 4 16 8 30 8 14 0 35 10 47 23 l22 22 3 -74 c2 -40 0 -76 -3
-79z m155 130 c0 -4 -16 -12 -35 -18 -36 -11 -38 1 -1 16 27 11 36 12 36 2z
m40 -2 c0 -5 -7 -7 -15 -4 -8 4 -15 8 -15 10 0 2 7 4 15 4 8 0 15 -4 15 -10z
m40 -15 c7 -8 9 -22 6 -31 -5 -13 -17 -16 -66 -12 -64 5 -83 14 -60 28 21 14
94 12 108 -2 9 -9 12 -9 12 0 0 6 -8 16 -17 21 -10 6 -13 11 -7 11 6 0 17 -7
24 -15z m-280 -100 c94 -94 97 -86 -45 -109 -49 -8 -98 -17 -107 -21 -14 -5
-18 -2 -18 14 0 25 21 37 83 46 45 7 47 9 47 39 0 21 -8 40 -24 55 -21 20 -29
21 -60 13 -35 -10 -36 -10 -36 16 0 25 4 27 39 28 36 1 45 -5 121 -81z m-251
13 c38 -40 51 -68 33 -68 -11 0 -82 86 -82 99 0 18 7 13 49 -31z m487 28 l51
0 -6 -30 c-6 -29 -10 -31 -56 -33 -57 -3 -79 9 -89 51 -7 27 -6 28 21 20 15
-5 51 -8 79 -8z m-306 -36 c0 -4 -12 -10 -27 -13 -16 -3 -36 -9 -45 -12 -14
-6 -18 -2 -18 15 0 16 5 21 18 18 10 -3 23 1 31 9 10 11 16 11 27 2 8 -6 14
-15 14 -19z m18 -32 c-2 -17 -14 -24 -55 -33 -47 -11 -53 -10 -53 4 0 11 17
22 53 32 28 9 53 17 55 18 2 0 2 -9 0 -21z m231 -88 l0 -45 -29 33 c-22 23
-30 42 -30 68 l0 36 29 -24 c25 -19 30 -30 30 -68z m58 73 c52 6 45 -8 -7 -18
-28 -5 -41 -2 -60 15 l-25 21 24 -12 c13 -6 44 -9 68 -6z m2 -60 c-12 -21 -28
-45 -36 -53 -12 -13 -14 -9 -11 30 3 37 7 45 28 51 42 12 42 10 19 -28z m-93
-135 c-61 -90 -62 -90 -52 30 l8 107 42 -40 41 -40 -39 -57z m-956 53 c0 -10
8 -22 18 -26 16 -7 15 -8 -3 -15 -32 -14 -35 -12 -35 25 0 19 5 35 10 35 6 0
10 -9 10 -19z m45 -2 c4 -6 5 -12 2 -15 -7 -7 -37 7 -37 17 0 13 27 11 35 -2z
m45 -24 c0 -14 7 -28 15 -31 24 -9 17 -24 -10 -24 -19 0 -25 5 -26 23 0 12 -2
30 -4 40 -2 9 3 17 11 17 8 0 14 -10 14 -25z"/>
<path d="M6810 3205 c-10 -12 -9 -20 4 -40 9 -14 23 -25 30 -25 48 0 62 38 24
64 -28 20 -42 20 -58 1z m46 -25 c27 0 32 -15 8 -24 -20 -8 -44 11 -43 33 0
10 2 11 6 4 2 -7 16 -13 29 -13z"/>
<path d="M6756 2660 c18 -62 43 -114 51 -107 2 3 -2 16 -10 29 -9 12 -21 43
-28 68 -7 25 -16 49 -21 55 -4 5 -1 -15 8 -45z"/>
<path d="M8563 2560 c-24 -26 -43 -51 -43 -56 0 -10 78 65 91 89 17 31 -5 16
-48 -33z"/>
<path d="M7970 2080 c-8 -5 -27 -10 -41 -10 -15 0 -32 -6 -38 -14 -31 -38 64
-28 100 10 23 25 10 34 -21 14z m-50 -30 c0 -5 -5 -10 -11 -10 -5 0 -7 5 -4
10 3 6 8 10 11 10 2 0 4 -4 4 -10z m47 4 c-3 -3 -12 -4 -19 -1 -8 3 -5 6 6 6
11 1 17 -2 13 -5z"/>
<path d="M7435 2041 c5 -59 41 -143 65 -150 12 -3 12 0 -2 15 -21 24 -37 63
-54 134 l-14 55 5 -54z"/>
<path d="M1725 3683 c-24 -23 -27 -52 -18 -159 l8 -99 53 -3 52 -3 0 38 c0 62
-20 206 -31 219 -16 19 -48 23 -64 7z m55 -25 c11 -25 29 -216 21 -223 -2 -3
-19 -5 -36 -5 -28 0 -33 4 -39 31 -11 55 -7 194 6 207 18 18 37 14 48 -10z"/>
<path d="M8565 3470 c9 -14 186 -103 192 -96 3 3 -41 28 -97 56 -56 28 -99 46
-95 40z"/>
<path d="M2114 3358 c7 -23 156 -257 168 -264 5 -3 3 7 -5 22 -25 46 -169 261
-163 242z"/>
<path d="M4152 3210 c-68 -4 -124 -9 -126 -11 -13 -14 -175 -349 -169 -349 5
0 47 76 95 168 l87 167 93 6 c51 3 539 5 1083 5 l990 -1 93 -185 c52 -102 157
-306 235 -455 218 -418 309 -598 381 -755 37 -80 104 -212 150 -295 46 -82 82
-151 81 -153 -6 -7 -3032 -10 -3537 -5 l-508 6 82 156 c101 192 154 299 214
433 25 56 84 176 130 264 46 89 84 167 84 175 0 30 -144 -243 -255 -486 -46
-99 -104 -218 -129 -265 -66 -121 -146 -278 -146 -287 0 -5 177 -10 393 -12
423 -5 538 -5 1547 -4 366 0 771 1 900 0 428 0 1250 8 1250 13 0 3 -25 50 -55
105 -58 104 -171 332 -272 545 -33 69 -116 231 -185 360 -69 129 -196 375
-282 546 l-158 312 -166 7 c-92 5 -378 4 -637 -1 -568 -10 -536 -10 -870 -2
-148 4 -325 3 -393 -2z"/>
<path d="M3681 3021 c-16 -16 -18 -26 -11 -56 6 -28 5 -38 -6 -42 -8 -3 -21
-28 -29 -56 -13 -45 -13 -53 0 -73 11 -17 15 -51 15 -123 0 -55 5 -112 11
-127 7 -21 7 -34 -2 -51 -15 -28 -8 -37 24 -29 15 3 27 16 31 31 4 14 13 25
21 25 17 0 21 -35 5 -45 -18 -11 -10 -25 14 -25 37 0 47 22 51 109 2 44 9 90
16 102 6 13 9 55 7 108 -4 93 -28 160 -59 168 -14 4 -18 14 -17 40 1 24 -5 40
-17 49 -25 18 -31 18 -54 -5z m54 -20 c9 -30 -2 -93 -27 -143 -26 -54 -38 -60
-39 -20 0 24 -1 25 -9 7 -5 -13 -3 -25 7 -35 13 -13 16 -13 29 5 9 11 25 42
36 69 l22 49 22 -26 c36 -43 59 -198 34 -237 -7 -10 -10 7 -10 56 0 82 -14 98
-51 57 -23 -24 -23 -25 -6 -38 15 -11 17 -21 12 -47 -11 -48 -42 -106 -64
-117 -17 -10 -19 -6 -24 42 -3 28 -5 70 -4 92 2 36 4 40 27 37 23 -3 22 -2
-10 20 -19 13 -36 33 -38 45 -5 35 25 92 55 105 22 9 24 12 11 15 -20 5 -34
44 -24 68 8 21 43 19 51 -4z m54 -340 c1 -115 0 -119 -22 -125 -31 -8 -60 -7
-75 3 -10 6 -5 16 22 43 32 32 44 60 61 146 5 26 3 32 -10 32 -14 0 -15 3 -5
15 7 8 16 13 20 10 4 -3 8 -58 9 -124z m-9 -160 c0 -17 -6 -31 -15 -35 -13 -4
-13 -2 -5 14 6 10 10 23 9 27 -2 13 1 23 6 23 3 0 5 -13 5 -29z m-91 -22 c-20
-12 -22 -4 -7 20 11 18 14 19 16 5 2 -9 -2 -20 -9 -25z"/>
<path d="M3734 2848 c-10 -29 -21 -57 -23 -62 -2 -5 1 -6 7 -2 12 7 47 105 40
111 -2 3 -13 -19 -24 -47z"/>
<path d="M3480 2965 c-8 -10 -10 -29 -7 -53 5 -30 3 -40 -12 -49 -29 -18 -45
-106 -26 -143 9 -18 15 -57 15 -102 0 -40 4 -89 9 -108 5 -19 12 -52 16 -72 5
-34 9 -38 35 -38 30 0 40 13 20 25 -13 8 -13 52 -1 60 5 3 11 -9 13 -27 3 -30
6 -33 41 -36 40 -3 45 3 23 27 -12 13 -14 36 -9 109 3 50 10 92 14 92 24 0 -6
161 -38 210 -10 14 -16 39 -14 56 4 52 -49 85 -79 49z m44 -11 c18 -7 22 -59
6 -69 -8 -5 -8 -11 -1 -19 13 -15 -1 -69 -29 -111 l-20 -30 0 40 c-1 33 -2 37
-11 22 -6 -10 -8 -35 -5 -55 6 -35 5 -36 -9 -18 -28 37 -13 116 28 148 19 15
20 19 8 41 -22 41 -5 66 33 51z m46 -164 c0 -71 -28 -151 -66 -191 -15 -16
-25 -31 -22 -34 11 -11 58 50 77 99 l19 51 7 -89 c7 -86 7 -90 -16 -107 -13
-10 -40 -19 -60 -19 l-36 0 -7 87 c-4 57 -3 89 4 91 5 2 10 8 10 12 0 5 13 31
30 56 16 26 33 62 36 81 10 51 24 29 24 -37z m38 -105 l0 -30 -8 30 c-4 17 -8
41 -8 55 l0 25 8 -25 c4 -14 8 -38 8 -55z m-25 -237 c6 -4 8 -10 5 -13 -13
-14 -28 7 -27 38 2 28 2 29 6 7 3 -14 10 -28 16 -32z m-71 -3 c2 -22 0 -34 -6
-32 -14 4 -21 67 -8 67 6 0 12 -16 14 -35z"/>
<path d="M3536 2747 c-4 -16 -18 -40 -32 -54 -26 -26 -26 -45 0 -24 19 16 48
79 43 94 -2 6 -7 -1 -11 -16z"/>
<path d="M7080 2940 c-11 -11 -21 -30 -22 -42 -1 -13 -2 -30 -3 -38 -1 -8 -6
-25 -13 -36 -18 -34 -26 -102 -13 -118 8 -10 9 -26 1 -60 -6 -26 -13 -86 -17
-135 -5 -76 -4 -89 11 -94 9 -4 16 -16 16 -28 0 -18 4 -21 29 -16 20 4 31 2
35 -8 6 -18 62 -20 72 -3 4 6 -1 17 -10 23 -15 12 -15 13 0 19 15 6 16 19 10
114 -3 59 -9 124 -12 144 l-6 37 33 -5 c36 -6 91 23 113 58 25 41 -62 78 -98
42 -14 -14 -18 -13 -40 13 -21 24 -23 30 -10 44 20 22 19 95 -2 103 -29 11
-54 6 -74 -14z m69 -3 c8 -11 6 -18 -9 -32 -11 -10 -20 -27 -20 -37 0 -22 -27
-35 -41 -21 -15 15 7 91 29 96 28 8 29 7 41 -6z m2 -70 c-16 -16 -26 0 -10 19
9 11 15 12 17 4 2 -6 -1 -17 -7 -23z m-4 -61 c10 -13 26 -38 36 -56 15 -27 21
-31 43 -26 15 4 23 3 20 -2 -3 -5 -16 -12 -28 -15 -16 -5 -30 3 -57 31 -21 22
-32 29 -27 17 15 -36 18 -63 8 -69 -13 -8 -39 23 -57 70 l-15 39 4 -40 c4 -30
14 -48 41 -71 35 -31 35 -33 45 -139 13 -131 9 -139 -63 -132 -78 7 -81 15
-62 148 18 121 30 253 17 189 -4 -20 -10 -30 -14 -24 -4 6 -1 32 8 58 15 42
19 46 49 46 24 0 39 -7 52 -24z m129 -20 c25 -19 10 -35 -39 -43 -29 -4 -37
-2 -37 10 0 19 26 47 44 47 7 0 21 -6 32 -14z m-199 -392 c-3 -3 -12 -4 -19
-1 -8 3 -5 6 6 6 11 1 17 -2 13 -5z m73 -28 c0 -3 -7 -3 -15 0 -8 4 -15 13
-15 21 0 12 2 12 15 -1 8 -8 15 -17 15 -20z"/>
<path d="M7187 2627 c74 -93 237 -277 241 -272 3 2 -17 30 -44 62 -137 163
-199 233 -207 233 -4 0 0 -10 10 -23z"/>
<path d="M2980 761 c0 -20 334 -141 569 -206 169 -46 341 -84 346 -75 2 3 -67
23 -155 44 -242 57 -550 155 -722 230 -21 9 -38 12 -38 7z"/>
</g>
</svg>
