<?xml version="1.0" standalone="no"?>
<!DOCTYPE svg PUBLIC "-//W3C//DTD SVG 20010904//EN"
 "http://www.w3.org/TR/2001/REC-SVG-20010904/DTD/svg10.dtd">
<svg version="1.0" xmlns="http://www.w3.org/2000/svg"
 width="1024.000000pt" height="559.000000pt" viewBox="0 0 1024.000000 559.000000"
 preserveAspectRatio="xMidYMid meet">
<metadata>
Created by potrace 1.16, written by Peter Selinger 2001-2019
</metadata>
<g transform="translate(0.000000,559.000000) scale(0.100000,-0.100000)"
fill="#000000" stroke="none">
<path d="M4978 4538 c-22 -32 -23 -43 -28 -258 l-5 -225 -275 -7 c-151 -4
-396 -12 -544 -18 -236 -9 -271 -8 -286 5 -21 19 -51 19 -76 0 -11 -8 -41 -15
-70 -15 -39 0 -59 -6 -88 -27 l-37 -28 3 -77 c2 -42 8 -82 14 -88 6 -6 40 -13
76 -17 60 -5 67 -8 73 -31 4 -17 0 -31 -15 -47 -30 -32 -36 -86 -15 -123 18
-30 18 -31 -8 -61 -16 -20 -28 -49 -32 -79 -10 -74 -14 -90 -30 -106 -24 -24
-45 -81 -45 -123 0 -25 -10 -53 -30 -82 -28 -41 -35 -65 -31 -99 3 -21 -20
-82 -30 -82 -16 0 -39 -66 -39 -114 0 -33 -7 -52 -25 -75 -18 -20 -30 -54 -41
-107 -8 -44 -23 -87 -33 -99 -24 -27 -42 -82 -35 -109 3 -14 -5 -36 -22 -61
-40 -60 -54 -98 -48 -137 6 -36 5 -39 -48 -79 -40 -30 -37 -72 10 -145 117
-180 382 -277 673 -245 186 20 294 66 400 167 71 69 112 138 107 181 -2 19
-15 35 -40 52 -35 23 -38 28 -38 73 0 45 -9 69 -57 152 -7 11 -13 39 -13 61 0
39 -8 58 -43 107 -9 14 -19 45 -21 69 -4 49 -30 119 -45 119 -11 0 -26 56 -22
87 3 27 -34 113 -48 113 -6 0 -13 17 -16 38 -11 78 -27 128 -46 149 -14 14
-23 43 -29 85 -7 60 -26 108 -41 108 -10 0 -30 61 -23 71 9 15 -14 83 -41 119
-23 32 -24 35 -8 52 26 29 22 83 -9 115 -14 16 -28 41 -31 57 l-5 29 367 -6
c201 -4 455 -7 564 -7 l197 0 -2 -1107 -3 -1108 -291 -5 -291 -5 -79 -71 c-43
-40 -103 -97 -131 -127 l-53 -56 0 -125 c0 -69 4 -127 8 -130 5 -3 67 -8 138
-12 l130 -7 37 43 c20 24 37 47 37 52 0 4 300 8 668 8 l667 0 45 -51 46 -51
129 8 130 9 3 129 3 128 -47 57 c-25 31 -75 89 -111 129 -58 65 -68 72 -102
72 l-38 0 -12 63 c-7 34 -20 87 -29 117 -16 50 -21 56 -59 70 -23 8 -45 19
-49 23 -4 4 9 22 29 41 43 39 44 46 15 81 -62 71 -258 45 -258 -34 0 -20 35
-61 52 -61 4 0 8 -8 8 -19 0 -13 -10 -21 -34 -25 -18 -4 -41 -15 -50 -25 -16
-18 -36 -85 -53 -181 l-9 -45 -52 -3 -52 -3 0 1110 0 1111 173 0 c96 0 350 3
565 7 l392 6 0 -21 c0 -12 -14 -37 -31 -57 -35 -39 -43 -93 -18 -122 15 -18
15 -53 -1 -53 -14 0 -39 -65 -44 -113 -2 -30 -15 -64 -35 -94 -21 -31 -31 -59
-31 -83 0 -41 -18 -100 -30 -100 -12 0 -40 -77 -40 -113 0 -32 -8 -51 -45
-102 -11 -16 -20 -47 -21 -69 -2 -52 -13 -96 -26 -96 -14 0 -35 -59 -41 -114
-4 -29 -16 -63 -33 -87 -16 -24 -28 -57 -31 -86 -5 -53 -21 -103 -33 -103 -17
0 -40 -71 -38 -116 1 -37 -3 -50 -16 -58 -76 -45 -82 -73 -37 -152 65 -112
218 -215 366 -247 357 -77 698 37 815 270 28 55 20 90 -25 113 -42 21 -46 30
-40 73 5 39 -8 75 -48 129 -13 17 -20 41 -19 65 2 38 -32 123 -48 123 -5 0
-12 17 -15 38 -11 78 -27 128 -46 149 -14 14 -23 43 -29 87 -4 37 -16 78 -27
93 -36 50 -43 68 -38 90 6 25 -17 87 -41 114 -8 9 -20 47 -25 85 -7 48 -17 78
-36 103 -19 24 -29 53 -34 94 -5 38 -16 71 -34 97 -25 37 -26 40 -11 62 23 32
20 82 -7 115 -14 18 -21 38 -19 56 3 25 7 27 50 28 26 1 61 4 77 8 29 6 30 9
38 76 5 43 4 79 -2 93 -16 35 -70 62 -123 62 -26 0 -60 8 -77 18 -29 16 -33
16 -61 0 -28 -16 -52 -16 -293 -7 -144 5 -388 13 -542 17 l-280 7 -3 224 c-2
223 -3 225 -28 258 l-25 33 -119 0 -119 0 -23 -32z m260 -20 c3 -16 -8 -18
-122 -18 -69 0 -126 4 -126 8 0 26 29 32 135 30 95 -3 110 -5 113 -20z m-208
-164 l6 -119 2 123 2 122 85 0 85 0 2 -87 2 -88 3 88 c4 85 5 88 26 85 22 -3
22 -5 25 -211 2 -192 1 -208 -15 -205 -9 2 -20 16 -24 31 -12 46 -27 57 -80
57 l-48 0 -5 53 c-13 113 -14 119 -11 35 4 -87 4 -88 -20 -88 -25 0 -55 -41
-55 -75 0 -8 -7 -15 -15 -15 -13 0 -15 29 -15 203 0 112 3 206 6 209 3 3 13 5
22 4 14 -2 18 -21 22 -122z m165 -244 c4 -6 -22 -10 -69 -10 -44 0 -76 4 -76
10 0 6 30 10 69 10 39 0 73 -4 76 -10z m-124 -62 l2 -23 4 23 c4 20 10 22 69
22 l64 0 0 -174 c0 -196 4 -186 -81 -186 -40 0 -49 3 -50 18 -1 16 -2 16 -6 0
-2 -10 -10 -18 -17 -18 -9 0 -15 34 -19 128 -11 213 -10 232 13 232 14 0 20
-7 21 -22z m-66 -33 c0 -11 -162 -18 -769 -34 -215 -6 -392 -8 -395 -6 -15 15
36 20 272 27 144 5 377 12 517 17 305 10 375 9 375 -4z m895 -5 c450 -11 510
-15 510 -32 0 -7 -42 -8 -132 -4 -102 5 -892 25 -1015 26 -15 0 -23 6 -23 16
0 15 13 16 118 10 64 -3 308 -11 542 -16z m-2092 -22 c-6 -18 -11 -94 -12
-168 -1 -138 -14 -181 -29 -100 -9 51 -4 256 8 283 4 9 15 17 25 17 16 0 17
-4 8 -32z m2661 -5 c12 -42 14 -206 5 -265 -4 -23 -12 -38 -21 -38 -11 0 -13
21 -11 113 2 61 -1 138 -5 170 -7 48 -6 57 7 57 9 0 19 -15 25 -37z m-2729 -2
c0 -5 -25 -11 -55 -13 -52 -3 -63 0 -48 15 10 10 103 8 103 -2z m2864 3 c30
-12 8 -19 -48 -16 -31 2 -56 8 -56 13 0 10 80 12 104 3z m-1596 -36 c-3 -21
-10 -24 -78 -29 l-75 -5 78 -2 77 -2 0 -55 0 -55 -293 0 c-162 0 -430 3 -596
7 -299 6 -302 6 -299 27 3 19 9 21 78 19 52 -2 69 0 55 6 -11 5 -46 10 -77 10
-53 1 -58 3 -58 24 0 50 -5 49 366 58 192 5 394 10 449 12 55 1 162 4 238 5
138 2 138 2 135 -20z m757 12 c620 -15 655 -17 655 -41 0 -18 -10 -19 -162
-21 l-163 -2 163 -3 162 -3 0 -39 0 -38 -277 -6 c-153 -4 -419 -7 -590 -7
l-313 0 0 85 0 85 38 0 c20 0 240 -4 487 -10z m-2035 -85 l0 -65 -59 0 c-52 0
-59 2 -65 23 -13 49 -8 57 37 59 l42 1 -42 4 c-35 3 -43 8 -43 24 0 17 7 19
65 19 l65 0 0 -65z m2920 46 c0 -10 -3 -39 -6 -65 l-7 -46 -63 0 -64 0 0 65 0
65 70 0 c62 0 70 -2 70 -19z m-1640 -186 c0 -29 5 -37 26 -45 14 -6 39 -10 55
-10 l29 0 2 -212 3 -213 2 212 3 211 50 7 c49 7 50 8 56 46 7 44 21 51 30 15
7 -28 1 -2302 -6 -2309 -3 -2 -15 -8 -27 -11 l-23 -7 -1 133 c0 102 -3 127
-11 108 -6 -15 -8 -69 -4 -139 l5 -114 -87 5 c-49 3 -98 11 -110 17 l-22 12 0
1164 c0 1029 2 1165 15 1165 10 0 15 -11 15 -35z m-1271 -66 c-6 -12 -9 -32
-6 -45 5 -26 -7 -33 -17 -9 -6 18 12 75 25 75 6 0 5 -9 -2 -21z m121 -35 c0
-18 -5 -36 -11 -39 -7 -5 -8 4 -4 28 4 21 3 37 -4 41 -6 4 -11 12 -11 18 0 7
6 6 15 -2 8 -7 15 -27 15 -46z m2541 27 c-7 -11 -9 -33 -5 -48 4 -22 3 -25 -5
-13 -6 8 -11 23 -11 33 0 22 19 61 27 54 2 -3 0 -15 -6 -26z m119 -1 c7 -17 9
-37 4 -47 -6 -14 -9 -10 -12 17 -2 19 -8 41 -14 47 -7 9 -7 13 0 13 5 0 15
-13 22 -30z m-2700 -17 c13 -4 12 -6 -3 -17 -20 -15 -67 -9 -67 8 0 24 17 27
70 9z m2670 -8 c0 -16 -64 -22 -74 -6 -9 14 5 21 41 21 23 0 33 -5 33 -15z
m-2739 -86 c-11 -24 -20 -38 -20 -31 -1 18 28 86 34 80 3 -3 -3 -25 -14 -49z
m86 3 c7 -20 13 -41 12 -47 0 -16 -25 37 -33 70 -10 40 4 24 21 -23z m2578 -7
c-9 -26 -19 -44 -22 -41 -3 3 3 25 12 51 10 25 20 43 23 40 3 -2 -3 -25 -13
-50z m88 10 c9 -25 12 -45 7 -45 -9 0 -30 54 -30 76 0 25 8 15 23 -31z m-2703
-40 c0 -25 -4 -45 -10 -45 -5 0 -10 20 -10 45 0 25 5 45 10 45 6 0 10 -20 10
-45z m2660 0 c0 -25 -4 -45 -10 -45 -11 0 -14 49 -4 74 10 26 14 18 14 -29z
m-2726 -32 c19 8 20 -9 2 -42 -8 -15 -16 -19 -20 -13 -4 6 -13 9 -21 5 -18 -6
-18 -5 -4 36 8 22 14 29 19 21 5 -7 15 -10 24 -7z m156 -36 c0 -11 -4 -15 -11
-11 -6 3 -15 1 -20 -7 -6 -10 -11 -6 -18 14 -15 38 -14 47 4 41 9 -4 15 0 15
7 1 22 30 -22 30 -44z m2660 13 c7 -26 7 -31 -5 -26 -8 3 -15 1 -15 -4 0 -22
-19 -8 -29 21 -14 40 -14 39 3 33 8 -3 17 0 21 6 9 15 14 9 25 -30z m-144 -4
c-9 -22 -18 -30 -32 -28 -25 5 -26 6 -19 34 5 19 13 25 35 25 28 0 28 -1 16
-31z m-2593 -26 c6 -23 -8 -57 -17 -41 -6 9 -11 9 -22 0 -12 -9 -14 -5 -14 24
0 31 3 35 24 33 14 0 27 -8 29 -16z m2665 -15 c3 -21 0 -26 -11 -22 -8 3 -20
0 -26 -6 -8 -8 -11 -2 -11 24 0 31 3 35 23 34 16 -1 23 -9 25 -30z m-2793 -60
c-10 -25 -20 -43 -23 -41 -2 3 4 25 13 51 10 25 20 43 23 41 2 -3 -4 -25 -13
-51z m220 3 c8 -21 12 -38 7 -38 -4 0 -16 21 -25 47 -20 55 -6 47 18 -9z
m2655 27 c5 -14 12 -38 15 -53 4 -21 1 -17 -14 13 -20 40 -26 65 -16 65 3 0
10 -11 15 -25z m-2805 -74 c-6 -34 -7 -59 -6 -171 1 -25 1 -71 1 -102 0 -32 0
-76 0 -98 0 -22 -1 -64 -1 -92 -1 -29 2 -68 6 -86 5 -21 3 -42 -5 -57 -12 -22
-10 -55 6 -133 3 -18 1 -45 -6 -61 -10 -25 -18 -29 -63 -35 -127 -16 -197 -64
-197 -134 0 -20 4 -43 9 -50 12 -19 -30 -62 -60 -62 -14 0 -48 -6 -77 -14 -52
-13 -65 -9 -38 14 20 16 50 96 43 114 -7 19 11 76 24 76 15 0 41 70 44 118 2
27 15 59 34 89 23 35 31 58 31 92 0 45 7 63 43 114 11 15 23 57 27 94 5 37 14
69 20 71 20 7 42 65 44 118 2 38 9 61 23 77 31 34 35 44 43 113 5 36 14 72 21
80 11 14 14 12 27 -11 9 -18 12 -40 7 -64z m111 47 c8 -16 13 -36 10 -43 -8
-22 14 -87 40 -118 18 -21 24 -41 24 -73 0 -44 18 -93 47 -126 8 -9 18 -46 23
-83 6 -48 16 -75 36 -102 19 -24 28 -50 30 -77 2 -61 2 -59 35 -110 28 -42 34
-63 38 -132 1 -12 14 -41 31 -65 20 -29 30 -57 30 -82 0 -44 20 -96 43 -116
21 -17 22 -32 2 -25 -9 4 -61 14 -118 23 -101 17 -102 17 -105 46 -2 17 -12
39 -22 50 -10 11 -22 32 -25 48 -9 34 -44 62 -105 84 -39 14 -48 22 -58 55
-14 45 -15 75 -3 82 17 11 18 71 3 110 -12 31 -13 45 -4 70 16 42 15 111 0
136 -10 15 -10 26 0 53 15 42 16 124 1 133 -7 4 -8 20 -4 43 14 83 17 133 6
144 -14 14 -14 42 1 83 13 37 21 36 44 -8z m2494 23 c-5 -11 -15 -32 -20 -47
-6 -15 -13 -25 -15 -22 -7 7 27 88 37 88 5 0 4 -9 -2 -19z m55 -71 c-3 -25 -6
-65 -5 -90 1 -25 1 -66 1 -92 -1 -27 -1 -68 -1 -93 0 -25 0 -66 1 -92 0 -27 0
-68 0 -93 -1 -25 -1 -67 0 -95 0 -27 0 -70 -1 -95 -1 -25 1 -62 5 -82 4 -21 5
-48 2 -60 -6 -22 -10 -23 -90 -20 -98 4 -162 -10 -177 -39 -9 -15 -6 -28 11
-58 l22 -39 -44 -66 c-44 -67 -44 -67 -134 -82 l-40 -7 22 24 c28 31 43 71 43
117 0 24 11 52 30 81 17 24 31 51 31 60 1 9 3 33 4 53 1 21 15 56 34 84 29 44
36 66 33 104 -2 22 18 80 28 80 15 0 39 66 44 120 3 32 13 62 24 74 30 33 34
43 42 113 5 42 15 73 28 86 23 25 41 80 40 119 0 15 8 40 17 55 l18 27 9 -25
c5 -13 7 -44 3 -69z m126 -6 c5 -37 17 -79 27 -92 35 -50 42 -68 42 -114 0
-34 6 -54 24 -75 28 -34 37 -59 40 -117 2 -29 13 -59 34 -91 22 -34 32 -60 32
-87 0 -34 12 -65 57 -142 7 -11 13 -39 13 -62 0 -28 9 -54 31 -87 21 -32 31
-62 34 -96 4 -49 25 -104 45 -116 26 -16 5 -21 -42 -9 -29 7 -64 15 -78 18
-42 9 -85 73 -85 126 0 54 -9 70 -39 70 -27 0 -46 -18 -46 -42 0 -31 -29 -66
-81 -98 -44 -27 -49 -28 -57 -12 -20 38 -22 86 -6 129 15 38 15 51 4 98 -11
44 -11 62 0 99 10 37 10 55 0 92 -11 37 -11 56 -1 95 10 39 10 59 0 98 -9 38
-10 58 0 96 9 38 9 58 0 96 -10 38 -10 59 1 102 10 42 10 62 1 87 -14 42 -14
72 1 105 18 39 37 12 49 -71z m-2754 -11 c-2 -16 -4 -3 -4 27 0 30 2 43 4 28
2 -16 2 -40 0 -55z m2673 40 c0 -16 -5 -35 -10 -43 -7 -11 -10 -4 -10 28 0 23
5 42 10 42 6 0 10 -12 10 -27z m-2792 -41 c9 9 12 9 12 -2 -1 -20 -28 -78 -29
-62 -1 6 -10 12 -22 12 -16 0 -19 4 -14 18 4 9 10 26 13 36 5 17 6 17 17 3 9
-12 14 -14 23 -5z m292 -39 c0 -7 -7 -13 -15 -13 -8 0 -15 -6 -15 -12 0 -8 -7
-5 -15 6 -17 22 -20 60 -5 51 6 -3 13 1 17 11 5 14 8 13 19 -7 7 -13 13 -30
14 -36z m2373 34 c4 3 7 -3 7 -13 0 -22 -29 -67 -30 -46 0 6 -7 12 -15 12 -18
0 -19 14 -4 41 8 15 14 18 23 10 7 -6 16 -8 19 -4z m257 2 c0 22 18 10 29 -19
9 -27 8 -30 -10 -30 -10 0 -19 -6 -20 -12 -1 -16 -28 42 -29 61 0 11 3 11 15
1 10 -9 15 -9 15 -1z m-2780 -64 c0 -25 -4 -30 -25 -30 -21 0 -25 5 -25 30 0
25 4 30 25 30 21 0 25 -5 25 -30z m2665 -1 c0 -22 -5 -29 -20 -29 -24 0 -35
13 -35 42 0 18 5 21 28 19 22 -3 27 -8 27 -32z m-2855 -53 c-6 -22 -16 -43
-22 -47 -6 -4 -9 -3 -6 2 3 5 11 29 18 53 6 23 14 41 16 38 3 -3 0 -23 -6 -46z
m2670 22 c-4 -16 -13 -39 -19 -53 -10 -23 -11 -22 -5 10 6 34 21 70 29 70 2 0
0 -12 -5 -27z m354 -53 c3 -14 -3 -7 -14 15 -11 22 -19 47 -19 55 1 17 23 -32
33 -70z m-2665 0 c0 -8 -7 -1 -14 15 -8 17 -14 37 -14 45 0 8 7 2 14 -15 8
-16 14 -37 14 -45z m-192 -37 c-2 -16 -4 -3 -4 27 0 30 2 43 4 28 2 -16 2 -40
0 -55z m2673 29 c0 -15 -5 -34 -10 -42 -7 -11 -10 -2 -10 33 0 30 4 46 10 42
6 -3 10 -18 10 -33z m-192 -38 c15 9 15 7 1 -33 -9 -25 -14 -29 -25 -20 -7 6
-18 8 -25 4 -8 -5 -9 0 -4 16 3 13 9 32 12 42 4 17 6 17 17 1 7 -9 18 -14 24
-10z m418 -23 c6 -26 4 -32 -6 -26 -7 4 -16 2 -21 -6 -6 -10 -11 -6 -18 14
-15 38 -14 47 4 41 10 -4 15 0 15 12 0 28 19 3 26 -35z m-3083 25 c15 5 15 2
6 -25 -11 -32 -29 -51 -29 -31 0 7 -7 10 -15 6 -18 -7 -20 16 -4 46 8 14 13
17 18 9 4 -6 15 -9 24 -5z m422 -35 c5 -17 4 -21 -4 -16 -7 4 -18 2 -25 -4
-11 -9 -16 -5 -25 20 -14 41 -14 42 4 36 8 -4 17 -1 21 5 8 12 17 -1 29 -41z
m-228 0 c10 9 13 5 13 -22 0 -29 -4 -34 -25 -35 -22 -2 -25 2 -25 34 0 28 3
33 12 24 8 -8 15 -9 25 -1z m2678 -26 c0 -22 -5 -29 -23 -30 -28 -2 -36 9 -28
39 4 16 12 22 28 21 18 -1 23 -8 23 -30z m-2905 -19 c0 -2 -9 -23 -20 -47 -11
-24 -20 -38 -20 -30 0 22 23 81 32 81 4 0 8 -2 8 -4z m465 -33 c9 -20 14 -41
11 -47 -3 -11 -15 13 -30 62 -12 36 2 25 19 -15z m2180 -17 c-9 -21 -19 -35
-22 -32 -3 3 2 24 13 47 22 51 31 37 9 -15z m485 14 c7 -22 11 -43 8 -46 -3
-3 -13 15 -21 40 -9 26 -12 46 -8 46 4 0 14 -18 21 -40z m-2913 -67 c-2 -16
-4 -3 -4 27 0 30 2 43 4 28 2 -16 2 -40 0 -55z m2673 16 c0 -21 -4 -39 -10
-39 -5 0 -10 21 -10 46 0 27 4 43 10 39 6 -3 10 -24 10 -46z m-2920 -24 c13 8
13 5 -1 -34 -9 -25 -14 -29 -25 -20 -7 6 -18 8 -24 4 -13 -8 -13 8 2 39 8 20
14 23 24 15 7 -6 18 -8 24 -4z m548 -10 c16 -35 15 -46 -4 -38 -9 3 -20 0 -24
-8 -7 -10 -12 -6 -19 14 -15 38 -14 47 4 41 8 -4 15 -1 15 5 0 20 17 12 28
-14z m2092 14 c0 -6 7 -9 15 -5 18 6 19 -3 5 -39 -8 -22 -13 -25 -25 -15 -8 6
-19 9 -25 5 -13 -8 -13 -5 1 34 11 30 29 43 29 20z m575 -32 c6 -22 4 -26 -9
-21 -11 4 -16 1 -16 -12 0 -26 -18 -5 -29 33 -8 27 -7 30 10 26 12 -3 19 0 19
8 0 21 18 -3 25 -34z m-2958 -6 c10 9 13 5 13 -22 0 -29 -4 -34 -25 -35 -22
-2 -25 2 -25 34 0 28 3 33 12 24 8 -8 15 -9 25 -1z m2662 -3 c6 11 10 10 15
-3 13 -36 7 -54 -19 -51 -34 4 -39 10 -31 43 6 21 9 24 17 12 7 -11 11 -12 18
-1z m-2970 -79 c-14 -41 -35 -67 -24 -29 14 47 26 73 30 68 3 -3 0 -20 -6 -39z
m629 -49 c0 -8 -8 3 -19 25 -10 22 -18 47 -18 55 1 19 38 -60 37 -80z m2032
46 c-6 -20 -15 -38 -20 -41 -5 -3 -2 15 7 40 8 25 17 44 20 41 3 -2 0 -21 -7
-40z m616 9 c7 -19 14 -40 14 -47 -1 -15 -24 26 -34 60 -11 35 3 26 20 -13z
m-2979 -72 c-2 -16 -4 -5 -4 22 0 28 2 40 4 28 2 -13 2 -35 0 -50z m2673 22
c0 -19 -4 -37 -10 -40 -6 -4 -10 12 -10 40 0 28 4 44 10 40 6 -3 10 -21 10
-40z m-2980 -51 c0 -20 -26 -48 -34 -35 -4 6 -12 9 -17 6 -10 -7 -12 10 -3 41
5 19 9 20 30 10 13 -6 24 -16 24 -22z m680 -15 c0 -25 -38 -31 -50 -9 -14 26
-12 40 5 40 8 0 15 6 15 13 1 18 30 -24 30 -44z m1974 1 c-7 -33 -11 -35 -27
-22 -8 7 -17 8 -22 4 -4 -4 -5 4 -2 18 4 14 7 30 7 37 0 8 6 8 25 0 21 -10 24
-17 19 -37z m686 10 c7 -25 6 -31 -4 -27 -8 3 -18 1 -24 -5 -8 -8 -14 -4 -22
16 -14 37 -13 46 4 40 8 -3 17 0 21 6 9 15 14 9 25 -30z m-3019 -9 c6 9 9 0 9
-31 0 -27 -4 -40 -8 -32 -5 7 -16 10 -25 6 -14 -5 -17 0 -17 31 0 33 2 36 16
24 13 -10 17 -10 25 2z m2663 -5 c15 6 17 2 14 -21 -2 -21 -9 -29 -26 -30 -29
-2 -36 9 -27 43 4 17 9 22 14 14 4 -7 15 -10 25 -6z m-3049 -100 c-23 -54 -28
-39 -8 20 9 27 19 42 20 34 2 -9 -3 -33 -12 -54z m746 43 c14 -27 29 -79 23
-79 -4 0 -44 86 -44 96 0 11 10 2 21 -17z m1920 -35 c-11 -27 -20 -41 -20 -31
-1 22 27 92 34 85 3 -3 -3 -27 -14 -54z m768 -34 c0 -8 -8 1 -19 20 -11 19
-19 44 -19 55 1 23 37 -50 38 -75z m-3062 -17 c-2 -16 -4 -5 -4 22 0 28 2 40
4 28 2 -13 2 -35 0 -50z m2672 5 c1 -16 -3 -28 -9 -28 -5 0 -10 21 -9 48 0 35
3 42 9 27 5 -11 9 -32 9 -47z m-2229 -60 c0 -11 -5 -15 -15 -12 -9 4 -15 0
-15 -7 -1 -22 -30 22 -30 44 0 10 5 15 10 12 6 -3 13 1 17 11 5 14 8 13 19 -7
7 -13 13 -32 14 -41z m2656 27 c18 -45 18 -48 -6 -40 -13 4 -20 2 -20 -7 -1
-7 -7 -2 -15 12 -8 14 -14 34 -14 45 0 11 3 14 6 8 7 -18 23 -16 23 2 0 25 10
17 26 -20z m-3506 14 c0 -6 7 -9 15 -5 18 6 19 -3 4 -41 -7 -20 -12 -24 -18
-14 -5 8 -14 10 -20 7 -12 -8 -14 7 -5 42 6 22 24 31 24 11z m2679 -5 c13 8
15 -22 3 -41 -9 -14 -52 -6 -52 9 0 5 5 19 11 30 8 15 13 17 19 8 4 -7 13 -9
19 -6z m-2284 -24 c3 -5 1 -10 -4 -10 -6 0 -11 5 -11 10 0 6 2 10 4 10 3 0 8
-4 11 -10z m35 -10 c0 -5 -2 -10 -4 -10 -3 0 -8 5 -11 10 -3 6 -1 10 4 10 6 0
11 -4 11 -10z m2670 -22 l-1 -33 -13 25 c-14 25 -13 40 5 40 5 0 9 -15 9 -32z
m-101 11 c28 -6 53 -14 56 -19 3 -5 -4 -24 -16 -44 -24 -41 -20 -62 23 -123
l30 -41 -27 -46 c-22 -38 -26 -55 -23 -98 2 -29 8 -62 13 -72 8 -18 4 -19
-101 -12 -158 10 -176 15 -196 56 -20 39 -23 114 -8 156 6 15 23 43 39 63 38
49 42 74 19 117 -23 44 -16 55 44 65 66 10 93 10 147 -2z m-2504 -36 c89 -31
110 -86 48 -127 -103 -68 -348 -49 -399 30 -56 85 191 153 351 97z m-524 -34
c-11 -24 -20 -38 -20 -31 -1 18 28 86 34 80 3 -3 -3 -25 -14 -49z m889 0 c16
-58 5 -59 -14 -3 -19 56 -19 57 -6 49 5 -3 14 -24 20 -46z m1771 -11 c-15 -31
-20 -35 -16 -16 8 42 27 84 32 71 2 -6 -5 -31 -16 -55z m895 2 c16 -55 0 -41
-20 17 -11 31 -12 43 -4 35 7 -7 18 -30 24 -52z m-454 -21 c-4 -24 -7 -28 -13
-16 -5 8 -6 22 -3 31 11 27 21 17 16 -15z m234 -19 c8 -55 16 -69 69 -129 58
-65 68 -88 63 -142 -2 -26 -8 -35 -24 -37 -18 -3 -21 1 -16 23 7 37 -15 107
-45 141 l-25 29 20 -35 c51 -89 48 -164 -6 -172 l-29 -4 4 65 c2 40 -2 88 -11
121 l-15 55 7 -50 c10 -72 9 -172 -3 -184 -5 -5 -28 -11 -50 -13 l-40 -3 -3
43 c-2 24 3 66 12 94 8 28 11 47 7 42 -17 -18 -31 -79 -31 -130 0 -53 0 -54
-30 -54 -29 0 -33 6 -42 60 -6 43 16 93 67 152 30 34 52 64 50 66 -2 3 5 16
15 30 11 13 20 33 20 44 0 29 32 18 36 -12z m-3351 -24 c19 8 19 0 -1 -38 -11
-22 -18 -27 -24 -18 -4 7 -13 9 -19 6 -14 -9 -14 3 0 44 10 26 14 29 21 17 5
-9 15 -14 23 -11z m965 -44 c0 -7 -5 -10 -10 -7 -6 4 -17 2 -24 -4 -11 -9 -16
-5 -25 20 -14 40 -14 39 4 33 9 -4 18 1 22 12 6 16 9 14 19 -11 7 -17 13 -36
14 -43z m1698 42 c8 4 8 -3 1 -26 -5 -18 -9 -35 -9 -37 0 -2 -7 2 -15 9 -8 6
-19 9 -25 5 -13 -8 -13 4 1 44 10 28 13 30 24 15 6 -9 17 -14 23 -10z m956 -6
c9 -37 7 -48 -9 -42 -8 4 -15 1 -15 -6 0 -20 -18 -1 -29 31 -9 28 -9 30 9 24
12 -4 20 -2 20 4 0 20 18 11 24 -11z m-3404 -40 c0 -5 -7 -3 -15 6 -8 8 -15
18 -15 22 0 3 7 1 15 -6 8 -7 15 -17 15 -22z m454 16 c9 -25 -21 -64 -62 -81
-20 -9 -75 -17 -122 -19 l-85 -3 65 10 c36 5 86 20 112 32 26 13 44 19 41 13
-4 -6 -2 -7 3 -3 5 5 9 12 9 15 2 19 17 52 25 52 4 0 11 -7 14 -16z m2553 -64
c-64 -71 -86 -130 -68 -181 13 -39 7 -49 -17 -26 -26 26 -24 133 3 168 20 27
113 98 128 99 5 0 -16 -27 -46 -60z m-2977 39 c0 -5 5 -7 10 -4 6 3 10 1 10
-4 0 -13 -3 -13 -24 -5 -18 7 -22 24 -6 24 6 0 10 -5 10 -11z m340 1 c0 -5 -4
-10 -10 -10 -5 0 -10 5 -10 10 0 6 5 10 10 10 6 0 10 -4 10 -10z m-34 -27
c-10 -10 -19 5 -10 18 6 11 8 11 12 0 2 -7 1 -15 -2 -18z m-344 -23 c4 -33 86
-77 165 -90 57 -9 57 -9 -27 -7 -139 3 -225 61 -174 118 20 22 31 16 36 -21z
m88 30 c0 -5 -4 -10 -10 -10 -5 0 -10 5 -10 10 0 6 5 10 10 10 6 0 10 -4 10
-10z m230 -7 c0 -15 -107 -27 -170 -18 -27 4 -50 12 -50 18 0 8 33 12 110 12
76 0 110 -4 110 -12z m-574 -37 c-21 -49 -28 -46 -9 4 9 22 18 38 20 36 2 -2
-3 -20 -11 -40z m1020 -24 c-6 -6 -26 43 -25 61 0 7 7 -3 15 -22 8 -18 13 -36
10 -39z m1644 23 c-16 -47 -23 -40 -8 8 6 20 13 35 16 33 2 -3 -1 -21 -8 -41z
m1015 8 c8 -20 13 -38 10 -41 -4 -4 -35 59 -35 73 0 15 12 1 25 -32z m-2971 3
c-6 -17 -34 -30 -34 -16 0 5 8 14 18 19 22 13 22 13 16 -3z m-404 -6 c0 -5 -4
-10 -9 -10 -6 0 -13 5 -16 10 -3 6 1 10 9 10 9 0 16 -4 16 -10z m588 -16 c78
-14 92 -20 86 -33 -4 -9 -9 -33 -12 -53 -4 -35 -8 -39 -46 -49 -51 -14 -202
-39 -235 -39 l-24 0 22 24 c18 19 22 34 20 75 -3 62 26 103 70 96 14 -2 68
-12 119 -21z m-697 -58 c5 -6 9 -21 9 -33 0 -13 7 -35 17 -49 l16 -26 -39 7
c-21 3 -66 13 -100 22 -58 14 -60 16 -60 46 0 18 -3 41 -7 53 -6 18 -1 21 65
35 l73 14 8 -30 c5 -16 13 -34 18 -39z m228 38 c9 -7 -12 -23 -22 -17 -7 4
-21 9 -31 10 -11 2 -25 8 -31 13 -7 5 -15 7 -18 3 -4 -3 -7 1 -7 9 0 15 5 15
53 0 28 -9 54 -17 56 -18z m2384 -36 c3 -35 8 -71 12 -82 7 -15 4 -17 -11 -13
-10 3 -38 11 -60 17 -38 9 -42 13 -46 48 -3 20 -8 44 -12 53 -5 12 3 18 41 26
26 6 53 11 59 12 7 0 13 -24 17 -61z m800 46 c33 -6 37 -9 30 -28 -4 -11 -7
-36 -7 -54 0 -28 -4 -33 -30 -40 -31 -8 -31 -8 -37 38 -4 26 -11 56 -18 68
-15 28 -14 34 7 28 9 -3 34 -8 55 -12z m-2963 -2 c0 -14 -80 -32 -145 -32 -51
0 -65 3 -65 15 0 12 8 14 38 10 30 -5 72 -1 165 14 4 0 7 -2 7 -7z m-702 -42
c-14 -22 -24 -19 -15 5 4 8 11 15 17 15 6 0 6 -7 -2 -20z m342 -32 c0 -5 -4
-8 -10 -8 -5 0 -10 5 -10 12 0 6 -3 8 -6 5 -6 -5 -44 29 -44 39 0 7 69 -42 70
-48z m798 16 c-4 -3 -12 5 -18 18 -12 22 -12 22 6 6 10 -10 15 -20 12 -24z
m1522 15 c-7 -11 -14 -18 -17 -15 -3 3 0 12 7 21 18 21 23 19 10 -6z m80 -26
c0 -39 -16 -25 -18 15 -2 27 0 33 8 22 5 -8 10 -25 10 -37z m1057 32 c9 -24
-1 -27 -15 -5 -8 13 -8 20 -2 20 6 0 13 -7 17 -15z m-3725 -13 c3 -9 2 -26 -2
-37 -6 -16 -8 -12 -12 18 -4 38 6 52 14 19z m644 -39 c-37 -31 -87 -44 -191
-48 -49 -2 -72 -1 -50 1 134 14 224 45 247 87 11 21 12 21 16 2 3 -12 -6 -28
-22 -42z m335 10 c-9 -16 -10 -16 -11 -1 0 9 3 25 7 35 7 16 8 17 11 1 2 -10
-1 -25 -7 -35z m2671 12 c-2 -19 -6 -35 -8 -35 -2 0 -4 16 -4 35 0 19 4 35 8
35 4 0 6 -16 4 -35z m-3035 8 c-9 -9 -20 -13 -24 -9 -4 4 -1 11 7 16 25 16 35
11 17 -7z m-647 -13 c0 -13 -5 -18 -15 -14 -8 4 -15 12 -15 20 0 8 7 14 15 14
8 0 15 -9 15 -20z m607 -2 c-3 -8 -6 -5 -6 6 -1 11 2 17 5 13 3 -3 4 -12 1
-19z m463 8 c0 -14 -29 -31 -38 -22 -2 3 -2 12 1 21 8 19 37 20 37 1z m1600
-6 c0 -22 -7 -25 -29 -11 -16 10 -6 31 15 31 8 0 14 -9 14 -20z m1058 3 c-5
-25 -28 -28 -28 -4 0 12 6 21 16 21 9 0 14 -7 12 -17z m-3138 -7 c0 -9 -21
-18 -63 -25 -81 -14 -97 -14 -97 2 0 8 -2 9 -8 1 -9 -15 -72 -6 -72 10 0 7 7
13 15 13 8 0 15 -3 15 -7 0 -7 181 8 188 15 10 10 22 5 22 -9z m-255 -6 c3 -5
2 -10 -4 -10 -5 0 -13 5 -16 10 -3 6 -2 10 4 10 5 0 13 -4 16 -10z m-280 -55
c273 -89 722 -82 976 14 30 12 55 21 57 21 2 0 -11 -20 -27 -44 -67 -97 -178
-170 -320 -208 -109 -30 -333 -30 -444 0 -107 29 -152 51 -222 107 -53 43
-125 123 -125 141 0 3 8 3 18 -1 9 -4 49 -18 87 -30z m233 16 c12 -11 22 -22
22 -26 0 -4 -6 -2 -13 4 -8 6 -16 8 -20 5 -3 -3 -10 4 -17 15 -13 26 -2 26 28
2z m386 -6 c-15 -13 -31 -22 -34 -19 -6 7 38 44 53 44 5 0 -3 -11 -19 -25z
m1992 5 c188 -71 502 -98 757 -65 118 16 280 57 304 77 31 25 23 -5 -13 -52
-112 -147 -277 -214 -524 -214 -212 1 -362 46 -473 145 -39 34 -116 129 -105
129 2 0 26 -9 54 -20z m-2326 -31 c0 -5 -4 -9 -10 -9 -5 0 -10 7 -10 16 0 8 5
12 10 9 6 -3 10 -10 10 -16z m286 -6 c-10 -10 -19 5 -10 18 6 11 8 11 12 0 2
-7 1 -15 -2 -18z m-246 -4 c0 -4 -7 -6 -15 -3 -8 4 -15 10 -15 15 0 4 7 6 15
3 8 -4 15 -10 15 -15z m220 6 c0 -12 -18 -15 -99 -15 -132 0 -143 18 -14 23
54 1 101 4 106 5 4 1 7 -5 7 -13z m1838 -91 c30 -19 28 -30 -8 -49 -60 -31
-48 -98 18 -109 48 -7 51 -13 87 -199 25 -132 26 -139 9 -158 -25 -28 -107
-49 -190 -49 -80 0 -202 32 -211 56 -7 18 35 269 52 310 10 24 23 35 56 45 36
11 45 19 47 41 3 22 9 27 34 30 57 6 44 27 -18 30 -89 5 -103 49 -22 68 42 10
116 2 146 -16z m-756 -461 c3 -46 5 -49 52 -72 64 -32 171 -33 239 -3 47 21
47 21 47 71 l0 51 49 0 48 0 -5 -49 c-4 -43 -1 -53 21 -75 36 -36 98 -50 217
-51 111 0 173 13 212 44 20 17 23 27 21 75 -3 55 -2 56 26 56 15 0 36 -9 45
-19 17 -19 17 -20 -21 -24 l-38 -4 42 -1 c37 -2 47 -8 87 -54 25 -29 46 -56
46 -60 0 -5 -37 -9 -82 -10 l-83 -2 99 -5 c100 -6 137 -22 77 -34 -53 -11
-1891 -8 -1891 2 0 22 44 31 152 33 l113 2 -110 3 -109 4 84 84 85 85 287 0
287 0 3 -47z m1156 -237 l3 -33 -103 -9 -103 -9 103 -3 102 -3 0 -58 0 -58
-77 -7 c-138 -11 -143 -10 -143 25 0 17 -5 39 -10 50 -10 19 -29 19 -753 19
-408 0 -747 -4 -754 -8 -6 -4 -13 -25 -15 -47 l-3 -40 -110 0 -110 0 -3 78 -3
77 218 2 218 3 -217 2 -218 3 0 24 c0 12 2 25 5 27 2 3 447 3 987 1 l983 -3 3
-33z m-1703 -136 c-20 -22 -31 -20 -22 5 4 8 14 15 23 15 16 0 16 -2 -1 -20z
m1455 4 c0 -8 -4 -12 -10 -9 -5 3 -10 10 -10 16 0 5 5 9 10 9 6 0 10 -7 10
-16z"/>
<path d="M5082 3918 c-7 -7 -12 -24 -12 -39 0 -53 89 -62 103 -10 2 10 1 25
-4 32 -6 10 -11 6 -18 -15 -8 -20 -17 -27 -34 -24 -18 2 -22 8 -19 36 2 36 1
37 -16 20z"/>
<path d="M4152 3903 c37 -2 100 -2 140 0 40 1 10 3 -67 3 -77 0 -110 -1 -73
-3z"/>
<path d="M4473 3853 c70 -2 184 -2 255 0 70 1 12 3 -128 3 -140 0 -198 -2
-127 -3z"/>
<path d="M5301 3926 c2 -2 72 -5 154 -8 85 -3 131 -2 105 3 -45 8 -267 12
-259 5z"/>
<path d="M5793 3853 c48 -2 126 -2 175 0 48 1 8 3 -88 3 -96 0 -136 -2 -87 -3z"/>
<path d="M5603 3843 c15 -2 39 -2 55 0 15 2 2 4 -28 4 -30 0 -43 -2 -27 -4z"/>
<path d="M5035 3135 c0 -203 3 -329 6 -280 4 50 7 176 7 280 0 105 -3 231 -7
280 -3 50 -6 -76 -6 -280z"/>
<path d="M5195 2928 c-3 -150 -5 -322 -3 -383 2 -60 7 60 12 268 4 208 6 380
3 383 -2 3 -8 -118 -12 -268z"/>
<path d="M5134 2255 c0 -148 2 -211 3 -138 2 72 2 194 0 270 -1 76 -3 17 -3
-132z"/>
<path d="M5042 1800 c0 -107 3 -220 7 -250 4 -30 5 51 3 180 -2 129 -5 242 -6
250 -2 8 -4 -73 -4 -180z"/>
<path d="M6205 2440 c3 -6 48 -10 100 -10 52 0 97 4 100 10 4 6 -32 10 -100
10 -68 0 -104 -4 -100 -10z"/>
<path d="M6230 2396 c12 -12 147 -13 159 -1 7 7 -22 10 -79 10 -52 0 -85 -4
-80 -9z"/>
<path d="M6179 2227 c16 -16 166 -22 211 -9 27 8 17 9 -50 5 -47 -3 -105 0
-129 5 -33 8 -41 8 -32 -1z"/>
<path d="M3664 2415 c-15 -23 -15 -27 2 -52 10 -16 17 -35 16 -44 -2 -12 12
-19 53 -28 64 -14 76 -10 50 19 -16 18 -16 20 -2 20 10 0 17 5 17 10 0 6 -7
10 -15 10 -8 0 -15 -5 -15 -11 0 -8 -6 -7 -17 2 -14 11 -13 8 2 -11 11 -14 25
-28 30 -32 14 -11 1 -10 -51 3 l-45 12 17 24 c11 18 13 28 5 36 -16 16 -14 27
5 27 10 0 12 -5 7 -12 -4 -7 5 -5 20 5 15 9 27 14 28 10 0 -5 5 1 10 12 8 17
9 16 6 -7 -3 -17 2 -33 11 -40 13 -11 15 -9 8 22 -9 48 -20 56 -47 31 -12 -11
-25 -18 -28 -15 -3 3 3 12 13 20 13 9 15 14 6 14 -7 0 -29 -16 -47 -36 -33
-36 -33 -36 -33 -11 0 14 8 31 18 36 9 6 11 11 5 11 -7 0 -20 -11 -29 -25z"/>
<path d="M3564 2404 c-18 -14 -18 -14 6 -3 31 14 36 19 24 19 -6 0 -19 -7 -30
-16z"/>
<path d="M3850 2410 c0 -5 4 -10 9 -10 6 0 13 5 16 10 3 6 -1 10 -9 10 -9 0
-16 -4 -16 -10z"/>
<path d="M3888 2389 c-24 -13 -23 -25 2 -32 11 -3 17 -1 14 4 -3 6 0 16 6 24
14 17 3 19 -22 4z"/>
<path d="M3578 2373 c-2 -12 6 -22 27 -31 24 -10 27 -15 15 -22 -9 -6 -10 -10
-3 -10 22 0 23 19 2 34 -19 13 -20 18 -9 31 10 13 9 15 -8 15 -12 0 -22 -8
-24 -17z"/>
<path d="M3541 2363 c0 -12 6 -29 15 -37 21 -22 31 -20 12 2 -9 9 -18 26 -21
37 -4 19 -5 18 -6 -2z"/>
<path d="M3855 2330 c4 -6 11 -8 16 -5 14 9 11 15 -7 15 -8 0 -12 -5 -9 -10z"/>
<path d="M3898 2323 c7 -3 16 -2 19 1 4 3 -2 6 -13 5 -11 0 -14 -3 -6 -6z"/>
<path d="M3520 2203 c0 -15 28 -43 43 -43 7 0 4 5 -5 11 -10 5 -22 17 -27 27
-6 9 -11 12 -11 5z"/>
<path d="M3325 1999 c3 -4 33 -16 68 -27 83 -27 108 -32 101 -21 -3 5 -14 9
-24 9 -11 0 -48 11 -84 24 -36 13 -63 20 -61 15z"/>
<path d="M3465 1902 c11 -12 116 -44 122 -38 3 2 -19 12 -49 21 -29 9 -60 19
-68 22 -10 4 -12 2 -5 -5z"/>
<path d="M6004 1995 c25 -19 123 -47 144 -42 12 3 10 5 -5 6 -12 0 -53 12 -90
25 -37 14 -59 19 -49 11z"/>
<path d="M6090 1925 c0 -10 104 -55 125 -55 11 1 -3 9 -30 19 -28 10 -61 23
-73 30 -12 6 -22 9 -22 6z"/>
<path d="M5511 1739 c13 -8 88 -14 78 -5 -2 2 -24 6 -48 9 -29 4 -40 2 -30 -4z"/>
<path d="M5700 1740 l-25 -8 27 -1 c15 -1 30 4 33 9 7 11 0 11 -35 0z"/>
<path d="M5583 1646 c23 -18 26 -166 2 -166 -8 0 -15 -4 -15 -10 0 -5 20 -10
45 -10 44 0 60 12 30 24 -11 4 -15 23 -15 81 0 60 3 75 15 75 8 0 15 5 15 10
0 6 -21 10 -47 10 -42 -1 -46 -2 -30 -14z"/>
<path d="M5456 1457 c3 -10 9 -15 12 -12 3 3 0 11 -7 18 -10 9 -11 8 -5 -6z"/>
<path d="M4448 1473 c23 -2 59 -2 80 0 20 2 1 4 -43 4 -44 0 -61 -2 -37 -4z"/>
<path d="M5388 1233 c57 -2 147 -2 200 0 53 1 7 3 -103 3 -110 0 -154 -2 -97
-3z"/>
<path d="M5013 1193 c26 -2 67 -2 90 0 23 2 2 3 -48 3 -49 0 -68 -1 -42 -3z"/>
</g>
</svg>
