<?xml version="1.0" standalone="no"?>
<!DOCTYPE svg PUBLIC "-//W3C//DTD SVG 20010904//EN"
 "http://www.w3.org/TR/2001/REC-SVG-20010904/DTD/svg10.dtd">
<svg version="1.0" xmlns="http://www.w3.org/2000/svg"
 width="1024.000000pt" height="559.000000pt" viewBox="0 0 1024.000000 559.000000"
 preserveAspectRatio="xMidYMid meet">
<metadata>
Created by potrace 1.16, written by Peter Selinger 2001-2019
</metadata>
<g transform="translate(0.000000,559.000000) scale(0.100000,-0.100000)"
fill="#000000" stroke="none">
<path d="M5635 4160 c-66 -12 -123 -17 -166 -13 -108 9 -248 -24 -262 -62 -4
-8 -17 -15 -30 -15 -13 0 -79 -11 -148 -24 -68 -14 -198 -38 -289 -56 -91 -17
-185 -35 -210 -40 -25 -5 -97 -19 -161 -29 -64 -11 -163 -30 -220 -41 -57 -12
-119 -20 -139 -19 -172 8 -285 -9 -334 -50 -25 -22 -58 -32 -169 -54 -249 -50
-270 -66 -282 -216 -8 -99 1 -268 17 -319 7 -24 7 -37 -2 -47 -10 -11 -11
-143 -5 -572 4 -307 11 -589 15 -626 5 -44 16 -80 31 -101 12 -18 121 -104
242 -192 121 -87 353 -257 514 -377 161 -120 314 -227 338 -238 79 -35 136
-29 355 39 94 29 130 37 144 29 47 -24 237 25 286 73 17 16 43 33 58 36 15 3
104 30 197 60 94 29 222 69 285 88 63 19 198 60 300 91 102 30 222 67 268 81
87 27 99 28 148 18 19 -3 63 3 115 17 67 18 91 29 117 57 26 27 52 40 125 61
157 47 201 76 217 148 5 21 12 319 16 663 6 487 4 630 -5 648 -10 18 -10 26 0
38 14 17 19 375 6 435 -17 83 -64 107 -582 298 -148 54 -331 122 -405 151
-142 54 -231 81 -265 79 -11 -1 -65 -9 -120 -19z m244 -50 c25 -9 170 -64 321
-122 151 -58 316 -119 365 -137 165 -59 329 -126 349 -142 19 -15 12 -18 -117
-48 l-136 -33 -33 25 c-50 37 -98 59 -345 158 -228 91 -663 272 -691 288 -10
6 8 12 59 21 41 6 79 13 84 15 18 6 96 -7 144 -25z m-379 -4 c19 -7 134 -56
256 -109 122 -52 303 -128 404 -168 134 -54 177 -75 160 -79 -13 -3 -28 -13
-34 -23 -21 -34 53 -63 94 -37 12 8 13 13 2 30 -17 27 -9 26 89 -16 104 -46
145 -72 160 -104 14 -29 32 -480 20 -493 -10 -10 -148 -47 -177 -47 -21 0 -21
5 -26 229 -4 162 -10 237 -19 257 -15 30 -123 91 -259 146 -36 14 -146 62
-245 106 -150 67 -580 250 -650 277 -24 9 -18 11 66 30 81 17 115 17 159 1z
m24 -167 c143 -61 356 -153 471 -204 116 -50 245 -107 288 -125 42 -19 77 -36
77 -40 0 -3 -57 -18 -127 -33 -122 -26 -250 -54 -448 -98 -89 -20 -263 -61
-502 -119 -125 -31 -163 -36 -163 -22 0 13 -97 67 -215 120 -580 262 -851 390
-843 397 5 5 169 38 338 69 97 17 847 162 859 165 1 1 121 -49 265 -110z
m-1354 -213 c248 -121 557 -263 643 -297 92 -36 251 -120 279 -146 15 -15 32
-40 37 -57 11 -37 22 -468 12 -484 -9 -15 -166 -54 -200 -50 l-26 3 -2 190
c-3 237 -9 287 -35 320 -13 16 -115 74 -272 152 -403 202 -868 423 -890 423
-29 0 -6 20 30 26 16 2 61 11 99 18 39 8 75 14 80 15 6 1 116 -50 245 -113z
m-302 -42 c87 -42 200 -97 252 -121 93 -44 712 -352 718 -358 6 -5 -341 -87
-387 -91 -41 -4 -68 7 -365 157 -472 238 -750 380 -760 389 -10 10 29 21 169
51 107 23 208 46 213 48 2 0 74 -33 160 -75z m2500 29 c2 -9 -7 -13 -27 -13
-30 0 -46 11 -34 24 11 11 56 2 61 -11z m592 -64 c22 -41 10 -51 -100 -79 -58
-15 -124 -31 -147 -35 -43 -7 -43 -7 -43 24 0 17 1 34 2 39 2 5 213 61 270 71
4 0 12 -8 18 -20z m-3061 -315 c256 -129 471 -240 479 -248 8 -8 17 -35 20
-61 l5 -47 -564 284 c-510 256 -564 285 -567 309 -2 14 2 37 7 52 l10 26 73
-41 c40 -23 282 -146 537 -274z m3079 76 c-3 -130 -8 -174 -19 -185 -13 -13
-229 -75 -263 -75 -14 0 -16 20 -16 178 l0 177 143 36 c78 20 146 37 151 38 5
0 7 -74 4 -169z m-567 92 c4 -18 4 -34 0 -36 -9 -5 -110 -32 -231 -60 -58 -14
-154 -37 -215 -51 -60 -14 -148 -35 -195 -46 -47 -11 -134 -31 -195 -46 -60
-14 -176 -42 -256 -63 l-147 -37 -5 31 c-3 17 -8 38 -12 47 -6 17 -18 14 320
93 55 13 150 36 210 50 61 14 236 53 390 86 154 33 285 62 290 64 23 10 40 -1
46 -32z m-3086 -160 c1 -84 0 -152 -4 -152 -3 0 -15 7 -26 15 -14 12 -21 33
-27 88 -9 92 -10 222 -2 230 4 4 18 -1 31 -11 24 -18 25 -22 28 -170z m965
-507 l0 -173 -352 192 c-194 106 -406 221 -470 257 l-117 64 -1 153 0 153 470
-237 470 -236 0 -173z m2130 423 l0 -183 -143 -37 c-207 -55 -202 -54 -203
-24 -1 16 4 27 15 31 44 14 60 126 23 174 -18 24 -25 26 -83 24 -67 -1 -480
-94 -536 -120 -59 -28 -79 -139 -32 -189 21 -22 31 -25 87 -23 57 2 96 -11 80
-26 -5 -5 -189 -52 -390 -99 l-56 -13 -7 151 c-4 83 -5 166 -3 185 l3 34 175
43 c96 23 256 61 355 84 99 23 295 71 435 105 140 35 261 64 268 64 9 1 12
-42 12 -181z m-338 -45 c24 -21 25 -114 2 -137 -13 -14 -19 -14 -42 -2 -30 16
-64 12 -207 -25 -44 -11 -109 -27 -144 -36 -53 -13 -64 -20 -73 -43 -8 -23
-17 -29 -55 -35 -28 -4 -49 -3 -56 4 -16 16 -12 110 5 127 7 8 110 38 228 68
118 30 209 54 202 55 -16 1 -328 -74 -395 -96 -53 -16 -66 -37 -68 -101 l-1
-37 -9 32 c-6 21 -5 43 3 70 l13 38 165 41 c126 32 338 80 409 93 3 1 13 -6
23 -16z m-1211 -78 c4 -22 5 -42 3 -44 -3 -3 -332 -86 -420 -106 -18 -4 -22 1
-27 33 -3 20 -9 47 -12 58 -6 20 -3 22 40 22 49 1 192 29 310 61 93 25 98 23
106 -24z m2101 -2 c3 -21 1 -227 -4 -458 -4 -231 -9 -494 -10 -584 l-3 -164
-142 -48 -142 -47 4 630 c2 346 5 632 8 634 6 7 246 71 268 73 12 1 18 -10 21
-36z m-3632 1 c25 -14 149 -82 275 -151 203 -110 387 -211 480 -263 17 -9 57
-32 90 -50 117 -64 127 -71 115 -86 -9 -9 -10 -183 -4 -640 4 -389 3 -625 -2
-623 -6 2 -95 65 -199 139 -240 171 -502 357 -626 443 l-96 66 -6 108 c-4 59
-10 318 -13 576 -6 402 -9 467 -22 467 -13 0 -14 -25 -8 -182 3 -101 9 -358
12 -573 l7 -389 -24 16 c-34 22 -38 57 -39 338 -1 135 -5 363 -9 507 -8 274
-6 323 13 323 6 0 31 -12 56 -26z m1542 -219 c1 -85 2 -167 2 -182 1 -28 1
-28 -204 -80 -113 -28 -214 -52 -225 -52 -19 -1 -20 5 -20 181 l0 182 140 32
c77 17 174 41 215 52 41 11 78 21 83 21 4 1 8 -69 9 -154z m1158 125 c15 -28
3 -60 -21 -60 -13 0 -19 7 -19 24 0 14 -4 28 -10 31 -18 11 -10 25 15 25 14 0
29 -8 35 -20z m605 -92 c9 -143 -5 -1238 -16 -1259 -8 -15 -91 -51 -153 -65
-26 -6 -27 -5 -17 14 16 29 33 879 23 1132 -8 184 -9 154 -11 -290 -3 -606
-11 -834 -29 -852 -11 -11 -12 -7 -7 22 3 19 7 338 8 707 l2 673 30 0 c17 0
53 7 80 14 86 24 82 30 90 -96z m-677 80 c11 -11 18 -58 8 -58 -1 0 -48 -11
-102 -24 -170 -41 -164 -41 -164 -14 0 13 -5 30 -10 38 -7 12 10 19 103 41
132 31 149 33 165 17z m452 -456 c0 -253 -3 -540 -7 -640 l-6 -180 -36 -10
c-20 -6 -94 -28 -166 -50 -249 -77 -572 -175 -795 -242 l-225 -66 -8 270 c-4
149 -5 350 -2 446 3 96 1 272 -4 390 -4 118 -6 220 -4 226 2 7 23 17 46 23 61
15 366 88 405 96 l33 7 -3 -64 -3 -63 -51 -18 c-51 -18 -52 -19 -58 -69 -4
-27 -4 -117 0 -199 7 -141 8 -149 30 -164 13 -8 36 -15 51 -15 21 0 34 -9 50
-34 40 -62 141 -91 218 -62 67 26 125 105 125 173 0 6 16 17 35 23 23 7 37 20
41 34 3 13 4 103 2 200 -3 173 -4 178 -27 197 -13 10 -34 19 -47 19 -23 0 -24
3 -24 63 l0 63 78 18 c42 10 131 33 197 51 66 18 128 34 138 34 16 1 17 -27
17 -457z m-2036 398 c18 0 29 -118 24 -266 l-3 -101 -45 21 -45 21 -3 178 -2
178 29 -16 c17 -8 37 -15 45 -15z m1294 -19 c2 -12 1 -29 -2 -38 -9 -22 -36 2
-36 32 0 41 32 47 38 6z m286 -107 c3 -48 9 -90 12 -95 3 -5 23 -9 45 -9 l39
0 0 -175 0 -175 -34 -14 c-29 -12 -37 -23 -50 -66 -8 -28 -24 -64 -36 -80 -25
-35 -98 -65 -137 -55 -32 7 -83 52 -83 72 0 23 -47 45 -80 38 l-30 -7 -1 149
c-1 81 -5 159 -10 173 -5 15 -7 -41 -6 -146 2 -124 -1 -170 -9 -167 -13 5 -24
118 -24 259 0 103 0 103 22 95 27 -10 86 5 111 27 14 12 17 31 15 106 l-1 91
-6 -87 c-4 -48 -11 -91 -16 -96 -12 -11 -72 -32 -91 -32 -28 0 -13 18 21 24
51 10 65 37 65 127 l0 76 53 7 c28 3 84 15 122 25 108 29 101 33 109 -65z m69
-81 c-7 -2 -19 -2 -25 0 -7 3 -2 5 12 5 14 0 19 -2 13 -5z m-890 -775 c3 -387
3 -715 0 -730 -4 -22 -17 -31 -67 -52 -34 -13 -79 -28 -100 -31 -38 -8 -38 -7
-26 16 10 18 12 155 10 609 -1 322 -5 635 -9 695 -3 61 -5 -198 -2 -576 3
-521 1 -694 -8 -722 -16 -46 -36 -50 -24 -4 9 36 7 1178 -2 1355 l-7 114 29
-6 c15 -3 60 3 98 13 39 11 77 20 86 20 14 1 16 -69 22 -701z m-260 599 c4
-40 9 -343 13 -674 l7 -601 -89 -26 c-49 -15 -100 -31 -114 -36 -71 -25 -244
-70 -250 -64 -3 3 -5 148 -5 322 0 687 -5 1023 -15 1017 -7 -4 -10 -238 -10
-671 0 -535 -3 -664 -13 -664 -7 0 -28 13 -47 29 l-35 29 -4 671 c-2 369 -1
671 2 671 2 0 21 -7 40 -15 55 -23 96 -18 302 34 105 27 195 50 201 50 7 1 14
-28 17 -72z m811 -343 c10 -25 -1 -29 -14 -5 -6 12 -7 21 -1 21 5 0 12 -7 15
-16z m-2351 -288 c25 -14 67 -40 93 -59 45 -33 48 -38 49 -81 0 -25 -2 -46 -6
-46 -12 0 -136 99 -162 130 -22 26 -38 80 -23 80 1 0 24 -11 49 -24z m3607
-77 c0 -11 -12 -33 -28 -48 -24 -25 -71 -44 -240 -97 -10 -3 -12 7 -10 37 l3
42 130 42 c72 24 133 43 138 44 4 1 7 -8 7 -20z m-3147 -240 l212 -150 6 -57
c3 -31 5 -58 4 -59 -1 -2 -58 39 -126 90 -69 50 -187 136 -262 190 l-137 98 0
50 0 50 45 -31 c25 -17 141 -98 258 -181z m2607 57 c0 -18 -6 -38 -12 -43 -7
-5 -56 -22 -108 -37 -224 -65 -847 -256 -1003 -307 -49 -16 -92 -29 -98 -29
-5 0 -9 17 -9 38 l0 39 293 87 c457 137 724 219 862 264 79 26 75 27 75 -12z
m-2239 -318 c97 -70 129 -98 129 -114 0 -25 59 -81 94 -90 18 -4 25 -14 28
-40 7 -61 -12 -52 -219 103 -131 99 -154 119 -163 151 -11 41 -13 82 -4 82 4
0 64 -42 135 -92z m729 -115 c-1 -55 -8 -61 -129 -98 -64 -20 -136 -43 -161
-51 -25 -8 -71 -17 -102 -21 l-58 -6 0 42 c0 40 1 41 33 42 17 0 111 24 207
53 199 61 210 63 210 39z"/>
<path d="M5300 4087 c3 -3 95 -43 205 -90 616 -263 796 -340 853 -367 34 -16
62 -28 62 -25 0 10 -134 70 -595 268 -442 189 -539 228 -525 214z"/>
<path d="M5485 4076 c-23 -17 -13 -46 17 -47 55 -3 75 9 56 33 -19 23 -51 30
-73 14z m55 -16 c12 -8 12 -10 -3 -16 -20 -7 -47 1 -47 16 0 12 30 13 50 0z"/>
<path d="M6456 3555 c4 -11 10 -123 14 -250 l6 -230 2 220 c1 175 -2 226 -14
250 -8 17 -11 21 -8 10z"/>
<path d="M6532 3328 c-7 -7 -12 -24 -12 -38 0 -32 17 -50 45 -50 38 0 73 58
45 75 -5 3 -10 -3 -10 -13 0 -25 -25 -46 -45 -38 -17 6 -20 41 -5 51 12 7 13
25 2 25 -4 0 -13 -5 -20 -12z"/>
<path d="M3775 3788 c19 -14 537 -260 559 -266 25 -6 -162 88 -349 176 -219
103 -240 111 -210 90z"/>
<path d="M3948 3789 c-24 -13 -23 -36 1 -49 29 -15 67 -12 82 6 11 14 10 19
-10 35 -26 21 -47 23 -73 8z m56 -15 c28 -11 17 -24 -19 -24 -33 0 -43 8 -28
23 8 9 27 9 47 1z"/>
<path d="M4450 3464 c0 -3 89 -49 198 -101 108 -53 209 -104 225 -115 53 -38
58 -60 64 -309 3 -126 9 -229 12 -229 3 0 4 105 1 232 -6 237 -9 255 -49 302
-21 24 -451 235 -451 220z"/>
<path d="M4763 3403 c-7 -2 -13 -15 -13 -29 0 -26 27 -38 76 -32 32 3 43 30
24 53 -12 14 -61 19 -87 8z m85 -30 c2 -9 -9 -13 -37 -13 -30 0 -41 4 -41 16
0 11 9 14 37 12 20 -2 38 -9 41 -15z"/>
<path d="M5006 2964 c-18 -47 1 -84 44 -84 14 0 31 5 38 12 13 13 17 78 4 78
-4 0 -8 -12 -7 -26 0 -30 -24 -50 -49 -41 -19 7 -21 48 -4 65 9 9 8 12 -4 12
-9 0 -19 -7 -22 -16z"/>
<path d="M5968 3193 c7 -3 16 -2 19 1 4 3 -2 6 -13 5 -11 0 -14 -3 -6 -6z"/>
<path d="M6016 3165 c-19 -20 -20 -26 -3 -49 26 -36 84 4 61 42 -15 23 -38 26
-58 7z m44 -19 c0 -18 -16 -29 -30 -21 -13 8 -1 35 16 35 8 0 14 -6 14 -14z"/>
<path d="M5545 3047 c-10 -8 -16 -23 -13 -38 2 -19 9 -24 33 -24 25 0 31 4 33
27 4 34 -26 54 -53 35z m40 -27 c0 -8 -8 -16 -17 -18 -13 -2 -18 3 -18 18 0
15 5 20 18 18 9 -2 17 -10 17 -18z"/>
<path d="M6532 2868 c-7 -7 -12 -24 -12 -38 0 -34 17 -50 52 -50 32 0 53 30
44 66 -8 31 -25 32 -19 1 5 -27 -19 -52 -42 -43 -18 6 -20 47 -3 64 7 7 8 12
2 12 -5 0 -15 -5 -22 -12z"/>
<path d="M6519 1884 c-12 -32 11 -74 41 -74 27 0 52 29 48 58 -4 38 -23 37
-23 0 0 -26 -4 -33 -20 -33 -24 0 -33 38 -15 61 10 11 9 14 -4 14 -9 0 -21
-12 -27 -26z"/>
<path d="M5800 2670 c-26 -26 -30 -80 -8 -107 7 -8 8 -44 3 -98 l-7 -85 30 0
c16 0 44 5 61 11 l33 12 -7 82 c-5 56 -4 85 4 89 16 10 13 68 -5 94 -20 29
-76 30 -104 2z m94 -36 c4 -15 1 -37 -7 -53 -11 -21 -12 -43 -6 -91 5 -34 6
-66 3 -71 -3 -5 -17 -9 -32 -8 -24 0 -25 1 -7 8 17 7 20 18 22 87 4 151 12
189 27 128z"/>
<path d="M5826 2278 c-20 -28 -4 -58 29 -58 31 0 50 32 35 60 -14 26 -45 25
-64 -2z m49 -18 c0 -8 -8 -16 -17 -18 -13 -2 -18 3 -18 18 0 15 5 20 18 18 9
-2 17 -10 17 -18z"/>
<path d="M5017 2499 c-21 -13 -23 -62 -1 -83 22 -23 60 -20 78 6 20 28 20 39
1 64 -14 18 -14 18 -9 -2 3 -12 1 -31 -5 -43 -24 -44 -73 -10 -52 36 14 30 12
35 -12 22z"/>
<path d="M5028 1479 c-21 -12 -24 -69 -6 -87 7 -7 24 -12 38 -12 33 0 50 17
50 51 0 40 -18 45 -22 7 -2 -28 -7 -33 -28 -33 -20 0 -26 6 -28 28 -2 18 2 29
12 33 9 3 16 10 16 15 0 12 -11 11 -32 -2z"/>
</g>
</svg>
