<?xml version="1.0" standalone="no"?>
<!DOCTYPE svg PUBLIC "-//W3C//DTD SVG 20010904//EN"
 "http://www.w3.org/TR/2001/REC-SVG-20010904/DTD/svg10.dtd">
<svg version="1.0" xmlns="http://www.w3.org/2000/svg"
 width="1024.000000pt" height="559.000000pt" viewBox="0 0 1024.000000 559.000000"
 preserveAspectRatio="xMidYMid meet">
<metadata>
Created by potrace 1.16, written by Peter Selinger 2001-2019
</metadata>
<g transform="translate(0.000000,559.000000) scale(0.100000,-0.100000)"
fill="#000000" stroke="none">
<path d="M5375 4648 c-16 -6 -59 -24 -95 -40 -147 -68 -189 -72 -354 -33 -192
45 -264 34 -511 -81 -230 -108 -285 -150 -285 -219 0 -62 76 -154 232 -281
l128 -105 -16 -24 c-11 -18 -14 -33 -8 -52 9 -34 5 -105 -7 -117 -13 -14 -11
-63 4 -86 11 -19 -6 -38 -200 -231 -239 -236 -314 -329 -384 -475 -57 -116
-85 -220 -99 -354 -27 -257 -42 -343 -99 -585 -58 -248 -66 -310 -51 -389 21
-115 48 -144 245 -267 39 -24 124 -95 190 -159 131 -125 181 -158 295 -189
112 -31 190 -36 300 -17 99 17 509 106 716 156 214 52 470 98 820 150 174 26
290 74 349 143 101 118 100 311 -5 672 -68 230 -106 380 -145 563 -60 289
-122 429 -260 594 l-64 75 61 6 c60 5 62 5 133 -43 93 -63 162 -140 213 -238
43 -82 67 -101 103 -81 36 19 39 42 15 102 -13 31 -38 79 -55 106 -39 61 -163
179 -225 216 -45 26 -46 28 -46 78 0 47 3 54 31 69 39 23 73 98 66 145 -15 90
-109 184 -224 222 -63 21 -180 27 -233 12 -19 -6 -32 -2 -54 16 -22 18 -36 22
-57 18 -16 -4 -29 -3 -29 1 0 3 44 52 98 108 164 171 242 276 242 328 0 66
-143 140 -352 183 -42 8 -79 15 -81 15 -3 0 -26 17 -52 39 -25 21 -63 43 -84
50 -47 13 -125 13 -166 -1z m174 -42 c15 -8 34 -22 41 -31 23 -28 81 -52 165
-69 44 -9 110 -26 148 -37 99 -31 207 -109 149 -109 -10 0 -27 9 -38 21 -20
23 -73 52 -114 63 -14 4 4 -8 39 -26 78 -40 94 -64 29 -44 -24 8 -85 32 -136
55 -154 68 -310 88 -366 46 -10 -8 -27 -44 -37 -81 -10 -37 -20 -69 -23 -71
-2 -2 -26 10 -52 27 -63 39 -162 70 -228 70 -68 0 -165 -24 -227 -56 -28 -14
-52 -24 -54 -22 -1 2 -10 27 -20 57 -28 84 -43 94 -134 88 -100 -7 -185 -35
-349 -118 -75 -38 -145 -69 -156 -69 -18 0 -17 3 9 30 27 28 79 56 288 154
181 85 268 96 425 57 181 -45 237 -39 407 41 66 31 91 37 143 38 36 0 75 -6
91 -14z m-789 -154 c0 -20 -25 -29 -68 -26 -40 2 -42 2 -12 -4 44 -9 35 -14
-65 -42 -96 -27 -151 -53 -165 -79 -29 -55 4 -153 98 -293 69 -103 106 -178
88 -178 -32 0 -72 23 -104 61 -19 22 -80 77 -136 123 -113 93 -186 168 -210
214 l-16 30 33 7 c17 4 82 34 142 66 119 63 163 81 265 110 68 19 150 25 150
11z m931 -7 c32 -8 104 -36 161 -62 66 -30 122 -48 156 -51 28 -2 52 -7 52
-11 0 -19 -254 -306 -363 -411 -36 -35 -107 -75 -107 -60 0 36 101 181 163
233 l22 18 -21 -10 c-55 -26 -184 -202 -184 -249 0 -12 -54 -32 -86 -32 -21 0
-22 3 -13 28 5 15 32 65 59 112 89 151 131 243 137 304 7 70 -6 98 -56 119
-20 9 -58 25 -85 36 -41 18 -47 23 -36 36 17 20 123 20 201 0z m-875 -122 c-3
-8 -36 -28 -72 -45 -49 -23 -86 -32 -140 -36 -48 -3 -74 -1 -74 6 0 16 59 49
123 67 32 9 57 19 54 21 -9 9 -138 -38 -165 -61 -42 -35 -82 -32 -62 5 11 20
55 40 170 75 47 14 96 35 110 45 l25 19 18 -41 c10 -23 15 -48 13 -55z m767
27 c20 -6 42 -20 47 -30 17 -31 -7 -34 -41 -6 -17 14 -36 26 -42 26 -7 0 -3
-7 8 -15 52 -37 52 -40 3 -43 -58 -4 -129 14 -123 31 2 6 9 31 15 54 l10 41
43 -23 c23 -12 59 -28 80 -35z m-337 13 c27 -9 73 -31 101 -49 98 -63 187 -85
259 -65 21 6 40 9 42 7 11 -12 -27 -98 -101 -229 -47 -82 -90 -166 -97 -187
-12 -36 -17 -40 -62 -49 -27 -6 -76 -11 -109 -11 l-61 0 7 59 c4 32 19 109 34
170 15 61 23 107 19 103 -10 -10 -64 -228 -73 -294 l-6 -48 -78 0 c-51 0 -82
4 -88 13 -5 6 -17 38 -27 70 -10 32 -20 56 -23 53 -3 -3 2 -26 11 -52 25 -75
25 -75 -51 -72 l-67 3 -22 62 c-22 60 -92 178 -101 170 -2 -3 9 -25 25 -51 32
-49 78 -163 70 -171 -3 -3 -40 0 -82 6 l-77 12 -24 54 c-13 29 -50 93 -81 141
-63 97 -119 200 -113 207 3 2 24 -1 48 -7 84 -21 215 15 351 99 36 22 85 47
110 56 62 21 202 22 266 0z m504 -487 c0 -81 -288 -197 -637 -256 -339 -58
-620 -41 -631 39 -4 26 -13 26 103 -3 154 -40 581 -4 789 65 32 11 65 18 73
15 8 -3 12 -2 8 3 -3 5 12 15 32 22 56 18 184 84 218 113 38 32 45 32 45 2z
m106 -24 c6 -18 8 -47 6 -63 -6 -39 -62 -99 -92 -99 l-23 0 20 23 c29 31 40
56 47 107 6 40 5 43 -7 27 -14 -16 -15 -15 -19 13 -4 29 -3 31 26 28 25 -2 33
-9 42 -36z m315 -14 c159 -73 220 -233 115 -302 -33 -21 -35 -20 -45 7 -7 17
-3 27 15 44 50 46 20 129 -66 182 -69 42 -148 63 -225 59 -61 -3 -86 5 -47 15
12 3 10 5 -7 6 -40 2 -13 15 42 21 80 8 157 -3 218 -32z m-1608 -13 c153 -67
532 -101 782 -69 63 8 22 -10 -85 -37 -82 -21 -116 -24 -245 -22 -288 3 -515
62 -515 133 0 25 -4 25 63 -5z m1217 -38 c0 -12 -7 -30 -15 -40 -13 -18 -14
-17 -31 8 -18 27 -17 28 5 46 27 22 41 17 41 -14z m355 -20 c60 -32 87 -53
109 -89 14 -22 15 -31 5 -50 -21 -40 -32 -38 -84 11 -61 58 -129 105 -198 137
l-52 25 85 -4 c68 -4 96 -10 135 -30z m-146 -37 c142 -74 251 -196 251 -282 0
-36 -1 -37 -25 -26 -14 6 -25 17 -25 25 0 25 -41 94 -82 139 -22 24 -76 64
-121 90 -97 57 -92 52 -84 60 6 7 99 -42 157 -83 l35 -24 -32 28 c-17 16 -61
44 -97 63 -36 19 -66 38 -66 43 0 12 9 9 89 -33z m-1347 -21 c24 -6 84 -17
133 -24 l90 -13 -114 -1 c-135 -1 -228 19 -241 53 -12 33 -3 36 45 16 25 -11
64 -24 87 -31z m1029 27 c-26 -28 -78 -49 -86 -36 -6 9 71 57 94 59 10 1 7 -7
-8 -23z m43 -25 c-5 -3 -18 -17 -29 -31 l-20 -25 28 24 c15 14 27 20 27 14 0
-22 -62 -63 -128 -84 -54 -17 -101 -22 -244 -26 -97 -3 -185 -2 -195 2 -24 11
88 33 232 45 186 17 264 39 310 90 12 14 21 17 23 10 3 -7 1 -15 -4 -19z m156
9 c0 -32 -47 -70 -86 -70 -44 0 -44 16 1 24 21 4 43 18 57 36 28 35 28 35 28
10z m-300 -24 c0 -16 -31 -26 -75 -25 -28 0 -27 1 15 19 57 23 60 23 60 6z
m459 -96 c36 -20 65 -42 64 -48 -2 -7 3 -12 11 -12 8 0 16 -7 20 -15 8 -23
-11 -18 -98 24 -90 44 -151 98 -140 125 6 15 10 14 42 -10 19 -15 65 -44 101
-64z m-59 -73 c25 -20 104 -66 175 -103 163 -84 236 -136 312 -219 61 -65 123
-174 123 -214 0 -15 -6 -21 -24 -21 -17 0 -27 9 -37 33 -21 52 -78 139 -123
185 -59 63 -143 120 -291 198 -107 57 -143 82 -207 146 -43 42 -78 83 -78 90
0 7 23 -12 50 -43 27 -31 62 -64 77 -74 15 -10 0 9 -34 43 -35 34 -63 70 -63
79 1 13 11 7 38 -23 20 -23 57 -57 82 -77z m-198 35 c31 -37 116 -130 189
-207 257 -272 324 -390 385 -675 8 -36 24 -110 35 -165 25 -121 43 -188 109
-415 69 -236 90 -343 90 -456 0 -121 -23 -186 -86 -244 -79 -73 -147 -92 -539
-150 -77 -11 -160 -25 -185 -30 -25 -5 -85 -16 -135 -25 -49 -10 -216 -46
-369 -81 -154 -35 -287 -64 -295 -64 -25 1 53 33 177 75 62 21 111 39 109 41
-6 6 -184 -50 -302 -96 -246 -95 -399 -118 -526 -81 -74 23 -137 115 -165 243
-13 61 -14 120 -9 358 5 231 4 306 -9 395 -44 308 -50 394 -37 535 22 248 62
358 263 712 52 91 111 202 132 245 l38 79 109 0 c72 -1 109 -5 109 -12 0 -46
-75 -206 -133 -283 -48 -65 -58 -55 -22 24 14 32 24 60 22 62 -4 4 -51 -98
-61 -134 -9 -28 4 -35 29 -15 61 51 150 208 176 309 l12 52 63 7 c76 8 255
-12 266 -29 4 -7 8 -22 8 -34 0 -24 49 -187 55 -181 2 1 -8 46 -21 98 -35 142
-42 131 82 128 l106 -3 23 -62 c60 -158 157 -314 255 -407 87 -83 101 -75 50
32 -36 77 -48 82 -14 6 14 -31 23 -58 21 -61 -8 -7 -121 123 -165 190 -51 79
-129 240 -138 284 -6 29 -6 29 60 41 36 7 71 15 79 17 8 4 19 -7 29 -27 9 -18
56 -79 106 -135 108 -122 161 -191 203 -264 17 -30 28 -45 24 -34 -15 50 -107
184 -199 292 -98 115 -141 172 -134 178 7 6 63 34 68 34 3 0 31 -30 62 -67z
m-1184 3 c10 -9 -101 -174 -222 -330 -73 -93 -151 -195 -173 -225 -48 -64
-115 -188 -133 -243 -17 -54 -1 -65 36 -25 23 26 24 28 3 10 -38 -33 -41 -28
-18 31 38 95 100 186 334 482 43 55 96 128 118 163 39 61 59 83 36 40 -26 -50
-162 -294 -169 -303 -21 -28 -141 -278 -160 -334 -11 -35 -30 -109 -41 -165
-36 -190 -41 -211 -75 -325 -35 -113 -72 -212 -157 -413 -25 -60 -44 -108 -41
-108 19 0 178 387 214 520 13 47 27 89 32 95 4 5 8 -29 8 -76 0 -46 11 -163
25 -259 34 -242 39 -348 26 -545 -16 -260 8 -409 85 -509 19 -25 32 -46 28
-46 -3 0 -34 13 -68 30 -72 34 -189 136 -215 189 -30 57 -73 208 -86 301 -10
63 -13 74 -14 42 -1 -55 24 -177 53 -259 13 -34 22 -63 21 -63 -2 0 -22 16
-45 35 -22 19 -80 58 -128 86 -113 67 -157 110 -182 176 -33 88 -26 148 49
463 16 69 37 165 45 214 9 49 18 91 21 94 3 3 5 -33 6 -79 0 -46 4 -106 8
-134 4 -27 5 43 3 156 -7 314 19 475 103 644 68 136 128 210 367 447 120 120
218 223 218 229 0 8 13 9 42 5 23 -4 44 -9 46 -11z m1558 -90 c19 -14 19 -14
-1 -14 -11 0 -29 6 -39 14 -20 15 -20 15 0 15 11 0 29 -7 40 -15z m-156 -66
c3 -4 10 -8 15 -9 26 -6 34 -13 28 -23 -3 -6 -1 -7 5 -3 16 10 95 -35 83 -47
-21 -21 -86 13 -151 80 -53 54 -58 61 -25 38 22 -16 42 -32 45 -36z"/>
<path d="M5345 4541 c-27 -10 -72 -29 -100 -41 -27 -12 -84 -26 -125 -30 -74
-7 -74 -7 -18 -9 58 -1 122 16 238 64 95 40 98 50 5 16z"/>
<path d="M5563 4540 c14 -11 28 -20 32 -20 4 0 -4 9 -18 20 -14 11 -28 20 -32
20 -4 0 4 -9 18 -20z"/>
<path d="M4618 4413 c7 -3 16 -2 19 1 4 3 -2 6 -13 5 -11 0 -14 -3 -6 -6z"/>
<path d="M4370 4303 c-41 -25 -97 -55 -125 -64 -27 -10 -41 -18 -29 -19 12 0
45 13 75 28 74 39 175 102 163 102 -5 0 -43 -21 -84 -47z"/>
<path d="M5635 4413 c48 -10 95 -28 173 -65 46 -22 86 -38 88 -35 10 9 -197
97 -237 101 -24 2 -35 2 -24 -1z"/>
<path d="M4981 4320 c-24 -11 -79 -45 -121 -74 -94 -66 -136 -85 -215 -95 -52
-7 -54 -9 -19 -10 64 -2 138 26 222 83 101 69 155 96 211 106 l46 8 -40 1
c-22 0 -60 -8 -84 -19z"/>
<path d="M5270 4287 c0 -10 125 -84 162 -96 21 -7 48 -10 60 -8 18 3 16 5 -8
6 -30 1 -98 32 -176 80 -21 13 -38 21 -38 18z"/>
<path d="M5610 3803 c-58 -30 -94 -52 -80 -48 37 11 177 83 185 95 3 5 5 9 3
9 -2 -1 -50 -26 -108 -56z"/>
<path d="M5178 3653 c7 -3 16 -2 19 1 4 3 -2 6 -13 5 -11 0 -14 -3 -6 -6z"/>
<path d="M5118 3643 c6 -2 18 -2 25 0 6 3 1 5 -13 5 -14 0 -19 -2 -12 -5z"/>
<path d="M5063 3633 c9 -2 23 -2 30 0 6 3 -1 5 -18 5 -16 0 -22 -2 -12 -5z"/>
<path d="M4623 3613 c9 -2 25 -2 35 0 9 3 1 5 -18 5 -19 0 -27 -2 -17 -5z"/>
<path d="M4718 3603 c17 -2 47 -2 65 0 17 2 3 4 -33 4 -36 0 -50 -2 -32 -4z"/>
<path d="M5805 3734 c-9 -15 -12 -23 -6 -20 11 7 35 46 28 46 -3 0 -12 -12
-22 -26z"/>
<path d="M5945 3855 c22 -8 159 -12 140 -4 -11 4 -49 8 -85 8 -36 -1 -60 -2
-55 -4z"/>
<path d="M6298 3654 c3 -21 -2 -45 -12 -62 l-17 -27 20 24 c21 23 29 85 13 95
-4 2 -6 -11 -4 -30z"/>
<path d="M4540 3800 c19 -11 40 -19 45 -19 6 0 -6 8 -25 19 -19 11 -39 19 -45
19 -5 0 6 -8 25 -19z"/>
<path d="M4615 3770 c11 -5 27 -9 35 -9 9 0 8 4 -5 9 -11 5 -27 9 -35 9 -9 0
-8 -4 5 -9z"/>
<path d="M4678 3753 c7 -3 16 -2 19 1 4 3 -2 6 -13 5 -11 0 -14 -3 -6 -6z"/>
<path d="M5043 3713 c32 -2 81 -2 110 0 29 2 3 3 -58 3 -60 0 -84 -1 -52 -3z"/>
<path d="M5443 3613 c9 -2 25 -2 35 0 9 3 1 5 -18 5 -19 0 -27 -2 -17 -5z"/>
<path d="M5293 3603 c20 -2 54 -2 75 0 20 2 3 4 -38 4 -41 0 -58 -2 -37 -4z"/>
<path d="M5905 3650 c10 -11 20 -20 23 -20 3 0 -3 9 -13 20 -10 11 -20 20 -23
20 -3 0 3 -9 13 -20z"/>
<path d="M6007 3579 c7 -7 15 -10 18 -7 3 3 -2 9 -12 12 -14 6 -15 5 -6 -5z"/>
<path d="M6365 3246 c22 -19 43 -35 47 -36 9 0 91 -107 111 -145 9 -16 16 -25
17 -19 1 35 -109 165 -180 213 -34 22 -34 22 5 -13z"/>
<path d="M4849 3047 c-129 -48 -209 -150 -232 -293 -11 -71 -13 -75 -34 -69
-64 16 -110 16 -146 2 l-37 -16 0 -68 c1 -69 16 -189 44 -343 8 -47 22 -123
31 -170 21 -115 43 -312 50 -445 21 -363 89 -451 350 -448 113 1 216 17 520
78 94 19 285 55 425 80 465 84 524 105 587 213 26 44 28 53 27 162 -1 79 -9
154 -27 240 -14 69 -33 181 -42 250 -37 282 -74 509 -96 595 -13 49 -35 75
-63 75 -22 0 -32 -5 -134 -63 -62 -36 -212 -100 -263 -112 -24 -6 -27 -3 -34
31 -17 95 -92 189 -185 233 -48 23 -67 26 -155 26 -89 -1 -106 -4 -151 -27
l-51 -27 -22 23 c-12 13 -45 36 -74 52 -46 25 -64 29 -152 31 -66 2 -112 -1
-136 -10z m261 -39 c25 -10 57 -31 72 -45 l28 -26 -41 -44 c-54 -59 -81 -123
-87 -206 l-5 -68 -71 6 c-92 8 -236 25 -258 31 -11 3 -19 16 -19 32 l-2 27 -4
-28 c-8 -51 -28 -23 -31 42 -2 49 2 73 21 114 75 164 240 233 397 165z m473
-57 c79 -36 145 -120 166 -210 10 -45 16 -40 -83 -66 -92 -24 -244 -44 -386
-51 l-130 -7 0 45 c0 131 88 255 212 300 64 23 157 18 221 -11z m-878 -71 c-3
-5 -11 -10 -16 -10 -6 0 -7 5 -4 10 3 6 11 10 16 10 6 0 7 -4 4 -10z m470 -44
c-10 -14 -21 -26 -26 -26 -5 0 0 13 12 30 27 36 38 33 14 -4z m-494 1 c-13
-13 -26 -3 -16 12 3 6 11 8 17 5 6 -4 6 -10 -1 -17z m1554 -10 c19 -46 61
-285 90 -517 23 -180 31 -232 70 -440 22 -119 19 -215 -9 -276 -33 -71 -112
-121 -226 -145 -90 -18 -208 -41 -373 -70 -92 -16 -290 -54 -440 -83 -497 -99
-622 -98 -714 7 -50 57 -54 81 -88 462 -8 94 -29 249 -46 345 -46 266 -69 428
-69 498 l0 62 41 0 c23 0 96 -11 163 -24 212 -43 336 -56 536 -56 301 0 508
35 741 125 63 25 142 61 175 81 124 77 129 78 149 31z m-1569 -34 c-10 -10
-19 5 -10 18 6 11 8 11 12 0 2 -7 1 -15 -2 -18z m482 -5 c-2 -6 -10 -14 -16
-16 -7 -2 -10 2 -6 12 7 18 28 22 22 4z m-492 -35 c-10 -10 -19 5 -10 18 6 11
8 11 12 0 2 -7 1 -15 -2 -18z m484 0 c0 -14 -19 -38 -25 -32 -8 8 5 39 16 39
5 0 9 -3 9 -7z m-480 -28 c0 -8 -4 -15 -10 -15 -5 0 -10 7 -10 15 0 8 5 15 10
15 6 0 10 -7 10 -15z m466 -31 c-3 -9 -6 -20 -6 -25 0 -5 -4 -9 -10 -9 -11 0
-14 33 -3 43 12 13 25 7 19 -9z m-466 -10 c0 -8 -5 -12 -10 -9 -6 4 -8 11 -5
16 9 14 15 11 15 -7z m464 -50 c4 -10 1 -14 -6 -12 -15 5 -23 28 -10 28 5 0
13 -7 16 -16z"/>
<path d="M4903 2984 c-23 -9 -61 -33 -85 -56 l-43 -40 43 35 c48 39 126 67
186 67 22 0 66 -11 96 -25 43 -20 50 -21 31 -6 -53 41 -151 52 -228 25z"/>
<path d="M5372 2931 c-31 -11 -71 -35 -94 -57 -39 -38 -88 -123 -88 -154 0 -8
11 12 25 44 39 96 98 144 210 172 29 7 39 13 25 13 -14 0 -49 -8 -78 -18z"/>
<path d="M5577 2909 c7 -7 15 -10 18 -7 3 3 -2 9 -12 12 -14 6 -15 5 -6 -5z"/>
<path d="M5712 2730 c0 -14 2 -19 5 -12 2 6 2 18 0 25 -3 6 -5 1 -5 -13z"/>
<path d="M6090 2744 c-54 -39 -187 -104 -275 -135 -44 -15 -75 -28 -68 -28 50
-3 329 125 370 171 22 24 15 22 -27 -8z"/>
<path d="M6237 2650 c3 -30 7 -57 9 -59 7 -8 2 64 -6 89 -6 16 -7 6 -3 -30z"/>
<path d="M4580 2600 c8 -5 24 -10 34 -10 26 0 18 6 -19 14 -22 5 -26 4 -15 -4z"/>
<path d="M4486 2505 c5 -87 50 -381 53 -339 0 12 -3 43 -8 70 -5 27 -16 105
-25 174 -23 182 -25 195 -20 95z"/>
<path d="M4676 2576 c56 -19 219 -46 263 -45 34 2 34 2 6 6 -31 4 -241 39
-285 48 -14 3 -6 -1 16 -9z"/>
<path d="M5685 2570 c-13 -5 -14 -9 -5 -9 8 0 24 4 35 9 13 5 14 9 5 9 -8 0
-24 -4 -35 -9z"/>
<path d="M6257 2505 c3 -44 9 -100 14 -125 5 -31 6 -21 2 35 -3 44 -9 100 -14
125 -5 31 -6 21 -2 -35z"/>
<path d="M6155 2175 c-10 -71 -60 -218 -99 -293 -20 -37 -61 -101 -92 -142
-31 -41 -49 -68 -39 -60 67 55 161 216 203 345 28 84 50 195 39 195 -3 0 -8
-20 -12 -45z"/>
<path d="M4541 2124 c0 -11 3 -14 6 -6 3 7 2 16 -1 19 -3 4 -6 -2 -5 -13z"/>
<path d="M4865 1931 c120 -124 237 -204 358 -247 70 -25 49 -9 -31 24 -97 40
-196 109 -315 220 l-92 86 80 -83z"/>
<path d="M6121 1817 c-13 -23 -38 -60 -55 -82 -21 -28 -24 -34 -8 -21 24 21
97 134 90 141 -2 2 -14 -15 -27 -38z"/>
<path d="M6353 1795 c0 -22 2 -30 4 -17 2 12 2 30 0 40 -3 9 -5 -1 -4 -23z"/>
<path d="M6351 1705 c-2 -49 -35 -108 -82 -149 -40 -36 -41 -37 -10 -20 62 35
112 126 98 181 -3 11 -5 7 -6 -12z"/>
<path d="M4611 1564 c1 -38 5 -82 9 -99 4 -16 5 13 2 65 -6 112 -13 133 -11
34z"/>
<path d="M4631 1420 c0 -8 4 -22 9 -30 12 -18 12 -2 0 25 -6 13 -9 15 -9 5z"/>
<path d="M4702 1323 c32 -39 139 -59 233 -45 59 9 57 10 -46 11 -90 1 -113 5
-152 25 -27 13 -42 17 -35 9z"/>
<path d="M5018 1293 c7 -3 16 -2 19 1 4 3 -2 6 -13 5 -11 0 -14 -3 -6 -6z"/>
<path d="M4381 2983 c-51 -98 -113 -328 -110 -412 0 -14 7 10 15 54 20 113 43
197 80 293 30 77 37 104 15 65z"/>
<path d="M6529 1635 c-5 -91 -29 -164 -67 -210 -9 -12 -3 -6 15 11 43 43 65
121 61 216 l-3 73 -6 -90z"/>
<path d="M4305 1405 c4 -171 41 -267 127 -326 29 -19 27 -16 -8 17 -74 71
-102 149 -115 319 l-7 110 3 -120z"/>
<path d="M4077 3065 c-97 -124 -206 -342 -220 -440 -4 -28 1 -18 17 32 35 109
116 267 190 371 73 102 79 122 13 37z"/>
<path d="M3725 1763 c-9 -86 0 -216 15 -241 8 -13 8 -9 3 13 -5 17 -8 92 -8
168 1 75 0 137 -1 137 -1 0 -6 -34 -9 -77z"/>
<path d="M3750 1495 c0 -5 5 -17 10 -25 5 -8 10 -10 10 -5 0 6 -5 17 -10 25
-5 8 -10 11 -10 5z"/>
<path d="M4182 1420 c-2 -111 31 -254 78 -333 31 -53 35 -46 6 11 -36 69 -68
194 -76 302 l-7 95 -1 -75z"/>
</g>
</svg>
