<?xml version="1.0" standalone="no"?>
<!DOCTYPE svg PUBLIC "-//W3C//DTD SVG 20010904//EN"
 "http://www.w3.org/TR/2001/REC-SVG-20010904/DTD/svg10.dtd">
<svg version="1.0" xmlns="http://www.w3.org/2000/svg"
 width="1024.000000pt" height="559.000000pt" viewBox="0 0 1024.000000 559.000000"
 preserveAspectRatio="xMidYMid meet">
<metadata>
Created by potrace 1.16, written by Peter Selinger 2001-2019
</metadata>
<g transform="translate(0.000000,559.000000) scale(0.100000,-0.100000)"
fill="#000000" stroke="none">
<path d="M6235 4629 c-4 -6 -18 -113 -31 -238 -12 -124 -28 -278 -35 -342
l-12 -116 -63 -31 -64 -32 0 -45 c0 -32 5 -47 18 -53 9 -5 106 -22 215 -37
l198 -29 -3 -110 -3 -111 -60 4 c-33 1 -61 4 -63 6 -1 1 5 16 15 33 17 29 17
31 -1 51 -26 28 -77 41 -166 41 -100 0 -146 -21 -144 -67 2 -32 2 -32 -40 -27
-71 8 -392 44 -494 54 -53 6 -153 17 -222 25 -134 15 -237 26 -475 49 -82 9
-227 23 -320 32 -169 17 -171 17 -230 -3 -101 -35 -542 -199 -690 -256 -77
-30 -201 -76 -275 -102 -78 -27 -143 -56 -153 -69 -16 -17 -18 -34 -15 -99 4
-89 7 -93 84 -103 28 -3 57 -10 65 -14 16 -11 26 -298 33 -1045 6 -514 10
-608 29 -623 22 -18 157 -54 181 -48 13 3 51 26 85 51 l61 45 0 163 0 164 173
98 c94 54 220 127 280 161 l107 63 0 -72 c0 -40 4 -78 8 -84 10 -16 116 -53
150 -53 14 0 50 17 80 37 l53 37 -3 452 c-2 249 1 456 5 460 7 7 288 -28 487
-62 116 -19 478 -77 686 -110 l171 -26 -2 -922 c-1 -506 1 -931 6 -943 6 -16
26 -27 80 -43 135 -41 131 -41 204 32 l65 65 0 184 1 184 132 107 c73 59 171
142 220 184 l87 76 0 -54 c0 -29 4 -58 8 -64 8 -13 133 -54 164 -54 30 0 123
99 131 139 4 18 7 205 7 416 0 210 3 558 7 773 l6 392 48 30 c94 61 99 69 99
158 0 60 -4 83 -16 92 -9 8 -104 24 -225 39 l-209 25 0 106 0 105 119 -14 119
-14 59 36 c93 56 113 79 113 127 0 46 -12 54 -93 65 -47 6 -48 7 -42 38 3 18
12 102 20 187 8 85 21 216 29 290 15 142 13 157 -27 182 -44 29 -717 82 -732
57z m260 -29 c99 -6 209 -15 245 -20 36 -5 91 -10 122 -10 31 0 59 -3 62 -8 2
-4 0 -41 -5 -82 -5 -41 -13 -137 -18 -212 -5 -76 -12 -142 -15 -146 -3 -5 -11
-65 -17 -133 -6 -68 -14 -138 -17 -155 l-7 -30 -90 12 c-131 18 -302 41 -445
60 -69 8 -127 17 -128 19 -4 3 24 280 48 495 5 47 13 114 16 150 8 80 10 82
42 76 15 -3 108 -10 207 -16z m471 -232 c-32 -283 -36 -313 -45 -422 -7 -80
-14 -113 -26 -125 -16 -15 -17 -11 -11 64 4 44 13 145 22 225 8 80 19 192 25
250 18 189 19 194 37 176 14 -14 14 -30 -2 -168z m-806 -482 c0 -15 48 -23
458 -77 239 -32 245 -32 278 -14 18 10 36 26 39 36 5 14 16 19 40 19 55 0 49
-16 -21 -55 l-66 -37 -131 17 c-73 9 -213 27 -312 40 -99 13 -222 29 -273 36
l-93 13 33 17 c40 22 48 23 48 5z m190 -82 c353 -46 424 -55 477 -61 47 -5 51
-8 55 -34 3 -16 3 -31 1 -33 -2 -2 -23 0 -46 5 -23 4 -98 15 -167 24 -69 9
-168 22 -220 30 -52 8 -149 21 -215 30 -172 24 -179 26 -183 56 -3 26 -3 26
50 18 29 -5 141 -20 248 -35z m700 -7 c0 -24 -18 -41 -97 -90 l-43 -27 0 32
c1 30 7 37 63 69 75 45 77 45 77 16z m-511 -103 l31 -6 0 -195 0 -194 -37 7
c-21 4 -39 7 -39 8 -1 0 -4 88 -6 194 -3 145 -2 192 8 192 6 0 26 -3 43 -6z
m79 -101 c1 50 6 87 12 87 6 0 10 -64 10 -173 0 -160 -1 -173 -20 -184 -10 -7
-21 -9 -23 -5 -4 8 -1 365 4 372 1 3 6 -38 9 -90 l6 -95 2 88z m-2188 67 c47
-5 155 -16 240 -25 276 -27 629 -64 900 -95 348 -40 440 -50 468 -50 31 0 28
-19 -13 -80 -31 -46 -35 -60 -35 -115 0 -52 6 -74 38 -136 45 -89 68 -104 167
-104 97 0 122 15 164 97 57 111 54 194 -8 277 l-26 34 49 -6 c27 -4 57 -7 67
-7 17 0 19 -9 19 -75 0 -84 1 -85 86 -98 36 -6 47 -3 83 23 39 28 41 33 41 80
0 47 2 50 23 46 12 -3 97 -13 190 -22 92 -10 167 -21 167 -24 0 -4 -97 -69
-215 -146 -118 -76 -308 -200 -422 -275 l-208 -136 -230 33 c-126 18 -277 40
-335 49 -58 8 -249 36 -425 61 -176 25 -378 54 -450 64 -71 10 -179 26 -240
34 -247 34 -1263 177 -1295 182 -42 8 -48 5 135 70 72 25 191 70 265 99 74 29
205 79 290 110 85 31 207 76 270 100 129 49 124 48 240 35z m1840 -72 c60 -14
68 -26 45 -62 -22 -34 -15 -73 25 -127 26 -36 30 -51 30 -103 -1 -49 -7 -74
-34 -126 -18 -36 -43 -70 -57 -77 -13 -7 -51 -13 -84 -13 -85 0 -104 13 -148
100 -49 97 -47 145 7 224 41 60 44 78 17 123 -17 26 -18 33 -6 43 36 30 122
37 205 18z m818 -290 l-3 -63 -88 -60 c-300 -206 -660 -455 -704 -487 -29 -21
-57 -38 -63 -38 -7 0 -10 28 -8 81 l3 81 40 22 c22 11 87 52 145 90 58 37 151
98 208 135 56 36 182 119 280 183 97 64 181 117 185 118 4 0 7 -28 5 -62z
m-3829 -83 c53 -9 128 -20 166 -25 379 -54 678 -96 925 -130 162 -23 401 -56
530 -75 392 -57 710 -102 1013 -144 159 -23 292 -43 296 -45 8 -5 15 -142 7
-154 -5 -8 -137 9 -491 63 -250 38 -341 53 -535 85 -186 31 -349 55 -815 120
-296 41 -470 68 -790 120 -99 16 -229 37 -290 45 -60 9 -111 18 -113 20 -8 8
-15 135 -7 135 4 0 51 -7 104 -15z m3687 -163 c-7 -58 -26 -1265 -21 -1412 l3
-106 -38 -42 c-21 -23 -41 -42 -44 -42 -8 0 -8 282 1 1001 l6 584 41 32 c23
18 45 32 50 32 5 1 6 -20 2 -47z m-3531 -30 l50 -7 6 -315 c4 -173 9 -547 13
-832 l6 -516 -48 14 c-26 8 -59 19 -74 25 l-28 11 0 414 c0 227 -4 527 -10
666 -5 139 -12 322 -15 405 l-5 153 27 -6 c16 -3 51 -8 78 -12z m3408 -784
c-2 -431 -6 -788 -8 -794 -2 -8 -22 -7 -69 4 l-66 16 0 66 0 67 60 55 60 54
-5 145 -5 144 -55 48 -55 49 0 169 c0 182 -4 165 68 319 47 101 62 151 61 208
-2 102 -9 116 -54 122 -27 4 -46 1 -57 -9 -16 -12 -18 -12 -18 1 0 11 123 110
146 118 1 0 -1 -352 -3 -782z m-3250 757 l37 -7 0 -322 c0 -176 5 -526 11
-775 10 -437 10 -455 -8 -468 -17 -13 -18 -9 -24 69 l-5 83 -2 -87 c-2 -81 -4
-88 -29 -107 -14 -12 -28 -20 -30 -17 -2 2 -8 262 -13 577 -5 316 -12 686 -15
823 l-5 248 22 -5 c13 -3 40 -9 61 -12z m325 -51 c67 -10 121 -20 120 -23 -29
-59 -116 -190 -125 -186 -7 2 -66 47 -132 100 -103 82 -121 100 -121 124 l0
28 68 -12 c37 -7 122 -21 190 -31z m184 -29 c8 -9 -121 -220 -135 -220 -22 0
-13 29 43 127 50 88 73 112 92 93z m93 -16 c7 -10 -10 -42 -230 -419 -72 -124
-166 -289 -210 -368 l-80 -143 -6 63 c-4 37 -2 71 4 83 5 11 94 164 197 340
103 176 204 350 224 388 33 58 41 67 66 67 16 0 32 -5 35 -11z m-387 -120 c75
-61 138 -116 140 -122 1 -7 -7 -27 -18 -45 -15 -24 -24 -31 -33 -24 -7 5 -63
48 -124 96 -89 69 -113 93 -113 112 0 13 3 24 6 24 3 0 29 -19 57 -43 29 -23
61 -49 72 -57 51 -38 -8 18 -69 65 -52 40 -65 56 -66 78 0 15 2 27 5 27 3 0
68 -50 143 -111z m484 54 l2 -58 3 53 4 52 38 0 38 0 6 -272 c4 -149 7 -372 7
-495 l0 -224 -22 7 c-13 4 -39 12 -58 19 l-35 12 -3 80 -3 80 30 13 c53 21 64
42 57 107 -3 32 -8 85 -11 118 -5 54 -10 64 -45 95 l-39 35 -3 218 c-3 201 -2
217 15 217 14 0 17 -10 19 -57z m2330 -133 c-27 -58 -77 -167 -112 -242 l-64
-137 -50 46 c-166 152 -156 140 -156 191 0 45 2 48 43 71 23 13 58 36 77 51
19 15 96 69 170 119 l135 92 3 -43 c2 -34 -7 -64 -46 -148z m158 181 c0 -7
-17 -45 -117 -261 -19 -41 -62 -136 -95 -210 -33 -74 -61 -136 -62 -137 0 -1
-9 4 -19 12 -16 12 -11 28 78 226 53 118 110 246 128 284 17 39 35 76 40 83
11 14 47 17 47 3z m-2552 -306 l-3 -93 -72 57 c-40 31 -72 62 -73 69 0 6 33
69 73 139 l72 128 3 -103 c1 -57 1 -145 0 -197z m238 287 c22 -7 22 -8 28
-458 l6 -452 -36 -27 c-19 -15 -37 -25 -40 -23 -2 3 -6 169 -9 369 -3 200 -7
417 -10 482 -5 116 -5 117 18 116 12 -1 32 -4 43 -7z m2296 -220 c-22 -48 -74
-167 -117 -266 -42 -98 -89 -206 -105 -240 -46 -98 -171 -378 -246 -550 l-69
-158 -3 74 -3 73 101 225 c120 266 330 728 372 820 27 57 50 109 91 200 11 23
12 19 15 -33 3 -50 -2 -70 -36 -145z m-2979 4 c48 -38 85 -72 82 -74 -7 -7
-198 141 -203 158 -6 16 2 11 121 -84z m-37 -23 c41 -32 74 -61 74 -65 0 -8
-138 -247 -152 -263 -4 -5 -8 80 -8 188 0 108 3 197 6 197 3 0 39 -26 80 -57z
m2277 6 l57 -12 -1 -516 c-1 -284 -5 -706 -8 -938 l-6 -422 -55 18 c-30 10
-67 21 -81 25 l-26 6 1 925 1 925 31 0 c17 0 56 -5 87 -11z m181 -298 c-4
-152 -7 -547 -7 -878 l1 -601 -49 -48 -49 -48 0 435 c0 240 3 658 7 930 l6
494 50 -4 49 -3 -8 -277z m-2032 158 c62 -50 121 -100 131 -111 22 -26 24
-101 2 -96 -8 2 -78 52 -154 112 l-140 110 22 38 c12 21 23 38 24 38 2 0 53
-41 115 -91z m-307 7 c-14 -22 -65 -108 -113 -191 -80 -138 -87 -147 -90 -117
-3 26 10 57 59 140 132 227 128 220 149 215 19 -5 19 -7 -5 -47z m380 -214
c-2 -3 -10 0 -17 5 -140 107 -228 178 -228 185 0 4 56 -36 125 -89 69 -53 123
-98 120 -101z m2240 -41 c-1 -21 -28 -81 -37 -81 -8 0 -115 91 -195 167 -8 7
-13 38 -13 78 l0 66 123 -112 c67 -62 122 -115 122 -118z m-2394 118 c57 -45
105 -84 107 -88 1 -3 -64 -41 -145 -83 -82 -43 -185 -98 -230 -123 -46 -25
-83 -43 -83 -40 0 12 234 415 241 415 4 0 54 -36 110 -81z m2585 -111 c-6
-121 -10 -127 -54 -84 l-23 23 20 49 c37 92 51 124 57 124 3 0 3 -51 0 -112z
m-379 5 c126 -110 128 -112 111 -113 -18 0 -178 136 -178 151 0 16 13 9 67
-38z m-2037 -14 c-8 -5 -87 -49 -175 -96 -88 -47 -211 -114 -274 -149 -63 -36
-116 -62 -118 -60 -15 15 33 51 154 114 76 39 192 101 258 137 66 35 131 64
145 64 20 0 22 -2 10 -10z m70 -44 c0 -42 -2 -46 -42 -68 -201 -115 -262 -149
-323 -182 -38 -21 -74 -41 -80 -45 -18 -13 -206 -120 -211 -120 -3 0 -4 25 -2
56 l3 55 65 36 c36 19 126 68 200 108 74 41 187 103 250 138 63 36 121 65 128
66 8 1 12 -14 12 -44z m1980 -17 l53 -47 -63 -138 c-34 -76 -66 -141 -69 -145
-3 -4 -5 83 -3 193 2 161 5 198 16 192 7 -5 37 -29 66 -55z m413 -143 c67 -60
67 -60 67 -113 0 -30 -4 -52 -10 -50 -5 2 -61 47 -124 101 -99 85 -114 101
-106 117 6 10 15 31 20 45 l10 27 38 -33 c20 -19 67 -61 105 -94z m-293 70 c0
-3 -168 -373 -190 -420 l-15 -30 -3 45 c-2 38 7 67 56 175 33 72 71 156 85
187 21 48 29 56 46 51 12 -3 21 -6 21 -8z m212 -152 c69 -60 96 -89 85 -91
-19 -4 -195 145 -196 166 -1 6 2 12 5 12 3 0 51 -39 106 -87z m37 -105 c1 -4
-16 -20 -38 -35 -21 -15 -94 -73 -162 -128 -68 -55 -134 -108 -147 -119 l-23
-18 15 33 c77 176 160 360 173 386 l17 31 82 -71 c45 -40 83 -75 83 -79z m76
-28 c-5 -8 -421 -350 -492 -404 l-25 -19 26 51 c20 40 48 68 132 134 59 46
152 120 207 166 75 61 107 82 129 82 16 0 27 -4 23 -10z m35 -57 l0 -48 -182
-155 c-277 -237 -377 -320 -383 -320 -3 0 -5 24 -5 54 l0 54 177 143 c97 79
224 183 282 231 58 48 107 88 109 88 1 0 2 -21 2 -47z"/>
<path d="M6428 4462 c10 -10 31 -66 46 -123 36 -137 49 -172 64 -177 8 -2 36
47 77 132 35 75 71 139 80 142 28 11 15 24 -24 24 -33 0 -38 -3 -34 -18 2 -10
-17 -63 -42 -117 l-47 -100 -29 100 c-31 108 -34 135 -19 135 6 0 10 5 10 10
0 6 -22 10 -50 10 -48 0 -49 -1 -32 -18z"/>
<path d="M6265 4094 c12 -5 7 -104 -6 -120 -7 -8 3 -13 31 -18 23 -3 45 -4 51
-1 18 12 8 20 -23 20 l-32 0 3 50 c1 28 7 56 13 63 8 9 4 12 -18 11 -16 0 -24
-2 -19 -5z"/>
<path d="M6377 4072 c2 -11 0 -42 -5 -70 -5 -29 -8 -52 -6 -52 1 0 8 -2 16 -5
10 -4 13 7 14 42 0 27 4 60 7 76 6 22 4 27 -12 27 -14 0 -18 -5 -14 -18z"/>
<path d="M6438 4025 c2 -32 -1 -61 -8 -69 -9 -11 -5 -16 19 -21 40 -9 68 1 76
26 8 25 -20 59 -47 59 -14 0 -19 6 -16 23 2 12 10 22 18 22 8 0 16 -10 18 -22
4 -27 22 -31 22 -5 0 27 -20 42 -54 42 l-31 0 3 -55z m58 -29 c15 -12 17 -18
8 -33 -18 -29 -39 -22 -42 15 -4 35 4 39 34 18z"/>
<path d="M6555 3995 c0 -52 4 -75 12 -75 7 0 10 6 7 13 -2 7 -1 24 4 38 9 23
10 23 31 -19 19 -37 25 -42 56 -42 19 0 34 3 34 8 -4 26 3 42 21 42 21 0 45
-34 35 -50 -3 -6 2 -10 13 -10 18 0 19 1 1 53 -10 28 -18 62 -19 75 0 39 -17
24 -49 -43 -16 -36 -36 -65 -44 -65 -7 0 -21 15 -30 34 -14 29 -14 35 -1 40
25 10 17 55 -12 66 -55 21 -59 17 -59 -65z m65 30 c0 -18 -5 -25 -20 -25 -15
0 -20 7 -20 25 0 18 5 25 20 25 15 0 20 -7 20 -25z m120 -35 c0 -11 -6 -20
-14 -20 -9 0 -12 7 -9 20 3 11 9 20 14 20 5 0 9 -9 9 -20z"/>
<path d="M6098 3813 c7 -3 16 -2 19 1 4 3 -2 6 -13 5 -11 0 -14 -3 -6 -6z"/>
<path d="M6158 3803 c6 -2 18 -2 25 0 6 3 1 5 -13 5 -14 0 -19 -2 -12 -5z"/>
<path d="M6208 3793 c6 -2 18 -2 25 0 6 3 1 5 -13 5 -14 0 -19 -2 -12 -5z"/>
<path d="M6748 3723 c6 -2 18 -2 25 0 6 3 1 5 -13 5 -14 0 -19 -2 -12 -5z"/>
<path d="M6949 3733 c-13 -16 -12 -17 4 -4 9 7 17 15 17 17 0 8 -8 3 -21 -13z"/>
<path d="M6513 3585 c0 -22 2 -30 4 -17 2 12 2 30 0 40 -3 9 -5 -1 -4 -23z"/>
<path d="M6543 3395 c0 -22 2 -30 4 -17 2 12 2 30 0 40 -3 9 -5 -1 -4 -23z"/>
<path d="M4762 3459 c-52 -26 -66 -50 -58 -100 3 -21 2 -40 -4 -44 -14 -8 -13
-69 2 -117 15 -52 45 -73 122 -88 72 -13 129 -7 193 20 46 20 63 44 63 88 0
16 7 43 16 61 17 35 12 82 -12 102 -8 6 -14 17 -14 23 0 19 -41 52 -79 65 -58
19 -180 14 -229 -10z m74 -21 c-14 -20 -14 -24 0 -45 8 -13 12 -28 9 -33 -7
-11 38 -24 57 -17 7 3 1 6 -14 6 -30 1 -39 27 -13 37 8 4 15 14 15 23 0 13 -2
13 -9 2 -7 -11 -11 -10 -21 5 -10 17 -11 17 -6 -4 4 -19 2 -21 -10 -11 -17 14
-17 14 2 33 20 20 45 20 70 0 18 -15 18 -15 -3 -5 -12 6 -28 11 -35 11 -7 -1
2 -7 20 -15 30 -13 45 -45 21 -45 -6 0 -8 -7 -5 -15 3 -8 9 -22 12 -30 5 -12
-2 -15 -33 -15 -87 0 -181 47 -167 84 6 16 43 38 79 47 46 11 47 10 31 -13z
m172 0 c61 -31 54 -73 -17 -98 -40 -14 -44 -14 -56 4 -11 14 -11 22 -2 37 9
14 9 26 0 50 l-12 31 30 -6 c17 -3 43 -12 57 -18z m66 -129 c-23 -23 -81 -39
-134 -38 -30 1 -28 3 15 10 82 13 91 17 104 45 9 21 15 24 24 15 8 -8 6 -16
-9 -32z m-64 11 c0 -5 -5 -10 -11 -10 -5 0 -7 5 -4 10 3 6 8 10 11 10 2 0 4
-4 4 -10z m-270 -24 c0 -7 7 -19 15 -26 8 -7 13 -15 11 -19 -3 -4 3 -7 12 -8
42 -5 83 -16 88 -25 8 -13 -69 -1 -114 18 -34 14 -48 35 -38 59 7 19 26 20 26
1z m215 4 c-44 -11 -108 -11 -125 0 -10 7 12 9 70 9 60 -1 76 -4 55 -9z m-152
-23 c4 3 7 1 7 -5 0 -14 -2 -14 -24 -6 -9 3 -16 11 -16 16 0 7 5 6 13 -1 8 -6
17 -8 20 -4z m277 8 c0 -4 -19 -15 -42 -25 -44 -20 -161 -28 -185 -12 -6 4 26
7 70 8 56 0 92 6 112 17 32 17 45 21 45 12z m-31 -81 c-20 -24 -72 -44 -111
-43 -30 1 -29 2 11 10 24 5 58 19 75 33 34 26 47 26 25 0z m-79 -8 c-10 -10
-129 -17 -159 -9 -44 11 -17 18 74 18 53 0 90 -4 85 -9z m15 -56 c-13 -21
-175 -22 -175 -2 0 4 40 7 90 8 49 0 87 -2 85 -6z"/>
<path d="M4752 3418 c-15 -15 -16 -45 -2 -53 7 -4 9 2 4 19 -5 21 -2 28 17 35
14 6 18 10 9 10 -9 1 -21 -4 -28 -11z"/>
<path d="M4779 3401 c7 -5 9 -11 5 -13 -5 -3 -5 -4 0 -3 18 3 17 25 -1 25 -14
0 -15 -2 -4 -9z"/>
<path d="M4970 3431 c0 -6 4 -12 8 -15 5 -3 9 1 9 9 0 8 -4 15 -9 15 -4 0 -8
-4 -8 -9z"/>
<path d="M5006 3422 c2 -2 -3 -14 -11 -26 -18 -24 -19 -36 -4 -36 5 0 8 4 4 9
-3 5 2 17 11 26 11 10 13 19 7 24 -6 5 -9 6 -7 3z"/>
<path d="M4730 3270 c6 -11 16 -20 22 -20 6 0 3 9 -7 20 -10 11 -20 20 -22 20
-2 0 1 -9 7 -20z"/>
<path d="M5745 3460 c-11 -5 -43 -9 -70 -9 -80 -1 -94 -29 -48 -90 32 -42 32
-75 -1 -111 -69 -77 -94 -142 -72 -193 16 -38 34 -52 111 -79 65 -24 131 -23
211 3 71 23 104 58 104 109 -1 34 -33 104 -72 153 -42 52 -43 74 -7 115 49 55
39 71 -59 96 -71 18 -69 18 -97 6z m115 -36 c49 -7 54 -22 5 -16 -22 3 -45 -2
-60 -12 -31 -20 -69 -21 -85 -1 -7 9 -29 15 -52 15 -24 0 -37 4 -33 10 4 6 21
8 40 4 19 -3 41 -1 52 5 17 11 34 10 133 -5z m-156 -43 c3 -5 19 -14 35 -19
24 -8 37 -7 68 9 21 11 49 18 62 17 l24 -3 -27 -32 c-29 -35 -52 -44 -42 -17
3 8 2 12 -4 9 -6 -3 -10 -13 -10 -21 0 -10 -12 -14 -40 -14 -22 0 -40 4 -40 8
0 5 -7 17 -16 28 -14 18 -15 18 -4 -4 18 -36 -16 -25 -48 16 l-25 32 31 0 c17
0 33 -4 36 -9z m119 -98 c-15 -7 -41 -12 -58 -12 -16 0 -43 5 -58 12 -25 11
-18 12 58 12 76 0 83 -1 58 -12z m-133 -18 c0 -4 -7 -20 -15 -38 -15 -30 -5
-22 20 17 8 11 21 14 58 9 45 -5 49 -9 64 -45 19 -48 30 -43 12 7 -11 31 -11
37 1 45 22 14 22 14 55 -32 67 -93 80 -142 50 -185 -20 -29 -145 -67 -195 -60
-19 3 -60 15 -91 26 -64 24 -86 57 -74 110 11 50 115 182 115 146z"/>
<path d="M5856 3045 c-11 -8 -15 -15 -9 -15 6 0 16 7 23 15 16 19 11 19 -14 0z"/>
<path d="M5192 3273 c-59 -21 -66 -40 -53 -146 3 -20 89 -47 153 -47 95 0 145
21 158 69 20 74 5 109 -59 130 -47 15 -147 12 -199 -6z m222 -27 c34 -22 33
-32 -6 -52 -64 -33 -192 -28 -243 10 -18 13 -18 16 -5 30 38 38 203 46 254 12z
m-34 -96 c-20 -13 -147 -13 -155 0 -3 5 13 7 42 4 26 -4 64 -2 83 3 38 11 53
7 30 -7z m-82 -27 c87 2 111 -3 76 -17 -20 -8 -112 -8 -151 0 -16 3 -40 15
-53 25 l-25 20 30 -15 c22 -10 59 -14 123 -13z"/>
<path d="M5255 3255 c23 -8 125 -11 113 -4 -7 5 -38 8 -68 8 -30 0 -50 -2 -45
-4z"/>
<path d="M5330 3200 l-45 -7 40 -1 c22 -1 47 3 55 8 8 5 11 9 5 8 -5 0 -30 -4
-55 -8z"/>
<path d="M5243 3193 c9 -2 23 -2 30 0 6 3 -1 5 -18 5 -16 0 -22 -2 -12 -5z"/>
<path d="M6080 3558 c0 -12 111 -30 149 -23 107 19 93 30 -39 30 -61 0 -110
-3 -110 -7z"/>
<path d="M6106 3509 c3 -5 29 -9 57 -8 59 1 54 5 -15 12 -26 2 -45 1 -42 -4z"/>
<path d="M6100 3340 c25 -8 147 -13 139 -6 -2 2 -40 6 -84 8 -44 3 -69 2 -55
-2z"/>
<path d="M6108 3128 c5 -5 16 -8 23 -6 8 3 3 7 -10 11 -17 4 -21 3 -13 -5z"/>
<path d="M6163 3113 c9 -2 23 -2 30 0 6 3 -1 5 -18 5 -16 0 -22 -2 -12 -5z"/>
<path d="M7022 3245 c0 -16 2 -22 5 -12 2 9 2 23 0 30 -3 6 -5 -1 -5 -18z"/>
<path d="M6763 3090 c0 -25 2 -35 4 -22 2 12 2 32 0 45 -2 12 -4 2 -4 -23z"/>
<path d="M6342 2795 c0 -16 2 -22 5 -12 2 9 2 23 0 30 -3 6 -5 -1 -5 -18z"/>
<path d="M3218 3173 c6 -2 18 -2 25 0 6 3 1 5 -13 5 -14 0 -19 -2 -12 -5z"/>
<path d="M3283 3163 c9 -2 23 -2 30 0 6 3 -1 5 -18 5 -16 0 -22 -2 -12 -5z"/>
<path d="M3338 3153 c6 -2 18 -2 25 0 6 3 1 5 -13 5 -14 0 -19 -2 -12 -5z"/>
<path d="M3288 3133 c7 -3 16 -2 19 1 4 3 -2 6 -13 5 -11 0 -14 -3 -6 -6z"/>
<path d="M3333 3123 c9 -2 25 -2 35 0 9 3 1 5 -18 5 -19 0 -27 -2 -17 -5z"/>
<path d="M3398 3113 c6 -2 18 -2 25 0 6 3 1 5 -13 5 -14 0 -19 -2 -12 -5z"/>
<path d="M3458 3103 c12 -2 30 -2 40 0 9 3 -1 5 -23 4 -22 0 -30 -2 -17 -4z"/>
<path d="M3533 3093 c9 -2 25 -2 35 0 9 3 1 5 -18 5 -19 0 -27 -2 -17 -5z"/>
<path d="M3618 3083 c7 -3 16 -2 19 1 4 3 -2 6 -13 5 -11 0 -14 -3 -6 -6z"/>
<path d="M4273 3013 c9 -2 23 -2 30 0 6 3 -1 5 -18 5 -16 0 -22 -2 -12 -5z"/>
<path d="M4343 3003 c9 -2 23 -2 30 0 6 3 -1 5 -18 5 -16 0 -22 -2 -12 -5z"/>
<path d="M4418 2993 c12 -2 30 -2 40 0 9 3 -1 5 -23 4 -22 0 -30 -2 -17 -4z"/>
<path d="M4503 2983 c9 -2 23 -2 30 0 6 3 -1 5 -18 5 -16 0 -22 -2 -12 -5z"/>
<path d="M5373 2833 c9 -2 25 -2 35 0 9 3 1 5 -18 5 -19 0 -27 -2 -17 -5z"/>
<path d="M5443 2823 c9 -2 23 -2 30 0 6 3 -1 5 -18 5 -16 0 -22 -2 -12 -5z"/>
<path d="M5540 2809 c25 -4 61 -7 80 -7 29 1 26 2 -15 8 -69 11 -126 10 -65
-1z"/>
<path d="M5673 2793 c9 -2 25 -2 35 0 9 3 1 5 -18 5 -19 0 -27 -2 -17 -5z"/>
<path d="M5748 2783 c12 -2 32 -2 45 0 12 2 2 4 -23 4 -25 0 -35 -2 -22 -4z"/>
<path d="M5833 2773 c9 -2 23 -2 30 0 6 3 -1 5 -18 5 -16 0 -22 -2 -12 -5z"/>
<path d="M5678 2753 c12 -2 30 -2 40 0 9 3 -1 5 -23 4 -22 0 -30 -2 -17 -4z"/>
<path d="M5753 2743 c9 -2 23 -2 30 0 6 3 -1 5 -18 5 -16 0 -22 -2 -12 -5z"/>
<path d="M5835 2729 c22 -4 54 -8 70 -7 22 0 19 3 -15 9 -60 10 -108 9 -55 -2z"/>
<path d="M5958 2713 c7 -3 16 -2 19 1 4 3 -2 6 -13 5 -11 0 -14 -3 -6 -6z"/>
<path d="M6883 2660 c0 -41 2 -58 4 -37 2 20 2 54 0 75 -2 20 -4 3 -4 -38z"/>
<path d="M6894 1865 c0 -99 2 -138 3 -87 2 51 2 132 0 180 -1 48 -3 6 -3 -93z"/>
<path d="M3364 2770 c0 -118 2 -167 3 -107 2 59 2 155 0 215 -1 59 -3 10 -3
-108z"/>
<path d="M3373 2440 c0 -36 2 -50 4 -32 2 17 2 47 0 65 -2 17 -4 3 -4 -33z"/>
<path d="M3424 1845 c0 -66 1 -92 3 -57 2 34 2 88 0 120 -2 31 -3 3 -3 -63z"/>
<path d="M6772 2505 c0 -16 2 -22 5 -12 2 9 2 23 0 30 -3 6 -5 -1 -5 -18z"/>
<path d="M6724 2370 c0 -74 1 -105 3 -67 2 37 2 97 0 135 -2 37 -3 6 -3 -68z"/>
<path d="M3543 2770 c0 -47 2 -66 4 -42 2 23 2 61 0 85 -2 23 -4 4 -4 -43z"/>
<path d="M3554 2560 c0 -52 1 -74 3 -47 2 26 2 68 0 95 -2 26 -3 4 -3 -48z"/>
<path d="M3562 1770 c0 -14 2 -19 5 -12 2 6 2 18 0 25 -3 6 -5 1 -5 -13z"/>
<path d="M3573 1665 c0 -38 2 -53 4 -32 2 20 2 52 0 70 -2 17 -4 1 -4 -38z"/>
<path d="M3782 2275 c-17 -36 -30 -65 -27 -65 7 0 67 121 63 126 -2 2 -18 -26
-36 -61z"/>
<path d="M3721 2164 c-12 -20 -20 -38 -18 -40 2 -2 14 14 26 36 28 50 21 53
-8 4z"/>
<path d="M4283 2685 c0 -44 2 -61 4 -37 2 23 2 59 0 80 -2 20 -4 1 -4 -43z"/>
<path d="M4434 2575 c0 -104 2 -146 3 -92 2 54 2 139 0 190 -1 51 -3 7 -3 -98z"/>
<path d="M6662 2544 c-18 -35 -32 -68 -32 -72 1 -4 17 24 36 62 19 37 34 70
32 72 -2 2 -18 -26 -36 -62z"/>
<path d="M6386 1925 c-9 -26 -7 -32 5 -12 6 10 9 21 6 23 -2 3 -7 -2 -11 -11z"/>
<path d="M6362 1865 c-17 -37 -14 -45 4 -12 9 16 14 31 11 33 -2 2 -9 -7 -15
-21z"/>
<path d="M6316 1763 c-6 -14 -5 -15 5 -6 7 7 10 15 7 18 -3 3 -9 -2 -12 -12z"/>
<path d="M5944 2430 c0 -69 1 -97 3 -62 2 34 2 90 0 125 -2 34 -3 6 -3 -63z"/>
<path d="M5993 2270 c0 -36 2 -50 4 -32 2 17 2 47 0 65 -2 17 -4 3 -4 -33z"/>
<path d="M5954 2185 c0 -49 1 -71 3 -48 2 23 2 64 0 90 -2 26 -3 8 -3 -42z"/>
<path d="M5943 2040 c0 -30 2 -43 4 -27 2 15 2 39 0 55 -2 15 -4 2 -4 -28z"/>
<path d="M5984 1260 c0 -63 1 -89 3 -57 2 31 2 83 0 115 -2 31 -3 5 -3 -58z"/>
<path d="M5934 890 c0 -58 1 -81 3 -52 2 28 2 76 0 105 -2 28 -3 5 -3 -53z"/>
<path d="M6134 2295 c0 -121 2 -169 3 -107 2 62 2 161 0 220 -1 59 -3 8 -3
-113z"/>
<path d="M6123 1210 c-1 -52 2 -135 6 -185 l8 -90 0 75 c0 41 -3 125 -7 185
l-7 110 0 -95z"/>
<path d="M4133 2094 c-24 -14 -43 -27 -43 -30 0 -6 67 33 85 48 17 15 1 8 -42
-18z"/>
<path d="M3883 1979 c-29 -17 -53 -33 -53 -36 0 -5 89 44 105 58 16 16 1 9
-52 -22z"/>
<path d="M6565 1599 c-49 -38 -97 -77 -105 -86 -8 -9 31 19 88 62 88 67 123
96 110 95 -2 -1 -43 -32 -93 -71z"/>
</g>
</svg>
