<?xml version="1.0" standalone="no"?>
<!DOCTYPE svg PUBLIC "-//W3C//DTD SVG 20010904//EN"
 "http://www.w3.org/TR/2001/REC-SVG-20010904/DTD/svg10.dtd">
<svg version="1.0" xmlns="http://www.w3.org/2000/svg"
 width="1024.000000pt" height="559.000000pt" viewBox="0 0 1024.000000 559.000000"
 preserveAspectRatio="xMidYMid meet">
<metadata>
Created by potrace 1.16, written by Peter Selinger 2001-2019
</metadata>
<g transform="translate(0.000000,559.000000) scale(0.100000,-0.100000)"
fill="#000000" stroke="none">
<path d="M3982 4458 c-7 -7 -12 -29 -12 -50 0 -42 3 -40 -85 -42 -44 -1 -51
-4 -63 -30 -21 -43 -3 -76 43 -76 19 0 35 -5 35 -11 0 -6 -15 -39 -32 -72 -51
-95 -240 -277 -288 -277 -5 0 -10 17 -10 38 0 20 -4 42 -8 49 -13 20 -58 25
-95 10 l-36 -15 6 -75 c6 -73 5 -74 -19 -80 -33 -9 -46 -41 -65 -158 -18 -112
-15 -123 45 -134 71 -13 69 -8 71 -182 1 -87 6 -349 12 -583 6 -245 8 -645 5
-945 -4 -286 -3 -525 1 -531 26 -36 116 -46 152 -16 l22 17 0 540 c-1 297 -4
709 -7 915 l-6 375 139 138 140 138 6 -257 c4 -141 7 -306 7 -366 0 -94 2
-108 16 -108 15 0 17 33 13 387 -4 369 -3 388 14 391 10 2 29 1 43 -2 l24 -6
0 -384 c0 -329 2 -385 15 -396 13 -11 15 33 15 385 l0 397 27 -5 c33 -6 63 8
63 28 0 27 19 16 22 -12 l3 -28 100 -2 c55 -1 199 -10 320 -20 273 -22 821
-23 999 -3 113 13 119 15 136 42 l17 28 21 -25 c19 -22 29 -25 89 -24 38 0
115 6 173 13 58 7 106 12 107 12 3 -2 5 -370 4 -692 -1 -389 9 -352 -96 -363
-49 -5 -62 -10 -70 -28 -12 -27 -31 -30 -40 -5 -3 9 -24 32 -47 50 -31 24 -46
31 -62 25 -11 -4 -64 -8 -116 -8 l-95 0 0 -32 c0 -43 -10 -51 -75 -55 l-55 -3
-5 35 c-3 24 -12 38 -27 45 -16 6 -21 16 -17 30 6 26 -37 81 -55 70 -9 -5 -11
-19 -8 -40 5 -29 3 -32 -14 -28 -10 3 -19 14 -19 24 0 11 -7 19 -15 19 -8 0
-15 5 -15 11 0 5 -8 9 -17 7 -10 -1 -24 2 -32 6 -10 7 -19 4 -27 -10 -37 -56
-38 -56 -66 -43 -23 10 -32 8 -60 -9 -33 -21 -34 -21 -46 -2 -15 24 -39 26
-64 4 -16 -15 -18 -15 -24 -1 -3 8 -1 24 5 35 10 19 6 32 -10 32 -4 0 -10 -9
-14 -19 -4 -14 -15 -19 -40 -18 -40 1 -61 -14 -51 -39 5 -13 15 -15 47 -11 36
5 39 4 27 -11 -7 -10 -21 -23 -31 -30 -10 -8 -16 -24 -15 -40 1 -15 -1 -33 -5
-39 -12 -20 24 -114 59 -153 45 -50 104 -70 224 -77 200 -12 304 49 328 189 7
41 7 41 53 41 57 0 68 -6 62 -35 -3 -14 5 -37 19 -58 21 -31 29 -35 73 -38 28
-1 93 1 145 5 l95 8 0 59 c0 64 19 88 30 37 7 -33 20 -47 48 -52 15 -3 19 -14
21 -56 1 -39 7 -58 25 -77 22 -24 32 -26 102 -26 80 0 124 12 133 37 11 28
-25 112 -54 130 -32 19 -47 63 -21 63 13 0 209 -214 234 -257 7 -11 -30 -13
-206 -13 l-214 0 -43 61 -43 61 -128 -4 c-151 -4 -162 -10 -134 -65 11 -21 21
-41 23 -45 2 -5 -382 -9 -854 -10 -673 -2 -858 -6 -861 -15 -4 -10 176 -13
864 -15 l868 -3 0 -30 0 -30 -868 -3 c-688 -2 -868 -5 -865 -15 3 -8 32 -13
86 -15 l82 -3 1 -42 c1 -23 5 -130 9 -237 l7 -195 -1 238 -1 237 197 0 196 0
6 -73 c12 -144 14 -150 12 -39 l-1 112 567 0 568 0 0 -29 c0 -17 5 -33 10 -36
6 -3 10 -17 10 -31 0 -13 5 -24 10 -24 6 0 10 11 10 25 0 14 5 25 10 25 6 0
10 -12 10 -26 0 -31 23 -28 28 4 5 31 22 27 22 -4 0 -16 5 -24 13 -21 6 2 12
12 12 22 0 10 6 20 13 23 7 2 12 -6 12 -22 0 -14 5 -26 10 -26 6 0 10 11 10
25 0 30 16 33 23 5 7 -27 27 -25 28 3 0 21 1 21 8 2 11 -27 24 -25 32 5 7 24
7 24 8 3 1 -14 7 -23 17 -23 10 0 15 8 14 23 -7 77 -7 77 70 77 l70 0 1 -167
c1 -93 5 -208 9 -258 6 -66 7 -22 7 165 l-1 255 102 3 102 3 0 -263 c0 -145 3
-273 6 -285 l6 -23 -781 0 -781 0 -3 283 -2 282 -3 -282 -2 -283 -115 0 -114
0 -4 58 -3 57 -2 -57 -2 -58 -230 0 c-190 0 -230 -2 -230 -14 0 -8 7 -17 16
-20 21 -8 1705 -8 2026 1 l256 6 -5 298 -6 298 44 3 44 3 3 58 c4 71 6 67
-132 221 l-106 119 1 306 c1 168 4 413 8 544 l6 238 137 -135 138 -135 -7
-934 -6 -933 35 -17 c45 -21 80 -22 120 -1 l31 16 -7 491 c-6 420 1 1091 18
1647 l4 125 55 5 c31 3 59 8 63 13 9 9 8 52 -6 146 -13 91 -27 122 -64 140
-29 13 -29 14 -22 83 l6 69 -35 14 c-69 30 -105 10 -105 -56 0 -21 -4 -39 -9
-39 -22 0 -136 88 -190 146 -48 53 -131 184 -131 208 0 3 13 6 29 6 50 0 61 9
61 50 0 50 -19 64 -76 57 -69 -7 -84 0 -84 38 0 55 -8 65 -51 65 -44 0 -59
-18 -59 -74 0 -34 -1 -35 -52 -45 -242 -48 -1312 -47 -1890 0 l-138 12 0 34
c0 52 -15 73 -53 73 -18 0 -38 -5 -45 -12z m62 -34 c13 -35 7 -54 -19 -54 -22
0 -25 4 -25 35 0 28 4 35 19 35 10 0 22 -7 25 -16z m2196 -19 c0 -31 -3 -35
-25 -35 -18 0 -25 5 -25 19 0 33 11 51 31 51 15 0 19 -7 19 -35z m-2085 -80
c510 -53 1601 -59 1940 -9 55 8 118 17 140 20 l40 6 23 -69 c67 -208 259 -393
480 -463 23 -7 47 -19 52 -25 12 -15 44 -191 37 -208 -3 -8 -53 -17 -143 -25
-77 -7 -182 -19 -234 -27 -180 -27 -485 -64 -577 -70 l-91 -6 -22 31 c-28 39
-47 38 -67 -4 -21 -45 -18 -44 -478 -52 -292 -5 -415 -3 -585 10 -118 9 -268
16 -332 16 -108 0 -118 2 -118 19 0 31 -21 81 -35 81 -7 0 -20 -18 -29 -40
-18 -45 -27 -47 -131 -30 -33 6 -145 17 -250 25 -133 10 -220 22 -290 40 -55
14 -103 29 -106 33 -8 8 23 192 35 210 4 7 12 12 17 12 20 0 144 54 201 87
135 79 264 236 308 374 29 94 28 92 54 85 11 -3 84 -13 161 -21z m-233 9 c3
-3 4 -14 1 -25 -4 -14 -14 -19 -39 -19 -30 0 -34 3 -34 25 0 22 4 25 33 25 19
0 36 -3 39 -6z m2478 -19 c0 -22 -4 -25 -39 -25 -30 0 -40 4 -44 20 -6 22 5
28 51 29 28 1 32 -2 32 -24z m-2902 -456 c-19 -12 -26 0 -30 53 -3 39 0 49 17
56 19 8 20 5 23 -46 2 -37 -1 -58 -10 -63z m41 59 c-1 -45 -2 -49 -9 -23 -11
44 -11 75 0 75 6 0 9 -23 9 -52z m3181 2 c0 -27 -4 -50 -10 -50 -5 0 -10 23
-10 50 0 28 5 50 10 50 6 0 10 -22 10 -50z m51 -5 c-4 -59 -7 -66 -27 -58 -11
4 -14 19 -13 60 2 48 5 54 23 51 19 -3 21 -9 17 -53z m-37 -712 c-4 -175 -9
-679 -9 -1121 0 -873 3 -821 -54 -822 l-24 0 7 103 c3 56 8 176 11 267 l4 165
-14 -175 c-7 -96 -14 -215 -14 -263 -1 -66 -4 -88 -13 -84 -10 3 -12 193 -9
918 l4 914 23 22 c32 30 35 120 4 148 -18 16 -20 31 -20 126 l0 108 28 4 c15
2 40 5 56 6 l29 1 -9 -317z m-3201 124 c4 -95 7 -217 8 -272 1 -55 5 -111 9
-125 9 -24 7 86 -6 416 l-5 150 35 -4 36 -4 0 -103 c0 -91 -2 -104 -21 -121
-18 -16 -20 -27 -17 -73 4 -38 11 -58 25 -70 20 -16 21 -26 27 -917 7 -812 6
-902 -8 -907 -14 -6 -16 10 -17 126 -1 73 -5 179 -9 237 -6 79 -7 46 -5 -132
l2 -238 -28 0 c-15 0 -31 5 -35 12 -4 7 -8 384 -9 838 -1 454 -5 948 -10 1098
-7 241 -6 272 7 267 12 -5 16 -38 21 -178z m3067 88 c0 -47 -3 -85 -7 -85 -15
0 -161 151 -150 155 18 6 67 12 115 14 l42 1 0 -85z m-2812 50 c4 -3 -127
-129 -139 -133 -5 -2 -9 30 -9 72 l0 75 73 -6 c39 -3 73 -7 75 -8z m122 -4
c23 -6 14 -17 -133 -161 -166 -162 -176 -167 -177 -93 0 27 16 46 123 147 122
115 132 121 187 107z m2470 -37 c25 -25 54 -50 65 -56 11 -6 -5 15 -35 47 -44
45 -51 56 -33 53 12 -2 76 -54 143 -116 113 -107 120 -116 120 -152 0 -21 -5
-42 -11 -45 -8 -6 -317 284 -327 308 -2 4 5 7 15 7 10 0 39 -21 63 -46z m-117
24 c16 -12 17 -52 10 -560 l-6 -548 -21 0 c-14 0 -28 12 -39 33 -15 29 -17 78
-17 554 l1 522 22 4 c12 2 25 5 28 6 3 0 13 -5 22 -11z m-833 -990 c0 -5 -4
-8 -10 -8 -5 0 -10 10 -10 23 0 18 2 19 10 7 5 -8 10 -18 10 -22z m-485 2 c3
-5 -3 -10 -15 -10 -12 0 -18 5 -15 10 3 6 10 10 15 10 5 0 12 -4 15 -10z m366
0 c25 0 24 -14 -3 -50 -27 -37 -42 -39 -26 -5 6 14 9 27 6 30 -10 10 -35 -6
-46 -28 -10 -21 -11 -21 -11 -2 -1 29 28 68 46 61 8 -3 23 -6 34 -6z m-256
-40 c-5 -8 -11 -8 -17 -2 -6 6 -7 16 -3 22 5 8 11 8 17 2 6 -6 7 -16 3 -22z
m140 3 c16 -16 16 -17 -2 -24 -10 -4 -25 -14 -32 -23 -20 -24 -28 -19 -27 17
2 48 30 62 61 30z m-185 -24 c0 -5 -7 -9 -15 -9 -15 0 -20 12 -9 23 8 8 24 -1
24 -14z m381 5 c7 -9 22 -14 36 -11 31 6 56 -18 47 -47 -9 -31 -18 -38 -71
-51 l-48 -12 -3 38 c-2 20 -10 43 -18 50 -13 10 -12 14 2 30 21 23 37 24 55 3z
m-281 -10 c0 -8 -5 -12 -10 -9 -6 4 -8 11 -5 16 9 14 15 11 15 -7z m665 2 c17
0 44 3 60 7 26 6 36 1 68 -29 31 -29 36 -38 26 -50 -9 -11 -15 -12 -25 -3 -14
11 -93 7 -151 -7 -18 -5 -31 2 -58 32 -49 53 -47 68 8 58 23 -5 56 -8 72 -8z
m-715 -21 c0 -8 -4 -15 -9 -15 -13 0 -22 16 -14 24 11 11 23 6 23 -9z m-95 -5
c3 -6 -1 -13 -10 -16 -19 -8 -30 0 -20 15 8 14 22 14 30 1z m1220 -12 c15 -23
15 -23 -42 -33 -67 -12 -83 -20 -83 -42 0 -14 11 -15 78 -10 l77 5 -60 -13
c-101 -22 -139 -5 -133 62 l3 38 54 2 c29 1 56 5 59 8 12 11 32 4 47 -17z
m-954 -4 c13 -12 22 -13 38 -5 28 16 39 14 51 -9 8 -14 8 -26 0 -40 -9 -16
-21 -20 -69 -20 -53 0 -59 2 -70 26 -23 51 11 84 50 48z m-216 -4 c3 -5 1 -10
-4 -10 -6 0 -11 5 -11 10 0 6 2 10 4 10 3 0 8 -4 11 -10z m75 -16 c0 -8 -5
-12 -10 -9 -6 4 -8 11 -5 16 9 14 15 11 15 -7z m657 -44 c20 0 63 5 95 12 54
11 60 11 79 -8 l20 -21 -118 -7 -118 -6 -32 36 c-40 45 -32 68 9 25 22 -24 38
-31 65 -31z m-607 34 c0 -8 -4 -12 -10 -9 -5 3 -10 10 -10 16 0 5 5 9 10 9 6
0 10 -7 10 -16z m-150 -4 c0 -5 -7 -10 -16 -10 -8 0 -12 5 -9 10 3 6 10 10 16
10 5 0 9 -4 9 -10z m68 -18 c2 -7 -3 -12 -12 -12 -9 0 -16 7 -16 16 0 17 22
14 28 -4z m1152 1 c0 -5 -26 -9 -58 -9 -41 -1 -50 0 -32 6 33 10 90 12 90 3z
m-1100 -13 c0 -5 -4 -10 -10 -10 -5 0 -10 5 -10 10 0 6 5 10 10 10 6 0 10 -4
10 -10z m-85 -28 c38 -10 108 -16 193 -16 97 -1 132 -4 132 -13 0 -7 -12 -15
-27 -19 -47 -10 -49 -12 -16 -13 31 -1 32 -2 26 -33 -5 -27 -3 -31 8 -20 18
17 39 15 39 -3 0 -22 -42 -29 -165 -29 -78 0 -117 4 -135 14 l-25 15 23 3 c13
2 28 -1 35 -6 8 -7 16 -5 25 4 11 12 10 14 -7 14 -10 0 -21 7 -25 15 -4 11 2
15 25 15 18 0 28 4 24 10 -3 6 -18 10 -32 10 -14 0 -32 8 -40 18 -8 9 -12 11
-8 5 4 -9 -3 -13 -25 -13 -19 0 -33 6 -37 16 -4 11 -8 12 -13 4 -10 -16 -57 7
-63 32 -4 15 -2 18 11 13 9 -4 44 -14 77 -23z m462 5 c-7 -19 -47 -29 -47 -13
0 12 41 37 49 30 2 -2 1 -9 -2 -17z m-63 -21 c-3 -8 -16 -16 -30 -19 -18 -3
-24 0 -24 14 0 14 7 19 30 19 21 0 28 -4 24 -14z m388 -4 c76 3 111 1 118 -7
8 -9 -9 -14 -67 -19 -122 -10 -165 -8 -185 11 -25 22 -23 36 4 22 14 -7 59
-10 130 -7z m-342 -23 c-12 -21 -37 -35 -46 -26 -7 7 33 47 46 47 7 0 7 -7 0
-21z m789 2 c32 -24 19 -41 -32 -41 -44 0 -91 -18 -91 -35 0 -17 49 -28 87
-21 54 10 47 29 -8 20 -27 -4 -45 -2 -45 3 0 15 101 25 117 12 38 -32 -3 -54
-99 -54 -72 1 -100 22 -96 74 2 26 10 39 28 48 37 19 111 16 139 -6z m-1248
-22 c5 -11 6 -19 2 -19 -13 0 -53 30 -53 40 0 15 40 -2 51 -21z m399 6 c0 -16
-46 -43 -55 -33 -11 11 7 37 28 41 12 2 23 5 25 6 1 0 2 -6 2 -14z m-319 -27
c9 -17 7 -18 -18 -12 -37 9 -43 13 -43 28 0 20 49 7 61 -16z m-60 -25 c13 -15
12 -15 -8 -4 -24 12 -29 21 -14 21 5 0 15 -7 22 -17z m389 2 c-7 -9 -15 -13
-17 -11 -7 7 7 26 19 26 6 0 6 -6 -2 -15z m578 -73 c29 -44 32 -55 32 -124 l0
-75 -77 -7 c-42 -3 -98 -6 -125 -6 l-49 0 6 68 c6 62 5 71 -24 126 -17 32 -31
60 -31 62 0 2 53 4 118 4 l117 -1 33 -47z m512 -107 l0 -35 -220 0 c-210 0
-220 1 -220 19 0 11 -3 26 -6 35 -5 14 18 16 220 16 l226 0 0 -35z"/>
<path d="M6155 4283 c-16 -9 -75 -34 -130 -55 -113 -44 -73 -41 51 4 81 29
124 52 114 61 -3 3 -18 -2 -35 -10z"/>
<path d="M3980 4222 c-7 -37 -15 -73 -18 -81 -3 -8 -1 -12 5 -8 11 7 39 144
31 152 -2 3 -10 -26 -18 -63z"/>
<path d="M4100 4286 c0 -16 196 -67 250 -65 15 1 7 5 -20 11 -73 15 -194 46
-212 53 -10 4 -18 4 -18 1z"/>
<path d="M4044 4253 c8 -16 27 -39 42 -53 l28 -25 -19 30 c-40 65 -48 75 -56
75 -5 0 -3 -12 5 -27z"/>
<path d="M6187 4214 c-15 -31 -26 -59 -23 -61 7 -7 58 96 54 108 -2 6 -16 -16
-31 -47z"/>
<path d="M6252 4200 c0 -14 4 -36 8 -50 l8 -25 0 25 c0 14 -4 36 -8 50 l-8 25
0 -25z"/>
<path d="M3755 3844 c-33 -7 -72 -13 -87 -14 -15 0 -29 -4 -32 -9 -8 -12 74
-2 153 20 77 20 53 23 -34 3z"/>
<path d="M6440 3852 c0 -12 70 -32 111 -31 31 1 29 2 -16 13 -27 7 -60 16 -72
20 -13 4 -23 3 -23 -2z"/>
<path d="M3512 3785 c13 -14 346 -57 568 -74 448 -34 1223 -45 1570 -23 96 7
245 16 330 22 226 14 366 30 413 46 42 13 42 13 -33 9 -41 -3 -154 -10 -250
-15 -96 -5 -240 -14 -320 -20 -365 -25 -665 -31 -994 -21 -493 16 -812 34
-996 56 -158 19 -296 29 -288 20z"/>
<path d="M6565 3780 c-14 -6 -3 -9 40 -9 33 0 67 4 75 9 19 12 -86 12 -115 0z"/>
<path d="M6694 3355 c0 -60 1 -84 3 -52 2 32 2 81 0 110 -2 29 -3 3 -3 -58z"/>
<path d="M6657 2898 c-9 -109 -7 -530 1 -588 4 -25 7 116 7 312 0 197 0 358
-1 358 -1 0 -4 -37 -7 -82z"/>
<path d="M6693 1860 c0 -36 2 -50 4 -32 2 17 2 47 0 65 -2 17 -4 3 -4 -33z"/>
<path d="M3574 2380 c0 -135 2 -190 3 -122 2 67 2 177 0 245 -1 67 -3 12 -3
-123z"/>
<path d="M3782 3365 c-39 -36 -90 -89 -113 -118 -25 -30 6 -5 74 63 64 63 117
116 117 117 0 8 -14 -3 -78 -62z"/>
<path d="M6535 3280 c21 -22 41 -40 44 -40 3 0 -13 18 -34 40 -21 22 -41 40
-44 40 -3 0 13 -18 34 -40z"/>
<path d="M6216 3319 c-3 -34 -5 -134 -4 -223 l1 -161 8 220 c4 121 6 221 5
223 -2 1 -6 -25 -10 -59z"/>
<path d="M6238 2684 c-5 -4 -8 -48 -7 -98 1 -75 2 -85 10 -58 11 38 8 168 -3
156z"/>
<path d="M4002 3360 c0 -19 2 -27 5 -17 2 9 2 25 0 35 -3 9 -5 1 -5 -18z"/>
<path d="M4018 3070 c3 -140 6 -257 8 -259 7 -7 2 382 -5 449 -4 36 -5 -50 -3
-190z"/>
<path d="M5085 3201 c-99 -45 -143 -172 -96 -277 61 -135 256 -135 319 0 52
109 8 239 -95 282 -43 19 -80 17 -128 -5z m157 -48 c29 -25 58 -91 58 -133 0
-41 -29 -108 -56 -131 -80 -69 -200 -30 -234 75 -22 68 10 169 63 198 56 30
130 26 169 -9z"/>
<path d="M5140 3046 c0 -16 24 -39 32 -30 3 3 4 14 1 25 -6 22 -33 26 -33 5z"/>
<path d="M5056 3041 c-7 -11 3 -41 14 -41 14 0 21 17 14 34 -7 18 -20 21 -28
7z"/>
<path d="M5165 2959 c-22 -10 -50 -19 -62 -19 -13 0 -23 -4 -23 -10 0 -13 56
-13 82 1 27 15 35 3 13 -21 -16 -17 -16 -20 -2 -20 20 0 47 38 47 67 0 27 -3
27 -55 2z"/>
<path d="M5555 3158 c-2 -7 -11 -39 -20 -71 -24 -88 -64 -165 -99 -191 -53
-40 -139 -79 -181 -83 -22 -2 -67 -7 -100 -11 l-60 -7 -56 -75 c-31 -41 -60
-75 -65 -77 -5 -2 -22 29 -38 68 -16 40 -39 77 -52 86 -13 8 -26 23 -29 34 -9
28 -35 24 -35 -5 0 -15 11 -33 29 -48 19 -14 43 -53 64 -103 44 -104 59 -107
117 -28 l42 58 -6 -45 c-17 -139 -18 -158 -7 -164 17 -11 27 27 40 149 7 61
15 113 19 116 4 4 35 9 69 12 l63 5 9 -36 c5 -21 14 -73 21 -118 13 -88 23
-115 39 -99 6 6 2 50 -10 120 -10 61 -19 115 -19 121 0 6 15 18 33 25 77 31
166 94 187 131 30 54 70 176 70 215 0 32 -17 46 -25 21z"/>
<path d="M4493 2700 c-24 -10 -31 -44 -12 -55 6 -4 -4 -14 -23 -23 -32 -16
-33 -19 -31 -72 1 -30 3 -93 5 -141 3 -76 7 -93 43 -165 22 -43 40 -90 40
-104 0 -31 48 -48 98 -34 27 8 32 14 32 41 1 17 7 38 14 46 7 9 21 37 31 64
l18 48 78 5 c49 3 79 10 82 18 3 9 -16 12 -71 12 l-74 0 -5 65 c-4 43 -1 79 8
106 21 59 -4 119 -48 119 -16 0 -16 3 -6 20 11 16 10 23 -5 37 -20 20 -137 29
-174 13z m157 -27 c0 -3 -7 -14 -16 -24 -11 -12 -16 -39 -17 -84 -2 -55 1 -69
17 -81 28 -20 41 -17 54 11 25 55 5 116 -33 101 -9 -3 -13 -2 -10 4 8 14 38
13 53 -2 17 -17 15 -73 -4 -109 -12 -24 -13 -37 -5 -61 16 -45 4 -104 -40
-190 -21 -43 -36 -84 -33 -93 5 -12 -2 -15 -36 -15 -33 0 -41 3 -37 15 4 8
-14 54 -39 102 -41 81 -45 93 -43 158 1 39 -3 83 -10 98 -17 44 -14 85 9 97
15 8 25 8 38 0 16 -11 16 -11 0 -6 -21 6 -48 -19 -48 -45 0 -11 7 -33 15 -49
14 -27 18 -28 40 -18 14 6 27 20 31 30 10 33 -6 115 -27 134 -10 9 -19 21 -19
26 0 4 36 8 80 8 44 0 80 -3 80 -7z m-142 -139 c-2 -15 -8 -29 -14 -31 -17 -6
-27 46 -13 63 17 20 31 3 27 -32z m170 15 c3 -29 -12 -54 -27 -45 -12 8 -15
59 -4 70 12 12 28 0 31 -25z"/>
<path d="M4530 2660 c0 -5 20 -10 45 -10 25 0 45 5 45 10 0 6 -20 10 -45 10
-25 0 -45 -4 -45 -10z"/>
<path d="M3933 2611 c-83 -38 -124 -152 -89 -245 16 -41 56 -85 101 -111 16
-10 16 -13 -5 -49 -12 -22 -35 -79 -51 -127 -26 -77 -29 -101 -29 -207 0 -136
7 -182 26 -182 11 0 14 29 14 148 -1 118 3 160 19 212 l19 65 2 -115 c1 -63 5
-140 8 -170 11 -90 -6 -344 -33 -502 -14 -81 -25 -154 -25 -162 0 -27 29 -25
70 5 32 23 39 34 31 42 -9 9 -17 8 -32 -1 -12 -8 -22 -12 -24 -10 -1 2 8 64
21 138 12 74 24 179 25 233 1 53 5 97 9 97 3 0 21 -48 40 -107 26 -84 37 -145
49 -270 9 -89 21 -167 27 -173 9 -9 24 -7 59 9 39 17 45 23 35 35 -9 11 -18
13 -37 5 -14 -5 -27 -8 -29 -6 -2 1 -10 68 -19 147 -18 169 -48 286 -116 445
-15 35 -26 402 -13 415 5 5 45 -14 89 -41 43 -27 87 -49 96 -49 10 0 41 24 69
54 41 43 58 54 81 54 36 -1 42 4 42 36 0 14 8 33 18 42 25 22 24 34 -1 34 -13
0 -58 -36 -114 -90 -51 -49 -96 -90 -101 -90 -16 0 -175 106 -175 116 0 7 15
15 34 18 108 20 160 165 100 283 -19 40 -35 57 -68 72 -52 26 -69 26 -123 2z
m111 -33 c33 -15 53 -46 66 -103 13 -60 -1 -114 -40 -153 -49 -50 -113 -47
-165 8 -54 56 -45 183 16 235 33 27 81 33 123 13z"/>
<path d="M4185 2330 c-10 -17 23 -23 92 -17 103 8 104 27 1 27 -48 0 -90 -5
-93 -10z"/>
<path d="M3789 2128 c-86 -90 -89 -94 -89 -140 0 -67 7 -78 46 -78 l34 0 1
-67 c1 -38 4 -171 8 -298 l6 -230 38 -3 c28 -2 37 0 37 12 0 10 -9 16 -23 16
l-24 0 -6 282 c-4 190 -2 287 5 295 12 15 0 21 -52 25 -31 3 -35 6 -38 36 l-3
32 50 0 c39 0 51 4 51 15 0 11 -11 15 -41 15 l-41 0 71 77 c62 67 85 103 65
103 -3 0 -46 -42 -95 -92z"/>
<path d="M5421 1704 c1 -109 5 -233 9 -274 4 -41 5 47 3 195 -3 149 -7 272 -9
274 -2 2 -3 -85 -3 -195z"/>
<path d="M5112 1775 c0 -60 4 -153 8 -205 6 -89 7 -86 8 65 0 88 -3 180 -7
205 -7 35 -9 21 -9 -65z"/>
<path d="M5687 1640 c3 -63 9 -146 14 -185 5 -48 6 -25 3 75 -3 80 -9 163 -14
185 -6 26 -7 -1 -3 -75z"/>
<path d="M4394 1595 c0 -82 2 -115 3 -72 2 43 2 110 0 150 -1 40 -3 5 -3 -78z"/>
<path d="M5964 1520 c0 -52 1 -74 3 -47 2 26 2 68 0 95 -2 26 -3 4 -3 -48z"/>
<path d="M5972 1400 c0 -14 2 -19 5 -12 2 6 2 18 0 25 -3 6 -5 1 -5 -13z"/>
<path d="M3994 1329 c-8 -14 11 -33 25 -25 6 4 11 14 11 22 0 16 -26 19 -36 3z"/>
</g>
</svg>
