<?xml version="1.0" standalone="no"?>
<!DOCTYPE svg PUBLIC "-//W3C//DTD SVG 20010904//EN"
 "http://www.w3.org/TR/2001/REC-SVG-20010904/DTD/svg10.dtd">
<svg version="1.0" xmlns="http://www.w3.org/2000/svg"
 width="1024.000000pt" height="559.000000pt" viewBox="0 0 1024.000000 559.000000"
 preserveAspectRatio="xMidYMid meet">
<metadata>
Created by potrace 1.16, written by Peter Selinger 2001-2019
</metadata>
<g transform="translate(0.000000,559.000000) scale(0.100000,-0.100000)"
fill="#000000" stroke="none">
<path d="M4296 4480 c-27 -5 -54 -14 -59 -19 -6 -6 -18 -11 -27 -11 -9 0 -44
-14 -77 -30 -211 -105 -313 -401 -212 -615 30 -63 110 -142 184 -182 239 -126
510 -59 634 158 84 147 88 342 8 479 -28 49 -104 126 -157 160 -77 49 -204 75
-294 60z m159 -44 c163 -43 279 -171 308 -340 30 -179 -70 -379 -231 -458 -57
-28 -78 -33 -161 -36 -79 -3 -108 0 -161 18 -81 27 -147 68 -200 126 -107 116
-119 306 -29 475 57 107 179 195 286 207 24 2 46 9 49 13 8 13 82 11 139 -5z"/>
<path d="M4417 4029 c-21 -28 -22 -72 -3 -88 10 -8 16 -8 23 1 18 23 23 75 9
93 -12 17 -14 16 -29 -6z"/>
<path d="M4616 4018 c-10 -40 -6 -68 10 -75 21 -8 34 14 34 60 0 30 -4 37 -19
37 -11 0 -21 -9 -25 -22z"/>
<path d="M4465 3773 c-44 -2 -87 -6 -95 -9 -32 -11 16 -24 92 -24 85 0 143 15
118 30 -8 6 -19 9 -25 8 -5 -1 -46 -3 -90 -5z"/>
<path d="M5415 3685 c-30 -29 -32 -68 -5 -95 11 -11 15 -22 9 -25 -5 -4 -18
-24 -29 -46 -11 -21 -27 -39 -34 -39 -27 0 -76 -51 -86 -91 -6 -21 -14 -39
-18 -39 -4 0 -36 -25 -72 -56 -67 -57 -229 -181 -267 -205 -19 -11 -25 -11
-44 6 -46 42 -329 406 -329 424 0 21 -51 24 -93 5 -50 -23 -178 -25 -249 -5
-72 20 -94 10 -113 -51 -22 -75 -44 -186 -65 -328 -13 -91 -26 -145 -49 -194
-93 -205 -104 -334 -36 -406 l24 -25 -14 -100 c-8 -55 -21 -172 -30 -260 l-16
-160 25 -22 c22 -19 138 -53 180 -53 19 0 19 -6 6 -165 -11 -125 -28 -246 -61
-425 -10 -58 -19 -119 -19 -137 0 -44 47 -89 117 -109 63 -18 112 -13 138 16
42 46 -35 106 -151 117 -53 5 -64 9 -60 22 20 64 69 431 73 544 l6 138 81 -7
c74 -5 219 6 257 21 25 9 39 -153 39 -450 l0 -254 29 -15 c16 -9 58 -20 94
-26 145 -23 223 36 130 98 -21 13 -48 17 -120 17 l-93 0 0 220 c0 121 -5 256
-10 300 -6 44 -12 89 -13 100 -1 15 10 24 48 40 80 33 154 77 160 94 3 10 -13
104 -36 211 -22 107 -43 207 -46 222 -4 21 2 36 25 62 34 39 48 102 34 151
-15 54 -33 36 -35 -37 -2 -61 -5 -70 -36 -102 -31 -31 -110 -74 -171 -91 -21
-6 -19 -2 14 26 37 31 96 112 96 132 0 5 -12 -6 -27 -24 -71 -85 -161 -141
-244 -153 -59 -9 -172 14 -235 48 -26 14 -50 23 -53 21 -9 -10 34 -46 87 -72
102 -50 272 -42 427 20 l80 32 42 -210 c23 -115 43 -215 43 -221 0 -14 -133
-75 -220 -100 -93 -27 -394 -26 -490 3 l-65 19 2 74 c2 66 25 304 39 398 4 24
9 32 19 28 30 -11 23 13 -10 38 -19 15 -42 40 -50 56 -24 46 -19 134 13 225
26 78 27 79 30 41 2 -24 -2 -42 -10 -47 -27 -18 13 -28 54 -13 47 16 145 80
157 102 11 20 10 21 38 -40 19 -39 29 -49 61 -57 50 -14 199 -28 382 -37 134
-6 147 -8 174 -31 68 -57 149 -81 231 -69 33 5 50 14 62 32 14 23 15 27 1 41
-9 8 -46 21 -84 29 -78 17 -81 18 -65 37 16 20 3 47 -23 47 -11 0 -46 -12 -76
-26 -54 -26 -57 -26 -215 -19 -165 7 -328 20 -371 31 -14 4 -31 19 -39 33 -22
43 -92 313 -120 465 -32 167 -29 176 48 150 36 -12 75 -15 158 -12 l111 3 -7
-54 c-13 -106 -94 -288 -177 -398 -45 -61 -24 -67 28 -8 87 98 184 335 184
449 0 20 5 36 11 36 9 0 10 -46 6 -167 -6 -165 -5 -167 8 -88 7 44 14 98 14
119 1 22 3 37 5 35 2 -2 16 -71 30 -154 24 -138 69 -321 95 -387 12 -31 46
-40 37 -10 -36 118 -131 541 -123 548 1 1 36 -43 78 -99 129 -172 207 -257
233 -257 31 0 140 73 281 188 97 79 112 89 126 76 8 -8 21 -14 27 -14 16 0 15
-32 0 -52 -7 -9 -26 -18 -43 -20 -39 -4 -63 -45 -50 -85 9 -25 24 -33 145 -75
143 -49 211 -58 247 -33 29 20 50 85 57 175 9 114 29 159 102 241 56 62 64 77
64 111 0 46 -35 88 -74 88 -14 0 -87 16 -162 35 -75 19 -143 35 -151 35 -7 0
-25 -11 -38 -25z m288 -59 c25 -6 26 -9 16 -28 -7 -12 -15 -32 -18 -44 l-6
-21 -80 23 c-44 12 -106 30 -137 39 -54 14 -58 18 -58 46 0 47 27 50 149 18
58 -15 118 -30 134 -33z m95 -28 c7 -7 12 -28 12 -47 0 -28 -10 -45 -55 -92
-74 -78 -101 -140 -109 -253 -4 -49 -13 -103 -22 -121 -18 -39 -59 -61 -80
-44 -22 18 -16 30 12 27 33 -4 54 24 38 49 -11 19 -37 28 -172 64 -76 20 -83
24 -77 43 17 55 25 94 25 126 0 30 5 38 38 55 44 24 53 56 22 78 -20 14 -21
17 -6 45 9 17 20 33 25 37 5 3 66 -10 135 -30 144 -40 181 -43 196 -16 15 30
12 40 -15 53 -19 9 -22 14 -14 25 14 16 31 17 47 1z m-43 -56 c0 -20 -19 -18
-23 2 -3 12 1 17 10 14 7 -3 13 -10 13 -16z m-377 -113 c-35 -18 -38 -23 -38
-64 0 -48 -9 -55 -34 -29 -19 19 -19 18 -1 54 19 37 52 60 85 60 23 -1 22 -3
-12 -21z m-1258 -175 c18 -92 61 -269 74 -304 4 -9 -4 -22 -21 -33 -105 -67
-138 -87 -146 -87 -4 0 -6 19 -3 43 3 23 13 98 21 167 17 142 47 322 52 316 2
-2 12 -48 23 -102z m1236 -84 c28 -10 77 -24 108 -31 42 -9 55 -16 51 -27 -3
-7 -5 -27 -5 -43 l0 -29 -52 19 c-29 11 -86 29 -126 41 -59 18 -73 26 -78 46
-8 29 13 57 35 48 9 -3 39 -14 67 -24z m214 -65 c0 -8 -4 -15 -9 -15 -13 0
-22 16 -14 24 11 11 23 6 23 -9z m-635 -315 c-5 -16 0 -23 28 -35 19 -8 55
-17 79 -21 101 -16 68 -41 -41 -31 -54 4 -141 45 -141 65 0 5 54 34 78 41 2 1
0 -8 -3 -19z m-180 -1532 c34 -16 31 -26 -10 -34 -33 -6 -147 10 -169 24 -33
20 136 30 179 10z m-588 -83 c45 -7 97 -40 88 -56 -9 -14 -72 -11 -112 6 -67
28 -99 72 -45 61 15 -3 46 -8 69 -11z"/>
<path d="M5460 3511 c0 -13 99 -48 183 -66 50 -10 28 11 -24 23 -28 7 -65 18
-83 26 -40 18 -76 26 -76 17z"/>
<path d="M5490 3442 c0 -10 61 -33 123 -46 53 -12 26 12 -30 27 -32 8 -66 18
-75 22 -11 4 -18 3 -18 -3z"/>
<path d="M5433 3373 c7 -11 155 -48 163 -40 6 6 -76 33 -130 43 -25 4 -37 3
-33 -3z"/>
<path d="M5430 3301 c25 -15 90 -24 90 -13 0 9 -55 22 -90 22 -13 -1 -13 -2 0
-9z"/>
<path d="M5487 3223 c-15 -14 -5 -20 28 -17 19 1 35 -2 35 -7 0 -12 37 -12 45
1 3 6 -3 10 -14 10 -12 0 -21 5 -21 10 0 11 -63 14 -73 3z"/>
<path d="M5425 2883 c-46 -12 -61 -54 -27 -79 15 -12 14 -13 -10 -14 -33 0
-65 -29 -74 -66 -4 -15 0 -50 10 -83 10 -31 17 -60 17 -66 -1 -5 -4 -37 -7
-71 -5 -52 -2 -70 24 -136 17 -42 42 -95 57 -117 17 -28 23 -49 19 -65 -9 -37
32 -60 98 -54 57 6 78 24 71 63 -3 14 3 38 16 59 12 19 33 67 47 108 23 63 25
84 20 150 -4 56 -1 87 9 112 8 20 15 55 15 79 0 52 -30 87 -75 87 -27 0 -27 1
-12 18 21 23 22 46 1 63 -16 13 -162 22 -199 12z m182 -36 c3 -4 -4 -18 -16
-31 -19 -20 -24 -39 -28 -100 -5 -70 -3 -77 21 -101 32 -32 51 -32 64 3 32 80
26 117 -21 131 l-32 9 31 1 c16 1 35 -4 42 -11 15 -15 15 -63 1 -108 -7 -19
-12 -82 -13 -140 -1 -104 -1 -106 -49 -201 -26 -53 -45 -103 -42 -112 5 -11
-2 -17 -24 -22 -43 -9 -71 2 -71 28 0 12 -24 68 -52 125 -52 102 -53 105 -54
195 0 51 -7 113 -14 139 -19 63 -6 102 34 106 16 2 34 -2 40 -8 8 -9 4 -10
-16 -5 -21 5 -30 2 -43 -18 -13 -21 -14 -33 -6 -64 6 -21 17 -47 25 -58 14
-20 15 -20 43 1 27 21 28 25 27 103 0 69 -4 84 -22 104 -27 28 -27 34 -4 41
23 7 170 1 179 -7z m-179 -168 c2 -23 -2 -40 -12 -48 -13 -11 -17 -9 -26 14
-5 14 -10 38 -10 51 0 21 4 25 23 22 17 -2 23 -10 25 -39z m212 8 c0 -18 -6
-42 -14 -52 -13 -18 -14 -18 -25 3 -6 11 -11 34 -11 51 0 26 4 31 25 31 22 0
25 -4 25 -33z"/>
<path d="M5444 2831 c8 -13 62 -21 96 -14 52 10 32 23 -36 23 -36 0 -63 -4
-60 -9z"/>
<path d="M5925 2587 c-11 -18 -22 -23 -43 -19 -17 2 -37 -3 -51 -16 -36 -28
-19 -45 39 -40 45 5 46 4 36 -17 -5 -12 -19 -26 -31 -31 -13 -6 -20 -19 -21
-39 0 -17 -4 -36 -8 -43 -4 -7 -5 -25 -1 -41 l6 -28 -80 5 c-95 5 -141 -7 -71
-19 25 -4 70 -8 101 -8 54 -1 57 -3 70 -32 46 -112 156 -156 371 -146 62 2
131 10 153 17 38 12 95 61 125 109 14 21 20 22 72 16 l56 -7 -135 -121 -135
-121 -172 12 c-94 7 -229 17 -301 22 -351 26 -582 41 -702 47 -73 3 -133 9
-133 12 0 3 51 33 113 65 143 75 195 108 180 113 -14 5 -316 -152 -339 -175
-16 -15 -19 -99 -5 -121 5 -8 26 -17 47 -20 l39 -6 0 -360 1 -360 34 -17 c50
-26 76 -22 116 15 l35 32 -10 228 c-6 126 -11 278 -11 338 l0 109 38 0 39 0 6
-157 c4 -87 7 -193 7 -235 l0 -77 40 -12 c37 -11 42 -10 63 9 23 22 23 24 21
241 l-3 219 52 -4 c96 -8 441 -33 532 -40 50 -3 99 -8 109 -11 19 -5 19 -17
13 -378 l-7 -373 32 -11 c17 -6 48 -11 68 -11 31 0 44 7 69 35 17 20 32 41 32
48 1 7 0 131 -1 277 -1 146 1 296 5 333 7 64 9 69 51 104 25 20 46 34 48 32 1
-2 -1 -125 -6 -273 -5 -183 -5 -273 2 -281 28 -34 96 -20 120 25 6 11 14 157
20 345 l10 326 35 36 c32 33 35 42 35 93 0 31 -5 61 -12 68 -7 7 -40 12 -80
12 l-68 0 6 54 c4 35 3 56 -5 60 -6 4 -11 20 -11 37 0 29 -30 69 -51 69 -6 0
-8 7 -5 17 11 27 -24 83 -51 83 -20 0 -23 -5 -23 -39 0 -34 -3 -38 -19 -34
-11 3 -21 15 -23 27 -2 11 -9 20 -16 19 -6 -2 -12 4 -12 12 0 17 -26 20 -35 4
-5 -6 -11 -4 -19 7 -11 15 -16 12 -47 -26 -33 -39 -37 -41 -61 -29 -23 10 -33
8 -69 -10 l-41 -22 -15 21 c-17 25 -58 26 -72 3 -16 -27 -32 2 -20 34 18 48 1
61 -26 20z m513 -48 c-3 -20 -5 -19 -9 9 -3 20 -2 29 4 23 5 -5 7 -19 5 -32z
m-168 11 c0 -6 6 -10 13 -9 26 3 47 -1 47 -10 0 -14 -44 -80 -53 -81 -5 0 -6
13 -2 29 3 16 2 32 -4 35 -12 8 -41 -20 -41 -40 0 -8 -4 -14 -10 -14 -16 0
-11 30 11 66 20 33 39 44 39 24z m-375 -10 c4 -6 -5 -10 -20 -10 -15 0 -24 4
-20 10 3 6 12 10 20 10 8 0 17 -4 20 -10z m120 -40 c-5 -8 -11 -8 -21 1 -12
10 -12 14 -2 20 16 10 33 -5 23 -21z m163 -2 c16 -16 15 -28 -3 -28 -8 0 -23
-9 -32 -20 -26 -30 -38 -24 -36 17 1 21 2 39 2 41 3 8 59 0 69 -10z m218 -19
c14 -15 26 -19 48 -15 34 7 56 -8 56 -38 0 -35 -26 -63 -67 -70 -21 -3 -47 -8
-58 -12 -18 -4 -20 0 -20 35 0 24 -7 47 -19 59 -17 20 -17 21 3 41 26 26 33
26 57 0z m-431 2 c3 -5 1 -13 -5 -16 -15 -9 -43 3 -35 15 8 13 32 13 40 1z
m113 -13 c-3 -7 -8 -13 -13 -13 -5 0 -10 6 -12 13 -3 6 3 12 12 12 9 0 15 -6
13 -12z m-60 -20 c-3 -7 -8 -13 -13 -13 -5 0 -10 6 -12 13 -3 6 3 12 12 12 9
0 15 -6 13 -12z m-115 -29 c-17 -17 -37 -1 -22 17 8 10 15 12 23 4 7 -7 7 -13
-1 -21z m320 -1 c12 -19 18 -21 28 -10 37 35 88 -3 66 -49 -11 -21 -20 -24
-77 -27 -64 -3 -65 -2 -78 28 -19 42 -8 80 22 80 13 0 30 -10 39 -22z m-248
-8 c3 -5 2 -10 -4 -10 -5 0 -13 5 -16 10 -3 6 -2 10 4 10 5 0 13 -4 16 -10z
m85 -10 c0 -5 -7 -10 -15 -10 -8 0 -15 5 -15 10 0 6 7 10 15 10 8 0 15 -4 15
-10z m49 -15 c3 -12 -13 -9 -17 4 -2 7 0 11 6 7 5 -3 10 -8 11 -11z m-164 -6
c10 -14 1 -21 -19 -13 -9 3 -13 10 -10 15 7 12 21 11 29 -2z m73 -17 c2 -7 -6
-12 -17 -12 -21 0 -27 11 -14 24 9 9 26 2 31 -12z m57 -12 c3 -5 -1 -10 -9
-10 -9 0 -16 5 -16 10 0 6 4 10 9 10 6 0 13 -4 16 -10z m-84 -36 c52 -12 118
-18 222 -18 81 0 147 -1 147 -2 0 -19 -18 -34 -40 -34 -16 0 -32 -4 -35 -10
-4 -6 7 -10 25 -10 30 0 31 -2 25 -29 -6 -29 -6 -30 24 -21 25 7 31 6 31 -6 0
-25 -51 -37 -168 -38 -90 -1 -115 2 -122 14 -7 11 -4 16 13 21 22 5 22 6 -3
14 -24 7 -40 22 -40 38 0 4 17 8 38 8 l37 1 -39 8 c-22 4 -45 16 -53 26 -11
16 -13 16 -13 1 0 -13 -6 -15 -32 -11 -18 4 -39 14 -45 22 -8 10 -13 11 -13 4
0 -19 -28 -14 -50 8 -26 26 -27 55 -2 41 11 -6 52 -18 93 -27z m149 26 c0 -5
-4 -10 -10 -10 -5 0 -10 5 -10 10 0 6 5 10 10 10 6 0 10 -4 10 -10z m373 -11
c-3 -11 -17 -25 -30 -30 -32 -12 -33 -12 -33 6 0 8 15 21 33 29 17 8 33 15 34
15 0 1 -1 -8 -4 -20z m-73 -24 c0 -14 -37 -35 -61 -35 -21 0 -3 34 21 41 38
11 40 10 40 -6z m60 -23 c0 -14 -40 -52 -55 -52 -21 0 -19 8 11 35 27 25 44
32 44 17z m-560 -12 c11 0 34 -40 27 -47 -9 -8 -46 17 -58 39 -10 18 -9 20 6
15 9 -4 21 -7 25 -7z m480 -25 c0 -17 -35 -37 -58 -33 -15 3 -14 6 6 26 25 25
52 29 52 7z m-368 -18 c12 -20 9 -30 -8 -23 -9 3 -22 6 -29 6 -8 0 -19 10 -26
21 -11 21 -10 22 22 15 18 -3 37 -12 41 -19z m618 -37 c0 -43 -18 -63 -215
-243 l-50 -46 -3 44 c-3 41 0 47 40 82 23 21 83 75 133 120 49 45 91 82 93 83
1 0 2 -18 2 -40z m-680 5 c19 -23 8 -26 -20 -5 -19 15 -21 20 -9 20 9 0 22 -7
29 -15z m446 0 c-21 -16 -32 -13 -21 4 3 6 14 11 23 11 15 -1 15 -2 -2 -15z
m-356 -25 c13 -24 10 -24 -35 -6 -43 18 -44 26 -5 26 19 0 33 -7 40 -20z
m-640 -125 c201 -14 484 -35 629 -45 145 -11 272 -20 282 -20 16 0 19 -8 19
-45 0 -29 -4 -45 -12 -45 -13 0 -342 25 -468 35 -36 3 -159 12 -275 20 -607
44 -575 40 -575 69 0 22 3 22 48 15 26 -4 108 -10 182 -13 l135 -5 -165 15
c-91 8 -175 19 -188 24 -26 11 -22 30 6 24 9 -2 181 -15 382 -29z m1167 -63
c-4 -33 -9 -171 -13 -308 -5 -194 -10 -253 -22 -269 -13 -18 -13 -5 -8 114 3
73 9 215 12 315 6 195 7 206 25 206 8 0 10 -17 6 -58z m-58 -300 c-12 -304
-13 -311 -32 -300 -19 10 -20 19 -13 292 7 266 9 282 29 303 11 13 22 21 24
19 2 -2 -1 -144 -8 -314z m-1346 -89 c3 -197 4 -359 2 -362 -2 -2 -20 0 -40 3
l-35 7 0 323 c0 178 -3 338 -6 355 -6 31 -6 31 33 31 l40 0 6 -357z m47 185
c0 -95 5 -247 11 -337 10 -156 10 -165 -9 -183 -18 -19 -19 -14 -25 328 -4
190 -4 350 -1 355 18 30 24 -8 24 -163z m170 -13 c0 -89 3 -190 7 -224 6 -62
6 -63 -18 -59 l-24 3 -5 220 c-3 121 -4 223 -3 227 2 3 12 4 23 1 19 -5 20
-14 20 -168z m42 -51 c2 -119 0 -218 -3 -220 -6 -3 -19 246 -19 368 0 37 4 68
10 68 5 0 10 -86 12 -216z m839 -219 c-2 -203 -5 -371 -6 -373 -2 -2 -23 0
-47 5 l-43 9 5 174 c3 96 5 262 4 368 l0 193 45 -3 46 -3 -4 -370z m61 27 c-3
-318 -5 -338 -23 -362 l-20 -25 5 160 c3 88 6 253 6 367 0 194 1 206 18 201
17 -4 18 -23 14 -341z"/>
<path d="M6015 1950 c33 -4 89 -8 125 -7 l65 0 -70 7 c-38 4 -95 7 -125 7
l-55 0 60 -7z"/>
<path d="M6223 1933 c9 -2 25 -2 35 0 9 3 1 5 -18 5 -19 0 -27 -2 -17 -5z"/>
<path d="M6532 1845 c-1 -55 -4 -118 -7 -140 l-5 -40 10 40 c6 22 9 85 7 140
l-3 100 -2 -100z"/>
<path d="M5154 1805 c0 -55 1 -76 3 -47 2 29 2 74 0 100 -2 26 -3 2 -3 -53z"/>
<path d="M6242 1775 c0 -16 2 -22 5 -12 2 9 2 23 0 30 -3 6 -5 -1 -5 -18z"/>
<path d="M6248 1666 c-5 -27 -7 -76 -7 -110 l1 -61 9 60 c5 33 8 83 7 110 l-3
50 -7 -49z"/>
<path d="M6273 1385 c0 -33 2 -45 4 -27 2 18 2 45 0 60 -2 15 -4 0 -4 -33z"/>
<path d="M6263 1270 c0 -30 2 -43 4 -27 2 15 2 39 0 55 -2 15 -4 2 -4 -28z"/>
</g>
</svg>
