<?xml version="1.0" standalone="no"?>
<!DOCTYPE svg PUBLIC "-//W3C//DTD SVG 20010904//EN"
 "http://www.w3.org/TR/2001/REC-SVG-20010904/DTD/svg10.dtd">
<svg version="1.0" xmlns="http://www.w3.org/2000/svg"
 width="1024.000000pt" height="559.000000pt" viewBox="0 0 1024.000000 559.000000"
 preserveAspectRatio="xMidYMid meet">
<metadata>
Created by potrace 1.16, written by Peter Selinger 2001-2019
</metadata>
<g transform="translate(0.000000,559.000000) scale(0.100000,-0.100000)"
fill="#000000" stroke="none">
<path d="M5722 4248 c-5 -7 -18 -39 -27 -72 l-17 -58 -44 43 c-53 52 -73 45
-56 -20 11 -45 8 -49 -20 -24 -28 25 -42 5 -29 -41 6 -25 6 -46 -1 -66 l-10
-29 -64 49 c-36 28 -72 50 -80 50 -38 0 4 -115 68 -185 43 -48 50 -61 52 -101
1 -25 8 -49 15 -54 11 -6 8 -24 -13 -88 -27 -80 -38 -96 -80 -117 -18 -10 -21
-18 -18 -72 l3 -60 -143 -50 c-79 -28 -160 -56 -180 -62 -51 -17 -62 -33 -56
-86 6 -51 3 -54 -21 -23 -27 33 -51 18 -51 -32 0 -43 -3 -45 -59 -34 -23 5
-35 15 -45 39 -12 29 -38 54 -115 114 -25 18 -25 19 -7 46 19 29 15 55 -9 55
-11 0 -15 12 -15 50 0 41 8 62 45 124 51 84 85 173 85 224 0 74 -49 133 -122
146 -21 4 -38 10 -38 14 0 4 19 16 43 27 35 17 43 25 45 51 3 26 -3 37 -32 60
-59 49 -234 104 -331 104 -35 0 -48 -5 -64 -26 -21 -27 -19 -42 12 -87 10 -16
17 -30 15 -32 -2 -2 -25 3 -50 13 -44 16 -49 15 -94 -4 -85 -35 -124 -128
-124 -294 0 -75 -1 -79 -39 -126 -55 -70 -70 -104 -95 -214 l-22 -99 -27 58
c-17 37 -49 79 -86 114 -57 53 -59 57 -70 128 -17 105 -47 182 -92 233 -65 73
-144 84 -210 28 l-32 -26 7 29 c21 82 19 102 -8 120 -25 17 -31 17 -94 1 -132
-32 -302 -140 -302 -192 0 -32 26 -60 70 -73 39 -12 47 -31 12 -31 -29 0 -80
-38 -98 -72 -10 -19 -16 -54 -16 -86 1 -69 33 -136 118 -244 58 -73 64 -86 64
-128 0 -25 7 -68 16 -94 14 -40 14 -50 3 -56 -20 -13 -26 -5 -39 50 -10 43
-16 50 -36 50 -24 0 -49 -31 -36 -44 4 -4 -7 -4 -23 0 -63 17 -115 1 -115 -36
0 -24 21 -31 105 -39 66 -7 68 -8 41 -19 -15 -7 -52 -28 -82 -48 -102 -68
-134 -168 -81 -250 14 -22 37 -88 52 -149 56 -228 150 -400 297 -541 129 -124
287 -191 530 -225 67 -9 86 -16 101 -35 17 -22 17 -24 -2 -34 -36 -19 -35
-119 1 -141 6 -4 -1 -17 -16 -32 -20 -20 -26 -36 -26 -70 0 -27 6 -49 15 -57
9 -8 15 -30 15 -56 0 -70 48 -105 168 -125 110 -18 245 13 293 67 26 29 32 77
16 116 -13 32 -13 36 9 62 26 29 32 91 14 127 -8 14 -6 25 6 44 12 18 15 40
12 78 l-4 53 99 22 99 22 18 -22 c26 -31 25 -33 -14 -56 -71 -42 -102 -160
-61 -230 26 -43 75 -74 176 -110 119 -43 343 -125 484 -179 222 -84 456 -163
484 -163 67 0 141 41 566 314 127 81 236 155 243 164 15 20 16 74 0 90 -9 9
-9 15 0 24 23 23 14 78 -17 107 -22 20 -28 34 -24 50 6 25 25 26 84 5 37 -13
52 -14 99 -3 65 15 86 24 208 97 52 30 105 71 119 89 16 21 83 67 172 120 80
48 189 112 241 143 l95 56 7 265 c4 145 9 309 12 364 2 55 5 154 5 220 0 100
-3 123 -17 136 -15 14 -68 27 -335 84 -72 16 -79 20 -91 49 -8 18 -25 42 -40
53 -25 20 -26 25 -20 76 7 55 6 56 -26 76 -73 44 -276 52 -369 15 -45 -18 -56
-40 -49 -99 6 -48 -13 -52 -136 -23 l-98 23 -24 76 c-13 42 -30 81 -37 87 -7
6 -48 22 -90 36 -93 30 -200 101 -192 126 6 19 -21 90 -34 90 -5 0 -8 58 -7
128 1 96 -3 133 -13 145 -22 28 -30 18 -71 -96 l-17 -48 -26 39 c-15 21 -27
43 -27 48 0 12 -39 94 -44 94 -2 0 -8 -6 -14 -12z m4 -90 c-13 -18 -16 -19
-16 -6 0 9 5 29 12 45 11 27 12 27 15 6 3 -13 -3 -33 -11 -45z m186 -43 c0
-37 -4 -85 -9 -108 -8 -41 -8 -41 -14 28 l-5 70 -2 -77 c-1 -53 2 -78 11 -82
8 -3 6 -9 -7 -20 -30 -24 -39 -20 -68 34 -19 34 -28 65 -28 96 l0 45 23 -27
c28 -32 43 -26 52 19 10 46 34 101 41 94 4 -3 6 -36 6 -72z m-234 -15 c15 0
15 -19 -1 -48 l-13 -23 -21 23 c-23 25 -43 69 -43 96 0 12 9 7 33 -16 18 -18
38 -32 45 -32z m80 -92 l-4 -142 -34 -7 c-25 -5 -37 -4 -42 5 -4 8 -27 40 -51
72 -45 62 -84 140 -74 150 3 3 31 -17 62 -46 31 -28 60 -48 65 -45 5 3 16 29
25 57 15 50 40 98 51 98 3 0 4 -64 2 -142z m-1270 116 c42 -8 114 -33 160 -55
94 -45 101 -62 39 -92 -33 -15 -77 -67 -77 -91 0 -5 18 -6 40 -2 46 7 95 -10
125 -44 15 -16 20 -36 20 -74 -1 -52 -19 -96 -99 -243 -28 -50 -34 -70 -30
-105 2 -24 1 -37 -2 -30 -9 19 -32 14 -45 -9 -8 -15 -14 -18 -22 -10 -6 6 -19
11 -30 11 -16 0 -18 -6 -15 -41 l3 -40 -75 -37 c-67 -33 -78 -42 -100 -87 -14
-27 -25 -51 -25 -52 0 -1 -13 1 -28 4 -35 7 -44 27 -27 59 20 36 1 52 -41 37
-28 -11 -33 -10 -49 10 -15 18 -20 19 -34 8 -9 -7 -16 -22 -16 -32 0 -15 -6
-17 -35 -12 -48 8 -57 -18 -21 -56 l27 -28 -46 -28 c-26 -15 -56 -43 -68 -63
l-21 -36 -14 100 c-16 120 -9 254 18 347 20 71 35 100 84 162 28 35 30 44 37
160 8 133 26 191 70 232 41 37 106 34 152 -7 19 -16 37 -27 41 -23 14 15 5 91
-14 116 -20 26 -25 48 -13 60 10 11 48 8 131 -9z m971 -129 c32 -25 62 -45 65
-45 4 0 11 12 17 27 l10 27 19 -32 c14 -22 20 -51 20 -87 0 -54 0 -55 -30 -55
-22 0 -40 11 -72 46 -60 64 -117 164 -93 164 3 0 31 -20 64 -45z m-2053 -67
c-16 -85 -18 -116 -6 -138 12 -22 12 -22 35 13 29 42 87 71 123 62 74 -18 120
-90 153 -238 11 -50 23 -99 27 -107 3 -8 6 -20 7 -26 0 -7 20 -27 45 -46 78
-59 117 -138 151 -306 24 -117 24 -115 -3 -98 -13 8 -38 17 -56 21 -28 6 -32
10 -25 28 11 31 9 95 -4 108 -24 24 -123 -58 -123 -103 0 -11 -3 -18 -7 -16
-5 2 -20 10 -36 18 -22 11 -30 11 -40 1 -9 -10 -6 -17 17 -36 l29 -23 -44 -7
c-46 -8 -109 -59 -109 -89 0 -11 -9 -16 -30 -16 -27 0 -30 3 -30 30 0 66 -92
96 -140 45 -38 -41 -69 -31 -104 33 -21 41 -29 69 -30 117 -2 58 -5 67 -46
120 -116 149 -140 194 -140 266 0 45 4 55 34 85 30 30 40 34 85 34 28 0 51 4
51 9 0 22 -55 72 -92 83 -22 6 -43 18 -46 27 -9 23 71 87 163 131 91 43 105
47 159 49 38 1 38 1 32 -31z m2404 1 c11 -26 11 -32 -1 -40 -24 -15 -29 -10
-29 31 0 48 13 52 30 9z m130 -8 c0 -33 -120 -84 -273 -117 -80 -16 -160 -19
-137 -4 8 5 31 10 50 10 83 0 314 75 334 109 9 13 26 15 26 2z m-289 -63 c8
-15 6 -18 -11 -18 -16 0 -20 6 -20 33 0 33 4 31 31 -15z m289 -3 c-27 -29
-101 -58 -215 -86 -85 -20 -205 -26 -205 -9 0 6 24 10 54 10 105 0 294 52 350
95 38 30 47 23 16 -10z m196 -170 c66 -56 103 -95 152 -164 37 -51 40 -66 11
-51 -11 7 -28 9 -36 6 -9 -4 -21 1 -29 11 -12 17 -14 17 -29 2 -9 -9 -19 -34
-22 -55 -4 -32 0 -46 26 -81 27 -37 29 -45 20 -78 -15 -53 -4 -68 12 -16 16
53 57 83 109 79 33 -3 36 -6 54 -59 l20 -57 -24 -45 c-20 -38 -27 -44 -42 -36
-22 12 -24 -3 -3 -21 19 -16 19 -30 0 -30 -9 0 -56 39 -106 87 -112 108 -169
198 -169 265 0 36 -5 50 -23 65 -13 10 -38 54 -57 98 -18 44 -49 104 -68 134
l-34 54 23 18 c23 17 25 16 89 -29 36 -25 93 -69 126 -97z m-237 60 c11 -19
19 -35 17 -35 -14 0 -67 60 -62 69 10 15 20 8 45 -34z m-50 1 c8 -13 34 -39
58 -58 31 -23 53 -50 69 -87 13 -30 22 -56 20 -58 -12 -13 -56 33 -112 120
-35 54 -64 100 -64 102 0 14 18 2 29 -19z m18 -109 c96 -162 139 -269 158
-392 8 -52 10 -153 3 -160 -8 -9 -182 35 -197 50 -20 19 -5 70 31 100 32 27
84 33 119 15 12 -7 19 -7 19 -1 0 15 -35 31 -67 31 -41 0 -95 -32 -113 -68 -8
-17 -18 -32 -22 -32 -10 0 -65 140 -77 198 -6 29 -11 122 -11 206 l0 153 33
11 c17 5 37 10 42 11 6 0 42 -54 82 -122z m-228 58 c6 -25 5 -51 -5 -92 -7
-32 -13 -80 -13 -108 l1 -50 14 60 c26 112 34 170 28 198 -3 16 -1 27 5 27 7
0 11 -36 11 -104 0 -92 -3 -110 -25 -153 -23 -44 -25 -54 -16 -96 6 -25 9 -52
8 -59 -2 -7 -2 -10 0 -5 10 17 23 -6 17 -31 -5 -22 -4 -25 7 -15 10 10 17 9
35 -8 19 -18 20 -25 12 -60 -12 -44 -11 -44 -81 -25 -29 8 -65 17 -81 21 -23
5 -27 8 -15 16 19 12 66 11 90 -1 16 -9 19 -7 19 8 0 11 -8 26 -17 33 -15 12
-16 12 -10 -3 5 -14 1 -16 -27 -11 -20 3 -45 -1 -64 -11 -19 -10 -33 -12 -37
-6 -13 22 -22 166 -14 230 11 88 15 108 46 203 l25 77 38 0 c36 0 40 -3 49
-35z m579 -3 c23 -4 32 -19 46 -72 l7 -25 -14 23 c-7 12 -15 21 -18 20 -2 -2
-22 14 -44 36 -25 23 -32 36 -20 31 11 -4 30 -10 43 -13z m707 -84 c96 -35 7
-72 -155 -65 -106 5 -180 22 -187 44 -4 11 33 26 87 37 47 9 215 -2 255 -16z
m-262 -80 c51 -11 260 -6 288 6 15 7 15 2 2 -56 -8 -35 -19 -67 -24 -73 -27
-27 -297 -13 -325 18 -6 6 -14 38 -18 71 -6 53 -5 58 11 52 10 -4 40 -12 66
-18z m-1208 -46 c-3 -4 -11 0 -16 8 -8 11 -9 9 -5 -10 4 -14 9 -50 11 -80 l5
-55 -14 40 c-21 58 -20 115 2 131 15 11 17 10 20 -8 2 -11 1 -23 -3 -26z m568
11 c40 -25 44 -41 31 -136 -9 -66 -26 -47 -20 21 4 39 3 49 -3 32 -8 -22 -9
-19 -11 20 -2 36 -3 40 -9 20 -6 -22 -8 -20 -15 20 -5 33 -9 41 -16 30 -5 -8
-10 -12 -10 -8 0 3 -3 14 -7 24 -7 19 -8 19 60 -23z m402 -9 c73 -18 90 -40
23 -29 -46 8 -108 30 -108 39 0 9 16 7 85 -10z m-735 -47 c0 -5 -4 -5 -10 -2
-5 3 -10 14 -10 23 0 15 2 15 10 2 5 -8 10 -19 10 -23z m564 -28 c27 -63 47
-76 27 -18 -19 56 -15 69 20 65 32 -3 40 -11 64 -69 l13 -32 -39 -1 c-21 -1
-50 -9 -63 -18 -24 -15 -26 -15 -46 14 -24 34 -34 73 -25 101 10 31 21 22 49
-42z m316 36 c0 -7 -6 -15 -12 -18 -19 -7 18 -33 67 -47 76 -23 163 -30 237
-20 84 12 122 32 113 60 -8 26 13 35 36 14 26 -23 24 -57 -6 -92 -37 -44 -32
-75 20 -131 25 -26 45 -50 45 -53 0 -3 -15 -11 -32 -18 -18 -7 -129 -56 -247
-107 l-214 -95 -96 24 -96 25 3 34 c1 19 9 59 18 89 13 45 26 65 75 110 63 59
74 93 45 135 -28 41 -29 63 -2 90 26 26 46 26 46 0z m-117 -11 c9 -3 17 -15
17 -27 0 -12 9 -37 20 -55 26 -43 25 -56 -7 -87 -32 -29 -43 -31 -43 -10 0 17
-39 135 -50 150 -4 6 -10 18 -13 28 -6 16 -3 18 26 12 17 -4 40 -9 50 -11z
m-753 -57 c0 -5 -9 -2 -20 8 -11 10 -20 25 -20 34 1 12 5 10 20 -8 11 -13 20
-28 20 -34z m-290 -16 c0 -5 -19 -16 -42 -25 -24 -8 -68 -25 -98 -36 -59 -21
-90 -25 -90 -11 0 8 191 79 218 80 6 1 12 -3 12 -8z m294 -26 c3 -13 9 -31 12
-42 3 -10 -6 0 -20 22 -29 45 -32 57 -12 49 8 -3 17 -16 20 -29z m-1035 -12
c15 4 18 -2 17 -31 -1 -33 4 -39 52 -72 78 -52 103 -103 56 -114 -47 -12 -103
-55 -124 -96 -11 -22 -28 -40 -37 -40 -9 0 -28 -14 -42 -31 l-26 -31 -38 18
c-28 13 -37 24 -37 42 0 13 -12 46 -26 72 -23 43 -25 52 -14 84 6 20 31 53 58
77 41 36 43 39 13 23 -43 -24 -81 -69 -88 -105 -6 -32 -15 -36 -33 -14 -9 11
-8 22 7 52 14 31 32 45 92 75 78 38 96 57 88 89 -5 17 -3 18 10 7 13 -11 18
-9 32 12 l16 24 3 -23 c3 -16 9 -22 21 -18z m2575 -8 c85 -19 164 -35 176 -35
33 0 14 -18 -53 -49 -34 -16 -125 -58 -202 -93 -77 -36 -167 -78 -200 -93 -33
-15 -112 -52 -174 -81 -89 -42 -121 -53 -144 -48 -16 3 -26 8 -23 11 5 5 190
86 410 180 148 62 302 138 310 152 4 5 2 12 -2 15 -10 6 -175 41 -239 51 -45
7 -69 25 -33 25 11 0 90 -16 174 -35z m-1126 -44 c-18 -6 -51 36 -44 55 6 15
10 12 30 -17 13 -19 19 -36 14 -38z m-675 16 c19 -48 21 -67 7 -67 -17 0 -175
42 -182 49 -7 6 119 57 147 60 6 0 18 -18 28 -42z m1722 3 c55 -11 107 -23
115 -26 9 -4 -20 -23 -79 -50 l-94 -44 -41 47 c-61 69 -71 109 -23 98 12 -2
67 -14 122 -25z m-1415 -172 c327 -82 659 -165 738 -185 122 -31 141 -38 129
-50 -11 -11 -20 -11 -43 -3 -55 22 -485 132 -1114 285 -195 48 -359 90 -364
93 -14 8 26 22 44 15 8 -3 283 -72 610 -155z m395 112 l30 -13 -32 -7 c-35 -8
-63 -26 -63 -42 0 -5 12 0 26 11 38 30 78 27 102 -7 21 -28 41 -142 26 -142
-5 0 -39 7 -75 17 -85 22 -99 43 -99 154 l0 80 28 -18 c15 -11 41 -25 57 -33z
m1324 -32 l0 -53 -19 40 c-16 36 -16 41 -2 53 9 6 17 12 19 12 2 0 3 -24 2
-52z m-2109 -33 c443 -110 857 -214 1020 -257 85 -22 164 -43 176 -45 20 -5
21 -13 27 -161 4 -85 6 -157 4 -158 -1 -1 -29 6 -62 16 -33 10 -150 41 -260
70 -110 28 -211 55 -225 60 -67 22 -237 71 -345 99 -120 31 -273 71 -435 114
-73 19 -92 28 -132 68 -27 25 -48 51 -48 57 0 6 16 18 36 27 41 17 43 46 4 55
-19 4 -26 13 -28 38 -2 24 -8 32 -23 32 -15 0 -19 7 -19 31 0 28 3 31 23 25
12 -3 141 -35 287 -71z m409 10 c15 -27 17 -35 6 -35 -31 0 -41 11 -37 40 2
17 6 30 7 30 2 0 12 -16 24 -35z m-1546 -15 c5 0 16 8 24 18 12 15 13 14 8
-16 -9 -43 5 -58 58 -66 76 -12 130 -57 143 -122 5 -28 3 -30 -39 -42 -69 -21
-137 -106 -137 -172 0 -32 -13 -24 -39 26 -16 30 -37 52 -62 65 -42 21 -109
25 -140 9 -23 -13 -24 -8 -3 31 14 27 14 33 1 47 -13 15 -13 22 -2 48 13 31
72 84 93 84 6 0 16 10 23 21 9 18 7 27 -11 51 -21 28 -21 29 -2 19 31 -17 39
-14 47 17 7 27 7 27 18 5 5 -13 14 -23 20 -23z m3126 -32 c-21 -40 -87 -167
-145 -283 -59 -115 -117 -228 -129 -250 -85 -151 -252 -466 -325 -612 -53
-107 -80 -152 -92 -152 -10 -1 -18 1 -18 4 0 9 268 524 367 705 115 210 183
339 272 518 55 109 76 142 91 142 17 0 15 -8 -21 -72z m96 -9 c38 -80 41 -62
-37 -214 -25 -49 -88 -173 -140 -275 -52 -102 -149 -291 -217 -421 -120 -233
-122 -235 -174 -266 -28 -16 -79 -47 -111 -67 -33 -19 -61 -34 -63 -32 -5 5
159 318 302 576 56 102 168 317 250 478 81 160 150 292 152 292 2 0 19 -32 38
-71z m-3605 31 c0 -39 -24 -86 -50 -100 -25 -13 -26 -1 -5 40 21 40 10 38 -15
-2 -14 -23 -20 -28 -20 -15 0 27 18 59 48 84 36 30 42 29 42 -7z m3373 -157
l-94 -178 -217 -108 c-119 -59 -220 -107 -224 -107 -14 0 -9 276 5 287 6 6 80
40 162 77 83 37 215 98 295 135 80 38 150 69 156 70 7 1 -31 -79 -83 -176z
m-2213 131 c0 -19 29 -18 36 1 11 28 26 16 19 -16 -7 -31 -6 -32 21 -25 l29 6
-27 -21 c-36 -26 -35 -47 2 -106 24 -38 30 -58 30 -102 -1 -73 -16 -98 -87
-141 -85 -51 -161 -75 -195 -61 -25 9 -28 16 -28 58 -1 79 -26 116 -116 169
-13 7 -15 16 -9 30 4 10 7 29 6 41 -3 32 68 99 121 114 24 6 65 9 92 6 54 -5
86 15 86 54 0 11 5 17 10 14 6 -3 10 -13 10 -21z m1340 -56 c9 -3 15 -17 15
-37 0 -32 -1 -33 -34 -27 -44 7 -48 11 -57 71 l-7 50 34 -26 c19 -14 41 -28
49 -31z m-2649 5 c13 -16 12 -17 -3 -4 -17 13 -22 21 -14 21 2 0 10 -8 17 -17z
m-545 -70 c13 -29 21 -53 19 -53 -11 0 -55 90 -54 111 0 15 3 19 6 9 3 -8 16
-39 29 -67z m-66 20 c13 -13 10 -14 -30 -8 -72 10 -85 16 -69 26 19 13 80 1
99 -18z m813 6 c49 -25 77 -62 77 -99 0 -48 -7 -53 -44 -31 -36 22 -103 34
-111 20 -7 -10 35 -89 47 -89 4 0 8 -4 8 -10 0 -5 -7 -10 -16 -10 -46 0 -104
-75 -104 -135 0 -31 -9 -31 -54 -2 -25 16 -35 29 -36 49 0 40 -10 57 -40 73
-22 11 -26 19 -23 40 3 14 -2 36 -11 50 -32 49 -10 97 53 116 45 13 112 3 76
-11 -16 -7 -12 -9 17 -9 20 -1 40 4 44 11 4 7 3 8 -4 4 -7 -4 -12 -5 -12 -2 0
9 74 45 93 46 10 0 28 -5 40 -11z m-455 -41 c7 -7 12 -22 12 -35 0 -20 -5 -23
-40 -23 -45 0 -71 29 -49 56 14 17 60 19 77 2z m-213 -8 c3 -6 3 -20 -1 -32
l-6 -21 -19 24 c-13 17 -14 26 -6 31 16 10 25 10 32 -2z m116 -51 c15 -29 -2
-66 -33 -71 -30 -4 -69 48 -56 75 13 26 74 23 89 -4z m-200 0 c19 -10 19 -11
-3 -38 -16 -19 -30 -26 -46 -23 -31 6 -38 28 -17 52 20 22 37 25 66 9z m1509
8 c0 -2 -14 -14 -32 -27 l-31 -23 19 26 c15 21 44 37 44 24z m-647 -57 c-19
-48 -25 -47 -16 3 3 20 11 37 19 37 10 0 9 -9 -3 -40z m-458 5 c31 -30 32 -59
3 -79 -30 -21 -39 -9 -42 53 -4 57 4 62 39 26z m970 11 c24 -10 35 -21 35 -36
0 -18 -3 -19 -20 -10 -27 14 -25 -2 3 -27 29 -26 53 -34 83 -27 29 8 22 24
-12 24 -26 0 -29 7 -15 29 12 19 86 9 120 -16 14 -11 34 -36 45 -57 16 -33 17
-45 7 -90 -6 -28 -15 -57 -20 -64 -11 -17 -100 -37 -255 -57 -147 -19 -144
-21 -172 73 -28 95 13 214 88 251 51 25 67 26 113 7z m2941 -233 c-3 -7 -10
-13 -16 -13 -15 0 -13 233 3 249 10 10 13 -11 15 -105 1 -65 0 -124 -2 -131z
m-4426 172 c-11 -13 -25 -10 -60 13 -3 2 9 15 25 28 l30 24 8 -25 c6 -17 5
-31 -3 -40z m432 48 c22 -20 23 -51 1 -75 -24 -27 -48 -22 -77 17 -22 28 -25
38 -16 55 13 25 66 27 92 3z m447 -3 c53 -26 64 -60 21 -60 -21 0 -66 34 -80
61 -14 26 8 25 59 -1z m1266 0 c18 -19 17 -20 -3 -20 -15 0 -22 6 -22 20 0 11
2 20 3 20 2 0 12 -9 22 -20z m-1940 -10 c16 -18 17 -23 5 -45 -13 -24 -25 -26
-77 -9 -16 4 -17 46 -1 62 18 18 53 14 73 -8z m2035 9 c57 -17 204 -57 370
-100 166 -43 271 -72 335 -94 22 -7 67 -20 100 -29 33 -9 143 -39 245 -66 102
-27 205 -55 229 -62 l44 -11 -7 -90 c-3 -50 -6 -132 -6 -183 l0 -93 -77 25
c-142 47 -129 34 -126 122 5 148 29 135 -384 222 -104 22 -246 53 -318 70
-147 35 -165 35 -284 -11 l-81 -31 -57 20 c-57 19 -58 20 -56 56 1 20 12 49
24 66 30 40 37 125 15 168 -18 35 -16 37 34 21z m1368 -321 c-7 -4 -16 -8 -20
-8 -5 0 -8 67 -8 150 0 131 2 150 18 159 16 9 17 -1 20 -141 2 -115 -1 -153
-10 -160z m-1444 271 c26 -21 34 -60 18 -87 -6 -8 -13 -1 -25 23 -9 19 -21 35
-27 35 -5 0 -10 11 -10 25 0 30 9 31 44 4z m-2070 -11 c8 -13 6 -21 -7 -36 -9
-10 -17 -28 -17 -40 0 -30 -26 -18 -46 20 -14 27 -14 32 1 54 18 28 52 29 69
2z m1048 1 c51 -26 82 -151 59 -236 l-11 -41 -77 -8 c-43 -4 -131 -4 -197 0
-132 7 -137 10 -156 79 -31 109 55 199 161 169 25 -8 28 -10 12 -11 -13 -1
-23 -5 -23 -11 0 -14 84 -12 98 2 19 19 14 30 -9 23 -17 -6 -20 -3 -17 12 7
36 106 50 160 22z m-1180 -1 c8 -7 18 -27 21 -43 4 -24 2 -31 -11 -31 -9 0
-29 -3 -44 -7 -25 -7 -28 -5 -28 17 0 36 17 76 33 76 7 0 20 -6 29 -12z m360
-5 c25 -23 23 -68 -4 -87 -32 -23 -54 -20 -77 11 -21 26 -21 53 1 81 15 17 58
15 80 -5z m4053 -120 l-7 -94 -69 -34 c-38 -20 -69 -33 -69 -30 0 3 32 69 72
148 47 94 73 135 76 123 2 -11 1 -62 -3 -113z m-4185 67 c33 -33 20 -80 -22
-80 -38 0 -68 22 -68 51 0 47 54 65 90 29z m278 8 c7 -7 12 -22 12 -35 0 -23
-1 -23 -25 -7 -15 10 -37 14 -55 12 -25 -4 -30 -1 -30 15 0 13 5 17 15 13 8
-3 25 -1 37 4 31 12 32 12 46 -2z m116 -4 c18 -18 21 -69 5 -80 -6 -3 -16 -1
-22 5 -6 6 -24 11 -39 11 -25 0 -28 3 -24 31 5 47 48 65 80 33z m1554 4 c26
-26 10 -98 -26 -117 -17 -9 -18 -5 -17 42 2 77 16 102 43 75z m1889 -70 l-44
-82 -96 -51 c-93 -50 -131 -74 -93 -59 10 4 53 26 97 49 43 24 79 40 79 37 -1
-4 -33 -65 -73 -137 l-72 -130 -90 -47 c-49 -27 -91 -48 -92 -48 -2 0 -3 20
-3 45 0 44 0 45 58 74 31 16 66 37 77 46 11 9 -13 0 -52 -20 -40 -19 -75 -35
-78 -35 -3 0 -5 52 -5 115 l0 114 208 105 c114 57 211 105 215 105 5 1 -11
-36 -36 -81z m-3990 1 l35 -22 -54 -18 -53 -18 -29 31 c-28 30 -28 32 -10 45
23 17 64 11 111 -18z m2043 1 c0 -44 -28 -89 -69 -110 -23 -11 -41 -16 -41
-11 0 5 5 13 10 16 6 3 10 24 10 45 0 32 5 41 33 58 42 26 57 27 57 2z m-1638
-7 c44 -39 -2 -106 -56 -82 -21 10 -26 19 -26 50 0 20 6 40 13 42 24 10 51 7
69 -10z m-162 -9 c21 -5 35 -15 41 -32 5 -14 8 -26 6 -28 -3 -4 -40 7 -106 31
-11 4 -11 8 -1 20 14 17 16 17 60 9z m282 -31 c34 -31 18 -88 -23 -79 -86 18
-81 15 -64 39 8 12 15 29 15 39 0 23 46 24 72 1z m1400 -46 c-16 -35 -29 -50
-57 -62 -52 -21 -58 -19 -40 15 8 16 15 38 15 49 0 14 13 26 43 39 23 11 46
16 50 12 5 -4 0 -28 -11 -53z m-1303 29 c14 -15 21 -33 19 -48 -2 -18 -10 -24
-38 -26 l-35 -3 0 51 c0 58 17 66 54 26z m-495 1 l28 -12 -57 -24 -57 -24 -36
21 c-63 36 -52 49 43 50 28 1 63 -4 79 -11z m569 -49 c16 -37 16 -38 -6 -38
-20 0 -22 4 -19 41 5 46 5 46 25 -3z m3692 25 c-3 -10 -7 -81 -8 -157 -2 -101
-5 -140 -14 -143 -10 -4 -13 25 -13 121 0 68 4 127 8 130 5 3 7 19 4 36 -3 23
-1 30 13 30 12 0 15 -5 10 -17z m-3161 -24 c18 -37 14 -49 -18 -49 -22 0 -23
2 -13 40 6 22 12 40 13 40 2 0 10 -14 18 -31z m575 -29 c-19 -33 -32 -43 -73
-55 -27 -8 -51 -13 -53 -11 -2 1 5 14 15 27 11 13 22 34 26 46 5 16 21 27 54
37 26 7 48 10 50 5 2 -5 -7 -27 -19 -49z m287 43 c-2 -10 -10 -43 -17 -74
l-12 -57 -68 -31 c-37 -17 -70 -31 -73 -31 -2 0 0 15 5 32 5 18 9 39 9 47 0
26 -16 -2 -29 -49 l-13 -45 -123 -51 c-68 -28 -121 -46 -119 -40 3 6 26 21 52
33 42 21 26 25 -22 7 -13 -5 -16 2 -17 42 l-1 49 -10 -50 c-6 -27 -12 -51 -13
-53 -5 -5 -201 -52 -220 -52 -18 0 -20 5 -16 52 4 64 -11 56 -19 -10 -5 -45
-6 -47 -45 -54 -22 -4 -69 -7 -105 -8 -36 0 -72 -5 -80 -11 -11 -8 18 -9 103
-6 85 4 117 2 117 -6 -1 -7 -6 -39 -13 -72 -13 -59 -13 -60 -52 -67 -22 -4
-67 -7 -100 -8 -43 0 -56 -3 -45 -10 9 -6 46 -8 93 -4 86 7 88 6 68 -64 -15
-50 5 -28 24 27 l16 48 69 12 c39 7 73 18 76 23 5 7 -5 9 -27 5 -19 -3 -52 -9
-75 -12 l-41 -6 13 61 c18 87 17 87 71 95 26 3 78 15 116 25 72 20 88 12 46
-26 -56 -50 -65 -150 -18 -200 l23 -24 -36 -30 c-41 -34 -71 -99 -66 -144 3
-29 1 -31 -57 -48 -33 -9 -84 -19 -114 -20 -54 -3 -54 -3 -63 29 -17 66 -135
110 -266 100 -122 -9 -202 -60 -202 -128 0 -17 -5 -20 -27 -15 -16 3 -68 13
-117 21 -108 19 -220 55 -299 98 -110 58 -243 199 -324 345 -35 62 -106 259
-119 331 l-7 34 29 -20 c130 -91 476 -177 816 -203 226 -18 617 8 853 55 207
42 372 100 435 153 31 26 43 28 36 5z m-1852 -4 l39 -11 -52 -28 c-50 -28 -53
-28 -96 -13 -25 8 -45 19 -45 24 0 7 79 37 105 38 6 1 28 -4 49 -10z m139 -35
c27 -6 26 -7 -24 -39 -51 -32 -53 -32 -97 -19 -25 8 -48 16 -50 19 -10 9 103
55 123 50 11 -3 32 -8 48 -11z m1310 -15 c-30 -50 -57 -69 -112 -78 l-52 -8
19 21 c10 12 25 32 33 45 10 15 32 29 60 37 70 18 72 18 52 -17z m958 -3 c79
-19 182 -42 229 -51 159 -32 354 -76 370 -85 59 -32 46 -62 -48 -117 l-69 -40
-10 28 c-13 34 -63 66 -117 74 -66 11 -300 70 -461 118 -82 25 -165 48 -183
52 -39 8 -33 18 23 38 63 23 112 20 266 -17z m-476 7 l49 -16 -39 -17 c-84
-36 -84 -36 -72 10 6 22 12 40 12 40 1 0 23 -8 50 -17z m2165 -123 l0 -139
-97 -57 c-54 -31 -138 -81 -187 -111 -49 -29 -90 -52 -92 -51 -1 2 46 98 106
213 l108 209 73 37 c41 21 77 38 82 39 4 0 7 -63 7 -140z m-3817 105 l38 -6
-51 -34 c-50 -33 -51 -34 -110 -23 -33 7 -60 14 -60 18 0 4 19 16 43 27 56 28
69 32 87 28 8 -2 32 -6 53 -10z m1038 -2 c-30 -55 -99 -92 -174 -93 l-27 0 31
43 c31 43 37 45 172 66 4 0 3 -7 -2 -16z m2029 -173 c-2 -162 -3 -181 -19
-190 -17 -8 -19 -2 -25 70 -9 116 2 272 22 288 9 6 17 12 19 12 2 0 3 -81 3
-180z m-2917 155 l38 -6 -51 -35 c-48 -33 -55 -35 -106 -28 -30 3 -54 10 -54
14 0 15 95 69 115 65 11 -2 37 -7 58 -10z m708 -12 c-22 -42 -60 -66 -112 -71
l-52 -5 33 41 c35 44 45 49 103 51 33 1 37 -1 28 -16z m1019 -7 c47 -13 123
-36 170 -51 121 -37 291 -81 392 -101 104 -20 148 -43 148 -79 0 -14 -8 -29
-19 -35 -30 -15 -38 -12 -45 15 -4 14 -17 32 -30 40 -13 8 -121 40 -240 70
-119 29 -274 72 -344 93 -70 22 -140 43 -156 47 -23 5 -27 8 -15 16 22 14 47
11 139 -15z m-1578 5 l26 -6 -43 -38 c-44 -37 -44 -37 -106 -30 l-62 8 53 38
c53 36 76 41 132 28z m428 2 c0 -4 -17 -24 -37 -45 -30 -31 -44 -38 -75 -38
-21 0 -38 3 -38 7 0 4 17 24 37 45 30 31 44 38 75 38 21 0 38 -3 38 -7z m-230
-7 c0 -2 -22 -20 -49 -40 -43 -32 -55 -36 -110 -36 -70 0 -71 6 -9 51 35 25
50 29 105 29 34 0 63 -2 63 -4z m108 -8 c-2 -6 -20 -25 -40 -41 -29 -24 -43
-28 -82 -25 l-46 3 46 38 c36 29 56 37 86 37 26 0 38 -4 36 -12z m1307 -59
c88 -26 241 -69 340 -94 99 -25 194 -51 210 -57 57 -21 73 -67 30 -86 -22 -10
-25 -9 -25 7 0 45 -44 62 -325 134 -77 19 -162 42 -190 50 -159 48 -225 67
-265 78 -37 9 -41 13 -25 19 31 11 76 2 250 -51z m-195 4 c30 -8 134 -39 231
-68 97 -30 210 -61 250 -69 192 -40 244 -63 244 -107 0 -20 -27 -37 -206 -128
l-206 -105 -174 43 c-96 25 -257 71 -359 104 -292 94 -317 98 -357 65 -20 -16
-4 -29 19 -17 18 10 20 9 14 -6 -10 -27 18 -60 66 -77 23 -9 151 -49 283 -88
132 -40 293 -88 357 -108 95 -28 122 -33 140 -24 l23 11 -25 0 c-14 1 -49 10
-78 21 -30 11 -196 63 -370 115 -403 120 -414 124 -377 155 13 11 54 0 238
-59 122 -39 302 -91 400 -116 160 -41 182 -45 215 -34 59 19 650 316 677 340
14 14 45 11 45 -4 0 -23 -27 -40 -230 -144 -237 -121 -453 -243 -446 -251 6
-6 32 7 409 202 167 86 252 125 259 118 14 -14 -34 -47 -177 -122 -66 -35
-212 -113 -325 -174 -259 -140 -224 -138 -600 -27 -478 142 -533 164 -563 223
-15 31 -16 44 -7 77 14 52 51 82 151 123 45 18 145 61 223 94 150 65 151 65
256 37z m1458 -300 c-45 -87 -83 -160 -85 -162 -1 -2 -3 49 -3 115 l0 119 78
41 c42 23 80 42 84 43 3 0 -30 -70 -74 -156z m-273 27 l92 -31 7 -151 c4 -83
4 -153 1 -156 -10 -10 -114 28 -124 45 -5 9 -7 42 -4 72 5 48 2 59 -16 75 -17
15 -19 26 -14 61 5 38 2 47 -21 70 -25 24 -34 45 -20 45 4 0 48 -14 99 -30z
m159 -133 c0 -88 -5 -130 -16 -151 -14 -27 -15 -22 -22 105 -6 129 -6 135 15
152 12 9 22 17 23 17 0 0 1 -55 0 -123z m-280 107 c29 -11 38 -41 22 -71 -10
-20 -45 -45 -117 -82 -57 -30 -120 -64 -139 -76 -19 -12 -122 -66 -227 -119
-201 -101 -243 -134 -243 -188 0 -29 30 -62 37 -40 3 6 11 12 19 12 15 0 602
330 653 366 15 10 20 19 13 22 -13 4 -146 -67 -463 -250 -113 -65 -211 -118
-218 -118 -18 0 -13 34 9 58 12 12 94 57 183 100 89 44 236 120 326 170 91 51
168 92 172 92 4 0 15 -7 23 -16 23 -22 20 -67 -6 -91 -22 -20 -216 -140 -403
-248 -336 -195 -338 -196 -413 -175 -54 14 -76 47 -76 114 0 74 57 166 103
166 9 0 174 85 366 189 193 104 353 190 357 190 3 1 14 -2 22 -5z m-1621 -130
c3 -4 -8 -24 -26 -46 -30 -37 -32 -46 -32 -114 0 -41 -3 -74 -7 -74 -3 0 -18
14 -32 31 -20 24 -26 41 -26 81 0 45 4 54 39 89 35 36 68 48 84 33z m47 -19
c0 -3 -13 -24 -30 -46 -33 -47 -47 -114 -32 -159 11 -31 5 -39 -16 -18 -18 18
-15 123 4 161 22 42 44 67 61 67 7 0 13 -2 13 -5z m50 -24 c0 -5 -11 -11 -25
-13 -26 -5 -35 6 -12 15 20 9 37 8 37 -2z m14 -36 c-18 -27 -37 -28 -42 -3 -3
15 13 24 46 27 9 1 8 -6 -4 -24z m51 -16 c-40 -48 -56 -130 -35 -183 12 -32
-3 -34 -24 -4 -32 45 -15 150 32 200 35 38 60 26 27 -13z m-107 9 c7 -7 12
-15 12 -20 0 -8 -60 -42 -65 -36 -6 6 24 68 33 68 4 0 13 -5 20 -12z m451 -77
c74 -23 137 -41 139 -41 3 0 -2 -8 -10 -17 -36 -41 -51 -88 -50 -156 0 -60 -2
-68 -16 -62 -10 4 -62 20 -118 35 -55 16 -144 43 -196 60 -88 28 -97 33 -107
62 -17 47 -13 104 9 148 35 69 24 70 349 -29z m-1143 46 c2 -2 -2 -15 -9 -30
-14 -31 -47 -37 -47 -7 0 10 8 24 18 29 9 6 12 11 7 11 -34 1 -44 -46 -20 -84
9 -13 14 -30 13 -37 -3 -13 34 -26 85 -28 25 -1 26 1 15 19 -10 15 -10 23 -2
28 17 10 26 49 14 57 -5 3 -10 15 -10 25 0 10 -6 21 -12 24 -7 3 9 3 37 0 115
-14 169 -83 101 -127 -46 -30 -136 -50 -200 -44 -75 8 -138 25 -131 36 2 5 -2
14 -10 21 -18 15 -19 51 -2 70 10 12 9 12 -5 1 -22 -17 -23 -54 -3 -71 9 -7
13 -15 10 -18 -10 -10 -45 32 -45 54 0 26 46 63 94 75 28 7 94 5 102 -4z m47
-14 c-7 -2 -13 -12 -12 -21 0 -11 3 -12 6 -5 3 10 9 8 21 -4 12 -12 13 -18 4
-21 -6 -2 -12 -10 -12 -18 0 -8 -6 -11 -17 -7 -15 5 -16 3 -5 -8 22 -23 14
-35 -22 -31 -26 3 -35 9 -38 27 -4 16 -1 22 9 18 12 -5 18 15 14 41 -1 5 5 6
14 2 13 -4 15 -1 10 14 -5 16 -2 20 17 19 13 0 17 -3 11 -6z m667 -29 c-11
-47 -13 -48 -39 -20 l-23 24 29 15 c40 21 42 21 33 -19z m1615 -4 c3 -10 1
-29 -5 -40 -16 -31 -283 -200 -485 -310 -134 -72 -221 -127 -263 -167 -25 -23
-49 -40 -54 -36 -6 3 -121 43 -256 88 -136 46 -303 104 -372 130 -134 51 -220
79 -342 115 -69 20 -76 25 -67 41 5 10 29 30 54 44 34 21 48 24 63 16 20 -11
317 -108 412 -135 30 -9 150 -45 267 -81 123 -38 230 -65 255 -65 24 0 65 11
95 24 54 25 384 218 563 329 58 36 110 65 117 66 6 1 14 -8 18 -19z m-1661
-29 c19 -21 14 -41 -9 -41 -13 0 -25 21 -25 46 0 20 14 18 34 -5z m656 -25 c0
-2 -12 -25 -27 -52 -22 -39 -27 -61 -27 -116 0 -69 -7 -83 -26 -49 -23 43 -7
137 32 194 16 22 48 38 48 23z m62 -14 c15 -6 15 -9 -3 -30 l-19 -24 -10 27
c-5 14 -10 28 -10 31 0 6 22 4 42 -4z m-672 -33 c0 -22 -12 -24 -42 -8 -21 11
-21 12 3 24 28 16 39 11 39 -16z m-890 11 c0 -5 -2 -10 -4 -10 -3 0 -8 5 -11
10 -3 6 -1 10 4 10 6 0 11 -4 11 -10z m1505 -69 c-36 -37 -46 -22 -22 33 l21
50 12 -30 c11 -26 10 -32 -11 -53z m125 73 c0 -3 -11 -20 -25 -38 -36 -47 -50
-122 -32 -174 16 -45 10 -53 -16 -24 -37 41 -29 153 15 214 16 24 58 40 58 22z
m-1250 -13 c0 -5 -7 -12 -16 -15 -21 -8 -24 -8 -24 5 0 5 5 7 10 4 6 -3 10 -1
10 4 0 6 5 11 10 11 6 0 10 -4 10 -9z m70 -12 c16 -29 7 -45 -42 -70 -54 -27
-191 -37 -267 -19 -65 15 -76 30 -13 18 81 -16 216 11 259 52 12 10 24 16 27
13 15 -15 3 -32 -31 -46 -21 -9 -32 -16 -25 -16 7 -1 27 6 43 15 26 13 29 19
24 45 -8 34 9 39 25 8z m-420 1 c0 -5 -4 -10 -10 -10 -5 0 -10 5 -10 10 0 6 5
10 10 10 6 0 10 -4 10 -10z m30 -21 c0 -5 -4 -9 -10 -9 -5 0 -10 7 -10 16 0 8
5 12 10 9 6 -3 10 -10 10 -16z m270 5 c0 -8 -5 -12 -10 -9 -6 4 -8 11 -5 16 9
14 15 11 15 -7z m2198 0 c46 -32 15 -89 -89 -160 -41 -29 -144 -94 -229 -146
-85 -52 -197 -121 -248 -153 -51 -31 -94 -56 -95 -54 -2 2 -8 16 -15 31 -11
26 -9 29 26 52 20 13 123 71 227 128 223 123 395 234 395 254 0 19 -28 5 -151
-76 -50 -33 -150 -92 -222 -131 -306 -166 -357 -203 -357 -254 0 -62 65 -57
182 13 348 207 560 341 573 362 9 15 25 2 25 -20 0 -19 -52 -57 -285 -202 -66
-41 -165 -104 -220 -140 -175 -113 -226 -138 -283 -138 -51 0 -177 42 -511
170 -73 28 -215 80 -315 115 -99 36 -200 74 -224 86 -38 20 -91 83 -79 95 2 3
29 -5 58 -17 30 -12 106 -39 169 -61 63 -22 192 -68 285 -103 152 -57 385
-133 503 -164 29 -8 42 -17 42 -30 0 -9 11 -28 25 -41 27 -26 33 -17 10 14
-22 29 -18 88 8 127 28 43 91 85 292 195 146 80 212 118 389 227 67 41 82 44
114 21z m-2438 -9 c0 -8 -4 -15 -10 -15 -5 0 -10 7 -10 15 0 8 5 15 10 15 6 0
10 -7 10 -15z m210 1 c0 -17 -110 -31 -164 -21 -57 11 -44 28 17 22 40 -5 126
2 145 12 1 0 2 -5 2 -13z m-277 -61 c11 -23 33 -43 64 -60 47 -25 47 -25 13
-19 -52 9 -125 47 -128 67 -4 18 14 47 27 47 4 0 15 -16 24 -35z m427 4 c-7
-11 -14 -18 -17 -15 -3 3 0 12 7 21 18 21 23 19 10 -6z m1066 -5 c-3 -9 -6
-20 -6 -26 0 -6 -6 -5 -15 2 -12 10 -13 16 -4 26 16 19 33 18 25 -2z m-1096
-13 c0 -12 -20 -25 -27 -18 -7 7 6 27 18 27 5 0 9 -4 9 -9z m255 -53 c6 -23 4
-26 -14 -21 -28 7 -34 19 -26 50 5 22 8 24 20 12 7 -8 17 -26 20 -41z m815 2
c-25 -16 -30 -12 -30 22 l0 32 23 -22 c19 -19 20 -24 7 -32z m-1350 30 c0 -5
-7 -10 -15 -10 -8 0 -15 5 -15 10 0 6 7 10 15 10 8 0 15 -4 15 -10z m40 -11
c0 -5 -7 -9 -15 -9 -8 0 -15 7 -15 15 0 9 6 12 15 9 8 -4 15 -10 15 -15z m166
-6 c-3 -3 -39 -8 -81 -11 -64 -4 -75 -2 -75 11 0 13 15 17 78 19 70 3 94 -3
78 -19z m34 17 c0 -5 -4 -10 -10 -10 -5 0 -10 5 -10 10 0 6 5 10 10 10 6 0 10
-4 10 -10z m342 -12 c21 -17 33 -68 16 -68 -23 0 -38 16 -47 48 -10 35 2 43
31 20z m72 -24 c9 -8 16 -21 16 -29 0 -7 3 -20 6 -28 4 -12 0 -14 -16 -10 -18
5 -50 54 -50 78 0 11 29 4 44 -11z m-356 -27 c3 -21 -4 -31 -29 -46 -51 -31
-156 -45 -237 -31 -96 16 -103 26 -15 22 98 -5 190 18 229 59 33 34 48 33 52
-4z m-408 13 c8 -5 12 -11 10 -14 -3 -2 -14 2 -24 10 -22 15 -10 19 14 4z
m340 6 c0 -3 -4 -8 -10 -11 -5 -3 -10 -1 -10 4 0 6 5 11 10 11 6 0 10 -2 10
-4z m498 -9 l33 -12 -26 -25 c-28 -26 -40 -21 -50 23 -8 30 -5 31 43 14z m655
-9 c8 -27 7 -28 -22 -17 -19 8 -21 12 -11 24 17 21 27 19 33 -7z m-1443 -9 c0
-5 -7 -9 -15 -9 -8 0 -15 7 -15 15 0 9 6 12 15 9 8 -4 15 -10 15 -15z m260 11
c0 -5 -4 -10 -10 -10 -5 0 -10 5 -10 10 0 6 5 10 10 10 6 0 10 -4 10 -10z
m-40 -14 c-6 -6 -55 -13 -110 -14 -79 -3 -100 -1 -100 10 0 10 25 13 111 14
81 1 107 -2 99 -10z m638 -45 c10 -29 10 -32 -4 -27 -9 3 -27 9 -40 12 -30 8
-30 12 -2 41 24 26 30 23 46 -26z m79 11 c24 -9 43 -20 43 -24 0 -13 -58 -38
-74 -32 -9 3 -16 7 -16 9 0 1 -7 19 -16 40 -17 42 -23 42 63 7z m-1007 -24 c0
-33 87 -75 185 -92 17 -2 -8 -3 -53 -1 -137 5 -216 61 -166 116 19 21 34 11
34 -23z m415 -8 c-10 -11 -22 -17 -26 -14 -5 3 -9 0 -9 -7 0 -7 -3 -9 -7 -6
-3 4 -12 2 -20 -4 -10 -9 -13 -8 -13 4 0 9 12 18 29 22 16 3 35 13 42 21 6 8
14 12 17 9 3 -3 -3 -14 -13 -25z m-357 4 c18 -8 32 -20 32 -26 0 -5 -3 -8 -7
-6 -49 24 -63 32 -63 40 0 11 2 10 38 -8z m1035 -36 c2 -18 4 -34 2 -36 -1 -1
-19 5 -40 14 l-39 16 25 19 c34 27 46 24 52 -13z m-973 1 c0 -5 -4 -9 -10 -9
-5 0 -10 7 -10 16 0 8 5 12 10 9 6 -3 10 -10 10 -16z m1031 9 c46 -13 48 -20
14 -42 -34 -22 -42 -20 -54 15 -16 46 -18 45 40 27z m-1001 -14 c0 -8 -4 -12
-10 -9 -5 3 -10 10 -10 16 0 5 5 9 10 9 6 0 10 -7 10 -16z m180 1 c0 -12 -16
-15 -85 -15 -101 0 -115 18 -17 23 37 2 75 4 85 5 9 1 17 -5 17 -13z m916 -51
c8 -20 13 -38 11 -40 -3 -3 -85 24 -96 33 -7 5 43 42 57 43 7 0 20 -16 28 -36z
m-876 23 c0 -2 -9 -12 -20 -22 -17 -16 -20 -16 -20 -2 0 8 8 18 18 20 9 3 18
5 20 6 1 0 2 -1 2 -2z m946 -13 c30 -8 30 -15 1 -43 -27 -25 -40 -17 -53 33
-6 25 -5 28 10 23 10 -4 29 -10 42 -13z m-1296 -20 c0 -8 -4 -12 -10 -9 -5 3
-10 10 -10 16 0 5 5 9 10 9 6 0 10 -7 10 -16z m297 -6 c-3 -8 -6 -5 -6 6 -1
11 2 17 5 13 3 -3 4 -12 1 -19z m83 -18 c-23 -42 -94 -64 -210 -64 -87 0 -113
4 -154 22 -62 28 -56 36 13 15 38 -11 77 -14 135 -10 98 6 147 20 183 52 32
27 51 18 33 -15z m-350 15 c0 -8 -4 -15 -10 -15 -5 0 -10 7 -10 15 0 8 5 15
10 15 6 0 10 -7 10 -15z m240 1 c0 -19 -38 -27 -116 -25 -77 2 -86 18 -11 20
28 1 66 5 82 9 44 11 45 11 45 -4z m-192 -14 c3 -9 -2 -13 -14 -10 -9 1 -19 9
-22 16 -3 9 2 13 14 10 9 -1 19 -9 22 -16z m1282 6 c0 -7 3 -24 7 -37 6 -22 4
-23 -23 -17 -43 11 -50 23 -29 46 20 22 45 27 45 8z m78 -13 c5 -5 -31 -54
-39 -55 -7 0 -19 36 -19 59 0 9 8 11 27 6 16 -4 30 -8 31 -10z m32 -57 c0 -20
-17 -23 -40 -8 -12 7 -11 12 5 30 20 22 35 13 35 -22z m52 31 c20 -11 20 -11
-3 -35 -21 -23 -24 -23 -30 -7 -19 47 -7 63 33 42z m-1519 -32 c4 3 7 -1 7
-11 0 -15 -2 -15 -24 -1 -13 9 -27 24 -31 33 -4 12 0 10 18 -6 13 -12 27 -19
30 -15z m380 18 c-5 -16 -83 -61 -83 -49 0 4 -7 1 -15 -6 -22 -18 -186 -20
-192 -2 -4 9 14 12 64 13 97 0 160 13 191 37 33 25 43 27 35 7z m1191 -27 c10
-39 7 -45 -19 -40 -34 6 -40 20 -19 43 22 25 30 24 38 -3z m53 5 c21 -10 39
-18 41 -19 2 -1 0 -13 -4 -28 -6 -27 -19 -32 -44 -16 -12 7 -12 12 4 29 11 12
14 21 8 21 -6 0 -14 -4 -17 -10 -11 -17 -22 -11 -27 15 -6 30 -8 29 39 8z
m-1587 -18 c0 -8 -4 -15 -10 -15 -5 0 -10 7 -10 15 0 8 5 15 10 15 6 0 10 -7
10 -15z m40 -10 c0 -8 -7 -15 -15 -15 -8 0 -15 7 -15 15 0 8 7 15 15 15 8 0
15 -7 15 -15z m1726 -54 c-11 -18 -36 -13 -36 7 0 10 3 22 7 26 10 10 37 -20
29 -33z"/>
<path d="M5830 4028 c0 -9 4 -28 10 -42 13 -36 4 -33 -15 5 -9 17 -19 29 -22
26 -10 -11 32 -67 49 -67 24 0 23 27 -2 65 -13 20 -20 25 -20 13z"/>
<path d="M5640 4080 c6 -11 13 -20 16 -20 2 0 0 9 -6 20 -6 11 -13 20 -16 20
-2 0 0 -9 6 -20z"/>
<path d="M5733 3975 c0 -44 2 -61 4 -37 2 23 2 59 0 80 -2 20 -4 1 -4 -43z"/>
<path d="M5600 4015 c0 -5 18 -37 40 -70 22 -33 40 -54 40 -47 0 7 5 10 10 7
15 -9 11 6 -11 45 -11 19 -17 26 -13 15 18 -55 13 -55 -25 0 -22 33 -41 56
-41 50z"/>
<path d="M5696 3965 c4 -16 11 -37 15 -45 6 -10 7 -4 3 15 -4 17 -11 37 -15
45 -6 10 -7 4 -3 -15z"/>
<path d="M4396 4097 c7 -19 89 -54 183 -78 121 -30 104 -9 -30 36 -68 23 -132
45 -142 49 -13 6 -16 5 -11 -7z"/>
<path d="M4241 3958 c-57 -21 -87 -107 -78 -221 5 -59 3 -73 -11 -83 -46 -35
78 0 129 37 39 27 69 89 76 153 5 45 2 55 -21 83 -28 34 -60 44 -95 31z m69
-48 c26 -26 25 -64 -5 -127 -23 -50 -70 -93 -102 -93 -16 0 -17 108 -2 165 20
73 67 97 109 55z"/>
<path d="M4609 3825 c-31 -17 -49 -54 -56 -116 -9 -75 3 -114 49 -162 37 -37
42 -40 46 -22 2 11 15 35 28 52 40 53 74 135 74 180 0 33 -5 46 -26 62 -31 24
-77 26 -115 6z m95 -31 c9 -8 16 -28 16 -43 0 -34 -52 -141 -81 -167 -20 -18
-21 -18 -34 0 -36 48 -24 182 18 211 28 19 62 19 81 -1z"/>
<path d="M4090 3544 c0 -15 91 -72 157 -98 72 -28 165 -51 243 -61 79 -9 57 2
-30 16 -111 17 -300 90 -352 137 -10 8 -18 11 -18 6z"/>
<path d="M4062 3443 c36 -44 239 -128 330 -138 47 -5 43 -2 -37 20 -49 14
-138 49 -197 78 -59 30 -103 47 -96 40z"/>
<path d="M5430 3973 c0 -6 20 -33 45 -60 27 -29 43 -40 39 -28 -5 19 -5 19 9
3 27 -33 27 -18 1 22 -15 22 -29 38 -32 35 -3 -2 1 -11 8 -20 7 -9 10 -18 8
-21 -3 -3 -22 14 -42 37 -20 24 -36 38 -36 32z"/>
<path d="M5561 3920 c0 -19 4 -42 9 -50 8 -12 10 -11 9 5 -1 11 -5 34 -9 50
l-8 30 -1 -35z"/>
<path d="M3330 3909 c-31 -25 -159 -89 -179 -89 -11 0 -10 5 5 21 l19 22 -32
-17 c-40 -20 -61 -54 -39 -62 47 -18 266 90 266 132 0 19 -10 17 -40 -7z"/>
<path d="M3492 3793 c-7 -3 -22 -23 -33 -45 -17 -33 -18 -45 -9 -73 31 -94
110 -166 198 -179 39 -6 43 -4 38 11 -3 10 -12 54 -20 99 -15 89 -44 154 -78
178 -22 15 -69 20 -96 9z m84 -40 c28 -29 54 -97 61 -163 l6 -62 -24 7 c-43
14 -79 46 -109 98 -34 59 -37 83 -14 115 18 26 56 29 80 5z"/>
<path d="M3134 3613 c-57 -11 -76 -89 -40 -165 20 -41 121 -162 140 -166 6 -1
23 18 35 44 29 56 25 132 -9 211 -18 42 -29 54 -61 67 -22 9 -40 15 -42 15 -1
-1 -12 -4 -23 -6z m73 -45 c24 -31 46 -108 46 -161 1 -102 -27 -98 -104 16
-30 46 -39 69 -39 101 0 24 3 46 7 49 11 12 80 8 90 -5z"/>
<path d="M3713 3329 c-71 -61 -252 -152 -348 -175 -101 -24 -122 -36 -53 -29
125 11 305 96 406 191 80 76 77 84 -5 13z"/>
<path d="M6005 3730 c-3 -5 -1 -18 4 -27 9 -16 10 -16 11 4 0 17 4 21 17 16
11 -4 14 -3 9 5 -9 15 -33 16 -41 2z"/>
<path d="M6073 3673 c-7 -2 -13 -14 -13 -26 1 -20 2 -20 11 -4 5 9 17 17 25
17 8 0 12 5 9 10 -7 11 -13 11 -32 3z"/>
<path d="M6110 3610 c-13 -11 -27 -20 -32 -20 -4 0 -8 -9 -8 -20 0 -11 5 -20
10 -20 6 0 10 7 10 16 0 11 6 14 21 9 16 -5 20 -3 17 12 -2 13 3 18 20 17 25
-1 29 11 6 20 -21 8 -18 9 -44 -14z"/>
<path d="M6183 3546 c-4 -8 -17 -15 -28 -17 -15 -3 -20 -13 -21 -39 -2 -28 -1
-30 3 -6 4 23 8 27 29 23 19 -3 24 0 24 16 0 15 5 18 25 15 28 -6 34 6 9 16
-24 9 -32 7 -41 -8z"/>
<path d="M6291 3304 c-27 -19 -55 -80 -45 -96 5 -7 12 5 18 28 9 32 19 43 56
62 37 18 40 22 19 22 -13 0 -35 -7 -48 -16z"/>
<path d="M6343 3234 c-7 -18 6 -45 24 -51 6 -2 18 3 27 12 12 12 13 21 6 36
-13 23 -48 25 -57 3z m36 -21 c0 -5 -3 -9 -9 -11 -5 -2 -10 4 -10 13 0 16 16
14 19 -2z"/>
<path d="M5788 3663 c7 -3 16 -2 19 1 4 3 -2 6 -13 5 -11 0 -14 -3 -6 -6z"/>
<path d="M5750 3620 c0 -6 5 -8 11 -4 6 3 16 0 21 -7 8 -12 9 -11 5 1 -4 18
-37 27 -37 10z"/>
<path d="M5808 3583 c-7 -10 -22 -23 -33 -29 -10 -6 -21 -16 -23 -24 -3 -9 1
-9 18 3 12 8 28 13 35 10 10 -3 12 2 8 18 -6 20 -4 22 27 16 28 -6 31 -5 20 8
-17 20 -36 19 -52 -2z"/>
<path d="M5848 3501 c-7 -10 -27 -21 -43 -23 -24 -2 -31 -8 -32 -28 -3 -25 -3
-25 7 -2 7 16 18 22 39 22 20 0 34 7 41 20 9 17 14 18 32 9 16 -9 19 -8 16 3
-7 21 -45 21 -60 -1z"/>
<path d="M5832 3428 c-7 -7 -12 -21 -11 -32 0 -20 1 -20 9 2 10 23 34 30 45
12 3 -5 11 -10 17 -10 6 0 3 9 -7 20 -21 23 -36 25 -53 8z"/>
<path d="M5884 3355 c-7 -28 -8 -29 -34 -15 -22 12 -50 -10 -50 -40 0 -31 18
-33 22 -3 3 28 15 33 50 18 12 -5 18 1 23 25 4 18 12 29 18 27 52 -21 53 -21
38 -4 -21 26 -59 22 -67 -8z"/>
<path d="M5869 3217 c-19 -14 -43 -57 -36 -64 3 -2 8 5 12 16 3 11 18 30 32
41 14 11 22 20 17 20 -5 0 -16 -6 -25 -13z"/>
<path d="M5926 3154 c-7 -19 10 -44 29 -44 19 0 36 25 29 44 -3 9 -16 16 -29
16 -13 0 -26 -7 -29 -16z m44 -14 c0 -5 -4 -10 -9 -10 -6 0 -13 5 -16 10 -3 6
1 10 9 10 9 0 16 -4 16 -10z"/>
<path d="M5560 3676 c0 -2 9 -6 20 -9 11 -3 20 -1 20 4 0 5 -9 9 -20 9 -11 0
-20 -2 -20 -4z"/>
<path d="M5544 3608 c-5 -8 -2 -9 11 -4 11 4 22 2 27 -6 6 -10 8 -8 8 5 0 19
-35 24 -46 5z"/>
<path d="M5542 3527 c-10 -12 -7 -14 18 -13 16 1 28 6 27 11 -6 16 -33 17 -45
2z"/>
<path d="M5538 3449 c-10 -5 -18 -15 -18 -21 0 -7 5 -6 15 2 8 7 28 10 45 8
32 -5 41 6 14 16 -22 8 -36 7 -56 -5z"/>
<path d="M5604 3385 c-4 -8 -4 -23 -2 -33 4 -14 -1 -17 -29 -16 -35 1 -63 -17
-63 -39 0 -7 4 -6 10 3 11 17 70 23 88 8 9 -8 12 1 12 41 0 51 -6 64 -16 36z"/>
<path d="M6626 3501 c-4 -5 -2 -12 3 -15 5 -4 12 -2 15 3 4 5 2 12 -3 15 -5 4
-12 2 -15 -3z"/>
<path d="M6900 3479 c0 -5 5 -7 10 -4 6 3 10 8 10 11 0 2 -4 4 -10 4 -5 0 -10
-5 -10 -11z"/>
<path d="M6710 3466 c0 -2 7 -6 15 -10 8 -3 15 -1 15 4 0 6 -7 10 -15 10 -8 0
-15 -2 -15 -4z"/>
<path d="M6660 3429 c0 -5 5 -7 10 -4 6 3 10 8 10 11 0 2 -4 4 -10 4 -5 0 -10
-5 -10 -11z"/>
<path d="M6220 3421 c0 -6 5 -13 10 -16 6 -3 10 -11 10 -17 0 -6 -7 -5 -17 3
-15 13 -15 12 -3 -11 8 -15 15 -20 18 -12 2 6 8 9 14 6 5 -3 2 8 -6 25 -17 31
-26 39 -26 22z"/>
<path d="M6570 3341 c0 -12 42 -28 109 -42 79 -15 217 -8 256 14 l30 17 -40
-7 c-70 -14 -266 -7 -312 10 -24 9 -43 13 -43 8z"/>
<path d="M6536 3198 c16 -26 100 -51 183 -54 l86 -3 -77 9 c-43 5 -105 20
-138 33 -33 14 -57 20 -54 15z"/>
<path d="M4536 3178 c-35 -61 -46 -94 -45 -136 1 -33 2 -31 15 22 8 33 26 80
39 104 33 58 25 67 -9 10z"/>
<path d="M4655 3199 c3 -9 10 -45 15 -80 l9 -64 -3 68 c-2 38 -9 74 -16 80 -8
9 -10 8 -5 -4z"/>
<path d="M4575 3148 c-22 -75 -31 -158 -16 -158 7 0 11 19 11 48 0 26 7 72 15
102 19 71 11 78 -10 8z"/>
<path d="M4733 3155 c12 -24 23 -41 25 -36 4 12 -24 67 -37 76 -6 3 0 -15 12
-40z"/>
<path d="M6157 3124 c-14 -15 -6 -43 14 -49 25 -8 42 6 37 31 -3 19 -38 31
-51 18z m29 -31 c-10 -10 -19 5 -10 18 6 11 8 11 12 0 2 -7 1 -15 -2 -18z"/>
<path d="M5220 3090 c90 -30 401 -112 406 -107 7 7 -427 129 -453 126 -4 0 17
-9 47 -19z"/>
<path d="M5648 2973 c7 -3 16 -2 19 1 4 3 -2 6 -13 5 -11 0 -14 -3 -6 -6z"/>
<path d="M5620 2897 c17 -16 567 -178 600 -176 18 1 -11 10 -150 48 -58 16
-168 49 -245 74 -138 44 -215 64 -205 54z"/>
<path d="M6061 2826 c7 -8 173 -55 178 -51 1 2 -30 13 -70 25 -104 31 -115 33
-108 26z"/>
<path d="M6505 2810 c-8 -13 14 -42 26 -34 5 3 9 14 9 25 0 20 -24 26 -35 9z"/>
<path d="M6503 2644 c-8 -21 13 -42 28 -27 13 13 5 43 -11 43 -6 0 -13 -7 -17
-16z"/>
<path d="M7301 2887 c-61 -124 -111 -229 -110 -234 0 -4 52 95 115 221 63 126
113 231 110 233 -3 3 -55 -96 -115 -220z"/>
<path d="M7417 3043 c-13 -12 -7 -33 8 -33 8 0 15 9 15 20 0 20 -11 26 -23 13z"/>
<path d="M6945 2120 c-41 -82 -73 -150 -70 -150 3 0 39 68 80 150 41 83 73
150 70 150 -3 0 -39 -67 -80 -150z"/>
<path d="M6803 1974 c-9 -23 11 -38 26 -20 13 16 7 36 -10 36 -5 0 -12 -7 -16
-16z"/>
<path d="M7050 2909 c-63 -33 -104 -57 -90 -53 21 5 205 98 219 110 18 16 -32
-6 -129 -57z"/>
<path d="M6920 2904 c-52 -25 -126 -59 -164 -76 -38 -18 -64 -34 -58 -36 5 -1
84 33 174 77 89 44 159 79 153 80 -5 0 -53 -20 -105 -45z"/>
<path d="M4798 3030 c-20 -11 -45 -32 -56 -47 -33 -49 -34 -59 -1 -20 35 42
77 67 129 78 l35 7 -35 0 c-19 1 -52 -8 -72 -18z"/>
<path d="M4844 2988 c-32 -22 -56 -49 -72 -81 -13 -27 -21 -51 -18 -54 2 -3
14 15 26 40 24 51 49 76 105 106 22 12 32 21 23 21 -8 0 -37 -15 -64 -32z"/>
<path d="M5062 2845 c-1 -16 -9 -43 -17 -59 -9 -16 -13 -31 -11 -33 11 -11 37
61 33 90 l-4 32 -1 -30z"/>
<path d="M5001 2812 c0 -8 -10 -27 -22 -44 -12 -16 -19 -31 -16 -34 9 -10 48
56 44 74 -3 9 -5 11 -6 4z"/>
<path d="M3900 2864 c0 -8 32 -33 43 -34 5 0 5 4 2 10 -8 13 -45 33 -45 24z"/>
<path d="M5280 2727 c9 -10 283 -87 305 -86 11 0 -39 18 -112 39 -144 42 -201
56 -193 47z"/>
<path d="M5656 2702 c14 -13 192 -64 206 -60 7 3 -8 10 -32 16 -25 6 -76 21
-114 32 -38 11 -65 16 -60 12z"/>
<path d="M6503 2454 c-7 -18 11 -39 26 -30 17 11 13 46 -4 46 -9 0 -18 -7 -22
-16z"/>
<path d="M6503 2254 c-7 -18 11 -39 26 -30 17 11 13 46 -4 46 -9 0 -18 -7 -22
-16z"/>
<path d="M3055 2450 c17 -18 111 -69 158 -84 9 -3 17 -13 17 -21 0 -9 15 -49
34 -90 l34 -73 -38 13 c-21 7 -52 21 -70 30 -17 9 -34 14 -36 12 -7 -6 52 -39
110 -63 26 -10 56 -30 65 -42 9 -13 35 -48 59 -79 24 -30 42 -57 39 -59 -2 -3
-29 4 -58 16 -30 11 -56 20 -59 20 -14 0 44 -31 98 -53 35 -14 80 -40 101 -56
48 -38 63 -40 30 -5 l-24 27 30 -8 c48 -11 156 -24 200 -23 l40 0 -40 9 c-22
4 -89 17 -150 28 -121 22 -125 24 -211 144 -30 42 -32 48 -14 42 11 -4 71 -19
132 -35 l111 -28 45 -61 c53 -75 68 -74 18 0 -19 29 -34 54 -32 56 1 2 62 -3
135 -9 l132 -12 22 -50 c24 -57 35 -48 14 12 l-14 40 66 8 66 9 -70 5 -69 5
-17 55 c-9 30 -19 67 -23 83 l-6 27 77 1 78 2 -68 8 c-91 10 -97 13 -97 48 0
16 -5 33 -11 37 -8 5 -9 -6 -4 -35 7 -40 6 -41 -22 -41 -59 1 -262 29 -281 39
-11 6 -23 26 -26 45 -4 20 -10 38 -15 40 -5 3 -5 -12 -1 -34 4 -22 5 -41 3
-44 -7 -7 -251 60 -268 74 -8 6 -17 27 -21 46 -3 19 -10 37 -15 40 -11 7 -11
-3 0 -44 13 -42 4 -42 -94 9 -58 29 -74 34 -60 19z m355 -142 l115 -30 30 -77
c16 -42 31 -81 33 -87 3 -13 -82 3 -188 35 l-70 22 -34 67 c-18 37 -37 78 -41
91 -7 22 -5 23 16 16 13 -4 76 -21 139 -37z m335 -59 c61 -6 111 -13 113 -14
4 -4 42 -146 42 -157 0 -18 -257 7 -276 26 -10 11 -74 150 -74 162 0 4 19 4
43 1 23 -4 92 -12 152 -18z"/>
<path d="M4416 1929 c-54 -10 -101 -21 -104 -24 -18 -17 168 12 203 33 24 14
24 14 -99 -9z"/>
<path d="M7278 2386 c-84 -48 -84 -54 0 -12 66 33 85 47 65 46 -5 0 -34 -15
-65 -34z"/>
<path d="M7228 2289 c-32 -16 -58 -32 -58 -34 0 -3 27 8 60 25 33 17 60 32 60
35 0 7 2 8 -62 -26z"/>
<path d="M6503 2074 c-3 -8 1 -23 10 -32 15 -14 17 -14 23 1 8 21 -1 47 -16
47 -6 0 -13 -7 -17 -16z"/>
<path d="M3970 1870 c-9 -6 -10 -10 -3 -10 6 0 15 5 18 10 8 12 4 12 -15 0z"/>
<path d="M4221 1871 c-9 -6 -10 -11 -2 -15 13 -8 31 1 31 15 0 11 -11 11 -29
0z"/>
<path d="M3970 1839 c0 -5 6 -7 13 -4 6 4 5 1 -4 -7 -19 -15 -14 -38 8 -38 9
0 13 6 10 15 -4 8 -1 17 5 21 7 4 6 9 -3 15 -19 12 -29 11 -29 -2z"/>
<path d="M4246 1841 c-3 -5 3 -20 14 -32 11 -13 19 -19 20 -12 0 6 -6 14 -12
16 -10 4 -10 6 0 6 17 1 15 31 -2 31 -8 0 -17 -4 -20 -9z"/>
<path d="M4230 1792 c0 -6 9 -12 20 -15 11 -3 20 -3 20 -1 0 2 -9 8 -20 14
-11 6 -20 7 -20 2z"/>
<path d="M4007 1783 c-4 -3 -7 -11 -7 -17 0 -6 5 -5 12 2 6 6 9 14 7 17 -3 3
-9 2 -12 -2z"/>
<path d="M4341 1553 c-1 -22 -21 -38 -70 -54 -22 -8 -20 -8 9 -4 42 7 74 35
67 61 -4 16 -5 16 -6 -3z"/>
<path d="M3911 1469 c-1 -16 20 -39 49 -54 8 -4 3 3 -12 16 -14 13 -28 31 -31
39 -5 13 -6 13 -6 -1z"/>
<path d="M7231 2018 c-12 -12 -24 -32 -27 -44 -5 -19 -9 -20 -43 -11 -156 42
-251 -138 -162 -310 33 -66 50 -75 161 -86 99 -10 100 -9 140 17 46 30 81 81
105 152 17 52 14 97 -11 146 -16 30 -80 68 -115 68 l-22 0 23 25 c19 21 22 30
14 43 -17 26 -40 26 -63 0z m20 -40 c-25 -26 -28 -12 -4 22 9 13 18 19 21 12
2 -6 -6 -21 -17 -34z m-75 -53 c17 -13 17 -14 2 -15 -45 0 4 -39 50 -40 17 0
32 5 32 10 0 6 -10 10 -21 10 -19 0 -20 2 -8 16 21 26 88 12 122 -26 54 -60
26 -185 -59 -259 -32 -29 -42 -32 -73 -26 -20 4 -59 7 -88 9 -35 1 -59 8 -74
21 -34 31 -60 99 -61 163 -1 67 20 115 60 136 35 20 93 20 118 1z"/>
<path d="M3018 1829 c-31 -3 -71 -15 -90 -26 -30 -17 -33 -24 -33 -64 0 -42 2
-45 45 -66 35 -18 60 -23 125 -22 94 0 141 14 168 50 25 34 16 81 -20 105 -32
21 -120 31 -195 23z m161 -37 c19 -9 36 -22 39 -29 17 -55 -252 -73 -297 -20
-42 51 174 92 258 49z m-224 -87 c22 -8 72 -14 110 -14 39 0 88 6 110 14 50
18 50 18 36 1 -14 -17 -94 -36 -150 -36 -43 0 -137 26 -146 40 -8 13 -8 13 40
-5z"/>
<path d="M3370 1613 c-109 -19 -160 -59 -160 -123 0 -77 72 -115 220 -115 151
0 220 37 220 120 0 47 -22 75 -80 98 -37 16 -159 28 -200 20z m177 -38 c27 -8
58 -24 68 -35 16 -18 17 -21 1 -44 -21 -33 -100 -56 -190 -56 -85 0 -137 13
-172 44 -22 19 -25 26 -16 43 11 21 69 53 94 53 10 0 10 -3 -2 -11 -12 -9 -12
-10 3 -5 10 3 28 6 40 7 20 1 20 2 -3 9 -48 15 125 11 177 -5z m60 -130 c-37
-33 -87 -45 -182 -45 -92 0 -145 12 -169 39 -16 18 -15 18 36 0 96 -33 282
-18 318 26 7 9 16 13 19 9 3 -3 -6 -16 -22 -29z"/>
<path d="M3465 1561 c18 -12 33 -17 39 -11 11 11 46 -6 46 -23 0 -14 -64 -39
-98 -38 -13 1 -31 -3 -41 -8 -12 -7 -30 -5 -56 3 -39 14 -38 19 7 30 16 3 27
12 25 19 -1 8 10 11 33 9 26 -1 31 0 20 8 -23 15 -48 12 -62 -9 -7 -10 -28
-22 -46 -25 -17 -4 -32 -11 -32 -15 0 -5 21 -16 46 -26 36 -14 51 -15 70 -6
13 6 31 8 39 5 8 -4 22 -1 29 5 8 7 27 13 42 14 17 2 30 10 35 25 11 28 -22
52 -83 59 l-43 5 30 -21z"/>
<path d="M3276 1544 c-24 -24 -19 -30 7 -8 12 10 24 20 26 21 2 2 -1 3 -7 3
-6 0 -18 -7 -26 -16z"/>
<path d="M3467 1528 c6 -11 53 -10 53 1 0 4 -13 8 -29 7 -16 -1 -27 -4 -24 -8z"/>
<path d="M6715 1550 c-93 -20 -135 -53 -135 -105 0 -77 70 -115 210 -114 154
0 210 29 210 110 0 39 -4 51 -26 68 -48 38 -179 59 -259 41z m185 -33 c36 -10
44 -16 42 -32 -2 -17 -1 -17 8 -5 9 13 11 13 20 0 17 -27 11 -39 -32 -62 -36
-19 -59 -22 -143 -22 -84 0 -107 3 -142 22 -50 26 -56 53 -17 78 49 33 180 43
264 21z m-185 -137 c72 -15 161 -7 221 19 24 11 44 15 44 10 0 -6 -21 -20 -47
-32 -94 -43 -304 -23 -321 31 -3 11 1 11 19 -1 13 -8 51 -21 84 -27z"/>
<path d="M6835 1509 c11 -7 26 -14 34 -15 7 -2 18 -7 24 -13 12 -12 -48 -41
-86 -41 -13 0 -27 -4 -32 -9 -6 -5 -27 -1 -50 9 -38 18 -38 19 -12 19 15 1 30
8 33 16 7 17 59 21 69 5 3 -5 21 -9 38 -9 20 1 25 3 12 6 -11 2 -37 11 -58 19
-46 17 -40 18 -67 -6 -13 -11 -34 -20 -47 -20 -38 0 -26 -19 24 -41 37 -16 52
-18 68 -9 12 6 25 10 31 8 13 -4 94 30 94 40 0 16 -34 40 -65 47 -27 6 -28 5
-10 -6z"/>
<path d="M6929 1443 c-13 -16 -12 -17 4 -4 16 13 21 21 13 21 -2 0 -10 -8 -17
-17z"/>
<path d="M4420 1211 c-42 -9 -77 -27 -107 -54 -18 -16 -23 -31 -23 -68 0 -41
4 -51 35 -78 46 -40 101 -54 206 -54 139 1 219 47 219 128 0 84 -65 126 -205
131 -49 2 -106 0 -125 -5z m242 -38 c85 -38 87 -87 6 -127 -93 -46 -273 -32
-335 26 -13 12 -23 28 -23 35 0 23 50 62 99 78 65 21 192 15 253 -12z m-247
-160 c65 -19 208 -12 254 11 39 20 53 14 19 -8 -49 -32 -179 -46 -260 -27 -21
5 -52 19 -70 31 -18 12 -24 19 -13 15 11 -5 43 -14 70 -22z"/>
<path d="M4555 1170 c-3 -6 1 -13 10 -16 19 -8 30 0 20 15 -8 14 -22 14 -30 1z"/>
<path d="M4356 1145 c-29 -27 -29 -58 2 -82 28 -22 32 -14 7 12 -34 34 -32 46
15 78 13 9 20 17 14 17 -6 0 -23 -11 -38 -25z"/>
<path d="M4480 1161 c0 -16 30 -33 46 -27 13 5 14 9 4 21 -13 16 -50 21 -50 6z
m40 -11 c0 -5 -2 -10 -4 -10 -3 0 -8 5 -11 10 -3 6 -1 10 4 10 6 0 11 -4 11
-10z"/>
<path d="M4605 1160 c-10 -16 43 -36 57 -22 9 9 4 12 -22 12 -26 0 -31 3 -20
10 9 6 10 10 3 10 -6 0 -15 -4 -18 -10z"/>
<path d="M4440 1135 c11 -13 10 -14 -6 -9 -10 4 -16 3 -11 -1 4 -5 15 -9 25
-10 9 -1 29 -7 44 -13 15 -6 34 -9 42 -6 7 3 29 -2 47 -10 33 -14 33 -14 7
-15 -15 -1 -30 4 -33 9 -3 6 -12 10 -18 10 -7 0 -1 -9 12 -19 20 -15 30 -17
54 -9 15 6 25 14 20 18 -12 12 -86 34 -101 31 -7 -1 -29 7 -48 18 -42 25 -51
26 -34 6z"/>
<path d="M4701 1116 c0 -11 -9 -29 -18 -40 -17 -20 -16 -20 6 0 14 13 21 29
18 40 -4 18 -5 18 -6 0z"/>
<path d="M4630 1110 c0 -6 4 -9 9 -6 5 4 11 3 13 -1 3 -5 4 -4 3 1 -2 14 -25
20 -25 6z"/>
<path d="M4370 1089 c0 -5 5 -7 10 -4 6 3 10 1 10 -4 0 -6 9 -11 19 -11 11 0
21 -7 23 -15 2 -10 7 -12 17 -5 12 7 10 11 -12 21 -15 7 -27 16 -27 21 0 4 -9
8 -20 8 -11 0 -20 -5 -20 -11z"/>
<path d="M4630 1050 c-8 -5 -10 -10 -5 -10 6 0 17 5 25 10 8 5 11 10 5 10 -5
0 -17 -5 -25 -10z"/>
</g>
</svg>
