<?xml version="1.0" standalone="no"?>
<!DOCTYPE svg PUBLIC "-//W3C//DTD SVG 20010904//EN"
 "http://www.w3.org/TR/2001/REC-SVG-20010904/DTD/svg10.dtd">
<svg version="1.0" xmlns="http://www.w3.org/2000/svg"
 width="1024.000000pt" height="559.000000pt" viewBox="0 0 1024.000000 559.000000"
 preserveAspectRatio="xMidYMid meet">
<metadata>
Created by potrace 1.16, written by Peter Selinger 2001-2019
</metadata>
<g transform="translate(0.000000,559.000000) scale(0.100000,-0.100000)"
fill="#000000" stroke="none">
<path d="M4235 4353 c-376 -45 -637 -166 -881 -408 -300 -295 -475 -738 -475
-1195 -1 -330 83 -603 270 -881 239 -357 602 -576 1028 -619 281 -29 449 -20
638 35 84 24 265 106 345 156 l35 22 55 -35 c66 -42 199 -99 295 -127 151 -43
224 -52 430 -53 172 -1 213 2 291 20 259 61 473 180 659 367 255 256 403 573
449 960 20 163 20 216 0 385 -25 219 -74 389 -165 575 -250 506 -781 830
-1313 801 -167 -9 -263 -23 -364 -52 -90 -26 -269 -106 -324 -145 -29 -21 -32
-21 -57 -5 -139 89 -343 162 -536 192 -81 12 -303 17 -380 7z m190 -43 c293
-34 534 -145 738 -339 247 -236 407 -536 467 -876 29 -167 30 -414 0 -578 -85
-478 -365 -877 -760 -1081 -204 -105 -366 -147 -575 -148 -265 -2 -515 74
-745 227 -87 57 -275 241 -340 333 -277 388 -362 870 -234 1340 124 458 392
803 769 989 141 70 266 107 435 128 125 17 139 17 245 5z m1680 -28 c336 -80
609 -274 809 -575 186 -279 276 -579 276 -922 0 -363 -110 -697 -321 -978
-371 -494 -981 -652 -1513 -391 -50 25 -99 51 -110 59 -18 13 -17 15 10 38
l27 24 61 -35 c118 -66 268 -111 448 -134 86 -10 116 -10 213 4 187 27 381
101 537 204 65 43 208 178 208 197 0 5 -32 -21 -72 -58 -122 -113 -275 -205
-428 -258 -161 -55 -196 -61 -365 -61 -142 0 -172 3 -270 28 -99 25 -305 110
-305 125 0 4 26 29 58 57 50 45 64 52 116 58 32 3 67 11 77 17 19 10 85 3 93
-10 3 -4 -17 -14 -43 -24 -56 -20 -101 -61 -83 -79 17 -17 107 -22 157 -8 25
7 66 26 91 41 24 16 52 29 61 29 10 0 -7 -15 -37 -32 -71 -44 -82 -63 -51 -89
13 -10 27 -19 32 -19 4 0 27 20 51 46 31 33 48 44 63 40 11 -3 36 -1 55 3 32
7 40 3 87 -37 54 -45 77 -49 103 -17 17 20 1 38 -64 75 -74 43 -35 50 45 8 54
-28 73 -33 133 -33 41 0 81 6 96 14 l24 14 -33 28 c-19 15 -50 32 -70 37 l-36
9 35 15 c30 13 39 13 62 1 15 -7 47 -16 70 -19 73 -10 214 52 194 85 -4 6 -33
16 -66 23 l-59 12 34 23 c26 18 52 24 104 27 79 4 139 32 185 87 45 54 31 73
-45 58 -24 -4 -47 -8 -52 -9 -4 0 11 24 34 53 30 38 53 56 85 67 80 27 139 93
168 188 6 19 4 22 -20 22 -14 0 -43 -10 -62 -22 -31 -19 -35 -20 -29 -4 4 10
10 28 13 41 3 13 23 35 44 49 54 36 86 81 106 153 27 97 6 119 -59 59 l-37
-34 0 37 c0 25 6 40 19 48 35 22 71 111 71 177 0 118 -22 136 -70 60 -28 -45
-29 -46 -36 -20 -4 17 2 42 20 78 20 39 26 67 26 115 0 62 -17 124 -39 137
-11 7 -37 -36 -56 -98 l-13 -41 -1 45 c-2 62 -30 119 -82 163 -53 46 -75 45
-71 -3 6 -60 42 -126 93 -175 28 -26 48 -49 46 -51 -2 -2 -30 9 -63 26 -70 35
-84 37 -84 10 0 -52 86 -147 153 -169 38 -13 40 -16 52 -96 l6 -40 -25 36
c-28 41 -90 84 -106 74 -14 -9 -13 -33 6 -95 12 -40 29 -66 70 -107 56 -56 62
-75 44 -133 l-7 -25 -12 30 c-17 42 -59 95 -76 95 -21 0 -30 -83 -16 -144 6
-27 25 -71 41 -96 30 -47 30 -47 14 -93 -21 -61 -34 -68 -34 -17 0 50 -25 113
-42 108 -46 -16 -72 -162 -45 -250 l15 -48 -34 -45 c-19 -25 -36 -45 -37 -45
-1 0 -2 30 -2 67 0 79 -12 89 -54 44 -45 -48 -72 -112 -74 -178 -2 -61 -4 -64
-70 -107 l-29 -19 21 42 c24 46 32 112 15 118 -17 6 -95 -57 -126 -102 -15
-22 -32 -61 -38 -87 -11 -43 -14 -47 -60 -62 -66 -22 -68 -21 -33 16 55 58 83
138 48 138 -28 0 -107 -43 -139 -75 -31 -32 -48 -58 -66 -107 -7 -22 -16 -28
-40 -28 -18 0 -33 6 -36 15 -8 21 -92 21 -100 0 -4 -8 -16 -15 -28 -15 -15 0
-30 16 -54 60 -18 32 -47 71 -65 84 -46 36 -107 60 -119 48 -14 -14 6 -71 43
-122 29 -40 30 -42 7 -35 -60 19 -64 23 -82 82 l-18 59 47 73 c41 63 109 198
128 254 6 15 23 17 157 17 127 0 150 2 150 15 0 13 -23 15 -144 15 -139 0
-144 1 -139 20 5 18 15 20 166 22 117 2 161 6 165 16 3 9 -32 12 -153 12 -144
0 -156 1 -153 18 3 15 20 17 166 20 135 2 162 5 162 17 0 11 -13 15 -51 15
-57 0 -66 23 -11 28 35 4 45 22 12 22 -11 0 -20 5 -20 10 0 6 9 10 20 10 22 0
27 16 8 22 -16 6 -22 243 -11 443 l8 140 36 3 36 3 7 -78 c3 -42 9 -148 13
-235 3 -87 10 -158 15 -158 9 0 9 240 0 378 -5 61 -3 97 3 102 6 5 17 25 24
44 12 28 20 35 48 38 42 5 44 3 76 -55 l27 -47 -12 -203 c-8 -148 -8 -227 0
-288 6 -51 7 -85 1 -87 -5 -2 -9 -12 -9 -22 0 -10 -7 -20 -15 -24 -8 -3 -15
-14 -15 -25 0 -13 -8 -21 -22 -23 -13 -2 -23 -7 -23 -13 0 -6 59 -11 153 -13
144 -2 152 -4 152 -22 0 -19 -7 -20 -136 -20 -104 0 -135 -3 -132 -12 4 -10
48 -14 166 -16 153 -2 162 -4 162 -22 0 -18 -9 -20 -157 -22 -216 -4 -209 -22
10 -26 l167 -2 0 50 c0 46 -2 50 -24 50 -18 0 -25 8 -32 33 -7 22 -17 33 -32
35 -16 2 -22 10 -22 28 0 13 -4 24 -8 24 -25 0 -35 61 -34 210 1 85 -2 214 -6
285 -8 125 -7 132 15 167 13 21 23 44 23 52 0 8 7 17 16 20 12 5 15 14 9 39
-3 17 -9 51 -12 75 -5 40 -4 42 21 42 18 0 30 8 41 29 25 49 27 47 -145 138
-431 229 -538 283 -559 283 -12 0 -71 -25 -132 -56 -61 -30 -113 -54 -114 -52
-2 2 -27 39 -56 83 -67 104 -82 122 -196 236 l-95 97 45 26 c102 60 309 119
468 132 204 18 472 -64 682 -208 139 -96 160 -106 102 -52 -184 171 -471 284
-724 284 -194 0 -443 -67 -563 -152 -30 -21 -48 -16 -81 20 -18 19 -17 20 15
40 151 91 284 138 463 166 68 10 312 -4 390 -22z m-1230 -41 c469 -166 827
-602 919 -1121 49 -276 42 -480 -25 -745 -129 -512 -512 -923 -979 -1054 -100
-28 -180 -44 -180 -36 0 2 30 13 68 25 223 71 448 220 611 403 189 212 314
470 379 779 13 65 17 133 17 318 -1 258 -12 335 -77 539 -118 371 -420 725
-751 881 -98 47 -94 50 18 11z m1523 -2 c185 -65 339 -165 497 -324 253 -252
396 -557 440 -938 19 -156 19 -235 -1 -382 -37 -282 -122 -516 -265 -727 -159
-233 -430 -443 -674 -521 -93 -30 -147 -43 -100 -24 171 67 364 194 487 320
187 191 341 474 403 745 92 397 37 848 -145 1189 -167 312 -398 537 -677 659
-97 42 -80 44 35 3z m-88 -737 c258 -134 276 -145 272 -165 -3 -16 -28 -17
-400 -15 -345 3 -397 5 -397 18 0 13 44 15 323 18 321 2 349 6 301 34 -66 40
-480 250 -500 254 -18 4 -52 -8 -119 -41 -51 -25 -96 -43 -101 -38 -22 23 -7
37 96 92 l110 58 125 -65 c69 -35 199 -103 290 -150z m-194 13 c121 -63 226
-119 234 -124 10 -7 -83 -10 -283 -10 l-297 -1 -25 57 c-44 99 -46 92 52 144
48 25 91 47 94 48 4 0 105 -51 225 -114z m394 -265 l0 -40 -344 0 -344 0 -11
31 c-6 18 -11 36 -11 40 0 5 160 9 355 9 l355 0 0 -40z m284 -43 c30 -39 51
-117 31 -117 -26 0 -95 118 -95 162 0 15 38 -11 64 -45z m-264 -37 c0 -20 -7
-20 -349 -20 -299 0 -350 2 -355 15 -4 13 29 15 247 18 139 1 298 3 355 5 96
2 102 1 102 -18z m416 -104 c8 -59 -22 -151 -39 -120 -14 24 -12 131 3 169 10
26 13 28 21 13 5 -9 12 -37 15 -62z m-963 58 c16 -4 27 -12 27 -22 0 -9 9 -32
20 -50 20 -32 20 -40 10 -225 -7 -116 -8 -229 -3 -285 5 -51 6 -95 2 -98 -11
-6 -39 -65 -39 -81 0 -10 -22 -13 -95 -13 -52 0 -95 2 -95 4 0 2 9 46 19 97
41 202 45 372 15 626 l-6 53 58 -1 c33 0 71 -3 87 -5z m212 -14 c-3 -5 -42
-10 -86 -10 -46 0 -79 4 -79 10 0 6 35 10 86 10 54 0 83 -4 79 -10z m305 0 c0
-6 -33 -10 -80 -10 -47 0 -80 4 -80 10 0 6 33 10 80 10 47 0 80 -4 80 -10z
m-22 -42 c-3 -8 -24 -13 -58 -13 -34 0 -55 5 -57 13 -4 9 12 12 57 12 45 0 61
-3 58 -12z m-313 -8 c-3 -5 -28 -10 -55 -10 -27 0 -52 5 -55 10 -4 6 17 10 55
10 38 0 59 -4 55 -10z m650 -62 c45 -40 71 -75 62 -85 -7 -7 -68 25 -95 51
-21 18 -52 66 -52 80 0 13 46 -11 85 -46z m-355 6 c0 -15 5 -113 10 -218 6
-106 7 -224 3 -266 l-8 -75 -41 -3 -42 -3 -7 72 c-4 40 -4 173 0 296 l7 223
39 0 c35 0 39 -2 39 -26z m547 -206 c-6 -45 -49 -138 -64 -138 -13 0 6 130 26
176 20 43 23 47 33 30 6 -11 8 -40 5 -68z m-165 5 c31 -34 53 -77 63 -123 l7
-35 -37 35 c-38 35 -74 100 -75 133 0 24 12 21 42 -10z m9 -270 c21 -49 27
-149 8 -137 -22 13 -49 90 -49 142 0 63 12 61 41 -5z m164 20 c-9 -51 -37
-102 -74 -137 l-31 -30 0 25 c1 35 32 99 70 142 18 20 34 37 37 37 3 0 2 -17
-2 -37z m-525 -143 c0 -6 -28 -10 -65 -10 -37 0 -65 4 -65 10 0 6 28 10 65 10
37 0 65 -4 65 -10z m28 -47 c3 -10 -19 -13 -87 -13 -83 0 -111 7 -94 24 13 12
176 2 181 -11z m266 -106 c-1 -40 -7 -85 -13 -102 -11 -27 -13 -28 -23 -12
-25 46 -2 225 26 197 6 -6 11 -41 10 -83z m166 13 c0 -13 -27 -58 -54 -88 -23
-26 -96 -67 -96 -55 1 23 51 91 88 120 45 34 62 40 62 23z m-305 -207 c-8 -45
-49 -136 -70 -153 -13 -11 -15 -8 -15 16 0 43 16 93 45 136 33 49 48 49 40 1z
m106 -133 c-45 -41 -103 -64 -149 -58 -26 3 -25 3 14 33 40 31 124 64 159 64
16 0 11 -8 -24 -39z m-297 -27 c-10 -41 -40 -88 -81 -124 -44 -38 -53 -26 -24
35 22 45 84 116 102 116 5 0 7 -12 3 -27z m-204 -68 c0 -17 -33 -65 -67 -96
-40 -38 -103 -76 -103 -61 0 13 55 95 76 113 35 30 94 57 94 44z m-506 -76
c15 -17 33 -44 42 -60 13 -27 13 -29 -4 -29 -27 0 -99 66 -122 111 -11 21 -20
41 -20 44 0 13 80 -37 104 -66z m-174 -11 c0 -17 -1 -17 -25 -2 -28 18 -30 25
-13 42 10 10 15 9 25 -5 7 -9 13 -25 13 -35z m980 2 c38 -24 -137 -63 -190
-42 -25 10 -24 10 20 31 48 22 143 28 170 11z m-1011 -51 c-16 -10 -79 -12
-79 -2 0 3 7 14 16 24 15 17 19 17 47 3 23 -12 27 -18 16 -25z m426 -64 c0
-27 -3 -30 -30 -30 -21 0 -31 5 -33 18 -6 33 6 49 35 45 24 -3 28 -8 28 -33z
m318 -1 c20 -10 37 -21 37 -26 0 -17 -125 -8 -170 13 -40 19 -43 22 -25 30 29
13 114 4 158 -17z m-503 1 c0 -9 -79 -45 -121 -54 -43 -10 -99 -5 -99 9 0 6
50 30 90 44 20 6 130 7 130 1z m45 -70 c-51 -45 -70 -55 -63 -32 4 11 96 77
108 77 2 0 -18 -20 -45 -45z m238 15 c45 -28 61 -50 35 -50 -15 1 -105 80 -91
80 5 0 30 -13 56 -30z"/>
<path d="M4145 4215 c-207 -37 -429 -135 -593 -261 -88 -68 -218 -201 -271
-279 -94 -136 -163 -288 -215 -479 -58 -208 -61 -235 -61 -466 1 -192 3 -224
24 -300 65 -242 169 -456 281 -580 38 -42 31 -27 -28 60 -24 36 -70 119 -102
185 -173 354 -202 671 -99 1065 100 379 275 637 559 824 149 98 359 183 510
207 121 19 345 6 459 -25 106 -30 263 -103 363 -169 76 -50 72 -31 -6 27 -67
50 -201 117 -300 150 -159 53 -367 70 -521 41z"/>
<path d="M4390 4009 c-42 -31 -49 -32 -150 -34 -111 -3 -180 -19 -260 -60 -25
-13 -74 -37 -110 -53 -36 -16 -86 -48 -112 -71 -48 -43 -108 -146 -108 -186 0
-12 -13 -34 -29 -49 -40 -38 -77 -126 -91 -218 -16 -97 -1 -214 40 -310 l28
-68 -23 6 c-37 9 -66 -5 -80 -39 -11 -26 -11 -37 0 -67 8 -19 19 -54 25 -77
11 -44 49 -83 82 -83 16 0 17 -3 6 -22 -6 -13 -15 -75 -19 -138 -6 -105 -9
-121 -43 -190 -29 -59 -36 -86 -36 -132 l0 -57 46 -20 c25 -12 50 -19 54 -16
4 2 10 39 13 82 5 68 31 162 42 151 2 -2 0 -35 -6 -73 -10 -71 -3 -195 11
-195 4 0 28 11 51 25 l44 24 -3 198 c-2 109 -6 207 -9 218 -2 11 7 3 21 -17
15 -21 36 -43 47 -49 20 -10 21 -16 15 -98 -10 -128 -29 -196 -91 -329 -30
-65 -55 -126 -55 -134 0 -26 22 -36 115 -54 160 -30 185 -40 265 -105 41 -34
102 -75 135 -90 54 -26 70 -29 163 -29 97 0 109 -2 184 -35 95 -42 155 -53
182 -33 26 20 17 53 -54 183 -55 99 -60 114 -60 170 0 33 7 85 15 115 8 30 18
93 21 140 4 47 11 90 16 97 5 6 48 16 96 22 124 16 157 27 186 62 33 39 36
113 6 152 -25 32 -25 33 6 70 18 21 24 37 19 54 -3 13 -2 29 2 36 4 7 8 37 8
67 l0 55 59 6 c73 8 90 26 82 86 -6 47 -85 212 -139 293 -35 51 -35 53 -21 92
19 55 18 64 -17 174 -27 85 -29 98 -16 112 22 26 29 76 17 121 -23 85 -119
174 -226 208 -53 16 -55 18 -48 47 7 34 7 35 5 54 -2 21 -64 13 -129 -18 -84
-40 -90 -39 -94 12 -4 55 -21 58 -78 17z m50 -69 c-14 -73 -50 -149 -88 -185
-32 -30 -43 -53 -19 -39 20 12 5 -2 -45 -40 -47 -35 -48 -35 -48 -12 0 13 7
29 15 36 8 7 15 29 15 49 0 55 50 150 110 210 30 28 57 48 62 43 4 -4 4 -32
-2 -62z m220 23 c0 -30 -57 -119 -96 -151 -44 -36 -85 -57 -140 -69 l-40 -9
33 55 c18 30 33 60 33 67 0 19 69 75 124 100 62 28 86 30 86 7z m-362 -55
c-12 -18 -30 -55 -39 -82 -14 -41 -18 -45 -24 -27 -10 34 -44 25 -91 -23 -63
-66 -106 -160 -112 -248 l-5 -73 -14 48 c-7 26 -17 47 -22 47 -14 0 -62 -52
-92 -99 -16 -24 -36 -78 -45 -120 -10 -42 -19 -70 -21 -63 -8 23 -41 12 -73
-25 -53 -59 -80 -134 -88 -237 l-7 -91 -38 76 c-100 196 -88 421 29 552 20 21
34 48 34 62 0 69 95 181 188 221 31 14 86 39 121 57 78 38 153 55 249 56 l73
1 -23 -32z m474 -64 c65 -33 113 -77 137 -128 21 -41 29 -126 13 -126 -13 0
-42 68 -42 99 0 16 -7 31 -15 35 -11 4 -15 -2 -15 -25 0 -34 -21 -79 -46 -100
-16 -13 -17 -12 -10 14 7 31 0 67 -14 67 -5 0 -17 -15 -26 -32 -20 -41 -64
-88 -80 -88 -7 0 -14 12 -16 28 -4 39 -28 33 -43 -12 -17 -48 -37 -63 -47 -36
-9 24 -28 26 -28 4 0 -22 -30 -84 -41 -84 -5 0 -9 9 -9 19 0 11 -4 22 -9 25
-13 9 -21 -20 -15 -52 10 -49 -14 -108 -62 -159 -65 -69 -78 -97 -77 -171 1
-52 -2 -61 -13 -51 -8 6 -14 18 -14 25 0 8 -4 14 -10 14 -12 0 -12 -2 0 -34 7
-20 6 -26 -3 -26 -8 0 -24 22 -36 50 -21 46 -40 68 -85 95 -15 9 -14 14 8 45
14 19 27 46 28 60 2 18 17 33 53 55 62 37 125 119 125 160 0 23 7 35 29 48 65
38 161 162 146 187 -2 4 22 34 53 68 64 68 76 70 164 26z m-564 -155 c-3 -53
-11 -83 -43 -145 -22 -44 -45 -83 -52 -87 -22 -14 -73 -95 -73 -116 0 -33 13
-25 39 23 34 66 133 126 229 142 55 9 54 -4 -5 -67 -53 -57 -91 -79 -176 -104
-31 -9 -57 -20 -57 -24 0 -4 -16 -15 -36 -25 -35 -16 -36 -16 -29 1 4 10 12
49 19 88 9 50 15 65 22 55 6 -10 11 14 14 75 7 105 38 180 104 248 47 49 50
45 44 -64z m297 14 c-27 -43 -66 -83 -105 -107 -39 -25 -211 -98 -216 -93 -10
10 108 145 147 169 42 26 132 56 173 57 18 1 18 0 1 -26z m410 -215 c38 -115
41 -145 24 -210 -11 -42 -10 -45 38 -125 49 -79 133 -258 133 -282 0 -6 -12
-16 -27 -22 -21 -8 -34 -6 -59 7 -28 15 -38 16 -71 6 -33 -10 -40 -10 -50 5
-10 13 -10 21 2 39 18 28 7 39 -17 17 -22 -20 -24 -66 -3 -83 9 -8 30 -11 55
-7 39 5 39 5 24 -18 -11 -17 -14 -36 -9 -67 l7 -44 -81 -13 c-75 -12 -94 -22
-73 -35 5 -3 33 -1 63 3 29 5 59 6 66 4 15 -6 18 -43 3 -43 -6 0 -18 -15 -26
-34 -16 -32 -16 -35 10 -72 40 -59 32 -110 -22 -138 -15 -7 -67 -19 -117 -26
-148 -19 -155 -24 -155 -108 0 -31 -9 -91 -20 -132 -11 -41 -23 -109 -26 -151
l-7 -77 67 -125 c36 -69 66 -130 66 -136 0 -25 -61 -10 -170 42 -37 17 -64 21
-155 22 -98 0 -116 3 -165 27 -30 15 -79 48 -109 73 -97 83 -135 98 -308 125
-41 7 -73 17 -73 23 0 6 22 59 50 117 64 136 90 237 90 354 0 97 8 123 35 113
24 -10 82 18 90 43 4 12 9 19 12 16 14 -13 33 19 33 55 0 35 3 39 25 39 19 0
25 5 25 20 0 30 -27 78 -50 90 -27 14 -27 -6 0 -40 18 -23 26 -50 16 -50 -3 0
-16 4 -30 10 -33 12 -39 0 -20 -39 20 -40 10 -55 -32 -48 -40 7 -54 -7 -24
-23 17 -9 19 -14 9 -26 -15 -19 -68 -18 -90 2 -23 21 -43 10 -29 -16 25 -47
-3 -40 -39 10 -26 36 -49 108 -65 208 -5 28 -3 32 17 32 34 0 119 44 155 80
18 18 41 49 52 69 12 22 19 29 20 18 0 -34 38 -92 107 -164 62 -67 72 -73 107
-73 46 0 76 23 76 57 0 30 -14 29 -34 -2 -27 -41 -54 -32 -124 43 -76 80 -101
129 -102 197 0 60 25 107 70 130 58 30 100 5 164 -95 16 -27 30 -36 55 -38 40
-4 74 22 65 50 -11 35 -6 105 9 134 9 16 32 45 52 64 44 42 60 72 70 128 4 27
12 42 21 42 8 0 22 17 30 37 10 23 18 32 23 24 9 -15 39 -4 51 19 6 12 18 15
39 12 21 -3 39 3 65 23 20 15 36 22 36 16 0 -21 40 -11 72 18 23 20 35 26 40
18 4 -7 24 -60 43 -119z m-922 -108 c-8 -79 -28 -128 -77 -191 -44 -57 -57
-105 -30 -116 7 -3 29 1 49 7 42 14 49 10 40 -19 -4 -14 -15 -21 -33 -21 -15
0 -51 -11 -81 -25 -46 -22 -52 -23 -46 -8 4 10 14 41 21 68 8 28 18 59 23 70
5 11 12 56 14 100 5 94 32 173 79 230 l33 39 7 -39 c4 -22 5 -65 1 -95z m177
-88 c0 -21 -66 -92 -90 -97 -15 -3 -40 -19 -55 -35 -25 -26 -120 -68 -130 -58
-2 2 15 29 39 60 47 59 89 89 164 119 52 20 72 23 72 11z m-354 -153 c-8 -82
-86 -256 -109 -242 -6 3 -8 42 -5 97 5 98 26 160 75 225 l27 35 8 -30 c5 -16
7 -54 4 -85z m134 -134 c0 -16 -42 -84 -67 -107 -33 -31 -108 -67 -141 -68
l-23 0 23 41 c29 53 89 104 142 123 44 16 66 19 66 11z m-343 -85 c22 -13 31
-25 27 -35 -8 -19 -17 -19 -54 0 -16 8 -31 11 -34 6 -8 -12 13 -28 47 -36 31
-8 34 -17 12 -35 -8 -7 -15 -22 -15 -34 l1 -21 18 22 c17 20 20 21 32 7 17
-21 0 -48 -32 -52 -36 -3 -48 9 -65 69 -26 92 -27 99 -14 114 17 20 39 19 77
-5z m87 -81 c4 -23 4 -44 1 -47 -8 -8 -33 20 -35 38 -9 62 24 70 34 9z m39
-486 l3 -211 -23 -5 c-33 -6 -38 23 -23 158 9 88 10 136 1 215 -11 92 -9 171
6 210 13 34 33 -169 36 -367z m-73 313 c-6 -27 -8 -86 -4 -139 6 -88 4 -96
-26 -171 -18 -44 -35 -106 -37 -137 l-6 -57 -29 10 c-28 10 -29 12 -23 57 4
25 22 80 40 121 29 65 34 88 38 175 3 74 9 113 26 149 26 59 35 56 21 -8z"/>
<path d="M4760 3321 c-51 -11 -120 -44 -158 -76 -50 -42 -30 -42 50 1 68 36
79 39 161 40 48 0 89 3 92 6 21 21 -85 42 -145 29z"/>
<path d="M4739 3212 c-73 -39 -99 -55 -99 -64 0 -15 28 -8 71 17 55 31 60 31
53 -2 -6 -34 9 -58 30 -50 11 4 16 20 18 52 0 25 1 50 2 57 2 22 -21 19 -75
-10z"/>
<path d="M4076 3099 c-22 -17 -26 -28 -25 -67 l1 -47 10 37 c19 74 71 87 101
26 14 -30 14 -34 -4 -56 -10 -14 -19 -32 -19 -42 0 -23 38 -70 56 -70 22 0 17
20 -11 42 -31 24 -31 31 1 61 l26 24 -20 47 c-14 30 -30 50 -47 56 -36 14 -38
13 -69 -11z"/>
<path d="M4775 3060 c-32 -33 -17 -42 15 -10 17 17 27 40 17 40 -2 0 -16 -13
-32 -30z"/>
<path d="M4799 2814 c-19 -31 -44 -73 -56 -93 -13 -20 -22 -51 -22 -71 0 -35
0 -35 13 10 6 25 26 65 42 90 39 56 67 110 61 116 -3 3 -20 -21 -38 -52z"/>
<path d="M4261 2638 c-1 -15 8 -52 20 -82 24 -64 62 -99 175 -157 103 -53 127
-49 32 5 -98 56 -165 104 -174 125 -4 9 -17 43 -30 76 -17 46 -23 54 -23 33z"/>
<path d="M4379 2069 c50 -74 100 -145 112 -159 20 -23 20 -22 -2 15 -31 56
-168 252 -186 267 -8 6 26 -49 76 -123z"/>
<path d="M5167 3845 c12 -16 31 -39 43 -50 l23 -20 -11 20 c-6 11 -25 34 -43
50 l-32 30 20 -30z"/>
<path d="M5374 3539 c64 -134 117 -286 148 -425 20 -86 22 -127 22 -319 0
-189 -3 -235 -23 -324 -52 -243 -169 -466 -352 -669 -150 -166 -286 -268 -447
-334 -331 -135 -637 -113 -1012 73 -98 49 -126 60 -103 40 86 -73 331 -174
503 -207 96 -18 307 -18 402 0 232 45 432 160 624 358 214 222 332 424 398
684 20 79 46 298 46 391 0 153 -36 353 -96 532 -32 96 -118 273 -144 296 -14
13 -3 -19 34 -96z"/>
<path d="M3400 1751 c0 -12 61 -63 68 -56 3 2 -3 14 -14 26 -24 26 -54 43 -54
30z"/>
<path d="M6759 3783 c22 -27 50 -59 62 -73 l21 -25 -17 30 c-26 45 -85 115
-96 115 -6 0 8 -21 30 -47z"/>
<path d="M6145 2485 c-31 -30 -32 -69 -2 -99 23 -23 23 -24 7 -74 -10 -29 -29
-70 -44 -92 -14 -22 -26 -44 -26 -50 0 -33 49 17 78 80 l16 35 4 -49 c2 -37
-3 -64 -22 -105 -26 -59 -48 -205 -28 -186 6 6 18 43 27 84 22 104 30 116 45
61 19 -77 41 -140 50 -145 20 -13 19 19 -5 90 -23 67 -50 262 -39 274 7 8 37
-75 42 -117 3 -25 9 -41 16 -39 6 2 11 11 10 20 0 10 -1 32 -2 50 -1 18 -18
59 -37 91 -34 56 -34 57 -15 76 28 28 27 84 -2 104 -31 22 -45 20 -73 -9z m65
-25 c14 -26 -3 -60 -31 -60 -24 0 -33 21 -25 55 8 31 41 34 56 5z"/>
<path d="M6831 1881 c-17 -21 -31 -42 -31 -46 0 -6 20 17 59 68 7 9 11 17 8
17 -3 0 -19 -18 -36 -39z"/>
</g>
</svg>
