<?xml version="1.0" standalone="no"?>
<!DOCTYPE svg PUBLIC "-//W3C//DTD SVG 20010904//EN"
 "http://www.w3.org/TR/2001/REC-SVG-20010904/DTD/svg10.dtd">
<svg version="1.0" xmlns="http://www.w3.org/2000/svg"
 width="1024.000000pt" height="559.000000pt" viewBox="0 0 1024.000000 559.000000"
 preserveAspectRatio="xMidYMid meet">
<metadata>
Created by potrace 1.16, written by Peter Selinger 2001-2019
</metadata>
<g transform="translate(0.000000,559.000000) scale(0.100000,-0.100000)"
fill="#000000" stroke="none">
<path d="M5382 4040 c-53 -11 -136 -48 -222 -100 -116 -69 -138 -73 -410 -80
-275 -8 -324 -17 -385 -74 -51 -48 -48 -81 19 -209 54 -102 54 -102 35 -126
-10 -13 -19 -31 -19 -41 0 -14 -11 -18 -55 -23 -152 -16 -282 -167 -293 -342
-4 -69 15 -163 39 -189 4 -5 -5 -25 -21 -45 -57 -72 -60 -165 -7 -234 l25 -33
-27 -70 c-39 -98 -99 -224 -106 -224 -3 0 -23 9 -45 20 -53 27 -67 25 -85 -10
-21 -41 -19 -48 20 -67 28 -13 32 -19 23 -30 -8 -10 -23 -12 -50 -8 -36 6 -39
5 -52 -26 -18 -44 -8 -62 49 -83 39 -15 45 -22 45 -46 0 -37 24 -60 60 -60 35
0 48 17 94 127 18 43 42 98 54 123 11 25 32 71 46 103 13 31 27 57 29 57 3 0
16 -24 31 -53 14 -30 34 -61 44 -70 16 -15 17 -25 10 -94 -22 -201 -24 -239
-15 -266 16 -47 87 -45 102 3 5 17 15 20 65 20 63 0 70 6 70 62 0 24 -6 32
-30 41 -36 14 -39 27 -6 27 14 0 31 9 39 20 14 21 15 20 113 -19 55 -21 127
-51 162 -66 83 -35 194 -55 300 -55 88 0 185 20 367 75 91 27 287 76 290 73
15 -19 30 -60 32 -88 3 -48 30 -80 97 -116 77 -42 168 -58 292 -52 126 7 216
35 274 86 39 34 43 43 47 92 3 30 0 66 -5 79 -7 21 -4 30 23 57 55 55 56 139
4 206 -16 20 -29 46 -29 57 0 33 -63 94 -119 116 -41 16 -50 23 -46 40 13 67
14 100 4 170 -17 122 -60 226 -156 376 -151 236 -172 271 -203 346 -28 68 -30
75 -15 95 20 29 19 67 -2 90 -15 17 -15 23 -4 51 52 127 71 196 61 221 -22 58
-134 78 -263 47 -49 -12 -90 -21 -92 -21 -1 0 -5 23 -7 51 -3 31 -12 58 -24
69 -23 23 -110 33 -172 20z m126 -36 c30 -9 28 -20 -13 -65 -31 -34 -35 -45
-35 -93 l0 -53 -37 -7 c-76 -12 -75 -12 -69 52 7 65 2 61 -17 -17 -14 -54 -14
-54 -73 -75 -33 -12 -91 -40 -129 -61 -117 -67 -184 -95 -240 -101 -53 -7 -54
-6 -60 22 -35 154 -57 166 -236 119 -108 -28 -147 -31 -174 -11 -16 12 -17 16
-6 30 11 13 11 16 -2 16 -16 0 -27 -20 -27 -50 0 -21 46 -40 99 -40 20 0 73 9
119 20 46 11 99 20 118 20 l35 0 -41 -38 c-22 -22 -40 -44 -40 -51 0 -7 12
-25 28 -40 21 -22 40 -29 88 -34 112 -12 193 11 332 92 149 87 238 110 467
121 99 4 196 14 215 21 45 15 70 37 70 61 0 23 -12 23 -27 -1 -15 -24 -105
-39 -255 -43 l-108 -4 0 31 c0 29 2 30 43 31 23 0 85 10 137 23 111 27 192 24
223 -7 23 -24 19 -40 -50 -201 -66 -152 -80 -280 -39 -337 12 -16 13 -10 9 47
-4 52 -2 67 11 78 15 13 18 11 23 -10 12 -48 110 -227 194 -354 96 -144 123
-194 150 -273 25 -73 43 -209 35 -264 l-7 -45 -57 10 c-129 21 -314 -12 -391
-70 -56 -43 -76 -121 -47 -188 12 -28 11 -32 -16 -63 -20 -24 -28 -43 -28 -71
0 -44 -6 -48 -130 -77 -41 -9 -143 -36 -226 -60 -213 -60 -295 -70 -411 -50
-51 9 -114 24 -140 35 -166 65 -306 124 -361 150 l-63 31 6 63 c4 34 11 89 16
122 5 33 9 77 9 97 0 27 5 38 19 43 64 20 114 100 109 173 -3 46 -2 48 41 78
56 38 116 123 138 194 21 69 20 190 -1 249 -9 24 -16 44 -16 45 0 2 42 3 93 3
50 1 104 6 120 12 26 10 27 9 27 -22 0 -17 3 -43 7 -55 9 -37 23 -6 23 55 0
59 -25 122 -68 173 -36 42 -53 35 -21 -9 12 -17 20 -33 17 -37 -8 -8 -159 -22
-180 -16 -11 3 -18 14 -18 28 0 12 -11 35 -24 51 -19 22 -32 27 -67 27 -24 0
-51 -3 -59 -7 -12 -5 -32 26 -89 138 -88 170 -88 179 7 223 55 26 64 27 302
33 135 4 265 12 289 18 25 7 101 42 170 79 159 84 236 105 309 86z m42 -89 c0
-20 -5 -25 -27 -25 l-26 0 23 25 c13 14 25 25 27 25 2 0 3 -11 3 -25z m-756
-272 c4 -16 10 -37 13 -47 5 -17 1 -18 -28 -12 -19 3 -41 13 -49 22 -13 14
-12 18 13 40 36 31 43 30 51 -3z m1067 -101 c-5 -10 -17 -24 -25 -32 -21 -16
-21 -1 0 48 13 32 17 35 25 20 6 -12 6 -24 0 -36z m-1384 -145 c-5 -15 -20
-18 -36 -8 -9 6 -12 18 -7 37 l8 29 19 -24 c11 -13 18 -29 16 -34z m143 -7
c11 -11 20 -27 20 -37 0 -15 -2 -14 -20 2 -17 15 -23 16 -50 5 -17 -7 -35 -21
-40 -31 -15 -27 -12 -70 7 -91 21 -24 12 -32 -20 -17 -48 22 -57 98 -19 145
39 47 89 57 122 24z m-172 -46 c-2 -11 -18 -16 -63 -18 -69 -3 -125 -28 -173
-77 -37 -38 -112 -172 -111 -197 0 -14 2 -13 9 3 6 14 9 3 10 -40 0 -33 7 -78
15 -99 14 -41 12 -56 -8 -56 -18 0 -37 56 -44 131 -17 194 127 369 305 369 52
0 63 -3 60 -16z m297 -45 c44 0 94 5 112 10 25 7 33 6 37 -6 10 -24 0 -30 -78
-42 -104 -17 -156 -8 -197 36 l-34 34 40 -17 c26 -11 66 -16 120 -15z m-145
-26 c62 -70 89 -178 70 -279 -7 -35 -16 -61 -21 -58 -9 5 -10 4 -14 -33 -3
-31 -40 -87 -82 -124 -62 -54 -131 -76 -222 -70 -42 2 -6 28 48 34 123 15 226
121 252 262 13 70 -9 169 -51 230 -51 74 -36 102 20 38z m-170 17 c0 -23 -47
-123 -122 -261 -69 -128 -84 -149 -105 -149 -25 0 -36 19 -53 96 -26 116 59
270 171 310 41 15 109 18 109 4z m114 -110 c41 0 43 -3 56 -69 17 -88 -16
-198 -78 -264 -43 -46 -59 -51 -88 -28 -14 11 -42 23 -63 26 -116 19 -115 12
-27 171 42 77 83 158 92 180 l16 41 28 -29 c20 -20 38 -28 64 -28z m-286 -339
c16 -10 -17 -34 -61 -45 -16 -4 -39 -17 -52 -31 -46 -45 -45 -106 3 -153 15
-15 37 -41 49 -59 22 -32 22 -32 2 -38 -22 -7 -98 -159 -195 -390 -59 -140
-73 -161 -99 -151 -13 4 -15 13 -10 36 6 28 4 31 -50 57 -37 18 -54 33 -52 43
2 8 10 13 18 11 32 -11 112 -6 117 7 2 7 -2 11 -10 10 -9 -2 -12 6 -10 28 2
27 -2 33 -28 44 -28 12 -39 33 -22 43 4 3 31 -6 61 -20 29 -14 57 -21 61 -16
11 12 121 262 132 300 7 27 4 39 -22 79 -56 88 -34 181 55 231 41 23 90 29
113 14z m128 -36 c42 -18 36 -39 -10 -32 -35 5 -80 -14 -90 -38 -33 -88 59
-156 116 -86 26 32 63 48 73 31 12 -20 -7 -90 -32 -120 -13 -17 -40 -37 -58
-46 -33 -15 -34 -18 -40 -92 -3 -42 -11 -113 -16 -157 -5 -44 -9 -99 -9 -122
l0 -43 39 0 c22 0 46 -3 55 -6 27 -10 18 -33 -16 -42 -29 -7 -33 -13 -36 -44
-3 -33 -1 -37 27 -43 22 -5 31 -13 31 -26 0 -21 -22 -24 -80 -13 l-32 7 5 66
c6 86 -8 47 -18 -46 -7 -75 -20 -98 -45 -83 -16 10 -9 103 30 430 26 215 26
205 -14 229 -96 59 -85 220 18 271 49 24 56 24 102 5z m-212 -96 c-8 -29 -11
-56 -8 -60 3 -5 1 -9 -4 -9 -25 0 -29 61 -6 95 26 39 32 29 18 -26z m196 -39
c10 0 11 -3 3 -11 -14 -14 -55 -8 -61 10 -4 10 1 12 19 8 13 -4 31 -7 39 -7z
m1813 -184 c126 -24 207 -75 207 -130 0 -76 -141 -136 -320 -137 -146 0 -267
40 -314 103 -19 27 -19 29 -3 63 20 41 88 79 180 99 83 19 160 19 250 2z
m-1922 -1 c7 -6 -10 -174 -20 -205 -8 -24 -8 -24 -30 17 -45 89 -33 193 23
193 12 0 25 -2 27 -5z m1519 -234 c-1 -13 -3 -13 -15 3 -19 26 -19 42 0 26 8
-7 15 -20 15 -29z m670 -11 c0 -37 -40 -75 -104 -98 -69 -26 -208 -43 -276
-34 l-55 8 92 7 c50 4 117 16 149 27 31 11 69 20 83 20 14 0 35 7 45 15 24 18
13 20 -17 3 -17 -9 -15 -4 10 25 17 19 34 45 38 57 9 29 35 7 35 -30z m-78 18
c-7 -7 -12 -8 -12 -2 0 14 12 26 19 19 2 -3 -1 -11 -7 -17z m-25 -23 c-4 -8
-11 -15 -17 -15 -14 0 -13 27 3 33 16 6 21 1 14 -18z m-518 -15 c3 -25 3 -25
-18 -6 -26 23 -27 39 -3 34 9 -2 19 -14 21 -28z m477 -17 c-11 -11 -19 6 -11
24 8 17 8 17 12 0 3 -10 2 -21 -1 -24z m-436 1 c0 -8 -4 -14 -10 -14 -5 0 -10
9 -10 21 0 11 5 17 10 14 6 -3 10 -13 10 -21z m38 -12 c3 -16 -1 -20 -12 -16
-19 7 -22 48 -3 42 6 -3 13 -14 15 -26z m372 14 c0 -8 -4 -17 -9 -21 -12 -7
-24 12 -16 25 9 15 25 12 25 -4z m-499 -37 c9 -44 74 -103 137 -123 26 -9 88
-22 137 -30 l90 -15 -130 3 c-146 4 -219 24 -275 76 -36 33 -39 66 -9 104 26
34 42 29 50 -15z m289 26 c36 0 89 4 118 8 48 8 52 7 52 -11 0 -17 -12 -21
-91 -32 -124 -17 -219 -4 -219 30 0 16 5 18 38 12 20 -4 66 -7 102 -7z m-217
-44 c15 -8 27 -22 27 -34 0 -18 -2 -18 -22 -5 -22 15 -60 64 -43 57 6 -3 22
-11 38 -18z m587 0 c-5 -11 -20 -27 -33 -36 -34 -24 -35 3 -1 31 36 29 48 30
34 5z m-510 -53 c0 -14 -5 -18 -16 -14 -9 3 -18 6 -20 6 -2 0 -4 9 -4 19 0 14
5 18 20 14 12 -3 20 -14 20 -25z m440 8 c0 -8 -4 -18 -10 -21 -5 -3 -10 3 -10
14 0 12 5 21 10 21 6 0 10 -6 10 -14z m-400 -22 c0 -22 -2 -25 -15 -14 -8 7
-15 19 -15 26 0 8 7 14 15 14 10 0 15 -10 15 -26z m364 11 c3 -9 -1 -18 -10
-22 -19 -7 -28 2 -21 22 8 19 23 19 31 0z m-214 -9 c47 -1 104 2 128 7 37 6
42 5 42 -12 0 -13 -9 -21 -27 -25 -115 -22 -239 -17 -229 10 3 8 1 14 -4 14
-6 0 -10 -6 -10 -14 0 -9 -7 -12 -20 -9 -11 3 -20 14 -20 24 0 16 5 18 28 12
15 -3 65 -7 112 -7z m-385 -37 c11 -17 -1 -21 -15 -4 -8 9 -8 15 -2 15 6 0 14
-5 17 -11z m656 -52 c-13 -32 -79 -71 -156 -92 -65 -17 -240 -22 -288 -8 -20
6 5 9 80 9 167 1 302 46 341 115 13 21 19 25 24 14 5 -7 4 -25 -1 -38z m-615
5 c-9 -8 -26 10 -26 26 1 15 2 15 15 -2 8 -11 13 -21 11 -24z m564 28 c0 -5
-12 -17 -26 -26 -22 -15 -27 -15 -35 -3 -7 11 -9 11 -9 -3 0 -9 -5 -20 -11
-24 -7 -4 -9 2 -7 17 2 15 14 26 38 35 44 16 50 16 50 4z m-517 -28 c3 7 6 3
6 -10 1 -20 -2 -21 -19 -12 -11 6 -20 18 -20 28 1 16 2 16 14 -1 11 -14 15
-15 19 -5z m414 -38 c-2 -2 -50 -12 -107 -21 -99 -16 -103 -16 -116 2 -23 31
-17 35 54 35 37 0 90 6 117 13 47 13 50 12 53 -6 2 -10 2 -21 -1 -23z m-367
16 c0 -11 -7 -20 -15 -20 -8 0 -15 9 -15 20 0 11 7 20 15 20 8 0 15 -9 15 -20z
m65 0 c6 0 11 -9 12 -20 2 -22 -17 -26 -48 -10 -28 15 -25 44 4 36 12 -3 27
-6 32 -6z m55 -20 c0 -11 -7 -20 -15 -20 -8 0 -15 9 -15 20 0 11 7 20 15 20 8
0 15 -9 15 -20z m-210 -34 c0 -15 -3 -16 -14 -7 -8 6 -16 20 -19 31 -4 16 -2
17 14 7 10 -6 19 -20 19 -31z m609 11 c-6 -13 -19 -28 -30 -35 -31 -20 -24 13
9 37 34 26 34 26 21 -2z m-592 -39 c-3 -7 -5 -2 -5 12 0 14 2 19 5 13 2 -7 2
-19 0 -25z m43 -15 c0 -22 -2 -24 -15 -13 -8 7 -15 21 -15 31 0 12 5 16 15 13
8 -4 15 -17 15 -31z m490 13 c0 -8 -4 -18 -10 -21 -5 -3 -10 3 -10 14 0 12 5
21 10 21 6 0 10 -6 10 -14z m-455 -7 c4 -6 12 -8 19 -6 20 8 49 -9 53 -31 1
-12 -1 -22 -6 -22 -22 0 -41 13 -41 29 0 13 -2 13 -9 2 -12 -19 -41 -6 -41 19
0 21 15 27 25 9z m425 -9 c0 -11 -4 -20 -9 -20 -11 0 -22 26 -14 34 12 12 23
5 23 -14z m-47 -31 c-22 -22 -234 -40 -277 -23 -9 3 -16 14 -16 24 0 16 12 17
118 18 64 1 131 5 147 10 23 7 31 5 33 -6 2 -8 0 -18 -5 -23z"/>
<path d="M5515 3586 c-9 -31 -15 -66 -13 -78 2 -14 11 6 21 51 21 87 15 107
-8 27z"/>
<path d="M4675 3545 c8 -41 57 -168 76 -195 19 -27 1 50 -32 135 -36 94 -54
119 -44 60z"/>
<path d="M5570 3521 c-16 -32 -215 -95 -373 -119 -53 -8 -57 -8 -52 9 10 31
-14 22 -36 -13 -36 -59 -9 -162 38 -144 17 7 17 8 -2 18 -15 9 6 15 118 34 75
13 176 37 224 54 49 17 104 34 123 38 59 12 78 82 34 126 -21 22 -61 20 -74
-3z m63 -34 c3 -8 2 -19 -2 -25 -8 -14 -101 -55 -183 -82 -65 -21 -264 -60
-305 -60 -32 0 -32 38 0 44 12 2 67 12 122 21 109 19 259 64 315 95 42 23 46
24 53 7z"/>
<path d="M5560 3328 c0 -9 20 -56 45 -105 47 -95 109 -174 155 -198 50 -26 53
3 11 90 -16 33 -39 71 -50 85 -12 14 -3 -10 19 -53 39 -75 48 -107 33 -107
-28 2 -103 98 -159 206 -53 101 -54 103 -54 82z"/>
<path d="M5211 3140 c-1 -58 -6 -133 -12 -168 -6 -35 -9 -65 -6 -68 20 -21 48
288 29 322 -7 13 -10 -9 -11 -86z"/>
<path d="M4776 3073 c-4 -38 -9 -88 -12 -113 -4 -39 -3 -42 7 -20 11 26 26
200 17 200 -3 0 -9 -30 -12 -67z"/>
<path d="M4818 2800 c-5 -58 -10 -123 -13 -145 -2 -22 2 -8 11 30 8 39 13 104
12 145 l-3 75 -7 -105z"/>
<path d="M4810 2419 c0 -11 18 -73 39 -137 56 -169 57 -177 27 -207 -21 -21
-22 -25 -8 -25 52 0 56 79 11 207 -17 48 -38 109 -46 136 -16 51 -23 59 -23
26z"/>
<path d="M4520 2242 c0 -22 26 -66 57 -92 l28 -25 -21 25 c-12 14 -31 43 -42
65 -12 22 -21 34 -22 27z"/>
<path d="M4998 2235 c17 -33 75 -83 114 -99 55 -23 60 -19 9 8 -24 13 -64 43
-89 67 -24 24 -40 35 -34 24z"/>
<path d="M6033 2480 c-47 -7 -71 -23 -84 -59 -8 -19 -4 -32 16 -64 17 -25 25
-47 21 -61 -5 -21 1 -24 73 -40 92 -21 113 -15 80 21 -20 20 -21 25 -9 33 8 5
18 10 23 10 4 0 7 11 7 24 0 13 5 26 11 28 7 2 4 16 -7 38 -9 19 -20 42 -24
50 -9 19 -54 27 -107 20z m9 -35 c-3 -16 -1 -16 22 3 17 12 34 18 48 14 21 -5
21 -5 -3 -14 -13 -5 -30 -16 -36 -25 -7 -9 -22 -18 -34 -20 -17 -2 -20 1 -15
14 3 10 -5 5 -19 -12 -19 -23 -27 -27 -36 -18 -25 25 29 89 66 79 6 -2 9 -11
7 -21z m101 -35 c12 -20 14 -30 6 -30 -7 0 -9 -10 -6 -26 4 -24 2 -26 -29 -22
-19 2 -34 0 -34 -4 0 -4 4 -8 9 -8 7 0 41 -54 41 -65 0 -1 -29 5 -65 14 -57
14 -64 18 -58 36 3 11 13 26 22 33 14 12 13 13 -6 9 -26 -6 -38 7 -29 30 6 14
8 14 20 -3 8 -10 18 -15 22 -11 5 4 2 13 -6 18 -13 9 -12 10 2 6 10 -4 29 6
47 24 17 16 34 29 39 29 4 0 16 -13 25 -30z"/>
<path d="M6105 2410 c-3 -5 1 -10 9 -10 9 0 16 5 16 10 0 6 -4 10 -9 10 -6 0
-13 -4 -16 -10z"/>
<path d="M5838 2439 c-77 -40 -78 -105 -3 -159 11 -8 5 2 -12 23 -18 21 -33
47 -33 58 0 21 27 52 70 81 33 23 23 22 -22 -3z"/>
<path d="M6217 2444 c-3 -4 1 -13 9 -21 12 -12 18 -13 29 -3 8 7 15 16 15 21
0 10 -43 12 -53 3z"/>
<path d="M5848 2403 c18 -7 15 -23 -5 -24 -15 0 -15 -2 2 -9 25 -10 64 18 43
32 -7 4 -22 7 -33 7 -11 0 -14 -3 -7 -6z"/>
<path d="M6278 2403 c-27 -7 -22 -38 8 -52 15 -6 29 -9 32 -7 2 3 -8 11 -23
18 -28 13 -28 13 -5 18 13 3 25 11 28 18 4 12 -8 14 -40 5z"/>
<path d="M5833 2346 c4 -12 57 -17 57 -6 0 4 -14 10 -30 12 -19 3 -29 1 -27
-6z"/>
<path d="M6237 2333 c-10 -16 10 -36 29 -29 10 4 21 1 26 -6 6 -9 8 -7 6 7 -3
13 -10 19 -22 17 -11 -2 -22 2 -26 8 -4 7 -10 8 -13 3z"/>
<path d="M5900 2316 c0 -9 -4 -16 -10 -16 -5 0 -10 -4 -10 -9 0 -10 38 -3 45
9 3 4 -2 13 -10 20 -12 10 -15 9 -15 -4z"/>
<path d="M5751 2135 c0 -11 6 -30 14 -42 16 -23 75 -48 75 -32 0 5 -6 9 -14 9
-22 0 -64 39 -69 63 -4 20 -4 20 -6 2z"/>
<path d="M6585 2799 c-129 -18 -195 -65 -195 -139 0 -78 61 -119 210 -139 146
-21 320 21 348 84 21 47 15 98 -15 127 -41 38 -65 48 -156 64 -90 15 -104 16
-192 3z m225 -35 c84 -19 122 -46 118 -82 -7 -62 -121 -97 -289 -90 -150 8
-229 45 -215 103 17 68 226 106 386 69z m-355 -150 c88 -58 352 -58 440 0 33
22 45 13 20 -14 -34 -37 -110 -55 -240 -55 -101 1 -129 4 -178 24 -31 12 -62
31 -67 42 -13 23 -7 24 25 3z"/>
<path d="M6694 2749 c-3 -6 -15 -8 -26 -5 -12 3 -37 -5 -59 -20 -27 -17 -47
-22 -64 -18 -28 7 -32 -5 -14 -38 9 -17 17 -19 49 -14 21 3 41 2 44 -3 10 -16
131 -7 160 13 37 24 31 56 -14 78 -41 20 -66 22 -76 7z m95 -34 c14 -13 14
-17 -2 -32 -19 -19 -145 -35 -154 -20 -3 5 -25 7 -48 3 -33 -4 -44 -2 -49 9
-4 11 2 15 19 15 24 0 76 19 85 31 16 22 126 18 149 -6z"/>
<path d="M6874 2714 c9 -8 16 -22 16 -29 0 -19 -37 -43 -78 -51 -18 -4 -35
-10 -38 -15 -6 -10 97 20 114 33 23 20 8 78 -21 78 -5 0 -1 -7 7 -16z"/>
<path d="M6520 2625 c19 -7 49 -13 65 -13 21 0 14 4 -25 13 -69 18 -85 17 -40
0z"/>
<path d="M3272 2534 c-109 -29 -152 -68 -152 -140 0 -59 43 -107 122 -134 81
-28 250 -28 341 0 106 33 133 67 128 165 -3 41 -51 81 -130 105 -76 24 -229
26 -309 4z m263 -19 c228 -43 191 -163 -60 -196 -76 -10 -102 -9 -168 4 -209
43 -208 150 2 192 89 18 135 18 226 0z m127 -186 c-104 -93 -450 -85 -502 10
-16 31 -12 34 16 12 58 -45 186 -67 304 -51 102 13 145 27 177 55 17 14 30 19
32 12 2 -6 -10 -23 -27 -38z"/>
<path d="M3286 2499 c-42 -10 -96 -44 -96 -61 0 -7 11 -2 24 11 12 12 52 30
87 41 65 19 55 25 -15 9z"/>
<path d="M3450 2501 c0 -4 11 -7 24 -6 26 3 100 -26 111 -44 8 -14 -13 -43
-26 -35 -5 3 -9 0 -9 -5 0 -16 26 -13 40 4 20 24 7 49 -40 73 -44 22 -100 30
-100 13z"/>
<path d="M3363 2478 c-13 -6 -23 -19 -23 -29 0 -12 -11 -20 -32 -24 -88 -18
-88 -24 -3 -60 63 -26 66 -27 85 -10 13 12 29 16 48 12 20 -4 40 1 68 18 42
27 34 34 -12 10 -16 -8 -38 -12 -50 -9 -13 3 -36 -2 -53 -12 -28 -17 -31 -17
-78 4 -48 21 -47 24 8 36 15 3 29 15 32 26 7 26 35 36 58 22 10 -7 25 -12 33
-12 7 0 18 -6 24 -13 13 -15 85 -10 76 5 -4 5 -21 7 -39 4 -22 -5 -36 -2 -45
9 -7 8 -16 13 -20 10 -4 -2 -16 2 -26 10 -22 17 -22 17 -51 3z"/>
<path d="M3490 2470 c0 -5 9 -10 21 -10 11 0 17 5 14 10 -3 6 -13 10 -21 10
-8 0 -14 -4 -14 -10z"/>
<path d="M6710 2010 c-66 -14 -147 -57 -171 -92 -48 -66 -33 -151 35 -203 138
-105 480 -93 586 20 19 20 25 39 28 90 4 64 4 65 -34 103 -61 61 -135 84 -279
88 -66 2 -140 -1 -165 -6z m210 -20 c100 -13 165 -36 206 -72 80 -70 18 -149
-145 -184 -169 -36 -362 5 -425 89 l-21 28 20 36 c25 47 87 78 191 97 98 18
85 17 174 6z m-344 -227 c-7 -7 -26 7 -26 19 0 6 6 6 15 -2 9 -7 13 -15 11
-17z m560 -12 c-75 -83 -341 -107 -488 -44 -61 26 -48 45 15 21 115 -44 341
-31 440 25 48 27 58 26 33 -2z m-536 -7 c0 -8 -5 -12 -10 -9 -6 4 -8 11 -5 16
9 14 15 11 15 -7z"/>
<path d="M6905 1960 c-3 -5 -3 -14 0 -20 8 -14 42 -13 51 2 5 8 2 9 -9 5 -11
-4 -17 -1 -17 8 0 17 -16 20 -25 5z"/>
<path d="M6623 1930 c-37 -22 -51 -60 -34 -96 11 -26 66 -64 91 -64 8 0 0 8
-19 18 -19 9 -44 30 -55 45 -19 25 -19 30 -6 54 8 14 31 34 50 44 19 11 28 19
20 19 -8 0 -30 -9 -47 -20z"/>
<path d="M6806 1941 c-3 -5 3 -20 14 -32 11 -13 19 -19 20 -12 0 6 -4 15 -10
18 -5 3 -10 11 -10 17 0 6 9 3 20 -7 12 -10 19 -26 17 -34 -4 -19 77 -70 113
-72 23 -1 22 -2 -10 -16 -24 -11 -35 -12 -38 -3 -7 20 -79 59 -121 66 -22 4
-49 13 -58 20 -17 12 -17 13 4 14 12 0 25 -4 28 -10 8 -13 25 -13 25 -1 0 14
-57 24 -76 13 -15 -9 -15 -11 7 -25 13 -8 41 -18 61 -21 20 -4 61 -23 90 -42
51 -35 54 -36 90 -23 50 18 51 31 5 41 -50 10 -97 35 -97 52 0 7 -9 25 -21 40
-21 26 -43 34 -53 17z"/>
<path d="M6966 1931 c-3 -5 8 -14 24 -20 17 -5 30 -15 30 -20 0 -7 9 -7 25 1
34 15 31 28 -6 28 -17 0 -28 4 -24 10 3 6 -5 10 -19 10 -14 0 -27 -4 -30 -9z"/>
<path d="M7114 1881 c18 -28 -4 -61 -62 -90 -31 -17 -54 -30 -51 -31 16 -1 86
34 107 53 24 22 29 61 10 73 -7 4 -8 3 -4 -5z"/>
<path d="M7020 1851 c0 -14 18 -23 31 -15 8 4 7 9 -2 15 -18 11 -29 11 -29 0z"/>
<path d="M6640 1840 c-13 -8 -12 -10 3 -10 9 0 17 -4 17 -10 0 -5 14 -10 30
-10 17 0 30 5 30 11 0 6 -9 8 -20 4 -15 -5 -18 -3 -14 9 7 18 -22 22 -46 6z"/>
<path d="M6726 1801 c-18 -29 23 -42 45 -14 12 15 12 16 -5 10 -11 -5 -22 -3
-26 4 -6 8 -9 8 -14 0z"/>
<path d="M5170 1752 c-116 -39 -164 -82 -175 -156 -19 -122 80 -201 281 -228
204 -28 408 52 430 167 17 90 -33 163 -141 205 -83 33 -311 39 -395 12z m335
-27 c80 -21 135 -53 158 -93 100 -171 -438 -255 -605 -95 -72 69 0 164 143
192 75 15 240 12 304 -4z m-435 -243 c0 -17 -17 -7 -31 19 -9 18 -9 19 10 7
12 -7 21 -19 21 -26z m580 9 c-12 -24 -29 -35 -38 -26 -4 4 4 15 17 26 29 24
34 24 21 0z m-550 -27 c0 -8 -4 -12 -10 -9 -5 3 -10 13 -10 21 0 8 5 12 10 9
6 -3 10 -13 10 -21z m38 -17 c2 -12 -1 -15 -12 -11 -19 7 -22 38 -3 32 6 -3
13 -12 15 -21z m462 14 c0 -12 -20 -25 -27 -18 -7 7 6 27 18 27 5 0 9 -4 9 -9z
m-249 -31 c73 0 153 11 193 26 14 5 17 3 14 -12 -5 -27 -77 -45 -188 -47 -116
-2 -220 18 -220 43 0 15 5 16 63 4 34 -8 96 -14 138 -14z"/>
<path d="M5273 1705 c-31 -13 -53 -41 -53 -67 0 -8 15 -31 34 -51 25 -27 32
-43 28 -62 -4 -22 -1 -25 26 -25 17 0 42 -4 56 -9 13 -6 41 -7 61 -4 l36 6
-21 22 c-24 26 -26 41 -5 49 9 3 15 11 14 18 -1 7 1 21 6 31 5 12 1 25 -14 41
-11 12 -21 28 -21 34 0 30 -92 41 -147 17z m121 -11 c20 -8 20 -23 -1 -46 -9
-10 -11 -18 -5 -18 6 0 15 7 20 16 8 14 10 14 21 0 7 -9 9 -21 5 -28 -5 -7 -7
-21 -6 -31 3 -16 -2 -17 -35 -13 -35 5 -36 5 -11 -6 23 -10 45 -54 32 -67 -2
-2 -29 2 -59 9 -54 13 -56 14 -50 42 5 23 3 28 -12 28 -26 1 -56 46 -49 74 3
13 16 28 28 34 25 12 97 15 122 6z"/>
<path d="M5353 1663 c-3 -10 -8 -21 -10 -25 -2 -5 0 -8 5 -8 5 0 12 11 14 25
6 29 0 33 -9 8z"/>
<path d="M5300 1631 c0 -17 12 -41 20 -41 4 0 7 11 6 25 -1 23 -26 38 -26 16z"/>
<path d="M5504 1686 c-19 -14 -19 -15 1 -22 11 -4 26 -14 33 -21 19 -19 32
-16 32 7 0 12 -6 20 -12 19 -29 -3 -40 2 -34 16 7 19 5 19 -20 1z"/>
<path d="M5146 1676 c6 -17 34 -30 34 -16 0 5 -9 14 -20 20 -16 8 -18 8 -14
-4z"/>
<path d="M5619 1644 c22 -28 28 -69 11 -79 -5 -3 -10 -12 -10 -18 1 -19 30 25
30 44 0 26 -21 67 -37 73 -9 4 -7 -3 6 -20z"/>
<path d="M5100 1652 c0 -4 15 -8 33 -9 26 -2 28 0 12 7 -26 11 -45 12 -45 2z"/>
<path d="M5115 1620 c3 -5 -1 -10 -9 -10 -9 0 -16 -7 -16 -15 0 -9 9 -15 24
-15 28 0 43 16 24 23 -10 4 -9 8 2 16 12 9 11 11 -8 11 -13 0 -20 -4 -17 -10z"/>
<path d="M5562 1621 c-10 -6 -6 -10 15 -14 32 -6 38 -3 28 12 -7 13 -25 14
-43 2z"/>
<path d="M5550 1592 c0 -13 49 -22 56 -11 3 5 -1 9 -10 9 -8 0 -21 3 -30 6 -9
3 -16 2 -16 -4z"/>
<path d="M5124 1555 c-18 -15 -18 -15 11 -13 40 3 60 -9 44 -28 -13 -16 -1
-18 21 -4 13 9 10 14 -15 35 -35 29 -36 29 -61 10z"/>
<path d="M5530 1562 c0 -5 7 -17 15 -28 13 -17 14 -17 15 -1 0 9 5 17 10 17 6
0 10 5 10 10 0 6 -11 10 -25 10 -14 0 -25 -4 -25 -8z"/>
</g>
</svg>
