<?xml version="1.0" standalone="no"?>
<!DOCTYPE svg PUBLIC "-//W3C//DTD SVG 20010904//EN"
 "http://www.w3.org/TR/2001/REC-SVG-20010904/DTD/svg10.dtd">
<svg version="1.0" xmlns="http://www.w3.org/2000/svg"
 width="1024.000000pt" height="559.000000pt" viewBox="0 0 1024.000000 559.000000"
 preserveAspectRatio="xMidYMid meet">
<metadata>
Created by potrace 1.16, written by Peter Selinger 2001-2019
</metadata>
<g transform="translate(0.000000,559.000000) scale(0.100000,-0.100000)"
fill="#000000" stroke="none">
<path d="M4986 4554 c-181 -44 -315 -163 -382 -339 -21 -55 -27 -89 -28 -160
0 -49 3 -108 7 -130 l8 -40 -83 -16 c-98 -19 -218 -65 -300 -116 -72 -44 -177
-154 -207 -215 -55 -114 -55 -121 -55 -1053 -1 -896 3 -1001 42 -1087 70 -160
311 -268 757 -342 232 -38 445 -45 665 -21 253 28 415 71 600 162 94 47 127
69 185 127 57 57 75 81 86 121 12 42 14 205 14 965 0 1075 2 1047 -96 1191
-81 120 -261 224 -463 268 -70 16 -80 21 -77 37 2 10 4 66 4 124 1 82 -4 121
-21 175 -69 224 -270 365 -517 364 -44 0 -106 -7 -139 -15z m256 -35 c138 -29
274 -132 333 -252 57 -118 69 -275 29 -389 -8 -24 -35 -77 -61 -120 -50 -84
-66 -92 -140 -79 -52 10 -89 33 -98 62 -5 16 2 31 34 63 61 62 85 125 85 221
0 96 -26 163 -82 218 -154 148 -406 108 -499 -80 -23 -48 -27 -69 -27 -137 0
-96 22 -152 83 -219 23 -24 41 -51 41 -59 0 -35 -82 -78 -149 -78 -32 0 -82
55 -119 132 -48 101 -57 137 -56 238 0 81 5 106 29 165 39 96 63 132 130 193
74 68 158 109 255 125 52 9 161 7 212 -4z m-29 -242 c48 -13 122 -77 147 -127
24 -46 33 -122 23 -178 l-8 -43 -253 -2 -253 -2 -7 25 c-14 53 -6 144 17 190
67 131 186 180 334 137z m130 -397 c5 -4 -7 -24 -27 -44 l-35 -37 -32 16 c-41
22 -177 17 -229 -8 l-35 -16 70 7 c84 8 118 8 168 -2 30 -6 37 -11 37 -31 0
-70 61 -118 159 -123 79 -4 114 7 134 45 76 143 90 164 105 159 10 -2 47 -12
84 -21 213 -51 389 -167 457 -303 57 -113 56 -96 56 -1107 l0 -930 -28 -56
c-39 -80 -150 -163 -307 -230 -67 -28 -222 -79 -227 -75 -1 1 4 24 12 51 8 26
15 69 14 94 -1 45 -1 45 -13 -19 -7 -36 -19 -81 -28 -100 -15 -35 -17 -36
-112 -53 -267 -47 -587 -44 -876 9 -216 40 -211 37 -245 154 l-15 55 5 -49 c3
-27 12 -63 20 -79 8 -17 14 -31 13 -33 -8 -6 -233 77 -281 105 -61 35 -140
110 -164 154 -32 63 -37 210 -38 1067 0 903 1 934 50 1029 71 141 217 245 425
304 144 41 147 41 159 4 16 -44 90 -156 112 -167 30 -17 131 -11 175 9 87 40
96 96 28 166 -25 26 -42 50 -39 54 19 19 428 20 448 1z"/>
<path d="M5000 4460 c-18 -12 -2 -12 25 0 13 6 15 9 5 9 -8 0 -22 -4 -30 -9z"/>
<path d="M4870 4408 c-81 -40 -165 -147 -184 -233 -4 -17 7 -3 25 35 33 67
155 200 183 200 8 0 18 5 21 10 8 14 6 13 -45 -12z"/>
<path d="M5353 4290 c55 -49 92 -115 112 -203 l15 -62 -5 63 c-7 96 -65 190
-140 229 -23 12 -19 6 18 -27z"/>
<path d="M4671 3914 c0 -11 3 -14 6 -6 3 7 2 16 -1 19 -3 4 -6 -2 -5 -13z"/>
<path d="M4685 3867 c6 -29 50 -107 61 -107 4 0 1 6 -5 13 -6 8 -22 38 -36 68
-15 32 -23 43 -20 26z"/>
<path d="M5511 3813 c-10 -21 -33 -55 -50 -77 -36 -45 -40 -57 -10 -30 29 27
57 67 74 108 20 47 11 46 -14 -1z"/>
<path d="M5815 3721 c33 -10 77 -25 98 -34 20 -9 37 -14 37 -12 0 15 -137 65
-175 64 -11 0 7 -8 40 -18z"/>
<path d="M4398 3713 c7 -3 16 -2 19 1 4 3 -2 6 -13 5 -11 0 -14 -3 -6 -6z"/>
<path d="M4329 3696 c-47 -17 -100 -50 -125 -78 -16 -18 -13 -17 17 5 19 15
64 40 100 56 66 31 71 40 8 17z"/>
<path d="M4885 3605 c17 -8 39 -14 50 -14 13 0 8 5 -15 14 -46 18 -74 17 -35
0z"/>
<path d="M5300 3595 c-63 -12 -64 -13 -20 -13 25 -1 59 5 75 13 36 16 29 16
-55 0z"/>
<path d="M6140 3463 c-35 -54 -100 -94 -234 -143 -64 -23 -115 -44 -113 -46 8
-8 166 38 227 67 71 33 113 68 137 112 23 45 10 53 -17 10z"/>
<path d="M4080 3474 c-1 -56 75 -119 178 -150 68 -20 78 -13 15 11 -78 30
-150 81 -172 122 -15 29 -20 33 -21 17z"/>
<path d="M4518 3391 c-100 -63 -126 -115 -133 -262 l-4 -104 14 108 c20 147
41 183 150 264 43 32 27 28 -27 -6z"/>
<path d="M5597 3395 c12 -16 31 -39 43 -50 47 -43 80 -148 80 -259 0 -37 3
-47 11 -39 16 16 -5 181 -29 235 -11 24 -43 66 -72 93 -38 35 -47 41 -33 20z"/>
<path d="M4581 3261 c22 -14 170 -39 313 -52 146 -14 454 -5 546 16 65 14 64
14 -65 7 -255 -14 -630 3 -785 34 -20 4 -22 3 -9 -5z"/>
<path d="M6143 3220 c13 -56 20 -130 27 -269 l7 -146 1 135 c1 125 -17 283
-34 299 -4 3 -4 -5 -1 -19z"/>
<path d="M4987 2944 c-4 -4 -7 -18 -7 -31 0 -16 9 -27 33 -37 30 -12 35 -19
40 -61 9 -62 7 -392 -2 -424 -4 -14 -20 -32 -36 -41 -19 -11 -31 -26 -33 -43
l-3 -26 123 -3 c153 -4 158 -3 158 31 0 21 -7 31 -32 42 -42 18 -46 44 -47
269 -1 218 3 238 46 257 29 11 34 18 31 41 l-3 27 -131 3 c-71 1 -133 -1 -137
-4z m243 -33 c0 -5 -11 -12 -25 -15 -45 -11 -49 -34 -48 -283 0 -253 5 -276
58 -289 51 -13 13 -19 -97 -16 -105 3 -111 5 -86 18 15 8 32 23 38 34 6 11 10
114 10 259 0 261 2 252 -56 288 -15 10 2 12 94 12 61 1 112 -3 112 -8z"/>
<path d="M4081 2754 c0 -104 4 -211 9 -239 5 -29 6 49 3 185 -3 129 -7 237 -9
239 -2 2 -4 -81 -3 -185z"/>
<path d="M6168 2580 c-5 -63 -7 -194 -6 -290 l1 -175 9 195 c4 107 7 238 6
290 l-3 95 -7 -115z"/>
<path d="M4250 2168 c0 -6 8 -20 18 -31 15 -17 17 -40 15 -191 -2 -160 -3
-172 -22 -185 -26 -17 -27 -37 -3 -49 28 -15 242 -63 265 -60 17 2 24 14 34
57 6 30 9 59 7 63 -10 16 -37 8 -56 -18 -18 -22 -25 -25 -62 -19 -77 13 -76
12 -76 143 0 164 8 219 31 225 11 3 19 14 19 24 0 16 -14 23 -72 36 -86 20
-98 21 -98 5z m101 -33 c26 -6 26 -8 13 -33 -10 -20 -14 -71 -14 -193 l0 -167
40 -16 c60 -24 115 -21 136 7 12 16 15 17 10 4 -3 -10 -6 -24 -6 -30 -1 -36
-15 -37 -134 -7 -65 17 -121 30 -124 30 -3 0 3 6 13 14 18 13 20 31 23 189 3
123 1 181 -8 197 -10 19 -10 21 7 16 10 -3 30 -8 44 -11z"/>
<path d="M5803 2148 c-11 -14 -36 -94 -78 -248 -40 -145 -65 -217 -81 -230
-22 -19 -59 11 -111 91 l-45 71 20 21 c46 51 56 125 25 178 -29 49 -82 62
-196 50 -53 -6 -101 -11 -107 -11 -19 0 -10 -37 13 -52 21 -15 22 -20 22 -187
0 -170 0 -172 -24 -190 -17 -13 -22 -24 -17 -36 6 -16 16 -17 88 -12 98 8 113
18 75 53 -24 22 -27 32 -27 89 0 58 2 65 19 65 13 0 32 -20 56 -60 62 -103 81
-120 128 -120 65 0 209 33 215 49 3 8 -3 20 -13 27 -16 12 -17 17 -3 66 14 51
16 52 64 65 65 17 62 18 80 -24 13 -31 14 -44 4 -71 -7 -19 -9 -36 -6 -39 7
-7 84 9 129 26 29 11 39 51 12 51 -8 0 -22 11 -30 24 -12 19 -105 222 -162
354 -3 6 -13 12 -23 12 -10 0 -22 -6 -27 -12z m82 -130 c68 -160 117 -258 127
-258 20 0 5 -17 -25 -28 -45 -16 -49 -15 -42 8 8 26 -40 134 -57 127 -7 -2
-39 -10 -70 -17 -57 -13 -58 -14 -74 -62 -9 -27 -14 -65 -12 -84 2 -19 0 -34
-7 -34 -5 0 -21 -3 -35 -7 -22 -6 -23 -5 -12 9 7 9 40 110 72 225 69 240 67
233 78 233 5 0 30 -51 57 -112z m-410 32 c33 -12 59 -71 51 -115 -4 -17 -20
-44 -36 -60 -17 -16 -30 -33 -30 -37 0 -16 72 -123 108 -160 l36 -38 -30 0
c-36 0 -58 21 -117 111 -40 61 -44 64 -82 64 l-40 0 0 -78 c0 -70 3 -81 22
-97 23 -18 23 -18 -32 -22 -46 -2 -54 -1 -48 12 4 8 9 93 11 188 3 136 0 178
-11 202 l-15 29 47 4 c96 7 141 7 166 -3z"/>
<path d="M5791 1972 c-26 -97 -26 -102 0 -102 31 0 99 22 99 31 0 16 -63 149
-70 149 -4 0 -17 -35 -29 -78z m54 -18 c8 -20 13 -40 10 -44 -8 -13 -55 -18
-55 -6 0 17 20 86 25 86 3 0 12 -16 20 -36z"/>
<path d="M5343 2033 c-9 -3 -13 -32 -13 -93 0 -80 2 -88 20 -93 20 -5 75 6 96
21 40 27 46 111 9 147 -23 24 -77 33 -112 18z m101 -45 c9 -12 16 -33 16 -46
0 -30 -43 -72 -74 -72 -23 0 -24 3 -28 66 -1 36 -1 68 1 70 2 2 19 4 37 4 23
0 38 -7 48 -22z"/>
<path d="M4597 2103 c-12 -11 -8 -21 16 -43 21 -21 22 -26 19 -193 -2 -157 -4
-173 -22 -189 -42 -35 -18 -51 93 -62 62 -6 67 -5 67 13 0 11 -9 25 -20 31
-19 10 -20 21 -20 187 l0 177 28 22 c36 30 24 40 -65 53 -84 13 -88 13 -96 4z
m95 -29 l36 -6 -14 -34 c-21 -50 -20 -341 2 -372 14 -20 14 -22 -3 -22 -40 0
-94 13 -83 20 20 13 30 82 30 225 0 102 -4 147 -14 168 -16 30 -15 31 46 21z"/>
<path d="M4825 2070 c-4 -7 4 -24 20 -40 l27 -28 -4 -165 c-3 -159 -4 -166
-27 -191 -15 -16 -21 -30 -15 -36 13 -13 182 -24 238 -16 116 18 162 161 76
239 l-31 28 21 26 c39 50 21 128 -39 166 -30 18 -54 22 -147 25 -79 3 -114 1
-119 -8z m256 -43 c29 -19 34 -29 37 -66 3 -38 -1 -48 -28 -76 -29 -30 -30
-34 -13 -39 35 -11 74 -62 80 -102 4 -30 -1 -47 -19 -74 -33 -48 -87 -63 -202
-54 -81 6 -88 8 -70 21 17 13 19 29 22 199 2 132 0 190 -9 200 -10 12 2 14 78
14 77 0 95 -3 124 -23z"/>
<path d="M4946 2024 c-23 -23 -19 -142 6 -157 25 -16 88 3 111 35 25 33 17 91
-16 112 -38 24 -83 29 -101 10z m86 -31 c22 -20 24 -66 2 -87 -8 -9 -29 -16
-45 -16 -29 0 -29 0 -29 60 0 58 1 60 27 60 14 0 35 -7 45 -17z"/>
<path d="M4938 1834 c-5 -4 -8 -40 -8 -80 0 -89 18 -118 73 -118 72 0 116 49
103 117 -10 51 -46 80 -108 85 -29 2 -56 0 -60 -4z m122 -42 c15 -12 22 -29
23 -56 1 -50 -30 -78 -82 -74 l-36 3 -3 73 -3 72 39 0 c23 0 49 -7 62 -18z"/>
<path d="M4061 1859 c1 -85 5 -165 9 -179 4 -14 6 54 3 150 -3 96 -7 177 -9
179 -2 2 -4 -65 -3 -150z"/>
<path d="M4071 1574 c-2 -67 49 -187 91 -213 10 -6 3 8 -15 32 -32 41 -45 76
-66 172 -8 37 -9 38 -10 9z"/>
<path d="M6135 1436 c-24 -31 -101 -87 -180 -130 -26 -15 -27 -16 -5 -10 69
18 181 100 210 153 16 32 4 25 -25 -13z"/>
</g>
</svg>
