<?xml version="1.0" standalone="no"?>
<!DOCTYPE svg PUBLIC "-//W3C//DTD SVG 20010904//EN"
 "http://www.w3.org/TR/2001/REC-SVG-20010904/DTD/svg10.dtd">
<svg version="1.0" xmlns="http://www.w3.org/2000/svg"
 width="1024.000000pt" height="559.000000pt" viewBox="0 0 1024.000000 559.000000"
 preserveAspectRatio="xMidYMid meet">
<metadata>
Created by potrace 1.16, written by Peter Selinger 2001-2019
</metadata>
<g transform="translate(0.000000,559.000000) scale(0.100000,-0.100000)"
fill="#000000" stroke="none">
<path d="M5203 4510 c-78 -10 -130 -31 -140 -57 -4 -9 -23 -31 -43 -49 -51
-46 -70 -124 -47 -186 9 -24 16 -52 16 -63 0 -11 5 -61 10 -112 8 -80 15 -105
58 -190 44 -90 53 -100 98 -125 l50 -28 -35 0 c-47 0 -128 -40 -167 -81 -31
-33 -193 -384 -193 -419 0 -8 12 -23 26 -35 20 -16 24 -25 17 -43 -7 -18 -36
-34 -122 -69 l-113 -46 -47 15 c-77 26 -190 43 -203 30 -18 -18 0 -60 33 -78
l31 -15 -70 -52 c-81 -60 -110 -98 -89 -119 8 -7 12 -19 9 -26 -5 -17 18 -44
33 -38 7 2 18 -1 24 -7 6 -6 37 -13 69 -14 54 -2 61 0 139 52 45 30 89 68 99
84 15 25 26 31 63 36 99 13 245 46 267 60 21 14 24 13 34 -4 7 -13 7 -28 0
-46 -15 -40 -12 -64 11 -97 19 -27 32 -99 19 -111 -3 -3 -35 0 -72 5 -129 17
-308 -25 -351 -83 -12 -17 -20 -45 -21 -73 -1 -46 -1 -46 -37 -46 -20 0 -95 5
-168 11 -90 8 -140 8 -160 1 l-29 -10 -6 81 c-7 118 -26 535 -26 578 l0 36 68
7 c91 8 214 42 228 61 16 22 27 163 16 201 -6 20 -6 50 1 83 8 42 7 63 -6 104
-10 35 -15 88 -15 158 1 100 0 108 -26 141 -39 51 -128 82 -210 74 -34 -4
-115 -11 -181 -15 -211 -15 -308 -45 -320 -100 -3 -16 -21 -51 -38 -78 -28
-42 -32 -55 -30 -113 3 -155 19 -337 31 -357 6 -12 12 -45 12 -73 0 -58 20
-83 91 -115 37 -17 50 -18 137 -7 54 6 106 14 118 17 20 6 21 2 27 -97 16
-260 29 -580 23 -593 -3 -8 -13 -15 -23 -15 -32 0 -104 -42 -118 -69 -14 -27
-71 -54 -407 -191 l-78 -32 0 -78 c0 -51 4 -81 13 -88 7 -6 36 -14 64 -18 l51
-6 6 -77 c3 -42 8 -258 12 -480 l7 -403 34 -14 c18 -8 53 -17 78 -20 37 -6 51
-2 89 22 25 16 48 35 51 42 2 6 0 137 -5 290 -5 152 -10 352 -10 445 0 167 0
167 23 167 24 0 183 -17 234 -26 l32 -5 1 -309 c0 -170 3 -316 6 -325 8 -19
107 -49 137 -41 12 3 37 20 55 37 l33 31 -7 294 -7 294 49 -1 c53 0 189 -10
411 -30 l142 -12 3 -34 c3 -32 7 -36 73 -64 38 -16 75 -29 82 -29 7 0 13 -3
13 -7 0 -5 9 -89 20 -188 11 -99 20 -185 20 -191 0 -6 -45 -28 -100 -50 -55
-21 -110 -49 -122 -61 -21 -22 -21 -24 -5 -41 27 -27 135 -18 257 21 58 18 63
26 56 79 -4 26 -4 132 0 234 6 151 10 187 22 192 8 3 49 -3 91 -14 44 -11 104
-18 142 -17 l66 2 17 -107 c10 -59 24 -147 32 -195 8 -48 11 -93 7 -100 -4 -7
-28 -40 -55 -75 -50 -66 -63 -114 -32 -126 52 -20 123 8 160 63 24 37 26 47
20 99 -3 31 -7 152 -8 267 l-2 210 25 3 c13 1 43 10 66 18 24 9 65 14 100 12
l58 -3 7 -165 c4 -91 5 -318 2 -505 -3 -187 -1 -345 3 -352 5 -6 43 -18 86
-26 l78 -15 36 37 c63 65 62 56 53 286 -9 269 1 717 16 722 7 2 38 24 70 50
33 25 79 59 103 76 l44 30 -6 -395 c-3 -217 -2 -400 2 -407 9 -15 66 -31 110
-31 26 0 42 9 72 39 l40 39 -2 259 c-1 142 2 351 6 466 l8 207 38 39 c35 35
39 44 39 89 0 28 -4 62 -9 75 -10 27 -23 30 -152 42 l-67 6 -4 64 c-3 54 -10
72 -41 118 -42 60 -43 68 -21 102 22 34 14 67 -21 85 -39 19 -198 20 -243 1
-39 -16 -52 -53 -28 -80 24 -26 20 -59 -14 -101 -17 -21 -35 -52 -41 -69 -6
-17 -14 -31 -19 -31 -10 0 -80 77 -80 88 0 5 9 17 20 27 27 24 23 69 -5 73
-11 1 -37 8 -57 14 -28 8 -48 8 -75 0 -21 -6 -50 -14 -65 -17 -34 -7 -37 -35
-8 -72 11 -14 20 -31 20 -38 0 -16 -47 -58 -53 -48 -3 5 -12 47 -21 93 -8 47
-22 107 -30 134 -12 38 -13 59 -4 101 l10 53 76 38 c42 22 93 55 114 75 42 40
47 67 27 159 -11 49 -10 53 15 79 l26 27 -81 180 c-83 181 -173 324 -205 324
-8 0 -48 14 -89 31 -49 20 -86 29 -111 27 l-39 -3 -8 57 c-9 56 -8 59 22 93
17 20 31 43 31 51 0 9 11 34 24 57 19 33 26 63 31 138 10 142 4 168 -66 249
-42 49 -69 71 -92 76 -17 3 -41 13 -53 21 -29 18 -103 23 -191 13z m192 -46
c11 -8 29 -14 41 -14 32 0 122 -109 140 -169 8 -27 12 -60 10 -72 -3 -13 -5
-28 -5 -33 -1 -4 -11 -6 -24 -2 -29 7 -64 -16 -80 -53 -11 -24 -12 -23 -15 27
-2 28 -7 52 -12 52 -5 0 -10 17 -12 38 -3 32 -6 37 -25 35 -20 -2 -23 2 -23
32 0 38 -13 44 -44 20 -28 -21 -46 -19 -46 5 0 20 -2 20 -50 -5 -59 -30 -61
-30 -53 -8 6 15 1 14 -31 -5 -46 -27 -49 -27 -41 -2 8 27 -14 26 -49 -1 l-26
-20 0 20 c0 34 -16 24 -38 -21 -23 -47 -29 -29 -12 34 10 34 78 108 100 108 6
0 10 6 10 14 0 20 24 27 115 36 91 8 141 3 170 -16z m-4 -221 c12 -3 19 -14
19 -28 0 -12 7 -28 14 -35 8 -6 16 -33 18 -58 4 -61 30 -70 52 -18 8 20 22 39
31 42 23 9 45 -15 45 -50 0 -34 -33 -95 -52 -98 -7 0 -19 -2 -27 -2 -16 -1
-24 -45 -25 -147 -1 -81 12 -121 45 -135 18 -8 18 -11 4 -31 -40 -57 -225 -84
-292 -43 -18 11 -33 24 -33 29 0 16 41 20 47 5 7 -19 23 -8 23 16 0 13 15 25
45 39 57 25 145 114 145 146 0 19 -11 12 -72 -50 -63 -62 -79 -73 -119 -79
-28 -4 -60 -2 -84 6 -34 12 -43 23 -88 106 -45 84 -50 101 -57 185 -4 51 -6
95 -3 100 2 4 25 7 49 7 32 0 44 4 42 13 -6 16 -66 21 -84 6 -12 -10 -14 -5
-14 32 0 24 5 51 10 59 5 8 10 11 10 6 0 -4 11 -1 25 8 23 15 26 15 31 1 5
-11 13 -13 28 -9 11 4 33 7 49 6 15 -1 41 5 57 13 24 12 33 13 49 3 16 -10 26
-9 53 4 l33 15 3 -29 c2 -20 10 -32 23 -35z m-1096 -273 c-11 -5 -35 -9 -53
-9 -18 -1 -46 -8 -62 -16 -21 -11 -45 -13 -89 -9 -40 5 -90 1 -151 -11 -77
-15 -94 -22 -115 -47 -14 -16 -25 -42 -25 -57 0 -17 -13 -45 -31 -67 -30 -37
-31 -42 -24 -99 3 -33 10 -101 13 -151 4 -50 13 -98 20 -106 7 -9 10 -27 6
-47 -5 -26 -10 -30 -27 -25 -13 4 -17 2 -13 -5 4 -6 13 -11 20 -11 8 0 16 -18
20 -42 4 -24 10 -54 13 -67 l6 -23 -29 18 c-40 26 -44 32 -44 89 0 28 -6 59
-14 70 -8 13 -16 66 -20 150 -4 72 -9 154 -12 183 -5 48 -3 59 25 103 17 28
31 54 31 59 0 24 25 60 49 69 49 21 182 41 269 42 48 0 96 4 107 9 11 5 49 9
85 9 45 0 59 -3 45 -9z m1225 -14 c0 -8 -4 -18 -10 -21 -5 -3 -10 3 -10 14 0
12 5 21 10 21 6 0 10 -6 10 -14z m-1115 -37 c29 -30 30 -32 31 -147 1 -64 6
-128 11 -142 12 -30 8 -359 -4 -371 -5 -5 -29 -13 -53 -18 -25 -5 -67 -14 -95
-19 -27 -6 -88 -13 -135 -17 -47 -4 -123 -13 -170 -21 -131 -22 -158 -19 -172
14 -6 15 -12 66 -13 114 -1 55 -6 93 -15 103 -7 9 -14 44 -14 83 -1 37 -6 99
-10 138 -8 69 -8 72 23 114 17 24 31 55 31 70 0 62 76 92 250 96 52 1 118 9
145 17 28 9 75 16 106 16 49 1 59 -2 84 -30z m1260 -225 c50 -20 92 -38 94
-40 2 -2 -6 -15 -17 -29 -56 -71 -92 -240 -92 -434 0 -114 2 -127 22 -148 34
-36 54 -30 30 10 -11 17 -22 55 -25 82 -7 56 6 42 17 -17 4 -24 13 -38 21 -38
9 0 15 -10 15 -24 0 -13 3 -31 6 -39 4 -10 -18 -32 -68 -69 -101 -74 -100 -74
-94 -46 12 61 15 92 7 78 -5 -8 -12 -34 -16 -58 -10 -60 -26 -72 -94 -72 -51
0 -134 -21 -168 -43 -25 -16 -15 -46 18 -54 l31 -8 -45 -32 -44 -32 -69 14
c-80 17 -124 34 -124 47 0 5 8 4 18 -1 28 -15 142 -31 169 -25 36 9 16 24 -32
24 -57 0 -145 33 -175 65 -22 24 -23 28 -12 71 8 31 9 51 2 64 -5 10 -10 30
-10 44 0 21 5 26 25 26 16 0 42 18 78 54 66 66 237 292 302 401 54 90 125 233
125 252 0 18 5 17 105 -23z m-485 -58 c24 -27 98 -56 140 -56 25 0 116 21 155
36 19 8 19 7 -1 -20 -21 -29 -112 -75 -151 -76 -12 0 -25 -4 -28 -10 -10 -17
41 -11 91 10 26 11 48 19 50 17 14 -14 -253 -382 -334 -460 l-39 -38 -6 58
c-4 32 -9 110 -12 173 -7 139 -13 180 -25 180 -12 0 -12 -158 0 -260 4 -41 7
-77 5 -78 -5 -6 -171 74 -178 85 -5 9 23 79 120 298 37 82 67 121 111 145 50
26 74 25 102 -4z m680 -151 c26 -55 57 -122 70 -150 12 -27 31 -68 41 -89 11
-22 19 -43 19 -46 0 -23 -177 -90 -238 -90 -28 0 -30 3 -37 46 -3 25 -13 63
-20 85 -23 63 7 246 56 340 20 40 21 41 41 22 12 -10 42 -63 68 -118z m-1716
-417 c4 -57 11 -213 17 -348 5 -134 12 -255 15 -267 6 -24 -20 -44 -36 -27 -6
7 -41 628 -40 727 0 10 8 17 19 17 17 0 19 -11 25 -102z m798 43 c24 -11 53
-23 65 -28 l22 -8 -27 -55 c-25 -50 -31 -56 -78 -71 -29 -10 -102 -25 -164
-35 -104 -17 -113 -20 -133 -48 -26 -38 -36 -47 -111 -97 -75 -49 -93 -50 -41
0 l41 38 -42 36 -43 37 -58 -35 c-32 -19 -61 -35 -65 -35 -22 0 0 22 78 79 83
62 86 63 99 43 17 -24 64 -37 78 -23 8 8 3 11 -16 11 -17 0 -38 11 -55 27 -15
16 -44 36 -64 45 -21 9 -38 24 -38 32 0 12 6 12 47 0 25 -8 59 -14 75 -14 16
0 43 -7 60 -16 40 -21 60 -16 214 47 96 40 122 54 110 61 -9 5 -14 13 -11 19
8 12 8 12 57 -10z m1023 -67 l7 -60 -38 -34 c-21 -18 -111 -68 -200 -111 -153
-73 -162 -79 -189 -124 -32 -56 -93 -125 -109 -125 -6 0 0 9 14 20 39 30 18
33 -34 4 -26 -14 -49 -24 -52 -21 -3 3 7 12 23 21 34 17 59 44 49 53 -3 3 -14
-1 -23 -9 -26 -22 -79 -48 -100 -48 -10 0 3 14 35 35 28 20 52 40 52 45 0 15
-6 13 -48 -14 -35 -23 -92 -44 -92 -33 0 2 32 28 70 56 39 29 70 57 70 62 0
20 -6 23 -45 21 l-40 -2 45 19 c29 13 69 20 112 20 66 1 69 2 160 65 51 36
119 82 150 103 56 37 73 63 43 63 -22 0 -19 40 3 40 9 1 40 9 67 19 59 21 61
19 70 -65z m-185 7 c0 -11 -4 -23 -10 -26 -6 -4 -10 5 -10 19 0 14 5 26 10 26
6 0 10 -9 10 -19z m-1333 -208 c3 -9 -114 -93 -131 -93 -17 0 2 22 54 64 54
44 70 50 77 29z m15 -57 c-87 -71 -131 -77 -52 -7 39 35 58 46 67 39 9 -7 6
-15 -15 -32z m1268 0 c-14 -13 -99 -42 -86 -29 8 9 79 41 91 42 5 1 3 -5 -5
-13z m-21 -52 c-16 -16 -127 -49 -136 -40 -10 9 9 26 30 27 12 0 42 6 67 13
25 8 47 14 50 15 2 0 -3 -6 -11 -15z m-604 -46 c14 -6 25 -19 25 -30 0 -21 -1
-22 -35 -6 -14 6 -25 19 -25 30 0 21 1 22 35 6z m625 5 c0 -5 13 -73 29 -151
25 -127 29 -182 14 -182 -3 0 -18 9 -34 21 -20 14 -39 19 -57 16 -15 -3 -65
-1 -112 3 -47 5 -138 12 -202 15 -108 7 -118 9 -118 27 0 24 -28 78 -40 78 -6
0 -10 11 -10 25 0 13 -13 40 -30 58 -31 36 -39 67 -17 67 6 0 28 -3 48 -6 28
-5 36 -10 32 -23 -9 -33 94 -80 178 -81 38 0 119 49 119 72 0 34 13 -11 25
-87 8 -48 17 -90 20 -93 9 -10 5 46 -10 125 -8 43 -15 81 -15 86 0 4 21 7 48
7 l47 0 20 -87 c11 -49 21 -80 23 -71 3 16 -10 98 -24 144 -4 17 0 24 23 32
35 13 43 14 43 5z m735 -33 c14 -12 14 -15 0 -30 -9 -10 -18 -33 -21 -51 -4
-28 2 -45 35 -93 40 -58 45 -77 41 -156 -2 -41 -46 -127 -72 -141 -11 -6 -44
-11 -75 -12 l-56 -2 -9 35 c-11 39 -34 70 -55 70 -17 0 -16 4 2 40 30 59 -18
82 -73 35 -21 -17 -33 -22 -38 -14 -3 6 -1 15 5 19 7 4 11 11 10 16 -7 25 15
84 46 123 38 47 44 85 20 117 -22 29 -18 43 18 53 43 14 203 7 222 -9z m-1459
-14 c81 -17 146 -54 158 -88 13 -36 -15 -67 -87 -100 -46 -20 -67 -23 -177
-23 -110 1 -132 4 -184 25 -33 14 -68 37 -78 51 -68 92 167 178 368 135z
m1019 -65 c28 -6 29 -7 11 -18 -14 -8 -26 -8 -43 0 -19 8 -30 7 -51 -5 -23
-14 -31 -14 -57 -3 -29 13 -29 13 -5 14 14 1 32 6 40 11 17 11 59 11 105 1z
m-7 -44 l24 1 -23 -24 c-18 -20 -30 -23 -67 -20 -24 2 -51 10 -59 19 -15 14
-13 16 16 15 18 -1 37 4 44 11 6 6 18 8 27 5 8 -4 25 -7 38 -7z m-803 -92 c0
-22 -9 -35 -34 -52 -53 -36 -97 -45 -221 -48 -102 -3 -107 -2 -40 5 41 4 98
13 125 20 28 7 60 14 72 15 12 2 30 8 40 15 17 11 17 11 0 6 -15 -5 -14 0 7
25 14 17 26 35 26 41 0 5 6 8 13 6 6 -3 12 -18 12 -33z m790 25 c-3 -5 -23 -9
-43 -9 l-37 2 40 7 c22 4 41 8 43 9 2 0 0 -3 -3 -9z m-1520 -16 c131 -8 134
-9 106 -38 -28 -30 -32 -103 -8 -140 10 -14 17 -39 17 -55 0 -76 102 -130 262
-139 152 -7 260 21 318 83 22 24 25 35 23 96 -1 38 3 69 8 69 5 0 16 15 25 33
l15 32 137 -12 c75 -6 163 -12 194 -12 63 -1 88 -8 88 -24 0 -6 7 -18 16 -28
15 -17 15 -19 -9 -30 -29 -13 -57 -64 -57 -101 1 -34 35 -104 66 -133 24 -23
35 -25 111 -25 76 0 86 2 109 25 14 14 31 40 39 58 12 28 14 30 20 12 38 -116
52 -127 166 -132 l91 -3 34 34 c20 20 38 52 46 80 11 42 15 46 36 41 13 -3 48
-1 77 5 56 12 81 35 119 107 l16 33 78 -7 c42 -3 79 -8 82 -10 6 -6 -32 -35
-267 -203 l-204 -145 -242 22 c-133 12 -350 31 -482 43 -457 38 -601 50 -750
65 -168 16 -243 22 -740 65 -192 17 -381 34 -420 38 l-70 7 40 14 c22 8 112
45 200 82 137 59 162 67 171 54 21 -29 96 -47 192 -46 94 0 200 22 214 44 26
40 -8 111 -65 138 l-42 20 70 -5 c39 -3 115 -8 170 -12z m197 -4 c10 0 18 -7
18 -15 0 -8 -2 -15 -5 -15 -13 0 -55 33 -55 43 0 7 4 7 12 -1 7 -7 20 -12 30
-12z m458 0 c0 -9 -31 -30 -44 -30 -3 0 -6 7 -6 16 0 8 4 13 9 9 5 -3 12 -1
16 5 8 13 25 13 25 0z m857 -15 c7 -2 16 -19 21 -37 6 -26 13 -33 33 -33 18 0
24 5 23 23 -1 21 0 21 18 5 10 -9 17 -22 14 -28 -2 -6 2 -22 10 -36 20 -35 18
-37 -30 -32 -54 6 -81 -7 -105 -54 l-18 -37 -12 36 c-22 65 -80 98 -133 74
-15 -7 -18 -3 -18 18 0 17 15 42 41 71 40 43 41 44 92 39 29 -3 57 -7 64 -9z
m48 -15 c17 -34 18 -40 6 -40 -5 0 -11 8 -14 18 -2 9 -8 25 -12 35 -12 28 3
19 20 -13z m-1907 -22 c26 -7 62 9 62 27 0 19 21 19 63 1 69 -29 92 -87 41
-107 -88 -33 -287 -30 -323 6 -23 22 3 69 47 88 58 24 66 25 79 7 7 -10 21
-20 31 -22z m630 9 c2 -12 -1 -15 -12 -11 -9 3 -16 10 -16 15 0 4 -7 6 -15 3
-9 -4 -15 0 -15 9 0 21 54 6 58 -16z m309 9 c-2 -6 -10 -11 -18 -11 -8 0 -17
-4 -20 -8 -8 -11 -199 -22 -233 -13 -14 3 -26 13 -26 21 0 11 16 13 88 9 48
-3 104 -2 125 3 58 12 88 12 84 -1z m-419 -19 c2 -10 -3 -17 -12 -17 -24 0
-20 -46 6 -64 12 -9 29 -16 38 -16 9 0 5 5 -9 13 -28 14 -48 43 -38 53 4 4 21
-7 38 -24 32 -32 120 -71 167 -73 15 -1 41 -5 57 -10 20 -5 -2 -7 -65 -5 -110
5 -198 33 -230 73 -25 32 -25 34 1 67 23 29 42 30 47 3z m82 -49 c0 -14 -23
-9 -42 9 -28 26 -21 36 12 16 17 -9 30 -21 30 -25z m450 7 c-12 -13 -27 -22
-31 -19 -5 3 -9 0 -9 -5 0 -6 -4 -11 -10 -11 -20 0 -9 19 23 39 43 28 56 26
27 -4z m549 -11 c23 -29 27 -44 11 -44 -13 0 -60 49 -60 61 0 18 29 8 49 -17z
m-959 -10 c0 -17 -22 -14 -28 4 -2 7 3 12 12 12 9 0 16 -7 16 -16z m1454 4
c-21 -38 -74 -80 -74 -59 0 16 51 71 66 71 9 0 12 -5 8 -12z m-1416 -16 c2 -7
-3 -12 -12 -12 -9 0 -16 7 -16 16 0 17 22 14 28 -4z m302 3 c0 -8 -4 -15 -10
-15 -5 0 -10 7 -10 15 0 8 5 15 10 15 6 0 10 -7 10 -15z m-260 -10 c0 -8 -7
-15 -15 -15 -8 0 -15 7 -15 15 0 8 7 15 15 15 8 0 15 -7 15 -15z m230 5 c0
-19 -50 -30 -136 -30 -67 0 -84 3 -84 15 0 11 20 15 93 18 50 1 100 4 110 5 9
1 17 -3 17 -8z m805 -43 c38 -32 44 -98 17 -160 -22 -49 -26 -52 -119 -61 -46
-4 -56 -2 -84 22 -58 48 -74 120 -38 167 19 24 27 26 68 23 32 -3 55 1 76 14
39 23 48 23 80 -5z m-747 -52 c-42 -40 -105 -57 -223 -61 l-110 -3 83 9 c124
13 190 35 231 78 31 32 36 34 39 18 2 -10 -7 -29 -20 -41z m-498 34 c0 -6 -4
-7 -10 -4 -5 3 -10 11 -10 16 0 6 5 7 10 4 6 -3 10 -11 10 -16z m454 0 c-12
-13 -20 -16 -22 -9 -3 7 2 16 9 21 25 16 32 9 13 -12z m1010 5 c24 -9 19 -27
-6 -21 -19 5 -20 5 -6 -10 19 -19 65 -20 81 -3 9 10 8 12 -5 7 -10 -4 -18 -2
-18 3 0 14 46 23 75 16 31 -8 47 -37 47 -90 2 -86 -69 -168 -126 -146 -13 5
-40 6 -60 3 -29 -4 -39 -1 -60 22 -48 51 -58 146 -21 201 16 24 62 32 99 18z
m-1424 -20 c0 -17 -22 -14 -28 4 -2 7 3 12 12 12 9 0 16 -7 16 -16z m380 7 c0
-6 -4 -13 -10 -16 -5 -3 -10 1 -10 9 0 9 5 16 10 16 6 0 10 -4 10 -9z m-340
-9 c0 -5 14 -7 30 -4 24 3 30 1 30 -15 0 -18 -4 -18 -45 -9 -42 10 -64 36 -30
36 8 0 15 -4 15 -8z m310 -6 c0 -30 -188 -49 -197 -20 -3 9 69 22 180 32 9 1
17 -4 17 -12z m1700 -40 l0 -53 -180 -139 c-99 -76 -184 -140 -190 -142 -5 -2
-11 9 -13 25 -4 25 -4 25 -3 -4 0 -26 -9 -39 -47 -73 l-47 -42 0 44 c0 23 -3
53 -6 65 -5 18 5 29 63 67 37 25 111 77 163 115 52 39 98 71 102 71 4 0 9 -17
11 -37 4 -37 4 -37 6 7 2 43 5 47 69 97 37 28 68 52 70 52 1 1 2 -23 2 -53z
m-1910 19 c0 -8 -4 -15 -9 -15 -13 0 -22 16 -14 24 11 11 23 6 23 -9z m-183
-10 c9 -25 -4 -29 -17 -6 -7 15 -7 21 0 21 6 0 13 -7 17 -15z m504 -28 c-12
-12 -21 -16 -21 -9 0 16 34 50 39 39 2 -5 -6 -19 -18 -30z m-484 -9 c-3 -8 -6
-5 -6 6 -1 11 2 17 5 13 3 -3 4 -12 1 -19z m47 2 c25 -9 37 -40 16 -40 -5 0
-10 8 -10 18 0 14 -2 15 -10 2 -9 -13 -11 -13 -20 0 -20 30 -14 35 24 20z m93
4 c-3 -3 -12 -4 -19 -1 -8 3 -5 6 6 6 11 1 17 -2 13 -5z m309 -21 c-10 -10
-19 5 -10 18 6 11 8 11 12 0 2 -7 1 -15 -2 -18z m-35 -16 c-8 -8 -11 -7 -11 4
0 20 13 34 18 19 3 -7 -1 -17 -7 -23z m-287 -3 c3 -9 -1 -14 -14 -14 -21 0
-34 15 -25 30 7 12 32 2 39 -16z m264 9 c-2 -13 -20 -21 -68 -30 -67 -13 -180
-7 -180 8 0 5 -1 12 -2 15 -2 4 35 6 82 6 47 -1 101 2 120 7 51 13 52 13 48
-6z m-1248 -34 c118 -11 343 -31 500 -44 265 -23 578 -51 830 -75 58 -5 134
-12 170 -15 150 -11 325 -26 475 -41 88 -8 223 -21 300 -27 l140 -12 0 -65 0
-64 -50 2 c-71 4 -394 35 -1095 106 -190 19 -410 40 -490 46 -283 21 -516 41
-595 50 -44 5 -154 16 -245 25 -272 27 -250 22 -250 57 0 29 2 30 33 24 90
-16 375 -42 367 -33 -3 3 -79 13 -170 21 -224 22 -230 24 -230 50 0 25 -16 25
310 -5z m2852 -506 c-4 -370 -7 -452 -20 -470 -8 -13 -19 -20 -24 -17 -7 4 -8
159 -3 452 8 437 8 446 29 464 11 9 22 17 22 18 1 0 -1 -201 -4 -447z m-70
-55 c-2 -244 -8 -447 -12 -452 -5 -5 -25 -4 -47 1 l-38 9 1 124 c4 507 10 694
21 697 9 3 13 -34 16 -154 l3 -158 1 165 1 164 29 23 c15 13 28 23 29 23 0 0
-2 -199 -4 -442z m-2851 410 c6 -10 20 -940 14 -947 -2 -2 -26 2 -53 9 l-49
11 -7 372 c-3 205 -9 418 -12 473 l-7 101 54 -5 c30 -3 57 -9 60 -14z m82 -4
c13 -5 15 -31 10 -187 -3 -100 0 -299 6 -442 l12 -260 -28 -22 -28 -23 -7 238
c-5 130 -11 342 -15 470 l-8 232 22 0 c12 0 28 -3 36 -6z m413 -40 c21 -6 21
-11 29 -320 4 -174 5 -318 2 -320 -3 -3 -23 0 -46 7 l-41 12 0 171 c0 94 -3
235 -7 314 l-6 142 24 0 c13 0 34 -3 45 -6z m105 -161 c1 -87 4 -218 8 -291 6
-129 5 -134 -16 -154 -13 -12 -26 -19 -29 -15 -4 3 -8 77 -10 164 -2 87 -6
224 -8 306 l-4 147 29 0 29 0 1 -157z m914 72 c83 -8 188 -19 235 -25 47 -5
119 -12 160 -15 132 -10 135 -16 20 -41 -122 -26 -218 -30 -275 -9 -22 8 -77
14 -125 15 -124 0 -263 42 -268 80 -3 21 -1 21 50 16 29 -3 121 -13 203 -21z
m838 -81 l37 -7 0 -504 0 -505 -46 7 c-26 3 -52 9 -60 12 -10 4 -13 102 -12
504 l0 499 22 0 c11 0 38 -3 59 -6z m123 -17 c1 -1 -2 -101 -5 -222 -3 -121
-3 -328 0 -460 l6 -240 -27 -28 -27 -29 -7 169 c-4 92 -4 316 0 496 l7 328 26
-6 c14 -4 26 -7 27 -8z m-970 -52 c-4 -25 -9 -129 -11 -232 l-4 -188 -58 -18
c-74 -22 -189 -35 -179 -19 3 6 43 25 89 42 116 45 127 53 127 98 0 21 -9 109
-20 197 -11 88 -20 161 -20 162 0 2 19 3 41 3 l41 0 -6 -45z m447 -82 c3 -65
4 -160 3 -212 -2 -52 2 -110 7 -128 14 -44 -10 -95 -55 -123 -36 -22 -78 -27
-78 -9 0 6 25 45 55 86 30 42 55 85 55 97 0 21 -46 306 -55 339 -3 9 -7 26
-10 36 -6 20 7 27 51 30 20 1 21 -5 27 -116z"/>
<path d="M5238 4184 c-36 -11 -16 -22 45 -26 67 -6 76 -3 60 13 -12 12 -79 20
-105 13z"/>
<path d="M5132 4095 c-21 -68 -26 -123 -12 -140 19 -23 100 -18 100 7 0 6 -14
8 -34 5 -47 -8 -57 7 -45 65 6 26 9 60 7 75 -4 27 -4 26 -16 -12z"/>
<path d="M5516 4108 c-19 -27 -22 -63 -4 -52 8 5 9 2 5 -9 -3 -9 -2 -19 2 -22
15 -9 24 47 9 57 -10 7 -9 11 5 22 19 15 22 26 8 26 -6 0 -17 -10 -25 -22z"/>
<path d="M5261 4106 c-14 -16 -4 -46 15 -46 8 0 14 10 14 24 0 30 -14 41 -29
22z"/>
<path d="M5060 4091 c0 -24 18 -37 31 -24 13 13 1 43 -17 43 -8 0 -14 -9 -14
-19z"/>
<path d="M5250 3890 c-14 -4 -50 -9 -80 -9 -39 -1 -51 -4 -40 -11 31 -20 170
-3 170 20 0 11 -15 11 -50 0z"/>
<path d="M5182 3820 c10 -6 25 -7 40 -1 20 9 18 10 -17 10 -31 0 -36 -2 -23
-9z"/>
<path d="M3720 3760 c8 -5 20 -10 25 -10 6 0 3 5 -5 10 -8 5 -19 10 -25 10 -5
0 -3 -5 5 -10z"/>
<path d="M3695 3720 c3 -5 11 -10 16 -10 6 0 7 5 4 10 -3 6 -11 10 -16 10 -6
0 -7 -4 -4 -10z"/>
<path d="M3730 3376 c28 -17 50 -21 35 -7 -6 5 -21 12 -35 15 l-25 7 25 -15z"/>
<path d="M4195 3761 c-19 -7 -19 -8 0 -18 18 -10 17 -16 -19 -139 -21 -71 -41
-132 -44 -136 -4 -3 -34 50 -67 119 -54 114 -58 126 -42 138 21 15 11 26 -17
20 -12 -2 -39 -7 -60 -10 l-39 -7 27 -21 c16 -13 58 -85 104 -177 48 -97 83
-155 92 -155 15 0 25 29 96 259 14 49 35 97 45 107 11 11 19 21 19 24 0 8 -73
5 -95 -4z"/>
<path d="M4377 3324 c-10 -13 -14 -24 -9 -24 13 0 35 27 30 39 -1 5 -11 -2
-21 -15z"/>
<path d="M3866 3256 c3 -8 13 -17 22 -21 13 -5 13 -2 -3 15 -21 24 -26 25 -19
6z"/>
<path d="M3937 3239 c7 -7 15 -10 18 -7 3 3 -2 9 -12 12 -14 6 -15 5 -6 -5z"/>
<path d="M5588 3695 c-3 -6 -22 -52 -42 -104 -20 -52 -65 -147 -99 -210 -76
-142 -80 -152 -27 -76 73 106 188 357 177 389 -2 6 -6 6 -9 1z"/>
<path d="M5666 3632 c-25 -48 -64 -218 -96 -411 -16 -101 -30 -188 -29 -195 2
-28 32 104 59 263 31 179 48 255 74 329 17 48 13 55 -8 14z"/>
<path d="M5572 3514 c-18 -55 -32 -103 -31 -109 0 -5 16 35 35 90 18 55 32
104 31 109 -2 5 -17 -36 -35 -90z"/>
<path d="M5470 3208 c-6 -18 -16 -42 -21 -53 -84 -193 -125 -263 -204 -341
-30 -30 -48 -54 -42 -54 6 0 39 29 73 64 66 69 153 224 194 345 22 65 22 97 0
39z"/>
<path d="M5163 2982 c-56 -59 -101 -108 -99 -109 7 -8 86 59 122 103 41 50 88
115 82 113 -2 0 -49 -48 -105 -107z"/>
<path d="M5651 3024 c0 -11 3 -14 6 -6 3 7 2 16 -1 19 -3 4 -6 -2 -5 -13z"/>
<path d="M5140 3609 c0 -31 62 -139 98 -169 51 -42 54 -28 5 23 -23 23 -55 69
-72 102 -16 33 -30 53 -31 44z"/>
<path d="M5072 3464 c-2 -87 18 -223 42 -289 19 -52 20 -25 2 45 -14 55 -34
194 -39 280 -2 25 -4 8 -5 -36z"/>
<path d="M5174 3295 c6 -36 25 -89 31 -84 2 2 -5 29 -16 59 -11 30 -18 42 -15
25z"/>
<path d="M6240 2649 c0 -16 129 -26 178 -13 45 13 19 19 -78 20 -55 0 -100 -3
-100 -7z"/>
<path d="M6273 2598 c15 -10 128 -10 144 0 6 4 -27 7 -73 8 -46 0 -78 -3 -71
-8z"/>
<path d="M6225 2428 c27 -17 203 -17 230 0 17 11 12 11 -30 5 -64 -10 -129
-10 -180 0 -35 6 -37 6 -20 -5z"/>
<path d="M6390 2220 c-35 -7 -35 -7 -5 -9 17 0 37 4 45 9 17 11 11 11 -40 0z"/>
<path d="M4834 2638 c-35 -16 -46 -51 -28 -87 9 -17 20 -31 25 -31 6 0 5 -9
-1 -21 -7 -11 -10 -22 -8 -23 9 -7 141 -26 146 -22 3 3 -2 14 -11 24 -22 24
-21 29 5 35 12 4 19 9 15 13 -4 4 -3 12 3 19 13 16 -13 87 -36 96 -27 11 -86
9 -110 -3z m50 -22 c-3 -12 -2 -16 3 -9 4 6 22 14 38 18 l30 7 -31 -20 c-18
-11 -35 -26 -39 -32 -6 -9 -9 -9 -15 0 -6 9 -11 8 -18 -7 -6 -10 -7 -25 -2
-32 9 -16 30 -6 30 14 0 7 14 24 31 36 l32 22 17 -23 c14 -18 15 -27 6 -47 -9
-20 -16 -23 -40 -19 l-29 6 27 -26 c14 -15 24 -29 22 -32 -3 -2 -27 -1 -55 3
-48 6 -51 8 -45 31 4 15 2 24 -6 24 -8 0 -10 9 -5 27 6 24 5 25 -10 13 -15
-12 -16 -11 -13 15 3 29 31 52 63 52 11 0 14 -7 9 -21z"/>
<path d="M4930 2579 c0 -5 5 -7 10 -4 6 3 10 8 10 11 0 2 -4 4 -10 4 -5 0 -10
-5 -10 -11z"/>
<path d="M4679 2590 c-23 -23 -29 -35 -24 -52 9 -29 34 -58 49 -57 6 0 5 3 -2
6 -24 9 -44 61 -32 83 13 24 11 23 44 7 l26 -14 -26 -12 c-29 -13 -23 -31 10
-31 29 0 39 -10 25 -27 -14 -16 2 -18 19 -1 15 15 -22 49 -46 42 -11 -3 -9 1
6 12 27 20 28 34 3 34 -27 0 -35 17 -14 29 11 7 13 11 5 11 -8 0 -27 -13 -43
-30z"/>
<path d="M5032 2613 c-6 -2 -10 -9 -6 -14 8 -14 31 -11 38 6 5 15 -7 18 -32 8z"/>
<path d="M5070 2579 l-25 -10 24 -20 c13 -10 28 -19 35 -19 6 0 3 7 -6 14 -22
16 -23 26 -3 26 8 0 15 5 15 10 0 12 -7 12 -40 -1z"/>
<path d="M5040 2511 c0 -9 52 -22 60 -15 7 7 -23 24 -42 24 -10 0 -18 -4 -18
-9z"/>
<path d="M5902 2418 c-17 -17 -15 -58 2 -58 8 0 17 7 20 16 9 23 7 31 -4 14
-14 -22 -23 -5 -10 19 12 24 10 27 -8 9z"/>
<path d="M4004 2366 c37 -30 198 -34 270 -6 43 16 25 23 -27 9 -47 -11 -207
-8 -242 5 -19 7 -19 7 -1 -8z"/>
<path d="M3928 2033 c12 -2 30 -2 40 0 9 3 -1 5 -23 4 -22 0 -30 -2 -17 -4z"/>
<path d="M4398 2013 c6 -2 18 -2 25 0 6 3 1 5 -13 5 -14 0 -19 -2 -12 -5z"/>
<path d="M4468 2003 c12 -2 32 -2 45 0 12 2 2 4 -23 4 -25 0 -35 -2 -22 -4z"/>
<path d="M5023 1923 c15 -2 37 -2 50 0 12 2 0 4 -28 4 -27 0 -38 -2 -22 -4z"/>
<path d="M5140 1911 c25 -5 90 -11 145 -14 65 -4 82 -3 50 2 -70 11 -253 22
-195 12z"/>
<path d="M5572 1905 c3 -4 78 -13 165 -21 87 -8 215 -21 286 -30 70 -8 133
-14 140 -11 6 2 -15 8 -48 11 -33 4 -85 12 -115 16 -30 5 -120 14 -200 20 -80
5 -165 13 -190 16 -25 4 -42 3 -38 -1z"/>
<path d="M5843 1833 c9 -2 25 -2 35 0 9 3 1 5 -18 5 -19 0 -27 -2 -17 -5z"/>
<path d="M5923 1823 c15 -2 37 -2 50 0 12 2 0 4 -28 4 -27 0 -38 -2 -22 -4z"/>
<path d="M6643 1900 c0 -47 2 -66 4 -42 2 23 2 61 0 85 -2 23 -4 4 -4 -43z"/>
<path d="M6630 1372 c0 -78 4 -143 9 -147 9 -5 4 274 -5 284 -2 2 -4 -59 -4
-137z"/>
<path d="M6547 1386 c-5 -70 -6 -130 -4 -133 7 -6 20 196 15 232 -2 17 -7 -28
-11 -99z"/>
<path d="M3677 1768 c2 -101 6 -187 8 -193 2 -5 4 74 4 177 1 103 -3 189 -8
192 -5 4 -7 -69 -4 -176z"/>
<path d="M3714 1310 c0 -74 1 -105 3 -67 2 37 2 97 0 135 -2 37 -3 6 -3 -68z"/>
<path d="M3804 1760 c0 -69 1 -97 3 -62 2 34 2 90 0 125 -2 34 -3 6 -3 -63z"/>
<path d="M4204 1795 c0 -49 1 -71 3 -48 2 23 2 64 0 90 -2 26 -3 8 -3 -42z"/>
<path d="M4224 1430 c0 -52 1 -74 3 -47 2 26 2 68 0 95 -2 26 -3 4 -3 -48z"/>
<path d="M4313 1720 c0 -47 3 -132 7 -190 l7 -105 0 85 c0 47 -3 132 -7 190
l-7 105 0 -85z"/>
<path d="M6076 1618 c-3 -13 -5 -86 -4 -163 l1 -140 7 160 c4 88 6 161 5 163
-1 1 -5 -8 -9 -20z"/>
<path d="M6074 975 c0 -60 1 -84 3 -52 2 32 2 81 0 110 -2 29 -3 3 -3 -58z"/>
<path d="M6053 930 c0 -25 2 -35 4 -22 2 12 2 32 0 45 -2 12 -4 2 -4 -23z"/>
<path d="M6184 1535 c0 -88 2 -123 3 -77 2 46 2 118 0 160 -1 42 -3 5 -3 -83z"/>
<path d="M6193 945 c0 -27 2 -38 4 -22 2 15 2 37 0 50 -2 12 -4 0 -4 -28z"/>
</g>
</svg>
