<?xml version="1.0" standalone="no"?>
<!DOCTYPE svg PUBLIC "-//W3C//DTD SVG 20010904//EN"
 "http://www.w3.org/TR/2001/REC-SVG-20010904/DTD/svg10.dtd">
<svg version="1.0" xmlns="http://www.w3.org/2000/svg"
 width="1024.000000pt" height="559.000000pt" viewBox="0 0 1024.000000 559.000000"
 preserveAspectRatio="xMidYMid meet">
<metadata>
Created by potrace 1.16, written by Peter Selinger 2001-2019
</metadata>
<g transform="translate(0.000000,559.000000) scale(0.100000,-0.100000)"
fill="#000000" stroke="none">
<path d="M5203 4635 c-40 -14 -95 -39 -123 -56 -73 -45 -133 -45 -177 -1 -23
23 -40 32 -65 32 -47 -1 -152 -48 -226 -102 -54 -39 -72 -47 -129 -53 -183
-19 -330 -126 -307 -223 16 -66 112 -161 274 -269 41 -28 88 -64 103 -81 28
-29 28 -31 12 -56 -11 -17 -15 -35 -11 -52 4 -15 2 -32 -5 -40 -7 -9 -9 -30
-5 -57 8 -49 18 -38 -154 -176 -327 -262 -487 -429 -568 -587 -41 -81 -62
-151 -92 -304 -16 -85 -48 -252 -71 -370 -48 -245 -55 -373 -24 -492 16 -64
16 -71 0 -120 -10 -29 -38 -91 -63 -138 -74 -140 -82 -158 -88 -202 -13 -96
58 -127 373 -163 235 -27 322 -43 433 -79 136 -44 256 -71 460 -103 92 -14
175 -18 415 -17 285 0 306 2 425 27 69 14 179 44 245 65 127 42 212 55 465 71
250 17 367 52 435 132 41 50 35 93 -26 175 -29 38 -68 103 -88 144 l-36 75 3
210 c4 242 -2 288 -62 515 -25 91 -61 246 -81 345 -57 278 -109 385 -264 548
l-76 80 39 -7 c55 -10 112 2 146 31 24 20 30 33 30 64 0 22 -6 52 -14 68 -18
34 -83 94 -128 117 l-33 17 61 13 c75 15 115 35 143 70 29 37 35 67 21 108
-31 96 -188 151 -359 126 -102 -15 -200 -49 -258 -90 -23 -17 -45 -30 -51 -30
-17 0 -33 50 -22 69 20 38 110 108 206 160 111 61 168 113 185 169 10 33 8 44
-9 78 -27 52 -85 106 -147 137 -56 28 -185 57 -250 57 -23 0 -57 3 -74 6 -29
6 -31 9 -31 49 0 87 -73 135 -205 135 -59 -1 -99 -7 -152 -25z m262 -29 c18
-8 39 -24 45 -37 19 -34 5 -122 -36 -229 -39 -102 -76 -221 -70 -227 2 -2 11
15 21 39 70 176 76 188 95 178 10 -6 43 -10 74 -10 68 0 98 -11 156 -57 l45
-37 -30 33 c-46 50 -95 71 -167 71 -67 0 -93 10 -86 30 6 20 163 13 213 -10
22 -10 71 -46 109 -80 73 -65 117 -90 162 -90 46 0 8 -30 -40 -31 -30 -2 -33
-3 -13 -6 15 -2 27 -8 27 -13 0 -4 -48 -35 -107 -68 -103 -57 -176 -121 -246
-213 l-18 -24 6 30 c9 42 69 119 121 157 48 34 57 46 22 27 -47 -25 -129 -114
-153 -165 -23 -48 -30 -55 -73 -67 -28 -9 -48 -11 -51 -5 -7 19 80 176 125
227 53 59 75 67 45 16 -11 -19 -18 -35 -16 -35 8 0 45 64 45 78 0 51 -124 -79
-178 -187 -23 -46 -42 -89 -42 -96 0 -16 -23 -25 -66 -25 -33 0 -34 1 -34 38
0 20 6 71 14 112 8 41 13 76 11 78 -7 8 -34 -104 -41 -170 l-6 -68 -44 -1
c-24 -1 -50 -2 -56 -3 -7 -1 -12 4 -12 9 1 6 4 33 7 60 6 50 6 50 -10 -12 -14
-53 -20 -63 -38 -63 -21 0 -22 6 -28 103 -5 101 -26 223 -34 200 -2 -6 1 -38
6 -69 6 -32 11 -98 11 -146 l0 -89 -61 3 -60 3 -18 51 c-17 50 -97 194 -107
194 -3 0 4 -17 16 -37 21 -37 80 -179 80 -195 0 -10 -61 -9 -114 0 -37 7 -39
10 -63 77 -34 94 -46 104 -20 16 12 -39 18 -73 15 -77 -4 -3 -20 -3 -36 1 -24
5 -32 14 -42 48 -22 76 -77 171 -151 266 -41 51 -80 102 -87 112 -12 16 -3 28
93 123 58 58 103 106 99 106 -4 0 -51 -44 -106 -97 -83 -82 -101 -96 -116 -87
-9 6 -17 15 -17 21 0 15 184 183 240 218 27 17 69 39 93 48 43 17 92 23 92 10
0 -3 -22 -30 -50 -59 -58 -61 -60 -76 -26 -166 35 -95 160 -361 164 -350 4 12
-24 83 -93 237 -63 141 -74 178 -52 169 8 -3 35 0 58 6 42 11 77 32 215 129
89 62 171 90 272 90 50 1 96 -5 117 -13z m-555 -106 l21 -40 -47 -20 c-50 -22
-94 -26 -94 -10 0 10 88 110 96 110 2 0 13 -18 24 -40z m64 -5 c-25 -19 -34
-19 -34 0 0 10 10 15 27 15 26 0 26 -1 7 -15z m674 -60 c201 -18 333 -78 377
-170 19 -41 19 -55 0 -55 -8 0 -15 6 -15 13 0 24 -56 91 -91 111 -32 18 -31
16 9 -19 36 -32 72 -81 72 -100 0 -3 -8 -5 -19 -5 -24 0 -83 41 -148 102 -73
68 -121 88 -214 88 -42 0 -79 3 -82 6 -11 11 14 46 29 40 8 -3 45 -8 82 -11z
m-1177 -59 c-30 -30 -80 -69 -112 -85 -93 -50 -119 -36 -51 27 20 20 30 32 22
27 -29 -16 -62 -50 -71 -72 -5 -14 -17 -23 -29 -23 -17 0 -20 4 -15 23 17 55
117 116 235 141 36 8 67 14 70 15 2 1 -20 -24 -49 -53z m-44 -115 c10 -16 9
-22 -10 -34 -12 -8 -32 -17 -45 -21 -13 -5 -21 -10 -19 -13 3 -2 26 4 50 15
44 20 46 20 62 2 9 -10 14 -24 10 -29 -3 -6 1 -11 9 -11 23 0 42 -40 25 -52
-10 -7 -8 -8 9 -5 16 4 26 -1 34 -16 7 -12 11 -25 10 -29 -1 -5 4 -8 11 -8 7
0 18 -10 26 -21 11 -18 11 -23 -1 -30 -9 -6 -7 -9 9 -9 14 0 24 -8 29 -22 3
-13 13 -31 22 -41 8 -9 12 -20 9 -23 -3 -4 0 -13 8 -21 8 -8 15 -23 15 -33 0
-10 5 -22 10 -25 18 -11 10 -25 -15 -25 -26 0 -41 13 -90 79 -16 22 -77 73
-135 113 -58 39 -136 103 -175 142 l-70 69 55 12 c30 6 73 21 95 33 49 26 48
26 62 3z m1805 -386 c70 -25 108 -64 108 -112 0 -53 -21 -78 -85 -102 -81 -30
-169 -28 -275 8 -47 16 -114 32 -148 36 -34 4 -62 12 -62 17 0 13 80 5 189
-19 42 -9 117 -17 168 -17 80 -1 95 2 122 22 33 24 37 23 20 -11 -10 -21 -9
-21 10 2 39 44 23 89 -42 123 -37 20 -56 23 -162 23 -118 -1 -167 -11 -279
-60 -15 -7 -17 -5 -11 6 5 8 5 11 -1 6 -5 -5 -9 -14 -9 -19 0 -6 -6 -13 -14
-16 -8 -3 -11 0 -7 7 4 6 1 11 -6 11 -20 1 20 29 82 58 126 60 294 75 402 37z
m-27 -67 c27 -14 55 -39 55 -50 0 -4 -15 -17 -32 -28 -43 -26 -117 -26 -250 0
-57 11 -121 20 -142 20 -52 0 -38 13 44 40 113 38 268 46 325 18z m-555 -6 c0
-47 -100 -86 -280 -107 -324 -40 -780 13 -780 90 0 24 15 25 66 6 97 -37 255
-55 474 -55 225 1 351 17 450 59 69 29 70 29 70 7z m80 -62 c14 -27 12 -66 -4
-79 -11 -9 -15 -5 -20 24 -4 19 -15 41 -26 47 -14 9 -16 16 -9 30 8 14 14 16
29 8 11 -6 24 -19 30 -30z m-1106 -24 c34 -14 234 -71 371 -105 146 -36 268
-54 393 -57 129 -3 142 -6 142 -31 0 -14 -18 -15 -147 -10 -191 6 -461 54
-725 129 -68 19 -96 43 -84 74 7 17 9 17 50 0z m996 -18 c0 -41 -15 -51 -29
-22 -10 22 -9 29 1 35 21 14 28 10 28 -13z m56 -50 c-3 -16 -15 -43 -27 -60
-20 -27 -23 -28 -38 -14 -13 14 -13 19 -3 34 7 9 22 37 33 61 18 38 23 42 31
27 6 -10 7 -31 4 -48z m-101 22 c21 -40 12 -52 -26 -36 -43 18 -77 9 -95 -25
-21 -41 -58 -40 -73 2 -17 50 -14 59 22 60 17 0 57 7 87 14 30 7 58 13 62 14
4 0 15 -13 23 -29z m394 -26 c117 -39 202 -81 252 -125 19 -17 28 -27 20 -23
-9 5 -12 3 -7 -5 4 -6 11 -9 16 -6 17 10 41 -42 38 -82 -3 -32 -8 -41 -38 -55
-86 -42 -159 -16 -333 116 -194 147 -203 156 -187 166 10 6 24 -3 48 -31 50
-58 155 -135 242 -177 61 -30 86 -36 138 -37 45 0 61 -3 57 -12 -7 -21 3 -15
21 11 14 23 14 28 -1 60 -31 64 -140 126 -339 192 -61 20 -115 41 -121 46 -18
19 86 -2 194 -38z m-979 6 c0 -5 -4 -10 -9 -10 -6 0 -13 5 -16 10 -3 6 1 10 9
10 9 0 16 -4 16 -10z m364 -14 c3 -13 9 -31 12 -40 6 -14 -1 -16 -52 -11 -96
10 -104 13 -104 39 0 33 6 36 76 36 57 0 62 -2 68 -24z m-154 -11 c0 -21 -4
-25 -22 -20 -13 2 -49 9 -81 14 -104 18 -101 30 6 31 l97 0 0 -25z m704 -20
c193 -67 317 -141 303 -178 -16 -42 -155 -3 -277 78 -56 38 -174 145 -159 145
3 0 62 -20 133 -45z m-1279 12 c20 -15 13 -37 -11 -37 -8 0 -12 -5 -9 -11 8
-12 -54 -79 -73 -79 -7 0 -10 -5 -7 -11 9 -14 -25 -51 -41 -45 -8 3 -11 -1 -8
-9 5 -13 -33 -42 -49 -37 -5 1 -6 -2 -3 -6 8 -13 -30 -45 -43 -37 -6 3 -9 0
-6 -8 7 -18 -30 -51 -49 -44 -9 4 -13 1 -10 -7 6 -17 -32 -50 -47 -40 -8 5
-10 3 -5 -5 10 -15 -21 -51 -42 -51 -9 0 -12 -3 -9 -7 9 -9 -23 -43 -40 -43
-8 0 -11 -5 -8 -11 8 -12 -23 -49 -42 -49 -7 0 -12 -3 -11 -7 4 -15 -23 -53
-38 -53 -8 0 -13 -4 -10 -9 4 -5 -4 -22 -17 -38 -13 -15 -36 -49 -51 -76 -16
-26 -33 -44 -38 -40 -6 3 -8 1 -4 -5 6 -10 -12 -62 -25 -72 -4 -3 -8 -9 -9
-15 -8 -47 -14 -65 -22 -65 -5 0 -8 -6 -6 -12 4 -22 -12 -68 -23 -68 -8 0 -8
-4 -2 -12 12 -16 -8 -113 -21 -101 -6 5 -6 2 0 -7 16 -28 0 -115 -19 -103 -7
4 -6 0 1 -10 10 -12 12 -31 7 -69 -7 -47 -9 -50 -21 -33 -8 10 -14 14 -14 9 0
-6 6 -18 13 -28 10 -14 8 -44 -12 -169 -14 -84 -29 -154 -34 -156 -5 -2 -4 -6
2 -10 14 -9 2 -83 -13 -74 -6 3 -5 0 2 -8 6 -7 12 -33 12 -57 0 -32 -3 -41
-12 -36 -10 6 -10 5 -1 -7 7 -9 12 -45 12 -85 0 -38 4 -85 9 -104 11 -41 42
-101 42 -82 0 7 -7 26 -15 42 -20 39 -20 337 0 480 29 207 36 232 53 218 13
-12 14 -11 2 9 -12 18 -11 43 3 165 40 326 107 476 316 705 54 59 151 155 215
213 99 89 205 199 266 278 14 18 18 18 63 5 26 -8 47 -20 47 -27 0 -27 -53
-133 -108 -216 -90 -136 -292 -334 -292 -286 0 15 51 86 104 146 28 31 26 31
-12 -5 -68 -63 -126 -165 -94 -165 24 0 108 68 185 151 103 109 184 227 220
319 14 36 29 64 34 63 4 -1 45 -9 91 -19 94 -20 91 -14 66 -126 -18 -81 -62
-189 -88 -220 -12 -13 -13 -19 -4 -16 30 8 108 195 124 296 4 23 12 42 18 41
6 0 51 -8 100 -17 l88 -17 23 -92 c13 -51 29 -100 35 -110 12 -20 13 -22 -10
63 -5 23 -14 63 -19 89 l-9 46 92 -7 c65 -5 95 -12 104 -23 10 -12 12 -13 10
-2 -6 29 29 23 40 -7 8 -25 4 -41 -29 -112 -21 -45 -39 -92 -39 -103 0 -50
114 -482 133 -506 11 -13 80 -11 133 4 18 6 22 1 27 -22 4 -20 1 -31 -10 -38
-95 -59 -143 -144 -143 -255 0 -92 27 -157 88 -212 55 -50 102 -68 176 -68
105 0 184 51 239 154 29 55 32 203 4 255 -29 52 -93 116 -137 136 -36 16 -40
21 -40 56 0 34 3 38 31 44 40 9 72 59 63 100 -6 28 -60 209 -120 400 -17 53
-35 88 -52 103 -15 13 -21 21 -14 17 6 -3 12 -1 12 5 0 7 -7 10 -15 7 -20 -8
-118 60 -128 89 -6 16 -5 30 2 38 9 11 51 -25 203 -173 105 -102 222 -224 260
-271 75 -92 167 -267 186 -355 40 -176 69 -460 53 -507 -10 -29 -9 -31 3 -14
14 17 15 15 25 -20 14 -51 38 -211 46 -299 14 -151 27 -233 51 -314 15 -49 23
-96 20 -110 -3 -14 -10 -43 -15 -65 -12 -48 2 -35 19 19 l13 39 29 -34 c48
-58 79 -107 93 -147 12 -32 12 -40 -1 -49 -8 -6 -14 -15 -14 -19 0 -4 6 -2 14
4 10 9 15 8 20 -4 11 -31 -84 -68 -216 -85 -118 -14 -408 -36 -408 -30 1 8
179 116 240 145 49 24 51 26 20 21 -34 -6 -62 -19 -325 -154 -188 -97 -369
-143 -636 -162 -323 -23 -778 33 -1025 125 -38 14 -121 57 -184 95 -118 71
-188 105 -197 96 -3 -3 7 -11 23 -18 46 -20 187 -122 174 -126 -7 -3 -37 1
-68 7 -32 6 -104 15 -162 20 -143 14 -239 28 -279 42 -32 11 -33 13 -27 51 12
74 69 166 124 200 l33 21 30 -34 30 -34 -25 45 c-13 25 -36 79 -51 120 -83
239 -89 363 -32 640 19 96 41 211 48 255 l13 80 17 -80 18 -80 -7 65 c-33 309
73 534 378 807 52 47 158 136 235 198 77 62 153 126 169 144 34 35 36 36 61
18z m939 -28 c21 -18 43 -52 56 -85 21 -57 28 -163 10 -165 -5 -1 -15 -2 -21
-3 -6 -1 -11 24 -13 59 -3 83 -44 172 -83 181 -15 3 -32 7 -37 8 -13 3 23 36
39 36 8 0 30 -14 49 -31z m323 -150 c54 -40 157 -132 229 -204 145 -145 200
-224 240 -351 23 -70 33 -115 79 -344 9 -47 33 -139 52 -205 19 -66 41 -156
49 -200 14 -82 20 -329 6 -308 -4 6 -8 -44 -8 -110 -1 -67 -6 -135 -11 -152
-10 -29 -11 -28 -33 43 -12 40 -20 84 -18 97 3 13 2 22 -2 20 -12 -7 -20 78
-9 91 7 8 6 13 -1 16 -6 2 -17 62 -25 135 -8 72 -22 165 -31 205 -10 40 -16
82 -16 93 1 11 3 79 6 150 l4 130 -8 -110 c-4 -60 -8 -112 -10 -115 -1 -3 -10
63 -20 146 -32 270 -63 385 -142 518 -62 104 -131 183 -345 392 -150 146 -195
195 -190 208 6 15 14 11 57 -27 27 -24 93 -78 147 -118z m-329 32 c3 -8 -1
-12 -9 -9 -7 2 -15 10 -17 17 -3 8 1 12 9 9 7 -2 15 -10 17 -17z m-43 -10 c0
-23 -22 -24 -28 -1 -4 16 -1 20 11 18 9 -2 17 -10 17 -17z m58 -48 c3 -14 0
-39 -5 -55 -21 -58 42 -107 91 -70 28 21 29 35 13 110 -5 23 -7 42 -5 42 6 0
133 -91 133 -95 0 -2 30 -102 66 -222 37 -120 67 -227 68 -238 1 -15 -8 -21
-43 -28 -49 -10 -44 -14 -91 72 -28 51 -52 61 -81 35 -31 -28 -24 -59 22 -95
41 -32 41 -33 18 -42 -13 -4 -36 -7 -51 -4 -16 2 -28 -1 -28 -6 0 -5 -10 -7
-23 -5 -13 2 -29 -2 -36 -10 -8 -8 -17 -10 -23 -4 -11 11 -80 248 -110 377
-13 60 -18 103 -13 121 7 27 8 27 16 9 8 -16 8 -15 4 7 -9 45 34 128 66 128 4
0 9 -12 12 -27z m74 -108 c-11 -8 -26 -11 -35 -8 -13 6 -13 8 4 13 10 4 22 6
27 3 4 -2 7 1 7 8 0 7 3 9 7 5 5 -4 0 -14 -10 -21z m-189 -76 c2 -13 28 -117
59 -231 49 -184 60 -260 34 -232 -20 21 -136 468 -125 485 10 17 29 4 32 -22z
m317 -279 c3 -5 2 -10 -4 -10 -5 0 -13 5 -16 10 -3 6 -2 10 4 10 5 0 13 -4 16
-10z m-4 -40 c10 -6 31 -34 45 -63 47 -91 32 -237 -23 -237 -14 0 -14 2 3 21
12 14 19 40 22 83 5 74 -20 144 -62 171 -42 28 -29 48 15 25z m149 -85 c-7 -8
-26 -15 -43 -15 -47 0 -12 24 42 29 11 1 11 -2 1 -14z m-130 -24 c0 -8 -35
-17 -183 -51 -26 -6 -37 -5 -34 3 5 17 26 24 112 40 102 19 105 19 105 8z m10
-65 c0 -21 -16 -36 -40 -36 -16 0 -23 42 -9 51 27 17 49 10 49 -15z m-70 -29
c0 -10 -4 -15 -10 -12 -5 3 -10 18 -10 33 0 21 2 24 10 12 5 -8 10 -23 10 -33z
m60 -46 c-5 -11 -15 -23 -20 -26 -6 -3 -10 -20 -10 -36 0 -37 35 -57 69 -40
16 9 21 21 21 49 0 62 11 70 64 44 84 -40 146 -163 131 -260 -13 -86 -62 -159
-129 -191 -132 -61 -283 27 -316 184 -26 123 42 253 148 285 46 14 54 12 42
-9z m33 -82 c-7 -7 -19 -8 -30 -4 -16 7 -15 9 7 15 30 8 38 4 23 -11z m-241
-84 c-2 -14 -9 -25 -14 -25 -5 0 -7 3 -5 8 2 4 7 15 10 25 9 25 15 21 9 -8z
m-15 -57 c-3 -8 -6 -5 -6 6 -1 11 2 17 5 13 3 -3 4 -12 1 -19z m13 -63 c0 -8
-4 -15 -10 -15 -5 0 -10 7 -10 15 0 8 5 15 10 15 6 0 10 -7 10 -15z m10 -35
c0 -5 -4 -10 -10 -10 -5 0 -10 5 -10 10 0 6 5 10 10 10 6 0 10 -4 10 -10z m10
-34 c0 -8 4 -16 9 -18 5 -1 11 -10 13 -18 2 -8 20 -29 41 -47 43 -37 37 -46
-7 -10 -25 19 -76 88 -76 102 0 3 5 5 10 5 6 0 10 -6 10 -14z m-1897 -745 c20
-49 24 -68 15 -78 -6 -8 -17 -12 -25 -9 -7 3 -13 0 -13 -7 0 -7 -16 -27 -35
-45 -20 -17 -33 -32 -31 -32 3 0 -6 -22 -19 -49 -14 -27 -28 -65 -33 -86 -7
-37 -8 -37 -26 -20 -28 28 -14 83 48 191 29 51 61 118 71 149 9 31 18 55 20
53 1 -2 14 -32 28 -67z m2966 -176 c57 -77 64 -112 29 -147 -24 -24 -39 -9
-18 18 11 12 10 13 -5 8 -15 -6 -17 -3 -13 19 3 15 1 27 -3 27 -5 0 -17 17
-28 38 -11 20 -40 61 -65 90 -38 44 -44 56 -36 75 5 12 12 36 15 52 7 29 8 28
40 -40 18 -38 55 -101 84 -140z"/>
<path d="M5164 4534 c-27 -14 -82 -51 -122 -81 -39 -30 -89 -64 -109 -74 -21
-11 -30 -19 -21 -19 15 0 49 22 181 117 25 18 67 44 94 58 26 13 43 25 37 25
-6 0 -33 -12 -60 -26z"/>
<path d="M5441 4419 c0 -8 -21 -70 -46 -137 -25 -67 -45 -127 -45 -134 1 -7
23 48 50 122 28 74 48 142 46 150 -3 13 -4 13 -5 -1z"/>
<path d="M4535 4190 c3 -5 11 -10 16 -10 6 0 7 5 4 10 -3 6 -11 10 -16 10 -6
0 -7 -4 -4 -10z"/>
<path d="M4570 4150 c0 -5 5 -10 11 -10 5 0 7 5 4 10 -3 6 -8 10 -11 10 -2 0
-4 -4 -4 -10z"/>
<path d="M5336 4108 c-3 -13 -5 -32 -5 -43 1 -11 5 -2 10 19 10 42 6 62 -5 24z"/>
<path d="M4605 4100 c3 -5 8 -10 11 -10 2 0 4 5 4 10 0 6 -5 10 -11 10 -5 0
-7 -4 -4 -10z"/>
<path d="M4646 4047 c3 -10 9 -15 12 -12 3 3 0 11 -7 18 -10 9 -11 8 -5 -6z"/>
<path d="M4680 3990 c0 -5 5 -10 11 -10 5 0 7 5 4 10 -3 6 -8 10 -11 10 -2 0
-4 -4 -4 -10z"/>
<path d="M4726 3865 c4 -8 8 -15 10 -15 2 0 4 7 4 15 0 8 -4 15 -10 15 -5 0
-7 -7 -4 -15z"/>
<path d="M6148 3873 c6 -2 18 -2 25 0 6 3 1 5 -13 5 -14 0 -19 -2 -12 -5z"/>
<path d="M5590 3780 c-9 -6 -10 -10 -3 -10 6 0 15 5 18 10 8 12 4 12 -15 0z"/>
<path d="M4630 3765 c14 -8 30 -14 35 -14 6 0 -1 6 -15 14 -14 8 -29 14 -35
14 -5 0 1 -6 15 -14z"/>
<path d="M5540 3760 c-8 -5 -10 -10 -5 -10 6 0 17 5 25 10 8 5 11 10 5 10 -5
0 -17 -5 -25 -10z"/>
<path d="M4688 3743 c6 -2 18 -2 25 0 6 3 1 5 -13 5 -14 0 -19 -2 -12 -5z"/>
<path d="M5465 3740 c-25 -11 1 -11 35 0 20 6 21 8 5 8 -11 0 -29 -3 -40 -8z"/>
<path d="M5393 3723 c9 -2 25 -2 35 0 9 3 1 5 -18 5 -19 0 -27 -2 -17 -5z"/>
<path d="M4923 3713 c9 -2 25 -2 35 0 9 3 1 5 -18 5 -19 0 -27 -2 -17 -5z"/>
<path d="M5323 3713 c9 -2 25 -2 35 0 9 3 1 5 -18 5 -19 0 -27 -2 -17 -5z"/>
<path d="M5013 3703 c9 -2 25 -2 35 0 9 3 1 5 -18 5 -19 0 -27 -2 -17 -5z"/>
<path d="M4605 3689 c6 -9 94 -43 99 -38 2 2 -20 13 -50 25 -29 12 -51 18 -49
13z"/>
<path d="M4735 3640 c27 -12 43 -12 25 0 -8 5 -22 9 -30 9 -10 0 -8 -3 5 -9z"/>
<path d="M4978 3583 c7 -3 16 -2 19 1 4 3 -2 6 -13 5 -11 0 -14 -3 -6 -6z"/>
<path d="M5238 3543 c7 -3 16 -2 19 1 4 3 -2 6 -13 5 -11 0 -14 -3 -6 -6z"/>
<path d="M5315 3529 c48 -9 131 -9 163 -1 12 4 -28 7 -90 8 -78 0 -101 -2 -73
-7z"/>
<path d="M5641 3623 c-10 -26 -10 -27 4 -9 8 11 15 23 15 28 0 15 -7 8 -19
-19z"/>
<path d="M4627 3523 c-4 -3 -7 -11 -7 -17 0 -6 5 -5 12 2 6 6 9 14 7 17 -3 3
-9 2 -12 -2z"/>
<path d="M5720 3470 c0 -5 5 -10 11 -10 5 0 7 5 4 10 -3 6 -8 10 -11 10 -2 0
-4 -4 -4 -10z"/>
<path d="M4535 3420 c-3 -5 -2 -10 4 -10 5 0 13 5 16 10 3 6 2 10 -4 10 -5 0
-13 -4 -16 -10z"/>
<path d="M4497 3383 c-4 -3 -7 -11 -7 -17 0 -6 5 -5 12 2 6 6 9 14 7 17 -3 3
-9 2 -12 -2z"/>
<path d="M5835 3350 c3 -5 11 -10 16 -10 6 0 7 5 4 10 -3 6 -11 10 -16 10 -6
0 -7 -4 -4 -10z"/>
<path d="M4397 3293 c-4 -3 -7 -11 -7 -17 0 -6 5 -5 12 2 6 6 9 14 7 17 -3 3
-9 2 -12 -2z"/>
<path d="M5905 3280 c3 -5 8 -10 11 -10 2 0 4 5 4 10 0 6 -5 10 -11 10 -5 0
-7 -4 -4 -10z"/>
<path d="M4337 3243 c-4 -3 -7 -11 -7 -17 0 -6 5 -5 12 2 6 6 9 14 7 17 -3 3
-9 2 -12 -2z"/>
<path d="M5950 3241 c0 -5 5 -13 10 -16 6 -3 10 -2 10 4 0 5 -4 13 -10 16 -5
3 -10 2 -10 -4z"/>
<path d="M6000 3186 c0 -2 8 -10 18 -17 15 -13 16 -12 3 4 -13 16 -21 21 -21
13z"/>
<path d="M4240 3139 c0 -5 5 -7 10 -4 6 3 10 8 10 11 0 2 -4 4 -10 4 -5 0 -10
-5 -10 -11z"/>
<path d="M4190 3085 c-8 -9 -8 -15 -2 -15 12 0 26 19 19 26 -2 2 -10 -2 -17
-11z"/>
<path d="M6110 3046 c0 -2 7 -9 15 -16 13 -11 14 -10 9 4 -5 14 -24 23 -24 12z"/>
<path d="M4147 3033 c-4 -3 -7 -11 -7 -17 0 -6 5 -5 12 2 6 6 9 14 7 17 -3 3
-9 2 -12 -2z"/>
<path d="M6166 2977 c3 -10 9 -15 12 -12 3 3 0 11 -7 18 -10 9 -11 8 -5 -6z"/>
<path d="M4090 2959 c0 -5 5 -7 10 -4 6 3 10 8 10 11 0 2 -4 4 -10 4 -5 0 -10
-5 -10 -11z"/>
<path d="M6200 2911 c0 -6 4 -13 10 -16 6 -3 7 1 4 9 -7 18 -14 21 -14 7z"/>
<path d="M4050 2899 c0 -5 5 -7 10 -4 6 3 10 8 10 11 0 2 -4 4 -10 4 -5 0 -10
-5 -10 -11z"/>
<path d="M4006 2824 c-5 -14 -4 -15 9 -4 17 14 19 20 6 20 -5 0 -12 -7 -15
-16z"/>
<path d="M6241 2824 c0 -11 3 -14 6 -6 3 7 2 16 -1 19 -3 4 -6 -2 -5 -13z"/>
<path d="M3977 2763 c-4 -3 -7 -11 -7 -17 0 -6 5 -5 12 2 6 6 9 14 7 17 -3 3
-9 2 -12 -2z"/>
<path d="M5145 2723 c-116 -106 -245 -188 -387 -249 -37 -15 -65 -30 -63 -32
9 -9 206 87 284 139 72 48 237 188 221 188 -3 0 -27 -20 -55 -46z"/>
<path d="M6260 2753 c0 -4 5 -15 10 -23 8 -13 10 -13 10 2 0 9 -4 20 -10 23
-5 3 -10 3 -10 -2z"/>
<path d="M3951 2694 c0 -11 3 -14 6 -6 3 7 2 16 -1 19 -3 4 -6 -2 -5 -13z"/>
<path d="M6291 2644 c0 -11 3 -14 6 -6 3 7 2 16 -1 19 -3 4 -6 -2 -5 -13z"/>
<path d="M3937 2643 c-4 -3 -7 -11 -7 -17 0 -6 5 -5 12 2 6 6 9 14 7 17 -3 3
-9 2 -12 -2z"/>
<path d="M6301 2574 c0 -11 3 -14 6 -6 3 7 2 16 -1 19 -3 4 -6 -2 -5 -13z"/>
<path d="M3916 2571 c-4 -7 -5 -15 -2 -18 9 -9 19 4 14 18 -4 11 -6 11 -12 0z"/>
<path d="M6311 2514 c0 -11 3 -14 6 -6 3 7 2 16 -1 19 -3 4 -6 -2 -5 -13z"/>
<path d="M4968 2476 c-85 -45 -114 -67 -53 -39 71 33 123 62 130 73 3 5 5 9 3
9 -2 -1 -38 -20 -80 -43z"/>
<path d="M3906 2495 c-3 -8 -1 -15 4 -15 6 0 10 7 10 15 0 8 -2 15 -4 15 -2 0
-6 -7 -10 -15z"/>
<path d="M6310 2440 c0 -5 5 -10 10 -10 6 0 10 5 10 10 0 6 -4 10 -10 10 -5 0
-10 -4 -10 -10z"/>
<path d="M4640 2430 c-18 -12 -2 -12 25 0 13 6 15 9 5 9 -8 0 -22 -4 -30 -9z"/>
<path d="M3890 2414 c0 -8 5 -12 10 -9 6 3 10 10 10 16 0 5 -4 9 -10 9 -5 0
-10 -7 -10 -16z"/>
<path d="M6321 2364 c0 -11 3 -14 6 -6 3 7 2 16 -1 19 -3 4 -6 -2 -5 -13z"/>
<path d="M3881 2334 c0 -11 3 -14 6 -6 3 7 2 16 -1 19 -3 4 -6 -2 -5 -13z"/>
<path d="M6331 2284 c0 -11 3 -14 6 -6 3 7 2 16 -1 19 -3 4 -6 -2 -5 -13z"/>
<path d="M3861 2134 c0 -11 3 -14 6 -6 3 7 2 16 -1 19 -3 4 -6 -2 -5 -13z"/>
<path d="M6362 2110 c0 -14 2 -19 5 -12 2 6 2 18 0 25 -3 6 -5 1 -5 -13z"/>
<path d="M6182 2020 c-30 -85 -146 -222 -273 -321 -116 -91 -133 -107 -62 -59
143 97 268 227 324 338 18 34 30 65 27 68 -3 3 -10 -9 -16 -26z"/>
<path d="M6382 2010 c0 -14 2 -19 5 -12 2 6 2 18 0 25 -3 6 -5 1 -5 -13z"/>
<path d="M3830 1974 c0 -8 5 -12 10 -9 6 3 10 10 10 16 0 5 -4 9 -10 9 -5 0
-10 -7 -10 -16z"/>
<path d="M6391 1914 c0 -11 3 -14 6 -6 3 7 2 16 -1 19 -3 4 -6 -2 -5 -13z"/>
<path d="M6115 1777 c-49 -51 -58 -62 -28 -39 34 27 113 114 101 111 -1 0 -34
-33 -73 -72z"/>
<path d="M6401 1824 c0 -11 3 -14 6 -6 3 7 2 16 -1 19 -3 4 -6 -2 -5 -13z"/>
<path d="M3815 1777 c-4 -10 -5 -21 -1 -24 10 -10 18 4 13 24 -4 17 -4 17 -12
0z"/>
<path d="M6412 1730 c0 -14 2 -19 5 -12 2 6 2 18 0 25 -3 6 -5 1 -5 -13z"/>
<path d="M3812 1655 c0 -16 2 -22 5 -12 2 9 2 23 0 30 -3 6 -5 -1 -5 -18z"/>
<path d="M6420 1651 c0 -5 5 -13 10 -16 6 -3 10 -2 10 4 0 5 -4 13 -10 16 -5
3 -10 2 -10 -4z"/>
<path d="M3811 1564 c0 -11 3 -14 6 -6 3 7 2 16 -1 19 -3 4 -6 -2 -5 -13z"/>
<path d="M4161 1576 c2 -2 15 -9 29 -15 24 -11 24 -11 6 3 -16 13 -49 24 -35
12z"/>
<path d="M4225 1543 c26 -27 268 -189 330 -220 81 -41 169 -73 199 -73 12 1
-10 11 -49 24 -121 40 -225 96 -363 194 -75 55 -132 91 -117 75z"/>
<path d="M6460 1528 c0 -9 5 -20 10 -23 13 -8 13 5 0 25 -8 13 -10 13 -10 -2z"/>
<path d="M4720 1360 c8 -5 22 -9 30 -9 10 0 8 3 -5 9 -27 12 -43 12 -25 0z"/>
<path d="M6560 1350 c0 -5 5 -10 10 -10 6 0 10 5 10 10 0 6 -4 10 -10 10 -5 0
-10 -4 -10 -10z"/>
<path d="M4772 1345 c14 -14 171 -35 256 -33 l97 1 -130 8 c-71 4 -148 13
-170 18 -45 12 -61 13 -53 6z"/>
<path d="M3621 1304 c0 -11 3 -14 6 -6 3 7 2 16 -1 19 -3 4 -6 -2 -5 -13z"/>
<path d="M6094 1291 c-53 -32 -236 -126 -292 -150 -30 -12 -86 -31 -125 -41
-52 -14 -59 -18 -27 -14 59 8 166 47 265 96 116 58 232 128 213 128 -2 0 -17
-9 -34 -19z"/>
<path d="M6605 1281 c-3 -5 -1 -12 5 -16 5 -3 10 1 10 9 0 18 -6 21 -15 7z"/>
<path d="M3601 1244 c0 -11 3 -14 6 -6 3 7 2 16 -1 19 -3 4 -6 -2 -5 -13z"/>
<path d="M4788 1243 c7 -3 16 -2 19 1 4 3 -2 6 -13 5 -11 0 -14 -3 -6 -6z"/>
<path d="M4833 1233 c9 -2 23 -2 30 0 6 3 -1 5 -18 5 -16 0 -22 -2 -12 -5z"/>
<path d="M6395 1209 c-16 -10 -25 -19 -20 -19 6 0 24 9 40 20 17 11 26 20 20
19 -5 0 -23 -9 -40 -20z"/>
<path d="M5548 1073 c12 -2 30 -2 40 0 9 3 -1 5 -23 4 -22 0 -30 -2 -17 -4z"/>
<path d="M5591 3505 c1 -19 18 -51 18 -35 0 8 -4 22 -9 30 -5 8 -9 11 -9 5z"/>
<path d="M5611 3434 c0 -11 3 -14 6 -6 3 7 2 16 -1 19 -3 4 -6 -2 -5 -13z"/>
<path d="M5500 3275 c0 -5 5 -17 10 -25 5 -8 10 -10 10 -5 0 6 -5 17 -10 25
-5 8 -10 11 -10 5z"/>
<path d="M5731 3264 c0 -11 3 -14 6 -6 3 7 2 16 -1 19 -3 4 -6 -2 -5 -13z"/>
<path d="M5741 3230 c0 -8 4 -24 9 -35 5 -13 9 -14 9 -5 0 8 -4 24 -9 35 -5
13 -9 14 -9 5z"/>
<path d="M5761 3154 c0 -11 3 -14 6 -6 3 7 2 16 -1 19 -3 4 -6 -2 -5 -13z"/>
<path d="M5591 3134 c0 -11 3 -14 6 -6 3 7 2 16 -1 19 -3 4 -6 -2 -5 -13z"/>
<path d="M5601 3094 c0 -11 3 -14 6 -6 3 7 2 16 -1 19 -3 4 -6 -2 -5 -13z"/>
<path d="M5831 3070 c0 -8 4 -24 9 -35 5 -13 9 -14 9 -5 0 8 -4 24 -9 35 -5
13 -9 14 -9 5z"/>
<path d="M5571 3004 c0 -11 3 -14 6 -6 3 7 2 16 -1 19 -3 4 -6 -2 -5 -13z"/>
<path d="M5592 2940 c0 -8 8 -37 18 -65 10 -27 18 -43 18 -35 0 8 -8 38 -18
65 -10 28 -18 43 -18 35z"/>
<path d="M5461 3114 c0 -11 3 -14 6 -6 3 7 2 16 -1 19 -3 4 -6 -2 -5 -13z"/>
<path d="M5481 3044 c0 -11 3 -14 6 -6 3 7 2 16 -1 19 -3 4 -6 -2 -5 -13z"/>
<path d="M5491 3004 c0 -11 3 -14 6 -6 3 7 2 16 -1 19 -3 4 -6 -2 -5 -13z"/>
<path d="M5901 2627 c2 -1 15 -11 29 -22 l25 -20 -19 23 c-11 12 -24 22 -29
22 -6 0 -8 -1 -6 -3z"/>
<path d="M5664 2578 l-19 -23 23 19 c12 11 22 21 22 23 0 8 -8 2 -26 -19z"/>
<path d="M6011 2430 c0 -25 -5 -60 -10 -78 -6 -18 -6 -30 -1 -27 12 7 23 84
17 121 -3 21 -4 17 -6 -16z"/>
<path d="M5685 2270 c10 -11 20 -20 23 -20 3 0 -3 9 -13 20 -10 11 -20 20 -23
20 -3 0 3 -9 13 -20z"/>
<path d="M5765 2220 c19 -8 73 -14 64 -6 -2 2 -22 6 -44 9 -28 5 -34 4 -20 -3z"/>
</g>
</svg>
