<?xml version="1.0" standalone="no"?>
<!DOCTYPE svg PUBLIC "-//W3C//DTD SVG 20010904//EN"
 "http://www.w3.org/TR/2001/REC-SVG-20010904/DTD/svg10.dtd">
<svg version="1.0" xmlns="http://www.w3.org/2000/svg"
 width="1024.000000pt" height="559.000000pt" viewBox="0 0 1024.000000 559.000000"
 preserveAspectRatio="xMidYMid meet">
<metadata>
Created by potrace 1.16, written by Peter Selinger 2001-2019
</metadata>
<g transform="translate(0.000000,559.000000) scale(0.100000,-0.100000)"
fill="#000000" stroke="none">
<path d="M3391 4697 c-7 -9 -15 -42 -18 -74 -5 -63 -40 -162 -79 -231 -14 -23
-27 -55 -29 -72 -2 -16 -20 -58 -40 -94 -20 -36 -34 -70 -30 -76 3 -5 -8 -34
-25 -64 -16 -30 -30 -64 -30 -75 0 -12 -14 -44 -31 -72 -18 -28 -33 -64 -35
-80 -2 -16 -15 -51 -29 -78 -27 -54 -85 -208 -85 -226 0 -22 41 -55 69 -55
l28 0 7 -222 c4 -123 4 -608 0 -1079 -5 -611 -4 -858 4 -863 13 -8 268 -65
477 -106 83 -17 220 -44 306 -62 l156 -31 124 22 124 22 170 -21 c643 -78
1302 -161 1312 -165 6 -2 13 -16 15 -32 4 -39 52 -53 210 -58 71 -3 157 -9
191 -14 34 -5 112 -12 172 -16 l110 -6 120 69 c66 38 228 134 360 214 l240
144 3 1164 c1 756 6 1168 12 1174 6 6 10 19 10 29 0 17 5 19 37 14 42 -7 63 5
63 37 0 26 -27 47 -120 95 -36 19 -69 40 -73 48 -5 7 -45 32 -90 54 -45 23
-85 46 -88 51 -6 9 -30 23 -190 107 -30 16 -61 37 -69 46 -8 9 -57 39 -110 65
-95 48 -97 50 -106 92 -12 55 -37 68 -135 68 -56 0 -80 4 -89 15 -9 11 -34 15
-94 15 -52 1 -87 5 -99 14 -13 10 -40 12 -103 8 -73 -4 -87 -2 -105 14 -17 15
-40 20 -115 22 -52 2 -94 8 -94 13 0 5 -47 9 -104 9 -80 0 -106 3 -116 15 -10
11 -36 15 -111 15 -54 0 -101 4 -104 10 -3 6 -50 10 -107 10 -85 0 -104 3
-125 20 -22 17 -41 20 -120 20 -52 0 -104 5 -115 11 -12 6 -68 14 -124 17 -70
3 -108 9 -115 18 -8 10 -41 14 -124 14 -91 0 -114 3 -119 15 -4 12 -28 15
-124 15 -94 0 -122 3 -132 15 -10 12 -37 15 -120 15 -82 0 -109 3 -113 14 -4
10 -37 15 -124 20 -65 3 -136 9 -159 12 -29 4 -44 2 -53 -9z m39 -59 c0 -36 6
-47 49 -87 26 -25 51 -54 54 -63 3 -9 26 -31 51 -50 24 -18 47 -42 50 -54 3
-12 25 -36 49 -55 24 -19 42 -39 40 -45 -2 -6 21 -32 52 -58 30 -26 55 -53 55
-59 1 -7 28 -41 60 -77 33 -35 60 -71 60 -80 -1 -17 -40 23 -324 333 -110 119
-203 217 -206 217 -4 0 -31 -57 -60 -127 -85 -202 -199 -473 -225 -533 -13
-30 -49 -118 -80 -195 -54 -134 -75 -174 -75 -146 0 14 25 78 82 208 22 50 38
96 35 100 -3 5 10 33 29 63 18 30 34 63 34 73 0 10 14 44 30 77 17 33 30 67
30 76 0 10 14 42 31 72 16 29 32 66 34 82 2 15 17 54 33 86 47 90 72 165 72
212 0 47 15 86 31 77 5 -4 9 -25 9 -47z m163 35 c103 -5 119 -8 128 -25 6 -11
9 -22 7 -24 -3 -2 -58 3 -124 11 -65 8 -124 15 -131 15 -7 0 -17 10 -24 22
-10 19 -9 20 7 14 11 -4 72 -10 137 -13z m361 -55 c9 -12 14 -23 13 -25 -4 -3
-167 15 -204 23 -13 2 -23 9 -23 14 0 6 41 10 99 10 91 0 101 -2 115 -22z
m-332 -5 c47 -5 47 -5 31 -29 -14 -22 -20 -24 -67 -18 -60 7 -136 38 -136 55
0 11 29 10 172 -8z m584 -18 c9 -14 14 -28 12 -31 -5 -4 -165 12 -215 22 -45
9 -21 23 45 27 37 2 84 4 104 5 30 2 41 -3 54 -23z m-364 -10 l48 -6 -20 -21
c-25 -27 -84 -19 -119 17 l-26 26 35 -5 c19 -3 56 -8 82 -11z m-88 -44 l48
-48 -28 -7 c-22 -6 -33 -1 -65 30 -47 46 -50 67 -9 73 3 1 27 -21 54 -48z
m705 10 l16 -24 -60 7 c-33 4 -86 9 -117 13 -40 4 -58 10 -58 20 0 11 20 13
101 11 95 -3 103 -5 118 -27z m-357 3 l27 -5 -21 -21 c-29 -29 -100 -20 -137
17 l-26 27 65 -7 c36 -3 77 -8 92 -11z m-482 -8 c28 -1 42 -9 69 -38 l33 -38
-30 0 c-48 0 -123 29 -160 61 l-33 29 43 -7 c24 -4 59 -7 78 -7z m339 -20 l33
-34 -22 -12 c-20 -11 -27 -8 -59 24 -30 30 -33 38 -21 46 24 16 34 12 69 -24z
m736 -3 c7 -10 12 -20 10 -22 -2 -1 -51 3 -109 10 -74 9 -107 17 -111 27 -9
25 192 10 210 -15z m-310 -8 c39 -7 62 -13 53 -14 -9 0 -21 -9 -26 -18 -9 -16
-13 -16 -53 0 -31 12 -45 14 -50 5 -10 -16 -93 8 -116 34 -18 20 -18 20 52 13
39 -4 102 -13 140 -20z m-944 -24 c-5 -9 -41 -96 -80 -194 -39 -97 -101 -243
-137 -324 -138 -310 -164 -375 -164 -414 0 -27 -4 -39 -14 -39 -47 0 -46 5 81
308 182 433 273 651 284 679 8 21 12 23 24 13 10 -8 12 -17 6 -29z m769 -6 c5
-6 -2 -17 -15 -28 -24 -17 -24 -17 -51 19 -22 29 -25 37 -14 44 14 8 61 -13
80 -35z m-310 0 l34 -35 -28 0 c-19 0 -42 12 -67 35 l-39 35 33 0 c25 0 42 -9
67 -35z m1020 14 c7 -11 10 -23 8 -25 -9 -9 -184 19 -198 32 -12 12 0 14 83
14 87 0 97 -2 107 -21z m-185 -24 c77 -9 186 -23 243 -31 56 -8 116 -14 132
-14 34 0 38 -7 13 -26 -29 -22 -90 -17 -131 11 -43 29 -53 30 -93 10 -28 -15
-31 -15 -56 5 -14 11 -30 20 -34 20 -20 0 -6 -17 37 -44 l46 -29 -33 -17 -33
-18 -76 64 c-58 49 -82 64 -107 64 -17 0 -35 -4 -38 -10 -12 -19 -61 -10 -95
19 l-35 28 60 -8 c33 -4 123 -15 200 -24z m-964 -319 c107 -117 184 -192 197
-194 l22 -3 0 -669 0 -668 -27 -6 c-16 -3 -126 -11 -246 -18 l-219 -12 -10
-25 c-7 -18 -6 -59 2 -132 7 -63 8 -142 4 -193 -4 -58 -2 -117 6 -172 12 -75
11 -98 -5 -197 -15 -92 -16 -127 -8 -197 7 -55 7 -107 1 -145 -5 -33 -13 -105
-16 -161 l-7 -101 -187 42 c-103 22 -191 45 -195 49 -8 8 -8 63 -1 1441 l4
810 38 90 c21 49 62 143 92 208 44 96 191 450 236 566 9 26 10 25 76 -48 37
-41 146 -160 243 -265z m364 304 l29 -30 -40 0 c-32 0 -46 6 -69 30 l-29 30
40 0 c32 0 46 -6 69 -30z m999 20 c14 -5 26 -16 26 -24 0 -16 -5 -16 -142 6
-38 5 -68 14 -68 19 0 12 152 12 184 -1z m-1423 -30 c28 0 42 -7 67 -35 18
-19 32 -37 32 -40 0 -3 -19 -5 -42 -5 -49 0 -107 26 -163 74 l-40 34 55 -14
c30 -8 71 -14 91 -14z m799 3 l32 -26 -24 -13 c-21 -11 -26 -10 -55 19 -18 17
-33 35 -33 39 0 18 51 6 80 -19z m-660 -8 c23 -25 23 -25 4 -40 -10 -8 -22
-15 -26 -15 -11 0 -57 63 -52 72 10 17 51 7 74 -17z m199 -9 l32 -33 -25 -16
c-24 -16 -25 -16 -56 23 -51 64 -10 87 49 26z m310 10 c28 -25 26 -32 -6 -41
-21 -5 -33 0 -60 27 l-33 33 39 0 c24 0 48 -8 60 -19z m81 -20 c28 -25 34 -36
24 -40 -14 -5 -84 48 -84 65 0 18 23 8 60 -25z m257 -2 c35 -29 42 -39 32 -50
-21 -25 -81 -17 -117 17 -19 17 -32 32 -30 33 5 5 63 35 67 36 2 0 24 -16 48
-36z m671 24 c28 -28 13 -35 -55 -27 -103 12 -133 19 -133 29 0 15 174 12 188
-2z m-1092 -30 l36 -32 -24 -17 c-23 -18 -24 -17 -60 18 -29 28 -35 40 -27 50
17 20 35 16 75 -19z m-286 -23 c18 -19 32 -36 29 -39 -14 -12 -71 10 -100 40
l-33 34 35 0 c27 0 43 -8 69 -35z m1600 31 c0 -2 3 -11 6 -20 5 -12 0 -16 -20
-16 -49 0 -176 23 -176 31 0 5 43 9 95 9 52 0 95 -2 95 -4z m-597 -37 c26 -17
47 -34 47 -37 0 -4 -12 -12 -26 -19 -24 -11 -30 -9 -70 24 -55 45 -56 51 -3
62 3 0 27 -13 52 -30z m339 10 c105 -12 107 -13 71 -25 -30 -11 -41 -10 -64 2
-32 16 -63 18 -87 5 -12 -6 -27 -2 -52 16 l-35 25 30 -5 c17 -3 78 -11 137
-18z m-1117 -29 l39 -40 -35 0 c-28 0 -43 8 -74 40 l-39 40 35 0 c28 0 43 -8
74 -40z m392 -2 c22 -23 22 -24 4 -40 -17 -15 -21 -14 -55 16 -40 34 -45 52
-18 59 22 5 41 -5 69 -35z m1194 16 l24 -26 -65 7 c-97 11 -133 19 -138 33 -3
9 18 12 75 12 72 0 82 -2 104 -26z m-1866 -34 c27 -27 47 -52 44 -54 -2 -2
-16 -7 -30 -11 -22 -5 -31 0 -63 40 -31 37 -36 48 -26 60 7 8 15 15 19 15 4 0
29 -22 56 -50z m499 16 l39 -34 -32 -7 c-28 -6 -37 -3 -62 21 -39 37 -38 42
11 53 3 0 23 -14 44 -33z m773 1 c29 -19 31 -23 17 -34 -14 -10 -23 -7 -55 19
-63 51 -32 63 38 15z m-1062 -27 c21 -22 37 -41 34 -43 -2 -1 -12 -9 -22 -16
-16 -13 -23 -10 -62 29 -34 34 -42 47 -33 57 18 22 42 15 83 -27z m1398 34
l46 -7 -23 -18 c-30 -24 -33 -24 -81 6 -37 23 -38 25 -14 25 14 0 47 -3 72 -6z
m471 -16 c9 -12 15 -23 13 -24 -4 -3 -163 18 -177 24 -8 3 10 9 40 12 100 12
108 11 124 -12z m-1481 -19 c26 -21 35 -35 28 -42 -10 -10 -73 35 -85 61 -10
22 19 13 57 -19z m272 -4 l40 -34 -37 -16 c-52 -21 -60 -20 -98 20 -29 30 -31
35 -14 35 11 0 29 7 40 15 25 19 23 20 69 -20z m354 1 l26 -26 -33 0 c-21 0
-43 10 -64 29 l-33 29 39 -3 c25 -3 48 -13 65 -29z m189 8 c44 -26 44 -26 21
-38 -21 -11 -29 -9 -66 16 -24 16 -43 33 -43 38 0 18 43 10 88 -16z m-1477
-30 c21 -22 38 -42 39 -46 0 -12 -74 -10 -106 2 -15 6 -48 27 -74 48 l-46 37
74 -1 c73 -2 76 -3 113 -40z m511 3 l47 -43 -31 -19 -31 -18 -45 47 c-36 38
-42 49 -32 61 20 24 42 17 92 -28z m1094 21 c24 -12 44 -24 44 -27 0 -12 -41
-31 -53 -25 -98 58 -90 102 9 52z m222 13 c26 -16 -18 -22 -46 -6 l-27 14 30
0 c17 1 36 -3 43 -8z m-742 -28 c18 -16 34 -30 34 -33 0 -3 -13 -13 -28 -22
-28 -17 -29 -16 -73 22 -36 33 -41 41 -29 50 26 17 60 11 96 -17z m712 -16 c9
-11 8 -18 -8 -32 -19 -17 -21 -17 -61 11 l-41 28 22 18 c19 16 25 16 49 3 15
-7 33 -20 39 -28z m187 28 c33 -3 75 -9 93 -12 31 -5 32 -6 17 -24 -16 -17
-18 -17 -57 3 -33 17 -46 19 -68 11 -24 -9 -32 -7 -56 14 -23 19 -25 23 -9 19
11 -2 47 -7 80 -11z m349 -1 c4 -9 5 -19 3 -21 -8 -7 -157 20 -157 28 0 5 33
9 74 9 59 0 75 -3 80 -16z m-2116 -47 l47 -47 -34 0 c-26 0 -42 9 -77 45 -24
25 -44 47 -44 48 0 1 14 2 31 1 22 -1 43 -13 77 -47z m1024 7 l49 -36 -27 -14
c-34 -18 -52 -12 -94 32 -29 29 -32 36 -20 44 25 16 40 12 92 -26z m205 -7
c33 -24 40 -33 32 -44 -18 -21 -33 -16 -80 27 -36 32 -41 41 -29 49 16 11 18
10 77 -32z m454 21 c35 -19 37 -23 21 -34 -9 -7 -20 -14 -24 -14 -14 0 -68 52
-62 61 8 14 23 11 65 -13z m-1062 -26 l43 -38 -27 -18 -27 -18 -44 43 c-33 33
-41 46 -32 56 17 21 40 15 87 -25z m1687 23 c17 -15 13 -15 -56 -9 -109 10
-131 23 -39 23 53 1 81 -3 95 -14z m-2089 -27 c41 -39 41 -48 4 -48 -20 0 -41
11 -65 35 -20 19 -36 37 -36 40 0 3 14 5 32 5 22 0 42 -10 65 -32z m226 -6
l37 -38 -25 -14 c-24 -13 -28 -11 -70 30 -48 47 -49 60 -6 60 18 0 39 -12 64
-38z m1570 32 l37 -7 -26 -13 c-22 -12 -29 -11 -50 2 -38 26 -31 29 39 18z
m-843 -55 l45 -38 -28 -1 c-25 0 -125 64 -127 80 0 4 15 4 33 2 19 -2 50 -19
77 -43z m207 13 l52 -38 -31 -12 c-28 -10 -34 -9 -74 25 -46 37 -52 48 -31 56
23 10 32 6 84 -31z m443 18 c43 -22 50 -34 24 -44 -15 -6 -93 41 -94 57 0 13
30 7 70 -13z m128 0 c17 -11 32 -24 32 -29 0 -19 -40 -22 -70 -4 -31 18 -39
38 -17 46 19 8 20 8 55 -13z m262 -1 c58 -6 108 -14 112 -18 9 -8 -98 -4 -135
5 -16 4 -33 2 -41 -5 -10 -9 -21 -7 -45 6 -33 19 -42 38 -13 29 9 -3 64 -10
122 -17z m-1365 -59 c4 -7 -57 -50 -71 -50 -8 0 -84 73 -84 81 0 5 8 9 18 9 9
0 26 7 36 15 17 13 23 11 57 -16 21 -17 41 -34 44 -39z m664 39 l42 -31 -23
-17 c-28 -19 -30 -19 -80 22 -36 29 -38 32 -22 44 26 19 35 17 83 -18z m-1556
-27 l48 -48 -25 -14 c-24 -12 -28 -10 -70 36 -25 27 -45 52 -46 56 0 5 13 11
40 17 3 0 27 -21 53 -47z m210 0 l48 -49 -27 -17 c-26 -18 -26 -18 -70 25 -48
47 -53 63 -26 78 25 15 23 16 75 -37z m383 11 c48 -40 54 -53 26 -53 -10 0
-38 20 -62 45 -56 57 -30 63 36 8z m420 -9 c24 -19 44 -38 44 -42 0 -4 -13
-14 -28 -23 -28 -16 -29 -16 -75 27 l-46 44 27 15 c35 19 29 20 78 -21z m714
0 l51 -37 -31 -18 -31 -19 -49 41 c-39 33 -47 45 -39 56 18 21 46 15 99 -23z
m411 17 c18 -15 21 -22 12 -31 -8 -9 -20 -6 -47 12 -20 14 -33 28 -29 31 12
13 41 7 64 -12z m-2312 -7 c60 -2 66 -5 107 -45 24 -24 44 -47 44 -51 0 -15
-85 -7 -125 12 -42 20 -145 108 -110 94 11 -4 49 -9 84 -10z m617 -29 l47 -44
-24 -20 c-13 -11 -26 -20 -29 -21 -3 0 -26 21 -50 46 l-45 45 24 20 c13 10 25
19 27 19 2 0 25 -20 50 -45z m1400 13 c42 -30 43 -32 24 -45 -17 -12 -25 -10
-69 23 -28 21 -48 41 -45 46 10 17 47 7 90 -24z m414 7 c20 -24 2 -37 -26 -19
-13 9 -24 20 -24 25 0 14 36 10 50 -6z m-1076 -32 l47 -37 -23 -18 c-13 -10
-27 -18 -31 -18 -11 0 -97 70 -97 80 0 6 37 28 51 29 3 1 27 -16 53 -36z m814
-6 c42 -28 43 -29 23 -43 -19 -14 -25 -12 -71 23 -45 34 -49 39 -34 50 18 13
19 13 82 -30z m130 -5 c52 -35 52 -36 30 -49 -31 -17 -30 -17 -74 18 -22 17
-46 35 -54 40 -13 8 -12 11 4 24 21 16 20 16 94 -33z m246 33 c18 -13 18 -15
2 -21 -18 -7 -66 13 -66 28 0 13 43 9 64 -7z m-2211 -93 c-34 -3 -41 1 -75 40
l-37 43 27 6 c22 5 35 -2 75 -40 l48 -46 -38 -3z m1237 60 c44 -35 47 -39 29
-50 -28 -18 -36 -15 -85 30 -33 30 -41 44 -32 50 23 14 39 9 88 -30z m-1011
-80 c-27 -3 -40 4 -81 45 l-49 48 28 6 c24 5 36 -2 81 -45 l53 -51 -32 -3z
m249 18 c1 -4 -9 -13 -24 -20 -24 -14 -27 -12 -71 33 -25 26 -44 49 -42 51 31
26 45 23 89 -17 25 -23 46 -44 48 -47z m147 46 l50 -44 -25 -20 -25 -21 -52
51 c-40 40 -50 55 -41 65 18 22 42 15 93 -31z m1462 8 c56 -36 57 -36 33 -49
-21 -11 -28 -9 -72 22 -56 41 -60 52 -20 62 2 1 28 -15 59 -35z m-559 -23 c38
-29 38 -32 11 -49 -18 -12 -27 -9 -77 29 l-56 43 29 12 c22 9 33 9 45 0 9 -6
30 -22 48 -35z m-136 7 c51 -35 59 -48 30 -48 -10 0 -23 -5 -28 -10 -12 -12
-117 67 -108 81 11 19 61 8 106 -23z m810 1 c44 -28 55 -49 26 -49 -15 0 -107
63 -108 73 0 16 36 5 82 -24z m116 -7 c45 -24 52 -36 26 -46 -21 -8 -130 64
-113 75 13 8 24 4 87 -29z m-1494 -16 l50 -44 -43 -21 -42 -22 -37 29 c-20 17
-45 39 -55 50 -18 20 -18 21 10 36 44 24 64 19 117 -28z m350 9 l39 -35 -29 0
c-18 0 -46 13 -73 35 l-44 35 34 0 c24 -1 45 -11 73 -35z m-619 -25 c39 -39
45 -50 30 -50 -26 1 -120 86 -103 93 7 3 15 6 18 6 3 1 28 -21 55 -49z m1158
-1 l39 -28 -35 -17 -36 -17 -50 38 c-52 40 -55 51 -17 65 23 8 40 1 99 -41z
m118 -9 c29 -24 29 -26 11 -37 -17 -10 -28 -6 -76 30 -51 37 -55 43 -40 54 19
14 49 0 105 -47z m-846 6 l54 -45 -35 -21 -35 -22 -53 50 c-53 50 -54 51 -32
66 32 23 42 20 101 -28z m-1033 -10 l36 -43 -27 -16 -27 -16 -38 50 c-20 27
-34 54 -31 59 14 22 51 8 87 -34z m219 -8 c24 -28 45 -54 47 -58 2 -5 -40 -30
-52 -30 -1 0 -24 25 -51 56 -46 54 -47 57 -30 70 29 22 38 18 86 -38z m241
-15 l57 -58 -33 -17 -33 -16 -54 55 -54 54 24 20 c13 10 26 19 30 19 4 0 32
-26 63 -57z m-629 30 c66 -5 68 -6 109 -55 l42 -50 -77 4 -77 3 -58 59 c-46
47 -52 57 -32 51 14 -4 55 -9 93 -12z m1366 -24 l52 -42 -28 -17 c-28 -17 -28
-17 -86 29 -53 41 -57 46 -41 58 29 21 48 15 103 -28z m825 2 l59 -40 -27 -12
c-24 -11 -31 -9 -83 27 -31 22 -59 46 -61 52 -8 26 55 10 112 -27z m143 -15
c38 -25 39 -27 13 -44 -17 -10 -27 -7 -72 25 -74 51 -74 51 -47 62 25 9 25 9
106 -43z m-756 7 c27 -20 49 -41 49 -45 0 -4 -9 -12 -21 -18 -21 -12 -22 -11
-112 61 -11 9 -17 21 -13 28 13 21 48 11 97 -26z m863 -2 c56 -37 57 -40 37
-51 -19 -10 -30 -6 -82 27 -32 21 -59 41 -59 45 0 5 12 10 40 17 3 0 31 -17
64 -38z m139 -29 c32 -21 36 -27 22 -35 -12 -6 -34 3 -82 34 -54 35 -62 44
-47 50 19 7 28 3 107 -49z m-2249 -8 c27 -30 47 -56 45 -57 -2 -2 -26 -2 -52
1 -38 3 -50 9 -57 26 -5 11 -20 33 -34 48 -14 15 -26 30 -26 33 0 3 17 5 38 4
32 -1 44 -9 86 -55z m441 9 l53 -47 -29 -18 c-16 -10 -29 -22 -29 -28 0 -5 -4
-10 -10 -10 -5 0 -10 7 -10 15 0 9 -19 36 -41 60 -23 25 -40 47 -38 49 6 5 43
25 47 26 2 0 27 -21 57 -47z m202 -7 c56 -53 57 -55 38 -70 -11 -8 -25 -16
-30 -16 -6 0 -35 25 -64 54 -46 47 -52 57 -41 70 20 25 36 19 97 -38z m553
-15 l35 -30 -26 -1 c-16 0 -46 16 -78 42 -43 35 -49 43 -34 49 18 7 38 -5 103
-60z m219 25 l63 -45 -37 -15 -38 -16 -45 37 c-25 21 -53 43 -61 50 -14 10
-13 13 9 22 38 15 42 14 109 -33z m124 0 l57 -44 -26 -17 c-25 -16 -27 -16
-53 7 -14 14 -41 35 -60 48 -32 22 -33 24 -15 37 26 19 33 17 97 -31z m804 7
c34 -20 63 -40 63 -44 0 -4 -9 -10 -20 -14 -22 -7 -153 72 -144 87 10 16 38 8
101 -29z m-2077 -72 l35 -33 -40 6 c-22 3 -50 6 -61 6 -14 0 -26 10 -34 29 -6
16 -23 40 -37 53 l-25 23 29 6 c29 6 33 3 133 -90z m566 30 l52 -48 -34 -26
c-33 -27 -74 -36 -74 -17 0 6 -18 30 -40 54 -22 24 -40 46 -40 49 0 9 53 36
70 36 8 0 38 -21 66 -48z m882 8 l54 -41 -28 -19 c-31 -20 -31 -20 -94 30 -25
19 -47 37 -50 39 -8 6 32 32 49 32 8 0 39 -19 69 -41z m119 -6 c60 -43 64 -48
47 -60 -10 -7 -22 -13 -26 -13 -6 0 -93 66 -128 97 -5 5 21 23 33 23 5 0 38
-21 74 -47z m-1249 -33 c53 -51 59 -60 40 -60 -40 0 -67 12 -73 30 -3 10 -21
34 -41 54 -33 34 -34 36 -12 36 14 -1 47 -24 86 -60z m425 14 l58 -47 -33 -28
c-42 -36 -75 -38 -84 -4 -3 14 -22 39 -42 56 l-35 31 24 19 c35 27 48 24 112
-27z m-1112 26 c31 -17 22 -30 -21 -30 -42 0 -52 12 -22 29 21 13 20 13 43 1z
m1290 -64 l36 -30 -28 -23 c-18 -16 -33 -21 -42 -16 -17 11 -97 98 -97 107 0
4 10 11 23 15 24 10 46 -1 108 -53z m817 25 l53 -38 -31 -13 c-28 -12 -33 -10
-86 30 -42 32 -53 45 -43 51 26 16 54 8 107 -30z m127 -3 c33 -23 62 -43 64
-45 5 -3 -30 -32 -40 -33 -3 0 -30 18 -60 41 -30 22 -61 45 -69 50 -13 8 -13
10 0 19 25 17 42 12 105 -32z m-776 5 c20 -14 48 -37 63 -51 27 -25 27 -26 7
-40 -22 -15 -16 -18 -103 52 -44 37 -47 41 -30 53 23 17 21 17 63 -14z m916
-20 c54 -37 66 -48 50 -51 -11 -2 -24 -8 -29 -12 -10 -10 -148 89 -140 101 12
20 53 7 119 -38z m-2121 22 c4 -12 -4 -15 -41 -15 -39 0 -44 2 -33 15 7 8 25
15 40 15 16 0 30 -7 34 -15z m2236 -31 c41 -26 77 -48 78 -49 2 -2 -6 -8 -17
-14 -18 -10 -31 -4 -96 41 -50 35 -71 55 -62 60 18 11 16 12 97 -38z m-2554
21 c87 -8 236 -22 329 -30 94 -9 217 -20 275 -25 58 -5 184 -17 280 -25 96 -8
299 -26 450 -40 151 -13 410 -36 575 -50 336 -28 378 -32 520 -45 55 -6 230
-22 390 -36 159 -14 292 -27 294 -30 19 -19 -38 -20 -214 -4 -266 25 -534 48
-735 65 -91 8 -268 23 -395 35 -275 25 -600 53 -985 85 -102 9 -257 22 -345
30 -88 8 -239 21 -335 30 -272 24 -280 25 -280 41 0 17 -16 17 176 -1z m554
-4 c15 -30 13 -32 -32 -25 -52 8 -54 10 -38 29 18 21 57 19 70 -4z m2137 -32
c48 -28 90 -52 91 -54 2 -2 -6 -9 -18 -15 -18 -10 -29 -7 -68 18 -26 16 -66
42 -90 56 -40 25 -48 46 -17 46 7 0 53 -23 102 -51z m-968 -1 l61 -41 -30 -19
c-17 -10 -30 -22 -30 -28 0 -23 -38 -8 -50 20 -7 16 -28 41 -47 56 -40 30 -34
42 29 53 3 0 34 -18 67 -41z m135 -9 l66 -52 -25 -13 c-23 -12 -30 -9 -94 39
-53 39 -67 55 -59 64 19 23 44 14 112 -38z m-1164 26 c18 -22 7 -28 -35 -21
-35 7 -46 20 -22 29 23 10 45 7 57 -8z m801 -41 c38 -31 69 -57 69 -58 0 0
-22 1 -50 2 -38 3 -51 8 -55 23 -3 10 -25 34 -47 54 -41 35 -41 35 -14 35 18
0 50 -19 97 -56z m-586 26 c10 -11 16 -22 14 -24 -2 -2 -26 -2 -53 1 l-49 6
22 18 c30 24 44 24 66 -1z m1105 -27 c28 -21 50 -41 50 -45 0 -4 -9 -12 -21
-18 -17 -9 -29 -6 -69 20 -64 41 -79 58 -59 71 26 16 49 10 99 -28z m-2034
-25 c37 -35 46 -39 85 -36 37 3 44 7 49 28 8 33 22 34 208 16 l153 -14 39 -36
c34 -30 47 -36 85 -36 28 0 47 5 49 13 14 45 4 43 161 30 144 -12 148 -13 188
-46 28 -22 57 -36 86 -40 41 -5 44 -4 54 24 13 34 28 36 185 18 81 -9 101 -14
123 -36 23 -21 79 -42 116 -43 7 0 16 12 19 26 l7 27 111 -7 c106 -7 113 -9
142 -37 53 -51 144 -59 144 -13 0 23 17 25 136 13 108 -10 121 -13 151 -40 55
-48 110 -52 128 -10 10 23 12 23 100 17 77 -6 94 -11 116 -32 25 -24 76 -44
111 -44 10 0 20 10 24 25 5 22 11 25 54 25 38 0 58 -7 99 -35 28 -19 60 -35
71 -35 20 0 20 -2 20 -1088 l0 -1088 -157 -16 c-87 -9 -159 -14 -161 -13 -2 2
-7 160 -12 352 -5 191 -12 358 -16 370 -3 13 0 31 10 44 14 20 15 53 10 253
-4 174 -9 236 -20 253 -18 28 -21 493 -3 493 7 0 10 40 7 126 -3 118 -4 127
-27 145 -16 13 -39 19 -78 19 -30 0 -132 7 -226 15 -95 8 -289 24 -432 35
-143 11 -336 27 -430 35 -93 8 -231 20 -305 25 -74 6 -202 17 -285 25 -264 26
-563 48 -578 42 -19 -7 -31 -101 -29 -217 1 -67 5 -88 19 -97 15 -11 16 -39
15 -273 -1 -206 -4 -264 -15 -275 -11 -10 -16 -77 -23 -277 -4 -145 -7 -311
-5 -370 l3 -107 -34 -6 c-39 -6 -169 -25 -181 -25 -5 0 -7 -19 -5 -42 2 -35 7
-44 24 -46 20 -3 21 -11 27 -169 4 -91 7 -253 7 -359 0 -175 -2 -193 -17 -197
-10 -3 -61 -13 -115 -23 l-96 -17 -224 42 c-122 24 -240 47 -260 53 l-38 9 0
77 c1 42 6 114 13 159 9 59 10 111 3 178 -7 77 -6 113 7 183 21 106 21 126 2
225 -12 63 -13 91 -3 151 9 58 9 97 -1 173 -7 54 -12 112 -10 128 l4 30 190
12 c105 6 214 14 243 17 l52 6 0 -715 c0 -470 3 -715 10 -715 7 0 10 245 10
716 l0 716 68 -7 c37 -3 113 -10 169 -16 56 -6 111 -8 122 -4 31 10 26 28 -6
21 -16 -4 -98 1 -183 9 -85 8 -158 15 -162 15 -5 0 -8 301 -8 668 l0 668 38
-4 c26 -3 49 -15 78 -44z m1109 32 c18 -20 17 -20 -28 -20 -49 0 -60 11 -29
29 25 15 37 13 57 -9z m1025 3 c14 -9 40 -27 58 -41 l34 -24 -33 -20 c-23 -14
-34 -17 -37 -8 -5 13 -65 70 -89 84 -13 7 -13 10 -2 17 21 13 42 11 69 -8z
m-2103 -8 c3 -9 3 -19 -1 -22 -7 -7 -36 16 -36 28 0 15 30 10 37 -6z m85 -1
c3 -3 4 -14 1 -25 -4 -13 -14 -19 -34 -19 -24 0 -29 4 -29 25 0 21 5 25 28 25
16 0 31 -3 34 -6z m1178 -9 c18 -22 7 -28 -40 -20 -37 6 -40 8 -23 21 24 18
48 17 63 -1z m1035 -22 c30 -21 54 -41 55 -44 0 -3 -12 -11 -26 -17 -23 -11
-31 -8 -91 35 -55 39 -63 48 -47 54 36 14 55 9 109 -28z m167 -34 l38 -27 -25
-16 c-24 -16 -26 -15 -85 30 -33 26 -60 49 -60 51 0 2 10 8 23 12 23 9 35 4
109 -50z m-1042 36 c11 -13 7 -15 -29 -15 -39 0 -55 13 -28 23 23 10 45 7 57
-8z m1163 -31 l71 -46 -27 -16 c-15 -9 -27 -20 -27 -23 0 -4 -9 -5 -20 -2 -11
3 -20 11 -20 18 0 8 -22 31 -50 52 -27 21 -49 41 -50 45 0 6 19 13 43 17 5 0
41 -20 80 -45z m-948 16 c18 -20 17 -20 -23 -20 -46 0 -54 11 -19 28 12 6 22
11 23 11 0 1 9 -8 19 -19z m-1095 -3 c0 -22 -11 -27 -26 -12 -19 19 -18 25 6
25 11 0 20 -6 20 -13z m2178 -24 c31 -21 61 -41 67 -45 6 -4 2 -13 -9 -21 -18
-13 -27 -10 -93 36 -40 28 -73 55 -73 59 0 20 56 5 108 -29z m142 17 c38 -19
49 -30 33 -30 -11 0 -90 49 -80 50 4 0 26 -9 47 -20z m-2240 -10 c0 -16 -7
-20 -35 -20 -38 0 -38 0 -29 24 4 10 18 16 35 16 22 0 29 -5 29 -20z m1178 -1
c2 -12 -5 -14 -34 -11 -35 4 -36 6 -19 19 24 17 49 13 53 -8z m42 -4 c10 -12
10 -15 -4 -15 -9 0 -16 7 -16 15 0 8 2 15 4 15 2 0 9 -7 16 -15z m1022 -26
l68 -41 -26 -21 -26 -20 -21 27 c-12 14 -41 39 -65 55 -41 27 -45 41 -13 41 8
0 45 -18 83 -41z m-918 16 c4 -11 -2 -15 -24 -15 -29 0 -45 12 -33 24 12 12
51 6 57 -9z m151 -5 c18 -20 17 -20 -31 -20 l-49 1 24 19 c29 25 34 25 56 0z
m-1066 -6 c3 -3 0 -9 -5 -14 -7 -7 -17 -3 -30 11 -19 22 -19 22 6 14 14 -4 27
-9 29 -11z m956 6 c3 -5 2 -10 -4 -10 -5 0 -13 5 -16 10 -3 6 -2 10 4 10 5 0
13 -4 16 -10z m-877 -22 c-2 -18 -9 -23 -32 -21 -35 3 -38 6 -30 27 4 10 18
16 36 16 25 0 29 -4 26 -22z m1100 5 c2 -9 -7 -13 -27 -13 -31 0 -42 14 -18
23 19 8 40 3 45 -10z m68 -14 c4 -7 -2 -9 -17 -7 -13 2 -25 11 -27 21 -3 16
-1 17 17 8 11 -6 23 -16 27 -22z m114 6 c18 -22 8 -27 -36 -19 -34 6 -36 8
-19 20 24 18 40 18 55 -1z m-915 -16 c4 -6 5 -12 2 -15 -7 -7 -37 7 -37 17 0
13 27 11 35 -2z m1063 -6 c2 -9 -7 -13 -27 -13 -30 0 -39 9 -24 24 11 10 46 3
51 -11z m-988 -14 c0 -18 -4 -20 -27 -14 -34 8 -37 11 -28 24 3 6 17 11 31 11
18 0 24 -5 24 -21z m1140 0 c0 -5 -16 -9 -35 -9 -40 0 -45 7 -12 19 24 9 47 4
47 -10z m385 -47 c-13 -13 -74 12 -93 37 l-21 29 59 -31 c32 -17 57 -33 55
-35z m-335 32 c0 -2 -7 -4 -15 -4 -8 0 -15 4 -15 10 0 5 7 7 15 4 8 -4 15 -8
15 -10z m95 5 c10 -16 0 -21 -29 -13 -14 3 -23 10 -20 15 7 12 41 11 49 -2z
m-955 -14 c0 -19 -9 -19 -34 0 -19 14 -19 15 7 15 17 0 27 -5 27 -15z m1088
-2 c2 -9 -7 -13 -27 -13 -31 0 -42 14 -18 23 19 8 40 3 45 -10z m-1018 -13
c-6 -11 -20 -20 -30 -20 -13 0 -20 7 -20 20 0 16 7 20 30 20 28 0 30 -2 20
-20z m350 -21 c0 -11 -3 -11 -24 -3 -23 9 -20 23 4 17 11 -3 20 -9 20 -14z
m68 -6 c-2 -11 -14 -19 -30 -21 -22 -3 -26 0 -21 17 7 27 56 30 51 4z m282
-29 c0 -14 -3 -15 -17 -3 -10 7 -20 15 -22 16 -2 2 5 3 17 3 14 0 22 -6 22
-16z m70 -4 c0 -15 -7 -20 -25 -20 -24 0 -34 18 -18 33 15 15 43 7 43 -13z
m220 -15 c0 -8 -4 -15 -9 -15 -5 0 -14 7 -21 15 -10 13 -9 15 9 15 12 0 21 -6
21 -15z m60 -10 c0 -9 -9 -15 -25 -15 -18 0 -23 4 -19 15 4 8 15 15 25 15 10
0 19 -7 19 -15z m-2300 -56 c113 -11 288 -26 390 -34 102 -8 237 -19 300 -24
798 -67 958 -80 1087 -87 61 -4 117 -10 125 -15 9 -6 14 -42 17 -125 l3 -117
-91 7 c-52 4 -91 3 -91 -2 0 -5 35 -12 77 -16 42 -3 77 -7 79 -9 1 -1 4 -106
5 -232 l3 -230 -87 -3 -87 -3 0 113 c-1 162 -11 350 -21 370 -10 19 -45 24
-269 38 -91 6 -253 17 -360 26 -107 8 -311 21 -452 29 -141 8 -328 21 -415 29
-296 28 -377 31 -395 12 -22 -22 -32 -155 -25 -338 3 -81 3 -156 0 -168 -5
-19 -11 -21 -97 -18 l-91 3 -3 259 -2 259 90 -5 c49 -3 90 -2 90 2 0 10 -63
20 -127 20 -85 0 -83 -3 -83 129 0 175 -8 165 119 157 58 -4 198 -16 311 -27z
m90 -294 c287 -23 434 -34 635 -45 105 -6 271 -17 370 -25 99 -8 262 -19 363
-26 100 -7 182 -16 182 -19 0 -18 -113 -33 -202 -26 -536 39 -781 54 -953 61
-88 3 -230 13 -315 21 -85 7 -182 14 -215 14 -92 0 -135 10 -135 30 0 36 11
36 270 15z m-50 -70 c157 -12 281 -20 715 -43 l130 -7 8 -110 c5 -66 4 -222
-3 -390 -9 -202 -9 -303 -1 -364 11 -84 6 -118 -11 -87 -11 20 -41 21 -57 2
-20 -24 -50 -26 -62 -4 -16 30 -51 19 -71 -22 -18 -34 -18 -78 -1 -161 4 -24
3 -27 -15 -22 -18 4 -19 9 -10 39 12 46 -16 99 -53 100 -13 0 -31 4 -41 8 -9
4 -29 1 -48 -9 -31 -16 -33 -16 -54 4 -12 12 -27 21 -33 21 -20 0 -65 -69 -59
-90 3 -11 9 -29 12 -40 5 -18 1 -20 -58 -20 -35 0 -93 3 -130 7 -66 6 -68 7
-68 34 0 15 5 40 12 54 10 21 9 29 -5 43 -14 13 -21 14 -36 5 -24 -15 -33 -6
-20 19 15 29 -1 40 -52 36 -43 -3 -44 -4 -41 -35 2 -18 1 -33 -3 -33 -13 0
-27 58 -26 104 2 32 -3 54 -14 66 -11 12 -13 20 -5 25 21 13 -2 25 -47 25 -43
0 -45 -1 -39 -24 4 -17 1 -26 -10 -30 -13 -5 -16 -17 -12 -56 3 -27 2 -54 -2
-60 -4 -6 -9 114 -13 267 -3 153 -6 283 -7 288 -1 6 -2 115 -1 243 l1 232 28
0 c15 0 106 -7 202 -15z m1116 -81 c6 -8 15 -42 19 -77 8 -75 -14 -803 -26
-834 -8 -22 -14 -23 -98 -23 -139 0 -137 -2 -146 124 -4 59 -1 219 5 358 9
191 10 279 1 356 -6 57 -8 108 -5 113 9 16 237 0 250 -17z m549 -136 c4 -90 5
-197 3 -238 l-3 -74 -60 -13 c-33 -7 -63 -12 -66 -13 -3 0 -9 60 -13 133 -3
72 -9 175 -12 227 l-6 95 63 22 c35 12 69 22 75 22 8 1 14 -49 19 -161z m-302
128 l127 -11 6 -95 c2 -52 8 -156 12 -230 4 -74 5 -377 2 -672 -4 -295 -4
-577 -1 -627 l6 -91 -157 0 c-99 0 -158 -4 -158 -10 0 -6 60 -10 159 -10 112
0 180 -5 228 -16 76 -18 94 -17 441 19 l213 23 -3 -65 -3 -64 -140 -84 c-295
-179 -543 -323 -554 -323 -8 0 -11 58 -11 200 0 127 -4 200 -10 200 -6 0 -10
-75 -10 -206 l0 -206 -102 7 c-57 4 -134 12 -173 18 l-70 12 -2 310 c-2 171
-7 319 -12 330 -5 11 -12 148 -14 305 -3 174 -9 296 -16 313 -8 21 -8 34 1 50
25 47 45 861 23 920 -9 21 21 21 218 3z m-1612 -396 c4 -14 7 -175 8 -357 1
-320 0 -333 -18 -333 -18 0 -18 2 -4 43 10 28 13 57 8 87 -4 25 -6 64 -5 87 0
25 -5 45 -13 50 -7 4 -16 16 -20 26 -5 13 -18 17 -52 17 -34 0 -47 -4 -52 -17
-4 -10 -13 -23 -22 -29 -8 -6 -15 -31 -17 -55 -1 -24 -5 -58 -9 -75 -5 -22 0
-49 18 -92 l24 -62 -34 -6 c-19 -4 -36 -4 -39 -1 -12 12 -2 692 12 735 3 9 29
12 106 10 99 -3 102 -4 109 -28z m1919 -326 c0 -239 -2 -266 -16 -260 -9 3
-40 6 -70 6 l-54 0 1 228 c0 125 4 236 8 247 7 17 36 28 124 44 4 0 7 -119 7
-265z m208 254 c5 -7 13 -115 17 -244 l7 -231 -23 -17 c-15 -10 -45 -16 -84
-17 -100 -1 -112 -17 -14 -18 70 -1 88 -4 93 -17 6 -17 12 -163 21 -510 l5
-211 -95 -13 c-53 -7 -98 -10 -101 -7 -4 3 -9 296 -12 651 l-5 646 90 0 c60 0
94 -4 101 -12z m-2006 -363 c-3 -43 1 -62 19 -91 20 -33 21 -37 6 -46 -18 -10
-23 -43 -8 -52 7 -5 -3 -93 -12 -102 -2 -2 -12 -1 -23 2 -15 4 -26 22 -37 58
-23 73 -21 111 8 154 26 39 32 81 15 113 -9 16 -7 19 12 19 22 0 23 -3 20 -55z
m-192 9 c-15 -39 -12 -51 21 -85 28 -29 31 -37 27 -79 -6 -58 -46 -144 -70
-148 -22 -4 -50 40 -73 114 -20 64 -14 100 21 116 29 14 41 50 25 84 -10 23
-9 24 24 24 33 0 34 -1 25 -26z m150 -21 c0 -10 -5 -25 -10 -33 -7 -11 -10 -7
-10 18 0 17 5 32 10 32 6 0 10 -8 10 -17z m70 -15 c0 -25 -3 -29 -10 -18 -13
20 -13 50 0 50 6 0 10 -15 10 -32z m-283 6 c8 -21 -13 -42 -28 -27 -13 13 -5
43 11 43 6 0 13 -7 17 -16z m103 -10 c0 -31 -23 -28 -28 4 -2 15 2 22 12 22
11 0 16 -9 16 -26z m985 -64 c7 -12 -3 -50 -13 -50 -4 0 -13 4 -21 9 -10 7
-11 13 -2 30 13 23 26 27 36 11z m115 -8 c0 -36 -22 -52 -63 -46 -30 5 -35 9
-26 20 6 8 19 14 29 14 10 0 23 7 30 15 17 20 30 19 30 -3z m-804 -18 c-4 -15
5 -32 30 -58 27 -28 34 -41 28 -59 -20 -68 -94 -89 -139 -41 -33 36 -32 67 5
97 20 18 30 35 30 54 0 23 4 28 25 28 21 0 25 -4 21 -21z m1077 -3 c24 -23 40
-612 17 -626 -6 -4 -58 -1 -116 6 -99 12 -107 15 -116 39 -11 28 -7 568 4 585
8 12 198 8 211 -4z m-233 -5 c0 -8 -7 -16 -15 -20 -17 -6 -18 -4 -9 18 8 20
24 21 24 2z m-773 -42 c-9 -9 -28 6 -21 18 4 6 10 6 17 -1 6 -6 8 -13 4 -17z
m332 -4 c15 -23 15 -23 -14 -16 -37 9 -37 9 -29 30 8 21 23 17 43 -14z m111
-6 c0 -9 -11 -14 -30 -14 -35 0 -40 17 -7 29 26 10 37 6 37 -15z m316 11 c6
-2 10 -36 10 -91 l-1 -88 -30 -8 c-31 -8 -131 7 -140 22 -2 4 24 5 60 2 45 -3
65 -1 65 7 0 7 -20 11 -53 11 -47 0 -101 20 -87 33 3 2 32 0 66 -6 34 -6 69
-7 80 -2 14 6 -2 11 -56 17 -43 5 -81 16 -90 24 -13 14 -11 15 20 10 75 -12
154 -11 146 2 -3 5 -18 7 -34 4 -34 -5 -139 15 -147 28 -3 5 38 6 90 3 62 -4
95 -2 95 4 0 6 -37 12 -85 15 -47 2 -90 9 -95 14 -9 9 156 8 186 -1z m-256
-16 c0 -5 -10 -9 -21 -9 -18 0 -19 2 -9 15 12 15 30 12 30 -6z m1083 -161 c4
-99 7 -270 7 -380 l0 -198 -22 0 c-13 0 -45 6 -73 13 l-50 13 -6 80 c-3 43 -4
208 -1 367 l5 287 67 0 67 0 6 -182z m-1874 105 c1 -7 -3 -13 -9 -13 -5 0 -10
15 -9 33 0 27 2 29 9 12 5 -11 9 -26 9 -32z m713 27 l100 0 -7 -27 c-3 -16
-14 -44 -23 -63 -15 -31 -22 -35 -62 -38 -79 -6 -126 6 -139 34 -15 33 -14 37
6 30 31 -12 166 -19 160 -9 -4 6 -43 13 -88 16 -46 4 -87 11 -93 17 -13 13 24
13 78 0 48 -11 138 -2 133 14 -2 6 -13 9 -23 7 -47 -11 -183 4 -199 21 -7 7 0
9 24 4 18 -3 78 -6 133 -6z m-696 -75 c7 -18 65 -20 81 -4 9 9 19 6 39 -10 34
-27 84 -27 117 -1 24 19 35 20 164 14 138 -7 139 -7 155 -34 17 -30 50 -40
135 -40 48 0 58 4 83 30 15 17 33 30 40 30 6 0 26 -16 44 -35 32 -34 35 -35
110 -35 59 0 76 -3 76 -14 0 -8 -3 -17 -8 -19 -4 -3 -63 -1 -132 4 -69 4 -237
15 -375 24 -629 38 -766 47 -850 53 l-90 8 96 13 c88 12 99 12 123 -4 29 -19
76 -14 76 9 0 19 16 24 68 25 29 1 44 -4 48 -14z m-347 -55 c191 -13 400 -26
896 -55 237 -14 445 -28 463 -31 29 -4 33 -8 30 -32 -2 -22 -8 -27 -29 -25
-132 8 -382 25 -554 38 -760 54 -913 65 -947 65 -23 0 -28 4 -28 25 0 29 -11
28 169 15z m51 -70 c63 -5 178 -14 255 -19 77 -6 275 -19 440 -31 165 -12 377
-27 470 -33 l170 -12 1 -30 c6 -122 5 -267 -2 -497 -7 -263 -8 -268 -28 -268
-20 0 -1363 165 -1433 176 l-33 5 0 112 c0 62 -3 223 -7 360 l-6 247 29 0 c16
0 81 -5 144 -10z m1570 -359 l55 -6 3 -170 c2 -93 0 -235 -3 -314 l-7 -143
-97 6 c-53 4 -112 11 -131 15 l-35 7 1 284 c0 157 4 298 8 314 l7 29 72 -8
c40 -4 97 -11 127 -14z"/>
<path d="M5296 2011 c13 -12 124 -23 124 -12 0 4 -21 11 -46 15 -65 8 -90 8
-78 -3z"/>
</g>
</svg>
