<?xml version="1.0" standalone="no"?>
<!DOCTYPE svg PUBLIC "-//W3C//DTD SVG 20010904//EN"
 "http://www.w3.org/TR/2001/REC-SVG-20010904/DTD/svg10.dtd">
<svg version="1.0" xmlns="http://www.w3.org/2000/svg"
 width="1024.000000pt" height="559.000000pt" viewBox="0 0 1024.000000 559.000000"
 preserveAspectRatio="xMidYMid meet">
<metadata>
Created by potrace 1.16, written by Peter Selinger 2001-2019
</metadata>
<g transform="translate(0.000000,559.000000) scale(0.100000,-0.100000)"
fill="#000000" stroke="none">
<path d="M5202 4509 c-90 -11 -105 -18 -167 -87 -72 -81 -89 -137 -60 -209 8
-21 19 -88 24 -150 8 -102 13 -120 53 -205 44 -93 83 -138 119 -138 10 0 21
-4 24 -10 4 -6 -7 -10 -25 -10 -39 0 -131 -32 -169 -59 -46 -33 -275 -342
-276 -372 0 -14 -7 -34 -15 -44 -14 -16 -28 -17 -173 -12 -172 7 -157 2 -251
80 -19 15 -41 27 -51 27 -11 0 -15 5 -12 15 7 16 -9 30 -18 16 -3 -6 -18 -3
-35 7 -23 13 -32 14 -41 5 -9 -9 -8 -18 4 -37 14 -20 14 -25 2 -30 -8 -3 -17
-20 -20 -39 -6 -28 -10 -34 -27 -29 -11 2 -31 -4 -46 -15 -15 -11 -35 -22 -44
-26 -12 -4 -17 -17 -16 -47 0 -36 5 -43 43 -69 42 -29 75 -38 172 -47 52 -6
98 9 164 52 26 17 31 16 155 -19 71 -21 156 -40 189 -43 56 -6 63 -4 93 21
l33 28 39 -22 c56 -31 71 -27 115 31 l40 52 3 -31 c2 -18 -4 -43 -13 -57 -13
-19 -15 -37 -11 -68 9 -61 9 -69 1 -110 -6 -29 -3 -43 15 -68 27 -38 28 -78 7
-190 -9 -47 -17 -99 -17 -117 0 -40 -17 -52 -29 -20 -6 14 -14 28 -20 31 -16
10 -53 -14 -47 -30 6 -16 -30 -19 -96 -8 -28 5 -38 12 -38 25 0 10 -4 21 -10
24 -5 3 -10 16 -10 27 0 11 -16 36 -35 54 -35 32 -35 34 -15 46 28 18 25 31
-5 24 -20 -5 -25 -3 -25 12 0 9 -7 28 -17 41 -15 23 -17 23 -30 6 -7 -11 -13
-31 -13 -47 0 -36 -16 -36 -35 2 -8 16 -27 33 -40 36 -19 5 -24 11 -20 25 7
22 -13 26 -21 4 -4 -8 -12 -15 -19 -15 -7 0 -15 7 -19 15 -3 8 -10 15 -17 15
-6 0 -9 -7 -5 -15 3 -10 -1 -15 -12 -15 -22 -1 -46 -19 -60 -47 -12 -21 -13
-21 -42 -5 -25 14 -29 22 -24 44 3 15 0 36 -6 47 -10 20 -12 20 -35 5 -14 -9
-28 -27 -31 -40 -7 -28 -8 -28 -34 -12 -28 18 -37 2 -10 -20 l23 -19 -21 -21
c-28 -28 -36 -28 -50 3 -15 33 -81 37 -89 5 -9 -33 -28 -17 -31 26 -2 21 -8
44 -13 51 -16 19 -39 4 -39 -26 0 -25 -3 -27 -34 -23 -42 5 -99 -23 -94 -46 4
-23 59 -32 105 -16 21 8 39 14 40 14 1 0 -5 -13 -13 -30 -9 -17 -23 -30 -34
-30 -21 0 -42 -31 -39 -58 1 -9 -1 -25 -6 -35 -7 -17 -3 -57 11 -119 4 -18 2
-28 -5 -28 -9 0 -75 -26 -368 -147 l-63 -25 0 -78 c0 -51 4 -81 13 -88 7 -6
36 -14 64 -18 l51 -6 6 -77 c3 -42 9 -258 12 -480 l7 -403 34 -14 c18 -8 53
-17 78 -20 37 -6 51 -2 89 22 25 16 48 35 51 42 2 7 0 142 -6 300 -5 158 -8
358 -7 444 3 150 4 158 23 158 23 0 183 -18 233 -26 l32 -5 0 -309 c0 -169 3
-315 6 -324 8 -20 107 -50 137 -42 12 3 37 20 55 37 l33 31 -7 294 -7 294 49
-1 c53 0 189 -10 411 -30 l142 -12 3 -34 c3 -32 7 -36 73 -64 38 -16 75 -29
82 -29 7 0 13 -1 13 -2 0 -2 9 -86 20 -188 11 -102 20 -190 20 -196 0 -6 -45
-28 -100 -50 -55 -21 -110 -48 -121 -60 -39 -41 2 -70 83 -58 61 8 201 45 212
55 5 5 10 86 12 181 1 95 5 203 9 240 8 78 12 80 106 51 32 -10 85 -16 130
-16 l76 1 18 -106 c9 -59 23 -145 31 -191 8 -46 14 -87 14 -91 0 -3 -25 -39
-55 -79 -75 -99 -74 -141 2 -141 41 0 93 31 118 69 l23 36 -7 265 c-5 146 -7
266 -6 268 9 12 124 35 180 36 l70 1 7 -160 c4 -88 5 -315 2 -505 -3 -193 -1
-351 4 -358 4 -7 43 -18 86 -26 l78 -13 35 36 c64 65 62 53 52 306 -6 127 -8
250 -5 275 3 25 6 129 7 233 1 174 2 188 20 197 10 6 60 42 110 80 50 39 94
70 97 70 3 0 3 -177 0 -394 -3 -216 -3 -398 1 -405 10 -15 67 -31 113 -31 31
0 42 7 73 43 l37 42 -5 170 c-2 94 0 302 6 463 l11 293 38 38 c34 35 38 44 38
89 0 28 -4 62 -9 76 -11 27 -22 29 -174 42 -75 6 -79 7 -72 27 33 105 39 148
27 195 -11 40 -10 54 3 85 23 56 20 119 -8 145 -13 12 -34 22 -47 22 -22 0
-22 1 -7 18 45 50 5 77 -113 76 -118 0 -158 -27 -113 -76 15 -17 15 -18 -6
-18 -12 0 -33 -11 -46 -25 -30 -29 -33 -83 -9 -141 13 -31 14 -45 5 -75 -16
-52 -14 -82 9 -146 11 -32 20 -58 20 -59 0 -10 -89 12 -102 25 -15 15 -15 21
-2 71 16 58 12 133 -7 156 -9 10 -8 21 0 43 7 15 11 48 9 72 -3 38 -7 46 -34
59 -25 13 -29 19 -20 32 19 31 -10 48 -84 48 -38 0 -75 -3 -84 -6 -19 -7 -21
-49 -3 -61 8 -5 2 -9 -18 -13 -46 -8 -62 -46 -46 -108 9 -37 10 -56 2 -71 -16
-28 -13 -116 4 -157 14 -35 14 -35 -8 -28 -30 9 -33 16 -48 108 -6 44 -20 107
-30 140 -14 47 -16 68 -8 105 5 25 13 51 17 56 4 6 38 25 76 44 38 19 86 51
108 71 42 41 47 67 27 161 -11 49 -10 52 15 76 14 13 26 25 26 27 0 1 -38 85
-84 186 -83 180 -160 306 -194 316 -9 3 -52 19 -94 35 -49 19 -90 29 -115 27
l-38 -3 -8 57 c-9 56 -8 59 22 93 17 20 31 43 31 51 0 9 11 34 24 57 31 53 47
230 26 293 -18 54 -113 161 -151 169 -16 4 -43 14 -60 22 -40 20 -95 24 -187
12z m191 -43 c12 -8 33 -16 47 -19 38 -9 118 -108 136 -168 19 -64 11 -113
-17 -104 -26 8 -67 -18 -82 -53 -11 -26 -12 -24 -15 26 -2 28 -7 52 -12 52 -5
0 -10 17 -12 38 -3 32 -6 37 -25 35 -20 -2 -23 2 -23 32 0 38 -13 44 -44 20
-28 -21 -46 -19 -46 5 0 20 -2 20 -50 -5 -59 -30 -61 -30 -53 -8 6 15 1 14
-31 -5 -46 -27 -49 -27 -41 -2 8 27 -14 26 -49 -1 l-26 -20 0 20 c0 34 -16 24
-38 -21 -20 -40 -21 -41 -22 -15 -1 58 51 135 103 152 9 4 17 12 17 20 0 18
29 27 115 36 83 8 139 3 168 -15z m-11 -223 c6 -7 14 -10 19 -7 5 3 9 -6 9
-20 0 -13 6 -31 14 -39 8 -8 16 -34 18 -58 4 -58 31 -66 52 -15 8 20 22 39 31
42 23 9 45 -15 45 -50 0 -34 -33 -95 -52 -98 -7 0 -19 -2 -27 -2 -18 -1 -26
-49 -26 -154 0 -81 1 -84 32 -112 28 -26 30 -30 17 -48 -39 -57 -225 -82 -294
-41 -33 20 -33 22 -15 35 17 12 20 12 28 -1 11 -21 27 -9 27 21 0 17 6 24 18
24 51 0 172 115 172 161 -1 24 -1 24 -16 4 -30 -41 -99 -107 -125 -121 -45
-23 -101 -27 -140 -11 -30 12 -43 30 -83 107 -44 84 -49 101 -56 188 -10 108
-8 112 53 112 20 0 37 4 37 10 0 15 -43 22 -73 11 -26 -10 -27 -10 -27 28 0
34 5 42 34 59 30 18 35 18 40 5 4 -11 13 -13 29 -8 12 4 34 6 50 6 15 -1 41 6
57 14 24 12 33 13 49 3 16 -10 26 -9 53 4 33 15 33 15 36 -11 2 -14 8 -32 14
-38z m138 -287 c0 -8 -4 -18 -10 -21 -5 -3 -10 3 -10 14 0 12 5 21 10 21 6 0
10 -6 10 -14z m145 -262 c50 -20 92 -38 94 -40 2 -2 -6 -15 -17 -29 -55 -70
-92 -243 -92 -433 0 -115 2 -128 22 -149 19 -21 48 -31 48 -18 0 3 -9 18 -19
33 -10 15 -21 50 -24 77 l-5 50 15 -50 c9 -27 21 -54 28 -60 7 -5 15 -25 17
-43 4 -30 0 -36 -66 -85 -97 -73 -98 -73 -92 -45 12 61 15 92 7 78 -5 -8 -12
-34 -16 -58 -10 -60 -26 -72 -94 -72 -55 0 -142 -22 -168 -43 -24 -18 -15 -46
18 -55 l31 -8 -42 -29 c-44 -31 -70 -33 -145 -14 -59 15 -95 30 -95 41 0 5 8
4 18 -1 28 -15 133 -30 165 -24 40 8 22 23 -28 23 -56 0 -145 33 -175 65 -17
19 -21 30 -15 52 8 34 8 65 -1 116 -5 31 -3 37 11 37 47 0 149 107 291 305 94
131 224 364 224 402 0 18 5 17 105 -23z m-418 -98 c61 -21 98 -20 175 4 34 11
64 20 66 20 1 0 -5 -11 -13 -24 -17 -25 -119 -76 -153 -76 -12 0 -24 -4 -27
-10 -11 -18 49 -10 98 14 26 13 47 21 47 18 0 -12 -99 -166 -158 -245 -72 -97
-71 -97 -99 -12 -13 38 -13 38 -8 6 3 -19 12 -48 20 -64 14 -29 14 -31 -24
-76 -22 -25 -55 -61 -74 -79 l-34 -33 -6 58 c-4 32 -9 110 -12 173 -7 141 -13
180 -26 180 -7 0 -10 -48 -7 -143 l3 -142 -39 -54 -39 -53 -30 58 c-16 32 -55
84 -87 115 l-57 56 81 105 c44 58 97 127 116 153 44 60 74 82 140 105 l53 18
24 -28 c13 -16 44 -35 70 -44z m654 -196 c38 -85 74 -163 79 -172 6 -10 10
-22 10 -26 0 -25 -174 -92 -238 -92 -28 0 -30 3 -37 46 -3 25 -13 64 -21 87
-23 65 7 241 59 342 l20 40 29 -35 c16 -19 60 -105 99 -190z m-1726 -70 c10
-11 14 -20 8 -20 -5 0 -18 9 -28 20 -10 11 -14 20 -8 20 5 0 18 -9 28 -20z
m94 -61 c22 -40 0 -85 -48 -99 -33 -9 -38 -8 -58 15 -15 16 -23 39 -23 61 0
34 1 35 52 38 9 1 20 5 24 9 14 14 38 3 53 -24z m67 -50 c32 -30 83 -38 241
-39 l141 0 25 30 26 30 37 -40 c21 -22 42 -46 46 -54 9 -16 -72 -95 -99 -97
-46 -3 -89 4 -224 38 l-147 36 -50 -31 c-72 -44 -123 -58 -161 -43 -16 7 -32
20 -35 28 -5 12 -2 13 11 7 38 -16 103 -16 128 0 25 17 33 54 16 72 -9 8 8 84
18 84 3 0 15 -9 27 -21z m-223 -19 c7 0 18 -9 25 -20 11 -18 10 -20 -21 -20
-18 0 -42 7 -53 15 -16 13 -17 16 -4 25 8 5 21 8 28 5 8 -3 19 -5 25 -5z m-93
-40 c0 -5 -4 -10 -10 -10 -5 0 -10 5 -10 10 0 6 5 10 10 10 6 0 10 -4 10 -10z
m84 -10 c14 0 26 -5 26 -11 0 -15 -61 -1 -80 18 -13 14 -13 14 7 4 12 -6 33
-11 47 -11z m66 -24 c0 -19 -4 -22 -25 -18 l-24 4 22 19 c28 23 27 23 27 -5z
m108 7 c2 -9 -10 -13 -42 -13 -44 0 -61 12 -33 24 21 9 70 2 75 -11z m1687
-89 c7 -60 7 -60 -30 -92 -20 -18 -110 -68 -199 -111 -153 -74 -165 -82 -189
-124 -35 -59 -74 -105 -101 -118 -17 -8 -17 -7 4 10 39 31 18 34 -34 5 -57
-32 -71 -27 -19 7 59 38 50 52 -12 19 -77 -41 -119 -40 -48 0 28 16 55 34 58
40 14 23 -4 21 -43 -4 -39 -24 -92 -44 -92 -33 0 3 29 26 65 52 59 42 97 84
78 86 -4 1 -26 1 -48 0 l-40 0 35 16 c19 9 71 19 116 22 90 7 92 8 272 139 99
73 118 92 87 92 -22 0 -19 40 3 40 9 1 40 9 67 19 59 21 61 19 70 -65z m-1905
66 c-20 -13 -50 -13 -50 0 0 6 15 10 33 10 24 0 28 -3 17 -10z m199 -16 c10
-9 -45 -3 -59 6 -11 7 -5 8 20 4 19 -4 37 -8 39 -10z m634 -13 c4 -17 2 -18
-13 -8 -10 6 -16 15 -14 19 9 14 22 9 27 -11z m-788 -2 c4 -6 5 -13 2 -16 -8
-7 -47 7 -47 18 0 13 37 11 45 -2z m1675 -29 c0 -10 -4 -22 -10 -25 -6 -4 -10
7 -10 25 0 18 4 29 10 25 6 -3 10 -15 10 -25z m696 -203 c4 -4 -3 -18 -16 -32
-17 -18 -25 -40 -27 -78 -5 -80 3 -110 37 -130 29 -18 29 -18 43 10 38 74 24
133 -31 133 -24 1 -25 2 -8 11 26 16 64 -4 72 -38 5 -18 0 -49 -15 -90 -16
-47 -19 -68 -11 -82 25 -49 6 -141 -56 -265 -19 -38 -32 -76 -29 -86 7 -22
-33 -34 -76 -25 -32 7 -32 7 -23 29 4 12 11 13 31 5 18 -7 30 -6 37 1 7 7 1
10 -19 10 -43 0 -48 6 -94 95 -52 102 -68 171 -53 224 10 32 9 45 -4 76 -24
58 -23 123 1 141 11 8 28 12 38 9 62 -19 60 -19 52 6 -4 13 -16 33 -26 45 -23
25 -24 31 -1 38 25 7 169 2 178 -7z m-413 -23 c3 -4 -3 -18 -13 -32 -29 -36
-28 -132 1 -158 20 -18 21 -18 35 1 34 46 30 89 -8 105 -22 8 -22 9 4 9 37 1
47 -37 25 -96 -15 -39 -15 -46 0 -80 16 -40 14 -104 -6 -155 -10 -28 -12 -28
-101 -28 -103 0 -111 5 -130 97 -9 42 -8 57 5 89 12 30 13 44 5 65 -6 14 -10
44 -8 65 3 35 6 39 33 41 28 2 28 1 5 -5 -33 -10 -40 -68 -12 -102 l19 -23 23
23 c20 20 22 29 17 77 -3 30 -13 65 -21 78 -8 12 -12 25 -9 29 8 8 128 8 136
0z m-333 -38 c-14 -13 -99 -42 -86 -29 8 9 79 41 91 42 5 1 3 -5 -5 -13z m-20
-57 c-14 -8 -47 -19 -114 -35 -21 -5 -28 -4 -24 6 2 8 33 19 67 26 35 7 66 16
69 19 3 3 8 3 11 -1 3 -3 -1 -9 -9 -15z m-1434 -24 c-4 -14 -11 -25 -16 -25
-13 0 -13 16 1 42 14 26 23 16 15 -17z m2230 10 c10 -24 -5 -85 -20 -85 -26 0
-38 84 -13 93 21 9 27 7 33 -8z m-578 -27 c-2 -18 -7 -33 -13 -33 -5 0 -11 15
-13 33 -3 24 1 32 13 32 12 0 16 -8 13 -32z m156 24 c7 -11 -4 -52 -14 -52
-12 0 -20 28 -14 45 7 16 20 20 28 7z m-1614 -22 c13 -8 12 -10 -4 -10 -15 0
-16 -3 -6 -15 14 -17 60 -21 60 -5 0 6 -8 10 -17 10 -17 1 -17 1 -1 11 12 7
24 6 38 -1 27 -15 25 -34 -5 -48 -14 -7 -30 -23 -37 -37 -10 -22 -16 -25 -47
-19 -44 8 -48 11 -33 26 16 16 15 28 -3 28 -9 0 -20 -10 -25 -22 -8 -21 -9
-20 -9 10 -1 22 7 41 24 57 26 27 41 30 65 15z m635 -2 c20 -9 25 -17 21 -32
-4 -12 -8 -48 -11 -81 l-4 -60 15 78 c15 74 17 77 44 77 39 0 60 -9 60 -27 0
-45 143 -97 215 -79 13 3 40 22 59 41 l35 34 5 -27 c3 -15 10 -61 17 -102 7
-41 14 -67 17 -57 3 16 -8 107 -24 183 l-6 31 49 1 49 2 19 -87 c11 -49 21
-80 23 -71 3 16 -10 98 -24 144 -5 18 0 24 27 33 17 6 33 11 34 11 5 0 55
-244 55 -271 0 -12 -7 -19 -18 -19 -10 0 -23 -5 -29 -11 -7 -7 -76 -5 -234 7
-205 15 -225 18 -241 38 -10 11 -18 35 -18 52 0 52 -54 56 -66 5 -11 -46 -33
-61 -87 -61 l-50 0 7 68 c7 70 27 192 32 192 2 0 15 -5 29 -12z m-445 -34 c0
-21 -4 -33 -10 -29 -5 3 -10 19 -10 36 0 16 5 29 10 29 6 0 10 -16 10 -36z
m-706 7 c8 -12 -18 -21 -56 -21 -26 0 -29 2 -18 15 14 16 65 21 74 6z m164
-24 c4 -20 -25 -34 -40 -19 -15 15 -1 44 19 40 10 -2 19 -11 21 -21z m193 13
c10 -6 26 -24 34 -40 l16 -30 -34 0 c-37 0 -77 -24 -77 -46 0 -32 -25 -5 -38
40 -16 55 -6 76 32 69 13 -3 27 0 30 6 9 14 12 14 37 1z m319 -57 c13 -14 13
-15 -2 -10 -12 4 -18 1 -18 -7 0 -16 21 -26 53 -26 20 0 20 1 2 13 -24 19 -5
29 25 14 34 -17 46 -56 29 -93 -15 -31 -74 -56 -163 -69 l-43 -7 7 39 c3 21 2
53 -3 72 -20 78 58 129 113 74z m-585 -3 c0 -9 -11 -16 -27 -18 -27 -3 -38 14
-21 32 12 12 48 2 48 -14z m135 -6 c0 -8 -9 -14 -20 -14 -19 0 -27 19 -14 33
10 9 34 -4 34 -19z m-60 -28 c0 -16 -27 -29 -41 -20 -10 6 -12 38 -3 47 10 10
44 -12 44 -27z m-142 -22 c3 -22 -21 -39 -39 -28 -11 6 -12 38 -2 48 13 13 38
1 41 -20z m375 9 c-4 -18 35 -35 60 -27 22 7 22 8 -3 14 l-25 7 28 8 c41 11
77 -16 77 -60 0 -18 -4 -45 -10 -59 -9 -25 -12 -26 -100 -26 -88 0 -91 1 -100
26 -17 43 -12 92 11 115 21 21 66 23 62 2z m-161 -15 c-6 -6 -16 -7 -22 -3 -9
6 -9 9 1 16 17 10 34 0 21 -13z m-144 -16 c3 -16 -2 -22 -17 -22 -26 0 -36 17
-20 36 16 19 33 13 37 -14z m102 -23 c0 -21 -1 -22 -24 -13 -19 7 -21 30 -3
37 18 6 27 -2 27 -24z m1109 -90 c50 -62 55 -106 16 -144 -19 -20 -34 -25 -73
-25 -49 0 -101 25 -74 36 7 3 12 23 12 45 0 22 7 54 16 71 9 18 11 27 4 23
-19 -12 -39 -70 -33 -96 3 -16 -3 -10 -17 16 l-22 39 51 46 c29 26 53 57 58
75 l7 30 6 -32 c4 -17 26 -55 49 -84z m-1031 79 c-2 -13 -10 -23 -18 -23 -8 0
-16 10 -18 23 -3 17 2 22 18 22 16 0 21 -5 18 -22z m-223 -10 c27 -12 33 -28
11 -28 -25 0 -46 12 -46 26 0 17 2 17 35 2z m95 -13 c10 -12 10 -19 2 -27 -16
-16 -42 -2 -42 22 0 24 22 26 40 5z m866 -21 c9 -20 34 -46 55 -59 20 -13 44
-34 53 -47 23 -32 21 -91 -4 -113 -22 -20 -26 -14 -9 17 15 27 -2 87 -32 114
-21 19 -21 18 1 -19 18 -30 21 -48 17 -84 -6 -52 -17 -63 -69 -63 -65 0 -91
54 -63 131 19 52 28 93 28 132 0 15 1 27 3 27 2 0 11 -16 20 -36z m-788 -7 c3
-12 -4 -17 -22 -17 -28 0 -33 9 -14 28 15 15 32 10 36 -11z m-217 -2 c16 -9
73 -25 126 -36 79 -16 126 -19 269 -17 172 3 174 3 174 -18 0 -24 -17 -34 -58
-34 -15 0 -34 -5 -42 -11 -11 -8 -1 -9 37 -5 l52 5 -11 -29 c-5 -16 -19 -32
-31 -36 -21 -7 -22 -7 -2 -14 11 -4 25 -4 30 0 13 10 85 18 85 10 0 -4 -8 -14
-17 -22 -60 -51 -421 -51 -460 1 -8 11 -12 12 -13 3 0 -9 -11 -7 -39 8 -41 20
-69 49 -37 37 10 -4 21 -7 26 -7 5 0 16 -8 26 -17 10 -10 19 -13 21 -8 5 16
85 5 107 -14 11 -9 16 -11 12 -4 -4 8 7 13 36 15 l43 3 -50 9 c-73 13 -108 66
-39 58 26 -3 35 -1 30 7 -4 6 -22 11 -40 11 -23 0 -38 7 -50 23 -10 14 -14 16
-10 5 12 -36 -90 -17 -112 21 -14 24 -14 24 -8 3 5 -21 3 -23 -15 -18 -12 3
-30 8 -40 11 -11 3 -24 20 -30 37 -16 46 -16 46 30 23z m289 11 c0 -2 3 -11 6
-20 5 -12 0 -16 -20 -16 -28 0 -29 1 -20 24 5 14 34 24 34 12z m493 -24 c-3
-14 -20 -29 -40 -37 -44 -19 -43 -19 -43 5 0 13 13 25 43 38 23 11 43 18 44
18 1 -1 0 -12 -4 -24z m177 8 c0 -5 -9 -19 -21 -31 -38 -38 -69 -91 -69 -119
0 -40 40 -93 80 -107 70 -24 156 -7 190 38 14 17 19 18 48 8 47 -16 118 -6
147 21 30 28 42 84 27 124 -7 16 -10 31 -8 34 2 2 41 0 86 -4 82 -7 98 -23 29
-28 -19 -2 -37 -4 -41 -5 -14 -2 -8 -28 12 -53 l19 -25 -39 -38 c-73 -72 -78
-134 -12 -162 50 -21 174 -20 207 1 30 20 42 60 27 98 -9 26 -8 28 13 28 13 0
26 4 29 9 9 14 -33 61 -55 61 -23 0 -24 8 -3 31 23 25 11 53 -21 47 -14 -3
-30 1 -36 8 -9 12 -3 14 38 14 28 0 71 -3 96 -6 l45 -6 -14 -34 c-8 -19 -14
-46 -13 -62 1 -15 -6 -47 -15 -71 -39 -106 -10 -146 124 -175 45 -10 128 -19
183 -20 90 -1 106 2 133 21 27 19 35 21 72 11 123 -31 180 59 82 127 -65 45
-100 91 -100 130 0 34 1 35 38 35 21 0 45 -6 53 -12 29 -24 61 -90 55 -114 -8
-31 24 -48 87 -47 56 1 81 17 73 49 -4 14 2 37 16 60 l21 37 66 -7 c36 -3 83
-6 104 -6 20 0 37 -4 37 -8 0 -5 -42 -39 -92 -75 -51 -37 -156 -112 -232 -167
-162 -116 -122 -109 -431 -80 -115 11 -282 26 -370 35 -88 8 -221 19 -295 25
-74 5 -209 16 -300 24 -91 9 -268 24 -395 36 -126 11 -304 26 -395 35 -91 8
-248 21 -350 30 -102 9 -213 19 -248 23 l-63 7 193 78 193 78 15 -23 c34 -53
90 -96 152 -117 132 -44 345 -45 492 -4 44 12 70 27 99 57 42 44 80 112 92
164 l7 32 69 0 c39 0 69 -4 69 -10z m151 -10 c12 0 16 -5 13 -15 -8 -20 -17
-19 -45 6 -19 16 -20 19 -6 15 10 -3 27 -6 38 -6z m-421 -22 c0 -23 -16 -38
-51 -48 -50 -15 -59 -13 -59 13 0 23 15 30 103 46 4 0 7 -5 7 -11z m1203 -13
c43 -8 114 -15 157 -15 l78 0 -19 -37 c-10 -21 -26 -55 -34 -76 -15 -39 -36
-52 -105 -63 -38 -6 -39 -6 -42 27 -2 29 -7 35 -30 37 -16 2 -28 -1 -28 -5 0
-5 -6 -17 -13 -27 -13 -18 -15 -17 -54 3 -23 11 -44 29 -47 39 -10 31 29 132
52 132 4 0 42 -7 85 -15z m-936 -29 c-23 -34 -32 -99 -18 -125 16 -28 -3 -28
-23 1 -24 34 -19 70 16 116 34 44 52 50 25 8z m-202 -6 c-8 -16 -29 -37 -46
-46 l-32 -16 7 29 c4 15 8 29 9 30 2 1 69 31 75 32 1 1 -4 -12 -13 -29z m-676
-37 c11 -24 11 -25 -16 -19 -27 7 -73 48 -73 66 0 18 78 -23 89 -47z m1481 37
c0 -5 -3 -9 -7 -9 -21 3 -33 -2 -27 -12 3 -6 22 -9 40 -7 41 5 42 -1 7 -26
-24 -18 -26 -18 -35 -1 -8 14 -12 15 -19 4 -6 -11 -12 -11 -33 1 -35 18 -33
25 12 43 44 19 62 21 62 7z m605 -10 c-3 -5 -11 -10 -16 -10 -6 0 -7 5 -4 10
3 6 11 10 16 10 6 0 7 -4 4 -10z m-1495 -12 c-1 -22 -24 -44 -59 -56 -58 -20
-66 -17 -44 21 18 30 24 33 96 46 4 0 7 -5 7 -11z m-512 -4 c24 -5 52 -36 52
-58 0 -2 -19 0 -42 5 -24 4 -46 8 -49 9 -3 0 -11 11 -17 25 -13 28 -4 31 56
19z m2016 -116 c7 -119 -3 -143 -70 -166 -66 -23 -325 12 -370 49 -18 15 -18
61 1 106 14 34 16 35 33 20 10 -9 33 -22 50 -28 25 -8 31 -16 27 -29 -5 -17
17 -50 35 -50 10 0 37 26 42 40 2 6 29 15 60 19 67 9 103 31 122 74 13 30 14
28 9 -38 -3 -38 -12 -88 -20 -109 -16 -48 -11 -57 14 -20 14 23 18 48 18 131
0 98 1 103 21 103 20 0 21 -7 28 -102z m-1464 68 c0 -9 -61 -48 -66 -43 -8 8
34 47 51 47 8 0 15 -2 15 -4z m813 -13 c-7 -2 -21 -2 -30 0 -10 3 -4 5 12 5
17 0 24 -2 18 -5z m128 -20 c13 -16 12 -17 -3 -4 -17 13 -22 21 -14 21 2 0 10
-8 17 -17z m1129 -36 l0 -54 -180 -139 c-98 -76 -183 -140 -189 -142 -5 -2
-12 9 -14 25 -3 23 -4 22 -3 -5 2 -27 -5 -38 -45 -72 l-47 -39 -5 62 c-4 50
-2 65 12 75 43 35 307 222 313 222 4 0 9 -17 11 -37 4 -37 4 -37 6 7 2 43 5
47 69 97 37 28 68 52 70 52 1 1 2 -23 2 -52z m-1300 38 c0 -3 -5 -14 -12 -25
-17 -26 -2 -38 20 -15 9 10 11 14 3 10 -9 -5 -12 -3 -9 6 3 8 18 14 34 14 27
0 29 -3 34 -45 3 -30 8 -41 13 -32 5 7 6 29 3 48 -5 21 -3 34 4 34 18 0 51
-64 48 -95 -3 -25 -9 -32 -41 -42 -48 -16 -140 -7 -169 17 -15 12 -19 22 -13
39 12 39 85 112 85 86z m150 -10 c7 -9 8 -15 2 -15 -5 0 -12 7 -16 15 -3 8 -4
15 -2 15 2 0 9 -7 16 -15z m280 -20 c0 -17 -17 -28 -30 -20 -7 4 -7 13 0 26
12 21 30 17 30 -6z m375 -71 c28 -21 35 -33 33 -53 -3 -24 -8 -26 -52 -29 -27
-2 -53 1 -59 7 -6 6 7 9 39 8 68 -3 72 24 9 76 -25 21 -45 43 -45 49 0 7 9 2
20 -9 11 -12 36 -34 55 -49z m-395 5 c0 -5 -4 -9 -10 -9 -5 0 -10 7 -10 16 0
8 5 12 10 9 6 -3 10 -10 10 -16z m382 -51 c-5 -5 -21 -6 -36 -2 -21 5 -26 12
-26 36 l0 29 35 -27 c22 -16 32 -31 27 -36z m-2422 21 c118 -11 346 -31 505
-44 160 -14 360 -32 445 -40 259 -24 531 -48 740 -65 74 -5 207 -17 295 -26
88 -8 221 -20 295 -27 l135 -12 3 -54 c2 -29 1 -59 -1 -65 -6 -14 -72 -9 -517
35 -168 17 -345 34 -395 39 -49 5 -200 20 -335 34 -135 14 -312 30 -395 36
-251 18 -516 40 -595 50 -41 5 -149 16 -240 25 -271 26 -250 22 -250 56 0 28
2 30 28 25 67 -13 388 -41 367 -31 -5 2 -82 11 -170 20 -220 22 -225 23 -225
49 0 25 -17 25 310 -5z m2852 -506 c-4 -407 -6 -450 -22 -470 -16 -21 -18 -21
-25 -5 -3 9 -3 211 1 447 6 415 7 431 27 453 11 12 21 22 23 22 1 0 -1 -201
-4 -447z m-70 -67 l-4 -448 -42 6 c-22 4 -44 10 -48 14 -4 4 -4 189 0 411 5
305 10 405 19 408 9 3 13 -34 16 -154 l3 -158 1 165 1 164 27 24 c15 13 28 22
29 20 2 -2 1 -205 -2 -452z m-2840 -46 c4 -261 5 -476 3 -478 -2 -3 -26 1 -53
8 l-49 11 -7 377 c-3 207 -9 420 -12 472 l-6 95 58 -5 59 -5 7 -475z m72 464
c13 -5 14 -30 9 -187 -3 -100 0 -299 6 -442 l12 -260 -28 -22 -28 -23 -7 223
c-4 122 -11 333 -15 470 l-8 247 22 0 c12 0 28 -3 37 -6z m422 -42 c12 -8 30
-642 18 -642 -4 0 -24 5 -45 12 l-39 11 0 162 c0 89 -3 230 -7 313 l-6 152 34
0 c19 0 39 -4 45 -8z m95 -164 c1 -90 4 -221 7 -291 l7 -128 -27 -26 -26 -25
-6 63 c-3 35 -7 178 -8 317 l-3 252 27 0 28 0 1 -162z m919 77 c85 -9 191 -20
235 -25 44 -5 118 -12 165 -15 47 -4 92 -9 100 -12 23 -9 -197 -52 -266 -53
-34 0 -80 7 -104 15 -23 8 -89 16 -148 18 -79 3 -120 9 -157 24 -27 12 -58 24
-67 27 -10 3 -18 15 -18 26 0 20 4 21 53 16 28 -3 122 -13 207 -21z m833 -81
l37 -7 0 -504 0 -505 -46 7 c-83 12 -77 -17 -73 324 1 168 1 389 0 491 -1 102
-2 188 -1 193 0 9 32 9 83 1z m102 -10 c20 -5 20 -13 18 -471 l-1 -466 -25
-24 -24 -25 -7 172 c-8 180 2 820 13 820 3 0 15 -3 26 -6z m-949 -59 c-4 -25
-9 -129 -11 -232 l-4 -188 -58 -18 c-68 -21 -207 -35 -183 -18 8 6 51 25 95
42 114 44 125 52 125 97 0 21 -9 109 -20 197 -11 88 -20 161 -20 162 0 2 19 3
41 3 l41 0 -6 -45z m446 -42 c1 -43 1 -134 0 -203 0 -69 3 -146 9 -172 13 -58
-1 -92 -50 -125 -36 -24 -81 -31 -81 -12 0 6 25 45 55 86 30 42 55 85 55 97 0
32 -53 338 -66 378 -5 17 10 25 54 27 21 1 22 -3 24 -76z"/>
<path d="M5227 4193 c-16 -15 -4 -22 36 -21 24 0 53 -3 65 -6 27 -9 29 9 3 24
-22 11 -94 14 -104 3z"/>
<path d="M5137 4120 c-14 -49 -27 -115 -27 -138 0 -32 40 -49 80 -32 43 18 38
33 -9 25 -21 -3 -41 -3 -44 2 -3 5 -1 30 4 55 6 26 9 62 7 80 -4 31 -4 32 -11
8z"/>
<path d="M5256 4122 c-9 -15 6 -52 21 -52 10 0 13 9 11 27 -3 27 -22 42 -32
25z"/>
<path d="M5516 4108 c-19 -27 -22 -63 -4 -52 8 5 9 2 5 -9 -3 -10 -2 -17 2
-17 16 0 22 32 9 47 -10 12 -9 18 5 28 19 13 22 25 8 25 -6 0 -17 -10 -25 -22z"/>
<path d="M5064 4106 c-8 -22 3 -49 19 -43 6 2 12 14 12 27 0 27 -22 39 -31 16z"/>
<path d="M5311 3923 c7 -10 15 -20 16 -22 2 -2 3 3 3 11 0 9 -7 19 -16 22 -15
6 -15 4 -3 -11z"/>
<path d="M5240 3894 c-19 -7 -55 -13 -80 -14 -33 0 -41 -3 -30 -10 34 -22 158
-1 168 28 5 15 -12 14 -58 -4z"/>
<path d="M5170 3826 c0 -9 37 -12 55 -5 15 6 11 8 -17 8 -21 1 -38 -1 -38 -3z"/>
<path d="M5588 3695 c-3 -6 -24 -57 -47 -115 -23 -58 -68 -153 -100 -212 -33
-60 -58 -108 -55 -108 9 0 85 122 121 195 46 90 95 223 90 239 -2 6 -6 6 -9 1z"/>
<path d="M5670 3640 c-29 -55 -68 -217 -100 -424 -11 -70 -25 -149 -31 -173
-5 -25 -8 -48 -6 -50 7 -7 46 165 73 322 26 155 43 231 68 303 16 44 14 55 -4
22z"/>
<path d="M5572 3514 c-18 -55 -32 -103 -31 -109 0 -5 16 35 35 90 18 55 32
104 31 109 -2 5 -17 -36 -35 -90z"/>
<path d="M5439 3133 c-60 -145 -118 -241 -188 -313 -32 -33 -54 -60 -48 -60
29 0 136 132 184 227 48 93 108 242 100 249 -2 2 -23 -44 -48 -103z"/>
<path d="M5163 2982 c-57 -59 -103 -108 -103 -110 -1 -14 67 38 105 80 42 46
111 139 103 137 -2 0 -49 -48 -105 -107z"/>
<path d="M5651 3024 c0 -11 3 -14 6 -6 3 7 2 16 -1 19 -3 4 -6 -2 -5 -13z"/>
<path d="M5141 3609 c-1 -28 59 -137 90 -164 46 -38 53 -30 11 15 -20 22 -51
68 -69 102 -18 35 -32 56 -32 47z"/>
<path d="M5075 3425 c3 -102 26 -240 46 -275 13 -23 11 3 -5 69 -13 51 -31
173 -40 276 -2 22 -2 -9 -1 -70z"/>
<path d="M6315 2830 c3 -5 33 -10 66 -10 33 0 59 4 59 10 0 6 -29 10 -66 10
-41 0 -63 -4 -59 -10z"/>
<path d="M6242 2738 c-24 -24 -7 -130 23 -142 8 -3 25 4 39 15 21 17 26 29 26
66 0 32 -5 50 -17 59 -22 17 -55 18 -71 2z m65 -34 c8 -22 -9 -69 -26 -69 -17
0 -35 49 -27 70 7 20 45 19 53 -1z"/>
<path d="M6287 2516 c21 -12 171 -11 200 0 14 6 -18 9 -97 9 -75 0 -113 -3
-103 -9z"/>
<path d="M6275 2473 c41 -24 178 -23 220 0 l30 17 -30 -7 c-16 -5 -66 -8 -110
-8 -44 0 -93 3 -110 8 l-30 7 30 -17z"/>
<path d="M5973 2803 c15 -2 37 -2 50 0 12 2 0 4 -28 4 -27 0 -38 -2 -22 -4z"/>
<path d="M5903 2538 c16 -10 164 -10 170 0 3 4 -37 7 -88 7 -51 0 -88 -3 -82
-7z"/>
<path d="M6048 2503 c7 -3 16 -2 19 1 4 3 -2 6 -13 5 -11 0 -14 -3 -6 -6z"/>
<path d="M5220 2405 c0 -4 7 -20 16 -37 9 -18 14 -47 12 -68 -2 -21 0 -36 4
-34 14 9 9 84 -7 114 -14 28 -25 38 -25 25z"/>
<path d="M5176 2368 c-8 -32 -7 -96 2 -101 4 -3 7 24 7 59 1 35 0 64 -1 64 -1
0 -4 -10 -8 -22z"/>
<path d="M4980 2355 c0 -5 5 -17 10 -25 5 -8 10 -10 10 -5 0 6 -5 17 -10 25
-5 8 -10 11 -10 5z"/>
<path d="M4934 2306 c-6 -37 2 -92 16 -101 5 -3 4 11 -2 31 -5 20 -7 52 -3 70
3 19 4 34 1 34 -3 0 -8 -15 -12 -34z"/>
<path d="M5004 2256 c1 -30 4 -49 8 -43 10 16 10 69 0 84 -5 7 -8 -11 -8 -41z"/>
<path d="M3933 2033 c9 -2 25 -2 35 0 9 3 1 5 -18 5 -19 0 -27 -2 -17 -5z"/>
<path d="M4398 2013 c6 -2 18 -2 25 0 6 3 1 5 -13 5 -14 0 -19 -2 -12 -5z"/>
<path d="M4473 2003 c15 -2 37 -2 50 0 12 2 0 4 -28 4 -27 0 -38 -2 -22 -4z"/>
<path d="M5023 1923 c15 -2 37 -2 50 0 12 2 0 4 -28 4 -27 0 -38 -2 -22 -4z"/>
<path d="M5118 1913 c12 -2 30 -2 40 0 9 3 -1 5 -23 4 -22 0 -30 -2 -17 -4z"/>
<path d="M5181 1906 c2 -2 49 -6 104 -9 71 -4 85 -3 50 3 -51 8 -162 13 -154
6z"/>
<path d="M5585 1901 c11 -4 65 -11 120 -15 55 -4 180 -16 279 -27 98 -11 180
-18 182 -16 7 7 -231 37 -372 47 -76 5 -159 12 -184 15 -30 3 -38 2 -25 -4z"/>
<path d="M5843 1833 c9 -2 25 -2 35 0 9 3 1 5 -18 5 -19 0 -27 -2 -17 -5z"/>
<path d="M5923 1823 c15 -2 37 -2 50 0 12 2 0 4 -28 4 -27 0 -38 -2 -22 -4z"/>
<path d="M6644 1905 c0 -49 1 -71 3 -48 2 23 2 64 0 90 -2 26 -3 8 -3 -42z"/>
<path d="M6630 1372 c0 -79 4 -142 9 -142 9 0 3 269 -5 279 -2 2 -4 -59 -4
-137z"/>
<path d="M6547 1386 c-4 -66 -5 -121 -3 -123 6 -6 18 177 14 212 -2 17 -7 -24
-11 -89z"/>
<path d="M3677 1772 c6 -239 10 -247 12 -20 0 103 -3 189 -7 192 -5 3 -7 -74
-5 -172z"/>
<path d="M3714 1315 c0 -71 1 -99 3 -62 2 37 2 96 0 130 -2 34 -3 4 -3 -68z"/>
<path d="M3804 1760 c0 -69 1 -97 3 -62 2 34 2 90 0 125 -2 34 -3 6 -3 -63z"/>
<path d="M4203 1800 c0 -47 2 -66 4 -42 2 23 2 61 0 85 -2 23 -4 4 -4 -43z"/>
<path d="M4224 1425 c0 -49 1 -71 3 -48 2 23 2 64 0 90 -2 26 -3 8 -3 -42z"/>
<path d="M4313 1710 c-1 -52 2 -135 6 -185 l8 -90 0 80 c0 44 -3 127 -7 185
l-7 105 0 -95z"/>
<path d="M6076 1595 c-3 -9 -5 -76 -4 -148 l2 -132 5 145 c4 80 5 146 5 148
-1 2 -4 -4 -8 -13z"/>
<path d="M6074 975 c0 -55 1 -76 3 -47 2 29 2 74 0 100 -2 26 -3 2 -3 -53z"/>
<path d="M6053 930 c0 -25 2 -35 4 -22 2 12 2 32 0 45 -2 12 -4 2 -4 -23z"/>
<path d="M6184 1540 c0 -85 2 -120 3 -77 2 42 2 112 0 155 -1 42 -3 7 -3 -78z"/>
<path d="M6193 950 c0 -30 2 -43 4 -27 2 15 2 39 0 55 -2 15 -4 2 -4 -28z"/>
</g>
</svg>
