<?xml version="1.0" standalone="no"?>
<!DOCTYPE svg PUBLIC "-//W3C//DTD SVG 20010904//EN"
 "http://www.w3.org/TR/2001/REC-SVG-20010904/DTD/svg10.dtd">
<svg version="1.0" xmlns="http://www.w3.org/2000/svg"
 width="1024.000000pt" height="559.000000pt" viewBox="0 0 1024.000000 559.000000"
 preserveAspectRatio="xMidYMid meet">
<metadata>
Created by potrace 1.16, written by Peter Selinger 2001-2019
</metadata>
<g transform="translate(0.000000,559.000000) scale(0.100000,-0.100000)"
fill="#000000" stroke="none">
<path d="M5368 5008 c-114 -133 -210 -333 -272 -566 l-23 -87 -17 60 c-37 128
-89 247 -149 337 -44 65 -68 93 -82 93 -27 0 -25 -37 8 -192 30 -134 62 -344
73 -469 l6 -82 -24 5 c-15 3 -30 -2 -42 -16 -16 -18 -17 -28 -6 -133 32 -296
-47 -503 -244 -642 -33 -24 -144 -87 -246 -141 -228 -120 -329 -187 -437 -289
-136 -128 -241 -290 -307 -473 -100 -281 -92 -594 23 -848 111 -245 353 -447
606 -506 28 -6 70 -24 95 -40 103 -64 249 -109 354 -109 l40 0 -32 -33 c-18
-18 -32 -38 -32 -44 0 -31 66 -44 140 -28 24 5 28 2 34 -19 10 -41 39 -50 90
-28 l44 20 25 -25 c45 -46 139 -47 200 -2 27 20 33 21 61 9 17 -7 53 -15 79
-17 51 -5 73 6 87 43 7 19 14 21 58 16 63 -6 84 6 107 62 18 44 19 45 84 57
80 15 181 55 241 95 25 16 77 38 115 47 244 62 462 245 577 482 113 237 135
494 64 765 -60 229 -168 413 -339 577 -105 100 -208 168 -435 287 -216 113
-299 170 -352 240 -89 117 -116 225 -105 422 6 114 4 133 -10 148 -9 9 -23 16
-32 16 -11 0 -13 7 -8 33 31 154 92 321 181 498 35 69 64 133 64 143 0 32 -46
16 -112 -38 -66 -55 -128 -128 -187 -221 l-32 -50 7 45 c18 128 47 248 128
524 33 111 33 126 2 126 -16 0 -38 -16 -68 -52z m16 -85 c-7 -27 -22 -77 -33
-113 -47 -149 -101 -425 -101 -515 0 -17 -18 -78 -39 -136 -22 -57 -45 -132
-52 -166 -7 -35 -17 -63 -21 -63 -4 0 -8 6 -8 13 0 7 -14 27 -30 44 -26 27
-30 37 -26 70 3 21 11 79 17 128 24 193 104 454 190 614 36 68 104 171 113
171 2 0 -3 -21 -10 -47z m-472 -260 c45 -86 91 -213 118 -328 20 -83 21 -98 9
-197 -6 -60 -14 -108 -16 -108 -3 0 -18 8 -34 17 -32 19 -28 4 -54 247 -16
150 -47 344 -64 404 -15 52 2 37 41 -35z m577 -188 c-67 -140 -119 -290 -144
-416 l-17 -86 -71 -46 c-39 -26 -72 -45 -74 -43 -6 5 26 135 54 221 52 161
168 359 268 459 19 20 37 36 40 36 2 0 -23 -56 -56 -125z m-566 -435 c14 -11
50 -32 80 -45 66 -30 83 -48 107 -112 l19 -50 -33 -32 c-49 -47 -63 -90 -76
-236 -23 -261 -63 -392 -195 -635 -129 -236 -179 -344 -225 -480 -99 -298
-122 -588 -69 -885 42 -231 142 -450 258 -559 38 -36 31 -49 -23 -41 -283 45
-512 265 -626 603 -34 99 -41 89 -9 -14 41 -136 130 -289 225 -390 72 -75 196
-157 279 -184 65 -20 60 -27 -12 -18 -238 30 -444 193 -565 445 -112 233 -141
507 -84 779 42 199 174 438 335 608 31 32 108 102 171 155 181 151 227 195
294 275 80 96 129 196 155 319 23 105 27 167 6 77 -58 -243 -147 -366 -435
-605 -229 -190 -350 -330 -451 -520 -106 -201 -144 -374 -136 -625 6 -182 27
-286 87 -430 17 -41 34 -84 37 -94 7 -21 116 -171 133 -181 5 -3 15 -15 21
-26 10 -20 10 -20 -22 -4 -140 73 -312 264 -394 437 -61 129 -86 236 -95 398
l-8 145 3 -155 c2 -134 6 -167 29 -244 67 -223 196 -411 370 -538 46 -33 41
-36 -13 -8 -73 37 -202 142 -262 214 -75 87 -158 255 -191 381 -19 75 -23 115
-23 245 0 135 4 169 27 260 81 319 253 559 525 733 40 26 135 79 210 118 173
90 246 133 303 177 74 58 76 59 40 13 -19 -24 -73 -77 -120 -117 -134 -113
-139 -118 -75 -75 154 105 238 197 306 336 27 55 58 138 70 185 20 76 21 103
16 253 -3 92 -2 167 2 167 5 0 20 -9 34 -20z m474 -122 c-42 -241 16 -456 159
-587 70 -64 140 -107 349 -216 72 -38 173 -96 226 -130 447 -290 645 -873 459
-1354 -74 -190 -237 -372 -418 -465 -41 -21 -53 -15 -17 8 92 60 224 214 280
326 35 70 29 64 -36 -35 -90 -139 -205 -254 -324 -326 l-40 -23 46 54 c122
146 190 292 235 505 25 121 24 371 -4 495 -73 336 -238 578 -587 861 -329 268
-424 436 -425 760 l0 115 43 21 c56 29 60 28 54 -9z m-70 -440 c62 -178 149
-288 387 -487 331 -277 484 -499 558 -814 31 -134 31 -392 0 -525 -46 -191
-123 -346 -232 -465 -128 -139 -265 -211 -440 -231 -45 -5 -51 -4 -30 5 160
71 213 103 289 175 44 41 101 104 126 140 90 125 170 320 180 433 l5 56 -11
-45 c-45 -193 -113 -342 -219 -473 -102 -127 -251 -231 -386 -270 l-51 -15 82
81 c50 50 96 108 118 148 50 90 46 100 -6 14 -74 -121 -205 -245 -260 -245
-15 0 -10 10 26 50 127 141 206 321 254 573 21 113 24 422 4 542 -43 270 -124
487 -293 783 -148 262 -198 422 -219 697 -5 76 -13 142 -16 145 -8 8 6 -240
22 -355 7 -55 23 -138 35 -183 21 -79 44 -127 242 -513 105 -204 162 -383 192
-607 66 -474 -83 -965 -343 -1131 -43 -28 -131 -65 -131 -56 0 2 11 20 25 40
77 114 158 437 153 612 -2 66 -2 66 -5 13 -18 -293 -138 -656 -223 -675 -34
-7 -88 2 -108 18 -18 14 -90 158 -114 227 -18 52 -47 170 -67 275 -10 49 -10
49 -5 -15 11 -136 63 -307 129 -427 40 -73 35 -76 -53 -33 -143 72 -267 249
-338 482 -33 110 -64 320 -64 440 0 194 45 436 116 628 45 121 57 147 175 365
158 292 196 409 225 694 l17 166 36 38 c20 22 68 63 106 92 l70 53 6 -166 c6
-151 9 -176 36 -254z m-416 -2572 c58 -33 150 -56 220 -56 62 0 166 28 216 59
26 16 38 18 65 10 18 -5 54 -9 80 -9 45 0 48 -2 48 -25 0 -31 -14 -37 -88 -39
-54 -1 -58 -3 -71 -33 -16 -36 -39 -42 -82 -19 -56 29 -78 28 -127 -4 -64 -42
-106 -41 -155 5 -40 38 -56 39 -105 8 -13 -8 -25 -13 -26 -11 -1 2 -6 17 -12
33 -8 26 -15 30 -44 30 -19 -1 -50 -4 -67 -9 -18 -4 -33 -4 -33 1 1 19 54 66
83 73 49 12 52 12 98 -14z"/>
<path d="M4954 3795 c0 -60 1 -84 3 -52 2 32 2 81 0 110 -2 29 -3 3 -3 -58z"/>
<path d="M4839 3193 c-22 -46 -98 -180 -141 -250 -11 -18 -17 -33 -14 -33 13
0 151 240 176 306 16 41 3 27 -21 -23z"/>
<path d="M4214 2947 c-109 -67 -173 -118 -250 -198 -81 -86 -101 -112 -143
-195 -42 -84 -39 -94 5 -15 84 151 195 266 369 381 44 29 84 57 90 62 21 18
-5 6 -71 -35z"/>
<path d="M4396 2768 c-98 -108 -151 -183 -200 -283 -43 -88 -96 -234 -96 -265
0 -8 14 26 31 75 57 169 150 324 283 473 53 59 62 72 52 72 -3 0 -34 -33 -70
-72z"/>
<path d="M4487 2503 c-78 -236 -112 -507 -89 -693 9 -68 10 -58 11 103 1 232
34 445 96 616 8 24 13 46 11 48 -2 2 -15 -31 -29 -74z"/>
<path d="M3860 1601 c0 -6 4 -13 10 -16 6 -3 7 1 4 9 -7 18 -14 21 -14 7z"/>
<path d="M5851 3038 c14 -13 62 -51 106 -85 44 -35 113 -95 153 -135 66 -66
69 -68 30 -20 -55 68 -133 136 -235 207 -44 31 -68 46 -54 33z"/>
<path d="M6420 2540 c0 -3 16 -43 35 -88 85 -203 113 -416 80 -617 -16 -99
-17 -111 -10 -103 3 2 12 42 21 89 32 166 14 387 -46 549 -24 68 -78 183 -80
170z"/>
<path d="M6286 2517 c3 -10 9 -15 12 -12 3 3 0 11 -7 18 -10 9 -11 8 -5 -6z"/>
<path d="M6311 2470 c0 -3 13 -45 29 -94 91 -272 100 -537 26 -781 -8 -27 -13
-51 -11 -53 7 -7 53 162 64 235 23 154 9 327 -41 507 -25 92 -65 202 -67 186z"/>
<path d="M6336 1513 c-6 -14 -5 -15 5 -6 7 7 10 15 7 18 -3 3 -9 -2 -12 -12z"/>
<path d="M5012 2967 c-6 -17 -31 -93 -57 -167 -70 -202 -117 -453 -114 -597 1
-28 7 2 15 74 19 177 59 356 121 546 30 93 53 171 50 173 -2 2 -9 -11 -15 -29z"/>
<path d="M5830 2776 c0 -3 23 -36 51 -73 114 -153 191 -314 240 -500 16 -63
30 -124 30 -136 1 -17 2 -18 6 -5 6 24 -24 165 -54 258 -33 101 -81 199 -140
290 -45 68 -133 178 -133 166z"/>
<path d="M5435 2535 c76 -263 99 -413 99 -660 0 -217 -8 -289 -54 -465 -10
-41 -17 -76 -15 -78 5 -5 34 98 57 203 29 131 36 453 14 608 -18 126 -66 325
-90 378 -9 19 -14 25 -11 14z"/>
<path d="M5791 2284 c0 -11 3 -14 6 -6 3 7 2 16 -1 19 -3 4 -6 -2 -5 -13z"/>
<path d="M5800 2253 c0 -6 7 -46 15 -89 17 -92 34 -258 37 -353 1 -60 2 -62 6
-16 5 68 -15 294 -34 385 -14 69 -24 99 -24 73z"/>
<path d="M4700 2227 c0 -4 -6 -51 -14 -105 -33 -228 -29 -399 14 -607 21 -100
67 -244 94 -290 9 -16 14 -21 11 -10 -4 11 -22 64 -41 118 -56 165 -76 282
-81 472 -3 120 0 207 11 294 8 69 13 127 11 130 -3 2 -5 1 -5 -2z"/>
<path d="M6172 1795 c0 -16 2 -22 5 -12 2 9 2 23 0 30 -3 6 -5 -1 -5 -18z"/>
<path d="M5842 1700 c-1 -25 -7 -74 -12 -109 -6 -35 -9 -65 -6 -68 8 -8 27
135 23 178 l-4 44 -1 -45z"/>
<path d="M5811 1494 c0 -11 3 -14 6 -6 3 7 2 16 -1 19 -3 4 -6 -2 -5 -13z"/>
</g>
</svg>
