<?xml version="1.0" standalone="no"?>
<!DOCTYPE svg PUBLIC "-//W3C//DTD SVG 20010904//EN"
 "http://www.w3.org/TR/2001/REC-SVG-20010904/DTD/svg10.dtd">
<svg version="1.0" xmlns="http://www.w3.org/2000/svg"
 width="1024.000000pt" height="559.000000pt" viewBox="0 0 1024.000000 559.000000"
 preserveAspectRatio="xMidYMid meet">
<metadata>
Created by potrace 1.16, written by Peter Selinger 2001-2019
</metadata>
<g transform="translate(0.000000,559.000000) scale(0.100000,-0.100000)"
fill="#000000" stroke="none">
<path d="M6565 5023 c-16 -8 -54 -38 -83 -66 l-52 -51 2 42 c3 84 -50 87 -101
7 -16 -26 -39 -79 -51 -118 -41 -141 -44 -144 -50 -40 -8 138 -46 163 -97 64
-12 -23 -24 -37 -28 -31 -10 17 -44 11 -55 -9 -5 -11 -10 -40 -10 -65 l0 -45
-34 6 c-28 4 -36 1 -46 -16 -20 -38 -23 -113 -6 -184 17 -72 21 -175 8 -217
-5 -17 -9 1 -12 60 -4 76 -7 86 -28 95 -14 6 -26 24 -32 46 -12 43 -41 72 -63
63 -26 -9 -40 -68 -32 -134 7 -56 6 -60 -14 -60 -36 0 -36 -40 0 -126 40 -98
45 -184 13 -254 -24 -51 -226 -381 -231 -376 -2 2 8 54 23 116 22 93 33 122
70 173 100 143 128 211 99 240 -20 20 -56 8 -99 -31 l-28 -27 7 25 c4 14 25
64 46 113 54 120 66 169 51 201 -20 44 -64 26 -100 -39 -18 -32 -15 1 8 83 22
80 27 191 8 210 -21 21 -48 13 -66 -18 -9 -16 -19 -30 -22 -30 -3 0 -13 26
-22 58 -17 58 -57 112 -83 112 -22 0 -35 -34 -35 -93 l0 -55 -29 11 c-70 26
-79 -20 -22 -114 21 -35 38 -65 36 -67 -1 -1 -15 4 -31 13 -38 20 -80 19 -88
-1 -8 -22 32 -90 80 -134 46 -43 94 -117 94 -144 0 -17 -5 -13 -21 14 -27 45
-48 62 -71 54 -11 -3 -32 6 -57 26 -66 53 -106 17 -66 -59 13 -27 13 -29 -6
-34 -15 -4 -20 -12 -17 -32 3 -28 14 -36 111 -82 52 -24 115 -79 104 -90 -3
-2 -23 5 -45 17 -90 47 -148 33 -122 -30 9 -21 40 -48 96 -86 46 -30 92 -67
101 -81 33 -50 18 -153 -45 -315 -27 -71 -33 -75 -79 -57 -144 55 -313 11
-426 -111 -118 -128 -211 -291 -549 -970 -512 -1031 -729 -1532 -745 -1726 -5
-54 -3 -64 17 -84 53 -53 137 7 459 324 596 589 1159 1240 1458 1686 196 292
217 513 67 696 l-34 41 20 26 c28 36 164 143 211 167 51 27 95 25 149 -5 146
-83 200 -93 200 -37 0 35 -21 65 -66 92 -19 12 -33 24 -30 27 10 10 83 -21
136 -58 67 -47 110 -52 110 -13 0 15 4 23 11 19 21 -14 59 5 59 29 0 29 -19
46 -95 84 -74 38 -54 40 77 6 111 -28 146 -28 162 -1 9 16 5 24 -28 53 -44 38
-41 40 33 18 28 -8 73 -14 99 -12 42 3 47 6 50 29 3 22 -4 31 -35 50 l-38 24
44 7 c55 9 127 44 135 65 4 10 -1 25 -14 37 -18 18 -33 21 -110 21 -50 0 -90
1 -90 3 0 1 7 14 16 27 43 65 -30 74 -127 16 -35 -21 -65 -38 -67 -36 -2 2 1
12 7 23 27 50 0 83 -52 63 -26 -10 -82 -63 -125 -119 -30 -40 -38 -35 -22 12
15 47 6 76 -26 76 -34 0 -63 -32 -119 -129 -26 -44 -50 -81 -53 -81 -2 0 -2
18 2 39 4 29 2 44 -10 55 -39 39 -67 3 -152 -195 -16 -38 -38 -60 -121 -123
-55 -42 -101 -73 -101 -69 0 3 32 59 72 122 232 374 255 394 501 421 54 5 112
17 128 25 29 16 38 42 19 61 -8 8 3 18 36 35 60 31 93 72 74 94 -15 18 -58 19
-112 3 -35 -10 -41 -10 -50 5 -15 28 -52 19 -114 -26 -85 -62 -88 -64 -74 -37
14 27 90 81 136 97 19 7 62 15 97 18 87 9 173 34 192 55 28 31 14 58 -39 75
-15 4 -17 8 -8 17 7 7 12 22 12 35 0 34 -40 40 -103 16 -94 -36 -94 -36 -62
-9 17 15 80 51 140 82 116 58 165 99 165 138 0 36 -56 48 -115 26 -23 -9 -19
-1 29 57 91 109 120 190 77 213 -25 13 -30 12 -66 -7z m50 -45 c-13 -42 -53
-102 -119 -178 -92 -105 -89 -116 20 -79 35 12 71 19 80 15 30 -11 -19 -50
-147 -116 -212 -110 -282 -232 -84 -146 111 48 133 48 75 -1 -16 -13 -30 -28
-30 -33 0 -4 20 -10 45 -13 26 -2 49 -8 53 -12 10 -10 -27 -34 -62 -40 -235
-38 -250 -42 -310 -92 -95 -79 -119 -176 -33 -132 12 7 52 34 88 60 73 54 85
59 69 30 -5 -11 -10 -22 -10 -25 0 -12 36 -6 88 14 115 44 124 16 12 -37 -44
-21 -80 -41 -80 -46 0 -4 11 -12 25 -17 58 -22 17 -36 -168 -59 -149 -18 -214
-61 -316 -211 -75 -110 -233 -365 -266 -430 -28 -54 -32 -57 -61 -36 -18 14
-18 16 23 73 60 82 247 380 295 470 34 63 42 87 46 147 4 64 1 81 -27 146 -17
41 -31 80 -31 87 0 18 15 16 30 -2 24 -29 30 0 16 75 -16 83 -9 162 11 125 6
-11 14 -38 17 -60 4 -22 11 -47 16 -55 8 -13 11 -12 24 5 14 18 15 12 16 -77
0 -99 8 -120 36 -97 44 36 61 138 40 239 -9 41 -16 105 -16 142 0 105 25 100
56 -11 23 -82 32 -61 33 79 1 111 13 158 27 104 11 -40 11 -252 0 -293 -15
-59 10 -26 27 36 10 37 16 92 15 153 -1 68 3 110 16 148 31 92 46 62 46 -95 0
-85 3 -103 15 -103 24 0 52 55 90 175 24 77 44 121 65 145 l31 35 -7 -60 c-10
-93 -10 -100 3 -100 7 0 33 24 57 54 81 99 178 158 161 99z m-1126 -256 c10
-21 27 -72 37 -115 10 -42 23 -77 30 -77 6 0 21 27 33 60 12 33 26 60 32 60
15 0 10 -92 -10 -171 -27 -102 -35 -173 -23 -195 9 -17 12 -15 29 15 10 18 32
52 48 75 l30 41 3 -31 c2 -19 -12 -64 -37 -122 -51 -117 -75 -197 -66 -229 6
-26 7 -26 65 32 98 97 95 47 -4 -99 -67 -97 -86 -140 -106 -241 -17 -84 -65
-257 -79 -283 -11 -21 -31 -29 -43 -17 -3 3 10 43 28 88 34 84 64 205 64 256
0 56 -40 109 -130 169 -88 59 -118 99 -63 83 15 -5 57 -23 92 -40 75 -39 92
-32 63 26 -29 55 -97 115 -164 142 -61 25 -76 45 -30 39 33 -3 32 8 -5 63 -36
55 -21 61 30 11 46 -46 64 -52 69 -25 2 13 11 4 31 -29 28 -48 64 -81 79 -72
13 8 9 67 -8 118 -11 31 -40 73 -90 127 -101 110 -100 128 4 59 33 -22 62 -40
66 -40 19 0 0 55 -44 125 -65 104 -67 136 -5 75 24 -24 48 -41 52 -37 3 4 1
36 -5 71 -23 122 -11 162 27 88z m886 -739 c-10 -16 -29 -44 -42 -63 -48 -72
-15 -68 111 15 101 67 135 80 117 48 -5 -10 -21 -29 -35 -42 -27 -26 -35 -57
-13 -48 37 14 167 29 199 23 82 -15 50 -39 -85 -64 -50 -10 -92 -22 -94 -28
-2 -6 21 -21 51 -34 64 -25 91 -50 57 -50 -12 0 -63 9 -113 20 -93 21 -164 23
-162 5 1 -5 31 -28 68 -50 58 -35 64 -40 41 -43 -13 -2 -64 6 -112 18 -91 23
-174 23 -196 1 -14 -15 -3 -23 93 -63 35 -15 71 -35 79 -43 14 -13 11 -15 -23
-15 -36 0 -38 -2 -32 -25 8 -33 3 -32 -54 10 -66 49 -110 65 -175 65 -72 0
-70 -12 14 -76 112 -85 89 -100 -46 -29 -147 78 -218 58 -391 -109 -66 -63
-74 -68 -88 -54 -14 14 -9 21 51 74 36 32 107 89 157 126 103 76 121 100 167
215 32 80 61 123 61 91 0 -8 -5 -40 -11 -72 -9 -42 -9 -60 -1 -68 16 -16 72
48 116 131 19 36 48 82 65 101 25 29 30 32 31 15 0 -11 -10 -48 -22 -82 -18
-49 -20 -65 -11 -74 13 -13 45 17 158 144 28 31 59 57 69 57 18 0 18 -1 1 -27z
m-1051 -563 c193 -66 338 -220 353 -373 10 -112 -24 -220 -121 -379 -165 -272
-622 -838 -998 -1235 l-59 -63 -37 19 c-20 10 -71 44 -112 74 -41 30 -77 53
-80 51 -8 -9 104 -103 157 -131 29 -15 53 -31 53 -35 0 -14 -610 -618 -682
-675 -133 -105 -153 -98 -120 39 20 79 133 392 147 407 3 2 20 -9 38 -26 33
-32 95 -68 103 -60 3 3 -17 21 -43 40 -92 68 -91 63 -48 164 122 284 451 973
465 973 4 0 69 -41 146 -90 124 -81 134 -86 89 -44 -27 26 -88 72 -135 102
-47 31 -87 57 -88 58 -5 3 309 633 362 727 21 38 45 71 52 74 21 8 188 -79
283 -147 46 -34 85 -59 88 -57 16 16 -214 173 -312 213 -25 11 -45 22 -45 27
0 12 79 135 127 199 111 146 264 201 417 148z"/>
<path d="M6359 4721 c-8 -10 -59 -79 -115 -152 -154 -204 -374 -541 -374 -573
0 -6 76 102 168 239 164 244 269 396 320 463 14 18 23 35 20 38 -3 2 -11 -4
-19 -15z"/>
<path d="M5510 4459 c0 -13 7 -87 15 -164 8 -77 15 -210 16 -295 1 -139 2
-148 11 -90 12 85 3 342 -17 466 -16 98 -25 129 -25 83z"/>
<path d="M6341 3824 c-107 -28 -194 -61 -296 -112 -87 -43 -188 -103 -182
-108 2 -3 78 32 167 76 152 74 225 102 373 144 31 9 57 19 57 21 0 9 -23 5
-119 -21z"/>
<path d="M5086 3329 c-43 -23 -117 -94 -136 -130 -8 -14 11 -1 47 32 63 60
119 94 180 108 l38 9 -45 1 c-27 0 -60 -8 -84 -20z"/>
<path d="M5549 2868 c-40 -100 -200 -344 -369 -563 -42 -55 -85 -113 -94 -130
-28 -48 51 42 157 178 161 206 272 385 313 501 17 48 12 59 -7 14z"/>
<path d="M4693 2758 c-63 -106 -145 -268 -177 -348 -28 -71 -4 -35 69 105 38
72 90 170 116 218 46 85 65 127 56 127 -2 0 -31 -46 -64 -102z"/>
<path d="M4304 1983 c-59 -90 -331 -659 -320 -670 2 -2 81 152 175 343 158
320 193 400 145 327z"/>
<path d="M4833 1878 c-153 -175 -196 -228 -191 -233 5 -5 134 132 203 215 44
52 98 130 91 130 -3 0 -49 -51 -103 -112z"/>
</g>
</svg>
