<?xml version="1.0" standalone="no"?>
<!DOCTYPE svg PUBLIC "-//W3C//DTD SVG 20010904//EN"
 "http://www.w3.org/TR/2001/REC-SVG-20010904/DTD/svg10.dtd">
<svg version="1.0" xmlns="http://www.w3.org/2000/svg"
 width="1024.000000pt" height="559.000000pt" viewBox="0 0 1024.000000 559.000000"
 preserveAspectRatio="xMidYMid meet">
<metadata>
Created by potrace 1.16, written by Peter Selinger 2001-2019
</metadata>
<g transform="translate(0.000000,559.000000) scale(0.100000,-0.100000)"
fill="#000000" stroke="none">
<path d="M5334 5051 c-73 -45 -191 -257 -241 -434 -15 -53 -30 -97 -34 -97 -4
0 -10 9 -14 20 -11 34 -102 166 -130 188 -31 24 -65 28 -83 10 -20 -20 -13
-86 24 -227 30 -112 64 -274 64 -303 0 -4 -13 -5 -29 -2 -16 3 -31 1 -35 -4
-3 -6 -1 -42 6 -81 9 -54 9 -89 1 -149 -25 -172 -121 -291 -303 -379 -58 -28
-161 -78 -230 -111 -279 -135 -496 -335 -636 -585 -345 -619 -159 -1395 432
-1797 170 -116 396 -217 604 -270 121 -32 120 -30 68 -81 -24 -24 -55 -51 -68
-60 -38 -25 -20 -49 35 -49 48 0 105 24 163 67 31 23 32 23 32 4 0 -12 -9 -48
-21 -82 -25 -71 -17 -92 26 -69 27 14 101 91 122 126 10 17 12 16 28 -21 10
-22 23 -62 29 -90 9 -39 16 -50 31 -50 25 0 54 78 55 145 l0 45 20 -25 c11
-14 33 -51 50 -83 48 -88 70 -76 70 40 0 62 1 65 18 51 55 -49 168 -75 179
-41 2 6 -14 28 -36 49 -50 46 -86 103 -68 108 134 37 248 75 326 108 500 214
801 561 906 1048 22 104 30 318 16 421 -44 315 -166 570 -375 788 -143 148
-275 236 -536 356 -85 39 -180 88 -210 107 -162 104 -241 284 -211 477 6 45 9
86 5 92 -4 7 -21 9 -41 6 l-35 -6 7 87 c13 171 36 307 100 602 32 144 1 201
-81 151z m46 -68 c0 -20 -16 -106 -35 -192 -45 -204 -64 -327 -74 -485 -5 -86
-12 -131 -20 -134 -6 -2 -25 -15 -42 -29 -16 -14 -31 -24 -33 -22 -1 2 -9 38
-16 79 -7 41 -23 108 -36 148 -30 92 -30 106 5 227 33 117 69 204 118 294 36
64 107 151 124 151 5 0 9 -16 9 -37z m-468 -322 c87 -102 168 -290 208 -485
18 -91 19 -101 4 -117 -15 -16 -19 -14 -75 42 -32 32 -63 59 -68 59 -6 0 -13
21 -16 48 -14 101 -37 210 -70 337 -19 72 -35 137 -35 143 0 22 18 12 52 -27z
m423 -613 c0 -146 15 -206 76 -296 69 -104 146 -154 474 -307 519 -244 819
-745 783 -1309 -20 -316 -152 -601 -388 -836 -158 -157 -342 -272 -584 -364
-66 -25 -121 -44 -123 -43 -1 2 39 25 90 52 421 221 690 548 781 950 60 264
46 548 -40 804 -100 301 -272 508 -590 713 -166 107 -149 82 31 -47 353 -251
518 -498 592 -880 24 -127 24 -398 -1 -520 -75 -378 -277 -674 -611 -897 -80
-53 -376 -208 -399 -208 -4 0 46 36 112 80 264 177 440 367 555 602 222 453
189 977 -91 1432 -75 122 -168 229 -387 446 -204 203 -260 276 -299 392 -23
67 -26 93 -26 208 0 126 1 131 23 140 12 5 22 9 22 9 0 1 0 -54 0 -121z m-381
33 c6 -51 -7 -208 -23 -258 -15 -51 -60 -134 -100 -188 -21 -27 -130 -142
-243 -255 -259 -259 -352 -381 -445 -585 -111 -242 -158 -499 -135 -735 32
-326 134 -573 331 -807 92 -108 264 -251 447 -370 18 -12 18 -12 -1 -6 -54 16
-251 116 -338 171 -235 148 -398 320 -511 542 -174 342 -201 718 -79 1095 88
271 244 468 538 679 168 121 193 142 120 101 -151 -85 -349 -238 -430 -332
-178 -205 -275 -432 -315 -730 -16 -115 -8 -359 15 -463 58 -264 169 -477 347
-665 133 -140 269 -240 458 -335 44 -22 80 -42 80 -45 0 -10 -221 75 -310 120
-411 207 -657 510 -763 940 -19 78 -22 116 -21 280 0 160 4 205 22 284 59 247
176 461 349 636 132 133 235 201 508 336 261 128 308 161 374 260 60 89 83
172 82 296 0 97 1 102 19 91 11 -7 20 -28 24 -57z m310 -18 c-12 -142 25 -291
102 -410 21 -32 133 -152 249 -268 208 -208 308 -324 377 -440 97 -161 173
-363 203 -539 20 -116 20 -356 0 -472 -43 -247 -141 -461 -298 -650 -77 -92
-98 -113 -206 -202 -124 -103 -386 -266 -417 -260 -13 2 -2 20 44 70 278 307
420 663 452 1134 11 159 1 345 -25 493 -42 242 -124 436 -303 726 -181 292
-232 451 -232 722 0 121 0 121 28 142 15 11 28 21 30 21 1 0 -1 -30 -4 -67z
m-241 2 c51 -50 52 -62 12 -139 -38 -73 -42 -94 -22 -102 12 -4 12 -17 1 -82
-29 -162 -67 -251 -210 -487 -199 -327 -279 -533 -320 -815 -20 -144 -15 -493
11 -640 66 -380 199 -660 439 -919 31 -34 46 -56 38 -59 -17 -5 -204 100 -306
173 -370 264 -573 585 -627 993 -15 110 -6 373 15 468 37 168 114 360 198 493
78 125 170 232 386 449 234 234 275 288 314 416 15 51 21 98 22 177 1 60 4
109 7 109 3 0 22 -16 42 -35z m191 -390 c34 -136 86 -245 233 -483 219 -356
303 -642 303 -1037 0 -514 -161 -947 -474 -1272 -62 -66 -73 -73 -108 -73
l-38 0 0 578 c0 648 -5 597 80 797 50 119 80 210 79 239 0 11 -9 -6 -19 -38
-10 -33 -45 -119 -77 -193 l-58 -134 -3 967 -2 967 27 36 28 36 6 -160 c4 -95
13 -189 23 -230z m-104 -1290 l0 -1575 -38 0 c-33 0 -45 7 -93 58 -274 282
-427 621 -475 1052 -28 248 -12 496 45 721 47 187 123 352 284 614 137 223
195 371 213 545 4 41 16 82 33 112 14 27 27 48 29 48 1 0 2 -709 2 -1575z
m324 -1630 c15 -25 26 -48 24 -51 -6 -6 -98 75 -98 87 0 5 10 9 23 9 15 0 31
-14 51 -45z m-506 27 c15 -10 -16 -41 -65 -66 -46 -23 -46 -21 -10 28 32 44
50 53 75 38z m387 -52 c9 -28 15 -55 13 -60 -2 -5 -22 15 -45 44 -40 52 -41
55 -20 59 12 2 25 5 29 6 3 0 14 -22 23 -49z m-253 16 c-4 -23 -49 -96 -60
-96 -4 0 -5 27 -4 61 l4 60 31 -3 c25 -2 31 -7 29 -22z m118 -26 c3 -19 3 -48
0 -65 -6 -29 -7 -28 -24 25 -11 30 -21 61 -24 68 -3 10 2 13 19 10 18 -2 25
-11 29 -38z"/>
<path d="M6500 2688 c0 -3 11 -48 24 -100 39 -149 50 -234 50 -373 0 -222 -45
-400 -155 -619 -33 -65 -53 -114 -46 -108 26 22 128 231 157 323 78 242 83
496 15 759 -14 54 -44 133 -45 118z"/>
<path d="M3645 2175 c3 -155 19 -250 66 -387 40 -115 117 -257 189 -348 30
-38 24 -14 -9 33 -51 75 -128 229 -161 321 -44 128 -69 255 -80 403 l-9 128 4
-150z"/>
<path d="M5994 2122 c0 -199 -3 -227 -27 -332 -55 -237 -153 -434 -324 -650
-16 -19 -20 -29 -11 -22 33 27 130 152 177 230 26 44 67 125 91 179 23 54 51
115 61 136 11 21 17 42 14 46 -2 5 5 55 17 112 17 83 21 141 21 289 0 102 -4
195 -9 207 -6 14 -9 -57 -10 -195z"/>
<path d="M6075 1918 c-4 -13 -27 -63 -52 -112 -47 -96 -52 -127 -7 -50 30 50
77 174 70 181 -2 3 -7 -6 -11 -19z"/>
<path d="M4231 2019 c-2 -83 35 -279 74 -396 38 -113 85 -211 149 -311 50 -79
156 -206 164 -197 3 3 -8 20 -24 38 -113 121 -232 336 -287 517 -36 118 -47
168 -62 295 -10 88 -13 99 -14 54z"/>
<path d="M5324 3036 c19 -54 57 -203 76 -296 25 -127 32 -145 24 -65 -10 107
-72 346 -97 370 -7 7 -8 4 -3 -9z"/>
<path d="M5452 2095 c-1 -11 -7 -81 -12 -155 -27 -348 -78 -599 -184 -904 -31
-88 -54 -161 -52 -163 6 -6 70 153 104 257 17 52 46 159 65 236 38 152 43 165
92 234 37 52 85 143 85 162 0 7 -13 -9 -28 -37 -15 -27 -45 -75 -66 -105 l-39
-55 6 45 c19 131 38 375 34 436 -1 38 -4 60 -5 49z"/>
<path d="M4935 3088 c-2 -7 -12 -40 -23 -73 -26 -78 -56 -197 -78 -309 -20
-103 -26 -97 -44 44 -14 111 -32 167 -25 75 3 -33 13 -107 22 -163 14 -90 15
-123 5 -245 -7 -78 -12 -208 -12 -288 0 -138 24 -451 36 -470 3 -5 2 -9 -3 -9
-13 1 -120 154 -154 220 -17 33 -32 60 -34 60 -2 0 2 -19 11 -42 17 -50 61
-122 115 -191 55 -70 74 -110 89 -192 31 -177 100 -411 170 -580 46 -108 49
-81 5 36 -138 359 -202 690 -212 1094 -8 330 21 574 105 898 22 81 37 147 35
147 -2 0 -5 -6 -8 -12z"/>
</g>
</svg>
