<?xml version="1.0" standalone="no"?>
<!DOCTYPE svg PUBLIC "-//W3C//DTD SVG 20010904//EN"
 "http://www.w3.org/TR/2001/REC-SVG-20010904/DTD/svg10.dtd">
<svg version="1.0" xmlns="http://www.w3.org/2000/svg"
 width="1024.000000pt" height="559.000000pt" viewBox="0 0 1024.000000 559.000000"
 preserveAspectRatio="xMidYMid meet">
<metadata>
Created by potrace 1.16, written by Peter Selinger 2001-2019
</metadata>
<g transform="translate(0.000000,559.000000) scale(0.100000,-0.100000)"
fill="#000000" stroke="none">
<path d="M5378 4725 c-32 -18 -56 -56 -98 -158 -31 -75 -37 -82 -174 -206
-246 -223 -424 -421 -578 -642 -198 -283 -363 -613 -468 -934 -18 -55 -34
-101 -35 -103 -1 -1 -28 4 -61 13 -78 20 -244 20 -315 -1 -191 -56 -338 -204
-406 -409 -25 -73 -27 -93 -27 -240 0 -153 1 -164 31 -247 69 -198 195 -342
378 -434 114 -56 209 -78 350 -78 118 0 198 16 292 59 l52 24 36 -74 c88 -185
254 -328 455 -395 170 -57 333 -60 491 -10 235 75 430 268 509 504 21 60 26
67 44 61 50 -15 166 -25 221 -19 330 33 577 251 661 584 24 94 22 273 -4 371
-60 226 -216 395 -412 445 -86 22 -250 15 -334 -15 -33 -12 -65 -21 -72 -21
-41 0 -233 400 -318 665 -72 224 -119 468 -131 688 -7 121 -1 237 13 237 4 0
18 -16 32 -36 13 -20 54 -60 91 -90 l66 -52 6 -105 c15 -242 84 -437 218 -617
147 -198 319 -309 651 -421 173 -58 329 -129 403 -183 54 -39 79 -45 89 -20 8
20 -20 369 -39 494 -19 129 -57 269 -98 367 -166 392 -589 644 -1011 602 -56
-5 -107 -12 -114 -14 -24 -9 -88 33 -148 98 -78 83 -93 116 -71 163 10 19 17
43 17 53 0 29 -39 72 -84 92 -49 22 -72 23 -108 4z m116 -60 c33 -22 32 -38
-5 -105 -46 -82 -60 -126 -69 -223 -28 -288 72 -780 236 -1166 86 -202 211
-420 302 -524 47 -54 50 -63 25 -70 -73 -20 -71 -21 -99 35 -14 29 -66 127
-115 218 -248 465 -378 888 -405 1328 -6 105 -5 116 16 163 24 51 21 71 -8 53
-31 -18 -149 -273 -205 -443 -76 -229 -106 -350 -144 -586 -26 -160 -26 -668
0 -845 21 -144 62 -335 82 -384 14 -32 13 -34 -8 -40 -12 -3 -36 -6 -53 -6
l-31 0 -6 98 c-4 53 -13 142 -22 197 -8 55 -21 166 -30 247 -54 523 45 1133
266 1642 22 50 44 108 48 129 14 59 -9 46 -49 -29 -19 -37 -46 -75 -60 -86
-37 -29 -183 -172 -280 -274 -277 -290 -524 -691 -665 -1079 -56 -154 -103
-320 -113 -400 l-8 -60 -39 3 c-22 2 -42 5 -44 7 -2 3 19 76 48 163 28 87 51
161 51 165 0 17 117 303 165 402 217 451 484 797 897 1162 100 88 128 125 168
226 34 87 56 110 96 104 18 -3 44 -13 58 -22z m77 -265 c37 -47 89 -88 242
-193 47 -32 89 -66 93 -75 4 -9 10 -96 15 -192 7 -166 18 -243 39 -279 8 -14
9 -13 9 4 0 11 -4 40 -10 65 -9 39 -29 379 -23 389 2 1 57 -41 123 -94 144
-117 145 -120 161 -340 12 -159 30 -259 56 -303 l15 -27 -5 25 c-13 58 -36
223 -46 330 -5 63 -13 131 -16 150 l-7 35 79 -75 c43 -41 105 -102 136 -136
l58 -62 20 -133 c20 -132 39 -207 67 -262 26 -52 25 -21 -2 65 -14 45 -30 117
-35 159 -5 41 -12 88 -16 104 -5 19 -3 26 4 21 16 -10 178 -228 262 -353 41
-62 77 -108 78 -103 6 18 -143 246 -266 408 l-25 33 29 -6 c53 -12 118 -39
164 -67 25 -15 59 -34 75 -43 25 -13 23 -10 -14 24 -49 46 -126 85 -196 101
-71 16 -85 26 -177 130 -47 52 -108 115 -137 139 -38 33 -48 47 -39 53 26 17
208 -7 327 -43 77 -23 92 -17 27 11 -80 34 -161 50 -286 58 l-120 7 -110 90
-109 90 57 8 c31 5 111 6 177 4 83 -4 112 -2 95 4 -43 17 -162 24 -254 15
-102 -10 -101 -10 -215 70 -95 67 -95 66 47 79 169 15 389 -38 543 -131 108
-65 236 -186 303 -287 86 -130 131 -243 170 -427 24 -114 64 -520 51 -520 -3
0 -23 11 -44 24 -83 53 -203 107 -341 155 -332 114 -428 167 -576 315 -131
132 -208 259 -257 426 -31 103 -37 140 -46 283 -8 111 -8 111 -41 137 -60 45
-150 133 -170 166 -12 19 -18 39 -13 50 6 16 8 15 22 -6 9 -13 32 -45 52 -70z
m-476 -347 c-174 -477 -237 -1030 -176 -1533 11 -96 23 -187 26 -201 l6 -26
-103 -6 c-57 -4 -112 -9 -123 -12 -18 -5 -23 1 -38 47 -32 101 -126 212 -231
273 -58 33 -169 65 -227 65 -34 0 -47 4 -44 13 2 6 16 50 30 97 117 373 326
752 589 1070 78 94 323 346 330 339 3 -2 -15 -59 -39 -126z m274 -279 c63
-309 150 -555 305 -859 39 -77 72 -143 74 -146 1 -3 -28 -11 -66 -18 -123 -22
-232 -88 -311 -188 -48 -60 -59 -82 -87 -163 l-21 -65 -54 -6 c-30 -4 -66 -10
-80 -14 -27 -7 -27 -6 -42 82 -35 197 -42 283 -42 528 1 249 11 363 50 570 33
171 98 391 165 559 54 136 53 136 66 -4 7 -69 26 -193 43 -276z m969 -995 c82
-27 174 -90 224 -153 84 -105 148 -289 148 -426 0 -74 -27 -209 -55 -279 -67
-163 -181 -287 -336 -364 -145 -72 -277 -92 -414 -63 -50 10 -60 16 -57 32 10
76 2 277 -13 339 -43 171 -141 311 -275 392 -44 27 -180 73 -216 73 -25 0 -26
2 -20 33 10 50 62 148 103 194 79 87 229 159 319 151 37 -3 41 -6 77 -76 l38
-73 -50 7 c-41 5 -51 4 -51 -8 0 -34 112 -56 192 -38 93 22 188 92 188 140 0
35 -21 32 -56 -7 l-34 -38 -55 60 c-30 33 -55 65 -55 71 0 11 115 49 175 58
53 8 158 -4 223 -25z m-2410 -125 c45 -9 82 -20 82 -24 0 -13 -42 -135 -48
-142 -4 -4 -27 8 -51 27 -43 35 -81 46 -81 24 0 -20 74 -82 127 -106 79 -36
230 -31 281 10 27 21 11 29 -43 22 -31 -3 -55 -3 -55 3 0 23 24 128 31 136 13
14 112 7 172 -12 122 -41 226 -129 275 -234 49 -103 49 -103 0 -122 -87 -33
-205 -141 -263 -240 -75 -128 -103 -320 -71 -490 10 -49 14 -92 9 -96 -19 -17
-143 -59 -208 -71 -84 -14 -238 -6 -315 17 -82 24 -198 88 -268 147 -159 133
-246 330 -245 552 1 298 172 537 429 599 79 19 143 19 242 0z m1504 -394 c136
-42 249 -145 314 -287 142 -310 33 -723 -244 -927 -63 -46 -173 -99 -252 -122
-85 -24 -268 -25 -358 -1 -270 72 -461 252 -542 512 -28 89 -37 253 -20 354
26 154 135 308 271 384 91 50 157 67 264 67 l92 0 7 -77 c3 -42 4 -79 1 -81
-3 -3 -29 4 -58 16 -78 33 -100 27 -54 -15 29 -26 89 -49 154 -58 95 -13 228
38 271 102 24 38 -9 39 -62 2 -29 -21 -50 -29 -55 -23 -6 5 -19 42 -30 82 -22
82 -25 78 55 92 67 12 169 4 246 -20z"/>
<path d="M6573 2400 c17 -54 21 -89 21 -200 0 -119 -3 -144 -26 -212 -33 -98
-20 -102 18 -5 51 133 42 389 -17 460 -16 20 -16 16 4 -43z"/>
<path d="M3499 2444 c-98 -93 -150 -225 -148 -379 l2 -90 8 70 c26 204 54 277
149 378 71 76 64 90 -11 21z"/>
<path d="M4534 1988 c-30 -32 -54 -78 -54 -100 0 -7 14 10 31 38 17 27 34 51
38 54 3 3 12 13 20 23 24 30 -4 18 -35 -15z"/>
<path d="M4427 1731 c-29 -134 28 -365 115 -463 28 -31 27 -28 -10 42 -61 115
-83 197 -91 335 -4 88 -8 111 -14 86z"/>
</g>
</svg>
