<?xml version="1.0" standalone="no"?>
<!DOCTYPE svg PUBLIC "-//W3C//DTD SVG 20010904//EN"
 "http://www.w3.org/TR/2001/REC-SVG-20010904/DTD/svg10.dtd">
<svg version="1.0" xmlns="http://www.w3.org/2000/svg"
 width="1024.000000pt" height="559.000000pt" viewBox="0 0 1024.000000 559.000000"
 preserveAspectRatio="xMidYMid meet">
<metadata>
Created by potrace 1.16, written by Peter Selinger 2001-2019
</metadata>
<g transform="translate(0.000000,559.000000) scale(0.100000,-0.100000)"
fill="#000000" stroke="none">
<path d="M6103 4550 c-118 -25 -219 -108 -293 -243 -23 -42 -45 -77 -49 -77
-5 0 -11 33 -14 74 -9 120 -54 200 -100 179 -38 -17 -133 -110 -166 -161 -72
-113 -81 -307 -20 -449 11 -25 18 -47 17 -49 -2 -1 -68 19 -148 46 -223 73
-351 138 -465 235 -46 39 -51 48 -69 121 -35 145 -55 174 -119 174 -85 0 -197
-99 -197 -173 0 -13 18 -62 39 -108 46 -99 71 -208 71 -314 0 -57 -4 -77 -15
-81 -8 -3 -24 -31 -35 -62 -77 -205 -150 -290 -460 -532 -257 -201 -379 -324
-487 -493 -136 -212 -201 -479 -175 -715 30 -266 123 -467 296 -638 236 -233
568 -354 973 -354 198 0 382 29 553 87 366 124 635 447 690 828 13 97 12 265
-4 354 l-13 74 49 66 c113 150 154 264 137 375 -6 36 -30 99 -64 166 -59 117
-70 175 -39 201 13 11 20 11 42 -1 36 -21 75 -92 139 -249 30 -74 68 -161 85
-193 59 -111 161 -187 299 -223 54 -15 97 -16 274 -12 219 5 333 20 342 43 3
8 -2 125 -11 261 -21 337 -44 412 -156 517 -65 61 -160 104 -330 151 -185 51
-280 100 -280 146 0 50 97 49 225 -2 155 -61 250 -37 384 99 103 102 162 179
154 198 -9 25 -219 189 -278 218 -136 66 -257 58 -471 -32 -85 -36 -134 -48
-134 -33 0 6 32 34 71 63 74 56 121 116 142 182 15 52 14 249 -2 299 -7 20
-13 37 -14 38 -14 6 -343 6 -374 -1z m341 -96 c16 -123 0 -231 -44 -293 -16
-21 -60 -64 -98 -95 -77 -61 -93 -93 -67 -132 25 -38 88 -32 218 21 189 77
280 84 394 30 87 -41 253 -175 243 -195 -4 -8 -48 -56 -97 -107 -93 -97 -167
-143 -230 -143 -17 0 -82 18 -145 41 -138 50 -199 51 -248 4 -41 -39 -40 -82
1 -130 32 -36 149 -100 210 -114 255 -61 359 -111 431 -206 68 -89 91 -202
103 -502 l6 -151 -28 -6 c-15 -3 -99 -10 -187 -17 -269 -19 -414 12 -523 115
-56 52 -72 80 -153 282 -66 163 -114 245 -163 274 -44 27 -71 25 -108 -8 -25
-23 -33 -38 -36 -79 -5 -46 0 -62 58 -184 59 -123 64 -139 64 -199 -1 -52 -7
-78 -32 -130 -38 -78 -109 -180 -126 -180 -22 0 -222 157 -278 217 -84 92
-111 149 -116 252 -3 59 0 110 12 161 39 180 41 197 19 227 -33 45 -81 43
-157 -5 -63 -39 -116 -62 -147 -62 -23 0 -40 79 -40 185 0 149 54 242 172 296
29 13 81 39 117 56 l64 33 -7 -42 c-11 -65 -44 -122 -119 -207 -63 -71 -124
-158 -116 -165 2 -2 49 45 104 105 102 109 149 183 160 252 9 48 23 38 58 -41
34 -74 54 -171 62 -297 19 -301 36 -422 82 -575 25 -83 72 -194 79 -187 2 2
-10 46 -26 98 -60 183 -76 284 -95 570 -16 242 -36 348 -80 427 -30 53 -30 53
-7 45 24 -8 262 -150 288 -171 15 -12 26 -46 42 -123 12 -59 26 -119 32 -134
19 -50 23 -18 7 57 -28 129 -31 162 -16 152 35 -20 202 -160 281 -234 100 -93
101 -96 119 -270 12 -118 35 -208 69 -270 23 -43 26 -28 5 31 -9 24 -21 64
-26 89 -10 42 -39 283 -35 287 1 1 69 -65 151 -146 157 -155 260 -246 339
-300 68 -47 67 -32 -1 23 -51 42 -356 338 -350 341 12 5 311 -16 337 -24 19
-6 42 -11 50 -11 13 0 13 1 0 10 -40 27 -125 42 -268 49 l-152 7 -73 76 c-89
94 -211 206 -318 292 -90 73 -93 67 41 86 41 6 77 13 80 17 6 7 -190 -3 -210
-11 -9 -4 -66 27 -143 79 -71 46 -137 87 -148 90 -40 13 -15 20 76 22 52 1
158 13 237 27 264 46 372 56 618 57 274 1 260 15 -25 25 -200 8 -322 -2 -555
-42 -80 -14 -188 -28 -240 -31 -98 -6 -230 3 -230 16 0 4 15 15 33 26 17 10
124 111 237 224 169 170 224 218 312 276 59 39 108 73 108 78 0 4 -28 -7 -62
-24 -134 -67 -211 -129 -383 -305 -151 -154 -227 -224 -244 -224 -3 0 -6 97
-6 216 0 198 -1 213 -15 182 -11 -25 -15 -75 -15 -203 0 -208 -10 -238 -47
-144 -87 220 -59 396 82 523 60 54 67 44 85 -127 7 -59 30 -97 59 -97 27 0 71
48 106 116 61 117 145 191 244 215 17 4 99 7 182 8 l151 1 7 -46z m-1763 -122
c-26 -50 -129 -118 -148 -99 -20 20 92 117 134 117 20 0 22 -3 14 -18z m69
-147 c16 -65 41 -182 55 -259 14 -78 37 -169 49 -203 13 -34 21 -64 18 -67
-16 -17 -58 -1 -108 39 -31 25 -68 48 -83 51 -28 6 -28 7 -34 97 -7 103 -35
214 -72 288 -29 56 -31 69 -10 69 29 0 94 40 122 75 15 19 28 33 30 31 1 -1
16 -56 33 -121z m151 -174 c97 -73 294 -161 484 -216 55 -16 102 -30 105 -32
12 -10 -26 -20 -49 -13 -14 5 -91 28 -171 53 -223 68 -420 157 -420 190 0 7
-3 22 -6 35 -8 30 -3 28 57 -17z m210 -213 c41 -15 115 -38 164 -53 50 -14 97
-28 105 -31 10 -3 -5 -15 -42 -33 -123 -60 -185 -137 -209 -258 -7 -34 -15
-63 -18 -63 -21 1 -171 266 -171 303 0 10 -11 39 -24 65 -21 42 -46 132 -46
166 0 9 29 -1 83 -28 46 -23 117 -54 158 -68z m-429 -113 c9 -10 -12 -141 -38
-230 -49 -165 -113 -305 -284 -620 -150 -274 -205 -437 -240 -708 -51 -394 77
-845 307 -1088 l35 -37 -78 15 c-94 17 -144 40 -221 99 -140 109 -268 301
-323 484 -27 91 -50 240 -52 340 l-1 85 -6 -75 c-9 -111 5 -254 33 -353 54
-183 167 -364 298 -474 27 -24 44 -43 36 -43 -27 0 -215 100 -279 149 -36 28
-96 82 -133 122 -151 159 -228 332 -258 576 -21 175 19 389 107 568 103 208
217 334 528 582 120 96 242 199 272 228 74 74 147 181 180 262 48 119 48 120
52 102 7 -30 -27 -152 -62 -222 -72 -145 -180 -270 -404 -471 -68 -61 -155
-147 -194 -191 -90 -105 -188 -254 -220 -335 -42 -111 -38 -129 8 -33 79 168
199 324 365 477 41 38 140 135 220 215 194 196 266 317 301 509 10 54 17 72
30 72 8 0 18 -2 21 -5z m58 -44 c32 -28 32 -29 46 -192 18 -205 41 -316 103
-494 27 -77 80 -229 118 -337 37 -108 69 -193 71 -188 7 18 -51 218 -105 365
-123 335 -152 456 -168 703 l-7 104 23 -4 c19 -3 24 -13 37 -73 17 -85 66
-232 99 -298 47 -95 108 -184 223 -332 130 -166 178 -241 232 -360 52 -116 78
-202 104 -344 l24 -126 -5 105 c-10 236 -104 460 -292 698 -123 155 -224 304
-266 394 -58 122 -116 338 -90 338 5 0 21 -26 35 -57 31 -66 101 -174 163
-250 33 -41 44 -63 49 -104 4 -29 14 -65 22 -82 15 -27 19 -29 59 -25 43 5 43
5 128 -81 l85 -86 5 -90 c9 -174 79 -275 311 -448 50 -38 95 -78 99 -90 19
-48 37 -187 37 -277 0 -97 -17 -221 -43 -307 -71 -236 -262 -459 -495 -577
-52 -26 -219 -86 -241 -86 -7 0 15 23 49 51 182 151 325 420 364 684 3 22 -16
-25 -43 -105 -93 -279 -212 -463 -383 -592 -60 -45 -85 -58 -136 -67 -35 -7
-66 -11 -67 -9 -2 2 13 24 34 48 92 109 158 262 195 451 10 48 16 111 14 140
-3 51 -5 45 -30 -81 -50 -248 -109 -385 -213 -497 l-62 -68 -108 -3 c-149 -5
-185 2 -242 47 -144 114 -274 395 -318 689 -32 211 -9 484 59 702 43 140 89
237 248 532 135 251 219 482 235 646 3 34 7 62 9 62 1 0 17 -13 34 -29z m740
-489 c0 -15 -7 -58 -16 -95 l-17 -68 -59 58 c-58 57 -68 73 -46 73 6 0 26 11
44 25 37 28 75 45 87 38 4 -2 7 -16 7 -31z"/>
<path d="M4643 4070 c2 -19 13 -84 23 -145 l19 -110 3 60 c3 60 -20 188 -39
215 -8 11 -9 6 -6 -20z"/>
<path d="M3578 2239 c-20 -64 -23 -95 -23 -229 0 -118 4 -171 18 -220 19 -71
65 -173 91 -205 l17 -20 -9 20 c-19 41 -61 173 -78 245 -23 94 -23 281 0 394
9 44 14 82 11 84 -2 2 -14 -29 -27 -69z"/>
<path d="M5103 2255 c3 -22 13 -105 22 -185 10 -80 19 -147 21 -149 2 -2 4 36
3 85 0 113 -21 260 -38 277 -11 10 -13 5 -8 -28z"/>
<path d="M5724 2202 c14 -84 17 -225 7 -309 -19 -156 -73 -292 -180 -453 -79
-118 -80 -123 -14 -54 140 147 225 378 224 606 0 100 -14 199 -33 228 -6 11
-8 5 -4 -18z"/>
</g>
</svg>
