<?xml version="1.0" standalone="no"?>
<!DOCTYPE svg PUBLIC "-//W3C//DTD SVG 20010904//EN"
 "http://www.w3.org/TR/2001/REC-SVG-20010904/DTD/svg10.dtd">
<svg version="1.0" xmlns="http://www.w3.org/2000/svg"
 width="1024.000000pt" height="559.000000pt" viewBox="0 0 1024.000000 559.000000"
 preserveAspectRatio="xMidYMid meet">
<metadata>
Created by potrace 1.16, written by Peter Selinger 2001-2019
</metadata>
<g transform="translate(0.000000,559.000000) scale(0.100000,-0.100000)"
fill="#000000" stroke="none">
<path d="M4126 4374 c-476 -64 -891 -283 -1080 -568 -61 -93 -103 -205 -132
-354 -18 -97 -31 -136 -58 -180 -200 -332 -247 -594 -160 -881 41 -135 87
-215 181 -310 45 -47 81 -86 80 -87 -2 -2 -43 -17 -92 -35 -229 -80 -315 -163
-317 -303 -2 -93 33 -145 123 -185 53 -24 294 -100 414 -131 116 -30 354 -58
550 -65 246 -9 404 -24 539 -51 161 -33 225 -31 328 6 146 53 223 118 249 210
7 25 13 46 14 48 1 1 40 -18 86 -42 175 -93 393 -171 609 -218 151 -32 449
-33 595 0 210 46 359 109 592 248 175 106 282 154 342 154 25 0 81 -5 125 -12
100 -14 155 -3 369 71 178 61 183 64 202 101 25 47 18 72 -52 212 -83 163
-138 225 -228 257 -96 34 -90 25 -87 143 4 122 -6 168 -53 237 l-34 51 102 0
c134 0 167 7 229 44 80 48 103 96 103 216 -1 100 -9 127 -61 196 -13 17 -27
51 -30 76 -16 114 -99 177 -234 178 -66 0 -83 -4 -143 -35 l-68 -35 -43 21
c-78 36 -110 76 -241 294 -43 72 -105 168 -138 215 -83 116 -234 264 -340 335
-315 207 -704 251 -1002 112 -68 -32 -72 -32 -120 -20 -137 36 -321 68 -498
88 -162 18 -486 18 -621 -1z m505 -34 c269 -20 608 -86 819 -158 204 -70 441
-184 587 -281 159 -106 341 -318 436 -506 28 -56 97 -256 97 -282 0 -28 -251
-11 -520 36 -384 68 -433 73 -625 74 -193 1 -271 -8 -411 -48 -241 -70 -414
-204 -578 -450 -138 -207 -191 -401 -157 -577 13 -65 70 -200 89 -212 6 -4 1
17 -12 46 -30 68 -56 193 -56 272 0 78 32 212 70 290 49 104 170 277 249 357
134 136 264 205 486 261 79 19 116 22 300 22 116 0 244 -5 285 -12 41 -7 102
-16 135 -21 33 -6 152 -26 265 -46 289 -51 465 -56 671 -19 33 6 40 2 96 -50
64 -59 93 -116 93 -180 0 -60 -50 -206 -70 -206 -24 0 -184 -87 -289 -157 -82
-56 -162 -124 -291 -247 -208 -201 -292 -264 -484 -363 -77 -40 -132 -73 -120
-73 36 0 134 38 240 95 99 52 103 53 91 27 -25 -58 -62 -109 -116 -161 -36
-35 -44 -46 -23 -31 54 37 108 97 136 155 14 30 26 58 26 64 0 5 28 31 63 58
34 26 133 116 220 200 136 130 260 230 358 290 23 14 28 13 63 -10 20 -15 69
-36 109 -49 40 -12 86 -35 106 -52 67 -60 119 -230 100 -332 -6 -30 -8 -61 -6
-67 2 -7 7 13 12 43 10 72 12 74 42 50 30 -24 61 -25 107 -6 50 21 54 38 5 21
-23 -8 -50 -15 -61 -15 -30 0 -68 48 -68 85 0 48 -35 153 -69 207 -33 52 -73
77 -166 103 -64 18 -105 40 -105 54 0 23 273 124 367 137 47 6 49 5 80 -33 56
-70 65 -104 61 -240 -4 -145 -2 -148 106 -183 50 -16 79 -33 107 -62 43 -45
169 -283 169 -321 0 -34 -27 -55 -101 -76 -35 -11 -111 -36 -169 -57 -101 -37
-109 -39 -210 -36 -58 2 -131 4 -162 5 l-57 2 28 30 c39 42 71 86 71 97 0 5
-32 -19 -71 -55 -39 -35 -108 -86 -155 -113 -46 -27 -132 -78 -191 -113 -300
-177 -484 -243 -761 -272 -292 -30 -702 72 -1050 263 -54 30 -78 50 -92 77
-55 106 -209 198 -465 277 -85 26 -95 32 -176 108 -94 88 -163 134 -255 168
-49 19 -80 22 -179 22 -73 0 -131 -5 -149 -12 -42 -18 -29 -21 43 -9 45 7 88
7 146 -1 137 -18 246 -73 365 -183 l55 -51 -35 7 c-244 42 -527 51 -735 21
l-110 -15 -94 41 c-52 23 -120 59 -151 80 -122 81 -219 236 -265 422 -24 97
-27 123 -22 225 6 145 35 249 117 416 103 211 190 322 386 491 126 108 234
218 234 237 0 5 -30 -19 -67 -53 -38 -34 -84 -74 -103 -88 -75 -56 -178 -148
-248 -221 l-73 -76 6 40 c21 131 81 280 149 374 56 76 179 187 285 257 327
213 764 310 1242 274z m1269 -10 c314 -50 580 -229 792 -530 45 -65 158 -247
158 -255 0 -13 91 -143 116 -167 16 -15 53 -40 81 -55 l52 -29 -32 -25 c-47
-37 -141 -88 -204 -110 l-55 -19 -72 42 c-149 87 -180 115 -217 198 -80 177
-260 405 -411 520 -135 102 -440 256 -640 322 -54 18 -98 35 -98 39 0 9 157
58 217 69 70 11 238 11 313 0z m1523 -990 c70 -26 83 -42 101 -120 8 -35 24
-76 36 -90 43 -52 54 -91 55 -186 0 -83 -2 -93 -27 -126 -47 -62 -93 -76 -269
-81 -150 -5 -249 -20 -338 -51 -24 -9 -47 -16 -52 -16 -4 0 2 21 13 47 12 26
23 77 26 113 6 90 -22 154 -95 219 l-55 49 54 17 c76 25 173 79 248 139 74 60
98 74 155 92 57 18 87 17 148 -6z m-702 -183 c46 -23 47 -25 24 -31 -13 -3
-51 -9 -84 -12 -66 -7 -60 -14 -75 71 -3 17 -9 41 -12 53 -6 22 -2 20 45 -16
29 -21 75 -51 102 -65z m-3629 -1214 c38 -16 68 -31 68 -34 0 -4 -21 -10 -47
-13 -27 -4 -66 -13 -88 -21 l-40 -13 46 -1 c26 -1 84 5 130 13 457 78 811 54
1204 -84 381 -134 460 -363 170 -495 -123 -56 -164 -60 -323 -31 -221 40 -274
45 -527 56 -382 16 -486 32 -762 115 -237 71 -278 90 -316 145 -32 46 -15 152
31 203 38 42 114 84 242 133 74 29 137 53 140 53 3 1 35 -11 72 -26z"/>
<path d="M4170 4014 c-72 -7 -265 -43 -291 -54 -27 -11 -25 -11 119 17 108 20
462 28 609 14 216 -22 492 -72 723 -131 63 -16 126 -32 140 -36 14 -3 80 -24
147 -45 126 -40 162 -49 105 -24 -196 85 -655 194 -1012 241 -114 15 -453 26
-540 18z"/>
<path d="M5933 3648 c10 -7 65 -43 121 -79 56 -37 137 -100 181 -140 44 -41
66 -58 50 -38 -64 78 -182 169 -300 233 -38 20 -62 31 -52 24z"/>
<path d="M2933 3088 c-44 -90 -88 -222 -103 -303 -14 -80 -9 -248 10 -308 17
-58 20 -41 4 33 -34 162 5 389 98 574 16 32 27 60 25 62 -2 2 -17 -24 -34 -58z"/>
<path d="M7144 2587 c50 -69 58 -102 52 -206 -4 -69 -3 -85 4 -56 25 113 7
199 -56 270 l-26 30 26 -38z"/>
<path d="M6450 2508 c-62 -37 -130 -96 -250 -213 -183 -178 -278 -248 -407
-297 -101 -38 -103 -49 -3 -14 135 47 219 107 399 284 107 104 198 185 256
223 95 64 101 69 94 69 -3 0 -43 -23 -89 -52z"/>
<path d="M2921 2250 c19 -40 51 -79 78 -97 19 -12 15 -4 -14 28 -22 24 -48 55
-58 69 l-18 25 12 -25z"/>
<path d="M7457 2059 c7 -9 29 -49 48 -90 19 -41 32 -60 29 -44 -10 42 -49 119
-71 136 -16 12 -17 12 -6 -2z"/>
<path d="M4470 2047 c0 -16 55 -115 103 -185 84 -123 213 -230 374 -311 94
-47 88 -37 -12 20 -213 121 -323 230 -429 419 -20 36 -36 61 -36 57z"/>
<path d="M6086 1975 c13 -39 16 -184 6 -215 -6 -17 -7 -28 -3 -25 5 3 14 27
21 55 13 55 7 128 -16 175 -8 17 -11 21 -8 10z"/>
<path d="M5678 1953 c7 -3 16 -2 19 1 4 3 -2 6 -13 5 -11 0 -14 -3 -6 -6z"/>
<path d="M7355 1778 c-39 -13 -89 -21 -141 -22 -45 0 -77 -4 -70 -8 32 -21
173 -2 256 35 49 21 27 19 -45 -5z"/>
<path d="M6715 1709 c-33 -33 -88 -80 -122 -105 -66 -47 -232 -133 -298 -154
-22 -7 -35 -15 -28 -17 31 -11 264 106 363 182 70 54 166 155 147 155 -1 0
-29 -27 -62 -61z"/>
<path d="M5160 1461 c18 -13 141 -51 161 -50 8 0 -20 11 -61 24 -41 13 -84 26
-95 30 -16 6 -17 5 -5 -4z"/>
<path d="M6210 1420 c-18 -12 -2 -12 25 0 13 6 15 9 5 9 -8 0 -22 -4 -30 -9z"/>
<path d="M7305 3220 c-4 -6 10 -8 39 -4 64 9 125 -22 154 -78 12 -24 22 -35
22 -25 0 31 -30 77 -63 97 -35 21 -141 28 -152 10z"/>
<path d="M7527 3020 c3 -30 7 -57 9 -59 8 -9 2 75 -6 94 -5 12 -6 -1 -3 -35z"/>
<path d="M6947 3034 c28 -40 52 -101 63 -161 9 -48 9 -48 6 15 -4 64 -35 132
-73 163 -13 11 -12 7 4 -17z"/>
<path d="M3557 1803 c18 -2 50 -2 70 0 21 2 7 4 -32 4 -38 0 -55 -2 -38 -4z"/>
<path d="M3905 1790 c261 -35 410 -83 555 -176 14 -9 9 -3 -10 14 -96 84 -324
157 -520 167 -94 4 -94 4 -25 -5z"/>
<path d="M2771 1566 c10 -10 265 -97 351 -120 187 -51 247 -58 583 -67 176 -4
338 -10 360 -13 l40 -5 -40 10 c-22 6 -175 14 -340 19 -391 11 -486 27 -783
126 -155 51 -181 59 -171 50z"/>
</g>
</svg>
