<?xml version="1.0" standalone="no"?>
<!DOCTYPE svg PUBLIC "-//W3C//DTD SVG 20010904//EN"
 "http://www.w3.org/TR/2001/REC-SVG-20010904/DTD/svg10.dtd">
<svg version="1.0" xmlns="http://www.w3.org/2000/svg"
 width="1024.000000pt" height="559.000000pt" viewBox="0 0 1024.000000 559.000000"
 preserveAspectRatio="xMidYMid meet">
<metadata>
Created by potrace 1.16, written by Peter Selinger 2001-2019
</metadata>
<g transform="translate(0.000000,559.000000) scale(0.100000,-0.100000)"
fill="#000000" stroke="none">
<path d="M4916 4600 c-160 -25 -239 -60 -262 -116 -8 -19 -14 -67 -14 -110 0
-74 1 -77 37 -112 l36 -37 -12 -96 c-16 -135 -48 -226 -151 -434 -96 -194
-133 -283 -155 -379 -53 -219 -68 -548 -60 -1281 7 -590 14 -723 44 -790 32
-72 88 -125 176 -165 161 -75 359 -105 630 -97 413 13 632 106 692 294 35 110
42 1527 8 1808 -29 247 -58 339 -187 598 -104 210 -133 291 -155 435 l-15 106
25 21 c38 31 47 58 47 142 0 124 -38 165 -187 199 -81 18 -409 27 -497 14z
m475 -53 c78 -20 139 -44 139 -56 0 -4 -10 -13 -22 -18 -18 -8 -29 -6 -48 7
-39 26 -101 40 -225 51 -184 16 -381 -7 -454 -52 -17 -11 -25 -11 -41 -2 -21
14 -33 3 -25 -20 7 -17 74 -51 130 -66 22 -6 100 -16 173 -23 116 -11 151 -10
260 4 150 20 187 30 236 63 20 14 39 25 41 25 3 0 5 -34 5 -75 0 -91 -11 -105
-102 -133 -102 -32 -245 -46 -397 -39 -221 11 -364 49 -377 103 -9 35 -4 36
43 13 56 -28 146 -48 250 -56 71 -5 85 -4 81 8 -3 10 -35 17 -104 25 -101 11
-197 35 -246 60 -31 16 -37 50 -18 99 13 34 90 68 190 85 41 6 82 13 90 15 44
11 361 -4 421 -18z m-76 -51 c194 -35 173 -63 -66 -87 -91 -10 -145 -10 -239
-1 -123 12 -210 30 -210 44 0 46 339 75 515 44z m-465 -302 c149 -34 481 -27
594 12 21 8 40 14 42 14 1 0 6 -21 9 -47 27 -210 42 -256 165 -508 155 -315
180 -415 201 -820 14 -271 2 -1400 -16 -1507 -23 -133 -92 -204 -249 -254
-381 -120 -977 -65 -1129 105 -22 24 -46 60 -54 80 -23 52 -33 360 -36 1031
-2 864 16 985 203 1360 48 96 99 207 113 247 27 74 57 223 57 282 0 28 3 32
18 26 9 -4 46 -13 82 -21z"/>
<path d="M4800 4097 c0 -117 -53 -279 -150 -463 -59 -111 -110 -243 -110 -285
0 -34 14 -13 40 61 12 36 62 142 109 235 64 125 92 194 108 260 26 109 34 216
16 222 -9 3 -13 -7 -13 -30z"/>
<path d="M5426 4042 c-9 -15 14 -143 38 -212 27 -79 133 -280 147 -280 19 0 8
33 -46 134 -64 120 -87 183 -105 284 -13 70 -23 92 -34 74z"/>
<path d="M5640 3468 c1 -29 47 -162 58 -166 18 -6 14 34 -11 107 -20 58 -47
93 -47 59z"/>
<path d="M5345 3163 c-16 -2 -84 -18 -150 -34 -174 -42 -276 -54 -363 -40 -39
6 -99 11 -134 11 -101 0 -217 -39 -233 -77 -18 -44 -26 -432 -20 -928 7 -657
14 -759 50 -820 43 -74 170 -132 365 -167 108 -19 420 -16 540 5 109 19 200
46 200 59 0 5 4 7 8 4 5 -3 31 8 60 25 71 40 100 92 113 205 16 133 18 1540 2
1623 -21 108 -69 133 -273 137 -74 1 -148 0 -165 -3z m266 -33 c68 -12 129
-39 129 -56 0 -18 -76 -68 -134 -88 -152 -52 -354 -37 -575 41 l-76 27 85 12
c47 6 114 19 150 29 161 43 311 55 421 35z m-799 -75 c40 -9 127 -33 193 -55
320 -103 546 -103 701 2 l42 27 7 -27 c12 -50 17 -942 7 -1294 -13 -432 -13
-433 -157 -506 -80 -41 -238 -70 -418 -78 -165 -7 -292 5 -431 41 -162 42
-234 90 -255 173 -15 55 -31 615 -31 1037 1 399 11 617 30 640 18 22 128 54
187 54 28 1 85 -6 125 -14z"/>
</g>
</svg>
