<?xml version="1.0" standalone="no"?>
<!DOCTYPE svg PUBLIC "-//W3C//DTD SVG 20010904//EN"
 "http://www.w3.org/TR/2001/REC-SVG-20010904/DTD/svg10.dtd">
<svg version="1.0" xmlns="http://www.w3.org/2000/svg"
 width="1024.000000pt" height="559.000000pt" viewBox="0 0 1024.000000 559.000000"
 preserveAspectRatio="xMidYMid meet">
<metadata>
Created by potrace 1.16, written by Peter Selinger 2001-2019
</metadata>
<g transform="translate(0.000000,559.000000) scale(0.100000,-0.100000)"
fill="#000000" stroke="none">
<path d="M5860 4479 c-312 -49 -544 -258 -586 -529 -5 -31 -19 -60 -46 -92
-22 -27 -43 -48 -47 -48 -4 0 -19 44 -34 98 -33 118 -107 273 -143 301 -34 27
-68 26 -124 -3 -55 -27 -94 -80 -85 -114 3 -14 28 -52 56 -86 27 -33 67 -95
88 -136 42 -81 95 -220 87 -228 -3 -2 -25 0 -48 6 -164 41 -207 47 -368 47
-145 0 -174 -3 -240 -24 -261 -81 -456 -253 -575 -502 -195 -414 -139 -957
147 -1434 221 -367 567 -635 820 -635 32 0 106 15 179 35 157 44 212 45 344 4
177 -54 289 -48 427 21 475 237 848 881 848 1465 0 531 -278 941 -714 1050
-158 40 -321 35 -534 -16 -57 -14 -96 -19 -101 -13 -5 5 -11 28 -14 51 -5 40
-2 45 46 93 44 44 56 51 82 47 255 -37 300 -40 414 -28 244 27 442 132 618
327 34 38 93 103 132 144 39 41 71 80 71 87 0 16 -8 21 -102 49 -216 64 -439
88 -598 63z m400 -69 c105 -21 212 -48 219 -55 7 -7 -250 -275 -309 -322 -82
-65 -199 -121 -307 -149 -77 -19 -121 -24 -222 -24 -109 0 -283 19 -296 32 -6
6 87 76 165 125 154 96 400 198 600 248 119 30 152 44 104 45 -48 0 -215 -36
-302 -66 -196 -67 -396 -167 -527 -264 -31 -23 -58 -40 -60 -38 -7 7 23 96 55
163 39 83 143 190 230 238 69 38 178 74 263 88 78 12 280 2 387 -21z m-1292
-251 c-22 -36 -128 -78 -128 -51 0 25 74 71 113 72 25 0 26 -2 15 -21z m84
-136 c77 -197 109 -350 112 -531 l1 -97 -25 0 c-24 0 -25 3 -32 90 -17 196
-91 382 -223 561 -15 21 -15 22 18 28 18 3 46 20 62 36 16 17 31 30 35 30 3 0
27 -53 52 -117z m-332 -383 c117 -15 308 -54 321 -67 5 -5 12 -49 16 -96 l6
-87 -34 6 c-70 12 -165 37 -189 49 -47 23 -151 57 -158 51 -11 -12 24 -35 115
-75 209 -91 372 -102 551 -35 134 50 282 116 282 126 0 17 -88 -1 -185 -39
-89 -34 -217 -75 -221 -70 -1 1 -3 42 -5 91 l-4 89 85 18 c47 10 140 26 208
36 104 14 137 15 216 5 333 -42 611 -281 719 -617 97 -298 77 -638 -58 -985
-121 -314 -346 -604 -599 -771 -115 -76 -181 -101 -279 -107 -66 -4 -97 1
-215 33 -160 44 -195 43 -362 -4 -184 -53 -284 -39 -445 59 -309 188 -556 530
-681 943 -137 449 -59 909 201 1186 125 133 289 224 460 256 89 17 148 18 255
5z"/>
<path d="M4234 3402 c-145 -94 -277 -292 -329 -493 -20 -77 -36 -235 -26 -262
6 -15 11 4 20 69 23 181 76 336 155 459 51 80 151 183 218 226 26 17 48 33 48
35 0 13 -34 -1 -86 -34z"/>
<path d="M6244 3075 c65 -157 91 -322 83 -508 -7 -151 -30 -267 -88 -450 -22
-71 -39 -131 -36 -133 7 -8 64 128 91 217 46 155 60 252 60 429 0 135 -4 179
-21 245 -29 109 -60 190 -80 207 -15 11 -16 11 -9 -7z"/>
<path d="M3890 2369 c0 -44 32 -185 60 -269 31 -94 131 -295 180 -363 23 -32
44 -57 46 -55 2 3 -26 58 -61 124 -99 182 -151 316 -195 507 -20 88 -30 107
-30 56z"/>
<path d="M6018 1689 c-42 -57 -118 -148 -169 -203 -65 -69 -84 -94 -63 -83 69
36 247 235 298 335 37 72 7 49 -66 -49z"/>
</g>
</svg>
