<?xml version="1.0" standalone="no"?>
<!DOCTYPE svg PUBLIC "-//W3C//DTD SVG 20010904//EN"
 "http://www.w3.org/TR/2001/REC-SVG-20010904/DTD/svg10.dtd">
<svg version="1.0" xmlns="http://www.w3.org/2000/svg"
 width="1024.000000pt" height="559.000000pt" viewBox="0 0 1024.000000 559.000000"
 preserveAspectRatio="xMidYMid meet">
<metadata>
Created by potrace 1.16, written by Peter Selinger 2001-2019
</metadata>
<g transform="translate(0.000000,559.000000) scale(0.100000,-0.100000)"
fill="#000000" stroke="none">
<path d="M5045 4504 c-182 -25 -352 -115 -520 -275 -298 -286 -509 -665 -630
-1134 -80 -309 -103 -510 -85 -736 27 -361 155 -660 379 -892 251 -261 666
-409 1049 -377 279 24 582 157 774 339 254 241 390 540 419 921 13 178 0 374
-38 550 -92 429 -220 739 -423 1032 -94 134 -266 321 -369 398 -81 61 -225
134 -306 154 -64 16 -201 27 -250 20z m205 -66 c233 -49 483 -256 703 -580
188 -277 326 -641 404 -1063 25 -140 25 -483 0 -605 -75 -357 -229 -613 -486
-808 -140 -106 -376 -200 -576 -230 -143 -22 -168 -23 -263 -12 -613 71 -1015
434 -1144 1034 -29 135 -32 469 -5 616 51 274 144 575 245 789 131 279 370
580 572 723 189 133 363 176 550 136z"/>
<path d="M4720 4133 c-48 -23 -187 -165 -242 -249 -26 -38 -65 -103 -87 -146
-42 -76 -105 -237 -98 -245 3 -2 39 66 81 151 43 85 104 193 137 239 57 81
192 222 234 245 33 18 12 22 -25 5z"/>
<path d="M5730 3761 c0 -5 12 -16 26 -26 29 -18 54 -70 54 -110 0 -17 4 -24
11 -19 7 4 9 24 6 53 -4 38 -12 52 -43 78 -38 33 -54 40 -54 24z"/>
<path d="M5898 3620 c15 -26 32 -40 32 -25 0 16 -25 55 -36 55 -10 0 -9 -8 4
-30z"/>
<path d="M5885 3503 c5 -10 8 -26 9 -35 0 -22 26 -24 26 -2 0 8 -5 24 -10 35
-13 24 -35 26 -25 2z"/>
<path d="M4220 3290 c-19 -36 -40 -113 -40 -149 0 -53 14 -26 40 72 22 87 22
119 0 77z"/>
<path d="M6215 2775 c4 -16 9 -67 12 -112 3 -46 9 -83 14 -83 22 0 12 145 -13
190 -19 35 -19 35 -13 5z"/>
<path d="M4013 2309 c15 -212 118 -475 247 -628 23 -27 49 -52 56 -55 19 -7
15 -1 -52 89 -69 93 -125 200 -164 310 -38 108 -70 252 -70 317 0 26 -5 50
-12 54 -8 5 -10 -17 -5 -87z"/>
<path d="M6196 2200 c-53 -267 -150 -453 -319 -616 -45 -44 -98 -92 -117 -106
-55 -43 -29 -42 36 1 152 99 294 291 366 496 31 86 61 238 56 285 -2 27 -7 13
-22 -60z"/>
<path d="M4214 2065 c-10 -25 16 -84 43 -97 26 -13 32 -21 52 -70 6 -16 18
-28 27 -28 16 0 16 1 1 18 -10 10 -17 28 -17 40 0 20 -8 31 -63 78 -14 11 -17
23 -12 45 5 23 3 29 -10 29 -8 0 -18 -7 -21 -15z"/>
<path d="M4500 1476 c0 -27 62 -81 115 -99 25 -9 45 -14 45 -12 0 3 -25 20
-56 40 -31 20 -66 48 -80 63 -20 23 -23 24 -24 8z"/>
</g>
</svg>
