<?xml version="1.0" standalone="no"?>
<!DOCTYPE svg PUBLIC "-//W3C//DTD SVG 20010904//EN"
 "http://www.w3.org/TR/2001/REC-SVG-20010904/DTD/svg10.dtd">
<svg version="1.0" xmlns="http://www.w3.org/2000/svg"
 width="1024.000000pt" height="559.000000pt" viewBox="0 0 1024.000000 559.000000"
 preserveAspectRatio="xMidYMid meet">
<metadata>
Created by potrace 1.16, written by Peter Selinger 2001-2019
</metadata>
<g transform="translate(0.000000,559.000000) scale(0.100000,-0.100000)"
fill="#000000" stroke="none">
<path d="M5920 4665 c-224 -30 -416 -99 -584 -209 l-69 -46 -126 17 c-108 14
-145 14 -255 4 -378 -35 -669 -182 -884 -447 l-77 -95 -60 6 c-33 3 -103 1
-155 -5 -408 -46 -747 -322 -855 -697 -14 -48 -30 -89 -35 -91 -35 -12 -204
-129 -261 -181 -112 -101 -234 -270 -295 -407 -180 -408 -144 -793 99 -1052
66 -70 161 -132 273 -177 100 -41 154 -70 236 -131 205 -150 561 -241 838
-214 115 12 116 12 211 35 150 35 334 115 449 196 l55 38 44 -15 c137 -47 428
-76 631 -62 327 22 604 135 822 337 63 58 68 61 117 61 87 0 240 20 360 46
297 66 531 186 711 363 78 78 93 88 189 127 294 121 583 343 726 558 69 104
125 237 151 357 25 114 25 386 0 513 -72 370 -249 627 -521 757 -119 57 -182
71 -333 75 l-132 4 -73 55 c-81 63 -253 150 -368 188 -183 60 -477 108 -649
106 -47 -1 -128 -7 -180 -14z m463 -65 c294 -45 505 -121 680 -243 l79 -55
-53 -27 c-30 -14 -76 -46 -104 -69 l-50 -43 -90 19 c-113 24 -309 26 -415 5
-41 -8 -76 -14 -78 -12 -2 1 13 12 33 23 45 27 47 47 3 38 -76 -15 -238 -152
-303 -256 -15 -25 -29 -46 -30 -48 -1 -1 -47 9 -101 24 -83 22 -126 28 -269
32 -221 6 -376 -21 -552 -96 -40 -17 -73 -28 -73 -24 0 4 26 35 57 70 62 70
137 129 228 180 l60 33 -44 -5 c-189 -21 -441 -311 -501 -576 -20 -87 -17 -83
-53 -76 -168 35 -382 31 -553 -9 -136 -32 -195 -54 -312 -115 l-94 -49 22 36
c16 27 18 39 10 47 -26 25 -131 -139 -163 -254 -28 -101 -40 -208 -35 -314 l6
-103 -52 -13 c-194 -49 -437 -151 -595 -249 -46 -28 -85 -50 -86 -49 -2 2 -15
48 -30 103 -106 386 -55 712 149 965 185 229 491 365 781 347 l94 -5 79 97
c198 242 430 377 739 431 255 44 508 15 665 -77 59 -35 78 -36 78 -4 0 21 -51
57 -125 90 l-50 22 40 25 c149 93 297 148 510 189 108 20 347 18 498 -5z
m1116 -350 c312 -87 521 -334 613 -723 30 -127 32 -432 5 -550 -63 -268 -240
-499 -527 -689 -100 -67 -306 -175 -315 -166 -2 2 9 24 26 48 146 216 247 598
209 790 -8 44 -7 46 30 85 89 92 135 240 127 405 -15 273 -167 472 -469 615
-51 24 -117 51 -146 61 l-53 17 22 23 c27 28 144 91 195 104 55 13 198 3 283
-20z m-633 -129 c149 -33 329 -106 439 -176 124 -80 239 -218 278 -335 54
-163 33 -360 -51 -482 -52 -76 -55 -77 -114 -23 -165 149 -376 244 -561 253
-90 4 -99 7 -107 26 -16 42 -129 183 -205 255 -92 87 -211 167 -340 227 -52
24 -95 48 -95 52 0 15 96 127 127 148 116 78 413 104 629 55z m-969 -211 c293
-62 547 -215 725 -439 90 -113 102 -141 95 -231 -16 -202 -138 -422 -299 -537
l-45 -32 -39 41 c-92 95 -272 222 -404 285 -147 70 -274 103 -394 103 l-72 0
-37 44 c-104 124 -278 235 -513 326 l-22 9 19 73 c11 40 37 109 58 153 l38 80
109 42 c139 54 269 91 364 103 106 13 308 3 417 -20z m-1167 -460 c220 -35
400 -116 564 -256 102 -87 136 -132 136 -182 0 -130 -62 -295 -158 -422 -51
-67 -186 -200 -204 -200 -6 0 -38 22 -72 49 -187 148 -419 255 -666 307 -93
19 -382 26 -517 11 l-73 -7 0 124 c0 130 18 247 50 320 15 35 30 48 101 88
148 82 294 136 441 163 89 16 309 19 398 5z m2223 -159 c159 -41 313 -124 431
-232 65 -59 76 -89 76 -205 0 -222 -106 -521 -257 -722 -244 -326 -582 -491
-1120 -546 -24 -2 -43 -2 -43 0 0 2 20 28 44 58 67 83 101 135 150 234 93 184
141 377 152 604 l7 138 48 31 c69 44 181 166 225 245 64 115 114 281 114 380
l0 34 48 0 c27 0 83 -9 125 -19z m-1244 -270 c199 -55 437 -196 574 -340 64
-67 62 -57 46 -231 -32 -354 -147 -625 -364 -858 -135 -144 -340 -281 -505
-336 -259 -86 -566 -96 -899 -29 l-83 17 79 75 c238 227 391 505 487 882 31
125 33 129 72 155 21 14 65 51 97 82 170 165 267 363 267 545 l0 70 81 -7 c45
-4 112 -15 148 -25z m-2866 -406 c9 -39 27 -106 41 -150 l26 -80 -63 -55
c-189 -167 -271 -291 -303 -460 -16 -80 -11 -150 11 -150 8 0 18 29 28 83 39
207 117 329 322 500 245 206 658 373 1005 408 322 32 666 -57 954 -246 45 -29
99 -69 120 -88 l40 -34 -23 -89 c-120 -458 -282 -733 -572 -969 -244 -198
-573 -307 -884 -292 -176 9 -325 46 -491 122 -65 30 -102 52 -237 144 -27 18
-83 46 -125 63 -132 51 -193 89 -277 173 -188 187 -249 449 -179 763 64 284
259 569 494 726 l85 56 6 -177 c3 -105 12 -207 22 -248z"/>
<path d="M6040 4505 c-128 -29 -305 -120 -338 -174 -18 -31 2 -26 55 15 95 73
227 124 386 149 21 3 35 10 32 16 -8 12 -67 10 -135 -6z"/>
<path d="M6340 4443 c-103 -18 -255 -76 -245 -93 3 -5 38 5 77 20 100 38 204
54 305 46 93 -7 112 6 33 23 -50 11 -121 12 -170 4z"/>
<path d="M4899 4204 c-118 -58 -200 -116 -272 -194 -76 -82 -170 -220 -149
-220 4 0 25 24 47 53 94 126 143 181 202 227 65 50 236 142 286 154 15 3 27
11 27 16 0 21 -50 8 -141 -36z"/>
<path d="M4587 4205 c-175 -73 -342 -244 -437 -448 -46 -97 -33 -120 14 -27
91 178 195 305 316 385 62 41 170 95 190 95 5 0 12 5 15 10 11 17 -38 10 -98
-15z"/>
<path d="M3526 3619 c-61 -41 -150 -140 -191 -214 -38 -68 -80 -188 -90 -257
-13 -86 11 -51 44 64 18 62 48 142 68 178 35 62 146 183 207 226 49 34 13 36
-38 3z"/>
<path d="M3159 3418 c-92 -126 -160 -378 -145 -537 10 -112 23 -88 29 56 4
106 11 158 31 226 25 85 73 191 115 252 42 61 14 63 -30 3z"/>
<path d="M7440 4120 c0 -5 7 -10 16 -10 9 0 53 -19 97 -42 152 -79 232 -184
301 -391 14 -43 30 -86 35 -95 19 -31 12 38 -10 108 -62 199 -158 323 -309
399 -80 40 -130 52 -130 31z"/>
<path d="M8006 3079 c-2 -8 -11 -45 -20 -84 -22 -97 -74 -198 -145 -283 -34
-39 -61 -74 -61 -77 0 -3 6 -5 13 -5 15 0 85 78 130 144 59 89 121 285 96 310
-5 6 -10 4 -13 -5z"/>
<path d="M6665 3973 c-22 -3 -44 -9 -49 -14 -6 -5 28 -9 90 -9 167 0 313 -34
452 -104 52 -26 68 -23 35 6 -55 49 -208 101 -343 118 -84 10 -108 10 -185 3z"/>
<path d="M5540 3725 c-77 -15 -150 -43 -150 -57 0 -6 8 -7 18 -3 110 42 320
57 449 31 116 -23 194 -51 321 -113 62 -31 116 -53 119 -49 11 10 -6 21 -112
75 -218 112 -453 155 -645 116z"/>
<path d="M4341 3285 c-36 -8 -69 -19 -75 -25 -13 -13 1 -13 99 5 152 27 336
13 519 -40 49 -14 91 -24 93 -21 11 11 -52 38 -143 62 -83 22 -127 27 -264 30
-120 3 -183 0 -229 -11z"/>
<path d="M4225 3008 c-95 -10 -208 -42 -225 -63 -15 -19 -4 -19 46 -1 22 7 83
21 138 31 99 18 114 18 371 0 66 -5 68 -4 40 9 -26 12 -235 38 -276 35 -7 -1
-50 -6 -94 -11z"/>
<path d="M6908 3010 c-21 -118 -77 -232 -162 -330 -35 -41 -59 -77 -53 -79 19
-7 131 121 170 196 55 105 96 280 69 297 -5 3 -16 -35 -24 -84z"/>
<path d="M7316 2742 c-4 -6 -16 -45 -26 -86 -34 -129 -104 -272 -183 -374 -22
-30 -86 -96 -141 -148 -102 -97 -121 -129 -44 -76 75 51 200 187 257 277 62
99 124 245 142 334 11 60 10 96 -5 73z"/>
<path d="M6525 1829 c-38 -16 -104 -36 -147 -46 -87 -18 -95 -39 -12 -29 88
10 253 81 234 100 -3 2 -37 -9 -75 -25z"/>
<path d="M5565 2653 c-45 -147 -130 -292 -240 -411 -30 -33 -55 -62 -55 -66 0
-17 25 0 79 57 75 78 128 152 173 242 54 107 101 265 79 265 -5 0 -22 -39 -36
-87z"/>
<path d="M6160 2338 c-70 -278 -156 -440 -328 -620 -52 -54 -93 -101 -90 -104
8 -8 98 67 157 132 126 137 220 322 275 540 18 71 20 94 6 94 -5 0 -14 -19
-20 -42z"/>
<path d="M4815 1369 c-6 -9 43 -26 101 -35 43 -6 168 10 193 26 9 5 -27 6 -85
3 -54 -3 -123 -1 -152 5 -29 5 -55 6 -57 1z"/>
<path d="M2596 2669 c-69 -54 -159 -216 -190 -340 -18 -74 -20 -96 -8 -103 5
-3 19 34 30 82 27 110 68 192 144 293 63 83 70 104 24 68z"/>
<path d="M4065 2519 c-95 -32 -200 -80 -300 -137 -151 -86 -364 -243 -386
-283 -17 -32 0 -37 22 -7 11 15 63 58 117 96 205 145 403 253 572 312 52 18
99 37 105 42 20 17 -44 6 -130 -23z"/>
<path d="M3518 2422 c-182 -92 -335 -242 -471 -462 -50 -82 -102 -189 -113
-232 -10 -44 14 -33 33 14 55 137 187 341 292 451 74 78 217 182 314 228 45
22 60 39 34 39 -7 0 -47 -17 -89 -38z"/>
<path d="M4660 1898 c-151 -284 -357 -494 -610 -624 -104 -52 -64 -57 44 -5
207 100 425 318 557 558 42 76 63 133 50 133 -5 0 -23 -28 -41 -62z"/>
<path d="M6923 1560 c-58 -35 -108 -134 -84 -164 6 -8 33 -17 58 -21 25 -4 57
-14 70 -22 27 -18 52 -14 147 20 72 26 86 38 86 73 0 28 -31 54 -118 97 -84
42 -113 45 -159 17z m158 -58 c98 -50 98 -65 -1 -98 -70 -24 -77 -25 -108 -10
-18 9 -43 16 -55 16 -41 0 -51 14 -34 46 24 47 67 84 97 84 15 0 60 -17 101
-38z"/>
<path d="M6465 1288 c-22 -12 -47 -25 -55 -28 -22 -10 -24 -49 -5 -70 35 -39
185 -52 206 -18 20 31 9 66 -31 102 -46 41 -60 43 -115 14z m100 -44 c14 -15
25 -33 25 -40 0 -20 -91 -18 -138 2 l-37 16 25 10 c14 6 36 16 50 24 36 19 48
17 75 -12z"/>
<path d="M2052 1224 c-33 -17 -82 -71 -82 -92 0 -43 121 -59 190 -24 45 22 50
51 13 91 -35 38 -77 47 -121 25z m88 -44 c37 -37 21 -50 -66 -50 -63 0 -70 14
-21 48 39 27 61 28 87 2z"/>
<path d="M6932 1147 c-28 -30 -28 -41 4 -66 27 -21 88 -28 110 -13 26 17 24
44 -5 73 -37 36 -79 38 -109 6z m83 -27 c16 -17 16 -20 2 -26 -19 -7 -69 16
-75 34 -6 20 53 14 73 -8z"/>
<path d="M2526 994 c-97 -35 -100 -81 -9 -128 43 -21 86 -20 107 3 26 28 32
86 12 116 -19 29 -50 31 -110 9z m82 -38 c8 -37 -7 -66 -34 -66 -33 0 -86 28
-81 43 4 13 86 48 102 43 6 -1 12 -11 13 -20z"/>
<path d="M4404 936 c-33 -14 -74 -60 -74 -82 0 -56 129 -58 163 -2 8 13 4 26
-17 57 -32 46 -30 45 -72 27z m56 -66 c0 -10 -47 -30 -70 -30 -28 0 -25 25 7
49 24 20 27 20 45 5 10 -10 18 -20 18 -24z"/>
<path d="M4804 889 c-37 -11 -144 -120 -144 -146 0 -41 21 -51 125 -58 85 -5
105 -3 135 12 52 27 60 62 27 110 -63 89 -82 100 -143 82z m91 -74 c62 -75 29
-102 -109 -90 -47 4 -86 11 -86 16 0 17 75 92 105 105 45 20 51 18 90 -31z"/>
</g>
</svg>
