<?xml version="1.0" standalone="no"?>
<!DOCTYPE svg PUBLIC "-//W3C//DTD SVG 20010904//EN"
 "http://www.w3.org/TR/2001/REC-SVG-20010904/DTD/svg10.dtd">
<svg version="1.0" xmlns="http://www.w3.org/2000/svg"
 width="1024.000000pt" height="559.000000pt" viewBox="0 0 1024.000000 559.000000"
 preserveAspectRatio="xMidYMid meet">
<metadata>
Created by potrace 1.16, written by Peter Selinger 2001-2019
</metadata>
<g transform="translate(0.000000,559.000000) scale(0.100000,-0.100000)"
fill="#000000" stroke="none">
<path d="M6665 4334 c-158 -19 -276 -42 -540 -108 -99 -24 -214 -50 -255 -57
-125 -21 -332 -15 -525 16 -204 32 -447 43 -587 26 -343 -40 -823 -212 -1138
-407 -356 -220 -701 -617 -808 -929 -44 -129 -55 -218 -49 -390 8 -228 47
-421 108 -536 55 -102 209 -237 400 -349 221 -130 629 -259 1049 -332 101 -17
443 -17 540 0 159 29 301 74 495 157 123 52 255 91 340 100 246 26 288 57 375
278 65 165 102 238 178 352 147 222 349 401 617 547 84 45 175 88 339 159 231
100 270 179 271 554 0 277 -15 333 -137 483 -39 48 -92 131 -120 185 -76 152
-148 213 -287 243 -60 12 -190 16 -266 8z m250 -55 c115 -21 188 -75 240 -179
14 -27 25 -51 25 -54 0 -2 -26 7 -58 20 -92 37 -187 47 -375 40 -216 -7 -325
-23 -592 -86 -194 -46 -261 -53 -407 -47 -73 4 -149 9 -168 12 -19 3 -8 -3 25
-12 95 -26 333 -24 455 4 269 62 325 73 440 89 76 10 197 17 310 18 177 0 188
-1 263 -27 42 -15 86 -27 97 -27 12 0 26 -13 36 -32 9 -18 34 -56 55 -84 22
-28 39 -53 39 -56 0 -3 -31 -8 -69 -11 -125 -10 -374 -111 -464 -188 -23 -21
2 -11 93 35 160 82 286 125 388 133 l79 6 25 -34 c62 -84 81 -218 41 -296 -23
-45 -96 -85 -288 -159 -337 -130 -608 -298 -826 -514 -176 -175 -249 -277
-368 -517 -63 -126 -89 -168 -122 -197 -45 -38 -59 -42 -186 -50 -108 -7 -170
-26 -335 -102 -75 -35 -176 -76 -225 -93 -95 -32 -303 -71 -374 -71 -43 1 -42
2 61 46 114 49 203 81 405 143 136 42 197 74 253 132 51 52 79 106 142 273 79
210 94 237 233 429 73 102 104 167 123 261 14 66 14 90 4 153 -6 41 -18 92
-26 112 l-14 36 8 -50 c4 -27 7 -99 7 -160 -1 -132 -18 -182 -100 -301 -167
-239 -205 -309 -264 -484 -59 -174 -129 -274 -228 -323 -26 -14 -130 -50 -230
-81 -206 -64 -213 -67 -377 -143 l-118 -56 -152 12 c-83 6 -196 18 -251 26
-92 14 -383 83 -438 104 -13 5 -38 32 -56 60 -42 65 -86 103 -164 142 -34 17
-88 56 -119 85 -46 44 -63 54 -90 53 l-33 -1 35 -8 c19 -5 43 -19 53 -32 39
-51 61 -69 144 -115 77 -43 138 -97 164 -146 9 -16 7 -17 -18 -11 -15 4 -71
25 -123 48 -243 103 -487 279 -582 420 -83 121 -110 269 -72 397 87 295 425
700 770 923 88 56 288 160 405 209 135 57 403 143 555 179 135 31 146 32 364
33 199 0 247 -4 410 -29 168 -26 201 -28 360 -23 174 6 286 24 490 81 89 25
339 75 420 85 110 12 228 13 295 0z m521 -906 c-10 -137 -33 -268 -58 -319
-32 -70 -96 -113 -263 -179 -38 -15 -122 -53 -185 -84 -322 -160 -552 -353
-722 -605 -73 -110 -114 -189 -174 -343 -39 -98 -87 -193 -97 -193 -1 0 -2 46
-2 103 -1 94 -3 107 -34 174 -19 40 -43 80 -54 90 -17 16 -17 12 5 -27 45 -79
62 -148 62 -245 1 -51 -5 -99 -11 -111 -15 -26 -94 -50 -190 -58 l-72 -6 -16
30 c-8 16 -20 63 -27 105 -14 92 1 207 35 269 20 37 27 42 80 52 32 7 73 22
92 35 41 28 100 117 146 219 111 247 308 497 524 661 176 135 402 259 633 350
225 88 248 99 287 139 22 22 41 40 43 40 3 0 1 -44 -2 -97z m-4616 -877 c0
-24 96 -159 146 -207 174 -163 405 -299 645 -379 368 -124 762 -184 1046 -160
246 21 394 60 633 170 133 61 255 100 312 100 17 0 28 -3 26 -7 -53 -103 -53
-105 -53 -233 0 -109 3 -131 22 -169 12 -25 21 -45 20 -46 -10 -4 -132 -33
-134 -32 -1 1 6 27 14 57 24 84 21 192 -6 273 -13 38 -25 67 -27 65 -2 -2 4
-26 13 -53 22 -72 22 -215 -1 -291 l-18 -62 -159 -66 c-459 -192 -812 -204
-1388 -48 l-104 28 -17 57 c-10 32 -36 86 -59 120 -52 81 -71 127 -81 201 l-7
61 -2 -52 c-1 -67 20 -130 74 -218 46 -76 73 -140 62 -151 -9 -9 -66 8 -197
58 -188 73 -334 151 -463 247 -67 51 -168 155 -201 208 -48 79 -80 223 -110
501 -2 23 0 42 5 42 5 0 9 -6 9 -14z"/>
<path d="M4625 4050 c-196 -34 -320 -77 -600 -207 -509 -237 -720 -407 -960
-777 -108 -166 -138 -249 -138 -376 -1 -70 4 -97 28 -154 29 -72 65 -139 71
-133 2 2 -12 40 -32 85 -53 122 -61 183 -40 284 22 100 51 160 157 319 216
323 397 472 826 680 303 147 453 204 643 245 130 29 440 26 569 -4 82 -19 221
-73 221 -85 0 -2 -33 3 -72 11 -124 26 -336 21 -523 -12 -297 -51 -429 -88
-570 -158 -117 -58 -715 -461 -796 -536 -124 -114 -213 -279 -246 -457 -11
-57 -14 -115 -10 -205 9 -203 22 -201 23 3 0 169 2 188 28 272 45 148 98 237
201 341 77 78 136 121 415 306 395 262 443 288 646 343 91 25 150 37 379 76
189 33 450 19 580 -30 197 -75 350 -225 431 -423 15 -38 29 -67 30 -65 8 7
-28 117 -57 177 -39 81 -176 219 -267 270 -35 19 -97 57 -139 84 -42 27 -99
58 -127 69 -192 73 -453 96 -671 57z"/>
<path d="M6505 4011 c-66 -8 -208 -41 -202 -47 2 -2 37 4 78 13 58 14 123 18
304 18 232 0 234 8 4 18 -68 3 -151 2 -184 -2z"/>
<path d="M6268 3953 c7 -3 16 -2 19 1 4 3 -2 6 -13 5 -11 0 -14 -3 -6 -6z"/>
<path d="M6046 3865 c-125 -44 -162 -135 -116 -283 11 -35 20 -89 20 -120 0
-118 43 -182 121 -182 48 0 89 20 189 92 41 29 125 82 185 117 61 35 127 77
148 94 89 69 90 164 2 207 -49 24 -138 26 -175 5 -35 -20 -42 -19 -97 19 -89
61 -195 80 -277 51z m164 -25 c19 -5 60 -26 91 -45 62 -38 90 -42 129 -20 37
21 100 18 150 -7 42 -22 45 -26 48 -68 3 -41 -1 -48 -35 -81 -21 -20 -87 -64
-148 -99 -60 -34 -146 -89 -191 -121 -114 -82 -164 -105 -205 -93 -52 15 -67
46 -78 164 -5 58 -17 132 -27 165 -20 70 -15 100 23 146 51 60 152 85 243 59z"/>
<path d="M7090 3691 c-221 -73 -527 -224 -732 -363 -162 -109 -362 -290 -473
-428 -174 -216 -316 -502 -317 -638 -1 -42 4 -58 22 -77 45 -48 141 -24 190
46 12 16 44 75 72 131 130 266 280 455 499 630 199 159 334 235 654 368 311
130 353 157 362 243 5 39 2 48 -25 78 -28 31 -35 33 -98 36 -54 2 -88 -4 -154
-26z m224 -22 c54 -42 24 -120 -68 -173 -22 -14 -131 -61 -240 -106 -254 -104
-368 -161 -508 -256 -315 -213 -502 -424 -673 -762 -54 -107 -75 -139 -108
-163 -22 -16 -51 -29 -64 -29 -33 0 -63 34 -63 71 0 123 158 436 319 633 77
94 247 256 346 331 124 94 307 206 460 283 344 174 529 226 599 171z"/>
<path d="M7055 3601 c-97 -37 -205 -87 -205 -95 0 -3 42 14 93 36 50 22 130
53 177 69 47 16 74 29 60 28 -14 0 -70 -17 -125 -38z"/>
<path d="M5877 2758 c-125 -161 -229 -372 -226 -458 0 -14 6 -2 14 28 25 104
141 320 251 465 20 26 33 47 31 47 -3 0 -35 -37 -70 -82z"/>
<path d="M4400 3641 c0 -44 38 -105 107 -171 53 -51 58 -54 23 -15 -86 95 -93
105 -111 157 -12 35 -18 45 -19 29z"/>
<path d="M4138 3573 c7 -3 16 -2 19 1 4 3 -2 6 -13 5 -11 0 -14 -3 -6 -6z"/>
<path d="M4216 3551 c157 -58 242 -117 419 -291 83 -81 171 -161 197 -179 54
-36 147 -79 228 -106 111 -36 227 -103 302 -173 44 -41 64 -55 50 -35 -59 84
-156 147 -337 218 -218 86 -246 104 -419 278 -60 60 -141 133 -180 163 -77 57
-223 131 -278 139 -25 4 -21 1 18 -14z"/>
<path d="M3538 3011 c29 -49 119 -138 170 -168 23 -14 116 -52 205 -85 314
-115 432 -177 570 -305 75 -68 192 -147 273 -184 92 -42 92 -35 1 11 -104 53
-177 104 -269 188 -142 131 -258 192 -558 299 -187 66 -242 94 -308 160 -32
32 -69 72 -81 88 l-23 30 20 -34z"/>
<path d="M3201 2447 c-1 -29 18 -59 70 -108 64 -59 63 -43 -1 25 -27 28 -54
63 -59 77 -7 18 -10 20 -10 6z"/>
<path d="M4516 2350 c66 -73 113 -142 141 -210 12 -30 23 -50 23 -43 0 23 -41
115 -70 157 -33 48 -62 79 -110 121 -22 19 -16 10 16 -25z"/>
<path d="M7356 3285 c-4 -33 -16 -98 -27 -144 -22 -95 -18 -120 6 -39 20 69
37 180 33 215 -2 19 -6 8 -12 -32z"/>
<path d="M6285 2668 c-118 -120 -187 -217 -260 -372 -78 -164 -77 -182 2 -26
98 192 152 269 297 418 44 45 77 82 72 82 -5 0 -55 -46 -111 -102z"/>
<path d="M5698 1959 c-10 -5 -23 -20 -29 -32 -10 -19 -8 -18 18 6 35 32 61 34
96 7 27 -22 66 -112 68 -158 1 -20 3 -22 6 -7 3 10 0 43 -7 72 -20 93 -93 147
-152 112z"/>
<path d="M2871 2300 c-1 -29 30 -146 60 -226 38 -100 108 -195 191 -258 l63
-49 -80 79 c-114 114 -165 209 -215 399 -10 39 -19 63 -19 55z"/>
<path d="M5291 1786 c-14 -56 -43 -117 -78 -163 -23 -30 -97 -193 -88 -193 3
0 19 28 36 63 17 34 51 92 75 128 41 62 81 174 71 202 -2 6 -9 -10 -16 -37z"/>
<path d="M4181 1426 c7 -6 149 -43 224 -57 109 -22 331 -17 438 10 49 11 96
26 105 32 15 9 14 9 -3 4 -56 -20 -242 -44 -333 -45 -100 0 -237 17 -357 45
-62 15 -81 18 -74 11z"/>
</g>
</svg>
