<?xml version="1.0" standalone="no"?>
<!DOCTYPE svg PUBLIC "-//W3C//DTD SVG 20010904//EN"
 "http://www.w3.org/TR/2001/REC-SVG-20010904/DTD/svg10.dtd">
<svg version="1.0" xmlns="http://www.w3.org/2000/svg"
 width="1024.000000pt" height="559.000000pt" viewBox="0 0 1024.000000 559.000000"
 preserveAspectRatio="xMidYMid meet">
<metadata>
Created by potrace 1.16, written by Peter Selinger 2001-2019
</metadata>
<g transform="translate(0.000000,559.000000) scale(0.100000,-0.100000)"
fill="#000000" stroke="none">
<path d="M4867 4675 c-68 -24 -117 -85 -117 -144 0 -20 13 -48 38 -81 79 -104
143 -266 176 -449 9 -46 16 -95 16 -110 l0 -26 -147 -1 c-121 0 -164 -4 -233
-23 -170 -46 -318 -131 -456 -263 -196 -188 -333 -431 -410 -728 -56 -212 -71
-505 -38 -725 38 -261 144 -526 284 -715 56 -76 195 -213 260 -257 140 -95
257 -134 425 -140 117 -5 136 -8 187 -34 242 -122 559 -80 828 109 127 89 285
260 378 407 67 108 151 306 188 444 100 374 94 731 -15 1072 -23 70 -26 89
-15 85 9 -3 81 -22 162 -41 241 -58 408 -121 533 -201 15 -10 34 -14 44 -10
16 6 17 17 12 125 -4 66 -14 165 -22 221 -60 403 -166 642 -374 851 -141 142
-285 223 -490 276 -89 22 -109 24 -266 20 -141 -4 -187 -9 -270 -31 -55 -14
-110 -31 -123 -36 -26 -11 -91 17 -195 83 -69 44 -194 161 -203 190 -21 71
-56 126 -86 136 -17 6 -31 11 -32 11 -1 -1 -18 -7 -39 -15z m63 -55 c0 -20
-71 -88 -96 -93 -52 -9 -38 49 19 83 34 21 77 27 77 10z m50 -105 c16 -36 36
-68 45 -71 8 -3 15 -13 15 -21 0 -8 4 -12 9 -9 4 3 36 -17 70 -44 82 -66 168
-115 335 -191 135 -61 139 -64 159 -108 10 -24 24 -76 29 -115 20 -148 47
-265 73 -325 15 -34 29 -60 31 -58 2 1 -8 39 -22 82 -14 44 -34 145 -45 225
-10 80 -26 160 -34 178 -10 21 -11 32 -4 32 11 0 158 -80 237 -129 23 -14 49
-40 57 -57 15 -31 19 -49 51 -219 21 -113 63 -238 104 -310 17 -30 33 -55 35
-55 2 0 -9 30 -24 68 -43 99 -78 223 -101 349 -11 61 -24 123 -30 137 -5 14
-7 26 -4 26 18 0 284 -201 317 -240 16 -19 29 -56 41 -116 9 -49 22 -105 27
-124 17 -56 77 -172 110 -210 25 -29 21 -18 -24 70 -48 96 -75 179 -93 295
l-6 40 92 -90 c100 -98 186 -197 304 -348 42 -54 76 -95 76 -91 0 27 -181 266
-296 392 -48 52 -79 92 -70 92 61 0 167 -38 276 -100 l55 -31 -40 36 c-73 65
-157 99 -298 120 -28 5 -58 24 -120 79 -45 40 -122 104 -172 142 -86 66 -88
69 -60 72 87 11 308 -24 458 -71 26 -8 47 -13 47 -10 0 2 -26 16 -57 29 -102
45 -207 66 -373 73 l-155 7 -70 46 c-38 25 -104 65 -145 89 l-75 43 140 23
c137 23 178 24 330 8 l40 -5 -45 16 c-66 24 -252 24 -363 1 -115 -24 -152 -19
-271 36 -112 52 -112 50 11 81 267 67 529 40 743 -76 310 -169 491 -447 575
-883 12 -62 45 -338 45 -377 0 -4 -37 13 -82 37 -108 56 -216 93 -420 144
-374 92 -516 161 -701 340 -166 161 -253 326 -307 582 -33 162 -24 148 -135
207 -88 47 -194 122 -203 144 -7 17 -32 7 -32 -12 0 -11 11 -76 24 -143 29
-146 51 -404 41 -502 -6 -67 -8 -72 -36 -82 l-29 -11 0 121 c-1 252 -64 505
-171 683 l-36 62 33 15 c18 9 43 30 55 47 13 16 24 30 26 30 2 0 17 -29 33
-65z m192 -289 c29 -18 76 -45 105 -59 58 -30 54 -24 83 -164 11 -56 24 -113
29 -125 l9 -23 -118 0 -118 0 -6 29 c-3 16 -6 53 -6 82 0 52 -24 239 -36 277
-7 23 -2 22 58 -17z m-204 -423 c21 -5 22 -10 22 -89 0 -100 3 -99 -132 -54
-104 35 -120 37 -87 11 34 -26 87 -53 138 -71 l43 -16 -59 -37 c-115 -70 -257
-247 -337 -418 -74 -159 -137 -362 -173 -564 -15 -81 -18 -155 -18 -390 0
-257 3 -303 22 -405 56 -290 148 -504 281 -651 l54 -59 -40 0 c-117 0 -293 58
-399 132 -417 291 -632 913 -523 1517 120 665 592 1136 1105 1105 44 -3 90 -8
103 -11z m429 -11 c15 -5 37 -38 72 -107 113 -226 312 -412 556 -518 49 -22
95 -44 101 -49 16 -12 60 -132 84 -231 101 -414 50 -867 -143 -1256 -125 -250
-337 -470 -558 -578 -127 -63 -223 -86 -354 -87 -123 0 -211 21 -300 73 -280
162 -445 586 -445 1141 0 548 188 1070 464 1289 112 89 236 138 474 187 20 4
22 7 12 19 -16 19 -79 19 -147 1 -29 -8 -55 -11 -58 -6 -3 4 -2 35 1 69 l7 61
106 -1 c58 -1 116 -4 128 -7z"/>
<path d="M4290 3493 c-144 -109 -273 -293 -343 -488 -27 -76 -71 -266 -82
-355 -11 -82 0 -57 20 45 55 295 183 552 366 738 89 89 100 107 39 60z"/>
<path d="M4869 3310 c-130 -136 -225 -333 -274 -568 -25 -121 -16 -125 15 -7
48 190 136 382 233 509 79 105 80 106 72 106 -5 0 -25 -18 -46 -40z"/>
<path d="M6050 2959 c0 -3 9 -41 20 -85 72 -278 70 -569 -5 -866 -14 -54 -25
-102 -25 -106 1 -15 19 25 39 88 42 125 62 243 68 385 7 171 -8 308 -48 452
-26 92 -48 151 -49 132z"/>
<path d="M5907 1621 c-81 -137 -194 -268 -319 -372 -68 -57 -65 -64 8 -15 119
80 244 219 314 348 51 95 49 125 -3 39z"/>
</g>
</svg>
