<?xml version="1.0" standalone="no"?>
<!DOCTYPE svg PUBLIC "-//W3C//DTD SVG 20010904//EN"
 "http://www.w3.org/TR/2001/REC-SVG-20010904/DTD/svg10.dtd">
<svg version="1.0" xmlns="http://www.w3.org/2000/svg"
 width="1024.000000pt" height="559.000000pt" viewBox="0 0 1024.000000 559.000000"
 preserveAspectRatio="xMidYMid meet">
<metadata>
Created by potrace 1.16, written by Peter Selinger 2001-2019
</metadata>
<g transform="translate(0.000000,559.000000) scale(0.100000,-0.100000)"
fill="#000000" stroke="none">
<path d="M4910 4604 c-14 -3 -66 -11 -117 -20 -208 -34 -334 -99 -385 -198
-30 -59 -36 -167 -13 -241 16 -49 17 -62 5 -89 -20 -48 -24 -103 -9 -138 7
-18 12 -49 10 -69 -2 -31 4 -44 33 -77 46 -51 47 -81 3 -119 -19 -15 -45 -44
-60 -64 -53 -70 -55 -94 -71 -929 -22 -1066 -23 -1318 -7 -1355 60 -146 234
-248 512 -302 142 -27 526 -25 660 4 269 59 452 187 480 336 14 76 -26 2077
-43 2146 -16 67 -33 95 -88 151 -57 58 -64 89 -24 115 31 20 55 73 47 104 -3
12 2 40 12 61 17 37 17 42 0 114 -17 72 -17 78 0 138 21 75 15 141 -21 215
-45 94 -156 154 -374 200 -73 15 -488 28 -550 17z m469 -50 c207 -30 325 -76
392 -152 27 -31 40 -57 45 -89 8 -58 -1 -133 -21 -172 -18 -37 -94 -77 -205
-111 -89 -27 -94 -30 -83 -41 14 -14 157 26 221 61 59 32 72 30 75 -15 2 -25
-5 -31 -63 -61 -148 -75 -358 -114 -614 -114 -95 0 -166 -4 -166 -9 0 -30 352
-25 515 8 127 25 235 62 297 100 46 29 53 28 48 -9 -9 -71 -200 -147 -440
-175 -428 -51 -960 55 -960 192 0 19 21 74 35 91 1 1 31 -11 66 -27 145 -65
418 -107 634 -97 143 7 211 17 228 36 9 9 -11 10 -93 3 -294 -23 -618 16 -777
94 -51 24 -54 28 -74 92 -23 76 -19 151 12 213 44 86 181 147 414 182 126 20
383 20 514 0z m-894 -717 c33 -23 165 -65 250 -81 150 -28 236 -36 403 -36
292 1 474 36 655 128 16 8 6 -18 -18 -47 -33 -38 -150 -84 -270 -106 -424 -75
-1023 1 -1058 135 -6 23 10 26 38 7z m232 -176 c277 -57 706 -45 921 25 88 29
92 29 92 5 0 -10 27 -48 59 -85 36 -39 64 -80 70 -103 6 -21 13 -96 16 -168 8
-180 35 -1585 35 -1808 0 -178 -1 -185 -26 -236 -43 -86 -167 -168 -327 -215
-147 -44 -211 -51 -432 -51 -180 0 -226 3 -318 23 -191 40 -299 88 -388 170
-100 92 -95 33 -80 871 16 964 28 1368 42 1415 7 25 32 62 70 101 32 34 59 71
59 82 0 31 9 33 61 13 27 -11 93 -28 146 -39z"/>
<path d="M4993 4523 c-20 -7 -15 -31 7 -38 26 -8 60 3 60 20 0 20 -37 31 -67
18z"/>
<path d="M5192 4503 c3 -18 38 -29 64 -19 26 10 3 36 -33 36 -27 0 -34 -4 -31
-17z"/>
<path d="M4777 4504 c-20 -20 -6 -35 31 -32 47 4 52 32 7 36 -17 2 -34 0 -38
-4z"/>
<path d="M5405 4500 c-11 -18 10 -32 41 -28 40 4 38 32 -3 36 -17 2 -34 -2
-38 -8z"/>
<path d="M4861 4436 c-11 -13 -9 -17 14 -26 30 -11 69 3 62 23 -6 18 -62 20
-76 3z"/>
<path d="M5095 4437 c-24 -18 -11 -37 26 -37 25 0 51 23 38 34 -14 13 -48 14
-64 3z"/>
<path d="M5311 4436 c-11 -13 -9 -17 14 -26 30 -11 69 3 62 23 -6 18 -62 20
-76 3z"/>
<path d="M5523 4404 c-6 -17 12 -34 37 -34 25 0 43 17 37 34 -4 10 -18 16 -37
16 -19 0 -33 -6 -37 -16z"/>
<path d="M4644 4399 c-10 -17 11 -31 42 -27 18 2 30 10 32 21 3 13 -4 17 -32
17 -19 0 -38 -5 -42 -11z"/>
<path d="M4977 4373 c-28 -7 -16 -38 17 -41 39 -5 57 15 32 34 -11 8 -22 13
-25 13 -3 -1 -14 -3 -24 -6z"/>
<path d="M5221 4371 c-23 -15 -5 -41 28 -41 37 0 50 19 26 37 -22 15 -35 16
-54 4z"/>
<path d="M4480 4350 c0 -65 149 -131 372 -165 124 -19 422 -19 543 -1 221 34
355 92 367 160 5 30 -15 29 -33 -2 -42 -74 -259 -130 -534 -139 -324 -10 -610
47 -676 136 -26 36 -39 39 -39 11z"/>
<path d="M4791 4331 c-23 -15 -5 -41 29 -41 19 0 33 6 37 16 6 17 -12 34 -37
34 -8 0 -21 -4 -29 -9z"/>
<path d="M5389 4324 c-10 -13 -10 -17 2 -25 21 -13 55 -11 68 5 10 12 8 17 -8
25 -28 15 -46 14 -62 -5z"/>
<path d="M5095 4287 c-24 -18 -11 -37 25 -37 36 0 49 19 25 37 -11 7 -22 13
-25 13 -3 0 -14 -6 -25 -13z"/>
<path d="M4470 4242 c0 -14 31 -38 78 -61 46 -24 182 -61 222 -61 44 0 8 19
-75 40 -88 22 -146 44 -187 72 -29 20 -38 22 -38 10z"/>
<path d="M4884 4111 c8 -12 70 -23 90 -15 14 5 15 9 4 15 -17 12 -101 11 -94
0z"/>
<path d="M4775 3865 c17 -8 48 -14 70 -14 37 0 39 1 21 14 -12 9 -40 15 -70
14 l-51 -1 30 -13z"/>
<path d="M4540 3619 c0 -25 179 -81 329 -104 112 -16 392 -20 426 -5 26 11 38
10 -170 14 -205 5 -359 28 -497 75 -49 16 -88 25 -88 20z"/>
<path d="M5658 3605 c-15 -9 -68 -26 -119 -40 -102 -27 -118 -35 -70 -35 71 0
231 56 231 80 0 13 -10 12 -42 -5z"/>
<path d="M4445 3490 c-7 -11 3 -16 55 -24 53 -9 140 -53 193 -98 52 -43 70
-45 43 -3 -47 71 -266 165 -291 125z"/>
<path d="M5699 3481 c-57 -22 -155 -86 -174 -114 -31 -44 -14 -48 30 -8 51 47
166 106 226 116 21 4 39 11 39 16 0 15 -72 9 -121 -10z"/>
<path d="M4428 3400 c-9 -19 -26 -771 -34 -1490 l-6 -545 24 -45 c43 -81 204
-165 393 -206 169 -36 523 -40 557 -6 8 8 -37 9 -154 5 -268 -10 -456 23 -636
108 -91 44 -129 81 -147 143 -13 45 -14 110 -5 501 5 248 10 561 10 698 0 136
2 247 4 247 3 0 20 -8 38 -19 18 -10 53 -22 78 -25 25 -4 85 -26 133 -49 l88
-42 -5 -150 c-8 -218 -10 -1274 -2 -1282 3 -3 8 -4 10 -2 3 2 8 325 12 717 4
392 11 715 15 718 4 2 43 7 86 10 66 5 92 2 168 -20 122 -35 200 -35 309 3
l83 29 7 -91 c3 -49 6 -170 6 -269 0 -112 4 -178 10 -178 6 0 10 98 10 275 0
151 3 275 8 275 145 6 244 33 286 79 11 12 23 21 28 21 4 0 8 -100 8 -222 0
-378 20 -1112 30 -1122 13 -13 13 194 0 999 -11 715 -18 915 -33 915 -7 0 -8
-71 -4 -220 5 -201 1 -241 -19 -209 -12 21 -132 69 -216 87 l-83 18 -7 45 c-3
24 -7 72 -7 107 -1 34 -5 62 -11 62 -6 0 -10 -42 -10 -105 l0 -105 -57 7 c-74
10 -483 10 -545 1 l-48 -8 0 120 c0 66 -4 120 -9 120 -10 0 -21 -97 -21 -182
0 -38 -4 -60 -12 -62 -7 -2 -47 -12 -90 -21 -42 -9 -110 -34 -152 -54 l-76
-37 -2 236 c-2 129 -6 228 -10 220z m872 -355 c166 -10 150 8 150 -165 l0
-147 -77 -29 c-98 -37 -217 -40 -303 -9 -43 16 -79 20 -162 19 l-108 0 0 157
0 158 43 6 c78 12 252 23 302 19 28 -2 97 -6 155 -9z m-530 -181 l0 -155 -22
6 c-13 4 -43 20 -68 35 -26 17 -77 35 -120 44 -75 16 -120 46 -120 81 0 18 63
72 108 91 50 22 160 52 195 53 l27 1 0 -156z m829 136 c119 -33 201 -83 201
-121 0 -26 -47 -77 -92 -100 -32 -16 -156 -39 -215 -39 -10 0 -13 35 -13 140
0 163 -8 155 119 120z"/>
<path d="M4911 3005 c-29 -7 -58 -18 -64 -24 -13 -13 -19 -14 78 4 44 8 114
15 155 15 51 1 69 4 55 10 -30 13 -162 10 -224 -5z"/>
<path d="M5305 2749 c-40 -15 -66 -18 -125 -14 -56 4 -71 2 -57 -6 51 -30 198
-16 252 25 l20 15 -20 0 c-11 0 -42 -9 -70 -20z"/>
<path d="M4626 2950 c-46 -18 -90 -49 -82 -57 2 -2 19 5 37 16 19 11 57 26 86
32 29 7 53 16 53 21 0 13 -42 8 -94 -12z"/>
<path d="M5675 2840 c-17 -11 -51 -23 -78 -26 -56 -8 -73 -24 -25 -24 49 0
103 18 123 40 25 28 15 33 -20 10z"/>
<path d="M4984 3380 c-66 -9 -134 -34 -134 -48 0 -5 24 -3 53 5 121 34 393 26
468 -13 30 -15 48 -4 24 16 -44 37 -276 59 -411 40z"/>
<path d="M5467 1884 c-8 -14 -4 -684 4 -684 17 0 22 78 20 346 -2 273 -8 363
-24 338z"/>
<path d="M5822 1358 c-6 -6 -12 -17 -12 -24 0 -33 -149 -128 -262 -167 -10 -4
-18 -12 -18 -18 0 -16 41 -4 135 40 90 42 147 87 165 130 15 36 10 57 -8 39z"/>
</g>
</svg>
