<?xml version="1.0" standalone="no"?>
<!DOCTYPE svg PUBLIC "-//W3C//DTD SVG 20010904//EN"
 "http://www.w3.org/TR/2001/REC-SVG-20010904/DTD/svg10.dtd">
<svg version="1.0" xmlns="http://www.w3.org/2000/svg"
 width="1024.000000pt" height="559.000000pt" viewBox="0 0 1024.000000 559.000000"
 preserveAspectRatio="xMidYMid meet">
<metadata>
Created by potrace 1.16, written by Peter Selinger 2001-2019
</metadata>
<g transform="translate(0.000000,559.000000) scale(0.100000,-0.100000)"
fill="#000000" stroke="none">
<path d="M4995 4728 c-37 -13 -82 -53 -101 -91 -14 -27 -13 -32 29 -105 51
-87 90 -178 117 -266 23 -75 50 -206 50 -241 0 -62 -89 -186 -177 -246 -51
-35 -60 -36 -92 -5 -42 40 -128 78 -190 83 -188 17 -371 -144 -371 -327 l0
-48 -47 -6 c-78 -11 -166 -60 -223 -123 -154 -174 -120 -427 73 -528 l54 -28
-33 -55 c-38 -62 -49 -117 -42 -206 11 -137 115 -247 257 -271 l40 -7 -27 -51
c-24 -47 -27 -62 -27 -157 0 -90 3 -111 23 -148 35 -65 88 -119 143 -144 50
-22 50 -22 42 -58 -15 -63 -9 -172 11 -224 36 -94 126 -169 218 -182 68 -9 67
-8 57 -54 -21 -95 28 -232 112 -312 120 -113 305 -105 423 18 57 59 87 135 94
234 l4 75 50 2 c30 1 71 12 103 28 111 54 171 162 162 295 -2 41 -8 82 -11 92
-6 13 3 19 46 32 107 31 175 104 204 218 16 62 14 97 -12 209 -5 21 -1 27 22
38 57 26 104 73 135 136 28 58 31 71 27 142 -2 44 -10 92 -19 109 l-16 31 55
23 c175 73 241 291 144 473 -32 60 -116 139 -174 162 l-43 18 0 116 c0 103 -3
121 -25 166 -33 67 -99 131 -168 163 -49 23 -70 27 -147 27 -90 0 -115 -7
-193 -56 -16 -10 -27 -6 -74 24 -113 72 -201 185 -218 279 -9 47 -15 47 116
-11 98 -43 222 -71 313 -71 99 0 291 63 291 96 0 7 -13 20 -30 29 -16 9 -30
17 -30 19 0 2 25 16 57 31 38 19 81 54 132 108 42 44 111 115 155 158 50 49
76 81 71 89 -10 16 -149 80 -234 109 -98 34 -206 47 -285 35 -59 -9 -66 -8
-60 5 4 9 9 26 11 39 5 19 1 22 -29 22 -81 0 -220 -62 -306 -135 -57 -49 -128
-151 -162 -232 -24 -57 -29 -64 -34 -43 -3 14 -12 65 -22 115 -9 49 -32 137
-51 195 -64 192 -86 217 -168 188z m46 -67 c-20 -36 -111 -70 -111 -41 0 28
96 88 113 70 5 -4 4 -17 -2 -29z m73 -128 c44 -138 72 -275 86 -433 6 -69 20
-148 30 -177 34 -96 113 -187 223 -255 46 -29 53 -38 41 -51 -9 -9 -139 82
-204 142 -30 28 -58 51 -63 51 -15 0 -24 -46 -43 -209 l-18 -163 -22 25 c-21
24 -21 27 -7 118 22 145 12 430 -21 582 -28 129 -82 276 -128 350 -17 26 -29
49 -27 51 2 2 23 13 47 25 24 12 45 28 49 36 11 31 23 12 57 -92z m583 22 c-6
-22 -7 -39 -1 -44 5 -5 38 -3 79 6 127 27 302 -4 452 -80 l47 -24 -28 -18
c-15 -10 -65 -61 -112 -113 -105 -118 -156 -158 -236 -187 -35 -13 -64 -30
-66 -38 -2 -8 10 -23 27 -33 17 -10 31 -22 31 -26 0 -4 -26 -15 -57 -25 -86
-27 -235 -24 -338 6 -81 24 -215 85 -215 99 0 7 91 66 175 112 116 65 295 123
560 181 54 12 57 14 26 17 -81 8 -337 -52 -492 -117 -69 -29 -187 -92 -252
-135 l-28 -19 7 29 c14 63 68 178 108 232 70 94 154 157 260 193 68 23 66 24
53 -16z m-624 -727 c-46 -50 -174 -149 -184 -143 -17 11 -9 24 23 41 42 22
133 108 161 153 l22 36 3 -29 c3 -20 -4 -37 -25 -58z m-347 -53 c59 -29 107
-82 128 -143 l14 -40 -46 -12 c-106 -26 -201 -104 -251 -204 l-23 -47 -43 45
c-44 46 -90 74 -157 95 -35 12 -38 16 -38 50 0 64 27 135 71 185 91 103 223
131 345 71z m370 -100 c-8 -142 -11 -151 -40 -132 -11 8 -46 22 -76 32 -91 30
-92 48 -7 108 34 25 75 59 91 76 17 17 32 31 34 31 3 0 2 -52 -2 -115z m307
-59 c34 -23 57 -46 55 -55 -2 -8 -24 -19 -53 -26 -77 -19 -101 -31 -151 -77
l-47 -43 6 40 c4 22 11 85 17 140 18 162 13 154 68 103 26 -23 73 -61 105 -82z
m480 41 c100 -59 162 -166 160 -278 -1 -75 -15 -99 -56 -99 -30 0 -113 -19
-147 -34 -11 -4 -20 7 -34 41 -52 128 -144 209 -283 249 -7 2 -13 8 -13 14 0
22 77 94 125 117 70 34 181 29 248 -10z m-875 -146 c71 -37 126 -111 140 -189
33 -181 -104 -374 -282 -398 -98 -14 -204 47 -258 148 -19 36 -23 59 -23 133
0 84 2 94 36 154 84 153 254 220 387 152z m532 -37 c105 -31 179 -102 220
-210 51 -139 6 -279 -115 -354 -33 -21 -52 -25 -115 -25 -63 1 -83 5 -128 29
-117 65 -185 169 -190 297 -6 127 48 217 154 259 61 24 105 25 174 4z m-1152
-73 c49 -25 107 -87 127 -133 8 -21 15 -64 15 -96 l0 -59 -42 -12 c-100 -29
-190 -107 -236 -203 -26 -55 -28 -57 -67 -57 -84 -1 -178 66 -215 151 -76 176
37 386 230 429 52 12 145 2 188 -20z m1723 -205 c72 -36 114 -78 152 -151 27
-52 31 -70 31 -140 0 -92 -18 -137 -81 -197 -49 -48 -99 -68 -167 -68 l-54 0
-7 38 c-18 99 -96 211 -177 253 l-37 19 24 42 c21 39 31 78 39 161 3 35 11 43
61 62 58 22 150 14 216 -19z m-894 -193 c-3 -2 -27 -3 -55 -1 l-51 3 32 48 31
48 24 -47 c13 -25 21 -48 19 -51z m-642 21 c36 -68 128 -134 206 -148 33 -6
37 -10 43 -45 7 -46 -7 -128 -30 -177 -25 -53 -97 -127 -152 -157 -129 -70
-279 -30 -347 95 -26 47 -30 63 -30 138 0 72 4 93 27 140 41 83 112 149 193
178 53 19 69 14 90 -24z m705 -104 c56 -29 115 -90 141 -147 33 -71 38 -200
10 -274 -26 -69 -76 -128 -138 -165 -42 -25 -59 -28 -128 -29 -69 0 -86 4
-125 27 -98 58 -157 149 -167 258 -15 160 75 304 217 351 40 14 145 2 190 -21z
m515 -40 c189 -130 194 -395 9 -486 -92 -45 -195 -25 -285 55 -38 33 -40 38
-30 64 6 16 11 67 11 115 0 69 -6 99 -25 147 -14 33 -25 61 -25 62 0 2 26 0
58 -3 69 -7 122 6 182 45 25 16 49 30 53 30 5 1 28 -12 52 -29z m-895 -9 c0
-12 -20 -25 -27 -18 -7 7 6 27 18 27 5 0 9 -4 9 -9z m-690 -139 c0 -161 109
-299 253 -318 51 -7 61 -18 24 -28 -12 -3 -42 -22 -65 -42 -41 -35 -46 -36
-98 -31 -66 7 -129 42 -177 97 -80 94 -77 247 7 348 42 49 56 43 56 -26z m654
-292 c10 -19 39 -56 64 -82 l46 -47 -47 -41 c-41 -36 -89 -116 -111 -182 -14
-45 -150 2 -206 70 -50 60 -74 173 -51 235 6 16 20 26 41 30 48 10 113 52 166
110 l49 52 16 -55 c8 -30 23 -71 33 -90z m1208 100 c21 -57 22 -133 2 -193
-16 -47 -81 -117 -129 -139 -22 -10 -28 -7 -69 38 -24 27 -56 56 -70 63 l-26
14 52 29 c29 16 62 38 74 49 30 28 70 107 78 152 7 36 9 38 39 35 27 -3 34 -9
49 -48z m-575 -141 c20 -17 56 -40 82 -52 25 -12 47 -22 49 -23 2 -1 -2 -21
-8 -44 -18 -67 -105 -150 -157 -150 -11 0 -27 17 -41 43 -13 24 -39 60 -59 80
l-35 37 49 44 c26 24 55 55 62 70 8 14 16 26 19 26 2 0 20 -14 39 -31z m-994
-118 c16 -131 127 -242 258 -258 38 -4 49 -10 49 -23 0 -12 -11 -20 -32 -24
-81 -15 -167 -74 -229 -155 -30 -41 -54 -39 -120 12 -60 45 -93 113 -97 202
-5 98 23 172 94 242 29 29 57 53 62 53 5 0 12 -22 15 -49z m1263 -7 c23 -13
56 -40 74 -61 146 -165 95 -410 -96 -463 -46 -13 -47 -13 -67 16 -40 57 -124
131 -168 148 l-45 17 -1 75 c-1 63 1 74 15 74 31 0 122 60 151 100 15 21 34
60 41 85 14 51 21 52 96 9z m-696 -9 c50 -18 124 -19 169 -4 31 11 35 9 73
-27 22 -22 53 -66 69 -99 24 -50 29 -73 29 -135 0 -96 -22 -159 -80 -223 -58
-65 -106 -86 -193 -87 -80 0 -120 15 -177 66 -60 55 -92 123 -98 211 -8 121
35 221 119 283 23 16 43 30 44 30 1 0 22 -7 45 -15z m-249 -371 c24 -112 117
-211 233 -248 41 -14 -5 -142 -77 -216 -57 -58 -127 -90 -200 -90 -98 0 -168
44 -215 134 -22 43 -26 64 -26 131 0 67 4 89 27 137 36 73 121 153 185 172 59
18 65 16 73 -20z m716 -56 c157 -107 191 -341 67 -464 -75 -75 -185 -90 -285
-38 -82 42 -173 185 -167 260 3 36 5 38 53 49 98 22 173 83 220 179 31 64 38
65 112 14z m-398 -373 c35 -75 107 -151 170 -179 48 -22 56 -42 48 -125 -6
-72 -43 -146 -97 -195 -55 -50 -102 -69 -171 -69 -142 -1 -260 131 -260 292 0
92 5 107 41 115 74 14 181 111 221 199 7 15 13 27 15 27 1 0 16 -29 33 -65z"/>
<path d="M4505 3731 c-41 -19 -98 -73 -108 -103 -4 -10 -5 -18 -4 -18 2 0 25
21 53 48 30 29 66 52 92 60 23 7 40 17 37 22 -9 14 -25 12 -70 -9z"/>
<path d="M5897 3559 c43 -45 73 -102 73 -139 0 -11 5 -20 11 -20 12 0 3 72
-13 105 -16 32 -51 66 -83 82 -28 14 -27 12 12 -28z"/>
<path d="M4795 3451 c-22 -10 -53 -31 -69 -47 -38 -38 -76 -120 -75 -164 0
-32 2 -30 24 29 31 83 70 130 132 161 79 38 67 57 -12 21z"/>
<path d="M5700 3180 c0 -68 -18 -117 -57 -161 -39 -43 -39 -60 1 -34 55 36 97
178 66 225 -7 11 -10 3 -10 -30z"/>
<path d="M4140 3329 c-77 -47 -120 -109 -120 -176 l1 -38 18 52 c25 73 60 114
127 151 47 25 54 32 34 32 -14 0 -41 -10 -60 -21z"/>
<path d="M6205 2922 c0 -80 -3 -92 -28 -131 -36 -55 -29 -64 12 -15 34 42 47
98 38 170 -9 82 -22 67 -22 -24z"/>
<path d="M4444 2951 c-68 -41 -124 -143 -124 -224 0 -42 9 -29 26 39 18 65 59
131 106 168 39 30 34 42 -8 17z"/>
<path d="M5010 2812 c-49 -51 -75 -115 -68 -168 l4 -29 8 30 c19 77 42 122 86
166 28 29 40 49 31 49 -8 0 -36 -22 -61 -48z"/>
<path d="M5351 2543 c-14 -47 -79 -125 -126 -151 -11 -6 -17 -14 -13 -18 15
-14 102 51 131 97 28 46 47 119 30 119 -5 0 -15 -21 -22 -47z"/>
<path d="M5866 2600 c-10 -46 -51 -115 -78 -135 -17 -11 -19 -15 -6 -15 24 0
86 75 93 113 10 49 1 82 -9 37z"/>
<path d="M4614 2307 c2 -29 14 -62 30 -87 32 -49 56 -54 26 -6 -11 19 -30 58
-40 88 l-20 53 4 -48z"/>
<path d="M5844 2051 c10 -53 -4 -109 -41 -164 -18 -27 -32 -52 -30 -54 10 -10
77 81 87 119 13 46 8 105 -11 122 -9 8 -10 3 -5 -23z"/>
<path d="M4978 2163 c-43 -49 -72 -166 -53 -210 6 -13 11 1 15 45 5 40 18 84
38 122 30 59 30 77 0 43z"/>
<path d="M5326 1945 c-27 -73 -61 -126 -99 -151 -23 -16 -44 -30 -46 -31 -2
-2 -2 -6 1 -9 9 -9 68 25 95 54 37 40 65 100 60 130 -3 24 -4 25 -11 7z"/>
<path d="M4614 1713 c-36 -74 -20 -194 34 -255 29 -34 30 -18 1 35 -23 42 -29
65 -29 115 0 34 7 79 15 99 18 42 18 43 6 43 -5 0 -17 -17 -27 -37z"/>
<path d="M5606 1575 c-17 -69 -40 -119 -68 -151 -21 -24 -26 -34 -15 -34 23 0
76 69 88 113 6 21 9 53 7 70 l-4 32 -8 -30z"/>
<path d="M5266 1127 c-19 -55 -72 -117 -132 -154 -15 -9 -16 -12 -3 -12 8 -1
35 12 60 27 54 34 102 116 97 164 -3 29 -4 28 -22 -25z"/>
</g>
</svg>
