<?xml version="1.0" standalone="no"?>
<!DOCTYPE svg PUBLIC "-//W3C//DTD SVG 20010904//EN"
 "http://www.w3.org/TR/2001/REC-SVG-20010904/DTD/svg10.dtd">
<svg version="1.0" xmlns="http://www.w3.org/2000/svg"
 width="1024.000000pt" height="559.000000pt" viewBox="0 0 1024.000000 559.000000"
 preserveAspectRatio="xMidYMid meet">
<metadata>
Created by potrace 1.16, written by Peter Selinger 2001-2019
</metadata>
<g transform="translate(0.000000,559.000000) scale(0.100000,-0.100000)"
fill="#000000" stroke="none">
<path d="M4977 4996 c-67 -25 -70 -31 -63 -117 6 -76 6 -77 -20 -83 -36 -9
-54 -59 -54 -154 0 -65 4 -84 21 -106 20 -26 21 -32 14 -304 -8 -338 -18 -459
-45 -520 -14 -31 -60 -84 -149 -171 -113 -110 -133 -136 -166 -204 -67 -142
-66 -114 -63 -1368 3 -1198 1 -1155 50 -1219 110 -143 605 -205 983 -124 179
38 267 98 294 199 7 27 11 414 11 1175 1 1245 3 1204 -59 1332 -35 73 -103
157 -188 231 -73 63 -104 99 -132 155 -26 50 -36 173 -46 555 -6 214 -5 240
10 251 57 42 28 276 -35 276 -18 0 -19 6 -17 81 2 79 1 82 -26 103 -25 18 -44
21 -155 24 -89 1 -138 -2 -165 -12z m281 -33 c33 -8 27 -21 -15 -30 -87 -18
-298 -4 -275 19 23 23 209 31 290 11z m-211 -65 c69 -11 184 -3 234 17 13 5
14 -5 5 -75 -11 -96 -8 -95 -166 -95 -154 0 -156 1 -164 80 -4 35 -9 72 -13
82 -5 13 -3 15 12 9 11 -4 52 -12 92 -18z m-123 -142 c-3 -8 3 -19 14 -25 34
-18 182 -30 264 -21 86 10 122 24 114 46 -3 8 -2 14 3 14 38 0 68 -158 38
-204 -24 -36 -103 -49 -272 -44 -106 3 -148 9 -172 21 l-33 18 0 82 c0 59 5
89 16 105 17 24 36 30 28 8z m161 -273 c66 -3 145 -1 175 5 30 6 56 9 57 8 1
-1 5 -114 9 -252 l7 -251 -39 -13 c-68 -23 -332 -16 -373 9 -11 7 -12 54 -6
261 8 250 8 252 29 245 11 -3 75 -9 141 -12z m70 -550 c66 3 134 9 151 12 l31
7 6 -98 c10 -154 57 -231 225 -369 52 -43 122 -149 148 -224 16 -46 27 -107
32 -183 5 -62 6 -592 3 -1178 -7 -1238 5 -1119 -118 -1180 -213 -108 -690
-120 -966 -25 -89 31 -125 59 -151 114 -21 46 -21 48 -24 1165 -3 1245 -4
1216 62 1352 29 58 57 91 161 192 151 145 168 176 186 333 l11 106 62 -14 c43
-11 96 -13 181 -10z"/>
<path d="M4890 4691 c0 -24 116 -45 238 -42 58 2 24 21 -37 21 -53 0 -140 12
-183 26 -10 3 -18 1 -18 -5z"/>
<path d="M5270 4320 c0 -69 5 -132 10 -140 7 -10 10 26 10 110 0 69 -5 132
-10 140 -7 10 -10 -26 -10 -110z"/>
<path d="M4957 4363 c-10 -103 -8 -341 3 -323 9 17 18 375 9 384 -3 4 -9 -24
-12 -61z"/>
<path d="M5280 3839 c1 -77 25 -170 47 -177 10 -3 9 7 -2 38 -8 23 -19 78 -25
122 -5 45 -12 83 -15 86 -3 3 -5 -28 -5 -69z"/>
<path d="M4948 3870 c-4 -19 -12 -66 -18 -104 -6 -38 -22 -90 -35 -117 -29
-57 -33 -78 -10 -59 40 33 79 172 73 260 -3 51 -4 52 -10 20z"/>
<path d="M4723 3442 c-69 -66 -119 -145 -137 -216 -22 -84 -8 -90 20 -10 27
78 74 150 139 214 25 24 45 48 45 52 0 17 -19 6 -67 -40z"/>
<path d="M5470 3475 c0 -3 25 -36 56 -72 71 -83 109 -167 129 -279 8 -48 15
-92 15 -98 0 -6 5 -4 10 4 5 8 7 38 4 65 -15 121 -64 238 -134 318 -39 43 -80
76 -80 62z"/>
<path d="M4545 2953 c-11 -145 4 -1966 17 -1978 6 -7 8 284 6 873 -3 781 -1
881 12 876 120 -53 291 -77 540 -78 249 0 446 26 532 70 l29 15 -7 -851 c-5
-588 -4 -850 3 -850 14 0 25 733 21 1325 l-3 440 -45 22 c-81 39 -327 73 -525
73 -195 0 -438 -33 -524 -71 l-43 -19 7 119 c5 77 4 121 -3 125 -6 4 -13 -30
-17 -91z m919 -118 c112 -17 163 -31 191 -51 17 -12 17 -16 5 -28 -74 -69
-570 -106 -845 -62 -115 18 -189 36 -225 56 -66 35 99 82 370 104 92 8 408 -4
504 -19z"/>
<path d="M4913 2820 c-79 -9 -169 -28 -193 -41 -24 -13 8 -11 87 5 37 8 135
18 216 22 86 4 143 10 135 15 -15 10 -144 9 -245 -1z"/>
<path d="M5245 2810 c3 -5 20 -10 36 -10 18 0 28 4 24 10 -3 6 -20 10 -36 10
-18 0 -28 -4 -24 -10z"/>
<path d="M5501 2777 c-15 -19 -96 -35 -210 -43 -69 -5 -89 -9 -72 -16 31 -11
221 7 266 26 19 8 35 22 35 30 0 20 -4 20 -19 3z"/>
<path d="M5003 1100 c-51 -12 -134 -56 -185 -98 -27 -23 -67 -44 -94 -51 -69
-18 -143 -58 -156 -86 -16 -36 3 -70 53 -96 111 -56 393 -96 584 -83 165 11
144 23 -42 24 -290 0 -507 43 -568 110 -15 17 -16 22 -5 36 15 18 72 48 110
58 23 6 22 4 -9 -23 -19 -17 -32 -33 -29 -37 13 -12 48 9 134 81 49 41 114 87
144 102 51 26 64 28 180 28 116 0 129 -2 184 -28 33 -15 87 -51 120 -81 65
-57 133 -106 147 -106 21 0 6 27 -23 45 -18 10 -27 20 -21 22 18 6 120 -45
127 -64 13 -33 -49 -75 -159 -109 -50 -15 -56 -19 -32 -22 45 -6 158 37 195
74 17 17 32 37 32 44 0 30 -68 79 -141 101 -49 15 -89 35 -119 60 -54 45 -130
84 -190 98 -51 12 -190 13 -237 1z"/>
<path d="M5039 1020 c-25 -4 -64 -17 -87 -29 -50 -26 -172 -138 -172 -158 0
-8 32 15 73 52 39 37 89 75 110 86 66 34 202 41 287 14 11 -4 20 -2 20 4 0 25
-151 46 -231 31z"/>
</g>
</svg>
