<?xml version="1.0" standalone="no"?>
<!DOCTYPE svg PUBLIC "-//W3C//DTD SVG 20010904//EN"
 "http://www.w3.org/TR/2001/REC-SVG-20010904/DTD/svg10.dtd">
<svg version="1.0" xmlns="http://www.w3.org/2000/svg"
 width="1408.000000pt" height="768.000000pt" viewBox="0 0 1408.000000 768.000000"
 preserveAspectRatio="xMidYMid meet">
<metadata>
Created by potrace 1.16, written by Peter Selinger 2001-2019
</metadata>
<g transform="translate(0.000000,768.000000) scale(0.100000,-0.100000)"
fill="#000000" stroke="none">
<path d="M8625 6816 c-169 -33 -391 -164 -568 -335 -109 -105 -131 -155 -71
-163 24 -3 24 -3 -15 -59 -22 -30 -78 -127 -124 -216 -102 -194 -126 -231
-208 -309 -122 -115 -503 -346 -693 -420 -372 -142 -647 -330 -1156 -789 -272
-246 -401 -397 -447 -523 -32 -88 -30 -127 8 -163 l30 -28 -53 -68 c-307 -386
-450 -603 -519 -789 -12 -31 -35 -69 -53 -85 -33 -31 -304 -213 -503 -338
-156 -98 -263 -182 -347 -271 -73 -78 -101 -129 -92 -166 15 -60 79 -56 297
15 84 28 154 49 155 48 1 -1 -26 -41 -60 -89 -141 -196 -185 -338 -104 -338
11 0 61 29 111 63 160 111 567 356 567 341 0 -2 -74 -109 -163 -237 -208 -295
-404 -589 -417 -622 -15 -39 -12 -81 6 -99 21 -21 97 -20 153 3 44 18 45 18
80 -6 72 -49 217 -16 329 75 54 44 54 44 98 32 59 -17 140 -9 200 20 28 14 82
57 124 100 97 98 609 737 694 867 23 34 92 93 110 93 2 0 2 -9 -1 -20 -19 -73
91 -62 308 30 l68 29 -6 -63 c-8 -83 4 -170 27 -198 15 -19 21 -21 41 -11 l24
10 0 -137 c0 -122 2 -140 19 -159 22 -25 54 -27 82 -6 29 22 34 18 34 -27 1
-67 19 -176 35 -207 29 -57 88 -45 168 32 l47 46 30 -58 c16 -32 40 -67 53
-77 19 -14 31 -44 51 -120 31 -120 32 -135 7 -165 -18 -23 -26 -24 -148 -25
-189 -3 -240 -10 -283 -38 -47 -31 -82 -101 -78 -153 4 -53 28 -54 76 -4 21
23 47 41 58 41 10 0 31 -16 47 -35 40 -51 92 -63 165 -40 31 10 101 21 156 25
l98 7 67 -43 c36 -24 90 -62 119 -84 66 -52 114 -72 161 -68 35 3 36 2 52 -45
18 -56 30 -70 51 -62 35 13 56 120 40 194 l-10 44 71 -6 c40 -3 96 -15 125
-26 87 -35 165 -26 203 21 15 19 17 19 47 4 17 -9 45 -36 62 -61 17 -25 34
-45 38 -45 36 0 43 100 12 168 l-19 42 29 0 c38 0 82 17 97 37 20 26 61 1 80
-47 26 -65 73 -46 73 30 0 31 1 32 36 26 45 -9 98 9 124 41 18 23 22 25 50 13
17 -7 40 -27 52 -44 27 -38 37 -46 55 -39 19 7 17 97 -3 139 -22 45 -79 92
-124 101 -19 3 -49 12 -67 20 -18 7 -43 13 -56 13 -13 0 -34 12 -48 26 -55 59
-115 67 -259 34 -116 -27 -147 -25 -217 10 -72 36 -99 71 -148 193 -40 98 -43
119 -25 162 6 17 16 100 21 185 10 186 20 224 129 468 95 215 150 360 194 510
l33 114 64 22 c243 86 482 305 714 656 271 410 336 558 337 770 1 150 -24 223
-100 300 l-57 57 8 79 c4 43 6 196 4 339 -2 143 0 294 5 335 16 135 92 256
209 331 49 31 51 31 137 25 54 -4 107 -3 140 5 67 14 74 8 80 -71 8 -104 50
-103 101 3 83 168 61 351 -56 478 -44 47 -76 70 -148 105 -50 24 -96 44 -102
44 -6 0 -14 11 -17 25 -9 35 -70 101 -122 131 -159 93 -510 154 -689 120z
m380 -70 c172 -41 319 -106 356 -158 12 -16 20 -30 18 -31 -2 -1 -17 -9 -34
-17 -42 -22 -72 -81 -80 -159 -4 -36 -11 -73 -16 -82 -12 -24 -50 -36 -189
-60 -153 -26 -207 -47 -216 -85 -8 -31 1 -50 39 -78 24 -18 49 -21 190 -27 89
-4 177 -12 195 -19 l32 -12 -45 -30 c-59 -39 -140 -130 -171 -193 -47 -97 -54
-166 -53 -511 1 -278 -1 -337 -20 -459 -25 -168 -65 -325 -120 -471 -23 -59
-41 -110 -41 -113 0 -3 -5 1 -10 9 -5 8 -10 61 -10 118 0 90 -2 103 -16 100
-10 -2 -26 -33 -44 -85 -15 -45 -46 -114 -69 -153 -43 -73 -126 -168 -137
-158 -3 3 -1 32 5 64 19 102 11 177 -18 160 -6 -4 -11 -24 -11 -45 0 -21 -7
-77 -15 -124 -16 -90 -13 -117 12 -117 49 0 137 92 209 217 29 51 44 70 44 55
0 -12 7 -39 16 -61 l16 -39 -76 -149 c-243 -481 -611 -888 -1024 -1134 -98
-58 -259 -135 -267 -127 -2 1 10 59 26 128 28 122 30 150 10 150 -20 0 -43
-64 -96 -268 -30 -114 -77 -274 -105 -357 -109 -318 -102 -284 -107 -540 -3
-126 -9 -234 -13 -239 -6 -6 -25 2 -48 17 -21 15 -42 27 -47 27 -5 0 -30 -23
-55 -50 -25 -28 -53 -50 -61 -50 -9 0 -29 29 -49 69 l-33 69 31 49 c35 55 82
152 82 171 0 28 -20 7 -80 -85 -66 -101 -196 -243 -223 -243 -9 0 -18 8 -21
18 -10 31 -25 165 -26 224 0 31 -3 63 -6 72 -10 26 -37 18 -67 -19 -30 -38
-51 -44 -61 -19 -10 27 -6 144 9 249 12 88 12 102 -1 115 -14 13 -20 10 -54
-30 l-39 -45 -1 102 c0 107 11 207 36 337 13 65 14 80 2 87 -24 15 -39 -16
-62 -132 l-23 -114 -59 -29 c-64 -31 -256 -97 -262 -91 -2 2 8 25 22 51 23 42
25 49 12 62 -13 13 -32 4 -153 -71 -170 -105 -257 -149 -372 -187 -176 -59
-190 -37 -110 171 21 55 41 87 66 109 35 31 38 32 107 25 91 -8 142 4 274 64
59 27 154 63 212 81 281 86 628 263 797 406 46 40 54 43 76 33 66 -30 210 32
366 158 133 108 469 445 574 578 122 153 280 389 327 487 131 278 69 585 -142
691 -112 57 -233 67 -573 46 -194 -11 -235 -20 -215 -44 15 -18 111 -20 335
-4 257 18 393 -8 488 -91 78 -68 117 -170 117 -309 0 -156 -37 -251 -190 -478
-149 -223 -254 -348 -474 -568 -273 -272 -415 -383 -531 -414 -53 -14 -61 -4
-47 61 11 47 21 60 113 146 55 52 126 127 158 166 75 92 192 267 185 278 -12
18 -32 6 -64 -39 -201 -285 -356 -441 -517 -519 -130 -63 -214 -55 -229 21 -6
33 -3 38 94 132 120 118 213 253 173 253 -9 0 -32 -25 -121 -134 -72 -88 -194
-188 -284 -230 -140 -68 -340 -85 -421 -38 -47 28 -50 28 -129 -9 -79 -37
-175 -50 -194 -26 -11 13 -3 28 53 99 75 95 162 255 147 270 -6 6 -27 -19 -58
-69 -101 -164 -169 -246 -243 -294 -88 -57 -125 -30 -101 70 14 59 114 265
199 411 62 106 73 140 46 140 -17 0 -67 -75 -160 -238 -74 -128 -178 -268
-219 -293 -89 -55 -129 28 -91 188 31 132 143 348 302 586 98 145 159 222 260
329 79 82 100 118 69 118 -45 0 -213 -184 -385 -422 -120 -167 -182 -234 -206
-225 -15 6 -17 15 -12 56 12 104 99 224 302 419 143 139 393 359 535 473 330
264 687 450 990 515 113 24 339 24 468 0 51 -9 97 -14 102 -11 33 21 -23 47
-148 71 -62 12 -127 15 -232 13 l-145 -4 111 66 c201 120 313 206 382 294 24
30 77 119 118 197 97 182 162 290 214 352 26 31 40 57 38 70 -2 12 -8 20 -13
19 -6 -1 -24 -4 -40 -8 -27 -6 -24 -1 35 55 138 129 375 274 500 306 72 18
309 12 405 -10z m520 -295 c147 -69 217 -168 223 -318 3 -56 -1 -99 -13 -140
l-17 -58 -20 52 c-34 93 -115 139 -303 174 -81 15 -440 8 -456 -8 -7 -7 -10
-15 -8 -18 3 -2 99 -6 215 -9 215 -4 301 -17 413 -62 68 -27 37 -37 -91 -31
-87 4 -129 11 -183 31 -60 22 -86 26 -188 26 -127 0 -202 13 -211 37 -13 32
12 41 216 78 69 13 135 28 147 34 31 17 43 47 57 141 10 70 17 89 38 107 31
26 59 21 181 -36z m-373 -1770 c29 -73 31 -243 4 -341 -25 -95 -100 -243 -221
-435 -240 -383 -466 -624 -685 -732 -123 -60 -122 -53 10 83 69 71 156 168
193 214 123 153 265 376 357 565 136 278 188 422 233 652 l22 112 33 -32 c17
-17 42 -56 54 -86z m-3799 -1028 c-57 -130 -81 -306 -48 -363 8 -14 14 -30 15
-37 1 -38 -453 -503 -492 -503 -16 0 -7 64 22 151 58 172 123 282 354 588 92
121 169 221 171 221 2 0 -8 -26 -22 -57z m169 -410 c-3 -48 0 -63 18 -85 29
-38 100 -39 153 -4 30 21 38 22 48 10 34 -42 141 -37 250 12 l59 27 49 -22
c39 -17 70 -21 146 -21 117 0 210 20 298 64 l66 34 6 -28 c3 -15 15 -37 27
-49 11 -12 18 -24 17 -26 -12 -11 -246 -189 -304 -231 -202 -147 -451 -298
-560 -339 -80 -31 -141 -32 -270 -5 -53 11 -115 20 -136 20 -42 0 -229 56
-229 68 0 5 21 18 48 31 132 64 492 339 492 376 0 29 -29 14 -146 -81 -232
-186 -437 -304 -542 -312 -58 -4 -128 18 -120 37 2 4 43 43 92 87 80 71 257
261 345 372 23 28 42 42 58 42 30 0 92 31 117 59 11 12 20 21 21 21 1 0 -1
-26 -3 -57z m1436 -59 c-27 -59 -312 -252 -500 -338 -96 -45 -250 -107 -254
-103 -2 1 45 37 104 78 59 42 170 125 247 185 173 135 158 127 228 135 33 4
82 20 115 36 72 38 74 38 60 7z m1076 -210 c-41 -137 -117 -336 -190 -500
-119 -266 -125 -287 -135 -469 -10 -169 -21 -225 -45 -225 -9 0 -36 16 -61 35
-25 19 -50 35 -54 35 -5 0 -19 -17 -33 -37 -13 -21 -32 -46 -44 -56 -19 -17
-20 -17 -27 10 -3 15 -44 107 -91 205 -46 97 -84 188 -84 201 0 14 21 83 46
153 25 71 62 185 83 253 l37 123 60 23 c144 54 398 205 519 309 22 19 41 33
43 31 2 -2 -9 -43 -24 -91z m-3268 -191 c-3 -10 -2 -31 2 -48 8 -28 -1 -39
-206 -257 -118 -124 -221 -230 -230 -233 -10 -4 -89 -32 -176 -62 -180 -61
-273 -85 -281 -72 -18 29 97 153 237 257 51 38 177 121 280 186 104 65 227
146 275 181 95 68 107 74 99 48z m119 -127 c45 -31 98 -40 158 -27 38 9 53 8
82 -6 l35 -17 -77 -44 c-43 -24 -163 -95 -268 -157 -104 -62 -201 -116 -214
-120 -23 -7 -24 -6 -17 36 12 80 65 168 160 267 49 50 93 92 97 92 4 0 24 -11
44 -24z m380 -87 c22 -6 76 -17 120 -24 l80 -12 -65 -29 c-417 -185 -859 -424
-1155 -623 -65 -44 -121 -78 -124 -76 -10 10 77 161 144 251 73 97 275 328
281 321 2 -2 -1 -20 -7 -41 -14 -49 -5 -84 25 -97 33 -15 63 0 371 185 143 85
267 156 275 156 8 0 33 -5 55 -11z m139 -131 c-23 -39 -789 -970 -901 -1095
-44 -50 -139 -110 -194 -123 -66 -16 -77 -5 -51 46 24 46 238 362 472 697
l165 236 200 98 c346 170 319 158 309 141z m-44 -179 c-26 -88 5 -139 86 -139
55 0 205 48 291 94 35 19 60 28 56 22 -36 -61 -571 -725 -643 -797 -92 -93
-180 -132 -253 -111 l-28 7 77 85 c109 120 217 250 294 355 67 91 140 204 140
218 0 20 -32 3 -57 -30 -158 -212 -344 -433 -488 -578 -84 -85 -125 -119 -175
-143 -77 -38 -156 -51 -184 -29 -18 13 -16 16 34 63 74 68 448 515 759 907 52
64 96 116 97 114 2 -2 -1 -19 -6 -38z m1970 -354 c0 -9 -36 -5 -63 8 -35 16
-39 27 -31 103 l7 63 43 -85 c24 -47 44 -87 44 -89z m-31 -61 c14 4 32 8 40 9
8 1 24 -26 43 -73 16 -41 41 -84 54 -96 47 -39 92 -239 64 -284 -7 -11 -34
-16 -101 -20 l-91 -5 -23 45 c-12 25 -32 76 -45 113 -20 61 -21 73 -10 119 8
33 11 83 6 142 l-6 90 21 -23 c16 -17 28 -21 48 -17z m351 -120 c21 -5 29 -14
39 -52 19 -71 85 -204 117 -236 36 -36 90 -63 179 -92 l70 -23 -60 5 c-33 3
-83 12 -112 20 -64 17 -73 17 -73 0 0 -32 154 -76 270 -76 57 0 91 -12 71 -24
-16 -10 -13 -62 4 -80 34 -34 19 -39 -87 -33 -90 5 -105 9 -118 27 -78 111
-112 126 -254 114 -173 -15 -268 -10 -310 15 -20 13 -36 26 -36 30 0 4 31 7
68 7 81 -1 116 17 139 72 18 44 8 124 -30 237 l-24 70 30 37 30 37 30 -25 c16
-14 42 -27 57 -30z m-501 -134 c11 0 26 -28 49 -98 43 -124 90 -202 150 -245
115 -84 228 -117 401 -117 123 0 146 -6 131 -30 -15 -24 -11 -55 10 -82 14
-19 16 -28 8 -36 -18 -18 -58 -14 -142 13 -53 17 -99 25 -149 25 -68 0 -75 2
-102 30 -17 17 -52 38 -83 47 -35 11 -73 34 -104 62 -52 46 -64 48 -54 7 9
-38 72 -93 127 -111 27 -9 49 -18 49 -20 0 -2 -11 -15 -25 -29 -26 -26 -32
-64 -15 -97 17 -30 -11 -24 -66 16 -27 19 -74 51 -104 72 -30 20 -73 48 -96
63 -41 27 -41 28 -165 20 -68 -4 -137 -12 -152 -19 -44 -18 -94 -14 -118 10
-22 22 -19 47 11 89 17 24 20 25 123 21 214 -7 249 41 192 265 l-25 98 42 43
41 42 25 -20 c14 -10 32 -19 41 -19z m1167 -215 c17 -13 10 -14 -75 -15 -95 0
-110 6 -49 20 54 13 103 11 124 -5z m135 -107 c3 -21 14 -47 25 -59 28 -31 3
-44 -76 -39 -27 1 -43 11 -73 46 -24 28 -53 48 -78 55 -81 25 -63 34 69 34
l127 0 6 -37z m135 -9 c32 -20 64 -59 47 -59 -4 1 -19 7 -33 15 -14 8 -36 14
-50 15 -28 0 -50 16 -50 37 0 20 49 16 86 -8z m-762 -43 c72 -30 53 -36 -91
-32 -180 5 -217 16 -108 32 113 16 161 16 199 0z m426 -1 c28 -15 60 -51 60
-68 0 -5 -11 -2 -24 6 -13 9 -39 20 -57 24 -24 7 -35 16 -37 31 -4 26 16 29
58 7z m-1590 -41 c0 -21 -24 -44 -46 -44 -14 0 -34 -5 -46 -11 -11 -6 -22 -8
-25 -5 -8 8 47 54 70 59 36 7 47 7 47 1z m1341 -99 c27 -14 69 -68 69 -88 0
-4 -17 4 -37 18 -21 14 -50 25 -64 25 -31 0 -54 23 -45 45 7 19 39 19 77 0z
m-506 -115 c8 -16 18 -51 21 -77 l7 -48 -31 42 c-17 22 -35 44 -41 48 -15 8
-14 38 1 53 18 18 26 15 43 -18z"/>
<path d="M8653 6570 c-39 -17 -53 -37 -37 -53 3 -3 24 1 46 9 22 8 54 14 70
14 28 0 28 0 13 -30 -60 -117 85 -244 211 -184 41 20 73 58 81 96 5 27 8 28
63 28 44 0 61 4 75 20 22 24 13 56 -13 44 -42 -21 -136 -8 -245 34 -124 49
-194 54 -264 22z m207 -74 c-19 -19 -11 -65 15 -82 23 -15 27 -15 50 0 14 9
25 25 25 36 0 11 6 20 14 20 41 0 29 -62 -17 -90 -47 -29 -93 -26 -128 9 -52
53 -31 155 27 129 17 -8 21 -15 14 -22z"/>
<path d="M7255 5143 c-71 -9 -239 -56 -336 -94 -121 -47 -328 -153 -482 -247
-116 -70 -136 -87 -121 -102 6 -6 73 26 179 86 396 225 639 313 874 318 121 2
154 16 84 35 -36 10 -135 12 -198 4z"/>
<path d="M7872 3160 c-51 -50 -129 -115 -173 -146 -57 -40 -77 -60 -70 -67 15
-15 60 8 157 81 89 67 204 184 204 207 0 30 -27 12 -118 -75z"/>
<path d="M9391 6371 c-33 -31 -41 -61 -16 -61 28 0 95 49 95 70 0 30 -42 25
-79 -9z"/>
</g>
</svg>
