<?xml version="1.0" standalone="no"?>
<!DOCTYPE svg PUBLIC "-//W3C//DTD SVG 20010904//EN"
 "http://www.w3.org/TR/2001/REC-SVG-20010904/DTD/svg10.dtd">
<svg version="1.0" xmlns="http://www.w3.org/2000/svg"
 width="1408.000000pt" height="768.000000pt" viewBox="0 0 1408.000000 768.000000"
 preserveAspectRatio="xMidYMid meet">
<metadata>
Created by potrace 1.16, written by Peter Selinger 2001-2019
</metadata>
<g transform="translate(0.000000,768.000000) scale(0.100000,-0.100000)"
fill="#000000" stroke="none">
<path d="M5165 6414 c-197 -36 -355 -115 -472 -237 l-75 -79 -151 -34 c-253
-56 -387 -108 -497 -191 -65 -48 -113 -118 -108 -155 2 -19 10 -23 43 -26 22
-1 69 -9 105 -17 36 -7 146 -25 245 -40 196 -28 322 -51 372 -66 40 -13 177
-179 217 -263 59 -124 68 -187 67 -461 -2 -361 24 -554 108 -804 69 -208 139
-342 269 -513 239 -318 533 -538 973 -731 54 -24 57 -27 132 -154 41 -71 94
-152 117 -181 l42 -52 -83 -158 c-189 -363 -264 -475 -335 -502 -38 -15 -159
-12 -263 6 -119 20 -251 16 -306 -11 -54 -26 -110 -87 -131 -140 -24 -64 -15
-79 44 -71 26 4 64 10 84 13 37 5 37 5 30 -23 -10 -37 -4 -71 12 -77 7 -3 33
-1 57 4 55 11 371 40 377 35 2 -2 -2 -14 -8 -26 -6 -11 -10 -33 -8 -48 3 -30
7 -31 132 -17 67 8 68 8 57 -13 -16 -30 -14 -107 4 -122 11 -9 22 -9 47 -1 18
6 98 22 178 36 80 14 215 46 300 71 144 43 161 46 235 40 44 -3 152 -10 240
-16 120 -7 176 -15 224 -32 62 -22 63 -22 77 -3 27 36 -14 136 -76 189 -43 36
-89 46 -213 46 -103 0 -142 8 -159 34 -15 22 -8 79 18 144 49 125 254 535 287
576 60 72 71 103 75 207 l4 97 82 12 c170 26 437 116 622 211 53 27 101 49
105 49 4 0 70 -46 146 -103 273 -203 458 -327 723 -480 296 -172 504 -243 633
-217 69 13 126 39 175 80 33 27 34 27 80 12 29 -9 89 -15 157 -16 98 -1 114 1
147 22 49 31 67 81 42 120 -34 52 -63 69 -389 239 -148 77 -326 173 -395 213
-139 80 -432 271 -426 277 2 3 39 0 81 -6 190 -27 287 -8 271 52 -9 39 -60 72
-197 128 -214 87 -257 118 -393 283 -154 186 -448 454 -726 660 -185 137 -213
161 -331 289 -169 183 -345 339 -554 489 -126 90 -260 170 -475 283 -102 53
-207 113 -234 133 -73 54 -142 144 -241 318 -164 287 -261 419 -388 525 -111
93 -283 170 -441 198 -82 15 -265 12 -361 -5z m383 -70 c169 -35 303 -105 425
-223 110 -105 201 -236 332 -472 143 -259 204 -315 525 -480 200 -103 321
-176 460 -277 242 -176 552 -468 590 -554 53 -121 16 -197 -114 -237 -54 -17
-94 -21 -191 -21 -184 0 -310 29 -480 111 -86 42 -100 45 -110 28 -28 -44 231
-168 408 -194 26 -4 47 -11 47 -15 0 -18 -68 -75 -115 -96 -137 -63 -340 -45
-543 46 -78 36 -203 118 -307 203 -44 36 -83 63 -87 60 -49 -29 169 -220 362
-318 93 -47 171 -119 254 -234 96 -132 41 -170 -154 -109 -73 22 -234 101
-319 155 -159 101 -373 303 -490 463 -72 97 -152 256 -176 350 -22 86 -17 217
12 281 42 94 127 164 244 200 76 24 99 36 99 54 0 24 -43 27 -111 10 -160 -41
-275 -151 -313 -300 -21 -80 -20 -176 3 -267 82 -321 445 -726 826 -922 157
-81 247 -109 352 -110 82 -1 94 1 115 22 l24 22 100 -36 c263 -95 581 -184
892 -250 293 -62 365 -74 709 -124 l202 -30 93 -68 c229 -169 409 -275 930
-547 232 -121 280 -154 260 -178 -26 -31 -102 -40 -199 -23 -277 48 -627 226
-1252 638 -150 99 -228 145 -235 138 -14 -14 31 -58 162 -156 306 -230 779
-505 1037 -604 33 -13 63 -26 68 -30 14 -12 -93 -61 -146 -67 -117 -12 -323
68 -612 236 -279 163 -402 247 -755 511 -246 185 -335 244 -354 237 -26 -10
-8 -33 82 -109 48 -39 91 -75 96 -80 15 -12 -226 -123 -374 -172 -145 -48
-370 -99 -383 -86 -5 4 -14 29 -21 55 -13 53 -38 77 -57 58 -8 -8 -8 -28 1
-80 37 -216 30 -292 -35 -351 -44 -40 -73 -38 -150 12 -75 49 -127 107 -225
251 -48 72 -108 148 -132 171 -75 71 -118 104 -133 104 -31 0 -12 -38 60 -120
41 -46 75 -89 75 -93 0 -10 -28 -6 -190 29 -310 68 -663 232 -901 419 -105 83
-325 306 -396 401 -159 216 -272 485 -325 774 -17 95 -22 175 -27 460 l-7 345
-31 87 c-38 108 -94 204 -168 287 l-56 63 23 25 c27 29 91 63 165 87 28 9 54
24 57 33 8 21 -19 50 -69 75 -85 43 -191 118 -207 146 -25 42 -22 71 10 123
81 126 285 237 497 269 91 14 272 11 353 -6z m-939 -366 c17 -58 50 -99 111
-138 28 -18 49 -35 46 -37 -2 -2 -42 1 -87 8 -170 24 -453 13 -679 -26 l-35
-6 35 31 c76 68 266 143 480 190 118 26 115 26 129 -22z m131 -236 l55 -7 -30
-19 c-16 -11 -46 -34 -65 -53 -32 -30 -39 -32 -68 -23 -18 5 -108 21 -200 35
-265 41 -358 58 -346 62 64 21 504 25 654 5z m3430 -1628 c232 -175 552 -455
537 -470 -7 -7 -275 122 -476 230 -106 57 -167 84 -174 77 -5 -5 -6 -14 -3
-19 19 -31 554 -317 702 -377 63 -25 75 -35 147 -121 43 -52 72 -94 65 -94
-30 1 -207 42 -302 71 -237 72 -471 160 -820 308 -221 95 -274 111 -264 78 7
-18 280 -143 563 -256 384 -153 718 -253 840 -250 54 1 72 -5 170 -54 61 -29
141 -67 178 -83 l69 -29 -44 -3 c-124 -10 -756 79 -1178 165 -317 64 -739 183
-970 271 -72 28 -76 32 -108 88 -18 33 -52 84 -76 114 l-43 56 118 -4 c99 -4
128 -1 187 17 89 27 159 74 197 132 l30 46 105 6 c224 12 350 90 350 218 0 37
-17 47 200 -117z m-1620 -1408 c52 -14 137 -32 189 -42 l93 -17 -5 -43 c-7
-68 -53 -152 -92 -171 -31 -15 -37 -15 -79 1 -56 21 -104 76 -180 203 -31 51
-56 95 -56 99 0 3 8 3 18 0 9 -3 60 -17 112 -30z m396 -158 c20 -29 64 -81 97
-116 l61 -62 -24 -68 c-80 -230 -242 -583 -287 -625 l-29 -27 -60 19 c-32 11
-96 30 -142 42 -89 23 -116 41 -107 68 7 24 182 351 257 481 33 58 75 121 93
140 38 40 68 97 84 158 7 23 13 42 15 42 2 0 21 -24 42 -52z m-288 -185 c12
-3 22 -8 22 -10 0 -3 -47 -91 -104 -197 -158 -291 -186 -351 -186 -394 0 -60
44 -93 165 -123 l70 -18 -75 0 c-41 0 -109 4 -151 8 -97 10 -177 -1 -244 -33
-55 -27 -178 -48 -365 -61 -52 -3 -103 -9 -113 -12 -18 -5 -18 -3 -2 27 21 41
60 56 170 65 216 17 342 59 412 139 52 59 150 228 258 444 68 136 94 179 105
175 8 -3 25 -8 38 -10z m575 -49 c15 -4 27 -10 27 -14 0 -4 -20 -45 -44 -91
-76 -145 -204 -432 -221 -494 -23 -84 -8 -130 55 -165 40 -22 59 -25 165 -28
149 -3 156 -5 194 -43 34 -34 41 -55 14 -44 -28 11 -389 40 -488 39 -77 -1
-109 -7 -220 -42 -113 -37 -412 -98 -436 -90 -15 5 29 66 59 82 16 8 85 24
153 36 237 40 347 118 442 314 67 136 120 261 183 429 43 115 50 128 69 122
11 -3 32 -8 48 -11z m-1403 -624 c32 -7 30 -8 -23 -9 -61 -1 -112 -18 -154
-51 -19 -14 -41 -20 -79 -20 -30 0 -54 4 -54 8 0 20 65 65 119 83 28 9 134 3
191 -11z m690 -139 l75 -6 -100 -14 c-55 -7 -125 -22 -155 -33 -64 -24 -220
-39 -220 -22 0 17 31 41 80 63 48 22 156 26 320 12z"/>
<path d="M5105 6123 c-56 -15 -95 -67 -95 -125 0 -45 19 -78 59 -105 84 -56
191 1 191 102 0 84 -78 148 -155 128z m89 -79 c7 -19 -10 -44 -31 -44 -17 0
-27 24 -19 45 7 20 42 19 50 -1z"/>
<path d="M5871 5778 c-4 -13 -11 -49 -15 -80 -15 -135 -95 -253 -215 -317 -66
-35 -79 -47 -63 -63 18 -18 136 45 196 105 80 80 136 207 136 308 0 66 -22 92
-39 47z"/>
<path d="M6615 5130 c-11 -17 0 -24 135 -82 69 -30 163 -78 209 -107 46 -28
91 -49 99 -46 12 4 12 8 1 21 -36 44 -198 136 -329 186 -93 37 -107 40 -115
28z"/>
<path d="M5130 4348 c0 -99 77 -341 153 -480 81 -148 186 -286 208 -272 16 9
10 20 -65 127 -127 182 -203 352 -250 561 -25 108 -46 138 -46 64z"/>
<path d="M5567 3513 c-4 -3 -7 -10 -7 -15 0 -12 67 -84 111 -119 34 -27 40
-28 45 -14 5 12 -13 37 -62 86 -69 70 -75 74 -87 62z"/>
<path d="M7810 2943 c-36 -13 -105 -35 -154 -48 -98 -27 -105 -30 -88 -47 24
-24 268 45 312 88 29 29 -4 33 -70 7z"/>
</g>
</svg>
