<?xml version="1.0" standalone="no"?>
<!DOCTYPE svg PUBLIC "-//W3C//DTD SVG 20010904//EN"
 "http://www.w3.org/TR/2001/REC-SVG-20010904/DTD/svg10.dtd">
<svg version="1.0" xmlns="http://www.w3.org/2000/svg"
 width="1024.000000pt" height="559.000000pt" viewBox="0 0 1024.000000 559.000000"
 preserveAspectRatio="xMidYMid meet">
<metadata>
Created by potrace 1.16, written by Peter Selinger 2001-2019
</metadata>
<g transform="translate(0.000000,559.000000) scale(0.100000,-0.100000)"
fill="#000000" stroke="none">
<path d="M5167 4486 c-231 -95 -427 -274 -690 -629 -49 -65 -126 -136 -177
-162 -57 -29 -131 -41 -305 -50 -376 -18 -854 -70 -1149 -125 -634 -118 -1182
-280 -1643 -485 -303 -135 -338 -194 -198 -331 50 -50 88 -74 196 -127 157
-78 231 -104 340 -119 78 -11 79 -12 79 -40 0 -70 144 -168 360 -243 230 -79
679 -184 970 -226 160 -23 160 -23 160 -48 0 -54 109 -307 170 -396 83 -119
208 -206 267 -184 37 14 54 53 73 173 11 64 31 144 45 178 15 35 32 75 38 91
6 15 14 27 18 27 4 0 32 -31 63 -69 225 -275 626 -557 892 -626 76 -20 148
-20 168 1 35 35 15 92 -104 295 -85 143 -153 292 -176 384 -9 36 -15 67 -13
69 2 2 76 9 164 15 313 22 590 67 926 151 90 23 181 41 202 41 26 0 87 -23
200 -77 127 -61 174 -79 218 -82 67 -5 81 6 103 82 10 32 33 76 59 106 74 92
88 114 83 135 -5 19 10 25 217 74 122 30 241 54 263 54 31 0 61 -11 120 -45
98 -56 145 -77 208 -89 100 -19 131 12 91 92 -24 47 -25 52 -11 74 51 78 145
104 376 104 l134 1 56 -58 c31 -32 100 -114 154 -181 139 -172 265 -310 344
-377 140 -120 315 -216 440 -243 107 -22 119 20 41 142 -68 105 -108 195 -154
342 -21 66 -62 192 -92 281 -64 194 -67 234 -23 368 43 127 194 429 285 566
84 128 93 150 76 187 -7 14 -9 28 -7 31 3 2 37 7 75 10 47 3 75 10 84 21 8 9
24 58 36 110 12 51 38 124 57 161 56 111 43 148 -48 136 -151 -20 -435 -194
-695 -425 -119 -105 -281 -284 -448 -491 -64 -79 -129 -153 -143 -163 -23 -15
-40 -17 -107 -13 -82 6 -361 57 -408 75 -42 16 -115 117 -127 177 -16 77 -29
89 -92 88 -42 0 -74 -10 -153 -48 -55 -26 -120 -50 -145 -52 -48 -6 -138 17
-450 115 -291 92 -478 145 -750 212 l-125 31 -48 60 c-134 165 -179 274 -199
488 -13 145 -14 189 -3 328 7 101 6 114 -10 132 -25 27 -85 26 -158 -4z m125
-76 c-1 -25 -3 -126 -4 -225 -2 -185 13 -307 48 -410 17 -53 80 -160 128 -220
50 -62 51 -64 8 -54 -20 5 -70 9 -110 10 -68 1 -92 -4 -81 -16 3 -2 86 -20
184 -40 267 -53 622 -148 1040 -280 260 -82 365 -108 415 -101 25 4 92 29 150
56 124 59 167 64 176 23 13 -62 26 -93 55 -132 16 -23 25 -41 20 -41 -6 0 -40
7 -77 16 -69 16 -113 12 -84 -7 54 -34 444 -126 647 -151 147 -19 138 -25 399
292 285 344 583 600 856 734 93 46 182 75 193 64 4 -3 -9 -39 -28 -80 -19 -40
-42 -107 -51 -148 -25 -108 -21 -104 -114 -110 -45 -3 -86 -10 -92 -16 -9 -9
-7 -24 6 -60 l17 -49 -85 -130 c-127 -195 -264 -478 -304 -630 -24 -90 -18
-140 42 -326 154 -482 157 -491 242 -627 29 -46 52 -86 52 -88 0 -19 -176 50
-268 105 -152 91 -272 203 -446 415 -44 55 -122 148 -173 207 l-92 108 37 6
c106 16 248 56 293 82 32 19 38 47 13 57 -37 14 -254 23 -484 20 -578 -7 -795
-38 -1500 -214 -329 -82 -449 -107 -675 -139 -388 -56 -742 -81 -1170 -81
l-330 0 -40 25 c-45 28 -75 32 -75 11 0 -28 119 -94 263 -147 138 -51 164 -66
180 -107 8 -20 18 -75 22 -122 13 -147 72 -301 201 -522 79 -135 113 -204 114
-227 0 -25 -116 -7 -219 34 -335 134 -657 407 -949 805 -92 126 -159 200 -179
200 -24 0 -13 -22 55 -114 38 -50 77 -103 86 -118 l18 -28 -63 6 c-485 44
-844 101 -1199 190 -306 76 -473 134 -591 204 -66 39 -113 91 -106 115 2 6 80
16 173 23 187 14 286 6 381 -30 30 -11 62 -17 71 -13 15 6 13 10 -11 30 -61
54 -104 59 -457 60 -376 0 -360 -3 -586 109 -123 61 -220 131 -244 176 -9 17
-6 17 48 -2 41 -15 90 -22 177 -25 149 -5 136 12 -15 20 -101 6 -230 38 -230
57 0 55 437 247 876 386 396 125 1037 266 1379 304 55 6 158 18 230 26 135 15
282 26 570 44 310 19 343 38 586 350 188 240 331 369 513 461 75 37 109 49
135 47 36 -3 36 -3 33 -48z m2936 -1776 c42 -4 62 -10 59 -17 -5 -17 -114 -55
-236 -83 -89 -20 -111 -22 -149 -12 -114 29 -548 -24 -642 -79 -23 -13 -19
-13 49 -8 l74 6 -22 -27 c-25 -32 -27 -83 -5 -125 8 -17 13 -33 10 -37 -15
-14 -123 25 -217 79 l-104 60 -75 -4 c-41 -3 -158 -25 -260 -50 -102 -25 -228
-56 -280 -68 -52 -12 -112 -28 -134 -37 -60 -24 -22 -36 70 -22 103 16 113 5
53 -58 -58 -60 -79 -94 -100 -162 -12 -41 -22 -56 -37 -58 -24 -4 -154 49
-284 114 -126 63 -150 64 -343 16 -374 -94 -676 -142 -982 -158 l-133 -7 0 32
c0 113 -44 166 -181 215 -97 35 -169 64 -169 69 0 1 177 2 393 2 291 1 439 5
574 18 508 48 722 84 1193 202 445 112 631 149 945 186 163 20 765 28 933 13z
m-4773 -745 c257 -25 251 -21 190 -144 -31 -61 -50 -117 -60 -175 -44 -240
-43 -238 -148 -162 -88 63 -178 202 -240 372 -58 158 -58 144 4 136 30 -3 144
-15 254 -27z"/>
<path d="M4970 4227 c-81 -64 -186 -181 -301 -334 -56 -75 -120 -156 -142
-180 -22 -24 -38 -46 -35 -49 11 -10 70 51 140 144 133 179 226 288 309 365
45 43 86 77 91 77 4 0 8 5 8 10 0 18 -14 11 -70 -33z"/>
<path d="M8703 3551 c-132 -103 -342 -324 -484 -511 -69 -91 -129 -172 -134
-180 -20 -37 63 54 138 150 172 222 285 343 507 542 41 37 72 67 68 67 -3 1
-46 -30 -95 -68z"/>
<path d="M1761 2949 c-33 -22 -61 -45 -61 -50 0 -14 16 -11 30 6 20 24 26 18
22 -20 -4 -29 1 -40 32 -71 33 -33 41 -36 74 -31 70 12 113 90 81 148 -10 19
-8 20 34 14 75 -11 64 11 -14 29 -107 24 -129 21 -198 -25z m141 -6 c23 -20
24 -85 2 -107 -20 -21 -59 -30 -81 -21 -16 7 -16 8 2 13 11 2 26 9 33 14 19
16 14 69 -10 95 l-21 23 28 0 c16 0 37 -7 47 -17z"/>
<path d="M3110 2898 c0 -45 -23 -146 -60 -263 -40 -126 -27 -365 19 -365 14 0
14 -2 -4 67 -22 84 -19 165 11 273 15 52 33 117 40 145 16 57 19 171 4 180 -6
4 -10 -11 -10 -37z"/>
<path d="M3318 2888 c-21 -32 -42 -93 -84 -243 -39 -138 -54 -281 -37 -359 17
-80 28 -47 28 86 0 119 3 146 33 258 19 69 45 159 58 200 25 79 25 94 2 58z"/>
<path d="M3493 2827 c-39 -43 -52 -73 -98 -236 -36 -125 -48 -186 -52 -261 -6
-104 4 -162 17 -105 4 17 8 57 9 90 2 64 11 111 59 295 36 136 46 163 73 202
26 36 20 46 -8 15z"/>
<path d="M1376 2765 c-3 -9 8 -29 29 -50 19 -19 35 -38 35 -43 0 -17 -12 -21
-37 -11 -19 7 -24 6 -21 -3 3 -7 21 -14 40 -16 40 -3 55 16 38 49 -12 22 2 25
45 9 58 -22 243 -51 445 -70 245 -22 322 -36 441 -81 205 -76 249 -90 344
-105 74 -12 118 -14 161 -8 l59 9 -55 2 c-170 9 -277 32 -426 94 -87 36 -243
80 -329 93 -22 3 -103 10 -180 16 -270 20 -486 63 -538 106 -33 28 -43 30 -51
9z"/>
<path d="M3596 2705 c-42 -54 -76 -139 -102 -255 -13 -58 -28 -122 -33 -142
-5 -24 -5 -38 1 -38 14 0 34 57 53 150 22 117 41 174 82 249 39 72 38 88 -1
36z"/>
<path d="M3641 2114 c-1 -13 70 -119 162 -244 86 -116 305 -337 407 -411 95
-69 150 -103 156 -96 3 3 -4 11 -16 17 -54 29 -276 218 -363 310 -53 56 -143
164 -199 239 -57 76 -113 151 -125 167 -12 16 -22 24 -22 18z"/>
</g>
</svg>
