<?xml version="1.0" standalone="no"?>
<!DOCTYPE svg PUBLIC "-//W3C//DTD SVG 20010904//EN"
 "http://www.w3.org/TR/2001/REC-SVG-20010904/DTD/svg10.dtd">
<svg version="1.0" xmlns="http://www.w3.org/2000/svg"
 width="1408.000000pt" height="768.000000pt" viewBox="0 0 1408.000000 768.000000"
 preserveAspectRatio="xMidYMid meet">
<metadata>
Created by potrace 1.16, written by Peter Selinger 2001-2019
</metadata>
<g transform="translate(0.000000,768.000000) scale(0.100000,-0.100000)"
fill="#000000" stroke="none">
<path d="M4925 6875 c-291 -64 -513 -300 -615 -654 -20 -68 -29 -85 -64 -114
l-41 -34 -85 8 c-47 5 -123 20 -169 35 -96 31 -114 27 -119 -29 -7 -82 92
-217 194 -264 47 -21 54 -28 48 -46 -20 -66 -51 -107 -287 -386 -71 -83 -136
-170 -146 -194 -14 -32 -19 -68 -19 -151 -1 -120 11 -159 53 -178 14 -6 27
-19 30 -29 10 -31 93 -96 140 -109 28 -8 66 -10 102 -6 124 15 115 18 136 -49
22 -70 25 -198 7 -294 -13 -71 -9 -91 18 -91 18 0 75 53 106 100 l16 24 0 -40
c0 -54 -15 -133 -42 -217 -26 -85 -17 -102 39 -72 43 24 102 100 138 178 19
41 32 57 46 57 26 0 64 81 85 182 18 83 14 170 -11 267 -9 35 -14 65 -12 67 2
2 33 11 69 21 79 21 81 19 144 -78 87 -134 134 -294 139 -479 2 -63 4 -118 5
-122 1 -21 45 -4 75 29 l34 37 6 -30 c24 -120 50 -206 87 -291 38 -86 47 -98
68 -98 17 0 26 6 28 20 10 71 10 71 77 -27 95 -137 120 -190 154 -328 38 -154
96 -278 180 -382 93 -116 151 -148 151 -83 0 26 1 25 55 -22 50 -44 58 -56 80
-129 65 -209 77 -286 79 -499 2 -191 4 -206 35 -325 42 -160 53 -359 27 -510
-23 -134 -29 -148 -107 -252 -63 -84 -138 -219 -154 -274 -7 -28 18 -54 51
-54 14 0 39 -10 55 -23 27 -19 43 -22 117 -21 48 0 99 3 114 7 28 7 28 7 22
-36 -6 -39 -3 -46 17 -61 13 -9 38 -16 55 -16 18 0 38 -8 49 -20 15 -17 31
-20 92 -20 79 0 211 23 253 45 74 38 98 107 78 222 -14 86 -8 104 42 114 18 4
36 13 41 21 12 18 11 85 -1 128 -19 71 -49 275 -61 414 -12 155 -5 243 31 400
17 73 37 203 84 531 22 151 33 187 54 181 25 -8 175 -32 373 -61 439 -63 702
-49 1023 56 93 30 122 36 128 27 5 -7 22 -38 38 -68 41 -79 116 -182 205 -280
96 -105 142 -174 161 -235 33 -112 7 -333 -66 -555 -61 -187 -97 -255 -181
-345 -85 -91 -129 -152 -164 -227 -41 -88 -32 -128 27 -128 11 0 31 -11 44
-25 21 -23 30 -25 114 -25 162 0 278 39 309 105 8 17 18 68 22 115 10 115 12
120 63 120 73 0 86 24 86 158 0 111 14 195 58 353 43 153 146 479 152 479 3 0
24 -30 48 -67 47 -75 87 -189 102 -292 23 -156 5 -470 -34 -601 -19 -63 -38
-98 -107 -201 -68 -100 -109 -184 -116 -238 -4 -32 -1 -41 18 -55 13 -9 38
-16 56 -16 20 0 41 -8 53 -20 40 -40 219 -21 330 35 77 39 85 58 85 200 l0
120 50 25 c48 24 50 27 53 69 2 25 -7 83 -19 130 -20 79 -21 102 -16 271 4
102 13 230 21 285 7 55 24 167 36 248 27 184 23 204 -66 335 -109 160 -174
314 -174 414 l0 37 30 -17 c26 -15 31 -15 45 -2 13 13 14 28 6 95 -6 44 -12
102 -15 130 l-4 50 19 -23 c10 -13 26 -22 36 -20 16 3 18 16 17 124 l-1 121
27 -10 c15 -6 35 -7 45 -3 19 7 19 36 -1 286 -5 64 -1 93 25 194 17 65 31 135
31 155 l1 36 20 -25 c11 -14 27 -33 34 -42 21 -25 52 -23 61 4 6 19 10 15 36
-36 57 -112 166 -186 274 -186 98 0 112 40 29 84 -49 25 -102 73 -92 82 2 2
23 -6 48 -18 90 -45 269 -21 277 37 2 17 -8 26 -53 44 -60 25 -130 88 -157
142 -9 19 -37 77 -62 129 -99 212 -226 321 -452 389 -75 22 -106 41 -248 156
-78 62 -85 71 -64 75 37 9 34 43 -6 78 -109 95 -325 181 -458 182 -54 0 -57 1
-60 28 -4 38 -54 52 -203 59 -131 6 -277 -7 -401 -37 -43 -10 -80 -17 -82 -15
-2 2 2 12 9 23 16 25 5 52 -21 52 -35 0 -237 -46 -432 -100 -483 -131 -667
-140 -946 -46 -225 76 -347 82 -572 30 -148 -34 -242 -35 -332 -5 -138 46
-299 173 -460 364 -56 67 -127 147 -156 178 l-53 57 34 21 c55 34 126 117 154
179 45 101 42 212 -7 227 -9 3 -54 -9 -100 -26 -46 -16 -128 -41 -181 -55 -54
-13 -117 -31 -140 -39 -39 -14 -44 -14 -76 6 l-34 21 27 47 c55 95 89 138 174
222 68 67 107 96 180 134 l94 48 81 -41 c109 -56 185 -120 273 -229 73 -91
105 -112 118 -79 9 23 -33 174 -66 242 -16 33 -46 82 -65 107 -20 26 -33 47
-30 47 3 0 39 -7 79 -15 178 -37 329 -127 499 -297 43 -43 82 -78 86 -78 5 0
14 7 21 15 17 21 1 75 -51 175 -115 220 -323 381 -584 452 -86 24 -304 35
-396 20 -51 -8 -79 -7 -125 4 -73 17 -209 17 -289 -1z m195 -57 c-171 -71
-327 -180 -429 -300 -76 -89 -151 -207 -186 -293 -27 -66 -36 -73 -100 -80
l-47 -4 5 32 c7 43 65 200 82 223 10 15 26 19 68 19 31 0 59 4 64 8 13 14 -28
37 -64 37 -32 0 -33 1 -22 23 6 12 28 42 47 66 35 43 35 43 89 38 29 -3 55 -2
58 3 8 13 -24 40 -46 40 -28 0 -23 13 19 47 126 101 262 150 422 151 54 1 61
-1 40 -10z m600 -27 c205 -53 382 -176 509 -356 38 -53 30 -51 -39 6 -87 72
-216 145 -316 179 -357 118 -736 -31 -964 -379 -27 -41 -59 -98 -72 -128 -23
-57 -27 -58 -93 -43 -28 6 -51 21 -75 50 -28 33 -44 42 -78 47 -23 3 -42 7
-42 10 0 9 64 129 87 165 20 29 32 38 54 38 39 0 75 -15 119 -50 44 -34 60
-38 60 -12 0 35 -94 102 -142 102 -16 0 -28 4 -28 9 0 5 32 44 72 86 66 70 74
76 102 71 20 -4 48 -24 78 -56 49 -53 68 -62 68 -32 0 29 -48 91 -87 111 l-37
19 58 37 c32 20 82 48 111 60 l53 24 25 -27 c14 -15 33 -44 42 -64 18 -44 45
-51 45 -13 0 27 -23 79 -47 107 -13 14 -11 17 22 28 136 45 364 50 515 11z
m-75 -248 c26 -31 63 -89 82 -127 l36 -71 -80 76 c-44 42 -110 94 -148 117
-67 40 -68 41 -39 47 16 4 34 8 39 10 42 14 65 3 110 -52z m-239 -464 c-9 -53
-48 -130 -92 -179 -48 -53 -116 -94 -204 -123 -128 -42 -158 -64 -128 -94 11
-10 31 -6 113 23 l100 35 38 -43 c21 -24 83 -95 136 -158 184 -216 353 -360
488 -415 132 -53 226 -56 411 -11 204 49 315 44 518 -25 154 -52 243 -69 362
-69 181 1 369 34 672 120 190 53 296 77 305 68 3 -3 0 -17 -6 -31 -6 -14 -9
-33 -5 -42 7 -20 31 -17 119 14 126 44 380 73 509 57 l56 -7 -24 -24 c-50 -50
-35 -57 134 -59 121 -1 146 -5 217 -30 44 -15 113 -46 154 -68 l74 -41 -34
-16 c-55 -26 -48 -42 43 -103 46 -30 116 -83 156 -117 86 -72 117 -89 235
-126 48 -15 115 -45 148 -67 106 -68 154 -127 231 -285 69 -142 143 -244 189
-258 29 -9 23 -25 -9 -25 -47 0 -126 28 -170 60 -51 36 -70 38 -82 6 -11 -31
2 -82 35 -130 30 -44 21 -45 -32 -7 -53 39 -81 79 -120 176 -19 46 -39 81 -48
83 -23 5 -45 -17 -45 -44 0 -67 -48 25 -76 142 -34 146 -130 279 -142 196 -2
-12 6 -36 18 -52 80 -112 89 -297 24 -513 -27 -91 -30 -171 -13 -309 7 -49 9
-92 5 -95 -3 -4 -16 3 -29 15 -28 27 -54 28 -61 5 -3 -10 -1 -56 4 -103 14
-118 14 -116 -9 -96 -11 10 -30 16 -43 14 -26 -3 -26 -4 -10 -188 5 -52 8 -96
6 -98 -1 -2 -11 2 -22 9 -26 16 -48 6 -54 -26 -10 -51 11 -192 43 -281 35 -99
55 -137 146 -272 59 -86 63 -96 63 -148 0 -30 -9 -112 -20 -182 -54 -348 -65
-651 -30 -783 27 -103 26 -116 -9 -124 -59 -13 -97 -84 -85 -162 l6 -42 -78
40 c-44 22 -107 44 -140 50 l-62 11 44 86 c67 131 87 268 81 542 -5 232 -19
309 -83 435 -50 98 -102 164 -219 280 -127 126 -184 195 -236 291 -23 42 -48
78 -56 81 -7 3 -23 -3 -33 -12 -11 -10 -22 -16 -24 -14 -16 18 -82 131 -120
207 -68 135 -105 234 -131 347 -15 68 -27 100 -36 100 -38 0 -8 -188 55 -343
l34 -83 -22 -14 c-46 -30 -217 -105 -328 -143 -191 -67 -335 -93 -538 -99
-188 -6 -326 6 -620 53 -85 13 -175 27 -198 31 -24 3 -46 11 -48 17 -3 7 14
61 37 121 55 143 63 246 29 379 -25 102 -57 183 -74 189 -7 3 -19 1 -26 -3
-11 -7 -7 -29 20 -117 24 -77 34 -133 37 -198 4 -85 2 -96 -37 -205 -81 -224
-92 -277 -146 -664 -14 -104 -35 -230 -45 -280 -35 -158 -40 -234 -29 -398 12
-166 21 -237 51 -396 10 -57 19 -105 19 -108 0 -2 -9 -4 -21 -4 -11 0 -34 -14
-51 -30 -28 -28 -29 -34 -26 -95 1 -36 1 -64 -2 -62 -66 40 -226 97 -273 97
-16 0 -14 6 13 45 49 71 68 123 84 226 37 242 29 369 -37 579 l-42 135 3 164
c3 186 -7 277 -48 442 -36 147 -80 260 -129 335 -44 69 -158 204 -172 204 -30
0 -14 -38 51 -127 69 -94 109 -162 124 -210 7 -22 5 -22 -96 13 -167 58 -238
108 -320 227 -51 76 -74 75 -71 -3 l1 -54 -29 34 c-93 112 -136 201 -179 375
-32 134 -61 199 -127 291 -70 98 -94 139 -119 208 -26 73 -48 83 -69 32 -8
-19 -15 -45 -15 -58 0 -73 -65 118 -85 249 -8 54 -15 112 -15 129 0 35 -20 57
-41 49 -8 -3 -23 -29 -33 -58 l-19 -52 -8 35 c-4 19 -12 73 -19 120 -21 152
-79 301 -156 397 -37 45 -40 53 -21 53 27 0 135 60 179 99 60 53 117 164 125
243 9 94 -32 91 -56 -4 -19 -73 -45 -122 -94 -175 -52 -57 -126 -94 -253 -128
-138 -36 -181 -53 -186 -73 -3 -10 4 -53 15 -97 21 -85 26 -226 9 -280 -7 -25
-10 -18 -15 53 -7 90 -20 125 -45 120 -13 -3 -16 -21 -17 -128 -2 -132 -23
-227 -64 -279 -18 -24 -18 -24 -9 35 12 75 4 243 -14 281 -8 16 -21 28 -32 28
-15 0 -22 -12 -32 -62 -7 -33 -19 -73 -27 -88 -13 -25 -14 -19 -14 76 1 143
-33 252 -85 280 -14 8 -38 5 -88 -7 -59 -16 -76 -16 -115 -6 -47 13 -95 39
-95 52 0 4 24 10 53 13 73 9 277 110 277 138 0 36 -28 31 -134 -22 -95 -47
-114 -53 -184 -57 -74 -4 -80 -3 -96 19 -21 31 -22 91 -1 83 9 -4 32 5 53 19
20 14 47 28 59 32 26 7 73 60 73 81 0 26 -29 26 -61 0 -17 -14 -36 -26 -43
-26 -7 0 -28 -11 -46 -25 -34 -25 -35 -25 -44 -6 -20 46 2 86 137 246 274 325
286 342 321 474 32 118 58 169 118 228 45 45 52 48 96 46 26 -1 82 5 125 14
94 18 119 13 147 -27 29 -41 69 -60 144 -67 56 -5 66 -3 85 16 16 16 26 19 38
13 14 -8 12 -12 -11 -27 -33 -22 -96 -102 -96 -122 0 -35 33 -23 95 36 36 33
80 68 97 77 30 15 152 54 171 54 5 0 -20 -19 -55 -42 -67 -46 -126 -121 -152
-195 -12 -35 -12 -44 -1 -53 20 -17 30 -7 71 71 45 85 83 118 233 198 62 34
123 68 135 76 29 21 29 20 22 -26z m-1436 -35 c25 -8 78 -17 118 -21 39 -3 72
-7 72 -9 0 -2 -10 -19 -21 -39 -12 -20 -28 -53 -35 -73 -15 -44 -28 -44 -91
-1 -43 30 -95 95 -113 144 -9 24 -8 26 7 20 10 -4 38 -13 63 -21z m4738 -3257
c41 -58 65 -73 86 -52 14 14 17 12 32 -17 40 -77 101 -153 205 -256 l111 -109
-57 -173 c-123 -374 -180 -622 -173 -755 2 -45 0 -59 -10 -57 -7 1 -31 -2 -53
-8 -47 -13 -68 -48 -76 -126 -6 -53 -6 -54 -27 -39 -39 28 -151 83 -194 95
l-43 11 46 52 c58 66 104 156 148 287 50 148 75 246 94 379 13 95 14 127 4
190 -19 126 -44 167 -241 394 -70 81 -199 279 -184 284 5 2 54 25 109 52 l100
48 45 -77 c25 -42 60 -97 78 -123z m-2777 104 c24 -11 82 -31 129 -44 l85 -25
17 -58 c48 -159 61 -253 64 -469 1 -115 3 -219 4 -230 1 -11 -3 -72 -9 -135
-12 -124 -3 -280 24 -445 22 -130 20 -153 -9 -161 -13 -3 -35 -17 -48 -31 -19
-20 -23 -36 -23 -82 l0 -57 -70 37 c-38 21 -92 43 -120 50 -27 6 -51 13 -53
14 -2 2 15 30 37 64 46 71 66 149 83 313 14 138 0 276 -43 444 -30 111 -32
131 -33 309 -2 215 -7 247 -82 508 -7 21 -6 21 47 -2z m386 -1241 c3 -101 2
-152 -5 -145 -15 15 -32 179 -31 296 l1 104 15 -50 c9 -30 17 -111 20 -205z
m-64 -419 c-19 -33 -33 -40 -33 -16 0 16 39 60 46 52 3 -2 -3 -18 -13 -36z
m2354 -30 c184 -86 189 -134 19 -166 -105 -20 -176 -20 -176 0 0 9 14 42 30
75 35 69 38 100 12 100 -24 0 -43 -22 -76 -87 -23 -47 -56 -71 -56 -43 0 16
39 91 68 129 23 31 28 33 68 28 23 -2 73 -19 111 -36z m-2587 -42 c41 -16 88
-39 103 -51 l28 -23 -23 -42 c-22 -40 -26 -43 -88 -53 -36 -7 -91 -10 -123 -8
l-57 3 30 63 c34 72 37 90 15 99 -22 8 -48 -19 -75 -77 -21 -44 -50 -68 -50
-40 0 13 35 82 66 132 22 34 26 36 61 31 21 -3 72 -18 113 -34z m3333 -104
c56 -14 153 -59 191 -87 27 -21 12 -54 -34 -78 -49 -25 -152 -50 -208 -50 -41
0 -42 1 -36 28 4 15 17 55 30 89 18 49 20 65 10 78 -13 19 -41 12 -52 -13 -4
-9 -17 -44 -29 -77 -19 -50 -27 -61 -49 -63 -18 -2 -26 1 -26 13 0 21 25 79
56 133 29 49 50 52 147 27z m-3028 -10 c85 -22 225 -90 225 -110 0 -26 -44
-63 -90 -75 -58 -16 -148 -30 -189 -30 -31 0 -33 2 -27 28 4 15 16 51 28 80
19 48 19 55 5 69 -8 8 -20 12 -26 8 -14 -8 -61 -100 -61 -119 0 -8 -13 -16
-30 -18 -23 -3 -30 -1 -30 11 0 17 55 138 72 158 14 17 51 16 123 -2z"/>
<path d="M4444 5711 c-37 -23 -84 -81 -84 -104 0 -19 30 -23 47 -6 8 8 19 7
39 -4 44 -22 80 -28 106 -18 35 14 110 89 102 102 -12 21 -89 49 -134 49 -27
0 -58 -8 -76 -19z m112 -41 c22 0 16 -19 -10 -31 -27 -13 -76 -5 -76 12 0 12
41 29 58 23 8 -2 20 -4 28 -4z"/>
<path d="M8691 4922 c-26 -18 -6 -35 46 -38 69 -3 138 -36 194 -90 43 -42 65
-80 104 -177 8 -23 20 -37 27 -34 35 12 -21 162 -87 236 -20 22 -65 55 -99 71
-65 32 -160 48 -185 32z"/>
<path d="M8271 4872 c-49 -15 -32 -29 40 -35 126 -11 240 -82 304 -191 27 -46
55 -61 55 -28 0 29 -56 116 -100 156 -80 72 -226 120 -299 98z"/>
<path d="M6850 4820 c0 -11 4 -20 9 -20 5 0 34 -22 64 -49 62 -57 109 -140
128 -224 14 -63 21 -74 38 -53 8 9 8 29 1 67 -20 111 -75 200 -159 260 -61 44
-81 48 -81 19z"/>
<path d="M7991 4726 c-16 -19 -14 -19 72 -36 184 -36 345 -191 411 -396 9 -28
23 -60 31 -70 13 -19 14 -19 21 0 10 26 -12 108 -52 193 -77 162 -255 297
-421 319 -38 5 -52 3 -62 -10z"/>
<path d="M5827 4554 c-4 -4 -7 -18 -7 -31 0 -44 -41 -146 -90 -222 -101 -157
-143 -280 -138 -403 2 -57 6 -73 18 -73 12 0 16 19 21 85 10 135 42 222 131
353 64 94 91 163 92 230 1 55 -9 78 -27 61z"/>
<path d="M9373 4348 c3 -13 17 -51 32 -86 37 -89 56 -191 54 -289 -1 -46 1
-87 5 -90 33 -33 48 166 22 280 -22 96 -81 207 -109 207 -5 0 -7 -10 -4 -22z"/>
<path d="M8160 4350 c0 -5 20 -37 44 -70 74 -101 91 -155 90 -292 -1 -91 2
-118 12 -118 55 0 54 211 -1 336 -36 80 -145 189 -145 144z"/>
<path d="M9357 3973 c-4 -3 -7 -44 -7 -90 0 -118 -23 -210 -88 -346 -30 -64
-52 -120 -48 -124 24 -25 100 97 145 233 24 70 34 124 38 189 6 108 -11 167
-40 138z"/>
<path d="M8080 3254 c-57 -41 -196 -104 -278 -126 -51 -13 -112 -21 -181 -22
-73 -1 -106 -5 -108 -13 -13 -37 155 -44 286 -13 139 34 351 146 351 186 0 21
-31 16 -70 -12z"/>
<path d="M9457 2537 c-8 -20 28 -94 73 -153 46 -58 55 -92 42 -149 -10 -46 -6
-65 14 -65 21 0 34 42 34 106 0 62 -7 78 -62 148 -22 27 -48 67 -59 88 -20 40
-33 47 -42 25z"/>
</g>
</svg>
