<?xml version="1.0" standalone="no"?>
<!DOCTYPE svg PUBLIC "-//W3C//DTD SVG 20010904//EN"
 "http://www.w3.org/TR/2001/REC-SVG-20010904/DTD/svg10.dtd">
<svg version="1.0" xmlns="http://www.w3.org/2000/svg"
 width="1024.000000pt" height="559.000000pt" viewBox="0 0 1024.000000 559.000000"
 preserveAspectRatio="xMidYMid meet">
<metadata>
Created by potrace 1.16, written by Peter Selinger 2001-2019
</metadata>
<g transform="translate(0.000000,559.000000) scale(0.100000,-0.100000)"
fill="#000000" stroke="none">
<path d="M2452 4478 c-48 -16 -129 -92 -142 -134 -19 -58 -8 -133 24 -161 40
-34 101 -32 152 7 113 86 226 -13 298 -261 31 -109 68 -311 58 -319 -4 -4 -78
-24 -164 -44 -410 -98 -1115 -346 -1458 -514 -117 -57 -200 -132 -200 -179 0
-23 -6 -33 -20 -38 -32 -10 -70 -63 -70 -98 0 -38 49 -129 104 -195 123 -146
358 -299 676 -441 546 -242 1212 -401 1917 -456 l192 -15 93 -92 c111 -111
172 -158 311 -242 288 -173 569 -243 633 -158 34 45 12 99 -100 247 -45 59
-90 132 -110 180 l-35 80 37 7 c20 3 96 11 167 18 370 33 888 126 1180 212
205 59 423 136 690 241 657 259 999 357 1248 357 59 0 74 -4 110 -29 58 -41
137 -125 254 -271 55 -69 126 -150 159 -179 191 -176 416 -292 647 -336 108
-20 149 -19 181 6 42 33 35 66 -29 136 -96 106 -123 178 -178 479 -29 158 -60
226 -137 305 l-56 57 39 23 c45 28 98 96 126 163 12 26 32 104 47 174 38 186
63 240 161 344 61 66 67 95 26 128 -26 21 -36 22 -143 17 -258 -11 -450 -103
-710 -342 -233 -213 -338 -259 -522 -229 -222 36 -470 93 -698 160 -259 77
-702 237 -738 266 -11 9 -13 26 -8 64 12 103 -25 116 -319 108 -217 -6 -233
-4 -485 55 -293 69 -615 121 -945 152 -185 17 -712 23 -900 10 -292 -20 -573
-55 -788 -96 -43 -8 -84 -15 -89 -15 -15 0 -2 193 18 280 14 62 45 124 99 199
46 63 24 131 -42 131 -60 0 -123 -83 -122 -160 l1 -35 16 45 c36 96 78 139
121 125 35 -11 37 -50 5 -91 -54 -67 -93 -136 -104 -187 -24 -113 -31 -198
-28 -327 3 -122 1 -135 -14 -138 -16 -3 -18 6 -18 86 0 141 -46 374 -98 496
-73 172 -186 239 -287 170 -57 -38 -83 -46 -108 -32 -35 18 -46 40 -47 89 0
90 85 169 190 177 109 8 202 -57 264 -183 34 -69 62 -155 77 -238 19 -102 30
-121 24 -42 -10 146 -67 307 -138 390 -71 83 -203 124 -295 93z m2143 -788
c364 -24 730 -80 1090 -167 l200 -48 255 0 c140 0 260 -3 267 -8 8 -5 10 -25
6 -60 -8 -80 8 -94 190 -165 466 -182 892 -297 1422 -387 250 -42 399 -84 518
-145 29 -16 37 -17 37 -6 0 40 -207 127 -395 166 l-59 12 59 30 c80 40 162
100 275 204 186 170 322 255 485 302 126 37 294 48 311 21 3 -5 -22 -37 -54
-72 -79 -85 -117 -165 -147 -312 -28 -139 -49 -206 -81 -255 -27 -45 -88 -98
-131 -116 -46 -20 -43 -46 11 -83 89 -61 144 -159 171 -301 8 -47 24 -130 34
-185 26 -142 69 -238 142 -321 33 -37 58 -72 56 -78 -16 -47 -295 20 -475 114
-179 94 -297 196 -456 393 -147 183 -233 265 -329 311 -41 20 -82 36 -91 36
-29 0 -17 18 17 23 17 3 82 15 142 26 80 15 152 20 265 21 115 0 151 3 143 11
-17 17 -348 5 -438 -15 -86 -20 -157 -41 -186 -57 -22 -11 -22 -12 17 -32 l39
-21 -230 -17 c-373 -29 -620 -72 -1010 -180 -304 -83 -360 -98 -485 -129 -186
-46 -462 -99 -675 -129 -441 -62 -689 -84 -907 -80 -149 4 -169 6 -195 25 -41
30 -149 88 -213 115 -30 12 -84 40 -119 61 -70 42 -81 45 -81 23 0 -31 51 -66
202 -139 233 -113 267 -150 354 -389 65 -176 93 -228 189 -355 87 -116 105
-162 69 -176 -68 -26 -263 25 -439 115 -248 126 -442 291 -571 485 -30 45 -92
161 -139 258 -55 114 -90 176 -100 176 -19 0 -19 -11 0 -56 14 -35 14 -35 -8
-28 -27 8 -161 74 -203 100 -80 50 -213 159 -204 168 24 24 11 38 -27 32 -21
-4 -67 -9 -103 -12 -87 -8 -151 17 -277 107 -127 91 -186 125 -271 153 -104
36 -213 45 -587 50 -427 7 -592 29 -736 99 -53 27 -65 37 -67 60 -5 43 53 89
203 162 344 166 1077 419 1485 512 l85 20 7 -21 c3 -12 6 -32 7 -44 1 -22 -2
-23 -39 -17 -27 5 -40 3 -40 -5 0 -13 61 -40 92 -40 70 0 157 51 145 84 -6 16
-9 16 -38 -4 -16 -12 -32 -20 -34 -18 -2 2 -7 22 -10 44 l-7 40 149 27 c245
44 521 78 733 90 136 8 649 6 785 -3z m-3509 -910 c54 -34 167 -69 292 -91 96
-17 187 -22 517 -29 568 -13 546 -7 870 -235 88 -62 145 -78 258 -72 l98 5 75
-63 c96 -82 206 -151 308 -192 71 -28 82 -36 92 -66 6 -18 21 -52 33 -75 11
-23 21 -45 21 -50 0 -20 -323 39 -564 103 -242 64 -471 162 -743 315 -40 22
-73 38 -73 35 0 -13 156 -105 300 -176 170 -84 296 -134 468 -185 154 -46 389
-96 507 -108 121 -13 118 -12 148 -67 16 -28 27 -52 25 -53 -4 -5 -300 28
-431 48 -250 37 -547 103 -815 180 -292 85 -680 254 -880 385 -92 60 -130 79
-82 41 246 -197 808 -431 1284 -535 33 -7 95 -21 136 -30 203 -44 489 -87 742
-110 59 -6 70 -10 88 -35 11 -15 20 -30 20 -32 0 -15 -469 33 -700 71 -595
100 -1054 239 -1475 446 -223 110 -366 205 -480 319 -136 136 -177 233 -113
264 32 15 37 15 74 -8z m6379 -329 c-186 -49 -408 -127 -834 -296 -580 -228
-941 -322 -1586 -411 -101 -13 -398 -44 -437 -44 -21 0 -54 89 -35 95 7 2 82
6 168 9 146 6 388 32 524 56 161 29 366 77 339 79 -5 1 -59 -8 -120 -19 -342
-64 -556 -89 -868 -102 l-59 -3 -25 45 c-13 25 -35 59 -48 77 -13 17 -24 33
-24 35 0 2 107 3 238 3 135 0 282 6 342 13 356 45 428 54 545 72 274 42 603
113 840 180 472 134 942 236 1100 238 45 1 39 -2 -60 -27z"/>
<path d="M2875 2736 c-25 -11 -66 -46 -53 -46 2 0 21 9 43 20 22 11 53 20 70
20 36 0 104 -30 124 -53 7 -10 18 -17 24 -17 6 0 -4 15 -22 34 -50 51 -125 69
-186 42z"/>
<path d="M2895 2661 c-11 -5 -29 -18 -39 -30 -19 -21 -19 -22 1 -49 11 -15 36
-33 56 -41 32 -12 40 -11 73 5 58 29 65 48 28 84 -32 33 -84 46 -119 31z m-10
-55 c0 -18 -3 -22 -13 -14 -9 8 -9 14 -1 24 15 18 14 18 14 -10z m115 -26
c-27 -17 -37 -11 -32 21 l5 31 21 -21 c18 -19 19 -23 6 -31z"/>
<path d="M2820 2531 c16 -30 63 -51 112 -50 l43 1 -44 9 c-24 5 -62 20 -83 34
-35 24 -38 24 -28 6z"/>
<path d="M3647 2391 c-66 -27 -114 -65 -137 -111 -21 -42 -27 -105 -10 -115 6
-4 10 11 10 38 0 86 76 157 195 182 79 16 169 7 240 -24 38 -17 100 -76 137
-131 l17 -25 -9 34 c-13 47 -82 115 -144 142 -73 32 -231 37 -299 10z"/>
<path d="M3690 2093 c0 -14 129 -252 172 -318 88 -133 217 -256 373 -358 76
-49 194 -111 200 -105 2 2 -40 30 -93 62 -274 167 -403 300 -558 572 -82 145
-94 164 -94 147z"/>
</g>
</svg>
