<?xml version="1.0" standalone="no"?>
<!DOCTYPE svg PUBLIC "-//W3C//DTD SVG 20010904//EN"
 "http://www.w3.org/TR/2001/REC-SVG-20010904/DTD/svg10.dtd">
<svg version="1.0" xmlns="http://www.w3.org/2000/svg"
 width="1408.000000pt" height="768.000000pt" viewBox="0 0 1408.000000 768.000000"
 preserveAspectRatio="xMidYMid meet">
<metadata>
Created by potrace 1.16, written by Peter Selinger 2001-2019
</metadata>
<g transform="translate(0.000000,768.000000) scale(0.100000,-0.100000)"
fill="#000000" stroke="none">
<path d="M5280 6577 c-199 -60 -323 -187 -371 -377 -19 -78 -25 -88 -69 -127
-26 -23 -53 -55 -59 -72 -7 -16 -39 -50 -72 -75 -32 -25 -72 -65 -89 -88 -33
-45 -63 -134 -58 -170 4 -32 39 -29 178 16 150 49 216 55 294 26 81 -31 140
-91 161 -164 22 -74 9 -183 -47 -395 -93 -354 -116 -482 -125 -701 -22 -552
206 -1037 668 -1422 163 -136 448 -300 667 -384 l104 -39 35 -70 c20 -38 53
-96 75 -128 74 -110 93 -191 57 -253 -65 -112 -212 -325 -238 -343 -45 -32
-119 -42 -306 -40 -183 2 -211 -3 -298 -55 -52 -29 -87 -73 -87 -106 0 -21 3
-22 38 -15 20 4 53 7 72 7 19 -1 68 -2 107 -3 l73 -1 -21 -29 c-28 -40 -35
-91 -15 -108 13 -11 21 -9 52 10 26 16 61 24 123 30 47 4 97 11 111 14 22 5
22 4 -5 -11 -16 -9 -43 -28 -58 -43 -76 -70 -75 -157 1 -121 15 8 81 17 147
21 66 4 136 10 155 15 l35 7 -27 -32 c-32 -37 -51 -94 -46 -136 4 -37 28 -43
65 -16 15 12 64 34 108 49 44 16 143 63 220 105 154 85 160 86 281 61 58 -12
103 -15 166 -10 68 5 94 3 116 -8 22 -11 32 -12 41 -3 20 20 12 46 -26 88 -51
57 -95 76 -200 88 -171 19 -173 30 -58 259 71 142 100 188 152 245 78 85 118
161 136 258 l13 74 71 7 c160 16 377 72 541 140 l74 31 116 -18 c83 -13 199
-19 396 -23 l278 -4 192 -97 c238 -121 465 -221 621 -274 108 -37 130 -41 220
-42 84 0 106 3 141 22 l41 22 79 -26 c84 -27 186 -40 229 -29 33 8 47 43 30
76 -28 53 -99 104 -431 306 -115 70 -263 161 -329 203 l-120 76 110 12 c144
16 200 30 236 60 35 29 38 64 9 110 -43 72 -200 156 -545 294 -115 46 -307
132 -425 190 -195 96 -218 110 -243 148 -49 73 -188 203 -332 311 -77 57 -173
128 -213 158 -40 30 -146 120 -235 200 -375 335 -592 484 -994 678 -219 105
-320 171 -400 258 -102 113 -149 214 -213 457 -109 412 -189 583 -349 739 -91
89 -159 131 -278 173 -80 28 -101 31 -233 34 -128 3 -154 0 -220 -20z m386
-58 c109 -27 209 -82 287 -158 161 -154 240 -317 342 -701 69 -259 109 -355
193 -460 100 -125 180 -180 455 -315 386 -189 640 -359 922 -617 44 -40 102
-92 129 -115 27 -24 46 -43 42 -43 -10 0 -202 88 -317 145 -60 30 -111 55
-114 55 -16 0 -1 -30 22 -46 60 -39 333 -173 427 -209 71 -27 130 -60 205
-114 394 -280 563 -491 497 -619 -14 -26 -28 -35 -88 -53 -60 -18 -85 -21
-162 -16 -143 10 -346 69 -551 159 -117 52 -125 54 -125 35 0 -38 351 -185
523 -218 37 -7 67 -16 67 -20 0 -3 -28 -15 -62 -25 -51 -15 -94 -19 -223 -19
-141 1 -173 4 -270 28 -60 15 -146 43 -190 62 -45 19 -87 35 -94 35 -33 0 4
-29 92 -74 93 -46 97 -50 97 -81 0 -54 -28 -78 -97 -83 -103 -7 -256 46 -408
143 -30 19 -58 35 -64 35 -51 0 43 -77 183 -151 89 -47 90 -48 63 -58 -136
-52 -420 80 -705 325 -31 27 -46 34 -54 26 -20 -20 177 -192 315 -274 37 -23
66 -42 65 -44 -6 -6 -145 25 -207 46 -262 88 -551 324 -761 620 -143 203 -200
346 -208 524 -7 172 31 290 126 385 63 62 126 97 251 140 58 20 106 41 109 48
12 40 -135 14 -256 -44 -144 -71 -249 -202 -282 -354 -21 -93 -8 -277 25 -379
68 -209 224 -441 432 -641 272 -260 541 -397 798 -404 60 -2 111 -10 152 -24
34 -11 74 -21 89 -21 14 0 83 -15 153 -34 149 -40 285 -68 476 -95 159 -24
425 -51 494 -51 31 0 60 -9 91 -26 25 -14 79 -45 120 -67 155 -84 158 -77 -33
-77 -152 0 -322 11 -387 26 l-25 6 28 14 c15 8 27 19 27 25 0 25 -38 17 -157
-31 -70 -29 -173 -68 -228 -86 -110 -38 -331 -84 -400 -84 l-45 0 0 44 c0 50
-22 79 -38 49 -5 -10 -12 -61 -16 -114 -7 -113 -27 -187 -66 -249 -38 -59
-105 -124 -119 -115 -7 3 -27 8 -47 10 -49 4 -60 18 -74 89 -14 76 -49 139
-125 225 -32 36 -83 101 -113 145 -68 97 -186 221 -201 212 -20 -13 -12 -30
49 -106 33 -41 60 -78 60 -82 0 -3 -49 9 -109 27 -795 239 -1339 724 -1514
1350 -43 151 -52 228 -52 430 1 248 19 358 128 775 43 165 61 311 47 376 -27
120 -106 198 -253 248 -18 6 -17 7 2 35 32 44 90 92 140 114 26 11 49 25 53
31 12 19 -13 36 -53 36 -33 0 -45 6 -74 38 -19 21 -54 47 -77 57 -24 11 -44
20 -46 21 -8 5 29 127 52 171 108 212 374 305 662 232z m-651 -494 c34 -25 53
-61 40 -73 -17 -18 -216 -3 -223 17 -2 6 15 30 37 53 37 36 45 40 77 35 20 -3
51 -18 69 -32z m-172 -110 c20 -8 49 -15 64 -15 21 -1 2 -13 -75 -50 -57 -27
-126 -66 -153 -85 -27 -20 -49 -33 -49 -29 0 25 60 102 113 144 34 27 63 49
63 50 1 0 18 -7 37 -15z m121 -80 c-15 -19 -38 -38 -53 -41 -14 -3 -57 -14
-95 -25 -37 -11 -70 -18 -72 -16 -4 4 221 111 244 116 2 1 -9 -15 -24 -34z
m3961 -2505 c59 -73 109 -165 101 -186 -9 -23 -134 -17 -265 12 -64 14 -120
28 -125 31 -5 3 17 14 48 23 109 34 154 93 143 187 l-5 44 25 -23 c14 -13 49
-52 78 -88z m125 1 c101 -65 274 -232 284 -275 5 -19 3 -32 -6 -37 -61 -38
-438 -11 -931 67 l-109 17 82 24 c45 13 95 30 111 38 27 14 39 13 191 -26 108
-28 194 -43 255 -47 88 -4 92 -4 117 21 21 21 25 33 20 54 -10 41 -59 125
-110 188 -42 52 -43 54 -17 43 15 -6 66 -36 113 -67z m279 -113 c145 -66 341
-209 341 -247 0 -75 -660 -94 -1190 -35 -234 26 -635 89 -658 103 -9 5 -4 42
13 98 0 1 29 -5 65 -12 36 -8 106 -17 155 -21 50 -3 178 -24 285 -45 358 -70
802 -113 934 -91 72 12 106 32 106 64 0 35 -40 97 -108 168 -73 76 -70 77 57
18z m412 -175 c232 -119 235 -166 15 -192 -278 -34 -955 -45 -1296 -22 -312
21 -671 71 -878 123 -69 17 -80 23 -71 35 10 11 30 12 95 7 56 -4 98 -3 128 6
39 11 62 8 222 -24 189 -37 482 -79 674 -96 205 -18 584 -24 762 -11 324 23
380 62 259 183 -68 69 -58 68 90 -9z m-67 -382 c94 -60 272 -171 396 -246 269
-164 369 -234 347 -247 -58 -32 -385 96 -880 343 -165 83 -301 148 -304 145
-14 -14 14 -38 109 -94 134 -78 483 -257 622 -318 118 -52 121 -62 16 -63
-105 -1 -277 54 -535 171 -144 65 -743 369 -778 393 -20 15 -7 16 163 10 102
-3 277 -1 390 3 113 5 223 10 244 10 34 2 62 -13 210 -107z m-3038 -114 c38
-13 94 -29 125 -36 49 -12 61 -20 100 -69 78 -98 74 -86 46 -134 -14 -24 -44
-61 -66 -82 -37 -36 -43 -38 -66 -28 -14 7 -34 12 -44 12 -14 0 -21 13 -29 54
-12 57 -37 111 -100 211 -42 67 -55 95 -43 95 4 0 39 -10 77 -23z m363 -286
c11 -21 27 -71 36 -110 l16 -70 -95 -195 -95 -195 -33 13 c-18 8 -62 20 -98
26 -79 14 -100 25 -100 50 0 32 180 317 247 391 34 37 69 82 78 98 8 17 18 31
20 31 3 0 14 -17 24 -39z m-239 -125 c0 -7 -17 -39 -38 -72 -202 -314 -202
-352 3 -394 81 -16 94 -24 67 -39 -16 -9 -42 -8 -108 4 -139 24 -193 20 -344
-26 -114 -34 -296 -67 -308 -55 -11 12 69 49 140 66 177 42 250 72 229 93 -7
7 -39 5 -98 -7 -48 -10 -110 -22 -138 -27 -87 -17 -241 -29 -295 -22 l-53 6
39 21 c35 18 62 21 259 26 202 5 224 8 273 29 60 27 111 90 234 291 67 110 73
116 105 117 20 1 33 -4 33 -11z m397 -98 c19 1 33 -2 31 -7 -2 -5 -41 -83 -87
-173 -95 -187 -107 -235 -70 -282 30 -38 75 -55 175 -67 46 -5 95 -15 110 -21
l27 -13 -24 -6 c-41 -12 -121 -10 -209 6 -141 25 -134 27 -351 -93 -86 -47
-249 -114 -249 -102 0 21 65 72 140 110 137 68 214 134 182 154 -5 3 -38 -13
-74 -35 -59 -35 -82 -42 -217 -64 -102 -18 -178 -25 -238 -23 l-88 3 44 23
c33 18 75 27 179 38 236 25 371 66 435 132 36 38 95 146 181 330 29 63 51 100
58 96 6 -4 27 -7 45 -6z m-522 -458 c3 -5 3 -10 -2 -10 -4 0 -80 -9 -168 -19
-88 -11 -161 -18 -162 -17 -2 1 37 14 85 28 91 27 235 38 247 18z"/>
<path d="M5392 6258 c-64 -32 -80 -135 -28 -187 22 -22 36 -26 82 -26 50 0 58
3 85 33 23 26 29 42 29 78 0 39 -5 51 -34 80 -27 27 -42 34 -72 33 -22 0 -49
-5 -62 -11z m111 -60 c7 -21 -4 -38 -23 -38 -23 0 -34 16 -26 35 7 18 43 20
49 3z"/>
<path d="M5891 5842 c-38 -76 -103 -134 -180 -162 -33 -13 -61 -26 -61 -31 0
-34 105 -5 175 49 50 38 115 141 115 183 0 35 -19 20 -49 -39z"/>
<path d="M5197 4263 c-20 -20 -1 -167 39 -303 49 -162 202 -450 240 -450 21 0
18 10 -31 87 -109 176 -193 394 -218 566 -15 99 -18 112 -30 100z"/>
<path d="M6130 3857 c0 -53 220 -327 262 -327 19 0 5 29 -33 65 -49 48 -185
225 -194 254 -7 23 -35 29 -35 8z"/>
<path d="M5570 3384 c0 -19 108 -134 127 -134 21 0 16 8 -48 81 -63 70 -79 81
-79 53z"/>
<path d="M7816 2644 c-38 -13 -104 -31 -148 -41 -86 -18 -102 -40 -24 -35 61
5 210 46 242 67 13 9 22 20 19 25 -8 13 -8 13 -89 -16z"/>
</g>
</svg>
