<?xml version="1.0" standalone="no"?>
<!DOCTYPE svg PUBLIC "-//W3C//DTD SVG 20010904//EN"
 "http://www.w3.org/TR/2001/REC-SVG-20010904/DTD/svg10.dtd">
<svg version="1.0" xmlns="http://www.w3.org/2000/svg"
 width="1024.000000pt" height="559.000000pt" viewBox="0 0 1024.000000 559.000000"
 preserveAspectRatio="xMidYMid meet">
<metadata>
Created by potrace 1.16, written by Peter Selinger 2001-2019
</metadata>
<g transform="translate(0.000000,559.000000) scale(0.100000,-0.100000)"
fill="#000000" stroke="none">
<path d="M5520 4486 c-224 -50 -379 -136 -685 -380 -166 -133 -279 -204 -360
-224 -22 -6 -150 -16 -283 -22 -756 -34 -1283 -134 -1946 -370 -303 -108 -376
-145 -529 -268 -134 -109 -250 -284 -264 -398 -5 -47 -9 -54 -43 -73 -20 -11
-89 -41 -154 -66 -64 -24 -138 -56 -164 -69 -52 -26 -106 -80 -117 -118 -4
-13 -16 -34 -26 -47 -56 -71 20 -170 156 -206 45 -11 116 -15 305 -15 276 0
387 -13 670 -75 91 -20 306 -60 478 -89 172 -29 317 -57 321 -62 5 -5 20 -45
35 -90 32 -98 92 -217 150 -298 128 -179 365 -341 453 -310 46 16 51 52 21
147 -15 45 -30 98 -33 116 l-7 35 77 -72 c186 -171 483 -321 671 -338 61 -5
72 -4 97 16 52 42 34 98 -73 220 -118 135 -166 230 -234 465 -2 6 104 10 303
11 257 1 346 5 556 28 383 40 697 83 950 127 458 81 476 82 649 45 62 -14 200
-34 307 -46 299 -32 418 -53 769 -133 321 -74 378 -85 555 -108 l90 -11 83
-81 c46 -45 112 -118 147 -162 134 -170 317 -315 519 -411 181 -86 278 -95
284 -26 3 29 -6 42 -73 111 -131 134 -200 250 -236 394 -25 98 -48 145 -95
192 l-36 36 20 22 c11 12 28 42 38 67 21 56 40 78 83 99 173 83 -128 157 -492
121 l-131 -13 -50 59 c-223 259 -413 437 -616 573 -287 194 -510 297 -1470
681 -351 140 -466 208 -537 314 -44 65 -56 115 -51 217 6 123 42 194 148 291
44 40 85 85 91 101 16 38 -1 74 -46 93 -42 17 -196 17 -275 0z m260 -46 c11
-6 20 -15 20 -21 0 -6 -38 -48 -84 -92 -94 -92 -128 -144 -150 -232 -32 -122
-16 -247 45 -339 78 -117 213 -192 694 -384 860 -345 1007 -413 1290 -597 215
-140 364 -274 599 -540 77 -88 153 -172 168 -187 14 -16 26 -28 25 -28 -1 0
-37 7 -80 15 -98 19 -187 19 -212 2 -15 -12 -3 -15 91 -20 116 -6 271 -44 379
-92 59 -25 95 -32 95 -16 0 7 -46 30 -150 74 -40 17 -148 123 -136 134 14 14
477 9 519 -5 l37 -14 -32 -21 c-21 -14 -46 -47 -68 -92 -27 -53 -43 -73 -67
-84 -45 -20 -42 -44 12 -81 57 -39 88 -93 115 -200 38 -150 103 -262 230 -394
44 -46 80 -86 80 -90 0 -24 -118 12 -238 72 -183 93 -317 198 -439 345 -90
110 -392 418 -429 437 -22 12 -27 12 -35 0 -7 -11 6 -29 53 -72 35 -32 59 -57
53 -57 -62 -1 -350 53 -560 106 -250 62 -465 101 -736 133 -147 17 -317 41
-378 54 -107 22 -114 25 -159 68 -120 116 -274 170 -597 208 -255 31 -335 45
-583 105 -314 76 -403 88 -587 82 -165 -6 -247 -21 -405 -73 -127 -42 -345
-147 -420 -203 -57 -43 -110 -105 -110 -128 0 -12 -4 -11 -22 1 -32 23 -50 20
-46 -6 4 -31 62 -67 197 -124 88 -36 126 -58 162 -93 43 -43 50 -57 93 -191
58 -177 111 -274 220 -403 120 -140 122 -164 9 -154 -123 10 -313 90 -488 205
-78 52 -259 222 -340 322 -29 36 -94 132 -145 213 -128 205 -164 241 -324 317
-71 33 -183 95 -249 137 -165 104 -344 185 -526 239 -74 22 -116 27 -301 34
-202 8 -232 12 -342 47 -26 8 -22 -14 4 -28 55 -29 133 -41 338 -49 118 -5
233 -14 256 -19 148 -37 418 -158 568 -255 94 -61 131 -80 268 -145 88 -42
148 -84 148 -105 0 -6 16 -35 35 -63 19 -29 35 -55 35 -58 0 -25 -751 90
-1081 165 -274 63 -360 73 -659 75 -151 1 -291 5 -310 9 -87 20 -154 75 -148
122 3 32 1 32 83 2 49 -18 82 -22 185 -22 162 0 290 25 550 109 161 53 212 65
264 65 68 0 86 10 65 37 -24 28 -127 11 -334 -56 -276 -89 -408 -114 -565
-108 -127 5 -198 20 -207 45 -7 18 42 69 92 95 22 11 100 44 173 73 143 56
202 93 202 125 0 38 50 171 86 227 76 119 273 283 415 346 102 45 508 185 670
231 542 155 908 209 1639 244 153 7 183 12 238 34 93 37 159 80 315 206 293
234 430 314 628 367 131 34 251 40 299 14z m-958 -1865 c53 -8 199 -39 325
-69 259 -62 335 -76 587 -106 289 -35 454 -88 557 -178 l44 -40 -70 -7 c-38
-3 -185 -27 -325 -51 -347 -60 -750 -114 -1150 -154 -159 -16 -615 -30 -701
-22 -76 7 -77 7 -111 52 -35 46 -91 80 -261 155 l-78 34 18 32 c29 51 129 123
258 188 174 87 317 137 480 166 96 18 310 18 427 0z m-1740 -586 c70 -7 131
-15 135 -18 5 -3 30 -40 55 -81 26 -41 77 -112 115 -157 64 -77 68 -85 70
-135 1 -29 13 -89 27 -133 14 -44 26 -88 26 -97 0 -29 -45 -22 -120 18 -183
96 -326 269 -420 509 -44 115 -45 119 -27 112 7 -2 70 -10 139 -18z"/>
<path d="M4675 3830 c-9 -14 5 -17 130 -30 171 -17 347 -47 500 -87 172 -44
200 -49 191 -35 -14 22 -266 92 -436 121 -72 12 -323 41 -357 41 -12 0 -25 -5
-28 -10z"/>
<path d="M5155 3104 c50 -8 164 -26 255 -39 402 -61 711 -155 1247 -381 125
-53 311 -129 413 -170 197 -80 459 -204 628 -297 108 -60 112 -62 112 -48 0
25 -468 267 -680 351 -74 29 -225 91 -335 138 -627 264 -901 352 -1318 422
-100 17 -234 33 -297 35 l-115 4 90 -15z"/>
<path d="M2335 2763 c-42 -11 -61 -43 -26 -43 10 0 24 -7 31 -15 14 -17 66
-20 75 -5 3 6 15 10 26 10 46 0 -2 46 -57 54 -16 2 -38 2 -49 -1z"/>
<path d="M8360 1851 c0 -14 81 -120 142 -186 30 -33 77 -87 104 -121 52 -65
88 -98 170 -157 49 -35 79 -47 72 -28 -1 5 -34 34 -73 65 -38 31 -110 103
-160 161 -214 247 -239 275 -247 275 -4 0 -8 -4 -8 -9z"/>
</g>
</svg>
