<?xml version="1.0" standalone="no"?>
<!DOCTYPE svg PUBLIC "-//W3C//DTD SVG 20010904//EN"
 "http://www.w3.org/TR/2001/REC-SVG-20010904/DTD/svg10.dtd">
<svg version="1.0" xmlns="http://www.w3.org/2000/svg"
 width="1408.000000pt" height="768.000000pt" viewBox="0 0 1408.000000 768.000000"
 preserveAspectRatio="xMidYMid meet">
<metadata>
Created by potrace 1.16, written by Peter Selinger 2001-2019
</metadata>
<g transform="translate(0.000000,768.000000) scale(0.100000,-0.100000)"
fill="#000000" stroke="none">
<path d="M4568 6888 c-3 -7 -3 -62 0 -123 l4 -110 -57 55 c-31 30 -70 79 -87
108 -34 60 -62 68 -79 25 -16 -41 -3 -160 25 -239 l25 -67 -45 -50 c-49 -55
-107 -167 -102 -198 3 -19 6 -18 48 13 40 29 36 23 -31 -49 -73 -79 -89 -108
-89 -167 0 -38 -49 -127 -173 -315 -240 -362 -240 -363 -186 -526 38 -114 64
-148 130 -165 24 -6 66 -18 92 -27 61 -20 148 -13 185 14 15 10 35 37 45 59
10 21 23 50 30 64 7 15 39 39 77 59 36 18 111 59 167 91 81 46 116 60 172 68
39 6 90 20 115 32 l44 23 34 -21 c78 -49 91 -75 146 -302 51 -210 95 -345 192
-595 99 -252 101 -263 90 -350 -16 -118 -11 -212 19 -392 40 -237 85 -327 233
-469 l74 -71 12 -94 c6 -52 29 -164 51 -249 59 -233 70 -301 86 -564 12 -191
21 -263 41 -346 26 -101 27 -112 21 -305 -4 -134 -11 -218 -21 -255 -9 -30
-16 -69 -16 -86 0 -65 -31 -126 -99 -195 -48 -49 -81 -95 -120 -170 -82 -157
-67 -179 119 -179 144 0 204 15 241 59 46 56 55 98 34 164 -17 55 -17 56 6 97
13 23 45 57 72 76 78 57 78 54 70 444 -6 338 -6 341 18 425 13 47 26 85 29 85
8 -1 70 -150 85 -205 22 -83 55 -370 55 -484 0 -121 -15 -184 -54 -236 -15
-19 -54 -82 -87 -141 -94 -166 -79 -189 126 -188 144 0 181 13 220 74 29 46
30 83 4 167 -17 57 -1 109 56 173 58 66 63 97 36 224 -40 182 -91 460 -97 531
-4 39 -1 102 5 142 9 57 8 87 -4 150 -17 95 -35 394 -35 593 l0 146 263 12
c560 24 775 65 1185 227 253 99 298 103 378 35 25 -22 54 -40 65 -40 11 0 24
-10 29 -22 5 -13 34 -79 64 -148 30 -69 64 -158 75 -197 12 -40 30 -106 42
-145 12 -40 43 -120 69 -178 55 -121 76 -188 86 -279 3 -35 15 -94 25 -130 11
-36 19 -95 19 -130 0 -95 -85 -465 -135 -588 -13 -32 -31 -87 -40 -123 -20
-79 -50 -127 -124 -201 -39 -39 -72 -88 -111 -162 l-55 -106 20 -20 c29 -29
123 -44 225 -37 121 9 140 16 179 67 33 43 33 45 27 118 -6 69 -4 76 19 107
14 18 50 48 80 66 67 40 80 65 99 194 28 183 121 563 197 802 22 70 40 147 40
172 0 28 -13 79 -35 137 -20 51 -36 100 -36 109 0 22 115 -127 147 -191 14
-27 36 -78 50 -113 13 -36 48 -112 79 -171 42 -81 56 -122 64 -176 14 -107 32
-465 25 -494 -4 -14 -10 -96 -14 -181 -6 -153 -7 -156 -39 -205 -48 -75 -123
-235 -129 -276 -5 -32 -2 -39 23 -55 40 -27 257 -27 325 -1 82 31 109 115 70
215 -14 35 -17 58 -12 83 10 45 34 90 61 114 34 30 60 90 60 135 0 22 -7 85
-15 139 -34 226 -42 522 -23 826 13 218 16 205 -89 359 -68 99 -102 166 -142
280 -62 176 -60 251 13 487 102 329 133 480 143 681 7 148 -8 277 -43 382 -13
38 -20 66 -15 61 22 -23 63 -121 83 -197 18 -73 20 -102 15 -233 -3 -87 -19
-245 -38 -375 -29 -201 -33 -249 -33 -450 0 -197 2 -238 22 -329 27 -124 76
-256 101 -273 10 -7 31 -45 46 -83 59 -149 122 -255 151 -255 21 0 18 9 -36
113 -146 277 -189 601 -135 1012 17 130 19 163 6 150 -34 -35 -77 -437 -68
-625 7 -134 -4 -114 -29 55 -23 152 -15 418 19 665 41 291 50 398 43 500 -13
202 -57 303 -191 437 -69 68 -99 93 -107 85 -8 -8 2 -33 35 -89 90 -154 127
-293 127 -480 0 -182 -41 -412 -115 -643 -88 -274 -100 -342 -85 -453 6 -39
18 -94 26 -122 32 -96 113 -255 184 -359 l72 -105 -13 -243 c-14 -267 -2 -621
26 -788 24 -142 22 -160 -30 -224 -79 -96 -99 -175 -66 -252 32 -71 27 -78
-26 -40 -63 45 -121 73 -166 81 l-37 7 20 29 c49 68 64 119 62 219 -1 52 3
131 8 176 11 86 -1 405 -20 546 -12 86 -26 125 -71 198 -16 27 -50 99 -75 160
-44 112 -91 190 -183 310 -28 36 -85 130 -127 210 -94 177 -115 208 -218 325
-82 93 -155 178 -290 342 -93 111 -146 143 -241 143 -68 0 -158 -26 -152 -44
3 -6 11 -10 18 -8 167 41 242 11 353 -139 l26 -37 -76 -36 c-42 -20 -85 -36
-96 -36 -11 0 -40 18 -64 39 -87 76 -134 71 -449 -51 -309 -120 -474 -158
-835 -194 -176 -18 -585 -24 -682 -11 l-56 8 19 53 c10 30 23 85 28 122 5 38
21 100 36 138 14 38 32 115 40 170 29 205 10 221 -25 22 -11 -65 -32 -146 -46
-179 -14 -34 -34 -98 -44 -143 -10 -44 -37 -123 -59 -175 -22 -52 -47 -122
-55 -154 -19 -77 -76 -644 -76 -759 0 -64 -7 -114 -26 -185 l-27 -96 6 -335
c4 -184 4 -345 1 -357 -4 -13 -28 -38 -55 -58 -49 -35 -109 -122 -109 -160 0
-11 8 -41 17 -67 19 -53 13 -70 -16 -44 -21 19 -189 96 -210 96 -8 0 11 26 41
58 72 76 92 116 113 237 29 164 34 222 34 395 1 146 -2 176 -24 255 -19 70
-27 133 -35 285 -15 266 -32 382 -90 620 -47 191 -70 345 -70 462 0 26 -5 59
-11 75 -17 46 -30 7 -23 -69 4 -45 3 -68 -4 -68 -6 0 -45 37 -86 82 -84 90
-138 184 -155 270 -50 253 -58 444 -26 633 21 130 32 325 17 325 -11 0 -16
-30 -27 -152 -13 -139 -14 -138 -88 49 -96 243 -141 381 -198 607 -29 116 -60
217 -74 242 -24 41 -87 104 -105 104 -5 0 8 24 30 53 84 109 109 310 53 420
-20 40 -33 25 -21 -25 6 -24 10 -82 10 -131 0 -76 -4 -96 -30 -150 -40 -86
-86 -135 -157 -169 -76 -36 -174 -39 -235 -8 -51 26 -60 10 -15 -27 l36 -28
-142 -75 c-171 -91 -203 -116 -218 -172 -6 -24 -14 -48 -18 -54 -15 -22 -53
-34 -103 -34 l-52 0 43 53 c23 28 62 73 87 98 28 30 40 49 33 54 -21 13 -99
-54 -149 -128 -28 -41 -55 -52 -106 -43 -54 10 -83 40 -95 97 -6 27 -18 63
-26 79 -8 16 -15 49 -15 73 0 50 29 103 215 382 134 202 164 259 172 328 6 46
13 59 62 111 40 41 57 54 59 42 6 -28 26 -16 77 47 57 69 75 80 75 45 1 -31
32 -99 57 -121 20 -18 20 -17 25 80 4 74 11 110 28 146 21 44 24 47 40 32 19
-17 40 -20 40 -5 0 6 -14 38 -31 72 -27 53 -32 75 -36 162 l-5 101 22 -33 c35
-52 72 -171 79 -252 3 -41 11 -75 16 -75 16 0 17 125 1 185 l-14 55 49 -54
c64 -69 90 -121 97 -193 7 -80 26 -70 30 15 2 37 4 67 5 67 10 0 141 -41 177
-56 63 -25 210 -107 310 -175 227 -151 393 -310 673 -643 259 -308 296 -338
539 -436 42 -17 132 -67 200 -111 222 -144 345 -174 658 -166 213 6 362 27
649 93 315 72 385 84 522 91 272 12 514 -57 796 -229 67 -41 94 -51 151 -58
294 -37 487 -241 578 -610 46 -191 54 -332 40 -725 -10 -260 -18 -277 -31 -64
-4 65 -11 119 -15 119 -17 0 -25 -142 -24 -435 0 -333 12 -465 62 -665 l29
-114 -29 35 c-92 109 -208 446 -233 674 -8 77 -14 97 -26 90 -36 -23 31 -387
106 -572 61 -151 172 -312 225 -326 33 -8 34 14 6 110 -43 147 -65 262 -80
429 -18 195 -26 358 -16 347 4 -4 20 -41 35 -81 30 -77 49 -102 66 -85 6 6 2
53 -12 134 -20 116 -21 141 -13 384 14 425 6 559 -46 768 -93 377 -296 588
-612 637 -51 8 -86 22 -142 55 -237 144 -470 221 -707 232 -147 7 -255 -6
-506 -63 -441 -100 -603 -124 -829 -124 -270 0 -368 28 -592 171 -123 78 -134
88 -157 136 -23 47 -34 57 -119 107 -58 34 -110 74 -135 103 -37 43 -57 78
-124 222 -13 27 -55 74 -109 125 -49 44 -100 100 -114 123 -46 78 -131 169
-210 223 -44 29 -114 86 -156 126 -90 85 -158 122 -298 163 -64 19 -134 48
-189 80 -104 60 -166 75 -277 68 l-81 -5 -82 97 c-44 53 -96 116 -114 141 -33
45 -71 63 -79 38z m-55 -240 l45 -34 -60 -23 c-32 -13 -61 -22 -62 -20 -11 13
-37 113 -43 159 l-6 55 41 -52 c23 -28 61 -67 85 -85z m86 -153 c-27 -43 -41
-78 -46 -116 -8 -60 -23 -46 -23 22 l0 61 -70 -74 -70 -73 22 58 c11 31 18 60
15 63 -3 4 -26 -11 -51 -31 -61 -49 -58 -30 4 38 33 36 76 68 127 95 l78 41
13 -32 c11 -26 12 -35 1 -52z m466 68 c11 -3 63 -29 115 -58 60 -34 130 -64
190 -80 97 -27 176 -61 220 -95 l25 -19 -37 6 c-22 3 -38 2 -38 -4 0 -5 51
-38 113 -73 184 -104 231 -140 312 -239 l20 -24 -33 17 c-19 10 -36 15 -39 13
-6 -7 54 -66 145 -141 98 -81 176 -171 203 -233 60 -141 97 -187 219 -268 52
-35 109 -78 125 -95 l30 -32 -52 21 c-107 42 -127 52 -188 96 -70 49 -158 145
-320 345 -139 171 -390 423 -522 523 -211 160 -404 264 -582 313 -121 34 -126
46 -16 39 50 -4 99 -9 110 -12z m3627 -3200 c30 -38 94 -113 143 -168 155
-176 227 -305 268 -475 14 -58 39 -142 56 -188 32 -87 38 -142 21 -188 -55
-143 -181 -646 -221 -874 -11 -69 -27 -135 -35 -147 -8 -13 -32 -32 -53 -42
-43 -22 -97 -80 -112 -120 -6 -14 -8 -50 -4 -78 4 -29 4 -53 1 -53 -3 0 -31
18 -62 40 -32 22 -61 40 -65 40 -4 0 -28 9 -53 20 l-46 19 56 55 c52 53 104
141 104 179 0 10 16 60 35 112 68 181 145 518 145 633 0 38 -7 91 -15 118 -8
27 -19 85 -25 129 -15 110 -34 172 -90 296 -27 58 -61 148 -75 200 -42 153
-65 219 -110 314 -50 108 -69 161 -60 175 7 12 115 69 131 70 7 0 36 -30 66
-67z m-2266 -233 l44 0 0 -134 c0 -182 18 -524 33 -621 9 -56 10 -104 3 -160
-11 -104 1 -202 65 -519 28 -138 48 -260 45 -272 -3 -12 -26 -45 -50 -74 -30
-35 -49 -70 -60 -110 -16 -58 -16 -61 4 -109 33 -76 25 -86 -38 -47 -29 19
-77 44 -107 57 -30 13 -55 28 -55 32 0 5 11 23 25 42 14 18 35 58 45 89 27 75
27 243 0 453 -26 206 -33 237 -70 316 -17 37 -44 119 -60 182 -16 64 -32 120
-35 125 -6 10 51 562 66 640 6 30 17 70 25 89 13 30 17 33 45 27 17 -3 51 -6
75 -6z m-21 -2053 c57 -30 100 -59 100 -67 0 -30 -56 -44 -172 -45 -62 0 -116
4 -122 10 -12 12 64 155 82 155 7 0 57 -24 112 -53z m2195 -1 c145 -71 163
-90 113 -123 -22 -15 -49 -18 -149 -18 -79 0 -127 4 -134 11 -14 14 64 164 86
164 7 0 45 -15 84 -34z m-2800 -57 c40 -17 92 -43 117 -58 44 -27 44 -28 26
-50 -10 -12 -36 -26 -58 -31 -49 -12 -235 -13 -253 -2 -17 11 65 172 88 172 4
0 40 -14 80 -31z m3785 -44 c28 -12 72 -38 98 -57 47 -34 47 -35 30 -57 -24
-29 -116 -45 -221 -38 -46 3 -86 8 -89 11 -4 3 11 44 32 91 38 85 38 86 69 80
17 -4 54 -17 81 -30z"/>
<path d="M9033 2668 c3 -18 9 -55 12 -83 6 -43 26 -127 41 -174 2 -8 7 -11 10
-8 8 8 -50 297 -60 297 -4 0 -6 -15 -3 -32z"/>
<path d="M8971 1913 c-16 -54 -41 -150 -56 -213 -35 -155 -34 -150 -24 -150 9
0 33 77 83 275 20 77 39 150 42 163 4 13 2 22 -4 22 -6 0 -25 -44 -41 -97z"/>
<path d="M6440 1940 c0 -42 35 -259 51 -314 19 -67 31 -27 15 50 -8 38 -22
116 -31 174 -17 108 -35 152 -35 90z"/>
<path d="M5252 6261 c2 -4 48 -44 103 -88 163 -129 336 -326 481 -547 21 -32
40 -53 42 -47 5 14 -80 148 -172 271 -89 120 -257 287 -362 363 -79 55 -99 66
-92 48z"/>
<path d="M4462 6098 c-10 -13 -43 -87 -39 -89 1 -1 13 -3 27 -5 14 -2 40 -6
58 -10 28 -5 38 -1 75 32 23 21 42 43 42 48 0 27 -143 48 -163 24z"/>
<path d="M4207 5836 c-86 -113 -118 -165 -85 -138 17 13 144 178 173 225 9 15
13 27 8 27 -6 0 -49 -51 -96 -114z"/>
<path d="M5116 5663 c77 -182 92 -232 145 -485 22 -106 42 -195 46 -198 14
-13 -9 162 -41 302 -37 163 -71 268 -117 361 -32 63 -59 79 -33 20z"/>
<path d="M4443 5455 c-51 -34 -72 -55 -56 -55 16 0 117 65 121 78 6 20 -10 14
-65 -23z"/>
<path d="M3935 5430 c-4 -6 -2 -17 4 -24 9 -10 5 -17 -14 -30 -17 -11 -25 -25
-23 -38 3 -24 28 -38 28 -16 0 7 8 24 17 38 l17 24 8 -29 c5 -20 3 -36 -7 -52
-19 -28 -19 -43 -2 -43 37 0 62 66 46 123 -12 46 -57 74 -74 47z"/>
<path d="M5931 4878 c-116 -120 -193 -214 -222 -270 -34 -68 -16 -63 34 9 25
37 92 118 148 178 118 128 154 173 146 181 -3 3 -51 -41 -106 -98z"/>
<path d="M9730 4669 c0 -7 23 -36 51 -66 92 -97 175 -317 195 -513 11 -110 28
-101 21 11 -13 194 -88 402 -183 508 -50 56 -84 80 -84 60z"/>
<path d="M10053 4188 c26 -104 37 -233 37 -453 1 -185 3 -235 12 -220 17 28
23 411 9 505 -15 98 -41 190 -53 190 -6 0 -8 -10 -5 -22z"/>
<path d="M9546 4038 c-2 -7 -10 -42 -17 -78 -18 -95 -65 -224 -115 -318 -48
-90 -54 -128 -12 -71 69 91 145 290 155 407 3 39 3 72 -1 72 -4 0 -8 -6 -10
-12z"/>
<path d="M5830 3579 c0 -24 32 -69 77 -109 51 -45 189 -130 212 -130 25 0 -8
29 -83 73 -39 22 -101 72 -138 109 -38 37 -68 63 -68 57z"/>
<path d="M6010 2993 c0 -78 -9 -171 -26 -280 -19 -117 -24 -167 -16 -175 8 -8
12 -1 16 23 4 19 17 96 31 172 24 134 32 279 19 346 -13 65 -24 27 -24 -86z"/>
<path d="M9560 2753 c0 -32 50 -194 75 -242 25 -49 71 -99 81 -88 4 3 -2 18
-12 33 -11 15 -27 38 -37 53 -9 14 -34 77 -53 138 -34 107 -54 146 -54 106z"/>
<path d="M9723 2023 c-4 -16 -7 -128 -8 -250 0 -195 4 -248 19 -232 7 8 11
509 4 509 -4 0 -11 -12 -15 -27z"/>
<path d="M6035 1866 c-10 -62 -11 -353 -2 -362 4 -4 9 -5 11 -3 8 9 13 409 5
409 -4 0 -11 -20 -14 -44z"/>
</g>
</svg>
