<?xml version="1.0" standalone="no"?>
<!DOCTYPE svg PUBLIC "-//W3C//DTD SVG 20010904//EN"
 "http://www.w3.org/TR/2001/REC-SVG-20010904/DTD/svg10.dtd">
<svg version="1.0" xmlns="http://www.w3.org/2000/svg"
 width="1024.000000pt" height="559.000000pt" viewBox="0 0 1024.000000 559.000000"
 preserveAspectRatio="xMidYMid meet">
<metadata>
Created by potrace 1.16, written by Peter Selinger 2001-2019
</metadata>
<g transform="translate(0.000000,559.000000) scale(0.100000,-0.100000)"
fill="#000000" stroke="none">
<path d="M5924 3724 c-77 -121 -178 -356 -199 -467 -3 -16 -10 -25 -16 -21
-19 11 -56 -5 -75 -33 -10 -16 -25 -57 -34 -92 -16 -64 -16 -64 -27 -35 -6 16
-19 55 -29 87 -22 74 -77 137 -147 168 l-53 23 -13 136 c-13 146 -27 182 -73
188 -32 4 -75 -31 -82 -66 -2 -15 -10 -65 -16 -112 -17 -121 -17 -120 -48 -80
-98 126 -251 193 -447 194 -119 1 -186 -21 -268 -88 -56 -44 -103 -69 -117
-61 -5 3 -12 19 -15 36 -4 17 -24 48 -45 69 -127 127 -414 71 -583 -114 -43
-48 -42 -48 -84 59 -49 123 -97 208 -125 224 -29 17 -30 17 -343 -61 -77 -20
-183 -43 -235 -53 -113 -20 -190 -47 -247 -87 -48 -32 -63 -55 -63 -92 0 -46
36 -43 161 13 125 55 202 81 324 106 159 34 209 50 282 88 50 26 47 29 115
-97 24 -44 64 -107 90 -140 34 -45 44 -64 38 -77 -8 -14 -18 -15 -66 -7 -117
18 -273 -23 -291 -77 -10 -31 -164 -156 -328 -267 -205 -139 -319 -273 -332
-391 -4 -32 -1 -46 12 -57 31 -26 65 -1 132 99 78 119 127 169 283 291 117 91
250 219 250 240 0 6 12 10 27 10 14 0 54 11 88 25 56 22 175 45 175 33 0 -3
-8 -29 -19 -59 -10 -30 -21 -76 -25 -102 -4 -26 -19 -71 -34 -99 -36 -70 -38
-164 -4 -200 12 -14 22 -32 22 -40 0 -24 28 -48 54 -48 13 0 41 14 62 30 100
77 150 104 229 122 98 23 240 90 320 150 54 41 136 124 190 191 33 42 76 27
155 -53 36 -37 76 -70 88 -74 48 -16 15 -21 -125 -22 -161 -1 -220 -15 -230
-54 -3 -11 -9 -20 -14 -20 -5 0 -29 -30 -53 -67 -57 -90 -226 -415 -226 -437
0 -10 -11 -32 -24 -49 -14 -18 -49 -93 -78 -167 -29 -74 -57 -141 -61 -147
-14 -23 -133 -83 -164 -83 -32 0 -68 -27 -78 -61 -10 -32 7 -44 46 -30 17 6
46 11 63 11 40 0 120 46 185 107 46 43 56 60 92 158 41 113 76 182 103 205 14
11 16 9 16 -13 0 -28 17 -44 31 -30 5 5 13 32 19 61 5 28 29 93 54 144 24 51
64 148 88 215 l43 123 38 0 c52 0 167 -18 256 -41 41 -10 93 -19 117 -19 24 0
45 -3 47 -7 3 -5 -63 -8 -146 -8 -198 0 -227 -10 -284 -98 -23 -34 -50 -80
-61 -102 -38 -79 -163 -406 -169 -443 -3 -20 -12 -44 -19 -52 -24 -28 -56
-110 -93 -242 l-37 -128 -64 -51 c-34 -28 -91 -64 -126 -79 -60 -27 -92 -59
-79 -80 3 -6 15 -10 26 -10 10 0 28 -5 38 -12 41 -26 220 92 292 193 10 15 34
80 53 145 39 136 45 150 84 218 36 65 52 70 52 17 0 -23 4 -41 9 -41 12 0 21
37 21 91 0 30 11 70 30 112 31 68 78 224 102 337 l13 65 62 3 c44 2 95 -6 179
-28 146 -37 241 -40 317 -9 89 36 99 43 115 77 14 28 14 41 4 89 -14 68 -60
170 -107 235 -19 26 -31 48 -25 48 5 0 30 -30 54 -67 54 -82 79 -110 128 -147
42 -32 41 -10 13 -206 -28 -197 -45 -275 -75 -337 -24 -52 -33 -63 -53 -63
-25 0 -57 -27 -57 -49 0 -17 44 -31 95 -31 43 0 45 1 70 50 14 27 32 74 39
104 8 30 19 63 24 73 5 10 18 68 28 128 10 61 19 112 21 114 2 3 16 -8 33 -24
l29 -28 -1 -231 c-1 -197 1 -240 16 -291 16 -53 18 -79 10 -225 -4 -91 -8
-199 -9 -240 -1 -105 -13 -185 -36 -253 -11 -32 -19 -63 -17 -69 4 -11 138
-20 138 -9 0 3 2 71 4 151 3 80 10 260 16 400 15 336 16 442 8 578 l-8 113 25
9 c34 13 47 44 43 106 -1 30 -2 54 0 54 2 0 20 -13 40 -30 20 -16 65 -41 100
-55 58 -24 71 -25 155 -19 91 7 118 16 164 57 l22 20 65 -60 c115 -105 310
-193 529 -238 l108 -21 34 -53 c30 -44 35 -62 35 -109 0 -58 16 -63 22 -7 2
19 9 30 18 30 16 0 25 -17 179 -337 66 -137 98 -192 118 -205 15 -10 51 -36
78 -58 81 -65 199 -126 240 -123 26 2 42 -5 64 -26 35 -33 61 -29 61 9 0 22 3
24 19 15 14 -7 22 -7 27 2 12 19 -50 65 -97 73 -81 12 -113 27 -221 98 l-107
71 -101 205 c-56 113 -113 227 -126 253 -22 42 -57 140 -51 144 1 0 29 4 62 7
l60 6 48 -69 c66 -93 78 -102 185 -149 97 -43 101 -44 227 -37 91 4 104 18 60
62 -27 27 -32 27 -108 8 -16 -3 -38 -2 -50 4 -12 5 -54 22 -94 37 -65 24 -78
33 -123 91 l-50 64 59 0 c68 0 76 8 117 116 46 123 26 299 -51 454 -144 293
-446 506 -758 535 l-78 7 -51 77 c-136 204 -174 241 -247 241 -27 0 -36 -8
-67 -56z m87 16 c26 -14 24 -30 -10 -98 -34 -67 -77 -186 -92 -250 -5 -25 -24
-61 -41 -81 -50 -56 -81 -135 -86 -219 -3 -40 -8 -70 -13 -65 -4 4 -13 41 -20
82 -14 84 -8 121 48 266 46 122 174 375 189 375 3 0 14 -5 25 -10z m-2578 -52
c13 -18 39 -69 57 -113 18 -44 43 -101 56 -127 14 -27 22 -48 20 -48 -14 0
-186 287 -186 309 0 22 30 10 53 -21z m2727 -98 c44 -66 80 -122 80 -125 0 -3
-13 -5 -28 -5 -24 0 -33 9 -67 73 -21 39 -49 89 -62 109 -24 39 -30 68 -13 68
5 0 46 -54 90 -120z m-2864 94 c-47 -26 -135 -54 -236 -75 -196 -41 -231 -52
-372 -116 -54 -25 -103 -43 -109 -41 -19 6 44 60 99 86 30 13 138 41 240 62
167 35 359 84 371 96 2 2 11 4 20 4 9 -1 4 -7 -13 -16z m1985 -79 c10 -39 29
-238 24 -243 -2 -3 -19 -2 -38 2 l-34 6 -7 77 c-8 100 -8 178 1 187 17 16 47
0 54 -29z m823 -67 c40 -75 43 -87 28 -92 -9 -3 -37 -10 -62 -16 -25 -7 -62
-21 -83 -32 -22 -11 -40 -18 -42 -16 -5 5 60 190 79 227 10 18 21 29 26 25 4
-5 28 -48 54 -96z m-1958 32 c34 -18 54 -36 66 -60 78 -163 86 -224 39 -306
-55 -96 -222 -228 -361 -285 -100 -41 -118 -43 -122 -17 -2 17 -15 27 -50 38
-26 8 -58 26 -72 39 -23 22 -26 22 -48 7 -29 -21 -72 -20 -93 1 -21 20 -15 85
18 183 24 72 38 81 89 56 39 -20 52 -20 68 -1 10 13 10 19 -4 33 -9 10 -16 26
-16 34 0 15 38 52 94 91 14 10 26 23 26 28 0 17 -92 -40 -125 -77 -22 -24 -36
-33 -48 -28 -9 3 -17 9 -17 13 1 17 31 56 80 108 146 151 341 209 476 143z
m557 4 c35 -6 37 -9 37 -44 0 -43 10 -68 63 -163 42 -73 67 -151 67 -210 0
-63 -43 -69 -193 -26 -60 18 -77 29 -151 99 -79 74 -166 132 -166 111 0 -6 24
-26 53 -45 28 -18 77 -59 107 -91 30 -31 74 -67 98 -79 l44 -23 -31 -12 c-46
-20 -80 -6 -141 59 -60 63 -104 90 -146 90 -25 0 -26 2 -21 34 5 32 0 71 -17
124 -6 19 -2 25 27 37 18 8 54 31 78 51 84 70 194 104 292 88z m158 -34 c35
-10 84 -32 110 -48 53 -34 155 -148 151 -169 -4 -20 18 -122 28 -128 5 -3 6
28 3 68 l-6 73 39 -3 c221 -20 295 -71 333 -228 7 -27 22 -65 33 -83 11 -18
18 -35 15 -38 -6 -6 -61 21 -99 49 -15 11 -31 18 -34 14 -12 -11 56 -66 97
-78 21 -7 39 -13 39 -15 0 -24 -27 -58 -55 -69 -46 -20 -80 -19 -151 5 -58 20
-60 22 -91 88 -31 66 -86 142 -96 132 -3 -3 17 -41 43 -85 70 -116 70 -117 7
-143 -29 -12 -61 -22 -72 -22 -43 0 -123 69 -189 161 -57 81 -65 98 -71 153
-9 84 -30 144 -73 213 -48 75 -62 107 -62 143 0 37 13 38 101 10z m338 -147
c1 -15 -5 -23 -15 -23 -12 0 -15 6 -10 23 3 12 6 36 7 52 l1 30 8 -30 c4 -16
8 -40 9 -52z m1068 -33 c6 -30 12 -81 12 -112 l1 -58 -35 0 c-61 0 -130 -44
-307 -197 -59 -51 -109 -93 -111 -93 -11 0 -15 134 -6 196 18 131 78 213 196
268 50 25 188 57 223 53 10 -2 19 -22 27 -57z m152 45 c102 -17 215 -57 300
-108 l53 -32 -6 -66 c-9 -103 -51 -251 -99 -352 -42 -89 -81 -147 -89 -137 -3
3 -40 72 -82 154 -89 171 -115 214 -167 276 -37 45 -37 46 -32 115 3 39 0 88
-5 109 -18 63 -16 64 127 41z m-2904 -114 c23 -5 10 -9 -53 -14 -51 -4 -106
-16 -145 -32 -73 -29 -87 -31 -87 -11 0 46 177 81 285 57z m3376 -128 c52 -49
104 -112 141 -168 68 -104 68 -105 8 -230 -50 -103 -96 -155 -219 -248 l-100
-76 -24 42 c-13 23 -41 75 -62 114 l-37 73 30 47 c81 126 144 306 157 446 4
42 10 77 15 77 5 0 46 -35 91 -77z m-1181 -65 c24 -117 45 -176 70 -204 20
-20 20 -21 2 -37 -17 -16 -24 -15 -103 16 l-84 33 4 39 c1 22 9 51 16 66 8 14
17 49 21 77 6 48 39 120 50 109 3 -3 14 -47 24 -99z m-2585 21 c-28 -28 -109
-95 -181 -149 -154 -117 -218 -182 -305 -310 -53 -79 -64 -91 -67 -71 -6 40
55 147 122 214 34 34 125 106 202 160 76 53 168 122 204 151 36 30 67 55 70
55 2 1 -18 -22 -45 -50z m3163 13 c47 -47 102 -142 235 -407 47 -94 116 -224
152 -290 64 -116 94 -189 83 -201 -17 -16 -71 32 -109 98 -57 97 -156 308
-214 453 -47 118 -121 271 -150 309 -13 18 -17 18 -42 5 -42 -22 -180 -162
-282 -286 -50 -62 -110 -127 -131 -146 -37 -32 -46 -34 -132 -41 -87 -6 -95
-5 -152 22 -83 39 -120 73 -135 122 -7 23 -15 48 -17 54 -4 9 11 13 53 12 36
0 70 6 90 17 l33 17 45 -61 c44 -59 51 -76 57 -128 5 -39 24 -35 37 9 16 53
91 133 264 278 214 180 270 209 315 164z m-1508 -59 c42 -5 48 -9 87 -67 73
-108 116 -234 95 -281 -7 -14 -17 -23 -23 -20 -5 4 -18 0 -27 -9 -61 -54 -173
-60 -342 -16 -63 17 -140 30 -172 30 -46 0 -59 4 -68 19 -5 11 -10 22 -10 26
0 10 51 25 119 35 73 10 385 -10 433 -29 19 -7 29 -7 34 0 11 18 -19 38 -74
49 -83 15 -129 47 -196 135 -50 65 -48 87 12 118 26 13 56 23 67 20 11 -2 40
-7 65 -10z m1521 -75 c18 -35 43 -92 56 -128 14 -36 47 -118 75 -183 l50 -119
-19 -26 c-11 -14 -40 -44 -66 -65 l-46 -39 -93 36 c-51 20 -108 45 -127 57
l-34 20 21 21 20 20 53 -25 c72 -33 125 -49 146 -45 11 3 -3 12 -37 25 -30 12
-76 31 -102 43 l-48 21 25 49 c39 76 73 188 80 265 4 39 4 67 1 64 -4 -4 -18
-54 -31 -111 -23 -104 -72 -229 -94 -243 -7 -4 -36 9 -68 30 -30 20 -57 34
-59 32 -5 -5 48 -53 86 -78 25 -16 25 -17 6 -37 l-18 -21 -58 39 c-76 52 -105
87 -88 109 121 156 303 351 328 351 6 0 24 -28 41 -62z m-1779 6 c24 -4 40
-13 43 -25 4 -11 22 -40 41 -64 41 -55 40 -55 -113 -15 -65 17 -141 30 -175
30 -64 0 -98 12 -98 35 0 17 22 23 116 34 91 11 141 12 186 5z m-1047 -54 c4
-12 -1 -31 -13 -48 -10 -15 -22 -34 -25 -42 -11 -29 -7 47 4 79 13 36 25 40
34 11z m174 -14 c13 -14 37 -26 54 -28 36 -4 47 -24 18 -33 -21 -6 -146 -89
-194 -127 -28 -23 -29 -23 -43 -4 -22 31 -16 145 7 130 15 -9 78 27 100 57 25
35 29 36 58 5z m-125 -23 c-26 -19 -36 -16 -24 7 6 12 16 17 27 13 14 -6 14
-8 -3 -20z m626 -133 c-69 -182 -138 -320 -156 -313 -8 3 -26 -2 -40 -12 -14
-9 -28 -14 -31 -11 -3 2 41 95 98 205 105 204 171 309 176 281 2 -8 -19 -76
-47 -150z m1174 80 c28 -10 59 -71 54 -105 -3 -17 -7 -14 -27 18 -33 54 -65
73 -97 59 -33 -16 -44 -49 -37 -116 4 -38 2 -56 -5 -56 -18 0 -43 56 -48 108
l-6 47 69 27 c37 15 69 27 70 27 1 1 13 -3 27 -9z m383 -34 l32 -11 -21 -33
-21 -33 -19 33 c-11 18 -28 41 -37 52 -18 21 -16 20 66 -8z m1428 -46 c9 -30
19 -94 22 -142 l6 -86 -59 -38 c-78 -50 -134 -70 -218 -79 -52 -6 -65 -10 -51
-17 22 -13 155 6 198 28 18 9 52 30 76 47 43 29 43 29 36 6 -4 -13 -15 -43
-26 -66 l-18 -43 -71 0 c-39 0 -115 -5 -167 -11 -89 -11 -97 -10 -110 7 -7 10
-13 23 -13 29 0 6 41 39 91 74 50 36 113 90 140 120 49 54 129 197 129 229 0
29 18 -1 35 -58z m-2003 -12 c4 -59 -4 -120 -37 -278 -14 -70 -23 -96 -64
-205 -26 -69 -26 -70 -64 -70 -20 0 -37 5 -37 10 1 6 12 9 25 7 20 -3 29 6 54
57 17 33 35 81 41 108 22 94 49 269 56 351 4 45 10 82 15 82 4 0 9 -28 11 -62z
m202 -30 c44 -64 55 -134 25 -163 -15 -15 -17 -11 -23 49 -8 81 -21 116 -41
116 -10 0 -13 -5 -9 -11 17 -28 42 -616 28 -653 -11 -28 -32 -17 -46 22 -10
28 -12 109 -11 345 2 198 -1 307 -7 307 -14 0 -12 24 2 38 21 21 41 9 82 -50z
m-1030 -35 c-4 -10 -24 -81 -45 -158 -55 -209 -96 -312 -142 -362 -22 -25 -57
-31 -57 -10 0 31 181 477 212 519 22 31 45 38 32 11z m2261 -311 c-2 -2 -137
24 -166 34 -13 3 -3 17 40 59 l56 54 36 -72 c21 -40 36 -73 34 -75z m-2641 -9
c-27 -42 -58 -109 -90 -197 -32 -87 -57 -119 -147 -181 -44 -30 -71 -41 -114
-45 -47 -5 -53 -4 -37 7 10 7 29 13 44 13 14 0 60 20 101 44 l76 45 48 123
c72 185 87 209 134 217 2 1 -5 -11 -15 -26z m3076 -80 c67 -97 105 -123 238
-167 29 -10 52 -20 52 -23 0 -12 -69 7 -153 42 -83 35 -90 41 -142 110 -59 78
-62 85 -42 85 8 0 29 -21 47 -47z m-175 -186 c83 -180 137 -288 175 -356 45
-78 34 -93 -14 -21 -30 44 -216 433 -216 451 0 24 24 -8 55 -74z m570 13 c4
-6 -6 -10 -22 -10 -22 0 -25 2 -13 10 19 12 27 12 35 0z m-3330 -37 c-42 -64
-55 -94 -80 -187 -29 -105 -53 -166 -67 -166 -12 0 -10 10 11 76 10 32 31 100
46 149 32 108 59 155 87 155 20 0 20 -1 3 -27z m1230 -492 c-4 -10 -9 -11 -16
-4 -7 7 -6 73 3 214 l13 204 3 -200 c1 -110 0 -206 -3 -214z m-1409 95 c-21
-33 -114 -103 -155 -117 -53 -18 -60 5 -8 25 24 9 72 41 107 71 68 56 84 63
56 21z m3219 -43 c63 -42 98 -73 82 -73 -13 0 -54 28 -117 79 -36 30 -12 26
35 -6z m199 -118 l41 -13 -35 -1 c-24 -1 -44 7 -65 25 -24 20 -25 23 -6 14 13
-7 42 -18 65 -25z m-2019 -100 c0 -100 -3 -124 -13 -120 -8 3 -20 5 -29 5 -10
0 -13 5 -8 18 7 16 35 184 35 210 0 6 3 12 8 12 4 0 7 -56 7 -125z m2133 76
c11 -6 11 -10 0 -19 -10 -7 -19 -5 -37 9 l-23 19 23 0 c13 0 30 -4 37 -9z"/>
<path d="M3930 3409 c-68 -28 -117 -123 -94 -184 12 -29 61 -47 98 -35 34 11
85 59 105 97 17 33 13 88 -7 106 -24 22 -71 29 -102 16z m71 -29 c33 -18 18
-81 -33 -126 -51 -47 -98 -38 -98 18 0 36 25 75 65 99 35 22 40 23 66 9z"/>
<path d="M4195 3248 c-11 -23 -46 -71 -79 -105 -66 -71 -59 -85 10 -21 53 49
97 119 92 147 -2 16 -8 11 -23 -21z"/>
<path d="M3585 3100 c0 -87 16 -112 26 -41 6 44 -7 121 -20 121 -4 0 -7 -36
-6 -80z"/>
<path d="M5550 2785 c0 -7 72 -115 76 -115 12 0 0 33 -27 73 -27 40 -49 59
-49 42z"/>
</g>
</svg>
