<?xml version="1.0" standalone="no"?>
<!DOCTYPE svg PUBLIC "-//W3C//DTD SVG 20010904//EN"
 "http://www.w3.org/TR/2001/REC-SVG-20010904/DTD/svg10.dtd">
<svg version="1.0" xmlns="http://www.w3.org/2000/svg"
 width="1408.000000pt" height="768.000000pt" viewBox="0 0 1408.000000 768.000000"
 preserveAspectRatio="xMidYMid meet">
<metadata>
Created by potrace 1.16, written by Peter Selinger 2001-2019
</metadata>
<g transform="translate(0.000000,768.000000) scale(0.100000,-0.100000)"
fill="#000000" stroke="none">
<path d="M5541 6793 c-25 -27 -66 -87 -91 -135 -25 -47 -48 -84 -52 -82 -3 2
-12 38 -19 79 -13 85 -27 104 -64 87 -37 -17 -71 -78 -100 -177 -14 -49 -27
-94 -28 -99 -2 -5 -13 8 -25 28 -18 31 -27 37 -49 34 -31 -3 -44 -31 -63 -130
-10 -49 -15 -59 -37 -64 -42 -11 -77 -100 -77 -200 -1 -73 2 -85 27 -120 l28
-39 -23 -15 c-85 -56 -142 -141 -136 -202 l3 -33 133 4 c101 2 132 0 132 -10
0 -6 -18 -51 -40 -99 -62 -134 -71 -225 -31 -315 39 -89 101 -135 181 -135 22
0 40 -4 40 -10 0 -5 -11 -39 -24 -74 -100 -265 -141 -554 -91 -649 9 -17 10
-38 4 -68 -14 -73 -10 -279 7 -380 31 -184 101 -358 209 -519 51 -76 225 -260
246 -260 6 0 46 -32 88 -72 67 -63 158 -136 293 -235 24 -17 93 -61 154 -98
l111 -66 40 -87 c48 -104 117 -201 175 -242 23 -17 63 -59 90 -95 27 -35 56
-68 64 -73 14 -8 9 -28 -36 -148 -77 -204 -131 -314 -170 -348 l-35 -29 -146
7 c-167 8 -200 1 -255 -59 -17 -19 -41 -35 -52 -35 -27 0 -89 -59 -98 -94 -10
-40 7 -52 54 -38 23 7 64 10 98 6 33 -3 85 -2 116 4 l57 9 -25 -36 c-15 -22
-24 -50 -24 -73 0 -33 3 -38 23 -38 12 0 36 8 52 18 17 11 51 21 75 24 25 3
106 34 180 68 74 34 151 65 171 67 23 3 59 -2 97 -16 34 -11 68 -18 76 -15 7
3 38 6 67 7 40 2 55 6 57 18 5 25 -36 68 -91 95 -104 52 -140 97 -122 153 5
16 16 19 71 20 62 0 154 29 154 48 -1 19 -18 31 -64 42 -65 16 -106 38 -106
56 0 33 113 271 144 302 l31 33 47 -65 c41 -56 107 -116 140 -127 19 -7 -33
-294 -84 -463 -41 -135 -60 -145 -268 -145 -109 0 -143 -4 -175 -19 -77 -34
-86 -80 -18 -82 35 -1 34 -2 -12 -9 -68 -10 -115 -31 -153 -69 -48 -48 -55
-101 -14 -101 9 0 36 7 59 15 32 11 49 12 72 4 25 -9 58 -6 169 16 75 15 144
30 152 32 8 3 1 -4 -15 -16 -53 -35 -79 -80 -80 -135 0 -68 22 -82 67 -40 18
17 52 36 76 43 25 7 93 50 168 106 70 52 136 95 148 95 12 0 47 -9 78 -20 40
-14 69 -18 105 -13 33 3 53 1 57 -6 4 -6 16 -11 27 -11 14 0 19 7 19 29 0 43
-43 87 -124 127 -101 49 -116 69 -116 153 l0 69 33 6 c73 14 180 97 162 126
-3 5 -40 10 -81 10 -71 0 -74 1 -74 23 0 13 17 83 39 156 35 121 42 135 76
164 21 17 50 50 65 74 15 23 30 40 33 37 6 -7 64 93 72 127 5 20 27 35 103 73
187 93 357 227 433 340 22 33 66 81 97 106 76 61 129 143 177 273 42 115 44
116 60 25 8 -53 30 -48 60 12 37 73 64 198 72 335 l7 120 13 -45 c8 -25 19
-81 25 -125 12 -86 31 -122 48 -95 22 34 50 146 55 223 3 45 8 95 10 110 3 19
1 26 -7 21 -6 -4 -8 -3 -4 4 10 17 -49 237 -85 309 -18 38 -35 72 -38 78 -2 5
12 -5 33 -23 35 -31 47 -36 73 -33 18 2 70 -93 94 -171 l21 -67 -29 -86 c-27
-85 -28 -86 -40 -58 -15 35 -16 27 -2 -37 16 -77 37 -62 63 47 l14 58 1 -67
c1 -37 -4 -113 -10 -169 -13 -115 -5 -149 34 -149 39 0 90 65 122 158 11 28
24 52 30 52 14 0 62 59 97 120 63 110 91 294 68 451 -6 46 -16 92 -22 102 -5
10 -7 21 -5 24 7 7 43 -76 67 -156 12 -36 26 -113 31 -171 20 -199 18 -190 43
-190 48 0 99 92 138 245 31 126 31 322 0 449 l-22 89 24 26 c52 57 74 133 57
199 -7 23 -20 47 -31 55 -18 13 -19 16 -6 53 8 21 17 48 21 59 5 16 8 17 16 5
17 -28 67 -194 89 -300 25 -119 41 -153 72 -148 30 4 55 44 74 118 25 100 15
335 -20 455 -35 119 -111 274 -175 358 -28 37 -50 67 -47 67 2 0 30 -20 62
-45 113 -88 212 -220 300 -405 61 -126 95 -170 131 -170 89 0 62 344 -42 551
-34 66 -140 223 -207 306 -170 210 -421 333 -678 333 l-97 0 5 25 c16 88 -146
87 -322 -2 -154 -78 -315 -220 -420 -370 -36 -52 -62 -80 -71 -77 -38 15 -119
-64 -170 -166 -65 -128 -97 -263 -120 -500 -17 -175 -29 -233 -58 -284 -46
-81 -99 -96 -331 -96 -353 0 -547 58 -696 209 -91 92 -130 163 -195 356 -91
270 -145 384 -257 547 -123 181 -301 363 -429 440 -34 21 -63 39 -65 40 -1 2
22 4 52 5 74 4 145 36 195 90 71 77 90 158 65 283 -22 111 -41 118 -146 55
-30 -18 -65 -36 -77 -39 -28 -9 -29 0 -7 85 12 46 13 68 5 85 -21 46 -51 31
-174 -84 -38 -35 -71 -61 -75 -58 -3 3 1 43 8 88 16 109 13 122 -29 126 -29 3
-40 -3 -80 -45z m75 -20 c-17 -61 -24 -135 -15 -162 21 -61 50 -52 165 54 69
63 86 74 82 55 -32 -137 -32 -138 -19 -154 23 -28 78 -19 157 25 l73 40 8 -28
c4 -15 7 -64 8 -108 0 -69 -4 -86 -27 -126 -30 -52 -85 -93 -143 -108 -57 -15
-213 -15 -262 -1 -40 12 -111 6 -165 -15 -13 -5 -15 -2 -11 14 8 30 -23 27
-78 -7 -62 -40 -114 -101 -149 -176 -40 -84 -60 -102 -100 -87 -17 5 -45 8
-61 4 -59 -11 -119 82 -104 160 16 81 37 127 63 139 33 16 49 47 63 121 6 31
14 57 18 57 4 0 14 -11 21 -25 16 -30 54 -42 74 -25 8 6 22 43 31 83 18 78 50
161 70 177 10 8 14 -1 19 -43 10 -74 38 -119 73 -115 24 3 35 17 79 102 49 95
103 166 125 166 6 0 8 -8 5 -17z m-201 -560 c-8 -15 -12 -29 -10 -31 2 -2 28
7 57 21 29 14 74 28 100 32 50 8 102 0 94 -14 -3 -4 18 -15 47 -24 68 -21 148
-70 239 -145 88 -72 135 -121 220 -227 157 -197 238 -350 338 -640 34 -99 78
-210 97 -247 45 -86 134 -183 218 -238 36 -23 65 -43 65 -44 0 -1 -30 1 -67 5
-90 10 -172 41 -234 91 -28 22 -53 38 -55 35 -13 -13 66 -81 134 -114 72 -36
81 -38 184 -40 68 -1 126 -7 156 -17 139 -47 460 -70 631 -47 101 13 136 32
178 95 48 70 52 92 83 399 19 191 73 366 144 470 45 65 74 87 62 46 -4 -13
-16 -71 -27 -129 -11 -58 -29 -143 -41 -190 -34 -138 -57 -262 -58 -308 0 -30
-8 -53 -24 -75 -35 -47 -78 -136 -74 -155 2 -10 19 9 46 51 51 77 171 195 226
221 59 28 96 37 96 23 0 -21 -45 -90 -133 -206 -89 -116 -101 -138 -69 -127 9
3 55 19 102 35 47 17 101 31 120 31 48 0 130 -23 179 -51 37 -21 53 -39 34
-39 -55 -1 -277 -49 -268 -59 4 -3 64 -6 134 -6 126 0 129 0 196 -35 47 -24
80 -49 102 -79 19 -24 32 -45 31 -47 -2 -1 -48 11 -102 27 -93 27 -196 39
-196 21 0 -5 27 -21 60 -37 59 -28 141 -101 180 -160 22 -33 55 -124 48 -131
-3 -2 -36 19 -74 48 -94 70 -127 89 -142 79 -9 -5 4 -25 42 -70 108 -125 173
-294 183 -482 3 -58 2 -132 -2 -165 l-8 -59 -13 54 c-18 78 -52 166 -83 220
-16 26 -36 71 -46 101 -21 64 -64 154 -71 147 -2 -2 11 -55 31 -116 40 -129
59 -265 50 -366 -8 -89 -32 -227 -47 -263 -10 -25 -12 -22 -23 46 -18 97 -58
217 -110 327 -23 50 -48 108 -55 130 -13 42 -57 135 -64 135 -2 0 3 -24 11
-52 8 -29 24 -84 34 -123 35 -121 36 -404 2 -493 -4 -8 -16 30 -29 84 -12 54
-38 140 -59 189 -20 50 -56 142 -79 205 -24 63 -53 135 -66 160 -26 51 -70
113 -76 107 -3 -2 18 -51 46 -108 75 -156 102 -270 107 -459 3 -85 3 -153 0
-150 -3 3 -24 61 -47 130 -22 69 -60 163 -84 210 -23 47 -51 110 -61 140 -28
85 -72 167 -117 216 -23 24 -43 42 -45 40 -3 -2 14 -32 37 -66 23 -34 51 -82
62 -107 35 -79 78 -245 84 -323 l6 -75 -54 95 c-75 134 -141 226 -256 360
-146 170 -259 269 -414 363 -70 42 -126 53 -74 14 17 -12 68 -51 115 -86 154
-114 354 -324 486 -511 l38 -55 -69 61 c-88 78 -197 160 -223 169 -13 4 -22
18 -26 46 -11 64 -141 246 -162 226 -3 -4 6 -24 21 -44 85 -116 99 -144 104
-198 5 -56 14 -68 30 -39 7 12 29 -2 117 -77 248 -208 250 -211 321 -353 35
-72 64 -134 64 -139 0 -5 -30 19 -68 54 -61 58 -212 182 -363 299 -48 36 -58
50 -63 82 -8 51 -46 122 -91 172 -46 52 -55 40 -14 -20 39 -56 69 -133 69
-174 0 -26 -3 -30 -29 -30 -43 0 -107 26 -173 70 -33 22 -62 40 -64 40 -17 0
38 -55 84 -86 73 -49 82 -60 82 -105 0 -31 -4 -38 -29 -48 -51 -22 -157 18
-232 86 -22 20 -42 33 -46 29 -12 -11 87 -92 148 -121 32 -16 59 -32 59 -35 0
-4 -9 -19 -21 -34 -43 -55 -180 -25 -311 70 -59 42 -63 30 -7 -21 54 -48 124
-92 160 -100 59 -13 20 -54 -52 -55 -60 0 -155 33 -228 80 -32 21 -68 43 -80
50 -21 10 -21 10 -9 -10 15 -24 136 -108 186 -129 67 -28 19 -56 -82 -48 -141
11 -283 85 -419 216 -89 85 -146 166 -203 286 -55 116 -72 199 -58 285 12 74
-5 83 -31 15 -64 -166 96 -497 328 -681 94 -74 185 -124 280 -153 37 -11 87
-31 110 -45 117 -67 383 -160 552 -191 120 -23 318 -23 415 -1 41 10 108 21
149 25 64 6 76 10 98 36 23 26 25 35 20 94 -2 39 -17 97 -34 141 -26 67 -29
84 -25 154 l4 79 15 -34 c8 -19 32 -87 54 -152 21 -65 45 -130 53 -145 l14
-27 11 27 c21 54 33 162 28 232 -6 68 -6 70 8 38 12 -27 55 -193 80 -309 10
-44 30 -22 60 65 19 57 39 244 32 312 -6 55 -6 55 8 22 26 -61 56 -167 57
-197 0 -36 -101 -281 -142 -345 -16 -25 -42 -58 -58 -73 l-28 -27 4 35 c7 57
-15 41 -51 -38 -39 -82 -115 -189 -167 -234 -82 -70 -336 -233 -364 -233 -3 0
6 26 20 57 13 32 23 66 22 78 -3 16 -12 7 -44 -41 -22 -34 -47 -81 -56 -105
-9 -24 -24 -66 -33 -94 -10 -27 -20 -44 -23 -37 -7 22 -20 12 -37 -30 -31 -80
-99 -161 -74 -88 6 16 9 37 7 47 -4 14 -9 11 -24 -16 -10 -19 -31 -48 -46 -65
-26 -29 -27 -30 -28 -8 0 31 -19 27 -50 -10 -25 -30 -30 -31 -53 -21 -15 7
-43 37 -63 68 -20 30 -40 55 -45 55 -10 0 6 -57 26 -86 8 -13 11 -24 6 -24
-10 0 -82 80 -154 170 -25 32 -53 56 -66 58 -38 6 -114 91 -190 215 -73 117
-163 228 -176 215 -4 -4 16 -42 44 -84 28 -43 49 -79 47 -82 -2 -2 -60 19
-128 47 -288 119 -564 300 -784 514 -62 59 -114 103 -116 96 -2 -6 -32 19 -67
57 -163 177 -259 363 -311 604 -53 242 -29 480 76 747 24 61 44 117 44 124 0
41 -71 -88 -127 -231 l-34 -85 5 100 c5 115 30 228 89 404 l42 124 51 1 c109
3 185 99 193 244 2 57 6 72 19 72 53 0 188 103 222 169 25 49 34 120 21 166
-9 32 -7 41 9 63 22 28 25 54 10 83 -12 22 -60 49 -89 49 -11 0 -27 14 -39 34
-41 70 -143 122 -220 112 -55 -7 -113 -38 -146 -76 -46 -55 -29 -70 20 -19 36
39 98 69 144 69 48 0 130 -40 163 -79 32 -39 33 -43 6 -67 -46 -42 -63 -124
-25 -124 7 0 19 -7 26 -15 9 -10 24 -13 54 -9 42 6 43 6 49 -26 18 -88 -31
-179 -132 -247 -36 -24 -69 -43 -73 -43 -13 0 1 86 24 147 10 28 32 70 48 94
16 24 27 46 24 48 -2 3 -20 -10 -38 -29 -42 -40 -74 -111 -85 -188 -5 -31 -9
-49 -10 -39 -2 29 -47 110 -78 139 -30 28 -119 71 -136 65 -6 -2 17 -20 51
-41 72 -44 98 -77 123 -158 61 -195 -47 -398 -182 -341 -47 19 -67 40 -97 98
-35 67 -36 151 -2 255 15 47 24 101 25 145 1 101 6 108 70 100 33 -4 56 -2 59
4 14 22 -30 65 -101 98 -40 18 -73 38 -73 44 0 6 14 22 31 36 16 14 46 58 66
97 21 43 55 90 85 119 57 53 73 60 53 20z m3475 -93 c26 -16 -15 -46 -88 -65
-250 -62 -489 -247 -633 -488 -64 -107 -70 -100 -15 18 64 137 264 349 412
437 140 82 281 126 324 98z m240 -91 c180 -29 360 -121 485 -248 l59 -61 -34
0 -35 0 58 -33 c70 -39 137 -126 208 -272 62 -129 89 -239 89 -372 0 -62 -4
-103 -10 -103 -5 0 -40 60 -76 133 -117 234 -219 360 -379 472 -38 27 -99 74
-135 105 -78 68 -114 92 -124 83 -3 -4 19 -31 51 -60 32 -30 49 -50 38 -44
-37 17 -186 41 -258 41 -188 0 -370 -91 -542 -271 -115 -122 -185 -245 -216
-384 -7 -32 -22 -63 -36 -76 -28 -27 -28 -24 -3 34 11 25 17 53 14 62 -10 24
-47 35 -84 25 -29 -8 -31 -7 -24 13 29 99 112 265 187 377 108 161 286 299
463 360 84 30 237 51 314 44 56 -4 62 -3 45 8 -35 22 -226 16 -320 -11 -268
-77 -477 -267 -630 -571 -23 -47 -53 -118 -66 -159 -17 -53 -31 -78 -49 -89
-14 -9 -44 -31 -67 -50 -50 -39 -50 -39 -23 94 37 181 118 378 213 519 53 78
186 216 262 270 189 135 425 197 625 164z m-3986 -98 c10 -18 35 -38 72 -55
31 -15 55 -28 53 -30 -2 -2 -32 1 -67 7 -80 14 -182 -2 -264 -41 -32 -16 -58
-26 -58 -24 0 21 57 93 94 120 40 29 64 37 148 51 4 0 14 -12 22 -28z m636 4
c21 -23 22 -26 7 -49 -17 -25 -104 -53 -132 -42 -23 9 -18 51 11 85 33 40 80
42 114 6z m-589 -115 c30 0 30 0 12 -24 -17 -23 -22 -24 -136 -23 l-119 2 40
17 c43 19 139 38 160 32 8 -2 27 -4 43 -4z m-20 -90 c26 -14 24 -39 -12 -166
-39 -136 -37 -206 10 -296 22 -43 26 -58 15 -54 -9 3 -19 6 -24 6 -21 0 -82
79 -95 124 -26 88 -16 149 49 286 14 30 26 67 26 83 0 30 3 32 31 17z m4027
-116 c101 -21 124 -34 208 -118 106 -106 197 -274 238 -441 36 -144 37 -379 1
-460 l-17 -40 -23 112 c-56 276 -137 441 -304 615 -143 151 -302 235 -466 247
l-90 6 49 18 c99 34 233 16 355 -48 205 -109 362 -315 457 -600 36 -110 46
-93 13 25 -49 180 -180 391 -308 497 -112 92 -213 142 -341 167 l-65 12 55 11
c82 16 152 15 238 -3z m-230 -153 c60 -24 182 -92 182 -102 0 -3 -12 -11 -27
-18 -15 -7 -106 -65 -203 -129 l-175 -117 -100 -12 c-55 -6 -127 -21 -160 -32
-33 -11 -61 -18 -63 -16 -2 2 29 38 69 80 87 91 201 178 315 240 46 25 86 50
89 55 14 23 -135 -45 -214 -97 -97 -64 -277 -237 -286 -275 -6 -24 -55 -58
-55 -39 0 20 71 174 106 228 76 121 179 222 251 249 55 21 203 12 271 -15z
m301 -207 c59 -61 71 -79 65 -97 -11 -37 -41 -73 -121 -146 l-77 -70 -29 21
c-16 12 -52 33 -80 49 l-50 27 104 69 c132 87 127 83 109 83 -18 0 -140 -69
-196 -110 l-40 -31 -72 18 c-40 9 -72 19 -72 22 0 3 19 17 43 30 23 13 107 66
186 118 79 51 147 93 151 93 4 0 40 -34 79 -76z m111 -134 c0 -5 -2 -10 -4
-10 -3 0 -8 5 -11 10 -3 6 -1 10 4 10 6 0 11 -4 11 -10z m34 -116 c-2 -59 -30
-122 -83 -187 l-39 -47 -52 65 c-28 36 -58 69 -67 73 -12 7 0 19 50 55 36 26
79 65 97 87 l32 41 32 -19 c28 -17 31 -23 30 -68z m-538 16 c186 -48 348 -196
439 -404 l26 -59 -39 35 c-42 38 -82 63 -82 52 0 -4 29 -37 65 -75 79 -84 95
-130 102 -285 6 -128 -18 -270 -65 -377 l-27 -62 -12 110 c-7 61 -20 137 -28
170 -23 94 -99 237 -159 302 -29 32 -70 92 -91 133 -41 82 -75 134 -82 127 -2
-3 7 -27 20 -54 13 -26 28 -59 32 -72 7 -23 7 -23 -36 6 -114 78 -227 116
-341 116 -43 0 -78 3 -78 8 0 14 -63 53 -114 70 l-50 17 59 27 c135 60 238 75
353 51 216 -45 376 -216 468 -501 27 -82 33 -93 33 -64 2 80 -64 241 -145 355
-166 235 -452 311 -699 187 -27 -14 -56 -30 -63 -36 -7 -5 -47 -10 -90 -12
-42 -1 -93 -5 -112 -9 l-35 -8 25 18 c14 10 51 41 82 69 71 64 214 140 310
165 99 26 232 26 334 0z m554 -267 c0 -37 -19 -95 -40 -123 l-17 -23 -32 63
-32 63 43 44 43 44 18 -22 c9 -12 17 -33 17 -46z m-709 -129 c120 -36 260
-127 313 -203 35 -50 74 -182 85 -286 13 -134 -11 -281 -64 -385 -49 -95 -50
-94 -50 72 -1 145 -2 158 -32 240 -41 116 -109 224 -190 298 -37 33 -74 78
-83 98 -33 72 -86 119 -175 153 -28 10 -28 12 -10 19 34 14 149 11 206 -6z
m-109 -214 c71 -18 105 -38 158 -91 125 -125 214 -373 195 -544 -14 -133 -57
-268 -99 -320 -16 -19 -17 -14 -10 80 19 281 -17 459 -114 560 -18 19 -37 58
-51 105 -23 76 -88 181 -133 214 -14 11 -17 15 -6 12 9 -3 36 -10 60 -16z
m-921 -937 c249 -204 351 -313 295 -313 -27 0 -161 52 -258 101 -114 57 -203
110 -311 186 -74 52 -77 56 -62 74 12 13 16 31 14 63 l-4 45 35 -5 c23 -3 42
0 55 9 23 18 1 34 236 -160z m-366 17 c9 -14 135 -106 223 -163 99 -64 257
-142 367 -182 89 -33 90 -33 60 -45 -88 -35 -368 53 -678 213 l-137 71 37 12
c42 15 62 36 70 77 4 20 11 27 29 27 12 0 26 -5 29 -10z m-129 -152 c117 -71
365 -186 490 -227 118 -39 118 -40 68 -40 -61 -1 -234 36 -360 77 -88 29 -350
137 -367 152 -5 4 5 10 21 13 16 3 40 20 53 36 13 16 25 30 25 30 1 1 33 -18
70 -41z m159 -208 c66 -22 151 -48 190 -58 95 -22 48 -28 -95 -12 -171 20
-374 79 -555 161 l-50 23 35 7 c19 4 43 18 54 32 l18 25 142 -68 c78 -38 195
-87 261 -110z m-954 -459 c47 -21 120 -51 162 -66 74 -27 80 -31 114 -84 57
-90 109 -146 158 -172 47 -25 51 -35 22 -53 -12 -8 -22 -7 -37 1 -16 11 -22
10 -39 -8 -28 -30 -60 -21 -96 28 -16 23 -33 42 -37 42 -11 1 -10 -37 2 -60 8
-14 7 -19 -3 -19 -8 0 -31 25 -52 56 -21 31 -65 79 -97 107 -62 54 -104 107
-156 198 -30 53 -37 69 -28 69 2 0 41 -17 87 -39z m346 -441 c16 0 34 5 41 12
28 28 18 -6 -34 -120 -30 -66 -58 -136 -61 -155 -5 -30 -1 -37 28 -60 19 -14
46 -29 61 -32 48 -12 20 -25 -53 -25 -65 0 -70 -2 -79 -26 -16 -41 -12 -106
10 -141 13 -22 44 -45 97 -72 l78 -39 -36 -7 c-24 -4 -54 0 -97 14 -97 33 -90
35 -327 -72 -55 -24 -122 -48 -150 -52 -27 -4 -56 -12 -62 -17 -9 -7 -13 -7
-13 0 0 21 67 64 158 102 90 37 162 82 162 101 0 14 -17 11 -68 -15 -70 -36
-144 -54 -267 -65 -140 -14 -247 -11 -233 6 17 21 69 32 198 43 253 20 347 63
409 187 34 68 126 302 150 381 20 65 24 71 41 62 10 -5 32 -10 47 -10z m537
-195 c-14 -44 -41 -154 -61 -245 -58 -272 -45 -320 102 -390 46 -22 87 -45 90
-50 11 -19 -100 -11 -146 10 -49 22 -91 25 -120 9 -11 -6 -70 -48 -132 -95
-61 -46 -131 -91 -156 -101 -25 -9 -54 -23 -64 -31 -9 -9 -19 -13 -22 -11 -11
12 39 71 92 110 75 54 119 96 144 137 33 52 17 60 -32 16 -55 -50 -49 -48
-250 -89 -123 -25 -181 -32 -221 -28 -35 3 -63 1 -79 -7 l-24 -13 24 27 c29
31 51 38 238 71 275 48 344 95 398 268 31 98 71 297 81 399 l7 77 28 -6 c16
-3 35 0 43 7 8 6 23 9 33 6 10 -3 25 -1 33 4 8 5 15 8 17 7 1 -2 -9 -39 -23
-82z m61 -285 c6 -1 -12 -12 -38 -26 -27 -14 -51 -24 -53 -21 -2 2 -1 17 2 34
6 29 7 30 42 22 21 -5 42 -9 47 -9z m-1115 -80 c-35 -11 -201 -11 -175 0 11 5
61 8 110 8 60 0 82 -3 65 -8z m594 -230 c-6 -6 -40 -16 -76 -24 -50 -11 -75
-11 -107 -3 -80 22 -47 34 99 36 63 1 91 -2 84 -9z"/>
<path d="M5432 6053 c-7 -3 -19 -18 -28 -35 -19 -37 -5 -80 32 -97 36 -16 50
-14 79 12 52 44 26 128 -39 126 -17 0 -37 -3 -44 -6z m77 -37 c9 -10 9 -16 1
-21 -17 -11 -40 3 -34 20 8 19 18 19 33 1z"/>
<path d="M5359 5004 c-17 -48 -31 -176 -24 -238 14 -133 67 -293 121 -363 32
-42 44 -42 44 0 0 17 3 56 7 86 l6 53 32 -90 c36 -101 58 -140 122 -223 44
-57 83 -86 101 -76 5 4 7 49 4 107 -2 55 -2 100 1 100 11 0 67 -192 74 -250 8
-80 14 -87 48 -59 36 32 70 91 105 185 22 60 29 72 29 49 0 -16 -4 -49 -9 -73
-13 -56 -5 -67 30 -42 44 32 118 151 153 248 l32 87 7 -55 c3 -30 6 -76 7
-102 1 -27 5 -48 11 -48 36 0 90 121 97 220 l5 65 53 -52 c62 -60 117 -91 180
-100 54 -7 57 3 16 56 -52 66 -92 144 -126 244 -36 108 -45 124 -45 83 0 -75
50 -209 110 -297 l39 -58 -37 16 c-53 22 -89 48 -159 117 l-63 60 0 -66 c0
-77 -16 -160 -38 -203 l-16 -30 -7 40 c-4 22 -10 92 -14 155 -7 136 -13 180
-24 180 -4 0 -11 -36 -14 -81 -8 -105 -32 -197 -72 -284 -31 -67 -92 -161
-100 -153 -2 2 1 39 6 83 6 44 7 109 3 145 l-7 65 -14 -55 c-38 -150 -102
-311 -137 -348 -10 -11 -15 -1 -23 50 -11 65 -63 210 -87 243 -13 18 -15 17
-25 -20 -6 -22 -11 -74 -11 -115 l-1 -75 -45 50 c-56 62 -125 199 -155 311
-13 46 -27 84 -31 84 -11 0 -27 -61 -35 -135 l-8 -70 -33 73 c-54 115 -75 241
-69 400 3 72 3 132 1 132 -3 0 -9 -12 -15 -26z"/>
<path d="M7795 4583 c-43 -11 -38 -23 11 -23 47 0 159 -20 197 -35 9 -4 17 -3
17 3 0 26 -174 68 -225 55z"/>
<path d="M7886 4462 c-3 -5 20 -14 54 -21 75 -15 155 -57 242 -127 79 -64 90
-57 19 11 -59 57 -107 90 -166 115 -54 23 -140 36 -149 22z"/>
<path d="M8117 4221 c108 -107 167 -200 240 -380 30 -76 33 -81 28 -41 -22
168 -173 401 -306 474 -26 14 -18 2 38 -53z"/>
<path d="M5291 3989 c-1 -51 43 -197 86 -285 32 -68 110 -171 120 -161 2 2
-18 40 -45 83 -71 114 -112 214 -151 364 l-9 35 -1 -36z"/>
<path d="M7130 4005 c0 -4 7 -20 16 -36 20 -39 15 -93 -8 -97 -10 -2 -32 4
-50 12 -17 9 -33 14 -36 12 -2 -3 2 -30 9 -60 11 -51 10 -58 -6 -76 -28 -31
-100 -27 -170 10 -62 33 -62 33 -34 -38 19 -46 4 -66 -53 -70 -43 -3 -79 8
-180 52 -44 19 -54 10 -26 -24 11 -14 17 -19 13 -12 -9 17 -1 15 58 -14 35
-18 74 -29 118 -32 59 -4 69 -2 89 18 18 18 21 30 17 57 -6 33 -4 35 16 28 69
-21 95 -24 129 -14 47 12 62 39 55 94 l-6 42 44 -5 c41 -4 45 -2 54 21 10 26
2 71 -21 115 -10 20 -28 30 -28 17z"/>
<path d="M6320 3721 c0 -16 88 -90 137 -114 70 -36 109 -42 138 -23 30 20 35
42 6 26 -11 -5 -30 -10 -43 -10 -34 0 -116 41 -175 89 -54 42 -63 47 -63 32z"/>
<path d="M5609 3401 c18 -33 102 -111 119 -111 10 0 -8 24 -48 65 -65 65 -89
81 -71 46z"/>
<path d="M7895 2786 c-27 -29 -65 -64 -84 -80 -18 -15 -31 -29 -28 -33 16 -15
136 90 166 146 19 34 -1 23 -54 -33z"/>
<path d="M9500 5714 c57 -48 153 -144 209 -209 l42 -50 -32 50 c-46 70 -113
143 -172 188 -70 53 -102 67 -47 21z"/>
<path d="M5065 5921 c-3 -5 -1 -12 5 -16 13 -8 50 3 50 16 0 12 -47 12 -55 0z"/>
<path d="M8700 4533 c0 -5 24 -19 53 -33 68 -32 194 -157 232 -232 34 -66 43
-69 19 -7 -25 64 -100 166 -147 201 -68 49 -157 89 -157 71z"/>
</g>
</svg>
