<?xml version="1.0" standalone="no"?>
<!DOCTYPE svg PUBLIC "-//W3C//DTD SVG 20010904//EN"
 "http://www.w3.org/TR/2001/REC-SVG-20010904/DTD/svg10.dtd">
<svg version="1.0" xmlns="http://www.w3.org/2000/svg"
 width="1408.000000pt" height="768.000000pt" viewBox="0 0 1408.000000 768.000000"
 preserveAspectRatio="xMidYMid meet">
<metadata>
Created by potrace 1.16, written by Peter Selinger 2001-2019
</metadata>
<g transform="translate(0.000000,768.000000) scale(0.100000,-0.100000)"
fill="#000000" stroke="none">
<path d="M4640 6731 c-123 -40 -217 -100 -273 -176 l-29 -40 5 45 c4 25 9 57
13 73 6 24 3 27 -17 27 -29 -1 -113 -61 -159 -114 -19 -21 -46 -64 -61 -95
l-27 -56 -8 55 c-11 65 -27 71 -61 21 -33 -49 -46 -107 -40 -181 l5 -65 -38 3
c-77 8 -145 -31 -182 -101 -17 -33 -22 -60 -22 -123 -1 -75 2 -87 37 -155 l37
-73 -22 -32 c-13 -17 -49 -60 -81 -94 -68 -73 -71 -96 -12 -93 l40 1 -41 -84
c-50 -101 -64 -169 -39 -193 15 -15 17 -15 28 0 9 13 11 -8 9 -95 -6 -195 -1
-379 13 -439 18 -79 53 -147 84 -165 25 -14 26 -18 23 -87 -2 -41 1 -81 7 -93
11 -20 108 -99 151 -122 12 -7 33 -10 45 -7 21 3 24 -1 30 -37 12 -83 29 -143
60 -216 35 -85 99 -190 115 -190 6 0 16 14 22 31 l10 30 22 -53 c36 -89 211
-333 238 -333 8 0 15 19 18 55 l5 55 39 -100 c55 -142 118 -260 176 -332 79
-98 110 -105 110 -26 l0 45 40 -60 c53 -79 164 -183 232 -216 l54 -26 23 -98
c12 -53 43 -169 67 -258 61 -222 89 -355 114 -524 11 -80 29 -194 41 -253 23
-120 19 -169 -22 -303 l-21 -67 -83 7 c-103 9 -148 -2 -202 -49 -115 -98 -127
-286 -22 -341 46 -23 220 -44 301 -35 l66 7 6 -28 c7 -36 46 -75 83 -84 15 -4
48 -16 73 -28 34 -16 67 -22 135 -23 50 -1 122 -5 161 -9 66 -6 79 -3 195 37
194 68 215 99 230 340 9 151 15 173 61 231 l33 40 1 197 c1 169 6 232 37 456
66 468 85 540 166 628 23 24 41 47 41 51 0 4 -12 11 -27 17 -37 14 -17 29 38
31 163 3 532 20 621 28 248 24 507 97 771 220 83 38 154 66 158 62 3 -4 23
-59 45 -122 50 -151 217 -480 328 -650 206 -311 222 -434 100 -733 -25 -61
-57 -129 -72 -151 l-28 -41 -114 0 c-110 0 -117 -1 -156 -28 -44 -30 -96 -113
-109 -176 -9 -43 11 -114 41 -142 57 -54 267 -73 471 -43 175 26 181 31 298
264 37 74 110 212 161 307 110 200 141 266 160 336 21 81 17 112 -30 221 -44
100 -71 184 -63 192 2 3 17 -12 33 -33 15 -21 63 -80 106 -131 43 -51 90 -114
105 -139 49 -84 103 -223 109 -281 12 -107 -34 -408 -72 -484 -20 -39 -50 -55
-119 -63 -105 -12 -157 -53 -190 -146 -21 -59 -19 -127 5 -166 11 -18 24 -33
30 -33 6 0 44 -16 86 -36 69 -34 81 -36 140 -31 36 2 80 0 99 -6 86 -26 314
53 363 126 38 56 59 125 76 247 9 63 43 228 76 365 72 305 83 378 78 486 l-4
84 -73 110 c-94 141 -135 229 -166 357 -42 180 -55 325 -55 626 0 349 10 629
22 608 21 -37 51 -218 88 -528 65 -536 119 -728 275 -968 77 -120 203 -239
316 -299 24 -13 60 -44 79 -68 100 -132 260 -187 439 -153 73 14 151 49 151
69 0 10 18 23 46 35 63 26 127 87 122 118 -3 21 -7 23 -46 20 -63 -5 -108 14
-173 74 -84 77 -147 106 -242 112 -66 4 -90 1 -162 -23 l-84 -28 -57 34 c-153
92 -287 328 -344 607 -27 133 -38 240 -50 497 -32 653 -124 994 -350 1293
-204 271 -523 446 -974 533 -152 30 -370 30 -556 1 -266 -42 -338 -51 -525
-68 -236 -22 -644 -24 -803 -5 l-114 14 -23 36 c-28 45 -79 91 -140 126 l-46
27 33 17 c56 28 44 50 -39 71 -98 26 -147 53 -223 125 -36 34 -82 74 -104 88
l-39 26 38 7 c84 15 46 63 -91 112 -85 31 -213 99 -167 89 12 -3 27 1 34 9 15
19 -23 75 -109 162 -62 63 -200 161 -231 164 -9 0 4 4 29 7 59 8 66 37 18 74
-94 72 -191 115 -358 158 l-45 11 35 18 c44 23 84 65 75 79 -3 6 -40 11 -85
11 -63 0 -99 7 -172 32 -78 26 -114 32 -218 37 l-125 6 53 29 c28 16 52 35 52
43 0 54 -235 36 -364 -28 -33 -16 -61 -27 -64 -25 -2 3 15 24 37 49 23 24 41
52 41 61 0 21 -48 20 -120 -3z m-1 -97 c-51 -97 -33 -145 33 -88 61 50 167 92
278 110 l45 7 -43 -47 c-24 -26 -42 -54 -40 -64 4 -19 15 -19 123 -3 87 12
172 2 298 -39 52 -16 106 -30 121 -30 39 0 22 -18 -29 -31 -43 -11 -59 -27
-47 -46 4 -5 68 -24 143 -41 96 -23 162 -46 230 -80 74 -36 89 -47 69 -49 -87
-11 -109 -15 -124 -26 -20 -15 -12 -47 13 -47 33 -1 156 -50 207 -84 55 -37
198 -166 191 -173 -2 -2 -17 1 -32 7 -31 12 -65 5 -65 -14 0 -16 63 -76 127
-119 29 -19 97 -53 150 -74 l98 -38 -72 -3 c-49 -2 -73 -7 -76 -17 -8 -18 6
-27 82 -55 49 -18 82 -40 148 -102 79 -73 181 -138 218 -138 9 0 13 -4 10 -10
-3 -5 -14 -10 -25 -10 -19 0 -32 -21 -22 -36 4 -5 41 -26 82 -46 83 -41 170
-118 133 -118 -65 0 -186 36 -278 82 -55 28 -124 59 -154 69 -65 23 -151 25
-190 4 -28 -14 -61 -76 -61 -113 0 -18 22 -103 35 -137 5 -12 -10 -3 -38 24
-45 43 -67 47 -67 11 0 -10 14 -74 31 -142 19 -77 32 -160 35 -223 l5 -100
-26 52 c-27 54 -79 107 -99 100 -13 -5 -12 -28 4 -122 23 -131 1 -306 -54
-428 l-24 -52 -7 43 c-4 23 -11 42 -15 42 -5 0 -11 -28 -15 -62 -3 -35 -19
-103 -35 -153 -16 -49 -35 -115 -43 -145 l-14 -55 -19 73 c-14 54 -23 72 -36
72 -26 0 -37 -54 -53 -265 -13 -174 -25 -268 -41 -319 -5 -16 -11 -8 -26 33
-26 68 -47 65 -71 -9 -50 -158 -61 -375 -22 -482 27 -75 37 -59 30 45 -7 103
-5 103 49 -3 18 -36 36 -87 40 -113 l7 -48 -48 24 c-71 36 -165 110 -186 147
-23 38 -51 37 -55 -4 -3 -27 8 -89 25 -131 5 -14 -6 -10 -43 15 -85 58 -157
127 -209 199 -30 42 -57 70 -69 70 -25 1 -15 -37 29 -109 18 -30 32 -56 30
-58 -2 -2 -23 10 -47 26 -69 48 -172 164 -226 254 -63 108 -85 112 -92 18 l-5
-65 -36 50 c-57 79 -86 133 -133 253 -79 201 -119 245 -141 155 l-10 -41 -62
82 c-65 85 -109 172 -137 267 -26 93 -55 98 -74 13 l-9 -39 -36 77 c-35 75
-59 148 -71 216 -5 29 -3 32 20 32 14 0 35 11 48 23 18 18 32 23 55 19 25 -3
37 2 64 29 18 19 40 43 48 55 7 11 52 46 99 76 101 66 111 76 145 153 48 109
60 128 99 167 46 45 42 57 -10 32 -44 -21 -89 -81 -121 -162 -25 -64 -75 -114
-158 -162 -54 -31 -125 -100 -125 -123 0 -8 -4 -7 -10 3 -9 13 -12 12 -25 -4
-12 -16 -17 -17 -30 -6 -20 16 -43 6 -55 -25 -12 -31 -23 -31 -84 1 -44 23
-50 24 -58 10 -13 -23 -42 -5 -69 44 -16 28 -28 39 -43 37 -19 -2 -21 4 -24
58 -4 69 2 98 24 119 24 24 63 19 165 -20 88 -34 103 -37 222 -39 124 -3 128
-3 157 22 37 31 41 70 8 78 -13 3 -58 -7 -106 -25 -45 -16 -97 -30 -115 -30
-83 0 -290 91 -301 132 -21 79 14 143 104 188 63 32 90 61 90 97 0 28 -10 29
-51 4 -30 -18 -35 -19 -62 -5 -23 12 -47 14 -112 9 -88 -8 -155 5 -155 30 0
18 58 103 118 173 85 98 158 214 166 263 6 40 4 46 -19 67 -16 13 -39 22 -61
22 -26 0 -34 4 -34 19 0 22 41 86 81 124 16 16 39 47 50 70 37 72 81 126 136
168 44 33 57 38 68 29 26 -21 29 16 5 50 -27 38 -44 39 -35 1 5 -25 3 -29 -22
-34 -47 -9 -104 -63 -167 -155 -32 -48 -76 -106 -98 -130 -61 -66 -68 -92 -73
-273 l-5 -161 -53 -57 -52 -57 -3 30 c-2 17 2 57 8 88 15 68 9 92 -21 83 -18
-6 -20 -4 -14 17 4 12 28 63 52 112 24 48 42 94 39 102 -3 8 -17 14 -31 14
-26 0 -26 1 18 53 58 69 87 119 87 149 0 36 55 107 96 124 42 18 40 35 -6 47
-41 10 -28 21 38 32 23 4 42 11 42 15 0 13 -61 57 -104 75 -58 24 -70 2 -13
-23 56 -25 64 -38 28 -45 -37 -8 -87 -50 -77 -65 4 -7 19 -12 34 -12 l26 0
-35 -32 c-19 -18 -42 -44 -51 -58 l-16 -25 -22 49 c-47 104 -19 235 56 271 67
32 127 16 168 -44 31 -45 89 -86 106 -76 7 4 -5 25 -30 52 -23 24 -50 64 -61
87 -22 52 -34 141 -24 192 l7 38 17 -40 c35 -77 74 -84 85 -14 12 74 69 169
126 210 l30 21 -6 -58 c-5 -58 8 -102 32 -110 6 -2 30 26 53 61 23 36 61 81
84 100 43 35 129 82 176 96 14 5 27 9 28 9 1 1 -11 -24 -28 -55z m-649 -1146
c0 -5 -7 -8 -15 -8 -17 0 -34 30 -27 49 3 10 9 8 23 -10 10 -13 19 -27 19 -31z
m-40 -39 c19 -16 18 -17 -11 -58 -49 -66 -55 -56 -43 68 7 60 7 61 21 34 7
-16 22 -35 33 -44z m2585 -273 c135 -69 184 -83 365 -110 403 -59 954 -44
1454 40 291 49 486 42 742 -26 505 -134 801 -377 967 -796 94 -235 133 -471
162 -979 9 -148 25 -326 36 -395 24 -149 84 -335 140 -436 81 -147 133 -205
275 -303 46 -32 47 -34 26 -42 -20 -7 -21 -12 -12 -30 11 -20 10 -21 -22 -14
-78 17 -244 160 -325 280 -48 71 -117 206 -149 292 -56 148 -94 353 -134 723
-31 282 -73 478 -134 622 -9 21 -16 63 -16 95 0 83 -26 231 -54 307 -42 117
-144 266 -174 255 -6 -2 16 -51 48 -109 120 -214 141 -367 120 -870 -7 -179
-10 -433 -8 -565 10 -451 62 -653 231 -894 48 -67 68 -106 73 -138 8 -58 -25
-255 -82 -486 -25 -100 -56 -249 -70 -332 -32 -196 -46 -235 -96 -280 -59 -54
-168 -95 -253 -95 -51 0 -65 14 -65 65 1 65 33 123 80 143 22 9 38 22 37 27
-7 19 -53 16 -87 -7 -48 -33 -72 -78 -78 -153 l-5 -65 -43 0 c-92 0 -116 32
-94 129 10 43 21 64 51 93 44 42 47 48 22 48 -59 0 -120 -85 -125 -173 -2 -26
-5 -47 -7 -47 -3 0 -13 7 -23 17 -26 24 -23 88 7 149 29 58 48 69 141 84 115
19 138 39 173 156 31 106 52 257 53 384 1 102 -2 123 -26 184 -54 139 -101
218 -201 340 -55 67 -140 174 -188 237 -48 63 -129 166 -180 231 -51 64 -112
151 -136 195 -133 236 -187 319 -251 386 -150 158 -282 194 -485 135 -73 -21
-179 -70 -190 -88 -10 -16 10 -12 103 20 170 59 261 66 357 25 l40 -17 -50
-25 c-28 -14 -109 -58 -182 -99 -222 -125 -473 -231 -663 -279 -189 -49 -288
-59 -760 -81 -137 -6 -144 -6 -130 11 13 16 11 21 -23 49 -20 17 -37 34 -37
38 0 4 12 8 28 10 45 5 40 37 -18 104 -28 32 -62 82 -76 111 l-26 52 7 238 c8
251 2 328 -35 453 -20 67 -44 110 -55 99 -3 -4 3 -43 14 -87 29 -113 40 -265
29 -402 -14 -169 -13 -290 1 -335 8 -22 35 -73 62 -113 27 -40 49 -75 49 -77
0 -3 -10 -5 -23 -5 -55 0 -50 -54 10 -99 l28 -21 -30 -22 c-47 -36 -105 -99
-105 -115 0 -7 9 -17 20 -21 20 -7 20 -8 -5 -42 -52 -71 -81 -201 -147 -660
-26 -184 -32 -258 -32 -405 l-1 -180 -28 -37 c-41 -54 -56 -115 -66 -269 -12
-195 -27 -216 -203 -280 -98 -35 -184 -43 -211 -21 -42 35 -19 153 39 209 40
38 42 43 10 43 -55 0 -117 -101 -119 -196 l-1 -54 -61 0 c-40 0 -69 6 -84 16
-21 15 -23 23 -19 84 4 78 37 139 87 161 34 15 36 32 5 37 -60 8 -132 -89
-142 -194 l-7 -66 -27 22 c-38 29 -39 95 -2 168 30 60 64 84 149 102 92 19
126 59 154 178 23 104 28 248 9 322 -6 26 -12 159 -13 315 -2 252 -4 286 -39
520 -39 267 -63 400 -77 427 -5 9 -34 43 -64 74 -54 57 -55 59 -55 119 0 79
31 236 41 209 4 -10 8 -40 8 -65 1 -50 21 -79 38 -57 41 56 81 220 88 366 3
64 8 142 11 172 l6 55 23 -60 c18 -50 26 -60 46 -60 22 0 24 5 31 70 9 96 52
227 95 286 93 129 145 377 113 539 -7 40 -7 43 6 25 16 -21 44 -108 44 -136 0
-9 7 -22 15 -29 24 -20 38 32 42 170 5 120 -5 190 -43 329 l-7 23 47 -26 c26
-14 51 -26 55 -26 20 0 18 30 -6 78 -14 28 -27 76 -30 110 -5 56 -4 62 22 87
25 26 31 27 88 22 50 -4 87 -18 192 -71z m-2638 -198 c30 6 63 8 75 3 20 -7
18 -9 -14 -15 -39 -7 -54 -30 -49 -73 1 -12 -3 -32 -10 -44 l-12 -23 -14 27
c-14 29 -29 37 -19 12 10 -28 -2 -15 -34 35 -18 27 -44 58 -58 69 l-26 19 54
-11 c39 -7 69 -7 107 1z m-84 -132 c79 -90 92 -135 57 -191 -12 -19 -28 -35
-35 -35 -18 0 -50 54 -69 119 -17 57 -33 181 -23 181 3 0 35 -33 70 -74z
m4834 -1558 c59 -63 131 -171 213 -323 65 -118 117 -195 232 -340 103 -129
104 -131 115 -205 14 -90 40 -172 82 -260 56 -117 43 -167 -118 -464 -61 -111
-147 -273 -193 -360 -47 -91 -94 -167 -108 -177 -51 -37 -375 -66 -444 -39
-21 8 -26 16 -26 44 0 76 51 146 106 146 18 0 35 4 39 9 9 16 -35 34 -66 27
-70 -14 -118 -79 -122 -165 l-2 -49 -26 14 c-30 15 -39 33 -39 72 0 37 42 122
75 152 25 24 33 25 145 25 117 0 119 0 149 29 52 50 149 270 176 403 41 198 3
323 -185 609 -112 171 -255 456 -314 627 l-44 127 31 22 c30 22 247 137 258
138 3 0 33 -28 66 -62z m-3225 -496 c49 -23 98 -29 98 -13 0 5 -9 30 -20 56
-29 68 -25 71 27 25 26 -23 80 -57 120 -76 40 -20 73 -38 73 -42 0 -4 14 -102
31 -217 27 -181 32 -252 39 -515 4 -168 13 -338 20 -378 11 -62 10 -86 -4
-165 -10 -50 -25 -111 -36 -133 -19 -43 -37 -54 -150 -84 -59 -16 -112 -72
-140 -149 l-22 -59 -69 -7 c-37 -4 -91 -4 -119 0 -58 8 -70 25 -70 100 0 52
35 101 81 112 41 11 40 27 -2 31 -73 6 -139 -89 -125 -183 8 -53 -3 -58 -34
-14 -19 26 -21 38 -15 87 6 51 5 55 -9 43 -25 -21 -19 0 14 52 49 77 75 87
212 84 127 -2 138 2 143 49 1 16 12 65 24 109 24 87 28 190 12 251 -5 22 -22
119 -36 217 -28 196 -70 399 -109 528 -23 76 -106 393 -106 404 0 2 28 -17 63
-43 34 -26 83 -58 109 -70z m5592 -593 c27 -7 78 -37 132 -78 105 -80 127 -93
174 -101 l35 -6 -44 -23 c-24 -13 -75 -28 -114 -35 -73 -12 -95 -30 -55 -45
22 -9 22 -9 3 -17 -11 -5 -69 -9 -130 -9 -96 0 -116 3 -160 24 -27 14 -75 50
-104 80 -46 47 -52 56 -35 59 45 7 48 12 24 37 l-23 25 36 0 c43 0 47 11 11
30 l-25 14 43 13 c149 46 167 49 232 32z"/>
<path d="M4775 6383 c-69 -36 -149 -120 -169 -179 -18 -53 -19 -64 -8 -64 4 0
15 20 25 44 31 75 127 169 195 190 l23 8 -21 -34 c-22 -36 -26 -68 -10 -68 6
0 25 7 42 16 17 9 72 27 122 39 l91 23 -53 1 c-29 1 -80 -8 -113 -19 -34 -12
-64 -19 -66 -16 -3 3 4 20 16 39 11 19 21 37 21 41 0 14 -48 3 -95 -21z"/>
<path d="M4258 6284 c-13 -13 -9 -148 6 -200 8 -27 17 -73 20 -102 13 -102 24
-105 106 -26 38 36 57 49 53 36 -2 -11 0 -22 5 -26 11 -6 158 60 168 76 13 21
-9 21 -59 -1 -28 -12 -58 -25 -65 -28 -8 -3 -10 0 -6 10 3 9 3 21 -1 27 -9 15
-41 -5 -107 -68 l-58 -55 0 29 c0 16 -9 67 -21 114 -11 47 -23 116 -27 153 -4
38 -10 65 -14 61z"/>
<path d="M4982 6205 c-70 -36 -118 -79 -147 -135 -26 -50 2 -45 61 10 74 70
150 104 234 105 94 0 136 -23 168 -94 35 -75 37 -194 5 -261 -12 -25 -31 -70
-43 -102 -29 -80 -38 -84 -88 -46 -23 18 -42 35 -42 39 0 4 11 10 25 13 33 8
32 28 -4 68 l-28 32 26 22 c22 19 23 24 12 38 -7 9 -20 16 -27 16 -24 0 -15
16 18 31 41 18 46 36 13 49 -34 13 -84 13 -124 -1 -50 -18 -36 -29 29 -22 33
3 60 3 60 0 0 -3 -20 -15 -45 -26 -60 -26 -59 -48 3 -57 47 -7 47 -7 17 -17
-20 -7 -43 -6 -72 1 -24 7 -58 12 -76 12 -43 0 -22 -14 63 -40 43 -13 76 -30
95 -50 28 -29 28 -30 7 -30 -29 0 -39 -26 -21 -55 8 -13 55 -55 105 -93 112
-86 143 -123 197 -232 36 -72 42 -80 45 -56 6 47 -58 166 -127 236 -57 58 -60
64 -43 76 21 14 39 54 77 173 24 74 27 95 23 173 -8 125 -41 190 -117 230 -45
24 -65 28 -131 28 -69 0 -85 -4 -148 -35z"/>
<path d="M5042 6099 c-47 -23 -102 -83 -102 -111 0 -27 13 -22 33 12 23 39 76
79 121 91 20 5 36 14 36 19 0 17 -43 11 -88 -11z"/>
<path d="M4575 6000 c3 -5 15 -10 26 -10 26 0 58 -17 82 -44 16 -18 18 -18 13
-3 -3 10 -6 23 -6 28 0 4 -13 15 -30 24 -33 17 -95 21 -85 5z"/>
<path d="M5530 5960 c0 -5 8 -10 19 -10 62 0 215 -99 277 -180 53 -68 69 -72
31 -8 -37 64 -124 141 -199 176 -64 31 -128 42 -128 22z"/>
<path d="M4724 5908 c13 -66 64 -154 129 -225 36 -40 78 -90 93 -113 29 -44
49 -53 39 -17 -10 34 -47 85 -118 165 -42 47 -77 99 -98 147 -36 78 -56 98
-45 43z"/>
<path d="M4239 5778 c-41 -57 -69 -112 -69 -138 0 -33 15 -23 39 28 12 26 36
68 52 93 31 49 34 59 19 59 -5 0 -24 -19 -41 -42z"/>
<path d="M5802 5671 c66 -71 134 -183 123 -201 -3 -6 1 -7 9 -4 22 8 20 27 -8
82 -32 63 -78 120 -129 159 -66 51 -64 39 5 -36z"/>
<path d="M4420 5555 c-20 -24 -88 -164 -82 -170 12 -12 36 -3 59 21 17 19 30
24 47 20 32 -8 85 9 115 38 14 13 39 27 55 30 24 6 27 9 15 20 -26 23 -117 56
-157 56 -23 0 -45 -6 -52 -15z m69 -38 c23 15 51 7 51 -13 0 -20 -46 -47 -69
-39 -22 7 -36 38 -25 56 4 8 9 7 15 -2 7 -11 12 -12 28 -2z"/>
<path d="M4900 5487 c0 -51 29 -157 50 -182 5 -6 32 -54 60 -106 73 -137 65
-75 -11 83 -39 82 -64 149 -72 192 -6 36 -15 66 -19 66 -4 0 -8 -24 -8 -53z"/>
<path d="M5780 5516 c0 -2 20 -33 45 -70 47 -70 87 -182 104 -287 14 -85 21
-85 21 -2 0 85 -28 182 -76 270 -34 59 -34 61 -12 56 13 -2 3 5 -21 16 -41 20
-61 26 -61 17z"/>
<path d="M5395 5299 c19 -28 39 -68 45 -90 14 -51 35 -53 25 -2 -12 66 -62
143 -92 143 -8 0 0 -19 22 -51z"/>
<path d="M4216 5258 c-17 -42 -28 -110 -16 -103 5 3 16 29 26 58 9 28 19 58
22 65 10 28 -20 9 -32 -20z"/>
<path d="M4915 5207 c10 -78 8 -188 -5 -255 -15 -72 -7 -92 14 -40 40 94 40
247 1 315 l-16 28 6 -48z"/>
<path d="M5363 5200 c2 -14 16 -64 30 -113 30 -98 36 -176 23 -289 -9 -85 3
-105 22 -39 20 66 25 155 13 227 -13 71 -53 184 -79 219 -14 19 -14 19 -9 -5z"/>
<path d="M5762 5123 c12 -35 22 -98 25 -157 9 -152 -15 -255 -106 -470 -23
-54 -41 -100 -38 -102 7 -7 96 160 122 231 68 179 72 405 10 525 -26 50 -33
33 -13 -27z"/>
<path d="M4826 4997 c-92 -223 -103 -282 -69 -386 18 -56 37 -70 25 -18 -4 17
-7 70 -7 117 1 79 4 92 47 190 54 123 63 153 51 174 -7 12 -18 -7 -47 -77z"/>
<path d="M5345 4812 c0 -106 -4 -139 -24 -202 l-24 -75 -17 65 c-18 70 -36
110 -49 110 -5 0 -11 -51 -14 -112 -8 -177 -46 -283 -150 -421 l-52 -69 -7
104 c-4 58 -13 118 -19 134 -12 28 -13 26 -19 -41 -5 -55 -19 -97 -63 -197
-66 -149 -97 -261 -97 -352 0 -36 -4 -66 -10 -66 -15 0 -103 93 -137 144 -26
39 -70 132 -124 265 -20 49 -20 10 1 -65 27 -99 90 -221 148 -285 45 -50 121
-109 141 -109 7 0 11 29 11 78 0 101 27 210 87 351 l48 114 3 -76 c2 -43 7
-77 11 -77 10 0 101 112 150 183 61 90 111 239 111 333 0 52 11 36 19 -28 3
-29 11 -53 16 -53 15 0 61 100 79 172 25 97 18 278 -12 297 -4 2 -7 -53 -7
-122z"/>
<path d="M4330 4896 c0 -9 7 -16 16 -16 9 0 14 5 12 12 -6 18 -28 21 -28 4z"/>
<path d="M4126 4883 c-11 -11 -6 -23 9 -23 8 0 15 4 15 9 0 13 -16 22 -24 14z"/>
<path d="M4187 4884 c-8 -8 1 -24 14 -24 5 0 9 7 9 15 0 15 -12 20 -23 9z"/>
<path d="M4260 4880 c0 -5 5 -10 10 -10 6 0 10 5 10 10 0 6 -4 10 -10 10 -5 0
-10 -4 -10 -10z"/>
<path d="M4360 4815 c0 -9 5 -15 10 -13 12 4 11 16 -1 24 -5 3 -9 -2 -9 -11z"/>
<path d="M4275 4801 c-7 -12 12 -24 25 -16 11 7 4 25 -10 25 -5 0 -11 -4 -15
-9z"/>
<path d="M4100 4785 c0 -9 5 -15 10 -13 12 4 11 16 -1 24 -5 3 -9 -2 -9 -11z"/>
<path d="M4185 4790 c-3 -6 1 -13 10 -16 19 -8 30 0 20 15 -8 14 -22 14 -30 1z"/>
<path d="M4330 4730 c0 -5 5 -10 10 -10 6 0 10 5 10 10 0 6 -4 10 -10 10 -5 0
-10 -4 -10 -10z"/>
<path d="M4165 4711 c-7 -12 12 -24 25 -16 11 7 4 25 -10 25 -5 0 -11 -4 -15
-9z"/>
<path d="M4245 4711 c-7 -12 12 -24 25 -16 11 7 4 25 -10 25 -5 0 -11 -4 -15
-9z"/>
<path d="M5466 4335 c-15 -104 -29 -163 -63 -255 -50 -139 -72 -207 -88 -278
-16 -68 -20 -232 -6 -232 4 0 11 39 14 88 6 92 35 202 107 405 42 121 64 247
50 297 -6 21 -8 17 -14 -25z"/>
<path d="M4344 4265 c-15 -60 27 -202 84 -284 57 -82 62 -79 62 40 0 113 -13
124 -27 24 l-9 -60 -31 65 c-35 72 -52 135 -53 192 0 44 -17 59 -26 23z"/>
<path d="M5171 3726 c-25 -102 -7 -287 39 -395 39 -89 49 -76 19 24 -36 123
-53 250 -45 342 4 40 5 73 3 73 -3 0 -10 -20 -16 -44z"/>
<path d="M9870 2360 c0 -42 34 -131 74 -196 63 -102 69 -131 51 -234 -6 -34
-6 -34 12 -17 14 14 18 34 18 100 0 81 -1 85 -43 148 -23 36 -53 94 -67 129
-26 66 -45 96 -45 70z"/>
<path d="M9106 2352 c-10 -16 19 -128 50 -197 28 -63 32 -106 21 -190 l-7 -50
20 40 c26 54 26 136 -1 195 -12 25 -34 83 -49 129 -15 46 -30 78 -34 73z"/>
<path d="M5614 1416 c-9 -48 3 -90 33 -121 39 -39 53 -16 20 33 -19 26 -27 51
-27 80 0 51 -17 56 -26 8z"/>
</g>
</svg>
