<?xml version="1.0" standalone="no"?>
<!DOCTYPE svg PUBLIC "-//W3C//DTD SVG 20010904//EN"
 "http://www.w3.org/TR/2001/REC-SVG-20010904/DTD/svg10.dtd">
<svg version="1.0" xmlns="http://www.w3.org/2000/svg"
 width="1408.000000pt" height="768.000000pt" viewBox="0 0 1408.000000 768.000000"
 preserveAspectRatio="xMidYMid meet">
<metadata>
Created by potrace 1.16, written by Peter Selinger 2001-2019
</metadata>
<g transform="translate(0.000000,768.000000) scale(0.100000,-0.100000)"
fill="#000000" stroke="none">
<path d="M3598 7250 c-14 -11 -33 -38 -42 -60 -17 -43 -36 -182 -36 -269 l0
-53 -39 35 c-21 19 -72 54 -112 77 -156 89 -196 115 -254 165 -74 64 -100 78
-129 71 -70 -17 -59 -157 32 -396 22 -58 43 -133 47 -168 7 -61 6 -65 -30
-118 -20 -31 -63 -92 -97 -137 -65 -88 -107 -164 -145 -267 -23 -59 -24 -74
-18 -160 6 -94 6 -95 -25 -141 -16 -26 -81 -91 -143 -145 -61 -54 -152 -137
-202 -184 -49 -47 -122 -112 -162 -144 -78 -64 -99 -98 -88 -144 16 -73 134
-188 255 -249 30 -16 61 -36 68 -46 38 -50 199 -95 297 -81 28 3 104 24 170
46 246 80 352 95 424 58 53 -26 116 -100 180 -208 55 -96 83 -115 100 -71 7
21 8 21 31 -10 12 -18 42 -85 66 -148 45 -122 69 -155 89 -123 11 18 21 11 34
-25 14 -40 103 -141 132 -150 11 -4 26 -2 33 5 11 8 19 3 36 -26 40 -64 131
-116 143 -81 6 19 45 -20 79 -80 29 -51 61 -70 70 -42 2 6 17 -8 32 -32 41
-63 67 -89 88 -89 10 0 40 -11 67 -24 45 -23 50 -30 90 -123 74 -169 113 -226
141 -208 5 3 27 -21 48 -53 47 -68 115 -132 141 -132 20 0 113 -94 154 -155
26 -40 31 -58 127 -505 46 -217 61 -337 86 -700 26 -377 28 -435 15 -487 -19
-79 -121 -356 -141 -383 -18 -24 -26 -25 -137 -30 -99 -4 -124 -9 -153 -27
-54 -34 -137 -123 -181 -194 -56 -92 -49 -144 17 -119 20 8 29 6 47 -10 12
-12 33 -23 47 -26 14 -3 35 -10 48 -15 13 -5 28 -6 34 -3 5 4 43 0 85 -7 68
-12 74 -15 68 -34 -4 -11 -9 -41 -12 -66 -4 -37 -2 -47 12 -52 9 -4 25 -3 35
3 15 8 19 5 24 -20 6 -32 30 -39 66 -20 14 7 31 5 65 -10 26 -11 69 -20 98
-20 29 0 59 -5 67 -10 10 -6 22 -4 38 6 19 13 29 13 59 3 57 -19 179 -6 241
25 28 14 54 30 57 36 4 6 31 23 61 37 30 14 63 38 74 53 11 15 40 86 64 156
24 71 67 198 96 281 44 131 56 155 78 165 54 26 66 74 74 283 4 105 12 215 18
245 5 30 23 157 39 281 16 124 44 306 61 405 17 98 37 224 45 279 7 55 28 140
45 189 21 58 30 99 26 118 -7 35 31 118 53 118 9 0 59 -9 111 -20 115 -24 176
-26 187 -6 7 12 17 13 48 6 88 -21 161 -8 149 25 -4 10 8 10 58 -2 35 -8 142
-17 238 -20 148 -5 181 -3 214 11 26 11 69 16 136 16 53 0 112 5 129 11 29 10
32 15 29 40 l-5 29 24 -22 c22 -21 23 -21 43 -3 16 15 22 16 35 5 13 -11 29
-4 98 38 66 41 84 48 90 36 4 -8 17 -14 27 -14 21 0 184 70 234 101 l30 18 22
-78 c13 -43 41 -124 64 -180 71 -180 124 -271 156 -271 7 0 27 -26 44 -58 68
-120 187 -274 340 -438 132 -142 179 -235 220 -433 33 -164 24 -244 -44 -404
-45 -103 -171 -318 -219 -373 -46 -52 -95 -69 -183 -61 -81 8 -122 -5 -183
-56 -59 -48 -159 -171 -167 -203 -11 -42 -1 -59 35 -62 19 -2 50 -15 69 -30
28 -22 49 -27 125 -33 51 -4 112 -13 137 -19 52 -14 136 -7 199 15 24 8 72 15
108 15 132 0 141 9 416 465 33 55 72 114 87 131 32 37 90 150 205 397 68 147
88 200 92 246 7 75 -1 98 -83 228 -105 167 -180 346 -200 478 l-7 50 72 -65
c227 -207 279 -249 406 -338 238 -166 320 -259 430 -487 65 -134 82 -184 96
-284 19 -129 -6 -484 -40 -573 -14 -36 -47 -56 -129 -78 -38 -9 -83 -25 -99
-35 -58 -34 -133 -184 -133 -265 0 -37 20 -70 41 -70 6 0 18 -7 26 -16 10 -9
25 -13 39 -10 14 4 40 -2 65 -16 52 -27 139 -34 199 -17 26 7 84 11 136 10
127 -4 155 13 256 159 73 105 77 118 99 303 11 95 28 246 39 337 22 183 46
573 44 720 -2 136 -13 156 -186 330 -237 239 -362 456 -418 725 -10 50 -10 59
6 76 15 17 16 33 11 129 -7 113 5 151 17 58 11 -82 54 -256 76 -304 13 -31 25
-44 39 -44 15 0 26 -18 51 -82 41 -110 85 -178 119 -184 19 -4 35 -22 60 -65
86 -148 251 -313 283 -281 8 8 30 -6 81 -53 73 -67 188 -132 251 -142 35 -5
75 -42 143 -130 19 -25 23 -26 37 -13 24 24 57 139 63 217 4 53 10 73 20 73
25 0 36 54 36 180 0 112 -10 185 -39 289 -5 17 -4 22 4 17 35 -22 20 106 -24
204 -14 30 -52 98 -84 151 -33 53 -60 98 -60 101 0 3 9 8 20 11 34 9 37 1
-102 202 -74 107 -98 156 -86 175 7 11 -6 48 -46 133 -60 125 -62 132 -44 121
6 -4 16 0 23 9 10 14 2 48 -41 186 -55 179 -60 190 -172 402 -59 112 -71 141
-66 167 3 16 1 47 -6 69 -19 58 -94 222 -128 280 -21 36 -27 54 -20 61 13 13
-53 120 -106 171 -27 26 -34 40 -30 57 8 30 -63 107 -151 164 -38 25 -62 47
-59 54 10 27 -79 91 -198 142 -104 44 -185 90 -219 124 -20 19 -91 47 -277
109 -138 46 -253 89 -256 96 -7 18 -86 41 -189 55 -45 7 -104 18 -132 26 -102
28 -317 37 -790 31 -253 -4 -563 -13 -690 -21 -402 -27 -687 -15 -731 28 -17
18 -97 36 -191 43 -61 5 -73 9 -73 23 0 11 -11 20 -27 25 -15 3 -183 10 -373
15 -243 6 -366 13 -415 24 -87 19 -265 87 -264 101 1 5 1 15 0 21 -1 16 -78
34 -140 34 -28 0 -51 2 -51 5 0 3 7 17 16 31 25 37 9 44 -76 33 -68 -9 -234
-4 -253 8 -4 3 -3 11 3 18 17 20 6 32 -37 40 -81 14 -461 148 -457 160 9 22
-28 39 -144 65 -83 18 -117 30 -117 40 0 20 -37 37 -122 56 -45 10 -73 21 -73
29 0 16 -22 25 -63 25 -18 0 -52 7 -76 16 -31 11 -63 13 -105 9 l-61 -6 -185
182 c-102 100 -199 188 -217 195 -45 20 -86 17 -115 -6z m107 -50 c47 -29 144
-160 231 -311 115 -200 150 -324 134 -470 -5 -41 -12 -82 -15 -91 -4 -10 -3
-18 3 -18 5 0 20 32 32 70 44 137 9 300 -106 501 -61 106 -62 109 -29 81 79
-64 213 -228 254 -309 29 -58 46 -66 37 -17 -9 44 -36 100 -78 162 l-29 42 40
0 c22 0 42 -4 46 -9 3 -5 30 -13 59 -16 39 -5 55 -12 59 -24 3 -14 19 -19 71
-24 73 -7 91 -14 91 -37 0 -17 62 -38 189 -65 49 -11 74 -20 66 -25 -19 -12
-4 -40 22 -40 13 0 127 -36 255 -79 174 -59 229 -81 220 -90 -32 -32 87 -64
244 -65 99 -1 114 -3 98 -14 -11 -7 -19 -22 -19 -33 0 -18 8 -19 100 -19 95 0
100 -1 97 -21 -2 -17 8 -24 53 -38 30 -10 90 -32 133 -50 120 -48 221 -62 497
-67 319 -6 368 -10 366 -32 -1 -14 18 -18 129 -29 72 -6 135 -12 142 -12 6 -1
19 -9 29 -18 22 -22 155 -49 309 -63 121 -11 363 -3 630 21 61 6 317 13 571
16 450 5 679 0 669 -17 -11 -18 24 -25 145 -30 70 -4 134 -11 145 -18 32 -19
266 -105 428 -156 97 -31 147 -51 147 -61 0 -7 10 -17 22 -21 48 -15 431 -208
420 -212 -29 -9 -5 -36 86 -96 96 -63 146 -106 124 -106 -27 0 -8 -37 53 -101
55 -59 63 -72 54 -87 -10 -15 -4 -29 36 -83 52 -70 80 -123 131 -242 38 -88
42 -106 17 -86 -37 31 -1 -61 111 -281 130 -258 206 -464 141 -385 -15 19 -24
24 -25 15 0 -32 50 -199 85 -279 25 -60 32 -86 24 -92 -8 -5 -4 -23 15 -64 31
-69 116 -210 161 -269 l33 -43 -29 10 c-15 6 -31 8 -35 5 -3 -4 35 -71 84
-150 125 -200 184 -320 132 -268 -23 23 -40 26 -40 6 0 -8 13 -50 29 -93 34
-93 58 -207 67 -325 9 -118 -5 -133 -28 -28 -28 133 -37 119 -31 -53 4 -106 2
-186 -7 -249 l-13 -92 -28 82 c-28 83 -64 152 -79 152 -4 0 5 -33 21 -72 44
-113 39 -119 -38 -48 -38 34 -81 68 -96 76 l-28 15 21 -41 21 -42 -51 29 c-84
46 -172 125 -235 209 -32 44 -60 81 -62 84 -7 8 -23 -25 -19 -40 18 -66 18
-66 -40 -5 -75 78 -155 202 -200 309 -38 91 -60 104 -51 30 2 -24 1 -41 -3
-39 -14 9 -67 146 -90 233 -21 79 -40 102 -54 66 -4 -9 -8 -15 -11 -13 -12 12
-56 216 -66 304 -10 91 -9 112 12 230 15 84 30 136 41 147 25 25 33 78 33 211
0 64 1 113 3 107 6 -18 31 -11 43 12 17 31 5 178 -24 306 -23 100 -23 102 -4
102 19 0 19 5 14 88 -6 108 -41 221 -113 365 -64 129 -110 200 -160 247 -47
45 -41 28 40 -114 105 -184 171 -344 185 -452 l8 -55 -29 27 c-15 15 -31 25
-34 21 -4 -3 5 -55 20 -114 32 -129 56 -265 56 -313 l0 -35 -20 33 c-11 17
-24 32 -30 32 -12 0 -12 -9 -1 -170 5 -69 6 -143 1 -165 -4 -22 -8 -32 -9 -23
0 9 -6 29 -12 45 -15 41 -29 11 -29 -67 0 -65 -30 -272 -52 -359 l-11 -45 -12
34 -12 35 -12 -58 c-9 -39 -10 -90 -6 -154 6 -70 5 -94 -4 -89 -6 4 -11 16
-11 27 0 10 -5 19 -11 19 -18 0 -3 -158 25 -275 66 -269 189 -470 428 -705 77
-76 133 -140 142 -162 10 -24 16 -68 16 -120 0 -149 -21 -510 -40 -678 -11
-91 -26 -230 -35 -310 -24 -222 -24 -223 -48 -261 -118 -193 -158 -225 -267
-217 -44 3 -45 4 -50 42 -7 51 -30 61 -30 12 0 -26 -6 -38 -21 -47 -21 -11
-21 -10 -15 37 9 57 44 135 82 182 37 45 16 40 -41 -10 -56 -49 -76 -90 -84
-173 l-6 -60 -57 1 c-78 2 -108 22 -108 74 0 26 -6 42 -16 48 -15 9 -15 14 7
53 21 38 63 77 125 116 18 11 18 12 -1 12 -12 1 -45 -14 -75 -31 -50 -30 -59
-42 -99 -121 -30 -60 -47 -85 -54 -78 -19 19 27 138 79 207 18 25 37 35 91 48
165 41 192 77 217 291 43 357 11 546 -136 812 -101 183 -175 258 -441 446 -65
46 -191 149 -280 229 -235 211 -348 302 -321 256 5 -8 0 -7 -11 2 -21 16 -268
347 -313 417 -29 45 -48 55 -54 26 -5 -20 -122 213 -188 375 -55 132 -81 153
-45 36 23 -76 18 -75 -25 4 -54 99 -121 191 -164 225 -20 15 -36 26 -36 24 0
-3 25 -45 56 -93 79 -126 119 -207 104 -212 -15 -5 -121 -77 -173 -116 l-38
-29 3 29 c5 43 -16 36 -130 -45 -89 -63 -290 -176 -298 -168 -2 2 2 17 8 35
17 43 5 49 -39 20 -150 -101 -186 -120 -195 -104 -12 22 -27 20 -71 -9 -29
-20 -41 -24 -56 -15 -43 23 -86 -3 -75 -46 l6 -24 -83 1 c-46 0 -117 4 -157 8
-77 7 -101 -1 -79 -27 11 -13 -6 -14 -133 -9 -86 3 -185 14 -244 26 -54 12
-107 21 -117 21 -22 0 -26 -29 -6 -49 14 -15 -36 -10 -141 16 -70 17 -97 9
-72 -22 12 -14 11 -16 -11 -11 -76 18 -174 36 -195 36 l-24 0 17 43 c9 23 21
49 28 57 26 33 24 40 -21 91 -26 29 -59 78 -73 108 -24 52 -26 69 -31 238 -3
100 -8 184 -12 188 -13 13 -23 -92 -23 -245 0 -147 1 -158 26 -211 15 -31 43
-74 62 -96 l36 -39 -35 -27 c-39 -32 -47 -62 -13 -52 19 6 19 4 -7 -34 -20
-30 -24 -44 -16 -54 8 -9 2 -31 -24 -81 -19 -38 -34 -77 -34 -87 0 -19 15 -34
23 -22 2 5 2 1 -1 -7 -24 -75 -54 -197 -61 -250 -5 -36 -25 -159 -45 -275 -19
-115 -42 -271 -51 -345 -16 -138 -25 -208 -50 -364 -8 -49 -16 -157 -17 -240
-3 -123 -6 -158 -21 -188 -11 -21 -24 -35 -31 -32 -22 8 -36 -20 -93 -183
-171 -487 -140 -426 -246 -489 -27 -16 -65 -39 -85 -51 -44 -27 -127 -39 -179
-26 -36 8 -38 10 -35 45 3 28 -1 40 -16 49 -19 12 -19 14 10 61 19 31 45 57
72 71 40 21 40 22 14 25 -36 4 -81 -21 -111 -60 -33 -44 -69 -116 -76 -153 -6
-27 -11 -30 -48 -33 -23 -2 -57 4 -77 12 -33 14 -35 17 -29 51 4 26 1 41 -12
55 -17 19 -17 21 9 54 34 46 86 85 133 102 l38 13 -38 1 c-67 0 -120 -38 -205
-146 -13 -16 -20 -23 -17 -17 3 7 2 21 -4 30 -7 13 -2 28 22 62 46 64 92 90
186 106 152 27 174 49 261 263 55 135 83 249 81 330 -1 31 -1 239 -1 462 0
223 -4 464 -10 535 -15 178 -76 619 -95 680 -17 57 -45 97 -52 77 -3 -7 -50
34 -116 103 -109 112 -142 134 -149 98 -3 -13 -20 2 -63 55 -60 73 -75 84 -75
57 0 -8 -4 -15 -9 -15 -17 0 -117 117 -184 215 -69 102 -87 104 -42 6 53 -114
199 -281 246 -281 10 0 38 -21 61 -46 47 -51 90 -78 104 -64 13 13 15 10 135
-121 l106 -115 12 -82 c68 -466 87 -736 75 -1070 -6 -174 -6 -281 3 -375 10
-108 9 -142 -2 -196 -31 -149 -142 -406 -187 -435 -13 -8 -52 -20 -88 -26
-119 -20 -155 -37 -210 -96 -27 -31 -50 -60 -50 -66 0 -11 -109 -6 -129 7 -6
3 -11 23 -11 44 0 20 -5 42 -10 47 -8 8 1 23 28 51 39 40 70 55 147 68 l40 8
-28 9 c-42 15 -110 1 -155 -32 -22 -16 -60 -62 -87 -104 -26 -42 -52 -76 -59
-76 -6 0 -22 7 -35 16 -17 12 -21 22 -17 40 4 14 1 34 -5 45 -10 19 -4 29 52
86 87 88 100 94 212 91 153 -3 171 14 251 238 88 243 88 244 51 764 -24 352
-44 493 -115 805 -21 94 -46 205 -55 248 -13 60 -28 94 -66 152 -49 73 -132
155 -157 155 -34 0 -115 87 -157 170 -27 55 -56 82 -72 69 -10 -9 -25 13 -72
112 -32 68 -57 125 -56 127 2 2 24 -11 51 -27 61 -39 76 -39 38 0 -48 51 -169
131 -172 114 -2 -8 2 -23 8 -35 10 -18 6 -18 -42 8 -44 23 -63 43 -111 116
-53 80 -77 98 -77 60 0 -9 -23 10 -51 40 -54 59 -72 67 -88 39 -9 -16 -14 -14
-48 20 -22 20 -52 59 -68 87 -37 62 -52 68 -69 30 l-12 -30 -21 22 c-36 40
-70 101 -93 166 -13 34 -26 62 -31 62 -5 0 -14 -11 -22 -25 -13 -25 -13 -25
-31 27 -32 90 -75 167 -116 208 -46 46 -56 49 -65 18 -6 -18 -12 -11 -43 46
-45 86 -102 150 -166 186 l-51 30 76 0 c93 0 155 -18 226 -65 39 -26 51 -31
41 -16 -38 54 -123 96 -213 106 -106 12 -310 -25 -535 -97 -168 -53 -234 -61
-328 -39 -78 19 -73 31 13 31 123 0 214 24 354 94 69 35 151 71 182 81 64 20
94 39 84 54 -19 32 -129 -3 -282 -87 -144 -80 -188 -92 -343 -92 -129 0 -174
8 -222 42 l-27 18 24 24 c51 51 88 164 67 202 -10 18 -11 18 -18 -1 -21 -62
-45 -106 -59 -111 -9 -4 -33 6 -56 22 -35 24 -42 26 -55 12 -13 -13 -13 -17 4
-38 19 -23 41 -31 95 -32 l29 -1 -25 -25 c-23 -23 -28 -24 -56 -12 -35 14 -92
73 -116 119 -19 37 -10 58 39 96 47 36 119 35 158 -2 28 -27 45 -26 35 2 -9
21 -67 55 -96 55 l-25 0 30 31 c16 17 108 102 204 189 96 86 190 174 209 195
54 62 102 188 100 265 -1 32 -2 30 -20 -25 l-19 -60 3 80 c2 73 6 89 48 175
25 53 75 134 110 180 35 47 86 117 112 157 29 43 57 73 71 77 12 3 34 16 49
30 14 13 28 22 30 19 5 -4 30 26 54 63 10 17 11 17 6 -3 -8 -33 8 -28 52 17
26 27 41 36 46 28 5 -8 23 -2 60 20 l52 33 -7 -42 c-8 -49 -24 -82 -36 -74
-10 6 -30 -48 -30 -81 0 -13 5 -24 10 -24 6 0 10 9 10 19 0 11 5 23 10 26 6 3
10 -1 10 -9 0 -36 19 -11 45 57 24 62 29 95 36 232 10 179 21 243 50 274 25
26 43 26 84 1z m-631 -87 c58 -53 153 -116 241 -161 33 -17 86 -48 118 -70 56
-38 57 -39 37 -57 -10 -9 -32 -17 -47 -17 -18 0 -40 -11 -60 -31 -22 -20 -33
-26 -33 -16 -1 9 -10 4 -25 -14 -14 -15 -25 -25 -25 -21 0 3 -6 1 -14 -5 -11
-9 -15 -3 -20 32 -7 47 -27 81 -152 264 -100 148 -98 143 -84 143 7 0 35 -21
64 -47z m49 -195 c108 -163 119 -209 60 -257 -21 -17 -42 -30 -47 -28 -5 2
-19 39 -31 83 -11 43 -35 116 -53 161 -36 92 -62 192 -62 238 1 26 5 21 38
-40 21 -38 63 -109 95 -157z m5794 -3345 c21 -25 24 -26 36 -12 11 15 16 8 42
-55 73 -182 164 -331 197 -323 12 3 47 -38 129 -152 136 -186 223 -281 261
-281 36 0 45 -15 52 -98 15 -156 93 -352 216 -542 68 -106 75 -124 67 -181 -7
-55 -258 -584 -277 -584 -8 0 -25 -20 -36 -45 -12 -25 -68 -119 -124 -210 -57
-91 -118 -190 -136 -220 -66 -112 -93 -130 -195 -130 -25 0 -83 -10 -130 -21
-76 -20 -90 -20 -149 -9 -80 16 -82 17 -68 39 8 13 8 27 0 49 -9 26 -7 35 13
62 34 46 56 59 111 64 27 2 54 5 59 5 6 1 3 6 -5 11 -27 18 -110 11 -146 -11
-39 -24 -85 -87 -117 -159 l-22 -50 -45 22 -45 23 -1 58 0 58 68 65 68 64 98
0 c125 0 164 12 216 63 86 87 250 390 285 526 26 106 27 191 1 317 -47 229
-86 301 -271 500 -120 128 -204 238 -285 372 -41 67 -80 121 -93 127 -13 6
-35 35 -51 65 -59 117 -162 404 -149 413 98 71 109 77 109 57 0 -13 7 -20 19
-20 19 0 138 74 220 136 24 19 46 34 50 34 3 0 16 -12 28 -27z m-330 -2747
c-3 -8 -16 -20 -28 -26 -17 -10 -20 -9 -14 2 24 41 55 59 42 24z m-3798 -32
c-17 -21 -31 -17 -17 5 7 11 16 17 20 14 5 -2 4 -11 -3 -19z m3981 -34 c-16
-31 -23 -18 -8 15 7 15 14 23 16 17 2 -6 -2 -21 -8 -32z m-3806 -21 c-24 -27
-30 -15 -9 18 12 17 20 23 23 15 2 -7 -4 -22 -14 -33z m192 -155 c-3 -8 -12
-14 -21 -14 -14 0 -13 4 2 33 13 25 18 28 21 14 2 -10 1 -25 -2 -33z m94 -13
c0 -10 -11 -26 -25 -35 -29 -19 -30 -16 -10 24 18 34 35 39 35 11z m5161 -44
c-17 -17 -22 -2 -9 29 11 28 12 29 16 5 2 -13 -1 -28 -7 -34z m-4921 -21 l-22
-21 7 25 c4 14 13 31 19 39 9 12 12 11 14 -4 2 -9 -6 -27 -18 -39z"/>
<path d="M3620 7105 c-21 -43 -22 -57 -18 -223 5 -255 23 -262 23 -9 0 111 3
214 8 230 10 35 45 36 86 1 39 -32 41 -17 3 19 -16 15 -39 27 -54 27 -21 0
-30 -9 -48 -45z"/>
<path d="M3770 6976 c0 -2 13 -45 29 -94 44 -132 55 -203 52 -335 -2 -114 9
-187 30 -187 6 0 8 8 5 18 -2 9 -8 49 -12 87 l-7 70 22 -19 c27 -25 36 -16 22
26 -5 18 -15 71 -21 118 -13 96 -50 215 -86 278 -22 37 -34 51 -34 38z"/>
<path d="M3775 6875 c2 -16 7 -41 10 -55 5 -21 4 -21 -9 5 -20 41 -21 8 -1
-65 12 -48 12 -53 0 -36 -8 11 -15 23 -15 28 0 4 -4 8 -9 8 -5 0 -2 -33 5 -72
15 -80 17 -130 7 -167 -6 -23 -7 -24 -14 -5 -6 13 -8 7 -6 -21 1 -22 6 -40 11
-40 20 0 38 80 33 150 -3 44 -1 62 4 48 15 -39 18 -25 13 50 -2 39 -4 84 -4
98 0 14 -7 43 -15 65 -13 33 -15 34 -10 9z"/>
<path d="M3985 6601 c-4 -45 -5 -84 -2 -87 11 -11 30 133 20 151 -8 14 -12 -1
-18 -64z"/>
<path d="M3281 6564 c-110 -82 -254 -254 -276 -329 -6 -19 -6 -19 7 -1 66 98
143 188 232 274 59 56 104 102 102 102 -2 0 -31 -21 -65 -46z"/>
<path d="M4275 6590 c22 -106 45 -294 41 -335 -4 -34 -2 -44 4 -30 12 28 12
262 0 270 -5 3 -10 14 -10 23 0 9 -9 35 -20 57 -13 26 -18 31 -15 15z"/>
<path d="M3550 6592 c0 -5 10 -17 21 -28 12 -10 34 -42 50 -69 30 -54 92 -118
123 -129 11 -4 -1 11 -25 33 -25 22 -60 67 -78 100 -28 53 -91 118 -91 93z"/>
<path d="M4777 6356 c34 -13 74 -31 89 -41 14 -9 23 -12 19 -5 -10 17 -126 70
-150 69 -11 0 8 -10 42 -23z"/>
<path d="M3830 6316 c0 -2 17 -15 38 -28 42 -29 92 -44 92 -28 0 5 -8 10 -17
10 -10 0 -36 11 -58 25 -38 23 -55 30 -55 21z"/>
<path d="M4845 6282 c6 -5 42 -33 80 -61 69 -51 69 -51 24 -9 -40 37 -132 99
-104 70z"/>
<path d="M3930 6231 c36 -20 114 -28 124 -12 3 5 -17 12 -46 15 -28 4 -65 9
-82 12 l-31 5 35 -20z"/>
<path d="M4016 6191 c11 -10 74 -32 74 -25 0 5 -65 34 -77 34 -4 0 -3 -4 3 -9z"/>
<path d="M3790 6174 c0 -3 30 -37 67 -75 36 -38 63 -69 59 -69 -3 0 1 -11 10
-25 9 -14 19 -23 22 -20 3 3 -2 13 -11 22 -8 10 -15 21 -14 24 1 4 -28 38 -65
78 -38 39 -68 69 -68 65z"/>
<path d="M3004 6133 c-37 -48 -53 -97 -53 -158 1 -92 16 -95 21 -4 4 73 9 94
36 142 18 32 30 57 28 57 -2 0 -16 -16 -32 -37z"/>
<path d="M5000 6068 c41 -41 77 -73 79 -71 7 5 -110 122 -134 135 -11 6 14
-23 55 -64z"/>
<path d="M3111 6062 c-11 -16 -22 -41 -26 -58 -4 -22 0 -18 15 16 12 24 26 50
32 57 6 7 8 13 5 13 -3 0 -15 -13 -26 -28z"/>
<path d="M3180 6069 c-11 -8 -6 -9 21 -5 29 5 51 -1 111 -31 88 -44 95 -30 8
16 -59 32 -113 39 -140 20z"/>
<path d="M4218 6019 c47 -63 54 -84 17 -49 -34 32 -31 19 9 -37 18 -27 44 -68
56 -93 13 -25 25 -40 27 -33 5 13 -41 108 -57 118 -5 3 -10 11 -10 16 0 6 5 7
11 3 21 -13 -34 75 -64 103 -25 23 -23 18 11 -28z"/>
<path d="M5011 5994 c25 -38 124 -153 127 -149 7 7 -57 91 -99 130 -24 22 -36
30 -28 19z"/>
<path d="M5743 5985 c-51 -14 -111 -42 -143 -66 -12 -9 -11 -10 5 -4 189 69
227 84 210 84 -11 0 -44 -7 -72 -14z"/>
<path d="M3110 5934 c-6 -14 -10 -28 -10 -31 0 -3 -16 -31 -35 -63 -19 -32
-35 -60 -35 -64 0 -12 22 -6 47 14 19 15 41 20 84 20 58 0 61 1 119 55 32 30
56 56 52 59 -24 14 -123 36 -164 36 -43 0 -50 -3 -58 -26z m73 -52 c11 -2 17
3 17 17 0 11 4 22 8 25 14 9 52 -6 52 -19 0 -23 -57 -64 -81 -58 -25 7 -44 45
-34 70 7 16 9 15 14 -7 4 -14 15 -26 24 -28z"/>
<path d="M3512 5857 c102 -53 216 -93 241 -84 7 2 -22 14 -63 26 -41 13 -105
40 -141 62 -37 22 -84 43 -105 46 -32 5 -19 -4 68 -50z"/>
<path d="M5571 5834 c-39 -19 -71 -40 -71 -45 0 -5 35 8 78 29 42 22 84 42 92
45 10 4 9 6 -6 6 -12 1 -53 -15 -93 -35z"/>
<path d="M7435 5850 c22 -11 49 -20 60 -20 15 0 16 -3 7 -12 -7 -7 -58 -15
-125 -18 -61 -3 -105 -8 -97 -12 47 -18 119 -35 114 -27 -3 5 -13 10 -22 10
-9 1 6 5 33 10 68 11 135 30 135 38 0 4 -26 15 -57 25 -86 28 -92 28 -48 6z"/>
<path d="M5045 5845 c31 -87 47 -150 52 -210 6 -61 8 -66 15 -40 15 54 -21
201 -62 255 -10 12 -11 12 -5 -5z"/>
<path d="M4240 5846 c0 -4 11 -28 24 -54 26 -53 52 -128 66 -193 9 -40 9 -38
6 26 -2 54 -10 86 -34 137 -28 57 -62 104 -62 84z"/>
<path d="M3850 5783 c36 -21 93 -65 127 -98 75 -72 84 -66 14 8 -49 52 -162
127 -191 127 -8 0 15 -17 50 -37z"/>
<path d="M3400 5755 c-18 -19 -31 -37 -28 -40 3 -3 20 12 38 35 39 49 35 52
-10 5z"/>
<path d="M5549 5746 c-39 -14 -88 -46 -109 -71 -19 -23 -7 -18 49 19 28 19 64
37 81 41 30 7 52 25 28 25 -7 -1 -29 -7 -49 -14z"/>
<path d="M6027 5738 c18 -30 161 -204 179 -218 18 -15 18 -14 0 15 -38 61
-148 195 -167 206 -17 9 -19 8 -12 -3z"/>
<path d="M7416 5721 c-4 -5 3 -7 14 -4 23 6 26 13 6 13 -8 0 -17 -4 -20 -9z"/>
<path d="M3340 5680 c-30 -16 -49 -29 -42 -30 21 0 76 26 91 43 17 22 16 21
-49 -13z"/>
<path d="M2823 5624 c-50 -40 -95 -79 -99 -86 -9 -15 45 24 126 90 76 62 74
61 69 66 -2 2 -45 -29 -96 -70z"/>
<path d="M4265 5645 c3 -16 8 -93 10 -170 4 -137 4 -139 -11 -90 -8 28 -21 63
-28 80 -12 28 -13 26 -20 -48 -4 -43 -17 -108 -28 -145 -20 -62 -22 -65 -28
-37 -6 30 -6 30 -29 -23 -17 -36 -31 -54 -47 -58 -25 -6 -24 -24 1 -24 21 0
99 78 120 119 10 19 20 66 24 105 l6 71 13 -57 c8 -32 18 -58 23 -58 37 0 51
169 24 274 -17 65 -41 113 -30 61z"/>
<path d="M7215 5655 c-74 -13 -152 -41 -142 -51 3 -3 14 -1 24 4 11 6 57 18
104 27 46 10 88 21 94 26 11 11 10 11 -80 -6z"/>
<path d="M3318 5635 c-3 -3 -34 -10 -69 -15 l-64 -9 75 3 c42 1 85 8 95 14 19
11 18 11 -6 12 -14 0 -28 -2 -31 -5z"/>
<path d="M3960 5609 c0 -4 15 -30 34 -58 19 -28 37 -64 41 -81 4 -16 10 -32
15 -35 12 -7 -4 55 -23 90 -18 33 -66 94 -67 84z"/>
<path d="M5273 5587 c19 -49 31 -152 31 -269 1 -145 13 -161 22 -31 9 112 -23
313 -49 313 -5 0 -7 -6 -4 -13z"/>
<path d="M6860 5540 c0 -23 138 -46 185 -31 26 8 23 9 -31 10 -33 1 -82 7
-107 15 -26 8 -47 10 -47 6z"/>
<path d="M6680 5520 c61 -54 198 -98 256 -84 24 6 16 10 -51 21 -48 8 -106 26
-145 46 -83 41 -91 43 -60 17z"/>
<path d="M4500 5530 c0 -3 11 -50 25 -104 26 -102 32 -206 16 -264 -13 -42 -4
-41 15 3 20 49 17 158 -6 244 -18 63 -48 138 -50 121z"/>
<path d="M6110 5529 c0 -6 126 -219 136 -228 9 -10 -14 46 -45 106 -26 52 -90
137 -91 122z"/>
<path d="M2565 5394 l-30 -26 33 18 c17 10 32 22 32 26 0 11 -1 10 -35 -18z"/>
<path d="M6166 5283 c8 -32 14 -87 14 -123 1 -36 5 -83 9 -105 7 -33 9 -22 10
55 1 58 -5 119 -15 155 -20 78 -36 94 -18 18z"/>
<path d="M5255 5253 c-4 -27 -17 -88 -29 -136 -17 -65 -19 -85 -9 -74 19 18
41 106 49 190 8 76 -1 92 -11 20z"/>
<path d="M3870 5256 c0 -2 25 -20 55 -40 30 -20 55 -32 55 -26 0 6 -21 24 -47
40 -43 27 -63 36 -63 26z"/>
<path d="M2835 5230 c-3 -5 1 -10 9 -10 9 0 16 5 16 10 0 6 -4 10 -9 10 -6 0
-13 -4 -16 -10z"/>
<path d="M3720 5232 c8 -5 48 -13 89 -16 40 -4 80 -9 90 -12 9 -2 1 3 -18 12
-37 17 -187 32 -161 16z"/>
<path d="M4490 5209 c0 -14 -12 -65 -26 -113 -24 -85 -27 -129 -3 -70 35 89
52 185 36 201 -4 3 -7 -5 -7 -18z"/>
<path d="M10160 5201 c0 -14 92 -172 98 -167 6 7 -26 75 -62 127 -20 30 -36
48 -36 40z"/>
<path d="M2755 5190 c-3 -5 1 -10 9 -10 9 0 16 5 16 10 0 6 -4 10 -9 10 -6 0
-13 -4 -16 -10z"/>
<path d="M2650 5150 c0 -5 7 -10 16 -10 8 0 12 5 9 10 -3 6 -10 10 -16 10 -5
0 -9 -4 -9 -10z"/>
<path d="M9095 5112 c-68 -36 -155 -108 -155 -129 0 -5 17 6 38 26 21 20 77
58 125 85 48 26 87 50 87 52 0 11 -32 0 -95 -34z"/>
<path d="M3350 5105 c-18 -19 -31 -37 -29 -40 3 -2 21 11 39 30 18 19 31 37
29 40 -3 2 -21 -11 -39 -30z"/>
<path d="M2575 5120 c-3 -5 -1 -10 4 -10 6 0 11 5 11 10 0 6 -2 10 -4 10 -3 0
-8 -4 -11 -10z"/>
<path d="M5153 5075 c-7 -34 -33 -100 -57 -148 -48 -96 -40 -113 12 -26 40 66
64 145 60 196 -3 36 -4 35 -15 -22z"/>
<path d="M2770 5110 c0 -5 5 -10 10 -10 6 0 10 5 10 10 0 6 -4 10 -10 10 -5 0
-10 -4 -10 -10z"/>
<path d="M2685 5080 c-3 -5 1 -10 10 -10 9 0 13 5 10 10 -3 6 -8 10 -10 10 -2
0 -7 -4 -10 -10z"/>
<path d="M3977 5028 c15 -58 11 -138 -12 -213 -7 -25 -9 -47 -5 -50 5 -3 26
15 48 40 l39 45 -4 -93 c-3 -50 -1 -102 4 -114 7 -20 10 -17 35 30 24 46 13
41 -19 -9 -10 -16 -12 -13 -12 26 0 25 4 74 9 109 5 36 6 69 3 75 -4 5 -26
-13 -49 -40 l-43 -49 14 40 c19 53 19 176 1 220 -22 51 -25 43 -9 -17z"/>
<path d="M6126 5035 c-4 -22 -10 -53 -12 -70 -3 -16 -19 -76 -36 -133 -16 -57
-28 -105 -26 -108 9 -8 67 164 79 230 6 35 9 76 7 92 -4 27 -5 26 -12 -11z"/>
<path d="M10116 5062 c-3 -4 -1 -26 4 -48 14 -57 13 -58 -22 -28 l-33 27 -3
-62 c-4 -73 -16 -83 -64 -50 l-33 22 25 -26 c14 -14 34 -27 44 -29 28 -4 48
37 41 86 l-6 40 22 -20 c11 -10 28 -32 37 -49 23 -42 26 -14 8 65 -8 35 -14
65 -13 67 2 1 20 -9 41 -23 21 -14 40 -24 43 -21 5 5 -66 57 -79 57 -4 0 -9
-4 -12 -8z"/>
<path d="M4387 4973 c-21 -64 -32 -133 -18 -113 13 19 45 149 38 156 -3 3 -12
-16 -20 -43z"/>
<path d="M4997 4843 c-38 -74 -66 -137 -64 -139 9 -9 96 148 122 219 32 86 11
57 -58 -80z"/>
<path d="M6568 4830 c67 -120 82 -145 82 -135 0 13 -87 166 -102 180 -6 5 3
-15 20 -45z"/>
<path d="M10431 4683 c45 -87 83 -160 85 -162 3 -3 -2 15 -11 38 -20 56 -124
258 -141 272 -7 6 23 -61 67 -148z"/>
<path d="M9053 4714 c-13 -123 -52 -256 -114 -391 -22 -47 -37 -88 -35 -90 9
-10 82 137 113 227 38 112 55 212 51 301 -3 61 -3 60 -15 -47z"/>
<path d="M9956 4805 c-9 -26 -7 -32 5 -12 6 10 9 21 6 23 -2 3 -7 -2 -11 -11z"/>
<path d="M4895 4779 c-22 -42 -55 -174 -55 -218 1 -50 16 -21 24 48 4 29 18
87 30 127 26 80 26 92 1 43z"/>
<path d="M9864 4789 c-31 -34 -70 -49 -131 -50 -42 0 -52 -3 -38 -9 53 -23
129 -6 169 39 11 12 28 21 38 21 11 0 16 5 13 10 -10 16 -30 12 -51 -11z"/>
<path d="M4114 4684 c-10 -39 1 -173 16 -187 10 -10 11 -7 5 13 -5 14 -8 64
-8 113 0 48 -1 87 -3 87 -2 0 -7 -12 -10 -26z"/>
<path d="M6520 4648 c0 -10 140 -261 153 -273 18 -18 -2 26 -60 132 -55 99
-92 155 -93 141z"/>
<path d="M10391 4596 c-1 -4 15 -51 34 -103 20 -52 43 -127 53 -166 10 -43 18
-63 20 -49 5 36 -35 181 -72 257 -19 39 -35 66 -35 61z"/>
<path d="M6466 4460 c4 -14 24 -70 46 -125 21 -55 48 -133 58 -174 11 -41 23
-77 26 -80 13 -12 -8 96 -32 169 -25 75 -109 257 -98 210z"/>
<path d="M9052 4418 c-33 -69 -72 -215 -77 -292 l-5 -71 15 70 c21 101 54 222
77 279 24 61 17 71 -10 14z"/>
<path d="M10385 4385 c19 -58 37 -173 42 -275 6 -98 8 -109 15 -75 16 74 -19
309 -53 355 -9 12 -10 11 -4 -5z"/>
<path d="M4826 4323 c-29 -89 -46 -194 -45 -276 l1 -82 13 105 c8 58 23 147
35 199 23 103 21 130 -4 54z"/>
<path d="M4990 4294 c27 -119 61 -177 136 -233 30 -23 52 -36 48 -29 -21 35
-74 98 -74 89 0 -5 5 -13 10 -16 6 -3 10 -11 10 -16 0 -41 -73 74 -101 160
-25 76 -42 102 -29 45z"/>
<path d="M6492 4063 c11 -55 18 -134 18 -208 0 -92 3 -116 12 -101 16 28 4
258 -17 326 -27 87 -33 78 -13 -17z"/>
<path d="M9005 4047 c-4 -43 -5 -80 -2 -83 7 -7 20 118 15 142 -3 10 -8 -16
-13 -59z"/>
<path d="M10356 3918 c-5 -58 -6 -112 -4 -120 7 -17 21 170 16 202 -2 14 -8
-23 -12 -82z"/>
<path d="M9020 3998 c0 -39 22 -171 36 -206 8 -21 12 -26 10 -12 -3 14 -10 66
-17 115 -11 85 -28 145 -29 103z"/>
<path d="M8305 3944 c-23 -35 -166 -346 -161 -351 7 -7 48 72 116 224 37 84
66 153 65 153 -2 0 -10 -12 -20 -26z"/>
<path d="M8519 3911 c-32 -33 -59 -65 -59 -73 1 -7 16 4 34 26 18 21 51 54 72
72 22 18 33 33 26 34 -8 0 -40 -27 -73 -59z"/>
<path d="M8620 3934 c-44 -38 -30 -40 26 -5 35 23 42 31 27 31 -12 0 -36 -12
-53 -26z"/>
<path d="M5394 3878 c14 -24 49 -85 77 -136 28 -51 53 -91 56 -89 6 7 -53 121
-103 200 -47 73 -73 94 -30 25z"/>
<path d="M10305 3788 c-9 -40 -28 -108 -42 -151 -29 -93 -24 -113 7 -30 23 59
64 242 57 249 -2 3 -12 -28 -22 -68z"/>
<path d="M6715 3830 c13 -48 55 -132 91 -182 30 -40 129 -128 145 -128 2 0
-32 37 -76 83 -60 61 -91 104 -123 167 -24 47 -40 74 -37 60z"/>
<path d="M10902 3718 c-19 -112 -29 -264 -21 -333 l6 -60 2 75 c0 41 8 132 17
202 18 154 16 233 -4 116z"/>
<path d="M8106 3724 c-7 -19 -106 -184 -133 -221 -8 -13 -11 -23 -5 -23 23 0
164 242 149 256 -2 3 -8 -3 -11 -12z"/>
<path d="M6962 3644 c40 -46 307 -173 341 -161 6 2 -19 14 -54 26 -72 27 -229
103 -274 134 -29 20 -29 20 -13 1z"/>
<path d="M5470 3629 c0 -9 81 -129 86 -129 8 0 -34 71 -62 105 -13 17 -24 27
-24 24z"/>
<path d="M7290 3586 c0 -16 185 -86 224 -86 12 1 -25 16 -81 35 -56 19 -111
39 -123 45 -11 6 -20 8 -20 6z"/>
<path d="M5511 3487 c-1 -4 6 -24 15 -45 9 -20 22 -64 30 -97 l14 -60 -3 50
c-3 41 -53 178 -56 152z"/>
<path d="M10953 3433 c-11 -53 -9 -254 2 -275 7 -11 10 37 10 148 1 90 0 164
-2 164 -1 0 -6 -17 -10 -37z"/>
<path d="M5955 3320 c-39 -20 -80 -58 -71 -67 3 -3 22 9 43 26 22 18 63 36 98
45 l60 14 -45 1 c-25 0 -62 -8 -85 -19z"/>
<path d="M11010 3187 c0 -79 16 -183 32 -207 6 -11 8 -7 4 15 -3 17 -9 83 -12
148 -8 129 -24 160 -24 44z"/>
<path d="M5213 3244 c14 -23 190 -178 179 -158 -6 12 -42 48 -79 80 -83 72
-109 93 -100 78z"/>
<path d="M6361 3135 c-17 -20 -31 -39 -31 -42 0 -10 50 39 61 60 15 27 4 20
-30 -18z"/>
<path d="M6324 3005 c-25 -52 -44 -100 -42 -107 2 -7 26 35 55 95 29 59 48
107 43 107 -5 0 -30 -43 -56 -95z"/>
<path d="M11101 3040 c-1 -40 27 -150 55 -218 33 -79 44 -73 15 6 -13 33 -33
100 -46 148 -13 49 -24 78 -24 64z"/>
<path d="M11211 2900 c-1 -27 57 -150 91 -195 51 -67 64 -62 17 6 -23 34 -56
93 -74 132 -19 40 -34 65 -34 57z"/>
<path d="M10504 2587 c68 -101 98 -188 112 -322 3 -38 10 -77 15 -85 13 -22 0
123 -18 200 -8 36 -16 75 -18 86 -5 37 -126 213 -147 214 -4 0 21 -42 56 -93z"/>
<path d="M6211 2405 c-1 -5 -15 -68 -31 -139 -16 -70 -28 -132 -25 -136 3 -5
-4 -38 -16 -75 -11 -36 -18 -72 -16 -78 7 -21 51 126 53 173 1 25 11 87 23
139 12 52 20 101 18 110 -3 9 -5 12 -6 6z"/>
<path d="M5481 2304 c-5 -54 135 -490 147 -456 2 6 -11 51 -28 99 -34 95 -81
238 -104 318 -7 28 -14 45 -15 39z"/>
<path d="M10870 2246 c0 -12 56 -89 81 -111 28 -25 18 -5 -29 55 -47 60 -52
65 -52 56z"/>
<path d="M10940 2111 c0 -5 20 -27 45 -47 54 -46 65 -74 66 -178 1 -74 2 -78
11 -41 5 22 8 70 6 107 -3 60 -7 71 -36 100 -36 39 -92 74 -92 59z"/>
<path d="M6111 1944 c0 -11 3 -14 6 -6 3 7 2 16 -1 19 -3 4 -6 -2 -5 -13z"/>
<path d="M10766 1915 c41 -75 92 -153 104 -160 6 -4 -12 31 -41 78 -61 100
-104 155 -63 82z"/>
<path d="M6124 1630 c2 -62 9 -110 21 -138 22 -53 27 -50 13 8 -6 25 -16 86
-24 135 l-13 90 3 -95z"/>
<path d="M11007 1268 c-9 -110 -8 -248 2 -273 5 -11 9 63 9 168 1 103 0 187
-2 187 -2 0 -6 -37 -9 -82z"/>
<path d="M5493 1143 c-16 -26 -17 -97 -3 -124 17 -31 48 -23 67 16 13 28 14
38 5 47 -10 10 -14 8 -18 -10 -13 -47 -30 -19 -36 58 -3 33 -4 34 -15 13z"/>
<path d="M9605 2320 c17 -74 50 -163 81 -216 19 -32 46 -83 61 -113 25 -52 25
-56 13 -123 -6 -38 -10 -71 -7 -74 2 -2 12 21 22 52 25 81 17 129 -38 214 -25
40 -60 106 -77 148 -17 43 -37 91 -45 107 -13 26 -14 27 -10 5z"/>
<path d="M9470 1840 c22 -72 56 -144 76 -161 8 -6 -1 20 -20 59 -18 39 -40 92
-47 117 -7 25 -16 45 -20 45 -4 0 1 -27 11 -60z"/>
</g>
</svg>
