<?xml version="1.0" standalone="no"?>
<!DOCTYPE svg PUBLIC "-//W3C//DTD SVG 20010904//EN"
 "http://www.w3.org/TR/2001/REC-SVG-20010904/DTD/svg10.dtd">
<svg version="1.0" xmlns="http://www.w3.org/2000/svg"
 width="1024.000000pt" height="559.000000pt" viewBox="0 0 1024.000000 559.000000"
 preserveAspectRatio="xMidYMid meet">
<metadata>
Created by potrace 1.16, written by Peter Selinger 2001-2019
</metadata>
<g transform="translate(0.000000,559.000000) scale(0.100000,-0.100000)"
fill="#000000" stroke="none">
<path d="M2769 4597 c-59 -22 -102 -53 -163 -117 -92 -97 -144 -233 -161 -421
l-7 -77 -91 -52 c-228 -130 -397 -274 -626 -532 -94 -106 -211 -231 -261 -277
-167 -153 -170 -210 -18 -359 86 -85 178 -136 284 -156 39 -7 84 -23 100 -35
56 -41 126 -52 374 -61 263 -9 290 -14 405 -82 88 -51 270 -231 315 -311 34
-61 45 -68 55 -37 6 18 12 14 70 -33 l63 -52 1 -90 c2 -217 -58 -295 -225
-295 -47 0 -69 -6 -109 -29 -98 -57 -133 -122 -77 -146 12 -5 22 -18 22 -27 0
-10 10 -22 21 -29 21 -11 87 -8 119 5 11 5 19 -3 27 -24 17 -46 74 -42 169 10
40 22 85 40 99 40 65 0 113 48 145 146 17 50 39 84 92 147 39 45 74 83 79 85
4 2 35 -7 69 -19 l60 -22 0 -57 c0 -211 -102 -349 -260 -350 -19 0 -53 -9 -75
-19 -53 -25 -145 -108 -145 -130 0 -22 31 -51 53 -51 11 0 17 -8 17 -25 0 -18
7 -28 26 -35 38 -15 63 -12 127 14 l57 24 0 -23 c0 -26 24 -55 45 -55 24 0 69
20 120 55 28 19 70 39 95 45 72 19 104 51 160 159 41 79 59 104 98 132 26 18
98 76 161 128 l114 93 316 -41 c442 -57 487 -61 694 -61 194 0 368 18 479 49
36 10 72 15 80 11 7 -4 37 -13 66 -20 28 -6 52 -16 52 -20 0 -10 -92 -45 -167
-65 -69 -18 -183 -34 -313 -44 -98 -7 -109 -10 -165 -45 -116 -74 -148 -122
-106 -160 12 -11 16 -25 13 -41 -3 -20 1 -27 23 -35 14 -5 39 -10 54 -10 20 0
30 -6 34 -19 3 -14 17 -21 54 -26 56 -7 104 8 159 50 18 14 44 29 58 35 25 9
26 9 26 -34 0 -93 67 -98 160 -11 30 29 65 58 78 64 13 7 105 39 204 72 335
111 408 170 348 282 -11 20 -20 43 -20 50 0 7 26 21 58 31 80 26 211 87 277
131 31 21 110 89 175 151 l119 114 55 0 c30 0 114 -9 188 -20 167 -24 358 -37
653 -45 408 -10 607 -31 795 -81 213 -58 371 -169 405 -287 22 -77 8 -125 -60
-192 -79 -79 -220 -138 -420 -177 -100 -19 -161 -22 -670 -29 -633 -8 -694
-13 -945 -76 -239 -59 -492 -194 -513 -274 -6 -23 23 -59 49 -59 8 0 52 15 97
34 371 152 648 189 1227 160 392 -19 704 -14 855 15 127 24 302 82 380 126
185 104 285 252 285 419 -1 249 -203 455 -560 570 -198 64 -401 99 -695 121
-643 47 -711 55 -863 96 -130 35 -173 66 -201 149 -7 19 -27 108 -46 198 -109
517 -263 825 -551 1102 -159 152 -316 258 -524 354 -424 195 -878 225 -1337
88 -97 -29 -138 -44 -383 -137 -118 -44 -228 -74 -277 -75 -19 0 -23 7 -28 48
-22 170 -83 264 -214 326 -84 39 -209 48 -293 21 -119 -39 -226 -131 -288
-249 -32 -60 -38 -66 -67 -66 -43 0 -46 14 -47 205 -1 139 -4 165 -21 199 -36
70 -98 98 -166 73z m86 -53 c36 -14 45 -57 45 -211 0 -82 4 -162 9 -179 l9
-32 -77 -12 c-42 -7 -136 -32 -210 -57 -73 -24 -135 -42 -137 -40 -2 1 3 45
11 97 25 169 69 266 158 353 75 73 140 101 192 81z m766 -176 c75 -34 120 -76
154 -145 27 -53 30 -67 30 -168 0 -89 -4 -124 -23 -180 -47 -142 -160 -283
-270 -339 -28 -14 -58 -26 -65 -26 -8 0 -26 -11 -41 -25 -42 -39 -30 -88 13
-52 9 7 45 25 81 40 168 70 304 242 346 438 l17 79 36 0 c65 0 164 27 316 85
452 173 576 200 900 200 247 0 339 -14 550 -82 380 -122 738 -384 937 -687
135 -205 229 -441 293 -736 59 -274 65 -292 106 -367 21 -40 39 -75 39 -78 0
-3 -13 -5 -30 -5 -34 0 -40 -22 -14 -51 16 -17 15 -19 -10 -28 -30 -12 -32
-18 -9 -43 15 -17 14 -19 -15 -29 -33 -11 -40 -23 -22 -34 16 -10 11 -23 -12
-31 -12 -3 -74 -57 -137 -119 -64 -62 -143 -129 -176 -150 -67 -43 -218 -115
-241 -115 -10 0 7 26 45 73 58 70 72 97 52 97 -17 0 -149 -148 -177 -199 -27
-49 -31 -52 -61 -47 -19 3 -33 0 -33 -6 0 -6 -15 -7 -41 -3 -36 6 -41 5 -46
-14 -6 -25 -15 -26 -53 -6 -18 9 -31 11 -35 5 -15 -25 -222 22 -326 75 -136
68 -225 142 -310 257 -28 37 -55 68 -60 68 -38 0 44 -136 135 -223 33 -32 91
-77 128 -100 37 -23 68 -45 68 -48 0 -3 -51 -14 -112 -25 -92 -15 -158 -19
-358 -18 -216 1 -273 5 -480 33 -129 17 -280 36 -335 42 -55 6 -106 13 -114
15 -8 3 12 31 57 78 78 82 132 171 157 260 34 119 14 342 -27 301 -2 -3 -1
-33 3 -67 16 -135 -18 -262 -99 -370 -81 -107 -156 -176 -401 -372 l-133 -107
-24 22 c-21 19 -27 21 -50 10 -15 -6 -27 -10 -28 -9 -1 2 -7 16 -14 31 -10 23
-15 26 -31 17 -11 -5 -23 -10 -27 -10 -3 0 -3 44 2 98 18 212 -12 366 -89 450
-43 46 -48 22 -12 -52 29 -61 56 -160 44 -164 -5 -2 -48 13 -96 34 -179 77
-321 161 -439 261 -69 59 -84 64 -84 31 0 -17 -10 -6 -32 35 -43 79 -133 175
-240 255 l-90 67 58 2 c85 4 126 12 121 26 -2 7 -43 12 -118 14 -63 1 -172 9
-244 18 -71 8 -196 15 -277 15 -81 0 -171 5 -200 12 l-53 11 35 10 c165 43
207 64 183 88 -7 7 -31 3 -74 -11 -90 -31 -255 -39 -334 -15 -68 19 -137 53
-180 88 l-29 24 36 35 c38 36 60 100 40 120 -12 12 -32 2 -32 -17 0 -51 -59
-97 -98 -76 -30 16 -52 57 -52 97 0 34 12 49 158 198 86 89 204 214 261 279
170 193 298 303 496 428 171 108 381 190 555 218 69 12 150 14 150 6 0 -23
-57 -138 -90 -181 -22 -29 -40 -58 -40 -63 0 -38 61 2 109 73 15 22 42 77 60
121 90 221 198 337 348 375 63 15 164 6 224 -22z m3539 -2049 c115 -41 316
-66 735 -94 468 -31 721 -75 940 -162 325 -129 489 -347 431 -573 -82 -318
-569 -482 -1281 -431 -408 30 -712 25 -941 -14 -167 -29 -409 -101 -505 -151
-47 -24 -46 -9 3 26 103 76 298 156 475 195 222 49 331 56 878 60 539 3 593 6
792 55 178 43 348 147 401 244 25 46 22 159 -6 212 -45 87 -153 175 -281 229
-188 79 -373 110 -751 125 -545 21 -691 31 -870 56 -102 14 -189 30 -194 35
-5 5 2 13 18 19 23 8 27 15 22 33 -4 15 1 27 16 38 21 16 21 18 5 43 -17 25
-17 26 2 26 30 0 46 26 30 47 -12 15 -12 16 6 9 11 -4 45 -17 75 -27z m-3912
-413 c42 -24 99 -54 125 -66 l48 -23 -28 -31 c-15 -17 -48 -53 -74 -81 -32
-35 -50 -65 -59 -100 -28 -107 -61 -145 -126 -145 -14 0 -43 -10 -66 -22 -22
-13 -55 -31 -72 -40 -72 -40 -76 -6 -6 54 69 59 65 95 -5 48 -16 -11 -37 -24
-45 -29 -20 -12 -107 -41 -145 -48 l-30 -5 35 36 c24 26 53 42 92 54 32 9 58
23 58 30 0 29 -105 4 -167 -41 -24 -17 -46 -28 -49 -24 -10 10 5 26 54 54 36
22 65 29 127 34 174 14 232 82 242 287 3 56 7 102 10 102 2 0 38 -20 81 -44z
m3041 -342 c16 -34 18 -51 11 -65 -16 -29 -158 -93 -345 -154 -185 -61 -242
-89 -275 -135 -12 -17 -35 -37 -51 -45 -28 -15 -29 -14 -29 5 0 33 24 82 59
119 17 18 31 37 31 42 0 19 -38 8 -64 -20 -16 -16 -44 -32 -64 -36 -41 -8
-102 -37 -147 -70 -35 -26 -71 -35 -105 -26 l-24 7 43 47 c31 34 60 53 103 69
53 19 79 40 66 53 -6 6 -98 -19 -128 -35 -14 -7 -43 -30 -66 -52 -27 -26 -53
-41 -79 -45 l-38 -6 19 33 c24 41 85 87 127 95 80 16 107 27 107 40 0 18 -1
18 -75 4 -70 -13 -121 -37 -154 -73 -14 -14 -31 -26 -38 -26 -24 0 -3 20 75
71 74 48 78 49 151 49 137 0 395 51 486 97 17 8 44 28 61 45 28 26 33 28 58
17 20 -9 32 -10 44 -2 10 5 26 7 37 2 35 -13 57 -10 62 10 5 19 24 25 95 29
23 2 30 -5 47 -44z m-2635 -120 c14 3 26 2 26 -3 0 -5 7 -16 15 -25 12 -12 22
-13 42 -5 22 8 30 6 46 -9 18 -19 18 -20 -16 -88 -42 -84 -61 -101 -131 -124
-30 -10 -78 -34 -106 -54 -67 -46 -87 -48 -65 -6 8 16 29 45 45 63 27 31 30
47 9 47 -4 0 -20 -11 -36 -24 -24 -21 -139 -70 -210 -91 -76 -22 14 76 94 102
74 25 85 49 19 40 -50 -7 -115 -36 -135 -61 -14 -16 -77 -23 -67 -7 3 4 29 24
58 44 42 29 68 39 128 47 93 13 148 44 203 115 24 32 44 49 48 43 4 -6 18 -8
33 -4z"/>
<path d="M3340 4309 c-146 -80 -204 -192 -221 -424 -5 -71 -16 -153 -24 -182
-19 -64 -19 -73 -1 -73 17 0 56 97 56 139 0 37 20 52 74 58 38 5 48 2 70 -20
20 -21 26 -36 26 -72 0 -53 -10 -75 -57 -128 -33 -37 -34 -41 -28 -90 13 -93
52 -103 42 -12 -5 47 -3 56 20 77 88 82 86 233 -3 275 -28 14 -43 15 -84 7
l-50 -11 0 51 c0 64 24 164 51 218 33 65 103 132 174 167 35 18 67 36 70 41
13 22 -64 8 -115 -21z"/>
<path d="M2355 3430 c-30 -12 -60 -50 -78 -98 -26 -66 -23 -74 44 -106 106
-50 172 -23 205 81 17 53 17 54 -6 78 -44 47 -114 66 -165 45z m83 -78 c4 -28
-24 -40 -45 -19 -21 21 -9 49 19 45 15 -2 24 -11 26 -26z"/>
<path d="M5628 3216 c-194 -69 -351 -263 -413 -510 -36 -144 -34 -401 4 -439
19 -19 20 -3 10 101 -28 274 64 545 239 703 77 70 141 105 231 127 38 9 71 22
73 27 6 20 -78 15 -144 -9z"/>
<path d="M3391 3018 c-55 -162 -178 -303 -333 -382 -33 -17 -58 -35 -56 -41
10 -30 148 39 232 116 35 32 82 87 105 123 61 93 112 246 82 246 -5 0 -19 -28
-30 -62z"/>
</g>
</svg>
