<?xml version="1.0" standalone="no"?>
<!DOCTYPE svg PUBLIC "-//W3C//DTD SVG 20010904//EN"
 "http://www.w3.org/TR/2001/REC-SVG-20010904/DTD/svg10.dtd">
<svg version="1.0" xmlns="http://www.w3.org/2000/svg"
 width="1408.000000pt" height="768.000000pt" viewBox="0 0 1408.000000 768.000000"
 preserveAspectRatio="xMidYMid meet">
<metadata>
Created by potrace 1.16, written by Peter Selinger 2001-2019
</metadata>
<g transform="translate(0.000000,768.000000) scale(0.100000,-0.100000)"
fill="#000000" stroke="none">
<path d="M4765 6725 c-16 -9 -37 -23 -47 -31 -14 -14 -20 -14 -47 0 -62 32
-148 11 -186 -47 -13 -21 -21 -23 -68 -19 -37 3 -63 -1 -84 -11 -29 -15 -63
-69 -63 -99 0 -8 -18 -19 -43 -25 -55 -15 -87 -50 -94 -103 l-6 -41 -66 8
c-128 16 -245 -1 -318 -47 -64 -39 -36 -112 80 -208 54 -44 149 -95 204 -109
l31 -8 -56 -76 c-31 -42 -106 -147 -167 -235 l-110 -159 -2 -96 c-1 -53 -3
-100 -4 -105 -1 -5 -1 -27 0 -48 1 -32 8 -46 40 -76 21 -20 42 -46 45 -58 13
-40 50 -75 110 -103 89 -42 172 -41 269 4 40 19 87 37 106 40 29 6 32 5 25
-11 -4 -9 -10 -43 -12 -75 -4 -56 -3 -59 36 -97 32 -32 40 -49 45 -87 4 -36
12 -54 36 -75 l31 -27 -25 -47 c-42 -79 -31 -152 30 -210 31 -29 34 -36 25
-59 -13 -33 -13 -106 0 -139 5 -14 26 -44 47 -67 37 -41 37 -43 34 -110 -4
-94 22 -147 95 -196 l54 -36 0 -81 c0 -85 14 -121 57 -151 17 -12 20 -22 16
-59 -3 -24 0 -60 6 -79 13 -40 68 -93 105 -103 19 -4 25 -16 34 -67 21 -111
88 -186 183 -202 25 -4 40 -14 47 -29 43 -95 171 -163 259 -137 30 9 32 8 38
-22 11 -52 51 -112 89 -132 25 -14 36 -28 40 -51 9 -47 43 -84 101 -110 l52
-22 6 -63 c4 -34 7 -94 7 -134 0 -49 9 -105 30 -180 17 -60 36 -145 42 -189
16 -120 4 -348 -25 -486 -25 -121 -42 -162 -87 -220 -15 -19 -51 -77 -79 -129
-59 -106 -66 -153 -21 -159 13 -2 30 -13 38 -23 25 -36 263 -22 334 19 41 24
58 69 58 157 0 91 16 129 65 149 45 19 51 46 36 171 -16 125 -26 489 -16 580
l7 68 33 -101 c44 -135 59 -246 58 -427 -2 -234 -17 -299 -112 -490 -44 -88
-86 -179 -92 -202 -11 -38 -10 -45 6 -63 10 -11 29 -20 42 -20 14 0 33 -10 43
-22 16 -20 27 -23 87 -22 72 2 209 40 252 70 36 26 51 74 51 168 0 105 10 136
45 136 33 0 65 33 65 68 0 15 -7 56 -15 92 -46 207 -58 314 -59 530 -1 165 3
232 15 290 9 41 22 117 29 168 13 90 14 93 44 106 35 14 86 69 86 91 0 8 14
25 31 37 51 38 71 81 71 152 0 55 3 67 23 86 l24 23 63 -25 c86 -34 130 -41
177 -27 38 11 43 10 91 -21 43 -28 64 -34 125 -38 63 -4 80 -1 130 22 l57 26
32 -23 c44 -31 129 -31 174 2 l33 23 59 -26 c70 -32 160 -48 210 -40 42 8 101
37 119 58 11 13 26 15 80 10 83 -8 136 6 187 49 35 30 46 34 100 35 60 1 61 0
73 -33 14 -41 72 -94 110 -101 22 -5 32 -17 48 -54 26 -62 87 -107 154 -116
46 -6 50 -9 79 -61 44 -77 64 -163 57 -245 -8 -99 -72 -345 -127 -493 -27 -71
-56 -160 -66 -197 -17 -72 -46 -123 -131 -235 -60 -78 -113 -172 -113 -200 0
-24 19 -43 42 -43 10 0 18 -5 18 -11 0 -36 155 -50 269 -24 104 25 130 53 146
160 4 22 13 60 22 84 15 42 16 43 52 37 65 -10 81 19 91 164 9 118 64 319 190
695 38 115 70 221 70 235 l1 25 20 -25 c35 -41 98 -176 115 -243 10 -41 17
-129 21 -262 5 -196 1 -263 -31 -475 -9 -58 -18 -124 -21 -146 -3 -24 -23 -70
-46 -105 -56 -91 -105 -188 -118 -234 -14 -50 5 -85 47 -85 15 0 35 -9 45 -20
44 -52 322 5 359 73 6 12 15 65 18 117 9 119 24 151 83 174 64 24 74 52 53
154 -20 97 -20 187 -2 362 8 74 20 200 26 280 6 80 20 208 31 285 31 225 31
226 -58 373 l-56 93 16 47 c21 58 22 112 2 158 -14 35 -14 35 24 73 40 40 61
101 61 178 0 23 9 45 25 65 38 45 50 102 36 172 -10 48 -10 61 2 75 54 61 69
189 34 286 l-19 50 31 58 c17 32 33 79 37 106 6 46 7 47 36 43 69 -10 130 108
112 217 -7 45 -6 66 4 92 22 54 11 145 -28 220 -27 53 -32 74 -31 122 3 96
-34 177 -107 232 -29 22 -42 41 -55 85 -13 45 -26 65 -67 101 -28 24 -74 67
-103 96 -35 33 -67 55 -94 62 -35 10 -46 19 -72 65 -37 66 -85 98 -157 104
-50 4 -54 7 -81 49 -52 82 -154 129 -264 120 -57 -5 -70 -3 -84 13 -27 30
-116 63 -170 63 -27 1 -73 -5 -101 -13 -49 -12 -54 -12 -88 10 -48 29 -121 31
-204 6 -55 -17 -67 -18 -85 -6 -104 66 -229 64 -327 -3 -32 -23 -37 -23 -69
-10 -19 8 -51 13 -70 11 -20 -3 -50 1 -68 9 -72 29 -196 4 -272 -56 l-38 -30
-39 19 c-77 40 -191 21 -278 -45 l-35 -26 -30 22 c-45 33 -127 38 -183 9 l-45
-22 -39 21 c-47 26 -118 27 -174 5 l-41 -17 -32 31 c-39 38 -111 71 -154 72
-18 0 -52 -5 -76 -12 -40 -10 -46 -9 -75 12 -44 33 -125 38 -184 13 -43 -20
-45 -20 -67 -2 -41 34 -103 35 -176 3 -6 -2 -17 11 -23 31 -7 19 -26 44 -43
55 -22 16 -29 29 -29 55 0 40 -36 87 -80 105 -25 10 -29 16 -23 34 5 11 7 41
7 65 -2 65 -49 118 -130 146 -36 12 -40 17 -45 58 -14 91 -56 137 -150 160
-46 12 -57 19 -71 49 -23 48 -44 62 -96 64 -38 2 -48 6 -59 28 -17 32 -62 56
-105 56 -24 0 -42 10 -71 38 l-38 37 -89 0 c-80 0 -91 2 -115 25 -33 31 -134
40 -180 15z m166 -71 c31 -26 48 -34 63 -29 12 4 45 9 74 12 53 6 53 5 96 -41
37 -40 47 -46 69 -40 46 11 75 -3 98 -47 20 -40 22 -41 62 -36 53 7 73 -4 81
-47 8 -43 20 -52 79 -59 93 -13 137 -59 137 -145 0 -46 7 -54 77 -76 71 -24
96 -56 89 -116 -13 -111 -15 -103 33 -121 55 -20 71 -41 71 -95 0 -38 3 -43
35 -58 23 -11 37 -26 41 -44 3 -15 7 -37 10 -48 6 -33 27 -35 80 -8 26 13 56
24 66 24 24 0 78 -27 78 -39 0 -20 29 -18 76 5 65 32 100 30 169 -7 57 -30 59
-31 92 -15 67 32 132 15 206 -53 24 -23 50 -41 56 -41 6 0 29 9 51 20 55 28
118 26 160 -5 19 -14 40 -25 46 -25 7 0 30 11 50 25 47 32 97 32 149 0 52 -32
64 -31 115 6 87 63 159 75 239 39 55 -26 60 -25 102 6 93 71 198 93 268 55 27
-14 40 -16 62 -8 21 9 36 7 68 -7 l40 -18 48 29 c106 65 173 70 269 19 l64
-35 73 26 c83 29 129 27 177 -7 38 -27 58 -28 135 -6 76 21 136 9 197 -40 43
-34 44 -34 119 -28 64 5 82 3 127 -16 53 -23 93 -61 124 -119 15 -28 22 -31
62 -31 83 0 135 -33 167 -108 10 -23 24 -44 31 -46 89 -25 102 -32 125 -67 13
-20 38 -43 54 -49 56 -24 119 -116 119 -176 0 -6 24 -32 54 -58 73 -62 101
-119 93 -194 -6 -52 -3 -63 29 -126 45 -86 55 -163 29 -212 -14 -27 -15 -38
-6 -65 21 -61 8 -143 -29 -187 -18 -22 -21 -22 -41 -8 -12 8 -32 41 -45 73
-19 47 -22 64 -14 93 29 103 0 285 -63 404 -31 58 -115 161 -124 152 -3 -3 20
-52 51 -110 87 -162 115 -311 84 -444 -10 -46 -9 -55 12 -99 17 -36 24 -66 24
-118 0 -71 -10 -102 -55 -172 -19 -29 -19 -34 -5 -68 45 -108 39 -220 -15
-275 -33 -33 -34 -39 -13 -100 20 -58 12 -101 -29 -147 -29 -33 -33 -44 -38
-121 l-5 -84 -47 -45 c-26 -25 -47 -47 -47 -51 0 -3 10 -25 21 -50 39 -80 4
-189 -69 -213 -38 -13 -47 -27 -57 -93 -5 -37 -15 -58 -39 -82 -30 -30 -36
-32 -104 -32 -64 1 -78 4 -112 29 -45 33 -50 34 -50 15 0 -22 56 -73 87 -79
15 -3 38 -1 52 4 16 6 28 6 35 -1 15 -15 72 -12 105 4 41 22 64 63 70 129 6
57 7 59 43 72 l38 12 44 -76 c88 -151 84 -120 53 -384 -62 -527 -77 -769 -54
-892 16 -90 11 -110 -32 -120 -60 -13 -101 -93 -101 -196 l0 -59 -55 36 c-69
44 -129 69 -182 79 l-41 6 23 35 c32 47 52 114 59 199 4 39 14 108 24 155 13
68 17 138 16 350 0 238 -2 273 -21 341 -26 93 -66 174 -126 255 -42 57 -48 62
-92 66 -52 6 -88 34 -114 88 -15 33 -19 35 -77 40 -43 3 -69 11 -84 25 -35 32
-68 96 -81 155 -14 68 -22 78 -68 86 -46 8 -79 38 -91 83 -14 50 -17 53 -82
84 -51 25 -60 35 -87 89 -17 34 -31 67 -31 75 0 16 -23 17 -67 1 -39 -14 -53
-3 -53 43 0 14 -6 34 -14 44 -14 19 -16 18 -53 -24 -30 -34 -47 -45 -74 -47
-21 -1 -38 -9 -44 -20 -5 -10 -25 -34 -42 -52 -30 -31 -36 -33 -75 -27 -39 7
-41 6 -29 -9 15 -18 69 -21 104 -5 13 6 34 27 48 47 18 28 32 38 54 39 21 1
40 14 63 39 32 37 32 37 32 11 0 -37 20 -76 42 -83 10 -3 32 -3 48 1 22 5 30
3 30 -8 0 -8 14 -41 30 -73 l30 -59 -57 -54 c-78 -72 -140 -101 -222 -101 -57
0 -67 -3 -99 -31 -64 -57 -124 -71 -206 -48 -35 10 -41 8 -75 -19 -62 -49 -79
-55 -155 -50 -47 4 -91 14 -130 32 -72 32 -88 32 -134 1 -46 -31 -76 -31 -127
0 -50 30 -68 31 -114 3 -28 -18 -51 -23 -107 -23 -64 0 -76 3 -134 39 -58 36
-65 38 -95 27 -46 -16 -97 -14 -159 9 l-54 21 1 62 c0 55 4 66 33 101 38 45
49 87 39 152 -5 35 -2 54 16 90 35 73 14 178 -52 263 -12 15 -19 40 -19 70 0
44 -44 161 -56 149 -3 -3 5 -34 16 -68 15 -43 19 -75 15 -100 -5 -30 0 -50 25
-100 18 -37 34 -86 37 -117 5 -46 2 -59 -17 -85 -24 -32 -27 -58 -15 -115 10
-47 -1 -78 -41 -119 -34 -33 -36 -39 -31 -82 6 -56 -9 -96 -52 -136 -29 -28
-31 -34 -31 -99 l0 -69 -50 -49 c-27 -27 -50 -55 -50 -64 0 -9 -11 -27 -25
-40 -34 -35 -89 -34 -127 2 -26 25 -31 26 -61 15 -55 -20 -73 -15 -111 30 -20
23 -36 45 -36 50 0 22 -45 4 -79 -32 -21 -22 -47 -40 -59 -40 -25 0 -62 45
-62 75 0 16 -11 30 -35 44 -32 18 -35 24 -35 66 0 40 -4 48 -30 63 -16 9 -35
28 -42 41 -14 26 -17 92 -5 134 7 25 4 29 -30 43 -49 21 -47 17 -53 77 -4 39
-9 51 -20 48 -85 -21 -130 -9 -130 34 0 43 -10 55 -47 55 -19 0 -42 4 -52 10
-18 9 -44 58 -40 76 1 5 1 18 0 29 -2 36 -21 -6 -21 -47 0 -52 33 -88 88 -95
38 -5 42 -8 42 -32 0 -15 10 -38 21 -50 19 -20 29 -23 73 -19 l51 4 1 -40 c1
-31 8 -46 33 -68 28 -25 30 -31 25 -72 -5 -33 -12 -47 -26 -52 -35 -11 -84 5
-125 41 -38 32 -44 34 -91 28 -66 -7 -94 0 -138 39 -35 31 -36 31 -94 20 -98
-18 -160 12 -211 103 -28 50 -32 53 -79 59 -36 5 -60 16 -85 38 -47 40 -55 58
-69 142 -12 71 -12 71 -54 86 -74 28 -87 49 -87 140 l0 78 -35 24 -35 24 0 94
0 94 -35 23 c-110 69 -125 97 -116 204 l7 77 -36 28 c-66 50 -80 107 -48 198
17 47 17 49 -1 60 -97 57 -108 118 -38 220 l26 38 -29 24 c-63 50 -65 53 -65
98 0 39 -4 48 -35 71 -43 33 -49 51 -40 126 l7 59 59 0 c59 0 59 0 59 -30 0
-30 30 -70 52 -70 6 0 24 -15 39 -32 15 -18 31 -29 35 -25 13 13 -21 61 -56
78 -35 17 -50 35 -50 62 0 13 8 17 36 17 72 0 125 21 146 56 15 26 27 34 49
34 38 0 48 25 41 106 l-4 61 32 6 31 7 -6 52 c-7 64 2 79 51 87 l39 7 0 67 c0
66 0 67 35 84 31 16 36 23 40 67 4 42 9 52 35 66 18 10 36 32 44 54 13 35 13
41 -7 82 -16 32 -22 63 -22 110 0 41 -6 77 -16 97 -22 42 -79 109 -107 124
-27 15 -120 18 -97 3 8 -5 28 -10 44 -10 22 0 41 -13 79 -52 60 -63 67 -81 67
-164 0 -44 7 -80 20 -109 27 -58 19 -91 -26 -110 -39 -16 -56 -51 -48 -94 5
-25 2 -30 -25 -39 -42 -15 -57 -49 -44 -101 12 -45 9 -51 -24 -51 -13 0 -35
-11 -49 -25 -22 -22 -25 -33 -22 -76 2 -40 0 -50 -15 -55 -27 -9 -39 -41 -35
-102 3 -57 3 -57 -27 -60 -18 -2 -42 -17 -61 -38 l-32 -34 -113 0 c-168 -1
-250 -14 -336 -55 -92 -44 -162 -47 -239 -11 -44 20 -111 86 -87 86 4 0 37 -5
71 -10 77 -13 146 -2 225 35 59 28 136 89 126 99 -3 4 -48 -15 -98 -41 -92
-48 -93 -48 -190 -48 -116 0 -125 5 -147 84 -9 31 -27 77 -40 103 -43 85 -38
98 102 293 124 173 224 316 249 359 28 49 28 69 -1 45 -16 -13 -17 -10 -12 33
3 27 11 55 18 63 11 13 15 13 33 0 28 -19 56 -19 78 1 15 14 19 13 42 -10 30
-30 63 -33 96 -10 14 10 26 13 30 7 12 -20 53 -35 78 -29 13 4 44 25 68 47 24
22 49 38 54 35 16 -10 81 21 81 39 0 14 -3 14 -30 0 -18 -9 -40 -13 -52 -10
-15 5 -30 -2 -57 -28 -34 -32 -71 -57 -86 -57 -4 0 -20 14 -36 31 l-29 32 -25
-27 c-13 -14 -31 -26 -39 -26 -18 0 -46 27 -46 45 0 27 -21 27 -46 0 -34 -37
-62 -30 -92 25 -24 42 -24 45 -8 73 9 16 16 43 16 61 0 41 25 65 82 77 46 11
58 22 58 55 0 12 10 34 22 49 19 24 26 27 67 22 25 -3 56 -9 68 -12 18 -6 25
0 42 34 33 64 75 75 157 41 29 -13 35 -11 80 18 67 45 118 44 175 -4z m-840
-350 c14 -4 33 -62 24 -72 -2 -2 -22 9 -45 24 -63 42 -196 47 -246 9 -17 -12
-9 -13 69 -8 84 6 89 5 152 -27 55 -28 63 -35 55 -51 -6 -10 -10 -45 -10 -78
l0 -61 -32 0 c-61 1 -165 60 -252 144 -25 25 -46 54 -46 65 0 48 223 85 331
55z m-307 -970 c10 -4 16 -18 16 -39 0 -19 4 -45 10 -59 5 -14 6 -26 2 -26
-27 1 -52 50 -52 101 0 31 1 32 24 23z m5070 -2324 c18 -6 26 -17 26 -33 0
-13 13 -43 30 -65 23 -32 40 -44 75 -53 36 -9 46 -17 51 -38 19 -88 49 -145
102 -195 23 -21 44 -30 86 -35 52 -6 56 -8 88 -56 27 -41 42 -53 81 -65 57
-18 58 -7 -15 -225 -153 -460 -208 -663 -208 -763 0 -102 -6 -115 -46 -107
-26 4 -38 1 -55 -16 -27 -27 -55 -91 -64 -147 -8 -51 -5 -51 -109 17 -43 28
-93 53 -112 57 -19 3 -34 9 -34 12 0 3 17 28 39 56 50 66 56 79 76 156 9 36
39 126 67 200 62 166 126 414 134 524 8 104 -6 168 -58 264 -42 76 -76 109
-104 98 -9 -4 -36 3 -60 14 -35 17 -48 32 -71 78 -30 64 -38 72 -72 72 -26 0
-101 69 -101 93 0 9 9 19 21 22 11 4 57 38 102 76 45 38 87 69 94 69 6 0 23
-4 37 -10z m-3316 -126 c30 -15 122 -22 140 -10 5 3 19 -6 32 -19 34 -36 101
-59 154 -52 39 6 44 4 57 -19 7 -14 21 -30 30 -35 10 -5 20 -23 24 -41 11 -57
26 -85 50 -96 13 -6 26 -23 30 -40 3 -16 17 -40 31 -52 22 -21 24 -31 24 -104
0 -45 -9 -144 -20 -221 -25 -174 -26 -409 -4 -628 9 -86 13 -164 10 -172 -3
-8 -14 -15 -24 -15 -44 0 -81 -80 -82 -177 0 -35 -2 -63 -5 -63 -3 0 -41 20
-85 45 -43 25 -98 49 -122 54 -25 4 -42 12 -40 20 1 6 18 35 37 64 107 161
138 617 60 877 -19 62 -28 123 -35 225 -4 77 -11 154 -15 171 -10 44 19 54 55
19 48 -46 123 -54 136 -13 8 26 2 30 -27 20 -30 -12 -56 -2 -91 33 -19 19 -33
25 -47 20 -12 -3 -21 -9 -21 -13 0 -4 -4 -13 -8 -20 -7 -10 -21 -7 -65 14 -58
26 -87 61 -87 102 0 22 -15 37 -61 61 -17 9 -40 31 -51 49 -23 37 -22 37 20
16z m808 -410 c22 -12 45 -15 79 -11 39 4 55 1 79 -16 17 -12 33 -23 35 -24 5
-3 -16 -143 -40 -268 -34 -179 -22 -491 28 -735 40 -196 40 -180 6 -180 -56 0
-88 -68 -87 -182 1 -43 -1 -78 -3 -78 -3 0 -17 8 -31 19 -48 33 -146 78 -187
85 -81 14 -79 9 -34 91 61 111 81 224 82 450 1 198 -9 282 -53 420 -48 154
-52 179 -44 313 6 113 9 124 28 132 12 4 32 19 46 32 l25 23 20 -27 c11 -15
34 -35 51 -44z m2356 -1273 c-20 -32 -42 -67 -49 -77 -12 -19 -12 -19 -12 0
-1 26 67 136 85 136 9 0 1 -19 -24 -59z m177 -13 c40 -26 80 -48 87 -48 21 0
17 -18 -8 -34 -46 -29 -241 -47 -264 -23 -3 2 13 41 35 86 47 92 39 91 150 19z
m-3149 23 c0 -6 -5 -13 -10 -16 -6 -4 -22 -30 -37 -58 -24 -49 -42 -71 -51
-62 -8 8 71 145 84 145 8 0 14 -4 14 -9z m148 -53 c56 -29 101 -57 99 -63 -2
-5 -21 -19 -42 -29 -44 -22 -245 -37 -245 -18 0 15 71 162 79 162 3 0 52 -23
109 -52z m286 -94 c13 -5 12 -11 -9 -42 -13 -21 -31 -56 -40 -79 -17 -41 -45
-59 -45 -28 0 21 61 155 71 155 4 0 14 -3 23 -6z m3494 -21 c20 -8 68 -33 105
-55 79 -46 78 -55 -11 -89 -61 -22 -202 -38 -202 -22 0 5 11 45 24 89 34 113
5 116 -49 4 -16 -33 -35 -60 -43 -60 -18 0 -11 33 24 109 l24 53 45 -7 c25 -3
62 -13 83 -22z m-3353 -22 c33 -16 77 -40 99 -54 l38 -24 -27 -21 c-38 -30
-146 -62 -211 -62 -64 0 -65 3 -33 101 11 35 22 70 25 77 6 20 45 14 109 -17z"/>
<path d="M4812 6468 c-20 -20 -14 -28 12 -17 38 17 70 4 89 -36 14 -30 22 -36
45 -35 51 4 62 0 74 -25 14 -31 32 -33 23 -2 -10 33 -43 57 -81 57 -19 0 -34
5 -34 10 0 6 -11 22 -25 35 -26 27 -82 34 -103 13z"/>
<path d="M5226 6299 c-57 -14 -102 -45 -135 -93 -59 -86 -31 -118 31 -36 53
69 86 85 178 84 71 0 191 -28 230 -54 35 -22 -83 -185 -164 -227 -17 -9 -69
-19 -118 -22 -85 -6 -117 -18 -104 -40 9 -14 148 -14 196 -1 88 24 200 132
236 227 31 79 -5 117 -137 147 -92 21 -168 26 -213 15z"/>
<path d="M5230 6192 c-24 -13 -43 -35 -60 -70 -14 -28 -36 -62 -48 -75 -12
-13 -22 -29 -22 -35 0 -15 46 -16 55 -2 3 6 17 10 31 10 30 0 84 26 84 41 0 7
-12 9 -35 5 -30 -6 -35 -4 -35 11 0 56 64 93 172 100 122 9 95 33 -37 33 -49
0 -81 -6 -105 -18z"/>
<path d="M4628 5982 c-38 -37 -59 -65 -57 -76 3 -15 10 -12 47 15 26 19 47 28
50 22 13 -19 51 -33 91 -33 33 0 47 7 76 35 19 20 35 40 35 44 0 18 -87 51
-134 51 -45 0 -52 -4 -108 -58z"/>
<path d="M5525 5818 c33 -57 31 -72 -10 -104 -34 -26 -45 -57 -25 -69 6 -3 10
0 10 8 0 8 16 27 35 41 26 20 35 34 35 57 0 37 -24 85 -50 99 -17 9 -16 6 5
-32z"/>
<path d="M5931 5478 c-1 -39 3 -68 9 -68 12 0 12 74 0 110 -6 18 -8 7 -9 -42z"/>
<path d="M5294 5448 c4 -18 9 -56 12 -84 7 -54 7 -54 -67 -77 -13 -4 -15 -15
-11 -56 6 -64 -8 -83 -57 -79 -35 3 -36 3 -42 -43 -8 -55 -32 -104 -54 -113
-25 -9 -55 -7 -55 4 0 21 -18 8 -50 -36 -20 -28 -48 -53 -74 -64 -33 -15 -36
-19 -18 -19 33 -1 88 27 115 58 15 18 30 25 46 23 51 -8 102 46 116 121 6 32
11 37 34 37 42 0 71 37 71 92 0 41 3 47 30 58 38 16 50 37 50 87 0 37 -32 123
-46 123 -3 0 -3 -15 0 -32z"/>
<path d="M3991 5457 c-6 -8 -26 -17 -43 -21 -42 -8 -98 -52 -98 -77 0 -23 12
-24 43 -5 12 8 38 17 58 20 44 8 81 41 77 69 -4 26 -21 32 -37 14z"/>
<path d="M6490 5371 c0 -4 11 -13 24 -19 14 -6 32 -23 42 -37 16 -24 16 -38
-2 -107 -5 -21 0 -35 21 -60 29 -34 29 -52 9 -165 -10 -51 10 -39 24 15 26 94
26 114 -3 157 -24 35 -26 43 -16 70 17 47 14 70 -14 103 -24 29 -85 60 -85 43z"/>
<path d="M5860 5347 c0 -1 9 -20 20 -42 30 -59 27 -91 -12 -115 -57 -33 -59
-36 -43 -80 16 -46 16 -47 -61 -100 l-42 -29 -3 -85 c-4 -77 -7 -87 -32 -114
-17 -17 -48 -35 -72 -41 -56 -14 -100 -52 -131 -113 -32 -64 -26 -85 8 -27 37
62 76 95 128 109 95 25 130 76 130 188 l0 69 53 34 52 34 -1 56 c-1 52 1 58
27 73 56 33 63 94 18 155 -19 26 -39 40 -39 28z"/>
<path d="M8250 5280 c-10 -6 -1 -9 29 -8 55 1 90 -25 109 -81 11 -34 22 -46
51 -58 45 -19 51 -28 51 -79 0 -37 4 -44 41 -69 43 -30 62 -60 74 -112 10 -51
28 -40 22 13 -5 52 -29 90 -75 119 -25 16 -31 27 -32 55 0 45 -23 78 -66 96
-24 10 -39 26 -53 58 -27 63 -103 96 -151 66z"/>
<path d="M6014 4793 c-10 -39 -32 -82 -66 -124 -22 -28 -28 -42 -22 -63 12
-50 -5 -95 -61 -156 -77 -84 -91 -115 -27 -62 94 79 131 141 118 203 -4 23 1
39 24 70 16 22 33 55 39 72 18 60 21 87 11 87 -5 0 -13 -12 -16 -27z"/>
<path d="M5020 4633 c-55 -63 -76 -74 -126 -67 -36 5 -46 2 -76 -25 -49 -43
-81 -41 -131 9 -44 45 -60 46 -29 3 36 -51 62 -68 102 -68 29 0 47 8 67 27 23
22 36 26 78 25 63 -2 101 22 139 92 15 28 25 51 22 51 -2 0 -23 -21 -46 -47z"/>
<path d="M5407 4128 c-15 -22 -42 -47 -59 -56 -65 -36 -88 -63 -105 -124 -23
-81 -46 -97 -109 -73 -52 20 -69 12 -79 -36 -4 -19 -14 -31 -30 -35 -35 -9
-60 3 -100 47 -46 51 -55 46 -15 -9 36 -51 60 -64 108 -60 31 3 40 9 55 39
l17 37 41 -14 c74 -26 111 0 144 99 18 55 25 64 69 89 57 34 83 62 91 101 10
41 4 40 -28 -5z"/>
<path d="M8870 3961 l0 -93 -40 -37 c-37 -34 -40 -40 -40 -89 0 -51 -16 -93
-57 -151 -17 -23 -17 -24 2 -13 55 29 85 84 85 155 0 47 3 57 25 71 42 28 58
71 53 146 -3 37 -10 75 -16 86 -9 15 -11 -1 -12 -75z"/>
<path d="M9808 3894 c4 -87 -10 -117 -63 -140 l-33 -13 5 -60 c5 -56 4 -62
-24 -90 -16 -16 -50 -35 -74 -42 -43 -13 -44 -13 -13 -17 46 -5 100 22 124 60
18 27 20 43 15 91 -5 51 -4 57 13 57 26 0 58 33 72 76 10 29 10 49 1 90 -18
78 -26 73 -23 -12z"/>
<path d="M5686 3908 c-23 -59 -53 -87 -102 -95 -56 -8 -50 -3 -163 -172 -13
-20 -35 -48 -49 -63 -14 -15 -23 -31 -19 -34 11 -11 112 104 170 195 17 26 33
37 70 46 26 7 56 20 67 30 24 21 53 96 48 121 -3 13 -10 4 -22 -28z"/>
<path d="M7162 3631 c-9 -28 -20 -45 -34 -49 -16 -4 -19 -10 -14 -31 19 -82
19 -86 -8 -112 -29 -27 -33 -39 -13 -39 18 0 55 41 58 65 2 11 0 37 -5 58 -6
32 -4 41 14 55 17 14 21 26 18 57 l-3 40 -13 -44z"/>
<path d="M6235 3530 c-21 -22 -47 -40 -56 -40 -10 0 -28 -15 -40 -32 -28 -40
-40 -49 -57 -43 -51 19 -59 17 -80 -19 -30 -50 -60 -48 -121 9 -26 25 -51 45
-55 45 -4 0 7 -20 23 -44 54 -78 133 -96 169 -37 15 24 21 27 42 19 37 -14 69
-1 91 36 11 19 30 37 43 40 27 7 86 69 86 91 0 21 -1 20 -45 -25z"/>
<path d="M7972 3327 c-18 -37 -45 -75 -59 -87 -28 -22 -58 -26 -68 -10 -15 25
-58 9 -99 -37 -42 -46 -45 -47 -100 -47 -51 0 -55 -2 -39 -14 12 -9 35 -12 67
-9 43 4 55 10 89 46 36 40 41 42 69 32 17 -6 40 -11 51 -11 32 0 102 80 116
133 21 73 8 75 -27 4z"/>
<path d="M6360 2891 c0 -5 8 -16 18 -23 10 -7 29 -33 43 -58 18 -34 31 -46 52
-48 28 -3 57 12 57 30 0 5 -9 4 -21 -2 -29 -16 -45 -7 -68 37 -18 36 -81 86
-81 64z"/>
<path d="M9360 2821 c0 -11 51 -37 108 -56 60 -19 100 -10 127 29 24 34 17 39
-18 12 -42 -33 -84 -33 -159 -2 -32 13 -58 21 -58 17z"/>
<path d="M9895 2579 c-7 -19 8 -61 36 -101 18 -25 20 -38 15 -89 -9 -73 7 -79
22 -8 10 53 1 112 -19 125 -6 3 -19 25 -29 48 -14 29 -21 36 -25 25z"/>
<path d="M9907 2033 c-19 -30 -36 -467 -18 -447 8 9 34 444 27 451 -2 3 -6 0
-9 -4z"/>
<path d="M9301 2470 c0 -14 6 -52 13 -85 10 -42 16 -55 21 -42 9 20 0 74 -20
119 -13 30 -14 31 -14 8z"/>
<path d="M9202 1974 c-64 -178 -108 -346 -83 -319 18 21 116 346 109 366 -2 7
-14 -14 -26 -47z"/>
<path d="M6410 1841 c0 -81 22 -314 31 -336 9 -20 7 57 -7 283 -7 104 -24 142
-24 53z"/>
</g>
</svg>
