<?xml version="1.0" standalone="no"?>
<!DOCTYPE svg PUBLIC "-//W3C//DTD SVG 20010904//EN"
 "http://www.w3.org/TR/2001/REC-SVG-20010904/DTD/svg10.dtd">
<svg version="1.0" xmlns="http://www.w3.org/2000/svg"
 width="1408.000000pt" height="768.000000pt" viewBox="0 0 1408.000000 768.000000"
 preserveAspectRatio="xMidYMid meet">
<metadata>
Created by potrace 1.16, written by Peter Selinger 2001-2019
</metadata>
<g transform="translate(0.000000,768.000000) scale(0.100000,-0.100000)"
fill="#000000" stroke="none">
<path d="M5395 6480 c-286 -45 -517 -180 -598 -350 l-31 -66 -76 -27 c-105
-37 -232 -118 -312 -198 -89 -89 -102 -139 -38 -139 16 0 65 -18 107 -39 93
-47 213 -89 302 -105 59 -11 66 -15 74 -41 5 -17 39 -104 76 -195 l66 -165 0
-135 c0 -74 -6 -203 -12 -286 -67 -811 405 -1625 1204 -2082 125 -71 309 -153
431 -193 l70 -22 41 -82 c22 -45 41 -91 41 -102 0 -28 -240 -370 -304 -434
-14 -15 -40 -29 -57 -33 -49 -9 -147 -7 -230 5 -101 16 -160 6 -199 -32 -16
-17 -47 -35 -68 -41 -70 -19 -132 -84 -132 -138 0 -32 26 -35 74 -9 38 20 48
21 71 11 14 -7 44 -12 67 -12 34 0 39 -2 33 -18 -5 -9 -10 -32 -13 -49 -6 -43
14 -50 62 -22 28 16 56 22 109 24 56 2 105 13 222 53 l151 50 89 -14 c50 -7
106 -14 125 -14 30 -1 33 -2 16 -12 -13 -7 -65 -8 -167 -4 -137 7 -150 6 -188
-13 -22 -12 -48 -32 -57 -46 -9 -14 -24 -25 -33 -25 -9 0 -40 -11 -68 -25 -58
-29 -103 -88 -103 -135 0 -37 23 -40 72 -10 28 18 44 20 108 15 41 -4 95 -2
120 3 l46 9 -23 -45 c-32 -63 -30 -132 4 -132 8 0 31 13 51 29 20 16 55 32 77
36 54 9 130 44 205 95 99 68 141 83 208 74 31 -4 77 -13 102 -20 59 -18 121
-18 146 1 27 21 71 18 91 -5 10 -11 25 -20 35 -20 54 0 13 115 -56 155 -38 22
-55 25 -139 25 -53 0 -107 4 -121 10 -50 19 -36 51 143 349 81 134 123 196
140 202 30 12 43 29 83 104 18 35 33 83 37 115 6 54 6 55 41 58 141 11 337 64
475 127 l72 32 244 -38 c134 -21 332 -53 439 -70 107 -17 246 -33 308 -36
l114 -6 291 -175 c545 -328 724 -400 744 -302 3 17 7 30 8 30 1 0 29 -12 60
-26 86 -38 141 -46 167 -24 21 17 21 17 2 49 -41 70 -295 250 -841 595 -172
109 -313 202 -313 206 0 5 5 12 10 15 20 12 10 72 -19 112 -36 50 -94 98 -311
260 -247 184 -293 224 -331 291 -115 205 -310 442 -644 782 -111 113 -242 255
-290 315 -115 142 -389 416 -530 531 -61 49 -174 135 -252 192 -78 57 -165
129 -193 160 -54 61 -107 160 -166 312 -116 297 -253 485 -450 616 -166 110
-327 162 -529 169 -66 2 -147 0 -180 -5z m255 -50 c336 -41 612 -242 774 -567
20 -39 62 -137 94 -217 101 -251 143 -302 393 -483 298 -216 511 -415 761
-713 81 -96 175 -200 209 -230 64 -58 338 -346 369 -391 15 -21 -13 -9 -161
65 -128 64 -182 87 -190 79 -7 -7 -2 -16 18 -30 51 -36 362 -193 382 -193 20
0 72 -60 177 -205 56 -77 109 -165 100 -165 -3 0 -46 25 -94 57 -48 31 -170
106 -272 168 -291 175 -403 231 -376 186 4 -5 115 -76 249 -157 133 -82 297
-182 363 -224 67 -41 135 -82 151 -91 30 -16 53 -70 53 -123 0 -69 -64 -46
-492 176 -202 104 -378 192 -390 195 -23 5 -23 4 2 -16 34 -28 355 -205 577
-318 195 -100 201 -111 32 -68 -172 43 -506 183 -843 351 -115 58 -218 111
-228 118 -18 13 -16 14 18 21 20 3 50 19 65 35 27 26 32 27 92 23 83 -7 123
12 133 62 l6 36 57 -7 c48 -5 60 -3 84 16 22 17 27 29 27 65 0 24 -4 55 -10
69 -9 23 -7 26 15 26 59 0 73 77 30 168 -13 28 -20 52 -15 52 23 0 7 41 -27
69 -39 32 -58 34 -30 3 26 -28 21 -32 -21 -18 -61 22 -120 54 -214 117 -48 33
-92 59 -98 59 -19 0 -10 -25 28 -74 39 -53 74 -76 53 -37 -9 16 7 9 63 -28 42
-27 101 -57 132 -67 54 -17 58 -20 85 -78 16 -34 29 -76 29 -93 0 -29 -3 -33
-27 -33 -41 0 -179 72 -268 140 -44 34 -100 76 -124 93 l-45 31 34 -47 c54
-76 180 -171 297 -226 56 -26 73 -51 73 -110 0 -60 -18 -69 -98 -48 -115 30
-252 120 -421 275 -49 45 -92 82 -95 82 -47 0 153 -202 292 -294 53 -36 109
-69 125 -75 21 -8 27 -17 27 -40 0 -42 -28 -55 -99 -47 -111 13 -277 117 -495
311 -111 98 -136 116 -136 97 0 -4 43 -51 96 -105 106 -108 276 -240 371 -290
35 -17 63 -35 63 -38 0 -4 -17 -15 -37 -24 -76 -36 -213 9 -383 126 -96 65
-219 166 -310 255 -31 30 -59 54 -63 54 -19 0 -1 -25 74 -105 92 -97 230 -211
343 -283 66 -42 74 -51 61 -62 -11 -9 -37 -11 -85 -8 -78 6 -190 53 -302 129
-101 68 -370 274 -402 308 -40 42 -64 42 -39 0 20 -34 127 -127 279 -242 106
-80 164 -137 164 -162 0 -8 -7 -15 -15 -15 -29 0 -121 23 -164 42 -125 53
-307 213 -400 351 -51 77 -57 88 -43 86 41 -7 42 28 2 98 -16 28 -34 54 -40
58 -26 16 -6 22 30 8 64 -25 72 -6 26 64 -20 32 -55 95 -78 140 -68 138 -64
264 13 365 35 47 41 68 19 68 -20 0 -73 -56 -98 -104 -24 -46 -27 -62 -27
-151 0 -92 3 -106 33 -169 17 -38 45 -91 62 -117 16 -27 27 -49 24 -49 -3 0
-21 7 -40 16 -19 9 -37 14 -40 11 -6 -5 38 -95 81 -165 18 -28 22 -43 13 -41
-54 7 -49 -40 15 -139 116 -179 338 -359 495 -401 23 -7 101 -50 173 -97 279
-182 808 -427 1244 -577 355 -121 933 -261 1169 -283 l79 -7 178 -116 c99 -64
225 -145 282 -180 316 -199 636 -420 681 -470 l19 -21 -44 15 c-78 28 -335
166 -754 407 -456 262 -495 283 -495 268 0 -21 50 -52 660 -413 363 -215 410
-246 410 -274 0 -64 -267 76 -1020 536 -303 186 -502 304 -514 305 -29 3 -16
-22 29 -56 46 -35 348 -228 403 -257 59 -31 6 -26 -518 55 -457 69 -413 60
-398 84 7 10 9 22 6 26 -4 3 -60 -19 -125 -49 -148 -69 -278 -110 -415 -132
-116 -19 -138 -17 -138 15 0 31 -28 80 -47 80 -12 0 -14 -7 -10 -33 27 -150
27 -144 1 -215 -45 -122 -46 -123 -63 -117 -11 3 -26 -5 -39 -20 -31 -36 -51
-31 -69 15 -17 43 -27 48 -53 25 -16 -14 -19 -12 -35 32 -30 80 -82 175 -124
227 -44 56 -232 216 -244 209 -14 -8 16 -48 107 -142 l91 -93 -45 7 c-75 11
-232 53 -337 89 -359 122 -660 311 -934 585 -153 153 -218 232 -319 388 -173
266 -280 543 -325 841 -17 113 -19 368 -4 497 16 138 14 281 -4 350 -9 33 -45
128 -80 210 l-65 150 62 3 c94 3 104 8 138 63 17 28 48 61 69 75 25 15 39 32
39 45 0 27 -108 139 -185 193 -32 22 -63 44 -68 47 -4 3 -10 27 -13 54 -6 60
-9 65 -45 65 -16 0 -29 4 -29 8 0 20 67 106 116 151 124 110 365 193 579 200
22 0 79 -4 125 -9z m-787 -435 c6 -55 21 -74 107 -130 36 -23 85 -63 110 -89
50 -52 42 -57 -45 -30 -162 49 -421 57 -630 19 l-40 -7 35 36 c48 51 167 131
253 171 64 29 181 74 198 75 4 0 9 -20 12 -45z m77 -270 c141 -22 145 -24 127
-38 -8 -7 -27 -32 -42 -56 l-27 -44 -106 6 c-59 3 -142 15 -184 26 -89 23
-268 92 -268 103 0 21 372 23 500 3z m1990 -2081 c77 -19 133 -14 166 17 42
39 69 20 130 -96 30 -55 54 -112 54 -128 0 -66 -93 -58 -257 22 -95 47 -266
146 -310 180 -21 17 -21 17 -1 30 15 10 19 19 14 41 l-5 29 72 -39 c40 -22
101 -47 137 -56z m435 -82 c111 -62 418 -215 490 -245 33 -14 121 -50 195 -82
74 -31 164 -67 200 -80 36 -13 124 -51 195 -84 214 -98 353 -130 400 -91 22
18 18 71 -10 125 -13 27 -23 50 -21 52 1 2 41 -33 88 -76 96 -90 155 -183 128
-202 -32 -21 -237 19 -540 106 -325 93 -676 226 -985 374 -149 72 -201 88
-129 40 254 -168 928 -422 1417 -535 120 -27 221 -33 255 -15 31 16 29 66 -4
115 -30 43 -23 41 56 -19 71 -54 150 -139 150 -161 0 -28 -189 -13 -400 31
-538 112 -1001 260 -1458 466 -138 62 -142 64 -114 76 63 26 62 93 -4 209 -41
72 -42 75 -16 58 15 -10 63 -38 107 -62z m1431 -457 c45 -86 42 -105 -17 -105
-40 0 -221 55 -277 84 -26 14 -25 14 21 9 62 -7 133 13 158 46 15 19 20 37 17
70 l-3 43 32 -37 c18 -21 49 -70 69 -110z m-1839 -742 l43 -8 -39 -49 c-51
-64 -81 -81 -98 -56 -7 10 -27 20 -44 22 -27 3 -33 10 -55 63 -14 33 -27 65
-30 71 -3 6 35 1 88 -12 51 -12 112 -26 135 -31z m132 -148 l39 -90 -45 -85
c-43 -81 -173 -311 -191 -338 -7 -10 -16 -9 -42 5 -19 9 -71 19 -115 23 -89 7
-105 13 -105 38 0 35 219 341 322 449 43 46 78 88 78 95 0 24 20 -9 59 -97z
m-246 -22 c-1 -6 -52 -82 -114 -169 -130 -185 -151 -224 -147 -266 5 -49 41
-69 144 -78 121 -10 144 -21 108 -51 -13 -11 -36 -10 -137 4 -166 24 -199 22
-298 -14 -46 -17 -106 -38 -134 -46 -63 -18 -205 -24 -199 -8 9 21 46 36 145
55 102 19 189 53 189 72 0 6 -12 8 -27 5 -16 -2 -82 -14 -148 -26 -66 -12
-145 -28 -175 -36 -65 -18 -126 -19 -136 -4 -4 7 -22 9 -45 6 -46 -6 -48 -3
-12 20 21 14 60 19 207 24 166 6 189 9 281 39 84 27 107 39 140 74 43 44 209
274 265 367 32 52 36 55 65 49 16 -4 29 -11 28 -17z m371 -98 c9 -14 23 -25
32 -25 10 0 4 -16 -24 -57 -100 -149 -218 -364 -230 -420 -18 -81 33 -113 183
-113 73 0 104 -4 128 -17 l32 -18 -42 -3 c-23 -2 -47 -10 -53 -18 -16 -18 -60
-18 -129 1 -85 22 -154 28 -198 16 -23 -6 -83 -39 -135 -73 -95 -63 -171 -98
-211 -98 -12 0 -33 -7 -45 -16 -31 -22 -35 -14 -13 22 15 24 42 41 118 73 74
31 111 53 143 86 24 25 41 47 38 51 -4 3 -40 -10 -80 -30 -103 -49 -245 -78
-390 -80 -99 -1 -115 1 -105 13 24 29 85 44 208 52 197 12 328 52 408 124 54
49 187 267 305 503 14 28 30 52 35 52 5 0 16 -11 25 -25z m-1064 -355 c17 -5
-7 -8 -70 -9 -65 0 -90 2 -80 9 18 11 114 11 150 0z m435 -229 c21 -8 -73 -21
-149 -21 -41 1 -41 1 -16 15 27 15 131 19 165 6z"/>
<path d="M5405 6151 c-58 -12 -90 -26 -166 -77 -87 -57 -128 -74 -184 -74 -75
0 -125 36 -125 90 0 12 -4 18 -10 15 -28 -17 0 -99 41 -120 78 -41 175 -24
284 51 93 64 137 81 228 89 44 4 75 11 70 16 -13 13 -92 19 -138 10z"/>
<path d="M5354 6046 c-44 -20 -64 -52 -64 -107 0 -121 156 -161 220 -57 37 62
16 138 -45 164 -42 17 -71 17 -111 0z m116 -70 c0 -14 -5 -28 -10 -31 -17 -11
-50 5 -50 24 0 24 9 31 37 31 18 0 23 -6 23 -24z"/>
<path d="M5679 5877 c-44 -12 -62 -22 -145 -78 -22 -14 -54 -31 -73 -37 -46
-16 -136 -15 -193 3 -60 18 -67 -2 -10 -29 86 -42 216 -27 299 33 69 50 121
72 187 78 67 6 196 -13 196 -28 0 -5 18 -9 41 -9 57 0 46 19 -27 49 -72 29
-205 38 -275 18z"/>
<path d="M5935 5791 c-3 -7 24 -25 69 -45 85 -39 111 -69 109 -127 -3 -60 -35
-119 -102 -184 -33 -33 -61 -65 -61 -72 0 -49 223 37 342 131 57 45 117 121
105 132 -3 3 -27 -15 -54 -40 -50 -49 -163 -129 -204 -145 -13 -5 -42 -17 -63
-26 l-39 -17 32 32 c61 61 97 163 80 225 -19 68 -85 121 -176 140 -18 3 -34 2
-38 -4z"/>
<path d="M5046 5562 c-3 -5 18 -40 45 -78 62 -85 81 -120 107 -204 23 -76 19
-115 -30 -272 -16 -53 -28 -107 -26 -120 10 -53 88 176 88 257 0 15 4 24 10
20 15 -10 12 64 -6 126 -18 63 -67 154 -121 223 -39 51 -57 64 -67 48z"/>
<path d="M6570 5309 c-19 -11 -51 -25 -70 -33 l-35 -14 48 -1 c56 -1 107 24
107 51 0 22 -5 21 -50 -3z"/>
<path d="M6408 5223 c-21 -5 -24 -19 -5 -26 24 -9 -232 -67 -296 -67 -5 0 -5
-5 -1 -11 5 -8 38 -10 108 -6 115 6 218 36 253 74 12 12 27 23 33 23 5 0 10 5
10 10 0 10 -69 12 -102 3z"/>
<path d="M5845 5164 c-78 -65 -241 -146 -352 -174 -28 -7 -43 -16 -43 -26 0
-30 113 2 247 68 77 38 193 128 193 149 0 15 -13 10 -45 -17z"/>
<path d="M6625 5150 c-9 -15 29 -47 96 -81 47 -23 59 -33 48 -40 -11 -7 -9
-13 11 -29 33 -26 70 -36 79 -21 6 9 11 8 19 -2 15 -18 90 -52 98 -44 20 20
-53 70 -103 70 -16 0 -29 9 -38 26 -15 30 -61 64 -143 105 -58 29 -59 30 -67
16z"/>
<path d="M6170 4961 c0 -5 17 -15 38 -22 99 -32 190 -92 325 -215 107 -97 170
-140 232 -157 36 -9 63 -26 98 -61 75 -73 205 -119 232 -82 12 15 20 11 91
-40 44 -31 92 -63 107 -71 42 -21 178 -54 199 -47 33 10 19 21 -48 38 -130 33
-248 109 -374 243 -54 57 -74 74 -77 61 -5 -21 15 -61 62 -122 40 -53 33 -56
-52 -24 -76 29 -137 91 -193 196 -61 115 -84 107 -35 -12 13 -33 23 -61 21
-63 -6 -6 -168 118 -226 172 -147 138 -276 215 -357 215 -24 0 -43 -4 -43 -9z"/>
<path d="M5098 4891 c-7 -12 -18 -21 -25 -21 -13 0 -53 -78 -53 -103 0 -14 3
-15 18 -6 21 13 88 136 80 145 -4 3 -13 -3 -20 -15z"/>
<path d="M7075 4848 c2 -23 250 -266 261 -255 15 15 -17 60 -106 147 -53 52
-110 103 -127 112 -29 17 -30 17 -28 -4z"/>
<path d="M6860 4405 c-31 -18 -119 -19 -173 -3 -37 11 -41 10 -58 -13 -39 -51
-41 -51 -85 -46 -23 2 -62 14 -86 26 -55 26 -63 26 -82 -1 -21 -29 -63 -26
-141 11 -43 20 -67 26 -71 19 -9 -14 16 -33 81 -64 60 -29 114 -31 145 -6 22
18 24 18 64 -2 27 -14 60 -21 100 -21 54 0 60 2 83 32 23 29 26 30 61 21 54
-15 147 -5 179 18 50 37 37 60 -17 29z"/>
<path d="M5195 4029 c21 -129 202 -489 245 -489 18 0 10 21 -40 106 -77 131
-129 238 -159 332 -31 95 -58 125 -46 51z"/>
<path d="M5550 3408 c0 -30 93 -139 106 -125 7 7 -53 92 -85 121 -17 15 -21
16 -21 4z"/>
<path d="M8201 2665 c24 -25 129 -57 202 -63 84 -6 91 12 10 28 -32 6 -88 20
-124 31 -36 10 -75 19 -85 19 -16 0 -17 -2 -3 -15z"/>
<path d="M7845 2629 c-47 -22 -117 -43 -197 -59 -82 -16 -75 -34 10 -27 95 8
262 70 262 98 0 14 -31 9 -75 -12z"/>
</g>
</svg>
