<?xml version="1.0" standalone="no"?>
<!DOCTYPE svg PUBLIC "-//W3C//DTD SVG 20010904//EN"
 "http://www.w3.org/TR/2001/REC-SVG-20010904/DTD/svg10.dtd">
<svg version="1.0" xmlns="http://www.w3.org/2000/svg"
 width="1024.000000pt" height="559.000000pt" viewBox="0 0 1024.000000 559.000000"
 preserveAspectRatio="xMidYMid meet">
<metadata>
Created by potrace 1.16, written by Peter Selinger 2001-2019
</metadata>
<g transform="translate(0.000000,559.000000) scale(0.100000,-0.100000)"
fill="#000000" stroke="none">
<path d="M5257 4466 c-219 -96 -424 -246 -694 -508 -89 -87 -172 -160 -185
-162 -13 -3 -180 -7 -373 -10 -446 -5 -666 -29 -1051 -111 -286 -62 -499 -127
-835 -255 -465 -178 -644 -256 -826 -361 -224 -128 -313 -210 -313 -286 1 -42
26 -67 126 -118 50 -26 111 -64 135 -86 l44 -40 -55 7 c-30 3 -94 21 -142 40
-98 38 -132 35 -144 -11 -11 -44 6 -79 69 -140 94 -92 274 -187 507 -268 149
-52 717 -229 857 -268 374 -103 777 -171 1233 -209 69 -6 278 -14 465 -17
l341 -6 44 -85 c65 -124 153 -244 251 -343 135 -136 208 -151 266 -52 l25 44
27 -18 c68 -45 175 -102 214 -113 61 -17 111 5 134 57 23 53 23 233 -1 335
-24 108 -55 147 -146 185 -40 17 -68 33 -64 35 5 3 47 9 94 12 302 25 556 71
685 125 l91 38 84 -74 c47 -41 122 -103 167 -139 239 -188 462 -278 532 -213
30 28 36 48 50 152 7 48 21 116 31 150 51 164 188 313 402 438 71 42 88 61 81
90 -5 18 -20 25 -131 55 -34 9 -65 20 -67 25 -6 8 130 42 245 60 123 20 301
16 400 -8 154 -39 252 -87 580 -283 107 -65 240 -140 295 -168 258 -128 501
-185 569 -131 43 34 36 72 -58 290 -93 220 -150 315 -276 459 -158 181 -159
237 -5 410 142 158 192 246 306 536 61 156 70 202 43 228 -53 53 -262 22 -494
-75 -112 -46 -233 -113 -436 -240 -375 -233 -549 -293 -787 -268 -158 16 -173
20 -167 50 18 93 -5 148 -81 187 -61 32 -140 26 -284 -23 -179 -61 -185 -61
-575 39 -294 75 -560 137 -755 176 -53 11 -57 14 -41 26 11 7 47 23 80 34 79
26 103 43 111 80 10 44 -21 101 -118 222 -132 163 -163 216 -208 360 -32 103
-46 132 -70 153 -44 36 -103 34 -202 -9z m158 -22 c22 -9 39 -45 65 -139 32
-116 87 -214 201 -355 56 -69 107 -140 116 -159 13 -30 12 -35 -2 -51 -9 -10
-36 -23 -61 -30 -25 -7 -70 -28 -101 -47 l-57 -34 -200 36 c-219 38 -499 80
-613 91 -40 3 -73 11 -73 16 0 5 60 68 133 141 131 132 247 222 384 301 68 38
92 66 58 66 -22 0 -173 -92 -266 -162 -87 -66 -249 -220 -316 -301 l-40 -49
-93 8 -94 7 155 151 c221 218 404 355 609 456 52 26 102 50 110 53 21 8 65 8
85 1z m-940 -714 c553 -40 1142 -146 1975 -357 228 -57 510 -128 625 -158 384
-97 614 -122 763 -82 35 9 77 17 93 17 74 0 189 -94 231 -188 29 -65 36 -209
15 -283 -32 -109 -111 -195 -206 -223 -41 -12 -55 -12 -119 5 -210 53 -479 25
-806 -85 -156 -52 -268 -100 -641 -274 -566 -263 -589 -271 -925 -311 -477
-58 -756 -75 -1250 -76 -496 0 -735 16 -1136 75 -254 37 -610 115 -822 180
l-73 22 80 33 c150 62 349 223 434 353 111 168 120 315 31 502 -62 132 -210
302 -249 286 -26 -10 -16 -30 46 -91 72 -70 148 -181 181 -263 18 -46 22 -77
23 -162 0 -102 -1 -108 -37 -180 -84 -171 -323 -366 -517 -424 -30 -9 -67 -16
-82 -16 -29 0 -384 109 -589 181 -225 79 -416 183 -493 268 -64 71 -47 88 51
47 64 -27 154 -46 220 -46 40 0 48 -4 88 -49 54 -61 101 -84 149 -75 39 7 85
53 85 85 0 55 -57 115 -150 158 -89 41 -123 49 -118 27 2 -10 30 -29 70 -45
83 -36 124 -64 143 -102 18 -34 8 -64 -26 -74 -38 -12 -67 4 -125 71 -79 90
-192 178 -291 227 -96 48 -108 68 -73 116 45 64 195 164 400 266 182 91 358
164 825 340 439 165 935 270 1455 308 110 8 618 6 745 -3z m4773 -21 c4 -21
-114 -322 -167 -427 -45 -90 -101 -167 -196 -272 -81 -90 -115 -156 -115 -225
0 -67 25 -118 101 -205 108 -122 167 -202 203 -270 57 -109 177 -401 174 -424
-9 -65 -281 0 -538 129 -47 24 -189 106 -316 182 -127 76 -270 157 -317 178
-81 38 -105 55 -74 55 8 0 39 18 71 40 l57 40 127 -84 c189 -125 333 -202 520
-277 81 -32 102 -36 102 -15 0 7 -27 23 -62 36 -159 57 -430 202 -596 319
l-72 52 24 42 c72 122 72 307 2 433 l-23 42 66 50 c172 130 392 256 571 328
108 43 119 49 103 65 -7 7 -36 0 -99 -26 -203 -84 -441 -221 -600 -345 l-60
-47 -30 24 c-16 13 -49 34 -73 47 l-45 23 120 61 c65 34 196 109 289 167 354
221 617 327 790 322 46 -2 60 -6 63 -18z m-1948 -347 c19 -9 41 -30 48 -45 16
-34 8 -95 -14 -104 -13 -5 -356 72 -378 85 -5 3 18 14 50 24 192 64 236 70
294 40z m-170 -1037 c15 -8 65 -25 110 -38 l82 -24 -63 -38 c-289 -174 -411
-351 -444 -640 -12 -112 -48 -128 -172 -79 -148 59 -252 131 -508 351 l-49 42
64 30 65 29 74 -75 c121 -123 338 -268 370 -248 18 10 4 23 -57 54 -31 16 -91
53 -132 82 -81 57 -213 184 -208 200 6 17 533 259 708 325 63 24 119 43 123
44 4 0 21 -7 37 -15z m-1984 -677 c50 -20 100 -42 112 -49 53 -33 85 -147 86
-304 0 -181 -39 -199 -210 -95 -141 85 -233 159 -376 301 -82 81 -148 151
-148 158 0 6 17 11 43 10 40 0 45 -3 92 -65 112 -146 395 -357 395 -294 0 4
-33 29 -72 55 -40 26 -104 73 -142 104 -75 60 -191 189 -181 199 9 9 174 20
250 17 41 -1 89 -13 151 -37z m-479 -128 c74 -76 169 -167 211 -201 42 -34 77
-65 77 -68 -1 -17 -40 -81 -52 -85 -64 -25 -269 196 -397 427 l-38 67 33 0
c28 0 48 -16 166 -140z"/>
<path d="M4340 3559 c0 -6 15 -29 34 -50 60 -65 58 -152 -5 -223 -16 -19 -25
-37 -20 -40 31 -20 92 62 99 133 5 60 -11 112 -50 157 -30 34 -58 45 -58 23z"/>
<path d="M4535 3470 c-3 -6 5 -24 18 -40 52 -61 56 -151 9 -193 -17 -16 -20
-15 -42 8 -23 25 -50 33 -50 16 0 -5 13 -23 29 -40 59 -63 59 -158 0 -225 -34
-40 -36 -46 -9 -46 29 0 78 73 86 127 4 25 2 61 -4 80 -9 30 -8 37 13 59 54
58 57 148 8 217 -30 43 -47 54 -58 37z"/>
<path d="M4650 3331 c0 -5 7 -15 17 -22 22 -19 43 -72 43 -109 0 -35 -13 -64
-42 -97 -24 -26 -16 -48 13 -33 30 16 59 84 59 136 0 58 -40 134 -70 134 -11
0 -20 -4 -20 -9z"/>
<path d="M3550 3262 c0 -5 9 -17 21 -28 60 -54 66 -137 15 -212 -33 -50 -35
-62 -10 -62 19 0 72 87 79 130 8 47 -8 102 -42 148 -22 29 -63 45 -63 24z"/>
<path d="M6375 3230 c-4 -6 5 -24 19 -41 33 -39 35 -97 5 -146 -12 -19 -19
-37 -16 -40 14 -13 39 10 58 53 25 56 19 111 -18 154 -26 32 -38 36 -48 20z"/>
<path d="M1610 3017 c-24 -12 -57 -40 -74 -61 -28 -35 -31 -44 -31 -111 0 -67
3 -76 31 -112 66 -81 154 -103 247 -60 154 70 157 271 6 348 -53 26 -125 25
-179 -4z m135 -18 c82 -22 137 -109 116 -184 -21 -78 -82 -125 -159 -125 -190
0 -233 242 -56 305 48 17 50 17 99 4z"/>
<path d="M1682 2942 c-22 -7 -13 -41 13 -48 52 -13 53 -84 2 -84 -30 0 -47 18
-47 48 0 19 -5 23 -22 20 -37 -5 -36 -51 1 -88 60 -60 156 -25 156 58 0 60
-55 110 -103 94z"/>
<path d="M2990 2876 c0 -16 18 -23 180 -65 507 -133 979 -186 1630 -185 440 1
629 13 1305 80 248 24 542 52 655 60 230 18 654 23 863 11 118 -7 137 -6 137
7 0 26 -81 31 -485 31 -418 -1 -418 -1 -1170 -75 -673 -66 -757 -71 -1190 -77
-439 -6 -652 3 -955 38 -299 35 -647 101 -864 165 -95 28 -106 29 -106 10z"/>
<path d="M2256 2808 c5 -29 9 -114 9 -188 0 -124 -2 -139 -26 -190 -48 -101
-120 -150 -257 -173 -81 -14 -100 -30 -42 -35 47 -5 135 15 190 43 98 50 152
136 171 271 17 123 -6 324 -38 324 -13 0 -14 -8 -7 -52z"/>
<path d="M5590 2475 c0 -3 14 -24 30 -47 24 -32 30 -51 30 -90 0 -58 -10 -80
-57 -129 -24 -25 -31 -39 -23 -44 38 -24 125 110 117 182 -6 55 -51 133 -77
133 -11 0 -20 -2 -20 -5z"/>
<path d="M3300 2379 c-196 -21 -468 -74 -490 -95 -18 -17 -4 -33 36 -40 39 -7
109 -49 129 -76 27 -39 17 -108 -15 -108 -22 0 -46 -28 -34 -40 5 -5 83 -27
173 -49 125 -31 183 -41 245 -41 132 0 184 20 406 150 63 37 146 84 183 105
84 45 111 87 83 129 -20 32 -86 51 -218 66 -111 12 -387 11 -498 -1z m522 -54
c105 -14 148 -27 148 -45 0 -13 -29 -32 -155 -104 -60 -35 -146 -84 -189 -109
-166 -97 -269 -109 -479 -56 -66 17 -124 32 -128 35 -4 2 -3 18 3 35 20 58
-13 120 -88 165 -11 7 -17 14 -14 17 8 9 217 45 350 61 153 18 419 19 552 1z"/>
<path d="M5730 2301 c0 -6 9 -25 20 -43 33 -54 22 -116 -29 -162 -24 -21 -28
-46 -8 -46 18 0 64 49 76 83 16 43 13 98 -8 137 -17 33 -51 53 -51 31z"/>
</g>
</svg>
