<?xml version="1.0" standalone="no"?>
<!DOCTYPE svg PUBLIC "-//W3C//DTD SVG 20010904//EN"
 "http://www.w3.org/TR/2001/REC-SVG-20010904/DTD/svg10.dtd">
<svg version="1.0" xmlns="http://www.w3.org/2000/svg"
 width="1024.000000pt" height="559.000000pt" viewBox="0 0 1024.000000 559.000000"
 preserveAspectRatio="xMidYMid meet">
<metadata>
Created by potrace 1.16, written by Peter Selinger 2001-2019
</metadata>
<g transform="translate(0.000000,559.000000) scale(0.100000,-0.100000)"
fill="#000000" stroke="none">
<path d="M3210 4723 c-8 -3 -34 -14 -57 -24 -23 -11 -48 -19 -55 -19 -29 0
-118 -53 -149 -88 -54 -61 -79 -127 -79 -208 l0 -71 -102 -43 c-241 -101 -258
-112 -342 -207 -104 -118 -119 -148 -114 -233 4 -76 33 -129 93 -172 19 -13
52 -51 73 -84 62 -96 126 -135 357 -220 171 -62 246 -114 405 -280 158 -166
281 -277 380 -347 26 -18 29 -11 -41 -117 -31 -47 -79 -125 -107 -175 -74
-131 -74 -131 -188 -186 -174 -84 -230 -99 -462 -125 -110 -13 -154 -136 -62
-174 39 -16 106 -7 161 21 23 11 69 25 103 30 33 5 74 11 89 14 16 3 26 1 22
-5 -9 -15 -176 -106 -230 -126 -67 -24 -100 -48 -114 -83 -20 -46 -10 -82 28
-108 64 -43 129 -28 206 47 38 37 88 67 215 129 169 82 240 105 240 80 -1 -36
-30 -134 -47 -158 -55 -74 -46 -143 22 -175 31 -15 44 -16 75 -7 58 17 81 49
90 128 8 78 54 186 93 222 23 21 32 23 79 17 75 -8 177 -47 224 -83 78 -61
151 -67 200 -18 58 58 10 135 -109 174 -37 13 -90 40 -118 61 -56 42 -113 105
-107 119 2 5 40 48 86 96 l83 86 113 -85 c131 -98 259 -182 334 -220 28 -14
52 -29 52 -32 0 -2 -33 -62 -73 -132 -69 -120 -155 -289 -197 -387 -24 -55
-44 -61 -150 -46 -100 15 -179 35 -235 61 -100 46 -215 2 -215 -81 0 -40 42
-69 99 -69 55 0 124 -18 116 -30 -13 -20 -367 -43 -476 -29 -134 16 -211 -14
-225 -87 -8 -46 7 -79 48 -104 42 -25 89 -25 163 0 62 21 211 27 370 13 l78
-6 -49 -25 c-73 -38 -158 -69 -206 -77 -89 -15 -148 -62 -148 -118 0 -41 17
-67 55 -83 55 -23 89 -17 180 31 47 25 120 57 163 71 206 67 240 75 392 89
204 19 249 28 335 70 63 30 91 53 205 172 157 164 257 293 340 441 l61 109 77
-19 c98 -25 384 -36 487 -19 119 19 109 23 117 -42 15 -117 109 -257 208 -307
23 -12 38 -25 34 -30 -9 -8 -137 -34 -228 -45 -66 -9 -148 -46 -174 -80 -29
-36 -28 -70 3 -100 35 -36 107 -34 188 5 63 30 157 55 179 48 13 -5 -109 -54
-304 -122 -206 -72 -284 -123 -303 -197 -5 -19 0 -34 20 -57 49 -59 124 -51
242 24 137 87 317 149 514 178 140 20 196 9 141 -28 -41 -28 -64 -64 -69 -110
-5 -38 -2 -45 27 -69 39 -33 91 -35 140 -6 19 12 69 56 110 99 88 91 84 88
423 277 459 255 499 294 672 640 45 92 99 209 118 258 72 181 127 407 127 517
0 61 -5 82 -32 137 -89 179 -220 224 -438 151 -52 -17 -101 -34 -109 -37 -11
-4 -12 6 -7 53 4 33 3 82 -2 111 l-9 52 46 17 c57 22 129 87 152 139 28 61 25
149 -7 213 -35 70 -68 92 -209 142 -66 23 -157 57 -202 76 -167 68 -428 145
-546 159 -53 7 -65 14 -151 85 -114 94 -316 240 -371 268 -111 56 -264 66
-540 37 -258 -28 -564 -16 -795 31 -41 8 -142 33 -225 55 -290 79 -328 86
-651 129 -83 10 -162 23 -175 29 -14 5 -42 29 -62 54 -79 97 -202 158 -314
156 -32 0 -65 -3 -73 -6z m214 -77 c36 -17 78 -51 119 -96 75 -81 101 -91 307
-115 210 -25 367 -54 550 -105 326 -89 451 -109 720 -117 129 -3 251 -1 330 7
69 6 194 14 278 17 140 5 158 4 224 -17 110 -36 291 -171 804 -602 60 -51 166
-136 235 -188 235 -179 292 -255 304 -408 10 -110 4 -118 -111 -171 -285 -131
-497 -288 -664 -491 -86 -105 -169 -241 -184 -302 -11 -49 11 -30 64 55 74
115 131 188 230 291 183 190 378 319 665 439 181 75 257 97 336 97 94 0 138
-23 185 -96 74 -115 79 -172 34 -360 -51 -213 -114 -378 -232 -604 -87 -166
-131 -230 -200 -296 -98 -93 -133 -116 -398 -262 -319 -174 -359 -201 -466
-305 -78 -74 -110 -99 -136 -103 -41 -7 -63 14 -54 50 6 25 25 43 156 146 187
148 392 370 341 370 -5 0 -44 -36 -87 -81 -71 -73 -307 -279 -320 -279 -2 0
-16 7 -30 17 -51 33 -196 18 -423 -43 -114 -31 -179 -59 -285 -124 -95 -58
-137 -73 -172 -60 -34 13 -30 43 11 79 44 39 90 62 180 91 102 33 339 123 420
160 233 106 395 193 395 213 0 11 -30 1 -128 -44 -46 -22 -85 -39 -87 -39 -2
0 -37 -16 -79 -35 -72 -33 -76 -34 -129 -23 -71 15 -152 1 -246 -42 -80 -37
-134 -38 -139 -3 -6 40 49 64 208 88 52 7 134 25 181 39 55 16 99 23 121 20
54 -9 160 23 341 103 434 190 623 346 904 743 49 69 117 161 151 204 72 92 82
123 23 77 -60 -47 -130 -128 -211 -242 -217 -306 -369 -455 -610 -596 -90 -54
-141 -78 -340 -165 -147 -65 -165 -70 -246 -69 -193 1 -355 177 -354 383 3
403 364 937 783 1158 72 38 86 56 35 45 -93 -20 -261 -131 -402 -265 -182
-175 -319 -378 -401 -597 -29 -76 -65 -227 -65 -272 0 -32 1 -32 -120 -51
-137 -21 -424 -5 -515 30 l-24 9 25 58 c14 32 37 82 50 111 52 114 55 212 8
303 -57 113 -271 328 -437 439 -80 54 -103 65 -191 86 -43 10 -29 -15 18 -31
85 -29 247 -157 397 -312 215 -223 235 -288 149 -484 -158 -361 -240 -486
-494 -750 -160 -167 -205 -186 -499 -213 -157 -15 -179 -20 -335 -72 -92 -31
-193 -72 -224 -91 -92 -55 -168 -54 -168 2 0 32 30 51 115 70 138 32 470 213
442 241 -4 4 -31 -3 -60 -16 -62 -28 -57 -27 -317 -16 -194 8 -209 7 -274 -13
-84 -26 -117 -26 -146 -3 -28 23 -22 65 11 83 23 12 26 12 235 9 78 -1 186 4
240 10 96 11 277 44 308 56 29 11 17 24 -23 24 -23 0 -67 13 -107 32 -44 21
-89 34 -127 36 -67 5 -84 24 -48 54 28 22 98 24 127 3 37 -25 166 -56 262 -62
68 -4 92 -9 92 -19 0 -8 5 -14 10 -14 26 0 66 60 125 184 64 134 159 308 254
466 28 47 54 99 57 117 9 49 -19 92 -108 163 -127 102 -175 148 -254 247 -73
91 -91 109 -100 100 -8 -8 66 -128 121 -197 29 -36 102 -105 163 -155 128
-105 139 -119 123 -166 -24 -70 -31 -73 -97 -38 -100 52 -181 107 -404 275
-118 88 -282 209 -365 269 -209 151 -278 210 -455 392 -200 206 -268 253 -480
328 -135 48 -209 87 -259 138 -23 22 -40 42 -38 43 1 1 40 -11 87 -26 47 -16
200 -58 340 -94 140 -35 299 -76 352 -90 210 -56 437 -96 548 -95 84 0 142 11
148 27 3 9 -20 12 -90 12 -146 1 -357 36 -628 106 -74 20 -238 62 -365 94
-314 81 -430 124 -493 184 -46 43 -62 77 -62 133 0 61 16 87 121 194 83 85 86
87 229 149 185 80 249 112 289 145 38 32 40 48 5 35 -14 -6 -27 -10 -30 -10
-9 0 80 167 113 213 20 27 58 61 87 78 47 28 57 30 123 26 51 -3 87 -11 127
-31z m-393 -75 c-12 -17 -42 -72 -67 -123 l-44 -93 3 50 c5 63 31 119 80 168
44 44 60 43 28 -2z m3669 -765 c133 -33 243 -70 400 -131 74 -29 173 -65 220
-80 69 -23 93 -36 127 -71 94 -97 62 -238 -70 -308 l-59 -31 -16 25 c-41 61
-140 153 -302 279 -139 107 -326 262 -404 332 -15 14 0 11 104 -15z m-2846
-1246 c80 -58 145 -109 145 -114 1 -5 -35 -46 -78 -91 -96 -100 -106 -128 -65
-186 52 -75 140 -137 242 -171 91 -30 122 -77 65 -99 -36 -13 -70 -4 -113 30
-19 15 -49 35 -66 44 -49 25 -174 57 -223 57 -39 0 -49 -5 -86 -44 -51 -53
-105 -175 -105 -238 0 -73 -42 -106 -104 -82 -24 9 -20 60 8 97 30 40 43 84
52 169 7 70 0 118 -16 118 -5 0 -12 -9 -15 -20 -4 -12 -15 -20 -29 -20 -38 0
-110 -29 -266 -106 -111 -55 -165 -87 -210 -129 -51 -47 -66 -55 -98 -55 -43
0 -62 14 -62 46 0 27 35 53 112 82 104 39 322 184 396 265 38 41 9 40 -49 -2
-47 -33 -64 -39 -129 -45 -123 -11 -202 -27 -262 -52 -82 -34 -138 -31 -138 7
0 30 57 59 115 59 106 1 264 46 420 119 124 59 158 87 197 165 37 73 130 228
165 274 14 18 31 32 39 30 7 -2 79 -50 158 -108z"/>
<path d="M3375 4377 c-22 -8 -54 -21 -71 -30 -35 -18 -150 -138 -166 -173 -23
-50 5 -35 80 44 105 110 143 127 282 127 96 0 110 -3 162 -29 74 -37 129 -95
172 -181 31 -62 35 -66 36 -39 1 93 -87 211 -197 261 -49 23 -74 28 -158 30
-63 2 -115 -2 -140 -10z"/>
<path d="M3421 4268 c-219 -49 -274 -340 -88 -465 130 -87 289 -57 381 74 24
35 30 55 34 116 2 43 0 89 -7 109 -15 47 -74 114 -120 137 -32 16 -131 43
-149 40 -4 -1 -27 -6 -51 -11z m177 -54 c160 -93 137 -338 -38 -412 -70 -29
-171 -7 -238 52 -70 61 -88 195 -38 279 63 109 204 145 314 81z"/>
<path d="M3385 4109 c-40 -20 -95 -72 -95 -88 0 -15 54 -62 94 -83 81 -41 218
-12 256 55 13 24 13 28 -6 54 -11 15 -43 40 -70 55 -61 34 -123 36 -179 7z
m173 -33 c5 -24 -10 -38 -31 -30 -20 7 -23 40 -4 47 19 8 32 2 35 -17z"/>
<path d="M2660 3993 c-26 -33 -11 -56 19 -29 18 16 20 16 36 0 12 -13 21 -15
33 -8 23 15 25 30 7 48 -26 25 -70 20 -95 -11z"/>
<path d="M3230 3791 c0 -16 73 -73 119 -94 84 -37 226 -35 290 4 44 26 35 33
-19 14 -24 -8 -76 -15 -119 -15 -84 0 -160 25 -223 73 -37 29 -48 33 -48 18z"/>
</g>
</svg>
