<?xml version="1.0" standalone="no"?>
<!DOCTYPE svg PUBLIC "-//W3C//DTD SVG 20010904//EN"
 "http://www.w3.org/TR/2001/REC-SVG-20010904/DTD/svg10.dtd">
<svg version="1.0" xmlns="http://www.w3.org/2000/svg"
 width="1024.000000pt" height="559.000000pt" viewBox="0 0 1024.000000 559.000000"
 preserveAspectRatio="xMidYMid meet">
<metadata>
Created by potrace 1.16, written by Peter Selinger 2001-2019
</metadata>
<g transform="translate(0.000000,559.000000) scale(0.100000,-0.100000)"
fill="#000000" stroke="none">
<path d="M6735 4717 c-64 -17 -147 -55 -219 -101 -44 -28 -67 -36 -104 -36
-58 0 -169 -26 -200 -46 -23 -15 -24 -25 -7 -66 6 -15 2 -18 -22 -18 -41 0
-133 -29 -165 -52 -31 -21 -36 -49 -13 -68 24 -20 18 -26 -37 -39 -62 -13
-153 -63 -168 -90 -10 -19 -4 -51 9 -51 4 0 16 -6 26 -14 18 -13 16 -15 -28
-36 -26 -12 -70 -44 -98 -70 -58 -55 -63 -86 -16 -108 l29 -14 -50 -49 c-55
-53 -96 -127 -86 -152 3 -9 21 -19 40 -23 19 -3 33 -9 31 -13 -26 -48 -55
-125 -61 -160 -9 -56 13 -94 48 -85 24 6 24 5 28 -96 3 -92 5 -104 26 -120 16
-13 32 -17 56 -13 34 5 34 5 50 -50 9 -30 30 -76 48 -103 27 -39 39 -50 65
-52 18 -2 41 2 53 8 18 10 22 7 39 -32 l18 -43 -151 -22 c-83 -13 -214 -39
-291 -58 -77 -19 -145 -35 -151 -35 -6 0 -16 11 -22 24 -6 14 -23 33 -37 42
-25 16 -27 16 -54 -10 l-29 -28 -17 54 c-28 86 -83 166 -137 202 -32 21 -54
13 -68 -27 l-11 -32 -31 55 c-65 115 -160 203 -202 187 -9 -4 -20 -17 -25 -30
-9 -24 -10 -24 -65 29 -68 63 -164 114 -217 114 -33 0 -40 -4 -45 -25 -7 -30
-6 -30 -107 -4 -66 18 -112 22 -232 22 -132 1 -163 -3 -257 -27 -169 -43 -273
-91 -413 -191 -74 -53 -180 -162 -229 -237 l-38 -56 -118 5 c-141 7 -241 -7
-354 -48 -254 -93 -438 -286 -512 -539 -29 -99 -27 -300 5 -400 75 -242 247
-426 508 -543 78 -35 251 -86 297 -88 20 0 19 -1 -4 -11 -16 -8 -106 -11 -255
-10 -198 1 -232 -1 -247 -15 -24 -22 -23 -64 3 -97 27 -34 161 -98 274 -131
210 -60 269 -70 455 -70 158 0 182 2 245 24 142 47 240 109 429 269 119 100
196 144 280 162 53 11 53 11 131 -35 173 -102 407 -213 595 -281 364 -132 962
-226 1340 -210 388 17 694 92 1010 251 404 202 647 458 741 780 34 115 34 307
1 415 -63 202 -205 351 -442 464 -174 83 -430 154 -616 172 -67 6 -72 8 -86
38 -39 80 -104 151 -371 406 -139 133 -178 240 -126 347 55 114 273 193 534
193 62 0 136 8 195 21 52 11 126 27 164 35 38 8 148 26 245 39 96 14 198 32
226 40 69 20 133 68 154 115 9 21 31 52 49 68 30 28 32 34 32 99 0 94 -19 122
-112 166 -40 19 -111 48 -158 63 -56 19 -117 50 -178 91 -52 34 -110 65 -129
69 -20 4 -72 3 -117 -1 -99 -10 -109 -10 -326 -2 -129 5 -188 3 -225 -6z m705
-58 c19 -11 62 -39 95 -62 37 -27 98 -55 160 -76 156 -53 203 -77 225 -113 34
-57 21 -148 -22 -148 -6 0 -25 -11 -43 -24 -67 -52 -98 -58 -275 -57 -129 1
-191 -3 -280 -20 -181 -33 -258 -35 -378 -9 -101 22 -157 21 -149 -3 2 -7 17
-13 33 -15 16 -2 69 -12 119 -23 116 -25 172 -24 334 6 111 21 165 25 312 25
157 0 185 3 231 21 l52 20 -19 -21 c-46 -51 -109 -69 -340 -100 -88 -12 -231
-37 -317 -56 -230 -50 -366 -46 -535 18 -63 23 -134 83 -153 128 -7 17 -16 30
-21 30 -14 0 0 -49 26 -95 l23 -41 -47 -17 c-114 -40 -234 -142 -288 -243 -77
-144 -82 -262 -17 -394 33 -67 58 -96 243 -280 114 -113 224 -231 245 -263
115 -176 157 -353 122 -515 -23 -105 -71 -187 -166 -283 -73 -73 -100 -92
-190 -137 -145 -71 -217 -87 -365 -85 -372 4 -669 156 -1075 549 -157 152
-213 200 -323 275 -200 138 -414 204 -573 179 -124 -20 -199 -64 -244 -143
-34 -59 -36 -85 -14 -150 34 -101 155 -200 383 -314 80 -40 138 -73 129 -73
-9 0 -55 11 -104 25 -76 22 -95 33 -144 79 -77 70 -124 93 -165 77 -28 -11
-32 -9 -59 21 -75 86 -140 147 -163 153 -16 4 -39 -1 -63 -14 -38 -20 -39 -20
-63 -1 -27 21 -87 110 -87 128 0 7 9 12 20 12 33 0 34 25 1 109 -32 84 -37
123 -21 165 l9 25 39 -17 39 -17 -15 -40 c-19 -50 -21 -202 -3 -230 10 -17 11
-12 7 35 -29 285 226 526 619 585 180 27 353 12 481 -42 145 -61 358 -218 559
-413 383 -370 465 -437 632 -509 95 -41 169 -54 275 -48 134 7 247 69 295 161
24 46 29 161 10 227 -32 109 -96 182 -308 351 -231 185 -324 296 -375 448 -28
81 -26 271 3 362 49 151 127 274 262 409 112 111 194 174 407 310 285 182 291
184 589 176 121 -4 238 -3 260 2 53 12 121 4 165 -20z m-1040 -113 c0 -5 -142
-98 -143 -94 -1 2 -8 13 -14 25 -7 13 -13 25 -13 27 0 6 90 34 125 39 17 2 33
5 38 6 4 0 7 -1 7 -3z m-210 -143 c-14 -9 -46 -34 -72 -55 l-46 -39 -26 26
-25 25 25 17 c29 19 106 41 144 42 l24 1 -24 -17z m-231 -200 c-35 -38 -66
-68 -69 -68 -15 0 -61 45 -55 55 12 19 140 78 174 79 7 1 -15 -29 -50 -66z
m-128 -155 c-11 -18 -32 -54 -46 -80 l-25 -47 -36 21 -35 21 28 30 c29 31 110
87 126 87 5 0 0 -15 -12 -32z m738 -38 c15 -10 50 -28 77 -39 l49 -19 -30 -7
c-243 -54 -367 -172 -352 -335 10 -112 33 -143 335 -433 213 -205 323 -440
325 -697 1 -134 -16 -209 -70 -312 -88 -168 -312 -304 -548 -333 -49 -6 -48
-5 60 49 131 65 215 131 284 223 75 101 103 183 109 319 5 127 -15 220 -73
334 -62 123 -122 193 -374 435 -141 136 -194 221 -216 346 -8 42 16 141 51
216 46 97 173 209 289 256 51 21 52 21 84 -3z m-853 -201 c-8 -30 -17 -66 -20
-81 -6 -25 -8 -26 -41 -15 -39 12 -42 21 -19 57 22 33 87 101 91 96 2 -2 -2
-28 -11 -57z m-33 -266 l6 -83 -29 0 c-28 0 -30 3 -30 36 0 29 38 141 45 132
1 -2 5 -40 8 -85z m37 -168 c0 -7 15 -43 34 -79 20 -38 30 -66 23 -66 -7 0
-22 -3 -33 -6 -17 -5 -24 1 -33 27 -14 40 -15 153 -1 144 6 -3 10 -12 10 -20z
m-1124 -42 c53 -26 139 -91 131 -99 -2 -2 -37 11 -78 29 -41 19 -91 40 -111
46 -27 9 -38 18 -38 32 0 27 30 24 96 -8z m-488 -23 c-17 -23 -27 -28 -42 -23
-12 3 -57 6 -101 6 -124 -1 -185 -37 -185 -109 l0 -32 -62 1 c-111 2 -157 -39
-165 -148 -5 -60 -7 -64 -25 -54 -30 16 -65 -12 -72 -58 -8 -48 7 -130 34
-182 25 -50 25 -49 -2 -53 -24 -3 -33 -26 -24 -62 20 -81 227 -244 407 -320
141 -60 229 -89 429 -141 255 -68 265 -70 435 -130 260 -91 476 -153 664 -190
97 -20 213 -45 258 -56 321 -76 570 -95 871 -64 404 41 551 85 772 230 201
131 303 226 351 326 47 96 47 149 0 149 -16 0 -16 4 -3 58 24 101 -16 191 -86
193 -35 0 -39 4 -64 54 l-26 54 26 -10 c139 -53 290 -159 366 -258 92 -120
125 -210 133 -366 5 -105 4 -113 -24 -181 -108 -260 -369 -480 -783 -657 -406
-174 -829 -236 -1300 -192 -536 50 -886 160 -1475 464 -104 54 -257 136 -340
183 -82 47 -233 127 -335 178 -307 155 -428 237 -513 347 -72 94 -72 95 -72
233 0 104 4 137 23 194 48 143 115 248 223 351 111 105 268 200 398 241 77 25
223 52 279 53 l53 1 -23 -30z m243 4 c67 -20 74 -37 12 -29 -26 3 -92 0 -145
-8 -54 -7 -98 -11 -98 -8 1 11 35 48 55 60 23 13 103 6 176 -15z m-328 -54
c41 0 25 -13 -43 -35 -30 -10 -77 -29 -105 -44 -27 -14 -53 -27 -57 -29 -5 -2
-8 10 -8 27 0 37 31 69 74 76 71 11 82 12 94 9 8 -2 28 -4 45 -4z m902 -83
c25 -28 58 -72 72 -97 l27 -45 -35 26 c-18 14 -65 47 -104 74 -38 26 -70 50
-69 54 0 3 5 19 12 34 10 24 15 26 31 17 11 -5 41 -34 66 -63z m1035 -139 c0
-17 -43 -19 -62 -1 -18 16 -68 112 -68 130 0 4 29 -22 65 -57 36 -35 65 -68
65 -72z m-2232 45 c-60 -54 -94 -93 -115 -130 -10 -18 -21 -33 -25 -33 -5 0
-8 29 -8 65 0 58 3 68 31 100 29 33 34 35 95 35 l64 0 -42 -37z m1436 -58 c35
-42 75 -120 91 -175 7 -21 -1 -17 -46 25 -30 28 -71 64 -92 82 -20 18 -37 34
-37 36 0 14 32 77 39 77 5 0 25 -20 45 -45z m1008 -152 c21 -18 33 -35 27 -38
-19 -13 -79 17 -106 53 -30 39 -53 78 -53 88 0 6 70 -48 132 -103z m920 -19
c55 -35 59 -48 12 -39 -21 4 -65 11 -98 15 -66 10 -61 8 -70 37 -7 22 -6 23
56 16 39 -4 77 -15 100 -29z m-1014 3 l22 -23 -112 -12 c-132 -14 -183 -23
-374 -69 -78 -18 -144 -33 -147 -33 -2 0 -7 9 -10 20 -6 22 3 25 158 64 102
25 308 61 431 75 6 0 20 -9 32 -22z m-700 -34 c33 -47 49 -86 57 -133 l7 -45
-70 69 -70 69 21 33 c12 19 25 34 29 34 4 0 15 -12 26 -27z m1822 17 c0 -5 -9
-10 -19 -10 -11 0 -23 5 -26 10 -4 6 5 10 19 10 14 0 26 -4 26 -10z m-4030
-19 c0 -5 -9 -33 -21 -63 l-20 -54 -117 1 c-195 0 -333 -45 -452 -148 -36 -31
-85 -73 -109 -94 -63 -55 -95 -127 -87 -201 3 -31 6 -85 5 -119 -1 -138 50
-233 217 -399 186 -185 559 -243 945 -149 53 13 132 37 174 54 48 18 84 27 93
22 11 -6 6 -13 -20 -28 -18 -11 -78 -57 -133 -103 -55 -46 -131 -104 -169
-128 -86 -56 -216 -112 -276 -119 -54 -6 -258 27 -350 57 -281 93 -489 285
-578 533 -23 65 -26 86 -26 217 0 138 2 149 31 227 91 241 284 410 553 484 71
19 340 27 340 10z m4172 -17 c54 -18 110 -68 138 -125 11 -21 18 -39 15 -39
-3 0 -26 16 -51 36 -58 43 -110 70 -193 99 -55 20 -61 24 -45 33 27 16 83 14
136 -4z m-3007 -24 c96 -27 233 -97 336 -170 47 -33 155 -126 240 -206 241
-228 393 -350 527 -426 95 -54 47 -41 -75 21 -171 85 -319 180 -688 442 -228
161 -384 228 -531 229 -115 0 -222 -61 -241 -138 l-9 -37 -22 35 c-36 57 -26
137 21 188 28 31 107 71 161 82 60 13 200 3 281 -20z m1894 -32 c13 -73 32
-102 87 -129 l45 -21 -32 -27 c-31 -26 -32 -30 -26 -77 4 -27 10 -60 13 -73 6
-21 5 -22 -14 -12 -46 25 -78 14 -130 -45 l-50 -55 -6 35 c-4 21 -15 40 -28
47 -28 15 -106 5 -165 -21 -25 -11 -48 -19 -50 -17 -2 2 4 20 12 40 8 20 12
43 9 51 -10 26 -80 46 -159 46 -75 0 -88 7 -59 30 8 8 14 25 12 39 -4 32 -64
68 -128 76 -63 9 -90 22 -90 44 0 11 9 21 23 24 318 72 514 102 679 102 l47 0
10 -57z m933 26 c311 -83 460 -261 389 -465 -55 -160 -161 -291 -322 -395
-147 -95 -277 -135 -591 -181 -178 -25 -582 -25 -728 1 -58 10 -106 19 -107
20 -1 0 105 1 235 2 287 1 413 15 667 75 254 59 461 198 501 336 19 64 12 130
-16 165 -23 29 -34 20 -20 -16 13 -35 13 -126 0 -126 -5 0 -10 7 -10 15 0 24
-62 87 -104 104 l-39 17 1 130 c2 125 -10 208 -47 323 l-10 33 54 -7 c30 -3
97 -18 147 -31z m-796 -106 c21 -40 10 -47 -34 -22 -43 25 -67 63 -76 119 l-6
40 50 -53 c28 -30 57 -67 66 -84z m-3253 2 c3 -3 0 -32 -5 -65 -5 -33 -7 -106
-4 -161 l6 -101 -77 -5 c-134 -8 -239 -73 -292 -180 -27 -53 -31 -72 -31 -142
0 -68 4 -90 29 -141 29 -62 118 -156 160 -170 l22 -7 -26 -24 -27 -25 -19 25
c-35 45 -86 69 -134 64 l-43 -5 -18 54 c-10 29 -31 69 -47 88 -23 29 -35 35
-66 35 l-38 0 -7 54 c-3 30 -17 86 -31 124 -29 80 -30 106 -10 200 44 212 168
330 395 377 60 13 252 16 263 5z m4494 -83 c17 -34 21 -82 9 -139 -10 -53 -22
-47 -29 14 -4 32 -18 71 -37 100 l-30 49 23 8 c30 11 45 4 64 -32z m-3337 17
c39 -8 72 -20 75 -25 4 -5 4 -9 1 -9 -14 0 -222 42 -225 46 -10 10 86 3 149
-12z m1317 -9 c69 -20 78 -34 49 -70 l-23 -29 -39 31 c-21 17 -50 43 -63 57
l-24 26 24 0 c14 0 48 -7 76 -15z m-1516 -11 c122 -37 160 -44 279 -55 112
-11 130 -15 168 -42 24 -16 42 -30 40 -32 -4 -3 -229 20 -283 30 -61 11 -299
67 -305 72 -3 3 35 39 46 43 0 0 25 -7 55 -16z m2332 -39 c6 -34 -11 -116 -29
-134 -11 -12 -15 -10 -25 15 -6 16 -12 49 -13 74 -1 37 3 46 24 57 34 17 37
17 43 -12z m-2188 -75 c55 -11 168 -26 250 -33 l150 -13 170 -120 c94 -65 198
-137 233 -159 34 -22 62 -42 62 -45 0 -11 -139 -32 -245 -37 l-110 -5 -120 46
c-66 26 -154 61 -195 78 -176 72 -413 206 -445 251 -14 21 -21 88 -10 99 3 3
41 -5 83 -18 42 -13 122 -33 177 -44z m-432 -72 c42 -44 75 -83 73 -85 -10
-11 -196 102 -212 128 -8 14 22 39 45 39 9 0 51 -37 94 -82z m2040 51 c33 -9
38 -14 33 -32 -4 -12 -9 -34 -12 -49 -6 -24 -9 -26 -28 -16 -45 23 -146 93
-146 100 0 12 109 10 153 -3z m-3356 -36 c-17 -33 -47 -160 -47 -200 0 -26 -1
-26 -13 -8 -24 35 -27 69 -11 122 15 47 71 130 81 119 2 -2 -2 -17 -10 -33z
m3832 -34 c17 -6 31 -15 31 -19 0 -24 -150 -93 -166 -77 -8 8 42 84 65 97 21
12 32 12 70 -1z m1336 -15 c24 9 19 -36 -11 -99 -29 -61 -84 -127 -145 -176
l-40 -32 45 65 c56 80 93 159 102 216 5 34 9 40 20 31 8 -6 21 -9 29 -5z
m-1558 -6 c6 -7 13 -28 16 -45 l7 -33 -46 0 c-53 0 -154 27 -154 41 0 5 1 9 3
9 1 0 27 9 57 20 64 22 104 25 117 8z m-2973 -48 c16 -6 28 -20 32 -37 4 -15
15 -45 25 -65 11 -21 19 -41 19 -46 0 -5 -22 -4 -49 1 -70 15 -134 -5 -187
-58 -89 -89 -60 -212 71 -300 143 -97 367 -126 598 -79 60 12 72 12 98 -1 48
-25 34 -33 -49 -28 -80 6 -122 -5 -151 -40 -10 -13 -18 -13 -59 0 -60 18 -126
12 -156 -16 l-23 -22 -47 21 c-66 28 -140 27 -161 -2 -13 -19 -17 -21 -25 -8
-5 8 -6 18 -4 22 3 5 2 7 -3 6 -12 -3 -109 53 -163 94 -161 124 -185 329 -54
463 74 77 215 123 288 95z m915 -37 c63 -43 55 -52 -20 -23 -76 28 -88 37 -69
50 23 15 31 13 89 -27z m3033 -15 c47 -27 68 -62 68 -114 0 -32 -7 -45 -49
-83 -71 -67 -144 -107 -275 -152 -124 -43 -168 -47 -95 -10 107 56 200 153
256 266 17 33 33 72 37 88 8 33 8 33 58 5z m-3700 -143 c79 -59 148 -99 388
-222 107 -55 264 -139 349 -187 196 -112 608 -318 776 -389 278 -116 542 -188
866 -234 181 -25 688 -25 847 0 571 92 1113 373 1324 686 55 83 56 65 1 -44
-110 -220 -318 -409 -623 -564 -518 -265 -1032 -321 -1765 -196 -495 85 -892
245 -1363 549 -108 70 -363 221 -582 347 -179 102 -271 188 -338 315 -23 45
-42 85 -42 90 0 4 23 -17 50 -48 28 -31 78 -77 112 -103z m-902 -73 c11 -35
20 -78 19 -96 -1 -28 -3 -25 -31 33 -35 72 -52 183 -23 146 8 -11 25 -48 35
-83z m718 68 c41 -9 54 -18 86 -61 58 -74 122 -128 248 -205 l113 -69 -40 -7
c-164 -28 -331 -16 -446 32 -159 65 -230 180 -162 261 47 56 103 69 201 49z
m1980 -48 c23 -18 23 -18 -50 -35 -113 -25 -187 -30 -238 -14 l-45 15 35 5
c19 4 82 13 140 23 58 9 107 18 109 20 9 8 27 3 49 -14z m204 -111 c68 -33
161 -71 208 -86 139 -44 141 -45 65 -39 -188 15 -696 143 -574 144 13 0 56 9
94 19 39 11 73 20 77 20 5 1 63 -26 130 -58z m-2768 -90 c18 -20 60 -121 53
-128 -8 -7 -127 129 -121 138 9 16 50 10 68 -10z m206 -173 c18 -13 40 -33 48
-45 l14 -23 -39 14 c-60 21 -123 55 -123 66 0 19 67 10 100 -12z m856 -30
c-10 -6 -41 -16 -68 -24 -44 -11 -48 -11 -36 3 17 21 46 32 88 32 30 0 32 -1
16 -11z m-658 -28 c23 -17 42 -34 42 -39 0 -5 -21 -5 -47 0 -102 18 -108 23
-77 53 22 22 35 20 82 -14z m457 -4 l40 -13 -55 -11 c-128 -25 -144 -24 -117
10 23 30 67 34 132 14z m-227 -16 c23 -10 42 -21 42 -25 0 -3 -40 -5 -90 -5
-81 0 -90 2 -90 18 0 10 3 22 7 25 13 14 89 6 131 -13z m731 -27 c127 -78 121
-68 61 -94 -55 -23 -133 -81 -209 -152 -128 -120 -256 -198 -386 -233 -89 -24
-319 -30 -423 -11 -86 17 -193 59 -214 85 -11 13 -10 15 9 10 42 -11 265 12
371 38 200 50 360 135 534 288 91 79 144 116 167 116 8 0 48 -21 90 -47z m195
-120 c51 -31 57 -43 24 -43 -56 0 -170 -70 -288 -175 -229 -204 -395 -278
-625 -277 -195 0 -469 63 -631 145 -59 30 -79 50 -70 73 5 14 18 15 94 9 71
-6 91 -11 112 -30 37 -35 118 -72 196 -92 49 -12 113 -17 224 -17 132 -1 166
3 234 22 164 47 259 105 431 261 82 75 204 151 241 151 7 0 33 -12 58 -27z"/>
<path d="M7155 4605 c-22 -8 -41 -15 -42 -15 -2 0 -3 -4 -3 -9 0 -4 24 -2 53
6 67 18 125 10 199 -27 68 -35 77 -37 55 -12 -52 57 -184 86 -262 57z"/>
<path d="M7111 4486 c-47 -24 -59 -35 -46 -39 9 -4 25 -2 36 3 17 10 19 7 19
-26 0 -97 101 -153 195 -108 32 15 65 64 65 96 0 10 10 13 34 10 42 -5 58 15
19 23 -15 3 -41 13 -58 22 -90 49 -102 53 -150 52 -36 0 -68 -9 -114 -33z
m116 -31 c-7 -25 -7 -45 2 -75 22 -73 66 -37 59 50 l-3 48 27 -14 c80 -42 15
-145 -82 -130 -97 15 -109 156 -14 156 21 0 21 -2 11 -35z"/>
<path d="M6568 4460 c-47 -41 -78 -92 -78 -130 0 -16 9 -6 28 31 17 32 49 70
80 96 37 30 47 43 34 43 -11 0 -39 -18 -64 -40z"/>
<path d="M7530 4422 c21 -13 139 -36 147 -29 9 10 -44 27 -105 33 -37 3 -52 2
-42 -4z"/>
<path d="M7740 4367 c0 -9 9 -22 20 -30 12 -8 20 -21 18 -28 -2 -8 5 -14 17
-14 14 0 21 8 23 26 3 29 -11 44 -51 54 -21 6 -27 4 -27 -8z"/>
</g>
</svg>
