<?xml version="1.0" standalone="no"?>
<!DOCTYPE svg PUBLIC "-//W3C//DTD SVG 20010904//EN"
 "http://www.w3.org/TR/2001/REC-SVG-20010904/DTD/svg10.dtd">
<svg version="1.0" xmlns="http://www.w3.org/2000/svg"
 width="1408.000000pt" height="768.000000pt" viewBox="0 0 1408.000000 768.000000"
 preserveAspectRatio="xMidYMid meet">
<metadata>
Created by potrace 1.16, written by Peter Selinger 2001-2019
</metadata>
<g transform="translate(0.000000,768.000000) scale(0.100000,-0.100000)"
fill="#000000" stroke="none">
<path d="M1627 7270 c-58 -46 -74 -157 -48 -342 l14 -96 -64 -58 c-102 -92
-340 -333 -395 -400 -67 -80 -92 -135 -110 -236 -37 -204 -64 -267 -224 -528
-46 -74 -97 -164 -113 -200 -59 -129 -33 -240 80 -338 28 -24 68 -68 88 -97
36 -53 87 -95 136 -114 21 -8 29 -20 39 -63 29 -123 100 -216 198 -261 37 -17
67 -22 143 -22 90 0 99 2 172 38 68 34 88 51 168 142 185 213 278 234 603 141
217 -63 324 -62 416 4 l29 20 48 -47 c26 -27 91 -80 143 -120 113 -84 185
-157 235 -237 83 -131 165 -322 250 -577 136 -413 205 -555 339 -698 78 -83
91 -116 146 -371 23 -107 80 -348 126 -534 122 -495 167 -724 167 -861 0 -108
-32 -318 -51 -337 -5 -5 -63 -10 -128 -11 -109 -2 -124 -4 -179 -31 -135 -67
-225 -223 -201 -351 17 -89 148 -158 303 -159 65 0 73 -3 73 -19 0 -34 70 -94
120 -102 25 -4 57 -16 71 -26 47 -33 109 -40 198 -24 75 15 83 14 113 -2 54
-29 179 -23 328 16 155 40 220 69 252 112 57 76 71 127 92 325 22 206 40 255
107 289 44 24 55 74 40 192 -19 145 -15 217 28 473 40 234 57 372 86 695 19
210 31 306 52 412 16 82 16 83 42 75 50 -14 294 -5 431 16 315 49 393 49 885
11 300 -24 620 -22 790 6 317 50 598 148 979 340 l164 82 22 -86 c26 -98 62
-198 115 -321 20 -47 83 -198 140 -336 116 -282 162 -379 276 -574 102 -177
134 -248 160 -350 26 -101 22 -213 -9 -302 -31 -89 -159 -273 -266 -385 -35
-38 -45 -43 -85 -43 -24 0 -82 7 -129 16 -68 13 -93 13 -133 4 -65 -16 -133
-62 -179 -124 -112 -149 -98 -287 35 -346 102 -46 353 -67 470 -40 28 6 109
15 181 19 181 11 199 20 311 164 48 62 151 177 228 258 116 120 164 180 278
347 175 256 200 304 205 391 3 53 -1 79 -23 136 -90 235 -120 354 -132 520
l-6 90 184 -180 c101 -99 247 -234 323 -300 232 -199 336 -343 372 -515 24
-111 2 -343 -45 -485 l-16 -50 -50 -2 c-76 -4 -165 -23 -205 -43 -53 -27 -110
-89 -139 -150 -35 -75 -41 -181 -12 -227 20 -32 85 -73 115 -73 9 0 35 -10 58
-22 35 -19 63 -24 153 -27 61 -1 148 -5 196 -8 153 -8 285 37 389 134 93 86
108 126 139 380 6 44 31 166 55 270 69 288 103 512 113 750 8 183 0 204 -111
322 -45 47 -100 111 -123 141 -100 136 -189 326 -249 534 -88 303 -88 487 1
1251 14 121 28 303 32 405 l6 185 19 -45 c59 -137 104 -389 148 -830 52 -520
117 -859 221 -1156 138 -396 362 -680 640 -814 116 -55 207 -73 339 -67 126 7
197 25 310 79 69 33 101 57 171 127 125 126 189 252 189 373 0 154 -130 238
-265 171 -49 -25 -94 -73 -146 -160 -81 -133 -169 -193 -286 -193 -235 0 -457
278 -576 720 -71 263 -91 436 -132 1150 -17 283 -36 480 -61 625 -93 544 -310
960 -629 1210 -153 120 -285 190 -540 288 -218 83 -348 124 -592 186 -514 130
-822 158 -1393 127 -694 -38 -999 -66 -1885 -173 -313 -38 -663 -38 -1015 0
-467 50 -593 85 -825 227 -104 63 -239 128 -333 160 -112 37 -227 56 -422 70
-203 14 -303 31 -545 90 -407 100 -1042 210 -1209 210 -47 0 -51 2 -104 60
-92 103 -170 134 -266 106 -66 -19 -126 -81 -152 -155 -10 -28 -25 -53 -32
-56 -8 -3 -30 8 -50 24 -21 16 -79 49 -130 75 -51 25 -109 61 -130 80 -68 61
-102 69 -145 36z m109 -81 c27 -22 98 -65 158 -96 88 -45 106 -58 90 -64 -10
-4 -59 -24 -107 -44 -83 -35 -89 -36 -107 -20 -45 41 -122 228 -105 256 10 15
21 11 71 -32z m637 20 c52 -14 108 -67 145 -136 46 -89 62 -155 62 -265 0 -79
4 -106 21 -141 l21 -44 -27 -78 c-31 -91 -28 -148 9 -192 30 -35 55 -23 30 15
-25 37 -22 115 4 172 27 57 28 100 2 151 -18 33 -20 51 -14 112 3 40 1 92 -5
117 -5 24 -9 46 -7 47 7 8 132 -180 164 -246 48 -101 54 -196 19 -324 -13 -48
-20 -90 -15 -93 35 -22 83 125 83 252 0 89 -2 94 -47 186 -26 51 -81 141 -122
198 -41 57 -74 105 -73 106 1 0 35 -2 74 -6 60 -6 82 -13 127 -43 82 -54 126
-122 182 -277 33 -95 83 -178 134 -224 38 -34 128 -86 150 -86 19 0 10 27 -12
37 -44 20 -128 97 -163 147 -19 28 -48 88 -65 134 -45 123 -86 198 -135 248
-25 24 -42 44 -40 44 12 0 362 -63 535 -96 102 -20 289 -60 415 -90 127 -30
239 -57 251 -59 12 -3 37 -30 59 -67 22 -35 71 -97 111 -139 39 -41 80 -91 89
-110 22 -40 31 -161 20 -246 l-8 -58 -14 80 c-24 139 -56 193 -201 332 -119
115 -152 139 -152 112 0 -7 56 -69 125 -139 138 -140 165 -186 186 -304 6 -38
9 -106 6 -152 -3 -63 -2 -84 8 -88 20 -7 32 13 60 93 49 144 51 283 7 383 -10
24 -42 66 -71 93 -29 28 -72 77 -95 110 -67 93 -66 88 -5 82 30 -3 82 -9 116
-12 l61 -7 50 -101 c72 -144 100 -280 115 -547 4 -73 22 -51 25 30 5 106 -15
291 -40 384 -12 44 -39 113 -60 155 -21 41 -36 76 -35 77 1 2 38 -1 81 -5 76
-7 80 -9 112 -47 47 -56 136 -231 177 -350 83 -238 136 -568 144 -891 7 -280
-1 -350 -82 -668 -79 -310 -99 -413 -130 -685 -14 -118 -32 -237 -40 -264 -10
-34 -12 -53 -5 -60 15 -15 25 1 55 94 15 47 59 156 97 243 123 285 165 429
193 667 99 846 99 854 0 1360 -19 102 -43 223 -52 270 -9 47 -26 115 -39 153
-13 37 -19 67 -15 67 4 0 77 -40 162 -88 173 -99 178 -105 218 -252 41 -148
51 -260 51 -551 0 -292 9 -386 50 -503 26 -78 48 -112 62 -98 8 8 6 36 -8 94
-29 131 -25 356 12 573 35 209 40 439 11 514 -9 24 -16 45 -15 46 2 1 51 -7
110 -19 l107 -20 23 -91 c31 -126 29 -273 -8 -520 -25 -163 -29 -219 -28 -395
0 -178 10 -312 30 -412 3 -16 12 -28 20 -28 12 0 14 29 14 168 0 272 26 404
125 638 88 205 96 241 102 423 5 127 3 153 -8 149 -10 -3 -16 -38 -22 -134 -9
-159 -32 -254 -96 -398 -62 -139 -88 -217 -112 -331 l-19 -90 5 125 c3 69 16
199 29 290 14 91 28 201 31 245 8 90 -7 223 -34 303 -10 28 -15 52 -12 52 3 0
89 -9 191 -20 102 -11 192 -20 202 -20 35 0 106 -228 143 -461 8 -52 19 -223
25 -380 5 -164 16 -324 25 -379 17 -102 50 -241 65 -277 11 -27 36 -30 44 -5
10 31 26 344 26 517 0 94 7 289 16 434 21 327 13 413 -44 524 -2 4 50 7 116 7
114 0 121 -1 161 -28 94 -63 137 -164 171 -397 24 -157 58 -298 123 -495 25
-74 48 -151 52 -170 11 -60 16 -70 31 -70 19 0 18 28 -6 235 -25 214 -25 302
0 491 15 120 17 164 9 214 -17 107 -52 170 -122 221 -30 21 -35 29 -21 29 10
1 89 9 174 19 170 20 175 19 239 -35 83 -70 130 -179 212 -497 76 -296 160
-496 252 -602 30 -34 36 -37 42 -23 4 11 -4 45 -19 84 -59 147 -68 206 -75
519 -8 314 -15 357 -74 458 -25 42 -93 110 -132 133 -16 9 3 13 95 23 63 7
129 14 145 17 43 8 105 -41 159 -124 24 -37 74 -101 111 -142 76 -85 107 -141
160 -290 63 -178 155 -347 253 -467 33 -41 72 -57 72 -30 0 6 -18 111 -40 233
-21 122 -46 289 -55 373 -9 83 -25 180 -35 215 -29 91 -90 178 -162 229 l-60
42 179 13 c198 14 219 10 313 -49 88 -55 133 -117 196 -269 57 -140 216 -372
243 -356 16 10 9 38 -33 129 -18 40 -36 88 -40 107 -3 19 -25 73 -48 120 -34
69 -59 101 -128 170 -47 47 -112 103 -143 124 -31 22 -56 40 -55 41 2 1 74 6
160 9 l158 7 50 -50 c66 -66 108 -155 165 -356 26 -88 82 -250 125 -360 107
-275 104 -260 100 -535 -1 -92 4 -152 19 -230 32 -160 55 -478 42 -568 -15
-101 -14 -132 4 -132 8 0 15 1 15 3 0 1 20 99 44 217 47 228 55 285 86 610 34
351 41 481 35 595 -20 370 -87 528 -280 658 -33 22 -88 61 -121 86 -34 25 -70
52 -80 59 -16 10 6 12 122 10 l141 -3 84 -42 c157 -79 234 -170 287 -340 65
-207 122 -402 146 -493 38 -149 45 -137 67 115 11 130 6 284 -12 403 -15 97
-58 183 -128 252 -43 44 -54 59 -38 56 209 -43 228 -49 277 -92 108 -98 130
-258 74 -539 -23 -117 -33 -705 -11 -705 22 0 27 52 27 300 0 188 4 253 25
394 41 275 32 412 -34 518 -17 26 -27 48 -23 48 4 0 41 -9 82 -20 84 -22 109
-44 135 -119 33 -97 13 -223 -68 -439 -50 -130 -59 -200 -33 -237 11 -17 12
-72 6 -330 -13 -493 -37 -637 -167 -1025 -87 -261 -141 -476 -123 -494 18 -18
28 6 55 124 14 63 61 220 105 350 118 349 157 581 162 972 2 102 6 181 10 174
4 -7 17 -77 30 -157 19 -123 22 -184 22 -414 0 -284 -12 -414 -54 -582 -27
-105 -104 -261 -180 -363 -73 -100 -85 -122 -184 -353 -97 -224 -110 -275
-103 -392 2 -49 8 -99 12 -110 11 -30 -23 13 -99 125 l-63 95 8 60 c5 33 16
159 24 280 23 338 28 368 126 712 114 398 135 524 126 773 -7 181 -27 305 -77
460 -48 148 -121 272 -146 247 -4 -3 4 -100 16 -214 30 -265 30 -473 1 -628
-11 -60 -45 -205 -75 -321 -98 -380 -101 -409 -98 -849 l3 -380 -52 70 c-28
39 -79 98 -113 133 -33 34 -55 62 -48 62 39 0 69 185 52 326 -13 112 -53 307
-70 349 -24 55 -22 2 5 -162 31 -186 41 -334 27 -383 l-10 -35 -1 52 c-1 69
-28 269 -42 313 -16 50 -31 371 -33 690 -1 160 -6 277 -12 280 -15 8 -32 -162
-33 -320 -1 -137 7 -233 43 -535 18 -148 46 -461 46 -517 l0 -38 -67 47 c-94
64 -254 140 -340 161 -68 16 -72 19 -82 52 -25 83 -24 142 3 251 50 205 30
320 -104 585 -77 154 -110 202 -130 189 -21 -13 -6 -143 34 -301 19 -77 38
-165 42 -195 9 -82 -33 -244 -101 -385 -36 -73 -55 -126 -55 -149 0 -46 22
-43 31 4 4 18 32 83 63 144 58 114 106 273 106 346 -1 46 -19 134 -59 289 -18
67 -31 130 -28 140 5 23 131 -232 162 -331 33 -103 33 -200 0 -327 -28 -109
-30 -152 -11 -232 l13 -58 -59 0 c-32 0 -94 -7 -136 -16 -89 -18 -222 -78
-222 -99 0 -20 2 -20 105 16 118 41 285 51 397 24 75 -18 188 -63 188 -74 0
-4 -17 -13 -37 -20 -21 -7 -144 -68 -273 -136 -508 -266 -727 -357 -1024 -425
-115 -27 -120 -24 -112 56 8 74 39 156 95 248 109 182 141 269 141 380 0 146
-27 155 -85 29 -52 -113 -151 -262 -259 -393 -138 -167 -189 -252 -210 -352
l-6 -28 -135 0 c-74 0 -135 2 -135 4 0 2 36 31 79 65 92 71 114 99 140 175 27
77 34 168 21 270 -17 140 -39 162 -66 69 -38 -136 -101 -218 -241 -315 -87
-61 -139 -120 -175 -200 l-23 -49 -50 5 c-27 3 -114 9 -192 12 -79 4 -143 9
-143 11 0 2 13 29 29 61 66 133 78 310 36 559 -33 196 -50 253 -74 253 -26 0
-46 -88 -66 -295 -26 -266 -70 -390 -184 -523 l-59 -68 -158 -24 c-170 -24
-420 -37 -442 -22 -11 7 -9 27 12 103 49 179 46 246 -19 449 -44 138 -53 218
-60 560 -8 334 -15 432 -32 438 -10 3 -14 -57 -15 -275 -5 -532 0 -594 62
-778 55 -161 53 -208 -23 -495 -19 -74 -44 -205 -55 -290 l-20 -154 -74 -72
c-86 -82 -147 -120 -238 -150 -74 -24 -86 -49 -35 -73 77 -37 182 -21 286 45
l42 26 -8 -89 c-15 -183 -17 -189 -186 -367 -60 -64 -109 -120 -109 -125 0
-20 27 -30 56 -22 47 13 110 48 149 82 19 17 35 26 35 19 0 -7 -12 -80 -26
-164 -27 -154 -28 -210 -8 -438 6 -62 5 -67 -17 -78 -82 -42 -111 -116 -134
-338 -8 -81 -22 -171 -31 -200 -16 -58 -68 -123 -112 -141 -33 -13 -252 -67
-309 -76 -63 -10 -133 4 -161 32 -22 22 -24 31 -19 79 7 65 43 132 92 171 41
33 45 53 10 53 -35 0 -99 -61 -130 -125 -20 -40 -26 -68 -26 -118 l0 -65 -68
-12 c-62 -12 -71 -11 -114 8 -57 25 -71 55 -64 130 7 71 53 150 100 175 46 24
49 47 5 47 -24 0 -41 -10 -74 -44 -48 -51 -76 -124 -78 -203 0 -34 -5 -53 -12
-53 -26 0 -45 13 -59 41 -33 64 -7 172 60 247 50 56 111 86 203 101 84 13 118
36 147 96 70 143 86 348 48 600 -12 77 -25 167 -28 200 l-6 60 58 -61 c32 -34
83 -103 112 -153 54 -91 79 -115 66 -64 -13 55 -91 171 -166 247 l-77 78 -11
87 c-6 48 -11 92 -11 98 0 11 121 -63 230 -142 67 -48 112 -101 130 -151 l10
-29 -18 25 c-53 77 -240 235 -258 217 -11 -11 22 -46 84 -87 72 -49 133 -122
191 -231 23 -43 47 -79 52 -79 47 0 -9 199 -81 290 -29 37 -75 71 -251 183
-102 65 -96 50 -133 326 l-24 185 34 40 c58 67 157 276 205 431 34 109 21 103
-68 -32 -39 -60 -99 -141 -134 -182 l-63 -74 -27 134 c-14 74 -32 147 -38 162
-30 77 -6 177 88 366 32 64 70 150 85 191 31 90 87 344 116 530 11 74 29 173
40 220 34 151 35 162 15 158 -14 -2 -27 -39 -61 -176 -24 -94 -47 -180 -53
-190 -5 -9 -27 -84 -50 -165 -60 -215 -91 -287 -188 -438 -83 -127 -111 -189
-130 -283 l-8 -39 -90 75 c-139 115 -221 210 -305 351 -68 114 -100 151 -100
114 0 -32 124 -258 180 -329 37 -46 118 -124 201 -194 77 -64 154 -137 171
-162 43 -62 63 -133 92 -329 15 -92 29 -183 32 -201 l5 -33 -53 27 c-29 14
-97 53 -150 86 -54 33 -102 57 -108 53 -8 -5 -7 -11 2 -22 20 -25 146 -106
234 -152 l82 -42 7 -57 c3 -31 9 -65 11 -75 6 -18 4 -18 -28 -1 -18 9 -70 42
-116 72 -57 39 -86 52 -93 45 -14 -14 66 -81 168 -142 l78 -46 41 -335 c23
-184 49 -388 58 -453 20 -146 20 -183 1 -288 -20 -109 -51 -203 -73 -223 -10
-8 -52 -22 -94 -30 -139 -27 -226 -85 -277 -187 -16 -33 -33 -81 -37 -106 l-7
-46 -75 7 c-104 10 -112 15 -112 79 0 72 16 122 51 162 30 34 31 55 4 55 -20
0 -71 -63 -86 -107 -7 -21 -13 -64 -13 -95 l-1 -57 -25 16 c-39 25 -49 44 -50
89 0 101 67 201 172 253 58 29 68 31 177 31 120 1 137 6 159 46 24 45 56 249
56 359 0 140 -46 375 -179 910 -52 209 -108 443 -124 520 -16 77 -38 164 -49
193 -11 28 -19 52 -17 52 2 0 36 -20 76 -45 94 -58 218 -110 231 -97 16 16 1
30 -62 62 -95 48 -231 129 -287 172 -133 102 -240 302 -362 683 -23 72 -45
137 -48 145 -3 8 22 -11 55 -44 33 -32 64 -56 70 -52 6 3 6 22 1 48 -17 91
-10 158 27 263 65 181 72 218 85 462 14 273 8 408 -26 567 -53 252 -52 408 1
614 17 66 22 98 14 106 -16 16 -25 0 -85 -149 -88 -217 -116 -339 -122 -521
-6 -161 3 -255 39 -404 11 -47 21 -121 22 -165 1 -79 0 -81 -61 -201 -77 -151
-89 -195 -73 -264 20 -84 31 -76 45 33 4 26 11 47 18 47 13 0 97 116 134 184
23 42 31 116 13 116 -5 0 -10 -11 -10 -25 0 -32 -19 -69 -80 -160 -26 -38 -57
-86 -69 -105 l-22 -35 6 35 c4 19 31 79 60 132 58 104 85 180 85 237 0 20 -14
104 -31 186 -56 270 -50 520 16 720 l23 70 -5 -70 c-6 -81 8 -208 42 -385 35
-182 39 -275 26 -533 -15 -273 -19 -296 -72 -435 -32 -84 -43 -126 -48 -196
l-6 -90 -51 60 c-35 41 -75 110 -131 224 -91 190 -130 253 -201 331 -60 66
-62 79 -26 164 52 119 96 252 113 340 l18 90 8 -49 c11 -71 0 -148 -40 -275
-38 -121 -45 -191 -20 -191 9 0 16 14 20 38 3 20 22 91 43 157 32 103 37 133
36 210 -1 60 -7 108 -20 145 -23 66 -50 79 -58 28 -3 -18 -10 -69 -17 -113
-14 -100 -39 -180 -95 -312 -24 -56 -44 -114 -44 -129 l0 -25 -59 41 c-33 23
-91 69 -130 101 l-71 60 41 49 c42 49 71 114 62 137 -11 27 -39 12 -61 -32
-32 -67 -96 -130 -165 -165 -97 -48 -169 -43 -422 35 -74 23 -110 28 -200 29
-109 1 -112 0 -187 -37 -66 -32 -92 -54 -188 -157 -83 -88 -127 -127 -166
-146 -105 -52 -246 -40 -326 26 -36 29 -90 125 -103 181 l-7 26 49 -8 c26 -4
86 -12 133 -18 48 -6 113 -22 150 -37 119 -50 199 -30 290 73 128 144 97 255
-62 222 -63 -14 -105 -34 -195 -94 -97 -66 -161 -87 -263 -88 -113 -1 -179 21
-238 80 -42 42 -44 47 -38 85 4 22 22 73 42 112 42 87 52 137 31 154 -18 15
-41 7 -61 -22 -13 -21 -18 -22 -66 -12 -44 9 -56 8 -82 -7 -43 -25 -58 -22
-58 11 1 45 41 127 162 329 140 232 171 304 198 459 29 159 53 201 202 358
125 131 151 147 179 106 8 -10 51 -33 96 -49 74 -26 85 -28 98 -15 18 18 18
18 4 67 -22 79 -98 133 -151 107 -13 -6 0 11 28 37 31 30 68 54 94 62 23 7 48
15 55 17 8 3 15 -9 19 -37 9 -54 44 -136 62 -143 37 -14 58 56 52 179 -3 63
-5 70 -25 73 -12 2 -43 -6 -69 -17 -26 -12 -49 -20 -50 -18 -5 4 149 93 176
102 19 6 31 -2 70 -44 26 -28 54 -51 62 -51 27 0 68 40 68 66 0 29 -41 74 -67
74 -10 0 -13 3 -7 9 13 12 114 44 120 38 3 -3 1 -45 -5 -93 -9 -89 -3 -120 20
-97 6 6 19 60 29 121 25 148 37 185 77 232 46 54 96 69 166 49z m-719 -132
c10 -26 34 -71 53 -100 38 -57 38 -58 -30 -93 -22 -12 -28 -12 -32 -2 -7 23
-25 180 -25 222 0 47 10 39 34 -27z m333 -178 c17 -15 17 -35 -1 -42 -7 -3
-28 10 -47 30 l-34 36 34 -7 c19 -3 40 -11 48 -17z m-217 -181 c0 -91 -11 -91
-31 -1 -13 56 -8 83 16 83 12 0 15 -15 15 -82z m3022 -45 l77 -24 34 -107 c19
-59 42 -150 52 -202 9 -52 34 -185 55 -295 22 -110 44 -235 50 -278 19 -142
12 -343 -20 -616 -17 -141 -37 -314 -46 -386 -26 -222 -71 -380 -179 -625
l-46 -105 6 60 c20 211 56 393 131 675 24 91 51 201 59 245 36 190 36 500 0
760 -55 398 -133 665 -247 841 -24 38 -48 75 -52 82 -9 15 10 11 126 -25z
m-3217 -79 c13 -14 28 -38 33 -53 l10 -28 -67 24 c-36 12 -67 23 -68 23 -12 0
2 32 19 44 31 22 45 20 73 -10z m-135 -4 c-6 -11 -16 -20 -22 -20 -6 0 -3 9 7
20 10 11 20 20 22 20 2 0 -1 -9 -7 -20z m7769 -169 c22 -26 88 -81 146 -121
58 -40 118 -88 135 -106 150 -172 181 -462 120 -1123 -29 -307 -58 -537 -67
-528 -2 3 -8 63 -14 133 -5 71 -21 194 -35 274 -23 130 -25 160 -19 295 9 183
4 204 -100 465 -40 102 -97 264 -126 360 -60 204 -98 287 -156 349 -24 25 -43
46 -43 48 0 2 27 3 59 3 58 0 60 -1 100 -49z m543 12 c35 -7 162 -124 194
-179 14 -24 32 -66 40 -92 19 -62 35 -326 26 -425 l-7 -77 -63 222 c-96 335
-150 434 -293 532 l-54 38 65 -7 c36 -4 77 -9 92 -12z m-4313 -119 c39 -96 40
-223 2 -478 -17 -115 -32 -232 -33 -260 -1 -28 -5 75 -8 229 -5 210 -11 300
-24 360 -16 72 -52 192 -71 237 -6 15 1 14 52 -6 55 -23 59 -27 82 -82z m2736
66 c79 -45 138 -102 172 -167 42 -78 50 -115 68 -289 12 -120 49 -349 80 -504
5 -25 5 -25 -20 5 -69 81 -148 236 -224 438 -54 146 -84 197 -163 284 -36 40
-78 94 -93 120 -15 27 -43 64 -62 85 l-35 36 88 7 c49 3 94 8 99 10 23 8 40 3
90 -25z m-660 -74 c29 -13 69 -44 94 -72 95 -108 111 -174 111 -474 0 -198 4
-262 26 -385 l5 -30 -15 25 c-36 59 -97 237 -135 391 -77 316 -124 432 -212
518 l-52 51 64 0 c46 0 78 -7 114 -24z m2966 -37 c43 -15 63 -38 101 -118 52
-112 59 -165 68 -551 5 -195 11 -364 14 -375 2 -11 13 -54 22 -95 29 -128 162
-489 217 -590 29 -52 88 -178 132 -280 89 -205 125 -269 214 -380 37 -45 61
-85 61 -99 0 -14 -5 -87 -12 -163 l-11 -137 -30 47 c-16 26 -69 88 -117 138
-48 50 -95 105 -104 123 -34 65 -92 61 -171 -10 -67 -62 -137 -200 -169 -332
-12 -50 18 -44 85 17 67 60 131 96 170 96 53 -1 148 -62 277 -177 l62 -56 0
-76 c0 -80 20 -219 44 -308 8 -29 12 -53 8 -53 -3 0 -32 20 -64 45 -116 92
-216 119 -327 91 -147 -38 -256 -126 -421 -341 -46 -60 -104 -134 -128 -162
l-44 -53 26 -11 c52 -24 233 41 363 129 32 22 100 74 152 116 135 110 133 110
296 116 77 4 146 8 154 11 9 3 21 -18 37 -65 13 -39 24 -77 24 -87 0 -9 -32
-97 -71 -195 -88 -222 -111 -308 -107 -405 3 -64 5 -74 22 -74 14 0 25 21 50
90 44 122 57 145 125 217 32 35 67 81 78 102 l20 40 18 -35 c30 -59 86 -130
178 -227 49 -52 95 -109 103 -128 20 -47 18 -176 -6 -384 -24 -214 -37 -287
-100 -555 -29 -123 -54 -257 -60 -325 -8 -94 -16 -126 -41 -177 -63 -131 -218
-213 -400 -213 -103 0 -124 16 -123 91 1 34 9 70 22 95 23 45 84 104 107 104
20 0 19 19 0 26 -42 16 -121 -52 -158 -134 -14 -34 -18 -60 -15 -109 l4 -65
-77 4 c-102 4 -133 25 -137 92 -5 74 21 148 68 190 22 20 40 40 40 46 0 16
-30 11 -66 -10 -49 -31 -78 -99 -82 -192 -2 -43 -8 -78 -14 -78 -5 0 -23 13
-39 29 -34 35 -39 89 -13 163 37 109 125 168 264 175 47 2 95 9 107 15 33 16
59 90 83 229 32 187 36 271 16 369 -10 46 -26 101 -36 122 l-18 37 42 25 c58
35 120 102 152 166 28 55 37 120 19 127 -6 2 -35 -18 -65 -43 -61 -52 -119
-80 -198 -96 l-54 -11 -101 100 c-56 54 -133 126 -171 159 l-70 59 96 6 c123
7 184 36 273 130 66 71 142 205 132 233 -10 26 -30 19 -107 -40 -92 -69 -172
-110 -252 -129 -91 -20 -290 -45 -304 -37 -35 20 -344 334 -344 349 0 35 48
120 113 200 132 162 217 327 297 576 28 89 69 212 90 272 52 147 62 189 58
260 -5 102 -41 82 -168 -95 -95 -133 -141 -222 -200 -394 -60 -174 -93 -243
-165 -346 -92 -132 -135 -240 -135 -337 l0 -43 -40 44 c-52 56 -63 93 -50 169
12 75 47 150 114 246 107 153 123 204 136 423 11 188 16 211 85 358 91 193
122 359 131 705 5 158 2 248 -10 365 -17 154 -61 400 -90 495 -24 76 -20 115
24 232 83 219 104 347 75 451 -10 34 -22 65 -26 68 -11 7 -12 24 0 24 4 0 23
-5 42 -11z m-4098 -40 c53 -64 64 -236 39 -596 -7 -95 -12 -264 -12 -375 0
-247 -10 -412 -22 -379 -30 81 -49 261 -58 536 -6 160 -15 326 -21 370 -22
166 -71 351 -125 470 -3 8 25 8 88 3 77 -7 96 -12 111 -29z m518 12 c133 -84
162 -194 124 -466 -16 -114 -17 -328 0 -405 2 -14 -4 2 -16 35 -39 116 -78
285 -99 427 -32 223 -70 322 -151 392 l-41 35 43 4 c24 2 55 4 70 5 14 1 45
-11 70 -27z m2068 -126 c36 -64 107 -235 96 -235 -14 0 -96 141 -142 243 -29
67 -53 123 -53 126 0 14 63 -71 99 -134z m1718 80 c30 -20 89 -144 113 -239
24 -94 40 -288 40 -481 0 -97 6 -172 20 -245 24 -131 48 -313 56 -428 6 -106
11 -132 24 -132 18 0 5 222 -25 450 -13 99 125 -366 155 -522 60 -312 77 -372
147 -498 42 -77 96 -147 101 -132 1 5 -17 48 -42 94 -78 146 -105 229 -156
483 -65 320 -169 655 -204 655 -23 0 -36 106 -46 380 -11 293 -28 398 -85 518
-19 41 -34 76 -33 77 5 5 196 -72 287 -115 l88 -42 63 -101 c115 -185 238
-489 247 -614 3 -41 10 -76 15 -79 17 -11 38 19 58 83 24 78 26 178 4 253 -41
147 -48 180 -37 191 24 24 215 -248 295 -418 l39 -83 1 -167 c1 -190 -18 -296
-71 -401 -26 -51 -128 -162 -149 -162 -4 0 -22 50 -40 111 l-33 110 55 60 c61
68 110 160 127 239 12 56 7 374 -6 418 -18 55 -25 10 -25 -150 0 -95 -4 -199
-10 -232 -13 -81 -60 -176 -116 -236 l-47 -50 -23 32 c-19 25 -24 45 -25 92
-1 109 -11 151 -36 154 l-23 3 -1 -243 c-1 -236 -2 -240 -14 -158 -7 47 -17
103 -24 125 -17 60 -68 325 -86 450 -34 238 -65 327 -221 637 -58 114 -101
188 -110 188 -20 0 -18 -29 6 -82 31 -70 57 -196 85 -408 40 -304 52 -344 170
-575 103 -202 136 -284 155 -385 6 -30 18 -61 27 -67 15 -11 15 -26 4 -160
-13 -158 -58 -533 -64 -539 -8 -9 -138 184 -176 261 -22 44 -65 139 -95 212
-30 73 -79 174 -109 225 -41 71 -73 147 -130 318 -42 124 -84 257 -92 295 -12
51 -19 167 -25 422 -12 432 -18 468 -108 645 -5 10 77 -19 105 -37z m584 -262
c39 -25 94 -67 122 -93 l51 -47 -3 -61 c-2 -43 5 -84 23 -142 18 -56 26 -103
26 -153 0 -96 -13 -112 -28 -37 -7 33 -26 90 -41 127 -16 38 -49 116 -74 175
-46 111 -68 151 -124 231 -18 26 -31 47 -28 47 3 0 37 -21 76 -47z m-195 -205
c86 -171 119 -282 154 -513 20 -128 41 -235 56 -282 14 -42 -111 187 -137 253
-38 95 -54 168 -79 359 -20 160 -27 205 -36 238 -11 37 8 13 42 -55z m-1142
-352 c35 -121 56 -256 63 -401 9 -213 -19 -394 -113 -714 -105 -358 -119 -437
-133 -716 -6 -110 -13 -236 -17 -279 -6 -76 -7 -78 -23 -58 -14 19 -15 42 -11
154 3 73 2 212 -3 308 -15 302 6 471 108 866 30 116 62 253 71 305 22 123 22
388 0 567 -9 74 -16 139 -15 145 1 22 50 -95 73 -177z m-9064 -136 c12 -8 11
-10 -7 -10 -12 0 -34 -11 -50 -24 l-28 -24 20 -38 c11 -22 21 -43 24 -49 7
-18 -51 39 -80 79 l-29 39 33 17 c36 20 94 25 117 10z m29 -71 l-31 -62 -19
29 c-25 38 -24 41 10 49 16 3 37 15 47 26 27 30 26 23 -7 -42z m11026 -282
l27 -115 -32 -71 c-48 -103 -131 -174 -222 -191 -21 -4 -38 -5 -38 -3 0 3 20
25 45 49 92 93 135 224 143 434 l5 145 22 -66 c13 -37 35 -119 50 -182z
m-10192 130 c15 -40 -83 -171 -155 -208 -50 -25 -67 -24 -150 11 -38 17 -79
30 -89 30 -31 0 -22 15 19 29 20 8 69 34 107 59 39 25 95 56 125 69 62 25 135
30 143 10z m10243 -542 c-24 -61 -114 -156 -183 -193 -50 -26 -142 -56 -150
-48 -1 1 -12 51 -23 112 -12 60 -23 117 -26 127 -6 18 -5 18 20 1 34 -21 107
-14 167 16 58 30 132 101 160 155 l24 46 13 -87 c12 -77 12 -91 -2 -129z m38
-202 c7 -101 7 -103 -19 -129 -56 -56 -177 -85 -265 -64 -57 14 -80 39 -80 86
0 30 2 32 45 37 75 8 166 59 234 132 34 36 61 71 62 78 2 36 17 -52 23 -140z
m20 -330 l7 -131 -38 -12 c-51 -16 -103 -51 -173 -115 -69 -64 -118 -92 -125
-73 -2 7 -11 90 -19 183 -9 94 -19 191 -22 217 l-6 48 38 -16 c62 -26 186 -15
260 22 36 17 61 25 65 19 4 -5 9 -69 13 -142z m-1314 -84 c-7 -35 -26 -102
-44 -149 -18 -47 -54 -151 -79 -231 -97 -306 -177 -469 -317 -645 -64 -80 -95
-131 -115 -189 -6 -20 -7 -20 -21 -1 -21 29 -18 132 6 209 13 41 47 106 90
172 95 143 133 222 186 383 25 75 67 178 93 228 59 112 196 303 208 290 2 -2
-1 -33 -7 -67z m-6183 29 c-3 -8 -6 -5 -6 6 -1 11 2 17 5 13 3 -3 4 -12 1 -19z
m-27 -125 c-28 -125 -54 -193 -141 -373 -44 -93 -73 -169 -80 -209 l-11 -62
-25 23 c-23 21 -25 29 -20 84 6 77 37 147 128 286 79 121 109 182 141 285 12
40 24 70 26 68 2 -2 -6 -48 -18 -102z m1988 -50 c55 -302 49 -441 -28 -593
l-29 -57 -77 -6 c-42 -4 -92 -7 -111 -7 l-35 0 42 47 c55 63 107 158 136 248
23 73 32 135 55 368 6 64 15 117 18 117 4 0 17 -53 29 -117z m4513 42 c15 -22
68 -84 117 -137 90 -96 105 -116 136 -193 l17 -40 -43 41 c-64 61 -146 122
-200 150 -82 41 -149 29 -242 -45 -21 -17 -40 -31 -42 -31 -6 0 23 76 46 121
53 103 130 184 170 177 8 -2 26 -21 41 -43z m-3094 -42 c-7 -77 -36 -152 -99
-254 -101 -165 -147 -297 -134 -380 6 -35 4 -38 -22 -43 -53 -11 -215 -26
-221 -21 -10 11 31 109 74 175 23 36 74 103 113 149 99 116 193 251 244 348
24 46 45 83 47 83 2 0 1 -26 -2 -57z m4127 0 c3 -27 8 -84 12 -129 6 -80 5
-81 -22 -103 -39 -30 -68 -35 -145 -25 -63 9 -102 6 -141 -11 -18 -7 -20 -2
-32 75 -6 35 -5 36 46 62 29 14 80 50 113 80 57 52 126 97 152 98 6 0 14 -21
17 -47z m-1834 -128 c-10 -204 -25 -250 -129 -402 -55 -78 -86 -135 -102 -185
-22 -67 -24 -71 -30 -43 -22 102 -2 246 52 362 17 38 53 122 81 188 42 102
125 252 134 243 1 -2 -1 -75 -6 -163z m-905 -9 c72 -48 147 -118 204 -190 60
-75 171 -236 171 -248 0 -13 -208 -9 -311 7 -54 8 -174 39 -268 70 -94 30
-177 55 -185 55 -12 0 -56 116 -56 149 0 13 355 191 380 191 8 0 38 -15 65
-34z m-1975 -225 c-17 -127 -28 -142 -195 -285 l-57 -49 -71 2 c-108 3 -110 4
-82 54 40 71 92 124 186 188 101 69 135 106 182 196 l32 63 7 -48 c4 -26 3
-80 -2 -121z m4765 -129 c5 -28 3 -33 -22 -43 -103 -39 -170 -96 -212 -179
-16 -33 -32 -57 -34 -52 -9 13 -76 333 -83 392 -6 54 -5 56 22 68 19 9 56 11
128 7 89 -6 105 -4 136 13 l35 19 12 -96 c7 -53 15 -111 18 -129z m-3010 -42
c184 -61 272 -79 425 -87 l115 -6 -41 -19 c-76 -33 -158 -48 -259 -49 -113 -1
-157 8 -278 51 l-85 31 -21 55 c-22 58 -25 74 -15 74 3 0 75 -23 159 -50z
m3044 -137 c12 -54 24 -108 27 -120 6 -20 3 -23 -24 -23 -93 0 -214 -80 -229
-151 -7 -34 -7 -33 -29 36 -20 64 -21 73 -7 120 31 107 151 230 229 234 6 1
21 -43 33 -96z m-2347 -50 c92 -139 175 -240 310 -379 l117 -120 5 -140 5
-139 -39 -80 c-49 -102 -63 -159 -58 -237 3 -53 14 -84 67 -191 35 -70 69
-126 75 -124 22 8 5 70 -47 170 -49 96 -52 106 -51 172 1 54 8 89 34 155 l33
85 27 -100 c14 -55 45 -148 68 -207 71 -179 64 -204 -125 -481 -158 -233 -183
-264 -317 -400 -64 -65 -152 -164 -195 -220 -43 -56 -87 -110 -98 -119 -35
-32 -91 -48 -165 -48 -40 0 -102 -5 -138 -11 -168 -27 -362 -26 -395 1 -10 8
-15 31 -15 68 0 102 56 174 145 189 41 7 47 30 9 39 -44 11 -99 -13 -142 -61
-46 -52 -66 -115 -60 -184 5 -48 4 -49 -19 -40 -117 44 -138 106 -75 222 37
69 111 132 170 147 39 9 62 8 127 -6 172 -35 204 -23 318 119 187 232 247 357
247 512 l0 60 73 1 c79 2 157 19 157 35 0 7 -40 9 -117 7 l-117 -3 -18 70
c-10 39 -39 112 -63 164 l-45 93 34 -6 c66 -13 173 20 342 103 166 82 228 127
240 175 10 43 -1 41 -51 -9 -35 -36 -83 -65 -198 -120 -182 -88 -244 -107
-328 -103 l-63 3 -63 105 c-34 58 -63 108 -63 111 0 4 26 -4 58 -16 125 -51
243 -55 410 -15 108 26 159 47 145 61 -8 8 -48 3 -138 -15 -181 -37 -280 -35
-399 5 -50 17 -96 36 -103 42 -11 12 -113 234 -113 248 0 4 39 -6 88 -22 281
-96 501 -108 684 -37 81 30 97 43 80 60 -6 6 -40 -2 -98 -23 -84 -31 -97 -33
-224 -33 -151 -1 -219 11 -425 72 l-130 39 -31 79 c-18 44 -31 80 -29 82 1 2
29 -13 61 -33 119 -71 295 -122 334 -96 21 15 10 21 -72 38 -40 8 -95 24 -123
36 -69 30 -223 116 -232 130 -11 18 -82 177 -78 177 1 0 20 -7 41 -16 125 -53
323 -70 467 -39 73 15 180 59 198 81 6 8 15 14 19 14 4 0 36 -44 72 -97z
m1366 -28 c59 -27 142 -84 142 -97 0 -4 -53 -8 -118 -8 -143 0 -172 -12 -302
-121 -91 -76 -189 -143 -267 -182 -61 -31 -152 -61 -160 -53 -4 4 7 21 24 39
16 17 73 86 125 152 53 67 114 137 137 157 141 129 296 170 419 113z m-6616
-177 c-27 -56 -64 -123 -83 -148 l-33 -45 -8 48 c-9 48 -8 49 39 101 26 29 66
76 88 103 22 28 41 49 43 48 2 -2 -19 -50 -46 -107z m7663 2 c13 -36 32 -88
43 -116 l21 -52 -37 -62 c-39 -67 -80 -100 -123 -100 -22 0 -30 -7 -42 -37
l-15 -37 -35 69 c-60 120 -89 196 -79 208 5 7 12 32 15 55 8 67 56 108 152
133 65 16 76 9 100 -61z m-706 -290 c1 -42 -33 -103 -93 -167 -32 -34 -70 -86
-86 -115 -54 -97 -27 13 50 207 26 66 54 140 61 163 l13 44 27 -54 c16 -29 28
-64 28 -78z m836 -2 l43 -73 -46 -23 c-40 -19 -60 -22 -134 -20 -90 3 -129 18
-98 38 8 5 24 10 36 10 35 0 87 43 119 97 17 28 31 49 33 48 2 -2 23 -36 47
-77z m1034 16 c87 -34 95 -142 23 -286 -48 -96 -131 -197 -132 -161 0 12 -8
28 -18 35 -10 7 -24 33 -31 58 -14 47 -79 120 -106 120 -8 0 -15 3 -15 6 0 4
25 47 56 95 56 89 91 124 142 139 38 12 37 12 81 -6z m-7956 -71 c-7 -59 -26
-81 -109 -124 -49 -24 -81 -34 -127 -36 l-62 -3 55 26 c67 31 163 99 209 148
19 20 36 36 37 36 1 0 -1 -21 -3 -47z m5702 -107 c-52 -78 -134 -151 -200
-175 -98 -37 -245 -24 -296 25 l-30 28 133 17 c186 24 266 52 377 136 24 18
46 31 49 29 2 -3 -13 -30 -33 -60z m1271 0 c-36 -61 -102 -106 -177 -120 -36
-6 -37 -6 -86 66 -68 100 -68 99 -31 80 24 -12 59 -17 123 -17 79 0 96 3 135
26 25 14 49 22 54 18 5 -4 -3 -28 -18 -53z m130 -63 c73 -66 75 -69 71 -106
-3 -21 -18 -56 -34 -78 -15 -22 -39 -62 -53 -89 l-26 -49 -57 37 c-65 44 -207
169 -207 183 0 5 10 9 23 9 59 0 197 103 197 147 0 7 3 13 6 13 3 0 39 -30 80
-67z m587 -42 c37 -24 55 -51 72 -107 7 -25 23 -55 34 -65 26 -24 19 -41 -27
-73 -42 -28 -155 -82 -192 -91 l-25 -6 -1 94 c-1 70 -7 106 -22 140 l-20 45
29 12 c15 7 45 25 66 41 45 34 50 34 86 10z m-408 -71 c3 -5 10 -34 16 -65 9
-50 8 -61 -11 -98 -11 -23 -33 -56 -50 -74 l-29 -32 -46 16 c-26 8 -49 22 -52
30 -7 18 14 60 62 127 19 26 38 65 41 86 6 37 7 38 35 28 16 -5 31 -14 34 -18z
m204 -36 c16 -36 34 -180 26 -214 -5 -21 -14 -29 -37 -34 -38 -8 -166 -8 -195
0 -21 6 -21 7 13 50 44 58 57 110 46 174 l-9 50 72 0 c68 0 72 -1 84 -26z
m-7539 -177 c-6 -39 -14 -54 -50 -85 -52 -45 -110 -81 -129 -82 -8 0 22 38 66
84 45 45 88 95 98 110 10 15 19 25 20 24 2 -2 0 -24 -5 -51z m5954 -139 c-30
-57 -56 -87 -112 -125 l-54 -37 -18 24 c-10 13 -25 36 -34 52 l-17 28 35 0
c42 0 104 23 166 62 25 15 46 28 48 28 1 0 -5 -15 -14 -32z"/>
<path d="M2360 7016 c-80 -44 -110 -228 -56 -338 17 -33 17 -33 -31 -13 -45
19 -53 19 -53 0 0 -23 161 -88 177 -72 8 9 -26 47 -43 47 -19 0 -48 142 -40
197 8 61 39 129 66 143 30 16 56 -10 75 -74 18 -62 38 -325 29 -374 l-7 -35
-13 24 c-7 13 -13 19 -14 12 0 -20 32 -82 46 -87 29 -11 36 34 29 168 -12 249
-33 358 -76 393 -24 19 -63 23 -89 9z"/>
<path d="M3272 6877 c2 -8 28 -34 58 -58 50 -40 62 -59 135 -205 83 -169 115
-211 219 -299 149 -125 216 -167 216 -135 0 6 -24 45 -54 88 -71 101 -97 156
-135 278 -17 55 -45 122 -62 148 -33 50 -106 110 -174 144 -88 44 -210 67
-203 39z m207 -84 c106 -61 154 -126 196 -268 15 -49 43 -121 62 -159 l35 -69
-39 31 c-56 45 -147 142 -171 182 -11 19 -37 73 -58 120 -34 78 -54 114 -101
179 -17 23 -17 24 7 16 14 -4 45 -18 69 -32z"/>
<path d="M1874 6745 c-5 -12 41 -110 86 -182 21 -33 1 -42 -23 -10 -64 81 -65
82 -78 70 -23 -23 33 -108 83 -126 18 -6 68 34 68 55 0 6 -15 36 -34 67 -18
31 -43 75 -55 99 -22 44 -38 53 -47 27z"/>
<path d="M2020 6530 c0 -5 22 -35 50 -65 99 -109 130 -199 140 -410 7 -140 13
-174 43 -275 19 -63 42 -142 52 -175 9 -32 28 -82 42 -109 57 -111 70 -204 39
-264 -21 -41 -29 -45 -88 -43 -65 1 -99 -18 -148 -83 -50 -68 -64 -77 -44 -29
37 88 55 112 118 157 78 56 106 105 106 189 0 60 -21 127 -40 127 -7 0 -8 -28
-4 -84 6 -74 4 -88 -15 -122 -12 -22 -38 -50 -58 -64 -77 -54 -103 -85 -136
-165 -25 -59 -32 -86 -26 -103 5 -12 13 -22 19 -22 28 0 73 35 110 84 22 30
44 58 50 61 6 4 38 8 70 9 78 2 109 25 134 97 16 47 17 62 7 118 -7 35 -26 93
-42 130 -46 98 -60 141 -47 138 21 -4 38 47 38 113 0 41 -11 105 -30 175 -24
89 -30 130 -30 213 0 121 -12 158 -66 198 -48 36 -106 95 -162 162 -39 47 -82
69 -82 42z m254 -272 c12 -19 16 -53 16 -135 0 -89 5 -128 30 -218 29 -107 37
-198 21 -239 -5 -13 -15 7 -36 75 -44 146 -54 206 -55 314 0 91 -16 199 -36
249 -7 19 -7 19 18 0 15 -10 33 -31 42 -46z"/>
<path d="M1852 6478 c-5 -7 -25 -50 -45 -95 -19 -44 -61 -116 -94 -160 -33
-43 -68 -93 -79 -111 -24 -41 -47 -47 -127 -33 -117 20 -147 9 -147 -52 0 -22
-15 -55 -45 -99 -46 -69 -55 -101 -32 -115 8 -4 17 -17 21 -27 6 -18 11 -15
49 26 28 31 55 50 83 57 48 13 73 38 107 107 20 39 33 53 54 57 19 4 43 26 76
69 l47 62 0 -36 c0 -19 -3 -50 -6 -67 -5 -25 -9 -29 -21 -20 -20 17 -28 3 -15
-26 17 -37 15 -52 -13 -89 -14 -18 -31 -61 -39 -100 -16 -75 -33 -100 -82
-116 -67 -22 -22 -67 50 -50 50 11 102 53 128 103 17 33 21 57 19 112 -3 101
-3 100 13 215 24 161 17 149 79 143 47 -5 56 -2 85 22 58 48 64 155 11 211
-24 26 -61 31 -77 12z m66 -73 c23 -69 -10 -135 -68 -135 -40 0 -43 11 -19 67
11 26 27 63 35 81 17 42 35 37 52 -13z m-404 -375 c5 -5 -1 -29 -14 -54 -23
-48 -47 -59 -70 -31 -14 17 -31 85 -23 97 6 10 94 0 107 -12z m-123 -136 c-14
-6 -38 -24 -53 -39 -43 -43 -31 -4 20 62 l24 33 18 -23 c18 -21 17 -22 -9 -33z
m319 -17 c0 -41 -21 -97 -46 -124 -18 -20 -22 -22 -16 -8 5 11 12 43 15 72 6
53 25 95 39 87 4 -3 8 -15 8 -27z"/>
<path d="M2966 6481 c-7 -11 21 -126 39 -162 8 -14 45 -60 83 -101 87 -97 116
-164 188 -441 30 -116 60 -219 65 -229 6 -11 18 -18 27 -16 15 3 17 20 16 148
0 166 -19 252 -81 379 -30 59 -59 96 -148 185 -93 93 -116 122 -140 179 -29
65 -38 76 -49 58z m298 -430 c60 -114 97 -274 95 -406 l0 -40 -25 54 c-13 29
-36 106 -50 169 -30 132 -78 285 -101 322 -15 23 -14 23 15 -4 17 -16 47 -59
66 -95z"/>
<path d="M1360 6450 c-30 -30 -25 -56 18 -85 21 -14 49 -43 61 -65 23 -42 45
-51 55 -24 17 45 -3 130 -40 168 -32 31 -67 33 -94 6z m80 -52 c22 -36 27 -63
7 -37 -7 8 -24 24 -39 33 -15 10 -25 22 -22 27 11 18 35 8 54 -23z"/>
<path d="M1246 6341 c-25 -28 -56 -115 -56 -159 0 -74 32 -144 59 -128 6 4 5
21 -5 48 -20 58 -17 114 11 183 14 33 25 63 25 68 0 13 -17 7 -34 -12z"/>
<path d="M1321 6279 c-12 -34 -15 -137 -5 -163 3 -9 12 -16 20 -16 10 0 13 17
13 68 0 37 2 84 6 105 6 29 4 37 -8 37 -8 0 -20 -14 -26 -31z"/>
<path d="M1505 6239 c-74 -32 -134 -84 -117 -101 6 -6 18 -5 33 3 13 7 49 11
79 10 89 -3 181 54 154 97 -18 28 -72 25 -149 -9z m115 -15 c0 -9 -68 -34 -92
-33 -19 0 -15 4 17 20 39 18 75 25 75 13z"/>
<path d="M2495 6237 c-5 -18 1 -44 19 -82 14 -30 29 -79 35 -108 5 -28 14 -63
19 -77 l10 -25 7 28 c12 47 0 118 -35 197 -39 91 -47 100 -55 67z"/>
<path d="M1959 6192 c-104 -54 -119 -134 -54 -287 29 -70 38 -108 42 -170 5
-70 3 -83 -15 -105 -19 -23 -26 -25 -96 -22 -60 2 -84 -2 -121 -19 -25 -12
-47 -25 -50 -29 -5 -8 -162 45 -182 62 -10 8 -17 8 -26 -1 -9 -10 -5 -19 20
-41 28 -25 114 -60 147 -60 6 0 11 -15 12 -34 1 -76 49 -88 88 -22 14 24 36
46 48 50 13 3 61 -2 107 -11 138 -27 175 -78 106 -147 -19 -20 -35 -42 -35
-51 0 -26 -36 0 -48 35 -6 16 -16 30 -21 30 -21 0 -10 -55 22 -120 28 -58 35
-65 61 -65 34 0 62 33 72 83 10 49 -22 43 -42 -8 -17 -43 -37 -48 -42 -12 -4
29 39 67 99 87 104 35 123 109 54 209 l-40 58 -3 147 c-2 80 -4 182 -5 226 -1
44 2 110 6 146 8 55 6 68 -8 82 -22 23 -34 22 -96 -11z m65 -74 c-9 -64 -9
-92 -2 -370 l4 -158 37 -52 c56 -82 58 -131 8 -158 -18 -9 -19 -6 -14 30 5 36
2 43 -30 74 -28 26 -54 38 -106 50 -106 24 -163 21 -200 -10 -17 -14 -31 -32
-31 -40 0 -8 -5 -14 -11 -14 -6 0 -9 12 -7 28 5 44 72 72 168 70 89 -1 116 10
136 57 28 69 15 173 -40 305 -35 83 -38 148 -10 187 19 26 77 63 98 63 5 0 5
-27 0 -62z"/>
<path d="M8594 6075 c3 -30 31 -133 62 -227 62 -195 76 -250 99 -393 9 -55 29
-138 45 -185 45 -131 165 -403 180 -408 22 -8 6 43 -70 234 -75 187 -102 274
-120 394 -15 94 -42 203 -75 299 -14 41 -25 77 -25 80 0 3 24 -37 53 -89 67
-123 86 -148 178 -246 185 -198 252 -348 260 -584 5 -143 0 -350 -10 -350 -4
0 -18 75 -31 168 -47 355 -91 529 -150 600 -29 34 -45 18 -21 -21 54 -90 77
-191 131 -569 40 -275 49 -313 75 -313 27 0 33 40 41 285 13 392 -43 566 -256
795 -46 50 -103 120 -126 156 -43 66 -150 277 -191 377 -14 34 -27 52 -39 52
-15 0 -16 -7 -10 -55z"/>
<path d="M2810 6053 c0 -41 23 -109 76 -230 26 -60 62 -164 79 -233 31 -121
32 -124 40 -85 12 57 -6 147 -50 251 -20 49 -56 142 -78 206 -40 113 -67 149
-67 91z"/>
<path d="M2486 6062 c-3 -6 3 -48 14 -95 11 -47 29 -136 41 -198 19 -106 39
-166 122 -369 19 -47 37 -110 41 -140 4 -46 4 -51 -6 -30 -128 286 -158 366
-158 433 0 16 -4 26 -10 22 -30 -19 3 -156 75 -315 31 -67 65 -156 76 -198 10
-41 21 -78 24 -81 16 -15 28 29 33 112 5 106 -4 142 -69 285 -49 106 -65 159
-89 304 -31 180 -74 303 -94 270z"/>
<path d="M1556 5943 c-19 -32 -51 -75 -71 -97 -26 -26 -34 -41 -26 -49 22 -22
87 47 139 149 20 39 20 54 1 54 -4 0 -23 -26 -43 -57z"/>
<path d="M7920 5899 c0 -29 46 -206 85 -329 57 -177 65 -219 75 -392 11 -193
28 -286 77 -418 54 -147 109 -242 220 -379 158 -196 189 -228 204 -214 11 11
9 26 -8 80 -35 111 -43 170 -41 328 1 168 -12 247 -63 373 -39 98 -146 280
-269 457 -158 228 -212 335 -244 483 -8 35 -36 44 -36 11z m206 -452 c223
-331 303 -474 345 -617 19 -65 23 -103 25 -275 1 -110 7 -216 13 -235 6 -19
11 -39 11 -43 0 -12 -123 141 -182 226 -81 119 -158 388 -158 557 0 81 6 110
21 110 16 0 101 -124 140 -205 46 -94 76 -214 85 -340 8 -106 21 -85 23 36 2
141 -63 322 -163 457 -55 74 -88 94 -114 68 -14 -14 -17 -35 -16 -119 1 -93 6
-125 49 -307 17 -70 -30 57 -51 140 -18 70 -27 141 -34 270 -9 166 -23 247
-66 365 -11 30 5 10 72 -88z"/>
<path d="M4150 5804 c-48 -106 -108 -272 -124 -344 -8 -36 -20 -117 -26 -180
-25 -271 -32 -325 -60 -439 -16 -67 -39 -180 -50 -253 -11 -73 -32 -176 -47
-230 -18 -70 -23 -102 -15 -110 7 -7 13 -4 21 10 18 33 79 282 91 372 6 47 24
137 40 200 32 129 46 222 55 355 17 252 32 324 121 554 29 73 41 118 35 124
-6 6 -21 -15 -41 -59z"/>
<path d="M7294 5788 c-4 -7 -10 -89 -12 -183 -3 -129 1 -194 14 -270 12 -70
19 -193 24 -410 9 -375 7 -367 149 -682 28 -62 60 -150 71 -195 25 -103 26
-267 4 -397 -25 -143 -9 -152 74 -43 102 135 187 324 218 488 12 69 15 123 11
239 -9 249 -44 360 -210 651 -155 273 -218 424 -276 658 -36 143 -50 173 -67
144z m97 -378 c50 -140 113 -272 215 -450 157 -274 193 -385 201 -620 8 -213
-24 -358 -119 -542 -39 -76 -116 -190 -104 -154 4 10 11 63 17 117 19 176 -13
327 -121 559 -110 236 -120 289 -120 613 0 193 -4 266 -20 362 -12 71 -20 162
-19 225 l1 105 14 -50 c8 -27 33 -102 55 -165z"/>
<path d="M7438 4938 c-20 -35 -16 -257 5 -338 20 -74 96 -266 139 -353 35 -71
60 -97 94 -97 39 0 55 51 55 173 0 145 -31 289 -89 402 -32 64 -140 213 -163
225 -24 14 -27 13 -41 -12z m42 -18 c0 -6 29 -52 64 -103 87 -129 125 -235
148 -412 16 -125 0 -239 -31 -221 -28 18 -151 304 -181 420 -32 127 -38 326
-9 326 5 0 9 -5 9 -10z"/>
<path d="M1315 5558 c26 -85 111 -192 173 -217 29 -12 35 -12 43 0 6 10 2 18
-13 29 -50 34 -98 84 -138 145 -42 65 -78 89 -65 43z"/>
<path d="M1400 5567 c0 -15 137 -193 197 -255 41 -42 43 -43 88 -37 41 7 48 5
70 -19 30 -32 43 -33 51 -2 8 32 -2 62 -29 86 -16 16 -35 20 -86 20 l-66 0
-107 110 c-58 60 -109 110 -112 110 -3 0 -6 -6 -6 -13z m368 -277 l14 -25 -19
24 c-18 21 -26 23 -65 18 -29 -4 -51 -2 -62 6 -13 10 -4 11 50 7 58 -4 69 -8
82 -30z"/>
<path d="M2950 5435 c0 -44 -7 -120 -15 -170 -8 -49 -12 -91 -9 -94 14 -14 40
22 51 70 15 64 7 212 -13 249 -12 23 -13 17 -14 -55z"/>
<path d="M5218 5473 c-3 -4 0 -111 5 -238 10 -242 1 -439 -29 -680 -34 -265
-74 -402 -202 -690 -83 -188 -159 -407 -169 -487 -5 -40 -3 -48 10 -48 11 0
29 27 50 74 39 82 92 164 182 278 157 199 227 423 255 810 14 209 12 494 -5
616 -15 103 -72 350 -86 365 -4 5 -9 5 -11 0z m68 -413 c28 -211 2 -690 -50
-921 -43 -189 -89 -285 -222 -462 -41 -54 -83 -116 -94 -137 -11 -22 -22 -40
-25 -40 -10 0 78 236 135 360 116 256 156 384 190 608 28 188 42 377 43 560 0
89 1 161 3 159 2 -1 11 -59 20 -127z"/>
<path d="M6694 5428 c3 -23 10 -225 15 -448 6 -223 17 -470 25 -549 12 -112
14 -205 10 -415 -7 -300 -1 -354 56 -518 20 -57 30 -103 30 -144 0 -48 4 -63
16 -68 25 -10 83 57 131 150 94 181 104 360 29 519 -36 76 -80 135 -101 135
-30 0 -55 -145 -55 -320 0 -121 7 -159 28 -147 5 4 12 84 15 179 3 95 10 187
15 203 l9 30 27 -44 c16 -24 37 -69 48 -100 27 -75 29 -222 4 -306 -19 -63
-73 -172 -106 -215 l-20 -25 0 36 c0 20 -19 92 -42 160 l-43 124 0 350 c-1
235 -5 379 -14 440 -10 71 -32 808 -24 823 7 15 75 -290 102 -458 14 -83 38
-178 75 -285 41 -123 55 -180 60 -245 5 -62 18 -117 47 -200 22 -63 51 -148
63 -187 27 -88 36 -99 36 -45 0 23 -22 111 -49 195 -37 115 -52 178 -59 257
-8 84 -20 133 -61 248 -37 104 -57 184 -76 295 -47 283 -141 608 -179 615 -16
4 -18 -1 -12 -40z"/>
<path d="M2580 5307 c0 -9 10 -52 21 -94 18 -65 21 -94 16 -175 -5 -81 -4 -98
8 -98 37 0 42 199 7 295 -24 64 -52 104 -52 72z"/>
<path d="M1225 5224 c-169 -41 -205 -54 -205 -69 0 -21 9 -20 173 20 173 42
177 43 177 61 0 19 -28 17 -145 -12z"/>
<path d="M1393 5165 c-85 -44 -179 -73 -300 -93 -58 -9 -101 -21 -99 -27 6
-19 157 -7 249 19 133 39 245 102 222 124 -6 6 -32 -2 -72 -23z"/>
<path d="M1397 5059 c-44 -33 -163 -70 -244 -76 -55 -5 -73 -9 -73 -21 0 -22
178 -11 248 16 62 24 122 67 122 88 0 20 -20 17 -53 -7z"/>
<path d="M2571 5006 c-33 -84 -33 -162 0 -129 17 17 29 97 20 129 l-8 29 -12
-29z"/>
<path d="M5906 4983 c-3 -3 -6 -75 -6 -159 0 -257 -21 -404 -111 -776 -54
-223 -61 -310 -27 -316 39 -7 134 237 169 434 25 142 32 405 12 425 -10 10
-13 64 -13 200 0 171 -5 211 -24 192z m11 -625 c-10 -175 -69 -423 -123 -518
-14 -24 -14 -23 -8 20 3 25 22 106 41 180 40 156 83 362 83 396 0 13 3 24 7
24 3 0 3 -46 0 -102z"/>
<path d="M4286 4918 c-3 -13 -10 -50 -16 -83 -17 -90 -47 -179 -89 -264 -65
-128 -108 -250 -136 -381 -16 -73 -48 -177 -77 -248 -71 -178 -91 -281 -67
-365 14 -52 36 -45 60 18 10 28 48 100 84 160 80 135 111 228 131 399 26 228
42 310 88 452 33 105 46 163 51 237 7 85 5 97 -9 97 -8 0 -18 -10 -20 -22z
m-116 -503 c-5 -22 -16 -105 -25 -185 -26 -240 -49 -314 -143 -467 -33 -54
-62 -105 -65 -113 -3 -8 -6 -3 -6 12 -2 52 21 134 70 251 32 75 62 171 83 265
30 128 82 289 92 280 1 -2 -1 -21 -6 -43z"/>
<path d="M6151 4698 c0 -122 -9 -192 -45 -393 -39 -209 -109 -821 -99 -862 9
-39 32 -59 56 -50 38 15 107 212 132 383 53 361 34 1034 -29 1034 -11 0 -14
-25 -15 -112z m35 -475 c-7 -251 -22 -414 -52 -543 -22 -98 -73 -240 -86 -240
-15 0 -7 92 36 445 42 334 86 596 100 588 5 -4 6 -99 2 -250z"/>
<path d="M8055 4420 c-8 -13 14 -80 76 -235 58 -146 73 -219 67 -329 -4 -79
-8 -91 -65 -203 -63 -123 -86 -184 -76 -209 7 -20 20 -17 42 9 11 12 56 65
100 116 89 105 145 206 163 294 10 48 10 71 -4 137 -29 139 -136 319 -235 395
-49 37 -58 41 -68 25z m218 -288 c52 -106 52 -108 52 -202 0 -88 -2 -100 -34
-160 -18 -36 -47 -83 -64 -105 -38 -49 -97 -117 -97 -111 0 2 24 51 53 107
l52 103 0 120 c-1 133 -10 173 -75 330 -60 144 -59 150 5 83 39 -41 71 -89
108 -165z"/>
<path d="M9313 6204 c-33 -14 -11 -95 85 -314 36 -81 58 -151 76 -239 14 -71
32 -131 42 -142 88 -97 117 211 41 427 -36 99 -101 206 -150 244 -27 21 -73
33 -94 24z m101 -76 c61 -63 97 -134 126 -248 35 -134 38 -345 5 -345 -11 0
-22 36 -58 186 -15 65 -48 157 -85 240 -61 137 -84 203 -74 213 15 15 40 2 86
-46z"/>
<path d="M8120 6323 c-24 -8 -40 -35 -40 -65 0 -56 82 -181 174 -266 40 -37
50 -42 63 -31 31 27 -10 201 -67 284 -40 59 -94 91 -130 78z m81 -72 c43 -46
80 -134 86 -206 l4 -50 -37 40 c-93 102 -150 199 -139 236 10 31 45 22 86 -20z"/>
<path d="M10500 5593 c0 -122 82 -1040 105 -1183 31 -191 54 -238 139 -283 41
-22 67 -44 85 -73 14 -23 31 -50 37 -60 9 -15 15 -16 25 -7 16 16 -14 128
-115 434 -123 372 -191 666 -226 979 -11 102 -23 193 -26 203 -8 27 -24 20
-24 -10z m253 -1229 c42 -127 77 -234 77 -237 0 -3 -28 11 -62 31 -47 28 -66
46 -79 77 -36 80 -71 313 -94 615 -4 58 0 48 38 -95 24 -88 78 -264 120 -391z"/>
<path d="M11715 2043 c-27 -15 -74 -32 -104 -38 -62 -13 -73 -27 -38 -49 61
-41 183 -28 233 25 23 24 25 29 11 35 -9 3 -30 -4 -47 -16 -17 -12 -50 -24
-73 -27 l-42 -5 60 32 c73 39 86 50 79 61 -8 14 -25 10 -79 -18z"/>
<path d="M10755 5099 c4 -13 17 -41 29 -63 28 -51 34 -21 7 33 -24 47 -47 66
-36 30z"/>
<path d="M9988 1591 c-72 -49 -121 -58 -188 -36 -28 9 -54 15 -57 11 -15 -15
12 -37 62 -51 47 -14 64 -15 105 -5 56 13 153 77 158 103 5 26 -18 20 -80 -22z"/>
</g>
</svg>
