<?xml version="1.0" standalone="no"?>
<!DOCTYPE svg PUBLIC "-//W3C//DTD SVG 20010904//EN"
 "http://www.w3.org/TR/2001/REC-SVG-20010904/DTD/svg10.dtd">
<svg version="1.0" xmlns="http://www.w3.org/2000/svg"
 width="1408.000000pt" height="768.000000pt" viewBox="0 0 1408.000000 768.000000"
 preserveAspectRatio="xMidYMid meet">
<metadata>
Created by potrace 1.16, written by Peter Selinger 2001-2019
</metadata>
<g transform="translate(0.000000,768.000000) scale(0.100000,-0.100000)"
fill="#000000" stroke="none">
<path d="M5482 7206 c-40 -13 -100 -40 -133 -60 -69 -41 -70 -41 -63 -21 11
28 -27 29 -80 2 -28 -14 -118 -73 -201 -131 -255 -180 -344 -216 -583 -236
-163 -14 -222 -24 -417 -71 -88 -21 -172 -39 -186 -39 -15 0 -50 15 -78 34
-126 85 -284 57 -351 -62 -20 -35 -30 -42 -93 -61 -42 -13 -74 -17 -81 -12 -6
5 -56 21 -110 35 -97 26 -131 42 -210 98 -74 53 -154 27 -190 -61 -33 -84 -30
-242 8 -352 l14 -41 -87 -86 c-99 -98 -294 -354 -343 -450 -46 -91 -49 -170
-12 -294 3 -11 -27 -50 -93 -120 -54 -57 -147 -159 -207 -226 -60 -68 -141
-150 -180 -184 -39 -33 -79 -73 -88 -87 -36 -53 -12 -162 43 -191 10 -6 34
-34 52 -63 19 -29 42 -58 51 -66 10 -8 29 -37 42 -63 27 -53 67 -83 125 -93
20 -4 47 -17 60 -31 37 -39 123 -66 229 -71 77 -4 120 0 224 21 199 40 291 34
428 -30 77 -37 104 -38 93 -3 -6 18 -4 18 29 4 77 -32 214 -31 202 1 -15 40
206 89 364 82 116 -6 178 -30 241 -94 50 -51 61 -54 75 -19 l9 25 45 -36 c50
-41 174 -104 203 -104 15 0 18 5 13 24 l-6 24 56 -31 c31 -16 82 -38 113 -47
45 -14 57 -22 59 -41 14 -101 97 -501 118 -569 33 -108 50 -140 73 -140 14 0
24 -19 45 -83 35 -108 60 -150 85 -142 23 7 33 -26 61 -199 22 -140 55 -278
130 -546 71 -251 87 -325 111 -510 32 -250 19 -382 -51 -520 -50 -99 -82 -117
-239 -130 -124 -11 -192 -39 -245 -102 -20 -23 -53 -49 -75 -59 -65 -29 -137
-148 -129 -215 4 -35 31 -43 59 -18 20 18 20 18 14 -9 -8 -30 8 -57 33 -57 8
0 35 18 59 41 l45 41 22 -21 c12 -12 28 -21 35 -21 8 0 10 -7 6 -20 -7 -20 10
-60 25 -60 5 0 29 17 54 39 l44 38 54 -18 c29 -10 68 -18 87 -19 27 0 32 -3
27 -17 -4 -9 -10 -36 -13 -60 -8 -57 15 -68 59 -27 25 23 30 25 24 9 -18 -46
-18 -91 -2 -104 14 -12 23 -7 66 33 27 25 52 46 55 46 3 0 16 -7 29 -15 20
-14 23 -21 16 -50 -5 -23 -4 -40 5 -52 11 -15 18 -13 81 30 73 50 91 56 100
32 3 -8 31 -27 62 -42 51 -25 67 -28 152 -27 63 1 124 9 180 23 63 17 133 25
270 31 297 13 363 45 430 206 78 189 115 238 178 239 32 0 37 3 40 25 6 57 12
72 25 61 15 -12 31 -3 41 24 5 11 12 83 16 160 8 161 14 181 110 385 80 169
97 230 106 368 5 72 11 102 20 102 34 0 50 169 31 337 -8 68 -7 71 12 66 27
-7 33 21 29 136 -2 66 0 91 9 91 27 0 39 58 49 230 4 63 8 117 10 119 10 11
222 -52 328 -98 119 -51 146 -56 146 -26 0 21 7 20 106 -26 49 -23 118 -52
153 -66 81 -30 342 -95 358 -88 7 2 13 11 13 20 0 20 -2 20 120 -15 136 -39
298 -70 331 -63 15 3 32 15 38 26 10 19 11 16 6 -18 -20 -156 -27 -254 -22
-343 5 -103 16 -136 43 -125 11 4 14 -9 14 -72 0 -78 24 -259 41 -302 5 -13
15 -23 24 -23 8 0 15 -9 15 -20 0 -11 23 -109 50 -217 47 -181 50 -200 40
-246 -28 -131 -133 -209 -305 -227 -142 -15 -168 -27 -286 -133 -84 -74 -126
-147 -114 -194 5 -23 10 -25 40 -20 32 5 35 4 35 -19 0 -35 23 -39 69 -13 37
20 42 21 58 7 10 -8 26 -18 36 -21 9 -4 17 -16 17 -27 0 -27 33 -26 72 1 l30
22 45 -22 c24 -12 76 -27 114 -33 62 -11 90 -10 227 10 133 19 192 22 387 20
298 -3 370 13 466 99 45 41 74 91 83 143 4 19 9 130 11 245 4 217 24 386 38
332 4 -15 14 -27 21 -27 23 0 37 58 43 173 5 98 8 107 24 102 22 -7 39 21 39
67 1 75 59 278 80 278 4 0 31 -39 60 -87 151 -249 227 -346 439 -563 179 -183
214 -257 177 -382 -30 -103 -85 -143 -215 -158 -103 -12 -127 -18 -184 -48
-31 -17 -59 -43 -82 -77 -18 -28 -41 -58 -50 -65 -9 -8 -25 -30 -35 -50 -45
-88 -30 -152 26 -115 24 16 27 16 45 -1 11 -10 17 -24 14 -32 -6 -17 12 -52
27 -52 7 0 21 9 33 20 21 20 21 20 73 -2 29 -12 52 -28 52 -34 0 -24 39 -26
70 -4 27 19 32 20 57 7 42 -22 144 -29 230 -18 43 6 132 15 199 20 176 13 229
41 494 265 313 264 376 345 410 528 11 59 10 75 -8 146 -11 43 -38 115 -60
158 -93 185 -169 451 -216 749 -41 265 -40 254 -18 248 32 -8 34 12 8 79 -13
35 -27 85 -30 111 -5 44 -4 48 13 42 41 -13 50 45 25 164 -6 30 -5 33 13 27
38 -12 46 15 32 96 -17 100 -16 231 5 368 23 149 24 361 2 510 -17 113 -81
456 -93 495 -4 15 4 11 36 -18 48 -43 88 -48 117 -16 15 17 20 40 22 114 4 87
-10 162 -44 250 l-7 20 23 -20 23 -20 -7 40 c-14 77 -87 281 -140 390 -64 130
-161 278 -258 392 -102 120 -600 584 -798 744 -102 81 -235 167 -352 224 -86
43 -103 54 -85 59 22 6 22 7 3 21 -29 22 -258 110 -361 139 -174 48 -570 122
-785 147 -135 15 -452 15 -600 0 -63 -7 -225 -28 -360 -47 -407 -56 -503 -65
-787 -71 -401 -8 -588 14 -734 88 -35 17 -121 70 -192 116 -141 94 -234 135
-348 153 -67 11 -75 15 -75 34 1 20 -4 21 -99 24 -72 2 -120 -3 -172 -16 -53
-13 -69 -15 -62 -5 18 20 2 43 -28 43 -15 -1 -61 -12 -101 -24z m22 -71 c-17
-26 -12 -45 11 -45 8 0 53 13 102 29 48 16 110 33 138 37 46 6 49 6 36 -9 -29
-36 -8 -45 106 -45 167 -1 260 -33 428 -147 50 -34 131 -85 180 -114 50 -29
117 -72 150 -96 33 -23 71 -48 85 -55 l25 -13 -20 23 c-11 13 -38 36 -60 53
-22 16 -31 27 -20 23 61 -22 235 -38 460 -43 295 -6 482 7 910 67 154 21 332
44 395 51 147 16 495 16 625 0 460 -57 1000 -190 1000 -246 0 -10 7 -21 15
-25 8 -5 67 -33 131 -64 219 -104 358 -209 738 -555 388 -353 488 -463 617
-678 73 -122 156 -312 160 -368 5 -69 15 -127 40 -231 24 -102 31 -207 15
-233 -13 -20 -42 0 -88 61 -55 73 -58 79 -108 237 -81 250 -185 475 -255 553
-22 24 -39 38 -40 31 0 -6 31 -71 68 -145 78 -152 174 -428 221 -633 35 -154
104 -507 122 -620 19 -119 16 -368 -5 -510 -14 -89 -17 -153 -14 -247 l6 -126
-24 10 c-42 19 -47 0 -24 -93 26 -109 26 -123 1 -109 -11 5 -22 7 -24 3 -12
-19 -8 -242 7 -373 47 -412 110 -668 227 -921 76 -165 90 -219 78 -303 -10
-77 -32 -136 -70 -191 -35 -52 -173 -184 -324 -311 -256 -214 -290 -233 -454
-245 -64 -5 -146 -14 -183 -19 -102 -15 -190 -13 -217 6 -15 11 -34 15 -59 11
l-37 -6 37 33 c27 24 36 38 32 53 -13 49 31 86 136 113 72 19 110 42 110 67 0
11 -5 11 -28 -1 -15 -8 -57 -20 -92 -26 -100 -18 -150 -53 -167 -116 -11 -41
-67 -104 -92 -104 -11 0 -29 10 -41 22 -18 19 -24 21 -49 11 -26 -9 -29 -9
-24 6 3 9 19 30 36 48 25 27 28 35 17 48 -22 26 47 80 136 107 40 13 74 26 74
31 0 4 -24 7 -52 7 -92 -1 -172 -52 -208 -135 -10 -22 -25 -49 -33 -60 -15
-20 -16 -19 -22 8 -17 64 39 158 117 198 22 11 77 24 126 30 118 13 156 26
206 70 61 54 90 124 90 219 1 120 -33 178 -213 364 -80 83 -167 176 -192 206
-62 73 -175 243 -279 419 -47 79 -97 157 -113 174 -25 27 -29 28 -45 14 -17
-15 -21 -10 -70 88 -53 106 -71 124 -92 85 -11 -20 -12 -19 -37 17 -44 64
-146 250 -232 420 -45 89 -108 201 -140 250 -77 118 -204 234 -228 209 -3 -3
22 -36 57 -73 35 -37 84 -100 111 -140 61 -94 172 -311 164 -322 -3 -5 -47
-20 -98 -32 -73 -18 -132 -24 -287 -28 l-195 -6 0 -29 1 -28 -71 6 c-39 4
-108 15 -153 26 -46 11 -97 20 -114 20 -27 0 -30 -3 -25 -26 4 -23 2 -25 -27
-19 -139 28 -267 60 -353 86 -106 33 -139 33 -130 -1 3 -11 4 -20 3 -20 -2 0
-59 15 -128 34 -68 19 -196 66 -284 104 -87 39 -166 71 -174 72 -29 4 -40 0
-40 -15 0 -20 3 -20 -92 19 -93 38 -176 61 -259 71 l-56 6 -43 197 c-32 143
-44 225 -46 297 -2 55 -6 132 -9 170 -9 109 -52 253 -69 234 -2 -2 5 -53 15
-114 13 -84 16 -140 12 -235 -6 -138 -1 -178 52 -421 35 -158 40 -216 29 -352
-6 -68 -8 -74 -24 -65 -25 16 -53 3 -45 -21 7 -23 25 -175 25 -216 l0 -30 -20
33 c-11 17 -24 32 -30 32 -22 0 -23 -37 -7 -149 10 -64 17 -161 17 -216 -1
-94 -2 -98 -16 -72 -8 15 -21 27 -28 27 -11 0 -15 -36 -18 -173 -6 -197 -6
-199 -108 -417 -89 -190 -101 -232 -107 -373 -5 -97 -8 -115 -19 -106 -20 16
-44 -6 -44 -41 0 -62 -11 -90 -36 -90 -30 0 -95 -58 -127 -113 -13 -23 -41
-83 -62 -134 -66 -162 -106 -182 -385 -193 -145 -6 -203 -12 -270 -30 -112
-31 -247 -33 -308 -6 -44 20 -51 30 -28 39 22 9 29 71 12 112 -14 34 -14 36 8
50 12 8 54 22 92 31 91 21 117 32 108 45 -9 15 -103 5 -164 -16 -25 -9 -61
-31 -80 -49 -19 -18 -55 -41 -78 -51 -24 -10 -59 -37 -78 -59 -19 -22 -37 -36
-41 -32 -4 3 3 13 15 22 41 29 41 128 0 143 -39 14 45 60 142 77 90 15 103 20
94 36 -10 16 -141 0 -194 -23 -25 -11 -55 -30 -67 -41 -23 -21 -23 -21 -23 -1
0 27 24 47 94 79 51 23 78 28 185 33 114 6 131 9 174 34 53 32 105 95 143 176
55 115 66 200 39 313 -8 35 -19 135 -25 223 -6 88 -20 215 -31 282 -20 124
-180 798 -200 843 -10 24 -11 24 -25 5 -14 -18 -15 -18 -43 15 -45 53 -83 127
-107 210 -12 41 -27 76 -33 78 -6 2 -17 -11 -25 -28 l-13 -32 -25 44 c-54 91
-88 169 -142 322 -106 299 -192 486 -221 486 -26 0 -25 -19 1 -77 45 -101 100
-243 154 -398 54 -153 129 -316 182 -393 24 -35 35 -43 53 -40 19 4 25 -1 35
-36 24 -84 122 -216 160 -216 14 0 21 -18 34 -87 10 -49 46 -207 81 -353 77
-319 92 -406 105 -616 5 -88 17 -196 26 -240 23 -112 15 -183 -31 -279 -44
-92 -104 -155 -161 -173 -23 -6 -80 -12 -127 -12 -123 0 -205 -27 -267 -89
-26 -26 -61 -53 -77 -60 -17 -7 -45 -28 -64 -47 -28 -29 -40 -34 -78 -34 -26
0 -63 5 -85 11 l-38 11 21 22 c25 26 28 87 6 106 -43 36 18 75 148 95 25 4 37
11 37 22 0 14 -10 15 -65 10 -76 -7 -140 -37 -163 -76 -9 -16 -29 -37 -44 -47
-29 -19 -78 -85 -78 -104 0 -13 -27 -13 -35 0 -3 6 3 22 14 36 24 31 27 81 6
110 -13 19 -12 23 13 47 15 14 44 33 66 42 46 19 41 30 -9 21 -23 -5 -54 -23
-81 -48 -48 -44 -70 -44 -37 0 43 59 100 82 236 97 69 8 139 21 154 29 69 36
133 140 170 276 36 132 12 459 -52 711 -15 57 -51 190 -80 294 -68 239 -101
377 -120 505 -22 148 -80 285 -110 260 -13 -11 -41 64 -66 178 -10 39 -17 52
-31 52 -10 0 -18 -7 -18 -17 -1 -61 -52 127 -114 424 -20 95 -39 179 -42 187
-11 29 201 -29 283 -77 58 -33 75 6 20 47 -53 40 -123 65 -261 92 -159 32
-201 47 -295 107 -39 26 -77 47 -83 47 -7 0 -8 -14 -4 -41 l6 -41 -41 24 c-23
13 -73 49 -110 81 -73 60 -99 70 -99 37 0 -19 -3 -18 -42 10 -65 47 -136 64
-263 63 -128 -1 -237 -22 -315 -60 -30 -15 -57 -27 -60 -26 -71 16 -73 16 -67
-6 4 -18 2 -20 -21 -15 -15 4 -56 18 -91 31 -63 23 -99 24 -86 3 8 -13 7 -13
-61 11 -32 11 -97 23 -143 26 -83 6 -84 6 -60 24 13 10 20 19 15 19 -6 0 -1 7
10 15 14 11 15 14 4 14 -23 0 -54 -26 -38 -31 23 -8 -97 -46 -214 -69 -128
-24 -220 -22 -303 8 l-50 18 87 6 c140 11 224 48 359 157 40 33 78 55 104 60
57 11 54 36 -6 40 -41 3 -52 -2 -108 -45 -137 -105 -163 -121 -232 -143 -64
-21 -83 -22 -205 -17 -112 4 -139 9 -156 24 -42 37 -42 51 -3 95 44 48 62 88
81 181 11 52 12 72 3 83 -16 19 -28 9 -51 -45 -19 -46 -45 -81 -58 -81 -4 0
-27 16 -51 35 -74 58 -124 39 -78 -30 25 -36 51 -53 57 -37 2 6 15 4 31 -4 21
-11 36 -12 55 -4 36 13 33 0 -12 -50 l-38 -43 -39 49 c-22 27 -61 73 -87 102
-62 69 -63 99 -9 153 50 51 98 53 159 10 22 -16 43 -34 47 -40 10 -18 25 -12
18 7 -15 43 -81 92 -123 92 -17 0 4 27 93 123 371 395 379 405 381 501 1 65
-15 75 -28 16 l-10 -45 -9 42 c-21 93 8 160 163 376 109 151 246 294 372 388
116 86 276 182 374 223 132 57 119 68 119 -98 0 -144 11 -196 40 -196 9 0 11
35 7 138 -7 201 24 292 118 340 117 61 245 -16 365 -219 84 -142 100 -190 99
-299 0 -76 -6 -110 -26 -167 -27 -77 -21 -95 12 -40 42 66 63 162 57 256 -6
107 -28 165 -111 301 -64 106 -67 119 -21 120 11 0 70 12 130 26 164 38 246
51 390 64 193 17 267 35 380 90 55 27 163 95 240 150 179 130 177 129 173 93
-5 -44 24 -39 109 21 74 51 173 103 201 105 9 1 8 -6 -4 -24z m-2608 -520 c72
-48 144 -79 210 -91 21 -3 43 -9 47 -11 5 -3 -23 -23 -62 -44 -39 -21 -96 -54
-128 -75 l-57 -36 -17 21 c-24 29 -55 116 -64 174 -10 67 -25 68 -25 3 0 -65
29 -148 63 -185 l25 -26 -58 -42 -59 -42 -11 52 c-18 78 -24 206 -11 253 12
46 46 94 65 94 7 0 44 -20 82 -45z m6764 -3914 c61 -119 185 -310 207 -318 9
-3 23 -1 33 4 14 10 22 -1 58 -73 44 -88 62 -105 92 -86 15 9 21 5 40 -32 l23
-42 -26 -40 c-33 -51 -64 -143 -72 -220 -7 -56 -9 -60 -30 -57 -29 6 -35 -15
-35 -132 0 -66 -3 -85 -11 -72 -5 9 -16 17 -24 17 -16 0 -18 -5 -44 -126 -27
-120 -41 -288 -38 -449 2 -122 0 -133 -24 -180 -30 -59 -90 -108 -162 -131
-43 -15 -101 -18 -338 -20 -213 -2 -311 -7 -385 -19 -142 -25 -304 -8 -304 31
0 18 -22 18 -65 0 -53 -22 -44 -2 34 75 57 57 77 70 127 84 80 22 104 33 104
46 0 18 -99 5 -155 -20 -52 -23 -155 -109 -175 -146 -16 -30 -45 -32 -60 -5
-13 24 -31 25 -72 4 l-30 -16 22 40 c12 22 34 46 47 53 14 8 29 24 34 36 11
30 62 60 127 74 63 15 63 35 0 33 -55 -2 -120 -34 -150 -74 -12 -17 -27 -30
-34 -30 -7 0 -27 -18 -44 -39 -27 -34 -70 -60 -70 -44 0 19 49 78 81 98 21 14
43 33 49 44 18 35 109 71 205 82 152 17 203 37 279 109 111 105 123 190 58
425 -46 166 -82 325 -82 367 0 30 -18 47 -30 28 -16 -27 -24 39 -24 214 -1
145 -4 180 -15 184 -8 3 -20 -3 -28 -13 -7 -10 -15 -16 -19 -13 -5 6 12 267
22 324 l6 31 56 -13 c31 -8 95 -16 142 -20 100 -7 145 5 137 36 -5 19 0 20
116 20 123 0 256 21 342 53 22 9 43 16 47 16 4 1 30 -44 58 -98z m-5127 -1758
c4 -3 -11 -26 -33 -49 -22 -24 -40 -48 -40 -53 0 -12 -39 -35 -47 -28 -10 10
38 86 69 111 35 28 41 30 51 19z m85 -90 c-3 -33 -7 -38 -34 -44 -18 -3 -48
-16 -68 -28 -20 -13 -36 -19 -36 -16 0 23 60 111 89 131 30 20 37 22 44 9 4
-9 7 -32 5 -52z m182 -32 c0 -32 -4 -40 -23 -45 -13 -3 -40 -17 -60 -30 -41
-28 -45 -22 -21 27 23 45 64 87 86 87 14 0 18 -8 18 -39z m278 -103 c-43 -37
-109 -81 -114 -76 -11 11 60 99 98 122 l43 26 3 -22 c3 -15 -7 -31 -30 -50z
m111 -50 c1 -22 -5 -29 -26 -34 -16 -3 -52 -19 -81 -35 l-53 -30 20 38 c19 38
55 76 101 107 23 15 25 15 32 -1 3 -10 7 -30 7 -45z m191 -41 c0 -40 -15 -57
-51 -57 -14 0 -47 -11 -74 -25 l-47 -26 34 48 c29 41 101 93 130 93 4 0 8 -15
8 -33z m4920 9 c0 -8 -4 -18 -10 -21 -5 -3 -10 3 -10 14 0 12 5 21 10 21 6 0
10 -6 10 -14z"/>
<path d="M4836 6650 c39 -10 88 -25 109 -34 46 -20 51 -20 35 -1 -19 23 -117
55 -168 54 l-47 -1 71 -18z"/>
<path d="M6770 6646 c0 -2 24 -19 53 -36 28 -18 70 -47 92 -64 61 -49 74 -53
35 -11 -54 58 -180 136 -180 111z"/>
<path d="M3523 6608 c-35 -17 -27 -27 15 -21 28 4 45 -1 72 -19 86 -59 133
-195 156 -461 4 -43 9 -65 16 -61 16 10 1 207 -22 300 -48 190 -151 304 -237
262z"/>
<path d="M4880 6563 c0 -5 33 -24 74 -42 40 -18 101 -54 135 -82 70 -56 83
-42 18 18 -61 56 -227 133 -227 106z"/>
<path d="M5888 6530 c-60 -10 -141 -37 -193 -63 -66 -33 -23 -31 77 5 85 30
103 33 208 32 130 0 199 -18 304 -80 32 -19 60 -33 63 -31 7 8 -68 58 -130 88
-109 51 -220 67 -329 49z"/>
<path d="M6960 6409 c63 -63 117 -111 118 -106 5 11 -51 73 -127 140 -115 102
-110 84 9 -34z"/>
<path d="M3550 6412 c0 -15 7 -52 16 -82 15 -54 34 -162 29 -168 -2 -2 -13 15
-26 37 -37 66 -67 64 -48 -3 15 -55 7 -63 -21 -22 -26 38 -44 48 -33 19 10
-29 52 -82 75 -94 20 -11 21 -9 15 25 l-6 37 28 -30 c15 -16 33 -46 40 -68 18
-53 73 -127 123 -163 23 -17 43 -28 46 -26 2 3 -17 31 -43 63 -69 84 -91 140
-104 265 -10 97 -33 178 -52 178 -4 0 -10 14 -14 30 -8 38 -25 39 -25 2z"/>
<path d="M3980 6406 c0 -2 20 -16 44 -30 57 -33 125 -90 153 -129 l23 -31 0
27 c0 32 -57 93 -121 130 -41 23 -99 43 -99 33z"/>
<path d="M6446 6359 c72 -123 190 -309 197 -309 19 0 -144 270 -185 306 -14
13 -18 14 -12 3z"/>
<path d="M3035 6239 c-92 -63 -217 -173 -293 -257 -69 -78 -112 -134 -112
-147 0 -4 66 60 148 142 81 83 191 183 245 223 53 40 97 74 97 76 0 13 -33 -2
-85 -37z"/>
<path d="M4160 6192 c0 -5 10 -17 21 -28 12 -10 35 -38 51 -62 32 -46 44 -49
34 -9 -10 41 -106 130 -106 99z"/>
<path d="M5138 5980 c68 -129 110 -258 119 -369 5 -61 8 -70 16 -50 11 29 3
118 -18 202 -21 81 -116 275 -150 307 -22 21 -16 4 33 -90z"/>
<path d="M4200 6071 c0 -5 17 -44 38 -87 29 -61 38 -74 40 -55 4 25 -53 151
-69 151 -5 0 -9 -4 -9 -9z"/>
<path d="M8970 5914 c79 -80 203 -171 338 -247 64 -36 132 -77 151 -91 19 -14
37 -23 40 -20 11 11 -62 63 -187 134 -131 75 -204 126 -313 222 -37 32 -70 58
-75 58 -5 0 16 -25 46 -56z"/>
<path d="M4213 5935 c17 -58 36 -134 42 -167 3 -21 10 -38 15 -38 28 0 -13
184 -46 211 -15 12 -16 11 -11 -6z"/>
<path d="M3860 5735 c0 -4 30 -40 68 -79 62 -66 93 -116 143 -233 26 -60 33
-50 13 18 -20 68 -53 133 -92 182 -32 39 -132 124 -132 112z"/>
<path d="M2534 5695 c-27 -42 -43 -97 -43 -150 l1 -50 14 65 c7 36 25 86 38
113 26 49 19 65 -10 22z"/>
<path d="M5170 5708 c0 -4 11 -49 24 -100 13 -51 27 -126 31 -165 4 -40 11
-73 16 -73 16 0 10 114 -10 193 -17 65 -59 167 -61 145z"/>
<path d="M9130 5646 c0 -1 37 -27 83 -56 49 -32 123 -96 185 -158 56 -58 104
-103 107 -101 8 8 -131 163 -181 202 -43 33 -194 121 -194 113z"/>
<path d="M2648 5585 c-26 -17 -42 -40 -57 -77 -11 -29 -20 -48 -20 -41 -1 6 4
24 9 39 9 24 9 25 -5 14 -17 -14 -22 -125 -6 -135 10 -6 13 1 31 82 12 51 45
92 106 130 19 12 19 12 -1 12 -11 1 -37 -10 -57 -24z"/>
<path d="M2829 5510 c95 -45 99 -46 80 -23 -19 22 -108 63 -139 63 -17 0 2
-13 59 -40z"/>
<path d="M2670 5452 c-22 -7 -31 -25 -18 -33 8 -5 3 -21 -17 -49 -21 -30 -25
-44 -17 -52 8 -8 15 -8 25 1 11 9 21 8 45 -6 39 -22 78 -10 107 32 11 17 26
30 33 30 30 0 12 22 -38 47 -61 29 -98 39 -120 30z"/>
<path d="M3580 5456 c0 -2 19 -16 43 -31 62 -41 150 -129 194 -192 20 -30 39
-50 41 -44 6 18 -30 75 -87 135 -65 69 -191 156 -191 132z"/>
<path d="M3970 5452 c0 -4 12 -25 27 -47 15 -22 47 -78 70 -125 30 -60 42 -78
43 -60 0 14 -11 48 -24 77 -47 101 -116 193 -116 155z"/>
<path d="M5141 5293 c-7 -76 -19 -174 -27 -218 -27 -148 -27 -151 -15 -140 29
27 71 283 71 430 0 112 -16 71 -29 -72z"/>
<path d="M9321 5365 c19 -19 57 -74 84 -121 57 -102 72 -98 20 5 -35 70 -103
151 -127 151 -6 0 4 -16 23 -35z"/>
<path d="M2977 5273 c-31 -60 -33 -71 -11 -52 22 18 46 68 42 87 -3 11 -14 -1
-31 -35z"/>
<path d="M4010 5248 c0 -2 11 -39 25 -83 14 -44 30 -117 37 -162 13 -91 28
-110 28 -35 0 80 -58 282 -81 282 -5 0 -9 -1 -9 -2z"/>
<path d="M6491 5233 c-1 -17 30 -147 36 -153 10 -9 -8 102 -22 134 -7 17 -14
26 -14 19z"/>
<path d="M2340 5102 c-139 -141 -165 -170 -157 -179 9 -8 249 236 270 275 10
17 17 32 15 32 -2 -1 -59 -58 -128 -128z"/>
<path d="M2938 5165 c-50 -48 -41 -63 11 -19 32 27 58 64 44 64 -4 0 -29 -21
-55 -45z"/>
<path d="M3784 5143 c13 -26 30 -68 37 -93 18 -66 33 -75 25 -16 -6 51 -52
147 -74 154 -7 2 -2 -16 12 -45z"/>
<path d="M2870 5079 c-30 -15 -65 -28 -77 -29 -13 0 -23 -4 -23 -10 0 -17 43
-11 96 14 47 22 72 42 63 51 -2 2 -29 -10 -59 -26z"/>
<path d="M4320 5043 c0 -7 7 -38 15 -70 21 -81 19 -205 -5 -273 -23 -65 -23
-70 -9 -70 19 0 51 91 56 165 4 52 1 95 -12 149 -16 69 -44 130 -45 99z"/>
<path d="M3753 5028 c19 -50 29 -148 24 -225 -5 -68 -4 -84 6 -74 20 20 22
180 3 245 -9 30 -21 58 -28 62 -7 5 -9 2 -5 -8z"/>
<path d="M6456 4938 c-14 -206 -81 -413 -181 -564 -59 -89 -67 -120 -17 -64
67 73 149 239 181 369 35 138 51 309 32 339 -5 8 -11 -24 -15 -80z"/>
<path d="M5022 4948 c-34 -96 -110 -189 -242 -295 -63 -51 -120 -93 -126 -93
-12 0 -34 -54 -53 -125 -14 -51 -14 -185 -1 -185 6 0 10 8 10 18 0 55 21 184
36 220 13 34 36 57 111 114 171 128 248 218 279 326 23 77 13 93 -14 20z"/>
<path d="M7259 4940 c76 -126 185 -290 189 -285 9 9 -121 224 -165 272 -39 42
-42 44 -24 13z"/>
<path d="M9496 4713 c-41 -173 -81 -442 -62 -422 2 2 18 81 35 174 17 94 40
208 50 255 11 47 16 89 11 93 -4 5 -19 -40 -34 -100z"/>
<path d="M3715 4789 c-2 -8 -12 -34 -20 -59 -9 -24 -25 -60 -35 -78 -23 -38
-24 -42 -10 -42 24 0 94 169 77 187 -4 3 -9 0 -12 -8z"/>
<path d="M6850 4779 c0 -2 19 -42 43 -89 23 -47 58 -131 76 -187 19 -57 38
-103 43 -103 19 0 -41 188 -89 282 -28 54 -73 114 -73 97z"/>
<path d="M4270 4744 c0 -73 -53 -211 -106 -273 -27 -32 -27 -48 0 -38 25 10
86 109 106 176 21 67 27 161 10 161 -5 0 -10 -12 -10 -26z"/>
<path d="M5151 4704 c-90 -81 -192 -266 -231 -419 -22 -86 -37 -245 -23 -245
5 0 17 49 26 108 30 191 94 340 210 494 38 49 66 92 64 95 -3 2 -24 -12 -46
-33z"/>
<path d="M11100 4677 c0 -4 25 -50 55 -103 84 -144 137 -287 165 -437 16 -86
31 -75 19 13 -21 145 -111 364 -198 479 -23 30 -41 52 -41 48z"/>
<path d="M9315 4613 c-43 -270 -109 -492 -211 -717 -25 -54 -43 -101 -40 -104
8 -7 7 -8 49 68 98 177 201 516 222 728 7 68 -10 89 -20 25z"/>
<path d="M3455 4534 c-71 -33 -123 -39 -202 -21 -72 16 -90 14 -59 -8 27 -21
123 -38 165 -30 44 8 171 65 171 76 0 14 -21 9 -75 -17z"/>
<path d="M2880 4499 c-27 -16 -29 -19 -10 -14 14 3 44 9 68 12 23 3 42 10 42
14 0 16 -65 8 -100 -12z"/>
<path d="M2802 4419 c-29 -17 -51 -33 -48 -36 6 -7 94 37 108 54 17 21 -3 15
-60 -18z"/>
<path d="M7090 4428 c0 -4 7 -37 16 -75 9 -37 27 -131 40 -208 33 -191 57
-274 109 -382 46 -95 152 -246 186 -263 28 -16 24 -6 -28 59 -121 149 -188
300 -228 514 -36 186 -65 308 -81 337 -7 14 -13 22 -14 18z"/>
<path d="M6870 4320 c63 -124 121 -297 150 -442 13 -66 30 -77 30 -20 -1 136
-150 522 -202 522 -4 0 5 -27 22 -60z"/>
<path d="M11193 4143 c2 -10 21 -70 40 -134 20 -64 43 -156 52 -205 10 -49 19
-91 22 -94 3 -3 3 33 1 80 -4 65 -16 118 -53 228 -26 78 -52 142 -57 142 -6 0
-8 -8 -5 -17z"/>
<path d="M9438 4137 c-11 -27 -10 -263 2 -392 12 -133 36 -266 56 -314 23 -55
25 -32 4 69 -21 100 -37 275 -48 510 -4 81 -10 137 -14 127z"/>
<path d="M5939 4075 c-4 -5 -9 -27 -13 -48 -12 -68 -83 -270 -130 -371 -50
-106 -42 -126 11 -30 65 116 148 371 141 432 -2 15 -6 23 -9 17z"/>
<path d="M9001 3945 c-19 -42 -76 -149 -127 -240 -84 -147 -116 -215 -101
-215 6 0 157 259 195 335 35 72 77 184 70 190 -2 3 -19 -29 -37 -70z"/>
<path d="M8756 3829 c-2 -8 -19 -63 -36 -124 -38 -132 -90 -257 -177 -424 -35
-68 -61 -126 -58 -130 11 -10 32 25 114 189 42 85 91 198 108 250 32 97 65
241 58 249 -3 2 -7 -2 -9 -10z"/>
<path d="M11204 3779 c3 -24 8 -124 12 -223 5 -137 9 -174 18 -160 15 26 13
252 -3 341 -14 81 -37 115 -27 42z"/>
<path d="M7451 3766 c-2 -18 88 -196 130 -257 46 -68 131 -159 149 -159 6 0
-21 37 -59 82 -39 45 -100 134 -135 198 -77 135 -85 148 -85 136z"/>
<path d="M5709 3584 c-6 -16 -13 -44 -16 -63 -9 -53 13 -29 27 30 14 56 7 78
-11 33z"/>
<path d="M7719 3491 c48 -67 268 -242 304 -241 14 1 -7 19 -138 114 -56 41
-117 92 -138 115 -43 47 -58 54 -28 12z"/>
<path d="M5591 3464 c-74 -94 -141 -336 -122 -439 l8 -40 6 35 c3 19 9 64 12
98 8 83 37 177 87 280 42 86 46 113 9 66z"/>
<path d="M9035 3419 c-42 -39 -92 -106 -84 -113 2 -2 39 32 81 76 79 81 82
109 3 37z"/>
<path d="M11148 3447 c-5 -10 -8 -35 -8 -55 0 -20 -9 -71 -20 -112 -22 -84
-26 -125 -10 -100 18 28 51 195 48 240 -2 32 -5 40 -10 27z"/>
<path d="M9155 3388 c-28 -15 -65 -50 -65 -60 0 -9 103 44 125 64 14 12 -36 9
-60 -4z"/>
<path d="M6493 3221 c11 -93 49 -155 166 -270 97 -95 102 -101 61 -81 -32 16
-41 18 -32 7 14 -16 102 -50 110 -42 2 2 -45 55 -105 117 -119 123 -155 176
-174 253 -19 72 -33 81 -26 16z"/>
<path d="M4947 3011 c44 -71 85 -123 90 -117 8 8 -86 146 -99 146 -6 0 -2 -13
9 -29z"/>
<path d="M9790 3007 c0 -59 90 -255 135 -297 27 -24 27 -23 -8 40 -19 36 -54
112 -77 170 -23 58 -44 107 -46 109 -2 2 -4 -8 -4 -22z"/>
<path d="M5050 2903 c0 -16 70 -86 78 -78 3 3 -13 25 -36 48 -23 23 -42 36
-42 30z"/>
<path d="M9955 2808 c17 -61 79 -169 115 -202 59 -53 77 -44 22 12 -26 26 -67
84 -90 130 -43 82 -59 102 -47 60z"/>
<path d="M6651 2660 c-6 -18 -14 -55 -18 -83 -6 -47 -8 -49 -13 -22 l-7 30 -8
-30 c-21 -77 40 -435 75 -435 5 0 2 28 -7 63 -49 208 -51 244 -22 393 20 107
21 142 0 84z"/>
<path d="M10132 2653 c11 -45 228 -316 242 -302 3 3 -34 57 -83 120 -98 125
-164 201 -159 182z"/>
<path d="M6590 2174 c0 -6 11 -44 25 -84 14 -40 25 -84 25 -96 0 -13 5 -26 10
-29 17 -11 11 71 -10 128 -20 54 -49 101 -50 81z"/>
<path d="M11660 1551 c44 -102 65 -196 55 -257 -8 -53 11 -69 21 -18 17 89
-12 219 -72 322 -42 72 -44 46 -4 -47z"/>
<path d="M6542 1480 c3 -57 9 -95 17 -103 11 -10 12 2 7 67 -3 43 -6 90 -6
103 0 12 -5 23 -11 23 -8 0 -10 -28 -7 -90z"/>
<path d="M11660 1275 c0 -22 -7 -69 -14 -105 -8 -36 -12 -67 -11 -68 2 -2 11
8 20 22 21 32 32 146 17 172 -10 16 -11 13 -12 -21z"/>
</g>
</svg>
