<?xml version="1.0" standalone="no"?>
<!DOCTYPE svg PUBLIC "-//W3C//DTD SVG 20010904//EN"
 "http://www.w3.org/TR/2001/REC-SVG-20010904/DTD/svg10.dtd">
<svg version="1.0" xmlns="http://www.w3.org/2000/svg"
 width="1408.000000pt" height="768.000000pt" viewBox="0 0 1408.000000 768.000000"
 preserveAspectRatio="xMidYMid meet">
<metadata>
Created by potrace 1.16, written by Peter Selinger 2001-2019
</metadata>
<g transform="translate(0.000000,768.000000) scale(0.100000,-0.100000)"
fill="#000000" stroke="none">
<path d="M3673 7300 c-80 -48 -134 -174 -183 -423 l-12 -58 -36 31 c-59 49
-171 123 -257 170 -119 65 -242 143 -310 195 -115 90 -176 107 -214 59 -27
-34 -27 -78 0 -179 29 -112 68 -220 134 -375 35 -82 61 -161 67 -200 6 -36 19
-93 29 -128 l19 -63 -29 -42 c-39 -57 -106 -192 -125 -253 -9 -28 -17 -95 -19
-159 -4 -153 -26 -197 -149 -313 -130 -123 -336 -316 -380 -356 -43 -38 -48
-67 -22 -122 29 -61 156 -170 226 -193 19 -6 43 -20 52 -30 10 -10 45 -31 79
-46 55 -25 72 -28 162 -27 57 1 124 8 155 17 172 48 327 85 412 97 l98 15 48
-27 c108 -59 175 -131 252 -272 40 -71 49 -83 71 -81 22 1 27 -5 43 -64 11
-35 27 -74 36 -85 l17 -22 19 22 c10 12 22 22 25 22 4 0 15 -22 24 -49 19 -59
88 -169 111 -178 9 -3 19 -1 23 5 4 7 11 0 19 -16 20 -44 101 -142 129 -155
22 -10 28 -9 36 5 9 14 21 7 86 -51 149 -132 183 -166 208 -209 18 -30 30 -41
42 -37 13 4 28 -16 64 -88 26 -52 63 -109 83 -128 30 -29 37 -32 55 -21 18 11
25 6 77 -49 31 -34 91 -88 133 -120 130 -99 204 -203 234 -330 17 -75 60 -336
81 -494 8 -60 21 -240 29 -400 8 -159 20 -348 26 -419 6 -71 9 -154 6 -185 -7
-76 -70 -280 -113 -368 -41 -86 -54 -92 -155 -74 -74 14 -114 9 -169 -19 -83
-43 -220 -222 -220 -287 0 -38 23 -56 56 -41 17 8 28 6 51 -12 29 -21 48 -24
256 -47 40 -4 47 -8 41 -22 -4 -9 -12 -38 -18 -65 -9 -42 -8 -50 7 -61 9 -7
28 -10 42 -7 20 3 25 0 25 -17 0 -29 27 -38 58 -19 21 13 31 13 70 2 25 -8 78
-16 118 -18 61 -4 75 -2 89 14 17 18 19 18 49 2 22 -12 55 -17 111 -17 72 0
88 4 157 37 162 77 218 175 343 593 15 49 38 103 51 118 51 61 58 85 65 242 5
106 13 169 27 215 33 106 79 379 142 840 12 85 33 209 47 275 16 80 23 135 19
164 -5 36 1 60 30 135 20 50 37 92 38 93 1 1 26 -4 56 -12 30 -8 92 -18 138
-21 66 -6 85 -4 100 8 14 13 28 14 82 6 78 -11 205 -4 226 13 8 7 12 19 9 27
-5 12 3 14 47 9 29 -3 121 -9 203 -12 161 -7 190 -1 168 33 -11 18 -6 19 95
25 187 11 369 42 452 77 41 18 85 39 98 48 22 14 25 14 34 -1 12 -23 34 -21
91 7 32 16 50 20 52 12 86 -312 258 -593 559 -917 223 -239 232 -254 297 -480
48 -170 56 -222 40 -286 -32 -124 -231 -493 -314 -581 l-32 -33 -105 2 c-123
2 -156 -8 -224 -71 -55 -51 -126 -160 -133 -206 -6 -39 9 -64 41 -64 12 0 31
-6 42 -14 27 -19 131 -49 144 -41 5 3 30 -1 55 -10 103 -34 371 -6 476 52 86
46 233 249 419 578 134 238 195 357 246 485 67 168 57 252 -46 409 -33 51 -76
123 -95 161 -32 64 -85 223 -85 257 0 17 -11 25 198 -144 83 -67 205 -158 271
-202 162 -109 235 -180 337 -328 152 -220 169 -280 167 -593 0 -190 -20 -376
-43 -420 -7 -13 -34 -24 -83 -35 -145 -32 -216 -98 -258 -238 -27 -91 -21
-126 32 -167 30 -25 45 -31 65 -26 16 4 35 1 48 -8 45 -29 100 -37 172 -25 38
6 116 12 174 12 147 3 168 14 243 137 99 162 105 180 122 341 8 79 24 207 36
284 19 125 22 183 23 530 1 351 -1 393 -16 421 -10 18 -65 76 -124 130 -185
172 -275 299 -354 501 -61 155 -80 248 -79 388 0 66 4 138 8 160 l9 40 1 -50
c2 -69 28 -217 49 -273 14 -36 23 -47 39 -46 17 0 22 -7 27 -38 11 -70 57
-198 80 -225 26 -30 46 -24 46 14 0 38 9 23 37 -59 37 -110 75 -184 143 -276
64 -87 88 -100 101 -52 4 14 7 18 8 9 2 -25 76 -173 126 -248 48 -73 79 -103
99 -95 6 2 29 -28 51 -68 22 -39 59 -91 83 -116 36 -36 48 -43 70 -39 24 5 31
-1 60 -49 45 -73 130 -164 180 -192 38 -21 41 -22 51 -5 9 17 11 16 27 -7 72
-102 264 -258 305 -247 14 4 39 -8 77 -37 65 -49 142 -90 189 -100 24 -6 34
-3 41 10 9 16 12 16 38 -3 100 -71 286 -137 419 -149 71 -6 76 -5 81 13 5 19
8 19 62 7 31 -8 96 -17 143 -20 72 -6 91 -4 116 11 26 15 36 16 63 6 45 -15
100 -14 100 2 0 7 -19 37 -41 67 -23 30 -64 100 -91 155 l-49 100 6 -55 c8
-66 33 -126 80 -191 19 -27 35 -51 35 -54 0 -9 -85 27 -168 71 -78 42 -84 44
-62 20 14 -15 45 -40 70 -54 l45 -27 -55 -3 c-99 -6 -240 25 -372 82 -60 26
-46 -6 27 -62 l30 -23 -50 7 c-68 9 -197 50 -269 85 -50 25 -138 81 -217 138
-16 11 -20 11 -26 -5 -3 -10 1 -29 10 -45 15 -28 15 -28 -10 -18 -38 14 -106
64 -172 125 -60 55 -81 61 -81 23 0 -16 -10 -12 -59 26 -68 52 -132 120 -208
223 -30 40 -60 71 -66 69 -7 -2 -11 -20 -10 -41 2 -33 1 -35 -16 -26 -32 17
-106 110 -178 225 -38 61 -74 108 -79 105 -5 -3 -8 -24 -7 -48 2 -26 -1 -41
-7 -37 -18 11 -107 164 -145 250 -21 46 -42 82 -48 78 -5 -3 -7 -27 -3 -56 l6
-51 -34 50 c-53 79 -113 202 -144 300 -41 123 -67 126 -74 9 l-3 -40 -33 48
c-56 80 -109 196 -142 312 -43 147 -49 160 -61 148 -6 -6 -16 -32 -23 -59
l-13 -49 -17 55 c-9 30 -21 84 -27 120 -6 36 -14 83 -18 105 -5 30 -11 40 -26
40 -12 0 -21 -9 -25 -25 -11 -44 -32 83 -37 229 -7 166 20 371 49 371 24 0 42
92 41 216 0 92 2 101 18 97 11 -3 22 3 29 18 19 34 6 206 -22 316 -24 92 -24
92 -3 90 17 -2 20 5 23 47 7 109 -99 376 -202 511 -17 21 -31 42 -31 45 0 3
-17 26 -38 50 l-39 45 53 -100 c29 -55 72 -137 95 -182 45 -89 114 -288 114
-330 l0 -26 -21 27 c-11 14 -27 26 -36 26 -19 0 -17 -13 26 -175 19 -72 34
-156 38 -210 l5 -90 -21 33 c-21 33 -35 40 -46 22 -3 -5 -1 -47 5 -92 6 -46
10 -114 8 -153 -3 -65 -4 -68 -15 -42 -7 15 -17 27 -22 27 -12 0 -16 -24 -30
-175 -12 -136 -32 -231 -40 -197 -3 13 -10 23 -16 23 -14 0 -23 -49 -31 -171
-3 -58 -11 -111 -17 -118 -12 -15 -1 -169 20 -272 33 -167 138 -403 231 -519
24 -31 104 -114 177 -186 114 -111 135 -137 146 -175 9 -33 10 -136 5 -395 -5
-296 -10 -376 -30 -515 -14 -91 -30 -221 -36 -290 -7 -80 -18 -138 -29 -160
-38 -75 -132 -210 -157 -227 -32 -20 -128 -29 -166 -14 -25 10 -27 13 -16 36
8 18 8 29 1 36 -15 15 -33 3 -33 -21 0 -10 -4 -21 -9 -24 -11 -7 14 106 30
137 6 12 25 37 42 54 46 49 10 42 -46 -8 -51 -44 -77 -107 -77 -185 0 -39 -2
-42 -34 -47 -40 -6 -112 8 -144 29 -20 13 -23 21 -17 54 5 30 3 40 -11 48 -16
9 -15 13 7 53 17 31 45 58 92 89 71 47 75 62 10 35 -89 -37 -151 -108 -183
-210 -12 -35 -14 -37 -21 -17 -17 46 38 180 95 230 32 28 116 62 153 62 34 0
92 33 102 58 29 71 45 230 45 447 1 315 -16 377 -162 595 -97 146 -206 256
-347 350 -147 98 -198 138 -411 316 -99 83 -194 160 -210 170 -79 49 -219 207
-319 359 -30 46 -67 94 -83 107 -18 14 -83 123 -173 293 -144 270 -210 365
-253 365 -13 0 -8 -11 23 -47 36 -44 101 -164 101 -188 0 -5 -31 -28 -68 -49
-37 -22 -101 -59 -142 -83 -80 -46 -103 -54 -77 -25 42 46 9 55 -49 14 -21
-15 -61 -41 -89 -56 -27 -16 -64 -37 -82 -48 -31 -18 -31 -18 -26 2 3 11 3 27
-1 35 -4 13 -14 10 -53 -14 -109 -67 -241 -123 -310 -132 -37 -5 -120 -15
-183 -23 -63 -8 -161 -15 -217 -16 -107 0 -125 -8 -95 -42 12 -15 13 -18 1
-18 -40 0 -350 21 -387 26 -50 6 -66 -14 -36 -48 l19 -21 -90 7 c-49 3 -117
13 -150 20 -66 16 -79 13 -72 -15 6 -24 -9 -24 -125 -3 -79 14 -88 18 -88 38
0 12 14 35 30 51 39 37 38 59 -4 85 -66 40 -126 161 -126 254 0 101 -13 207
-24 196 -7 -7 -11 -65 -11 -158 0 -142 1 -149 29 -206 16 -32 46 -76 66 -96
l37 -37 -29 -44 c-21 -31 -28 -52 -24 -70 3 -17 -7 -54 -29 -105 -45 -103 -62
-178 -46 -198 10 -11 7 -39 -13 -133 -13 -65 -41 -233 -61 -373 -50 -358 -105
-680 -120 -710 -22 -43 -36 -145 -35 -253 2 -114 1 -119 -50 -198 -20 -31 -47
-90 -59 -130 -122 -397 -183 -504 -326 -573 -73 -36 -146 -44 -198 -23 -34 15
-36 18 -31 46 8 39 -9 41 -32 3 -9 -16 -25 -34 -35 -40 -29 -19 -25 13 12 87
33 65 86 126 123 141 21 9 21 9 -2 9 -69 2 -171 -111 -191 -212 -6 -28 -11
-32 -41 -35 -19 -2 -51 2 -71 8 -36 12 -36 13 -31 56 3 34 1 45 -12 50 -23 9
-21 15 20 63 37 43 118 91 153 91 11 0 23 5 26 10 10 16 -81 12 -123 -6 -47
-19 -87 -57 -120 -114 -31 -54 -92 -118 -92 -96 0 8 6 21 13 28 7 7 21 33 32
57 31 71 70 126 109 156 32 24 50 29 132 36 109 9 140 21 170 66 27 40 97 235
130 363 24 92 25 107 29 535 4 339 1 485 -11 635 -30 385 -56 529 -117 650
-42 85 -75 118 -65 66 3 -14 2 -26 -2 -26 -4 0 -29 20 -56 45 -31 29 -54 43
-65 40 -12 -4 -38 19 -94 85 -75 87 -98 104 -108 78 -3 -8 -34 15 -78 57 -43
41 -57 51 -34 25 88 -100 130 -140 145 -140 9 0 42 -31 74 -70 51 -62 96 -102
96 -84 0 3 16 -8 35 -25 19 -17 53 -41 75 -53 60 -35 83 -108 114 -368 38
-304 45 -475 40 -915 -4 -424 -5 -431 -30 -524 -29 -106 -93 -291 -117 -338
-20 -38 -28 -41 -130 -49 -45 -3 -100 -14 -123 -24 -50 -21 -107 -77 -134
-130 -20 -39 -22 -40 -75 -40 -29 0 -65 4 -80 10 -22 8 -24 13 -15 29 13 25
13 61 0 61 -22 0 -8 29 29 63 27 24 66 44 118 61 l78 25 -64 1 c-110 0 -183
-51 -245 -174 -27 -53 -28 -54 -57 -44 -38 13 -43 23 -25 50 22 31 20 53 -6
71 -23 15 -23 15 45 81 81 78 120 94 196 77 78 -17 135 -14 163 8 38 30 76
111 124 264 54 170 61 240 45 438 -6 79 -18 266 -26 414 -20 366 -83 808 -136
949 -31 83 -111 190 -192 254 -109 87 -204 180 -238 234 -34 53 -59 60 -69 19
-7 -31 -14 -22 -81 109 -53 104 -99 166 -106 143 -2 -6 -25 9 -51 35 -124 123
-283 263 -292 257 -5 -3 -10 -16 -10 -28 -1 -20 -4 -18 -30 13 -16 19 -48 65
-71 103 -39 63 -62 82 -71 56 -6 -18 -37 35 -82 140 -23 52 -47 96 -53 98 -7
3 -18 -8 -26 -22 -14 -27 -14 -27 -41 51 -16 44 -35 87 -44 97 -14 15 -17 16
-32 2 -15 -14 -18 -13 -29 11 -39 86 -163 227 -233 266 l-33 19 97 -4 c72 -3
107 -9 139 -25 56 -28 62 -21 10 14 -126 83 -386 68 -766 -43 -100 -30 -136
-36 -220 -36 -82 -1 -108 3 -145 20 l-45 21 110 1 c134 1 205 18 305 73 146
81 191 101 273 122 63 16 83 25 85 40 4 17 -1 19 -55 14 -68 -7 -165 -46 -293
-120 -124 -71 -188 -88 -329 -88 -132 1 -190 11 -231 42 l-29 21 40 48 c46 55
60 94 47 129 -13 34 -47 70 -81 85 l-29 12 99 89 c178 161 298 286 323 339 20
41 26 72 31 180 5 102 12 141 29 183 16 37 26 49 31 40 6 -9 9 -5 9 12 0 37
57 144 128 238 56 76 76 122 53 122 -4 0 -25 -21 -45 -46 l-36 -47 -15 36 c-8
20 -15 51 -15 70 0 55 -27 141 -89 286 -76 177 -134 360 -135 431 -1 52 0 55
25 58 19 2 48 -13 105 -56 126 -93 191 -135 323 -207 69 -38 163 -98 210 -133
47 -35 92 -67 98 -69 22 -9 15 -17 -37 -44 -28 -15 -50 -23 -50 -19 0 21 -55
-10 -85 -49 -45 -57 -45 -78 1 -26 19 22 31 32 28 21 -8 -21 -13 -23 86 39 30
19 56 32 58 30 2 -2 -6 -51 -19 -109 -18 -83 -26 -103 -36 -94 -10 8 -13 0
-12 -38 1 -27 5 -60 10 -74 6 -19 8 -13 6 28 -2 44 0 50 10 35 7 -9 15 -14 18
-12 8 8 74 269 110 434 37 167 54 219 90 281 53 91 113 107 186 51 56 -42 95
-109 169 -290 100 -243 115 -330 84 -468 -9 -39 -14 -73 -11 -75 7 -8 46 99
53 148 7 41 7 40 26 -48 11 -49 20 -120 21 -159 2 -63 -2 -77 -36 -144 -21
-41 -36 -76 -33 -78 2 -2 18 13 35 34 39 48 71 131 71 186 0 54 -34 196 -60
249 -11 23 -20 52 -20 65 0 24 -41 156 -79 253 -25 67 -17 57 82 -98 102 -159
203 -371 220 -462 11 -60 16 -70 21 -50 13 47 -13 160 -64 272 -28 64 -43 107
-35 104 8 -3 32 -10 54 -16 23 -6 41 -14 41 -19 0 -4 27 -16 60 -26 49 -15 57
-20 44 -30 -14 -10 -14 -12 0 -24 9 -7 57 -30 107 -51 75 -31 88 -39 70 -45
-58 -18 14 -68 212 -147 85 -33 103 -44 87 -50 -51 -19 3 -60 157 -119 44 -17
64 -30 67 -45 7 -25 86 -63 190 -92 68 -18 68 -18 45 -35 -23 -16 -23 -17 -5
-31 19 -16 129 -44 207 -53 38 -4 46 -9 42 -23 -7 -28 46 -40 232 -52 115 -8
240 -8 388 -2 172 7 217 6 217 -3 0 -17 57 -17 153 2 96 18 118 19 115 3 -6
-26 183 -20 511 16 738 83 1261 112 1713 96 253 -9 514 -38 543 -60 6 -4 69
-24 142 -44 398 -111 946 -341 927 -389 -3 -8 24 -29 73 -57 92 -52 153 -105
153 -133 0 -12 40 -61 102 -123 56 -57 99 -104 95 -104 -3 0 40 -46 96 -102
136 -137 447 -515 447 -544 0 -3 -14 4 -31 17 -23 16 -33 19 -42 10 -16 -16
19 -78 93 -166 85 -100 180 -225 180 -236 0 -6 -7 -6 -19 1 -35 18 -44 13 -37
-22 9 -46 64 -125 146 -212 58 -61 66 -72 45 -68 -49 9 -31 -28 71 -143 79
-90 150 -204 203 -330 64 -151 97 -201 193 -301 49 -50 88 -100 88 -110 0 -36
80 -108 181 -164 l54 -30 -42 0 c-88 0 -64 -33 94 -122 51 -28 112 -68 135
-89 38 -32 41 -38 29 -53 -18 -21 -5 -36 106 -123 80 -62 203 -187 203 -205 0
-5 -13 -1 -29 8 -16 9 -36 14 -45 11 -14 -6 1 -27 74 -109 50 -57 109 -132
130 -168 38 -64 85 -170 75 -170 -3 0 -17 7 -31 16 -45 30 -44 18 14 -121 16
-38 37 -106 46 -150 29 -132 36 -156 52 -162 8 -3 17 -4 19 -1 8 8 -24 196
-43 253 -16 47 -17 58 -6 62 20 7 17 44 -7 127 -29 95 -60 157 -127 244 -41
55 -52 76 -43 85 18 18 13 35 -21 85 -57 83 -121 152 -195 207 -57 43 -70 58
-66 75 11 42 -87 133 -235 218 -59 35 -61 37 -38 45 25 8 40 32 31 47 -3 5
-40 27 -83 50 -42 23 -92 53 -110 66 -30 23 -31 26 -16 41 15 15 12 20 -37 61
-30 25 -88 80 -130 123 -62 63 -86 98 -130 186 -30 59 -63 130 -73 157 -22 57
-119 208 -170 264 -33 37 -35 40 -16 45 11 3 20 12 20 21 0 9 -45 65 -101 123
-55 59 -110 120 -121 135 l-19 28 29 -6 c17 -4 32 -1 36 5 16 25 -80 169 -214
322 -30 35 -45 57 -33 51 34 -18 43 -14 43 17 0 37 -89 171 -203 305 -45 54
-111 133 -147 176 -93 113 -193 221 -287 312 -45 44 -82 83 -81 86 2 21 -7 36
-54 87 -28 31 -80 77 -115 101 -34 25 -63 50 -63 54 0 12 -152 111 -230 150
-181 91 -806 307 -978 339 -172 32 -247 40 -494 52 -398 19 -979 -13 -1725
-96 -312 -35 -414 -42 -412 -27 6 37 -31 41 -161 18 -58 -10 -77 -10 -86 -1
-9 8 -29 10 -70 4 -97 -13 -520 -22 -667 -14 -116 6 -136 9 -126 21 23 28 3
41 -73 48 -73 7 -198 33 -167 35 22 1 41 25 34 44 -4 8 -25 18 -48 21 -23 4
-76 16 -118 27 -69 19 -76 22 -72 43 4 20 -7 27 -131 75 -127 49 -168 71 -132
71 21 0 30 18 17 34 -6 7 -80 42 -164 77 -83 34 -154 64 -156 66 -3 2 4 10 15
18 18 15 18 16 -11 40 -16 14 -63 39 -102 57 -52 23 -73 37 -73 50 0 12 -18
27 -57 46 -32 15 -62 33 -68 40 -5 7 -52 22 -104 35 l-94 22 -73 115 c-40 63
-91 144 -113 180 -132 210 -213 290 -295 290 -23 0 -55 -9 -73 -20z m-1290
-2100 c26 -16 47 -32 47 -35 0 -12 -40 -84 -50 -90 -6 -3 -22 3 -36 14 -15 12
-33 21 -40 21 -20 0 -17 -45 3 -61 11 -10 14 -10 9 -1 -10 17 9 15 23 -2 10
-11 8 -16 -9 -21 -39 -12 -122 89 -107 129 7 18 85 76 102 76 6 0 32 -13 58
-30z m6628 -1771 c73 -144 103 -192 148 -238 31 -32 89 -104 129 -159 85 -117
201 -244 262 -287 93 -67 100 -75 100 -113 0 -48 42 -201 75 -276 14 -32 53
-102 87 -155 94 -147 108 -177 108 -237 0 -103 -85 -294 -294 -659 -186 -324
-324 -513 -401 -550 -93 -43 -321 -69 -407 -45 l-37 11 16 35 c13 26 14 39 6
52 -33 54 59 121 167 122 26 0 31 3 20 10 -26 17 -102 11 -146 -11 -48 -23
-108 -97 -134 -166 l-16 -42 -52 24 c-29 13 -52 26 -52 28 0 2 7 19 16 37 16
30 16 34 1 45 -15 10 -14 14 2 41 26 42 91 101 124 113 16 6 75 11 132 11 59
0 115 5 130 12 51 23 169 207 285 443 88 178 104 257 76 365 -8 30 -28 108
-45 173 -43 162 -83 236 -184 344 -371 393 -544 648 -636 938 l-32 100 28 22
c21 18 36 21 64 17 45 -8 70 5 324 158 17 10 33 18 37 18 4 0 48 -81 99 -181z
m-421 -2597 c0 -5 -7 -17 -15 -28 -15 -19 -20 -8 -9 20 6 17 24 22 24 8z
m-3790 -31 c0 -4 -13 -17 -30 -29 -35 -26 -39 -16 -9 22 18 23 39 27 39 7z
m3988 -8 c-22 -46 -33 -63 -40 -63 -4 0 0 16 9 35 9 19 21 35 25 35 5 0 8 -3
6 -7z m-3819 -48 c-25 -41 -43 -47 -28 -9 14 38 18 44 34 44 11 0 10 -8 -6
-35z m281 -174 c0 -12 -41 -63 -47 -57 -7 7 26 66 37 66 6 0 10 -4 10 -9z
m5150 -36 c-15 -39 -23 -25 -8 16 6 18 13 29 15 23 2 -6 -1 -24 -7 -39z"/>
<path d="M9536 2445 c53 -158 119 -315 154 -367 65 -95 83 -142 75 -195 -4
-25 -9 -52 -13 -61 -3 -9 -1 -13 5 -9 17 11 36 94 29 130 -3 19 -35 79 -70
133 -35 56 -78 139 -96 189 -28 76 -105 240 -84 180z"/>
<path d="M9476 1915 c3 -11 21 -72 39 -135 19 -63 34 -108 35 -99 0 28 -38
162 -59 209 -12 25 -19 36 -15 25z"/>
<path d="M2748 7182 c54 -55 157 -171 226 -257 80 -98 134 -225 163 -384 l8
-45 53 82 c62 93 67 129 7 47 l-39 -55 -18 78 c-33 137 -83 221 -234 392 -144
162 -172 190 -198 190 -10 0 1 -17 32 -48z"/>
<path d="M3672 7184 c-31 -37 -47 -74 -32 -74 4 0 13 14 20 30 7 17 26 40 42
51 54 39 102 0 172 -139 20 -39 38 -72 41 -72 3 0 -5 24 -16 53 -53 134 -99
187 -166 187 -24 0 -38 -8 -61 -36z"/>
<path d="M2806 6992 c26 -51 55 -98 63 -105 8 -7 4 8 -11 33 -14 25 -38 68
-53 95 -49 90 -49 72 1 -23z"/>
<path d="M3820 7078 c0 -4 23 -60 51 -125 65 -147 95 -235 104 -301 8 -58 -2
-123 -16 -101 -17 29 -21 -3 -9 -86 7 -47 10 -88 7 -91 -2 -3 -15 11 -27 30
-12 20 -25 36 -29 36 -5 0 -11 -28 -15 -61 -8 -84 -8 -99 4 -99 6 0 10 27 10
60 0 63 7 73 27 40 7 -10 22 -24 34 -31 22 -11 22 -11 16 63 -4 51 -3 78 5 86
6 6 14 50 16 97 4 74 1 95 -23 163 -41 115 -155 351 -155 320z"/>
<path d="M3591 6924 c-43 -167 -40 -297 10 -468 31 -102 43 -65 19 53 -21 103
-30 126 -24 59 l3 -43 -10 45 c-12 54 -5 289 11 343 6 22 9 41 6 44 -2 3 -9
-12 -15 -33z m16 -436 c-3 -7 -5 -2 -5 12 0 14 2 19 5 13 2 -7 2 -19 0 -25z
m20 -70 c-3 -8 -6 -5 -6 6 -1 11 2 17 5 13 3 -3 4 -12 1 -19z"/>
<path d="M2841 6885 c27 -48 112 -156 118 -150 2 3 -23 39 -55 82 -78 103 -90
116 -63 68z"/>
<path d="M3771 6814 c-32 -36 -51 -74 -51 -97 1 -7 8 4 16 23 8 19 29 50 46
67 18 18 29 35 26 38 -3 3 -20 -11 -37 -31z"/>
<path d="M3778 6768 c-35 -45 -70 -117 -65 -131 2 -7 11 5 20 26 22 52 26 46
10 -15 -7 -29 -12 -69 -11 -88 l4 -35 12 45 12 45 -5 -57 c-2 -32 -1 -58 3
-58 4 0 14 17 24 38 l16 37 -5 -50 c-3 -27 -16 -84 -29 -125 -31 -99 -30 -130
2 -56 25 57 54 183 54 232 0 28 -24 32 -39 7 -16 -28 -13 -5 5 28 8 17 14 40
12 52 -3 19 -5 18 -20 -13 -22 -44 -23 -26 -2 31 9 24 16 53 16 64 -1 10 4 25
10 32 6 8 9 16 6 19 -3 2 -16 -10 -30 -28z"/>
<path d="M2898 6745 c13 -25 70 -80 77 -74 2 3 -16 25 -41 50 -26 24 -42 35
-36 24z"/>
<path d="M2960 6577 c14 -16 34 -33 45 -39 21 -11 20 -10 -35 37 l-35 30 25
-28z"/>
<path d="M3061 6492 c-6 -12 -11 -27 -11 -34 1 -7 8 0 16 15 9 16 13 31 11 34
-3 2 -10 -4 -16 -15z"/>
<path d="M3565 6360 c22 -37 103 -123 127 -136 31 -16 94 -19 103 -4 4 6 -14
10 -47 10 -52 0 -53 0 -122 73 -39 39 -66 65 -61 57z"/>
<path d="M4390 6276 c0 -46 -7 -117 -15 -157 -18 -82 -14 -98 10 -43 21 49 34
267 16 278 -8 5 -11 -17 -11 -78z"/>
<path d="M3856 6334 c-8 -22 -6 -75 4 -99 6 -14 9 1 9 48 1 68 -2 80 -13 51z"/>
<path d="M4060 6304 c0 -15 -9 -43 -21 -63 l-21 -36 26 28 c18 19 26 39 26 63
0 19 -2 34 -5 34 -3 0 -5 -12 -5 -26z"/>
<path d="M3820 6156 c0 -14 45 -78 61 -87 11 -5 17 -14 14 -19 -3 -5 11 -20
32 -34 42 -28 123 -46 123 -27 0 6 -12 11 -27 11 -16 0 -47 9 -70 20 -45 20
-57 32 -23 23 31 -8 23 4 -14 22 -19 9 -47 34 -62 56 -25 36 -34 46 -34 35z"/>
<path d="M4401 6067 c-6 -15 -20 -46 -32 -69 -15 -30 -17 -39 -7 -30 19 15 62
112 54 119 -3 3 -10 -6 -15 -20z"/>
<path d="M4750 6088 c9 -9 140 -67 140 -63 0 6 -89 51 -120 60 -14 4 -23 5
-20 3z"/>
<path d="M3075 6039 c-4 -6 -5 -12 -2 -15 2 -3 7 2 10 11 7 17 1 20 -8 4z"/>
<path d="M2852 6010 c0 -19 2 -27 5 -17 2 9 2 25 0 35 -3 9 -5 1 -5 -18z"/>
<path d="M3016 5985 c-3 -9 -5 -38 -5 -63 2 -46 2 -46 9 13 7 64 6 76 -4 50z"/>
<path d="M3216 5965 c-21 -7 -46 -21 -55 -30 -12 -12 -7 -11 24 4 22 11 51 24
65 30 38 15 11 12 -34 -4z"/>
<path d="M4900 5955 c25 -13 50 -24 55 -24 6 0 -10 11 -35 24 -25 13 -49 24
-55 24 -5 0 10 -11 35 -24z"/>
<path d="M2815 5918 c-13 -39 -24 -92 -20 -96 6 -6 20 33 28 76 6 31 1 45 -8
20z"/>
<path d="M3095 5909 c-12 -18 -24 -79 -16 -79 9 0 34 80 28 87 -3 2 -8 -1 -12
-8z"/>
<path d="M4228 5885 c13 -16 37 -48 53 -70 36 -47 83 -135 72 -135 -5 0 -23
17 -41 37 l-33 38 31 -55 c17 -30 36 -66 41 -80 5 -14 18 -43 29 -65 27 -54
14 -4 -16 65 l-24 55 25 -28 c14 -15 25 -22 25 -15 0 41 -108 218 -161 263
l-23 20 22 -30z"/>
<path d="M4915 5848 c17 -12 63 -54 102 -94 41 -41 66 -61 59 -46 -24 45 -157
163 -183 162 -4 0 6 -10 22 -22z"/>
<path d="M3123 5825 c-12 -8 -27 -32 -33 -53 -7 -20 -23 -54 -36 -74 -29 -46
-32 -74 -6 -62 9 5 49 7 89 6 85 -4 113 8 168 70 22 24 48 46 59 49 18 5 13
10 -26 27 -120 53 -178 63 -215 37z m170 -54 c11 -11 -34 -73 -65 -90 -36 -20
-78 -5 -97 34 -12 25 -12 32 0 54 19 34 42 40 34 9 -8 -31 10 -78 30 -78 12 0
15 12 15 55 l0 55 38 -15 c20 -9 40 -20 45 -24z"/>
<path d="M3435 5740 c3 -5 11 -10 17 -10 6 0 39 -13 74 -30 34 -16 75 -32 91
-35 20 -3 15 1 -17 15 -25 12 -52 25 -60 30 -39 25 -116 47 -105 30z"/>
<path d="M4970 5709 c0 -4 16 -33 35 -64 19 -32 42 -79 51 -104 19 -52 40 -81
29 -41 -15 57 -114 236 -115 209z"/>
<path d="M5487 5624 c-27 -14 -47 -28 -44 -30 3 -3 31 8 63 25 33 16 52 30 44
30 -8 0 -37 -11 -63 -25z"/>
<path d="M6570 5619 c40 -17 203 -59 225 -58 22 1 -161 55 -215 63 -32 5 -33
5 -10 -5z"/>
<path d="M4305 5603 c39 -90 55 -151 55 -201 l-1 -57 -25 48 c-13 26 -26 47
-29 47 -2 0 9 -30 24 -67 15 -38 32 -66 37 -63 5 3 9 43 9 90 0 74 -4 93 -32
153 -18 37 -35 67 -39 67 -3 0 -3 -8 1 -17z"/>
<path d="M2947 5603 c-4 -3 -7 -16 -6 -27 0 -19 1 -19 10 3 10 24 8 36 -4 24z"/>
<path d="M3435 5584 c-22 -13 -33 -24 -25 -24 8 0 29 11 45 25 37 30 32 30
-20 -1z"/>
<path d="M5578 5590 c-58 -24 -117 -60 -142 -89 -28 -31 -13 -26 42 14 27 19
77 48 113 64 71 33 61 41 -13 11z"/>
<path d="M10000 5567 c0 -5 54 -41 105 -71 l30 -18 -29 25 c-29 25 -106 72
-106 64z"/>
<path d="M3380 5519 c-44 -16 -48 -19 -20 -15 37 4 116 35 90 34 -8 0 -40 -9
-70 -19z"/>
<path d="M3855 5530 c-6 -10 -4 -12 8 -7 28 10 128 -13 191 -44 46 -22 55 -25
42 -10 -43 47 -222 92 -241 61z"/>
<path d="M6657 5519 c13 -13 190 -61 213 -57 12 2 -33 17 -100 34 -67 17 -118
28 -113 23z"/>
<path d="M3760 5507 c-20 -6 -28 -12 -19 -14 8 -2 31 3 50 11 39 17 21 19 -31
3z"/>
<path d="M5459 5452 c-43 -28 -89 -72 -75 -72 4 0 24 13 44 30 20 16 48 39 62
50 37 28 21 24 -31 -8z"/>
<path d="M5981 5429 c41 -28 98 -74 128 -102 41 -39 49 -44 32 -20 -30 44
-104 107 -166 143 -80 46 -77 36 6 -21z"/>
<path d="M3330 5460 c-19 -5 -55 -13 -80 -18 -43 -10 -42 -10 15 -4 33 3 78
11 100 18 45 13 19 16 -35 4z"/>
<path d="M4063 5420 c26 -16 68 -49 94 -72 25 -24 41 -34 35 -23 -21 40 -131
125 -161 125 -8 0 6 -13 32 -30z"/>
<path d="M10104 5369 c44 -46 89 -93 99 -104 l19 -20 -10 20 c-16 31 -119 142
-155 167 -18 12 3 -16 47 -63z"/>
<path d="M6770 5395 c13 -16 125 -58 140 -53 7 2 -25 18 -69 35 -45 17 -77 25
-71 18z"/>
<path d="M4291 5313 c-1 -58 -7 -99 -22 -138 -20 -53 -20 -80 0 -59 31 32 52
209 31 259 -6 13 -9 -7 -9 -62z"/>
<path d="M5240 5333 c0 -6 9 -33 21 -60 12 -26 32 -95 45 -153 24 -104 24
-105 19 -38 -4 68 -44 204 -70 242 -8 11 -15 15 -15 9z"/>
<path d="M3023 5309 c-33 -21 -40 -29 -25 -29 8 1 70 50 62 50 -3 0 -20 -10
-37 -21z"/>
<path d="M6108 5233 c38 -38 83 -88 100 -112 18 -24 32 -40 32 -35 0 18 -101
142 -144 178 -69 57 -64 42 12 -31z"/>
<path d="M10075 5271 c23 -39 115 -162 115 -153 0 15 -76 125 -101 147 -12 11
-19 14 -14 6z"/>
<path d="M3540 5250 c-20 -6 -15 -8 25 -9 28 -1 68 -6 90 -11 51 -12 59 -4 9
9 -67 17 -98 19 -124 11z"/>
<path d="M2530 5220 c-18 -12 -2 -12 25 0 13 6 15 9 5 9 -8 0 -22 -4 -30 -9z"/>
<path d="M2920 5193 c-32 -14 -69 -13 -115 2 -20 7 -20 6 -1 -9 25 -20 88 -21
126 -1 17 9 30 18 30 20 0 6 3 7 -40 -12z"/>
<path d="M3565 5195 c63 -18 79 -17 40 0 -16 8 -43 14 -60 14 -24 0 -20 -3 20
-14z"/>
<path d="M4205 5154 c-5 -37 -9 -43 -20 -34 -19 16 -27 9 -54 -42 -12 -24 -42
-58 -67 -77 -53 -40 -52 -50 3 -23 49 25 69 49 86 98 13 35 15 37 21 17 9 -27
23 -30 30 -5 13 39 23 112 16 112 -4 0 -11 -21 -15 -46z"/>
<path d="M2875 5150 c-3 -5 -1 -10 4 -10 6 0 11 5 11 10 0 6 -2 10 -4 10 -3 0
-8 -4 -11 -10z"/>
<path d="M10103 5065 c11 -35 23 -63 25 -60 6 6 -27 113 -37 120 -5 3 0 -24
12 -60z"/>
<path d="M2725 5110 c-3 -5 1 -10 10 -10 9 0 13 5 10 10 -3 6 -8 10 -10 10 -2
0 -7 -4 -10 -10z"/>
<path d="M6105 5110 c5 -8 20 -33 33 -55 14 -22 38 -73 54 -115 22 -58 27 -66
23 -35 -8 52 -67 175 -96 200 -14 12 -19 14 -14 5z"/>
<path d="M8845 5110 c-14 -6 4 -9 55 -9 42 -1 102 -8 134 -16 63 -17 84 -15
39 4 -67 27 -188 38 -228 21z"/>
<path d="M5245 4982 c0 -64 -3 -144 -8 -177 -11 -87 8 -47 23 48 13 77 9 203
-7 231 -4 8 -8 -37 -8 -102z"/>
<path d="M2650 5079 c0 -5 5 -7 10 -4 6 3 10 8 10 11 0 2 -4 4 -10 4 -5 0 -10
-5 -10 -11z"/>
<path d="M2840 5080 c0 -5 5 -10 10 -10 6 0 10 5 10 10 0 6 -4 10 -10 10 -5 0
-10 -4 -10 -10z"/>
<path d="M2570 5060 c0 -5 5 -10 11 -10 5 0 7 5 4 10 -3 6 -8 10 -11 10 -2 0
-4 -4 -4 -10z"/>
<path d="M2670 5009 c0 -5 5 -7 10 -4 6 3 10 8 10 11 0 2 -4 4 -10 4 -5 0 -10
-5 -10 -11z"/>
<path d="M2590 5000 c0 -5 5 -10 10 -10 6 0 10 5 10 10 0 6 -4 10 -10 10 -5 0
-10 -4 -10 -10z"/>
<path d="M4278 4970 c9 -57 9 -135 0 -225 -5 -53 -4 -64 4 -45 19 44 22 230 4
275 l-15 40 7 -45z"/>
<path d="M9050 4992 c0 -5 10 -14 23 -19 13 -6 52 -35 88 -64 l64 -52 -48 50
c-48 50 -127 103 -127 85z"/>
<path d="M3691 4947 c31 -26 130 -86 119 -72 -17 21 -99 75 -114 75 -5 0 -7
-2 -5 -3z"/>
<path d="M6125 4871 c4 -18 11 -83 15 -145 l8 -111 -2 132 c-1 95 -6 136 -15
145 -11 11 -12 7 -6 -21z"/>
<path d="M5167 4835 c-4 -22 -23 -98 -43 -168 -38 -137 -40 -176 -4 -80 31 83
62 219 58 256 -4 32 -4 32 -11 -8z"/>
<path d="M4345 4749 c-30 -45 -54 -83 -52 -86 6 -5 55 59 88 112 l24 40 11
-132 c12 -151 24 -189 18 -56 -7 128 -14 192 -24 198 -5 3 -34 -31 -65 -76z"/>
<path d="M9087 4712 c-13 -91 -55 -219 -103 -313 -53 -106 -53 -131 0 -36 70
125 122 292 114 368 -3 30 -4 27 -11 -19z"/>
<path d="M10327 4699 c60 -96 104 -177 124 -226 12 -29 24 -52 26 -49 13 13
-130 284 -160 303 -6 3 -1 -9 10 -28z"/>
<path d="M4484 4580 c2 -46 12 -97 26 -133 26 -69 37 -71 14 -4 -9 26 -22 84
-30 130 l-13 82 3 -75z"/>
<path d="M5030 4584 c-29 -78 -52 -194 -48 -241 2 -31 6 -23 16 42 7 44 24
118 37 165 13 46 22 86 20 88 -1 2 -13 -23 -25 -54z"/>
<path d="M6535 4503 c34 -53 45 -67 45 -60 0 11 -49 87 -56 87 -4 0 2 -12 11
-27z"/>
<path d="M11206 4455 c17 -22 46 -64 64 -92 17 -29 34 -53 36 -53 13 0 -85
148 -112 170 -10 8 -5 -3 12 -25z"/>
<path d="M9047 4408 c-43 -74 -115 -254 -97 -243 6 3 10 10 10 16 0 5 21 53
46 107 59 125 75 162 70 162 -2 0 -15 -19 -29 -42z"/>
<path d="M6456 4390 c4 -14 13 -38 21 -54 9 -17 38 -84 65 -150 27 -67 46
-105 42 -86 -3 19 -19 68 -35 108 -33 83 -103 220 -93 182z"/>
<path d="M4810 4289 c11 -35 34 -117 51 -182 18 -65 34 -116 36 -113 11 11
-78 330 -97 350 -5 5 0 -20 10 -55z"/>
<path d="M11273 4261 c18 -38 33 -68 36 -66 4 5 -56 135 -63 135 -2 0 10 -31
27 -69z"/>
<path d="M9010 4173 c-16 -48 -23 -100 -26 -178 l-3 -110 13 110 c8 61 21 139
31 174 22 86 12 89 -15 4z"/>
<path d="M11232 4204 c2 -5 20 -43 39 -84 65 -138 60 -129 54 -95 -7 34 -74
173 -88 182 -5 3 -8 2 -5 -3z"/>
<path d="M4787 4085 c11 -124 23 -171 18 -69 -3 50 -9 102 -14 115 -8 17 -9 5
-4 -46z"/>
<path d="M6467 4073 c14 -37 37 -101 51 -140 14 -40 27 -72 28 -70 13 12 -75
259 -97 272 -4 3 3 -25 18 -62z"/>
<path d="M10372 4070 c0 -19 3 -57 8 -85 l7 -50 1 45 c1 25 -3 63 -7 85 l-9
40 0 -35z"/>
<path d="M11231 4064 c0 -11 3 -14 6 -6 3 7 2 16 -1 19 -3 4 -6 -2 -5 -13z"/>
<path d="M4980 4051 c0 -24 61 -128 93 -157 l31 -29 -29 40 c-17 22 -44 67
-62 100 -18 33 -33 54 -33 46z"/>
<path d="M11241 4009 c0 -19 4 -43 9 -54 6 -13 7 -2 3 30 -7 59 -13 72 -12 24z"/>
<path d="M8418 4003 c-14 -16 -56 -75 -93 -133 -38 -58 -90 -134 -118 -170
-74 -96 -76 -102 -11 -34 33 34 86 106 118 160 33 55 77 123 98 152 43 58 45
66 6 25z"/>
<path d="M8518 3933 c-36 -38 -70 -79 -77 -93 -7 -14 9 0 35 30 27 30 65 72
87 93 21 20 34 37 29 37 -5 0 -38 -30 -74 -67z"/>
<path d="M5091 3974 c-1 -22 113 -154 133 -154 5 0 -15 26 -45 58 -30 31 -62
68 -71 82 -9 14 -17 20 -17 14z"/>
<path d="M6470 3979 c0 -3 9 -48 20 -100 11 -52 20 -106 20 -121 0 -16 5 -28
11 -28 11 0 7 47 -13 150 -9 46 -36 119 -38 99z"/>
<path d="M8664 3964 c-17 -8 -44 -29 -60 -47 -27 -28 -27 -30 -4 -14 14 10 45
31 70 47 48 32 45 39 -6 14z"/>
<path d="M10334 3875 c0 -55 1 -76 3 -47 2 29 2 74 0 100 -2 26 -3 2 -3 -53z"/>
<path d="M10931 3808 c-28 -163 -41 -269 -40 -333 l2 -70 9 75 c4 41 17 144
29 229 20 156 20 215 0 99z"/>
<path d="M5316 3822 c48 -36 125 -110 188 -182 38 -43 44 -48 30 -21 -25 44
-159 183 -204 210 -51 30 -60 26 -14 -7z"/>
<path d="M10242 3725 c-14 -90 -14 -178 -1 -215 7 -19 8 -15 4 20 -2 25 1 89
6 142 14 123 7 158 -9 53z"/>
<path d="M6720 3761 c0 -16 86 -125 132 -168 41 -37 115 -83 134 -83 4 0 -19
17 -52 38 -63 41 -164 144 -189 193 -16 29 -25 37 -25 20z"/>
<path d="M8085 3674 c-32 -42 -70 -84 -83 -95 -30 -23 -21 -25 13 -3 23 15 83
88 120 147 31 48 11 29 -50 -49z"/>
<path d="M6938 3648 c32 -40 260 -157 307 -158 11 0 -16 15 -60 33 -72 29
-147 69 -231 123 -25 16 -27 16 -16 2z"/>
<path d="M5441 3602 c62 -80 114 -149 127 -168 7 -10 1 5 -13 33 -14 29 -53
81 -86 115 -47 48 -53 53 -28 20z"/>
<path d="M10961 3535 c-12 -86 -14 -210 -2 -240 5 -12 10 50 13 145 3 91 5
166 3 168 -1 1 -8 -31 -14 -73z"/>
<path d="M7375 3555 c17 -8 37 -14 45 -14 8 0 -1 7 -20 14 -46 18 -64 17 -25
0z"/>
<path d="M11023 3433 c-12 -59 -8 -293 5 -340 16 -56 33 -65 19 -10 -6 23 -11
120 -11 215 0 94 -1 172 -3 172 -1 0 -6 -17 -10 -37z"/>
<path d="M9496 3410 c7 -40 44 -143 50 -138 2 2 -10 42 -26 88 -17 47 -27 69
-24 50z"/>
<path d="M5530 3395 c0 -13 100 -183 100 -170 0 6 -22 48 -50 95 -27 47 -50
81 -50 75z"/>
<path d="M9570 3335 c0 -28 43 -131 77 -182 19 -29 37 -53 39 -53 2 0 -14 33
-36 73 -21 39 -46 96 -55 125 -17 53 -25 64 -25 37z"/>
<path d="M6019 3265 c-15 -8 -30 -22 -33 -32 -6 -15 -3 -14 16 3 13 12 32 26
43 32 11 6 16 11 10 11 -5 0 -22 -6 -36 -14z"/>
<path d="M6418 3229 c-17 -9 -84 -99 -75 -99 3 0 26 25 52 55 25 30 45 55 43
55 -2 0 -11 -5 -20 -11z"/>
<path d="M11111 3147 c-1 -67 24 -200 45 -237 16 -27 16 -25 -6 60 -7 24 -18
87 -25 140 -12 88 -13 91 -14 37z"/>
<path d="M9736 3125 c15 -20 41 -45 58 -57 21 -14 13 -3 -24 35 -30 32 -56 57
-58 57 -2 0 9 -16 24 -35z"/>
<path d="M6372 3098 c-25 -41 -67 -157 -59 -164 3 -3 12 16 21 43 9 26 29 72
45 101 32 56 25 73 -7 20z"/>
<path d="M6301 2904 c0 -11 3 -14 6 -6 3 7 2 16 -1 19 -3 4 -6 -2 -5 -13z"/>
<path d="M11231 2889 c-1 -44 32 -178 54 -216 9 -15 13 -19 10 -8 -18 58 -48
174 -55 214 -7 44 -8 44 -9 10z"/>
<path d="M11365 2740 c10 -80 42 -194 70 -251 14 -27 27 -49 29 -49 2 0 -12
39 -30 88 -18 48 -40 125 -48 171 -19 97 -31 122 -21 41z"/>
<path d="M10450 2698 c0 -4 27 -44 60 -90 71 -98 105 -192 121 -336 6 -53 13
-99 15 -101 11 -12 1 115 -16 198 -10 52 -16 99 -13 104 4 6 1 7 -6 3 -8 -5
-11 -3 -9 6 2 7 -23 49 -54 93 -68 95 -97 132 -98 123z"/>
<path d="M5461 2407 c-2 -15 42 -178 46 -174 5 5 -22 122 -36 157 -5 14 -10
21 -10 17z"/>
<path d="M6232 2375 c0 -16 2 -22 5 -12 2 9 2 23 0 30 -3 6 -5 -1 -5 -18z"/>
<path d="M6211 2265 c-7 -42 -10 -79 -8 -82 6 -6 30 133 25 148 -2 6 -10 -23
-17 -66z"/>
<path d="M12740 2323 c0 -5 9 -21 20 -38 11 -16 20 -33 20 -37 0 -4 -34 9 -75
28 -41 20 -79 33 -85 29 -26 -16 -13 -43 99 -214 14 -22 12 -22 -28 7 -41 30
-138 72 -164 72 -7 0 24 -18 68 -39 44 -22 100 -58 124 -80 24 -23 46 -39 48
-37 8 7 -25 75 -65 133 -57 84 -85 143 -69 143 7 0 47 -18 90 -39 42 -22 77
-36 77 -30 0 5 -5 9 -11 9 -5 0 -7 4 -4 10 3 5 -1 23 -10 39 -28 55 -20 54
103 -4 103 -49 106 -50 96 -34 -12 20 -168 89 -201 89 -18 0 -33 -3 -33 -7z"/>
<path d="M10938 2167 c34 -34 62 -67 62 -72 0 -5 -5 -4 -12 3 -7 7 -17 12 -22
12 -6 0 9 -19 32 -43 38 -39 44 -51 53 -113 6 -38 13 -71 15 -73 2 -2 4 25 4
60 0 49 -5 72 -23 98 -12 19 -27 43 -33 53 -20 33 -117 138 -128 138 -6 0 18
-28 52 -63z"/>
<path d="M12317 2207 c46 -59 145 -123 226 -145 20 -6 35 -7 32 -2 -3 5 -18
11 -34 15 -38 8 -133 66 -196 118 -38 32 -45 35 -28 14z"/>
<path d="M12311 2138 c-1 -3 13 -37 30 -75 52 -114 89 -205 89 -220 0 -14 -77
20 -132 58 -40 29 -47 23 -7 -7 67 -50 159 -88 159 -65 0 31 -137 335 -139
309z"/>
<path d="M6203 2067 c-6 -17 -27 -76 -47 -129 -37 -101 -41 -130 -8 -55 27 60
75 207 70 213 -3 2 -9 -11 -15 -29z"/>
<path d="M5540 2057 c0 -15 103 -278 107 -273 3 3 -14 56 -37 118 -41 109 -69
171 -70 155z"/>
<path d="M10786 1894 c44 -77 70 -107 34 -39 -18 33 -39 67 -47 75 -8 8 -2 -8
13 -36z"/>
<path d="M12221 1909 c-1 -3 6 -27 15 -53 19 -55 13 -67 -18 -40 -13 11 -11 5
6 -13 50 -55 62 -21 22 62 -14 28 -25 47 -25 44z"/>
<path d="M12144 1822 c5 -54 63 -176 106 -225 48 -55 56 -45 11 16 -46 62 -78
122 -103 197 l-19 55 5 -43z"/>
<path d="M12098 1673 c29 -41 162 -145 162 -126 0 4 -17 19 -37 33 -20 14 -62
48 -92 75 -44 40 -51 44 -33 18z"/>
<path d="M12091 1625 c-1 -56 73 -203 103 -204 5 -1 2 7 -6 17 -23 25 -59 99
-79 162 -15 45 -18 49 -18 25z"/>
<path d="M6121 1571 c-1 -64 20 -210 26 -181 2 8 -3 67 -11 130 -13 104 -14
109 -15 51z"/>
<path d="M11011 1129 c1 -85 5 -165 9 -179 5 -14 6 51 3 150 -3 96 -7 177 -9
179 -2 2 -4 -65 -3 -150z"/>
<path d="M5491 1086 c-27 -67 34 -129 73 -74 17 24 13 39 -6 20 -20 -20 -38
-13 -39 16 0 15 -4 36 -9 47 -7 19 -9 18 -19 -9z"/>
</g>
</svg>
