<?xml version="1.0" standalone="no"?>
<!DOCTYPE svg PUBLIC "-//W3C//DTD SVG 20010904//EN"
 "http://www.w3.org/TR/2001/REC-SVG-20010904/DTD/svg10.dtd">
<svg version="1.0" xmlns="http://www.w3.org/2000/svg"
 width="1024.000000pt" height="559.000000pt" viewBox="0 0 1024.000000 559.000000"
 preserveAspectRatio="xMidYMid meet">
<metadata>
Created by potrace 1.16, written by Peter Selinger 2001-2019
</metadata>
<g transform="translate(0.000000,559.000000) scale(0.100000,-0.100000)"
fill="#000000" stroke="none">
<path d="M5022 5070 c-81 -29 -147 -69 -172 -102 -27 -37 -37 -98 -21 -135 8
-20 8 -43 2 -78 -8 -42 -7 -55 10 -83 16 -27 17 -40 9 -75 -5 -23 -10 -59 -10
-80 0 -33 4 -39 28 -48 23 -8 32 -21 45 -63 9 -29 17 -64 17 -78 0 -14 9 -33
21 -44 21 -19 41 -20 143 -11 18 1 32 -4 40 -15 9 -15 6 -21 -14 -35 -55 -38
-143 -131 -165 -173 -28 -56 -42 -123 -55 -265 -6 -60 -17 -139 -25 -175 -22
-98 -20 -108 20 -127 31 -15 35 -21 35 -52 -1 -78 -17 -116 -81 -203 -35 -48
-94 -133 -131 -190 -36 -57 -108 -152 -158 -213 -100 -119 -120 -155 -120
-211 0 -28 -8 -46 -34 -74 -47 -53 -84 -119 -113 -203 -41 -120 -50 -190 -93
-702 -12 -137 -23 -252 -26 -254 -2 -3 -21 0 -41 5 -35 8 -38 12 -46 59 -10
59 -19 72 -58 80 -42 9 -79 -16 -79 -55 0 -17 -3 -30 -7 -30 -5 0 -50 14 -102
30 -89 28 -111 30 -111 10 0 -5 71 -32 157 -60 162 -53 323 -90 395 -90 39 0
40 -1 35 -27 -3 -16 -10 -40 -15 -54 -10 -25 -11 -25 -89 -18 -111 12 -170 25
-326 76 -127 41 -157 45 -157 23 0 -4 50 -25 110 -45 130 -43 125 -34 117
-208 -7 -153 -11 -167 -48 -167 -34 0 -35 -1 -53 -86 -19 -94 -48 -167 -97
-248 -26 -44 -37 -72 -31 -78 6 -6 57 11 140 46 168 70 359 131 492 157 58 11
115 22 127 25 30 6 42 31 49 102 5 42 3 61 -6 67 -7 4 -50 7 -96 7 -46 0 -84
2 -84 6 0 3 19 66 42 139 l41 133 42 0 c52 0 73 21 81 82 5 38 3 49 -15 67
-11 11 -28 21 -37 21 -10 0 -14 6 -11 14 3 8 20 56 37 107 141 421 307 739
428 819 25 16 51 30 57 30 8 0 -1 -47 -26 -137 -43 -154 -45 -168 -24 -180 12
-7 12 -17 -5 -72 -24 -76 -25 -119 -5 -191 9 -30 26 -122 40 -205 13 -82 31
-186 40 -230 39 -198 55 -305 55 -371 0 -64 -2 -73 -27 -96 -56 -52 -160 -113
-219 -129 -76 -21 -101 -34 -114 -59 -14 -27 4 -68 35 -80 44 -17 194 -11 275
10 48 12 108 20 166 20 177 0 198 28 153 203 -27 105 -28 343 -3 488 21 123
15 216 -25 350 l-32 106 21 55 c34 92 33 91 132 78 70 -9 101 -9 174 4 48 8
90 13 92 11 2 -2 14 -43 26 -92 26 -102 34 -119 91 -188 23 -28 63 -94 90
-146 26 -52 74 -139 106 -194 73 -126 144 -276 159 -337 14 -55 1 -105 -53
-202 -27 -48 -45 -67 -92 -95 -112 -68 -98 -124 36 -143 139 -19 227 9 282 90
18 26 58 75 90 109 78 82 83 114 31 198 -20 33 -45 77 -55 97 -25 48 -63 202
-89 356 -31 187 -59 250 -177 406 -30 40 -38 59 -41 106 l-4 57 35 7 c34 6 59
27 69 57 4 9 29 20 61 28 77 17 84 27 69 109 -19 104 -50 319 -59 409 -8 77
-7 83 15 108 17 21 22 35 17 54 -8 30 -33 61 -50 61 -7 0 -24 52 -42 126 l-30
125 18 77 c26 109 42 275 36 357 -3 40 -21 116 -41 178 l-36 109 25 30 25 30
-40 72 c-22 39 -68 125 -102 191 -96 189 -138 242 -225 282 -76 35 -221 73
-254 66 -37 -7 -131 37 -148 71 -11 19 -11 28 0 47 13 24 23 94 35 244 5 68 3
88 -16 134 -31 80 -52 104 -132 152 -72 44 -74 44 -173 46 -78 2 -112 -2 -153
-17z m294 -50 c79 -44 92 -57 121 -114 31 -61 39 -138 23 -206 -7 -29 -13 -77
-14 -106 -1 -30 -7 -59 -14 -66 -9 -9 -12 -8 -12 5 0 9 -4 17 -10 17 -5 0 -10
-5 -10 -12 0 -8 -6 -6 -17 5 -16 15 -16 19 -1 51 27 56 32 100 14 135 -31 58
-102 51 -133 -14 -9 -19 -21 -35 -25 -35 -5 0 -6 5 -3 10 9 14 -14 110 -26
110 -13 0 1 -143 15 -152 16 -11 36 5 60 48 26 47 57 55 80 22 21 -30 20 -44
-9 -106 -20 -43 -29 -53 -46 -50 -12 2 -24 -2 -26 -9 -5 -14 40 -28 56 -19 10
7 53 -34 109 -103 22 -27 48 -46 82 -58 28 -10 50 -21 50 -24 0 -17 -82 -108
-131 -146 -89 -69 -165 -103 -230 -103 -76 0 -93 21 -68 87 l11 28 23 -30 c13
-16 27 -27 30 -23 11 11 -6 53 -41 102 l-36 48 -74 -7 c-53 -5 -79 -3 -89 5
-21 18 -18 47 5 53 28 7 25 27 -5 27 -14 0 -25 5 -25 10 0 6 13 10 29 10 36 0
61 9 61 22 0 5 -23 8 -52 7 -43 -3 -52 0 -58 16 -9 25 -4 35 19 35 24 0 43 23
35 44 -8 21 -36 21 -32 -1 2 -12 -7 -19 -35 -26 -21 -5 -41 -7 -44 -3 -3 3 0
32 7 63 24 110 24 120 0 133 -27 14 -24 54 5 58 59 8 124 26 114 32 -6 4 -27
4 -48 -1 -20 -5 -47 -9 -60 -9 -22 0 -23 3 -18 41 7 54 12 56 40 23 31 -36 63
-28 52 14 l-7 27 30 -29 c31 -29 59 -28 47 2 -4 12 1 10 18 -6 31 -29 47 -28
47 3 0 14 5 25 10 25 6 0 10 -10 10 -22 0 -29 40 -100 59 -106 10 -4 12 1 8
19 -4 13 -7 35 -7 49 0 19 -2 22 -10 10 -14 -22 -22 -7 -25 47 -2 26 -6 47 -9
46 -3 -2 -11 -3 -16 -3 -6 0 -19 -14 -29 -31 -18 -30 -20 -30 -30 -11 -6 11
-11 28 -11 36 0 29 -28 16 -35 -16 -7 -30 -8 -31 -21 -13 -8 10 -14 29 -14 42
0 13 -5 23 -10 23 -13 0 -30 -43 -30 -78 -1 -26 -1 -26 -15 -8 -8 11 -15 30
-15 43 0 33 -17 29 -40 -9 -15 -24 -20 -28 -20 -14 0 25 35 81 63 98 29 19
124 59 162 69 17 5 64 7 106 5 64 -2 84 -8 135 -36z m415 -684 c170 -47 206
-80 317 -291 43 -82 93 -175 110 -206 l32 -56 -60 -47 c-89 -70 -276 -150
-285 -123 -3 7 -24 70 -49 141 -24 71 -49 133 -55 139 -27 27 -18 -29 28 -168
l49 -150 38 -1 c33 0 41 -5 61 -40 57 -95 56 -92 47 -225 l-9 -124 -47 -25
c-53 -28 -64 -24 -47 14 10 22 10 29 -3 42 -13 13 -20 14 -38 4 -12 -6 -23
-10 -24 -8 -2 2 -20 44 -41 93 -47 113 -58 125 -106 125 -29 0 -42 -6 -58 -26
-28 -36 -26 -58 7 -86 16 -13 46 -54 66 -92 l38 -70 -26 -19 c-14 -10 -26 -26
-26 -36 0 -20 -89 -61 -131 -61 -33 0 -87 28 -155 81 -30 23 -58 38 -62 34 -9
-9 59 -69 123 -107 l50 -30 -86 5 c-145 8 -171 33 -194 189 -17 118 -37 214
-70 343 -13 50 -32 140 -41 200 -22 137 -39 162 -30 45 l6 -85 -19 45 c-10 24
-23 46 -30 48 -15 5 -15 4 15 -74 40 -104 84 -245 84 -266 0 -16 -5 -18 -37
-12 -48 8 -133 40 -157 57 -18 13 -18 18 3 138 12 68 21 145 21 170 0 66 19
157 42 203 20 40 104 136 119 136 4 0 9 -15 11 -32 4 -45 53 -71 125 -65 103
7 278 125 358 241 21 31 41 56 44 56 3 0 44 -11 92 -24z m459 -760 c32 -106
33 -114 27 -245 -4 -99 -13 -173 -35 -271 -54 -242 -56 -268 -33 -345 12 -38
20 -91 20 -124 -1 -31 -3 -48 -6 -38 -7 27 -26 15 -35 -21 -10 -36 -31 -44
-26 -10 5 32 -19 33 -27 1 -14 -57 -47 -73 -38 -19 8 53 -14 53 -29 -1 -10
-36 -18 -48 -33 -48 -18 0 -20 6 -17 62 2 33 -1 71 -7 82 -13 23 -41 29 -41 9
0 -10 -3 -9 -9 1 -13 20 -2 50 39 109 53 74 61 130 64 453 l2 274 -38 69 c-21
38 -37 70 -36 71 2 2 34 17 72 34 37 18 84 43 104 56 20 14 39 21 43 17 4 -4
22 -56 39 -116z m-1140 -148 c30 -6 60 -12 66 -13 15 -4 37 -138 29 -177 -21
-95 -117 -212 -301 -365 -98 -81 -114 -101 -114 -150 0 -13 -4 -23 -9 -23 -5
0 -17 -3 -25 -6 -14 -5 -16 0 -10 35 5 34 4 41 -10 41 -11 0 -16 -9 -16 -29 0
-22 -10 -38 -40 -64 -27 -23 -42 -45 -46 -68 -11 -70 -15 -79 -30 -79 -13 0
-15 13 -13 78 3 84 -9 109 -26 50 -13 -49 -35 -72 -35 -38 0 34 22 67 124 190
48 58 118 152 154 209 37 57 95 141 130 188 74 100 82 117 82 190 0 48 2 54
18 48 9 -4 42 -11 72 -17z m673 -130 c41 -94 44 -104 29 -116 -20 -16 -29 -6
-74 86 -17 35 -40 67 -50 73 -21 11 -24 45 -5 52 44 18 54 9 100 -95z m108
-122 c-12 -14 -127 -86 -138 -86 -17 0 11 26 67 60 68 41 90 49 71 26z m-661
-36 c0 -33 38 -98 68 -117 15 -9 29 -18 31 -19 2 -2 -8 -27 -23 -55 -14 -29
-26 -61 -26 -72 0 -10 -18 -62 -40 -115 -22 -53 -55 -140 -73 -192 l-32 -95
-43 -7 c-95 -16 -236 -127 -312 -246 -23 -35 -39 -51 -49 -47 -9 2 -68 16
-131 30 -63 15 -120 28 -127 30 -16 5 9 93 46 160 l28 49 64 1 c59 1 81 7 149
46 8 5 25 13 38 19 12 5 28 22 34 37 7 16 21 34 30 41 28 21 23 70 -11 101
-46 43 -34 68 78 160 112 91 253 237 272 281 16 35 29 39 29 10z m798 -7 c-4
-24 -147 -95 -234 -115 -38 -10 -105 -20 -149 -23 l-80 -6 55 21 c30 11 93 29
140 39 88 19 192 58 232 85 29 21 40 20 36 -1z m-148 -13 c-8 -5 -22 -10 -30
-10 -13 0 -13 1 0 10 8 5 22 10 30 10 13 0 13 -1 0 -10z m142 -227 c-7 -12
-16 -2 -41 51 -17 36 -31 72 -31 79 0 6 17 22 38 33 l37 22 3 -84 c1 -46 -1
-92 -6 -101z m-64 24 c35 -70 50 -109 46 -125 -4 -12 -9 -22 -13 -22 -19 0
-102 98 -130 153 l-32 62 38 17 c21 10 39 18 39 18 1 0 24 -46 52 -103z m-543
63 c11 0 10 -9 -2 -47 -23 -77 -41 -183 -32 -189 5 -2 11 8 15 23 41 183 50
206 78 199 12 -3 73 -6 137 -6 l117 0 7 -75 c4 -41 11 -77 16 -81 11 -6 11 66
0 123 -8 39 -6 42 17 48 29 7 23 13 58 -60 16 -33 54 -86 86 -119 l56 -58 -21
-36 c-12 -20 -24 -57 -27 -82 -4 -32 -10 -46 -22 -48 -10 -2 -18 2 -18 10 0 7
-16 34 -35 59 -122 168 -405 126 -507 -74 -72 -144 -38 -327 84 -445 59 -58
70 -41 29 47 -95 207 -32 397 146 435 71 16 165 -39 211 -124 20 -37 25 -38
119 -24 34 5 45 2 63 -16 19 -19 29 -21 68 -15 26 4 78 24 117 45 60 32 72 43
84 78 8 22 23 43 33 45 14 4 18 -3 22 -37 28 -225 40 -312 56 -398 13 -72 15
-101 6 -103 -17 -7 -100 -24 -102 -22 -1 1 -5 88 -11 194 -8 172 -14 216 -27
202 -2 -2 0 -103 6 -223 8 -196 8 -221 -7 -235 -13 -13 -53 -17 -228 -23 -131
-4 -241 -12 -287 -22 -142 -30 -236 -19 -457 53 -67 22 -142 43 -167 46 -30 5
-46 12 -46 21 0 17 57 228 72 267 7 19 18 27 34 27 31 0 64 33 64 64 0 13 -10
36 -22 51 l-22 29 41 115 c22 64 50 139 62 166 11 28 27 75 35 105 20 72 52
124 72 116 9 -3 22 -6 29 -6z m854 -151 c7 -33 15 -67 17 -73 3 -7 -6 -17 -20
-24 -21 -9 -25 -8 -30 11 -12 47 -2 162 14 152 4 -2 13 -32 19 -66z m-572
-124 c50 -10 110 -60 144 -120 19 -35 38 -55 49 -55 32 0 32 -29 0 -45 -38
-20 -37 -21 -59 23 -24 47 -91 109 -128 119 -55 15 -136 8 -186 -16 -55 -27
-111 -94 -129 -155 -14 -49 -16 -146 -5 -201 11 -52 -4 -36 -29 30 -26 69 -24
184 3 246 40 89 108 147 204 173 52 14 66 14 136 1z m641 3 c21 -21 13 -47
-18 -63 -36 -19 -60 -19 -60 -1 0 8 -2 21 -5 28 -4 9 7 20 27 30 41 21 41 21
56 6z m-1494 -60 c15 -25 -7 -47 -29 -28 -17 14 -111 8 -129 -10 -15 -15 -26
-12 -20 5 3 7 24 21 47 29 82 29 114 30 131 4z m-76 -79 c2 -13 -4 -33 -12
-44 -14 -19 -15 -17 -16 28 0 35 4 47 13 45 6 -3 13 -15 15 -29z m29 -11 c-3
-7 -5 -2 -5 12 0 14 2 19 5 13 2 -7 2 -19 0 -25z m-81 7 c7 -18 -14 -75 -28
-75 -6 0 -8 10 -4 23 3 12 6 32 6 45 0 25 18 30 26 7z m-154 -25 c3 -23 -2
-36 -24 -57 -34 -33 -81 -124 -98 -191 -9 -32 -20 -52 -34 -58 -25 -11 -33
-56 -13 -75 10 -11 12 -30 6 -84 -24 -209 -58 -615 -59 -687 0 -13 -8 -18 -30
-18 -30 0 -30 1 -30 52 0 63 35 474 55 648 18 156 38 235 81 326 30 65 115
174 134 174 4 0 10 -13 12 -30z m1428 -5 c0 -28 -4 -35 -20 -35 -25 0 -40 48
-19 61 27 17 39 9 39 -26z m-1344 -40 c-16 -24 -56 -35 -56 -15 0 6 6 10 13
10 8 0 22 9 32 20 24 27 32 17 11 -15z m534 -74 c14 -28 -8 -47 -64 -54 -132
-18 -231 -125 -357 -385 -103 -213 -224 -543 -354 -963 -34 -112 -37 -117 -66
-123 -55 -11 -59 -9 -49 22 295 927 476 1315 678 1454 92 63 191 86 212 49z
m-606 -244 c132 -31 169 -49 131 -63 -17 -7 -274 52 -289 66 -9 9 0 30 12 30
4 -1 70 -15 146 -33z m1 -76 c61 -15 108 -32 106 -37 -2 -5 -21 -47 -43 -94
-52 -111 -155 -367 -203 -502 -25 -71 -43 -108 -52 -108 -12 0 -14 10 -9 48 3
26 8 94 11 152 16 279 51 570 69 570 6 -1 61 -14 121 -29z m680 -156 c61 -20
115 -38 122 -40 8 -3 4 -20 -14 -56 -38 -80 -38 -104 -4 -225 36 -129 40 -210
15 -379 -19 -129 -14 -369 9 -450 42 -147 36 -155 -101 -155 -66 0 -118 -6
-168 -20 -57 -16 -96 -20 -181 -18 -100 3 -108 4 -108 23 0 16 15 25 81 46 88
29 213 106 259 161 27 32 28 35 22 123 -3 49 -24 182 -46 295 -22 113 -45 246
-51 295 -6 50 -22 132 -36 183 -28 99 -28 92 7 226 10 37 11 38 48 32 20 -3
86 -22 146 -41z m787 -32 l97 -6 7 -51 c9 -70 19 -92 63 -145 93 -112 130
-196 156 -366 18 -113 59 -295 77 -340 7 -16 31 -61 55 -100 57 -92 57 -118
-3 -175 -25 -25 -65 -73 -89 -106 -54 -75 -99 -97 -195 -95 -147 3 -174 31
-83 85 29 17 64 46 77 65 36 48 86 173 86 213 0 76 -49 193 -164 392 -32 54
-79 143 -106 197 -27 54 -69 122 -93 152 -57 68 -60 76 -87 172 -12 43 -24 85
-27 91 -8 21 76 28 229 17z m-1938 -439 c3 -9 6 -27 6 -41 0 -21 -3 -24 -22
-19 -13 3 -26 6 -29 6 -10 0 -21 49 -14 60 10 16 52 11 59 -6z m476 -203 c0
-43 -14 -61 -48 -61 -21 0 -24 4 -19 28 12 60 25 81 46 75 16 -4 21 -13 21
-42z m-443 -79 c8 -34 -4 -249 -17 -294 -13 -46 -38 -57 -63 -26 -15 19 -17
34 -11 93 3 39 6 116 5 171 l-1 102 40 -10 c30 -8 42 -17 47 -36z m89 4 c4 -3
-26 -308 -31 -316 -3 -6 -15 -10 -27 -10 -17 0 -19 4 -13 23 4 12 9 88 12 169
l5 148 27 -7 c14 -3 27 -6 27 -7z m94 -6 c17 0 17 -3 3 -47 -8 -27 -29 -94
-46 -150 -17 -57 -35 -103 -39 -103 -4 0 -5 6 -3 13 2 6 9 72 15 145 5 74 13
138 16 143 3 6 13 8 21 5 8 -3 23 -6 33 -6z m-321 -321 c18 -6 31 -18 31 -27
0 -35 -134 -252 -146 -239 -2 2 10 37 25 78 16 40 35 102 41 137 7 34 14 62
15 62 1 0 16 -5 34 -11z m561 -41 c0 -59 -8 -67 -71 -78 -99 -16 -123 -22
-233 -53 -61 -17 -160 -49 -220 -73 -61 -23 -113 -40 -114 -39 -2 2 15 27 38
56 23 29 55 79 71 111 30 60 28 59 132 84 63 15 217 32 305 33 l92 1 0 -42z"/>
<path d="M4948 4723 c-10 -2 -18 -10 -18 -16 0 -8 26 -12 85 -12 47 0 85 3 85
8 0 21 -99 34 -152 20z"/>
<path d="M5300 4694 c-7 -18 -7 -31 1 -40 6 -7 8 -22 4 -34 -8 -26 11 -26 25
1 9 15 8 24 0 35 -15 17 -6 44 15 44 8 0 15 5 15 10 0 6 -11 10 -25 10 -18 0
-28 -7 -35 -26z"/>
<path d="M4981 4681 c-10 -7 -10 -12 5 -30 21 -24 44 -28 44 -7 0 9 8 12 25 8
40 -7 29 16 -12 27 -45 13 -45 13 -62 2z"/>
<path d="M4994 4605 c22 -17 46 -20 46 -6 0 5 -10 11 -22 15 -37 9 -44 6 -24
-9z"/>
<path d="M5162 4570 c-17 -21 -32 -44 -32 -51 0 -14 56 36 71 63 18 33 -7 26
-39 -12z"/>
<path d="M5010 4507 c0 -8 7 -17 15 -21 9 -3 25 -22 38 -43 15 -27 23 -33 25
-21 5 24 -13 53 -48 78 -23 17 -30 18 -30 7z"/>
<path d="M5276 4498 c-16 -58 -26 -76 -64 -104 -51 -40 -38 -55 17 -20 44 28
55 44 64 93 6 31 -9 59 -17 31z"/>
<path d="M5306 4368 c-3 -13 -6 -43 -6 -68 -1 -25 -5 -64 -9 -87 -5 -25 -5
-43 1 -43 13 0 17 17 27 115 9 85 1 134 -13 83z"/>
<path d="M5611 4218 c-12 -26 -47 -146 -77 -265 -31 -120 -71 -256 -90 -303
-46 -111 -50 -125 -35 -116 35 22 86 163 147 409 25 99 54 206 65 238 26 74
18 100 -10 37z"/>
<path d="M5777 4212 c-28 -31 -48 -92 -54 -163 -4 -49 -2 -69 6 -69 6 0 11 16
11 38 0 49 27 139 51 174 11 14 19 29 19 32 0 12 -17 6 -33 -12z"/>
<path d="M5502 4150 c-39 -52 -146 -162 -186 -192 -21 -15 -52 -28 -68 -28
-15 0 -28 -4 -28 -10 0 -5 15 -10 34 -10 34 0 87 30 139 79 35 31 120 137 136
169 17 32 -1 27 -27 -8z"/>
<path d="M5640 3951 c0 -85 55 -261 82 -261 6 0 7 8 3 18 -30 71 -57 167 -62
220 -6 68 -23 85 -23 23z"/>
<path d="M5210 3478 c0 -21 62 -144 67 -132 3 10 -55 144 -63 144 -2 0 -4 -6
-4 -12z"/>
<path d="M4983 3287 c6 -19 55 -33 69 -19 15 15 11 18 -35 25 -27 4 -37 3 -34
-6z"/>
<path d="M5604 2270 c7 -164 17 -251 27 -235 9 15 -14 372 -25 382 -5 5 -6
-57 -2 -147z"/>
<path d="M5086 1793 c-3 -21 -9 -48 -12 -60 -4 -14 -2 -23 4 -23 12 0 32 61
32 98 0 36 -17 25 -24 -15z"/>
<path d="M5254 857 c5 -33 3 -47 -9 -57 -19 -16 -19 -30 0 -30 24 0 38 38 30
86 -3 24 -11 44 -17 44 -6 0 -8 -16 -4 -43z"/>
<path d="M5969 1776 c-2 -2 -2 -33 1 -68 6 -78 26 -76 22 2 -4 51 -12 77 -23
66z"/>
<path d="M6360 963 c0 -4 7 -17 15 -27 8 -11 15 -35 15 -53 0 -39 15 -44 24
-7 5 17 1 37 -11 57 -17 29 -43 48 -43 30z"/>
</g>
</svg>
