<?xml version="1.0" standalone="no"?>
<!DOCTYPE svg PUBLIC "-//W3C//DTD SVG 20010904//EN"
 "http://www.w3.org/TR/2001/REC-SVG-20010904/DTD/svg10.dtd">
<svg version="1.0" xmlns="http://www.w3.org/2000/svg"
 width="1024.000000pt" height="559.000000pt" viewBox="0 0 1024.000000 559.000000"
 preserveAspectRatio="xMidYMid meet">
<metadata>
Created by potrace 1.16, written by Peter Selinger 2001-2019
</metadata>
<g transform="translate(0.000000,559.000000) scale(0.100000,-0.100000)"
fill="#000000" stroke="none">
<path d="M5394 5060 c-113 -29 -206 -83 -190 -108 3 -5 -3 -21 -14 -35 -32
-41 -45 -106 -31 -158 8 -26 12 -104 12 -194 0 -139 2 -160 34 -285 37 -143
54 -172 113 -186 25 -7 41 -20 42 -36 0 -3 -12 -11 -27 -17 -16 -5 -53 -24
-83 -42 -244 -139 -254 -151 -320 -354 -59 -183 -87 -260 -95 -260 -5 0 -38
72 -75 160 -86 208 -113 259 -150 285 -36 26 -51 26 -296 10 -150 -10 -215
-11 -314 -1 -276 27 -263 28 -293 -9 -56 -66 -21 -160 61 -160 36 0 62 -14 62
-32 0 -4 -26 -8 -58 -8 -45 0 -63 -5 -80 -20 -12 -12 -22 -26 -22 -32 0 -15
372 -753 388 -770 4 -4 49 -12 100 -19 l92 -12 0 -796 0 -796 -118 -145 c-112
-137 -120 -145 -155 -146 -20 -1 -56 -9 -81 -18 -38 -14 -44 -21 -49 -52 -10
-62 3 -78 77 -94 36 -7 66 -16 66 -19 0 -3 -21 -15 -48 -25 -68 -28 -72 -32
-72 -93 0 -53 1 -54 38 -70 80 -34 98 -31 280 46 94 39 183 71 198 71 16 0
110 -20 209 -45 99 -25 188 -45 197 -45 20 0 109 41 121 55 11 14 2 106 -12
114 -6 4 -42 15 -81 25 -38 10 -70 22 -70 27 0 5 16 17 35 26 32 15 35 20 35
60 0 56 -30 77 -115 80 l-60 1 -81 125 -82 124 -6 429 c-3 236 -9 590 -12 788
l-6 359 93 -7 c183 -13 184 -14 202 -55 36 -80 117 -141 190 -141 41 0 52 4
78 32 16 18 29 39 29 47 0 10 3 11 9 5 16 -15 15 -87 -1 -119 -47 -90 -95
-336 -133 -680 -63 -578 -79 -760 -70 -776 11 -17 79 -56 126 -72 l44 -15 7
-78 c4 -44 10 -90 13 -104 12 -45 24 1 15 55 -5 28 -9 67 -9 88 l-1 37 58 -6
c129 -13 205 -25 289 -45 l88 -21 -3 -87 c-2 -61 0 -82 7 -71 6 8 11 46 11 84
l0 68 48 -6 c26 -4 66 -9 89 -12 l42 -6 11 -57 c19 -98 21 -104 30 -95 8 8 2
62 -15 131 -5 22 -3 23 57 23 74 0 204 22 303 50 38 11 73 20 77 20 5 0 8 -26
8 -57 0 -77 10 -134 22 -127 6 4 8 42 3 100 -6 86 -5 94 12 100 54 19 132 58
136 68 2 6 -8 97 -24 201 -15 105 -35 255 -44 335 -48 445 -78 630 -131 800
-14 47 -27 91 -27 99 -1 9 28 23 81 41 168 57 272 121 309 194 25 48 43 126
43 186 0 93 -20 185 -121 554 -76 278 -116 374 -182 439 -43 41 -278 173 -370
207 -48 18 -73 54 -86 126 -7 37 -6 53 4 64 33 37 122 231 139 303 25 107 19
208 -17 270 -15 24 -33 47 -42 50 -8 4 -28 28 -44 54 -31 49 -65 78 -81 68 -5
-3 -26 3 -47 13 -45 23 -129 42 -181 41 -20 0 -69 -9 -108 -19z m266 -37 c30
-13 63 -31 73 -41 14 -13 20 -13 26 -4 6 10 12 6 24 -12 10 -14 17 -29 17 -34
0 -5 16 -23 35 -40 46 -43 66 -84 72 -151 9 -92 -19 -201 -85 -331 -52 -106
-57 -112 -60 -81 -3 24 2 37 16 47 35 24 72 99 72 145 0 80 -65 107 -114 48
-14 -17 -26 -35 -26 -40 0 -5 -4 -9 -9 -9 -4 0 -11 27 -14 60 -3 38 -13 70
-27 90 -30 42 -42 101 -31 150 l9 41 -34 -20 c-18 -11 -50 -24 -70 -30 l-37
-10 33 34 c19 19 29 35 24 35 -6 0 -14 -4 -19 -9 -12 -11 -97 -37 -148 -46
l-38 -6 38 35 38 36 -70 -26 c-38 -14 -73 -28 -79 -31 -13 -8 2 17 27 44 32
36 16 35 -35 -3 -26 -18 -56 -50 -66 -70 l-19 -37 -7 26 c-11 46 22 128 68
166 8 7 13 17 11 22 -11 17 127 71 210 82 57 7 140 -5 195 -30z m-340 -213
c-29 -18 18 -22 90 -7 63 13 69 13 58 -1 -12 -14 -7 -15 41 -9 29 4 64 13 77
22 13 8 25 15 26 15 2 0 3 -28 3 -63 1 -51 6 -70 25 -98 18 -25 26 -52 30 -99
6 -80 25 -89 64 -30 26 39 55 51 82 32 37 -25 20 -105 -36 -163 -33 -35 -43
-40 -66 -35 -24 6 -26 5 -15 -8 8 -9 19 -16 26 -16 8 0 14 -26 18 -79 6 -94
32 -159 77 -191 l32 -23 -48 -48 c-57 -58 -164 -113 -254 -131 l-65 -13 -35
-87 c-19 -48 -38 -89 -41 -93 -3 -3 -9 37 -12 89 -5 94 -6 96 -41 127 -40 35
-48 79 -19 111 23 26 33 22 33 -12 0 -16 5 -30 10 -30 7 0 9 20 4 58 l-6 57
48 13 c94 25 212 114 240 181 20 48 16 62 -6 20 -40 -76 -159 -161 -253 -181
-45 -10 -62 -9 -93 3 -48 18 -54 32 -93 184 -31 121 -36 177 -22 250 4 22 3
53 -2 68 -12 35 -6 41 42 41 22 1 42 4 46 8 10 10 -41 21 -71 15 -19 -3 -24
-1 -20 10 4 8 9 27 12 41 9 43 26 82 35 82 5 0 6 -7 3 -15 -8 -19 3 -18 46 5
34 18 59 18 30 0z m698 -824 c237 -123 264 -163 366 -536 134 -492 143 -556
99 -694 -39 -122 -195 -205 -529 -281 -140 -32 -169 -32 -189 -1 -19 29 -50
135 -60 203 l-7 51 42 -8 c22 -4 44 -11 48 -15 4 -3 7 -60 7 -125 0 -100 2
-116 14 -107 11 9 13 39 8 147 -6 154 -28 278 -58 328 l-20 34 94 -7 c70 -5
117 -2 184 10 118 22 148 13 244 -67 41 -33 63 -48 49 -32 -43 49 -94 93 -122
106 -43 20 -33 31 21 25 58 -7 116 -34 167 -80 27 -23 34 -26 26 -11 -13 24
-62 63 -111 89 -38 19 -118 25 -171 11 -35 -8 -35 -8 -17 12 37 41 191 56 233
21 8 -6 17 -9 21 -6 7 8 -54 35 -97 43 -39 8 -123 -13 -164 -41 l-34 -23 -11
25 c-16 34 -14 69 8 141 11 35 22 93 25 130 7 82 4 75 -24 -53 -20 -87 -24
-97 -32 -75 -19 47 -47 185 -48 228 0 24 -5 42 -11 42 -17 0 -2 -134 27 -242
13 -50 22 -99 19 -108 -3 -10 1 -37 9 -61 12 -33 12 -45 3 -51 -14 -9 -92 -12
-215 -8 -53 1 -88 -2 -97 -10 -19 -15 -51 4 -112 66 -23 24 -54 46 -70 50 -15
3 -64 17 -108 31 -75 23 -80 24 -92 7 -7 -10 -13 -21 -13 -25 0 -17 44 -59 75
-70 50 -18 43 -29 -17 -29 -87 0 -128 10 -128 31 0 10 -8 24 -19 31 -10 7 -20
22 -22 33 -3 12 -17 24 -36 30 -29 10 -30 12 -17 30 8 11 14 31 12 45 -4 32
-37 38 -74 14 l-27 -18 5 229 c4 224 -4 254 -18 67 -4 -51 -9 -91 -11 -88 -2
2 -10 50 -17 107 -8 57 -14 86 -15 64 0 -22 5 -80 13 -130 8 -49 17 -125 21
-167 l7 -77 -30 -15 c-17 -9 -39 -27 -51 -41 l-20 -26 -15 23 c-8 13 -31 57
-50 98 l-35 75 73 217 c67 200 102 276 144 310 8 7 63 41 121 75 l106 62 3
-38 c2 -30 12 -47 43 -75 39 -36 39 -38 39 -110 0 -90 8 -136 25 -136 7 0 29
42 49 94 20 52 42 99 49 104 7 5 37 15 67 22 95 21 178 67 244 135 34 34 63
61 66 61 3 -1 65 -32 138 -70z m-2038 -167 c108 -10 361 -6 475 8 49 6 50 6
33 -14 -27 -30 -33 -77 -14 -113 l16 -32 -93 6 c-50 3 -219 9 -375 12 l-283 7
-20 26 c-24 29 -20 72 9 104 15 17 25 18 77 13 33 -4 112 -12 175 -17z m602 0
c38 -17 66 -68 175 -322 104 -242 206 -448 270 -542 l33 -50 -26 -3 c-14 -2
-31 -1 -39 1 -7 3 -83 149 -169 324 -86 175 -162 329 -170 343 -14 24 -19 25
-153 32 -76 4 -252 11 -392 16 -254 9 -270 12 -271 46 0 10 422 1 590 -13 140
-12 168 1 160 74 -3 27 -17 35 -62 35 -43 0 -49 15 -18 48 23 25 38 27 72 11z
m-8 -95 c8 -22 -11 -54 -33 -54 -19 0 -44 24 -54 53 -5 14 0 17 37 17 31 0 46
-5 50 -16z m-249 -134 c105 -6 215 -10 245 -10 51 0 53 -1 38 -17 -16 -15 -41
-15 -310 -4 -161 7 -362 15 -445 18 -133 5 -151 8 -141 21 13 15 174 13 613
-8z m-215 -40 c129 -6 292 -13 361 -16 l126 -7 24 -51 c13 -28 98 -204 190
-391 92 -187 166 -341 165 -342 -1 -1 -42 2 -92 7 -49 5 -154 14 -234 20 -204
15 -192 10 -188 73 2 32 8 52 16 53 6 1 21 2 32 3 10 0 24 10 29 20 9 15 -2
46 -53 154 -36 74 -72 137 -81 141 -9 3 -61 6 -116 6 -95 0 -100 -1 -110 -23
-9 -20 -4 -37 30 -105 40 -80 41 -84 41 -185 l0 -103 -87 8 c-48 5 -88 10 -89
11 -6 6 -374 735 -374 741 0 4 39 5 88 2 48 -4 193 -11 322 -16z m893 -721
c15 -21 16 -21 60 20 30 28 48 38 52 30 7 -11 -110 -138 -119 -129 -5 6 -353
713 -373 758 -11 27 -12 37 -1 49 10 13 40 -42 189 -346 98 -198 184 -370 192
-382z m147 386 c0 -9 -11 -27 -25 -40 -20 -21 -34 -25 -81 -25 -56 0 -57 0
-40 19 10 11 32 23 50 27 17 3 40 13 51 20 26 18 45 18 45 -1z m-760 -25 c0
-6 -38 -10 -95 -10 -57 0 -95 4 -95 10 0 6 38 10 95 10 57 0 95 -4 95 -10z
m83 -132 c31 -67 53 -126 49 -130 -5 -5 -35 48 -68 117 -55 114 -62 135 -45
135 3 0 32 -55 64 -122z m-153 105 l62 -6 58 -119 c45 -91 54 -118 41 -117
-10 0 -32 33 -61 92 l-45 92 -62 3 c-57 3 -62 1 -65 -20 -3 -20 -6 -18 -26 19
-12 23 -22 47 -22 53 0 12 32 13 120 3z m1189 -73 c29 -8 56 -25 82 -53 50
-52 88 -77 116 -77 34 0 55 -53 78 -193 5 -34 4 -38 -12 -34 -97 28 -134 30
-212 12 -52 -12 -98 -16 -135 -12 -60 6 -146 40 -146 57 0 7 6 8 18 2 9 -5 34
-12 55 -16 55 -10 38 9 -20 23 -45 12 -103 53 -103 74 0 5 6 5 13 -1 17 -14
137 -41 137 -31 0 7 -26 16 -102 33 -32 7 -98 62 -98 81 0 9 16 6 58 -10 63
-25 158 -42 148 -27 -3 5 -32 15 -65 21 -59 12 -151 55 -151 71 0 16 25 17 80
4 69 -17 163 -17 215 -2 33 9 36 12 20 18 -79 25 -153 79 -139 101 2 4 30 -1
62 -11 31 -11 77 -24 101 -30z m-335 34 c9 -3 16 -12 16 -19 0 -17 -23 -25
-73 -25 -61 0 -117 -11 -117 -23 0 -6 19 -7 48 -4 140 18 172 19 172 8 0 -6
-8 -11 -17 -11 -9 0 -26 -9 -38 -20 -21 -20 -119 -45 -136 -34 -9 5 -69 118
-69 129 0 7 195 6 214 -1z m-814 -806 c1 -425 3 -945 6 -1154 3 -221 2 -384
-3 -387 -5 -3 -28 -1 -51 5 -40 10 -42 12 -42 48 0 23 14 68 35 113 33 69 36
80 33 157 l-3 84 -32 8 -33 9 0 944 0 945 45 0 45 0 0 -772z m50 681 l31 -61
6 -867 6 -868 -26 -7 c-27 -6 -27 -8 -27 -89 0 -74 3 -86 30 -127 26 -39 30
-54 30 -111 l0 -67 -37 -15 c-21 -8 -39 -14 -39 -13 -4 4 -12 2286 -9 2286 3
0 19 -27 35 -61z m748 -26 c-2 -10 -21 -24 -42 -32 -37 -14 -39 -14 -59 10
l-19 24 33 6 c67 13 91 10 87 -8z m-1 -71 c-16 -15 -19 -15 -27 -2 -7 11 -5
19 7 28 25 18 42 -3 20 -26z m47 -30 c56 -95 79 -121 119 -137 63 -26 152 -30
244 -11 45 9 87 14 95 11 19 -8 43 -146 27 -156 -20 -12 -157 -21 -212 -13
l-52 7 73 20 c40 10 71 21 69 24 -3 2 -30 -3 -60 -12 -87 -25 -157 -34 -191
-23 -17 5 -50 12 -73 14 -62 6 -151 42 -164 66 -18 33 -2 116 29 155 71 89 74
91 96 55z m-144 5 c0 -2 -9 -12 -19 -21 -19 -17 -20 -17 -31 3 -10 19 -8 21
20 21 16 0 30 -2 30 -3z m-4 -134 c-3 -10 -10 -38 -15 -62 -18 -82 -88 -124
-154 -90 -48 25 -139 130 -125 144 2 2 26 1 52 -3 48 -7 50 -8 60 -51 13 -52
52 -87 85 -76 24 7 61 60 61 85 0 8 -8 -1 -19 -20 -20 -38 -64 -61 -82 -43 -6
6 -17 28 -24 49 l-13 39 63 3 c47 2 67 8 80 22 22 25 38 26 31 3z m156 -161
c120 -31 307 -46 408 -32 87 12 99 8 100 -32 0 -13 -15 -17 -87 -23 -231 -20
-511 30 -535 94 -9 27 -19 27 114 -7z m-65 -57 c113 -44 363 -67 508 -48 l69
10 32 -34 c29 -31 35 -33 75 -27 24 3 58 10 76 14 l32 8 11 -51 c6 -29 22
-146 36 -262 27 -237 35 -279 28 -155 -7 111 -41 385 -54 430 -5 19 -10 35
-10 36 0 1 9 4 20 7 11 3 20 0 20 -6 0 -9 2 -9 8 0 4 6 20 17 36 23 37 14 37
14 76 -128 43 -152 74 -338 105 -627 14 -132 39 -332 55 -445 17 -113 30 -211
30 -217 0 -36 -276 -122 -458 -143 -110 -12 -264 0 -392 31 -112 27 -170 37
-319 54 -102 11 -136 20 -189 46 l-65 32 7 106 c7 123 15 204 61 621 44 393
79 585 128 703 18 42 22 43 74 22z m-553 -1553 c75 -116 137 -217 139 -224 1
-6 -5 -13 -13 -15 -15 -3 -41 34 -228 327 -64 100 -71 115 -55 121 10 4 19 6
19 5 1 0 63 -97 138 -214z m-291 202 c12 -4 1 -35 -57 -152 -40 -81 -92 -189
-116 -239 -24 -51 -48 -93 -54 -93 -38 1 -33 20 50 190 166 340 146 306 177
294z m247 -231 c69 -108 126 -199 128 -204 2 -4 -16 -2 -38 3 -39 10 -47 19
-128 142 -79 121 -86 136 -92 194 -3 34 -3 62 0 62 3 -1 61 -89 130 -197z
m-301 -73 c-62 -129 -76 -150 -102 -160 -17 -5 -32 -9 -34 -7 -1 2 43 99 100
216 l102 213 3 -56 c3 -52 -2 -68 -69 -206z m-109 90 c-46 -92 -65 -120 -76
-116 -9 3 -22 6 -31 6 -8 0 -13 5 -11 12 5 15 172 226 176 223 2 -2 -24 -58
-58 -125z m610 -50 c23 -7 24 -8 5 -14 -11 -4 -31 -12 -45 -18 -19 -7 -27 -6
-37 8 -7 10 -13 21 -13 26 0 10 56 9 90 -2z m50 -49 c0 -32 -13 -46 -51 -56
-21 -5 -27 -2 -37 21 -15 31 -16 29 28 48 50 22 60 20 60 -13z m-807 -5 c3 -8
22 -18 41 -22 20 -3 36 -11 36 -16 0 -6 -10 -8 -22 -4 -13 3 -51 11 -85 18
-63 11 -79 22 -45 31 37 10 70 6 75 -7z m531 -23 c13 -21 23 -39 21 -41 -1 -1
-16 3 -33 9 -26 9 -32 16 -32 40 0 39 15 36 44 -8z m-476 -64 c-5 -16 -14 -31
-19 -34 -5 -3 -42 2 -84 12 l-75 17 0 36 0 36 94 -19 94 -20 -10 -28z m212 42
c0 -6 -4 -13 -10 -16 -5 -3 -10 1 -10 9 0 9 5 16 10 16 6 0 10 -4 10 -9z m264
-33 c22 -7 48 -20 57 -29 26 -26 121 -43 161 -29 25 9 43 9 76 1 23 -7 42 -14
42 -16 0 -3 -14 -12 -32 -21 -30 -16 -38 -15 -225 27 -106 24 -193 47 -193 50
0 5 47 26 64 28 5 1 27 -5 50 -11z m-196 -17 c10 -6 -42 -31 -154 -75 -163
-65 -170 -67 -211 -55 -24 6 -43 14 -43 18 0 3 22 14 50 24 37 13 55 15 69 7
28 -15 53 -13 104 9 28 12 52 32 66 54 20 33 24 35 63 30 23 -2 49 -8 56 -12z
m37 -52 c4 -17 3 -35 -1 -39 -7 -6 -261 -116 -341 -147 -9 -4 -13 7 -13 36 0
39 3 42 43 61 45 21 287 117 299 119 3 1 9 -13 13 -30z m235 -13 l185 -43 3
-43 c2 -32 0 -41 -10 -38 -18 7 -217 55 -313 76 l-80 18 -3 37 c-3 30 0 37 15
37 10 -1 101 -20 203 -44z m300 -40 c0 -36 -6 -43 -62 -69 l-38 -17 0 44 c0
41 2 44 38 59 56 23 62 21 62 -17z m-929 -43 c27 -5 29 -9 29 -49 0 -49 2 -49
-60 -30 -43 13 -45 15 -48 56 -3 42 -3 42 24 36 14 -4 39 -10 55 -13z"/>
<path d="M5659 4974 c19 -8 41 -19 48 -26 7 -6 13 -8 13 -4 0 10 -63 46 -80
46 -8 -1 0 -7 19 -16z"/>
<path d="M5255 4917 c-25 -24 -45 -50 -45 -58 0 -7 11 3 24 22 14 20 40 46 58
58 18 11 27 21 21 21 -7 0 -33 -19 -58 -43z"/>
<path d="M5610 4920 l-45 -7 40 -1 c22 0 51 4 65 8 32 10 5 10 -60 0z"/>
<path d="M5781 4843 c11 -34 19 -42 19 -20 0 7 -7 22 -15 33 -13 17 -14 16 -4
-13z"/>
<path d="M5828 4830 c9 -21 18 -35 20 -30 3 9 -25 70 -33 70 -2 0 4 -18 13
-40z"/>
<path d="M5802 4780 c0 -14 2 -19 5 -12 2 6 2 18 0 25 -3 6 -5 1 -5 -13z"/>
<path d="M5661 4767 c-1 -21 25 -87 34 -87 3 0 3 5 -1 11 -4 7 -13 30 -20 53
-7 23 -13 33 -13 23z"/>
<path d="M5386 4681 c-8 -13 -4 -14 44 -11 19 0 55 -6 79 -15 52 -18 63 -14
26 11 -32 21 -139 32 -149 15z"/>
<path d="M5301 4618 c-1 -21 -2 -21 -36 -8 -38 14 -58 1 -39 -25 15 -20 15
-20 30 -1 26 36 27 7 4 -63 -30 -88 -23 -100 58 -96 40 1 57 6 58 16 0 8 -1
10 -3 4 -3 -8 -44 -11 -100 -6 -20 2 -15 42 12 110 15 35 24 68 21 75 -2 6 -5
3 -5 -6z"/>
<path d="M5414 4598 c-4 -7 -3 -8 4 -4 6 3 16 -3 22 -14 13 -24 30 -26 30 -4
0 12 6 15 28 10 26 -6 26 -6 8 9 -23 18 -82 20 -92 3z"/>
<path d="M5766 4545 c-23 -23 -30 -56 -15 -66 11 -8 11 -12 -3 -23 -10 -7 -18
-16 -18 -20 0 -8 38 -2 47 9 5 4 3 5 -3 2 -6 -4 -10 9 -10 35 1 46 29 75 46
48 5 -8 10 -10 10 -4 0 11 -20 34 -31 34 -4 0 -14 -7 -23 -15z"/>
<path d="M5277 4353 c-12 -12 -7 -58 9 -81 16 -23 77 -32 89 -13 3 6 -9 7 -31
4 -29 -5 -35 -3 -29 7 5 8 21 11 46 7 51 -7 59 15 20 54 -21 21 -39 29 -64 29
-18 0 -37 -3 -40 -7z m68 -13 c15 -7 10 -9 -23 -9 -26 -1 -41 3 -37 9 7 12 32
12 60 0z"/>
<path d="M5289 4217 c15 -19 66 -23 76 -7 4 7 -2 9 -18 5 -14 -4 -36 -1 -49 6
-21 11 -22 11 -9 -4z"/>
<path d="M5586 4022 c-36 -86 -41 -103 -22 -72 19 31 58 131 53 136 -2 2 -16
-26 -31 -64z"/>
<path d="M6082 3816 c-45 -49 -77 -105 -98 -175 -20 -67 -16 -86 5 -21 26 82
66 154 109 199 22 23 36 41 32 41 -4 0 -26 -20 -48 -44z"/>
<path d="M5895 3495 c2 -55 11 -100 28 -145 31 -80 35 -72 6 13 -12 34 -25 96
-30 137 l-8 75 4 -80z"/>
<path d="M5440 2920 c-13 -8 -12 -10 3 -10 9 0 17 5 17 10 0 12 -1 12 -20 0z"/>
<path d="M5428 2833 c7 -3 16 -2 19 1 4 3 -2 6 -13 5 -11 0 -14 -3 -6 -6z"/>
<path d="M5170 2657 c0 -6 78 -57 87 -57 4 0 3 4 -2 8 -16 14 -85 54 -85 49z"/>
<path d="M5125 2458 c-23 -80 -47 -206 -42 -220 3 -7 6 -3 6 8 1 12 14 75 31
140 30 120 34 169 5 72z"/>
<path d="M5625 2347 c-4 -53 -5 -101 -3 -109 3 -7 9 33 13 90 4 57 5 105 2
108 -3 3 -8 -37 -12 -89z"/>
<path d="M5701 2405 c-1 -11 4 -58 9 -105 6 -47 14 -159 19 -250 8 -164 8
-164 9 -50 2 120 -13 329 -28 390 -4 19 -8 26 -9 15z"/>
<path d="M6015 2380 c25 -99 43 -163 44 -150 1 20 -36 160 -44 168 -4 4 -4 -4
0 -18z"/>
<path d="M5072 2190 c0 -19 2 -27 5 -17 2 9 2 25 0 35 -3 9 -5 1 -5 -18z"/>
<path d="M5611 2194 c0 -11 3 -14 6 -6 3 7 2 16 -1 19 -3 4 -6 -2 -5 -13z"/>
<path d="M6061 2194 c0 -11 3 -14 6 -6 3 7 2 16 -1 19 -3 4 -6 -2 -5 -13z"/>
<path d="M6022 1860 c0 -14 2 -19 5 -12 2 6 2 18 0 25 -3 6 -5 1 -5 -13z"/>
</g>
</svg>
