<?xml version="1.0" standalone="no"?>
<!DOCTYPE svg PUBLIC "-//W3C//DTD SVG 20010904//EN"
 "http://www.w3.org/TR/2001/REC-SVG-20010904/DTD/svg10.dtd">
<svg version="1.0" xmlns="http://www.w3.org/2000/svg"
 width="1024.000000pt" height="559.000000pt" viewBox="0 0 1024.000000 559.000000"
 preserveAspectRatio="xMidYMid meet">
<metadata>
Created by potrace 1.16, written by Peter Selinger 2001-2019
</metadata>
<g transform="translate(0.000000,559.000000) scale(0.100000,-0.100000)"
fill="#000000" stroke="none">
<path d="M5339 5090 c-25 -5 -78 -22 -117 -39 -39 -17 -74 -31 -79 -31 -5 0
-32 -7 -61 -15 -96 -29 -159 -109 -149 -192 6 -57 28 -88 89 -126 l50 -31 -7
-95 c-3 -53 -13 -113 -22 -134 -16 -36 -15 -40 5 -81 12 -24 22 -51 22 -60 0
-9 6 -29 14 -44 8 -15 17 -54 21 -87 7 -67 105 -280 151 -330 14 -15 24 -28
22 -30 -2 -1 -41 -22 -88 -46 -47 -24 -105 -64 -130 -89 -49 -48 -105 -148
-146 -257 -14 -37 -48 -110 -75 -161 -27 -51 -49 -99 -49 -106 0 -8 -15 -18
-32 -21 -18 -4 -39 -12 -46 -18 -17 -14 -68 4 -145 50 -47 28 -63 45 -87 92
-15 32 -39 68 -52 80 -26 25 -89 51 -125 51 -18 0 -24 9 -33 43 -32 123 -74
256 -93 290 -48 85 -153 44 -132 -52 3 -17 31 -92 61 -167 30 -75 54 -137 52
-138 -46 -29 -56 -38 -60 -53 -3 -10 -1 -30 5 -43 5 -14 9 -40 8 -58 -2 -18 2
-38 7 -45 5 -7 12 -28 16 -48 4 -21 13 -42 21 -49 8 -7 15 -20 15 -30 0 -25
30 -48 79 -59 24 -5 47 -13 51 -18 9 -10 66 -183 75 -232 5 -25 -17 -190 -30
-218 0 -1 -57 -9 -125 -18 -198 -26 -292 -56 -312 -101 -7 -15 -23 -24 -47
-29 -49 -9 -77 -29 -85 -60 -9 -36 5 -57 73 -110 53 -40 61 -50 66 -89 5 -30
1 -62 -11 -103 -14 -43 -18 -91 -19 -188 0 -141 10 -183 66 -275 25 -39 26
-47 13 -61 -16 -17 -18 -57 -5 -78 6 -9 4 -32 -4 -60 -7 -25 -41 -162 -76
-303 -68 -282 -68 -288 -3 -288 18 0 39 6 46 13 7 7 44 138 82 289 69 276 69
276 93 267 72 -27 316 -69 405 -69 29 0 60 -5 68 -10 13 -8 16 -60 18 -347 2
-186 8 -346 13 -355 12 -23 55 -33 88 -22 l26 9 3 357 2 357 43 5 c23 3 85 10
137 16 111 14 220 36 272 55 20 8 39 11 41 7 3 -4 35 -128 72 -277 42 -172 73
-275 83 -282 21 -17 63 -16 87 1 17 12 15 25 -54 302 -74 297 -75 304 -65 365
4 25 1 39 -9 47 -13 11 -11 21 18 76 69 132 80 280 35 444 -11 39 -20 74 -20
77 0 3 17 2 39 -1 27 -4 51 0 83 14 46 20 76 56 128 150 27 48 23 46 234 93
76 17 145 33 152 36 10 4 14 -4 14 -31 0 -29 -5 -38 -23 -45 -34 -13 -216 -41
-273 -42 -40 -1 -44 -2 -23 -9 29 -8 168 2 240 19 26 6 83 22 129 36 45 15 84
24 87 21 33 -32 -221 -106 -462 -135 -77 -9 -76 -10 40 -6 69 3 156 13 205 24
46 11 85 19 86 18 4 -6 26 -334 34 -527 12 -287 29 -564 36 -613 3 -20 10 -37
16 -37 6 0 8 16 4 42 -3 24 -10 149 -16 278 -6 129 -18 361 -27 515 -9 154
-16 295 -17 313 -1 32 2 35 49 53 28 10 51 19 51 19 10 0 69 -216 98 -360 21
-106 96 -667 96 -721 0 -5 5 -9 10 -9 14 0 7 86 -31 392 -33 265 -65 440 -111
591 -40 133 -43 158 -27 212 13 44 14 45 57 45 24 0 52 5 63 11 37 20 128 115
132 139 3 14 13 59 22 101 16 73 16 84 -5 260 -25 218 -72 482 -101 570 -34
103 -74 173 -127 220 -44 39 -265 168 -296 173 -19 3 -86 44 -86 54 0 4 -13
15 -29 25 -21 12 -35 33 -46 68 -17 50 -17 51 9 109 35 78 49 157 37 210 -5
24 -7 91 -4 151 l6 108 47 6 c128 18 180 116 111 209 -17 22 -38 57 -47 76
-34 78 -100 119 -207 127 -52 4 -86 13 -122 33 -85 47 -171 64 -256 50z m201
-52 c30 -15 80 -41 110 -59 47 -28 52 -29 35 -10 l-20 23 30 -5 c17 -3 48 -9
70 -12 80 -13 131 -65 150 -154 5 -23 10 -29 15 -21 10 16 50 -44 50 -73 0
-54 -51 -97 -131 -111 -29 -5 -38 -3 -43 11 -15 38 -26 -13 -26 -119 0 -60 -2
-108 -4 -108 -2 0 -29 11 -59 25 -139 64 -387 99 -534 76 -39 -6 -79 -14 -89
-18 -15 -5 -16 -2 -11 24 3 17 9 73 12 125 6 85 5 91 -9 74 -14 -18 -18 -18
-42 -6 -14 8 -39 29 -55 47 -54 62 -32 163 45 208 43 25 126 48 96 26 -35 -25
6 -8 63 26 87 51 130 63 217 60 57 -2 88 -9 130 -29z m-202 -554 c22 -6 21 -8
-20 -35 -51 -34 -74 -38 -59 -10 15 28 2 33 -30 10 -15 -11 -45 -27 -66 -35
l-38 -16 19 21 c31 34 3 24 -42 -15 -41 -34 -42 -35 -42 -12 0 60 56 83 235
96 11 1 30 -1 43 -4z m111 -10 c18 -4 31 -13 31 -21 0 -27 41 -89 70 -106 19
-12 31 -30 39 -62 10 -39 15 -46 33 -43 14 2 25 14 32 35 16 47 39 67 69 59
45 -11 44 -88 -3 -163 -14 -24 -27 -33 -46 -33 -23 0 -25 -2 -14 -15 7 -9 21
-13 31 -10 14 5 20 -2 29 -37 17 -65 39 -130 54 -156 13 -25 6 -103 -14 -156
-11 -31 -114 -90 -193 -110 -31 -8 -61 -17 -66 -20 -4 -3 -23 -45 -42 -93
l-34 -88 -3 91 -3 92 -39 26 c-44 29 -52 64 -24 101 13 17 16 18 24 5 6 -8 13
-25 16 -37 3 -13 10 -23 15 -23 11 0 11 27 0 55 -7 16 0 23 41 42 90 42 208
175 208 236 0 31 -17 17 -29 -24 -15 -51 -120 -157 -185 -187 -26 -13 -66 -22
-92 -22 -40 0 -51 5 -78 33 -17 19 -55 83 -85 142 -41 83 -54 123 -59 169 l-5
61 22 -20 c22 -19 24 -19 36 -2 22 30 25 19 19 -67 -6 -79 -6 -84 15 -96 34
-17 121 14 121 43 0 17 -2 19 -9 8 -11 -16 -80 -40 -98 -34 -9 3 -10 31 -6
102 4 69 2 100 -6 105 -6 4 -11 1 -11 -7 0 -11 -14 -16 -46 -19 -37 -3 -48 0
-56 15 -14 26 -3 32 50 30 44 -1 46 -1 27 13 -13 10 -33 14 -58 11 l-38 -5 3
41 c3 39 5 42 38 48 19 3 45 11 57 17 17 9 22 9 27 -3 7 -20 85 7 139 50 46
37 50 38 96 29z m176 -41 c134 -43 153 -55 160 -108 4 -25 4 -62 1 -82 -9 -53
-38 -133 -48 -133 -15 0 -8 32 13 66 30 50 37 133 12 163 -37 46 -100 23 -125
-45 -13 -36 -28 -36 -28 -1 0 12 -10 42 -21 67 -17 36 -22 41 -28 27 -6 -18
-7 -18 -23 0 -18 21 -38 58 -38 71 0 12 21 8 125 -25z m209 -546 c17 -25 10
-86 -34 -327 -53 -290 -26 -579 75 -798 19 -41 34 -76 33 -77 -14 -12 -153
-92 -208 -120 -113 -57 -168 -73 -267 -78 -67 -3 -103 -10 -132 -25 -39 -21
-43 -21 -118 -6 -43 9 -88 18 -100 20 -32 6 -36 56 -24 324 15 325 58 554 142
765 45 112 105 225 119 225 15 0 12 -13 -19 -84 -36 -80 -88 -240 -97 -298 -4
-24 -11 -49 -16 -55 -25 -31 186 -68 333 -59 152 9 157 11 164 60 4 22 31 136
60 251 29 116 56 231 60 258 4 26 9 47 11 47 2 0 10 -10 18 -23z m56 -46 c0
-6 -4 -13 -10 -16 -5 -3 -10 1 -10 9 0 9 5 16 10 16 6 0 10 -4 10 -9z m158
-67 c149 -85 179 -109 221 -179 51 -85 79 -193 132 -505 32 -191 49 -440 30
-440 -5 0 -14 13 -21 30 -17 41 -111 127 -167 152 -50 23 -135 29 -187 15 -25
-7 -28 -6 -17 7 20 24 100 46 165 46 43 0 57 3 46 10 -28 18 -113 10 -175 -15
-33 -14 -61 -25 -62 -25 -12 0 -23 104 -23 225 0 83 -5 157 -10 165 -7 10 -10
-11 -10 -67 0 -46 -4 -83 -9 -83 -13 0 -41 128 -41 184 0 25 -4 48 -10 51 -13
8 -13 -10 1 -115 5 -47 18 -103 28 -126 10 -22 22 -76 26 -120 4 -43 13 -94
21 -113 18 -44 18 -44 -12 -81 -15 -17 -30 -45 -33 -62 -6 -30 -7 -30 -39 35
-85 176 -129 476 -98 672 47 298 57 338 89 373 17 17 32 32 34 32 2 0 56 -30
121 -66z m-822 -91 c-62 -124 -126 -331 -160 -518 l-15 -80 2 192 c1 105 0
190 -2 188 -14 -15 -20 -125 -19 -350 1 -143 2 -283 2 -311 0 -43 -6 -59 -33
-93 -31 -39 -91 -81 -91 -64 1 5 7 19 15 33 8 14 14 32 14 40 0 8 -9 -2 -19
-22 -37 -69 -87 -85 -149 -47 -42 25 -37 32 13 17 35 -11 39 -10 56 12 10 14
24 52 30 86 19 100 -12 213 -75 277 -15 15 -34 27 -41 27 -8 0 -14 5 -14 10 0
15 37 12 69 -4 49 -26 121 -156 121 -221 0 -13 5 -27 10 -30 18 -11 0 95 -26
154 -14 30 -43 72 -66 93 -23 21 -36 38 -30 38 23 0 68 -23 94 -47 29 -27 68
-117 68 -155 0 -12 3 -19 6 -15 4 3 1 37 -6 74 -11 60 -18 73 -57 111 -24 23
-57 45 -74 49 -16 3 -29 10 -29 16 0 6 18 43 40 83 22 39 53 106 70 148 81
204 136 280 247 339 37 20 71 37 76 37 4 0 -8 -30 -27 -67z m-1087 28 c24 -24
50 -94 92 -245 31 -116 32 -119 13 -133 -10 -7 -25 -12 -33 -11 -18 4 -141
311 -141 352 0 54 34 72 69 37z m1608 -8 c-9 -15 -66 -238 -77 -304 -12 -66
-12 -67 -48 -73 -107 -17 -373 1 -400 28 -13 14 79 327 97 326 3 -1 21 -13 39
-29 32 -27 32 -29 39 -140 9 -155 17 -156 73 -6 18 50 38 95 44 101 6 6 43 21
81 33 39 13 86 33 105 46 35 24 55 31 47 18z m-1348 -391 c14 -10 40 -47 58
-82 17 -34 44 -71 60 -82 51 -35 138 -76 196 -93 66 -19 100 -56 123 -131 25
-84 12 -218 -22 -231 -27 -10 -104 28 -177 87 -100 81 -202 186 -188 194 6 4
11 14 11 23 0 13 -5 12 -25 -7 -27 -25 -26 -26 -44 45 -15 55 -15 55 22 55
l32 1 -33 14 c-18 8 -35 22 -38 32 -3 10 -16 39 -29 66 l-24 47 22 0 c17 0 19
2 8 13 -7 7 -37 12 -68 12 -60 0 -84 19 -39 31 14 3 31 13 38 21 16 20 82 11
117 -15z m-199 -43 c0 -9 49 -27 80 -31 15 -2 26 -10 28 -22 4 -17 -1 -18 -53
-12 -110 13 -166 63 -113 101 21 14 24 14 40 -7 10 -13 18 -26 18 -29z m-27
-71 c12 -6 53 -14 92 -17 54 -5 70 -10 73 -23 2 -9 -5 -19 -17 -23 -34 -10
-120 -8 -151 5 -30 12 -47 41 -35 60 8 13 12 13 38 -2z m119 -91 c32 7 57 7
63 2 16 -16 -18 -39 -76 -51 -64 -13 -112 2 -117 38 -3 20 -1 21 37 11 29 -8
55 -8 93 0z m66 -69 c-12 -35 -120 -62 -146 -36 -21 21 -13 28 31 29 23 1 53
5 67 9 37 12 52 11 48 -2z m27 -71 c4 -17 23 -81 42 -142 35 -108 37 -111 114
-190 111 -114 155 -220 129 -314 l-11 -42 -100 2 c-97 1 -100 2 -125 31 -13
17 -32 47 -40 67 -19 42 -21 172 -5 214 21 54 13 130 -29 258 l-39 124 22 17
c27 20 34 16 42 -25z m170 -145 c50 -46 121 -113 158 -149 l68 -66 76 7 c80 6
126 27 153 68 14 21 15 15 20 -87 3 -60 5 -110 5 -111 0 0 -82 4 -182 10
l-182 9 -13 31 c-6 17 -48 66 -91 108 -73 72 -81 83 -106 160 -16 46 -31 96
-35 113 l-7 29 23 -19 c13 -11 64 -57 113 -103z m1693 -22 c69 -35 125 -92
154 -157 23 -53 19 -94 -15 -137 l-24 -29 -6 45 c-7 49 -35 118 -49 118 -5 0
-2 -13 7 -30 37 -72 26 -163 -24 -190 -24 -12 -81 -13 -81 -1 0 12 27 22 44
15 18 -7 28 33 19 78 -17 88 -103 193 -180 219 -19 6 -55 9 -79 6 -49 -5 -56
4 -22 27 33 23 132 20 187 -4 53 -25 64 -20 19 8 -45 27 -115 45 -152 38 l-31
-6 25 15 c14 8 52 14 86 15 48 0 73 -6 122 -30z m-153 -99 c76 -35 139 -116
152 -196 5 -31 3 -35 -35 -54 -23 -12 -65 -30 -94 -40 -50 -18 -94 -30 -375
-96 -65 -15 -117 -33 -125 -43 -8 -9 -31 -44 -51 -77 -42 -72 -70 -99 -117
-113 -28 -9 -31 -9 -17 1 43 28 52 36 47 41 -3 2 -23 -3 -45 -13 -51 -23 -95
-34 -95 -24 0 5 23 20 50 35 28 16 50 32 50 38 0 14 0 14 -61 -20 -30 -16 -67
-29 -84 -29 l-30 0 25 17 c44 30 105 90 98 97 -3 4 -32 -14 -63 -39 -60 -50
-101 -59 -130 -30 -13 14 -14 19 -3 25 7 5 20 9 29 9 34 0 119 122 119 170 0
16 -3 18 -17 10 -60 -33 -148 -51 -166 -34 -3 4 35 32 86 62 91 56 93 56 192
63 55 4 114 11 131 17 65 21 203 91 324 165 69 42 134 77 145 77 11 0 38 -9
60 -19z m-1110 -242 c99 -9 224 -27 234 -35 1 -1 0 -7 -3 -12 -3 -6 -30 -5
-68 3 -35 8 -101 16 -148 19 -94 6 -96 6 110 -28 73 -13 74 -13 47 -26 -22
-11 -28 -19 -24 -37 2 -13 3 -23 2 -23 -1 0 -20 7 -41 17 -22 9 -73 18 -114
20 -261 12 -280 14 -280 38 0 12 -3 37 -6 55 l-7 32 94 -7 c52 -3 144 -10 204
-16z m-632 -28 c3 -16 9 -41 13 -56 7 -27 6 -28 -28 -21 -20 3 -71 -1 -119
-11 -46 -9 -97 -16 -113 -15 -38 2 -96 21 -96 32 0 11 82 37 144 45 69 9 105
25 41 18 -206 -22 -277 -71 -156 -107 135 -40 266 -51 606 -50 337 0 477 11
608 49 37 11 47 11 47 1 0 -21 -23 -36 -56 -36 -18 0 -45 -5 -61 -11 -15 -6
-73 -19 -128 -30 -96 -18 -97 -18 -32 -14 61 4 83 -4 57 -20 -6 -4 -26 -38
-45 -75 -41 -81 -46 -137 -15 -165 42 -38 99 12 86 75 -5 27 24 102 44 115 6
4 17 0 23 -8 13 -17 106 -67 123 -67 23 0 43 -38 63 -117 28 -108 28 -238 1
-325 -27 -89 -89 -182 -137 -206 -218 -110 -821 -122 -1113 -21 -66 22 -118
75 -159 163 -68 144 -66 274 6 491 18 54 27 102 27 146 l0 67 40 -15 c97 -34
278 -55 521 -60 138 -3 255 -1 275 4 26 7 -38 11 -235 16 -264 5 -411 20 -530
51 -100 26 -144 65 -115 102 25 29 250 80 366 83 38 1 42 -1 47 -28z m1817
-42 c0 -25 -25 -52 -63 -70 -60 -27 -77 -25 -77 9 0 26 6 30 63 49 75 25 77
26 77 12z m-1115 -61 l40 -11 -30 -8 c-36 -10 -363 -34 -370 -27 -3 3 -2 20 1
38 l7 33 156 -7 c86 -4 174 -12 196 -18z m-656 -17 l15 -24 -74 7 c-117 11
-171 18 -166 23 9 9 103 21 155 20 45 -2 56 -6 70 -26z m-489 5 c0 -7 -14 -16
-30 -20 -37 -7 -51 -34 -25 -49 48 -26 95 -80 95 -108 0 -16 -4 -29 -10 -29
-5 0 -10 6 -10 14 0 12 -28 40 -104 104 -37 31 -31 62 14 84 42 21 70 23 70 4z
m44 -52 c3 -9 6 -27 6 -40 l0 -25 -44 33 c-24 18 -42 36 -39 41 8 14 71 7 77
-9z m1306 -13 c0 -13 -20 -26 -73 -45 -64 -24 -98 -74 -106 -159 -6 -58 -8
-62 -31 -62 -21 0 -26 5 -28 31 -4 42 61 168 102 198 41 31 136 57 136 37z
m50 -812 c41 -75 -185 -158 -507 -185 -55 -4 -87 -12 -95 -22 -10 -12 -13 -96
-12 -364 0 -327 -1 -348 -18 -354 -10 -3 -26 -3 -37 1 -17 5 -19 26 -25 348
-6 259 -11 347 -21 363 -12 18 -30 22 -142 33 -291 26 -504 104 -477 175 8 20
6 21 49 -8 43 -29 129 -58 245 -83 70 -14 134 -18 365 -18 246 0 293 3 390 22
134 26 214 55 245 88 28 30 27 30 40 4z m-1287 -109 c22 -10 27 -19 23 -34 -4
-12 -33 -129 -66 -261 -71 -283 -73 -287 -103 -283 -18 2 -22 9 -22 38 1 39
127 561 135 557 3 -1 18 -9 33 -17z m1353 -283 c36 -147 63 -274 60 -282 -7
-18 -40 -20 -53 -2 -8 9 -143 532 -143 552 0 2 12 11 28 19 24 13 28 13 34 -2
4 -9 37 -138 74 -285z"/>
<path d="M5215 4880 c3 -32 13 -66 25 -82 11 -15 20 -29 20 -31 0 -3 -19 -8
-42 -11 -24 -4 -56 -14 -73 -22 -26 -12 -27 -14 -5 -9 14 3 62 10 107 17 134
20 329 -12 470 -76 63 -29 83 -28 33 2 l-32 20 35 12 c40 13 87 46 87 61 0 6
-13 1 -29 -11 -17 -11 -47 -28 -68 -36 -35 -15 -42 -15 -113 7 -41 13 -77 24
-79 26 -6 5 41 53 63 65 17 9 18 7 13 -13 -6 -23 -5 -23 8 -5 8 10 12 23 9 27
-11 18 -36 8 -78 -31 l-44 -40 -68 10 c-38 5 -95 10 -126 10 -66 0 -69 4 -100
105 l-18 60 5 -55z"/>
<path d="M5020 4833 c0 -19 41 -72 60 -78 12 -4 22 -5 23 -3 1 1 -17 22 -40
46 -24 23 -43 39 -43 35z"/>
<path d="M5850 4676 c-25 -7 -40 -15 -34 -19 14 -8 84 11 84 23 0 6 -1 10 -2
9 -2 -1 -23 -6 -48 -13z"/>
<path d="M5355 4325 c-5 -2 -22 -6 -37 -9 -55 -12 -26 -21 67 -21 52 0 95 3
95 6 0 14 -100 33 -125 24z"/>
<path d="M5686 4298 c-19 -27 -21 -55 -3 -61 9 -3 9 -9 -1 -26 -13 -23 -3 -28
16 -9 15 15 16 45 1 50 -7 2 -9 13 -4 27 5 16 12 21 27 18 12 -4 18 -1 15 6
-7 21 -35 19 -51 -5z"/>
<path d="M5345 4246 c-17 -13 -17 -15 -4 -16 9 0 19 -7 23 -15 3 -8 12 -15 21
-15 9 0 18 7 21 15 4 8 18 15 33 15 20 1 22 3 11 9 -32 19 -85 22 -105 7z"/>
<path d="M5310 3976 c-66 -10 -71 -13 -43 -19 18 -3 56 -2 84 3 29 6 53 10 55
10 2 0 4 5 4 10 0 11 3 11 -100 -4z"/>
<path d="M5305 3920 c-16 -7 -13 -9 18 -9 20 -1 37 4 37 9 0 12 -27 12 -55 0z"/>
<path d="M5608 3828 c-9 -24 -23 -61 -32 -83 -14 -34 -14 -37 -1 -21 18 24 57
125 53 138 -2 5 -11 -10 -20 -34z"/>
<path d="M5286 3015 c63 -115 203 -282 265 -315 12 -7 -14 24 -58 69 -45 45
-110 122 -144 172 -85 120 -96 134 -63 74z"/>
<path d="M5360 2707 c0 -8 92 -67 104 -67 11 0 -6 12 -66 49 -21 12 -38 20
-38 18z"/>
<path d="M6074 3625 c-52 -53 -104 -155 -110 -218 l-4 -42 13 45 c24 80 71
163 120 212 26 26 43 48 37 48 -6 0 -31 -20 -56 -45z"/>
<path d="M4101 3640 c0 -8 4 -22 9 -30 12 -18 12 -2 0 25 -6 13 -9 15 -9 5z"/>
<path d="M4500 3041 c0 -12 39 -35 46 -28 3 2 -7 12 -21 21 -14 9 -25 12 -25
7z"/>
<path d="M4494 2601 c4 -6 12 -11 19 -11 6 0 29 -17 50 -37 22 -21 35 -29 29
-18 -6 11 -21 30 -34 41 -26 24 -75 43 -64 25z"/>
<path d="M4429 2584 c-7 -9 -15 -46 -17 -83 -3 -57 0 -73 25 -120 15 -30 39
-62 53 -70 l25 -16 -27 36 c-15 19 -34 52 -43 72 -19 46 -19 133 -1 170 16 30
6 37 -15 11z"/>
<path d="M3971 1765 c-2 -96 32 -191 89 -255 19 -21 26 -25 16 -10 -58 91 -84
161 -96 258 l-7 67 -2 -60z"/>
<path d="M5277 1608 c-10 -25 -34 -64 -53 -87 -20 -23 -34 -44 -32 -47 17 -16
115 140 106 168 -2 6 -12 -9 -21 -34z"/>
<path d="M4107 1538 c16 -28 45 -63 64 -77 l34 -26 -35 40 c-20 22 -46 57 -58
78 -35 56 -38 45 -5 -15z"/>
<path d="M4808 2313 c12 -2 30 -2 40 0 9 3 -1 5 -23 4 -22 0 -30 -2 -17 -4z"/>
<path d="M6085 2191 c8 -13 61 -289 75 -394 7 -48 14 -86 16 -84 7 7 -16 198
-36 298 -28 141 -41 189 -52 189 -5 0 -7 -4 -3 -9z"/>
<path d="M5821 2077 c-42 -55 -135 -148 -206 -205 -22 -18 -36 -32 -31 -32 32
0 231 191 269 258 27 47 15 39 -32 -21z"/>
<path d="M5911 1993 c-42 -183 -118 -413 -193 -583 -15 -36 -22 -57 -14 -46
22 28 99 209 135 314 47 140 112 412 99 412 -2 0 -14 -44 -27 -97z"/>
<path d="M4845 1174 c-48 -44 -85 -93 -85 -113 0 -10 6 -7 17 9 9 14 30 40 47
58 l31 33 6 -53 c3 -29 2 -64 -3 -77 -11 -31 -4 -37 28 -23 15 7 33 30 44 56
34 75 45 74 48 -9 3 -70 2 -73 -28 -99 -47 -39 -72 -42 -117 -12 -38 26 -70
35 -58 16 4 -6 55 -43 113 -82 59 -39 111 -74 115 -78 5 -4 -6 -22 -24 -39
-17 -18 -29 -35 -25 -38 3 -3 15 6 27 20 23 30 60 35 79 12 7 -9 11 -17 9 -19
-10 -10 -84 -36 -100 -36 -11 0 -62 32 -115 71 -100 74 -124 87 -124 71 0 -8
131 -110 202 -156 26 -17 30 -17 76 -2 27 9 57 23 67 30 27 19 12 60 -31 86
-19 12 -33 24 -31 26 2 3 33 -2 67 -10 35 -8 67 -13 72 -10 4 3 8 23 8 44 0
43 4 41 -147 80 -41 10 -42 11 -27 38 10 19 12 44 8 89 -5 49 -3 68 10 88 10
15 12 25 5 25 -25 0 -66 -41 -89 -89 -13 -28 -27 -51 -31 -51 -13 0 -14 103
-2 139 15 43 15 41 6 41 -5 0 -26 -16 -48 -36z m210 -278 c66 -18 81 -26 83
-44 4 -26 2 -26 -100 -8 -46 8 -89 23 -108 36 l-32 23 23 13 c13 7 31 11 39 8
8 -4 51 -16 95 -28z"/>
<path d="M4280 1181 c0 -5 5 -22 10 -37 8 -20 7 -41 -5 -82 -18 -59 -14 -91
11 -116 26 -26 39 -18 14 9 -23 24 -23 27 -11 97 7 40 14 80 15 88 3 19 22
-20 36 -77 12 -46 43 -83 71 -83 15 0 17 4 8 29 -8 22 -6 38 5 66 19 44 21
101 5 111 -8 5 -10 -1 -6 -18 4 -15 -2 -48 -13 -81 -11 -31 -17 -64 -14 -74 4
-14 1 -12 -15 6 -12 13 -24 41 -28 64 -8 51 -83 140 -83 98z"/>
<path d="M4501 1088 c-1 -29 6 -45 30 -70 l31 -33 -23 39 c-12 21 -25 52 -29
70 l-8 31 -1 -37z"/>
<path d="M4315 905 c-93 -35 -176 -68 -182 -74 -24 -21 -16 -77 14 -100 48
-39 64 -36 190 25 150 74 147 73 91 24 -52 -46 -68 -84 -23 -54 27 17 24 18
91 -31 10 -7 22 0 43 25 42 49 39 72 -3 31 -34 -33 -34 -33 -60 -15 -14 11
-26 21 -26 24 0 3 25 30 55 60 30 30 55 57 55 61 0 4 -17 -1 -37 -12 -50 -26
-293 -139 -299 -139 -2 0 -4 8 -4 18 0 9 -9 32 -20 50 -15 24 -17 34 -8 37 82
28 277 99 291 106 17 10 24 30 10 28 -5 0 -84 -29 -178 -64z m-115 -156 c0
-23 -4 -24 -35 -3 -24 16 -33 52 -18 68 11 11 53 -41 53 -65z"/>
<path d="M4435 893 c-29 -7 -156 -65 -151 -70 2 -2 43 13 92 33 107 43 118 51
59 37z"/>
<path d="M4829 872 c44 -31 101 -63 101 -57 0 7 -107 75 -117 74 -4 0 3 -8 16
-17z"/>
<path d="M4836 827 c3 -8 19 -24 37 -37 l32 -23 -34 37 c-38 40 -43 43 -35 23z"/>
</g>
</svg>
