<?xml version="1.0" standalone="no"?>
<!DOCTYPE svg PUBLIC "-//W3C//DTD SVG 20010904//EN"
 "http://www.w3.org/TR/2001/REC-SVG-20010904/DTD/svg10.dtd">
<svg version="1.0" xmlns="http://www.w3.org/2000/svg"
 width="1024.000000pt" height="559.000000pt" viewBox="0 0 1024.000000 559.000000"
 preserveAspectRatio="xMidYMid meet">
<metadata>
Created by potrace 1.16, written by Peter Selinger 2001-2019
</metadata>
<g transform="translate(0.000000,559.000000) scale(0.100000,-0.100000)"
fill="#000000" stroke="none">
<path d="M6502 5193 c-14 -27 -118 -359 -138 -439 -17 -69 -17 -74 1 -134 18
-59 18 -64 1 -153 -10 -51 -24 -126 -32 -167 -7 -41 -32 -174 -54 -295 -74
-397 -73 -386 -60 -426 9 -27 9 -57 1 -125 -7 -49 -14 -110 -18 -136 -5 -42
-9 -48 -30 -48 -13 0 -36 -12 -50 -26 l-26 -26 -61 28 c-33 15 -67 33 -74 41
-7 7 -18 13 -24 13 -20 0 -140 64 -145 77 -3 8 3 23 13 34 17 19 17 21 -4 65
-22 45 -22 46 -4 71 18 25 18 27 -15 117 -19 50 -38 107 -42 127 -4 20 -15 47
-24 60 -10 13 -17 31 -17 40 0 22 -97 137 -121 144 -11 4 -32 17 -48 31 -33
28 -140 64 -190 64 l-34 0 21 23 c51 54 77 193 69 366 -5 88 -3 112 9 122 21
17 17 35 -12 58 -14 11 -37 38 -52 60 -35 52 -81 85 -140 101 -60 17 -69 24
-74 61 -4 27 -2 30 16 25 85 -20 95 -19 102 8 3 14 3 38 0 52 -7 25 -8 26 -67
19 l-61 -7 4 53 3 54 -43 3 c-57 4 -73 -9 -61 -51 16 -56 15 -57 -51 -50 l-60
6 0 -53 0 -52 48 6 c26 4 54 9 63 12 12 3 18 -3 21 -24 6 -42 0 -52 -46 -71
-127 -55 -190 -185 -190 -391 l1 -95 -38 -18 c-85 -41 -112 -84 -67 -108 12
-7 64 -14 115 -17 51 -3 93 -9 93 -13 0 -5 -6 -9 -12 -9 -7 0 -21 -14 -30 -30
-14 -24 -24 -30 -50 -30 -60 0 -238 -54 -238 -72 0 -5 -17 -16 -37 -25 -49
-19 -73 -41 -73 -65 0 -10 -4 -18 -9 -18 -19 0 -61 -51 -61 -73 0 -14 -7 -30
-15 -37 -8 -7 -15 -25 -15 -41 0 -16 -18 -66 -40 -110 -45 -91 -48 -106 -23
-124 16 -12 16 -16 -7 -65 l-24 -52 22 -18 23 -19 -25 -78 c-14 -43 -30 -109
-36 -148 -13 -78 -8 -278 9 -370 6 -33 12 -87 14 -120 4 -59 3 -63 -50 -163
-1 -2 -19 -1 -40 3 -26 4 -42 13 -48 28 -11 25 -62 35 -93 18 -22 -12 -16 22
-97 -556 -30 -214 -61 -437 -69 -495 -8 -58 -26 -188 -40 -290 -14 -102 -40
-282 -57 -400 -37 -250 -38 -273 -15 -299 48 -53 208 -112 366 -136 192 -30
299 -15 327 45 6 14 28 142 48 285 19 143 42 301 50 350 7 50 17 118 20 153 4
34 10 62 14 62 4 0 15 -69 23 -153 14 -136 14 -154 1 -169 -11 -12 -13 -26 -9
-45 4 -15 8 -71 9 -123 2 -92 1 -98 -40 -190 -69 -156 -69 -206 0 -242 61 -31
212 -33 254 -2 43 32 49 61 33 166 -16 113 -20 247 -8 271 6 11 6 29 1 45 -7
19 -5 35 4 52 13 25 8 60 -10 71 -9 6 10 87 68 299 8 30 15 94 15 142 0 76 6
105 44 225 25 76 48 155 52 176 l7 39 46 -7 c25 -4 71 -10 101 -14 l55 -6 17
-65 c20 -82 21 -168 3 -245 -23 -96 -19 -182 14 -287 44 -138 55 -202 40 -226
-10 -16 -10 -28 0 -60 8 -22 11 -44 8 -49 -4 -6 -2 -26 4 -46 8 -28 6 -48 -6
-84 -9 -27 -17 -86 -18 -133 -2 -82 -1 -85 24 -97 14 -7 55 -17 90 -22 35 -5
106 -24 158 -41 122 -40 230 -49 285 -23 37 18 40 22 82 148 24 74 43 149 43
175 1 38 35 324 107 895 8 66 37 298 64 515 105 844 90 750 122 766 15 8 28
20 28 27 0 7 5 18 12 25 19 19 38 84 38 134 0 40 -4 50 -29 70 l-30 23 19 142
c14 104 24 150 39 170 21 29 21 29 66 573 36 434 35 424 79 483 19 26 25 49
31 125 8 111 -4 472 -16 472 -5 0 -12 -8 -17 -17z m16 -348 l-3 -180 -33 -48
c-36 -51 -46 -95 -57 -254 l-7 -93 -28 0 c-16 0 -31 3 -33 8 -3 4 6 61 19 127
28 144 29 163 7 231 -19 61 -18 62 70 344 l52 165 8 -60 c4 -33 7 -141 5 -240z
m-1469 227 c0 -24 -1 -25 -9 -7 -12 28 -12 47 0 40 6 -3 10 -18 9 -33z m59
-14 c-3 -53 -3 -53 27 -52 17 0 44 2 60 5 28 4 30 2 33 -30 3 -26 0 -32 -11
-28 -8 3 -35 9 -61 12 l-46 7 0 -41 c0 -30 -4 -41 -15 -41 -10 0 -15 10 -15
28 0 49 -12 56 -72 44 -29 -5 -53 -9 -54 -9 -1 1 -4 17 -7 35 -6 28 -4 33 11
28 9 -3 38 -8 65 -12 53 -7 55 -4 38 69 -9 36 -8 37 20 37 29 0 30 0 27 -52z
m-168 -84 c0 -13 -4 -24 -10 -24 -5 0 -10 14 -10 31 0 17 4 28 10 24 6 -3 10
-17 10 -31z m127 -71 c-3 -10 -5 -2 -5 17 0 19 2 27 5 18 2 -10 2 -26 0 -35z
m62 -27 c-2 -2 -20 -6 -39 -10 -25 -4 -31 -3 -20 4 14 9 69 15 59 6z m18 -58
c17 -18 34 -43 38 -56 4 -13 9 -22 11 -19 8 8 -14 52 -39 80 -22 23 -23 27 -8
27 32 0 81 -70 81 -115 0 -18 -57 -10 -81 11 -31 27 -73 27 -127 0 -58 -30
-84 -32 -102 -11 -15 18 -4 37 18 31 10 -3 39 1 66 9 73 22 110 19 147 -12 29
-24 31 -25 20 -5 -24 45 -90 55 -175 26 -31 -11 -51 -13 -57 -7 -19 19 89 71
152 72 16 1 36 -11 56 -31z m117 -21 c-1 -9 4 -13 12 -10 10 4 11 -1 1 -27
-11 -30 -12 -31 -18 -8 -6 21 -7 20 -9 -7 -1 -27 -3 -25 -16 17 -8 26 -19 50
-24 53 -24 15 -7 24 23 12 18 -8 31 -21 31 -30z m41 -37 c-3 -5 1 -10 9 -10 9
0 16 -2 16 -4 0 -2 2 -11 5 -19 5 -10 -1 -13 -24 -9 -29 4 -33 13 -22 50 1 1
6 2 12 2 5 0 7 -4 4 -10z m-180 -12 c39 -17 30 -25 -37 -32 -61 -6 -134 -24
-190 -47 -18 -7 -28 -19 -28 -31 0 -23 8 -23 135 11 59 15 110 21 197 21 146
0 166 -7 165 -54 -1 -20 -3 -36 -5 -36 -2 0 -35 5 -74 11 -77 12 -232 -1 -318
-27 -44 -13 -45 -13 -66 13 -14 17 -26 24 -37 20 -24 -9 -22 45 3 101 20 45
30 51 50 27 17 -21 40 -19 102 10 61 28 68 29 103 13z m243 -61 c14 -6 28 -19
30 -27 4 -11 -1 -10 -17 4 -47 43 -340 30 -458 -19 -18 -8 -33 -10 -33 -5 0
12 127 51 199 61 74 10 247 2 279 -14z m-476 -114 c10 -9 18 -22 18 -29 0 -9
15 -7 59 6 127 40 370 45 406 9 7 -7 -4 -7 -35 -2 -104 18 -276 5 -424 -33
-20 -5 -27 -3 -22 4 3 6 -5 19 -19 30 -13 11 -21 22 -18 26 9 9 15 8 35 -11z
m-14 -38 c3 -16 1 -18 -9 -7 -7 6 -19 12 -27 12 -12 0 -14 -14 -9 -77 3 -43 7
-84 9 -92 2 -8 -19 -27 -49 -45 -29 -17 -58 -37 -65 -45 -7 -8 4 -4 24 8 20
12 50 29 67 37 31 16 45 39 35 57 -5 8 -4 9 4 2 5 -5 12 -32 14 -60 3 -27 8
-58 12 -67 7 -16 2 -18 -35 -18 -24 0 -62 5 -84 11 -22 6 -46 11 -52 11 -29 3
-7 23 88 81 26 16 27 17 22 101 -4 62 -2 90 7 101 17 21 44 15 48 -10z m407 8
l48 -6 -34 -11 c-23 -8 -37 -8 -42 -1 -5 5 -5 -17 -1 -50 13 -110 13 -110 -26
-110 -21 0 -38 6 -42 15 -6 11 -7 10 -5 -5 1 -12 10 -21 22 -21 11 -1 25 -3
30 -5 6 -2 20 0 33 5 22 7 23 14 6 78 -4 12 0 15 18 12 l23 -5 -22 10 c-13 6
-23 15 -23 21 0 6 5 8 10 5 6 -4 17 -2 24 4 18 15 46 3 46 -18 0 -9 -7 -27
-16 -40 -9 -13 -20 -51 -25 -85 -4 -33 -16 -84 -25 -113 -14 -42 -23 -53 -45
-58 -43 -10 -74 3 -75 30 -1 14 -16 41 -33 60 -29 33 -31 40 -26 88 6 56 3 64
-36 89 -18 11 -29 30 -34 54 -7 41 3 54 44 54 24 0 24 0 5 -16 -19 -15 -19
-15 2 -11 12 3 28 1 35 -4 10 -6 8 -9 -8 -9 -12 0 -25 -4 -28 -10 -4 -6 1 -7
10 -3 10 3 21 0 25 -7 7 -11 15 -10 44 4 42 20 39 33 -9 42 -19 3 -32 10 -29
15 6 11 91 12 159 2z m-267 -48 c8 -53 15 -66 43 -81 30 -15 31 -16 24 -73 -6
-55 -5 -59 29 -100 42 -49 41 -49 19 -73 -27 -30 -100 -24 -156 13 -64 42 -92
102 -82 172 4 29 7 73 6 99 -2 45 0 48 31 57 50 15 82 9 86 -14z m330 7 c2 -7
-2 -10 -12 -6 -9 3 -16 11 -16 16 0 13 23 5 28 -10z m17 -95 c-8 -12 -15 -28
-14 -37 0 -8 5 -4 10 9 15 37 17 22 8 -52 -9 -72 -41 -157 -59 -157 -6 0 1 22
15 50 14 27 25 60 24 72 -1 19 -2 17 -8 -7 -8 -32 -38 -95 -46 -95 -3 0 4 23
15 50 11 28 20 69 20 91 0 22 7 54 17 72 9 18 16 52 16 77 l-1 45 9 -48 c8
-38 6 -52 -6 -70z m-512 78 c-7 -21 -13 -19 -13 6 0 11 4 18 10 14 5 -3 7 -12
3 -20z m27 -19 c0 -7 3 -28 6 -45 4 -17 3 -31 -2 -31 -14 0 -35 55 -28 74 7
20 24 21 24 2z m1526 -295 c-6 -76 -29 -343 -42 -500 l-7 -83 -55 5 c-30 3
-59 10 -64 15 -7 7 16 149 87 527 25 131 21 122 56 117 l32 -5 -7 -76z m-1486
1 c0 -32 32 -63 131 -127 54 -35 103 -73 109 -84 6 -12 8 -21 4 -21 -20 0
-122 35 -153 53 -45 26 -152 128 -145 139 3 5 14 -2 24 -14 l19 -23 -11 31
c-12 32 -6 64 12 64 5 0 10 -8 10 -18z m55 -16 c11 -8 38 -19 61 -26 33 -10
46 -9 76 3 22 9 52 13 80 10 l44 -5 -2 -46 c-2 -35 -10 -52 -32 -74 l-29 -30
-79 50 c-86 55 -154 109 -154 123 0 13 13 11 35 -5z m315 -63 c0 -28 -14 -58
-44 -93 l-21 -25 28 25 c16 14 35 39 42 55 9 20 14 24 14 12 2 -31 -28 -75
-66 -102 -76 -51 -86 -20 -17 50 43 43 46 49 41 86 -4 34 -3 38 9 28 8 -6 14
-22 14 -36z m-412 -17 c41 -39 45 -46 28 -52 -13 -5 -24 -1 -36 16 -14 18 -22
21 -49 15 -35 -8 -50 -30 -32 -48 16 -16 14 -24 -10 -30 -15 -4 -31 4 -58 32
-20 20 -47 44 -61 52 l-25 16 55 16 c56 16 91 23 123 26 10 0 39 -19 65 -43z
m379 2 c-3 -7 -5 -2 -5 12 0 14 2 19 5 13 2 -7 2 -19 0 -25z m173 12 c74 -22
85 -31 96 -74 6 -24 4 -27 -12 -24 -11 2 -20 13 -22 25 -4 27 -18 39 -61 48
-32 7 -34 6 -29 -19 4 -21 1 -26 -14 -26 -10 0 -21 8 -24 18 -3 9 -11 29 -19
45 -18 34 -9 35 85 7z m38 -61 c3 -11 2 -12 -6 -1 -7 11 -10 11 -15 -2 -4 -10
1 -16 16 -19 19 -4 18 -4 -5 -6 -15 0 -30 4 -33 9 -3 6 -1 10 4 10 6 0 11 5
11 11 0 5 -4 7 -10 4 -5 -3 -10 1 -10 9 0 19 42 6 48 -15z m-765 -32 c54 -56
109 -146 157 -259 l29 -68 -29 -15 c-16 -8 -31 -15 -35 -15 -3 0 -25 40 -49
89 -77 157 -130 222 -222 277 -16 10 -13 13 26 27 25 8 51 16 58 16 8 1 37
-23 65 -52z m154 36 c4 -12 -43 -27 -57 -18 -20 12 -9 27 15 23 14 -3 22 -1
18 5 -3 5 0 8 7 5 8 -2 15 -9 17 -15z m502 -160 c2 -148 -126 -461 -322 -788
-96 -159 -218 -345 -228 -345 -17 0 -9 39 15 67 13 15 27 39 31 53 4 14 13 32
20 40 58 68 277 478 351 655 66 161 111 332 115 439 2 60 18 -43 18 -121z
m232 128 c31 -25 36 -107 15 -231 -17 -95 -31 -125 -53 -112 -8 5 -9 34 0 118
7 76 8 132 1 178 -11 73 -5 81 37 47z m-726 -1 c-11 -5 -27 -9 -35 -9 -13 -1
-13 0 0 9 8 5 24 9 35 9 l20 0 -20 -9z m114 -67 c50 -102 117 -292 105 -302
-12 -10 -135 -43 -141 -38 -2 3 -24 53 -49 113 -24 60 -63 140 -85 178 -30 53
-36 71 -27 78 22 13 34 9 46 -17 13 -28 17 -29 61 -14 35 12 35 13 21 40 -6
11 -8 24 -5 29 15 25 38 4 74 -67z m301 15 c-23 -21 -51 -38 -61 -38 -28 0
-24 5 26 34 24 15 50 37 56 49 9 16 14 18 17 7 3 -8 -13 -30 -38 -52z m114 56
c9 -3 16 -17 16 -30 0 -26 26 -44 64 -44 21 0 26 5 26 25 0 14 4 25 10 25 31
0 38 -86 20 -245 -15 -131 -13 -127 -68 -119 -94 14 -87 -3 -87 208 0 102 1
186 2 186 1 0 8 -3 17 -6z m-879 -14 c-3 -5 -11 -10 -16 -10 -6 0 -7 5 -4 10
3 6 11 10 16 10 6 0 7 -4 4 -10z m385 -19 c8 -16 5 -21 -20 -30 -25 -8 -31 -7
-40 9 -13 25 -13 28 8 33 33 9 41 7 52 -12z m225 -41 c30 -6 55 -16 55 -21 0
-19 -130 15 -177 47 -41 26 -24 32 22 8 26 -12 71 -28 100 -34z m350 51 c3 -5
0 -13 -7 -17 -6 -4 -14 -2 -16 4 -2 7 -8 12 -14 12 -6 0 -7 -7 -4 -16 3 -8 2
-12 -4 -9 -6 3 -10 13 -10 21 0 16 45 20 55 5z m-872 -32 c46 -38 101 -118
156 -226 39 -79 40 -83 22 -93 -11 -5 -22 -10 -24 -10 -3 0 -24 30 -48 68 -61
94 -155 190 -212 217 l-49 23 44 26 c55 33 65 33 111 -5z m711 -36 c-9 -56
-15 -63 -60 -66 -36 -2 -39 0 -42 26 -2 18 1 27 11 27 8 0 32 13 53 29 21 15
40 27 42 26 1 -1 0 -20 -4 -42z m176 37 c0 -5 -5 -10 -11 -10 -5 0 -7 5 -4 10
3 6 8 10 11 10 2 0 4 -4 4 -10z m-457 -22 c12 -7 51 -19 87 -28 54 -14 66 -20
68 -39 3 -19 -1 -22 -25 -21 -40 3 -93 -10 -93 -24 0 -6 3 -20 6 -32 5 -18 10
-20 47 -13 23 4 52 10 63 14 23 7 22 9 39 -101 6 -37 4 -42 -17 -48 -13 -3
-39 -6 -59 -6 -36 0 -37 1 -54 61 -9 34 -26 82 -37 108 -38 88 -58 141 -52
141 3 0 15 -5 27 -12z m647 -64 c0 -39 -46 -190 -61 -200 -17 -10 -18 -1 -4
60 8 32 17 95 21 139 7 80 7 81 25 58 11 -13 19 -38 19 -57z m-1240 36 c0 -5
-5 -10 -11 -10 -5 0 -7 5 -4 10 3 6 8 10 11 10 2 0 4 -4 4 -10z m99 -44 c40
-30 130 -136 131 -153 0 -7 -8 -16 -17 -22 -13 -7 -31 3 -82 50 -36 32 -85 69
-110 81 -26 13 -48 24 -51 26 -3 2 10 17 28 33 36 32 39 32 101 -15z m761 -20
c0 -2 -3 -11 -6 -20 -9 -23 -24 -20 -24 4 0 11 7 20 15 20 8 0 15 -2 15 -4z
m-42 -18 c-3 -8 -26 -14 -56 -16 -42 -2 -52 0 -52 12 0 13 12 16 56 16 40 0
55 -4 52 -12z m459 -32 c-8 -49 -47 -130 -57 -120 -8 8 -2 31 36 152 8 26 26
-1 21 -32z m-577 14 c0 -14 -7 -20 -24 -20 -23 0 -41 22 -29 34 4 3 17 6 30 6
16 0 23 -6 23 -20z m-707 4 c3 -3 -5 -26 -18 -50 -13 -24 -25 -49 -28 -56 -3
-10 -8 -10 -17 -2 -9 9 -6 23 14 63 25 49 35 58 49 45z m66 -102 c-11 -25 -22
-48 -23 -50 -7 -7 -56 22 -56 33 0 7 9 33 21 59 l20 47 29 -21 29 -21 -20 -47z
m776 78 c8 -13 -16 -110 -27 -110 -4 0 -8 13 -8 29 0 16 -3 43 -6 60 -6 27 -4
31 14 31 12 0 24 -5 27 -10z m479 -100 l7 -25 -15 25 c-9 14 -15 32 -15 40 0
13 1 13 8 0 5 -8 12 -26 15 -40z m-1170 11 c27 -28 27 -29 12 -65 -14 -34 -16
-35 -44 -23 -16 6 -30 17 -31 22 -3 15 21 95 28 95 4 0 20 -13 35 -29z m1156
-41 c0 -3 -10 -11 -21 -19 -31 -18 -42 4 -22 43 l15 30 14 -25 c7 -13 13 -26
14 -29z m-1371 25 c3 -12 -13 -9 -17 4 -2 7 0 11 6 7 5 -3 10 -8 11 -11z m977
-32 c-10 -26 -18 -8 -9 23 5 21 8 24 11 11 2 -10 1 -25 -2 -34z m-640 12 c11
-18 14 -35 9 -65 -7 -43 -10 -45 -51 -30 -24 10 -26 14 -21 51 5 39 21 69 38
69 5 0 16 -11 25 -25z m-353 -1 c12 -4 13 -11 4 -35 -6 -16 -15 -29 -20 -29
-5 0 -6 7 -3 15 15 38 16 47 1 22 -20 -35 -29 -30 -12 6 6 15 13 27 14 27 1 0
8 -3 16 -6z m103 -8 c29 -21 10 -30 -25 -11 -17 8 -31 18 -31 20 0 11 37 4 56
-9z m157 -89 c-8 -47 -13 -93 -10 -101 3 -8 22 -18 41 -22 20 -3 36 -7 36 -8
0 -1 -7 -26 -15 -54 -14 -46 -19 -52 -43 -52 -46 0 -145 38 -214 83 -36 23
-74 47 -84 53 -18 11 -18 13 -1 48 9 20 17 43 17 51 0 20 7 19 31 -4 31 -29
67 -32 84 -7 8 11 15 30 16 41 0 11 3 15 5 8 3 -6 1 -28 -5 -47 -9 -33 -7 -37
19 -56 31 -22 79 -27 84 -7 20 71 50 166 52 164 2 -2 -4 -42 -13 -90z m290 73
c5 -20 -13 -26 -65 -22 -10 1 -18 -2 -18 -7 0 -10 87 -21 157 -21 l41 1 4 -50
3 -50 -70 -5 c-38 -3 -107 -7 -152 -8 -78 -3 -83 -2 -83 18 0 12 11 26 26 34
27 15 54 57 54 85 0 9 3 14 8 12 4 -3 23 3 42 14 44 23 47 23 53 -1z m755 -9
c10 -27 8 -30 -19 -40 -27 -9 -31 -8 -39 15 -14 35 -12 47 5 41 8 -4 17 -2 20
3 11 18 23 11 33 -19z m-1238 2 c0 -9 -31 -63 -36 -63 -4 0 -4 6 -1 13 2 6 8
23 12 37 7 24 7 25 -10 5 -16 -20 -16 -20 -5 2 6 14 16 20 25 17 8 -4 15 -8
15 -11z m1354 1 c3 -8 2 -12 -4 -9 -6 3 -10 10 -10 16 0 14 7 11 14 -7z m-185
-69 c15 -92 28 -107 76 -92 22 6 35 17 35 28 0 13 8 17 34 17 30 0 35 -4 47
-40 13 -40 13 -40 -22 -69 -51 -42 -120 -77 -167 -85 l-42 -7 0 64 c0 98 12
259 20 259 3 0 12 -34 19 -75z m141 55 c-24 -15 -37 -11 -16 5 11 8 22 12 25
9 3 -3 -1 -9 -9 -14z m-1305 -29 c-19 -38 -28 -41 -14 -5 13 35 20 46 26 41 2
-3 -3 -19 -12 -36z m791 2 c-11 -31 -17 -37 -36 -35 -12 2 -33 1 -46 -2 -19
-5 -24 -13 -24 -38 0 -53 -18 -19 -24 44 l-4 57 31 4 c18 2 51 5 74 5 l42 2
-13 -37z m161 -33 c1 -41 -1 -54 -5 -35 -6 25 -13 31 -40 33 -35 4 -38 9 -20
47 9 20 18 25 37 23 25 -3 26 -6 28 -68z m158 1 l-7 -61 -44 0 -44 0 0 53 0
52 45 -3 c38 -3 45 -1 45 14 0 9 3 15 6 11 3 -3 3 -33 -1 -66z m-1086 21 c-6
-18 -15 -32 -20 -32 -12 0 -11 6 7 41 19 39 28 33 13 -9z m127 7 c3 -5 1 -9
-5 -9 -17 0 -61 23 -61 31 0 10 58 -10 66 -22z m190 -14 c-21 -32 -36 -32 -36
0 0 17 7 28 23 34 28 11 33 -3 13 -34z m664 29 c0 -2 -9 -4 -20 -4 -11 0 -20
4 -20 9 0 5 9 7 20 4 11 -3 20 -7 20 -9z m-360 -4 c0 -5 -10 -10 -22 -10 -19
0 -20 2 -8 10 19 13 30 13 30 0z m687 -20 c6 -17 7 -30 2 -30 -8 0 -29 41 -29
56 0 16 18 -1 27 -26z m23 -5 c0 -5 -5 -3 -10 5 -5 8 -10 20 -10 25 0 6 5 3
10 -5 5 -8 10 -19 10 -25z m-41 -30 c0 -5 -6 -1 -14 9 -8 11 -15 27 -15 35 1
17 29 -26 29 -44z m-69 37 c0 -14 -48 -33 -55 -22 -4 6 4 14 17 19 30 12 38
13 38 3z m645 -2 c18 -7 18 -9 3 -15 -23 -9 -61 -2 -66 13 -4 14 31 15 63 2z
m-1803 -25 c-2 -14 -8 -28 -13 -31 -10 -6 -11 2 -3 34 9 30 22 28 16 -3z m18
-30 c-16 -42 -24 -22 -9 22 7 21 14 31 16 22 2 -8 -1 -28 -7 -44z m1180 15 c0
-13 -1 -13 -10 0 -5 8 -10 22 -10 30 0 13 1 13 10 0 5 -8 10 -22 10 -30z
m-1041 19 c43 -15 40 -30 -4 -16 -19 6 -35 14 -35 19 0 10 1 10 39 -3z m751 1
c0 -5 -4 -10 -10 -10 -5 0 -10 -8 -10 -17 0 -15 2 -16 10 -3 8 13 10 12 10 -2
0 -10 -7 -18 -15 -18 -10 0 -15 10 -15 30 0 20 5 30 15 30 8 0 15 -4 15 -10z
m-848 -25 c-2 -14 -8 -28 -13 -31 -10 -6 -11 2 -3 34 9 30 22 28 16 -3z m498
16 c0 -11 -26 -22 -34 -14 -12 12 -5 23 14 23 11 0 20 -4 20 -9z m610 -5 c0
-8 3 -21 6 -30 3 -9 1 -16 -5 -16 -6 0 -12 12 -12 28 l-2 27 -4 -27 c-2 -16
-9 -28 -14 -28 -14 0 -11 48 4 53 21 9 27 7 27 -7z m-325 -16 c0 -18 -43 -25
-65 -10 -13 9 -13 11 0 20 22 15 65 8 65 -10z m955 -6 c0 -17 -5 -17 -31 -4
-27 15 -24 28 6 22 14 -2 25 -11 25 -18z m-1664 1 c3 -8 1 -27 -4 -42 l-10
-28 -1 25 c-1 20 -3 22 -11 10 -11 -17 -13 -6 -4 28 7 25 22 29 30 7z m544 11
c0 -22 -17 -36 -41 -36 -22 0 -29 5 -29 20 0 16 7 20 35 20 19 0 35 -2 35 -4z
m437 -33 c-3 -10 -5 -4 -5 12 0 17 2 24 5 18 2 -7 2 -21 0 -30z m-956 -14 l-9
-34 -1 31 c-1 17 2 34 6 37 12 13 14 -1 4 -34z m399 26 c0 -8 -7 -15 -15 -15
-13 0 -14 3 -3 15 16 18 18 18 18 0z m-379 -58 c-13 -13 -14 5 -3 43 l7 25 3
-29 c2 -16 -1 -33 -7 -39z m1602 47 c17 -6 25 -54 8 -54 -5 0 -7 -9 -4 -20 6
-24 -5 -25 -35 -4 -30 21 -28 29 11 42 l32 11 -34 -5 c-29 -5 -33 -4 -28 11 4
9 7 21 7 27 0 5 6 7 13 4 6 -3 20 -9 30 -12z m-763 -69 l0 -55 -79 0 c-79 0
-80 0 -83 28 -3 26 -5 27 -55 25 -53 -2 -53 -2 -53 27 l0 30 135 0 135 0 0
-55z m-371 21 c-6 -13 -20 -27 -31 -30 -16 -3 -19 -11 -16 -29 4 -21 0 -26
-25 -31 -57 -11 -397 -7 -397 5 0 7 5 29 12 50 11 38 12 39 62 40 28 1 96 5
151 9 55 3 135 7 177 8 l78 2 -11 -24z m-753 -66 c31 -21 78 -46 105 -55 l49
-17 -25 -32 c-21 -28 -25 -44 -25 -101 0 -38 -5 -97 -11 -132 -9 -54 -14 -63
-28 -57 -27 13 -148 16 -169 5 -17 -9 -20 -7 -26 21 -15 74 0 191 41 326 14
45 26 82 28 82 2 0 29 -18 61 -40z m844 36 c0 -3 -4 -8 -10 -11 -5 -3 -10 -1
-10 4 0 6 5 11 10 11 6 0 10 -2 10 -4z m1041 -27 c8 0 -1 -7 -20 -15 -18 -8
-35 -14 -36 -12 -2 2 -1 16 2 31 5 26 7 27 23 12 9 -8 23 -15 31 -16z m-1001
16 c0 -2 -12 -11 -27 -18 -24 -13 -27 -19 -24 -65 l2 -49 -34 10 -35 11 20 28
c10 15 23 28 28 28 5 0 7 6 5 13 -3 6 7 19 22 29 29 17 43 21 43 13z m70 -15
c0 -16 -7 -20 -35 -20 -38 0 -38 0 -29 24 4 10 18 16 35 16 22 0 29 -5 29 -20z
m481 -72 l60 -27 -33 -45 c-25 -36 -33 -59 -36 -107 l-5 -61 -36 7 c-51 9
-137 61 -165 98 -25 34 -60 98 -54 101 2 1 28 10 59 19 31 9 74 30 95 46 34
25 40 26 47 12 5 -9 35 -29 68 -43z m-557 45 c4 -5 60 -8 124 -8 l117 0 -2
-48 c-1 -27 -3 -50 -5 -51 -2 -2 -33 -6 -69 -10 l-66 -6 -7 31 -6 32 -55 -7
-55 -6 0 40 c0 38 8 49 24 33z m1009 -22 c-4 -17 -9 -18 -36 -8 -27 9 -29 11
-11 18 35 14 53 10 47 -10z m-1193 -7 c0 -3 -12 -28 -27 -55 l-26 -49 -68 0
-69 0 -20 39 c-11 22 -24 42 -29 46 -15 9 -88 -41 -96 -65 -4 -13 -15 -20 -30
-20 -24 0 -29 8 -40 70 l-6 35 205 3 c113 2 206 0 206 -4z m1165 -16 c25 -11
30 -34 7 -32 -7 1 -21 2 -32 3 -13 0 -20 8 -20 21 0 23 9 25 45 8z m-1578 -98
c6 -41 12 -112 12 -158 1 -78 0 -83 -23 -94 -31 -14 -53 -62 -37 -82 8 -10 7
-25 -4 -62 -9 -27 -18 -66 -21 -88 -3 -21 -11 -57 -19 -80 -7 -22 -17 -62 -20
-89 -7 -46 -25 -76 -25 -41 0 10 -13 41 -30 71 -26 46 -30 62 -30 130 0 43 5
107 11 143 11 72 13 97 24 255 7 94 11 115 32 143 23 30 29 33 71 30 l47 -3
12 -75z m187 39 c17 -16 -2 -21 -38 -9 -20 6 -33 16 -30 22 7 10 53 2 68 -13z
m338 11 c6 0 3 -9 -7 -20 -19 -21 -55 -27 -55 -10 0 6 7 10 15 10 9 0 12 6 8
17 -5 13 -2 15 11 10 10 -4 22 -7 28 -7z m73 0 c-3 -5 -1 -10 4 -10 6 0 11 5
11 10 0 6 7 10 15 10 9 0 12 -6 9 -15 -4 -10 0 -15 11 -15 11 0 15 5 11 15 -3
8 -1 15 4 15 6 0 10 -9 10 -20 0 -23 -37 -28 -71 -9 -16 8 -26 7 -46 -6 -13
-9 -27 -15 -29 -12 -5 5 55 45 69 46 5 1 5 -3 2 -9z m626 -29 c-34 -36 -46
-82 -38 -142 5 -39 -5 -53 -17 -23 -21 55 4 147 49 182 39 31 42 21 6 -17z
m347 33 c13 -4 22 -14 22 -25 0 -22 0 -22 -34 -9 -14 5 -26 16 -26 25 0 17 4
18 38 9z m-673 -69 c29 -52 47 -70 88 -94 29 -16 72 -34 97 -41 25 -6 56 -15
70 -20 14 -4 72 -13 130 -20 58 -6 123 -20 146 -31 l41 -19 -9 -67 c-24 -202
-30 -254 -38 -313 -5 -36 -14 -103 -19 -150 -6 -47 -17 -141 -26 -210 -9 -69
-22 -179 -30 -245 -16 -128 -73 -582 -105 -830 -10 -82 -24 -195 -30 -250 -7
-55 -16 -107 -20 -115 -4 -8 -5 -56 -1 -106 l6 -92 -25 20 c-14 11 -65 48
-115 83 -49 35 -103 78 -120 95 -29 30 -30 36 -33 132 -4 89 -6 101 -23 105
-23 6 -24 38 -9 225 5 68 11 178 14 245 2 67 8 128 12 135 5 7 9 62 10 123 2
114 13 165 38 165 7 0 24 8 36 18 22 18 23 21 11 96 -10 67 -9 81 5 105 15 25
14 37 -16 191 -17 91 -42 210 -54 265 -13 56 -21 116 -19 137 3 22 -2 57 -12
85 -36 101 -44 159 -45 301 0 78 2 142 5 142 2 0 20 -29 40 -65z m462 7 c26
-13 30 -19 22 -34 -12 -21 -14 -111 -4 -128 5 -8 3 -11 -6 -8 -18 6 -24 89
-10 129 6 17 6 27 1 24 -16 -10 -32 -85 -25 -116 7 -33 0 -35 -88 -23 -43 6
-47 9 -53 40 -10 52 4 104 36 136 32 32 23 33 127 -20z m-1206 27 c43 -15 41
-13 33 -33 -10 -25 -70 -21 -85 6 -10 19 -9 20 7 14 11 -4 33 -9 49 -12 26 -4
24 -2 -9 11 -65 25 -61 36 5 14z m1369 -9 c24 -24 25 -39 5 -46 -8 -4 -15 -11
-15 -16 0 -6 7 -4 17 3 14 12 16 12 11 -1 -9 -29 -38 -23 -49 9 -6 17 -15 28
-20 25 -5 -3 -4 -14 2 -27 9 -16 9 -22 0 -25 -6 -2 -11 -10 -11 -18 0 -8 -6
-14 -12 -14 -8 0 -9 -3 -3 -8 11 -7 18 -102 8 -102 -3 0 -18 9 -34 20 -52 38
-49 107 10 179 37 45 61 51 91 21z m-690 -47 c0 -58 1 -58 -94 -69 -43 -5 -57
-4 -52 5 4 6 4 21 1 32 -6 18 -13 20 -56 17 -27 -1 -49 0 -49 3 0 4 -3 19 -6
35 l-5 29 130 0 131 0 0 -52z m750 26 c0 -5 -7 -9 -15 -9 -8 0 -15 7 -15 15 0
9 6 12 15 9 8 -4 15 -10 15 -15z m-1499 -12 c14 -31 -4 -77 -31 -77 -13 0 -20
7 -20 19 0 10 -3 33 -6 50 -6 28 -4 31 20 31 18 0 30 -7 37 -23z m238 -37
c-34 -65 -40 -67 -121 -54 -48 8 -49 27 -5 77 30 35 35 36 95 37 l63 0 -32
-60z m241 27 l0 -33 -60 4 -60 4 0 -31 c0 -28 -3 -31 -30 -31 -34 0 -34 2 17
83 22 35 26 37 78 37 l55 0 0 -33z m1086 -41 c1 -25 -2 -49 -7 -52 -5 -3 -9
-16 -9 -30 0 -47 -86 -56 -140 -14 -14 10 -23 21 -20 23 3 2 33 0 68 -6 40 -7
66 -7 72 -1 6 6 -4 9 -28 9 -52 0 -102 23 -102 47 0 15 3 17 19 8 25 -13 118
-13 126 -1 3 6 -8 8 -29 4 -18 -3 -36 -1 -40 5 -11 19 6 42 31 42 21 0 24 4
20 21 -5 19 -4 19 16 6 17 -11 22 -25 23 -61z m-1513 28 c14 -5 13 -44 -2 -44
-17 1 -33 20 -28 34 7 18 9 18 30 10z m503 -30 c0 -9 5 -19 13 -22 10 -3 12 1
8 17 -3 11 -1 21 4 21 5 0 9 -11 9 -25 0 -21 -5 -25 -28 -25 -36 0 -44 8 -31
31 12 23 27 25 25 3z m-106 -1 c0 -16 -35 -43 -57 -43 -18 0 -23 5 -23 25 0
23 4 25 40 25 22 0 40 -3 40 -7z m70 3 c0 -7 -72 -47 -77 -43 -2 3 11 14 29
26 32 20 48 26 48 17z m-480 -26 c20 -10 17 -50 -4 -50 -23 0 -35 16 -29 38 6
25 8 26 33 12z m475 -10 c3 -5 -1 -10 -10 -10 -9 0 -13 5 -10 10 3 6 8 10 10
10 2 0 7 -4 10 -10z m-535 -17 c0 -29 -12 -63 -21 -63 -5 0 -9 18 -9 40 0 29
4 40 15 40 8 0 15 -8 15 -17z m770 -32 l0 -48 -57 -12 c-77 -15 -80 -15 -87
15 -7 25 -9 26 -57 21 -49 -6 -49 -6 -49 23 0 28 0 28 78 35 42 3 86 7 97 9
72 11 75 10 75 -43z m-560 20 c0 -6 -9 -26 -21 -45 -19 -32 -25 -36 -63 -36
-24 0 -45 2 -48 5 -3 3 -1 24 4 45 l10 40 59 0 c33 0 59 -4 59 -9z m290 -24
l0 -33 -60 4 -60 4 0 -31 0 -32 -62 7 c-35 4 -64 8 -66 9 -1 1 10 23 25 48
l28 46 75 3 c41 2 85 5 98 6 19 2 22 -3 22 -31z m-443 -13 c3 -8 1 -20 -4 -25
-14 -14 -43 0 -43 22 0 24 38 26 47 3z m553 -39 c0 -21 -5 -25 -29 -25 -44 0
-50 28 -11 43 30 11 40 7 40 -18z m896 5 c49 0 39 -24 -10 -28 -25 -2 -44 2
-57 14 -27 24 -24 35 7 24 14 -6 41 -10 60 -10z m-1032 2 c6 -10 -29 -30 -59
-34 -14 -2 -21 3 -23 20 -3 20 1 22 37 22 22 0 42 -4 45 -8z m66 3 c0 -6 -56
-35 -67 -35 -4 0 6 9 22 20 29 19 45 25 45 15z m-501 -27 c3 -35 0 -39 -21
-32 -30 9 -31 9 -23 33 4 15 11 18 25 13 10 -4 19 -10 19 -14z m732 -5 c0 -10
3 -30 5 -44 4 -23 -4 -31 -80 -77 -83 -51 -168 -83 -183 -68 -4 4 -1 11 7 16
11 7 12 10 2 10 -10 0 -13 19 -10 80 3 80 6 88 24 71 9 -9 108 0 179 17 56 14
55 14 56 -5z m-643 1 c26 -8 27 -12 4 -42 -15 -20 -22 -22 -45 -13 -16 6 -27
18 -27 29 0 32 18 39 68 26z m-419 -15 c28 -10 31 -15 27 -38 -6 -29 -26 -189
-26 -207 0 -8 -15 -10 -44 -7 -25 3 -58 1 -75 -5 -29 -10 -31 -10 -36 21 -2
18 -9 59 -15 91 -15 91 -14 95 27 113 37 15 105 14 148 -2 15 -6 17 -5 9 4
-18 20 -114 25 -161 8 -34 -12 -43 -12 -43 -2 0 30 125 46 189 24z m786 -13
c0 0 -1 -32 -3 -70 l-4 -68 -44 7 c-43 6 -148 39 -211 67 l-32 14 18 30 18 30
129 -4 c71 -2 129 -5 129 -6z m984 -2 c2 -2 -20 -189 -49 -416 -28 -227 -67
-534 -85 -683 -37 -293 -112 -899 -121 -980 -3 -27 -8 -58 -10 -67 -6 -21 -42
-24 -50 -5 -4 11 141 1216 176 1462 5 39 25 201 45 360 44 364 41 347 68 339
12 -3 24 -8 26 -10z m-1420 -34 c12 -6 21 -17 21 -25 0 -18 2 -18 -50 0 -49
17 -61 19 -40 5 13 -9 13 -10 0 -9 -8 0 -24 4 -35 9 l-20 9 20 1 c18 1 17 2
-4 11 -13 5 -26 7 -29 4 -3 -3 1 -5 9 -5 12 0 12 -2 1 -9 -19 -12 42 -32 77
-26 14 3 19 2 11 -2 -11 -4 -3 -11 25 -24 64 -28 10 -23 -67 7 -58 22 -67 29
-64 47 3 12 5 25 5 29 2 20 87 7 140 -22z m226 -60 c42 -16 105 -36 140 -42
70 -13 86 -28 31 -28 -51 0 -283 80 -270 93 11 11 18 9 99 -23z m525 -24 c0
-5 -3 -6 -7 -3 -11 11 -33 -14 -33 -37 0 -26 17 -46 39 -46 11 0 9 5 -7 16
-22 15 -30 48 -13 58 13 9 28 -15 35 -57 14 -76 -49 -53 -85 31 -11 24 -19 46
-19 48 0 2 15 13 32 24 l33 20 12 -23 c7 -12 12 -26 13 -31z m-740 34 c18 -12
2 -12 -25 0 -13 6 -15 9 -5 9 8 0 22 -4 30 -9z m-36 -80 c-11 -59 -16 -61 -89
-30 -45 19 -46 20 -39 57 4 21 8 41 10 44 2 3 31 -3 64 -15 l60 -21 -6 -35z
m204 29 c1 -8 -12 -39 -30 -69 -26 -43 -39 -56 -61 -58 -33 -4 -57 13 -57 39
0 22 8 23 34 4 13 -10 24 -11 37 -4 25 13 24 54 -1 72 -18 12 -18 15 -4 35 14
20 18 21 47 9 18 -8 33 -20 35 -28z m484 -72 c11 -70 10 -78 -7 -97 -23 -25
-57 -26 -78 -2 -22 24 -52 125 -39 130 5 1 29 15 53 31 24 16 47 25 51 22 4
-4 13 -41 20 -84z m-378 48 c57 -18 58 -19 53 -51 -10 -63 -44 -123 -72 -130
-36 -9 -73 10 -81 40 -9 36 15 168 30 163 6 -2 37 -12 70 -22z m-179 -25 c0
-18 -6 -26 -22 -28 -18 -3 -23 1 -23 21 0 28 9 39 30 35 9 -2 15 -14 15 -28z
m405 -78 c0 -98 -15 -125 -67 -120 -51 4 -71 36 -79 126 l-7 72 77 0 76 0 0
-78z m-611 47 c38 -13 59 -25 53 -31 -9 -9 -107 24 -126 43 -15 14 4 11 73
-12z m-1 -36 c46 -16 50 -27 31 -82 -13 -36 -23 -36 -97 -5 -26 11 -33 18 -27
31 4 10 9 33 12 51 5 25 10 32 22 26 9 -3 35 -13 59 -21z m846 -4 c21 -4 26
-20 71 -239 14 -69 28 -135 30 -147 4 -19 -1 -25 -32 -38 -20 -9 -40 -12 -44
-8 -3 5 -14 53 -24 108 -9 55 -26 136 -36 180 -10 44 -19 102 -19 129 0 46 1
48 18 34 9 -9 26 -18 36 -19z m-754 11 c0 -5 -5 -10 -11 -10 -5 0 -7 5 -4 10
3 6 8 10 11 10 2 0 4 -4 4 -10z m163 -145 c-7 -44 -20 -137 -30 -207 l-17
-128 -29 0 c-15 0 -44 7 -63 15 -31 13 -35 18 -31 42 3 16 11 60 18 98 7 39
22 117 33 175 20 100 22 105 47 108 15 2 37 15 50 28 l24 26 5 -39 c3 -21 0
-74 -7 -118z m-500 125 c10 -10 2 -11 -33 -6 -25 3 -63 2 -85 -4 -51 -12 -58
-5 -14 15 38 17 114 14 132 -5z m362 0 c-3 -5 -26 -100 -50 -212 -24 -112 -42
-176 -39 -142 5 45 2 69 -10 91 -13 25 -13 38 -4 65 6 18 15 38 19 44 5 6 11
26 13 45 6 47 16 70 40 95 21 22 42 32 31 14z m-9 -185 c-18 -93 -39 -206 -45
-250 -7 -44 -14 -88 -17 -97 -3 -11 9 -33 34 -59 l39 -42 44 24 c50 28 43 1
84 304 27 193 34 230 41 222 2 -2 -5 -118 -16 -258 l-19 -254 33 -34 c38 -38
61 -38 109 1 l28 23 11 272 c7 150 15 267 20 260 4 -6 8 -91 8 -187 0 -96 3
-219 7 -273 l6 -98 44 -26 44 -26 37 31 37 30 -2 108 c-1 60 -7 174 -12 254
-5 86 -5 149 0 155 6 5 9 5 9 -3 0 -16 27 -283 41 -396 5 -49 12 -93 15 -98 3
-4 21 -15 41 -23 41 -17 61 -10 88 32 22 33 23 20 -18 301 -18 122 -30 222
-27 222 4 0 17 -48 29 -107 21 -104 71 -364 71 -369 0 -1 14 -7 30 -14 38 -16
46 -30 54 -103 l7 -57 -37 -16 c-21 -9 -77 -20 -126 -24 -48 -5 -92 -11 -97
-14 -6 -4 -11 13 -14 41 l-3 48 -2 -53 c-2 -45 -5 -54 -25 -61 -44 -17 -152
-22 -217 -11 -36 6 -139 15 -230 19 -110 5 -177 13 -201 23 l-36 16 9 73 c5
41 17 101 27 134 11 33 22 74 25 90 17 94 78 385 87 413 21 65 17 24 -15 -143z
m-365 153 c22 -19 70 -97 79 -129 8 -27 7 -29 -21 -29 -21 0 -29 5 -29 17 0
16 -1 16 -17 0 -14 -14 -19 -40 -23 -117 -5 -95 -6 -98 -24 -84 -15 11 -20 30
-24 94 -2 44 -8 78 -12 75 -7 -4 -7 -44 1 -157 3 -33 0 -43 -11 -43 -8 0 -14
6 -12 14 1 7 -1 18 -6 25 -16 19 -21 56 -9 56 9 0 9 2 0 8 -6 4 -14 28 -16 52
-2 25 -4 10 -3 -32 1 -54 -2 -78 -11 -78 -15 0 -23 25 -33 108 l-9 67 3 -83
c4 -107 -16 -82 -22 28 -4 72 -3 78 32 142 25 45 44 68 59 71 46 9 94 7 108
-5z m679 -229 c-6 -118 -13 -219 -15 -226 -3 -8 -22 -10 -62 -6 -32 3 -60 7
-62 9 -4 4 18 328 25 362 3 18 11 22 39 22 35 0 75 28 75 52 0 6 2 9 5 6 3 -3
1 -101 -5 -219z m301 181 c16 0 29 -3 29 -7 0 -5 11 -84 25 -178 13 -93 25
-175 25 -181 0 -9 -81 -34 -109 -34 -5 0 -12 46 -15 103 -4 56 -14 152 -22
212 -7 61 -14 114 -14 118 0 5 12 -1 26 -12 15 -12 40 -21 55 -21z m-759 -22
c32 -11 55 -25 51 -29 -10 -10 -123 30 -123 42 0 13 6 12 72 -13z m-542 -24
c0 -2 -12 -1 -27 2 -57 14 -5 -18 58 -36 65 -17 90 -40 46 -40 -14 0 -55 9
-91 20 -71 22 -87 47 -43 67 20 10 57 1 57 -13z m539 -15 c40 -12 42 -14 35
-43 -8 -40 -10 -41 -39 -28 -14 7 -39 12 -55 12 -33 0 -35 3 -19 49 7 19 16
30 24 27 7 -2 32 -10 54 -17z m601 4 l37 5 10 -182 c6 -99 10 -182 8 -184 -1
-1 -32 -5 -69 -9 l-66 -6 0 197 0 197 21 -12 c12 -6 38 -9 59 -6z m-1186 -47
c19 -8 59 -19 90 -26 55 -11 56 -12 56 -45 0 -48 16 -83 57 -126 39 -40 77
-53 106 -37 27 14 30 4 8 -23 -16 -19 -22 -22 -32 -11 -26 25 -48 11 -99 -60
-63 -90 -68 -109 -41 -144 12 -15 21 -31 21 -36 0 -6 -17 -31 -39 -57 -21 -25
-48 -64 -59 -86 -25 -48 -27 -34 -12 77 5 40 17 134 26 208 9 74 20 137 25
138 16 6 5 132 -11 132 -14 0 -49 -96 -43 -118 3 -12 -3 -68 -12 -124 -10 -57
-25 -148 -34 -203 l-17 -100 -19 93 -18 93 22 23 c23 24 26 66 13 176 -5 42
-11 55 -24 55 -9 0 -19 3 -23 7 -6 6 16 208 22 208 2 0 19 -6 37 -14z m509
-37 c48 -7 80 -18 96 -32 22 -21 23 -26 17 -117 -3 -52 -17 -171 -31 -265 -13
-93 -38 -271 -55 -395 -17 -124 -35 -254 -40 -290 -5 -36 -35 -245 -65 -465
-31 -220 -61 -412 -66 -426 -17 -44 -51 -54 -173 -52 -122 2 -252 27 -356 68
-78 31 -140 70 -140 90 0 10 21 3 73 -25 120 -64 260 -97 433 -102 97 -3 118
4 134 48 8 20 30 171 145 994 36 255 85 619 106 777 10 83 10 95 -5 118 -20
31 -54 45 -105 45 -59 0 -101 11 -101 26 0 17 36 18 133 3z m45 -65 c35 -23
32 -52 -43 -589 -13 -93 -38 -271 -55 -395 -47 -347 -110 -788 -121 -855 -15
-86 -26 -95 -118 -95 -148 1 -315 36 -424 91 -91 46 -95 53 -85 135 15 108 17
114 33 108 11 -4 26 17 55 77 44 91 45 98 29 144 -11 29 -8 38 30 106 22 41
41 70 41 64 1 -36 -55 -441 -62 -443 -9 -4 -9 -74 1 -117 l7 -30 27 52 c18 36
25 61 21 80 -5 24 37 304 64 429 l9 39 7 -35 c4 -19 21 -70 39 -113 l31 -79
-34 -28 -34 -28 23 -69 c13 -37 32 -90 44 -116 19 -45 22 -48 48 -43 22 4 31
1 39 -15 6 -11 8 -28 5 -38 -4 -13 3 -26 21 -40 15 -12 31 -21 35 -21 13 0 11
78 -2 86 -6 3 -19 26 -30 51 -16 38 -22 43 -46 41 -26 -3 -29 1 -53 69 l-25
73 34 28 34 29 -36 91 c-20 50 -34 98 -31 106 3 8 1 17 -5 21 -6 3 -11 19 -11
36 0 22 5 29 19 29 22 0 27 12 37 93 3 31 11 57 17 57 6 0 34 -24 63 -53 93
-97 117 -202 89 -397 -10 -67 -15 -142 -11 -167 4 -29 2 -42 -5 -38 -18 12
-30 57 -40 150 -5 50 -18 107 -29 130 -19 40 -120 148 -120 129 0 -5 21 -30
46 -54 59 -57 81 -106 89 -200 4 -41 11 -91 17 -110 11 -36 35 -70 49 -70 4 0
8 42 8 93 0 50 5 119 11 152 33 196 -28 371 -155 443 -15 8 -16 18 -5 105 8
63 17 97 25 97 6 0 39 14 73 30 131 66 193 182 217 410 4 36 17 91 30 123 21
53 21 57 5 57 -27 0 -76 -62 -95 -122 -25 -75 -49 -119 -82 -149 -29 -27 -123
-82 -129 -76 -2 2 16 30 41 62 25 31 45 63 45 70 0 8 -11 27 -25 43 l-24 29
34 51 c40 59 52 69 68 53 21 -21 36 -11 75 47 52 77 55 82 44 82 -5 0 -14 -10
-19 -22 -6 -13 -25 -42 -42 -66 -30 -41 -32 -42 -55 -27 -24 16 -25 15 -70
-48 -25 -36 -46 -69 -46 -74 0 -5 11 -20 25 -33 14 -13 25 -26 25 -30 0 -3
-31 -50 -70 -104 -38 -54 -70 -106 -70 -114 0 -12 -3 -13 -11 -5 -15 15 11 65
75 153 l46 62 -25 30 c-14 16 -25 34 -25 40 0 11 56 97 93 142 23 28 24 28 49
12 26 -17 26 -17 62 34 32 45 36 57 36 113 l0 63 77 -8 c42 -5 88 -16 101 -24z
m-449 -86 c1 -14 -3 -28 -8 -30 -10 -3 -31 -146 -52 -348 -14 -134 -19 -152
-38 -141 -11 7 -6 52 26 247 22 132 36 245 32 253 -4 8 0 30 9 48 14 29 17 31
23 16 4 -10 8 -30 8 -45z m146 -8 c3 -5 -1 -10 -10 -10 -9 0 -13 5 -10 10 3 6
8 10 10 10 2 0 7 -4 10 -10z m-281 -28 c2 -4 8 -48 12 -96 7 -86 6 -89 -17
-107 -23 -17 -23 -18 -10 -91 16 -90 25 -198 12 -153 -5 17 -14 68 -21 115 -6
47 -14 93 -16 102 -3 10 6 26 21 40 24 21 26 27 20 73 -11 90 -15 104 -31 98
-8 -3 -14 1 -14 11 0 16 35 23 44 8z m1606 -15 c0 -7 -15 -18 -33 -25 -40 -14
-47 -15 -47 -3 0 7 25 20 78 40 1 1 2 -5 2 -12z m-1626 -39 c3 -13 6 -46 6
-73 0 -40 -4 -53 -21 -63 -21 -14 -21 -15 -3 -127 4 -27 4 -28 -7 -10 -22 34
-28 98 -18 180 11 91 17 115 29 115 4 0 10 -10 14 -22z m832 -9 c51 -13 61
-34 12 -24 -49 9 -88 26 -88 37 0 6 7 7 16 4 9 -4 36 -11 60 -17z m804 9 c0
-7 3 -24 6 -38 5 -17 3 -22 -4 -15 -6 6 -12 19 -15 30 -3 11 -3 1 -1 -22 5
-56 -12 -56 -19 -1 -4 28 -2 45 6 50 18 11 27 10 27 -4z m-42 -63 c0 -29 0
-29 -8 -5 -4 14 -8 36 -8 50 -1 23 0 23 8 5 5 -11 8 -33 8 -50z m-118 46 c0
-5 -20 -14 -44 -20 -55 -13 -66 -14 -66 -2 0 6 19 14 43 19 57 13 67 14 67 3z
m94 -23 c4 -17 2 -28 -4 -28 -5 0 -10 14 -10 32 0 36 4 35 14 -4z m-1093 -22
c-11 -24 -24 -86 -31 -137 -6 -52 -15 -113 -21 -137 -28 -126 -114 -227 -233
-272 l-28 -10 7 78 c6 73 5 79 -14 88 -21 9 -21 10 -3 39 11 18 48 46 91 70
101 55 123 83 175 227 14 38 58 98 72 98 2 0 -5 -20 -15 -44z m285 22 c-3 -13
-6 -32 -6 -42 0 -12 -3 -16 -9 -10 -11 12 -2 74 11 74 6 0 8 -10 4 -22z m22
-40 c-5 -23 -11 -44 -14 -47 -6 -7 -5 65 2 83 12 32 22 5 12 -36z m31 -10 c-4
-24 -8 -47 -9 -51 0 -5 -5 -5 -11 -2 -10 7 -4 78 8 98 12 20 19 -7 12 -45z
m225 46 c25 -4 46 -11 46 -17 0 -11 -111 0 -124 14 -12 11 12 12 78 3z m448
-18 c3 -14 2 -30 -3 -37 -5 -8 -9 -4 -12 12 -3 19 -5 16 -7 -11 -2 -33 -3 -33
-10 -10 -12 36 -12 62 0 55 6 -3 10 -1 10 4 0 21 18 10 22 -13z m-651 -59 c-8
-8 -11 -1 -11 24 0 46 14 60 18 19 2 -18 -1 -37 -7 -43z m30 32 l-9 -34 -1 31
c-1 17 2 34 6 37 12 13 14 -1 4 -34z m429 32 c0 -12 -36 -21 -87 -21 -62 0
-63 18 -1 23 29 2 61 4 71 5 9 1 17 -2 17 -7z m149 -75 c1 -19 -3 -26 -8 -20
-9 8 -16 76 -11 99 3 15 17 -45 19 -79z m-60 37 c0 -31 -2 -34 -9 -18 -12 28
-12 55 0 55 6 0 10 -17 9 -37z m31 -14 c0 -24 -4 -38 -10 -34 -5 3 -10 24 -10
46 0 24 4 38 10 34 6 -3 10 -24 10 -46z m-450 5 c0 -21 -4 -33 -10 -29 -5 3
-10 19 -10 36 0 16 5 29 10 29 6 0 10 -16 10 -36z m29 9 c0 -16 -4 -37 -9 -48
-6 -15 -9 -8 -9 28 -1 26 4 47 9 47 6 0 10 -12 9 -27z m34 -23 l4 -35 1 38 c2
36 21 54 23 20 0 -15 2 -15 9 2 7 17 9 15 9 -12 1 -35 -15 -53 -22 -26 -4 15
-5 15 -6 -2 -1 -18 -38 -52 -47 -43 -2 2 -1 28 3 57 6 56 19 57 26 1z m269 10
c3 -17 1 -33 -4 -36 -4 -3 -8 11 -8 30 0 44 6 47 12 6z m-112 -21 c0 -36 -2
-40 -15 -29 -8 7 -15 25 -15 41 0 19 5 29 15 29 11 0 15 -11 15 -41z m30 -10
c0 -31 -4 -48 -10 -44 -5 3 -10 26 -10 51 0 24 5 44 10 44 6 0 10 -23 10 -51z
m30 2 c0 -28 -4 -53 -10 -56 -6 -4 -10 15 -10 49 0 31 5 56 10 56 6 0 10 -22
10 -49z m30 10 c0 -22 -4 -43 -10 -46 -6 -4 -10 12 -10 39 0 25 5 46 10 46 6
0 10 -18 10 -39z m-1280 -257 c0 -22 -5 -34 -14 -34 -17 0 -23 -16 -32 -80 -4
-27 -10 -50 -14 -50 -4 0 -12 17 -19 38 -10 30 -10 58 3 150 9 62 16 118 16
125 2 28 60 -119 60 -149z m1550 20 c-6 -26 -8 -71 -5 -99 4 -32 1 -72 -8
-110 -8 -33 -16 -109 -16 -169 -1 -61 -6 -151 -11 -200 -5 -50 -10 -125 -10
-167 0 -73 -1 -76 -31 -99 -29 -21 -37 -22 -87 -14 l-56 9 -12 70 c-6 39 -24
106 -39 150 -37 109 -42 197 -16 310 21 93 19 156 -8 245 -17 53 -14 57 35 65
26 3 65 16 87 28 32 17 168 40 185 31 1 -1 -2 -23 -8 -50z m-673 16 c101 0
113 -2 113 -17 0 -10 -21 -81 -47 -158 -40 -124 -46 -154 -53 -265 -6 -102
-14 -148 -44 -247 -20 -68 -40 -146 -43 -174 -5 -46 -8 -50 -27 -44 -41 14
-108 17 -119 6 -18 -18 -27 -13 -27 18 0 17 -7 83 -16 148 -8 65 -16 165 -16
223 0 93 3 117 33 210 30 93 34 117 34 215 l0 111 50 -13 c27 -7 100 -13 162
-13z m-242 -218 c-16 -58 -42 -102 -31 -50 3 12 12 71 21 129 8 59 16 110 17
115 1 5 4 -22 6 -61 2 -45 -3 -92 -13 -133z m-547 111 c68 -16 72 -18 72 -44
0 -30 -58 -447 -64 -466 -4 -9 -19 -8 -63 2 -80 19 -123 37 -100 42 18 5 23
28 7 38 -6 3 -8 -2 -5 -12 4 -11 1 -10 -6 4 -6 12 -9 33 -5 48 7 26 7 26 36 8
68 -40 130 34 130 155 0 106 -43 163 -100 132 -28 -15 -29 -12 -21 30 4 22 12
35 21 35 8 0 15 7 15 15 0 8 -6 14 -12 13 -7 -2 -13 2 -13 7 0 14 25 13 108
-7z m-148 -117 c0 -5 -7 -17 -16 -27 -9 -10 -22 -39 -29 -66 -17 -61 -18 -27
-4 73 l12 77 18 -24 c10 -13 19 -28 19 -33z m126 -21 c21 -52 18 -133 -8 -185
-37 -72 -94 -65 -130 17 -28 63 -17 116 32 165 50 51 85 51 106 3z m-168 -161
c10 -33 9 -38 -11 -54 -12 -10 -23 -17 -25 -15 -6 6 11 105 18 105 3 0 12 -16
18 -36z m6 -114 c-5 -42 -3 -64 6 -75 19 -23 5 -56 -43 -103 l-44 -43 13 93
c7 51 13 101 14 110 0 15 46 78 56 78 3 0 2 -27 -2 -60z m-3 -215 l-51 -95 17
-35 c16 -34 16 -35 -20 -112 -36 -77 -58 -96 -65 -59 -3 13 0 17 11 13 11 -4
22 11 42 55 25 56 26 64 14 101 -13 39 -12 42 33 131 26 50 50 100 54 111 6
18 8 18 11 2 3 -9 -18 -60 -46 -112z m104 81 c-23 -95 -82 -492 -74 -497 6 -3
2 -23 -10 -49 l-19 -43 -7 47 c-5 29 -4 51 2 55 6 3 22 103 37 221 14 118 29
234 32 256 4 35 8 41 24 37 14 -4 18 -11 15 -27z m49 -28 c4 -23 25 -87 47
-143 37 -91 39 -101 24 -110 -59 -35 -59 -32 -26 -124 16 -45 32 -85 35 -88 2
-2 14 0 25 7 20 10 23 7 43 -37 11 -26 25 -49 29 -51 11 -5 12 -52 1 -52 -14
0 -32 24 -32 42 0 11 -7 32 -15 49 -14 25 -18 28 -36 18 -29 -15 -35 -7 -74
107 l-34 99 29 26 c17 14 30 32 30 40 0 8 -13 46 -29 85 -30 74 -52 192 -34
181 6 -4 13 -26 17 -49z m-199 -84 c-33 -63 -34 -67 -20 -100 13 -32 13 -39
-8 -89 -22 -55 -37 -70 -37 -37 0 18 16 135 25 190 5 27 57 102 71 102 2 0
-12 -30 -31 -66z m1670 -107 c-40 -13 -45 -23 -43 -82 l1 -50 6 55 c5 50 8 55
31 57 25 3 25 3 3 -7 -26 -11 -32 -50 -8 -50 21 0 19 -17 -6 -43 -15 -16 -19
-30 -15 -51 8 -40 34 -78 48 -70 6 4 8 3 5 -3 -4 -6 6 -21 21 -34 l27 -24 -23
26 c-19 22 -20 28 -9 37 11 9 18 8 31 -7 10 -11 15 -25 10 -32 -5 -9 -2 -10
10 -6 12 5 16 3 13 -5 -2 -7 -13 -12 -23 -10 -25 5 40 -45 84 -65 26 -11 37
-11 48 -2 12 10 13 9 8 -5 -10 -26 -45 -19 -104 21 -132 88 -170 152 -170 281
0 61 8 76 45 84 33 7 41 -5 10 -15z m-133 -24 c39 -4 58 -10 58 -19 0 -9 -13
-14 -37 -14 -57 0 -113 18 -113 37 0 10 6 13 17 9 9 -4 43 -9 75 -13z m-752
-51 c0 -9 -6 -12 -16 -8 -9 3 -18 6 -20 6 -2 0 -4 9 -4 20 0 18 2 19 20 8 11
-7 20 -19 20 -26z m118 -104 c-2 -138 -2 -139 -5 -33 -3 86 -7 113 -21 129
-16 18 -16 19 1 13 9 -4 17 -2 17 3 0 14 -70 6 -80 -10 -7 -11 -10 -8 -10 13
0 26 2 27 50 27 l50 0 -2 -142z m782 121 c0 -5 -7 -9 -15 -9 -15 0 -20 12 -9
23 8 8 24 -1 24 -14z m-714 -5 c-3 -9 -6 -18 -6 -20 0 -2 -9 -4 -20 -4 -25 0
-27 27 -2 33 31 8 34 7 28 -9z m-132 -16 c-5 -8 -2 -9 9 -5 12 5 17 1 17 -13
0 -25 -16 -26 -30 -1 -13 25 -13 31 1 31 5 0 7 -5 3 -12z m714 2 c32 0 42 -4
42 -16 0 -14 -8 -16 -52 -10 -29 4 -60 14 -68 23 -13 14 -12 15 10 9 14 -3 44
-6 68 -6z m-768 -46 c0 -8 -4 -12 -10 -9 -5 3 -10 10 -10 16 0 5 5 9 10 9 6 0
10 -7 10 -16z m71 -4 c10 0 20 6 22 13 3 6 6 -3 6 -21 1 -31 0 -32 -21 -21
-18 10 -24 8 -35 -7 -12 -16 -13 -14 -13 21 0 30 3 36 12 27 7 -7 20 -12 29
-12z m89 6 c0 -8 -4 -18 -10 -21 -5 -3 -10 3 -10 14 0 12 5 21 10 21 6 0 10
-6 10 -14z m617 -1 c18 0 35 -6 38 -12 3 -10 -11 -13 -49 -13 -63 0 -86 7 -86
26 0 10 8 12 33 6 17 -4 47 -7 64 -7z m123 -16 c0 -15 -5 -19 -15 -15 -8 3
-15 2 -15 -3 0 -5 10 -12 23 -15 20 -6 21 -7 5 -20 -13 -9 -14 -16 -6 -24 6
-6 9 -15 5 -18 -4 -4 -14 10 -23 31 -12 29 -13 44 -5 62 13 29 31 30 31 2z
m-900 -36 c0 -20 -24 -11 -28 10 -2 12 1 15 12 11 9 -3 16 -13 16 -21z m158
-14 c-9 -6 -14 -3 -16 8 -2 8 2 19 10 24 9 6 14 3 16 -8 2 -8 -2 -19 -10 -24z
m679 -26 l21 -46 -24 -26 c-13 -14 -27 -42 -30 -61 -3 -19 -6 -42 -8 -50 -1
-8 -10 10 -20 40 -11 30 -27 67 -38 82 -18 26 -18 27 -1 21 17 -6 17 -5 2 13
-10 10 -19 28 -22 39 -3 15 -5 12 -6 -9 -1 -24 -3 -26 -15 -16 -8 6 -12 19 -9
28 3 9 6 22 8 27 1 6 28 9 62 7 l59 -4 21 -45z m-766 33 c5 3 9 0 9 -6 0 -16
-23 -7 -27 11 -2 9 -1 10 3 1 3 -6 10 -10 15 -6z m29 -45 c0 -20 -2 -22 -15
-11 -22 18 -46 -3 -26 -22 10 -11 11 -10 6 5 -4 9 -4 17 0 17 4 0 14 -8 21
-17 16 -21 17 -72 4 -128 -6 -26 -6 -41 1 -43 19 -7 -13 -32 -40 -32 -40 0
-49 15 -40 63 4 23 8 46 9 51 0 6 6 1 14 -10 12 -15 18 -17 33 -8 22 14 24 45
3 52 -13 5 -13 3 -1 -12 10 -12 11 -20 3 -28 -11 -11 -32 -3 -32 13 0 6 4 7
10 4 6 -3 7 1 4 10 -5 12 -9 13 -20 4 -12 -9 -14 -5 -13 27 0 22 3 33 6 26 9
-22 40 -33 52 -19 8 11 6 13 -12 13 -18 -1 -23 5 -25 34 -3 33 -1 35 28 35 25
0 30 -4 30 -24z m-102 -28 c-2 -25 -7 -48 -13 -50 -6 -2 -9 12 -8 29 1 18 2
41 2 51 1 9 6 17 12 17 6 0 9 -19 7 -47z m163 30 c2 -29 -3 -78 -7 -82 -2 -3
-9 0 -15 6 -7 7 -8 27 -4 52 7 41 24 56 26 24z m1135 -22 c-3 -9 -15 -52 -28
-96 -20 -72 -23 -77 -29 -50 -4 17 -7 60 -8 97 l-1 66 35 -1 c27 -1 34 -5 31
-16z m-556 -76 c17 -36 29 -73 27 -83 -3 -14 -5 -14 -9 -2 -3 8 -13 37 -23 63
-9 26 -29 62 -43 79 -24 28 -24 30 -5 19 12 -6 36 -41 53 -76z m-44 29 c13
-19 14 -28 5 -37 -8 -8 -11 -6 -11 11 0 13 -6 22 -15 22 -8 0 -15 7 -15 15 0
23 18 18 36 -11z m184 12 c0 -3 -11 -26 -25 -52 -14 -26 -25 -55 -25 -65 0
-11 -4 -19 -10 -19 -22 0 1 90 31 127 11 12 29 18 29 9z m147 -17 c6 -6 9 -18
6 -25 -3 -8 0 -14 6 -14 6 0 11 5 11 11 0 5 5 7 11 3 8 -4 7 -9 -2 -15 -11 -7
-9 -9 6 -10 15 -1 16 -2 4 -6 -9 -2 -32 6 -52 17 -30 18 -34 24 -24 35 15 17
20 18 34 4z m-117 -9 c0 -5 -11 -26 -25 -46 -14 -20 -25 -45 -25 -56 0 -11 -4
-17 -9 -13 -12 7 1 53 25 95 18 29 34 39 34 20z m-243 -22 c-3 -8 -6 -5 -6 6
-1 11 2 17 5 13 3 -3 4 -12 1 -19z m-677 -8 c-20 -13 -33 -13 -25 0 3 6 14 10
23 10 15 0 15 -2 2 -10z m165 -1 c11 -17 -1 -21 -15 -4 -8 9 -8 15 -2 15 6 0
14 -5 17 -11z m785 -3 c0 -7 -7 -19 -14 -26 -8 -6 -20 -27 -27 -47 -8 -25 -14
-32 -22 -24 -11 11 -1 43 29 89 16 25 34 29 34 8z m-200 -53 c0 -15 -19 -17
-40 -3 -13 8 -12 11 5 25 16 12 17 14 3 9 -10 -3 -18 -2 -18 4 0 6 6 12 13 15
12 4 36 -28 37 -50z m-60 26 c0 -11 -4 -17 -10 -14 -5 3 -10 13 -10 21 0 8 5
14 10 14 6 0 10 -9 10 -21z m267 -16 c-8 -15 -20 -39 -25 -53 -8 -20 -11 -21
-11 -6 -1 10 9 36 21 57 24 44 38 46 15 2z m-959 15 c-3 -7 -15 -14 -29 -16
-23 -2 -23 -2 -5 13 24 18 39 20 34 3z m163 2 c10 -6 19 -17 19 -26 0 -12 -4
-12 -25 2 -38 25 -34 45 6 24z m849 -9 c0 -5 -6 -14 -14 -20 -8 -7 -17 -27
-20 -47 -7 -33 -26 -39 -26 -8 0 29 29 84 44 84 9 0 16 -4 16 -9z m161 -9
c-10 -3 -8 -9 10 -23 14 -11 18 -19 10 -19 -11 0 -11 -3 -1 -15 10 -12 10 -19
2 -27 -9 -9 -12 -7 -12 8 0 15 -11 23 -47 33 -44 12 -46 14 -25 24 12 5 22 13
22 17 0 4 12 7 28 7 15 0 21 -2 13 -5z m-131 -4 c0 -2 -9 -25 -19 -53 -15 -40
-21 -46 -27 -32 -8 21 19 87 36 87 5 0 10 -1 10 -2z m-1065 -18 c-27 -12 -43
-12 -25 0 8 5 22 9 30 9 10 0 8 -3 -5 -9z m186 -7 c13 -15 12 -15 -8 -4 -24
12 -29 21 -14 21 5 0 15 -7 22 -17z m639 -26 c41 -8 106 -27 144 -41 87 -34
204 -40 254 -13 36 20 44 5 10 -17 -56 -35 -170 -28 -298 19 -36 13 -95 28
-133 35 -86 14 -117 26 -117 45 0 13 4 13 33 1 17 -8 66 -21 107 -29z m290 18
c7 -8 26 -19 43 -23 40 -10 45 -29 11 -42 -19 -8 -37 -7 -60 0 -19 6 -38 9
-44 5 -16 -10 -12 28 6 53 18 26 27 27 44 7z m-1105 -14 c-13 -11 -75 -31 -75
-24 0 3 8 12 18 19 19 15 72 20 57 5z m183 -7 c12 -8 22 -19 22 -23 0 -10 -69
21 -70 32 0 12 24 8 48 -9z m-115 -31 c20 -3 43 0 50 6 18 15 81 -24 73 -45
-3 -9 -6 -21 -6 -28 0 -19 -42 -35 -67 -25 -31 11 -29 35 5 47 15 6 20 11 10
11 -9 1 -19 7 -21 14 -7 16 -25 -9 -34 -46 -9 -43 -39 -32 -35 13 2 27 0 31
-7 20 -6 -8 -11 -25 -11 -37 0 -25 -7 -28 -29 -14 -12 8 -13 14 -3 37 7 14 10
29 8 32 -3 2 -11 -8 -18 -24 -16 -38 -15 -37 -27 -30 -7 5 -7 15 0 33 8 23 8
24 -6 13 -8 -7 -15 -20 -15 -28 0 -12 -3 -13 -11 -5 -7 7 -9 19 -5 28 8 21 66
46 91 39 11 -4 37 -8 58 -11z m-46 -123 c75 -13 150 1 176 33 16 20 18 20 15
3 -2 -10 -16 -28 -31 -40 -61 -45 -265 -17 -275 37 -4 18 -2 18 25 -1 15 -12
56 -26 90 -32z m-47 30 c8 -5 11 -10 5 -10 -5 0 -17 5 -25 10 -8 5 -10 10 -5
10 6 0 17 -5 25 -10z m127 -16 c-3 -3 -12 -4 -19 -1 -8 3 -5 6 6 6 11 1 17 -2
13 -5z"/>
<path d="M6482 4975 c0 -16 2 -22 5 -12 2 9 2 23 0 30 -3 6 -5 -1 -5 -18z"/>
<path d="M6471 4928 c-1 -9 -12 -92 -26 -184 -26 -173 -28 -190 -21 -183 8 8
57 360 52 372 -2 7 -5 5 -5 -5z"/>
<path d="M4929 4747 c5 -5 21 -7 37 -5 27 3 26 4 -8 9 -22 3 -34 1 -29 -4z"/>
<path d="M4990 4611 c0 -11 4 -22 9 -25 12 -8 34 21 26 34 -11 17 -35 11 -35
-9z m30 -1 c0 -5 -4 -10 -10 -10 -5 0 -10 5 -10 10 0 6 5 10 10 10 6 0 10 -4
10 -10z"/>
<path d="M4925 4600 c-8 -14 3 -30 21 -30 8 0 14 9 14 20 0 21 -24 28 -35 10z
m25 -10 c0 -5 -4 -10 -10 -10 -5 0 -10 5 -10 10 0 6 5 10 10 10 6 0 10 -4 10
-10z"/>
<path d="M5210 4519 c0 -5 5 -7 10 -4 6 3 10 8 10 11 0 2 -4 4 -10 4 -5 0 -10
-5 -10 -11z"/>
<path d="M5140 4450 c-9 -6 -10 -10 -3 -10 6 0 15 5 18 10 8 12 4 12 -15 0z"/>
<path d="M5140 4341 c-5 -11 -10 -30 -9 -43 1 -18 3 -17 8 8 4 17 11 36 15 42
4 7 5 12 2 12 -3 0 -10 -9 -16 -19z"/>
<path d="M5200 4303 c-51 -9 -40 -21 19 -19 33 0 61 4 61 9 0 4 -6 7 -14 7 -8
0 -20 2 -28 4 -7 2 -24 1 -38 -1z"/>
<path d="M5208 4253 c12 -2 30 -2 40 0 9 3 -1 5 -23 4 -22 0 -30 -2 -17 -4z"/>
<path d="M4943 4499 c-30 -9 -31 -11 -26 -49 3 -22 0 -59 -6 -83 -11 -36 -10
-49 4 -85 32 -78 127 -136 188 -113 35 14 34 28 -5 69 -28 28 -33 40 -32 80 1
38 -1 42 -8 22 -13 -35 -1 -70 35 -108 31 -32 31 -34 13 -48 -26 -18 -42 -17
-93 5 -52 24 -97 88 -94 134 1 18 3 60 4 94 2 59 4 63 31 73 16 5 30 10 31 10
1 0 7 -17 13 -38 11 -36 72 -108 72 -84 0 6 -11 19 -25 28 -16 11 -30 33 -37
60 -13 46 -15 47 -65 33z"/>
<path d="M6361 4224 c0 -11 3 -14 6 -6 3 7 2 16 -1 19 -3 4 -6 -2 -5 -13z"/>
<path d="M6383 4185 c0 -22 2 -30 4 -17 2 12 2 30 0 40 -3 9 -5 -1 -4 -23z"/>
<path d="M6351 4174 c0 -11 3 -14 6 -6 3 7 2 16 -1 19 -3 4 -6 -2 -5 -13z"/>
<path d="M6372 4115 c0 -16 2 -22 5 -12 2 9 2 23 0 30 -3 6 -5 -1 -5 -18z"/>
<path d="M6361 4064 c0 -11 3 -14 6 -6 3 7 2 16 -1 19 -3 4 -6 -2 -5 -13z"/>
<path d="M6317 3965 c-11 -48 -16 -114 -15 -178 l1 -102 7 125 c4 69 13 147
20 173 7 26 10 50 8 52 -3 3 -12 -29 -21 -70z"/>
<path d="M6352 3900 c0 -14 2 -19 5 -12 2 6 2 18 0 25 -3 6 -5 1 -5 -13z"/>
<path d="M6352 3770 c0 -14 2 -19 5 -12 2 6 2 18 0 25 -3 6 -5 1 -5 -13z"/>
<path d="M6335 3685 c-3 -31 -5 -59 -2 -61 3 -3 8 20 12 51 3 31 5 59 2 61 -3
3 -8 -20 -12 -51z"/>
<path d="M6291 3654 c0 -11 3 -14 6 -6 3 7 2 16 -1 19 -3 4 -6 -2 -5 -13z"/>
<path d="M6252 3640 c0 -14 2 -19 5 -12 2 6 2 18 0 25 -3 6 -5 1 -5 -13z"/>
<path d="M4949 4066 c17 -20 131 -89 138 -82 3 2 -10 12 -29 22 -18 9 -53 31
-78 47 -25 17 -39 23 -31 13z"/>
<path d="M5091 4076 c12 -20 23 -36 25 -36 7 0 -25 58 -36 65 -5 3 -1 -10 11
-29z"/>
<path d="M5190 4080 c-6 -11 -8 -20 -6 -20 3 0 10 9 16 20 6 11 8 20 6 20 -3
0 -10 -9 -16 -20z"/>
<path d="M4893 3874 c-4 -11 1 -22 12 -31 16 -11 21 -11 33 1 8 8 12 22 9 30
-8 21 -46 21 -54 0z m45 -11 c2 -8 -5 -13 -17 -13 -12 0 -21 6 -21 16 0 18 31
15 38 -3z"/>
<path d="M5434 3875 c-10 -24 12 -42 34 -29 24 16 21 38 -6 42 -13 2 -25 -3
-28 -13z m36 -10 c0 -8 -7 -15 -15 -15 -8 0 -15 7 -15 15 0 8 7 15 15 15 8 0
15 -7 15 -15z"/>
<path d="M4850 3958 c0 -4 9 -8 20 -8 11 0 20 4 20 8 0 4 -9 8 -20 8 -11 0
-20 -4 -20 -8z"/>
<path d="M5625 3399 c-22 -10 -34 -19 -27 -19 15 0 72 28 72 35 0 6 3 7 -45
-16z"/>
<path d="M5320 3520 c0 -5 5 -10 10 -10 6 0 10 5 10 10 0 6 -4 10 -10 10 -5 0
-10 -4 -10 -10z"/>
<path d="M5135 3510 c3 -5 10 -10 16 -10 5 0 9 5 9 10 0 6 -7 10 -16 10 -8 0
-12 -4 -9 -10z"/>
<path d="M4431 3265 c0 -11 7 -36 15 -55 l14 -35 -6 40 c-7 46 -24 83 -23 50z"/>
<path d="M4301 3205 c0 -16 6 -52 13 -80 18 -64 19 -28 1 50 -9 40 -14 50 -14
30z"/>
<path d="M5320 3390 c0 -5 4 -10 9 -10 6 0 13 5 16 10 3 6 -1 10 -9 10 -9 0
-16 -4 -16 -10z"/>
<path d="M5698 3273 c6 -2 18 -2 25 0 6 3 1 5 -13 5 -14 0 -19 -2 -12 -5z"/>
<path d="M5155 3130 c-3 -5 1 -10 9 -10 9 0 16 5 16 10 0 6 -4 10 -9 10 -6 0
-13 -4 -16 -10z"/>
<path d="M5334 3011 c4 -5 0 -12 -6 -14 -8 -3 -6 -6 5 -6 9 -1 17 6 17 14 0 8
-5 15 -11 15 -5 0 -8 -4 -5 -9z"/>
<path d="M5155 3000 c-3 -5 -2 -10 4 -10 5 0 13 5 16 10 3 6 2 10 -4 10 -5 0
-13 -4 -16 -10z"/>
<path d="M5450 2903 c-30 -20 -80 -47 -110 -60 -54 -22 -48 -33 6 -12 28 10
174 99 174 106 0 9 -21 -1 -70 -34z"/>
<path d="M6192 2900 c0 -14 2 -19 5 -12 2 6 2 18 0 25 -3 6 -5 1 -5 -13z"/>
<path d="M6184 2770 c0 -52 1 -74 3 -47 2 26 2 68 0 95 -2 26 -3 4 -3 -48z"/>
<path d="M6163 2590 c0 -25 2 -35 4 -22 2 12 2 32 0 45 -2 12 -4 2 -4 -23z"/>
<path d="M6153 2475 c0 -27 2 -38 4 -22 2 15 2 37 0 50 -2 12 -4 0 -4 -28z"/>
<path d="M6112 2270 c0 -19 2 -27 5 -17 2 9 2 25 0 35 -3 9 -5 1 -5 -18z"/>
<path d="M6095 2155 c-4 -42 -5 -78 -3 -81 3 -2 8 30 12 72 4 42 5 78 2 81 -2
2 -7 -30 -11 -72z"/>
<path d="M6081 2034 c0 -11 3 -14 6 -6 3 7 2 16 -1 19 -3 4 -6 -2 -5 -13z"/>
<path d="M6081 1934 c0 -11 3 -14 6 -6 3 7 2 16 -1 19 -3 4 -6 -2 -5 -13z"/>
<path d="M6072 1865 c0 -16 2 -22 5 -12 2 9 2 23 0 30 -3 6 -5 -1 -5 -18z"/>
<path d="M6042 1645 c0 -16 2 -22 5 -12 2 9 2 23 0 30 -3 6 -5 -1 -5 -18z"/>
<path d="M6022 1530 c-7 -47 -12 -96 -11 -110 1 -14 7 18 15 70 8 52 13 102
11 110 -1 8 -8 -23 -15 -70z"/>
<path d="M6002 1370 c0 -14 2 -19 5 -12 2 6 2 18 0 25 -3 6 -5 1 -5 -13z"/>
<path d="M5992 1315 c0 -16 2 -22 5 -12 2 9 2 23 0 30 -3 6 -5 -1 -5 -18z"/>
<path d="M5971 1154 c0 -11 3 -14 6 -6 3 7 2 16 -1 19 -3 4 -6 -2 -5 -13z"/>
<path d="M5957 1065 c-4 -38 -6 -97 -6 -130 1 -44 4 -31 11 50 9 125 6 186 -5
80z"/>
<path d="M5941 844 c0 -11 3 -14 6 -6 3 7 2 16 -1 19 -3 4 -6 -2 -5 -13z"/>
<path d="M5540 2795 c0 -8 4 -15 8 -15 5 0 9 7 9 15 0 8 -4 15 -9 15 -4 0 -8
-7 -8 -15z"/>
<path d="M5402 2731 c-8 -5 -12 -21 -10 -37 3 -25 7 -29 33 -29 26 0 30 4 33
29 3 27 -10 46 -33 46 -5 0 -16 -4 -23 -9z m43 -31 c0 -29 -32 -41 -41 -16 -9
24 4 48 23 44 12 -2 18 -12 18 -28z"/>
<path d="M5410 2695 c0 -8 7 -15 15 -15 8 0 15 7 15 15 0 8 -7 15 -15 15 -8 0
-15 -7 -15 -15z"/>
<path d="M5029 2711 c-21 -16 -22 -22 -11 -45 15 -33 56 -36 72 -5 9 16 8 26
-5 45 -19 29 -26 30 -56 5z m56 -19 c9 -23 -21 -49 -42 -36 -24 15 -26 29 -8
47 18 18 40 13 50 -11z"/>
<path d="M5047 2693 c-12 -11 -8 -23 8 -23 8 0 15 7 15 15 0 16 -12 20 -23 8z"/>
<path d="M4880 2765 c0 -8 5 -15 10 -15 6 0 10 7 10 15 0 8 -4 15 -10 15 -5 0
-10 -7 -10 -15z"/>
<path d="M5238 2683 c-23 -6 -34 -49 -18 -68 26 -32 86 -8 78 31 -4 21 -38 42
-60 37z m46 -30 c9 -22 -13 -45 -38 -41 -26 4 -33 38 -11 54 20 15 41 9 49
-13z"/>
<path d="M5244 2646 c-8 -22 3 -33 18 -18 9 9 9 15 0 24 -9 9 -13 7 -18 -6z"/>
<path d="M5092 1975 c0 -16 2 -22 5 -12 2 9 2 23 0 30 -3 6 -5 -1 -5 -18z"/>
<path d="M4326 2535 c-9 -26 -7 -32 5 -12 6 10 9 21 6 23 -2 3 -7 -2 -11 -11z"/>
<path d="M4275 2529 c-4 -6 -5 -12 -2 -15 2 -3 7 2 10 11 7 17 1 20 -8 4z"/>
<path d="M4265 1550 c-3 -5 -14 -10 -24 -10 -14 0 -20 -10 -24 -42 -3 -24 -2
-44 4 -46 5 -2 15 -10 22 -17 18 -18 151 -37 203 -29 37 5 43 10 48 36 10 52
7 68 -13 68 -11 0 -21 5 -23 11 -2 6 -42 17 -88 25 -103 16 -97 16 -105 4z
m111 -20 l71 -11 -8 -51 c-5 -28 -10 -52 -12 -54 -2 -3 -35 0 -73 6 -38 5 -75
10 -81 10 -9 0 -11 14 -7 48 8 64 11 72 26 67 7 -2 45 -9 84 -15z m-116 -9 c0
-27 -14 -70 -21 -65 -16 9 -11 74 6 74 8 0 15 -4 15 -9z m222 -51 c-6 -61 -32
-64 -32 -4 0 29 3 35 18 32 11 -3 16 -12 14 -28z"/>
<path d="M5483 1787 c-35 -39 -37 -53 -2 -20 18 18 31 35 28 38 -3 3 -15 -5
-26 -18z"/>
<path d="M5450 1651 c4 -16 13 -38 20 -48 10 -16 11 -15 5 7 -4 14 -9 35 -12
48 -3 12 -9 22 -13 22 -5 0 -5 -13 0 -29z"/>
<path d="M5415 1334 c-4 -22 -11 -56 -15 -76 -4 -21 -4 -36 0 -33 9 6 33 135
26 142 -3 3 -8 -12 -11 -33z"/>
<path d="M4910 1751 c0 -6 4 -13 10 -16 6 -3 7 1 4 9 -7 18 -14 21 -14 7z"/>
<path d="M4751 1678 c1 -74 17 -92 18 -20 1 35 -3 62 -9 62 -5 0 -10 -19 -9
-42z"/>
<path d="M4886 1615 c-38 -70 -42 -80 -26 -70 18 11 78 135 65 135 -2 0 -19
-29 -39 -65z"/>
<path d="M4826 1313 c-9 -48 -15 -108 -15 -133 2 -32 3 -36 6 -15 2 17 11 74
19 128 20 123 12 139 -10 20z"/>
<path d="M4144 1735 c-9 -23 10 -40 25 -22 9 11 8 17 -4 27 -12 10 -16 9 -21
-5z"/>
<path d="M4084 1305 c-9 -23 10 -40 25 -22 9 11 8 17 -4 27 -12 10 -16 9 -21
-5z m21 -5 c3 -5 1 -10 -4 -10 -6 0 -11 5 -11 10 0 6 2 10 4 10 3 0 8 -4 11
-10z"/>
<path d="M4700 615 c-25 -30 14 -75 41 -48 6 6 1 9 -13 9 -28 -1 -33 37 -5 42
9 2 17 -1 17 -7 0 -6 -5 -10 -11 -8 -6 1 -14 -4 -16 -10 -3 -7 0 -13 5 -13 15
0 34 28 27 40 -9 14 -31 12 -45 -5z"/>
<path d="M5385 620 c-3 -5 -1 -10 4 -10 6 0 11 5 11 10 0 6 -2 10 -4 10 -3 0
-8 -4 -11 -10z"/>
<path d="M5800 590 c20 -13 43 -13 35 0 -3 6 -16 10 -28 10 -18 0 -19 -2 -7
-10z"/>
</g>
</svg>
