<?xml version="1.0" standalone="no"?>
<!DOCTYPE svg PUBLIC "-//W3C//DTD SVG 20010904//EN"
 "http://www.w3.org/TR/2001/REC-SVG-20010904/DTD/svg10.dtd">
<svg version="1.0" xmlns="http://www.w3.org/2000/svg"
 width="1024.000000pt" height="559.000000pt" viewBox="0 0 1024.000000 559.000000"
 preserveAspectRatio="xMidYMid meet">
<metadata>
Created by potrace 1.16, written by Peter Selinger 2001-2019
</metadata>
<g transform="translate(0.000000,559.000000) scale(0.100000,-0.100000)"
fill="#000000" stroke="none">
<path d="M5082 5089 c-13 -5 -35 -6 -48 -3 -19 5 -32 -1 -58 -29 -19 -20 -45
-39 -59 -43 -30 -7 -51 -29 -43 -42 3 -6 -2 -16 -11 -23 -9 -8 -27 -36 -40
-64 -21 -45 -22 -59 -17 -135 7 -101 33 -194 86 -308 42 -92 44 -108 24 -155
-11 -26 -27 -38 -87 -64 -267 -115 -286 -127 -329 -193 -16 -25 -46 -94 -68
-155 -21 -60 -60 -152 -86 -202 -25 -51 -46 -101 -46 -111 0 -11 9 -31 20 -45
18 -23 19 -31 8 -105 -8 -61 -8 -95 1 -138 20 -101 28 -107 167 -119 l72 -7
-9 -33 c-7 -23 -5 -45 4 -72 8 -22 10 -48 6 -59 -15 -38 -10 -101 11 -127 27
-33 25 -47 -10 -117 -37 -73 -40 -145 -10 -215 27 -63 26 -149 -2 -212 -27
-60 -29 -143 -5 -202 15 -38 17 -61 11 -163 -6 -112 -6 -121 15 -148 30 -41
27 -107 -9 -210 -24 -69 -30 -101 -30 -172 0 -47 5 -109 12 -137 10 -43 9 -56
-6 -89 -15 -32 -17 -54 -11 -116 4 -43 14 -83 21 -91 9 -9 13 -31 11 -62 -2
-46 -1 -49 35 -66 l36 -18 -4 -64 c-3 -50 -14 -87 -48 -159 -54 -116 -64 -167
-41 -202 48 -74 262 -84 315 -16 23 29 25 71 8 186 -7 49 -8 112 -4 158 l8 78
54 0 c36 0 75 -9 114 -25 74 -31 156 -33 218 -5 23 10 42 26 42 35 0 8 9 15
19 15 16 0 18 -5 11 -34 -4 -18 -10 -39 -14 -44 -4 -6 -9 -50 -12 -96 -4 -80
-3 -86 18 -100 13 -8 52 -20 88 -27 36 -6 99 -23 140 -36 172 -55 243 -64 311
-37 96 39 61 132 -74 197 -81 38 -184 119 -206 160 -13 24 -12 29 2 45 10 10
17 23 17 29 0 6 20 18 45 27 59 23 65 47 49 201 -6 66 -15 201 -19 300 l-7
180 27 25 c38 35 65 92 65 137 0 21 -6 99 -14 173 -8 74 -22 232 -31 350 -15
191 -26 306 -67 663 -6 53 -9 100 -6 103 3 3 50 9 104 15 53 5 100 11 103 15
3 3 20 28 36 57 29 48 33 51 73 52 36 1 48 7 82 43 22 23 40 47 40 54 0 7 7
22 15 32 8 11 15 31 15 44 0 13 5 33 11 44 8 16 7 27 -6 52 l-18 33 51 84 c76
127 79 135 56 160 -19 21 -24 21 -209 15 -104 -4 -202 -9 -216 -12 -25 -5 -28
0 -69 98 -60 146 -87 196 -127 237 -19 20 -38 41 -41 47 -7 12 -46 34 -129 73
-24 11 -43 23 -43 27 0 3 16 33 36 65 37 60 64 140 64 192 0 15 7 44 15 64 8
19 15 41 15 49 0 7 14 37 32 66 23 39 31 65 31 99 -1 43 -31 120 -53 134 -5 3
-10 15 -10 25 0 45 -108 128 -190 145 -19 4 -44 14 -55 21 -22 16 -137 18
-173 3z m114 -18 c-3 -5 20 -12 52 -16 31 -4 76 -15 99 -25 55 -24 115 -70
110 -84 -2 -6 9 -27 25 -48 15 -20 35 -52 43 -72 16 -38 21 -91 6 -68 -5 8 -8
-5 -9 -34 0 -25 -5 -51 -11 -57 -8 -8 -11 8 -11 59 l-1 69 -14 -39 c-18 -51
-35 -68 -35 -35 0 33 -11 69 -20 69 -4 0 -11 -11 -14 -25 -6 -25 -39 -65 -53
-65 -5 0 -7 26 -6 57 l3 58 -19 -42 c-16 -34 -45 -63 -63 -63 -2 0 -2 15 0 34
6 53 -3 65 -21 29 -20 -37 -66 -70 -52 -37 4 11 9 28 10 39 1 11 0 13 -2 4 -2
-9 -18 -29 -35 -45 l-31 -29 6 38 c7 46 -4 48 -25 3 -9 -19 -37 -51 -62 -72
-27 -22 -46 -47 -46 -59 0 -11 -5 -27 -10 -35 -7 -11 -10 -7 -11 20 l-1 35 -7
-30 -7 -30 -7 33 c-7 36 -41 71 -69 72 -10 0 -27 -9 -39 -21 -11 -11 -24 -18
-27 -14 -4 4 -7 41 -7 83 0 42 -4 80 -9 83 -15 11 30 93 72 132 26 22 36 37
26 37 -8 0 -12 5 -9 10 3 6 16 10 29 10 15 0 27 9 34 25 13 28 35 35 25 8 -5
-14 0 -13 30 6 21 13 50 27 65 31 37 11 104 12 98 1z m65 -350 c-15 -27 -14
-31 8 -31 11 0 33 12 50 26 25 21 30 22 24 7 -3 -10 -10 -23 -14 -29 -5 -6 -6
-13 -3 -17 11 -11 64 15 85 41 l21 27 -2 -30 c-3 -47 -2 -48 32 -24 l31 23 -6
-40 c-4 -21 -7 -47 -7 -56 0 -14 -8 -18 -33 -18 -18 0 -42 -7 -53 -16 -18 -14
-16 -15 29 -10 48 6 54 2 38 -23 -13 -20 -91 -21 -91 -1 0 13 -1 13 -10 0 -12
-19 -13 -76 -1 -117 12 -43 -4 -56 -58 -47 -33 5 -41 10 -36 23 5 12 3 13 -6
4 -18 -18 -2 -31 47 -39 67 -10 80 6 63 81 -11 48 -10 58 2 66 9 6 15 4 17 -6
4 -17 28 -20 37 -5 3 6 11 10 17 10 18 0 -2 -112 -33 -175 -15 -33 -46 -82
-67 -110 -34 -45 -42 -50 -80 -53 -29 -2 -58 4 -89 19 -60 29 -156 124 -173
172 -15 39 -36 53 -24 15 14 -48 38 -83 88 -131 50 -48 131 -97 161 -97 10 0
15 -10 16 -32 l1 -33 9 33 c11 39 45 44 58 10 12 -30 -7 -50 -72 -78 -68 -30
-147 -24 -237 17 -85 39 -150 80 -150 96 0 6 14 20 31 29 38 22 66 85 74 164
4 32 8 70 11 82 3 15 1 21 -6 17 -54 -34 -124 135 -75 184 14 14 18 14 42 1
15 -8 30 -28 34 -44 9 -33 37 -66 56 -66 9 0 13 13 13 40 0 24 6 44 16 52 9 7
30 26 48 42 24 23 39 29 66 28 37 -3 99 28 101 50 0 10 2 10 5 1 3 -7 1 -21
-5 -32z m-321 -303 c0 -23 -16 -16 -23 11 -3 14 -1 18 9 14 8 -3 14 -14 14
-25z m-102 -228 c-20 -32 -1 -50 117 -110 106 -53 112 -55 190 -55 70 0 86 4
129 29 l49 28 -7 -83 c-4 -46 -16 -121 -27 -167 -22 -96 -76 -242 -90 -242 -5
0 -40 30 -78 66 -70 66 -102 78 -109 41 -2 -11 17 -36 53 -69 l56 -51 -28 -12
c-15 -7 -37 -22 -48 -35 -61 -68 -166 -105 -280 -98 l-50 3 3 40 c2 22 12 77
23 123 11 45 19 88 16 95 -2 7 -7 -8 -12 -33 -14 -82 -22 -73 -28 32 -12 185
-22 162 -18 -43 2 -132 0 -204 -7 -211 -8 -8 -21 -2 -46 19 -19 17 -52 37 -73
44 -21 6 -65 25 -98 41 -37 17 -77 28 -102 28 -24 0 -43 2 -43 5 0 3 20 45 44
94 25 48 61 135 81 192 63 183 86 208 245 278 52 23 106 48 120 56 32 18 32
18 18 -5z m551 -44 c13 -27 30 -74 37 -105 12 -54 12 -55 13 -16 0 22 -8 65
-19 95 -10 30 -17 57 -15 59 11 10 65 -61 77 -100 36 -121 -6 -733 -50 -728
-4 0 -19 15 -35 34 -24 29 -26 37 -17 61 18 48 50 193 49 222 -2 27 -2 27 -6
2 -8 -51 -36 -166 -45 -183 -8 -16 -15 -13 -61 28 -29 25 -62 45 -74 45 -29 0
-29 5 1 66 30 63 73 213 86 301 11 81 12 200 1 228 -9 22 5 48 23 42 6 -1 22
-25 35 -51z m149 -59 c21 -43 42 -216 42 -354 l0 -132 -47 -78 c-25 -43 -49
-81 -53 -86 -3 -4 0 31 6 79 35 239 41 457 15 540 -5 16 -12 42 -16 58 -6 29
-6 29 17 14 13 -8 29 -27 36 -41z m72 -85 c11 -20 42 -87 69 -148 l48 -112
-38 -6 c-31 -5 -42 -14 -63 -49 l-26 -42 0 75 c0 82 -17 284 -26 314 -9 29 12
10 36 -32z m575 -272 c3 -5 -2 -10 -12 -10 -10 0 -121 -7 -248 -15 -146 -9
-233 -11 -239 -5 -13 13 -23 12 159 25 210 16 332 17 340 5z m5 -26 c0 -13
-143 -244 -151 -244 -16 0 -10 14 41 103 28 48 50 92 50 97 0 12 3 12 -229 -4
-175 -12 -184 -13 -201 -37 -16 -21 -246 -422 -280 -487 -6 -13 -9 -26 -6 -30
6 -5 215 9 361 24 48 5 52 7 74 49 13 25 30 45 37 45 18 0 18 0 -11 -53 -40
-71 -2 -61 -393 -98 -68 -6 -126 -9 -128 -6 -6 5 31 76 101 197 17 30 76 133
130 227 53 95 102 177 109 182 6 5 117 15 246 23 129 8 238 16 243 17 4 0 7
-2 7 -5z m-1075 -69 c39 -35 64 -64 56 -65 -13 0 -132 104 -139 122 -9 21 19
3 83 -57z m454 -146 c-62 -107 -140 -246 -175 -309 -45 -81 -65 -110 -69 -98
-5 11 47 112 150 295 190 337 185 327 196 316 6 -6 -35 -86 -102 -204z m551
167 c0 -2 -25 -46 -55 -97 -49 -83 -59 -95 -88 -99 -20 -3 -35 -13 -42 -27 -5
-12 -22 -24 -37 -27 -16 -3 -31 -14 -34 -23 -3 -10 -10 -27 -15 -38 -11 -23
-7 -73 8 -100 8 -14 5 -28 -15 -61 -25 -41 -28 -42 -86 -48 -256 -23 -315 -28
-323 -25 -7 3 262 495 282 517 2 2 86 9 187 17 101 7 191 13 201 14 9 0 17 -1
17 -3z m-1766 -121 c-4 -8 -10 -12 -15 -9 -14 8 -10 24 6 24 9 0 12 -6 9 -15z
m96 -5 c21 -11 65 -29 97 -41 92 -34 96 -45 20 -51 -39 -3 -74 -13 -89 -23
-18 -14 -19 -16 -3 -9 11 4 115 8 230 9 239 0 239 0 338 85 53 45 63 50 107
50 77 0 107 -10 155 -52 68 -60 58 -74 -22 -33 -65 32 -147 57 -130 39 5 -5
29 -16 55 -25 38 -13 48 -21 56 -47 10 -37 1 -53 -17 -29 -12 15 -97 50 -105
42 -2 -2 18 -14 44 -27 50 -24 59 -35 46 -56 -7 -10 -16 -9 -45 3 -53 22 -69
18 -22 -7 51 -26 48 -23 35 -47 -6 -12 -21 -21 -33 -21 -16 0 -19 3 -8 9 11 7
9 10 -9 16 -15 5 -37 -1 -69 -19 -36 -19 -61 -25 -102 -24 -39 1 -91 -11 -189
-43 -131 -43 -139 -44 -262 -44 -119 0 -129 2 -150 23 -19 18 -23 36 -26 98
-4 67 12 215 25 237 7 12 32 8 73 -13z m1648 -94 c7 -32 -13 -41 -80 -36 -47
4 -63 9 -63 20 0 10 18 18 60 26 71 14 79 13 83 -10z m-762 -24 c45 -33 71
-62 56 -62 -8 0 -73 49 -106 81 -22 21 14 7 50 -19z m-13 -43 c13 -20 -64
-176 -127 -257 -127 -166 -339 -292 -491 -292 -78 0 -133 57 -121 124 8 41 16
45 34 15 7 -12 16 -19 18 -16 3 3 -8 29 -25 59 -47 84 -39 146 21 161 29 8 32
5 42 -35 7 -31 -4 -36 -28 -12 -15 14 -16 14 -16 -1 0 -22 48 -38 97 -30 59 9
168 66 230 120 29 26 61 45 75 45 12 0 36 9 52 19 23 15 35 17 55 10 37 -15
68 -3 87 33 19 37 63 80 78 75 5 -2 14 -10 19 -18z m588 4 c1 -16 2 -16 6 -1
4 14 15 16 81 11 84 -6 102 -14 83 -37 -20 -24 -62 -27 -126 -11 -65 17 -81
27 -71 44 11 17 26 13 27 -6z m-518 -40 c9 -3 17 -10 17 -15 0 -5 -28 -58 -61
-119 -60 -106 -61 -109 -45 -134 10 -16 26 -25 41 -25 31 0 31 -14 5 -99 -11
-35 -18 -66 -16 -69 3 -2 17 35 32 82 25 82 28 86 55 86 16 0 29 -4 29 -10 0
-30 -75 -312 -109 -410 -69 -199 -135 -330 -237 -465 -190 -253 -463 -425
-512 -322 -15 32 -7 190 9 166 17 -27 10 17 -16 95 -28 85 -31 146 -10 191
l13 30 2 -35 c1 -19 5 -44 10 -55 5 -13 9 23 9 99 1 109 2 118 19 110 9 -4 35
-9 57 -10 l40 -3 -42 10 c-50 12 -85 51 -109 123 -19 54 -15 102 11 161 l18
40 7 -42 c11 -70 20 -61 20 18 l0 75 63 -4 c119 -8 302 72 416 182 l64 61 -31
-56 c-84 -153 -222 -312 -387 -445 -11 -9 -4 -7 15 5 139 81 336 312 416 485
13 29 46 89 73 134 27 45 57 104 67 132 14 38 22 49 34 44 8 -3 23 -9 33 -11z
m492 -23 c-5 -8 -11 -8 -17 -2 -6 6 -7 16 -3 22 5 8 11 8 17 2 6 -6 7 -16 3
-22z m123 5 c52 0 63 -10 40 -33 -15 -15 -102 -16 -131 -1 -29 16 -28 14 -21
33 5 14 13 16 33 9 14 -4 50 -8 79 -8z m-128 -42 c0 -8 10 -10 92 -15 51 -3
55 -7 36 -26 -18 -18 -56 -15 -105 9 -40 19 -57 39 -33 39 6 0 10 -3 10 -7z
m-945 -59 c-47 -40 -171 -104 -203 -104 -23 0 -58 43 -48 58 3 5 18 12 33 16
16 3 78 21 138 40 61 19 112 32 115 29 3 -3 -13 -20 -35 -39z m681 -276 c-19
-343 -90 -774 -161 -978 -169 -487 -573 -959 -824 -964 -53 -1 -56 0 -59 24
-1 14 -7 42 -13 63 -11 40 -4 97 11 97 5 0 10 -12 12 -27 3 -26 7 -28 43 -27
99 1 224 109 353 303 130 194 235 418 325 696 66 199 68 229 4 45 -142 -408
-264 -649 -436 -863 -64 -79 -118 -123 -194 -157 -63 -29 -87 -27 -87 10 0 16
-7 78 -16 137 -14 90 -14 121 -5 186 7 44 18 91 24 105 l12 26 6 -30 c3 -17 9
15 14 84 l8 112 26 0 c31 0 137 49 189 87 129 96 238 213 328 354 81 126 75
118 67 84 -25 -124 -114 -364 -204 -553 -32 -67 -54 -120 -50 -118 4 3 33 57
64 119 90 184 147 338 192 517 14 58 48 161 75 230 58 149 93 265 125 419 13
63 27 117 32 122 7 7 36 11 122 17 l24 2 -7 -122z m53 -418 c11 -118 25 -276
31 -350 5 -74 17 -199 26 -277 13 -112 14 -148 5 -170 -14 -33 -58 -89 -65
-83 -2 3 -9 174 -15 380 -7 206 -16 416 -21 465 -18 171 -8 431 12 300 4 -27
16 -147 27 -265z m-35 -630 c14 -489 24 -701 42 -855 6 -59 -6 -81 -53 -94
l-31 -9 -6 91 c-3 51 -8 180 -12 287 -3 107 -8 197 -10 199 -8 9 -3 -309 7
-442 6 -76 8 -149 5 -162 -4 -16 -20 -29 -52 -41 -41 -16 -56 -16 -126 -6 -83
12 -118 5 -118 -22 0 -35 -151 -48 -225 -20 -69 27 -107 31 -203 21 -88 -9
-96 -9 -177 18 l-85 29 0 41 0 42 55 6 c66 7 151 44 222 97 l52 40 -4 -88 -4
-87 11 91 10 91 60 59 59 59 -5 -135 c-3 -95 -2 -116 4 -70 4 36 8 99 9 140
l1 75 68 83 67 84 6 -114 5 -113 2 124 c2 120 3 126 33 173 17 26 33 48 35 48
2 0 4 -133 3 -296 0 -163 2 -299 5 -302 3 -3 6 134 6 305 l0 311 64 123 c35
68 79 164 97 214 l34 89 5 -284 5 -285 3 307 c1 237 5 320 17 365 23 86 52
233 72 363 l17 115 8 -60 c4 -33 14 -305 22 -605z m-135 -1072 c2 -6 17 -25
33 -44 l30 -34 -26 -21 c-28 -22 -66 -88 -66 -114 0 -39 -37 -5 -77 70 -38 73
-54 140 -38 157 9 9 140 -4 144 -14z m59 -5 c6 -16 40 -50 73 -78 105 -86 124
-104 110 -105 -39 -1 -240 177 -226 200 11 18 30 10 43 -17z m-839 1 c2 -2 2
-7 -2 -10 -9 -9 -57 5 -57 16 0 9 47 4 59 -6z m46 -111 c-8 -139 -11 -155 -33
-151 -19 4 -19 9 -7 161 7 86 10 97 27 97 18 0 19 -6 13 -107z m65 97 c-20
-13 -50 -13 -50 0 0 6 15 10 33 10 24 0 28 -3 17 -10z m-117 -30 c13 -12 -9
-47 -33 -53 -18 -4 -20 0 -20 35 0 36 2 39 23 33 12 -4 26 -11 30 -15z m127
-14 c0 -13 -3 -31 -6 -40 -9 -23 -54 1 -54 30 0 21 4 24 53 33 4 0 7 -10 7
-23z m541 -88 c17 -33 28 -63 25 -66 -4 -3 -22 2 -41 11 -34 16 -35 19 -35 72
0 68 10 65 51 -17z m219 47 c0 -3 -16 -19 -35 -36 -21 -19 -37 -43 -41 -65 -3
-19 -11 -33 -18 -31 -42 14 20 137 69 137 14 0 25 -2 25 -5z m-890 -18 c0 -8
-16 -18 -35 -24 -42 -13 -46 0 -7 21 34 19 42 19 42 3z m101 -7 c10 -6 19 -17
19 -24 0 -11 -5 -12 -25 -3 -14 7 -25 18 -25 25 0 15 6 15 31 2z m825 -14 c19
-14 19 -15 -3 -38 -13 -13 -25 -38 -29 -55 -6 -30 -7 -30 -40 -20 -46 14 -43
48 9 105 24 26 36 27 63 8z m-932 -28 c-3 -13 -7 -23 -8 -24 -14 -7 -81 -22
-84 -19 -9 8 23 38 53 51 42 18 47 17 39 -8z m119 -16 c9 -8 17 -21 17 -28 0
-11 -6 -10 -32 1 -18 7 -33 18 -32 24 3 28 5 32 17 25 6 -4 20 -14 30 -22z
m877 -1 c0 -4 -11 -18 -25 -31 -14 -13 -25 -34 -25 -46 0 -17 -4 -21 -20 -17
-11 3 -20 12 -20 20 0 22 28 71 47 81 17 10 43 6 43 -7z m96 -6 c4 -8 10 -15
16 -15 5 0 6 5 2 11 -4 8 0 7 15 -1 12 -6 19 -15 16 -21 -4 -5 -2 -9 3 -9 5 0
10 -11 10 -25 0 -28 -13 -33 -22 -10 -3 8 -12 15 -21 15 -9 0 -30 7 -46 16
-17 8 -35 14 -41 12 -7 -3 8 -14 31 -25 26 -13 37 -23 29 -27 -7 -3 -1 -4 15
-1 19 4 27 1 27 -9 0 -8 -5 -18 -11 -21 -17 -11 -147 6 -152 20 -7 16 14 56
33 65 8 4 29 14 45 22 39 21 44 21 51 3z m-376 -42 c36 -7 110 -29 165 -48 55
-19 130 -37 166 -41 60 -6 69 -4 108 20 38 24 41 25 31 7 -29 -55 -134 -59
-280 -12 -53 17 -131 38 -175 47 -87 18 -115 29 -115 45 0 7 7 8 18 4 9 -5 46
-14 82 -22z m-720 2 c0 -10 -10 -15 -28 -15 -15 0 -42 -4 -60 -9 -41 -12 -41
1 1 22 42 21 87 22 87 2z m124 -6 c38 -30 32 -40 -14 -21 -22 9 -40 23 -40 30
0 18 24 15 54 -9z m-121 -34 c22 -11 33 -12 53 -3 19 9 32 8 59 -5 39 -19 41
-27 17 -77 -14 -29 -23 -35 -55 -38 -32 -3 -37 0 -37 17 0 24 10 27 28 9 9 -9
12 -8 12 6 0 16 2 17 18 5 15 -13 16 -12 3 4 -8 11 -21 15 -32 12 -17 -6 -18
-3 -9 19 6 17 6 26 -1 26 -5 0 -12 -6 -14 -12 -2 -7 -10 -26 -16 -43 -7 -16
-11 -36 -10 -42 2 -16 -11 -17 -26 -2 -7 7 -8 21 -2 42 5 17 7 32 5 34 -7 7
-36 -59 -30 -68 3 -5 -2 -9 -10 -9 -19 0 -32 20 -14 21 9 0 10 2 1 5 -9 4 -9
13 -2 31 5 14 8 28 5 30 -2 3 -10 -12 -17 -31 -17 -48 -28 -45 -25 6 l3 42
-14 -28 c-17 -32 -39 -22 -29 12 6 19 36 35 81 45 11 3 22 5 25 6 3 0 18 -6
33 -14z m151 -118 c-13 -34 -54 -49 -135 -49 -78 1 -159 28 -159 53 0 6 3 9 8
7 63 -33 93 -40 166 -39 74 0 83 2 100 26 21 27 30 28 20 2z"/>
<path d="M5085 5001 c22 -4 50 -13 63 -19 12 -7 22 -10 22 -8 0 13 -62 36 -92
35 -32 -1 -32 -2 7 -8z"/>
<path d="M5044 4951 c21 -23 26 -26 26 -11 0 5 -10 15 -22 21 -23 12 -23 12
-4 -10z"/>
<path d="M5398 4933 c17 -17 32 -37 32 -44 0 -7 3 -9 6 -6 10 9 -23 54 -48 68
-16 9 -13 3 10 -18z"/>
<path d="M4993 4905 c0 -27 2 -38 4 -22 2 15 2 37 0 50 -2 12 -4 0 -4 -28z"/>
<path d="M4906 4908 c-9 -12 -15 -34 -15 -48 l2 -25 4 24 c3 14 12 35 20 48
20 29 9 30 -11 1z"/>
<path d="M5350 4916 c0 -2 7 -9 15 -16 13 -11 14 -10 9 4 -5 14 -24 23 -24 12z"/>
<path d="M4922 4840 c0 -19 2 -27 5 -17 2 9 2 25 0 35 -3 9 -5 1 -5 -18z"/>
<path d="M5391 4774 c0 -11 3 -14 6 -6 3 7 2 16 -1 19 -3 4 -6 -2 -5 -13z"/>
<path d="M4862 4755 c0 -16 2 -22 5 -12 2 9 2 23 0 30 -3 6 -5 -1 -5 -18z"/>
<path d="M5046 4735 c-9 -26 -7 -32 5 -12 6 10 9 21 6 23 -2 3 -7 -2 -11 -11z"/>
<path d="M4890 4625 c-7 -9 -10 -18 -6 -22 3 -3 6 -1 6 5 0 17 30 15 36 -3 4
-8 1 -22 -6 -30 -10 -12 -10 -21 -2 -40 7 -14 16 -25 22 -25 15 0 12 20 -5 26
-8 4 -15 10 -15 15 0 5 7 9 15 9 19 0 19 30 -1 58 -18 26 -27 27 -44 7z"/>
<path d="M5150 4607 c-34 -10 -33 -11 40 -18 41 -4 81 -8 89 -10 7 -2 15 1 18
8 2 7 -16 15 -47 22 -58 13 -54 13 -100 -2z"/>
<path d="M5172 4543 c18 -3 25 -9 21 -19 -7 -18 25 -18 49 0 25 19 12 26 -46
25 -28 -1 -39 -4 -24 -6z"/>
<path d="M5210 4309 c0 -5 32 -9 72 -9 39 0 69 2 67 4 -9 9 -139 13 -139 5z"/>
<path d="M5268 4263 c12 -2 30 -2 40 0 9 3 -1 5 -23 4 -22 0 -30 -2 -17 -4z"/>
<path d="M5070 4144 c0 -6 7 -19 16 -30 14 -18 14 -18 3 6 -14 31 -19 36 -19
24z"/>
<path d="M4830 4086 c0 -12 111 -156 166 -215 31 -34 75 -75 98 -93 22 -17 -4
15 -60 73 -55 57 -113 122 -129 144 -42 57 -75 97 -75 91z"/>
<path d="M4692 3993 c12 -27 28 -70 35 -98 13 -50 13 -50 8 -8 -5 41 -48 153
-59 153 -3 0 5 -21 16 -47z"/>
<path d="M4960 4021 c31 -25 163 -81 187 -80 10 0 -4 8 -32 18 -27 10 -79 33
-115 50 -42 21 -56 25 -40 12z"/>
<path d="M5261 3945 c-18 -20 -50 -44 -70 -55 -20 -10 -31 -19 -26 -19 21 -1
89 45 113 77 32 42 25 41 -17 -3z"/>
<path d="M4812 3875 c0 -16 2 -22 5 -12 2 9 2 23 0 30 -3 6 -5 -1 -5 -18z"/>
<path d="M4591 3840 c0 -8 4 -24 9 -35 5 -13 9 -14 9 -5 0 8 -4 24 -9 35 -5
13 -9 14 -9 5z"/>
<path d="M4741 3824 c0 -11 3 -14 6 -6 3 7 2 16 -1 19 -3 4 -6 -2 -5 -13z"/>
<path d="M4825 3798 c21 -133 64 -322 72 -315 2 2 -8 51 -21 108 -13 57 -29
137 -36 177 -6 39 -14 72 -17 72 -3 0 -2 -19 2 -42z"/>
<path d="M4614 3765 c13 -43 65 -169 65 -160 1 12 -58 167 -66 175 -3 3 -3 -4
1 -15z"/>
<path d="M4950 3686 c0 -13 60 -125 70 -131 6 -4 -6 24 -27 62 -40 75 -43 79
-43 69z"/>
<path d="M4793 3625 c0 -22 2 -30 4 -17 2 12 2 30 0 40 -3 9 -5 -1 -4 -23z"/>
<path d="M5378 3930 c-4 -63 -16 -160 -28 -214 -23 -114 -20 -143 4 -36 25
109 37 217 34 295 -3 63 -4 59 -10 -45z"/>
<path d="M5076 3501 c-4 -5 3 -7 14 -4 23 6 26 13 6 13 -8 0 -17 -4 -20 -9z"/>
<path d="M5080 3440 c-9 -6 -10 -10 -3 -10 6 0 15 5 18 10 8 12 4 12 -15 0z"/>
<path d="M5117 3158 c-26 -40 -55 -84 -63 -98 l-16 -25 21 25 c45 52 120 170
108 170 -2 0 -25 -33 -50 -72z"/>
<path d="M4974 3092 c-128 -124 -200 -171 -276 -181 -45 -6 -49 -8 -27 -14 59
-15 168 43 281 151 69 66 147 153 136 152 -1 0 -53 -49 -114 -108z"/>
<path d="M4649 3019 c13 -10 35 -22 49 -26 31 -7 112 8 162 31 19 9 26 14 15
10 -11 -3 -52 -13 -91 -21 -70 -16 -73 -15 -115 5 -41 20 -43 20 -20 1z"/>
<path d="M5260 2922 c-26 -64 -103 -218 -151 -302 -152 -268 -357 -464 -466
-447 -28 5 -34 4 -24 -6 21 -21 86 -11 142 21 129 74 288 276 420 535 58 114
114 246 106 253 -2 2 -14 -22 -27 -54z"/>
<path d="M4994 2869 c-53 -57 -195 -166 -256 -198 -64 -33 -115 -40 -137 -18
-10 10 -11 9 -5 -6 26 -69 213 23 369 182 38 39 67 71 64 71 -3 0 -18 -14 -35
-31z"/>
<path d="M5141 2482 c-65 -135 -175 -298 -281 -417 -45 -50 -47 -53 -11 -20
66 62 144 161 205 263 63 105 119 212 114 218 -3 2 -14 -18 -27 -44z"/>
<path d="M4779 1993 c-13 -16 -12 -17 4 -4 9 7 17 15 17 17 0 8 -8 3 -21 -13z"/>
<path d="M4760 3166 c0 -2 8 -10 18 -17 15 -13 16 -12 3 4 -13 16 -21 21 -21
13z"/>
<path d="M5542 2755 c0 -16 2 -22 5 -12 2 9 2 23 0 30 -3 6 -5 -1 -5 -18z"/>
<path d="M5526 2659 c-4 -33 -5 -63 -3 -66 3 -2 8 23 12 57 4 34 5 63 2 66 -2
3 -7 -23 -11 -57z"/>
<path d="M5506 2530 c-12 -89 -64 -365 -81 -431 -9 -34 -14 -63 -12 -66 15
-14 114 494 105 535 -3 9 -8 -8 -12 -38z"/>
<path d="M5401 2004 c0 -11 3 -14 6 -6 3 7 2 16 -1 19 -3 4 -6 -2 -5 -13z"/>
<path d="M4819 1738 c-49 -92 -165 -204 -201 -192 -10 3 -18 1 -18 -5 0 -17
40 -13 74 9 18 11 50 41 72 67 41 49 100 143 90 143 -3 0 -11 -10 -17 -22z"/>
<path d="M5780 606 c0 -9 61 -38 67 -32 3 3 -7 10 -22 16 -15 6 -32 13 -36 16
-5 3 -9 3 -9 0z"/>
</g>
</svg>
