<?xml version="1.0" standalone="no"?>
<!DOCTYPE svg PUBLIC "-//W3C//DTD SVG 20010904//EN"
 "http://www.w3.org/TR/2001/REC-SVG-20010904/DTD/svg10.dtd">
<svg version="1.0" xmlns="http://www.w3.org/2000/svg"
 width="1024.000000pt" height="559.000000pt" viewBox="0 0 1024.000000 559.000000"
 preserveAspectRatio="xMidYMid meet">
<metadata>
Created by potrace 1.16, written by Peter Selinger 2001-2019
</metadata>
<g transform="translate(0.000000,559.000000) scale(0.100000,-0.100000)"
fill="#000000" stroke="none">
<path d="M5227 5177 c-12 -13 -37 -33 -55 -46 -31 -22 -34 -22 -51 -7 -37 33
-114 31 -213 -6 -31 -12 -92 -82 -108 -124 -6 -16 -10 -48 -9 -71 3 -40 0 -45
-34 -69 -21 -14 -35 -29 -32 -33 2 -5 -3 -8 -12 -7 -9 0 -18 -5 -20 -11 -7
-19 12 -16 68 13 40 20 54 23 65 13 20 -17 17 -32 -10 -58 -14 -13 -30 -36
-36 -52 -17 -41 -4 -130 26 -174 13 -20 24 -44 24 -55 0 -23 44 -77 71 -85
l21 -7 -21 -22 c-25 -27 -27 -53 -4 -78 16 -18 16 -19 -5 -25 -12 -3 -19 -9
-16 -14 8 -13 42 -11 50 3 5 7 3 8 -6 3 -8 -5 -11 -3 -8 6 3 8 -1 27 -9 42
-13 26 -12 29 17 58 35 36 38 49 9 49 -24 0 -79 51 -79 74 0 30 35 17 55 -20
11 -20 30 -40 42 -45 28 -11 30 -45 3 -54 -30 -10 -39 -36 -24 -70 7 -16 13
-23 13 -15 1 8 -4 22 -9 30 -9 14 13 50 31 50 13 0 -1 -60 -26 -110 -19 -40
-26 -46 -61 -51 -21 -3 -53 -13 -71 -22 -18 -9 -39 -17 -48 -17 -27 0 -143
-59 -180 -92 -45 -39 -63 -75 -113 -219 -44 -125 -70 -189 -107 -262 -28 -55
-31 -84 -11 -112 11 -17 11 -33 -1 -105 -17 -98 -7 -169 29 -207 19 -21 31
-23 109 -23 l87 0 -9 -34 c-7 -24 -6 -46 4 -73 8 -22 10 -48 6 -59 -15 -38
-10 -101 11 -127 27 -33 25 -47 -10 -117 -36 -72 -39 -140 -10 -218 27 -70 26
-150 -2 -215 -28 -63 -29 -135 -4 -196 14 -37 16 -62 10 -163 -6 -112 -6 -121
15 -148 30 -41 27 -107 -9 -210 -24 -69 -30 -101 -30 -172 0 -47 5 -109 12
-137 10 -43 9 -56 -6 -89 -15 -32 -17 -54 -11 -116 4 -43 14 -83 21 -91 9 -9
13 -31 11 -62 -2 -46 -1 -49 34 -66 l37 -18 -3 -62 c-2 -49 -13 -83 -48 -159
-81 -174 -72 -225 48 -254 74 -17 116 -18 167 -2 77 23 89 64 66 222 -7 49 -8
112 -4 158 l8 78 54 0 c36 0 72 -8 102 -22 68 -32 166 -36 226 -10 26 12 46
28 46 36 0 9 9 16 20 16 17 0 19 -4 14 -27 -4 -16 -11 -36 -16 -46 -5 -9 -11
-55 -14 -101 -5 -81 -5 -85 19 -100 13 -9 59 -23 101 -31 42 -8 111 -26 154
-40 42 -14 104 -30 138 -37 220 -40 272 108 71 205 -81 38 -192 125 -209 163
-9 19 -8 28 5 42 10 10 17 23 17 28 0 6 15 15 34 22 73 26 78 49 57 249 -6 54
-13 175 -17 268 l-6 170 27 25 c38 35 65 92 65 137 0 21 -6 99 -14 173 -8 74
-22 232 -31 350 -16 199 -36 402 -66 657 -7 57 -10 106 -6 109 5 6 114 19 194
23 7 1 27 26 45 57 31 53 35 56 77 59 36 3 50 11 82 44 22 22 39 46 39 53 0 7
7 22 15 32 8 11 15 31 15 44 0 13 5 33 11 44 8 16 7 27 -6 52 l-18 33 51 84
c76 127 79 135 56 160 -18 20 -24 21 -219 13 -110 -4 -213 -8 -229 -8 -27 -1
-30 3 -71 111 -23 62 -51 125 -61 141 -52 80 -98 133 -122 139 -15 3 -38 14
-51 25 -13 10 -31 18 -41 18 -9 0 -25 8 -34 19 -16 18 -15 22 24 84 47 75 70
141 70 203 0 38 6 49 45 88 39 38 45 50 45 83 -1 21 2 52 5 70 9 42 -10 97
-43 126 -15 12 -38 44 -50 69 -42 82 -118 128 -236 143 -33 4 -65 13 -73 20
-11 11 -8 17 19 36 18 12 40 31 49 42 10 12 23 18 33 14 19 -8 10 -37 -11 -37
-19 0 -86 -40 -79 -47 2 -3 22 4 43 15 21 11 46 23 56 26 23 7 22 43 -3 56
-17 9 -24 7 -43 -13z m-169 -67 c12 -12 22 -27 22 -34 0 -18 -73 -52 -78 -36
-9 25 -43 50 -68 50 -35 0 -22 17 18 23 39 5 78 -7 96 -30 6 -9 12 -12 12 -6
0 7 -12 21 -26 32 -16 13 -21 21 -12 21 8 0 24 -9 36 -20z m58 -12 c16 -16 16
-21 4 -28 -22 -14 -23 -13 -41 24 -14 31 -14 33 2 29 10 -3 26 -14 35 -25z
m-150 -26 c16 -10 36 -52 26 -52 -5 0 -17 10 -26 23 -16 22 -16 22 -6 0 13
-28 13 -36 -2 -27 -6 4 -8 3 -5 -4 4 -5 -6 -22 -23 -35 -16 -14 -30 -30 -30
-36 0 -6 -4 -11 -8 -11 -4 0 -13 -14 -19 -31 -12 -31 -13 -31 -35 -16 -18 12
-22 23 -21 54 6 85 47 127 106 105 29 -10 30 -10 13 3 -11 8 -31 15 -45 15
-21 0 -23 2 -11 10 18 11 70 13 86 2z m304 -36 c46 -6 91 -24 88 -33 -1 -5 3
-17 9 -28 11 -19 8 -20 -80 -21 -108 0 -180 -24 -244 -79 -23 -19 -46 -35 -52
-35 -6 0 -28 -16 -50 -35 -39 -36 -64 -44 -76 -24 -10 15 14 99 38 133 19 27
21 28 28 10 6 -15 8 -12 8 12 1 25 9 37 42 59 81 53 147 63 289 41z m145 -76
c41 -42 41 -47 3 -29 -23 10 -65 69 -50 69 5 0 26 -18 47 -40z m9 -43 c47 -21
43 -32 -5 -15 -19 7 -81 13 -139 13 -103 0 -106 -1 -173 -37 -72 -40 -82 -44
-72 -28 11 17 78 57 126 74 58 21 208 17 263 -7z m-91 -38 c36 -44 15 -91 -45
-104 -18 -4 -50 -23 -71 -41 -20 -19 -45 -35 -55 -35 -9 -1 -43 -3 -75 -4 -31
-1 -62 -6 -67 -11 -6 -6 9 -8 38 -6 l47 4 -31 -32 c-34 -34 -98 -50 -130 -32
-15 8 -9 10 30 10 27 0 52 4 57 9 4 4 -18 8 -51 8 -32 0 -56 -3 -53 -7 2 -5
-2 -8 -9 -8 -28 -1 39 -29 72 -30 29 -1 31 -3 15 -10 -34 -15 -119 -11 -143 6
-32 22 -27 0 6 -26 l27 -21 -27 4 c-16 2 -28 2 -28 0 0 -2 12 -8 28 -14 17 -7
22 -13 13 -16 -19 -8 -66 31 -64 53 1 10 -5 30 -13 46 -19 37 -18 67 5 104 20
33 51 41 51 13 0 -20 45 -59 69 -59 9 0 0 8 -19 18 -43 21 -53 52 -18 52 15 0
36 14 56 36 l32 36 74 -7 c41 -4 76 -3 79 2 3 5 -10 7 -28 5 -58 -7 -61 3 -10
33 96 57 201 67 238 24z m76 11 c43 -12 101 -51 101 -67 0 -7 4 -13 9 -13 5 0
14 -14 20 -31 11 -32 6 -74 -12 -97 -8 -10 -7 -16 2 -21 15 -9 1 -50 -24 -71
-15 -13 -16 -8 -13 54 3 75 6 69 -72 119 -19 12 -41 36 -49 52 -7 17 -20 42
-27 58 -12 25 -12 27 9 27 12 0 37 -4 56 -10z m-599 -28 c0 -5 -17 -16 -37
-26 l-38 -17 30 25 c31 26 45 32 45 18z m45 -1 c9 -16 -9 -20 -23 -5 -10 12
-10 14 2 14 8 0 17 -4 21 -9z m571 -124 c36 -22 42 -32 48 -71 8 -52 3 -66
-24 -66 -24 0 -70 -21 -70 -31 0 -5 19 -2 42 7 46 16 53 14 44 -14 -5 -15 -18
-21 -49 -24 -23 -3 -45 0 -48 5 -13 19 -20 -35 -14 -97 8 -70 -5 -86 -48 -65
-21 10 -21 10 -3 -5 26 -21 39 -20 59 2 13 14 14 25 7 57 -14 59 -12 85 5 85
8 0 15 -4 15 -10 0 -5 9 -10 20 -10 11 0 20 5 20 10 0 6 5 10 11 10 21 0 3
-112 -26 -171 -33 -65 -82 -139 -103 -156 -57 -47 -238 53 -291 159 -11 24
-21 37 -21 30 0 -53 94 -155 184 -199 l54 -26 -4 -56 -3 -56 10 48 c12 49 23
56 60 37 15 -9 19 -22 19 -64 0 -49 -3 -57 -35 -84 -51 -45 -86 -48 -175 -16
-116 41 -290 135 -290 156 0 4 25 24 56 44 83 53 93 76 108 230 4 46 3 50 -17
50 -27 -1 -67 57 -67 96 0 17 4 27 10 23 6 -3 10 -12 10 -19 0 -19 37 -63 45
-54 9 9 -7 37 -20 35 -5 -1 -11 7 -14 18 -3 16 -1 17 12 7 13 -11 16 -10 20 5
3 15 6 13 15 -9 6 -14 15 -29 21 -32 6 -4 7 -14 4 -24 -6 -15 -4 -15 10 -4 11
10 14 20 7 36 -7 18 2 33 48 89 48 57 61 67 89 67 23 0 41 9 65 33 18 18 52
39 76 46 24 7 46 19 49 28 5 13 8 13 22 -5 9 -11 35 -31 57 -45z m-419 -182
c-10 -20 -13 -22 -18 -7 -4 9 -1 20 5 24 20 14 24 8 13 -17z m-172 -390 c-27
-22 -55 -33 -55 -20 0 5 71 44 80 44 3 0 -8 -11 -25 -24z m538 7 c20 -22 36
-63 52 -132 13 -54 13 -54 14 -15 0 22 -6 58 -14 80 -18 49 -18 45 -1 45 20 0
46 -45 62 -104 34 -126 -12 -700 -54 -695 -4 0 -19 15 -35 34 -24 29 -26 37
-17 61 18 47 50 193 49 222 -1 19 -2 21 -5 7 -19 -93 -38 -173 -46 -188 -8
-16 -15 -13 -61 28 -28 25 -59 45 -69 45 -28 0 -29 15 -4 66 29 60 71 206 85
294 21 125 10 253 -20 235 -16 -11 -10 7 9 21 23 18 36 17 55 -4z m-623 -36
c0 -2 -9 -6 -20 -9 -11 -3 -20 -1 -20 4 0 5 9 9 20 9 11 0 20 -2 20 -4z m48
-18 c-3 -7 -22 -14 -44 -16 -39 -2 -39 -2 -14 13 31 18 63 19 58 3z m-94 -7
c3 -5 -19 -21 -49 -35 -30 -15 -63 -39 -74 -52 -26 -33 -60 -124 -68 -180 -3
-24 -9 -44 -13 -44 -4 0 -12 -11 -18 -25 -8 -17 -8 -25 -1 -25 5 0 -2 -19 -16
-42 -14 -24 -33 -59 -41 -78 -39 -94 -61 -132 -67 -116 -7 17 18 78 57 145 11
19 21 41 22 50 3 23 69 208 97 272 25 56 69 102 122 125 36 16 42 17 49 5z
m806 -1 c43 -23 70 -171 70 -378 l0 -127 -46 -80 c-26 -44 -50 -83 -53 -88 -4
-4 -1 31 5 79 38 257 41 452 9 557 -15 50 -14 53 15 37z m-627 -56 c120 -71
233 -117 303 -122 57 -4 63 -2 97 28 25 21 37 27 37 17 0 -23 -40 -67 -89 -98
-25 -16 -41 -29 -37 -29 15 0 52 23 84 53 17 17 32 25 32 18 0 -52 -93 -331
-110 -331 -5 0 -41 30 -80 66 -41 37 -78 64 -88 62 -33 -6 -22 -36 33 -89 49
-46 53 -54 38 -62 -10 -5 -42 -33 -71 -61 -44 -43 -54 -49 -63 -36 -9 13 -10
13 -6 -2 8 -23 -12 -37 -65 -44 l-46 -6 -16 70 c-9 39 -16 90 -17 114 0 24 -4
61 -9 83 -6 29 -7 16 -3 -45 2 -47 11 -115 19 -152 8 -37 14 -69 14 -72 0 -4
-22 -6 -49 -6 l-48 0 9 43 c12 58 22 517 11 544 -5 13 -7 -28 -4 -104 3 -122
-14 -439 -26 -470 -9 -22 -75 -9 -107 21 -14 13 -45 33 -68 46 l-43 22 3 112
c1 61 8 122 15 136 6 14 37 52 68 85 61 65 103 139 114 198 6 32 11 37 34 37
14 0 33 5 41 10 8 5 16 10 16 10 1 0 36 -21 77 -46z m-212 -78 c-33 -67 -124
-176 -137 -163 -13 13 24 139 54 182 15 22 46 50 67 62 l40 22 3 -20 c2 -12
-10 -49 -27 -83z m939 5 c11 -22 37 -85 58 -139 l39 -100 -28 -6 c-18 -3 -35
-18 -52 -46 l-24 -40 -6 147 c-4 82 -10 165 -13 186 -8 48 0 47 26 -2z m-1094
-218 c-10 -10 -19 5 -10 18 6 11 8 11 12 0 2 -7 1 -15 -2 -18z m1668 -32 c3
-5 -36 -12 -87 -15 -183 -14 -402 -24 -409 -19 -24 14 1 23 65 24 39 1 110 4
157 8 125 11 268 12 274 2z m-1685 -118 l-2 -108 53 -32 c79 -48 81 -53 27
-53 -45 0 -117 -22 -117 -35 0 -3 6 -3 13 2 6 4 102 8 212 8 246 0 263 4 354
90 63 60 72 65 113 65 25 0 60 -3 77 -6 37 -8 121 -79 120 -102 0 -14 -2 -13
-9 3 -5 11 -9 15 -9 8 -1 -7 -23 -1 -58 17 -55 27 -135 49 -119 33 4 -5 28
-15 54 -24 50 -17 72 -49 58 -85 -8 -18 -9 -18 -16 3 -6 15 -23 26 -52 33 -24
7 -47 15 -53 18 -6 3 -6 1 -2 -4 5 -5 27 -18 50 -29 44 -21 52 -32 39 -53 -7
-10 -16 -9 -46 3 -53 22 -68 13 -17 -9 22 -11 41 -23 41 -27 0 -14 -31 -39
-48 -39 -14 0 -15 2 -3 9 12 8 9 11 -11 16 -19 5 -37 0 -65 -19 -28 -20 -50
-26 -90 -26 -29 0 -104 -15 -175 -36 -172 -49 -248 -64 -333 -64 -102 0 -118
14 -123 108 -4 66 16 195 37 247 30 71 91 195 96 195 3 0 5 -48 4 -107z m1687
81 c-4 -9 -31 -56 -61 -105 -30 -49 -55 -93 -55 -99 0 -5 -9 -14 -20 -20 -11
-6 -20 -7 -20 -3 0 4 25 51 54 103 30 52 53 96 51 98 -2 2 -94 -2 -206 -10
-153 -9 -207 -16 -220 -28 -18 -14 -299 -506 -299 -522 0 -11 61 -10 199 2
239 22 215 15 239 66 12 24 29 44 37 44 13 0 11 -9 -9 -48 -38 -75 0 -65 -394
-103 -67 -7 -125 -9 -128 -6 -6 6 13 43 194 362 69 121 132 227 141 236 13 14
59 20 246 32 127 8 236 15 244 16 8 0 11 -5 7 -15z m-1071 -59 c39 -35 64 -64
56 -65 -13 0 -131 104 -139 123 -10 21 20 0 83 -58z m537 -1 c-17 -27 -96
-166 -176 -308 -96 -172 -148 -254 -152 -243 -4 10 52 118 151 294 192 339
184 328 197 315 6 -6 -1 -26 -20 -58z m468 22 c0 -2 -25 -46 -55 -97 -48 -84
-58 -95 -87 -99 -21 -3 -36 -13 -43 -27 -5 -13 -22 -25 -38 -29 -16 -3 -31
-13 -34 -22 -2 -10 -9 -26 -14 -37 -11 -25 -6 -92 8 -106 9 -9 5 -23 -15 -53
-14 -22 -26 -42 -27 -43 -1 -4 -386 -35 -390 -31 -2 1 28 59 67 128 39 69 90
159 113 200 48 85 105 183 110 189 2 2 82 9 177 16 218 15 228 16 228 11z
m-25 -227 c0 -23 -3 -24 -70 -24 -56 0 -70 3 -70 15 0 10 18 18 60 26 74 14
80 13 80 -17z m-777 -3 c32 -17 91 -76 75 -76 -10 0 -113 78 -113 86 0 7 10 4
38 -10z m5 -57 c13 -20 -64 -176 -126 -257 -63 -82 -156 -165 -230 -206 -86
-48 -200 -86 -254 -86 -84 0 -143 60 -128 129 8 36 15 39 33 11 7 -11 17 -20
22 -20 5 0 -6 25 -25 55 -40 62 -47 121 -17 147 18 17 93 41 101 33 2 -3 -1
-17 -8 -31 -6 -14 -9 -30 -6 -35 10 -15 -23 -10 -39 7 -15 14 -16 14 -16 -1 0
-17 38 -35 75 -35 59 0 204 75 277 144 15 15 35 26 45 26 10 0 34 8 53 19 26
14 40 16 57 8 33 -15 71 0 89 35 19 37 63 80 78 75 5 -2 14 -10 19 -18z m761
0 c13 -12 -11 -37 -43 -44 -29 -6 -161 30 -161 45 0 5 8 10 18 13 26 6 176 -4
186 -14z m-672 -56 c-2 -4 -30 -56 -64 -116 -58 -103 -59 -108 -44 -132 9 -14
27 -25 45 -27 l28 -3 -23 -79 c-13 -44 -22 -81 -20 -84 3 -2 17 34 31 81 25
79 29 85 56 89 19 3 29 0 29 -8 0 -34 -73 -312 -110 -419 -87 -250 -196 -435
-352 -594 -182 -185 -358 -268 -396 -188 -15 32 -7 190 9 166 18 -28 9 26 -16
96 -27 78 -31 145 -10 190 l13 30 2 -35 c1 -19 5 -44 10 -55 5 -13 9 23 9 99
1 109 2 118 19 110 9 -4 35 -9 57 -10 l40 -3 -42 10 c-49 12 -84 50 -108 118
-21 59 -19 101 7 158 l21 48 7 -42 c10 -70 20 -61 20 18 l0 75 61 -4 c73 -5
198 31 285 84 31 19 60 34 64 34 4 0 35 28 70 63 l63 62 -23 -45 c-73 -143
-278 -377 -408 -462 -15 -10 -23 -18 -19 -18 23 0 142 93 217 170 94 96 177
212 243 341 24 46 56 104 72 129 16 25 43 77 61 117 l33 72 33 -13 c18 -8 32
-18 30 -23z m473 -3 c-5 -8 -11 -8 -17 -2 -6 6 -7 16 -3 22 5 8 11 8 17 2 6
-6 7 -16 3 -22z m123 5 c52 0 63 -10 40 -33 -15 -15 -102 -16 -131 -1 -29 16
-28 14 -21 33 5 14 13 16 33 9 14 -4 50 -8 79 -8z m-88 -50 c30 -8 65 -12 77
-9 13 4 23 2 23 -4 0 -44 -110 -35 -150 12 -15 19 -18 19 50 1z m-955 -25
c-10 -16 -127 -94 -169 -113 l-39 -18 6 37 c7 44 -3 38 -12 -8 -5 -24 -13 -34
-29 -36 -23 -4 -23 -2 0 59 7 20 20 30 49 37 l40 10 -6 -29 c-9 -40 2 -37 13
3 7 28 15 35 63 49 63 20 93 23 84 9z m651 -297 c-10 -177 -55 -544 -85 -698
-76 -390 -266 -757 -533 -1028 -145 -148 -263 -218 -367 -221 l-54 -1 -14 70
c-11 57 -12 76 -2 100 l12 30 6 -35 c5 -31 10 -35 38 -38 40 -4 115 32 178 85
125 104 284 354 403 633 52 121 145 390 156 450 3 19 -18 -35 -47 -120 -77
-221 -120 -326 -198 -483 -134 -270 -285 -464 -408 -525 -81 -40 -111 -42
-111 -6 0 14 -7 76 -16 137 -14 93 -15 124 -5 192 13 82 39 151 42 110 3 -32
17 74 18 133 1 48 3 52 26 52 125 0 373 210 521 441 78 121 75 118 70 94 -27
-126 -119 -378 -207 -565 -32 -69 -52 -116 -43 -105 59 75 197 418 244 605 17
69 53 181 80 250 54 140 100 293 125 420 27 139 18 130 149 138 l29 2 -7 -117z
m53 -418 c11 -115 25 -275 31 -355 6 -80 18 -207 27 -282 13 -108 13 -143 4
-165 -14 -33 -58 -89 -65 -83 -2 3 -9 174 -15 380 -7 206 -16 416 -21 465 -18
171 -8 431 12 300 4 -27 16 -144 27 -260z m-50 -161 c6 -98 13 -316 16 -484 7
-334 20 -629 36 -788 11 -117 5 -137 -44 -150 l-32 -8 -6 55 c-4 31 -10 159
-13 286 -4 126 -9 232 -12 234 -8 9 -4 -307 7 -442 6 -76 8 -149 5 -162 -4
-16 -20 -29 -52 -41 -41 -16 -56 -16 -131 -5 -87 12 -113 7 -113 -24 0 -35
-155 -47 -225 -17 -31 13 -73 16 -190 17 -136 0 -156 3 -210 25 -58 24 -60 26
-63 66 l-3 41 56 6 c66 7 151 44 222 97 l52 40 -4 -93 -4 -92 10 95 10 95 60
60 60 60 -5 -135 c-3 -95 -2 -116 4 -70 4 36 8 99 9 141 1 74 2 76 45 127 25
29 55 67 68 85 l23 32 6 -115 5 -115 2 122 c2 118 3 125 33 173 17 27 33 50
35 50 2 0 3 -135 3 -300 -1 -166 1 -304 5 -307 3 -4 6 136 6 309 l0 316 64
123 c35 68 79 164 97 214 l34 89 5 -284 5 -285 3 307 c1 237 5 320 17 365 27
103 64 297 80 426 4 27 8 47 10 45 3 -2 9 -85 14 -184z m-120 -1546 c2 -6 17
-25 33 -44 l30 -34 -30 -25 c-16 -13 -39 -47 -51 -75 -12 -29 -27 -50 -34 -47
-18 6 -96 158 -96 189 -2 52 5 56 77 50 37 -3 69 -9 71 -14z m59 -5 c6 -16 42
-53 78 -83 119 -99 120 -99 104 -100 -38 0 -239 178 -225 200 11 18 30 10 43
-17z m-852 7 c8 0 14 -4 14 -10 0 -16 -36 -11 -51 7 -12 15 -12 16 4 10 10 -4
25 -7 33 -7z m56 -130 c-4 -115 -14 -148 -40 -131 -11 6 -11 23 -3 85 6 43 11
98 11 122 0 38 3 45 18 42 15 -3 17 -15 14 -118z m68 110 c-20 -13 -50 -13
-50 0 0 6 15 10 33 10 24 0 28 -3 17 -10z m-111 -26 c10 -9 -19 -52 -38 -57
-19 -5 -21 -1 -21 34 0 38 1 39 28 33 15 -4 29 -8 31 -10z m121 -27 c0 -42 -6
-48 -36 -35 -29 13 -33 54 -6 61 37 10 42 7 42 -26z m538 -73 c18 -37 30 -69
27 -72 -3 -3 -21 2 -40 11 -34 16 -35 19 -35 72 0 30 4 55 8 55 4 0 22 -30 40
-66z m222 42 c0 -2 -18 -22 -40 -44 -27 -27 -40 -48 -40 -67 0 -17 -5 -25 -12
-23 -44 15 17 138 67 138 14 0 25 -2 25 -4z m-890 -19 c0 -8 -16 -18 -35 -24
-42 -13 -46 0 -7 21 34 19 42 19 42 3z m101 -7 c10 -6 19 -17 19 -24 0 -11 -5
-12 -25 -3 -14 7 -25 18 -25 25 0 15 6 15 31 2z m823 -15 c19 -15 19 -15 -2
-38 -12 -13 -24 -37 -28 -54 -6 -30 -7 -30 -40 -20 -19 6 -34 14 -34 18 0 19
23 66 42 87 25 26 36 27 62 7z m-930 -27 c-3 -13 -7 -23 -8 -24 -14 -7 -81
-22 -84 -19 -9 8 23 38 53 51 42 18 47 17 39 -8z m119 -16 c9 -8 17 -21 17
-28 0 -11 -8 -10 -35 3 -33 16 -43 32 -29 46 8 7 21 1 47 -21z m877 -1 c0 -4
-11 -18 -25 -31 -14 -13 -25 -34 -25 -46 0 -17 -4 -21 -20 -17 -11 3 -20 12
-20 20 0 22 28 71 47 81 17 10 43 6 43 -7z m100 -6 c0 -8 2 -15 4 -15 2 0 12
-3 22 -7 13 -5 15 -3 9 8 -5 8 -5 11 1 6 5 -5 10 -13 10 -18 1 -5 2 -10 3 -11
2 -2 4 -13 7 -25 4 -26 -11 -31 -20 -8 -3 8 -12 15 -21 15 -9 0 -30 7 -46 16
-17 8 -35 14 -41 12 -5 -2 8 -13 30 -23 27 -13 36 -23 29 -28 -7 -5 -1 -7 16
-4 22 3 27 0 27 -16 0 -19 -4 -19 -72 -13 -88 8 -109 23 -85 60 16 23 86 63
115 65 6 1 12 -6 12 -14z m-395 -38 c57 -11 145 -37 226 -66 77 -28 184 -38
207 -20 9 8 27 20 40 27 22 12 22 12 12 -7 -28 -54 -135 -59 -280 -12 -53 17
-131 38 -175 47 -87 18 -115 29 -115 45 0 7 7 8 18 4 9 -5 40 -12 67 -18z
m-707 1 c-5 -13 -118 -39 -118 -26 0 4 15 14 33 22 40 18 90 20 85 4z m135
-16 c29 -25 19 -31 -23 -14 -22 9 -40 23 -40 30 0 16 37 7 63 -16z m-124 -26
c19 -10 31 -11 48 -3 18 8 32 7 58 -6 39 -19 41 -27 17 -77 -14 -30 -23 -35
-55 -38 -35 -3 -38 -1 -35 19 2 12 9 24 17 27 8 3 11 0 7 -7 -4 -6 -2 -11 3
-11 6 0 11 5 11 11 0 8 6 7 18 -2 15 -13 16 -12 3 4 -7 9 -19 17 -27 17 -7 0
-14 10 -17 23 -2 16 -5 18 -10 7 -21 -49 -30 -76 -28 -87 3 -17 -14 -16 -28 1
-8 10 -8 21 -1 41 6 15 8 30 6 33 -3 3 -10 -7 -15 -22 -7 -16 -18 -26 -31 -26
-17 0 -18 3 -9 26 5 15 8 29 5 31 -2 3 -10 -12 -17 -31 -7 -20 -17 -36 -21
-36 -13 0 -9 55 4 68 7 7 8 12 2 12 -6 0 -16 -12 -23 -27 -8 -18 -15 -23 -22
-16 -26 26 10 62 76 76 33 8 39 7 64 -7z m145 -119 c-13 -35 -55 -50 -135 -49
-77 1 -159 28 -159 52 0 14 4 13 42 -9 33 -19 73 -25 161 -22 38 1 53 6 70 25
24 27 31 28 21 3z m-189 3 c3 -5 -1 -10 -9 -10 -8 0 -18 5 -21 10 -3 6 1 10 9
10 8 0 18 -4 21 -10z"/>
<path d="M4860 4993 c0 -6 8 -17 18 -24 16 -13 16 -13 2 6 -8 11 -16 22 -17
24 -2 2 -3 0 -3 -6z"/>
<path d="M4831 4978 c-1 -9 6 -24 15 -32 21 -22 31 -20 12 2 -9 9 -18 24 -21
32 -4 12 -6 12 -6 -2z"/>
<path d="M4835 4920 c10 -11 20 -20 23 -20 3 0 -3 9 -13 20 -10 11 -20 20 -23
20 -3 0 3 -9 13 -20z"/>
<path d="M5230 5019 c14 -6 34 -18 45 -27 12 -9 8 -5 -7 11 -16 15 -36 27 -46
26 -12 0 -9 -3 8 -10z"/>
<path d="M5155 5008 c11 -6 27 -16 35 -22 9 -6 5 -1 -8 12 -13 12 -28 22 -35
22 -7 0 -3 -6 8 -12z"/>
<path d="M4997 4969 c7 -7 15 -10 18 -7 3 3 -2 9 -12 12 -14 6 -15 5 -6 -5z"/>
<path d="M5070 4976 c0 -3 14 -12 30 -21 17 -9 30 -13 30 -11 0 3 -13 12 -30
21 -16 9 -30 13 -30 11z"/>
<path d="M4978 4913 c13 -13 31 -23 40 -22 11 0 9 4 -8 10 -13 6 -32 15 -40
22 -9 7 -5 2 8 -10z"/>
<path d="M4880 4836 c0 -8 4 -17 9 -20 5 -4 7 3 4 14 -6 23 -13 26 -13 6z"/>
<path d="M5204 4854 c-10 -8 -12 -12 -4 -7 8 4 38 10 65 14 l50 6 -46 2 c-28
0 -52 -5 -65 -15z"/>
<path d="M5285 4840 l-40 -7 37 -2 c20 0 40 4 43 9 3 6 5 9 3 9 -2 -1 -21 -5
-43 -9z"/>
<path d="M5288 4803 c7 -3 16 -2 19 1 4 3 -2 6 -13 5 -11 0 -14 -3 -6 -6z"/>
<path d="M5229 4788 c-8 -7 -23 -24 -34 -38 -19 -25 -19 -25 6 1 15 15 35 32
45 38 11 6 14 11 8 11 -5 0 -17 -6 -25 -12z"/>
<path d="M5121 4775 c-23 -8 -47 -9 -70 -4 -33 8 -109 -6 -98 -17 2 -3 17 0
32 6 19 7 39 7 66 0 30 -8 46 -7 74 4 19 8 35 17 35 20 0 4 -1 5 -2 5 -2 -1
-18 -7 -37 -14z"/>
<path d="M4831 4728 c-1 -15 9 -37 22 -50 12 -13 16 -16 8 -6 -7 9 -17 32 -21
50 -7 31 -8 31 -9 6z"/>
<path d="M5145 4740 c-16 -7 -17 -9 -3 -9 9 -1 20 4 23 9 7 11 7 11 -20 0z"/>
<path d="M4812 4689 c-1 -19 5 -44 13 -55 8 -10 15 -14 15 -8 0 5 -4 14 -9 20
-5 5 -11 25 -14 44 l-4 35 -1 -36z"/>
<path d="M5138 4713 c7 -3 16 -2 19 1 4 3 -2 6 -13 5 -11 0 -14 -3 -6 -6z"/>
<path d="M5388 4863 c7 -3 16 -2 19 1 4 3 -2 6 -13 5 -11 0 -14 -3 -6 -6z"/>
<path d="M5402 4794 c10 -10 20 -16 22 -13 3 3 -5 11 -17 18 -21 13 -21 12 -5
-5z"/>
<path d="M5481 4797 c2 -1 15 -11 29 -22 l25 -20 -19 23 c-11 12 -24 22 -29
22 -6 0 -8 -1 -6 -3z"/>
<path d="M5471 4767 c2 -1 13 -9 24 -17 19 -14 19 -14 6 3 -7 9 -18 17 -24 17
-6 0 -8 -1 -6 -3z"/>
<path d="M5502 4646 c1 -14 5 -23 9 -20 7 4 0 44 -7 44 -2 0 -3 -11 -2 -24z"/>
<path d="M5145 4613 c-38 -9 -37 -21 1 -17 22 3 61 -2 89 -10 29 -9 53 -12 59
-6 5 5 -13 15 -45 24 -53 16 -68 17 -104 9z"/>
<path d="M5208 4563 c6 -2 18 -2 25 0 6 3 1 5 -13 5 -14 0 -19 -2 -12 -5z"/>
<path d="M5408 4553 c6 -2 18 -2 25 0 6 3 1 5 -13 5 -14 0 -19 -2 -12 -5z"/>
<path d="M5134 4543 c4 -5 16 -9 27 -9 32 -2 35 -4 19 -14 -11 -7 -7 -10 17
-10 17 0 35 5 38 10 4 6 11 8 16 5 5 -4 9 -2 9 3 0 6 -7 13 -16 16 -23 9 -119
7 -110 -1z"/>
<path d="M5260 4396 c0 -8 4 -17 9 -20 5 -4 7 3 4 14 -6 23 -13 26 -13 6z"/>
<path d="M5245 4309 c-31 -5 -22 -6 38 -8 42 0 77 1 77 3 0 8 -76 11 -115 5z"/>
<path d="M5260 4266 c0 -9 37 -12 55 -5 15 6 11 8 -17 8 -21 1 -38 -1 -38 -3z"/>
<path d="M5130 4053 c0 -16 41 -54 51 -48 5 4 9 8 9 11 0 3 -4 3 -9 -1 -5 -3
-19 7 -30 21 -12 15 -21 22 -21 17z"/>
<path d="M5378 3930 c-4 -63 -16 -160 -28 -214 -23 -114 -20 -143 4 -36 25
109 37 217 34 295 -3 63 -4 59 -10 -45z"/>
<path d="M4450 3725 c-7 -9 -11 -17 -9 -20 3 -2 10 5 17 15 14 24 10 26 -8 5z"/>
<path d="M4881 4000 c59 -74 214 -235 264 -274 22 -17 -5 14 -61 69 -56 55
-134 136 -174 180 -44 49 -56 58 -29 25z"/>
<path d="M4845 3973 c57 -103 106 -183 112 -183 3 0 -2 10 -10 23 -8 13 -41
69 -72 125 -31 56 -59 102 -62 102 -2 0 12 -30 32 -67z"/>
<path d="M4802 3965 c0 -11 4 -33 8 -50 7 -27 8 -27 8 -5 0 14 -4 36 -8 50 -6
20 -8 21 -8 5z"/>
<path d="M5020 3909 c70 -63 151 -109 189 -108 26 1 29 3 11 6 -58 9 -72 16
-152 73 -45 34 -67 47 -48 29z"/>
<path d="M4826 3840 c4 -25 10 -54 15 -65 10 -24 0 48 -12 85 -6 16 -7 10 -3
-20z"/>
<path d="M4702 3790 c0 -19 2 -27 5 -17 2 9 2 25 0 35 -3 9 -5 1 -5 -18z"/>
<path d="M4712 3730 c0 -14 3 -45 7 -70 6 -34 9 -37 9 -15 1 17 -3 48 -7 70
-6 25 -9 31 -9 15z"/>
<path d="M4541 3709 c6 -19 15 -51 21 -72 6 -21 13 -36 15 -33 6 6 -27 117
-38 130 -5 5 -4 -6 2 -25z"/>
<path d="M4635 3683 c8 -18 28 -72 45 -120 16 -48 30 -80 30 -71 0 25 -58 182
-76 204 -13 16 -13 14 1 -13z"/>
<path d="M4881 3500 c0 -8 4 -24 9 -35 5 -13 9 -14 9 -5 0 8 -4 24 -9 35 -5
13 -9 14 -9 5z"/>
<path d="M5643 3800 c0 -30 2 -43 4 -27 2 15 2 39 0 55 -2 15 -4 2 -4 -28z"/>
<path d="M5085 3500 c-3 -6 1 -7 9 -4 18 7 21 14 7 14 -6 0 -13 -4 -16 -10z"/>
<path d="M5924 3598 c-4 -5 -4 -11 -1 -14 6 -6 37 6 37 15 0 11 -30 9 -36 -1z"/>
<path d="M5980 3596 c0 -8 12 -11 36 -8 41 5 41 8 -3 15 -22 4 -33 1 -33 -7z"/>
<path d="M5767 3593 c-10 -16 4 -19 70 -14 43 3 51 6 33 11 -14 3 -39 3 -57
-1 -20 -4 -33 -3 -36 4 -2 8 -5 8 -10 0z"/>
<path d="M5865 3540 c3 -5 14 -10 23 -10 15 0 15 2 2 10 -20 13 -33 13 -25 0z"/>
<path d="M5920 3538 c0 -5 9 -8 19 -8 11 0 22 3 24 8 3 4 -6 7 -19 7 -13 0
-24 -3 -24 -7z"/>
<path d="M5980 3546 c0 -2 9 -6 20 -9 11 -3 20 -1 20 4 0 5 -9 9 -20 9 -11 0
-20 -2 -20 -4z"/>
<path d="M5690 3521 c0 -9 3 -12 8 -6 4 6 21 10 39 10 43 -1 31 9 -13 11 -25
0 -34 -3 -34 -15z"/>
<path d="M5780 3536 c0 -2 7 -7 16 -10 8 -3 12 -2 9 4 -6 10 -25 14 -25 6z"/>
<path d="M5828 3533 c7 -3 16 -2 19 1 4 3 -2 6 -13 5 -11 0 -14 -3 -6 -6z"/>
<path d="M5918 3493 c6 -2 18 -2 25 0 6 3 1 5 -13 5 -14 0 -19 -2 -12 -5z"/>
<path d="M5968 3493 c6 -2 18 -2 25 0 6 3 1 5 -13 5 -14 0 -19 -2 -12 -5z"/>
<path d="M5685 3478 c-20 -4 -9 -6 33 -5 34 1 62 5 62 9 0 8 -52 6 -95 -4z"/>
<path d="M5790 3486 c0 -9 30 -14 35 -6 4 6 -3 10 -14 10 -12 0 -21 -2 -21 -4z"/>
<path d="M5878 3483 c7 -3 16 -2 19 1 4 3 -2 6 -13 5 -11 0 -14 -3 -6 -6z"/>
<path d="M5870 3442 c0 -4 10 -9 22 -9 18 -2 20 0 8 7 -18 12 -30 13 -30 2z"/>
<path d="M5634 3429 c-6 -10 -7 -10 23 -13 12 -1 28 1 35 6 10 6 10 8 -2 9 -8
0 -23 2 -32 4 -10 2 -20 -1 -24 -6z"/>
<path d="M5755 3430 c-16 -7 -17 -9 -3 -9 9 -1 20 4 23 9 7 11 7 11 -20 0z"/>
<path d="M5794 3389 c-3 -5 6 -9 20 -9 31 0 34 6 6 13 -11 3 -23 1 -26 -4z"/>
<path d="M5600 3372 c0 -8 90 -6 98 3 3 3 -18 5 -46 5 -29 0 -52 -4 -52 -8z"/>
<path d="M5718 3373 c7 -3 16 -2 19 1 4 3 -2 6 -13 5 -11 0 -14 -3 -6 -6z"/>
<path d="M5756 3341 c-3 -4 6 -8 20 -9 13 -1 24 0 24 2 0 7 -40 14 -44 7z"/>
<path d="M5580 3322 c0 -4 17 -6 38 -4 58 5 62 10 10 11 -27 1 -48 -3 -48 -7z"/>
<path d="M5720 3292 c0 -4 17 -6 38 -4 58 5 62 10 10 11 -27 1 -48 -3 -48 -7z"/>
<path d="M5588 3283 c18 -2 45 -2 60 0 15 2 0 4 -33 4 -33 0 -45 -2 -27 -4z"/>
<path d="M5695 3242 c-7 -20 -4 -21 23 -7 22 12 22 13 3 18 -12 3 -22 -1 -26
-11z"/>
<path d="M5599 3245 c-3 -2 -19 -5 -37 -7 -18 -1 -32 -6 -32 -10 0 -5 11 -6
25 -2 14 3 36 7 49 8 13 0 22 4 19 9 -5 8 -17 9 -24 2z"/>
<path d="M5112 3148 c-31 -50 -41 -70 -23 -50 26 30 87 132 79 132 -2 0 -27
-37 -56 -82z"/>
<path d="M5005 3120 c-146 -147 -240 -208 -320 -211 l-40 -1 33 -10 c51 -17
159 41 267 144 73 69 154 158 143 158 -1 0 -39 -36 -83 -80z"/>
<path d="M4630 3035 c0 -13 68 -45 96 -45 33 0 169 38 162 45 -2 2 -26 -3 -53
-11 -71 -22 -146 -22 -179 -1 -14 10 -26 15 -26 12z"/>
<path d="M5208 2812 c-37 -75 -81 -162 -98 -192 -157 -272 -358 -464 -467
-447 -28 5 -34 4 -24 -6 21 -21 86 -11 144 22 128 73 286 274 417 531 58 114
104 220 98 226 -2 1 -33 -59 -70 -134z"/>
<path d="M5009 2884 c-51 -57 -210 -181 -270 -212 -65 -33 -116 -41 -138 -19
-10 10 -11 9 -5 -6 3 -9 16 -20 28 -23 28 -7 119 27 182 68 46 30 246 217 233
218 -3 0 -16 -12 -30 -26z"/>
<path d="M5136 2472 c-77 -157 -220 -359 -317 -446 -46 -41 -47 -43 -9 -14 67
52 171 177 239 286 63 102 125 221 119 228 -2 2 -17 -22 -32 -54z"/>
<path d="M5542 2755 c0 -16 2 -22 5 -12 2 9 2 23 0 30 -3 6 -5 -1 -5 -18z"/>
<path d="M5531 2700 c-3 -64 -82 -506 -107 -602 -8 -33 -13 -62 -11 -64 4 -4
38 120 57 208 21 98 71 442 67 462 -4 18 -4 18 -6 -4z"/>
<path d="M5401 2004 c0 -11 3 -14 6 -6 3 7 2 16 -1 19 -3 4 -6 -2 -5 -13z"/>
<path d="M4800 1708 c-50 -78 -144 -168 -178 -169 -24 -2 -24 -2 -4 -6 45 -9
133 71 196 180 37 63 28 60 -14 -5z"/>
<path d="M5790 597 c8 -8 26 -18 40 -22 32 -9 15 7 -25 24 -26 11 -28 11 -15
-2z"/>
<path d="M4885 4460 c10 -11 20 -20 23 -20 3 0 -3 9 -13 20 -10 11 -20 20 -23
20 -3 0 3 -9 13 -20z"/>
</g>
</svg>
