<?xml version="1.0" standalone="no"?>
<!DOCTYPE svg PUBLIC "-//W3C//DTD SVG 20010904//EN"
 "http://www.w3.org/TR/2001/REC-SVG-20010904/DTD/svg10.dtd">
<svg version="1.0" xmlns="http://www.w3.org/2000/svg"
 width="1024.000000pt" height="559.000000pt" viewBox="0 0 1024.000000 559.000000"
 preserveAspectRatio="xMidYMid meet">
<metadata>
Created by potrace 1.16, written by Peter Selinger 2001-2019
</metadata>
<g transform="translate(0.000000,559.000000) scale(0.100000,-0.100000)"
fill="#000000" stroke="none">
<path d="M5068 5096 c-98 -28 -147 -69 -203 -168 -25 -45 -29 -109 -11 -171 9
-30 16 -63 16 -72 0 -21 77 -182 91 -190 14 -9 11 -119 -4 -139 -7 -10 -35
-26 -62 -35 -28 -10 -99 -36 -159 -57 -133 -47 -178 -84 -269 -222 -35 -53
-96 -137 -135 -187 -51 -64 -71 -97 -70 -116 1 -14 -8 -39 -20 -56 -12 -17
-35 -59 -52 -94 -41 -88 -40 -130 9 -223 56 -105 85 -143 229 -298 l127 -137
0 -158 0 -158 38 -68 37 -69 -12 -59 c-9 -47 -9 -70 1 -111 6 -29 24 -113 38
-185 l26 -133 -23 -79 c-22 -74 -22 -85 -10 -149 9 -52 10 -80 1 -121 -16 -75
-14 -228 5 -322 14 -65 15 -89 5 -114 -15 -43 -14 -77 4 -111 8 -16 15 -38 15
-50 0 -39 22 -84 48 -98 24 -13 25 -18 25 -85 -1 -83 -16 -112 -105 -208 -57
-62 -77 -109 -64 -151 16 -51 185 -74 262 -36 21 10 49 35 60 54 12 19 31 45
43 58 38 42 42 57 30 124 -6 35 -13 109 -14 166 l-3 102 51 -6 c29 -3 83 -13
120 -20 95 -19 125 -18 201 11 51 19 74 23 103 17 l38 -8 -1 -89 c-1 -50 -6
-128 -12 -174 -14 -104 -9 -112 86 -136 37 -10 103 -34 147 -54 71 -31 90 -35
165 -36 133 0 179 35 143 111 -13 26 -36 48 -80 75 -86 52 -180 126 -195 152
-11 21 -24 74 -34 147 -5 33 -3 36 28 45 l33 10 0 205 0 205 48 50 c26 28 59
73 73 101 24 50 25 57 22 214 l-3 162 30 21 c16 12 38 27 49 32 11 6 23 24 26
40 4 17 15 45 25 64 14 28 16 48 11 105 -23 254 -16 436 35 944 16 161 18 213
10 253 -14 64 -56 169 -91 229 -59 100 -120 243 -120 281 0 24 -8 47 -23 66
-13 15 -42 60 -65 100 -23 39 -56 82 -72 95 -17 13 -44 35 -60 50 -16 14 -44
29 -62 33 -18 4 -45 16 -60 26 -14 11 -41 22 -60 25 -25 5 -99 34 -126 50 -2
1 3 13 12 26 30 47 58 180 63 303 2 66 7 149 9 185 5 63 4 67 -33 119 -51 73
-108 103 -206 107 -41 2 -92 -2 -119 -10z m224 -37 c57 -29 110 -100 115 -157
l5 -47 -33 65 c-25 51 -34 60 -36 43 -3 -12 -11 -27 -19 -33 -11 -10 -14 -8
-14 11 0 13 -5 31 -10 39 -8 13 -10 13 -10 -2 0 -21 -49 -80 -60 -73 -5 3 -7
12 -3 20 3 8 2 27 -2 43 l-7 27 -19 -37 c-20 -39 -41 -52 -33 -20 3 9 -1 26
-9 36 -13 18 -14 18 -21 -10 -14 -53 -46 -74 -46 -30 0 14 -4 28 -10 31 -6 3
-7 -1 -4 -10 4 -8 1 -29 -7 -46 l-12 -31 -19 23 -18 24 6 -42 c5 -33 2 -50
-16 -80 -15 -26 -20 -47 -17 -70 3 -18 4 -33 1 -33 -2 0 -17 14 -33 32 -26 29
-31 31 -55 20 -24 -10 -26 -9 -32 14 -4 13 -4 52 -2 84 3 48 10 66 31 88 15
15 27 33 27 38 0 6 12 22 28 37 73 70 239 93 334 46z m93 -221 l7 -36 -51 -13
c-59 -15 -61 -20 -35 -119 9 -35 12 -66 7 -71 -14 -14 -85 2 -79 17 3 8 1 14
-3 14 -15 0 -20 -28 -8 -38 23 -18 82 -23 102 -9 17 13 17 17 3 76 -16 61 -16
62 4 55 12 -3 24 -1 28 6 12 20 27 4 33 -36 7 -40 -22 -197 -47 -256 -31 -73
-131 -68 -256 12 -39 25 -53 42 -71 86 -15 35 -28 53 -36 50 -23 -9 -43 5 -62
43 -27 53 -32 85 -18 105 16 22 38 13 61 -25 27 -45 52 -35 48 19 -3 29 2 52
17 76 12 18 21 40 21 47 0 19 32 47 47 42 7 -3 18 5 25 16 15 24 30 28 22 6
-4 -9 0 -15 9 -15 8 0 20 7 27 15 18 21 29 19 23 -5 -7 -25 22 -27 55 -4 12 8
22 10 22 5 0 -19 36 -12 56 10 l19 21 12 -29 c6 -16 14 -45 18 -65z m4 -73 c6
-26 0 -35 -19 -25 -11 6 -32 7 -47 4 -36 -9 -22 7 20 23 30 11 43 10 46 -2z
m-419 -230 c0 -8 -2 -15 -4 -15 -2 0 -6 7 -10 15 -3 8 -1 15 4 15 6 0 10 -7
10 -15z m81 -92 c40 -36 164 -93 203 -93 35 0 36 -1 36 -39 0 -22 5 -43 10
-46 6 -3 10 2 10 11 0 28 19 4 26 -33 6 -28 3 -33 -27 -49 -67 -36 -247 -19
-376 37 l-47 20 46 40 c58 49 72 89 66 181 l-5 69 17 -38 c10 -21 28 -48 41
-60z m325 -119 c38 -26 72 -92 101 -200 25 -93 26 -113 26 -319 0 -157 -4
-242 -15 -298 -8 -43 -11 -74 -7 -70 40 40 63 419 35 591 -16 106 -47 210 -72
250 -13 20 -13 22 3 22 50 0 116 -71 129 -138 3 -18 11 -35 16 -38 10 -6 2 54
-13 94 -7 18 -5 22 11 22 33 0 48 -40 59 -154 14 -139 14 -437 1 -545 -10 -77
-14 -86 -48 -118 l-37 -35 -68 11 c-55 9 -73 9 -102 -3 -34 -15 -34 -14 -54
18 -17 27 -19 39 -11 67 47 159 70 450 51 635 -11 111 -35 204 -52 204 -5 0
-9 5 -9 10 0 15 28 12 56 -6z m-501 -50 c-12 -13 -13 -19 -4 -31 55 -66 333
-117 426 -78 45 19 43 19 43 -6 0 -37 -107 -124 -189 -154 -28 -11 -31 -14
-13 -14 36 -1 83 22 145 73 67 54 67 54 38 -85 -21 -98 -51 -201 -76 -263
l-16 -37 -26 21 c-32 25 -59 25 -100 0 -62 -37 -53 -119 17 -155 26 -13 29
-19 20 -35 -21 -40 -81 -76 -178 -106 l-43 -13 -29 63 c-39 86 -66 196 -85
356 -10 74 -19 137 -21 139 -11 11 -2 -118 16 -229 22 -146 42 -217 78 -283
14 -26 23 -49 20 -52 -2 -3 -32 -8 -65 -11 -53 -6 -64 -4 -91 16 -25 19 -32
34 -46 105 -9 45 -14 90 -10 99 13 34 -16 14 -52 -36 -21 -29 -41 -57 -45 -62
-11 -12 -159 68 -203 111 -43 41 -96 119 -96 140 0 7 33 55 73 106 41 50 106
140 145 199 82 122 104 139 266 199 115 43 123 45 101 23z m895 -219 c22 -38
50 -82 62 -97 21 -27 21 -27 3 -99 -9 -40 -29 -100 -43 -133 -30 -69 -112
-209 -119 -203 -7 8 14 96 41 172 26 73 48 185 37 185 -4 0 -15 -35 -25 -77
-36 -160 -43 -156 -44 27 -1 157 -6 252 -18 330 l-6 35 37 -35 c19 -19 54 -66
75 -105z m-403 -152 c-6 -133 -22 -259 -47 -373 l-13 -54 -18 23 c-11 13 -19
33 -19 46 0 12 -7 28 -15 35 -19 16 -19 63 0 99 22 44 71 199 85 271 15 81 18
90 26 90 4 0 4 -62 1 -137z m528 -135 c15 -35 47 -97 71 -138 24 -41 55 -111
70 -155 30 -92 30 -101 -4 -470 -12 -121 -24 -260 -28 -310 l-7 -90 -13 120
c-33 312 -60 491 -75 501 -5 3 -7 -8 -4 -23 13 -77 27 -205 55 -488 17 -170
38 -366 45 -433 13 -112 13 -127 -1 -155 l-17 -31 -29 65 c-16 35 -65 145
-109 245 l-79 181 0 209 c0 248 -14 455 -35 515 -22 62 -51 89 -94 89 -34 1
-35 2 -17 15 26 20 81 19 116 -2 62 -36 90 -130 121 -408 10 -99 22 -184 24
-190 9 -19 -6 230 -21 334 -25 182 -56 256 -122 290 -31 16 -34 21 -19 26 30
12 117 -1 145 -22 39 -28 89 -127 108 -213 23 -107 36 -129 28 -50 -10 116
-64 237 -125 282 -14 11 -47 22 -74 26 -43 6 -46 8 -31 21 29 24 115 25 160 2
22 -11 42 -19 44 -16 12 11 -25 36 -72 50 -45 13 -58 13 -99 1 -25 -8 -65 -28
-87 -46 -22 -17 -40 -28 -40 -24 0 4 22 41 49 83 62 97 84 142 107 214 10 31
21 57 24 57 4 0 20 -28 35 -62z m-1586 -112 c22 -35 76 -88 121 -118 17 -11
22 -19 15 -27 -8 -8 -23 -5 -53 10 -57 28 -65 17 -13 -16 50 -31 72 -65 108
-165 26 -72 66 -147 105 -199 14 -19 16 -26 6 -32 -27 -17 1 -16 76 3 105 27
169 15 230 -42 53 -49 41 -62 -20 -21 -26 17 -56 31 -66 31 -11 0 -28 5 -39
10 -32 18 -22 -7 14 -31 71 -49 146 -132 128 -143 -5 -4 -38 18 -73 48 -34 29
-78 61 -95 70 -31 16 -33 15 -31 -1 4 -46 -2 -62 -19 -56 -10 3 8 -21 40 -53
31 -33 57 -63 57 -67 0 -9 -40 13 -87 47 -18 13 -55 26 -84 30 -47 6 -57 12
-103 64 -28 31 -86 93 -128 139 -114 122 -218 288 -218 348 0 24 88 205 100
205 5 0 18 -15 29 -34z m891 19 c7 -8 15 -35 18 -60 2 -25 11 -50 18 -56 8 -6
14 -19 14 -29 0 -9 27 -59 59 -111 50 -79 57 -96 46 -108 -19 -19 -27 -11 -86
85 -29 48 -63 93 -76 101 -13 9 -23 23 -23 33 0 10 -13 23 -30 30 -75 31 -63
130 15 130 18 0 38 -7 45 -15z m-523 -197 c6 -37 7 -70 2 -80 -12 -23 -11 -75
2 -99 7 -14 7 -29 -2 -54 -10 -25 -10 -43 -2 -70 11 -33 10 -35 -14 -42 -46
-11 -50 10 -37 156 18 197 25 251 33 251 4 0 12 -28 18 -62z m-138 6 c36 -14
47 -15 64 -5 20 13 20 12 13 -50 -3 -35 -9 -98 -12 -139 -3 -41 -8 -82 -10
-90 -7 -21 -48 52 -80 141 -15 41 -35 90 -45 110 -14 28 -15 39 -6 48 6 6 16
10 22 7 5 -2 30 -12 54 -22z m696 -82 c42 -62 44 -67 25 -74 -21 -8 -27 -33
-10 -43 6 -4 -1 -21 -17 -42 -39 -51 -44 -143 -12 -210 13 -26 22 -62 20 -79
-1 -18 4 -36 13 -43 12 -10 15 -27 11 -73 -6 -83 -12 -96 -43 -100 -21 -2 -27
-8 -27 -28 0 -14 -4 -31 -8 -38 -13 -19 -1 -42 22 -42 11 0 23 -9 26 -21 5
-14 14 -19 28 -17 20 3 24 17 46 136 14 72 28 132 32 132 10 0 29 -82 29 -124
0 -28 -4 -35 -22 -38 -20 -3 -23 -9 -25 -55 -2 -52 2 -58 36 -53 7 1 20 -8 28
-19 21 -31 57 -11 51 29 -4 27 -4 27 44 23 37 -3 50 0 54 11 3 9 -6 67 -21
130 -24 100 -26 119 -15 146 l13 31 57 -128 c55 -123 57 -132 63 -233 3 -58
18 -177 32 -265 48 -287 26 -530 -66 -721 -69 -145 -217 -325 -352 -427 -154
-117 -314 -192 -433 -204 -54 -5 -64 -3 -83 16 -11 11 -21 32 -21 46 0 14 -9
48 -19 76 -21 53 -18 84 5 75 8 -3 26 -1 39 4 35 13 123 97 142 135 12 23 0
15 -53 -36 -38 -37 -79 -72 -91 -78 -25 -13 -24 -15 -47 104 -26 141 -28 194
-11 304 13 81 14 113 6 147 -14 55 -14 89 1 139 l11 40 18 -55 c14 -45 17 -50
18 -25 1 39 -44 286 -75 407 -17 68 -22 110 -18 138 7 43 12 47 33 28 22 -21
4 29 -33 92 -58 101 -64 130 -58 313 l2 77 43 0 42 0 0 -115 c0 -63 -1 -115
-3 -115 -1 0 -11 15 -22 33 -17 27 -20 29 -20 10 0 -12 12 -35 26 -52 22 -27
33 -31 73 -31 51 0 139 38 196 84 45 36 24 41 -27 7 -62 -42 -137 -73 -167
-69 -31 4 -38 29 -40 133 -1 95 5 102 57 64 49 -36 87 -37 86 -1 0 16 3 19 10
12 15 -15 66 -12 72 5 3 8 14 17 25 20 30 10 22 42 -23 91 -38 42 -39 44 -11
28 34 -20 63 -13 63 14 0 10 -19 36 -42 59 -32 31 -58 45 -102 56 -32 8 -67
12 -78 9 -26 -6 -38 13 -38 62 0 30 3 37 15 32 21 -8 19 13 -5 49 -31 47 -22
119 10 80 6 -8 26 -19 45 -25 39 -13 157 8 250 45 32 14 60 23 62 21 2 -1 -26
-32 -61 -67 -87 -87 -163 -131 -232 -137 -63 -5 -63 -22 0 -22 68 0 157 51
245 140 42 42 87 95 101 118 32 51 44 45 105 -46z m278 -33 c41 -8 68 -9 98
-1 27 7 49 7 60 2 17 -9 41 -66 53 -122 6 -27 5 -28 -37 -28 -37 0 -48 -5 -82
-41 -46 -47 -90 -69 -137 -69 l-33 1 38 20 c45 24 42 36 -4 20 -37 -13 -69
-14 -69 -3 0 4 21 19 48 31 61 31 37 40 -30 11 -39 -17 -53 -19 -62 -10 -8 9
-8 14 0 17 6 2 30 18 54 35 52 38 37 50 -17 14 -41 -28 -73 -34 -73 -12 0 7
28 37 62 66 33 30 56 56 49 58 -6 2 -18 -1 -25 -8 -11 -8 -16 -8 -21 1 -18 28
37 36 128 18z m-218 -69 c-3 -5 -13 -10 -21 -10 -8 0 -14 5 -14 10 0 6 9 10
21 10 11 0 17 -4 14 -10z m-16 -60 c-74 -78 -62 -198 26 -251 16 -11 23 -19
15 -19 -69 0 -128 156 -89 233 16 31 60 77 74 77 7 0 -5 -18 -26 -40z m81 -90
c20 -19 53 -49 74 -66 20 -17 36 -36 36 -41 0 -17 -64 -25 -131 -17 -57 6 -62
9 -75 40 -18 43 -18 76 1 121 17 41 9 44 95 -37z m379 -250 l1 -245 -49 110
-49 110 -6 146 c-8 162 -7 165 54 171 30 3 36 0 41 -22 4 -14 7 -135 8 -270z
m-126 137 c4 -54 3 -96 -1 -93 -5 3 -21 37 -37 77 l-29 72 29 23 c16 13 30 22
31 21 1 -1 4 -46 7 -100z m-83 48 c0 -16 -30 -75 -39 -75 -5 0 -3 12 5 28 7
15 14 33 14 40 0 6 5 12 10 12 6 0 10 -2 10 -5z m35 -102 c15 -32 78 -175 142
-318 63 -143 133 -300 155 -350 110 -246 119 -268 108 -279 -18 -18 -8 -37
-186 359 -29 66 -102 228 -162 360 -92 203 -108 243 -99 262 6 13 11 23 13 23
1 0 14 -26 29 -57z m-204 6 c11 -11 18 -27 15 -36 -3 -8 -6 -19 -6 -24 0 -4
-14 -16 -30 -24 -17 -9 -28 -20 -25 -25 4 -6 -1 -10 -9 -10 -9 0 -13 6 -10 13
2 7 -4 22 -16 32 -11 10 -20 28 -20 39 0 19 2 18 24 -9 21 -27 26 -28 50 -17
32 14 34 44 4 65 -13 9 -17 16 -10 16 6 1 21 -8 33 -20z m-583 -1 c-7 -19 -38
-22 -38 -4 0 10 9 16 21 16 12 0 19 -5 17 -12z m652 -48 c0 -15 -9 -35 -20
-45 -15 -14 -17 -21 -9 -32 9 -10 7 -13 -9 -13 -29 0 -26 45 4 59 28 12 30 29
9 57 -21 28 -18 40 5 19 11 -10 20 -30 20 -45z m45 40 c16 -18 17 -24 5 -60
-12 -37 -11 -52 13 -157 15 -64 25 -118 22 -121 -6 -7 -11 7 -43 135 -26 102
-27 115 -14 147 12 31 12 37 -2 51 -18 18 -20 25 -8 25 5 0 17 -9 27 -20z
m-625 -55 c52 -53 36 -59 -34 -15 -40 26 -46 33 -36 45 18 21 21 20 70 -30z
m457 -97 c-3 -13 -13 -65 -22 -115 -10 -51 -21 -93 -26 -93 -5 0 -8 5 -6 12 1
6 -9 15 -23 19 -14 4 -20 7 -14 8 22 2 26 35 7 49 -16 13 -15 13 13 8 l31 -7
12 71 c7 38 17 70 23 70 6 0 8 -10 5 -22z m144 -42 c13 -58 13 -65 -2 -74 -14
-9 -17 -4 -23 35 -15 114 1 140 25 39z m-47 -63 c4 -60 10 -116 12 -125 3 -10
1 -18 -5 -18 -11 0 -17 41 -26 168 -3 46 -2 82 4 82 5 0 12 -48 15 -107z m76
-54 c0 -10 -4 -19 -10 -19 -5 0 -10 12 -10 26 0 14 4 23 10 19 6 -3 10 -15 10
-26z m-101 -41 c1 -12 -6 -18 -19 -18 -18 0 -19 2 -8 21 11 18 11 23 -1 27
-11 4 -11 6 0 13 15 9 27 -10 28 -43z m326 -116 l47 -103 -11 -136 c-14 -163
-25 -194 -34 -91 -4 40 -15 125 -26 188 -21 129 -36 258 -28 250 3 -3 27 -52
52 -108z m145 -324 c34 -79 67 -147 71 -153 15 -16 11 -20 -66 -84 l-75 -61 0
220 c0 121 2 220 4 220 1 0 31 -64 66 -142z m-81 -388 c8 -14 32 -45 53 -69
45 -52 54 -78 39 -123 -12 -37 -96 -148 -111 -148 -6 0 -10 21 -10 48 -1 26
-5 135 -10 242 -7 143 -6 218 3 280 l12 85 5 -145 c3 -98 10 -153 19 -170z
m99 -26 l-3 -57 -37 48 c-21 27 -38 57 -38 67 0 10 17 37 38 60 l37 41 3 -51
c2 -28 2 -77 0 -108z m-148 -339 c6 -143 13 -290 16 -327 7 -76 13 -70 -99
-103 -47 -14 -80 -16 -165 -11 -88 5 -112 4 -137 -9 -48 -26 -116 -29 -220
-10 l-97 17 63 35 c53 29 158 99 230 152 18 13 19 10 19 -63 0 -48 4 -76 11
-76 7 0 10 28 8 84 l-3 83 69 76 c134 150 224 296 254 415 6 23 17 61 24 85
l12 42 2 -65 c1 -36 7 -182 13 -325z m-60 -485 l0 -40 -64 0 c-77 0 -96 6 -96
31 0 16 8 19 43 20 33 0 81 12 115 28 1 0 2 -17 2 -39z m-730 -15 c0 -29 -24
-38 -95 -33 -49 3 -77 27 -33 29 13 0 43 6 68 13 25 8 48 14 53 15 4 0 7 -10
7 -24z m646 -51 c65 -8 72 -24 10 -24 -51 0 -96 14 -96 31 0 6 7 8 16 5 9 -3
40 -9 70 -12z m109 7 c8 -14 -13 -24 -33 -16 -14 5 -14 7 -2 15 19 12 27 12
35 1z m-885 -23 c0 -13 -23 -5 -28 10 -2 7 2 10 12 6 9 -3 16 -11 16 -16z
m140 13 c0 -12 -25 -21 -58 -21 -31 0 -19 16 18 23 14 2 28 5 33 6 4 0 7 -3 7
-8z m-100 -17 c0 -8 -4 -12 -10 -9 -5 3 -10 10 -10 16 0 5 5 9 10 9 6 0 10 -7
10 -16z m747 -24 c40 0 44 -3 63 -41 l21 -40 -29 -34 c-17 -18 -35 -49 -42
-69 -6 -20 -15 -36 -20 -36 -16 0 -80 152 -80 192 0 37 2 40 23 34 12 -3 41
-6 64 -6z m203 -152 c64 -56 63 -73 -1 -24 -48 36 -86 81 -113 133 -30 59 -16
57 22 -3 21 -33 63 -81 92 -106z m-990 135 c0 -33 -12 -63 -25 -63 -9 0 -10 9
-2 40 11 41 27 54 27 23z m136 2 c4 -9 3 -44 0 -78 l-7 -63 -38 37 c-32 32
-37 43 -33 73 2 22 10 37 21 39 33 9 52 7 57 -8z m-100 -35 c-9 -59 -56 -170
-71 -170 -9 0 -3 25 21 83 18 45 34 92 34 105 0 12 5 22 11 22 8 0 9 -13 5
-40z m-56 -60 c0 -5 -9 -10 -21 -10 -11 0 -17 5 -14 10 3 6 13 10 21 10 8 0
14 -4 14 -10z m756 -97 c-3 -4 -17 -1 -31 5 -26 12 -33 49 -18 88 5 15 12 7
31 -34 13 -30 21 -56 18 -59z m139 63 c-14 -14 -31 -40 -37 -57 -6 -18 -14
-27 -20 -21 -12 12 4 51 37 91 17 20 31 29 37 23 6 -6 0 -19 -17 -36z m-800
18 c13 -8 28 -28 33 -44 10 -27 9 -27 -29 11 -51 51 -53 65 -4 33z m76 -57
c-13 -13 -14 5 -3 43 l7 25 3 -29 c2 -16 -1 -33 -7 -39z m-191 33 c0 -5 -12
-10 -27 -10 -22 0 -25 2 -13 10 20 13 40 13 40 0z m972 -4 c16 -12 16 -14 -7
-36 -14 -13 -27 -31 -31 -42 -6 -20 -12 -22 -33 -9 -16 10 -8 39 20 75 23 29
27 30 51 12z m-856 -31 c32 -42 26 -57 -8 -22 -13 13 -30 26 -38 29 -14 4 -6
28 10 28 5 0 21 -16 36 -35z m-136 -5 c0 -5 -17 -10 -37 -10 -28 0 -34 3 -23
10 20 13 60 13 60 0z m1015 -32 c-14 -16 -25 -34 -25 -39 0 -5 -4 -9 -10 -9
-19 0 -10 34 17 62 35 36 51 25 18 -14z m184 -8 c38 -34 41 -49 5 -21 -15 12
-34 21 -43 21 -13 -1 -12 -3 4 -12 34 -19 57 -58 36 -58 -5 0 -13 9 -16 20 -3
11 -17 23 -30 26 -35 9 -51 30 -35 49 16 19 41 12 79 -25z m-1079 5 c13 -14
21 -27 18 -30 -2 -3 -13 4 -23 15 -10 11 -24 20 -31 20 -7 0 -16 5 -19 10 -13
21 33 9 55 -15z m78 -12 c-14 -16 -33 -43 -43 -61 -21 -42 -82 -71 -151 -72
-51 0 -108 14 -132 33 -21 16 -7 18 29 3 19 -7 59 -17 89 -20 47 -6 62 -3 100
17 27 14 52 36 62 56 20 39 47 71 61 71 6 0 -1 -12 -15 -27z m634 -3 c32 -6
79 -23 105 -37 56 -30 143 -56 193 -57 20 0 55 9 78 21 31 15 42 17 42 7 0 -7
-25 -21 -55 -30 -49 -16 -63 -16 -118 -5 -34 7 -96 27 -137 46 -41 18 -91 36
-110 40 -49 9 -90 26 -90 37 0 5 7 5 18 -1 9 -5 43 -14 74 -21z m-827 4 c20
-13 28 -14 39 -4 17 13 41 4 69 -28 17 -19 17 -20 -18 -41 -34 -20 -95 -29
-95 -14 0 4 10 17 22 30 12 13 18 26 15 30 -9 8 -57 -37 -57 -54 0 -7 -7 -13
-15 -13 -8 0 -15 6 -15 14 0 7 7 19 15 26 8 7 15 18 15 24 0 6 -14 -4 -31 -22
-35 -39 -45 -38 -23 2 19 38 12 44 -14 12 -24 -32 -39 -35 -18 -4 22 32 20 44
-4 23 -19 -18 -20 -18 -14 -1 14 36 88 47 129 20z m1098 -8 c15 -14 36 -27 47
-31 24 -8 26 -23 4 -32 -19 -7 -133 12 -146 25 -12 12 29 62 51 62 10 0 30
-11 44 -24z"/>
<path d="M5095 4776 c-19 -15 -18 -16 20 -10 22 3 59 1 83 -4 27 -6 44 -6 48
0 9 15 1 18 -67 24 -50 5 -68 2 -84 -10z"/>
<path d="M5133 4740 c-13 -5 -23 -14 -23 -19 0 -6 7 -8 15 -5 8 4 21 1 29 -5
10 -8 16 -8 26 4 7 8 16 12 21 9 5 -3 9 -1 9 4 0 21 -40 27 -77 12z"/>
<path d="M4910 4711 c0 -5 7 -12 16 -15 11 -4 15 -14 12 -31 -3 -14 1 -33 8
-42 14 -20 31 -12 18 9 -5 7 -7 21 -5 31 1 10 -5 27 -15 38 -18 20 -34 25 -34
10z"/>
<path d="M5038 4634 c13 -24 40 -49 47 -42 3 2 -9 18 -26 34 -24 22 -29 24
-21 8z"/>
<path d="M5170 4539 c-6 -11 -10 -25 -8 -30 2 -5 8 4 15 21 13 34 9 40 -7 9z"/>
<path d="M5223 4523 c-48 -9 -20 -18 47 -15 39 2 68 8 64 13 -5 9 -69 10 -111
2z"/>
<path d="M5254 4469 c12 -8 25 -8 40 -1 18 9 16 11 -19 11 -33 0 -37 -1 -21
-10z"/>
<path d="M5081 4343 c-1 -19 48 -127 55 -120 4 3 -7 34 -24 69 -17 35 -31 58
-31 51z"/>
<path d="M5237 4295 c-9 -19 -13 -35 -8 -35 10 0 36 58 29 65 -2 3 -12 -11
-21 -30z"/>
<path d="M5448 3945 c-4 -77 -10 -167 -12 -200 l-5 -60 15 70 c9 47 13 114 12
200 l-3 130 -7 -140z"/>
<path d="M5616 3925 c-4 -77 -18 -205 -32 -285 -14 -80 -28 -161 -31 -180 -9
-52 5 -31 21 31 39 153 70 442 57 529 -5 35 -9 13 -15 -95z"/>
<path d="M4862 4184 c96 -176 223 -321 303 -348 13 -4 9 2 -10 16 -59 42 -163
158 -219 241 -31 47 -61 89 -67 93 -7 4 -10 3 -7 -2z"/>
<path d="M4614 4105 c14 -52 27 -123 41 -241 9 -71 18 -130 21 -133 14 -15
-17 275 -37 338 -12 38 -36 72 -25 36z"/>
<path d="M4708 3925 c-14 -130 -4 -462 13 -420 9 24 9 307 0 415 l-6 75 -7
-70z"/>
<path d="M4556 3878 c-8 -69 -6 -205 4 -243 5 -18 8 36 9 133 0 89 -1 162 -3
162 -2 0 -6 -24 -10 -52z"/>
<path d="M4896 3778 c28 -93 70 -194 100 -242 20 -31 38 -55 40 -53 2 2 -12
32 -31 68 -19 35 -51 106 -71 157 -20 50 -38 92 -41 92 -2 0 -1 -10 3 -22z"/>
<path d="M4770 3441 c12 -24 61 -63 68 -56 7 6 -58 75 -70 75 -5 0 -4 -9 2
-19z"/>
<path d="M5816 3597 c-57 -32 -57 -53 0 -22 26 14 58 25 70 25 13 0 24 5 24
10 0 18 -54 10 -94 -13z"/>
<path d="M4234 3453 c9 -17 20 -35 26 -38 18 -11 10 10 -16 40 l-25 30 15 -32z"/>
<path d="M5105 3637 c-10 -25 21 -57 54 -56 23 2 23 2 4 6 -25 5 -39 20 -45
48 -5 19 -5 19 -13 2z"/>
<path d="M5210 3525 c-15 -8 -19 -14 -10 -14 18 -1 46 16 40 23 -3 2 -16 -2
-30 -9z"/>
<path d="M5138 3351 c-31 -26 -77 -57 -102 -70 -49 -24 -64 -49 -18 -29 60 27
126 76 167 126 26 31 18 27 -47 -27z"/>
<path d="M4845 3318 c-22 -5 -57 -7 -77 -4 -48 8 -51 -11 -3 -20 35 -6 117 9
145 26 12 8 11 10 -5 9 -11 -1 -38 -5 -60 -11z"/>
<path d="M5135 3254 c-54 -32 -157 -64 -214 -65 -25 -1 -57 -4 -71 -8 -53 -15
72 -21 141 -7 81 17 199 76 199 100 0 10 -13 6 -55 -20z"/>
<path d="M5081 3140 c-24 -16 -59 -35 -77 -42 -37 -13 -48 -34 -11 -22 42 13
92 42 116 68 31 33 26 33 -28 -4z"/>
<path d="M5135 3038 c-16 -29 -89 -128 -148 -205 -10 -12 -14 -23 -8 -23 15 0
132 150 165 211 30 54 22 69 -9 17z"/>
<path d="M5112 2797 c-134 -212 -270 -357 -367 -391 -32 -11 -35 -15 -16 -15
70 -2 217 123 317 269 59 86 147 240 141 246 -2 2 -36 -47 -75 -109z"/>
<path d="M5201 2416 c-131 -332 -337 -659 -428 -682 -25 -7 -32 -24 -9 -24 21
0 81 44 123 91 114 126 246 369 332 613 46 131 33 132 -18 2z"/>
<path d="M5531 2399 c-65 -338 -139 -564 -272 -831 -43 -87 -77 -158 -75 -158
3 0 25 33 50 73 86 138 177 359 236 576 46 165 93 400 88 438 -2 14 -14 -30
-27 -98z"/>
<path d="M5340 2439 c-85 -316 -244 -734 -347 -907 -25 -43 -52 -90 -60 -107
l-16 -30 22 20 c31 27 103 146 147 240 92 202 210 538 254 729 22 89 21 134 0
55z"/>
<path d="M5632 1330 c0 -100 3 -164 8 -149 4 15 4 93 0 175 l-7 149 -1 -175z"/>
<path d="M5521 804 c-1 -16 6 -39 14 -50 18 -24 18 -20 1 36 -13 41 -15 42
-15 14z"/>
</g>
</svg>
