<?xml version="1.0" standalone="no"?>
<!DOCTYPE svg PUBLIC "-//W3C//DTD SVG 20010904//EN"
 "http://www.w3.org/TR/2001/REC-SVG-20010904/DTD/svg10.dtd">
<svg version="1.0" xmlns="http://www.w3.org/2000/svg"
 width="1024.000000pt" height="559.000000pt" viewBox="0 0 1024.000000 559.000000"
 preserveAspectRatio="xMidYMid meet">
<metadata>
Created by potrace 1.16, written by Peter Selinger 2001-2019
</metadata>
<g transform="translate(0.000000,559.000000) scale(0.100000,-0.100000)"
fill="#000000" stroke="none">
<path d="M5005 5270 c-220 -26 -374 -150 -450 -362 -21 -57 -32 -222 -16 -232
6 -4 39 3 74 15 49 18 81 23 149 22 l88 -2 15 52 c27 91 85 154 157 172 24 6
29 3 38 -20 13 -35 -1 -61 -37 -68 -83 -17 -180 -123 -190 -208 -2 -24 -12
-61 -20 -81 -12 -29 -14 -56 -10 -113 l7 -75 -33 -16 c-55 -28 -97 -64 -97
-84 0 -30 37 -43 142 -48 54 -3 98 -8 98 -13 0 -15 -58 -39 -95 -39 -20 0 -50
-8 -68 -17 -18 -9 -48 -17 -68 -18 -22 -1 -50 -11 -70 -26 -19 -14 -55 -33
-82 -43 -56 -21 -88 -59 -112 -136 -18 -55 -93 -231 -121 -282 -19 -34 -18
-58 3 -73 15 -11 15 -16 -6 -66 l-23 -53 21 -17 22 -18 -25 -78 c-35 -111 -50
-210 -43 -295 3 -41 1 -81 -4 -91 -6 -10 -6 -24 -1 -34 6 -11 5 -53 -4 -111
-16 -116 -19 -126 -44 -119 -10 3 -26 0 -35 -7 -22 -16 -9 -99 21 -135 l23
-27 -24 -260 c-13 -142 -29 -315 -35 -384 -6 -69 -18 -188 -26 -265 -7 -77
-15 -192 -16 -255 -3 -106 -1 -118 21 -155 52 -86 153 -165 212 -165 19 0 20
4 15 47 -23 202 -23 203 49 203 52 0 80 -20 95 -68 17 -50 36 -70 82 -84 40
-12 42 -15 52 -93 4 -28 1 -44 -11 -57 -11 -12 -13 -26 -9 -45 4 -15 8 -71 9
-123 3 -99 1 -106 -64 -245 -10 -22 -20 -67 -21 -99 l-3 -60 40 -22 c76 -44
222 -43 273 1 32 27 35 65 16 208 -12 95 -12 197 0 228 4 8 3 26 -2 39 -6 16
-4 32 5 49 17 33 16 46 -2 64 -12 13 -13 24 -4 70 l11 54 97 -1 c80 -1 102 2
131 20 28 16 36 27 40 59 6 48 33 61 101 51 42 -6 45 -9 57 -49 28 -100 33
-141 21 -164 -10 -18 -10 -31 1 -62 7 -21 10 -43 7 -48 -4 -6 -2 -27 4 -47 8
-30 7 -46 -6 -78 -8 -22 -18 -80 -21 -129 l-4 -88 29 -16 c17 -8 58 -19 93
-24 35 -5 106 -24 158 -42 76 -26 112 -32 180 -33 106 -1 150 18 150 64 0 49
-57 130 -91 130 -10 0 -19 4 -21 8 -1 4 -37 33 -78 64 -124 91 -124 93 -128
214 -4 94 -6 104 -23 104 -17 0 -19 8 -19 63 0 34 3 79 6 99 6 34 11 39 46 48
27 8 45 21 58 43 30 50 39 57 74 57 l34 0 7 -105 c4 -58 11 -105 16 -105 44 0
129 63 153 114 15 31 14 51 -14 307 -16 151 -38 346 -49 434 -11 88 -27 246
-35 350 -9 105 -20 242 -26 305 -5 63 -12 153 -15 200 -3 47 -8 113 -11 148
-6 61 -6 62 18 62 13 0 29 -5 35 -11 6 -6 28 -12 49 -14 98 -6 193 -18 204
-25 22 -14 -117 -422 -162 -477 -13 -17 8 -70 33 -83 56 -30 99 4 110 88 5 35
29 124 55 200 74 221 74 222 100 222 25 0 84 63 84 90 0 9 5 21 11 27 5 5 12
33 15 61 4 43 1 54 -17 71 -24 22 -21 58 8 86 9 9 20 40 24 68 5 29 15 56 22
62 22 16 37 51 37 88 0 46 18 96 47 131 18 21 24 39 21 65 -3 43 17 108 44
137 11 12 16 28 12 38 -4 11 2 23 19 36 57 45 60 129 6 174 -74 63 -181 -6
-165 -107 4 -24 2 -45 -5 -53 -6 -7 -13 -26 -14 -41 -10 -77 -26 -138 -42
-160 -37 -52 -43 -69 -38 -99 6 -37 -9 -84 -33 -102 -11 -9 -17 -29 -18 -68
-1 -34 -8 -62 -18 -73 -9 -10 -16 -29 -16 -44 0 -50 -17 -77 -48 -77 -16 0
-37 -9 -47 -20 -10 -11 -24 -20 -32 -20 -20 0 -115 42 -131 57 -7 7 -18 13
-24 13 -20 0 -140 64 -145 77 -3 8 3 23 13 34 17 19 17 21 -4 65 -20 41 -21
47 -7 67 17 24 20 63 6 71 -5 3 -12 22 -15 41 -10 50 -57 162 -91 215 -16 25
-30 55 -31 67 -5 45 -16 62 -52 84 -20 13 -54 38 -75 56 -28 25 -46 33 -75 33
-26 0 -45 7 -57 20 -11 12 -31 20 -52 20 l-34 0 20 28 c37 49 51 134 52 309 0
90 5 163 10 163 5 0 9 11 9 25 0 17 -8 29 -25 37 -14 6 -25 15 -25 20 0 13 52
10 134 -8 104 -23 110 -19 103 64 -15 175 -133 357 -282 432 -60 30 -177 61
-225 58 -14 0 -52 -4 -85 -8z m216 -35 c28 -8 53 -15 55 -18 2 -2 -13 -45 -34
-95 -32 -79 -40 -91 -57 -85 -11 3 -22 7 -24 9 -2 2 4 37 14 79 10 41 16 78
13 80 -3 3 -14 -31 -24 -75 -10 -44 -23 -80 -27 -80 -7 0 -5 32 8 140 3 25 2
30 -4 15 -4 -11 -12 -50 -15 -87 -8 -71 -26 -94 -26 -33 0 19 -4 35 -9 35 -6
0 -7 -16 -4 -36 5 -33 4 -36 -17 -32 -21 3 -26 13 -41 93 -10 50 -18 93 -18
97 -2 20 123 16 210 -7z m-210 -52 c6 -32 15 -75 19 -96 9 -43 -6 -62 -16 -20
-14 61 -35 143 -40 158 -4 9 0 15 9 15 11 0 19 -18 28 -57z m-30 -28 c10 -38
20 -80 23 -91 4 -14 0 -24 -9 -28 -10 -4 -20 11 -36 55 -27 75 -36 72 -10 -4
l20 -56 -34 -20 -33 -19 -62 74 -61 75 23 19 c35 30 120 70 142 67 16 -1 24
-17 37 -72z m431 -32 l42 -43 -64 -61 c-69 -65 -58 -61 24 9 l49 42 19 -27
c10 -16 18 -31 18 -35 0 -4 -32 -26 -71 -49 l-71 -41 -26 25 c-24 24 -24 27
-9 49 42 58 46 70 12 31 -37 -42 -38 -43 -65 -26 l-28 16 34 73 c18 41 31 74
29 74 -3 0 -21 -32 -41 -71 -19 -39 -38 -69 -41 -65 -3 3 7 36 22 73 15 37 31
78 36 91 l9 23 39 -22 c22 -12 59 -42 83 -66z m-650 21 c-28 -25 -52 -51 -52
-57 0 -7 12 1 26 16 13 16 28 27 33 25 5 -2 34 -34 65 -73 l56 -70 -28 -28
-28 -28 -53 35 c-29 20 -58 36 -64 36 -5 0 18 -18 51 -40 43 -27 60 -44 56
-54 -5 -14 -9 -14 -34 -1 -43 22 -50 18 -11 -6 50 -30 26 -42 -39 -20 -30 11
-70 23 -88 28 l-34 8 36 69 c20 38 34 71 32 74 -6 5 -66 -99 -66 -115 0 -6 -4
-13 -8 -15 -8 -3 -42 -169 -42 -206 0 -12 -4 -22 -10 -22 -15 0 -12 98 5 164
32 121 103 228 199 298 58 42 57 34 -2 -18z m465 -142 c57 -29 108 -84 138
-148 31 -65 32 -94 5 -94 -15 0 -27 14 -42 48 -12 26 -24 50 -26 53 -8 17 35
2 46 -16 12 -19 12 -18 6 5 -7 27 -24 51 -24 34 0 -21 -38 -7 -80 29 -28 24
-61 40 -95 48 -38 8 -52 16 -48 25 3 9 -2 14 -12 14 -11 0 -15 -5 -12 -14 7
-19 -53 -31 -65 -14 -14 23 -9 26 45 32 62 7 122 -4 122 -24 0 -7 5 -15 12
-17 7 -3 11 4 10 17 -3 45 -149 52 -242 11 -27 -12 -46 -24 -42 -27 3 -3 20 2
37 11 26 13 35 14 44 4 8 -9 8 -10 -3 -4 -10 6 -13 4 -8 -7 3 -10 -4 -20 -21
-29 -15 -7 -42 -26 -60 -43 -25 -23 -35 -27 -44 -18 -9 9 -5 19 17 42 16 16
24 30 18 30 -17 0 -71 -78 -89 -129 -26 -75 -35 -91 -28 -51 18 100 107 211
197 244 61 23 189 16 244 -12z m311 -64 c38 -102 41 -94 -35 -105 l-68 -10 63
0 c71 0 82 -8 82 -62 0 -29 -3 -33 -22 -28 -13 3 -51 11 -85 18 -59 12 -62 14
-69 48 -4 20 -7 39 -6 44 1 4 -2 7 -6 7 -5 0 -14 11 -20 25 -11 23 -9 27 26
49 74 46 107 66 114 66 4 0 15 -24 26 -52z m-436 -28 c2 -27 0 -40 -9 -40 -7
0 -10 6 -7 13 3 8 0 26 -5 40 -8 21 -8 27 3 27 9 0 15 -15 18 -40z m91 14 c42
-21 75 -52 93 -86 8 -16 13 -28 10 -28 -2 0 -28 11 -58 25 -29 14 -62 25 -73
25 -29 0 -45 19 -45 52 0 33 23 37 73 12z m-487 -45 c79 -24 87 -29 78 -52 -4
-12 -17 -15 -57 -12 -29 2 -41 2 -27 -1 59 -11 70 -15 70 -24 0 -6 -15 -10
-32 -11 -18 0 -51 -4 -73 -9 -31 -7 -23 -8 33 -3 63 4 71 3 66 -11 -4 -10 -18
-16 -39 -16 -19 0 -44 -4 -57 -9 -13 -4 -35 -11 -50 -15 -25 -6 -28 -4 -28 19
0 57 23 165 35 165 7 0 44 -9 81 -21z m153 -69 c-7 -19 -18 -30 -29 -30 -16 0
-17 5 -11 28 5 16 15 38 22 50 13 21 14 21 21 2 4 -11 2 -33 -3 -50z m293 3
c35 -37 45 -71 21 -69 -10 1 -28 7 -41 14 -24 14 -126 11 -140 -3 -4 -4 3 -4
16 -1 31 10 27 -1 -8 -19 -33 -17 -66 -20 -74 -6 -12 19 7 39 42 44 139 21
142 21 173 -2 16 -12 29 -17 29 -12 0 35 -102 53 -168 30 -57 -20 -58 -2 -2
25 73 35 119 34 152 -1z m36 5 c30 -33 46 -78 27 -78 -7 0 -17 10 -20 23 -4
12 -19 34 -33 50 -19 19 -22 27 -11 27 9 0 25 -10 37 -22z m72 -31 c0 -47 -16
-47 -38 -3 l-21 45 29 -11 c21 -7 30 -17 30 -31z m56 -34 c21 -27 23 -35 10
-30 -10 4 -22 7 -27 7 -4 0 -6 7 -3 15 7 17 -7 20 -23 4 -7 -7 -9 -3 -6 15 7
35 15 33 49 -11z m-476 -4 c0 -12 -29 -24 -37 -16 -3 4 -3 13 0 21 6 16 37 11
37 -5z m278 5 c36 -10 26 -21 -25 -28 -64 -9 -195 -46 -210 -58 -15 -12 -16
-18 -4 -36 6 -10 24 -8 86 13 89 29 123 31 132 9 3 -8 11 -13 18 -11 6 3 12
-1 12 -8 0 -7 -6 -11 -14 -8 -7 3 -13 -1 -13 -10 0 -13 -28 -27 -57 -27 -6 0
-13 12 -15 27 -2 14 -10 28 -18 30 -9 2 -10 1 -2 -3 19 -9 15 -44 -5 -43 -11
0 -13 3 -5 6 6 2 12 9 12 14 0 6 -5 7 -12 3 -7 -4 -8 -3 -4 4 4 7 2 12 -3 12
-14 0 -14 -33 0 -47 8 -8 1 -14 -24 -22 -32 -11 -37 -10 -61 13 -15 16 -31 23
-40 20 -20 -8 -20 10 0 69 19 57 36 73 54 52 18 -21 44 -19 98 10 49 26 62 29
100 19z m212 -47 c41 -9 56 -17 59 -31 3 -18 2 -18 -13 -4 -41 42 -254 40
-399 -4 -38 -11 -71 -18 -74 -15 -7 7 118 44 187 56 76 12 175 11 240 -2z
m-132 -42 c-9 -20 -9 -28 2 -38 10 -9 11 -9 6 1 -4 7 -5 20 -2 29 5 13 9 12
26 -7 26 -30 26 -38 -1 -14 -21 19 -21 19 -18 -1 3 -15 -3 -20 -33 -26 -37 -6
-38 -5 -38 23 0 18 -6 31 -17 36 -14 5 -12 8 12 13 17 4 40 7 52 8 21 1 22 -1
11 -24z m127 6 c3 -5 1 -12 -5 -16 -16 -10 -12 -42 7 -49 9 -4 20 -2 23 4 5 8
9 6 14 -5 5 -14 0 -15 -42 -9 -56 8 -57 8 -57 42 0 17 -5 26 -13 24 -8 -1 -11
2 -7 8 8 13 72 13 80 1z m9 -36 c-4 -8 -8 -15 -10 -15 -2 0 -4 7 -4 15 0 8 4
15 10 15 5 0 7 -7 4 -15z m-443 -55 c10 -6 19 -18 19 -26 0 -11 5 -14 18 -9
63 24 143 38 247 42 122 5 185 -3 193 -25 3 -9 -3 -10 -25 -1 -51 20 -219 14
-331 -11 l-102 -23 -25 27 c-35 37 -33 46 6 26z m-17 -26 c21 -20 21 -41 1
-24 -8 7 -22 9 -31 6 -14 -5 -16 -16 -10 -69 4 -34 8 -73 9 -86 2 -19 -8 -29
-46 -50 -26 -15 -55 -35 -65 -45 -9 -10 12 -2 48 17 36 20 70 45 76 56 14 27
25 16 18 -18 -3 -15 1 -44 10 -64 l15 -37 -47 0 c-26 0 -65 5 -87 11 -22 6
-46 11 -52 11 -26 2 -11 20 52 60 l65 42 -7 83 c-5 72 -3 86 12 103 22 24 20
24 39 4z m465 -14 c12 -7 9 -9 -14 -10 -16 0 -37 -4 -45 -10 -9 -6 -17 -5 -23
3 -9 12 -5 -33 9 -121 l7 -44 -39 4 c-22 1 -42 10 -46 18 -6 11 -7 10 -5 -4 1
-11 11 -20 22 -21 11 -1 25 -4 30 -6 6 -1 21 1 33 5 24 8 25 15 6 78 -4 13 0
15 18 12 l23 -5 -22 10 c-26 12 -32 34 -7 24 9 -3 19 -1 23 6 10 16 41 3 41
-18 -1 -9 -7 -27 -15 -41 -8 -14 -14 -49 -15 -78 0 -32 -7 -66 -20 -89 -11
-21 -20 -48 -20 -60 0 -17 -7 -23 -35 -29 -54 -10 -85 2 -85 31 0 15 -14 40
-35 62 -25 27 -34 44 -30 58 20 69 19 73 -24 111 -34 31 -41 43 -41 75 l0 38
58 6 c31 4 62 8 67 11 17 7 167 -6 184 -16z m-326 -52 c4 -33 14 -50 42 -74
35 -29 36 -32 27 -68 -13 -44 -8 -60 30 -104 33 -38 35 -57 9 -72 -50 -26
-129 -3 -178 53 -41 46 -55 95 -41 144 5 20 8 53 6 75 -2 21 1 38 6 38 5 0 6
-35 2 -85 -5 -64 -3 -94 8 -120 8 -19 17 -35 20 -35 3 0 -2 16 -10 36 -18 43
-15 86 6 91 13 4 13 3 0 -6 -13 -9 -13 -14 -2 -31 7 -11 10 -26 6 -32 -4 -6
-3 -8 4 -4 6 3 13 2 17 -4 3 -5 2 -10 -4 -10 -5 0 -8 -12 -7 -27 4 -34 46 -70
91 -79 72 -13 92 19 45 73 -30 33 -32 40 -26 85 6 46 5 50 -29 82 -26 25 -35
42 -35 66 l0 32 -52 -6 -53 -5 45 13 c66 20 67 20 73 -26z m-153 12 c0 -11 -4
-20 -10 -20 -5 0 -10 9 -10 20 0 11 5 20 10 20 6 0 10 -9 10 -20z m490 5 c0
-9 -6 -12 -15 -9 -8 4 -15 10 -15 15 0 5 7 9 15 9 8 0 15 -7 15 -15z m19 -55
c-1 -38 -6 -67 -11 -64 -4 3 -8 -12 -7 -33 0 -30 2 -34 9 -18 8 20 9 20 9 -1
1 -32 -27 -116 -48 -143 l-18 -24 0 28 c0 16 7 46 17 68 14 31 19 36 23 21 2
-11 2 11 -1 47 -3 44 -1 69 7 73 6 4 11 32 11 62 0 30 2 54 6 54 3 0 4 -31 3
-70z m-379 27 c0 -25 24 -65 52 -85 15 -11 17 -22 12 -66 -6 -49 -4 -55 27
-90 26 -31 30 -39 18 -47 -20 -12 -35 -11 -22 2 14 14 6 39 -12 39 -21 0 -28
-19 -15 -35 17 -20 7 -19 -41 5 -33 17 -39 25 -33 42 8 26 -15 100 -29 91 -5
-3 -7 0 -5 8 3 8 12 13 19 11 8 -1 4 6 -8 17 -30 25 -34 117 -5 124 35 9 42 7
42 -16z m-103 -82 c-2 -16 -7 -12 -20 18 -13 31 -14 42 -4 58 11 18 13 16 20
-18 4 -21 6 -47 4 -58z m183 -185 c0 -5 -4 -10 -10 -10 -5 0 -10 5 -10 10 0 6
5 10 10 10 6 0 10 -4 10 -10z m-86 -46 c39 -22 55 -25 99 -20 68 7 66 7 108 0
35 -6 37 -8 43 -52 9 -63 -7 -77 -84 -76 -64 1 -121 28 -190 90 -29 26 -36 39
-32 59 2 14 5 25 7 25 1 0 23 -12 49 -26z m-79 -15 c-10 -15 76 -94 132 -122
89 -45 176 -43 218 3 16 18 17 26 8 51 -12 30 -5 37 15 17 7 -7 12 -29 12 -49
0 -32 -4 -38 -32 -50 -19 -8 -68 -14 -118 -14 -84 0 -86 0 -155 46 -87 57
-109 81 -100 108 3 12 11 21 16 21 6 0 7 -5 4 -11z m-49 -8 c-3 -5 5 -29 19
-54 l25 -45 -24 -4 c-19 -4 -33 3 -57 28 -18 19 -41 36 -51 40 -24 7 -23 19 5
32 27 13 90 16 83 3z m454 5 c0 -9 -40 -13 -46 -5 -3 5 6 9 20 9 14 0 26 -2
26 -4z m91 -42 c29 -31 32 -101 5 -154 l-18 -35 23 23 c20 19 24 32 24 87 0
63 1 65 25 65 61 0 92 -58 93 -174 0 -47 2 -54 9 -35 5 13 6 50 3 82 -4 31 -4
57 0 57 16 0 63 -31 69 -45 31 -83 -62 -242 -183 -313 -39 -23 -58 -27 -122
-27 -69 0 -83 4 -162 43 -64 31 -108 63 -169 121 -53 51 -79 82 -74 90 6 9 25
-4 64 -42 32 -29 68 -59 82 -66 17 -9 14 -4 -10 16 -59 48 -111 96 -107 99 2
2 41 -18 86 -45 76 -46 206 -99 217 -89 2 3 -15 11 -38 18 -85 25 -266 129
-241 137 6 2 30 -5 52 -16 47 -25 102 -44 190 -66 53 -13 73 -14 110 -5 64 16
129 56 152 93 30 50 23 50 -30 -3 -34 -34 -64 -53 -103 -65 -52 -17 -59 -17
-129 -1 -114 26 -230 76 -241 105 -7 19 -5 22 8 17 8 -3 59 -9 112 -12 111 -7
199 12 239 52 29 29 30 69 2 84 -20 11 -20 11 -5 -12 14 -22 14 -26 -1 -49
l-18 -24 -6 35 c-3 19 -9 42 -13 52 -5 11 -2 18 11 21 44 11 70 6 94 -19z
m-656 -3 c46 -21 102 -76 87 -85 -6 -3 -25 6 -43 21 -18 16 -29 22 -25 14 7
-11 3 -13 -20 -7 -21 4 -15 -2 21 -20 61 -32 57 -28 50 -47 -6 -13 -13 -13
-63 5 -80 29 -177 35 -222 14 -19 -9 -26 -14 -15 -11 17 4 16 2 -5 -15 -14
-12 -36 -33 -49 -48 l-24 -27 7 30 c10 41 55 96 97 117 20 11 58 18 94 19 59
1 60 1 26 13 -26 9 -30 14 -20 23 34 26 54 27 104 4z m1804 -18 c24 -21 41
-103 21 -103 -8 0 -10 9 -6 28 6 26 6 26 -9 8 -11 -14 -15 -16 -15 -5 0 8 -9
1 -20 -16 -18 -28 -20 -28 -20 -7 0 26 -17 29 -37 5 -13 -16 -14 -15 -8 10 4
19 2 26 -5 22 -5 -3 -10 -15 -10 -26 0 -10 -4 -19 -10 -19 -5 0 -10 9 -10 20
0 11 5 20 10 20 6 0 10 10 10 23 l0 22 18 -23 c14 -18 20 -20 30 -10 9 9 12 9
12 -4 0 -9 5 -20 12 -24 7 -5 9 0 6 14 -5 18 -3 20 12 12 13 -7 20 -6 24 6 4
12 1 14 -14 9 -16 -5 -20 -2 -20 14 0 25 -25 28 -38 5 -7 -13 -11 -14 -17 -4
-9 15 20 40 46 40 9 0 26 -8 38 -17z m-1582 -54 c49 -35 53 -40 28 -35 -26 6
-111 76 -93 76 4 0 33 -19 65 -41z m1543 31 c0 -5 -4 -10 -10 -10 -5 0 -10 5
-10 10 0 6 5 10 10 10 6 0 10 -4 10 -10z m-1570 -60 c24 -24 25 -38 4 -68 -30
-44 -114 -18 -114 35 0 22 39 53 65 53 14 0 34 -9 45 -20z m-312 -24 c60 -31
107 -98 146 -204 39 -109 31 -212 -22 -269 -34 -37 -39 -15 -8 32 47 69 43
183 -11 290 -39 76 -64 105 -118 136 -50 29 -39 42 13 15z m58 -1 c12 -8 24
-12 27 -9 11 12 93 -22 119 -48 14 -15 35 -28 47 -28 12 0 21 -4 21 -9 0 -5
20 -31 45 -59 25 -28 52 -69 60 -92 19 -53 19 -71 0 -46 -19 24 -49 14 -40
-14 10 -31 -1 -24 -24 15 -11 20 -28 35 -38 34 -14 0 -14 -2 4 -9 12 -5 25
-21 29 -35 4 -15 16 -30 27 -34 20 -8 20 -8 -1 -13 -17 -5 -23 0 -33 29 -11
33 -13 34 -55 31 l-44 -3 -33 80 c-43 106 -80 168 -119 199 -35 27 -27 36 8
11z m1804 -12 l1 -28 24 28 c22 25 27 27 40 13 13 -13 12 -15 -12 -18 -16 -2
-27 -8 -25 -16 1 -9 -7 -12 -25 -9 -16 2 -27 7 -25 10 1 4 2 16 2 27 0 11 5
20 10 20 6 0 10 -12 10 -27z m-1979 -58 c-28 -31 -67 -91 -88 -133 -45 -94
-41 -88 -56 -73 -29 29 128 261 177 261 13 0 5 -15 -33 -55z m110 34 c19 -10
18 -12 -17 -52 -19 -23 -56 -85 -82 -137 -25 -52 -46 -96 -47 -98 -6 -8 -55
23 -55 35 0 28 68 159 109 211 42 53 57 60 92 41z m1934 1 c-3 -5 -11 -10 -16
-10 -6 0 -7 5 -4 10 3 6 11 10 16 10 6 0 7 -4 4 -10z m-51 -38 c-25 -4 -74 14
-74 27 0 5 21 2 48 -7 33 -12 41 -18 26 -20z m-1824 -22 l22 -31 -24 -37 c-25
-38 -71 -145 -83 -194 -4 -16 -8 -28 -10 -28 -1 0 -19 7 -38 15 l-36 15 24 69
c29 86 70 169 97 199 12 12 23 22 24 22 1 0 12 -14 24 -30z m1799 9 c42 -13
55 -29 22 -29 -28 0 -91 29 -91 41 0 6 6 9 14 6 8 -3 32 -11 55 -18z m-788
-52 c27 -43 69 -148 69 -170 0 -7 -13 18 -29 55 -30 70 -70 133 -78 124 -3 -3
1 -16 10 -29 8 -12 29 -56 46 -97 30 -70 31 -75 15 -87 -23 -17 -34 -16 -34 1
0 8 -17 48 -38 89 l-39 74 21 41 c12 23 23 42 26 42 3 0 17 -19 31 -43z m763
18 c41 -17 49 -39 11 -29 -20 5 -25 2 -25 -12 0 -25 -17 -6 -25 29 -8 32 -8
32 39 12z m9 -137 c4 -13 2 -30 -3 -38 -7 -11 -10 -8 -10 15 0 17 -14 50 -30
75 -16 25 -30 54 -30 64 0 23 64 -79 73 -116z m-1729 65 c16 -36 16 -42 -4
-117 -11 -44 -20 -88 -20 -99 0 -16 -5 -18 -27 -12 -16 3 -32 10 -37 15 -19
18 40 250 63 250 4 0 16 -17 25 -37z m1741 27 c3 -5 -1 -10 -9 -10 -9 0 -16 5
-16 10 0 6 4 10 9 10 6 0 13 -4 16 -10z m-5 -36 c0 -8 -4 -12 -10 -9 -5 3 -10
10 -10 16 0 5 5 9 10 9 6 0 10 -7 10 -16z m-73 0 c-3 -4 2 -14 13 -23 10 -9
21 -26 25 -39 6 -20 4 -22 -17 -17 -17 4 -25 0 -33 -16 -5 -13 -16 -25 -24
-27 -20 -7 -5 47 22 77 12 13 17 22 12 18 -6 -3 -12 3 -12 14 -1 10 3 19 9 19
6 0 9 -3 5 -6z m-752 -100 c23 -82 23 -85 -21 -98 -19 -6 -22 -2 -28 33 -8 52
4 165 16 153 6 -6 20 -45 33 -88z m-605 23 c14 -44 14 -43 -25 -51 -29 -6 -29
-6 -7 6 24 12 25 30 6 83 -5 14 -4 17 3 10 6 -5 16 -27 23 -48z m540 18 c0
-19 -5 -25 -20 -25 -20 0 -20 1 -3 25 22 30 23 30 23 0z m-400 -67 c25 -11 47
-22 49 -24 2 -2 -15 -49 -39 -104 -36 -85 -47 -102 -76 -116 -18 -9 -39 -23
-46 -32 -7 -9 1 -6 20 7 18 13 35 21 38 18 5 -5 -43 -107 -51 -107 -13 0 -54
49 -57 69 -1 13 -12 29 -23 35 -11 6 -24 17 -28 24 -11 16 -42 15 -56 -2 -15
-18 -5 -59 19 -81 15 -14 17 -22 9 -43 -5 -14 -8 -31 -5 -39 8 -19 -25 -16
-40 5 -7 9 -14 25 -14 35 0 39 -46 28 -107 -26 -18 -16 -23 -17 -27 -6 -50
147 -50 166 2 218 34 33 62 99 62 146 l0 40 48 2 c45 2 49 0 59 -27 7 -19 18
-30 31 -30 13 0 22 -9 26 -25 7 -28 40 -34 70 -12 15 11 16 17 7 35 -8 15 -8
23 0 28 7 4 9 22 6 45 l-5 39 41 -26 c23 -14 62 -35 87 -46z m-811 27 c3 -12
-13 -9 -17 4 -2 7 0 11 6 7 5 -3 10 -8 11 -11z m387 -60 c-4 -23 -13 -51 -20
-61 -12 -16 -13 -11 -5 36 5 30 12 66 16 80 10 39 16 -3 9 -55z m244 54 c0 -5
-4 -9 -10 -9 -5 0 -10 7 -10 16 0 8 5 12 10 9 6 -3 10 -10 10 -16z m1375 -102
c20 -43 25 -65 19 -85 -7 -26 -8 -25 -14 13 -4 22 -19 66 -34 97 -19 41 -25
65 -20 80 7 21 8 20 15 -12 3 -19 19 -61 34 -93z m51 108 c3 -8 -2 -38 -11
-66 l-18 -52 -17 33 c-16 32 -17 36 -1 57 9 12 22 20 29 18 6 -2 12 0 12 4 0
5 -6 12 -12 14 -10 4 -10 6 0 6 7 1 15 -6 18 -14z m-912 -19 c-7 -17 -34 -22
-34 -6 0 6 7 10 15 10 8 0 15 5 15 12 0 6 2 9 5 6 3 -3 3 -13 -1 -22z m-1044
-26 c0 -13 -6 -13 -41 5 -16 9 -27 20 -24 25 7 12 65 -16 65 -30z m1087 -18
c-6 -74 -22 -100 -69 -114 -34 -10 -107 -3 -177 18 -9 3 -3 -2 14 -12 37 -21
154 -31 183 -15 21 11 22 10 22 -45 0 -32 -5 -87 -12 -123 -11 -64 -12 -65
-19 -31 -6 25 -4 45 7 68 15 32 12 82 -4 82 -5 0 -23 -13 -41 -29 -23 -20 -32
-36 -29 -53 2 -14 -5 -29 -19 -41 -12 -9 -24 -30 -28 -46 -7 -35 -39 -46 -69
-25 -26 18 -83 18 -116 -1 -14 -8 -33 -14 -42 -15 -14 0 -7 20 35 103 29 56
68 138 86 182 18 44 36 83 40 86 3 4 27 9 54 12 41 4 47 2 47 -15 0 -23 38
-39 63 -26 9 5 17 17 17 27 0 11 7 21 15 25 8 3 15 15 15 26 0 12 7 20 16 20
14 0 16 -9 11 -58z m-1202 38 c8 -13 -5 -60 -17 -60 -6 0 -7 7 -4 15 15 38 16
47 1 22 -20 -35 -30 -30 -14 7 13 27 24 33 34 16z m259 -88 c-9 -51 -14 -99
-11 -107 3 -7 22 -17 41 -21 20 -3 36 -7 36 -8 0 -1 -7 -26 -15 -54 -13 -44
-20 -52 -39 -52 -44 0 -154 40 -203 74 -26 18 -63 40 -81 50 -17 9 -32 20 -32
25 0 5 9 29 21 55 18 42 21 45 36 30 9 -8 28 -20 42 -25 21 -9 29 -7 43 11 10
12 18 30 18 39 1 9 7 27 16 41 l15 25 -7 -25 c-4 -14 -13 -44 -20 -67 -13 -42
-12 -43 17 -63 17 -13 40 -20 56 -18 24 3 28 10 51 96 14 51 26 91 28 89 2 -2
-4 -45 -12 -95z m-228 52 c-4 -9 -9 -15 -11 -12 -3 3 -3 13 1 22 4 9 9 15 11
12 3 -3 3 -13 -1 -22z m1072 1 c-14 -31 -23 -32 -25 -3 -2 16 0 19 6 10 7 -11
9 -10 14 2 4 9 9 16 11 16 3 0 0 -11 -6 -25z m316 9 c3 -8 2 -12 -4 -9 -6 3
-10 10 -10 16 0 14 7 11 14 -7z m-1341 -5 c12 -7 23 -13 25 -14 1 -1 -5 -17
-13 -36 l-16 -34 6 40 5 40 -15 -34 c-8 -19 -18 -31 -21 -28 -3 3 -1 14 5 25
6 12 11 24 11 29 -1 4 -8 -5 -16 -20 -20 -37 -27 -30 -13 11 12 36 12 36 42
21z m607 -24 c0 -5 -5 -3 -10 5 -5 8 -10 20 -10 25 0 6 5 3 10 -5 5 -8 10 -19
10 -25z m695 16 c-3 -6 -14 -11 -23 -11 -15 1 -15 2 2 15 21 16 32 13 21 -4z
m-448 1 c12 -7 -12 -69 -92 -237 -81 -170 -364 -635 -386 -635 -17 0 -9 39 14
67 13 15 26 35 30 45 3 9 51 94 107 188 100 170 209 382 266 513 28 66 37 74
61 59z m-709 -40 c3 -9 -8 -7 -32 5 -20 9 -36 20 -36 25 0 12 63 -16 68 -30z
m422 18 c0 -11 -2 -20 -4 -20 -2 0 -6 9 -9 20 -3 11 -1 20 4 20 5 0 9 -9 9
-20z m760 -39 c0 -21 -16 -2 -24 29 -7 24 -6 24 8 6 9 -11 16 -27 16 -35z m20
14 c0 -5 -5 -3 -10 5 -5 8 -10 20 -10 25 0 6 5 3 10 -5 5 -8 10 -19 10 -25z
m-41 -30 c0 -5 -6 -1 -14 9 -8 11 -15 27 -15 35 1 17 29 -26 29 -44z m595 17
c-8 -2 -14 -7 -14 -12 0 -5 6 -7 14 -4 21 8 43 -35 25 -47 -23 -14 -32 -10
-18 8 12 14 12 16 -1 11 -24 -8 -18 -33 8 -32 25 1 25 1 8 -46 l-13 -35 -25
49 c-24 48 -25 51 -10 97 14 42 17 46 28 31 10 -14 10 -18 -2 -20z m-1820 1
c-8 -32 -24 -55 -24 -32 0 26 12 59 21 59 5 0 6 -12 3 -27z m1080 -18 c10 -75
19 -85 65 -73 44 11 52 27 38 71 -5 15 -7 31 -3 34 3 3 9 -8 12 -25 6 -31 13
-36 45 -33 10 1 20 -13 29 -40 l14 -41 -35 -29 c-54 -45 -123 -79 -174 -86
l-48 -6 7 59 c16 135 29 214 36 214 4 0 10 -20 14 -45z m66 25 c-20 -13 -57
-13 -44 -1 10 10 46 19 54 14 2 -2 -2 -8 -10 -13z m-1125 -29 c-4 -17 -11 -31
-16 -31 -11 0 -11 0 2 39 14 39 23 34 14 -8z m134 18 c17 -6 31 -15 31 -20 0
-11 0 -11 -39 2 -17 6 -31 15 -31 20 0 11 0 11 39 -2z m-97 -24 c-2 -14 -8
-28 -13 -31 -10 -6 -11 2 -3 34 9 30 22 28 16 -3z m1107 -7 c-1 -31 -1 -31 -8
-8 -5 14 -6 28 -4 33 9 15 13 6 12 -25z m-19 -8 c0 -10 -4 -22 -10 -25 -6 -4
-10 7 -10 25 0 18 4 29 10 25 6 -3 10 -15 10 -25z m-1012 -9 c2 -13 -2 -28 -8
-35 -10 -8 -11 -4 -6 19 l6 30 -16 -25 c-9 -14 -13 -17 -10 -7 3 10 6 25 6 34
0 23 25 9 28 -16z m981 2 c0 -25 -1 -26 -9 -8 -12 27 -12 35 0 35 6 0 10 -12
9 -27z m-955 -21 c-4 -18 -10 -32 -14 -32 -7 0 -5 24 6 59 8 26 14 4 8 -27z
m22 -40 c-13 -12 -17 8 -10 40 l9 33 3 -33 c2 -19 1 -36 -2 -40z m1631 -66
c-5 -13 -13 -15 -29 -10 -30 9 -36 16 -19 22 10 3 10 6 1 12 -7 4 -10 14 -8
21 3 9 13 1 26 -21 12 -19 22 -28 22 -20 0 8 -11 33 -25 55 -13 22 -25 49 -25
59 0 11 14 -7 32 -41 18 -36 28 -67 25 -77z m-817 29 c0 -20 -20 -69 -26 -63
-2 3 1 18 8 33 10 23 10 29 0 33 -7 2 -10 8 -6 13 7 12 24 1 24 -16z m-1104
-25 c31 -21 78 -46 105 -55 l49 -17 -25 -30 c-22 -25 -25 -39 -25 -100 0 -39
-5 -100 -11 -135 -9 -54 -14 -63 -28 -57 -27 13 -148 16 -169 5 -17 -9 -20 -7
-26 21 -15 74 0 191 41 326 14 45 26 82 28 82 2 0 29 -18 61 -40z m551 24 c3
-8 0 -21 -7 -27 -10 -10 -12 -8 -7 6 4 9 2 17 -3 17 -15 0 -12 -27 5 -44 17
-17 19 -26 5 -26 -14 0 -42 59 -36 76 7 19 35 18 43 -2z m-230 -153 c-21 -8
-50 78 -40 118 6 22 10 16 28 -44 12 -40 18 -72 12 -74z m278 118 c10 -32 -10
-46 -34 -25 -16 14 -17 21 -8 32 18 20 35 17 42 -7z m459 -38 c-6 -8 -24 12
-24 28 0 31 15 34 21 4 3 -15 4 -30 3 -32z m378 -14 l62 -27 -21 -22 c-35 -39
-55 -90 -55 -141 l0 -49 -37 7 c-20 4 -62 21 -94 38 -46 26 -65 44 -92 90 -19
32 -35 62 -35 66 0 4 26 15 58 24 31 9 75 29 97 46 36 27 41 28 48 13 5 -10
36 -30 69 -45z m452 34 c30 -11 44 -21 37 -26 -23 -13 -91 14 -91 36 0 11 -3
12 54 -10z m-1248 -56 c20 -20 23 -29 15 -39 -21 -25 -51 -26 -61 -3 -7 17 -9
18 -9 5 -1 -11 -9 -18 -21 -18 -26 0 -28 47 -2 66 26 20 50 17 78 -11z m438 9
c3 -9 6 -25 5 -37 l0 -22 -9 21 c-14 37 -29 37 -62 2 -29 -31 -30 -31 -23 -8
16 53 74 82 89 44z m793 5 l31 -10 -16 -50 c-18 -55 -42 -65 -60 -25 -7 17 -8
35 -1 60 5 20 11 36 13 36 2 0 17 -5 33 -11z m-1697 -264 c-7 -135 -11 -248
-8 -250 4 -5 24 279 31 450 2 47 4 50 31 53 16 2 32 0 37 -5 18 -18 40 -187
33 -251 -5 -53 -10 -65 -30 -74 -29 -14 -49 -60 -36 -84 7 -12 5 -32 -4 -63
-8 -25 -17 -64 -20 -85 -3 -21 -12 -57 -21 -80 -14 -39 -19 -63 -22 -113 -1
-27 -21 -31 -21 -5 0 9 -14 37 -30 62 -27 40 -30 53 -30 120 1 41 5 107 11
145 11 81 14 111 24 260 7 95 11 115 32 143 14 18 27 31 30 28 3 -3 0 -116 -7
-251z m281 225 c31 -17 23 -32 -13 -26 l-33 6 30 -11 c38 -15 37 -13 29 -33
-8 -21 -57 -21 -79 0 -23 23 -12 28 30 14 20 -7 38 -10 41 -8 2 3 -15 10 -38
17 -30 10 -38 15 -27 22 8 5 10 9 6 9 -5 0 -5 5 -2 10 8 13 31 13 56 0z m609
-5 c0 -8 -5 -15 -11 -15 -5 0 -7 5 -4 10 3 6 1 10 -4 10 -6 0 -11 -7 -11 -15
0 -8 -4 -15 -10 -15 -12 0 -12 3 -4 24 8 20 44 21 44 1z m98 -32 c17 -38 25
-89 37 -233 9 -101 18 -187 21 -190 5 -5 1 75 -15 265 l-6 81 52 -35 53 -34 0
-76 c0 -157 31 -994 45 -1230 8 -135 15 -283 15 -328 l0 -83 -36 0 c-47 0 -69
-13 -84 -49 -10 -25 -75 -70 -85 -59 -7 7 15 357 26 401 6 27 9 72 6 100 -3
29 0 76 6 105 9 49 13 55 49 69 43 17 44 21 28 121 -9 53 -8 67 6 91 16 27 15
35 -5 144 -12 63 -37 182 -55 264 -19 82 -31 162 -29 181 3 20 -5 65 -23 120
-16 48 -28 94 -27 102 1 8 -2 32 -8 53 -5 21 -9 77 -9 125 1 48 1 99 1 115 -2
41 13 33 37 -20z m343 8 c-33 -35 -45 -79 -39 -141 2 -22 1 -40 -3 -40 -23 0
-26 108 -4 150 14 28 64 74 72 67 2 -3 -10 -19 -26 -36z m49 -3 c0 -19 -2 -20
-10 -8 -7 10 -10 11 -10 2 0 -14 40 -32 71 -32 11 0 17 5 14 10 -3 6 1 10 9
10 19 0 19 -1 2 -35 -11 -21 -23 -28 -50 -30 -22 -1 -37 3 -40 12 -3 7 -16 13
-28 12 l-23 0 23 -9 c12 -5 22 -13 22 -17 0 -10 52 -34 59 -27 3 3 -1 9 -9 14
-11 7 -11 10 -2 10 17 0 27 -29 14 -42 -8 -8 -15 -6 -27 6 -20 19 -31 20 -39
4 -4 -9 -5 -8 -5 2 2 29 -1 37 -16 37 -15 0 -31 -34 -21 -44 3 -3 18 -6 33 -8
15 -1 36 -5 46 -9 9 -5 23 -6 31 -3 9 4 16 -3 19 -20 5 -25 4 -25 -47 -19 -28
3 -59 6 -68 6 -20 0 -35 59 -23 87 5 10 7 25 6 34 -2 15 49 79 63 79 3 0 6
-10 6 -22z m242 -5 c22 -20 24 -53 3 -53 -8 0 -15 -5 -15 -11 0 -6 7 -9 15 -5
9 3 15 0 15 -10 0 -25 -24 -11 -40 24 -18 38 -35 42 -26 6 5 -17 1 -35 -9 -50
-9 -14 -13 -28 -11 -33 7 -11 -14 -71 -24 -71 -18 0 -40 46 -40 82 0 37 14 59
23 36 3 -7 6 -1 6 14 1 31 45 88 69 88 8 0 24 -7 34 -17z m-923 -7 c14 -17 11
-81 -4 -80 -5 0 -16 -6 -23 -13 -15 -14 -36 -8 -26 8 3 5 9 7 13 5 16 -10 8
34 -10 50 -24 21 -24 31 -1 37 31 8 39 7 51 -7z m47 -21 c8 -30 -3 -62 -22
-69 -13 -5 -14 -2 -9 11 10 23 10 43 1 70 -6 18 -4 22 8 17 9 -3 19 -17 22
-29z m668 29 c9 -3 13 -10 10 -15 -8 -14 -21 -11 -28 6 -6 17 -4 18 18 9z
m-1223 -31 c11 -30 6 -53 -13 -53 -24 0 -38 16 -44 48 -6 30 -4 32 20 32 20 0
29 -7 37 -27z m739 -7 c0 -33 0 -33 -56 -40 -66 -8 -89 2 -48 20 l29 12 -43 1
c-30 1 -42 5 -40 14 4 11 56 22 126 25 30 2 32 0 32 -32z m-492 -17 c-22 -40
-24 -41 -67 -35 -24 3 -58 6 -75 6 l-31 1 28 20 c15 11 27 27 27 35 0 11 16
14 71 14 l70 0 -23 -41z m172 22 c0 -5 -17 -12 -37 -16 -25 -4 -32 -9 -23 -15
10 -6 8 -11 -9 -19 -25 -14 -26 -10 -6 29 12 23 22 30 45 30 17 0 30 -4 30 -9z
m874 -36 c-11 -27 -14 -52 -9 -84 5 -37 4 -44 -6 -34 -18 18 -15 108 6 139 23
36 28 25 9 -21z m260 -24 c-3 -20 -9 -45 -14 -56 -4 -11 -10 -27 -13 -36 -13
-40 -127 -21 -135 23 -3 14 1 15 35 2 42 -14 93 -18 93 -6 0 4 -16 8 -36 10
-48 3 -95 28 -88 47 5 11 11 12 24 5 25 -14 107 -13 116 1 4 7 0 9 -13 5 -28
-9 -53 3 -53 25 0 14 7 19 30 19 24 0 28 3 23 18 -6 15 -4 15 15 -2 18 -16 21
-26 16 -55z m-1123 -4 c-11 -12 -30 -44 -41 -70 -18 -41 -24 -47 -43 -41 -12
3 -25 9 -29 13 -12 11 55 110 87 131 26 17 31 18 38 4 6 -11 3 -22 -12 -37z
m-361 24 c-1 -17 -18 -31 -33 -25 -19 7 -19 7 -11 27 5 14 44 13 44 -2z m556
-53 c29 -46 30 -60 5 -75 -17 -11 -21 -8 -36 29 -9 23 -18 57 -21 76 -4 31 -3
33 12 21 9 -8 27 -31 40 -51z m-639 3 c-3 -16 -13 -44 -22 -62 -8 -19 -13 -26
-10 -16 3 10 5 39 5 63 0 34 4 44 16 44 13 0 15 -7 11 -29z m731 -2 c11 0 12
-2 5 -6 -7 -2 -13 -9 -13 -14 0 -6 5 -7 12 -3 7 4 8 3 4 -5 -12 -19 -36 7 -35
38 1 17 3 20 6 9 2 -10 12 -18 21 -19z m12 21 c0 -5 -2 -10 -4 -10 -3 0 -8 5
-11 10 -3 6 -1 10 4 10 6 0 11 -4 11 -10z m420 0 c0 -5 -5 -10 -11 -10 -5 0
-7 5 -4 10 3 6 8 10 11 10 2 0 4 -4 4 -10z m-1110 -10 c20 -10 17 -50 -4 -50
-23 0 -35 16 -29 38 6 25 8 26 33 12z m127 -7 c3 -7 -3 -9 -16 -6 -17 4 -21 1
-21 -22 0 -18 6 -28 19 -32 17 -4 18 -8 8 -30 -10 -23 -15 -25 -56 -19 -24 3
-46 7 -47 9 -2 2 4 29 13 61 l16 57 40 -3 c22 -2 42 -8 44 -15z m514 -15 c9
-22 21 -33 34 -33 14 0 22 -9 26 -27 6 -24 -3 -37 -70 -106 -93 -97 -121 -112
-203 -112 -75 1 -121 22 -201 93 l-55 49 44 71 c48 77 61 93 69 85 3 -3 -6
-25 -20 -49 -13 -24 -25 -52 -25 -62 0 -20 60 -53 82 -45 7 3 21 30 31 60 25
79 33 86 104 91 l62 4 24 -71 c13 -39 30 -72 38 -74 8 -1 27 8 43 21 l28 23
-26 52 c-30 59 -31 62 -13 62 7 0 20 -15 28 -32z m-486 -8 c-17 -33 -17 -33
-39 -24 -18 7 -22 34 -5 34 5 0 7 -4 4 -10 -3 -5 -1 -10 5 -10 7 0 14 9 17 20
3 11 12 20 19 20 12 0 12 -5 -1 -30z m791 -18 c12 -7 15 -42 39 -362 31 -421
34 -460 75 -805 38 -322 51 -450 57 -542 5 -88 4 -94 -19 -126 -25 -31 -92
-76 -101 -67 -3 3 -10 127 -16 275 -6 149 -18 389 -26 535 -8 146 -19 425 -25
620 -6 195 -12 383 -15 418 -4 62 2 73 31 54z m-946 -30 c-1 -18 -20 -34 -34
-29 -16 6 -22 38 -10 50 8 7 44 -10 44 -21z m1434 -32 c24 0 27 -2 16 -15 -25
-30 -100 -7 -100 31 0 10 6 10 28 -2 15 -7 40 -14 56 -14z m-1114 -17 c0 -7
-6 -13 -13 -13 -21 0 -51 26 -43 38 9 15 56 -6 56 -25z m300 28 c0 -15 -29
-33 -41 -25 -9 5 -7 11 6 21 22 15 35 17 35 4z m-637 -52 c-6 -20 -12 -23 -37
-13 -16 6 -22 35 -10 47 3 3 16 1 29 -5 15 -7 21 -16 18 -29z m1393 -14 c-23
-74 -103 -301 -107 -305 -4 -3 -9 -16 -10 -30 -4 -26 -34 -39 -51 -22 -12 12
11 94 23 86 5 -3 6 1 3 9 -3 8 16 76 40 153 25 76 46 145 46 152 0 9 10 6 29
-10 17 -13 29 -27 27 -33z m-1303 35 c11 0 17 -6 14 -12 -3 -12 -61 -13 -80
-1 -15 9 6 25 27 19 11 -3 29 -6 39 -6z m-425 -21 c18 -6 32 -17 32 -26 0 -12
-3 -13 -15 -3 -24 20 -125 24 -168 7 -31 -14 -37 -14 -37 -2 0 19 86 45 125
39 17 -3 45 -10 63 -15z m1038 -25 c-19 -19 -47 -50 -62 -69 -15 -20 -48 -48
-73 -63 -63 -37 -173 -38 -241 -3 -47 25 -150 109 -150 123 0 20 29 4 69 -36
89 -91 221 -118 313 -64 25 15 61 47 79 70 40 53 80 89 91 81 5 -2 -7 -20 -26
-39z m-738 -3 c42 -12 70 -36 69 -62 0 -11 -7 -14 -26 -11 -23 5 -24 6 -6 13
20 8 20 8 0 10 -11 1 -30 1 -41 0 -12 -1 -32 3 -45 8 -21 9 -22 10 -4 11 18 1
17 2 -4 11 -13 5 -26 7 -29 4 -3 -3 1 -5 9 -5 12 0 12 -2 0 -9 -9 -6 8 -15 55
-31 38 -12 76 -26 84 -31 32 -18 -28 -9 -91 15 -51 19 -64 28 -65 46 -2 25 23
53 42 46 7 -3 30 -10 52 -15z m-296 -12 c16 -8 18 -18 14 -47 -3 -20 -5 -38
-6 -38 0 -1 -9 -4 -20 -7 -18 -5 -20 -11 -15 -52 4 -33 3 -45 -5 -40 -7 4 -9
16 -7 27 4 12 1 18 -6 15 -14 -5 -10 -39 6 -49 6 -4 17 -2 24 4 10 8 13 6 13
-8 0 -17 -9 -19 -74 -19 -67 0 -75 2 -80 20 -10 37 -6 62 9 62 10 0 12 -4 6
-10 -15 -15 0 -47 25 -53 33 -8 40 0 42 46 1 23 4 45 7 50 11 18 -9 70 -32 85
-23 16 -26 15 -47 -4 -26 -25 -36 -26 -36 -7 0 40 123 56 182 25z m405 13 c8
-5 8 -12 -3 -26 -7 -11 -15 -18 -17 -15 -1 2 -11 14 -21 27 -19 22 -19 22 5
22 13 0 29 -4 36 -8z m675 -50 c14 -46 14 -50 -3 -61 -37 -22 -13 -92 27 -77
11 4 14 1 12 -11 -5 -26 -33 -27 -55 -4 -11 11 -30 46 -42 76 l-23 55 26 35
c15 19 30 35 35 35 4 0 14 -22 23 -48z m-1192 14 c0 -17 -14 -29 -23 -20 -8 8
3 34 14 34 5 0 9 -6 9 -14z m638 -95 c-31 -73 -58 -111 -83 -117 -30 -8 -65
12 -65 36 0 24 8 25 32 3 15 -13 23 -15 36 -7 25 16 27 59 3 76 -19 14 -19 15
11 61 l31 48 28 -27 27 -26 -20 -47z m-608 75 c0 -3 -4 -8 -10 -11 -5 -3 -10
-1 -10 4 0 6 5 11 10 11 6 0 10 -2 10 -4z m-5 -26 c11 -5 15 -9 9 -9 -7 -1
-10 -16 -8 -41 2 -22 -1 -40 -6 -40 -5 0 -7 -7 -4 -15 8 -20 -10 -19 -26 0
-10 12 -10 19 -2 27 9 9 12 9 12 -1 0 -7 5 -9 10 -6 15 9 12 25 -5 25 -8 0
-15 4 -15 10 0 5 -8 7 -17 3 -15 -5 -16 -3 -5 8 6 7 12 21 12 31 0 19 13 22
45 8z m375 -21 c19 -6 36 -13 38 -14 10 -8 -21 -85 -33 -85 -17 0 -20 16 -4
26 6 3 9 15 6 25 -3 10 -2 20 2 22 7 5 -14 -1 -32 -8 -8 -4 -18 5 -25 21 -10
21 -15 24 -27 14 -12 -10 -15 -9 -15 8 0 22 4 22 90 -9z m-433 -1 c-3 -8 -6
-5 -6 6 -1 11 2 17 5 13 3 -3 4 -12 1 -19z m753 -23 c29 -19 58 -35 66 -35 20
0 17 -30 -7 -95 -23 -61 -50 -82 -93 -71 -43 11 -50 37 -35 142 7 52 14 94 15
94 1 0 25 -16 54 -35z m396 -32 c8 -32 14 -71 14 -87 0 -57 -58 -87 -93 -48
-14 15 -46 101 -47 123 0 3 17 15 39 27 21 12 44 29 51 37 17 20 20 16 36 -52z
m-1169 35 c-3 -8 -6 -5 -6 6 -1 11 2 17 5 13 3 -3 4 -12 1 -19z m171 -21 c2
-15 -1 -27 -7 -27 -6 0 -11 6 -11 14 0 8 -3 22 -7 32 -4 12 -2 15 8 12 8 -2
15 -17 17 -31z m1091 19 c9 -11 9 -16 0 -22 -8 -4 -9 -3 -5 4 4 7 2 12 -3 12
-6 0 -11 -7 -11 -15 0 -8 7 -15 16 -15 8 0 12 -5 9 -10 -9 -15 -35 7 -35 30 0
14 8 30 15 30 2 0 8 -6 14 -14z m-873 -9 c15 6 21 -32 5 -41 -16 -11 -45 20
-36 40 4 12 9 14 12 7 2 -7 11 -9 19 -6z m-401 -75 c6 -39 5 -43 -11 -40 -11
2 -19 11 -18 21 4 95 5 102 13 82 5 -11 12 -40 16 -63z m465 53 c0 -9 -6 -12
-17 -8 -12 5 -15 2 -10 -10 3 -9 2 -17 -3 -17 -18 0 -11 38 8 43 9 3 18 5 20
6 1 0 2 -6 2 -14z m168 -18 c3 -23 0 -27 -22 -27 -21 0 -26 5 -26 23 0 13 3
27 7 31 15 14 38 0 41 -27z m-162 -47 c2 0 4 -5 4 -11 0 -12 -21 -6 -88 22
-24 11 -41 23 -37 29 3 5 28 -1 62 -15 30 -14 57 -25 59 -25z m564 -34 c0 -60
-4 -84 -17 -98 -19 -22 -70 -23 -97 -3 -19 15 -34 76 -35 145 l-1 35 75 0 75
0 0 -79z m-651 13 c-9 -18 -2 -24 24 -20 13 2 7 -5 -24 -28 l-32 -24 7 26 c3
14 9 33 13 44 6 16 5 16 -10 4 -15 -11 -17 -11 -17 1 0 21 8 27 30 21 16 -4
18 -9 9 -24z m131 16 c0 -8 -4 -15 -10 -15 -5 0 -7 7 -4 15 4 8 8 15 10 15 2
0 4 -7 4 -15z m164 -150 c-7 -38 -20 -126 -29 -195 -9 -69 -18 -130 -20 -137
-5 -15 -84 4 -107 26 -16 15 -14 29 20 214 l36 197 27 0 c18 0 36 10 51 28
l23 29 6 -46 c3 -25 0 -77 -7 -116z m590 134 c13 -3 23 -19 32 -56 12 -48 74
-338 74 -348 0 -8 -73 -35 -79 -30 -10 11 -81 380 -81 424 0 41 1 43 18 29 9
-9 25 -18 36 -19z m-1091 -9 c10 -10 3 -11 -29 -7 -23 2 -60 1 -83 -3 -29 -5
-41 -4 -38 3 9 27 127 32 150 7z m287 -19 c0 -27 -21 -81 -31 -81 -9 0 -102
30 -107 35 -6 5 10 55 18 55 5 0 8 -12 7 -26 -2 -32 15 -41 36 -19 9 8 20 15
25 15 6 0 13 6 16 13 4 6 4 -4 1 -23 -4 -25 -2 -31 5 -20 5 8 10 23 10 32 0
19 -33 42 -44 30 -4 -3 -4 1 -1 10 5 13 12 15 36 6 17 -6 29 -17 29 -27z m70
0 c-4 -16 -23 -96 -40 -178 -42 -193 -35 -177 -65 -157 -14 9 -25 23 -25 30 0
20 36 147 48 170 6 10 15 45 22 77 8 38 16 57 26 57 8 0 17 7 20 15 11 28 23
15 14 -14z m-593 -9 c-26 -28 -20 -36 9 -13 25 20 27 20 40 4 11 -16 9 -20
-11 -30 -12 -7 -28 -27 -35 -45 l-12 -33 -9 25 c-6 14 -8 33 -5 42 2 10 -1 18
-7 18 -6 0 0 11 13 25 27 29 42 35 17 7z m584 -179 c-21 -111 -40 -191 -46
-189 -5 2 -9 7 -8 12 25 141 81 379 88 372 1 -2 -14 -90 -34 -195z m-621 183
c0 -3 -4 -8 -10 -11 -5 -3 -10 -1 -10 4 0 6 5 11 10 11 6 0 10 -2 10 -4z m252
-4 c19 -8 65 -72 84 -119 11 -26 11 -33 0 -42 -7 -6 -20 -9 -29 -5 -18 7 -31
-14 -56 -94 -10 -31 -22 -57 -27 -57 -4 0 -13 19 -19 42 -13 55 -29 69 -20 18
l6 -40 -20 24 c-12 13 -21 31 -21 42 0 10 -5 21 -11 25 -9 5 -10 -1 -5 -22 l7
-29 -21 25 c-11 14 -20 29 -20 33 0 5 -5 5 -12 1 -18 -11 -3 86 22 145 15 34
29 51 43 54 35 7 81 6 99 -1z m989 -52 c16 0 29 -4 29 -9 0 -5 11 -85 25 -178
14 -92 25 -173 25 -179 0 -11 -97 -37 -110 -29 -4 3 -11 49 -15 102 -3 54 -13
148 -21 208 -7 61 -14 114 -14 118 0 5 12 -1 26 -12 15 -12 40 -21 55 -21z
m-302 -186 c-5 -115 -12 -214 -14 -221 -3 -8 -22 -10 -62 -6 -32 3 -60 7 -62
9 -4 4 18 328 25 362 3 18 11 22 40 22 23 0 42 8 57 23 12 13 23 22 25 22 1
-1 -3 -96 -9 -211z m40 -5 c1 -97 4 -217 8 -268 l6 -92 44 -26 44 -26 37 31
37 30 -2 108 c-1 60 -6 174 -12 254 -5 86 -5 149 0 155 6 5 9 4 9 -5 0 -12 18
-188 40 -389 6 -51 13 -98 16 -103 4 -6 22 -17 41 -25 30 -12 38 -12 57 0 11
8 28 27 36 42 13 25 11 50 -21 271 -19 134 -32 244 -27 244 4 0 8 -3 8 -6 0
-3 9 -49 20 -102 10 -53 29 -149 40 -212 30 -160 28 -157 61 -171 37 -15 45
-29 53 -102 l7 -57 -37 -16 c-21 -9 -75 -20 -119 -24 -44 -4 -88 -11 -97 -15
-14 -6 -17 1 -21 47 l-3 53 -2 -58 c-2 -52 -5 -58 -28 -67 -14 -6 -51 -10 -82
-10 l-58 0 -77 76 -78 77 31 26 31 26 11 274 c7 150 15 265 19 255 4 -11 8
-98 8 -195z m-908 148 c-13 -13 -15 1 -4 30 7 17 8 17 11 -1 2 -10 -1 -23 -7
-29z m408 23 c58 -21 68 -27 58 -36 -7 -8 -127 36 -127 47 0 13 9 11 69 -11z
m316 -171 c-8 -101 -15 -207 -15 -236 0 -54 -6 -63 -28 -41 -17 17 -15 51 13
248 29 197 34 224 41 217 3 -2 -2 -87 -11 -188z m1062 143 c-23 -5 -47 4 -47
17 0 6 13 5 33 -2 23 -8 27 -12 14 -15z m-1378 -13 c33 -10 40 -16 36 -31 -3
-10 -7 -26 -9 -35 -28 -110 -26 -106 -46 -88 -10 9 -16 24 -13 35 4 13 -5 29
-26 49 -21 20 -29 35 -25 48 3 10 8 24 10 32 2 7 10 11 18 8 8 -3 32 -11 55
-18z m601 4 l38 5 6 -147 c4 -80 9 -163 12 -183 l5 -36 -55 -7 c-90 -12 -86
-22 -86 195 l0 191 21 -12 c12 -6 39 -9 59 -6z m755 -8 c40 -14 40 -14 9 -15
-17 0 -37 7 -44 15 -15 18 -15 18 35 0z m-1735 -130 l39 -40 -10 -385 c-9
-356 0 -858 17 -912 7 -25 -3 -23 -63 12 -56 32 -114 97 -138 153 -16 40 -14
100 19 447 8 85 20 209 25 275 27 308 52 551 58 565 5 9 9 -3 11 -30 3 -36 11
-53 42 -85z m1739 105 c12 0 21 -5 21 -11 0 -11 -22 -8 -67 7 -12 5 -15 4 -8
-4 6 -6 26 -14 45 -19 34 -9 35 -10 12 -22 -41 -22 -80 7 -67 50 5 15 10 17
25 9 10 -6 28 -10 39 -10z m-1476 -50 c-3 -11 0 -20 6 -20 6 0 11 7 11 15 0 8
5 15 10 15 6 0 10 -4 10 -9 0 -11 -25 -32 -36 -30 -22 4 -34 -2 -34 -17 0 -14
3 -14 15 -4 24 20 28 6 5 -15 -15 -14 -20 -15 -20 -4 0 12 -2 11 -10 -1 -5 -8
-12 -11 -17 -7 -4 5 -1 12 6 16 7 5 11 15 9 22 -3 8 -13 -3 -25 -28 -15 -30
-17 -43 -9 -46 7 -3 18 4 25 15 23 38 22 11 -3 -37 l-24 -48 -17 27 c-17 25
-16 28 10 82 17 34 40 63 59 75 17 10 32 19 33 19 0 0 -1 -9 -4 -20z m45 -54
c-31 -25 -89 -116 -83 -127 3 -4 1 -10 -5 -14 -16 -10 -12 32 6 68 22 43 85
108 97 100 6 -4 -1 -15 -15 -27z m293 -263 c140 -121 266 -234 281 -250 32
-35 140 -195 134 -200 -2 -2 -53 20 -113 50 -108 55 -129 70 -318 242 -55 50
-154 139 -221 197 -122 106 -126 112 -98 147 4 4 73 -54 345 -289 117 -102
227 -196 244 -208 58 -46 -62 63 -295 266 -315 275 -288 247 -266 271 15 17
21 18 36 8 10 -7 132 -112 271 -234z m-458 144 l54 -48 -42 -167 c-60 -233
-72 -419 -27 -410 24 5 106 143 138 234 16 43 30 72 32 63 2 -9 20 -24 41 -34
36 -16 39 -21 45 -68 11 -97 6 -156 -19 -230 -55 -157 -67 -263 -44 -408 6
-39 9 -73 6 -75 -3 -3 -21 1 -40 10 -37 15 -57 41 -57 73 0 26 -48 70 -85 77
-16 3 -44 2 -61 -3 l-31 -9 -6 156 c-7 159 0 756 9 850 6 60 6 60 87 -11z
m1227 -31 c0 -8 -11 -17 -24 -20 -13 -3 -31 -9 -40 -12 -9 -3 -16 -2 -16 4 0
7 24 20 78 41 1 1 2 -5 2 -13z m-1078 -39 l38 -32 -19 -60 c-10 -33 -24 -79
-30 -103 -7 -23 -16 -40 -20 -37 -5 3 -12 -3 -16 -13 -7 -16 -8 -15 -15 3 -5
11 -9 14 -9 8 -1 -18 -21 -16 -21 1 0 7 7 27 16 42 14 27 15 27 12 5 -2 -13 2
-26 8 -28 7 -2 9 8 6 27 -2 16 -7 30 -11 30 -12 0 -41 -40 -41 -57 0 -15 -1
-15 -13 1 -12 16 -9 34 15 125 15 58 28 109 28 114 0 17 38 4 72 -26z m1092
-9 c3 -13 6 -30 6 -37 0 -20 -17 -2 -23 24 -2 11 -2 1 0 -22 6 -56 -13 -56
-20 -1 -4 28 -2 45 6 50 19 12 24 10 31 -14z m-46 -53 c0 -29 0 -29 -8 -5 -4
14 -8 36 -8 50 -1 23 0 23 8 5 5 -11 8 -33 8 -50z m-740 49 c12 -4 22 -10 22
-14 0 -10 -49 0 -56 11 -6 10 2 11 34 3z m622 -3 c0 -5 -20 -14 -44 -20 -55
-13 -66 -14 -66 -2 0 6 19 14 43 19 57 13 67 14 67 3z m94 -23 c4 -17 2 -28
-4 -28 -5 0 -10 14 -10 32 0 36 4 35 14 -4z m-531 -4 c26 -4 44 -11 41 -15 -6
-11 -115 0 -128 12 -12 11 22 12 87 3z m449 -18 c3 -14 2 -30 -3 -37 -5 -8 -9
-4 -12 12 -3 17 -5 12 -7 -16 -2 -39 -3 -39 -10 -10 -11 44 -11 67 0 60 6 -3
10 -1 10 4 0 21 18 10 22 -13z m-842 -37 c0 -3 -7 -6 -15 -6 -8 0 -15 6 -15
14 0 7 -4 13 -10 13 -5 0 -10 7 -10 16 0 13 5 11 25 -7 13 -13 25 -27 25 -30z
m650 42 c0 -12 -36 -21 -87 -21 -62 0 -63 18 -1 23 29 2 61 4 71 5 9 1 17 -2
17 -7z m145 -37 c6 -41 2 -65 -9 -53 -7 9 -13 99 -6 99 4 0 11 -21 15 -46z
m-56 -1 c0 -31 -2 -34 -9 -18 -12 28 -12 55 0 55 6 0 10 -17 9 -37z m31 -14
c0 -24 -4 -38 -10 -34 -5 3 -10 24 -10 46 0 24 4 38 10 34 6 -3 10 -24 10 -46z
m-450 11 c0 -16 -4 -30 -10 -30 -5 0 -10 14 -10 30 0 17 5 30 10 30 6 0 10
-13 10 -30z m29 8 c0 -13 -4 -32 -9 -43 -7 -15 -9 -10 -9 23 -1 23 4 42 9 42
6 0 10 -10 9 -22z m30 -10 c-1 -13 -4 -36 -8 -53 -10 -45 -24 -13 -16 35 7 42
26 56 24 18z m51 -10 c0 -34 -17 -46 -23 -16 -3 17 -5 14 -6 -9 0 -18 -6 -33
-12 -33 -8 0 -9 11 -5 31 3 17 6 37 6 45 0 7 9 12 20 11 15 -1 20 -8 20 -29z
m222 2 c3 -17 1 -33 -4 -36 -4 -3 -8 11 -8 30 0 44 6 47 12 6z m-112 -21 c0
-36 -2 -40 -15 -29 -8 7 -15 25 -15 41 0 19 5 29 15 29 11 0 15 -11 15 -41z
m30 -10 c0 -31 -4 -48 -10 -44 -5 3 -10 26 -10 51 0 24 5 44 10 44 6 0 10 -23
10 -51z m30 1 c0 -27 -4 -50 -10 -50 -5 0 -10 23 -10 50 0 28 5 50 10 50 6 0
10 -22 10 -50z m30 11 c0 -22 -4 -43 -10 -46 -6 -4 -10 12 -10 39 0 25 5 46
10 46 6 0 10 -18 10 -39z m-478 -96 l112 -100 -63 -3 c-77 -4 -149 10 -220 43
l-54 25 7 62 c4 34 9 65 11 68 2 3 24 6 49 5 42 0 51 -5 158 -100z m-381 -65
c-8 -23 -10 -23 -16 -6 -5 11 -3 21 5 26 7 4 9 13 6 19 -4 6 -4 17 1 24 12 18
16 -34 4 -63z m39 29 c0 -5 5 -7 11 -4 6 4 9 0 7 -10 -2 -10 3 -20 11 -23 9
-3 11 0 7 7 -8 12 10 41 25 41 11 0 -8 -50 -28 -72 -10 -11 -12 -18 -4 -18 12
0 -26 -81 -73 -155 l-25 -40 1 110 c1 82 3 96 7 56 3 -30 11 -56 18 -58 17 -6
64 78 52 93 -5 6 -7 18 -4 26 4 9 -1 22 -9 31 -18 18 -20 27 -6 27 6 0 10 -5
10 -11z m-14 -54 c-20 -31 -21 -41 -1 -25 12 10 15 9 15 -7 0 -21 -27 -63 -41
-63 -5 0 -9 20 -9 45 0 25 5 45 10 45 6 0 10 7 10 15 0 8 7 15 16 15 15 0 15
-2 0 -25z m410 -35 c66 0 86 -4 106 -20 l26 -20 -45 -137 c-40 -122 -46 -153
-53 -263 -6 -102 -14 -148 -44 -247 -20 -68 -40 -146 -43 -174 -5 -46 -8 -50
-27 -44 -43 15 -107 17 -121 5 -9 -7 -17 -11 -19 -9 -2 4 -15 101 -37 299 -14
116 -4 208 34 315 29 81 32 101 32 206 l0 115 55 -13 c30 -7 92 -13 136 -13z
m699 13 c-4 -10 -9 -65 -10 -123 -2 -58 -7 -119 -13 -135 -5 -17 -10 -81 -11
-144 -1 -62 -6 -154 -11 -204 -5 -51 -10 -126 -10 -168 0 -73 -1 -76 -31 -99
-29 -21 -37 -22 -87 -14 l-56 9 -12 70 c-6 39 -24 106 -39 150 -37 107 -42
197 -17 307 11 47 17 97 15 111 -4 22 -2 24 21 20 14 -3 26 -3 26 0 0 3 -18
36 -40 75 -22 38 -40 76 -40 84 0 11 15 18 47 23 26 4 61 14 78 22 47 25 75
31 139 32 52 1 57 -1 51 -16z m-522 -91 c9 -10 62 -40 117 -67 l100 -50 0 -42
c0 -23 -7 -72 -16 -110 -16 -66 -15 -188 1 -254 7 -26 6 -26 -43 -21 -27 2
-58 -1 -69 -6 -19 -11 -21 -7 -27 50 -3 33 -7 122 -7 197 -1 75 -5 150 -9 166
-12 47 -12 -126 1 -310 5 -87 8 -169 5 -181 -8 -32 -60 -49 -149 -48 -42 0
-79 3 -82 6 -2 2 7 40 21 84 18 56 28 116 34 209 7 113 14 146 49 250 23 66
41 125 41 132 0 18 14 16 33 -5z m507 -792 c-8 -5 -22 -10 -31 -10 -22 0 -29
-21 -27 -73 l1 -42 6 50 c5 44 9 50 31 52 25 3 25 3 3 -7 -26 -11 -32 -50 -8
-50 8 0 15 -7 15 -15 0 -8 -3 -15 -8 -15 -4 0 -13 -9 -20 -21 -20 -32 -5 -77
46 -131 43 -47 65 -60 60 -37 -2 6 3 14 10 16 11 4 12 1 3 -16 -11 -19 -7 -24
36 -51 53 -34 61 -36 69 -15 4 8 10 13 15 10 15 -10 -3 -35 -25 -35 -39 0
-181 108 -216 165 -15 24 -23 58 -27 119 -7 98 1 116 51 116 24 0 27 -3 16
-10z m-148 -27 c39 -4 58 -10 58 -19 0 -10 -14 -14 -44 -14 -55 0 -106 18
-106 37 0 10 6 13 17 9 9 -4 43 -9 75 -13z m-752 -51 c0 -23 -35 -8 -38 16 -3
21 -2 22 17 10 12 -7 21 -19 21 -26z m118 -106 c1 -77 0 -138 -2 -135 -3 3 -6
55 -7 116 -1 83 -5 113 -15 117 -8 3 -11 0 -8 -8 9 -23 -18 -31 -33 -11 -16
23 -17 35 -2 35 5 0 7 -4 4 -10 -3 -5 -2 -10 4 -10 5 0 13 5 16 11 4 6 13 8
21 5 8 -3 14 -1 14 4 0 6 -4 10 -9 10 -5 0 -16 3 -24 6 -9 3 -25 -4 -36 -15
l-21 -21 0 26 c0 24 2 25 48 22 l47 -3 3 -139z m773 121 c-13 -13 -26 -3 -16
12 3 6 11 8 17 5 6 -4 6 -10 -1 -17z m-705 -3 c-3 -9 -6 -18 -6 -20 0 -2 -9
-4 -20 -4 -25 0 -27 27 -2 33 31 8 34 7 28 -9z m582 -14 c32 0 42 -4 42 -16 0
-14 -8 -16 -52 -11 -28 4 -59 14 -67 23 -15 15 -14 16 9 10 14 -3 44 -6 68 -6z
m-768 -46 c0 -8 -4 -12 -10 -9 -5 3 -10 10 -10 16 0 5 5 9 10 9 6 0 10 -7 10
-16z m84 5 c14 12 16 10 16 -18 0 -29 -2 -31 -21 -21 -15 9 -24 8 -35 -1 -12
-9 -14 -6 -14 20 0 28 2 30 19 19 15 -9 23 -9 35 1z m76 -4 c0 -8 -4 -15 -10
-15 -5 0 -10 7 -10 15 0 8 5 15 10 15 6 0 10 -7 10 -15z m617 0 c18 0 35 -6
38 -13 4 -10 -11 -12 -63 -10 -54 2 -67 6 -70 20 -3 15 2 17 30 11 18 -4 48
-8 65 -8z m123 -22 c0 -9 -6 -13 -15 -9 -8 3 -15 2 -15 -3 0 -5 10 -11 23 -15
17 -5 19 -8 8 -15 -14 -9 -7 -51 9 -51 5 0 7 7 3 17 -4 10 5 6 25 -11 17 -16
28 -34 25 -42 -8 -21 -16 -18 -51 19 -41 42 -57 88 -42 117 12 22 30 18 30 -7z
m-900 -30 c0 -20 -24 -11 -28 10 -2 12 1 15 12 11 9 -3 16 -13 16 -21z m158
-14 c-9 -6 -14 -3 -16 8 -2 8 2 19 10 24 9 6 14 3 16 -8 2 -8 -2 -19 -10 -24z
m610 21 c46 0 48 -1 68 -45 l20 -44 -23 -28 c-12 -15 -26 -45 -29 -65 -4 -21
-9 -38 -13 -38 -3 0 -12 19 -19 42 -7 23 -22 54 -33 70 -19 26 -19 27 -2 21
17 -6 17 -5 2 13 -10 10 -19 28 -22 39 -3 15 -5 12 -6 -9 -1 -22 -4 -26 -14
-17 -19 15 -10 74 10 67 8 -3 36 -6 61 -6z m-690 -13 c13 5 14 3 5 -7 -13 -14
-33 -5 -32 13 0 9 2 9 5 0 3 -7 13 -9 22 -6z m7 -27 c13 11 15 8 15 -15 0 -24
-2 -26 -15 -15 -22 18 -46 -4 -26 -22 11 -10 13 -10 7 0 -4 6 -2 12 3 12 6 0
11 -7 11 -16 0 -9 -7 -14 -17 -12 -13 2 -19 15 -21 42 -3 35 -2 38 12 27 13
-11 19 -11 31 -1z m-87 -47 c-2 -25 -7 -48 -13 -50 -6 -2 -9 12 -8 29 1 18 2
41 2 51 1 9 6 17 12 17 6 0 9 -19 7 -47z m29 25 c-3 -8 -6 -5 -6 6 -1 11 2 17
5 13 3 -3 4 -12 1 -19z m133 -34 c0 -49 -2 -55 -15 -44 -11 9 -14 23 -9 49 13
71 24 69 24 -5z m574 -46 c31 -65 44 -114 27 -104 -6 4 -11 15 -11 24 -1 25
-38 104 -63 131 l-22 24 22 -12 c12 -6 33 -35 47 -63z m-38 16 c14 -20 15 -27
4 -37 -10 -10 -12 -8 -6 6 4 14 0 20 -14 24 -11 3 -20 12 -20 19 0 22 18 16
36 -12z m-613 7 c14 9 17 5 17 -20 0 -16 3 -38 6 -48 3 -10 -3 -3 -15 15 -22
34 -39 40 -59 20 -13 -13 -16 -1 -6 26 4 11 11 13 23 7 10 -6 23 -5 34 0z
m797 2 c0 -5 -12 -26 -25 -48 -14 -22 -25 -50 -25 -62 0 -13 -4 -23 -10 -23
-22 0 1 90 31 127 12 14 29 18 29 6z m154 -37 c-4 -11 1 -13 18 -9 18 4 20 3
8 -6 -13 -9 -13 -11 3 -11 9 0 17 -4 17 -10 0 -10 -38 4 -78 28 -17 11 -20 18
-11 28 14 17 51 0 43 -20z m-367 -8 c-3 -8 -6 -5 -6 6 -1 11 2 17 5 13 3 -3 4
-12 1 -19z m243 17 c0 -2 -11 -21 -25 -41 -14 -20 -25 -45 -25 -55 0 -11 -5
-19 -11 -19 -6 0 -8 7 -5 16 3 9 6 21 6 27 0 18 38 77 50 77 5 0 10 -2 10 -5z
m-910 -13 c0 -5 -11 -14 -25 -20 -29 -13 -33 -5 -7 14 20 15 32 18 32 6z m80
-11 c5 -11 10 -32 10 -46 0 -24 -1 -25 -16 -10 -25 25 -49 15 -49 -20 0 -31
27 -47 47 -27 6 6 0 8 -19 4 -15 -2 -25 -2 -22 2 9 10 69 16 69 7 0 -15 -25
-31 -49 -31 -43 0 -50 10 -41 60 5 25 9 50 10 55 0 6 5 2 11 -7 10 -18 34 -24
42 -10 3 4 -2 14 -11 22 -14 13 -15 12 -8 -5 5 -15 4 -17 -5 -8 -12 12 -5 33
11 33 5 0 14 -9 20 -19z m75 -2 c11 -17 -1 -21 -15 -4 -8 9 -8 15 -2 15 6 0
14 -5 17 -11z m785 7 c0 -16 -59 -115 -64 -107 -7 11 16 75 35 98 10 12 29 18
29 9z m-210 -41 c0 -5 -4 -4 -9 4 -5 7 -14 10 -20 7 -6 -4 -11 -3 -11 3 0 5 6
11 13 14 12 4 27 -10 27 -28z m-50 -1 c0 -8 -4 -12 -10 -9 -5 3 -10 13 -10 21
0 8 5 12 10 9 6 -3 10 -13 10 -21z m256 -35 c-14 -30 -25 -46 -25 -35 -1 18
39 99 46 92 2 -1 -8 -27 -21 -57z m-946 42 c0 -10 -24 -21 -43 -21 -7 0 -3 7
7 15 22 17 36 19 36 6z m164 -7 c9 -8 16 -20 16 -25 0 -11 -49 22 -50 34 0 12
18 8 34 -9z m844 -1 c-3 -5 -13 -27 -23 -50 -18 -44 -35 -56 -35 -27 0 28 32
84 47 84 8 0 13 -3 11 -7z m-288 -13 c0 -5 -4 -10 -10 -10 -5 0 -10 5 -10 10
0 6 5 10 10 10 6 0 10 -4 10 -10z m440 0 c-8 -5 -10 -10 -4 -10 5 0 19 -7 30
-16 18 -15 18 -15 -3 -5 -12 6 -30 11 -40 11 -11 -1 -7 -6 13 -14 38 -17 50
-34 35 -49 -8 -8 -11 -6 -11 9 0 15 -11 23 -45 32 -46 12 -61 32 -25 32 11 0
20 5 20 10 0 6 10 10 23 10 18 0 19 -2 7 -10z m-1086 -9 c3 -5 -1 -11 -9 -15
-15 -6 -29 7 -18 18 9 9 21 8 27 -3z m676 -1 c0 -5 -4 -10 -10 -10 -5 0 -10 5
-10 10 0 6 5 10 10 10 6 0 10 -4 10 -10z m290 8 c0 -2 -9 -25 -19 -53 -15 -40
-21 -46 -27 -32 -8 21 19 87 36 87 5 0 10 -1 10 -2z m-1053 -14 c-3 -3 -12 -4
-19 -1 -8 3 -5 6 6 6 11 1 17 -2 13 -5z m174 -11 c13 -15 12 -15 -8 -4 -24 12
-29 21 -14 21 5 0 15 -7 22 -17z m626 -22 c48 -10 119 -31 156 -45 87 -33 196
-39 246 -13 36 18 47 17 38 -6 -8 -22 -99 -40 -159 -32 -29 4 -93 20 -143 35
-49 16 -119 34 -155 40 -66 12 -110 32 -110 51 0 6 7 6 20 -1 11 -6 59 -19
107 -29z m310 9 c14 -11 34 -20 44 -20 27 0 35 -21 13 -37 -13 -9 -29 -12 -49
-7 -16 4 -40 7 -52 6 -26 0 -27 3 -12 47 13 36 22 38 56 11z m-1112 -9 c-15
-13 -75 -31 -75 -22 0 4 10 13 23 19 27 13 65 16 52 3z m183 -7 c12 -8 22 -19
22 -24 0 -11 -69 21 -70 33 0 12 24 8 48 -9z m-115 -31 c20 -3 43 0 50 5 9 8
20 7 36 -1 35 -18 44 -38 32 -69 -9 -23 -17 -28 -45 -28 -19 0 -37 4 -40 9
-11 17 6 41 28 42 17 1 17 2 3 6 -9 2 -15 9 -12 14 4 5 0 9 -8 9 -14 0 -37
-40 -37 -65 0 -15 -21 -20 -32 -9 -4 3 -2 19 2 35 5 18 5 29 -1 29 -5 0 -12
-13 -15 -30 -5 -21 -12 -30 -26 -30 -21 0 -21 5 -3 55 7 20 6 20 -9 1 -9 -11
-16 -26 -16 -33 0 -7 -4 -13 -8 -13 -17 0 -21 13 -11 39 l9 26 -20 -24 c-21
-25 -37 -23 -27 3 8 21 67 46 92 39 11 -3 37 -7 58 -10z m-43 -122 c78 -13
153 1 176 32 14 20 15 20 12 3 -2 -10 -16 -28 -31 -40 -61 -45 -265 -17 -275
38 -4 18 -2 18 25 -2 17 -12 58 -26 93 -31z m-3 13 c-3 -3 -12 -4 -19 -1 -8 3
-5 6 6 6 11 1 17 -2 13 -5z"/>
<path d="M4881 5120 c9 -14 24 -40 33 -58 10 -19 20 -32 23 -29 6 7 -45 94
-60 104 -7 4 -5 -4 4 -17z"/>
<path d="M5409 4989 l-24 -20 28 17 c15 9 27 18 27 20 0 8 -8 4 -31 -17z"/>
<path d="M4700 5062 c0 -5 10 -13 23 -19 12 -6 43 -30 70 -53 26 -23 44 -35
41 -26 -3 8 -29 32 -57 54 -64 48 -77 56 -77 44z"/>
<path d="M5240 4968 c20 -12 30 -23 22 -25 -13 -5 -7 -23 9 -23 6 0 7 5 4 10
-13 21 10 9 33 -17 15 -18 20 -21 13 -8 -11 24 -47 58 -78 74 -37 19 -40 12
-3 -11z"/>
<path d="M4913 4939 c-2 -22 10 -25 26 -5 9 11 7 15 -7 18 -12 4 -18 -1 -19
-13z"/>
<path d="M5353 4823 c-16 -6 -17 -29 -1 -39 7 -4 8 -3 4 4 -4 7 -3 12 3 12 5
0 12 -6 14 -12 4 -9 6 -8 6 2 1 22 -12 38 -26 33z"/>
<path d="M5420 4860 c-13 -9 -13 -10 0 -9 8 1 26 5 40 9 l25 8 -25 1 c-14 0
-32 -4 -40 -9z"/>
<path d="M5430 4789 c0 -5 21 -9 47 -9 25 0 44 2 42 4 -10 8 -89 13 -89 5z"/>
<path d="M4948 4743 c6 -2 18 -2 25 0 6 3 1 5 -13 5 -14 0 -19 -2 -12 -5z"/>
<path d="M5076 4651 c-4 -6 -3 -18 2 -27 8 -14 10 -14 15 -2 7 19 -8 44 -17
29z"/>
<path d="M4924 4616 c-8 -22 3 -49 19 -43 6 2 12 14 12 27 0 27 -22 39 -31 16z
m24 -31 c-3 -3 -9 2 -12 12 -6 14 -5 15 5 6 7 -7 10 -15 7 -18z"/>
<path d="M5083 4530 c-32 -13 -28 -21 7 -13 19 3 30 1 30 -6 0 -6 -6 -11 -14
-11 -8 0 -18 -4 -21 -10 -4 -6 1 -7 10 -3 10 3 21 0 25 -7 7 -11 15 -10 44 4
43 20 45 31 9 40 -16 3 -37 8 -48 10 -11 3 -30 1 -42 -4z"/>
<path d="M5128 4443 c7 -3 16 -2 19 1 4 3 -2 6 -13 5 -11 0 -14 -3 -6 -6z"/>
<path d="M5140 4339 c-6 -11 -10 -25 -8 -30 2 -5 8 4 15 21 13 34 9 40 -7 9z"/>
<path d="M5193 4299 c-18 -5 -33 -11 -33 -12 0 -2 27 -3 60 -3 33 1 60 4 60 9
0 4 -6 7 -14 7 -8 0 -20 2 -28 4 -7 2 -28 0 -45 -5z"/>
<path d="M5208 4253 c12 -2 32 -2 45 0 12 2 2 4 -23 4 -25 0 -35 -2 -22 -4z"/>
<path d="M5322 4235 c-17 -37 -14 -45 4 -12 9 16 14 31 11 33 -2 2 -9 -7 -15
-21z"/>
<path d="M4940 4465 c0 -10 7 -15 17 -13 22 4 23 22 1 26 -11 2 -18 -3 -18
-13z"/>
<path d="M5014 4379 c-7 -12 15 -41 27 -33 14 8 11 31 -6 37 -8 4 -17 2 -21
-4z m26 -20 c0 -6 -4 -7 -10 -4 -5 3 -10 11 -10 16 0 6 5 7 10 4 6 -3 10 -11
10 -16z"/>
<path d="M5070 4115 c1 -5 12 -28 25 -50 14 -22 25 -35 25 -30 -1 6 -12 28
-25 50 -14 22 -25 36 -25 30z"/>
<path d="M5190 4080 c-6 -11 -8 -20 -6 -20 3 0 10 9 16 20 6 11 8 20 6 20 -3
0 -10 -9 -16 -20z"/>
<path d="M5085 3925 c70 -21 194 -30 225 -16 24 11 24 11 -6 7 -29 -5 -149 5
-234 18 -24 4 -19 1 15 -9z"/>
<path d="M5483 3847 c-18 -34 -46 -78 -62 -97 -26 -32 -33 -35 -82 -35 -30 0
-65 4 -79 8 -25 8 -25 8 1 -7 59 -34 134 -20 176 32 35 43 86 139 81 153 -2 5
-18 -20 -35 -54z"/>
<path d="M4857 3993 c-17 -16 -6 -54 19 -65 47 -22 87 32 47 62 -15 12 -16 12
-5 0 18 -21 15 -48 -8 -55 -28 -9 -53 13 -47 42 5 25 4 27 -6 16z"/>
<path d="M4880 3960 c0 -5 5 -10 10 -10 6 0 10 5 10 10 0 6 -4 10 -10 10 -5 0
-10 -4 -10 -10z"/>
<path d="M4744 3912 c28 -42 72 -136 90 -194 3 -11 15 -18 28 -17 20 0 21 1 4
8 -11 4 -31 40 -51 89 -31 77 -82 161 -97 162 -4 0 8 -22 26 -48z"/>
<path d="M4840 3515 c39 -47 189 -60 285 -25 63 23 55 24 -32 4 -86 -20 -166
-15 -223 15 -32 17 -40 18 -30 6z"/>
<path d="M5315 3418 c17 -6 44 -20 60 -32 24 -16 27 -17 16 -2 -18 22 -65 46
-88 45 -11 0 -6 -5 12 -11z"/>
<path d="M5263 3325 c0 -27 2 -38 4 -22 2 15 2 37 0 50 -2 12 -4 0 -4 -28z"/>
<path d="M5606 3394 c-22 -8 -42 -17 -45 -20 -10 -9 52 8 79 22 33 17 15 16
-34 -2z"/>
<path d="M4431 3265 c0 -11 7 -36 15 -55 l14 -35 -6 40 c-7 46 -24 83 -23 50z"/>
<path d="M4301 3205 c0 -16 6 -52 13 -80 18 -64 19 -28 1 50 -9 40 -14 50 -14
30z"/>
<path d="M5698 3273 c7 -3 16 -2 19 1 4 3 -2 6 -13 5 -11 0 -14 -3 -6 -6z"/>
<path d="M4976 3284 c-18 -18 -21 -34 -6 -34 6 0 10 7 10 15 0 20 34 19 50 0
7 -9 15 -13 18 -10 8 7 -29 45 -44 45 -7 0 -20 -7 -28 -16z"/>
<path d="M4644 3105 c0 -66 1 -92 3 -57 2 34 2 88 0 120 -2 31 -3 3 -3 -63z"/>
<path d="M5632 2770 c0 -19 2 -27 5 -17 2 9 2 25 0 35 -3 9 -5 1 -5 -18z"/>
<path d="M5641 1699 c1 -57 5 -138 9 -179 5 -46 6 -7 3 100 -3 96 -7 177 -9
179 -2 2 -3 -43 -3 -100z"/>
<path d="M5240 3221 c0 -6 4 -13 10 -16 6 -3 7 1 4 9 -7 18 -14 21 -14 7z"/>
<path d="M5178 3153 c-30 -36 -30 -47 0 -19 18 17 32 31 32 33 0 9 -19 1 -32
-14z"/>
<path d="M5360 3120 c6 -11 13 -20 16 -20 2 0 0 9 -6 20 -6 11 -13 20 -16 20
-2 0 0 -9 6 -20z"/>
<path d="M5259 2970 c-4 -25 -10 -54 -14 -65 -3 -11 1 -7 10 8 9 16 15 44 13
65 l-3 37 -6 -45z"/>
<path d="M6066 2732 c-4 -29 -6 -56 -3 -59 9 -9 19 41 15 78 -3 30 -4 28 -12
-19z"/>
<path d="M6091 2764 c0 -11 3 -14 6 -6 3 7 2 16 -1 19 -3 4 -6 -2 -5 -13z"/>
<path d="M4416 2923 c-13 -13 -5 -43 13 -52 14 -8 22 -7 32 6 13 15 11 16 -13
9 -22 -5 -28 -3 -28 10 0 10 5 14 15 10 8 -3 15 -1 15 3 0 11 -26 22 -34 14z"/>
<path d="M5071 2709 c23 -23 21 -37 -5 -53 -24 -15 -50 18 -35 45 5 11 7 19 5
19 -3 0 -10 -9 -16 -20 -15 -28 4 -60 35 -60 35 0 51 34 30 66 -8 13 -20 24
-25 24 -6 0 -1 -9 11 -21z"/>
<path d="M5045 2690 c-4 -6 -3 -16 3 -22 6 -6 12 -6 17 2 4 6 3 16 -3 22 -6 6
-12 6 -17 -2z"/>
<path d="M5402 2731 c-8 -5 -12 -21 -10 -37 3 -25 7 -29 33 -29 26 0 30 4 33
29 3 27 -10 46 -33 46 -5 0 -16 -4 -23 -9z m43 -31 c0 -29 -32 -41 -41 -16 -9
24 4 48 23 44 12 -2 18 -12 18 -28z"/>
<path d="M5413 2698 c2 -7 7 -13 12 -13 5 0 10 6 13 13 2 6 -4 12 -13 12 -9 0
-15 -6 -12 -12z"/>
<path d="M4660 2788 c0 -4 7 -8 15 -8 8 0 15 4 15 8 0 5 -7 9 -15 9 -8 0 -15
-4 -15 -9z"/>
<path d="M4880 2765 c0 -8 5 -15 10 -15 6 0 10 7 10 15 0 8 -4 15 -10 15 -5 0
-10 -7 -10 -15z"/>
<path d="M5238 2683 c-23 -6 -34 -49 -18 -68 26 -32 86 -8 78 31 -4 21 -38 42
-60 37z m46 -30 c9 -22 -13 -45 -38 -41 -26 4 -33 38 -11 54 20 15 41 9 49
-13z"/>
<path d="M5245 2650 c-4 -6 -3 -16 3 -22 6 -6 12 -6 17 2 4 6 3 16 -3 22 -6 6
-12 6 -17 -2z"/>
<path d="M4686 2631 c-4 -7 -5 -15 -2 -18 9 -9 19 4 14 18 -4 11 -6 11 -12 0z"/>
<path d="M4250 2639 c0 -5 5 -7 10 -4 6 3 10 8 10 11 0 2 -4 4 -10 4 -5 0 -10
-5 -10 -11z"/>
<path d="M4220 2615 c-7 -9 -11 -17 -9 -20 3 -2 10 5 17 15 14 24 10 26 -8 5z"/>
<path d="M4519 2453 c-13 -16 -12 -17 4 -4 16 13 21 21 13 21 -2 0 -10 -8 -17
-17z"/>
<path d="M4460 2328 c0 -19 2 -20 10 -8 13 19 13 30 0 30 -5 0 -10 -10 -10
-22z"/>
<path d="M4532 1560 c-7 -113 -15 -223 -17 -245 -3 -26 -2 -35 4 -25 10 17 36
423 29 455 -2 11 -9 -72 -16 -185z"/>
<path d="M4682 2045 c0 -16 2 -22 5 -12 2 9 2 23 0 30 -3 6 -5 -1 -5 -18z"/>
<path d="M4907 1760 c3 -11 9 -22 13 -25 5 -3 6 4 3 15 -3 11 -9 22 -13 25 -5
3 -6 -4 -3 -15z"/>
<path d="M4751 1678 c1 -24 5 -54 9 -68 6 -19 8 -9 9 37 1 34 -3 65 -9 68 -6
4 -10 -11 -9 -37z"/>
<path d="M4886 1615 c-38 -70 -42 -80 -26 -70 18 11 78 135 65 135 -2 0 -19
-29 -39 -65z"/>
<path d="M4826 1313 c-9 -48 -15 -110 -14 -138 1 -39 2 -42 5 -15 2 19 10 79
19 134 8 54 13 100 11 103 -3 2 -12 -36 -21 -84z"/>
<path d="M5476 1779 c-16 -16 -26 -32 -24 -34 2 -3 17 9 33 25 16 16 26 32 24
34 -3 3 -18 -8 -33 -25z"/>
<path d="M5450 1651 c4 -16 13 -38 20 -48 10 -16 11 -15 5 7 -4 14 -9 35 -12
48 -3 12 -9 22 -13 22 -5 0 -5 -13 0 -29z"/>
<path d="M5415 1334 c-4 -22 -11 -56 -15 -76 -4 -21 -4 -36 0 -33 9 6 33 135
26 142 -3 3 -8 -12 -11 -33z"/>
<path d="M5606 757 c3 -10 9 -15 12 -12 3 3 0 11 -7 18 -10 9 -11 8 -5 -6z"/>
</g>
</svg>
