<?xml version="1.0" standalone="no"?>
<!DOCTYPE svg PUBLIC "-//W3C//DTD SVG 20010904//EN"
 "http://www.w3.org/TR/2001/REC-SVG-20010904/DTD/svg10.dtd">
<svg version="1.0" xmlns="http://www.w3.org/2000/svg"
 width="1024.000000pt" height="559.000000pt" viewBox="0 0 1024.000000 559.000000"
 preserveAspectRatio="xMidYMid meet">
<metadata>
Created by potrace 1.16, written by Peter Selinger 2001-2019
</metadata>
<g transform="translate(0.000000,559.000000) scale(0.100000,-0.100000)"
fill="#000000" stroke="none">
<path d="M3040 4879 l0 -260 -38 -57 c-52 -77 -455 -711 -471 -740 -13 -25
-11 -107 8 -289 7 -60 10 -260 9 -489 l-3 -388 -32 -8 -33 -9 0 -75 c0 -70 2
-75 25 -86 l25 -11 0 -164 c0 -89 0 -166 0 -170 0 -5 -29 -18 -64 -29 -75 -26
-113 -49 -121 -75 -11 -33 65 -440 87 -466 19 -24 59 -40 141 -58 96 -21 353
-17 427 8 100 33 105 39 130 134 7 30 15 41 25 37 11 -4 13 -26 10 -100 -1
-53 -6 -98 -9 -101 -3 -4 -6 -17 -6 -30 0 -23 -3 -24 -32 -16 -44 10 -100 8
-127 -7 -17 -9 -21 -19 -19 -43 3 -28 8 -33 58 -48 l55 -16 -60 -8 c-132 -17
-138 -19 -146 -46 -3 -15 -4 -59 -1 -99 l5 -73 78 -36 79 -36 0 -342 c0 -222
4 -343 10 -343 6 0 10 119 10 336 0 185 4 334 8 332 4 -1 38 -16 75 -33 l67
-29 0 -323 c0 -285 6 -367 23 -321 2 7 2 152 -1 322 -4 263 -3 308 9 304 11
-4 15 -31 17 -119 1 -63 6 -123 12 -134 5 -11 11 -40 13 -65 l4 -45 1 48 c2
46 13 59 29 34 4 -6 11 -66 14 -132 l6 -120 -1 123 c-1 67 0 122 1 122 1 0 13
-4 27 -10 l26 -10 0 -150 c0 -196 18 -202 22 -7 l3 144 321 -160 c194 -95 331
-157 344 -155 14 2 -119 73 -383 205 l-405 202 -4 103 c-2 57 -3 104 -2 106 1
1 87 -38 193 -88 486 -229 574 -270 684 -320 l117 -54 0 -82 c0 -46 5 -86 10
-89 6 -4 10 24 10 75 0 93 -9 89 97 42 l62 -27 3 -55 c4 -71 22 -71 26 0 2 30
9 58 15 62 27 17 37 7 39 -39 l1 -48 6 50 6 50 70 12 c39 6 76 12 83 12 8 1
12 -21 12 -76 0 -96 18 -87 22 12 l3 69 135 23 c448 77 974 166 1025 173 139
21 1381 231 1393 235 9 3 12 -27 12 -130 0 -74 -3 -135 -7 -135 -5 0 -82 -13
-173 -30 -91 -16 -232 -41 -315 -55 -82 -14 -172 -30 -200 -35 -27 -5 -189
-34 -360 -65 -577 -104 -570 -102 -491 -104 33 0 161 17 285 40 279 50 619
111 811 144 80 14 181 32 225 40 126 23 115 33 115 -106 0 -92 3 -120 13 -117
8 3 13 39 15 123 3 122 7 135 45 135 13 0 17 -9 19 -37 l1 -38 4 33 c3 18 13
42 24 53 17 17 19 34 19 154 0 91 4 135 11 135 8 0 9 -67 6 -232 -5 -237 -1
-342 14 -332 5 3 9 133 9 288 l0 283 90 15 90 15 0 -280 c0 -218 3 -278 13
-275 9 4 13 73 17 284 l5 278 65 11 64 10 9 40 c11 53 3 135 -14 146 -22 14
-348 115 -831 257 l-158 47 0 32 c0 29 4 32 62 52 56 19 63 19 79 5 14 -13 15
-20 6 -45 -12 -32 -34 -38 -44 -13 -4 10 1 22 11 29 10 8 13 16 7 19 -6 4 -19
-2 -30 -13 -13 -13 -27 -18 -43 -14 -20 6 -21 4 -10 -9 21 -26 151 -75 316
-117 151 -40 201 -46 142 -20 -28 13 -34 37 -14 57 23 23 38 14 32 -18 -8 -36
-3 -37 71 -8 50 19 62 20 101 10 24 -7 53 -12 65 -12 11 0 17 -5 14 -10 -3 -5
-39 -11 -78 -11 -117 -2 -147 -16 -37 -18 106 -1 159 9 240 44 30 13 64 27 75
31 19 7 19 8 -1 11 -12 2 -39 -3 -59 -11 -37 -16 -38 -16 -71 13 -20 18 -28
31 -21 34 7 2 20 -2 29 -11 16 -13 21 -13 50 2 l33 16 -32 -3 c-29 -2 -36 3
-59 41 -23 39 -24 43 -8 40 10 -2 24 -13 30 -26 10 -20 12 -21 24 -7 9 11 26
15 49 14 41 -3 59 14 21 19 -14 2 -30 8 -36 13 -8 6 -14 4 -18 -6 -3 -8 -12
-15 -21 -15 -18 0 -21 20 -2 21 6 0 2 4 -11 10 -29 11 -26 45 3 41 17 -2 18
-1 4 7 -16 11 -59 4 -59 -9 0 -4 7 -13 15 -20 8 -7 15 -16 15 -20 0 -14 -39
-18 -50 -5 -16 20 -72 25 -91 9 -14 -13 -19 -10 -43 21 -31 40 -32 40 41 19
l54 -16 46 36 c26 20 49 36 52 36 13 0 71 -40 71 -49 0 -5 11 -8 25 -7 28 1
28 19 0 25 -10 1 -27 11 -38 21 -31 29 -67 34 -96 12 -32 -23 -61 -34 -61 -23
0 20 42 59 68 64 28 6 47 30 37 47 -3 4 -17 11 -32 15 -16 3 -36 14 -45 22
-25 22 -48 9 -48 -27 0 -43 -28 -96 -43 -81 -15 15 -70 14 -85 -1 -9 -9 -16
-8 -30 6 -16 17 -15 19 17 46 18 16 31 33 27 38 -3 5 -26 13 -51 16 l-45 7 0
185 c0 163 2 184 16 184 14 0 350 83 432 106 12 3 22 11 22 16 0 5 -8 7 -17 4
-32 -9 -669 -166 -676 -166 -4 0 -7 29 -7 65 l0 64 38 10 c36 10 318 77 537
127 60 14 112 27 114 30 19 19 -52 6 -374 -72 -60 -14 -157 -37 -215 -50
l-105 -24 -253 42 -253 42 31 26 c35 29 38 62 6 68 -10 2 -40 -8 -66 -22 -40
-22 -49 -24 -54 -11 -3 10 9 23 40 41 34 20 44 32 42 48 -5 31 -36 31 -94 0
l-51 -28 -31 25 c-17 13 -31 26 -31 29 -1 3 46 11 104 18 58 7 144 19 193 27
48 8 132 21 187 30 55 9 118 16 140 17 36 0 419 -45 613 -72 76 -10 169 -13
161 -5 -5 5 -269 39 -579 75 -199 24 -205 23 -455 -14 -312 -48 -386 -58 -399
-53 -21 8 -150 196 -211 307 -77 140 -134 219 -194 270 -43 35 -54 52 -71 107
-19 63 -20 69 -4 109 16 41 15 45 -5 87 -11 24 -21 51 -21 59 0 21 -48 78 -66
78 -7 0 -18 19 -24 43 -24 90 -72 224 -95 263 -29 50 -84 100 -157 144 l-55
33 24 61 c14 34 29 86 35 116 5 30 20 73 33 96 13 22 27 64 31 92 4 35 14 58
30 73 18 17 24 33 24 65 0 32 5 46 19 53 35 19 71 153 51 190 -6 12 -13 38
-15 59 -3 22 -14 45 -29 58 -13 12 -27 31 -30 42 -8 25 -52 62 -73 62 -8 0
-29 16 -47 35 -30 32 -39 35 -88 35 -34 0 -68 7 -93 20 -49 25 -100 25 -147 1
-20 -10 -56 -18 -80 -18 -36 0 -47 -5 -73 -35 -16 -19 -40 -38 -53 -43 -24 -7
-62 -59 -62 -83 0 -8 -10 -27 -21 -44 -12 -17 -23 -47 -25 -67 -1 -20 -7 -49
-13 -64 -15 -39 -14 -67 4 -101 12 -23 13 -36 5 -61 -8 -23 -7 -40 1 -61 7
-16 11 -43 10 -59 -1 -19 6 -42 20 -59 21 -27 21 -28 4 -67 -23 -50 -87 -109
-120 -109 -13 0 -34 -4 -47 -9 -13 -5 -48 -14 -78 -21 -30 -7 -64 -20 -75 -30
-11 -9 -49 -27 -85 -40 -82 -29 -136 -56 -177 -86 l-32 -24 -195 313 -196 313
0 257 c0 165 -4 257 -10 257 -6 0 -10 -94 -10 -263 l0 -263 191 -304 c105
-168 193 -310 196 -317 2 -6 -11 -33 -30 -60 -19 -26 -42 -63 -51 -80 l-17
-33 -402 -1 c-221 -1 -431 -5 -467 -9 -37 -5 132 -7 398 -5 254 1 462 2 462 0
0 -11 -62 -134 -77 -152 -18 -22 -21 -22 -388 -28 -203 -3 -400 -8 -437 -10
l-67 -5 -4 92 -3 93 -2 -90 -2 -91 -32 3 c-18 1 -140 8 -271 14 l-238 12 3 81
3 81 265 -2 c170 -1 247 1 215 7 -27 4 -144 9 -258 9 l-209 1 20 33 c10 17
123 195 251 394 l231 362 0 266 c0 170 -4 265 -10 265 -6 0 -10 -94 -10 -261z
m2190 176 c14 -8 49 -14 79 -15 48 0 57 -4 85 -33 17 -19 43 -37 58 -40 15 -4
34 -14 42 -23 21 -20 21 -41 1 -24 -8 7 -15 9 -15 6 0 -4 -10 -1 -22 5 l-23
11 23 -21 c23 -22 26 -38 16 -65 -9 -23 -23 -20 -17 3 3 10 0 29 -7 41 -16 31
-23 18 -8 -15 11 -24 10 -29 -7 -41 -18 -13 -17 -14 8 -14 32 0 51 31 42 68
-6 25 -6 25 37 -10 24 -20 45 -44 47 -54 3 -18 2 -18 -16 -1 -11 9 -24 17 -29
17 -5 0 -4 -4 1 -8 6 -4 23 -22 38 -40 33 -41 38 -109 8 -136 -18 -16 -18 -16
-18 9 0 14 4 28 10 32 7 4 8 -1 3 -13 -5 -13 -4 -16 3 -9 6 6 7 24 1 49 -11
51 -27 66 -22 21 4 -34 -10 -65 -30 -65 -5 0 -2 7 6 16 18 18 20 42 6 64 -7
11 -8 6 -4 -16 10 -54 -12 -46 -30 11 -9 30 -18 55 -20 55 -2 0 -1 -20 1 -43
5 -39 2 -46 -22 -65 -32 -25 -45 -21 -45 14 0 13 -12 42 -26 64 -28 43 -42 54
-24 19 9 -16 8 -26 -5 -45 -17 -26 -48 -34 -39 -9 4 8 -5 30 -18 48 -14 17
-27 38 -29 45 -2 7 -16 -6 -32 -30 -15 -24 -29 -43 -31 -43 -2 0 -11 7 -20 15
-13 10 -17 23 -12 50 5 34 5 35 -9 10 -8 -14 -17 -47 -21 -73 -6 -46 -7 -47
-25 -31 -11 9 -19 29 -19 43 -1 23 -2 24 -11 7 -8 -13 -8 -25 0 -43 6 -13 11
-42 11 -64 0 -33 -4 -41 -24 -49 -13 -5 -28 -14 -32 -21 -5 -9 -10 -7 -16 7
-6 14 -7 11 -5 -13 4 -39 1 -40 -24 -10 -17 20 -18 20 -12 2 3 -11 9 -25 12
-30 3 -6 -2 -2 -11 8 -10 11 -18 25 -18 32 0 7 -9 24 -21 39 -12 16 -21 41
-21 62 0 19 -2 33 -6 30 -3 -3 -5 -18 -4 -33 0 -26 -3 -28 -36 -28 l-37 0 0
47 c0 25 -3 44 -7 41 -12 -6 -10 -81 2 -88 6 -4 5 -16 -4 -33 -26 -53 -27 -89
-2 -158 20 -54 22 -67 10 -78 -7 -8 -10 -16 -7 -20 4 -3 1 -6 -6 -6 -18 0 -32
47 -21 74 6 18 5 28 -5 36 -10 9 -14 30 -13 69 1 31 -2 73 -6 93 -7 29 -3 49
15 92 12 31 27 56 33 56 5 0 6 3 3 6 -4 4 -13 1 -22 -6 -22 -19 -18 3 7 35 12
16 24 37 25 48 5 34 22 54 58 71 19 9 35 21 35 26 0 25 42 50 83 50 23 1 53 7
67 15 14 8 45 14 70 14 25 0 56 -6 70 -14z m56 -270 c14 -21 14 -28 3 -41 -10
-13 -10 -17 2 -25 23 -14 38 -11 65 16 21 21 26 23 31 9 3 -9 1 -26 -6 -37
-10 -16 -10 -21 1 -29 19 -13 69 -1 95 24 23 21 34 13 12 -9 -17 -17 -1 -35
23 -27 20 6 21 4 15 -41 -4 -26 -7 -60 -7 -76 0 -30 -13 -38 -74 -43 -20 -2
-40 -7 -44 -10 -4 -4 -10 -53 -13 -107 -7 -118 -20 -142 -60 -111 -13 11 -34
22 -46 26 -26 8 -28 17 -11 34 13 13 8 15 -16 6 -11 -4 -13 -11 -6 -30 8 -20
7 -24 -11 -24 -29 0 -90 -28 -116 -52 -17 -16 -23 -18 -23 -7 0 14 -8 31 -52
109 -13 25 -28 65 -31 90 -6 48 9 119 28 127 7 2 10 15 7 28 -3 20 1 27 24 35
35 14 44 26 44 66 0 28 2 30 30 26 29 -4 41 10 20 23 -5 3 -10 15 -10 26 0 19
1 19 22 5 12 -9 33 -16 46 -16 19 0 22 4 17 20 -13 42 16 53 41 15z m-363
-133 c20 -22 38 -100 31 -132 -17 -75 -26 -91 -47 -88 -39 5 -78 121 -63 182
7 28 32 56 50 56 7 0 20 -8 29 -18z m647 -26 c0 -3 -4 -8 -10 -11 -5 -3 -10
-1 -10 4 0 6 5 11 10 11 6 0 10 -2 10 -4z m-568 -156 c-4 -76 -4 -79 37 -148
22 -39 41 -76 41 -84 0 -7 4 -19 9 -27 8 -12 16 -9 45 17 35 30 101 56 140 54
10 0 26 -8 35 -16 10 -9 28 -16 40 -16 16 0 26 -10 37 -35 15 -36 10 -70 -7
-44 -6 9 -9 -3 -9 -33 0 -27 -4 -48 -9 -48 -5 0 -14 -14 -20 -32 -12 -34 -38
-68 -53 -68 -5 0 -4 9 2 19 5 11 10 23 10 28 -1 4 -10 -9 -21 -29 -14 -28 -26
-38 -44 -38 -13 0 -26 4 -30 10 -3 5 -12 7 -19 4 -8 -3 -17 0 -21 5 -3 6 -11
9 -16 5 -16 -10 -79 45 -79 69 0 18 -2 19 -10 7 -7 -12 -11 -10 -19 10 -5 14
-10 21 -10 15 -2 -20 -41 51 -42 75 -1 17 -3 20 -6 7 -7 -27 -23 -10 -24 26 0
26 -2 28 -8 12 -8 -19 -8 -19 -15 2 -4 13 -4 27 -1 33 3 5 2 10 -2 10 -12 0
-14 78 -3 85 5 3 7 12 4 19 -3 7 8 28 23 47 15 19 19 27 9 19 -18 -14 -19 -13
-12 5 10 24 13 46 15 98 1 33 3 36 19 26 16 -10 18 -22 14 -89z m486 -6 c-13
-13 -25 -15 -55 -8 l-38 8 40 6 c70 12 71 12 53 -6z m-568 -58 c0 -2 -7 -24
-16 -50 -10 -28 -14 -60 -10 -79 16 -84 115 -225 198 -282 l46 -32 -20 -32
c-11 -17 -18 -34 -15 -37 3 -3 16 10 29 29 23 36 38 39 95 22 20 -6 -3 -65
-37 -96 -16 -15 -30 -35 -30 -44 0 -9 -11 -27 -24 -40 -33 -33 -62 -22 -90 35
-19 40 -28 47 -81 66 -115 40 -170 79 -70 49 27 -8 51 -12 53 -10 2 2 -29 14
-69 26 -88 26 -127 59 -169 143 -39 78 -38 91 9 115 21 11 51 35 66 53 28 33
85 143 85 164 0 7 10 9 25 6 14 -2 25 -5 25 -6z m513 -98 c-15 -32 -32 -58
-37 -58 -4 0 -5 7 -2 16 3 9 9 40 12 70 5 35 10 51 18 47 6 -4 5 0 -2 9 -11
14 -10 17 10 20 35 5 35 -35 1 -104z m-773 -148 c0 -5 -2 -10 -4 -10 -3 0 -8
5 -11 10 -3 6 -1 10 4 10 6 0 11 -4 11 -10z m-20 -37 c67 -76 135 -280 174
-526 23 -140 23 -137 -24 -137 -33 0 -40 4 -44 23 -2 12 -11 72 -21 132 -34
226 -100 420 -170 503 -23 27 -24 31 -8 35 44 11 62 6 93 -30z m-102 -25 c48
-53 103 -195 142 -370 24 -107 24 -105 0 -111 -22 -6 -23 -9 -45 -177 -33
-254 -88 -398 -195 -507 l-31 -32 -31 19 c-62 37 -95 77 -102 122 -4 24 -9 53
-13 66 -5 20 -1 22 29 22 33 0 78 29 78 50 0 5 11 26 25 46 14 20 25 51 25 68
0 23 9 41 33 65 60 57 108 186 106 281 -1 39 -3 34 -14 -34 -16 -95 -36 -150
-69 -191 l-24 -30 14 55 c15 56 31 209 21 200 -3 -3 -12 -43 -20 -90 -8 -47
-26 -111 -39 -143 l-25 -58 -26 33 c-14 18 -37 46 -51 62 -14 16 -26 32 -26
36 0 4 -6 7 -12 7 -7 0 -50 23 -94 50 -53 32 -104 54 -144 63 l-61 13 58 61
c32 34 65 70 73 82 8 11 -3 1 -25 -23 -22 -24 -43 -43 -47 -43 -13 0 58 145
101 208 58 86 116 129 239 179 59 23 112 42 118 43 6 0 20 -10 32 -22z m838
-135 c8 -21 19 -47 25 -58 9 -19 9 -18 4 3 -3 12 -8 32 -12 44 -6 21 -6 21 36
-3 88 -49 143 -134 188 -291 14 -51 34 -112 44 -136 18 -42 18 -44 -1 -82 -26
-51 -139 -145 -154 -129 -7 7 13 152 29 209 8 30 14 75 14 100 l-1 45 -10 -50
c-23 -125 -24 -125 -31 -25 -14 172 -23 167 -20 -11 l2 -174 -14 100 c-10 69
-20 104 -31 112 -11 8 -22 42 -31 92 -7 44 -25 120 -39 168 -15 48 -29 96 -31
106 -10 34 18 16 33 -20z m-526 -74 c14 -8 54 -25 90 -39 55 -22 68 -32 89
-69 43 -77 105 -81 142 -8 12 23 34 56 49 72 16 17 30 41 32 55 4 21 6 19 17
-18 9 -33 10 -60 2 -112 -14 -90 -12 -112 3 -35 l12 60 12 -66 c18 -101 17
-107 -25 -119 -72 -20 -193 -22 -318 -3 l-120 18 -9 45 c-4 25 -17 79 -27 120
-10 41 -17 76 -15 78 2 1 25 -33 51 -78 46 -79 71 -109 39 -49 -28 56 -84 139
-93 139 -5 0 -11 12 -14 28 -3 15 -9 36 -13 47 -5 14 4 10 32 -16 21 -20 50
-43 64 -50z m478 64 c23 -46 81 -313 82 -380 0 -6 -10 -13 -22 -15 -17 -2 -24
-11 -26 -31 -4 -35 23 -47 44 -21 14 18 14 18 12 -6 -2 -20 -8 -25 -33 -25
-26 0 -30 4 -33 30 -12 140 -50 362 -71 419 -15 39 28 66 47 29z m-2515 -349
c124 -6 127 -7 127 -29 0 -12 -7 -29 -16 -36 -25 -20 -88 -118 -114 -174 -55
-122 -62 -171 -67 -472 -3 -156 -8 -283 -10 -283 -3 0 -22 4 -42 10 -20 5 -55
14 -78 20 l-43 11 0 485 0 485 58 -5 c31 -3 114 -8 185 -12z m1102 -18 c-14
-14 -25 -35 -25 -47 0 -11 -11 -34 -25 -51 -29 -34 -31 -64 -8 -112 15 -33 15
-37 -4 -83 -43 -101 -93 -311 -93 -392 0 -50 17 -71 112 -133 129 -84 153 -96
251 -123 122 -34 117 -32 111 -50 -4 -9 -18 -15 -35 -15 -16 0 -77 -7 -136
-15 -59 -8 -157 -22 -218 -30 -60 -9 -188 -26 -283 -40 -158 -22 -177 -23
-230 -10 -31 7 -109 26 -172 41 -185 44 -296 72 -282 73 7 1 12 15 12 36 0 32
3 35 38 40 65 11 69 14 14 12 l-52 -2 0 221 c0 189 3 232 20 300 27 105 71
190 142 275 43 51 57 75 53 90 -4 12 -2 19 7 20 7 1 153 4 323 8 171 3 354 7
408 9 l97 3 -25 -25z m-851 8 c9 -3 16 -15 16 -25 0 -17 -8 -19 -60 -19 -57 0
-60 1 -60 25 0 23 4 25 44 25 24 0 51 -3 60 -6z m1654 -79 c6 -79 23 -94 89
-78 l38 9 -1 76 c-1 52 2 75 10 72 6 -2 70 -10 141 -18 122 -13 206 -10 296 9
26 6 27 5 35 -62 l9 -68 50 0 50 0 5 55 c4 42 8 15 18 -117 14 -173 9 -348
-10 -359 -11 -7 -58 34 -58 52 0 6 -7 17 -15 24 -8 7 -15 20 -15 29 0 10 -15
31 -33 49 -26 25 -48 34 -107 46 -41 8 -93 22 -114 31 -54 23 -129 13 -150
-21 -9 -13 -16 -28 -16 -33 0 -5 20 -40 45 -77 25 -36 45 -71 45 -76 0 -6 7
-23 17 -38 l16 -28 -64 -86 c-61 -82 -65 -86 -96 -81 -18 3 -78 -2 -133 -11
l-101 -17 -102 38 c-56 21 -107 42 -114 47 -9 7 0 24 33 64 95 118 148 268
179 509 9 72 19 134 22 138 12 20 25 -15 31 -78z m-623 44 c113 -42 259 -159
287 -229 14 -34 13 -67 -2 -85 -11 -14 -18 -8 -45 44 -35 65 -78 118 -129 160
-26 21 -24 18 9 -19 125 -139 168 -270 89 -270 -14 0 -23 4 -19 10 4 6 11 8
16 5 15 -10 10 18 -10 52 -37 60 -209 170 -303 194 -60 14 -98 6 -98 -22 0
-11 -4 -17 -10 -14 -16 10 -11 71 8 94 19 25 81 42 126 35 l31 -4 -30 10 c-16
6 -45 9 -62 6 -27 -4 -33 -1 -33 14 0 44 85 53 175 19z m1297 -41 c-15 -15
-26 -4 -18 18 5 13 9 15 18 6 9 -9 9 -15 0 -24z m-2355 -18 c-19 -20 -52 -67
-73 -104 l-39 -66 -52 0 c-29 0 -53 2 -53 5 0 16 53 107 88 150 40 50 40 50
101 52 l62 2 -34 -39z m2683 -9 c30 -57 -9 -156 -93 -241 -29 -29 -43 -48 -32
-42 38 20 112 107 130 155 16 42 19 45 31 30 20 -27 17 -55 -14 -104 -35 -55
-122 -122 -185 -143 -63 -21 -67 -21 -67 12 0 37 7 44 70 80 30 18 51 32 45
32 -5 0 -30 -11 -54 -25 -23 -14 -45 -25 -47 -25 -2 0 -4 13 -4 28 0 23 7 32
36 45 44 21 131 102 151 140 8 16 13 40 10 53 -5 29 8 32 23 5z m-1658 -127
c68 -35 156 -95 187 -128 l24 -26 -19 -35 c-10 -20 -34 -50 -51 -67 l-33 -32
-27 20 c-16 11 -35 24 -43 29 -13 8 -13 7 -1 -8 12 -16 9 -17 -35 -12 l-49 5
55 -18 c77 -26 91 -34 205 -127 102 -82 164 -115 330 -172 70 -24 71 -24 156
-8 88 17 145 17 142 0 -1 -5 -12 -12 -24 -15 -21 -5 -19 -8 21 -40 24 -19 64
-49 89 -65 50 -33 63 -62 36 -81 -15 -11 -25 -9 -66 11 -52 27 -59 29 -59 17
0 -4 20 -19 45 -32 46 -25 53 -44 23 -63 -12 -8 -27 -6 -56 7 -22 10 -46 16
-54 13 -7 -3 5 -13 29 -23 44 -20 52 -34 30 -52 -9 -8 -24 -8 -51 -1 -48 13
-71 5 -28 -11 37 -14 41 -25 10 -33 -61 -16 -187 40 -246 111 -40 48 -42 49
-154 75 -62 14 -153 34 -202 43 -158 29 -235 60 -347 141 -26 18 -50 33 -55
33 -23 0 -54 46 -54 80 0 86 38 247 93 394 l40 108 44 -6 c23 -3 67 -18 95
-32z m-1162 -111 c-10 -38 -21 -85 -25 -105 -6 -36 -8 -38 -45 -38 -21 0 -45
-3 -54 -6 -11 -4 -16 0 -16 14 0 25 36 177 45 192 3 5 30 10 60 10 l53 0 -18
-67z m2230 -23 c52 -18 84 -34 82 -42 -10 -38 70 -105 113 -94 20 5 28 0 48
-29 13 -19 35 -44 50 -55 34 -27 34 -40 0 -40 -29 1 -56 22 -199 161 -51 49
-79 69 -97 69 -37 0 -120 42 -104 52 16 11 12 11 107 -22z m636 -36 c13 -46
28 -68 84 -123 73 -72 103 -115 205 -296 37 -66 87 -144 111 -174 24 -29 44
-57 44 -62 0 -4 36 -36 80 -69 44 -34 89 -70 100 -82 23 -25 38 -124 21 -141
-8 -8 -11 3 -11 43 0 39 -3 51 -10 40 -5 -8 -10 -41 -10 -72 0 -31 -4 -60 -10
-63 -6 -4 -10 15 -10 49 0 30 -4 58 -10 61 -6 4 -10 -19 -10 -62 0 -63 -10
-93 -31 -93 -4 0 -11 31 -15 70 -3 38 -10 67 -15 64 -5 -3 -6 -35 -3 -72 6
-67 6 -67 -24 -84 -37 -22 -58 -23 -66 -3 -3 9 1 15 11 15 13 0 15 8 10 44 -9
64 -25 91 -63 110 -43 20 -55 20 -48 2 4 -9 -6 -21 -27 -31 -51 -27 -59 -1
-37 124 12 68 11 70 -20 133 -17 36 -41 73 -53 84 -13 12 -8 -2 15 -36 20 -30
36 -58 36 -62 0 -5 -24 11 -53 34 -30 24 -95 72 -146 107 -109 76 -165 138
-216 241 -21 41 -53 96 -71 121 -48 66 -45 82 19 102 62 20 131 61 172 105 16
18 31 32 32 32 1 0 10 -25 19 -56z m-722 11 c27 -14 61 -25 75 -25 32 0 151
-112 151 -141 0 -11 18 -39 39 -62 l40 -43 -30 -46 -30 -47 -36 40 c-19 21
-44 39 -55 39 -28 0 -118 89 -139 138 -10 24 -32 62 -47 85 -33 48 -43 72 -35
81 9 9 14 8 67 -19z m257 -26 c29 -20 38 -39 19 -39 -5 0 -24 13 -42 30 -38
34 -21 40 23 9z m10 -49 c5 0 9 -4 9 -10 0 -16 -19 -12 -51 11 -16 11 -29 27
-29 36 0 11 8 8 31 -11 17 -14 35 -26 40 -26z m-2443 -146 c3 -109 2 -112 -20
-118 -13 -3 -33 -6 -45 -6 -12 0 -24 -3 -26 -7 -3 -5 17 -6 44 -5 l50 4 -3
-119 -3 -118 -52 -3 -53 -3 0 240 0 240 38 4 c70 7 67 12 70 -109z m1378 48
c-3 -3 -15 3 -26 13 -19 17 -19 19 -3 37 17 19 18 19 26 -12 4 -18 6 -35 3
-38z m1124 -74 c0 -16 -18 -7 -49 24 -47 48 -39 70 9 23 22 -21 40 -43 40 -47z
m143 25 c14 -21 43 -74 63 -118 46 -96 131 -186 244 -259 84 -54 160 -114 160
-124 0 -4 -41 -13 -91 -20 -51 -7 -96 -15 -100 -18 -12 -7 -11 -151 1 -159 6
-3 11 -48 12 -98 l2 -92 3 88 4 88 37 -3 c35 -3 37 -5 40 -40 4 -48 22 -50 22
-2 l0 36 43 -7 c62 -10 64 -20 10 -51 -98 -56 -111 -65 -127 -89 -12 -18 -26
-25 -49 -25 -50 -1 -115 -35 -137 -73 -16 -26 -31 -37 -63 -45 -23 -6 -45 -8
-48 -4 -4 4 -10 26 -14 50 -7 42 1 52 23 30 6 -6 14 -9 18 -6 3 4 -7 13 -23
21 -26 14 -30 24 -50 124 -12 59 -30 140 -39 178 -26 113 -29 178 -9 209 13
19 17 42 14 84 -7 124 0 203 21 229 24 30 26 85 5 107 -17 16 -19 26 -6 26 4
0 20 -17 34 -37z m-405 -33 c13 -11 21 -24 17 -30 -3 -6 0 -7 9 -4 9 3 16 3
16 -1 0 -14 -154 -215 -165 -215 -16 1 -68 47 -64 57 7 15 154 212 159 212 3
0 15 -8 28 -19z m333 -3 c-40 -13 -111 -81 -110 -106 0 -12 4 -10 17 9 37 53
63 78 87 82 37 8 37 0 2 -49 -38 -53 -53 -63 -100 -61 l-35 1 20 36 c39 70 77
100 128 99 21 0 20 -2 -9 -11z m-191 -107 c42 -46 50 -50 92 -50 28 0 50 6 58
15 21 25 33 17 26 -16 -3 -17 -1 -60 4 -95 9 -57 8 -69 -10 -104 -21 -42 -52
-63 -110 -75 l-35 -7 53 42 c28 23 52 44 52 46 0 6 -66 -42 -100 -72 -32 -29
-89 -42 -220 -50 l-105 -7 30 31 c54 54 75 85 75 106 0 12 9 27 20 34 27 17
25 42 -5 67 l-26 20 61 83 c34 45 68 82 77 82 9 0 38 -22 63 -50z m-180 -169
c0 -4 -3 -11 -7 -14 -9 -9 -44 23 -37 34 6 10 44 -7 44 -20z m-2420 -61 c41
-11 96 -20 122 -20 26 0 139 -22 250 -49 374 -92 361 -90 491 -70 580 86 709
102 718 87 6 -10 -1 -15 -29 -20 -35 -7 -335 -51 -467 -68 -33 -4 -125 -18
-205 -31 -80 -12 -156 -23 -170 -22 -27 0 -773 188 -805 203 l-20 9 20 0 c11
0 54 -8 95 -19z m-31 -25 c47 -13 214 -56 371 -95 157 -39 302 -76 323 -81
l37 -10 0 -64 c0 -36 -1 -65 -3 -65 -5 0 -206 55 -281 77 -48 14 -55 18 -36
23 32 8 48 35 34 58 -10 14 -24 16 -75 14 -35 -1 -87 -10 -116 -18 -46 -15
-56 -15 -100 -1 -26 8 -75 22 -108 31 -33 9 -82 22 -110 29 l-50 14 -3 63 c-3
56 -1 62 14 56 9 -4 56 -17 103 -31z m1721 15 c8 -5 12 -11 10 -14 -3 -2 -14
2 -24 10 -22 15 -10 19 14 4z m-56 -9 c10 -15 137 -62 235 -86 52 -13 101 -31
110 -39 14 -15 14 -17 -1 -32 -15 -15 -21 -15 -81 0 -96 24 -185 55 -239 82
-41 21 -48 29 -48 54 0 29 13 40 24 21z m201 -23 c41 -12 77 -28 79 -35 7 -17
-4 -16 -72 3 -79 21 -112 35 -112 45 0 14 24 11 105 -13z m-255 -42 c0 -2 -13
-32 -29 -67 l-29 -64 -188 -29 c-217 -33 -390 -60 -518 -81 -49 -8 -93 -15
-98 -15 -4 0 -8 29 -8 65 0 36 3 65 6 65 3 0 115 16 248 36 132 19 268 39 301
44 148 20 290 42 294 46 5 5 21 5 21 0z m1160 -61 c-12 -15 -83 -38 -185 -61
-73 -17 -345 -31 -345 -18 0 9 24 27 69 51 14 8 59 13 113 13 90 0 260 29 321
55 30 12 32 12 35 -6 2 -11 -2 -26 -8 -34z m-1149 -90 c-23 -65 -40 -119 -38
-121 2 -2 18 36 37 84 59 156 58 152 75 146 11 -5 15 -13 10 -28 -18 -62 -44
-204 -49 -273 -6 -96 -3 -85 24 87 12 74 28 149 36 165 13 29 14 28 9 -25 -16
-178 -65 -882 -65 -933 0 -26 -2 -28 -34 -22 -26 5 -37 3 -47 -13 -11 -15 -31
-20 -91 -25 l-76 -7 5 43 c33 301 104 713 154 897 24 88 66 167 81 152 7 -7
-4 -49 -31 -127z m2239 96 c0 -10 -65 -51 -81 -51 -18 0 1 20 39 40 44 23 42
22 42 11z m-3877 -22 l37 -10 0 -154 0 -155 -35 0 c-19 0 -37 -1 -40 -2 -2 -2
-6 72 -9 165 -2 92 -1 167 2 167 4 0 24 -5 45 -11z m1796 1 c10 -5 56 -19 102
-31 46 -12 86 -23 87 -24 2 -2 -12 -25 -32 -51 -20 -26 -36 -53 -36 -61 0 -42
68 -91 109 -78 11 3 46 42 78 86 56 78 59 80 93 75 185 -27 428 -2 573 59 33
14 36 13 41 -3 14 -50 86 -403 88 -437 l3 -40 -70 -7 c-38 -5 -94 -11 -123
-14 -28 -3 -59 -13 -68 -21 -9 -9 -53 -21 -107 -29 -131 -19 -258 -44 -284
-54 -27 -11 -31 -51 -7 -74 23 -24 91 -69 164 -108 65 -36 235 -98 266 -98 10
0 15 -3 12 -6 -4 -3 -91 -14 -195 -24 -103 -11 -255 -26 -338 -34 -82 -9 -179
-15 -215 -14 -36 0 -101 -7 -144 -16 -44 -9 -82 -14 -84 -11 -7 7 -4 85 18
410 29 432 43 615 48 615 2 0 11 -4 21 -10z m1611 -25 c0 -27 0 -27 -115 0
l-50 12 60 7 c33 4 67 8 75 10 23 4 30 -3 30 -29z m-1267 -39 c-35 -59 -119
-156 -134 -156 -21 0 -59 33 -59 51 0 6 25 44 55 85 l56 73 44 -21 c25 -12 41
-26 38 -32z m-2053 -47 c0 -82 2 -91 20 -96 17 -4 20 -14 20 -54 l0 -49 -35 0
-35 0 0 145 c0 122 2 145 15 145 12 0 15 -17 15 -91z m355 71 c0 -9 -15 -17
-45 -22 -84 -13 -116 -27 -128 -53 -14 -31 -52 -35 -52 -4 0 36 51 77 106 84
27 4 54 8 59 10 23 8 60 -1 60 -15z m-266 -10 c45 -12 46 -13 31 -40 -5 -10
-12 -35 -15 -56 -6 -48 -16 -58 -54 -49 l-31 7 0 80 c0 66 3 79 14 75 8 -3 33
-11 55 -17z m3143 -1 l78 -12 -6 -56 c-4 -31 -8 -57 -9 -59 -2 -2 -44 4 -94
13 l-91 17 0 60 c0 57 1 60 23 55 12 -3 57 -11 99 -18z m618 -9 c0 -8 -28 -28
-87 -64 -8 -4 -13 -2 -13 6 0 7 19 25 43 40 47 29 57 33 57 18z m-2395 -107
c-12 -48 -26 -88 -31 -90 -5 -1 -88 -16 -184 -33 -96 -17 -211 -37 -255 -45
-44 -8 -97 -18 -117 -21 l-38 -7 0 91 c0 105 -13 94 140 117 58 8 184 28 280
44 96 16 187 30 201 30 l26 1 -22 -87z m-1082 42 c51 -14 118 -32 150 -42 l57
-16 0 -84 c0 -77 -2 -84 -18 -79 -10 3 -92 28 -182 55 -225 67 -222 65 -211
93 9 23 30 63 44 86 12 18 58 15 160 -13z m3682 -60 c116 -19 220 -37 233 -40
20 -5 22 -11 22 -70 0 -43 -4 -65 -12 -65 -6 0 -82 13 -167 29 -86 16 -213 40
-283 52 -71 12 -128 26 -128 29 0 4 7 13 15 20 8 7 15 25 15 40 0 36 35 61 70
49 14 -5 120 -24 235 -44z m-3903 5 c-16 -69 -39 -292 -26 -247 5 14 14 16 62
11 71 -7 191 -34 197 -44 10 -17 -88 -32 -246 -37 -165 -5 -296 5 -355 28
l-29 11 25 10 c32 13 193 38 243 38 31 0 37 -3 37 -22 0 -44 11 -8 25 83 25
154 35 191 54 186 9 -2 15 -10 13 -17z m658 -256 c0 -229 -2 -256 -16 -250 -9
3 -31 6 -50 6 l-34 0 2 243 3 242 35 6 c19 4 41 7 48 8 9 1 12 -56 12 -255z
m2643 249 c8 -8 -9 -20 -98 -68 -38 -21 -74 -42 -79 -46 -13 -12 -26 -11 -26
0 0 9 177 121 191 121 3 0 9 -3 12 -7z m-2785 -13 l22 0 0 -239 0 -239 -22 -6
c-13 -3 -33 -6 -45 -6 l-23 0 0 251 0 251 23 -6 c12 -3 32 -6 45 -6z m2803
-43 c-8 -8 -11 -7 -11 4 0 20 13 34 18 19 3 -7 -1 -17 -7 -23z m-3391 -28 c0
-21 -4 -39 -10 -39 -5 0 -10 21 -10 46 0 27 4 43 10 39 6 -3 10 -24 10 -46z
m3360 12 c0 -12 -49 -31 -55 -21 -7 11 35 41 47 34 4 -3 8 -9 8 -13z m-3067
-52 l207 -62 0 -153 c0 -85 -2 -154 -5 -154 -3 0 -27 14 -55 31 -35 22 -49 36
-46 48 3 9 10 52 17 95 l12 80 -36 31 c-20 18 -56 37 -79 44 -35 11 -202 40
-230 41 -5 0 -8 14 -8 30 0 17 3 30 8 30 4 0 100 -28 215 -61z m3126 28 c-2
-2 -38 -25 -80 -50 -78 -49 -119 -62 -86 -30 33 33 152 101 161 92 5 -5 8 -10
5 -12z m439 -32 c114 -20 221 -39 237 -44 l30 -7 3 -233 c2 -199 0 -232 -12
-228 -8 3 -22 -3 -32 -14 -9 -10 -30 -19 -46 -19 -33 0 -36 -10 -8 -35 11 -10
20 -22 20 -26 0 -4 -24 -15 -54 -23 -51 -15 -54 -18 -60 -55 l-6 -40 -58 19
c-61 19 -200 61 -269 81 -24 7 -43 16 -43 20 0 5 20 20 45 35 25 14 45 31 45
38 0 6 30 26 66 44 182 90 362 292 302 339 -14 11 -206 3 -399 -18 -122 -12
-138 -11 -233 15 -54 15 -139 15 -213 0 -13 -2 -23 0 -23 5 0 4 13 11 29 14
15 3 56 22 91 43 55 32 64 35 72 20 11 -20 42 -21 62 -1 8 8 23 15 33 15 10 0
33 9 51 20 18 11 39 20 46 20 7 0 30 14 51 30 21 17 45 28 52 26 7 -3 107 -22
221 -41z m-2535 -97 c-24 -136 -67 -426 -78 -533 -10 -102 -12 -107 -42 -103
-19 2 -44 25 -90 83 -153 192 -201 232 -313 261 l-45 11 -3 155 -2 155 51 7
c29 4 65 10 80 13 l29 6 0 -126 c0 -104 3 -127 17 -138 23 -20 151 -19 163 1
5 8 10 79 10 156 l0 142 98 17 c53 9 102 18 107 20 42 15 43 11 18 -127z
m1961 113 c8 -12 -102 -81 -127 -81 -17 0 -18 2 -6 16 13 16 108 74 121 74 4
0 9 -4 12 -9z m-124 -8 c0 -5 -9 -19 -20 -33 -11 -14 -20 -38 -20 -55 0 -39
-39 -106 -70 -122 -14 -7 -38 -12 -55 -12 -30 1 -30 1 -4 8 55 17 69 31 69 65
0 27 4 32 22 32 31 -1 36 32 6 43 -23 8 -23 8 14 45 34 34 58 46 58 29z
m-3170 -31 c0 -5 -45 -12 -99 -15 -101 -6 -207 -28 -242 -50 -10 -6 -19 -20
-19 -29 0 -47 116 -78 315 -85 219 -7 379 20 409 70 23 37 -75 77 -226 92 -37
4 -66 10 -63 14 2 4 37 4 77 -1 164 -18 271 -65 247 -110 -39 -72 -347 -110
-592 -73 -250 37 -273 121 -47 169 105 22 240 32 240 18z m1090 -131 c0 -133
-1 -140 -21 -146 -32 -11 -84 -8 -108 4 -20 11 -21 20 -21 136 0 101 3 125 14
125 8 0 21 3 30 6 14 5 16 -10 17 -132 0 -104 3 -133 10 -114 6 14 9 76 7 137
-3 120 -4 119 50 122 22 1 22 0 22 -138z m2305 109 c-5 -16 -10 -19 -18 -11
-7 7 -6 15 3 26 17 20 24 13 15 -15z m1075 -149 l0 -179 -32 -7 c-18 -4 -43
-13 -55 -21 l-22 -14 5 178 c6 188 8 202 24 202 6 0 11 -43 12 -112 l2 -113 3
105 c4 121 14 159 23 85 l7 -50 1 47 c2 40 7 50 30 57 1 1 2 -80 2 -178z
m-4470 130 c0 -16 -12 -19 -104 -25 -60 -4 -131 -15 -166 -27 -44 -14 -66 -17
-73 -10 -32 32 120 74 291 79 45 2 52 -1 52 -17z m250 -7 c74 -17 118 -40 102
-56 -7 -7 -26 -5 -59 6 -42 14 -167 35 -215 36 -11 0 -15 6 -11 19 4 17 12 19
61 14 32 -3 86 -12 122 -19z m3965 7 l30 -6 5 -195 6 -195 2 196 2 197 31 6
c17 3 37 6 43 6 14 0 13 -447 -2 -462 -6 -6 -16 -5 -29 3 -29 17 -71 3 -92
-31 -17 -28 -19 -29 -34 -12 -13 14 -16 55 -19 260 -3 265 -8 247 57 233z
m-991 -26 c-10 -8 -31 -19 -46 -24 -24 -8 -28 -7 -28 8 0 12 12 20 43 27 50
11 57 9 31 -11z m-176 3 c-3 -8 -24 -13 -53 -14 -38 -1 -52 -7 -66 -25 -10
-13 -19 -19 -19 -13 0 12 38 49 60 57 30 11 82 7 78 -5z m59 -14 c-9 -9 -28 6
-21 18 4 6 10 6 17 -1 6 -6 8 -13 4 -17z m-130 -20 c-3 -3 -12 -4 -19 -1 -8 3
-5 6 6 6 11 1 17 -2 13 -5z m73 -23 c0 -16 -19 -23 -40 -16 -30 10 -24 25 10
25 17 0 30 -4 30 -9z m-70 -31 c0 -4 -7 -13 -16 -21 -8 -7 -24 -29 -34 -50
-19 -36 -21 -37 -83 -41 -50 -3 -83 -13 -150 -46 -83 -42 -86 -42 -119 -28
l-33 16 35 -6 c37 -6 33 11 -5 18 -16 3 -10 10 30 36 84 54 166 90 260 115 86
23 115 24 115 7z m-3310 -32 c0 -4 6 -5 13 -3 6 2 27 1 46 -3 27 -6 36 -14 42
-35 6 -23 5 -27 -9 -23 -9 3 -29 8 -44 12 -16 3 -28 10 -28 14 0 5 -9 6 -19 3
-23 -6 -61 29 -61 57 0 18 1 18 30 2 16 -9 30 -20 30 -24z m726 15 c-12 -47
-68 -76 -59 -30 3 12 17 30 31 39 36 22 35 22 28 -9z m2712 5 c-22 -34 -83
-62 -116 -52 -24 7 -23 8 21 14 33 4 56 14 75 33 32 33 39 34 20 5z m381 -24
c75 -25 139 -51 143 -58 4 -6 8 -64 8 -128 l0 -117 -45 -31 c-83 -57 -111
-160 -67 -246 28 -53 67 -88 132 -117 l55 -24 -55 -7 c-30 -4 -61 -11 -69 -15
-9 -6 -21 -2 -35 11 -28 26 -121 73 -175 88 -109 29 -243 -52 -260 -159 l-6
-35 -80 -13 -81 -14 -189 91 c-104 49 -196 90 -204 90 -25 0 1 16 48 29 58 17
107 54 120 93 14 39 14 94 0 119 -9 18 -8 19 18 13 122 -30 202 -75 226 -127
24 -49 22 -163 -2 -232 -20 -57 -14 -76 8 -27 48 102 53 194 16 269 -43 86
-111 117 -355 164 -186 35 -362 102 -480 182 -47 32 -60 45 -60 63 0 11 169
45 333 66 80 10 96 15 92 28 -5 12 -4 13 6 3 7 -7 18 -13 23 -13 6 0 4 4 -4
10 -21 13 -12 17 55 23 67 6 67 7 -29 -52 -60 -37 -73 -56 -54 -78 9 -12 7
-13 -13 -9 -13 3 -85 8 -159 11 -74 3 -151 8 -170 11 -29 4 -31 3 -13 -5 12
-6 125 -17 249 -26 205 -13 230 -13 251 0 13 9 29 13 35 9 6 -4 8 -3 5 3 -8
12 14 23 44 23 10 0 19 4 19 9 0 11 86 31 130 31 19 0 33 7 40 20 9 16 21 20
61 20 59 0 85 11 119 51 20 23 37 31 85 38 113 16 142 13 284 -35z m521 28 c0
-27 -100 -143 -167 -194 -57 -44 -152 -98 -173 -98 -7 0 -8 28 -4 83 10 121
-3 151 -69 174 l-52 17 80 8 c74 7 293 23 358 27 20 1 27 -4 27 -17z m-3680
-31 c0 -25 -15 -41 -37 -41 -13 0 -33 -5 -44 -10 -16 -9 -19 -7 -19 14 0 21 7
26 43 34 57 13 57 13 57 3z m-355 -26 c83 -2 172 0 198 4 48 8 48 8 45 -18 -3
-24 -7 -26 -51 -27 -26 0 -50 -4 -54 -7 -3 -4 -26 -7 -50 -7 -38 0 -43 3 -44
23 l-2 22 -4 -22 c-4 -21 -10 -23 -59 -23 -44 0 -54 3 -55 18 0 10 -3 12 -6 5
-3 -8 -23 -13 -49 -13 -39 0 -46 3 -54 26 -14 35 -13 37 13 29 12 -3 90 -8
172 -10z m-255 -38 c56 -17 95 -20 277 -21 209 -1 213 -1 213 -22 0 -19 -8
-22 -67 -27 -204 -20 -452 12 -504 64 -24 24 -25 44 -1 34 9 -4 46 -17 82 -28z
m670 19 c0 -20 -12 -26 -39 -19 l-23 6 23 13 c31 17 39 17 39 0z m-20 -57 c19
-11 57 -34 84 -51 49 -32 51 -32 180 -33 202 -1 295 -42 396 -177 30 -40 72
-91 93 -114 l38 -42 -53 -17 c-29 -10 -66 -24 -82 -32 -26 -14 -34 -12 -135
30 -58 25 -133 55 -166 68 -205 77 -309 165 -275 230 16 29 1 43 -94 91 -100
50 -112 58 -94 70 17 10 64 0 108 -23z m-690 -9 c4 0 10 -19 14 -42 4 -24 9
-53 12 -65 5 -18 2 -21 -15 -16 -30 8 -38 22 -46 82 -7 48 -6 53 10 48 9 -4
20 -7 25 -7z m680 -60 c47 -24 80 -45 74 -47 -7 -2 -52 15 -100 39 -62 30 -90
49 -93 63 -3 19 -2 19 15 4 11 -9 57 -36 104 -59z m-550 30 c71 -13 106 -17
163 -19 l37 -1 0 -60 0 -60 -50 0 -50 0 -2 58 -2 57 -3 -57 -4 -57 -37 6 c-49
7 -55 14 -63 71 l-8 47 3 -53 3 -53 -31 7 c-43 9 -45 10 -51 52 -3 20 -8 48
-11 61 -4 20 -2 23 18 18 13 -3 52 -11 88 -17z m402 -57 c-2 -32 -6 -60 -7
-61 -8 -9 -85 -22 -132 -22 l-53 0 0 60 c0 59 1 60 28 60 15 0 37 3 50 6 20 6
22 3 24 -37 l1 -44 4 42 c4 36 7 42 31 46 61 9 59 11 54 -50z m53 20 c53 -25
45 -62 -17 -77 -28 -6 -28 -6 -28 44 0 27 2 50 5 50 2 0 20 -8 40 -17z m4500
-17 c49 -24 49 -30 0 -38 -11 -2 -33 -24 -50 -50 -16 -26 -36 -48 -42 -48 -8
0 0 21 18 50 24 39 30 58 25 80 -3 17 -4 30 -3 30 1 0 25 -11 52 -24z m-226 0
c9 -11 5 -17 -16 -30 l-28 -17 24 20 c13 12 17 21 10 21 -7 0 -21 -7 -30 -16
-17 -16 -14 -21 62 -105 67 -73 79 -91 71 -106 -8 -13 -6 -25 6 -45 18 -31 32
-36 32 -13 0 16 29 34 47 28 7 -3 10 3 6 16 -5 18 -7 19 -20 6 -28 -28 -51
-36 -57 -20 -8 22 29 55 63 55 22 0 38 -10 60 -37 l30 -36 -140 -48 c-77 -27
-144 -51 -150 -55 -7 -4 -9 3 -7 17 2 15 14 27 35 36 28 11 32 11 27 -2 -4 -8
-11 -15 -17 -15 -6 0 -7 -3 -4 -7 9 -8 47 26 47 43 0 7 -42 69 -94 139 -104
137 -109 145 -102 145 6 0 93 -110 160 -204 31 -43 56 -74 56 -69 0 13 -68
109 -142 200 -32 40 -59 78 -60 84 -6 26 111 39 131 15z m-4199 -27 c0 -5 -7
-9 -15 -9 -8 0 -15 7 -15 15 0 9 6 12 15 9 8 -4 15 -10 15 -15z m4054 -50
c-12 -20 -34 -8 -34 18 0 25 1 26 20 8 11 -10 17 -22 14 -26z m-4639 5 c145
-42 393 -39 526 6 65 22 80 20 63 -8 -23 -37 -195 -72 -350 -72 -146 0 -334
48 -334 86 0 12 5 15 23 9 12 -4 45 -13 72 -21z m4884 -20 c29 -20 16 -33 -26
-27 -33 5 -45 27 -20 36 19 8 21 8 46 -9z m-214 -14 c12 -19 -16 -40 -51 -40
-41 0 -44 14 -6 34 32 18 49 20 57 6z m-4708 -31 c8 -15 9 -25 2 -27 -15 -6
-39 18 -39 40 0 26 22 18 37 -13z m616 14 c-8 -24 -24 -43 -34 -43 -16 0 -9
39 9 49 25 15 32 13 25 -6z m187 -72 c57 -37 122 -66 365 -164 60 -24 111 -49
113 -55 4 -14 -375 139 -454 183 -66 37 -114 85 -114 113 1 11 6 7 16 -11 8
-16 42 -45 74 -66z m3780 64 c14 -8 20 -14 14 -15 -7 0 -26 -13 -44 -30 -34
-32 -50 -31 -50 1 0 19 33 59 48 59 4 -1 18 -7 32 -15z m-4512 -10 c15 -4 22
-14 22 -32 0 -22 -3 -24 -27 -18 -33 8 -39 13 -48 43 -7 25 -10 25 53 7z m492
-8 c0 -16 -9 -28 -25 -35 -37 -17 -55 -15 -55 7 0 26 23 42 73 50 4 0 7 -10 7
-22z m3902 -34 l57 -57 -40 -34 c-22 -19 -38 -37 -35 -39 3 -3 19 6 36 21 40
33 53 33 84 -5 28 -33 34 -69 12 -69 -24 0 -176 50 -176 58 0 14 51 62 65 62
8 0 15 2 15 5 0 10 -76 74 -88 75 -8 0 0 -12 17 -26 30 -25 40 -44 22 -44 -17
0 -97 79 -80 80 9 0 22 7 29 15 7 8 15 15 18 15 4 0 32 -26 64 -57z m296 3
c37 -51 38 -56 15 -56 -20 0 -53 28 -53 45 0 7 -8 16 -17 20 -17 6 -17 7 1 21
11 8 20 14 21 14 1 0 16 -20 33 -44z m-4582 24 c9 0 14 -11 14 -30 0 -28 -2
-29 -32 -24 -54 9 -58 12 -58 40 0 24 3 26 31 20 17 -3 38 -6 45 -6z m295 -17
c-8 -30 -42 -41 -128 -42 -41 -1 -43 0 -43 29 l0 29 78 4 c42 1 82 4 89 5 8 1
9 -7 4 -25z m-183 -15 c3 -27 2 -28 -42 -28 -45 0 -46 1 -46 31 0 29 1 30 43
27 38 -3 42 -6 45 -30z m4395 10 c14 -3 47 -48 47 -63 0 -1 -12 -5 -27 -8 -16
-3 -45 -17 -65 -31 -29 -19 -38 -22 -38 -11 0 8 -3 14 -8 13 -11 -4 -62 38
-62 50 0 6 14 22 32 37 31 26 52 29 121 13z m-3854 -88 c22 -11 120 -52 218
-90 317 -126 288 -110 291 -158 3 -40 2 -42 -20 -38 -13 3 -85 10 -160 16 -75
6 -172 15 -215 20 -139 18 -275 72 -247 100 7 7 28 3 71 -15 118 -47 343 -96
433 -94 25 1 34 3 20 6 -325 50 -499 104 -521 160 -5 14 -8 27 -6 29 2 2 20
-8 40 -22 52 -35 113 -60 220 -89 106 -28 307 -68 313 -62 3 3 -57 19 -133 37
-277 64 -403 114 -433 170 -20 38 5 49 37 18 16 -15 59 -41 97 -57 62 -28 115
-46 381 -127 108 -33 120 -24 15 10 -47 16 -102 37 -123 48 -21 10 -42 16 -47
13 -11 -7 -176 48 -235 77 -57 29 -115 87 -115 116 0 24 1 23 40 -11 21 -20
57 -45 79 -57z m2135 28 c41 -38 39 -95 -6 -143 -26 -27 -49 -39 -103 -53
l-70 -17 -9 -48 c-6 -31 -6 -54 1 -69 8 -16 78 -56 229 -132 l218 -109 83 12
c106 15 111 17 127 56 18 43 83 80 165 95 65 12 103 9 206 -16 54 -14 68 -13
145 3 l85 18 3 44 c6 77 -1 87 -87 131 -86 43 -114 73 -132 141 -14 54 1 104
29 96 135 -39 242 -73 242 -78 0 -3 -39 -12 -87 -19 -49 -7 -82 -15 -75 -17 7
-3 54 3 104 12 l91 17 118 -33 c66 -18 119 -36 119 -41 0 -5 4 -7 9 -4 8 5
191 -47 496 -142 88 -28 192 -60 232 -71 78 -23 102 -41 55 -41 -17 0 -65 -6
-108 -14 -44 -8 -155 -26 -249 -41 -153 -24 -509 -81 -750 -120 -49 -8 -133
-21 -185 -29 -52 -9 -207 -33 -345 -55 -398 -64 -612 -98 -890 -141 -143 -22
-287 -44 -320 -50 -33 -5 -121 -19 -195 -30 l-135 -21 -130 62 -130 62 43 9
c24 5 41 12 39 15 -3 3 -28 0 -55 -6 -49 -10 -52 -9 -193 55 -79 36 -148 69
-152 73 -4 4 72 21 170 37 98 16 168 30 155 32 -12 2 -60 -4 -105 -12 -45 -9
-121 -22 -169 -30 l-87 -15 -158 74 c-87 41 -162 78 -168 82 -5 4 -28 14 -50
22 -22 8 -71 29 -110 47 l-70 32 50 4 c48 4 47 4 -14 6 -57 2 -84 11 -224 74
-179 82 -178 75 -19 93 59 7 62 6 62 -15 0 -38 20 -61 73 -85 83 -36 187 -54
417 -70 138 -9 244 -22 295 -35 74 -19 81 -19 121 -4 42 16 42 16 179 -31 126
-44 138 -46 153 -31 15 15 15 18 -3 35 -11 10 -71 45 -132 77 -109 55 -113 59
-113 90 0 28 -7 36 -49 62 -49 31 -91 69 -91 84 0 4 16 8 35 8 24 0 35 -5 35
-14 0 -8 12 -23 28 -34 55 -38 463 -242 506 -253 37 -9 45 -16 50 -39 7 -40
39 -58 130 -73 61 -11 79 -11 87 -1 6 7 17 10 25 7 9 -3 18 5 24 22 15 40 -4
88 -48 125 -30 25 -46 30 -88 30 -35 0 -54 5 -57 14 -3 8 -54 44 -114 80 -59
37 -143 89 -186 116 l-77 48 52 7 c37 5 53 4 56 -4 8 -23 41 -46 89 -63 67
-23 302 -96 336 -104 23 -5 27 -11 27 -39 0 -66 42 -83 166 -67 101 14 120 22
127 62 15 72 -33 107 -132 96 -56 -6 -67 -4 -228 60 -92 37 -172 70 -176 74
-5 4 43 13 105 19 197 21 390 41 468 50 141 16 186 13 214 -11z m1854 -20 c20
-20 14 -25 -35 -37 -68 -17 -102 -38 -109 -66 -7 -27 -8 -28 -41 -19 -15 4
-23 14 -23 29 0 36 43 65 132 89 67 18 62 18 76 4z m-2673 -53 c33 -12 125
-49 204 -81 138 -56 143 -59 116 -70 -24 -10 -43 -7 -129 22 -56 18 -147 47
-204 64 -56 18 -112 40 -123 49 -20 16 -20 18 -5 34 20 19 51 15 141 -18z
m-266 -46 c64 -40 118 -75 121 -79 3 -3 46 -30 96 -58 95 -54 130 -82 102 -82
-8 0 -44 19 -80 43 -36 23 -136 80 -222 127 -108 59 -156 90 -156 103 0 9 5
17 11 17 7 0 64 -32 128 -71z m2911 37 c-83 -28 -93 -34 -87 -57 3 -11 0 -19
-8 -19 -19 0 -6 49 17 61 29 16 100 37 123 37 11 0 -9 -9 -45 -22z m-4151 5
c14 -4 27 -13 29 -20 4 -11 -4 -12 -34 -6 -21 3 -52 13 -69 20 l-30 13 40 0
c22 0 51 -3 64 -7z m4423 -28 c35 -33 35 -43 2 -43 -17 0 -23 4 -18 12 5 8 2
9 -10 5 -9 -4 -37 -1 -62 5 l-45 13 48 16 c26 10 50 18 52 18 3 1 18 -11 33
-26z m-4387 -34 c13 -13 1 -12 -82 8 -40 9 -73 22 -73 29 0 13 137 -19 155
-37z m1245 -70 c203 -113 229 -129 208 -129 -20 0 -160 72 -317 164 -62 37
-118 66 -124 67 -7 0 -3 4 8 9 13 5 28 3 45 -8 14 -9 95 -55 180 -103z m-207
65 c102 -58 107 -62 100 -80 -4 -11 -26 -3 -102 37 -96 52 -114 66 -105 81 9
14 23 9 107 -38z m-219 7 c3 -5 -27 -20 -67 -35 -63 -23 -76 -25 -104 -14 -41
15 -41 23 -2 37 26 9 29 9 20 -3 -15 -17 2 -31 26 -22 12 5 13 9 3 21 -10 12
-7 16 15 25 22 8 30 7 40 -6 14 -20 39 -9 31 12 -4 11 -2 12 14 4 10 -5 21
-14 24 -19z m59 -63 l49 -31 -38 -20 c-50 -25 -54 -32 -54 -89 0 -27 -2 -48
-4 -48 -2 0 -23 7 -46 15 -23 8 -55 15 -71 15 -29 0 -29 1 -29 58 0 31 4 62 8
69 8 12 109 63 126 63 5 0 32 -14 59 -32z m-203 -14 c0 -2 -9 0 -20 6 -11 6
-20 13 -20 16 0 2 9 0 20 -6 11 -6 20 -13 20 -16z m1318 -9 c11 -11 -8 -17
-79 -26 -39 -5 -77 -13 -84 -19 -8 -6 -18 -5 -31 4 -22 17 -22 17 66 41 50 13
115 14 128 0z m-1963 -4 c10 -17 117 -52 200 -67 43 -7 158 -18 254 -24 168
-10 191 -13 179 -25 -10 -10 -420 24 -486 40 -81 19 -159 53 -166 71 -6 16 9
19 19 5z m1257 -58 c107 -59 129 -68 192 -74 39 -3 63 -7 54 -8 -10 0 -18 -5
-18 -10 0 -5 8 -12 18 -15 9 -2 -10 -2 -43 1 -48 4 -87 19 -197 75 -78 40
-138 76 -138 84 0 8 2 14 5 14 3 0 60 -30 127 -67z m1769 33 c116 -60 119 -63
119 -112 0 -42 -1 -45 -22 -38 -56 18 -98 24 -170 24 -87 0 -155 -19 -205 -57
l-33 -25 0 52 c0 157 156 236 311 156z m-3122 -57 c97 -44 217 -99 266 -122
50 -22 96 -45 103 -50 11 -8 19 -147 8 -147 -2 0 -30 12 -62 26 -220 97 -478
224 -491 241 -13 17 -18 133 -6 133 4 0 86 -36 182 -81z m2066 5 c-9 -7 -40
-15 -68 -19 -29 -3 -64 -8 -79 -11 -25 -5 -28 -3 -28 24 0 22 6 31 23 36 38
10 51 8 38 -7 -6 -8 -8 -17 -4 -20 9 -10 61 -9 67 1 3 5 -9 7 -27 5 -26 -2
-27 -1 -9 5 13 4 23 12 22 17 -1 6 13 13 30 16 17 4 34 10 38 14 4 4 9 -6 10
-21 2 -18 -2 -33 -13 -40z m385 -61 c63 -30 125 -59 138 -64 19 -7 22 -16 22
-58 l0 -50 -210 105 -210 105 0 45 0 44 73 -36 c39 -20 124 -61 187 -91z
m-1430 96 c0 -5 -8 -9 -18 -9 -31 0 -55 -35 -49 -69 5 -23 2 -30 -13 -34 -18
-5 -20 0 -20 43 0 46 1 48 43 68 41 20 57 20 57 1z m860 -40 c0 -32 -34 -20
-38 14 -3 26 -2 28 17 17 12 -6 21 -20 21 -31z m-878 -1 c-7 -7 -12 -20 -12
-30 0 -10 -4 -18 -10 -18 -5 0 -10 8 -10 18 0 20 18 42 34 42 6 0 5 -5 -2 -12z
m2396 -30 l-3 -41 -64 -13 c-36 -8 -67 -12 -69 -9 -3 2 -6 22 -8 43 l-4 39 58
10 c97 17 94 18 90 -29z m-2268 -28 c55 -28 100 -55 100 -60 0 -14 2 -14 -115
26 -94 33 -105 39 -105 60 0 13 5 24 10 24 6 0 55 -23 110 -50z m609 -4 c24
-13 61 -55 61 -70 0 -14 -50 19 -56 36 -8 27 -51 41 -87 28 -32 -11 -43 -8
-32 9 9 16 81 13 114 -3z m-9 -37 c10 -19 10 -20 -9 -10 -11 6 -34 11 -51 11
-18 0 -29 4 -25 10 3 6 22 10 40 10 24 0 37 -6 45 -21z m-106 -14 c11 -8 34
-15 52 -15 17 0 37 -6 43 -14 10 -12 5 -13 -31 -9 -48 6 -108 31 -108 44 0 13
23 10 44 -6z m1164 -42 l-3 -47 -77 -17 -78 -17 0 53 0 52 68 10 c37 5 73 11
80 11 10 2 12 -11 10 -45z m1832 -18 c0 -36 -2 -65 -4 -65 -2 0 -192 -32 -423
-71 -230 -39 -553 -93 -718 -120 -165 -27 -365 -60 -445 -74 -278 -48 -1483
-249 -1622 -271 l-38 -6 0 79 0 79 93 13 c50 7 130 19 177 27 47 8 175 28 285
44 110 17 225 35 255 40 61 11 260 42 610 96 303 47 301 47 530 84 107 17 236
38 285 46 50 7 160 25 245 39 297 48 535 87 595 96 33 5 80 13 105 18 25 5 51
9 58 10 8 1 12 -18 12 -64z m-3350 34 c0 -6 -4 -7 -10 -4 -5 3 -10 11 -10 16
0 6 5 7 10 4 6 -3 10 -11 10 -16z m334 -4 c12 -8 50 -18 84 -21 43 -5 62 -11
62 -21 0 -9 -8 -12 -22 -9 -13 3 -41 8 -63 11 -61 9 -74 15 -85 36 -13 23 -7
24 24 4z m177 -4 c13 -11 21 -22 18 -26 -4 -3 -19 5 -34 19 -32 30 -19 35 16
7z m-1215 -111 c60 -28 140 -66 178 -83 38 -18 124 -57 190 -88 l121 -55 6
-45 6 -44 3 45 3 45 7 -40 c6 -31 7 -34 9 -12 0 15 7 27 14 27 6 0 53 -20 103
-44 50 -24 101 -47 112 -51 20 -6 22 -13 22 -86 0 -43 -2 -79 -5 -79 -3 0 -41
16 -83 36 -221 103 -195 85 -209 151 l-12 58 5 -52 c2 -29 2 -53 -1 -53 -6 0
-79 33 -207 94 l-78 37 0 69 c0 39 -5 72 -11 76 -7 4 -10 -15 -7 -65 3 -63 1
-70 -14 -65 -10 3 -87 39 -173 80 l-155 75 0 74 0 74 34 -14 c18 -8 83 -37
142 -65z"/>
<path d="M5208 5028 c14 -7 28 -28 36 -57 8 -25 15 -39 15 -30 2 45 -35 101
-66 98 -4 0 2 -5 15 -11z"/>
<path d="M5340 5003 c14 -3 36 -14 49 -26 l24 -22 -11 21 c-13 24 -33 35 -65
33 -19 -2 -19 -2 3 -6z"/>
<path d="M5098 4993 c22 -4 52 -48 52 -78 0 -9 -11 -27 -25 -40 -13 -14 -20
-25 -15 -25 6 0 20 10 31 21 38 38 5 131 -45 128 -20 -2 -19 -2 2 -6z"/>
<path d="M4986 4971 c-10 -11 -16 -29 -13 -43 l4 -23 2 24 c0 14 8 33 18 43 9
10 14 18 11 18 -3 0 -13 -9 -22 -19z"/>
<path d="M5190 4968 c0 -17 24 -57 38 -63 14 -5 14 -4 0 12 -8 10 -20 27 -26
38 -6 11 -12 17 -12 13z"/>
<path d="M5345 4958 c28 -16 35 -28 34 -63 0 -28 -1 -28 -11 -9 -10 21 -56 49
-65 40 -2 -2 5 -7 17 -11 26 -8 54 -50 44 -66 -5 -8 -3 -9 5 -5 7 5 16 19 22
33 14 38 -22 94 -59 93 -4 0 2 -6 13 -12z"/>
<path d="M5077 4930 c9 -11 19 -17 21 -15 6 6 -18 35 -29 35 -5 0 -1 -9 8 -20z"/>
<path d="M4891 4926 c-20 -24 -24 -79 -7 -101 15 -19 16 -18 6 10 -13 34 -7
67 16 89 8 9 11 16 6 16 -5 0 -15 -6 -21 -14z"/>
<path d="M5026 4898 c5 -30 2 -41 -19 -62 -27 -26 -25 -36 5 -36 27 0 68 45
67 72 -1 19 -2 18 -10 -8 -5 -17 -19 -36 -34 -42 l-24 -11 16 33 c12 26 13 40
5 62 -11 28 -11 28 -6 -8z"/>
<path d="M4921 4892 c-13 -25 -14 -59 -2 -66 5 -4 7 3 4 13 -3 10 0 29 7 41 6
12 9 24 7 27 -3 2 -10 -4 -16 -15z"/>
<path d="M5101 4884 c0 -11 3 -14 6 -6 3 7 2 16 -1 19 -3 4 -6 -2 -5 -13z"/>
<path d="M5200 4829 c-7 -11 -10 -23 -7 -25 2 -2 9 7 15 21 14 30 7 33 -8 4z"/>
<path d="M5114 4795 c-3 -8 -4 -20 -2 -27 3 -7 7 -1 10 15 6 29 1 36 -8 12z"/>
<path d="M5426 4770 c8 -43 14 -51 14 -19 0 13 -5 31 -10 39 -7 11 -8 5 -4
-20z"/>
<path d="M4869 4756 c-8 -17 -8 -29 0 -42 11 -17 11 -17 6 3 -3 12 -1 31 5 43
6 11 8 20 5 20 -3 0 -10 -11 -16 -24z"/>
<path d="M5026 4754 c-10 -26 -7 -41 15 -65 l20 -24 -17 27 c-10 18 -14 37
-10 53 7 28 2 34 -8 9z"/>
<path d="M5452 4750 c0 -14 2 -19 5 -12 2 6 2 18 0 25 -3 6 -5 1 -5 -13z"/>
<path d="M4803 4685 c0 -22 2 -30 4 -17 2 12 2 30 0 40 -3 9 -5 -1 -4 -23z"/>
<path d="M4951 4704 c-1 -29 26 -53 35 -30 4 9 4 20 0 23 -3 4 -6 -2 -6 -12 0
-23 -16 -9 -23 20 -4 19 -5 19 -6 -1z"/>
<path d="M5350 4600 c8 -5 20 -10 25 -10 6 0 3 5 -5 10 -8 5 -19 10 -25 10 -5
0 -3 -5 5 -10z"/>
<path d="M5158 4573 c-31 -8 -20 -25 11 -18 19 4 40 1 58 -9 l28 -15 -35 -2
-35 -2 39 -6 c22 -3 41 -12 44 -20 3 -9 -2 -11 -14 -8 -51 15 -97 19 -90 8 4
-6 16 -11 27 -11 11 0 18 -4 14 -9 -9 -16 14 -23 50 -17 26 5 33 11 28 23 -5
13 -1 15 25 10 17 -4 34 -2 37 3 4 6 10 8 15 5 10 -6 35 34 27 42 -3 2 -8 -5
-12 -16 -5 -18 -9 -19 -33 -8 -15 6 -44 22 -64 34 -35 21 -78 27 -120 16z"/>
<path d="M5433 4573 c9 -2 23 -2 30 0 6 3 -1 5 -18 5 -16 0 -22 -2 -12 -5z"/>
<path d="M5066 4405 c24 -39 24 -40 24 -28 0 6 -9 21 -21 34 l-20 24 17 -30z"/>
<path d="M5342 4405 c0 -16 2 -22 5 -12 2 9 2 23 0 30 -3 6 -5 -1 -5 -18z"/>
<path d="M5204 4314 c-18 -14 -18 -15 4 -4 12 6 22 13 22 15 0 8 -5 6 -26 -11z"/>
<path d="M4865 4619 c-4 -11 -4 -23 -1 -26 3 -4 6 1 6 10 0 21 23 22 40 2 11
-13 10 -18 -8 -31 -27 -19 -28 -55 -2 -79 11 -10 20 -16 21 -14 8 65 7 123 -1
139 -14 26 -47 26 -55 -1z m51 -75 c-3 -9 -6 -22 -6 -30 0 -9 -4 -12 -10 -9
-17 10 -12 55 6 55 11 0 14 -5 10 -16z"/>
<path d="M4977 4493 c-4 -3 -7 -11 -7 -17 0 -6 5 -5 12 2 6 6 9 14 7 17 -3 3
-9 2 -12 -2z"/>
<path d="M4954 4378 l-19 -23 23 19 c21 18 27 26 19 26 -2 0 -12 -10 -23 -22z"/>
<path d="M4949 4343 c-13 -16 -12 -17 4 -4 9 7 17 15 17 17 0 8 -8 3 -21 -13z"/>
<path d="M4991 4290 c0 -8 2 -26 6 -38 4 -18 8 -20 14 -10 12 17 11 31 0 23
-5 -3 -12 5 -14 17 -2 13 -5 16 -6 8z"/>
<path d="M5025 4220 c-9 -16 -13 -30 -11 -30 3 0 12 14 21 30 9 17 13 30 11
30 -3 0 -12 -13 -21 -30z"/>
<path d="M5236 4235 c-24 -18 -50 -20 -41 -2 4 6 -7 -4 -24 -23 -33 -38 -37
-56 -17 -82 16 -22 54 -23 80 -3 29 22 51 18 64 -10 7 -15 17 -22 26 -19 19 7
38 56 34 86 -3 20 -8 23 -40 20 -36 -3 -52 10 -25 22 6 3 -4 3 -23 0 -31 -6
-33 -5 -21 10 17 20 12 20 -13 1z m64 -46 c54 -11 56 -15 38 -54 -14 -32 -28
-32 -28 0 0 19 -5 25 -22 25 -13 0 -34 3 -48 7 -22 6 -24 5 -11 -10 11 -14 10
-18 -13 -28 -20 -9 -29 -9 -41 1 -18 15 -20 56 -2 63 21 9 74 7 127 -4z"/>
<path d="M5310 4231 c0 -5 5 -13 10 -16 6 -3 10 -2 10 4 0 5 -4 13 -10 16 -5
3 -10 2 -10 -4z"/>
<path d="M5074 4157 c-16 -18 -16 -19 -1 -8 19 15 24 2 5 -17 -6 -6 -9 -14 -7
-17 3 -2 13 9 22 25 21 35 7 48 -19 17z"/>
<path d="M5021 4144 c0 -11 3 -14 6 -6 3 7 2 16 -1 19 -3 4 -6 -2 -5 -13z"/>
<path d="M5101 4103 c-1 -6 -4 -20 -7 -30 -5 -17 -5 -17 6 0 6 10 9 23 6 30
-3 9 -5 9 -5 0z"/>
<path d="M5132 4055 c0 -16 2 -22 5 -12 2 9 2 23 0 30 -3 6 -5 -1 -5 -18z"/>
<path d="M5181 4044 c0 -11 3 -14 6 -6 3 7 2 16 -1 19 -3 4 -6 -2 -5 -13z"/>
<path d="M5317 4053 c-4 -3 -7 -11 -7 -17 0 -6 5 -5 12 2 6 6 9 14 7 17 -3 3
-9 2 -12 -2z"/>
<path d="M5240 4009 c-7 -11 -10 -23 -7 -25 2 -2 9 7 15 21 14 30 7 33 -8 4z"/>
<path d="M4831 4104 c0 -11 3 -14 6 -6 3 7 2 16 -1 19 -3 4 -6 -2 -5 -13z"/>
<path d="M4961 4054 c-1 -15 40 -136 45 -131 2 2 -7 35 -20 73 -14 38 -25 64
-25 58z"/>
<path d="M5027 3889 c12 -12 24 -21 27 -18 2 2 -8 13 -22 23 l-27 19 22 -24z"/>
<path d="M5173 3890 c-34 -14 -28 -21 7 -9 17 6 30 13 30 15 0 6 -12 4 -37 -6z"/>
<path d="M4756 3534 c-10 -25 -7 -33 13 -43 13 -7 23 -6 36 3 14 10 15 16 6
34 -14 26 -46 29 -55 6z m44 -20 c0 -16 -16 -19 -25 -4 -8 13 4 32 16 25 5 -4
9 -13 9 -21z"/>
<path d="M4535 4030 c10 -11 20 -20 23 -20 3 0 -3 9 -13 20 -10 11 -20 20 -23
20 -3 0 3 -9 13 -20z"/>
<path d="M4578 3962 c25 -55 39 -69 18 -17 -10 22 -22 45 -27 50 -6 6 -2 -9 9
-33z"/>
<path d="M4393 3931 c20 -29 37 -58 37 -64 0 -6 3 -8 6 -4 8 8 -39 89 -62 108
-10 8 -1 -10 19 -40z"/>
<path d="M4440 3845 c0 -5 5 -17 10 -25 5 -8 10 -10 10 -5 0 6 -5 17 -10 25
-5 8 -10 11 -10 5z"/>
<path d="M4386 3660 c4 -19 10 -80 14 -135 l7 -100 0 85 c1 47 -5 108 -13 135
-7 28 -11 34 -8 15z"/>
<path d="M4241 3644 c-1 -16 40 -147 44 -142 2 2 -7 37 -20 78 -13 41 -24 70
-24 64z"/>
<path d="M4546 3350 c-15 -33 -50 -79 -77 -105 -57 -53 -51 -61 9 -10 36 32
112 158 101 169 -2 3 -17 -22 -33 -54z"/>
<path d="M4398 3090 c11 -19 31 -41 44 -49 21 -13 3 9 -56 74 -5 6 0 -6 12
-25z"/>
<path d="M4315 3075 c7 -33 56 -138 61 -132 2 2 -12 39 -32 83 -20 43 -33 66
-29 49z"/>
<path d="M5553 3423 c-13 -31 -21 -58 -19 -60 5 -6 48 97 44 108 -2 5 -13 -17
-25 -48z"/>
<path d="M4976 3715 c36 -52 67 -95 70 -95 7 0 -114 177 -125 185 -6 3 19 -37
55 -90z"/>
<path d="M5221 3799 c-1 -20 -55 -126 -78 -153 l-18 -21 23 19 c28 24 86 140
79 158 -4 9 -6 9 -6 -3z"/>
<path d="M3714 3345 c0 -132 2 -185 3 -117 2 68 2 176 0 240 -1 64 -3 9 -3
-123z"/>
<path d="M3382 3386 c-51 -58 -57 -95 -32 -179 33 -107 14 -202 -35 -183 -14
5 -16 17 -13 66 1 33 0 60 -5 60 -4 0 -16 -15 -27 -32 -22 -37 -25 -88 -9
-154 10 -38 9 -48 -7 -71 l-19 -28 -6 63 c-3 35 -12 68 -19 75 -10 10 -11 8
-5 -8 4 -11 10 -45 14 -75 4 -39 10 -55 21 -55 24 0 42 46 34 90 -12 65 -10
143 3 156 10 10 11 5 7 -22 -12 -70 56 -105 84 -43 17 35 15 108 -3 151 -21
51 -19 122 5 158 l20 30 0 -48 c0 -53 12 -82 59 -141 17 -21 36 -57 42 -79 9
-35 8 -49 -10 -92 -25 -59 -27 -108 -6 -125 22 -18 50 10 74 73 l18 51 8 -32
c4 -18 4 -56 0 -85 l-7 -52 32 35 c17 19 40 53 50 75 19 40 20 40 20 10 0 -16
-9 -50 -20 -74 -24 -52 -25 -70 -4 -99 12 -17 19 -20 29 -12 15 13 25 -7 25
-49 0 -28 -41 -77 -53 -65 -3 4 -17 -1 -31 -9 -24 -16 -25 -16 -28 6 -4 31
-58 31 -74 -1 l-11 -22 -35 27 c-19 16 -42 36 -52 45 -16 16 -20 17 -47 2 -17
-8 -32 -21 -35 -29 -10 -24 -36 -27 -51 -5 -18 25 -31 25 -58 0 -29 -27 -45
-18 -73 38 -29 62 -28 95 7 162 31 59 44 140 24 147 -8 3 -10 -8 -6 -36 4 -32
0 -50 -24 -93 -38 -67 -45 -103 -29 -149 l13 -37 -27 8 c-33 10 -56 -2 -64
-34 -3 -13 -15 -26 -26 -29 -22 -6 -43 -47 -30 -60 4 -4 30 -9 59 -9 36 -1 51
-5 51 -15 0 -10 -7 -12 -22 -7 -13 3 -19 3 -15 -2 5 -5 23 -10 40 -11 90 -5
152 -16 173 -30 14 -9 35 -13 50 -10 14 2 38 -2 53 -9 34 -18 61 -18 89 1 16
12 27 13 41 5 31 -16 69 -12 84 10 12 17 17 18 46 7 29 -10 34 -10 46 6 9 13
20 16 38 12 14 -4 36 -1 49 6 12 7 35 12 49 10 33 -3 53 21 45 54 -7 29 17 46
37 26 8 -8 8 -11 -1 -11 -7 0 -12 -4 -12 -10 0 -5 7 -10 16 -10 10 0 14 7 12
23 -2 18 -10 22 -38 23 -46 1 -68 11 -76 36 -5 18 -12 20 -50 14 -44 -6 -51
-2 -36 21 6 9 25 8 82 -3 79 -15 125 -18 75 -4 -16 4 -59 13 -93 20 -51 10
-66 18 -75 37 -7 16 -16 22 -28 18 -12 -4 -22 1 -29 15 -9 18 -7 32 10 73 24
55 23 118 -2 143 -11 12 -13 8 -10 -25 3 -32 -1 -44 -27 -72 l-30 -34 -1 43
c0 24 -7 57 -16 75 l-17 32 -14 -55 c-15 -60 -51 -109 -65 -88 -13 21 -9 53
12 99 34 77 24 122 -55 225 -28 36 -35 54 -35 90 0 25 5 54 11 66 18 33 3 31
-29 -6z m-228 -687 c6 -5 -3 -11 -22 -15 -18 -4 -35 -11 -38 -15 -3 -5 -14 -9
-24 -9 -16 0 -17 3 -7 31 11 28 15 30 47 24 19 -4 39 -11 44 -16z m281 -12
c33 -30 35 -35 20 -47 -13 -11 -20 -9 -43 13 -40 38 -52 33 -14 -6 21 -22 28
-37 23 -46 -7 -10 -14 -6 -32 18 -12 17 -29 31 -36 31 -21 0 -15 36 10 53 30
22 31 21 72 -16z m307 -20 c21 5 22 4 7 -11 -13 -14 -19 -15 -47 -3 -30 12
-31 14 -15 30 17 16 18 16 25 -2 5 -14 13 -18 30 -14z m48 23 c0 -5 -14 -10
-31 -10 -17 0 -28 4 -24 10 3 6 17 10 31 10 13 0 24 -4 24 -10z m-514 -15 c2
-5 -12 -20 -31 -32 -38 -24 -46 -13 -19 25 16 23 45 27 50 7z m292 3 c16 -16
15 -58 -1 -58 -8 0 -22 9 -32 20 -15 16 -15 22 -5 35 15 18 22 19 38 3z m-380
-25 c2 -8 -6 -13 -22 -13 -17 0 -26 5 -26 16 0 19 41 16 48 -3z m145 4 c6 -17
-15 -45 -30 -40 -27 9 -12 48 18 52 4 1 9 -5 12 -12z m472 -8 c-4 -5 1 -9 9
-9 8 0 20 -9 26 -19 14 -27 13 -31 -10 -31 -11 0 -20 5 -20 10 0 6 5 10 12 10
6 0 8 3 5 7 -4 3 -18 -4 -32 -17 -22 -20 -25 -21 -31 -6 -3 9 -12 16 -20 16
-22 0 -16 13 18 37 30 21 55 22 43 2z m-678 -5 c8 -21 -13 -42 -28 -27 -13 13
-5 43 11 43 6 0 13 -7 17 -16z m573 -10 c12 -12 10 -14 -19 -14 -43 0 -79 19
-60 31 17 11 59 2 79 -17z m-632 -8 c4 -16 0 -18 -29 -12 -39 7 -43 11 -34 26
11 18 59 8 63 -14z m218 -5 c23 -18 23 -20 7 -29 -22 -13 -64 13 -56 34 7 19
20 18 49 -5z m94 -11 c8 -15 7 -17 -10 -13 -24 6 -34 19 -25 33 8 13 22 5 35
-20z m146 15 c19 -14 19 -14 -3 -15 -12 0 -25 -5 -29 -11 -4 -8 1 -9 17 -4
l24 8 -25 -21 c-16 -13 -30 -17 -40 -12 -8 4 -21 9 -28 11 -10 3 -8 11 8 32
24 30 47 34 76 12z m140 -46 c2 -39 -21 -38 -46 4 -27 43 -25 47 13 35 26 -8
32 -15 33 -39z m-466 31 c13 -8 12 -11 -5 -24 -36 -27 -74 -15 -61 19 6 17 43
20 66 5z m400 -20 c0 -17 -3 -19 -19 -8 -21 13 -19 28 5 28 8 0 14 -9 14 -20z
m-268 -25 c-3 -16 -11 -25 -23 -25 -29 0 -32 19 -7 39 28 23 37 19 30 -14z
m416 18 c2 -9 -9 -13 -38 -13 -37 0 -41 2 -30 16 15 17 61 15 68 -3z m-500 -2
c10 -6 6 -10 -15 -14 -32 -6 -38 -3 -28 12 7 13 25 14 43 2z m183 -17 c17 -8
29 -21 26 -27 -5 -17 -42 -20 -69 -6 -13 8 -26 12 -30 11 -12 -3 -9 13 4 26
16 16 33 15 69 -4z m138 7 c8 -5 11 -16 8 -25 -7 -17 -43 -21 -66 -7 -12 8
-12 12 -2 25 15 18 39 20 60 7z"/>
<path d="M3213 3260 c-27 -55 -29 -79 -8 -106 14 -18 14 -18 15 6 0 14 7 34
15 44 16 21 20 73 7 92 -4 6 -16 -8 -29 -36z m11 -56 c-25 -38 -30 -11 -8 39
18 40 19 41 22 15 2 -15 -5 -39 -14 -54z"/>
<path d="M3552 3266 c-17 -37 -15 -67 7 -116 18 -40 20 -41 30 -22 14 27 14
58 -1 85 -6 12 -14 35 -17 51 l-6 29 -13 -27z m26 -59 c7 -18 12 -42 12 -53
-1 -17 -2 -17 -20 5 -20 23 -28 81 -12 81 4 0 13 -15 20 -33z"/>
<path d="M3370 2915 c-9 -11 -10 -16 -2 -11 9 5 12 -3 12 -28 0 -25 8 -44 28
-64 15 -15 18 -17 7 -4 -11 13 -22 44 -25 74 -5 47 -6 50 -20 33z"/>
<path d="M3341 2854 c0 -11 3 -14 6 -6 3 7 2 16 -1 19 -3 4 -6 -2 -5 -13z"/>
<path d="M3280 2821 c-12 -24 -13 -71 -1 -90 5 -8 7 5 3 34 -3 35 -2 46 7 41
7 -5 11 0 11 13 0 26 -6 27 -20 2z"/>
<path d="M3510 2810 c0 -39 -7 -54 -30 -63 -10 -5 -8 -6 5 -4 13 1 24 15 32
37 12 38 11 40 26 -35 3 -13 5 -9 6 10 0 17 -8 44 -19 60 l-20 30 0 -35z"/>
<path d="M3594 2797 c3 -10 6 -25 6 -33 0 -8 6 -13 13 -11 8 1 11 -9 10 -28
-1 -27 0 -28 9 -9 8 16 4 29 -18 60 -15 21 -24 31 -20 21z"/>
<path d="M3300 2786 c0 -2 8 -10 18 -17 15 -13 16 -12 3 4 -13 16 -21 21 -21
13z"/>
<path d="M2935 2620 c-3 -5 1 -10 10 -10 9 0 13 5 10 10 -3 6 -8 10 -10 10 -2
0 -7 -4 -10 -10z"/>
<path d="M3973 2615 c0 -9 4 -14 9 -13 9 3 9 16 -2 23 -3 3 -7 -1 -7 -10z"/>
<path d="M3900 2594 c0 -17 22 -14 28 4 2 7 -3 12 -12 12 -9 0 -16 -7 -16 -16z"/>
<path d="M4881 3566 c9 -9 161 -36 199 -34 33 1 33 1 5 5 -30 3 -125 19 -180
30 -16 3 -27 3 -24 -1z"/>
<path d="M5245 3555 l-50 -14 45 6 c25 3 49 9 55 14 5 5 7 9 5 8 -3 0 -27 -7
-55 -14z"/>
<path d="M4692 3480 c0 -19 2 -27 5 -17 2 9 2 25 0 35 -3 9 -5 1 -5 -18z"/>
<path d="M4677 3376 c-4 -38 -6 -71 -3 -73 6 -7 19 101 14 123 -2 11 -7 -12
-11 -50z"/>
<path d="M4615 3114 c-10 -26 -42 -83 -71 -126 -29 -44 -46 -74 -38 -67 34 28
116 163 128 212 10 42 1 32 -19 -19z"/>
<path d="M4625 2949 c-63 -39 -83 -59 -30 -30 40 22 94 61 85 61 -3 0 -27 -14
-55 -31z"/>
<path d="M4026 3456 c67 -21 103 -39 197 -95 69 -42 38 -15 -40 34 -42 27
-105 57 -142 67 -91 25 -101 21 -15 -6z"/>
<path d="M4061 3304 c0 -11 3 -14 6 -6 3 7 2 16 -1 19 -3 4 -6 -2 -5 -13z"/>
<path d="M3872 3024 c-3 -49 39 -74 151 -89 71 -9 57 1 -20 15 -92 16 -121 32
-126 72 l-4 33 -1 -31z"/>
<path d="M3822 2940 c0 -14 2 -19 5 -12 2 6 2 18 0 25 -3 6 -5 1 -5 -13z"/>
<path d="M4026 2761 c12 -12 133 -55 138 -50 3 2 -30 16 -71 31 -42 15 -72 24
-67 19z"/>
<path d="M4188 2703 c7 -3 16 -2 19 1 4 3 -2 6 -13 5 -11 0 -14 -3 -6 -6z"/>
<path d="M4768 2683 c6 -2 18 -2 25 0 6 3 1 5 -13 5 -14 0 -19 -2 -12 -5z"/>
<path d="M4865 2660 c3 -5 16 -10 28 -9 21 0 21 1 2 9 -28 12 -37 12 -30 0z"/>
<path d="M4730 2610 c8 -5 22 -9 30 -9 10 0 8 3 -5 9 -27 12 -43 12 -25 0z"/>
<path d="M4825 2570 c3 -5 16 -10 28 -9 21 0 21 1 2 9 -28 12 -37 12 -30 0z"/>
<path d="M4684 2561 c7 -11 46 -35 46 -28 0 3 -12 12 -26 22 -15 9 -23 12 -20
6z"/>
<path d="M4778 2498 c6 -6 18 -8 28 -6 14 3 12 5 -9 10 -19 3 -25 2 -19 -4z"/>
<path d="M5736 3055 c-3 -9 -5 -38 -5 -63 2 -46 2 -46 9 13 7 64 6 76 -4 50z"/>
<path d="M5610 2996 c14 -9 32 -15 40 -15 13 0 13 1 0 8 -8 5 -26 12 -40 15
l-25 7 25 -15z"/>
<path d="M5740 2936 c0 -11 30 -66 36 -66 2 0 -3 15 -12 33 -19 36 -24 44 -24
33z"/>
<path d="M6272 2420 c7 -11 17 -20 22 -20 5 0 1 9 -9 20 -10 11 -20 20 -22 20
-2 0 2 -9 9 -20z"/>
<path d="M6200 2406 c0 -2 8 -10 18 -17 15 -13 16 -12 3 4 -13 16 -21 21 -21
13z"/>
<path d="M6326 2355 c8 -37 10 -39 17 -21 3 8 -1 22 -9 33 -13 17 -14 16 -8
-12z"/>
<path d="M6258 2325 c2 -14 8 -22 13 -19 5 3 5 14 -1 25 -14 26 -18 24 -12 -6z"/>
<path d="M5601 2444 c0 -11 3 -14 6 -6 3 7 2 16 -1 19 -3 4 -6 -2 -5 -13z"/>
<path d="M5611 2410 c-1 -22 51 -261 56 -256 5 5 -31 192 -46 241 -5 17 -10
23 -10 15z"/>
<path d="M5524 2297 c8 -24 86 -157 92 -157 6 0 -51 110 -77 145 -11 17 -18
22 -15 12z"/>
<path d="M5710 2191 c0 -17 5 -33 10 -36 6 -4 10 8 10 29 0 20 -4 36 -10 36
-5 0 -10 -13 -10 -29z"/>
<path d="M5560 2105 c44 -45 50 -50 50 -40 0 11 -73 85 -83 85 -6 0 9 -20 33
-45z"/>
<path d="M5060 2918 c-15 -21 -17 -28 -6 -19 16 13 41 51 33 51 -2 0 -14 -15
-27 -32z"/>
<path d="M5089 2913 c-13 -16 -12 -17 4 -4 9 7 17 15 17 17 0 8 -8 3 -21 -13z"/>
<path d="M5094 2878 c-30 -34 -47 -58 -42 -58 3 0 19 18 37 40 34 43 38 55 5
18z"/>
<path d="M4975 2798 c-16 -24 -22 -38 -14 -31 15 12 53 73 46 73 -2 0 -17 -19
-32 -42z"/>
<path d="M5029 2793 c-13 -16 -12 -17 4 -4 16 13 21 21 13 21 -2 0 -10 -8 -17
-17z"/>
<path d="M5256 2596 c-26 -24 -64 -51 -85 -59 -89 -37 -89 -36 -51 -30 53 9
100 36 150 87 56 58 50 58 -14 2z"/>
<path d="M4276 2559 c7 -12 114 -62 120 -56 2 1 -26 18 -62 35 -36 18 -62 27
-58 21z"/>
<path d="M4191 2085 c-16 -106 -43 -401 -39 -428 2 -12 9 41 16 118 7 77 20
189 28 248 8 59 14 116 12 125 -2 9 -10 -19 -17 -63z"/>
<path d="M4143 1590 c0 -25 2 -35 4 -22 2 12 2 32 0 45 -2 12 -4 2 -4 -23z"/>
<path d="M4387 2232 c-5 -107 -6 -196 -4 -199 6 -6 20 312 15 357 -2 19 -7
-52 -11 -158z"/>
<path d="M5332 2302 c-41 -109 -49 -137 -23 -91 21 37 66 168 60 174 -2 2 -19
-36 -37 -83z"/>
<path d="M5263 2355 c-17 -14 -51 -36 -75 -50 -24 -14 -38 -25 -33 -25 17 0
109 56 129 79 25 28 18 26 -21 -4z"/>
<path d="M4823 2315 c35 -20 115 -45 142 -44 11 0 -14 11 -55 23 -41 13 -84
27 -95 30 -11 4 -7 0 8 -9z"/>
<path d="M4465 2209 c5 -63 40 -202 81 -324 28 -84 89 -225 98 -225 2 0 -8 28
-24 63 -56 123 -118 333 -154 517 -3 14 -3 0 -1 -31z"/>
<path d="M5382 2190 c0 -19 2 -27 5 -17 2 9 2 25 0 35 -3 9 -5 1 -5 -18z"/>
<path d="M5253 2159 c16 -9 14 -14 -15 -52 -18 -23 -44 -55 -58 -72 -23 -28
-23 -28 -2 -10 13 11 39 41 59 67 19 27 38 48 42 48 3 0 42 -20 85 -45 44 -25
82 -45 85 -45 13 0 -71 55 -131 86 -62 31 -107 47 -65 23z"/>
<path d="M4700 2116 c31 -35 125 -108 167 -130 56 -28 49 -17 -11 19 -32 19
-86 58 -119 87 -34 29 -51 39 -37 24z"/>
<path d="M5251 2011 c14 -5 56 -11 95 -14 42 -4 59 -3 43 2 -14 5 -56 11 -95
14 -42 4 -59 3 -43 -2z"/>
<path d="M4354 1685 c0 -49 1 -71 3 -48 2 23 2 64 0 90 -2 26 -3 8 -3 -42z"/>
<path d="M4640 2378 c-15 -21 -17 -28 -6 -19 16 13 41 51 33 51 -2 0 -14 -15
-27 -32z"/>
<path d="M4670 2378 c-15 -21 -17 -28 -6 -19 16 13 41 51 33 51 -2 0 -14 -15
-27 -32z"/>
<path d="M4663 2328 c-44 -59 -66 -97 -34 -58 34 41 83 110 78 110 -3 0 -22
-24 -44 -52z"/>
<path d="M4589 2313 l-24 -28 28 24 c15 14 27 26 27 28 0 8 -8 1 -31 -24z"/>
<path d="M5823 2364 c-8 -21 13 -42 28 -27 13 13 5 43 -11 43 -6 0 -13 -7 -17
-16z m27 -10 c0 -8 -4 -12 -10 -9 -5 3 -10 10 -10 16 0 5 5 9 10 9 6 0 10 -7
10 -16z"/>
<path d="M6608 2223 c6 -2 18 -2 25 0 6 3 1 5 -13 5 -14 0 -19 -2 -12 -5z"/>
<path d="M6658 2213 c6 -2 18 -2 25 0 6 3 1 5 -13 5 -14 0 -19 -2 -12 -5z"/>
<path d="M6708 2203 c7 -3 16 -2 19 1 4 3 -2 6 -13 5 -11 0 -14 -3 -6 -6z"/>
<path d="M6748 2193 c6 -2 18 -2 25 0 6 3 1 5 -13 5 -14 0 -19 -2 -12 -5z"/>
<path d="M6924 2176 c-7 -19 3 -36 22 -36 10 0 14 8 12 22 -4 26 -26 36 -34
14z m26 -11 c0 -8 -4 -15 -10 -15 -5 0 -10 7 -10 15 0 8 5 15 10 15 6 0 10 -7
10 -15z"/>
<path d="M2564 1994 c-10 -8 -13 -12 -6 -9 8 4 26 11 40 15 22 7 23 8 6 9 -11
1 -29 -6 -40 -15z"/>
<path d="M2688 2003 c6 -2 18 -2 25 0 6 3 1 5 -13 5 -14 0 -19 -2 -12 -5z"/>
<path d="M2900 2003 c8 -3 22 -11 30 -17 13 -10 13 -9 1 7 -7 9 -21 17 -30 16
-13 0 -14 -1 -1 -6z"/>
<path d="M2773 1963 c9 -2 25 -2 35 0 9 3 1 5 -18 5 -19 0 -27 -2 -17 -5z"/>
<path d="M3444 2135 c0 -49 1 -71 3 -48 2 23 2 64 0 90 -2 26 -3 8 -3 -42z"/>
<path d="M3313 2150 c0 -41 2 -58 4 -37 2 20 2 54 0 75 -2 20 -4 3 -4 -38z"/>
<path d="M3344 2050 c0 -52 1 -74 3 -47 2 26 2 68 0 95 -2 26 -3 4 -3 -48z"/>
<path d="M3803 2035 c0 -38 2 -53 4 -32 2 20 2 52 0 70 -2 17 -4 1 -4 -38z"/>
<path d="M3723 1990 c0 -47 2 -66 4 -42 2 23 2 61 0 85 -2 23 -4 4 -4 -43z"/>
<path d="M7184 1880 c0 -58 1 -81 3 -52 2 28 2 76 0 105 -2 28 -3 5 -3 -53z"/>
<path d="M6954 1900 c0 -74 1 -105 3 -67 2 37 2 97 0 135 -2 37 -3 6 -3 -68z"/>
<path d="M7063 1950 c0 -36 2 -50 4 -32 2 17 2 47 0 65 -2 17 -4 3 -4 -33z"/>
<path d="M5690 1928 c-12 -22 -12 -22 6 -6 10 10 15 20 12 24 -4 3 -12 -5 -18
-18z"/>
<path d="M5545 1880 c3 -4 -15 -13 -39 -20 -42 -11 -122 -67 -112 -77 3 -3 20
7 38 21 44 33 94 53 171 71 l62 13 -62 0 c-35 0 -60 -4 -58 -8z"/>
<path d="M6015 1930 c-27 -7 -25 -8 15 -8 25 0 72 4 105 8 l60 7 -75 0 c-41 1
-88 -3 -105 -7z"/>
<path d="M5941 1896 c2 -2 38 -6 79 -9 46 -3 63 -2 45 3 -30 8 -132 13 -124 6z"/>
<path d="M6152 1850 c-138 -18 -187 -33 -102 -32 31 0 290 36 305 43 33 13
-56 9 -203 -11z"/>
<path d="M5900 1848 c14 -6 68 -34 120 -61 52 -27 84 -39 70 -28 -30 25 -183
101 -202 100 -7 0 -2 -5 12 -11z"/>
<path d="M5811 1803 l-26 -11 30 -1 c55 -1 135 12 129 21 -8 12 -100 6 -133
-9z"/>
<path d="M5770 1783 c4 -16 13 -39 19 -53 l11 -25 -5 27 c-6 34 -23 78 -29 78
-3 0 -1 -12 4 -27z"/>
<path d="M5710 1790 c-12 -8 -11 -10 8 -10 12 0 22 5 22 10 0 13 -11 13 -30 0z"/>
<path d="M5620 1783 c-45 -8 -49 -26 -5 -19 22 3 46 6 53 6 6 0 12 5 12 10 0
10 -15 11 -60 3z"/>
<path d="M5900 1774 c0 -5 28 -36 62 -69 49 -48 55 -52 31 -20 -39 50 -93 102
-93 89z"/>
<path d="M5492 1763 c20 -5 33 -82 24 -145 -4 -31 -3 -37 3 -23 13 27 13 118
1 149 -6 15 -17 26 -27 25 -16 -1 -16 -2 -1 -6z"/>
<path d="M5560 1643 c0 -80 3 -113 10 -103 13 20 13 207 0 215 -6 4 -10 -36
-10 -112z"/>
<path d="M5664 1736 c-3 -8 -4 -23 -2 -33 3 -11 6 -6 9 15 6 34 2 42 -7 18z"/>
<path d="M5732 1710 c0 -14 4 -38 8 -55 l8 -30 0 30 c0 17 -4 41 -8 55 l-8 25
0 -25z"/>
<path d="M6637 1912 c-37 -13 -66 -26 -64 -28 5 -5 110 31 134 45 29 17 3 11
-70 -17z"/>
<path d="M6538 1873 c7 -3 16 -2 19 1 4 3 -2 6 -13 5 -11 0 -14 -3 -6 -6z"/>
<path d="M3541 1697 c16 -13 99 -57 99 -53 0 7 -84 56 -95 56 -5 0 -6 -1 -4
-3z"/>
<path d="M3290 1666 c0 -3 9 -10 20 -16 11 -6 20 -8 20 -6 0 3 -9 10 -20 16
-11 6 -20 8 -20 6z"/>
<path d="M3436 1641 c-37 -41 9 -91 90 -97 l49 -3 -44 9 c-50 11 -89 34 -98
57 -8 20 22 43 55 43 28 0 92 -28 92 -41 0 -5 -17 0 -37 11 -45 24 -66 25 -83
5 -17 -20 0 -40 46 -55 39 -13 74 -5 74 16 0 9 5 12 11 8 28 -17 -1 23 -31 44
-42 28 -100 29 -124 3z m114 -41 l25 -15 -29 -3 c-29 -4 -86 15 -86 28 0 12
64 5 90 -10z"/>
<path d="M3284 1601 c7 -11 46 -35 46 -28 0 3 -12 12 -26 22 -15 9 -23 12 -20
6z"/>
<path d="M3340 1566 c0 -3 9 -10 20 -16 11 -6 20 -8 20 -6 0 3 -9 10 -20 16
-11 6 -20 8 -20 6z"/>
<path d="M3710 1546 c0 -2 8 -10 18 -17 15 -13 16 -12 3 4 -13 16 -21 21 -21
13z"/>
<path d="M3390 1534 c0 -7 150 -77 155 -73 2 2 -32 21 -76 41 -43 20 -79 34
-79 32z"/>
<path d="M3770 1495 c13 -14 26 -25 28 -25 3 0 -5 11 -18 25 -13 14 -26 25
-28 25 -3 0 5 -11 18 -25z"/>
<path d="M3720 1477 c0 -3 12 -12 26 -22 15 -9 23 -12 20 -6 -7 11 -46 35 -46
28z"/>
<path d="M7100 1515 c-11 -13 -11 -19 3 -32 23 -23 69 -10 65 20 -4 27 -49 35
-68 12z m58 -12 c2 -8 -6 -13 -22 -13 -25 0 -33 10 -19 24 10 10 36 3 41 -11z"/>
<path d="M3370 1414 c0 -7 112 -56 116 -51 2 2 -23 15 -56 30 -33 14 -60 23
-60 21z"/>
<path d="M3240 1396 c0 -3 9 -10 20 -16 11 -6 20 -8 20 -6 0 3 -9 10 -20 16
-11 6 -20 8 -20 6z"/>
<path d="M3310 1355 c14 -8 30 -14 35 -14 6 0 -1 6 -15 14 -14 8 -29 14 -35
14 -5 0 1 -6 15 -14z"/>
<path d="M3510 1350 c8 -5 20 -10 25 -10 6 0 3 5 -5 10 -8 5 -19 10 -25 10 -5
0 -3 -5 5 -10z"/>
<path d="M5153 1443 c15 -2 37 -2 50 0 12 2 0 4 -28 4 -27 0 -38 -2 -22 -4z"/>
<path d="M5073 1433 c9 -2 25 -2 35 0 9 3 1 5 -18 5 -19 0 -27 -2 -17 -5z"/>
<path d="M6438 1433 c6 -2 18 -2 25 0 6 3 1 5 -13 5 -14 0 -19 -2 -12 -5z"/>
<path d="M4935 1420 c-48 -7 -48 -7 -10 -8 22 0 60 3 85 7 40 8 41 8 10 8 -19
0 -57 -3 -85 -7z"/>
<path d="M6378 1423 c6 -2 18 -2 25 0 6 3 1 5 -13 5 -14 0 -19 -2 -12 -5z"/>
<path d="M5203 1413 c9 -2 25 -2 35 0 9 3 1 5 -18 5 -19 0 -27 -2 -17 -5z"/>
<path d="M5133 1403 c9 -2 25 -2 35 0 9 3 1 5 -18 5 -19 0 -27 -2 -17 -5z"/>
<path d="M5388 1373 c7 -3 16 -2 19 1 4 3 -2 6 -13 5 -11 0 -14 -3 -6 -6z"/>
<path d="M5210 1355 c-52 -8 -69 -13 -45 -13 22 0 78 5 125 12 48 8 68 13 45
13 -22 0 -78 -6 -125 -12z"/>
<path d="M6484 1325 c-14 -35 -9 -37 316 -126 102 -27 187 -55 189 -62 2 -6
17 -24 32 -39 25 -25 34 -28 99 -28 62 0 74 3 95 25 43 42 29 96 -31 115 -24
8 -62 10 -107 6 -49 -4 -84 -2 -121 9 -150 45 -420 115 -442 115 -14 0 -27 -7
-30 -15z m124 -26 c42 -11 142 -39 222 -62 127 -36 156 -41 235 -39 90 2 149
-11 142 -32 -2 -6 -13 -9 -23 -6 -10 2 -42 5 -71 5 -28 0 -49 3 -46 8 2 4 -1
7 -6 7 -25 0 -8 -32 24 -46 27 -11 45 -12 81 -4 53 12 65 7 41 -17 -20 -20
-120 -29 -159 -14 -20 7 -29 19 -34 45 -3 20 -9 34 -13 31 -13 -7 -439 108
-481 131 -38 20 -3 18 88 -7z"/>
<path d="M7078 1183 c7 -3 16 -2 19 1 4 3 -2 6 -13 5 -11 0 -14 -3 -6 -6z"/>
<path d="M7170 1176 c0 -2 7 -7 16 -10 8 -3 12 -2 9 4 -6 10 -25 14 -25 6z"/>
<path d="M7050 1116 c15 -9 46 -15 75 -14 l50 1 -55 7 c-30 4 -64 10 -75 14
-13 5 -11 2 5 -8z"/>
<path d="M6788 1323 c6 -2 18 -2 25 0 6 3 1 5 -13 5 -14 0 -19 -2 -12 -5z"/>
<path d="M6642 1164 c-26 -18 -28 -41 -6 -72 9 -13 13 -26 10 -29 -3 -3 -82
-21 -176 -40 -94 -19 -182 -38 -196 -43 -32 -13 -41 -37 -20 -58 14 -14 23
-15 71 -5 81 17 368 104 383 115 15 13 16 50 0 66 -31 31 82 -12 160 -62 55
-34 97 -33 97 4 0 33 -41 59 -165 104 -114 41 -127 42 -158 20z m118 -28 c148
-47 191 -69 189 -98 0 -10 -2 -10 -6 0 -5 14 -82 56 -89 49 -3 -2 9 -10 25
-17 17 -7 36 -19 43 -28 8 -9 -9 -4 -39 13 -29 15 -50 32 -47 37 3 5 0 8 -7 7
-8 -2 -28 5 -46 14 -17 9 -38 14 -46 11 -8 -3 -21 2 -30 10 -20 21 -24 20 -30
-6 -4 -15 1 -30 14 -44 l21 -22 -23 -12 c-19 -10 -21 -10 -16 3 3 8 -1 23 -8
34 -25 32 -17 67 15 72 3 1 39 -10 80 -23z m-111 -100 c-5 -6 -167 -56 -275
-86 -47 -13 -90 -20 -100 -16 -18 7 -18 8 1 19 28 16 176 46 194 39 8 -3 12
-1 8 5 -4 6 7 10 26 11 18 1 52 8 77 16 45 14 77 20 69 12z"/>
<path d="M6315 955 c-22 -7 -33 -13 -25 -14 8 0 35 6 60 13 25 8 36 15 25 15
-11 0 -38 -6 -60 -14z"/>
<path d="M5140 1070 l-35 -7 35 -1 c19 0 49 4 65 8 l30 8 -30 0 c-16 -1 -46
-4 -65 -8z"/>
<path d="M3645 1055 c-110 -15 -142 -22 -100 -23 17 0 84 7 150 17 66 10 102
18 80 18 -22 0 -80 -5 -130 -12z"/>
<path d="M5063 1053 c9 -2 23 -2 30 0 6 3 -1 5 -18 5 -16 0 -22 -2 -12 -5z"/>
<path d="M5210 1013 c-47 -18 -67 -76 -36 -102 15 -13 118 -17 136 -6 15 9 12
81 -4 94 -17 14 -75 23 -96 14z m76 -28 c16 -13 17 -16 4 -25 -8 -5 -31 -9
-50 -9 l-35 2 35 6 c44 8 45 25 3 29 -25 2 -33 -1 -33 -12 0 -18 -15 -21 -25
-7 -16 27 69 40 101 16z m16 -53 c-3 -9 -22 -12 -60 -10 -78 4 -77 23 2 23 48
0 62 -3 58 -13z"/>
<path d="M4108 993 c6 -2 18 -2 25 0 6 3 1 5 -13 5 -14 0 -19 -2 -12 -5z"/>
<path d="M4033 983 c9 -2 25 -2 35 0 9 3 1 5 -18 5 -19 0 -27 -2 -17 -5z"/>
<path d="M3963 973 c9 -2 23 -2 30 0 6 3 -1 5 -18 5 -16 0 -22 -2 -12 -5z"/>
<path d="M4980 962 c-48 -24 -47 -48 3 -45 35 2 37 1 37 -27 0 -24 -5 -29 -27
-32 -23 -2 -29 -8 -31 -35 -3 -25 3 -36 31 -57 40 -31 40 -31 94 -8 28 11 43
23 43 35 0 9 5 17 10 17 20 0 9 39 -16 59 -22 18 -25 26 -20 55 6 29 3 37 -13
45 -29 16 -71 13 -111 -7z m110 -12 c13 -8 13 -10 -1 -10 -13 0 -15 -9 -11
-50 4 -45 3 -50 -16 -50 -15 0 -21 8 -24 36 -2 19 0 37 4 40 20 13 4 24 -34
25 -33 0 -38 2 -23 9 27 12 87 12 105 0z m40 -115 c0 -8 -6 -15 -14 -15 -8 0
-23 -3 -33 -6 -17 -5 -17 -5 0 9 11 9 15 21 11 32 -6 15 -4 16 14 6 12 -7 22
-18 22 -26z m-104 0 c-4 -10 1 -15 14 -15 11 0 20 -4 20 -10 0 -5 -6 -10 -12
-10 -21 1 -51 28 -43 39 10 17 28 13 21 -4z m1 -62 c-10 -9 -47 27 -47 45 0
10 8 6 27 -12 14 -14 23 -29 20 -33z m93 27 c0 -11 -42 -30 -66 -30 -26 0 -15
17 19 28 43 13 47 14 47 2z"/>
<path d="M3840 960 c-50 -11 1 -11 60 -1 41 8 42 8 10 8 -19 0 -51 -3 -70 -7z"/>
<path d="M4153 953 c9 -2 25 -2 35 0 9 3 1 5 -18 5 -19 0 -27 -2 -17 -5z"/>
<path d="M3740 940 c-11 -7 -5 -8 20 -4 43 8 51 14 19 14 -13 0 -31 -5 -39
-10z"/>
<path d="M4093 943 c9 -2 23 -2 30 0 6 3 -1 5 -18 5 -16 0 -22 -2 -12 -5z"/>
<path d="M5384 941 c-48 -21 -32 -73 27 -86 34 -8 95 10 103 30 15 40 -76 79
-130 56z m100 -30 c17 -19 17 -20 -17 -29 -47 -13 -87 -5 -87 18 0 34 76 42
104 11z"/>
<path d="M5407 913 c-12 -11 -8 -21 12 -26 24 -6 46 7 37 22 -8 12 -39 15 -49
4z"/>
<path d="M4033 933 c9 -2 23 -2 30 0 6 3 -1 5 -18 5 -16 0 -22 -2 -12 -5z"/>
<path d="M4238 923 c7 -3 16 -2 19 1 4 3 -2 6 -13 5 -11 0 -14 -3 -6 -6z"/>
<path d="M4402 889 c-50 -25 -61 -34 -64 -59 -6 -38 5 -46 67 -55 101 -14 123
-23 127 -53 l3 -27 114 -3 115 -3 43 43 c35 35 43 49 41 73 l-3 30 -90 10 -90
10 -3 34 c-3 32 -5 33 -35 26 -46 -10 -97 -11 -134 -3 -24 6 -45 1 -91 -23z
m238 -8 c0 -11 3 -26 6 -35 3 -9 1 -16 -5 -16 -6 0 -11 11 -11 25 0 14 -5 25
-11 25 -6 0 -9 -12 -7 -27 l3 -28 97 -2 c54 -1 102 -4 108 -8 19 -12 9 -40
-26 -68 -42 -36 -44 -24 -4 22 40 45 38 53 -3 12 l-34 -32 -91 7 c-74 5 -90 9
-81 20 6 8 8 30 4 56 -6 38 -4 44 17 54 34 17 38 16 38 -5z m-100 0 c20 -6 25
-14 28 -47 2 -28 -2 -45 -12 -54 -12 -9 -16 -9 -16 -1 0 7 -5 9 -11 5 -17 -10
-161 19 -166 34 -3 7 -4 14 -2 16 2 2 45 -5 94 -15 106 -22 105 -21 105 -10 0
4 -40 14 -90 22 -49 7 -90 16 -90 20 0 12 73 38 105 37 17 0 41 -3 55 -7z
m210 -158 c0 -15 -2 -16 -10 -3 -6 10 -10 11 -10 3 0 -20 -166 -18 -174 2 -4
13 10 15 94 15 89 0 100 -2 100 -17z"/>
<path d="M4676 801 c-8 -13 20 -33 41 -29 10 2 19 11 21 21 3 13 -3 17 -27 17
-16 0 -32 -4 -35 -9z"/>
<path d="M4445 869 c-4 -6 -1 -15 6 -20 20 -13 54 -6 54 11 0 18 -50 26 -60 9z"/>
<path d="M4808 893 c7 -3 16 -2 19 1 4 3 -2 6 -13 5 -11 0 -14 -3 -6 -6z"/>
<path d="M5865 880 c-27 -7 -27 -8 -5 -8 14 0 36 4 50 8 20 6 21 8 5 8 -11 0
-33 -4 -50 -8z"/>
<path d="M5650 844 c-74 -13 -169 -29 -210 -36 -41 -6 -70 -13 -63 -15 6 -2
81 8 165 22 84 14 182 31 218 37 36 5 67 12 69 14 9 8 -49 1 -179 -22z"/>
<path d="M5318 783 c6 -2 18 -2 25 0 6 3 1 5 -13 5 -14 0 -19 -2 -12 -5z"/>
<path d="M4550 1390 c8 -5 20 -10 25 -10 6 0 3 5 -5 10 -8 5 -19 10 -25 10 -5
0 -3 -5 5 -10z"/>
<path d="M4850 1292 c8 -5 26 -13 40 -16 17 -5 20 -4 10 2 -8 5 -26 13 -40 16
-17 5 -20 4 -10 -2z"/>
<path d="M3870 1255 c0 -8 112 -56 118 -50 3 2 -20 16 -52 30 -59 26 -66 28
-66 20z"/>
<path d="M3872 1180 c0 -19 2 -27 5 -17 2 9 2 25 0 35 -3 9 -5 1 -5 -18z"/>
<path d="M3912 1165 c0 -16 2 -22 5 -12 2 9 2 23 0 30 -3 6 -5 -1 -5 -18z"/>
<path d="M3012 1160 c0 -14 2 -19 5 -12 2 6 2 18 0 25 -3 6 -5 1 -5 -13z"/>
<path d="M3062 1135 c0 -16 2 -22 5 -12 2 9 2 23 0 30 -3 6 -5 -1 -5 -18z"/>
<path d="M3042 1100 c0 -14 2 -19 5 -12 2 6 2 18 0 25 -3 6 -5 1 -5 -13z"/>
<path d="M3243 1035 c0 -27 2 -38 4 -22 2 15 2 37 0 50 -2 12 -4 0 -4 -28z"/>
<path d="M3373 990 c0 -25 2 -35 4 -22 2 12 2 32 0 45 -2 12 -4 2 -4 -23z"/>
<path d="M7648 1023 c7 -3 16 -2 19 1 4 3 -2 6 -13 5 -11 0 -14 -3 -6 -6z"/>
<path d="M7593 1013 c9 -2 23 -2 30 0 6 3 -1 5 -18 5 -16 0 -22 -2 -12 -5z"/>
<path d="M7538 1003 c6 -2 18 -2 25 0 6 3 1 5 -13 5 -14 0 -19 -2 -12 -5z"/>
<path d="M7435 990 l-30 -8 30 0 c17 0 44 4 60 8 l30 8 -30 0 c-16 0 -43 -4
-60 -8z"/>
<path d="M7363 973 c9 -2 23 -2 30 0 6 3 -1 5 -18 5 -16 0 -22 -2 -12 -5z"/>
<path d="M7293 963 c9 -2 25 -2 35 0 9 3 1 5 -18 5 -19 0 -27 -2 -17 -5z"/>
<path d="M7488 953 c6 -2 18 -2 25 0 6 3 1 5 -13 5 -14 0 -19 -2 -12 -5z"/>
<path d="M7428 943 c6 -2 18 -2 25 0 6 3 1 5 -13 5 -14 0 -19 -2 -12 -5z"/>
<path d="M7363 933 c9 -2 25 -2 35 0 9 3 1 5 -18 5 -19 0 -27 -2 -17 -5z"/>
<path d="M7308 923 c6 -2 18 -2 25 0 6 3 1 5 -13 5 -14 0 -19 -2 -12 -5z"/>
<path d="M7190 910 c-34 -7 -34 -7 -5 -8 17 -1 48 3 70 7 l40 9 -35 0 c-19 -1
-51 -4 -70 -8z"/>
<path d="M7118 893 c6 -2 18 -2 25 0 6 3 1 5 -13 5 -14 0 -19 -2 -12 -5z"/>
<path d="M7015 880 c-42 -11 -1 -11 50 -1 34 7 35 9 10 9 -16 0 -43 -4 -60 -8z"/>
<path d="M6798 873 c6 -2 18 -2 25 0 6 3 1 5 -13 5 -14 0 -19 -2 -12 -5z"/>
<path d="M6748 863 c6 -2 18 -2 25 0 6 3 1 5 -13 5 -14 0 -19 -2 -12 -5z"/>
<path d="M6948 863 c7 -3 16 -2 19 1 4 3 -2 6 -13 5 -11 0 -14 -3 -6 -6z"/>
<path d="M6660 850 c-20 -6 -21 -8 -5 -8 11 0 34 4 50 8 27 7 27 8 5 8 -14 0
-36 -4 -50 -8z"/>
<path d="M6475 814 c-155 -35 -183 -42 -160 -42 11 -1 88 14 170 33 83 18 139
33 125 33 -14 0 -74 -11 -135 -24z"/>
<path d="M6210 750 c-21 -7 -21 -8 -5 -9 11 0 27 4 35 9 18 11 5 11 -30 0z"/>
<path d="M6158 733 c7 -3 16 -2 19 1 4 3 -2 6 -13 5 -11 0 -14 -3 -6 -6z"/>
<path d="M6108 723 c6 -2 18 -2 25 0 6 3 1 5 -13 5 -14 0 -19 -2 -12 -5z"/>
<path d="M6058 713 c6 -2 18 -2 25 0 6 3 1 5 -13 5 -14 0 -19 -2 -12 -5z"/>
<path d="M5998 703 c6 -2 18 -2 25 0 6 3 1 5 -13 5 -14 0 -19 -2 -12 -5z"/>
<path d="M5880 690 c-50 -11 1 -11 60 -1 41 8 42 8 10 8 -19 0 -51 -3 -70 -7z"/>
<path d="M5750 670 c-27 -6 -29 -8 -10 -8 14 -1 43 3 65 7 33 7 35 9 10 9 -16
-1 -46 -4 -65 -8z"/>
<path d="M5585 644 c-44 -8 -84 -16 -90 -19 -16 -7 83 5 155 20 88 17 35 17
-65 -1z"/>
<path d="M5338 633 c6 -2 18 -2 25 0 6 3 1 5 -13 5 -14 0 -19 -2 -12 -5z"/>
<path d="M5240 620 c-34 -7 -34 -7 -5 -8 17 0 41 4 55 8 33 11 0 11 -50 0z"/>
<path d="M5395 610 c-42 -11 -1 -11 50 -1 34 7 35 9 10 9 -16 0 -43 -4 -60 -8z"/>
<path d="M5163 603 c9 -2 23 -2 30 0 6 3 -1 5 -18 5 -16 0 -22 -2 -12 -5z"/>
<path d="M5040 589 c-25 -5 -74 -14 -110 -19 -111 -17 -426 -78 -405 -79 11
-1 83 11 160 25 77 14 208 36 290 50 83 14 155 26 160 29 19 7 -50 3 -95 -6z"/>
<path d="M5290 590 c-20 -6 -21 -8 -5 -8 11 0 34 4 50 8 27 7 27 8 5 8 -14 0
-36 -4 -50 -8z"/>
<path d="M5178 563 c7 -3 16 -2 19 1 4 3 -2 6 -13 5 -11 0 -14 -3 -6 -6z"/>
<path d="M3552 870 c0 -14 2 -19 5 -12 2 6 2 18 0 25 -3 6 -5 1 -5 -13z"/>
<path d="M3582 870 c0 -14 2 -19 5 -12 2 6 2 18 0 25 -3 6 -5 1 -5 -13z"/>
<path d="M3933 715 c0 -27 2 -38 4 -22 2 15 2 37 0 50 -2 12 -4 0 -4 -28z"/>
<path d="M3962 700 c0 -19 2 -27 5 -17 2 9 2 25 0 35 -3 9 -5 1 -5 -18z"/>
<path d="M4252 550 c0 -19 2 -27 5 -17 2 9 2 25 0 35 -3 9 -5 1 -5 -18z"/>
<path d="M4292 560 c0 -14 2 -19 5 -12 2 6 2 18 0 25 -3 6 -5 1 -5 -13z"/>
<path d="M3300 4886 l0 -234 -102 -12 c-57 -7 -110 -16 -118 -21 -16 -9 -14
-8 143 12 l87 11 0 239 c0 131 -2 239 -5 239 -3 0 -5 -105 -5 -234z"/>
<path d="M3370 4640 c25 -4 122 -11 215 -14 123 -3 145 -3 80 3 -144 13 -346
21 -295 11z"/>
<path d="M3297 4623 c-3 -5 -32 -109 -65 -233 -34 -124 -70 -261 -82 -305 -46
-169 -61 -236 -58 -247 2 -6 32 94 67 223 35 129 76 281 92 339 48 179 63 252
46 223z"/>
<path d="M7424 4238 c-5 -7 -11 -36 -15 -65 -4 -31 -17 -65 -32 -85 -13 -18
-27 -46 -31 -61 -9 -37 9 -99 35 -123 11 -10 25 -27 30 -36 9 -17 3 -18 -70
-18 l-79 0 5 83 c8 127 -24 182 -115 194 -73 10 -169 -54 -134 -89 6 -6 37
-13 69 -17 l58 -6 3 -42 3 -42 -53 -3 -53 -3 2 -36 c2 -34 -1 -37 -29 -43 -17
-3 -43 -6 -58 -6 -27 0 -29 3 -39 68 -6 37 -15 100 -20 141 -5 40 -14 78 -19
83 -5 5 -27 8 -48 6 l-39 -3 -17 -145 c-9 -80 -17 -146 -17 -147 -1 -2 -53 -3
-117 -3 -111 0 -115 1 -112 21 3 18 11 21 58 23 81 4 96 15 104 79 7 64 -2
143 -18 156 -6 4 -41 11 -78 14 -49 5 -73 12 -88 27 -26 26 -102 28 -128 3
-22 -22 -122 -73 -142 -73 -36 0 -60 -30 -60 -75 0 -50 16 -70 62 -80 18 -4
47 -16 64 -26 17 -10 39 -19 48 -19 10 0 16 -9 16 -25 0 -24 -3 -25 -62 -25
-109 0 -108 0 -108 -94 0 -50 5 -87 12 -94 7 -7 43 -12 91 -12 l79 0 -6 -67
c-3 -38 -8 -183 -12 -324 l-6 -256 23 -17 c36 -25 140 -22 164 4 18 20 18 33
6 305 -6 156 -15 300 -18 320 l-6 35 137 0 137 0 -5 -57 c-20 -213 -26 -376
-17 -450 7 -59 7 -89 -2 -112 -16 -44 6 -65 73 -65 66 0 89 21 73 64 -7 18 -9
68 -6 132 3 61 -1 168 -11 262 -9 88 -16 175 -16 193 0 33 1 33 38 29 20 -3
67 -5 105 -5 l67 -1 0 -257 c1 -322 21 -449 64 -403 24 27 36 170 36 418 l0
242 91 0 90 0 -6 -137 c-4 -76 -13 -241 -20 -368 -8 -141 -9 -237 -3 -247 12
-23 55 -23 62 0 3 9 10 100 16 202 7 102 17 266 24 365 l11 180 30 0 30 0 8
-115 c4 -63 13 -234 20 -379 12 -238 15 -265 32 -277 24 -18 30 -18 50 3 14
14 16 29 11 92 -5 63 -15 285 -28 621 l-2 55 75 5 74 5 0 105 0 105 -97 3
c-54 1 -98 6 -98 10 0 4 16 19 35 35 63 50 70 146 15 205 -12 13 -25 46 -30
79 -11 65 -19 76 -51 71 -23 -3 -24 -7 -27 -85 -3 -75 -1 -83 23 -109 14 -15
25 -33 25 -41 0 -16 -44 -63 -60 -63 -16 0 -60 47 -60 64 0 8 11 28 25 44 21
26 25 40 25 99 0 40 -5 74 -12 81 -16 16 -45 15 -54 0z m146 -72 c0 -16 13
-50 29 -75 46 -72 45 -128 0 -174 l-32 -31 -18 23 c-10 13 -16 27 -13 33 3 5
11 2 17 -7 10 -13 12 -12 13 7 1 13 5 39 9 59 6 29 3 40 -19 66 -22 26 -26 41
-26 90 0 33 3 63 7 67 12 12 33 -25 33 -58z m-140 -103 c-23 -30 -26 -76 -6
-95 7 -7 35 -25 60 -40 26 -16 49 -36 52 -45 3 -10 16 -43 29 -73 20 -50 24
-81 34 -320 25 -598 26 -620 9 -620 -18 0 -23 47 -33 285 -11 273 -27 502 -36
552 -8 41 -19 61 -50 90 -21 20 -42 46 -45 58 -3 11 -19 34 -34 50 -54 59 -55
123 -2 190 15 18 22 42 22 70 0 69 15 62 18 -9 2 -55 -1 -71 -18 -93z m37 60
c-2 -21 -4 -6 -4 32 0 39 2 55 4 38 2 -18 2 -50 0 -70z m-967 17 c0 -5 -22
-10 -49 -10 -28 0 -53 5 -56 10 -4 6 15 10 49 10 31 0 56 -4 56 -10z m374 -47
c13 -70 38 -304 32 -310 -15 -15 -27 19 -37 103 -16 137 -26 203 -28 169 0
-16 6 -81 13 -144 11 -85 12 -120 4 -135 -10 -19 -10 -20 6 -7 23 19 32 7 18
-24 -7 -15 -12 -74 -12 -135 l0 -110 -25 0 -25 0 0 104 c0 58 -4 116 -10 130
-7 18 -6 26 1 26 6 0 2 8 -10 18 l-22 17 16 147 c8 81 15 154 15 163 0 10 10
15 29 15 24 0 30 -5 35 -27z m-206 -71 c2 -53 -1 -89 -9 -98 -9 -11 -45 -14
-160 -14 -131 0 -152 2 -181 20 -18 11 -50 25 -70 31 -34 9 -38 13 -38 42 0
30 3 32 37 34 20 1 49 11 64 22 22 17 43 21 101 21 40 0 95 -5 124 -12 l51
-12 -4 -45 c-3 -25 0 -57 6 -71 8 -20 10 -9 10 58 1 76 3 83 24 92 15 6 17 9
6 9 -9 1 -22 -6 -30 -15 -13 -16 -27 -16 -104 5 -72 19 -142 14 -183 -14 -23
-15 -50 -25 -72 -24 -33 0 -31 2 28 23 35 13 66 27 70 30 3 4 78 5 166 4 l161
-3 3 -83z m538 63 c53 -34 57 -173 8 -260 l-29 -50 -7 -345 c-7 -347 -13 -440
-28 -440 -15 0 -21 88 -28 435 -7 339 -8 351 -29 388 -13 21 -23 53 -23 70 1
27 2 29 11 15 11 -20 41 -23 69 -8 27 14 36 88 17 131 -9 19 -18 43 -20 54 -4
18 -5 18 -6 -2 -1 -30 -11 -34 -65 -27 -40 6 -44 9 -34 22 35 41 114 50 164
17z m221 -97 c-3 -8 -6 -5 -6 6 -1 11 2 17 5 13 3 -3 4 -12 1 -19z m-294 -85
c-7 -2 -21 -2 -30 0 -10 3 -4 5 12 5 17 0 24 -2 18 -5z m-620 -235 c3 -123 11
-320 17 -438 11 -214 11 -215 -11 -232 -25 -21 -88 -23 -114 -4 -22 16 -21
-27 -12 484 4 222 7 405 7 408 0 2 24 4 54 4 l53 0 6 -222z m892 130 c-7 -18
-16 -59 -20 -91 l-7 -58 -87 3 -86 3 3 55 c2 30 10 70 17 88 l14 32 90 0 90 0
-14 -32z m315 -58 l0 -90 -55 0 -55 0 0 53 c-1 28 -7 69 -14 90 l-14 37 69 0
69 0 0 -90z m30 0 c0 -53 -4 -90 -10 -90 -6 0 -10 37 -10 90 0 53 4 90 10 90
6 0 10 -37 10 -90z m-1376 64 c3 -9 6 -42 6 -75 0 -71 -5 -74 -92 -62 l-63 8
-3 59 c-4 85 -3 86 77 86 54 0 70 -4 75 -16z m386 -7 c0 -13 5 -28 12 -35 6
-6 14 -31 18 -57 l7 -45 -134 0 -133 0 0 73 c0 41 3 77 7 80 3 4 55 7 115 7
106 0 108 0 108 -23z m317 -7 c13 -29 21 -124 11 -127 -5 -2 -51 -3 -104 -3
l-96 0 7 38 c3 20 13 47 21 59 8 12 14 32 14 43 0 19 5 21 67 18 61 -3 69 -5
80 -28z m397 -9 c3 -5 -1 -22 -9 -38 -16 -32 -28 -162 -53 -578 -14 -235 -19
-280 -32 -280 -8 0 -14 8 -14 18 1 9 7 126 13 260 29 607 34 657 72 637 10 -6
20 -14 23 -19z m43 -85 c5 -44 5 -46 -21 -46 -30 0 -34 23 -15 79 15 42 30 28
36 -33z m-634 -266 c4 -30 9 -134 11 -230 1 -96 4 -179 6 -185 8 -28 -2 -35
-49 -35 -53 0 -67 10 -56 38 4 9 8 114 9 232 0 118 5 221 9 228 5 7 21 12 35
10 24 -3 28 -8 35 -58z"/>
<path d="M7552 4150 c0 -14 2 -19 5 -12 2 6 2 18 0 25 -3 6 -5 1 -5 -13z"/>
<path d="M7560 4117 c0 -3 11 -23 25 -43 14 -20 25 -33 25 -27 0 5 -11 24 -25
43 -14 19 -25 31 -25 27z"/>
<path d="M7612 4000 c0 -14 2 -19 5 -12 2 6 2 18 0 25 -3 6 -5 1 -5 -13z"/>
<path d="M7591 3947 c-13 -21 -12 -21 5 -5 10 10 16 20 13 22 -3 3 -11 -5 -18
-17z"/>
<path d="M7461 3886 c-18 -22 4 -58 32 -54 31 4 32 62 1 66 -11 2 -26 -4 -33
-12z m49 -21 c0 -19 -20 -29 -32 -17 -15 15 -2 43 17 36 8 -3 15 -12 15 -19z"/>
<path d="M7551 3784 c0 -11 3 -14 6 -6 3 7 2 16 -1 19 -3 4 -6 -2 -5 -13z"/>
<path d="M7562 3730 c0 -19 2 -27 5 -17 2 9 2 25 0 35 -3 9 -5 1 -5 -18z"/>
<path d="M7593 3020 c0 -30 2 -43 4 -27 2 15 2 39 0 55 -2 15 -4 2 -4 -28z"/>
<path d="M7098 4053 c6 -2 18 -2 25 0 6 3 1 5 -13 5 -14 0 -19 -2 -12 -5z"/>
<path d="M7185 4025 c36 -35 35 -117 -2 -188 l-27 -52 -2 -355 -1 -355 6 355
7 355 27 50 c37 68 39 161 4 193 -32 30 -42 28 -12 -3z"/>
<path d="M6413 3820 c0 -25 2 -35 4 -22 2 12 2 32 0 45 -2 12 -4 2 -4 -23z"/>
<path d="M6473 3760 c0 -41 2 -58 4 -37 2 20 2 54 0 75 -2 20 -4 3 -4 -38z"/>
<path d="M6422 3730 c0 -19 2 -27 5 -17 2 9 2 25 0 35 -3 9 -5 1 -5 -18z"/>
<path d="M6483 3590 c0 -30 2 -43 4 -27 2 15 2 39 0 55 -2 15 -4 2 -4 -28z"/>
<path d="M6414 3265 c0 -71 1 -99 3 -62 2 37 2 96 0 130 -2 34 -3 4 -3 -68z"/>
<path d="M6494 3195 c0 -88 2 -123 3 -77 2 46 2 118 0 160 -1 42 -3 5 -3 -83z"/>
<path d="M6442 3220 c0 -19 2 -27 5 -17 2 9 2 25 0 35 -3 9 -5 1 -5 -18z"/>
<path d="M6453 3120 c0 -25 2 -35 4 -22 2 12 2 32 0 45 -2 12 -4 2 -4 -23z"/>
<path d="M7640 3755 c-16 -19 -6 -45 19 -45 23 0 35 28 20 46 -15 18 -24 18
-39 -1z m30 -15 c0 -5 -4 -10 -10 -10 -5 0 -10 5 -10 10 0 6 5 10 10 10 6 0
10 -4 10 -10z"/>
<path d="M6260 3754 c-11 -12 -10 -18 3 -32 16 -15 18 -15 34 0 13 14 14 20 3
32 -7 9 -16 16 -20 16 -4 0 -13 -7 -20 -16z m30 -14 c0 -5 -4 -10 -10 -10 -5
0 -10 5 -10 10 0 6 5 10 10 10 6 0 10 -4 10 -10z"/>
<path d="M6844 3280 c0 -52 1 -74 3 -47 2 26 2 68 0 95 -2 26 -3 4 -3 -48z"/>
<path d="M6874 3200 c0 -52 1 -74 3 -47 2 26 2 68 0 95 -2 26 -3 4 -3 -48z"/>
<path d="M6828 3003 c12 -2 30 -2 40 0 9 3 -1 5 -23 4 -22 0 -30 -2 -17 -4z"/>
<path d="M6869 2566 c-2 -2 -38 -9 -79 -15 -114 -17 -237 -42 -175 -36 58 5
238 33 272 41 18 5 23 2 23 -14 0 -16 -10 -22 -57 -31 -82 -16 -169 -29 -234
-36 -31 -3 -65 -13 -75 -20 -17 -13 -15 -13 16 -5 19 6 51 10 71 10 19 0 93
11 163 25 150 29 190 31 231 8 19 -10 71 -19 145 -24 158 -12 177 -14 245 -27
33 -7 77 -14 99 -18 21 -3 36 -7 35 -9 -2 -1 -71 -17 -154 -34 -82 -17 -203
-42 -268 -56 l-118 -25 -147 25 c-81 14 -178 27 -217 30 -47 3 -7 -7 120 -30
105 -19 212 -35 239 -35 42 0 634 125 645 136 3 3 -15 4 -40 3 -24 -1 -82 6
-129 15 -133 26 -238 39 -325 40 -55 1 -90 7 -112 19 -18 9 -50 17 -73 17 -34
0 -40 3 -40 21 0 19 4 21 38 15 71 -12 313 -37 324 -34 14 5 -333 48 -383 48
-20 0 -38 -2 -40 -4z"/>
<path d="M7328 2513 c12 -2 32 -2 45 0 12 2 2 4 -23 4 -25 0 -35 -2 -22 -4z"/>
<path d="M7440 2499 c25 -4 59 -7 75 -7 22 0 18 3 -15 9 -25 4 -58 7 -75 7
-22 0 -18 -3 15 -9z"/>
<path d="M7563 2483 c9 -2 25 -2 35 0 9 3 1 5 -18 5 -19 0 -27 -2 -17 -5z"/>
<path d="M6978 2453 c12 -2 32 -2 45 0 12 2 2 4 -23 4 -25 0 -35 -2 -22 -4z"/>
<path d="M6818 2443 c7 -3 16 -2 19 1 4 3 -2 6 -13 5 -11 0 -14 -3 -6 -6z"/>
<path d="M7058 2443 c7 -3 16 -2 19 1 4 3 -2 6 -13 5 -11 0 -14 -3 -6 -6z"/>
<path d="M6865 2430 c19 -8 73 -14 64 -6 -2 2 -22 6 -44 9 -28 5 -34 4 -20 -3z"/>
<path d="M7098 2433 c6 -2 18 -2 25 0 6 3 1 5 -13 5 -14 0 -19 -2 -12 -5z"/>
<path d="M7258 2423 c12 -2 30 -2 40 0 9 3 -1 5 -23 4 -22 0 -30 -2 -17 -4z"/>
<path d="M6641 2416 c2 -2 18 -6 34 -10 22 -5 26 -4 15 4 -14 9 -59 15 -49 6z"/>
<path d="M6723 2393 c9 -2 25 -2 35 0 9 3 1 5 -18 5 -19 0 -27 -2 -17 -5z"/>
<path d="M7158 2393 c7 -3 16 -2 19 1 4 3 -2 6 -13 5 -11 0 -14 -3 -6 -6z"/>
<path d="M6973 2383 c9 -2 25 -2 35 0 9 3 1 5 -18 5 -19 0 -27 -2 -17 -5z"/>
<path d="M7203 2383 c9 -2 25 -2 35 0 9 3 1 5 -18 5 -19 0 -27 -2 -17 -5z"/>
<path d="M6865 2356 c17 -9 55 -15 90 -14 l60 1 -70 7 c-38 4 -79 10 -90 14
-11 3 -6 0 10 -8z"/>
<path d="M7548 2303 c7 -3 16 -2 19 1 4 3 -2 6 -13 5 -11 0 -14 -3 -6 -6z"/>
<path d="M7508 2293 c7 -3 16 -2 19 1 4 3 -2 6 -13 5 -11 0 -14 -3 -6 -6z"/>
<path d="M7395 2270 c-38 -10 -65 -18 -58 -19 14 -1 146 29 152 35 8 8 -24 2
-94 -16z"/>
<path d="M7288 2243 c6 -2 18 -2 25 0 6 3 1 5 -13 5 -14 0 -19 -2 -12 -5z"/>
<path d="M7428 2243 c7 -3 16 -2 19 1 4 3 -2 6 -13 5 -11 0 -14 -3 -6 -6z"/>
<path d="M7062 2168 c2 -13 10 -23 18 -23 8 0 16 10 18 23 3 17 -2 22 -18 22
-16 0 -21 -5 -18 -22z m28 2 c0 -5 -4 -10 -10 -10 -5 0 -10 5 -10 10 0 6 5 10
10 10 6 0 10 -4 10 -10z"/>
<path d="M7378 1333 c7 -3 16 -2 19 1 4 3 -2 6 -13 5 -11 0 -14 -3 -6 -6z"/>
<path d="M7550 1269 c-34 -7 -77 -46 -64 -58 3 -3 11 2 19 12 7 10 32 23 56
30 50 15 41 28 -11 16z"/>
<path d="M7555 1220 c3 -5 11 -10 16 -10 6 0 7 5 4 10 -3 6 -11 10 -16 10 -6
0 -7 -4 -4 -10z"/>
<path d="M3103 915 c0 -38 2 -53 4 -32 2 20 2 52 0 70 -2 17 -4 1 -4 -38z"/>
<path d="M3145 637 c-4 -113 -5 -211 -3 -218 3 -8 8 82 13 199 4 117 5 215 2
218 -3 3 -8 -87 -12 -199z"/>
<path d="M7464 695 c0 -77 2 -107 3 -67 2 40 2 103 0 140 -2 37 -3 4 -3 -73z"/>
<path d="M3380 814 c0 -3 33 -20 73 -38 40 -18 142 -68 227 -111 85 -42 150
-72 145 -66 -20 20 -445 226 -445 215z"/>
<path d="M7412 790 c0 -19 2 -27 5 -17 2 9 2 25 0 35 -3 9 -5 1 -5 -18z"/>
<path d="M3332 785 c11 -11 220 -106 225 -102 2 2 -34 21 -79 42 -118 53 -154
68 -146 60z"/>
<path d="M3113 690 c0 -41 2 -58 4 -37 2 20 2 54 0 75 -2 20 -4 3 -4 -38z"/>
<path d="M7165 720 c-44 -11 -177 -33 -295 -50 -192 -28 -253 -40 -209 -40 12
0 294 40 389 56 59 9 220 46 220 50 0 6 -21 3 -105 -16z"/>
<path d="M7424 615 c0 -71 1 -99 3 -62 2 37 2 96 0 130 -2 34 -3 4 -3 -68z"/>
<path d="M3590 595 c80 -41 150 -74 155 -74 6 0 -55 33 -135 74 -80 41 -149
74 -155 74 -5 0 55 -33 135 -74z"/>
<path d="M7170 660 c-20 -6 -21 -8 -5 -8 11 0 31 4 45 8 20 6 21 8 5 8 -11 0
-31 -4 -45 -8z"/>
<path d="M7060 640 c-34 -7 -34 -7 -5 -8 17 0 44 4 60 8 27 7 27 8 5 8 -14 -1
-41 -4 -60 -8z"/>
<path d="M6608 623 c6 -2 18 -2 25 0 6 3 1 5 -13 5 -14 0 -19 -2 -12 -5z"/>
<path d="M6983 623 c9 -2 23 -2 30 0 6 3 -1 5 -18 5 -16 0 -22 -2 -12 -5z"/>
<path d="M6558 613 c6 -2 18 -2 25 0 6 3 1 5 -13 5 -14 0 -19 -2 -12 -5z"/>
<path d="M6913 613 c9 -2 23 -2 30 0 6 3 -1 5 -18 5 -16 0 -22 -2 -12 -5z"/>
<path d="M6598 543 c7 -3 16 -2 19 1 4 3 -2 6 -13 5 -11 0 -14 -3 -6 -6z"/>
<path d="M6510 530 c-20 -6 -21 -8 -5 -8 11 0 34 4 50 8 27 7 27 8 5 8 -14 0
-36 -4 -50 -8z"/>
<path d="M7274 440 c0 -52 1 -74 3 -47 2 26 2 68 0 95 -2 26 -3 4 -3 -48z"/>
<path d="M3878 500 c45 -28 210 -110 219 -110 9 1 -238 130 -247 130 -3 0 10
-9 28 -20z"/>
<path d="M5500 494 c-134 -29 -145 -31 -390 -73 -102 -18 -189 -34 -195 -36
-17 -8 95 5 180 20 219 40 528 101 550 110 30 11 -44 0 -145 -21z"/>
<path d="M6305 490 c-77 -15 -189 -36 -250 -46 -60 -10 -102 -20 -91 -22 10
-2 60 4 110 13 166 31 391 75 401 79 28 12 -45 1 -170 -24z"/>
<path d="M5918 493 c6 -2 18 -2 25 0 6 3 1 5 -13 5 -14 0 -19 -2 -12 -5z"/>
<path d="M5695 460 c-77 -16 -209 -41 -293 -56 -83 -15 -150 -29 -147 -32 5
-5 53 3 345 59 113 21 228 43 255 48 41 7 44 9 15 9 -19 0 -98 -13 -175 -28z"/>
<path d="M4051 476 c9 -9 179 -85 179 -80 0 3 -38 23 -85 45 -79 36 -105 46
-94 35z"/>
<path d="M7432 460 c0 -14 2 -19 5 -12 2 6 2 18 0 25 -3 6 -5 1 -5 -13z"/>
<path d="M5908 413 c6 -2 18 -2 25 0 6 3 1 5 -13 5 -14 0 -19 -2 -12 -5z"/>
<path d="M5810 400 c-17 -6 -9 -7 25 -3 28 3 52 7 54 9 8 7 -54 2 -79 -6z"/>
<path d="M4848 373 c12 -2 30 -2 40 0 9 3 -1 5 -23 4 -22 0 -30 -2 -17 -4z"/>
<path d="M4643 330 c0 -25 2 -35 4 -22 2 12 2 32 0 45 -2 12 -4 2 -4 -23z"/>
<path d="M5208 363 c6 -2 18 -2 25 0 6 3 1 5 -13 5 -14 0 -19 -2 -12 -5z"/>
<path d="M5168 353 c7 -3 16 -2 19 1 4 3 -2 6 -13 5 -11 0 -14 -3 -6 -6z"/>
<path d="M5118 343 c6 -2 18 -2 25 0 6 3 1 5 -13 5 -14 0 -19 -2 -12 -5z"/>
</g>
</svg>
