<?xml version="1.0" standalone="no"?>
<!DOCTYPE svg PUBLIC "-//W3C//DTD SVG 20010904//EN"
 "http://www.w3.org/TR/2001/REC-SVG-20010904/DTD/svg10.dtd">
<svg version="1.0" xmlns="http://www.w3.org/2000/svg"
 width="1024.000000pt" height="559.000000pt" viewBox="0 0 1024.000000 559.000000"
 preserveAspectRatio="xMidYMid meet">
<metadata>
Created by potrace 1.16, written by Peter Selinger 2001-2019
</metadata>
<g transform="translate(0.000000,559.000000) scale(0.100000,-0.100000)"
fill="#000000" stroke="none">
<path d="M5080 5066 c-72 -17 -247 -107 -287 -148 -47 -48 -84 -145 -102 -268
-11 -68 3 -268 23 -334 14 -47 14 -53 -5 -95 -18 -41 -143 -181 -162 -181 -4
0 -25 -11 -47 -25 -22 -14 -48 -25 -57 -25 -26 0 -193 -91 -305 -166 -105 -70
-155 -127 -217 -252 -66 -131 -87 -211 -172 -657 -77 -401 -61 -601 58 -707
19 -18 61 -56 92 -84 31 -28 66 -56 78 -63 34 -17 94 -13 137 10 35 18 40 19
48 5 5 -8 15 -22 23 -30 22 -22 20 -95 -4 -144 -82 -164 -127 -404 -191 -1022
-17 -162 -33 -302 -36 -312 -6 -19 13 -35 26 -22 8 8 22 125 76 629 17 164 48
356 76 475 22 95 95 290 108 290 5 0 20 -4 34 -10 l25 -9 -30 -83 c-32 -86
-85 -326 -91 -412 -2 -31 1 -51 8 -53 8 -3 16 27 24 84 25 186 102 464 125
453 14 -7 6 -238 -35 -968 -14 -251 -13 -435 3 -430 8 3 14 54 20 179 4 96 17
350 28 564 32 592 34 662 20 679 -7 8 -31 17 -54 21 -51 8 -87 30 -87 51 0 14
9 15 64 9 77 -8 99 1 125 53 l19 38 169 12 c252 18 325 16 357 -9 l26 -20 -55
-51 c-32 -29 -55 -58 -55 -70 0 -47 68 -118 113 -118 8 0 52 36 98 79 l84 80
56 -6 c49 -5 59 -3 79 17 12 12 35 26 51 32 16 5 29 14 29 19 0 5 18 20 40 34
22 14 42 35 45 48 3 12 19 30 35 39 23 13 30 24 30 48 0 17 -5 41 -11 52 -9
17 -6 25 19 50 l29 30 7 -149 c5 -101 4 -162 -4 -194 -10 -41 -8 -59 29 -204
23 -87 39 -160 37 -163 -3 -2 -56 -10 -118 -18 -62 -7 -123 -16 -135 -19 -31
-7 -53 -33 -53 -61 0 -13 -1 -24 -2 -24 -2 -1 -75 -12 -163 -25 -278 -41 -294
-45 -312 -71 -14 -22 -14 -26 2 -51 46 -69 205 -168 342 -212 77 -24 258 -61
306 -61 17 0 47 -67 47 -105 0 -77 -52 -129 -160 -162 -80 -24 -91 -40 -88
-131 l3 -76 200 -79 c198 -78 201 -79 270 -73 123 10 173 25 194 61 43 73 199
104 347 70 73 -18 82 -18 171 -2 52 9 101 21 109 28 18 15 20 162 2 177 -7 6
-50 29 -96 52 -105 53 -132 89 -132 173 0 160 191 354 455 462 39 16 76 35 83
44 6 8 12 41 12 73 0 68 5 65 -147 107 -130 36 -149 37 -319 15 -69 -9 -128
-14 -131 -11 -12 12 10 27 40 27 46 0 165 63 201 107 17 20 36 52 41 72 7 24
21 41 49 56 48 27 59 46 47 79 -17 42 -76 60 -122 35 -16 -8 -35 -1 -107 42
-48 29 -114 78 -146 108 -73 69 -257 313 -254 338 4 54 -4 77 -41 114 l-39 39
51 50 c29 27 57 50 64 50 6 0 27 -19 45 -42 70 -88 81 -96 141 -103 56 -7 58
-7 112 35 77 59 125 115 125 146 0 14 -27 67 -64 122 -35 53 -66 113 -70 133
-7 41 -78 119 -109 119 -10 0 -40 23 -66 50 -43 47 -52 52 -113 62 -65 12 -67
11 -108 -17 -58 -40 -130 -123 -130 -150 0 -12 13 -40 28 -61 32 -44 82 -128
82 -137 0 -3 -25 -27 -55 -52 l-55 -48 -23 29 c-31 40 -114 216 -133 283 -34
123 -105 323 -133 380 -17 33 -45 76 -61 95 -28 32 -51 48 -168 121 -40 24
-42 28 -29 43 8 9 51 89 96 177 55 107 85 177 90 213 5 31 17 62 29 75 26 28
38 58 47 127 5 34 17 67 33 88 33 44 42 134 18 183 -9 18 -16 41 -16 51 0 35
-29 77 -76 109 -26 17 -75 53 -110 80 -80 61 -134 84 -223 98 -81 13 -70 13
-141 -3z m210 -49 c40 -13 100 -47 154 -87 124 -90 156 -122 156 -156 1 -16 7
-40 15 -54 18 -32 18 -86 0 -125 l-13 -30 -1 37 c-1 20 -6 49 -12 65 -10 26
-12 27 -23 9 -18 -31 -57 -69 -63 -62 -4 3 2 15 12 26 28 31 12 33 -40 5 -26
-14 -57 -25 -68 -25 -20 0 -20 0 1 23 23 24 29 47 13 47 -5 0 -25 -7 -44 -15
-42 -17 -93 -20 -102 -5 -10 16 -35 12 -29 -5 8 -20 67 -37 100 -29 29 7 29 7
11 -14 -10 -11 -14 -23 -9 -26 5 -3 47 -6 94 -8 74 -3 89 0 108 17 l23 20 -6
-105 c-5 -83 -10 -108 -24 -117 -25 -19 -71 -16 -76 5 -3 15 -5 15 -11 -3 -4
-11 -14 -32 -22 -47 -9 -17 -14 -58 -14 -122 0 -110 -9 -122 -65 -92 -18 10
-43 16 -56 14 -21 -3 -17 -7 28 -31 29 -15 62 -27 73 -27 18 0 15 -11 -35
-110 -52 -104 -57 -110 -95 -121 -81 -24 -182 29 -299 156 -60 67 -77 100 -86
168 -9 66 -25 59 -25 -11 0 -47 6 -67 28 -103 47 -73 149 -169 240 -225 2 -1
-4 -16 -12 -33 -18 -33 -21 -71 -7 -71 5 0 13 10 16 23 4 12 14 33 22 46 l16
24 13 -24 c20 -36 17 -50 -18 -87 -31 -31 -33 -38 -37 -118 -1 -46 -7 -84 -11
-84 -4 0 -13 15 -20 33 -7 17 -28 57 -47 88 -33 57 -65 77 -163 105 -14 3 -55
20 -91 36 -66 29 -66 30 -77 81 -6 29 -17 90 -23 137 l-11 85 42 80 c58 109
80 139 93 126 17 -17 67 -14 67 4 0 9 -9 15 -24 15 -28 0 -39 13 -56 64 -29
89 -6 186 44 186 31 0 52 -26 67 -83 12 -48 38 -74 64 -63 7 2 22 25 33 49 13
30 35 55 66 76 37 26 48 41 57 76 14 54 36 75 88 82 46 6 53 19 17 29 -15 3
-42 -2 -69 -14 -41 -18 -47 -25 -61 -73 -14 -46 -23 -58 -60 -80 -33 -20 -48
-38 -61 -73 -14 -37 -20 -44 -31 -35 -8 6 -14 20 -14 31 0 10 -9 36 -20 57
-32 65 -94 72 -138 17 -30 -39 -36 -93 -17 -165 12 -48 13 -66 4 -83 -12 -22
-13 -21 -26 17 -10 27 -15 90 -16 190 -2 139 0 156 26 238 33 104 70 150 144
184 29 12 70 34 92 47 81 51 194 60 301 23z m229 -673 c-11 -11 -24 -13 -45
-8 l-29 8 25 7 c14 4 34 7 45 8 17 1 18 0 4 -15z m-42 -60 c13 5 15 0 10 -26
-3 -18 -11 -46 -18 -63 -13 -29 -13 -29 -19 35 -6 60 0 108 8 67 2 -12 9 -16
19 -13z m-796 -414 c10 -52 38 -180 63 -285 24 -104 47 -206 50 -226 8 -45 8
-45 193 -61 112 -9 162 -9 235 1 126 16 144 26 141 76 -3 46 -47 181 -109 341
-24 61 -44 114 -44 117 0 4 7 4 16 0 24 -9 114 -208 174 -379 76 -222 116
-410 145 -688 l15 -149 -62 -56 c-91 -83 -94 -84 -130 -72 -48 17 -100 13
-215 -16 -106 -26 -108 -26 -252 -14 -114 10 -353 52 -369 66 -1 1 13 35 32
77 57 123 95 274 121 488 21 177 19 262 -15 455 -36 202 -56 336 -65 425 -5
59 -4 69 17 95 l23 30 8 -65 c5 -36 17 -108 28 -160z m-111 108 c0 -18 3 -43
6 -55 9 -31 -4 -29 -51 11 l-40 34 35 21 c46 28 50 27 50 -11z m-74 -65 c28
-21 59 -42 68 -48 12 -7 23 -41 36 -120 11 -60 29 -162 41 -225 50 -258 10
-611 -100 -885 -29 -71 -41 -91 -58 -93 -17 -3 -27 6 -42 36 -11 21 -31 46
-45 56 -25 16 -26 18 -12 51 8 19 20 63 27 98 6 34 24 96 40 137 16 41 36 104
44 140 17 74 21 290 5 290 -6 0 -10 -29 -10 -67 0 -80 -22 -229 -43 -293 l-15
-45 -1 82 c-1 79 -15 118 -26 71 -2 -13 -9 -86 -14 -163 -10 -135 -31 -249
-52 -270 -6 -6 -16 -5 -27 3 -102 72 -211 89 -321 50 -36 -13 -67 -29 -69 -37
-5 -16 17 -12 88 14 60 23 170 16 225 -13 l40 -21 -55 -1 c-71 0 -160 -23
-223 -57 -60 -33 -137 -100 -137 -119 0 -21 8 -18 58 27 58 51 170 106 237
114 l50 7 -61 -38 c-87 -55 -128 -90 -120 -103 5 -7 25 3 59 29 115 87 255
122 306 76 30 -27 26 -33 -17 -33 -74 0 -155 -64 -238 -189 -56 -84 -113 -203
-114 -236 0 -23 19 -23 35 -2 10 14 17 15 50 4 l38 -12 -32 -20 c-17 -11 -48
-22 -70 -25 -36 -5 -42 -1 -116 66 -43 39 -82 71 -86 71 -16 0 -68 88 -85 146
-25 82 -23 273 4 414 12 58 39 202 62 320 23 118 55 255 71 304 41 123 113
259 166 311 55 55 336 232 373 234 9 1 38 -16 66 -36z m865 -125 c174 -104
220 -178 312 -503 35 -123 123 -323 159 -362 11 -12 18 -29 15 -37 -7 -19
-249 -236 -257 -231 -12 7 -25 216 -20 310 8 143 6 437 -3 478 -17 82 -24 27
-19 -170 5 -226 -3 -249 -33 -98 -25 130 -117 402 -180 534 -30 62 -55 115
-55 117 0 8 12 2 81 -38z m-559 -39 c29 -12 80 -29 114 -40 33 -10 68 -27 77
-36 8 -10 39 -66 68 -126 29 -59 57 -106 63 -104 15 5 24 43 25 108 2 103 12
147 37 164 23 15 24 14 44 -33 31 -69 100 -282 100 -308 0 -36 -81 -48 -280
-41 -91 3 -177 9 -191 12 -24 6 -28 17 -72 209 -26 111 -47 205 -47 209 0 10
3 9 62 -14z m1336 -405 c38 -9 112 -88 106 -112 -8 -28 54 -103 105 -129 33
-17 57 -42 97 -102 50 -75 72 -123 42 -93 -14 14 -78 16 -78 3 0 -10 34 -21
68 -21 34 0 27 -13 -35 -70 -89 -82 -96 -85 -148 -70 -35 10 -53 23 -79 59
-19 25 -51 62 -71 81 -48 46 -112 129 -161 210 -22 36 -48 78 -59 93 l-18 28
68 67 68 66 26 -34 c14 -19 56 -64 92 -100 36 -37 95 -111 131 -166 65 -100
98 -138 98 -115 0 19 -88 160 -141 226 -26 33 -75 87 -108 119 -60 59 -76 84
-45 72 9 -3 28 -9 42 -12z m198 -141 c42 -46 47 -91 7 -65 -22 14 -73 84 -67
93 10 17 26 9 60 -28z m-282 -262 c20 -24 35 -47 34 -50 -2 -6 -180 -170 -544
-504 l-52 -47 -51 31 c-28 18 -51 35 -51 39 0 4 62 63 137 131 192 173 252
229 376 348 59 57 110 102 111 100 2 -2 20 -24 40 -48z m-35 -240 c17 -16 31
-39 31 -52 0 -18 -3 -20 -12 -11 -7 7 -35 12 -62 12 -112 0 -225 -108 -256
-243 -11 -53 -5 -77 20 -77 11 0 22 -4 25 -10 4 -6 -9 -10 -32 -10 -33 0 -46
7 -82 44 l-44 45 79 74 c189 176 280 257 290 257 7 0 26 -13 43 -29z m28 -128
c22 -27 72 -93 112 -148 102 -139 181 -217 281 -276 47 -27 98 -60 112 -72 26
-22 47 -87 28 -87 -6 0 -10 7 -10 16 0 8 -4 13 -9 10 -5 -3 -11 -33 -13 -66
-6 -90 -24 -94 -20 -5 3 63 1 75 -12 75 -13 0 -16 -13 -16 -69 0 -75 -15 -130
-30 -115 -5 5 -10 45 -12 88 -2 57 -7 81 -17 84 -11 4 -13 -11 -9 -87 5 -85 4
-93 -15 -106 -22 -16 -69 -20 -81 -8 -4 4 3 14 14 23 20 15 21 20 10 61 -14
52 -24 65 -63 85 -35 19 -66 12 -47 -11 9 -11 4 -18 -29 -34 l-40 -21 -16 29
c-10 20 -15 58 -15 108 0 78 -15 123 -42 123 -6 0 -19 6 -27 14 -9 8 -68 40
-131 71 -145 72 -200 110 -200 137 0 30 47 118 83 157 38 40 100 70 144 71 25
0 39 -9 70 -47z m-1602 -59 c171 -52 419 -94 575 -96 25 0 94 11 154 27 80 19
121 25 153 20 48 -7 56 -31 9 -28 -38 3 -32 -20 13 -45 21 -12 67 -43 101 -68
51 -38 61 -49 58 -71 -6 -48 -30 -50 -87 -10 -57 42 -61 43 -61 22 0 -8 20
-29 45 -47 47 -35 53 -46 33 -66 -18 -18 -45 -14 -93 13 -60 36 -68 14 -10
-27 46 -33 46 -33 25 -50 -20 -16 -23 -16 -67 3 -55 23 -84 10 -34 -15 36 -19
39 -31 10 -39 -52 -14 -177 25 -257 80 l-67 46 -215 -9 c-318 -13 -481 -11
-574 9 -44 10 -82 19 -84 22 -8 8 84 168 128 224 53 65 131 121 169 121 14 0
49 -7 76 -16z m1204 -203 c39 -36 80 -46 126 -31 32 11 41 8 152 -49 65 -33
135 -74 155 -91 l37 -31 -1 -77 c-1 -54 3 -86 14 -107 l16 -31 -81 -41 c-45
-23 -123 -57 -173 -76 -51 -20 -117 -52 -148 -73 -31 -20 -58 -35 -60 -33 -2
2 -21 72 -41 154 -34 134 -37 156 -28 207 5 32 6 88 2 125 -9 74 -11 183 -5
183 2 0 18 -13 35 -29z m-1307 -206 l58 -6 -17 -26 c-16 -24 -20 -25 -90 -21
-77 5 -103 18 -103 50 0 18 5 19 48 14 26 -3 73 -8 104 -11z m2313 -4 c6 -10
-25 -31 -44 -31 -18 0 -12 28 7 33 28 8 31 7 37 -2z m-1582 -60 l57 -28 -70
-67 c-77 -75 -87 -76 -131 -15 l-22 31 54 54 c29 30 53 54 54 54 0 0 26 -13
58 -29z m1607 16 c0 -11 -39 -37 -55 -37 -14 0 -2 18 23 32 33 21 32 21 32 5z
m-363 -134 c5 -14 -196 -123 -226 -123 -28 0 -27 -14 4 -28 16 -7 26 -8 30 -1
12 19 205 110 205 96 0 -7 -46 -35 -102 -62 -57 -28 -145 -76 -196 -108 -66
-40 -123 -66 -194 -87 -126 -38 -165 -38 -73 -1 98 39 125 53 125 63 0 11 4
12 -105 -27 -54 -20 -100 -34 -102 -31 -7 7 74 64 131 93 27 14 88 40 135 59
47 18 122 52 166 76 44 23 103 54 130 69 53 27 66 30 72 12z m-7 -137 c0 -20
-13 -27 -30 -15 -13 8 -13 10 0 19 21 14 30 12 30 -4z m-36 -55 c-4 -4 -138
-19 -142 -16 -2 2 20 14 49 28 50 23 54 24 75 8 12 -9 20 -18 18 -20z m501
-25 l120 -32 3 -47 c3 -43 1 -48 -25 -58 -89 -37 -200 -93 -255 -130 -96 -65
-201 -177 -239 -254 -76 -155 -33 -271 126 -340 45 -19 45 -19 -47 -38 -54
-11 -70 -11 -80 -1 -26 25 -134 72 -179 79 -96 14 -190 -33 -235 -120 l-28
-53 -90 -13 c-50 -8 -98 -13 -106 -12 -8 0 -84 26 -167 57 -155 57 -206 69
-184 43 6 -8 30 -19 52 -26 23 -7 98 -33 166 -58 l123 -45 -2 -69 c-1 -56 -4
-69 -16 -64 -8 3 -95 37 -193 76 l-179 71 0 54 c0 59 22 94 59 94 34 0 108 37
143 73 50 49 65 111 44 173 -9 26 -16 48 -16 49 0 4 73 -11 118 -24 54 -15
107 -62 123 -108 16 -50 6 -141 -24 -207 -28 -60 -21 -82 12 -41 56 72 69 238
23 303 -47 65 -141 101 -307 117 -243 23 -425 88 -567 201 -55 43 -69 66 -49
78 10 6 250 46 404 66 62 9 87 16 87 26 0 8 -4 14 -10 14 -12 0 -13 10 -1 29
7 11 13 12 23 4 7 -6 49 -21 93 -33 44 -12 101 -29 127 -37 45 -14 80 -10 61
7 -4 4 -60 23 -123 41 -63 18 -119 36 -123 39 -5 4 32 12 81 19 121 15 125 15
117 -8 -9 -29 26 -60 61 -54 124 20 247 58 305 94 36 23 66 32 130 39 46 6
170 21 274 34 105 13 204 24 220 24 17 0 84 -14 150 -32z m-464 -891 l74 -37
2 -68 1 -68 -50 15 c-35 10 -82 14 -152 11 -84 -2 -111 -8 -158 -30 l-58 -27
0 55 c0 30 7 68 14 83 20 38 80 89 114 97 15 3 32 8 37 10 28 11 110 -9 176
-41z m273 -31 c7 -19 8 -62 0 -90 -6 -21 -16 -24 -141 -49 l-33 -7 0 65 0 66
53 10 c28 5 61 12 72 14 37 8 43 7 49 -9z m-644 -169 c0 -36 -2 -65 -4 -65 -2
0 -40 -7 -83 -15 -115 -22 -109 -26 -105 53 l4 69 66 10 c130 19 122 23 122
-52z"/>
<path d="M4820 4534 c0 -3 10 -14 23 -24 21 -18 21 -20 6 -47 -16 -28 -15 -47
3 -70 16 -20 29 -4 17 18 -8 16 -7 25 5 38 20 22 20 41 0 69 -13 19 -54 32
-54 16z"/>
<path d="M5145 4456 c-17 -12 -13 -14 36 -18 37 -3 68 -14 99 -33 54 -34 106
-38 127 -10 10 14 10 21 2 24 -6 2 -15 -3 -20 -10 -6 -11 -23 -6 -84 24 -79
39 -129 46 -160 23z"/>
<path d="M5170 4381 c0 -5 14 -12 30 -16 17 -4 30 -13 30 -20 0 -20 22 -23 59
-8 40 17 33 26 -31 42 -57 13 -88 14 -88 2z"/>
<path d="M5170 4074 c0 -9 138 -44 173 -44 37 0 14 19 -35 30 -85 18 -138 23
-138 14z"/>
<path d="M5242 3998 c5 -15 78 -24 78 -10 0 5 -14 12 -31 16 -44 9 -51 8 -47
-6z"/>
<path d="M4100 3683 c0 -5 23 -20 50 -35 103 -57 184 -199 230 -405 12 -54 30
-72 30 -30 0 84 -83 297 -145 373 -53 65 -166 131 -165 97z"/>
<path d="M5715 2831 c-42 -20 -113 -86 -102 -97 3 -3 25 9 49 29 24 19 58 42
76 51 17 9 32 21 32 26 0 14 -9 12 -55 -9z"/>
<path d="M6307 2852 c-59 -59 -66 -72 -44 -72 13 0 127 110 127 123 0 20 -32
1 -83 -51z"/>
<path d="M6515 1690 c-3 -5 0 -13 8 -16 23 -8 92 0 92 11 0 14 -92 19 -100 5z"/>
<path d="M6765 1663 c-16 -2 -131 -19 -255 -38 -124 -19 -337 -50 -475 -70
-271 -39 -285 -42 -285 -56 0 -14 31 -11 286 26 132 20 268 40 304 45 36 5
110 16 165 25 55 8 153 23 218 33 153 24 190 54 42 35z"/>
<path d="M5440 1495 c0 -4 11 -20 25 -37 13 -16 30 -47 36 -68 15 -50 39 -53
39 -5 0 38 20 55 67 55 15 0 34 4 42 9 24 15 -7 24 -64 16 -44 -5 -54 -10 -57
-27 -3 -18 -7 -15 -28 18 -22 34 -60 58 -60 39z"/>
<path d="M5696 1422 c-9 -99 -7 -262 3 -262 16 0 21 43 21 182 0 146 -13 191
-24 80z"/>
<path d="M5498 1985 c-9 -9 -163 -44 -223 -50 -83 -8 -105 -14 -105 -25 0 -14
60 -12 160 5 117 19 190 43 190 60 0 15 -12 20 -22 10z"/>
<path d="M4642 1958 c5 -13 108 -37 161 -38 58 0 20 25 -54 37 -97 15 -112 16
-107 1z"/>
<path d="M4476 1952 c-13 -12 -3 -21 62 -49 121 -55 335 -109 447 -114 86 -4
57 15 -49 32 -136 22 -281 62 -377 103 -43 19 -80 31 -83 28z"/>
<path d="M4516 1801 c-10 -15 117 -258 202 -386 44 -66 113 -158 154 -205 76
-86 231 -230 248 -230 20 0 9 27 -19 48 -168 124 -353 363 -502 647 -39 74
-72 135 -74 135 -2 0 -6 -4 -9 -9z"/>
</g>
</svg>
