<?xml version="1.0" standalone="no"?>
<!DOCTYPE svg PUBLIC "-//W3C//DTD SVG 20010904//EN"
 "http://www.w3.org/TR/2001/REC-SVG-20010904/DTD/svg10.dtd">
<svg version="1.0" xmlns="http://www.w3.org/2000/svg"
 width="1024.000000pt" height="559.000000pt" viewBox="0 0 1024.000000 559.000000"
 preserveAspectRatio="xMidYMid meet">
<metadata>
Created by potrace 1.16, written by Peter Selinger 2001-2019
</metadata>
<g transform="translate(0.000000,559.000000) scale(0.100000,-0.100000)"
fill="#000000" stroke="none">
<path d="M5205 5054 c-16 -9 -59 -19 -95 -22 -114 -9 -171 -46 -215 -139 -15
-32 -40 -72 -56 -90 -36 -42 -44 -71 -34 -136 4 -29 8 -88 8 -132 2 -74 5 -84
35 -125 29 -39 33 -51 30 -95 -3 -43 0 -51 18 -59 11 -5 25 -19 30 -30 5 -11
23 -30 41 -41 31 -19 41 -47 25 -71 -4 -6 -32 -15 -62 -19 -59 -8 -99 -24
-119 -49 -8 -10 -29 -16 -52 -16 -45 0 -87 -14 -114 -40 -11 -10 -38 -23 -60
-29 -66 -18 -112 -56 -145 -121 -17 -33 -30 -65 -30 -72 0 -28 -126 -276 -164
-323 -23 -28 -48 -65 -55 -83 -7 -17 -17 -32 -21 -32 -13 0 -55 61 -89 127
-51 102 -73 171 -75 237 -2 50 -11 81 -48 161 -26 55 -52 119 -58 142 -27 107
-115 59 -94 -51 3 -20 10 -39 15 -42 14 -8 10 -54 -5 -54 -7 0 -27 5 -45 11
-23 8 -31 17 -31 34 0 29 -25 56 -45 49 -8 -4 -15 -10 -15 -15 0 -5 -4 -9 -10
-9 -6 0 -6 9 0 26 15 38 12 69 -8 87 -19 17 -33 13 -50 -18 -10 -18 -11 -17
-12 10 0 58 -55 100 -78 59 -8 -14 -10 -14 -21 0 -18 21 -48 20 -60 -1 -9 -17
14 -93 43 -138 7 -11 16 -34 19 -52 4 -18 17 -49 30 -70 13 -21 31 -60 41 -86
25 -66 53 -96 151 -163 l85 -58 25 -80 c14 -45 34 -126 46 -181 28 -140 37
-172 63 -240 13 -33 31 -85 40 -116 34 -116 104 -174 203 -166 l51 3 -4 -30
c-2 -17 -6 -73 -9 -125 -7 -129 -77 -751 -120 -1065 -46 -336 -46 -335 5 -379
22 -18 58 -39 80 -46 l40 -12 0 -89 0 -89 36 -29 c36 -30 120 -66 183 -78 27
-6 32 -11 27 -28 -11 -47 -18 -241 -8 -231 14 14 47 338 87 835 27 350 54 579
91 775 26 143 75 295 94 295 4 0 33 -9 65 -20 32 -11 66 -20 77 -20 23 0 23 5
-6 -115 -14 -55 -27 -127 -30 -160 l-6 -60 15 68 c23 113 57 242 64 250 4 4
42 2 85 -5 l78 -12 -7 -30 c-16 -77 -35 -268 -39 -394 -5 -135 -5 -136 4 -37
18 192 41 409 46 434 l6 26 191 1 c109 0 216 5 247 12 30 7 67 15 81 18 26 6
28 3 47 -63 12 -37 28 -93 36 -123 8 -30 15 -50 15 -43 2 22 -28 148 -43 185
-9 21 -16 41 -16 46 0 13 52 34 61 25 44 -44 108 -404 154 -868 14 -143 22
-240 61 -707 9 -115 21 -208 26 -208 13 0 8 131 -18 402 -6 60 -5 68 12 75 11
3 39 23 64 43 25 20 56 43 70 50 63 32 128 82 139 106 8 19 10 67 5 168 l-7
142 47 28 c76 45 79 54 62 192 -36 286 -76 743 -76 869 l1 80 41 20 c55 26 74
54 115 171 55 156 63 189 83 364 34 286 34 286 102 354 69 69 122 133 133 161
4 11 9 72 11 135 4 115 4 115 -22 137 l-27 21 20 49 c11 26 23 74 27 106 3 32
15 75 25 95 19 39 46 209 40 252 -4 24 -7 25 -99 30 -78 5 -116 13 -215 49
-66 24 -139 50 -162 58 -39 14 -45 14 -69 -2 -32 -21 -56 -74 -87 -195 -35
-134 -49 -282 -37 -373 18 -126 94 -259 173 -302 l35 -19 0 -80 c0 -61 -7
-106 -30 -180 -31 -105 -86 -236 -98 -236 -4 0 -15 9 -24 19 -10 11 -28 22
-41 25 -14 4 -27 18 -33 35 -6 16 -26 41 -46 56 -26 19 -53 60 -91 134 -30 58
-72 128 -92 156 -48 62 -191 154 -242 155 -24 0 -44 9 -64 28 -23 22 -41 28
-90 32 l-62 6 35 15 c54 25 68 47 97 160 23 89 27 125 28 249 0 136 2 147 24
177 19 25 22 38 17 65 -4 18 -8 63 -9 100 -2 56 -6 71 -28 95 -14 15 -33 41
-43 56 -19 31 -76 60 -110 55 -11 -1 -34 6 -50 17 -40 26 -141 32 -181 9z
m148 -15 c12 -6 30 -19 40 -27 11 -10 32 -15 53 -13 39 3 84 -21 84 -44 0 -9
14 -28 32 -44 27 -24 32 -35 30 -67 -1 -22 -8 -57 -16 -79 l-14 -40 -7 39 c-4
21 -21 54 -37 72 -22 24 -26 34 -15 34 18 0 47 -26 47 -42 0 -6 3 -8 6 -5 4 4
-1 18 -10 32 -20 31 -56 33 -102 4 -19 -11 -34 -16 -34 -11 0 18 44 65 74 79
l31 14 -30 -6 c-35 -8 -62 -29 -81 -67 -18 -35 -28 -35 -61 0 -17 18 -22 20
-15 7 9 -19 7 -20 -38 -20 -48 0 -55 8 -15 18 15 4 13 5 -7 6 -37 1 -64 -27
-72 -78 -3 -23 -15 -50 -26 -61 -25 -25 -45 -27 -34 -2 5 9 9 40 10 67 2 82 3
84 37 105 39 24 68 25 110 4 31 -16 32 -16 14 2 -13 14 -32 19 -73 19 -49 0
-59 -4 -80 -28 -20 -23 -24 -39 -24 -88 0 -51 -4 -64 -27 -86 -15 -16 -21 -29
-15 -31 18 -6 14 -63 -6 -97 -13 -21 -17 -46 -16 -80 3 -42 1 -47 -9 -31 -36
57 -60 76 -92 76 -38 0 -54 -16 -61 -62 -8 -44 26 -117 72 -158 32 -28 34 -33
34 -95 0 -36 -4 -65 -9 -65 -4 0 -20 9 -35 21 -21 17 -26 29 -26 65 0 24 -4
44 -10 44 -5 0 -10 -9 -10 -20 0 -11 -6 -20 -14 -20 -10 0 -12 12 -9 48 4 41
0 54 -29 97 -30 45 -33 56 -31 115 2 36 -2 86 -8 112 -14 60 -5 101 32 142 15
18 37 53 47 77 36 84 124 141 212 137 19 0 55 8 80 20 50 23 120 28 153 11z
m153 -215 c16 -24 54 -127 54 -146 0 -4 -10 -8 -22 -8 -38 0 -68 -12 -68 -25
0 -10 10 -11 42 -4 43 10 63 -1 53 -29 -3 -8 -5 -18 -5 -23 0 -5 -9 -4 -20 3
-15 10 -27 10 -50 1 -27 -10 -30 -9 -31 10 l-2 22 -4 -21 c-2 -12 7 -50 21
-85 33 -79 32 -95 -1 -113 -25 -13 -26 -15 -7 -16 11 0 29 9 39 20 18 20 18
22 -2 78 -12 31 -24 65 -28 75 -5 12 -2 17 8 17 8 0 18 -8 22 -17 6 -17 7 -17
19 -1 39 53 59 -94 31 -232 -28 -144 -45 -194 -73 -219 -73 -66 -316 34 -382
158 -12 23 -19 29 -20 18 -1 -70 147 -184 283 -218 l47 -11 2 -67 c0 -36 3
-51 5 -33 3 18 7 32 11 30 4 -2 19 -10 35 -17 51 -26 23 -87 -55 -121 -47 -20
-63 -22 -158 -17 -58 3 -130 12 -160 21 -30 9 -66 19 -78 21 -13 2 -27 7 -30
11 -4 4 2 4 13 0 12 -4 7 5 -15 23 -19 17 -38 30 -42 31 -5 0 -8 16 -8 35 0
26 6 39 26 51 44 30 66 89 72 194 4 78 8 97 23 108 28 20 23 33 -7 20 -24 -11
-29 -9 -64 29 -72 76 -78 173 -10 173 24 0 35 -8 55 -40 16 -26 33 -40 46 -40
19 0 21 4 15 40 -5 30 -1 52 14 85 11 24 20 58 20 74 0 21 5 31 15 31 32 0 65
32 76 74 6 22 18 47 27 54 20 15 69 16 126 1 36 -9 49 -8 72 5 40 21 51 20 70
-10z m890 -78 c122 -52 230 -79 311 -80 66 -1 73 -3 73 -21 0 -38 -29 -196
-38 -208 -13 -18 -32 -91 -32 -125 0 -17 -9 -57 -21 -88 -18 -48 -24 -55 -43
-50 -11 3 -27 6 -33 6 -8 0 -13 13 -13 29 0 17 -4 32 -8 35 -4 2 -6 -10 -4
-28 5 -44 -20 -51 -90 -25 -96 35 -161 21 -192 -40 -23 -44 -7 -56 65 -53 34
2 75 -2 92 -9 27 -11 28 -14 12 -25 -11 -8 -36 -12 -64 -9 -33 3 -38 2 -16 -3
25 -6 29 -12 27 -34 -2 -17 3 -30 15 -36 17 -10 16 -12 -7 -37 -21 -22 -30
-25 -60 -20 -72 13 -140 83 -187 196 -25 58 -28 76 -28 189 0 130 17 235 57
360 40 125 54 131 184 76z m-792 -51 c-3 -14 -11 -25 -16 -25 -6 0 -8 10 -4
23 3 12 6 31 6 42 1 18 2 18 11 3 5 -10 7 -29 3 -43z m1073 -560 c39 -23 43
-29 42 -63 -1 -20 -4 -50 -8 -66 l-6 -28 -20 22 c-11 12 -20 36 -20 53 0 25
-7 34 -40 52 -61 32 -66 36 -60 46 11 17 68 9 112 -16z m-32 -67 c7 -8 4 -9
-10 -3 -11 4 -32 10 -47 13 -16 2 -28 11 -28 18 0 12 6 12 38 -1 20 -9 42 -21
47 -27z m-3151 -7 c12 -13 16 -32 14 -62 l-4 -44 -22 48 c-33 72 -27 101 12
58z m72 8 c11 -18 5 -144 -10 -185 -13 -38 -13 -38 -26 -15 -12 23 -10 87 7
179 5 33 16 41 29 21z m1390 -12 c-44 -28 -58 -49 -52 -78 5 -25 2 -29 -17
-29 -12 0 -35 14 -51 31 -25 26 -27 32 -15 44 27 26 74 45 114 44 35 0 38 -2
21 -12z m1700 -49 c55 -57 70 -84 56 -102 -5 -6 -12 -24 -16 -40 -4 -17 -48
-70 -108 -132 -56 -57 -96 -104 -91 -104 7 0 8 -13 2 -40 -5 -22 -18 -118 -29
-213 -11 -94 -27 -198 -35 -229 -17 -69 -73 -180 -112 -227 -99 -117 -229 85
-179 279 9 35 39 102 66 149 90 156 150 337 150 451 0 80 6 100 29 100 18 0
45 -36 36 -50 -3 -5 4 -14 15 -20 17 -9 27 -8 45 4 32 21 45 20 45 -3 0 -11 5
-23 12 -27 8 -5 9 -2 5 10 -6 14 -3 17 10 12 13 -5 11 0 -6 18 -28 30 -47 33
-73 9 -23 -20 -31 -13 -23 20 5 17 18 29 37 36 45 16 58 14 100 -15 53 -37 58
-24 6 15 -37 28 -48 32 -83 26 -22 -3 -50 -16 -62 -27 -26 -25 -31 -9 -7 27
15 23 79 55 112 55 9 0 39 -18 67 -40 66 -52 73 -40 10 16 -49 44 -51 45 -100
39 -81 -11 -88 -11 -92 3 -7 17 74 52 122 52 36 0 47 -6 91 -52z m-2765 -49
c14 -41 40 -103 58 -139 24 -50 31 -78 31 -124 0 -98 75 -266 189 -419 87
-119 110 -220 75 -337 -18 -61 -70 -120 -105 -120 -30 0 -108 84 -148 159 -39
73 -55 123 -80 251 -12 58 -33 143 -47 190 -17 53 -22 86 -15 88 5 2 -29 30
-77 63 -142 96 -142 96 -149 160 -7 68 7 112 48 158 40 43 56 29 28 -24 -24
-45 -28 -111 -10 -140 10 -17 12 -14 7 24 -3 26 1 58 9 77 l13 33 53 -20 c28
-11 58 -18 65 -15 19 7 18 58 -2 115 -13 36 -14 52 -5 74 6 16 17 27 23 25 7
-3 24 -38 39 -79z m1679 31 c63 -63 65 -113 7 -176 -18 -19 -59 -46 -92 -60
-55 -23 -57 -25 -20 -19 117 19 194 125 161 222 -7 19 -5 21 15 15 23 -7 90
-43 157 -86 37 -24 122 -145 175 -252 l36 -71 -35 -1 c-32 -1 -234 -91 -206
-92 7 0 51 18 97 40 90 43 129 49 174 26 27 -15 67 -63 58 -72 -2 -2 -30 -11
-62 -19 -42 -11 -99 -43 -206 -115 -165 -110 -229 -136 -313 -127 -28 3 -60 8
-71 12 l-20 7 20 -14 c12 -8 51 -13 100 -13 100 0 130 13 287 117 64 43 137
87 162 98 57 26 137 28 171 6 34 -22 33 -46 -3 -46 -55 0 -119 -31 -201 -98
-161 -131 -221 -171 -288 -192 -76 -23 -107 -24 -184 -6 -217 52 -414 251
-549 554 -59 132 -68 162 -47 162 8 0 35 -34 60 -77 42 -73 154 -233 162 -233
2 0 -31 55 -73 123 -120 188 -123 195 -106 201 8 3 42 -14 77 -40 80 -59 263
-148 347 -170 102 -25 179 -9 255 54 17 13 34 32 39 41 5 9 -9 0 -31 -20 -57
-51 -119 -73 -191 -66 -106 9 -241 68 -405 173 -59 38 -66 46 -57 63 10 19 11
19 77 -2 55 -17 95 -21 208 -21 125 -1 144 1 181 21 51 27 64 43 70 85 7 39
-13 100 -25 79 -7 -11 -12 -10 -30 0 -33 21 -25 29 29 29 45 0 54 -4 90 -40z
m-1914 17 c5 -15 -27 -142 -45 -175 -6 -11 -11 -38 -12 -59 l-1 -38 -14 45
c-18 55 -12 99 22 179 26 61 40 73 50 48z m1167 -30 l27 -23 -29 -21 -28 -22
-48 25 c-27 13 -57 24 -68 24 -19 0 -20 1 -2 20 26 29 110 27 148 -3z m-113
-45 c67 -25 84 -37 77 -55 -5 -13 -12 -14 -39 -6 -18 5 -63 10 -99 10 -76 1
-115 -15 -171 -69 -44 -41 -46 -38 -17 20 26 52 50 72 114 97 60 24 77 24 135
3z m230 -22 c25 -25 25 -41 1 -71 -14 -18 -29 -24 -59 -24 -46 0 -72 18 -72
51 0 56 88 86 130 44z m-208 -61 c69 -15 121 -58 138 -112 20 -68 112 -256
166 -337 99 -150 246 -278 381 -331 85 -33 227 -33 301 0 29 13 55 21 58 18 5
-5 -14 -187 -32 -301 -4 -24 -3 -36 4 -32 15 9 25 -125 12 -160 -24 -61 -68
-90 -155 -100 l-57 -7 49 47 48 47 -63 -44 c-85 -62 -146 -81 -257 -82 -96 0
-103 3 -257 95 -63 37 -42 15 29 -31 l67 -44 -52 -3 c-90 -5 -157 13 -233 64
-39 25 -72 45 -74 43 -2 -3 20 -22 48 -43 l52 -39 -54 6 c-66 8 -138 42 -165
80 -19 26 -21 41 -18 152 3 106 0 137 -21 217 -43 163 -43 171 -6 244 33 65
35 99 3 47 -67 -109 -150 -228 -187 -268 l-43 -48 4 41 c11 117 -80 299 -167
333 -13 5 -21 12 -18 16 10 10 95 -27 129 -55 17 -14 39 -40 49 -57 11 -17 19
-23 19 -14 0 8 -16 34 -35 56 -42 49 -123 87 -166 78 -36 -8 -36 0 0 56 35 54
79 97 151 143 61 40 57 50 -5 11 -22 -13 -44 -25 -48 -25 -18 0 107 222 148
264 79 81 141 100 257 75z m1437 -523 c-6 -13 -21 -28 -34 -34 -30 -14 -73
-104 -80 -167 -5 -48 -5 -47 18 25 21 68 55 136 63 127 2 -1 -4 -25 -12 -52
-22 -73 -15 -196 16 -257 31 -62 69 -97 112 -104 30 -5 41 -1 73 27 25 22 35
27 28 14 -14 -24 -50 -59 -80 -74 -56 -29 -127 3 -174 78 -16 24 -29 38 -29
30 0 -8 11 -31 25 -51 l25 -37 -30 11 c-62 21 -96 110 -88 231 6 89 38 156
102 215 52 48 82 57 65 18z m-101 -23 c-14 -16 -39 -53 -54 -83 -26 -50 -29
-64 -29 -156 l0 -102 -25 18 c-14 10 -52 46 -85 80 l-60 62 35 26 c19 15 55
45 80 68 54 49 141 113 154 114 6 0 -2 -12 -16 -27z m-1810 -30 c50 -35 75
-66 110 -140 23 -50 27 -71 27 -148 -1 -101 -15 -139 -64 -174 -16 -12 -31
-21 -34 -21 -2 0 6 21 19 47 36 71 28 86 -9 18 -44 -79 -87 -109 -146 -101
-64 9 -102 35 -133 91 -15 27 -25 51 -23 53 2 2 25 -19 52 -47 36 -37 57 -51
77 -51 49 0 83 26 113 87 25 52 28 68 28 158 0 84 -4 107 -23 143 -23 43 -17
56 10 25 23 -26 40 -62 54 -113 12 -45 12 -45 13 -11 2 54 -35 118 -90 158
-76 54 -58 77 19 26z m377 -378 c10 -42 13 -91 8 -165 -6 -112 2 -145 46 -187
29 -28 34 -78 12 -122 -32 -62 -59 -158 -85 -301 -39 -213 -52 -332 -106 -985
-23 -273 -29 -325 -40 -325 -18 0 -128 43 -166 65 -61 36 -61 48 -1 87 l52 33
7 874 c3 481 9 892 12 913 9 53 33 95 95 164 l53 59 -6 -125 c-3 -69 -8 -291
-10 -495 l-4 -370 9 290 c23 743 22 726 49 763 l25 34 18 -74 c10 -40 25 -100
32 -133z m1248 128 c38 -38 95 -94 127 -125 32 -32 63 -58 70 -58 16 0 9 -299
-15 -670 -28 -435 -36 -621 -30 -651 7 -29 42 -61 98 -89 16 -8 40 -24 53 -37
21 -19 22 -26 13 -50 -15 -40 -26 -50 -96 -90 -35 -19 -87 -55 -116 -80 l-52
-44 -6 28 c-4 15 -12 93 -19 173 -6 80 -20 224 -31 320 -11 96 -24 216 -29
265 -22 199 -70 427 -104 493 -24 47 -20 87 15 135 l31 42 -7 125 c-6 115 10
380 23 380 3 0 37 -30 75 -67z m302 -216 l40 -15 7 -169 c6 -172 27 -408 54
-638 33 -276 33 -252 5 -279 -15 -14 -74 -49 -133 -79 l-108 -55 5 82 c9 137
34 599 45 831 6 121 8 249 4 284 -8 72 -9 71 81 38z m-1837 -372 c-5 -198 -8
-588 -6 -868 3 -454 2 -507 -12 -501 -8 4 -45 17 -82 30 -83 28 -118 46 -142
73 -21 23 -21 22 44 496 17 125 40 322 85 735 8 74 17 184 21 243 l6 108 47
22 c25 13 47 22 48 22 0 0 -3 -162 -9 -360z m577 35 c44 -7 136 -17 205 -22
69 -5 150 -12 180 -15 34 -3 80 2 120 12 36 9 103 21 150 26 47 5 95 13 108
19 19 8 22 7 22 -10 0 -27 -56 -54 -160 -76 -102 -22 -443 -25 -550 -6 -190
36 -260 60 -260 91 0 17 4 17 53 5 28 -7 88 -18 132 -24z m1275 -956 c3 -52 4
-94 3 -94 -1 0 -32 16 -67 36 -67 37 -87 64 -65 90 17 21 112 75 119 68 3 -3
7 -48 10 -100z m-1882 -471 c31 -19 24 -33 -26 -61 l-42 -23 0 56 c0 54 1 56
23 50 12 -4 32 -14 45 -22z"/>
<path d="M5259 4979 c70 -14 84 -26 119 -109 10 -23 10 -22 5 10 -11 70 -62
111 -135 109 -30 -1 -29 -2 11 -10z"/>
<path d="M5001 4924 c-22 -16 -57 -81 -48 -91 3 -2 9 10 15 26 6 17 23 42 38
56 31 29 29 32 -5 9z"/>
<path d="M5059 4901 c-16 -17 -29 -40 -29 -54 0 -31 -34 -74 -63 -80 -19 -4
-18 -4 5 -6 32 -1 63 34 72 83 4 18 18 46 33 60 14 14 23 26 19 26 -4 0 -21
-13 -37 -29z"/>
<path d="M5022 4740 c-13 -10 -43 -22 -68 -26 -57 -8 -83 -30 -89 -74 -5 -35
-5 -35 5 -5 12 37 47 64 83 65 34 0 83 24 90 45 8 19 7 19 -21 -5z"/>
<path d="M5010 4654 c-25 -13 -38 -23 -30 -24 16 0 80 36 80 45 0 3 -1 4 -2 4
-2 -1 -23 -12 -48 -25z"/>
<path d="M5050 4621 c-19 -19 -26 -29 -15 -24 22 12 61 52 54 56 -2 1 -20 -13
-39 -32z"/>
<path d="M4886 4578 c-9 -12 -15 -38 -15 -58 l2 -35 6 42 c4 23 13 48 20 57 8
9 11 16 8 16 -3 0 -13 -10 -21 -22z"/>
<path d="M4961 4298 c-1 -26 17 -68 30 -68 8 0 8 4 0 14 -7 8 -16 27 -21 43
-4 15 -9 20 -9 11z"/>
<path d="M5251 4660 c-18 -4 -41 -16 -50 -25 -15 -17 -14 -17 9 -10 20 6 73
11 165 15 6 0 6 3 0 9 -15 13 -86 20 -124 11z"/>
<path d="M5264 4590 c-34 -13 -41 -32 -10 -24 16 4 26 2 26 -5 0 -16 30 -13
36 4 4 8 10 12 15 9 5 -3 9 -1 9 4 0 20 -40 27 -76 12z"/>
<path d="M4952 4518 c-7 -7 -12 -21 -12 -32 1 -17 3 -16 13 7 l12 29 20 -22
c15 -16 16 -23 6 -29 -7 -5 -11 -21 -9 -37 2 -21 9 -30 26 -32 22 -3 30 12 12
23 -5 3 -7 18 -4 33 4 19 -1 34 -16 50 -24 25 -31 27 -48 10z m54 -83 c1 -14
-2 -25 -7 -25 -5 0 -9 11 -9 25 0 33 15 33 16 0z"/>
<path d="M5374 4435 c-3 -8 -3 -19 1 -25 8 -13 65 -13 65 0 0 6 -12 9 -27 8
-22 -2 -27 1 -25 15 3 21 -6 23 -14 2z"/>
<path d="M5430 4330 c-89 -12 -120 -58 -54 -80 74 -25 108 -12 120 46 7 37 -3
42 -66 34z m50 -19 c0 -5 -23 -11 -50 -13 -47 -3 -65 4 -37 15 21 9 87 7 87
-2z"/>
<path d="M5425 4200 l-40 -7 42 -2 c23 0 45 4 48 9 3 6 3 9 -2 9 -4 -1 -26 -5
-48 -9z"/>
<path d="M5146 4067 c3 -10 9 -15 12 -12 3 3 0 11 -7 18 -10 9 -11 8 -5 -6z"/>
<path d="M5161 4036 c-1 -13 61 -147 66 -143 2 2 -12 37 -31 78 -19 41 -35 70
-35 65z"/>
<path d="M5352 3985 c-17 -37 -14 -45 4 -12 9 16 14 31 11 33 -2 2 -9 -7 -15
-21z"/>
<path d="M6470 4594 c-19 -7 -60 -13 -90 -13 -37 -1 -66 -8 -89 -22 -35 -21
-37 -38 -3 -20 12 6 57 11 101 11 88 0 131 14 131 42 0 20 -2 21 -50 2z"/>
<path d="M6610 4545 c0 -24 31 -65 49 -65 5 0 23 -12 40 -26 25 -21 31 -22 31
-9 0 13 -103 125 -116 125 -2 0 -4 -11 -4 -25z"/>
<path d="M6320 4492 c-19 -9 -35 -21 -35 -27 0 -16 67 -45 106 -45 49 0 74 20
66 52 -11 41 -77 50 -137 20z"/>
<path d="M6560 4464 c-6 -14 -10 -65 -10 -114 0 -88 -1 -90 -25 -96 -17 -4
-32 -1 -44 10 -10 9 -27 16 -39 16 -13 0 -22 8 -25 23 -4 21 -4 21 -6 1 -2
-32 94 -79 132 -65 26 10 27 13 27 88 0 76 1 77 18 56 35 -45 112 -53 112 -12
0 26 -53 79 -79 79 -11 0 -27 -8 -37 -17 -16 -16 -16 -15 -12 20 5 43 1 47
-12 11z"/>
<path d="M6342 4284 c-34 -27 -82 -101 -82 -125 1 -8 7 1 15 18 8 18 35 55 61
83 52 56 54 62 6 24z"/>
<path d="M6439 3797 c-44 -29 -65 -71 -51 -101 10 -20 11 -20 11 7 1 40 16 63
59 92 20 14 32 25 26 25 -6 0 -26 -10 -45 -23z"/>
<path d="M3800 3691 c80 -26 98 -37 119 -79 11 -20 20 -30 21 -22 0 28 -40 81
-73 94 -17 8 -52 16 -77 20 l-45 5 55 -18z"/>
<path d="M5398 3723 c7 -3 16 -2 19 1 4 3 -2 6 -13 5 -11 0 -14 -3 -6 -6z"/>
<path d="M5090 3612 c44 -59 147 -149 222 -194 83 -51 158 -78 232 -83 l61 -4
-55 9 c-148 24 -303 117 -448 270 l-44 45 32 -43z"/>
<path d="M4693 3692 c14 -40 22 -99 27 -197 4 -85 8 -119 10 -85 7 99 -2 204
-21 267 -11 34 -23 64 -28 67 -4 3 1 -21 12 -52z"/>
<path d="M4623 3485 c8 -20 25 -89 30 -125 3 -20 5 -18 6 8 1 41 -18 120 -32
129 -7 4 -8 0 -4 -12z"/>
<path d="M4776 3348 c-10 -52 -51 -133 -82 -162 -16 -14 -24 -26 -18 -26 18 0
62 53 83 100 20 46 37 120 28 120 -3 0 -8 -15 -11 -32z"/>
<path d="M4980 3077 c0 -27 129 -254 178 -313 56 -67 171 -164 195 -164 6 0
-6 12 -28 26 -106 70 -198 183 -289 354 -31 58 -56 101 -56 97z"/>
<path d="M4685 3003 c13 -52 65 -168 101 -223 43 -67 41 -59 -12 45 -23 44
-52 108 -64 143 -23 64 -38 83 -25 35z"/>
<path d="M5927 2663 c-13 -399 -16 -685 -7 -578 10 122 25 785 18 785 -3 0 -8
-93 -11 -207z"/>
<path d="M5591 2364 c-1 -7 5 -47 13 -90 8 -44 22 -160 31 -259 9 -99 18 -184
20 -190 8 -17 -6 184 -21 315 -12 110 -40 255 -43 224z"/>
<path d="M5134 2225 c0 -55 1 -76 3 -47 2 29 2 74 0 100 -2 26 -3 2 -3 -53z"/>
<path d="M4742 2030 c0 -14 2 -19 5 -12 2 6 2 18 0 25 -3 6 -5 1 -5 -13z"/>
<path d="M4732 1950 c0 -19 2 -27 5 -17 2 9 2 25 0 35 -3 9 -5 1 -5 -18z"/>
<path d="M4720 1884 c0 -16 -5 -72 -10 -124 -5 -52 -16 -248 -25 -435 -8 -187
-20 -416 -26 -509 -5 -93 -7 -171 -4 -174 3 -3 5 6 5 19 0 13 5 67 10 119 4
52 13 208 20 345 6 138 18 368 26 513 9 145 13 266 10 269 -3 4 -6 -7 -6 -23z"/>
<path d="M5021 1774 c0 -11 3 -14 6 -6 3 7 2 16 -1 19 -3 4 -6 -2 -5 -13z"/>
<path d="M5411 1454 c0 -11 3 -14 6 -6 3 7 2 16 -1 19 -3 4 -6 -2 -5 -13z"/>
<path d="M5356 1267 c-80 -273 -167 -474 -287 -666 -33 -52 -58 -96 -56 -98 7
-6 119 170 167 262 77 146 159 372 210 574 35 140 16 100 -34 -72z"/>
<path d="M5730 1183 c0 -60 -9 -211 -20 -337 -11 -126 -18 -232 -15 -234 3 -3
5 -1 5 4 0 5 7 65 15 134 16 135 32 540 22 540 -4 0 -7 -48 -7 -107z"/>
</g>
</svg>
