<?xml version="1.0" standalone="no"?>
<!DOCTYPE svg PUBLIC "-//W3C//DTD SVG 20010904//EN"
 "http://www.w3.org/TR/2001/REC-SVG-20010904/DTD/svg10.dtd">
<svg version="1.0" xmlns="http://www.w3.org/2000/svg"
 width="1024.000000pt" height="559.000000pt" viewBox="0 0 1024.000000 559.000000"
 preserveAspectRatio="xMidYMid meet">
<metadata>
Created by potrace 1.16, written by Peter Selinger 2001-2019
</metadata>
<g transform="translate(0.000000,559.000000) scale(0.100000,-0.100000)"
fill="#000000" stroke="none">
<path d="M5060 5025 c-19 -7 -53 -16 -75 -20 -32 -5 -53 -20 -107 -76 -38 -39
-69 -80 -70 -92 -1 -12 -2 -38 -3 -57 -2 -19 -6 -51 -10 -72 -5 -26 -3 -46 9
-69 9 -17 16 -37 16 -43 0 -6 9 -28 20 -49 11 -20 20 -48 20 -61 0 -30 21 -71
50 -98 12 -11 19 -27 16 -35 -3 -8 -6 -32 -6 -54 0 -32 -4 -41 -22 -48 -29
-11 -253 -109 -293 -128 -76 -35 -120 -98 -173 -248 -22 -61 -60 -152 -86
-202 -25 -51 -46 -101 -46 -111 0 -11 9 -31 20 -45 19 -23 19 -30 8 -101 -9
-57 -9 -91 0 -137 16 -87 36 -105 124 -113 113 -10 118 -12 106 -47 -6 -16 -8
-38 -5 -49 6 -25 -3 -27 -142 -34 -97 -5 -106 -4 -148 19 -59 33 -106 33 -130
-1 l-19 -25 -44 25 c-59 34 -85 33 -123 -6 -37 -37 2 -33 -667 -63 -206 -9
-385 -21 -397 -26 -20 -7 -23 -16 -23 -68 0 -62 7 -76 56 -108 l24 -15 0 -854
0 -854 -25 -10 c-32 -12 -45 -46 -45 -114 l0 -53 58 -30 c31 -17 109 -58 172
-91 63 -32 171 -89 240 -124 69 -36 176 -91 238 -123 l113 -57 81 12 c120 17
128 22 128 71 0 58 -28 150 -55 179 -22 23 -23 34 -25 162 0 75 3 138 7 141
16 10 680 80 697 74 11 -5 16 -19 16 -51 0 -25 6 -51 14 -59 9 -9 14 -32 13
-63 -2 -47 -1 -50 35 -67 l36 -18 -4 -67 c-3 -53 -13 -86 -48 -159 -25 -51
-48 -112 -51 -137 -7 -42 -5 -48 23 -74 69 -65 253 -67 302 -4 23 29 26 80 9
181 -7 42 -9 102 -4 155 l7 86 56 0 c36 0 73 -8 102 -21 68 -32 165 -36 223
-11 27 12 47 28 47 36 0 9 7 16 15 16 18 0 20 -36 4 -77 -6 -15 -13 -63 -15
-105 -4 -72 -3 -78 18 -92 13 -8 52 -20 88 -26 36 -7 97 -22 135 -36 167 -56
254 -65 323 -34 41 19 49 33 42 79 -5 37 -56 82 -134 120 -55 27 -103 60 -144
99 -65 62 -70 75 -48 105 16 21 14 22 270 -78 l118 -46 77 12 c42 6 82 16 89
22 29 23 -3 155 -49 198 l-29 27 0 705 0 705 78 7 c42 3 82 8 89 10 12 4 27
80 21 111 -2 13 -35 34 -95 64 -51 25 -93 50 -93 57 0 38 -26 63 -89 88 -106
42 -295 127 -309 138 -7 6 -12 20 -10 31 2 16 13 22 48 27 25 4 126 19 225 34
99 14 195 33 213 42 38 19 86 93 128 201 23 58 34 74 54 79 72 17 127 76 135
142 1 9 4 23 8 31 3 8 5 29 5 45 -1 17 2 38 6 47 6 12 0 24 -18 41 -26 24 -26
25 -8 47 9 12 33 25 52 29 22 4 39 15 46 30 6 12 21 29 33 38 29 20 24 57 -7
61 -13 2 -32 12 -43 23 -21 21 -44 23 -104 9 -63 -14 -210 -31 -337 -39 l-118
-7 -46 -46 c-38 -39 -44 -49 -35 -65 7 -15 4 -42 -16 -109 -14 -49 -27 -95
-29 -101 -4 -16 -31 -6 -38 13 -3 9 -1 25 5 36 9 16 3 35 -30 105 -26 53 -41
99 -41 123 0 52 -107 267 -160 322 -22 23 -40 45 -40 49 0 4 -17 14 -37 23
-21 10 -65 32 -98 51 -33 18 -73 34 -89 34 -23 1 -26 4 -17 15 25 31 73 202
78 281 3 55 13 96 29 132 34 72 33 155 -1 205 -14 20 -25 43 -25 51 0 18 -70
67 -94 67 -10 0 -33 9 -50 19 -18 11 -51 19 -79 20 -26 0 -51 2 -55 5 -4 2
-23 -2 -42 -9z m163 -31 c9 -3 17 -10 17 -15 0 -5 14 -9 31 -9 35 0 89 -44 89
-73 0 -10 7 -20 15 -23 19 -8 29 -41 26 -83 -2 -18 2 -36 7 -40 6 -4 3 -20 -9
-41 -18 -35 -18 -35 -19 -7 0 15 5 27 10 27 6 0 10 5 10 11 0 5 -5 7 -11 3 -8
-5 -9 5 -4 34 4 24 2 49 -4 59 -8 14 -9 10 -4 -18 3 -22 1 -39 -6 -43 -7 -5
-11 3 -11 21 0 15 -5 35 -10 43 -7 11 -10 7 -10 -17 0 -17 -5 -35 -11 -39 -8
-4 -9 1 -5 17 l7 24 -14 -24 c-14 -24 -14 -24 -22 15 l-7 39 -12 -34 c-13 -39
-56 -64 -56 -32 0 10 -14 30 -31 45 -27 24 -30 25 -24 7 8 -26 -11 -62 -30
-55 -8 3 -14 9 -13 12 1 4 -4 19 -12 34 -15 32 -30 28 -30 -8 0 -31 -28 -32
-39 -1 -8 21 -9 20 -16 -11 -4 -21 -2 -38 5 -47 10 -12 9 -15 -4 -15 -9 0 -21
10 -27 23 -9 21 -9 21 -5 -3 2 -14 8 -35 11 -47 11 -33 -11 -29 -23 5 -6 15
-11 20 -11 12 0 -8 3 -22 8 -30 16 -23 1 -33 -22 -13 -14 12 -18 13 -12 3 5
-8 17 -21 27 -28 21 -15 15 -34 -7 -25 -18 6 -18 3 -5 -31 14 -38 -5 -32 -29
10 -17 29 -26 35 -49 32 -21 -2 -28 -9 -32 -33 -6 -30 -6 -30 -24 18 -17 44
-18 51 -4 86 10 26 12 43 6 49 -20 20 4 68 66 135 53 57 67 67 97 67 19 1 45
7 59 16 24 14 121 13 173 -2z m-22 -217 c-18 -22 15 -31 50 -13 24 12 30 12
39 1 8 -10 18 -11 35 -5 25 10 26 9 39 -51 5 -23 2 -26 -43 -38 -30 -7 -48
-17 -48 -27 0 -10 6 -13 16 -8 9 4 31 9 49 12 25 3 31 1 27 -10 -4 -9 -17 -13
-38 -11 -52 6 -57 -3 -46 -82 11 -79 7 -86 -52 -75 -21 4 -39 4 -39 0 0 -13
91 -23 102 -12 7 7 7 33 0 79 -10 70 -8 88 8 63 8 -12 13 -13 30 -2 29 18 30
17 30 -40 0 -45 -55 -256 -75 -288 -3 -5 -26 -12 -51 -16 -87 -13 -230 83
-264 176 -11 31 -21 44 -32 42 -39 -6 -91 107 -69 154 15 33 31 27 55 -20 14
-28 23 -36 40 -34 17 2 20 9 18 31 -2 15 1 27 7 27 6 0 11 11 11 24 0 13 7 29
15 36 9 7 14 19 11 26 -3 7 4 16 15 19 21 7 25 20 9 30 -18 11 -11 23 10 18
12 -3 22 1 26 11 10 26 27 19 22 -9 -4 -18 -1 -25 11 -25 24 0 61 29 61 48 0
15 1 15 17 0 13 -13 14 -20 4 -31z m-280 -317 c5 0 9 -14 9 -31 0 -26 -2 -29
-14 -19 -8 6 -12 18 -9 26 3 8 -1 14 -11 14 -10 0 -16 8 -16 21 0 19 1 19 16
5 8 -9 20 -16 25 -16z m98 -132 c63 -56 134 -91 189 -92 l44 -1 -5 -46 c-3
-25 -1 -52 4 -60 6 -10 9 -5 9 19 0 17 4 32 8 32 16 0 39 -25 45 -47 6 -27
-13 -45 -78 -74 -65 -29 -146 -23 -235 18 -86 39 -150 80 -150 96 0 7 18 23
39 35 21 12 42 30 46 40 4 9 10 60 13 112 5 87 6 91 14 53 7 -32 21 -52 57
-85z m343 -135 c28 -31 43 -69 63 -153 12 -52 13 -53 14 -17 1 21 -8 63 -19
94 -11 31 -18 59 -15 61 10 10 64 -57 75 -94 24 -76 24 -294 0 -493 -30 -259
-19 -246 21 24 19 125 16 388 -4 459 -9 33 -15 62 -12 64 2 2 17 -9 33 -24 48
-49 57 -138 56 -574 0 -395 9 -422 21 -60 7 203 -5 510 -21 556 -17 49 28 -18
80 -118 72 -139 72 -149 12 -433 -16 -75 -14 -102 3 -39 28 106 51 201 51 217
0 33 15 16 44 -48 l29 -65 -40 -53 c-73 -96 -105 -182 -119 -319 -7 -70 -14
-77 -70 -78 -11 0 -35 -16 -52 -36 -18 -20 -35 -35 -37 -32 -3 3 6 71 20 152
14 81 25 166 24 189 -1 27 -6 8 -14 -53 -29 -204 -106 -534 -165 -705 -84
-244 -187 -419 -340 -578 -185 -194 -359 -284 -406 -212 -13 20 -15 39 -9 106
5 52 10 77 16 68 17 -27 10 18 -16 98 -28 87 -31 143 -10 188 l13 30 1 -35 c1
-19 6 -42 12 -50 7 -11 9 14 8 85 -2 145 -3 139 23 121 12 -9 38 -16 58 -15
l35 1 -45 11 c-52 14 -91 63 -112 140 -13 51 -2 119 27 160 14 21 15 20 15
-13 0 -19 5 -42 10 -50 7 -10 10 8 10 60 l0 76 65 -4 c118 -8 300 72 414 182
58 56 62 58 46 26 -71 -143 -219 -317 -385 -454 -31 -26 -32 -27 -5 -11 145
85 330 301 420 490 16 33 45 84 63 114 31 48 70 128 85 173 6 16 11 15 57 -8
28 -14 54 -24 56 -21 3 3 -15 30 -40 60 -24 30 -41 59 -36 63 12 13 60 217 59
250 -2 27 -2 27 -5 4 -6 -39 -35 -152 -46 -182 l-10 -27 -54 45 c-30 24 -61
44 -69 44 -26 0 -25 18 5 90 45 104 79 251 86 365 8 124 -5 180 -42 189 -32 8
-22 26 15 26 17 0 37 -10 53 -27z m-524 -3 c-20 -32 -1 -50 117 -110 106 -53
112 -55 190 -55 70 0 86 4 129 29 l49 28 -7 -83 c-9 -103 -39 -229 -78 -329
-16 -41 -32 -78 -35 -83 -3 -5 -24 9 -47 30 -57 54 -106 93 -117 93 -5 0 -12
-7 -16 -16 -4 -10 13 -35 53 -75 46 -46 54 -59 38 -59 -11 0 -49 -25 -86 -55
-36 -30 -78 -59 -93 -65 -14 -5 -71 -10 -125 -10 l-98 0 5 43 c2 23 10 65 18
92 8 28 16 70 19 95 l5 45 -14 -53 c-7 -30 -15 -55 -18 -58 -2 -2 -7 42 -10
98 -12 186 -22 162 -18 -43 2 -119 -1 -205 -6 -210 -6 -6 -25 3 -52 25 -23 20
-61 41 -84 47 -23 6 -63 22 -89 35 -29 15 -65 24 -93 24 -25 0 -45 2 -45 4 0
2 24 55 54 117 30 63 67 151 82 197 46 140 85 186 204 237 25 11 74 34 110 52
36 17 66 32 68 32 1 1 -3 -8 -10 -19z m1676 -366 c47 -47 22 -110 -46 -118
-102 -11 -375 -47 -398 -52 -24 -5 -25 -4 -25 48 0 29 -4 61 -9 71 -7 15 -1
17 62 17 69 0 361 36 370 45 10 10 31 5 46 -11z m66 -33 c0 -17 -18 -21 -24
-6 -3 9 0 15 9 15 8 0 15 -4 15 -9z m-563 -23 c35 -44 15 -123 -29 -116 -28 4
-36 28 -9 28 11 0 24 8 30 17 14 25 -5 53 -36 53 -21 0 -24 2 -13 15 15 18 44
20 57 3z m-17 -52 c0 -16 -71 -29 -84 -16 -13 13 -3 21 36 30 37 8 48 5 48
-14z m-940 -36 c0 -5 -4 -10 -10 -10 -5 0 -10 5 -10 10 0 6 5 10 10 10 6 0 10
-4 10 -10z m1370 -10 c0 -19 -40 -50 -64 -50 -13 0 -34 -8 -47 -19 -20 -16
-21 -21 -10 -35 11 -14 11 -16 -2 -16 -36 0 -67 -23 -67 -50 0 -14 -5 -31 -11
-37 -7 -7 -8 -19 -4 -30 4 -10 9 -27 10 -37 1 -11 6 -21 12 -23 6 -2 18 -9 27
-16 16 -12 14 -21 -29 -120 -61 -138 -93 -183 -142 -196 -21 -6 -126 -24 -233
-41 -107 -17 -210 -33 -229 -36 l-34 -6 44 50 c81 90 152 250 220 491 50 181
51 182 82 153 29 -28 49 -27 247 3 174 26 230 30 230 15z m-1291 -63 c56 -52
63 -64 29 -46 -28 14 -98 80 -98 92 0 15 16 4 69 -46z m1306 -27 c0 -23 -3
-24 -55 -21 -60 3 -85 16 -60 31 11 7 16 5 18 -5 2 -9 7 -13 12 -10 5 3 6 13
3 21 -5 13 2 15 38 12 39 -3 44 -6 44 -28z m-2087 -42 c-3 -7 -8 -13 -13 -13
-5 0 -10 6 -12 13 -3 6 3 12 12 12 9 0 15 -6 13 -12z m94 -9 c23 -12 64 -28
92 -36 28 -8 60 -21 71 -29 18 -13 15 -14 -32 -14 -44 0 -131 -25 -122 -35 2
-2 25 2 51 7 38 9 73 8 160 -5 86 -12 132 -14 193 -7 44 5 83 9 87 9 4 1 40
29 80 62 l73 61 69 -5 c37 -2 71 -8 75 -13 3 -5 13 -10 21 -12 23 -5 60 -44
60 -63 0 -15 -7 -14 -57 11 -56 27 -138 50 -118 32 6 -5 31 -16 57 -26 38 -14
48 -23 53 -47 7 -33 -1 -51 -14 -31 -8 13 -111 56 -111 47 0 -3 20 -14 45 -25
47 -20 65 -44 48 -61 -7 -7 -23 -5 -48 5 -43 18 -70 21 -40 4 60 -33 66 -38
55 -58 -7 -13 -21 -20 -38 -19 -23 0 -24 2 -8 8 19 7 18 8 -4 14 -14 4 -38 -2
-63 -14 -26 -14 -64 -22 -111 -24 -50 -2 -105 -14 -186 -41 -108 -36 -122 -39
-235 -38 -137 0 -170 6 -185 34 -23 44 -28 114 -15 205 21 139 23 142 97 104z
m1980 -44 c-4 -77 -41 -140 -77 -130 -5 2 -22 6 -37 9 -16 4 -28 13 -28 21 0
8 -4 15 -10 15 -5 0 -10 -5 -10 -11 0 -5 -4 -7 -10 -4 -5 3 -10 11 -10 16 0 7
27 8 73 4 52 -5 68 -4 57 4 -8 6 -29 11 -47 11 -47 0 -62 8 -56 31 5 18 13 20
69 17 35 -2 64 0 64 3 0 8 -53 19 -92 19 -17 0 -27 4 -23 10 3 6 1 10 -4 10
-6 0 -11 -4 -11 -10 0 -5 -4 -10 -10 -10 -5 0 -10 6 -10 14 0 18 68 35 130 33
l45 -2 -3 -50z m-632 -27 c0 -5 -14 -21 -30 -35 -17 -14 -35 -35 -41 -47 -7
-14 -1 -10 18 10 33 38 83 71 83 56 0 -28 -84 -242 -95 -242 -21 0 -65 40 -65
60 0 36 34 126 68 178 28 42 37 50 48 41 8 -6 14 -16 14 -21z m470 5 c-1 -18
-18 -35 -24 -24 -4 6 -4 16 -1 21 7 12 25 13 25 3z m-915 -23 c3 -5 1 -10 -4
-10 -6 0 -11 5 -11 10 0 6 2 10 4 10 3 0 8 -4 11 -10z m-37 -24 c31 -17 97
-84 89 -92 -5 -5 -127 92 -127 101 0 8 10 6 38 -9z m-28 -147 c-111 -221 -257
-355 -462 -423 -119 -40 -193 -31 -232 28 -19 29 -20 45 -6 81 l10 27 20 -24
c30 -36 23 -8 -10 42 -49 74 -36 160 24 160 19 0 29 -7 36 -26 6 -14 10 -27
10 -30 0 -9 -20 -3 -34 12 -15 14 -16 14 -16 -1 0 -22 48 -38 97 -30 57 8 170
66 226 115 26 23 55 40 69 40 13 0 40 8 59 18 26 13 42 16 57 9 31 -14 65 -1
85 32 10 17 30 44 44 61 26 31 26 31 45 12 19 -19 19 -20 -22 -103z m1050 71
c-19 -13 -30 -13 -30 0 0 6 10 10 23 10 18 0 19 -2 7 -10z m-1405 -126 c-51
-44 -177 -107 -207 -102 -18 2 -54 46 -44 55 7 7 254 82 271 82 16 0 12 -7
-20 -35z m793 -39 c10 -8 -26 -57 -45 -61 -33 -9 -36 -2 -29 50 l7 46 32 -16
c18 -9 33 -18 35 -19z m-55 -116 c-10 -17 -26 -37 -35 -46 -17 -15 -18 -14
-18 8 0 13 -4 31 -9 39 -15 22 -4 30 40 30 l40 0 -18 -31z m-1350 -55 c56 -30
125 -66 152 -80 l51 -27 -28 -28 c-15 -15 -28 -38 -28 -51 -1 -21 -2 -20 -14
7 -11 25 -40 44 -152 103 -76 40 -145 76 -152 80 -29 19 22 67 56 54 8 -3 59
-29 115 -58z m1265 54 c7 -7 12 -26 12 -44 0 -37 -22 -60 -45 -47 -14 8 -12
11 10 21 14 6 25 16 25 21 0 25 -14 41 -37 41 -13 0 -21 4 -18 10 8 14 38 13
53 -2z m-1392 -95 l184 -97 -25 -26 c-14 -15 -25 -38 -25 -54 0 -15 -4 -26 -8
-24 -4 2 -60 32 -123 67 -62 36 -143 81 -179 101 -51 28 -66 41 -68 62 -3 27
27 68 49 68 6 0 93 -44 195 -97z m1374 51 c0 -10 -12 -14 -41 -14 -48 0 -50
22 -3 31 34 6 44 3 44 -17z m-996 -2 c3 -6 -12 -87 -20 -100 -1 -2 -45 19 -99
45 -94 47 -96 48 -63 54 49 9 176 10 182 1z m923 -32 c7 0 22 -9 33 -20 11
-11 33 -20 50 -20 29 0 30 -1 30 -50 0 -56 -32 -347 -55 -501 -63 -419 -190
-721 -437 -1035 -175 -224 -354 -356 -488 -358 -52 -1 -55 1 -58 24 -1 14 -7
42 -13 63 -11 40 -4 97 11 97 5 0 10 -12 12 -28 3 -25 6 -27 44 -26 200 3 488
426 677 994 24 74 47 151 51 170 4 19 -17 -35 -47 -120 -136 -391 -243 -609
-408 -826 -72 -96 -144 -159 -219 -193 -66 -30 -90 -28 -90 9 0 16 -7 78 -16
137 -14 90 -14 121 -4 188 6 44 18 91 26 105 14 24 15 24 12 -17 -3 -38 -1
-43 17 -43 47 0 158 113 201 205 8 17 9 22 2 11 -76 -112 -186 -222 -204 -203
-3 3 -3 58 1 121 l7 116 27 0 c36 0 138 50 208 101 117 87 256 245 339 387 20
34 38 61 40 59 5 -4 -39 -159 -74 -257 -35 -103 -101 -257 -154 -365 -22 -44
-36 -75 -30 -70 15 15 105 198 145 295 52 125 83 222 112 343 15 60 36 130 47
155 61 140 126 352 158 516 9 42 15 55 23 47 6 -6 17 -11 24 -11z m-1567 -5
c0 -9 16 -25 37 -37 20 -12 32 -23 27 -24 -5 -1 -22 -5 -38 -9 l-29 -6 24 -25
c13 -14 38 -34 56 -45 18 -12 33 -26 33 -33 0 -25 41 -50 84 -52 23 -1 62 -12
87 -24 42 -22 48 -23 134 -12 71 9 93 16 105 32 15 20 17 20 53 5 21 -9 43
-13 49 -9 8 5 9 0 4 -17 -30 -98 -30 -97 -2 -181 15 -44 25 -82 23 -85 -3 -3
-32 -7 -64 -9 -94 -7 -476 -33 -638 -44 -82 -6 -172 -12 -200 -15 l-50 -4
-295 230 c-162 127 -323 252 -358 277 -63 46 -63 47 -35 53 15 4 160 13 321
19 160 7 343 15 405 20 203 13 267 12 267 -5z m-680 -326 l360 -280 0 -51 0
-50 -42 34 c-24 19 -133 105 -243 190 -110 86 -254 198 -320 250 l-120 94 -3
47 c-2 26 -1 47 2 47 3 0 167 -126 366 -281z m828 227 c26 -13 99 -54 162 -90
l115 -66 -58 0 c-62 0 -110 19 -138 54 -22 28 -145 90 -160 80 -7 -4 -9 -3 -5
4 3 6 -4 14 -16 18 l-23 8 25 7 c40 11 48 10 98 -15z m487 -6 c3 -5 -2 -10
-13 -10 -31 0 -56 -35 -48 -70 3 -19 2 -29 -4 -25 -6 3 -10 24 -10 45 0 29 6
43 22 54 26 18 44 20 53 6z m1264 -77 c85 -37 149 -69 142 -71 -15 -5 -41 -55
-42 -84 -1 -16 -4 -12 -11 15 -12 44 -35 61 -140 106 -95 41 -118 57 -118 82
0 10 3 19 8 19 4 0 76 -30 161 -67z m-1713 -10 c-7 -7 -72 26 -91 47 -13 14
-1 11 39 -11 32 -17 55 -33 52 -36z m316 50 c41 -37 3 -117 -44 -92 -25 14
-21 62 6 67 19 4 39 -16 30 -30 -9 -15 -26 -8 -20 8 3 8 2 12 -4 9 -13 -8 -13
-32 0 -40 13 -8 40 12 40 29 0 7 -6 21 -14 31 -12 17 -18 18 -40 7 -20 -9 -26
-19 -26 -42 0 -18 -4 -29 -10 -25 -18 11 -11 45 15 70 28 29 42 31 67 8z m158
-2 c7 -15 6 -23 -6 -35 -20 -20 -33 -20 -41 -1 -8 23 4 30 23 14 15 -12 17
-12 12 1 -2 8 -13 15 -24 15 -14 0 -19 -7 -19 -25 0 -21 5 -25 27 -25 21 1 24
-2 16 -12 -16 -20 -36 -15 -54 12 -14 21 -15 31 -6 50 14 31 57 34 72 6z
m1079 -311 c11 -118 27 -305 36 -415 9 -110 21 -237 26 -282 l11 -82 -33 -50
c-19 -28 -37 -51 -40 -51 -4 0 -10 102 -13 228 -4 125 -11 319 -17 432 -20
392 -21 429 -13 487 l8 58 7 -55 c5 -30 17 -152 28 -270z m141 175 c-11 -11
-23 -35 -26 -53 -4 -18 -8 -32 -11 -32 -9 0 -82 40 -86 47 -3 5 -8 36 -12 70
l-7 62 81 -36 81 -36 -20 -22z m-1683 69 c-3 -3 -12 -4 -19 -1 -8 3 -5 6 6 6
11 1 17 -2 13 -5z m-1111 -60 l44 -36 0 -834 0 -834 -50 25 -50 25 0 845 c0
465 3 845 6 845 3 0 26 -16 50 -36z m2998 10 c22 -8 20 -30 -5 -55 l-22 -22
28 7 c25 6 27 5 16 -8 -17 -20 -47 -21 -54 -2 -6 16 11 41 33 49 10 3 7 6 -8
6 -29 1 -51 -41 -33 -63 7 -8 22 -17 34 -19 19 -4 19 -4 -3 -6 -15 0 -31 4
-38 11 -19 19 -14 65 10 88 25 23 22 22 42 14z m-140 -20 c25 -10 19 -22 -8
-17 -18 4 -29 -2 -40 -20 -19 -28 -12 -55 18 -67 21 -9 21 -9 1 -9 -46 -2 -62
62 -25 99 21 21 29 23 54 14z m4 -36 c18 -18 15 -36 -9 -48 -15 -9 -24 -8 -35
1 -18 15 -18 24 2 43 19 19 26 20 42 4z m-2505 -233 l142 -111 3 -72 c2 -40 1
-72 -2 -72 -3 0 -105 79 -226 176 l-220 176 0 69 0 70 81 -63 c44 -35 144
-113 222 -173z m2471 135 c8 0 27 11 43 24 26 22 31 23 53 10 38 -20 78 -17
104 9 l24 24 68 -32 69 -32 -80 -6 c-44 -4 -156 -12 -249 -18 -188 -13 -186
-14 -186 54 l0 37 70 -35 c38 -19 76 -35 84 -35z m-209 -665 c14 -492 27 -772
40 -870 7 -48 -8 -72 -52 -84 l-31 -9 -6 91 c-3 51 -10 182 -14 292 l-9 200
-1 -156 c-1 -86 3 -214 9 -285 14 -173 10 -188 -48 -210 -40 -15 -55 -16 -123
-6 -88 12 -116 8 -123 -19 -11 -40 -135 -54 -217 -24 -81 30 -109 33 -188 23
-89 -11 -132 -6 -219 24 l-63 22 0 41 0 42 56 6 c64 7 159 48 226 100 l47 36
-4 -87 -4 -87 11 91 10 91 60 59 59 59 -5 -135 c-3 -95 -2 -116 4 -70 4 36 8
99 9 140 l1 75 68 83 67 84 6 -109 5 -108 2 119 c2 115 3 121 33 168 17 26 33
48 35 48 2 0 4 -133 4 -296 -1 -163 2 -299 5 -302 3 -3 5 135 5 306 l0 312 52
97 c29 54 74 150 100 213 l47 115 3 -285 3 -285 3 302 c2 281 4 308 27 405 24
103 56 280 71 393 l8 60 8 -70 c4 -38 14 -308 23 -600z m585 605 c0 -24 -5
-42 -12 -45 -7 -2 -94 -9 -193 -15 -99 -6 -210 -13 -247 -17 l-68 -6 0 47 0
46 38 1 c20 0 109 6 197 13 88 8 188 14 223 15 l62 1 0 -40z m-2700 -942 l0
-578 -87 43 c-49 24 -148 72 -220 107 l-133 63 0 648 0 648 220 -176 220 -177
0 -578z m1055 830 c-4 -24 -9 -46 -12 -50 -2 -5 -29 -8 -59 -8 -31 0 -108 -4
-172 -10 -189 -16 -647 -50 -676 -50 -26 0 -27 2 -24 48 l3 47 200 13 c110 7
308 21 440 31 132 10 255 19 273 20 l34 1 -7 -42z m1465 -687 l0 -718 -46 -7
c-26 -3 -53 -6 -60 -6 -12 0 -14 119 -14 719 l0 720 43 4 c23 2 50 4 60 5 16
2 17 -38 17 -717z m-140 645 l0 -63 -87 -6 c-48 -4 -89 -4 -92 -1 -3 2 -7 31
-9 64 l-4 59 73 4 c41 1 84 4 97 5 21 2 22 -2 22 -62z m-1355 -53 c-3 -10 -9
-39 -12 -66 -7 -57 9 -52 -218 -67 -264 -18 -417 -30 -457 -36 l-38 -6 0 71
c0 71 0 71 28 71 27 0 167 10 482 35 236 18 223 18 215 -2z m-969 -28 c18 -14
42 -25 53 -25 l21 0 0 -760 c0 -470 -4 -760 -10 -760 -5 0 -30 10 -55 22 l-45
22 0 656 c0 361 -3 705 -7 763 -3 59 -2 107 2 107 4 0 23 -11 41 -25z m2324
-650 c0 -355 -1 -645 -2 -645 -8 1 -190 69 -194 73 -2 2 -7 40 -11 84 l-6 81
32 7 c31 7 31 7 31 74 l0 67 -34 12 c-39 14 -46 38 -46 163 0 65 3 79 21 95
12 10 33 39 47 63 l26 44 -18 191 c-9 105 -19 221 -22 258 l-6 67 59 4 c32 2
73 4 91 5 l32 2 0 -645z m-2100 -125 l0 -760 -22 -4 c-13 -3 -42 -7 -65 -10
l-43 -6 -2 762 c-2 500 0 766 7 770 6 4 36 8 68 8 l57 0 0 -760z m754 619 c14
-35 16 -62 10 -161 -6 -112 -6 -121 15 -148 30 -41 27 -99 -10 -211 -28 -84
-30 -103 -27 -195 l3 -102 -35 -6 c-27 -4 -541 -58 -660 -69 l-25 -2 -3 434
c-1 239 1 438 6 443 4 4 97 14 207 23 110 8 245 19 300 24 55 4 123 9 151 10
52 1 52 1 68 -40z m1151 -759 c-3 -5 -10 -10 -16 -10 -5 0 -9 5 -9 10 0 6 7
10 16 10 8 0 12 -4 9 -10z m35 -65 c0 -30 -5 -45 -16 -49 -37 -14 -44 -7 -44
43 0 44 3 50 23 53 33 6 37 1 37 -47z m-1190 -25 c0 -5 -2 -10 -4 -10 -2 0
-153 -16 -337 -35 -354 -37 -399 -40 -383 -27 5 5 92 17 194 27 102 9 257 25
345 35 88 9 166 18 173 19 6 0 12 -3 12 -9z m5 -47 c-5 -10 -13 -32 -19 -50
-10 -30 -12 -31 -101 -42 -49 -7 -128 -16 -175 -21 -47 -5 -150 -16 -230 -25
-224 -26 -205 -29 -205 30 0 48 1 49 35 56 19 4 116 15 215 25 99 9 227 22
285 29 58 7 127 13 154 14 42 1 47 -1 41 -16z m-1250 -150 l215 -107 0 -88 c0
-48 -3 -88 -6 -88 -4 0 -105 48 -225 107 l-219 106 0 89 c0 49 4 88 10 88 5 0
106 -48 225 -107z m-205 -105 c85 -41 245 -119 355 -173 l200 -97 78 12 c69
10 81 9 96 -4 23 -21 41 -82 41 -139 l0 -45 -77 -15 c-43 -7 -81 -12 -85 -10
-5 2 -8 22 -8 44 0 22 -7 56 -15 76 -8 20 -14 38 -12 39 2 2 36 8 77 14 41 6
76 13 79 15 12 13 -12 13 -89 1 l-83 -13 -368 180 c-202 100 -365 185 -363
189 3 5 9 8 12 6 4 -2 77 -38 162 -80z m2807 -20 c40 -33 76 -170 41 -155 -7
3 -86 34 -176 69 -138 53 -159 64 -136 70 39 10 64 37 64 69 l0 28 96 -34 c53
-19 103 -40 111 -47z m-2642 -103 c196 -96 360 -175 366 -175 17 0 50 -92 47
-131 l-3 -38 -390 203 c-325 169 -391 207 -393 226 -4 24 6 90 13 90 3 0 165
-79 360 -175z m2810 127 c33 -24 60 -151 36 -166 -5 -4 -36 -9 -69 -12 l-59
-7 -5 46 c-3 25 -15 64 -26 86 l-21 40 47 6 c26 3 54 8 62 9 8 2 17 4 20 5 3
0 10 -3 15 -7z m-576 -144 c2 -6 17 -25 33 -44 l30 -34 -26 -21 c-28 -22 -66
-88 -66 -114 0 -17 -9 -19 -28 -6 -23 14 -92 160 -92 194 0 19 2 36 5 39 9 9
140 -4 144 -14z m51 7 c0 -19 87 -103 152 -147 47 -32 59 -48 37 -48 -38 0
-237 179 -224 200 10 16 35 12 35 -5z m-844 -10 c19 -14 19 -14 -2 -15 -12 0
-27 7 -34 15 -17 20 9 21 36 0z m59 -102 c-9 -144 -13 -165 -33 -161 -19 4
-19 4 -7 161 7 86 10 97 27 97 17 0 18 -7 13 -97z m65 87 c-20 -13 -50 -13
-50 0 0 6 15 10 33 10 24 0 28 -3 17 -10z m-130 -20 c24 -13 13 -50 -18 -61
-20 -8 -22 -5 -22 31 0 41 8 47 40 30z m140 -27 c0 -16 -4 -34 -9 -41 -12 -20
-51 6 -51 35 0 20 5 23 53 32 4 0 7 -11 7 -26z m541 -86 c16 -34 27 -63 25
-65 -2 -2 -20 4 -40 12 -35 15 -36 16 -36 71 0 69 11 65 51 -18z m211 48 c3
-3 -10 -21 -28 -39 -19 -19 -37 -48 -40 -65 -8 -37 -28 -36 -32 0 -6 48 74
130 100 104z m-882 -18 c0 -8 -16 -18 -35 -24 -42 -13 -46 0 -7 21 34 19 42
19 42 3z m101 -7 c10 -6 19 -17 19 -25 0 -12 -5 -12 -25 -3 -14 6 -25 17 -25
25 0 16 5 16 31 3z m825 -14 c19 -14 19 -15 -3 -38 -13 -13 -26 -39 -29 -57
-5 -24 -11 -31 -23 -25 -9 3 -24 9 -33 11 -30 9 -19 53 25 101 24 26 36 27 63
8z m-932 -28 c-3 -13 -7 -23 -8 -24 -14 -7 -81 -22 -84 -19 -9 8 23 38 53 51
42 18 47 17 39 -8z m128 -22 c18 -27 8 -35 -24 -21 -18 7 -33 18 -32 24 3 30
5 31 27 20 12 -7 25 -17 29 -23z m857 15 c12 -8 9 -15 -12 -41 -15 -17 -27
-40 -27 -51 0 -21 -8 -23 -29 -10 -11 7 -11 15 -2 42 11 32 38 69 50 69 3 0
12 -4 20 -9z m107 -16 c4 -8 10 -15 16 -15 5 0 6 4 3 10 -3 6 1 7 10 3 11 -4
13 -8 6 -13 -7 -4 -1 -11 15 -19 15 -6 24 -14 21 -18 -4 -3 -12 -2 -19 4 -18
13 -68 34 -68 28 0 -3 17 -13 37 -22 35 -17 58 -53 34 -53 -6 0 -11 7 -11 15
0 9 -8 18 -17 21 -10 3 -35 13 -56 21 -51 22 -57 10 -7 -15 26 -12 36 -22 28
-26 -7 -3 0 -4 15 -1 24 5 28 3 25 -12 -3 -15 -13 -18 -59 -17 -87 2 -111 10
-104 37 10 31 36 57 65 62 13 2 28 9 34 15 14 14 26 12 32 -5z m-316 -58 c36
-8 97 -27 135 -41 39 -14 100 -28 136 -32 60 -6 69 -4 108 20 38 24 41 25 31
7 -6 -11 -20 -26 -33 -33 -36 -20 -144 -12 -237 18 -47 14 -128 36 -180 48
-98 23 -120 31 -120 46 0 4 21 2 48 -5 26 -8 76 -20 112 -28z m-780 18 c0 -10
-10 -15 -29 -15 -16 0 -42 -5 -57 -10 -40 -15 -41 -4 -3 19 40 25 89 28 89 6z
m124 -6 c38 -30 32 -40 -14 -22 -22 9 -40 22 -40 30 0 19 23 16 54 -8z m-106
-41 c10 -10 17 -10 33 0 24 15 72 8 89 -14 10 -11 9 -22 -3 -51 -16 -41 -47
-64 -78 -56 -23 6 -24 24 -3 64 8 17 13 33 10 37 -10 9 -34 -30 -41 -65 -6
-36 -15 -45 -33 -34 -8 5 -9 17 -1 45 15 54 4 55 -16 2 -18 -46 -28 -55 -40
-36 -3 6 0 10 7 11 9 0 10 2 1 5 -9 4 -9 13 -2 30 13 36 11 41 -6 18 -8 -10
-15 -27 -15 -36 0 -10 -5 -18 -11 -18 -8 0 -10 14 -6 40 6 46 1 51 -14 13 -6
-16 -13 -23 -19 -17 -14 14 -1 51 23 62 31 15 110 15 125 0z m-127 -110 c24
-18 46 -23 126 -26 97 -5 97 -5 120 24 13 16 23 23 23 16 0 -27 -48 -62 -87
-63 -117 -4 -202 18 -216 56 -8 20 -2 19 34 -7z"/>
<path d="M5184 4961 c21 -23 26 -26 26 -11 0 5 -10 15 -22 21 -23 12 -23 12
-4 -10z"/>
<path d="M5129 4944 c16 -12 22 -23 18 -40 -2 -13 0 -21 4 -18 23 14 -7 74
-37 74 -4 0 2 -7 15 -16z"/>
<path d="M5169 4943 c6 -12 8 -29 4 -39 -4 -12 -3 -15 5 -10 16 10 15 28 -4
52 -15 18 -15 18 -5 -3z"/>
<path d="M5280 4937 c13 -7 30 -24 37 -37 9 -18 13 -20 13 -7 0 22 -35 57 -57
57 -13 0 -11 -4 7 -13z"/>
<path d="M5008 4928 c16 -16 15 -49 -2 -70 -18 -24 -24 -22 -19 5 3 15 -3 29
-19 42 l-23 20 18 -21 c9 -11 16 -32 15 -45 -4 -33 22 -31 41 2 16 28 9 79
-11 79 -9 0 -9 -3 0 -12z"/>
<path d="M5048 4907 c-3 -19 -2 -25 4 -19 6 6 8 18 6 28 -3 14 -5 12 -10 -9z"/>
<path d="M5287 4900 c3 -11 9 -22 13 -25 5 -3 6 4 3 15 -3 11 -9 22 -13 25 -5
3 -6 -4 -3 -15z"/>
<path d="M4915 4850 c-8 -24 11 -60 30 -60 11 0 10 5 -6 21 -13 13 -18 27 -14
40 4 10 4 19 1 19 -2 0 -7 -9 -11 -20z"/>
<path d="M4860 4839 c-6 -11 -10 -27 -8 -35 2 -8 8 1 14 20 12 40 10 46 -6 15z"/>
<path d="M5230 4841 c0 -5 5 -13 10 -16 6 -3 10 -2 10 4 0 5 -4 13 -10 16 -5
3 -10 2 -10 -4z"/>
<path d="M5061 4824 c0 -11 3 -14 6 -6 3 7 2 16 -1 19 -3 4 -6 -2 -5 -13z"/>
<path d="M5141 4814 c0 -11 3 -14 6 -6 3 7 2 16 -1 19 -3 4 -6 -2 -5 -13z"/>
<path d="M4901 4734 c0 -11 3 -14 6 -6 3 7 2 16 -1 19 -3 4 -6 -2 -5 -13z"/>
<path d="M4830 4701 c0 -17 4 -32 8 -35 4 -2 6 11 4 30 -5 42 -12 45 -12 5z"/>
<path d="M4871 4718 c-1 -17 14 -31 36 -34 6 -1 9 5 6 13 -5 12 -7 12 -14 2
-6 -10 -11 -7 -18 11 -6 17 -10 19 -10 8z"/>
<path d="M5081 4664 c-43 -18 -37 -25 12 -14 23 5 52 4 73 -2 20 -5 43 -6 52
-2 12 4 2 11 -33 20 -61 17 -62 17 -104 -2z"/>
<path d="M4876 4614 c-4 -10 0 -14 12 -12 13 2 16 -3 14 -24 -3 -28 12 -39 21
-15 11 31 -35 82 -47 51z"/>
<path d="M5096 4621 c-4 -5 3 -7 14 -4 14 4 20 0 20 -11 0 -19 1 -19 34 -3 14
8 23 17 19 20 -10 10 -81 8 -87 -2z"/>
<path d="M4900 4528 c0 -4 7 -8 15 -8 8 0 15 4 15 8 0 5 -7 9 -15 9 -8 0 -15
-4 -15 -9z"/>
<path d="M5010 4511 c5 -11 15 -23 21 -27 6 -3 3 5 -6 20 -20 30 -30 35 -15 7z"/>
<path d="M5150 4388 c0 -8 131 0 140 8 3 3 -28 4 -67 2 -40 -2 -73 -6 -73 -10z"/>
<path d="M5218 4349 c15 -6 30 -5 40 1 13 7 8 9 -23 9 -35 0 -37 -1 -17 -10z"/>
<path d="M5040 4225 c0 -5 5 -17 10 -25 5 -8 10 -10 10 -5 0 6 -5 17 -10 25
-5 8 -10 11 -10 5z"/>
<path d="M5196 4173 c-6 -14 -5 -15 5 -6 7 7 10 15 7 18 -3 3 -9 -2 -12 -12z"/>
<path d="M5096 4107 c3 -10 9 -15 12 -12 3 3 0 11 -7 18 -10 9 -11 8 -5 -6z"/>
<path d="M5378 3930 c-4 -63 -17 -159 -28 -214 -12 -54 -19 -100 -16 -103 5
-6 32 109 46 202 6 39 10 107 8 150 -3 80 -3 80 -10 -35z"/>
<path d="M5637 3673 c-4 -82 -9 -177 -11 -213 -5 -60 -4 -61 4 -20 10 50 26
380 18 380 -3 0 -8 -66 -11 -147z"/>
<path d="M5523 3475 c0 -33 2 -45 4 -27 2 18 2 45 0 60 -2 15 -4 0 -4 -33z"/>
<path d="M5451 3374 c0 -11 3 -14 6 -6 3 7 2 16 -1 19 -3 4 -6 -2 -5 -13z"/>
<path d="M5612 3370 c0 -14 2 -19 5 -12 2 6 2 18 0 25 -3 6 -5 1 -5 -13z"/>
<path d="M5421 3205 c-1 -11 -21 -90 -46 -175 -47 -162 -54 -219 -11 -82 39
123 67 243 63 261 -4 12 -5 11 -6 -4z"/>
<path d="M5256 2913 c-30 -75 -140 -289 -183 -356 -117 -181 -233 -307 -333
-361 -41 -22 -60 -27 -92 -23 -31 4 -38 3 -29 -6 21 -21 86 -11 142 21 128 73
289 279 419 533 61 120 114 248 107 256 -3 2 -17 -27 -31 -64z"/>
<path d="M5004 2878 c-44 -49 -212 -181 -268 -208 -63 -32 -114 -38 -135 -17
-10 10 -11 9 -5 -6 26 -69 213 23 369 182 38 39 67 71 64 71 -3 0 -14 -10 -25
-22z"/>
<path d="M5132 2465 c-68 -138 -168 -285 -276 -406 -23 -25 -8 -11 32 30 41
42 98 112 127 156 58 88 160 274 153 280 -2 2 -18 -25 -36 -60z"/>
<path d="M4779 1993 c-13 -16 -12 -17 4 -4 9 7 17 15 17 17 0 8 -8 3 -21 -13z"/>
<path d="M4847 4058 c5 -7 32 -42 58 -78 62 -81 138 -163 190 -203 22 -17 -5
16 -61 74 -55 57 -120 130 -143 162 -23 31 -44 57 -48 57 -3 0 -1 -6 4 -12z"/>
<path d="M4692 3993 c12 -27 28 -70 35 -98 13 -50 13 -50 8 -8 -5 41 -48 153
-59 153 -3 0 5 -21 16 -47z"/>
<path d="M4945 4032 c19 -19 154 -82 187 -87 26 -4 22 -1 -17 13 -27 11 -79
34 -115 52 -36 17 -60 27 -55 22z"/>
<path d="M5261 3945 c-18 -20 -50 -44 -70 -55 -20 -10 -31 -19 -26 -19 21 -1
89 45 113 77 32 42 25 41 -17 -3z"/>
<path d="M4812 3875 c0 -16 2 -22 5 -12 2 9 2 23 0 30 -3 6 -5 -1 -5 -18z"/>
<path d="M4592 3845 c0 -11 3 -29 8 -40 11 -25 11 1 0 35 -6 20 -8 21 -8 5z"/>
<path d="M4825 3798 c24 -146 67 -334 81 -347 3 -3 4 3 0 14 -14 47 -55 236
-66 303 -6 39 -14 72 -17 72 -3 0 -2 -19 2 -42z"/>
<path d="M4614 3765 c13 -43 65 -169 65 -160 1 12 -58 167 -66 175 -3 3 -3 -4
1 -15z"/>
<path d="M4950 3686 c0 -12 59 -124 69 -130 4 -3 -7 25 -27 62 -38 72 -42 79
-42 68z"/>
<path d="M5079 3483 c-13 -17 -13 -17 6 -3 11 8 22 16 24 17 2 2 0 3 -6 3 -6
0 -17 -8 -24 -17z"/>
<path d="M5080 3430 c-9 -6 -10 -10 -3 -10 6 0 15 5 18 10 8 12 4 12 -15 0z"/>
<path d="M4390 3311 c0 -15 38 -33 58 -28 13 4 11 5 -5 6 -12 0 -29 8 -37 17
-9 8 -16 11 -16 5z"/>
<path d="M4648 3243 c7 -3 16 -2 19 1 4 3 -2 6 -13 5 -11 0 -14 -3 -6 -6z"/>
<path d="M4548 3233 c18 -2 45 -2 60 0 15 2 0 4 -33 4 -33 0 -45 -2 -27 -4z"/>
<path d="M5116 3158 c-26 -40 -54 -83 -62 -95 -9 -13 -15 -23 -12 -23 7 0 94
122 112 158 28 54 11 36 -38 -40z"/>
<path d="M4974 3092 c-139 -133 -208 -177 -281 -177 -33 0 -48 -4 -42 -9 18
-19 77 -10 143 23 42 21 96 61 151 113 72 68 155 159 143 158 -1 -1 -53 -49
-114 -108z"/>
<path d="M4865 3035 c-16 -7 -58 -19 -92 -25 -57 -11 -67 -10 -104 8 -38 19
-40 19 -23 1 35 -39 134 -34 229 11 45 21 36 26 -10 5z"/>
<path d="M4750 3165 c0 -2 10 -10 23 -16 20 -11 21 -11 8 4 -13 16 -31 23 -31
12z"/>
<path d="M4488 2973 c12 -2 30 -2 40 0 9 3 -1 5 -23 4 -22 0 -30 -2 -17 -4z"/>
<path d="M5542 2760 c0 -14 2 -19 5 -12 2 6 2 18 0 25 -3 6 -5 1 -5 -13z"/>
<path d="M5517 2598 c-22 -150 -62 -364 -88 -477 -11 -46 -18 -86 -15 -88 7
-8 64 247 85 382 40 256 43 283 40 294 -3 7 -12 -43 -22 -111z"/>
<path d="M3615 2953 c-458 -28 -445 -26 -445 -63 0 -25 17 -42 126 -125 l125
-97 267 22 c147 12 275 24 285 26 11 4 17 15 17 34 0 24 -15 39 -107 108 -132
96 -143 102 -185 100 -18 -1 -55 -3 -83 -5z m165 -42 c44 -37 35 -48 -13 -16
-33 23 -45 25 -134 24 -54 -1 -129 -5 -168 -9 -41 -4 -1 -5 96 -2 l166 5 82
-58 c44 -32 81 -61 81 -65 0 -3 -82 -12 -182 -19 -200 -14 -237 -18 -168 -20
53 -1 338 19 360 26 11 3 0 17 -35 48 -74 65 -51 63 34 -3 l74 -57 -199 -16
c-109 -9 -232 -19 -272 -21 l-73 -5 -109 83 c-60 46 -112 89 -115 94 -4 6 9
10 32 11 21 0 112 6 203 13 272 22 299 21 340 -13z m-521 -74 c36 -29 87 -68
113 -87 26 -19 48 -39 48 -43 0 -13 -6 -9 -122 78 -94 71 -131 105 -111 105 3
0 36 -24 72 -53z m716 -96 c-6 -4 -77 -14 -160 -20 -82 -7 -201 -17 -263 -23
-101 -9 -135 -7 -121 7 3 2 77 9 164 16 88 6 189 15 225 19 94 11 166 11 155
1z"/>
<path d="M3266 2892 c-6 -10 24 -39 111 -105 42 -32 70 -47 90 -46 l28 1 -31
8 c-18 4 -69 36 -115 71 l-82 64 64 6 64 6 -62 1 c-34 1 -64 -2 -67 -6z"/>
<path d="M3600 2890 l-75 -6 80 -1 c44 -1 89 2 100 7 18 8 18 8 -5 7 -14 0
-59 -3 -100 -7z"/>
<path d="M3438 2873 c18 -2 45 -2 60 0 15 2 0 4 -33 4 -33 0 -45 -2 -27 -4z"/>
<path d="M3353 2863 c9 -2 25 -2 35 0 9 3 1 5 -18 5 -19 0 -27 -2 -17 -5z"/>
<path d="M3580 2859 c-159 -13 -170 -18 -27 -12 71 3 143 9 160 13 l32 8 -30
0 c-16 -1 -77 -5 -135 -9z"/>
<path d="M3388 2833 c7 -3 16 -2 19 1 4 3 -2 6 -13 5 -11 0 -14 -3 -6 -6z"/>
<path d="M3625 2830 l-60 -7 50 0 c28 0 79 3 115 7 l65 7 -55 0 c-30 0 -82 -3
-115 -7z"/>
<path d="M3435 2810 c-12 -5 8 -6 50 -3 39 3 72 7 74 9 9 8 -105 2 -124 -6z"/>
<path d="M3765 2810 l-50 -7 58 -1 c32 -1 57 2 57 8 0 6 -3 9 -7 8 -5 0 -30
-4 -58 -8z"/>
<path d="M3525 2790 l-60 -7 50 -1 c28 0 70 3 95 7 40 8 41 8 10 8 -19 0 -62
-3 -95 -7z"/>
<path d="M3888 2933 c7 -3 16 -2 19 1 4 3 -2 6 -13 5 -11 0 -14 -3 -6 -6z"/>
<path d="M3038 2893 c6 -2 18 -2 25 0 6 3 1 5 -13 5 -14 0 -19 -2 -12 -5z"/>
<path d="M3955 2684 c-104 -7 -221 -17 -260 -21 -66 -8 -70 -9 -73 -35 -3 -24
9 -37 112 -113 132 -98 109 -93 351 -71 83 8 194 18 248 21 79 6 99 11 107 25
6 10 8 25 5 32 -10 25 -248 178 -275 177 -14 -1 -110 -8 -215 -15z m347 -76
c59 -40 107 -76 108 -79 0 -3 -35 -9 -77 -12 -43 -3 -167 -13 -276 -22 l-198
-16 -40 32 c-22 17 -42 29 -45 26 -3 -3 15 -20 40 -38 25 -18 46 -36 46 -41 0
-5 -6 -6 -12 -2 -29 18 -207 155 -213 164 -10 16 64 28 250 40 99 6 194 13
210 14 94 9 95 8 207 -66z m124 -107 c-3 -4 -70 -14 -148 -20 -179 -15 -380
-33 -392 -35 -5 0 -10 4 -13 10 -3 8 30 14 104 19 59 4 169 13 243 20 170 16
213 17 206 6z"/>
<path d="M3955 2650 c-38 -4 -1 -5 83 -2 l152 4 74 -48 c41 -27 75 -52 75 -55
1 -3 -99 -13 -221 -23 -123 -10 -225 -20 -227 -22 -7 -7 48 -4 214 11 88 8
181 15 208 15 26 0 47 4 47 10 0 5 -37 34 -82 65 l-83 55 -85 -2 c-47 -1 -116
-5 -155 -8z"/>
<path d="M3740 2631 l-35 -6 35 -27 c48 -38 29 -48 -23 -11 -51 36 -67 46 -67
40 0 -3 25 -24 57 -48 36 -28 58 -40 60 -31 7 19 22 15 65 -19 21 -17 41 -29
44 -27 2 3 -29 29 -71 58 -41 30 -73 56 -71 58 2 2 35 7 73 11 61 8 63 8 18 8
-27 0 -66 -2 -85 -6z"/>
<path d="M4133 2633 c9 -2 23 -2 30 0 6 3 -1 5 -18 5 -16 0 -22 -2 -12 -5z"/>
<path d="M3900 2619 c-32 -4 -5 -5 65 -2 66 3 122 7 124 9 7 6 -129 1 -189 -7z"/>
<path d="M4163 2613 c9 -2 23 -2 30 0 6 3 -1 5 -18 5 -16 0 -22 -2 -12 -5z"/>
<path d="M3975 2600 l-60 -7 50 0 c28 0 79 3 115 7 l65 7 -55 0 c-30 0 -82 -3
-115 -7z"/>
<path d="M4160 2590 l-65 -7 62 -1 c34 -1 65 3 68 8 3 6 5 9 3 8 -2 -1 -32 -4
-68 -8z"/>
<path d="M3858 2583 c12 -2 30 -2 40 0 9 3 -1 5 -23 4 -22 0 -30 -2 -17 -4z"/>
<path d="M3935 2570 c-47 -6 -48 -7 -10 -7 22 -1 67 3 100 7 l60 7 -50 0 c-27
0 -72 -3 -100 -7z"/>
<path d="M4213 2563 c9 -2 25 -2 35 0 9 3 1 5 -18 5 -19 0 -27 -2 -17 -5z"/>
<path d="M4001 2549 c-41 -5 -77 -11 -80 -15 -6 -5 47 -1 179 15 53 7 57 8 20
8 -25 0 -78 -3 -119 -8z"/>
<path d="M4463 2663 c9 -2 23 -2 30 0 6 3 -1 5 -18 5 -16 0 -22 -2 -12 -5z"/>
<path d="M4378 2653 c12 -2 30 -2 40 0 9 3 -1 5 -23 4 -22 0 -30 -2 -17 -4z"/>
<path d="M3403 2623 c15 -2 37 -2 50 0 12 2 0 4 -28 4 -27 0 -38 -2 -22 -4z"/>
<path d="M3528 2543 c12 -2 30 -2 40 0 9 3 -1 5 -23 4 -22 0 -30 -2 -17 -4z"/>
<path d="M3663 2443 c9 -2 23 -2 30 0 6 3 -1 5 -18 5 -16 0 -22 -2 -12 -5z"/>
<path d="M2910 2866 c0 -2 8 -10 18 -17 15 -13 16 -12 3 4 -13 16 -21 21 -21
13z"/>
<path d="M2950 2837 c0 -3 26 -24 58 -48 31 -23 52 -36 45 -28 -14 17 -103 83
-103 76z"/>
<path d="M3230 2608 c8 -8 210 -169 260 -207 83 -64 16 -3 -105 94 -97 78
-181 139 -155 113z"/>
<path d="M2993 2640 c0 -25 2 -35 4 -22 2 12 2 32 0 45 -2 12 -4 2 -4 -23z"/>
<path d="M3004 2440 c0 -80 2 -112 3 -72 2 39 2 105 0 145 -1 39 -3 7 -3 -73z"/>
<path d="M3034 2185 c0 -66 1 -92 3 -57 2 34 2 88 0 120 -2 31 -3 3 -3 -63z"/>
<path d="M2992 2180 c0 -19 2 -27 5 -17 2 9 2 25 0 35 -3 9 -5 1 -5 -18z"/>
<path d="M3024 1955 c0 -49 1 -71 3 -48 2 23 2 64 0 90 -2 26 -3 8 -3 -42z"/>
<path d="M3003 1630 c0 -25 2 -35 4 -22 2 12 2 32 0 45 -2 12 -4 2 -4 -23z"/>
<path d="M3011 1534 c0 -11 3 -14 6 -6 3 7 2 16 -1 19 -3 4 -6 -2 -5 -13z"/>
<path d="M2992 1470 c0 -14 2 -19 5 -12 2 6 2 18 0 25 -3 6 -5 1 -5 -13z"/>
<path d="M3004 1250 c0 -96 2 -136 3 -87 2 48 2 126 0 175 -1 48 -3 8 -3 -88z"/>
<path d="M5840 2636 c0 -8 4 -17 8 -20 4 -2 8 4 8 15 0 10 -4 19 -8 19 -4 0
-8 -6 -8 -14z"/>
<path d="M5871 2634 c0 -11 3 -14 6 -6 3 7 2 16 -1 19 -3 4 -6 -2 -5 -13z"/>
<path d="M3120 2557 c0 -1 35 -36 78 -77 l77 -75 -75 78 c-69 71 -80 82 -80
74z"/>
<path d="M3280 2407 c0 -3 18 -20 40 -37 22 -17 40 -29 40 -27 0 3 -18 20 -40
37 -22 17 -40 29 -40 27z"/>
<path d="M3357 2383 c17 -15 55 -48 85 -72 l53 -43 -55 51 c-30 28 -68 61 -85
72 l-30 21 32 -29z"/>
<path d="M5572 1570 c0 -14 2 -19 5 -12 2 6 2 18 0 25 -3 6 -5 1 -5 -13z"/>
<path d="M5875 2490 c-22 -4 5 -5 60 -2 55 2 102 6 104 8 7 7 -122 1 -164 -6z"/>
<path d="M6043 2473 c15 -2 37 -2 50 0 12 2 0 4 -28 4 -27 0 -38 -2 -22 -4z"/>
<path d="M5923 2463 c15 -2 39 -2 55 0 15 2 2 4 -28 4 -30 0 -43 -2 -27 -4z"/>
<path d="M3110 1823 c1 -296 4 -549 7 -562 5 -19 36 -38 157 -96 83 -40 161
-75 174 -79 l22 -7 0 504 0 504 -127 104 c-172 140 -210 169 -223 169 -7 0
-10 -159 -10 -537z m204 374 l146 -119 0 -489 c0 -274 -4 -489 -9 -489 -5 0
-74 31 -155 70 -80 38 -150 70 -156 70 -7 0 -10 184 -10 551 0 543 0 551 19
538 11 -8 85 -67 165 -132z"/>
<path d="M3204 2075 c0 -71 1 -99 3 -62 2 37 2 96 0 130 -2 34 -3 4 -3 -68z"/>
<path d="M3294 1990 c0 -102 2 -143 3 -92 2 50 2 134 0 185 -1 50 -3 9 -3 -93z"/>
<path d="M3174 1935 c0 -71 1 -99 3 -62 2 37 2 96 0 130 -2 34 -3 4 -3 -68z"/>
<path d="M3163 1730 c0 -36 2 -50 4 -32 2 17 2 47 0 65 -2 17 -4 3 -4 -33z"/>
<path d="M3394 1650 c0 -69 1 -97 3 -62 2 34 2 90 0 125 -2 34 -3 6 -3 -63z"/>
<path d="M3304 1660 c0 -58 1 -81 3 -52 2 28 2 76 0 105 -2 28 -3 5 -3 -53z"/>
<path d="M3383 1475 c0 -22 2 -30 4 -17 2 12 2 30 0 40 -3 9 -5 -1 -4 -23z"/>
<path d="M3205 1466 c-4 -19 -5 -42 -2 -53 3 -10 6 0 7 22 2 35 3 37 10 15 8
-24 8 -24 9 7 1 44 -17 51 -24 9z"/>
<path d="M3373 1385 c0 -27 2 -38 4 -22 2 15 2 37 0 50 -2 12 -4 0 -4 -28z"/>
<path d="M3233 1330 c0 -47 2 -66 4 -42 2 23 2 61 0 85 -2 23 -4 4 -4 -43z"/>
<path d="M3193 1335 c0 -22 2 -30 4 -17 2 12 2 30 0 40 -3 9 -5 -1 -4 -23z"/>
<path d="M3413 1300 c0 -36 2 -50 4 -32 2 17 2 47 0 65 -2 17 -4 3 -4 -33z"/>
<path d="M3363 1275 c0 -33 2 -45 4 -27 2 18 2 45 0 60 -2 15 -4 0 -4 -33z"/>
<path d="M4281 2376 c2 -2 26 -6 53 -9 30 -3 43 -1 35 4 -13 8 -97 13 -88 5z"/>
<path d="M4168 2363 c17 -2 47 -2 65 0 17 2 3 4 -33 4 -36 0 -50 -2 -32 -4z"/>
<path d="M3875 2350 c-27 -4 15 -5 95 -2 80 3 147 6 149 8 7 6 -191 1 -244 -6z"/>
<path d="M3768 2333 c7 -3 16 -2 19 1 4 3 -2 6 -13 5 -11 0 -14 -3 -6 -6z"/>
<path d="M3738 2303 c12 -2 30 -2 40 0 9 3 -1 5 -23 4 -22 0 -30 -2 -17 -4z"/>
<path d="M5964 2125 c0 -137 2 -195 3 -128 2 67 2 179 0 250 -1 70 -3 16 -3
-122z"/>
<path d="M6004 2185 c0 -82 2 -115 3 -72 2 43 2 110 0 150 -1 40 -3 5 -3 -78z"/>
<path d="M5974 1765 c0 -60 1 -84 3 -52 2 32 2 81 0 110 -2 29 -3 3 -3 -58z"/>
<path d="M5962 1610 c0 -19 2 -27 5 -17 2 9 2 25 0 35 -3 9 -5 1 -5 -18z"/>
<path d="M6003 1385 c0 -38 2 -53 4 -32 2 20 2 52 0 70 -2 17 -4 1 -4 -38z"/>
<path d="M5963 1340 c0 -25 2 -35 4 -22 2 12 2 32 0 45 -2 12 -4 2 -4 -23z"/>
<path d="M5974 1150 c0 -74 1 -105 3 -67 2 37 2 97 0 135 -2 37 -3 6 -3 -68z"/>
<path d="M5808 2363 c12 -2 30 -2 40 0 9 3 -1 5 -23 4 -22 0 -30 -2 -17 -4z"/>
<path d="M5773 2313 c9 -2 25 -2 35 0 9 3 1 5 -18 5 -19 0 -27 -2 -17 -5z"/>
<path d="M4398 2263 c12 -2 32 -2 45 0 12 2 2 4 -23 4 -25 0 -35 -2 -22 -4z"/>
<path d="M4255 2250 c-34 -6 -35 -7 -10 -8 17 0 50 3 75 7 40 8 41 8 10 8 -19
0 -53 -3 -75 -7z"/>
<path d="M4133 2233 c15 -2 37 -2 50 0 12 2 0 4 -28 4 -27 0 -38 -2 -22 -4z"/>
<path d="M4358 2213 c6 -2 18 -2 25 0 6 3 1 5 -13 5 -14 0 -19 -2 -12 -5z"/>
<path d="M4273 2203 c9 -2 25 -2 35 0 9 3 1 5 -18 5 -19 0 -27 -2 -17 -5z"/>
<path d="M4147 2193 c18 -2 50 -2 70 0 21 2 7 4 -32 4 -38 0 -55 -2 -38 -4z"/>
<path d="M4043 2183 c15 -2 37 -2 50 0 12 2 0 4 -28 4 -27 0 -38 -2 -22 -4z"/>
<path d="M3938 2173 c12 -2 30 -2 40 0 9 3 -1 5 -23 4 -22 0 -30 -2 -17 -4z"/>
<path d="M3584 1990 c0 -102 2 -143 3 -92 2 50 2 134 0 185 -1 50 -3 9 -3 -93z"/>
<path d="M3612 1780 c0 -14 2 -19 5 -12 2 6 2 18 0 25 -3 6 -5 1 -5 -13z"/>
<path d="M3604 1595 c0 -60 1 -84 3 -52 2 32 2 81 0 110 -2 29 -3 3 -3 -58z"/>
<path d="M3593 1425 c0 -33 2 -45 4 -27 2 18 2 45 0 60 -2 15 -4 0 -4 -33z"/>
<path d="M3585 1207 c-4 -36 -5 -71 -3 -79 3 -7 8 20 12 61 3 41 4 76 2 78 -2
3 -7 -25 -11 -60z"/>
<path d="M3572 1080 c0 -14 2 -19 5 -12 2 6 2 18 0 25 -3 6 -5 1 -5 -13z"/>
<path d="M3584 930 c0 -63 1 -89 3 -57 2 31 2 83 0 115 -2 31 -3 5 -3 -58z"/>
<path d="M5763 2160 c0 -41 2 -58 4 -37 2 20 2 54 0 75 -2 20 -4 3 -4 -38z"/>
<path d="M5804 1975 c0 -137 2 -195 3 -128 2 67 2 179 0 250 -1 70 -3 16 -3
-122z"/>
<path d="M5854 2100 c0 -52 1 -74 3 -47 2 26 2 68 0 95 -2 26 -3 4 -3 -48z"/>
<path d="M5864 1875 c0 -49 1 -71 3 -48 2 23 2 64 0 90 -2 26 -3 8 -3 -42z"/>
<path d="M5854 1580 c0 -96 2 -136 3 -87 2 48 2 126 0 175 -1 48 -3 8 -3 -88z"/>
<path d="M5755 1530 c-3 -30 -5 -71 -2 -90 3 -24 5 -15 7 30 l4 65 6 -75 6
-75 1 80 c2 103 -12 143 -22 65z"/>
<path d="M5853 1160 c0 -47 2 -66 4 -42 2 23 2 61 0 85 -2 23 -4 4 -4 -43z"/>
<path d="M5793 1080 c0 -30 2 -43 4 -27 2 15 2 39 0 55 -2 15 -4 2 -4 -28z"/>
<path d="M5762 1050 c0 -14 2 -19 5 -12 2 6 2 18 0 25 -3 6 -5 1 -5 -13z"/>
<path d="M3714 1985 c0 -104 2 -146 3 -92 2 54 2 139 0 190 -1 51 -3 7 -3 -98z"/>
<path d="M3764 1540 c0 -69 1 -97 3 -62 2 34 2 90 0 125 -2 34 -3 6 -3 -63z"/>
<path d="M3753 1350 c0 -30 2 -43 4 -27 2 15 2 39 0 55 -2 15 -4 2 -4 -28z"/>
<path d="M3744 1080 c0 -52 1 -74 3 -47 2 26 2 68 0 95 -2 26 -3 4 -3 -48z"/>
<path d="M3701 1064 c0 -11 3 -14 6 -6 3 7 2 16 -1 19 -3 4 -6 -2 -5 -13z"/>
<path d="M3714 885 c0 -66 1 -92 3 -57 2 34 2 88 0 120 -2 31 -3 3 -3 -63z"/>
<path d="M4373 1173 c9 -2 25 -2 35 0 9 3 1 5 -18 5 -19 0 -27 -2 -17 -5z"/>
<path d="M4005 1150 c-48 -7 -49 -7 -10 -8 22 0 58 3 80 7 33 7 35 9 10 8 -16
0 -52 -3 -80 -7z"/>
<path d="M4323 1143 c9 -2 23 -2 30 0 6 3 -1 5 -18 5 -16 0 -22 -2 -12 -5z"/>
<path d="M3913 1133 c9 -2 23 -2 30 0 6 3 -1 5 -18 5 -16 0 -22 -2 -12 -5z"/>
<path d="M4248 1133 c6 -2 18 -2 25 0 6 3 1 5 -13 5 -14 0 -19 -2 -12 -5z"/>
<path d="M3848 1123 c6 -2 18 -2 25 0 6 3 1 5 -13 5 -14 0 -19 -2 -12 -5z"/>
<path d="M4168 1123 c12 -2 30 -2 40 0 9 3 -1 5 -23 4 -22 0 -30 -2 -17 -4z"/>
<path d="M4083 1113 c9 -2 25 -2 35 0 9 3 1 5 -18 5 -19 0 -27 -2 -17 -5z"/>
<path d="M3998 1103 c12 -2 32 -2 45 0 12 2 2 4 -23 4 -25 0 -35 -2 -22 -4z"/>
<path d="M3933 1093 c9 -2 23 -2 30 0 6 3 -1 5 -18 5 -16 0 -22 -2 -12 -5z"/>
<path d="M3140 1076 c0 -3 9 -10 20 -16 11 -6 20 -8 20 -6 0 3 -9 10 -20 16
-11 6 -20 8 -20 6z"/>
<path d="M3190 1046 c0 -3 14 -12 30 -21 17 -9 30 -13 30 -11 0 3 -13 12 -30
21 -16 9 -30 13 -30 11z"/>
<path d="M3140 1016 c0 -3 9 -10 20 -16 11 -6 20 -8 20 -6 0 3 -9 10 -20 16
-11 6 -20 8 -20 6z"/>
<path d="M3260 1006 c0 -3 9 -10 20 -16 11 -6 20 -8 20 -6 0 3 -9 10 -20 16
-11 6 -20 8 -20 6z"/>
<path d="M3300 936 c0 -2 7 -7 16 -10 8 -3 12 -2 9 4 -6 10 -25 14 -25 6z"/>
<path d="M3370 900 c19 -11 40 -19 45 -19 6 0 -6 8 -25 19 -19 11 -39 19 -45
19 -5 0 6 -8 25 -19z"/>
<path d="M3440 870 c8 -5 20 -10 25 -10 6 0 3 5 -5 10 -8 5 -19 10 -25 10 -5
0 -3 -5 5 -10z"/>
<path d="M3811 645 c1 -19 18 -51 18 -35 0 8 -4 22 -9 30 -5 8 -9 11 -9 5z"/>
<path d="M3786 600 c8 -43 14 -51 14 -19 0 13 -5 31 -10 39 -7 11 -8 5 -4 -20z"/>
<path d="M3741 574 c0 -11 3 -14 6 -6 3 7 2 16 -1 19 -3 4 -6 -2 -5 -13z"/>
<path d="M3751 534 c0 -11 3 -14 6 -6 3 7 2 16 -1 19 -3 4 -6 -2 -5 -13z"/>
<path d="M5763 930 c23 -15 129 -51 134 -46 4 3 -23 13 -132 51 -18 6 -18 5
-2 -5z"/>
<path d="M5780 880 c8 -5 20 -10 25 -10 6 0 3 5 -5 10 -8 5 -19 10 -25 10 -5
0 -3 -5 5 -10z"/>
<path d="M3000 910 c8 -5 20 -10 25 -10 6 0 3 5 -5 10 -8 5 -19 10 -25 10 -5
0 -3 -5 5 -10z"/>
<path d="M2990 895 c0 -2 32 -21 70 -40 39 -19 70 -33 70 -30 0 2 -31 21 -70
40 -38 19 -70 33 -70 30z"/>
<path d="M3041 896 c10 -9 69 -36 69 -32 0 6 -55 36 -66 36 -4 0 -5 -2 -3 -4z"/>
<path d="M3207 779 c7 -7 15 -10 18 -7 3 3 -2 9 -12 12 -14 6 -15 5 -6 -5z"/>
<path d="M3420 695 c36 -19 70 -34 75 -34 6 0 -19 15 -55 34 -36 19 -69 34
-75 34 -5 0 19 -15 55 -34z"/>
<path d="M6061 930 c0 -3 6 -25 13 -50 8 -25 15 -36 15 -25 0 17 -26 88 -28
75z"/>
<path d="M6002 860 c0 -14 2 -19 5 -12 2 6 2 18 0 25 -3 6 -5 1 -5 -13z"/>
<path d="M4764 469 c-3 -6 -1 -16 5 -22 8 -8 11 -6 11 7 0 16 2 17 18 5 15
-13 16 -12 3 4 -15 20 -27 22 -37 6z"/>
<path d="M7015 3494 c-41 -15 -89 -55 -106 -87 -6 -10 -12 -48 -14 -85 -1 -37
-13 -96 -25 -132 -18 -53 -21 -77 -16 -131 7 -66 7 -67 -24 -91 -27 -21 -35
-38 -51 -107 -22 -96 -33 -120 -102 -223 -39 -58 -57 -78 -74 -78 -30 0 -55
-37 -42 -62 6 -10 7 -43 3 -77 -7 -68 12 -117 50 -127 18 -4 30 -20 46 -65 25
-66 32 -74 78 -84 17 -3 32 -12 32 -19 0 -8 9 -25 21 -39 14 -19 17 -31 11
-44 -18 -35 -68 -380 -74 -513 -3 -70 -8 -63 72 -100 15 -7 19 -27 39 -225 5
-55 14 -140 19 -190 6 -49 6 -112 2 -140 -6 -42 -14 -55 -51 -87 -24 -21 -68
-50 -96 -65 -62 -33 -95 -81 -74 -107 21 -26 85 -38 139 -27 128 25 238 53
250 64 11 8 13 25 8 67 -19 167 -18 207 4 319 21 107 21 116 7 189 -9 46 -13
93 -9 117 6 35 11 40 38 43 30 3 30 2 57 -87 15 -49 27 -109 27 -133 0 -24 12
-83 26 -133 19 -70 25 -112 24 -192 0 -93 -3 -108 -35 -183 -19 -45 -35 -88
-35 -95 0 -8 12 -23 26 -34 33 -26 118 -28 168 -4 45 21 60 58 53 130 -4 32
-11 99 -16 148 -6 60 -6 129 1 205 10 104 9 125 -11 219 -11 57 -21 121 -21
142 0 35 3 39 44 57 24 11 46 24 48 28 6 10 -54 439 -72 518 -6 27 -16 58 -21
69 -9 16 -8 22 4 29 9 5 19 24 23 43 5 31 10 35 38 35 88 1 109 32 105 161 -2
59 1 93 9 101 17 17 15 39 -7 100 -11 29 -31 93 -47 142 -33 108 -70 151 -170
197 -38 18 -72 37 -76 43 -19 28 -5 57 55 115 89 86 122 148 120 229 -1 35 -7
77 -12 95 -14 42 -99 123 -155 148 -60 26 -159 32 -211 13z m137 -15 c69 -15
92 -28 154 -86 l52 -48 7 -80 c7 -75 6 -82 -21 -135 -26 -50 -29 -52 -32 -28
-5 43 -27 54 -66 35 l-33 -15 1 31 c1 79 -5 142 -14 122 -6 -17 -9 -13 -15 20
-7 33 -9 36 -16 20 -4 -11 -8 -14 -8 -7 -1 7 -5 10 -11 7 -5 -3 -10 3 -10 14
0 25 -18 37 -26 17 -10 -27 -24 -18 -25 17 -1 17 -3 24 -6 14 -2 -9 -9 -15
-14 -12 -5 4 -9 -1 -9 -9 0 -9 -4 -16 -10 -16 -5 0 -10 14 -10 31 0 30 -1 31
-17 12 -10 -10 -15 -14 -10 -9 4 6 7 17 7 25 0 11 -4 10 -15 -5 -14 -18 -14
-18 -15 6 -1 25 -1 25 -18 -5 -16 -29 -17 -29 -20 -7 -5 32 23 71 56 77 15 4
34 10 42 15 21 12 40 12 102 -1z m-221 -116 c-10 -17 -10 -16 -11 3 0 23 13
41 18 25 2 -6 -1 -18 -7 -28z m76 -13 c8 0 21 -7 30 -15 8 -8 19 -13 24 -9 6
3 16 0 24 -6 8 -6 18 -9 24 -6 10 7 63 -39 78 -69 6 -11 9 -46 8 -78 -3 -65 5
-75 37 -53 31 22 55 20 63 -4 13 -41 -60 -106 -95 -85 -12 7 -40 -12 -40 -27
0 -6 7 -5 15 2 13 11 15 4 15 -53 0 -59 3 -68 27 -87 33 -26 27 -32 -60 -65
-83 -31 -135 -32 -171 -4 -22 18 -24 23 -14 42 11 21 11 21 18 2 7 -19 8 -19
15 -2 4 10 5 33 2 51 -5 31 -3 34 23 40 41 8 104 35 97 42 -3 3 -26 -2 -51
-10 -26 -9 -66 -16 -89 -15 -34 1 -37 2 -17 8 16 4 25 14 25 26 0 17 -9 21
-55 25 l-55 5 -8 45 c-13 73 20 195 49 183 8 -3 21 0 29 7 27 22 17 -8 -15
-43 -34 -39 -36 -49 -16 -66 12 -10 13 -8 9 8 -3 13 4 32 21 52 43 51 31 78
-31 70 -7 -1 -13 3 -13 9 0 5 14 10 31 10 17 0 28 4 24 10 -3 6 -15 10 -26 10
-21 0 -23 8 -10 28 11 18 55 40 59 30 2 -4 10 -8 19 -8z m223 -355 c-7 -8 -17
-12 -23 -8 -6 4 -3 9 9 14 27 11 28 11 14 -6z m-261 -14 c17 -11 1 -21 -30
-20 -20 1 -99 -26 -99 -34 0 -1 21 -2 47 -2 30 0 48 -5 51 -14 3 -9 -1 -11
-17 -6 -11 3 -31 3 -43 -2 -19 -6 -16 -8 22 -13 33 -4 46 -10 48 -23 3 -16 1
-17 -16 -8 -25 13 -62 14 -62 2 0 -6 15 -11 33 -13 26 -2 32 -7 32 -27 0 -13
-6 -26 -13 -29 -7 -2 -10 2 -6 12 4 11 1 16 -10 16 -11 0 -16 -9 -16 -29 0
-18 -11 -43 -27 -62 -16 -17 -40 -64 -54 -103 l-26 -71 -49 -3 c-81 -4 -83 4
-18 103 48 74 62 105 80 183 14 61 29 98 41 107 10 7 27 20 38 29 22 17 72 21
94 7z m10 -88 c0 -25 -1 -26 -9 -8 -12 27 -12 35 0 35 6 0 10 -12 9 -27z m347
-83 c29 -17 62 -46 73 -64 21 -34 114 -306 107 -313 -5 -5 -186 -43 -205 -43
-11 0 -13 20 -8 113 3 61 8 121 12 132 6 18 5 18 -5 3 -6 -10 -13 -47 -17 -83
-3 -36 -8 -63 -10 -61 -3 2 -8 35 -13 73 l-9 68 5 -65 c11 -159 15 -181 40
-192 58 -27 4 -51 -83 -38 -35 6 -54 16 -81 45 -20 21 -50 43 -67 51 -24 9
-34 23 -43 53 -14 44 -18 47 -114 56 -65 6 -68 8 -69 33 l-2 27 -4 -27 c-4
-26 -23 -40 -23 -18 0 29 42 125 65 147 14 14 25 34 25 45 0 11 11 23 26 28
21 8 33 6 59 -10 18 -11 48 -20 67 -20 47 0 147 35 183 65 17 13 32 24 34 25
2 0 27 -14 57 -30z m-398 -287 c59 -5 64 -7 76 -37 7 -17 16 -43 19 -57 6 -22
3 -26 -14 -25 -14 1 -27 13 -38 36 -16 34 -18 35 -86 41 -88 8 -275 11 -275 4
0 -12 102 -281 109 -288 9 -9 312 -37 324 -30 4 3 5 13 2 24 -4 10 -2 19 3 19
5 0 13 -15 19 -34 l11 -35 -72 6 c-39 3 -123 11 -186 17 l-115 11 -62 165
c-35 91 -62 167 -60 170 1 3 89 1 196 -5 l194 -10 15 -43 c8 -24 16 -41 19
-39 2 3 -2 25 -10 49 l-15 43 -83 7 c-46 3 -127 7 -179 8 -52 1 -104 6 -115
11 -20 9 196 4 323 -8z m-70 -49 c82 -6 91 -9 101 -31 15 -32 14 -33 -13 -33
-34 0 -50 -24 -43 -65 7 -42 62 -113 94 -121 21 -6 50 -41 41 -49 -2 -1 -64 3
-138 11 -74 7 -144 13 -156 13 -15 1 -25 15 -41 59 -12 31 -35 94 -52 140
l-30 82 73 0 c40 0 114 -3 164 -6z m-254 -87 c24 -57 28 -77 17 -77 -15 0 -41
54 -41 85 0 34 7 32 24 -8z m514 -17 l50 -50 124 0 c83 0 118 3 108 10 -8 5
-25 10 -38 10 -17 0 -23 5 -20 17 2 13 22 22 66 32 34 8 65 11 69 7 12 -12 9
-194 -3 -206 -22 -22 -144 -13 -239 18 -71 23 -102 28 -146 25 -41 -4 -64 -1
-85 11 l-29 17 35 -6 c35 -6 35 -6 10 9 -14 9 -32 16 -40 16 -8 0 -24 8 -35
17 -22 17 -26 17 60 -3 45 -10 18 10 -31 24 -23 7 -48 20 -55 29 -12 15 -12
16 6 9 10 -4 40 -9 65 -11 l45 -5 -49 14 c-80 24 -82 39 -4 31 75 -8 99 -1 71
21 -16 12 -16 13 -2 14 9 0 39 -22 67 -50z m127 -186 c44 -14 86 -27 93 -30
21 -6 10 -45 -18 -65 -14 -10 -43 -21 -65 -24 l-40 -7 40 27 c49 32 38 29 -34
-8 -48 -26 -161 -49 -161 -34 0 3 32 20 70 38 39 18 69 33 67 35 -1 2 -41 -12
-87 -31 -47 -19 -98 -35 -113 -35 -29 0 -101 32 -112 50 -3 5 -12 10 -18 10
-7 0 2 -11 18 -25 35 -28 22 -32 -35 -9 -37 15 -69 49 -57 61 3 2 72 0 153 -7
127 -10 149 -9 162 4 11 11 12 21 4 45 -9 25 -8 31 6 34 9 3 24 3 32 0 8 -2
51 -16 95 -29z m-145 -23 c0 -21 -16 -2 -24 29 -7 24 -6 24 8 6 9 -11 16 -27
16 -35z m-227 -132 c-1 -8 -9 -49 -17 -92 -9 -43 -16 -91 -15 -105 1 -15 7 7
14 48 19 112 34 160 50 160 12 0 14 -23 11 -132 -4 -131 -2 -123 10 38 l5 80
117 -2 117 -2 7 -33 7 -34 -3 38 c-1 29 2 37 15 37 22 0 28 -19 50 -160 17
-109 18 -111 13 -35 -5 72 -16 141 -30 186 -3 11 3 18 16 22 23 6 35 -15 50
-88 6 -29 8 -33 9 -14 1 15 -5 45 -13 67 -14 38 -13 40 5 45 16 4 22 -5 38
-61 11 -37 24 -101 30 -142 30 -207 51 -359 51 -372 0 -10 -30 -26 -82 -46
-81 -29 -87 -30 -243 -28 -146 3 -165 5 -220 28 -33 14 -72 28 -87 32 -23 5
-28 12 -28 35 0 79 49 467 66 518 3 10 8 24 10 30 5 17 50 0 47 -18z m100
-649 l47 0 -1 -57 c-1 -32 1 -94 6 -138 5 -60 3 -97 -9 -148 -9 -38 -16 -84
-16 -103 l0 -34 -55 0 c-53 0 -55 1 -56 28 0 15 -9 108 -20 207 -11 99 -23
204 -26 232 l-5 53 44 -20 c23 -11 64 -20 91 -20z m347 -33 c0 -28 5 -68 10
-87 23 -76 28 -157 17 -272 l-10 -118 -48 0 -47 0 -11 64 c-6 35 -20 98 -31
141 -11 43 -20 95 -20 115 0 20 -8 61 -18 91 -11 30 -22 66 -25 80 l-7 27 63
-5 c34 -3 73 0 87 5 39 16 40 15 40 -41z m-323 -480 c-6 -19 -111 -16 -115 3
-2 12 8 14 58 12 41 -3 60 -8 57 -15z m353 -23 c0 -21 -66 -33 -104 -18 -37
14 -14 29 44 29 38 0 60 -4 60 -11z m-350 -29 c0 -11 -12 -45 -27 -75 -16 -30
-28 -56 -28 -56 0 -1 -15 -5 -32 -9 -27 -5 -33 -3 -33 10 0 9 -14 31 -31 48
-26 25 -29 32 -17 41 8 6 22 22 31 36 14 22 23 25 76 25 54 0 61 -2 61 -20z
m350 -36 c0 -14 3 -41 6 -58 l7 -31 -39 16 c-20 9 -50 14 -66 12 -25 -4 -28
-1 -28 21 0 59 7 66 66 67 52 0 54 -1 54 -27z m-331 -67 c1 -12 -48 -37 -56
-28 -2 2 6 24 18 48 22 42 23 42 30 18 4 -14 7 -31 8 -38z m-165 -4 c9 -12 16
-28 16 -34 0 -16 -44 -27 -49 -12 -2 6 -16 22 -30 36 -25 23 -25 24 -7 37 22
17 47 7 70 -27z m-71 -24 c15 -15 24 -30 21 -35 -8 -13 -122 -11 -130 3 -4 6
-3 8 3 5 11 -7 78 22 70 29 -2 3 -17 0 -33 -6 l-29 -10 24 20 c31 26 43 25 74
-6z m555 -4 c17 -11 32 -26 32 -34 0 -12 -6 -11 -42 1 -25 8 -61 13 -85 10
-47 -5 -48 -4 -33 24 14 26 84 26 128 -1z m-325 -11 c-6 -6 -37 -16 -69 -24
-33 -7 -93 -20 -134 -30 -81 -18 -130 -14 -151 12 -13 15 -12 15 8 5 30 -16
86 -15 158 4 61 15 172 41 190 43 5 0 4 -4 -2 -10z m325 -40 c14 -6 22 -16 20
-26 -4 -23 -25 -28 -31 -6 -4 14 -5 13 -6 -4 -1 -27 -18 -31 -24 -5 -4 13 -5
11 -6 -5 0 -13 -5 -23 -10 -23 -5 0 -12 10 -14 23 l-4 22 -8 -22 c-11 -33 -25
-28 -25 10 l-1 32 -14 -32 c-10 -23 -19 -31 -29 -27 -20 8 -20 24 -1 51 23 32
85 37 153 12z m22 -65 c0 -3 -16 -12 -35 -20 -36 -15 -94 -18 -132 -8 -44 12
-22 19 46 16 39 -2 78 1 88 7 20 12 33 14 33 5z"/>
<path d="M7100 3460 c8 -5 20 -10 25 -10 6 0 3 5 -5 10 -8 5 -19 10 -25 10 -5
0 -3 -5 5 -10z"/>
<path d="M7055 3450 c-3 -6 1 -7 9 -4 18 7 21 14 7 14 -6 0 -13 -4 -16 -10z"/>
<path d="M7144 3419 c-3 -5 6 -9 20 -9 31 0 34 6 6 13 -11 3 -23 1 -26 -4z"/>
<path d="M7260 3331 c0 -17 4 -32 8 -35 4 -2 6 11 4 30 -5 42 -12 45 -12 5z"/>
<path d="M7292 3310 c0 -14 2 -19 5 -12 2 6 2 18 0 25 -3 6 -5 1 -5 -13z"/>
<path d="M7318 3257 c-3 -19 -2 -25 4 -19 6 6 8 18 6 28 -3 14 -5 12 -10 -9z"/>
<path d="M7340 3239 c0 -11 -5 -30 -11 -42 -10 -21 -10 -21 5 -3 15 18 22 66
11 66 -3 0 -5 -9 -5 -21z"/>
<path d="M7231 3234 c0 -11 3 -14 6 -6 3 7 2 16 -1 19 -3 4 -6 -2 -5 -13z"/>
<path d="M7042 3265 c2 -3 25 -15 50 -28 49 -25 56 -12 9 16 -26 15 -72 25
-59 12z"/>
<path d="M7057 3223 c-4 -3 -7 -13 -7 -21 0 -10 7 -12 25 -8 16 4 25 2 25 -5
0 -7 3 -9 7 -6 3 4 -2 16 -12 27 -19 21 -28 24 -38 13z"/>
<path d="M6950 3130 c0 -5 5 -10 11 -10 5 0 7 5 4 10 -3 6 -8 10 -11 10 -2 0
-4 -4 -4 -10z"/>
<path d="M6985 3120 c-3 -5 -1 -10 4 -10 6 0 11 5 11 10 0 6 -2 10 -4 10 -3 0
-8 -4 -11 -10z"/>
<path d="M7234 3095 c-3 -8 -3 -19 1 -25 3 -5 -1 -10 -10 -10 -9 0 -13 -5 -10
-10 9 -15 35 8 35 30 0 10 8 21 18 23 12 4 11 5 -6 6 -12 0 -25 -6 -28 -14z"/>
<path d="M6914 3073 c3 -4 23 -12 44 -19 l37 -13 -24 20 c-21 17 -74 29 -57
12z"/>
<path d="M6930 3030 c20 -13 33 -13 25 0 -3 6 -14 10 -23 10 -15 0 -15 -2 -2
-10z"/>
<path d="M7169 2733 c-30 -36 -134 -94 -161 -91 -15 3 -25 1 -22 -4 16 -26
122 22 178 81 17 17 27 31 24 31 -3 0 -12 -8 -19 -17z"/>
<path d="M6891 2659 c0 -19 4 -43 9 -54 6 -13 7 -2 3 30 -7 59 -13 72 -12 24z"/>
<path d="M7261 2654 c0 -11 3 -14 6 -6 3 7 2 16 -1 19 -3 4 -6 -2 -5 -13z"/>
<path d="M7172 2573 c-17 -42 -30 -79 -28 -81 2 -1 18 31 36 73 17 43 30 79
28 81 -2 2 -18 -31 -36 -73z"/>
<path d="M7202 2460 c0 -14 2 -19 5 -12 2 6 2 18 0 25 -3 6 -5 1 -5 -13z"/>
<path d="M7191 2414 c0 -11 3 -14 6 -6 3 7 2 16 -1 19 -3 4 -6 -2 -5 -13z"/>
<path d="M7183 1915 c0 -22 2 -30 4 -17 2 12 2 30 0 40 -3 9 -5 -1 -4 -23z"/>
<path d="M7063 1850 c0 -41 2 -58 4 -37 2 20 2 54 0 75 -2 20 -4 3 -4 -38z"/>
<path d="M7073 1690 c0 -47 2 -66 4 -42 2 23 2 61 0 85 -2 23 -4 4 -4 -43z"/>
<path d="M7262 1720 c0 -19 2 -27 5 -17 2 9 2 25 0 35 -3 9 -5 1 -5 -18z"/>
<path d="M6916 1314 c-4 -14 -5 -28 -3 -31 3 -2 8 8 11 23 4 14 5 28 3 31 -3
2 -8 -8 -11 -23z"/>
<path d="M7180 1283 c0 -5 10 -19 21 -33 l20 -25 -16 33 c-15 30 -25 41 -25
25z"/>
<path d="M7723 3235 c-28 -19 -54 -43 -57 -52 -3 -10 -4 -54 -2 -97 2 -78 2
-81 -31 -117 -31 -34 -33 -40 -22 -61 7 -13 14 -41 15 -63 0 -22 2 -52 3 -66
2 -44 24 -63 82 -69 49 -4 54 -7 57 -31 3 -21 -4 -28 -37 -44 -71 -31 -107
-77 -130 -165 -12 -43 -30 -104 -41 -136 -25 -72 -25 -70 6 -101 l26 -26 -25
-106 c-14 -58 -28 -151 -31 -206 -4 -55 -16 -135 -27 -180 -27 -104 -20 -156
26 -202 l34 -34 -2 -92 -2 -92 48 -14 c44 -14 47 -16 47 -49 0 -20 6 -58 14
-86 24 -84 48 -353 37 -411 -11 -57 -44 -92 -133 -140 -29 -16 -58 -36 -65
-44 -18 -23 -16 -56 4 -72 32 -27 172 -13 328 34 45 14 44 5 26 173 -7 71 -6
109 6 175 19 104 20 208 4 277 -15 60 -10 82 19 82 14 0 20 -7 20 -22 0 -13 9
-43 20 -67 11 -24 20 -59 20 -77 0 -19 11 -100 25 -180 31 -182 25 -249 -28
-322 -20 -26 -47 -58 -61 -71 -33 -31 -34 -74 -4 -95 29 -20 133 -21 180 -2
19 8 51 33 72 56 39 44 39 37 17 150 -8 45 -7 152 3 305 7 103 5 135 -13 223
-29 142 -29 140 20 148 22 4 49 14 60 23 18 15 19 22 10 86 -19 125 -20 122
49 136 33 6 60 16 60 21 0 5 12 20 26 34 30 31 29 69 -1 70 -11 0 -30 6 -43
12 -18 10 -31 10 -67 -3 -25 -8 -48 -15 -50 -15 -12 0 -3 78 20 169 34 133 44
220 36 314 -6 69 -5 80 11 88 27 14 22 45 -29 201 -54 164 -78 195 -186 247
-87 42 -93 61 -35 115 55 53 101 112 118 155 21 52 16 166 -9 198 -12 14 -21
31 -21 39 0 18 -66 67 -124 93 -37 16 -69 21 -135 21 -82 0 -89 -2 -138 -35z
m277 -13 c30 -15 59 -36 65 -48 6 -11 16 -19 23 -16 7 2 12 -5 12 -16 0 -11 7
-25 15 -32 8 -7 14 -18 13 -24 -1 -6 3 -28 9 -48 12 -41 5 -85 -20 -135 -24
-46 -127 -151 -134 -135 -2 6 -9 10 -14 6 -22 -13 -6 15 26 46 38 36 48 87 21
109 -13 11 -87 11 -80 0 2 -3 -3 -6 -12 -6 -9 0 -12 7 -9 18 3 10 -1 32 -10
49 -9 17 -17 44 -18 60 -2 31 -17 43 -17 14 0 -14 -3 -14 -15 -4 -8 7 -15 25
-15 41 0 36 -17 38 -26 4 -9 -36 -24 -20 -24 26 0 36 -2 39 -19 29 -11 -5 -23
-19 -26 -30 -10 -30 -28 -12 -21 21 7 38 0 37 -24 -3 -18 -30 -20 -31 -20 -10
0 35 28 70 66 82 19 6 34 16 34 21 0 5 37 9 83 8 68 0 91 -5 137 -27z m-200
-152 c14 -8 20 -8 20 0 0 17 55 -52 69 -86 7 -17 9 -43 5 -57 -5 -23 -3 -27
15 -27 12 0 32 7 45 15 44 29 77 -6 51 -55 -18 -35 -49 -53 -75 -45 -12 4 -20
2 -20 -4 0 -6 9 -11 21 -11 13 0 19 -5 16 -13 -3 -7 1 -24 9 -38 7 -13 13 -34
14 -46 0 -12 14 -32 30 -45 l31 -24 -55 -27 c-91 -45 -180 -54 -207 -21 -15
18 -4 45 16 38 16 -7 19 20 6 66 -6 21 -3 27 18 36 22 9 15 11 -39 7 -36 -3
-77 0 -92 6 -24 9 -28 16 -28 52 0 36 2 41 20 36 28 -7 25 8 -5 21 -21 10 -24
17 -19 37 4 15 2 25 -5 25 -19 0 -12 21 19 57 23 26 30 43 30 76 0 23 4 49 10
57 7 12 11 12 28 -3 19 -17 20 -17 27 15 l7 33 9 -32 c5 -18 18 -37 29 -43z
m314 -474 c26 -18 53 -42 61 -53 7 -10 34 -84 60 -163 l47 -143 -23 -18 c-34
-25 -121 -51 -161 -47 l-33 3 -9 95 c-5 60 -5 115 2 150 5 30 8 57 7 58 -8 8
-25 -77 -25 -122 0 -56 -9 -55 -20 1 l-8 38 -1 -33 c0 -18 6 -49 14 -69 8 -19
15 -51 15 -70 0 -41 15 -73 35 -73 8 0 18 -12 22 -27 12 -44 6 -145 -9 -154
-38 -25 -168 -40 -168 -20 0 5 12 14 28 19 15 6 22 11 15 11 -6 1 -35 -10 -65
-24 -87 -40 -137 -30 -198 42 l-33 38 22 -37 c24 -41 17 -47 -28 -23 -40 20
-43 37 -27 129 16 85 40 356 33 363 -3 2 -8 -18 -13 -44 l-8 -48 -7 40 c-4 24
-6 3 -3 -50 3 -49 1 -103 -4 -119 l-8 -29 -29 25 -28 25 32 114 c43 155 48
165 94 204 42 37 60 44 51 22 -7 -19 17 -46 51 -56 44 -12 150 13 204 48 26
16 51 30 57 30 6 1 32 -14 58 -33z m-501 -494 c-16 -92 -16 -93 5 -122 26 -34
26 -42 8 -113 -8 -30 -22 -111 -32 -180 -9 -70 -21 -124 -25 -122 -4 3 -10 28
-14 55 -4 28 -10 50 -14 50 -13 0 5 -105 23 -132 23 -35 4 -37 -22 -3 -32 40
-35 86 -13 173 11 43 25 134 31 203 6 68 18 147 26 176 8 28 14 64 14 80 0 33
9 48 22 35 4 -4 0 -49 -9 -100z m633 52 c14 -54 -4 -238 -35 -359 -24 -98 -28
-127 -21 -160 12 -52 13 -132 1 -139 -5 -4 -7 4 -5 16 3 15 -1 12 -11 -9 -18
-39 -39 -46 -25 -8 5 14 6 25 2 25 -4 0 -13 -13 -19 -30 -6 -16 -16 -30 -21
-30 -7 0 -8 11 -2 30 5 17 5 30 1 30 -4 0 -11 -15 -16 -32 -6 -18 -18 -34 -27
-36 -15 -3 -15 1 -5 27 15 41 -1 107 -26 103 -26 -4 -21 14 17 56 42 46 52 84
62 242 10 163 11 209 2 242 -8 25 -6 27 35 33 23 4 49 11 57 16 24 13 29 11
36 -17z m-520 -220 c25 -8 60 -16 78 -16 138 -1 212 4 248 17 43 14 65 12 38
-5 -74 -47 -381 -42 -421 6 -15 19 -2 18 57 -2z m-39 -32 c10 -6 9 -21 -1 -67
-18 -77 -27 -154 -17 -135 5 8 11 37 15 64 10 79 25 126 41 126 8 0 16 -10 16
-22 2 -20 2 -21 6 -3 3 18 10 20 88 17 l84 -3 6 -42 c3 -23 7 -69 9 -102 2
-33 2 -14 2 43 -1 90 1 102 16 102 9 0 19 -8 21 -17 4 -14 5 -12 6 5 1 15 7
22 21 22 11 0 20 -5 20 -12 0 -7 5 -5 13 4 6 9 22 19 35 23 21 6 22 4 22 -67
-1 -101 -12 -142 -54 -188 -20 -22 -36 -49 -36 -59 0 -16 -9 -21 -47 -26 -88
-11 -123 -24 -123 -46 0 -12 -10 -23 -25 -29 -14 -5 -25 -16 -25 -24 0 -19 27
-39 45 -32 8 3 15 1 15 -4 0 -5 9 -14 20 -20 15 -8 36 -5 91 15 53 18 76 22
85 14 16 -13 86 -3 129 19 17 8 32 16 35 16 2 1 9 -35 15 -79 13 -86 11 -91
-35 -101 -14 -3 -55 -17 -92 -31 -67 -26 -69 -26 -215 -16 -119 8 -156 14
-190 31 -23 12 -50 22 -60 22 -43 1 -45 10 -33 136 24 251 45 402 65 462 5 14
15 15 32 4z m637 -278 c22 -21 21 -71 -1 -82 -10 -5 -37 -12 -60 -16 l-43 -6
0 44 c0 43 1 45 43 59 23 9 43 16 44 16 1 1 9 -6 17 -15z m60 -13 c3 -5 -1
-11 -9 -15 -9 -3 -15 0 -15 9 0 16 16 20 24 6z m-336 -93 l-3 -41 -68 -23
c-66 -22 -68 -22 -62 -3 4 10 -1 33 -9 51 -9 17 -15 32 -14 33 4 3 118 22 141
24 15 1 18 -6 15 -41z m-164 -10 c25 -36 15 -101 -14 -83 -8 5 -7 12 6 26 20
22 12 49 -16 56 -11 3 -17 9 -14 14 9 15 22 10 38 -13z m-14 -33 c0 -8 -6 -15
-12 -15 -7 0 -23 -3 -35 -6 -14 -4 -23 -2 -23 5 0 12 33 29 58 30 6 1 12 -6
12 -14z m-79 -242 c58 -4 66 -7 62 -23 -3 -10 0 -42 6 -72 17 -78 16 -129 -5
-266 l-18 -122 -48 0 -48 0 0 38 c0 63 -37 355 -49 385 -6 16 -11 40 -11 54 0
22 3 24 23 18 12 -4 52 -9 88 -12z m344 -151 c18 -86 18 -140 2 -282 l-12
-105 -43 -3 c-28 -2 -43 1 -46 10 -9 33 -56 346 -56 369 0 15 -9 46 -20 70
-32 71 -28 79 33 79 28 1 66 7 82 14 l30 13 8 -46 c4 -25 14 -79 22 -119z
m-285 -359 c9 -8 -26 -23 -57 -23 -40 0 -63 9 -63 24 0 9 16 11 58 8 31 -2 59
-6 62 -9z m-6 -49 c3 -8 -6 -30 -19 -50 -14 -20 -25 -45 -25 -55 0 -11 -6 -19
-14 -19 -8 0 -21 -3 -30 -6 -11 -4 -19 2 -25 19 -5 14 -20 35 -32 46 l-23 21
28 29 c24 25 35 29 82 29 35 0 55 -5 58 -14z m286 -12 c0 -9 -14 -12 -52 -10
-70 4 -73 23 -3 23 39 0 55 -4 55 -13z m-2 -92 l-2 -70 -26 25 c-15 14 -44 28
-64 32 -29 4 -36 9 -30 22 3 9 8 24 11 33 4 13 19 18 57 21 28 2 52 4 54 5 1
1 1 -30 0 -68z m-268 30 c0 -23 -6 -33 -22 -39 -32 -12 -35 -5 -13 34 22 43
35 45 35 5z m-140 -54 c0 -8 -11 -16 -25 -18 -14 -3 -25 -1 -25 4 0 5 -12 20
-26 35 -14 14 -24 26 -22 28 31 24 44 23 71 -5 15 -17 27 -36 27 -44z m-92 14
c12 -12 22 -25 22 -29 0 -10 -35 -21 -66 -21 -27 0 -50 25 -33 36 8 4 9 3 5
-4 -10 -16 5 -14 28 3 20 15 20 15 0 15 -16 0 -17 2 -4 10 21 13 23 13 48 -10z
m237 -20 c-3 -5 -22 -12 -43 -15 -20 -3 -75 -15 -121 -27 -83 -20 -153 -20
-172 -1 -6 6 16 8 51 5 55 -4 91 2 230 37 48 12 62 13 55 1z m182 -1 c43 -16
75 -50 62 -65 -8 -10 -18 -8 -46 9 -20 11 -52 23 -71 26 -34 6 -35 7 -18 24
20 20 34 21 73 6z m100 -21 c-3 -7 -5 -2 -5 12 0 14 2 19 5 13 2 -7 2 -19 0
-25z m-124 -31 c40 -17 63 -42 46 -52 -6 -4 -15 -2 -19 5 -5 8 -9 7 -13 -4 -9
-22 -31 -20 -23 2 6 16 5 16 -8 0 -19 -25 -35 -22 -30 5 l5 22 -12 -22 c-7
-13 -16 -23 -21 -23 -12 0 -10 24 4 38 9 9 9 12 1 12 -7 0 -15 -9 -18 -20 -3
-11 -15 -20 -26 -20 -26 0 -24 9 8 42 30 31 57 35 106 15z m128 -4 c-15 -29
-64 -71 -94 -82 -42 -16 -130 -14 -153 4 -18 14 -17 14 9 5 73 -26 176 2 218
59 25 34 35 41 20 14z"/>
<path d="M7968 3173 c7 -3 16 -2 19 1 4 3 -2 6 -13 5 -11 0 -14 -3 -6 -6z"/>
<path d="M7991 3161 c-9 -6 -4 -10 16 -14 34 -6 41 -2 16 11 -11 6 -25 7 -32
3z"/>
<path d="M8030 3100 c8 -5 20 -10 25 -10 6 0 3 5 -5 10 -8 5 -19 10 -25 10 -5
0 -3 -5 5 -10z"/>
<path d="M8072 3040 c0 -14 2 -19 5 -12 2 6 2 18 0 25 -3 6 -5 1 -5 -13z"/>
<path d="M8103 3005 c0 -22 2 -30 4 -17 2 12 2 30 0 40 -3 9 -5 -1 -4 -23z"/>
<path d="M7724 3041 c4 -6 13 -11 20 -11 7 0 25 -9 40 -21 29 -23 36 -11 9 14
-23 20 -79 35 -69 18z"/>
<path d="M7737 3003 c-10 -10 -8 -43 2 -43 5 0 12 6 14 13 4 9 8 8 16 -3 6 -8
11 -10 11 -4 0 15 -35 46 -43 37z"/>
<path d="M7950 2895 c-10 -12 -10 -15 1 -15 10 0 10 -3 1 -12 -16 -16 -15 -29
2 -22 8 3 16 15 18 27 2 12 9 21 16 20 6 -2 12 2 12 7 0 15 -36 12 -50 -5z"/>
<path d="M7895 2453 c-55 -59 -86 -97 -68 -85 32 23 184 192 172 192 -2 0 -49
-48 -104 -107z"/>
<path d="M7753 2505 c20 -22 82 -25 113 -6 17 11 17 11 -5 5 -38 -10 -90 -7
-109 7 -15 12 -15 11 1 -6z"/>
<path d="M7951 2244 c0 -11 3 -14 6 -6 3 7 2 16 -1 19 -3 4 -6 -2 -5 -13z"/>
<path d="M7940 2209 c0 -22 -68 -160 -93 -190 -12 -14 -5 -8 15 13 36 39 98
172 85 185 -4 3 -7 0 -7 -8z"/>
<path d="M8038 2012 l-17 -37 19 24 c11 13 20 29 20 37 0 21 -3 17 -22 -24z"/>
<path d="M8031 1844 c0 -11 3 -14 6 -6 3 7 2 16 -1 19 -3 4 -6 -2 -5 -13z"/>
<path d="M7725 1718 c-4 -68 -5 -134 -3 -148 2 -14 8 39 12 118 5 79 6 145 3
148 -3 3 -8 -50 -12 -118z"/>
<path d="M7982 1810 c0 -19 2 -27 5 -17 2 9 2 25 0 35 -3 9 -5 1 -5 -18z"/>
<path d="M8042 1800 c0 -14 2 -19 5 -12 2 6 2 18 0 25 -3 6 -5 1 -5 -13z"/>
<path d="M8162 1380 c0 -19 2 -27 5 -17 2 9 2 25 0 35 -3 9 -5 1 -5 -18z"/>
<path d="M8052 1135 c0 -16 2 -22 5 -12 2 9 2 23 0 30 -3 6 -5 -1 -5 -18z"/>
</g>
</svg>
