<?xml version="1.0" standalone="no"?>
<!DOCTYPE svg PUBLIC "-//W3C//DTD SVG 20010904//EN"
 "http://www.w3.org/TR/2001/REC-SVG-20010904/DTD/svg10.dtd">
<svg version="1.0" xmlns="http://www.w3.org/2000/svg"
 width="1024.000000pt" height="559.000000pt" viewBox="0 0 1024.000000 559.000000"
 preserveAspectRatio="xMidYMid meet">
<metadata>
Created by potrace 1.16, written by Peter Selinger 2001-2019
</metadata>
<g transform="translate(0.000000,559.000000) scale(0.100000,-0.100000)"
fill="#000000" stroke="none">
<path d="M5272 5069 c-29 -5 -72 -19 -95 -30 -51 -26 -146 -101 -206 -163 -35
-36 -42 -48 -33 -59 9 -11 8 -22 -5 -48 -22 -44 -28 -127 -13 -174 7 -20 25
-51 40 -69 16 -18 32 -45 36 -61 4 -16 15 -43 24 -60 10 -16 23 -52 29 -79 14
-58 45 -120 101 -205 l41 -62 -23 -19 c-13 -10 -40 -23 -60 -29 -36 -11 -78
-52 -78 -76 0 -7 -15 -22 -34 -33 -40 -24 -62 -83 -52 -140 3 -21 -2 -53 -14
-85 -11 -29 -35 -102 -53 -163 -22 -70 -48 -130 -71 -163 -20 -29 -36 -63 -36
-75 0 -29 -11 -43 -43 -55 -23 -9 -36 -7 -67 9 -65 33 -107 76 -115 117 -13
73 -63 133 -109 133 -11 0 -45 9 -74 20 -62 24 -132 26 -171 5 -32 -16 -41
-33 -41 -75 0 -16 -5 -32 -10 -35 -13 -8 -7 -143 8 -171 5 -10 15 -31 20 -46
15 -37 56 -62 111 -65 113 -8 123 -13 158 -81 18 -34 31 -62 29 -62 -1 0 -43
18 -93 39 -50 22 -119 45 -153 52 -47 9 -84 27 -152 71 -97 64 -125 72 -56 15
77 -61 122 -86 199 -106 89 -24 112 -32 201 -73 l68 -31 -39 -25 c-59 -38 -86
-93 -86 -173 0 -53 -3 -65 -15 -63 -73 15 -205 47 -236 58 -22 7 -110 48 -196
91 -87 42 -162 75 -169 73 -6 -2 60 -41 148 -86 162 -85 282 -128 428 -156
247 -46 307 -56 380 -62 44 -3 86 -11 93 -16 16 -14 15 -38 -2 -38 -25 0 -290
-79 -381 -114 -49 -19 -144 -49 -210 -66 -66 -17 -184 -49 -262 -71 -79 -21
-157 -39 -174 -39 -17 0 -81 13 -142 29 -398 106 -473 122 -451 102 7 -8 263
-78 434 -119 l35 -8 3 -67 c4 -78 9 -76 -104 -47 -91 24 -349 80 -366 80 -8 0
-9 -3 -2 -10 6 -6 82 -27 170 -46 202 -45 383 -98 455 -135 80 -40 144 -114
169 -196 11 -36 31 -143 45 -237 32 -219 46 -300 80 -468 34 -167 34 -167 -89
-228 -47 -23 -92 -52 -100 -64 -67 -103 -171 -150 -371 -166 -66 -5 -142 -16
-170 -24 -72 -20 -168 -56 -179 -67 -20 -18 34 -9 114 21 44 16 100 31 123 32
l42 3 3 -62 c2 -35 8 -63 13 -63 7 0 9 24 7 63 l-3 64 117 15 c86 12 133 24
180 47 34 16 63 29 64 28 0 -1 -7 -42 -17 -92 -21 -103 -22 -115 -11 -115 5 0
20 54 35 121 33 151 55 183 167 239 85 43 120 78 120 121 0 15 -16 107 -35
203 -19 97 -48 268 -65 379 -35 236 -49 289 -96 357 l-34 50 0 135 0 135 28 6
c39 9 314 84 332 90 8 3 3 -7 -11 -23 -70 -74 -74 -90 -114 -428 -32 -269 -32
-281 -16 -305 26 -37 87 -76 165 -108 53 -22 71 -34 77 -53 18 -66 31 -133 38
-205 4 -44 14 -90 21 -103 8 -15 10 -41 6 -69 -4 -27 -2 -50 5 -58 17 -21 -45
-71 -169 -134 -110 -56 -141 -87 -128 -128 25 -79 275 -81 444 -4 61 28 111
43 166 50 106 13 131 33 130 98 0 27 -2 60 -5 74 -4 23 0 25 41 30 25 4 60 14
77 23 l33 17 2 163 3 162 51 3 51 3 13 -130 c10 -101 10 -141 1 -177 -13 -51
-5 -180 12 -202 12 -16 -19 -63 -105 -159 -85 -94 -96 -150 -37 -181 70 -36
255 -29 338 13 49 24 100 74 125 123 8 15 27 37 44 49 27 20 29 27 35 105 3
46 13 104 22 131 14 40 15 58 6 108 -7 42 -7 86 0 142 14 116 12 113 77 123
l57 9 9 142 c10 161 3 151 96 129 l55 -12 3 -70 c1 -38 -1 -217 -6 -399 -4
-181 -6 -336 -4 -343 6 -19 56 -42 104 -48 36 -5 50 -1 90 25 l47 30 3 137 3
138 125 62 c69 35 131 63 138 63 8 1 12 -21 12 -78 0 -87 2 -91 67 -110 39
-11 47 -9 92 13 27 14 51 29 54 33 2 5 1 173 -2 375 l-6 368 29 10 c54 19 66
37 66 102 0 63 -12 98 -34 98 -14 0 -29 44 -47 140 l-12 65 47 88 c57 109 58
136 12 330 -49 202 -70 310 -111 572 -61 386 -108 583 -165 695 -16 30 -36 73
-45 95 -22 56 -40 72 -120 112 -38 19 -79 42 -90 52 -32 30 -61 41 -104 41
-30 0 -51 8 -84 34 -55 42 -100 55 -160 49 -44 -5 -45 -5 -56 29 -10 29 -7 55
15 159 40 189 34 323 -18 436 -25 53 -71 99 -114 113 -18 6 -49 26 -69 45 -40
38 -86 56 -93 36 -2 -7 -16 -10 -40 -6 -21 4 -46 8 -57 9 -11 2 -44 -1 -73 -5z
m162 -33 c41 -13 47 -13 42 0 -10 25 15 15 48 -20 17 -18 48 -39 68 -45 95
-31 143 -146 142 -336 -1 -127 -33 -301 -49 -262 -4 10 0 36 9 60 23 62 21
152 -4 177 -28 28 -57 25 -91 -9 -20 -21 -29 -39 -29 -63 0 -31 -15 -68 -23
-58 -2 3 -8 21 -13 40 -7 24 -25 46 -59 72 -54 41 -84 93 -85 147 l0 34 -32
-44 c-30 -41 -60 -71 -66 -65 -1 2 4 16 12 32 23 43 9 43 -30 1 -35 -38 -111
-97 -125 -97 -4 0 4 21 19 47 15 27 20 43 11 38 -8 -5 -40 -27 -72 -48 -32
-21 -61 -36 -64 -34 -6 7 14 46 41 76 l21 25 -30 -19 c-16 -10 -34 -24 -40
-30 -37 -41 -48 -58 -54 -86 l-6 -32 -20 29 c-32 47 -27 145 10 214 17 30 31
58 33 63 2 4 -5 4 -15 0 -29 -10 32 51 113 113 40 30 94 64 120 74 59 23 153
25 218 6z m-17 -418 c10 -11 34 -31 54 -44 28 -17 39 -33 48 -68 6 -25 17 -46
24 -46 20 0 37 21 37 46 0 36 21 84 41 95 56 30 88 -33 64 -126 -18 -68 -41
-98 -68 -91 -11 3 -17 0 -14 -7 2 -7 18 -11 36 -11 20 1 31 -3 31 -12 0 -31
63 -144 102 -182 l41 -41 -57 -86 c-66 -100 -111 -133 -229 -170 -96 -31 -115
-31 -158 -2 -39 26 -59 70 -43 95 18 28 38 19 62 -28 16 -33 22 -39 22 -22 0
13 -7 36 -15 52 -14 27 -14 30 1 30 25 0 167 148 193 202 14 29 21 60 19 80
l-4 33 -7 -30 c-15 -60 -53 -119 -117 -186 -74 -76 -99 -89 -170 -89 -45 0
-51 3 -83 43 -54 65 -122 177 -140 227 -23 66 -29 100 -17 100 5 0 10 -4 10
-10 0 -5 9 -10 20 -10 11 0 20 5 20 10 0 6 5 10 10 10 6 0 10 -33 10 -79 0
-115 20 -130 106 -79 36 21 41 32 22 44 -6 4 -8 3 -5 -4 8 -12 -77 -57 -92
-48 -5 3 -12 51 -16 106 -4 55 -12 103 -18 107 -6 4 -8 0 -4 -10 5 -14 0 -17
-22 -17 -16 0 -36 -2 -43 -5 -9 -4 -19 4 -26 20 -11 25 -11 25 36 25 38 1 44
3 29 11 -11 6 -34 11 -53 11 -31 0 -34 3 -39 37 -4 20 -8 45 -10 56 -2 11 0
27 5 35 8 12 10 10 10 -7 0 -13 2 -23 5 -23 3 0 26 16 51 35 48 37 71 40 39 5
-44 -49 39 -29 112 27 27 20 43 28 40 19 -4 -9 -3 -16 1 -16 16 0 82 52 93 72
11 21 13 20 25 -21 7 -23 21 -52 31 -63z m506 -431 c34 -26 59 -37 83 -37 42
0 94 -20 114 -45 8 -10 46 -32 85 -50 41 -18 78 -43 88 -58 23 -35 21 -41 -5
-23 -42 30 -40 16 4 -27 99 -96 151 -275 238 -827 35 -221 46 -280 91 -470 53
-227 55 -241 35 -295 -10 -25 -30 -67 -44 -93 l-27 -47 -17 90 c-9 50 -31 187
-48 305 -36 252 -41 282 -46 277 -5 -4 30 -299 47 -407 21 -131 70 -385 83
-437 16 -61 16 -62 -69 -40 -94 25 -112 100 -125 532 -9 300 -21 385 -65 479
-36 76 -96 140 -163 173 -57 28 -57 28 -267 28 l-210 0 -70 31 c-134 58 -232
136 -320 255 -51 69 -105 169 -105 194 0 30 28 14 63 -38 40 -58 160 -178 217
-217 19 -13 -6 16 -57 64 -98 92 -197 216 -185 228 4 4 41 -10 82 -32 120 -63
222 -94 315 -95 126 0 170 25 336 194 74 76 153 148 175 160 25 14 30 19 14
15 -45 -11 -95 -53 -204 -169 -91 -97 -118 -120 -181 -151 -71 -35 -78 -36
-152 -32 -89 6 -175 33 -283 88 -64 32 -75 41 -72 61 5 46 9 49 78 49 74 0
160 19 237 54 29 12 57 21 63 19 26 -9 196 237 192 276 -2 14 -9 26 -17 29 -9
3 -11 -2 -6 -17 10 -31 -7 -26 -46 15 l-34 36 65 -4 c56 -3 71 -9 113 -41z
m-693 -172 c13 -14 31 -25 40 -25 27 0 28 -8 6 -55 -17 -37 -25 -45 -46 -43
-14 1 -35 -2 -47 -6 -22 -7 -23 -5 -23 51 0 55 18 103 39 103 4 0 18 -11 31
-25z m-78 -131 c5 -4 3 -13 -4 -21 -9 -11 -16 -9 -40 13 -15 15 -28 23 -28 18
0 -6 11 -21 24 -33 15 -14 22 -30 19 -42 -6 -23 -9 -23 -63 -4 -55 19 -53 20
-68 -15 -16 -36 -35 -30 -26 8 9 45 24 68 54 85 15 9 31 28 34 42 4 15 21 32
44 44 l37 19 5 -53 c3 -29 8 -57 12 -61z m201 -24 l32 -20 -51 0 c-59 0 -69
12 -52 61 l11 32 14 -27 c8 -15 29 -36 46 -46z m-105 -2 c23 -23 14 -77 -17
-109 -49 -49 -91 -34 -91 32 0 67 69 116 108 77z m-133 -106 c3 -13 21 -32 40
-43 20 -12 38 -33 45 -53 15 -48 91 -167 147 -232 131 -152 357 -256 523 -241
l56 5 -4 -31 c-3 -18 -19 -45 -36 -62 -30 -29 -35 -30 -136 -33 -130 -5 -270
13 -330 42 -25 12 -82 44 -127 70 -70 41 -87 47 -117 42 -33 -6 -35 -5 -40 26
-14 87 -26 221 -26 298 -1 66 -3 81 -11 66 -7 -11 -10 -60 -7 -127 2 -59 0
-105 -4 -101 -4 4 -18 50 -32 102 -13 52 -25 86 -25 75 -1 -30 26 -131 54
-200 13 -33 26 -81 29 -107 l5 -47 -57 -16 c-47 -14 -67 -27 -115 -77 -31 -34
-59 -59 -61 -57 -2 2 -13 23 -25 46 -20 41 -76 93 -99 93 -7 0 -12 5 -12 10 0
30 90 -4 138 -52 42 -41 42 -41 29 -11 -16 41 -58 73 -102 80 -59 10 -37 33
31 33 36 0 85 -20 117 -48 9 -8 20 -13 23 -9 10 10 -77 66 -112 73 -19 3 -45
3 -59 0 -35 -9 -32 9 10 72 23 34 55 111 91 219 30 92 66 186 79 209 l24 42
45 -16 c32 -12 47 -23 51 -40z m-760 -271 c29 -12 29 -13 10 -27 -11 -8 -25
-12 -32 -10 -7 3 -13 1 -13 -4 0 -16 -33 -12 -60 7 -21 15 -23 15 -17 0 3 -8
1 -17 -6 -20 -8 -2 -5 -13 8 -32 75 -106 75 -107 5 -72 -75 37 -102 118 -52
157 22 18 36 21 77 17 28 -2 64 -10 80 -16z m118 -41 c27 -22 57 -96 57 -142
0 -17 4 -27 10 -23 6 4 24 -5 42 -20 36 -30 87 -57 143 -75 22 -7 52 -22 68
-32 30 -22 71 -93 64 -112 -5 -12 -117 -76 -134 -76 -12 0 -121 146 -212 283
-72 109 -80 124 -60 112 6 -4 5 2 -2 13 -12 19 -14 19 -45 5 -36 -18 -84 -11
-84 12 0 18 79 74 106 75 12 0 33 -9 47 -20z m-173 -43 c0 -13 13 -35 29 -49
15 -14 47 -60 70 -102 24 -42 44 -76 47 -76 6 0 -32 74 -63 123 -27 44 -28 42
8 50 25 6 32 -1 104 -111 43 -64 107 -155 143 -201 60 -79 63 -85 46 -98 -32
-23 -48 -14 -93 52 -24 36 -46 65 -48 65 -5 0 2 -13 50 -83 21 -32 37 -61 34
-63 -2 -2 -34 9 -70 25 -59 27 -68 35 -88 78 -74 163 -152 319 -178 359 -37
53 -37 54 -11 54 14 0 20 -7 20 -23z m-110 -58 c8 -11 42 -30 74 -43 73 -30
93 -56 44 -56 -76 0 -174 81 -160 132 5 21 6 21 16 4 6 -10 18 -27 26 -37z
m71 -108 c24 -5 56 -12 72 -16 37 -7 34 -22 -5 -28 -75 -13 -168 29 -168 75 0
19 1 19 28 -1 16 -11 48 -24 73 -30z m1027 -79 c69 -49 170 -91 242 -101 100
-15 225 -18 335 -8 85 8 92 7 125 -15 69 -47 110 -192 80 -283 l-12 -37 -57 6
c-78 9 -203 40 -356 89 -118 38 -140 42 -235 42 -82 0 -112 4 -138 18 -25 14
-44 17 -73 12 -21 -4 -39 -10 -39 -15 0 -4 10 -6 23 -4 l22 5 -23 -12 c-17 -9
-28 -9 -47 -1 -32 15 -32 47 0 67 14 8 37 22 51 31 51 31 14 25 -46 -7 -59
-33 -62 -33 -75 -15 -14 19 -5 56 13 56 13 0 105 61 100 66 -7 6 -131 -64
-140 -79 -10 -16 -20 15 -16 50 2 23 15 34 76 67 39 22 70 41 67 44 -9 10
-122 -43 -171 -80 -77 -58 -100 -46 -46 25 47 62 91 87 194 111 57 14 91 6
146 -32z m859 26 c88 -32 152 -104 191 -210 28 -77 29 -86 17 -126 -8 -24 -25
-60 -38 -80 -23 -36 -72 -71 -82 -60 -3 3 -1 28 5 56 17 78 -16 199 -77 279
-13 17 -31 34 -39 37 -8 3 -1 -11 15 -32 39 -48 66 -111 82 -188 16 -78 0
-143 -43 -179 -47 -40 -59 -32 -32 22 13 25 24 56 23 67 0 12 -8 -1 -19 -29
-29 -75 -95 -106 -148 -69 -32 22 -27 35 8 22 17 -5 37 -7 46 -4 41 16 57 148
29 242 -27 90 -112 163 -175 149 -24 -5 -24 -5 -6 10 31 24 97 19 141 -10 20
-15 39 -24 42 -22 5 6 -52 48 -87 64 -22 10 -19 11 36 12 79 1 155 -36 201
-97 36 -47 42 -48 18 -3 -22 43 -90 97 -139 111 -45 12 -126 10 -158 -4 -21
-9 -23 1 -8 38 9 24 14 26 74 26 42 0 86 -8 123 -22z m-1856 -11 c67 0 76 -11
22 -26 -42 -12 -80 -6 -105 17 -25 21 -22 35 3 21 12 -6 48 -11 80 -12z m99
-44 c0 -6 -8 -9 -20 -6 -16 4 -18 9 -9 25 9 17 13 18 20 7 5 -8 9 -19 9 -26z
m515 -113 c3 -6 -8 -18 -25 -28 -57 -31 -66 -43 -13 -17 29 14 61 25 71 25 10
0 23 5 30 12 6 6 15 8 19 4 12 -12 -44 -55 -160 -124 -185 -110 -227 -151
-227 -219 0 -36 -15 -42 -52 -22 -18 10 -20 17 -15 62 4 35 3 45 -3 32 -5 -11
-9 -35 -9 -53 -1 -30 -4 -33 -28 -30 -24 3 -29 8 -31 37 -2 19 -1 44 2 55 10
42 80 97 205 161 69 35 144 75 166 89 45 27 61 31 70 16z m158 -151 c-14 -30
-63 -74 -92 -84 -26 -8 -97 27 -92 46 2 8 7 29 10 46 5 25 18 41 56 67 l50 34
40 -41 c37 -39 39 -44 28 -68z m-533 52 c0 -3 -9 -12 -21 -19 -34 -21 -61 -96
-62 -172 l-1 -67 -30 8 c-38 11 -46 24 -46 79 0 50 27 116 56 141 44 38 104
55 104 30z m44 -7 c24 -9 19 -18 -24 -43 -21 -12 -48 -33 -59 -46 -10 -14 -21
-25 -24 -25 -14 0 18 63 45 90 31 32 37 34 62 24z m296 -54 c-7 -16 -20 -30
-29 -30 -21 0 -49 20 -36 26 6 2 24 12 40 23 37 23 41 20 25 -19z m248 -16
c27 -13 32 -21 32 -51 0 -20 9 -48 22 -65 13 -20 16 -29 7 -25 -8 3 -51 18
-96 33 -46 14 -83 29 -83 33 0 3 13 15 30 26 16 11 35 30 41 42 7 13 13 23 14
23 1 0 16 -7 33 -16z m168 0 c30 -13 56 -15 112 -10 68 6 82 4 235 -43 89 -28
195 -58 234 -66 57 -13 80 -24 107 -51 19 -19 44 -34 58 -34 48 -1 -9 -20 -74
-25 -43 -3 -55 -2 -38 4 16 6 0 7 -46 3 -39 -2 -98 -1 -130 3 l-59 8 55 18
c76 25 25 24 -69 -1 -132 -35 -197 -23 -331 61 l-35 21 40 -36 40 -36 -30 6
c-68 15 -136 47 -160 75 -34 41 -33 79 3 101 35 21 42 21 88 2z m-525 -36
c-45 -29 -71 -77 -71 -132 0 -39 -3 -46 -19 -46 -58 0 -69 51 -26 110 29 39
123 103 138 93 5 -3 -5 -14 -22 -25z m1628 -323 c1 -193 14 -314 41 -394 10
-31 17 -57 15 -59 -2 -2 -29 2 -62 8 l-58 12 0 131 c0 154 -25 275 -83 396
-25 53 -18 96 19 111 35 15 76 61 98 110 l16 35 6 -90 c4 -49 7 -167 8 -260z
m-1484 291 c44 -18 107 -41 140 -50 117 -34 150 -54 204 -122 39 -48 54 -77
61 -115 16 -85 11 -111 -9 -43 -11 38 -33 82 -61 117 -57 73 -66 64 -12 -13
55 -78 89 -220 52 -220 -5 0 -12 15 -15 33 -13 56 -53 130 -94 176 -53 56 -53
39 -1 -27 38 -48 80 -144 80 -183 0 -34 -30 -8 -60 50 -40 80 -119 148 -155
135 -10 -4 -20 -1 -25 7 -5 7 -12 11 -15 7 -4 -3 18 -33 48 -66 48 -52 87
-125 74 -138 -10 -10 -37 10 -77 57 -23 27 -59 58 -80 69 -53 27 -105 74 -141
127 -22 31 -37 43 -55 43 -14 0 -34 5 -45 10 -56 30 19 178 91 180 9 0 51 -15
95 -34z m454 -126 c21 0 60 -9 85 -21 40 -17 64 -20 149 -18 56 2 149 -2 207
-8 114 -13 199 -6 264 21 21 9 49 16 63 16 13 0 37 7 53 15 29 15 30 14 30 -5
0 -29 -47 -54 -143 -76 -69 -16 -122 -19 -327 -19 -224 1 -252 3 -330 24 -110
29 -147 46 -170 73 -30 36 -24 39 30 18 28 -11 68 -20 89 -20z m51 -93 c36 -9
116 -21 178 -28 l114 -13 -44 -14 c-23 -7 -72 -22 -108 -33 -59 -17 -61 -18
-20 -14 25 3 86 19 135 35 64 21 127 32 220 40 72 6 159 18 193 26 36 9 68 12
72 8 5 -5 20 -43 34 -84 14 -41 23 -59 20 -40 -3 19 -14 58 -24 87 -18 53 -15
63 21 63 23 0 68 -134 94 -275 42 -228 -12 -368 -174 -450 -27 -13 -104 -43
-172 -65 -68 -23 -139 -51 -157 -62 -18 -11 -35 -18 -38 -15 -3 3 4 40 15 81
28 103 25 127 -5 41 -39 -111 -54 -199 -61 -356 l-6 -146 -131 -7 c-137 -7
-198 0 -316 35 -49 14 -105 20 -225 22 -193 5 -212 10 -475 137 -211 101 -267
120 -358 120 l-64 0 6 38 c3 20 15 125 26 232 25 246 42 326 79 376 60 80 217
148 531 228 44 11 46 10 80 -24 20 -20 54 -44 75 -54 22 -10 68 -47 102 -82
62 -64 76 -71 102 -55 22 14 -5 97 -47 143 -19 21 -30 38 -25 38 23 0 87 -68
113 -121 17 -32 38 -63 49 -68 22 -12 90 4 93 22 0 7 2 17 2 23 1 6 7 19 15
28 20 23 8 138 -19 183 -26 44 -25 46 8 30 15 -8 56 -21 92 -30z m-1531 -417
c-2 -66 -5 -120 -8 -120 -2 0 -12 7 -22 16 -10 9 -56 31 -101 50 l-83 33 -5
67 -5 66 43 -6 c24 -3 48 -8 53 -12 5 -3 10 -38 11 -77 l2 -72 5 75 6 74 40
12 c69 21 66 26 64 -106z m2606 -140 c112 -21 164 -35 173 -47 13 -18 16 -91
4 -109 -10 -15 -56 -38 -337 -167 l-240 -110 -135 27 c-207 42 -212 43 -208
69 2 15 20 31 55 50 l52 28 116 -23 c134 -26 111 -31 343 75 l142 66 1 -32 2
-32 6 35 c6 32 12 37 89 71 73 32 119 59 100 59 -3 0 -49 -18 -101 -40 -74
-30 -106 -39 -139 -36 -24 2 -31 1 -15 -1 15 -2 27 -7 27 -11 0 -4 -77 -41
-170 -83 l-170 -76 -87 18 c-47 11 -88 21 -90 23 -2 2 45 20 104 40 59 21 126
48 148 61 53 30 112 91 136 138 11 20 23 37 27 37 4 0 79 -14 167 -30z m95
-512 c0 -150 3 -309 6 -354 l7 -80 -38 -23 c-21 -12 -39 -20 -41 -19 -1 2 -4
165 -5 362 l-1 359 23 13 c50 28 49 32 49 -258z m-90 -123 c0 -195 -4 -355 -9
-355 -4 0 -22 5 -40 11 l-31 11 0 84 c0 83 0 84 30 99 28 14 30 19 30 71 0 53
-1 55 -35 69 l-34 15 0 156 0 155 32 20 c18 10 38 19 45 19 9 0 12 -78 12
-355z m-110 149 l-5 -156 -132 -63 -133 -64 0 160 0 160 98 45 c53 24 108 50
122 58 55 31 55 30 50 -140z m-2105 102 c49 -11 50 -12 62 -61 7 -27 11 -50
10 -52 -5 -4 -147 66 -178 88 -16 11 -27 25 -24 30 8 12 68 10 130 -5z m268
-110 c94 -47 191 -91 214 -98 l42 -13 6 -65 c3 -36 12 -87 19 -115 8 -27 16
-86 18 -130 l3 -80 -72 -14 c-67 -14 -77 -13 -160 7 -48 12 -104 23 -123 26
l-35 3 0 54 c0 30 -5 63 -11 74 -6 11 -14 49 -18 85 -3 36 -21 129 -39 208
-19 78 -30 142 -25 142 5 0 86 -38 181 -84z m1420 60 l27 -6 0 -405 c0 -283 3
-405 11 -405 7 0 10 120 7 405 -2 334 -1 404 10 400 8 -3 26 -5 40 -5 l27 0 0
-382 0 -382 -47 -25 c-44 -23 -49 -24 -90 -11 -24 7 -47 17 -51 21 -5 3 -5
187 -1 408 6 361 9 401 23 397 9 -2 28 -7 44 -10z m-1057 -196 c11 0 14 -33
14 -174 0 -171 0 -174 -21 -169 -27 7 -39 41 -39 108 0 30 -4 64 -9 77 -5 13
-11 57 -15 97 l-6 73 31 -6 c18 -3 38 -6 45 -6z m97 -23 c-2 -4 -3 -71 -3
-150 l0 -143 -37 -18 -36 -17 6 77 c4 42 7 121 7 174 l0 97 33 -6 c17 -4 31
-10 30 -14z m252 -3 c59 -19 111 -27 198 -31 99 -5 117 -8 117 -22 0 -9 -7
-59 -14 -111 -10 -64 -11 -97 -4 -101 6 -4 8 -32 5 -70 -11 -139 -28 -164
-111 -164 -28 0 -78 9 -111 20 -33 11 -84 20 -112 19 -50 0 -53 2 -53 24 0 14
-5 41 -11 62 -10 31 -7 49 19 131 16 52 32 117 35 144 6 50 6 50 -4 10 -6 -22
-16 -58 -22 -80 l-11 -40 -12 90 c-16 119 -17 145 -1 145 6 0 48 -12 92 -26z
m1171 -2 c7 -4 -59 -42 -152 -87 -154 -76 -164 -79 -164 -58 0 13 4 23 10 23
5 0 71 29 147 65 150 70 143 68 159 57z m34 -57 l0 -35 -170 -85 c-93 -47
-172 -85 -175 -85 -3 0 -5 17 -5 39 l0 38 163 81 c89 44 168 81 175 81 7 1 12
-12 12 -34z m-1899 -299 c86 -23 148 -28 216 -18 71 10 73 8 73 -68 0 -45 -2
-49 -32 -60 -18 -6 -63 -15 -99 -20 -45 -5 -97 -21 -159 -50 -86 -40 -100 -43
-201 -48 -133 -6 -199 8 -199 43 0 32 46 68 128 99 49 19 87 43 128 81 33 30
66 54 74 55 9 0 41 -6 71 -14z m781 -147 c51 -16 85 -20 123 -16 l53 5 7 -36
c6 -34 4 -40 -28 -67 -19 -16 -47 -51 -63 -77 -57 -91 -129 -123 -279 -123
-80 0 -107 4 -128 18 -48 31 -34 67 73 183 31 33 64 77 74 97 15 34 21 37 57
37 23 0 72 -10 111 -21z"/>
<path d="M5348 4973 c7 -3 16 -2 19 1 4 3 -2 6 -13 5 -11 0 -14 -3 -6 -6z"/>
<path d="M5572 4920 c9 -6 29 -25 43 -43 15 -17 22 -23 17 -12 -15 29 -51 65
-65 65 -7 0 -4 -5 5 -10z"/>
<path d="M5414 4899 c-10 -12 -32 -30 -49 -40 -16 -11 -24 -19 -17 -19 12 0
103 79 91 80 -3 0 -14 -10 -25 -21z"/>
<path d="M5566 4865 c24 -39 24 -40 24 -28 0 6 -9 21 -21 34 l-20 24 17 -30z"/>
<path d="M5043 4823 c-37 -35 -68 -82 -59 -90 3 -3 6 -1 6 6 0 6 21 34 46 61
50 54 54 67 7 23z"/>
<path d="M5591 4804 c0 -11 3 -14 6 -6 3 7 2 16 -1 19 -3 4 -6 -2 -5 -13z"/>
<path d="M5017 4752 c-19 -20 -47 -85 -46 -104 0 -7 7 4 14 25 8 21 24 51 35
67 24 33 22 40 -3 12z"/>
<path d="M5430 4707 c0 -15 29 -63 47 -78 17 -13 17 -13 2 6 -9 11 -24 34 -32
50 -9 17 -16 26 -17 22z"/>
<path d="M5612 4543 c-10 -32 -9 -40 4 -50 12 -9 13 -16 4 -32 -7 -14 -7 -21
-1 -21 16 0 26 51 11 60 -8 5 -10 18 -5 40 5 25 11 31 26 27 10 -3 19 -1 19 4
0 5 -10 9 -23 9 -19 0 -26 -8 -35 -37z"/>
<path d="M5256 4495 c-21 -7 -43 -18 -49 -24 -16 -16 19 -14 68 4 22 8 58 15
80 15 32 1 36 3 20 10 -30 13 -75 11 -119 -5z"/>
<path d="M5265 4420 c-3 -5 0 -10 8 -10 8 0 17 -7 21 -15 3 -9 12 -12 21 -9 9
4 14 12 11 20 -3 8 5 14 22 17 15 2 4 5 -25 6 -28 0 -55 -3 -58 -9z"/>
<path d="M5309 4165 c-3 -2 -30 -9 -60 -14 l-54 -9 45 0 c46 0 136 26 94 27
-11 1 -23 -1 -25 -4z"/>
<path d="M5270 4111 c-25 -4 -30 -8 -18 -13 19 -8 58 1 58 13 0 5 -1 8 -2 8
-2 -1 -19 -4 -38 -8z"/>
<path d="M5591 4074 c0 -11 3 -14 6 -6 3 7 2 16 -1 19 -3 4 -6 -2 -5 -13z"/>
<path d="M5571 3994 c-7 -30 -11 -58 -8 -61 3 -2 11 21 17 52 6 31 10 59 7 61
-2 2 -9 -21 -16 -52z"/>
<path d="M5988 4079 c-21 -11 -84 -63 -140 -116 -72 -68 -119 -104 -163 -124
-68 -31 -169 -59 -210 -59 -14 0 -24 -4 -21 -9 3 -5 14 -8 24 -6 9 2 46 9 82
16 107 20 181 59 257 136 81 82 144 133 198 161 22 12 33 21 25 21 -8 0 -32
-9 -52 -20z"/>
<path d="M5848 3789 c-26 -17 -73 -42 -105 -55 -32 -13 -51 -24 -43 -24 20 0
148 63 180 89 36 30 22 25 -32 -10z"/>
<path d="M6376 3590 c4 -14 20 -68 35 -120 15 -52 28 -88 28 -79 1 22 -47 188
-60 208 -7 12 -8 10 -3 -9z"/>
<path d="M5615 3474 c71 -58 211 -97 392 -109 56 -3 128 -13 160 -20 32 -7 59
-12 61 -10 11 11 -121 37 -232 46 -179 13 -219 23 -341 81 -33 15 -51 21 -40
12z"/>
<path d="M6441 3354 c0 -11 3 -14 6 -6 3 7 2 16 -1 19 -3 4 -6 -2 -5 -13z"/>
<path d="M6360 3171 c13 -18 39 -68 57 -110 19 -42 32 -62 28 -46 -9 46 -62
149 -87 171 -21 19 -21 18 2 -15z"/>
<path d="M5215 3950 c-4 -17 -5 -34 -2 -36 3 -3 8 9 12 26 4 17 5 34 2 36 -3
3 -8 -9 -12 -26z"/>
<path d="M4805 2910 c-3 -6 1 -7 9 -4 18 7 21 14 7 14 -6 0 -13 -4 -16 -10z"/>
<path d="M4718 2864 c-38 -20 -36 -28 2 -9 17 9 30 18 30 20 0 7 -1 6 -32 -11z"/>
<path d="M4971 2897 c-1 -15 -8 -44 -16 -65 -13 -32 -13 -35 0 -18 17 22 30
79 22 98 -3 7 -6 0 -6 -15z"/>
<path d="M6322 2615 c0 -33 3 -82 8 -110 l7 -50 1 50 c0 28 -4 77 -8 110 l-7
60 -1 -60z"/>
<path d="M6341 2434 c0 -11 3 -14 6 -6 3 7 2 16 -1 19 -3 4 -6 -2 -5 -13z"/>
<path d="M5130 2646 c0 -2 7 -7 16 -10 8 -3 12 -2 9 4 -6 10 -25 14 -25 6z"/>
<path d="M6010 2439 c36 -17 81 -40 100 -51 l35 -20 -25 21 c-36 30 -135 81
-156 81 -11 0 10 -14 46 -31z"/>
<path d="M5458 2433 c7 -3 16 -2 19 1 4 3 -2 6 -13 5 -11 0 -14 -3 -6 -6z"/>
<path d="M5655 2413 c-54 -8 -186 -42 -203 -54 -15 -9 -15 -10 3 -4 38 12 150
37 225 50 68 11 48 18 -25 8z"/>
<path d="M5990 2384 c58 -33 96 -69 127 -121 14 -24 27 -43 29 -43 7 0 -27 63
-54 98 -24 31 -114 92 -137 92 -5 0 10 -12 35 -26z"/>
<path d="M5360 2276 c-52 -18 -127 -45 -167 -60 -39 -14 -89 -28 -110 -32 -57
-9 -145 12 -195 47 l-43 30 34 -30 c73 -65 191 -77 311 -33 93 34 254 94 275
103 13 5 15 8 5 8 -8 1 -58 -14 -110 -33z"/>
<path d="M4665 2161 c49 -52 143 -99 210 -106 l50 -4 -51 13 c-77 20 -156 59
-205 102 l-44 38 40 -43z"/>
<path d="M4471 2188 c-2 -13 58 -156 95 -231 50 -98 135 -225 181 -267 l37
-35 -41 50 c-81 101 -160 241 -260 465 -7 14 -12 22 -12 18z"/>
<path d="M5101 2042 c-133 -135 -171 -166 -238 -193 -42 -17 -44 -19 -13 -13
64 11 124 56 256 190 71 74 126 134 120 134 -5 0 -61 -53 -125 -118z"/>
<path d="M4234 1995 c0 -66 1 -92 3 -57 2 34 2 88 0 120 -2 31 -3 3 -3 -63z"/>
<path d="M5177 1983 c-3 -10 -26 -90 -51 -178 -25 -88 -57 -191 -71 -230 -14
-38 -22 -65 -17 -60 27 29 162 468 148 482 -2 2 -7 -4 -9 -14z"/>
<path d="M5626 1928 c43 -104 44 -106 38 -73 -7 34 -50 135 -58 135 -3 0 6
-28 20 -62z"/>
<path d="M5495 1875 c4 -76 41 -271 57 -295 7 -12 8 -11 4 5 -5 18 -47 251
-60 330 -2 17 -3 -1 -1 -40z"/>
<path d="M5829 1803 l-34 -38 38 34 c20 19 37 36 37 38 0 8 -8 0 -41 -34z"/>
<path d="M6313 1883 c9 -2 23 -2 30 0 6 3 -1 5 -18 5 -16 0 -22 -2 -12 -5z"/>
<path d="M6208 1783 c7 -3 16 -2 19 1 4 3 -2 6 -13 5 -11 0 -14 -3 -6 -6z"/>
<path d="M6077 1673 c-11 -10 -8 -93 3 -93 6 0 10 23 10 50 0 51 -1 55 -13 43z"/>
<path d="M4580 1394 c0 -15 94 -144 132 -179 40 -39 40 -38 -8 20 -28 33 -65
84 -83 113 -31 49 -41 60 -41 46z"/>
<path d="M4565 1102 c127 -44 128 -45 60 -52 l-60 -7 74 -1 c63 -2 72 0 62 12
-18 21 -155 76 -188 76 -19 -1 -2 -10 52 -28z"/>
<path d="M5361 1217 c-1 -27 61 -157 93 -194 45 -53 50 -38 7 20 -40 54 -78
123 -92 167 -5 17 -8 19 -8 7z"/>
<path d="M5225 984 c59 -10 130 -34 160 -55 l30 -21 -65 6 c-42 3 -58 2 -45
-4 11 -5 46 -9 79 -9 47 -1 56 1 47 12 -24 29 -126 70 -181 73 -30 1 -41 0
-25 -2z"/>
<path d="M4420 870 c12 -8 12 -10 1 -10 -8 0 -12 -2 -9 -5 3 -3 13 -2 22 1 14
5 15 9 4 15 -7 5 -17 9 -23 9 -5 0 -3 -5 5 -10z"/>
<path d="M5181 726 c2 -2 22 -6 44 -9 28 -5 34 -4 20 3 -19 8 -73 14 -64 6z"/>
<path d="M5131 686 c2 -2 33 -6 69 -9 42 -4 58 -3 45 3 -19 8 -123 14 -114 6z"/>
<path d="M3433 2963 c-17 -6 -17 -70 -1 -75 8 -3 5 -13 -10 -33 -19 -24 -22
-40 -22 -131 0 -95 2 -104 22 -118 14 -10 44 -16 78 -16 34 0 64 6 78 16 20
14 22 23 22 118 0 88 -3 107 -20 129 -15 19 -18 31 -11 49 4 13 5 33 0 46 -7
19 -15 22 -66 21 -32 0 -64 -3 -70 -6z m107 -13 c0 -5 -18 -10 -40 -10 -22 0
-40 5 -40 10 0 6 18 10 40 10 22 0 40 -4 40 -10z m18 -30 c-3 -11 -17 -15 -58
-15 -41 0 -55 4 -58 15 -2 12 10 15 58 15 48 0 60 -3 58 -15z m0 -73 c19 -29
22 -46 22 -125 0 -104 -6 -112 -80 -112 -75 0 -80 7 -80 121 0 123 13 148 75
149 34 0 43 -5 63 -33z"/>
<path d="M3455 2800 l-30 -8 30 0 c17 0 39 3 50 8 l20 9 -20 -1 c-11 0 -33 -4
-50 -8z"/>
<path d="M3538 2793 c7 -3 16 -2 19 1 4 3 -2 6 -13 5 -11 0 -14 -3 -6 -6z"/>
<path d="M3435 2769 c9 -14 69 -20 100 -9 l30 10 -31 -4 c-16 -3 -47 -1 -67 4
-20 4 -34 4 -32 -1z"/>
<path d="M4053 2963 c9 -2 23 -2 30 0 6 3 -1 5 -18 5 -16 0 -22 -2 -12 -5z"/>
<path d="M3648 2853 c-16 -2 -28 -8 -28 -13 0 -7 24 -4 95 13 25 6 -29 6 -67
0z"/>
<path d="M3273 2791 c-50 -9 -95 -20 -100 -25 -4 -5 5 -6 22 -3 17 4 65 11
108 18 43 6 80 16 83 20 6 11 4 10 -113 -10z"/>
<path d="M4030 2669 c-14 -6 -70 -22 -125 -36 -55 -13 -107 -30 -115 -37 -8
-7 -54 -20 -102 -29 -48 -10 -99 -22 -114 -27 -26 -10 -26 -12 -10 -28 26 -26
129 -23 184 6 23 12 60 22 81 22 38 0 223 41 273 61 37 15 44 40 18 61 -25 20
-52 22 -90 7z m74 -15 c8 -3 12 -12 9 -20 -3 -8 -9 -11 -14 -8 -10 6 -209 -36
-222 -47 -5 -4 21 -1 59 7 95 20 91 10 -6 -13 -66 -16 -82 -17 -91 -6 -13 15
-33 18 -24 3 3 -5 0 -10 -7 -10 -7 0 -30 -9 -51 -20 -45 -24 -114 -35 -154
-25 -25 6 -19 9 47 26 41 10 84 18 95 19 11 0 34 7 50 16 30 16 245 80 277 83
9 0 23 -2 32 -5z m-51 -51 c-7 -2 -19 -2 -25 0 -7 3 -2 5 12 5 14 0 19 -2 13
-5z"/>
<path d="M4540 2593 c-37 -7 -561 -139 -670 -169 -52 -15 -102 -26 -110 -26
-8 0 -87 18 -175 40 -184 47 -412 102 -422 102 -4 0 -3 -4 2 -9 6 -5 141 -42
300 -81 l290 -72 65 16 c36 9 144 36 240 61 96 25 247 64 335 86 167 43 243
70 145 52z"/>
<path d="M3754 2324 c-4 -29 -2 -50 5 -57 8 -8 11 4 11 46 0 31 -2 57 -4 57
-3 0 -8 -21 -12 -46z"/>
<path d="M3625 1619 c-109 -161 -186 -237 -331 -324 -32 -19 -53 -35 -48 -35
5 0 45 21 89 47 126 73 243 199 339 366 45 77 24 54 -49 -54z"/>
<path d="M3703 1552 c-76 -207 -198 -439 -315 -597 l-30 -40 36 40 c84 94 191
270 257 425 40 95 101 270 97 281 -2 4 -22 -45 -45 -109z"/>
<path d="M3917 1535 c-11 -168 -20 -531 -14 -525 7 7 31 603 25 621 -3 8 -8
-36 -11 -96z"/>
<path d="M3435 1538 c-38 -28 -115 -72 -170 -99 -55 -27 -91 -49 -80 -49 43 0
274 136 315 185 18 22 13 19 -65 -37z"/>
</g>
</svg>
