<?xml version="1.0" standalone="no"?>
<!DOCTYPE svg PUBLIC "-//W3C//DTD SVG 20010904//EN"
 "http://www.w3.org/TR/2001/REC-SVG-20010904/DTD/svg10.dtd">
<svg version="1.0" xmlns="http://www.w3.org/2000/svg"
 width="1024.000000pt" height="559.000000pt" viewBox="0 0 1024.000000 559.000000"
 preserveAspectRatio="xMidYMid meet">
<metadata>
Created by potrace 1.16, written by Peter Selinger 2001-2019
</metadata>
<g transform="translate(0.000000,559.000000) scale(0.100000,-0.100000)"
fill="#000000" stroke="none">
<path d="M4998 5070 c-65 -27 -116 -60 -161 -108 -48 -49 -61 -100 -41 -156 7
-23 14 -70 14 -104 0 -49 5 -70 20 -89 13 -17 20 -41 20 -70 0 -37 12 -66 71
-169 39 -68 79 -129 89 -134 24 -13 86 -13 111 0 12 7 19 7 19 1 0 -6 -9 -15
-20 -21 -39 -21 -142 -113 -171 -153 -29 -40 -52 -106 -83 -240 -8 -37 -34
-117 -56 -177 -45 -123 -48 -145 -22 -159 50 -30 52 -34 37 -85 -11 -35 -28
-60 -65 -93 -28 -25 -88 -93 -134 -152 -112 -142 -165 -186 -236 -196 -30 -4
-91 -24 -135 -45 -44 -21 -88 -41 -98 -44 -27 -9 -32 -34 -11 -57 16 -17 28
-20 67 -16 l47 4 -27 -36 c-15 -20 -44 -58 -65 -84 -27 -35 -38 -59 -38 -83 0
-19 5 -34 10 -34 6 0 10 -6 10 -12 1 -29 20 -40 73 -44 31 -2 59 0 62 6 3 5
21 10 39 10 63 0 194 124 242 228 25 55 33 62 158 145 72 48 168 119 213 157
75 63 87 79 127 162 l44 91 3 -105 c4 -84 8 -110 24 -133 11 -15 25 -36 30
-45 6 -10 16 -24 23 -32 10 -12 6 -28 -17 -80 -16 -35 -37 -100 -46 -143 -9
-44 -27 -118 -40 -165 -47 -168 -114 -440 -126 -515 -12 -70 -12 -78 3 -89 16
-11 16 -17 3 -67 -20 -73 -18 -150 4 -234 10 -38 24 -113 30 -165 14 -112 32
-210 62 -340 27 -119 36 -250 19 -291 -19 -45 -111 -115 -226 -170 -107 -52
-134 -77 -134 -128 0 -22 8 -35 27 -48 38 -25 213 -24 297 1 32 9 117 23 188
31 71 7 135 19 143 25 19 16 12 128 -14 230 -31 119 -33 277 -7 435 22 132 17
229 -19 360 -31 115 -31 127 5 204 27 55 33 63 53 57 103 -28 134 -29 226 -12
51 10 94 16 95 15 2 -2 13 -46 26 -98 22 -90 29 -103 114 -226 15 -22 43 -71
62 -108 19 -37 68 -120 108 -185 87 -139 126 -214 137 -262 4 -19 12 -53 18
-75 5 -22 8 -51 5 -65 -18 -79 -109 -221 -164 -253 -27 -16 -30 -23 -30 -68 0
-47 2 -51 34 -64 82 -35 235 -27 305 16 17 10 43 37 58 59 16 23 48 68 73 101
74 100 75 103 51 165 -11 30 -38 84 -61 121 -22 37 -40 73 -40 81 0 8 -6 28
-14 45 -24 53 -34 96 -61 249 -32 186 -51 236 -131 348 -74 103 -84 125 -84
184 0 40 2 44 30 50 20 3 37 16 48 36 13 23 31 34 84 50 37 11 71 27 76 36 8
14 -113 646 -147 773 -7 23 -11 44 -9 46 2 2 75 23 163 49 127 36 165 51 183
71 12 14 22 34 22 43 0 20 -55 166 -158 417 l-78 190 -42 -3 c-49 -3 -52 4
-15 33 35 28 31 41 -63 200 -64 108 -78 140 -84 191 -4 34 -12 70 -18 80 -12
23 -133 143 -159 158 -10 6 -31 22 -46 36 -32 28 -57 37 -107 39 -19 1 -53 10
-75 21 -49 23 -93 25 -122 5 -20 -14 -26 -14 -60 0 -74 31 -119 92 -103 141 5
16 15 76 24 134 29 207 -16 310 -167 384 -67 33 -79 36 -162 35 -65 0 -103 -6
-137 -19z m242 -20 c54 -15 131 -70 162 -115 40 -59 53 -133 39 -225 -6 -41
-11 -91 -11 -110 0 -19 -5 -42 -10 -50 -9 -13 -11 -13 -20 0 -6 8 -8 24 -4 35
22 78 26 99 20 130 -8 43 -43 69 -80 59 -26 -6 -56 -48 -56 -78 0 -28 -19 -27
-26 1 -3 15 -14 39 -23 53 -9 14 -21 41 -28 60 l-12 35 3 -32 c3 -34 -7 -44
-18 -18 -3 8 -8 37 -12 65 -4 28 -11 53 -15 56 -5 3 -22 -4 -38 -15 -36 -26
-45 -26 -38 -1 7 28 -1 25 -41 -16 -33 -34 -59 -41 -32 -9 7 9 10 19 6 22 -4
4 -18 -7 -32 -25 -34 -43 -56 -43 -47 1 6 29 5 31 -10 19 -9 -8 -17 -23 -19
-35 -4 -32 -21 -27 -34 11 l-10 32 -19 -37 c-14 -29 -19 -34 -23 -20 -6 30 17
74 63 116 102 94 238 128 365 91z m-79 -266 c6 -12 22 -28 35 -35 16 -8 28
-27 36 -56 15 -60 40 -58 70 5 17 34 30 48 47 50 31 5 41 -12 41 -68 0 -63
-28 -116 -59 -112 -16 3 -22 -1 -19 -10 3 -7 16 -13 31 -13 25 -1 67 -40 67
-63 0 -21 82 -101 119 -115 l39 -16 -33 -78 c-39 -90 -62 -109 -179 -148 -92
-31 -174 -33 -207 -6 -24 19 -24 19 -5 57 l18 39 21 -40 c19 -35 22 -37 25
-18 2 13 -7 41 -19 63 -22 38 -22 40 -4 60 28 31 13 33 -38 5 -34 -19 -57 -25
-89 -23 -41 3 -43 5 -90 83 -31 51 -43 81 -35 83 23 6 97 43 102 52 8 14 -6
40 -22 40 -12 0 -13 -3 -4 -14 10 -12 5 -18 -31 -34 -24 -10 -47 -17 -52 -14
-5 3 -6 42 -4 87 3 45 1 89 -4 98 -5 9 -27 20 -49 23 l-40 7 6 75 c3 41 7 77
9 80 3 2 12 -3 21 -12 19 -19 35 -21 35 -5 0 6 6 9 14 6 8 -3 38 3 68 14 29
11 66 22 82 24 16 3 38 11 50 19 20 13 21 12 28 -28 4 -22 13 -51 19 -62z
m-271 -158 c-25 -14 -40 -13 -40 5 0 5 15 9 33 9 l32 -1 -25 -13z m10 -108 c0
-38 -3 -49 -10 -38 -13 20 -13 90 0 90 6 0 10 -24 10 -52z m803 -150 c12 -7
53 -18 92 -25 46 -8 75 -19 85 -31 9 -11 34 -31 57 -45 43 -27 130 -114 150
-150 19 -34 15 -45 -6 -18 l-18 24 -34 -21 c-70 -43 -134 -191 -193 -445 l-33
-140 -44 -13 c-24 -7 -45 -12 -47 -10 -2 2 2 41 8 87 5 46 22 176 36 289 14
113 29 230 33 261 7 58 25 94 69 142 20 21 22 27 10 27 -39 0 -101 -107 -155
-265 -51 -150 -141 -517 -122 -498 4 4 31 94 59 198 61 228 108 376 122 390 8
7 9 4 4 -9 -12 -35 -34 -180 -56 -366 -11 -102 -24 -203 -28 -225 l-7 -40
-140 -36 c-77 -20 -148 -39 -157 -44 -16 -6 -38 -60 -38 -91 0 -7 23 -71 50
-144 28 -73 50 -136 50 -141 0 -5 -21 -9 -46 -9 l-45 0 20 29 c34 47 24 46
-30 -3 -47 -42 -69 -52 -109 -46 -30 4 -32 19 -6 52 59 78 90 185 166 583 74
388 116 538 189 683 28 56 34 62 62 62 17 0 40 -6 52 -12z m-593 -208 c0 -5
-4 -10 -10 -10 -6 0 -10 -31 -10 -72 0 -64 8 -120 49 -354 19 -105 63 -262 97
-344 20 -47 40 -96 46 -110 14 -35 -6 -88 -27 -70 -63 52 -184 551 -202 832
-6 94 -5 98 18 117 27 23 39 26 39 11z m345 -42 c-42 -35 -147 -98 -162 -98
-7 0 -13 -5 -13 -11 0 -22 100 24 155 72 40 36 40 35 19 -41 -20 -72 -102
-183 -163 -221 -39 -25 -42 -29 -21 -29 17 0 44 21 90 68 l66 68 -22 -110
c-12 -61 -36 -187 -53 -281 -18 -93 -37 -188 -43 -209 l-10 -39 -19 42 c-58
130 -131 435 -159 661 -15 127 -17 121 27 99 64 -33 171 -21 273 29 64 32 74
31 35 0z m-425 -70 c0 -29 9 -111 20 -183 51 -346 127 -614 189 -672 17 -15
20 -27 15 -47 -9 -36 -20 -41 -49 -22 -31 20 -32 10 -4 -20 22 -23 20 -59 -3
-52 -36 12 -48 54 -58 189 -11 153 -46 333 -96 492 -61 196 -74 185 -19 -17
20 -71 34 -134 32 -139 -2 -6 -23 33 -47 86 -25 54 -48 97 -53 97 -18 0 37
-128 84 -198 30 -44 62 -163 47 -177 -9 -9 -144 43 -207 80 -90 53 -89 48 -43
172 39 104 63 187 77 266 12 73 79 197 106 197 5 0 9 -24 9 -52z m1070 -38
c22 -45 67 -126 100 -180 77 -131 78 -135 39 -149 -18 -6 -40 -11 -50 -11 -27
0 -123 -45 -173 -80 -24 -17 -74 -39 -113 -49 l-69 -18 26 112 c55 230 114
382 166 430 15 14 28 25 30 25 2 0 22 -36 44 -80z m128 -386 c-6 -5 -65 -21
-143 -39 -53 -12 -14 14 61 40 43 15 72 21 78 15 5 -5 7 -12 4 -16z m207 -304
l114 -285 -32 -11 c-18 -6 -151 -44 -297 -84 -146 -40 -309 -85 -362 -100 -80
-22 -98 -24 -103 -13 -9 26 -5 32 23 35 32 4 40 37 19 78 -18 36 -31 31 -38
-15 -5 -35 -6 -32 -8 23 -1 55 1 62 19 62 55 0 90 43 122 148 28 93 104 118
127 42 6 -20 8 -52 5 -69 -6 -27 -3 -33 14 -38 18 -4 20 -9 11 -25 -7 -13 -7
-23 0 -32 6 -7 8 -16 4 -19 -3 -4 0 -14 8 -23 8 -9 14 -24 14 -33 0 -22 48
-26 65 -6 10 12 11 21 3 34 -6 9 -14 32 -18 50 -4 20 -14 35 -26 38 -22 6 -24
14 -6 32 10 10 7 17 -15 34 -34 28 -50 71 -42 114 5 29 3 35 -14 40 -14 3 -28
26 -46 76 -34 93 -33 101 9 114 40 13 36 17 69 -72 19 -49 24 -78 20 -102 -5
-29 -3 -35 14 -40 25 -6 44 -56 36 -89 -3 -13 -3 -32 2 -41 4 -10 8 -21 9 -25
2 -5 3 -9 5 -10 1 -2 3 -10 5 -18 2 -8 9 -28 16 -45 7 -16 11 -34 10 -39 -3
-15 21 -36 44 -36 30 0 53 26 37 42 -7 7 -12 20 -12 30 0 10 -4 18 -9 18 -5 0
-12 18 -16 40 -4 22 -11 42 -16 46 -5 3 -9 14 -9 26 0 11 -8 22 -20 25 -25 7
-47 68 -31 87 14 17 5 43 -17 48 -11 3 -29 36 -48 86 l-32 82 39 12 c22 6 41
9 42 7 2 -2 18 -40 35 -83 23 -59 28 -83 20 -93 -13 -16 -3 -43 16 -43 21 0
46 -70 32 -92 -8 -13 -8 -23 2 -38 6 -11 12 -25 12 -31 0 -6 6 -25 14 -42 8
-18 18 -45 23 -62 7 -21 17 -31 35 -33 32 -4 53 20 39 45 -11 21 -23 53 -26
68 0 6 -7 24 -15 40 -14 32 -17 39 -19 54 0 5 -9 12 -19 15 -23 8 -47 77 -31
87 17 10 6 44 -16 47 -15 2 -27 20 -44 70 -13 37 -28 73 -34 79 -11 15 34 36
66 31 28 -4 83 -145 67 -171 -12 -20 2 -47 24 -47 19 0 40 -68 27 -84 -12 -14
-10 -20 25 -103 8 -17 14 -38 14 -47 0 -9 4 -16 9 -16 5 0 11 -10 13 -22 2
-18 9 -22 28 -20 13 1 29 7 34 12 9 9 -7 63 -40 137 -8 17 -14 38 -14 47 0 9
-10 20 -23 25 -25 10 -52 76 -36 87 17 10 9 39 -12 49 -14 6 -32 36 -51 83
-29 75 -29 92 0 92 13 0 41 -61 116 -250 88 -222 116 -283 116 -252 0 15 -198
504 -209 515 -12 12 -842 -190 -863 -211 -5 -5 5 -47 23 -93 17 -46 42 -115
56 -154 14 -38 43 -117 65 -175 22 -58 45 -117 50 -132 6 -16 17 -28 25 -28 8
0 11 -4 8 -10 -3 -5 -14 -10 -24 -10 -20 0 -15 -11 -157 374 -46 125 -84 234
-84 240 0 13 869 237 903 233 14 -2 45 -69 132 -287z m-511 135 c3 -8 0 -15
-6 -15 -7 0 -31 -20 -54 -45 -39 -43 -90 -63 -78 -31 3 7 -2 21 -12 30 -35 35
-92 -3 -66 -44 11 -18 6 -29 -50 -99 -35 -44 -70 -80 -79 -80 -27 -1 -30 -29
-8 -73 29 -56 63 -88 95 -88 l27 0 -6 -106 c-6 -108 -10 -125 -27 -108 -9 9
-197 511 -202 541 -2 13 38 27 217 74 121 32 225 58 231 58 7 1 14 -6 18 -14z
m-914 -79 c30 -10 60 -19 67 -21 17 -5 -44 -145 -86 -197 -49 -61 -136 -132
-287 -233 -124 -83 -132 -90 -161 -149 -35 -70 -118 -166 -175 -202 -43 -28
-48 -29 -48 -11 0 7 13 23 30 35 32 24 66 69 58 78 -7 7 -118 -101 -118 -114
0 -17 -37 -34 -45 -22 -4 6 19 38 49 72 31 34 56 69 56 77 -1 16 -4 13 -106
-101 -23 -27 -47 -48 -53 -48 -23 0 -10 31 34 80 54 61 80 99 72 106 -5 5 -41
-31 -102 -103 -28 -35 -45 -42 -45 -20 0 10 128 187 156 216 2 2 17 -2 33 -9
23 -9 38 -9 65 0 54 18 51 26 -12 28 -31 0 -73 2 -92 3 -19 0 -56 -2 -81 -6
-49 -8 -78 8 -37 20 13 4 54 22 91 41 38 20 93 38 127 42 50 7 67 16 113 54
29 26 82 84 118 130 35 46 96 116 136 156 57 56 75 82 84 117 l11 44 47 -23
c25 -13 71 -31 101 -40z m957 -91 c-9 -8 -20 -15 -25 -15 -21 0 -59 -60 -86
-134 -18 -49 -36 -80 -50 -88 -20 -11 -20 -10 -3 9 27 31 20 37 -17 14 l-34
-22 -7 31 c-4 17 -2 36 3 43 6 7 12 24 14 37 2 14 7 30 11 37 11 18 -10 25
-35 12 -13 -7 -38 -25 -56 -41 -33 -29 -52 -32 -59 -11 -2 6 23 42 57 81 53
62 66 71 112 82 41 10 61 23 97 62 l45 49 24 -65 c22 -59 22 -67 9 -81z m-207
85 c0 -13 -7 -20 -20 -20 -13 0 -20 7 -20 20 0 13 7 20 20 20 13 0 20 -7 20
-20z m565 -21 c-8 -12 -35 -12 -35 0 0 11 22 20 33 14 4 -2 5 -9 2 -14z m-811
-353 c76 -203 92 -255 70 -233 -6 5 -145 369 -164 427 -4 14 -17 48 -27 75
-11 28 -18 56 -15 64 5 16 12 0 136 -333z m716 334 c0 -5 -9 -10 -20 -10 -11
0 -20 5 -20 10 0 6 9 10 20 10 11 0 20 -4 20 -10z m-105 -30 c-3 -5 -13 -10
-21 -10 -8 0 -14 5 -14 10 0 6 9 10 21 10 11 0 17 -4 14 -10z m-110 -30 c-3
-5 -13 -10 -21 -10 -8 0 -14 5 -14 10 0 6 9 10 21 10 11 0 17 -4 14 -10z m360
-50 c-3 -5 -13 -10 -21 -10 -8 0 -12 5 -9 10 3 6 13 10 21 10 8 0 12 -4 9 -10z
m-109 -32 c-10 -6 -20 -7 -24 -3 -9 8 20 25 31 18 5 -3 2 -10 -7 -15z m124 -8
c0 -5 -7 -10 -16 -10 -8 0 -12 5 -9 10 3 6 10 10 16 10 5 0 9 -4 9 -10z m-659
-33 c-16 -16 -26 0 -10 19 9 11 15 12 17 4 2 -6 -1 -17 -7 -23z m439 23 c0 -5
-7 -10 -15 -10 -8 0 -15 5 -15 10 0 6 7 10 15 10 8 0 15 -4 15 -10z m115 -19
c-3 -6 -14 -11 -23 -11 -15 1 -15 2 2 15 21 16 32 13 21 -4z m-637 -52 c44
-38 47 -59 7 -59 -17 0 -75 75 -75 97 0 16 11 9 68 -38z m762 41 c0 -5 -7 -10
-15 -10 -8 0 -15 5 -15 10 0 6 7 10 15 10 8 0 15 -4 15 -10z m-335 -20 c-3 -5
-13 -10 -21 -10 -8 0 -14 5 -14 10 0 6 9 10 21 10 11 0 17 -4 14 -10z m115 0
c0 -5 -7 -10 -15 -10 -8 0 -15 5 -15 10 0 6 7 10 15 10 8 0 15 -4 15 -10z
m-469 -36 c4 -16 7 -83 8 -149 0 -66 5 -136 11 -154 10 -35 -4 -111 -20 -111
-16 0 -31 85 -20 120 13 45 13 271 0 305 -8 20 -7 26 2 23 7 -3 16 -18 19 -34z
m584 26 c-3 -5 -10 -10 -16 -10 -5 0 -9 5 -9 10 0 6 7 10 16 10 8 0 12 -4 9
-10z m115 -10 c0 -5 -8 -10 -17 -10 -15 0 -16 2 -3 10 19 12 20 12 20 0z
m-225 -20 c-3 -5 -10 -10 -16 -10 -5 0 -9 5 -9 10 0 6 7 10 16 10 8 0 12 -4 9
-10z m125 -10 c0 -5 -7 -10 -15 -10 -8 0 -15 5 -15 10 0 6 7 10 15 10 8 0 15
-4 15 -10z m-226 -9 c3 -5 -1 -11 -9 -15 -15 -6 -29 7 -18 18 9 9 21 8 27 -3z
m346 -1 c0 -5 -7 -10 -15 -10 -8 0 -15 5 -15 10 0 6 7 10 15 10 8 0 15 -4 15
-10z m-220 -20 c0 -5 -9 -10 -21 -10 -11 0 -17 5 -14 10 3 6 13 10 21 10 8 0
14 -4 14 -10z m120 -10 c0 -5 -9 -10 -21 -10 -11 0 -17 5 -14 10 3 6 13 10 21
10 8 0 14 -4 14 -10z m-238 -22 c-6 -6 -15 -8 -19 -4 -4 4 -1 11 7 16 8 5 17
7 19 4 3 -2 -1 -10 -7 -16z m128 -8 c0 -5 -9 -10 -21 -10 -11 0 -17 5 -14 10
3 6 13 10 21 10 8 0 14 -4 14 -10z m-762 -18 c3 -9 -15 -12 -61 -12 -68 0
-106 8 -89 19 19 12 145 6 150 -7z m1058 11 c-8 -8 -18 -11 -381 -112 -121
-34 -255 -71 -297 -83 -43 -12 -81 -19 -85 -15 -3 4 -4 9 -2 10 2 2 102 30
223 62 120 32 284 77 365 101 142 41 192 52 177 37z m-401 -23 c-3 -5 -13 -10
-21 -10 -8 0 -12 5 -9 10 3 6 13 10 21 10 8 0 12 -4 9 -10z m-848 -10 c9 0 8
-11 -3 -42 -13 -38 -53 -209 -54 -231 0 -5 4 -6 8 -3 5 3 14 31 21 63 7 32 22
91 33 131 19 65 24 73 42 68 12 -3 53 -6 92 -6 l71 0 32 -86 c17 -48 29 -89
27 -91 -9 -10 -157 -18 -171 -10 -30 17 -69 4 -80 -26 -8 -24 -6 -31 8 -42 17
-12 13 -28 -64 -247 -45 -128 -89 -241 -97 -250 -19 -22 -8 -50 33 -87 43 -37
91 -51 180 -51 83 0 138 22 178 69 31 38 32 44 12 79 -8 15 -54 128 -101 252
-47 123 -87 227 -89 230 -1 3 71 5 161 5 159 0 163 -1 173 -22 14 -30 45 -29
59 1 10 22 15 23 167 30 86 4 159 5 161 3 3 -2 -1 -17 -7 -33 -6 -16 -44 -120
-84 -231 -40 -111 -80 -209 -89 -218 -13 -14 -14 -21 -3 -48 25 -61 105 -97
214 -97 l62 0 7 -46 c3 -25 3 -49 -2 -54 -16 -16 -127 -40 -181 -40 -30 0 -96
5 -147 10 -82 10 -106 8 -194 -10 -118 -24 -156 -25 -208 -6 -22 7 -70 19
-109 25 -38 7 -108 23 -155 36 -47 13 -111 29 -144 35 l-58 12 6 41 c9 56 89
380 120 487 13 47 32 123 41 170 10 47 31 120 48 163 27 69 33 78 51 73 12 -3
26 -6 33 -6z m513 -62 c0 -10 -4 -18 -10 -18 -5 0 -10 15 -10 33 0 24 3 28 10
17 5 -8 10 -23 10 -32z m409 -153 c12 -55 32 -158 46 -230 13 -71 32 -167 43
-212 11 -46 16 -83 12 -83 -4 0 -47 108 -97 239 -69 183 -87 241 -77 245 17 7
18 48 2 64 -15 15 -64 16 -73 2 -7 -12 -129 -12 -165 0 -14 4 -22 8 -17 9 4 1
42 10 85 22 42 12 106 29 142 38 36 10 68 15 71 12 3 -3 16 -51 28 -106z m-90
1 c10 -12 8 -13 -8 -9 -12 3 -27 1 -34 -4 -6 -6 -76 -13 -154 -16 -136 -6
-143 -6 -143 12 0 18 7 19 138 14 93 -4 145 -2 158 5 25 15 29 15 43 -2z
m-741 -18 c8 -8 42 -8 139 1 161 14 163 14 163 -4 0 -13 -24 -15 -154 -15
-101 0 -157 4 -162 11 -4 8 -9 8 -17 0 -17 -17 -31 -13 -17 4 15 18 32 19 48
3z m685 -435 c-47 -40 -100 -69 -109 -60 -3 3 15 66 41 139 26 73 59 167 73
208 l27 75 3 -165 3 -165 -38 -32z m137 142 c40 -108 71 -198 68 -201 -6 -6
-87 36 -123 64 -25 20 -25 21 -25 176 0 86 2 156 4 156 2 0 36 -88 76 -195z
m-860 51 c0 -125 -1 -134 -20 -139 -20 -5 -29 -47 -10 -47 6 0 10 -4 10 -10 0
-5 -6 -10 -14 -10 -8 0 -17 -13 -21 -29 -5 -25 -12 -29 -48 -34 -23 -3 -43 -5
-44 -4 -1 2 16 52 37 112 21 61 53 152 70 203 18 50 34 92 36 92 2 0 4 -60 4
-134z m110 -79 c40 -103 71 -190 68 -192 -2 -2 -22 -1 -46 2 -36 5 -42 9 -42
30 0 13 -7 26 -15 29 -10 4 -12 15 -8 35 5 24 1 30 -21 39 l-26 10 0 132 c0
81 4 127 9 118 5 -8 41 -100 81 -203z m-60 -87 c0 -5 -4 -10 -10 -10 -18 0
-10 -39 10 -50 16 -8 20 -21 20 -60 l0 -50 -55 0 c-60 0 -62 3 -49 69 6 26 11
31 38 32 24 1 26 3 8 6 -19 4 -21 7 -11 19 9 11 8 18 -6 34 -18 20 -17 20 18
20 21 0 37 -4 37 -10z m755 -50 c10 -11 24 -20 31 -20 7 0 27 -15 43 -32 27
-29 29 -34 13 -40 -24 -9 -234 -9 -249 0 -9 5 -3 17 18 40 16 18 35 32 42 32
7 0 18 9 25 20 7 11 23 20 36 20 12 0 31 -9 41 -20z m-185 -70 c0 -5 -10 -10
-22 -10 -19 0 -20 2 -8 10 19 13 30 13 30 0z m335 0 c3 -5 -1 -10 -9 -10 -8 0
-18 5 -21 10 -3 6 1 10 9 10 8 0 18 -4 21 -10z m-1015 -25 c0 -21 -5 -25 -27
-25 -16 1 -41 7 -58 14 l-30 13 30 8 c17 4 35 8 40 10 31 10 45 4 45 -20z
m254 5 c12 -12 -40 -32 -73 -28 -19 2 -27 10 -29 27 -4 23 -2 23 45 16 26 -3
52 -11 57 -15z m571 -29 c55 0 119 4 143 8 l43 9 -22 -24 c-24 -26 -103 -54
-150 -54 -59 0 -132 23 -163 50 l-31 29 40 -9 c22 -5 85 -9 140 -9z m231 -36
c12 -52 5 -62 -48 -74 -18 -5 -43 -11 -54 -15 -18 -5 -22 -2 -26 19 -5 22 0
29 33 45 21 11 46 31 56 45 10 13 20 25 23 25 3 0 10 -20 16 -45z m-981 10
c50 0 110 3 135 7 l45 8 -29 -24 c-34 -28 -89 -46 -143 -46 -52 0 -135 25
-165 50 l-23 20 45 -7 c25 -4 86 -7 135 -8z m-116 -186 c40 -10 82 -19 92 -19
23 0 23 -1 0 -42 -42 -71 -45 -113 -16 -233 37 -160 40 -227 16 -382 -12 -72
-21 -156 -21 -186 l0 -54 -47 -6 c-27 -3 -66 -2 -88 2 -37 6 -40 9 -47 46 -3
22 -22 114 -41 205 -19 91 -40 212 -47 270 -7 58 -21 134 -31 170 -21 70 -24
145 -10 200 5 19 12 47 15 62 l6 26 72 -20 c40 -10 106 -28 147 -39z m762 -34
l97 0 6 -59 c6 -63 11 -73 93 -186 61 -84 88 -151 109 -264 39 -222 47 -262
55 -278 18 -34 -49 -78 -119 -78 -35 0 -38 3 -62 57 -13 32 -60 114 -103 183
-76 119 -167 277 -167 287 0 3 8 2 17 -1 9 -4 -8 19 -39 51 -30 32 -62 72 -71
89 -20 39 -66 202 -59 209 3 2 37 2 76 -3 39 -4 114 -7 167 -7z m389 -843 c0
-11 -39 -46 -67 -61 -27 -14 -113 -15 -113 -1 0 6 16 10 35 10 35 0 108 30
120 50 7 12 25 13 25 2z m-1067 -78 c-3 -13 -41 -22 -98 -23 -60 -1 -95 7 -95
23 0 7 31 11 98 10 53 -1 96 -5 95 -10z m1084 -61 c-3 -18 -2 -33 4 -33 5 0
10 6 10 13 1 6 5 -22 10 -63 4 -41 5 -78 2 -83 -2 -4 -22 8 -43 27 -21 19 -51
41 -67 49 -27 14 -28 18 -25 74 3 57 5 59 40 74 35 16 38 16 55 -5 14 -14 17
-30 14 -53z m-137 -16 c0 -78 -50 -207 -90 -232 -16 -10 -12 3 27 82 28 57 38
91 41 139 5 77 22 86 22 11z m-964 -121 c-20 -28 -41 -66 -47 -83 -9 -27 -16
-33 -40 -33 -21 0 -29 5 -29 18 0 10 -16 44 -35 76 -32 54 -34 60 -20 79 9 12
20 39 25 59 10 34 13 36 43 32 17 -3 50 -1 72 3 l40 9 13 -54 13 -55 -35 -51z
m-171 117 c-17 -41 -29 -57 -65 -90 -38 -35 -139 -95 -152 -91 -6 2 13 18 43
35 77 44 146 108 159 148 6 19 16 35 21 35 5 0 2 -17 -6 -37z m1340 -28 c12
-28 13 -39 3 -61 l-13 -27 -6 24 c-9 30 -11 99 -3 99 3 0 12 -16 19 -35z
m-137 -79 c48 -30 76 -62 67 -76 -4 -7 -20 2 -45 24 -21 18 -47 37 -59 41 -21
6 -26 16 -14 28 9 10 9 10 51 -17z m-1188 -70 c24 -50 25 -66 5 -66 -8 0 -15
8 -15 18 0 10 -13 39 -29 64 -16 25 -27 49 -24 52 10 10 41 -24 63 -68z m213
38 c9 -51 -6 -81 -43 -89 -17 -4 -34 -4 -38 -1 -10 11 50 126 67 126 5 0 11
-16 14 -36z m1129 -2 c-13 -15 -43 -58 -69 -97 -65 -99 -91 -123 -147 -140
-59 -18 -155 -18 -211 -1 -36 11 -27 12 92 11 155 0 163 4 230 106 56 84 116
160 122 153 2 -2 -5 -17 -17 -32z m-1381 -69 c13 -39 13 -38 -24 -47 -23 -6
-29 -3 -38 21 -6 15 -18 36 -27 46 -16 18 -15 20 7 38 24 20 24 19 47 -2 13
-12 28 -37 35 -56z m1072 62 c-3 -9 -8 -14 -10 -11 -3 3 -2 9 2 15 9 16 15 13
8 -4z m120 4 c32 -17 77 -61 77 -76 0 -17 3 -18 -67 20 -52 27 -60 35 -52 50
12 20 14 20 42 6z m-1300 -56 c21 -24 31 -69 18 -77 -6 -4 -17 8 -25 27 -8 19
-19 38 -25 41 -12 8 -6 26 8 26 4 0 15 -8 24 -17z m1152 7 c-3 -5 -11 -10 -16
-10 -6 0 -7 5 -4 10 3 6 11 10 16 10 6 0 7 -4 4 -10z m-1260 -10 c3 -5 17 -10
30 -10 17 0 29 -9 40 -30 8 -16 15 -31 15 -33 0 -12 -162 -19 -173 -8 -15 15
2 31 44 40 18 4 34 12 37 19 6 18 -57 4 -93 -21 -24 -16 -27 -17 -16 -3 15 18
77 53 98 55 6 1 15 -3 18 -9z m1423 -26 c23 -14 42 -28 42 -33 0 -19 -15 -18
-44 4 -17 13 -43 27 -58 30 -16 4 -28 14 -28 22 0 18 28 11 88 -23z m-172 -15
c4 -7 22 -9 50 -4 33 5 52 1 83 -14 53 -27 56 -36 25 -60 -31 -24 -44 -20 -37
12 4 21 4 22 -11 3 -9 -11 -16 -23 -16 -28 0 -4 -7 -8 -15 -8 -13 0 -14 4 -5
21 7 11 9 23 6 27 -8 7 -35 -28 -36 -45 0 -16 -30 -17 -30 -2 0 6 5 20 11 31
9 16 8 19 -3 16 -7 -2 -19 -16 -26 -31 -8 -17 -18 -24 -27 -20 -13 4 -12 11 6
39 26 42 8 45 -23 4 -13 -18 -31 -30 -45 -30 -36 0 -27 31 20 67 45 34 62 39
73 22z m-776 -8 c0 -16 -32 -22 -130 -28 -52 -3 -129 -14 -170 -25 -148 -39
-298 -35 -314 9 -4 10 4 8 30 -7 34 -22 40 -22 132 -12 53 6 130 20 171 31 41
12 106 21 145 22 39 1 82 5 96 9 35 11 40 11 40 1z"/>
<path d="M4905 4774 l-40 -13 40 5 c42 6 85 24 55 23 -8 0 -33 -7 -55 -15z"/>
<path d="M4990 4758 c-14 -5 -52 -16 -85 -23 -50 -11 -54 -14 -25 -14 30 -1
146 32 159 45 8 8 -24 3 -49 -8z"/>
<path d="M5321 4708 c-6 -16 -4 -30 6 -46 10 -17 11 -27 4 -36 -14 -17 -1 -29
16 -15 17 15 17 38 -2 60 -14 15 -14 18 0 33 9 9 21 13 27 10 7 -4 8 -2 4 4
-12 20 -46 13 -55 -10z"/>
<path d="M5003 4697 c-35 -13 -41 -34 -8 -29 11 2 47 7 80 11 58 7 59 8 32 19
-34 15 -62 14 -104 -1z"/>
<path d="M5017 4643 c-11 -10 -8 -25 3 -18 6 3 10 -1 10 -9 0 -9 9 -16 20 -16
11 0 20 7 20 15 0 8 9 15 20 15 11 0 20 5 20 10 0 11 -83 14 -93 3z"/>
<path d="M5221 4592 c0 -8 -10 -27 -22 -43 -11 -16 -19 -35 -17 -41 7 -20 50
51 45 75 -2 12 -5 16 -6 9z"/>
<path d="M5030 4580 c0 -11 39 -20 45 -10 3 4 -6 10 -20 12 -14 3 -25 2 -25
-2z"/>
<path d="M5310 4488 c0 -32 -11 -54 -59 -118 -20 -27 -21 -31 -5 -22 23 13 58
50 73 79 14 27 15 93 1 93 -5 0 -10 -15 -10 -32z"/>
<path d="M5092 4457 c21 -17 42 -43 47 -57 l10 -25 0 24 c1 24 -60 91 -82 91
-7 0 5 -15 25 -33z"/>
<path d="M5020 4401 l-65 -16 42 -3 c64 -5 122 15 94 32 -3 2 -35 -4 -71 -13z"/>
<path d="M5336 4358 c-10 -31 -15 -212 -6 -197 11 19 26 209 16 209 -4 0 -8
-6 -10 -12z"/>
<path d="M5005 4350 c-14 -6 -16 -9 -5 -10 26 -4 55 1 65 11 12 11 -33 11 -60
-1z"/>
<path d="M5213 4225 c15 -14 33 -25 40 -25 7 0 -1 12 -16 25 -15 14 -33 25
-40 25 -7 0 1 -12 16 -25z"/>
<path d="M5653 4288 c-36 -59 -68 -138 -89 -213 -20 -73 -44 -224 -43 -270 l2
-40 7 40 c4 22 12 70 19 106 18 109 59 239 104 329 23 47 43 88 45 93 2 4 0 7
-5 7 -5 0 -23 -24 -40 -52z"/>
<path d="M5624 4074 c-3 -16 -10 -45 -15 -64 -34 -140 -53 -282 -23 -170 22
81 55 252 50 258 -3 2 -8 -9 -12 -24z"/>
<path d="M5140 4035 c0 -13 57 -84 89 -110 44 -36 68 -36 26 0 -22 19 -57 53
-77 77 -21 24 -38 38 -38 33z"/>
<path d="M6001 3772 c-48 -49 -111 -157 -111 -188 0 -10 20 17 45 61 25 44 67
101 93 128 25 26 40 47 32 47 -7 0 -34 -21 -59 -48z"/>
<path d="M5870 2999 c0 -6 7 -17 15 -25 8 -9 15 -30 14 -47 l0 -32 -17 36
c-10 20 -22 34 -29 32 -16 -6 -17 9 -1 25 9 9 9 12 0 12 -21 0 -32 -36 -21
-69 13 -36 41 -55 69 -46 23 7 27 49 9 89 -12 26 -39 43 -39 25z m0 -82 c0 -5
-4 -5 -10 -2 -5 3 -10 14 -10 23 0 15 2 15 10 2 5 -8 10 -19 10 -23z"/>
<path d="M5600 3360 c-16 -30 4 -60 40 -60 23 0 31 5 36 25 4 15 1 32 -6 40
-18 21 -57 19 -70 -5z m58 -23 c2 -11 -3 -17 -17 -17 -23 0 -35 15 -26 31 10
15 39 6 43 -14z"/>
<path d="M5497 3343 c-11 -11 -8 -48 5 -61 34 -34 90 6 68 48 -10 20 -58 28
-73 13z m53 -34 c0 -20 -24 -26 -35 -9 -4 6 -4 17 -1 25 7 20 36 7 36 -16z"/>
<path d="M4880 3318 c0 -14 49 -33 60 -22 6 6 -4 13 -25 20 -19 6 -35 7 -35 2z"/>
<path d="M4544 2919 c-19 -22 -19 -22 3 -10 24 12 39 31 25 31 -5 0 -17 -10
-28 -21z"/>
<path d="M4364 2756 c21 -17 83 -32 92 -23 4 3 -13 11 -36 17 -23 6 -49 13
-58 16 -14 5 -13 3 2 -10z"/>
<path d="M5710 2740 c0 -5 5 -10 10 -10 6 0 10 5 10 10 0 6 -4 10 -10 10 -5 0
-10 -4 -10 -10z"/>
<path d="M5651 2443 c0 -106 23 -340 34 -351 4 -4 5 11 1 33 -3 22 -11 122
-17 223 -7 100 -14 182 -16 182 -1 0 -3 -39 -2 -87z"/>
<path d="M6090 2249 c0 -4 11 -9 24 -11 17 -3 23 -1 19 8 -5 13 -43 16 -43 3z"/>
<path d="M6050 2220 c20 -13 33 -13 25 0 -3 6 -14 10 -23 10 -15 0 -15 -2 -2
-10z"/>
<path d="M6180 2216 c0 -14 -4 -15 -21 -6 -11 7 -23 9 -27 6 -3 -3 0 -6 7 -6
7 0 9 -4 6 -10 -3 -5 3 -10 15 -10 20 0 38 25 26 37 -3 4 -6 -1 -6 -11z"/>
<path d="M6065 2190 c-3 -5 -2 -10 4 -10 5 0 13 5 16 10 3 6 2 10 -4 10 -5 0
-13 -4 -16 -10z"/>
<path d="M5096 1828 c-3 -7 -7 -28 -10 -45 -8 -50 9 -39 21 12 6 25 6 45 1 45
-5 0 -10 -6 -12 -12z"/>
<path d="M5968 1763 c-2 -5 -1 -28 3 -53 l6 -45 1 53 c2 48 -2 63 -10 45z"/>
<path d="M5270 880 c0 -26 -5 -51 -12 -58 -6 -6 -9 -14 -6 -17 3 -3 13 1 22
10 18 18 21 72 6 95 -7 11 -10 3 -10 -30z"/>
<path d="M4060 2412 c-15 -5 -26 -17 -28 -30 -3 -17 -10 -22 -32 -22 -42 0
-80 -17 -80 -36 0 -15 -9 -16 -71 -10 -57 6 -70 5 -67 -6 3 -8 28 -15 69 -18
50 -4 65 -9 67 -22 3 -14 -3 -18 -23 -18 -42 0 -65 -17 -65 -49 0 -34 14 -41
76 -41 31 0 49 6 60 19 18 21 54 17 54 -5 0 -17 40 -34 78 -34 35 0 75 28 68
46 -3 8 1 14 9 14 8 0 15 -4 15 -9 0 -24 34 -41 79 -41 49 0 71 12 71 40 0 12
8 15 34 12 39 -4 76 12 76 33 0 16 25 18 100 7 l45 -7 -50 -18 c-27 -10 -108
-41 -179 -68 -101 -39 -137 -49 -165 -45 -49 8 -468 46 -503 46 -15 0 -28 -4
-28 -9 0 -4 55 -13 123 -20 67 -7 187 -19 266 -27 79 -8 150 -14 157 -14 10 0
14 -14 14 -50 0 -59 13 -57 -189 -36 -277 30 -373 37 -379 31 -14 -14 27 -22
206 -39 103 -10 189 -20 192 -23 3 -3 6 -305 8 -671 1 -367 6 -670 10 -674 4
-4 39 -12 79 -18 70 -11 74 -11 118 15 l45 27 0 119 0 119 39 0 c22 0 43 5 46
10 4 6 -12 10 -39 10 l-46 0 0 44 c0 44 0 45 56 70 31 14 58 26 60 26 2 0 4
-61 4 -135 0 -123 2 -135 19 -145 36 -19 96 -15 130 9 l31 22 0 654 c0 644 0
654 20 665 17 9 20 21 20 75 0 35 -4 66 -9 70 -6 3 -52 9 -103 15 -51 5 -108
14 -126 21 -18 6 -49 9 -68 6 -29 -5 -34 -3 -34 13 0 28 -35 42 -91 38 -47 -3
-49 -2 -49 24 0 15 -4 29 -8 32 -17 10 -87 15 -112 8z m78 -18 c35 -10 26 -24
-17 -24 -51 0 -78 10 -59 21 15 10 44 11 76 3z m22 -46 c0 -10 -81 -10 -97 0
-6 4 13 7 43 7 30 0 54 -3 54 -7z m-122 -25 c2 -9 -10 -13 -42 -13 -43 0 -55
7 -39 24 12 11 76 2 81 -11z m122 -3 c0 -5 -21 -9 -47 -8 l-48 1 45 7 c25 4
46 8 48 8 1 1 2 -2 2 -8z m134 1 c8 -13 -41 -23 -75 -16 -16 4 -27 11 -23 16
7 12 91 12 98 0z m-249 -36 c6 -2 -16 -4 -47 -4 -32 -1 -58 3 -58 8 0 8 79 5
105 -4z m45 -5 c0 -5 -7 -10 -16 -10 -8 0 -12 5 -9 10 3 6 10 10 16 10 5 0 9
-4 9 -10z m105 -4 c11 -8 16 -20 12 -29 -5 -13 -12 -14 -37 -7 -35 10 -60 27
-60 41 0 14 64 10 85 -5z m77 1 c-24 -7 -36 -7 -44 1 -9 9 -1 12 33 11 l44 -1
-33 -11z m127 -3 c46 -9 38 -24 -13 -24 -44 0 -68 13 -44 23 19 8 22 8 57 1z
m-379 -20 c0 -2 -18 -4 -40 -4 -22 0 -40 3 -40 8 0 4 18 6 40 4 22 -2 40 -6
40 -8z m297 -9 c2 -7 -13 -9 -39 -6 -38 4 -40 5 -18 12 32 9 52 7 57 -6z
m-234 -16 c-15 -15 -83 -23 -83 -10 0 6 12 13 28 17 15 3 32 7 37 9 16 4 28
-6 18 -16z m57 -7 c-7 -3 -19 3 -28 13 -16 15 -15 16 12 4 15 -7 23 -15 16
-17z m290 6 c0 -5 -20 -8 -45 -8 -25 0 -45 3 -45 8 0 4 20 7 45 7 25 0 45 -3
45 -7z m-480 -7 c0 -13 -55 -24 -80 -16 -11 4 -18 11 -15 16 8 12 95 12 95 0z
m360 -11 c0 -5 -20 -10 -45 -10 -25 0 -45 5 -45 10 0 6 20 10 45 10 25 0 45
-4 45 -10z m322 -7 c2 -10 2 -29 -2 -43 -6 -25 -4 -24 -250 -131 -139 -60
-130 -60 -130 -1 l0 50 93 36 c50 19 133 51 182 70 107 41 102 40 107 19z
m-511 -4 c11 -5 17 -14 14 -20 -8 -12 -65 -12 -85 1 -12 7 -10 11 10 19 33 13
38 13 61 0z m-198 -20 c-19 -6 -40 -5 -55 0 -18 8 -12 10 32 9 50 0 52 -1 23
-9z m397 -1 c0 -5 -22 -8 -50 -8 -27 0 -50 3 -50 8 0 4 23 7 50 7 28 0 50 -3
50 -7z m276 -732 c0 -593 -1 -644 -17 -654 -15 -10 -17 -1 -23 96 -4 59 -6
349 -5 645 2 483 3 538 18 547 9 5 18 10 21 10 3 0 5 -290 6 -644z m-66 -30
l0 -643 -32 6 -33 7 -3 134 -2 135 30 17 c25 14 30 23 30 55 0 45 -8 59 -35
64 -20 4 -20 13 -23 426 l-2 421 27 10 c16 6 31 11 36 11 4 1 7 -289 7 -643z
m-97 467 c4 -75 7 -259 7 -409 l0 -274 -50 -25 c-27 -14 -54 -25 -60 -25 -8 0
-10 119 -8 411 l4 412 44 23 c25 13 48 23 51 24 3 0 9 -61 12 -137z m-270 71
l46 -7 -1 -664 0 -665 -51 6 c-28 4 -55 10 -59 12 -14 9 -6 1324 8 1324 6 0
32 -3 57 -6z m132 -645 l0 -651 -26 -13 -26 -14 -6 136 c-4 75 -7 371 -7 659
l0 523 28 4 c15 2 29 5 32 6 3 0 6 -292 5 -650z m152 -150 c-49 -28 -128 -58
-125 -47 5 13 102 57 128 57 11 0 11 -2 -3 -10z m43 -36 c0 -25 -9 -32 -80
-65 -44 -21 -82 -38 -85 -38 -3 0 -5 13 -5 29 0 26 7 32 78 64 42 20 80 36 85
36 4 1 7 -11 7 -26z"/>
<path d="M4440 2116 c-81 -30 -123 -50 -114 -53 9 -3 151 52 163 63 8 8 -14 3
-49 -10z"/>
<path d="M4133 1750 c-1 -139 1 -165 9 -128 7 31 7 92 1 175 l-10 128 0 -175z"/>
<path d="M4156 1457 c-4 -76 -6 -141 -3 -143 8 -9 19 135 15 211 -2 58 -5 46
-12 -68z"/>
<path d="M3823 2059 c7 -4 82 -9 167 -12 95 -4 142 -3 120 3 -41 10 -304 18
-287 9z"/>
<path d="M3585 902 c17 -17 165 -30 245 -21 41 4 101 8 132 8 32 1 60 6 64 13
5 8 -25 9 -122 3 -167 -10 -166 -10 -254 -1 -50 5 -72 5 -65 -2z"/>
<path d="M4773 903 c-143 -5 -151 -23 -10 -23 127 0 237 10 237 21 0 5 -26 8
-57 7 -32 -1 -109 -4 -170 -5z"/>
<path d="M5405 890 c-4 -6 31 -10 98 -10 57 0 153 -7 213 -15 118 -17 394 -11
394 8 0 6 -52 8 -142 5 -91 -3 -181 0 -248 8 -124 16 -306 18 -315 4z"/>
<path d="M6565 871 c-9 -16 26 -21 153 -20 74 0 117 4 102 8 -39 12 -249 22
-255 12z"/>
<path d="M3863 713 c-19 -7 -16 -60 3 -67 27 -10 110 -6 122 6 18 18 14 46 -7
58 -20 10 -96 13 -118 3z m107 -23 c0 -5 -22 -10 -50 -10 -27 0 -50 5 -50 10
0 6 23 10 50 10 28 0 50 -4 50 -10z m-27 -37 c-7 -2 -19 -2 -25 0 -7 3 -2 5
12 5 14 0 19 -2 13 -5z"/>
<path d="M4468 619 c-22 -12 -23 -52 -3 -69 21 -17 85 -23 118 -11 34 13 37
53 5 75 -25 18 -94 21 -120 5z m116 -18 c3 -5 -6 -12 -20 -15 -31 -8 -84 1
-84 15 0 12 97 12 104 0z m-26 -36 c23 4 32 3 27 -4 -11 -19 -115 -10 -115 10
0 5 12 4 27 -2 15 -6 43 -7 61 -4z"/>
<path d="M4273 563 c-7 -2 -13 -17 -13 -33 0 -24 6 -30 35 -40 48 -16 93 -4
108 27 9 21 8 27 -8 39 -18 13 -96 18 -122 7z m111 -22 c9 -15 -48 -23 -77
-12 -15 6 -27 13 -27 16 0 9 99 5 104 -4z"/>
</g>
</svg>
