<?xml version="1.0" standalone="no"?>
<!DOCTYPE svg PUBLIC "-//W3C//DTD SVG 20010904//EN"
 "http://www.w3.org/TR/2001/REC-SVG-20010904/DTD/svg10.dtd">
<svg version="1.0" xmlns="http://www.w3.org/2000/svg"
 width="1024.000000pt" height="559.000000pt" viewBox="0 0 1024.000000 559.000000"
 preserveAspectRatio="xMidYMid meet">
<metadata>
Created by potrace 1.16, written by Peter Selinger 2001-2019
</metadata>
<g transform="translate(0.000000,559.000000) scale(0.100000,-0.100000)"
fill="#000000" stroke="none">
<path d="M4995 5271 c-215 -35 -369 -157 -436 -346 -25 -71 -38 -238 -20 -249
6 -4 39 3 74 15 45 16 85 23 146 23 l85 1 22 57 c12 31 34 72 48 91 31 40 106
83 129 74 24 -9 23 -76 0 -83 -127 -40 -212 -134 -213 -237 0 -21 -7 -49 -16
-63 -14 -20 -16 -40 -11 -102 l6 -78 -37 -19 c-20 -11 -51 -33 -69 -48 -27
-23 -31 -32 -23 -47 14 -25 70 -40 155 -40 52 -1 66 -3 53 -11 -10 -5 -18 -15
-18 -20 0 -22 -46 -48 -82 -49 -65 0 -224 -57 -250 -89 -13 -15 -40 -38 -61
-50 -21 -13 -40 -33 -43 -47 -4 -14 -19 -38 -35 -54 -20 -19 -29 -39 -29 -60
0 -17 -7 -42 -16 -55 -9 -14 -13 -33 -9 -44 4 -12 0 -30 -9 -43 -20 -28 -20
-47 -2 -67 13 -14 10 -26 -25 -95 -21 -43 -39 -83 -39 -87 0 -5 10 -17 21 -28
l22 -20 -21 -63 c-47 -146 -53 -256 -22 -454 11 -71 20 -143 20 -160 0 -32 0
-32 -92 -25 -3 1 -29 21 -56 46 -102 93 -142 115 -162 90 -18 -22 6 -53 100
-131 67 -55 80 -71 80 -95 0 -38 42 -83 70 -74 17 5 19 1 17 -33 -2 -49 5 -57
118 -147 50 -40 96 -79 104 -88 16 -21 14 -36 -34 -212 -33 -123 -38 -154 -39
-260 -1 -113 0 -120 19 -120 25 0 103 124 135 215 13 36 24 66 25 68 1 1 15
-4 31 -13 16 -8 36 -15 45 -15 13 0 18 -16 23 -82 8 -96 -1 -153 -45 -287 -39
-119 -42 -220 -11 -426 20 -134 20 -163 8 -375 -2 -39 -14 -79 -43 -140 -23
-47 -44 -106 -48 -131 -6 -40 -4 -49 14 -66 62 -57 259 -65 306 -13 16 18 17
32 10 137 -13 177 -14 441 -3 503 5 30 23 98 40 150 24 75 32 122 37 220 6
110 12 142 51 260 24 74 45 137 47 139 2 3 13 -5 26 -17 12 -11 66 -42 121
-68 l98 -48 -6 -60 c-3 -34 -12 -95 -19 -136 -16 -92 -8 -160 34 -289 24 -72
32 -116 33 -176 1 -44 4 -84 7 -90 9 -15 3 -134 -9 -185 -18 -72 -22 -157 -9
-174 7 -10 49 -24 102 -35 50 -10 126 -31 170 -46 141 -49 275 -44 311 10 14
22 14 27 -9 67 -18 33 -40 52 -94 83 -83 47 -188 127 -207 158 -16 26 -31 100
-27 140 1 15 -3 34 -9 42 -8 10 -7 60 4 200 9 103 16 234 16 292 0 67 6 125
16 160 12 40 15 75 10 122 -3 36 -2 82 3 101 6 23 9 -44 11 -205 1 -269 6
-297 60 -333 32 -22 42 -23 111 -18 159 13 316 71 376 139 l31 35 3 431 4 430
32 33 c73 75 71 169 -5 251 l-26 27 2 498 c3 490 2 499 -18 525 -26 33 -117
67 -180 67 -68 0 -80 -19 -80 -127 0 -89 3 -85 -71 -98 -35 -7 -36 -6 -57 43
-18 40 -19 54 -10 78 9 25 7 37 -15 79 -16 33 -23 60 -20 77 5 29 -20 80 -57
113 -11 10 -20 26 -20 37 0 11 -21 31 -55 53 -30 20 -55 39 -55 43 0 18 -169
82 -215 82 -13 0 -25 7 -29 15 -3 8 -1 15 5 15 5 0 22 26 37 58 25 54 27 67
30 245 2 103 8 187 13 187 5 0 9 11 9 25 0 17 -8 29 -25 37 -66 30 5 37 116
12 99 -22 103 -19 95 66 -8 91 -44 183 -102 267 -53 76 -89 112 -150 148 -94
57 -237 84 -349 66z m225 -38 c76 -21 140 -57 191 -109 l42 -43 -64 -61 c-35
-34 -55 -56 -44 -51 11 6 42 31 69 56 l49 44 35 -55 c19 -31 43 -81 52 -112
l18 -57 -67 -11 -66 -11 66 -2 c73 -1 79 -6 79 -63 0 -20 -4 -29 -13 -25 -7 2
-45 11 -85 18 -55 10 -72 17 -72 30 0 27 -30 91 -67 142 l-34 49 24 31 c13 18
27 39 31 47 9 19 -40 -34 -52 -55 -7 -14 -16 -12 -66 15 -32 16 -64 30 -72 30
-18 0 -18 10 6 99 10 40 14 69 9 64 -5 -5 -17 -42 -26 -81 -10 -40 -21 -72
-25 -72 -8 0 -6 32 7 140 4 27 3 30 -4 14 -5 -11 -12 -50 -16 -87 -8 -69 -25
-93 -25 -34 0 17 -5 39 -10 47 -7 11 -10 2 -10 -32 0 -44 -2 -48 -24 -48 -14
0 -36 -4 -49 -9 -24 -9 -26 -7 -47 50 -27 76 -37 72 -11 -4 l20 -57 -22 -11
c-12 -6 -43 -29 -69 -50 l-46 -39 -52 35 c-29 19 -57 35 -64 35 -6 0 17 -18
50 -39 l62 -39 -27 -55 c-28 -60 -19 -56 -116 -42 -22 4 -26 2 -15 -5 8 -5 27
-10 42 -10 65 0 80 -29 16 -31 -24 -1 -56 -5 -73 -10 -19 -5 -4 -6 43 -2 63 4
71 3 66 -11 -4 -10 -18 -16 -38 -16 -17 0 -53 -7 -80 -15 -27 -8 -52 -13 -55
-10 -3 3 1 45 8 93 9 62 23 108 49 162 47 96 47 94 33 86 -36 -23 -110 -245
-111 -333 0 -13 -4 -23 -10 -23 -15 0 -12 98 5 164 31 119 109 237 199 298 27
18 25 15 -11 -23 -59 -62 -54 -72 7 -15 61 57 162 106 250 122 72 14 127 10
210 -13z m6 -236 c60 -31 108 -82 140 -151 30 -63 31 -86 4 -86 -15 0 -27 14
-44 53 -48 108 -142 165 -256 154 -122 -11 -196 -81 -235 -223 -2 -7 -15 -9
-29 -7 -29 6 -28 23 6 102 37 87 97 144 185 177 58 22 167 13 229 -19z m-126
-76 c0 -16 3 -36 6 -45 4 -10 1 -16 -10 -16 -9 0 -13 6 -10 15 3 8 1 28 -4 45
-9 24 -8 30 4 30 9 0 14 -10 14 -29z m98 0 c40 -20 68 -48 98 -96 l19 -30 -35
22 c-19 11 -59 28 -89 37 -59 17 -71 28 -71 64 0 28 27 29 78 3z m-23 -87 c13
-6 55 -72 55 -89 0 -3 -9 -5 -20 -5 -12 0 -20 7 -20 16 0 9 -15 31 -34 50 -27
27 -30 34 -16 34 10 0 26 -3 35 -6z m-41 -25 c26 -20 51 -57 44 -64 -2 -2 -37
-9 -78 -15 -99 -15 -210 -49 -217 -66 -3 -8 -3 -21 1 -29 5 -13 10 -13 43 -1
90 33 142 41 275 41 81 0 141 -4 147 -10 6 -6 14 -25 17 -43 6 -32 6 -32 -27
-24 -70 15 -280 6 -354 -16 -61 -18 -72 -19 -86 -6 -8 8 -23 14 -32 14 -21 0
-21 13 -3 72 19 65 59 113 119 143 62 31 115 32 151 4z m158 -37 c21 -20 36
-38 33 -40 -2 -2 -21 -1 -42 3 -32 5 -40 12 -55 46 -17 40 -17 40 5 33 12 -3
39 -22 59 -42z m63 -70 c17 -5 32 -16 33 -26 4 -17 2 -17 -24 1 -24 15 -49 18
-174 17 -128 0 -153 -3 -218 -25 -40 -14 -71 -21 -69 -15 4 13 66 32 162 52
72 14 233 12 290 -4z m3 -126 c22 -13 13 -27 -10 -14 -37 20 -257 14 -348 -10
-69 -19 -92 -20 -78 -6 13 13 119 36 193 42 85 7 223 1 243 -12z m-458 -27
c16 -28 5 -35 -26 -19 -36 20 -47 0 -38 -70 13 -99 13 -100 -35 -125 -24 -13
-57 -36 -72 -51 -16 -15 -29 -23 -29 -16 0 13 50 52 98 76 l33 17 -7 79 c-5
65 -4 84 10 105 20 30 51 32 66 4z m439 -9 c12 -7 9 -9 -14 -10 -16 0 -37 -4
-45 -10 -9 -5 -19 -5 -27 2 -14 11 -12 -11 8 -101 6 -28 7 -47 1 -53 -13 -13
-72 0 -72 15 0 8 -3 8 -11 0 -13 -13 -2 -36 14 -30 7 2 20 0 30 -5 11 -5 25
-5 38 3 19 10 21 17 15 60 -4 27 -10 57 -13 67 -6 15 -5 15 11 3 14 -12 19
-12 26 -2 4 8 13 10 19 7 6 -4 11 -2 11 3 0 6 -5 11 -11 11 -5 0 -7 5 -4 10
16 27 26 7 21 -42 -17 -166 -23 -195 -39 -218 -9 -13 -17 -36 -17 -51 0 -23
-5 -28 -36 -33 -20 -4 -48 -4 -63 -1 -23 5 -27 10 -24 29 4 17 -5 35 -32 62
-25 28 -34 45 -30 59 20 69 19 73 -24 111 -34 31 -41 43 -41 75 0 37 1 38 43
43 23 3 53 8 67 10 38 7 181 -3 199 -14z m-329 -46 c0 -28 8 -44 41 -76 27
-27 38 -45 34 -57 -22 -54 -18 -78 19 -114 40 -41 43 -49 20 -71 -38 -38 -141
-5 -191 61 -27 35 -28 41 -28 150 0 62 0 113 0 113 0 3 84 29 93 30 7 0 12
-14 12 -36z m-150 11 c0 -8 -4 -15 -10 -15 -5 0 -10 7 -10 15 0 8 5 15 10 15
6 0 10 -7 10 -15z m500 -196 c-13 -75 -52 -150 -58 -112 -2 12 5 34 15 49 10
16 21 57 26 93 4 37 11 89 15 116 l7 50 3 -65 c2 -36 -1 -95 -8 -131z m-472
101 l1 -35 -16 31 c-11 22 -13 41 -8 60 l8 29 7 -25 c5 -14 8 -41 8 -60z m-10
-78 c0 -20 5 -50 11 -66 l12 -29 -83 6 c-45 4 -86 11 -91 16 -5 5 10 20 40 36
84 48 93 55 93 71 0 8 4 13 9 9 6 -3 10 -22 9 -43z m45 -151 c2 -10 18 -27 33
-37 117 -72 194 -127 208 -150 10 -14 16 -28 14 -30 -10 -9 -140 36 -199 69
-90 51 -131 88 -119 107 8 12 12 12 32 -6 46 -40 62 -47 31 -13 -32 34 -40 58
-26 72 11 12 21 8 26 -12z m166 -37 c58 7 57 7 109 0 38 -6 42 -9 42 -34 0
-45 -68 -113 -82 -82 -5 12 -79 66 -145 106 -35 21 -63 39 -63 41 0 2 21 -5
46 -16 34 -16 58 -19 93 -15z m210 -17 c7 -9 8 -24 1 -48 -13 -44 -12 -48 5
-25 15 20 15 20 15 0 0 -24 -56 -79 -88 -87 -15 -4 -25 1 -32 14 -9 15 -3 26
30 60 28 29 40 50 40 70 0 31 11 37 29 16z m-429 -49 c39 -31 40 -33 21 -42
-15 -7 -26 -5 -39 7 -23 21 -52 22 -77 3 -16 -12 -17 -16 -6 -29 7 -9 10 -21
6 -27 -11 -17 -38 -11 -65 15 -14 13 -44 33 -65 44 -44 22 -46 20 55 51 82 24
119 20 170 -22z m496 -13 c48 -115 -43 -434 -222 -770 -34 -65 -142 -257 -168
-297 -10 -17 -46 -26 -46 -10 0 4 23 45 51 92 68 112 196 362 243 474 81 190
134 407 123 504 -6 51 -1 53 19 7z m109 5 c49 -17 91 -57 83 -81 -3 -9 -8 -8
-19 5 -37 45 -50 56 -69 56 -11 0 -20 -7 -20 -15 0 -27 -39 -17 -55 15 -8 16
-15 34 -15 40 0 12 4 11 95 -20z m-640 -30 c7 -11 -35 -31 -47 -23 -14 8 -9
21 10 26 28 8 31 7 37 -3z m656 -10 c23 -13 26 -42 3 -33 -13 5 -13 7 -2 14 9
6 7 9 -9 9 -13 0 -23 5 -23 10 0 13 6 13 31 0z m-781 -58 c44 -44 71 -85 114
-172 31 -63 56 -118 56 -122 0 -4 -14 -15 -32 -24 -37 -19 -31 -26 -98 98 -56
102 -148 199 -211 220 l-44 16 45 21 c76 35 103 29 170 -37z m126 33 c-20 -15
-36 -19 -36 -10 0 5 38 23 50 24 3 0 -4 -6 -14 -14z m142 -82 c28 -54 64 -137
81 -185 28 -81 29 -88 13 -97 -29 -15 -124 -41 -133 -36 -4 3 -17 30 -28 60
-23 60 -86 187 -126 253 -23 37 -24 43 -10 48 10 4 26 -3 40 -16 22 -20 27
-21 55 -10 31 13 36 25 21 50 -12 18 -5 30 19 30 13 0 32 -27 68 -97z m47 63
c117 -54 225 -56 276 -5 10 10 19 15 19 10 0 -5 -19 -26 -42 -45 -46 -40 -43
-47 8 -15 38 23 41 18 23 -43 -8 -33 -14 -38 -39 -38 -23 0 -30 5 -35 30 -10
44 -27 38 -19 -7 6 -31 5 -35 -10 -30 -24 9 -116 -12 -116 -27 0 -7 6 -20 13
-30 13 -17 18 -18 66 -6 30 7 56 9 61 4 5 -5 11 -34 15 -64 8 -67 -5 -88 -56
-96 l-37 -6 -7 43 c-10 57 -22 79 -44 79 -14 0 -28 23 -56 93 -21 50 -44 103
-53 116 -11 19 -12 23 -1 18 73 -31 140 -56 169 -62 54 -11 24 9 -45 29 -68
21 -150 60 -161 77 -4 6 -3 10 2 7 5 -2 36 -16 69 -32z m425 -11 c0 -17 9 -26
31 -34 44 -15 49 -14 49 9 0 24 25 27 34 4 15 -38 0 -323 -17 -341 -3 -2 -33
3 -66 13 l-61 17 0 131 c0 72 -3 154 -6 183 -6 49 -6 52 15 46 14 -3 21 -13
21 -28z m-576 8 c4 -9 1 -20 -6 -25 -18 -11 -40 -10 -33 2 3 6 0 10 -7 10 -8
1 -6 6 6 15 25 19 32 19 40 -2z m765 -29 c24 -30 27 -79 11 -165 -19 -104 -32
-140 -49 -137 -10 2 -15 12 -14 28 7 67 6 278 -1 298 -7 21 -6 23 12 13 11 -6
30 -23 41 -37z m-129 10 c0 -8 -4 -14 -10 -14 -5 0 -10 5 -10 10 0 6 -3 9 -7
9 -17 -3 -24 1 -19 10 9 13 46 1 46 -15z m-1025 -4 c-3 -5 -11 -10 -16 -10 -6
0 -7 5 -4 10 3 6 11 10 16 10 6 0 7 -4 4 -10z m101 -42 c53 -38 106 -106 162
-209 l42 -76 -25 -11 c-23 -11 -28 -7 -78 56 -94 116 -200 202 -252 202 -22 0
-10 16 33 45 49 32 66 31 118 -7z m814 -98 c0 -64 -3 -80 -15 -80 -11 0 -15
-13 -15 -54 0 -58 -5 -67 -31 -57 -15 5 -14 13 7 81 13 41 29 101 35 132 7 32
13 58 15 58 2 0 4 -36 4 -80z m317 -26 c-6 -61 -52 -158 -62 -133 -3 10 -2 34
4 55 5 22 13 67 17 102 7 62 7 62 26 45 17 -15 19 -27 15 -69z m-1307 62 c0
-3 -4 -8 -10 -11 -5 -3 -10 -1 -10 4 0 6 5 11 10 11 6 0 10 -2 10 -4z m120
-51 c25 -18 60 -49 78 -68 29 -30 32 -38 23 -56 -15 -28 -20 -27 -80 13 -46
32 -147 76 -172 76 -6 0 5 18 23 40 39 48 57 47 128 -5z m660 9 c0 -11 -6 -15
-20 -11 -11 3 -20 2 -20 -2 0 -4 -9 -7 -20 -8 -34 -3 -22 25 13 30 17 2 35 5
40 5 4 1 7 -5 7 -14z m80 6 c0 -5 -13 -10 -30 -10 -16 0 -30 5 -30 10 0 6 14
10 30 10 17 0 30 -4 30 -10z m10 -47 c0 -10 -5 -25 -10 -33 -8 -13 -10 -13
-10 2 0 9 -3 23 -6 32 -4 11 -1 16 10 16 9 0 16 -8 16 -17z m-817 -54 c59 -31
127 -78 127 -90 0 -5 -7 -20 -15 -32 l-15 -23 -87 43 c-49 24 -96 43 -105 43
-22 0 -22 1 -1 45 20 41 37 44 96 14z m1285 -79 c-44 -61 -72 -20 -36 54 l22
47 18 -36 c18 -35 18 -36 -4 -65z m320 76 c29 -8 64 -21 76 -30 28 -18 40 -59
26 -86 -26 -48 -202 -115 -385 -145 -59 -10 -92 -31 -104 -66 -8 -23 -11 -317
-11 -999 0 -963 0 -967 21 -994 17 -22 28 -26 74 -26 131 0 291 52 368 120 43
37 49 26 11 -19 -78 -93 -404 -170 -475 -112 l-24 19 -5 964 c-3 529 -3 989 0
1022 8 82 38 108 146 125 71 11 156 32 252 60 19 6 54 22 78 36 35 20 44 32
42 48 -5 32 -78 69 -141 71 l-52 1 -7 -74 c-10 -97 -18 -102 -18 -12 0 115 15
127 128 97z m-948 -22 c0 -28 -15 -25 -23 6 -3 13 0 20 9 20 8 0 14 -10 14
-26z m280 12 c0 -8 -4 -18 -10 -21 -5 -3 -10 3 -10 14 0 12 5 21 10 21 6 0 10
-6 10 -14z m698 -37 c23 -10 42 -22 42 -28 0 -15 -50 -46 -112 -69 l-58 -22 0
68 c0 38 3 72 7 75 9 10 71 -2 121 -24z m-1402 -39 c31 -42 43 -47 76 -29 18
10 19 8 13 -13 -4 -12 -18 -34 -32 -48 l-25 -25 6 27 c3 15 2 29 -2 32 -8 4
-55 -141 -78 -236 -3 -16 -9 -28 -13 -28 -25 0 -165 56 -211 84 -30 18 -72 39
-93 46 -21 6 -37 15 -35 19 2 4 19 44 38 89 22 50 41 82 50 82 8 0 48 -18 88
-40 40 -22 77 -40 82 -40 5 0 28 27 50 60 22 33 44 60 48 60 5 0 21 -18 38
-40z m434 11 c0 -11 -4 -23 -10 -26 -6 -4 -10 5 -10 19 0 14 5 26 10 26 6 0
10 -9 10 -19z m-224 -27 c15 -36 16 -36 57 -30 132 21 127 22 127 -12 0 -17 4
-42 9 -55 l9 -24 -117 -7 c-65 -3 -150 -3 -189 0 l-70 7 28 23 c15 13 35 42
44 64 14 34 42 58 84 69 2 1 10 -15 18 -35z m494 21 c0 -8 -4 -15 -10 -15 -5
0 -10 7 -10 15 0 8 5 15 10 15 6 0 10 -7 10 -15z m279 -27 c28 -30 33 -32 52
-20 11 7 22 12 23 10 7 -12 36 -80 36 -83 0 -3 -12 -5 -27 -6 -83 -2 -138 -54
-149 -140 -5 -41 -10 -49 -34 -58 -16 -5 -31 -7 -33 -4 -9 8 5 267 14 278 5 5
9 18 9 28 0 16 5 18 30 14 16 -4 32 -2 35 3 9 14 11 13 44 -22z m-459 -3 c0
-21 -32 -75 -43 -75 -21 0 -28 68 -7 74 23 6 50 7 50 1z m140 -35 c0 -39 -1
-40 -35 -40 -39 0 -40 3 -24 49 8 23 17 31 35 31 21 0 24 -4 24 -40z m-223 24
c-3 -3 -12 -4 -19 -1 -8 3 -5 6 6 6 11 1 17 -2 13 -5z m270 0 c-3 -3 -12 -4
-19 -1 -8 3 -5 6 6 6 11 1 17 -2 13 -5z m107 0 c11 -4 16 -19 16 -49 l0 -44
-44 -6 c-69 -11 -73 -8 -63 53 8 51 9 52 42 52 18 0 40 -3 49 -6z m-109 -47
c0 -39 -19 -38 -23 2 -3 24 0 32 10 29 7 -3 13 -17 13 -31z m-265 -7 c0 -20
-5 -30 -15 -30 -10 0 -15 10 -15 30 0 20 5 30 15 30 10 0 15 -10 15 -30z
m1040 -27 c-1 -51 -2 -56 -14 -40 -10 13 -16 15 -21 6 -7 -11 -22 -353 -25
-554 l-1 -80 -34 94 c-19 51 -37 96 -40 99 -3 3 11 23 32 44 l38 39 -35 102
c-19 56 -34 111 -32 121 2 18 -41 65 -60 66 -14 0 -9 -102 6 -114 7 -6 25 -44
40 -85 l27 -74 -36 -37 c-19 -20 -35 -40 -35 -44 0 -5 20 -62 45 -127 25 -65
45 -129 45 -141 -1 -15 -7 -7 -20 26 -11 28 -39 70 -63 95 -24 25 -51 58 -60
72 -29 49 -49 137 -46 209 2 38 0 72 -3 76 -11 10 -35 -14 -42 -42 -4 -13 -15
-33 -26 -44 -11 -11 -20 -32 -20 -46 0 -14 -6 -32 -14 -39 -16 -17 -31 -188
-21 -237 12 -55 50 -119 115 -195 48 -56 71 -75 101 -83 l39 -11 0 -110 0
-110 -34 -14 c-19 -8 -44 -27 -56 -42 -131 -168 -160 -224 -167 -317 -6 -66
11 -179 27 -184 6 -2 10 -17 10 -33 0 -20 13 -45 37 -75 54 -64 64 -59 56 31
-9 114 16 188 101 302 26 34 54 83 63 108 8 25 17 44 20 42 2 -3 -17 -69 -43
-148 l-47 -143 33 -27 32 -27 -28 -92 c-20 -67 -33 -94 -46 -98 -16 -4 -17
-11 -12 -56 4 -28 9 -53 11 -56 9 -10 73 69 67 83 -3 8 9 60 25 117 38 125 38
139 5 165 l-26 21 30 94 c16 52 32 104 34 115 2 11 7 -97 11 -240 7 -259 12
-315 28 -315 4 0 10 12 12 28 3 22 4 21 6 -9 1 -31 -5 -42 -40 -74 -70 -63
-195 -108 -334 -121 -122 -11 -110 -121 -110 1015 0 912 1 979 17 1003 12 19
30 29 55 33 127 20 272 61 337 95 39 20 74 38 79 39 4 0 7 -25 7 -56z m-1005
-14 c-10 -15 -25 -10 -19 6 4 8 10 12 15 9 5 -3 7 -10 4 -15z m115 11 c0 -5
-5 -10 -11 -10 -5 0 -7 5 -4 10 3 6 8 10 11 10 2 0 4 -4 4 -10z m50 0 c0 -12
-28 -25 -36 -17 -9 9 6 27 22 27 8 0 14 -5 14 -10z m30 -11 c0 -5 -4 -9 -10
-9 -5 0 -10 7 -10 16 0 8 5 12 10 9 6 -3 10 -10 10 -16z m-100 -52 c0 -30 -13
-48 -28 -38 -9 5 -9 14 0 38 13 35 28 34 28 0z m256 -14 c-3 -25 -7 -47 -9
-48 -1 -1 -32 -5 -69 -8 -63 -6 -67 -5 -70 16 -3 19 -9 22 -45 20 -28 -1 -43
3 -43 10 0 7 -3 22 -6 35 -6 22 -6 22 121 22 l128 0 -7 -47z m-366 32 c0 -3
-12 -29 -26 -57 l-26 -51 -206 7 c-114 4 -208 9 -210 10 -1 2 3 24 10 50 l12
46 223 0 c123 0 223 -2 223 -5z m993 -655 c-11 -12 -13 24 -13 226 0 393 14
455 21 94 5 -248 3 -308 -8 -320z m-1665 528 c34 -16 62 -33 62 -36 0 -3 -10
-16 -22 -29 -20 -21 -23 -39 -30 -151 -3 -70 -14 -154 -22 -187 -9 -36 -15
-106 -16 -174 0 -107 2 -116 26 -148 39 -51 59 -104 42 -114 -7 -5 -20 -6 -29
-4 -9 3 -21 0 -26 -7 -12 -16 -43 -111 -43 -133 0 -31 -24 -8 -35 33 -13 55
-28 67 -20 17 l6 -40 -20 25 c-11 14 -21 33 -21 42 0 9 -5 20 -11 24 -9 5 -10
-1 -5 -20 9 -35 0 -33 -19 4 -9 17 -20 28 -25 25 -18 -11 -10 59 14 126 21 60
22 75 15 160 -4 52 -12 117 -18 144 -30 155 -19 326 29 462 l23 63 41 -26 c22
-14 69 -39 104 -56z m752 47 c10 -13 9 -15 -8 -15 -15 0 -20 5 -16 15 4 8 7
15 9 15 1 0 8 -7 15 -15z m42 -7 c-7 -7 -12 -8 -12 -2 0 14 12 26 19 19 2 -3
-1 -11 -7 -17z m86 10 c-2 -6 -10 -14 -18 -16 -9 -3 -10 0 -4 9 6 12 5 12 -9
0 -19 -15 -33 -9 -22 8 9 15 58 14 53 -1z m650 -20 c5 -7 12 -26 14 -43 3 -16
19 -68 36 -115 l31 -85 -36 -37 -36 -37 33 -88 c46 -123 60 -172 50 -178 -4
-3 -17 23 -29 58 -11 35 -34 97 -50 138 l-30 74 36 37 37 38 -29 91 c-16 50
-35 94 -42 96 -14 6 -18 63 -4 63 5 0 13 -6 19 -12z m-498 -47 l0 -50 -47 -6
c-88 -12 -88 -12 -91 13 -3 22 -8 24 -48 20 -43 -3 -44 -3 -44 27 l0 31 107 3
c59 1 110 4 112 7 9 9 11 2 11 -45z m-422 24 c2 -2 -9 -27 -24 -55 -27 -50
-29 -52 -64 -46 -19 3 -51 6 -71 6 -32 0 -39 5 -53 35 -22 46 -51 44 -113 -9
-42 -35 -82 -6 -83 59 0 19 5 20 202 17 112 -2 205 -5 206 -7z m172 -20 c0
-34 -1 -35 -40 -33 -21 1 -44 4 -49 8 -17 10 16 48 47 53 15 2 30 5 35 6 4 0
7 -15 7 -34z m-581 -112 c14 -89 14 -170 1 -178 -5 -3 -10 -20 -10 -36 0 -16
-6 -32 -14 -35 -21 -8 -39 -64 -26 -79 8 -9 5 -30 -9 -71 -10 -33 -22 -79 -25
-103 -4 -24 -13 -56 -21 -72 -8 -15 -15 -46 -15 -69 0 -22 -4 -40 -10 -40 -5
0 -10 7 -10 15 0 9 -16 38 -35 66 -34 50 -35 54 -35 145 0 59 8 125 21 181 11
48 23 137 26 196 7 132 22 160 84 156 21 -2 41 0 45 4 13 13 21 -6 33 -80z
m921 25 l0 -63 -24 50 c-21 45 -22 51 -8 63 27 21 32 14 32 -50z m-739 21 c36
-36 7 -78 -44 -65 -34 8 -51 39 -37 66 14 26 54 26 81 -1z m373 6 c4 -12 -3
-15 -34 -15 -29 0 -40 4 -40 15 0 10 10 15 34 15 21 0 36 -6 40 -15z m46 5 c0
-5 -4 -10 -10 -10 -5 0 -10 5 -10 10 0 6 5 10 10 10 6 0 10 -4 10 -10z m45 0
c-3 -5 -2 -10 4 -10 5 0 11 6 14 13 2 6 8 9 12 4 15 -13 -13 -30 -40 -23 -26
7 -26 26 1 26 8 0 12 -4 9 -10z m244 -91 l31 -81 0 -251 -1 -252 -27 95 c-22
80 -26 111 -24 199 3 85 0 107 -14 122 -14 16 -16 33 -9 134 4 63 8 115 10
115 2 0 17 -36 34 -81z m-834 63 c6 -4 16 -19 24 -35 20 -37 3 -56 -34 -39
-20 9 -25 19 -25 47 0 34 12 44 35 27z m767 -36 c-4 -42 -5 -44 -40 -50 -71
-11 -92 -8 -92 15 0 20 -4 21 -45 15 -45 -7 -45 -7 -45 23 l0 30 88 4 c48 1
98 4 112 5 24 2 25 0 22 -42z m365 -44 c1 -92 17 -148 62 -210 19 -27 19 -76
0 -88 -5 -3 -9 -18 -9 -34 0 -16 -4 -31 -9 -34 -12 -8 -12 -87 1 -113 16 -33
2 -40 -27 -13 -71 67 -126 189 -124 275 1 25 4 20 18 -25 20 -62 41 -104 70
-137 33 -39 31 -25 -4 28 -43 63 -56 104 -61 199 l-4 75 16 -69 c15 -68 54
-159 73 -171 6 -3 -3 23 -20 59 -17 35 -35 94 -41 129 -11 68 -4 137 13 137 6
0 8 -4 5 -8 -10 -17 16 -159 40 -211 13 -30 26 -52 29 -49 3 2 -4 23 -15 45
-27 56 -39 117 -40 190 0 52 12 113 23 113 1 0 3 -40 4 -88z m-609 46 c-3 -32
-3 -32 -55 -29 -48 2 -53 0 -53 -18 0 -17 -6 -21 -35 -21 -19 0 -35 3 -35 6 0
4 10 24 22 45 20 37 23 38 82 42 34 2 65 4 69 5 5 1 7 -12 5 -30z m-250 -20
l-24 -43 -64 3 c-35 1 -65 4 -67 6 -2 2 7 15 21 29 14 15 26 31 26 37 0 6 27
10 66 10 l65 0 -23 -42z m-190 -16 c19 -13 4 -41 -19 -35 -19 5 -25 23 -12 36
8 9 15 9 31 -1z m410 -12 c6 0 12 -4 12 -10 0 -5 -12 -10 -26 -10 -14 0 -23 4
-19 10 3 6 2 10 -4 10 -5 0 -11 -6 -14 -12 -2 -7 -8 -10 -12 -6 -13 12 7 30
29 24 11 -3 27 -6 34 -6z m48 -17 c-10 -10 -19 5 -10 18 6 11 8 11 12 0 2 -7
1 -15 -2 -18z m84 18 c0 -6 -4 -13 -10 -16 -5 -3 -10 -1 -10 5 0 8 -6 8 -20 0
-19 -10 -28 -1 -13 13 10 10 53 8 53 -2z m-614 -43 c-7 -33 -13 -44 -21 -36
-3 2 -8 19 -11 36 -6 28 -4 32 16 32 20 0 22 -4 16 -32z m754 -12 l0 -45 -47
-6 c-27 -4 -56 -9 -65 -12 -13 -3 -18 2 -18 18 0 20 -4 21 -45 17 -42 -5 -45
-4 -45 18 0 20 6 23 58 29 51 5 153 20 160 24 1 0 2 -19 2 -43z m-693 16 c15
-9 6 -52 -11 -52 -23 0 -35 16 -29 38 6 23 19 27 40 14z m157 0 c3 -5 -5 -24
-18 -43 -22 -32 -27 -34 -70 -31 -48 4 -53 11 -40 60 6 20 13 22 65 22 32 0
60 -4 63 -8z m294 -19 c-3 -27 -5 -28 -55 -25 -51 4 -53 3 -53 -22 0 -25 -2
-26 -65 -26 -36 0 -65 2 -65 5 0 3 9 23 20 45 l20 39 93 4 c50 1 96 4 100 5 5
1 7 -10 5 -25z m-458 -61 c-1 -22 -20 -35 -38 -26 -16 7 -18 14 -11 32 7 19
12 21 29 12 11 -6 20 -14 20 -18z m560 7 c0 -5 -4 -9 -10 -9 -5 0 -10 7 -10
16 0 8 5 12 10 9 6 -3 10 -10 10 -16z m-639 -12 c-10 -9 -11 -8 -5 6 3 10 9
15 12 12 3 -3 0 -11 -7 -18z m513 8 c-1 -16 -36 -18 -45 -3 -7 10 -9 10 -9 0
0 -7 -4 -10 -10 -7 -22 14 -8 26 28 23 20 -2 37 -7 36 -13z m46 5 c0 -5 -4
-10 -10 -10 -5 0 -10 5 -10 10 0 6 5 10 10 10 6 0 10 -4 10 -10z m50 0 c0 -5
-7 -10 -15 -10 -8 0 -15 5 -15 10 0 6 7 10 15 10 8 0 15 -4 15 -10z m-422 -25
c1 -1 -1 -10 -4 -19 -5 -14 -14 -16 -43 -11 -46 9 -51 12 -45 30 5 11 16 13
48 9 22 -4 42 -8 44 -9z m592 -5 c0 -25 -50 -40 -152 -47 -77 -5 -78 -5 -78
19 0 24 4 25 88 35 139 16 142 16 142 -7z m-787 -25 c-8 -22 -22 -18 -16 5 3
11 9 17 14 15 4 -3 6 -12 2 -20z m547 13 c-1 -33 -17 -39 -111 -39 -52 0 -111
3 -131 7 -33 5 -36 8 -25 25 11 17 25 19 139 19 96 0 128 -3 128 -12z m-480
-38 c0 -21 -16 -25 -39 -11 -8 5 -11 16 -6 30 5 17 10 19 26 11 10 -6 19 -20
19 -30z m40 -7 c0 -20 -3 -24 -11 -16 -7 7 -9 19 -6 27 10 24 17 19 17 -11z
m707 -40 c-2 -16 -4 -5 -4 22 0 28 2 40 4 28 2 -13 2 -35 0 -50z m-27 43 c0
-8 -8 -13 -17 -12 -14 1 -18 -7 -18 -29 0 -22 4 -30 18 -29 21 2 22 -12 1 -20
-30 -11 -34 -6 -34 43 0 43 3 50 23 54 12 2 23 5 25 6 1 0 2 -5 2 -13z m-590
-42 c0 -45 0 -45 -32 -42 -31 3 -33 6 -36 46 l-3 42 35 0 c36 0 36 0 36 -46z
m-107 -12 c20 -18 23 -42 4 -42 -21 0 -130 39 -142 51 -7 7 -4 15 8 24 16 11
26 11 65 -2 26 -9 55 -23 65 -31z m134 16 c-3 -7 -5 -2 -5 12 0 14 2 19 5 13
2 -7 2 -19 0 -25z m103 -19 l0 -50 -42 3 c-41 3 -43 5 -46 36 -5 52 3 62 48
62 l40 0 0 -51z m358 -5 c-3 -34 -6 -39 -30 -42 -27 -3 -28 -2 -28 42 0 39 3
45 23 48 32 6 39 -4 35 -48z m-240 36 c8 0 12 -16 12 -46 0 -43 -2 -46 -22
-40 -13 3 -29 6 -35 6 -9 0 -13 16 -13 46 0 43 2 46 23 40 12 -3 28 -6 35 -6z
m162 -40 l0 -50 -59 0 -59 0 -4 46 c-2 25 -1 47 1 50 2 2 31 4 63 4 l58 0 0
-50z m107 -2 c-2 -13 -4 -5 -4 17 -1 22 1 32 4 23 2 -10 2 -28 0 -40z m-347 7
c0 -19 -4 -35 -10 -35 -5 0 -10 16 -10 35 0 19 5 35 10 35 6 0 10 -16 10 -35z
m420 20 c0 -8 -7 -15 -15 -15 -8 0 -15 7 -15 15 0 8 7 15 15 15 8 0 15 -7 15
-15z m-735 -62 c28 -10 43 -19 35 -21 -22 -4 -143 41 -148 56 -3 9 5 9 30 -2
18 -8 56 -23 83 -33z m1237 5 c41 -54 49 -90 27 -117 -15 -18 -19 -40 -19 -92
0 -41 -4 -69 -10 -69 -17 0 -77 27 -84 38 -3 5 1 15 9 22 11 9 18 7 32 -9 9
-12 24 -21 33 -21 12 1 12 3 -2 11 -10 5 -18 16 -18 24 0 9 6 12 18 8 15 -6
15 -4 -3 16 -16 19 -17 24 -5 31 12 7 12 12 2 22 -17 17 -15 38 4 38 13 0 14
3 4 15 -6 8 -9 19 -5 25 4 6 0 19 -8 28 -8 9 -18 27 -21 40 -11 34 17 28 46
-10z m-484 -20 c-2 -16 -16 -27 -50 -40 l-48 -18 0 34 c0 28 3 33 18 30 9 -3
28 -1 42 5 37 15 42 13 38 -11z m-781 -12 c39 -13 38 -12 30 -55 -6 -30 -9
-33 -34 -26 -15 3 -41 12 -59 20 -33 13 -34 20 -18 73 4 14 10 13 81 -12z
m128 -3 c-10 -14 -26 -41 -37 -60 -21 -35 -38 -43 -38 -19 0 27 54 105 74 106
18 0 18 -1 1 -27z m156 9 l59 4 0 -34 0 -34 -62 7 c-34 4 -80 13 -102 19 l-40
12 22 22 c19 19 26 21 44 11 12 -6 46 -9 79 -7z m379 -11 c0 -14 -5 -18 -20
-14 -11 3 -20 0 -20 -6 0 -6 -4 -11 -10 -11 -5 0 -10 9 -10 19 0 18 6 21 53
30 4 0 7 -8 7 -18z m558 7 c13 -13 16 -48 4 -48 -14 0 -32 23 -32 42 0 21 11
23 28 6z m-803 -205 c-4 -115 -9 -210 -11 -212 -2 -2 -10 2 -18 8 -17 15 -36
7 -36 -15 0 -20 30 -30 41 -13 5 9 9 -20 9 -76 0 -49 -4 -96 -9 -103 -14 -22
-56 -10 -59 16 -3 21 -2 22 17 10 15 -9 23 -10 32 -1 17 17 0 35 -25 29 -20
-5 -22 -2 -18 25 3 23 7 27 18 18 15 -13 34 -4 34 16 0 21 -19 28 -36 14 -14
-12 -15 6 -9 172 4 101 9 186 12 189 2 2 8 -2 13 -9 10 -17 40 -7 40 13 0 19
-31 30 -42 14 -4 -8 -8 13 -8 50 l0 62 31 0 31 0 -7 -207z m94 -60 c-1 -142
-4 -269 -8 -283 -4 -18 -13 -26 -33 -27 -23 -1 -28 2 -28 21 0 13 9 31 20 41
11 10 20 13 20 7 0 -6 -6 -13 -12 -16 -7 -3 -4 -5 7 -3 32 4 25 32 -7 30 -25
-2 -28 2 -28 29 0 26 2 29 16 18 12 -11 18 -10 32 3 13 13 14 19 4 29 -10 10
-17 10 -32 0 -19 -12 -20 -9 -20 58 0 69 0 70 24 64 30 -7 44 13 23 33 -10 10
-17 11 -21 4 -4 -6 -2 -11 3 -11 6 0 11 -5 11 -10 0 -6 -8 -5 -20 2 -13 8 -20
24 -20 42 0 23 3 27 12 18 17 -17 35 -15 42 5 10 25 -10 40 -34 25 -19 -12
-20 -9 -20 83 l0 95 35 0 35 0 -1 -257z m71 245 c0 -7 -13 -13 -30 -14 -19 -1
-30 4 -30 12 0 9 11 14 30 14 17 0 30 -5 30 -12z m-1263 -37 c66 -52 97 -88
84 -95 -8 -6 -161 117 -161 130 0 14 35 -1 77 -35z m1320 7 c-3 -8 -6 -5 -6 6
-1 11 2 17 5 13 3 -3 4 -12 1 -19z m152 -20 c5 -18 24 -86 41 -152 30 -118 30
-119 30 -396 0 -154 -4 -281 -9 -284 -4 -3 -46 -10 -92 -15 -46 -5 -101 -17
-121 -25 -21 -9 -65 -16 -99 -16 l-62 0 -71 69 c-39 38 -159 145 -266 237
-107 92 -197 171 -198 175 -6 15 29 140 48 177 11 20 17 39 14 43 -9 15 16 89
30 89 8 0 21 10 30 23 9 12 15 18 12 12 -7 -18 -45 -208 -52 -265 -12 -99 3
-48 36 120 18 91 38 180 46 198 13 31 15 33 51 26 21 -4 39 -8 41 -9 2 -2 -6
-79 -17 -172 -25 -209 -35 -330 -28 -323 7 6 29 179 49 378 l11 113 26 -3 c16
-2 26 -9 25 -18 0 -8 -3 -58 -7 -110 -6 -107 7 -72 18 48 7 67 9 72 31 72 12
0 25 -3 27 -7 2 -5 0 -82 -4 -173 -16 -336 -15 -455 4 -484 10 -14 22 -26 27
-26 14 0 51 76 45 92 -3 7 1 47 9 88 l14 75 -1 -97 c-1 -77 3 -104 18 -132 11
-20 25 -36 31 -36 15 0 45 70 42 100 -2 14 1 27 7 30 6 3 9 -9 7 -30 -2 -22 5
-47 18 -68 36 -59 60 -14 67 128 5 106 13 134 13 47 0 -31 4 -58 9 -61 4 -3 6
-17 4 -30 -6 -28 33 -99 50 -93 36 12 38 131 8 462 -18 185 -17 216 2 227 12
6 18 5 21 -4 9 -28 26 -119 48 -252 12 -76 24 -134 26 -128 4 14 -22 206 -44
316 -13 65 -14 80 -2 87 21 14 26 11 37 -23z m641 -37 c0 -64 -2 -69 -24 -75
-79 -20 -82 -295 -3 -304 25 -3 27 -6 27 -50 0 -59 -5 -67 -63 -92 -78 -35
-77 -37 -77 252 0 244 5 288 33 288 7 0 32 11 57 25 25 13 46 24 48 24 1 1 2
-30 2 -68z m-780 44 c5 3 10 2 10 -4 0 -5 3 -17 7 -27 5 -14 3 -16 -12 -11 -9
4 -24 2 -31 -4 -11 -9 -14 -5 -14 26 0 32 2 36 15 25 8 -6 19 -9 25 -5z m564
-20 c6 -17 9 -46 6 -65 l-5 -35 -22 23 c-29 28 -29 42 -2 42 19 0 19 1 5 22
-9 12 -16 29 -16 36 0 23 21 8 34 -23z m-624 -8 c0 -25 -2 -28 -15 -17 -12 10
-18 10 -30 0 -8 -7 -15 -9 -15 -4 0 5 -3 18 -6 30 -5 17 -1 20 30 20 33 0 36
-2 36 -29z m-629 2 c57 -21 69 -32 50 -43 -14 -9 -131 37 -131 51 0 18 14 16
81 -8z m85 -45 c-4 -9 -9 -15 -11 -12 -3 3 -3 13 1 22 4 9 9 15 11 12 3 -3 3
-13 -1 -22z m349 17 c3 -5 1 -12 -5 -16 -5 -3 -10 1 -10 9 0 18 6 21 15 7z
m255 -1 c0 -5 -4 -10 -10 -10 -5 0 -10 5 -10 10 0 6 5 10 10 10 6 0 10 -4 10
-10z m-708 -18 c26 -10 50 -21 53 -24 6 -5 -14 -88 -21 -88 -1 0 -28 10 -59
22 -43 16 -54 25 -50 37 4 9 9 28 12 44 7 32 5 32 65 9z m628 14 c0 -3 -4 -8
-10 -11 -5 -3 -10 -1 -10 4 0 6 5 11 10 11 6 0 10 -2 10 -4z m20 -42 c0 -31
-2 -35 -15 -24 -8 7 -22 10 -30 6 -11 -4 -15 1 -15 18 0 19 4 23 19 19 10 -3
22 0 25 6 12 19 16 12 16 -25z m65 26 c13 11 15 8 15 -15 0 -19 -4 -26 -14
-22 -7 3 -19 0 -25 -6 -8 -8 -11 -7 -11 5 0 9 -3 25 -7 35 -6 16 -5 16 10 4
14 -11 20 -11 32 -1z m-1221 -35 c-4 -8 -8 -15 -10 -15 -2 0 -4 7 -4 15 0 8 4
15 10 15 5 0 7 -7 4 -15z m96 -15 c0 -10 -9 -24 -20 -30 -11 -6 -23 -22 -26
-35 -7 -30 -29 -33 -44 -6 -14 27 -13 35 11 65 26 33 79 37 79 6z m1117 -12
c-3 -8 -6 -5 -6 6 -1 11 2 17 5 13 3 -3 4 -12 1 -19z m-170 -10 c-3 -8 -6 -5
-6 6 -1 11 2 17 5 13 3 -3 4 -12 1 -19z m93 12 c0 -5 -4 -10 -10 -10 -5 0 -10
5 -10 10 0 6 5 10 10 10 6 0 10 -4 10 -10z m883 -23 c77 -72 65 -197 -23 -242
-28 -15 -30 -14 -47 12 -25 38 -24 173 1 226 10 20 22 37 26 37 5 0 24 -15 43
-33z m-777 -23 c-1 -1 -13 -4 -28 -8 -25 -6 -28 -4 -28 18 0 18 4 24 14 20 8
-3 18 1 22 8 6 9 10 6 14 -12 4 -14 6 -25 6 -26z m-101 26 c13 11 15 8 15 -20
0 -28 -2 -31 -15 -20 -12 10 -18 10 -30 0 -13 -11 -15 -8 -15 20 0 28 2 31 15
20 12 -10 18 -10 30 0z m-597 -59 c5 -15 -5 -14 -64 5 -54 19 -76 32 -69 44 6
10 128 -34 133 -49z m-467 6 c-8 -8 -11 -7 -11 4 0 20 13 34 18 19 3 -7 -1
-17 -7 -23z m1149 4 c0 -5 -6 -12 -12 -15 -7 -4 -3 -4 10 -2 18 3 22 0 22 -21
0 -14 -4 -22 -10 -18 -6 4 -17 1 -25 -5 -13 -10 -15 -8 -15 13 0 14 3 32 6 41
7 17 24 22 24 7z m-740 -26 c19 -7 34 -17 34 -21 -1 -5 -9 -39 -19 -77 -17
-64 -19 -67 -37 -51 -10 10 -18 30 -18 45 0 18 -9 34 -25 46 -21 15 -24 23
-19 51 7 35 5 35 84 7z m650 15 c0 -5 -2 -10 -4 -10 -3 0 -8 5 -11 10 -3 6 -1
10 4 10 6 0 11 -4 11 -10z m5 -10 c13 11 15 4 15 -56 0 -67 -1 -69 -25 -69
-14 0 -25 5 -25 12 0 6 -3 19 -7 28 -5 15 -3 16 16 6 17 -10 22 -9 27 4 10 24
-11 41 -31 25 -13 -11 -15 -8 -15 25 0 32 2 36 15 25 12 -10 18 -10 30 0z m-5
-60 c0 -5 -5 -10 -11 -10 -5 0 -7 5 -4 10 3 6 8 10 11 10 2 0 4 -4 4 -10z
m100 6 c0 -3 -4 -8 -10 -11 -5 -3 -10 -1 -10 4 0 6 5 11 10 11 6 0 10 -2 10
-4z m5 -16 c13 11 15 8 15 -18 0 -24 -4 -30 -15 -26 -8 4 -22 1 -30 -6 -13
-11 -15 -7 -15 25 0 32 2 36 15 25 12 -10 18 -10 30 0z m-833 -5 c3 -3 -13
-24 -35 -47 -22 -23 -50 -63 -62 -89 -16 -37 -25 -45 -33 -37 -29 29 0 119 51
160 21 17 68 24 79 13z m-5 -63 c-14 -15 -40 -52 -56 -82 -20 -36 -31 -48 -31
-34 0 36 92 165 108 150 3 -4 -6 -19 -21 -34z m543 -2 c0 -5 -2 -10 -4 -10 -3
0 -8 5 -11 10 -3 6 -1 10 4 10 6 0 11 -4 11 -10z m100 -6 c0 -8 -5 -12 -10 -9
-6 4 -8 11 -5 16 9 14 15 11 15 -7z m110 -23 c0 -23 -5 -30 -25 -33 -22 -5
-25 -2 -25 22 0 23 4 27 20 23 11 -3 20 0 20 6 0 6 2 11 5 11 3 0 5 -13 5 -29z
m110 -11 c0 -10 -10 -15 -30 -15 -24 0 -30 4 -30 22 0 15 7 23 23 25 24 4 37
-8 37 -32z m-794 -12 c184 -155 496 -429 524 -462 54 -64 139 -196 126 -196
-4 0 -55 24 -114 54 -96 48 -127 71 -273 203 -90 81 -213 190 -272 242 -59 52
-107 99 -107 105 0 6 4 17 9 25 8 13 12 13 28 0 16 -12 356 -305 531 -457 34
-30 62 -52 62 -50 0 6 -209 195 -298 270 -77 66 -265 229 -285 248 -16 15 -17
20 -6 39 8 11 16 21 19 21 3 0 28 -19 56 -42z m711 -15 c-3 -10 -5 -2 -5 17 0
19 2 27 5 18 2 -10 2 -26 0 -35z m63 -3 c0 -5 -4 -10 -10 -10 -5 0 -10 5 -10
10 0 6 5 10 10 10 6 0 10 -4 10 -10z m-300 -10 c0 -5 -4 -10 -10 -10 -5 0 -10
5 -10 10 0 6 5 10 10 10 6 0 10 -4 10 -10z m200 6 c0 -3 -4 -8 -10 -11 -5 -3
-10 -1 -10 4 0 6 5 11 10 11 6 0 10 -2 10 -4z m-7 -23 c9 3 18 -1 21 -9 11
-27 6 -35 -14 -29 -24 8 -39 -20 -21 -38 10 -9 16 -7 27 8 15 19 15 19 12 -5
-2 -19 -10 -26 -30 -28 -28 -3 -28 -3 -28 60 0 40 3 58 9 49 5 -8 16 -11 24
-8z m127 -12 c0 -15 -4 -21 -14 -18 -7 3 -19 0 -25 -6 -8 -8 -11 -7 -11 5 0 9
-2 22 -5 30 -4 9 4 13 25 13 25 0 30 -4 30 -24z m570 -36 c0 -50 4 -69 18 -83
18 -18 18 -21 3 -60 -9 -22 -30 -57 -48 -79 -27 -32 -32 -35 -32 -17 -1 11 10
44 24 72 29 61 30 63 10 56 -18 -7 -19 0 -5 27 8 14 7 19 -1 19 -7 0 -6 9 5
24 11 18 12 26 3 29 -9 3 -9 9 1 26 19 33 4 25 -44 -23 -39 -40 -43 -48 -41
-88 2 -24 6 -48 10 -55 4 -6 5 -17 2 -25 -3 -7 4 -31 15 -52 l20 -40 -21 -30
c-50 -75 -71 -162 -62 -256 5 -46 3 -53 -8 -42 -10 9 -14 39 -13 105 1 88 6
106 49 211 6 13 5 17 -3 12 -21 -13 -54 -123 -61 -206 -7 -81 -8 -84 -21 -57
-12 24 -11 41 2 117 9 49 28 115 42 146 15 31 25 59 23 60 -9 9 -49 -83 -71
-162 -18 -66 -25 -80 -25 -54 -1 76 32 183 79 260 l22 35 -26 -30 c-33 -38
-62 -100 -71 -151 -13 -71 -27 -73 -21 -3 7 88 35 158 93 233 26 33 50 63 53
66 4 3 9 13 13 22 6 17 63 58 80 58 4 0 7 -29 7 -65z m-1441 -203 c-22 -76
-39 -140 -39 -144 0 -5 -6 -8 -14 -8 -8 0 -25 -19 -38 -42 -36 -64 -52 -63
-45 4 3 31 1 60 -4 65 -10 10 68 315 84 325 5 3 29 -10 52 -29 l42 -35 -38
-136z m861 204 c0 -3 -4 -8 -10 -11 -5 -3 -10 -1 -10 4 0 6 5 11 10 11 6 0 10
-2 10 -4z m-210 -16 c0 -5 -5 -10 -11 -10 -5 0 -7 5 -4 10 3 6 8 10 11 10 2 0
4 -4 4 -10z m100 6 c0 -3 -4 -8 -10 -11 -5 -3 -10 -1 -10 4 0 6 5 11 10 11 6
0 10 -2 10 -4z m110 -11 c5 3 10 1 10 -4 0 -6 -4 -11 -9 -11 -5 0 -16 -3 -25
-6 -12 -4 -16 0 -16 16 0 19 3 20 15 10 8 -6 19 -9 25 -5z m-190 -15 c0 -16
-7 -20 -30 -20 -20 0 -30 5 -30 15 0 11 7 14 25 9 15 -4 25 -2 25 5 0 6 2 11
5 11 3 0 5 -9 5 -20z m730 0 c0 -11 -41 -50 -52 -50 -14 0 -9 16 13 44 19 24
39 27 39 6z m-530 -30 c0 -5 -9 -10 -20 -10 -11 0 -20 5 -20 10 0 6 9 10 20
10 11 0 20 -4 20 -10z m-330 -11 c-3 -3 1 -13 8 -22 11 -13 10 -21 -4 -49
l-17 -33 -14 34 c-9 22 -11 37 -4 44 5 5 7 16 4 24 -4 11 0 14 13 11 10 -2 17
-6 14 -9z m216 -6 c-4 -9 -2 -19 4 -23 7 -4 7 -17 -1 -40 -11 -31 -13 -32 -26
-15 -16 24 -17 52 0 58 9 4 9 8 -2 15 -11 8 -10 11 5 15 10 2 21 5 23 6 2 0 0
-7 -3 -16z m826 -260 c-2 -153 -6 -285 -10 -293 -4 -8 -9 113 -12 270 -3 157
-4 288 -2 293 2 4 9 7 15 7 9 0 11 -68 9 -277z m-928 252 c-4 -8 -1 -15 5 -15
16 0 13 -31 -4 -54 -16 -22 -16 -22 -33 16 -7 19 -8 29 -1 34 6 3 8 12 5 20
-3 9 2 14 14 14 13 0 18 -5 14 -15z m731 -14 c-8 -17 -19 -33 -25 -36 -16 -10
-11 32 6 49 25 26 36 18 19 -13z m-1161 -131 l139 -125 -46 -3 c-25 -2 -68 1
-94 7 -69 14 -218 67 -218 77 0 5 11 51 24 101 22 81 27 91 40 80 9 -6 79 -68
155 -137z m656 138 c0 -4 -5 -19 -11 -35 l-10 -28 -19 24 c-10 14 -16 30 -13
37 4 12 53 14 53 2z m645 -30 c-7 -24 -28 -88 -45 -142 -35 -108 -35 -104 20
-136 12 -7 9 -27 -23 -128 -20 -66 -35 -127 -32 -134 3 -8 -6 -25 -20 -38
l-25 -23 0 36 c0 20 4 37 9 37 5 0 26 48 46 108 l36 107 -34 28 -34 28 38 112
c20 62 40 129 44 150 4 20 13 37 21 37 11 0 10 -7 -1 -42z m-130 -30 c-4 -13
-13 -30 -21 -38 -12 -12 -14 -12 -14 4 0 23 18 56 31 56 6 0 8 -9 4 -22z
m-1104 -227 c82 -5 111 -10 127 -24 19 -18 19 -19 -26 -155 -38 -118 -45 -154
-53 -262 -6 -97 -16 -153 -44 -249 -20 -69 -39 -147 -42 -175 -7 -62 -23 -76
-82 -75 -81 1 -84 4 -98 110 -6 52 -17 135 -23 184 -18 130 -8 241 31 350 29
81 32 102 33 211 l1 121 35 -15 c19 -8 83 -17 141 -21z m703 -92 c-3 -67 -8
-127 -11 -133 -4 -6 -10 -80 -14 -166 -9 -188 -29 -480 -34 -497 -3 -9 -26
-13 -69 -13 -74 0 -96 14 -96 63 0 32 -20 114 -59 242 -24 81 -26 155 -6 240
8 33 15 81 15 108 0 46 1 47 25 41 14 -3 25 -3 25 1 0 4 -16 33 -35 66 -19 33
-37 70 -41 83 -5 22 -2 24 47 30 29 4 62 12 73 19 12 6 57 16 101 23 44 6 81
12 81 13 1 0 0 -54 -2 -120z m-1138 12 c6 -18 39 11 61 52 8 16 17 26 20 23 7
-7 -89 -176 -100 -176 -9 0 -8 117 2 171 6 33 6 32 9 -11 1 -25 5 -51 8 -59z
m1101 -846 c-10 -28 -156 -30 -184 -3 -10 11 7 13 87 13 59 0 99 -4 97 -10z
m-770 -29 c58 1 71 -2 62 -12 -27 -33 -165 -21 -177 15 -3 10 1 11 19 5 13 -5
57 -9 96 -8z m694 -16 c48 0 51 -17 6 -25 -40 -8 -99 6 -105 24 -4 11 3 13 28
8 18 -4 50 -7 71 -7z m78 -43 c1 -10 -3 -15 -9 -12 -5 3 -10 21 -9 38 0 27 2
29 9 12 5 -11 9 -28 9 -38z m-829 -4 c0 -10 -6 -13 -16 -9 -9 3 -20 6 -25 6
-5 0 -9 6 -9 14 0 9 8 12 25 8 14 -2 25 -11 25 -19z m120 7 c0 -11 -48 -25
-56 -17 -4 3 -3 10 1 16 8 14 55 14 55 1z m-80 -35 c0 -19 -4 -35 -10 -35 -5
0 -10 16 -10 35 0 19 5 35 10 35 6 0 10 -16 10 -35z m758 16 c6 -17 -120 -14
-144 3 -17 13 -11 14 61 11 46 -2 81 -8 83 -14z m-798 -34 c0 -16 -55 -2 -58
15 -3 15 1 15 27 5 17 -6 31 -15 31 -20z m120 8 c0 -8 -9 -15 -20 -15 -11 0
-23 -1 -27 -2 -3 -2 -8 2 -10 9 -4 10 5 14 50 22 4 0 7 -6 7 -14z m552 -32 c2
-20 9 -38 16 -41 11 -3 12 0 3 16 -23 44 -15 52 52 52 60 -1 63 -2 85 -36 l22
-36 -34 -38 c-18 -20 -39 -54 -46 -74 -15 -47 -37 -44 -58 9 -8 22 -28 59 -43
83 -22 32 -27 49 -22 72 8 41 21 38 25 -7z m207 -20 c18 -24 59 -64 92 -90 33
-25 57 -48 55 -51 -3 -2 -32 17 -65 42 -64 49 -131 124 -131 147 0 15 2 12 49
-48z m-881 -19 c4 -28 -18 -54 -45 -54 -13 0 -19 80 -7 93 14 14 49 -11 52
-39z m122 -14 c0 -56 1 -55 -35 -38 -19 9 -25 19 -25 44 0 23 5 34 18 37 39
10 42 8 42 -43z m-83 -66 c-6 -100 -10 -124 -22 -112 -9 9 8 218 18 218 6 0 8
-38 4 -106z m640 -2 c13 -30 22 -57 19 -59 -12 -12 -58 10 -68 32 -13 28 -2
99 14 89 5 -4 21 -31 35 -62z m203 48 c0 -6 -7 -13 -15 -16 -8 -3 -26 -30 -41
-60 -14 -30 -30 -54 -35 -54 -23 0 4 63 45 108 31 33 46 40 46 22z m15 -60
c-10 -11 -26 -36 -34 -55 -20 -43 -42 -35 -29 11 11 42 56 90 70 76 9 -9 7
-17 -7 -32z m-895 22 c0 -4 -18 -13 -40 -19 -43 -11 -54 -3 -17 15 26 13 57
15 57 4z m98 -8 c33 -23 27 -36 -8 -16 -16 9 -30 20 -30 25 0 11 14 8 38 -9z
m828 -59 c-14 -21 -26 -44 -26 -51 0 -8 -4 -14 -10 -14 -20 0 -10 59 16 90 37
44 53 24 20 -25z m-932 20 c-4 -8 -17 -15 -31 -15 -13 0 -33 -5 -44 -10 -10
-6 -19 -7 -19 -2 0 11 59 41 82 41 11 1 15 -4 12 -14z m132 -27 c5 -8 2 -9
-12 -4 -10 5 -27 11 -36 13 -10 3 -18 12 -18 19 0 12 5 12 29 -1 17 -8 33 -20
37 -27z m857 25 c4 -3 0 -14 -9 -24 -8 -9 -19 -30 -23 -45 -4 -16 -12 -27 -17
-24 -13 7 -7 48 11 76 16 24 26 29 38 17z m133 -29 c23 -20 24 -23 6 -14 -13
6 -28 10 -34 8 -6 -2 3 -10 20 -17 18 -8 32 -20 32 -29 0 -14 -1 -14 -12 0
-16 19 -73 42 -90 35 -7 -3 6 -13 30 -23 77 -31 47 -60 -43 -41 -60 12 -67 25
-39 65 11 16 22 21 36 17 14 -5 21 -1 25 13 6 24 29 20 69 -14z m-476 -4 c10
-5 51 -15 91 -20 41 -6 98 -22 129 -36 30 -14 92 -32 138 -40 78 -14 85 -14
128 5 29 13 44 16 41 8 -2 -6 -21 -18 -43 -25 -55 -19 -145 -8 -267 32 -56 19
-126 37 -155 41 -28 4 -62 15 -75 26 -24 20 -17 25 13 9z m-650 -10 c0 -5 -10
-10 -22 -10 -13 -1 -40 -7 -60 -14 -21 -8 -38 -10 -38 -6 0 11 70 39 98 39 12
1 22 -3 22 -9z m122 -21 l33 -31 -30 15 c-16 9 -38 18 -47 21 -10 3 -18 10
-18 16 0 20 30 10 62 -21z m-112 -21 c15 -10 24 -10 39 -1 15 9 26 8 52 -5 28
-14 34 -22 32 -45 -3 -41 -21 -59 -56 -55 -40 4 -45 23 -10 43 15 9 20 14 11
11 -12 -4 -18 0 -18 10 0 29 -25 8 -34 -29 -7 -26 -15 -37 -28 -37 -10 0 -18
1 -18 3 0 1 4 17 9 35 13 43 -3 41 -20 -3 -10 -24 -18 -32 -27 -27 -10 7 -10
15 -2 37 14 37 4 45 -12 9 -16 -38 -15 -37 -27 -30 -7 5 -7 15 -1 31 6 15 6
25 0 25 -5 0 -12 -9 -15 -20 -7 -22 -25 -27 -25 -7 0 23 17 38 56 52 49 18 69
18 94 3z m-119 -105 c50 -26 215 -30 241 -6 16 14 18 14 13 1 -20 -53 -233
-50 -281 3 -21 23 -16 24 27 2z"/>
<path d="M4895 5093 c32 -55 45 -72 45 -57 0 13 -58 104 -66 104 -3 0 6 -21
21 -47z"/>
<path d="M4700 5060 c0 -5 4 -10 10 -10 5 0 34 -20 65 -45 30 -25 55 -41 55
-36 0 10 -74 72 -107 90 -15 7 -23 8 -23 1z"/>
<path d="M5415 4860 l-20 -9 20 1 c11 0 31 4 45 8 l25 8 -25 0 c-14 0 -34 -3
-45 -8z"/>
<path d="M5453 4783 c15 -2 37 -2 50 0 12 2 0 4 -28 4 -27 0 -38 -2 -22 -4z"/>
<path d="M5083 4530 c-28 -11 -31 -24 -4 -15 10 3 26 2 36 -1 15 -6 13 -9 -11
-19 l-29 -11 35 -7 c21 -5 36 -3 38 3 2 5 8 8 13 4 8 -5 39 18 39 29 0 3 -16
8 -36 11 -19 4 -41 9 -47 11 -7 2 -22 0 -34 -5z"/>
<path d="M5166 4292 c-3 -5 22 -8 55 -8 32 1 59 4 59 9 0 10 -108 9 -114 -1z"/>
<path d="M5208 4253 c12 -2 30 -2 40 0 9 3 -1 5 -23 4 -22 0 -30 -2 -17 -4z"/>
<path d="M4933 4500 c-13 -5 -23 -12 -23 -15 0 -6 22 -1 57 12 7 3 16 -11 22
-34 6 -21 24 -52 40 -67 25 -24 28 -32 20 -54 -13 -35 -3 -76 28 -106 27 -27
26 -56 -2 -56 -27 0 -79 26 -102 51 -39 43 -53 89 -41 140 8 33 8 54 -1 75
l-11 29 5 -29 c3 -15 1 -52 -6 -80 -10 -47 -9 -56 10 -93 34 -68 110 -114 159
-97 36 13 37 26 1 63 -29 31 -31 37 -26 86 5 49 3 55 -24 81 -16 15 -34 45
-40 66 -10 40 -23 45 -66 28z"/>
<path d="M4995 4060 c9 -14 126 -73 132 -66 3 2 -27 21 -67 41 -40 20 -69 31
-65 25z"/>
<path d="M5191 4099 c-7 -12 -10 -23 -8 -26 3 -3 11 5 17 17 15 28 8 35 -9 9z"/>
<path d="M5250 4008 c-12 -22 -12 -22 6 -6 10 10 15 20 12 24 -4 3 -12 -5 -18
-18z"/>
<path d="M4882 3878 c3 -25 36 -37 48 -17 13 20 0 39 -27 39 -20 0 -24 -4 -21
-22z m38 -3 c0 -8 -4 -15 -9 -15 -13 0 -22 16 -14 24 11 11 23 6 23 -9z"/>
<path d="M5472 3878 c2 -15 11 -24 26 -26 18 -3 22 1 22 22 0 21 -5 26 -26 26
-21 0 -25 -4 -22 -22z m38 -3 c0 -8 -4 -15 -9 -15 -13 0 -22 16 -14 24 11 11
23 6 23 -9z"/>
<path d="M4646 3593 c-12 -82 -16 -158 -7 -138 10 23 25 175 18 175 -3 0 -8
-17 -11 -37z"/>
<path d="M5590 3509 c-14 -43 -20 -74 -14 -68 14 12 47 113 42 132 -2 7 -14
-21 -28 -64z"/>
<path d="M5780 3360 c17 -32 18 -40 6 -40 -8 0 -17 4 -20 9 -7 11 -46 22 -46
13 1 -8 66 -42 80 -42 6 0 10 7 10 15 0 20 -32 85 -42 85 -5 0 1 -18 12 -40z"/>
<path d="M5858 2507 c-58 -7 -78 -13 -78 -24 0 -11 -7 -13 -25 -9 -24 6 -25 5
-25 -49 0 -59 1 -60 31 -45 15 9 19 7 19 -5 0 -14 10 -15 73 -9 39 4 89 16
110 27 34 18 37 22 37 63 0 37 -3 44 -19 44 -11 0 -23 5 -26 10 -3 6 -9 9 -13
9 -4 -1 -42 -6 -84 -12z m86 -17 c-12 -12 -162 -26 -151 -14 8 8 76 20 132 23
19 1 26 -2 19 -9z m36 -39 c0 -17 -4 -33 -10 -36 -6 -4 -10 8 -10 29 0 20 5
36 10 36 6 0 10 -13 10 -29z m-35 -18 c-1 -36 -3 -38 -40 -45 -22 -4 -57 -7
-77 -7 -38 -1 -38 -1 -38 39 l0 39 58 4 c31 2 66 4 78 5 18 2 21 -3 19 -35z
m-167 -2 c3 -21 -11 -40 -30 -41 -5 0 -8 16 -8 36 0 28 3 35 18 32 9 -2 19
-14 20 -27z"/>
<path d="M5765 1504 c-11 -8 -27 -19 -35 -24 -8 -5 -12 -11 -9 -14 3 -3 22 6
42 20 40 27 46 20 21 -27 -8 -17 -13 -36 -11 -42 2 -7 12 5 21 27 29 69 16 95
-29 60z"/>
<path d="M4431 3265 c0 -11 7 -36 15 -55 l14 -35 -6 40 c-7 46 -24 83 -23 50z"/>
<path d="M4301 3200 c0 -14 6 -47 13 -75 18 -65 19 -38 2 40 -8 33 -14 49 -15
35z"/>
<path d="M4860 2925 c0 -22 4 -26 23 -23 14 2 22 10 22 23 0 13 -8 21 -22 23
-19 3 -23 -1 -23 -23z m40 0 c0 -8 -7 -15 -15 -15 -8 0 -15 7 -15 15 0 8 7 15
15 15 8 0 15 -7 15 -15z"/>
<path d="M4977 2933 c-13 -13 -7 -42 12 -52 27 -15 56 9 47 37 -7 21 -44 31
-59 15z m43 -23 c0 -11 -6 -20 -14 -20 -18 0 -29 16 -21 30 11 18 35 11 35
-10z"/>
<path d="M5370 2905 c0 -9 5 -15 10 -13 12 4 11 16 -1 24 -5 3 -9 -2 -9 -11z"/>
<path d="M5126 2912 c-8 -13 11 -35 23 -28 16 10 14 36 -3 36 -8 0 -17 -4 -20
-8z"/>
<path d="M5242 2928 c-28 -28 -1 -75 37 -63 25 8 34 31 21 56 -12 21 -40 25
-58 7z m46 -26 c3 -16 -2 -22 -17 -22 -26 0 -36 17 -20 36 16 19 33 13 37 -14z"/>
<path d="M5120 2790 c0 -13 7 -20 20 -20 13 0 20 7 20 20 0 13 -7 20 -20 20
-13 0 -20 -7 -20 -20z m30 0 c0 -5 -4 -10 -10 -10 -5 0 -10 5 -10 10 0 6 5 10
10 10 6 0 10 -4 10 -10z"/>
<path d="M5110 2640 c0 -23 35 -28 43 -6 7 18 -1 26 -25 26 -11 0 -18 -7 -18
-20z m30 0 c0 -5 -4 -10 -10 -10 -5 0 -10 5 -10 10 0 6 5 10 10 10 6 0 10 -4
10 -10z"/>
<path d="M5113 2574 c-8 -21 13 -42 28 -27 13 13 5 43 -11 43 -6 0 -13 -7 -17
-16z m27 -4 c0 -5 -4 -10 -10 -10 -5 0 -10 5 -10 10 0 6 5 10 10 10 6 0 10 -4
10 -10z"/>
<path d="M5105 2500 c-4 -7 -3 -16 3 -22 14 -14 45 -2 40 15 -6 16 -34 21 -43
7z m35 -10 c0 -5 -4 -10 -10 -10 -5 0 -10 5 -10 10 0 6 5 10 10 10 6 0 10 -4
10 -10z"/>
<path d="M5205 2800 c-4 -7 -3 -16 3 -22 14 -14 45 -2 40 15 -6 16 -34 21 -43
7z m25 -10 c0 -5 -5 -10 -11 -10 -5 0 -7 5 -4 10 3 6 8 10 11 10 2 0 4 -4 4
-10z"/>
<path d="M5211 2726 c-14 -17 -7 -36 14 -36 22 0 29 20 13 36 -13 13 -16 13
-27 0z"/>
<path d="M5207 2497 c-3 -8 -1 -20 3 -27 11 -18 41 5 33 26 -7 18 -29 18 -36
1z"/>
<path d="M4883 2745 c-6 -22 -14 -58 -17 -80 -5 -34 -3 -30 14 20 11 33 19 69
18 80 -2 13 -7 6 -15 -20z"/>
<path d="M5372 2045 c-1 -16 3 -48 7 -70 l9 -40 0 45 c0 25 -4 56 -8 70 -8 24
-8 24 -8 -5z"/>
<path d="M6066 2723 c-12 -12 -6 -33 9 -33 8 0 15 6 15 14 0 17 -14 28 -24 19z"/>
<path d="M6065 2250 c-7 -12 2 -30 16 -30 12 0 12 27 0 35 -5 3 -12 1 -16 -5z"/>
<path d="M4910 1751 c0 -6 4 -13 10 -16 6 -3 7 1 4 9 -7 18 -14 21 -14 7z"/>
<path d="M4751 1678 c1 -24 5 -54 9 -68 6 -19 8 -9 9 37 1 34 -3 65 -9 68 -6
4 -10 -11 -9 -37z"/>
<path d="M4911 1657 c-6 -15 -22 -45 -37 -67 -31 -47 -27 -66 5 -21 26 37 54
101 47 108 -3 3 -10 -6 -15 -20z"/>
<path d="M4840 1399 c0 -2 -7 -42 -15 -89 -8 -47 -14 -107 -13 -135 0 -31 2
-39 5 -20 2 17 10 77 18 134 9 57 13 106 10 109 -3 3 -5 3 -5 1z"/>
<path d="M5475 1780 c-16 -16 -26 -32 -24 -35 3 -3 18 9 34 25 16 16 26 32 24
35 -3 3 -18 -9 -34 -25z"/>
<path d="M5450 1651 c4 -16 13 -38 20 -48 10 -16 11 -15 5 7 -4 14 -9 35 -12
48 -3 12 -9 22 -13 22 -5 0 -5 -13 0 -29z"/>
<path d="M5410 1328 c0 -18 -4 -50 -9 -70 -5 -21 -5 -36 -1 -33 5 3 12 27 15
53 4 26 9 55 12 65 2 9 0 17 -6 17 -6 0 -11 -15 -11 -32z"/>
</g>
</svg>
