<?xml version="1.0" standalone="no"?>
<!DOCTYPE svg PUBLIC "-//W3C//DTD SVG 20010904//EN"
 "http://www.w3.org/TR/2001/REC-SVG-20010904/DTD/svg10.dtd">
<svg version="1.0" xmlns="http://www.w3.org/2000/svg"
 width="1024.000000pt" height="559.000000pt" viewBox="0 0 1024.000000 559.000000"
 preserveAspectRatio="xMidYMid meet">
<metadata>
Created by potrace 1.16, written by Peter Selinger 2001-2019
</metadata>
<g transform="translate(0.000000,559.000000) scale(0.100000,-0.100000)"
fill="#000000" stroke="none">
<path d="M5880 5203 c0 -5 11 -74 25 -154 13 -79 34 -202 45 -274 11 -71 27
-168 35 -215 13 -80 14 -81 9 -20 -11 140 -95 654 -109 668 -3 3 -5 1 -5 -5z"/>
<path d="M6500 5196 c0 -4 5 -38 11 -76 12 -80 22 -57 -120 -260 -137 -196
-274 -382 -354 -483 l-69 -87 -28 20 c-15 11 -40 24 -56 31 -53 20 -188 43
-266 45 -88 2 -131 21 -160 70 -16 27 -17 41 -8 108 5 42 16 87 25 99 21 30
19 74 -10 192 -61 245 -129 338 -238 321 -60 -10 -259 -133 -342 -212 -69 -66
-70 -67 -69 -118 2 -99 17 -211 32 -235 9 -13 15 -41 13 -66 -1 -34 10 -67 59
-169 35 -72 70 -131 82 -137 18 -10 93 -9 127 2 33 10 17 -19 -26 -45 -25 -17
-79 -62 -118 -100 l-71 -71 -95 -18 c-120 -24 -340 -80 -415 -107 -69 -24 -78
-25 -71 -6 7 17 -11 36 -34 36 -13 0 -17 15 -23 83 -4 45 -13 134 -21 197 -7
63 -21 176 -30 250 -30 250 -107 640 -127 640 -11 0 -11 4 12 -103 40 -188 90
-502 105 -657 4 -36 15 -135 26 -220 10 -85 19 -173 18 -195 l0 -40 -19 55
c-27 83 -171 568 -235 795 -85 301 -125 426 -134 421 -6 -4 66 -272 139 -516
44 -148 187 -632 208 -702 22 -76 24 -91 12 -112 -11 -21 -23 -26 -79 -32 -36
-3 -72 -11 -78 -16 -19 -16 -15 -56 7 -75 19 -17 19 -18 -20 -55 -26 -25 -49
-38 -67 -38 -37 -1 -63 -17 -104 -64 -19 -22 -176 -183 -349 -359 -294 -298
-315 -317 -324 -295 -31 74 -69 145 -87 161 -43 35 -230 6 -274 -43 -17 -19
-17 -22 14 -85 62 -126 86 -257 83 -450 -1 -70 4 -104 20 -122 13 -15 18 -70
27 -283 21 -480 47 -780 87 -1000 8 -47 19 -107 24 -135 33 -191 130 -525 153
-525 12 0 9 13 -37 170 -75 254 -136 587 -165 900 -9 96 -35 572 -43 794 l-2
59 87 2 c83 3 87 2 87 -19 0 -29 35 -237 60 -360 49 -235 115 -467 157 -549
18 -35 10 -47 -30 -47 -18 0 -50 -5 -71 -11 l-39 -11 6 -106 c3 -59 13 -132
22 -162 22 -75 31 -120 45 -220 23 -162 95 -430 115 -430 10 0 10 10 -1 48 -8
26 -21 68 -29 94 l-14 47 91 -80 c50 -44 105 -87 122 -95 25 -12 21 -6 -19 28
-27 23 -85 76 -127 118 -85 82 -81 73 -118 290 -6 36 -14 74 -17 85 -3 11 41
-28 98 -86 112 -114 274 -240 434 -336 134 -81 263 -145 283 -141 10 2 -25 25
-78 52 -272 140 -541 337 -673 494 -35 43 -70 88 -76 101 -14 25 -41 176 -41
225 0 26 4 23 47 -35 201 -275 413 -450 757 -624 263 -132 519 -238 564 -233
22 2 12 9 -48 32 -547 208 -930 440 -1136 688 -90 107 -174 218 -174 227 0 8
72 21 114 21 16 0 37 -22 76 -76 81 -113 282 -301 417 -391 192 -127 439 -237
822 -367 247 -84 390 -126 432 -126 54 0 22 15 -116 55 -209 60 -613 201 -730
255 -203 93 -239 112 -220 120 29 13 167 55 263 81 75 20 88 21 133 10 52 -14
82 -11 169 15 49 14 52 17 48 44 l-4 28 193 49 193 49 1 -26 c2 -73 -4 -137
-16 -160 -21 -40 -110 -104 -222 -160 -59 -30 -108 -61 -118 -76 -22 -35 -15
-73 18 -98 25 -18 42 -21 125 -20 58 0 123 8 162 18 36 10 123 24 193 31 71 8
135 19 143 26 17 14 12 103 -14 219 -9 41 -17 98 -18 125 -2 28 -6 78 -10 112
-6 60 -5 62 17 68 141 32 156 34 192 24 29 -8 52 -6 98 5 33 9 63 16 65 16 2
0 4 8 4 18 0 15 14 21 73 32 39 7 110 21 157 31 65 14 86 15 92 6 100 -149
154 -282 152 -368 -3 -75 -88 -220 -155 -263 -32 -20 -44 -53 -40 -109 2 -40
132 -65 241 -47 87 15 124 39 175 116 22 33 53 76 69 95 50 59 56 85 36 145
-10 29 -37 83 -59 120 -23 37 -41 75 -41 84 0 8 -9 32 -20 53 -21 38 -60 184
-60 223 0 19 11 23 108 41 76 15 114 18 132 11 14 -6 53 -7 88 -4 l62 7 0 -53
c0 -75 8 -97 42 -114 40 -21 167 -20 208 1 l30 16 0 118 0 118 173 28 c94 15
181 31 192 36 41 16 -49 9 -200 -16 -82 -14 -153 -25 -157 -25 -5 0 -8 96 -7
213 0 209 0 211 17 170 9 -23 20 -45 24 -49 4 -4 5 -17 2 -29 -4 -16 1 -29 16
-43 19 -17 21 -27 15 -64 -4 -24 -14 -56 -22 -72 -15 -28 -14 -31 6 -47 12
-10 28 -16 35 -13 32 12 60 123 45 179 -10 34 -9 40 10 54 46 35 54 88 55 359
1 215 3 253 16 256 8 3 50 8 93 12 42 3 80 10 83 15 6 11 -79 11 -151 0 -46
-6 -52 -5 -72 20 l-22 26 107 13 c59 7 114 17 122 21 29 16 -63 9 -202 -16
-24 -4 -28 -1 -28 19 0 22 6 24 93 35 140 18 157 21 157 31 0 12 7 13 -130 -4
-63 -8 -115 -14 -116 -13 -1 1 -4 79 -5 172 -4 165 -3 171 19 193 22 22 27 51
13 87 -5 11 -4 34 1 50 8 31 -6 85 -23 85 -5 0 -9 183 -9 415 l0 415 69 0 c89
0 161 10 161 23 0 6 -42 7 -115 2 l-116 -7 3 67 3 68 105 -1 c68 0 96 2 80 8
-14 4 -55 8 -92 9 -36 1 -72 3 -80 6 -11 4 -12 99 -10 520 2 353 0 515 -8 515
-7 0 -10 -196 -10 -617 0 -697 -10 -1481 -19 -1461 -3 7 -4 474 -1 1038 3 564
2 1029 -2 1035 -5 5 -8 -128 -8 -296 0 -168 -3 -401 -7 -517 l-6 -212 -35 0
-34 0 7 505 c5 342 4 505 -3 505 -16 0 -21 -191 -33 -1460 -22 -2333 -24
-2459 -37 -2472 -17 -17 -133 -23 -176 -8 l-36 12 0 116 c0 127 23 1781 40
2832 12 783 13 1000 2 1000 -9 0 -31 -108 -77 -370 -63 -358 -131 -646 -236
-992 -18 -59 -36 -105 -40 -102 -4 2 -4 17 1 32 66 223 89 307 130 477 41 168
82 362 139 660 6 28 17 97 26 155 9 58 18 115 21 128 2 12 0 22 -4 22 -5 0
-17 -46 -26 -102 -46 -271 -137 -721 -179 -883 l-13 -50 -175 -11 c-96 -7
-187 -15 -204 -19 -27 -8 -33 -3 -86 55 l-57 64 45 56 c80 99 336 444 403 543
36 53 68 96 73 97 4 0 7 -10 8 -22 1 -54 47 -369 48 -333 0 22 -3 67 -8 100
-5 33 -15 110 -22 172 l-12 111 66 102 c61 94 75 120 62 120 -2 0 -68 -96
-147 -212 -110 -165 -358 -505 -514 -707 -6 -8 -16 -11 -23 -7 -8 5 -7 12 5
23 97 98 641 867 632 895 -2 6 -24 -20 -48 -58 l-45 -68 -11 62 c-10 53 -24
94 -24 68z m-1179 -73 c37 -32 69 -100 104 -220 14 -47 25 -86 25 -88 0 -1
-39 17 -87 41 -113 56 -222 85 -349 91 l-101 6 38 34 c20 19 86 63 146 98 127
77 169 84 224 38z m1454 -395 c-5 -206 -13 -365 -24 -442 l-17 -121 -67 -3
c-80 -3 -77 -11 -42 129 39 152 79 355 136 687 7 39 14 72 17 72 2 0 1 -145
-3 -322z m-1700 192 c121 -16 302 -83 365 -137 20 -17 30 -34 30 -53 0 -41
-17 -46 -49 -16 -62 60 -263 131 -400 142 -70 5 -126 -2 -175 -21 -17 -7 -18
-5 -12 21 11 42 30 57 83 65 70 9 81 9 158 -1z m-78 -107 c-15 -15 -19 -16
-26 -4 -8 12 -14 10 -36 -8 -34 -26 -45 -27 -45 -3 0 28 9 32 69 32 53 0 54
-1 38 -17z m-132 -13 c-10 -11 -21 -17 -24 -14 -3 3 3 12 13 20 28 20 32 17
11 -6z m268 11 c17 -7 26 -20 31 -44 5 -26 16 -41 40 -55 23 -13 35 -30 39
-51 9 -44 46 -40 61 6 15 45 39 67 65 58 39 -12 40 -89 1 -153 -16 -26 -25
-32 -41 -27 -16 5 -20 3 -17 -6 3 -8 18 -14 34 -13 31 0 40 -7 85 -78 33 -51
110 -98 161 -98 42 0 35 -19 -29 -81 -175 -168 -340 -226 -425 -150 l-33 29
24 26 c14 14 28 26 33 26 4 0 17 -17 28 -37 l21 -38 -5 38 c-3 20 -15 51 -27
68 l-21 30 21 15 c39 27 11 34 -29 8 -41 -27 -115 -41 -137 -27 -7 5 -32 48
-57 96 -44 86 -44 87 -20 87 13 0 32 4 42 9 9 5 25 12 35 15 22 7 20 47 -3 54
-13 5 -13 3 -1 -12 16 -19 17 -18 -30 -34 -61 -21 -63 -20 -55 57 3 38 9 77
13 86 5 14 2 16 -15 11 -12 -4 -23 -2 -28 5 -5 9 -2 10 9 6 13 -5 17 -1 16 16
0 12 -3 17 -5 10 -3 -7 -15 -8 -32 -4 -25 7 -27 12 -24 52 4 65 8 72 31 57 16
-10 23 -9 39 6 15 13 21 14 24 4 3 -9 12 -8 34 7 16 11 36 18 46 17 9 -2 19 2
23 8 8 12 46 13 78 1z m122 -35 c33 -13 60 -27 59 -32 -1 -17 -39 -94 -46 -94
-3 0 -9 13 -13 29 -3 16 -15 37 -26 47 -10 9 -19 24 -20 33 0 12 -3 11 -9 -4
-7 -19 -9 -18 -19 8 -6 16 -11 30 -11 33 0 9 27 2 85 -20z m178 -174 c-6 -74
-15 -91 -37 -73 -13 11 -12 18 5 54 10 23 19 55 19 70 0 16 4 26 10 22 5 -3 7
-34 3 -73z m-558 28 c3 -5 1 -10 -4 -10 -6 0 -11 5 -11 10 0 6 2 10 4 10 3 0
8 -4 11 -10z m29 -97 c-9 -65 -14 -67 -14 -5 0 30 4 52 11 52 7 0 8 -16 3 -47z
m1009 -240 c32 -18 79 -61 130 -118 44 -49 116 -125 161 -167 58 -55 76 -77
62 -78 -33 0 -85 -49 -159 -147 -40 -53 -79 -106 -87 -119 -8 -13 -18 -24 -21
-24 -4 0 -18 17 -33 38 -32 47 -96 110 -96 95 0 -11 106 -152 125 -166 5 -4
20 -5 33 -2 19 5 22 2 22 -28 0 -39 -34 -75 -148 -157 -60 -43 -89 -57 -155
-72 -76 -18 -85 -23 -147 -81 -36 -34 -68 -69 -71 -78 -7 -15 -229 -149 -248
-149 -25 0 -79 35 -93 59 -10 16 -20 77 -27 159 -12 133 -14 142 -112 472 -16
52 -29 103 -29 113 0 9 -4 17 -9 17 -14 0 -2 -72 34 -205 18 -66 32 -121 30
-123 -5 -5 -49 79 -79 151 -31 71 -46 84 -26 20 19 -58 57 -129 89 -165 28
-32 47 -78 53 -128 3 -21 -1 -25 -22 -22 -56 8 -131 35 -186 68 -102 61 -100
54 -60 175 18 57 44 151 56 209 32 157 66 219 153 282 l27 19 25 -30 c73 -86
225 -62 391 63 93 69 147 132 142 164 l-4 27 114 -22 c71 -14 134 -34 165 -50z
m848 -260 c-29 -203 -62 -447 -91 -683 -22 -178 -44 -277 -35 -160 2 36 16
151 30 255 46 339 85 659 85 692 0 17 3 40 8 50 12 29 14 -78 3 -154z m-236
90 c-3 -10 -13 -45 -22 -78 -8 -33 -18 -63 -21 -66 -4 -4 -47 -10 -97 -13
l-90 -6 -79 74 c-53 50 -74 77 -65 80 18 7 223 23 313 25 61 1 67 -1 61 -16z
m199 -55 c-3 -40 -8 -76 -10 -79 -2 -3 -36 -7 -75 -8 -40 -1 -77 -3 -83 -4
-14 -2 -13 1 13 91 l22 72 70 0 70 0 -7 -72z m376 3 c0 -63 -2 -69 -22 -75
-46 -12 -48 -10 -48 69 l0 75 35 0 35 0 0 -69z m-2190 -73 c0 -2 -9 -34 -19
-73 l-18 -70 -119 -11 c-355 -34 -406 -36 -419 -17 -18 24 -12 27 128 68 137
40 448 111 447 103z m2190 -423 c0 -398 0 -405 -21 -426 -16 -16 -19 -28 -14
-47 8 -33 8 -57 -1 -100 -4 -22 -1 -40 10 -57 13 -20 16 -56 16 -210 l0 -185
-37 0 -38 0 2 547 c2 302 6 621 9 710 7 175 3 165 62 172 9 1 12 -86 12 -404z
m-390 372 c0 -17 -66 -518 -84 -644 -10 -64 -20 -100 -35 -120 -17 -21 -21
-35 -16 -64 5 -29 2 -44 -14 -66 -31 -42 -36 -84 -14 -112 19 -23 19 -26 1
-125 -10 -55 -18 -106 -18 -112 0 -7 -11 -15 -25 -18 -27 -7 -55 -52 -55 -88
1 -13 7 -34 15 -48 31 -55 15 -71 -90 -85 -47 -6 -88 -8 -90 -5 -2 3 -15 76
-29 161 -34 208 -69 340 -111 424 -39 77 -42 97 -20 115 10 9 15 32 15 76 l0
63 44 19 c70 32 155 90 219 151 89 84 97 109 65 194 -16 40 55 275 86 287 36
15 156 12 156 -3z m-240 -9 c0 -17 -51 -181 -55 -177 -47 52 -115 146 -115
160 0 15 10 19 53 22 109 7 117 7 117 -5z m-2160 -42 c0 -2 -11 -27 -25 -54
-15 -30 -25 -67 -25 -93 0 -32 -3 -40 -10 -29 -14 22 -12 64 4 97 8 15 19 40
25 56 6 15 15 27 21 27 5 0 10 -2 10 -4z m2028 -83 c76 -97 107 -150 117 -206
7 -34 4 -40 -51 -98 -75 -78 -109 -101 -279 -188 -76 -39 -148 -79 -158 -89
-11 -9 -35 -49 -52 -88 -31 -66 -82 -124 -108 -124 -7 0 -3 7 7 15 29 22 13
29 -23 11 -16 -9 -38 -16 -48 -16 -16 1 -16 2 2 16 11 8 27 19 35 24 8 5 12
11 8 15 -3 4 -27 -5 -53 -20 -55 -33 -67 -27 -31 15 14 17 26 36 26 41 0 11
-49 -21 -70 -46 -12 -14 -50 -22 -50 -9 0 3 18 35 40 71 22 37 40 77 40 90 0
24 -15 32 -22 12 -4 -11 -92 -49 -113 -49 -5 0 4 9 21 19 18 11 44 35 59 55
27 35 71 54 167 70 50 9 223 139 277 209 46 61 89 97 145 123 36 18 47 34 23
34 -8 0 -34 -10 -59 -23 -45 -23 -46 -23 -72 -4 -14 10 -26 23 -26 28 0 27
143 199 166 199 7 0 44 -39 82 -87z m412 -688 c-7 -330 -14 -603 -16 -606 -2
-4 -30 -10 -61 -13 -32 -4 -75 -9 -95 -12 -47 -7 -51 12 -12 51 24 24 26 32
21 78 -9 79 31 287 59 309 26 21 36 66 24 108 -8 27 -6 37 10 58 24 29 26 59
6 81 -13 14 -10 56 25 331 21 173 40 322 41 330 9 66 8 -210 -2 -715z m-1886
678 c-4 -16 -9 -31 -13 -34 -3 -4 -105 -12 -226 -18 -121 -6 -239 -14 -262
-17 -36 -5 -42 -3 -48 16 -4 12 -3 26 2 30 6 6 220 26 536 49 14 1 16 -4 11
-26z m-564 -65 c6 -18 5 -28 -1 -28 -15 0 -28 45 -21 71 6 22 7 22 10 4 2 -11
7 -32 12 -47z m-87 28 c-10 -18 -113 -126 -119 -126 -9 0 110 139 119 139 4 1
4 -5 0 -13z m-55 -21 c-27 -31 -78 -35 -78 -7 0 27 9 32 57 32 l43 0 -22 -25z
m677 -52 c-8 -27 -23 -74 -34 -107 -22 -61 -18 -86 15 -104 14 -8 14 -16 3
-70 -12 -55 -18 -67 -61 -102 -26 -22 -75 -75 -109 -118 -34 -42 -92 -108
-128 -145 -55 -57 -75 -70 -121 -83 -93 -26 -128 -45 -154 -85 -14 -21 -41
-50 -61 -66 -20 -16 -35 -37 -35 -50 0 -17 -12 -25 -67 -43 -133 -41 -639
-199 -703 -218 -45 -14 -67 -16 -72 -9 -4 6 -4 15 -1 20 3 6 -4 29 -17 53
l-24 42 146 159 c80 87 192 210 248 273 232 257 287 318 341 375 44 48 58 70
64 105 5 27 22 64 45 95 62 83 70 88 135 80 36 -5 65 -3 78 4 20 10 328 36
469 40 l57 1 -14 -47z m1230 -40 c-28 -20 -41 -16 -20 7 10 11 22 17 28 13 6
-4 3 -12 -8 -20z m33 -45 c-23 -32 -23 -33 -26 -9 -4 24 11 41 36 41 9 0 6
-11 -10 -32z m-2018 7 c0 -8 -4 -15 -10 -15 -5 0 -10 7 -10 15 0 8 5 15 10 15
6 0 10 -7 10 -15z m-66 -71 c-21 -25 -51 -60 -66 -77 -14 -18 -30 -29 -33 -25
-4 4 13 28 37 55 25 26 55 60 68 75 13 16 26 26 28 23 3 -2 -13 -25 -34 -51z
m-54 -4 c-51 -61 -60 -67 -60 -40 0 26 61 90 85 90 13 0 6 -13 -25 -50z m65
-49 c-16 -31 -61 -68 -71 -58 -3 3 14 27 38 54 46 52 59 54 33 4z m-152 -5
c-16 -27 -643 -658 -643 -647 0 10 637 661 647 661 2 0 0 -6 -4 -14z m30 -99
c-10 -11 -112 -125 -228 -252 -115 -127 -255 -281 -310 -342 -109 -120 -107
-119 -120 -29 l-7 46 318 323 318 322 24 -23 c23 -23 23 -25 5 -45z m1010 34
c28 -17 79 -37 113 -47 l60 -16 -30 -77 c-17 -42 -42 -93 -55 -114 -26 -43
-130 -134 -211 -185 -184 -117 -216 -141 -233 -176 -16 -35 -18 -36 -71 -36
-30 0 -58 5 -61 10 -3 6 -18 11 -33 11 -20 1 -22 2 -7 6 40 9 74 25 79 39 4
12 0 11 -26 -2 -21 -11 -47 -15 -78 -12 -42 4 -52 1 -85 -28 -41 -35 -82 -51
-97 -36 -6 6 2 17 19 30 16 12 42 39 58 62 33 47 83 76 147 86 38 6 54 18 146
113 56 58 143 147 191 197 80 82 90 96 102 147 6 32 14 57 16 57 2 0 27 -13
56 -29z m-960 -25 c-4 -8 -71 -83 -148 -168 -77 -84 -196 -216 -265 -292 -197
-220 -262 -291 -273 -295 -6 -2 -6 2 -1 12 10 17 686 757 691 757 2 0 0 -6 -4
-14z m1184 -162 c6 -115 15 -144 57 -183 14 -14 26 -32 26 -41 0 -19 -160
-102 -275 -143 -78 -28 -254 -72 -328 -82 l-48 -6 16 25 c16 25 56 53 221 158
95 61 210 171 238 228 13 25 33 73 46 108 14 38 27 59 32 54 5 -5 12 -58 15
-118z m978 12 c10 -50 -20 -95 -74 -111 l-24 -7 22 37 c32 55 19 54 -22 -2
-35 -48 -103 -89 -90 -55 31 79 51 105 109 137 32 18 62 33 66 34 4 0 10 -14
13 -33z m-472 -75 c-6 -3 -18 -21 -28 -40 -13 -27 -19 -31 -27 -20 -7 10 -8 8
-5 -9 5 -23 -12 -92 -22 -92 -4 0 -6 -69 -5 -152 1 -122 6 -169 22 -232 51
-187 158 -288 265 -251 48 17 57 13 32 -15 -23 -25 -102 -27 -146 -4 -48 24
-112 86 -98 95 8 4 5 9 -8 13 -21 7 -57 71 -48 86 3 4 1 10 -5 12 -5 1 -14 18
-20 36 -8 30 -7 33 8 27 13 -5 12 -1 -4 17 -12 13 -24 43 -27 68 -3 25 -4 39
-1 33 3 -7 10 -13 16 -13 6 0 4 8 -5 18 -10 11 -17 35 -17 58 0 29 3 35 10 24
6 -9 10 -10 10 -3 0 6 -4 15 -10 18 -5 3 -10 27 -10 52 0 41 2 44 17 32 15
-13 15 -12 5 8 -15 27 -16 83 -2 83 6 0 10 12 10 28 0 43 88 169 99 140 2 -6
-1 -13 -6 -17z m993 -93 c28 -67 30 -87 8 -114 -15 -18 -15 -17 -10 14 4 22
-3 52 -21 96 -17 42 -23 71 -18 83 8 17 8 17 13 -2 2 -11 15 -46 28 -77z m35
46 c-15 -34 -23 -26 -15 15 5 22 10 29 17 22 7 -7 7 -19 -2 -37z m-1157 4
c-39 -51 -489 -299 -514 -283 -6 4 44 35 112 69 68 34 188 101 268 149 80 48
146 87 148 87 2 0 -5 -10 -14 -22z m30 -15 c-28 -42 -64 -115 -64 -130 0 -7
-4 -13 -10 -13 -13 0 -13 4 4 45 16 38 74 125 83 125 3 0 -3 -12 -13 -27z
m1621 -151 l-8 -27 -7 31 c-4 17 -21 56 -38 86 -49 84 -38 91 14 10 38 -60 45
-77 39 -100z m0 117 c-10 -30 -25 -9 -18 25 5 24 7 26 15 12 5 -9 6 -26 3 -37z
m-1085 35 c0 -10 -129 -66 -140 -59 -18 11 -11 25 13 26 12 0 42 8 67 19 50
20 60 23 60 14z m43 -81 c48 -109 78 -229 108 -433 19 -127 35 -197 112 -483
12 -47 7 -52 -61 -70 -36 -9 -63 -24 -83 -45 -32 -34 -37 -36 -149 -52 -41 -6
-85 -13 -97 -17 -21 -5 -23 -2 -23 40 0 36 6 52 26 72 20 21 25 32 19 53 -8
33 -8 48 0 87 5 23 2 35 -13 48 -17 16 -18 23 -7 100 7 45 22 103 33 128 52
112 50 309 -5 482 -13 43 -22 82 -19 85 4 3 22 11 40 17 l34 12 26 -86 c14
-47 31 -108 37 -134 19 -79 22 -45 4 45 -9 46 -26 105 -37 131 -20 47 -20 48
-2 62 10 8 22 15 25 15 4 0 18 -26 32 -57z m-665 0 c-18 -42 -23 -46 -58 -38
l-33 7 49 29 c27 16 50 29 51 29 2 0 -3 -12 -9 -27z m486 -48 c27 -69 33 -96
16 -79 -5 5 -18 34 -29 64 -10 30 -22 64 -27 74 -5 13 -4 17 3 13 6 -4 23 -36
37 -72z m-2851 56 c49 -19 94 -129 132 -324 32 -166 32 -172 -5 -187 -17 -7
-32 -11 -34 -9 -1 2 -10 49 -20 104 -32 184 -97 375 -126 375 -6 0 0 -21 14
-47 13 -27 31 -74 40 -107 18 -62 75 -329 72 -333 -9 -10 -126 -13 -148 -4
-23 8 -28 17 -28 43 0 84 -51 292 -91 371 -16 32 -29 60 -29 62 0 9 48 29 110
46 78 21 82 22 113 10z m2631 -32 c4 -3 -23 -9 -60 -13 -37 -4 -69 -5 -71 -2
-3 2 -2 13 1 24 6 17 11 18 65 8 33 -6 62 -14 65 -17z m851 -27 c-5 -28 -9
-33 -16 -20 -5 10 -4 28 3 49 14 41 23 22 13 -29z m-681 32 c3 -9 6 -27 6 -40
0 -13 4 -24 9 -24 9 0 21 -54 26 -110 1 -14 6 -46 10 -71 4 -31 3 -49 -4 -53
-6 -4 -11 -12 -11 -17 0 -6 4 -8 9 -4 6 3 10 -33 10 -90 0 -52 -4 -97 -8 -99
-4 -3 -6 -29 -3 -59 3 -44 1 -55 -13 -61 -15 -5 -16 -1 -11 31 8 55 12 402 4
397 -3 -2 -9 22 -13 53 -4 32 -15 77 -26 101 -18 41 -18 62 1 62 4 0 11 -7 14
-16z m720 -23 c-2 -9 -15 -88 -29 -176 -28 -174 -34 -199 -42 -191 -3 3 9 96
27 206 19 110 37 195 41 189 3 -6 5 -19 3 -28z m496 26 c0 -7 -7 -22 -15 -33
-12 -16 -14 -17 -15 -2 0 23 11 48 21 48 5 0 9 -6 9 -13z m-1291 -44 c6 -13
16 -66 22 -117 20 -158 -17 -355 -72 -383 -24 -12 -75 -7 -97 10 -50 39 -92
208 -92 368 l0 116 76 6 c41 4 83 11 91 16 30 16 60 9 72 -16z m42 -15 c43
-160 36 -353 -15 -423 -12 -16 -11 -10 2 35 22 76 22 327 0 388 -9 23 -12 42
-7 42 4 0 13 -19 20 -42z m-366 -73 c-6 -55 -7 -111 -3 -125 4 -14 13 -59 21
-100 20 -99 51 -180 88 -226 16 -20 27 -39 24 -42 -7 -7 -71 39 -85 62 -12 20
-12 20 7 4 34 -31 38 -20 6 15 -17 17 -36 42 -42 54 -10 20 -9 22 6 16 15 -5
14 -2 -4 18 -12 13 -26 43 -31 67 -9 39 -9 42 6 30 12 -9 12 -6 -2 9 -17 20
-18 35 -13 140 4 96 21 195 31 181 2 -2 -2 -48 -9 -103z m-68 80 c2 -1 -4 -33
-12 -71 -19 -89 -19 -249 0 -339 55 -262 258 -381 428 -251 l37 28 0 -28 c0
-34 -8 -48 -32 -57 -21 -8 -25 -66 -6 -85 9 -9 10 -15 2 -20 -19 -12 -25 -49
-13 -76 7 -14 16 -26 21 -26 11 0 10 -107 -1 -114 -5 -3 -83 -7 -172 -8 -136
-1 -172 1 -209 16 -54 21 -152 42 -240 51 -52 6 -249 51 -257 59 -4 4 73 296
122 461 26 88 56 192 66 230 24 86 49 156 62 172 5 7 32 26 61 42 43 25 58 29
96 24 25 -3 46 -7 47 -8z m1700 -562 c-2 -358 -7 -589 -13 -608 -10 -30 -43
-42 -51 -19 -2 7 4 11 14 10 28 -2 31 55 32 629 0 292 1 538 1 548 0 9 4 17
10 17 6 0 9 -206 7 -577z m-1669 500 c-19 -96 -9 -288 18 -365 10 -29 10 -38
1 -39 -9 0 -8 -2 1 -6 7 -3 21 -22 32 -44 27 -52 76 -106 114 -126 34 -18 114
-34 118 -23 4 10 68 21 68 11 0 -12 -49 -30 -85 -32 -60 -3 -76 1 -69 14 5 9
4 9 -6 0 -10 -9 -20 -8 -46 4 -18 9 -31 20 -28 25 3 4 -1 8 -9 8 -16 0 -44 28
-49 50 -2 8 -11 21 -20 28 -22 16 -78 189 -57 176 15 -9 10 13 -6 26 -20 16
-22 135 -2 124 9 -6 9 -4 -1 8 -14 18 -13 98 1 98 5 0 7 6 4 13 -7 19 13 108
23 102 4 -2 3 -26 -2 -52z m-288 -49 c-10 -24 -74 -242 -143 -484 l-22 -75
-55 -8 c-90 -13 -1058 -175 -1150 -192 -47 -9 -121 -22 -165 -30 -44 -8 -122
-21 -173 -31 -51 -9 -95 -14 -98 -12 -2 3 -18 85 -34 182 -21 125 -27 183 -20
196 6 11 38 26 82 39 89 27 477 145 651 199 114 35 127 37 127 21 0 -23 17
-33 60 -35 19 -2 74 -6 123 -9 99 -8 120 0 156 58 20 33 23 35 104 42 142 12
399 88 526 156 19 10 36 17 38 15 2 -2 -1 -16 -7 -32z m817 -30 c8 -38 8 -60
2 -62 -6 -3 -5 -9 2 -18 14 -17 6 -214 -10 -241 -8 -14 -10 -1 -11 55 0 53 3
71 12 66 8 -5 9 -2 4 12 -5 10 -10 48 -12 84 -2 36 -7 89 -12 118 -13 75 9 63
25 -14z m-1003 17 c16 -25 -315 -111 -371 -96 -13 3 -23 1 -23 -5 0 -5 -24
-10 -55 -10 -30 0 -55 5 -55 10 0 6 16 10 35 10 19 0 79 8 133 17 53 9 114 17
134 17 20 0 35 3 32 7 -2 4 31 19 73 32 93 30 90 29 97 18z m-674 -61 c-6 -11
-16 -20 -22 -20 -6 0 -3 9 7 20 10 11 20 20 22 20 2 0 -1 -9 -7 -20z m48 -23
c5 -23 -34 -106 -53 -113 -34 -14 -36 12 -5 75 30 59 51 74 58 38z m57 -34
c-10 -57 -33 -93 -56 -93 -16 0 -19 4 -14 18 4 9 15 38 24 64 11 34 21 48 35
48 16 0 17 -5 11 -37z m-139 13 c8 -20 -35 -86 -56 -86 -33 0 -32 19 0 60 33
42 47 49 56 26z m186 -42 c-4 -42 -26 -75 -40 -59 -5 6 -3 31 5 58 17 58 40
58 35 1z m-262 27 c0 -11 -83 -38 -485 -160 -165 -50 -322 -98 -348 -107 -26
-9 -51 -14 -54 -10 -10 10 0 15 103 45 136 40 324 98 549 169 105 33 199 62
210 65 11 3 21 5 23 6 1 0 2 -3 2 -8z m2320 -66 c0 -8 -4 -15 -9 -15 -6 0 -14
-19 -19 -42 l-10 -43 -1 46 c-1 41 11 69 31 69 4 0 8 -7 8 -15z m5 -132 c-3
-18 -12 -33 -19 -33 -10 0 -10 11 0 58 7 31 13 59 15 62 6 14 10 -57 4 -87z
m40 57 c-4 -12 -9 -19 -12 -17 -3 3 -2 15 2 27 4 12 9 19 12 17 3 -3 2 -15 -2
-27z m-670 -38 c-13 -82 -104 -147 -169 -122 -39 14 -31 25 19 25 57 1 92 27
125 92 14 27 27 49 28 47 2 -1 1 -20 -3 -42z m-2615 -17 c0 -35 -172 -84 -244
-70 -56 11 -66 16 -66 30 0 11 6 12 31 3 18 -6 62 -8 106 -5 65 5 103 17 171
56 1 0 2 -6 2 -14z m3808 -17 c-2 -19 -10 -24 -40 -26 -32 -3 -38 0 -38 17 0
22 12 29 53 30 24 1 28 -3 25 -21z m-3812 -46 c-41 -47 -247 -72 -292 -37 -17
15 -14 15 42 10 70 -8 173 9 224 35 41 21 50 18 26 -8z m3464 4 c0 -22 -6 -25
-62 -35 -35 -5 -101 -15 -148 -21 -47 -6 -114 -15 -150 -20 -36 -5 -68 -10
-71 -10 -4 0 -9 11 -11 25 -6 30 -7 29 137 45 55 6 141 17 190 24 50 8 96 14
103 15 6 1 12 -10 12 -23z m-874 -53 c-15 -13 -39 -23 -54 -23 l-27 1 31 13
c17 8 40 25 50 39 15 20 20 22 23 9 2 -9 -9 -26 -23 -39z m1177 12 c-9 -19
-20 -35 -25 -35 -4 0 -8 16 -8 35 0 31 3 35 25 35 l25 0 -17 -35z m33 -64
c-48 -111 -45 -376 5 -498 10 -25 11 -35 1 -45 -9 -9 -16 -1 -31 33 -59 134
-51 416 17 574 l17 40 3 -34 c2 -19 -3 -50 -12 -70z m108 -36 c3 -38 2 -158
-3 -265 -8 -186 -19 -250 -44 -250 -5 0 -6 7 -1 18 5 9 10 154 12 322 4 260 6
301 17 275 7 -16 16 -61 19 -100z m-3904 85 c-23 -43 -239 -70 -286 -36 -29
21 -15 25 49 14 45 -8 73 -7 130 6 39 9 79 21 87 26 24 15 32 12 20 -10z
m3460 -18 l0 -29 -122 -17 c-68 -10 -161 -24 -207 -32 -46 -8 -86 -13 -88 -11
-1 2 -6 18 -9 35 -6 31 -5 32 25 32 31 0 202 22 306 39 90 15 95 14 95 -17z
m-1117 -12 c21 0 97 -41 97 -53 0 -11 -56 1 -90 18 -14 7 -36 26 -50 41 l-25
27 25 -16 c13 -9 33 -17 43 -17z m-2333 -102 c35 -256 124 -604 208 -813 35
-87 104 -228 141 -290 21 -33 45 -73 55 -90 30 -50 -128 117 -188 198 -107
145 -192 422 -276 902 -12 66 -23 129 -26 141 -4 17 1 23 28 31 18 6 36 11 39
12 3 1 12 -41 19 -91z m2629 26 c-7 -8 -7 -14 -1 -14 5 0 9 -8 7 -17 -13 -66
-17 -75 -25 -67 -6 6 -6 22 -1 40 5 17 7 43 4 56 -3 14 1 36 8 49 l14 24 3
-28 c2 -16 -2 -35 -9 -43z m1104 46 c-3 -11 -7 -20 -9 -20 -2 0 -4 9 -4 20 0
11 4 20 9 20 5 0 7 -9 4 -20z m-286 -197 c-4 -104 -7 -287 -8 -408 -1 -138 -4
-207 -9 -185 -14 61 -41 388 -47 582 l-6 186 29 5 c16 2 33 5 38 6 5 0 6 -76
3 -186z m-83 -40 c6 -192 34 -513 55 -643 5 -30 6 -58 3 -61 -4 -4 -24 -9 -44
-12 -36 -5 -38 -4 -42 26 -3 18 -10 61 -15 97 -17 108 -40 394 -47 594 -7 207
-7 206 52 206 l31 0 7 -207z m436 5 c-1 -161 -3 -199 -12 -183 -21 34 -13 385
7 385 3 0 5 -91 5 -202z m-542 0 c1 -106 4 -215 7 -243 17 -186 28 -283 41
-373 9 -57 14 -105 11 -108 -2 -3 -16 0 -30 5 -28 11 -24 -11 -51 261 -17 160
-33 608 -23 634 4 9 15 16 25 16 17 0 19 -12 20 -192z m-68 28 c0 -178 14
-403 36 -595 10 -90 12 -136 5 -140 -14 -9 -191 -44 -196 -39 -2 2 -11 38 -20
80 -21 104 -37 139 -107 238 -73 101 -88 135 -88 193 0 44 0 45 44 56 28 7 51
21 64 38 13 18 41 34 82 47 35 12 68 28 73 37 8 12 3 43 -18 113 -16 53 -26
98 -24 101 3 2 30 9 60 14 98 16 89 31 89 -143z m-1488 119 c5 -5 -27 -136
-34 -139 -2 -1 -52 -10 -113 -20 -226 -36 -627 -107 -805 -142 -122 -25 -448
-92 -543 -112 l-87 -19 -8 31 c-10 36 -5 41 58 51 25 4 133 24 240 45 279 55
433 83 705 129 132 23 278 48 325 56 47 8 103 17 125 21 22 4 47 11 55 16 29
18 -147 -9 -745 -113 -178 -31 -369 -68 -619 -119 -82 -17 -153 -27 -157 -23
-4 4 -9 21 -11 37 l-3 30 130 22 c72 13 195 34 275 48 80 15 280 49 445 76
267 45 387 65 670 114 44 7 83 14 86 15 3 0 8 -1 11 -4z m874 -62 c-10 -10
-19 5 -10 18 6 11 8 11 12 0 2 -7 1 -15 -2 -18z m89 -24 c-10 -30 -25 -9 -18
25 5 24 7 26 15 12 5 -9 6 -26 3 -37z m-46 -15 c19 -16 31 -35 31 -50 0 -13 4
-24 10 -24 5 0 7 -7 4 -15 -7 -18 -26 -20 -22 -2 3 18 -20 55 -55 88 -42 37
-12 40 32 3z m-38 -47 c-6 -8 -8 -16 -5 -20 3 -3 1 -14 -5 -24 -9 -15 -10 -14
-11 13 0 32 6 44 23 44 5 0 4 -6 -2 -13z m-923 -53 c-2 -26 2 -40 16 -50 18
-13 18 -16 2 -78 -22 -87 -20 -122 8 -230 13 -50 27 -122 30 -161 4 -38 22
-144 42 -235 19 -91 36 -173 37 -183 2 -16 -23 -25 -173 -63 -96 -24 -182 -46
-191 -49 -11 -4 -18 2 -22 17 -5 19 -34 215 -51 345 -4 31 -4 31 62 47 37 8
109 25 160 37 51 12 91 24 88 26 -5 6 -127 -18 -236 -46 -41 -10 -76 -18 -77
-17 -11 10 -48 604 -39 613 2 3 306 58 339 62 5 1 7 -15 5 -35z m948 -52 c-15
-15 -16 -13 -16 20 0 20 3 45 7 55 6 14 9 10 16 -20 8 -31 6 -42 -7 -55z
m-1312 -109 c17 -350 38 -568 78 -803 11 -69 21 -131 22 -139 1 -9 -22 -20
-63 -32 -36 -10 -66 -17 -67 -16 -2 1 -14 72 -28 157 -40 237 -64 483 -71 722
l-7 217 29 6 c15 4 33 8 38 10 6 2 22 4 36 4 l27 1 6 -127z m-150 -85 c9 -267
22 -410 57 -648 16 -113 32 -217 35 -232 6 -28 6 -28 -27 -17 -19 7 -38 15
-42 19 -24 22 -76 535 -84 822 l-6 236 24 5 c13 2 27 5 30 6 3 0 9 -86 13
-191z m649 167 c26 -8 96 -21 155 -30 58 -9 108 -18 111 -21 3 -2 -7 -29 -21
-58 -40 -80 -42 -111 -18 -207 31 -123 36 -233 15 -362 -9 -60 -18 -148 -21
-195 l-4 -87 -43 -7 c-23 -4 -63 -4 -87 0 l-45 8 -7 54 c-4 30 -23 127 -42
216 -20 89 -40 206 -46 260 -6 54 -18 124 -27 154 -34 116 -34 133 -2 253 11
42 15 43 82 22z m824 -2 c-1 -10 -6 -24 -10 -30 -5 -8 -4 -13 2 -13 15 0 14
-43 -1 -59 -10 -11 -10 -13 0 -7 6 4 12 2 12 -4 0 -7 -6 -10 -12 -8 -16 6 -21
108 -6 125 14 18 18 16 15 -4z m-1554 -235 c4 -134 10 -278 13 -320 l7 -77
-29 -6 c-103 -21 -604 -172 -619 -187 -14 -13 23 -4 190 48 201 61 448 134
455 134 4 0 13 -48 19 -107 7 -60 18 -148 26 -198 7 -49 11 -93 9 -97 -2 -3
-19 -10 -37 -13 -17 -4 -101 -30 -184 -57 -174 -56 -146 -59 -293 38 -98 65
-142 113 -234 256 -60 94 -176 351 -164 363 2 2 62 17 133 34 72 17 198 46
280 66 83 19 202 47 265 62 63 15 108 29 100 30 -17 4 -332 -65 -605 -132 -98
-25 -182 -41 -186 -37 -8 9 -33 82 -64 185 -16 55 -20 79 -12 82 7 2 185 37
397 79 212 41 405 79 430 85 25 5 57 9 71 10 l26 1 6 -242z m1073 172 c11 0
14 -15 14 -61 0 -84 38 -516 56 -626 l5 -31 -73 -17 c-40 -9 -77 -15 -83 -15
-11 1 -10 17 12 154 18 115 13 213 -17 326 -11 41 -20 90 -20 107 0 47 59 175
77 168 8 -3 21 -5 29 -5z m684 -151 c7 -13 31 -46 52 -73 77 -98 103 -167 143
-391 9 -49 23 -114 32 -142 8 -29 12 -61 9 -71 -8 -25 -68 -52 -115 -52 -36 0
-38 2 -67 62 -16 34 -62 114 -103 178 -81 127 -161 267 -161 282 0 5 -24 39
-53 74 -44 53 -58 80 -81 155 -15 50 -26 92 -24 94 2 1 29 5 60 7 55 4 57 4
60 -20 7 -54 68 -50 68 4 0 26 10 30 95 42 l50 7 11 -66 c6 -36 17 -76 24 -90z
m-539 121 l46 0 7 -117 c6 -108 14 -191 46 -438 6 -49 12 -99 13 -109 2 -21
-25 -33 -73 -35 -25 -1 -26 3 -37 82 -7 45 -21 161 -32 257 -42 375 -40 362
-35 215 5 -152 40 -466 61 -538 4 -15 0 -18 -18 -15 -16 2 -25 12 -30 33 -11
43 -47 407 -55 557 l-6 127 33 -9 c19 -6 55 -10 80 -10z m163 -77 c21 -91 41
-133 91 -193 20 -24 52 -74 71 -111 18 -37 51 -95 73 -130 28 -45 37 -66 28
-70 -15 -9 -287 -62 -292 -57 -10 11 -65 516 -65 601 0 36 1 37 38 37 l38 0
18 -77z m1386 -110 c0 -64 -17 -123 -35 -123 -19 0 -19 7 0 61 9 24 15 55 14
69 -2 35 0 40 11 40 6 0 10 -21 10 -47z m-740 -641 c0 -11 -39 -46 -67 -61
-27 -14 -113 -15 -113 -1 0 6 16 10 35 10 35 0 108 30 120 50 7 12 25 13 25 2z
m21 -64 c11 -21 11 -22 -4 -9 -15 11 -17 11 -17 -2 0 -9 5 -19 11 -23 7 -4 9
-21 6 -40 -5 -32 7 -48 15 -22 3 7 8 -23 11 -66 4 -44 5 -81 2 -84 -2 -3 -22
11 -44 31 -22 20 -52 42 -68 50 -26 14 -28 18 -25 71 4 54 5 57 42 76 21 11
41 24 45 30 9 15 13 13 26 -12z m-1084 -13 c-5 -14 -44 -23 -102 -24 -60 -1
-95 7 -95 23 0 7 32 11 100 11 60 0 99 -4 97 -10z m943 -82 c0 -66 -21 -129
-63 -191 -43 -65 -44 -44 -1 43 29 59 39 93 42 141 5 79 22 85 22 7z m-1145
-23 c-9 -17 -29 -43 -46 -58 -50 -44 -142 -102 -164 -102 -14 0 -6 8 25 26 86
49 148 104 172 152 14 30 24 41 26 30 2 -9 -4 -31 -13 -48z m199 41 c20 -69
18 -89 -14 -129 -17 -22 -38 -57 -45 -78 -11 -33 -18 -40 -44 -42 -25 -3 -31
1 -31 15 0 11 -16 45 -35 77 l-35 59 20 32 c11 18 20 41 20 52 0 11 2 22 4 24
3 2 39 5 80 5 62 2 76 -1 80 -15z m1151 -46 c12 -28 13 -39 3 -61 l-13 -27 -6
24 c-9 30 -11 99 -3 99 3 0 12 -16 19 -35z m-265 -65 c0 -5 -5 -10 -11 -10 -5
0 -7 5 -4 10 3 6 8 10 11 10 2 0 4 -4 4 -10z m118 -7 c41 -25 82 -65 82 -80 0
-19 -17 -16 -32 6 -8 10 -31 29 -53 42 -22 12 -42 24 -44 25 -4 3 9 24 15 24
3 0 17 -8 32 -17z m-1178 -77 c22 -47 25 -66 10 -66 -5 0 -16 16 -25 36 -8 19
-23 48 -34 63 -11 16 -18 31 -14 35 10 10 41 -23 63 -68z m213 40 c3 -19 3
-44 0 -56 -8 -31 -83 -56 -83 -27 0 17 59 117 69 117 5 0 11 -15 14 -34z
m1129 -4 c-13 -15 -47 -64 -76 -108 -30 -45 -66 -91 -81 -102 -48 -38 -173
-53 -261 -31 -58 15 -57 29 2 17 25 -6 83 -8 129 -6 101 4 121 16 182 109 56
84 116 160 122 153 2 -2 -5 -17 -17 -32z m-1381 -69 c13 -39 13 -38 -22 -46
-24 -6 -29 -2 -52 42 l-25 50 21 14 c20 14 24 13 44 -5 12 -12 27 -36 34 -55z
m1071 55 c-7 -7 -12 -8 -12 -2 0 14 12 26 19 19 2 -3 -1 -11 -7 -17z m171 -26
c24 -22 36 -52 22 -52 -2 0 -31 15 -64 33 -49 27 -58 36 -50 49 12 22 51 9 92
-30z m-1473 -32 c-8 -5 -26 -9 -40 -9 -24 0 -24 1 -4 9 12 5 25 14 29 20 5 9
10 9 19 0 8 -8 7 -13 -4 -20z m135 -12 c15 -28 17 -40 8 -49 -9 -9 -15 -3 -26
23 -8 20 -20 39 -26 42 -17 11 -13 28 7 24 9 -2 26 -20 37 -40z m1140 32 c-3
-5 -11 -10 -16 -10 -6 0 -7 5 -4 10 3 6 11 10 16 10 6 0 7 -4 4 -10z m162 -36
c28 -16 40 -29 37 -39 -5 -12 -12 -10 -37 9 -18 14 -44 28 -59 31 -16 4 -28
14 -28 22 0 18 28 11 87 -23z m-1352 -14 c8 -16 15 -31 15 -33 0 -3 -37 -8
-81 -12 -63 -6 -83 -4 -90 6 -11 19 -3 27 41 39 22 6 40 15 40 20 0 6 13 10
30 10 23 0 33 -7 45 -30z m-155 17 c0 -2 -10 -12 -22 -23 l-23 -19 19 23 c18
21 26 27 26 19z m1343 -21 c14 -11 24 -11 47 -3 25 9 37 8 75 -11 50 -24 56
-43 23 -66 -31 -22 -40 -20 -33 7 l6 22 -20 -22 c-20 -24 -41 -30 -41 -14 0 6
5 13 10 16 13 8 13 25 1 25 -5 0 -15 -13 -23 -30 -7 -16 -19 -30 -25 -30 -16
0 -17 22 -1 38 6 6 9 14 5 18 -9 10 -27 -6 -37 -32 -6 -16 -15 -22 -25 -18
-13 5 -12 11 6 40 26 42 8 45 -23 4 -25 -34 -68 -42 -67 -12 0 16 74 80 94 81
6 0 18 -6 28 -13z m-783 -5 c0 -13 -91 -31 -160 -31 -33 0 -103 -11 -157 -25
-55 -14 -127 -25 -164 -25 -68 0 -129 15 -129 31 0 5 17 2 38 -7 47 -19 137
-12 274 22 53 13 127 24 165 25 37 1 79 5 93 9 35 11 40 11 40 1z"/>
<path d="M5340 5025 c7 -9 15 -13 17 -11 7 7 -7 26 -19 26 -6 0 -6 -6 2 -15z"/>
<path d="M5350 4975 c7 -9 15 -13 17 -11 7 7 -7 26 -19 26 -6 0 -6 -6 2 -15z"/>
<path d="M5365 4930 c10 -11 20 -20 23 -20 3 0 -3 9 -13 20 -10 11 -20 20 -23
20 -3 0 3 -9 13 -20z"/>
<path d="M4992 4743 c-24 -8 -41 -17 -39 -19 5 -5 69 16 82 27 11 11 10 11
-43 -8z"/>
<path d="M4893 4713 c9 -2 23 -2 30 0 6 3 -1 5 -18 5 -16 0 -22 -2 -12 -5z"/>
<path d="M5015 4686 c-36 -17 -52 -20 -58 -12 -6 7 -7 6 -4 -4 5 -21 40 -24
76 -6 16 9 49 16 73 16 46 0 42 14 -7 23 -20 4 -47 -2 -80 -17z"/>
<path d="M5330 4691 c-14 -28 -12 -51 5 -57 12 -5 13 -9 4 -20 -13 -16 -6 -30
10 -19 14 8 14 55 1 55 -19 0 -10 32 10 37 11 3 17 9 14 14 -9 15 -33 10 -44
-10z"/>
<path d="M5033 4643 c-7 -2 -13 -9 -13 -14 0 -6 5 -7 10 -4 6 3 10 -1 10 -9 0
-9 7 -16 15 -16 8 0 15 7 15 16 0 12 7 15 25 12 14 -3 25 -2 25 2 0 4 -14 10
-31 14 -35 7 -38 7 -56 -1z"/>
<path d="M5045 4570 c3 -5 14 -10 23 -10 15 0 15 2 2 10 -20 13 -33 13 -25 0z"/>
<path d="M5219 4558 c-7 -12 -19 -34 -28 -48 l-15 -25 23 20 c23 20 46 64 37
72 -2 3 -10 -6 -17 -19z"/>
<path d="M5306 4456 c-5 -34 -17 -55 -48 -86 -22 -22 -38 -43 -35 -47 4 -3 27
14 52 39 40 41 45 50 45 92 0 58 -6 59 -14 2z"/>
<path d="M5086 4449 c17 -19 36 -43 42 -54 6 -11 12 -14 12 -7 0 23 -19 50
-52 73 l-33 22 31 -34z"/>
<path d="M4975 4390 c-14 -6 2 -8 48 -8 37 1 67 5 67 10 0 11 -89 9 -115 -2z"/>
<path d="M5000 4350 c-11 -7 -7 -10 18 -10 17 0 32 5 32 10 0 13 -30 13 -50 0z"/>
<path d="M5338 4301 c-5 -35 -7 -87 -7 -115 l1 -51 10 49 c5 26 8 78 6 115
l-3 66 -7 -64z"/>
<path d="M5200 4232 c0 -15 28 -34 45 -30 12 2 8 8 -14 21 -17 10 -31 14 -31
9z"/>
<path d="M5572 4163 c-104 -147 -181 -225 -254 -259 l-33 -15 35 6 c42 7 106
59 180 148 53 62 136 187 125 187 -3 0 -26 -30 -53 -67z"/>
<path d="M5642 4085 c-16 -95 -28 -179 -47 -335 -19 -149 -33 -240 -44 -292
-14 -62 -5 -59 13 3 15 56 37 197 56 359 6 52 18 143 26 201 9 59 14 115 12
125 -2 11 -9 -17 -16 -61z"/>
<path d="M5755 4034 c5 -77 47 -234 71 -272 24 -37 25 -21 2 39 -29 75 -57
187 -59 229 0 19 -5 44 -10 55 -6 14 -8 -2 -4 -51z"/>
<path d="M5090 4032 c0 -20 79 -172 123 -235 23 -32 55 -65 71 -74 30 -15 30
-14 -10 28 -53 57 -75 90 -135 202 -27 50 -49 86 -49 79z"/>
<path d="M5830 4011 c0 -23 41 -176 50 -184 4 -5 -3 35 -16 89 -22 90 -34 124
-34 95z"/>
<path d="M5756 3668 c-9 -46 -14 -264 -5 -228 11 45 24 250 16 250 -4 0 -9
-10 -11 -22z"/>
<path d="M5226 3438 c40 -95 72 -153 122 -221 53 -73 49 -49 -5 35 -26 40 -68
117 -93 170 -25 54 -48 98 -52 98 -4 0 9 -37 28 -82z"/>
<path d="M5240 3159 c0 -15 56 -69 71 -69 7 0 -5 18 -26 40 -43 44 -45 45 -45
29z"/>
<path d="M4880 3300 c0 -5 7 -10 16 -10 8 0 12 5 9 10 -3 6 -10 10 -16 10 -5
0 -9 -4 -9 -10z"/>
<path d="M4570 2940 c-19 -16 -30 -30 -24 -30 5 0 23 14 39 30 36 38 30 38
-15 0z"/>
<path d="M6145 2525 c3 -22 9 -96 15 -165 6 -69 15 -147 19 -175 l9 -50 1 44
c2 63 -30 353 -40 371 -6 10 -7 1 -4 -25z"/>
<path d="M5680 2946 c0 -41 24 -202 32 -211 5 -5 6 3 4 20 -3 17 -8 63 -11
104 -3 40 -10 81 -15 90 -8 14 -9 14 -10 -3z"/>
<path d="M5302 2933 c-15 -28 -62 -182 -61 -201 0 -9 18 34 39 97 37 105 46
149 22 104z"/>
<path d="M5301 2785 c0 -31 2 -36 9 -23 6 10 7 25 1 40 -9 20 -10 18 -10 -17z"/>
<path d="M5324 2461 c8 -45 66 -178 106 -245 34 -55 138 -177 121 -140 -5 11
-16 26 -24 33 -34 27 -121 176 -163 277 -25 60 -43 94 -40 75z"/>
<path d="M6337 1755 c-66 -14 -92 -30 -32 -20 84 15 150 33 120 33 -16 0 -56
-6 -88 -13z"/>
<path d="M4748 1806 c-65 -12 -121 -26 -125 -30 -5 -4 3 -5 17 -2 14 2 70 12
125 22 90 15 159 35 115 33 -8 -1 -68 -11 -132 -23z"/>
<path d="M5102 1841 c-6 -19 -12 -46 -11 -60 0 -22 3 -20 15 14 8 22 13 49 12
60 -3 15 -6 12 -16 -14z"/>
<path d="M4110 1819 c-160 -32 -370 -82 -366 -86 5 -5 478 96 485 102 7 8 -20
4 -119 -16z"/>
<path d="M4204 1095 c-78 -21 -268 -86 -278 -96 -10 -8 7 -4 209 60 154 49
154 49 135 50 -8 0 -38 -7 -66 -14z"/>
<path d="M5961 1720 c1 -19 5 -48 9 -65 7 -26 8 -24 9 20 0 28 -4 57 -9 65 -7
11 -9 6 -9 -20z"/>
<path d="M5700 1630 c-24 -8 -24 -8 5 -9 17 0 37 4 45 9 12 8 11 10 -5 9 -11
-1 -31 -5 -45 -9z"/>
<path d="M5270 878 c0 -24 -5 -49 -12 -56 -6 -6 -9 -14 -6 -17 3 -3 13 1 22
10 18 18 22 90 6 100 -6 4 -10 -11 -10 -37z"/>
<path d="M4610 5129 c0 -16 20 -127 54 -314 47 -251 105 -654 106 -739 0 -5 2
-7 5 -4 5 5 -25 300 -44 428 -14 93 -57 343 -87 500 -25 126 -34 163 -34 129z"/>
<path d="M6591 4534 c0 -11 3 -14 6 -6 3 7 2 16 -1 19 -3 4 -6 -2 -5 -13z"/>
<path d="M4497 4278 c-67 -124 -131 -254 -118 -242 12 11 147 264 162 302 17
44 0 21 -44 -60z"/>
<path d="M4534 4091 c-35 -22 -163 -140 -152 -141 4 0 31 21 60 48 29 26 71
62 93 80 45 36 44 41 -1 13z"/>
<path d="M7275 2160 l-30 -8 30 0 c17 0 41 4 55 8 l25 8 -25 0 c-14 0 -38 -4
-55 -8z"/>
<path d="M7285 1923 c-16 -3 -34 -9 -40 -15 -11 -11 75 -1 110 13 16 6 15 8
-10 7 -16 -1 -43 -3 -60 -5z"/>
</g>
</svg>
