<?xml version="1.0" standalone="no"?>
<!DOCTYPE svg PUBLIC "-//W3C//DTD SVG 20010904//EN"
 "http://www.w3.org/TR/2001/REC-SVG-20010904/DTD/svg10.dtd">
<svg version="1.0" xmlns="http://www.w3.org/2000/svg"
 width="1024.000000pt" height="559.000000pt" viewBox="0 0 1024.000000 559.000000"
 preserveAspectRatio="xMidYMid meet">
<metadata>
Created by potrace 1.16, written by Peter Selinger 2001-2019
</metadata>
<g transform="translate(0.000000,559.000000) scale(0.100000,-0.100000)"
fill="#000000" stroke="none">
<path d="M5046 5015 c-11 -8 -34 -15 -50 -15 -38 0 -92 -32 -100 -58 -4 -11
-18 -27 -31 -36 -35 -23 -51 -61 -59 -141 -9 -94 -8 -112 8 -143 37 -73 53
-121 49 -143 -3 -16 1 -30 11 -38 9 -8 16 -20 16 -27 0 -8 9 -19 20 -26 16
-10 20 -24 20 -63 0 -27 -4 -55 -8 -61 -14 -20 -57 -44 -80 -44 -12 0 -41 -9
-64 -21 -23 -12 -64 -28 -92 -36 -67 -19 -148 -74 -181 -124 -14 -22 -42 -82
-61 -132 -19 -51 -53 -123 -75 -160 -44 -77 -48 -103 -20 -138 18 -24 18 -26
-2 -99 -26 -97 -28 -241 -4 -287 23 -44 38 -50 145 -58 50 -4 92 -10 92 -14 0
-14 -55 -131 -62 -131 -4 0 -11 15 -16 33 -6 22 -14 32 -28 32 -10 1 -24 4
-29 7 -16 10 -75 -19 -75 -37 0 -8 -5 -15 -11 -15 -7 0 -9 -10 -4 -27 5 -21 1
-31 -16 -44 l-22 -16 31 -46 c25 -35 28 -46 17 -50 -21 -9 -39 -50 -75 -171
-29 -98 -31 -112 -20 -147 11 -31 10 -48 -3 -101 -25 -102 -30 -156 -18 -186
16 -38 88 -79 204 -116 l97 -31 -6 -45 c-3 -25 -8 -53 -10 -62 -5 -18 40 -48
71 -48 8 0 15 -4 15 -9 0 -6 12 -16 28 -23 26 -13 27 -16 30 -103 2 -75 -1
-103 -22 -165 -62 -182 -65 -230 -36 -480 17 -148 17 -167 3 -182 -11 -12 -13
-25 -7 -50 15 -65 11 -210 -7 -253 -9 -22 -28 -67 -42 -100 -72 -166 -35 -219
155 -220 73 0 91 3 115 21 43 32 49 61 33 166 -16 112 -20 245 -8 273 5 12 5
31 0 44 -6 17 -4 33 6 53 11 24 12 35 2 58 -15 37 -8 90 30 218 37 126 50 201
49 287 -1 57 6 93 40 195 22 69 44 140 47 158 4 18 10 35 15 37 17 11 191 -20
199 -35 4 -8 15 -48 24 -89 16 -71 16 -77 -5 -185 -25 -128 -22 -207 10 -300
12 -33 28 -95 37 -139 13 -65 14 -83 3 -103 -10 -19 -10 -31 1 -63 7 -21 9
-44 6 -50 -4 -6 -2 -27 4 -46 9 -27 8 -43 -4 -80 -9 -25 -18 -83 -21 -129 -6
-98 -4 -102 81 -117 33 -6 110 -26 172 -45 150 -46 242 -54 304 -26 51 22 70
61 45 91 -8 9 -17 25 -19 36 -2 11 -23 31 -48 45 -57 31 -187 129 -220 165
-23 24 -25 35 -27 123 -1 88 -3 98 -22 107 -28 13 -28 20 10 505 7 80 13 188
14 240 2 120 21 166 77 188 46 18 46 22 18 206 -86 544 -122 730 -151 760 -16
17 -10 47 17 79 28 33 28 30 9 182 -5 41 -4 46 5 30 7 -11 30 -37 53 -57 40
-36 41 -37 23 -57 -18 -20 -17 -49 1 -78 5 -6 82 -54 172 -107 191 -111 162
-113 267 20 58 72 67 80 93 76 29 -4 54 9 125 66 40 32 66 84 66 132 0 33 4
42 25 52 28 12 39 38 30 68 -4 13 4 32 26 59 36 45 41 87 13 109 -11 7 -40 24
-65 37 -35 18 -48 31 -52 53 -7 35 -26 44 -64 30 -24 -8 -39 -5 -97 22 -50 23
-74 30 -85 23 -9 -5 -67 -73 -130 -150 l-114 -141 -41 17 c-27 12 -43 26 -48
42 -3 13 -14 50 -23 82 l-16 58 26 31 c14 17 24 33 22 37 -26 49 -82 177 -103
238 -52 151 -80 187 -189 240 -38 19 -88 46 -110 59 -25 15 -49 22 -63 19 -27
-7 -41 20 -23 44 49 67 93 216 92 310 0 41 4 70 13 80 46 55 52 186 9 233 -11
13 -23 34 -26 48 -8 30 -63 70 -97 70 -13 0 -31 6 -39 14 -25 22 -171 30 -195
11z m135 -15 c21 0 42 -6 49 -15 7 -8 25 -15 39 -15 31 0 91 -45 91 -68 0 -9
10 -26 22 -39 17 -18 21 -34 19 -66 -1 -23 -6 -46 -11 -51 -6 -6 -7 11 -3 42
3 30 2 52 -4 52 -5 0 -7 -16 -5 -35 3 -21 0 -35 -7 -35 -6 0 -11 3 -12 8 -6
65 -19 96 -19 44 0 -17 -4 -33 -9 -36 -5 -4 -7 2 -4 13 3 10 -1 22 -8 26 -8 5
-10 4 -5 -3 4 -7 3 -19 -2 -28 -7 -13 -11 -10 -16 18 -3 19 -13 43 -22 54 -15
18 -15 18 -5 -3 16 -31 14 -48 -9 -74 l-20 -24 5 25 c4 15 0 33 -10 45 -14 19
-15 18 -3 -8 9 -21 9 -30 0 -39 -9 -9 -12 -9 -12 3 0 8 -13 26 -30 41 l-30 26
0 -28 c0 -15 -7 -33 -16 -41 -13 -11 -15 -9 -10 17 4 16 3 23 0 17 -9 -19 -22
-16 -29 7 -8 27 -23 25 -27 -2 -4 -32 -38 -37 -38 -6 -1 21 -1 21 -11 5 -6
-11 -9 -32 -7 -48 5 -34 -17 -41 -27 -8 -4 11 -9 18 -12 15 -3 -3 2 -23 11
-46 16 -40 11 -51 -13 -27 -11 10 -12 8 -6 -10 8 -27 2 -29 -19 -7 -9 8 -16
11 -16 5 0 -6 9 -16 20 -23 11 -7 20 -19 20 -26 0 -7 -5 -10 -11 -6 -8 5 -10
-3 -7 -25 6 -41 -5 -39 -31 5 -19 32 -25 36 -51 30 -25 -5 -31 -2 -36 19 -3
13 -3 30 2 37 5 10 4 11 -7 0 -11 -10 -11 -18 0 -48 15 -41 9 -57 -9 -24 -7
13 -9 39 -6 64 4 22 6 58 6 79 -1 45 23 93 50 102 11 3 20 13 20 20 0 31 45
66 95 73 28 5 59 14 70 20 11 7 34 10 50 7 17 -4 46 -6 66 -5z m-73 -221 c-9
-6 -9 -9 4 -14 21 -8 58 11 58 30 0 18 12 19 28 3 8 -8 9 -15 1 -25 -18 -21
20 -29 51 -11 24 14 28 14 37 -1 8 -13 14 -14 36 -4 28 13 28 13 42 -53 5 -29
4 -31 -17 -27 -13 2 -41 -3 -63 -11 -22 -8 -32 -15 -22 -15 21 -1 23 -21 2
-21 -11 0 -14 -7 -10 -22 32 -141 31 -145 -39 -130 -25 5 -43 6 -41 1 9 -13
95 -23 107 -11 7 7 7 30 -2 77 -13 70 -9 90 14 59 14 -19 15 -19 35 3 l21 22
-22 7 c-19 6 -20 7 -4 16 30 17 39 4 41 -62 3 -108 -59 -308 -100 -324 -33
-12 -97 -5 -138 15 -96 49 -125 76 -148 139 -17 48 -25 59 -42 57 -43 -4 -96
118 -65 149 20 20 42 9 55 -27 9 -24 17 -30 35 -27 18 2 22 8 20 30 -2 14 2
29 8 33 6 4 8 15 5 25 -3 11 1 20 11 24 10 4 14 13 11 26 -3 12 0 20 8 20 7 0
18 6 24 14 9 10 8 15 -4 20 -25 9 -17 27 10 20 18 -4 27 -1 31 10 5 13 9 14
21 5 11 -10 11 -14 1 -20z m305 -46 c-3 -10 -9 -22 -12 -28 -3 -5 -6 -13 -6
-17 0 -3 -3 -10 -7 -14 -5 -4 -8 5 -8 21 0 15 8 34 18 41 22 17 23 17 15 -3z
m-481 -308 c-5 -28 -22 -24 -22 5 0 10 -7 20 -15 24 -8 3 -15 10 -15 15 0 5
13 3 29 -5 22 -11 27 -19 23 -39z m87 -97 c61 -52 141 -88 195 -88 l46 0 -6
-57 c-4 -43 -3 -54 5 -43 6 8 11 23 11 33 0 17 2 17 30 -3 49 -35 38 -75 -30
-110 -33 -17 -121 -16 -191 3 -68 18 -203 72 -231 91 -19 14 -17 16 34 49 35
22 55 30 60 23 8 -11 13 79 10 174 l-2 55 15 -47 c10 -31 28 -58 54 -80z
m-206 -156 c-6 -24 76 -68 206 -111 120 -40 224 -43 279 -9 l35 22 -7 -29
c-14 -55 -86 -126 -156 -154 -14 -5 -19 -10 -12 -10 27 -2 91 40 127 81 l37
43 -7 -40 c-12 -72 -45 -198 -77 -299 l-32 -98 -87 93 c-81 87 -89 93 -104 78
-15 -15 -13 -21 34 -77 28 -33 55 -63 61 -67 13 -8 13 -25 -1 -25 -6 0 -44
-28 -85 -61 -53 -44 -86 -64 -116 -70 -56 -11 -217 -10 -243 1 -18 8 -17 9 7
9 32 1 44 19 59 93 6 29 18 62 25 73 8 11 14 24 14 30 0 5 -5 3 -10 -5 -6 -10
-8 3 -6 40 2 30 1 39 -1 20 -6 -49 -23 -62 -24 -19 -1 18 -5 48 -9 64 -4 17
-6 -8 -2 -57 5 -82 -12 -208 -27 -208 -3 0 -12 9 -18 19 -7 11 -34 32 -60 47
-26 15 -76 47 -110 70 -35 23 -81 45 -103 49 -22 4 -40 9 -40 11 0 5 58 107
101 178 13 22 17 36 10 32 -18 -12 -7 24 32 97 38 72 93 121 166 147 31 11 72
28 91 39 45 25 59 25 53 3z m584 -135 c-3 -62 -14 -151 -26 -198 -18 -78 -77
-274 -87 -291 -3 -4 -17 -2 -32 3 l-28 10 33 101 c61 185 98 375 92 465 l-4
51 29 -15 29 -15 -6 -111z m86 67 c98 -49 118 -76 174 -237 19 -56 48 -127 64
-157 16 -30 29 -60 29 -66 0 -28 -143 -144 -178 -144 -12 0 5 153 21 195 9 22
16 51 16 65 0 15 -8 1 -20 -35 l-19 -60 4 135 c2 74 2 117 0 95 -2 -22 -7 -51
-11 -65 -5 -21 -8 -17 -19 30 -11 44 -13 47 -9 15 21 -201 12 -448 -21 -608
-17 -81 -17 -123 0 -52 l12 49 19 -102 19 -103 -36 -35 c-31 -32 -39 -35 -84
-32 l-49 3 45 28 c62 39 13 24 -54 -17 -82 -49 -135 -62 -202 -47 -30 7 -52
16 -49 21 3 5 -11 4 -31 -2 -20 -5 -38 -8 -40 -5 -11 11 120 278 167 339 l51
68 34 -30 c44 -39 94 -65 94 -49 0 6 -16 33 -35 60 -20 28 -32 55 -29 64 4 9
-6 34 -21 57 l-27 41 40 131 c59 190 84 320 84 428 0 26 2 48 4 48 3 0 28 -12
57 -26z m-435 -393 c3 -8 -1 -12 -9 -9 -7 2 -15 10 -17 17 -3 8 1 12 9 9 7 -2
15 -10 17 -17z m77 -81 c32 -33 56 -62 53 -66 -8 -7 -82 59 -109 98 -34 47 -7
32 56 -32z m-745 5 c0 -8 -4 -15 -10 -15 -5 0 -10 7 -10 15 0 8 5 15 10 15 6
0 10 -7 10 -15z m1813 -12 c38 -18 57 -33 57 -44 0 -24 18 -33 35 -19 10 9 29
3 83 -24 39 -20 73 -39 76 -44 2 -4 -20 -39 -51 -78 -30 -38 -63 -79 -74 -92
-13 -16 -23 -21 -33 -15 -12 7 -4 22 44 83 l60 75 -22 19 c-23 18 -165 91
-226 116 -39 15 -13 43 -265 -278 -129 -165 -165 -218 -156 -228 20 -24 237
-144 250 -139 8 4 43 44 79 90 36 46 68 84 71 85 4 0 9 -6 12 -14 5 -14 -148
-216 -163 -216 -5 0 -72 37 -149 81 -78 45 -144 80 -146 77 -3 -3 62 -45 145
-93 83 -48 148 -90 146 -93 -6 -6 -223 117 -274 155 -18 14 -31 28 -28 31 3 3
2 10 -3 16 -6 7 24 52 83 126 50 63 150 190 222 281 82 103 139 166 150 167
11 0 45 -11 77 -25z m-1717 -16 c27 -18 75 -48 107 -66 56 -32 63 -43 51 -76
-5 -13 -15 -15 -49 -9 -25 3 -59 1 -79 -6 -50 -16 -54 -29 -6 -16 31 8 58 6
122 -7 87 -18 210 -21 290 -8 37 6 64 21 123 70 l76 62 65 -6 c35 -4 64 -12
64 -17 0 -5 4 -7 9 -4 11 7 71 -60 71 -79 0 -22 -13 -18 -40 10 -13 14 -46 32
-74 40 -59 18 -59 18 -51 6 3 -5 27 -17 54 -26 44 -14 49 -19 54 -52 7 -42 0
-56 -15 -30 -8 15 -85 57 -104 57 -16 0 13 -22 50 -39 35 -15 43 -23 41 -42
-1 -13 -3 -25 -4 -27 0 -1 -19 7 -42 18 -22 12 -46 19 -52 17 -7 -2 4 -11 24
-20 20 -8 40 -20 44 -26 11 -19 -15 -41 -49 -40 -26 0 -28 2 -11 9 19 8 19 9
-3 9 -12 1 -40 -8 -62 -19 -24 -12 -59 -20 -91 -20 -33 0 -95 -15 -178 -42
-117 -38 -134 -41 -241 -42 -63 0 -132 3 -153 7 -56 12 -71 53 -64 177 5 106
43 270 62 270 7 0 35 -15 61 -33z m1852 -13 c2 -15 1 -16 -7 -5 -8 12 -13 12
-35 -3 -32 -20 -35 -3 -4 18 27 19 42 16 46 -10z m-89 -54 c66 -33 122 -64
126 -70 9 -14 -106 -153 -130 -156 -11 -2 -25 -10 -31 -18 -6 -9 -18 -16 -27
-16 -17 0 -60 -66 -54 -84 8 -21 -13 -56 -84 -146 l-72 -90 -56 32 c-179 101
-192 110 -178 127 8 9 65 81 127 161 208 265 252 320 256 320 2 0 58 -27 123
-60z m-505 -59 c17 -71 19 -75 67 -99 19 -9 33 -21 31 -27 -6 -21 -148 -195
-159 -195 -23 0 -69 49 -97 104 -26 51 -27 60 -21 131 l7 76 52 23 c28 13 60
33 70 45 25 28 32 20 50 -58z m666 -111 c-55 -70 -80 -94 -80 -74 0 14 135
175 138 165 2 -6 -24 -47 -58 -91z m-1075 20 c16 -16 24 -30 19 -30 -6 0 -23
14 -39 30 -16 17 -24 30 -19 30 6 0 23 -13 39 -30z m50 -50 c3 -5 2 -10 -4
-10 -5 0 -13 5 -16 10 -3 6 -2 10 4 10 5 0 13 -4 16 -10z m1035 -25 c0 -8 -9
-19 -19 -25 -30 -15 -33 -12 -15 15 18 28 34 33 34 10z m-80 -50 c21 -19 28
-79 10 -90 -6 -4 -16 8 -22 25 -7 21 -27 43 -56 61 l-45 29 47 -4 c26 -2 55
-11 66 -21z m-1180 -39 c-20 -46 -118 -259 -174 -378 -33 -71 -38 -77 -59 -69
-12 5 -21 16 -19 25 2 13 195 446 207 467 2 3 17 4 34 1 l29 -4 -18 -42z
m-126 -83 c-31 -65 -60 -129 -65 -142 -8 -20 -14 -22 -41 -17 -33 6 -87 37
-148 82 -28 21 -26 18 9 -15 l44 -41 -45 0 c-31 0 -54 7 -72 21 -23 18 -26 28
-26 79 l0 59 43 11 c23 6 76 23 117 37 41 14 109 29 150 33 41 4 78 8 82 8 4
1 -18 -51 -48 -115z m1160 105 c-5 -9 -2 -8 9 1 15 12 23 11 58 -4 58 -26 89
-96 56 -124 -11 -9 -18 -3 -31 27 -12 27 -33 48 -67 68 -50 30 -61 44 -33 44
9 0 12 -5 8 -12z m-15 -50 c2 24 35 11 73 -28 42 -45 48 -74 19 -89 -21 -12
-31 -5 -31 19 0 9 -20 36 -45 60 -24 24 -41 48 -38 53 4 6 10 2 14 -9 4 -10 8
-13 8 -6z m-1509 -48 c0 -5 -11 -34 -24 -65 -21 -46 -29 -55 -50 -55 -32 0
-32 4 0 74 21 46 30 56 50 56 13 0 24 -4 24 -10z m1493 -7 c-6 -16 -5 -16 10
-5 14 12 19 8 43 -28 27 -41 28 -43 9 -56 -27 -20 -48 -18 -41 4 3 9 -3 31
-14 47 -22 32 -26 55 -10 55 5 0 6 -8 3 -17z m-1713 -68 c0 -8 -52 -26 -58
-20 -3 2 6 9 19 14 28 11 39 13 39 6z m1710 -4 c0 -14 -150 -201 -161 -201
-15 0 -11 6 71 113 70 91 90 110 90 88z m-1639 -103 c17 -57 34 -107 37 -112
3 -5 -7 -6 -24 -1 -16 4 -44 11 -62 14 -30 5 -36 13 -63 76 -16 38 -29 72 -29
75 0 6 86 47 102 49 4 1 21 -45 39 -101z m183 44 l26 -20 -25 -53 c-14 -30
-25 -62 -25 -71 0 -9 -4 -20 -10 -23 -6 -4 -10 20 -10 66 0 51 -4 75 -14 83
-13 10 -13 16 1 46 14 32 16 33 23 14 5 -12 20 -30 34 -42z m-94 -7 c0 -11
-11 -15 -36 -15 -31 0 -35 2 -24 15 7 8 23 15 36 15 15 0 24 -6 24 -15z m303
-31 c36 -6 47 -17 27 -29 -13 -8 -110 10 -151 29 l-34 16 60 -5 c33 -3 77 -7
98 -11z m-263 -69 c0 -65 -2 -75 -17 -75 -47 0 -59 12 -76 66 -22 72 -22 72
16 77 83 10 77 15 77 -68z m-251 28 c24 -67 23 -69 -13 -29 -28 30 -33 42 -25
53 17 20 24 16 38 -24z m1100 27 c-40 -24 -166 -40 -305 -40 -143 0 -176 8
-118 30 18 7 42 6 84 -5 74 -19 104 -18 165 5 53 19 205 28 174 10z m-724 -6
c14 -6 14 -8 0 -31 -9 -13 -15 -29 -13 -35 2 -6 10 3 17 20 8 20 21 32 32 32
23 0 23 3 4 -50 -21 -59 -12 -62 10 -4 17 46 18 46 57 41 22 -3 42 -8 45 -10
8 -8 -34 -81 -54 -93 -10 -6 -53 -8 -100 -6 l-83 4 6 27 c10 43 42 111 53 111
5 0 17 -3 26 -6z m752 -26 c22 -27 44 -122 82 -343 70 -405 94 -563 88 -579
-4 -9 -18 -18 -32 -22 -15 -4 -37 -17 -50 -30 -21 -21 -34 -24 -98 -24 -59 0
-86 -5 -132 -26 -55 -26 -62 -26 -154 -18 -53 4 -159 7 -236 6 -118 -3 -150 0
-205 17 -36 12 -75 21 -87 21 -31 0 -53 10 -53 25 0 7 -17 17 -37 22 l-38 9 2
54 c2 29 5 55 7 57 3 3 19 2 36 -2 32 -7 32 -7 27 -59 -4 -34 -3 -44 3 -31 5
11 9 34 9 50 l1 30 83 -3 c105 -5 151 12 172 61 13 32 24 142 45 452 9 139 20
194 51 259 26 52 54 64 45 19 -16 -80 -26 -164 -25 -218 2 -57 2 -56 10 25 4
47 13 115 19 153 l12 67 49 0 c60 0 63 -6 77 -141 8 -82 9 -86 10 -34 0 33 -3
83 -8 110 -4 28 -6 51 -5 53 2 2 51 8 111 13 81 8 109 7 114 -1 7 -11 16 -62
49 -275 9 -56 9 -54 4 25 -5 77 -23 192 -38 245 -5 17 0 23 27 31 46 16 54 16
65 2z m-1122 -88 c-3 -5 -2 -10 4 -10 5 0 13 5 16 10 9 15 43 12 115 -11 36
-11 110 -25 165 -30 153 -14 151 -13 119 -40 -25 -21 -44 -66 -69 -165 -41
-160 -58 -176 -171 -155 -64 12 -94 30 -53 32 16 1 19 3 6 6 -14 4 -16 12 -11
43 6 36 4 40 -19 45 -37 10 -49 3 -61 -32 l-11 -32 -55 27 c-38 19 -56 34 -58
49 -4 26 54 220 68 228 6 3 10 12 10 18 -2 50 -90 -188 -90 -241 0 -19 51 -72
70 -72 22 0 61 -21 55 -30 -7 -12 -113 34 -131 58 -7 9 -14 23 -14 31 0 31 73
244 91 262 20 20 34 26 24 9z m468 -70 c-9 -22 -18 -38 -21 -36 -6 7 19 76 28
76 5 0 1 -18 -7 -40z m54 -15 c7 -21 2 -25 -25 -18 -12 3 -22 12 -22 19 0 19
39 18 47 -1z m25 -27 c-8 -8 -9 -4 -5 13 4 13 8 18 11 10 2 -7 -1 -18 -6 -23z
m-110 -13 c3 -3 2 -25 -3 -48 -9 -50 1 -64 51 -69 28 -2 35 1 38 17 2 11 8 25
14 30 6 7 7 5 4 -5 -3 -8 -12 -109 -21 -225 -19 -257 -25 -282 -70 -301 -47
-19 -125 -18 -242 6 -161 32 -288 82 -324 128 -22 29 -22 32 8 174 l16 76 44
-19 c25 -10 51 -19 59 -19 15 0 19 -22 7 -34 -5 -4 -9 -39 -10 -77 -1 -54 2
-71 13 -76 18 -7 51 21 60 50 4 12 13 28 21 36 10 9 13 25 9 44 l-6 30 42 -9
c24 -5 67 -8 96 -9 79 0 80 2 143 228 19 68 34 89 51 72z m74 -3 c15 -10 3
-97 -13 -96 -7 1 -22 2 -34 3 -19 1 -20 5 -14 44 4 23 9 45 12 50 5 9 35 9 49
-1z m-406 -170 c0 -24 -23 -132 -29 -132 -26 1 -34 20 -27 69 9 70 14 80 37
74 10 -3 19 -8 19 -11z m-11 -148 c1 -1 1 -7 0 -12 -5 -11 -69 5 -69 18 0 8
58 3 69 -6z m-32 -32 c8 -5 8 -15 -2 -40 -23 -52 -48 -41 -33 16 9 33 15 37
35 24z m456 -489 c59 -3 107 -8 107 -13 0 -4 -22 -77 -50 -161 -46 -141 -50
-161 -50 -249 0 -80 -6 -117 -35 -221 -20 -68 -41 -154 -47 -191 -11 -64 -27
-84 -43 -58 -3 6 -28 10 -55 10 -27 0 -52 -4 -55 -10 -13 -21 -25 -9 -25 24 0
19 -7 88 -16 153 -8 65 -15 165 -16 223 0 94 4 117 37 220 33 101 37 127 37
211 l0 97 51 -16 c29 -9 100 -17 160 -19z m666 5 c-6 -18 -7 -65 -4 -103 4
-46 2 -81 -6 -100 -7 -17 -16 -109 -20 -205 -18 -413 -19 -422 -51 -449 -26
-21 -34 -22 -86 -15 l-57 9 -6 55 c-7 60 -18 104 -55 223 -29 96 -30 133 -3
268 20 101 21 110 6 180 -9 41 -19 84 -23 97 -6 19 -3 22 25 22 17 0 48 8 69
17 34 15 109 28 189 31 31 2 31 2 22 -30z m-9 -856 c0 -4 -13 -13 -30 -19 -29
-11 -30 -13 -28 -70 l1 -58 6 55 c5 50 8 55 31 57 25 3 25 3 3 -7 -23 -9 -31
-34 -14 -44 5 -3 8 2 7 11 0 9 5 18 12 20 21 8 13 -30 -14 -71 -24 -35 -25
-42 -15 -77 6 -21 16 -41 21 -44 6 -4 7 1 3 11 -4 12 -3 15 6 10 6 -4 9 -15 6
-25 -3 -12 5 -25 27 -41 l33 -23 -29 31 c-17 18 -24 32 -17 32 7 0 9 5 5 11
-9 14 38 -10 48 -25 4 -6 6 -17 3 -25 -4 -9 0 -11 10 -7 10 3 15 -1 15 -12 0
-15 2 -15 10 -2 8 13 12 12 27 -4 12 -13 13 -16 3 -10 -13 7 -13 5 -1 -9 7 -9
18 -14 24 -10 6 3 7 1 3 -5 -4 -7 -1 -12 8 -12 9 0 16 -4 16 -10 0 -13 -27 -2
-79 32 -24 16 -45 27 -47 25 -6 -5 70 -55 103 -68 18 -6 30 -6 39 2 12 10 13
9 8 -5 -3 -9 -16 -16 -28 -16 -28 0 -118 61 -177 120 -53 53 -73 115 -67 210
3 46 7 56 28 67 29 15 40 16 40 5z m-148 -39 c39 -4 58 -10 58 -19 0 -9 -13
-14 -37 -14 -57 0 -113 18 -113 37 0 10 6 13 17 9 9 -4 43 -9 75 -13z m-752
-48 c0 -8 -4 -15 -8 -15 -13 0 -32 23 -32 37 0 11 5 11 20 3 11 -6 20 -17 20
-25z m118 -107 l-2 -143 -3 132 -4 132 -35 -2 c-19 -2 -39 -9 -44 -17 -7 -11
-10 -8 -10 13 0 26 2 27 50 27 l50 0 -2 -142z m72 124 c0 -12 -23 -32 -37 -32
-19 0 -16 28 5 33 28 8 32 7 32 -1z m-135 -22 c-3 -5 1 -10 9 -10 9 0 16 -7
16 -15 0 -21 -17 -19 -30 4 -13 25 -13 31 1 31 5 0 7 -4 4 -10z m45 0 c0 -5
-2 -10 -4 -10 -3 0 -8 5 -11 10 -3 6 -1 10 4 10 6 0 11 -4 11 -10z m676 0 c25
0 34 -4 34 -16 0 -14 -8 -16 -52 -10 -29 4 -60 14 -68 23 -14 14 -12 15 19 9
18 -3 49 -6 67 -6z m-697 -47 c17 4 21 1 21 -19 0 -22 -2 -24 -22 -13 -18 10
-24 8 -35 -7 -12 -16 -13 -13 -13 26 0 39 1 42 14 25 8 -12 20 -16 35 -12z
m-79 1 c0 -8 -4 -12 -10 -9 -5 3 -10 10 -10 16 0 5 5 9 10 9 6 0 10 -7 10 -16z
m160 1 c0 -8 -4 -15 -10 -15 -5 0 -10 7 -10 15 0 8 5 15 10 15 6 0 10 -7 10
-15z m618 0 c19 0 32 -5 32 -12 0 -16 -93 -18 -121 -2 -29 15 -13 29 24 21 18
-4 47 -7 65 -7z m122 -16 c0 -15 -5 -19 -15 -15 -8 3 -15 2 -15 -3 0 -5 9 -11
20 -14 25 -7 26 -23 1 -30 -24 -6 -37 33 -21 63 14 26 30 25 30 -1z m-900 -35
c0 -8 -6 -11 -15 -8 -8 4 -15 12 -15 20 0 8 6 11 15 8 8 -4 15 -12 15 -20z
m170 7 c0 -10 -7 -21 -15 -25 -15 -5 -22 24 -8 37 12 13 23 7 23 -12z m598 -1
c46 0 47 -1 69 -46 l21 -47 -24 -26 c-13 -14 -27 -42 -30 -61 -3 -19 -6 -42
-8 -50 -1 -8 -10 10 -21 40 -10 30 -25 65 -33 78 -11 17 -11 22 -2 22 10 0 9
5 -2 18 -9 9 -18 26 -21 37 -4 18 -5 17 -6 -3 -1 -14 -6 -22 -13 -19 -7 2 -13
9 -12 15 1 7 2 21 3 33 1 15 6 19 17 15 9 -3 37 -6 62 -6z m-697 -14 c5 3 9 0
9 -6 0 -16 -23 -7 -27 11 -2 9 -1 10 3 1 3 -6 10 -10 15 -6z m29 -45 c0 -20
-2 -22 -15 -11 -22 18 -46 -3 -26 -22 10 -11 11 -10 6 5 -4 10 -2 17 4 17 6 0
11 -9 11 -21 0 -14 -5 -19 -17 -17 -12 2 -19 14 -21 38 -3 33 -1 35 28 35 25
0 30 -4 30 -24z m-102 -28 c-2 -25 -7 -48 -13 -50 -6 -2 -9 12 -8 29 1 18 2
41 2 51 1 9 6 17 12 17 6 0 9 -19 7 -47z m162 -4 c0 -36 -4 -49 -12 -47 -17 6
-21 38 -9 71 15 40 21 33 21 -24z m580 -64 c17 -36 29 -73 27 -83 -3 -14 -5
-14 -9 -2 -3 8 -13 37 -23 63 -9 26 -29 62 -43 79 -24 28 -24 30 -5 19 12 -6
36 -41 53 -76z m-690 30 c6 -4 20 1 31 11 18 17 19 16 19 -20 0 -86 -35 -155
-63 -127 -17 17 1 44 25 38 16 -5 18 -3 9 6 -15 15 -45 -3 -49 -31 -4 -26 29
-38 60 -21 21 11 22 11 9 -4 -15 -19 -43 -22 -70 -7 -16 8 -17 15 -8 60 8 42
12 48 22 34 15 -21 49 -14 53 10 6 28 -11 38 -41 27 -27 -10 -27 -10 -26 32 0
34 2 38 9 21 5 -12 14 -25 20 -29z m646 0 c8 -13 13 -29 9 -35 -3 -5 -2 -10 3
-10 9 0 32 -43 32 -60 0 -6 -7 -10 -15 -10 -15 0 -37 32 -34 53 4 33 -2 57
-16 57 -8 0 -15 7 -15 15 0 23 18 18 36 -10z m184 11 c0 -3 -11 -26 -25 -52
-14 -26 -25 -55 -25 -65 0 -10 -4 -21 -10 -24 -26 -16 1 95 31 132 11 12 29
18 29 9z m30 -26 c0 -5 -11 -26 -25 -46 -14 -20 -25 -45 -25 -55 0 -11 -5 -19
-10 -19 -14 0 -2 46 23 93 20 35 37 48 37 27z m-243 -22 c-3 -8 -6 -5 -6 6 -1
11 2 17 5 13 3 -3 4 -12 1 -19z m-594 -19 c-12 -12 -33 -4 -33 12 0 6 5 7 10
4 6 -3 10 -1 10 6 0 10 3 10 12 1 9 -9 9 -15 1 -23z m-83 11 c-20 -13 -33 -13
-25 0 3 6 14 10 23 10 15 0 15 -2 2 -10z m165 -1 c11 -17 -1 -21 -15 -4 -8 9
-8 15 -2 15 6 0 14 -5 17 -11z m785 -3 c0 -8 -5 -18 -11 -22 -6 -3 -19 -25
-29 -48 -14 -32 -19 -37 -25 -24 -4 11 3 34 19 63 27 45 46 58 46 31z m-260
-27 c0 -11 -4 -17 -10 -14 -5 3 -10 13 -10 21 0 8 5 14 10 14 6 0 10 -9 10
-21z m261 -25 c-12 -21 -21 -46 -22 -54 0 -10 -2 -11 -6 -2 -5 13 36 106 44
99 2 -3 -5 -22 -16 -43z m-951 26 c0 -6 -10 -15 -22 -20 -21 -8 -22 -9 -3 -10
18 -1 17 -2 -4 -11 -13 -5 -26 -7 -29 -4 -3 3 0 5 7 5 7 0 9 5 5 12 -4 6 1 17
11 25 22 16 35 17 35 3z m180 -27 c0 -14 -2 -14 -20 2 -11 10 -20 22 -20 27 0
5 9 4 20 -2 11 -6 20 -18 20 -27z m824 18 c3 -5 0 -14 -8 -20 -8 -7 -17 -27
-20 -47 -4 -19 -11 -32 -17 -29 -13 9 -11 30 5 70 15 34 29 44 40 26z m161
-10 c-3 -5 5 -17 17 -25 12 -9 16 -16 9 -16 -11 0 -11 -3 -1 -15 10 -12 10
-19 2 -27 -9 -9 -12 -8 -12 5 0 17 -13 24 -69 42 -16 5 -21 4 -17 -4 4 -6 21
-14 39 -19 39 -10 42 -33 5 -43 -31 -8 -108 10 -108 26 0 23 32 55 55 55 13 0
30 7 37 15 14 15 53 21 43 6z m-130 -18 c-4 -10 -11 -33 -17 -51 -5 -18 -13
-30 -19 -27 -13 9 -11 32 6 65 17 32 42 42 30 13z m-874 -10 c13 -15 12 -15
-8 -4 -24 12 -29 21 -14 21 5 0 15 -7 22 -17z m639 -26 c41 -8 106 -27 144
-41 87 -34 204 -40 254 -13 36 20 44 5 10 -17 -56 -35 -166 -28 -298 19 -36
13 -95 28 -133 35 -86 14 -117 26 -117 45 0 13 4 13 33 1 17 -8 66 -21 107
-29z m-820 5 c0 -5 -16 -13 -35 -19 -38 -12 -45 -7 -17 13 19 15 52 18 52 6z
m185 -8 c14 -9 25 -20 25 -24 0 -10 -69 23 -70 33 0 12 19 8 45 -9z m-83 -28
c77 -1 100 -15 91 -57 -6 -32 -39 -50 -71 -38 -28 11 -24 29 9 46 17 9 19 13
7 13 -9 0 -19 6 -21 13 -7 16 -25 -9 -34 -46 -9 -43 -39 -32 -35 13 2 27 0 31
-7 20 -6 -8 -11 -25 -11 -37 0 -25 -7 -28 -29 -14 -12 8 -13 14 -3 37 7 14 10
29 8 32 -3 2 -11 -8 -18 -24 -16 -38 -15 -37 -27 -30 -7 5 -7 15 0 33 8 23 8
24 -6 13 -8 -7 -15 -20 -15 -28 0 -12 -3 -13 -11 -5 -7 7 -9 19 -5 28 8 22 66
46 91 38 11 -4 50 -7 87 -7z m-76 -126 c78 -13 152 0 176 30 10 12 18 17 18
12 0 -6 -10 -23 -22 -37 -18 -20 -35 -27 -78 -32 -69 -7 -165 12 -191 38 -29
29 -23 42 9 19 15 -11 55 -25 88 -30z m-46 30 c8 -5 11 -10 5 -10 -5 0 -17 5
-25 10 -8 5 -10 10 -5 10 6 0 17 -5 25 -10z m130 -14 c0 -2 -9 -6 -20 -9 -11
-3 -18 -1 -14 4 5 9 34 13 34 5z"/>
<path d="M5190 4955 c7 -9 15 -13 17 -11 7 7 -7 26 -19 26 -6 0 -6 -6 2 -15z"/>
<path d="M5124 4939 c20 -15 25 -27 21 -43 -5 -17 -4 -18 4 -6 6 8 11 18 11
23 0 11 -39 47 -51 47 -7 0 0 -9 15 -21z"/>
<path d="M5170 4941 c5 -11 7 -28 4 -38 -5 -17 -5 -17 6 -1 8 13 8 23 0 38 -6
11 -13 20 -16 20 -2 0 0 -9 6 -19z"/>
<path d="M5277 4940 c12 -5 29 -22 38 -37 15 -27 15 -27 9 -3 -7 29 -31 50
-53 49 -10 0 -8 -3 6 -9z"/>
<path d="M5003 4929 c19 -11 22 -41 7 -70 -15 -26 -28 -24 -23 4 3 14 -2 29
-13 38 -16 13 -16 12 -5 -9 7 -12 9 -32 6 -42 -8 -26 16 -27 38 -2 29 31 17
93 -17 92 -6 0 -3 -5 7 -11z"/>
<path d="M5049 4902 c-3 -20 -2 -29 4 -23 5 5 7 19 5 32 -3 20 -5 19 -9 -9z"/>
<path d="M5286 4907 c3 -10 9 -15 12 -12 3 3 0 11 -7 18 -10 9 -11 8 -5 -6z"/>
<path d="M4915 4850 c-7 -21 10 -60 26 -60 5 0 3 11 -6 24 -8 13 -13 31 -9 40
3 9 4 16 1 16 -3 0 -8 -9 -12 -20z"/>
<path d="M4867 4843 c-9 -9 -9 -71 1 -76 4 -3 7 15 7 39 0 24 0 44 -1 44 0 0
-4 -3 -7 -7z"/>
<path d="M5051 4824 c0 -11 3 -14 6 -6 3 7 2 16 -1 19 -3 4 -6 -2 -5 -13z"/>
<path d="M4871 4720 c0 -8 4 -22 9 -30 12 -18 12 -2 0 25 -6 13 -9 15 -9 5z"/>
<path d="M4900 4701 c0 -6 4 -13 10 -16 6 -3 7 1 4 9 -7 18 -14 21 -14 7z"/>
<path d="M5063 4668 c-19 -12 -16 -13 35 -15 31 -1 66 -3 77 -4 30 -3 45 0 45
9 0 4 -8 8 -17 9 -10 0 -40 4 -68 7 -33 4 -57 2 -72 -6z"/>
<path d="M5081 4626 c-10 -12 -9 -14 8 -9 12 3 21 1 21 -6 0 -6 7 -11 15 -11
8 0 15 5 15 11 0 6 7 8 16 5 10 -4 14 -1 12 6 -7 19 -72 22 -87 4z"/>
<path d="M4874 4608 c-5 -8 -2 -9 10 -5 22 9 32 -18 15 -41 -7 -9 -9 -14 -5
-10 5 4 15 3 21 -2 9 -8 12 -4 9 15 -4 43 -34 69 -50 43z"/>
<path d="M4900 4536 c0 -2 7 -9 15 -16 9 -7 15 -8 15 -2 0 5 -7 12 -15 16 -8
3 -15 4 -15 2z"/>
<path d="M5010 4511 c5 -11 15 -23 21 -27 6 -3 3 5 -6 20 -20 30 -30 35 -15 7z"/>
<path d="M5165 4400 c-19 -4 -1 -6 52 -6 44 1 76 4 70 8 -14 9 -81 8 -122 -2z"/>
<path d="M5190 4358 c0 -11 67 -10 74 0 2 4 -13 8 -35 7 -21 0 -39 -3 -39 -7z"/>
<path d="M5046 4247 c3 -10 9 -15 12 -12 3 3 0 11 -7 18 -10 9 -11 8 -5 -6z"/>
<path d="M5061 4215 c0 -5 13 -35 29 -65 16 -30 29 -50 29 -45 0 6 -13 35 -29
65 -16 30 -29 51 -29 45z"/>
<path d="M5202 4172 c-11 -25 -11 -25 4 -10 9 9 15 21 13 27 -2 6 -10 -2 -17
-17z"/>
<path d="M4882 4023 c81 -101 163 -187 213 -226 26 -20 18 -9 -25 34 -36 35
-105 110 -153 167 -48 56 -90 102 -93 102 -3 0 23 -35 58 -77z"/>
<path d="M4687 4014 c15 -26 35 -75 45 -108 14 -46 17 -51 12 -21 -6 46 -50
149 -70 166 -8 6 -2 -10 13 -37z"/>
<path d="M4940 4039 c25 -17 129 -69 137 -69 4 0 -26 18 -67 40 -72 39 -101
51 -70 29z"/>
<path d="M5100 3960 c8 -5 20 -10 25 -10 6 0 3 5 -5 10 -8 5 -19 10 -25 10 -5
0 -3 -5 5 -10z"/>
<path d="M4811 3894 c0 -11 3 -14 6 -6 3 7 2 16 -1 19 -3 4 -6 -2 -5 -13z"/>
<path d="M4612 3860 c0 -14 2 -19 5 -12 2 6 2 18 0 25 -3 6 -5 1 -5 -13z"/>
<path d="M4832 3825 c0 -21 25 -107 27 -90 0 6 -6 33 -13 60 -8 28 -14 41 -14
30z"/>
<path d="M4621 3819 c-1 -19 28 -111 41 -124 4 -5 0 16 -11 46 -10 31 -21 65
-24 75 -3 14 -5 15 -6 3z"/>
<path d="M4862 3700 c0 -14 2 -19 5 -12 2 6 2 18 0 25 -3 6 -5 1 -5 -13z"/>
<path d="M4792 3659 c-1 -25 -4 -68 -7 -95 l-4 -49 10 49 c5 27 8 70 6 95 l-3
46 -2 -46z"/>
<path d="M4911 3600 c0 -8 6 -28 14 -45 17 -39 18 -21 0 25 -7 19 -14 28 -14
20z"/>
<path d="M5446 4010 c8 -43 14 -51 14 -19 0 13 -5 31 -10 39 -7 11 -8 5 -4
-20z"/>
<path d="M5463 3925 c0 -22 2 -30 4 -17 2 12 2 30 0 40 -3 9 -5 -1 -4 -23z"/>
<path d="M5462 3430 c0 -14 2 -19 5 -12 2 6 2 18 0 25 -3 6 -5 1 -5 -13z"/>
<path d="M5452 3375 c0 -16 2 -22 5 -12 2 9 2 23 0 30 -3 6 -5 -1 -5 -18z"/>
<path d="M5383 3167 c-11 -23 -42 -66 -69 -96 -28 -31 -39 -49 -27 -43 12 7
35 28 51 47 31 38 77 123 70 130 -2 3 -13 -14 -25 -38z"/>
<path d="M5164 3004 c-18 -14 -18 -15 4 -4 12 6 22 13 22 15 0 8 -5 6 -26 -11z"/>
<path d="M6100 3628 c0 -4 7 -8 15 -8 8 0 15 4 15 8 0 5 -7 9 -15 9 -8 0 -15
-4 -15 -9z"/>
<path d="M6395 3491 c-7 -12 12 -24 25 -16 11 7 4 25 -10 25 -5 0 -11 -4 -15
-9z"/>
<path d="M5675 3100 c-4 -6 -3 -16 3 -22 6 -6 12 -6 17 2 4 6 3 16 -3 22 -6 6
-12 6 -17 -2z"/>
<path d="M5952 2928 c6 -18 28 -21 28 -4 0 9 -7 16 -16 16 -9 0 -14 -5 -12
-12z"/>
<path d="M5090 3500 c-8 -5 -12 -12 -9 -15 4 -3 12 1 19 10 14 17 11 19 -10 5z"/>
<path d="M4389 3308 c7 -10 23 -17 35 -17 20 1 20 2 1 6 -11 3 -27 10 -35 17
-13 10 -13 9 -1 -6z"/>
<path d="M4868 3283 c6 -2 18 -2 25 0 6 3 1 5 -13 5 -14 0 -19 -2 -12 -5z"/>
<path d="M4578 3233 c6 -2 18 -2 25 0 6 3 1 5 -13 5 -14 0 -19 -2 -12 -5z"/>
<path d="M6150 3525 c-7 -9 -8 -15 -2 -15 5 0 12 7 16 15 3 8 4 15 2 15 -2 0
-9 -7 -16 -15z"/>
<path d="M6074 3506 c-9 -15 -14 -29 -12 -32 3 -2 13 7 22 22 10 14 15 28 13
31 -3 2 -13 -7 -23 -21z"/>
<path d="M6190 3505 c-7 -9 -11 -17 -9 -20 3 -2 10 5 17 15 14 24 10 26 -8 5z"/>
<path d="M6118 3483 c-37 -43 -116 -150 -127 -173 -7 -14 -27 -38 -45 -53 -30
-28 -30 -28 -2 -11 15 10 39 34 52 53 13 20 32 47 43 61 73 96 124 174 79 123z"/>
<path d="M6229 3483 c-13 -16 -12 -17 4 -4 9 7 17 15 17 17 0 8 -8 3 -21 -13z"/>
<path d="M6266 3463 c-6 -14 -5 -15 5 -6 7 7 10 15 7 18 -3 3 -9 -2 -12 -12z"/>
<path d="M6103 3394 c-32 -41 -68 -89 -80 -106 -13 -17 -40 -52 -60 -77 -55
-69 -60 -76 -47 -68 7 4 38 42 70 84 33 43 77 100 99 128 55 68 88 115 81 115
-3 0 -32 -34 -63 -76z"/>
<path d="M6140 3372 c-36 -47 -101 -130 -144 -186 -101 -130 -109 -141 -63
-92 46 50 280 356 276 360 -2 2 -33 -35 -69 -82z"/>
<path d="M6266 3398 l-48 -63 51 54 c29 30 50 58 49 63 -2 6 -25 -19 -52 -54z"/>
<path d="M5995 3398 c-48 -62 -80 -112 -65 -103 6 4 21 22 33 40 12 18 37 52
55 74 19 23 30 41 25 41 -4 -1 -26 -24 -48 -52z"/>
<path d="M6144 3312 c-55 -70 -104 -134 -108 -142 -6 -12 -5 -12 6 1 68 80
210 261 207 264 -3 2 -50 -53 -105 -123z"/>
<path d="M5889 3253 c-13 -16 -12 -17 4 -4 16 13 21 21 13 21 -2 0 -10 -8 -17
-17z"/>
<path d="M5829 3183 c-13 -16 -12 -17 4 -4 16 13 21 21 13 21 -2 0 -10 -8 -17
-17z"/>
<path d="M6066 3157 c-36 -48 -32 -58 4 -12 17 21 30 39 30 41 0 11 -12 1 -34
-29z"/>
<path d="M5680 3345 c-14 -8 -20 -14 -15 -14 6 0 21 6 35 14 14 8 21 14 15 14
-5 0 -21 -6 -35 -14z"/>
<path d="M4875 3130 c7 -26 52 -100 60 -100 5 0 -52 108 -63 120 -2 3 -1 -6 3
-20z"/>
<path d="M4440 2951 c0 -5 9 -7 20 -4 11 3 20 7 20 9 0 2 -9 4 -20 4 -11 0
-20 -4 -20 -9z"/>
<path d="M4460 2898 c0 -4 6 -8 14 -8 8 0 17 4 20 8 2 4 -4 8 -15 8 -10 0 -19
-4 -19 -8z"/>
<path d="M4588 2923 c7 -3 16 -2 19 1 4 3 -2 6 -13 5 -11 0 -14 -3 -6 -6z"/>
<path d="M4590 2900 c-9 -6 -10 -10 -3 -10 6 0 15 5 18 10 8 12 4 12 -15 0z"/>
<path d="M4588 2873 c7 -3 16 -2 19 1 4 3 -2 6 -13 5 -11 0 -14 -3 -6 -6z"/>
<path d="M5462 2910 c0 -8 8 -37 19 -65 14 -37 18 -42 15 -19 -6 36 -34 107
-34 84z"/>
<path d="M5122 2765 c0 -16 2 -22 5 -12 2 9 2 23 0 30 -3 6 -5 -1 -5 -18z"/>
<path d="M5501 2774 c0 -11 3 -14 6 -6 3 7 2 16 -1 19 -3 4 -6 -2 -5 -13z"/>
<path d="M5106 2560 c-3 -80 -9 -206 -12 -280 -4 -74 -4 -133 -1 -130 8 7 31
524 25 542 -3 7 -8 -52 -12 -132z"/>
<path d="M5350 2629 c1 -88 30 -552 36 -558 3 -3 3 46 0 109 -15 275 -29 475
-32 479 -2 2 -4 -11 -4 -30z"/>
<path d="M5012 2565 c0 -16 2 -22 5 -12 2 9 2 23 0 30 -3 6 -5 -1 -5 -18z"/>
<path d="M5572 2340 c0 -14 2 -19 5 -12 2 6 2 18 0 25 -3 6 -5 1 -5 -13z"/>
<path d="M5586 2235 c5 -85 31 -262 33 -232 1 24 -29 289 -34 302 -3 6 -3 -26
1 -70z"/>
<path d="M5392 2020 c0 -14 2 -19 5 -12 2 6 2 18 0 25 -3 6 -5 1 -5 -13z"/>
<path d="M4778 2763 c-27 -31 -44 -75 -68 -170 -27 -111 -40 -126 -113 -126
l-52 1 44 -10 c82 -18 101 4 142 166 12 48 33 104 45 122 25 37 26 44 2 17z"/>
<path d="M4573 2763 c9 -2 25 -2 35 0 9 3 1 5 -18 5 -19 0 -27 -2 -17 -5z"/>
<path d="M4790 2646 c0 -4 -9 -51 -20 -104 -38 -188 -60 -326 -59 -371 l1 -46
8 50 c4 28 24 144 44 259 20 115 34 212 31 214 -3 3 -5 2 -5 -2z"/>
<path d="M4837 2296 c-4 -32 -5 -61 -3 -63 7 -7 19 82 14 103 -2 11 -7 -8 -11
-40z"/>
<path d="M4840 2171 c0 -6 4 -13 10 -16 6 -3 7 1 4 9 -7 18 -14 21 -14 7z"/>
<path d="M4765 2150 c-16 -11 -25 -20 -19 -20 11 0 64 39 54 40 -3 0 -18 -9
-35 -20z"/>
<path d="M4910 1775 c0 -5 5 -17 10 -25 5 -8 10 -10 10 -5 0 6 -5 17 -10 25
-5 8 -10 11 -10 5z"/>
<path d="M4756 1722 c-3 -9 -2 -37 3 -62 l9 -45 1 63 c1 63 -3 77 -13 44z"/>
<path d="M4888 1630 c-41 -78 -38 -95 4 -25 25 41 46 95 37 95 -2 0 -21 -32
-41 -70z"/>
<path d="M4833 1345 c-7 -38 -15 -101 -17 -140 -4 -54 -1 -43 14 50 11 66 19
129 18 140 -2 11 -9 -11 -15 -50z"/>
<path d="M5475 1790 c-16 -16 -24 -30 -18 -30 7 0 21 14 33 30 12 17 20 30 18
30 -3 0 -17 -13 -33 -30z"/>
<path d="M5450 1676 c0 -18 27 -76 35 -76 4 0 -24 80 -32 89 -1 2 -3 -3 -3
-13z"/>
<path d="M5418 1360 c-4 -30 -9 -71 -12 -90 -5 -30 -4 -29 9 10 9 25 14 65 13
90 l-3 45 -7 -55z"/>
<path d="M4716 601 c-4 -5 -2 -12 3 -15 5 -4 12 -2 15 3 4 5 2 12 -3 15 -5 4
-12 2 -15 -3z"/>
<path d="M5385 620 c-3 -5 -1 -10 4 -10 6 0 11 5 11 10 0 6 -2 10 -4 10 -3 0
-8 -4 -11 -10z"/>
<path d="M5800 590 c8 -5 22 -9 30 -9 10 0 8 3 -5 9 -27 12 -43 12 -25 0z"/>
</g>
</svg>
