<?xml version="1.0" standalone="no"?>
<!DOCTYPE svg PUBLIC "-//W3C//DTD SVG 20010904//EN"
 "http://www.w3.org/TR/2001/REC-SVG-20010904/DTD/svg10.dtd">
<svg version="1.0" xmlns="http://www.w3.org/2000/svg"
 width="1024.000000pt" height="559.000000pt" viewBox="0 0 1024.000000 559.000000"
 preserveAspectRatio="xMidYMid meet">
<metadata>
Created by potrace 1.16, written by Peter Selinger 2001-2019
</metadata>
<g transform="translate(0.000000,559.000000) scale(0.100000,-0.100000)"
fill="#000000" stroke="none">
<path d="M3770 5089 c-40 -16 -60 -40 -60 -71 0 -15 9 -86 21 -156 11 -70 22
-186 24 -258 l2 -131 -31 -14 c-19 -9 -32 -23 -34 -36 -3 -18 -10 -23 -33 -23
l-29 0 0 134 c0 147 0 147 -65 165 -32 9 -46 8 -75 -7 l-35 -17 -3 -137 -3
-138 -71 0 c-54 0 -78 -5 -104 -21 -39 -24 -39 -21 -19 -148 8 -53 35 -244 60
-426 25 -181 50 -357 55 -390 33 -205 92 -656 97 -740 l6 -100 -34 -10 c-33
-10 -34 -11 -30 -60 3 -45 10 -58 33 -67 4 -2 -9 -75 -28 -163 -19 -88 -61
-288 -94 -445 -33 -157 -75 -361 -95 -454 -19 -93 -35 -177 -35 -188 0 -11 13
-25 33 -34 30 -14 36 -14 82 4 27 11 53 26 57 33 4 8 49 219 99 469 137 686
146 731 152 736 8 8 17 -296 28 -961 11 -701 7 -656 68 -672 26 -7 125 23 141
42 7 8 7 133 1 366 -6 194 -8 356 -5 359 3 3 62 23 132 45 l126 41 29 -33 c25
-28 108 -75 199 -111 20 -8 28 -20 33 -49 4 -21 11 -51 16 -67 5 -16 12 -61
15 -100 3 -39 12 -90 21 -114 10 -28 13 -58 9 -84 -4 -26 -2 -45 6 -55 18 -22
-37 -65 -170 -133 -78 -40 -111 -62 -120 -83 -28 -59 13 -91 129 -102 103 -11
208 8 307 53 61 28 111 43 166 50 97 12 130 33 134 86 2 21 -1 52 -7 68 -14
39 -1 56 37 50 17 -2 46 5 70 17 l42 21 2 163 3 162 51 3 51 3 13 -130 c10
-102 10 -140 0 -181 -8 -32 -9 -68 -4 -98 4 -26 6 -55 5 -65 -1 -10 3 -25 10
-33 15 -18 -12 -60 -100 -157 -34 -38 -66 -80 -72 -94 -12 -33 -2 -69 25 -86
36 -24 147 -37 222 -26 118 17 189 59 238 144 13 22 37 50 54 62 27 20 29 27
35 105 3 46 13 103 22 128 14 37 15 57 6 115 -7 50 -6 96 2 160 l12 90 51 6
c29 4 57 9 62 13 6 3 13 69 17 146 8 158 1 148 95 126 l55 -13 -4 -409 c-3
-340 -1 -411 10 -420 8 -7 38 -18 66 -27 l53 -15 52 32 53 31 5 139 5 140 125
62 c69 35 130 63 137 63 8 1 13 -25 15 -81 l3 -83 53 -18 54 -17 51 27 52 28
-4 371 -3 370 48 25 c38 20 50 32 57 59 11 42 4 120 -12 129 -6 4 -48 13 -94
20 -45 7 -133 22 -195 32 -63 10 -118 19 -123 19 -10 0 -12 60 -3 84 4 11 13
14 30 10 23 -6 24 -4 24 49 0 62 -33 243 -55 308 -8 22 -12 52 -9 65 6 23 10
24 48 19 22 -4 54 -1 70 5 30 11 136 107 136 123 0 5 16 41 35 80 42 86 45
144 15 293 -33 164 -59 262 -145 544 -86 284 -138 349 -377 469 -77 39 -157
75 -179 81 -22 6 -57 27 -78 46 -21 18 -43 34 -49 34 -7 0 -18 10 -26 23 -13
20 -12 34 14 142 69 284 15 516 -129 560 -13 4 -35 21 -49 37 -38 45 -112 77
-99 43 5 -11 0 -13 -26 -7 -18 4 -66 7 -108 6 -96 -1 -169 -34 -287 -129 -86
-70 -115 -105 -87 -105 19 0 19 -3 -6 -51 -44 -86 -32 -194 26 -249 14 -13 25
-34 25 -46 0 -13 11 -44 25 -70 14 -26 25 -57 25 -69 0 -39 27 -100 90 -205
34 -56 58 -105 53 -109 -4 -4 -32 -25 -61 -45 -89 -64 -115 -115 -166 -321
-13 -55 -36 -126 -50 -159 -14 -32 -26 -75 -26 -96 0 -39 -23 -70 -53 -70 -9
0 -27 -5 -41 -11 -21 -10 -34 -8 -80 15 -30 15 -57 35 -60 44 -14 49 -49 346
-40 349 40 15 170 102 172 116 5 26 -29 22 -114 -14 -41 -17 -77 -30 -78 -28
-2 2 -22 131 -44 287 -23 155 -44 287 -47 292 -3 6 -44 10 -90 10 l-84 0 -10
38 c-47 179 -63 237 -68 245 -11 18 -113 2 -135 -21 -22 -21 -22 -22 -5 -94
23 -98 24 -95 -25 -89 l-42 6 -12 78 c-16 102 -18 107 -52 107 l-28 0 -23 163
c-25 182 -36 230 -54 245 -20 16 -70 22 -97 11z m65 -19 c8 0 19 -9 25 -20 9
-17 60 -327 60 -366 0 -12 -11 -14 -47 -12 l-48 3 -29 193 c-26 166 -28 195
-15 203 8 5 20 7 27 4 8 -3 20 -5 27 -5z m-75 -53 c0 -19 4 -58 10 -88 5 -30
14 -90 20 -134 7 -44 14 -90 17 -101 3 -13 -1 -23 -10 -27 -11 -4 -18 22 -35
131 -32 209 -35 230 -27 241 13 21 25 10 25 -22z m1663 18 c32 -8 63 -15 69
-15 7 0 6 5 -2 15 -27 33 10 13 40 -22 18 -20 55 -47 81 -59 121 -56 160 -264
98 -523 -17 -71 -24 -89 -30 -73 -5 13 -1 39 12 71 27 73 25 136 -6 166 -27
28 -33 29 -69 15 -30 -11 -48 -42 -55 -94 -8 -53 -27 -56 -35 -6 -5 34 -14 46
-55 75 -52 38 -81 89 -81 148 l-1 32 -22 -30 c-26 -35 -69 -77 -74 -72 -2 2 3
17 11 33 24 45 10 41 -47 -13 -49 -46 -117 -92 -117 -78 0 3 11 23 25 43 29
43 33 62 8 40 -27 -24 -125 -80 -130 -74 -6 6 15 46 41 75 l21 25 -30 -19
c-43 -26 -86 -76 -92 -107 -7 -35 -16 -35 -34 -2 -31 59 -6 184 49 247 14 16
13 17 -7 17 -19 0 -16 5 21 38 172 148 271 184 411 147z m-43 -345 c0 -35 27
-76 75 -116 25 -20 48 -48 51 -63 12 -53 16 -61 29 -61 24 0 45 31 45 66 0 24
8 43 25 59 31 32 50 32 71 0 21 -32 15 -92 -14 -158 -18 -40 -25 -47 -48 -47
-20 0 -25 -3 -17 -11 6 -6 21 -9 34 -7 20 3 28 -6 52 -52 15 -30 34 -66 43
-80 12 -20 14 -46 10 -129 -6 -97 -8 -107 -34 -134 -28 -30 -137 -89 -184
-101 -24 -5 -30 -16 -54 -94 -14 -48 -30 -91 -34 -95 -4 -5 -11 21 -15 58 -10
96 -19 121 -58 155 -39 34 -48 56 -36 88 13 33 33 27 59 -20 27 -48 40 -36 14
13 -16 33 -16 33 7 48 45 27 156 149 178 193 11 24 21 60 20 79 0 33 -1 32
-18 -18 -20 -60 -50 -101 -124 -174 -60 -60 -99 -79 -160 -79 -54 0 -65 8
-120 95 -71 112 -95 160 -111 222 -15 58 -13 82 5 50 12 -21 44 -23 35 -2 -3
8 0 15 7 15 9 0 11 -22 9 -81 -5 -111 16 -130 99 -91 27 12 38 23 38 37 -1 13
-3 15 -5 5 -5 -18 -87 -45 -103 -35 -7 3 -11 45 -11 98 0 51 -5 99 -11 107 -8
13 -9 12 -7 -4 3 -16 -3 -19 -36 -19 -30 0 -43 5 -55 23 l-15 23 47 -7 c28 -4
47 -3 47 2 0 13 -25 22 -64 22 -33 0 -33 0 -40 61 -3 37 -2 67 5 77 8 14 9 11
4 -10 -6 -32 14 -39 36 -12 13 15 62 44 75 44 4 0 -3 -11 -16 -25 l-23 -25 22
0 c30 0 88 25 128 56 21 16 31 19 27 9 -3 -8 -2 -15 3 -15 15 0 93 59 93 70 0
6 5 10 10 10 6 0 10 -9 10 -20z m-1789 -20 c17 -10 19 -22 19 -140 l0 -130
-45 0 -45 0 0 140 0 140 26 0 c14 0 34 -5 45 -10z m-91 -135 c0 -113 -2 -135
-15 -135 -13 0 -15 21 -15 128 0 71 3 132 7 135 19 19 23 -5 23 -128z m739 98
c5 -21 21 -82 34 -135 l25 -98 -44 0 c-49 0 -40 -17 -83 157 -29 112 -29 113
19 113 37 0 40 -2 49 -37z m-245 -15 c3 -18 8 -57 12 -85 l7 -53 -86 0 -85 0
-6 33 c-3 17 -8 56 -12 85 l-7 52 86 0 85 0 6 -32z m152 -24 c7 -27 21 -82 32
-122 17 -64 18 -73 4 -70 -11 2 -24 36 -44 108 -31 117 -34 144 -16 138 7 -3
18 -27 24 -54z m-343 39 c2 -5 8 -41 11 -80 7 -68 6 -73 -12 -73 -17 0 -21 10
-27 69 -4 39 -4 75 0 80 7 13 22 14 28 4z m-23 -226 c0 -38 -1 -39 -14 -21 -8
10 -22 19 -32 19 -29 0 -27 23 3 38 37 20 43 14 43 -36z m333 46 c3 -5 7 -24
9 -43 l3 -35 -162 -3 c-134 -2 -163 0 -163 12 0 7 -3 28 -6 45 l-6 31 160 0
c89 0 163 -3 165 -7z m-363 -88 c0 -13 28 -15 195 -15 165 0 197 2 201 15 5
12 34 15 170 15 90 0 164 -1 164 -2 0 -2 18 -126 40 -277 22 -151 40 -282 40
-291 0 -10 -29 -30 -81 -55 l-81 -39 -69 12 c-97 17 -109 15 -153 -18 -40 -30
-106 -119 -106 -142 0 -18 -131 -90 -169 -93 -18 -2 -46 -16 -67 -34 -20 -18
-48 -37 -63 -42 -25 -10 -25 -11 -7 -25 33 -24 118 -18 157 11 41 30 164 95
179 95 6 0 9 -4 6 -9 -9 -14 4 -41 20 -41 8 0 19 -11 24 -25 13 -33 68 -61 92
-46 15 9 24 5 54 -29 21 -23 52 -45 75 -51 29 -9 71 -45 171 -146 145 -145
139 -134 153 -279 l7 -72 -94 -21 c-51 -12 -141 -32 -200 -44 l-107 -24 -7 53
c-3 30 -12 59 -20 65 -15 12 -138 9 -151 -4 -7 -8 -9 -28 -12 -108 -1 -45 -2
-47 -33 -52 -62 -8 -85 18 -92 101 -2 33 -22 42 -92 42 -70 0 -100 -16 -91
-48 3 -12 1 -25 -4 -28 -5 -3 -9 -25 -9 -48 l0 -44 -45 -6 c-30 -5 -50 -15
-62 -31 -12 -16 -32 -27 -59 -31 l-42 -6 -11 68 c-6 38 -15 103 -21 144 -36
262 -62 453 -79 575 -29 199 -121 848 -131 925 -5 36 -9 77 -10 93 l0 27 210
0 c180 0 210 -2 210 -15z m-440 -4 c0 -10 55 -403 85 -616 26 -179 32 -222 90
-640 30 -220 60 -427 65 -461 14 -87 13 -94 -13 -94 -26 0 -10 -97 -158 960
-22 157 -58 408 -80 559 -36 258 -38 275 -21 287 20 16 32 17 32 5z m2497
-283 c2 -57 -7 -227 -19 -378 l-23 -275 -33 -3 c-23 -2 -34 2 -39 13 -5 16 11
185 53 530 9 72 14 161 11 199 l-4 68 26 -26 c24 -24 26 -33 28 -128z m42 83
c13 -8 13 -14 1 -38 l-13 -28 -8 25 c-14 50 -10 60 20 41z m159 -69 c205 -102
263 -150 319 -265 36 -72 149 -435 193 -622 54 -232 60 -318 23 -389 l-15 -29
-17 51 c-42 122 -130 184 -291 205 l-25 3 28 12 c46 19 142 15 188 -9 51 -26
62 -19 15 10 -68 42 -175 40 -240 -4 -42 -29 -46 -30 -46 -12 0 16 55 70 90
88 14 7 43 18 65 25 38 12 38 13 10 13 -39 1 -102 -28 -147 -68 l-36 -31 -14
22 c-32 50 -40 100 -40 266 -1 114 -3 153 -9 122 -4 -25 -8 -74 -8 -109 -1
-35 -4 -61 -8 -57 -5 4 -18 38 -30 74 -12 37 -22 57 -22 44 -1 -13 10 -56 23
-95 13 -40 27 -99 31 -131 4 -33 20 -83 36 -114 36 -67 36 -82 2 -122 -16 -20
-27 -46 -28 -68 -2 -23 -8 -37 -16 -37 -21 0 -106 134 -138 220 -42 112 -49
144 -65 301 -9 96 -18 141 -28 147 -12 8 -12 30 -2 146 7 75 16 190 19 256 6
89 12 126 25 145 10 14 21 35 24 48 4 12 10 22 12 22 3 0 58 -26 122 -58z
m-774 -95 c15 -11 17 -17 7 -35 -20 -38 -70 -209 -87 -300 -9 -48 -20 -92 -26
-99 -5 -7 -12 -56 -16 -110 -5 -87 -7 -93 -13 -53 -4 25 -8 108 -8 184 -1 77
-3 137 -5 135 -2 -2 -6 -47 -8 -101 -1 -53 -6 -94 -9 -92 -4 2 -13 36 -19 74
-6 39 -14 70 -17 70 -7 0 5 -86 22 -145 26 -96 47 -370 37 -484 -9 -99 -11
-104 -44 -138 -25 -24 -47 -36 -76 -40 -44 -6 -54 5 -26 28 18 15 44 62 44 81
0 7 -8 -3 -19 -22 -21 -41 -74 -80 -108 -80 -31 0 -79 25 -86 45 -8 19 -2 19
27 0 34 -23 70 -3 97 52 18 38 21 57 17 131 -5 106 -30 162 -85 190 -40 21
-32 35 16 26 21 -4 44 -22 66 -48 40 -49 54 -80 70 -161 13 -59 13 -59 14 -18
1 56 -24 129 -60 176 -34 42 -30 46 17 16 37 -22 79 -98 94 -169 l9 -45 -3 56
c-7 96 -73 188 -146 204 -17 4 -29 12 -27 18 6 19 51 20 92 3 33 -14 36 -14
25 -1 -7 9 -32 20 -56 26 -54 14 -56 31 -16 127 16 37 37 101 46 142 25 104
52 194 70 227 24 46 133 143 161 143 6 0 19 -6 29 -13z m61 -41 c-30 -88 -65
-249 -75 -337 -19 -172 -18 -169 -44 -169 -13 0 -26 6 -29 14 -4 10 0 12 15 8
24 -6 41 17 26 35 -13 16 -28 17 -28 2 0 -5 5 -7 10 -4 6 3 10 -1 10 -9 0 -9
-4 -16 -10 -16 -37 0 -8 176 70 425 27 86 27 86 46 78 11 -4 13 -12 9 -27z
m405 -186 c-11 -84 -20 -170 -20 -191 0 -34 -4 -40 -27 -46 -46 -12 -284 -9
-343 5 -86 20 -84 15 -66 123 19 111 49 239 56 239 3 0 21 -16 41 -34 33 -31
38 -42 48 -113 6 -43 16 -96 22 -117 9 -32 13 -36 23 -25 12 13 45 110 62 181
7 33 16 40 79 63 56 20 119 58 131 77 16 25 14 -12 -6 -162z m-950 76 c0 -6
-74 -47 -215 -121 -60 -32 -137 -73 -171 -91 -44 -25 -73 -34 -105 -33 -43 0
-40 2 111 78 157 78 359 171 373 171 4 0 7 -2 7 -4z m-407 -145 c4 -4 -13 -17
-38 -29 -28 -14 -45 -17 -45 -10 0 6 -11 1 -25 -12 -14 -13 -28 -21 -31 -17
-3 3 -19 -10 -36 -29 -25 -29 -68 -47 -68 -29 0 16 53 86 87 113 35 30 42 32
93 26 30 -3 58 -9 63 -13z m237 -8 c0 -16 6 -66 14 -113 8 -47 18 -109 21
-139 l7 -54 -31 22 c-20 15 -48 55 -77 113 -73 145 -72 133 -6 167 31 17 60
30 65 31 4 0 7 -12 7 -27z m-106 -140 c21 -49 49 -103 62 -120 30 -39 131
-101 236 -144 73 -29 79 -34 103 -82 42 -84 32 -224 -19 -267 -34 -27 -115 28
-282 195 -116 114 -162 154 -195 165 -32 11 -55 30 -87 72 l-44 57 18 25 c11
14 24 24 29 23 6 -2 22 -28 37 -60 18 -37 38 -62 57 -72 43 -22 62 -19 24 5
-36 21 -58 52 -68 92 -9 37 -36 58 -86 69 -51 12 -69 25 -69 50 0 13 7 19 21
19 16 0 20 -5 16 -20 -3 -11 -1 -18 4 -14 5 3 9 12 9 20 0 20 33 18 102 -8 44
-16 62 -18 70 -10 9 9 5 12 -16 12 -24 0 -26 3 -21 23 6 21 5 21 -9 4 -11 -14
-19 -16 -32 -9 -15 8 -10 14 32 35 27 15 54 26 59 27 6 0 28 -39 49 -87z
m-306 1 c-2 -9 -19 -25 -38 -35 -30 -16 -35 -17 -43 -4 -11 21 0 35 28 35 13
0 27 5 30 10 10 16 27 11 23 -6z m1322 -54 c63 0 130 4 148 9 l32 10 0 -49 c0
-55 15 -70 69 -70 36 0 50 22 52 77 1 36 2 35 9 -12 5 -27 13 -94 20 -147 20
-172 76 -320 159 -426 30 -37 36 -51 26 -58 -7 -5 -49 -35 -94 -66 -44 -32
-88 -58 -98 -58 -13 0 -8 6 15 23 56 39 54 89 -4 113 -44 18 -218 18 -349 -1
-86 -12 -258 -51 -305 -69 -11 -5 -21 9 -38 51 -27 68 -28 95 -13 267 6 71 11
180 11 242 l0 112 29 -11 c44 -16 59 -4 67 51 l6 49 72 -18 c49 -13 107 -19
186 -19z m-1420 4 c0 -9 -22 -25 -55 -40 -65 -28 -65 -28 -65 -11 0 14 85 66
108 67 6 0 12 -7 12 -16z m103 -11 c-8 -24 -24 -43 -34 -43 -14 0 -11 48 4 53
25 11 36 7 30 -10z m42 7 c3 -5 17 -10 31 -10 27 0 28 -3 14 -31 -14 -25 -26
-24 -33 2 -7 28 -29 14 -22 -14 3 -12 1 -29 -5 -37 -8 -13 -11 -13 -26 2 -17
16 -17 19 -1 36 9 10 17 28 17 40 0 23 14 29 25 12z m-315 -50 c-12 -8 -12
-10 5 -10 20 -1 20 -1 1 -15 -23 -17 -14 -20 17 -4 17 8 16 5 -6 -15 -29 -27
-45 -30 -84 -20 -21 6 -20 8 18 40 23 19 46 34 52 34 7 0 5 -5 -3 -10z m340
-49 c0 -19 -17 -38 -25 -29 -7 7 7 48 16 48 5 0 9 -9 9 -19z m2104 -412 c94
-44 155 -131 156 -219 0 -41 -21 -90 -38 -90 -4 0 -7 21 -8 48 0 26 -8 61 -18
77 -15 27 -16 27 -11 5 24 -93 14 -157 -27 -184 -32 -21 -78 -31 -78 -17 0 6
11 13 25 17 59 15 36 149 -39 224 -67 69 -137 92 -190 65 -33 -18 -40 -15 -32
13 16 51 126 57 211 12 33 -18 52 -24 45 -14 -23 27 -93 57 -150 64 -51 6 -53
7 -30 18 36 17 128 8 184 -19z m-1596 -69 c27 -54 65 -70 174 -73 90 -2 96 -1
131 26 33 25 37 26 37 9 0 -11 9 -41 21 -67 11 -25 19 -48 17 -50 -1 -1 -39
-19 -82 -39 -90 -41 -165 -95 -189 -135 -13 -23 -31 -32 -102 -50 -47 -13 -89
-21 -92 -17 -3 3 -6 22 -7 42 l-1 37 65 17 c36 10 84 23 108 29 41 12 42 12
42 56 0 51 -10 59 -82 70 -26 4 -51 12 -56 19 -5 6 -12 36 -16 66 -4 30 -9 71
-13 90 -5 32 -4 34 11 19 9 -8 25 -31 34 -49z m1475 -36 c75 -38 127 -113 127
-184 0 -35 -4 -43 -32 -60 -35 -21 -214 -94 -261 -105 l-28 -7 25 37 c30 43
35 105 11 129 -24 24 -77 34 -131 26 -27 -4 -50 -7 -52 -5 -1 1 17 15 40 30
23 15 80 57 125 92 91 68 118 76 176 47z m-413 -53 c38 -11 35 -33 -10 -61
-42 -26 -53 -41 -44 -64 8 -22 52 -28 113 -16 182 34 241 -18 129 -114 -234
-203 -946 -280 -1114 -121 -33 31 -36 39 -31 72 13 78 129 159 321 224 104 35
279 74 371 82 72 6 239 5 265 -2z m-1582 -38 c-10 -2 -28 -2 -40 0 -13 2 -5 4
17 4 22 1 32 -1 23 -4z m39 -18 c-2 -5 -32 -10 -67 -10 -35 0 -65 5 -67 10 -2
6 25 10 67 10 42 0 69 -4 67 -10z m1579 -4 c-3 -5 -23 -19 -43 -30 l-38 -21
35 30 c33 29 57 40 46 21z m-1887 -10 c7 -5 11 -13 7 -19 -17 -28 -146 -25
-146 4 0 11 4 12 19 4 23 -12 72 -13 98 -2 12 5 -2 9 -42 13 l-60 6 55 1 c30
1 61 -2 69 -7z m321 -72 c0 -51 -10 -59 -75 -59 -67 0 -75 7 -75 66 l0 53 68
3 c37 2 70 -1 74 -7 4 -5 8 -31 8 -56z m509 62 c17 -4 -54 -25 -240 -70 -298
-73 -315 -76 -281 -61 13 5 26 19 29 30 3 11 15 23 27 25 290 72 411 91 465
76z m59 -43 l-3 -32 -325 -83 c-179 -45 -328 -83 -331 -83 -9 0 -22 51 -15 57
4 4 620 162 669 171 5 1 7 -12 5 -30z m-876 -6 c5 -5 8 -33 6 -63 -3 -52 -4
-53 -40 -62 -20 -5 -55 -5 -80 0 -42 8 -43 9 -46 52 -6 82 -3 86 79 84 39 0
75 -5 81 -11z m135 -109 c38 -18 40 -23 59 -133 8 -47 17 -92 19 -101 3 -10
-11 -26 -40 -47 -42 -29 -45 -35 -45 -76 0 -31 -5 -46 -16 -50 -30 -11 -65 -6
-93 14 -22 17 -32 19 -54 11 -18 -7 -28 -7 -33 0 -3 6 -4 54 0 108 11 173 -12
213 -127 221 -63 4 -72 7 -72 25 0 28 71 45 89 20 6 -9 34 -21 62 -26 36 -6
57 -18 80 -42 27 -29 32 -45 43 -127 15 -114 26 -135 16 -30 -9 105 -22 146
-50 168 -27 21 -23 32 11 32 25 0 44 26 44 59 0 20 1 20 38 5 20 -9 51 -23 69
-31z m100 19 c45 5 42 -8 -4 -17 -25 -4 -48 -1 -74 11 -49 21 -41 38 8 18 20
-9 52 -14 70 -12z m1802 -66 c-205 -186 -810 -274 -1077 -156 -25 11 -43 22
-40 25 3 3 26 -4 52 -16 26 -11 99 -28 163 -37 99 -14 134 -14 249 -4 229 21
409 67 554 143 42 22 90 53 105 69 16 16 31 27 34 24 3 -3 -15 -25 -40 -48z
m-1374 8 c7 -41 3 -47 -42 -62 -31 -10 -31 -10 -42 33 -6 24 -11 46 -11 49 0
6 29 13 61 15 23 1 28 -4 34 -35z m1596 6 c-21 -18 -51 -27 -51 -15 0 5 58 33
70 34 3 0 -6 -9 -19 -19z m-1698 -27 c4 -21 8 -42 9 -48 2 -5 -4 -11 -12 -13
-11 -2 -18 11 -26 43 -6 25 -8 47 -6 50 15 15 30 1 35 -32z m-1036 0 c-2 -1
-14 1 -27 4 -22 6 -22 7 -4 13 15 6 40 -8 31 -17z m983 -14 c6 -23 9 -46 7
-53 -3 -7 -36 -24 -74 -39 -200 -79 -235 -136 -269 -447 -16 -145 -21 -163
-39 -171 -11 -4 -75 -25 -142 -46 l-121 -39 -6 66 c-3 36 -9 188 -12 338 -5
227 -4 272 7 272 8 0 24 3 35 6 21 6 22 4 20 -108 l-1 -113 44 3 c28 2 50 -3
60 -12 28 -25 90 -25 115 0 9 8 16 31 16 50 0 34 5 41 63 87 l28 22 -13 72
c-6 40 -10 74 -7 77 3 4 246 70 271 75 4 0 12 -17 18 -40z m-785 11 c3 -5 32
-10 63 -10 81 0 95 -14 30 -28 -43 -10 -68 -9 -132 3 -44 9 -82 17 -84 20 -2
2 9 7 24 10 16 4 34 8 39 10 22 7 54 5 60 -5z m1160 -106 c54 -83 293 -129
539 -105 79 8 127 8 177 -1 69 -11 69 -11 116 20 27 18 73 44 103 58 30 14 82
39 115 56 64 31 244 93 251 85 6 -6 -56 -184 -90 -262 -31 -69 -134 -222 -211
-315 -113 -134 -141 -225 -152 -481 l-6 -146 -131 -7 c-139 -7 -200 0 -312 33
-54 16 -104 22 -229 24 -193 5 -212 10 -475 137 -200 96 -271 120 -363 120
l-59 0 6 38 c3 20 13 105 21 187 33 325 46 378 109 443 61 64 185 118 451 196
l110 33 7 -44 c3 -24 14 -55 23 -69z m-1323 82 c56 -14 124 -28 151 -31 46 -7
47 -8 47 -42 0 -28 -3 -33 -17 -29 -10 2 -74 17 -143 31 -69 15 -128 30 -131
33 -8 9 -21 62 -15 62 2 0 51 -11 108 -24z m2727 -41 c35 -112 63 -302 44
-293 -5 2 -52 27 -106 57 -74 40 -97 58 -93 70 61 193 77 222 128 230 4 1 16
-28 27 -64z m-2385 9 c13 -34 5 -42 -56 -57 -34 -9 -63 -15 -64 -14 -2 1 -4
15 -6 32 -3 28 0 30 47 41 68 16 72 16 79 -2z m-374 -52 c0 -4 -18 -95 -40
-202 -22 -107 -51 -249 -65 -315 -13 -66 -45 -219 -70 -340 -25 -121 -53 -256
-61 -300 -17 -87 -25 -103 -42 -82 -9 11 -7 36 8 108 12 52 25 114 30 139 9
46 81 390 126 605 14 66 36 174 50 240 14 66 27 128 30 138 5 17 34 25 34 9z
m68 -8 c20 -6 22 -11 17 -33 -8 -30 -185 -899 -218 -1071 l-23 -114 -37 -15
c-21 -7 -39 -12 -42 -10 -2 3 11 81 31 174 19 94 45 224 59 290 13 66 43 208
65 315 23 107 45 215 50 240 52 254 45 238 98 224z m116 -66 c3 -24 10 -317
16 -653 6 -335 13 -679 17 -763 l6 -153 -26 12 c-25 11 -27 17 -27 68 0 205
-20 1363 -25 1439 -6 87 -5 92 14 92 16 0 21 -8 25 -42z m120 -225 c4 -148 11
-432 16 -633 5 -201 11 -434 12 -519 l3 -153 -45 -18 c-25 -10 -48 -16 -51
-14 -4 2 -7 64 -8 136 -1 128 -14 715 -26 1215 l-6 242 43 4 c24 2 46 4 49 5
4 1 10 -118 13 -265z m1882 238 c-10 -16 -66 -33 -83 -26 -14 6 -8 11 27 20
57 16 62 17 56 6z m488 -147 l82 -46 -7 -56 c-21 -164 -77 -229 -257 -297 -53
-20 -127 -51 -165 -68 -37 -16 -70 -28 -72 -25 -3 3 3 30 15 59 19 52 36 76
185 269 36 47 80 113 98 147 17 35 33 63 35 63 2 0 41 -21 86 -46z m313 -220
c95 -15 176 -30 182 -33 10 -7 14 -30 12 -86 -1 -48 23 -34 -356 -208 l-240
-110 -140 28 c-204 41 -205 42 -205 71 0 21 10 30 55 50 l55 25 101 -20 c56
-12 114 -21 128 -21 14 1 103 36 196 79 l170 78 6 -31 6 -31 2 33 c1 32 5 35
103 80 56 26 95 48 86 50 -9 2 -51 -14 -94 -34 -65 -31 -90 -38 -139 -38 -33
1 -45 -1 -27 -3 37 -5 42 -18 10 -29 -12 -3 -88 -37 -169 -74 l-148 -67 -88
18 c-48 11 -92 20 -97 22 -5 2 36 20 93 41 123 47 182 84 221 141 17 24 30 46
30 49 0 2 5 17 10 31 8 22 15 26 38 21 15 -3 104 -17 199 -32z m-2367 -213 c0
-4 -26 -16 -57 -26 -32 -10 -95 -31 -140 -46 -55 -18 -83 -24 -83 -16 0 7 58
31 128 54 136 44 152 48 152 34z m-4 -53 c-3 -13 -6 -37 -6 -55 l0 -32 -126
-41 c-70 -22 -130 -40 -135 -40 -5 0 -9 24 -9 54 l0 54 73 22 c39 11 97 29
127 40 75 25 84 25 76 -2z m2464 -241 c0 -145 3 -304 6 -354 l7 -89 -38 -23
c-21 -12 -39 -20 -41 -19 -1 2 -4 165 -5 362 l-2 359 24 13 c50 28 49 32 49
-249z m-90 -132 c0 -195 -4 -355 -9 -355 -4 0 -22 5 -40 11 l-31 11 0 84 c0
83 0 84 30 99 28 14 30 19 30 71 0 53 -1 55 -35 70 l-35 14 0 154 0 154 33 21
c17 11 38 21 45 21 9 0 12 -78 12 -355z m-110 149 l-5 -156 -132 -63 -133 -64
0 162 0 162 116 50 c64 28 118 53 120 58 3 4 13 7 22 7 15 0 17 -14 12 -156z
m-2105 102 c49 -11 50 -12 62 -61 7 -27 11 -50 10 -52 -5 -4 -147 66 -178 88
-16 11 -27 25 -24 30 8 12 68 10 130 -5z m268 -110 c94 -47 191 -91 214 -98
l42 -13 6 -65 c3 -36 12 -87 19 -115 8 -27 16 -86 18 -130 l3 -80 -72 -14
c-67 -14 -77 -13 -160 7 -49 12 -106 22 -127 22 l-39 0 7 50 c5 34 2 58 -7 77
-8 16 -17 57 -21 93 -3 36 -21 129 -40 208 -18 78 -29 142 -24 142 4 0 86 -38
181 -84z m1420 60 l27 -6 0 -410 c0 -226 -3 -410 -7 -410 -13 0 -82 26 -89 32
-3 4 -2 187 2 407 6 361 9 401 23 397 9 -2 28 -7 44 -10z m112 -21 c6 -1 10
-137 10 -381 l0 -379 -40 -22 -40 -22 0 409 0 409 30 -6 c17 -2 35 -6 40 -8z
m-1177 -175 c22 0 22 0 22 -175 0 -96 -4 -175 -8 -175 -5 0 -16 6 -27 13 -14
11 -20 34 -26 98 -4 46 -10 93 -13 104 -2 11 -7 49 -10 84 -6 62 -5 63 17 57
12 -3 32 -6 45 -6z m102 -164 l0 -152 -37 -18 -36 -17 6 77 c4 42 7 121 7 174
l0 97 30 -5 30 -4 0 -152z m255 138 c59 -19 111 -27 198 -31 99 -5 117 -8 117
-22 0 -9 -7 -59 -15 -111 -9 -59 -11 -98 -5 -105 15 -18 15 -95 0 -140 -19
-61 -24 -69 -56 -84 -31 -15 -82 -9 -198 24 -33 9 -73 14 -91 11 l-30 -6 -13
66 c-12 63 -11 70 17 157 16 51 31 115 34 142 5 46 4 45 -9 -15 -24 -101 -26
-101 -40 -5 -16 119 -17 145 -1 145 6 0 48 -12 92 -26z m1175 -9 c0 -4 -310
-155 -317 -155 -2 0 -3 7 -1 17 6 31 318 167 318 138z m30 -50 l0 -35 -170
-85 c-93 -47 -172 -85 -175 -85 -3 0 -5 17 -5 39 l0 38 163 81 c89 44 168 81
175 81 7 1 12 -12 12 -34z m-1897 -300 c85 -22 155 -28 219 -17 66 10 68 8 68
-68 0 -45 -2 -49 -32 -60 -18 -6 -63 -15 -100 -20 -44 -5 -93 -20 -143 -44
-91 -44 -149 -56 -262 -56 -185 0 -207 69 -43 136 72 29 131 67 174 113 34 35
41 36 119 16z m779 -146 c51 -16 85 -20 124 -16 l53 5 7 -36 c6 -32 4 -39 -27
-67 -19 -16 -50 -54 -68 -82 -27 -43 -45 -59 -99 -85 -62 -31 -73 -33 -172
-33 -85 0 -111 4 -133 18 -49 32 -36 65 69 177 28 31 61 75 73 98 20 39 24 42
62 42 23 0 72 -10 111 -21z"/>
<path d="M5393 4973 c9 -2 25 -2 35 0 9 3 1 5 -18 5 -19 0 -27 -2 -17 -5z"/>
<path d="M5439 4903 c-8 -9 -34 -29 -58 -45 -25 -15 -40 -28 -34 -28 12 0 83
51 102 73 7 9 11 17 8 17 -2 0 -11 -8 -18 -17z"/>
<path d="M5617 4868 c15 -25 29 -45 31 -43 6 5 -26 61 -43 75 -9 8 -4 -7 12
-32z"/>
<path d="M5566 4865 c24 -39 24 -40 24 -28 0 6 -9 21 -21 34 l-20 24 17 -30z"/>
<path d="M5050 4831 c-19 -16 -43 -44 -53 -62 -13 -24 -14 -28 -3 -14 9 11 35
39 58 63 48 49 47 54 -2 13z"/>
<path d="M5591 4804 c0 -11 3 -14 6 -6 3 7 2 16 -1 19 -3 4 -6 -2 -5 -13z"/>
<path d="M5024 4768 c-30 -37 -54 -88 -54 -115 1 -10 9 4 20 30 10 27 30 64
45 83 33 43 26 45 -11 2z"/>
<path d="M5430 4694 c0 -12 38 -74 46 -74 3 0 -5 17 -17 38 -28 46 -29 47 -29
36z"/>
<path d="M5612 4545 c-15 -32 -15 -65 -1 -65 7 0 8 -12 4 -32 l-6 -33 15 25
c13 22 13 28 0 48 -14 21 -14 26 1 48 14 22 19 23 32 12 14 -11 15 -11 11 2
-8 26 -43 23 -56 -5z"/>
<path d="M5265 4504 c-47 -12 -76 -27 -67 -36 6 -6 29 -3 61 8 35 11 65 14 94
10 32 -5 39 -4 30 5 -12 12 -86 21 -118 13z"/>
<path d="M5250 4424 c0 -3 10 -14 22 -24 24 -19 50 -16 42 5 -4 9 4 15 23 18
15 2 2 5 -29 6 -32 0 -58 -2 -58 -5z"/>
<path d="M5251 4159 c-25 -5 -50 -11 -55 -14 -19 -9 101 4 126 14 l23 10 -25
-1 c-14 0 -45 -4 -69 -9z"/>
<path d="M5250 4110 c-22 -5 -28 -8 -15 -10 28 -3 48 0 60 11 10 10 7 10 -45
-1z"/>
<path d="M5563 4020 c-7 -30 -15 -66 -18 -80 -3 -14 4 0 15 30 11 30 19 66 18
80 -2 17 -7 7 -15 -30z"/>
<path d="M3898 4584 c-11 -22 -10 -28 7 -40 26 -19 42 -18 55 6 8 14 8 26 0
40 -15 28 -48 25 -62 -6z m48 -5 c10 -17 -13 -36 -27 -22 -12 12 -4 33 11 33
5 0 12 -5 16 -11z"/>
<path d="M5707 3476 c-8 -20 20 -43 35 -28 14 14 3 42 -16 42 -7 0 -16 -6 -19
-14z m33 -6 c0 -5 -4 -10 -10 -10 -5 0 -10 5 -10 10 0 6 5 10 10 10 6 0 10 -4
10 -10z"/>
<path d="M6126 3917 c-71 -73 -126 -209 -139 -342 -6 -57 1 -37 27 80 22 94
75 204 126 259 54 58 41 61 -14 3z"/>
<path d="M6392 3580 c0 -14 4 -38 8 -55 l8 -30 0 30 c0 17 -4 41 -8 55 l-8 25
0 -25z"/>
<path d="M5921 3546 c-1 -42 20 -131 44 -191 27 -62 26 -34 -1 43 -13 40 -29
98 -33 130 -7 48 -9 51 -10 18z"/>
<path d="M6412 3470 c0 -14 2 -19 5 -12 2 6 2 18 0 25 -3 6 -5 1 -5 -13z"/>
<path d="M4494 3281 c4 -6 16 -16 28 -22 15 -8 18 -8 14 0 -4 6 -16 16 -28 22
-15 8 -18 8 -14 0z"/>
<path d="M5485 2734 c-22 -9 -53 -19 -70 -23 -36 -8 -42 -30 -17 -61 15 -19
28 -24 63 -23 24 1 70 2 101 2 88 1 143 37 115 75 -11 16 -104 46 -137 45 -8
0 -33 -7 -55 -15z m137 -25 c27 -7 38 -15 38 -29 0 -26 -22 -30 -145 -27 -83
2 -100 5 -103 18 -2 10 5 19 18 22 11 3 20 1 20 -3 0 -5 -8 -11 -17 -13 -14
-4 -12 -5 5 -6 13 -1 22 5 22 14 0 8 15 22 33 30 32 14 59 13 129 -6z"/>
<path d="M5111 2697 c-35 -18 -50 -45 -31 -58 18 -12 139 -2 158 13 21 18 13
36 -19 47 -41 14 -78 14 -108 -2z m93 -11 c37 -13 38 -14 18 -25 -26 -14 -132
-15 -132 -1 0 9 53 39 70 39 3 1 23 -5 44 -13z"/>
<path d="M4983 2593 c-20 -4 -54 -33 -39 -33 4 0 0 -7 -9 -16 -27 -27 -1 -44
69 -44 49 0 69 5 98 25 24 16 35 30 32 40 -7 16 -7 17 -44 21 -14 2 -38 6 -55
8 -16 2 -40 2 -52 -1z m33 -29 c-9 -8 -16 -22 -16 -30 0 -9 -11 -14 -32 -14
-30 1 -31 2 -15 14 9 7 17 18 17 24 0 12 17 20 43 21 17 1 17 0 3 -15z"/>
<path d="M5428 2519 c-10 -5 -18 -16 -18 -23 0 -8 -7 -19 -15 -26 -12 -10 -13
-16 -3 -27 15 -19 119 -14 163 8 42 20 40 51 -5 66 -43 15 -99 16 -122 2z m77
-9 c3 -5 19 -10 35 -10 60 0 44 -28 -26 -48 -76 -22 -134 -11 -99 18 8 7 15
18 15 26 0 11 17 18 57 23 6 0 15 -3 18 -9z"/>
<path d="M5148 2498 c-75 -46 -58 -78 43 -78 58 0 71 3 81 20 7 11 18 20 24
20 18 0 38 30 28 40 -5 5 -38 12 -74 15 -56 5 -70 2 -102 -17z m92 -8 c6 -11
15 -18 20 -15 4 3 6 -4 3 -14 -3 -11 -13 -21 -22 -24 -25 -6 -121 4 -121 13 0
10 81 59 97 60 7 0 17 -9 23 -20z"/>
<path d="M4044 2571 c39 -26 48 -43 56 -110 l7 -56 2 46 c1 63 -16 107 -50
124 -40 21 -49 18 -15 -4z"/>
<path d="M3750 2560 c8 -5 22 -10 30 -10 13 0 13 1 0 10 -8 5 -22 10 -30 10
-13 0 -13 -1 0 -10z"/>
<path d="M4029 2369 c14 -56 27 -97 29 -91 4 13 -36 174 -47 185 -4 4 3 -38
18 -94z"/>
<path d="M5970 2420 c-30 -11 -68 -20 -85 -21 -17 -1 -23 -3 -13 -6 25 -6 122
15 144 32 23 18 22 17 -46 -5z"/>
<path d="M5755 2330 c56 -15 136 -27 127 -18 -9 9 -105 28 -136 27 -15 -1 -13
-3 9 -9z"/>
<path d="M4899 2231 c88 -82 166 -82 391 2 133 50 91 46 -55 -5 -177 -62 -249
-58 -346 18 -21 16 -17 10 10 -15z"/>
<path d="M4476 2170 c12 -46 93 -221 135 -294 48 -80 115 -171 149 -201 13
-11 1 9 -27 45 -71 92 -134 199 -191 320 -27 58 -54 116 -60 130 l-12 25 6
-25z"/>
<path d="M4670 2156 c43 -46 142 -94 207 -101 34 -4 42 -3 28 4 -11 5 -30 10
-43 10 -35 1 -143 54 -187 91 l-40 34 35 -38z"/>
<path d="M5101 2042 c-134 -136 -171 -166 -238 -192 -26 -11 -41 -19 -33 -19
30 0 89 27 138 62 49 37 271 267 256 267 -4 0 -59 -53 -123 -118z"/>
<path d="M4230 2005 c0 -65 2 -116 4 -114 8 7 9 219 2 226 -3 4 -6 -47 -6
-112z"/>
<path d="M5170 1959 c-31 -114 -84 -292 -110 -366 -30 -86 -32 -111 -4 -45 42
100 140 439 130 450 -3 2 -10 -16 -16 -39z"/>
<path d="M5632 1913 c33 -86 43 -104 33 -58 -8 34 -52 135 -58 135 -3 0 9 -35
25 -77z"/>
<path d="M5495 1875 c4 -76 41 -271 57 -295 7 -12 8 -11 4 5 -5 18 -47 251
-60 330 -2 17 -3 -1 -1 -40z"/>
<path d="M6195 2475 c9 -56 33 -156 38 -161 10 -11 -6 82 -24 136 -10 30 -17
42 -14 25z"/>
<path d="M6092 2193 c14 -16 32 -39 41 -53 19 -28 23 -20 6 13 -16 30 -50 67
-63 67 -5 0 2 -12 16 -27z"/>
<path d="M5873 1833 c20 -2 54 -2 75 0 20 2 3 4 -38 4 -41 0 -58 -2 -37 -4z"/>
<path d="M6313 1883 c9 -2 23 -2 30 0 6 3 -1 5 -18 5 -16 0 -22 -2 -12 -5z"/>
<path d="M6077 1673 c-11 -10 -8 -93 3 -93 6 0 10 23 10 50 0 51 -1 55 -13 43z"/>
<path d="M4591 1378 c27 -52 89 -135 125 -168 l38 -35 -37 42 c-20 24 -58 74
-83 113 -47 69 -66 91 -43 48z"/>
<path d="M4555 1106 c39 -13 84 -29 100 -37 30 -13 30 -13 -30 -19 l-60 -7 74
-1 c63 -2 72 0 62 12 -18 21 -155 76 -188 76 -19 -1 -7 -8 42 -24z"/>
<path d="M5361 1217 c-1 -27 61 -157 93 -194 45 -53 50 -38 7 20 -41 56 -65
99 -86 156 -8 20 -14 28 -14 18z"/>
<path d="M5225 984 c59 -10 130 -34 160 -55 l30 -21 -65 6 c-42 3 -58 2 -45
-4 11 -5 46 -9 79 -9 47 -1 56 1 47 12 -24 29 -126 70 -181 73 -30 1 -41 0
-25 -2z"/>
<path d="M4420 869 c11 -8 8 -9 -15 -5 -24 5 -27 4 -12 -4 22 -14 67 -3 46 11
-20 12 -37 11 -19 -2z"/>
<path d="M5181 726 c2 -2 22 -6 44 -9 28 -5 34 -4 20 3 -19 8 -73 14 -64 6z"/>
<path d="M5131 686 c2 -2 33 -6 69 -9 42 -4 58 -3 45 3 -19 8 -123 14 -114 6z"/>
</g>
</svg>
