<?xml version="1.0" standalone="no"?>
<!DOCTYPE svg PUBLIC "-//W3C//DTD SVG 20010904//EN"
 "http://www.w3.org/TR/2001/REC-SVG-20010904/DTD/svg10.dtd">
<svg version="1.0" xmlns="http://www.w3.org/2000/svg"
 width="1024.000000pt" height="559.000000pt" viewBox="0 0 1024.000000 559.000000"
 preserveAspectRatio="xMidYMid meet">
<metadata>
Created by potrace 1.16, written by Peter Selinger 2001-2019
</metadata>
<g transform="translate(0.000000,559.000000) scale(0.100000,-0.100000)"
fill="#000000" stroke="none">
<path d="M5065 5070 c-11 -5 -41 -9 -66 -9 -38 -1 -57 -8 -100 -40 -96 -70
-109 -82 -116 -109 -3 -15 -17 -41 -30 -59 -29 -38 -38 -87 -25 -136 8 -27 6
-46 -5 -79 -18 -53 -11 -91 27 -145 23 -32 29 -48 24 -72 -6 -26 0 -36 40 -75
25 -25 46 -52 46 -60 0 -23 -40 -66 -62 -66 -11 0 -46 -13 -77 -29 -31 -17
-99 -50 -152 -74 -173 -80 -210 -133 -278 -394 l-11 -41 -55 33 c-59 35 -166
60 -210 49 -15 -4 -25 -2 -25 5 0 6 5 11 10 11 12 0 13 40 1 59 -23 36 -190
-36 -274 -117 -41 -39 -117 -183 -117 -221 0 -13 -13 -34 -30 -49 -37 -32 -39
-66 -6 -88 14 -8 28 -30 31 -47 15 -69 74 -177 125 -227 50 -51 165 -114 220
-122 18 -2 26 -10 28 -29 3 -26 1 -27 -60 -33 -35 -3 -169 -13 -298 -21 -129
-9 -245 -18 -257 -20 -21 -5 -23 -11 -23 -74 0 -77 4 -83 88 -125 l52 -26 0
-889 0 -889 35 -31 c65 -56 84 -62 166 -48 l74 12 5 771 5 772 163 -81 c159
-79 179 -96 109 -97 -34 0 -47 -29 -47 -101 0 -40 5 -54 25 -73 l25 -23 0
-451 0 -450 38 -22 c22 -14 52 -22 74 -21 l37 1 0 -292 c-1 -327 -8 -293 79
-345 43 -25 45 -26 128 -14 46 7 91 14 99 17 13 5 15 95 15 680 0 371 3 674 6
674 3 0 19 -8 35 -17 l29 -17 0 -458 0 -458 45 -29 c25 -16 53 -27 63 -25 9 1
38 6 65 9 l47 6 0 468 0 468 61 7 c112 11 104 17 106 -78 1 -59 9 -106 27
-160 21 -63 26 -95 26 -181 l0 -104 33 -17 c17 -10 46 -17 64 -15 28 1 33 -2
44 -36 7 -21 14 -51 15 -68 1 -16 8 -50 17 -75 40 -113 44 -163 22 -268 -6
-28 0 -43 51 -120 106 -160 130 -176 279 -176 85 -1 107 2 148 22 26 13 52 33
58 44 16 29 3 81 -31 123 -17 21 -30 41 -30 44 0 3 -21 29 -48 57 -80 85 -141
172 -147 212 -3 20 -12 59 -20 86 -8 26 -15 58 -15 69 0 11 -6 28 -14 36 -22
26 -36 137 -36 293 0 80 -4 167 -10 194 -5 27 -16 77 -23 110 l-13 62 70 6
c39 4 92 9 119 13 l47 6 0 -427 0 -427 51 -22 50 -22 -6 -62 c-6 -61 -6 -62
25 -78 17 -9 73 -25 125 -36 52 -10 138 -35 191 -54 52 -19 132 -40 177 -46
73 -10 88 -9 137 7 65 22 88 54 71 94 -31 71 -47 85 -145 134 -72 36 -117 67
-167 115 l-69 66 4 135 c4 119 9 153 44 280 22 80 42 154 45 165 3 11 5 -102
6 -251 1 -300 -3 -282 70 -319 27 -14 47 -16 95 -10 107 12 96 -61 96 650 l0
625 23 4 c12 3 81 10 152 16 72 6 166 16 210 21 44 5 85 9 92 9 10 0 13 -157
13 -793 l0 -793 68 -33 68 -33 77 17 c43 9 79 21 82 25 3 5 7 414 9 910 3 496
6 904 9 906 2 3 34 7 71 11 36 3 71 12 76 19 17 19 8 145 -10 155 -8 4 -51 19
-95 32 -285 88 -354 111 -350 117 3 4 16 5 30 2 26 -5 59 14 49 29 -2 5 8 11
23 14 80 17 143 72 143 127 0 42 -36 86 -74 94 -50 9 -81 -1 -126 -42 -36 -33
-41 -34 -63 -22 -14 7 -43 23 -65 35 -31 18 -39 27 -35 43 7 26 -13 50 -43 50
-25 0 -49 -33 -40 -56 3 -9 -7 -20 -27 -30 -18 -9 -43 -25 -56 -35 -25 -20
-75 -24 -169 -12 -50 6 -52 7 -36 24 24 26 21 95 -6 152 -27 58 -40 67 -40 30
-1 -15 -9 -46 -20 -68 -23 -48 -25 -83 -5 -112 14 -20 13 -22 -15 -32 -17 -5
-30 -15 -30 -20 0 -7 -9 -7 -27 0 -18 7 -73 8 -152 3 -105 -6 -122 -5 -115 7
5 8 25 39 45 69 20 30 59 95 86 144 l51 90 45 1 c45 0 87 25 87 49 0 6 9 17
20 24 11 7 20 18 20 26 0 7 9 25 21 40 11 14 21 36 21 48 1 13 8 32 15 43 18
28 16 55 -7 80 -19 21 -19 21 14 77 19 30 37 69 40 86 7 32 -12 93 -40 123
-18 20 -7 31 48 48 40 13 96 7 140 -15 37 -19 38 -19 38 25 0 52 -12 81 -51
126 -45 51 -98 83 -170 101 -68 17 -112 13 -169 -16 -71 -37 -83 -57 -263
-442 -42 -91 -48 -98 -74 -98 -16 0 -34 -5 -40 -11 -8 -8 -13 -8 -17 0 -4 6
-22 11 -39 11 -62 0 -74 9 -106 79 -17 37 -31 82 -31 99 0 23 -7 36 -26 48
-14 10 -33 33 -44 53 -18 35 -131 151 -147 151 -5 0 -7 49 -6 110 2 74 -2 123
-12 149 -10 29 -11 49 -4 73 5 18 6 54 3 79 -4 27 -1 62 6 83 9 27 9 45 1 68
-9 25 -8 40 5 74 18 47 13 104 -11 124 -7 6 -17 25 -20 41 -4 16 -18 37 -32
47 -14 9 -35 26 -47 38 -31 31 -60 44 -98 44 -18 1 -44 7 -58 15 -28 16 -94
18 -125 5z m112 -25 c19 -8 50 -15 69 -15 23 0 44 -9 67 -30 19 -16 40 -30 46
-30 17 0 41 -44 39 -72 -2 -24 -3 -25 -23 -10 -11 8 -27 29 -36 45 -8 17 -26
37 -39 46 -23 14 -23 13 3 -13 33 -34 43 -68 28 -93 -9 -16 -10 -15 -11 8 0
15 -6 32 -14 38 -12 10 -13 8 -9 -8 8 -30 -5 -71 -22 -71 -8 0 -15 9 -15 19 0
11 -15 28 -35 40 -20 11 -40 31 -45 43 -8 19 -10 14 -8 -23 3 -41 1 -46 -16
-43 -22 4 -19 1 -44 42 l-19 33 -7 -32 c-6 -32 -31 -69 -47 -69 -4 0 -1 12 7
28 7 15 14 34 13 42 0 8 -5 2 -11 -15 -12 -33 -36 -65 -50 -65 -5 0 -4 9 2 19
13 25 13 31 0 31 -5 0 -10 -8 -10 -18 0 -10 -14 -31 -32 -48 -24 -22 -29 -25
-23 -9 4 11 9 36 11 55 l3 35 -8 -38 c-7 -34 -58 -103 -69 -92 -2 2 -13 -6
-23 -18 -18 -21 -18 -21 -19 -2 0 11 -5 27 -10 35 -8 11 -9 8 -4 -13 5 -22 0
-33 -24 -58 l-31 -31 -11 40 c-12 45 2 95 33 121 10 7 17 20 17 28 0 30 33 75
64 88 18 8 39 21 46 30 22 27 66 45 107 44 21 -1 49 4 63 9 35 15 55 14 97 -3z
m-11 -191 c41 -7 52 -1 34 21 -19 23 6 19 31 -6 15 -15 18 -24 9 -34 -32 -38
61 -18 97 21 l22 24 17 -26 c10 -14 25 -60 34 -103 l17 -76 -49 -22 c-43 -20
-48 -20 -49 -5 -1 9 -5 -1 -9 -23 -4 -22 -4 -47 0 -56 15 -27 40 -150 34 -161
-4 -5 -20 -7 -38 -4 -17 4 -40 7 -51 8 -26 2 -37 19 -23 35 6 7 6 13 1 13 -13
0 -76 -67 -71 -77 2 -4 -11 -23 -29 -41 l-33 -34 -11 26 c-7 14 -17 26 -23 27
-21 1 -86 90 -86 117 -1 15 -7 38 -14 52 -10 18 -11 30 -4 43 5 11 8 33 5 50
-3 21 3 41 20 66 24 35 25 58 8 103 -5 13 4 22 35 38 22 11 46 32 52 45 11 24
12 24 25 5 7 -10 29 -22 49 -26z m269 -5 c11 -21 14 -41 9 -62 l-7 -32 -9 30
c-13 42 -21 95 -14 95 3 0 13 -14 21 -31z m-441 -80 c7 -46 -15 -95 -39 -85
-11 4 -12 0 -5 -20 15 -39 12 -69 -9 -95 l-19 -24 -12 29 c-6 16 -9 35 -6 42
3 8 0 11 -9 8 -7 -3 -23 -1 -34 5 -37 20 -81 -26 -81 -85 0 -34 32 -95 71
-133 24 -24 30 -37 25 -56 -11 -45 -30 -31 -27 20 0 14 -1 16 -6 5 -4 -10 -10
-5 -20 20 -11 30 -13 31 -9 7 2 -21 0 -25 -10 -16 -8 6 -11 23 -7 42 4 25 -2
41 -26 74 -35 48 -40 96 -16 143 13 26 103 92 190 141 42 23 42 24 49 -22z
m430 -151 c-3 -13 -7 -24 -8 -25 -1 -1 -17 2 -36 7 -32 7 -32 8 -7 9 15 1 26
4 26 9 -3 16 2 22 17 22 11 0 14 -6 8 -22z m-538 -33 c21 -32 41 -162 27 -176
-16 -16 -40 0 -72 47 -34 51 -46 105 -31 134 15 28 56 26 76 -5z m470 -10 c-8
-23 24 -32 39 -11 11 15 13 14 19 -6 9 -36 7 -97 -6 -140 -13 -44 -32 -45 -34
-2 -1 16 -6 46 -12 67 -10 36 -9 37 11 32 l22 -5 -21 11 c-28 14 -48 56 -31
63 19 7 19 7 13 -9z m-386 -92 c0 -23 30 -74 66 -111 19 -19 34 -31 34 -26 0
22 40 -59 41 -84 1 -26 1 -26 9 5 12 52 36 79 94 108 47 23 58 25 78 14 13 -7
35 -12 49 -11 34 3 61 -28 70 -81 7 -34 7 -29 4 21 -3 34 -3 62 0 62 11 0 22
-71 16 -106 -4 -21 -3 -54 2 -72 6 -25 4 -39 -6 -56 -8 -12 -13 -34 -10 -48 3
-14 -1 -36 -8 -49 l-13 -24 -7 30 -7 30 -1 -36 c-1 -24 -9 -43 -25 -58 -30
-28 -46 -20 -47 22 -1 20 -3 24 -6 12 -7 -36 -25 -63 -43 -68 -23 -6 -37 3
-49 33 -10 24 -10 24 -10 3 -1 -13 -5 -23 -9 -23 -14 0 -32 24 -33 44 -1 17
-2 18 -6 4 -7 -26 -18 -22 -43 15 -12 17 -19 24 -16 15 8 -26 -10 -22 -33 8
-12 15 -21 41 -22 58 0 25 -2 27 -8 12 -11 -29 -24 -3 -24 48 0 36 -1 38 -9
17 -5 -14 -6 -31 -4 -38 3 -7 2 -13 -3 -13 -10 0 -21 35 -21 68 0 12 -4 22 -8
22 -13 0 -32 47 -32 80 0 16 9 44 20 62 11 18 20 38 20 43 -1 6 -8 -2 -16 -17
-20 -37 -24 -35 -14 7 4 20 4 32 -1 29 -5 -3 -8 15 -6 40 1 24 -1 42 -5 40
-13 -8 -9 21 4 34 9 9 15 5 25 -19 7 -17 13 -38 13 -46z m260 -73 c0 -10 -39
-34 -46 -28 -2 2 3 14 12 26 14 21 34 22 34 2z m-318 -85 c-3 -40 1 -64 16
-92 11 -21 23 -51 27 -66 3 -16 17 -39 30 -52 32 -29 71 -86 90 -131 8 -19 17
-34 20 -34 3 0 1 9 -5 19 -18 35 -11 42 21 24 17 -10 49 -28 72 -40 l42 -21
-28 -11 c-40 -15 -66 -14 -130 8 -94 33 -199 93 -254 146 -29 28 -53 55 -52
61 0 5 19 23 42 39 51 37 84 94 93 158 9 64 20 60 16 -8z m1563 -124 c33 -15
71 -40 84 -54 l24 -26 -37 6 c-37 6 -46 -3 -24 -25 9 -9 6 -12 -14 -12 -15 0
-30 -5 -34 -11 -4 -7 1 -9 15 -5 11 3 30 9 41 12 11 3 18 10 14 15 -3 6 6 8
21 6 33 -4 55 -31 55 -68 0 -27 0 -27 -37 -13 -54 19 -108 17 -155 -6 -40 -19
-42 -19 -61 -2 -35 31 -78 102 -84 138 -13 78 78 100 192 45z m-212 -19 c-6
-48 8 -76 85 -174 72 -90 82 -108 82 -147 0 -37 -36 -73 -98 -97 -37 -14 -46
-14 -52 -3 -35 61 -55 87 -63 82 -6 -4 -4 -11 5 -17 8 -6 23 -26 34 -44 22
-38 16 -46 -49 -56 -31 -5 -42 -3 -52 11 -8 10 -17 15 -21 11 -4 -4 -2 -14 5
-22 19 -23 -37 -28 -60 -5 -11 11 -16 19 -13 19 3 0 -2 7 -10 16 -9 8 -13 20
-10 26 4 7 2 8 -4 4 -7 -4 -12 -13 -12 -20 0 -17 35 -57 44 -49 3 3 6 1 6 -5
0 -7 -13 -12 -30 -12 -16 0 -30 5 -30 10 0 6 -4 10 -10 10 -5 0 -10 -7 -10
-15 0 -8 -7 -15 -16 -15 -9 0 -14 5 -11 13 29 68 191 406 207 433 16 26 75 83
87 84 0 0 -1 -17 -4 -38z m-1503 -12 c-23 -23 -24 -33 -9 -63 39 -71 264 -200
372 -213 46 -5 63 -3 102 16 25 12 48 20 51 17 7 -7 -32 -190 -56 -266 -11
-34 -41 -107 -66 -161 -37 -80 -53 -102 -78 -114 -44 -21 -177 -68 -181 -64
-8 9 -35 105 -55 198 -12 58 -29 128 -36 155 l-13 50 6 -45 c4 -36 50 -235 79
-346 5 -18 -1 -23 -40 -33 -63 -16 -89 -15 -82 4 10 26 19 261 10 252 -5 -5
-11 -66 -14 -137 -4 -71 -8 -131 -11 -133 -2 -2 -15 -7 -29 -10 l-26 -6 4 67
c2 37 10 94 18 127 9 33 17 94 19 135 l4 75 -10 -74 c-15 -109 -25 -115 -33
-19 -3 45 -13 106 -21 133 -8 28 -12 37 -9 20 10 -54 17 -425 7 -425 -5 0 -19
7 -31 16 -12 8 -46 23 -75 33 -43 15 -53 22 -55 44 -4 31 -17 43 -66 60 -32
11 -41 21 -61 70 -12 32 -34 72 -48 91 l-26 33 24 89 c60 231 88 266 296 369
162 81 167 83 139 55z m718 -87 c23 -20 52 -135 52 -206 0 -33 -5 -48 -20 -58
-16 -12 -114 -196 -141 -266 -7 -19 -16 -23 -52 -23 -27 0 -53 -7 -68 -18 -13
-10 -41 -31 -61 -46 l-38 -28 34 73 c19 41 44 103 56 139 23 72 60 239 60 276
0 18 5 24 22 24 12 0 30 7 40 17 10 9 20 14 23 11 3 -3 11 -45 18 -94 8 -58
13 -77 15 -56 2 18 -1 63 -7 99 -9 57 -8 69 9 100 11 21 21 30 25 23 4 -6 10
-71 14 -143 6 -131 6 -132 14 -60 7 74 -5 200 -23 234 -13 24 1 25 28 2z m118
-134 c14 -28 14 -34 -3 -75 -10 -24 -23 -44 -29 -44 -6 0 -14 29 -17 68 -4 38
-10 84 -13 103 l-7 34 27 -28 c14 -15 33 -42 42 -58z m64 -77 c0 -19 -46 -92
-59 -92 -18 0 -18 14 1 61 14 34 26 49 39 49 12 0 19 -7 19 -18z m-1673 -58
c2 -6 -19 -16 -47 -23 -71 -18 -158 -80 -208 -146 -39 -53 -60 -106 -79 -197
-6 -29 -11 -35 -22 -29 -12 8 -13 18 -2 68 33 151 138 271 282 323 56 20 70
21 76 4z m1701 -52 c26 -57 27 -62 7 -62 -8 0 -15 8 -15 19 0 10 -8 29 -19 42
-17 23 -18 49 -2 49 4 0 17 -22 29 -48z m-138 23 c-15 -18 -8 -29 31 -45 28
-12 33 -12 45 5 13 17 14 17 20 1 11 -28 -8 -37 -50 -25 -38 11 -86 49 -86 69
0 5 12 10 26 10 22 0 24 -2 14 -15z m51 -15 c5 0 9 -4 9 -10 0 -16 -26 -12
-41 7 -12 15 -12 16 4 10 10 -4 23 -7 28 -7z m-1661 -8 c0 -4 -20 -18 -45 -30
-67 -32 -130 -96 -165 -165 -16 -33 -30 -66 -30 -73 0 -7 -5 -16 -11 -20 -17
-10 -1 52 28 109 32 65 102 133 166 163 59 27 57 27 57 16z m2426 -44 c-21
-33 -47 -60 -69 -70 -22 -11 -39 -27 -43 -42 -3 -14 -18 -29 -35 -36 -15 -7
-31 -22 -35 -34 -3 -11 -12 -28 -19 -36 -16 -20 -26 -89 -16 -109 6 -12 -9
-45 -54 -119 -76 -123 -86 -136 -145 -174 -91 -58 -401 -134 -447 -110 -12 7
-25 7 -37 0 -10 -6 -41 -7 -74 -3 -99 11 -96 5 -45 103 25 48 55 95 67 104 11
10 26 23 31 28 6 6 20 21 33 32 12 12 22 27 22 33 0 7 9 20 20 30 22 20 26 50
8 61 -7 5 -4 10 11 15 28 11 37 36 22 61 -10 16 -3 35 45 126 31 59 59 107 62
107 74 -4 161 -20 174 -32 14 -13 21 -13 32 -3 9 6 68 16 133 22 126 10 282
46 342 76 53 28 54 27 17 -30z m-834 17 c16 -13 47 -30 68 -36 l39 -12 -51
-96 c-28 -53 -53 -98 -54 -100 -2 -2 -26 6 -53 18 -27 11 -59 21 -71 21 -14 0
-20 5 -17 13 16 39 101 217 105 217 2 0 17 -11 34 -25z m-1527 -5 c-4 -6 -2
-17 5 -25 6 -7 10 -19 9 -27 -3 -24 1 -38 11 -38 17 0 71 63 66 77 -3 7 -1 15
3 18 13 7 75 -16 84 -32 4 -7 17 -13 27 -13 24 0 82 -50 110 -95 20 -33 50
-117 50 -144 0 -11 -3 -11 -15 -1 -8 7 -15 18 -15 26 0 14 -18 29 -27 21 -6
-6 36 -70 49 -75 25 -11 -3 -20 -92 -32 -80 -11 -102 -11 -115 0 -39 32 2 130
54 130 15 0 31 -4 37 -9 15 -15 64 -1 64 19 0 30 -98 51 -120 25 -14 -17 -40
-20 -40 -5 0 6 3 10 8 10 11 0 43 61 36 71 -3 5 -1 9 5 9 5 0 12 -6 14 -12 3
-7 6 -3 6 9 1 12 -3 25 -9 28 -5 3 -10 1 -10 -4 0 -6 -7 -11 -15 -11 -12 0
-14 7 -9 26 5 19 4 25 -5 20 -15 -9 -14 -53 1 -58 7 -3 9 -12 4 -24 -4 -10 -7
-21 -7 -24 0 -3 -8 -13 -17 -23 -14 -16 -14 -19 0 -34 15 -14 15 -17 -4 -37
-15 -16 -19 -32 -16 -69 l3 -47 -88 0 c-64 0 -94 4 -112 16 -14 9 -36 14 -50
12 -29 -6 -61 23 -51 47 3 9 2 13 -4 10 -15 -9 -30 4 -23 20 6 18 34 20 50 4
8 -8 15 -5 24 12 14 28 35 46 67 59 13 6 20 15 16 21 -4 8 1 9 16 4 21 -7 22
-5 16 21 -4 16 -14 35 -23 42 -16 11 -16 12 0 12 11 0 17 8 17 24 0 31 -14 40
-38 27 -11 -6 -22 -7 -26 -4 -4 4 4 13 16 20 28 15 72 17 63 3z m75 -13 c0
-19 -48 -82 -51 -66 -5 33 -6 76 -2 82 2 4 15 7 29 7 18 0 24 -5 24 -23z
m-145 -19 c6 -1 16 1 24 3 8 2 17 -4 19 -14 3 -15 -1 -17 -21 -12 -47 12 -84
-24 -55 -53 10 -10 16 -8 30 10 l18 23 20 -24 c25 -29 25 -39 3 -37 -10 0 -17
-5 -15 -11 1 -7 -5 -13 -14 -13 -8 0 -30 -14 -47 -32 -24 -24 -39 -31 -63 -29
-25 2 -33 -2 -38 -21 -3 -13 0 -27 7 -33 16 -13 52 -69 39 -61 -6 3 -12 1 -14
-4 -5 -15 -108 8 -109 23 -2 17 1 47 7 87 l6 35 14 -25 c7 -14 13 -32 14 -40
0 -8 16 -28 36 -44 29 -23 34 -25 25 -8 -6 11 -20 24 -31 27 -13 4 -20 15 -20
30 0 13 -5 35 -11 49 -10 21 -8 32 15 71 31 52 113 118 136 109 8 -4 20 -6 25
-6z m0 -48 c-21 -23 -35 -26 -35 -6 0 15 14 24 39 25 11 1 10 -4 -4 -19z
m2453 3 c13 -25 5 -41 -28 -58 -37 -19 -40 -19 -40 4 0 11 -8 21 -17 24 -11 2
-3 7 20 11 21 5 37 14 37 22 0 20 18 17 28 -3z m-111 -65 c-3 -8 -6 -5 -6 6
-1 11 2 17 5 13 3 -3 4 -12 1 -19z m33 7 c0 -8 -4 -15 -10 -15 -5 0 -10 7 -10
15 0 8 5 15 10 15 6 0 10 -7 10 -15z m43 -65 c-10 -10 -38 -21 -62 -25 -38 -6
-43 -5 -38 9 3 8 2 18 -4 21 -5 4 -8 1 -7 -7 2 -7 -7 -14 -19 -16 -13 -2 -23
1 -23 7 0 19 44 38 89 40 25 1 52 6 60 11 24 13 27 -19 4 -40z m-2119 23 c4
-4 13 -8 19 -9 7 0 20 -2 30 -2 9 -1 17 -6 17 -11 0 -16 -43 -20 -63 -6 -10 7
-26 11 -33 8 -14 -5 -19 8 -7 20 9 9 28 9 37 0z m1187 -65 c1 -19 2 -20 6 -5
4 14 11 17 30 12 44 -11 71 -34 66 -55 -6 -24 -5 -24 -50 -5 -19 8 -63 15 -97
14 -60 -1 -60 -1 -31 -14 17 -8 41 -14 55 -15 39 -1 105 -42 108 -68 4 -26 -7
-27 -63 -8 -60 20 -129 31 -121 17 4 -5 23 -13 44 -17 47 -9 112 -34 112 -44
0 -17 -31 -31 -57 -27 -81 16 -103 17 -103 8 0 -5 21 -13 48 -16 71 -10 77
-12 62 -30 -8 -10 -31 -15 -64 -15 -28 0 -79 -9 -111 -21 -43 -15 -73 -19
-105 -15 -36 5 -52 1 -80 -15 -119 -74 -297 -170 -352 -192 -35 -14 -115 -36
-177 -48 -101 -20 -117 -21 -139 -8 -39 21 -59 65 -74 159 l-14 84 32 54 c18
30 36 67 39 82 5 23 15 32 50 43 40 14 49 14 109 -4 36 -11 68 -24 71 -29 9
-15 -14 -50 -33 -50 -24 0 -115 -44 -131 -63 -17 -21 -8 -22 22 -3 38 25 112
45 204 56 203 25 395 93 503 180 72 57 99 73 84 48 -4 -7 -3 -8 5 -4 6 4 9 11
6 16 -8 13 15 18 83 19 58 1 62 -1 63 -21z m761 -20 c-7 -7 -12 -8 -12 -2 0
14 12 26 19 19 2 -3 -1 -11 -7 -17z m148 11 c0 -17 -46 -39 -80 -39 -46 0 -68
14 -53 32 12 14 133 21 133 7z m-2640 -39 c0 -5 -4 -10 -10 -10 -5 0 -10 5
-10 10 0 6 5 10 10 10 6 0 10 -4 10 -10z m755 -4 c19 -8 35 -18 35 -21 0 -8
-45 -25 -105 -41 -27 -7 -41 -13 -29 -13 11 -1 43 6 69 14 53 15 70 13 36 -4
-61 -33 -176 -46 -416 -46 -247 0 -337 10 -431 50 -57 24 -36 26 35 5 34 -11
75 -19 89 -19 l27 2 -25 4 c-14 2 -56 13 -93 24 -56 17 -66 23 -56 35 10 12
13 12 23 -1 31 -41 258 -69 495 -62 245 7 346 30 311 71 -16 20 -9 20 35 2z
m1744 -23 c6 -10 11 -12 11 -5 0 14 80 17 80 3 0 -12 -26 -21 -64 -21 -30 0
-56 15 -56 32 0 14 19 8 29 -9z m-2499 -3 c0 -5 -2 -10 -4 -10 -3 0 -8 5 -11
10 -3 6 -1 10 4 10 6 0 11 -4 11 -10z m225 -20 c17 -7 15 -9 -12 -9 -18 -1
-33 4 -33 9 0 12 17 12 45 0z m-244 -108 c62 -184 247 -295 434 -263 36 6 72
14 80 17 9 4 15 0 15 -9 0 -33 -146 -55 -235 -37 -161 33 -303 169 -331 314
-10 58 15 42 37 -22z m39 8 c0 -32 83 -143 133 -177 66 -44 117 -58 215 -58
45 1 82 -2 82 -6 0 -4 -25 -11 -56 -15 -106 -13 -224 29 -303 108 -58 57 -136
220 -86 178 8 -7 15 -20 15 -30z m157 -19 c21 -23 32 -47 33 -66 0 -39 32 -99
55 -103 13 -3 15 1 10 18 -5 16 3 33 33 68 38 46 66 102 43 88 -6 -4 -11 -14
-11 -22 0 -8 -16 -31 -35 -51 -20 -20 -38 -47 -41 -60 -9 -36 -32 -10 -40 45
-3 26 -14 56 -24 67 -39 45 -40 44 143 44 95 0 181 3 190 7 15 5 17 -1 17 -55
0 -46 4 -61 14 -61 21 0 76 67 83 101 3 16 10 29 15 29 16 0 -1 -51 -34 -103
-56 -88 -153 -137 -272 -137 -94 0 -157 23 -222 82 -44 41 -94 118 -94 146 0
5 24 7 53 4 44 -4 57 -10 84 -41z m436 -24 c-42 -61 -55 -60 -51 4 3 53 3 54
38 59 46 7 50 -11 13 -63z m352 33 c3 -5 -1 -10 -10 -10 -9 0 -13 5 -10 10 3
6 8 10 10 10 2 0 7 -4 10 -10z m1744 -59 c13 -39 14 -81 4 -108 -6 -14 -9 -10
-13 17 -6 42 -24 46 -28 8 -2 -16 -8 -28 -14 -28 -13 0 -5 71 13 122 15 41 21
39 38 -11z m-1031 -39 c-37 -85 -121 -242 -131 -243 -52 -5 -117 32 -117 66 0
13 15 52 34 86 32 58 38 64 87 80 56 18 133 25 127 11z m1386 0 c9 -15 -6 -52
-20 -52 -14 0 -20 41 -7 53 9 9 21 9 27 -1z m-1602 -39 c-42 -101 -98 -159
-159 -165 -24 -2 -43 -1 -43 2 0 4 12 17 26 31 14 13 48 52 76 87 40 50 55 62
79 62 23 0 27 -3 21 -17z m1225 -40 c-3 -10 -5 -2 -5 17 0 19 2 27 5 18 2 -10
2 -26 0 -35z m-2077 -6 c0 -24 9 -70 19 -103 11 -32 19 -59 18 -60 -1 -1 -57
-5 -124 -9 -121 -7 -122 -7 -120 14 1 14 10 24 27 27 35 8 83 26 97 36 13 10
7 34 -14 59 -12 14 -7 20 34 47 27 16 51 31 56 31 4 1 7 -19 7 -42z m761 26
c-5 -10 -40 -48 -78 -84 l-68 -67 -77 -4 -77 -5 102 57 c56 31 124 71 151 88
58 37 60 38 47 15z m2035 -14 c8 -6 14 -30 14 -53 0 -59 -41 -95 -122 -110
-29 -5 -38 -12 -38 -26 0 -20 -14 -27 -24 -12 -9 14 24 52 45 52 29 0 97 37
109 59 17 32 11 60 -15 77 -48 31 -105 -11 -119 -89 -8 -42 -54 -100 -100
-125 -22 -12 -56 -16 -118 -16 -79 0 -92 3 -155 35 -148 77 -189 98 -218 111
l-30 13 37 3 c21 2 86 -9 145 -23 60 -14 148 -28 198 -30 l90 -4 -90 10 c-49
5 -124 17 -165 28 -41 10 -88 22 -104 25 -50 12 -14 25 39 15 28 -5 64 -7 81
-4 18 3 46 -1 67 -10 49 -20 206 -21 233 0 10 8 29 15 40 15 12 0 35 13 50 29
16 15 38 33 49 40 23 13 80 8 101 -10z m-286 -16 l24 -17 -24 -7 c-14 -4 -47
-7 -75 -7 -27 0 -61 3 -75 7 l-24 7 24 17 c15 11 43 17 75 17 32 0 60 -6 75
-17z m-874 -52 c-21 -21 -53 -47 -71 -57 -29 -15 -39 -16 -75 -5 l-42 12 78
28 c44 15 93 35 109 44 43 23 43 21 1 -22z m1129 29 c17 -28 -18 -65 -82 -84
-21 -7 -21 -5 -13 25 5 17 17 40 26 50 18 20 59 25 69 9z m-2895 -10 c0 -5 -5
-10 -11 -10 -5 0 -7 5 -4 10 3 6 8 10 11 10 2 0 4 -4 4 -10z m2547 -8 c34 -2
77 1 94 7 21 7 36 8 42 2 16 -16 -73 -34 -138 -28 -68 7 -95 15 -95 29 0 6 7
7 18 3 9 -5 45 -10 79 -13z m-320 2 c-3 -3 -12 -4 -19 -1 -8 3 -5 6 6 6 11 1
17 -2 13 -5z m-87 -50 c8 -7 33 -17 55 -23 22 -6 58 -22 80 -35 86 -53 151
-87 173 -93 32 -8 27 -25 -15 -48 -80 -42 -39 -86 87 -93 96 -6 162 4 190 26
27 22 19 45 -26 71 -19 11 -34 24 -34 30 0 23 39 16 187 -31 87 -27 182 -57
211 -65 63 -19 67 -33 10 -33 -24 0 -117 -7 -208 -15 -91 -8 -320 -28 -510
-45 -190 -16 -367 -32 -395 -35 -27 -3 -178 -16 -335 -30 -157 -13 -339 -29
-405 -35 -66 -6 -195 -17 -287 -25 -235 -21 -474 -42 -676 -60 l-173 -15 -72
34 c-68 31 -259 121 -462 216 -49 23 -130 60 -180 82 -142 63 -142 63 77 77
392 26 384 26 370 9 -7 -9 -29 -18 -50 -22 -52 -8 -100 -40 -108 -72 -16 -63
42 -86 216 -87 131 0 204 14 223 44 27 43 -28 103 -106 115 -22 4 -42 14 -48
25 -8 16 -6 19 18 19 15 1 75 5 133 10 91 9 109 8 136 -7 30 -15 38 -15 165
11 75 16 196 32 274 37 77 4 175 11 218 15 42 4 77 4 77 0 0 -4 -11 -23 -24
-43 l-25 -36 -83 -1 c-67 -1 -90 -6 -119 -23 -33 -21 -38 -21 -84 -8 -64 20
-97 19 -224 -5 -58 -11 -122 -22 -142 -25 -29 -4 -38 -11 -43 -31 -4 -13 -18
-30 -32 -36 -14 -7 -23 -18 -22 -27 3 -15 186 -137 273 -183 38 -20 45 -20
150 -9 60 7 137 17 170 23 33 6 104 10 159 9 72 0 104 4 119 14 13 9 44 15 77
15 125 0 362 23 367 36 3 8 -11 28 -30 46 -18 18 -36 38 -38 44 -4 11 -361
154 -385 154 -12 0 -12 4 -4 20 8 14 21 20 45 20 28 0 37 6 49 29 l15 28 143
-4 c99 -3 165 0 212 10 63 13 70 13 104 -5 52 -27 118 -20 167 18 36 27 47 30
174 39 136 10 189 5 221 -21z m-1220 -4 c0 -11 -7 -20 -15 -20 -13 0 -13 3 -3
20 7 11 14 20 15 20 2 0 3 -9 3 -20z m-1020 -55 c0 -10 -11 -15 -35 -15 -24 0
-35 5 -35 15 0 10 11 15 35 15 24 0 35 -5 35 -15z m1085 -44 c-8 -32 -23 -51
-41 -51 -20 0 -17 17 7 56 23 38 44 35 34 -5z m-1089 -8 c3 -10 11 -30 19 -45
16 -32 7 -38 -59 -38 -53 0 -58 5 -40 38 8 15 14 35 14 45 0 12 8 17 30 17 21
0 32 -6 36 -17z m1026 -60 c15 -13 22 -14 48 -3 42 17 77 10 231 -51 154 -60
177 -74 104 -65 -193 25 -267 18 -323 -29 l-28 -24 -30 20 c-16 11 -75 45
-132 75 -83 45 -101 59 -92 70 29 34 186 39 222 7z m-223 -48 c47 -23 104 -54
127 -66 l41 -24 -61 -1 c-34 0 -93 -10 -133 -22 -143 -44 -144 -44 -287 38
-69 39 -128 76 -132 81 -3 5 12 9 33 9 21 0 56 5 78 11 140 39 217 33 334 -26z
m1894 44 c-21 -6 -45 -6 -65 0 -29 8 -25 9 32 9 57 0 61 -1 33 -9z m-3158
-109 c110 -51 254 -118 320 -149 66 -31 159 -75 207 -96 l86 -40 7 -53 c4 -30
5 -56 2 -58 -2 -3 -58 21 -123 52 -65 31 -168 80 -229 109 -60 29 -193 92
-295 140 -102 48 -191 92 -197 97 -7 6 -13 32 -13 60 0 43 2 48 18 39 9 -5
107 -50 217 -101z m351 95 c11 -10 36 -15 80 -15 48 0 66 4 70 15 8 19 24 19
74 -1 67 -27 50 -40 -70 -54 -68 -8 -175 -1 -240 15 -23 6 -22 4 5 -12 43 -25
275 -26 322 0 32 17 50 10 40 -17 -17 -44 -329 -50 -395 -8 -22 14 6 59 47 76
46 19 49 19 67 1z m2878 -23 c20 -12 36 -26 36 -31 0 -31 -215 -41 -268 -12
-36 19 -15 31 25 14 44 -18 195 -15 214 4 10 10 4 10 -27 1 -41 -11 -172 -7
-193 7 -9 5 -5 12 14 24 41 24 153 20 199 -7z m-2312 -82 c68 -38 129 -73 137
-78 12 -6 12 -12 1 -32 -7 -14 -14 -27 -16 -29 -3 -3 -84 45 -206 122 -27 17
-46 32 -43 35 2 3 15 -2 27 -10 62 -39 98 -59 98 -55 0 14 -116 76 -132 71
-16 -5 -17 -3 -7 20 7 14 14 26 15 26 2 0 58 -31 126 -70z m-131 -4 c20 -13
84 -54 143 -90 l107 -66 160 21 c88 11 176 19 197 17 23 -2 -3 -8 -68 -15 -58
-7 -149 -18 -202 -24 l-96 -12 -129 81 c-70 44 -137 88 -148 96 -33 25 -3 18
36 -8z m1176 -25 c7 -9 13 -19 13 -22 0 -3 -69 -9 -152 -13 -84 -4 -174 -11
-200 -15 -30 -5 -54 -4 -67 4 l-22 11 23 21 c42 40 65 43 233 37 131 -5 162
-9 172 -23z m1763 -35 l0 -54 -42 -5 c-24 -4 -79 -9 -123 -12 -44 -4 -172 -15
-285 -26 -113 -10 -308 -27 -435 -38 -126 -11 -277 -25 -335 -31 -171 -16
-413 -38 -605 -55 -99 -8 -200 -17 -225 -20 -25 -3 -124 -12 -220 -20 -96 -8
-245 -21 -330 -29 -85 -8 -216 -20 -290 -26 -74 -6 -147 -13 -162 -16 l-28 -6
0 59 0 60 143 12 c78 6 210 18 292 26 83 8 231 21 330 30 99 8 230 20 290 25
61 6 191 17 290 25 99 8 257 22 350 30 94 9 222 20 285 25 63 6 241 22 395 36
154 14 332 30 395 35 63 5 149 14 190 18 131 14 120 18 120 -43z m-2286 24
c21 -4 45 -15 54 -23 13 -13 12 -16 -8 -27 -16 -9 -25 -9 -33 -1 -6 6 -41 10
-81 9 l-71 -2 70 -5 70 -6 -150 -18 c-82 -10 -170 -20 -195 -24 l-45 -6 16 24
c13 19 40 30 145 56 140 34 169 37 228 23z m561 -35 c-5 -2 -84 -8 -175 -14
-91 -6 -183 -14 -205 -17 -22 -4 -37 -3 -32 2 9 9 243 31 347 32 41 0 71 -1
65 -3z m-2013 -57 c-1 -5 -2 -404 -2 -889 l0 -880 -40 28 -40 28 0 883 0 883
42 -23 c23 -13 41 -26 40 -30z m1568 32 c0 -5 -14 -10 -31 -10 -17 0 -28 4
-24 10 3 6 17 10 31 10 13 0 24 -4 24 -10z m11 -22 c-10 -11 -82 -12 -109 -1
-16 6 -4 9 47 8 38 0 66 -3 62 -7z m-1486 -209 l55 -31 -3 -758 c-1 -490 -6
-762 -12 -768 -5 -5 -31 -12 -57 -15 l-48 -5 2 892 c1 490 4 852 5 803 l4 -87
54 -31z m197 72 c124 -59 243 -116 266 -126 l42 -19 0 -68 c0 -37 -4 -68 -9
-68 -5 0 -125 56 -265 125 l-256 125 0 47 c0 27 -3 58 -6 71 -4 12 -4 22 -1
22 3 0 106 -49 229 -109z m3288 -800 l0 -899 -32 -11 c-18 -5 -50 -13 -71 -17
l-37 -6 2 908 3 909 60 6 c33 3 63 6 68 7 4 1 7 -403 7 -897z m-200 805 c0
-84 6 -79 -110 -91 -176 -17 -390 -37 -490 -45 -137 -13 -370 -35 -570 -56
-80 -8 -345 -32 -590 -55 -245 -22 -483 -44 -530 -49 -47 -6 -104 -10 -127
-10 l-43 0 0 80 c0 57 4 80 13 80 6 0 84 7 172 15 147 14 721 65 1110 100 478
42 882 80 1020 94 44 5 95 9 113 10 l32 1 0 -74z m40 -826 c0 -495 -3 -900 -7
-900 -5 0 -26 11 -48 23 l-40 23 0 784 0 785 35 5 35 5 3 88 c1 48 7 87 12 87
6 0 10 -331 10 -900z m-2530 -275 l0 -944 -37 -7 c-21 -3 -55 -10 -75 -14 -35
-7 -38 -6 -38 14 1 11 -1 440 -3 953 l-4 932 26 4 c14 2 50 5 79 6 l52 1 0
-945z m-180 -17 l0 -949 -45 31 -45 31 0 919 0 918 45 0 45 -1 0 -949z m2070
333 l0 -618 -37 -7 c-81 -13 -73 -80 -73 613 l0 620 23 4 c12 2 37 5 55 6 l32
1 0 -619z m-130 -6 c0 -656 2 -634 -48 -599 -22 15 -22 15 -22 352 0 342 4
395 44 562 26 108 18 178 -26 242 -25 36 -23 46 10 51 15 2 30 5 35 6 4 0 7
-276 7 -614z m-100 566 c14 -10 33 -33 43 -52 25 -47 18 -160 -16 -257 -14
-40 -21 -70 -15 -66 7 5 9 -1 5 -17 -3 -13 -9 -44 -13 -69 -6 -42 -23 -109
-106 -425 -32 -119 -33 -121 -70 -138 -40 -20 -72 -17 -135 8 l-32 13 1 94 c0
51 -7 143 -16 203 -21 134 -16 186 31 327 25 75 33 115 29 134 -5 20 -10 24
-15 15 -7 -11 -16 -11 -45 -1 l-36 12 19 26 c37 51 159 170 192 188 72 37 130
39 179 5z m-336 -116 c-221 -226 -300 -240 -452 -79 -39 41 -87 81 -106 89
-84 36 -202 3 -267 -73 -19 -22 -48 -75 -64 -117 -30 -79 -109 -185 -126 -168
-5 5 -24 40 -42 78 -40 81 -56 97 -115 114 -24 7 -61 28 -83 48 -33 30 -39 42
-39 74 0 34 3 39 23 39 12 0 90 7 172 15 206 20 197 21 157 -16 -36 -34 -86
-108 -78 -116 2 -3 11 8 19 24 21 39 110 121 139 127 37 8 225 26 266 26 29 0
49 -10 92 -45 83 -69 152 -99 230 -102 l65 -2 -50 9 c-27 4 -69 15 -93 24 -53
19 -182 104 -182 120 0 11 44 6 70 -9 33 -19 156 -19 195 1 17 8 21 12 10 8
-66 -19 -200 -15 -179 6 5 5 67 13 138 19 71 6 154 14 185 17 l56 5 -30 -25
c-46 -39 -141 -87 -193 -97 l-47 -8 51 4 c65 5 130 35 190 88 44 39 53 42 118
48 39 3 78 6 86 7 9 1 -44 -59 -116 -133z m-1642 23 c13 -11 32 -58 23 -58 -1
0 -31 13 -66 29 l-64 29 40 4 c22 3 43 5 46 6 3 1 12 -4 21 -10z m24 -101 c3
-11 3 -39 -1 -63 l-6 -44 -80 40 -79 40 0 59 0 59 80 -36 c48 -22 82 -44 86
-55z m1078 44 c45 -41 57 -82 57 -190 0 -70 7 -123 26 -196 21 -83 27 -137 33
-311 5 -116 13 -230 20 -253 15 -55 8 -71 -29 -71 -16 0 -37 -7 -46 -16 -12
-12 -26 -15 -61 -9 l-45 6 -37 82 c-20 45 -62 132 -93 193 -81 156 -90 192
-96 372 -5 133 -8 156 -25 175 -11 12 -16 15 -12 7 7 -13 5 -13 -9 -1 -22 18
-21 30 7 93 61 137 223 199 310 119z m-667 -140 c23 -11 51 -21 62 -21 11 0
25 -9 31 -19 19 -37 -23 -34 -104 6 -69 34 -76 40 -76 67 l0 29 23 -20 c12
-11 41 -30 64 -42z m879 -30 c25 -6 62 -9 82 -5 47 9 116 40 132 59 17 20 110
17 110 -4 0 -8 -99 -71 -160 -102 -49 -25 -138 -31 -237 -15 l-53 9 0 58 c0
31 -3 66 -7 76 -4 11 12 1 40 -23 29 -26 65 -46 93 -53z m-1375 29 c17 -10 19
-23 19 -149 0 -76 -3 -273 -7 -438 -6 -289 -7 -301 -25 -290 -17 11 -18 35
-18 449 0 241 3 438 6 438 3 0 14 -5 25 -10z m1693 -69 l-17 -49 -81 -11
c-164 -22 -330 -39 -338 -35 -4 3 -8 14 -8 26 0 19 3 20 58 12 112 -17 176
-10 255 29 40 20 88 47 107 60 19 14 37 23 39 21 2 -1 -5 -25 -15 -53z m-1631
37 c15 -12 17 -54 19 -430 2 -229 1 -418 -2 -421 -3 -3 -14 -7 -25 -9 -20 -3
-20 3 -20 434 0 241 3 438 6 438 3 0 13 -6 22 -12z m487 -125 c0 -40 -2 -73
-4 -73 -2 0 -33 14 -70 30 l-66 30 0 74 0 74 70 -31 70 -32 0 -72z m75 37 c40
-89 83 -106 184 -73 50 16 75 13 54 -8 -11 -11 -280 -42 -294 -33 -5 3 -9 34
-9 69 0 50 4 66 18 74 26 15 27 14 47 -29z m236 -8 c7 -19 2 -22 -49 -37 -31
-9 -65 -18 -74 -21 -26 -8 -22 10 5 25 12 7 33 27 47 46 22 30 27 32 44 21 11
-7 23 -22 27 -34z m796 -51 c-17 -83 -17 -133 -3 -223 16 -101 22 -299 9 -312
-7 -7 -12 -70 -13 -161 0 -38 -39 -155 -51 -155 -5 0 -9 177 -9 434 l0 435 23
4 c48 9 50 8 44 -22z m-87 -417 l0 -436 -22 14 -23 15 -3 422 -2 421 25 0 25
0 0 -436z m-1029 336 c18 -10 19 -26 19 -455 0 -371 -2 -445 -14 -445 -35 0
-37 21 -39 469 -1 243 2 441 6 441 5 0 17 -5 28 -10z m139 -450 c0 -352 -3
-451 -12 -455 -7 -2 -30 -6 -50 -10 l-38 -6 0 461 0 460 50 0 50 0 0 -450z
m300 -6 c0 -47 -7 -59 -27 -43 -9 8 -13 35 -12 88 l1 76 19 -40 c10 -22 19
-58 19 -81z m45 -42 c6 -19 4 -23 -11 -20 -12 2 -17 13 -18 35 -1 25 2 29 10
20 7 -7 15 -23 19 -35z m793 -12 c23 0 32 -5 32 -16 0 -14 -8 -16 -52 -10 -65
9 -118 31 -118 49 0 11 10 11 53 -4 28 -10 67 -18 85 -19z m112 25 c0 -3 -11
-10 -25 -15 -23 -9 -25 -14 -25 -80 0 -67 22 -151 37 -137 3 4 0 14 -8 23 -17
21 -19 175 -2 181 8 3 10 -17 6 -75 l-6 -78 62 -66 c34 -37 84 -81 112 -99 27
-17 48 -34 45 -36 -2 -3 -16 3 -30 12 -14 10 -26 15 -26 12 0 -3 15 -14 33
-26 17 -11 27 -21 21 -21 -23 0 -132 81 -192 143 l-62 65 0 94 c0 52 3 98 7
101 8 8 53 9 53 2z m-117 -80 c23 -4 37 -11 34 -18 -2 -7 -6 -12 -8 -11 -2 0
-28 4 -58 8 -63 8 -91 21 -91 41 0 12 6 12 43 0 23 -7 59 -16 80 -20z m-5 -50
c26 -4 42 -12 42 -21 0 -17 -2 -17 -71 -4 -71 13 -109 29 -109 46 0 11 8 11
48 -1 26 -7 66 -16 90 -20z m-468 -19 c0 -16 -18 -31 -27 -22 -8 8 5 36 17 36
5 0 10 -6 10 -14z m-37 -82 c21 -80 88 -222 129 -275 33 -43 35 -59 8 -59 -21
0 -55 46 -112 151 -40 73 -84 219 -74 245 12 31 31 7 49 -62z m441 61 c27 -8
61 -15 75 -15 19 -1 34 -12 53 -40 l28 -40 -24 -23 c-30 -30 -66 -99 -66 -127
0 -11 -2 -20 -4 -20 -21 0 -37 18 -46 49 -5 20 -28 67 -50 103 -40 67 -45 83
-34 112 7 19 7 19 68 1z m-548 -15 c24 0 34 -5 34 -15 0 -28 -113 -17 -124 12
-5 13 -1 14 25 9 17 -3 47 -6 65 -6z m140 -37 c-10 -10 -19 5 -10 18 6 11 8
11 12 0 2 -7 1 -15 -2 -18z m384 -118 c10 -22 21 -51 25 -65 12 -42 -11 -9
-25 35 -7 22 -26 59 -41 83 -16 24 -29 48 -29 54 0 16 50 -60 70 -107z m-480
90 c0 -11 -12 -15 -44 -15 -26 0 -48 6 -56 15 -11 13 -5 15 44 15 43 0 56 -3
56 -15z m120 -9 c0 -8 -4 -17 -9 -20 -10 -7 -23 19 -14 28 11 11 23 6 23 -8z
m335 -101 l25 -55 -26 0 c-49 0 -64 16 -64 70 0 26 3 56 6 65 6 14 8 13 21 -4
8 -12 25 -46 38 -76z m-442 61 c4 -10 -4 -15 -24 -18 -44 -7 -89 3 -89 18 0
20 106 20 113 0z m680 8 c3 -4 -10 -25 -29 -48 -19 -22 -38 -53 -41 -69 -6
-31 -18 -43 -28 -27 -25 40 67 175 98 144z m-553 -54 c18 -43 7 -47 -13 -5 -9
19 -13 35 -8 35 5 0 14 -14 21 -30z m581 -14 c-11 -12 -28 -40 -38 -63 -14
-29 -23 -39 -32 -34 -20 13 -4 67 31 107 24 28 33 32 45 23 12 -10 11 -15 -6
-33z m-681 -16 c11 -27 11 -32 -6 -45 -11 -8 -22 -15 -27 -15 -4 0 -21 -21
-37 -47 l-30 -47 0 55 c-1 29 -7 65 -15 79 -25 44 -20 50 44 50 56 0 59 -1 71
-30z m732 14 c3 -3 -5 -17 -18 -31 -13 -15 -28 -39 -32 -55 -8 -33 -28 -33
-25 0 4 49 55 107 75 86z m41 -31 c4 -3 -2 -16 -13 -28 -12 -13 -24 -35 -29
-51 -9 -36 -25 -38 -29 -3 -2 17 6 37 23 58 27 32 36 36 48 24z m-625 -39
c-10 -10 -28 6 -28 24 0 15 1 15 17 -1 9 -9 14 -19 11 -23z m772 27 c0 -6 12
-16 28 -23 15 -7 27 -18 27 -25 0 -6 3 -15 8 -19 20 -21 1 -17 -57 10 -55 27
-62 33 -52 48 11 19 46 25 46 9z m-450 -46 c61 -7 192 -47 216 -66 6 -5 57
-18 113 -29 112 -23 164 -17 202 21 15 15 19 16 19 4 0 -8 -15 -24 -32 -35
-60 -36 -212 -19 -342 38 -27 12 -87 29 -135 38 -113 22 -164 38 -169 52 -2 8
6 8 30 -2 18 -8 62 -17 98 -21z m373 8 c4 -7 17 -13 28 -13 15 0 19 -6 17 -22
-3 -21 1 -23 37 -21 l40 2 -28 -24 c-26 -23 -29 -24 -75 -10 -26 8 -62 15 -79
15 -29 0 -33 3 -33 25 0 34 43 77 67 68 10 -4 22 -12 26 -20z m-805 -1 c2 -6
-10 -18 -26 -26 -17 -9 -44 -34 -61 -58 -25 -34 -31 -38 -31 -21 0 32 82 126
104 120 6 -2 11 -8 14 -15z m-148 -44 c0 -16 -4 -28 -10 -28 -5 0 -10 19 -10
43 0 31 3 38 10 27 5 -8 10 -27 10 -42z m301 16 c11 -14 10 -15 -11 -12 -13 1
-25 9 -28 16 -5 17 23 15 39 -4z m739 -15 c0 -5 -9 -9 -20 -9 -13 0 -18 5 -14
14 6 15 34 11 34 -5z m-866 -4 c4 -10 -7 -21 -33 -35 -22 -11 -51 -34 -65 -52
-31 -40 -34 -19 -5 29 19 31 72 73 90 73 4 0 9 -7 13 -15z m166 -30 c10 -12 9
-15 -8 -15 -11 0 -25 7 -32 15 -10 12 -9 15 8 15 11 0 25 -7 32 -15z m-321
-72 c6 -13 10 -23 8 -23 -7 0 -57 75 -57 84 0 11 33 -31 49 -61z m184 53 c4
-9 -8 -20 -33 -31 -21 -10 -51 -30 -66 -46 -15 -15 -31 -26 -36 -23 -13 9 48
79 84 97 41 20 45 20 51 3z m194 -42 c16 -25 16 -27 -8 -45 -19 -14 -21 -21
-12 -30 10 -10 17 -10 35 0 l23 12 -22 -5 c-28 -5 -40 9 -16 18 10 4 24 -1 37
-13 16 -17 17 -22 6 -35 -28 -35 -80 -10 -93 45 -4 14 -14 26 -22 26 -9 0 -14
-3 -12 -6 19 -34 36 -84 32 -91 -14 -22 -35 -7 -55 37 -11 25 -23 44 -26 40
-3 -3 -1 -14 5 -25 13 -24 14 -33 4 -30 -9 3 -13 -5 -13 -23 0 -8 6 -7 17 2
14 12 16 12 11 -1 -10 -31 -42 -16 -58 27 -8 23 -19 45 -24 50 -5 5 -6 0 -2
-12 4 -11 10 -32 13 -47 9 -43 -23 -36 -42 9 -8 20 -18 34 -21 30 -3 -3 0 -16
6 -29 10 -19 10 -21 -1 -10 -18 17 -34 15 -19 -3 19 -22 -4 -18 -25 5 -22 24
-16 41 27 73 42 31 74 39 104 25 20 -10 29 -8 52 10 38 30 77 28 99 -4z m-191
-170 c71 -8 178 2 216 22 38 20 48 11 14 -11 -76 -50 -254 -46 -328 7 -41 29
-34 41 7 13 21 -14 59 -27 91 -31z"/>
<path d="M5110 5026 c0 -2 7 -9 15 -16 13 -11 14 -10 9 4 -5 14 -24 23 -24 12z"/>
<path d="M5025 5003 c11 -3 26 -12 33 -21 6 -9 12 -11 12 -6 0 17 -23 34 -44
33 -21 -1 -21 -1 -1 -6z"/>
<path d="M5211 5007 c2 -1 15 -11 29 -22 l25 -20 -19 23 c-11 12 -24 22 -29
22 -6 0 -8 -1 -6 -3z"/>
<path d="M4965 4968 c11 -6 26 -18 33 -26 6 -9 12 -11 12 -4 0 12 -39 42 -55
42 -5 0 -1 -6 10 -12z"/>
<path d="M5131 4929 c-1 -8 6 -24 15 -35 15 -19 15 -19 6 1 -5 11 -12 27 -15
35 -5 13 -6 13 -6 -1z"/>
<path d="M5227 4929 c7 -7 15 -10 18 -7 3 3 -2 9 -12 12 -14 6 -15 5 -6 -5z"/>
<path d="M4836 4915 c-9 -26 -7 -32 5 -12 6 10 9 21 6 23 -2 3 -7 -2 -11 -11z"/>
<path d="M5376 4917 c3 -10 9 -15 12 -12 3 3 0 11 -7 18 -10 9 -11 8 -5 -6z"/>
<path d="M5272 4875 c0 -16 2 -22 5 -12 2 9 2 23 0 30 -3 6 -5 -1 -5 -18z"/>
<path d="M4901 4874 c0 -11 3 -14 6 -6 3 7 2 16 -1 19 -3 4 -6 -2 -5 -13z"/>
<path d="M4866 4825 c8 -37 14 -45 14 -19 0 10 -5 26 -10 34 -8 11 -9 7 -4
-15z"/>
<path d="M4785 4819 c-4 -6 -5 -12 -2 -15 2 -3 7 2 10 11 7 17 1 20 -8 4z"/>
<path d="M5238 4753 c7 -3 16 -2 19 1 4 3 -2 6 -13 5 -11 0 -14 -3 -6 -6z"/>
<path d="M5052 4715 c0 -16 2 -22 5 -12 2 9 2 23 0 30 -3 6 -5 -1 -5 -18z"/>
<path d="M5153 4723 c9 -2 25 -2 35 0 9 3 1 5 -18 5 -19 0 -27 -2 -17 -5z"/>
<path d="M5218 4713 c7 -3 16 -2 19 1 4 3 -2 6 -13 5 -11 0 -14 -3 -6 -6z"/>
<path d="M5315 4710 c-13 -6 -15 -9 -5 -9 8 0 22 4 30 9 18 12 2 12 -25 0z"/>
<path d="M5258 4703 c7 -3 16 -2 19 1 4 3 -2 6 -13 5 -11 0 -14 -3 -6 -6z"/>
<path d="M5114 4663 c-12 -2 -30 -14 -40 -25 -19 -21 -19 -21 1 -14 44 16 72
17 86 3 20 -19 70 -29 89 -18 8 6 12 12 10 14 -6 5 -121 47 -123 46 -1 -1 -12
-4 -23 -6z"/>
<path d="M5279 4642 c-3 -20 -2 -29 4 -23 5 5 7 19 5 32 -3 20 -5 19 -9 -9z"/>
<path d="M5133 4585 c-18 -8 -33 -17 -33 -20 0 -3 9 -1 19 5 28 14 39 13 37
-6 -2 -25 24 -29 31 -6 3 14 10 19 21 14 15 -5 15 -4 3 11 -16 20 -35 21 -78
2z"/>
<path d="M5190 4525 c-11 -13 -10 -14 4 -9 9 3 16 10 16 15 0 13 -6 11 -20 -6z"/>
<path d="M5148 4503 c7 -3 16 -2 19 1 4 3 -2 6 -13 5 -11 0 -14 -3 -6 -6z"/>
<path d="M5030 4458 c0 -2 14 -16 32 -33 25 -24 29 -25 19 -8 -9 18 -51 51
-51 41z"/>
<path d="M4959 4732 c-3 -20 -2 -29 4 -23 5 5 7 19 5 32 -3 20 -5 19 -9 -9z"/>
<path d="M4899 4684 c-23 -25 -23 -26 -2 -13 13 7 25 19 27 26 8 19 2 16 -25
-13z"/>
<path d="M4846 4675 c-9 -26 -7 -32 5 -12 6 10 9 21 6 23 -2 3 -7 -2 -11 -11z"/>
<path d="M4777 4652 c-18 -19 -23 -72 -8 -72 4 0 6 11 3 25 -3 16 2 33 13 45
10 11 16 20 13 20 -3 0 -12 -8 -21 -18z"/>
<path d="M4827 4583 c-4 -3 -7 -16 -6 -27 0 -19 1 -19 10 3 9 23 11 24 26 8
13 -13 15 -19 5 -29 -18 -18 -14 -32 5 -17 15 13 16 11 9 -23 -5 -30 -4 -38 8
-38 11 0 13 10 9 43 -8 65 -41 105 -66 80z"/>
<path d="M4955 4329 c-9 -17 -15 -34 -13 -39 2 -5 11 9 20 30 20 47 15 53 -7
9z"/>
<path d="M5307 4345 c3 -11 3 -17 -1 -13 -4 3 -31 -2 -59 -11 -53 -18 -62 -28
-110 -136 l-18 -40 20 25 c12 14 21 30 21 35 0 6 5 17 10 25 8 13 11 12 23 -3
18 -25 59 -19 72 11 13 30 23 28 28 -5 4 -26 4 -26 6 5 1 38 14 41 29 7 6 -14
15 -25 19 -25 15 1 40 25 40 40 0 8 3 22 5 30 3 8 3 12 0 7 -2 -4 -14 2 -25
13 -12 12 -25 20 -29 18 -4 -2 -14 6 -23 17 l-15 20 7 -20z m58 -71 c0 -19 -5
-29 -15 -29 -8 0 -14 8 -14 18 2 14 -6 17 -42 17 -39 0 -43 -2 -41 -21 3 -29
-26 -47 -47 -30 -39 33 -11 66 67 80 64 11 92 1 92 -35z"/>
<path d="M4992 4300 c0 -14 2 -19 5 -12 2 6 2 18 0 25 -3 6 -5 1 -5 -13z"/>
<path d="M5021 4264 c0 -11 3 -14 6 -6 3 7 2 16 -1 19 -3 4 -6 -2 -5 -13z"/>
<path d="M5052 4255 c0 -16 2 -22 5 -12 2 9 2 23 0 30 -3 6 -5 -1 -5 -18z"/>
<path d="M5371 4185 c1 -19 18 -51 18 -35 0 8 -4 22 -9 30 -5 8 -9 11 -9 5z"/>
<path d="M5261 4170 c0 -8 4 -22 9 -30 12 -18 12 -2 0 25 -6 13 -9 15 -9 5z"/>
<path d="M5412 4160 c0 -14 2 -19 5 -12 2 6 2 18 0 25 -3 6 -5 1 -5 -13z"/>
<path d="M5084 4155 c-4 -9 -2 -26 4 -38 9 -19 10 -17 6 13 -4 27 -3 31 5 20
7 -9 11 -10 11 -3 0 19 -20 26 -26 8z"/>
<path d="M5205 4135 c4 -16 16 -39 28 -50 11 -11 16 -13 9 -4 -6 8 -19 31 -27
50 -16 33 -16 33 -10 4z"/>
<path d="M5328 4120 c-9 -22 -15 -40 -13 -40 8 0 36 61 33 70 -2 5 -11 -9 -20
-30z"/>
<path d="M5161 4134 c-1 -12 7 -30 17 -41 9 -10 13 -13 9 -7 -5 7 -12 25 -17
41 -7 23 -8 24 -9 7z"/>
<path d="M5341 4050 c0 -8 4 -22 9 -30 12 -18 12 -2 0 25 -6 13 -9 15 -9 5z"/>
<path d="M6202 4103 c-10 -19 1 -63 15 -63 5 0 14 -14 21 -30 8 -17 17 -28 22
-25 9 6 -22 74 -31 69 -13 -7 -17 24 -6 36 9 10 9 11 -2 5 -11 -6 -13 -4 -8 8
8 22 0 22 -11 0z"/>
<path d="M6160 4030 c1 -17 28 -56 34 -49 3 3 -4 18 -14 34 -11 17 -20 23 -20
15z"/>
<path d="M6130 3970 c0 -13 20 -49 43 -74 9 -11 17 -26 17 -33 0 -7 4 -13 9
-13 15 0 2 34 -25 65 -13 15 -24 36 -24 47 0 10 -4 18 -10 18 -5 0 -10 -5 -10
-10z"/>
<path d="M6270 3973 c0 -5 5 -15 10 -23 7 -12 9 -10 7 8 -1 19 -17 33 -17 15z"/>
<path d="M6200 3956 c0 -2 14 -20 30 -41 31 -39 39 -40 18 -2 -17 32 -48 60
-48 43z"/>
<path d="M6300 3933 c0 -5 9 -18 20 -28 11 -10 18 -20 15 -23 -2 -3 5 -16 15
-30 11 -13 20 -32 21 -41 0 -12 2 -11 8 4 5 12 3 25 -6 33 -7 8 -11 17 -9 20
2 4 -12 22 -30 41 -19 19 -34 29 -34 24z"/>
<path d="M6096 3902 c-3 -5 3 -17 14 -27 23 -21 26 -9 6 18 -8 10 -17 14 -20
9z"/>
<path d="M6266 3871 c-4 -5 -2 -11 2 -13 5 -1 21 -21 36 -43 20 -28 26 -33 21
-16 -4 14 -16 33 -26 44 -10 11 -16 24 -13 29 3 4 1 8 -5 8 -5 0 -12 -4 -15
-9z"/>
<path d="M6141 3844 c0 -12 6 -27 14 -34 12 -10 15 -10 15 4 0 9 -4 16 -9 16
-5 0 -12 8 -14 18 -4 13 -5 13 -6 -4z"/>
<path d="M6070 3840 c0 -8 11 -32 24 -54 18 -30 24 -35 29 -22 4 10 1 16 -8
16 -8 0 -14 3 -13 8 1 4 -5 21 -15 37 -9 17 -16 23 -17 15z"/>
<path d="M6176 3791 c-3 -5 3 -20 14 -32 l20 -24 -11 33 c-12 34 -15 37 -23
23z"/>
<path d="M4605 3983 c20 -28 49 -87 66 -130 16 -43 27 -62 23 -43 -8 51 -57
150 -93 190 -31 34 -30 33 4 -17z"/>
<path d="M4785 3976 c10 -14 19 -26 22 -26 7 0 -17 39 -28 46 -6 3 -3 -5 6
-20z"/>
<path d="M4859 3957 c35 -44 210 -157 243 -157 7 0 -10 11 -39 24 -29 14 -78
44 -109 68 -31 24 -69 52 -83 63 -20 15 -23 15 -12 2z"/>
<path d="M4836 3893 c77 -134 172 -257 227 -294 22 -15 12 -1 -29 42 -73 77
-106 120 -168 222 -52 84 -75 107 -30 30z"/>
<path d="M5207 3809 c-22 -22 -53 -47 -70 -54 -18 -8 -26 -14 -19 -15 30 0
102 54 123 93 14 25 8 21 -34 -24z"/>
<path d="M4771 3794 c0 -11 3 -14 6 -6 3 7 2 16 -1 19 -3 4 -6 -2 -5 -13z"/>
<path d="M4546 3769 c3 -30 85 -241 91 -236 2 3 -16 56 -41 119 -24 63 -46
121 -49 129 -2 8 -3 2 -1 -12z"/>
<path d="M4782 3750 c0 -14 2 -19 5 -12 2 6 2 18 0 25 -3 6 -5 1 -5 -13z"/>
<path d="M4940 3536 c0 -11 50 -106 55 -106 3 0 -7 24 -21 53 -28 55 -34 65
-34 53z"/>
<path d="M5342 3879 c-1 -36 -9 -107 -18 -158 -9 -51 -14 -95 -11 -97 11 -11
38 187 34 251 l-3 70 -2 -66z"/>
<path d="M5397 3731 c-4 -18 -7 -43 -6 -55 1 -11 5 -1 10 24 5 25 7 49 6 55
-2 5 -7 -5 -10 -24z"/>
<path d="M5381 3634 c0 -11 3 -14 6 -6 3 7 2 16 -1 19 -3 4 -6 -2 -5 -13z"/>
<path d="M5301 3594 c0 -11 3 -14 6 -6 3 7 2 16 -1 19 -3 4 -6 -2 -5 -13z"/>
<path d="M3860 3461 c0 -9 30 -24 36 -18 2 1 -6 8 -16 15 -11 7 -20 8 -20 3z"/>
<path d="M5249 3403 c-13 -17 -13 -17 6 -3 11 8 22 16 24 17 2 2 0 3 -6 3 -6
0 -17 -8 -24 -17z"/>
<path d="M5445 3380 c-3 -5 -1 -10 4 -10 6 0 11 5 11 10 0 6 -2 10 -4 10 -3 0
-8 -4 -11 -10z"/>
<path d="M6211 3464 c0 -11 3 -14 6 -6 3 7 2 16 -1 19 -3 4 -6 -2 -5 -13z"/>
<path d="M3773 3353 c9 -2 25 -2 35 0 9 3 1 5 -18 5 -19 0 -27 -2 -17 -5z"/>
<path d="M4268 3353 c12 -2 30 -2 40 0 9 3 -1 5 -23 4 -22 0 -30 -2 -17 -4z"/>
<path d="M3933 3343 c59 -2 154 -2 210 0 56 1 8 3 -108 3 -115 0 -161 -2 -102
-3z"/>
<path d="M6907 3014 c-4 -4 -30 -12 -59 -20 -29 -7 -44 -13 -33 -13 28 -1 93
18 100 29 7 11 2 13 -8 4z"/>
<path d="M4936 2821 c-3 -4 6 -6 19 -3 14 2 25 6 25 8 0 8 -39 4 -44 -5z"/>
<path d="M4995 2815 c-39 -18 -11 -18 35 0 22 8 28 13 15 13 -11 0 -33 -6 -50
-13z"/>
<path d="M5178 2813 c12 -2 32 -2 45 0 12 2 2 4 -23 4 -25 0 -35 -2 -22 -4z"/>
<path d="M5063 2803 c9 -2 23 -2 30 0 6 3 -1 5 -18 5 -16 0 -22 -2 -12 -5z"/>
<path d="M5006 2791 c-4 -5 3 -7 14 -4 23 6 26 13 6 13 -8 0 -17 -4 -20 -9z"/>
<path d="M5233 2793 c9 -2 23 -2 30 0 6 3 -1 5 -18 5 -16 0 -22 -2 -12 -5z"/>
<path d="M5063 2780 c-32 -13 -29 -21 5 -10 56 18 58 18 37 19 -11 0 -30 -4
-42 -9z"/>
<path d="M5238 2773 c18 -2 45 -2 60 0 15 2 0 4 -33 4 -33 0 -45 -2 -27 -4z"/>
<path d="M5078 2753 c7 -3 16 -2 19 1 4 3 -2 6 -13 5 -11 0 -14 -3 -6 -6z"/>
<path d="M5288 2753 c12 -2 32 -2 45 0 12 2 2 4 -23 4 -25 0 -35 -2 -22 -4z"/>
<path d="M5118 2743 c7 -3 16 -2 19 1 4 3 -2 6 -13 5 -11 0 -14 -3 -6 -6z"/>
<path d="M5198 2743 c7 -3 16 -2 19 1 4 3 -2 6 -13 5 -11 0 -14 -3 -6 -6z"/>
<path d="M5140 2730 c-8 -5 -10 -10 -5 -10 6 0 17 5 25 10 8 5 11 10 5 10 -5
0 -17 -5 -25 -10z"/>
<path d="M4671 2811 c-10 -6 1 -8 30 -4 24 3 46 7 48 9 10 9 -65 3 -78 -5z"/>
<path d="M4738 2793 c6 -2 18 -2 25 0 6 3 1 5 -13 5 -14 0 -19 -2 -12 -5z"/>
<path d="M4535 2780 c-25 -11 1 -11 35 0 20 6 21 8 5 8 -11 0 -29 -3 -40 -8z"/>
<path d="M4648 2773 c7 -3 16 -2 19 1 4 3 -2 6 -13 5 -11 0 -14 -3 -6 -6z"/>
<path d="M4783 2773 c9 -2 25 -2 35 0 9 3 1 5 -18 5 -19 0 -27 -2 -17 -5z"/>
<path d="M4608 2763 c7 -3 16 -2 19 1 4 3 -2 6 -13 5 -11 0 -14 -3 -6 -6z"/>
<path d="M4808 2753 c12 -2 30 -2 40 0 9 3 -1 5 -23 4 -22 0 -30 -2 -17 -4z"/>
<path d="M4620 2740 c-20 -6 -21 -8 -5 -8 11 0 29 3 40 8 25 11 -1 11 -35 0z"/>
<path d="M4675 2725 c-40 -14 -40 -14 -5 -8 19 3 42 9 50 14 22 12 1 9 -45 -6z"/>
<path d="M4838 2733 c7 -3 16 -2 19 1 4 3 -2 6 -13 5 -11 0 -14 -3 -6 -6z"/>
<path d="M4748 2713 c7 -3 16 -2 19 1 4 3 -2 6 -13 5 -11 0 -14 -3 -6 -6z"/>
<path d="M4868 2713 c6 -2 18 -2 25 0 6 3 1 5 -13 5 -14 0 -19 -2 -12 -5z"/>
<path d="M4685 2700 c-13 -5 -14 -9 -5 -9 8 0 24 4 35 9 13 5 14 9 5 9 -8 0
-24 -4 -35 -9z"/>
<path d="M4750 2690 c-11 -8 -7 -9 15 -4 37 8 45 14 19 14 -10 0 -26 -5 -34
-10z"/>
<path d="M3390 2767 c0 -7 72 -48 76 -44 2 2 -14 14 -36 26 -22 12 -40 20 -40
18z"/>
<path d="M3480 2716 c0 -3 14 -12 30 -21 17 -9 30 -13 30 -11 0 3 -13 12 -30
21 -16 9 -30 13 -30 11z"/>
<path d="M3530 2716 c0 -2 7 -7 16 -10 8 -3 12 -2 9 4 -6 10 -25 14 -25 6z"/>
<path d="M3590 2685 c0 -7 121 -67 126 -63 2 2 -26 18 -61 36 -36 17 -65 30
-65 27z"/>
<path d="M3820 2555 c0 -2 27 -18 60 -35 33 -17 60 -28 60 -25 0 2 -27 18 -60
35 -33 17 -60 28 -60 25z"/>
<path d="M3990 2495 c0 -7 170 -97 178 -93 4 2 -35 24 -85 50 -51 26 -93 46
-93 43z"/>
<path d="M3970 2476 c0 -3 9 -10 20 -16 11 -6 20 -8 20 -6 0 3 -9 10 -20 16
-11 6 -20 8 -20 6z"/>
<path d="M4410 2756 c0 -3 9 -10 20 -16 11 -6 20 -8 20 -6 0 3 -9 10 -20 16
-11 6 -20 8 -20 6z"/>
<path d="M4460 2726 c0 -3 9 -10 20 -16 11 -6 20 -8 20 -6 0 3 -9 10 -20 16
-11 6 -20 8 -20 6z"/>
<path d="M4525 2685 c22 -18 86 -53 70 -38 -5 6 -28 20 -50 32 -22 13 -31 15
-20 6z"/>
<path d="M4535 2653 c6 -6 28 -20 50 -32 22 -13 31 -15 20 -6 -22 18 -86 53
-70 38z"/>
<path d="M5193 2670 c-18 -11 -33 -23 -33 -26 0 -4 7 -1 15 6 8 7 32 18 52 26
23 8 30 13 18 14 -11 0 -35 -9 -52 -20z"/>
<path d="M5338 2683 c6 -2 18 -2 25 0 6 3 1 5 -13 5 -14 0 -19 -2 -12 -5z"/>
<path d="M5493 2673 c9 -2 25 -2 35 0 9 3 1 5 -18 5 -19 0 -27 -2 -17 -5z"/>
<path d="M5203 2650 c-32 -13 -29 -21 5 -10 56 18 58 18 37 19 -11 0 -30 -4
-42 -9z"/>
<path d="M7113 2643 c9 -2 23 -2 30 0 6 3 -1 5 -18 5 -16 0 -22 -2 -12 -5z"/>
<path d="M6960 2633 c-125 -11 -383 -43 -389 -49 -3 -4 10 -4 29 -1 19 3 91
11 160 18 175 17 333 37 285 36 -22 0 -60 -2 -85 -4z"/>
<path d="M7180 2620 c-41 -6 -42 -7 -10 -8 19 0 53 3 75 7 33 7 35 9 10 8 -16
0 -50 -3 -75 -7z"/>
<path d="M7078 2603 c12 -2 30 -2 40 0 9 3 -1 5 -23 4 -22 0 -30 -2 -17 -4z"/>
<path d="M7018 2593 c7 -3 16 -2 19 1 4 3 -2 6 -13 5 -11 0 -14 -3 -6 -6z"/>
<path d="M6528 2573 c6 -2 18 -2 25 0 6 3 1 5 -13 5 -14 0 -19 -2 -12 -5z"/>
<path d="M6283 2543 c15 -2 37 -2 50 0 12 2 0 4 -28 4 -27 0 -38 -2 -22 -4z"/>
<path d="M6188 2533 c12 -2 30 -2 40 0 9 3 -1 5 -23 4 -22 0 -30 -2 -17 -4z"/>
<path d="M6103 2523 c9 -2 23 -2 30 0 6 3 -1 5 -18 5 -16 0 -22 -2 -12 -5z"/>
<path d="M5448 2483 c12 -2 30 -2 40 0 9 3 -1 5 -23 4 -22 0 -30 -2 -17 -4z"/>
<path d="M5363 2473 c9 -2 25 -2 35 0 9 3 1 5 -18 5 -19 0 -27 -2 -17 -5z"/>
<path d="M5250 2460 c-27 -6 -29 -8 -10 -8 14 -1 43 3 65 7 33 7 35 9 10 9
-16 -1 -46 -4 -65 -8z"/>
<path d="M5178 2443 c6 -2 18 -2 25 0 6 3 1 5 -13 5 -14 0 -19 -2 -12 -5z"/>
<path d="M5033 2433 c20 -2 54 -2 75 0 20 2 3 4 -38 4 -41 0 -58 -2 -37 -4z"/>
<path d="M4740 2423 c-19 -2 -80 -10 -135 -19 -55 -9 -138 -19 -185 -24 l-85
-7 65 -2 c36 0 121 9 190 20 69 12 188 24 265 28 l140 8 -110 0 c-60 0 -126
-2 -145 -4z"/>
<path d="M4880 2650 c-17 -6 -9 -7 25 -3 28 3 52 7 54 9 8 7 -54 2 -79 -6z"/>
<path d="M5020 2654 c45 -17 74 -24 64 -14 -5 5 -25 12 -44 15 -19 3 -28 3
-20 -1z"/>
<path d="M4798 2623 c7 -3 16 -2 19 1 4 3 -2 6 -13 5 -11 0 -14 -3 -6 -6z"/>
<path d="M4758 2613 c7 -3 16 -2 19 1 4 3 -2 6 -13 5 -11 0 -14 -3 -6 -6z"/>
<path d="M3674 2495 c-10 -25 13 -65 36 -65 12 0 20 7 20 16 0 13 -3 14 -13 5
-17 -14 -27 -4 -27 26 0 42 30 25 71 -41 40 -64 71 -85 96 -64 20 16 15 55 -9
72 -15 11 -25 12 -34 5 -13 -11 -8 -39 7 -39 4 0 6 7 3 15 -4 9 0 15 9 15 17
0 28 -32 17 -50 -13 -21 -33 -6 -75 56 -30 44 -47 60 -68 62 -18 2 -29 -2 -33
-13z"/>
<path d="M3894 2397 c-3 -9 -4 -28 -2 -44 2 -20 8 -28 23 -28 17 0 20 7 20 40
0 30 -4 41 -18 43 -9 2 -20 -3 -23 -11z m31 -45 c-6 -16 -7 -16 -16 0 -5 9 -6
24 -3 33 7 16 8 16 16 0 5 -9 7 -24 3 -33z"/>
<path d="M3967 2364 c-12 -12 -8 -51 7 -63 9 -8 35 -10 77 -5 55 5 66 4 81
-13 12 -13 14 -23 7 -33 -8 -13 -11 -12 -24 4 -17 22 -29 17 -19 -7 18 -47 75
-18 58 30 -13 38 -52 50 -111 35 -38 -11 -49 -10 -60 1 -16 15 -7 47 12 47 8
0 16 -8 19 -17 4 -14 4 -14 3 2 -2 20 -36 33 -50 19z"/>
<path d="M7082 2504 c-12 -8 -22 -24 -22 -35 0 -24 27 -36 43 -19 10 10 8 12
-5 7 -23 -8 -30 6 -14 28 19 27 46 12 46 -25 0 -16 -9 -47 -20 -67 -25 -48
-25 -74 1 -142 16 -43 18 -60 10 -78 -13 -27 -36 -30 -50 -5 -9 15 -10 15 -11
1 0 -24 26 -42 49 -34 28 9 37 49 23 102 -16 56 -15 105 1 123 6 8 2 6 -10 -4
-29 -24 -29 -13 -2 25 30 42 36 95 14 119 -22 24 -24 24 -53 4z"/>
<path d="M7080 2409 c-28 -51 -30 -80 -10 -137 11 -31 20 -65 20 -77 1 -18 2
-18 10 -3 8 12 5 32 -10 70 -24 64 -25 89 -4 129 8 17 13 33 11 36 -3 2 -11
-5 -17 -18z"/>
<path d="M6830 2489 c-14 -6 -36 -21 -50 -34 -37 -35 -114 -67 -147 -60 -26 5
-27 5 -6 -6 35 -18 87 -2 152 47 51 38 66 45 98 42 30 -2 39 -7 41 -25 4 -28
-32 -50 -54 -32 -12 10 -12 14 -2 21 10 7 10 9 -2 5 -24 -6 -18 -42 7 -45 36
-5 63 15 63 48 0 45 -43 61 -100 39z"/>
<path d="M6537 2436 c-76 -58 -118 -71 -145 -44 -9 9 -12 9 -12 0 0 -7 12 -17
27 -23 34 -13 67 -1 127 45 60 45 86 52 128 32 l33 -16 -24 20 c-36 30 -82 26
-134 -14z"/>
<path d="M6338 2422 c-58 -50 -82 -62 -123 -63 -36 0 -37 -1 -16 -10 33 -13
85 5 131 48 24 21 55 37 82 42 l43 9 -42 1 c-33 1 -50 -5 -75 -27z"/>
<path d="M6100 2421 c-14 -5 -52 -22 -86 -40 -48 -25 -68 -30 -94 -25 -24 5
-31 4 -26 -4 13 -22 69 -12 143 24 64 32 80 36 129 32 50 -4 54 -3 33 8 -27
15 -61 16 -99 5z"/>
<path d="M5857 2392 c-24 -27 -21 -59 8 -78 35 -23 106 -14 175 21 30 15 66
31 80 35 23 8 23 8 3 9 -12 1 -54 -15 -94 -34 -77 -37 -102 -41 -142 -26 -34
13 -40 38 -17 61 28 28 60 26 60 -2 0 -16 3 -19 11 -11 7 7 9 19 6 27 -9 23
-70 21 -90 -2z"/>
<path d="M5742 2388 c-17 -17 -15 -73 3 -88 36 -30 78 34 50 76 -17 26 -35 30
-53 12z m43 -43 c0 -39 -31 -48 -41 -11 -7 30 2 48 24 44 11 -2 17 -13 17 -33z"/>
<path d="M5595 2376 c-12 -8 -16 -20 -12 -35 7 -27 -15 -28 -83 -1 -28 11 -69
20 -91 20 -42 0 -99 -23 -99 -40 0 -6 12 -3 26 6 35 23 96 22 174 -5 67 -22
119 -19 128 7 2 8 -2 10 -13 6 -17 -7 -38 13 -29 28 8 13 51 9 64 -7 28 -34
-13 -75 -76 -75 -17 0 -57 9 -89 20 -32 11 -70 20 -84 20 -53 -1 114 -49 170
-50 91 0 137 52 89 100 -23 23 -49 26 -75 6z"/>
<path d="M5079 2320 c-13 -10 -19 -19 -12 -20 6 0 15 5 18 10 12 19 64 10 114
-21 43 -27 57 -31 97 -26 25 2 51 10 57 17 10 10 8 11 -8 5 -50 -20 -73 -16
-140 19 -78 41 -94 43 -126 16z"/>
<path d="M4863 2305 c-18 -8 -33 -19 -33 -25 0 -7 9 -5 22 4 35 25 87 19 143
-14 55 -33 101 -38 131 -15 17 13 16 13 -12 3 -28 -10 -39 -8 -106 25 -82 41
-97 43 -145 22z"/>
<path d="M4601 2287 c-37 -19 -47 -41 -33 -72 10 -22 18 -26 44 -23 37 4 59
31 40 50 -11 11 -12 10 -7 -3 8 -21 -19 -42 -45 -34 -26 8 -27 51 -1 65 32 17
63 12 123 -20 73 -38 137 -44 174 -14 18 15 18 15 -3 5 -42 -21 -97 -12 -166
24 -72 38 -89 41 -126 22z"/>
<path d="M4757 2269 c7 -7 15 -10 18 -7 3 3 -2 9 -12 12 -14 6 -15 5 -6 -5z"/>
<path d="M4376 2254 c-24 -23 -19 -83 9 -129 30 -48 33 -77 5 -44 -10 13 -19
19 -20 14 0 -6 5 -16 11 -22 7 -7 9 -27 6 -50 -21 -141 -21 -139 3 -156 29
-20 60 -6 59 26 l0 22 -9 -22 c-12 -30 -38 -29 -52 1 -8 20 -7 35 7 73 30 85
30 119 0 179 -24 47 -26 59 -16 80 14 31 56 31 56 -1 0 -13 -6 -19 -15 -17
-11 3 -12 1 -3 -8 15 -16 33 -4 33 24 0 43 -44 61 -74 30z"/>
<path d="M4425 2146 c22 -34 21 -92 -4 -154 -23 -58 -26 -82 -11 -82 6 0 10 8
10 18 0 9 9 41 20 70 11 29 20 64 20 77 0 33 -26 95 -40 95 -6 0 -4 -10 5 -24z"/>
<path d="M6031 2055 c0 -16 8 -48 19 -70 21 -41 19 -28 -5 55 -12 39 -14 41
-14 15z"/>
<path d="M5951 1633 c-7 -26 -23 -72 -36 -100 -13 -29 -22 -53 -20 -53 16 0
83 185 72 196 -2 3 -10 -17 -16 -43z"/>
<path d="M4637 2033 c20 -55 77 -113 146 -149 44 -24 31 -10 -29 30 -34 23
-67 56 -86 87 -32 51 -42 61 -31 32z"/>
<path d="M4050 2065 c0 -6 56 -35 67 -35 10 0 -27 25 -49 33 -10 4 -18 4 -18
2z"/>
<path d="M4071 2016 c10 -9 89 -46 89 -41 0 5 -75 45 -86 45 -4 0 -5 -2 -3 -4z"/>
<path d="M5277 1958 c3 -29 1 -84 -4 -121 -6 -44 -6 -64 0 -58 14 14 22 194
10 215 -7 13 -9 2 -6 -36z"/>
<path d="M5076 1900 c11 -41 30 -73 60 -100 l28 -25 -28 39 c-16 21 -37 55
-48 75 -12 24 -16 27 -12 11z"/>
<path d="M5286 1594 c22 -150 45 -263 44 -213 -1 29 -38 240 -43 246 -4 3 -4
-12 -1 -33z"/>
<path d="M5331 1344 c0 -11 3 -14 6 -6 3 7 2 16 -1 19 -3 4 -6 -2 -5 -13z"/>
<path d="M4081 1774 c0 -11 3 -14 6 -6 3 7 2 16 -1 19 -3 4 -6 -2 -5 -13z"/>
<path d="M4082 1613 c-1 -87 2 -131 8 -118 10 24 12 212 1 238 -4 11 -8 -43
-9 -120z"/>
<path d="M4164 1675 c0 -49 1 -71 3 -48 2 23 2 64 0 90 -2 26 -3 8 -3 -42z"/>
<path d="M4163 1185 c0 -38 2 -53 4 -32 2 20 2 52 0 70 -2 17 -4 1 -4 -38z"/>
<path d="M4571 1847 c2 -1 13 -9 24 -17 19 -14 19 -14 6 3 -7 9 -18 17 -24 17
-6 0 -8 -1 -6 -3z"/>
<path d="M4550 1810 c19 -11 40 -19 45 -19 6 0 -6 8 -25 19 -19 11 -39 19 -45
19 -5 0 6 -8 25 -19z"/>
<path d="M5724 1460 c0 -69 1 -97 3 -62 2 34 2 90 0 125 -2 34 -3 6 -3 -63z"/>
<path d="M5644 1600 c0 -58 1 -81 3 -52 2 28 2 76 0 105 -2 28 -3 5 -3 -53z"/>
<path d="M4634 1390 c0 -63 1 -89 3 -57 2 31 2 83 0 115 -2 31 -3 5 -3 -58z"/>
<path d="M4623 1190 c0 -25 2 -35 4 -22 2 12 2 32 0 45 -2 12 -4 2 -4 -23z"/>
<path d="M4743 1345 c0 -33 2 -45 4 -27 2 18 2 45 0 60 -2 15 -4 0 -4 -33z"/>
<path d="M4734 1195 c0 -49 1 -71 3 -48 2 23 2 64 0 90 -2 26 -3 8 -3 -42z"/>
<path d="M4712 1015 c0 -16 2 -22 5 -12 2 9 2 23 0 30 -3 6 -5 -1 -5 -18z"/>
<path d="M6045 931 c17 -18 50 -46 75 -63 42 -28 39 -24 -35 39 -59 51 -70 57
-40 24z"/>
<path d="M5798 990 c-3 -17 0 -34 6 -40 8 -6 10 3 8 31 -5 47 -8 49 -14 9z"/>
<path d="M6280 770 c0 -8 61 -33 66 -27 2 2 -12 10 -31 19 -19 8 -35 12 -35 8z"/>
<path d="M5586 511 c-4 -7 -5 -15 -2 -18 9 -9 19 4 14 18 -4 11 -6 11 -12 0z"/>
<path d="M5465 500 c3 -5 8 -10 11 -10 2 0 4 5 4 10 0 6 -5 10 -11 10 -5 0 -7
-4 -4 -10z"/>
</g>
</svg>
