<?xml version="1.0" standalone="no"?>
<!DOCTYPE svg PUBLIC "-//W3C//DTD SVG 20010904//EN"
 "http://www.w3.org/TR/2001/REC-SVG-20010904/DTD/svg10.dtd">
<svg version="1.0" xmlns="http://www.w3.org/2000/svg"
 width="1024.000000pt" height="559.000000pt" viewBox="0 0 1024.000000 559.000000"
 preserveAspectRatio="xMidYMid meet">
<metadata>
Created by potrace 1.16, written by Peter Selinger 2001-2019
</metadata>
<g transform="translate(0.000000,559.000000) scale(0.100000,-0.100000)"
fill="#000000" stroke="none">
<path d="M5092 5069 c-51 -9 -121 -38 -152 -64 -8 -7 -32 -18 -54 -25 -101
-32 -163 -137 -196 -330 -12 -66 14 -313 36 -347 13 -21 12 -28 -15 -80 -17
-32 -56 -83 -88 -114 -60 -57 -152 -119 -178 -119 -36 0 -279 -139 -370 -212
-121 -97 -213 -290 -269 -568 -84 -421 -106 -557 -106 -672 0 -150 46 -293
106 -333 13 -8 52 -41 86 -73 35 -33 73 -64 85 -71 34 -17 94 -13 138 10 29
16 40 18 43 9 3 -7 13 -21 23 -31 28 -28 25 -85 -10 -168 -77 -183 -119 -402
-166 -861 -29 -278 -45 -425 -50 -447 -3 -12 0 -25 6 -29 26 -16 25 -26 89
581 40 372 82 574 157 753 28 66 29 67 66 53 l25 -10 -30 -83 c-32 -88 -84
-330 -90 -412 -2 -31 1 -51 8 -53 8 -3 16 27 24 84 25 184 102 464 125 453 12
-6 10 -156 -5 -405 -19 -316 -30 -549 -37 -774 -5 -190 -4 -223 8 -219 11 4
16 40 21 164 18 401 40 830 48 949 14 184 13 300 -2 313 -7 6 -31 13 -53 17
-49 9 -85 30 -85 51 0 14 9 15 65 9 76 -8 104 4 124 53 l12 29 142 7 c78 4
171 11 207 16 36 5 117 12 181 16 107 6 122 5 200 -19 122 -38 186 -50 231
-43 45 7 162 58 172 75 25 40 36 -48 15 -122 -8 -32 -6 -56 15 -140 70 -279
122 -632 174 -1171 12 -122 21 -181 30 -184 16 -5 16 57 -3 260 -44 475 -113
911 -183 1162 -5 18 -3 53 5 90 7 34 13 75 13 93 0 25 7 36 35 53 19 12 42 34
51 50 10 15 34 38 55 49 21 12 40 30 44 40 3 10 26 26 53 36 26 10 70 29 97
43 45 23 60 26 146 23 89 -2 98 -1 125 22 16 13 42 27 57 31 16 4 38 17 50 30
12 12 37 31 55 42 18 10 35 29 39 42 3 12 18 31 33 42 35 25 44 64 29 123 -10
42 -9 51 15 99 20 41 26 67 26 120 0 157 -109 258 -318 295 -107 19 -233 6
-327 -33 -73 -32 -145 -46 -150 -30 -33 116 -106 318 -135 376 -46 91 -112
157 -227 223 l-82 48 30 42 c44 61 139 215 165 267 12 25 25 67 29 93 5 29 18
60 32 78 17 20 28 50 35 97 6 37 14 74 19 82 5 8 18 29 29 45 24 36 27 122 6
168 -8 18 -17 49 -21 69 -6 41 -6 40 -164 157 -130 96 -244 130 -369 110z
m176 -43 c63 -17 108 -43 227 -133 64 -49 92 -77 98 -98 5 -17 15 -50 23 -75
17 -55 18 -90 2 -127 -11 -27 -11 -27 -19 25 -4 29 -10 56 -13 60 -4 3 -20
-11 -37 -31 -17 -20 -38 -37 -46 -37 -13 0 -12 5 6 24 30 31 18 56 -13 27 -23
-21 -67 -41 -93 -41 -14 0 -14 2 0 18 23 25 22 56 0 49 -86 -28 -104 -31 -135
-19 -21 8 -36 8 -42 2 -15 -15 62 -43 97 -36 30 6 30 6 12 -14 -22 -25 -17
-26 95 -35 67 -4 89 -3 105 9 32 24 35 20 35 -46 0 -105 -9 -138 -36 -138 -41
0 -101 -30 -113 -56 -6 -14 -11 -65 -11 -115 0 -105 -8 -114 -76 -80 -53 25
-54 25 -54 6 0 -18 70 -55 104 -55 41 0 56 34 56 125 1 60 3 76 11 62 7 -11
17 -16 29 -12 16 5 17 2 8 -37 -14 -66 -153 -301 -204 -345 -39 -35 -97 -31
-170 13 -70 42 -91 61 -155 136 -38 46 -50 70 -60 118 -6 33 -16 60 -20 60
-18 0 -9 -93 13 -137 26 -51 116 -147 181 -191 l45 -32 -19 -37 c-10 -20 -19
-43 -19 -51 0 -24 24 -7 41 29 22 44 40 43 58 -4 14 -38 14 -38 -20 -73 -32
-33 -34 -39 -38 -120 -1 -46 -7 -84 -11 -84 -4 0 -20 28 -34 63 -45 102 -66
124 -149 148 -40 12 -102 35 -138 51 l-66 29 -16 87 c-34 187 -35 175 30 295
49 91 61 106 78 101 58 -17 88 3 35 23 -88 33 -91 243 -4 243 28 0 50 -31 59
-83 7 -35 43 -77 67 -77 5 0 20 25 33 55 17 38 36 61 62 78 49 31 59 43 72 93
13 50 24 60 74 69 40 8 54 19 37 30 -19 12 -93 -7 -115 -29 -12 -12 -25 -40
-28 -62 -6 -35 -14 -45 -56 -71 -38 -24 -52 -41 -66 -77 -10 -26 -23 -45 -29
-43 -5 2 -15 23 -21 48 -17 63 -31 86 -62 96 -91 31 -150 -79 -112 -208 7 -20
9 -46 5 -56 -14 -37 -28 16 -39 154 -11 128 -10 139 12 226 39 150 71 196 166
238 28 12 63 31 78 42 66 45 185 59 285 33z m262 -665 c-5 -11 -14 -23 -20
-26 -11 -7 -60 4 -60 15 0 10 41 29 68 29 19 1 21 -2 12 -18z m-851 -486 c10
-49 39 -178 64 -285 25 -107 48 -211 52 -231 7 -45 4 -44 192 -60 155 -14 297
-3 355 27 27 14 29 19 23 52 -15 79 -80 264 -162 460 -3 6 2 12 11 12 17 0
111 -186 159 -315 52 -140 103 -320 121 -426 5 -30 2 -39 -21 -61 -16 -14 -54
-38 -86 -54 -59 -28 -167 -130 -167 -157 0 -8 -25 -43 -56 -77 -74 -83 -97
-136 -98 -225 -1 -38 -5 -73 -11 -77 -26 -20 -245 -1 -405 34 -122 26 -123 27
-106 59 80 155 156 511 156 734 0 52 -14 165 -36 292 -33 191 -64 405 -64 444
0 9 10 29 23 45 l22 29 8 -65 c5 -36 17 -105 26 -155z m-109 111 c0 -13 3 -38
6 -55 8 -39 -1 -39 -50 2 l-39 33 34 22 c43 28 49 27 49 -2z m-73 -73 c28 -21
59 -43 68 -48 12 -8 27 -66 57 -235 35 -191 41 -245 40 -355 0 -137 -26 -330
-63 -465 -19 -72 -81 -242 -97 -267 -14 -22 -48 -3 -61 33 -10 28 -29 47 -69
69 -1 1 4 17 12 36 8 19 20 63 26 99 7 36 25 99 41 140 16 41 36 104 44 140
17 74 21 290 5 290 -6 0 -10 -31 -10 -72 0 -81 -21 -219 -43 -288 l-15 -45 -1
82 c-1 79 -15 118 -26 71 -2 -13 -9 -86 -14 -163 -10 -135 -31 -249 -52 -270
-6 -6 -16 -5 -27 3 -77 55 -116 67 -207 66 -69 0 -101 -5 -137 -22 -27 -12
-48 -26 -48 -33 0 -13 24 -9 85 15 59 22 144 20 212 -6 l58 -22 -80 -8 c-88
-7 -146 -25 -213 -64 -57 -34 -122 -92 -122 -110 0 -21 8 -17 58 27 58 51 170
106 237 114 l50 7 -62 -38 c-76 -48 -126 -92 -118 -104 3 -6 30 8 58 30 115
87 255 122 306 76 25 -23 28 -41 5 -32 -28 11 -91 -13 -143 -54 -107 -85 -278
-390 -218 -390 8 0 18 7 21 16 5 12 14 14 38 9 52 -11 53 -21 6 -44 -69 -33
-92 -28 -156 32 -31 29 -73 66 -92 81 -69 56 -102 133 -115 266 -9 91 6 212
70 545 59 304 90 416 151 537 74 148 112 183 342 319 64 38 124 69 133 69 8 0
38 -17 66 -37z m925 -165 c121 -81 161 -147 246 -400 l49 -146 -69 -34 -68
-34 -1 110 c-1 142 -11 228 -25 233 -9 3 -11 -44 -7 -180 7 -207 -4 -248 -31
-119 -30 137 -124 414 -186 540 l-59 122 47 -27 c26 -15 73 -44 104 -65z
m-557 -20 c50 -16 100 -36 113 -44 12 -8 47 -65 78 -127 31 -61 58 -114 60
-116 18 -19 40 104 44 240 0 9 11 24 25 33 l25 17 21 -48 c32 -72 99 -283 99
-309 0 -19 -8 -24 -57 -35 -58 -11 -359 -7 -414 6 -24 6 -28 17 -72 209 -26
111 -47 205 -47 210 0 4 8 5 18 1 9 -4 58 -20 107 -37z m1398 -494 c170 -44
259 -145 244 -276 -9 -71 -31 -107 -65 -106 -16 1 -35 -3 -43 -8 -8 -5 -22 -7
-32 -5 -21 3 -57 -25 -57 -46 0 -7 -11 -19 -25 -25 -18 -8 -29 -24 -36 -55 -6
-24 -17 -43 -24 -43 -19 0 -52 -45 -60 -80 -5 -24 -23 -40 -88 -79 -45 -27
-120 -68 -167 -90 -74 -36 -91 -41 -128 -35 -24 4 -77 1 -118 -6 -58 -10 -86
-10 -136 -1 -78 16 -151 47 -146 62 2 7 28 21 57 32 65 25 111 69 111 106 0
55 -32 63 -125 31 -32 -11 -86 -25 -121 -31 -40 -7 -87 -25 -129 -50 -37 -21
-69 -39 -71 -39 -2 0 -4 23 -4 51 0 98 74 207 143 211 57 3 121 -3 177 -17 30
-7 87 -16 125 -20 39 -4 103 -16 144 -26 48 -12 78 -16 84 -10 26 26 -87 117
-202 163 -44 17 -77 22 -156 22 -55 1 -111 -3 -125 -7 -19 -6 -11 5 32 46 66
64 123 87 214 87 66 0 256 -44 334 -78 52 -22 142 -63 150 -68 3 -1 12 1 18 5
34 21 -48 122 -147 181 -68 40 -172 69 -254 71 l-42 1 70 33 c62 31 79 34 155
34 130 1 240 -36 358 -119 72 -50 87 -51 78 -8 -14 70 -97 151 -185 179 -20 6
-40 15 -45 20 -17 15 172 10 237 -7z m-198 -42 c57 -22 118 -67 140 -104 l19
-32 -35 23 c-63 42 -197 101 -243 107 -25 4 -46 10 -46 15 0 23 97 18 165 -9z
m-307 -137 c86 -20 214 -103 243 -157 7 -13 -4 -11 -53 11 -120 55 -332 111
-416 111 -30 0 -33 2 -22 15 29 35 144 44 248 20z m-270 -219 c71 -15 172 -63
217 -101 29 -26 29 -26 5 -20 -14 3 -54 11 -90 16 -36 6 -114 19 -175 30 -60
11 -131 19 -157 19 -55 0 -61 13 -17 35 63 33 130 39 217 21z m968 -52 c17
-40 15 -105 -2 -111 -7 -2 -14 11 -17 29 -3 18 -9 52 -12 76 -10 53 10 57 31
6z m-67 -29 c27 -72 28 -150 3 -164 -17 -9 -20 -2 -36 88 -24 136 -5 179 33
76z m-74 -32 c4 -10 9 -50 12 -89 6 -77 -4 -108 -37 -117 -20 -5 -21 -3 -15
96 4 56 8 108 10 115 6 18 22 15 30 -5z m-75 -131 c0 -55 -18 -110 -40 -122
-23 -12 -120 -13 -120 -2 0 12 50 36 75 37 15 0 23 11 33 45 21 70 31 92 42
85 6 -3 10 -23 10 -43z m-725 -2 c13 -21 -20 -54 -89 -85 -114 -52 -121 -77
-31 -121 79 -38 177 -51 281 -36 47 7 89 10 94 7 21 -13 8 -27 -47 -52 -48
-22 -78 -27 -172 -32 -78 -4 -116 -10 -119 -18 -3 -10 15 -14 65 -15 100 -3
104 -3 148 4 l40 7 -30 -24 c-34 -28 -61 -35 -164 -44 -46 -4 -76 -11 -79 -18
-2 -9 10 -13 40 -14 l43 -1 -45 -21 c-63 -29 -123 -25 -263 16 l-117 36 -122
-10 c-67 -5 -135 -11 -152 -14 -79 -14 -351 -22 -457 -15 -97 8 -255 34 -267
45 -6 5 49 109 94 176 49 74 107 131 160 156 38 18 22 21 219 -34 130 -36 249
-55 380 -60 l140 -5 92 60 c72 46 105 61 145 67 29 3 85 17 123 30 82 28 82
28 90 15z m-1187 -486 c66 -6 73 -13 44 -42 -16 -16 -27 -18 -87 -11 -73 9
-95 21 -95 51 0 17 5 19 38 14 20 -3 65 -8 100 -12z"/>
<path d="M5157 4463 c-40 -10 -7 -26 58 -27 45 -2 84 -9 107 -21 40 -20 59
-15 39 9 -27 33 -143 55 -204 39z"/>
<path d="M5170 4381 c0 -6 11 -13 25 -17 14 -3 25 -12 25 -19 0 -22 28 -25 60
-7 16 9 30 20 30 23 0 4 -17 9 -37 13 -21 3 -53 9 -70 12 -21 4 -33 2 -33 -5z"/>
<path d="M5117 4152 c-17 -18 -23 -42 -11 -42 9 0 54 44 54 53 0 14 -27 7 -43
-11z"/>
<path d="M5160 4107 c0 -34 146 -85 184 -65 18 10 13 13 -42 24 -35 7 -78 22
-96 33 -39 25 -46 26 -46 8z"/>
<path d="M5210 4013 c0 -12 45 -33 70 -33 11 0 20 7 20 15 0 8 -6 15 -14 15
-7 0 -28 3 -45 6 -17 4 -31 2 -31 -3z"/>
<path d="M4100 3683 c0 -5 23 -20 50 -35 103 -57 184 -199 230 -405 7 -29 16
-53 21 -53 16 0 10 53 -17 145 -46 160 -115 271 -203 326 -43 28 -81 38 -81
22z"/>
<path d="M5463 1974 c-107 -47 -411 -58 -667 -24 -82 11 -152 18 -154 15 -10
-10 11 -23 50 -29 120 -20 307 -36 418 -36 184 0 410 41 410 75 0 18 -15 18
-57 -1z"/>
<path d="M4476 1953 c-3 -4 -6 -9 -6 -13 0 -12 136 -69 225 -95 152 -44 355
-70 355 -46 0 10 -48 21 -94 21 -78 1 -346 74 -437 121 -20 10 -39 15 -43 12z"/>
<path d="M4516 1801 c-14 -22 165 -345 267 -481 96 -128 306 -340 337 -340 25
0 5 29 -46 70 -164 130 -333 354 -476 627 -39 73 -71 133 -73 133 -2 0 -6 -4
-9 -9z"/>
</g>
</svg>
