<?xml version="1.0" standalone="no"?>
<!DOCTYPE svg PUBLIC "-//W3C//DTD SVG 20010904//EN"
 "http://www.w3.org/TR/2001/REC-SVG-20010904/DTD/svg10.dtd">
<svg version="1.0" xmlns="http://www.w3.org/2000/svg"
 width="1024.000000pt" height="559.000000pt" viewBox="0 0 1024.000000 559.000000"
 preserveAspectRatio="xMidYMid meet">
<metadata>
Created by potrace 1.16, written by Peter Selinger 2001-2019
</metadata>
<g transform="translate(0.000000,559.000000) scale(0.100000,-0.100000)"
fill="#000000" stroke="none">
<path d="M5063 5075 c-13 -9 -41 -14 -72 -14 -66 2 -120 -22 -149 -66 -13 -21
-30 -35 -43 -35 -30 0 -69 -47 -69 -85 0 -18 -7 -38 -16 -46 -31 -26 -47 -70
-39 -113 4 -23 8 -67 9 -98 1 -41 7 -65 24 -87 12 -17 22 -39 22 -51 0 -11 11
-30 25 -42 14 -12 25 -30 25 -40 0 -11 11 -30 25 -44 14 -14 25 -29 25 -34 0
-5 9 -15 21 -24 28 -19 17 -54 -19 -62 -28 -6 -149 -58 -289 -125 -87 -42
-132 -84 -174 -164 -14 -27 -31 -45 -41 -45 -53 0 -101 -53 -113 -125 -11 -66
-15 -75 -36 -75 -12 0 -19 7 -19 20 0 27 -28 25 -40 -2 l-9 -23 0 23 c-1 15
-7 22 -21 22 -14 0 -20 -7 -21 -22 -1 -22 -1 -22 -8 2 -9 33 -47 35 -44 3 2
-13 -2 -23 -7 -23 -6 0 -10 9 -10 20 0 30 -40 27 -41 -2 l0 -23 -9 23 c-12 27
-40 29 -47 2 -9 -33 -32 -23 -38 18 -11 65 -36 122 -62 139 -58 39 -133 9
-133 -52 0 -38 26 -65 63 -65 23 0 27 -4 27 -30 0 -34 -23 -41 -39 -12 -15 27
-45 3 -49 -40 -4 -44 20 -68 49 -50 10 7 23 12 28 12 13 0 -10 -79 -63 -212
-26 -65 -51 -144 -57 -175 -22 -116 6 -226 81 -314 l38 -45 -186 -13 c-103 -7
-195 -14 -204 -17 -15 -4 -18 -17 -18 -73 0 -77 4 -83 88 -125 l52 -26 0 -889
0 -890 43 -34 c68 -56 75 -58 158 -44 l74 13 5 771 5 772 167 -83 c168 -84
180 -95 100 -96 -28 0 -42 -33 -42 -101 0 -40 5 -54 25 -73 l25 -23 0 -451 0
-450 38 -22 c22 -14 52 -22 74 -21 l38 1 -1 -292 c-1 -328 -9 -293 80 -346 43
-25 45 -25 127 -14 46 7 91 15 99 18 13 5 15 88 15 680 0 371 3 674 6 674 3 0
19 -8 35 -17 l29 -17 0 -458 0 -457 37 -26 c39 -26 87 -32 152 -19 l31 7 0
467 0 467 61 7 c112 11 104 17 106 -79 2 -60 10 -108 28 -160 20 -62 25 -95
25 -180 l0 -104 30 -16 c16 -8 44 -15 63 -15 31 0 36 -4 51 -44 9 -23 14 -50
10 -60 -3 -9 1 -28 11 -42 31 -48 48 -212 31 -304 -6 -32 0 -45 61 -135 37
-54 83 -109 101 -122 73 -49 231 -54 320 -11 46 21 67 56 58 93 -8 32 -80 135
-136 195 -78 84 -121 151 -127 201 -3 24 -12 56 -19 71 -8 15 -14 42 -14 59 0
18 -6 40 -14 48 -22 26 -36 137 -36 293 0 131 -20 284 -46 351 -4 11 10 16 68
21 40 4 94 9 121 13 l47 6 0 -427 0 -427 51 -22 50 -22 -6 -62 c-6 -61 -6 -62
24 -78 17 -8 75 -24 128 -35 54 -12 139 -36 189 -54 49 -19 126 -40 170 -47
69 -10 87 -10 137 5 92 27 104 63 50 149 -19 30 -44 48 -121 85 -71 35 -114
64 -164 112 l-68 65 4 135 c4 121 10 152 50 300 l45 165 0 -271 c1 -300 -3
-282 70 -319 27 -14 47 -16 95 -10 107 12 95 -61 98 653 l3 627 75 6 c136 12
314 29 363 35 l47 7 0 -795 0 -794 68 -33 68 -33 82 18 82 17 1 151 c1 83 3
492 4 908 1 417 4 760 7 763 2 3 34 8 69 11 35 4 70 11 77 17 13 11 17 124 4
144 -8 13 -101 46 -274 97 l-88 27 0 35 c0 63 -35 86 -190 124 -74 18 -220 55
-323 82 -121 32 -197 48 -213 44 -14 -4 -38 -20 -52 -36 -26 -27 -33 -29 -155
-39 -70 -6 -132 -11 -137 -11 -6 0 -5 10 1 24 9 19 21 25 62 29 44 4 56 10 84
43 41 49 73 112 73 147 0 14 5 29 10 32 14 8 13 51 -2 74 -10 16 -1 36 60 137
40 66 72 127 72 136 0 10 -11 25 -25 34 -29 19 -60 17 -323 -16 -84 -11 -164
-20 -177 -20 -27 0 -27 1 -105 184 -71 168 -133 249 -226 296 l-70 35 28 23
c33 27 43 60 65 212 15 103 15 121 1 180 -17 75 -17 142 1 185 9 22 10 40 3
65 -6 19 -14 53 -19 75 -6 31 -17 46 -45 64 -21 13 -38 30 -38 37 0 23 -43 44
-91 44 -29 0 -51 6 -59 15 -17 20 -108 20 -137 0z m127 -22 c15 -10 44 -18 70
-18 39 0 47 -4 65 -32 11 -18 26 -32 33 -33 26 0 52 -40 52 -79 0 -22 5 -43
10 -46 6 -3 10 -19 10 -35 0 -16 -4 -32 -10 -35 -10 -6 -14 12 -11 50 2 15 0
17 -7 6 -13 -18 -24 2 -15 26 6 17 5 17 -16 -2 l-22 -19 6 26 c5 18 2 29 -8
35 -8 4 -19 18 -26 31 -6 12 -17 22 -23 22 -6 0 -4 -8 5 -18 18 -20 23 -82 7
-82 -5 0 -10 9 -10 19 0 21 -57 71 -80 71 -7 0 -1 -9 14 -21 30 -23 33 -54 9
-81 -21 -23 -33 -23 -33 1 0 11 -15 31 -32 45 l-33 25 -7 -25 c-8 -30 -26 -54
-41 -54 -7 0 -7 4 1 12 14 14 16 54 3 62 -5 4 -7 -3 -4 -14 3 -12 -4 -27 -21
-43 -14 -13 -26 -34 -26 -45 0 -13 -6 -19 -16 -18 -22 3 -32 23 -26 53 4 19 1
24 -7 18 -7 -4 -11 -21 -10 -39 2 -17 0 -37 -5 -44 -4 -6 -4 -16 -1 -22 3 -5
0 -10 -8 -10 -8 0 -19 10 -25 23 -6 12 -11 16 -11 10 -1 -7 8 -22 19 -33 24
-24 25 -30 6 -30 -8 0 -24 12 -35 26 -13 17 -21 21 -21 12 0 -8 9 -23 19 -32
11 -10 17 -24 15 -31 -3 -7 0 -23 6 -35 10 -19 9 -21 -6 -18 -10 2 -24 14 -31
28 -12 24 -13 24 -13 3 0 -12 8 -28 18 -35 17 -13 25 -88 10 -88 -5 0 -8 5 -8
12 0 6 -3 8 -7 4 -5 -4 1 -14 11 -22 11 -7 17 -17 13 -20 -3 -3 -22 11 -41 32
-36 39 -83 51 -108 26 -14 -14 -16 -66 -5 -107 8 -29 8 -29 -12 -11 -12 11
-21 29 -21 41 0 12 -9 34 -20 48 -22 27 -27 86 -10 118 8 15 7 19 -4 19 -8 0
-17 15 -20 36 -8 37 10 76 44 101 11 8 15 21 13 40 -6 36 29 83 62 83 16 0 29
11 43 34 29 49 73 69 139 64 30 -3 56 -1 59 4 18 29 99 36 134 11z m-16 -189
c19 -7 21 -35 4 -52 -9 -9 -8 -13 4 -17 25 -10 67 13 89 47 20 32 21 32 15 6
-6 -27 -6 -28 37 -22 l43 6 21 -50 21 -51 -46 -3 c-60 -4 -61 -22 -1 -26 l46
-3 9 -57 c5 -31 8 -109 7 -172 -3 -143 -26 -238 -63 -257 -40 -21 -132 -15
-219 12 -86 28 -132 59 -158 109 -9 17 -18 26 -20 19 -6 -16 20 -63 50 -91 27
-25 176 -82 216 -82 18 0 22 -4 16 -17 -19 -48 -45 -128 -45 -140 0 -31 18 -9
34 43 19 59 29 61 39 7 8 -42 -27 -85 -89 -109 -40 -15 -54 -16 -102 -6 -111
23 -320 150 -306 185 2 7 23 24 45 37 47 29 73 67 89 132 7 26 18 49 26 52 25
9 15 27 -11 20 -34 -8 -85 25 -113 74 -26 47 -28 75 -6 96 24 24 43 19 77 -19
32 -37 66 -45 86 -21 9 10 8 16 -4 26 -20 16 -19 39 2 62 14 16 15 24 5 50
-12 33 -9 48 12 48 20 0 40 27 26 35 -5 3 -10 12 -10 20 0 10 10 12 40 8 40
-6 50 3 29 24 -15 15 -3 34 16 26 19 -7 65 23 65 42 0 17 2 17 24 9z m-306
-493 c14 -7 22 -21 22 -36 0 -35 -26 -31 -39 6 -6 17 -15 28 -21 24 -5 -3 -15
6 -20 20 -15 38 -13 41 13 18 12 -11 32 -26 45 -32z m-92 -196 c-14 -13 -26
-30 -26 -38 0 -63 264 -207 380 -207 57 0 81 10 123 48 l27 26 0 -45 c-1 -87
-64 -355 -90 -383 -5 -5 -33 12 -64 38 -58 50 -89 56 -94 20 -2 -16 14 -35 61
-73 l64 -52 -86 -89 c-82 -85 -114 -107 -171 -115 -14 -2 -49 -11 -78 -19 -53
-14 -148 -24 -155 -15 -8 8 21 184 37 224 8 22 15 58 15 80 -1 36 -2 33 -14
-24 -8 -35 -16 -65 -18 -67 -2 -3 -7 42 -10 98 -13 190 -22 172 -23 -44 -1
-117 -5 -223 -10 -236 l-10 -23 -29 23 c-16 12 -69 39 -119 59 l-91 36 -24 59
c-13 32 -32 87 -42 122 -18 64 -12 77 22 47 15 -14 18 -14 33 1 22 22 18 83
-7 98 -14 9 -21 7 -31 -6 -16 -22 -36 -23 -36 -4 0 28 13 46 33 46 48 0 79 80
42 110 -13 11 -11 20 17 72 39 73 90 118 176 155 37 15 100 45 142 65 41 21
77 37 79 38 2 0 -8 -11 -23 -25z m563 -40 c8 -16 25 -73 37 -125 17 -74 22
-86 23 -55 0 38 -18 129 -34 168 -8 19 -2 21 25 7 10 -5 28 -40 41 -77 20 -58
23 -89 24 -208 0 -77 -3 -180 -8 -229 -11 -132 0 -100 18 49 23 200 15 340
-24 413 -13 25 -3 29 29 12 36 -19 52 -102 57 -296 4 -136 1 -214 -11 -310
-16 -118 -31 -184 -43 -184 -13 0 -41 47 -37 62 3 12 -11 35 -40 66 -25 27
-43 51 -40 55 9 9 42 145 48 200 4 37 0 27 -13 -33 -10 -47 -24 -104 -30 -127
-11 -41 -12 -42 -49 -36 -40 7 -102 48 -102 68 0 7 12 43 26 81 59 158 84 398
49 481 -21 49 -19 55 12 51 19 -2 32 -12 42 -33z m266 -251 c16 -38 43 -104
61 -146 l33 -78 -22 -23 c-13 -12 -49 -68 -81 -125 -31 -56 -59 -102 -62 -102
-9 0 10 116 22 135 19 29 44 133 43 175 -1 25 -5 14 -14 -37 -23 -124 -30
-110 -32 60 -1 89 -6 185 -11 212 l-10 50 22 -26 c12 -14 35 -57 51 -95z
m-1808 -36 c48 -54 57 -179 22 -313 -57 -219 -61 -241 -56 -296 8 -93 51 -158
127 -189 35 -15 40 -37 8 -42 -16 -2 -24 -11 -26 -30 -3 -24 1 -28 40 -39 81
-22 274 -9 292 20 10 16 -7 51 -25 51 -33 0 -20 33 24 65 23 17 52 50 65 75
21 41 23 54 19 150 -3 66 -15 142 -31 205 -53 204 -22 365 69 365 36 0 55 -15
55 -46 0 -32 -27 -51 -51 -36 -28 18 -36 9 -41 -43 -7 -62 14 -173 52 -275 17
-47 39 -105 48 -130 12 -31 17 -77 17 -150 0 -97 -2 -110 -30 -163 -35 -71
-108 -139 -173 -162 -26 -10 -92 -19 -149 -22 -84 -5 -112 -2 -170 16 -116 35
-198 122 -229 242 -23 89 -6 178 63 344 48 115 65 179 66 256 1 87 -5 104 -32
87 -38 -24 -72 14 -53 58 15 33 70 34 99 2z m138 -128 c3 -5 1 -10 -4 -10 -6
0 -11 5 -11 10 0 6 2 10 4 10 3 0 8 -4 11 -10z m50 0 c3 -5 1 -10 -4 -10 -6 0
-11 5 -11 10 0 6 2 10 4 10 3 0 8 -4 11 -10z m65 6 c0 -3 -4 -8 -10 -11 -5 -3
-10 -1 -10 4 0 6 5 11 10 11 6 0 10 -2 10 -4z m100 -6 c0 -5 -5 -10 -11 -10
-5 0 -7 5 -4 10 3 6 8 10 11 10 2 0 4 -4 4 -10z m-440 -51 c0 -17 -4 -28 -10
-24 -5 3 -10 17 -10 31 0 13 5 24 10 24 6 0 10 -14 10 -31z m670 7 c0 -14 -4
-28 -10 -31 -6 -4 -10 7 -10 24 0 17 5 31 10 31 6 0 10 -11 10 -24z m-40 -7
c0 -5 -7 -9 -15 -9 -8 0 -15 7 -15 15 0 9 6 12 15 9 8 -4 15 -10 15 -15z
m1893 6 c-1 -6 -46 -16 -100 -22 -344 -43 -409 -50 -417 -42 -5 5 -8 11 -5 13
2 2 87 14 189 26 102 12 212 25 245 30 71 9 91 8 88 -5z m-2473 -5 c0 -5 -7
-10 -15 -10 -8 0 -15 5 -15 10 0 6 7 10 15 10 8 0 15 -4 15 -10z m445 0 c-4
-6 -72 -10 -171 -10 -103 0 -164 4 -164 10 0 6 64 10 171 10 111 0 168 -3 164
-10z m2033 -42 c-8 -13 -45 -74 -83 -135 -58 -98 -85 -131 -85 -107 0 4 27 51
60 106 56 93 68 118 54 118 -13 0 -411 -51 -430 -55 -15 -3 -45 -44 -98 -135
-110 -185 -266 -463 -266 -472 0 -5 6 -8 13 -8 14 0 320 44 385 55 27 5 40 17
69 63 44 69 42 67 49 59 3 -3 -11 -35 -31 -71 -27 -49 -42 -66 -63 -70 -15 -3
-97 -17 -182 -31 -85 -14 -179 -30 -209 -35 -76 -14 -106 -13 -93 3 5 6 52 86
104 177 149 260 249 432 271 466 l21 31 230 27 c127 15 238 29 246 30 8 2 23
4 34 5 17 1 17 -1 4 -21z m-2318 -278 l0 -291 -27 15 c-38 19 -79 65 -93 101
-16 41 -14 138 4 205 8 30 24 89 35 130 11 41 21 87 21 103 0 23 4 27 30 27
l30 0 0 -290z m50 -6 c0 -276 -1 -295 -17 -292 -17 3 -18 26 -21 296 -2 287
-2 292 18 292 20 0 20 -6 20 -296z m60 1 c0 -288 0 -295 -20 -295 -20 0 -20 7
-20 295 0 288 0 295 20 295 20 0 20 -7 20 -295z m60 0 l0 -295 -24 0 -24 0 -1
295 -2 295 26 0 25 0 0 -295z m50 6 c0 -239 -2 -290 -14 -294 -8 -3 -17 -3
-20 0 -3 4 -6 136 -6 295 0 281 0 288 20 288 20 0 20 -7 20 -289z m75 226 c5
-47 3 -73 -9 -101 -25 -61 -21 -94 17 -130 l34 -32 -5 -83 c-5 -82 -6 -85 -44
-123 -22 -22 -41 -38 -43 -36 -1 2 -5 130 -9 286 l-6 282 29 0 c29 0 30 -2 36
-63z m912 10 c28 -24 64 -53 79 -65 24 -18 26 -21 10 -22 -10 0 -37 15 -60 34
-95 79 -111 95 -95 96 8 0 38 -20 66 -43z m577 15 c3 -4 -8 -28 -23 -53 -30
-48 -225 -382 -345 -591 -24 -44 -46 -62 -46 -39 0 21 388 691 400 691 5 0 11
-4 14 -8z m458 -34 c-11 -18 -40 -66 -65 -107 -35 -59 -52 -77 -78 -85 -19 -6
-38 -21 -44 -33 -5 -13 -18 -23 -29 -23 -21 0 -56 -27 -56 -43 0 -6 -7 -18
-16 -28 -13 -14 -14 -26 -5 -74 10 -55 10 -59 -21 -111 -27 -45 -37 -54 -68
-58 -19 -3 -111 -17 -203 -31 -93 -15 -170 -25 -172 -23 -3 3 24 52 230 408
118 205 80 180 316 211 112 14 210 27 217 28 10 1 8 -8 -6 -31z m-832 -113
c32 -16 56 -43 65 -75 8 -24 7 -24 -16 -7 -48 34 -77 46 -130 53 -69 9 -59 -2
22 -24 61 -16 64 -19 72 -55 7 -27 6 -42 -2 -50 -8 -8 -11 -7 -11 6 0 9 -9 21
-21 27 -35 19 -109 39 -109 29 0 -5 21 -15 46 -21 51 -14 85 -51 66 -70 -8 -8
-24 -6 -57 7 -25 9 -49 15 -52 11 -3 -3 7 -10 23 -16 63 -22 75 -38 47 -65
-11 -11 -18 -14 -21 -6 -5 14 -69 15 -77 1 -13 -21 -86 -50 -125 -50 -29 0
-73 -16 -158 -59 -64 -32 -148 -71 -187 -86 -72 -29 -214 -55 -298 -55 l-48 0
26 45 c30 50 55 133 55 182 0 23 6 36 22 44 12 7 92 16 178 20 153 7 271 30
345 65 17 8 63 50 103 93 l72 80 73 -6 c39 -3 83 -11 97 -18z m-1080 -27 c0
-5 -9 -8 -20 -8 -18 0 -19 3 -9 21 9 17 13 19 20 8 5 -8 9 -17 9 -21z m10 -55
c0 -25 0 -26 -20 -8 -11 10 -20 22 -20 27 0 4 9 8 20 8 15 0 20 -7 20 -27z
m1880 -24 c0 -24 -29 -39 -74 -39 -27 0 -36 4 -37 18 -1 15 -2 16 -6 0 -5 -18
-33 -14 -33 5 0 6 3 8 6 4 4 -3 13 0 21 8 8 8 30 15 48 15 19 0 36 4 40 10 9
15 35 0 35 -21z m-1637 -20 c85 -34 97 -55 40 -64 -21 -4 -51 -11 -67 -16 -43
-13 -43 -13 -51 37 -3 26 -9 53 -12 60 -7 20 3 18 90 -17z m926 -11 c17 -28
-4 -22 -41 12 l-33 29 31 -11 c17 -6 36 -20 43 -30z m-34 -18 c3 -5 19 -13 35
-17 l29 -8 -77 -135 c-72 -125 -80 -135 -110 -138 l-31 -3 35 53 c33 48 85
152 84 167 -1 3 -10 -12 -21 -34 -12 -22 -41 -72 -65 -112 l-45 -72 -53 -6
c-89 -11 -91 -8 -36 65 27 36 50 69 50 74 0 6 -10 -4 -22 -20 -13 -17 -42 -52
-66 -79 -40 -45 -46 -49 -100 -53 l-57 -5 58 61 c79 83 72 88 -10 7 -37 -36
-76 -68 -88 -70 -11 -2 -67 -6 -125 -9 l-105 -5 50 18 c28 10 103 46 167 80
88 47 130 63 167 66 47 4 104 25 115 44 3 5 25 6 50 4 37 -5 47 -2 65 18 39
44 48 56 67 88 19 32 29 38 39 21z m662 -10 c56 0 61 -2 56 -20 -9 -33 -37
-42 -96 -31 -72 13 -110 29 -101 42 5 8 9 8 14 -1 5 -8 9 -7 14 5 4 12 13 15
29 11 12 -3 50 -6 84 -6z m-80 -64 c34 -7 75 -11 90 -8 27 5 27 5 12 -19 -19
-29 -66 -36 -122 -19 -31 9 -37 15 -32 31 8 23 -10 26 -23 3 -6 -11 -11 -13
-16 -5 -9 14 1 31 17 31 7 -1 40 -7 74 -14z m-80 -68 c-3 -8 -6 -5 -6 6 -1 11
2 17 5 13 3 -3 4 -12 1 -19z m118 -1 l40 1 -27 -23 c-24 -20 -33 -22 -60 -14
-18 5 -34 9 -35 9 -1 0 -7 10 -14 21 -11 21 -10 22 22 14 19 -5 52 -8 74 -8z
m395 -82 c30 -9 127 -34 215 -56 88 -22 177 -45 198 -50 l38 -10 -25 -20 c-33
-26 -50 -78 -36 -113 9 -24 8 -27 -7 -22 -10 3 -117 35 -238 72 -121 36 -239
72 -263 79 -60 18 -72 31 -72 76 0 71 53 83 190 44z m-2270 -55 c0 -13 -7 -20
-20 -20 -25 0 -27 27 -2 33 9 3 18 5 20 6 1 0 2 -8 2 -19z m-170 -5 c0 -8 -9
-15 -20 -15 -11 0 -20 7 -20 15 0 8 9 15 20 15 11 0 20 -7 20 -15z m120 -5 c0
-13 -7 -20 -19 -20 -28 0 -35 28 -8 33 12 2 23 5 25 6 1 0 2 -8 2 -19z m2110
-12 c7 -18 15 -36 17 -39 4 -7 -46 -16 -157 -29 -41 -5 -118 -15 -170 -23
-162 -25 -185 -26 -227 -7 l-38 17 30 6 c17 4 67 12 113 18 73 10 85 15 100
38 9 14 18 28 20 31 3 5 139 15 247 18 48 2 51 0 65 -30z m-2170 7 c0 -8 -9
-15 -20 -15 -11 0 -20 7 -20 15 0 8 9 15 20 15 11 0 20 -7 20 -15z m5 -30 c33
0 81 4 108 8 32 6 47 5 47 -3 0 -21 -56 -33 -155 -33 -100 0 -155 12 -155 34
0 8 14 9 48 3 26 -5 74 -9 107 -9z m1235 -30 c-13 -24 -12 -28 13 -52 l26 -27
123 21 c68 11 124 19 126 17 2 -1 -2 -12 -8 -24 -9 -16 -9 -29 0 -49 9 -24 34
-35 193 -94 275 -102 302 -109 372 -102 33 4 83 13 110 20 28 8 108 21 179 29
88 11 145 23 180 39 29 13 65 23 81 21 17 -2 57 -6 90 -10 90 -10 167 9 203
50 22 25 33 31 48 25 10 -5 74 -25 142 -46 67 -20 122 -40 122 -43 0 -3 -100
-13 -222 -23 -123 -10 -342 -29 -488 -42 -241 -22 -474 -43 -851 -76 l-136
-12 -41 28 c-23 15 -42 31 -42 35 0 3 28 11 63 16 40 6 62 14 62 22 0 8 -88
54 -205 108 l-205 94 -55 -10 c-30 -6 -65 -13 -77 -15 -15 -4 -23 1 -28 16 -5
16 -9 18 -21 8 -12 -10 -20 -7 -43 15 -19 18 -31 24 -36 17 -4 -8 -15 -5 -32
9 -14 11 -35 20 -46 20 -17 0 -19 -5 -14 -34 5 -30 3 -35 -19 -39 -13 -2 -24
-1 -24 2 0 8 -60 31 -82 31 -13 0 -14 4 -5 23 11 23 16 24 276 41 146 10 268
20 270 22 12 11 13 -9 1 -31z m1653 -7 c50 -26 60 -72 27 -125 -31 -52 -49
-56 -194 -50 -117 4 -135 3 -170 -15 -46 -24 -143 -44 -251 -53 -44 -3 -102
-12 -130 -20 -106 -28 -183 -27 -193 3 -3 9 3 10 22 2 49 -18 78 46 34 73 -13
8 -90 36 -173 63 l-150 49 125 14 c69 8 127 18 130 22 3 3 37 9 75 12 39 2 95
11 126 18 55 12 61 12 180 -25 68 -21 169 -51 224 -68 275 -82 273 -82 316
-39 45 45 36 109 -17 125 -25 7 -59 -18 -68 -50 -9 -31 24 -69 52 -60 25 8 40
52 24 68 -15 15 -42 2 -42 -19 0 -15 2 -16 10 -3 7 11 12 12 20 4 14 -14 -14
-39 -35 -30 -29 11 -9 76 23 76 43 0 57 -65 22 -100 -41 -41 -90 -14 -90 49 0
43 30 78 78 90 2 1 13 -4 25 -11z m-2357 -21 c-10 -7 -32 -23 -47 -35 -23 -19
-29 -20 -29 -8 0 30 -21 27 -55 -7 -20 -20 -35 -45 -35 -58 0 -24 -1 -23 -23
5 l-24 29 -11 -33 c-16 -45 -15 -81 3 -107 15 -21 14 -22 -17 -25 -28 -2 -33
-7 -33 -28 0 -14 5 -24 12 -23 88 17 91 17 98 -16 7 -35 57 -81 86 -81 16 0
19 5 14 23 -18 62 -18 62 26 21 77 -73 206 -92 142 -22 -13 15 -6 13 35 -8 47
-24 57 -26 96 -17 33 7 50 7 68 -3 32 -17 21 -20 -157 -33 -82 -7 -224 -18
-313 -26 l-164 -14 -61 29 c-34 15 -208 96 -387 180 -179 84 -337 157 -352
162 -16 6 -28 13 -28 18 0 4 53 10 118 14 64 4 151 9 192 12 58 5 80 2 95 -9
20 -15 19 -16 -8 -41 -29 -27 -33 -46 -17 -76 31 -58 338 -74 445 -23 29 14
35 22 35 49 0 24 -7 38 -27 52 -16 11 -26 22 -23 24 3 3 28 18 55 34 42 24 68
31 160 40 61 6 119 12 130 12 19 1 19 0 1 -11z m93 9 c-2 -2 -14 -9 -26 -15
-19 -10 -23 -9 -23 4 0 10 9 15 27 15 14 0 24 -2 22 -4z m19 -42 c-24 -25 -78
-42 -78 -25 0 20 49 49 85 50 18 1 17 -1 -7 -25z m222 16 c11 -6 25 -20 31
-33 12 -21 11 -21 -8 -4 -30 27 -39 20 -12 -9 23 -26 23 -26 2 -15 -23 11 -43
40 -43 60 0 14 6 14 30 1z m-324 -28 c-17 -33 -44 -58 -53 -49 -3 4 -12 2 -20
-4 -28 -24 -11 10 22 44 45 47 73 51 51 9z m1082 5 c31 -12 123 -45 203 -72
l146 -49 -12 -31 c-7 -16 -10 -36 -7 -44 3 -11 0 -12 -14 -6 -29 11 -283 104
-334 122 -57 19 -70 30 -70 57 0 19 16 46 27 46 2 0 29 -10 61 -23z m-658 -53
c0 -19 -26 -18 -34 2 -3 9 -6 25 -6 37 1 22 1 22 20 -2 11 -13 20 -29 20 -37z
m-545 -30 c-17 -42 -31 -42 -15 1 6 15 8 30 6 32 -3 3 -10 -14 -17 -36 -15
-49 -23 -48 -14 2 4 19 17 46 28 58 l22 24 3 -22 c2 -11 -4 -38 -13 -59z m314
67 c12 -8 9 -11 -11 -16 -14 -4 -37 -5 -49 -2 -21 4 -20 5 6 7 30 2 30 2 5 10
-24 8 -24 8 5 9 17 0 37 -3 44 -8z m624 -97 c103 -48 185 -89 182 -92 -3 -3
-33 -11 -67 -17 -91 -18 -202 -42 -290 -63 l-77 -19 -46 29 c-46 29 -47 30
-29 49 15 16 16 22 5 29 -11 6 -11 12 3 31 20 29 21 59 1 59 -10 0 -15 10 -15
28 0 27 3 29 58 39 31 6 64 11 72 12 8 1 99 -38 203 -85z m-1402 59 c53 -3
118 -1 147 6 51 11 52 10 82 -21 17 -17 29 -39 28 -47 -6 -30 -76 -45 -218
-45 -146 0 -212 14 -218 47 -5 24 48 79 68 71 8 -4 58 -9 111 -11z m831 -2
l21 -20 -29 -7 c-16 -4 -33 -13 -39 -19 -5 -7 -45 -18 -87 -25 -43 -7 -78 -17
-78 -21 0 -5 14 -16 32 -25 l32 -16 -33 -14 c-29 -12 -35 -12 -48 2 -10 10
-28 14 -49 12 -26 -3 -31 -1 -22 9 7 9 7 17 -1 27 -13 15 -11 16 54 31 35 8
57 24 49 36 -3 5 7 4 22 -1 33 -13 85 -4 78 14 -3 7 9 16 28 22 47 16 47 16
70 -5z m73 4 l30 -13 -31 -1 c-16 -1 -39 6 -50 14 -19 14 -19 14 1 14 11 0 34
-6 50 -14z m144 -27 c-1 -37 -2 -39 -9 -18 l-8 25 -2 -25 c-2 -19 -3 -21 -7
-7 -6 24 5 67 17 67 6 0 10 -19 9 -42z m-1419 -86 c107 -49 231 -107 275 -127
44 -21 136 -64 205 -95 l124 -58 4 -56 c2 -31 1 -56 -1 -56 -6 0 -128 57 -332
155 -77 37 -221 105 -320 152 -99 47 -186 90 -192 95 -7 6 -13 32 -13 59 l0
50 28 -15 c15 -7 115 -54 222 -104z m1072 100 c12 -14 9 -15 -26 -9 -53 9 -68
25 -22 25 20 0 41 -7 48 -16z m-97 -2 c3 -6 -1 -7 -9 -4 -18 7 -21 14 -7 14 6
0 13 -4 16 -10z m-212 -45 c9 -20 17 -46 17 -58 -1 -22 -1 -21 -16 3 l-15 25
6 -25 c6 -24 5 -24 -9 -6 -16 20 -22 96 -8 96 5 0 16 -16 25 -35z m195 28 c30
-7 10 -23 -30 -23 -40 0 -63 11 -46 21 15 10 44 11 76 2z m333 -27 c23 -20 26
-26 15 -36 -11 -8 -25 -6 -60 12 -60 30 -59 36 8 47 4 0 21 -10 37 -23z m49
14 c12 -8 11 -10 -7 -10 -12 0 -25 5 -28 10 -8 13 15 13 35 0z m-455 -28 c-6
-5 -22 -13 -37 -20 -31 -13 -39 1 -10 17 20 12 60 15 47 3z m348 -21 l28 -18
-26 -17 c-14 -9 -25 -12 -25 -6 0 31 -86 -8 -120 -55 -14 -19 -29 -35 -33 -35
-4 0 4 16 18 35 30 39 28 47 -15 65 -16 7 -30 16 -30 20 0 9 84 27 135 29 24
0 51 -6 68 -18z m127 -4 c0 -13 -7 -32 -16 -43 -15 -19 -15 -18 -11 4 3 12 1
20 -4 16 -5 -3 -9 -14 -9 -24 0 -10 -4 -22 -10 -25 -23 -14 -3 42 28 78 20 22
22 22 22 -6z m90 16 c0 -13 -44 -53 -59 -53 -11 0 -10 4 5 16 10 8 12 13 4 9
-8 -4 -4 3 9 14 23 21 41 27 41 14z m997 -18 c8 -22 -2 -28 -32 -21 -22 6 -25
9 -15 21 16 19 39 19 47 0z m-1582 -31 c-39 -30 -55 -36 -55 -20 0 18 27 35
55 35 l20 0 -20 -15z m405 -33 c-11 -27 -30 -40 -67 -47 -28 -5 1 39 44 67 34
23 39 18 23 -20z m2440 -15 l0 -54 -52 -6 c-29 -3 -280 -26 -558 -51 -278 -25
-552 -49 -610 -55 -58 -5 -181 -17 -275 -25 -93 -9 -214 -20 -268 -25 -54 -6
-108 -10 -120 -10 -32 1 -9 12 91 46 76 25 98 43 72 59 -25 16 -3 23 88 29 53
4 165 13 247 21 83 8 233 21 335 30 102 8 230 20 285 25 55 5 183 17 285 26
102 8 241 22 310 29 189 19 170 24 170 -39z m-2520 23 c0 -19 -60 -68 -80 -66
-27 2 -25 8 8 39 37 35 72 48 72 27z m-240 -7 c0 -12 -46 -32 -71 -32 -27 0
-14 20 14 21 16 1 17 3 5 6 -9 2 -27 -1 -40 -8 -21 -11 -22 -11 -9 4 14 18
101 25 101 9z m118 -4 c-5 -15 -66 -58 -82 -58 -6 0 0 10 14 21 l25 20 -35
-16 c-30 -15 -33 -15 -20 -2 34 35 106 60 98 35z m362 3 c0 -14 -56 -33 -86
-28 -29 4 -29 4 3 6 17 0 34 5 37 10 4 5 -4 7 -16 4 -19 -4 -20 -3 -8 6 18 13
70 15 70 2z m-680 -5 c0 -2 -13 -6 -30 -8 -16 -3 -30 -1 -30 4 0 4 14 8 30 8
17 0 30 -2 30 -4z m205 -26 c-3 -5 -11 -10 -16 -10 -6 0 -7 5 -4 10 3 6 11 10
16 10 6 0 7 -4 4 -10z m-985 -931 l0 -890 -40 28 -40 28 0 883 0 882 40 -20
40 -20 0 -891z m853 916 c-6 19 -6 19 14 2 23 -20 36 -54 23 -62 -11 -7 -60
45 -60 63 0 13 3 12 15 -4 15 -19 15 -19 8 1z m639 -25 c26 -16 56 -30 66 -30
9 0 79 14 154 31 76 17 148 29 160 26 25 -7 137 -102 128 -109 -5 -5 -47 -20
-316 -117 -232 -84 -206 -84 -250 -1 -39 75 -86 122 -159 161 -25 13 -45 28
-45 33 0 4 10 2 23 -7 34 -22 78 -27 116 -14 38 13 53 37 24 37 -15 0 -16 2
-3 10 25 16 51 11 102 -20z m-137 8 c18 -8 22 -14 13 -20 -21 -13 -73 -9 -94
7 -18 14 -17 15 11 9 23 -4 26 -3 15 5 -12 9 -11 11 7 11 12 0 34 -5 48 -12z
m-296 -43 c18 -17 21 -25 11 -25 -33 0 -88 21 -105 40 -18 20 -18 21 0 14 12
-5 16 -4 11 4 -12 21 57 -7 83 -33z m153 11 c22 -16 13 -26 -24 -26 -28 0 -88
25 -88 36 0 3 5 2 10 -1 6 -3 10 -1 10 6 0 14 65 3 92 -15z m-1117 -187 l54
-31 -5 -761 c-3 -419 -9 -765 -13 -768 -3 -4 -27 -9 -53 -12 l-48 -5 2 892 c1
490 4 852 5 803 l4 -87 54 -31z m141 100 c93 -45 213 -102 267 -127 l97 -46 0
-68 c0 -37 -4 -68 -9 -68 -5 0 -125 56 -265 125 l-256 124 0 55 c0 30 -3 61
-6 70 -3 9 -4 16 -1 16 2 0 80 -36 173 -81z m3344 -828 l0 -899 -32 -10 c-18
-6 -50 -13 -71 -17 l-37 -6 2 908 3 908 60 6 c33 3 63 6 68 7 4 1 7 -403 7
-897z m-200 805 c0 -87 13 -80 -170 -96 -63 -6 -133 -13 -155 -15 -22 -3 -92
-10 -155 -15 -164 -15 -399 -37 -585 -55 -298 -29 -360 -35 -640 -60 -154 -14
-370 -34 -480 -45 -110 -11 -217 -20 -237 -20 l-38 0 0 79 0 79 78 7 c42 4
140 13 217 21 205 21 211 20 230 -17 9 -17 22 -29 28 -26 85 31 80 31 132 -2
55 -35 104 -40 145 -15 14 9 17 12 5 8 -41 -17 -99 -9 -138 18 l-39 26 59 22
c68 26 180 41 503 69 457 40 953 85 1095 100 44 5 95 9 113 10 l32 1 0 -74z
m40 -826 c0 -495 -3 -900 -7 -900 -5 0 -26 11 -48 23 l-40 23 0 784 0 785 35
5 35 5 3 88 c1 48 7 87 12 87 6 0 10 -331 10 -900z m-2062 838 c29 -29 13 -37
-75 -41 l-88 -4 98 1 c75 0 101 -4 108 -15 18 -29 37 -25 -371 -64 -85 -8
-191 -17 -235 -20 -44 -3 -92 -9 -107 -11 -28 -6 -28 -6 -28 54 l0 59 153 13
c83 7 208 19 277 25 170 17 253 18 268 3z m-468 -1113 l0 -944 -37 -7 c-21 -3
-55 -10 -75 -14 l-38 -8 0 622 c0 343 -3 772 -7 954 l-6 330 29 5 c16 2 53 5
82 6 l52 1 0 -945z m-180 -16 l0 -950 -45 31 -45 31 0 918 0 918 45 1 45 0 0
-949z m2070 332 l0 -618 -37 -7 c-81 -13 -73 -80 -73 613 l0 620 23 4 c12 2
37 5 55 6 l32 1 0 -619z m-130 -12 l0 -621 -32 19 -33 19 -3 330 c-3 338 1
400 39 559 29 123 23 191 -23 257 -29 42 -23 50 40 57 9 1 12 -129 12 -620z
m-100 572 c14 -10 33 -33 43 -52 26 -48 18 -170 -17 -262 -14 -37 -21 -65 -16
-62 6 3 10 4 10 2 0 -27 -53 -253 -96 -412 -30 -109 -54 -204 -54 -210 0 -5
-19 -19 -42 -29 -37 -17 -46 -18 -92 -6 -28 7 -56 17 -63 22 -8 6 -12 41 -11
101 0 51 -7 141 -16 201 -21 134 -16 187 31 328 25 75 33 115 29 134 -5 19
-10 24 -15 15 -7 -10 -16 -10 -48 -1 l-39 12 50 56 c118 133 165 168 236 182
44 9 78 3 110 -19z m-340 -119 c-77 -78 -152 -146 -174 -156 -104 -49 -170
-29 -276 80 -81 85 -116 104 -187 104 -109 0 -202 -77 -249 -207 -28 -76 -108
-183 -125 -166 -5 5 -24 40 -42 78 -40 81 -56 97 -115 114 -24 7 -61 28 -83
48 -33 30 -39 42 -39 74 0 34 3 39 23 39 12 0 90 7 172 15 206 20 197 21 157
-16 -36 -34 -86 -108 -78 -116 2 -3 11 8 19 24 21 39 110 121 139 127 36 7
225 26 264 26 26 0 51 -13 107 -55 86 -66 158 -95 230 -94 l52 1 -50 8 c-90
14 -167 52 -265 130 l-25 20 26 0 c15 0 43 -7 62 -15 39 -16 149 -19 182 -5
13 5 1 6 -32 3 -58 -6 -146 4 -138 17 3 4 47 11 97 14 51 4 135 12 186 17 52
6 96 8 99 6 2 -3 -22 -23 -54 -45 -53 -36 -119 -65 -168 -75 -11 -3 -1 -3 22
-1 56 5 122 37 180 87 48 43 51 44 198 55 15 2 -21 -41 -115 -136z m-1637 27
c17 -8 24 -19 23 -35 0 -13 -2 -24 -2 -24 -1 0 -30 13 -65 29 l-64 29 40 4
c22 3 41 5 42 6 1 1 13 -3 26 -9z m22 -147 c0 -34 -1 -62 -3 -62 -1 0 -38 18
-82 40 l-80 40 0 60 0 59 83 -38 82 -38 0 -61z m1065 101 c51 -30 64 -66 71
-208 5 -85 15 -156 29 -205 17 -60 23 -119 30 -290 5 -118 13 -237 19 -263 13
-57 9 -67 -27 -67 -15 0 -38 -7 -50 -16 -17 -11 -34 -14 -63 -9 -38 7 -43 11
-66 64 -13 31 -58 124 -99 206 -87 176 -104 241 -104 407 0 132 -3 146 -36
159 -30 11 -30 25 0 92 57 129 196 190 296 130z m-650 -152 c25 -11 53 -21 62
-21 10 0 22 -9 28 -19 19 -37 -23 -34 -104 6 -69 34 -76 40 -76 67 l0 29 23
-21 c12 -11 42 -30 67 -41z m876 -30 c62 -16 139 0 195 41 35 25 48 29 81 25
69 -9 66 -14 -56 -87 -94 -56 -150 -67 -260 -50 l-86 13 0 58 c0 31 -3 66 -7
76 -4 11 12 1 40 -23 29 -26 65 -46 93 -53z m-1375 29 c22 -13 23 -52 12 -572
-6 -304 -7 -316 -25 -305 -17 11 -18 35 -18 449 0 241 3 438 6 438 3 0 14 -5
25 -10z m1697 -62 c-12 -29 -22 -54 -23 -56 -1 -1 -42 -7 -91 -13 -49 -6 -140
-17 -203 -24 -63 -8 -118 -12 -123 -9 -4 3 -8 14 -8 26 0 19 3 20 58 12 105
-16 174 -10 244 23 36 17 84 44 108 62 24 17 47 31 51 31 4 0 -2 -24 -13 -52z
m-1635 30 c15 -12 17 -56 22 -431 l5 -419 -22 -6 c-13 -3 -25 -4 -28 -1 -7 6
-6 869 1 869 3 0 13 -6 22 -12z m487 -125 c0 -40 -3 -73 -6 -73 -4 0 -35 14
-70 31 l-64 32 0 73 0 73 70 -32 69 -32 1 -72z m78 34 c39 -87 80 -103 181
-70 50 16 75 13 54 -8 -11 -11 -280 -42 -294 -33 -5 3 -9 36 -9 74 0 69 2 72
42 79 4 0 16 -19 26 -42z m233 2 c6 -11 9 -22 7 -24 -9 -8 -142 -45 -146 -40
-3 3 4 12 16 21 29 20 72 66 72 77 0 14 39 -13 51 -34z m795 -61 c-16 -83 -17
-139 -2 -226 16 -94 22 -293 9 -306 -7 -7 -12 -73 -13 -161 0 -34 -41 -155
-52 -155 -5 0 -8 195 -8 434 0 474 -4 441 54 445 16 1 18 -4 12 -31z m-86
-414 l0 -436 -22 14 -23 15 -3 409 c-1 225 0 415 3 421 2 7 14 13 25 13 20 0
20 -4 20 -436z m-1027 334 c16 -12 17 -49 15 -462 l-3 -448 -22 18 c-23 19
-23 22 -24 309 -2 463 0 595 9 595 5 0 16 -6 25 -12z m137 -448 c0 -352 -3
-451 -12 -455 -7 -2 -30 -6 -50 -10 l-38 -6 0 461 0 460 50 0 50 0 0 -450z
m298 3 c3 -35 0 -63 -5 -63 -24 0 -33 28 -33 99 0 74 0 75 17 51 10 -15 19
-50 21 -87z m37 -33 c19 -37 19 -42 -2 -38 -11 2 -16 14 -17 36 -1 17 0 32 1
32 1 0 9 -13 18 -30z m803 -30 c23 0 32 -5 32 -16 0 -14 -8 -16 -49 -11 -62 7
-121 32 -121 50 0 11 10 11 53 -4 28 -10 67 -18 85 -19z m112 25 c0 -3 -12
-10 -26 -15 -26 -10 -26 -12 -22 -93 2 -59 9 -90 22 -110 10 -15 21 -25 24
-22 3 3 -3 14 -14 26 -15 17 -19 36 -19 102 0 52 4 82 12 84 8 3 10 -18 6 -76
l-6 -80 58 -60 c31 -33 81 -77 111 -97 56 -39 67 -51 37 -40 -15 5 -15 4 1 -9
11 -8 15 -15 9 -15 -24 0 -134 84 -192 146 l-61 65 0 93 c0 51 3 96 7 99 8 8
53 9 53 2z m-131 -75 c32 0 56 -14 47 -28 -4 -6 -27 -6 -69 2 -71 14 -87 21
-87 41 0 12 6 12 41 0 23 -8 53 -15 68 -15z m14 -55 c24 -4 37 -11 37 -21 0
-13 -8 -15 -42 -9 -96 15 -146 35 -134 53 4 7 22 6 54 -4 26 -7 64 -16 85 -19z
m-473 -19 c0 -16 -18 -31 -27 -22 -8 8 5 36 17 36 5 0 10 -6 10 -14z m-35 -83
c20 -87 58 -169 116 -255 44 -65 47 -78 19 -78 -37 0 -137 175 -170 297 -23
85 -22 113 4 113 9 0 20 -26 31 -77z m439 62 c27 -8 61 -15 76 -15 20 0 33
-10 53 -41 l27 -41 -24 -23 c-30 -27 -66 -96 -66 -125 0 -44 -33 -15 -61 53
-15 38 -39 85 -53 106 -26 38 -31 57 -20 85 7 19 7 19 68 1z m-548 -15 c24 0
34 -5 34 -15 0 -28 -113 -17 -124 12 -5 13 -1 14 25 9 17 -3 47 -6 65 -6z
m144 -26 c0 -8 -5 -12 -10 -9 -6 4 -8 11 -5 16 9 14 15 11 15 -7z m-100 -39
c0 -11 -12 -15 -44 -15 -26 0 -48 6 -56 15 -11 13 -5 15 44 15 43 0 56 -3 56
-15z m475 -80 c28 -61 41 -104 27 -90 -5 6 -15 28 -22 50 -7 22 -26 59 -41 83
-16 24 -29 46 -29 50 1 15 43 -45 65 -93z m-364 52 c-8 -8 -11 -7 -11 4 0 20
13 34 18 19 3 -7 -1 -17 -7 -23z m345 -82 c13 -31 24 -57 24 -59 0 -5 -65 10
-79 18 -12 8 -15 93 -5 121 6 14 8 13 21 -4 8 -12 25 -46 39 -76z m-443 61 c4
-10 -4 -15 -24 -18 -44 -7 -89 3 -89 18 0 20 106 20 113 0z m680 8 c3 -4 -10
-25 -29 -48 -19 -22 -38 -53 -41 -69 -6 -31 -18 -43 -28 -27 -25 40 67 175 98
144z m-541 -88 c-3 -5 -13 6 -23 25 -9 19 -15 38 -12 42 6 11 41 -55 35 -67z
m559 6 c-16 -21 -33 -49 -37 -64 -13 -40 -39 -21 -29 21 10 46 63 105 81 90
11 -9 8 -18 -15 -47z m-671 -2 c11 -27 11 -32 -6 -45 -11 -8 -22 -15 -27 -15
-4 0 -21 -21 -37 -47 l-30 -47 0 55 c-1 29 -7 65 -15 79 -25 44 -20 50 44 50
56 0 59 -1 71 -30z m733 14 c3 -3 -5 -18 -19 -32 -13 -15 -27 -41 -30 -59 -4
-22 -10 -30 -21 -26 -18 7 -10 43 19 91 18 30 37 40 51 26z m40 -30 c4 -4 -5
-20 -18 -36 -14 -16 -25 -41 -25 -55 0 -32 -24 -25 -28 9 -2 16 7 37 23 57 27
31 36 36 48 25z m151 -15 c-3 -5 6 -13 19 -18 14 -6 28 -15 32 -20 7 -12 -39
5 -62 22 -8 6 -13 6 -13 0 0 -5 20 -19 45 -31 27 -13 45 -28 45 -39 0 -14 -3
-14 -19 4 -11 12 -40 29 -65 38 -25 10 -46 19 -46 21 0 2 7 12 16 23 16 18 60
18 48 0z m-769 -27 c-9 -9 -35 8 -35 24 0 16 2 16 20 -1 11 -10 18 -20 15 -23z
m310 -16 c73 -9 133 -26 205 -59 30 -14 75 -28 100 -31 25 -4 64 -12 87 -17
33 -9 51 -8 92 6 28 9 55 24 61 33 9 16 9 16 10 -1 0 -9 -15 -27 -32 -38 -29
-18 -44 -20 -118 -16 -80 5 -109 13 -265 70 -22 9 -69 20 -105 27 -98 18 -153
34 -158 48 -2 8 5 8 30 -2 18 -7 60 -17 93 -20z m378 7 c4 -7 17 -13 28 -13
15 0 19 -6 17 -22 -3 -21 1 -23 34 -21 27 2 36 -1 32 -11 -10 -26 -47 -34 -94
-20 -25 8 -60 14 -77 14 -29 0 -33 3 -33 25 0 34 43 77 67 68 10 -4 22 -12 26
-20z m-806 0 c2 -6 -11 -20 -30 -32 -18 -11 -45 -37 -60 -58 -23 -32 -27 -34
-27 -16 0 32 82 126 104 120 6 -2 11 -8 13 -14z m-148 -56 c1 -10 -3 -15 -9
-12 -5 3 -10 23 -9 43 1 33 2 34 9 12 4 -14 8 -33 9 -43z m302 27 c11 -14 10
-15 -11 -12 -13 1 -25 9 -28 16 -5 17 23 15 39 -4z m-127 -19 c4 -10 -7 -21
-33 -35 -22 -11 -51 -34 -65 -52 -28 -36 -35 -24 -11 22 16 30 72 80 91 80 7
0 14 -7 18 -15z m866 5 c0 -5 -9 -10 -21 -10 -11 0 -17 5 -14 10 3 6 13 10 21
10 8 0 14 -4 14 -10z m-706 -26 c9 -3 16 -10 16 -15 0 -15 -37 -10 -50 6 -10
12 -10 15 3 15 8 0 22 -3 31 -6z m-315 -81 c6 -13 10 -23 8 -23 -7 0 -57 75
-57 84 0 11 33 -31 49 -61z m184 53 c4 -9 -6 -19 -26 -27 -18 -8 -49 -29 -69
-47 -21 -19 -38 -29 -38 -22 0 23 47 76 82 93 41 20 45 21 51 3z m197 -46 c12
-16 18 -30 14 -30 -4 0 3 -11 16 -25 19 -21 21 -27 10 -40 -24 -28 -63 -14
-85 30 -11 22 -26 41 -33 43 -8 1 -12 -1 -10 -5 29 -57 38 -87 29 -96 -14 -14
-41 -1 -41 22 0 10 -9 29 -21 42 -20 23 -21 18 -3 -26 4 -10 0 -15 -10 -15 -9
0 -16 -5 -16 -11 0 -6 9 -8 20 -4 24 8 27 -10 3 -19 -20 -8 -28 -1 -43 46 -6
21 -16 41 -22 45 -8 4 -9 0 -4 -13 4 -10 10 -31 13 -46 8 -42 -23 -36 -41 7
-18 43 -28 45 -19 5 4 -22 2 -30 -9 -30 -21 0 -51 36 -45 54 10 25 74 67 103
66 16 0 42 -1 58 -1 15 -1 36 6 44 15 27 26 68 20 92 -14z m-193 -166 c72 -9
174 1 212 21 38 19 47 19 31 0 -42 -50 -240 -59 -320 -14 -24 13 -45 30 -48
37 -2 7 12 2 32 -12 22 -15 59 -27 93 -32z"/>
<path d="M5117 5033 c-3 -5 6 -9 20 -9 13 -1 36 -13 50 -25 26 -24 26 -24 14
-2 -18 34 -71 57 -84 36z"/>
<path d="M5278 5005 c17 -8 32 -19 32 -25 0 -5 4 -10 10 -10 5 0 7 6 4 14 -5
14 -47 36 -67 36 -7 -1 3 -7 21 -15z"/>
<path d="M5020 4993 c19 -3 43 -12 53 -20 10 -10 17 -11 17 -5 0 17 -35 32
-72 30 l-33 -1 35 -4z"/>
<path d="M4962 4918 c7 -15 15 -23 17 -17 2 6 -4 18 -13 27 -15 15 -15 15 -4
-10z"/>
<path d="M5375 4906 c21 -32 27 -33 16 -4 -4 12 -14 24 -20 26 -8 3 -7 -5 4
-22z"/>
<path d="M5206 4900 c6 -8 16 -24 22 -35 6 -11 12 -15 12 -8 0 7 -10 22 -22
35 -13 13 -18 17 -12 8z"/>
<path d="M4792 4898 c-7 -7 -11 -23 -11 -37 l2 -26 4 25 c3 14 10 31 15 38 13
15 6 16 -10 0z"/>
<path d="M4849 4879 c-10 -6 -7 -9 12 -9 30 0 45 -14 52 -50 l4 -25 2 26 c2
42 -40 77 -70 58z"/>
<path d="M5022 4815 c0 -16 2 -22 5 -12 2 9 2 23 0 30 -3 6 -5 -1 -5 -18z"/>
<path d="M4817 4815 c12 -8 24 -28 26 -43 4 -25 4 -25 6 5 1 23 -5 35 -18 43
-29 15 -38 12 -14 -5z"/>
<path d="M4747 4793 c-9 -9 -9 -71 1 -76 4 -3 7 15 7 39 0 24 0 44 -1 44 0 0
-4 -3 -7 -7z"/>
<path d="M4780 4733 c0 -6 8 -17 18 -24 16 -13 16 -13 2 6 -8 11 -16 22 -17
24 -2 2 -3 0 -3 -6z"/>
<path d="M4800 4654 c0 -6 7 -19 16 -30 14 -18 14 -18 3 6 -14 31 -19 36 -19
24z"/>
<path d="M4830 4654 c0 -13 18 -39 24 -34 2 3 -2 14 -10 24 -8 11 -14 16 -14
10z"/>
<path d="M4730 4611 c0 -17 4 -32 8 -35 4 -2 6 11 4 30 -5 42 -12 45 -12 5z"/>
<path d="M4751 4620 c0 -8 4 -22 9 -30 12 -18 12 -2 0 25 -6 13 -9 15 -9 5z"/>
<path d="M5169 4709 c-49 -7 -82 -21 -111 -47 -30 -25 -20 -33 15 -12 17 11
53 23 78 26 26 3 52 10 59 14 25 16 4 25 -41 19z"/>
<path d="M5301 4664 c0 -12 13 -51 29 -87 35 -77 37 -92 13 -106 -10 -5 -15
-12 -12 -15 10 -10 49 25 49 43 0 10 -13 43 -29 73 -22 40 -27 58 -19 66 8 8
14 7 22 -4 13 -17 46 -9 46 10 0 30 -60 50 -75 26 -4 -6 1 -7 12 -4 15 5 16 4
3 -5 -21 -15 -28 -14 -33 7 -4 13 -5 13 -6 -4z"/>
<path d="M5115 4640 c-17 -11 -24 -20 -15 -20 11 -1 10 -4 -4 -15 -11 -8 -15
-15 -10 -15 6 0 16 6 22 12 10 10 17 10 34 -1 19 -12 23 -11 34 4 8 10 18 14
26 9 10 -6 10 -4 -1 9 -16 20 -43 22 -73 6 -14 -8 -18 -8 -14 0 4 6 21 15 39
20 20 6 25 9 12 10 -11 0 -33 -8 -50 -19z"/>
<path d="M5368 4593 c7 -3 16 -2 19 1 4 3 -2 6 -13 5 -11 0 -14 -3 -6 -6z"/>
<path d="M5185 4570 c-3 -6 1 -7 9 -4 18 7 21 14 7 14 -6 0 -13 -4 -16 -10z"/>
<path d="M4823 4543 c-7 -3 -13 -17 -12 -31 0 -27 0 -27 10 -4 11 28 35 23 32
-6 -2 -14 2 -20 11 -16 9 3 15 -4 18 -21 4 -20 2 -25 -9 -21 -8 3 -11 1 -8 -4
3 -6 17 -10 31 -10 20 0 23 3 16 18 -5 9 -15 30 -23 46 -16 33 -48 56 -66 49z"/>
<path d="M5243 4480 c2 -21 6 -25 32 -22 17 2 34 8 40 13 13 13 -11 12 -36 -1
-16 -9 -21 -7 -29 12 l-10 23 3 -25z"/>
<path d="M5009 4466 c13 -16 51 -41 51 -33 0 2 -15 14 -32 27 -21 15 -28 17
-19 6z"/>
<path d="M5280 4378 c-30 -5 -59 -15 -65 -20 -7 -7 -2 -9 15 -4 14 4 54 12 90
17 36 6 67 13 69 15 7 7 -50 2 -109 -8z"/>
<path d="M5305 4330 l-30 -8 37 -1 c20 0 40 4 43 9 7 11 -6 11 -50 0z"/>
<path d="M5036 4130 c4 -14 13 -36 21 -50 l14 -25 -7 25 c-4 14 -13 36 -21 50
l-14 25 7 -25z"/>
<path d="M5165 4070 c-10 -11 -14 -20 -8 -20 5 0 18 9 28 20 10 11 14 20 8 20
-5 0 -18 -9 -28 -20z"/>
<path d="M4598 4017 c45 -53 61 -87 87 -191 26 -100 34 -89 10 13 -19 77 -56
149 -98 188 l-31 28 32 -38z"/>
<path d="M4771 4013 c67 -113 191 -292 219 -318 25 -23 21 -15 -17 35 -28 36
-87 122 -133 193 -45 70 -84 127 -87 127 -2 0 5 -17 18 -37z"/>
<path d="M4880 3961 c45 -40 168 -117 200 -126 14 -3 -3 10 -38 29 -35 19 -86
52 -115 73 -68 51 -91 63 -47 24z"/>
<path d="M5210 3858 c-24 -28 -62 -59 -85 -69 -22 -10 -33 -19 -24 -19 24 0
104 54 126 86 48 69 43 70 -17 2z"/>
<path d="M4540 3770 c0 -20 84 -264 87 -253 2 5 -17 67 -42 138 -25 72 -45
123 -45 115z"/>
<path d="M4782 3755 c0 -16 2 -22 5 -12 2 9 2 23 0 30 -3 6 -5 -1 -5 -18z"/>
<path d="M4791 3709 c-2 -27 48 -291 65 -341 24 -75 28 -50 4 33 -11 41 -31
130 -44 199 -13 69 -24 118 -25 109z"/>
<path d="M4747 3445 c-4 -66 -9 -131 -12 -145 l-6 -25 11 24 c14 32 28 209 20
241 -4 14 -9 -26 -13 -95z"/>
<path d="M4940 3536 c0 -13 60 -125 70 -131 6 -4 -6 24 -27 62 -40 75 -43 79
-43 69z"/>
<path d="M5341 3890 c-1 -41 -8 -120 -16 -174 -17 -113 -13 -142 5 -39 17 96
26 223 19 258 -4 20 -7 4 -8 -45z"/>
<path d="M5432 3495 c0 -16 2 -22 5 -12 2 9 2 23 0 30 -3 6 -5 -1 -5 -18z"/>
<path d="M3803 3685 c0 -27 2 -38 4 -22 2 15 2 37 0 50 -2 12 -4 0 -4 -28z"/>
<path d="M3792 3610 c0 -14 2 -19 5 -12 2 6 2 18 0 25 -3 6 -5 1 -5 -13z"/>
<path d="M3771 3539 c-7 -22 -10 -43 -7 -46 2 -3 10 14 16 37 6 23 9 44 7 46
-2 2 -9 -14 -16 -37z"/>
<path d="M4271 3494 c0 -11 3 -14 6 -6 3 7 2 16 -1 19 -3 4 -6 -2 -5 -13z"/>
<path d="M3720 3393 c-17 -48 -36 -117 -41 -152 -16 -112 17 -227 83 -287 l33
-29 -27 30 c-95 108 -107 247 -38 437 17 45 28 83 26 85 -2 2 -18 -36 -36 -84z"/>
<path d="M4281 3465 c0 -5 9 -44 20 -85 10 -41 17 -57 14 -35 -5 40 -33 139
-34 120z"/>
<path d="M4322 3270 c0 -19 2 -27 5 -17 2 9 2 25 0 35 -3 9 -5 1 -5 -18z"/>
<path d="M4307 3195 c-3 -22 -21 -63 -38 -90 -22 -34 -25 -44 -11 -32 26 24
64 112 60 140 -2 15 -6 9 -11 -18z"/>
<path d="M5129 3408 c-12 -23 -12 -23 10 -4 23 21 26 26 11 26 -5 0 -15 -10
-21 -22z"/>
<path d="M5135 3349 c-11 -17 1 -21 15 -4 8 9 8 15 2 15 -6 0 -14 -5 -17 -11z"/>
<path d="M5951 3274 c0 -11 3 -14 6 -6 3 7 2 16 -1 19 -3 4 -6 -2 -5 -13z"/>
<path d="M6233 2908 c2 -7 8 -13 13 -13 5 -1 30 -9 57 -19 26 -11 50 -17 53
-14 3 3 -18 14 -46 24 -27 10 -50 22 -50 26 0 4 -7 8 -16 8 -9 0 -14 -6 -11
-12z"/>
<path d="M6150 2889 c0 -5 4 -8 9 -4 5 3 12 1 16 -5 3 -5 11 -10 16 -10 6 0 4
7 -5 15 -17 17 -36 20 -36 4z"/>
<path d="M6094 2869 c-3 -5 -4 -9 -2 -9 2 0 18 -4 36 -9 40 -12 41 -7 2 12
-17 9 -32 11 -36 6z"/>
<path d="M6225 2863 c11 -3 24 -9 30 -14 5 -5 16 -9 25 -9 9 1 6 6 -10 15 -14
8 -34 14 -45 13 l-20 0 20 -5z"/>
<path d="M6015 2853 c16 -15 65 -33 65 -24 0 5 -8 11 -17 14 -10 2 -27 8 -38
12 -13 5 -16 5 -10 -2z"/>
<path d="M6395 2850 c11 -5 27 -9 35 -9 13 -1 13 0 0 9 -8 5 -24 9 -35 9 l-20
0 20 -9z"/>
<path d="M6176 2841 c-3 -5 3 -11 15 -14 16 -4 18 -3 8 9 -13 16 -16 17 -23 5z"/>
<path d="M6095 2820 c3 -5 11 -10 16 -10 6 0 7 5 4 10 -3 6 -11 10 -16 10 -6
0 -7 -4 -4 -10z"/>
<path d="M6348 2818 c5 -5 16 -8 23 -6 8 3 3 7 -10 11 -17 4 -21 3 -13 -5z"/>
<path d="M6497 2816 c12 -9 34 -18 50 -20 15 -2 21 -1 13 1 -8 3 -17 9 -20 13
-3 5 -19 12 -35 15 -30 7 -30 7 -8 -9z"/>
<path d="M6240 2810 c8 -5 24 -10 34 -10 26 0 18 6 -19 14 -22 5 -26 4 -15 -4z"/>
<path d="M6140 2800 c0 -5 5 -10 11 -10 5 0 7 5 4 10 -3 6 -8 10 -11 10 -2 0
-4 -4 -4 -10z"/>
<path d="M6406 2801 c5 -5 26 -16 46 -24 31 -13 36 -13 31 -1 -3 8 -11 15 -19
15 -28 3 -32 4 -40 12 -4 4 -12 7 -18 7 -6 0 -6 -3 0 -9z"/>
<path d="M6300 2789 c0 -5 8 -9 18 -9 9 0 26 -7 36 -15 11 -8 29 -15 40 -15
21 0 16 10 -7 14 -8 1 -21 7 -28 12 -20 15 -59 24 -59 13z"/>
<path d="M6201 2776 c14 -7 38 -16 53 -20 15 -4 25 -10 22 -14 -2 -4 6 -7 19
-7 13 0 21 3 18 8 -2 4 -9 7 -14 7 -6 0 -29 9 -51 20 -46 22 -89 28 -47 6z"/>
<path d="M4629 2873 c-13 -16 -12 -17 4 -4 16 13 21 21 13 21 -2 0 -10 -8 -17
-17z"/>
<path d="M4532 2858 c-7 -7 -12 -16 -12 -21 0 -5 7 -1 16 8 9 9 14 18 12 20
-2 3 -10 -1 -16 -7z"/>
<path d="M5240 2744 l-45 -14 40 6 c22 3 44 10 50 15 11 11 12 11 -45 -7z"/>
<path d="M5315 2724 c-26 -12 -27 -14 -5 -9 14 2 31 5 38 5 6 0 12 5 12 10 0
13 -9 12 -45 -6z"/>
<path d="M5265 2710 c-3 -5 -1 -10 4 -10 6 0 11 5 11 10 0 6 -2 10 -4 10 -3 0
-8 -4 -11 -10z"/>
<path d="M5382 2694 c-6 -7 -20 -11 -30 -8 -12 4 -14 3 -4 -4 13 -9 107 6 97
16 -11 11 -51 9 -63 -4z"/>
<path d="M5171 2689 c-18 -6 -31 -12 -29 -14 5 -5 78 14 78 20 0 6 -8 5 -49
-6z"/>
<path d="M5245 2660 c-11 -5 -37 -11 -58 -15 -21 -3 -35 -10 -32 -16 4 -6 13
-5 25 1 10 5 30 10 44 10 14 0 28 5 31 10 4 6 10 8 14 6 4 -3 13 -1 21 5 12 7
11 9 -5 8 -11 0 -29 -4 -40 -9z"/>
<path d="M3897 2809 c4 -4 37 -10 73 -13 65 -5 59 -2 -33 13 -27 5 -45 5 -40
0z"/>
<path d="M3850 2773 c50 -25 278 -31 335 -8 22 8 29 13 15 9 -14 -3 -75 -8
-136 -11 -98 -5 -158 1 -229 22 -11 3 -4 -3 15 -12z"/>
<path d="M3395 2762 c6 -6 46 -30 90 -53 44 -23 76 -38 70 -32 -14 14 -172 98
-160 85z"/>
<path d="M3530 2716 c0 -2 7 -7 16 -10 8 -3 12 -2 9 4 -6 10 -25 14 -25 6z"/>
<path d="M3590 2685 c0 -7 121 -67 126 -63 2 2 -26 18 -61 36 -36 17 -65 30
-65 27z"/>
<path d="M3820 2557 c0 -7 132 -79 136 -74 2 2 -28 20 -66 41 -39 20 -70 35
-70 33z"/>
<path d="M3990 2495 c0 -7 170 -97 178 -93 4 2 -35 24 -85 50 -51 26 -93 46
-93 43z"/>
<path d="M4523 2783 c9 -2 23 -2 30 0 6 3 -1 5 -18 5 -16 0 -22 -2 -12 -5z"/>
<path d="M4844 2638 l-19 -23 23 19 c12 11 22 21 22 23 0 8 -8 2 -26 -19z"/>
<path d="M7113 2643 c9 -2 23 -2 30 0 6 3 -1 5 -18 5 -16 0 -22 -2 -12 -5z"/>
<path d="M6985 2634 c-11 -2 -98 -11 -193 -20 -95 -9 -170 -19 -168 -21 5 -5
199 12 361 32 55 7 82 12 60 12 -22 0 -49 -1 -60 -3z"/>
<path d="M7185 2620 c-34 -6 -36 -7 -10 -8 17 0 48 3 70 7 33 7 35 9 10 8 -16
0 -48 -3 -70 -7z"/>
<path d="M7083 2603 c9 -2 25 -2 35 0 9 3 1 5 -18 5 -19 0 -27 -2 -17 -5z"/>
<path d="M7018 2593 c7 -3 16 -2 19 1 4 3 -2 6 -13 5 -11 0 -14 -3 -6 -6z"/>
<path d="M6578 2583 c6 -2 18 -2 25 0 6 3 1 5 -13 5 -14 0 -19 -2 -12 -5z"/>
<path d="M6528 2573 c7 -3 16 -2 19 1 4 3 -2 6 -13 5 -11 0 -14 -3 -6 -6z"/>
<path d="M6288 2543 c12 -2 32 -2 45 0 12 2 2 4 -23 4 -25 0 -35 -2 -22 -4z"/>
<path d="M6188 2533 c12 -2 32 -2 45 0 12 2 2 4 -23 4 -25 0 -35 -2 -22 -4z"/>
<path d="M6108 2523 c6 -2 18 -2 25 0 6 3 1 5 -13 5 -14 0 -19 -2 -12 -5z"/>
<path d="M4744 2629 c-19 -22 -19 -22 3 -10 24 12 39 31 25 31 -5 0 -17 -10
-28 -21z"/>
<path d="M5395 2590 c-3 -5 -1 -10 4 -10 6 0 11 5 11 10 0 6 -2 10 -4 10 -3 0
-8 -4 -11 -10z"/>
<path d="M5335 2570 c-7 -12 2 -12 30 0 19 8 19 9 -2 9 -12 1 -25 -3 -28 -9z"/>
<path d="M5038 2553 c-10 -2 -18 -9 -18 -14 0 -6 8 -5 20 1 11 6 25 8 30 5 5
-3 11 -1 15 5 6 10 -15 12 -47 3z"/>
<path d="M5440 2546 c-6 -8 -18 -12 -26 -9 -8 3 -14 1 -14 -5 0 -5 -18 -12
-39 -16 -22 -3 -42 -10 -45 -15 -7 -10 98 14 131 31 11 5 26 7 32 4 7 -5 9 -1
5 8 -8 20 -28 20 -44 2z"/>
<path d="M5220 2535 l-25 -15 30 6 c17 4 37 10 45 15 12 7 11 8 -5 8 -11 0
-31 -6 -45 -14z"/>
<path d="M5123 2513 c-13 -2 -23 -9 -23 -14 0 -11 39 -2 55 12 9 9 7 10 -32 2z"/>
<path d="M5055 2490 c-8 -13 5 -13 25 0 13 8 13 10 -2 10 -9 0 -20 -4 -23 -10z"/>
<path d="M5205 2460 c-3 -5 -12 -7 -20 -3 -9 3 -22 0 -29 -6 -8 -7 -21 -11
-28 -9 -13 3 -18 -3 -18 -22 0 -13 32 0 46 19 10 13 14 13 28 2 13 -11 17 -11
22 3 4 10 13 15 20 12 7 -3 16 -1 19 4 4 6 -3 10 -14 10 -11 0 -22 -4 -26 -10z"/>
<path d="M4580 2570 c8 -5 20 -10 25 -10 6 0 3 5 -5 10 -8 5 -19 10 -25 10 -5
0 -3 -5 5 -10z"/>
<path d="M4728 2563 c6 -2 18 -2 25 0 6 3 1 5 -13 5 -14 0 -19 -2 -12 -5z"/>
<path d="M3673 2494 c-9 -24 14 -64 37 -64 12 0 20 7 20 16 0 13 -3 14 -13 5
-17 -14 -27 -4 -27 26 0 48 38 23 80 -53 12 -23 32 -46 44 -52 49 -22 77 36
36 73 -18 16 -23 17 -35 4 -10 -9 -11 -19 -5 -29 8 -13 10 -12 10 3 0 9 4 17
10 17 15 0 29 -35 20 -49 -12 -20 -38 -6 -58 30 -31 57 -63 89 -88 89 -14 0
-27 -7 -31 -16z"/>
<path d="M3894 2386 c-8 -34 4 -68 24 -64 24 5 24 81 0 86 -12 2 -19 -5 -24
-22z m32 -33 c-10 -26 -29 1 -21 28 7 20 8 21 17 5 5 -9 7 -24 4 -33z"/>
<path d="M3967 2364 c-13 -13 -7 -51 9 -65 12 -10 27 -10 67 -2 63 13 97 1 97
-34 0 -27 -15 -30 -29 -6 -11 21 -24 13 -15 -10 18 -47 75 -18 58 30 -13 38
-52 50 -110 35 -35 -10 -50 -10 -60 -1 -17 14 -17 19 -4 39 9 13 13 12 26 -5
l16 -20 -4 20 c-3 20 -37 32 -51 19z"/>
<path d="M7082 2504 c-12 -8 -22 -24 -22 -35 0 -24 27 -36 43 -20 9 9 8 11 -6
5 -15 -6 -18 -3 -15 17 2 16 10 24 23 24 29 0 32 -56 6 -99 -27 -43 -26 -80 0
-145 18 -42 20 -56 11 -76 -13 -29 -37 -32 -51 -7 -9 15 -10 15 -11 1 0 -24
26 -42 49 -34 29 9 36 49 21 109 -16 59 -15 93 2 115 8 10 4 9 -10 -3 -28 -24
-29 -7 0 29 48 61 15 158 -40 119z"/>
<path d="M7075 2400 c-19 -36 -16 -93 7 -174 10 -34 17 -44 21 -32 4 9 -2 40
-13 69 -24 63 -25 88 -4 128 8 17 13 33 10 36 -2 3 -12 -10 -21 -27z"/>
<path d="M6830 2489 c-14 -6 -36 -21 -50 -34 -36 -35 -117 -68 -148 -61 -25 5
-26 5 -5 -6 35 -17 87 -1 152 48 51 38 66 45 98 42 30 -2 39 -7 41 -25 4 -28
-32 -50 -54 -33 -7 7 -11 17 -7 24 4 7 2 7 -7 -1 -18 -17 -5 -43 23 -43 47 0
75 44 51 79 -16 23 -52 27 -94 10z"/>
<path d="M6522 2425 c-61 -46 -106 -57 -130 -33 -9 9 -12 9 -12 0 0 -7 12 -17
27 -23 34 -13 71 0 126 44 52 43 73 49 117 37 32 -9 33 -8 16 5 -36 27 -80 18
-144 -30z"/>
<path d="M6338 2422 c-58 -50 -82 -62 -123 -63 -36 0 -37 -1 -16 -10 33 -13
85 5 131 48 24 21 55 37 82 42 l43 9 -42 1 c-33 1 -50 -5 -75 -27z"/>
<path d="M6089 2417 c-20 -8 -52 -23 -70 -34 -19 -11 -44 -24 -56 -27 -19 -6
-22 -4 -20 21 2 25 -2 28 -31 31 -63 6 -97 -59 -50 -92 35 -25 96 -19 168 15
36 17 76 35 90 39 24 8 24 8 2 9 -12 1 -48 -12 -80 -28 -31 -15 -70 -31 -86
-35 -69 -17 -125 25 -86 64 26 26 60 27 60 0 0 -13 -7 -20 -20 -20 -11 0 -20
-4 -20 -10 0 -22 77 -9 148 26 60 30 81 35 122 32 27 -1 45 1 41 5 -15 15 -76
17 -112 4z"/>
<path d="M5742 2388 c-17 -17 -15 -73 3 -88 36 -30 78 34 50 76 -17 26 -35 30
-53 12z m42 -55 c-12 -34 -26 -35 -38 -1 -7 19 -6 31 4 43 12 14 15 14 29 1
11 -12 13 -22 5 -43z"/>
<path d="M5590 2375 c-7 -8 -10 -24 -7 -35 7 -26 -16 -26 -83 0 -77 30 -169
23 -184 -15 -2 -7 10 -5 32 7 46 23 53 23 148 -7 57 -18 87 -22 108 -17 35 10
46 29 15 28 -26 -1 -37 21 -15 30 30 12 66 -5 66 -30 0 -53 -79 -70 -174 -37
-83 29 -115 25 -36 -4 84 -32 167 -33 204 -4 31 24 33 52 6 79 -24 24 -63 26
-80 5z"/>
<path d="M4868 2309 c-14 -5 -29 -17 -32 -25 -5 -13 -3 -13 16 1 35 24 87 18
143 -15 57 -34 115 -39 136 -13 13 15 12 15 -9 4 -29 -16 -75 -6 -123 26 -42
28 -93 37 -131 22z"/>
<path d="M4601 2287 c-37 -19 -47 -41 -33 -72 10 -22 18 -26 44 -23 37 4 59
31 40 50 -11 11 -12 10 -7 -3 8 -21 -19 -42 -45 -34 -26 8 -27 51 -1 65 32 17
63 12 122 -19 74 -40 138 -45 175 -15 18 15 18 15 -3 5 -40 -20 -92 -12 -163
24 -76 38 -93 41 -129 22z"/>
<path d="M4750 2270 c8 -5 20 -10 25 -10 6 0 3 5 -5 10 -8 5 -19 10 -25 10 -5
0 -3 -5 5 -10z"/>
<path d="M4630 2409 c-57 -10 -191 -28 -250 -32 -35 -3 -30 -4 20 -5 36 -1
119 7 185 18 66 10 136 21 155 23 25 3 20 4 -15 4 -27 0 -70 -3 -95 -8z"/>
<path d="M4376 2254 c-24 -23 -19 -83 9 -129 30 -48 33 -77 5 -44 -21 27 -27
20 -8 -11 10 -15 10 -32 0 -78 -16 -76 -15 -107 2 -122 25 -20 61 -8 63 20 3
25 3 25 -7 3 -12 -30 -38 -29 -52 1 -8 20 -7 35 7 73 30 85 30 119 0 179 -24
47 -26 59 -16 80 14 31 56 31 56 -1 0 -13 -6 -19 -15 -17 -11 3 -12 1 -3 -8
15 -16 33 -4 33 24 0 43 -44 61 -74 30z"/>
<path d="M4410 2177 c0 -4 7 -18 16 -32 21 -33 20 -91 -5 -153 -23 -58 -26
-82 -11 -82 6 0 10 7 10 16 0 8 10 43 22 77 24 70 20 120 -12 159 -11 13 -19
19 -20 15z"/>
<path d="M6031 2060 c0 -32 36 -131 38 -102 1 7 -4 22 -10 33 -5 11 -14 39
-19 62 l-8 42 -1 -35z"/>
<path d="M5951 1633 c-7 -26 -23 -72 -36 -100 -13 -29 -22 -53 -20 -53 16 0
83 185 72 196 -2 3 -10 -17 -16 -43z"/>
<path d="M4637 2033 c22 -59 73 -110 151 -152 40 -21 23 -5 -34 33 -34 23 -67
56 -86 87 -32 51 -42 61 -31 32z"/>
<path d="M4055 2060 c3 -4 14 -10 25 -13 11 -3 18 -2 15 3 -3 4 -14 10 -25 13
-11 3 -18 2 -15 -3z"/>
<path d="M4100 2000 c19 -11 40 -19 45 -19 6 0 -6 8 -25 19 -19 11 -39 19 -45
19 -5 0 6 -8 25 -19z"/>
<path d="M5278 1948 c2 -35 -1 -89 -6 -121 -6 -39 -6 -55 1 -48 13 13 22 194
10 215 -6 11 -8 -4 -5 -46z"/>
<path d="M5076 1900 c11 -41 30 -73 60 -100 l28 -25 -28 39 c-16 21 -37 55
-48 75 -12 24 -16 27 -12 11z"/>
<path d="M5294 1560 c5 -70 29 -200 33 -180 1 8 -6 65 -17 125 -12 66 -18 88
-16 55z"/>
<path d="M5331 1344 c0 -11 3 -14 6 -6 3 7 2 16 -1 19 -3 4 -6 -2 -5 -13z"/>
<path d="M4088 1707 c-5 -10 -8 -64 -7 -120 0 -77 3 -96 10 -78 5 14 8 68 7
120 -2 55 -6 88 -10 78z"/>
<path d="M4164 1670 c0 -52 1 -74 3 -47 2 26 2 68 0 95 -2 26 -3 4 -3 -48z"/>
<path d="M4163 1180 c0 -41 2 -58 4 -37 2 20 2 54 0 75 -2 20 -4 3 -4 -38z"/>
<path d="M4551 1856 c2 -2 15 -9 29 -15 24 -11 24 -11 6 3 -16 13 -49 24 -35
12z"/>
<path d="M4550 1810 c19 -11 40 -19 45 -19 6 0 -6 8 -25 19 -19 11 -39 19 -45
19 -5 0 6 -8 25 -19z"/>
<path d="M5724 1465 c0 -66 1 -92 3 -57 2 34 2 88 0 120 -2 31 -3 3 -3 -63z"/>
<path d="M5644 1605 c0 -60 1 -84 3 -52 2 32 2 81 0 110 -2 29 -3 3 -3 -58z"/>
<path d="M4634 1385 c0 -66 1 -92 3 -57 2 34 2 88 0 120 -2 31 -3 3 -3 -63z"/>
<path d="M4623 1195 c0 -27 2 -38 4 -22 2 15 2 37 0 50 -2 12 -4 0 -4 -28z"/>
<path d="M4735 1265 c-4 -80 -5 -148 -2 -151 3 -3 8 61 12 141 4 80 5 148 2
151 -3 3 -8 -61 -12 -141z"/>
<path d="M6040 937 c15 -20 114 -98 140 -111 8 -4 2 3 -15 16 -16 13 -46 37
-65 53 -19 17 -44 37 -55 45 -19 14 -19 14 -5 -3z"/>
<path d="M5796 993 c-5 -16 -2 -31 6 -39 11 -12 13 -7 10 26 -5 47 -8 49 -16
13z"/>
<path d="M5644 559 c-11 -19 11 -30 37 -19 20 8 21 10 4 9 -34 -2 -41 1 -25
11 9 6 10 10 3 10 -6 0 -15 -5 -19 -11z"/>
<path d="M5400 510 c0 -5 5 -10 10 -10 6 0 10 5 10 10 0 6 -4 10 -10 10 -5 0
-10 -4 -10 -10z"/>
<path d="M5585 511 c-3 -5 -1 -12 5 -16 5 -3 10 1 10 9 0 18 -6 21 -15 7z"/>
<path d="M5465 500 c3 -5 8 -10 11 -10 2 0 4 5 4 10 0 6 -5 10 -11 10 -5 0 -7
-4 -4 -10z"/>
</g>
</svg>
