<?xml version="1.0" standalone="no"?>
<!DOCTYPE svg PUBLIC "-//W3C//DTD SVG 20010904//EN"
 "http://www.w3.org/TR/2001/REC-SVG-20010904/DTD/svg10.dtd">
<svg version="1.0" xmlns="http://www.w3.org/2000/svg"
 width="1024.000000pt" height="559.000000pt" viewBox="0 0 1024.000000 559.000000"
 preserveAspectRatio="xMidYMid meet">
<metadata>
Created by potrace 1.16, written by Peter Selinger 2001-2019
</metadata>
<g transform="translate(0.000000,559.000000) scale(0.100000,-0.100000)"
fill="#000000" stroke="none">
<path d="M5139 5075 c-28 -28 -42 -34 -84 -36 -27 -1 -60 3 -72 9 -27 15 -80
16 -88 1 -4 -6 -13 -8 -20 -5 -18 7 -85 -12 -85 -24 0 -6 -18 -21 -39 -35 -61
-38 -113 -159 -113 -260 0 -52 20 -135 40 -162 12 -17 22 -36 22 -41 0 -15 50
-52 69 -52 9 0 26 -21 41 -53 21 -44 31 -54 68 -67 38 -13 42 -18 42 -47 0
-61 -14 -80 -64 -85 -25 -3 -58 -13 -73 -23 -15 -10 -42 -19 -60 -20 -18 -1
-44 -12 -56 -23 -13 -12 -31 -22 -41 -22 -48 0 -106 -54 -127 -118 -20 -64
-120 -284 -145 -321 -16 -24 -24 -50 -24 -79 0 -26 -15 -83 -36 -139 -19 -53
-38 -117 -41 -143 -5 -46 -4 -49 52 -114 l57 -67 -7 -112 c-7 -117 -41 -582
-95 -1281 -19 -248 -19 -261 -2 -294 10 -22 32 -43 59 -56 l41 -21 4 -104 3
-103 34 -28 c18 -16 61 -39 95 -51 73 -27 96 -44 96 -74 0 -34 -36 -201 -60
-278 -24 -78 -19 -92 35 -103 l32 -6 -19 -36 c-47 -93 -4 -147 125 -158 113
-10 176 31 191 125 7 45 10 47 46 26 35 -20 125 -19 160 2 24 14 34 15 55 5
52 -24 135 -9 135 23 0 21 9 19 35 -9 15 -16 39 -27 71 -31 27 -4 99 -24 159
-43 170 -56 305 -48 313 19 6 48 -29 91 -102 130 -48 25 -63 38 -52 42 20 8
20 35 2 123 -17 81 -33 218 -42 362 l-7 103 40 38 c22 21 44 55 51 78 8 26 26
51 52 72 69 56 75 74 71 257 l-2 161 35 21 c70 41 70 44 53 294 -16 229 -13
299 23 553 5 39 9 101 10 138 0 60 2 68 18 63 9 -2 33 -7 52 -11 19 -4 70 -23
112 -43 76 -37 76 -37 72 -72 -2 -19 -15 -127 -29 -240 -28 -235 -80 -667 -95
-785 -6 -44 -24 -192 -40 -330 -67 -554 -82 -675 -96 -778 -20 -153 -19 -194
6 -207 26 -14 57 -5 64 18 3 9 24 166 46 347 22 182 65 530 96 775 30 245 68
555 84 690 17 135 34 277 40 315 5 39 12 97 15 130 9 81 13 92 34 98 34 8 68
93 76 189 4 39 1 51 -17 68 -12 11 -28 20 -35 20 -9 0 -12 8 -9 23 3 12 10 67
17 122 8 65 17 104 27 111 10 7 13 21 9 40 -6 35 20 98 61 143 7 7 11 24 8 36
-4 14 3 35 17 56 37 55 67 123 67 153 0 40 -49 86 -92 86 -34 0 -34 0 -32 43
2 39 -17 87 -34 87 -30 -2 -50 -42 -55 -107 0 -8 -13 -10 -43 -6 -38 5 -46 2
-73 -25 -38 -37 -40 -71 -10 -155 14 -39 19 -73 16 -97 -3 -21 -1 -42 3 -47 4
-4 15 -32 25 -62 14 -44 15 -57 4 -77 -9 -17 -9 -30 -2 -47 7 -16 7 -57 -1
-137 -11 -115 -11 -115 -38 -115 -14 -1 -45 -14 -67 -29 l-41 -29 -75 37 c-52
26 -75 43 -75 55 0 27 -35 67 -72 81 -18 8 -49 31 -69 52 -20 21 -43 38 -52
38 -12 0 -17 9 -17 27 0 17 -12 39 -31 59 -23 24 -45 73 -90 205 -100 293
-125 341 -193 376 -17 9 -44 26 -59 39 -16 13 -36 24 -46 24 -10 0 -26 9 -37
21 -15 17 -28 20 -74 17 l-55 -3 -3 32 c-3 27 2 34 27 48 58 29 111 175 111
301 0 47 5 73 16 85 26 29 28 137 4 185 -16 31 -19 50 -14 90 l6 51 -44 26
c-25 14 -67 46 -95 71 l-50 45 -34 -34z m72 -31 c13 -15 48 -42 77 -61 59 -38
64 -58 6 -24 -50 30 -54 20 -4 -13 24 -16 40 -34 40 -46 0 -24 2 -24 -46 -4
-28 12 -62 15 -128 12 -103 -4 -163 -28 -248 -99 -26 -21 -50 -39 -53 -39 -9
0 4 52 16 65 6 5 9 5 9 -2 0 -6 16 5 36 24 20 18 70 53 112 78 43 25 73 45 69
45 -21 0 -134 -66 -173 -102 -24 -22 -44 -36 -44 -31 0 21 89 92 167 132 44
23 91 53 103 66 29 31 31 31 61 -1z m-246 -14 c4 -6 -5 -10 -19 -10 -14 0 -26
5 -26 10 0 6 9 10 19 10 11 0 23 -4 26 -10z m-137 -30 c-7 -11 -19 -20 -27
-20 -11 0 -10 5 4 20 10 11 22 20 27 20 4 0 3 -9 -4 -20z m222 13 c-1 -14 -70
-43 -102 -43 -42 0 -26 16 33 34 52 17 69 19 69 9z m-144 -18 c-11 -8 -31 -15
-44 -15 -21 0 -22 2 -12 15 7 8 27 15 44 15 29 -1 30 -1 12 -15z m-56 -33 c0
-13 -32 -39 -58 -47 -20 -6 -23 -4 -20 11 5 27 78 60 78 36z m-98 -30 c-4 -34
-42 -64 -42 -34 0 19 27 62 39 62 4 0 6 -13 3 -28z m174 6 c-16 -12 -40 -23
-54 -24 l-24 -3 23 25 c14 15 33 24 53 24 l31 -1 -29 -21z m-126 -43 c0 -18
-26 -53 -51 -67 -29 -17 -29 -17 -29 8 0 17 10 30 33 44 31 19 47 25 47 15z
m80 -2 c0 -14 -34 -43 -52 -43 -22 0 -23 8 -1 32 15 17 53 25 53 11z m299 -15
c11 -10 14 -10 18 0 6 16 48 15 81 -2 46 -24 110 -106 82 -106 -5 0 -14 8 -20
18 -10 15 -11 15 -4 -3 3 -11 8 -31 10 -45 3 -21 2 -20 -11 7 -9 19 -28 39
-47 47 -18 8 -45 26 -61 41 l-27 26 -25 -29 c-38 -45 -93 -63 -185 -60 -76 3
-78 4 -62 22 15 16 27 18 85 13 41 -4 65 -2 62 4 -4 5 -16 9 -28 10 -12 0 -31
4 -42 9 -17 7 -12 11 35 34 59 28 118 34 139 14z m-476 -50 c5 -36 0 -58 -14
-58 -5 0 -9 20 -9 45 0 52 15 61 23 13z m126 -40 c-12 -51 -16 -58 -35 -58
-22 0 -16 36 9 49 12 6 14 9 5 7 -13 -4 -18 0 -18 13 0 22 9 31 31 31 15 0 16
-5 8 -42z m396 22 c4 -6 23 -19 44 -29 28 -15 40 -29 49 -59 16 -52 16 -52
-12 -52 -14 0 -37 -10 -52 -23 -27 -23 -27 -24 -14 -90 14 -74 9 -90 -25 -81
-12 3 -26 1 -29 -5 -5 -7 7 -11 34 -11 50 0 57 14 41 83 -6 27 -8 53 -5 56 4
3 9 0 11 -6 3 -7 11 -13 18 -13 7 0 15 6 18 13 10 27 22 -7 21 -61 0 -67 -35
-187 -65 -225 -17 -23 -28 -27 -68 -27 -56 0 -159 47 -190 86 -26 33 -36 30
-15 -5 21 -36 84 -77 151 -98 l53 -17 0 -68 c0 -39 4 -68 10 -68 6 0 10 9 10
19 0 19 1 19 40 -2 78 -43 75 -103 -7 -139 -41 -18 -52 -19 -107 -8 -126 24
-196 51 -229 87 -54 59 -58 82 -18 105 49 27 71 125 55 242 -6 39 -10 46 -25
41 -12 -4 -25 5 -43 28 -33 44 -34 67 -2 65 19 -2 23 -6 16 -17 -9 -17 6 -55
19 -47 5 3 6 17 4 30 -4 21 -2 24 16 19 18 -5 21 -1 21 27 0 76 82 177 166
204 29 9 60 26 69 36 20 22 31 25 40 10z m-460 -22 c-14 -45 -65 -83 -65 -48
0 13 50 70 62 70 5 0 6 -10 3 -22z m227 -34 c44 -8 41 -18 -9 -39 -45 -19 -94
-19 -119 -1 -18 14 -17 15 16 30 39 17 58 19 112 10z m-297 -62 c-3 -8 -5 -19
-5 -25 0 -6 -7 -2 -15 9 -8 10 -14 33 -14 49 l-1 30 20 -25 c11 -14 17 -31 15
-38z m47 -26 c-19 -57 -32 -64 -32 -16 0 26 37 86 47 77 2 -3 -4 -30 -15 -61z
m196 18 c47 6 49 -5 4 -28 -71 -35 -142 -21 -142 29 0 31 16 35 59 12 26 -13
48 -17 79 -13z m425 6 c-3 -11 -7 -20 -9 -20 -2 0 -4 9 -4 20 0 11 4 20 9 20
5 0 7 -9 4 -20z m-476 -64 l58 6 -26 -27 c-33 -34 -98 -45 -122 -20 -15 14
-17 14 -17 1 0 -9 11 -23 25 -32 14 -9 25 -23 25 -31 0 -28 41 -83 66 -89 13
-3 24 -10 24 -15 0 -15 -42 -10 -62 8 -10 9 -18 11 -18 6 0 -17 28 -35 55 -35
15 0 25 -6 25 -14 0 -26 -47 -15 -74 17 -27 32 -35 69 -14 69 6 0 -6 15 -26
33 -31 26 -39 40 -43 79 -3 26 -3 59 1 73 l7 26 29 -31 c27 -29 31 -30 87 -24z
m443 10 c0 -9 -14 -15 -40 -18 -44 -4 -53 7 -17 22 33 13 57 12 57 -4z m-594
-59 c3 -10 3 -21 1 -24 -9 -8 -57 44 -57 62 0 14 3 14 25 -2 13 -10 27 -26 31
-36z m201 -12 c0 -8 -4 -15 -8 -15 -11 0 -20 16 -12 24 11 11 20 7 20 -9z
m-177 -50 c14 -16 10 -18 -14 -9 -9 3 -16 10 -16 15 0 14 16 11 30 -6z m96
-338 c-13 -10 -17 -23 -14 -44 3 -25 0 -32 -21 -40 -20 -7 -37 -4 -79 15 -29
13 -50 28 -47 33 9 14 59 11 81 -6 27 -20 36 -19 22 4 -16 27 5 51 45 51 28 0
29 -1 13 -13z m472 -37 c37 -34 67 -113 96 -250 3 -14 3 0 1 30 -4 48 -16 99
-40 178 -6 18 -4 21 9 16 9 -4 24 -35 37 -78 11 -39 41 -135 66 -214 42 -132
45 -149 39 -212 -7 -76 -76 -287 -135 -415 -60 -127 -154 -219 -259 -250 -37
-12 -48 -12 -64 -1 -17 12 -14 16 39 41 78 38 178 140 224 230 48 91 86 199
93 261 3 27 3 40 0 29 -58 -203 -137 -352 -231 -435 -45 -39 -130 -90 -152
-90 -5 0 32 42 83 93 65 65 101 111 124 157 18 36 27 57 20 46 -48 -69 -114
-149 -161 -195 l-55 -53 -50 23 -50 23 60 67 c150 167 260 382 313 612 l15 62
-5 -89 c-7 -112 -29 -221 -65 -313 -15 -40 -26 -73 -24 -73 8 0 53 98 69 150
23 76 45 222 45 300 0 155 -47 350 -84 350 -8 0 -18 5 -21 10 -12 19 41 10 63
-10z m-590 -50 c23 -10 42 -26 42 -35 0 -8 -1 -15 -2 -15 -2 0 -25 7 -52 15
-56 17 -124 19 -146 5 -13 -9 -13 -10 0 -10 16 -1 -5 -21 -44 -42 -19 -10 -19
-10 0 23 44 75 119 97 202 59z m143 -30 c21 -12 25 -50 7 -68 -17 -17 -48 -15
-70 5 -47 42 4 94 63 63z m630 -37 c39 -41 60 -89 128 -286 67 -198 72 -208
112 -255 17 -19 29 -44 29 -60 0 -22 7 -30 33 -40 l32 -13 -55 -19 c-96 -33
-170 -137 -185 -263 -5 -37 -2 -33 20 28 42 118 90 184 152 211 37 16 93 19
93 4 0 -5 17 -17 37 -25 40 -17 73 -43 73 -57 0 -5 -9 -4 -21 2 -30 16 -59 6
-97 -33 -43 -44 -72 -132 -112 -333 -87 -443 -180 -754 -308 -1027 -197 -419
-500 -725 -736 -744 -83 -7 -110 7 -103 51 3 18 -1 42 -9 56 -17 33 -18 75 0
89 11 9 15 9 20 -1 3 -7 4 30 2 82 -3 59 1 125 11 174 8 44 11 96 8 117 -4 23
-1 54 6 76 l13 38 12 -45 12 -45 1 47 c1 25 -8 100 -19 165 -11 65 -19 143
-19 173 1 40 -6 70 -26 113 -27 59 -29 109 -5 171 7 19 8 19 15 -9 14 -63 25
-72 22 -18 -3 33 -17 79 -42 130 -51 106 -55 124 -39 161 17 41 39 43 31 3 -7
-32 5 -41 51 -41 30 0 126 42 136 59 4 6 -13 2 -38 -9 -25 -10 -61 -22 -80
-25 -32 -7 -34 -5 -41 27 -4 18 -19 61 -33 94 -15 39 -22 71 -19 86 6 23 86
133 92 126 2 -2 -2 -27 -8 -56 -9 -45 -14 -51 -30 -46 -14 4 -18 2 -15 -7 7
-22 75 -23 118 -1 l39 19 32 -33 c18 -19 30 -36 27 -40 -4 -3 -39 -23 -80 -45
-40 -21 -65 -39 -56 -39 9 0 50 17 90 38 64 33 77 36 109 28 28 -7 47 -5 79 8
23 9 44 15 47 13 2 -3 -40 -46 -94 -96 -69 -65 -120 -103 -171 -128 -40 -20
-70 -38 -67 -41 8 -8 98 29 145 61 53 35 200 182 200 200 0 11 43 42 83 59 10
4 17 18 17 35 0 24 6 30 46 45 56 20 58 25 -37 -137 -168 -288 -356 -499 -477
-535 l-27 -8 28 -1 c122 -4 365 279 544 631 26 52 55 95 73 108 17 12 30 19
30 17 0 -10 -79 -195 -124 -292 -25 -55 -39 -91 -30 -80 26 33 113 212 154
317 21 54 54 124 73 155 19 32 45 82 57 111 13 29 24 51 27 49 7 -8 -28 -253
-58 -407 -120 -606 -291 -1069 -516 -1395 l-35 -50 37 40 c96 104 210 312 295
540 29 77 56 151 60 165 70 221 96 314 145 525 41 173 78 407 95 590 5 58 19
130 33 170 l24 70 7 -49 c12 -75 -9 -445 -41 -719 -16 -149 -13 -193 6 -75 35
217 43 329 48 658 l5 345 -55 165 c-30 91 -58 180 -61 198 -5 29 -4 31 12 23
9 -5 29 -22 43 -38z m-821 -3 c0 -59 -136 -240 -180 -240 -16 0 -17 6 -13 43
11 85 81 196 137 216 29 11 56 2 56 -19z m1760 15 c0 -8 -7 -15 -15 -15 -16 0
-20 12 -8 23 11 12 23 8 23 -8z m-1693 -11 c31 -9 33 -34 13 -152 -10 -59 -21
-159 -25 -222 -10 -181 -24 -309 -36 -333 -16 -30 -50 -57 -74 -56 -11 0 -39
21 -63 49 -41 47 -42 51 -29 76 l14 27 33 -69 c45 -93 50 -58 6 39 -61 135
-90 227 -90 296 -1 57 1 65 24 79 75 47 180 194 180 252 0 21 10 24 47 14z
m258 -39 c113 -35 192 -42 236 -20 19 10 42 24 52 33 27 24 21 -4 -9 -44 -15
-19 -22 -34 -16 -34 6 0 20 12 32 28 l21 27 -5 -90 c-6 -90 -37 -226 -73 -318
l-19 -48 -80 102 c-145 188 -254 334 -254 343 0 5 46 -36 103 -90 92 -90 201
-173 212 -162 2 2 -26 27 -63 55 -84 64 -234 204 -227 211 3 3 13 -2 22 -10
29 -26 174 -94 226 -107 32 -8 53 -8 65 -2 14 9 13 10 -10 11 -53 0 -298 109
-298 132 0 10 -8 12 85 -17z m1433 -8 c2 -12 -3 -17 -17 -17 -12 0 -21 6 -21
13 0 31 32 34 38 4z m-1610 -27 c12 -12 22 -28 22 -36 0 -20 52 -176 57 -171
4 5 -30 136 -46 180 -19 48 13 31 53 -29 43 -64 188 -254 257 -334 l47 -55
-22 -44 -23 -43 -27 46 c-37 64 -44 58 -8 -8 29 -54 29 -55 12 -82 l-18 -27
-24 39 c-26 44 -61 114 -78 158 -6 16 -13 26 -16 23 -8 -7 53 -150 83 -194 20
-30 23 -40 14 -60 -9 -20 -18 -23 -66 -23 -55 0 -56 0 -86 48 -16 26 -42 85
-56 132 -15 46 -28 79 -31 72 -6 -18 36 -151 64 -201 13 -24 24 -45 24 -48 0
-2 -13 3 -30 12 -36 19 -41 19 -34 0 10 -25 -48 -18 -86 10 -18 14 -36 23 -39
20 -2 -3 4 -12 15 -19 19 -14 19 -15 0 -22 -29 -11 -51 9 -50 47 3 116 26 413
39 500 8 57 15 110 15 117 0 18 13 15 38 -8z m1526 -13 c16 -12 14 -13 -17 -9
-48 5 -72 -29 -64 -91 l6 -42 -14 30 c-20 42 -18 68 6 99 22 28 55 34 83 13z
m79 -20 c10 -26 -8 -92 -26 -95 -14 -3 -17 4 -17 46 0 27 3 52 7 55 11 11 31
8 36 -6z m105 -3 c30 -21 30 -88 1 -124 -17 -20 -20 -21 -14 -5 30 84 21 118
-33 123 -17 2 -32 7 -32 13 0 15 54 10 78 -7z m-184 -10 c12 -5 16 -21 16 -67
0 -60 0 -60 -21 -41 -16 14 -22 15 -28 5 -11 -16 -17 -6 -26 40 -9 50 18 79
59 63z m164 -42 c2 -13 -1 -36 -8 -51 -8 -21 -18 -28 -41 -28 -33 0 -35 10
-18 70 9 33 14 38 37 35 20 -2 28 -9 30 -26z m-2053 -35 c-6 -37 -43 -97 -60
-97 -3 0 4 21 14 48 45 112 57 126 46 49z m1955 -62 c11 -28 20 -31 38 -13 9
9 12 8 12 -6 0 -13 5 -17 20 -13 19 5 19 4 4 -25 -12 -23 -20 -29 -37 -24 -12
3 -52 9 -89 12 -56 6 -67 10 -72 28 -9 32 -7 36 9 30 8 -4 17 1 21 10 6 15 8
15 20 -1 14 -17 15 -17 32 4 22 29 30 28 42 -2z m-1940 -31 c0 -8 -7 -14 -15
-14 -15 0 -21 21 -9 33 10 9 24 -2 24 -19z m-50 -20 c0 -4 -20 -29 -45 -55
-44 -47 -56 -49 -34 -6 17 33 51 67 66 67 7 0 13 -3 13 -6z m46 -90 c6 -32 22
-88 34 -123 21 -62 21 -65 4 -97 -10 -18 -22 -30 -26 -28 -17 11 -68 22 -68
16 0 -4 20 -18 45 -31 28 -15 70 -53 109 -100 86 -105 150 -167 202 -197 39
-23 52 -26 95 -20 47 6 108 -4 139 -23 23 -16 3 -25 -26 -12 -20 9 -25 9 -22
-1 5 -13 87 -82 124 -104 16 -10 17 -14 6 -25 -11 -12 -21 -10 -63 14 -54 30
-59 31 -59 18 0 -6 19 -21 42 -35 35 -21 39 -26 24 -32 -11 -4 -36 2 -62 14
-51 25 -60 11 -12 -18 25 -15 28 -20 16 -25 -9 -4 -30 1 -47 9 -45 24 -60 19
-26 -9 17 -14 25 -25 19 -25 -34 0 -89 37 -145 98 -47 51 -89 83 -159 122
-139 78 -231 143 -295 211 -57 60 -57 60 -53 112 7 76 81 253 130 310 22 27
45 46 51 44 6 -2 16 -30 23 -63z m1943 43 c30 -7 57 -18 59 -26 3 -10 0 -12
-14 -7 -10 4 -53 10 -96 13 -43 3 -78 9 -78 13 0 23 42 25 129 7z m24 -53 c15
-6 15 -8 -2 -33 -11 -15 -23 -39 -26 -54 -7 -27 -21 -32 -62 -21 -15 4 -22 16
-26 42 -3 21 -8 48 -12 61 -8 24 -8 24 52 18 33 -4 67 -9 76 -13z m-34 -140
c27 -8 0 -18 -42 -15 -47 3 -60 8 -52 21 5 8 61 4 94 -6z m-27 -44 c6 0 8 -10
5 -22 -3 -13 -11 -75 -18 -138 -6 -63 -13 -116 -14 -118 -2 -2 -13 6 -25 18
-22 22 -22 24 -10 139 14 129 16 135 37 127 8 -3 19 -6 25 -6z m-1612 -176 c0
-3 -11 -22 -25 -42 -14 -20 -25 -42 -25 -49 0 -22 -14 -15 -54 26 l-38 39 29
15 c16 9 35 22 42 30 10 13 15 13 41 0 17 -8 30 -17 30 -19z m249 17 c55 -1
62 -3 51 -16 -21 -25 -268 -16 -277 10 -2 7 26 10 79 9 46 -1 112 -2 147 -3z
m-209 -45 c0 -2 -7 -20 -16 -41 -22 -53 -13 -52 15 1 13 24 30 44 37 44 18 0
18 -16 -2 -73 -9 -26 -14 -52 -12 -59 3 -7 15 18 28 55 21 59 27 67 50 67 24
0 25 -3 23 -42 l-2 -43 11 43 c11 41 11 42 55 42 52 0 52 1 -26 -87 -55 -63
-55 -63 -110 -63 -43 0 -63 6 -93 26 -21 15 -38 29 -38 32 0 16 56 102 67 102
7 0 13 -2 13 -4z m1168 -20 c47 -29 145 -76 160 -76 7 0 12 -5 12 -11 0 -6 19
6 43 26 34 30 47 35 72 30 39 -7 63 -32 71 -73 8 -41 -8 -42 -36 -2 -24 34
-55 42 -45 12 7 -24 -30 -72 -56 -72 -10 0 -19 -4 -19 -10 0 -14 43 -12 59 3
11 10 12 7 7 -15 -3 -15 -2 -29 3 -32 5 -3 7 -15 4 -27 -7 -25 -36 -20 -91 15
-23 15 -86 35 -162 51 -69 15 -140 33 -158 41 l-32 13 20 53 c21 57 59 98 91
98 11 0 36 -11 57 -24z m447 -76 c10 -16 -15 -40 -41 -40 -27 0 -33 24 -9 34
9 3 12 12 8 22 -5 14 -3 15 15 5 11 -6 24 -16 27 -21z m-1992 -36 c28 -20 85
-54 125 -76 39 -22 72 -43 72 -48 0 -4 -7 -13 -16 -21 -24 -19 -70 -91 -77
-118 -3 -13 2 -46 13 -74 l19 -50 -24 -42 c-33 -55 -32 -75 10 -160 l35 -72
-15 -57 c-21 -80 -19 -125 10 -190 19 -43 25 -74 25 -126 0 -38 5 -101 12
-140 10 -58 10 -79 -2 -118 -8 -26 -15 -81 -16 -122 -1 -41 -7 -95 -13 -119
-7 -24 -11 -83 -9 -131 2 -69 0 -92 -13 -107 -26 -29 -29 -50 -14 -92 7 -22
11 -48 8 -59 -3 -12 3 -34 13 -51 19 -32 14 -51 -8 -34 -7 5 -43 22 -80 38
-73 30 -114 65 -105 89 3 8 24 27 46 40 22 14 44 34 50 43 9 17 3 426 -18
1368 l-8 360 0 -590 c-1 -324 2 -698 6 -830 4 -132 6 -241 5 -243 -1 -2 -13 3
-26 12 -12 8 -48 24 -79 35 -31 12 -66 32 -78 45 -22 23 -23 29 -16 133 3 59
10 160 16 223 5 63 14 178 19 255 13 182 36 500 55 745 8 107 15 223 15 258 0
34 2 62 5 62 3 0 29 -16 58 -36z m1872 -38 c23 -12 32 -12 66 2 41 16 55 13
46 -11 -9 -23 -71 -30 -111 -13 -20 8 -36 20 -36 25 0 14 2 14 35 -3z m-452
-22 l47 -16 0 -126 c0 -157 26 -644 41 -765 13 -111 9 -121 -74 -169 -34 -20
-75 -48 -90 -64 l-29 -28 5 394 c3 237 2 355 -3 295 -4 -55 -11 -254 -16 -442
l-7 -343 56 -55 c79 -76 79 -102 -3 -190 -33 -35 -60 -74 -60 -85 0 -11 -13
-34 -29 -52 l-29 -33 -6 65 c-3 36 -11 243 -17 460 -5 217 -12 396 -14 398 -1
2 4 24 12 50 30 100 74 285 108 457 35 175 55 265 59 265 2 0 23 -7 49 -16z
m505 -29 c47 0 58 -21 17 -31 -30 -7 -96 15 -103 35 -3 10 1 11 19 5 13 -5 43
-9 67 -9z m-388 -27 c0 -26 -15 -175 -31 -308 -4 -31 -16 139 -18 238 l-1 102
25 0 c22 0 25 -4 25 -32z m410 -35 c2 -2 -2 -8 -10 -14 -19 -12 -60 -3 -80 17
-13 14 -10 15 35 8 28 -3 52 -8 55 -11z m-1663 -25 c13 -12 23 -25 23 -30 0
-9 -71 -40 -77 -34 -6 6 17 86 24 86 4 0 17 -10 30 -22z m1603 -28 c0 -6 -25
-212 -55 -458 -117 -948 -156 -1261 -170 -1382 -9 -69 -22 -179 -31 -245 -8
-66 -17 -140 -20 -165 -9 -75 -15 -90 -35 -90 -10 0 -19 5 -19 12 0 11 19 172
65 543 53 429 143 1169 206 1700 14 118 14 118 39 105 11 -6 20 -15 20 -20z
m-701 -1115 c14 -546 36 -843 71 -975 13 -48 0 -58 -49 -35 -54 24 -98 14
-152 -34 -62 -54 -80 -61 -151 -61 -58 0 -63 2 -64 23 0 12 -4 200 -9 417 l-8
395 52 79 51 79 2 -409 c1 -296 3 -373 9 -279 3 72 7 262 8 423 l1 292 53 108
52 107 5 -285 5 -285 3 303 2 303 52 139 c28 77 53 139 54 137 1 -1 7 -200 13
-442z m225 20 l6 -109 -45 44 c-54 53 -61 70 -41 109 14 26 65 76 71 69 1 -2
5 -52 9 -113z m-595 -622 c0 -170 4 -360 7 -424 7 -114 6 -117 -15 -129 -18
-9 -34 -9 -74 1 -58 15 -75 13 -98 -7 -34 -31 -118 -10 -189 46 -75 59 -133
72 -209 45 -22 -8 -41 -12 -41 -10 0 3 15 28 33 57 18 29 39 67 46 83 19 48
51 187 51 222 0 31 4 34 91 76 l91 44 -6 -76 c-7 -73 -35 -215 -51 -256 -6
-16 -5 -18 5 -8 19 18 49 138 62 253 l12 105 54 43 53 43 -7 -294 c-4 -187 -3
-300 3 -311 7 -12 12 86 16 305 l7 323 35 35 35 36 1 -190 c2 -136 4 -173 9
-130 4 33 8 125 9 203 1 140 2 145 29 183 15 21 30 39 34 39 4 0 7 -138 7
-307z m-829 182 c38 -20 38 -48 1 -74 -16 -12 -32 -21 -35 -21 -3 0 -6 25 -6
55 0 30 2 55 5 55 4 0 19 -7 35 -15z m234 -273 c2 -4 -4 -68 -14 -142 -11 -74
-19 -142 -19 -150 2 -51 49 191 49 251 0 34 3 37 36 44 20 3 38 5 40 3 5 -6
-26 -149 -47 -214 -11 -33 -35 -85 -54 -114 -19 -30 -35 -62 -35 -72 0 -14 -8
-18 -34 -18 -19 0 -37 4 -40 9 -3 4 4 39 14 77 11 38 29 119 40 179 29 157 29
155 45 155 7 0 16 -4 19 -8z m991 -373 c30 -23 55 -44 55 -46 0 -6 -48 25 -91
59 -54 44 -24 33 36 -13z m-125 -11 c-16 -22 -30 -47 -30 -55 0 -7 -4 -13 -10
-13 -20 0 -9 40 21 75 43 48 56 44 19 -7z m60 -30 c-17 -16 -30 -36 -30 -44 0
-16 -2 -16 -24 -8 -24 9 -19 36 15 77 30 36 32 37 50 21 18 -16 17 -17 -11
-46z m-852 15 c-10 -2 -26 -2 -35 0 -10 3 -2 5 17 5 19 0 27 -2 18 -5z m46
-20 c-7 -29 -34 -66 -34 -46 0 33 14 73 26 73 11 0 13 -8 8 -27z m61 -3 c17
-11 27 -20 24 -20 -9 0 -69 31 -69 36 0 9 16 3 45 -16z m805 11 c0 -5 -7 -11
-15 -15 -8 -3 -20 -17 -27 -31 -12 -27 -28 -34 -28 -11 0 20 39 66 56 66 8 0
14 -4 14 -9z m-186 -16 c-4 -8 -18 -15 -33 -15 l-26 1 25 14 c32 18 41 18 34
0z m309 4 c7 0 3 -4 -8 -8 -17 -7 -15 -10 18 -26 20 -9 37 -25 37 -33 0 -13
-4 -11 -16 6 -8 12 -23 22 -33 22 -26 0 -55 25 -47 39 5 7 15 10 23 7 8 -3 20
-6 26 -7z m-1043 -9 c0 -6 -16 -8 -42 -4 -59 9 -60 14 -5 14 26 0 47 -5 47
-10z m126 -31 c9 -11 14 -22 10 -26 -4 -4 -10 -3 -14 3 -4 6 -17 16 -29 23
-13 6 -23 16 -23 20 0 14 37 1 56 -20z m850 14 c9 -10 31 -23 48 -29 17 -6 31
-17 31 -25 0 -15 -27 -17 -105 -6 -25 3 -48 6 -52 6 -14 1 -8 34 9 53 20 23
47 23 69 1z m-256 -19 c36 -7 87 -22 115 -34 27 -12 84 -26 127 -32 66 -9 84
-9 118 5 44 17 56 7 15 -11 -50 -23 -151 -14 -259 22 -56 18 -127 39 -158 46
-32 6 -58 16 -58 22 0 6 7 7 18 3 9 -4 46 -14 82 -21z m-726 -5 c24 -19 25
-22 11 -42 -8 -12 -15 -29 -15 -39 0 -11 -7 -18 -19 -18 -14 0 -18 5 -14 20 3
11 9 23 14 26 5 3 9 10 9 16 0 6 -9 3 -20 -7 -11 -10 -20 -24 -20 -32 0 -7 -7
-13 -15 -13 -19 0 -19 4 0 40 9 17 11 30 6 30 -6 0 -18 -15 -27 -32 -10 -18
-19 -28 -21 -21 -2 7 0 21 6 32 17 31 12 38 -9 12 -12 -13 -20 -18 -20 -10 1
53 85 77 134 38z m106 -19 c11 -11 20 -24 20 -29 0 -17 -62 -62 -77 -57 -8 4
-19 6 -24 6 -18 0 -8 31 13 39 14 5 17 10 10 15 -9 5 -9 13 -2 27 14 24 35 24
60 -1z m-88 -108 c43 -1 62 4 83 19 31 26 44 20 14 -6 -39 -36 -217 -29 -249
10 -7 8 7 7 42 -5 29 -9 78 -17 110 -18z"/>
<path d="M5163 5028 c-28 -36 -17 -98 17 -98 39 0 55 63 24 94 -19 19 -28 20
-41 4z m37 -49 c0 -18 -5 -29 -14 -29 -19 0 -28 28 -15 51 14 26 29 15 29 -22z"/>
<path d="M5094 4860 c-12 -5 -25 -14 -29 -20 -5 -9 0 -8 16 1 13 7 38 16 54
20 27 6 27 7 5 7 -14 1 -35 -3 -46 -8z"/>
<path d="M5230 4866 c0 -8 73 -47 77 -42 3 3 -10 14 -28 25 -33 20 -49 26 -49
17z"/>
<path d="M5150 4840 c-9 -6 -10 -10 -3 -10 6 0 15 5 18 10 8 12 4 12 -15 0z"/>
<path d="M5047 4658 c-14 -11 -5 -13 58 -13 78 -1 98 8 44 19 -48 9 -84 7
-102 -6z"/>
<path d="M5078 4618 c-16 -5 -28 -14 -28 -20 0 -6 8 -7 17 -4 9 4 20 1 24 -6
7 -11 12 -11 29 0 11 7 25 10 30 7 6 -4 10 -1 10 5 0 8 -45 33 -53 29 -1 0
-14 -5 -29 -11z"/>
<path d="M5165 4406 c-29 -13 -27 -14 37 -12 66 1 84 8 52 20 -24 9 -56 6 -89
-8z"/>
<path d="M5185 4360 c3 -5 17 -10 30 -10 13 0 27 5 30 10 4 6 -8 10 -30 10
-22 0 -34 -4 -30 -10z"/>
<path d="M5100 4093 c1 -19 39 -58 48 -48 6 6 -1 18 -19 33 -16 13 -29 20 -29
15z"/>
<path d="M4878 4723 c6 -2 18 -2 25 0 6 3 1 5 -13 5 -14 0 -19 -2 -12 -5z"/>
<path d="M4781 4617 c2 -1 13 -9 24 -17 19 -14 19 -14 6 3 -7 9 -18 17 -24 17
-6 0 -8 -1 -6 -3z"/>
<path d="M5675 3399 c-46 -41 -92 -129 -66 -129 5 0 12 9 16 20 3 11 9 19 13
18 4 -1 32 12 62 30 36 21 48 32 35 32 -11 0 -37 -14 -58 -31 -20 -17 -37 -26
-37 -20 0 18 52 72 89 91 35 19 35 19 9 20 -17 0 -41 -12 -63 -31z"/>
<path d="M5799 3271 c-42 -35 -96 -135 -132 -241 -30 -92 -73 -279 -126 -550
-23 -113 -54 -257 -71 -320 -16 -63 -28 -116 -25 -118 6 -6 52 149 80 267 14
60 45 210 70 333 80 400 149 578 249 639 25 15 27 19 11 19 -11 0 -37 -13 -56
-29z"/>
<path d="M5251 2592 c-104 -276 -260 -594 -378 -769 -60 -89 -152 -183 -179
-183 -13 0 -15 -3 -7 -11 16 -16 59 10 114 68 116 122 251 365 387 695 60 144
117 306 111 313 -2 2 -24 -49 -48 -113z"/>
<path d="M5376 2218 c-23 -81 -113 -304 -171 -425 -147 -305 -304 -497 -440
-538 -38 -12 -52 -12 -92 0 -48 14 -69 12 -43 -6 28 -17 89 -30 117 -23 195
47 429 375 583 819 37 105 60 185 54 185 -2 0 -6 -6 -8 -12z"/>
<path d="M4697 3711 c-4 -84 -6 -155 -4 -158 8 -7 19 176 15 247 -2 44 -6 16
-11 -89z"/>
<path d="M4530 3693 c0 -5 7 -19 16 -31 9 -13 35 -76 58 -140 36 -99 90 -219
71 -158 -36 116 -78 232 -99 274 -24 47 -46 74 -46 55z"/>
<path d="M5279 3844 c-8 -9 -32 -25 -54 -35 -37 -16 -38 -18 -13 -18 28 -1 99
51 87 63 -3 4 -12 -1 -20 -10z"/>
<path d="M4817 3863 c-19 -197 -2 -482 30 -514 5 -5 3 19 -5 53 -10 45 -14
128 -14 296 -1 127 -2 232 -3 232 -1 0 -5 -30 -8 -67z"/>
<path d="M4996 3425 c6 -42 37 -109 55 -120 6 -4 3 8 -6 26 -10 18 -26 56 -36
83 -19 50 -19 50 -13 11z"/>
<path d="M6351 3596 c2 -2 21 -6 42 -10 27 -5 37 -4 32 3 -3 6 -22 11 -42 11
-20 0 -34 -2 -32 -4z"/>
<path d="M5837 2863 c-11 -189 -17 -721 -7 -618 9 110 25 735 18 735 -3 0 -8
-53 -11 -117z"/>
<path d="M5571 1510 c0 -208 16 -506 29 -527 10 -15 11 -13 6 14 -3 18 -8 159
-12 315 -8 300 -22 427 -23 198z"/>
<path d="M5501 1109 c-1 -57 30 -176 57 -221 22 -35 82 -97 82 -84 0 5 -14 25
-30 46 -45 57 -78 135 -94 225 -13 71 -14 75 -15 34z"/>
<path d="M5467 799 c-47 -31 -65 -49 -50 -49 5 0 25 12 46 26 21 14 52 32 70
39 31 14 31 14 6 15 -14 0 -47 -14 -72 -31z"/>
<path d="M5000 1023 c0 -29 -15 -210 -24 -303 l-6 -55 15 50 c15 51 34 335 22
335 -4 0 -7 -12 -7 -27z"/>
<path d="M4783 770 c27 -5 67 -21 89 -35 54 -36 60 -24 7 14 -35 26 -51 31
-93 30 l-51 -1 48 -8z"/>
</g>
</svg>
