<?xml version="1.0" standalone="no"?>
<!DOCTYPE svg PUBLIC "-//W3C//DTD SVG 20010904//EN"
 "http://www.w3.org/TR/2001/REC-SVG-20010904/DTD/svg10.dtd">
<svg version="1.0" xmlns="http://www.w3.org/2000/svg"
 width="1024.000000pt" height="559.000000pt" viewBox="0 0 1024.000000 559.000000"
 preserveAspectRatio="xMidYMid meet">
<metadata>
Created by potrace 1.16, written by Peter Selinger 2001-2019
</metadata>
<g transform="translate(0.000000,559.000000) scale(0.100000,-0.100000)"
fill="#000000" stroke="none">
<path d="M5143 5007 c-10 -21 -20 -25 -81 -30 -119 -10 -211 -69 -253 -161
-10 -21 -15 -23 -31 -15 -29 16 -33 -14 -10 -79 11 -31 23 -86 26 -122 6 -65
66 -211 103 -252 12 -13 14 -28 9 -63 -7 -43 -9 -45 -39 -45 -18 0 -48 -10
-67 -22 -19 -12 -61 -25 -93 -29 -32 -4 -66 -14 -75 -22 -9 -8 -36 -20 -60
-27 -66 -17 -116 -69 -148 -153 -29 -75 -58 -121 -156 -245 -32 -40 -58 -82
-58 -92 0 -11 -19 -50 -42 -87 -96 -157 -100 -196 -31 -298 25 -39 76 -99 111
-134 l65 -64 -12 -231 c-23 -443 -41 -773 -56 -1059 -9 -158 -13 -298 -9 -310
9 -31 53 -76 97 -98 l37 -19 0 -78 c0 -56 5 -84 16 -101 19 -27 104 -67 174
-82 46 -10 48 -12 64 -61 9 -28 16 -57 16 -64 0 -8 11 -19 24 -25 21 -10 23
-16 22 -82 -2 -79 -15 -106 -110 -216 -44 -52 -62 -103 -50 -135 15 -38 134
-72 217 -60 55 7 111 48 121 89 3 13 18 41 32 62 22 32 24 44 18 78 -4 22 -8
92 -9 156 l-2 117 38 6 c21 3 50 1 66 -5 88 -33 214 -33 251 1 26 24 51 30 92
22 l35 -8 -3 -87 c-1 -48 -7 -98 -12 -113 -6 -14 -10 -52 -10 -84 0 -69 14
-84 96 -99 27 -6 94 -26 149 -46 92 -34 107 -36 188 -33 83 3 90 5 113 31 l23
27 -18 48 c-17 42 -27 52 -100 94 -160 92 -195 131 -205 230 l-7 67 38 7 c79
14 76 5 68 197 l-7 172 75 82 c106 117 107 121 107 310 l0 159 38 29 c20 15
48 42 62 59 25 30 25 32 20 176 -7 225 -5 263 24 455 15 99 31 218 36 264 5
46 11 85 13 88 12 11 92 -21 110 -44 11 -14 34 -31 52 -38 l31 -13 -7 -84 c-6
-71 -48 -488 -104 -1038 -8 -80 -19 -190 -25 -245 -14 -151 -90 -893 -96 -951
-7 -54 9 -84 45 -84 40 0 50 22 61 130 10 106 60 601 80 785 6 55 22 210 36
345 13 135 45 437 69 672 25 234 45 429 45 432 0 4 11 11 24 16 38 14 72 94
81 190 6 60 -1 77 -36 95 -34 18 -38 53 -14 112 8 19 14 47 13 62 -2 34 10 70
33 100 12 14 17 32 13 46 -4 16 1 26 20 39 62 40 91 186 46 234 -17 18 -25 20
-41 11 -11 -5 -23 -17 -26 -25 -8 -22 -23 -6 -23 26 0 49 -9 60 -50 60 -25 0
-43 -7 -56 -21 -18 -20 -18 -22 -1 -34 18 -13 23 -35 7 -35 -5 0 -16 14 -25
30 -17 32 -26 36 -54 20 -23 -12 -51 -79 -51 -121 0 -37 24 -97 51 -125 17
-19 19 -25 8 -42 -10 -16 -9 -26 5 -57 12 -25 16 -48 12 -69 -9 -40 -9 -55 -1
-88 4 -15 4 -39 1 -53 -5 -20 -13 -25 -36 -25 -16 0 -32 -4 -35 -10 -12 -19
-44 -10 -99 27 -45 31 -57 46 -67 81 -8 28 -22 50 -43 64 -17 12 -43 36 -59
54 -15 18 -36 36 -47 39 -13 4 -20 15 -20 30 0 14 -18 45 -42 72 -45 53 -81
125 -122 248 -14 44 -41 105 -60 135 -19 30 -44 74 -56 96 -15 31 -33 47 -68
64 -26 12 -64 31 -84 41 -20 11 -47 19 -58 19 -12 0 -33 9 -47 19 -13 11 -44
23 -67 26 l-43 7 22 22 c34 34 67 186 71 325 5 176 5 209 -2 294 -6 77 -10 87
-31 66 -7 -7 -12 -3 -17 15 -6 26 -36 37 -36 14 0 -7 -19 7 -43 30 -49 48 -60
51 -74 19z m117 -82 c15 9 61 -45 58 -69 -2 -13 -9 -20 -18 -17 -96 25 -193
18 -293 -19 -56 -21 -169 -89 -181 -109 -12 -19 -24 -12 -35 21 -12 33 -6 52
9 29 11 -20 110 53 110 81 0 15 4 18 21 13 12 -4 37 0 60 10 30 14 39 24 39
42 0 21 2 22 21 12 28 -14 60 2 91 47 l22 33 43 -40 c24 -22 48 -37 53 -34z
m-173 19 c-3 -3 -12 -4 -19 -1 -8 3 -5 6 6 6 11 1 17 -2 13 -5z m-77 -22 c0
-11 -14 -25 -33 -34 -28 -13 -37 -14 -57 -3 l-24 13 40 20 c49 26 74 28 74 4z
m-120 -64 c-1 -22 -46 -66 -57 -55 -4 5 47 77 55 77 1 0 2 -10 2 -22z m394
-43 c22 -9 41 -26 46 -41 13 -32 13 -44 0 -44 -5 0 -10 7 -10 15 0 9 -6 18
-14 21 -8 3 -17 15 -20 26 -5 21 -5 21 -26 -3 -11 -13 -20 -19 -19 -14 3 25
-3 23 -32 -7 l-30 -33 4 28 c6 35 -5 42 -28 17 -23 -26 -31 -25 -38 2 l-6 22
-29 -27 c-32 -31 -42 -34 -42 -12 0 26 -15 17 -27 -16 -11 -27 -15 -30 -28
-19 -13 11 -15 8 -15 -23 0 -20 -9 -51 -20 -70 -15 -25 -19 -43 -14 -64 7 -28
7 -28 -28 10 -36 37 -52 40 -85 14 -10 -7 -13 0 -13 31 0 38 4 44 53 81 138
103 319 148 421 106z m1 -81 c14 5 18 -4 30 -60 6 -30 4 -32 -32 -40 -21 -4
-41 -8 -45 -8 -18 -2 -19 -20 -4 -86 9 -39 14 -76 10 -82 -4 -5 -19 -7 -35 -4
-15 3 -31 1 -34 -3 -9 -15 65 -24 81 -10 15 12 13 56 -3 113 -4 15 -2 18 13
12 10 -4 21 -2 25 5 4 6 12 8 19 4 26 -16 -15 -268 -50 -310 -18 -22 -77 -29
-123 -15 -67 19 -151 75 -169 112 -16 32 -17 32 -17 7 -1 -39 30 -72 108 -113
50 -26 81 -36 115 -36 l46 0 0 -42 c0 -56 15 -82 27 -50 9 23 9 23 32 5 20
-16 22 -23 13 -40 -29 -53 -191 -66 -317 -24 -123 40 -140 63 -82 112 l32 27
3 115 4 116 -29 3 c-59 7 -100 148 -42 148 12 0 27 -12 37 -30 11 -19 25 -30
40 -30 19 0 22 5 22 43 1 27 10 56 26 82 13 22 27 48 30 58 4 11 13 16 24 12
9 -3 23 2 30 10 10 13 15 13 21 3 6 -10 15 -10 38 -1 23 8 30 8 28 0 -3 -18
73 -11 92 8 15 15 16 15 19 0 2 -9 10 -14 17 -11z m35 -127 c0 -9 -10 -12 -31
-9 -22 3 -27 7 -18 13 21 13 49 11 49 -4z m-410 -213 c0 -8 -4 -12 -10 -9 -5
3 -10 13 -10 21 0 8 5 12 10 9 6 -3 10 -13 10 -21z m-42 -197 c-14 -13 -29
-34 -33 -45 -8 -27 -26 -28 -49 -3 -17 19 -17 20 6 34 45 28 63 36 82 37 17 0
16 -3 -6 -23z m486 -38 c38 -33 70 -104 81 -182 4 -26 11 -47 16 -47 12 0 -1
98 -22 160 -11 30 -19 56 -19 58 0 2 15 -5 33 -16 17 -11 48 -25 68 -31 89
-29 109 -90 90 -282 -17 -179 -51 -319 -133 -549 -94 -266 -178 -371 -307
-387 -51 -6 -141 15 -176 40 -17 13 -17 17 -6 31 13 15 8 23 -38 66 l-52 49
44 21 c90 42 222 205 297 365 36 79 100 266 100 295 0 10 4 21 8 24 11 7 -5
-177 -24 -264 -9 -41 -27 -104 -40 -139 -29 -76 -30 -86 -5 -46 72 113 118
421 92 620 -19 144 -36 193 -76 217 -19 11 -35 22 -35 24 0 2 16 4 35 4 24 0
45 -9 69 -31z m-608 -10 c19 -11 34 -24 34 -27 0 -4 -11 -19 -24 -34 -22 -25
-27 -26 -62 -16 -62 17 -129 4 -185 -37 -60 -43 -63 -30 -6 29 52 55 96 66
180 44 68 -18 74 -2 8 23 -41 15 -42 16 -19 26 32 16 36 16 74 -8z m108 -62
c22 -16 18 -55 -6 -71 -26 -16 -72 4 -76 34 -4 25 20 50 48 50 9 0 24 -6 34
-13z m218 -67 c78 -12 169 1 210 31 l28 19 6 -27 c6 -22 1 -32 -26 -56 -31
-28 -37 -29 -95 -24 -71 7 -287 76 -292 94 -3 8 14 6 50 -7 30 -11 83 -24 119
-30z m-353 19 c17 -6 31 -15 31 -20 0 -5 13 -15 28 -23 21 -11 35 -33 55 -84
57 -145 164 -308 279 -427 l67 -71 -50 -78 c-48 -76 -51 -78 -65 -58 -23 33
-124 239 -124 253 0 7 -3 10 -6 6 -13 -13 68 -200 117 -268 18 -26 18 -26 -5
-48 -17 -16 -38 -23 -72 -24 -49 -2 -49 -2 -71 43 -28 57 -58 173 -80 318 -10
61 -20 112 -23 112 -9 0 9 -155 31 -263 11 -54 31 -123 44 -154 14 -31 23 -59
19 -62 -3 -3 -28 6 -55 22 -52 29 -64 33 -54 18 7 -13 -27 -31 -57 -31 -29 0
-75 45 -82 80 -2 14 -10 73 -17 131 -10 93 -10 109 5 137 18 35 19 42 9 42 -5
0 -20 -19 -34 -43 -15 -23 -39 -61 -53 -85 l-26 -42 -63 51 c-34 28 -79 71
-100 95 -21 24 -59 56 -83 70 -40 23 -43 28 -31 43 44 51 118 146 156 200 48
67 116 137 153 158 29 15 114 17 157 2z m253 -44 c108 -39 236 -68 272 -61 18
4 42 15 54 26 11 11 24 16 27 11 9 -15 -13 -179 -35 -266 -22 -81 -83 -242
-98 -257 -12 -12 -109 95 -185 205 -63 90 -102 160 -151 272 -33 74 -12 73 42
-2 61 -88 140 -172 205 -220 64 -46 105 -60 47 -16 -69 53 -163 149 -217 221
-30 40 -53 75 -51 77 2 3 20 -8 39 -24 50 -41 164 -109 221 -132 51 -20 138
-26 138 -9 0 6 -19 10 -43 10 -53 0 -170 55 -274 129 -100 70 -98 75 9 36z
m711 -122 c19 -43 40 -98 47 -123 17 -62 62 -148 104 -199 50 -60 47 -69 -18
-67 -61 1 -95 -18 -134 -74 -29 -44 -20 -51 14 -11 41 49 78 64 137 57 54 -8
96 -26 116 -50 12 -14 9 -16 -22 -16 -52 0 -125 -53 -165 -120 -69 -115 -116
-331 -157 -725 -22 -212 -52 -417 -74 -508 -10 -43 -15 -75 -10 -70 24 24 72
266 98 498 45 393 73 560 116 686 35 103 86 176 138 200 52 23 95 24 127 2 42
-28 57 -63 19 -42 -45 23 -114 -8 -153 -69 -52 -83 -73 -172 -127 -532 -100
-675 -205 -1028 -387 -1299 -163 -244 -451 -451 -627 -451 -50 0 -55 2 -55 23
0 12 -9 42 -20 66 -21 46 -18 86 6 77 18 -7 18 -16 -11 106 -29 119 -33 237
-11 341 13 59 13 76 0 123 -17 67 -17 110 0 149 l13 30 8 -38 c8 -42 25 -60
25 -25 -1 13 -7 59 -16 103 -8 44 -21 127 -30 185 -8 58 -22 122 -30 143 -15
39 -18 96 -7 136 l6 24 18 -24 c32 -42 21 0 -27 100 -68 141 -68 155 7 339 19
45 32 40 23 -10 -4 -24 -7 -73 -6 -110 1 -38 -1 -68 -3 -68 -2 0 -11 12 -19
28 l-15 27 -1 -26 c0 -15 10 -35 25 -49 63 -59 233 -2 363 124 48 46 81 93 46
66 -10 -8 -42 -35 -70 -60 -63 -57 -187 -121 -246 -127 l-45 -5 -7 51 c-4 28
-4 80 0 116 6 58 9 65 29 65 12 0 42 -16 68 -36 52 -41 92 -44 91 -7 0 18 3
20 17 12 26 -13 59 -11 65 5 3 8 14 16 25 19 25 7 24 32 -2 68 -20 29 -12 42
10 15 17 -21 108 -55 169 -63 l54 -8 -65 -107 c-122 -201 -288 -393 -391 -453
-64 -37 -42 -45 24 -9 108 59 334 334 429 523 25 48 37 60 81 81 68 32 119 91
174 203 25 51 46 89 46 86 0 -8 -38 -189 -61 -289 -144 -623 -293 -1042 -491
-1383 -22 -38 -37 -71 -34 -74 10 -10 119 170 181 300 162 341 313 841 404
1337 38 207 50 256 96 415 l35 120 -4 -240 c-5 -212 -26 -485 -56 -715 -21
-162 -9 -161 18 0 45 262 78 702 68 899 -7 135 3 411 14 411 4 0 23 -35 43
-77z m757 -118 c6 -60 27 -70 65 -29 l25 26 11 -28 c21 -56 -12 -158 -60 -184
-18 -9 -21 -7 -27 15 -9 35 -25 21 -17 -16 l6 -30 -44 7 c-71 9 -72 10 -53 39
21 32 9 47 -12 16 -13 -18 -18 -20 -31 -9 -41 34 -55 126 -28 178 19 37 28 38
43 5 7 -14 19 -28 27 -31 32 -13 74 53 45 71 -17 10 0 26 23 23 18 -2 23 -11
27 -53z m-2068 -236 l67 -67 -23 -21 -23 -22 -38 25 c-21 14 -45 26 -54 26
-12 -1 -10 -5 8 -18 54 -38 108 -102 146 -175 41 -77 111 -169 153 -201 21
-16 29 -17 95 -3 67 13 75 13 127 -6 56 -20 150 -97 119 -97 -9 0 -27 8 -40
19 -14 10 -40 23 -59 29 -19 5 -43 13 -52 17 -35 14 -17 -14 30 -48 55 -39
117 -113 103 -121 -5 -3 -32 13 -59 36 -57 49 -112 83 -112 71 0 -5 32 -34 70
-66 65 -53 84 -77 60 -77 -6 0 -41 21 -79 46 -39 25 -75 44 -81 42 -6 -2 10
-25 35 -51 40 -43 55 -67 40 -67 -3 0 -28 18 -56 40 -32 25 -61 40 -79 40 -44
0 -80 17 -130 63 -25 23 -79 67 -120 97 -127 92 -183 145 -244 230 -80 111
-79 125 23 297 l43 73 32 -22 c17 -12 61 -52 98 -89z m2081 -36 c4 -2 7 -9 7
-15 0 -7 -23 -9 -71 -5 -77 6 -85 9 -74 27 7 11 117 5 138 -7z m-1844 -127 c6
-63 16 -107 28 -124 25 -38 29 -140 6 -149 -12 -5 -26 4 -46 30 l-30 36 2 143
c1 83 7 148 13 156 6 7 12 11 14 10 1 -2 7 -48 13 -102z m1819 79 c3 -3 -20
-69 -28 -78 -4 -4 -18 -5 -32 -2 -20 5 -27 16 -35 50 l-10 44 51 -6 c28 -3 52
-7 54 -8z m-1953 -41 c21 -8 46 -13 57 -11 17 5 18 -3 18 -106 l-1 -112 -32
52 c-70 114 -97 168 -93 180 7 16 6 16 51 -3z m1920 -64 c25 -6 27 -8 12 -15
-21 -9 -87 2 -87 15 0 11 30 11 75 0z m-312 -100 c47 -33 90 -60 96 -60 14 0
14 -1 -3 -40 -14 -34 -11 -74 5 -64 5 3 9 16 9 28 0 26 31 71 61 86 35 19 89
-41 89 -99 0 -33 -29 -25 -47 14 -19 39 -48 50 -35 13 12 -34 3 -58 -26 -70
l-27 -11 24 -6 c19 -5 24 -14 26 -44 2 -46 -9 -47 -49 -4 -25 26 -51 39 -131
61 -146 41 -225 75 -225 95 0 28 50 120 77 141 14 11 36 20 48 20 12 0 60 -27
108 -60z m299 -10 c-2 -36 -8 -69 -13 -74 -18 -19 -38 28 -39 87 0 58 0 58 28
55 27 -3 27 -4 24 -68z m-1438 -56 l51 6 -33 -29 c-18 -16 -48 -37 -67 -47
-30 -16 -38 -16 -73 -5 -25 9 -57 11 -85 7 -41 -6 -45 -5 -51 16 -3 13 -6 33
-6 45 0 19 4 22 28 17 15 -3 44 1 62 8 32 13 39 13 79 -5 33 -15 56 -18 95
-13z m1487 -24 c28 -16 24 -47 -11 -65 -38 -20 -47 -19 -53 6 -4 15 1 23 20
30 16 6 23 14 19 24 -6 18 -1 19 25 5z m-537 -76 l56 -25 0 -152 c0 -159 15
-575 26 -735 l6 -93 -44 -42 c-24 -23 -75 -69 -112 -101 l-68 -59 6 124 c13
283 18 611 8 605 -5 -3 -12 -91 -16 -198 -4 -106 -11 -279 -17 -384 -7 -137
-7 -198 1 -219 6 -16 33 -53 61 -82 50 -53 58 -77 37 -116 -13 -26 -127 -161
-139 -165 -5 -2 -9 24 -9 59 0 34 -5 194 -11 354 -11 279 -10 296 10 396 21
106 71 409 91 554 25 178 48 305 55 305 1 0 28 -12 59 -26z m537 -45 c-13 -10
-36 -19 -52 -19 -38 0 -99 25 -99 41 0 9 3 9 14 0 15 -13 97 -6 126 10 28 15
37 -11 11 -32z m-1909 -107 l66 -57 -15 -35 c-9 -19 -27 -66 -40 -105 -30 -83
-27 -117 17 -214 30 -65 32 -73 21 -115 -15 -61 -14 -95 5 -147 9 -24 20 -75
25 -114 4 -38 14 -98 20 -131 11 -56 10 -69 -11 -142 -22 -76 -22 -82 -8 -140
14 -53 14 -70 1 -144 -18 -99 -12 -244 12 -335 14 -54 15 -67 3 -93 -7 -16
-17 -30 -23 -30 -45 1 -195 70 -195 90 0 4 16 18 35 30 19 12 40 31 46 42 12
22 -5 1393 -20 1573 -12 147 -13 -799 -1 -1184 5 -173 8 -316 7 -317 -8 -8
-174 85 -189 106 -20 28 -21 -5 22 805 5 99 14 290 20 425 6 135 13 273 16
307 l6 63 56 -41 c31 -22 87 -66 124 -97z m1494 108 c26 -10 26 -11 19 -82
-10 -105 -43 -319 -49 -326 -3 -3 -6 62 -6 145 0 82 -3 178 -6 212 -7 65 -5
68 42 51z m387 -39 c24 7 28 5 23 -7 -3 -9 -6 -18 -6 -20 0 -2 -20 -4 -45 -4
-49 0 -95 17 -95 35 0 9 11 9 47 0 29 -7 59 -9 76 -4z m-46 -58 c49 -6 48 -23
-1 -23 -20 0 -44 9 -57 21 -21 18 -21 20 -4 14 11 -4 39 -10 62 -12z m-28 -52
c11 -7 12 -22 7 -68 -4 -32 -18 -164 -31 -293 -14 -129 -31 -298 -40 -375 -8
-77 -26 -252 -40 -390 -14 -137 -35 -338 -46 -445 -11 -107 -31 -301 -44 -430
-37 -352 -35 -342 -54 -338 -23 5 -22 27 44 663 14 132 32 312 40 400 9 88 34
336 55 550 22 215 48 468 57 563 16 170 20 183 52 163z m-676 -1088 c4 -126
11 -338 17 -472 6 -134 9 -250 6 -257 -2 -6 -28 -17 -56 -23 -28 -6 -65 -18
-82 -27 -26 -14 -51 -15 -147 -9 -109 6 -118 5 -143 -15 -38 -29 -110 -35
-184 -16 -34 9 -79 16 -100 16 -45 1 -42 4 54 58 32 18 95 65 140 103 l82 70
1 -73 c2 -127 17 -134 18 -8 l2 115 34 39 35 39 0 -94 c0 -144 17 -143 21 2
l4 124 54 89 c84 138 193 406 216 530 4 20 11 36 15 36 4 0 10 -102 13 -227z
m202 17 c0 -55 -2 -100 -5 -100 -15 0 -80 78 -80 97 0 21 63 103 79 103 4 0 7
-45 6 -100z m-1415 -480 c23 -23 19 -38 -15 -63 l-25 -18 0 51 c0 54 9 61 40
30z m1130 -359 c0 -26 -4 -30 -37 -35 -48 -7 -115 5 -121 22 -2 8 12 12 50 12
29 1 64 7 78 15 14 8 26 14 28 15 1 0 2 -13 2 -29z m-702 -28 c-4 -32 -33 -43
-98 -34 -58 8 -58 24 2 32 25 4 55 12 65 18 28 16 35 13 31 -16z m640 -33 c17
0 32 -4 32 -10 0 -11 -81 -13 -117 -4 -39 11 -26 27 15 20 20 -3 52 -6 70 -6z
m80 -2 c-6 -18 -28 -21 -28 -4 0 9 7 16 16 16 9 0 14 -5 12 -12z m-844 -27 c3
-4 3 -11 0 -14 -8 -8 -34 3 -34 14 0 11 27 12 34 0z m136 0 c0 -11 -25 -21
-51 -21 -24 0 -25 17 -1 23 30 8 52 7 52 -2z m-90 -9 c0 -13 -12 -22 -22 -16
-10 6 -1 24 13 24 5 0 9 -4 9 -8z m725 -12 c24 0 34 -7 49 -34 l19 -35 -31
-31 c-18 -17 -37 -49 -43 -71 -7 -21 -15 -39 -18 -39 -13 1 -81 161 -81 191 0
31 1 31 38 25 20 -3 51 -6 67 -6z m90 -26 c11 -20 48 -63 84 -95 35 -32 58
-59 52 -59 -28 0 -171 154 -171 185 0 16 18 0 35 -31z m-865 -24 c0 -17 -7
-30 -16 -34 -24 -9 -25 -5 -12 37 13 41 28 40 28 -3z m130 -25 c0 -30 -2 -55
-5 -55 -16 0 -65 46 -65 61 0 35 12 49 41 49 28 0 29 -1 29 -55z m-91 -2 c-13
-66 -38 -141 -51 -149 -8 -5 -9 1 -4 17 25 91 36 136 36 156 0 13 6 23 14 23
11 0 12 -10 5 -47z m651 -63 c26 -56 22 -69 -15 -52 -21 10 -25 18 -25 57 0
25 4 45 8 45 5 0 19 -22 32 -50z m180 43 c0 -4 -9 -16 -20 -28 -11 -12 -29
-39 -39 -61 -15 -30 -21 -35 -26 -22 -7 17 16 70 43 101 15 17 42 24 42 10z
m-880 -13 c0 -5 -12 -10 -27 -9 l-28 1 25 8 c14 4 26 8 28 9 1 1 2 -3 2 -9z
m97 -22 c11 -13 23 -31 27 -42 5 -14 -2 -12 -28 10 -32 27 -46 54 -28 54 5 0
18 -10 29 -22z m823 -3 c10 -12 7 -20 -14 -46 -14 -17 -26 -37 -26 -45 0 -11
-6 -13 -22 -8 -13 3 -24 8 -26 9 -6 5 21 62 40 83 25 26 31 27 48 7z m-932
-17 c-3 -7 -20 -14 -39 -16 -32 -2 -33 -1 -15 13 24 18 59 20 54 3z m169 -25
c-3 -10 -5 -4 -5 12 0 17 2 24 5 18 2 -7 2 -21 0 -30z m-67 -3 c11 -11 20 -27
20 -35 0 -12 -7 -9 -27 10 -15 14 -31 25 -36 25 -4 0 -5 5 -2 10 9 15 23 12
45 -10z m873 4 c4 -4 -5 -20 -18 -36 -14 -16 -25 -34 -25 -39 0 -5 -4 -9 -10
-9 -17 0 -11 36 11 64 21 26 31 31 42 20z m148 -24 c22 -19 22 -20 2 -8 -12 7
-26 8 -30 4 -4 -5 -2 -11 4 -13 25 -9 58 -41 50 -49 -4 -4 -14 2 -23 14 -8 12
-23 22 -33 22 -22 0 -45 25 -36 40 10 16 41 12 66 -10z m-1141 1 c0 -5 -20 -9
-46 -9 -28 1 -40 4 -32 9 18 12 78 11 78 0z m115 -38 c3 -10 -4 -9 -26 2 -16
9 -27 20 -24 25 7 11 42 -8 50 -27z m947 12 c12 -14 30 -25 39 -25 22 0 35
-18 21 -32 -10 -10 -121 -1 -142 12 -9 6 -9 13 0 31 25 46 50 50 82 14z m-282
-4 c47 -11 110 -31 140 -45 30 -14 65 -26 77 -26 13 0 42 -5 65 -11 38 -10 49
-9 87 10 48 23 61 22 36 -2 -38 -39 -172 -30 -288 19 -31 13 -90 31 -129 40
-40 8 -77 19 -82 24 -14 14 -5 13 94 -9z m-607 -15 c-10 -13 -19 -23 -21 -21
-7 6 19 45 29 45 5 0 2 -11 -8 -24z m-167 -3 c11 -15 16 -16 34 -5 21 13 32
10 63 -16 16 -15 16 -17 -10 -44 -29 -31 -70 -37 -80 -13 -3 9 2 22 13 30 11
7 16 17 12 20 -13 14 -40 -5 -51 -35 -6 -17 -15 -30 -19 -30 -17 0 -19 23 -4
45 10 15 12 25 6 25 -6 0 -19 -13 -28 -30 -9 -16 -20 -30 -24 -30 -11 0 -10 7
7 40 9 17 11 30 6 30 -6 0 -18 -15 -27 -32 -10 -18 -19 -28 -21 -21 -2 7 0 21
6 32 17 31 12 38 -9 12 -15 -17 -20 -19 -20 -8 0 43 118 66 146 30z m118 -86
c-11 -30 -73 -50 -138 -45 -60 5 -144 33 -133 44 3 3 15 1 26 -5 11 -7 53 -16
93 -21 78 -9 130 4 142 37 4 9 9 14 11 11 3 -3 3 -12 -1 -21z"/>
<path d="M5149 4939 c-16 -31 4 -71 34 -67 16 2 23 11 25 31 6 51 -37 77 -59
36z m37 -35 c-5 -13 -10 -14 -18 -6 -6 6 -8 18 -4 28 5 13 10 14 18 6 6 -6 8
-18 4 -28z"/>
<path d="M5032 4627 c-11 -13 -7 -14 33 -9 30 3 45 1 45 -7 0 -6 -8 -11 -19
-11 -10 0 -25 -8 -32 -17 -12 -15 -12 -16 5 -10 10 4 24 3 31 -3 9 -7 20 -6
39 3 l26 14 -23 11 c-20 10 -19 10 9 5 17 -3 34 0 38 5 9 16 -4 20 -75 28 -51
5 -67 3 -77 -9z"/>
<path d="M4850 4560 c0 -5 7 -10 16 -10 12 0 14 -7 9 -28 -4 -19 -1 -33 8 -40
10 -9 13 -4 14 26 1 20 -3 43 -9 50 -12 14 -38 16 -38 2z"/>
<path d="M4989 4483 c12 -23 29 -38 37 -31 2 3 -8 15 -22 29 -25 23 -26 23
-15 2z"/>
<path d="M5151 4379 c-13 -5 -22 -11 -20 -12 11 -7 138 6 133 14 -7 12 -82 11
-113 -2z"/>
<path d="M5188 4333 c12 -2 32 -2 45 0 12 2 2 4 -23 4 -25 0 -35 -2 -22 -4z"/>
<path d="M5030 4185 c14 -36 50 -105 55 -105 6 0 -10 40 -35 90 -23 44 -35 54
-20 15z"/>
<path d="M5177 4153 l-17 -38 20 24 c11 13 20 29 20 37 0 22 -5 17 -23 -23z"/>
<path d="M5504 4050 c22 -112 28 -208 22 -349 -3 -86 -9 -174 -12 -196 -11
-69 6 -31 21 49 28 146 13 444 -25 504 -10 14 -11 13 -6 -8z"/>
<path d="M5478 3815 c-4 -22 -10 -76 -13 -120 -14 -178 -74 -426 -128 -529
-44 -83 -109 -151 -162 -172 -35 -13 -62 -15 -118 -11 -65 6 -70 5 -53 -8 27
-21 147 -20 192 1 71 34 165 158 195 257 62 204 102 429 97 547 -3 65 -4 70
-10 35z"/>
<path d="M5234 3202 c-59 -79 -130 -135 -199 -159 -43 -15 -46 -18 -23 -21 58
-7 169 73 234 168 26 38 45 72 43 74 -2 3 -27 -25 -55 -62z"/>
<path d="M4600 4010 c0 -6 6 -23 14 -38 24 -47 46 -166 53 -289 6 -101 8 -113
17 -84 12 40 -6 241 -28 312 -22 72 -56 132 -56 99z"/>
<path d="M4721 3639 c-1 -124 -4 -255 -7 -290 -4 -55 -3 -61 8 -44 16 25 24
447 10 515 -7 34 -10 -13 -11 -181z"/>
<path d="M4536 3808 c-7 -40 -26 -206 -26 -230 0 -10 4 -18 8 -18 9 0 37 268
29 276 -3 3 -7 -10 -11 -28z"/>
<path d="M5795 3403 c-67 -35 -125 -110 -146 -188 -7 -25 -6 -27 4 -11 7 10
28 44 48 76 40 62 82 98 144 123 39 16 39 16 10 16 -16 0 -43 -7 -60 -16z"/>
<path d="M5285 2758 c-182 -513 -398 -910 -558 -1028 -23 -16 -34 -30 -25 -30
41 0 132 91 223 225 101 147 261 488 325 692 44 138 48 153 44 153 -3 0 -7 -6
-9 -12z"/>
<path d="M5467 2333 c-3 -5 -12 -31 -20 -60 -50 -169 -178 -485 -263 -650 -80
-155 -179 -298 -269 -388 -81 -81 -166 -135 -212 -135 -13 0 -23 -5 -23 -11 0
-19 77 -2 129 28 67 39 207 185 276 288 117 177 238 436 329 708 51 150 77
260 53 220z"/>
<path d="M4170 3378 c0 -20 53 -84 84 -100 12 -6 4 7 -20 33 -23 24 -46 53
-52 64 -10 17 -11 17 -12 3z"/>
<path d="M4734 3139 c10 -6 48 -13 85 -15 51 -3 59 -2 37 5 -15 6 -53 13 -85
16 -45 5 -52 4 -37 -6z"/>
<path d="M5868 3000 c-7 -19 -38 -514 -43 -707 -7 -269 11 -90 46 442 10 160
9 293 -3 265z"/>
<path d="M5576 1613 c-8 -51 -6 -353 4 -428 4 -39 8 34 9 203 0 144 -1 262 -3
262 -2 0 -6 -17 -10 -37z"/>
<path d="M5430 810 c0 -29 33 -60 44 -41 3 5 -1 11 -9 15 -8 3 -15 17 -15 31
0 14 -4 25 -10 25 -5 0 -10 -13 -10 -30z"/>
</g>
</svg>
