<?xml version="1.0" standalone="no"?>
<!DOCTYPE svg PUBLIC "-//W3C//DTD SVG 20010904//EN"
 "http://www.w3.org/TR/2001/REC-SVG-20010904/DTD/svg10.dtd">
<svg version="1.0" xmlns="http://www.w3.org/2000/svg"
 width="1024.000000pt" height="559.000000pt" viewBox="0 0 1024.000000 559.000000"
 preserveAspectRatio="xMidYMid meet">
<metadata>
Created by potrace 1.16, written by Peter Selinger 2001-2019
</metadata>
<g transform="translate(0.000000,559.000000) scale(0.100000,-0.100000)"
fill="#000000" stroke="none">
<path d="M6615 5054 c-76 -39 -121 -71 -222 -156 -84 -72 -95 -86 -144 -181
-29 -56 -76 -139 -106 -185 -62 -96 -103 -175 -103 -197 0 -8 -8 -15 -18 -15
-19 0 -52 -29 -52 -45 0 -4 -7 -13 -15 -19 -9 -6 -17 -23 -19 -38 -1 -15 -18
-44 -37 -66 -19 -21 -51 -59 -71 -84 -21 -26 -49 -49 -65 -52 -33 -9 -113 -58
-138 -86 -11 -13 -31 -20 -52 -20 -32 0 -34 2 -31 31 3 27 9 32 56 48 61 21
63 22 64 47 1 28 -12 136 -17 144 -3 4 2 13 10 20 25 21 17 48 -25 81 -22 18
-40 40 -40 50 0 10 -5 30 -11 46 -7 15 -11 42 -10 60 3 36 -22 79 -50 88 -10
4 -19 13 -19 21 0 28 -154 9 -275 -33 -59 -21 -130 -86 -141 -128 -4 -17 -15
-42 -25 -57 -20 -27 -24 -48 -11 -48 4 0 7 -21 8 -48 1 -65 26 -108 116 -200
81 -82 84 -91 56 -149 -12 -24 -121 -73 -161 -73 -45 0 -124 -30 -178 -67 -71
-50 -116 -70 -175 -78 -27 -4 -58 -12 -69 -18 -11 -6 -33 -12 -50 -13 -61 -5
-97 -17 -111 -39 -8 -13 -30 -26 -48 -29 -18 -4 -71 -22 -117 -40 -46 -19
-122 -46 -169 -60 -90 -27 -201 -90 -259 -147 -19 -19 -50 -46 -69 -61 -41
-32 -83 -88 -76 -99 3 -5 18 -9 34 -9 27 0 29 -2 20 -24 -6 -17 -5 -28 4 -35
22 -18 46 -2 77 54 33 59 54 80 87 88 26 6 28 -5 6 -38 -22 -33 -15 -79 13
-83 15 -2 29 8 50 35 15 21 38 46 49 55 12 10 30 38 40 63 11 25 26 47 34 51
29 11 374 23 386 13 23 -19 144 -1 144 22 0 5 19 6 43 3 30 -4 71 3 147 25
117 34 150 38 150 16 0 -8 20 -60 44 -117 43 -101 43 -104 33 -161 -9 -52 -8
-60 10 -86 23 -31 20 -45 -15 -56 -13 -4 -70 -51 -126 -104 -104 -99 -126
-111 -200 -111 -52 0 -178 -39 -229 -72 -88 -56 -92 -85 -25 -176 54 -73 64
-104 43 -136 -26 -40 -107 -95 -193 -131 -181 -76 -191 -84 -410 -323 -62 -67
-121 -121 -145 -133 -23 -12 -53 -32 -67 -44 -14 -13 -48 -33 -76 -44 -93 -36
-148 -64 -188 -95 -44 -34 -86 -114 -86 -164 0 -42 38 -82 78 -82 51 0 126 29
178 68 28 22 84 62 125 89 41 28 104 81 139 117 72 73 139 112 295 171 117 45
153 66 233 137 45 41 79 60 143 83 46 17 141 65 211 107 l127 76 57 -23 c32
-13 96 -29 143 -35 47 -6 120 -19 161 -27 132 -28 294 -19 436 24 46 14 55 14
108 -1 l57 -17 -60 -30 c-40 -20 -77 -49 -108 -86 -49 -57 -124 -117 -196
-158 l-39 -23 -41 24 c-23 13 -52 24 -65 24 -39 0 -78 -50 -102 -129 -21 -71
-22 -72 -88 -115 -104 -67 -146 -128 -110 -164 38 -38 252 33 441 147 123 73
153 86 324 145 87 29 190 68 228 86 39 18 94 43 123 56 128 54 178 119 170
220 -6 67 -41 121 -168 253 -49 52 -90 98 -90 102 0 13 -97 95 -162 137 -37
24 -76 59 -87 78 -11 18 -31 36 -44 39 -20 5 -26 15 -31 51 -3 24 -12 58 -21
74 -20 38 -19 69 1 92 11 11 20 47 25 95 4 43 15 116 24 163 9 49 17 146 18
232 l2 146 48 70 c26 39 81 108 122 154 41 45 87 108 102 139 16 31 37 60 47
65 30 14 77 104 71 137 -3 19 7 51 34 105 44 87 58 129 100 294 38 146 48 167
80 174 30 6 40 11 136 62 49 26 71 44 73 59 4 28 -26 37 -75 24 -20 -6 -39 -8
-42 -6 -10 10 15 24 64 35 92 22 140 44 140 65 0 14 -11 22 -38 30 -35 10 -37
12 -22 25 17 14 17 51 0 56 -5 2 -32 -8 -60 -22z m55 -9 c0 -2 -25 -23 -56
-46 -31 -23 -70 -63 -87 -90 -16 -27 -34 -49 -39 -49 -5 0 -6 -5 -2 -11 6 -10
38 -9 112 7 17 3 32 2 32 -3 0 -14 -22 -33 -39 -33 -9 0 -42 -16 -74 -35 -32
-19 -70 -35 -85 -35 -30 0 -47 -9 -47 -25 0 -5 -11 -41 -23 -80 -12 -38 -36
-119 -52 -178 -28 -98 -96 -267 -108 -267 -3 0 -24 18 -48 40 -24 22 -55 46
-69 52 -14 6 -25 17 -25 23 0 25 33 90 92 183 33 53 85 145 116 204 52 98 65
115 137 176 125 106 265 194 265 167z m30 -75 l25 -7 -25 -6 c-14 -3 -47 -8
-73 -9 -48 -3 -48 -3 -27 14 23 19 57 21 100 8z m-72 -35 c-3 -3 -20 -10 -38
-15 -19 -5 -29 -6 -24 -1 12 12 74 27 62 16z m-1168 -404 c0 -5 10 -13 23 -16
33 -11 67 -46 66 -69 0 -19 -2 -19 -21 6 l-21 27 -20 -42 c-16 -34 -21 -38
-25 -22 -5 26 -22 44 -22 24 0 -17 -63 -82 -72 -74 -3 3 -11 -1 -18 -10 -10
-12 -10 -15 5 -15 15 0 16 -5 9 -37 -4 -21 -7 -53 -7 -70 2 -37 -3 -40 -35
-17 -53 37 -111 -7 -90 -67 6 -16 18 -35 28 -42 21 -15 38 -67 22 -67 -6 0
-13 -14 -17 -31 l-7 -31 -75 78 c-42 44 -82 95 -91 114 -17 40 -19 147 -3 163
6 6 11 18 11 27 0 10 13 35 29 57 34 48 99 78 221 104 101 21 110 22 110 10z
m85 -138 c14 -21 25 -50 25 -64 0 -20 11 -36 40 -59 41 -33 50 -54 27 -63 -9
-3 -12 -16 -10 -34 4 -26 1 -31 -29 -41 l-33 -12 38 6 c35 5 38 3 33 -14 -4
-11 -2 -31 3 -45 9 -22 7 -29 -12 -42 -12 -8 -36 -18 -54 -21 -18 -3 -36 -11
-41 -18 -18 -22 -21 -73 -7 -112 11 -30 14 -33 15 -15 0 20 2 21 15 11 22 -18
19 -73 -5 -95 -15 -13 -20 -33 -22 -89 l-3 -71 -35 60 -36 60 -64 11 c-75 13
-111 26 -152 55 l-28 21 24 29 c15 17 28 49 32 77 3 26 13 59 20 74 8 15 14
38 14 53 0 21 5 25 30 25 39 0 39 15 0 16 -34 1 -56 17 -76 55 -28 55 12 83
70 48 20 -12 40 -19 43 -15 6 6 12 71 14 137 0 16 12 38 30 54 23 23 29 25 29
12 0 -25 16 -21 42 12 13 17 26 30 30 30 4 1 19 -16 33 -36z m597 -173 c42
-40 58 -63 58 -82 0 -38 -16 -43 -35 -11 -16 27 -16 27 -10 3 16 -62 17 -71 5
-85 -17 -21 -40 -19 -40 3 0 51 -95 152 -143 152 -12 0 -17 6 -15 18 5 25 71
21 110 -8 16 -12 32 -20 34 -17 9 8 -49 48 -78 54 -36 7 -42 17 -23 37 24 23
70 2 137 -64z m-143 -44 c41 -22 88 -80 102 -125 19 -63 1 -90 -231 -358 -15
-18 -31 -44 -34 -59 -10 -37 -21 -20 -36 54 -20 99 -23 65 -4 -59 20 -141 15
-327 -15 -479 -12 -58 -21 -119 -21 -136 0 -55 -61 -84 -180 -84 -62 0 -237
24 -247 33 -2 3 17 12 44 21 26 9 62 27 78 41 l30 25 -45 -25 c-74 -40 -137
-50 -202 -31 -78 22 -108 48 -108 94 0 52 14 72 30 42 6 -12 14 -20 16 -17 3
2 -15 44 -40 93 -58 116 -89 198 -76 202 6 2 8 8 4 13 -10 17 -99 9 -185 -16
-46 -13 -106 -25 -133 -25 -47 0 -48 1 -42 26 10 38 -11 127 -39 168 l-24 36
22 14 c12 7 43 16 69 20 49 6 99 29 198 91 30 19 80 39 110 45 30 6 75 17 98
25 42 14 45 14 75 -9 51 -38 89 -54 162 -69 l69 -13 40 -67 c54 -90 66 -88 66
14 0 66 4 86 20 106 22 28 27 82 9 100 -9 9 -5 14 15 19 15 3 48 24 74 46 26
21 69 46 96 56 33 12 58 30 79 57 44 56 120 145 124 145 2 0 17 -7 32 -14z
m-1367 -593 c71 -78 76 -233 7 -233 -16 0 -18 3 -9 19 18 35 11 37 -10 4 -18
-31 -39 -41 -53 -27 -3 4 0 13 8 21 32 32 3 156 -45 197 -33 27 -25 42 15 32
16 -4 35 -25 55 -59 16 -28 30 -48 30 -44 0 17 -28 73 -43 86 -22 18 -21 31 1
31 10 0 30 -12 44 -27z m-89 -69 c23 -48 32 -111 18 -128 -15 -18 -132 -35
-283 -39 -90 -3 -125 -1 -121 7 4 6 -3 3 -15 -8 -11 -10 -24 -31 -27 -48 -4
-16 -27 -52 -51 -79 -24 -27 -48 -58 -54 -69 -6 -11 -15 -20 -20 -20 -16 0
-11 33 10 65 11 17 20 41 19 55 0 14 -3 20 -5 13 -3 -7 -12 -9 -20 -6 -21 8
-112 -25 -160 -58 -24 -16 -48 -29 -55 -29 -20 0 60 78 109 106 41 24 57 42
27 30 -31 -12 -12 3 75 58 60 38 116 65 172 81 46 13 124 40 173 60 89 36 160
55 181 48 6 -2 18 -19 27 -39z m-679 -354 c-15 -27 -31 -50 -37 -50 -15 0 2
53 25 78 36 37 41 25 12 -28z m1390 -190 c132 -44 246 -63 346 -57 47 3 96 9
109 13 34 10 23 -17 -15 -35 -40 -20 -208 -18 -304 3 -85 19 -222 75 -228 94
-5 15 -12 17 92 -18z m-34 -38 c36 -17 92 -39 125 -48 76 -21 301 -31 346 -15
40 14 55 -3 64 -69 10 -70 13 -75 49 -88 22 -8 36 -21 40 -36 4 -15 34 -42 83
-75 43 -28 93 -64 112 -80 l34 -28 -54 -13 c-61 -14 -159 -64 -284 -146 -181
-118 -322 -164 -500 -164 -175 0 -260 30 -410 144 -44 34 -108 75 -142 91
l-62 30 115 111 114 111 88 6 c130 9 267 64 357 143 39 35 39 35 -23 -6 -129
-85 -235 -117 -419 -124 -96 -4 -137 -10 -197 -31 -58 -20 -82 -24 -108 -17
l-33 8 40 27 c58 38 112 54 238 72 131 19 231 41 270 61 34 18 35 27 2 14 -33
-12 -145 -38 -145 -34 0 2 30 34 67 70 62 62 151 128 163 121 3 -2 34 -17 70
-35z m-509 -382 l-115 -108 -30 45 c-17 26 -39 58 -48 72 -30 43 -24 53 30 50
26 -1 61 4 77 11 39 17 132 38 170 39 28 0 23 -7 -84 -109z m1468 -187 c135
-139 161 -180 161 -250 0 -30 -7 -67 -15 -83 -15 -29 -108 -100 -131 -100 -6
0 -58 -22 -115 -48 -57 -27 -162 -68 -234 -92 -161 -54 -218 -79 -322 -141
-93 -56 -233 -123 -233 -110 0 4 22 40 50 79 27 39 64 99 81 134 28 58 34 64
58 60 38 -5 166 83 256 175 116 120 186 141 320 99 l49 -16 -22 20 c-11 11
-26 20 -32 20 -5 0 -36 8 -67 19 -32 10 -100 31 -151 45 -50 15 -115 37 -142
50 l-51 24 48 27 c26 16 80 49 118 75 108 73 194 112 260 119 5 1 56 -47 114
-106z m-1468 4 c30 -18 85 -57 122 -87 l68 -54 -23 -17 c-54 -41 -239 -141
-308 -166 -52 -18 -94 -43 -135 -78 -92 -79 -111 -90 -251 -144 -149 -58 -211
-94 -275 -159 -88 -91 -210 -162 -276 -162 -109 0 -73 116 55 176 31 14 66 35
78 45 12 11 45 34 74 52 35 21 102 85 189 181 139 152 204 206 288 240 130 51
174 77 240 140 37 36 75 65 84 66 8 0 40 -15 70 -33z m965 -164 c53 -24 56
-27 34 -35 -81 -30 -297 -47 -375 -29 -26 6 -23 8 28 15 57 7 179 44 214 65
26 15 34 14 99 -16z m-238 -368 c10 -9 -36 -94 -111 -208 -67 -101 -74 -108
-124 -127 -65 -24 -102 -25 -110 -4 -7 19 45 75 102 111 71 45 92 72 111 139
22 83 45 108 92 101 19 -4 37 -9 40 -12z m-1863 -231 c-31 -45 -32 -77 -4
-105 18 -18 29 -21 73 -15 l51 6 -30 -25 c-52 -43 -126 -75 -172 -75 -34 0
-46 5 -59 25 -15 24 -15 28 0 70 23 58 50 92 105 126 59 38 65 36 36 -7z"/>
<path d="M5376 4393 c-6 -14 -5 -15 5 -6 7 7 10 15 7 18 -3 3 -9 -2 -12 -12z"/>
<path d="M5481 4329 c-18 -11 -31 -23 -28 -26 3 -3 16 2 29 11 12 9 30 16 40
16 10 0 18 5 18 10 0 16 -22 12 -59 -11z"/>
<path d="M5500 4285 c-11 -13 -10 -14 4 -9 10 4 16 1 16 -7 0 -16 13 -3 16 16
3 20 -20 19 -36 0z"/>
<path d="M5260 4192 c0 -5 8 -9 18 -8 12 1 16 -5 15 -22 -2 -13 1 -21 6 -17 5
3 12 1 16 -5 8 -13 25 -13 25 0 0 6 -6 10 -14 10 -8 0 -16 10 -18 23 -2 14
-11 23 -25 25 -13 2 -23 -1 -23 -6z"/>
<path d="M5380 4064 c0 -6 10 -20 23 -31 24 -22 87 -39 87 -23 0 6 -12 10 -27
10 -16 0 -39 11 -55 27 -15 15 -28 22 -28 17z"/>
<path d="M5381 3956 c-1 -14 41 -127 46 -123 2 3 -7 33 -21 68 -14 35 -25 60
-25 55z"/>
<path d="M5481 3813 c-1 -6 -4 -20 -7 -30 -5 -17 -5 -17 6 0 6 10 9 23 6 30
-3 9 -5 9 -5 0z"/>
<path d="M6008 4098 c9 -31 18 -55 21 -53 7 8 -9 72 -23 91 -12 15 -11 7 2
-38z"/>
<path d="M5832 3879 c-1 -48 -4 -102 -7 -120 l-5 -34 10 33 c6 18 9 72 7 120
l-3 87 -2 -86z"/>
<path d="M5876 3809 c-31 -127 -29 -160 2 -42 24 90 36 153 30 153 -3 0 -17
-50 -32 -111z"/>
<path d="M5644 3870 c9 -14 23 -40 31 -57 9 -18 17 -33 20 -33 10 0 -18 58
-41 85 -19 22 -22 23 -10 5z"/>
<path d="M5621 3848 c-1 -4 4 -19 10 -35 6 -15 15 -48 20 -73 l8 -45 -3 45
c-3 38 -33 129 -35 108z"/>
<path d="M4893 3644 c12 -13 137 -83 132 -74 -7 11 -119 80 -130 80 -5 0 -6
-3 -2 -6z"/>
<path d="M5132 3595 c0 -16 2 -22 5 -12 2 9 2 23 0 30 -3 6 -5 -1 -5 -18z"/>
<path d="M4708 3553 c13 -18 29 -52 37 -75 7 -24 13 -34 14 -23 1 28 -32 97
-55 115 -14 12 -14 8 4 -17z"/>
<path d="M4930 3546 c0 -3 19 -14 43 -25 23 -11 57 -29 75 -41 17 -12 32 -20
32 -17 0 2 -17 16 -37 30 -39 26 -113 61 -113 53z"/>
<path d="M5132 3520 c-1 -19 -5 -46 -7 -60 l-6 -25 11 25 c6 13 9 40 7 60 l-4
35 -1 -35z"/>
<path d="M5551 3375 c-24 -46 -77 -123 -119 -172 -71 -84 -72 -86 -18 -33 64
61 134 161 166 235 32 75 19 61 -29 -30z"/>
<path d="M5098 3385 c11 -22 50 -61 55 -54 2 2 -12 20 -31 39 -19 20 -29 26
-24 15z"/>
<path d="M5725 3158 c-10 -34 -75 -160 -94 -183 l-16 -20 24 20 c33 29 110
189 97 202 -2 3 -7 -6 -11 -19z"/>
<path d="M4632 3460 c0 -14 2 -19 5 -12 2 6 2 18 0 25 -3 6 -5 1 -5 -13z"/>
<path d="M5118 2881 c-25 -16 -49 -34 -52 -40 -7 -10 76 40 99 61 19 17 -2 7
-47 -21z"/>
<path d="M5374 2828 c-9 -18 -29 -49 -43 -68 -24 -33 -24 -34 -2 -15 27 23 76
103 68 111 -3 3 -13 -9 -23 -28z"/>
<path d="M5583 2728 c-46 -71 -152 -179 -210 -216 -21 -13 -74 -41 -118 -63
-95 -46 -61 -42 40 5 121 57 238 165 308 286 40 69 30 63 -20 -12z"/>
<path d="M5678 2690 c-30 -16 -58 -40 -46 -40 15 1 116 60 102 60 -10 -1 -36
-10 -56 -20z"/>
<path d="M5703 2630 c-33 -17 -68 -40 -79 -52 -13 -14 -3 -10 31 13 28 18 73
41 100 51 28 10 41 17 29 18 -11 0 -48 -14 -81 -30z"/>
<path d="M5675 2480 c-3 -6 1 -7 9 -4 18 7 21 14 7 14 -6 0 -13 -4 -16 -10z"/>
<path d="M5545 2419 c-55 -27 -134 -60 -175 -74 -41 -13 -68 -24 -59 -25 41
-1 349 127 349 145 0 9 -15 3 -115 -46z"/>
<path d="M5955 1933 c-22 -8 -67 -18 -100 -23 l-60 -9 65 3 c39 2 84 12 110
24 52 23 43 26 -15 5z"/>
<path d="M5457 1753 c-10 -9 -9 -41 1 -47 5 -3 9 8 9 24 0 33 -1 33 -10 23z"/>
<path d="M4479 2213 c-8 -10 -21 -27 -29 -38 -15 -20 -15 -20 9 0 21 18 47 55
38 55 -2 0 -10 -8 -18 -17z"/>
<path d="M4576 2108 c-10 -6 -42 -14 -70 -19 l-51 -8 58 3 c38 2 64 9 75 19
19 19 15 21 -12 5z"/>
<path d="M4280 1954 c-36 -19 -78 -47 -95 -61 l-30 -26 30 19 c17 10 64 38
105 61 89 52 82 57 -10 7z"/>
</g>
</svg>
