<?xml version="1.0" standalone="no"?>
<!DOCTYPE svg PUBLIC "-//W3C//DTD SVG 20010904//EN"
 "http://www.w3.org/TR/2001/REC-SVG-20010904/DTD/svg10.dtd">
<svg version="1.0" xmlns="http://www.w3.org/2000/svg"
 width="1024.000000pt" height="559.000000pt" viewBox="0 0 1024.000000 559.000000"
 preserveAspectRatio="xMidYMid meet">
<metadata>
Created by potrace 1.16, written by Peter Selinger 2001-2019
</metadata>
<g transform="translate(0.000000,559.000000) scale(0.100000,-0.100000)"
fill="#000000" stroke="none">
<path d="M5033 5065 c-17 -7 -35 -21 -41 -31 -5 -9 -29 -25 -53 -33 -27 -10
-44 -23 -44 -32 0 -9 -17 -34 -36 -56 -20 -22 -42 -56 -48 -75 -14 -43 -9
-210 8 -263 8 -22 20 -58 27 -80 8 -23 14 -59 14 -81 0 -22 7 -50 16 -62 28
-40 -6 -122 -52 -122 -13 0 -50 -13 -82 -29 -31 -15 -102 -48 -157 -72 -173
-75 -232 -158 -290 -406 -8 -35 -35 -114 -60 -177 -55 -139 -56 -165 -12 -202
l32 -27 -3 -106 c-4 -120 8 -190 43 -242 l23 -36 -61 -2 c-34 -1 -71 -3 -82
-4 -18 -2 -21 6 -26 63 -6 69 -53 190 -74 190 -6 0 -17 12 -24 27 -20 44 -111
151 -171 200 -60 50 -142 93 -177 93 -19 0 -23 -5 -23 -32 0 -62 72 -188 108
-188 11 0 12 -3 3 -14 -9 -11 4 -35 64 -114 47 -62 86 -104 103 -110 17 -7 21
-11 10 -11 -24 -1 -23 -14 5 -37 35 -32 70 -51 105 -59 19 -4 32 -9 30 -11 -4
-4 -174 -17 -498 -39 -124 -8 -235 -18 -247 -20 -21 -5 -23 -11 -23 -74 0 -77
4 -83 88 -125 l52 -26 0 -888 0 -889 23 -20 c12 -11 40 -32 62 -46 40 -26 41
-26 115 -14 l75 13 5 771 5 771 167 -83 c168 -83 180 -94 100 -95 -28 0 -42
-33 -42 -101 0 -40 5 -54 25 -73 l25 -23 0 -451 0 -450 36 -21 c19 -12 52 -21
74 -21 l40 0 -3 -273 c-2 -149 -1 -282 1 -294 5 -28 103 -93 140 -93 28 0 131
16 165 26 16 5 17 46 17 680 0 371 3 674 6 674 3 0 19 -8 35 -17 l29 -17 0
-458 0 -458 45 -29 c25 -16 53 -27 63 -25 9 1 38 6 65 9 l47 6 0 468 0 468 61
7 c112 11 104 17 106 -79 2 -60 10 -108 28 -160 20 -62 25 -95 25 -180 l0
-104 30 -16 c16 -8 44 -15 63 -15 31 0 36 -4 51 -44 9 -23 14 -50 10 -60 -3
-9 1 -27 9 -40 33 -49 51 -223 32 -304 -6 -28 -1 -42 43 -110 109 -166 141
-187 292 -186 79 0 103 4 143 23 52 26 72 58 62 99 -8 33 -74 127 -135 192
-78 84 -121 152 -127 201 -3 24 -12 56 -19 70 -7 14 -12 40 -12 57 1 18 -6 40
-14 50 -24 27 -38 135 -38 294 0 107 -5 170 -20 243 -12 54 -22 102 -23 108
-2 11 41 20 161 31 l72 7 0 -426 0 -426 51 -22 50 -22 -6 -62 c-6 -61 -6 -62
24 -78 17 -8 77 -25 134 -36 56 -12 135 -35 176 -51 148 -58 279 -70 352 -32
55 28 59 63 12 136 -18 30 -45 49 -124 89 -74 37 -119 67 -165 113 l-64 62 4
134 c4 119 9 153 44 280 22 80 42 154 45 165 3 11 5 -101 6 -250 1 -148 5
-275 9 -281 4 -6 27 -21 51 -34 38 -19 54 -21 105 -15 107 12 97 -62 96 653
l-1 627 38 3 c21 1 128 11 238 22 110 11 203 20 208 20 4 0 7 -357 7 -793 l0
-793 69 -33 68 -34 79 18 c44 9 82 22 86 29 4 6 8 417 8 912 l0 901 38 7 c20
3 51 6 68 6 46 0 55 18 52 97 l-3 68 -80 27 c-44 15 -126 41 -182 58 l-103 32
0 35 c0 66 -31 83 -245 136 -104 26 -250 63 -323 83 -77 21 -143 33 -156 30
-14 -3 -37 -19 -52 -35 -24 -26 -35 -29 -113 -35 -47 -4 -110 -9 -139 -13
l-53 -5 12 26 c10 21 19 26 46 26 19 0 46 6 61 14 47 24 112 127 112 178 0 15
5 30 10 33 14 8 13 51 -2 74 -10 16 -1 36 60 137 40 66 72 127 72 136 0 10
-11 25 -25 34 -29 19 -28 19 -333 -18 -111 -13 -186 -18 -191 -12 -4 5 -34 70
-66 144 -32 74 -69 151 -82 170 -60 90 -92 126 -124 142 -18 9 -46 25 -61 34
l-26 18 23 30 c39 52 66 115 81 189 8 38 21 79 29 91 8 11 15 30 15 43 0 12 5
25 10 28 6 4 23 25 37 48 36 56 37 131 3 202 -23 49 -27 58 -29 82 -4 37 -125
134 -187 149 -16 4 -37 13 -46 21 -23 20 -127 28 -184 14 -30 -8 -49 -9 -53
-2 -4 6 -18 4 -38 -4z m207 -24 c0 -5 21 -12 46 -16 25 -3 65 -15 89 -25 49
-21 127 -87 123 -104 -1 -6 10 -32 25 -58 31 -52 47 -100 46 -138 0 -23 -1
-23 -9 -5 -7 16 -9 11 -9 -21 -1 -22 -7 -49 -15 -59 -12 -17 -13 -10 -9 56 l4
74 -15 -39 c-8 -21 -22 -46 -30 -55 -15 -14 -16 -11 -16 31 0 57 -13 69 -30
28 -11 -27 -58 -75 -66 -67 -2 1 1 20 6 41 5 21 5 48 0 60 -7 19 -9 18 -23
-15 -14 -33 -50 -69 -70 -69 -4 0 -3 9 3 19 13 25 13 81 0 81 -5 0 -10 -6 -10
-14 0 -14 -45 -56 -61 -56 -4 0 -1 16 7 36 8 20 13 38 10 41 -3 3 -11 -11 -20
-30 -12 -29 -41 -57 -58 -57 -2 0 -2 19 0 43 l3 42 -20 -36 c-19 -35 -84 -99
-100 -99 -11 0 -31 -46 -32 -73 l0 -22 -11 23 c-6 12 -15 22 -20 22 -4 0 -8 8
-8 18 0 28 -37 62 -67 62 -15 0 -37 -10 -50 -22 l-23 -21 0 61 c0 33 4 72 10
86 7 18 6 26 -1 26 -34 0 36 122 84 146 18 10 27 21 23 30 -4 9 2 14 16 14 12
0 34 15 50 33 20 22 26 25 18 10 -13 -28 -15 -28 44 2 36 18 65 25 108 25 32
0 58 -4 58 -9z m30 -366 c-7 -14 -11 -28 -7 -31 11 -11 57 6 79 28 19 19 21
20 14 2 -18 -43 -18 -54 -2 -54 25 0 73 27 85 47 10 17 10 17 11 0 0 -10 -5
-27 -10 -38 -13 -24 7 -26 36 -4 10 8 21 15 24 15 3 0 3 -25 2 -55 -4 -55 -4
-55 -37 -55 -40 0 -65 -9 -65 -22 0 -6 16 -7 40 -3 39 7 47 1 32 -22 -10 -16
-94 -12 -87 5 2 6 0 12 -4 12 -15 0 -21 -29 -21 -106 0 -81 -13 -99 -52 -75
-23 14 -40 5 -18 -10 8 -5 31 -8 50 -7 l35 3 0 74 c0 51 4 76 13 78 6 3 12 -2
12 -11 0 -21 27 -20 39 1 34 61 11 -87 -24 -157 -36 -72 -113 -170 -141 -181
-89 -33 -304 143 -304 250 0 12 -5 21 -11 21 -14 0 -3 -63 18 -105 27 -50 134
-150 185 -171 46 -18 48 -20 42 -51 -8 -41 4 -43 17 -3 12 33 43 41 53 13 15
-37 -78 -112 -137 -113 -40 0 -172 46 -236 82 -65 38 -121 85 -121 104 0 7 24
31 54 53 58 43 83 89 93 173 3 26 10 48 14 48 20 0 7 18 -17 24 -50 13 -88
156 -51 193 10 10 24 13 41 9 21 -5 29 -16 38 -51 13 -48 49 -92 67 -80 6 3
11 26 11 50 0 36 4 47 23 56 12 6 32 21 45 32 16 15 39 22 80 24 40 3 63 9 76
23 25 25 33 17 16 -15z m-358 -288 c-5 -18 -6 -18 -18 4 -18 33 -17 41 5 28
11 -8 16 -19 13 -32z m-136 -212 c-34 -32 -33 -50 7 -86 85 -79 263 -159 351
-159 47 0 61 5 100 35 l46 35 0 -43 c-1 -86 -64 -354 -90 -381 -5 -5 -33 12
-64 38 -57 50 -89 56 -94 21 -2 -15 16 -36 61 -74 l65 -53 -92 -93 c-60 -61
-101 -95 -121 -99 -42 -9 -61 -14 -128 -30 -73 -18 -152 -24 -152 -11 2 61 20
172 32 195 8 17 16 56 19 87 l4 58 -15 -64 c-8 -36 -17 -67 -20 -69 -3 -3 -5
28 -5 69 -1 41 -6 103 -13 138 -11 60 -12 50 -13 -145 -1 -115 -6 -222 -10
-237 l-9 -28 -35 26 c-18 14 -59 34 -89 46 -30 11 -80 32 -110 47 -43 20 -70
26 -118 26 -35 -1 -63 0 -63 2 0 1 28 72 61 156 34 84 62 167 61 183 0 71 56
194 118 255 33 34 73 58 155 94 61 26 124 56 140 67 42 26 53 24 21 -6z m626
-57 c40 -61 53 -130 53 -278 0 -80 -4 -183 -8 -230 -12 -129 0 -90 18 55 23
200 21 251 -22 424 -6 23 -6 23 21 6 49 -32 61 -101 61 -350 0 -134 -5 -253
-13 -305 -13 -82 -29 -140 -39 -140 -13 0 -41 47 -37 62 3 12 -10 34 -40 65
-34 38 -42 52 -35 65 12 21 49 195 48 223 -1 11 -9 -18 -19 -65 -10 -47 -23
-104 -29 -127 -11 -41 -12 -42 -49 -36 -40 7 -102 48 -102 68 0 7 12 43 26 81
40 108 64 237 64 353 0 87 3 106 18 117 9 7 20 14 23 14 6 0 29 -78 48 -165
l9 -40 1 40 c1 35 -11 94 -33 163 -5 16 -3 22 7 22 8 0 21 -10 29 -22z m238
-318 l59 -140 -23 -23 c-12 -12 -48 -68 -80 -125 -32 -56 -60 -102 -62 -102
-9 0 10 116 22 135 18 28 44 136 43 176 0 22 -7 4 -18 -48 -9 -45 -19 -85 -23
-88 -3 -3 -5 52 -4 122 0 70 -3 166 -7 213 l-8 85 22 -33 c12 -18 47 -95 79
-172z m590 -120 c20 -12 8 -16 -110 -30 -52 -6 -162 -19 -245 -29 -130 -16
-183 -15 -164 3 2 2 114 18 249 34 135 16 247 30 250 31 3 0 12 -3 20 -9z m8
-52 c-8 -13 -45 -74 -82 -135 -59 -97 -86 -131 -86 -108 0 3 27 52 60 107 33
56 60 106 60 111 0 4 -26 5 -57 1 -32 -4 -134 -16 -227 -28 l-169 -21 -40 -65
c-73 -119 -307 -531 -307 -541 0 -12 36 -12 97 0 26 5 98 17 158 25 61 9 125
19 143 22 27 4 40 16 69 62 44 69 42 67 49 59 12 -11 -67 -137 -89 -142 -12
-2 -96 -16 -187 -30 -91 -15 -196 -33 -235 -40 -38 -7 -71 -12 -72 -11 -3 2
140 254 289 509 88 149 114 187 131 188 12 0 123 13 247 29 290 36 265 35 248
8z m-1083 -63 c46 -37 69 -61 60 -63 -13 -3 -165 113 -165 125 0 14 39 -9 105
-62z m547 39 c3 -3 -22 -53 -56 -112 -34 -59 -116 -199 -181 -312 -65 -113
-128 -223 -141 -245 -17 -29 -25 -35 -29 -23 -5 14 117 239 285 523 26 44 59
101 74 128 26 45 36 54 48 41z m466 -26 c-8 -13 -38 -62 -66 -109 -42 -71 -57
-88 -84 -95 -18 -5 -37 -19 -43 -32 -9 -21 -45 -32 -45 -13 0 5 -7 11 -15 15
-9 3 -15 0 -15 -10 0 -8 4 -13 9 -10 10 6 -21 -58 -38 -78 -11 -13 -8 -76 4
-108 4 -11 -6 -38 -26 -72 -31 -51 -37 -56 -79 -62 -25 -3 -117 -17 -204 -30
-88 -13 -160 -23 -162 -21 -3 3 263 467 310 542 l32 50 205 26 c112 14 210 27
218 28 11 1 11 -3 -1 -21z m-2374 -133 c48 -28 86 -62 86 -76 0 -6 4 -8 8 -5
22 13 146 -146 163 -207 8 -30 13 -37 20 -26 12 19 24 1 45 -69 25 -83 13 -90
-30 -16 -53 92 -106 165 -116 159 -5 -3 -12 0 -16 6 -4 8 -3 9 4 5 22 -14 12
7 -23 46 -21 22 -33 44 -29 51 4 7 4 9 -1 5 -4 -4 -40 20 -79 55 -72 64 -71
62 43 -74 89 -105 232 -332 218 -346 -6 -6 -84 34 -92 47 -4 6 5 10 19 10 40
0 31 14 -26 41 -36 16 -64 39 -86 69 -18 25 -46 62 -62 82 -17 20 -30 39 -30
42 0 2 15 6 33 8 l32 3 -55 30 c-61 34 -106 96 -117 160 -6 38 -6 38 22 31 16
-4 47 -18 69 -31z m1484 25 c40 0 43 -2 37 -22 -5 -21 -5 -21 5 -5 11 18 13
18 36 -4 25 -23 57 -79 46 -79 -3 0 -23 12 -43 26 -38 26 -93 43 -138 44 -37
0 -20 -9 50 -28 61 -16 64 -19 72 -55 7 -27 6 -42 -2 -50 -8 -8 -11 -7 -11 6
0 19 -23 33 -86 52 -61 18 -56 1 6 -20 51 -17 74 -42 64 -69 -5 -13 -12 -12
-52 5 -25 11 -53 18 -61 16 -9 -1 2 -9 24 -16 43 -15 65 -29 65 -42 0 -14 -33
-41 -39 -31 -12 18 -51 20 -73 2 -43 -32 -87 -50 -128 -50 -29 0 -72 -16 -158
-59 -64 -32 -147 -70 -184 -85 -76 -30 -246 -58 -322 -54 -49 3 -52 5 -76 48
-24 43 -25 53 -25 195 1 161 7 205 30 205 29 0 265 -103 265 -116 0 -7 -16
-16 -37 -19 -60 -10 -96 -24 -123 -46 -20 -17 -21 -19 -5 -14 66 25 131 35
217 35 103 0 155 8 282 42 77 21 81 23 165 111 82 85 88 88 121 83 19 -3 54
-6 78 -6z m-1008 -95 c0 -29 -7 -31 -32 -8 -25 22 -23 33 7 33 20 0 25 -5 25
-25z m1868 -23 c5 -30 -31 -45 -90 -40 -26 3 -52 8 -56 12 -13 13 31 36 69 36
21 0 41 5 44 11 10 16 30 5 33 -19z m-709 -34 c17 -28 -4 -22 -41 12 l-33 29
31 -11 c17 -6 36 -20 43 -30z m-34 -18 c3 -5 19 -13 35 -17 l29 -8 -77 -135
c-67 -116 -82 -135 -105 -138 -32 -4 -33 1 -8 37 23 32 91 166 91 178 0 4 -16
-21 -35 -57 -20 -36 -50 -86 -67 -112 -30 -43 -37 -48 -84 -54 -89 -11 -91 -7
-35 66 28 36 51 69 51 73 0 5 -18 -13 -39 -40 -86 -106 -95 -113 -152 -113
l-52 0 56 59 c77 81 72 87 -8 10 -35 -35 -70 -66 -77 -70 -7 -3 -65 -9 -128
-12 l-115 -5 50 18 c28 10 103 45 167 79 88 47 130 63 167 66 47 4 104 25 115
44 3 5 25 6 50 4 37 -5 47 -2 65 18 39 44 48 56 67 88 19 32 29 38 39 21z
m670 -10 c48 0 53 -2 48 -20 -11 -42 -53 -46 -160 -17 -24 6 -43 14 -43 18 0
14 14 18 33 7 17 -9 19 -8 13 7 -5 15 -2 17 25 11 17 -3 55 -6 84 -6z m-114
-61 c30 -6 73 -10 97 -10 38 0 41 -2 32 -18 -17 -33 -69 -41 -129 -20 -21 8
-31 18 -32 32 0 18 -2 19 -7 5 -5 -12 -12 -14 -21 -9 -7 5 -10 14 -7 20 9 13
2 13 67 0z m-1917 -121 c56 -87 119 -206 130 -248 4 -14 -21 29 -56 95 -35 66
-77 141 -94 165 -42 63 -46 70 -40 70 3 0 30 -37 60 -82z m1863 50 c-3 -8 -6
-5 -6 6 -1 11 2 17 5 13 3 -3 4 -12 1 -19z m116 -1 c32 1 36 -1 26 -14 -32
-38 -97 -33 -120 10 -11 19 -9 19 22 12 19 -5 51 -8 72 -8z m397 -82 c30 -8
127 -34 215 -56 88 -22 177 -45 198 -50 l38 -10 -25 -20 c-33 -26 -51 -81 -36
-109 6 -12 10 -24 8 -26 -4 -3 -94 23 -466 136 -51 16 -99 34 -107 40 -9 7
-15 29 -15 51 0 71 53 83 190 44z m-210 -77 c7 -18 15 -36 17 -39 4 -7 -46
-16 -157 -29 -41 -5 -118 -15 -170 -23 -162 -25 -185 -26 -227 -7 l-38 17 65
11 c36 6 84 14 108 18 42 6 63 19 81 51 7 13 32 18 107 23 201 14 198 14 214
-22z m-931 -52 c-11 -24 -10 -30 13 -52 l25 -26 112 16 c61 9 118 19 126 22
18 7 19 0 4 -28 -8 -14 -8 -27 1 -48 10 -24 35 -36 238 -110 211 -77 232 -83
302 -83 41 0 100 7 130 16 30 9 113 22 183 31 89 10 144 22 181 39 30 14 65
23 82 21 170 -22 242 -12 290 39 23 25 35 31 50 26 10 -5 73 -25 139 -45 66
-20 124 -40 129 -45 6 -5 -12 -9 -45 -9 -29 0 -101 -4 -159 -10 -58 -5 -154
-14 -215 -20 -60 -5 -186 -16 -280 -25 -93 -8 -246 -22 -340 -30 -734 -64
-1226 -107 -1480 -130 -93 -8 -226 -20 -295 -25 -69 -5 -146 -12 -171 -16 -37
-4 -57 0 -110 24 -35 17 -210 98 -389 182 -179 84 -337 157 -352 162 -16 5
-28 13 -28 17 0 4 84 13 188 19 103 7 259 17 346 22 169 12 209 8 166 -13 -20
-10 -25 -21 -25 -49 0 -19 -7 -44 -17 -54 -9 -11 -19 -45 -23 -77 -6 -47 -4
-61 10 -77 36 -40 183 -51 252 -18 24 11 29 20 33 66 l5 52 130 -83 c72 -46
137 -86 146 -89 8 -3 53 0 100 7 46 7 143 20 214 30 72 9 136 19 144 21 25 8
-15 37 -186 133 -184 103 -167 100 -378 77 -71 -8 -150 -16 -175 -18 l-45 -3
0 35 c0 40 -28 60 -87 60 -21 0 -38 5 -38 10 0 6 8 10 18 10 9 0 82 5 162 10
80 6 242 17 360 25 118 8 292 19 385 26 94 6 172 13 174 15 11 10 11 -6 0 -30z
m1679 -25 c33 -42 19 -113 -30 -145 -26 -17 -143 -23 -228 -12 -47 6 -63 4
-112 -19 -41 -19 -91 -30 -180 -40 -68 -8 -152 -22 -188 -30 -104 -24 -143
-27 -172 -16 -39 15 -35 31 7 24 30 -5 35 -3 41 21 3 15 1 32 -5 40 -7 8 -84
38 -172 67 -88 28 -158 53 -157 54 2 2 57 9 123 16 66 7 122 16 125 19 3 4 37
10 75 13 39 2 96 11 127 18 50 11 64 11 115 -5 105 -32 317 -96 373 -112 30
-9 75 -23 99 -30 68 -21 99 -18 132 15 48 49 33 124 -25 124 -51 0 -79 -55
-47 -94 16 -21 22 -22 45 -11 30 13 36 56 10 66 -22 9 -34 -1 -33 -27 1 -17 2
-18 6 -4 5 18 18 23 27 8 8 -13 -21 -34 -39 -27 -20 7 -19 35 2 58 21 24 38
23 57 -3 26 -37 -10 -99 -58 -99 -26 0 -46 30 -46 69 0 73 87 115 128 62z
m-1243 -60 c39 -15 123 -45 187 -66 104 -34 116 -40 108 -56 -6 -10 -10 -29
-10 -43 l0 -25 -112 41 c-62 22 -151 54 -198 70 -47 17 -91 35 -97 40 -16 13
-17 50 -1 66 13 13 21 12 123 -27z m-1435 -16 c17 -21 5 -33 -43 -40 -57 -9
-111 6 -115 31 -2 14 -1 16 6 6 11 -16 81 -27 118 -18 33 9 25 17 -23 26 l-38
8 41 1 c25 1 46 -5 54 -14z m-650 -133 c107 -49 231 -107 275 -127 44 -21 136
-64 205 -96 l125 -57 3 -56 c2 -31 1 -56 -2 -56 -6 0 -142 64 -341 160 -93 45
-242 116 -330 157 -88 41 -166 80 -172 85 -7 6 -13 32 -13 59 l0 50 28 -15
c15 -7 115 -54 222 -104z m667 48 c19 -24 28 -46 31 -86 4 -51 3 -54 -24 -65
-38 -16 -173 -16 -201 0 -20 10 -23 20 -23 67 0 47 5 61 27 88 26 29 31 31 95
29 63 -1 70 -3 95 -33z m602 -51 c89 -51 160 -93 158 -96 -2 -2 -91 -15 -198
-28 -107 -14 -199 -28 -206 -30 -13 -4 -315 185 -320 201 -2 6 52 16 144 26
262 27 236 31 422 -73z m1179 9 c2 -12 -3 -18 -15 -18 -26 0 -47 16 -38 29 10
18 49 9 53 -11z m1262 -72 l0 -54 -52 -6 c-29 -3 -278 -26 -553 -51 -636 -57
-708 -63 -890 -80 -82 -8 -231 -21 -330 -30 -243 -21 -370 -32 -560 -50 -88
-8 -261 -24 -385 -35 -124 -11 -244 -23 -267 -26 l-43 -6 0 59 0 59 138 12
c307 27 485 43 647 57 94 9 222 20 285 25 120 11 324 29 615 55 94 8 251 22
350 30 99 8 225 20 280 25 55 5 186 17 290 26 105 9 244 22 310 29 183 19 165
23 165 -39z m-3740 -947 l0 -890 -40 28 -40 28 0 883 0 882 40 -20 40 -20 0
-891z m93 681 l52 -29 -3 -765 -2 -766 -23 -4 c-12 -3 -36 -7 -54 -10 l-32 -5
-3 882 c-2 485 -1 887 2 892 3 6 6 -29 8 -78 l3 -87 52 -30z m194 74 c120 -58
239 -115 266 -127 l47 -22 0 -67 c0 -48 -4 -68 -12 -68 -7 1 -128 58 -268 128
l-255 127 -3 68 c-2 37 -1 67 2 67 2 0 103 -48 223 -106z m3293 -803 l0 -899
-32 -10 c-18 -6 -50 -13 -71 -17 l-37 -6 2 908 3 908 60 6 c33 3 63 6 68 7 4
1 7 -403 7 -897z m-200 804 c0 -87 13 -79 -155 -94 -60 -6 -184 -17 -275 -26
-91 -9 -235 -22 -320 -30 -85 -8 -227 -21 -315 -30 -88 -8 -279 -26 -425 -40
-146 -13 -386 -36 -535 -50 -148 -15 -307 -29 -352 -32 l-83 -6 0 81 0 80 78
7 c42 3 142 13 222 21 80 7 350 32 600 54 250 22 478 42 505 44 28 3 151 14
275 26 406 36 564 51 645 59 44 5 92 9 108 10 l27 1 0 -75z m40 -825 c0 -495
-2 -900 -5 -900 -22 0 -84 43 -88 62 -3 13 -6 366 -7 784 0 834 -5 774 56 774
24 0 24 1 24 90 0 53 4 90 10 90 7 0 10 -307 10 -900z m-2530 -275 l0 -944
-37 -7 c-21 -3 -55 -10 -75 -14 l-38 -8 0 562 c0 310 -3 739 -7 954 l-6 390
29 5 c16 2 53 5 82 6 l52 1 0 -945z m-180 -17 l0 -949 -45 31 -45 31 0 918 0
918 45 0 45 0 0 -949z m2070 333 l0 -618 -37 -7 c-81 -13 -73 -80 -73 613 l0
620 28 4 c15 2 39 5 55 6 l27 1 0 -619z m-130 -11 l0 -620 -36 17 -35 17 4
381 c4 371 5 383 30 485 15 58 27 123 27 146 0 47 -25 128 -46 145 -30 25 -15
41 44 48 9 1 12 -129 12 -619z m-100 571 c67 -47 79 -160 31 -298 -16 -46 -25
-80 -20 -77 5 3 9 3 9 1 0 -27 -53 -253 -96 -412 -30 -109 -54 -204 -54 -210
-1 -11 -68 -45 -91 -45 -9 0 -38 7 -66 15 l-51 15 0 98 c0 53 -7 147 -16 207
-21 135 -16 186 31 327 25 75 33 115 29 134 -5 17 -10 23 -14 16 -6 -8 -19 -8
-49 -1 l-41 11 52 56 c118 131 160 164 233 181 46 11 80 6 113 -18z m-346
-125 c-116 -118 -150 -146 -190 -160 -100 -34 -150 -17 -249 86 -42 43 -92 85
-112 93 -85 36 -199 3 -267 -77 -19 -22 -47 -74 -62 -115 -18 -50 -42 -91 -72
-125 -53 -58 -54 -57 -98 42 -33 72 -47 86 -107 106 -27 9 -67 32 -88 51 -32
29 -39 42 -39 73 l0 38 78 7 c42 3 118 10 169 16 145 14 144 15 105 -22 -36
-34 -86 -108 -78 -116 2 -3 11 8 19 24 21 39 110 121 139 127 39 8 214 26 257
26 35 0 53 -9 114 -55 86 -66 158 -95 230 -94 l52 1 -50 8 c-76 12 -147 43
-220 96 -55 41 -63 50 -45 52 12 2 39 -4 61 -12 43 -18 165 -21 189 -6 10 6
-2 8 -37 3 -58 -6 -150 4 -137 17 5 4 95 16 199 25 105 10 222 21 260 25 39 4
82 8 96 9 22 1 3 -22 -117 -143z m-1632 32 c13 -11 32 -58 23 -58 -1 0 -31 13
-66 29 l-64 29 40 4 c22 3 43 5 46 6 3 1 12 -4 21 -10z m23 -146 c0 -34 -1
-62 -3 -62 -1 0 -38 18 -82 40 l-80 40 0 60 0 59 83 -38 82 -38 0 -61z m1065
103 c48 -25 70 -87 70 -201 0 -74 7 -123 26 -194 21 -80 26 -129 34 -310 4
-118 13 -237 19 -263 13 -57 9 -67 -27 -67 -15 0 -38 -7 -50 -16 -17 -11 -34
-14 -63 -9 -38 7 -43 11 -66 64 -13 31 -58 124 -99 206 -88 178 -108 255 -101
390 5 102 -13 188 -38 179 -49 -19 -6 113 57 176 66 65 163 84 238 45z m-650
-154 c25 -11 53 -21 62 -21 10 0 22 -9 27 -19 19 -35 -18 -33 -100 5 -73 34
-79 39 -79 67 l0 30 23 -21 c12 -11 42 -30 67 -41z m883 -30 c64 -13 141 4
192 43 33 26 66 31 114 17 22 -6 20 -9 -31 -43 -138 -92 -197 -108 -324 -88
l-84 13 0 58 c0 31 -3 66 -7 76 -4 11 12 1 41 -24 34 -30 62 -45 99 -52z
m-1379 26 c18 -13 18 -35 11 -450 -7 -423 -8 -435 -26 -424 -18 11 -19 32 -19
449 0 241 4 438 8 438 5 0 16 -6 26 -13z m1693 -59 c-12 -29 -22 -54 -23 -56
-3 -6 -409 -50 -416 -45 -5 2 -8 14 -8 25 0 20 3 20 58 12 106 -16 174 -9 244
23 36 17 84 44 108 62 24 17 46 31 51 31 4 0 -2 -24 -14 -52z m-1610 -402 l2
-417 -22 -8 c-12 -5 -26 -6 -30 -1 -4 4 -5 201 -1 439 l7 431 21 -14 c21 -13
21 -20 23 -430z m463 307 c0 -40 -3 -73 -6 -73 -4 0 -35 14 -70 31 l-64 32 0
73 0 73 70 -32 69 -32 1 -72z m78 34 c38 -85 86 -105 177 -72 51 19 65 19 65
0 0 -8 -3 -15 -7 -15 -5 0 -69 -7 -143 -15 -74 -8 -141 -15 -147 -15 -9 0 -13
21 -13 74 0 69 2 75 23 79 12 2 23 5 24 6 1 0 11 -19 21 -42z m230 4 c6 -8 12
-18 12 -21 0 -9 -150 -54 -156 -47 -3 3 7 13 23 22 15 9 39 32 53 50 26 34 36
34 68 -4z m802 -42 c0 -5 -5 -41 -11 -79 -10 -56 -9 -86 5 -165 16 -99 22
-296 9 -309 -7 -7 -12 -73 -13 -161 0 -34 -41 -155 -52 -155 -5 0 -8 195 -8
434 0 405 1 435 18 439 32 9 52 7 52 -4z m-90 -435 l0 -436 -22 14 -23 15 -3
409 c-1 225 0 415 3 421 2 7 14 13 25 13 20 0 20 -4 20 -436z m-1027 334 c16
-12 17 -49 15 -461 l-3 -447 -22 15 -23 16 0 445 c0 244 4 444 8 444 5 0 16
-6 25 -12z m137 -448 c0 -352 -3 -451 -12 -455 -7 -2 -30 -6 -50 -10 l-38 -6
0 461 0 460 50 0 50 0 0 -450z m300 -9 c0 -44 -3 -52 -16 -47 -9 3 -18 6 -20
6 -2 0 -4 37 -4 83 l1 82 19 -35 c12 -22 19 -55 20 -89z m35 -21 c19 -37 19
-42 -2 -38 -12 2 -17 13 -18 36 0 17 0 32 2 32 1 0 9 -13 18 -30z m805 -30
c21 0 30 -5 30 -16 0 -14 -8 -16 -49 -11 -63 7 -121 32 -121 51 0 12 9 11 55
-5 30 -10 68 -19 85 -19z m110 25 c0 -3 -12 -10 -26 -15 -26 -10 -26 -12 -23
-93 3 -67 8 -88 28 -115 13 -18 26 -31 29 -28 3 4 -5 18 -19 32 -21 23 -24 35
-24 106 0 50 4 83 11 85 7 2 9 -22 6 -78 l-5 -81 81 -79 c45 -43 95 -85 113
-94 17 -9 28 -19 25 -22 -7 -8 -76 38 -127 84 -22 20 -42 34 -44 31 -6 -6 93
-85 145 -117 19 -11 30 -21 24 -21 -36 0 -212 147 -240 202 -14 28 -20 188 -7
201 8 8 53 9 53 2z m-130 -74 c26 -3 45 -11 45 -18 0 -16 -7 -17 -69 -8 -55 7
-86 20 -86 37 0 7 11 8 33 3 17 -4 52 -10 77 -14z m3 -55 c32 -5 47 -12 47
-22 0 -13 -8 -14 -42 -9 -97 15 -146 35 -134 53 4 8 18 7 44 -2 20 -7 58 -16
85 -20z m-463 -20 c0 -16 -18 -31 -27 -22 -8 8 5 36 17 36 5 0 10 -6 10 -14z
m-35 -83 c20 -87 57 -169 116 -255 45 -67 47 -78 17 -78 -33 0 -139 187 -169
297 -22 83 -21 113 5 113 9 0 19 -26 31 -77z m391 44 c-4 -20 -1 -40 7 -50 10
-15 12 -11 8 29 -3 45 -2 47 20 40 13 -3 45 -9 71 -13 40 -5 50 -11 72 -45
l26 -40 -26 -27 c-32 -31 -64 -93 -64 -121 0 -44 -33 -15 -61 53 -15 38 -39
85 -53 106 -26 38 -31 57 -20 85 11 30 26 17 20 -17z m-500 3 c24 0 34 -5 34
-15 0 -28 -113 -17 -124 12 -5 13 -1 14 25 9 17 -3 47 -6 65 -6z m144 -26 c0
-8 -5 -12 -10 -9 -6 4 -8 11 -5 16 9 14 15 11 15 -7z m-100 -39 c0 -11 -12
-15 -44 -15 -26 0 -48 6 -56 15 -11 13 -5 15 44 15 43 0 56 -3 56 -15z m481
-92 c16 -35 29 -68 29 -75 0 -21 -16 4 -34 54 -10 26 -28 63 -42 83 -13 20
-24 39 -24 43 1 16 44 -48 71 -105z m-365 60 c-11 -11 -19 6 -11 24 8 17 8 17
12 0 3 -10 2 -21 -1 -24z m340 -78 c13 -31 24 -57 24 -59 0 -5 -65 10 -79 18
-12 8 -15 93 -5 121 6 14 8 13 21 -4 8 -12 25 -46 39 -76z m-443 61 c7 -17
-24 -24 -76 -18 -23 3 -37 10 -37 18 0 20 106 20 113 0z m681 5 c3 -4 -4 -17
-15 -27 -24 -22 -59 -86 -59 -109 0 -19 -19 -20 -26 0 -9 22 14 81 46 115 29
31 45 37 54 21z m-541 -70 c10 -11 9 -13 -3 -9 -18 6 -41 48 -33 62 4 5 10 -1
15 -14 5 -13 14 -31 21 -39z m558 -9 c-16 -21 -33 -49 -37 -64 -13 -40 -39
-21 -29 21 10 46 63 105 81 90 11 -9 8 -18 -15 -47z m-671 -3 c12 -28 11 -32
-5 -42 -24 -13 -55 -44 -77 -77 l-17 -25 0 51 c-1 28 -7 59 -16 70 -31 41 -20
54 44 54 56 0 59 -1 71 -31z m734 12 c3 -4 -6 -18 -19 -31 -14 -13 -27 -38
-31 -56 -4 -23 -10 -31 -21 -27 -18 7 -10 43 19 91 19 31 41 41 52 23z m39
-28 c4 -3 -2 -16 -13 -28 -12 -13 -24 -35 -29 -51 -9 -36 -25 -38 -29 -3 -2
17 6 37 23 58 27 32 36 36 48 24z m148 -3 c5 0 9 -7 9 -15 0 -8 6 -15 14 -15
7 0 19 -7 26 -15 11 -13 8 -13 -23 0 -52 22 -59 18 -12 -7 39 -20 55 -35 55
-50 0 -5 -4 -8 -10 -8 -5 0 -10 6 -10 14 0 8 -25 24 -55 37 -50 20 -71 39 -45
39 6 0 10 7 10 16 0 11 5 14 16 10 9 -3 20 -6 25 -6z m-766 -38 c-9 -9 -35 8
-35 24 0 16 2 16 20 -1 11 -10 18 -20 15 -23z m320 -18 c88 -13 185 -43 212
-66 14 -12 165 -41 214 -42 38 0 104 27 113 47 3 6 5 3 3 -8 -3 -29 -62 -55
-126 -55 -64 0 -165 24 -237 55 -28 13 -87 30 -130 40 -150 32 -177 40 -182
53 -3 11 0 12 18 2 12 -6 64 -18 115 -26z m368 10 c4 -8 17 -14 28 -14 15 0
19 -6 17 -22 -3 -20 2 -23 30 -23 19 0 32 -5 32 -13 0 -23 -42 -30 -90 -16
-25 8 -60 14 -77 14 -28 0 -33 4 -33 24 0 37 37 78 64 70 11 -4 25 -13 29 -20z
m-806 -1 c2 -6 -11 -20 -30 -32 -18 -11 -45 -37 -60 -58 -23 -32 -27 -34 -27
-16 0 32 82 126 104 120 6 -2 11 -8 13 -14z m-148 -58 c1 -23 -2 -26 -9 -15
-5 8 -9 31 -9 50 0 29 2 31 9 15 5 -11 9 -33 9 -50z m301 30 c8 -9 8 -15 2
-15 -18 0 -42 12 -42 21 0 14 26 10 40 -6z m-126 -21 c4 -9 5 -18 4 -19 -2 -1
-18 -7 -36 -15 -18 -7 -46 -29 -62 -49 -32 -38 -40 -29 -15 19 16 30 72 80 91
80 7 0 15 -7 18 -16z m866 6 c0 -5 -7 -10 -15 -10 -8 0 -15 5 -15 10 0 6 7 10
15 10 8 0 15 -4 15 -10z m-694 -35 c18 -14 18 -14 -7 -15 -15 0 -32 7 -39 15
-10 12 -9 15 7 15 10 0 28 -7 39 -15z m-327 -72 c6 -13 9 -23 7 -23 -7 0 -56
73 -56 84 0 10 32 -30 49 -61z m188 51 c2 -6 -15 -19 -38 -29 -22 -10 -54 -35
-70 -54 -25 -31 -29 -33 -29 -14 0 28 41 76 82 96 35 17 50 17 55 1z m209 -70
c28 -44 33 -58 23 -70 -26 -32 -78 -9 -93 43 -4 11 -13 24 -21 26 -10 4 -8 -6
7 -40 14 -31 17 -48 10 -55 -15 -15 -42 -2 -42 21 0 10 -9 29 -21 42 -20 23
-21 18 -3 -26 4 -10 0 -15 -10 -15 -9 0 -16 -5 -16 -11 0 -6 9 -8 20 -4 24 8
27 -10 3 -19 -21 -8 -28 -1 -43 47 -6 20 -16 37 -21 37 -5 0 -4 -11 1 -25 8
-20 6 -25 -6 -25 -8 0 -12 -5 -9 -10 4 -6 11 -8 16 -5 5 4 9 1 9 -4 0 -25 -31
-8 -44 24 -18 43 -28 45 -19 5 4 -22 2 -30 -9 -30 -21 0 -51 36 -45 54 10 25
74 67 103 66 16 0 42 -1 59 -1 17 0 34 6 40 15 6 9 24 16 43 16 28 0 37 -7 68
-56z m-210 -140 c84 -10 178 0 220 25 22 13 34 16 32 9 -8 -25 -81 -51 -154
-56 -82 -5 -154 9 -196 39 -41 30 -34 43 7 14 21 -14 59 -27 91 -31z m184 32
c0 -2 -7 -6 -15 -10 -8 -3 -15 -1 -15 4 0 6 7 10 15 10 8 0 15 -2 15 -4z"/>
<path d="M5127 4970 c18 -4 45 -15 60 -24 27 -17 27 -16 -2 8 -19 16 -41 26
-60 25 l-30 -1 32 -8z"/>
<path d="M5072 4921 c13 -15 24 -27 26 -26 6 5 -23 45 -36 50 -7 3 -3 -8 10
-24z"/>
<path d="M5012 4890 c0 -19 2 -27 5 -17 2 9 2 25 0 35 -3 9 -5 1 -5 -18z"/>
<path d="M5426 4900 c12 -14 29 -38 37 -55 9 -16 16 -26 17 -22 0 16 -29 63
-51 82 l-24 20 21 -25z"/>
<path d="M4926 4895 c-17 -18 -30 -54 -22 -62 3 -4 6 1 6 9 0 8 9 27 21 42 22
28 20 35 -5 11z"/>
<path d="M4940 4849 c-6 -11 -10 -27 -8 -35 2 -8 8 1 14 20 12 40 10 46 -6 15z"/>
<path d="M5398 4855 c5 -11 12 -27 15 -35 5 -13 6 -13 6 1 1 8 -6 24 -15 35
-15 19 -15 19 -6 -1z"/>
<path d="M4866 4755 c-3 -9 -6 -24 -5 -33 0 -9 5 -4 10 12 9 32 6 48 -5 21z"/>
<path d="M5421 4734 c0 -11 3 -14 6 -6 3 7 2 16 -1 19 -3 4 -6 -2 -5 -13z"/>
<path d="M5057 4705 c-9 -19 -15 -35 -12 -35 7 0 37 61 33 66 -3 2 -12 -12
-21 -31z"/>
<path d="M5067 4677 l-17 -32 20 24 c17 20 26 41 18 41 -2 0 -11 -15 -21 -33z"/>
<path d="M5406 4693 c-6 -14 -5 -15 5 -6 7 7 10 15 7 18 -3 3 -9 -2 -12 -12z"/>
<path d="M4882 4608 c-7 -7 -12 -19 -12 -27 0 -11 4 -10 15 5 15 19 15 19 30
0 13 -18 13 -22 -2 -38 -13 -15 -14 -23 -5 -43 6 -14 15 -25 19 -25 16 0 14
92 -2 116 -17 27 -26 29 -43 12z m48 -77 c0 -6 -4 -13 -10 -16 -5 -3 -10 1
-10 9 0 9 5 16 10 16 6 0 10 -4 10 -9z"/>
<path d="M5133 4560 c-33 -13 -28 -21 7 -13 18 3 59 -2 96 -12 62 -17 94 -14
64 6 -42 26 -125 36 -167 19z"/>
<path d="M5250 4503 c0 -5 -24 -7 -52 -6 -29 1 -43 -1 -30 -3 12 -3 22 -12 22
-20 0 -8 10 -14 25 -14 14 0 25 5 25 11 0 6 6 9 14 6 10 -4 12 0 9 14 -5 19
-13 26 -13 12z"/>
<path d="M5250 4340 c0 -11 4 -20 9 -20 5 0 7 9 4 20 -3 11 -7 20 -9 20 -2 0
-4 -9 -4 -20z"/>
<path d="M5240 4240 c57 -11 105 -12 96 -3 -4 4 -37 8 -74 9 -62 2 -64 1 -22
-6z"/>
<path d="M5258 4193 c12 -2 30 -2 40 0 9 3 -1 5 -23 4 -22 0 -30 -2 -17 -4z"/>
<path d="M5020 4128 c0 -19 30 -101 36 -96 1 2 -6 28 -16 58 -11 30 -19 47
-20 38z"/>
<path d="M4756 4038 c110 -183 203 -317 246 -354 12 -10 -1 10 -29 46 -28 36
-87 122 -133 193 -45 70 -84 127 -87 127 -2 0 -1 -6 3 -12z"/>
<path d="M4613 3997 c20 -26 48 -82 62 -125 17 -52 24 -64 20 -37 -8 53 -58
155 -91 185 -21 20 -19 15 9 -23z"/>
<path d="M4875 3965 c46 -40 109 -83 164 -110 73 -37 76 -30 3 9 -35 19 -86
52 -115 73 -64 48 -92 63 -52 28z"/>
<path d="M5210 3858 c-24 -28 -62 -59 -85 -69 -22 -10 -33 -19 -24 -19 24 0
104 54 126 86 48 69 43 70 -17 2z"/>
<path d="M4702 3765 c0 -16 2 -22 5 -12 2 9 2 23 0 30 -3 6 -5 -1 -5 -18z"/>
<path d="M4540 3770 c0 -20 84 -264 87 -253 2 5 -17 67 -42 138 -25 72 -45
123 -45 115z"/>
<path d="M4782 3755 c0 -16 2 -22 5 -12 2 9 2 23 0 30 -3 6 -5 -1 -5 -18z"/>
<path d="M4790 3709 c0 -33 51 -296 66 -341 23 -71 27 -53 5 24 -11 36 -29
124 -41 194 -21 120 -30 158 -30 123z"/>
<path d="M4747 3445 c-4 -66 -9 -131 -12 -145 l-6 -25 11 25 c13 30 28 208 20
241 -4 13 -9 -30 -13 -96z"/>
<path d="M4940 3536 c0 -12 59 -124 69 -130 4 -3 -7 25 -27 62 -38 72 -42 79
-42 68z"/>
<path d="M5340 3888 c0 -40 -7 -118 -15 -172 -17 -112 -14 -140 5 -44 13 71
26 288 16 288 -3 0 -6 -33 -6 -72z"/>
<path d="M5432 3495 c0 -16 2 -22 5 -12 2 9 2 23 0 30 -3 6 -5 -1 -5 -18z"/>
<path d="M6023 3525 c-9 -24 -1 -25 47 -10 l45 15 -37 -3 c-20 -1 -34 1 -32 5
3 4 0 8 -6 8 -6 0 -13 -7 -17 -15z"/>
<path d="M5957 3515 c-5 -10 0 -15 14 -15 12 0 19 5 17 12 -6 18 -25 20 -31 3z"/>
<path d="M5759 3518 c-1 -2 -3 -13 -4 -25 -3 -27 7 -29 29 -7 10 9 16 11 16 4
0 -8 10 -9 29 -5 16 3 43 7 60 7 17 1 28 4 26 9 -6 9 -119 4 -135 -6 -6 -4
-14 -4 -18 0 -3 3 0 10 8 15 10 7 11 10 3 10 -7 0 -14 -1 -14 -2z"/>
<path d="M5924 3449 c-22 -5 -17 -7 24 -8 28 0 52 3 52 8 0 10 -29 10 -76 0z"/>
<path d="M6023 3453 c9 -2 25 -2 35 0 9 3 1 5 -18 5 -19 0 -27 -2 -17 -5z"/>
<path d="M5859 3446 c-2 -3 -37 -7 -77 -9 -78 -5 -88 -9 -77 -27 4 -7 11 -8
19 -1 6 5 37 12 67 15 56 6 120 24 88 25 -9 1 -18 -1 -20 -3z"/>
<path d="M5948 3398 c-8 -4 4 -8 30 -8 23 0 42 2 42 4 0 8 -60 12 -72 4z"/>
<path d="M5830 3380 c-13 -8 -12 -10 3 -10 9 0 17 5 17 10 0 12 -1 12 -20 0z"/>
<path d="M5890 3381 c0 -5 9 -7 20 -4 11 3 20 7 20 9 0 2 -9 4 -20 4 -11 0
-20 -4 -20 -9z"/>
<path d="M5674 3369 c-9 -16 2 -22 21 -11 15 8 16 10 1 15 -8 3 -18 2 -22 -4z"/>
<path d="M5720 3361 c0 -9 6 -11 18 -6 9 5 27 9 39 10 45 3 35 15 -10 13 -31
-2 -47 -7 -47 -17z"/>
<path d="M5793 3323 c-24 -2 -43 -7 -43 -11 0 -10 79 -2 86 9 3 5 4 8 2 7 -2
-1 -22 -3 -45 -5z"/>
<path d="M5868 3323 c7 -3 16 -2 19 1 4 3 -2 6 -13 5 -11 0 -14 -3 -6 -6z"/>
<path d="M5636 3305 c-3 -9 6 -13 30 -13 32 0 60 17 32 19 -7 1 -23 3 -35 4
-12 1 -24 -3 -27 -10z"/>
<path d="M5720 3310 c0 -5 5 -10 10 -10 6 0 10 5 10 10 0 6 -4 10 -10 10 -5 0
-10 -4 -10 -10z"/>
<path d="M5807 3273 c-15 -14 -6 -19 25 -15 28 4 30 6 13 13 -26 10 -30 10
-38 2z"/>
<path d="M5739 3256 c-2 -3 -35 -6 -72 -8 -38 -1 -71 -6 -74 -11 -6 -9 127 2
167 14 22 6 22 7 4 8 -11 1 -23 -1 -25 -3z"/>
<path d="M5765 3210 c-3 -5 3 -10 15 -10 12 0 18 5 15 10 -3 6 -10 10 -15 10
-5 0 -12 -4 -15 -10z"/>
<path d="M5705 3200 c-13 -6 -15 -9 -5 -9 8 0 22 4 30 9 18 12 2 12 -25 0z"/>
<path d="M5585 3189 c-33 -7 -25 -12 15 -10 41 3 59 7 67 14 8 8 -36 6 -82 -4z"/>
<path d="M5760 3164 c-50 -14 -28 -17 35 -6 22 4 33 10 25 13 -8 3 -35 -1 -60
-7z"/>
<path d="M5558 3142 c-10 -2 -18 -8 -18 -12 0 -9 25 -6 100 10 32 7 31 8 -15
7 -27 -1 -58 -3 -67 -5z"/>
<path d="M5655 3100 c-3 -5 -2 -10 4 -10 5 0 13 5 16 10 3 6 2 10 -4 10 -5 0
-13 -4 -16 -10z"/>
<path d="M5699 3108 c0 -2 -2 -11 -4 -21 -3 -17 -2 -17 13 -4 9 8 24 17 32 20
8 3 3 6 -12 6 -16 1 -28 0 -29 -1z"/>
<path d="M5519 3084 c-6 -8 -7 -14 0 -18 5 -4 12 -2 15 3 5 8 29 11 80 12 36
0 7 10 -38 13 -28 2 -51 -2 -57 -10z"/>
<path d="M3790 3340 c8 -5 20 -10 25 -10 6 0 3 5 -5 10 -8 5 -19 10 -25 10 -5
0 -3 -5 5 -10z"/>
<path d="M3918 3183 c7 -3 16 -2 19 1 4 3 -2 6 -13 5 -11 0 -14 -3 -6 -6z"/>
<path d="M5131 3408 c-14 -23 -14 -23 8 -4 22 20 25 26 13 26 -4 0 -13 -10
-21 -22z"/>
<path d="M5140 3350 c-8 -5 -12 -12 -9 -15 4 -3 12 1 19 10 14 17 11 19 -10 5z"/>
<path d="M6021 3334 c0 -11 3 -14 6 -6 3 7 2 16 -1 19 -3 4 -6 -2 -5 -13z"/>
<path d="M5053 2913 c9 -2 23 -2 30 0 6 3 -1 5 -18 5 -16 0 -22 -2 -12 -5z"/>
<path d="M4933 2903 c15 -2 37 -2 50 0 12 2 0 4 -28 4 -27 0 -38 -2 -22 -4z"/>
<path d="M4740 2890 c-20 -4 5 -5 55 -2 50 2 92 6 94 8 8 7 -113 2 -149 -6z"/>
<path d="M4840 2825 c-7 -8 -10 -21 -7 -28 8 -20 293 -166 339 -174 38 -6 40
-5 29 15 -6 11 -37 36 -68 55 -66 40 -267 147 -275 147 -3 0 -11 -7 -18 -15z
m198 -100 c50 -27 92 -52 92 -57 0 -4 -2 -8 -5 -8 -8 0 -226 110 -252 127 -40
26 -13 35 30 10 23 -13 84 -46 135 -72z m127 -75 c3 -5 2 -10 -4 -10 -5 0 -13
5 -16 10 -3 6 -2 10 4 10 5 0 13 -4 16 -10z"/>
<path d="M3828 2823 c12 -2 32 -2 45 0 12 2 2 4 -23 4 -25 0 -35 -2 -22 -4z"/>
<path d="M3650 2810 l-45 -7 40 0 c22 -1 67 3 100 7 l60 7 -55 0 c-30 0 -75
-3 -100 -7z"/>
<path d="M5338 2763 c6 -2 18 -2 25 0 6 3 1 5 -13 5 -14 0 -19 -2 -12 -5z"/>
<path d="M3873 2753 c9 -2 23 -2 30 0 6 3 -1 5 -18 5 -16 0 -22 -2 -12 -5z"/>
<path d="M5233 2753 c15 -2 37 -2 50 0 12 2 0 4 -28 4 -27 0 -38 -2 -22 -4z"/>
<path d="M3803 2743 c9 -2 23 -2 30 0 6 3 -1 5 -18 5 -16 0 -22 -2 -12 -5z"/>
<path d="M3738 2733 c6 -2 18 -2 25 0 6 3 1 5 -13 5 -14 0 -19 -2 -12 -5z"/>
<path d="M5383 2723 c9 -2 25 -2 35 0 9 3 1 5 -18 5 -19 0 -27 -2 -17 -5z"/>
<path d="M5568 2653 c12 -2 30 -2 40 0 9 3 -1 5 -23 4 -22 0 -30 -2 -17 -4z"/>
<path d="M5448 2643 c17 -2 47 -2 65 0 17 2 3 4 -33 4 -36 0 -50 -2 -32 -4z"/>
<path d="M5338 2633 c12 -2 32 -2 45 0 12 2 2 4 -23 4 -25 0 -35 -2 -22 -4z"/>
<path d="M4383 2533 c9 -2 25 -2 35 0 9 3 1 5 -18 5 -19 0 -27 -2 -17 -5z"/>
<path d="M4303 2523 c9 -2 25 -2 35 0 9 3 1 5 -18 5 -19 0 -27 -2 -17 -5z"/>
<path d="M4233 2513 c9 -2 25 -2 35 0 9 3 1 5 -18 5 -19 0 -27 -2 -17 -5z"/>
<path d="M6232 2909 c4 -12 115 -52 131 -46 4 1 -17 11 -47 21 -31 11 -56 23
-56 28 0 4 -7 8 -16 8 -9 0 -14 -5 -12 -11z"/>
<path d="M6150 2889 c0 -5 5 -7 10 -4 6 3 10 1 10 -4 0 -6 7 -11 16 -11 14 0
14 2 0 15 -17 17 -36 20 -36 4z"/>
<path d="M6096 2872 c-6 -10 53 -36 61 -28 3 2 -6 7 -19 11 -13 4 -26 12 -29
17 -4 7 -9 7 -13 0z"/>
<path d="M6239 2855 c44 -19 64 -19 27 0 -15 8 -36 15 -45 15 -9 -1 -1 -7 18
-15z"/>
<path d="M6013 2853 c9 -2 17 -8 17 -12 0 -3 12 -7 28 -8 26 -2 26 -2 -7 12
-18 8 -38 14 -45 14 -6 -1 -3 -3 7 -6z"/>
<path d="M6395 2850 c11 -5 27 -9 35 -9 13 -1 13 0 0 9 -8 5 -24 9 -35 9 l-20
0 20 -9z"/>
<path d="M6170 2836 c0 -2 9 -6 20 -9 11 -3 18 -1 14 4 -5 9 -34 13 -34 5z"/>
<path d="M6315 2830 c3 -5 8 -10 11 -10 2 0 4 5 4 10 0 6 -5 10 -11 10 -5 0
-7 -4 -4 -10z"/>
<path d="M6500 2815 c30 -14 61 -24 70 -21 9 2 6 4 -7 5 -13 0 -23 5 -23 10 0
5 -12 11 -27 14 -16 3 -37 8 -48 12 -11 3 5 -6 35 -20z"/>
<path d="M6097 2819 c7 -7 15 -10 18 -7 3 3 -2 9 -12 12 -14 6 -15 5 -6 -5z"/>
<path d="M6348 2818 c5 -5 16 -8 23 -6 8 3 3 7 -10 11 -17 4 -21 3 -13 -5z"/>
<path d="M6240 2810 c8 -5 24 -10 34 -10 26 0 18 6 -19 14 -22 5 -26 4 -15 -4z"/>
<path d="M6140 2800 c0 -6 7 -10 15 -10 8 0 15 2 15 4 0 2 -7 6 -15 10 -8 3
-15 1 -15 -4z"/>
<path d="M6407 2799 c7 -7 15 -10 18 -7 3 3 -2 9 -12 12 -14 6 -15 5 -6 -5z"/>
<path d="M6300 2789 c0 -5 8 -9 18 -9 9 0 26 -7 36 -15 11 -8 29 -15 40 -15
21 0 16 10 -7 14 -8 1 -21 7 -28 12 -20 15 -59 24 -59 13z"/>
<path d="M6235 2767 c30 -15 44 -26 35 -29 -8 -3 -1 -5 17 -4 38 1 33 7 -27
31 -70 27 -80 28 -25 2z"/>
<path d="M6440 2786 c0 -2 15 -9 33 -15 29 -10 30 -9 13 4 -18 14 -46 20 -46
11z"/>
<path d="M3395 2762 c6 -6 46 -30 90 -53 44 -23 76 -38 70 -32 -14 14 -172 98
-160 85z"/>
<path d="M3550 2706 c0 -2 7 -7 16 -10 8 -3 12 -2 9 4 -6 10 -25 14 -25 6z"/>
<path d="M3590 2685 c0 -7 101 -57 106 -53 2 2 -21 16 -51 31 -30 15 -55 25
-55 22z"/>
<path d="M3840 2547 c0 -7 111 -69 116 -65 2 2 -24 19 -56 37 -33 18 -60 30
-60 28z"/>
<path d="M3990 2496 c0 -8 170 -98 178 -94 4 2 -34 24 -85 51 -51 26 -93 45
-93 43z"/>
<path d="M4096 2734 c-20 -20 -21 -88 -1 -104 21 -17 143 -25 179 -11 27 11
28 14 24 62 -3 28 -12 55 -19 60 -25 16 -166 11 -183 -7z"/>
<path d="M4715 2709 c-100 -13 -112 -19 -25 -13 41 2 89 8 105 13 37 11 12 11
-80 0z"/>
<path d="M4747 2682 c-59 -8 -106 -17 -103 -19 6 -7 198 18 216 28 18 10 24
10 -113 -9z"/>
<path d="M4588 2683 c7 -3 16 -2 19 1 4 3 -2 6 -13 5 -11 0 -14 -3 -6 -6z"/>
<path d="M4785 2654 c-139 -21 -192 -32 -169 -33 27 -1 286 38 292 44 8 7 -21
5 -123 -11z"/>
<path d="M4583 2653 c9 -2 25 -2 35 0 9 3 1 5 -18 5 -19 0 -27 -2 -17 -5z"/>
<path d="M4880 2635 c-8 -2 -66 -11 -128 -21 -62 -9 -111 -19 -109 -21 4 -4
293 35 312 42 12 4 -53 4 -75 0z"/>
<path d="M7113 2643 c9 -2 23 -2 30 0 6 3 -1 5 -18 5 -16 0 -22 -2 -12 -5z"/>
<path d="M6985 2634 c-11 -2 -99 -11 -195 -20 -96 -10 -169 -19 -163 -21 13
-5 445 37 452 43 5 4 -62 3 -94 -2z"/>
<path d="M7185 2620 c-34 -6 -36 -7 -10 -8 17 0 48 3 70 7 33 7 35 9 10 8 -16
0 -48 -3 -70 -7z"/>
<path d="M7093 2603 c9 -2 23 -2 30 0 6 3 -1 5 -18 5 -16 0 -22 -2 -12 -5z"/>
<path d="M7018 2593 c7 -3 16 -2 19 1 4 3 -2 6 -13 5 -11 0 -14 -3 -6 -6z"/>
<path d="M6578 2583 c6 -2 18 -2 25 0 6 3 1 5 -13 5 -14 0 -19 -2 -12 -5z"/>
<path d="M6528 2573 c7 -3 16 -2 19 1 4 3 -2 6 -13 5 -11 0 -14 -3 -6 -6z"/>
<path d="M6288 2543 c12 -2 30 -2 40 0 9 3 -1 5 -23 4 -22 0 -30 -2 -17 -4z"/>
<path d="M6188 2533 c12 -2 32 -2 45 0 12 2 2 4 -23 4 -25 0 -35 -2 -22 -4z"/>
<path d="M6108 2523 c6 -2 18 -2 25 0 6 3 1 5 -13 5 -14 0 -19 -2 -12 -5z"/>
<path d="M5185 2465 c-5 -2 -41 -7 -80 -11 -38 -4 -63 -9 -55 -11 8 -1 67 3
130 11 71 8 96 14 65 14 -27 0 -54 -1 -60 -3z"/>
<path d="M4880 2430 l-75 -6 65 -1 c36 -1 88 2 115 7 47 7 47 7 10 7 -22 0
-74 -3 -115 -7z"/>
<path d="M4605 2404 c-44 -8 -123 -19 -175 -23 -88 -8 -91 -8 -30 -10 36 0
119 8 185 19 66 10 136 21 155 23 30 3 28 4 -10 5 -25 0 -81 -6 -125 -14z"/>
<path d="M3534 2380 c0 -107 2 -151 3 -97 2 53 2 141 0 195 -1 53 -3 9 -3 -98z"/>
<path d="M3564 2080 c0 -69 1 -97 3 -62 2 34 2 90 0 125 -2 34 -3 6 -3 -63z"/>
<path d="M3544 1595 c0 -77 2 -107 3 -67 2 40 2 103 0 140 -2 37 -3 4 -3 -73z"/>
<path d="M3557 1266 c-4 -60 -6 -159 -5 -220 1 -92 2 -78 10 84 9 219 7 303
-5 136z"/>
<path d="M3664 2130 c0 -91 2 -128 3 -82 2 45 2 119 0 165 -1 45 -3 8 -3 -83z"/>
<path d="M3694 1905 c0 -93 2 -133 3 -88 2 45 2 122 0 170 -1 48 -3 12 -3 -82z"/>
<path d="M3664 1350 c0 -118 2 -167 3 -108 2 60 2 156 0 216 -1 59 -3 10 -3
-108z"/>
<path d="M3694 1100 c0 -69 1 -97 3 -62 2 34 2 90 0 125 -2 34 -3 6 -3 -63z"/>
<path d="M3747 2455 c46 -25 86 -45 90 -45 11 1 -150 90 -162 90 -5 0 27 -20
72 -45z"/>
<path d="M3830 2379 c25 -17 169 -89 177 -89 5 0 -35 23 -87 50 -91 48 -122
61 -90 39z"/>
<path d="M3960 2365 c0 -7 142 -76 147 -71 4 3 -130 76 -141 76 -4 0 -6 -2 -6
-5z"/>
<path d="M7074 2230 c0 -146 2 -205 3 -132 2 72 2 192 0 265 -1 72 -3 13 -3
-133z"/>
<path d="M7123 1905 c0 -27 2 -38 4 -22 2 15 2 37 0 50 -2 12 -4 0 -4 -28z"/>
<path d="M7133 1785 c0 -33 2 -45 4 -27 2 18 2 45 0 60 -2 15 -4 0 -4 -33z"/>
<path d="M7123 1640 c0 -41 2 -58 4 -37 2 20 2 54 0 75 -2 20 -4 3 -4 -38z"/>
<path d="M7074 1165 c0 -121 2 -169 3 -107 2 62 2 161 0 220 -1 59 -3 8 -3
-113z"/>
<path d="M7124 985 c0 -77 2 -107 3 -67 2 40 2 103 0 140 -2 37 -3 4 -3 -73z"/>
<path d="M6665 2454 c-66 -7 -151 -18 -190 -23 l-70 -10 75 5 c88 6 351 33
365 39 21 7 -64 2 -180 -11z"/>
<path d="M6353 2413 c9 -2 23 -2 30 0 6 3 -1 5 -18 5 -16 0 -22 -2 -12 -5z"/>
<path d="M6853 2413 c9 -2 23 -2 30 0 6 3 -1 5 -18 5 -16 0 -22 -2 -12 -5z"/>
<path d="M6680 2400 c-27 -5 -7 -6 50 -3 52 3 97 7 99 9 7 6 -101 2 -149 -6z"/>
<path d="M6563 2383 c15 -2 37 -2 50 0 12 2 0 4 -28 4 -27 0 -38 -2 -22 -4z"/>
<path d="M5723 2373 c9 -2 25 -2 35 0 9 3 1 5 -18 5 -19 0 -27 -2 -17 -5z"/>
<path d="M5618 2363 c12 -2 32 -2 45 0 12 2 2 4 -23 4 -25 0 -35 -2 -22 -4z"/>
<path d="M5310 2339 c-210 -22 -255 -29 -139 -22 131 8 431 41 369 41 -30 0
-134 -9 -230 -19z"/>
<path d="M6108 2353 c12 -2 32 -2 45 0 12 2 2 4 -23 4 -25 0 -35 -2 -22 -4z"/>
<path d="M6018 2343 c12 -2 32 -2 45 0 12 2 2 4 -23 4 -25 0 -35 -2 -22 -4z"/>
<path d="M5938 2333 c12 -2 30 -2 40 0 9 3 -1 5 -23 4 -22 0 -30 -2 -17 -4z"/>
<path d="M5848 2323 c12 -2 30 -2 40 0 9 3 -1 5 -23 4 -22 0 -30 -2 -17 -4z"/>
<path d="M5013 2303 c15 -2 37 -2 50 0 12 2 0 4 -28 4 -27 0 -38 -2 -22 -4z"/>
<path d="M4948 2293 c6 -2 18 -2 25 0 6 3 1 5 -13 5 -14 0 -19 -2 -12 -5z"/>
<path d="M5028 2253 c6 -2 18 -2 25 0 6 3 1 5 -13 5 -14 0 -19 -2 -12 -5z"/>
<path d="M4948 2243 c12 -2 32 -2 45 0 12 2 2 4 -23 4 -25 0 -35 -2 -22 -4z"/>
<path d="M4775 2229 c-125 -13 -139 -18 -35 -12 105 6 213 21 150 20 -19 0
-71 -3 -115 -8z"/>
<path d="M4583 2203 c9 -2 23 -2 30 0 6 3 -1 5 -18 5 -16 0 -22 -2 -12 -5z"/>
<path d="M6952 2060 c-1 -80 -4 -230 -6 -335 l-5 -190 10 140 c5 77 8 228 6
335 -2 176 -3 181 -5 50z"/>
<path d="M6974 1370 c0 -91 2 -128 3 -82 2 45 2 119 0 165 -1 45 -3 8 -3 -83z"/>
<path d="M6941 998 c1 -90 3 -156 5 -148 7 35 9 310 2 310 -4 0 -7 -73 -7
-162z"/>
<path d="M4372 2210 c0 -14 2 -19 5 -12 2 6 2 18 0 25 -3 6 -5 1 -5 -13z"/>
<path d="M4378 2124 c-5 -4 -7 -77 -7 -163 l2 -156 9 130 c9 140 7 201 -4 189z"/>
<path d="M4416 1713 c-3 -104 -8 -237 -10 -298 l-5 -110 9 90 c10 115 24 505
18 505 -3 0 -8 -84 -12 -187z"/>
<path d="M4444 965 c0 -99 2 -138 3 -87 2 51 2 132 0 180 -1 48 -3 6 -3 -93z"/>
<path d="M4394 695 c0 -104 2 -146 3 -92 2 54 2 139 0 190 -1 51 -3 7 -3 -98z"/>
<path d="M4254 2000 c0 -113 2 -159 3 -102 2 56 2 148 0 205 -1 56 -3 10 -3
-103z"/>
<path d="M4233 1300 c0 -30 2 -43 4 -27 2 15 2 39 0 55 -2 15 -4 2 -4 -28z"/>
<path d="M4242 1190 c0 -25 5 -92 13 -150 7 -60 13 -86 13 -60 0 25 -5 92 -13
150 -7 60 -13 86 -13 60z"/>
<path d="M4244 665 c0 -88 2 -123 3 -77 2 46 2 118 0 160 -1 42 -3 5 -3 -83z"/>
<path d="M6303 2140 c0 -41 2 -58 4 -37 2 20 2 54 0 75 -2 20 -4 3 -4 -38z"/>
<path d="M6334 1630 c0 -146 2 -205 3 -132 2 72 2 192 0 265 -1 72 -3 13 -3
-133z"/>
<path d="M6304 1260 c0 -69 1 -97 3 -62 2 34 2 90 0 125 -2 34 -3 6 -3 -63z"/>
<path d="M6214 1690 c0 -69 1 -97 3 -62 2 34 2 90 0 125 -2 34 -3 6 -3 -63z"/>
<path d="M6194 1455 c0 -49 1 -71 3 -48 2 23 2 64 0 90 -2 26 -3 8 -3 -42z"/>
<path d="M6213 1180 c0 -30 2 -43 4 -27 2 15 2 39 0 55 -2 15 -4 2 -4 -28z"/>
<path d="M6031 2060 c0 -32 36 -131 38 -102 1 7 -4 22 -10 33 -5 11 -14 39
-19 62 l-8 42 -1 -35z"/>
<path d="M5951 1635 c-6 -25 -22 -70 -36 -100 -13 -30 -22 -55 -20 -55 16 0
83 185 72 196 -2 3 -10 -16 -16 -41z"/>
<path d="M5685 2184 c-57 -41 -80 -51 -150 -70 l-50 -14 47 5 c59 6 125 36
175 80 49 44 41 43 -22 -1z"/>
<path d="M4640 2025 c0 -19 60 -90 98 -115 67 -44 74 -37 9 10 -30 22 -65 56
-77 75 -20 33 -30 42 -30 30z"/>
<path d="M4055 2060 c3 -4 14 -10 25 -13 11 -3 18 -2 15 3 -3 4 -14 10 -25 13
-11 3 -18 2 -15 -3z"/>
<path d="M4071 2016 c2 -2 15 -9 29 -15 24 -11 24 -11 6 3 -16 13 -49 24 -35
12z"/>
<path d="M5278 1947 c2 -34 -1 -88 -6 -119 -5 -32 -6 -58 -2 -58 17 0 28 203
12 227 -4 7 -6 -15 -4 -50z"/>
<path d="M5076 1900 c10 -39 30 -73 55 -95 23 -20 18 -5 -8 26 -7 9 -22 33
-33 55 -12 23 -18 29 -14 14z"/>
<path d="M5294 1560 c5 -70 29 -200 33 -180 1 8 -6 65 -17 125 -12 66 -18 88
-16 55z"/>
<path d="M5331 1344 c0 -11 3 -14 6 -6 3 7 2 16 -1 19 -3 4 -6 -2 -5 -13z"/>
<path d="M4086 1693 c-10 -25 -5 -193 5 -193 5 0 9 47 9 105 0 58 -2 105 -4
105 -2 0 -7 -8 -10 -17z"/>
<path d="M4164 1665 c0 -49 1 -71 3 -48 2 23 2 64 0 90 -2 26 -3 8 -3 -42z"/>
<path d="M4163 1180 c0 -41 2 -58 4 -37 2 20 2 54 0 75 -2 20 -4 3 -4 -38z"/>
<path d="M4570 1846 c0 -2 7 -7 16 -10 8 -3 12 -2 9 4 -6 10 -25 14 -25 6z"/>
<path d="M4550 1810 c19 -11 40 -19 45 -19 6 0 -6 8 -25 19 -19 11 -39 19 -45
19 -5 0 6 -8 25 -19z"/>
<path d="M5724 1470 c0 -69 1 -97 3 -62 2 34 2 90 0 125 -2 34 -3 6 -3 -63z"/>
<path d="M5644 1600 c0 -58 1 -81 3 -52 2 28 2 76 0 105 -2 28 -3 5 -3 -53z"/>
<path d="M4634 1375 c0 -60 1 -84 3 -52 2 32 2 81 0 110 -2 29 -3 3 -3 -58z"/>
<path d="M4623 1195 c0 -27 2 -38 4 -22 2 15 2 37 0 50 -2 12 -4 0 -4 -28z"/>
<path d="M4744 1345 c0 -49 1 -71 3 -48 2 23 2 64 0 90 -2 26 -3 8 -3 -42z"/>
<path d="M4733 1180 c0 -41 2 -58 4 -37 2 20 2 54 0 75 -2 20 -4 3 -4 -38z"/>
<path d="M4711 1044 c0 -11 3 -14 6 -6 3 7 2 16 -1 19 -3 4 -6 -2 -5 -13z"/>
<path d="M5644 559 c-11 -19 11 -30 37 -19 22 10 23 10 2 6 -13 -2 -25 0 -28
4 -3 5 5 11 17 13 23 4 23 4 1 6 -12 0 -25 -4 -29 -10z"/>
<path d="M5400 510 c0 -5 5 -10 10 -10 6 0 10 5 10 10 0 6 -4 10 -10 10 -5 0
-10 -4 -10 -10z"/>
<path d="M5586 511 c-4 -5 -2 -12 3 -15 5 -4 12 -2 15 3 4 5 2 12 -3 15 -5 4
-12 2 -15 -3z"/>
</g>
</svg>
