<?xml version="1.0" standalone="no"?>
<!DOCTYPE svg PUBLIC "-//W3C//DTD SVG 20010904//EN"
 "http://www.w3.org/TR/2001/REC-SVG-20010904/DTD/svg10.dtd">
<svg version="1.0" xmlns="http://www.w3.org/2000/svg"
 width="1024.000000pt" height="559.000000pt" viewBox="0 0 1024.000000 559.000000"
 preserveAspectRatio="xMidYMid meet">
<metadata>
Created by potrace 1.16, written by Peter Selinger 2001-2019
</metadata>
<g transform="translate(0.000000,559.000000) scale(0.100000,-0.100000)"
fill="#000000" stroke="none">
<path d="M4800 5100 c-8 -5 -27 -10 -43 -10 -29 0 -43 -6 -124 -57 -35 -22
-56 -44 -64 -66 -10 -29 -18 -34 -93 -55 -165 -46 -222 -127 -181 -258 6 -18
2 -22 -24 -27 -46 -9 -65 -47 -64 -126 2 -99 40 -217 94 -291 19 -24 19 -27
-1 -94 -10 -38 -22 -94 -25 -125 -20 -212 -18 -222 52 -254 41 -19 65 -22 159
-22 l111 1 28 -53 c33 -63 42 -65 156 -29 l76 23 12 -120 c8 -76 10 -172 5
-262 l-7 -142 38 -42 c42 -46 42 -51 1 -166 -38 -108 -130 -637 -152 -872 l-7
-72 41 -16 c47 -19 53 -39 45 -150 -4 -52 0 -88 15 -140 11 -38 23 -114 27
-169 6 -99 16 -166 55 -371 27 -145 28 -261 2 -312 -25 -48 -112 -113 -220
-166 -122 -59 -165 -125 -106 -164 55 -35 181 -32 315 7 40 12 112 26 160 30
47 5 101 16 118 25 32 16 32 16 25 78 -3 34 -13 89 -21 122 -32 122 -30 305 3
492 27 154 27 154 -12 334 l-26 117 24 93 c27 106 21 102 133 82 48 -8 50 -10
63 -53 7 -25 35 -106 62 -180 37 -102 52 -159 60 -233 6 -54 26 -153 44 -220
29 -105 46 -186 60 -285 2 -12 0 -25 -5 -27 -4 -3 -7 -34 -7 -68 2 -95 -31
-149 -186 -307 -43 -44 -54 -88 -29 -118 37 -46 208 -53 298 -13 22 10 76 53
119 95 l78 78 -6 48 c-4 27 -13 68 -22 92 -8 24 -17 72 -19 108 -3 36 -7 84
-11 106 -3 23 2 120 11 215 24 236 18 321 -33 474 -29 86 -42 145 -47 210 l-7
90 34 17 c18 9 57 24 86 33 32 10 52 22 52 31 0 8 -11 79 -24 157 -13 78 -29
178 -35 222 -6 44 -20 149 -31 232 -24 177 -57 317 -94 395 -31 66 -32 74 -7
88 11 5 29 25 40 44 18 29 21 49 21 144 0 91 5 125 26 192 41 131 74 307 81
426 7 138 -9 197 -71 258 -48 48 -212 136 -254 136 -29 0 -59 25 -81 67 -10
20 -3 31 87 120 54 54 117 127 141 162 42 64 42 65 85 62 38 -2 46 2 71 30 26
31 27 38 23 109 -11 189 -150 332 -227 235 l-18 -24 -94 30 c-185 58 -376 73
-556 44 -81 -13 -95 -13 -127 0 -41 17 -55 18 -76 5z m67 -25 c27 -11 34 -18
26 -26 -9 -9 -21 -6 -47 11 -55 33 -43 42 21 15z m553 -11 c87 -18 215 -59
247 -79 32 -21 83 -133 90 -196 4 -41 1 -64 -12 -90 -37 -74 -182 -251 -236
-290 -34 -24 -50 -19 -27 8 8 10 32 70 54 133 31 91 38 129 38 185 -1 122 -48
198 -160 255 -59 30 -78 35 -134 34 -36 -1 -84 -6 -107 -13 -58 -16 -132 -69
-167 -119 -32 -46 -33 -52 -22 -192 3 -36 8 -96 10 -135 5 -91 68 -288 99
-310 12 -8 29 -15 39 -15 29 0 30 -20 1 -31 -84 -34 -127 -48 -133 -44 -4 2
-15 32 -24 65 -13 45 -22 60 -35 60 -33 0 -44 -26 -38 -90 3 -33 3 -60 1 -60
-3 0 -21 7 -42 16 -36 15 -36 16 -17 31 19 14 18 15 -13 8 -29 -6 -39 -2 -82
34 -49 41 -84 52 -93 29 -3 -9 -9 -7 -20 7 -15 19 -13 21 21 31 l37 12 -48 1
c-32 1 -63 -7 -96 -24 l-49 -24 -6 47 c-10 72 -43 163 -81 226 l-34 56 25 0
c50 0 154 62 154 93 0 4 -12 -1 -27 -13 l-28 -22 -3 44 c-2 24 3 61 10 83 11
32 22 44 59 61 25 12 53 34 63 49 27 41 12 41 -19 1 -24 -31 -33 -36 -69 -36
-47 0 -132 -37 -161 -69 -26 -30 -24 -93 4 -131 28 -38 27 -40 -12 -40 -30 0
-36 5 -53 42 -35 79 -17 146 53 194 17 11 75 33 130 48 54 15 108 34 120 42
15 9 36 12 65 8 33 -5 47 -2 57 10 7 9 21 16 31 16 18 0 75 26 98 44 7 6 22
18 32 28 10 9 51 21 92 27 40 6 84 13 98 15 45 8 243 -5 320 -20z m-599 -11
c16 -10 29 -21 29 -25 0 -19 -23 -15 -66 12 -45 28 -46 30 -20 30 15 0 41 -8
57 -17z m-63 -23 c44 -20 56 -40 23 -40 -29 0 -112 40 -106 51 9 14 36 11 83
-11z m1024 1 c13 -11 35 -41 50 -68 71 -134 56 -281 -28 -271 -27 3 -28 5 -26
53 4 64 -28 169 -67 220 -34 44 -37 55 -19 73 18 18 62 14 90 -7z m-1073 -40
c41 -22 27 -35 -25 -25 -22 4 -45 2 -60 -6 -28 -15 -37 -10 -28 14 14 36 63
43 113 17z m716 -32 c79 -46 115 -103 122 -193 3 -35 3 -80 -1 -99 l-7 -35
-24 24 c-20 20 -28 22 -47 13 -13 -5 -32 -24 -42 -42 l-19 -32 -9 39 c-5 22
-15 47 -24 57 -8 9 -18 36 -23 60 -5 24 -9 36 -10 26 -1 -24 -21 -11 -21 14 0
10 -5 19 -11 19 -7 0 -9 -9 -6 -22 l6 -23 -20 24 c-10 13 -19 31 -19 40 0 13
-2 13 -9 2 -5 -7 -7 -23 -4 -35 4 -21 4 -21 -11 -2 -9 11 -16 23 -16 28 0 4
-4 8 -10 8 -5 0 -10 -15 -10 -32 l-1 -33 -31 34 -31 34 5 -31 c6 -41 1 -40
-18 1 l-15 32 4 -32 c2 -18 0 -33 -4 -33 -13 0 -39 43 -39 63 0 10 -4 15 -10
12 -5 -3 -10 -17 -10 -31 0 -14 -4 -22 -10 -19 -5 3 -10 15 -10 26 0 10 -4 19
-9 19 -11 0 -21 -25 -21 -51 0 -12 -4 -17 -11 -13 -16 10 -3 63 27 105 56 81
147 120 264 116 64 -3 84 -8 135 -38z m-941 -199 c-8 -30 -13 -72 -12 -92 3
-33 1 -38 -19 -38 -47 0 -79 81 -52 132 9 16 88 62 95 55 1 -1 -4 -27 -12 -57z
m563 13 c11 -14 16 -15 20 -5 4 10 8 10 19 1 8 -6 30 -14 49 -16 28 -3 35 0
35 13 0 15 2 15 21 -2 19 -18 22 -18 33 -2 10 14 15 15 26 5 10 -9 13 -9 17 0
5 15 73 -35 73 -53 0 -6 9 -23 20 -37 11 -14 20 -40 20 -60 0 -45 23 -55 47
-21 53 76 83 79 83 9 0 -50 -35 -108 -68 -113 -25 -4 -29 -17 -7 -26 10 -3 15
-19 15 -44 0 -56 26 -135 52 -159 13 -11 36 -27 52 -35 l28 -15 -31 -22 c-91
-65 -263 -119 -338 -105 -72 12 -117 58 -87 88 23 24 44 20 44 -9 0 -14 5 -25
11 -25 7 0 9 16 4 49 -6 48 -6 48 25 54 33 7 132 71 167 108 24 26 43 71 42
97 0 9 -7 1 -16 -18 -20 -48 -57 -85 -127 -131 -47 -31 -68 -39 -106 -39 -25
0 -54 6 -63 13 -28 20 -87 210 -87 280 0 55 1 59 14 41 15 -19 15 -19 31 1 15
19 15 17 8 -25 -4 -25 -7 -61 -8 -80 l0 -35 49 2 c55 2 77 16 57 36 -10 10
-12 9 -9 -3 2 -11 -8 -16 -39 -18 -49 -4 -51 1 -32 89 15 68 3 96 -47 105 -35
6 -36 8 -30 43 3 20 6 46 6 59 0 27 8 28 27 5z m28 -137 c17 -12 14 -13 -23
-13 -29 0 -42 4 -42 13 0 8 10 14 23 14 13 0 32 -6 42 -14z m-745 -41 c78 -40
163 -255 144 -363 -36 -203 -258 63 -242 291 6 82 36 104 98 72z m1151 -142
c-10 -17 -10 -16 -11 3 0 23 13 41 18 25 2 -6 -1 -18 -7 -28z m-836 -271 c4
-24 4 -46 2 -49 -12 -11 -48 10 -62 37 -18 35 -20 97 -2 103 20 7 55 -44 62
-91z m331 -19 c20 -59 34 -117 34 -146 0 -59 15 -89 87 -175 73 -88 123 -135
193 -182 31 -21 71 -56 88 -77 35 -43 46 -23 12 20 -20 25 -20 27 -4 52 14 21
22 25 43 20 49 -12 86 -35 151 -94 l64 -58 -79 -79 c-98 -97 -167 -144 -211
-144 -29 0 -47 14 -131 98 -82 81 -111 119 -177 232 -127 216 -140 234 -205
273 -58 37 -131 103 -131 121 0 5 9 1 20 -9 33 -30 23 -5 -15 36 -52 58 -42
67 16 15 28 -25 56 -46 61 -46 5 0 -15 23 -45 50 -32 29 -62 67 -71 91 -22 53
-16 58 17 15 23 -30 116 -106 130 -106 3 0 -23 27 -57 60 -103 99 -120 156
-23 77 63 -51 161 -102 177 -92 8 5 9 28 5 70 -6 57 -1 94 12 82 2 -3 20 -49
39 -104z m-423 40 c5 -51 41 -93 77 -93 12 0 26 -12 35 -30 l16 -30 -39 0
c-73 0 -142 71 -142 147 0 28 18 52 41 53 4 0 9 -21 12 -47z m1144 -21 c45
-24 98 -61 117 -82 62 -69 82 -193 51 -314 -22 -83 -37 -104 -30 -41 4 37 -7
10 -43 -101 -27 -82 -52 -156 -57 -163 -6 -10 -13 -7 -29 12 -11 13 -57 57
-101 97 -82 76 -140 109 -188 110 l-27 0 37 60 c23 37 68 86 115 126 112 94
123 115 18 33 -72 -57 -74 -55 -35 20 23 44 57 89 88 116 27 25 45 45 39 45
-6 0 -36 -23 -67 -51 -40 -37 -67 -75 -96 -133 -23 -44 -61 -112 -85 -151 -24
-38 -42 -75 -40 -81 2 -6 0 -17 -4 -24 -13 -21 -80 29 -192 143 -106 108 -138
160 -138 228 0 24 -4 58 -9 75 -8 29 -7 32 26 43 19 7 36 11 37 9 2 -1 11 -17
20 -35 36 -72 172 -82 322 -24 87 35 174 93 174 117 0 9 3 14 8 12 4 -1 44
-23 89 -46z m-1301 -46 c23 -7 74 11 74 27 0 5 14 -17 31 -49 30 -57 30 -61
20 -119 -5 -33 -13 -71 -16 -85 -6 -24 -6 -25 10 -5 9 11 18 31 21 45 10 44
13 50 28 50 23 0 98 -231 80 -249 -3 -3 -70 -6 -149 -6 -130 0 -146 2 -172 21
-26 20 -28 27 -31 98 -3 76 18 227 38 281 10 25 12 26 28 13 9 -9 27 -19 38
-22z m169 -96 c3 -5 -1 -10 -10 -10 -9 0 -13 5 -10 10 3 6 8 10 10 10 2 0 7
-4 10 -10z m125 -25 c0 -22 69 -88 134 -126 62 -37 73 -52 212 -287 62 -105
96 -151 164 -219 99 -99 129 -117 176 -109 37 7 130 73 187 134 l39 40 50 -14
c72 -19 90 -8 117 68 26 75 73 179 78 174 9 -9 -60 -256 -98 -354 -33 -83 -37
-115 -8 -59 11 20 21 37 23 37 2 0 3 -35 2 -78 -1 -112 -32 -153 -132 -171
l-49 -9 45 39 c52 46 25 36 -57 -21 -54 -38 -60 -40 -135 -40 -43 0 -78 3 -78
8 0 4 33 22 73 39 39 18 64 33 54 33 -9 0 -59 -18 -110 -40 -174 -74 -277 -64
-362 35 -52 62 -76 69 -26 8 17 -21 31 -41 31 -45 0 -12 -63 11 -86 33 -42 40
-48 70 -35 188 9 87 8 133 -3 242 -8 74 -18 171 -21 217 -8 97 -29 126 -23 33
1 -33 2 -61 1 -61 -1 0 -25 34 -53 75 -28 41 -53 75 -56 75 -6 0 -5 -2 53 -93
24 -37 44 -72 46 -78 1 -6 -32 -21 -75 -34 l-76 -22 -12 81 c-12 89 -64 271
-80 281 -27 17 -2 32 58 34 22 1 32 -4 32 -14z m-28 -325 c2 -22 1 -40 -2 -40
-10 0 -39 67 -33 74 17 17 31 2 35 -34z m1044 -238 c-3 -2 -23 -1 -45 3 -41 7
-41 7 -23 30 l17 23 27 -26 c15 -14 26 -27 24 -30z m-638 -437 c76 -27 161
-32 221 -15 22 6 59 6 109 -1 60 -8 84 -8 121 4 25 8 68 18 95 22 27 4 56 9
65 13 14 5 14 3 3 -10 -34 -42 -323 -76 -499 -59 -113 11 -214 37 -221 59 -6
19 27 15 106 -13z m650 -59 c40 -85 71 -237 113 -561 11 -88 29 -211 40 -273
27 -159 27 -158 -18 -167 -21 -3 -52 -15 -70 -25 -85 -50 -356 -61 -520 -22
-53 13 -125 22 -168 22 -82 0 -200 21 -274 48 -45 17 -46 18 -43 57 4 52 30
255 42 325 6 30 19 109 29 175 65 398 93 482 149 446 12 -7 11 -14 -3 -40 -16
-31 -56 -174 -54 -195 0 -6 16 36 35 94 42 130 44 133 78 124 23 -5 26 -10 21
-33 -19 -91 -36 -271 -40 -426 l-4 -180 9 140 c8 133 34 394 46 461 6 31 6 31
47 23 23 -4 86 -8 140 -9 l98 0 -6 -67 c-4 -38 -2 -86 3 -108 9 -34 10 -24 11
68 1 98 3 107 20 107 26 0 36 -47 84 -395 3 -25 4 -23 6 10 1 53 -25 257 -43
326 -8 30 -12 57 -8 61 4 3 37 9 74 13 l67 7 10 -38 c16 -60 29 -123 42 -197
6 -37 14 -66 16 -63 10 9 -31 232 -53 289 -3 9 3 16 15 20 21 5 32 -15 65
-123 10 -33 14 -38 15 -20 0 14 -11 52 -24 85 -14 33 -25 61 -25 63 0 3 41 20
51 21 4 1 16 -19 27 -43z m-824 -1026 c14 -5 85 -14 158 -20 73 -6 134 -13
136 -15 3 -2 -6 -45 -18 -95 -25 -99 -24 -122 9 -260 23 -96 26 -158 10 -245
-24 -140 -39 -254 -39 -311 l0 -61 -46 -7 c-25 -3 -63 -3 -84 0 l-38 6 -6 67
c-4 36 -18 125 -32 196 -14 72 -34 207 -44 300 -11 94 -26 194 -34 222 -11 38
-13 78 -9 143 3 49 7 90 9 90 1 0 14 -4 28 -10z m838 -142 c5 -73 14 -119 47
-215 48 -142 59 -236 42 -358 -7 -44 -15 -140 -18 -213 l-6 -132 -26 -6 c-14
-3 -32 -8 -39 -10 -8 -2 -31 -1 -52 2 l-38 6 -7 62 c-10 84 -32 190 -55 261
-25 76 -39 148 -50 255 -6 63 -21 118 -58 215 -27 72 -52 147 -56 168 l-7 37
103 1 c57 0 123 4 148 8 25 5 50 9 56 10 7 1 13 -32 16 -91z m-573 -904 c-21
-26 -189 -23 -189 4 0 4 45 7 99 7 73 0 97 -3 90 -11z m-193 -82 c-8 -16 -30
-42 -48 -58 -51 -44 -147 -108 -154 -102 -3 3 26 27 65 52 71 47 115 91 134
134 6 14 13 20 15 14 2 -6 -4 -24 -12 -40z m200 1 c5 -35 3 -52 -10 -72 -10
-14 -29 -52 -44 -83 -24 -53 -30 -58 -59 -58 -27 0 -32 4 -38 30 -4 17 -22 51
-40 75 -30 39 -32 45 -18 57 9 7 23 31 33 53 l17 40 76 2 76 2 7 -46z m644 37
c0 -31 -156 -44 -180 -15 -11 13 -5 14 46 9 33 -3 70 -1 84 4 32 14 50 14 50
2z m-3 -111 c-3 -33 -2 -57 1 -55 4 2 5 -22 4 -55 -4 -59 -15 -76 -27 -40 -8
25 -71 81 -90 81 -18 0 -18 5 -4 68 12 48 13 49 58 59 25 5 50 7 55 5 5 -3 6
-31 3 -63z m-172 22 c-4 -17 -10 -33 -14 -36 -5 -2 -3 13 2 35 13 46 22 46 12
1z m39 -8 c-4 -21 -13 -51 -22 -68 -25 -50 -92 -145 -102 -145 -15 0 -14 3 35
77 25 37 53 92 62 121 19 60 37 70 27 15z m-479 -60 c6 -41 4 -50 -15 -65 -28
-22 -60 -23 -60 -2 0 18 52 114 61 114 4 0 10 -21 14 -47z m-230 -11 c27 -41
36 -83 19 -89 -6 -2 -14 9 -17 25 -3 16 -17 43 -31 60 -30 35 -32 42 -11 42 8
0 26 -17 40 -38z m-29 -44 c8 -15 14 -33 14 -41 0 -16 -53 -31 -58 -17 -2 5
-15 26 -29 46 l-25 38 24 17 c21 17 24 17 41 1 11 -9 25 -29 33 -44z m906 -41
c-9 -18 -11 -14 -11 28 1 46 1 48 11 22 7 -20 7 -35 0 -50z m-141 48 c33 -18
92 -93 83 -107 -3 -5 -15 6 -28 24 -12 18 -37 43 -56 56 -55 37 -55 55 1 27z
m-853 -35 c26 -39 28 -50 7 -50 -8 0 -15 6 -15 14 0 7 -9 25 -20 39 -11 14
-20 28 -20 32 0 16 27 -4 48 -35z m-113 19 c4 -6 14 -8 23 -4 19 7 62 -32 62
-57 0 -13 -7 -18 -25 -18 -14 0 -45 -5 -69 -12 -36 -9 -48 -9 -61 2 -19 16
-11 26 42 51 41 19 22 26 -24 8 l-27 -10 24 24 c28 27 45 33 55 16z m835 -3
c0 -3 -4 -8 -10 -11 -5 -3 -10 -1 -10 4 0 6 5 11 10 11 6 0 10 -2 10 -4z m127
-32 c29 -22 72 -84 58 -84 -3 0 -25 16 -51 35 -25 19 -54 35 -65 35 -22 0 -24
11 -7 28 17 17 27 15 65 -14z m-499 0 c-10 -11 -53 -21 -124 -30 -60 -8 -138
-24 -174 -35 -96 -30 -226 -37 -271 -14 -18 10 -29 20 -22 22 6 2 23 -3 38
-13 22 -15 35 -15 113 -5 48 6 116 20 151 31 36 12 110 25 165 31 55 6 107 14
115 19 24 14 27 12 9 -6z m327 -24 c-3 -5 -11 -10 -16 -10 -6 0 -7 5 -4 10 3
6 11 10 16 10 6 0 7 -4 4 -10z m184 -55 c34 -33 20 -43 -14 -11 -16 15 -31 26
-36 26 -21 0 -59 21 -54 30 8 14 74 -15 104 -45z m76 -25 c-67 -68 -89 -83
-134 -97 -62 -18 -204 -15 -236 6 -17 10 -10 11 40 5 77 -9 161 -6 204 8 19 6
70 44 113 84 43 41 82 74 86 74 3 0 -29 -36 -73 -80z m-255 36 c8 -11 18 -12
35 -6 27 10 81 -4 116 -31 l24 -19 -24 -20 c-32 -28 -54 -26 -46 3 6 21 5 21
-9 3 -8 -10 -17 -23 -19 -29 -2 -6 -8 -7 -15 -3 -8 5 -8 14 -2 32 7 17 7 23
-1 19 -5 -4 -14 -18 -19 -31 -5 -13 -16 -24 -25 -24 -18 0 -20 21 -4 37 6 6 9
17 6 25 -2 8 -12 -2 -22 -24 -11 -21 -25 -38 -32 -38 -17 0 -16 14 2 50 22 42
1 37 -24 -5 -21 -36 -28 -39 -55 -29 -25 10 -19 23 27 65 45 41 68 47 87 25z"/>
<path d="M4693 4780 c89 -98 153 -266 167 -435 l7 -90 1 75 c1 41 -5 105 -12
141 -29 136 -117 301 -183 344 -21 14 -15 5 20 -35z"/>
<path d="M5750 4993 c54 -61 74 -117 75 -205 0 -47 4 -73 9 -68 5 5 9 38 9 73
-2 72 -37 164 -80 210 -40 41 -50 33 -13 -10z"/>
<path d="M5160 4661 c-39 -11 -7 -23 43 -16 23 4 54 2 70 -4 15 -6 27 -7 27
-2 0 23 -87 37 -140 22z"/>
<path d="M5472 4633 c-22 -8 -35 -43 -21 -59 10 -13 10 -17 -1 -24 -8 -5 -11
-12 -8 -15 15 -16 30 9 25 42 -5 28 -2 35 15 42 12 4 17 10 12 13 -5 3 -15 3
-22 1z"/>
<path d="M5180 4612 c0 -14 44 -36 48 -23 2 6 13 11 25 11 18 0 19 2 7 10 -18
11 -80 13 -80 2z"/>
<path d="M5332 4507 c-25 -27 -30 -46 -6 -27 15 13 38 50 31 50 -2 0 -13 -10
-25 -23z"/>
<path d="M5081 4396 c2 -2 33 -6 69 -10 44 -4 60 -3 50 4 -14 9 -129 15 -119
6z"/>
<path d="M5110 4350 c20 -13 47 -13 55 0 4 6 -9 10 -32 10 -28 0 -34 -3 -23
-10z"/>
<path d="M5332 4189 c-12 -34 -20 -64 -18 -66 6 -6 47 108 44 119 -2 5 -14
-19 -26 -53z"/>
<path d="M5215 4183 c15 -32 25 -42 25 -24 0 5 -9 19 -20 32 l-21 24 16 -32z"/>
<path d="M4277 4549 c-13 -8 -17 -24 -17 -69 0 -127 98 -302 151 -270 35 23 2
199 -56 290 -30 47 -54 62 -78 49z m55 -55 c50 -72 91 -244 64 -271 -13 -14
-72 61 -96 123 -24 62 -37 152 -26 179 9 24 27 14 58 -31z"/>
<path d="M5074 4055 c8 -26 20 -53 27 -59 9 -8 10 -6 4 9 -4 11 -13 35 -19 52
-19 52 -27 51 -12 -2z"/>
<path d="M5412 4025 c-96 -72 -157 -107 -201 -116 l-36 -7 36 -1 c41 -1 114
40 215 120 56 44 71 59 61 59 -1 0 -35 -25 -75 -55z"/>
<path d="M5471 3992 c-31 -49 -95 -182 -89 -187 2 -2 31 50 64 116 34 65 60
119 59 119 -2 0 -17 -22 -34 -48z"/>
<path d="M4951 3495 c-1 -49 63 -245 108 -333 34 -67 32 -49 -5 36 -18 42 -49
131 -68 197 -19 66 -35 111 -35 100z"/>
<path d="M5521 3305 c11 -33 53 -81 84 -97 11 -6 2 9 -20 33 -22 24 -48 55
-57 69 l-18 25 11 -30z"/>
<path d="M5327 3195 c-9 -19 -15 -35 -12 -35 7 0 37 61 33 66 -3 2 -12 -12
-21 -31z"/>
<path d="M5141 2633 c-5 -90 125 -453 193 -538 9 -11 1 9 -18 45 -60 112 -148
367 -169 490 -4 22 -4 22 -6 3z"/>
<path d="M5745 2404 c12 -175 26 -339 32 -344 2 -3 2 38 -2 90 -14 204 -26
334 -30 339 -3 2 -3 -35 0 -85z"/>
<path d="M4970 1720 c-7 -28 -10 -53 -7 -56 2 -3 10 18 17 46 7 28 10 53 7 56
-2 3 -10 -18 -17 -46z"/>
<path d="M5623 1655 c0 -33 2 -45 4 -27 2 18 2 45 0 60 -2 15 -4 0 -4 -33z"/>
<path d="M5510 1603 c13 -18 25 -33 27 -33 8 0 -17 38 -33 51 -11 9 -9 2 6
-18z"/>
<path d="M5121 797 c-1 -21 -6 -47 -11 -58 -6 -10 -7 -19 -2 -19 18 0 32 54
23 85 l-9 30 -1 -38z"/>
</g>
</svg>
