<?xml version="1.0" standalone="no"?>
<!DOCTYPE svg PUBLIC "-//W3C//DTD SVG 20010904//EN"
 "http://www.w3.org/TR/2001/REC-SVG-20010904/DTD/svg10.dtd">
<svg version="1.0" xmlns="http://www.w3.org/2000/svg"
 width="1024.000000pt" height="559.000000pt" viewBox="0 0 1024.000000 559.000000"
 preserveAspectRatio="xMidYMid meet">
<metadata>
Created by potrace 1.16, written by Peter Selinger 2001-2019
</metadata>
<g transform="translate(0.000000,559.000000) scale(0.100000,-0.100000)"
fill="#000000" stroke="none">
<path d="M5380 5083 c0 -5 -42 -8 -93 -8 -123 0 -161 -20 -294 -150 -96 -94
-123 -135 -88 -135 12 0 11 -8 -5 -46 -40 -92 -20 -195 49 -257 17 -15 31 -37
31 -50 0 -12 12 -40 25 -62 14 -22 25 -49 25 -60 0 -27 41 -113 79 -165 l31
-43 -97 -48 c-113 -54 -183 -118 -339 -309 -52 -63 -115 -139 -142 -169 -26
-30 -38 -49 -27 -44 29 16 146 141 248 266 103 125 182 194 269 235 102 48
100 48 136 -2 18 -24 32 -49 32 -55 0 -6 -11 -43 -24 -83 -13 -40 -33 -125
-45 -188 -12 -63 -26 -123 -32 -133 -14 -26 -28 -149 -29 -249 0 -49 -4 -88
-8 -88 -9 0 -33 142 -56 335 l-13 110 -3 -80 c-2 -44 -2 -87 -1 -95 1 -8 5
-37 8 -63 l6 -48 -69 26 c-96 37 -133 47 -147 42 -7 -3 0 -8 16 -12 31 -8 35
-20 10 -28 -10 -3 -81 -35 -159 -71 -77 -37 -156 -69 -175 -72 l-34 -6 -1 84
c-1 55 -7 95 -18 118 -12 25 -15 28 -11 10 21 -98 14 -207 -15 -225 -14 -9
-60 36 -60 58 0 51 -24 104 -65 144 -23 24 -48 43 -56 43 -7 0 3 -14 23 -30
31 -26 78 -87 78 -102 0 -3 -18 12 -39 33 -51 47 -125 73 -197 67 l-54 -5 21
23 c12 13 51 32 88 43 36 11 111 48 166 81 l100 59 20 -25 21 -26 61 36 c34
20 71 36 82 36 12 0 21 5 21 10 0 20 -56 9 -105 -20 -60 -35 -61 -36 -68 -10
-9 33 -41 24 -155 -44 -59 -35 -134 -71 -166 -81 -58 -16 -67 -22 -179 -131
-65 -63 -97 -199 -59 -255 9 -15 29 -45 44 -67 38 -57 71 -76 135 -79 30 -1
75 -9 101 -17 26 -8 94 -24 152 -36 58 -11 114 -24 126 -29 31 -14 39 -66 14
-91 -11 -11 -20 -31 -20 -45 0 -30 36 -69 57 -61 52 20 65 19 88 -10 l23 -29
142 -1 c110 -1 145 2 156 13 8 8 14 19 14 24 0 11 70 3 84 -11 7 -7 5 -10 -5
-10 -37 0 -178 -81 -242 -139 -37 -33 -73 -61 -80 -61 -19 0 -189 -56 -285
-94 -48 -18 -161 -55 -252 -81 -159 -46 -422 -127 -770 -238 -90 -28 -157 -53
-149 -55 13 -2 177 45 529 153 258 79 482 145 492 145 6 0 0 -12 -14 -28 -58
-62 -71 -112 -103 -411 -33 -310 -33 -301 12 -342 32 -27 132 -80 194 -102 19
-6 46 -115 58 -235 5 -43 14 -88 21 -101 8 -15 10 -41 6 -72 -4 -29 -2 -50 4
-54 5 -3 10 -10 10 -14 0 -18 -108 -91 -180 -122 -85 -37 -108 -54 -121 -88
-21 -54 18 -84 126 -96 101 -11 218 9 313 55 46 22 98 40 115 40 51 0 146 26
167 45 22 20 25 57 11 118 -10 42 -1 53 41 48 14 -1 45 7 67 18 l41 21 2 163
3 162 52 3 51 3 8 -78 c5 -43 7 -115 6 -160 -6 -201 -4 -253 10 -271 13 -16
-17 -63 -101 -155 -68 -75 -84 -106 -75 -143 19 -73 229 -92 364 -33 54 24 92
59 124 114 13 22 37 50 54 62 27 20 29 27 35 105 3 46 13 103 22 128 14 38 15
56 6 115 -8 52 -7 94 2 160 l12 90 51 6 c29 4 57 9 62 13 6 3 13 69 17 146 8
158 1 148 95 126 l55 -13 -4 -409 c-3 -340 -1 -411 10 -420 8 -7 38 -18 66
-27 l53 -15 52 32 53 31 3 140 3 140 125 60 c69 33 132 61 139 63 11 3 15 -15
17 -80 l3 -83 53 -18 54 -17 51 27 52 28 -4 370 -4 371 49 25 c52 27 61 44 63
115 2 72 -11 78 -204 109 -93 14 -185 29 -202 32 -28 4 -33 10 -33 32 0 54 10
71 38 64 l25 -6 -6 89 c-6 89 -26 191 -53 272 -8 24 -11 54 -8 68 6 24 10 25
49 20 23 -4 54 -2 69 4 52 19 124 101 167 189 l42 85 -6 95 c-13 202 -187 817
-268 941 -51 80 -102 119 -262 202 -144 74 -161 82 -209 92 -15 4 -51 27 -80
52 -29 24 -59 50 -67 56 -8 7 -11 22 -8 42 3 17 13 69 21 116 27 148 16 329
-27 432 -23 54 -65 95 -115 114 -26 9 -58 27 -72 39 -14 13 -35 28 -47 34 -25
12 -73 15 -73 4z m-10 -33 c39 -7 56 -7 61 1 8 14 35 0 68 -35 14 -14 36 -26
49 -26 39 0 107 -75 126 -140 24 -79 38 -179 34 -241 -3 -51 -4 -53 -15 -27
-36 81 -122 45 -137 -57 -4 -25 -11 -45 -15 -45 -4 0 -14 15 -22 32 -8 18 -34
46 -58 62 -47 32 -71 75 -71 131 0 19 -4 35 -10 35 -5 0 -10 -4 -10 -8 0 -12
-61 -95 -66 -90 -2 2 0 19 5 36 12 42 -1 41 -30 -3 -24 -34 -87 -85 -121 -98
-23 -8 -23 -7 7 33 33 44 34 72 3 43 -21 -19 -139 -83 -153 -83 -10 0 16 44
43 73 44 47 9 29 -41 -21 -29 -29 -49 -60 -53 -81 l-7 -34 -18 22 c-46 56 -47
143 -3 240 13 29 24 55 24 56 0 2 -10 1 -22 -3 -17 -4 -3 15 47 67 144 148
240 188 385 161z m81 -496 c29 -20 48 -41 55 -64 7 -19 17 -35 23 -34 6 1 17
2 25 3 8 0 15 20 19 52 7 58 29 89 63 89 33 0 47 -33 41 -97 -7 -70 -35 -126
-67 -134 -21 -5 -22 -7 -7 -14 9 -4 23 -5 30 -2 9 3 24 -14 41 -46 15 -29 33
-63 41 -77 16 -26 20 -192 6 -240 -10 -35 -77 -83 -160 -115 l-71 -27 -26 -86
c-28 -92 -44 -122 -44 -82 0 13 -5 53 -11 89 -11 59 -17 70 -60 112 -59 57
-63 79 -14 79 19 0 35 -3 35 -7 1 -14 40 -56 46 -50 3 3 -2 20 -13 38 -15 27
-16 33 -3 37 27 8 144 137 171 187 31 57 45 120 29 130 -6 3 -10 -4 -10 -17 0
-60 -106 -215 -179 -264 -46 -30 -104 -40 -143 -25 -49 19 -218 280 -218 339
0 26 3 26 31 10 17 -10 23 -10 26 0 3 6 11 12 19 12 11 0 14 -18 14 -83 0
-113 21 -130 100 -84 27 15 39 29 39 42 -1 13 -3 15 -6 5 -5 -18 -79 -54 -97
-47 -9 4 -16 35 -21 101 -4 63 -12 99 -21 107 -12 9 -13 9 -9 -3 9 -23 -75
-31 -92 -10 -22 27 -14 35 27 29 22 -3 42 -1 45 3 7 11 -21 20 -65 20 -37 0
-38 1 -45 40 -8 47 6 63 90 106 l50 26 -22 -24 c-13 -13 -23 -27 -23 -31 0
-23 108 18 148 55 12 12 22 16 22 10 0 -23 26 -12 65 28 l40 40 21 -48 c15
-34 35 -58 65 -78z m226 -176 c-3 -8 -6 -5 -6 6 -1 11 2 17 5 13 3 -3 4 -12 1
-19z m121 -320 c4 -122 -23 -612 -34 -630 -9 -15 -64 -9 -71 7 -6 17 6 147 34
370 9 72 17 199 17 282 l1 152 25 -24 c23 -23 25 -32 28 -157z m43 112 c18
-10 18 -13 3 -41 -18 -36 -19 -36 -27 14 -6 40 -5 42 24 27z m192 -82 c157
-82 236 -145 281 -227 42 -78 87 -220 81 -256 -3 -16 1 -59 9 -95 12 -49 14
-54 10 -20 -2 25 -7 63 -9 85 -7 60 47 -108 99 -310 70 -267 79 -372 39 -449
l-16 -31 -12 41 c-18 60 -68 127 -120 162 -45 30 -168 66 -189 56 -6 -3 -2 2
8 10 33 27 142 24 199 -6 51 -26 58 -17 10 12 -25 15 -60 24 -103 27 -58 4
-71 2 -122 -25 -45 -24 -58 -27 -58 -16 0 31 73 83 155 111 l40 13 -44 -5
c-51 -7 -88 -25 -135 -65 l-34 -30 -15 23 c-30 46 -40 111 -40 272 0 109 -2
146 -8 115 -4 -25 -8 -74 -8 -109 -1 -35 -4 -62 -7 -59 -3 4 -16 37 -29 75
-13 37 -24 58 -24 45 -1 -13 10 -56 23 -95 13 -40 27 -99 31 -131 4 -33 20
-83 36 -114 35 -66 36 -82 4 -116 -14 -15 -27 -39 -31 -54 -15 -71 -23 -69
-78 16 -85 130 -117 233 -140 446 -8 76 -21 144 -27 152 -9 11 -9 51 0 172 6
86 11 201 11 254 0 60 4 99 11 104 6 3 20 26 31 50 10 24 22 44 25 44 3 0 69
-33 146 -72z m-770 -124 c12 -4 10 -19 -9 -96 -26 -98 -54 -290 -54 -367 0
-26 -2 -50 -5 -53 -10 -10 -55 4 -55 18 0 8 6 11 16 7 20 -8 36 17 22 34 -8
10 -14 11 -25 1 -12 -10 -13 -3 -8 53 8 75 37 214 66 314 31 108 26 99 52 89z
m433 -229 l-22 -200 -74 -8 c-92 -10 -247 -3 -315 15 l-50 13 1 70 c0 39 11
118 24 177 l22 107 48 -40 c45 -38 47 -42 58 -117 15 -94 30 -152 41 -152 7 0
71 194 71 217 0 5 27 20 59 32 33 12 81 36 108 54 26 19 49 33 50 33 1 -1 -8
-91 -21 -201z m-171 -233 l150 5 -3 -37 c-5 -46 17 -70 62 -70 43 0 56 16 56
70 0 33 3 41 10 30 5 -8 10 -41 10 -73 0 -81 26 -234 54 -316 26 -77 82 -183
121 -230 l26 -30 -33 -24 c-88 -66 -273 -167 -306 -167 -10 0 -11 10 -5 48 4
26 7 70 5 97 -6 117 -39 149 -157 148 -86 0 -153 -26 -280 -106 -90 -57 -119
-69 -109 -43 3 8 0 31 -6 53 -24 80 -27 162 -14 373 7 118 13 216 13 217 1 1
15 -5 31 -14 17 -8 37 -13 44 -10 13 5 26 50 26 92 l0 23 78 -20 c65 -17 100
-19 227 -16z m-358 -14 c-3 -8 -6 -5 -6 6 -1 11 2 17 5 13 3 -3 4 -12 1 -19z
m-936 -58 c44 -23 89 -62 89 -78 0 -6 -17 -1 -37 9 -76 39 -179 15 -241 -56
-40 -45 -52 -74 -52 -127 0 -46 23 -91 57 -109 13 -7 23 -16 23 -20 0 -10 -58
7 -77 22 -39 33 -58 126 -40 194 7 24 6 27 -4 18 -7 -7 -14 -38 -17 -69 -4
-54 -5 -56 -18 -33 -19 34 -17 70 7 134 28 75 54 103 119 126 66 23 130 20
191 -11z m725 -32 l70 -23 22 -130 c12 -71 23 -166 23 -210 0 -44 8 -111 19
-150 10 -38 17 -71 16 -72 -2 -2 -21 5 -44 15 -25 10 -42 24 -42 34 0 9 -19
27 -42 41 -24 14 -62 48 -85 75 -30 36 -57 55 -100 72 -65 26 -293 143 -336
172 -35 25 -27 38 23 38 39 0 117 30 290 113 52 25 100 46 105 47 6 0 42 -10
81 -22z m-688 -55 c17 -10 58 -41 89 -68 32 -28 72 -60 88 -72 34 -23 299
-160 362 -186 38 -16 44 -24 77 -103 39 -92 43 -124 23 -164 -20 -40 -41 -31
-48 20 -4 25 -17 65 -28 90 l-21 45 5 -40 c18 -130 18 -132 1 -138 -30 -12
-44 4 -62 69 -9 35 -21 64 -26 64 -5 0 -7 -8 -4 -17 8 -28 25 -107 23 -109 -1
-1 -12 -5 -25 -8 -23 -8 -28 0 -63 93 -17 44 -21 13 -5 -35 20 -59 20 -56 -6
-52 -14 2 -35 21 -53 49 -16 25 -42 60 -58 78 -15 18 -32 52 -38 76 -7 28 -15
42 -24 39 -7 -3 -61 4 -121 16 -277 53 -369 116 -335 230 32 108 160 171 249
123z m2039 -339 c78 -27 126 -66 161 -132 36 -67 42 -133 16 -170 -22 -31 -29
-27 -30 16 -1 39 -23 117 -30 109 -2 -2 1 -26 7 -54 21 -90 -9 -151 -83 -169
-35 -8 -38 13 -4 26 64 24 34 155 -54 234 -70 63 -142 83 -188 50 -21 -14 -22
-14 -22 5 0 31 45 55 102 54 35 0 68 -10 110 -32 37 -19 55 -24 47 -14 -25 29
-111 63 -164 63 -48 1 -49 1 -25 15 33 19 99 19 157 -1z m-705 -86 c57 -21 40
-79 -36 -123 -23 -13 -90 -44 -151 -69 l-110 -46 -115 -118 c-125 -129 -196
-179 -328 -226 -83 -30 -138 -33 -170 -10 -27 18 -29 61 -6 107 54 107 144
186 284 248 69 31 73 32 86 14 13 -18 169 -59 186 -49 11 7 -7 38 -50 86 -22
25 -32 43 -25 45 7 2 40 23 75 45 159 103 266 132 360 96z m-609 -51 c28 -10
-2 -16 -35 -7 -27 8 -39 18 -46 40 l-11 29 40 -29 c22 -16 46 -31 52 -33z
m1226 19 c84 -43 138 -126 129 -201 -2 -24 -13 -34 -58 -56 -71 -36 -161 -68
-335 -119 -77 -22 -154 -45 -171 -51 -16 -5 -70 -45 -119 -88 -49 -44 -97 -82
-107 -84 -10 -3 -16 -1 -13 3 3 5 -21 7 -52 4 l-58 -4 40 15 c22 9 44 21 50
27 7 8 6 9 -2 4 -10 -5 -158 -36 -175 -36 -5 0 -8 4 -8 8 0 5 26 17 58 28 58
19 106 44 84 44 -7 0 -48 -12 -92 -27 -79 -26 -79 -26 -120 -8 -22 10 -46 25
-53 33 -10 13 -5 14 41 10 45 -4 59 -1 95 22 37 23 117 115 117 134 0 7 -24 3
-97 -16 -23 -6 -54 -8 -68 -4 -33 8 -33 36 -1 36 14 0 27 4 30 8 3 5 36 24 73
43 67 33 70 34 178 31 94 -3 118 0 158 17 74 32 172 92 286 175 57 42 112 76
123 76 10 0 40 -11 67 -24z m-1661 -101 c-3 -3 -22 -9 -42 -12 -36 -6 -36 -5
-36 30 0 19 6 37 13 40 13 5 74 -49 65 -58z m408 39 c-3 -9 -6 -27 -6 -40 0
-13 -4 -24 -10 -24 -5 0 -10 18 -10 40 0 30 4 40 16 40 11 0 14 -5 10 -16z
m114 -29 c44 -23 137 -111 127 -122 -3 -2 -31 1 -63 7 -40 8 -67 21 -87 41
-16 16 -39 32 -53 35 -18 5 -24 13 -24 33 0 48 14 49 100 6z m565 -70 l-6 -62
-78 5 c-50 3 -86 0 -100 -8 -28 -15 -31 -12 -24 23 4 18 15 32 30 38 60 23
134 64 155 86 l23 25 3 -23 c2 -13 1 -51 -3 -84z m-219 -41 c-3 -9 -6 -22 -6
-30 0 -7 -35 -30 -80 -50 -67 -31 -80 -41 -80 -60 0 -43 57 -53 150 -27 24 6
24 6 -7 -32 -52 -62 -79 -75 -160 -75 -68 0 -79 -3 -170 -51 -54 -28 -124 -59
-157 -70 -64 -22 -164 -27 -193 -10 -14 8 -9 10 28 11 139 1 351 119 463 259
66 82 80 95 142 126 57 29 79 32 70 9z m819 -114 c-10 -16 -65 -42 -65 -31 0
6 12 17 28 25 32 18 46 20 37 6z m-85 -35 c0 -16 -74 -215 -100 -270 -37 -77
-128 -213 -205 -305 -113 -134 -141 -223 -152 -480 l-6 -147 -132 -7 c-137 -8
-217 1 -297 31 -30 11 -97 18 -223 23 -216 9 -233 13 -495 140 -197 95 -274
120 -365 120 l-57 0 6 38 c3 20 10 80 16 132 43 400 52 442 111 501 20 20 65
51 100 68 62 30 321 122 327 116 2 -2 -4 -18 -14 -36 -32 -62 -35 -89 -15
-133 30 -67 53 -81 130 -81 36 0 82 4 103 8 l36 9 36 -75 c50 -104 83 -112
181 -46 85 57 152 90 210 105 47 11 48 12 15 13 -19 0 -55 -8 -79 -19 -24 -11
-45 -19 -47 -17 -1 1 -6 26 -10 55 -8 61 -4 62 64 28 33 -17 79 -28 155 -37
l108 -12 46 33 c45 32 50 34 137 33 50 -1 105 -6 121 -12 27 -10 28 -10 11 3
-17 14 -70 23 -164 29 l-42 2 49 42 c44 38 68 48 233 97 180 54 208 61 208 51z
m99 -70 c35 -112 63 -302 44 -293 -5 2 -52 27 -106 57 -74 40 -97 58 -93 70
63 199 77 225 128 230 4 1 16 -28 27 -64z m-1058 -102 c9 -11 14 -42 14 -82
l0 -64 -64 -44 c-35 -24 -69 -42 -74 -40 -5 1 -20 31 -32 66 -13 35 -29 68
-36 75 -9 8 -10 7 -4 -9 26 -63 47 -136 42 -142 -12 -11 -36 18 -67 80 -16 33
-30 62 -30 63 0 2 17 12 38 22 20 10 68 35 105 55 78 42 88 44 108 20z m975
-150 l84 -47 -6 -40 c-25 -175 -83 -244 -262 -312 -54 -20 -127 -50 -165 -67
-37 -16 -69 -28 -72 -25 -7 7 21 85 46 125 12 18 60 82 108 142 47 60 102 136
122 170 l36 60 25 -27 c14 -15 32 -38 41 -52 10 -13 17 -20 17 -14 0 13 -54
89 -69 98 -9 6 -5 36 6 36 2 0 42 -21 89 -47z m276 -213 c101 -17 193 -32 206
-35 20 -5 22 -11 22 -68 l0 -63 -57 -28 c-32 -16 -166 -78 -298 -139 l-240
-110 -170 35 c-168 34 -170 34 -173 61 -3 25 3 30 52 53 l54 25 107 -22 c59
-11 121 -18 139 -15 17 4 103 39 191 80 l160 73 6 -31 c6 -31 6 -31 8 7 0 22
6 37 14 38 21 0 193 87 175 88 -10 1 -53 -16 -95 -36 -64 -30 -89 -37 -138
-37 -33 1 -45 -1 -27 -3 17 -2 32 -7 32 -11 -1 -12 -166 -81 -186 -78 -11 2
-12 1 -4 -2 9 -2 -20 -20 -66 -42 l-81 -38 -89 19 c-49 11 -93 20 -98 22 -5 2
36 20 93 41 123 47 182 84 221 141 17 24 30 46 30 49 0 10 20 56 24 56 3 0 88
-14 188 -30z m128 -513 c0 -145 3 -304 6 -354 l7 -89 -38 -23 c-21 -12 -39
-21 -40 -19 -2 2 -5 164 -6 362 l-3 358 24 14 c51 28 50 32 50 -249z m-90
-132 c0 -195 -4 -355 -9 -355 -4 0 -22 5 -40 11 l-31 11 0 83 c0 83 0 84 30
102 28 16 30 22 30 75 0 56 -1 58 -32 66 l-33 8 -3 160 -2 159 37 17 c21 9 41
17 46 17 4 1 7 -159 7 -354z m-112 149 l-3 -156 -132 -63 -133 -64 0 162 0
162 128 57 c70 31 130 57 135 57 4 1 6 -69 5 -155z m-2103 102 c49 -11 50 -12
62 -61 7 -27 11 -50 10 -51 -11 -12 -207 98 -207 116 0 13 71 11 135 -4z m211
-83 c60 -31 154 -76 209 -99 l100 -43 8 -58 c4 -32 12 -76 18 -98 13 -51 30
-215 24 -225 -3 -5 -36 -14 -74 -21 -62 -11 -79 -10 -163 10 -51 11 -108 21
-127 21 l-34 0 7 50 c5 34 2 58 -7 77 -8 16 -17 57 -21 93 -3 36 -21 129 -39
208 -22 92 -30 142 -22 142 6 0 60 -26 121 -57z m1477 31 l27 -6 0 -410 c0
-387 -1 -410 -17 -403 -10 3 -30 9 -46 12 -15 3 -30 10 -33 15 -3 4 -2 188 2
408 6 360 9 400 23 396 9 -3 28 -8 44 -12z m115 -20 c10 -3 12 -84 10 -380
l-3 -376 -40 -23 -40 -24 0 409 0 409 30 -6 c17 -2 36 -6 43 -9z m-1180 -174
c22 0 22 0 22 -175 0 -96 -4 -175 -8 -175 -5 0 -16 6 -27 13 -14 11 -20 34
-26 98 -4 46 -10 93 -13 104 -2 11 -7 49 -10 84 -6 62 -5 63 17 57 12 -3 32
-6 45 -6z m102 -166 l0 -154 -32 -14 c-18 -7 -34 -13 -35 -12 -1 1 1 78 4 172
l6 170 28 -4 29 -4 0 -154z m251 140 c61 -19 116 -27 202 -31 99 -5 117 -8
117 -22 0 -9 -7 -59 -15 -111 -10 -66 -11 -98 -4 -107 11 -13 7 -103 -6 -158
-19 -76 -67 -88 -207 -50 -67 18 -112 25 -134 20 -32 -5 -34 -4 -34 21 0 15
-5 43 -11 64 -10 32 -8 48 14 113 27 79 52 196 44 204 -3 2 -11 -28 -18 -67
-7 -39 -15 -73 -19 -75 -4 -3 -10 26 -14 63 -4 37 -9 88 -13 115 -3 26 -2 47
4 47 5 0 47 -12 94 -26z m1179 -10 c0 -3 -309 -154 -317 -154 -2 0 -3 7 -1 17
6 32 318 167 318 137z m30 -49 l0 -35 -170 -85 c-93 -47 -172 -85 -175 -85 -3
0 -5 17 -5 39 l0 38 163 81 c89 44 168 81 175 81 7 1 12 -12 12 -34z m-1895
-300 c85 -22 162 -28 222 -17 60 11 63 8 63 -68 0 -45 -2 -49 -32 -60 -18 -6
-63 -15 -100 -20 -43 -5 -93 -20 -140 -43 -91 -43 -155 -57 -264 -57 -135 0
-189 35 -131 87 12 11 65 40 117 66 59 28 110 61 135 86 44 46 48 47 130 26z
m777 -146 c51 -16 85 -20 124 -16 l53 5 7 -36 c6 -32 4 -39 -27 -67 -19 -16
-50 -54 -68 -82 -27 -43 -45 -59 -99 -85 -62 -31 -73 -33 -172 -33 -85 0 -111
4 -133 18 -49 32 -38 62 70 180 29 32 62 76 73 98 19 36 24 39 61 39 23 0 72
-10 111 -21z"/>
<path d="M5320 4990 c-21 -8 -20 -9 12 -6 21 3 52 1 70 -4 21 -7 28 -6 21 1
-14 14 -74 19 -103 9z"/>
<path d="M5561 4893 c18 -21 38 -42 43 -48 5 -5 3 1 -4 15 -16 32 -51 70 -64
70 -5 0 6 -17 25 -37z"/>
<path d="M5380 4881 c-19 -20 -46 -44 -60 -54 -25 -17 -25 -17 6 -3 34 17 94
72 94 87 0 12 1 12 -40 -30z"/>
<path d="M5533 4847 c12 -24 23 -40 25 -36 4 10 -25 66 -38 74 -5 3 0 -14 13
-38z"/>
<path d="M5023 4812 c-31 -26 -73 -88 -73 -106 0 -6 13 10 28 35 16 24 43 57
61 72 18 15 29 27 24 27 -4 0 -22 -13 -40 -28z"/>
<path d="M4998 4733 c-22 -26 -44 -73 -51 -110 -9 -47 0 -40 13 10 6 23 22 59
36 80 26 40 27 48 2 20z"/>
<path d="M5430 4669 c0 -20 37 -69 52 -69 7 0 2 10 -9 23 -11 12 -25 31 -31
42 -9 16 -11 17 -12 4z"/>
<path d="M5605 4546 c-19 -45 -19 -53 1 -64 13 -7 14 -13 5 -30 -6 -12 -7 -23
-2 -26 16 -10 23 50 10 72 -10 16 -10 26 -1 47 11 24 15 25 29 14 14 -12 16
-12 11 1 -10 30 -38 23 -53 -14z"/>
<path d="M5283 4470 c-49 -10 -83 -27 -83 -40 0 -13 0 -13 50 5 23 8 64 15 91
15 27 0 49 5 49 10 0 6 -6 10 -12 10 -7 0 -22 2 -33 4 -11 2 -39 0 -62 -4z"/>
<path d="M5275 4390 c-11 -5 -14 -9 -7 -9 7 -1 21 -8 30 -17 14 -15 17 -15 27
0 7 8 23 20 36 25 21 8 18 10 -21 10 -25 0 -54 -4 -65 -9z"/>
<path d="M5255 4125 l-60 -13 50 0 c28 0 66 6 85 13 30 11 31 13 10 13 -14 0
-52 -6 -85 -13z"/>
<path d="M5248 4068 c16 -8 28 -8 45 0 19 9 17 11 -23 11 -40 0 -42 -2 -22
-11z"/>
<path d="M5560 4000 c-6 -23 -16 -54 -21 -69 -7 -16 -7 -22 -1 -16 12 12 44
117 38 123 -3 2 -10 -15 -16 -38z"/>
<path d="M5712 3468 c2 -13 10 -23 18 -23 8 0 16 10 18 23 3 17 -2 22 -18 22
-16 0 -21 -5 -18 -22z m28 2 c0 -5 -4 -10 -10 -10 -5 0 -10 5 -10 10 0 6 5 10
10 10 6 0 10 -4 10 -10z"/>
<path d="M6125 3918 c-69 -80 -137 -246 -134 -328 1 -29 4 -24 13 25 26 126
74 232 138 301 22 24 36 44 30 44 -6 0 -27 -19 -47 -42z"/>
<path d="M5921 3545 c-1 -46 11 -97 41 -173 30 -77 31 -58 2 33 -15 44 -30
103 -34 130 -7 50 -8 50 -9 10z"/>
<path d="M5750 2760 c14 -4 36 -8 50 -9 20 -1 22 1 10 9 -8 5 -31 9 -50 9 -32
-1 -33 -2 -10 -9z"/>
<path d="M4075 3415 l-30 -15 35 8 c19 4 60 7 92 7 31 0 51 3 45 7 -20 13
-110 8 -142 -7z"/>
<path d="M4802 2984 c10 -10 20 -15 24 -12 3 4 -5 12 -18 18 -22 12 -22 12 -6
-6z"/>
<path d="M4735 2940 c10 -11 20 -20 22 -20 2 0 -1 9 -7 20 -6 11 -16 20 -22
20 -6 0 -3 -9 7 -20z"/>
<path d="M4656 2907 c3 -10 9 -15 12 -12 3 3 0 11 -7 18 -10 9 -11 8 -5 -6z"/>
<path d="M5410 2893 c-58 -24 -220 -119 -220 -129 0 -7 39 15 88 48 81 56 172
91 234 92 134 2 89 -70 -87 -139 -99 -39 -165 -73 -165 -87 0 -6 8 -4 19 6 10
9 71 39 135 66 173 72 219 116 164 154 -33 23 -94 19 -168 -11z"/>
<path d="M5000 2675 c-14 -8 -20 -14 -15 -14 6 0 21 6 35 14 14 8 21 14 15 14
-5 0 -21 -6 -35 -14z"/>
<path d="M4913 2636 c-68 -39 -123 -87 -164 -145 -92 -128 -48 -182 103 -129
121 41 216 103 302 196 77 84 60 77 -25 -9 -74 -76 -97 -93 -189 -137 -106
-51 -172 -69 -210 -57 -68 22 43 185 184 269 66 40 65 50 -1 12z"/>
<path d="M6000 2428 c-14 -6 -61 -16 -105 -23 -62 -10 -71 -13 -38 -14 54 -1
136 16 159 34 22 17 18 18 -16 3z"/>
<path d="M4670 2156 c44 -47 140 -94 205 -101 36 -4 44 -3 30 4 -11 5 -31 10
-45 10 -35 1 -139 52 -186 92 l-39 33 35 -38z"/>
<path d="M5226 2161 c-15 -10 -83 -75 -150 -143 -93 -95 -137 -132 -186 -157
-39 -20 -53 -30 -35 -26 62 14 124 62 261 201 77 79 140 144 140 144 -1 0 -14
-9 -30 -19z"/>
<path d="M4480 2158 c0 -17 92 -215 131 -282 48 -81 116 -172 150 -201 13 -11
0 9 -28 45 -70 89 -126 184 -194 325 -32 66 -59 117 -59 113z"/>
<path d="M4230 2000 c0 -62 2 -111 4 -109 7 7 9 209 2 216 -3 4 -6 -45 -6
-107z"/>
<path d="M5177 1983 c-3 -10 -29 -98 -57 -196 -28 -97 -59 -200 -70 -227 -22
-56 -18 -70 4 -16 44 106 142 443 132 454 -2 2 -7 -5 -9 -15z"/>
<path d="M5628 1925 c15 -35 28 -60 30 -55 4 11 -44 120 -52 120 -3 0 7 -29
22 -65z"/>
<path d="M5492 1915 c-2 -63 41 -304 60 -335 7 -12 8 -10 4 5 -8 31 -54 296
-59 335 l-4 35 -1 -40z"/>
<path d="M6195 2475 c9 -56 33 -156 38 -161 10 -11 -6 82 -24 136 -10 30 -17
42 -14 25z"/>
<path d="M5120 2210 c0 -5 5 -10 10 -10 6 0 10 5 10 10 0 6 -4 10 -10 10 -5 0
-10 -4 -10 -10z"/>
<path d="M5873 1833 c20 -2 54 -2 75 0 20 2 3 4 -38 4 -41 0 -58 -2 -37 -4z"/>
<path d="M6313 1883 c9 -2 23 -2 30 0 6 3 -1 5 -18 5 -16 0 -22 -2 -12 -5z"/>
<path d="M6077 1673 c-11 -10 -8 -93 3 -93 6 0 10 23 10 50 0 51 -1 55 -13 43z"/>
<path d="M4591 1378 c27 -52 89 -135 125 -168 l38 -35 -37 42 c-20 24 -58 74
-83 113 -47 69 -66 91 -43 48z"/>
<path d="M4555 1106 c39 -13 84 -29 100 -37 30 -13 29 -13 -35 -19 l-65 -7 79
-1 c67 -2 77 0 67 12 -18 21 -155 76 -188 76 -19 -1 -7 -8 42 -24z"/>
<path d="M5365 1205 c9 -45 58 -145 89 -182 45 -53 50 -38 7 20 -40 54 -63 96
-87 156 -13 32 -14 33 -9 6z"/>
<path d="M5215 984 c11 -2 43 -9 70 -14 28 -6 68 -22 90 -36 l40 -25 -65 5
c-43 4 -58 2 -45 -4 11 -5 46 -9 79 -9 70 -1 66 10 -20 54 -38 19 -75 29 -113
31 -31 2 -47 1 -36 -2z"/>
<path d="M4420 870 c8 -5 20 -10 25 -10 6 0 3 5 -5 10 -8 5 -19 10 -25 10 -5
0 -3 -5 5 -10z"/>
<path d="M5181 726 c2 -2 22 -6 44 -9 28 -5 34 -4 20 3 -19 8 -73 14 -64 6z"/>
<path d="M5131 686 c2 -2 33 -6 69 -9 40 -4 57 -2 45 3 -19 8 -123 14 -114 6z"/>
<path d="M4982 3920 c0 -19 2 -27 5 -17 2 9 2 25 0 35 -3 9 -5 1 -5 -18z"/>
<path d="M4951 3809 c-1 -43 35 -259 45 -268 4 -3 4 8 1 24 -3 17 -11 68 -17
115 -7 47 -16 103 -20 125 l-8 40 -1 -36z"/>
<path d="M4880 3677 c0 -13 50 -108 87 -164 35 -51 54 -71 34 -35 -33 60 -121
206 -121 199z"/>
<path d="M3345 2956 c115 -16 322 -39 545 -61 85 -8 193 -20 240 -25 134 -15
266 -23 259 -16 -4 4 -49 11 -100 17 -583 61 -879 90 -954 94 l-90 4 100 -13z"/>
<path d="M3595 2848 c-11 -6 -33 -23 -50 -39 -16 -15 -47 -35 -67 -44 -21 -8
-47 -28 -59 -44 -12 -16 -68 -57 -125 -91 -160 -95 -145 -104 40 -23 54 24
112 43 127 43 16 0 50 11 76 24 27 14 68 30 92 36 80 21 116 85 71 130 -22 22
-73 26 -105 8z m99 -31 c21 -33 -12 -70 -79 -90 -33 -10 -72 -25 -86 -32 -25
-14 -27 -13 -40 13 -7 15 -15 30 -17 33 -1 4 7 9 20 13 13 3 39 19 58 36 19
18 44 35 55 40 30 14 77 7 89 -13z m-216 -124 c5 -32 -20 -29 -35 3 -11 23
-10 25 10 22 14 -2 23 -11 25 -25z m-45 -22 c-12 -11 -139 -64 -130 -55 17 17
123 71 130 67 5 -3 5 -8 0 -12z"/>
<path d="M3825 2804 c-9 -9 -15 -26 -13 -37 3 -23 20 -31 163 -71 50 -14 82
-25 73 -25 -45 -2 -48 -102 -3 -123 19 -9 30 -6 59 11 21 13 60 25 93 28 108
11 152 48 153 128 0 72 -29 100 -48 46 -8 -23 -20 -33 -53 -42 -40 -12 -49
-11 -208 44 -91 32 -174 57 -183 57 -9 0 -24 -7 -33 -16z m188 -49 c73 -25
139 -48 147 -51 11 -4 8 -9 -12 -20 -23 -12 -32 -12 -69 1 -23 9 -85 27 -138
41 -105 28 -117 35 -108 58 10 24 37 20 180 -29z m301 -30 c-10 -24 -156 -85
-204 -85 -23 1 112 59 136 60 12 0 32 9 45 20 29 24 30 24 23 5z m26 -15 c0
-22 -31 -70 -51 -81 -16 -8 -20 -8 -14 0 4 7 2 18 -5 26 -9 10 -5 17 19 31 17
10 31 22 31 26 0 4 5 8 10 8 6 0 10 -5 10 -10z m-114 -80 c1 -29 0 -30 -46
-30 -25 0 -55 -7 -66 -15 -26 -20 -29 -19 -32 12 -1 15 -7 32 -13 38 -7 7 -8
2 -4 -17 4 -16 4 -35 1 -44 -10 -25 -36 2 -36 36 0 32 35 47 60 26 12 -11 25
-11 75 4 33 10 60 18 60 19 0 0 0 -13 1 -29z m34 10 c0 -5 -7 -10 -16 -10 -8
0 -12 5 -9 10 3 6 10 10 16 10 5 0 9 -4 9 -10z"/>
<path d="M4505 2604 c-125 -36 -374 -106 -460 -129 -366 -99 -850 -236 -857
-243 -13 -13 107 16 383 94 48 13 111 30 140 38 30 8 153 42 274 76 121 34
234 66 250 70 93 24 392 114 405 121 30 17 -13 8 -135 -27z"/>
<path d="M3795 2614 c-27 -8 -66 -16 -85 -18 -36 -3 -196 -45 -283 -72 -36
-12 -49 -22 -53 -41 -17 -64 51 -87 159 -55 118 34 331 143 355 180 14 21 13
22 -14 21 -16 0 -51 -7 -79 -15z m56 -23 c-13 -10 -39 -23 -58 -30 -30 -11
-37 -11 -51 3 -13 13 -13 16 -1 20 37 13 86 24 109 25 l25 1 -24 -19z m-135
-25 c10 -8 17 -16 14 -19 -3 -3 -50 -22 -105 -42 -70 -26 -117 -38 -157 -39
-43 -1 -52 -3 -35 -9 37 -14 106 1 235 52 58 23 78 27 47 9 -48 -28 -194 -79
-242 -85 -57 -6 -83 5 -83 38 0 24 12 29 170 73 150 42 132 39 156 22z"/>
<path d="M3583 1663 c-45 -69 -75 -90 -194 -139 -101 -42 -123 -65 -117 -119
2 -19 0 -35 -5 -35 -18 0 -36 -35 -37 -67 0 -37 24 -57 92 -78 l43 -13 -60
-17 c-72 -21 -116 -42 -132 -64 -17 -24 -24 -70 -13 -90 16 -31 104 -62 194
-68 l83 -6 -13 -42 c-11 -37 -10 -46 3 -65 51 -72 318 -99 449 -44 21 9 69 36
106 60 53 34 74 42 96 38 31 -6 128 32 150 59 35 41 15 295 -25 325 -9 6 -40
12 -69 12 -59 0 -64 7 -64 96 0 60 -12 73 -69 81 l-40 6 0 52 c1 29 -4 77 -11
109 -14 70 -30 76 -148 53 -75 -14 -87 -15 -106 -2 -43 30 -71 20 -113 -42z
m98 27 c10 -6 19 -15 19 -21 0 -6 -30 -40 -66 -76 -56 -56 -70 -64 -95 -61
-33 5 -40 -7 -9 -17 27 -9 69 16 118 69 l42 46 73 0 c50 0 85 6 116 20 24 11
46 18 48 16 3 -2 7 -38 10 -79 5 -71 4 -76 -18 -90 -13 -8 -42 -18 -64 -22
-22 -3 -101 -27 -175 -52 -127 -42 -139 -45 -225 -41 -99 4 -168 28 -163 57 3
17 19 25 153 86 102 46 136 72 166 129 25 47 36 53 70 36z m233 1 c9 -14 -98
-43 -146 -39 -63 4 -53 21 22 34 84 15 118 16 124 5z m17 -225 c-7 -8 -47 -22
-89 -31 -42 -9 -124 -33 -182 -53 -90 -32 -117 -37 -190 -37 -86 1 -150 15
-169 39 -7 9 8 6 47 -7 87 -30 209 -20 327 25 50 19 122 43 160 52 39 9 77 21
85 26 20 12 26 4 11 -14z m100 -6 c26 -15 26 -60 0 -53 -11 3 -54 -2 -96 -11
-84 -17 -227 -22 -187 -6 12 5 52 15 87 21 36 6 79 21 98 34 35 26 68 30 98
15z m3 -79 c3 -5 -18 -19 -47 -32 -71 -32 -216 -39 -282 -14 -25 10 -43 20
-41 23 3 2 51 4 108 3 59 0 127 5 158 13 67 17 97 19 104 7z m-698 -38 c26
-11 69 -17 131 -17 51 -1 93 -2 93 -3 0 -2 -18 -15 -40 -30 -41 -26 -41 -26
-123 -14 -78 12 -137 33 -137 49 0 10 22 32 31 32 4 0 24 -7 45 -17z m718 -9
c9 -34 4 -38 -69 -62 -52 -18 -66 -19 -104 -9 l-44 12 -36 -43 c-36 -41 -40
-43 -102 -47 -35 -2 -82 -6 -104 -10 -32 -5 -45 -3 -65 13 -21 17 -23 24 -15
48 6 15 34 47 63 71 l53 43 42 -22 c83 -43 306 -32 347 17 18 22 27 19 34 -11z
m-644 -74 c42 -1 44 -2 25 -16 -33 -25 -175 6 -175 39 0 11 10 11 53 -4 28
-10 72 -19 97 -19z m779 21 c18 -12 44 -173 32 -203 -13 -33 -28 -44 -107 -74
-37 -14 -81 -33 -96 -42 -26 -15 -29 -15 -51 6 -13 12 -44 29 -70 38 -26 9
-47 20 -47 26 0 5 21 38 46 74 l46 64 67 0 c84 0 174 40 179 79 4 24 4 24 -26
-5 -34 -35 -90 -54 -154 -54 -37 0 -47 4 -55 23 -11 23 -9 25 75 50 92 27 138
32 161 18z m-687 -59 c-2 -19 3 -33 17 -46 20 -18 29 -19 114 -9 50 5 98 7
105 3 9 -4 -9 -25 -53 -62 -60 -50 -73 -57 -141 -68 -79 -14 -221 -9 -286 10
-20 6 -47 19 -60 30 l-23 20 27 24 c15 14 65 36 110 50 46 14 104 36 128 50
59 32 67 32 62 -2z m398 8 c22 -11 40 -22 40 -25 0 -3 -25 -39 -55 -82 -67
-93 -68 -112 -5 -133 56 -19 90 -38 90 -50 0 -19 -106 -70 -179 -86 -111 -25
-282 -4 -331 41 -33 30 -8 58 96 105 101 46 202 127 258 209 16 23 33 41 38
41 5 0 27 -9 48 -20z m-487 -215 c110 0 116 -1 85 -14 -71 -29 -294 5 -318 49
-8 15 -1 14 53 -8 54 -23 76 -26 180 -27z m803 -20 c-5 -14 -61 -46 -103 -59
-17 -6 -23 -3 -23 8 0 9 -2 16 -5 16 -7 0 -79 -41 -95 -55 -31 -26 -108 -65
-156 -80 -57 -17 -220 -20 -279 -5 -56 15 -115 41 -115 52 0 5 12 2 28 -5 85
-44 274 -53 374 -19 31 10 89 39 129 63 83 50 242 119 247 107 2 -5 1 -15 -2
-23z"/>
</g>
</svg>
