<?xml version="1.0" standalone="no"?>
<!DOCTYPE svg PUBLIC "-//W3C//DTD SVG 20010904//EN"
 "http://www.w3.org/TR/2001/REC-SVG-20010904/DTD/svg10.dtd">
<svg version="1.0" xmlns="http://www.w3.org/2000/svg"
 width="1024.000000pt" height="559.000000pt" viewBox="0 0 1024.000000 559.000000"
 preserveAspectRatio="xMidYMid meet">
<metadata>
Created by potrace 1.16, written by Peter Selinger 2001-2019
</metadata>
<g transform="translate(0.000000,559.000000) scale(0.100000,-0.100000)"
fill="#000000" stroke="none">
<path d="M4455 5080 c-3 -5 -23 -10 -43 -10 -42 0 -129 -38 -153 -66 -9 -10
-33 -50 -54 -89 -34 -63 -37 -75 -32 -125 2 -30 16 -84 31 -119 14 -36 26 -82
26 -104 0 -44 24 -86 77 -132 l34 -31 -123 -84 c-68 -46 -142 -101 -164 -122
-53 -49 -88 -127 -118 -265 -13 -59 -43 -174 -65 -254 -56 -200 -54 -235 20
-359 50 -84 95 -103 216 -91 56 6 70 12 93 37 l26 30 13 -25 c29 -60 29 -66 5
-120 -28 -61 -71 -220 -80 -297 -4 -30 -12 -54 -18 -54 -16 0 -272 48 -329 61
-38 9 -65 8 -141 -7 -129 -24 -131 -22 -99 65 30 83 26 113 -20 141 -62 38
-162 15 -188 -43 -9 -19 -6 -37 16 -91 20 -51 24 -73 18 -94 -9 -24 -17 -28
-84 -41 -98 -17 -152 -31 -146 -37 2 -3 52 4 109 14 l105 19 11 -45 c7 -32 7
-52 -1 -69 -8 -18 -7 -27 8 -43 14 -16 31 -20 80 -20 76 0 104 21 88 67 -7 18
-7 37 -1 53 5 14 7 39 4 57 -5 37 -8 36 109 53 79 12 84 12 335 -38 140 -27
355 -69 478 -93 122 -24 222 -46 222 -50 0 -4 -17 -14 -38 -22 -35 -14 -770
-205 -883 -229 -40 -9 -67 -5 -215 32 -463 114 -429 106 -420 91 3 -5 139 -41
301 -81 l296 -72 122 31 c111 29 627 162 687 177 22 6 19 2 -15 -29 -23 -19
-49 -51 -60 -70 -15 -29 -31 -40 -99 -65 -45 -17 -135 -45 -201 -62 -66 -17
-185 -50 -265 -72 -95 -26 -159 -38 -185 -36 -22 3 -156 34 -298 71 -258 67
-300 75 -282 58 10 -9 351 -102 427 -116 41 -8 48 -22 48 -97 0 -32 -4 -48
-13 -48 -7 0 -66 14 -132 30 -118 30 -307 70 -328 70 -8 0 -8 -3 -1 -10 6 -6
89 -28 185 -50 96 -21 181 -41 189 -44 8 -3 34 -10 57 -16 l43 -11 2 -631 3
-632 58 -25 c50 -21 62 -23 95 -13 20 7 52 21 70 32 l32 20 0 708 0 709 97 26
c53 15 98 25 99 24 1 -1 -7 -74 -17 -162 -10 -88 -22 -188 -25 -221 l-7 -62
40 -22 39 -23 -7 -56 c-15 -120 -12 -152 21 -186 31 -32 31 -31 29 -185 0 -19
2 -56 5 -81 l5 -47 -73 -70 c-76 -73 -94 -108 -76 -143 16 -29 51 -39 133 -39
86 0 140 22 204 81 24 22 48 37 54 33 7 -4 9 -25 5 -57 -3 -29 -1 -56 5 -63
17 -20 -50 -73 -169 -134 -78 -40 -111 -62 -120 -83 -27 -57 14 -92 123 -102
110 -10 212 7 313 53 61 28 111 43 166 50 106 13 131 33 130 98 0 27 -2 60 -5
74 -4 23 0 25 41 30 25 4 60 14 77 23 l33 17 2 163 3 162 51 3 51 3 13 -130
c10 -101 10 -141 1 -177 -13 -51 -5 -180 12 -202 12 -16 -19 -64 -102 -155
-68 -75 -84 -106 -75 -142 9 -35 43 -53 117 -63 87 -11 197 2 256 33 49 24
100 74 125 123 8 15 27 37 44 49 27 20 29 27 35 105 3 46 13 104 22 131 14 40
15 58 6 108 -7 42 -7 86 0 142 14 116 12 113 69 120 28 3 54 9 59 12 5 3 12
68 16 145 8 158 1 148 95 126 l55 -13 -4 -411 -4 -412 39 -16 c71 -30 104 -29
156 5 l47 30 3 137 3 138 125 62 c69 35 131 63 138 63 8 1 12 -21 12 -78 0
-87 2 -91 68 -110 40 -11 46 -10 95 16 l52 28 -4 372 -3 372 47 22 47 22 -4
74 c-3 41 -9 78 -15 84 -9 9 -195 48 -303 63 l-45 6 -1 148 c-1 124 -5 161
-26 240 l-26 94 37 33 c20 18 50 44 68 59 19 16 38 45 47 74 8 26 21 65 30 87
21 55 20 138 -4 313 -56 410 -97 565 -176 669 -13 17 -54 51 -91 76 -94 62
-295 167 -320 167 -30 0 -65 98 -44 123 21 26 78 203 90 281 22 134 -11 244
-84 287 -19 11 -37 29 -40 38 -9 30 -44 55 -78 57 -18 2 -52 8 -77 14 -92 23
-228 -12 -348 -90 -47 -31 -68 -60 -43 -60 5 0 -4 -24 -20 -52 -35 -64 -38
-126 -9 -181 11 -20 20 -51 20 -68 l0 -31 -61 56 c-81 75 -120 93 -243 112
l-104 17 -6 51 c-4 28 -11 110 -15 181 -13 190 -48 276 -124 305 -18 7 -53 21
-79 31 -50 20 -133 25 -143 9z m172 -49 c45 -32 58 -38 48 -21 -13 21 12 9 37
-17 32 -34 41 -65 33 -103 -9 -41 -26 -38 -19 3 4 24 3 28 -5 17 -6 -8 -11
-22 -11 -31 0 -8 -6 -23 -13 -32 -10 -15 -12 -11 -9 27 2 24 -1 52 -6 62 -7
13 -9 6 -5 -27 4 -34 0 -56 -15 -85 l-21 -39 -1 48 c0 62 -43 147 -73 147 -6
0 1 -12 15 -27 37 -40 48 -66 48 -112 0 -80 -31 -96 -65 -33 -26 48 -92 83
-155 81 l-45 -2 50 -7 c68 -9 97 -23 128 -60 46 -54 30 -68 -27 -25 -21 16
-51 27 -82 30 l-49 4 43 -9 c24 -5 58 -18 75 -29 l32 -21 -46 0 c-53 0 -117
20 -159 50 -15 11 -34 20 -42 19 -10 0 -10 -2 0 -6 7 -3 38 -20 69 -39 68 -41
43 -47 -39 -9 -55 26 -93 32 -102 16 -4 -5 3 -7 14 -4 12 3 49 -7 85 -23 55
-25 63 -32 58 -51 -3 -13 0 -37 6 -55 8 -21 8 -35 1 -42 -5 -5 -10 -30 -11
-55 l0 -46 -17 25 c-29 43 -51 60 -76 60 -19 0 -28 10 -44 48 -52 122 -53 162
-6 250 59 112 115 145 232 140 63 -3 70 -1 55 11 -16 12 -13 13 26 8 27 -3 62
-18 88 -36z m147 -173 c3 -13 5 -34 5 -48 -1 -24 -1 -24 -14 5 -16 35 -19 65
-6 65 5 0 11 -10 15 -22z m-24 -60 c29 -67 35 -108 16 -108 -22 0 -86 -59 -65
-60 9 0 22 6 28 14 21 25 49 26 55 2 25 -89 13 -275 -22 -346 -21 -42 -75 -61
-137 -48 -70 14 -166 78 -204 133 -27 41 -38 49 -58 47 -44 -5 -117 83 -111
135 5 42 26 39 72 -11 24 -25 48 -46 54 -46 6 0 11 21 11 48 1 26 2 79 4 117
l2 70 115 5 c113 5 117 6 158 38 23 19 42 38 42 43 0 24 23 4 40 -33z m935
-38 c27 -14 41 -16 46 -8 4 7 15 -2 29 -23 13 -19 37 -43 54 -54 51 -33 76
-95 76 -190 0 -44 -3 -97 -6 -118 l-7 -38 -18 31 c-32 52 -86 37 -115 -32
l-17 -43 -11 47 c-6 25 -21 57 -32 70 -34 37 -46 68 -47 120 l-1 48 -30 -29
c-17 -16 -41 -34 -53 -40 l-23 -12 22 37 22 37 -45 -32 c-44 -32 -102 -61
-122 -61 -6 0 1 13 16 28 15 15 27 31 27 34 0 4 -30 -7 -66 -23 -36 -17 -68
-28 -71 -26 -2 3 11 22 29 42 l32 37 -51 -25 c-53 -27 -92 -68 -94 -96 -1 -28
-18 21 -18 55 -1 38 19 87 53 133 17 23 22 37 15 42 -22 13 154 96 241 113 43
8 123 -4 165 -24z m-60 -283 c3 -21 20 -53 38 -74 22 -25 33 -49 37 -82 6 -56
27 -61 51 -14 26 51 40 64 68 61 24 -3 26 -6 26 -54 -1 -69 -44 -138 -81 -131
-28 5 -33 -13 -5 -20 14 -3 21 -18 26 -51 9 -62 30 -111 62 -144 22 -23 25
-31 16 -51 -32 -69 -112 -130 -221 -167 l-76 -26 -30 -84 -31 -85 -7 40 c-4
22 -10 61 -13 86 -4 35 -15 56 -40 82 -34 35 -43 66 -29 101 10 26 34 18 41
-14 9 -49 27 -50 20 -2 -4 34 -2 42 10 42 30 0 107 45 160 94 59 53 83 92 82
128 0 19 -3 17 -16 -12 -20 -47 -76 -104 -147 -151 -49 -33 -68 -39 -110 -39
-29 0 -61 6 -73 15 -38 27 -109 218 -114 310 -3 53 6 66 27 39 11 -13 17 -15
20 -6 3 6 13 12 21 12 12 0 14 -7 7 -37 -13 -62 -11 -115 6 -125 17 -11 100 7
100 22 0 5 -14 5 -32 -1 -66 -19 -72 -15 -65 44 14 110 16 141 11 125 -6 -21
-9 -21 -36 -7 -14 8 -27 8 -43 1 -20 -9 -24 -8 -28 15 -5 25 -3 25 40 20 30
-3 43 -1 40 7 -2 6 -23 12 -46 14 l-43 3 4 54 c3 34 12 62 23 75 21 23 35 19
15 -5 -21 -26 -2 -30 48 -12 29 11 42 13 34 5 -6 -6 -12 -16 -12 -21 0 -15 81
2 119 24 27 16 32 17 28 4 -12 -30 63 -6 93 30 8 10 15 13 16 9 1 -5 5 -26 9
-47z m-674 -16 c85 -12 124 -32 219 -117 l79 -69 0 -52 c1 -28 12 -83 26 -121
14 -38 25 -74 25 -80 0 -6 -15 -12 -32 -14 -27 -2 -35 -9 -44 -37 -9 -28 -20
-37 -69 -57 -32 -13 -60 -22 -62 -20 -3 2 27 46 66 97 63 83 83 119 65 119 -3
0 -35 -28 -70 -62 -50 -48 -64 -57 -64 -41 0 11 7 34 16 52 9 18 18 51 20 74
3 34 1 29 -13 -23 l-17 -65 -8 80 c-12 130 -15 127 -14 -15 l1 -136 -53 -61
c-30 -34 -68 -66 -84 -72 -39 -14 -98 -14 -98 -1 0 6 -12 15 -27 21 -23 9 -36
7 -68 -9 -43 -22 -159 -52 -198 -52 -13 0 -74 -25 -136 -55 -62 -30 -117 -55
-122 -55 -7 0 -8 12 -4 30 4 16 3 40 -1 52 -6 19 -10 11 -18 -37 -10 -52 -15
-61 -38 -69 -22 -8 -36 -5 -67 12 -51 29 -132 29 -181 1 -19 -11 -26 -17 -15
-13 60 20 98 26 132 19 l38 -8 -51 -12 c-127 -30 -204 -118 -204 -233 0 -28
-3 -33 -12 -24 -25 25 -13 133 34 302 26 91 54 203 64 250 9 47 31 111 47 143
33 64 57 86 221 201 83 59 107 72 103 56 -9 -35 11 -85 54 -134 49 -55 81 -74
169 -96 l65 -16 42 -75 c23 -40 47 -75 53 -77 6 -2 10 32 10 96 0 88 2 101 21
118 36 32 50 72 53 152 2 42 7 94 11 115 7 35 9 37 39 32 17 -3 61 -9 97 -14z
m-419 -190 c101 -52 154 -57 212 -23 47 28 49 7 4 -44 -30 -34 -33 -45 -38
-118 l-5 -80 -20 40 c-41 81 -53 92 -103 100 -95 14 -172 66 -212 145 -24 46
-25 68 -5 75 8 4 15 15 15 26 0 14 9 6 33 -28 26 -41 47 -57 119 -93z m1286
-107 c-7 -15 -14 -21 -16 -15 -2 7 2 18 8 26 18 22 21 18 8 -11z m-738 -254
c-65 -89 -122 -170 -125 -180 -4 -11 -11 -18 -16 -14 -6 3 -4 15 6 30 9 14 15
30 13 37 -3 18 12 57 22 57 5 0 7 -7 4 -15 -4 -8 -2 -15 4 -15 15 0 24 32 12
40 -9 5 182 220 196 220 2 0 -50 -72 -116 -160z m240 76 c0 -8 -11 -17 -24
-20 -13 -3 -31 -9 -40 -12 -19 -7 -22 16 -4 34 17 17 68 15 68 -2z m659 -62
c153 -83 223 -127 259 -164 72 -72 119 -215 161 -485 54 -346 60 -450 31 -505
-12 -22 -13 -21 -30 17 -23 51 -80 106 -143 138 -40 19 -66 25 -120 25 -64 0
-68 1 -56 17 8 9 37 27 64 39 28 13 45 23 39 23 -18 1 -87 -29 -106 -46 -30
-27 -45 25 -51 187 -3 80 -11 159 -16 175 -8 23 -10 7 -6 -70 4 -71 3 -96 -5
-85 -15 22 -40 112 -56 199 l-13 76 5 -69 c6 -76 26 -152 55 -208 12 -24 19
-59 19 -100 1 -35 7 -81 15 -103 13 -36 13 -43 -3 -74 -9 -19 -27 -44 -39 -57
-14 -14 -23 -36 -23 -56 -1 -29 -10 -40 -83 -94 -45 -34 -96 -69 -114 -78 -62
-31 -186 -14 -330 44 -53 22 -100 40 -103 40 -3 -1 20 -14 50 -31 l55 -30 -67
4 c-130 9 -190 68 -169 167 16 73 14 145 -9 315 -11 83 -23 209 -27 280 -5
100 -9 122 -15 95 -11 -45 -2 -193 24 -398 11 -90 18 -166 15 -168 -3 -3 -16
6 -30 20 -48 48 -104 69 -174 64 -65 -4 -74 0 -48 22 9 7 15 29 15 54 0 22 9
64 19 92 11 27 29 113 41 190 24 162 44 243 71 296 17 33 23 37 44 32 l25 -6
-16 37 c-8 20 -13 39 -11 41 2 3 10 -9 17 -26 7 -16 17 -30 22 -30 15 0 22 30
9 43 -8 8 -11 7 -11 -3 0 -8 -9 -1 -20 15 -11 17 -20 24 -20 17 0 -7 -4 -10
-10 -7 -14 9 -12 -1 6 -36 8 -17 13 -33 11 -35 -6 -6 -47 63 -47 79 0 7 26 25
58 41 31 17 87 49 124 72 52 34 69 40 77 30 6 -7 8 -16 5 -19 -4 -4 -1 -20 6
-37 16 -38 25 -33 10 5 -9 25 -9 27 5 15 18 -15 17 -51 -1 -57 -7 -2 -17 11
-23 28 -6 18 -14 30 -17 27 -4 -5 20 -63 32 -77 2 -2 10 1 17 8 12 9 15 4 20
-26 4 -20 19 -50 35 -67 25 -26 32 -45 42 -114 13 -94 18 -112 32 -112 9 0 13
8 59 127 23 62 24 63 79 79 30 9 70 24 90 34 88 45 185 165 158 197 -18 22 2
15 91 -33z m-724 2 c-22 -15 -153 -84 -198 -103 -25 -11 -27 -11 -17 7 13 25
20 29 125 71 98 40 120 46 90 25z m-430 -96 c18 -17 28 -18 73 -11 36 6 52 5
49 -3 -2 -5 -21 -12 -43 -14 -21 -2 -47 -8 -56 -13 -13 -7 -18 -6 -18 4 0 17
-29 43 -55 50 -17 4 -16 5 4 6 14 0 34 -8 46 -19z m-18 -27 c3 -9 -9 -11 -49
-6 -60 7 -60 -4 1 -18 67 -15 150 -60 181 -98 48 -57 33 -86 -19 -38 -33 30
-121 81 -121 70 0 -5 20 -26 45 -46 43 -36 57 -69 35 -82 -6 -4 -29 10 -52 29
-51 44 -64 38 -19 -8 48 -50 22 -78 -32 -36 -39 31 -44 24 -9 -13 48 -50 19
-64 -53 -27 -22 11 -53 20 -70 20 -17 0 -48 9 -70 20 -22 11 -53 20 -70 19
-26 0 -27 -2 -10 -9 11 -5 15 -9 9 -9 -5 -1 -62 -46 -125 -101 -69 -61 -141
-114 -183 -135 -66 -34 -70 -35 -89 -18 -53 48 -64 155 -24 233 21 43 25 46
142 90 66 25 153 63 193 85 120 63 377 114 389 78z m253 -114 c-29 -55 -61
-188 -79 -332 -5 -43 -14 -84 -21 -92 -13 -16 -94 -45 -124 -45 -17 0 -14 6
19 42 l40 41 -50 -41 c-70 -57 -111 -72 -200 -72 -77 0 -133 19 -207 71 -14
11 -30 19 -35 19 -4 0 14 -16 41 -35 l50 -35 -56 0 c-64 0 -133 22 -165 52
-31 29 -30 71 3 93 14 9 66 52 116 97 132 116 130 115 186 95 26 -8 65 -18 86
-22 22 -4 49 -13 60 -21 29 -20 73 -18 85 5 7 13 18 17 35 14 34 -7 65 13 82
53 8 19 19 32 23 29 14 -8 41 6 41 21 0 7 -7 29 -16 48 -16 33 -16 36 6 70 12
20 34 43 48 50 26 14 28 13 44 -19 17 -32 17 -34 -12 -86z m-120 88 c0 -7 -6
-21 -12 -30 -12 -15 -15 -15 -46 5 -25 15 -30 23 -20 29 21 14 78 11 78 -4z
m-770 -132 c0 -2 -20 -13 -44 -23 -59 -27 -86 -82 -86 -178 0 -76 19 -120 64
-149 22 -15 27 -15 62 0 46 19 51 15 20 -14 -57 -54 -155 -31 -195 46 -11 21
-20 31 -21 23 0 -21 37 -79 55 -86 27 -11 16 -27 -12 -19 -73 17 -113 79 -113
173 0 95 59 189 135 216 17 6 16 3 -6 -21 -34 -36 -59 -86 -58 -115 1 -22 1
-22 8 2 21 67 52 106 106 134 28 15 85 22 85 11z m750 -43 c0 -24 -36 -62 -58
-61 -12 0 -10 3 6 10 13 5 29 22 35 39 13 35 17 37 17 12z m30 -384 c-1 -40
-81 -72 -227 -90 -149 -19 -381 20 -428 72 -20 22 -6 27 28 9 20 -11 113 -22
298 -35 59 -5 100 -1 175 16 55 13 106 27 114 31 22 12 40 11 40 -3z m-610
-74 c0 -2 -9 -30 -19 -62 -11 -31 -22 -79 -25 -107 -4 -36 2 -21 22 52 16 57
31 105 33 108 3 2 50 -5 105 -16 116 -24 270 -21 369 6 106 30 100 31 101 -12
0 -21 -5 -44 -13 -51 -7 -7 -13 -22 -13 -31 0 -10 -7 -24 -15 -31 -8 -6 -17
-21 -21 -33 -4 -12 -16 -34 -27 -49 -15 -20 -18 -36 -14 -65 6 -32 1 -47 -35
-106 -34 -57 -45 -67 -62 -63 -26 6 -78 16 -261 51 -77 15 -173 34 -213 42
l-74 15 7 47 c13 87 56 256 76 298 l21 43 29 -15 c16 -9 29 -18 29 -21z m-792
-101 c13 -8 26 -21 29 -30 8 -19 -34 -148 -53 -164 -7 -6 -30 -9 -50 -7 -37 3
-39 5 -67 76 -25 60 -28 77 -19 97 22 48 105 63 160 28z m1537 -54 c25 -12 59
-37 76 -56 25 -29 29 -40 22 -62 -4 -14 -8 -57 -8 -94 0 -56 -4 -71 -20 -83
-27 -20 -37 -17 -24 7 25 48 -18 135 -87 175 -38 22 -53 26 -101 22 -43 -4
-61 -10 -75 -28 -22 -27 -33 -21 -24 15 9 37 61 65 121 66 46 1 48 1 20 10
-16 5 -45 7 -62 4 -41 -7 -43 9 -5 29 40 22 115 20 167 -5z m1152 -80 c87 -37
162 -131 163 -205 0 -30 -32 -84 -49 -84 -5 0 -11 22 -15 48 -3 27 -13 57 -22
68 -15 19 -16 19 -8 -1 4 -11 9 -45 11 -76 5 -48 2 -59 -18 -82 -25 -28 -89
-49 -89 -28 0 6 7 11 15 11 22 0 37 37 29 73 -17 79 -60 133 -134 166 -54 25
-88 26 -118 5 -21 -14 -22 -14 -22 5 0 47 100 68 178 36 32 -13 35 -13 18 0
-11 8 -34 18 -53 21 -18 3 -30 10 -27 15 8 13 71 0 117 -23 20 -10 37 -16 37
-13 0 7 -71 41 -103 49 -15 4 -46 2 -68 -4 -47 -13 -54 -10 -36 15 27 36 114
38 194 4z m-1207 -49 c47 -24 95 -98 86 -133 -6 -26 -51 -64 -138 -120 -57
-36 -72 -38 -61 -9 5 11 3 13 -7 7 -9 -5 -11 -22 -7 -55 6 -49 6 -48 -57 -139
-50 -72 -82 -42 -41 39 30 59 32 85 5 50 -17 -22 -25 -21 -21 3 3 17 -19 5
-48 -28 -16 -19 -35 -54 -41 -77 -15 -54 -23 -71 -38 -76 -22 -7 -14 108 12
171 13 31 20 57 16 57 -14 0 -60 -117 -60 -153 0 -48 -16 -87 -36 -87 -25 0
-15 130 15 188 12 23 18 42 13 42 -17 0 -54 -93 -59 -151 -4 -43 -10 -59 -21
-59 -23 0 -11 114 19 175 21 43 35 56 97 91 96 55 102 61 168 168 31 50 64 96
73 103 24 19 87 15 131 -7z m-1500 -40 c-20 -13 -81 -12 -100 1 -11 8 -6 9 21
5 20 -4 47 -2 60 3 28 10 40 4 19 -9z m23 -51 c0 -19 -2 -45 -3 -59 0 -14 0
-36 2 -49 3 -21 -2 -26 -35 -33 -75 -16 -130 17 -93 55 9 8 12 17 7 19 -6 2
-13 26 -16 53 l-7 50 74 -1 73 0 -2 -35z m2548 17 c68 -29 108 -74 129 -147 5
-17 4 -33 -3 -43 -10 -13 -167 -96 -182 -96 -3 0 -58 -21 -123 -46 -72 -29
-131 -59 -154 -80 -22 -20 -63 -41 -103 -53 -41 -13 -87 -37 -117 -61 -50 -40
-78 -50 -78 -29 0 6 27 38 60 71 33 33 60 62 60 65 0 11 -62 -35 -112 -83 -61
-59 -94 -79 -103 -64 -8 14 26 62 94 134 31 32 49 55 41 51 -43 -24 -85 -64
-122 -117 -25 -35 -48 -58 -59 -58 -11 0 -19 3 -19 7 0 19 68 125 109 167 25
26 37 44 26 38 -29 -15 -88 -80 -119 -129 -36 -59 -50 -54 -25 10 41 106 129
171 263 197 120 24 178 54 343 180 70 54 135 99 144 99 9 1 32 -5 50 -13z
m-893 -113 c2 -15 -4 -22 -21 -27 -13 -3 -35 -16 -48 -30 -17 -17 -46 -28
-102 -38 -42 -8 -77 -14 -77 -12 0 12 143 94 164 94 14 0 34 9 44 19 21 23 36
21 40 -6z m190 -43 c59 -5 139 -17 177 -25 39 -9 85 -15 104 -13 30 4 31 3 15
-9 -41 -30 -90 -34 -201 -18 -155 23 -263 60 -263 91 0 13 4 13 30 -1 17 -9
78 -20 138 -25z m-140 -24 c54 -27 96 -39 202 -57 l75 -12 -47 -11 c-72 -17
-150 -85 -193 -170 -19 -38 -35 -74 -35 -80 0 -19 59 -78 71 -70 6 3 22 1 35
-6 19 -11 27 -10 50 4 19 13 29 15 37 7 21 -21 55 -11 103 29 27 22 67 45 89
51 69 17 99 32 136 64 20 18 69 45 110 60 41 15 121 47 178 72 58 24 108 40
112 36 5 -5 17 -44 28 -88 10 -44 19 -71 20 -60 1 12 -6 47 -14 78 -19 75 -19
75 9 70 19 -4 26 -16 40 -66 45 -161 56 -302 32 -396 -36 -135 -121 -197 -387
-284 -43 -14 -95 -35 -118 -46 -23 -12 -41 -18 -41 -14 0 4 9 40 21 80 29 106
18 124 -14 23 -38 -120 -47 -175 -54 -341 l-6 -146 -131 -7 c-139 -7 -202 0
-316 36 -52 16 -90 20 -191 19 -195 -2 -244 11 -509 139 -199 96 -271 120
-363 120 l-58 0 6 43 c3 23 14 123 25 222 36 316 42 339 104 405 32 34 167
110 195 110 6 0 11 -11 11 -25 0 -13 7 -28 16 -33 8 -5 21 -20 28 -33 6 -13
18 -24 26 -24 8 0 21 -4 28 -8 15 -10 102 2 119 15 7 6 20 33 28 61 18 61 40
97 60 97 12 0 12 -5 -1 -35 -7 -19 -14 -39 -14 -44 0 -16 30 -41 50 -41 22 0
101 102 116 150 11 35 11 35 107 55 63 13 104 27 119 41 19 18 36 28 56 33 1
1 24 -10 50 -23z m-722 -118 c-8 -13 -18 -42 -22 -65 -7 -47 -24 -59 -24 -17
0 27 14 59 38 87 21 24 25 21 8 -5z m-295 -163 c-35 -40 -55 -77 -65 -119 -7
-29 -46 -320 -46 -343 0 -19 -24 -16 -43 5 -14 16 -14 33 4 202 11 102 22 199
25 215 4 28 10 32 77 52 39 12 74 22 76 22 1 1 -11 -15 -28 -34z m-366 -193
c-1 -64 -2 -381 -3 -703 l-2 -585 -35 -17 c-20 -9 -41 -17 -48 -17 -9 0 -12
159 -12 707 l0 707 40 12 c22 7 45 13 50 13 6 1 10 -44 10 -117z m-124 92 c5
-3 9 -295 9 -714 l0 -709 -50 21 -50 21 -2 699 -3 700 43 -6 c24 -3 48 -8 53
-12z m2689 -224 c162 -27 183 -31 200 -37 8 -2 -30 -24 -85 -48 -80 -36 -109
-44 -145 -41 -25 2 -33 1 -17 -1 25 -4 40 -23 18 -23 -9 0 -49 -17 -237 -105
l-91 -42 -89 19 c-49 10 -90 20 -91 22 -2 2 38 18 89 35 164 57 256 120 299
204 11 20 23 37 27 37 4 0 59 -9 122 -20z m222 -112 c3 -29 1 -57 -3 -61 -3
-5 -55 -31 -115 -59 -60 -27 -188 -86 -284 -130 l-175 -81 -135 27 c-207 42
-210 43 -210 71 0 19 11 29 56 50 l55 26 101 -20 c55 -12 113 -21 127 -21 14
1 103 36 196 79 l170 78 6 -31 6 -31 2 33 c1 31 5 35 94 77 50 24 95 44 99 44
3 1 8 -23 10 -51z m-82 -410 c0 -150 3 -309 6 -354 l7 -80 -38 -23 c-21 -12
-39 -20 -41 -19 -2 2 -4 165 -5 363 l-1 358 24 13 c49 28 48 32 48 -258z m-90
-123 c0 -195 -4 -355 -9 -355 -4 0 -22 5 -40 11 l-31 11 0 84 c0 83 0 84 30
99 28 14 30 19 30 71 0 52 -2 56 -31 68 l-32 13 -3 157 -2 157 31 20 c18 10
38 19 45 19 9 0 12 -78 12 -355z m-110 149 l-5 -156 -132 -63 -133 -64 0 155
c0 85 -1 157 -2 160 -3 6 249 122 267 123 6 1 8 -54 5 -155z m-2105 102 c49
-11 50 -12 62 -61 7 -27 11 -50 10 -52 -5 -4 -147 66 -178 88 -16 11 -27 25
-24 30 8 12 68 10 130 -5z m219 -87 c67 -34 162 -79 211 -100 98 -41 101 -45
104 -135 0 -23 7 -59 15 -81 7 -21 15 -77 17 -123 l4 -85 -72 -14 c-67 -14
-77 -13 -160 7 -48 12 -104 23 -123 26 l-35 3 0 54 c0 30 -5 63 -11 74 -6 11
-14 49 -17 85 -4 36 -22 129 -40 208 -19 80 -30 142 -24 142 6 0 65 -28 131
-61z m1469 35 l27 -6 0 -404 c0 -282 3 -404 11 -404 7 0 10 120 7 405 -2 334
-1 404 10 400 8 -3 26 -5 40 -5 l27 0 0 -382 0 -382 -47 -25 c-44 -23 -49 -24
-90 -11 -24 7 -47 17 -51 20 -4 4 -5 188 -1 409 6 360 9 401 23 397 9 -3 28
-8 44 -12z m-1678 -62 l70 -29 16 -67 c33 -132 33 -136 6 -136 -14 0 -44 7
-67 15 -23 8 -57 15 -75 15 -33 0 -33 0 -38 58 -10 116 -8 185 5 179 7 -3 45
-19 83 -35z m621 -132 c11 0 14 -33 14 -174 0 -171 0 -174 -21 -169 -27 7 -39
41 -39 107 0 29 -4 66 -9 82 -5 16 -12 60 -15 98 l-5 68 31 -6 c17 -3 37 -6
44 -6z m349 -26 c60 -20 109 -27 198 -31 99 -5 117 -8 117 -22 0 -9 -7 -59
-14 -111 -10 -64 -11 -97 -4 -101 6 -4 8 -32 5 -70 -11 -141 -28 -164 -116
-164 -31 1 -78 10 -106 20 -29 11 -75 20 -107 20 -55 0 -58 1 -58 24 0 13 -5
40 -11 61 -10 31 -7 49 19 131 16 52 32 117 35 144 6 50 6 50 -4 10 -6 -22
-16 -58 -22 -80 l-11 -40 -12 90 c-16 119 -17 145 -1 145 6 0 48 -12 92 -26z
m-257 -141 l-3 -156 -28 -10 c-16 -5 -30 -7 -32 -6 -2 2 -1 77 2 167 l6 162
29 0 29 0 -3 -157z m1429 139 c6 -4 -57 -40 -153 -87 -134 -65 -164 -77 -164
-62 0 12 22 28 73 51 39 19 106 50 147 70 81 39 80 39 97 28z m31 -57 l1 -35
-169 -85 c-93 -47 -172 -85 -175 -85 -3 0 -5 18 -5 39 l0 39 132 64 c73 34
146 71 163 80 44 25 52 22 53 -17z m-2144 -25 c38 -11 73 -17 77 -14 5 3 9 -5
9 -18 0 -13 3 -32 6 -43 4 -16 -9 -31 -63 -71 -79 -59 -116 -74 -187 -74 -62
0 -100 18 -104 49 -3 18 15 42 80 106 46 46 90 84 98 84 8 1 46 -8 84 -19z
m272 -280 c40 -15 130 -21 191 -12 71 10 73 8 73 -68 0 -45 -2 -49 -32 -60
-18 -6 -63 -15 -99 -20 -45 -5 -97 -21 -159 -50 -86 -40 -100 -43 -201 -48
-134 -6 -199 8 -199 44 0 30 58 73 138 102 39 15 78 40 118 77 57 53 60 54
104 48 25 -3 54 -9 66 -13z m750 -141 c44 -15 75 -19 121 -16 l61 5 7 -37 c6
-32 4 -39 -28 -66 -19 -16 -47 -51 -63 -77 -57 -91 -129 -123 -279 -123 -80 0
-107 4 -128 18 -48 31 -34 67 73 183 31 33 64 77 74 97 16 34 20 37 60 37 24
0 69 -9 102 -21z"/>
<path d="M4541 4913 c17 -15 38 -41 45 -58 7 -16 13 -23 14 -14 0 26 -60 98
-83 99 -5 0 6 -12 24 -27z"/>
<path d="M4255 4920 c-3 -5 0 -7 9 -4 8 3 28 -2 45 -10 16 -9 36 -16 43 -16 7
0 -7 9 -31 20 -49 23 -57 24 -66 10z"/>
<path d="M4265 4740 c19 -8 93 -14 84 -6 -2 2 -26 6 -54 9 -32 4 -43 3 -30 -3z"/>
<path d="M4298 4703 c12 -2 30 -2 40 0 9 3 -1 5 -23 4 -22 0 -30 -2 -17 -4z"/>
<path d="M4726 4609 c-15 -9 -16 -13 -5 -20 21 -13 27 -11 39 11 12 23 -2 27
-34 9z"/>
<path d="M4515 4596 c-17 -7 -37 -21 -45 -31 -14 -17 -14 -17 15 -3 17 9 52
19 78 23 26 4 47 11 47 16 0 13 -61 10 -95 -5z"/>
<path d="M4680 4592 c0 -7 11 -40 25 -74 15 -38 22 -65 16 -71 -5 -5 -28 -8
-50 -5 -51 4 -54 -9 -4 -18 74 -14 88 22 44 116 -17 36 -30 59 -31 52z"/>
<path d="M4260 4553 c0 -15 2 -15 9 -4 13 20 41 -3 41 -34 0 -24 26 -52 38
-41 4 4 -1 12 -10 17 -10 5 -15 16 -11 25 3 8 -3 24 -12 34 -23 25 -55 26 -55
3z"/>
<path d="M4553 4553 c-12 -2 -26 -10 -31 -16 -8 -9 -2 -12 22 -14 22 -1 36 5
44 18 13 20 11 21 -35 12z"/>
<path d="M4720 4385 c-14 -7 -43 -16 -65 -20 -22 -5 -32 -10 -23 -12 18 -5 85
12 108 26 23 16 7 20 -20 6z"/>
<path d="M4690 4330 c-12 -8 -11 -10 7 -10 12 0 25 5 28 10 8 13 -15 13 -35 0z"/>
<path d="M5598 4723 c6 -2 18 -2 25 0 6 3 1 5 -13 5 -14 0 -19 -2 -12 -5z"/>
<path d="M5655 4710 c27 -12 43 -12 25 0 -8 5 -22 9 -30 9 -10 0 -8 -3 5 -9z"/>
<path d="M5307 4628 c-18 -18 -21 -23 -7 -12 14 12 34 26 45 32 11 6 14 12 7
12 -7 0 -27 -15 -45 -32z"/>
<path d="M5625 4635 c-16 -8 -23 -14 -15 -14 8 0 26 6 40 14 32 18 15 18 -25
0z"/>
<path d="M5817 4605 c9 -19 18 -33 21 -31 4 5 -26 66 -33 66 -3 0 3 -16 12
-35z"/>
<path d="M5771 4608 c6 -12 15 -33 20 -47 5 -17 8 -20 8 -8 1 18 -25 77 -35
77 -2 0 1 -10 7 -22z"/>
<path d="M5288 4583 c-14 -16 -31 -39 -37 -53 -10 -21 -10 -22 1 -6 7 11 26
34 42 53 34 40 30 44 -6 6z"/>
<path d="M5671 4494 c-1 -11 6 -29 15 -40 8 -10 12 -13 9 -6 -4 8 -11 26 -15
40 -7 22 -8 23 -9 6z"/>
<path d="M5444 4355 c-18 -15 -15 -15 32 -10 29 4 68 2 88 -3 44 -13 48 2 5
17 -45 16 -102 14 -125 -4z"/>
<path d="M5786 4328 c-19 -27 -21 -54 -3 -62 8 -3 6 -9 -7 -20 -11 -9 -17 -19
-13 -22 4 -4 14 -1 23 6 11 10 14 23 10 46 -4 17 -4 39 0 48 8 21 31 21 38 -1
4 -14 4 -14 3 2 -3 28 -32 30 -51 3z"/>
<path d="M5470 4301 c-12 -9 -12 -11 -1 -11 8 0 19 -7 26 -16 10 -15 13 -15
27 0 10 9 24 13 35 9 13 -4 15 -3 7 6 -15 16 -76 24 -94 12z"/>
<path d="M5393 4053 c20 -2 54 -2 75 0 20 2 3 4 -38 4 -41 0 -58 -2 -37 -4z"/>
<path d="M5403 4003 c9 -2 25 -2 35 0 9 3 1 5 -18 5 -19 0 -27 -2 -17 -5z"/>
<path d="M5666 3889 c-9 -28 -15 -53 -13 -56 3 -2 13 19 22 47 22 67 15 74 -9
9z"/>
<path d="M4154 4104 c42 -42 99 -155 110 -218 4 -21 10 -36 12 -33 8 8 -23
122 -45 166 -25 48 -67 98 -95 113 -12 6 -5 -6 18 -28z"/>
<path d="M4322 3919 c-1 -20 -4 -58 -7 -85 -5 -45 -4 -47 6 -16 5 19 8 57 6
85 -2 37 -4 42 -5 16z"/>
<path d="M4195 3874 c19 -28 35 -56 35 -62 0 -6 4 -13 10 -17 21 -13 -13 55
-46 92 l-35 38 36 -51z"/>
<path d="M4552 4210 c7 -11 17 -20 22 -20 5 0 1 9 -9 20 -10 11 -20 20 -22 20
-2 0 2 -9 9 -20z"/>
<path d="M5300 3892 c0 -17 30 -75 36 -69 3 3 -4 22 -15 44 -11 21 -20 32 -21
25z"/>
<path d="M5273 3883 c2 -5 12 -25 21 -46 10 -21 20 -36 23 -33 8 8 -28 86 -39
86 -5 0 -7 -3 -5 -7z"/>
<path d="M5250 3876 c0 -2 7 -20 15 -39 23 -54 17 -58 -10 -7 -27 51 -34 39
-8 -15 18 -37 21 -39 41 -26 11 7 10 16 -7 50 -18 35 -31 51 -31 37z"/>
<path d="M5193 3844 c-8 -4 -8 -14 3 -39 20 -50 16 -56 -7 -12 -26 49 -36 42
-13 -7 19 -39 22 -40 42 -27 12 7 11 14 -3 41 -9 17 -14 34 -11 37 3 3 12 -12
21 -32 8 -21 18 -36 20 -33 7 7 -23 78 -33 77 -4 0 -12 -3 -19 -5z"/>
<path d="M5140 3815 c0 -5 5 -17 10 -25 5 -8 10 -10 10 -5 0 6 -5 17 -10 25
-5 8 -10 11 -10 5z"/>
<path d="M6124 3714 c-36 -36 -104 -164 -104 -194 0 -8 14 18 31 57 18 42 50
95 76 123 52 58 50 67 -3 14z"/>
<path d="M5091 3494 c0 -11 3 -14 6 -6 3 7 2 16 -1 19 -3 4 -6 -2 -5 -13z"/>
<path d="M5105 3426 c6 -55 24 -130 31 -124 2 2 -5 42 -16 89 -15 61 -19 71
-15 35z"/>
<path d="M6363 3375 c0 -22 2 -30 4 -17 2 12 2 30 0 40 -3 9 -5 -1 -4 -23z"/>
<path d="M5000 3081 c8 -6 26 -11 40 -11 14 0 36 -7 50 -15 37 -21 50 -18 15
5 -32 20 -133 41 -105 21z"/>
<path d="M6223 3050 c-13 -5 -23 -11 -23 -14 0 -6 60 11 68 19 8 8 -20 5 -45
-5z"/>
<path d="M6245 2971 c39 -9 77 -21 84 -26 10 -5 12 -4 7 3 -9 14 -101 42 -135
41 -14 0 6 -8 44 -18z"/>
<path d="M5850 2830 c-66 -35 -134 -59 -215 -76 -58 -13 -59 -13 -10 -8 28 3
72 12 98 19 48 14 164 69 182 86 14 14 4 10 -55 -21z"/>
<path d="M4492 3004 c-19 -132 -24 -179 -18 -173 7 7 38 228 34 241 -2 6 -9
-25 -16 -68z"/>
<path d="M4543 3030 c0 -30 2 -43 4 -27 2 15 2 39 0 55 -2 15 -4 2 -4 -28z"/>
<path d="M3522 2930 c0 -14 2 -19 5 -12 2 6 2 18 0 25 -3 6 -5 1 -5 -13z"/>
<path d="M3441 2924 c0 -11 3 -14 6 -6 3 7 2 16 -1 19 -3 4 -6 -2 -5 -13z"/>
<path d="M3541 2924 c0 -11 3 -14 6 -6 3 7 2 16 -1 19 -3 4 -6 -2 -5 -13z"/>
<path d="M5050 2954 c0 -2 14 -11 30 -19 17 -9 44 -34 60 -57 17 -22 30 -36
30 -29 0 17 -78 98 -100 104 -11 3 -20 3 -20 1z"/>
<path d="M3473 2663 c9 -2 23 -2 30 0 6 3 -1 5 -18 5 -16 0 -22 -2 -12 -5z"/>
<path d="M5239 2523 c19 -18 39 -33 45 -33 6 0 -1 7 -14 17 -14 9 -34 23 -46
32 -11 9 -5 1 15 -16z"/>
<path d="M5129 2447 c31 -34 82 -57 123 -56 30 1 29 2 -12 10 -25 5 -65 23
-90 40 -40 28 -43 29 -21 6z"/>
<path d="M6021 2437 c13 -10 129 -65 129 -62 0 8 -105 65 -119 65 -8 0 -12 -1
-10 -3z"/>
<path d="M5970 2379 c36 -15 74 -42 113 -80 42 -42 53 -50 40 -27 -32 55 -110
109 -178 123 -16 3 -5 -4 25 -16z"/>
<path d="M4890 2221 c41 -33 87 -44 169 -39 65 4 188 34 179 44 -2 1 -37 -6
-78 -17 -105 -27 -185 -25 -246 6 -38 20 -44 21 -24 6z"/>
<path d="M4665 2161 c49 -52 143 -99 210 -106 50 -5 50 -5 -18 15 -87 26 -137
52 -190 97 l-42 37 40 -43z"/>
<path d="M4471 2188 c-1 -4 12 -41 29 -83 65 -164 155 -316 237 -403 l45 -47
-40 50 c-83 106 -148 221 -259 465 -7 14 -12 22 -12 18z"/>
<path d="M5101 2042 c-134 -136 -171 -166 -238 -192 -26 -11 -41 -19 -33 -19
30 0 89 27 138 62 49 37 271 267 256 267 -4 0 -59 -53 -123 -118z"/>
<path d="M4230 2000 c0 -68 2 -121 4 -119 7 7 9 229 2 236 -3 4 -6 -49 -6
-117z"/>
<path d="M5161 1928 c-55 -191 -75 -259 -101 -335 -30 -86 -32 -111 -5 -45 44
104 142 439 131 449 -2 3 -14 -28 -25 -69z"/>
<path d="M5632 1913 c33 -86 43 -104 33 -58 -8 34 -52 135 -58 135 -3 0 9 -35
25 -77z"/>
<path d="M5492 1904 c-3 -59 51 -345 62 -333 2 2 -9 72 -25 156 -15 84 -30
167 -32 185 -3 30 -4 30 -5 -8z"/>
<path d="M5834 1808 l-29 -33 33 29 c17 17 32 31 32 33 0 8 -8 1 -36 -29z"/>
<path d="M6313 1883 c9 -2 23 -2 30 0 6 3 -1 5 -18 5 -16 0 -22 -2 -12 -5z"/>
<path d="M6077 1673 c-11 -10 -8 -93 3 -93 6 0 10 23 10 50 0 51 -1 55 -13 43z"/>
<path d="M4580 1394 c0 -15 94 -144 131 -179 l42 -40 -49 60 c-27 33 -64 84
-83 113 -31 49 -41 60 -41 46z"/>
<path d="M4520 1118 c33 -9 63 -21 135 -50 29 -12 29 -12 -30 -18 l-60 -7 74
-1 c63 -2 72 0 62 12 -18 22 -155 76 -188 75 -27 -1 -27 -1 7 -11z"/>
<path d="M4250 1365 c0 -7 70 -35 84 -34 6 0 -7 9 -29 19 -42 20 -55 23 -55
15z"/>
<path d="M5360 1217 c0 -27 63 -157 94 -194 34 -40 56 -44 26 -5 -48 62 -73
103 -96 159 -13 32 -24 50 -24 40z"/>
<path d="M5225 984 c59 -10 130 -34 160 -55 l30 -21 -65 6 c-42 3 -58 2 -45
-4 11 -5 46 -9 79 -9 47 -1 56 1 47 12 -24 29 -126 70 -181 73 -30 1 -41 0
-25 -2z"/>
<path d="M4420 870 c12 -8 12 -10 1 -10 -8 0 -12 -2 -9 -5 3 -3 13 -2 22 1 14
5 15 9 4 15 -7 5 -17 9 -23 9 -5 0 -3 -5 5 -10z"/>
<path d="M5181 726 c2 -2 22 -6 44 -9 28 -5 34 -4 20 3 -19 8 -73 14 -64 6z"/>
<path d="M5138 689 c-9 -6 -3 -9 17 -9 17 0 48 -3 70 -7 22 -3 37 -3 34 1 -11
12 -107 23 -121 15z"/>
<path d="M3690 2765 c-14 -15 -20 -29 -14 -34 7 -7 183 -52 249 -64 11 -2 32
3 48 10 18 9 33 11 44 5 13 -8 10 -11 -18 -20 -55 -17 -159 -40 -234 -53 -143
-23 -175 -31 -190 -45 -21 -21 -19 -47 5 -69 17 -15 31 -17 92 -12 101 7 275
52 388 100 76 32 106 40 149 38 50 -1 81 10 81 30 0 5 -10 9 -22 9 -41 0 -66
11 -71 31 -4 15 -14 19 -49 19 -38 0 -137 19 -335 65 -84 20 -96 19 -123 -10z
m176 -19 c60 -13 138 -29 172 -36 44 -9 59 -16 49 -21 -8 -5 -29 -4 -47 2 -24
9 -41 9 -68 0 -31 -10 -51 -9 -127 9 -49 11 -105 26 -124 32 -32 10 -33 12
-16 24 25 18 34 18 161 -10z m314 -60 c0 -38 -417 -166 -539 -166 -20 0 -43 5
-51 10 -26 18 13 37 103 50 101 15 224 42 339 76 48 14 92 23 98 19 6 -3 17 1
26 9 19 20 24 20 24 2z m89 -42 c10 -9 -76 -3 -89 7 -11 7 -1 8 35 3 28 -4 52
-8 54 -10z m-184 -34 c-133 -64 -398 -126 -467 -110 -29 7 -26 8 23 9 106 2
372 69 457 116 15 8 32 14 37 14 6 -1 -17 -14 -50 -29z"/>
<path d="M3615 2550 c-3 -5 1 -10 10 -10 9 0 13 5 10 10 -3 6 -8 10 -10 10 -2
0 -7 -4 -10 -10z"/>
<path d="M3757 2363 c-11 -10 -8 -91 3 -98 6 -4 10 15 10 49 0 57 -1 61 -13
49z"/>
</g>
</svg>
