<?xml version="1.0" standalone="no"?>
<!DOCTYPE svg PUBLIC "-//W3C//DTD SVG 20010904//EN"
 "http://www.w3.org/TR/2001/REC-SVG-20010904/DTD/svg10.dtd">
<svg version="1.0" xmlns="http://www.w3.org/2000/svg"
 width="1024.000000pt" height="559.000000pt" viewBox="0 0 1024.000000 559.000000"
 preserveAspectRatio="xMidYMid meet">
<metadata>
Created by potrace 1.16, written by Peter Selinger 2001-2019
</metadata>
<g transform="translate(0.000000,559.000000) scale(0.100000,-0.100000)"
fill="#000000" stroke="none">
<path d="M4914 5116 c-34 -12 -81 -34 -106 -49 -74 -43 -155 -144 -184 -231
-11 -33 -20 -42 -40 -44 -54 -4 -114 -53 -150 -122 -28 -54 -26 -199 4 -265
37 -80 100 -135 156 -135 18 0 34 -13 60 -50 25 -34 52 -58 84 -72 26 -13 49
-24 51 -25 2 -2 -18 -26 -44 -54 l-48 -51 7 -60 c4 -39 2 -66 -5 -74 -7 -9 -8
-14 -1 -14 24 0 33 30 27 84 -7 53 -6 55 32 98 22 23 45 52 51 63 11 19 11 19
12 -2 0 -13 -9 -37 -20 -55 -24 -39 -26 -87 -5 -114 14 -18 15 -16 9 22 -5 31
-1 51 15 82 12 23 21 49 22 59 1 10 5 -2 11 -27 11 -55 2 -179 -18 -241 -8
-26 -30 -62 -48 -81 -38 -39 -151 -102 -171 -95 -14 6 -204 -71 -310 -124
-163 -83 -215 -156 -353 -501 -39 -97 -101 -245 -137 -328 -36 -83 -65 -163
-65 -178 0 -19 15 -40 55 -78 l55 -52 -30 -194 c-17 -106 -33 -200 -35 -208
-13 -44 -35 -268 -35 -360 0 -100 24 -461 35 -525 2 -16 10 -106 15 -200 9
-131 8 -196 -2 -280 -15 -134 -16 -198 -3 -205 6 -3 17 59 29 155 20 173 19
213 -20 640 -23 242 -23 569 -1 695 15 88 27 162 74 453 9 59 20 107 25 107 5
0 57 -30 116 -67 59 -36 140 -82 180 -101 39 -19 72 -38 72 -43 0 -5 -23 -78
-51 -162 -50 -149 -51 -155 -59 -317 -11 -212 -14 -234 -60 -485 -21 -115 -44
-265 -50 -332 -15 -144 -9 -178 50 -281 41 -71 69 -171 70 -244 0 -28 4 -38
16 -38 18 0 17 37 -8 188 -9 54 -9 75 -1 83 9 9 14 5 19 -15 6 -27 24 -36 24
-12 0 7 -16 62 -36 122 -48 144 -54 221 -24 314 23 71 40 98 40 63 0 -11 7
-28 15 -39 14 -18 14 -18 15 6 0 14 -14 75 -30 135 -16 61 -30 122 -30 138 0
43 34 129 70 178 l33 44 -7 -55 c-3 -30 -6 -63 -6 -73 0 -14 -5 -17 -20 -12
-22 7 -27 -7 -7 -22 45 -36 127 -16 227 55 133 95 365 341 477 507 251 373
434 817 515 1251 26 143 32 370 9 397 -7 9 -16 15 -20 13 -4 -3 -13 0 -21 5
-13 8 -13 10 0 19 47 31 126 -5 159 -73 65 -135 72 -568 15 -922 -52 -320
-104 -521 -204 -795 -52 -141 -54 -151 -31 -109 11 20 38 81 59 135 94 235
163 516 213 864 32 218 32 602 2 730 -11 47 -24 93 -28 103 -11 27 38 22 73
-8 16 -13 49 -33 73 -44 81 -34 90 -58 110 -281 16 -176 16 -678 0 -850 -66
-736 -228 -1348 -494 -1872 -75 -147 -89 -188 -53 -159 18 15 149 274 193 381
17 41 35 84 40 95 5 12 10 -73 13 -212 3 -127 9 -235 13 -240 5 -4 7 112 6
258 l-2 265 46 140 c64 197 77 241 77 258 0 9 4 16 9 16 9 0 10 -11 42 -400
11 -140 22 -257 25 -259 15 -15 -5 336 -33 581 -15 138 -15 152 1 220 9 40 22
96 28 123 17 79 19 83 29 58 28 -74 87 -457 113 -738 17 -175 46 -508 46 -519
0 -3 5 -6 10 -6 15 0 12 83 -10 348 -28 334 -61 599 -95 764 l-16 74 35 114
c18 63 48 166 66 229 53 192 129 364 201 457 26 34 60 62 98 83 32 17 61 31
64 31 3 0 -6 -32 -20 -71 -44 -129 -94 -458 -91 -604 0 -38 3 -56 5 -40 2 17
13 104 24 195 45 368 114 587 201 638 36 21 47 8 19 -22 -30 -32 -57 -171 -71
-371 -6 -97 -10 -431 -8 -845 1 -377 -2 -751 -6 -832 -6 -98 -5 -148 2 -148 5
0 13 10 17 23 5 12 10 338 12 725 l5 704 64 79 c35 43 83 113 107 154 l45 76
5 -53 c4 -29 11 -111 17 -183 20 -226 49 -484 75 -659 35 -234 35 -229 -23
-285 -27 -25 -74 -68 -106 -95 l-57 -48 6 523 c4 292 3 544 -2 569 -6 30 -12
-163 -17 -562 -5 -465 -4 -612 5 -630 6 -13 31 -44 55 -70 24 -26 44 -57 44
-68 0 -33 -28 -79 -83 -137 -37 -40 -45 -53 -32 -53 24 0 113 92 130 134 11
26 13 69 8 189 l-6 155 66 64 c80 76 79 68 43 304 -29 186 -59 455 -85 749
-17 199 -17 212 -1 245 10 19 54 124 99 233 117 286 104 267 213 321 138 69
258 153 294 207 17 25 43 77 59 115 16 38 41 89 56 114 22 36 27 57 27 107 0
70 -13 89 -53 79 -14 -3 -33 -1 -43 5 -32 20 -71 1 -145 -69 -59 -56 -235
-172 -261 -172 -12 0 -6 21 19 60 34 54 43 121 21 155 -29 44 -53 29 -115 -70
-31 -49 -74 -112 -95 -140 -53 -69 -77 -127 -86 -208 -6 -54 -18 -90 -55 -160
-70 -135 -92 -167 -116 -167 -39 0 -92 -33 -125 -80 -38 -52 -106 -92 -126
-72 -12 12 -4 35 26 77 14 18 11 30 -25 120 -21 55 -65 177 -95 270 -75 224
-107 306 -148 368 -52 79 -187 215 -227 229 -19 6 -47 22 -62 34 -15 13 -44
26 -65 29 -20 3 -44 10 -52 16 -8 5 -28 18 -45 29 -35 23 -89 26 -128 5 -51
-26 -69 -4 -60 73 5 44 9 50 37 60 68 25 135 127 184 281 24 78 27 100 27 236
l0 150 30 45 c28 42 30 52 30 135 0 105 -16 143 -93 226 -182 196 -191 201
-432 205 -151 3 -170 1 -226 -20z m266 -27 c25 -11 64 -39 88 -62 23 -22 42
-36 42 -30 0 17 -50 73 -85 95 l-30 20 61 -5 c77 -6 140 -34 198 -87 48 -44
60 -68 27 -50 -11 5 -44 10 -73 9 l-53 -1 63 -13 c125 -27 190 -85 219 -197
15 -58 15 -70 2 -119 -8 -30 -19 -54 -24 -54 -5 0 -13 21 -16 46 -14 93 -52
144 -145 190 -49 25 -104 80 -104 104 0 8 -7 15 -15 15 -8 0 -12 -6 -9 -14 9
-22 -22 -72 -58 -94 -18 -11 -55 -28 -83 -36 -85 -28 -126 -58 -175 -126 -51
-72 -105 -106 -186 -119 -44 -7 -46 -9 -23 -15 15 -4 44 -3 65 3 55 15 56 15
39 -26 -75 -180 -325 -156 -325 30 0 48 13 85 34 100 6 4 29 12 51 18 59 16
107 43 143 80 17 18 30 34 28 36 -2 2 -29 -14 -60 -35 -50 -35 -140 -71 -151
-60 -9 9 25 138 48 185 96 188 335 288 507 212z m193 -233 c14 -13 46 -36 73
-49 84 -43 114 -86 128 -178 l7 -46 -49 5 c-49 4 -98 -11 -87 -28 3 -5 19 -4
38 1 17 5 45 5 62 1 l30 -8 3 -100 c8 -205 -8 -298 -74 -429 -66 -130 -122
-165 -232 -146 -82 15 -193 73 -262 138 -35 32 -60 49 -60 40 0 -24 111 -119
174 -150 69 -34 141 -57 179 -57 l27 0 0 -104 c0 -107 5 -136 22 -136 6 0 7
16 3 41 -4 23 -3 40 1 37 5 -2 30 -14 57 -28 l47 -24 0 -56 c0 -42 -5 -61 -18
-73 -25 -23 -100 -55 -160 -67 -118 -26 -412 60 -597 174 l-40 24 30 13 c107
46 170 113 195 207 14 56 15 238 0 292 -8 30 -8 46 -1 53 21 21 11 27 -29 21
-37 -6 -43 -4 -74 30 -30 31 -65 102 -54 110 1 2 22 6 45 10 l42 6 -6 -33 c-3
-23 0 -37 11 -46 19 -16 34 -7 18 11 -5 7 -9 28 -8 46 2 24 12 38 37 55 33 22
88 107 89 136 0 8 19 35 43 61 23 25 58 66 78 91 31 37 51 49 129 79 61 23
102 46 123 67 18 18 33 33 34 33 1 0 13 -11 26 -24z m-771 -133 c-3 -27 -14
-59 -24 -73 -38 -52 -36 -141 6 -203 24 -34 42 -157 24 -157 -26 0 -79 32
-106 66 -71 86 -83 238 -26 330 28 45 81 84 115 84 14 0 16 -8 11 -47z m88
-376 c0 -12 14 -46 31 -76 23 -40 41 -57 70 -70 24 -10 39 -23 39 -33 0 -23
-30 -23 -73 -2 -72 36 -114 100 -124 186 l-6 50 31 -16 c21 -11 32 -24 32 -39z
m-70 -722 c17 -20 163 -100 249 -136 108 -45 219 -71 326 -76 84 -4 109 -2
159 16 32 11 67 28 77 37 11 10 22 14 26 11 18 -18 -56 -379 -114 -562 -95
-296 -248 -625 -385 -827 l-39 -58 -58 0 -59 0 -31 73 c-39 94 -83 255 -106
382 -22 127 -37 172 -29 90 6 -69 26 -180 49 -280 17 -73 71 -223 86 -240 19
-20 6 -23 -68 -18 -73 4 -80 7 -109 39 -29 32 -70 118 -92 194 l-10 35 -1 -33
c-1 -42 29 -129 63 -178 14 -21 24 -40 21 -42 -7 -8 -150 22 -172 36 -26 16
-59 81 -68 134 l-7 37 35 -6 c28 -4 36 -2 40 13 12 43 27 125 42 229 9 61 26
127 36 147 33 63 79 251 79 326 0 48 -18 19 -24 -40 -8 -70 -41 -222 -54 -245
-5 -8 -9 56 -10 149 0 89 -5 179 -10 198 -8 27 -10 -2 -11 -125 -1 -95 -9
-219 -21 -305 -21 -159 -47 -310 -54 -317 -14 -14 -193 70 -333 156 -108 66
-187 101 -228 101 -35 0 -37 11 -9 71 14 30 48 108 75 174 28 66 54 129 59
140 5 11 30 74 56 140 93 240 163 350 265 415 41 27 317 155 340 159 4 1 12
-6 19 -14z m1317 -205 c41 -45 110 -202 173 -395 35 -104 80 -232 101 -284
l39 -94 -34 -42 c-34 -40 -284 -272 -312 -288 -22 -13 -7 184 26 338 15 72 31
166 34 210 8 102 -7 71 -23 -48 -22 -166 -30 -141 -31 103 0 222 -12 440 -26
519 -7 34 -6 35 12 21 10 -8 29 -26 41 -40z m1348 -2 c-84 -94 -135 -142 -177
-169 -27 -17 -45 -35 -42 -40 11 -19 91 39 184 134 63 63 105 97 118 97 28 0
30 -36 2 -45 -10 -3 -54 -44 -96 -91 -103 -113 -150 -150 -169 -134 -20 17
-19 8 6 -34 23 -40 29 -45 22 -18 -3 13 8 27 36 46 22 16 75 68 116 117 73 85
105 107 105 73 0 -9 -10 -33 -21 -54 -16 -28 -26 -36 -40 -33 -30 8 -67 -23
-95 -80 -15 -28 -45 -69 -67 -89 -23 -20 -38 -40 -34 -44 12 -12 79 47 106 94
78 132 119 128 52 -6 -22 -43 -54 -93 -70 -110 -42 -42 -148 -110 -260 -168
-110 -57 -106 -50 -218 -327 -105 -262 -207 -451 -308 -572 l-25 -30 0 120 c0
146 17 356 36 448 10 52 27 88 68 150 103 155 155 266 170 359 16 94 33 135
98 223 24 33 63 93 87 133 23 40 48 71 54 69 24 -8 19 -71 -11 -127 -34 -65
-46 -106 -32 -115 27 -17 225 101 322 192 41 38 76 63 89 63 22 0 22 -1 -6
-32z m-1075 -887 c0 -5 -21 -32 -47 -59 -57 -58 -118 -170 -172 -313 l-39
-104 -36 78 c-50 108 -48 122 27 180 34 26 105 88 157 137 93 87 110 100 110
81z m-2343 -34 c11 -7 5 -57 -5 -57 -9 0 -72 63 -72 71 0 7 61 -4 77 -14z
m470 -382 c6 -11 21 -29 32 -39 29 -26 27 -78 -5 -157 -15 -35 -37 -105 -49
-155 -18 -75 -31 -101 -66 -146 -24 -30 -50 -63 -57 -74 -11 -17 -12 -15 -7
15 3 19 8 109 12 200 6 164 6 167 56 321 l50 155 12 -50 c6 -27 16 -59 22 -70z
m1603 -100 c0 -19 -85 -315 -91 -315 -12 0 -31 108 -27 146 10 75 38 259 44
284 5 22 9 18 40 -40 19 -35 34 -69 34 -75z m-1177 -11 c133 -7 137 -8 121
-26 -22 -23 -131 -24 -297 -3 -137 18 -167 28 -167 53 0 17 4 17 103 1 56 -10
164 -21 240 -25z m-266 -47 c2 -3 -5 -32 -17 -66 -25 -75 -50 -193 -49 -229 0
-15 13 20 28 78 15 58 36 129 45 159 l18 53 45 -5 c24 -2 46 -7 49 -10 3 -3 1
-29 -4 -59 -6 -29 -13 -87 -16 -128 l-5 -75 14 75 c8 41 20 100 26 132 l11 56
97 -5 c53 -3 97 -7 99 -8 5 -5 -100 -128 -188 -219 -121 -126 -287 -246 -341
-246 -33 0 39 368 93 474 18 36 22 38 55 33 20 -4 37 -8 40 -10z m-324 -681
l17 -64 -32 -69 c-28 -61 -32 -78 -32 -163 -1 -67 4 -110 17 -147 11 -32 17
-72 15 -105 l-3 -53 -29 48 c-42 70 -48 114 -37 239 12 130 52 378 61 378 3 0
14 -29 23 -64z m2450 -471 l6 -100 -40 42 c-48 52 -50 80 -8 128 18 20 33 34
34 33 1 -2 5 -48 8 -103z"/>
<path d="M5115 4981 c-103 -30 -211 -96 -237 -144 -10 -19 -7 -19 23 5 110 89
213 129 334 129 78 1 79 1 45 14 -47 18 -93 17 -165 -4z"/>
<path d="M5557 4808 c17 -18 38 -49 46 -68 11 -25 16 -29 16 -15 1 23 -33 84
-58 102 -32 24 -34 12 -4 -19z"/>
<path d="M4945 4713 c-27 -15 -72 -29 -100 -31 -36 -4 -44 -7 -30 -12 42 -15
143 16 174 54 17 20 17 20 -44 -11z"/>
<path d="M4679 4501 c27 -25 102 -28 140 -7 22 12 17 13 -46 9 -43 -4 -79 -1
-94 6 l-24 12 24 -20z"/>
<path d="M5106 4575 c-40 -14 -80 -45 -58 -45 6 0 30 8 54 17 44 18 115 22
161 10 20 -5 27 -4 27 7 0 8 -7 17 -16 20 -28 11 -128 6 -168 -9z"/>
<path d="M5391 4495 c-1 -16 11 -75 25 -130 l25 -100 -22 -18 c-14 -11 -31
-16 -43 -13 -59 17 -66 17 -66 7 0 -5 19 -15 41 -21 52 -14 96 1 105 37 6 21
-34 193 -56 248 -7 17 -9 15 -9 -10z"/>
<path d="M5131 4490 c-48 -22 -50 -39 -2 -22 27 10 30 8 33 -11 5 -34 46 -35
54 -3 7 29 14 32 32 14 8 -8 12 -8 12 -1 0 37 -71 50 -129 23z"/>
<path d="M5471 4497 c-14 -6 -26 -18 -29 -26 -3 -8 0 -11 7 -7 7 4 19 -2 30
-15 21 -26 51 -20 51 10 0 14 5 19 15 15 8 -4 15 -1 15 5 0 6 -12 16 -26 21
-32 12 -34 12 -63 -3z"/>
<path d="M5220 4129 c0 -26 125 -45 191 -29 78 19 66 28 -29 23 -48 -3 -104
-1 -124 5 -23 6 -38 7 -38 1z"/>
<path d="M5305 4040 c8 -13 92 -13 99 -1 3 5 -19 9 -49 10 -33 0 -53 -4 -50
-9z"/>
<path d="M4715 3475 c118 -110 341 -236 430 -242 l50 -4 -70 24 c-113 38 -244
112 -375 212 -79 60 -93 64 -35 10z"/>
<path d="M4610 3494 c0 -14 184 -297 255 -392 83 -110 263 -302 285 -302 7 0
-32 46 -85 103 -115 120 -209 242 -346 448 -91 136 -109 160 -109 143z"/>
<path d="M5364 3279 c-34 -37 -115 -91 -172 -115 -48 -20 -53 -24 -28 -24 56
0 160 65 206 130 25 35 22 39 -6 9z"/>
<path d="M4881 2423 c-1 -16 29 -147 35 -153 8 -7 -8 79 -22 124 -7 23 -13 36
-13 29z"/>
<path d="M6865 3021 c-48 -22 -71 -46 -80 -83 -9 -34 2 -37 15 -4 12 33 66 71
125 89 48 15 49 16 15 16 -19 0 -53 -8 -75 -18z"/>
<path d="M5755 3079 c0 -362 5 -384 25 -123 10 117 10 181 1 280 -21 231 -26
201 -26 -157z"/>
<path d="M5371 2358 c-156 -461 -377 -856 -625 -1117 -184 -192 -384 -289
-487 -235 -38 19 -52 9 -21 -17 101 -81 318 14 529 234 255 266 495 705 623
1139 45 154 33 152 -19 -4z"/>
<path d="M5711 2410 c-75 -416 -136 -659 -236 -950 -107 -310 -286 -664 -477
-948 -27 -41 -47 -76 -45 -79 3 -3 30 28 59 69 259 352 489 868 609 1366 53
222 113 554 107 595 -2 12 -9 -12 -17 -53z"/>
<path d="M6181 2332 c-51 -100 -85 -241 -136 -562 -14 -91 -35 -217 -46 -280
-11 -63 -22 -128 -25 -145 -4 -29 -4 -29 6 -5 19 42 38 135 90 441 51 304 81
433 125 540 14 34 23 64 21 67 -3 2 -18 -23 -35 -56z"/>
<path d="M4020 2007 c0 -12 42 -97 50 -102 14 -9 12 0 -11 50 -18 39 -39 66
-39 52z"/>
<path d="M6167 1270 c-19 -244 -43 -526 -52 -595 -4 -37 -4 -38 5 -10 27 85
73 594 68 750 -3 77 -6 57 -21 -145z"/>
<path d="M4675 1372 c-121 -110 -247 -169 -338 -159 -48 6 -51 5 -32 -9 30
-24 127 -13 195 21 58 29 156 103 204 154 46 48 26 44 -29 -7z"/>
<path d="M5078 1266 c-42 -66 -105 -159 -139 -206 -78 -106 -275 -304 -352
-354 -71 -46 -166 -86 -206 -86 -16 0 -33 -5 -37 -12 -11 -18 97 -3 151 21
158 70 356 260 517 497 57 83 153 253 147 258 -2 2 -39 -51 -81 -118z"/>
<path d="M4052 488 c0 -13 -3 -34 -7 -48 -6 -23 -5 -24 8 -7 18 22 23 22 30
-4 3 -12 10 -18 16 -15 6 4 6 17 -1 39 -19 56 -46 77 -46 35z"/>
</g>
</svg>
