<?xml version="1.0" standalone="no"?>
<!DOCTYPE svg PUBLIC "-//W3C//DTD SVG 20010904//EN"
 "http://www.w3.org/TR/2001/REC-SVG-20010904/DTD/svg10.dtd">
<svg version="1.0" xmlns="http://www.w3.org/2000/svg"
 width="1024.000000pt" height="559.000000pt" viewBox="0 0 1024.000000 559.000000"
 preserveAspectRatio="xMidYMid meet">
<metadata>
Created by potrace 1.16, written by Peter Selinger 2001-2019
</metadata>
<g transform="translate(0.000000,559.000000) scale(0.100000,-0.100000)"
fill="#000000" stroke="none">
<path d="M5015 5093 c-16 -3 -63 -20 -103 -38 -131 -61 -231 -183 -263 -320
-7 -27 -13 -56 -15 -62 -2 -8 -20 -13 -42 -13 -79 0 -142 -71 -148 -165 -2
-30 -8 -63 -13 -74 -6 -11 -11 -46 -11 -78 0 -80 37 -155 91 -186 21 -12 41
-30 44 -39 18 -55 97 -108 162 -108 21 0 53 9 70 20 64 38 82 -5 39 -95 -27
-60 -48 -79 -75 -70 -36 11 -134 -13 -179 -45 -23 -17 -54 -30 -68 -30 -31 0
-92 -25 -119 -49 -11 -10 -42 -27 -70 -37 -66 -24 -141 -101 -182 -185 -94
-195 -114 -324 -168 -1069 -8 -113 -19 -302 -25 -420 -6 -118 -15 -294 -20
-390 -6 -96 -15 -272 -20 -390 -6 -118 -18 -307 -26 -420 -8 -113 -18 -242
-21 -287 -8 -108 11 -111 26 -5 16 117 39 421 51 672 14 326 29 614 35 700 3
41 10 172 15 290 15 331 50 758 76 940 40 285 132 474 259 531 45 21 130 24
188 8 22 -6 41 -8 44 -6 10 10 -47 39 -87 44 -45 6 -48 10 -22 29 23 18 86 17
122 -1 33 -17 38 -11 14 16 -14 16 -12 19 31 44 48 29 144 48 131 27 -4 -7
-21 -15 -39 -20 -32 -8 -32 -9 -37 -81 -4 -62 -9 -75 -30 -92 -23 -18 -35 -19
-151 -13 -115 6 -130 4 -177 -16 -49 -21 -97 -60 -73 -60 6 0 -2 -23 -18 -52
-59 -105 -83 -215 -111 -498 -6 -58 -19 -184 -30 -280 -19 -171 -19 -176 0
-201 18 -26 18 -39 5 -470 -8 -244 -14 -487 -13 -539 l1 -95 7 65 c9 71 25
439 36 782 3 122 10 218 15 218 5 0 24 -6 42 -14 29 -12 34 -20 45 -76 21
-100 87 -320 111 -372 l22 -46 -21 -43 c-12 -23 -37 -85 -56 -137 -24 -65 -47
-109 -74 -140 -22 -24 -52 -69 -66 -99 -26 -52 -27 -59 -21 -171 6 -115 5
-118 -29 -205 -26 -67 -34 -104 -34 -151 0 -55 23 -161 48 -226 6 -15 6 -34 1
-49 -15 -38 -29 -252 -21 -306 14 -96 27 -52 32 112 3 89 8 164 11 167 3 4 12
-14 19 -39 13 -47 30 -60 30 -23 0 12 -19 76 -42 142 -56 165 -61 241 -21 350
l30 79 13 -49 c7 -27 17 -53 21 -59 15 -16 10 45 -12 145 -30 138 -29 205 4
271 15 30 36 65 47 79 l21 25 -6 -40 c-13 -83 -17 -98 -25 -85 -11 17 -20 -2
-13 -29 11 -44 93 -68 179 -52 111 21 257 105 371 214 l62 59 103 -40 c57 -22
111 -43 121 -46 9 -3 17 -9 17 -14 0 -30 -168 -242 -279 -353 -200 -199 -322
-269 -473 -269 -62 0 -88 9 -124 42 -29 26 -39 7 -14 -24 41 -53 178 -62 292
-19 155 59 394 274 548 494 96 136 79 131 220 76 63 -24 95 -44 142 -88 l60
-56 -57 -139 c-105 -260 -264 -554 -391 -722 -82 -108 -86 -121 -16 -46 75 78
142 175 224 322 71 129 177 349 213 443 13 34 28 75 35 92 l11 30 57 -61 c31
-33 70 -69 85 -80 l28 -19 -45 -130 c-75 -222 -160 -425 -235 -566 -43 -79
-54 -122 -27 -100 12 10 99 181 178 351 16 34 17 29 17 -147 1 -115 5 -183 11
-183 6 0 10 78 10 214 l0 213 38 104 c21 57 47 131 57 164 10 33 19 62 21 64
1 1 20 -5 42 -14 l39 -18 7 -146 c12 -276 29 -501 38 -501 6 0 7 45 4 108 -3
59 -8 168 -11 242 -3 74 -8 169 -11 210 l-6 75 71 0 c55 0 72 -3 75 -15 3 -8
10 -85 16 -170 6 -85 15 -194 20 -242 7 -73 5 -107 -11 -194 -19 -101 -19
-129 0 -108 5 5 25 92 46 194 64 318 98 379 259 465 39 21 95 53 124 72 l52
33 0 59 c0 70 -14 91 -82 115 -26 10 -57 29 -68 43 -45 58 -54 171 -21 272 12
36 21 90 21 124 0 57 17 127 30 127 3 0 4 -16 2 -36 -3 -26 2 -44 19 -67 12
-17 26 -53 30 -80 8 -47 31 -87 51 -87 5 0 16 7 25 15 22 22 33 9 33 -38 -1
-50 -18 -85 -51 -103 l-24 -13 27 -1 c19 0 31 -9 47 -35 11 -19 25 -35 31 -35
5 0 10 -10 10 -23 0 -38 26 -63 91 -86 55 -21 82 -23 129 -10 11 3 16 -9 20
-48 6 -60 41 -105 97 -125 30 -11 33 -16 33 -53 0 -44 31 -105 54 -105 8 0 19
-8 24 -17 6 -10 25 -18 48 -20 22 -1 44 -9 50 -18 15 -20 32 -180 40 -377 6
-131 9 -158 22 -158 13 0 14 21 8 153 -8 168 -23 325 -35 373 -5 17 -5 38 1
47 5 9 9 53 9 98 0 76 -2 86 -34 138 -19 31 -41 70 -50 86 -13 26 -58 66 -132
119 -19 14 -18 16 31 63 69 64 77 83 86 183 4 47 10 109 14 138 9 75 -2 118
-40 160 -18 20 -40 50 -48 65 -21 41 -143 117 -189 117 -20 0 -42 6 -48 13 -6
8 -29 19 -51 26 -44 13 -109 2 -129 -23 -6 -7 -33 -16 -60 -20 -27 -3 -69 -17
-93 -30 l-45 -24 -48 66 c-56 77 -74 117 -104 230 l-22 83 30 28 c17 16 31 31
31 33 0 2 -14 44 -30 94 -38 110 -56 176 -120 427 -72 283 -109 374 -184 456
-23 25 -52 60 -64 77 -25 36 -139 114 -168 114 -10 0 -34 14 -52 31 l-34 30
51 66 c28 36 56 84 62 107 6 22 23 68 38 101 23 53 26 73 26 167 0 102 1 108
23 120 45 24 72 66 72 113 0 27 8 58 22 81 13 22 21 53 21 80 0 30 -7 54 -21
74 -14 19 -22 44 -22 70 0 71 -54 140 -120 155 -16 4 -30 11 -30 15 0 16 -63
81 -100 105 -55 35 -108 49 -195 51 -44 1 -123 4 -175 7 -52 3 -108 3 -125 0z
m160 -24 c33 -6 101 -12 150 -13 113 -3 184 -34 243 -107 11 -14 7 -16 -37
-11 -29 2 -51 0 -55 -7 -5 -7 2 -9 21 -5 18 3 43 -3 68 -16 21 -11 48 -20 60
-20 25 0 71 -30 92 -60 9 -13 17 -44 18 -69 1 -27 11 -61 23 -81 29 -46 28
-98 -2 -142 -16 -24 -22 -44 -19 -65 6 -35 -18 -88 -46 -102 -17 -9 -17 -7 -8
39 6 31 6 68 0 104 -9 53 -9 56 11 56 18 0 16 4 -12 22 -22 13 -42 40 -57 74
-20 45 -28 54 -62 63 -21 6 -43 11 -50 11 -21 0 -60 58 -67 98 -9 56 -25 62
-19 7 5 -39 2 -47 -25 -75 -28 -27 -36 -30 -95 -30 -69 0 -80 -7 -110 -66 -29
-57 -60 -69 -166 -67 -88 2 -131 -6 -131 -27 0 -4 14 -2 30 7 26 12 38 13 80
2 30 -8 50 -18 50 -27 0 -8 -17 -30 -37 -50 -21 -21 -39 -48 -40 -60 -8 -92
-152 -145 -237 -87 -25 17 -36 20 -36 11 0 -7 7 -19 15 -26 9 -7 15 -29 15
-54 0 -54 42 -139 86 -174 19 -15 34 -35 34 -44 0 -21 -18 -24 -26 -4 -4 12
-13 10 -41 -10 -65 -44 -156 -27 -200 35 -15 22 -14 23 13 20 42 -3 64 0 64 9
0 4 -13 7 -29 8 -47 2 -138 51 -160 87 -30 49 -42 114 -30 167 12 51 50 106
85 122 23 11 33 28 15 28 -4 0 -25 -12 -46 -26 l-38 -25 7 32 c13 64 55 105
119 116 34 5 35 4 39 -33 3 -21 -1 -50 -9 -64 -16 -30 -17 -118 -2 -157 13
-34 68 -93 87 -93 9 0 2 14 -18 37 -18 20 -39 52 -47 72 -26 61 2 171 43 171
8 0 21 15 29 34 17 41 50 66 85 66 30 0 50 17 50 41 0 32 35 62 80 68 38 5 46
11 64 46 24 45 60 68 95 60 18 -5 32 2 57 26 44 42 119 51 177 20 21 -10 37
-15 35 -9 -7 21 -73 48 -116 48 -44 0 -117 -30 -124 -52 -2 -6 -24 -13 -48
-14 -36 -2 -50 -9 -72 -33 -16 -17 -28 -37 -28 -45 0 -8 -16 -16 -42 -20 -54
-9 -74 -24 -92 -68 -13 -30 -23 -37 -61 -47 -34 -9 -50 -19 -65 -44 -10 -17
-25 -39 -32 -47 -36 -41 -13 128 30 220 67 143 214 238 397 259 6 0 37 -4 70
-10z m291 -320 c12 -11 43 -28 70 -37 40 -15 52 -25 68 -57 10 -22 24 -47 32
-56 8 -9 17 -46 21 -83 l6 -66 -32 16 c-21 11 -45 14 -69 11 -42 -7 -57 -20
-48 -42 5 -14 14 -16 41 -11 21 4 47 1 69 -8 34 -14 35 -15 24 -52 -5 -21 -7
-69 -4 -108 7 -80 3 -100 -49 -241 -33 -91 -56 -131 -123 -215 -48 -61 -147
-62 -233 -4 -33 22 -49 28 -45 18 5 -12 2 -15 -10 -10 -8 3 -19 6 -24 6 -5 0
-22 12 -39 26 -23 19 -31 22 -31 11 0 -21 43 -50 105 -71 153 -54 145 -49 129
-71 -20 -27 -37 -93 -29 -114 4 -11 12 0 24 37 10 28 26 61 36 72 17 19 18 19
51 -7 47 -36 45 -66 -9 -117 -105 -102 -233 -88 -594 61 -92 38 -113 51 -113
67 0 12 -3 31 -6 43 -5 18 2 26 43 47 96 48 153 145 153 259 0 67 15 65 34 -5
14 -49 27 -72 65 -110 66 -66 86 -61 23 6 -48 51 -82 124 -82 178 0 16 -5 18
-35 12 -45 -8 -60 5 -97 81 -34 73 -36 105 -7 105 16 0 19 -4 14 -20 -3 -11
-2 -28 4 -37 9 -15 10 -13 11 15 0 26 4 32 21 32 19 0 21 -4 15 -39 -4 -30 -2
-44 11 -57 12 -12 18 -13 21 -4 3 7 0 15 -5 19 -10 6 -12 91 -3 91 3 -1 14
-15 25 -33 30 -46 48 -41 60 18 6 28 21 70 33 95 12 25 22 50 22 56 0 5 13 23
30 39 16 15 32 40 35 55 5 22 13 29 40 34 41 8 90 47 112 90 21 42 29 46 95
46 46 0 62 5 85 25 34 30 32 30 59 4z m170 -305 c17 -14 17 -15 1 -10 -10 3
-39 6 -63 6 -28 0 -43 4 -39 10 10 16 79 12 101 -6z m-696 -121 c-5 -16 -10
-35 -13 -43 -3 -10 -8 -6 -18 14 -12 25 -11 30 6 42 28 21 35 17 25 -13z m590
-625 c39 -53 48 -86 66 -243 12 -95 15 -188 11 -345 -4 -204 -4 -210 9 -130
28 188 11 577 -31 676 -8 20 -14 39 -12 41 2 2 19 -8 38 -22 19 -14 48 -34 66
-45 42 -28 62 -74 73 -172 6 -46 26 -210 45 -366 23 -184 35 -324 35 -405 0
-154 -43 -535 -99 -887 -5 -32 -11 -44 -22 -41 -8 2 -36 8 -64 13 -27 5 -51
11 -53 12 -1 2 11 67 28 145 43 203 91 507 89 571 0 24 -1 24 -9 4 -5 -12 -14
-60 -20 -105 -6 -46 -15 -104 -20 -129 -5 -25 -16 -85 -25 -135 -23 -129 -65
-316 -76 -344 -9 -23 -13 -24 -82 -17 -56 5 -90 15 -152 46 -121 60 -121 60
-96 108 20 39 91 221 116 297 163 495 222 1117 135 1417 -6 21 -21 50 -34 65
l-24 27 22 12 c28 14 50 3 86 -48z m-545 -163 c44 -15 118 -34 165 -41 129
-21 199 -6 268 59 l32 31 0 -45 c0 -65 -18 -201 -40 -304 -25 -119 -97 -348
-127 -405 -7 -14 -13 -29 -13 -34 0 -28 -159 -317 -202 -368 -19 -21 -35 -28
-84 -33 l-61 -7 -33 104 c-18 57 -36 107 -40 111 -13 14 10 -102 30 -155 11
-29 18 -53 16 -55 -2 -2 -16 -1 -31 3 -32 8 -72 67 -105 154 -13 34 -24 59
-27 57 -9 -10 20 -106 47 -154 l30 -52 -33 5 c-83 15 -107 25 -107 44 0 10 5
20 12 22 25 9 -36 485 -79 621 -18 57 -35 54 -22 -4 31 -135 88 -573 77 -584
-6 -6 -162 20 -177 29 -4 3 -43 14 -86 26 -97 25 -217 28 -270 6 -21 -9 -39
-16 -41 -16 -1 0 -1 15 1 33 3 17 16 147 31 287 31 306 54 456 83 531 45 119
117 195 191 201 59 4 200 -14 200 -26 0 -12 196 -365 260 -469 23 -37 45 -66
47 -63 6 6 -88 185 -209 395 l-88 155 29 12 c16 7 34 21 40 32 10 19 15 18
123 -28 62 -26 149 -60 193 -75z m837 -70 c52 -79 80 -159 147 -427 33 -130
78 -292 101 -360 l40 -123 -32 -28 c-35 -29 -204 -117 -226 -117 -10 0 -11 10
-5 38 4 20 7 125 7 232 0 156 -6 236 -28 400 -15 113 -31 246 -37 295 -5 50
-12 102 -15 118 -9 42 8 32 48 -28z m-328 -103 c11 -180 -18 -461 -80 -772
-26 -129 -34 -160 -91 -335 -61 -190 -130 -348 -148 -341 -6 2 -37 23 -68 47
-51 37 -56 44 -45 60 127 177 235 364 226 391 -3 7 -11 -1 -19 -17 -56 -110
-112 -201 -187 -303 l-54 -72 -31 22 c-18 12 -56 40 -86 61 l-53 39 80 82
c213 216 379 528 476 896 33 124 56 251 56 306 0 24 4 44 9 44 4 0 11 -49 15
-108z m-1154 -821 c47 -11 121 -29 165 -40 44 -11 90 -21 101 -21 18 0 23 -8
27 -42 3 -24 11 -81 18 -128 l12 -86 58 -32 c32 -18 141 -92 241 -164 378
-272 373 -270 563 -278 131 -6 145 -8 225 -42 47 -19 103 -41 125 -47 22 -7
46 -14 54 -17 10 -3 11 -8 2 -18 -20 -23 -62 -25 -139 -5 -71 19 -112 18 -112
-2 0 -5 30 -41 68 -79 54 -57 89 -82 176 -128 159 -83 175 -121 34 -81 -80 23
-110 36 -210 93 -66 38 -60 16 9 -34 38 -27 89 -50 154 -70 53 -17 107 -38
120 -49 24 -19 19 -41 -9 -36 -159 33 -212 50 -282 91 -42 24 -82 44 -88 44
-27 0 -6 -18 76 -66 59 -34 112 -56 165 -68 91 -21 104 -41 20 -31 -87 10
-130 23 -215 66 -84 42 -109 49 -88 23 8 -8 54 -35 104 -59 100 -49 93 -60
-12 -19 -100 40 -158 82 -256 190 -107 116 -146 145 -234 177 -37 14 -119 44
-182 68 -188 69 -329 133 -466 209 -159 89 -189 111 -213 158 -41 82 -120 363
-137 490 -6 50 -6 52 17 52 13 0 62 -9 109 -19z m-158 -16 c4 -20 1 -25 -16
-25 -12 0 -31 6 -42 14 -16 12 -16 15 -4 19 8 3 22 8 30 10 25 9 28 8 32 -18z
m1888 -107 c29 -125 56 -184 124 -271 39 -50 44 -62 35 -79 -6 -12 -8 -37 -5
-58 4 -25 0 -48 -11 -71 -10 -20 -20 -72 -24 -124 -4 -54 -14 -107 -25 -132
l-19 -42 -92 102 c-140 155 -184 223 -227 349 -14 43 -14 59 -1 165 8 65 15
119 15 120 0 1 21 9 48 18 26 9 72 29 102 45 30 16 58 29 62 30 3 0 11 -24 18
-52z m-1325 -33 c33 -8 109 -15 168 -15 107 0 108 0 96 -21 -11 -21 -16 -22
-118 -16 -134 8 -215 26 -219 50 -4 20 -4 20 73 2z m1 -65 c1 0 -1 -20 -4 -45
-6 -57 4 -58 18 -2 11 42 12 42 50 39 l39 -4 -6 -62 c-7 -72 7 -68 22 7 l10
52 48 3 c26 2 47 -1 47 -5 0 -5 -31 -39 -69 -77 l-69 -68 -70 41 c-70 42 -82
58 -82 113 0 25 2 26 32 17 18 -5 33 -9 34 -9z m1863 -155 c23 -14 58 -25 76
-25 18 0 43 -8 56 -19 13 -10 39 -26 56 -35 18 -9 42 -33 52 -54 11 -20 32
-48 46 -61 33 -30 39 -57 30 -139 -4 -37 -6 -92 -6 -122 1 -79 -15 -118 -73
-175 -28 -28 -59 -65 -68 -83 -9 -18 -30 -37 -45 -43 -15 -6 -41 -17 -56 -25
-37 -18 -71 -18 -127 3 -57 21 -70 31 -70 54 0 10 -14 34 -31 54 l-32 36 12
72 c15 86 5 127 -32 127 -13 0 -29 -6 -35 -12 -18 -18 -32 6 -32 53 0 22 -9
47 -22 64 -13 17 -25 51 -29 79 -4 28 -13 65 -20 83 -26 65 27 126 119 138 26
3 56 11 67 17 82 47 102 48 164 13z m-702 -293 c25 -36 90 -111 143 -167 97
-102 97 -102 102 -162 6 -62 32 -126 64 -155 11 -9 42 -25 69 -35 l50 -19 0
-58 0 -59 -70 -38 c-38 -22 -90 -49 -114 -61 -100 -52 -170 -145 -202 -267 -7
-28 -16 -51 -19 -51 -3 0 -13 84 -21 188 l-14 187 40 3 c22 2 47 9 55 17 8 7
29 15 45 17 30 3 30 4 31 68 1 36 -3 73 -8 83 -5 10 -46 36 -91 58 -45 22 -87
45 -93 52 -7 6 -14 32 -16 57 -3 44 -3 45 34 51 46 7 68 25 68 55 0 27 -19 39
-73 49 -46 9 -48 13 -76 161 -22 116 -25 154 -14 194 6 22 10 18 35 -39 16
-35 49 -93 75 -129z m-1503 29 c-36 -88 -64 -179 -62 -200 2 -19 14 5 43 83
22 60 45 111 50 112 6 2 19 -3 29 -11 19 -14 19 -17 -8 -126 -15 -62 -32 -150
-38 -195 l-11 -83 -54 -11 c-74 -16 -123 -6 -123 23 0 65 47 253 90 363 40
101 37 96 66 77 17 -11 23 -21 18 -32z m1386 -88 c6 -32 14 -66 16 -75 6 -21
-14 -24 -39 -5 -15 11 -16 19 -6 75 6 34 13 62 14 62 2 0 9 -26 15 -57z
m-1151 -27 l122 -63 -61 -56 c-33 -31 -80 -70 -103 -86 -40 -27 -158 -91 -169
-91 -7 0 7 78 38 215 31 137 33 145 44 145 4 0 63 -29 129 -64z m1159 -197
c26 -10 35 -27 30 -64 -3 -25 -4 -24 -58 30 -52 54 -54 56 -25 49 17 -4 40
-11 53 -15z m1087 -286 c27 -83 28 -90 17 -166 -6 -44 -14 -83 -18 -86 -16
-16 -34 38 -34 99 0 70 -27 140 -70 184 -34 34 -34 8 -2 -45 32 -50 41 -89 22
-89 -6 0 -26 15 -46 33 -32 29 -36 38 -37 87 -2 49 0 55 19 58 12 2 32 14 44
27 l22 24 27 -20 c20 -14 35 -44 56 -106z m52 1 c12 -21 25 -59 29 -83 9 -59
-14 -211 -31 -211 -25 0 -26 18 -9 112 l16 93 -25 68 c-27 74 -16 85 20 21z
m73 -196 c0 -84 -11 -122 -29 -103 -5 6 -6 29 0 60 5 28 11 67 14 88 9 60 15
43 15 -45z"/>
<path d="M5316 5012 c5 -4 26 -23 48 -42 28 -26 35 -29 27 -13 -12 24 -58 63
-74 63 -7 0 -7 -3 -1 -8z"/>
<path d="M5190 4831 c-26 -13 -40 -32 -57 -72 -27 -66 -46 -81 -100 -77 -25 2
-38 -1 -33 -6 5 -5 27 -9 50 -9 49 0 76 22 92 75 18 61 51 88 112 89 40 1 46
3 26 9 -39 13 -53 11 -90 -9z"/>
<path d="M5555 4810 c-16 -7 -11 -9 21 -9 51 -1 80 -27 89 -81 4 -24 15 -46
28 -55 34 -24 43 -17 13 10 -14 13 -26 33 -26 45 0 37 -28 77 -61 89 -36 13
-37 13 -64 1z"/>
<path d="M4783 4455 c39 -34 96 -34 134 0 l28 26 -42 -22 c-46 -22 -92 -20
-114 7 -6 8 -17 14 -23 14 -6 0 2 -12 17 -25z"/>
<path d="M4530 4408 c-22 -37 -26 -107 -9 -141 13 -25 49 -57 64 -56 6 0 3 5
-5 12 -53 41 -66 125 -30 185 11 17 15 32 10 32 -6 0 -19 -15 -30 -32z"/>
<path d="M4581 4314 c-1 -19 6 -37 16 -45 14 -12 16 -12 8 0 -4 8 -12 28 -16
45 l-7 31 -1 -31z"/>
<path d="M4691 4222 c-2 -57 46 -122 89 -122 8 0 1 10 -17 21 -29 18 -41 41
-67 119 -2 8 -5 0 -5 -18z"/>
<path d="M5424 4609 c23 -6 51 -6 65 -1 20 7 11 9 -39 9 -61 0 -62 0 -26 -8z"/>
<path d="M5250 4571 c-11 -8 -6 -9 20 -5 19 3 66 -2 105 -11 52 -12 87 -14
140 -8 l70 8 -105 6 c-58 4 -130 10 -160 13 -33 4 -61 3 -70 -3z"/>
<path d="M5185 4480 c-22 -10 -48 -25 -57 -33 -22 -17 -24 -41 -4 -34 54 21
108 28 162 23 47 -5 64 -3 74 8 16 21 6 33 -38 46 -54 15 -92 12 -137 -10z
m134 -6 c56 -12 32 -22 -46 -21 -43 0 -89 -2 -103 -6 -14 -4 -7 2 15 13 42 20
81 24 134 14z"/>
<path d="M5469 4389 c-13 -25 -8 -79 15 -188 9 -40 14 -81 11 -92 -8 -24 -39
-33 -67 -18 -13 7 -36 15 -53 19 -21 4 -30 12 -28 24 1 12 -2 15 -9 8 -19 -19
-4 -47 27 -50 16 -2 38 -10 49 -18 30 -20 59 -17 84 9 27 29 27 43 1 148 -13
52 -19 102 -16 132 5 53 3 56 -14 26z"/>
<path d="M5193 4359 c-24 -12 -40 -25 -37 -30 3 -5 15 -2 27 6 29 20 35 19 39
-7 4 -33 52 -32 56 0 3 17 8 21 23 17 28 -9 23 10 -6 23 -36 17 -54 15 -102
-9z"/>
<path d="M5522 4354 c-12 -8 -22 -20 -22 -27 0 -8 3 -8 12 1 14 14 32 16 24 3
-10 -16 5 -41 25 -41 20 0 42 32 31 46 -4 5 1 2 11 -5 26 -20 32 -6 8 18 -25
25 -58 27 -89 5z"/>
<path d="M5073 4333 c9 -2 23 -2 30 0 6 3 -1 5 -18 5 -16 0 -22 -2 -12 -5z"/>
<path d="M5080 4300 c-13 -9 -13 -10 0 -10 8 0 22 5 30 10 13 9 13 10 0 10 -8
0 -22 -5 -30 -10z"/>
<path d="M5260 4254 c-28 -15 -37 -24 -25 -24 20 0 85 35 85 45 0 8 -12 4 -60
-21z"/>
<path d="M5524 4245 c11 -8 29 -15 40 -15 16 1 12 5 -13 15 -42 19 -52 19 -27
0z"/>
<path d="M5019 4153 c10 -21 29 -47 42 -58 l23 -20 -23 35 c-12 19 -27 45 -33
58 -6 12 -15 22 -20 22 -5 0 0 -17 11 -37z"/>
<path d="M5271 4099 c-12 -16 -41 -39 -62 -50 -41 -20 -52 -35 -20 -24 17 5
18 1 15 -42 l-3 -48 10 45 c6 26 24 60 43 80 44 48 60 70 50 69 -5 0 -20 -14
-33 -30z"/>
<path d="M5520 4085 c0 -13 32 -66 36 -62 6 6 -23 67 -31 67 -3 0 -5 -2 -5 -5z"/>
<path d="M5264 3991 c10 -16 106 -33 162 -29 88 8 86 25 -3 24 -43 -1 -97 2
-121 7 -26 4 -41 4 -38 -2z"/>
<path d="M5532 3970 c0 -14 2 -19 5 -12 2 6 2 18 0 25 -3 6 -5 1 -5 -13z"/>
<path d="M5350 3910 c20 -13 87 -13 95 0 4 6 -16 10 -52 10 -41 0 -54 -3 -43
-10z"/>
<path d="M5203 3703 c-28 -31 -53 -83 -52 -110 0 -10 11 4 24 31 14 27 31 56
38 65 38 45 30 56 -10 14z"/>
<path d="M5656 3532 c-4 -6 -3 -29 3 -49 17 -70 47 -384 52 -558 l1 -40 10 45
c22 99 -38 648 -66 602z"/>
<path d="M5567 2480 c-3 -14 -20 -83 -37 -155 -18 -71 -48 -177 -67 -235 -52
-154 -63 -190 -57 -190 11 0 65 133 97 240 40 131 80 322 74 348 -3 13 -5 11
-10 -8z"/>
<path d="M4650 3594 c0 -15 163 -197 261 -289 100 -94 248 -201 315 -227 59
-24 69 -16 15 12 -125 63 -264 180 -488 410 -56 58 -103 100 -103 94z"/>
<path d="M4765 3565 c95 -88 295 -200 405 -228 84 -22 94 -6 13 19 -87 26
-209 87 -322 161 -128 83 -141 90 -96 48z"/>
<path d="M5341 3349 c-26 -23 -63 -45 -88 -52 -45 -12 -58 -27 -23 -27 47 0
137 57 161 101 15 29 -2 22 -50 -22z"/>
<path d="M4654 3295 c23 -94 38 -281 34 -402 -4 -99 -3 -132 6 -123 19 19 14
330 -8 430 -10 47 -22 92 -28 100 -7 12 -8 11 -4 -5z"/>
<path d="M5051 3070 c28 -58 158 -208 200 -230 33 -18 21 1 -43 70 -35 36 -87
93 -116 126 -29 32 -48 48 -41 34z"/>
<path d="M5015 2581 c3 -66 10 -119 16 -125 8 -8 10 14 5 85 -11 147 -27 179
-21 40z"/>
<path d="M4560 2271 c0 -12 56 -34 72 -29 8 3 0 12 -19 21 -36 19 -53 21 -53
8z"/>
<path d="M4370 2132 c0 -34 62 -112 89 -112 11 0 9 5 -7 16 -13 9 -36 37 -52
62 -16 26 -30 41 -30 34z"/>
<path d="M5480 1546 c0 -9 98 -76 111 -76 8 0 3 9 -11 20 -31 24 -100 63 -100
56z"/>
<path d="M5480 1443 c45 -51 88 -84 59 -46 -29 39 -65 75 -84 85 -11 6 0 -12
25 -39z"/>
<path d="M5997 2183 c-20 -14 -37 -30 -37 -35 0 -11 56 21 77 45 24 25 3 21
-40 -10z"/>
<path d="M4201 1968 c1 -141 4 -198 10 -168 11 67 11 368 -1 375 -7 4 -10 -67
-9 -207z"/>
<path d="M5072 1264 c-208 -322 -389 -512 -584 -611 -41 -21 -73 -28 -138 -33
-82 -5 -84 -5 -51 -17 46 -18 73 -16 150 7 180 53 416 283 611 595 59 94 95
164 88 170 -2 2 -36 -48 -76 -111z"/>
<path d="M4525 1253 c-73 -31 -158 -40 -221 -24 -57 15 -67 8 -23 -14 67 -35
218 -11 289 45 31 24 29 24 -45 -7z"/>
<path d="M6948 785 c-3 -6 -9 -28 -13 -50 -4 -22 -18 -95 -31 -163 -27 -139
-27 -142 -15 -142 14 0 28 50 51 185 20 118 24 193 8 170z"/>
<path d="M6230 678 c0 -2 -9 -49 -20 -106 -23 -119 -24 -135 -8 -130 12 4 47
152 48 206 0 17 -4 32 -10 32 -5 0 -10 -1 -10 -2z"/>
</g>
</svg>
