<?xml version="1.0" standalone="no"?>
<!DOCTYPE svg PUBLIC "-//W3C//DTD SVG 20010904//EN"
 "http://www.w3.org/TR/2001/REC-SVG-20010904/DTD/svg10.dtd">
<svg version="1.0" xmlns="http://www.w3.org/2000/svg"
 width="1024.000000pt" height="559.000000pt" viewBox="0 0 1024.000000 559.000000"
 preserveAspectRatio="xMidYMid meet">
<metadata>
Created by potrace 1.16, written by Peter Selinger 2001-2019
</metadata>
<g transform="translate(0.000000,559.000000) scale(0.100000,-0.100000)"
fill="#000000" stroke="none">
<path d="M5090 5148 c-28 -19 -49 -23 -107 -23 -79 0 -111 -16 -148 -73 -11
-17 -32 -34 -47 -37 -39 -9 -76 -41 -83 -73 -3 -15 -22 -40 -41 -56 -56 -45
-79 -124 -55 -189 7 -18 5 -31 -10 -53 -27 -41 -25 -116 3 -162 16 -26 21 -48
19 -87 -3 -67 16 -112 73 -173 29 -31 46 -58 46 -74 0 -30 43 -76 78 -85 24
-6 25 -6 19 -97 -7 -112 -20 -157 -57 -200 -34 -38 -65 -54 -255 -132 -386
-157 -405 -178 -575 -599 -39 -99 -101 -246 -136 -327 -35 -80 -64 -159 -64
-174 0 -21 14 -41 55 -81 l56 -52 -16 -98 c-9 -54 -25 -152 -36 -218 -60 -350
-62 -455 -13 -985 20 -225 22 -417 5 -553 -10 -80 -11 -111 -3 -119 16 -16 17
-8 37 174 19 167 18 185 -20 613 -34 372 -31 563 15 810 10 55 23 132 29 170
35 233 45 285 51 285 4 0 56 -30 116 -66 60 -37 142 -82 182 -101 39 -20 72
-39 72 -43 0 -5 -23 -77 -51 -162 -51 -151 -52 -156 -60 -317 -10 -210 -13
-233 -59 -491 -44 -243 -65 -425 -55 -478 4 -19 29 -78 56 -131 43 -82 52
-109 62 -188 8 -69 15 -93 25 -93 16 0 14 43 -10 188 -9 54 -9 75 -1 83 9 9
14 5 19 -15 3 -14 11 -26 16 -26 12 0 3 47 -22 116 -56 154 -64 246 -29 339
24 67 39 89 39 59 0 -11 7 -29 15 -40 14 -18 14 -18 15 7 0 15 -12 67 -27 115
-37 123 -36 201 1 274 16 30 38 66 49 80 l20 25 -7 -55 c-3 -30 -6 -63 -6 -73
0 -14 -5 -17 -21 -12 -29 10 -20 -16 12 -33 43 -22 117 2 218 71 113 77 362
345 468 502 301 448 518 1041 540 1476 7 135 -4 184 -43 193 -35 9 -20 26 24
26 124 0 174 -147 174 -510 0 -266 -42 -593 -118 -898 -24 -101 -105 -351
-153 -472 -14 -36 -16 -48 -6 -36 20 26 106 248 138 356 65 218 115 462 148
730 7 52 12 201 12 330 0 198 -3 248 -20 320 -11 47 -23 93 -27 103 -12 26 24
22 65 -8 19 -13 45 -29 59 -35 86 -35 105 -64 119 -180 17 -135 32 -514 26
-645 -18 -361 -40 -594 -81 -835 -89 -525 -222 -947 -426 -1349 -47 -94 -74
-159 -69 -164 6 -6 20 8 37 34 34 54 164 325 189 394 10 28 22 54 27 60 4 5 8
-95 8 -223 0 -161 3 -232 11 -232 8 0 10 77 8 257 l-2 258 61 189 c34 104 62
197 62 207 0 10 4 20 9 23 9 6 10 -10 42 -399 11 -137 21 -254 24 -260 16 -43
-14 498 -35 614 -6 30 -10 71 -10 91 0 33 54 287 63 296 2 2 16 -50 30 -116
43 -191 82 -507 117 -930 17 -205 21 -240 33 -240 13 0 4 167 -23 458 -34 363
-61 566 -100 727 -43 183 -44 193 -26 290 9 50 16 105 16 123 0 17 3 32 8 32
4 0 26 -36 50 -79 87 -163 224 -250 328 -210 45 17 157 114 221 192 103 124
185 266 299 515 137 301 133 294 220 341 191 104 287 188 344 305 22 46 40 94
40 107 0 13 12 47 27 76 24 46 26 54 14 76 -8 14 -11 33 -7 43 4 9 -1 28 -9
41 -13 20 -22 23 -46 18 -18 -4 -36 -2 -44 5 -27 22 -67 0 -150 -80 -45 -45
-118 -102 -165 -130 -77 -46 -85 -49 -88 -31 -2 11 5 37 16 58 40 79 32 156
-18 183 -31 16 -51 -5 -84 -89 -15 -38 -45 -100 -68 -137 -52 -87 -78 -168
-78 -248 0 -57 -4 -69 -58 -162 -32 -56 -86 -139 -119 -185 -68 -94 -220 -252
-234 -243 -20 12 -7 52 26 84 19 19 35 40 35 48 0 8 -33 98 -74 201 -41 102
-84 215 -96 251 -85 249 -164 402 -236 456 -19 15 -34 31 -34 36 0 24 -47 72
-89 92 -26 12 -60 31 -75 43 -15 13 -44 25 -65 28 -20 3 -43 10 -51 16 -8 5
-28 18 -45 29 -34 22 -91 26 -130 8 -35 -16 -45 -2 -38 50 5 40 10 46 49 62
77 33 125 142 164 369 18 104 20 134 11 186 -6 35 -8 96 -5 141 6 67 11 84 35
112 32 36 38 86 17 125 -7 12 -11 48 -9 80 3 72 -22 116 -80 145 -24 12 -47
34 -57 53 -29 55 -64 74 -142 74 -53 0 -73 4 -90 20 -15 13 -39 20 -83 22 -51
3 -68 0 -97 -19z m155 -24 c11 -8 29 -20 40 -28 16 -12 28 -13 62 -3 58 15
104 -7 133 -63 12 -24 32 -45 48 -51 65 -25 101 -87 82 -143 -9 -30 -9 -39 4
-58 21 -29 20 -77 0 -107 -17 -23 -17 -23 -37 45 -11 38 -19 88 -19 112 -1 23
-3 42 -5 42 -3 0 -14 -11 -25 -25 -11 -14 -27 -25 -37 -25 -25 0 -61 37 -61
63 0 33 -11 67 -21 67 -5 0 -9 -17 -9 -37 -1 -42 -13 -64 -47 -81 -34 -18 -43
-14 -43 18 0 36 -39 80 -70 80 -16 0 -20 -6 -20 -30 0 -70 -86 -105 -136 -55
-14 14 -27 25 -29 25 -3 0 -5 -15 -5 -33 0 -43 -25 -77 -57 -77 -22 0 -24 3
-19 25 7 29 -10 34 -19 5 -9 -29 12 -60 41 -60 28 0 74 40 74 65 0 18 -3 17
40 5 66 -19 130 21 130 82 0 16 4 28 9 28 19 0 33 -31 29 -67 -3 -38 -3 -38
36 -41 28 -2 47 3 68 18 l30 22 21 -20 c12 -11 38 -22 57 -24 31 -3 36 -8 52
-51 10 -26 21 -72 24 -103 l7 -55 -27 11 c-38 14 -91 13 -105 -3 -16 -20 -4
-27 43 -27 82 0 82 -1 86 -103 1 -51 2 -119 2 -152 -1 -84 -38 -256 -73 -342
-42 -99 -72 -118 -189 -118 -78 0 -91 3 -160 38 -146 73 -208 134 -236 236
-27 101 -28 102 -74 95 -36 -6 -43 -3 -71 27 -39 42 -69 109 -69 155 0 35 35
84 60 84 11 0 44 -31 88 -85 21 -25 24 -26 45 -12 20 13 22 23 21 92 -1 68 1
80 22 102 28 31 33 96 8 131 -24 35 -33 26 -18 -18 15 -45 7 -80 -28 -117 -15
-17 -19 -29 -13 -50 18 -72 18 -103 -1 -110 -12 -4 -22 1 -33 18 -45 69 -96
88 -140 52 -71 -58 -20 -244 79 -290 22 -10 40 -25 40 -34 0 -9 3 -31 6 -48 5
-23 3 -31 -8 -31 -21 0 -55 40 -63 75 -4 17 -24 48 -45 70 -55 58 -70 94 -70
167 0 46 -5 71 -20 93 -26 39 -26 101 0 142 15 26 17 38 10 59 -26 67 1 149
60 179 21 11 30 23 30 41 0 32 45 74 80 74 21 0 30 7 40 31 27 63 131 101 192
68 16 -9 25 -6 47 15 49 46 107 54 156 20z m-311 -1104 c56 -85 241 -189 352
-198 l66 -5 -7 -76 c-5 -53 -3 -85 6 -106 l13 -30 4 38 c4 43 8 44 57 16 36
-21 36 -22 33 -82 -3 -59 -5 -62 -43 -88 -112 -77 -267 -70 -515 20 -92 34
-241 110 -247 126 -1 6 22 23 53 39 61 32 107 73 129 116 25 48 38 168 32 295
l-6 120 24 -73 c12 -40 35 -90 49 -112z m-295 -409 c37 -35 186 -109 291 -144
136 -47 211 -60 314 -55 82 3 103 8 155 35 72 37 69 46 41 -123 -36 -224 -105
-459 -207 -709 -56 -138 -186 -391 -258 -501 l-55 -84 -59 0 -59 0 -31 73
c-39 94 -83 255 -106 382 -22 127 -37 172 -29 90 6 -69 26 -180 49 -280 17
-73 71 -223 86 -240 20 -21 6 -24 -68 -19 -71 5 -80 9 -107 37 -31 35 -72 118
-91 187 -13 43 -13 44 -14 12 -1 -42 29 -129 63 -178 14 -21 24 -40 21 -42 -7
-7 -139 20 -168 35 -31 15 -61 72 -72 135 l-7 37 35 -6 c28 -4 36 -2 40 13 12
45 27 127 42 229 9 63 25 126 36 147 28 52 47 118 64 223 18 106 18 125 5 125
-5 0 -10 -11 -10 -24 0 -40 -28 -188 -48 -251 l-19 -60 0 170 c-1 94 -6 186
-11 205 -8 27 -10 0 -11 -125 -1 -154 -21 -342 -56 -535 -8 -47 -15 -87 -15
-89 0 -20 -191 69 -320 148 -116 72 -201 110 -242 111 -15 0 -29 4 -32 8 -3 4
15 53 40 108 25 54 84 196 131 314 172 430 212 482 453 584 58 24 125 53 150
65 25 11 46 21 46 21 1 0 16 -13 33 -29z m2261 -199 c0 -25 -11 -73 -25 -108
-30 -75 -25 -99 19 -90 52 11 193 107 269 184 68 68 101 91 114 78 13 -13
-138 -181 -205 -228 l-23 -16 30 -47 c17 -27 35 -63 42 -82 6 -18 15 -33 20
-33 24 0 83 58 106 104 30 60 51 86 70 86 21 0 15 -31 -21 -105 -55 -114 -173
-218 -355 -310 -63 -32 -89 -51 -88 -63 0 -9 -25 -70 -56 -136 -31 -65 -57
-120 -57 -122 0 -18 -170 -340 -216 -411 -61 -92 -214 -255 -274 -292 -104
-63 -232 21 -334 219 -69 132 -64 182 21 224 74 36 146 82 215 139 54 44 58
46 68 27 9 -16 3 -29 -36 -77 -50 -61 -84 -130 -84 -169 0 -34 17 -30 25 6 12
54 81 144 211 275 135 136 216 244 302 402 45 83 49 97 55 178 5 65 13 101 30
134 13 25 44 84 68 131 25 47 53 105 62 129 14 37 19 42 32 31 9 -8 15 -29 15
-58z m465 48 c9 -14 -12 -48 -35 -55 -11 -4 -46 -41 -77 -83 -58 -80 -119
-142 -138 -142 -5 0 -16 9 -23 21 -12 19 -11 23 10 37 24 16 88 80 175 175 49
55 75 68 88 47z m-1410 -91 c49 -71 62 -101 180 -424 20 -55 62 -163 92 -239
l56 -140 -77 -73 c-74 -71 -243 -191 -300 -213 -27 -10 -27 -9 -22 17 3 16 10
98 16 183 6 90 18 186 30 230 10 41 22 106 24 145 6 75 0 62 -26 -60 -12 -55
-13 -37 -19 235 -6 270 -11 351 -26 404 -11 38 23 8 72 -65z m1420 11 c10 -16
-34 -90 -53 -90 -31 0 -62 -30 -92 -90 -33 -65 -78 -109 -92 -88 -16 26 -7 47
30 74 21 15 53 48 72 73 47 62 111 131 121 131 4 0 11 -4 14 -10z m-3505 -887
c4 -4 4 -19 1 -32 l-7 -24 -37 32 c-20 18 -37 37 -37 41 0 10 69 -5 80 -17z
m467 -378 c6 -11 21 -29 32 -39 29 -26 27 -81 -3 -151 -14 -30 -36 -100 -49
-155 -21 -82 -32 -107 -65 -147 -22 -26 -47 -61 -56 -78 l-17 -30 5 40 c3 22
9 114 12 205 7 163 7 167 57 320 l50 155 12 -50 c6 -27 16 -59 22 -70z m426
-111 c136 -7 137 -7 120 -27 -17 -18 -27 -19 -148 -14 -120 6 -282 28 -305 42
-6 3 -10 14 -10 24 0 16 5 16 103 -1 56 -9 164 -20 240 -24z m-266 -48 c3 -3
-5 -32 -16 -66 -26 -74 -51 -191 -50 -228 0 -15 12 16 25 68 13 52 34 124 45
159 l21 63 45 -5 c24 -2 46 -7 49 -10 3 -3 1 -31 -5 -63 -6 -32 -11 -74 -10
-93 l1 -36 8 35 c5 19 14 63 20 97 l12 61 97 -5 c53 -3 97 -7 99 -8 5 -4 -98
-125 -178 -209 -123 -129 -296 -256 -349 -256 -35 0 35 365 91 474 18 36 22
38 55 33 20 -4 38 -8 40 -11z m-324 -680 l17 -64 -32 -68 c-29 -62 -32 -79
-33 -164 0 -67 5 -110 18 -147 11 -32 17 -72 15 -105 l-3 -53 -28 47 c-45 74
-50 106 -38 237 6 65 18 155 26 202 9 46 18 105 22 132 3 26 9 47 12 47 4 0
14 -29 24 -64z"/>
<path d="M5128 4596 c-47 -17 -88 -43 -88 -56 0 -13 -4 -13 58 10 32 12 76 20
117 20 63 0 91 14 64 31 -21 13 -109 10 -151 -5z"/>
<path d="M5385 4538 c-4 -9 4 -50 18 -90 68 -201 59 -234 -58 -212 -22 4 -46
14 -53 23 -11 14 -12 13 -10 -9 2 -20 10 -26 43 -33 22 -4 52 -10 68 -14 17
-3 36 1 52 11 20 13 25 25 25 60 0 54 -75 288 -85 264z"/>
<path d="M5133 4500 c-24 -10 -43 -24 -43 -31 0 -6 6 -9 13 -6 6 3 20 8 29 12
12 5 17 0 20 -17 2 -15 11 -24 26 -26 18 -3 23 2 28 28 5 24 10 29 25 25 33
-11 21 13 -12 24 -40 14 -36 14 -86 -9z"/>
<path d="M5440 4495 c-10 -12 -10 -15 4 -15 9 0 16 -6 16 -14 0 -7 7 -20 16
-27 14 -11 18 -10 30 6 7 11 18 26 24 33 6 7 8 17 5 22 -10 16 -81 12 -95 -5z"/>
<path d="M4743 4443 c-7 -2 -13 -14 -13 -26 1 -20 2 -20 11 -4 14 24 26 21 45
-8 15 -22 15 -29 4 -51 -12 -22 -11 -27 8 -46 23 -23 43 -18 23 6 -7 8 -9 25
-6 39 8 29 -16 81 -40 91 -9 3 -17 6 -18 5 -1 0 -8 -3 -14 -6z"/>
<path d="M4902 4325 c0 -16 2 -22 5 -12 2 9 2 23 0 30 -3 6 -5 -1 -5 -18z"/>
<path d="M5174 4182 c-36 -28 -59 -92 -34 -92 6 0 10 10 10 22 0 12 12 34 27
50 30 32 28 45 -3 20z"/>
<path d="M4951 4124 c0 -11 3 -14 6 -6 3 7 2 16 -1 19 -3 4 -6 -2 -5 -13z"/>
<path d="M5214 4116 c27 -22 73 -29 161 -24 117 6 115 25 -2 24 -54 -1 -116 3
-138 7 -37 8 -39 7 -21 -7z"/>
<path d="M4992 4100 c0 -14 2 -19 5 -12 2 6 2 18 0 25 -3 6 -5 1 -5 -13z"/>
<path d="M4981 4034 c0 -11 3 -14 6 -6 3 7 2 16 -1 19 -3 4 -6 -2 -5 -13z"/>
<path d="M5022 4020 c0 -14 2 -19 5 -12 2 6 2 18 0 25 -3 6 -5 1 -5 -13z"/>
<path d="M5300 4031 c0 -9 33 -21 61 -21 8 0 24 7 35 15 17 13 14 14 -38 15
-32 0 -58 -4 -58 -9z"/>
<path d="M5062 3990 c0 -14 2 -19 5 -12 2 6 2 18 0 25 -3 6 -5 1 -5 -13z"/>
<path d="M5101 3964 c0 -11 3 -14 6 -6 3 7 2 16 -1 19 -3 4 -6 -2 -5 -13z"/>
<path d="M5140 3936 c0 -8 4 -17 9 -20 5 -4 7 3 4 14 -6 23 -13 26 -13 6z"/>
<path d="M5192 3910 c0 -14 2 -19 5 -12 2 6 2 18 0 25 -3 6 -5 1 -5 -13z"/>
<path d="M5362 3905 c0 -16 2 -22 5 -12 2 9 2 23 0 30 -3 6 -5 -1 -5 -18z"/>
<path d="M5241 3894 c0 -11 3 -14 6 -6 3 7 2 16 -1 19 -3 4 -6 -2 -5 -13z"/>
<path d="M5281 3894 c0 -11 3 -14 6 -6 3 7 2 16 -1 19 -3 4 -6 -2 -5 -13z"/>
<path d="M4686 3499 c10 -12 54 -48 97 -80 146 -110 304 -189 376 -189 32 1
27 4 -34 24 -117 38 -250 114 -382 217 -66 52 -89 63 -57 28z"/>
<path d="M4610 3495 c0 -15 174 -283 253 -388 90 -121 264 -307 287 -307 7 0
-31 46 -85 101 -107 112 -250 299 -369 482 -68 105 -86 128 -86 112z"/>
<path d="M5360 3275 c-25 -31 -113 -88 -168 -111 -48 -20 -53 -24 -28 -24 55
0 178 78 206 131 13 23 7 25 -10 4z"/>
<path d="M4881 2423 c-1 -16 29 -147 35 -153 8 -7 -8 79 -22 124 -7 23 -13 36
-13 29z"/>
<path d="M6905 3038 c-42 -15 -95 -56 -95 -75 0 -11 9 -7 33 14 32 28 66 41
162 62 l40 9 -55 0 c-30 0 -68 -4 -85 -10z"/>
<path d="M4592 1710 c0 -14 2 -19 5 -12 2 6 2 18 0 25 -3 6 -5 1 -5 -13z"/>
<path d="M5755 3080 c0 -365 6 -395 24 -124 8 115 8 197 0 290 -19 228 -24
192 -24 -166z"/>
<path d="M5396 2432 c-83 -273 -265 -668 -401 -873 -222 -333 -469 -550 -644
-566 -42 -4 -66 -1 -90 12 -40 20 -55 10 -23 -16 102 -82 320 15 535 240 261
273 512 742 628 1174 25 91 21 114 -5 29z"/>
<path d="M5710 2408 c-133 -761 -309 -1250 -635 -1773 -61 -99 -115 -187 -119
-195 -16 -33 58 60 108 135 252 379 443 822 557 1293 53 219 121 612 107 612
-3 0 -11 -33 -18 -72z"/>
<path d="M4020 2007 c0 -12 42 -97 50 -102 14 -9 12 0 -11 50 -18 39 -39 66
-39 52z"/>
<path d="M4699 1394 c-38 -41 -138 -113 -204 -147 -51 -27 -71 -31 -133 -32
-63 0 -70 -2 -55 -13 28 -22 129 -10 193 23 79 40 243 176 228 190 -2 3 -15
-7 -29 -21z"/>
<path d="M5081 1270 c-41 -64 -103 -157 -139 -206 -83 -111 -278 -308 -357
-359 -74 -49 -160 -84 -202 -85 -17 0 -35 -5 -39 -12 -5 -8 8 -10 51 -5 170
17 416 227 619 526 59 87 151 250 145 255 -2 2 -37 -49 -78 -114z"/>
<path d="M4052 488 c0 -13 -3 -34 -7 -48 -6 -23 -5 -24 8 -7 18 22 23 22 30
-3 3 -11 10 -20 17 -20 7 0 9 8 5 23 -20 65 -53 100 -53 55z"/>
</g>
</svg>
