<?xml version="1.0" standalone="no"?>
<!DOCTYPE svg PUBLIC "-//W3C//DTD SVG 20010904//EN"
 "http://www.w3.org/TR/2001/REC-SVG-20010904/DTD/svg10.dtd">
<svg version="1.0" xmlns="http://www.w3.org/2000/svg"
 width="1024.000000pt" height="559.000000pt" viewBox="0 0 1024.000000 559.000000"
 preserveAspectRatio="xMidYMid meet">
<metadata>
Created by potrace 1.16, written by Peter Selinger 2001-2019
</metadata>
<g transform="translate(0.000000,559.000000) scale(0.100000,-0.100000)"
fill="#000000" stroke="none">
<path d="M5025 5141 c-16 -10 -39 -28 -49 -40 -13 -14 -31 -21 -56 -21 -50 0
-101 -35 -125 -88 -11 -23 -29 -45 -40 -48 -35 -11 -73 -55 -80 -92 -4 -21
-14 -45 -23 -56 -11 -11 -17 -35 -17 -66 0 -34 -6 -54 -20 -70 -29 -32 -28
-127 2 -168 14 -19 18 -33 12 -43 -18 -28 -10 -86 16 -117 14 -17 25 -40 25
-53 1 -33 23 -69 50 -84 13 -7 28 -28 34 -46 8 -24 22 -39 50 -53 l38 -19 -4
-66 c-3 -36 -12 -83 -21 -103 -16 -38 -16 -38 -77 -38 -67 0 -115 -16 -144
-49 -15 -16 -31 -21 -68 -21 -52 0 -97 -18 -138 -54 -14 -13 -44 -28 -67 -34
-62 -18 -133 -71 -175 -130 -72 -104 -136 -300 -159 -487 -9 -71 -24 -120 -70
-232 -33 -78 -59 -150 -59 -161 0 -11 17 -39 38 -62 l38 -43 -18 -81 c-52
-237 -58 -403 -17 -476 21 -37 21 -38 5 -326 -9 -159 -18 -338 -21 -399 -12
-224 -35 -577 -45 -667 -12 -117 -13 -211 -1 -204 19 12 50 391 76 926 17 369
32 601 39 608 8 8 105 -79 101 -91 -2 -7 -6 -122 -8 -257 -6 -277 7 -228 20
77 l8 182 55 -35 c30 -19 71 -42 90 -51 19 -9 36 -18 38 -19 12 -8 -29 -95
-60 -128 -21 -23 -52 -68 -68 -100 -34 -68 -39 -140 -16 -238 13 -55 12 -60
-10 -103 -61 -122 -70 -244 -26 -370 17 -49 19 -69 11 -100 -14 -59 -24 -345
-12 -345 6 0 13 53 17 127 4 71 11 146 15 168 l6 40 18 -63 c17 -60 37 -83 37
-42 0 12 -18 76 -39 143 -69 213 -72 278 -16 402 l22 50 8 -40 c4 -22 12 -47
17 -55 13 -20 1 120 -13 157 -6 15 -13 67 -16 115 -5 80 -4 91 21 140 14 29
35 64 47 78 l21 25 -6 -34 c-3 -18 -6 -54 -6 -80 -1 -43 -2 -45 -15 -27 -15
19 -15 19 -15 -2 0 -32 54 -62 110 -62 95 0 183 36 314 127 88 62 92 62 166 3
20 -16 48 -32 62 -35 l26 -7 -20 -45 c-14 -32 -19 -59 -15 -89 4 -42 2 -47
-56 -111 -94 -105 -166 -171 -238 -218 -151 -100 -312 -113 -377 -30 -15 19
-22 23 -22 12 0 -29 50 -76 93 -88 83 -22 213 10 319 80 71 47 195 163 265
248 30 37 41 43 73 43 42 0 55 11 66 55 4 17 11 38 16 48 8 17 11 16 40 -4
l31 -22 -6 -105 c-5 -100 -6 -106 -43 -160 -70 -102 -190 -246 -266 -318 -138
-131 -277 -208 -400 -221 -63 -7 -63 -7 -23 -14 168 -30 450 173 659 474 l61
89 7 -54 c3 -29 6 -139 7 -244 l1 -192 -81 -108 c-67 -91 -73 -101 -32 -59 26
28 63 68 80 90 l32 40 1 -112 c0 -62 4 -113 9 -113 16 0 21 192 17 601 l-5
406 35 16 c19 10 44 17 55 17 12 0 34 8 50 17 42 25 45 10 9 -43 -59 -85 -61
-98 -67 -576 -4 -292 -3 -438 4 -438 15 0 23 87 23 262 l0 158 90 182 c183
374 307 731 375 1083 29 151 65 388 59 394 -4 4 -6 -7 -40 -189 -88 -480 -217
-873 -422 -1290 l-57 -115 -3 150 c-3 183 9 273 47 340 27 47 31 50 65 47 31
-3 38 1 56 30 11 18 26 51 32 74 9 33 18 44 45 53 47 17 56 56 19 88 -15 13
-33 23 -41 23 -7 0 -24 14 -37 31 l-24 30 46 117 c45 113 83 232 76 239 -1 2
-20 -43 -41 -99 -21 -57 -50 -132 -66 -167 l-29 -64 -36 37 c-29 29 -42 36
-75 36 l-39 0 29 58 c160 316 282 763 312 1144 19 234 2 527 -35 628 -8 22 5
37 42 45 31 6 33 5 57 -47 73 -161 75 -503 4 -937 -11 -68 -17 -126 -14 -129
3 -3 5 -1 5 5 0 5 9 52 20 103 32 147 48 263 61 426 15 182 1 369 -35 494 -13
44 -21 80 -19 80 19 0 62 -35 71 -57 44 -111 67 -324 67 -627 0 -170 3 -242 8
-210 5 27 9 148 10 269 1 179 -3 248 -21 372 -13 84 -25 160 -28 168 -19 48
79 -24 104 -77 32 -65 42 -151 49 -393 23 -852 -149 -1778 -456 -2456 -36 -80
-100 -218 -113 -241 -5 -12 -5 -18 1 -18 19 0 96 150 199 390 8 19 11 -25 13
-185 1 -148 4 -192 9 -150 4 33 8 139 9 235 l1 175 63 190 c35 105 72 222 83
260 l19 70 6 -55 c4 -30 12 -165 19 -300 6 -135 15 -274 20 -310 7 -61 8 -58
9 50 1 139 -15 463 -29 578 -14 107 -6 150 29 163 14 5 34 14 43 19 10 6 20
10 22 10 12 0 60 -331 80 -565 30 -342 31 -372 6 -479 -12 -53 -20 -100 -17
-103 15 -14 28 19 57 145 58 252 68 290 95 347 37 78 73 109 214 189 67 38
129 80 138 93 20 31 12 109 -13 133 -11 9 -38 22 -61 29 -24 6 -52 24 -67 41
-47 57 -59 206 -22 278 10 20 16 58 16 109 1 44 7 91 15 108 l13 30 1 -41 c1
-25 9 -51 21 -67 11 -14 20 -37 20 -52 0 -39 29 -93 53 -101 12 -4 23 -2 25 5
5 16 30 13 40 -5 20 -35 -20 -144 -53 -144 -8 0 -15 -5 -15 -11 0 -6 12 -9 27
-7 21 2 35 -5 60 -33 18 -19 37 -48 42 -62 6 -15 23 -32 38 -37 16 -6 45 -20
66 -31 36 -20 56 -20 101 -3 13 5 16 -2 16 -36 0 -23 7 -56 15 -74 15 -32 60
-66 88 -66 10 0 16 -17 20 -61 5 -60 26 -99 53 -99 7 0 18 -8 23 -19 7 -12 26
-20 60 -25 40 -5 50 -11 54 -29 11 -45 28 -226 35 -366 5 -111 10 -145 21
-149 12 -4 13 19 8 144 -7 165 -24 334 -37 369 -7 18 -4 24 16 34 21 9 24 17
24 59 0 26 -6 56 -14 67 -7 11 -17 35 -21 53 -3 18 -17 45 -29 60 -13 15 -31
42 -40 59 -9 18 -29 39 -44 47 -15 8 -35 23 -46 35 -10 11 -34 25 -52 31 l-34
11 24 47 c14 26 33 52 45 59 34 21 75 103 82 163 3 30 12 82 19 115 15 73 3
129 -39 178 -15 17 -35 53 -45 79 -28 77 -113 138 -191 138 -20 0 -53 9 -75
20 -49 25 -116 26 -155 1 -17 -10 -55 -20 -85 -23 -40 -4 -59 -12 -75 -29 -12
-13 -35 -34 -52 -46 l-30 -22 -14 27 c-7 15 -28 50 -45 78 -57 92 -66 115 -88
240 l-22 123 48 52 c26 28 48 57 48 63 0 6 -18 62 -41 125 -22 63 -69 216
-105 339 -52 182 -77 250 -132 361 -65 132 -69 137 -122 168 -30 17 -71 44
-90 58 -19 15 -47 29 -62 32 -34 7 -35 17 -3 78 15 28 26 65 26 89 1 22 1 64
1 91 0 28 0 140 -2 250 -3 239 4 313 33 336 13 11 22 32 24 60 3 24 7 64 10
89 4 37 1 49 -16 64 -12 11 -21 31 -21 48 0 44 -26 97 -55 110 -15 7 -36 30
-47 52 -26 52 -44 65 -88 66 -25 0 -43 9 -67 32 -29 29 -40 32 -87 32 -29 -1
-61 -6 -71 -12 -14 -7 -28 -5 -54 9 -45 24 -107 24 -146 0z m149 -30 c26 -18
31 -18 64 -4 51 21 111 11 138 -23 17 -20 31 -27 64 -28 46 -3 80 -31 80 -67
0 -12 14 -28 35 -40 42 -25 55 -46 55 -88 0 -17 11 -47 25 -67 15 -23 23 -44
19 -53 -4 -9 -9 -40 -12 -69 -5 -56 -19 -77 -26 -40 -2 13 -9 49 -15 81 -5 32
-21 83 -35 112 -28 61 -97 135 -126 135 -11 0 -20 6 -20 13 0 8 -10 22 -21 33
-22 19 -22 19 -10 -3 14 -28 14 -66 -1 -81 -7 -7 -29 -12 -49 -12 -38 0 -58
13 -39 25 17 10 11 54 -10 75 -13 13 -32 20 -52 19 l-33 -1 29 -7 c16 -3 38
-18 48 -32 17 -22 18 -30 8 -49 l-12 -22 -26 25 c-91 85 -215 82 -309 -8 -38
-37 -43 -47 -43 -87 0 -33 8 -56 30 -89 16 -24 30 -57 30 -72 0 -30 -39 -77
-65 -77 -8 0 -15 -4 -15 -10 0 -13 4 -13 45 4 63 27 73 93 25 165 -17 24 -30
57 -30 73 0 92 149 164 255 124 25 -10 51 -25 58 -34 18 -26 63 -42 112 -42
35 0 48 5 64 26 16 20 24 23 39 15 29 -16 80 -77 97 -118 21 -50 45 -157 45
-200 0 -31 -2 -34 -15 -23 -26 21 -104 18 -121 -4 -20 -27 -1 -46 47 -46 21 0
48 -5 61 -10 22 -10 23 -17 25 -123 1 -89 -3 -126 -19 -179 -11 -38 -25 -68
-30 -68 -5 0 -17 19 -28 43 -11 23 -24 49 -29 57 -14 23 -53 191 -55 233 0 20
-4 37 -8 37 -18 0 -17 -45 2 -118 12 -45 22 -107 23 -139 2 -57 2 -58 -27 -61
-16 -2 -39 1 -50 6 -12 6 -34 13 -50 17 -23 5 -27 10 -23 31 3 20 2 22 -10 12
-29 -24 -10 -49 57 -75 53 -20 70 -23 94 -14 35 12 64 -6 95 -59 16 -27 21
-30 21 -15 1 20 22 55 34 55 6 0 9 -72 7 -165 -1 -22 -1 -57 -1 -77 0 -21 -12
-59 -25 -84 -14 -26 -25 -53 -25 -59 0 -17 -19 -31 -51 -38 -24 -6 -26 -4 -22
21 3 20 0 16 -11 -12 -19 -50 -30 -56 -96 -56 -30 1 -71 -2 -91 -5 -29 -6 -41
-2 -66 19 -21 18 -43 26 -68 26 -27 0 -44 8 -66 29 -16 16 -29 36 -29 45 0 8
-20 24 -44 35 -36 16 -46 26 -55 56 -5 20 -8 42 -5 49 3 7 -12 29 -32 50 -36
37 -36 38 -31 104 3 37 10 87 16 112 7 31 6 66 -1 114 -14 87 -27 62 -20 -40
4 -67 3 -72 -18 -79 -29 -9 -68 28 -104 98 -40 79 -34 161 14 187 26 14 44 4
74 -41 35 -52 52 -50 22 4 -29 51 -62 73 -100 63 -55 -14 -84 -113 -54 -183
29 -68 80 -135 111 -148 30 -12 33 -17 29 -49 -5 -41 -8 -42 -40 -20 -13 9
-22 26 -22 42 0 21 -8 31 -38 47 -33 18 -37 25 -40 62 -2 30 -9 46 -22 53 -26
14 -39 66 -27 112 8 31 6 41 -12 64 -30 39 -29 107 4 150 19 25 23 39 19 64
-5 23 -1 39 15 60 11 16 21 42 21 58 0 34 42 82 72 82 13 0 24 13 34 38 27 63
61 92 111 92 31 0 49 6 65 23 59 60 135 75 192 38z m386 -536 c32 -17 42 -42
13 -30 -10 3 -39 9 -66 12 -38 5 -45 8 -36 19 15 18 53 18 89 -1z m-67 -356
c3 -13 1 -19 -6 -16 -15 5 -22 37 -9 37 5 0 12 -9 15 -21z m-583 -279 c0 -62
41 -120 84 -120 9 0 25 -18 36 -40 22 -43 63 -70 105 -70 15 0 40 -9 56 -21
31 -21 91 -29 120 -15 15 6 16 1 12 -38 -7 -57 12 -62 21 -7 6 37 8 39 47 43
37 3 42 1 56 -25 14 -29 14 -30 -21 -66 -101 -103 -257 -92 -591 42 -130 52
-130 52 -133 87 -2 32 2 39 53 78 62 47 105 121 105 180 0 32 0 32 25 16 17
-11 25 -26 25 -44z m-141 -97 c0 -5 -14 -19 -31 -32 -24 -19 -32 -21 -38 -10
-15 23 -24 2 -28 -64 -3 -50 -9 -68 -31 -90 -28 -31 -25 -31 -213 -11 -66 7
-139 -14 -185 -54 -17 -14 -21 -21 -11 -18 11 3 -1 -19 -31 -57 -58 -74 -93
-141 -137 -262 -37 -102 -44 -87 -13 30 83 320 220 453 427 417 37 -6 68 -9
70 -7 7 7 -53 32 -93 40 l-40 7 24 19 c26 21 93 26 136 9 23 -9 26 -8 22 5 -7
16 48 66 85 77 33 9 88 9 87 1z m191 -296 c107 -36 239 -67 284 -67 57 0 129
23 171 56 l45 34 0 -55 c0 -59 -22 -209 -46 -311 -47 -205 -172 -487 -287
-646 -89 -124 -179 -230 -187 -221 -9 10 -93 256 -115 337 -9 32 -19 56 -22
53 -13 -14 73 -301 114 -381 15 -29 15 -30 -18 -58 -89 -76 -283 -198 -314
-198 -7 0 -67 130 -84 183 -7 21 -15 36 -18 33 -8 -8 27 -118 54 -169 15 -26
23 -50 20 -53 -7 -7 -101 62 -133 98 -20 22 -36 80 -50 182 -6 46 -6 48 16 41
12 -4 37 -4 56 -1 42 8 47 25 73 233 13 96 27 165 41 196 12 27 24 74 26 105
l4 57 -16 -60 c-22 -80 -38 -96 -29 -27 6 45 -2 159 -10 150 -2 -2 -10 -86
-19 -188 -15 -167 -44 -401 -50 -408 -8 -7 -214 94 -272 133 -94 65 -177 105
-245 119 l-58 11 35 80 c56 128 109 264 133 340 75 234 154 363 266 434 55 35
67 36 178 19 l79 -12 58 -116 c166 -332 313 -572 412 -673 66 -68 62 -58 -23
54 -98 130 -161 237 -378 640 l-51 96 29 13 c17 6 37 23 45 35 l16 24 82 -39
c46 -21 130 -54 188 -73z m1014 -450 c36 -122 81 -267 100 -321 20 -55 34
-107 31 -117 -11 -35 -211 -189 -246 -189 -7 0 -9 9 -5 25 21 81 28 640 11
870 l-4 60 25 -53 c13 -30 53 -153 88 -275z m-487 141 c-14 -312 -65 -609
-156 -901 -49 -156 -78 -229 -147 -374 l-54 -113 -79 0 c-43 0 -93 -3 -110 -6
-17 -4 -31 -3 -31 2 0 5 18 29 41 54 117 131 260 343 315 469 32 71 27 65 -42
-49 -103 -170 -294 -422 -345 -453 -13 -8 -32 -1 -83 28 -36 22 -66 42 -66 45
0 3 22 19 48 37 26 18 67 53 92 79 31 33 36 41 15 25 -111 -82 -170 -121 -179
-121 -6 0 -39 22 -73 48 l-62 48 66 29 c315 137 604 495 748 927 48 145 84
292 85 346 0 17 5 32 12 32 8 0 9 -40 5 -152z m-1535 -573 c-5 -29 -10 -30
-32 -10 -28 25 -25 37 8 33 21 -2 26 -8 24 -23z m111 -21 c17 -9 71 -43 118
-74 48 -31 108 -66 133 -76 38 -16 46 -23 41 -39 -23 -82 -52 -176 -57 -180
-3 -4 -23 1 -43 9 -21 9 -44 16 -51 16 -29 0 -12 -17 39 -38 52 -22 131 -79
319 -233 107 -87 191 -145 265 -183 51 -25 58 -26 228 -26 200 0 180 8 259
-107 l49 -73 -12 -52 c-16 -74 -47 -138 -66 -138 -21 0 -19 37 5 67 11 14 20
35 20 47 0 30 -82 195 -87 175 -2 -8 10 -44 27 -80 36 -76 37 -105 8 -136 -26
-28 -38 -29 -38 -4 0 23 -49 161 -62 176 -15 16 -9 -30 12 -90 23 -66 25 -106
8 -123 -28 -28 -44 -13 -66 61 -23 77 -37 105 -47 95 -4 -3 3 -36 14 -73 27
-87 26 -103 -4 -117 -19 -8 -32 -8 -52 1 -24 11 -26 14 -12 24 12 9 14 18 7
37 -19 53 -35 60 -112 54 -70 -5 -72 -5 -127 33 -31 22 -98 54 -150 72 -289
103 -404 155 -525 237 -116 79 -182 141 -194 182 -22 81 -7 238 47 474 29 130
22 125 106 82z m1972 -211 c24 -137 30 -156 97 -265 33 -54 66 -123 74 -153
13 -49 13 -61 -1 -100 -8 -25 -15 -76 -15 -114 0 -48 -6 -83 -21 -116 -16 -37
-20 -62 -17 -111 2 -35 1 -61 -3 -56 -41 43 -200 241 -234 292 l-43 65 -21
169 c-19 149 -20 182 -10 282 l12 113 31 11 c17 6 51 26 76 45 25 18 48 34 52
34 3 1 14 -43 23 -96z m-1609 12 c18 -14 17 -14 -13 -15 -23 0 -33 5 -33 15 0
19 21 19 46 0z m-61 -178 c6 -47 6 -48 -14 -35 -21 13 -26 35 -15 76 9 32 20
16 29 -41z m2253 -101 c17 -9 47 -16 66 -16 19 0 47 -5 63 -11 41 -15 101 -77
109 -113 4 -17 19 -46 34 -66 37 -47 54 -103 46 -154 -16 -108 -35 -196 -46
-217 -7 -13 -27 -36 -44 -51 -17 -15 -42 -49 -56 -75 -24 -44 -30 -49 -97 -72
l-73 -24 -65 32 c-44 22 -65 38 -65 50 0 10 -16 33 -36 51 -30 26 -35 37 -30
59 18 71 18 121 2 146 -18 27 -45 32 -65 13 -18 -19 -41 16 -41 62 0 23 -9 49
-25 70 -15 21 -25 47 -25 68 0 19 -9 49 -20 68 -28 44 -19 71 41 123 41 35 57
43 100 46 28 2 57 9 65 16 36 30 98 28 162 -5z m-779 -263 c1 -63 -11 -96 -45
-128 -33 -31 -46 -32 -40 -2 3 12 12 60 20 107 8 47 21 117 28 155 l12 70 12
-75 c7 -41 13 -98 13 -127z m101 -173 c35 -47 104 -131 152 -187 48 -56 88
-106 88 -112 0 -6 21 -30 46 -53 59 -55 117 -135 111 -151 -3 -7 -58 -42 -123
-77 -66 -36 -136 -80 -156 -98 -42 -38 -91 -131 -110 -207 -6 -27 -15 -54 -18
-58 -4 -4 -12 61 -19 145 -16 196 -36 361 -63 518 -26 149 -27 287 -3 344 9
21 20 35 24 30 4 -5 36 -47 71 -94z m-1597 18 c21 -8 26 -15 21 -27 -15 -34
-44 -147 -43 -166 0 -11 2 -15 4 -10 1 6 11 37 20 70 10 33 24 72 31 86 l13
26 125 -46 c69 -25 126 -49 126 -53 0 -11 -134 -96 -196 -125 -40 -18 -81 -28
-132 -31 l-75 -5 6 84 c3 46 13 115 23 152 14 55 20 67 33 61 9 -3 29 -11 44
-16z m1462 -85 c-6 -33 -49 -73 -78 -73 -13 0 -13 7 0 60 12 47 22 64 42 75
24 12 27 12 34 -8 5 -12 6 -36 2 -54z m-391 -26 c8 -13 7 -20 -4 -27 -23 -14
-25 -13 -26 20 -1 33 12 35 30 7z m-431 -118 c7 -11 2 -23 -21 -46 -17 -17
-34 -46 -37 -66 -9 -47 -27 -62 -54 -47 -40 21 -19 129 30 164 28 20 68 17 82
-5z m1831 -154 c39 -17 67 -64 85 -147 9 -38 -7 -149 -23 -165 -19 -19 -36 34
-36 112 0 79 -1 84 -37 130 -43 57 -56 44 -19 -19 31 -53 32 -66 7 -66 -29 0
-71 56 -71 95 0 18 -3 40 -6 48 -3 10 2 17 13 20 33 9 50 7 87 -8z m-471 -55
c3 -11 3 -20 0 -20 -7 0 -42 44 -43 53 0 16 38 -13 43 -33z m591 -32 c8 -12
20 -44 27 -73 15 -66 -6 -188 -33 -193 -21 -4 -24 33 -8 88 15 50 14 108 -4
158 -16 45 -7 56 18 20z m76 -162 c0 -36 -4 -76 -10 -90 -12 -33 -35 -35 -26
-3 4 12 10 52 13 90 7 85 23 87 23 3z m34 -99 c-10 -26 -22 -20 -16 9 3 15 8
22 14 16 5 -5 6 -16 2 -25z"/>
<path d="M5460 5017 c0 -2 7 -18 15 -33 13 -25 15 -26 15 -8 0 12 -7 27 -15
34 -8 7 -15 10 -15 7z"/>
<path d="M4910 4999 c-12 -9 -11 -10 6 -6 12 2 29 0 39 -5 13 -8 16 -7 13 3
-6 18 -39 22 -58 8z"/>
<path d="M5575 4880 c10 -11 20 -18 23 -15 7 6 -18 35 -31 35 -5 0 -2 -9 8
-20z"/>
<path d="M4778 4854 c-15 -8 -31 -26 -34 -40 -9 -36 1 -40 16 -5 6 16 26 36
43 45 18 9 25 15 17 15 -8 0 -27 -6 -42 -15z"/>
<path d="M4861 4737 c-13 -21 -12 -21 5 -5 10 10 16 20 13 22 -3 3 -11 -5 -18
-17z"/>
<path d="M5275 4749 c81 -12 149 -13 168 -3 9 6 -32 9 -106 10 -106 1 -114 0
-62 -7z"/>
<path d="M5155 4695 c-37 -13 -38 -14 -7 -9 51 9 122 6 177 -6 28 -6 72 -8
100 -4 92 12 86 19 -18 19 -56 0 -127 3 -157 7 -39 5 -67 3 -95 -7z"/>
<path d="M4707 4632 c-10 -10 -17 -29 -16 -43 l0 -24 10 25 c6 13 17 33 26 42
9 10 12 18 6 18 -5 0 -17 -8 -26 -18z"/>
<path d="M5167 4610 c-40 -7 -83 -34 -101 -63 -17 -27 -1 -30 66 -13 36 9 88
16 116 16 39 0 54 4 59 16 13 35 -59 58 -140 44z m121 -25 c12 -12 -13 -23
-41 -19 -17 3 -60 -1 -94 -9 -35 -8 -63 -12 -63 -8 0 9 39 32 70 42 23 7 119
3 128 -6z"/>
<path d="M4929 4578 c-7 -12 -11 -42 -10 -67 1 -29 -4 -50 -15 -63 -14 -15
-15 -18 -2 -18 8 0 20 10 26 23 10 21 24 147 16 147 -2 0 -9 -10 -15 -22z"/>
<path d="M5130 4478 c-36 -21 -28 -38 9 -19 27 15 31 14 31 -8 0 -10 7 -22 16
-25 21 -8 44 11 44 34 0 14 6 17 23 13 21 -4 22 -4 3 11 -28 22 -85 20 -126
-6z"/>
<path d="M5468 4485 c-32 -18 -37 -30 -9 -22 14 3 21 -2 25 -19 8 -29 36 -32
43 -3 3 11 11 18 19 15 18 -7 27 9 11 22 -23 19 -62 22 -89 7z"/>
<path d="M4752 4448 c-6 -6 -12 -19 -12 -27 1 -13 3 -12 15 3 29 38 76 -18 50
-59 -16 -24 -3 -65 20 -65 15 0 15 2 1 22 -14 20 -14 24 1 41 16 17 16 21 -2
55 -21 39 -51 52 -73 30z"/>
<path d="M5020 4450 c8 -5 24 -9 35 -9 l20 0 -20 9 c-11 5 -27 9 -35 9 -13 1
-13 0 0 -9z"/>
<path d="M5048 4423 c-10 -2 -18 -9 -18 -14 0 -6 10 -5 23 2 37 20 36 23 -5
12z"/>
<path d="M4916 4411 c-4 -5 1 -29 9 -53 9 -24 21 -58 26 -76 6 -17 23 -42 39
-54 16 -11 34 -35 40 -51 14 -40 22 -30 10 13 -5 18 -23 45 -39 59 -19 17 -38
51 -54 99 -14 41 -28 69 -31 63z"/>
<path d="M5225 4389 c-16 -11 -43 -19 -60 -20 -24 0 -26 -2 -11 -8 26 -10 56
-3 86 19 34 25 22 32 -15 9z"/>
<path d="M5476 4379 c12 -11 31 -19 42 -17 17 2 13 7 -21 21 l-42 18 21 -22z"/>
<path d="M5184 4205 c-38 -41 -76 -74 -84 -73 -8 2 -19 23 -26 48 l-12 45 -1
-38 c-1 -27 6 -44 22 -60 15 -15 21 -32 19 -52 l-2 -30 15 35 c22 48 52 78
108 107 57 28 57 42 1 18 l-39 -16 39 40 c22 22 37 43 34 46 -3 4 -37 -28 -74
-70z"/>
<path d="M4938 4115 c-9 -21 -9 -29 3 -40 12 -12 14 -9 14 25 1 47 -1 49 -17
15z"/>
<path d="M5194 4105 c-34 -34 -32 -103 4 -121 13 -6 29 -17 35 -23 16 -16 42
-13 60 7 26 28 20 38 -7 13 l-23 -22 -30 25 c-17 14 -33 23 -37 19 -6 -7 -10
19 -6 52 4 41 20 47 97 33 56 -9 83 -9 125 0 48 12 54 11 66 -5 15 -21 9 -71
-13 -92 -13 -13 -17 -12 -35 4 -22 20 -26 14 -10 -16 27 -50 80 3 80 80 0 55
-28 76 -72 54 -34 -17 -151 -13 -188 7 -17 9 -24 6 -46 -15z"/>
<path d="M5017 4063 c-10 -9 -8 -55 2 -71 5 -8 8 5 7 32 -1 25 -1 46 -2 46 0
0 -4 -3 -7 -7z"/>
<path d="M5300 4030 c0 -5 24 -10 54 -10 30 0 58 5 61 10 4 6 -17 10 -54 10
-34 0 -61 -4 -61 -10z"/>
<path d="M5550 4033 c0 -4 5 -15 10 -23 8 -13 10 -13 10 2 0 9 -4 20 -10 23
-5 3 -10 3 -10 -2z"/>
<path d="M4976 3928 c-4 -9 -2 -26 4 -38 16 -30 20 -22 11 20 -6 26 -10 31
-15 18z"/>
<path d="M5521 3925 c1 -19 18 -51 18 -35 0 8 -4 22 -9 30 -5 8 -9 11 -9 5z"/>
<path d="M5312 3900 c0 -14 2 -19 5 -12 2 6 2 18 0 25 -3 6 -5 1 -5 -13z"/>
<path d="M5117 3903 c-11 -11 -8 -58 5 -71 20 -20 32 -13 13 8 -11 12 -16 29
-13 45 6 27 5 29 -5 18z"/>
<path d="M5385 3855 c0 -27 3 -41 8 -36 12 12 12 60 1 71 -5 5 -9 -10 -9 -35z"/>
<path d="M5195 3800 c-3 -5 -1 -18 4 -27 9 -16 10 -14 11 10 0 28 -5 34 -15
17z"/>
<path d="M4658 3574 c15 -27 134 -168 206 -242 136 -142 317 -272 377 -272 18
0 9 8 -35 30 -123 63 -255 175 -419 360 -118 131 -150 162 -129 124z"/>
<path d="M4750 3565 c37 -40 206 -150 291 -189 86 -39 172 -61 197 -51 12 5
-3 12 -47 21 -82 17 -218 84 -356 174 -66 44 -100 62 -85 45z"/>
<path d="M5336 3346 c-15 -13 -47 -29 -70 -37 -49 -15 -68 -29 -40 -29 28 0
116 44 138 69 25 28 8 26 -28 -3z"/>
<path d="M4600 3274 c0 -5 7 -67 14 -139 8 -71 17 -233 21 -360 9 -301 39
-563 69 -593 9 -8 7 10 -9 94 -14 75 -22 185 -45 634 -9 172 -31 354 -45 368
-3 3 -5 1 -5 -4z"/>
<path d="M5940 2215 c-34 -36 -20 -40 21 -5 22 19 29 29 18 30 -8 0 -26 -11
-39 -25z"/>
<path d="M4560 1279 c-106 -55 -225 -76 -294 -49 -40 15 -44 5 -6 -15 53 -27
169 -17 250 21 36 17 76 41 90 52 32 27 27 26 -40 -9z"/>
<path d="M6935 753 c-6 -41 -28 -164 -46 -256 -11 -58 -6 -84 11 -57 9 14 44
197 55 286 8 61 -11 85 -20 27z"/>
<path d="M6222 638 c-30 -127 -38 -217 -16 -195 9 9 43 169 44 205 0 46 -16
40 -28 -10z"/>
</g>
</svg>
