<?xml version="1.0" standalone="no"?>
<!DOCTYPE svg PUBLIC "-//W3C//DTD SVG 20010904//EN"
 "http://www.w3.org/TR/2001/REC-SVG-20010904/DTD/svg10.dtd">
<svg version="1.0" xmlns="http://www.w3.org/2000/svg"
 width="1024.000000pt" height="559.000000pt" viewBox="0 0 1024.000000 559.000000"
 preserveAspectRatio="xMidYMid meet">
<metadata>
Created by potrace 1.16, written by Peter Selinger 2001-2019
</metadata>
<g transform="translate(0.000000,559.000000) scale(0.100000,-0.100000)"
fill="#000000" stroke="none">
<path d="M3657 5165 c-20 -7 -44 -18 -52 -25 -9 -8 -32 -9 -68 -5 -72 9 -135
-17 -174 -73 -17 -24 -39 -42 -55 -46 -17 -3 -33 -17 -44 -38 -9 -18 -34 -48
-55 -66 -47 -40 -63 -87 -55 -156 5 -38 3 -60 -8 -81 -20 -39 -20 -86 0 -133
10 -22 16 -58 15 -91 -3 -62 34 -149 73 -174 15 -10 25 -29 30 -55 6 -41 52
-92 82 -92 11 0 14 -18 14 -84 0 -72 -4 -91 -28 -137 l-28 -54 -82 -5 c-65 -5
-88 -11 -114 -30 -19 -14 -55 -27 -87 -31 -31 -5 -66 -17 -80 -29 -14 -11 -58
-35 -96 -53 -158 -75 -254 -258 -295 -563 -32 -242 -67 -746 -100 -1434 -5
-113 -12 -241 -15 -285 -3 -44 -10 -170 -15 -280 -9 -178 -27 -420 -46 -618
-5 -44 -3 -67 3 -67 6 0 14 7 17 17 17 43 50 472 66 863 6 135 17 367 25 515
8 149 19 356 25 460 18 333 52 716 80 886 52 315 177 492 348 490 31 0 73 -5
92 -11 42 -12 40 -12 40 0 0 16 -57 40 -97 40 l-38 1 25 20 c19 17 34 20 75
16 27 -2 61 -7 75 -11 24 -7 24 -7 6 8 -21 17 -15 31 22 50 36 18 116 30 107
16 -3 -5 -12 -10 -20 -10 -29 0 -47 -32 -41 -72 8 -49 -13 -91 -53 -108 -22
-9 -53 -10 -113 -4 -104 11 -141 8 -200 -18 -48 -20 -72 -41 -73 -62 0 -6 -14
-38 -32 -71 -37 -72 -68 -174 -83 -270 -9 -64 -60 -617 -60 -657 0 -10 10 -28
22 -40 l21 -21 -12 -371 c-20 -648 -21 -704 -12 -661 12 52 29 408 37 753 5
192 10 272 18 272 48 -1 52 -9 76 -128 26 -135 67 -247 116 -314 l33 -47 -31
-73 c-17 -40 -41 -103 -53 -140 -15 -41 -44 -93 -79 -140 -80 -104 -102 -192
-76 -306 8 -35 6 -52 -11 -100 -55 -147 -63 -192 -50 -270 7 -40 21 -97 30
-125 17 -48 17 -60 4 -141 -17 -106 -14 -287 5 -294 9 -3 12 27 13 125 0 70 4
146 8 168 l7 40 13 -40 c18 -53 31 -66 31 -30 0 16 -18 81 -40 145 -56 163
-60 217 -24 324 15 48 31 86 34 86 3 0 12 -23 19 -51 8 -31 17 -47 23 -41 5 5
1 46 -12 108 -29 131 -35 213 -20 261 16 50 74 142 78 122 5 -26 -14 -94 -26
-92 -23 5 -12 -45 13 -65 83 -66 264 -18 442 117 130 98 343 341 458 523 23
37 43 52 121 91 52 25 94 42 94 37 0 -18 -107 -284 -150 -374 -120 -250 -245
-432 -415 -602 -195 -196 -333 -271 -486 -262 -51 3 -76 9 -99 27 -34 25 -44
24 -34 -3 17 -45 148 -69 245 -46 213 50 501 322 705 665 84 143 211 427 256
574 7 24 23 50 35 58 21 14 138 34 147 26 5 -5 -13 -65 -71 -246 -25 -76 -43
-141 -40 -144 11 -10 78 176 122 339 13 50 25 71 47 88 16 12 31 20 33 18 2
-2 -4 -28 -14 -58 -10 -30 -39 -119 -65 -198 -25 -78 -46 -156 -46 -173 0 -29
37 -79 59 -79 6 0 9 -54 8 -143 -1 -159 14 -232 59 -286 l26 -31 -27 -92 c-75
-263 -174 -519 -294 -767 -32 -66 -33 -84 -6 -61 17 14 90 162 141 285 l29 70
5 -180 c5 -167 6 -174 12 -95 5 47 8 141 8 210 0 121 2 129 41 240 22 63 58
174 78 245 26 89 42 130 52 130 10 0 15 -14 16 -50 11 -254 26 -542 35 -645 6
-69 12 -156 12 -194 2 -107 22 -96 31 16 6 93 44 380 50 386 2 2 13 -2 26 -8
31 -17 117 -7 170 20 123 62 254 187 348 330 l23 35 -32 -35 c-18 -19 -62 -68
-98 -109 -159 -179 -352 -268 -424 -196 -40 40 -63 155 -39 194 7 11 13 7 25
-17 20 -40 44 -52 97 -52 56 0 111 17 145 46 l29 24 -62 -25 c-68 -27 -139
-32 -166 -13 -20 16 -47 90 -47 132 0 17 10 47 22 66 l23 35 3 -34 c2 -20 -2
-37 -10 -42 -26 -16 10 -34 66 -33 128 3 319 153 469 367 9 14 23 18 50 15
l38 -3 -50 -80 c-28 -44 -72 -109 -97 -145 -40 -55 -42 -60 -16 -36 36 33 113
143 158 223 20 36 38 56 58 63 16 6 44 21 62 35 21 16 46 25 69 25 52 0 69 13
93 68 31 71 41 76 85 47 20 -14 40 -25 46 -25 27 0 17 -29 -42 -133 -35 -61
-68 -122 -71 -135 -11 -32 17 -72 50 -72 19 0 24 -4 20 -17 -2 -10 -20 -83
-40 -163 -61 -250 -98 -349 -230 -627 -47 -98 -82 -180 -79 -183 12 -12 76
104 161 291 34 75 62 141 62 147 0 6 5 14 10 17 7 5 9 -57 4 -194 -5 -149 -4
-201 4 -201 13 0 17 76 17 325 0 141 2 157 33 260 46 153 42 143 52 125 12
-22 27 -150 45 -374 8 -104 17 -192 20 -195 15 -15 -22 487 -41 555 -5 17 1
24 33 37 35 14 39 14 44 -2 21 -55 60 -364 80 -628 11 -154 19 -196 35 -180
17 17 -43 600 -80 777 -12 55 -12 69 0 92 8 15 14 34 14 43 0 11 10 15 38 15
20 0 55 9 77 19 42 19 125 97 153 144 9 15 20 27 24 27 10 0 12 13 -14 -141
-15 -87 -23 -176 -23 -254 0 -107 -3 -125 -23 -164 -13 -24 -26 -67 -29 -95
-8 -77 14 -265 34 -295 13 -20 16 -43 14 -93 -2 -44 1 -68 8 -68 13 0 18 24
25 124 5 66 10 83 33 111 195 232 277 348 378 535 l57 105 -7 -120 c-3 -66
-10 -185 -15 -265 -11 -173 -13 -406 -3 -396 4 3 10 86 14 184 4 97 13 283 19
412 12 232 13 236 48 325 19 50 50 135 68 190 l34 100 -4 -379 c-3 -215 -1
-375 4 -370 5 5 11 189 15 409 6 399 6 400 33 478 15 42 29 77 32 77 3 0 21
-14 40 -30 l35 -29 -32 -28 c-27 -24 -33 -37 -38 -89 -4 -40 -3 -64 4 -68 6
-4 11 -15 11 -25 0 -40 46 -106 89 -128 34 -17 49 -33 66 -72 30 -64 94 -133
143 -155 37 -17 40 -21 45 -72 4 -42 1 -65 -14 -99 -17 -39 -18 -52 -9 -109
10 -64 9 -68 -21 -123 -31 -58 -31 -59 -24 -168 4 -78 2 -139 -9 -212 -19
-121 -19 -123 -7 -123 25 0 53 216 45 341 -7 93 -6 100 21 150 25 49 27 58 20
130 -5 61 -3 84 9 108 10 18 16 55 16 91 0 66 13 102 33 94 7 -2 36 18 63 45
l49 50 83 -8 c46 -5 86 -11 89 -14 7 -7 -97 -188 -169 -294 -26 -40 -76 -102
-109 -138 -76 -80 -58 -87 20 -7 68 70 154 196 223 328 28 55 52 101 54 103 4
4 245 -90 258 -101 12 -10 -17 -121 -91 -353 -41 -127 -84 -233 -154 -382 -50
-107 -61 -144 -33 -108 32 41 113 215 163 350 29 77 56 149 61 160 5 12 9 -72
9 -207 1 -159 4 -228 12 -228 8 0 10 77 8 263 -2 258 -2 264 26 377 16 63 30
117 32 119 1 2 13 0 26 -6 21 -10 24 -22 36 -119 7 -60 19 -188 26 -284 l14
-175 -4 185 c-3 102 -11 228 -19 280 -8 52 -13 97 -10 99 2 3 16 1 31 -5 23
-8 29 -20 45 -84 10 -41 30 -149 45 -240 16 -91 29 -155 31 -142 5 32 -34 292
-56 381 l-19 73 36 -6 c20 -3 43 -6 53 -6 11 0 22 -20 38 -71 54 -179 74 -286
110 -574 23 -186 47 -255 36 -100 -20 259 -70 532 -126 692 l-18 53 29 0 c44
0 95 25 115 55 27 41 44 138 44 251 l0 101 38 24 c20 13 38 34 40 45 2 12 -18
105 -43 207 l-45 186 26 38 c24 35 25 43 19 107 -8 86 -41 155 -104 217 -34
33 -58 48 -87 52 -33 6 -46 16 -81 64 -24 32 -57 85 -74 118 l-32 60 41 40
c24 25 44 57 51 83 12 41 24 52 36 32 11 -17 84 -12 100 8 83 93 85 97 81 190
-5 126 -19 159 -86 198 -60 36 -96 42 -126 19 -27 -20 -30 -19 -44 15 -24 57
-124 130 -181 130 -11 0 -32 9 -46 20 -35 27 -87 35 -136 20 -40 -12 -42 -11
-67 19 -97 120 -136 151 -190 151 -11 0 -34 10 -50 21 -25 19 -37 21 -85 15
l-56 -6 -53 53 c-62 62 -98 143 -100 227 -1 62 -13 57 99 44 42 -5 56 -2 85
18 19 13 44 41 55 63 11 22 32 52 46 67 52 55 57 129 17 282 -13 53 -56 94
-105 102 -38 6 -41 8 -51 56 -31 133 -128 254 -249 310 -63 30 -75 32 -173 32
-156 -1 -268 -16 -324 -45 -45 -22 -136 -109 -136 -130 0 -5 -9 -9 -20 -9 -11
0 -37 -15 -56 -33 -32 -29 -37 -41 -41 -88 -3 -30 -11 -68 -19 -86 -19 -43
-18 -77 6 -123 11 -22 20 -50 20 -62 0 -31 34 -85 59 -93 24 -7 27 -18 36
-110 9 -92 36 -172 92 -270 75 -132 126 -175 208 -175 42 0 45 -2 45 -26 0
-20 -9 -29 -47 -46 -27 -12 -56 -21 -67 -20 -24 1 -146 -47 -146 -59 0 -4 -20
-27 -45 -50 -97 -91 -142 -202 -199 -494 -107 -541 -102 -522 -167 -607 -29
-38 -55 -68 -58 -68 -3 0 -31 64 -61 141 -46 121 -59 145 -90 167 -19 14 -46
36 -60 47 -14 12 -41 28 -60 35 -19 8 -48 25 -65 38 -25 21 -36 23 -76 19 -34
-4 -51 -2 -59 8 -17 20 -6 32 36 40 47 8 122 84 158 157 41 86 55 158 55 287
-1 118 -1 119 31 162 23 33 30 52 27 74 -2 16 2 44 9 61 13 32 9 69 -15 110
-6 10 -15 38 -21 61 -11 45 -58 93 -90 93 -10 0 -28 16 -41 36 -28 46 -96 79
-145 70 -23 -5 -41 -2 -58 9 -63 41 -145 37 -196 -10 -20 -18 -36 -23 -81 -22
-65 0 -98 -18 -124 -67 -10 -19 -29 -39 -42 -45 -13 -6 -26 -18 -30 -28 -4 -9
-21 -30 -40 -46 -40 -35 -58 -92 -44 -143 7 -26 6 -44 -5 -69 -26 -62 -17
-111 36 -195 5 -8 12 -36 15 -63 4 -32 17 -61 41 -92 19 -25 34 -51 34 -59 0
-22 40 -66 60 -66 25 0 32 -25 24 -90 -8 -63 -22 -95 -56 -128 l-25 -22 -35
82 c-39 91 -66 162 -129 343 -51 147 -95 236 -146 295 -21 25 -51 62 -67 84
-35 47 -105 92 -156 101 -21 4 -46 15 -55 25 -26 29 -99 45 -135 30 -38 -16
-55 -3 -46 33 4 18 17 29 41 37 86 28 139 119 156 267 5 48 14 124 19 168 6
44 12 142 13 217 3 109 7 141 20 155 24 27 38 73 30 97 -4 11 -7 53 -7 92 -1
62 -5 75 -30 108 -15 21 -39 42 -53 49 -13 6 -34 28 -44 50 -26 50 -89 80
-148 71 -30 -5 -48 -2 -73 14 -46 27 -86 33 -131 17z m86 -28 c18 -8 38 -21
45 -29 10 -13 26 -15 72 -11 70 7 104 -10 125 -62 9 -20 29 -40 51 -52 49 -25
77 -76 69 -124 -4 -21 -1 -55 6 -78 9 -31 9 -47 1 -66 -18 -39 -27 -30 -41 38
-7 34 -17 67 -22 73 -6 8 -5 21 2 38 17 37 1 46 -23 13 -37 -50 -98 -22 -98
46 0 32 -16 67 -30 67 -6 0 -7 -18 -4 -42 5 -35 2 -48 -16 -70 -12 -16 -31
-28 -44 -28 -19 0 -22 5 -22 35 0 40 -18 62 -54 67 -22 3 -25 -2 -31 -36 -8
-46 -30 -66 -76 -66 -27 0 -35 5 -43 25 -13 34 -30 32 -30 -4 0 -32 -34 -81
-56 -81 -10 0 -14 12 -14 37 0 26 -3 34 -11 26 -11 -11 -16 -70 -6 -79 16 -17
62 -5 85 21 21 25 32 29 79 29 45 1 58 5 75 25 10 14 22 38 25 54 8 41 28 17
28 -36 0 -41 1 -42 36 -45 27 -2 44 3 66 22 28 24 29 24 41 5 7 -11 29 -21 52
-25 47 -8 53 -16 69 -103 7 -34 15 -70 18 -78 5 -13 -1 -15 -41 -9 -53 8 -86
1 -86 -19 0 -10 17 -15 58 -17 l57 -3 3 -115 c2 -115 -12 -245 -28 -255 -5 -3
-12 1 -17 8 -11 19 -53 41 -53 28 0 -6 9 -15 19 -21 11 -5 23 -19 26 -30 3
-11 13 -20 21 -20 17 0 17 -8 4 -86 -14 -76 -46 -157 -72 -181 -20 -18 -21
-18 -14 7 6 22 3 20 -24 -12 -24 -28 -40 -38 -61 -38 -21 0 -29 5 -29 18 -1
16 -1 16 -14 0 -22 -29 -62 -23 -76 12 -13 32 -35 31 -25 -1 8 -24 -2 -24 -43
1 -21 13 -35 31 -39 50 -7 37 -23 40 -23 4 l0 -25 -31 22 c-32 22 -33 24 -44
74 l-7 30 -12 -24 -13 -23 -22 30 c-31 44 -50 104 -56 180 -21 241 -57 325
-140 325 -82 0 -99 -135 -29 -239 l26 -39 -36 34 c-43 42 -60 88 -53 149 4 34
0 57 -14 84 -24 46 -24 82 0 132 14 29 17 46 10 64 -24 62 4 137 61 167 16 8
30 22 30 31 0 23 46 65 64 58 11 -4 19 2 25 18 5 13 26 39 47 57 37 33 38 34
115 28 63 -4 81 -2 91 11 12 14 63 41 81 42 4 0 22 -6 40 -13z m2824 -222 c66
-20 167 -95 209 -158 45 -65 76 -151 72 -201 l-3 -41 -28 43 c-27 41 -81 76
-108 70 -7 -2 -16 11 -20 28 -12 44 -43 67 -90 70 -34 1 -44 7 -60 33 -21 36
-53 46 -117 38 -32 -4 -53 -1 -66 9 -29 21 -89 17 -120 -7 -34 -27 -28 -34 10
-14 41 21 79 19 110 -8 25 -22 30 -23 53 -11 50 26 103 8 121 -42 8 -20 16
-24 50 -24 57 0 78 -14 86 -56 4 -20 12 -37 18 -39 100 -27 98 -26 114 -66 8
-21 21 -39 28 -39 19 0 44 -53 44 -95 0 -39 -21 -87 -53 -122 -24 -27 -18 -40
11 -22 51 32 77 118 60 202 -7 40 -8 61 -1 68 16 16 90 -26 108 -61 22 -42 19
-53 -10 -34 -38 25 -42 10 -6 -23 41 -38 59 -106 43 -162 -17 -54 -64 -99
-113 -107 -44 -7 -43 -24 2 -24 38 0 37 -13 -6 -46 -25 -19 -46 -26 -75 -26
-58 1 -64 9 -34 47 28 37 45 115 25 115 -6 0 -11 -9 -11 -21 0 -11 -5 -30 -11
-42 -14 -27 -70 -87 -81 -87 -14 0 -8 50 7 56 26 10 55 69 59 122 2 29 9 59
16 67 21 25 3 29 -26 6 -19 -15 -41 -21 -79 -21 -45 0 -58 5 -84 29 -17 16
-34 43 -37 59 -5 22 -13 32 -33 37 -34 9 -60 32 -76 72 -11 25 -18 30 -34 26
-30 -8 -78 15 -105 49 -20 25 -31 30 -73 32 -85 2 -130 52 -105 118 5 15 6 30
2 33 -14 8 -30 -30 -30 -68 0 -42 -37 -85 -80 -93 -24 -5 -34 -16 -49 -50 -14
-31 -27 -45 -47 -50 -22 -6 -25 -9 -13 -18 10 -8 14 -34 15 -86 1 -74 1 -74
-17 -51 -11 13 -19 37 -19 53 0 16 -9 41 -20 55 -24 31 -27 100 -5 129 8 11
15 41 15 70 0 42 5 55 28 77 16 15 44 29 62 32 18 2 38 9 43 14 6 6 26 11 45
11 19 0 31 4 27 10 -3 6 -23 10 -43 10 l-36 0 35 36 c53 56 121 86 204 90 38
2 88 8 110 13 49 12 123 6 192 -14z m-397 -328 c14 -10 44 -17 72 -17 37 0 50
-4 58 -21 16 -29 70 -59 107 -59 24 0 33 -5 39 -22 9 -33 34 -59 72 -75 21 -9
32 -20 32 -34 0 -27 62 -89 88 -89 29 0 45 -25 39 -60 -5 -24 -3 -28 9 -23 11
4 15 16 12 39 -3 27 0 34 13 34 10 0 24 3 33 6 21 8 21 -23 0 -76 -16 -41 -64
-77 -84 -65 -6 3 -10 -1 -10 -9 0 -9 6 -16 14 -16 10 0 16 -21 21 -76 15 -164
74 -270 196 -355 22 -15 22 -19 11 -56 -11 -37 -18 -43 -80 -71 -230 -103
-440 -122 -536 -48 -35 27 -70 79 -64 96 4 12 116 68 123 62 3 -3 5 -23 5 -44
0 -22 5 -38 11 -38 9 0 10 24 6 83 l-6 84 37 17 c91 44 218 171 210 212 -2 12
-12 3 -36 -29 -62 -87 -174 -167 -254 -182 -102 -19 -204 86 -275 282 -40 110
-42 256 -3 183 15 -27 38 -25 46 4 4 17 11 23 22 19 10 -4 13 -3 8 6 -16 25
-57 33 -83 15 -29 -18 -31 -17 -39 23 -5 26 -2 31 18 36 12 4 39 7 58 7 25 0
31 3 23 11 -13 13 -48 16 -85 6 l-28 -7 0 63 c0 51 4 66 21 80 11 10 25 31 31
47 6 19 17 30 29 30 10 0 33 13 51 29 18 16 35 26 38 22 3 -4 16 -15 30 -24z
m-2847 -77 c29 -23 53 -88 63 -172 l6 -58 -29 0 c-44 0 -79 33 -103 98 -24 64
-21 119 7 139 22 17 26 17 56 -7z m31 -284 c9 -34 7 -66 -4 -66 -23 0 -60 50
-60 79 0 28 1 29 29 18 16 -6 32 -20 35 -31z m53 -58 c15 -88 51 -148 126
-209 80 -64 157 -100 236 -108 48 -5 65 -10 63 -20 -9 -42 -14 -142 -7 -158 6
-14 10 -7 19 29 l11 47 45 -30 c52 -34 70 -55 70 -80 0 -23 -66 -88 -107 -105
-46 -20 -157 -17 -245 5 -75 19 -385 138 -392 150 -2 3 -7 20 -10 38 -7 29 -4
33 38 58 60 35 111 95 126 149 7 27 10 93 8 178 -2 75 -1 134 2 131 3 -2 10
-36 17 -75z m1637 -213 c29 -20 45 -24 75 -19 52 8 106 -16 132 -60 13 -22 33
-39 55 -46 42 -14 74 -54 74 -92 0 -17 9 -41 20 -55 24 -30 25 -58 5 -96 -8
-15 -12 -34 -8 -42 7 -19 -4 -65 -16 -65 -9 0 -22 79 -24 138 -1 37 -4 38 -28
16 -23 -21 -43 -10 -27 15 6 10 8 27 4 37 -7 17 -9 15 -21 -13 -7 -17 -23 -36
-34 -43 -19 -9 -21 -8 -21 13 0 32 -20 87 -31 87 -5 0 -9 -15 -9 -34 0 -25 -7
-40 -26 -55 -33 -26 -56 -27 -53 -3 5 30 -10 71 -31 82 -21 11 -29 4 -45 -45
-13 -40 -57 -46 -91 -14 -22 21 -24 21 -29 3 -14 -44 -32 -69 -53 -72 -12 -2
-22 1 -22 7 0 6 -7 11 -15 11 -18 0 -19 -9 -5 -45 14 -38 2 -73 -32 -91 -28
-15 -29 -18 -23 -62 4 -35 2 -52 -10 -67 -15 -19 -16 -20 -28 -1 -37 57 -60
76 -91 76 -20 0 -40 -8 -51 -20 -25 -27 -32 -25 -51 12 -21 41 -21 100 0 132
12 19 14 31 6 51 -23 59 2 135 51 161 17 8 29 23 29 34 0 14 7 20 24 20 19 0
27 8 36 36 18 54 61 77 131 69 45 -5 58 -3 62 10 9 23 68 55 103 55 17 0 48
-11 68 -25z m-1016 -219 c73 -65 93 -172 102 -536 3 -157 7 -262 9 -235 1 28
6 104 11 170 11 148 -4 381 -31 487 -10 43 -19 80 -19 83 0 7 58 -23 93 -49
55 -41 76 -104 92 -286 8 -90 23 -225 40 -350 7 -58 16 -124 18 -146 l5 -42
-70 -7 c-39 -3 -80 -10 -92 -15 -12 -4 -65 -49 -119 -100 -53 -51 -97 -90 -97
-87 0 3 7 40 15 83 43 235 49 299 50 549 0 204 -3 265 -18 330 -22 101 -46
150 -72 150 -11 1 -27 5 -35 10 -12 7 -10 10 10 15 39 9 83 0 108 -24z m1060
-97 c-2 -25 1 -34 15 -37 26 -5 63 5 81 24 14 14 16 14 16 0 0 -15 30 -27 60
-24 56 5 67 -1 79 -46 6 -25 11 -59 11 -75 0 -28 -2 -30 -30 -25 -34 7 -80 -2
-80 -16 0 -5 23 -10 52 -12 l52 -3 -3 -125 c-1 -69 -7 -145 -12 -169 -24 -110
-110 -232 -178 -252 -80 -24 -202 24 -294 116 -37 38 -57 51 -57 40 0 -25 100
-120 158 -149 27 -14 69 -28 92 -32 39 -6 41 -9 40 -38 -4 -61 0 -96 10 -96 6
0 10 14 10 30 0 36 9 38 44 5 52 -48 25 -108 -63 -140 -109 -38 -274 4 -438
112 -29 19 -53 38 -53 41 0 4 20 20 43 36 66 44 89 84 95 165 2 38 1 99 -3
136 -7 66 -7 66 -35 60 -79 -17 -160 155 -100 215 33 33 57 24 99 -37 45 -66
97 -32 89 58 -4 36 -2 49 8 49 21 0 54 51 54 85 0 28 4 33 30 39 19 3 34 15
41 30 10 21 14 22 40 12 39 -14 78 7 98 52 12 25 17 29 23 18 5 -8 7 -29 6
-47z m1922 26 c11 -13 10 -18 -8 -31 -37 -26 -24 -34 21 -14 61 28 82 25 130
-20 36 -34 39 -40 21 -40 -12 0 -55 -16 -96 -35 -81 -39 -122 -40 -154 -4 -16
17 -16 26 -4 89 13 69 13 70 45 70 18 0 38 -7 45 -15z m-3724 -36 c237 -106
381 -145 507 -137 75 5 106 18 160 67 l29 26 -7 -85 c-22 -283 -120 -612 -276
-922 -40 -80 -61 -98 -113 -98 -22 0 -23 5 -30 97 -4 54 -10 101 -15 106 -4 4
-7 -9 -6 -30 10 -179 10 -177 -16 -183 -13 -4 -40 -9 -60 -13 l-36 -5 -18 61
c-34 122 -46 126 -21 7 8 -36 13 -66 12 -67 -1 -1 -17 -4 -36 -5 -33 -3 -34
-2 -67 77 -36 89 -44 78 -13 -16 12 -34 19 -63 18 -65 -8 -7 -118 -20 -118
-14 0 4 -3 22 -6 39 -5 24 -3 31 9 31 24 0 26 10 16 90 -5 41 -16 136 -24 210
-20 177 -45 323 -56 334 -13 14 -11 -34 6 -166 22 -173 44 -359 47 -398 2 -30
0 -35 -17 -33 -11 1 -90 14 -176 28 -179 29 -255 31 -324 10 -27 -8 -51 -13
-53 -10 -2 2 1 52 7 112 6 59 17 189 26 288 29 329 68 469 157 570 56 65 85
73 223 61 l91 -8 27 -52 c43 -82 251 -450 270 -476 11 -16 17 -19 17 -10 0 16
-117 235 -199 375 -26 44 -60 101 -74 126 l-27 47 25 6 c13 3 32 17 42 31 10
13 21 25 25 25 3 0 37 -14 74 -31z m2908 -74 c56 -144 259 -175 526 -79 41 14
92 35 113 46 21 10 43 18 48 16 29 -10 -176 -230 -310 -332 -118 -90 -172
-120 -225 -126 -47 -5 -49 -6 -28 -18 49 -28 151 28 326 176 49 42 84 67 77
56 -6 -10 -63 -100 -127 -199 -64 -99 -158 -247 -209 -330 -50 -82 -113 -183
-140 -224 -53 -84 -51 -85 -89 24 -13 36 -26 68 -29 72 -13 12 5 -61 30 -125
26 -65 25 -96 -2 -90 -16 3 -66 114 -101 221 -16 51 -34 82 -34 60 0 -21 43
-149 70 -210 16 -35 24 -63 19 -63 -38 0 -131 174 -155 290 -19 92 -15 139 31
325 19 77 46 219 60 315 14 96 28 182 30 190 4 12 63 42 96 49 4 0 14 -19 23
-44z m1022 -46 c44 -27 43 -35 -5 -31 -42 4 -85 -13 -115 -47 -11 -12 -27 -21
-36 -21 -22 0 -70 -37 -70 -55 0 -14 -28 -41 -35 -33 -10 10 49 141 66 145 10
3 44 18 76 34 69 35 76 35 119 8z m-2841 -99 c18 -36 56 -132 85 -215 42 -119
109 -289 146 -370 2 -6 -8 -18 -23 -26 -25 -16 -30 -15 -90 7 -35 13 -74 24
-87 24 -28 0 -29 1 -51 175 -16 121 -55 490 -55 510 1 18 42 -39 75 -105z
m1655 39 c-5 -30 -19 -112 -30 -184 -12 -71 -34 -181 -51 -244 -16 -63 -32
-140 -36 -171 -8 -82 19 -193 77 -308 l48 -95 -33 -79 c-47 -112 -85 -165
-176 -252 -82 -79 -124 -106 -137 -90 -10 11 -77 215 -87 261 -6 30 0 41 58
113 75 94 77 100 142 430 64 327 99 470 135 546 29 60 88 140 96 131 2 -2 0
-28 -6 -58z m886 37 c3 -8 -7 -33 -21 -56 -37 -59 -375 -751 -375 -767 1 -17
99 169 252 480 115 232 166 327 178 327 24 0 30 -10 19 -29 -25 -44 -58 -143
-269 -799 l-82 -254 -31 28 c-18 16 -36 32 -41 36 -5 4 -1 25 8 48 24 60 18
72 -9 16 -21 -43 -27 -49 -58 -51 -45 -2 -82 -27 -104 -68 -20 -39 -23 -171
-4 -238 13 -46 13 -46 -47 -170 -97 -201 -217 -380 -350 -521 -78 -82 -48 -74
36 10 113 114 233 294 333 501 l51 104 35 -64 35 -64 -27 -80 c-36 -105 -164
-368 -255 -525 -40 -69 -74 -128 -77 -132 -2 -5 -2 -8 2 -8 10 0 111 161 169
270 31 58 56 100 56 93 0 -13 -73 -197 -117 -294 -40 -86 -159 -287 -219 -369
-26 -36 -87 -112 -134 -170 -48 -58 -91 -116 -95 -130 l-8 -25 -9 24 c-4 13
-11 83 -15 155 l-6 131 31 58 c30 57 31 60 25 156 -4 69 -1 122 10 182 9 46
19 114 22 152 6 60 10 69 33 81 47 24 105 115 121 188 7 32 25 59 68 103 107
111 134 158 35 60 -88 -85 -92 -88 -107 -70 -8 11 -15 23 -15 27 0 12 96 161
132 202 109 128 223 296 288 427 43 87 29 69 -83 -103 -107 -164 -232 -328
-251 -328 -6 0 -16 4 -21 9 -6 5 -23 11 -40 13 -32 3 -41 22 -31 61 3 12 43
60 88 107 92 94 156 187 393 570 187 303 455 710 467 710 5 0 11 -6 14 -14z
m529 -24 c17 -10 50 -24 75 -31 102 -29 150 -84 188 -216 33 -115 35 -179 11
-283 -23 -100 -49 -138 -117 -174 -39 -21 -41 -46 -7 -76 26 -23 32 -46 15
-57 -5 -3 -10 2 -10 13 0 10 -12 29 -26 43 -15 14 -23 31 -21 41 3 11 0 18 -9
18 -22 0 -16 28 10 45 33 22 56 74 56 129 0 77 -56 110 -113 66 -14 -12 -32
-17 -42 -14 -13 5 -15 2 -9 -20 5 -20 1 -33 -14 -49 -11 -12 -22 -31 -24 -42
-5 -19 -5 -19 -13 -2 -5 11 -2 24 9 36 24 27 20 67 -11 95 -20 18 -29 38 -32
73 -5 43 -9 49 -37 58 -44 14 -64 34 -64 63 0 28 -26 62 -47 62 -8 0 -25 12
-38 26 -14 15 -25 23 -25 18 0 -17 31 -54 44 -54 7 0 21 -9 31 -20 16 -17 17
-25 7 -57 -6 -20 -8 -41 -5 -47 4 -7 2 -8 -5 -1 -6 6 -12 28 -14 50 -3 34 -8
42 -38 57 -46 23 -60 44 -60 87 l0 36 -24 -40 c-14 -23 -40 -48 -60 -58 -24
-11 -38 -26 -42 -44 -4 -15 -18 -40 -31 -55 -14 -14 -22 -31 -19 -37 4 -6 3
-11 -2 -11 -25 0 -20 34 8 60 21 19 30 38 30 58 0 20 8 36 22 46 12 9 20 18
17 21 -13 13 -49 -28 -49 -56 0 -18 -4 -28 -10 -24 -5 3 -10 21 -10 40 0 24 8
40 29 58 16 13 36 38 45 54 16 31 34 43 66 43 11 0 24 9 30 21 16 28 76 52
115 45 18 -4 49 0 71 8 54 20 113 19 149 -2z m-3429 -252 c-5 -155 -21 -299
-51 -460 -9 -47 -19 -102 -22 -123 -8 -55 -46 -81 -150 -105 -48 -11 -89 -19
-91 -18 -1 2 24 59 57 127 112 235 193 492 228 725 l18 119 8 -55 c5 -30 6
-125 3 -210z m3788 92 c3 -5 -4 -16 -15 -26 -29 -24 -17 -32 16 -10 25 16 28
16 63 -2 l37 -19 -47 -3 c-28 -2 -52 -10 -60 -19 -11 -15 -11 -16 7 -9 42 18
61 17 87 -3 35 -28 40 -66 16 -118 -23 -49 -34 -59 -68 -66 -22 -4 -21 -4 7
-6 25 -1 37 6 57 32 23 29 26 30 26 10 0 -58 -51 -104 -99 -88 -13 4 -21 2
-21 -5 0 -6 14 -13 30 -17 29 -5 30 -7 14 -24 -19 -21 -64 -25 -81 -8 -9 9 -8
20 4 43 21 41 28 141 13 195 -6 24 -25 57 -41 73 -35 35 -36 42 -7 62 24 17
54 21 62 8z m-653 -101 c30 -14 35 -22 39 -61 4 -35 11 -48 31 -59 16 -9 33
-11 45 -6 16 7 17 9 3 12 -10 2 -19 13 -22 24 -6 23 -9 24 44 -4 39 -21 45
-29 50 -64 3 -26 17 -54 37 -78 l32 -36 -20 -26 c-26 -33 -25 -58 1 -77 14
-10 20 -22 16 -35 -3 -13 -1 -18 9 -14 20 7 27 39 12 62 -10 17 -9 23 15 45
15 14 27 31 27 38 0 7 16 24 35 37 33 22 36 23 60 7 20 -13 25 -24 25 -61 0
-61 -46 -115 -98 -115 -26 0 -33 -3 -25 -11 6 -6 19 -12 29 -13 17 -3 20 -15
24 -107 6 -116 18 -148 74 -197 35 -30 35 -31 20 -61 -38 -76 -321 -158 -417
-122 -37 14 -67 51 -67 83 0 22 8 32 40 48 l40 20 0 -22 c0 -16 3 -19 11 -11
7 7 10 34 7 70 l-4 59 43 18 c48 20 132 90 121 101 -4 4 -23 -6 -43 -24 -62
-55 -113 -75 -187 -76 -57 0 -70 3 -93 25 -64 60 -109 196 -99 305 7 89 13
108 25 78 8 -22 39 -23 39 -2 0 5 5 9 10 9 16 0 12 -27 -10 -72 -30 -63 -23
-108 19 -108 12 0 10 5 -6 22 l-22 21 20 39 c21 41 39 145 20 118 -8 -12 -13
-12 -23 -2 -6 6 -25 12 -40 12 -23 0 -28 4 -28 25 0 22 4 25 36 25 21 0 33 4
29 10 -3 6 -19 10 -36 10 -25 0 -29 4 -29 29 0 17 4 33 10 36 5 3 14 23 20 44
7 28 18 41 45 54 19 9 35 22 35 29 0 7 9 2 19 -11 10 -13 34 -32 52 -40z m609
-23 c23 -50 26 -138 6 -183 -12 -28 -13 -27 -8 27 4 48 -4 106 -25 181 -9 32
8 17 27 -25z m-830 2 c0 -10 -7 -20 -15 -24 -20 -7 -20 -64 0 -87 14 -15 14
-18 -1 -33 -21 -22 -12 -31 17 -16 l22 12 -7 -129 c-6 -118 -5 -136 14 -194
26 -76 64 -144 93 -164 l21 -15 -30 -72 c-26 -64 -33 -73 -63 -80 -18 -5 -35
-8 -37 -6 -2 2 6 22 17 44 23 49 43 112 29 98 -5 -5 -22 -40 -39 -79 l-29 -70
-87 -3 -87 -3 20 28 c30 44 72 130 72 150 -1 10 -23 -26 -51 -79 -29 -57 -57
-98 -66 -98 -9 0 -12 6 -9 18 10 35 27 144 23 148 -2 3 -10 -17 -16 -43 -31
-124 -30 -123 -57 -123 -18 0 -25 4 -21 14 10 26 165 508 217 674 28 89 55
160 61 157 5 -4 9 -14 9 -25z m-2220 -65 c0 -29 -12 -32 -34 -9 -23 22 -20 34
9 34 20 0 25 -5 25 -25z m-203 -346 c43 -17 84 -37 92 -44 30 -29 -16 -27 -86
3 -87 39 -128 46 -210 37 -87 -9 -64 -25 38 -25 61 0 90 -6 148 -29 89 -37
131 -62 131 -77 0 -24 -28 -21 -115 13 -72 28 -109 36 -182 40 -65 4 -93 2
-93 -6 0 -7 21 -11 53 -11 28 0 71 -5 95 -10 67 -16 193 -72 189 -84 -6 -19
-66 -18 -132 3 -43 14 -91 21 -145 21 -99 0 -98 -15 2 -22 61 -5 179 -36 195
-52 3 -3 2 -10 -2 -16 -5 -8 -34 -10 -100 -5 -129 10 -143 5 -222 -77 -74 -77
-145 -118 -205 -118 -24 0 -85 -23 -185 -71 -382 -183 -584 -248 -770 -249
-72 0 -85 3 -111 24 -35 30 -83 119 -111 206 -24 73 -71 326 -63 335 10 10
113 5 204 -10 220 -36 218 -36 218 -59 0 -11 3 -31 6 -43 5 -17 1 -24 -12 -29
-43 -13 -115 -49 -126 -61 -14 -18 5 -17 40 1 46 23 151 44 297 60 142 16 204
26 330 52 120 25 199 46 225 60 14 7 84 67 155 134 72 67 143 124 160 129 17
5 72 10 122 10 81 1 102 -3 170 -30z m744 -16 c43 -39 63 -140 79 -398 8 -140
8 -140 5 60 -2 136 -8 217 -17 253 -14 48 -14 52 2 52 27 0 69 -48 77 -89 5
-20 8 -153 7 -296 0 -274 10 -279 22 -10 6 149 -2 267 -23 321 -6 15 -2 15 25
-4 19 -14 35 -37 42 -60 22 -79 6 -494 -28 -746 l-7 -50 -27 32 c-16 19 -24
39 -21 51 8 33 -116 141 -162 141 -12 0 -38 17 -58 38 l-37 38 29 114 c39 153
51 247 51 391 0 84 -5 130 -15 156 -8 19 -15 37 -15 40 0 11 47 -12 71 -34z
m2388 -58 c7 -24 35 -76 61 -115 48 -68 48 -70 24 -70 -14 0 -37 -12 -51 -26
-23 -23 -28 -25 -50 -13 -48 26 -89 118 -81 183 3 26 4 26 26 11 17 -13 20
-20 12 -35 -25 -46 5 -102 46 -86 21 8 17 25 -5 19 -31 -8 -35 16 -7 42 33 31
33 58 0 89 -15 13 -23 29 -20 35 14 23 32 10 45 -34z m-2917 -40 c91 -48 214
-85 284 -85 49 0 136 30 165 56 18 17 19 15 19 -42 -1 -105 -45 -366 -77 -452
-9 -23 -10 -22 -71 32 -35 31 -67 56 -71 56 -17 0 -33 -29 -26 -49 3 -10 40
-50 82 -87 68 -61 74 -69 57 -79 -11 -5 -62 -52 -115 -102 -52 -51 -99 -93
-105 -93 -8 0 -27 45 -85 203 -11 32 -23 56 -26 54 -8 -8 37 -148 67 -209 l28
-57 -46 -15 c-75 -23 -93 -25 -96 -13 -2 7 -11 82 -21 167 -9 85 -25 204 -35
263 -18 105 -59 261 -67 254 -2 -2 6 -42 16 -88 11 -46 29 -151 41 -234 11
-82 27 -199 36 -259 12 -83 13 -111 4 -116 -7 -4 -53 -13 -104 -20 -50 -6
-101 -14 -113 -17 -33 -7 -31 30 2 45 27 13 31 25 40 130 3 40 15 101 26 135
24 71 36 186 22 212 -7 12 -11 -6 -16 -72 -8 -121 -25 -165 -26 -66 -2 135
-18 82 -29 -95 -7 -97 -12 -184 -12 -193 0 -13 -20 -8 -107 27 -131 52 -212
74 -275 74 -30 0 -48 4 -48 12 0 6 20 72 44 147 24 75 56 178 71 229 20 66 38
104 63 133 l36 41 105 -4 c116 -6 146 0 156 31 4 14 15 21 30 21 26 0 55 24
55 46 0 8 7 14 15 14 14 0 35 29 35 49 0 5 -7 17 -16 25 -12 13 -12 36 0 36 2
0 42 -20 88 -45z m-2032 -131 c0 -22 -3 -24 -22 -18 -48 14 -55 22 -28 33 40
16 50 13 50 -15z m4512 -28 c4 -6 8 -17 8 -23 0 -15 -65 -50 -105 -57 -15 -3
-33 -10 -41 -17 -20 -17 -18 1 10 64 l25 55 48 -6 c26 -3 51 -10 55 -16z m687
-63 c50 -50 91 -119 91 -154 0 -47 -55 -121 -122 -164 -26 -16 -28 -16 -34 -1
-5 12 8 31 39 63 44 43 66 80 82 131 12 41 -10 22 -41 -36 -34 -63 -129 -151
-146 -134 -13 13 2 40 56 107 39 47 77 138 63 151 -3 3 -16 -19 -30 -50 -27
-58 -101 -146 -123 -146 -21 0 -17 31 10 71 32 47 56 105 56 136 0 20 -3 23
-13 14 -9 -7 -17 -7 -24 0 -7 7 -20 1 -41 -20 -19 -19 -41 -31 -57 -31 -29 0
-29 -1 17 68 l29 42 70 0 70 0 48 -47z m-2276 -270 c24 -78 42 -145 39 -148
-3 -3 -15 -5 -28 -5 -17 0 -35 -20 -75 -82 -30 -46 -59 -96 -66 -112 -7 -16
-15 -27 -17 -25 -2 2 2 51 10 109 13 92 31 376 34 525 l2 50 28 -85 c15 -47
48 -149 73 -227z m910 264 c76 -32 150 -155 173 -289 15 -87 12 -117 -19 -200
-20 -54 -24 -58 -54 -58 -18 0 -33 4 -33 9 0 5 -15 19 -33 30 -44 27 -108 119
-137 196 -27 73 -37 197 -21 248 13 37 53 77 78 77 7 0 28 -6 46 -13z m-405
-24 c24 -6 29 -18 11 -28 -15 -10 -69 15 -69 32 0 11 5 13 18 8 9 -4 27 -10
40 -12z m1610 -90 c-54 -90 -84 -204 -144 -553 -20 -118 -40 -218 -43 -222 -8
-9 -184 18 -242 37 -25 9 -58 29 -74 45 l-27 29 20 28 c11 15 92 147 179 293
237 392 222 370 253 370 15 0 42 11 61 24 19 13 38 20 43 15 4 -4 -7 -34 -26
-66z m-628 50 c0 -34 40 -84 83 -103 76 -35 194 -19 335 46 39 18 72 31 72 29
0 -2 -17 -30 -38 -62 -21 -32 -112 -181 -202 -330 l-164 -273 -26 24 c-31 29
-176 97 -193 90 -15 -6 -6 146 19 303 8 57 14 109 11 115 -13 38 -67 -275 -67
-389 0 -40 -3 -73 -8 -73 -14 0 -113 71 -119 86 -3 8 5 41 17 72 12 31 44 122
72 202 55 163 80 207 140 250 47 34 68 38 68 13z m-1070 -37 c-5 -15 -10 -41
-10 -58 0 -23 -12 -44 -45 -79 -43 -46 -49 -62 -45 -121 1 -26 0 -26 -67 -30
-37 -2 -69 -3 -70 -3 -1 0 38 42 87 92 67 69 97 109 121 162 33 68 50 91 29
37z m79 18 c4 -4 -34 -57 -52 -73 -12 -9 -13 -5 -6 31 4 24 8 47 9 51 0 7 38
0 49 -9z m871 -1 c0 -5 -12 -16 -25 -26 -32 -23 -262 -30 -288 -8 -10 7 -17
16 -17 20 0 3 46 5 103 3 56 -2 125 1 152 6 66 13 75 13 75 5z m-60 -82 c-5
-11 -32 -84 -59 -163 -27 -79 -59 -171 -72 -205 l-23 -63 33 -34 34 -35 -14
-58 c-16 -66 -36 -70 -31 -5 2 27 -6 74 -23 127 -25 77 -33 90 -57 86 -10 -1
-10 -3 7 44 25 70 16 204 -20 298 -6 14 -2 17 24 17 18 0 34 -6 36 -12 3 -7
12 -62 20 -122 26 -190 33 -127 8 82 -6 52 -5 54 18 50 18 -2 27 -14 41 -58
17 -53 18 -53 13 -13 -3 23 -8 48 -11 56 -4 12 3 17 28 20 18 2 39 5 46 5 10
2 10 -3 2 -17z m1076 -73 c-7 -38 -52 -88 -78 -88 -26 0 -23 7 22 56 22 24 40
48 40 54 0 5 5 10 11 10 8 0 9 -11 5 -32z m-2916 -88 c52 -50 87 -90 79 -90
-18 0 -199 156 -199 171 0 23 32 1 120 -81z m2652 43 c2 -21 9 -29 28 -31 14
-2 33 -11 42 -19 12 -11 27 -13 52 -9 21 4 37 2 41 -5 4 -6 17 -8 30 -5 21 5
23 -1 49 -117 22 -101 42 -180 58 -230 2 -4 -31 -9 -72 -11 -50 -3 -109 -16
-176 -38 l-102 -33 -6 50 c-3 27 -6 92 -6 143 0 60 -4 91 -10 87 -5 -3 -10
-23 -10 -43 -1 -28 -3 -33 -10 -21 -11 18 -3 74 31 222 17 71 24 87 39 87 13
0 20 -9 22 -27z m-4149 -52 c-10 -16 -61 -85 -113 -152 -112 -145 -239 -277
-330 -344 -66 -48 -179 -110 -186 -102 -10 10 39 233 83 379 28 96 21 89 126
104 54 7 53 11 32 -87 -9 -40 -13 -74 -11 -76 6 -6 46 128 46 154 0 17 20 27
128 62 70 23 150 52 177 65 66 32 70 32 48 -3z m2386 -93 c-192 -25 -331 -38
-340 -32 -7 4 -10 1 -7 -7 3 -8 -14 -43 -37 -79 -41 -65 -153 -255 -214 -362
-34 -60 -46 -74 -55 -60 -9 15 282 508 309 522 32 17 367 48 384 36 11 -8 1
-13 -40 -18z m-699 -35 c41 -27 90 -76 90 -90 0 -19 -13 -16 -56 13 -39 27
-67 37 -136 49 -63 10 -43 -11 28 -31 43 -11 72 -26 85 -42 18 -24 27 -68 12
-60 -58 29 -110 48 -131 48 -36 0 -18 -14 45 -35 59 -18 67 -26 58 -54 -5 -18
-9 -18 -52 -5 -25 8 -55 14 -65 14 -32 0 -11 -16 37 -30 25 -7 48 -17 52 -23
10 -16 -29 -38 -63 -35 -21 1 -47 -8 -83 -31 -41 -27 -67 -35 -124 -41 -57 -6
-91 -17 -167 -55 -99 -50 -279 -122 -365 -146 -28 -8 -94 -14 -148 -14 -98 0
-99 0 -127 32 -46 52 -55 99 -53 282 1 100 6 168 12 174 8 8 25 7 59 -1 56
-15 213 -72 228 -83 5 -5 8 -24 6 -43 -4 -30 -8 -35 -40 -41 -40 -7 -97 -34
-89 -41 3 -3 42 2 88 10 46 8 113 18 149 22 105 10 218 32 294 56 65 20 80 31
173 120 l102 98 78 0 c56 0 86 -5 103 -17z m700 -60 l-50 -78 -61 3 c-62 4
-99 -13 -99 -45 0 -7 -8 -13 -19 -13 -10 0 -25 -7 -32 -16 -21 -26 -39 -86
-30 -102 5 -8 6 -23 3 -34 -3 -11 5 -29 19 -44 22 -24 22 -26 7 -52 -20 -32
-30 -35 -183 -57 -66 -9 -133 -19 -148 -22 l-28 -5 20 40 c18 35 268 451 277
461 4 4 294 38 341 40 l32 1 -49 -77z m-3021 52 c2 -2 -13 -44 -32 -92 -35
-86 -60 -173 -52 -182 5 -4 10 7 65 156 40 106 44 111 74 116 17 2 32 4 33 3
1 -1 -9 -38 -23 -81 -33 -102 -74 -298 -74 -352 l0 -42 -55 -11 c-63 -13 -135
-5 -135 15 0 21 39 202 56 263 9 31 32 94 52 140 33 80 36 83 61 77 14 -4 28
-8 30 -10z m1145 -80 c-5 -13 -9 -13 -23 -3 -9 7 -18 14 -20 15 -2 2 8 3 22 3
20 0 25 -4 21 -15z m2635 -7 c5 -13 7 -25 5 -27 -5 -6 -44 30 -44 41 0 18 31
7 39 -14z m-38 -33 c39 -20 29 -34 -19 -28 -23 3 -53 -1 -76 -11 -52 -22 -39
-31 22 -16 40 11 53 10 77 -1 46 -23 43 -39 -8 -39 -24 0 -58 -5 -76 -11 -35
-12 -44 -35 -8 -25 49 15 95 18 116 7 33 -18 25 -29 -26 -36 -27 -3 -59 -13
-73 -21 -23 -12 -18 -13 48 -7 88 7 94 -6 17 -37 -54 -22 -67 -34 -43 -42 6
-2 9 -9 7 -16 -6 -17 -67 16 -75 42 -3 11 -13 28 -21 37 -9 11 -16 46 -18 92
-4 74 -3 77 26 102 35 29 85 33 130 10z m-1308 -23 c50 -52 25 -50 -38 2 -27
23 -28 25 -9 26 11 0 32 -13 47 -28z m2264 -105 c5 -72 9 -91 24 -100 12 -8
19 -23 19 -44 l0 -33 -60 0 c-33 0 -60 3 -60 7 0 4 12 74 27 156 30 167 41
170 50 14z m-1691 78 c8 -19 -11 -99 -34 -145 -21 -43 -76 -100 -96 -100 -30
0 -97 33 -107 52 -15 29 -7 30 39 8 22 -11 53 -20 69 -20 33 0 21 13 -27 29
-57 18 -104 51 -92 63 8 8 26 6 66 -6 30 -10 69 -16 88 -14 31 3 29 5 -27 21
-93 28 -115 38 -115 55 0 15 25 15 153 -4 51 -7 67 9 20 20 -86 21 -103 28
-103 41 0 22 158 22 166 0z m814 -63 c0 -13 -4 -20 -10 -17 -5 3 -10 21 -10
38 0 24 3 28 10 17 5 -8 10 -25 10 -38z m238 28 c9 -5 43 -21 74 -35 42 -19
67 -39 94 -76 62 -84 151 -114 394 -129 80 -5 163 -12 185 -15 l40 -5 -42 20
c-42 20 -43 22 -43 69 l0 48 68 21 c91 29 163 44 171 36 11 -11 4 -257 -8
-317 -7 -32 -23 -70 -36 -84 -20 -24 -32 -28 -93 -31 -121 -7 -256 28 -516
132 -58 23 -106 36 -136 36 -90 0 -206 42 -218 79 -3 10 0 11 18 1 36 -19 34
-4 -4 25 -54 41 -46 56 17 30 35 -15 16 15 -23 35 -45 23 -56 56 -16 46 13 -3
32 -9 41 -13 12 -4 16 -2 13 7 -2 7 -24 21 -48 30 -43 17 -59 33 -43 43 5 3
42 -1 83 -9 117 -22 135 -15 42 17 -27 9 -48 23 -50 32 -4 19 10 22 36 7z
m-125 -16 c3 -3 1 -14 -5 -24 -7 -10 -8 -25 -3 -36 5 -11 10 -28 11 -39 2 -11
6 -33 10 -50 l7 -30 -26 28 c-14 15 -31 27 -37 27 -13 0 -13 30 1 86 10 40 26
54 42 38z m1137 -49 c0 -2 -9 -9 -20 -15 -16 -9 -20 -8 -20 5 0 8 9 15 20 15
11 0 20 -2 20 -5z m-1172 -108 c45 -28 62 -45 62 -61 0 -12 7 -32 16 -44 22
-31 10 -92 -25 -133 -28 -31 -28 -31 -62 -15 -41 20 -65 40 -101 84 -34 41
-35 46 -2 61 26 11 27 14 21 71 -7 65 -1 94 17 83 6 -4 39 -24 74 -46z m-110
-61 c-5 -36 -37 -32 -53 8 -20 46 -19 51 8 63 19 9 24 7 35 -19 7 -17 12 -40
10 -52z m-1934 -47 c-111 -132 -247 -230 -341 -245 l-40 -6 -8 53 c-14 104
-16 100 41 115 71 18 232 83 329 132 44 22 82 38 84 36 2 -2 -27 -40 -65 -85z
m947 33 c-30 -42 -97 -105 -133 -124 -18 -10 -49 -18 -69 -18 -30 0 -38 4 -43
23 -14 51 -11 53 90 67 94 12 113 21 134 61 6 10 18 19 26 19 13 0 12 -5 -5
-28z m1249 -91 c0 -4 -12 -18 -27 -32 -21 -19 -25 -20 -20 -6 4 10 7 30 7 43
0 22 3 23 20 14 11 -6 20 -14 20 -19z m-1526 2 c24 -86 13 -134 -35 -159 -34
-17 -34 -17 -14 29 24 58 16 77 -9 22 -12 -27 -31 -57 -41 -65 -17 -14 -18
-13 -11 20 4 19 12 63 19 97 9 49 16 63 32 66 42 9 54 6 59 -10z m-1135 -127
c-24 -44 -30 -65 -27 -94 3 -24 -1 -49 -14 -72 -23 -45 -23 -97 1 -159 20 -48
20 -51 1 -182 -10 -74 -21 -147 -23 -164 -3 -24 -4 -21 -6 13 -2 70 -30 582
-35 659 l-6 72 68 3 c45 2 68 -1 70 -9 2 -6 -11 -37 -29 -67z"/>
<path d="M3444 4765 c20 -81 19 -91 -12 -126 -28 -32 -29 -33 -14 -70 13 -35
13 -41 -2 -63 -9 -14 -16 -28 -16 -31 0 -11 19 -4 35 12 14 13 16 28 11 68 -5
44 -3 55 14 70 38 34 34 123 -7 157 -14 12 -15 10 -9 -17z"/>
<path d="M3636 4625 c-38 -13 -74 -40 -65 -49 2 -2 31 5 64 16 40 13 76 18
108 15 48 -4 71 8 46 24 -21 13 -109 10 -153 -6z"/>
<path d="M3892 4543 c3 -16 16 -72 29 -127 23 -97 23 -99 3 -113 -24 -17 -93
-8 -111 15 -16 20 -27 10 -18 -17 7 -22 77 -42 120 -33 37 7 58 43 50 84 -15
77 -59 218 -68 218 -5 0 -7 -12 -5 -27z"/>
<path d="M3651 4542 c-38 -18 -59 -51 -25 -37 32 13 59 18 52 10 -10 -11 10
-45 27 -45 16 0 38 34 28 44 -3 3 5 6 18 6 l24 1 -24 19 c-29 25 -56 25 -100
2z"/>
<path d="M3950 4536 c-10 -13 -10 -16 1 -16 8 0 19 -10 24 -22 13 -29 26 -29
41 -1 6 13 14 20 18 15 5 -4 7 2 5 13 -5 26 -69 34 -89 11z"/>
<path d="M3433 4396 c9 -61 57 -160 80 -164 16 -3 15 1 -6 35 -14 21 -33 66
-43 101 -21 77 -40 95 -31 28z"/>
<path d="M3715 4267 c-16 -7 -40 -18 -52 -25 -32 -18 -68 -92 -45 -92 4 0 16
15 26 34 13 24 33 41 67 56 27 11 49 25 49 30 0 12 -7 12 -45 -3z"/>
<path d="M3540 4227 c0 -8 9 -22 20 -32 23 -21 25 -16 8 20 -12 27 -28 34 -28
12z"/>
<path d="M3720 4191 c0 -17 32 -29 96 -36 58 -7 144 7 144 23 0 4 -42 8 -92 7
-51 0 -105 4 -120 9 -19 5 -28 5 -28 -3z"/>
<path d="M3677 4183 c-11 -18 -18 -74 -12 -93 12 -37 21 -21 23 40 2 57 -1 70
-11 53z"/>
<path d="M3971 4104 c-13 -58 -8 -85 7 -43 17 44 23 87 14 93 -5 3 -15 -20
-21 -50z"/>
<path d="M3793 4105 c2 -5 28 -10 57 -10 29 0 55 5 57 10 2 6 -21 10 -57 10
-36 0 -59 -4 -57 -10z"/>
<path d="M3890 4055 c0 -21 17 -45 32 -45 13 0 9 13 -12 40 -18 23 -20 24 -20
5z"/>
<path d="M3720 4049 c0 -17 27 -45 35 -37 3 3 -3 16 -14 29 -16 19 -20 20 -21
8z"/>
<path d="M3790 4039 c-7 -11 -9 -24 -5 -27 7 -7 35 25 35 40 0 16 -19 8 -30
-13z"/>
<path d="M6216 4859 c-26 -21 -51 -57 -44 -65 2 -2 24 17 48 41 45 46 43 61
-4 24z"/>
<path d="M5966 4669 c-18 -14 -26 -30 -26 -50 0 -17 -7 -37 -15 -45 -8 -9 -15
-22 -15 -29 0 -9 9 -5 25 11 14 14 25 36 25 49 0 40 11 54 46 61 19 3 31 10
28 15 -9 15 -40 10 -68 -12z"/>
<path d="M6273 4674 c-17 -12 -26 -13 -43 -4 -18 10 -21 9 -18 -2 7 -20 45
-22 83 -4 42 20 40 20 65 -6 15 -16 20 -18 20 -7 0 39 -65 52 -107 23z"/>
<path d="M6436 4606 c-29 -9 -35 -14 -23 -19 9 -3 30 -2 46 4 43 15 71 -2 71
-45 0 -53 44 -81 91 -56 30 17 22 30 -10 17 -37 -14 -61 3 -61 44 0 33 -31 70
-57 68 -10 -1 -36 -7 -57 -13z"/>
<path d="M6620 4402 c0 -18 38 -42 67 -42 17 0 41 9 54 21 21 18 21 20 4 13
-44 -16 -76 -16 -100 0 -14 9 -25 13 -25 8z"/>
<path d="M6946 4333 c26 -51 13 -96 -34 -115 l-27 -12 25 -4 c31 -5 70 38 70
78 0 37 -19 80 -36 80 -10 0 -10 -6 2 -27z"/>
<path d="M6305 4384 c-5 -1 -27 -5 -47 -9 -25 -4 -38 -11 -38 -21 0 -10 6 -14
18 -10 51 14 102 15 150 3 48 -13 68 -8 40 9 -16 10 -110 32 -123 28z"/>
<path d="M6283 4290 c-24 -10 -33 -35 -11 -28 7 3 17 -5 23 -16 16 -31 43 -32
51 -2 7 29 8 30 34 16 12 -6 21 -7 25 0 6 10 -57 40 -84 39 -9 0 -26 -4 -38
-9z"/>
<path d="M6130 4288 c0 -2 -7 -52 -15 -111 -15 -115 -13 -132 17 -148 20 -11
105 -2 113 11 10 16 -14 21 -48 12 -62 -17 -67 -7 -60 123 3 63 3 115 0 115
-4 0 -7 -1 -7 -2z"/>
<path d="M6290 3960 c-14 -4 -56 -8 -94 -9 -56 -1 -67 -3 -57 -13 24 -25 191
-4 191 23 0 10 -5 10 -40 -1z"/>
<path d="M6180 3880 c0 -5 20 -10 44 -10 25 0 48 5 51 10 4 6 -13 10 -44 10
-28 0 -51 -4 -51 -10z"/>
<path d="M3267 4483 c-13 -12 -7 -21 11 -16 27 7 46 -21 38 -58 -7 -34 7 -59
31 -59 12 0 13 3 5 13 -6 7 -9 29 -6 48 4 26 1 39 -16 57 -20 21 -50 29 -63
15z"/>
<path d="M4184 3493 c21 -149 36 -309 42 -438 4 -80 12 -149 17 -152 24 -15
-12 481 -44 600 -14 52 -23 46 -15 -10z"/>
<path d="M4956 3455 c-54 -19 -73 -41 -26 -29 19 4 65 9 102 9 77 2 94 10 54
25 -37 14 -83 12 -130 -5z"/>
<path d="M4973 3375 c-18 -8 -33 -19 -33 -25 0 -13 17 -13 25 0 11 17 35 11
35 -9 0 -11 4 -22 9 -25 16 -10 41 6 41 26 0 10 4 17 9 13 5 -3 12 -1 16 5 3
5 -6 15 -20 20 -34 13 -43 12 -82 -5z"/>
<path d="M5201 3349 c0 -25 6 -69 15 -98 15 -52 15 -54 -7 -77 -17 -18 -19
-24 -7 -24 8 0 23 9 33 20 18 20 18 23 1 88 -11 37 -22 83 -26 102 -8 35 -8
35 -9 -11z"/>
<path d="M5244 3365 c-16 -12 -17 -14 -2 -15 9 0 20 -9 23 -20 8 -25 33 -26
42 -2 4 9 11 20 17 25 7 5 6 10 -4 17 -22 14 -53 12 -76 -5z"/>
<path d="M4610 3345 c-6 -8 -10 -22 -7 -32 4 -16 6 -15 12 5 8 25 27 29 44 8
9 -10 8 -16 -4 -26 -29 -24 -12 -80 24 -80 12 0 11 3 -2 18 -29 32 -18 69 11
40 20 -20 15 12 -8 50 -21 34 -50 42 -70 17z"/>
<path d="M5120 3170 c0 -5 11 -10 25 -10 14 0 25 5 25 10 0 6 -11 10 -25 10
-14 0 -25 -4 -25 -10z"/>
<path d="M5055 3060 c7 -11 116 -21 153 -14 57 12 34 19 -63 20 -52 1 -92 -2
-90 -6z"/>
<path d="M5110 2998 c0 -5 18 -8 40 -8 22 0 40 2 40 4 0 2 -18 6 -40 8 -22 2
-40 0 -40 -4z"/>
<path d="M7064 3580 c-23 -9 -41 -30 -27 -30 4 0 35 9 68 20 60 19 60 19 20
19 -22 0 -50 -4 -61 -9z"/>
<path d="M3170 3599 c0 -18 148 -183 258 -287 102 -97 223 -188 297 -223 94
-45 98 -34 7 19 -45 26 -117 75 -159 109 -70 55 -251 232 -361 353 -25 27 -42
39 -42 29z"/>
<path d="M3285 3564 c106 -90 304 -201 409 -228 89 -24 89 -7 0 24 -102 35
-198 83 -323 165 -104 68 -137 83 -86 39z"/>
<path d="M3880 3359 c-19 -17 -62 -43 -95 -59 -50 -25 -56 -29 -32 -30 38 0
95 31 136 74 43 45 37 54 -9 15z"/>
<path d="M3181 3290 c0 -8 6 -55 14 -105 9 -52 15 -163 16 -260 1 -133 3 -161
11 -130 16 66 3 348 -20 435 -11 41 -20 68 -21 60z"/>
<path d="M3586 3055 c28 -48 110 -149 154 -189 70 -63 66 -39 -6 37 -38 40
-91 97 -117 127 -29 33 -42 43 -31 25z"/>
<path d="M6164 3514 c15 -58 67 -170 102 -217 39 -54 87 -87 124 -87 24 0 23
1 -8 17 -67 33 -156 156 -191 265 -15 46 -37 65 -27 22z"/>
<path d="M6120 3505 c0 -48 21 -220 37 -295 22 -108 69 -245 110 -318 43 -78
55 -75 18 5 -38 82 -73 176 -90 243 -22 86 -55 289 -55 343 0 26 -4 47 -10 47
-5 0 -10 -11 -10 -25z"/>
<path d="M6750 3442 c-97 -66 -151 -94 -279 -143 -43 -17 -15 -19 40 -3 92 27
278 136 293 172 7 16 10 17 -54 -26z"/>
<path d="M6078 3365 c-5 -38 -7 -135 -6 -215 l1 -145 9 155 c4 85 7 182 6 215
l-3 60 -7 -70z"/>
<path d="M5804 2425 c26 -19 42 -19 26 0 -7 8 -20 15 -29 15 -13 -1 -13 -3 3
-15z"/>
<path d="M5959 1173 c-40 -54 -92 -122 -117 -151 -24 -29 -42 -55 -40 -57 13
-13 182 197 224 277 27 51 5 29 -67 -69z"/>
<path d="M7174 3406 c-17 -8 -34 -21 -37 -29 -5 -13 0 -13 26 3 18 11 40 20
50 20 10 0 15 5 12 10 -8 13 -13 12 -51 -4z"/>
<path d="M7534 3355 c22 -8 53 -24 69 -35 29 -22 29 -22 18 -1 -15 27 -62 51
-98 51 -26 -1 -25 -2 11 -15z"/>
<path d="M7253 3353 c-25 -10 -12 -19 21 -15 44 5 76 -12 76 -42 0 -31 30 -56
66 -56 35 0 54 -16 54 -45 0 -37 28 -65 63 -64 27 2 28 2 7 6 -36 7 -50 22
-50 52 0 40 -22 63 -66 70 -32 5 -42 13 -55 40 -25 53 -69 74 -116 54z"/>
<path d="M7595 3258 c11 -6 39 -29 63 -50 24 -22 46 -38 48 -35 10 10 -89 97
-110 97 -21 -1 -21 -1 -1 -12z"/>
<path d="M7273 3244 c18 -10 27 -23 27 -39 0 -32 25 -55 58 -54 24 2 24 2 5 6
-26 5 -53 39 -53 65 0 11 -11 23 -26 28 -37 14 -43 11 -11 -6z"/>
<path d="M7390 3103 c0 -21 38 -53 64 -53 13 0 30 7 37 17 13 15 12 15 -8 4
-25 -13 -57 -2 -80 28 -8 11 -12 12 -13 4z"/>
<path d="M7680 3083 c-25 -17 -43 -23 -63 -19 -17 4 -26 2 -22 -4 8 -13 61
-13 85 0 11 6 24 19 30 30 13 24 13 24 -30 -7z"/>
<path d="M7390 3030 c0 -22 20 -40 45 -39 19 0 19 1 -2 9 -12 5 -26 17 -32 27
-8 14 -10 15 -11 3z"/>
<path d="M7710 2999 c0 -7 -16 -27 -36 -45 -19 -19 -30 -34 -24 -34 16 0 70
59 70 76 0 8 -2 14 -5 14 -3 0 -5 -5 -5 -11z"/>
<path d="M7652 2859 c-18 -16 -26 -29 -19 -29 14 0 63 47 56 54 -2 2 -19 -9
-37 -25z"/>
<path d="M7833 3173 c-7 -2 -13 -9 -13 -14 0 -6 9 -5 21 1 16 9 26 8 45 -5 25
-16 33 -8 12 13 -12 12 -43 15 -65 5z"/>
<path d="M7156 3053 c-4 -4 21 -15 56 -24 35 -9 71 -19 81 -24 38 -16 14 14
-26 34 -43 21 -97 28 -111 14z"/>
<path d="M7178 2983 c-18 -5 -25 -23 -9 -23 5 0 11 -9 14 -20 7 -27 36 -26 46
2 5 14 10 17 15 10 8 -14 26 -16 26 -3 0 8 -63 43 -72 40 -1 -1 -11 -3 -20 -6z"/>
<path d="M7506 2928 c-20 -28 -20 -48 -1 -48 17 0 20 -16 5 -25 -5 -3 -10 -11
-10 -17 0 -7 6 -6 15 2 17 14 20 46 5 55 -8 5 -7 11 1 21 13 16 39 19 39 4 0
-5 5 -10 10 -10 7 0 7 6 0 20 -14 26 -45 25 -64 -2z"/>
<path d="M7075 2790 c3 -5 11 -10 16 -10 6 0 7 5 4 10 -3 6 -11 10 -16 10 -6
0 -7 -4 -4 -10z"/>
<path d="M7035 2700 c3 -5 35 -10 70 -10 35 0 67 5 70 10 4 6 -22 10 -70 10
-48 0 -74 -4 -70 -10z"/>
<path d="M7060 2650 c0 -6 17 -10 37 -10 43 0 41 5 -4 13 -19 4 -33 2 -33 -3z"/>
<path d="M6910 2598 c-6 -24 -24 -77 -40 -118 -16 -41 -32 -83 -36 -92 -12
-34 12 -18 30 20 34 70 77 232 62 232 -3 0 -10 -19 -16 -42z"/>
<path d="M5255 2445 c0 -110 -4 -238 -8 -285 -11 -116 2 -94 19 32 17 127 17
301 1 388 -11 60 -12 51 -12 -135z"/>
<path d="M5391 2054 c0 -11 3 -14 6 -6 3 7 2 16 -1 19 -3 4 -6 -2 -5 -13z"/>
<path d="M4740 2549 c82 -78 168 -140 233 -169 69 -32 88 -22 23 11 -70 35
-161 99 -250 175 -91 77 -95 66 -6 -17z"/>
<path d="M6478 2403 c56 -11 136 -132 167 -254 17 -63 17 -161 0 -204 -6 -15
-3 -14 11 4 22 31 23 153 1 227 -37 124 -120 235 -174 233 -24 -2 -25 -2 -5
-6z"/>
<path d="M7577 2193 c-51 -99 -239 -514 -234 -519 4 -5 159 313 232 475 25 57
44 105 42 107 -2 3 -20 -26 -40 -63z"/>
<path d="M7581 2068 c-46 -141 -127 -455 -119 -463 4 -4 67 213 125 429 28
103 24 126 -6 34z"/>
<path d="M7055 2180 c4 -142 26 -272 55 -318 13 -20 12 -9 -15 108 -9 41 -23
138 -30 215 l-14 140 4 -145z"/>
<path d="M7090 2287 c0 -29 29 -90 57 -119 30 -31 88 -47 106 -29 8 8 3 11
-20 11 -42 0 -90 42 -119 105 -13 27 -24 42 -24 32z"/>
<path d="M7445 2199 c-79 -69 -170 -134 -218 -154 -21 -9 -26 -14 -13 -15 32
0 134 61 211 127 60 51 107 103 93 103 -2 0 -34 -28 -73 -61z"/>
<path d="M2728 2174 c-5 -4 -8 -100 -7 -213 1 -149 4 -195 10 -167 11 46 8
391 -3 380z"/>
<path d="M3985 1573 c-167 -470 -318 -767 -542 -1066 -19 -26 -33 -50 -31 -53
8 -8 151 173 218 276 65 101 205 376 264 522 64 158 138 398 123 398 -2 0 -17
-35 -32 -77z"/>
<path d="M5105 1412 c-185 -450 -447 -770 -680 -828 -27 -7 -28 -8 -7 -12 40
-7 121 29 200 87 163 122 310 317 428 568 52 109 119 291 112 299 -3 2 -26
-49 -53 -114z"/>
<path d="M6546 1398 c-15 -47 -13 -768 2 -754 6 7 13 766 7 766 -3 0 -7 -6 -9
-12z"/>
<path d="M3601 1263 c-176 -272 -326 -443 -495 -562 -80 -56 -152 -81 -232
-81 -68 0 -79 -13 -20 -24 53 -10 162 20 237 64 132 78 336 295 473 504 56 85
121 205 114 211 -2 1 -36 -49 -77 -112z"/>
<path d="M7041 1276 c-23 -30 -67 -77 -97 -106 -30 -29 -53 -54 -51 -56 16
-16 148 121 186 194 19 36 6 25 -38 -32z"/>
<path d="M5172 1203 c-76 -223 -203 -463 -344 -654 -43 -59 -78 -110 -78 -114
0 -15 116 128 176 217 69 103 176 309 217 420 29 76 70 218 65 223 -2 2 -18
-40 -36 -92z"/>
<path d="M3082 1264 c-42 -29 -123 -47 -197 -41 -38 2 -78 8 -87 12 -10 4 -18
3 -18 -3 0 -18 61 -35 129 -35 68 0 145 26 196 67 26 20 6 21 -23 0z"/>
<path d="M7210 1093 c-87 -170 -190 -324 -271 -405 -67 -69 -74 -89 -13 -43
46 35 154 176 218 285 52 87 142 278 134 285 -2 2 -32 -53 -68 -122z"/>
<path d="M7320 1044 c-82 -229 -184 -445 -262 -557 -11 -16 -18 -30 -16 -33 8
-7 82 104 131 196 60 112 121 258 169 404 56 172 41 166 -22 -10z"/>
</g>
</svg>
