<?xml version="1.0" standalone="no"?>
<!DOCTYPE svg PUBLIC "-//W3C//DTD SVG 20010904//EN"
 "http://www.w3.org/TR/2001/REC-SVG-20010904/DTD/svg10.dtd">
<svg version="1.0" xmlns="http://www.w3.org/2000/svg"
 width="1024.000000pt" height="559.000000pt" viewBox="0 0 1024.000000 559.000000"
 preserveAspectRatio="xMidYMid meet">
<metadata>
Created by potrace 1.16, written by Peter Selinger 2001-2019
</metadata>
<g transform="translate(0.000000,559.000000) scale(0.100000,-0.100000)"
fill="#000000" stroke="none">
<path d="M5050 5159 c-13 -6 -38 -20 -55 -33 -22 -17 -39 -22 -62 -19 -67 10
-151 -35 -183 -98 -11 -21 -27 -39 -35 -39 -9 0 -20 -11 -25 -24 -5 -13 -18
-31 -30 -39 -12 -8 -34 -33 -48 -54 -24 -34 -27 -48 -27 -123 -1 -49 -6 -95
-14 -108 -28 -52 -11 -152 39 -222 11 -15 20 -43 20 -62 1 -43 29 -106 72
-154 18 -22 42 -56 53 -78 11 -23 33 -45 52 -54 32 -15 33 -17 33 -81 0 -135
-34 -186 -145 -225 -101 -34 -351 -151 -392 -182 -63 -48 -124 -149 -176 -289
-65 -181 -133 -359 -173 -457 -24 -59 -44 -119 -44 -134 0 -20 13 -39 46 -70
l47 -42 -17 -106 c-21 -137 -21 -282 1 -359 29 -104 85 -140 266 -168 72 -11
77 -13 70 -33 -4 -12 -7 -48 -8 -81 0 -48 -6 -69 -29 -104 -34 -53 -56 -113
-56 -155 0 -17 14 -64 31 -105 36 -85 37 -80 -34 -245 -52 -120 -52 -122 -51
-221 1 -79 6 -115 25 -170 23 -64 24 -78 17 -160 -11 -121 -6 -237 10 -243 9
-3 12 22 13 100 1 56 4 116 8 132 l6 29 14 -38 c9 -25 16 -34 23 -27 7 7 -5
55 -38 149 -44 125 -49 146 -49 228 0 82 3 99 40 189 l40 98 3 -83 c2 -46 0
-99 -3 -117 -5 -28 -9 -31 -21 -22 -11 10 -14 10 -14 -2 0 -27 31 -58 70 -68
147 -40 423 162 664 485 123 165 217 325 257 438 10 27 20 39 39 43 14 3 45
12 70 21 25 8 78 18 118 22 61 5 77 10 93 30 10 13 19 29 19 37 0 8 6 14 14
14 10 0 1 -50 -39 -207 -135 -526 -307 -913 -577 -1296 -49 -71 -88 -130 -85
-133 13 -13 187 230 292 409 176 302 363 812 431 1178 9 51 22 99 29 104 6 6
16 18 22 28 9 18 11 17 39 -5 16 -14 44 -30 62 -37 17 -8 32 -17 32 -22 0 -5
-27 -37 -59 -71 l-59 -63 14 75 c17 89 16 86 4 74 -5 -5 -18 -49 -30 -97 -13
-56 -30 -101 -47 -123 -24 -32 -25 -38 -14 -72 11 -34 8 -52 -44 -227 -111
-374 -260 -725 -434 -1020 -73 -123 -89 -163 -45 -110 82 99 260 443 357 691
59 148 152 438 182 562 l17 72 54 0 c30 0 54 -4 54 -8 0 -4 -9 -50 -21 -102
-85 -394 -191 -706 -351 -1040 -43 -90 -77 -171 -76 -179 2 -11 8 -8 19 10 32
48 116 215 159 314 23 55 46 104 51 110 5 5 10 -82 11 -205 1 -215 1 -215 9
-80 3 74 7 186 8 249 1 111 3 119 64 307 34 107 64 194 68 194 3 0 11 -115 17
-255 7 -141 17 -266 22 -278 10 -26 4 220 -11 465 -6 92 -8 175 -5 185 2 10
10 37 16 61 8 32 18 45 37 53 14 5 28 7 31 5 23 -24 76 -565 97 -996 7 -141
11 -170 25 -170 14 0 13 64 -10 415 -23 363 -56 666 -82 763 -1 4 6 22 16 41
15 28 17 47 12 96 l-6 62 60 12 c61 12 61 12 95 -18 65 -56 151 -63 207 -15
16 12 37 25 48 29 11 3 20 10 20 13 0 4 18 29 40 56 24 29 40 59 40 75 0 14 7
35 15 45 20 26 19 76 -1 104 -15 22 -13 25 63 108 112 122 110 120 86 152 -19
25 -26 27 -79 25 -50 -3 -225 -23 -315 -38 -36 -6 -65 37 -88 128 l-19 72 44
41 c52 48 54 66 19 152 -14 33 -46 121 -71 194 -39 114 -47 149 -54 244 -8
129 -17 149 -126 295 -53 71 -79 96 -133 127 -89 53 -167 92 -184 92 -8 0 -22
9 -33 21 -24 26 -87 59 -114 59 -38 0 -23 34 25 54 126 51 221 265 214 481 -5
163 -2 190 28 226 26 31 32 52 49 186 5 32 1 51 -14 77 -11 19 -24 56 -28 82
-8 57 -51 110 -102 124 -24 7 -44 22 -57 43 -30 47 -97 79 -165 76 -41 -2 -66
3 -97 19 -45 24 -128 29 -173 11z m167 -43 c36 -21 51 -24 96 -19 64 7 99 -9
147 -64 19 -21 51 -45 73 -53 50 -19 77 -54 84 -111 3 -24 14 -55 23 -69 29
-41 33 -68 16 -102 -9 -17 -16 -50 -16 -73 0 -24 -6 -48 -14 -54 -11 -9 -15 0
-21 51 -4 35 -8 80 -8 101 -1 40 -8 45 -27 22 -24 -29 -41 -18 -34 24 4 24 2
41 -5 45 -7 5 -11 -1 -11 -14 0 -22 -41 -70 -60 -70 -5 0 -10 8 -10 17 0 23
-31 103 -39 103 -4 0 -7 -16 -7 -35 0 -41 -33 -79 -76 -89 -26 -6 -27 -5 -21
28 4 28 1 39 -20 60 -34 34 -67 35 -67 1 0 -34 -33 -65 -70 -65 -17 0 -39 9
-50 20 -26 26 -30 25 -30 -4 0 -13 -10 -36 -22 -51 -19 -24 -26 -26 -61 -21
l-39 7 7 -50 c8 -57 -9 -98 -51 -126 -24 -15 -26 -21 -21 -63 9 -78 -27 -111
-58 -53 -41 80 -124 93 -176 29 -15 -19 -16 -19 -34 9 -27 40 -32 131 -10 177
12 26 15 48 11 79 -11 70 7 127 51 167 22 19 42 43 46 53 3 9 13 17 21 17 9 0
24 17 35 39 37 71 120 115 180 96 14 -4 32 2 54 19 69 53 146 61 214 22z m58
-362 l0 -49 42 -3 c35 -3 47 2 79 30 l37 33 -6 -27 c-8 -31 15 -44 54 -30 16
6 35 5 55 -4 29 -12 32 -18 43 -89 7 -42 11 -79 8 -81 -2 -2 -17 1 -34 7 -34
11 -94 0 -101 -19 -2 -8 14 -11 56 -11 63 1 86 -6 77 -22 -4 -5 -8 -82 -9
-172 -4 -187 -19 -252 -85 -354 -46 -71 -85 -101 -143 -111 -97 -17 -244 34
-353 124 -58 46 -70 46 -33 -1 49 -63 203 -141 303 -154 l50 -6 0 -89 c0 -62
4 -90 13 -93 8 -3 12 6 12 27 0 28 2 31 16 19 20 -16 39 -54 52 -102 l11 -39
-57 -25 c-96 -45 -224 -32 -462 47 -140 45 -221 81 -218 96 2 7 34 39 72 71
105 87 111 102 111 258 0 172 -4 184 -54 183 -53 -1 -93 30 -125 94 -50 101
-27 193 47 186 24 -2 39 -13 62 -45 36 -51 58 -60 90 -39 22 14 25 24 25 76 0
52 3 62 24 75 30 20 58 88 50 120 -5 21 -2 25 14 25 36 0 70 21 82 51 10 23
15 27 30 19 45 -24 115 3 132 51 15 44 33 30 33 -27z m-452 -621 c12 -22 16
-63 7 -63 -14 0 -60 46 -60 60 0 11 47 14 53 3z m593 -399 c86 -41 132 -141
159 -347 19 -151 19 -308 -1 -508 -19 -194 -14 -232 10 -84 23 138 32 466 17
588 -12 102 -37 209 -58 250 -7 15 -11 27 -8 27 3 0 36 -15 74 -34 75 -38 79
-44 108 -161 15 -58 17 -114 17 -330 -1 -254 -13 -395 -54 -630 -6 -33 -13
-75 -16 -92 -5 -31 -6 -32 -27 -19 -12 8 -36 17 -53 20 -17 4 -59 33 -96 66
l-65 59 18 83 c68 306 61 797 -13 996 -11 29 -35 68 -54 86 -19 18 -34 36 -34
40 0 11 42 6 76 -10z m-754 -54 c-13 -23 -14 -34 -6 -47 13 -21 151 -76 319
-129 110 -34 131 -37 245 -38 116 -1 128 1 164 23 l39 25 -6 -101 c-20 -293
-147 -657 -328 -938 l-52 -80 -29 90 c-17 50 -45 142 -64 205 -44 145 -44 144
-49 138 -13 -13 82 -334 120 -409 16 -30 16 -31 -27 -84 l-43 -55 -55 3 -55 2
-7 60 c-3 33 -11 119 -18 190 -38 436 -71 657 -124 819 -41 122 -73 184 -128
242 l-39 41 73 36 c40 19 76 36 80 36 4 1 -1 -12 -10 -29z m-129 -90 c109 -95
194 -400 232 -830 3 -36 14 -154 26 -264 11 -109 17 -201 15 -204 -3 -2 -25
-1 -49 2 l-43 7 -22 267 c-54 638 -109 863 -239 983 l-43 40 32 14 c46 20 53
19 91 -15z m-99 -50 c46 -41 108 -164 140 -280 29 -108 47 -224 70 -455 9 -88
23 -225 31 -305 22 -211 24 -199 -27 -189 -91 18 -210 47 -215 52 -3 3 -1 18
4 33 6 19 19 31 40 36 17 4 34 15 37 24 18 47 51 495 41 570 -9 78 -25 51 -25
-46 -1 -102 -34 -487 -43 -496 -4 -4 -15 0 -24 8 -10 9 -40 25 -68 37 -27 12
-94 47 -149 78 -112 65 -190 93 -253 93 -27 0 -43 4 -43 12 0 7 24 73 54 148
30 74 73 187 96 250 71 197 82 223 118 293 37 72 129 167 162 167 11 0 35 -14
54 -30z m1340 -35 c7 -16 19 -74 25 -127 23 -202 8 -510 -40 -833 -12 -77 -24
-160 -28 -183 l-6 -44 -23 25 -24 25 26 154 c45 265 58 439 53 678 -4 201 -14
278 -43 354 -7 19 -7 19 19 0 14 -10 33 -32 41 -49z m90 -115 c49 -77 65 -122
65 -185 1 -74 -24 -289 -53 -465 -42 -252 -64 -400 -72 -483 l-7 -78 -23 22
c-13 12 -23 33 -24 48 0 14 -1 40 -2 56 -1 17 8 86 20 155 67 381 85 700 53
934 -4 31 -5 56 -2 56 3 0 23 -27 45 -60z m-405 -245 c1 -201 -38 -585 -59
-585 -4 0 -17 12 -31 26 -41 44 -77 66 -99 59 -40 -13 -23 -48 60 -129 44 -43
80 -79 80 -81 0 -1 -15 -9 -32 -16 -18 -7 -81 -42 -139 -76 -104 -61 -108 -63
-178 -63 -39 0 -71 4 -71 8 0 5 9 17 21 28 63 57 223 333 289 499 67 168 138
431 141 528 l1 32 8 -30 c4 -16 8 -106 9 -200z m607 -439 l19 -48 -56 -52
c-58 -54 -146 -112 -156 -102 -3 3 8 90 25 193 17 104 34 211 37 238 13 107
14 106 64 -40 27 -77 57 -162 67 -189z m-2065 -36 c20 0 25 -24 11 -48 -7 -10
-15 -8 -35 8 -30 24 -37 56 -11 46 9 -3 24 -6 35 -6z m176 -62 c54 -28 131
-67 171 -87 78 -39 80 -42 60 -115 l-12 -45 -70 -3 c-39 -2 -71 -7 -71 -11 0
-4 38 -9 85 -11 47 -2 134 -15 195 -30 144 -36 305 -56 462 -59 144 -2 127 -8
312 101 l94 55 83 -6 c56 -3 97 -12 128 -26 43 -21 116 -91 116 -111 0 -18
-33 -10 -79 20 -45 28 -177 67 -189 55 -10 -10 18 -23 90 -45 55 -17 71 -27
83 -50 27 -53 13 -84 -28 -57 -33 21 -124 49 -144 44 -17 -4 12 -19 105 -57
29 -13 39 -38 20 -56 -13 -13 -22 -13 -73 1 -71 18 -88 19 -83 3 2 -6 26 -18
54 -25 27 -8 54 -19 59 -25 18 -17 -26 -38 -82 -38 -29 0 -76 -9 -105 -20 -60
-23 -117 -25 -197 -9 -47 10 -87 8 -241 -10 -370 -45 -515 -48 -698 -15 -133
24 -172 48 -203 124 -28 71 -12 404 27 543 8 26 25 21 131 -35z m1152 -20
c128 -112 173 -158 152 -158 -22 0 -193 151 -199 176 -5 22 7 17 47 -18z m681
-115 c7 -32 24 -72 36 -89 24 -33 22 -44 -6 -44 -10 0 -39 -24 -65 -52 -123
-134 -148 -159 -152 -154 -5 5 14 173 33 293 4 27 13 37 57 58 29 15 56 31 62
36 17 16 22 10 35 -48z m488 -126 c2 -11 -33 -57 -98 -127 l-102 -109 -59 6
c-70 7 -109 -12 -109 -53 0 -23 -3 -24 -35 -18 -51 9 -84 -2 -91 -31 -3 -14
-15 -30 -25 -36 -12 -6 -19 -21 -19 -38 0 -16 -3 -42 -6 -58 l-6 -29 -127 -19
c-71 -9 -133 -16 -139 -14 -9 3 262 315 363 418 19 20 43 26 156 42 225 32
279 41 279 51 0 10 -28 7 -260 -27 -148 -21 -169 -21 -170 6 0 3 64 14 143 24
78 10 162 21 187 26 72 12 114 7 118 -14z m-458 -68 c0 -12 -392 -449 -402
-449 -26 0 14 52 188 249 177 198 214 233 214 200z m-289 -95 c18 -19 27 -34
20 -34 -16 0 -91 58 -91 70 0 17 39 -3 71 -36z m609 -129 c0 -12 -7 -30 -15
-41 -8 -10 -15 -31 -15 -46 0 -16 -13 -41 -35 -64 -19 -20 -35 -40 -35 -45 0
-15 -107 -79 -134 -79 -15 0 -41 6 -59 14 -34 14 -94 72 -85 81 3 3 33 -8 66
-25 57 -29 122 -40 122 -21 0 5 -21 14 -46 20 -78 20 -151 74 -134 101 7 11
19 9 69 -14 78 -35 167 -54 182 -39 7 7 -9 15 -56 27 -92 23 -155 54 -155 76
0 24 22 31 60 20 80 -23 203 -41 213 -31 12 12 12 11 -76 36 -103 28 -86 70
25 59 59 -5 69 -4 75 11 6 17 7 17 20 -1 7 -10 13 -27 13 -39z m-1210 -84 c0
-8 -52 -81 -103 -141 -69 -83 -219 -227 -302 -290 -164 -125 -303 -179 -387
-150 -38 14 -44 21 -71 86 -24 58 -28 80 -23 115 7 50 62 153 76 144 6 -4 10
-39 10 -80 0 -75 14 -107 26 -60 9 35 -1 139 -19 201 -9 31 -12 64 -8 85 6 29
11 34 38 37 28 3 31 0 40 -37 9 -32 8 -38 -3 -34 -21 8 -17 -15 5 -27 55 -29
173 9 266 85 38 30 51 35 141 44 54 6 114 14 132 17 19 4 32 2 32 -4 0 -20
-226 -241 -310 -302 -186 -137 -309 -165 -372 -86 -25 31 -33 12 -9 -22 68
-96 223 -56 435 115 102 81 193 172 258 258 18 24 42 46 53 48 38 8 95 7 95
-2z m80 -23 c0 -17 -86 -182 -146 -279 -130 -210 -313 -421 -468 -537 -113
-85 -242 -136 -290 -114 -21 9 -22 14 -15 64 4 29 8 108 8 175 l1 122 37 -15
c72 -30 195 9 348 110 137 92 377 335 448 454 14 24 26 32 48 32 16 0 29 -5
29 -12z m-583 -44 c-48 -32 -137 -74 -159 -74 -21 0 -24 6 -33 52 l-7 37 58 4
c33 2 86 4 119 5 l60 2 -38 -26z m1177 -126 c3 -13 6 -40 6 -62 0 -32 -7 -45
-36 -73 -20 -19 -38 -32 -41 -29 -2 2 3 45 12 95 14 74 20 91 35 91 10 0 20
-10 24 -22z"/>
<path d="M5105 4534 c-43 -16 -79 -44 -57 -44 7 0 36 7 63 16 35 12 70 15 115
11 48 -3 64 -1 64 8 0 28 -118 33 -185 9z"/>
<path d="M5400 4423 c1 -27 9 -73 20 -103 25 -72 25 -85 -5 -108 -26 -21 -24
-34 3 -25 46 16 53 60 22 141 -11 29 -20 72 -20 97 0 25 -4 45 -10 45 -5 0
-10 -21 -10 -47z"/>
<path d="M5120 4438 c-22 -13 -30 -23 -22 -26 8 -2 19 1 25 7 17 17 37 13 37
-7 0 -10 5 -23 12 -30 16 -16 48 3 48 29 0 16 4 19 20 14 26 -8 26 11 1 25
-32 16 -83 12 -121 -12z"/>
<path d="M5468 4448 c-31 -11 -39 -33 -9 -23 15 4 20 0 23 -17 2 -15 11 -24
26 -26 18 -3 22 1 22 22 0 18 4 24 15 20 22 -9 18 14 -4 26 -23 12 -37 12 -73
-2z"/>
<path d="M4690 4389 c-14 -25 -3 -41 11 -16 13 23 32 22 54 -3 17 -19 17 -21
2 -38 -32 -35 -11 -84 35 -81 7 0 3 4 -10 10 -28 11 -28 55 1 53 24 -2 21 24
-9 63 -29 39 -67 44 -84 12z"/>
<path d="M5327 4214 c-4 -4 -4 -10 -2 -14 6 -10 45 0 45 11 0 10 -33 12 -43 3z"/>
<path d="M5322 4082 c-56 -1 -90 -7 -87 -12 8 -13 212 -13 220 0 3 6 2 10 -4
10 -5 0 -15 1 -23 3 -7 1 -55 1 -106 -1z"/>
<path d="M5300 4009 c0 -10 28 -19 55 -19 27 0 55 9 55 19 0 3 -25 6 -55 6
-30 0 -55 -3 -55 -6z"/>
<path d="M4740 3513 c0 -14 253 -258 326 -315 66 -51 142 -94 150 -85 3 3 -3
10 -15 16 -58 31 -187 138 -326 270 -115 109 -135 126 -135 114z"/>
<path d="M5930 2379 c-27 -11 -60 -38 -60 -50 0 -9 110 44 110 54 0 9 -19 8
-50 -4z"/>
<path d="M5199 1483 c-247 -471 -550 -806 -758 -839 -23 -4 -44 -11 -47 -15
-10 -16 55 -9 110 12 222 82 520 431 706 824 31 66 60 128 63 138 16 43 -7 7
-74 -120z"/>
</g>
</svg>
