<?xml version="1.0" standalone="no"?>
<!DOCTYPE svg PUBLIC "-//W3C//DTD SVG 20010904//EN"
 "http://www.w3.org/TR/2001/REC-SVG-20010904/DTD/svg10.dtd">
<svg version="1.0" xmlns="http://www.w3.org/2000/svg"
 width="1024.000000pt" height="559.000000pt" viewBox="0 0 1024.000000 559.000000"
 preserveAspectRatio="xMidYMid meet">
<metadata>
Created by potrace 1.16, written by Peter Selinger 2001-2019
</metadata>
<g transform="translate(0.000000,559.000000) scale(0.100000,-0.100000)"
fill="#000000" stroke="none">
<path d="M5130 5169 c-19 -6 -76 -14 -126 -18 -111 -10 -191 -48 -262 -126
l-47 -51 -31 33 c-26 28 -38 33 -76 33 -24 0 -53 -7 -64 -15 -10 -8 -36 -15
-56 -15 -27 0 -47 -8 -73 -31 -19 -17 -35 -35 -35 -41 0 -5 -11 -26 -25 -46
-18 -26 -25 -50 -25 -83 0 -25 -7 -61 -16 -78 -21 -42 -14 -114 15 -150 11
-14 31 -49 45 -78 37 -78 97 -99 195 -68 21 7 23 6 17 -10 -11 -30 13 -121 45
-164 16 -23 52 -57 79 -77 28 -20 50 -42 50 -50 0 -7 -17 -22 -39 -33 -44 -23
-69 -68 -53 -98 6 -10 22 -28 37 -41 22 -19 24 -26 14 -38 -9 -11 -22 -14 -48
-9 -31 6 -33 5 -22 -9 22 -26 78 -20 98 10 14 22 15 31 4 58 -6 17 -13 35 -14
40 -2 9 75 67 81 61 5 -5 -17 -129 -33 -183 -27 -90 -130 -183 -208 -187 -20
-1 -45 -9 -55 -18 -9 -9 -48 -27 -87 -41 -38 -14 -79 -36 -90 -49 -11 -12 -39
-35 -62 -50 -82 -52 -136 -157 -203 -392 -23 -82 -62 -209 -86 -282 -24 -72
-44 -141 -44 -153 0 -12 21 -42 49 -70 l50 -50 -14 -172 c-34 -407 -17 -521
160 -1098 53 -174 53 -176 58 -335 4 -102 1 -201 -8 -275 -21 -180 -27 -300
-16 -300 6 0 13 10 16 23 5 24 25 245 25 287 0 19 6 13 25 -27 13 -29 32 -61
42 -72 25 -27 154 -101 176 -101 10 0 28 -7 41 -15 23 -15 100 -16 125 -1 19
12 12 64 -14 116 -30 60 -55 151 -55 200 l1 35 24 -47 c29 -54 58 -78 98 -78
37 0 44 23 23 79 -10 25 -31 83 -47 128 -39 113 -47 128 -123 212 -55 61 -70
85 -86 140 -24 83 -37 190 -50 406 -6 94 -15 207 -20 253 -10 79 -10 85 12
120 l23 37 3 -28 c2 -16 -1 -34 -7 -41 -16 -19 -3 -45 26 -52 99 -25 265 65
460 250 293 277 460 629 503 1058 18 177 -10 342 -60 355 -23 6 -27 23 -5 23
8 0 38 -11 67 -24 29 -13 72 -32 95 -41 57 -24 77 -48 101 -125 87 -282 124
-650 104 -1048 -35 -688 -123 -1156 -340 -1805 -32 -97 -56 -177 -52 -177 16
0 89 192 162 420 l33 105 5 -245 c5 -212 6 -226 9 -100 8 385 16 461 69 690
l49 215 7 -60 c3 -33 10 -130 16 -215 33 -513 41 -614 46 -619 13 -12 -22 643
-46 869 -8 77 -7 120 7 228 10 72 21 132 25 132 5 0 8 -9 8 -19 0 -11 7 -46
15 -78 55 -218 118 -734 150 -1239 7 -103 18 -144 30 -112 11 27 -37 626 -65
828 -5 36 -12 90 -15 120 -15 133 -68 403 -102 520 -15 54 -15 142 4 313 l6
58 33 -49 c44 -67 116 -127 171 -146 73 -25 109 -10 210 87 108 104 168 195
290 441 97 197 99 199 168 256 39 32 76 68 82 81 30 61 52 121 53 146 4 77
-11 242 -23 261 -5 8 4 30 26 60 99 136 147 330 113 462 -20 77 -36 104 -79
130 -69 42 -167 17 -244 -62 -132 -135 -198 -371 -154 -551 14 -57 14 -58 -23
-168 -36 -103 -38 -116 -31 -185 l7 -75 -43 -72 c-40 -68 -242 -287 -265 -287
-5 0 -26 36 -46 81 l-37 81 21 42 20 43 -45 94 c-52 109 -93 202 -137 314 -47
118 -96 207 -143 258 -23 25 -50 57 -61 72 -10 15 -44 38 -75 52 -31 13 -74
33 -97 45 -34 17 -51 20 -100 15 -48 -6 -63 -4 -83 12 -19 15 -22 23 -16 49 7
36 9 36 70 21 57 -14 106 -5 145 27 32 28 111 165 136 237 8 25 24 53 35 63
24 22 24 37 -1 108 -18 53 -18 59 -4 82 9 13 20 24 24 24 4 0 10 10 13 23 3
12 15 47 26 77 11 30 20 71 21 90 l0 34 21 -20 c20 -20 20 -22 3 -57 -22 -45
-8 -87 28 -87 21 1 22 2 6 14 -24 18 -23 23 17 67 41 46 43 67 11 106 l-24 28
24 28 c19 22 24 40 24 82 0 46 -5 60 -29 87 -16 18 -34 52 -40 74 -12 46 -43
79 -89 95 -19 6 -43 28 -60 52 -31 48 -99 87 -150 87 -19 0 -66 16 -106 35
-78 38 -158 51 -216 34z m212 -62 c46 -24 87 -37 111 -37 21 0 51 -7 67 -15
30 -16 80 -74 80 -93 0 -6 18 -16 39 -22 47 -12 91 -60 91 -98 0 -16 13 -39
33 -60 26 -27 32 -41 32 -77 0 -32 -6 -50 -21 -66 l-21 -21 5 50 c4 45 1 54
-22 77 -14 14 -30 23 -35 20 -6 -3 2 -17 16 -31 23 -23 25 -30 18 -79 -6 -51
-4 -56 24 -86 31 -32 41 -72 21 -84 -5 -3 -10 2 -10 13 0 10 -13 31 -30 47
-21 20 -30 38 -30 59 0 52 -17 93 -52 129 -36 36 -53 66 -62 110 -10 44 -23
31 -22 -23 1 -67 -29 -98 -102 -107 -62 -7 -82 -28 -82 -85 0 -20 -7 -44 -16
-52 -21 -22 -25 -20 -15 6 4 12 4 39 -2 60 -13 51 8 83 65 99 52 13 78 35 78
63 0 19 -1 19 -13 -4 -9 -18 -26 -28 -61 -37 -50 -13 -96 -46 -96 -71 0 -27
-57 -72 -92 -72 -47 0 -76 -24 -83 -68 -11 -64 -23 -82 -70 -102 -57 -24 -67
-55 -36 -111 14 -24 20 -47 16 -59 -9 -27 -23 -25 -18 3 3 13 -6 36 -21 56
-30 41 -32 58 -9 91 16 23 16 23 -3 16 -43 -18 -51 -17 -69 11 -27 41 -46 52
-85 53 -112 1 -147 -158 -61 -278 19 -27 25 -51 21 -87 -1 -11 -4 -15 -7 -7
-8 21 -23 13 -23 -13 0 -18 -11 -32 -42 -51 -53 -33 -60 -43 -52 -73 5 -21 3
-23 -10 -12 -25 21 -19 58 10 78 15 10 37 28 50 40 31 29 20 54 -50 108 -73
57 -106 126 -107 225 -3 184 -1 216 21 280 28 79 36 90 68 90 14 0 48 18 77
39 28 22 72 46 96 55 l44 15 -36 1 c-33 0 -44 -6 -158 -82 -50 -34 -54 -21
-16 51 20 38 52 87 71 109 67 78 204 140 282 127 23 -3 52 0 77 9 65 25 142
16 227 -27z m-695 -119 c33 -31 29 -60 -10 -79 -40 -19 -92 -94 -112 -162 -18
-62 -19 -199 -1 -250 l14 -37 -32 -8 c-53 -15 -117 14 -129 58 -4 15 0 17 32
13 23 -3 43 1 56 11 19 14 17 15 -33 16 -48 0 -58 4 -88 34 -27 27 -34 42 -34
74 0 70 10 79 34 30 25 -49 83 -86 112 -70 13 7 10 10 -15 15 -61 13 -101 89
-101 193 0 51 47 94 102 94 42 0 93 -22 101 -42 2 -7 7 -10 11 -7 3 3 -3 18
-14 32 -24 30 -81 49 -119 41 l-26 -6 23 23 c34 36 101 34 141 -5 21 -21 31
-25 31 -15 0 9 -11 26 -25 39 -19 18 -22 26 -13 32 20 13 69 0 95 -24z m-30
-185 c-47 -105 -57 -144 -58 -238 0 -65 -2 -75 -10 -55 -19 46 -13 189 11 253
20 54 77 134 87 123 3 -2 -11 -40 -30 -83z m1027 -93 c32 -34 38 -57 38 -150
0 -94 -6 -117 -33 -125 -23 -7 -26 -25 -4 -25 14 0 14 -3 0 -30 -17 -34 -32
-38 -38 -12 -3 13 -7 10 -16 -13 -13 -32 -7 -89 15 -144 31 -74 12 -111 -56
-111 -18 0 -29 -4 -25 -10 3 -5 17 -10 31 -10 29 0 28 -12 -13 -95 -53 -105
-93 -163 -123 -175 -75 -31 -225 23 -343 124 -37 31 -67 51 -67 44 0 -20 108
-115 166 -145 39 -20 52 -32 48 -43 -10 -26 -17 -127 -10 -155 8 -33 20 -25
20 13 1 15 3 28 6 30 3 2 35 -10 71 -26 81 -37 94 -65 56 -116 -73 -95 -171
-116 -339 -72 -153 39 -448 165 -448 190 0 6 32 31 71 56 108 68 147 138 169
297 6 43 16 98 23 123 12 44 13 45 51 45 22 0 41 5 43 11 2 6 -7 9 -25 6 -63
-9 -131 88 -132 186 0 46 4 58 29 83 40 39 66 37 110 -11 20 -22 42 -40 49
-40 6 0 12 -11 12 -24 0 -14 11 -38 25 -54 14 -17 25 -36 25 -44 0 -8 -11 -25
-25 -38 -14 -13 -25 -32 -25 -42 0 -20 34 -58 52 -58 9 0 9 3 0 12 -22 22 -14
57 18 73 54 28 58 59 18 117 -25 36 -16 64 26 78 49 16 76 51 84 106 l7 49 51
10 c28 5 63 18 78 28 l27 18 -3 -33 c-2 -28 -9 -35 -38 -45 l-35 -11 29 -11
c67 -26 126 19 126 94 0 45 10 55 56 55 41 0 93 27 106 55 11 25 13 26 25 8 7
-10 24 -29 37 -43z m1134 -730 c21 -13 42 -39 55 -68 56 -122 4 -374 -104
-505 -27 -33 -31 -35 -64 -26 -51 14 -116 8 -129 -13 -16 -25 1 -49 55 -75
l44 -22 -75 0 c-46 -1 -70 3 -61 8 10 7 4 18 -27 49 -50 50 -67 114 -59 217
20 230 169 447 312 454 11 0 35 -8 53 -19z m-2205 -358 c12 -11 77 -45 145
-76 272 -124 472 -163 571 -111 18 9 50 34 71 55 l39 39 7 -55 c7 -60 0 -163
-21 -294 -47 -299 -177 -582 -371 -805 -39 -44 -81 -85 -94 -92 -15 -8 -67
-13 -130 -13 l-105 0 -27 34 c-25 32 -49 74 -76 136 l-11 25 0 -25 c-1 -30 39
-120 62 -139 29 -23 19 -28 -39 -19 -112 17 -145 46 -160 137 -4 28 -3 41 5
41 6 0 11 -7 11 -16 0 -11 8 -14 28 -12 l27 3 10 125 c6 69 16 136 23 149 19
32 52 203 51 259 -1 43 -2 45 -9 17 -5 -16 -16 -75 -25 -130 -9 -55 -20 -106
-24 -114 -5 -7 -8 68 -9 169 0 291 -18 238 -25 -77 -4 -153 -10 -299 -13 -324
l-6 -47 -42 30 c-80 57 -202 143 -264 185 -66 44 -160 79 -193 70 -10 -3 -19
-4 -19 -2 0 2 13 40 30 84 16 44 55 167 85 273 85 291 124 370 214 427 89 58
155 43 207 -45 78 -133 127 -347 179 -784 9 -74 23 -169 32 -210 19 -90 63
-202 81 -208 11 -3 11 2 -1 24 -38 74 -73 239 -102 469 -46 377 -86 559 -155
695 -41 81 -80 114 -135 115 -55 0 -47 8 37 38 36 14 77 32 90 41 22 16 23 16
26 -2 2 -11 13 -29 25 -40z m1113 -159 c34 -56 67 -123 118 -248 32 -77 83
-193 114 -257 l55 -117 -32 -49 c-17 -27 -61 -78 -99 -113 l-67 -64 -7 140
c-13 268 -51 529 -104 708 -3 9 -2 17 3 17 4 0 13 -8 19 -17z m1006 -120 c31
-15 39 -36 39 -108 0 -27 0 -77 0 -110 -1 -54 -11 -92 -45 -164 -6 -13 -42
-49 -79 -80 -67 -55 -71 -60 -169 -254 -121 -240 -194 -351 -290 -443 -96 -91
-123 -102 -184 -79 -59 22 -104 62 -160 140 -43 61 -44 64 -44 142 0 44 3 107
6 140 6 53 10 62 36 78 16 9 54 42 84 72 30 31 56 54 58 52 2 -2 19 -38 38
-80 l35 -75 -30 -35 c-32 -38 -66 -105 -67 -131 0 -33 15 -18 43 41 20 45 46
76 104 128 151 134 219 211 278 318 35 62 35 65 29 142 -6 72 -4 86 28 179 34
98 35 100 55 85 22 -19 17 -54 -11 -64 -27 -11 -49 -53 -37 -75 8 -15 7 -23
-4 -32 -17 -15 -20 -56 -4 -66 7 -4 9 -22 5 -48 -20 -141 -20 -141 9 -164 31
-25 52 -27 76 -9 23 17 49 72 49 103 0 27 -1 27 48 7 21 -9 13 11 -13 30 -14
10 -47 21 -75 24 -62 7 -84 28 -45 43 35 13 104 13 143 -1 47 -16 62 -5 22 17
-27 14 -53 18 -114 17 -87 -2 -98 1 -90 22 16 40 164 61 222 31 36 -18 42 -19
42 -7 0 5 -21 19 -47 31 -48 22 -51 23 -178 7 -35 -4 -28 28 12 50 61 34 134
40 183 14 53 -27 72 -26 37 3 -17 14 -26 28 -22 38 5 11 -8 21 -49 38 -53 21
-71 43 -43 53 18 8 88 -4 119 -20z m-173 -369 c9 -8 -23 -96 -38 -103 -21 -11
-56 2 -65 24 -3 10 -1 35 4 56 l11 39 42 -6 c23 -4 44 -8 46 -10z m-2481 -296
c2 -21 -1 -38 -6 -38 -10 0 -72 66 -72 76 0 3 17 4 38 2 35 -3 37 -5 40 -40z
m80 -2 c26 -13 79 -48 117 -78 39 -30 91 -67 117 -84 53 -32 54 -34 34 -119
-37 -156 -39 -202 -17 -350 11 -77 22 -198 26 -270 13 -267 44 -475 82 -548 8
-16 41 -58 73 -92 67 -72 77 -90 115 -205 15 -47 34 -97 41 -112 19 -36 18
-48 -4 -48 -24 0 -43 22 -77 90 -37 74 -46 85 -56 68 -25 -39 1 -210 44 -295
29 -56 36 -108 15 -101 -22 7 -87 108 -108 167 -31 85 -46 116 -52 105 -11
-17 42 -162 78 -215 19 -29 33 -56 32 -61 -2 -5 -24 6 -48 25 -48 37 -87 99
-115 184 -17 54 -35 78 -35 46 1 -33 48 -154 75 -189 31 -41 24 -43 -23 -8
-31 25 -44 46 -102 179 -22 51 -22 5 0 -59 11 -33 18 -61 16 -63 -2 -2 -13 9
-24 24 -37 52 -52 131 -62 328 -8 178 -11 197 -45 305 -74 231 -125 413 -151
538 -32 156 -42 376 -24 567 6 72 14 167 17 213 3 45 8 82 10 82 2 0 25 -11
51 -24z m351 -386 c49 -26 30 -108 -40 -169 -36 -31 -37 -31 -43 -9 -12 48 -7
113 20 238 6 24 6 24 25 -12 11 -21 28 -42 38 -48z m126 -35 c39 -8 120 -15
180 -15 l110 0 -25 -20 c-20 -15 -41 -20 -98 -20 -85 0 -211 18 -229 32 -11 9
-19 38 -10 38 1 0 34 -7 72 -15z m3 -70 c2 -2 -4 -24 -12 -49 -29 -86 -13 -89
18 -3 l18 48 89 -2 c49 -1 89 -5 89 -8 0 -11 -153 -109 -200 -130 -68 -29
-119 -35 -126 -16 -7 17 7 82 31 138 15 36 17 38 53 31 20 -4 38 -8 40 -9z"/>
<path d="M4885 5021 c-22 -10 -46 -25 -54 -34 -18 -22 -15 -22 43 8 27 14 61
25 75 26 14 1 37 5 51 9 20 6 15 8 -25 9 -29 0 -67 -7 -90 -18z"/>
<path d="M5462 4984 c26 -13 55 -36 64 -49 9 -14 19 -23 22 -21 18 19 -74 96
-113 95 -13 0 -4 -8 27 -25z"/>
<path d="M5265 4953 c-29 -7 -55 -33 -74 -73 -17 -35 -17 -35 -77 -32 -73 4
-110 -19 -120 -74 -9 -49 -28 -64 -82 -65 l-47 -1 38 -10 c59 -16 95 4 109 59
15 60 41 76 107 67 42 -5 55 -3 71 11 11 10 20 24 20 30 0 25 42 64 74 70 20
4 47 1 71 -9 45 -19 57 -14 22 9 -27 18 -81 26 -112 18z"/>
<path d="M5276 4789 c-17 -13 -26 -30 -26 -48 0 -15 -5 -32 -12 -39 -16 -16
-70 -15 -87 1 -11 10 -13 9 -9 -3 3 -8 17 -19 32 -25 39 -14 78 11 94 60 15
47 26 55 72 55 26 0 31 3 20 10 -24 16 -55 12 -84 -11z"/>
<path d="M4647 4679 c24 -41 77 -69 128 -68 l40 2 -49 10 c-34 8 -61 22 -89
49 -22 21 -42 38 -45 38 -2 0 4 -14 15 -31z"/>
<path d="M5087 4604 c-33 -28 -82 -32 -115 -8 -12 8 -22 10 -22 5 0 -16 55
-41 89 -41 32 0 86 39 80 57 -2 7 -16 2 -32 -13z"/>
<path d="M4624 4530 c6 -36 63 -100 88 -100 7 0 1 10 -14 23 -15 12 -39 42
-53 67 l-27 45 6 -35z"/>
<path d="M5066 4504 c-22 -20 -37 -25 -63 -22 -40 5 -42 1 -8 -12 32 -12 88 9
105 39 14 28 1 26 -34 -5z"/>
<path d="M4634 4386 c11 -47 67 -108 84 -91 4 4 -1 11 -11 17 -10 5 -32 31
-49 56 -26 40 -29 42 -24 18z"/>
<path d="M4393 4850 c-12 -5 -27 -19 -34 -31 l-11 -22 30 21 c37 27 62 28 95
2 30 -24 38 -25 30 -5 -6 17 -54 45 -75 44 -7 0 -23 -4 -35 -9z"/>
<path d="M5320 4458 c-19 -5 -42 -16 -50 -24 -13 -14 -11 -15 25 -7 22 4 82 8
133 7 50 0 92 3 92 8 0 26 -128 37 -200 16z"/>
<path d="M4820 4431 c-17 -32 -11 -45 8 -20 25 30 48 20 72 -33 19 -43 19 -43
19 -12 2 64 -73 112 -99 65z"/>
<path d="M5372 4370 c-23 -4 -48 -12 -55 -20 -10 -10 -5 -12 25 -7 34 5 37 4
40 -21 5 -40 36 -41 51 -3 7 20 17 29 25 26 8 -3 12 0 10 7 -6 17 -47 25 -96
18z"/>
<path d="M4861 4356 c-7 -8 -9 -21 -5 -27 5 -9 10 -5 16 11 10 28 5 36 -11 16z"/>
<path d="M5384 4009 c-7 -11 56 -29 102 -29 24 0 44 4 44 8 0 10 -140 30 -146
21z"/>
<path d="M5435 3930 c3 -5 21 -10 38 -9 27 0 29 2 12 9 -28 12 -57 12 -50 0z"/>
<path d="M6659 3932 c-89 -57 -167 -195 -195 -343 -18 -93 -9 -189 21 -218 15
-15 15 -14 7 9 -50 135 8 362 126 492 44 49 80 68 129 68 28 0 34 3 23 10 -27
17 -65 11 -111 -18z"/>
<path d="M4566 3525 c9 -16 36 -55 59 -85 23 -30 111 -159 197 -286 151 -226
246 -354 284 -384 10 -8 -3 14 -28 50 -26 36 -133 191 -237 345 -105 154 -214
305 -242 335 -33 35 -45 44 -33 25z"/>
<path d="M4670 3498 c275 -254 431 -374 534 -408 58 -19 55 -4 -5 23 -88 39
-234 150 -468 355 -102 89 -151 114 -61 30z"/>
<path d="M5361 3383 c-19 -46 -89 -112 -133 -125 -24 -7 -35 -15 -29 -21 27
-27 146 62 172 130 14 37 5 53 -10 16z"/>
<path d="M4836 2630 c13 -81 89 -269 114 -285 7 -4 11 -3 9 2 -2 5 -26 66 -52
134 -27 68 -55 138 -63 154 l-14 30 6 -35z"/>
<path d="M5481 3575 c0 -11 6 -65 14 -120 33 -226 8 -558 -71 -960 -4 -16 -3
-27 0 -24 9 9 62 254 82 379 25 164 30 475 9 601 -17 106 -33 164 -34 124z"/>
<path d="M5608 3238 c21 -142 20 -578 -2 -748 -20 -154 -69 -448 -92 -548 -38
-168 -127 -499 -169 -627 -6 -18 -5 -18 5 -2 17 26 105 297 139 428 122 470
179 946 153 1286 -12 163 -29 282 -41 296 -4 4 -1 -34 7 -85z"/>
<path d="M5336 2528 c-103 -280 -266 -544 -470 -758 -133 -140 -233 -213 -331
-241 -54 -15 -58 -17 -33 -24 65 -17 206 65 341 199 192 191 353 430 452 671
38 92 88 246 82 252 -2 2 -21 -43 -41 -99z"/>
<path d="M4921 2063 c-153 -153 -328 -263 -417 -263 -21 0 -33 -4 -29 -10 21
-35 153 10 272 92 78 54 229 196 271 256 39 54 12 33 -97 -75z"/>
<path d="M5260 1922 c-88 -184 -201 -375 -299 -505 -67 -89 -216 -247 -233
-247 -4 0 -8 -5 -8 -10 0 -19 43 11 119 84 166 160 346 443 456 715 25 63 44
115 43 117 -2 1 -37 -68 -78 -154z"/>
<path d="M5310 1673 c-86 -257 -277 -642 -436 -877 -41 -60 -73 -111 -71 -112
7 -7 105 123 167 221 77 122 190 341 255 495 51 123 120 329 112 336 -3 3 -15
-25 -27 -63z"/>
<path d="M5425 1292 c-80 -257 -192 -522 -308 -725 -74 -130 -82 -162 -13 -59
105 158 221 407 295 634 41 127 85 297 79 304 -2 2 -26 -67 -53 -154z"/>
</g>
</svg>
