<?xml version="1.0" standalone="no"?>
<!DOCTYPE svg PUBLIC "-//W3C//DTD SVG 20010904//EN"
 "http://www.w3.org/TR/2001/REC-SVG-20010904/DTD/svg10.dtd">
<svg version="1.0" xmlns="http://www.w3.org/2000/svg"
 width="1024.000000pt" height="559.000000pt" viewBox="0 0 1024.000000 559.000000"
 preserveAspectRatio="xMidYMid meet">
<metadata>
Created by potrace 1.16, written by Peter Selinger 2001-2019
</metadata>
<g transform="translate(0.000000,559.000000) scale(0.100000,-0.100000)"
fill="#000000" stroke="none">
<path d="M5050 5159 c-13 -6 -38 -20 -55 -33 -22 -17 -39 -22 -62 -19 -67 10
-151 -35 -183 -98 -11 -21 -27 -39 -35 -39 -9 0 -20 -11 -25 -24 -5 -13 -18
-31 -30 -39 -12 -8 -34 -33 -48 -54 -23 -33 -27 -49 -28 -118 -1 -44 -6 -93
-13 -108 -25 -63 -9 -163 35 -224 14 -18 24 -46 24 -65 1 -43 30 -106 72 -154
18 -22 41 -56 51 -77 11 -24 29 -43 52 -54 35 -17 35 -17 35 -80 0 -79 -16
-146 -40 -168 -17 -15 -20 -15 -44 0 -19 12 -49 17 -118 17 -122 1 -176 -23
-287 -130 -72 -70 -80 -81 -87 -126 -4 -31 -19 -67 -39 -95 -47 -66 -48 -68
-162 -370 -58 -152 -113 -298 -124 -326 -30 -78 -26 -96 32 -150 l51 -48 -31
-161 c-64 -325 -64 -434 -1 -816 58 -346 60 -376 58 -617 -3 -218 -2 -230 19
-268 21 -40 96 -117 143 -149 22 -15 25 -23 25 -83 0 -44 4 -68 13 -70 9 -3
12 12 12 56 l0 60 35 -20 c31 -18 38 -19 72 -8 21 7 44 17 51 22 21 16 13 60
-25 132 -30 58 -37 81 -40 144 l-4 76 25 -60 c36 -85 93 -120 127 -79 11 13
10 26 -4 77 -10 34 -24 94 -33 132 -20 96 -30 119 -86 200 -53 78 -59 106 -39
192 11 46 11 55 -9 94 -19 37 -21 51 -15 118 7 71 29 140 42 127 3 -3 0 -33
-7 -67 -13 -61 -13 -62 11 -82 75 -60 291 41 490 231 105 99 189 201 271 327
58 88 144 252 136 260 -2 2 -29 -42 -61 -98 -166 -293 -428 -565 -643 -669
-94 -45 -141 -55 -167 -36 -17 13 -18 20 -7 74 9 49 9 66 -4 103 -9 24 -16 59
-16 78 0 38 44 128 87 178 24 29 25 29 19 5 -4 -14 -12 -53 -19 -88 -8 -44
-15 -61 -24 -58 -16 7 -17 -6 -1 -22 34 -34 137 1 243 81 79 59 227 213 298
309 181 245 353 596 427 874 29 108 60 269 60 312 0 28 3 33 12 24 17 -17 17
-394 -1 -527 -72 -557 -235 -1009 -504 -1394 -140 -201 -261 -319 -414 -403
-87 -48 -52 -51 43 -3 83 41 165 109 252 207 302 342 527 846 616 1378 40 236
49 364 43 584 -8 292 -42 435 -115 481 -43 27 -41 45 5 45 78 0 132 -67 176
-220 68 -237 69 -529 1 -928 -38 -224 -24 -212 20 18 41 211 50 298 50 490 0
271 -41 485 -110 577 -30 39 -30 43 -1 43 49 0 83 -44 128 -167 26 -70 44 -93
34 -43 -4 19 -22 68 -41 109 -19 41 -34 75 -34 77 0 10 65 2 90 -11 51 -27 92
-179 122 -465 21 -200 16 -679 -11 -940 -23 -228 -60 -499 -86 -625 -78 -374
-228 -815 -377 -1107 -73 -143 -79 -158 -63 -158 16 0 127 214 201 390 l53
125 2 -250 2 -250 12 290 11 290 48 150 c26 83 53 168 60 190 13 40 13 40 19
-55 4 -52 11 -203 17 -334 6 -132 13 -242 16 -245 3 -4 2 125 -2 284 -14 454
-12 509 23 660 l29 130 12 -60 c31 -163 55 -442 88 -1014 8 -151 19 -282 24
-290 8 -14 10 -14 11 -1 3 45 -18 516 -32 693 -8 116 -8 158 6 255 9 64 23
137 31 161 17 53 18 102 4 168 -9 39 -7 62 10 127 22 89 26 194 8 260 -10 38
-9 50 7 85 20 45 45 73 45 51 0 -8 -7 -22 -17 -32 -24 -27 -7 -35 25 -11 86
63 397 521 663 978 132 226 189 315 199 315 4 0 11 -35 15 -77 8 -85 16 -103
49 -103 32 0 63 38 71 88 6 35 9 41 21 31 20 -16 17 -50 -7 -111 -11 -29 -24
-80 -29 -113 -8 -63 -149 -627 -251 -1005 -59 -216 -172 -552 -254 -755 -144
-355 -244 -548 -421 -818 -86 -130 -104 -169 -59 -127 96 90 367 581 485 880
23 58 44 107 47 110 3 3 2 -139 -1 -315 -3 -176 -3 -387 2 -470 6 -125 8 -68
14 350 l7 500 41 114 c22 63 45 121 50 130 6 10 10 -44 11 -154 1 -93 5 -210
9 -260 6 -60 7 8 5 205 -4 328 1 360 50 360 14 0 27 -6 30 -12 2 -7 8 -69 13
-138 l10 -125 -2 138 -3 138 46 -3 46 -3 13 -50 c17 -66 57 -314 72 -445 16
-143 21 -147 14 -10 -6 136 -17 218 -46 360 -29 144 -29 155 2 155 27 0 24 6
70 -153 12 -41 23 -72 25 -70 6 5 -22 139 -39 188 -8 24 -14 46 -12 48 2 1 16
4 32 5 33 2 49 -25 83 -133 18 -60 19 -79 11 -235 -10 -192 -18 -271 -33 -300
-5 -11 -33 -49 -62 -85 -47 -57 -58 -81 -95 -202 -36 -114 -41 -140 -30 -153
7 -8 21 -15 32 -15 20 0 63 39 85 75 23 40 1 -68 -28 -140 -43 -105 -40 -119
32 -143 33 -11 41 -10 94 17 32 16 84 52 115 80 l57 50 17 -182 c10 -100 19
-183 21 -185 2 -2 9 -1 15 3 8 5 10 22 6 49 -20 142 -35 375 -26 411 5 22 10
119 10 216 0 166 2 183 34 315 121 489 141 638 113 869 -32 264 -32 252 1 269
60 31 60 23 -34 306 l-88 261 22 45 c34 69 25 150 -26 250 -27 53 -126 146
-193 180 -54 27 -55 28 -226 25 -113 -1 -174 2 -178 9 -11 19 -25 140 -19 166
3 13 12 24 19 24 23 0 63 40 70 69 3 16 18 39 32 52 35 32 73 116 73 160 0 23
7 42 20 54 38 35 53 145 26 197 -11 20 -12 37 -5 68 14 60 -5 117 -51 161 -21
20 -43 46 -49 58 -7 11 -18 21 -26 21 -8 0 -23 17 -34 38 -29 57 -64 77 -140
79 -53 1 -68 6 -90 27 -54 51 -123 59 -193 22 -35 -19 -55 -23 -90 -19 -59 7
-130 -24 -157 -68 -11 -17 -37 -40 -60 -50 -45 -20 -81 -69 -81 -111 0 -15
-11 -44 -25 -64 -27 -40 -31 -68 -14 -111 7 -15 12 -46 13 -69 1 -28 10 -50
29 -73 26 -32 27 -35 27 -165 0 -160 19 -245 78 -343 43 -73 69 -101 117 -126
44 -23 26 -21 -125 19 -74 19 -169 42 -210 50 -78 16 -80 17 -124 48 -25 18
-110 34 -211 40 -22 1 -57 8 -78 15 -21 7 -49 11 -63 8 -38 -7 -28 6 21 27
124 51 219 259 214 471 -4 182 -2 198 31 240 22 27 30 48 30 77 0 22 5 49 11
60 17 31 13 83 -9 125 -11 21 -26 61 -32 88 -13 59 -50 101 -100 115 -22 7
-42 22 -55 43 -30 47 -97 79 -165 76 -41 -2 -66 3 -97 19 -45 24 -128 29 -173
11z m167 -43 c36 -21 51 -24 96 -19 64 7 99 -9 147 -64 19 -21 51 -45 73 -53
50 -19 77 -54 84 -111 3 -24 14 -55 23 -69 29 -41 33 -68 16 -102 -9 -17 -16
-50 -16 -73 0 -24 -6 -48 -14 -54 -11 -9 -15 0 -21 51 -4 35 -8 82 -8 106 l1
43 -22 -20 c-35 -33 -47 -27 -40 18 4 24 2 41 -5 45 -7 5 -11 -1 -11 -14 0
-22 -41 -70 -60 -70 -5 0 -10 8 -10 17 0 23 -31 103 -39 103 -4 0 -7 -16 -7
-35 0 -41 -33 -80 -76 -90 -26 -7 -27 -6 -21 28 4 29 1 40 -21 62 -33 33 -57
29 -68 -10 -4 -16 -15 -36 -25 -42 -25 -19 -70 -16 -93 7 -26 26 -27 26 -34
-14 -9 -45 -36 -68 -78 -64 -31 3 -33 1 -31 -27 4 -63 -8 -97 -44 -130 -33
-30 -35 -36 -30 -76 6 -45 -5 -79 -26 -79 -7 0 -27 20 -45 45 -46 65 -105 73
-155 19 l-24 -25 -18 28 c-27 40 -33 145 -10 179 13 20 16 39 12 75 -10 80 2
118 50 166 23 24 43 48 43 53 0 6 11 16 25 22 13 6 27 20 31 30 20 64 110 117
175 103 21 -5 36 0 62 19 69 53 146 61 214 22z m1309 -337 c32 -31 40 -34 85
-31 69 5 103 -11 131 -64 13 -26 30 -44 40 -44 10 0 23 -10 29 -22 7 -13 27
-36 46 -53 40 -35 56 -91 43 -149 -6 -28 -5 -47 4 -65 30 -59 27 -112 -9 -168
l-16 -24 -20 25 c-16 20 -29 26 -60 26 -41 0 -61 -15 -100 -71 -15 -21 -18
-22 -34 -9 -13 11 -16 25 -13 62 5 44 3 49 -30 78 -33 29 -34 33 -30 85 l5 55
-38 -6 c-34 -6 -39 -4 -53 24 -9 17 -16 38 -16 47 0 21 -13 19 -35 -5 -10 -11
-28 -20 -40 -20 -27 0 -62 37 -67 69 -4 35 -23 37 -54 6 -20 -20 -25 -34 -22
-56 4 -25 1 -29 -19 -29 -34 0 -63 34 -63 75 0 19 -4 35 -8 35 -13 0 -32 -48
-32 -80 0 -51 -55 -30 -66 25 -9 48 -28 33 -20 -16 7 -42 1 -47 -30 -24 -28
21 -30 19 -31 -22 0 -21 -5 -65 -10 -98 -8 -57 -9 -59 -22 -36 -7 13 -11 35
-8 50 3 14 -1 37 -8 51 -20 35 -18 73 4 101 10 13 22 44 26 68 9 53 51 101 89
101 20 0 30 9 45 38 28 54 74 77 143 69 31 -3 60 -1 64 3 27 27 72 41 117 37
38 -3 55 -11 83 -38z m-1251 9 c3 -13 4 -36 3 -53 -3 -29 -1 -30 39 -33 35 -3
47 2 79 30 l37 33 -6 -27 c-8 -31 15 -44 54 -30 16 6 35 5 55 -4 29 -12 32
-18 43 -89 7 -42 11 -79 8 -81 -2 -2 -17 1 -34 7 -34 11 -94 1 -100 -18 -3 -8
18 -13 64 -15 54 -2 67 -6 64 -18 -2 -8 -3 -71 -2 -140 1 -203 -26 -306 -109
-416 -46 -61 -93 -85 -163 -85 -102 0 -257 69 -326 145 -32 34 -45 33 -27 -1
38 -72 230 -173 329 -173 l39 0 -7 -55 c-7 -59 1 -115 16 -115 5 0 9 18 9 41
l0 40 29 -20 c28 -20 61 -84 61 -119 0 -23 -56 -77 -95 -92 -71 -27 -263 -3
-422 54 -69 24 -233 98 -233 105 0 3 31 31 69 61 38 30 80 73 93 95 21 37 23
52 23 175 0 74 -4 147 -8 162 -6 24 -10 26 -31 18 -18 -7 -35 -3 -68 13 -78
40 -126 182 -82 245 12 18 24 22 52 20 30 -2 42 -11 67 -45 36 -51 58 -60 90
-39 22 14 25 24 25 76 0 52 3 62 24 75 30 20 58 88 50 120 -5 22 -3 25 19 25
29 0 87 44 87 66 0 11 4 12 19 4 46 -24 111 1 131 50 15 36 28 39 35 8z m1055
-295 c0 -31 41 -63 80 -63 20 0 41 5 47 11 7 7 14 1 23 -20 8 -20 24 -35 46
-43 30 -10 34 -16 34 -46 0 -26 9 -43 35 -69 33 -33 35 -39 29 -79 -5 -37 -3
-46 19 -68 39 -38 41 -37 103 42 29 36 62 42 88 13 66 -73 -16 -248 -112 -239
l-37 3 -12 -80 c-15 -95 -4 -198 28 -255 11 -20 43 -51 70 -69 l49 -34 -19
-31 c-27 -43 -68 -69 -165 -105 -127 -46 -254 -68 -305 -53 -106 32 -171 151
-101 187 40 20 40 20 40 -22 1 -36 1 -37 16 -18 11 15 15 37 12 83 -4 60 -3
63 22 68 90 19 210 89 255 148 43 56 21 55 -40 -3 -65 -62 -163 -110 -237
-117 -100 -10 -185 62 -245 206 -24 59 -27 80 -31 224 -3 126 -1 160 9 167 8
5 38 9 68 9 48 0 52 2 40 16 -11 13 -25 15 -71 10 l-58 -6 1 28 c0 15 6 49 13
77 10 44 15 51 41 56 17 3 40 2 52 -3 31 -10 53 0 53 25 l0 20 23 -20 c28 -26
62 -37 93 -29 22 6 24 10 18 41 -6 34 0 55 17 55 5 0 9 -8 9 -17z m-1499 -385
c10 -38 -6 -44 -36 -14 -32 33 -32 48 2 44 19 -2 29 -10 34 -30z m1929 -215
c0 -12 -33 -43 -47 -43 -14 0 -16 10 -7 34 6 15 54 23 54 9z m-2020 -113 c23
-12 23 -13 4 -27 -10 -7 -29 -22 -41 -33 -28 -25 -58 -40 -77 -40 -23 0 -20
40 6 67 29 30 16 40 -19 15 -36 -26 -55 -87 -48 -155 3 -28 2 -58 -4 -66 -30
-46 -68 59 -57 162 6 56 5 60 -9 43 -23 -31 -29 -84 -15 -153 14 -73 8 -116
-18 -111 -28 5 -53 118 -41 181 13 69 25 84 89 112 45 20 68 23 131 21 42 -2
86 -9 99 -16z m-347 -137 c-3 -32 -1 -75 5 -96 19 -67 -14 -95 -39 -34 -19 43
-16 114 5 155 25 48 35 39 29 -25z m1546 2 c68 -19 140 -37 160 -41 20 -4 41
-10 46 -14 6 -3 21 -7 35 -8 47 -2 90 -13 90 -22 0 -13 -45 -35 -115 -55 -83
-24 -183 -70 -227 -106 -36 -29 -37 -29 -29 -6 19 49 41 131 33 122 -5 -6 -24
-46 -42 -90 -18 -44 -36 -83 -40 -88 -3 -4 -14 42 -24 103 -9 60 -25 139 -35
175 l-18 65 21 0 c12 0 77 -16 145 -35z m-1293 4 c10 -16 173 -92 276 -128
115 -40 222 -61 310 -61 89 0 137 13 172 45 l26 24 0 -55 c0 -106 -40 -310
-92 -474 -90 -283 -272 -627 -440 -836 l-53 -66 -89 6 c-87 5 -90 6 -128 43
-21 21 -52 65 -68 97 -17 33 -30 51 -30 40 1 -28 33 -94 64 -131 25 -30 26
-33 9 -33 -48 0 -123 31 -143 60 -20 28 -24 49 -34 193 l-5 67 34 0 c38 0 75
28 75 58 0 9 5 75 10 145 8 112 13 136 40 191 20 40 33 84 36 122 l5 59 -20
-72 c-18 -64 -37 -113 -44 -113 -2 0 -1 53 1 118 2 64 -1 128 -6 142 -11 30
-13 13 -36 -343 -8 -130 -18 -241 -21 -246 -7 -13 -146 46 -251 107 -97 56
-216 102 -264 102 -16 0 -30 2 -30 5 0 2 30 80 66 172 36 93 85 222 109 288
76 214 135 326 159 306 7 -6 22 -8 34 -5 13 4 28 0 37 -10 18 -18 33 -20 54
-7 9 6 22 6 33 0 25 -13 56 -3 63 22 5 13 12 18 22 14 9 -3 26 2 39 10 21 14
24 23 24 85 0 68 1 70 24 70 14 0 28 -5 32 -11z m-327 -143 c-13 -15 -29 4
-29 34 0 16 5 41 12 57 12 27 12 26 18 -27 3 -30 2 -59 -1 -64z m2791 63 c72
-34 156 -119 188 -189 13 -30 27 -82 29 -115 4 -51 2 -65 -19 -94 -26 -40 -55
-55 -45 -25 3 11 16 46 28 79 16 44 20 70 15 98 -10 55 -26 45 -26 -18 0 -60
-20 -110 -65 -164 -28 -33 -55 -41 -55 -16 0 8 17 44 37 81 31 57 37 79 41
145 6 98 -12 107 -21 12 -10 -104 -92 -255 -130 -240 -25 9 -21 29 22 116 31
61 41 95 47 153 8 92 -11 120 -21 31 -10 -87 -21 -123 -57 -183 -60 -99 -92
-63 -47 52 14 35 21 75 20 117 0 61 -9 90 -18 64 -7 -18 -32 -16 -40 3 -9 24
-23 -3 -23 -46 0 -42 -20 -84 -41 -88 -13 -2 -18 9 -22 50 -11 86 -8 114 13
141 11 14 20 27 20 30 0 13 -42 -7 -51 -24 -5 -11 -20 -19 -33 -19 -23 0 -106
53 -106 68 0 4 69 7 153 7 143 0 155 -2 207 -26z m-934 -102 c-17 -70 63 -166
154 -186 74 -16 253 22 394 84 16 7 14 -2 -14 -51 -103 -182 -291 -486 -416
-674 -180 -269 -172 -259 -184 -240 -10 15 -38 121 -63 230 -11 48 -15 56 -16
33 -1 -42 24 -163 51 -240 l21 -62 -38 -50 c-22 -28 -42 -51 -46 -51 -4 0 -18
26 -31 58 -22 55 -23 67 -26 410 -2 223 -6 351 -12 347 -6 -4 -10 -40 -10 -81
0 -43 -4 -74 -10 -74 -5 0 -10 6 -10 14 0 8 -4 17 -8 20 -5 3 -3 -27 3 -67 11
-64 11 -73 -4 -84 -33 -26 -41 -16 -41 55 0 37 -5 147 -11 245 l-12 178 34 35
c62 65 111 98 203 135 50 21 93 38 95 38 2 1 1 -9 -3 -22z m877 -349 c15 -27
21 -29 51 -24 20 4 37 2 41 -4 10 -17 51 -11 70 10 13 14 22 17 29 10 5 -5 19
-10 31 -10 17 0 30 -31 99 -238 43 -130 80 -243 83 -250 12 -32 -381 -188
-428 -170 -15 6 -26 63 -59 321 -12 90 -22 82 -18 -16 2 -48 0 -87 -4 -87 -5
0 -8 8 -8 18 -1 9 -8 28 -16 42 -15 25 -15 24 -10 -15 3 -22 16 -61 30 -87 13
-26 28 -73 32 -105 10 -86 19 -103 52 -103 26 0 29 -4 40 -59 17 -80 1 -192
-34 -242 -21 -30 -33 -38 -65 -41 -38 -3 -50 4 -28 18 16 9 59 105 58 129 0
11 -14 -7 -31 -43 -38 -78 -77 -118 -120 -125 -18 -2 -34 -3 -36 -2 -2 2 8 25
21 52 26 52 52 128 61 183 9 52 -8 24 -34 -55 -12 -38 -36 -96 -51 -127 -26
-51 -33 -58 -59 -58 -37 0 -37 3 -1 126 16 55 47 171 70 259 42 165 181 726
181 730 0 2 8 1 18 -1 9 -3 25 -19 35 -36z m-1098 -791 l17 -48 -26 -38 c-42
-60 -47 -93 -30 -180 14 -70 14 -82 -2 -151 -22 -97 -28 -193 -15 -231 9 -25
6 -51 -10 -123 -31 -137 -35 -141 -42 -41 -4 50 -18 155 -32 235 -26 143 -26
147 -11 260 30 227 36 283 46 467 15 266 16 270 48 287 l27 14 6 -201 c5 -156
10 -213 24 -250z m-1932 347 c9 -3 12 -14 9 -30 -6 -31 -12 -30 -47 6 l-29 30
26 0 c15 0 33 -2 41 -6z m156 -66 c53 -28 123 -65 156 -81 33 -17 62 -31 63
-33 2 -1 -8 -44 -23 -96 -52 -178 -55 -198 -56 -326 0 -70 -4 -172 -9 -227
-30 -362 -34 -445 -23 -534 8 -74 16 -100 41 -139 76 -116 84 -135 118 -272
19 -78 33 -144 30 -147 -15 -15 -50 14 -68 55 -11 26 -29 67 -40 91 -21 43
-21 43 -34 20 -29 -52 -9 -204 37 -285 44 -77 35 -126 -13 -71 -49 55 -79 111
-101 186 -39 134 -53 116 -17 -23 18 -71 58 -145 94 -175 18 -16 21 -31 5 -31
-20 0 -70 42 -100 82 -16 22 -40 78 -54 124 -14 46 -30 86 -37 90 -14 9 -4
-50 26 -138 19 -58 20 -65 5 -58 -22 12 -44 60 -64 142 -10 38 -21 68 -26 68
-12 0 -11 -17 2 -63 6 -21 9 -43 6 -50 -2 -6 -11 20 -21 57 -15 62 -16 85 -5
226 14 181 11 214 -52 599 -35 210 -41 270 -42 411 -2 156 0 179 42 408 25
133 49 242 55 242 5 0 52 -23 105 -52z m3217 -208 c10 -74 18 -190 18 -285 0
-183 -8 -235 -100 -620 l-56 -240 6 -148 c6 -146 -4 -231 -36 -290 -17 -32
-18 -13 -3 38 8 26 15 55 15 64 0 27 -17 -2 -35 -59 -21 -68 -59 -136 -81
-144 -13 -5 -12 -1 4 27 22 35 52 129 52 161 0 31 -16 7 -35 -54 -10 -30 -24
-68 -32 -83 -20 -39 -83 -107 -99 -107 -19 0 -18 3 16 54 45 67 90 208 70 221
-4 3 -16 -21 -24 -52 -21 -76 -47 -131 -81 -171 -51 -61 -61 -29 -18 64 22 49
27 77 31 167 2 59 0 107 -5 107 -4 0 -19 -28 -33 -61 -27 -69 -55 -109 -76
-109 -18 0 -19 -6 21 126 40 133 43 138 95 199 80 93 85 116 99 446 6 134 16
303 22 374 11 134 9 156 -43 375 -2 8 29 22 82 39 47 15 112 41 145 58 33 17
61 30 62 29 1 -1 10 -58 19 -126z m-2942 69 c-8 -14 -24 -10 -24 6 0 9 6 12
15 9 8 -4 12 -10 9 -15z m-29 -288 c8 -17 27 -38 40 -47 38 -25 32 -57 -25
-125 -28 -33 -59 -78 -70 -100 -11 -21 -21 -39 -23 -39 -1 0 -1 73 -1 162 1
138 5 176 25 248 l24 85 7 -77 c4 -42 14 -91 23 -107z m2682 -103 c-4 -62 -10
-130 -13 -151 l-7 -37 -23 51 c-31 67 -31 118 1 165 14 20 25 44 25 54 0 16 8
30 18 30 3 0 2 -51 -1 -112z m-2507 13 c25 -5 82 -12 128 -16 82 -7 83 -7 65
-27 -16 -18 -26 -19 -88 -13 -108 10 -185 34 -185 57 0 14 5 18 18 14 9 -3 37
-10 62 -15z m2410 -56 c0 -8 -8 -19 -18 -24 -22 -12 -121 -28 -220 -36 -72 -5
-73 -5 -70 17 3 22 9 23 113 30 61 4 124 11 140 17 43 14 55 13 55 -4z m-2432
-10 c18 -5 23 -12 19 -28 -19 -83 -20 -90 -10 -84 6 4 16 27 22 52 11 42 13
45 44 44 17 -1 46 -4 62 -8 l30 -6 -67 -55 c-92 -76 -218 -139 -218 -108 0 18
35 146 49 181 8 20 16 27 29 23 9 -2 28 -7 40 -11z m-236 -329 c-9 -18 -11
-16 -11 19 0 33 1 37 10 21 8 -12 8 -25 1 -40z m-19 -299 c3 -8 1 -20 -4 -28
-6 -10 -9 -7 -9 14 0 29 5 35 13 14z"/>
<path d="M5105 4534 c-22 -8 -47 -22 -55 -31 -17 -17 -14 -17 80 7 25 7 71 10
103 7 42 -4 57 -2 57 8 0 28 -118 34 -185 9z"/>
<path d="M5407 4463 c-13 -13 -6 -89 13 -143 26 -73 25 -85 -7 -109 -30 -24
-28 -33 5 -24 13 3 29 18 37 33 13 26 12 34 -10 94 -14 36 -26 86 -27 111 -1
48 -1 48 -11 38z"/>
<path d="M5135 4450 c-12 -4 -27 -16 -35 -26 -14 -16 -13 -17 5 -12 11 3 28 9
38 13 13 6 17 2 17 -18 0 -28 26 -43 46 -26 8 6 14 20 14 31 0 15 5 18 20 13
26 -8 26 11 1 25 -23 12 -77 12 -106 0z"/>
<path d="M5474 4450 c-30 -12 -43 -34 -16 -26 16 5 21 2 24 -16 2 -15 11 -24
26 -26 18 -3 22 1 22 22 0 18 4 24 15 20 22 -9 18 14 -4 26 -23 12 -38 12 -67
0z"/>
<path d="M4700 4400 c-25 -25 -27 -49 -2 -27 24 22 35 21 57 -3 17 -19 17 -21
2 -38 -32 -35 -11 -84 35 -81 7 0 3 4 -10 10 -28 11 -28 55 1 53 23 -2 22 21
-4 57 -32 45 -55 53 -79 29z"/>
<path d="M5325 4209 c-10 -15 -4 -18 27 -12 15 3 25 9 22 14 -7 12 -41 11 -49
-2z"/>
<path d="M5220 4096 c0 -17 75 -36 137 -35 112 1 120 15 13 22 -52 4 -107 9
-122 13 -16 3 -28 3 -28 0z"/>
<path d="M5317 4003 c20 -15 85 -14 90 2 2 6 -20 10 -53 11 -49 0 -54 -2 -37
-13z"/>
<path d="M6307 4269 c-29 -17 -11 -26 45 -21 49 4 93 -3 141 -23 10 -4 17 -3
17 4 0 35 -158 66 -203 40z"/>
<path d="M6063 4180 c-13 -5 -23 -14 -23 -21 0 -6 6 -9 14 -6 10 4 16 -2 18
-16 2 -14 10 -22 23 -22 13 0 21 8 23 22 2 15 8 20 20 17 12 -4 9 1 -7 15 -25
23 -35 24 -68 11z"/>
<path d="M6162 4109 c-37 -133 -37 -133 -7 -157 36 -28 53 -17 21 13 l-25 23
20 66 c11 37 19 83 17 103 -3 31 -6 25 -26 -48z"/>
<path d="M6333 4183 c-21 -8 -14 -25 7 -18 16 5 20 2 20 -20 0 -32 28 -45 46
-20 7 10 11 22 8 26 -7 12 13 11 38 -2 16 -9 19 -8 16 3 -10 29 -93 49 -135
31z"/>
<path d="M6757 4132 c-9 -10 -20 -34 -24 -53 -6 -31 -5 -33 10 -20 14 11 18
11 24 -4 4 -12 -1 -24 -17 -37 -25 -21 -19 -39 8 -22 29 18 38 60 19 82 -14
16 -15 21 -3 37 8 12 20 16 35 12 14 -3 21 -1 21 9 0 21 -54 18 -73 -4z"/>
<path d="M6220 3960 c0 -5 12 -10 26 -10 14 0 23 4 19 10 -3 6 -15 10 -26 10
-10 0 -19 -4 -19 -10z"/>
<path d="M6285 3848 c-22 -5 -64 -8 -92 -5 -51 4 -69 -5 -37 -17 43 -17 194 3
194 26 0 10 -12 9 -65 -4z"/>
<path d="M6185 3770 c3 -5 24 -10 45 -10 21 0 42 5 45 10 4 6 -13 10 -45 10
-32 0 -49 -4 -45 -10z"/>
<path d="M4740 3515 c0 -13 171 -184 260 -259 100 -85 165 -131 200 -140 l25
-7 -25 18 c-111 81 -194 149 -297 246 -146 137 -163 152 -163 142z"/>
<path d="M4901 2788 c4 -23 15 -68 23 -98 9 -30 18 -66 22 -80 13 -52 77 -220
85 -226 14 -8 11 5 -20 91 -15 44 -45 139 -66 210 -39 133 -59 180 -44 103z"/>
<path d="M4660 2549 c1 -85 78 -338 123 -402 29 -42 32 -25 4 30 -33 65 -60
146 -92 278 -29 117 -35 133 -35 94z"/>
<path d="M6077 3393 c-15 -24 -27 -286 -17 -378 6 -54 12 -101 15 -103 3 -3 2
51 -1 119 -3 68 -1 178 4 244 9 118 9 135 -1 118z"/>
<path d="M6130 3323 c0 -75 93 -391 135 -458 30 -48 32 -34 5 30 -34 78 -78
215 -105 325 -25 98 -35 128 -35 103z"/>
<path d="M6599 3231 c-40 -30 -138 -83 -203 -108 l-61 -24 44 5 c57 6 157 56
212 106 45 40 50 54 8 21z"/>
<path d="M4190 2243 c0 -5 11 -20 25 -33 14 -13 25 -19 25 -13 0 5 -11 20 -25
33 -14 13 -25 19 -25 13z"/>
<path d="M6842 3337 c-17 -20 -345 -697 -338 -697 16 0 298 559 345 683 11 29
9 34 -7 14z"/>
<path d="M6860 3163 c-17 -48 -65 -200 -106 -338 -41 -137 -90 -297 -109 -355
-35 -108 -51 -180 -42 -180 7 0 130 379 181 555 19 66 53 183 75 259 23 77 39
141 37 143 -2 2 -18 -36 -36 -84z"/>
<path d="M5734 3070 c0 -63 1 -89 3 -57 2 31 2 83 0 115 -2 31 -3 5 -3 -58z"/>
<path d="M5691 2503 c-77 -562 -220 -1033 -445 -1478 -70 -136 -193 -344 -246
-415 -14 -19 -44 -60 -65 -90 l-38 -55 42 40 c23 22 75 87 115 145 305 437
541 1066 636 1695 20 138 37 325 29 325 -3 0 -15 -75 -28 -167z"/>
<path d="M6295 2374 c-100 -156 -205 -301 -260 -362 -26 -29 -45 -55 -42 -59
12 -11 114 105 198 228 75 107 188 299 177 299 -2 0 -35 -48 -73 -106z"/>
<path d="M5531 2444 c0 -11 3 -14 6 -6 3 7 2 16 -1 19 -3 4 -6 -2 -5 -13z"/>
<path d="M6436 2272 c-146 -295 -281 -508 -403 -629 -82 -84 -91 -105 -22 -57
116 80 335 424 458 718 22 55 40 101 38 103 -2 1 -34 -59 -71 -135z"/>
<path d="M6405 1792 c-78 -174 -99 -220 -171 -367 -77 -160 -165 -317 -239
-428 -25 -38 -41 -66 -36 -63 36 22 187 262 278 441 80 156 220 491 210 501
-2 2 -21 -36 -42 -84z"/>
<path d="M4865 1644 c-60 -58 -146 -130 -191 -160 -91 -60 -202 -114 -236
-114 -17 0 -19 -3 -9 -9 50 -32 246 76 394 218 68 65 166 172 155 171 -1 -1
-52 -48 -113 -106z"/>
<path d="M5185 1453 c-125 -243 -282 -461 -460 -637 -75 -75 -107 -113 -86
-100 19 10 82 66 141 124 107 105 212 241 311 400 58 94 172 326 167 340 -2 5
-34 -52 -73 -127z"/>
</g>
</svg>
