<?xml version="1.0" standalone="no"?>
<!DOCTYPE svg PUBLIC "-//W3C//DTD SVG 20010904//EN"
 "http://www.w3.org/TR/2001/REC-SVG-20010904/DTD/svg10.dtd">
<svg version="1.0" xmlns="http://www.w3.org/2000/svg"
 width="1024.000000pt" height="559.000000pt" viewBox="0 0 1024.000000 559.000000"
 preserveAspectRatio="xMidYMid meet">
<metadata>
Created by potrace 1.16, written by Peter Selinger 2001-2019
</metadata>
<g transform="translate(0.000000,559.000000) scale(0.100000,-0.100000)"
fill="#000000" stroke="none">
<path d="M3998 4884 c28 -19 28 -55 1 -80 -22 -20 -42 -21 -200 -13 -57 2 -72
-1 -111 -24 l-46 -27 -12 31 c-21 50 -94 75 -134 46 -16 -12 -14 -13 18 -9 30
3 37 0 47 -21 9 -19 8 -31 -5 -55 -18 -36 -47 -52 -127 -75 -111 -32 -188
-117 -210 -230 -9 -42 -14 -55 -21 -44 -5 9 -4 34 1 59 6 23 8 44 6 46 -10 10
-54 -52 -64 -91 -9 -30 -24 -50 -53 -72 -99 -74 -196 -228 -223 -355 -24 -112
-25 -456 -2 -529 9 -30 17 -60 17 -66 0 -7 -51 -42 -112 -80 -198 -120 -522
-327 -542 -346 -40 -38 -30 -71 175 -561 l91 -216 72 -31 c39 -17 78 -35 86
-40 11 -6 20 -55 36 -192 11 -101 25 -193 32 -205 14 -27 122 -84 159 -84 34
0 95 37 208 125 44 34 98 72 120 85 l41 23 224 -96 c295 -125 310 -131 625
-252 149 -57 365 -142 480 -190 116 -48 269 -110 340 -140 72 -29 200 -83 285
-120 186 -79 597 -244 695 -278 l70 -24 8 -124 c11 -188 12 -189 79 -223 32
-16 78 -31 103 -34 52 -5 75 9 193 122 50 49 75 81 82 107 8 28 33 58 108 125
53 49 99 91 102 94 17 17 239 218 310 280 47 41 160 143 252 227 l168 152 98
-45 c53 -24 104 -44 114 -44 22 0 135 96 153 130 8 15 20 89 26 166 12 134 13
140 43 174 25 28 39 62 65 160 19 69 69 254 112 413 76 277 99 399 82 424 -10
14 -109 51 -468 175 -275 95 -404 138 -1190 398 -269 89 -494 167 -500 172 -7
6 3 21 28 44 36 34 41 35 90 29 45 -6 55 -4 71 13 27 31 16 54 -41 83 -58 30
-58 39 -1 39 25 0 45 7 58 20 46 46 11 80 -86 81 l-69 0 42 19 c23 10 49 30
58 44 16 24 16 28 0 52 -15 23 -21 25 -58 19 -22 -4 -62 -17 -87 -28 -25 -12
-49 -23 -55 -26 -5 -2 7 15 28 37 42 47 48 85 17 102 -44 24 -153 -46 -195
-124 -23 -42 -32 -45 -45 -12 -12 32 -54 59 -78 52 -15 -5 -21 -20 -27 -63 -4
-30 -13 -73 -21 -95 -8 -22 -14 -51 -14 -64 0 -16 -9 -28 -28 -38 -24 -12 -33
-12 -72 2 -25 8 -133 45 -240 81 l-195 66 -63 94 c-114 172 -176 231 -362 349
-71 45 -94 65 -92 78 11 70 12 101 2 114 -9 13 -12 13 -21 -2 -5 -10 -20 -18
-33 -18 -27 0 -46 19 -75 77 -26 52 -61 77 -134 96 -54 14 -58 14 -80 -4 l-22
-18 53 -1 c61 0 109 -18 137 -50 l20 -23 -20 7 c-42 17 -59 17 -30 0 17 -9 51
-39 77 -67 42 -44 50 -49 77 -44 27 6 31 4 31 -14 0 -11 -5 -29 -11 -40 -10
-19 -14 -17 -69 35 -69 66 -191 129 -190 99 0 -5 34 -27 75 -50 116 -67 174
-150 235 -337 38 -120 62 -169 129 -261 68 -93 85 -146 79 -249 -5 -94 -22
-133 -103 -241 -84 -112 -118 -135 -219 -150 -26 -4 -43 -11 -36 -15 14 -9
-21 -23 -106 -45 -79 -19 -225 -19 -295 0 -75 22 -179 76 -197 103 -17 27 -32
29 -32 4 0 -11 -11 -24 -25 -30 -103 -47 -275 68 -275 183 0 16 12 39 30 57
32 32 30 32 143 12 24 -4 43 -2 52 6 22 19 18 32 -6 19 -17 -8 -33 -7 -76 6
-110 35 -182 -21 -169 -131 6 -54 3 -60 -28 -48 -12 5 -13 10 -4 30 10 20 8
29 -11 55 -12 16 -28 47 -35 67 l-13 36 -10 -31 c-12 -34 -37 -44 -73 -31
l-24 9 24 12 c40 20 40 84 0 148 -27 45 -48 107 -64 189 -2 14 -4 -5 -3 -42 2
-75 -5 -79 -23 -13 -19 68 -9 173 24 230 14 26 23 51 20 56 -8 13 -35 11 -66
-5 l-28 -15 15 28 c15 30 55 61 79 61 24 0 28 17 11 56 -8 20 -15 60 -14 88
l0 51 19 -42 c25 -56 46 -56 53 1 18 126 96 219 217 255 94 29 140 70 140 128
1 36 1 37 16 18 11 -14 14 -33 10 -67 l-5 -46 43 42 c56 56 103 69 205 54 42
-6 88 -8 103 -5 42 11 81 49 81 80 0 30 11 36 21 11 11 -29 6 -77 -11 -96 -25
-28 -9 -32 36 -9 44 23 95 27 137 11 24 -9 25 -9 14 5 -17 21 -69 33 -106 25
-31 -7 -32 -6 -38 30 -7 45 -54 90 -94 90 l-26 0 22 -16z m756 -697 c35 -34
95 -111 134 -170 57 -88 82 -116 138 -157 38 -28 95 -83 127 -123 l58 -72 -82
-3 c-45 -2 -86 1 -91 6 -5 5 -12 26 -15 48 -7 42 -41 130 -48 122 -2 -2 7 -39
20 -81 14 -43 25 -81 25 -86 0 -6 -110 5 -116 12 -1 1 -18 45 -39 97 -44 112
-115 236 -168 294 -36 39 -36 38 13 -38 58 -92 109 -192 144 -287 l24 -67 -41
-6 c-23 -4 -55 -9 -72 -12 l-30 -5 -1 78 c0 92 -25 155 -102 262 -63 86 -62
85 -111 230 -23 67 -48 133 -56 144 -8 12 -15 25 -15 29 0 17 243 -156 304
-215z m-1610 91 c5 -22 1 -29 -28 -46 -51 -30 -87 -113 -70 -164 6 -20 8 -19
25 15 11 20 28 41 39 47 25 13 25 14 -6 -55 -24 -51 -26 -66 -22 -145 4 -95
18 -125 93 -209 42 -46 54 -91 30 -111 -13 -11 -21 -11 -35 -2 -10 6 -20 8
-24 5 -9 -9 22 -61 43 -73 26 -13 74 -13 88 1 7 7 17 2 33 -21 25 -35 20 -65
-10 -57 -31 8 -24 -20 10 -38 16 -8 44 -15 62 -15 26 0 43 -9 73 -40 67 -69
188 -99 256 -65 29 15 32 15 90 -21 l60 -37 -28 -31 c-15 -17 -29 -32 -30 -34
-6 -13 -361 102 -443 143 -188 95 -360 337 -360 507 0 30 -4 47 -10 43 -30
-19 1 -171 57 -279 51 -98 201 -248 299 -299 94 -48 369 -136 497 -158 77 -13
303 -8 482 11 105 11 311 7 399 -8 l39 -7 -62 -51 c-61 -50 -64 -51 -129 -52
-37 -1 -101 -7 -142 -13 -41 -7 -123 -13 -182 -13 -58 -1 -101 -4 -95 -8 21
-13 223 -8 332 8 58 8 113 14 122 12 10 -2 -13 -24 -64 -62 l-80 -59 -154 2
c-214 3 -323 20 -561 87 -50 14 -92 23 -95 21 -5 -5 146 -55 242 -80 146 -39
173 -42 358 -42 209 0 204 4 83 -67 -153 -90 -371 -165 -550 -188 -99 -14
-200 2 -313 47 -35 14 -66 23 -70 20 -18 -18 162 -88 262 -101 57 -8 217 14
330 44 219 59 443 181 655 357 237 197 330 258 467 304 123 42 183 46 258 19
33 -12 92 -25 131 -29 38 -4 75 -11 82 -15 23 -14 11 -26 -27 -26 -21 0 -70
-10 -107 -21 -69 -21 -210 -87 -202 -94 2 -2 56 16 121 41 149 57 224 72 302
62 32 -4 65 -14 73 -21 11 -12 2 -16 -56 -25 -158 -26 -370 -119 -513 -224
-138 -100 -313 -251 -464 -398 -148 -144 -246 -226 -359 -300 -75 -48 -74 -68
2 -25 99 57 241 173 357 290 66 67 140 139 164 161 l45 39 -55 -75 c-31 -41
-106 -150 -168 -242 -115 -172 -202 -278 -227 -278 -8 0 -65 20 -127 44 -385
152 -619 245 -662 266 -11 5 -66 29 -123 53 -92 38 -113 53 -199 133 -202 186
-233 231 -298 429 -24 72 -46 139 -51 149 -4 11 37 -26 92 -81 147 -150 298
-239 513 -302 165 -49 171 -35 7 19 -214 71 -338 141 -494 280 -135 119 -194
207 -228 340 -14 54 -16 99 -11 265 7 241 24 313 100 425 43 62 139 162 147
153 4 -5 10 -20 14 -35z m2746 -184 c0 -9 -16 -34 -35 -55 -19 -21 -37 -50
-41 -63 -3 -14 -13 -26 -22 -28 -14 -3 -12 -6 7 -17 21 -11 25 -11 33 3 23 41
177 101 200 78 15 -15 -6 -39 -49 -57 -18 -8 -46 -28 -62 -45 -24 -27 -29 -29
-41 -15 -7 8 -19 15 -26 15 -11 0 -10 -5 3 -20 10 -11 22 -20 28 -20 5 0 20
-23 32 -50 19 -43 26 -50 50 -50 39 -1 116 -37 110 -52 -2 -8 -18 -12 -38 -11
-65 3 -99 -7 -127 -39 -46 -52 -107 -81 -155 -75 -23 2 -50 8 -59 12 -11 4
-18 3 -18 -4 0 -6 12 -17 28 -23 15 -7 28 -13 30 -14 9 -6 -34 -70 -84 -124
-102 -110 -165 -133 -259 -95 -77 30 -133 32 -240 4 l-80 -20 -45 49 c-25 26
-52 62 -62 79 -9 17 -26 37 -39 43 l-22 12 20 -28 c37 -54 38 -57 5 -40 -17 9
-41 16 -54 16 -18 -1 -14 -5 20 -22 23 -11 66 -42 95 -69 l52 -50 -78 -42
c-42 -23 -100 -59 -128 -80 l-51 -38 -98 15 c-123 20 -308 20 -470 1 -126 -15
-310 -18 -364 -6 l-29 6 26 31 27 31 57 -13 c126 -30 313 -11 435 44 24 11 57
23 75 27 17 3 50 19 72 35 46 34 155 175 183 237 10 24 28 47 38 53 36 19 143
26 225 15 44 -6 128 -10 187 -9 101 1 110 3 144 29 20 15 69 40 109 56 41 15
84 34 96 41 17 10 23 10 26 1 3 -7 14 -23 25 -35 l20 -23 -7 25 c-15 51 -17
111 -5 142 7 18 15 60 19 92 3 33 11 61 18 63 19 7 45 -42 52 -99 6 -39 10
-48 15 -33 9 23 8 23 59 98 58 88 167 160 167 111z m205 -225 c15 -15 -8 -29
-63 -38 -28 -4 -58 -14 -67 -21 -8 -7 -17 -11 -18 -9 -18 25 -38 61 -35 64 22
22 160 25 183 4z m-835 -60 c80 -27 149 -50 154 -52 5 -2 -18 -13 -51 -25 -56
-21 -63 -21 -109 -7 -58 18 -54 15 -124 89 -32 34 -47 56 -35 51 11 -4 85 -29
165 -56z m-3 -110 c27 -10 27 -11 9 -25 -17 -12 -21 -11 -32 4 -25 32 -19 37
23 21z m741 -169 c144 -49 493 -166 1002 -334 140 -46 381 -128 535 -181 154
-53 324 -112 377 -130 142 -49 138 -41 64 -114 l-63 -63 -31 16 c-17 9 -38 16
-47 16 -19 0 -19 5 2 36 34 52 50 46 -1150 445 -462 153 -857 284 -879 289
-49 14 -48 37 2 55 19 7 36 13 38 14 2 0 69 -22 150 -49z m497 -274 c1089
-364 1315 -442 1315 -457 0 -4 -68 -73 -151 -152 l-150 -146 -47 36 c-53 41
-175 101 -269 132 -34 12 -126 32 -205 46 -78 14 -151 28 -162 31 -25 8 -174
161 -198 204 -19 33 -61 62 -128 87 -25 9 -56 26 -70 39 -64 56 -159 84 -289
84 -84 0 -102 3 -161 31 -57 26 -75 41 -114 94 -25 34 -70 81 -101 105 -30 23
-55 45 -55 47 0 13 36 63 45 63 5 0 339 -110 740 -244z m-759 114 c27 -22 69
-64 93 -93 l44 -52 -41 -3 c-30 -2 -49 3 -71 19 -16 11 -51 24 -77 27 -45 5
-114 37 -114 54 0 4 8 9 18 12 10 4 33 22 52 41 19 19 37 35 41 35 4 0 29 -18
55 -40z m-2812 -75 c11 -19 17 -37 15 -38 -2 -2 -56 -34 -119 -72 -63 -37
-162 -99 -220 -136 l-106 -68 -45 23 -46 23 200 124 c110 68 218 136 241 151
22 14 46 27 51 27 6 1 19 -15 29 -34z m54 -112 c23 -56 62 -179 62 -199 0 -7
-20 -27 -45 -44 -44 -30 -95 -102 -95 -133 0 -10 -4 -17 -8 -17 -7 0 -158 60
-344 138 -21 8 -38 18 -38 21 0 9 422 277 441 280 4 1 16 -20 27 -46z m2990
-27 c40 -20 66 -26 119 -26 157 -1 277 -33 327 -89 10 -11 41 -28 70 -37 51
-16 116 -58 116 -73 0 -5 -32 -6 -70 -3 -174 12 -445 -103 -800 -341 -104 -70
-211 -158 -305 -252 -120 -120 -195 -224 -274 -382 l-31 -63 -123 44 c-185 66
-397 146 -444 167 -23 10 -47 19 -54 19 -7 0 14 26 47 58 32 32 106 127 163
212 58 85 135 196 172 246 182 248 422 419 698 499 208 60 301 65 389 21z
m-3515 -172 c9 -3 17 -15 17 -28 0 -12 5 -27 11 -33 8 -8 2 -16 -22 -28 -19
-10 -41 -24 -50 -32 -15 -12 -25 -10 -88 18 -39 17 -71 35 -71 40 0 4 26 24
58 44 57 36 77 39 145 19z m703 -205 c23 -30 75 -82 114 -114 75 -61 80 -81
13 -47 -21 11 -110 50 -198 87 -88 37 -161 68 -163 69 -5 6 23 73 40 96 11 14
36 38 56 53 l36 28 30 -58 c16 -32 48 -83 72 -114z m-375 17 c140 -57 317
-132 394 -166 158 -71 222 -99 450 -194 337 -142 347 -146 795 -321 410 -161
822 -309 1275 -460 154 -51 352 -118 439 -149 88 -31 161 -56 164 -56 2 0 -16
-19 -40 -43 l-43 -43 -185 64 c-102 36 -286 99 -410 142 -124 42 -259 89 -300
104 -41 15 -120 43 -175 62 -206 72 -386 139 -580 214 -110 43 -267 104 -350
135 -150 57 -627 255 -760 315 -38 17 -266 114 -505 215 -553 233 -520 219
-520 226 0 4 87 57 96 59 1 0 116 -47 255 -104z m3827 89 c52 -22 104 -76 172
-175 31 -47 83 -121 115 -165 86 -118 116 -189 122 -285 7 -93 -10 -186 -41
-233 -19 -28 -130 -125 -525 -454 -126 -105 -118 -103 -222 -64 l-56 21 -11
63 c-23 123 -25 228 -8 377 24 205 38 269 136 605 21 72 48 169 60 218 22 81
25 88 54 96 51 15 163 12 204 -4z m-4284 -36 c65 -31 66 -31 85 -92 20 -66
113 -312 185 -492 24 -60 40 -111 36 -113 -5 -2 -31 9 -60 23 -35 18 -55 36
-65 58 -23 53 -142 339 -184 444 -73 182 -81 203 -72 203 5 0 38 -14 75 -31z
m4016 10 c0 -5 -7 -31 -15 -57 -82 -265 -166 -578 -184 -682 -33 -195 -38
-339 -17 -480 8 -52 14 -96 12 -97 -1 -1 -40 11 -87 28 -46 16 -124 44 -174
61 -49 17 -95 35 -101 40 -18 13 -36 117 -43 248 l-7 125 -8 -76 c-8 -80 4
-188 30 -260 l12 -37 -71 22 c-214 67 -537 183 -537 193 0 11 74 139 129 223
67 103 258 297 386 393 50 37 94 67 98 67 5 0 -1 -15 -12 -32 -80 -121 -173
-353 -206 -513 -20 -95 -25 -239 -9 -255 8 -8 12 11 13 74 2 171 67 393 177
606 36 69 71 132 77 141 28 38 328 203 462 255 69 27 75 28 75 13z m-3605
-182 c539 -232 1093 -466 1310 -555 361 -148 1087 -417 1570 -582 110 -37 289
-99 397 -136 l197 -69 6 -72 c4 -39 6 -76 4 -81 -3 -6 -41 1 -94 19 -49 16
-94 27 -100 26 -12 -4 117 -54 161 -63 l31 -6 7 -96 c3 -54 6 -123 6 -154 l0
-57 -107 38 c-60 21 -168 62 -242 90 -131 50 -181 64 -131 37 31 -17 336 -137
405 -160 28 -9 55 -20 61 -24 16 -10 26 -145 10 -139 -6 2 -132 50 -281 105
-297 110 -441 168 -770 307 -528 223 -860 357 -1150 465 -167 63 -351 138
-705 290 -157 67 -365 157 -464 199 l-179 76 -29 74 c-16 40 -27 75 -25 78 3
2 51 -17 108 -43 169 -76 362 -155 367 -149 3 2 -17 14 -44 25 -27 12 -139 62
-249 111 l-200 90 -56 142 c-31 78 -55 143 -54 145 1 1 55 -20 120 -48 65 -27
120 -48 122 -46 4 4 -132 70 -208 101 -46 19 -47 21 -77 108 -19 53 -26 87
-19 84 7 -3 143 -61 302 -130z m5295 76 c-5 -16 -50 -181 -100 -368 -50 -187
-100 -370 -110 -408 -15 -55 -26 -74 -62 -106 -23 -22 -44 -38 -45 -37 -2 2
39 168 151 600 l64 248 48 49 c55 56 67 61 54 22z m-830 -123 c73 -24 222
-100 259 -130 l23 -20 -113 -108 c-170 -161 -319 -295 -324 -290 -3 3 0 31 6
64 10 55 7 140 -7 190 -4 17 4 27 45 53 28 18 81 44 118 56 48 17 60 24 41 24
-36 1 -124 -33 -173 -67 l-40 -28 -32 65 c-18 37 -66 111 -108 166 -41 55 -75
102 -75 105 0 9 310 -56 380 -80z m658 75 l37 -16 -50 -47 c-83 -78 -401 -379
-539 -511 -72 -69 -201 -186 -286 -260 -85 -75 -234 -205 -330 -290 -96 -85
-182 -161 -191 -168 -14 -12 -25 -10 -73 14 -50 24 -71 43 -48 43 5 0 63 46
128 102 65 56 184 156 264 222 80 66 204 172 275 235 136 119 645 592 704 655
39 40 55 43 109 21z m2 -174 l-29 -103 -78 -75 c-80 -78 -75 -80 11 -6 28 23
52 41 54 39 3 -3 -60 -251 -85 -337 -5 -14 -45 -59 -90 -100 -44 -41 -79 -76
-78 -78 2 -2 39 25 81 60 45 36 75 55 71 45 -4 -11 -12 -40 -18 -65 -25 -112
-27 -117 -98 -178 -37 -32 -113 -98 -167 -148 -55 -49 -203 -182 -329 -295
-126 -113 -315 -283 -420 -378 l-190 -173 -3 63 -3 63 53 45 c29 25 76 67 103
94 48 46 47 46 -33 -15 -46 -35 -92 -70 -103 -78 -19 -13 -19 -9 -19 221 l0
235 63 54 c198 168 667 588 827 739 372 353 505 478 507 476 2 -1 -11 -49 -27
-105z m-5062 -487 l52 -23 0 -53 c0 -29 5 -108 12 -176 6 -67 8 -125 5 -129
-8 -7 -103 35 -117 51 -4 6 -16 79 -25 161 -9 83 -18 163 -22 179 -5 26 -4 28
18 21 13 -4 48 -18 77 -31z m215 -91 c56 -24 119 -51 140 -60 44 -18 46 -25
10 -48 -16 -10 -79 -56 -141 -103 -62 -46 -114 -83 -116 -81 -2 2 -9 69 -15
149 -6 80 -14 158 -17 173 -7 35 -8 35 139 -30z m4712 -265 c-4 -56 -11 -114
-16 -130 -7 -27 -84 -107 -102 -108 -5 0 -6 17 -3 38 3 20 8 77 12 126 l6 90
47 42 c25 24 50 43 55 44 4 0 5 -46 1 -102z m-145 -143 c-7 -63 -14 -115 -16
-115 -14 0 -151 67 -152 75 -2 11 170 166 177 160 2 -2 -2 -56 -9 -120z
m-1186 -133 c27 -15 51 -31 53 -37 4 -14 -65 -59 -89 -58 -11 1 -40 10 -64 19
l-45 17 43 44 c23 23 45 43 48 43 3 0 27 -13 54 -28z m71 -437 l-4 -270 -32
-27 c-36 -31 -62 -34 -120 -16 -48 14 -46 6 -54 293 -3 121 -8 253 -12 294
l-6 73 24 -8 c108 -34 106 -34 151 -10 l43 23 7 -41 c3 -23 5 -162 3 -311z
m-359 -276 l51 -19 5 -138 c3 -75 4 -138 3 -140 -4 -4 -118 39 -132 50 -12 9
-19 70 -26 210 l-4 76 26 -10 c14 -5 49 -18 77 -29z m169 -64 c22 -10 60 -21
85 -25 l45 -7 -100 -97 -100 -98 -7 44 c-3 24 -7 82 -7 130 -1 99 -10 93 84
53z"/>
<path d="M5265 3269 c-113 -26 -347 -169 -440 -269 -39 -42 -38 -42 25 10 124
102 320 212 438 246 79 23 63 33 -23 13z"/>
<path d="M4432 2623 c-139 -153 -156 -170 -215 -222 -86 -76 -48 -63 51 18 58
48 266 291 249 291 -3 0 -41 -39 -85 -87z"/>
<path d="M4235 2633 c-142 -72 -325 -133 -403 -133 -18 0 -23 -3 -16 -10 15
-15 129 4 239 41 92 31 242 107 265 134 17 20 18 21 -85 -32z"/>
<path d="M5703 3850 c25 -63 29 -90 19 -119 -6 -17 -7 -31 -2 -31 5 0 13 16
19 35 11 41 -1 96 -26 116 -14 12 -15 12 -10 -1z"/>
<path d="M5810 3808 c0 -8 59 -98 65 -98 2 0 1 9 -2 19 -5 20 -62 91 -63 79z"/>
<path d="M5237 3563 c-12 -11 -7 -66 8 -98 13 -28 14 -26 8 35 -6 71 -7 73
-16 63z"/>
<path d="M5750 3002 c-177 -88 -229 -120 -390 -240 -117 -87 -406 -365 -429
-412 -7 -14 20 10 59 52 39 42 124 123 188 180 224 199 358 291 637 437 55 29
102 55 104 57 16 15 -34 -7 -169 -74z"/>
<path d="M5920 2830 c-8 -5 -63 -36 -122 -69 -266 -150 -484 -341 -609 -534
-32 -50 -59 -96 -59 -102 0 -5 26 28 57 75 64 96 212 253 323 343 69 56 263
187 392 264 29 18 49 32 43 32 -5 0 -17 -4 -25 -9z"/>
<path d="M6450 2488 c0 -68 -37 -273 -69 -389 -28 -100 -49 -161 -100 -287
-30 -75 -5 -53 32 27 48 106 86 227 113 361 25 120 44 330 30 330 -3 0 -6 -19
-6 -42z"/>
<path d="M6760 2518 c0 -2 9 -49 20 -104 30 -157 35 -271 16 -403 -22 -157
-12 -157 23 -1 15 66 13 234 -4 324 -16 85 -44 186 -51 186 -2 0 -4 -1 -4 -2z"/>
<path d="M6521 1969 c-63 -172 -172 -328 -284 -406 -44 -31 -42 -42 3 -18 107
55 230 227 290 405 28 83 20 100 -9 19z"/>
<path d="M6188 2688 c-53 -125 -85 -230 -118 -387 -33 -155 -21 -146 20 16 22
84 62 218 89 299 28 81 49 149 47 151 -2 2 -19 -34 -38 -79z"/>
<path d="M6372 988 c-1 -175 2 -279 8 -283 12 -7 12 378 0 490 -4 45 -7 -27
-8 -207z"/>
<path d="M4129 4621 c24 -33 28 -98 9 -124 -11 -15 -13 -12 -15 19 -2 45 -24
79 -66 100 l-32 16 33 -30 c40 -38 55 -77 47 -120 l-6 -33 26 17 c14 9 30 25
35 35 17 31 11 94 -11 123 -28 36 -45 33 -20 -3z"/>
<path d="M3982 4615 c14 -8 36 -31 48 -50 18 -30 22 -47 18 -95 -4 -59 -21
-90 -59 -111 -15 -8 -15 -5 -1 35 15 40 14 47 -2 90 -12 31 -29 54 -50 67 -48
29 -50 23 -6 -17 25 -23 42 -48 46 -69 9 -50 0 -65 -19 -29 -31 59 -90 69
-157 24 -54 -36 -95 -45 -133 -31 -20 8 -26 8 -22 0 22 -35 107 -29 159 12 40
32 31 2 -13 -42 -39 -39 -58 -45 -126 -40 -16 2 -42 9 -57 17 -24 12 -27 12
-22 0 9 -23 88 -49 126 -42 52 10 95 42 118 86 25 50 42 57 76 36 51 -34 53
-115 2 -117 l-23 0 23 -11 c52 -26 143 31 162 102 22 83 -33 200 -95 199 -17
0 -16 -2 7 -14z"/>
<path d="M3375 4501 c-39 -16 -86 -94 -84 -138 0 -10 7 1 15 24 9 24 34 59 59
82 45 41 47 46 10 32z"/>
<path d="M3403 4440 c-17 -10 -37 -29 -44 -42 l-12 -23 24 21 c34 31 68 47
114 55 l40 6 -45 2 c-29 0 -57 -6 -77 -19z"/>
<path d="M3609 4323 c30 -40 36 -91 17 -136 -8 -20 -11 -37 -7 -37 9 0 27 39
36 80 6 28 -31 111 -54 118 -8 3 -5 -6 8 -25z"/>
<path d="M3555 4290 c26 -29 31 -108 10 -151 l-17 -34 22 22 c33 31 38 107 11
151 -12 17 -26 32 -32 32 -7 0 -5 -8 6 -20z"/>
<path d="M4333 4214 c-18 -9 -33 -23 -33 -30 0 -18 11 -18 46 1 16 8 48 15 72
15 42 0 56 13 26 24 -28 11 -78 6 -111 -10z"/>
<path d="M3494 4118 c-10 -34 -18 -79 -18 -98 2 -49 31 -108 63 -125 l26 -14
-27 -1 c-14 0 -40 12 -57 26 -35 29 -42 19 -11 -14 25 -27 60 -36 106 -29 19
3 34 1 34 -4 0 -13 -61 -49 -85 -50 -11 0 -14 -3 -7 -6 6 -2 12 -13 12 -24 0
-38 29 -89 62 -109 l33 -20 -30 0 c-17 0 -37 6 -44 13 -11 10 -13 9 -9 -3 12
-41 97 -36 125 7 14 21 14 22 -19 17 -43 -7 -74 17 -93 71 l-13 40 28 8 c33 8
60 41 60 72 0 15 -7 20 -31 21 -20 1 -41 12 -61 31 -37 38 -46 97 -28 183 17
81 8 85 -16 8z"/>
<path d="M3291 4150 c-1 -36 33 -86 64 -94 35 -9 45 1 14 13 -30 11 -53 38
-67 76 -10 29 -10 29 -11 5z"/>
<path d="M3251 4065 c-1 -55 23 -106 59 -125 31 -17 35 -6 6 14 -33 21 -47 49
-56 110 l-8 51 -1 -50z"/>
<path d="M4390 4087 c-28 -22 -50 -61 -50 -89 0 -38 16 -35 24 4 l6 32 18 -34
c18 -38 52 -50 78 -30 19 17 18 59 -3 83 -18 19 -17 20 10 13 31 -7 37 8 8 24
-26 13 -72 12 -91 -3z"/>
<path d="M3940 4024 c-42 -18 -96 -68 -117 -107 -24 -47 -9 -41 49 16 30 30
71 60 91 68 21 7 36 18 34 23 -5 16 -20 16 -57 0z"/>
<path d="M3981 3883 c-39 -20 -67 -55 -77 -95 -9 -40 13 -35 30 6 17 40 36 55
36 29 0 -59 79 -88 102 -37 10 22 9 31 -5 56 l-17 30 27 -7 c25 -6 26 -5 13 9
-25 25 -71 29 -109 9z"/>
<path d="M4360 3870 c0 -5 4 -10 9 -10 24 0 43 -34 36 -67 -4 -21 -2 -33 5
-33 15 0 31 46 23 67 -12 34 -73 70 -73 43z"/>
<path d="M3435 3730 c0 -62 1 -66 13 -45 8 15 10 39 6 65 -10 64 -19 54 -19
-20z"/>
<path d="M4310 3745 c-7 -9 -10 -18 -7 -21 6 -7 47 18 47 28 0 14 -27 9 -40
-7z"/>
<path d="M3384 3688 c0 -56 0 -58 14 -33 8 16 11 38 7 56 -11 49 -20 40 -21
-23z"/>
<path d="M4403 3616 c-98 -54 -128 -76 -103 -76 19 0 171 78 194 100 37 36 -1
25 -91 -24z"/>
<path d="M4450 3539 c-19 -10 -39 -20 -45 -22 -5 -3 -7 -7 -4 -11 8 -9 74 18
84 34 12 19 2 19 -35 -1z"/>
<path d="M3468 3539 c-20 -11 -24 -55 -8 -79 7 -11 10 -8 10 16 0 39 20 57 54
48 30 -7 33 -16 11 -34 -17 -14 -20 -56 -5 -65 6 -3 10 4 10 17 0 33 15 52 34
45 11 -5 15 -14 11 -30 -7 -27 24 -61 52 -55 18 3 21 22 3 24 -5 1 -14 2 -20
3 -5 0 -10 13 -10 27 0 36 -16 61 -50 79 -33 17 -67 19 -92 4z"/>
</g>
</svg>
