<?xml version="1.0" standalone="no"?>
<!DOCTYPE svg PUBLIC "-//W3C//DTD SVG 20010904//EN"
 "http://www.w3.org/TR/2001/REC-SVG-20010904/DTD/svg10.dtd">
<svg version="1.0" xmlns="http://www.w3.org/2000/svg"
 width="1024.000000pt" height="559.000000pt" viewBox="0 0 1024.000000 559.000000"
 preserveAspectRatio="xMidYMid meet">
<metadata>
Created by potrace 1.16, written by Peter Selinger 2001-2019
</metadata>
<g transform="translate(0.000000,559.000000) scale(0.100000,-0.100000)"
fill="#000000" stroke="none">
<path d="M3302 5019 c-24 -12 -49 -30 -55 -40 -9 -14 -20 -16 -63 -12 -82 9
-157 -31 -184 -97 -7 -16 -24 -34 -40 -40 -16 -6 -33 -24 -40 -39 -6 -15 -24
-35 -40 -44 -15 -9 -38 -38 -51 -63 -19 -40 -21 -56 -16 -119 5 -55 3 -81 -8
-102 -32 -61 -14 -164 38 -220 14 -16 21 -39 23 -72 3 -58 23 -104 64 -150 17
-17 33 -44 37 -59 10 -44 33 -71 70 -84 l35 -13 -4 -85 c-8 -128 -49 -192
-148 -230 -101 -38 -318 -159 -367 -204 -67 -61 -137 -199 -183 -361 -17 -60
-60 -199 -96 -308 -35 -108 -64 -209 -64 -223 0 -24 29 -59 79 -94 20 -14 21
-19 11 -100 -20 -169 -6 -300 43 -397 18 -38 34 -53 78 -76 50 -27 60 -28 152
-25 109 3 114 -1 73 -55 -41 -54 -59 -112 -53 -167 5 -38 1 -58 -15 -92 -26
-53 -27 -116 -4 -186 17 -50 17 -59 2 -150 -44 -265 -72 -671 -48 -686 7 -4
12 -3 12 2 0 107 63 714 75 730 2 2 15 -9 30 -24 24 -24 32 -26 79 -21 143 15
382 196 558 422 61 78 116 165 105 165 -2 0 -37 -44 -78 -97 -194 -256 -454
-457 -592 -458 l-52 0 -37 75 c-31 62 -38 86 -37 135 0 33 5 70 12 82 12 23
13 23 31 -12 36 -66 111 -81 210 -40 57 23 159 86 152 93 -2 2 -42 -16 -87
-39 -104 -52 -194 -64 -227 -31 -24 24 -62 122 -62 160 0 32 39 114 58 120 8
3 12 -10 12 -41 0 -27 -5 -47 -12 -51 -9 -3 -7 -10 7 -21 30 -25 117 -14 191
23 142 72 321 230 434 380 51 70 54 72 96 72 24 0 44 -3 44 -6 0 -15 -88 -154
-156 -246 -101 -136 -105 -142 -49 -83 70 75 139 170 191 263 38 67 55 87 88
104 23 11 52 29 65 39 15 13 40 19 71 19 52 0 100 28 100 60 0 9 7 23 15 30 8
7 15 20 15 29 1 9 9 26 19 38 l19 23 57 -35 c32 -19 62 -36 67 -37 5 -2 -32
-73 -81 -158 -96 -165 -108 -202 -71 -235 16 -14 30 -17 75 -12 30 3 55 4 55
3 0 -9 -52 -263 -63 -311 -80 -332 -171 -595 -316 -918 -70 -156 -85 -201 -55
-162 42 54 204 407 235 513 7 23 15 42 18 42 3 0 5 -109 4 -242 -1 -158 2
-231 7 -208 5 19 10 143 11 275 l1 240 33 110 c19 61 44 151 57 200 l22 90 13
-95 c7 -52 21 -194 32 -315 17 -197 19 -210 20 -120 1 105 -22 403 -39 508
-16 99 -15 102 31 120 23 9 45 14 49 12 18 -11 64 -377 100 -790 18 -216 32
-325 41 -331 19 -11 11 121 -32 576 -15 164 -48 413 -65 497 -14 71 -14 72 11
109 14 20 25 45 25 54 0 13 12 19 50 23 71 9 117 33 181 97 52 52 58 55 90 48
19 -4 67 -8 107 -9 39 -1 72 -4 72 -9 0 -4 -9 -15 -21 -26 -55 -50 -75 -148
-43 -222 22 -52 3 -147 -43 -223 -65 -107 -75 -177 -47 -346 14 -88 14 -109 0
-224 -18 -141 -21 -289 -7 -289 12 0 21 37 21 88 0 24 7 102 16 174 15 122 15
140 -1 264 -20 151 -16 195 24 280 l28 59 7 -52 c10 -79 26 -64 26 24 0 42 5
105 11 140 9 53 8 72 -5 113 -23 70 -20 108 14 167 38 65 56 78 47 33 -4 -18
-7 -41 -7 -51 0 -11 -7 -19 -16 -19 -14 0 -14 -3 -4 -15 30 -37 98 -6 200 91
74 70 76 71 160 87 168 32 164 32 300 -13 221 -74 300 -75 407 -4 37 24 68 42
71 40 11 -12 -85 -417 -155 -651 -58 -196 -163 -476 -257 -689 -14 -33 -25
-61 -23 -62 2 -2 23 30 46 70 62 109 153 328 212 511 28 88 55 169 60 180 4
11 9 -126 10 -305 2 -239 4 -297 9 -220 4 58 8 223 9 367 l1 262 44 173 c24
95 47 197 51 227 5 38 10 50 16 39 12 -21 45 -284 61 -478 10 -130 14 -151 16
-100 5 83 -14 336 -35 465 -24 153 -26 145 31 162 26 8 49 13 50 11 25 -39 86
-354 121 -617 3 -26 -3 -44 -25 -77 -43 -62 -41 -103 9 -146 l39 -33 12 -150
c18 -222 31 -233 26 -22 -4 141 -2 177 8 177 7 0 30 11 50 25 l37 25 9 -26 c6
-14 10 -51 10 -82 1 -31 7 -75 15 -97 8 -22 15 -59 15 -82 0 -40 -2 -43 -44
-62 -33 -14 -50 -30 -65 -59 -11 -22 -27 -42 -36 -45 -9 -4 -15 -19 -15 -41 0
-28 6 -40 27 -53 15 -10 36 -26 45 -35 24 -23 60 -31 114 -25 39 4 47 2 60
-19 21 -31 95 -58 136 -50 38 8 75 40 92 81 12 28 19 32 88 43 l75 13 35 -35
c71 -71 163 -56 201 34 13 32 27 50 38 50 31 0 104 -31 129 -55 49 -47 117
-69 225 -73 82 -2 106 0 134 15 41 21 47 35 26 57 -26 25 -87 37 -246 44 -116
6 -153 11 -159 22 -50 88 -118 140 -184 140 -19 0 -37 3 -39 8 -3 4 -8 32 -12
63 -6 52 -5 57 14 62 12 3 24 1 27 -4 11 -18 61 -9 101 19 111 74 155 106 167
124 12 16 214 91 225 82 8 -7 -64 -195 -121 -317 -33 -70 -58 -130 -55 -133 6
-7 78 108 107 171 13 28 35 84 50 125 l28 75 46 3 46 3 1 -113 c1 -62 4 -138
8 -168 l7 -55 8 68 c4 38 5 116 1 173 -7 99 -7 104 12 104 11 0 41 3 65 6 l45
6 12 -98 c6 -55 16 -144 21 -198 6 -55 13 -102 16 -105 14 -13 -14 332 -31
390 -4 11 5 19 30 26 33 11 36 10 49 -15 7 -15 26 -78 41 -140 15 -62 30 -111
32 -108 7 7 -15 128 -39 209 -11 38 -18 70 -16 72 7 6 92 45 99 45 8 0 43 -86
63 -155 8 -27 27 -117 41 -200 30 -174 51 -217 41 -85 -8 118 -48 301 -85 390
-37 91 -39 121 -7 153 36 36 49 94 36 169 -5 35 -10 86 -10 113 1 45 4 52 33
70 32 20 32 21 35 115 4 128 -15 380 -34 460 -18 72 -51 142 -95 203 -16 22
-29 45 -29 52 0 6 -10 21 -22 32 -21 18 -41 30 -141 79 -33 16 -93 19 -102 4
-14 -22 -95 61 -95 97 0 5 18 7 41 5 52 -5 69 10 44 38 -18 20 -18 20 22 20
21 0 47 6 57 13 16 12 16 14 -3 31 -31 28 -26 67 18 159 68 144 76 236 27 337
-14 28 -30 83 -36 121 -6 39 -17 86 -24 104 -29 68 -131 155 -182 155 -9 0
-36 18 -59 39 -54 50 -94 62 -231 68 -154 7 -218 -14 -361 -121 -73 -55 -137
-85 -180 -86 -17 0 -35 -5 -38 -10 -11 -19 6 -49 35 -61 l28 -13 -25 -31 c-44
-51 -63 -104 -63 -175 0 -78 22 -132 74 -182 20 -19 36 -43 36 -52 0 -10 5
-27 11 -39 7 -12 15 -69 19 -127 9 -140 39 -208 123 -286 33 -31 71 -61 84
-67 30 -13 29 -23 -3 -31 -39 -10 -95 -48 -134 -92 -45 -49 -290 -457 -290
-481 0 -11 5 -24 11 -30 14 -14 -3 -46 -71 -138 -61 -82 -85 -127 -115 -212
l-22 -62 -23 24 c-27 29 -55 32 -68 9 -9 -16 -11 -16 -33 0 -13 9 -34 16 -47
16 -24 0 -24 -2 -20 -60 3 -47 1 -64 -12 -75 -15 -13 -18 1 -44 163 -26 168
-65 351 -86 399 -6 16 -5 33 6 60 10 22 14 51 10 72 l-5 34 37 -36 c48 -46 98
-67 164 -67 69 0 117 31 149 97 21 41 24 62 23 148 -1 91 -6 114 -52 255 l-50
155 29 30 c16 17 29 34 29 39 0 7 -143 312 -238 504 -30 61 -61 109 -93 140
-140 138 -147 144 -206 162 -32 10 -71 25 -88 34 -35 18 -63 20 -99 6 -20 -7
-35 -5 -61 7 -43 21 -45 43 -3 67 83 49 168 157 209 264 16 42 23 90 28 183 6
124 7 127 39 163 17 20 39 50 48 67 22 43 29 130 14 171 -7 18 -15 68 -20 111
-4 50 -13 84 -24 96 -9 10 -27 38 -39 62 -12 23 -30 48 -41 53 -10 6 -39 32
-64 59 -25 27 -73 61 -111 80 -59 29 -77 32 -176 36 -225 10 -285 6 -352 -22
-80 -32 -172 -104 -224 -172 -48 -64 -88 -172 -89 -237 0 -28 -8 -60 -19 -80
-36 -61 -48 -196 -20 -214 5 -3 9 -31 9 -63 0 -64 18 -126 50 -171 19 -26 19
-30 4 -66 -12 -28 -15 -56 -11 -97 3 -39 0 -70 -9 -93 -19 -46 -18 -93 5 -136
13 -27 17 -50 13 -85 l-4 -48 -79 -39 c-143 -71 -207 -165 -309 -451 -42 -117
-60 -155 -60 -124 0 20 -108 346 -127 383 -8 16 -21 50 -29 77 -10 34 -25 57
-51 76 -19 16 -54 44 -78 64 -23 19 -57 41 -76 48 -53 20 -71 30 -108 56 -36
26 -79 32 -111 15 -14 -8 -25 -7 -40 2 -25 16 -27 48 -2 48 36 0 119 49 154
90 49 56 104 164 123 238 10 40 17 117 18 226 l3 166 34 35 c30 31 35 43 37
92 1 31 7 61 12 66 20 20 13 102 -13 139 -12 19 -25 56 -28 82 -7 57 -43 100
-101 120 -23 8 -48 28 -67 55 -43 59 -104 85 -182 78 -32 -3 -58 -1 -58 3 0
17 -88 50 -131 50 -25 0 -63 -9 -87 -21z m151 -23 c18 -7 40 -22 50 -33 16
-18 23 -19 57 -11 22 6 55 7 75 4 40 -8 99 -55 121 -97 9 -18 23 -29 35 -29
58 0 109 -58 109 -123 0 -20 9 -46 23 -63 28 -37 31 -112 4 -142 -12 -13 -15
-22 -8 -27 14 -8 14 -36 0 -72 -11 -27 -13 -24 -33 57 -15 58 -20 93 -14 109
12 34 2 38 -27 11 -29 -28 -62 -21 -45 9 12 24 13 71 1 71 -5 0 -12 -13 -16
-30 -6 -28 -46 -70 -66 -70 -5 0 -9 15 -10 33 -1 41 -22 100 -37 105 -8 2 -12
-10 -12 -36 0 -54 -7 -70 -41 -87 -46 -24 -62 -20 -54 14 8 36 -16 87 -45 96
-27 8 -40 -1 -40 -29 0 -13 -9 -35 -21 -50 -27 -35 -73 -35 -110 0 l-27 26 -7
-34 c-15 -72 -56 -98 -97 -61 -26 24 -32 11 -18 -44 16 -63 2 -99 -45 -119
-39 -16 -39 -18 -24 -77 20 -80 -32 -137 -61 -67 -34 83 -116 107 -170 50 -31
-34 -39 -30 -65 33 -21 50 -19 105 6 151 17 32 19 44 10 63 -29 63 -1 162 56
198 18 11 32 27 33 36 0 17 32 51 46 48 22 -4 34 2 34 17 0 29 33 72 70 93 41
23 84 27 124 11 23 -8 30 -6 54 22 48 55 119 72 185 44z m1755 -95 c21 -7 43
-6 63 1 62 21 207 -28 285 -96 40 -36 33 -49 -12 -19 -29 19 -109 22 -126 5
-9 -9 0 -12 38 -12 28 0 58 -6 69 -13 17 -13 15 -15 -16 -22 -33 -8 -32 -8 22
-14 31 -3 63 -12 71 -19 16 -12 33 -57 20 -50 -46 25 -96 42 -134 46 -60 6
-65 -13 -6 -22 23 -4 62 -16 86 -26 53 -24 137 -110 162 -168 40 -89 35 -192
-13 -247 l-22 -26 2 90 2 89 -41 52 c-29 37 -58 60 -104 81 -48 23 -72 42
-100 81 -35 46 -39 49 -51 32 -7 -10 -13 -23 -13 -30 0 -21 -69 -73 -112 -84
-142 -36 -144 -38 -199 -102 -53 -60 -112 -97 -156 -98 -13 0 -23 -5 -23 -11
0 -8 15 -10 46 -5 50 6 50 8 2 -58 -19 -26 -28 -51 -28 -77 0 -50 -16 -58 -30
-14 -23 71 -95 96 -147 51 -26 -22 -28 -30 -28 -93 0 -60 4 -76 30 -118 37
-59 73 -87 116 -89 30 -1 34 -5 42 -40 15 -62 -4 -105 -72 -164 l-59 -52 -31
37 c-17 21 -38 52 -46 69 -17 37 -20 106 -5 135 11 19 12 19 43 -5 18 -13 46
-27 62 -31 l30 -6 -30 22 c-73 55 -124 118 -140 173 -18 63 -13 129 13 168 52
77 90 121 120 138 18 11 39 34 46 51 8 19 26 37 44 45 17 7 44 31 59 53 15 22
34 40 41 41 25 0 92 41 108 65 11 17 26 25 43 25 15 0 50 11 77 25 40 20 64
25 127 25 75 0 77 1 77 24 0 31 -59 83 -103 91 -19 4 -70 7 -115 8 -71 2 -83
-1 -104 -20 -14 -13 -37 -23 -54 -23 -36 0 -87 -30 -110 -65 -9 -14 -23 -25
-31 -25 -31 0 -72 -32 -90 -69 -11 -24 -27 -42 -41 -46 -25 -6 -60 -42 -79
-83 -12 -25 -13 -22 -9 31 13 162 167 334 345 383 56 15 145 17 189 5z m-8
-108 c-1 -5 -8 -17 -18 -29 -13 -16 -26 -20 -55 -16 -42 5 -40 17 7 38 34 15
66 18 66 7z m140 -30 c16 -9 33 -27 39 -40 10 -23 10 -24 -11 -17 -13 4 -43 9
-68 10 -75 3 -84 4 -100 14 -13 9 -11 13 10 30 31 24 92 26 130 3z m-312 -40
c-8 -10 -18 -26 -21 -35 -4 -10 -13 -18 -21 -18 -8 0 -21 -3 -30 -6 -24 -9
-20 19 7 43 23 21 43 31 66 32 12 1 12 -2 -1 -16z m619 -5 c24 -22 31 -48 13
-48 -6 0 -13 8 -17 18 -3 9 -13 25 -21 35 -21 24 -3 21 25 -5z m-452 -11 c19
-10 17 -11 -15 -25 -32 -13 -137 -18 -148 -7 -7 7 20 36 43 46 23 9 90 2 120
-14z m-1660 -78 c4 -12 1 -33 -6 -46 -12 -22 -11 -27 6 -39 10 -8 27 -14 37
-14 30 0 85 27 97 47 9 16 10 15 11 -9 0 -30 19 -38 61 -27 15 4 42 2 62 -4
41 -13 57 -51 57 -135 l0 -52 -42 6 c-46 6 -98 -8 -98 -27 0 -8 13 -10 39 -5
21 3 51 1 67 -4 l29 -10 -1 -153 c-1 -104 -7 -172 -18 -216 -37 -143 -137
-277 -226 -301 -100 -27 -252 32 -364 143 -38 37 -71 65 -74 62 -10 -10 54
-89 108 -133 59 -48 112 -74 202 -99 l57 -16 3 -75 c2 -50 7 -77 16 -80 9 -3
11 6 6 37 -8 48 2 52 52 20 36 -22 56 -79 37 -108 -22 -35 -82 -71 -143 -87
-55 -14 -77 -15 -137 -5 -92 14 -177 42 -278 92 -88 43 -179 116 -157 126 30
12 98 71 119 102 34 51 43 95 42 216 -1 140 -7 161 -42 157 -76 -8 -157 90
-157 188 0 67 24 100 72 100 27 0 71 -42 83 -80 7 -24 51 -37 74 -23 32 19 44
62 34 114 -9 42 -8 49 7 54 37 12 64 55 65 101 0 37 3 44 20 44 28 0 64 27 76
56 7 21 12 23 28 14 53 -28 123 -1 141 56 13 39 26 43 35 13z m1361 -1 c-9
-12 -16 -30 -16 -39 0 -15 -27 -29 -58 -29 -10 0 -10 5 -1 23 19 36 51 67 71
67 18 0 18 -2 4 -22z m158 13 c17 -7 17 -9 -9 -29 -29 -23 -41 -27 -107 -36
-48 -6 -50 12 -7 48 31 26 81 33 123 17z m658 -22 c11 -15 18 -35 16 -45 -3
-15 -9 -12 -41 19 -20 21 -37 42 -37 48 0 19 43 4 62 -22z m-265 -47 c12 -16
52 -45 90 -65 49 -26 78 -49 102 -82 l33 -46 -6 -97 c-23 -390 -25 -401 -86
-506 -37 -65 -93 -125 -147 -159 -59 -38 -132 -37 -216 2 -66 30 -181 111
-196 139 -5 9 -13 14 -17 10 -17 -17 44 -83 129 -139 70 -45 138 -69 201 -71
l46 -1 0 -47 c0 -27 3 -55 6 -64 10 -27 24 -18 24 17 l0 34 55 -26 c52 -24 55
-27 55 -61 0 -45 -32 -78 -110 -114 -47 -22 -69 -26 -149 -26 -132 0 -272 40
-320 91 -29 31 -30 138 -1 200 24 55 27 179 5 273 -23 98 -34 118 -62 111 -59
-15 -130 70 -140 169 -5 49 -3 57 20 80 14 14 31 26 37 26 16 0 61 -49 82 -88
9 -18 21 -32 27 -32 22 0 41 33 41 73 0 31 7 50 26 72 15 17 33 45 40 62 8 18
25 40 38 48 13 9 36 34 50 55 31 47 62 65 140 79 70 13 143 53 158 87 14 31
20 30 45 -4z m-669 -71 c-10 -30 -20 -43 -42 -51 -16 -5 -30 -10 -32 -10 -2 0
2 13 7 30 10 28 67 86 76 77 2 -3 -2 -23 -9 -46z m152 42 c-2 -30 -66 -73
-107 -73 -36 0 -42 14 -20 44 18 24 128 49 127 29z m-110 -111 c0 -18 -50 -54
-84 -62 -31 -7 -36 -5 -36 10 0 18 24 43 50 53 24 9 70 8 70 -1z m-138 -8 c8
-7 -13 -74 -24 -74 -4 0 -8 -5 -8 -11 0 -8 12 -10 35 -6 19 3 35 3 35 0 0 -3
-18 -25 -40 -49 -22 -24 -40 -48 -40 -54 0 -5 -4 -10 -10 -10 -18 0 -11 122
10 168 18 39 29 49 42 36z m-1625 -468 c1 -1 4 -13 8 -29 9 -34 -9 -36 -42 -5
-32 30 -30 50 5 42 15 -4 28 -7 29 -8z m1857 -373 c-9 -21 -18 -33 -21 -26 -2
7 0 21 6 32 14 25 14 87 1 112 -8 14 -6 25 7 46 l18 27 3 -76 c2 -55 -2 -88
-14 -115z m-194 97 c18 -22 41 -57 51 -78 l20 -37 -4 40 c-4 38 -2 43 34 68
50 36 63 28 57 -34 -4 -36 -14 -60 -42 -95 -41 -54 -40 -68 5 -35 38 28 49 18
49 -47 0 -38 -45 -151 -61 -152 -15 0 -100 62 -115 85 -16 25 -32 115 -20 115
18 0 91 -58 112 -89 19 -28 24 -31 24 -16 0 25 -25 63 -60 90 -67 53 -92 82
-100 120 -10 42 -4 105 10 105 5 0 23 -18 40 -40z m2437 -15 c24 -4 59 -18 78
-31 44 -29 54 -31 30 -4 -15 17 -16 20 -3 20 9 0 33 -18 53 -39 25 -25 55 -44
84 -52 54 -15 122 -79 146 -136 9 -21 22 -69 30 -108 7 -38 25 -99 40 -135 27
-62 27 -68 17 -137 -8 -46 -27 -104 -53 -159 -40 -83 -45 -114 -28 -174 4 -16
-17 -18 -60 -4 -23 7 -24 6 -18 -29 6 -38 -2 -45 -37 -31 -23 9 -23 104 1 104
25 0 87 72 101 117 33 109 -4 193 -85 193 -41 0 -65 -21 -93 -81 l-25 -52 -7
48 c-4 26 -18 70 -32 96 l-24 48 21 3 c17 3 13 7 -18 16 -39 11 -109 73 -133
117 -11 20 -11 20 -12 0 0 -22 23 -62 48 -82 24 -20 8 -25 -38 -13 -52 14
-112 68 -140 126 -12 24 -26 46 -31 50 -18 11 -9 -106 11 -146 11 -22 17 -40
12 -40 -4 0 -29 13 -54 29 -55 35 -98 113 -98 178 0 46 -14 58 -24 20 -10 -43
-67 -115 -123 -159 -105 -79 -97 -76 -89 -37 3 18 15 51 26 72 24 46 25 54 3
36 -34 -29 -55 -97 -48 -158 3 -31 9 -65 12 -76 10 -35 -28 4 -48 50 -41 90
-10 222 67 283 41 33 43 42 6 42 -16 0 -37 6 -48 14 -18 14 -16 15 24 22 43 7
84 30 211 117 93 64 208 101 281 91 14 -1 44 -6 67 -9z m-3431 -155 c41 -26
69 -83 89 -180 16 -80 34 -301 36 -440 2 -79 2 -82 9 -35 20 124 4 399 -30
528 -10 39 -18 73 -16 74 1 1 20 -7 42 -18 31 -15 46 -32 64 -68 21 -46 23
-63 24 -243 0 -106 -3 -267 -7 -358 -5 -90 -6 -162 -3 -160 2 3 12 82 22 175
21 218 22 407 0 504 -9 41 -14 76 -12 78 2 3 21 -10 40 -29 47 -43 56 -93 56
-297 -1 -205 -44 -751 -60 -751 -4 0 -19 18 -34 40 -14 22 -31 40 -36 40 -6 0
-10 15 -10 34 0 27 -9 42 -53 83 -59 56 -104 83 -139 83 -13 0 -41 18 -68 45
l-46 45 28 112 c81 322 101 664 43 728 -8 9 -15 20 -15 23 0 14 44 6 76 -13z
m-763 -73 c125 -101 358 -183 492 -175 75 5 154 34 192 70 l23 21 0 -59 c0
-62 -22 -246 -40 -344 -13 -65 -60 -253 -66 -259 -2 -2 -37 26 -79 63 -60 54
-80 67 -102 64 -52 -6 -41 -38 39 -116 40 -39 85 -80 101 -92 35 -28 34 -36
-5 -56 -18 -9 -81 -64 -139 -120 -59 -57 -111 -104 -117 -104 -12 0 -58 103
-103 230 -18 52 -35 88 -37 79 -4 -21 54 -191 89 -262 34 -66 39 -59 -70 -87
-76 -20 -74 -22 -85 70 -47 386 -100 673 -137 741 -14 27 -20 23 -9 -5 15 -40
68 -321 85 -456 10 -69 25 -179 36 -245 10 -65 16 -121 14 -124 -7 -6 -245
-50 -277 -51 -41 0 -38 34 4 46 40 12 46 30 47 154 1 57 8 111 17 135 30 79
43 152 44 239 0 49 -2 87 -5 84 -3 -2 -9 -49 -15 -104 -5 -54 -13 -111 -16
-127 -10 -49 -24 -18 -24 56 0 40 -4 78 -9 85 -8 14 -21 -204 -21 -370 0 -53
-4 -99 -9 -103 -5 -3 -24 4 -43 14 -40 24 -216 93 -296 117 -31 9 -89 17 -128
18 l-72 1 13 40 c7 22 38 121 69 220 32 99 72 227 90 285 78 247 133 316 336
420 74 38 139 65 145 61 5 -4 36 -29 68 -54z m2640 33 c14 -11 40 -23 59 -27
47 -8 85 -30 102 -56 25 -39 47 -216 53 -424 6 -212 5 -220 -36 -194 -11 7
-11 14 0 46 13 35 12 38 -9 55 -29 24 -98 34 -178 27 -71 -7 -99 -18 -114 -47
-8 -16 -7 -26 5 -42 8 -13 15 -26 15 -29 0 -4 -25 -19 -55 -33 -74 -33 -157
-114 -186 -179 -19 -43 -23 -69 -24 -153 l0 -101 -56 -45 c-73 -60 -90 -68
-138 -68 l-41 0 74 113 c127 193 282 487 369 697 95 231 131 416 90 462 -15
17 -15 18 14 18 17 0 42 -9 56 -20z m-893 -125 c5 -3 10 -22 10 -41 0 -46 22
-96 52 -120 37 -29 54 -110 34 -157 -40 -97 -28 -186 35 -254 21 -24 39 -47
39 -52 0 -19 62 -81 80 -81 15 0 17 7 13 43 -3 30 3 62 21 110 42 110 31 218
-30 287 -15 18 -20 113 -9 181 l7 47 52 -23 c57 -26 185 -55 243 -55 63 0 151
26 203 58 28 17 50 29 50 26 0 -25 -40 -146 -84 -258 -95 -237 -269 -568 -409
-778 l-52 -78 -50 0 c-60 0 -64 4 -111 135 -18 50 -33 83 -33 75 -1 -21 24
-108 44 -154 9 -21 14 -40 12 -43 -3 -2 -40 0 -82 6 -42 6 -81 11 -86 11 -25
0 8 226 42 287 20 36 22 46 12 63 -7 11 -13 34 -13 52 0 47 -36 269 -48 298
l-11 25 0 -30 c0 -16 4 -48 9 -69 5 -22 12 -84 16 -138 l7 -98 -39 0 c-22 0
-93 -7 -159 -15 -189 -23 -179 -25 -204 43 -36 101 -36 114 -2 210 141 385
173 436 321 518 l75 42 17 -34 c10 -18 22 -36 28 -39z m209 -6 c14 -40 14 -77
0 -116 -8 -25 -17 -32 -50 -37 -22 -4 -48 -2 -60 4 -26 14 -59 69 -59 98 0 36
30 26 82 -28 51 -53 58 -52 32 3 -15 31 -15 35 8 70 12 20 26 36 30 37 3 0 11
-14 17 -31z m942 -36 c58 -62 74 -90 209 -373 l128 -270 -35 -29 c-80 -66
-108 -65 -131 4 -7 22 -18 45 -24 52 -12 15 -54 17 -63 3 -3 -5 -26 4 -53 23
l-47 32 -1 210 c-1 137 -6 240 -16 298 -8 48 -12 87 -9 87 4 0 23 -17 42 -37z
m965 -25 c23 -76 118 -158 182 -158 18 0 32 2 32 4 0 2 -11 24 -25 47 -34 61
-31 77 7 34 39 -45 89 -71 153 -80 28 -4 56 -12 63 -18 27 -22 62 -106 62
-151 0 -76 44 -70 83 10 18 35 36 58 53 64 73 28 111 -78 63 -177 -27 -55 -59
-78 -99 -69 -29 5 -41 -6 -20 -19 6 -3 10 -32 10 -64 0 -104 28 -168 94 -215
19 -13 19 -14 -4 -51 -41 -66 -193 -151 -318 -176 -53 -11 -69 -11 -104 1 -49
18 -77 52 -80 100 -3 33 -1 35 28 38 28 3 32 0 38 -28 7 -40 26 -30 26 14 0
30 4 34 39 45 66 19 166 104 200 168 23 45 10 43 -29 -3 -86 -104 -235 -176
-328 -159 -83 15 -206 115 -248 201 -20 42 -28 78 -35 157 -5 56 -12 118 -17
137 -7 31 -5 36 16 48 13 6 42 12 63 12 44 0 52 16 14 26 -31 8 -69 -1 -89
-21 -18 -19 -22 -13 -31 52 -8 64 4 84 92 154 35 27 69 61 75 75 14 30 25 31
34 2z m-1912 -127 c-15 -14 -72 -23 -78 -12 -4 5 12 14 36 19 46 9 58 7 42 -7z
m-794 -143 c42 -133 127 -392 136 -415 4 -8 -12 -14 -46 -19 l-50 -7 -63 -100
c-42 -68 -63 -94 -66 -82 -2 10 2 66 8 124 18 171 31 377 31 509 0 67 2 122 4
122 3 0 23 -60 46 -132z m796 97 c-22 -17 -62 -20 -71 -6 -5 9 22 16 70 19 20
1 20 1 1 -13z m44 -71 c36 -57 38 -143 6 -233 -14 -41 -26 -83 -26 -94 0 -16
-3 -17 -15 -7 -19 16 -45 102 -45 148 0 40 -10 36 -26 -11 l-11 -32 -17 39
c-20 48 -19 97 3 161 15 41 23 51 47 56 54 12 62 9 84 -27z m770 -173 c18 -5
24 -13 22 -27 -13 -71 -10 -76 58 -112 36 -18 82 -50 104 -71 l38 -39 -21 -21
c-15 -15 -20 -29 -16 -42 4 -11 0 -26 -10 -36 -11 -10 -14 -24 -10 -37 8 -26
8 -36 0 -62 -5 -15 1 -30 18 -49 23 -28 23 -29 5 -47 -23 -23 -17 -51 18 -89
l24 -25 -40 -65 c-96 -152 -91 -147 -138 -159 -54 -13 -62 -7 -34 23 27 29 28
53 2 69 -11 7 -20 18 -20 25 0 7 -9 22 -21 34 -19 19 -28 20 -117 15 -85 -6
-105 -4 -161 16 -36 13 -66 28 -68 33 -2 6 21 23 51 38 63 30 91 65 82 101 -9
35 -30 38 -104 16 -110 -32 -115 -31 -125 15 -21 97 22 227 96 291 23 20 68
49 100 65 66 34 77 51 55 90 -18 31 -11 44 32 52 39 7 152 6 180 -2z m-2213
-173 c89 -80 121 -114 108 -116 -9 -2 -29 7 -43 20 -15 14 -66 60 -114 103
-76 67 -105 105 -82 105 3 0 62 -51 131 -112z m2483 -44 c6 -14 10 -29 10 -34
0 -18 -26 1 -44 30 -17 29 -17 30 4 30 13 0 24 -9 30 -26z m-1331 -68 c9 -11
0 -15 -56 -20 -126 -13 -397 -47 -403 -51 -3 -2 -11 4 -17 14 -14 22 -7 23
172 41 61 6 135 15 165 19 86 13 127 12 139 -3z m1358 -7 c38 -14 73 -48 73
-71 0 -18 -1 -18 -37 0 -21 11 -55 25 -75 31 -27 9 -38 18 -38 32 0 22 32 25
77 8z m169 -150 c73 -242 66 -364 -26 -426 -60 -41 -138 -28 -202 35 -43 41
-44 47 -23 89 11 22 25 33 49 37 45 9 86 42 86 71 0 12 7 28 15 35 8 7 17 27
21 46 8 41 13 42 53 8 23 -19 31 -22 31 -11 0 8 -13 26 -29 40 -26 22 -30 33
-37 98 -3 41 -11 83 -17 93 -7 15 -5 22 9 33 9 7 19 11 21 9 2 -1 24 -72 49
-157z m-2453 107 c18 -7 53 -32 80 -56 76 -68 55 -97 -29 -39 -30 21 -65 34
-109 40 -102 16 -108 5 -13 -25 61 -19 94 -36 108 -53 35 -45 23 -84 -17 -57
-13 8 -52 24 -85 35 -82 26 -100 9 -21 -21 76 -28 103 -46 103 -70 0 -29 -15
-32 -72 -15 -60 17 -88 19 -88 5 0 -5 27 -18 61 -27 34 -9 64 -23 67 -31 8
-23 -28 -42 -81 -42 -37 0 -58 -7 -92 -30 -58 -40 -83 -49 -174 -59 -67 -7
-98 -19 -241 -89 -185 -90 -314 -145 -410 -174 -88 -28 -251 -30 -297 -6 -73
40 -106 137 -105 313 0 111 17 293 28 304 13 13 322 -95 351 -122 8 -8 10 -27
6 -54 -5 -37 -9 -43 -37 -48 -69 -14 -126 -37 -126 -51 0 -10 6 -13 18 -10 58
17 109 27 200 41 133 20 341 61 412 81 90 26 141 58 220 139 122 125 139 135
232 135 44 0 93 -6 111 -14z m871 -88 c-35 -56 -64 -105 -64 -109 0 -4 -34 -5
-75 -2 -81 6 -125 -10 -125 -46 0 -14 -10 -21 -35 -25 -34 -7 -58 -33 -53 -59
1 -6 -3 -22 -10 -35 -7 -12 -10 -28 -6 -34 4 -6 7 -26 6 -44 -1 -22 7 -43 24
-64 25 -29 25 -31 9 -56 -9 -14 -22 -27 -28 -28 -39 -11 -366 -57 -385 -54
-20 3 -6 29 158 303 99 165 187 302 196 303 16 4 404 49 436 51 12 1 0 -26
-48 -101z m-429 72 c4 -6 -75 -146 -174 -312 -99 -165 -182 -306 -185 -312 -3
-7 -8 -6 -15 4 -12 17 -20 1 198 368 86 144 159 262 163 262 4 0 10 -5 13 -10z
m1845 -28 c47 -19 80 -51 80 -77 0 -35 -8 -35 -67 1 -31 19 -62 34 -68 34 -6
0 -21 9 -34 21 -17 16 -20 24 -10 35 12 15 38 11 99 -14z m1568 3 c15 -8 40
-20 57 -26 l29 -10 -43 -20 c-52 -23 -50 -36 2 -14 48 20 70 19 98 -3 l22 -19
-42 -7 c-82 -13 -167 -126 -207 -274 -8 -31 -26 -133 -39 -227 -41 -294 -54
-377 -57 -380 -51 -39 -265 -174 -325 -204 -74 -37 -90 -41 -156 -41 -41 0
-96 -7 -123 -15 -27 -8 -49 -15 -50 -15 -1 0 -4 31 -8 69 -7 81 -1 108 21 90
29 -25 161 129 345 401 133 196 278 433 353 575 50 96 77 135 93 135 2 0 16
-7 30 -15z m-5278 -75 c0 -25 -11 -25 -41 0 l-24 19 33 1 c25 0 32 -4 32 -20z
m3684 -16 c91 -45 102 -65 66 -119 -11 -16 -20 -38 -20 -47 0 -18 -57 -54 -68
-43 -4 3 0 10 8 15 12 8 8 16 -22 46 -21 20 -38 40 -38 45 0 19 20 17 66 -6
26 -13 50 -22 52 -20 9 9 -30 56 -66 79 -46 29 -66 52 -57 66 9 15 22 13 79
-16z m948 -42 c12 -106 95 -148 230 -117 69 15 195 71 229 101 36 32 25 7 -57
-128 -198 -327 -430 -662 -517 -747 l-45 -43 -11 52 c-8 39 -8 131 -1 348 7
187 8 298 2 304 -6 6 -12 -33 -17 -109 -3 -65 -8 -122 -9 -128 -2 -5 -13 28
-25 75 l-21 85 5 -61 c2 -33 11 -87 20 -120 18 -67 11 -244 -8 -208 -31 60
-151 156 -225 182 l-50 17 124 205 c68 112 138 221 154 241 33 41 161 112 195
107 16 -2 21 -13 27 -56z m-2320 -8 c-4 -54 -4 -55 -23 -38 -10 9 -19 20 -19
23 0 7 38 71 42 71 2 0 1 -25 0 -56z m-732 -10 c22 -20 38 -39 36 -42 -7 -6
-68 33 -91 58 -33 37 11 24 55 -16z m3887 -6 c40 -42 80 -127 99 -215 16 -75
33 -282 34 -410 l0 -82 -74 34 c-106 48 -221 71 -291 58 -37 -6 -55 -6 -55 1
0 10 58 318 66 351 10 40 -18 -16 -38 -75 l-18 -55 6 45 c21 166 90 313 168
361 44 27 67 24 103 -13z m-2322 1 c11 -16 -25 -48 -87 -80 -83 -42 -76 -69
29 -110 48 -19 77 -23 170 -24 147 0 162 -15 48 -50 -30 -10 -82 -15 -130 -14
-44 1 -81 -2 -83 -7 -9 -25 137 -31 221 -9 65 17 107 19 107 6 0 -33 -127 -71
-240 -71 -49 0 -90 -4 -90 -9 0 -5 30 -13 66 -16 59 -7 116 0 194 21 22 7 23
6 12 -9 -23 -27 -101 -47 -189 -47 -46 0 -83 -4 -83 -9 0 -11 110 -23 147 -16
l28 5 -30 -14 c-58 -29 -133 -17 -323 47 l-122 41 -113 -18 c-61 -10 -152 -25
-202 -34 -90 -16 -396 -24 -410 -10 -14 14 16 48 43 48 15 1 37 6 48 13 31 17
94 96 94 117 0 10 7 23 15 30 8 7 18 30 21 51 4 22 12 39 18 39 6 0 67 -7 136
-15 144 -17 307 -19 344 -5 15 5 55 32 90 59 50 38 76 51 123 59 32 6 74 17
93 25 44 19 47 19 55 6z m-874 -57 c15 -39 -53 -200 -107 -256 -40 -41 -68
-45 -129 -17 -42 19 -82 57 -72 67 3 4 25 -1 49 -11 54 -22 117 -35 123 -25 3
5 -25 20 -63 34 -79 30 -112 51 -112 72 0 18 13 18 75 -2 68 -21 145 -33 150
-23 3 4 -3 10 -12 13 -186 53 -193 56 -193 84 0 15 25 15 183 -4 81 -10 73 9
-13 32 -90 23 -98 28 -80 48 11 14 29 16 104 12 77 -4 91 -8 97 -24z m-1290
-250 c-17 -32 -157 -187 -212 -235 -122 -108 -276 -196 -340 -197 -25 0 -27 3
-32 68 -4 37 -9 79 -12 93 -6 24 -3 26 54 42 74 21 267 104 426 185 66 34 121
61 123 61 1 1 -2 -7 -7 -17z m2575 -57 c-7 -26 -38 -47 -98 -63 -36 -10 -38
-9 -38 13 0 20 7 24 42 30 28 5 52 17 68 35 27 30 36 24 26 -15z m-1522 -1
c12 -5 8 -15 -21 -55 -53 -74 -119 -127 -179 -145 -68 -19 -84 -11 -100 52 -7
27 -12 50 -11 50 1 1 56 10 122 20 116 19 121 21 140 51 21 34 25 36 49 27z
m388 -135 c-53 -49 -107 -83 -120 -77 -4 2 -4 26 1 54 l8 52 67 10 c37 5 74
10 82 10 8 1 -9 -21 -38 -49z m-715 -34 c19 -93 17 -103 -27 -148 -22 -22 -43
-38 -45 -35 -3 3 2 24 10 48 8 23 15 47 15 53 0 20 -17 -7 -35 -56 -10 -26
-20 -45 -23 -43 -2 3 3 38 11 78 9 40 19 95 23 121 6 44 8 48 32 45 23 -3 28
-10 39 -63z m2526 -15 c54 -34 137 -108 137 -122 0 -5 -15 -32 -33 -61 -18
-29 -50 -84 -71 -123 -35 -67 -162 -232 -178 -233 -5 -1 -8 5 -8 12 -1 19 -91
112 -123 125 -23 10 -27 16 -21 35 19 63 81 180 128 242 30 38 63 89 75 113
12 23 27 42 34 42 7 0 34 -13 60 -30z m1200 -121 c54 -16 67 -23 63 -37 -27
-100 -64 -207 -87 -253 -36 -72 -87 -116 -202 -172 -100 -49 -126 -59 -292
-107 -77 -23 -119 -41 -140 -60 -61 -57 -190 -150 -208 -150 -15 0 -9 11 28
52 46 51 48 81 3 37 -61 -58 -138 -99 -138 -73 0 4 27 35 60 71 56 60 71 83
52 83 -4 0 -37 -29 -72 -65 -35 -36 -70 -65 -77 -65 -21 0 -14 32 15 71 15 20
42 55 60 79 17 24 30 45 28 47 -5 6 -69 -35 -120 -76 -45 -36 -62 -32 -41 9
14 28 122 130 137 130 4 0 8 5 8 10 0 16 -18 12 -61 -16 -38 -24 -69 -26 -69
-5 0 19 136 54 235 61 89 6 109 11 175 44 41 21 136 78 210 126 74 48 152 93
173 101 39 14 49 29 18 29 -17 0 -17 3 -3 74 l15 75 36 4 c54 6 118 -2 194
-24z m-279 -72 c-9 -37 -20 -67 -24 -67 -7 0 5 112 15 139 4 10 9 11 16 4 7
-7 5 -31 -7 -76z m409 19 c16 -12 16 -14 1 -20 -29 -11 -44 -6 -44 14 0 23 17
25 43 6z m-1159 -12 c12 -4 16 -20 16 -54 0 -27 5 -61 10 -76 8 -21 7 -31 -5
-44 -22 -24 -27 -67 -17 -137 5 -35 6 -63 2 -63 -4 0 -23 -11 -43 -24 -29 -20
-138 -49 -225 -59 -8 -1 -19 15 -26 35 -13 37 -13 37 38 95 80 90 110 132 155
216 67 126 64 123 95 111z m1131 -179 c6 -116 5 -138 -9 -160 -17 -25 -94 -80
-102 -72 -2 2 7 25 22 50 37 67 16 58 -29 -12 -43 -67 -57 -74 -182 -97 -135
-24 -139 -18 -25 39 125 62 171 96 209 157 24 36 63 135 87 218 2 6 8 12 13
12 5 0 12 -61 16 -135z m-1758 -17 c31 -29 29 -38 -7 -38 -27 0 -30 3 -30 30
0 36 6 37 37 8z m92 -4 c12 -15 21 -33 21 -41 0 -8 20 -33 45 -55 25 -22 59
-64 77 -92 17 -28 43 -63 57 -79 27 -30 19 -30 178 0 77 15 146 11 127 -6 -12
-10 -141 -31 -194 -31 -28 0 -39 -4 -34 -11 7 -11 88 -8 172 8 l34 6 -17 -32
c-27 -53 1 -94 47 -70 19 10 20 9 13 -7 -22 -52 -18 -70 19 -92 27 -16 36 -28
36 -47 0 -14 5 -46 11 -71 6 -25 10 -46 8 -48 -2 -2 -18 -7 -35 -10 -30 -7
-32 -5 -38 27 -4 20 -24 54 -45 78 l-39 44 -38 -19 c-22 -10 -70 -21 -107 -24
-78 -5 -83 -12 -96 -107 -6 -46 -8 -50 -38 -56 -18 -3 -43 -14 -57 -22 l-24
-16 0 90 c0 94 -14 129 -50 129 -13 0 -13 -2 0 -17 21 -24 31 -94 24 -157 -7
-50 -9 -53 -32 -48 -28 5 -28 10 -13 117 8 62 7 85 -5 129 -9 30 -16 71 -16
93 0 21 -5 56 -10 78 -6 28 -6 41 2 44 19 6 48 41 48 57 0 12 -7 10 -31 -10
-17 -14 -38 -26 -46 -26 -9 0 -32 -10 -51 -22 -48 -30 -84 -32 -116 -7 -36 28
-33 57 12 135 54 95 84 128 118 129 24 0 30 5 35 30 6 29 7 29 8 -7 1 -51 21
-49 21 2 0 22 -4 40 -10 40 -5 0 -10 5 -10 10 0 18 18 10 39 -16z m143 -98
c26 -28 48 -57 48 -63 0 -7 9 -27 20 -45 22 -36 25 -48 11 -48 -4 0 -29 31
-54 69 -25 38 -62 82 -82 98 -40 32 -47 58 -12 48 12 -4 43 -30 69 -59z m1466
-138 c-6 -22 -127 -75 -207 -91 -117 -24 -231 -32 -231 -15 0 27 17 33 95 36
99 4 198 24 273 56 68 28 75 30 70 14z m-1122 -390 c18 -35 18 -87 0 -94 -28
-11 -56 15 -56 51 0 18 -5 46 -10 61 -23 60 34 45 66 -18z m-101 22 c3 -6 -9
-25 -28 -43 -19 -17 -36 -38 -38 -45 -3 -8 -25 -16 -53 -19 l-49 -6 7 28 c4
15 10 40 13 56 5 26 9 28 57 32 28 2 59 4 68 5 9 1 20 -3 23 -8z m15 -70 c0
-15 -7 -20 -27 -20 -25 0 -26 0 -8 20 10 11 22 20 27 20 4 0 8 -9 8 -20z m313
-25 c36 -15 115 -97 99 -103 -24 -8 -60 18 -65 47 -5 25 -13 33 -37 37 -16 4
-35 13 -41 20 -15 18 -1 18 44 -1z m-766 -30 c-37 -38 -47 -43 -47 -21 0 17
47 56 67 56 8 0 0 -14 -20 -35z m610 4 c-31 -23 -49 -82 -42 -130 l5 -34 -16
34 c-10 23 -13 47 -9 69 7 38 45 82 71 82 13 0 10 -5 -9 -21z m-92 -19 c17 0
17 -2 5 -13 -8 -8 -50 -19 -94 -25 -77 -12 -79 -12 -108 13 -16 14 -28 26 -26
26 2 1 37 6 78 13 58 9 81 8 100 -1 14 -7 34 -13 45 -13z m186 13 c32 -19 45
-62 34 -111 -13 -60 -74 -87 -118 -52 -23 18 -27 29 -27 69 0 60 29 101 78
110 2 1 17 -7 33 -16z m-685 -20 c-10 -10 -19 5 -10 18 6 11 8 11 12 0 2 -7 1
-15 -2 -18z m751 -25 c-3 -8 -6 -5 -6 6 -1 11 2 17 5 13 3 -3 4 -12 1 -19z
m-581 -19 c-34 -40 -42 -74 -28 -123 l10 -41 -19 24 c-21 26 -25 81 -8 114 18
34 41 57 56 57 10 0 7 -9 -11 -31z m119 -2 c22 -18 27 -31 27 -69 0 -52 -15
-82 -49 -97 -36 -16 -57 -13 -81 12 -58 62 -21 175 60 177 9 0 29 -10 43 -23z
m-227 -2 c39 -9 43 -35 5 -35 -34 0 -133 32 -133 43 0 9 67 4 128 -8z m440
-17 c-3 -20 -12 -24 -75 -34 -78 -11 -83 -10 -83 17 0 13 14 19 58 27 95 16
104 15 100 -10z m-530 -17 c52 -20 62 -28 62 -47 l0 -24 -52 21 c-29 12 -61
24 -70 26 -11 3 -18 15 -18 30 0 14 3 23 8 21 4 -2 35 -14 70 -27z m1133 -25
c107 -5 169 -18 169 -37 0 -4 -12 -10 -27 -13 -81 -15 -116 -16 -174 -6 -100
18 -204 75 -116 65 17 -2 84 -6 148 -9z m-1021 -21 c0 -16 -6 -25 -15 -25 -9
0 -15 9 -15 25 0 16 6 25 15 25 9 0 15 -9 15 -25z"/>
<path d="M5280 4872 c0 -12 70 -66 76 -59 6 6 -33 44 -58 58 -11 6 -18 6 -18
1z"/>
<path d="M4801 3825 c-35 -40 -42 -68 -10 -39 30 27 62 74 51 74 -6 0 -24 -16
-41 -35z"/>
<path d="M3400 4364 c-48 -16 -90 -38 -95 -51 -4 -11 -1 -13 12 -8 60 23 131
34 180 29 55 -7 72 5 34 26 -20 10 -103 13 -131 4z"/>
<path d="M3404 4259 c-38 -11 -66 -39 -40 -39 10 0 26 5 37 10 16 9 19 7 19
-13 0 -14 7 -31 16 -38 14 -11 19 -10 35 9 10 13 15 30 12 39 -5 13 -3 14 15
4 18 -9 22 -9 22 2 0 15 -42 37 -68 36 -9 0 -31 -5 -48 -10z"/>
<path d="M3677 4257 c-12 -30 -8 -68 13 -142 25 -87 25 -81 -6 -112 -30 -29
-25 -41 11 -25 41 19 47 51 24 129 -11 37 -24 91 -27 118 -5 36 -10 45 -15 32z"/>
<path d="M3738 4249 c-22 -12 -24 -33 -3 -25 10 3 15 -1 15 -13 0 -10 7 -24
15 -31 19 -16 45 3 45 31 0 12 5 16 15 13 18 -7 20 7 3 24 -15 15 -66 15 -90
1z"/>
<path d="M2942 4228 c-7 -7 -11 -26 -11 -42 1 -23 3 -25 6 -9 2 12 11 27 19
34 12 10 19 9 36 -9 19 -19 20 -22 4 -37 -22 -22 -20 -68 4 -90 25 -23 39 -12
17 13 -21 23 -22 62 -2 62 8 0 15 -8 15 -17 0 -12 3 -14 11 -6 14 14 2 57 -27
88 -25 27 -53 32 -72 13z"/>
<path d="M3575 4000 c-10 -17 42 -16 60 1 5 5 -3 9 -22 9 -18 0 -35 -4 -38
-10z"/>
<path d="M3490 3868 c0 -16 119 -29 179 -20 86 13 54 27 -64 27 -63 0 -115 -3
-115 -7z"/>
<path d="M3560 3789 c0 -13 47 -22 75 -15 41 10 29 21 -25 22 -28 1 -50 -3
-50 -7z"/>
<path d="M5183 4289 c-49 -9 -106 -36 -98 -48 2 -5 24 -2 47 6 30 11 65 13
116 10 58 -4 72 -3 72 9 0 21 -74 34 -137 23z"/>
<path d="M5504 4265 c-21 -16 -21 -16 56 -19 30 -1 65 -6 78 -10 17 -7 21 -5
17 6 -14 36 -114 51 -151 23z"/>
<path d="M5153 4180 c-41 -25 -44 -46 -4 -25 28 14 30 14 33 -7 7 -48 68 -50
68 -2 0 22 3 24 14 15 9 -8 16 -8 20 -2 9 15 -35 41 -69 41 -16 0 -45 -9 -62
-20z"/>
<path d="M5444 4123 c3 -43 8 -96 12 -117 6 -36 4 -42 -22 -63 -27 -22 -28
-23 -7 -23 25 0 63 36 63 59 0 9 -7 38 -15 65 -8 27 -15 73 -15 103 0 32 -4
53 -11 53 -8 0 -9 -24 -5 -77z"/>
<path d="M5521 4178 c-26 -14 -42 -42 -19 -33 9 4 19 -4 26 -20 18 -39 62 -26
62 18 0 16 3 17 14 8 8 -7 17 -8 20 -3 16 27 -65 50 -103 30z"/>
<path d="M4784 4172 c-16 -10 -28 -52 -15 -52 6 0 11 6 11 14 0 23 20 30 38
12 13 -13 14 -19 3 -39 -16 -30 -11 -67 11 -81 23 -14 36 1 14 17 -20 14 -18
54 2 50 19 -4 14 32 -9 61 -21 27 -35 31 -55 18z"/>
<path d="M5342 3953 c-19 -8 -4 -23 24 -23 16 0 24 5 22 13 -5 13 -26 18 -46
10z"/>
<path d="M5205 3861 c-7 -12 39 -56 88 -83 19 -11 53 -18 84 -18 46 0 58 4 88
33 58 54 54 57 -85 61 -69 2 -135 7 -146 11 -13 4 -25 2 -29 -4z m171 -34 l85
-2 -26 -22 c-32 -28 -69 -29 -128 -4 -48 21 -77 49 -37 36 12 -4 60 -8 106 -8z"/>
<path d="M5325 3704 c20 -15 53 -18 79 -8 31 12 15 20 -41 20 -50 1 -54 0 -38
-12z"/>
<path d="M7130 3591 c-38 -12 -93 -42 -87 -47 3 -3 19 1 35 10 44 23 103 29
147 17 33 -9 37 -8 24 3 -18 18 -86 27 -119 17z"/>
<path d="M7427 3428 c37 -40 52 -68 69 -128 11 -39 12 -41 13 -15 1 17 -3 46
-9 65 -12 43 -65 110 -88 110 -12 0 -8 -8 15 -32z"/>
<path d="M7235 3275 c8 -38 41 -74 82 -91 38 -16 43 -17 43 -5 0 5 -16 15 -36
21 -25 9 -45 26 -66 59 -27 41 -29 42 -23 16z"/>
<path d="M3745 3345 c4 -11 9 -99 12 -195 5 -156 -4 -339 -24 -465 -11 -72 8
-29 23 51 32 175 28 559 -7 612 -9 15 -10 14 -4 -3z"/>
<path d="M3010 3322 c0 -15 186 -176 266 -230 81 -54 161 -92 194 -92 16 0 -4
14 -61 43 -47 23 -116 64 -154 92 -59 42 -97 73 -227 183 -11 9 -18 11 -18 4z"/>
<path d="M5606 3280 c-10 -74 -24 -164 -31 -200 -22 -113 -25 -136 -16 -120
28 47 76 328 69 410 -2 34 -8 12 -22 -90z"/>
<path d="M5687 3220 c-4 -96 -10 -197 -13 -225 -11 -87 7 -41 21 56 15 98 18
276 6 319 -4 14 -10 -51 -14 -150z"/>
<path d="M5010 3181 c0 -18 115 -104 177 -133 36 -17 74 -28 90 -26 23 3 16 7
-40 27 -42 14 -98 45 -147 82 -44 32 -80 55 -80 50z"/>
<path d="M4711 2810 c0 -79 4 -118 9 -105 5 11 9 58 9 105 0 47 -4 94 -9 105
-5 13 -9 -26 -9 -105z"/>
<path d="M4850 2554 c0 -51 71 -231 109 -274 24 -29 22 -22 -26 80 -17 36 -40
95 -52 133 -20 59 -31 81 -31 61z"/>
<path d="M5886 2975 c-3 -31 -8 -97 -11 -148 -4 -73 -3 -86 6 -62 11 31 26
265 17 265 -3 0 -8 -25 -12 -55z"/>
<path d="M6973 3038 c-39 -19 -26 -30 26 -23 27 4 66 2 91 -5 51 -14 61 -8 25
16 -32 21 -112 28 -142 12z"/>
<path d="M7421 2974 c-24 -31 -28 -64 -7 -64 22 0 28 -17 16 -40 -7 -13 -7
-20 -1 -20 6 0 15 9 21 20 11 21 0 55 -20 62 -6 2 -4 12 6 26 11 16 22 21 36
16 15 -4 19 -2 16 7 -8 25 -45 21 -67 -7z"/>
<path d="M6992 2938 c-16 -16 -15 -28 2 -28 7 0 16 -9 19 -21 8 -32 50 -22 57
13 4 22 8 25 20 18 8 -5 22 -10 30 -10 10 1 8 7 -9 20 -26 23 -100 27 -119 8z"/>
<path d="M6692 2918 c-17 -17 -15 -31 2 -25 10 4 16 -2 18 -16 2 -16 10 -22
28 -22 18 0 26 6 28 22 2 16 8 20 20 16 15 -6 14 -3 -2 15 -21 24 -74 30 -94
10z"/>
<path d="M6820 2884 c0 -23 -7 -58 -15 -78 -9 -20 -13 -47 -9 -60 6 -25 59
-55 72 -41 4 4 2 10 -4 12 -41 14 -47 29 -36 76 14 56 15 97 2 117 -7 11 -10
4 -10 -26z"/>
<path d="M7026 2676 c8 -20 -96 -49 -158 -44 -29 2 -47 -1 -45 -7 7 -20 121
-17 175 4 28 11 58 18 67 15 21 -8 19 9 -3 29 -23 21 -43 22 -36 3z"/>
<path d="M6937 2573 c-26 -2 -45 -8 -42 -14 9 -14 69 -11 91 6 10 8 15 14 9
13 -5 -1 -31 -3 -58 -5z"/>
<path d="M4925 2920 c0 -76 3 -104 10 -92 13 22 13 178 0 191 -7 7 -10 -26
-10 -99z"/>
<path d="M5550 2820 c20 -13 157 -13 165 0 4 6 -27 10 -87 10 -64 0 -88 -3
-78 -10z"/>
<path d="M5546 2697 c-43 -13 -63 -36 -53 -60 5 -14 24 -15 144 -11 76 3 144
8 151 10 21 6 9 47 -18 61 -31 16 -171 16 -224 0z m226 -25 c8 -8 -11 -11 -73
-10 -46 1 -109 -2 -139 -6 -64 -9 -60 7 5 23 50 13 192 8 207 -7z"/>
<path d="M7414 2133 c-207 -447 -267 -561 -396 -758 -46 -70 -51 -81 -23 -50
65 73 149 208 238 383 88 172 221 472 213 480 -3 2 -17 -22 -32 -55z"/>
<path d="M7452 2068 c-50 -128 -152 -542 -127 -517 2 3 32 110 65 239 34 129
68 255 76 279 21 62 11 62 -14 -1z"/>
<path d="M7172 2125 c-73 -45 -117 -53 -154 -25 -33 24 -43 24 -25 -1 16 -21
51 -39 76 -39 30 0 101 35 142 70 45 38 27 36 -39 -5z"/>
<path d="M6846 1963 c10 -79 26 -160 40 -212 27 -94 27 -46 0 73 -14 63 -26
126 -26 140 0 14 -4 27 -9 31 -6 3 -8 -10 -5 -32z"/>
<path d="M6510 1615 c13 -14 28 -25 33 -25 6 0 0 11 -13 25 -13 14 -28 25 -33
25 -6 0 0 -11 13 -25z"/>
<path d="M6066 1243 c-14 -20 -23 -39 -21 -42 3 -2 6 -2 8 0 2 2 15 21 30 42
16 20 23 37 18 37 -6 0 -22 -17 -35 -37z"/>
<path d="M6110 1234 c-9 -10 -10 -18 -2 -26 12 -12 32 -2 32 17 0 21 -16 26
-30 9z"/>
<path d="M5997 1134 c-4 -4 -7 -14 -7 -23 0 -11 3 -12 11 -4 6 6 10 16 7 23
-2 6 -7 8 -11 4z"/>
<path d="M6214 1077 c3 -10 13 -48 21 -84 17 -71 42 -133 56 -133 4 0 2 15 -6
34 -8 18 -22 63 -31 99 -9 36 -23 74 -31 84 -14 17 -14 17 -9 0z"/>
<path d="M6313 760 c0 -30 2 -43 4 -27 2 15 2 39 0 55 -2 15 -4 2 -4 -28z"/>
<path d="M6225 713 c-3 -21 -8 -47 -10 -57 -2 -10 0 -15 4 -10 9 10 24 104 16
104 -2 0 -7 -17 -10 -37z"/>
<path d="M6661 754 c0 -11 3 -14 6 -6 3 7 2 16 -1 19 -3 4 -6 -2 -5 -13z"/>
<path d="M6780 605 c-15 -18 -10 -45 12 -59 26 -16 53 14 44 48 -7 29 -36 35
-56 11z m35 -35 c-5 -8 -11 -8 -17 -2 -6 6 -7 16 -3 22 5 8 11 8 17 2 6 -6 7
-16 3 -22z"/>
<path d="M6370 541 c-15 -29 4 -63 33 -59 18 2 22 10 22 38 0 28 -4 36 -22 38
-14 2 -26 -4 -33 -17z m40 -26 c0 -8 -4 -15 -10 -15 -5 0 -10 7 -10 15 0 8 5
15 10 15 6 0 10 -7 10 -15z"/>
<path d="M3640 1928 c-124 -368 -313 -718 -517 -954 -138 -159 -294 -270 -397
-281 -51 -6 -53 -23 -3 -23 114 1 326 163 492 374 162 209 342 556 428 831 17
54 32 125 25 125 -2 0 -14 -33 -28 -72z"/>
<path d="M5075 1768 c-96 -147 -186 -259 -291 -364 -118 -119 -192 -168 -250
-169 -24 0 -44 -3 -44 -7 0 -11 36 -28 57 -28 114 0 429 332 578 608 49 90 20
68 -50 -40z"/>
<path d="M4895 1748 c-85 -84 -179 -154 -243 -179 l-47 -18 36 -1 c46 0 139
59 232 149 69 66 116 122 100 120 -4 -1 -39 -33 -78 -71z"/>
<path d="M5491 1728 c-71 -249 -164 -520 -241 -703 -53 -127 -153 -334 -186
-387 -14 -22 -23 -42 -21 -44 15 -16 173 285 251 478 86 215 189 536 210 661
9 50 2 47 -13 -5z"/>
<path d="M3706 1649 c-114 -405 -256 -705 -496 -1045 -97 -136 -75 -129 36 12
195 249 369 619 460 977 28 110 28 157 0 56z"/>
<path d="M5305 1678 c-22 -68 -172 -373 -237 -481 -122 -202 -285 -399 -399
-483 -59 -43 -58 -54 1 -24 90 46 275 257 390 445 89 145 272 546 256 562 -2
2 -7 -6 -11 -19z"/>
<path d="M7134 943 c-21 -38 -56 -97 -79 -133 -59 -94 -61 -97 -36 -75 29 25
103 144 135 218 14 31 24 57 22 57 -2 0 -21 -30 -42 -67z"/>
</g>
</svg>
