<?xml version="1.0" standalone="no"?>
<!DOCTYPE svg PUBLIC "-//W3C//DTD SVG 20010904//EN"
 "http://www.w3.org/TR/2001/REC-SVG-20010904/DTD/svg10.dtd">
<svg version="1.0" xmlns="http://www.w3.org/2000/svg"
 width="1024.000000pt" height="559.000000pt" viewBox="0 0 1024.000000 559.000000"
 preserveAspectRatio="xMidYMid meet">
<metadata>
Created by potrace 1.16, written by Peter Selinger 2001-2019
</metadata>
<g transform="translate(0.000000,559.000000) scale(0.100000,-0.100000)"
fill="#000000" stroke="none">
<path d="M5090 5147 c-28 -17 -49 -22 -107 -22 -79 0 -111 -15 -148 -72 -11
-17 -31 -33 -45 -36 -39 -8 -78 -44 -85 -77 -4 -18 -18 -37 -36 -47 -53 -32
-85 -135 -60 -198 5 -13 2 -30 -11 -50 -25 -42 -24 -118 4 -163 16 -26 21 -48
19 -87 -3 -65 18 -118 68 -170 25 -25 41 -54 45 -77 7 -38 54 -88 83 -88 14 0
15 -13 10 -100 -10 -158 -50 -222 -160 -254 -29 -8 -136 -56 -237 -107 -146
-72 -195 -102 -240 -145 -70 -67 -118 -165 -155 -314 -14 -58 -43 -179 -65
-270 -22 -91 -53 -216 -70 -278 -16 -62 -30 -125 -30 -140 0 -31 35 -70 86
-95 l31 -16 6 -133 c7 -138 27 -277 48 -338 21 -61 62 -94 170 -135 54 -20 99
-42 99 -47 0 -5 -24 -39 -54 -76 -77 -97 -96 -138 -96 -216 0 -35 8 -91 19
-125 l19 -60 -24 -52 c-60 -129 -65 -204 -24 -324 20 -58 20 -62 4 -226 -9
-92 -14 -174 -11 -184 14 -34 25 -2 32 92 4 54 10 118 14 143 l8 45 11 -30 c7
-16 16 -39 21 -50 9 -18 10 -17 10 7 1 14 -17 82 -40 150 -55 169 -59 209 -24
303 15 41 29 75 31 75 2 0 9 -20 15 -45 13 -50 29 -60 29 -17 0 29 -7 58 -39
169 -31 107 -28 172 10 243 17 32 41 67 53 79 l21 20 -9 -80 c-7 -54 -13 -76
-20 -69 -5 5 -14 10 -18 10 -13 0 -9 -17 8 -34 46 -47 187 11 330 135 47 40
48 41 103 34 31 -5 114 -15 184 -24 l128 -16 -53 -72 c-198 -267 -434 -473
-586 -513 -38 -10 -49 -9 -85 9 -50 25 -62 18 -24 -15 54 -46 158 -25 279 57
143 98 304 262 428 437 40 57 71 92 82 92 10 0 18 -7 18 -15 0 -24 39 -57 60
-50 12 4 27 -3 44 -20 14 -14 36 -25 49 -25 14 0 30 -6 36 -14 7 -8 28 -16 49
-19 119 -18 216 -59 276 -119 16 -15 39 -31 52 -34 13 -3 24 -14 24 -23 0 -27
-115 -358 -165 -476 -26 -60 -71 -161 -101 -224 -53 -109 -59 -131 -33 -116
15 10 126 240 178 370 l41 100 1 -180 c1 -99 5 -193 9 -210 4 -17 8 77 9 209
l1 239 36 111 c20 61 41 129 48 150 23 75 33 52 39 -96 15 -336 29 -577 36
-628 15 -96 12 114 -4 405 -8 143 -15 289 -15 325 l0 66 36 13 c19 7 40 23 46
36 6 13 19 26 29 28 10 3 23 17 29 32 6 15 12 26 14 24 2 -2 10 -191 16 -419
13 -461 20 -576 35 -574 6 1 9 28 7 65 -1 35 -7 246 -12 469 -11 440 -22 611
-46 735 -37 184 -121 296 -211 282 -42 -7 -34 9 13 29 49 21 95 17 148 -11 56
-30 58 -12 2 25 l-38 24 27 9 c40 14 109 -1 157 -33 54 -37 64 -28 17 15 -35
32 -128 63 -150 49 -5 -3 -9 -1 -9 4 0 17 88 52 131 52 101 0 227 -95 283
-213 57 -122 69 -247 86 -897 6 -212 15 -419 20 -460 5 -41 9 -79 10 -85 0 -5
4 -5 10 1 7 7 7 76 0 210 -5 109 -14 368 -20 574 -7 223 -17 417 -26 478 -14
99 -14 103 5 128 11 14 25 50 31 79 17 80 0 176 -71 406 l-40 131 31 34 c16
19 30 41 30 48 0 7 -33 92 -73 187 -41 96 -100 246 -132 334 -75 208 -111 277
-179 347 -31 32 -56 64 -56 71 0 22 -51 63 -113 90 -32 15 -72 38 -89 52 -16
14 -41 25 -54 25 -13 0 -42 12 -63 26 -43 28 -104 34 -153 15 -27 -10 -28 -9
-28 20 0 24 6 33 33 44 50 21 86 53 109 98 31 61 37 89 54 227 8 69 18 151 23
183 5 32 6 83 1 115 -4 31 -5 91 -2 132 4 64 9 80 33 108 32 36 38 86 17 125
-7 12 -11 48 -9 80 3 73 -24 121 -82 147 -26 12 -46 30 -56 51 -27 54 -63 74
-139 74 -51 1 -75 6 -102 23 -48 30 -122 30 -170 -1z m137 -15 c17 -9 42 -25
55 -34 19 -14 29 -15 65 -5 58 15 104 -7 133 -63 12 -24 32 -45 48 -51 63 -24
100 -89 82 -143 -8 -26 -7 -39 5 -62 17 -34 19 -67 5 -95 -17 -30 -28 -23 -35
24 -4 23 -14 55 -22 71 -9 18 -12 41 -8 62 3 21 2 34 -5 34 -5 0 -10 -4 -10
-10 0 -5 -11 -17 -24 -25 -19 -13 -28 -13 -50 -4 -27 13 -30 19 -41 82 -7 46
-34 52 -27 6 6 -38 -12 -73 -45 -88 -36 -17 -43 -14 -43 19 0 36 -39 80 -70
80 -16 0 -20 -6 -20 -30 0 -70 -87 -106 -134 -55 -30 33 -36 32 -36 -8 0 -43
-25 -77 -57 -77 -22 0 -25 4 -21 25 6 29 -8 34 -17 5 -9 -29 12 -60 41 -60 28
0 74 41 74 65 0 14 6 15 33 9 69 -16 122 6 133 54 12 54 13 55 30 41 10 -8 14
-26 12 -53 l-3 -41 44 -3 c33 -3 49 2 66 18 22 21 24 21 44 3 12 -10 38 -20
58 -23 34 -5 39 -9 56 -54 9 -27 20 -74 23 -105 l6 -56 -61 -1 c-64 0 -94 -15
-74 -35 9 -9 23 -9 57 0 24 6 52 8 60 5 18 -7 23 -64 6 -64 -5 0 -10 4 -10 9
0 5 -11 12 -24 15 -27 7 -86 -11 -86 -26 0 -5 6 -8 12 -6 7 3 18 -5 23 -16 14
-28 48 -27 55 1 9 39 32 9 42 -54 6 -41 3 -89 -8 -163 -21 -139 -21 -140 -44
-103 -18 29 -60 66 -67 59 -2 -2 9 -17 24 -33 69 -73 76 -99 49 -200 -30 -113
-82 -160 -189 -170 -80 -7 -138 10 -235 68 -85 52 -149 113 -172 164 -24 52
-44 195 -30 209 5 5 10 15 10 21 0 5 -4 4 -9 -4 -6 -9 -11 4 -16 40 -11 80
-42 155 -76 184 -93 77 -175 -43 -119 -173 22 -52 88 -122 114 -122 7 0 16
-10 20 -22 9 -36 7 -78 -4 -78 -21 0 -60 49 -60 75 0 17 -15 43 -44 73 -59 64
-66 80 -66 159 0 51 -5 75 -20 98 -26 39 -26 101 0 142 15 26 17 38 10 59 -26
67 0 145 59 180 17 10 31 26 31 35 0 42 41 79 88 79 12 0 24 11 32 31 27 63
131 101 192 68 16 -9 25 -6 47 15 48 46 90 55 138 28z m-432 -668 c29 -29 49
-79 61 -154 11 -67 11 -76 -4 -87 -24 -19 -38 -16 -78 19 -89 79 -101 238 -18
238 12 0 30 -7 39 -16z m79 -325 c13 -93 42 -154 102 -209 108 -98 239 -160
339 -160 l41 0 -7 -59 c-7 -65 1 -129 16 -121 6 3 8 22 7 43 l-4 38 40 -20
c45 -23 52 -36 52 -96 0 -41 -3 -46 -44 -70 -110 -64 -328 -55 -527 24 -103
40 -230 109 -236 127 -2 5 31 32 72 59 64 41 80 58 103 105 26 53 27 60 27
222 0 169 7 211 19 117z m657 -452 c45 -30 82 -100 104 -196 15 -67 17 -112
12 -332 -7 -358 -56 -675 -152 -975 -39 -125 -30 -127 13 -4 68 195 128 480
153 733 14 139 13 489 -1 567 -6 35 -20 87 -31 115 -23 60 -22 55 -5 55 8 0
27 -11 43 -24 15 -13 58 -37 95 -54 36 -16 73 -41 81 -53 52 -83 63 -896 17
-1299 -10 -84 -11 -86 -56 -127 -25 -24 -55 -43 -67 -43 -35 0 -108 -41 -120
-67 -11 -24 -14 -24 -67 -16 -74 11 -181 9 -260 -4 -36 -6 -66 -10 -67 -9 -2
2 11 31 28 67 71 147 192 474 214 579 13 60 -1 30 -48 -105 -52 -151 -90 -249
-155 -395 -63 -143 -68 -150 -101 -144 -30 6 -61 -16 -61 -42 0 -11 -6 -13
-22 -9 -43 13 -153 58 -162 65 -5 5 18 46 51 92 248 346 431 785 503 1204 31
182 24 400 -14 406 -6 0 -17 2 -25 2 -24 2 -23 24 1 29 48 9 66 6 99 -16z
m-908 -47 c-11 -40 216 -158 388 -201 60 -15 117 -21 199 -22 120 -1 173 10
223 45 l27 19 0 -54 c0 -66 -30 -235 -69 -387 -61 -242 -191 -545 -338 -790
-76 -127 -170 -260 -183 -260 -5 0 -20 5 -34 11 -48 22 -128 252 -161 464 -17
107 -24 139 -31 132 -8 -7 27 -222 51 -319 21 -83 37 -128 82 -236 4 -10 -5
-9 -33 4 -22 9 -86 36 -144 60 l-105 43 3 38 c4 65 11 83 32 83 10 0 21 3 24
8 2 4 7 77 10 163 3 94 13 195 25 255 25 125 34 240 23 279 -7 24 -10 9 -15
-71 -6 -104 -29 -255 -33 -219 -2 11 -8 70 -14 130 -13 120 -36 234 -52 250
-7 7 -8 1 -4 -18 23 -99 36 -273 36 -495 0 -219 -2 -244 -16 -238 -9 3 -28 9
-42 12 -49 11 -226 66 -327 101 -61 21 -129 37 -173 40 -60 5 -72 9 -68 22 40
142 103 393 141 566 48 215 99 324 186 399 36 30 367 205 391 206 3 0 4 -9 1
-20z m1351 -290 c27 -42 68 -141 131 -313 25 -71 77 -203 116 -293 53 -125 67
-169 60 -182 -13 -25 -86 -91 -158 -144 -64 -47 -210 -124 -219 -115 -10 9 16
329 32 397 16 69 45 302 39 308 -6 6 -13 -30 -30 -147 -9 -58 -17 -106 -19
-108 -1 -2 -6 115 -9 259 -4 145 -9 301 -13 348 l-5 85 26 -30 c15 -16 37 -46
49 -65z m299 -1007 c55 -180 68 -237 69 -318 0 -69 -15 -135 -31 -135 -4 0
-20 27 -36 59 -37 78 -122 164 -191 192 -30 13 -54 26 -54 30 0 5 17 11 38 14
72 12 83 16 76 27 -10 15 -95 3 -143 -21 -53 -27 -69 -26 -81 4 -26 69 -27 67
62 108 46 21 119 64 163 96 44 33 82 60 86 60 3 1 21 -52 42 -116z m-2283 62
l0 -35 -40 26 c-22 15 -40 31 -40 35 0 5 18 9 40 9 39 0 40 -1 40 -35z m158
-11 c59 -20 157 -51 217 -69 l110 -33 -3 -53 c-5 -88 -7 -91 -57 -83 -48 7
-77 -2 -54 -17 8 -5 28 -9 45 -9 49 0 169 -43 365 -130 181 -81 371 -151 442
-164 l37 -7 -63 -62 c-41 -41 -71 -81 -87 -119 -14 -32 -30 -58 -37 -58 -29 0
-291 33 -397 50 -145 25 -212 41 -336 85 -237 82 -248 91 -274 204 -31 135
-49 501 -25 501 5 0 58 -16 117 -36z m1744 -236 c-9 -9 -12 -7 -12 12 0 19 3
21 12 12 9 -9 9 -15 0 -24z m-354 -219 c49 -9 78 -9 119 1 52 11 55 11 88 -14
35 -27 88 -125 100 -183 6 -29 4 -33 -20 -39 -15 -4 -54 -30 -86 -59 -32 -28
-117 -88 -189 -133 -104 -65 -138 -82 -168 -82 l-37 1 35 27 c57 44 135 120
129 126 -5 6 -20 -4 -129 -86 -60 -47 -102 -60 -116 -37 -4 6 33 50 85 103 50
50 91 95 91 99 0 19 -25 0 -119 -88 -56 -52 -108 -95 -116 -95 -8 0 -19 8 -24
18 -15 28 14 76 101 165 71 72 89 97 72 97 -16 0 -157 -138 -185 -181 -24 -38
-37 -49 -53 -47 -26 4 -24 27 6 96 24 54 169 208 235 250 24 15 43 31 43 35 0
14 -42 -3 -87 -33 -41 -28 -42 -28 -98 -15 -88 20 -119 68 -37 59 20 -3 71 1
112 9 96 18 167 20 248 6z m-1109 -306 c-5 -13 -9 -41 -8 -61 1 -35 1 -34 13
16 8 29 16 55 19 58 7 7 118 -16 131 -27 21 -18 -211 -169 -260 -169 -24 0
-24 -8 1 141 l16 97 49 -16 c45 -14 48 -17 39 -39z m1431 35 c0 -7 3 -24 7
-38 l6 -25 -32 29 c-22 22 -28 32 -19 38 19 12 38 10 38 -4z m-23 -73 c38 -40
43 -51 43 -90 0 -25 -2 -45 -4 -45 -2 0 -23 26 -47 57 -53 70 -66 52 -15 -21
40 -58 45 -90 18 -105 -16 -8 -25 -2 -55 40 -21 27 -42 49 -47 49 -15 0 -13
-6 25 -64 36 -53 38 -79 8 -91 -11 -4 -30 10 -59 42 -41 47 -73 55 -40 11 9
-13 23 -33 32 -45 9 -12 13 -27 9 -33 -9 -15 -78 -12 -101 5 -18 13 -18 14 6
8 44 -10 2 23 -60 47 -30 12 -65 28 -78 36 -25 16 -25 16 193 152 28 17 64 45
80 62 16 16 33 30 39 30 5 0 29 -20 53 -45z"/>
<path d="M4926 4704 c17 -42 8 -83 -27 -121 -16 -17 -20 -29 -14 -50 14 -58
17 -101 6 -107 -21 -13 -11 -27 10 -15 20 10 21 17 16 80 -5 64 -4 71 19 96
28 31 33 96 8 131 -24 34 -35 26 -18 -14z"/>
<path d="M5351 4598 c0 -9 -4 -25 -7 -35 -5 -14 -4 -15 5 -7 7 7 11 22 8 35
-2 13 -5 16 -6 7z"/>
<path d="M5095 4576 c-34 -15 -74 -55 -43 -43 64 24 104 28 163 18 65 -12 99
-7 92 12 -9 27 -160 36 -212 13z"/>
<path d="M5390 4520 c0 -8 14 -68 32 -133 39 -145 36 -152 -61 -141 -53 6 -61
9 -61 27 0 15 -3 18 -11 10 -26 -26 -5 -46 60 -59 54 -11 68 -11 92 2 39 20
38 59 -2 189 -30 96 -49 136 -49 105z"/>
<path d="M5153 4507 c-36 -13 -60 -33 -51 -43 4 -3 18 2 32 11 25 17 26 16 36
-9 12 -34 47 -35 56 -2 4 18 11 23 27 19 22 -4 22 -4 -2 16 -26 23 -50 25 -98
8z"/>
<path d="M4916 4350 c7 -51 49 -154 72 -172 9 -8 7 3 -8 32 -13 25 -34 77 -47
115 -20 62 -22 65 -17 25z"/>
<path d="M4990 4324 c0 -14 51 -86 57 -81 2 3 -9 24 -26 48 -17 23 -31 38 -31
33z"/>
<path d="M4912 4180 c0 -14 2 -19 5 -12 2 6 2 18 0 25 -3 6 -5 1 -5 -13z"/>
<path d="M5198 4157 c-44 -34 -73 -78 -65 -100 2 -7 11 4 20 24 8 20 27 45 41
55 54 38 71 53 59 54 -6 0 -31 -15 -55 -33z"/>
<path d="M5396 4165 c4 -8 8 -15 10 -15 2 0 4 7 4 15 0 8 -4 15 -10 15 -5 0
-7 -7 -4 -15z"/>
<path d="M5426 4167 c3 -10 9 -15 12 -12 3 3 0 11 -7 18 -10 9 -11 8 -5 -6z"/>
<path d="M5280 4155 c0 -8 2 -15 4 -15 2 0 6 7 10 15 3 8 1 15 -4 15 -6 0 -10
-7 -10 -15z"/>
<path d="M5031 4134 c0 -11 3 -14 6 -6 3 7 2 16 -1 19 -3 4 -6 -2 -5 -13z"/>
<path d="M4932 4120 c0 -14 2 -19 5 -12 2 6 2 18 0 25 -3 6 -5 1 -5 -13z"/>
<path d="M5091 4093 c-1 -12 4 -25 9 -28 12 -7 12 2 0 30 -8 19 -9 19 -9 -2z"/>
<path d="M5253 4100 c-13 -5 -23 -11 -23 -12 0 -2 54 -3 120 -3 113 0 141 5
104 19 -24 9 -176 6 -201 -4z"/>
<path d="M5491 4067 c-2 -77 -53 -128 -80 -80 -5 10 -12 15 -15 12 -3 -3 2
-15 10 -28 25 -34 55 -24 83 30 21 40 23 51 14 80 l-11 34 -1 -48z"/>
<path d="M4952 4065 c0 -16 2 -22 5 -12 2 9 2 23 0 30 -3 6 -5 -1 -5 -18z"/>
<path d="M5183 4034 c2 -25 10 -51 17 -57 10 -10 11 -7 6 13 -3 14 -6 40 -6
58 0 17 -5 32 -11 32 -8 0 -10 -15 -6 -46z"/>
<path d="M4982 4025 c0 -16 2 -22 5 -12 2 9 2 23 0 30 -3 6 -5 -1 -5 -18z"/>
<path d="M5310 4030 c0 -5 22 -10 49 -10 28 0 53 5 56 10 4 6 -15 10 -49 10
-31 0 -56 -4 -56 -10z"/>
<path d="M5311 3982 c-13 -24 -59 -30 -79 -10 -9 9 -12 9 -12 0 0 -14 32 -32
58 -32 23 0 56 34 50 52 -3 8 -9 5 -17 -10z"/>
<path d="M5371 3984 c0 -11 3 -14 6 -6 3 7 2 16 -1 19 -3 4 -6 -2 -5 -13z"/>
<path d="M5050 3965 c0 -5 5 -17 10 -25 5 -8 10 -10 10 -5 0 6 -5 17 -10 25
-5 8 -10 11 -10 5z"/>
<path d="M5091 3945 c0 -11 4 -27 9 -35 9 -13 10 -13 9 0 0 8 -4 24 -9 35 l-9
20 0 -20z"/>
<path d="M5142 3905 c0 -16 2 -22 5 -12 2 9 2 23 0 30 -3 6 -5 -1 -5 -18z"/>
<path d="M5481 3914 c0 -11 3 -14 6 -6 3 7 2 16 -1 19 -3 4 -6 -2 -5 -13z"/>
<path d="M5181 3884 c0 -11 3 -14 6 -6 3 7 2 16 -1 19 -3 4 -6 -2 -5 -13z"/>
<path d="M5441 3884 c0 -11 3 -14 6 -6 3 7 2 16 -1 19 -3 4 -6 -2 -5 -13z"/>
<path d="M5220 3865 c0 -8 4 -15 10 -15 5 0 7 7 4 15 -4 8 -8 15 -10 15 -2 0
-4 -7 -4 -15z"/>
<path d="M5276 3862 c-4 -13 -5 -26 -2 -29 10 -11 18 4 14 29 l-4 23 -8 -23z"/>
<path d="M5371 3864 c0 -11 3 -14 6 -6 3 7 2 16 -1 19 -3 4 -6 -2 -5 -13z"/>
<path d="M5411 3864 c0 -11 3 -14 6 -6 3 7 2 16 -1 19 -3 4 -6 -2 -5 -13z"/>
<path d="M5322 3850 c0 -14 2 -19 5 -12 2 6 2 18 0 25 -3 6 -5 1 -5 -13z"/>
<path d="M4738 4439 c-10 -5 -18 -17 -18 -24 0 -20 16 -19 24 1 6 15 8 15 25
0 22 -20 33 -54 20 -62 -15 -9 -10 -40 9 -57 24 -22 37 -9 15 15 -13 14 -14
21 -5 30 19 19 14 44 -14 77 -28 34 -31 35 -56 20z"/>
<path d="M5726 3455 c3 -22 10 -65 14 -95 9 -53 9 -52 5 17 -3 39 -9 82 -15
95 -7 18 -8 15 -4 -17z"/>
<path d="M5762 2890 c-13 -218 -37 -446 -67 -610 -25 -139 -28 -165 -21 -159
12 11 54 230 76 394 19 144 41 595 28 595 -2 0 -10 -99 -16 -220z"/>
<path d="M4700 3486 c0 -9 148 -122 208 -159 69 -42 188 -87 225 -87 12 1 -20
16 -72 35 -92 34 -176 82 -294 171 -54 42 -67 49 -67 40z"/>
<path d="M4640 3466 c0 -18 102 -199 161 -287 69 -103 184 -242 260 -314 l52
-50 -64 78 c-154 187 -193 237 -256 331 -37 56 -87 135 -110 176 -24 41 -43
70 -43 66z"/>
<path d="M5335 3244 c-56 -57 -82 -75 -130 -92 -51 -17 -55 -21 -29 -21 46 -1
99 24 150 71 40 37 91 106 83 111 -2 1 -35 -30 -74 -69z"/>
<path d="M4871 2449 c-2 -48 73 -298 85 -286 3 3 -5 36 -17 73 -12 38 -33 107
-45 154 -12 47 -23 73 -23 59z"/>
<path d="M6107 1888 c56 -138 83 -289 108 -608 19 -225 34 -321 28 -170 -11
291 -42 548 -79 670 -16 53 -70 170 -78 170 -3 0 7 -28 21 -62z"/>
<path d="M5961 1830 c-1 -3 4 -21 9 -40 36 -119 60 -291 85 -590 21 -257 54
-577 64 -632 l9 -43 1 40 c0 22 -6 110 -14 195 -9 85 -26 283 -40 440 -24 279
-40 395 -69 510 -14 53 -43 132 -45 120z"/>
<path d="M4715 1398 c-90 -80 -186 -144 -261 -176 -57 -24 -94 -28 -139 -18
-28 7 -29 7 -11 -8 69 -55 266 37 426 198 41 42 72 76 70 76 -3 -1 -41 -33
-85 -72z"/>
<path d="M5385 1203 c-76 -178 -252 -527 -339 -671 -69 -114 -85 -158 -29 -79
124 172 349 617 417 825 33 99 9 63 -49 -75z"/>
<path d="M5066 1237 c-137 -220 -303 -414 -438 -510 -36 -26 -113 -70 -170
-97 -115 -55 -109 -68 9 -18 184 76 355 230 519 468 57 84 141 230 131 230 -3
0 -26 -33 -51 -73z"/>
</g>
</svg>
