<?xml version="1.0" standalone="no"?>
<!DOCTYPE svg PUBLIC "-//W3C//DTD SVG 20010904//EN"
 "http://www.w3.org/TR/2001/REC-SVG-20010904/DTD/svg10.dtd">
<svg version="1.0" xmlns="http://www.w3.org/2000/svg"
 width="1024.000000pt" height="559.000000pt" viewBox="0 0 1024.000000 559.000000"
 preserveAspectRatio="xMidYMid meet">
<metadata>
Created by potrace 1.16, written by Peter Selinger 2001-2019
</metadata>
<g transform="translate(0.000000,559.000000) scale(0.100000,-0.100000)"
fill="#000000" stroke="none">
<path d="M5026 5154 c-192 -46 -349 -203 -371 -370 -7 -49 -9 -52 -45 -63 -56
-17 -107 -78 -115 -138 -3 -26 -10 -67 -16 -91 -17 -75 3 -138 63 -203 18 -20
41 -50 50 -68 28 -52 142 -90 187 -62 8 5 29 2 53 -8 l40 -16 -5 -65 c-5 -75
-37 -157 -75 -193 -23 -21 -39 -26 -98 -29 -57 -3 -80 -9 -112 -31 -23 -15
-55 -27 -72 -27 -37 0 -90 -21 -108 -42 -7 -9 -40 -26 -74 -39 -134 -50 -238
-216 -283 -455 -38 -194 -78 -680 -105 -1244 -6 -118 -12 -244 -15 -280 -3
-36 -12 -213 -20 -395 -9 -181 -22 -413 -30 -515 -28 -358 -28 -360 -18 -360
13 0 19 31 32 165 20 199 31 354 41 580 41 939 77 1502 116 1855 39 344 138
562 280 616 44 17 165 16 207 -1 9 -4 17 -3 17 2 0 15 -67 43 -103 43 l-32 1
24 19 c28 24 84 26 135 5 22 -9 36 -11 36 -5 0 6 -7 13 -15 16 -8 4 -15 10
-15 15 0 19 66 49 105 48 38 0 39 -1 15 -12 -35 -16 -39 -25 -38 -86 1 -47 -2
-57 -26 -77 -31 -27 -93 -32 -185 -14 -35 6 -68 6 -101 -1 -54 -12 -130 -61
-130 -84 0 -9 -11 -32 -25 -53 -58 -88 -85 -221 -85 -420 0 -81 -5 -232 -10
-337 -12 -231 -40 -1153 -39 -1250 l2 -70 7 60 c13 94 50 1046 50 1274 0 30 2
52 4 50 3 -2 17 -76 31 -164 47 -284 113 -534 164 -620 l20 -34 -39 -95 c-21
-52 -45 -114 -51 -138 -7 -24 -32 -65 -55 -91 -24 -27 -55 -72 -69 -101 -25
-51 -26 -61 -24 -187 3 -130 2 -136 -26 -194 -26 -53 -29 -71 -30 -155 0 -74
5 -110 23 -163 22 -64 23 -73 12 -150 -13 -92 -10 -312 4 -312 6 0 11 59 13
135 1 74 6 148 11 164 l8 29 14 -42 c13 -41 30 -55 30 -24 0 9 -19 73 -42 142
-36 110 -42 137 -42 216 0 74 5 102 26 155 l26 65 11 -45 c32 -122 41 -53 11
80 -37 167 -24 259 50 350 l21 25 -6 -40 c-11 -72 -15 -85 -28 -82 -20 4 -9
-46 15 -64 53 -41 168 -30 287 26 88 42 154 89 237 167 l61 58 121 -47 c67
-27 122 -52 122 -56 0 -13 -116 -174 -177 -243 -201 -233 -384 -361 -532 -372
-89 -6 -137 3 -167 33 -21 21 -24 22 -24 6 0 -64 151 -92 283 -51 172 53 412
270 587 530 33 50 62 90 65 90 2 0 53 -19 112 -41 95 -37 115 -48 165 -100
l58 -58 -14 -38 c-80 -227 -275 -597 -410 -778 -92 -123 -102 -145 -36 -75
142 150 310 447 464 824 l16 39 58 -54 c31 -30 70 -64 85 -75 l29 -20 -55
-165 c-56 -167 -142 -380 -202 -499 -38 -76 -50 -110 -38 -110 14 0 68 98 127
230 l56 125 0 -160 c0 -88 5 -167 10 -175 6 -10 10 60 12 200 l4 215 52 145
c28 80 52 153 52 163 0 22 4 22 51 -5 36 -20 39 -25 39 -63 0 -62 20 -398 30
-500 6 -63 8 -12 4 175 -2 146 -7 286 -10 312 l-6 47 56 -6 c38 -4 60 -2 71 7
9 7 17 11 19 9 2 -2 9 -80 16 -174 7 -93 15 -206 19 -250 5 -65 2 -101 -17
-188 -13 -60 -21 -111 -18 -114 14 -14 27 20 56 145 92 400 109 430 291 526
50 27 106 62 125 78 30 27 34 35 34 82 0 65 -12 82 -80 109 -47 19 -58 29 -78
68 -32 65 -40 171 -18 235 10 27 20 87 22 132 2 46 8 91 14 100 8 15 9 15 10
-3 0 -11 11 -40 25 -64 14 -23 25 -56 25 -73 0 -33 25 -88 41 -88 6 0 19 5 30
11 15 7 24 7 35 -2 30 -25 7 -133 -32 -151 -33 -15 -30 -30 4 -27 22 3 35 -4
58 -31 17 -19 35 -46 41 -60 7 -18 30 -33 80 -53 77 -29 98 -32 137 -17 l26
10 0 -63 c0 -69 18 -107 51 -107 11 0 23 -10 29 -24 8 -22 36 -39 56 -35 5 1
16 0 24 -4 8 -3 32 -8 52 -11 71 -9 85 35 43 126 -14 29 -25 59 -25 66 0 7
-11 28 -25 46 -14 18 -25 40 -25 49 0 8 -12 30 -26 47 l-27 31 40 42 c57 59
66 80 76 187 16 165 13 205 -19 252 -16 23 -40 62 -54 87 -34 62 -97 108 -157
116 -27 3 -65 15 -85 25 -55 30 -118 35 -175 17 -26 -9 -64 -19 -84 -22 -21
-3 -49 -15 -64 -27 -30 -24 -28 -26 -92 63 -26 37 -67 92 -91 122 -37 48 -46
69 -63 149 -27 132 -84 441 -108 588 -12 69 -31 163 -44 210 -37 134 -77 206
-192 347 -31 38 -97 78 -145 88 -19 4 -48 18 -63 31 -35 29 -87 39 -128 25
-46 -16 -49 -15 -49 23 0 30 4 36 35 46 69 23 165 162 215 309 13 40 23 102
27 166 6 98 7 102 34 117 37 22 63 63 65 107 1 20 9 53 18 73 21 49 20 85 -4
133 -11 22 -20 52 -20 67 0 16 -6 43 -14 61 -14 35 -69 87 -91 87 -7 0 -21 12
-31 27 -28 44 -82 90 -132 114 -34 17 -67 23 -131 25 -47 1 -104 7 -126 13
-52 14 -87 13 -159 -5z m262 -34 c86 1 157 -25 213 -77 53 -49 57 -61 15 -42
-20 9 -32 9 -51 1 -37 -17 -31 -27 18 -28 62 -2 134 -27 164 -56 19 -20 27
-40 31 -80 3 -30 13 -63 23 -77 24 -30 24 -82 0 -129 -11 -22 -17 -49 -14 -67
4 -30 -26 -85 -47 -85 -12 0 -12 168 0 175 17 11 11 20 -20 32 -16 6 -38 26
-49 44 -29 50 -39 59 -66 59 -13 0 -37 12 -54 26 -25 20 -31 34 -31 64 0 24
-8 47 -20 61 l-21 24 7 -35 c11 -55 6 -82 -23 -112 -23 -24 -34 -28 -85 -28
-57 0 -58 -1 -77 -38 -22 -42 -55 -62 -106 -62 -31 0 -35 -3 -45 -40 -12 -43
-18 -51 -67 -80 -25 -15 -33 -27 -33 -48 0 -35 -23 -68 -60 -87 -40 -21 -83
-19 -130 5 -34 17 -40 18 -40 5 0 -8 5 -15 10 -15 6 0 10 -9 10 -20 0 -19 -1
-19 -26 3 -71 61 -88 204 -28 240 8 4 14 14 14 22 0 21 55 62 93 69 31 6 35
11 41 46 7 47 36 70 88 70 33 0 39 4 51 33 22 50 40 61 98 54 48 -6 53 -4 81
25 30 32 49 34 128 12 24 -6 24 -6 8 11 -10 10 -37 20 -65 22 -42 4 -53 1 -79
-20 -25 -21 -37 -24 -77 -20 -56 7 -92 -13 -112 -60 -11 -26 -19 -32 -49 -34
-54 -3 -75 -19 -88 -68 -11 -40 -15 -45 -41 -45 -20 0 -40 -11 -64 -35 -19
-19 -36 -35 -37 -35 -11 0 19 135 39 175 34 71 118 161 179 192 108 55 144 64
246 58 52 -3 119 -5 148 -5z m143 -320 c8 -12 32 -27 54 -34 27 -10 46 -25 58
-48 10 -18 27 -40 38 -48 13 -11 21 -34 26 -79 6 -61 5 -64 -13 -57 -38 15
-82 18 -103 7 -31 -17 -17 -30 27 -24 20 2 49 0 64 -6 24 -9 26 -12 17 -48 -5
-21 -9 -72 -9 -113 0 -93 -26 -188 -81 -298 -51 -100 -104 -158 -154 -168
-102 -19 -206 26 -317 138 -84 83 -104 82 -37 -2 60 -76 219 -170 289 -170 17
0 18 -6 13 -90 -4 -64 -3 -90 6 -90 6 0 11 15 11 33 0 19 3 36 6 40 3 3 29 -9
57 -27 68 -44 77 -74 35 -122 -54 -62 -98 -77 -202 -72 -103 6 -193 32 -385
111 -124 52 -142 66 -141 115 1 10 28 35 63 57 109 72 151 174 145 355 -3 86
-5 95 -21 92 -29 -5 -67 26 -88 71 -28 63 -26 79 14 75 27 -2 32 -7 30 -26 -3
-25 13 -62 26 -62 5 0 6 20 4 44 -5 42 -4 44 25 50 44 10 92 69 92 115 0 12 4
21 10 21 23 0 78 62 84 95 7 33 9 35 49 35 47 0 78 20 101 64 14 27 20 29 70
30 47 1 60 5 83 29 33 32 37 33 54 7z m-781 -114 c0 -7 -7 -31 -16 -52 -36
-85 6 -221 76 -247 20 -8 34 -24 45 -54 21 -56 58 -99 90 -107 18 -5 25 -13
25 -31 0 -30 -6 -31 -47 -5 -35 21 -93 94 -93 117 0 7 -4 13 -10 13 -5 0 -10
-6 -10 -12 1 -20 36 -95 49 -102 22 -14 10 -26 -24 -26 -42 0 -105 30 -122 58
-10 17 -9 19 7 15 10 -3 26 0 36 5 15 9 12 12 -23 21 -83 23 -123 76 -123 167
0 59 24 114 58 133 9 5 14 13 10 17 -4 4 -19 -1 -34 -10 -26 -18 -26 -17 -19
6 12 38 34 68 68 88 38 23 57 25 57 6z m825 -930 c99 -42 143 -260 133 -656
-4 -131 -3 -184 4 -160 5 19 12 132 15 250 6 226 -10 399 -43 478 -8 19 -13
37 -11 39 16 15 130 -65 152 -107 9 -17 20 -79 26 -138 6 -59 26 -226 45 -371
40 -311 43 -446 14 -696 -26 -236 -84 -622 -93 -632 -2 -1 -19 2 -38 7 -18 6
-47 10 -63 10 -24 0 -28 3 -23 23 46 216 80 402 97 530 34 253 15 236 -25 -23
-32 -205 -83 -455 -105 -507 -9 -21 -17 -23 -74 -23 -76 0 -96 7 -198 66 l-78
46 22 41 c24 47 89 217 123 322 132 403 197 954 150 1266 -19 123 -52 212 -80
217 -11 2 -27 5 -35 8 -13 4 -13 6 0 14 21 14 45 12 85 -4z m-680 -141 c174
-76 308 -116 411 -122 107 -7 150 5 205 54 l39 35 0 -44 c0 -290 -153 -756
-345 -1054 l-53 -81 -58 -6 c-33 -3 -63 -2 -68 3 -5 5 -24 54 -42 107 -24 72
-33 90 -33 66 -1 -27 22 -113 44 -166 7 -16 4 -17 -21 -11 -40 9 -69 46 -106
136 -17 43 -34 76 -36 73 -9 -9 20 -102 49 -152 l29 -52 -33 5 c-46 9 -107 24
-107 28 0 28 -32 317 -37 331 -4 11 -7 117 -8 235 -1 128 -6 235 -14 265 -24
102 -55 192 -87 257 -19 37 -34 69 -34 70 0 2 22 1 49 0 44 -3 50 -7 65 -40
27 -56 236 -433 264 -475 37 -56 38 -38 1 34 -46 93 -228 419 -250 451 -24 33
-24 35 6 42 13 3 32 17 42 31 10 13 19 25 21 25 2 0 50 -20 107 -45z m-354
-15 c58 -32 161 -351 158 -495 0 -38 -1 -39 -11 -15 -21 47 -20 -5 1 -188 12
-97 24 -197 26 -222 3 -25 12 -126 19 -225 8 -99 17 -187 20 -195 4 -8 62 -52
129 -98 67 -46 170 -120 229 -165 133 -103 296 -204 365 -228 38 -14 81 -19
156 -19 105 0 136 -6 216 -42 25 -11 74 -29 110 -40 78 -24 77 -23 61 -43 -16
-20 -75 -19 -150 2 -41 11 -66 13 -81 7 -20 -9 -19 -11 14 -55 47 -60 128
-121 244 -183 90 -47 126 -77 111 -91 -12 -12 -196 56 -271 101 -75 44 -104
52 -77 19 23 -28 128 -85 208 -114 93 -34 114 -44 132 -66 21 -25 5 -29 -62
-15 -97 20 -164 46 -249 95 -43 25 -83 45 -89 45 -26 0 -4 -21 63 -64 73 -45
141 -74 227 -97 67 -18 21 -24 -69 -8 -52 9 -103 27 -168 61 -103 52 -103 52
-103 38 0 -16 106 -82 163 -101 40 -14 46 -18 25 -19 -86 -1 -204 77 -368 240
l-125 126 -230 88 c-263 101 -379 153 -503 227 -108 65 -179 120 -210 163 -35
50 -106 275 -132 421 -40 226 -51 298 -66 420 -11 97 -15 182 -11 275 7 202
42 306 133 397 62 62 122 85 165 63z m1392 -163 c47 -94 68 -178 113 -437 20
-118 53 -299 74 -402 42 -207 44 -212 160 -363 38 -49 70 -94 70 -99 0 -6 -9
-19 -20 -31 -30 -32 -40 -75 -25 -117 8 -25 9 -41 2 -54 -6 -10 -14 -61 -18
-112 -4 -51 -9 -96 -13 -99 -7 -8 -171 151 -252 246 -35 41 -75 97 -89 125
l-24 51 21 155 c32 239 30 555 -5 795 -15 99 -32 230 -37 292 -5 61 -13 119
-17 130 -6 15 -4 16 9 5 9 -7 32 -45 51 -85z m-340 -64 c13 -202 -31 -583
-104 -900 -23 -102 -122 -392 -162 -476 l-42 -88 -68 47 c-59 42 -65 50 -55
64 65 87 147 217 184 291 49 96 57 146 9 58 -80 -149 -207 -339 -227 -339 -5
0 -45 28 -89 61 l-79 62 67 61 c115 105 255 311 343 502 99 216 184 511 197
682 3 39 9 72 13 72 4 0 10 -44 13 -97z m-728 -994 c22 -4 89 -8 148 -9 105 0
107 -1 97 -20 -10 -19 -18 -20 -118 -15 -138 7 -216 24 -220 49 -3 16 0 18 25
11 15 -4 46 -11 68 -16z m-18 -59 c1 0 -1 -16 -4 -37 -7 -45 12 -38 22 8 5 21
11 29 22 25 8 -3 26 -6 39 -6 23 0 24 -2 18 -55 -4 -35 -3 -55 3 -55 6 0 14
25 18 55 l6 55 50 0 c27 0 49 -2 49 -5 0 -9 -83 -96 -111 -115 l-27 -20 -68
45 c-37 25 -71 45 -75 45 -7 0 -18 68 -11 74 2 2 18 0 35 -5 18 -5 33 -9 34
-9z m1871 -145 c30 -14 65 -25 78 -25 31 0 92 -25 117 -48 11 -9 30 -39 44
-66 14 -27 33 -58 44 -69 32 -35 43 -94 30 -158 -6 -30 -11 -79 -11 -108 0
-62 -26 -118 -73 -158 -19 -15 -44 -46 -55 -69 -26 -51 -37 -60 -104 -83 -52
-18 -55 -18 -88 -1 -19 10 -50 21 -68 25 -23 5 -36 15 -43 33 -5 14 -23 40
-39 59 -33 37 -34 40 -19 102 13 57 4 98 -26 117 -19 12 -28 13 -46 4 -28 -15
-39 0 -39 53 0 25 -9 50 -25 71 -14 18 -25 44 -25 58 0 13 -11 40 -25 58 -20
27 -24 42 -19 65 6 32 50 85 69 85 7 0 20 9 30 20 10 11 38 22 64 26 25 4 59
13 76 20 46 20 94 16 153 -11z m-766 -165 c20 -30 97 -113 170 -185 l132 -130
-3 -80 c-2 -61 2 -94 18 -139 26 -74 51 -101 115 -125 l51 -19 3 -50 c3 -49 2
-51 -40 -80 -24 -16 -76 -46 -115 -67 -135 -70 -200 -151 -237 -295 -8 -30
-16 -48 -19 -40 -5 14 -27 301 -27 347 0 19 4 21 38 16 27 -4 43 0 54 10 8 9
30 17 48 19 42 4 60 30 42 59 -10 15 -11 24 -3 32 37 37 -9 89 -127 145 -79
37 -86 46 -96 110 l-6 42 33 0 c42 0 77 25 77 54 0 31 -18 45 -76 59 l-48 12
-12 75 c-6 41 -17 93 -23 115 -17 61 -10 202 8 178 4 -4 23 -33 43 -63z
m-1472 -171 c-28 -72 -48 -159 -38 -159 3 0 22 48 43 108 21 59 41 110 44 114
3 4 17 -2 31 -12 23 -18 24 -21 12 -62 -18 -66 -50 -226 -57 -290 l-6 -57 -53
-12 c-30 -6 -70 -9 -91 -5 l-37 7 6 58 c11 92 43 215 87 328 l41 105 24 -24
24 -23 -30 -76z m1416 -65 c7 -57 5 -61 -28 -43 -17 9 -19 17 -13 57 3 26 9
56 12 67 6 19 6 18 14 -4 5 -12 12 -47 15 -77z m-1217 42 c31 -19 81 -46 111
-61 30 -15 57 -29 59 -31 8 -7 -52 -64 -124 -119 -71 -53 -191 -122 -199 -114
-5 5 43 242 63 317 7 23 17 42 23 42 6 0 36 -15 67 -34z m1214 -227 c35 -9 37
-12 37 -51 l0 -41 -49 44 c-68 61 -66 70 12 48z m1057 -161 c23 -39 26 -115 8
-195 -9 -39 -17 -53 -28 -51 -11 3 -14 15 -12 53 1 28 3 89 5 138 1 48 3 87 5
87 1 0 11 -15 22 -32z m-60 -135 c-20 -93 -50 -79 -49 22 1 52 4 63 27 82 l27
21 3 -36 c2 -21 -1 -61 -8 -89z m126 -56 c-6 -59 -19 -88 -32 -74 -4 3 -1 43
6 88 10 63 15 77 23 64 5 -10 7 -44 3 -78z m44 -58 c0 -10 -4 -19 -10 -19 -5
0 -10 12 -10 26 0 14 4 23 10 19 6 -3 10 -15 10 -26z"/>
<path d="M5325 5030 c22 -23 41 -36 43 -30 5 15 -48 70 -67 70 -9 0 0 -15 24
-40z"/>
<path d="M5515 4880 c-4 -6 6 -10 22 -10 41 0 61 -19 65 -60 2 -25 10 -38 27
-46 13 -7 28 -18 32 -26 7 -10 9 -10 9 3 0 8 -11 26 -25 39 -14 13 -25 33 -25
45 0 37 -28 65 -65 65 -19 0 -37 -4 -40 -10z"/>
<path d="M5157 4862 c-24 -26 -21 -39 3 -17 20 18 23 18 67 2 42 -16 48 -16
70 -2 12 9 23 21 23 27 0 6 -9 3 -20 -7 -19 -18 -22 -18 -56 -2 -45 22 -67 21
-87 -1z"/>
<path d="M4979 4774 c-7 -9 -16 -37 -19 -63 l-5 -46 -42 1 c-43 1 -56 -9 -27
-20 57 -22 111 11 100 61 -4 18 -1 36 7 47 13 18 18 18 60 7 58 -17 84 -3 31
15 -52 18 -89 17 -105 -2z"/>
<path d="M4871 4534 c-16 -12 -34 -15 -64 -10 -39 6 -41 5 -23 -9 27 -21 69
-19 97 4 30 24 21 36 -10 15z"/>
<path d="M5170 4554 c-46 -16 -89 -38 -85 -45 3 -4 26 -1 51 8 34 11 67 14
120 10 75 -6 97 5 48 23 -26 10 -107 12 -134 4z"/>
<path d="M5426 4461 c-4 -13 -2 -66 4 -121 17 -127 14 -134 -50 -127 -62 7
-75 -8 -19 -23 52 -14 96 1 105 36 3 13 1 46 -6 73 -6 27 -15 80 -19 117 -5
54 -9 64 -15 45z"/>
<path d="M5158 4454 c-36 -19 -37 -37 -2 -24 34 13 34 13 34 -9 0 -28 26 -47
45 -31 8 7 15 20 15 30 0 14 6 17 23 13 l22 -5 -24 21 c-27 25 -74 27 -113 5z"/>
<path d="M5488 4448 c-16 -5 -28 -14 -28 -20 0 -6 6 -8 14 -5 10 4 16 -2 18
-16 5 -33 45 -36 54 -3 4 16 11 23 20 19 25 -9 15 13 -11 25 -30 14 -31 14
-67 0z"/>
<path d="M5239 4097 c13 -13 160 -22 197 -13 45 12 20 17 -95 20 -75 2 -109 0
-102 -7z"/>
<path d="M5315 4024 c20 -15 53 -18 79 -8 30 12 16 19 -41 20 -51 2 -55 0 -38
-12z"/>
<path d="M4573 4488 c-29 -37 -18 -116 20 -143 37 -26 47 -16 15 16 -29 28
-30 34 -25 85 6 57 5 61 -10 42z"/>
<path d="M5654 3513 c11 -28 43 -334 52 -488 7 -120 9 -132 15 -85 17 136 -32
590 -63 590 -6 0 -7 -8 -4 -17z"/>
<path d="M5567 2485 c-3 -11 -11 -47 -17 -80 -14 -74 -71 -277 -106 -376 -36
-103 -43 -129 -38 -129 11 0 64 132 97 240 37 122 81 332 74 353 -2 7 -6 3
-10 -8z"/>
<path d="M4650 3596 c0 -34 268 -308 395 -404 96 -72 203 -132 235 -132 8 0
-14 16 -50 35 -109 58 -207 139 -397 329 -101 99 -183 177 -183 172z"/>
<path d="M4765 3565 c123 -113 363 -236 454 -234 l36 1 -45 12 c-101 29 -243
101 -385 196 -94 63 -107 68 -60 25z"/>
<path d="M5391 3394 c-2 -18 -111 -93 -147 -100 -43 -8 -55 -24 -18 -24 59 0
184 89 171 122 -3 7 -6 8 -6 2z"/>
<path d="M4654 3290 c3 -14 11 -56 18 -95 8 -43 13 -148 13 -272 0 -111 3
-196 7 -190 3 7 11 53 17 103 12 101 2 243 -26 374 -15 71 -39 138 -29 80z"/>
<path d="M5051 3070 c26 -54 162 -210 200 -231 40 -21 32 -11 -176 216 -26 29
-33 33 -24 15z"/>
<path d="M5015 2582 c2 -62 9 -121 15 -130 14 -22 5 168 -10 213 -7 22 -9 0
-5 -83z"/>
<path d="M5948 2329 c-27 -20 -37 -39 -20 -39 4 0 23 13 42 30 40 33 21 41
-22 9z"/>
<path d="M4201 1968 c1 -141 4 -199 10 -173 12 59 11 385 -1 385 -6 0 -10 -77
-9 -212z"/>
<path d="M5087 1278 c-196 -308 -403 -530 -577 -619 -55 -28 -78 -34 -147 -37
-87 -4 -101 -16 -33 -27 189 -32 514 240 742 620 41 69 90 165 84 165 -2 0
-33 -46 -69 -102z"/>
<path d="M4525 1250 c-88 -42 -166 -46 -249 -14 -31 12 -16 -14 17 -27 70 -30
206 -7 272 45 27 21 9 19 -40 -4z"/>
<path d="M6221 633 c-20 -93 -31 -154 -31 -176 0 -18 2 -19 13 -7 15 16 47
157 47 203 0 43 -17 31 -29 -20z"/>
</g>
</svg>
