<?xml version="1.0" standalone="no"?>
<!DOCTYPE svg PUBLIC "-//W3C//DTD SVG 20010904//EN"
 "http://www.w3.org/TR/2001/REC-SVG-20010904/DTD/svg10.dtd">
<svg version="1.0" xmlns="http://www.w3.org/2000/svg"
 width="1024.000000pt" height="559.000000pt" viewBox="0 0 1024.000000 559.000000"
 preserveAspectRatio="xMidYMid meet">
<metadata>
Created by potrace 1.16, written by Peter Selinger 2001-2019
</metadata>
<g transform="translate(0.000000,559.000000) scale(0.100000,-0.100000)"
fill="#000000" stroke="none">
<path d="M5100 5147 c-29 -21 -39 -23 -73 -14 -67 17 -157 -22 -193 -83 -11
-17 -29 -30 -46 -34 -23 -4 -33 -15 -45 -46 -9 -22 -22 -40 -28 -40 -22 0 -74
-68 -81 -105 -3 -19 -3 -55 0 -80 5 -33 3 -51 -8 -67 -21 -30 -20 -101 1 -141
11 -21 16 -51 14 -87 -3 -68 17 -117 64 -163 23 -23 35 -43 35 -62 0 -31 57
-95 85 -95 16 0 17 -10 13 -93 -5 -94 -14 -124 -51 -164 -17 -20 -31 -23 -87
-23 -56 0 -73 -4 -113 -30 -26 -16 -61 -30 -78 -30 -36 0 -89 -21 -107 -42 -7
-9 -40 -26 -74 -39 -145 -54 -248 -232 -291 -504 -33 -205 -72 -679 -96 -1170
-41 -825 -53 -1043 -72 -1288 -19 -249 -20 -302 -4 -286 15 16 51 414 65 739
19 434 30 646 35 710 3 36 10 164 15 285 16 328 51 778 75 945 42 287 134 475
262 532 48 21 137 25 193 8 42 -12 40 -12 40 1 0 14 -63 39 -102 39 l-33 1 25
20 c25 21 80 23 140 4 24 -8 24 -8 8 12 -17 19 -17 20 21 41 23 13 55 22 77
21 l39 -1 -32 -14 c-32 -14 -33 -15 -31 -75 2 -57 -1 -64 -27 -87 -28 -24 -32
-24 -120 -17 -118 11 -159 10 -198 -6 -44 -17 -98 -58 -95 -72 1 -7 -10 -32
-24 -57 -75 -127 -103 -270 -123 -640 -3 -58 -10 -150 -16 -204 -10 -93 -9
-101 10 -127 20 -27 20 -30 6 -480 -8 -250 -14 -492 -14 -539 l2 -85 7 60 c9
68 26 434 36 778 7 244 5 236 59 221 17 -4 24 -25 44 -117 29 -134 74 -275
108 -338 l25 -46 -22 -43 c-12 -24 -37 -86 -56 -138 -24 -65 -47 -109 -74
-140 -22 -24 -51 -68 -65 -97 -25 -50 -26 -60 -24 -186 3 -129 2 -136 -26
-194 -39 -84 -44 -183 -14 -285 26 -87 27 -113 11 -275 -12 -120 -5 -224 13
-215 6 3 11 64 12 140 1 75 6 147 11 160 9 24 10 23 22 -17 13 -43 30 -58 30
-26 0 9 -19 73 -42 142 -36 110 -42 137 -42 216 0 74 5 102 26 155 l26 65 11
-45 c32 -124 40 -65 11 78 -30 145 -29 209 4 275 14 29 35 63 46 77 l21 25 -6
-40 c-13 -83 -17 -98 -25 -85 -12 20 -21 -6 -11 -33 12 -32 63 -52 131 -51
122 2 281 85 420 220 l55 54 122 -48 c68 -26 123 -51 123 -55 0 -18 -147 -213
-219 -289 -152 -163 -231 -227 -346 -284 -115 -57 -253 -61 -309 -9 -23 21
-26 22 -26 6 0 -64 151 -92 283 -51 169 52 403 262 578 517 39 57 72 103 74
103 2 0 53 -19 112 -41 95 -37 115 -48 165 -100 l58 -58 -14 -38 c-84 -235
-269 -587 -404 -770 -98 -132 -108 -153 -42 -83 123 131 290 413 405 685 25
61 53 125 61 144 l15 33 57 -54 c31 -29 70 -63 85 -74 l29 -20 -56 -166 c-57
-169 -142 -381 -201 -498 -38 -75 -50 -110 -38 -110 15 0 62 84 123 221 l60
134 0 -167 c0 -96 4 -169 10 -173 6 -3 10 74 12 207 l4 213 52 147 c29 81 52
154 52 163 0 20 5 19 50 -6 l37 -21 7 -132 c14 -283 30 -497 36 -484 7 14 -4
417 -15 535 l-7 72 56 -6 c38 -4 61 -2 71 7 9 7 17 11 19 9 2 -2 11 -110 20
-239 9 -129 19 -241 21 -248 2 -6 -7 -62 -22 -122 -14 -61 -23 -113 -20 -116
15 -15 27 16 57 143 57 246 71 296 96 349 28 60 84 117 147 152 23 13 67 37
97 54 91 50 110 73 110 133 0 53 -20 95 -46 95 -8 0 -33 9 -55 21 -51 25 -78
82 -86 178 -4 50 -1 82 12 120 9 29 20 93 25 142 4 49 10 92 13 96 4 3 7 -2 7
-13 0 -10 11 -39 25 -63 14 -23 25 -56 25 -71 0 -67 34 -105 72 -81 15 9 23 9
34 0 29 -24 6 -134 -33 -152 -32 -14 -29 -29 6 -25 31 3 68 -33 100 -95 13
-24 30 -35 86 -54 42 -14 83 -22 103 -19 31 5 32 3 32 -28 0 -20 -8 -40 -20
-51 -13 -12 -20 -29 -18 -44 3 -25 6 -26 62 -26 35 0 61 -5 63 -11 2 -7 -18
-40 -45 -75 -27 -35 -54 -74 -60 -86 -17 -30 -15 -70 3 -77 8 -3 15 -14 15
-24 0 -24 23 -44 47 -41 10 1 26 -1 36 -6 10 -4 34 0 57 9 22 9 52 16 67 16
14 0 42 12 60 26 19 15 38 22 43 18 12 -14 29 -175 36 -356 6 -140 10 -168 22
-168 13 0 14 21 9 157 -8 176 -22 322 -38 369 -8 27 -5 40 21 92 17 34 42 111
56 179 30 135 83 259 96 224 21 -58 32 -256 30 -566 -2 -338 2 -440 19 -430 5
4 9 17 9 31 0 16 21 45 69 91 104 103 106 109 106 298 l0 160 53 51 c51 50 52
51 52 110 0 32 -7 122 -15 199 -10 87 -19 338 -25 665 -15 831 -35 1059 -115
1303 -14 42 -36 94 -49 115 -25 40 -80 92 -97 92 -5 0 -29 18 -52 40 -44 40
-83 60 -118 60 -11 0 -33 10 -49 21 -24 19 -37 21 -83 16 -51 -6 -56 -5 -94
28 -23 19 -52 54 -66 78 -32 54 -59 147 -55 189 3 29 6 33 28 30 14 -2 51 -4
82 -5 67 -2 103 19 131 76 10 20 31 50 46 66 40 43 58 112 43 168 -7 24 -12
54 -12 68 0 72 -56 141 -123 152 -31 5 -35 9 -45 53 -31 133 -125 251 -247
311 -67 32 -75 34 -175 33 -152 -1 -269 -17 -323 -43 -43 -21 -137 -111 -137
-132 0 -5 -9 -9 -20 -9 -11 0 -37 -15 -56 -33 -32 -29 -37 -41 -41 -88 -3 -30
-11 -68 -19 -86 -19 -43 -18 -82 6 -126 11 -20 20 -47 20 -59 0 -31 34 -85 59
-93 24 -7 27 -18 36 -110 8 -89 42 -187 95 -276 77 -130 124 -169 205 -169 41
0 45 -2 45 -25 0 -19 -9 -29 -46 -46 -26 -11 -61 -22 -78 -24 -40 -4 -146 -51
-146 -64 0 -6 -21 -30 -46 -53 -45 -42 -69 -76 -90 -133 l-12 -30 -11 30 c-25
63 -67 138 -103 183 -20 26 -47 60 -59 75 -29 37 -94 78 -142 89 -22 5 -55 21
-74 36 -38 28 -90 35 -146 18 -28 -8 -28 -7 -25 24 3 34 9 39 67 61 98 36 151
225 157 564 3 173 9 214 35 241 24 26 24 24 16 178 -5 88 -21 119 -78 150 -22
12 -41 33 -51 58 -22 51 -90 84 -146 71 -31 -7 -43 -5 -71 14 -47 32 -124 32
-171 0z m158 -31 c25 -22 35 -24 85 -19 66 7 99 -9 123 -60 9 -18 33 -43 55
-55 50 -29 73 -73 65 -124 -4 -22 -1 -57 5 -79 9 -29 9 -45 1 -64 -17 -37 -29
-31 -37 18 -4 23 -13 57 -21 75 -10 25 -11 39 -3 54 17 32 -5 44 -25 14 -9
-15 -25 -26 -36 -26 -29 0 -60 36 -60 69 0 16 -9 39 -20 52 l-19 24 5 -50 c5
-42 2 -54 -15 -72 -12 -13 -32 -23 -44 -23 -20 0 -23 5 -23 36 0 40 -23 64
-61 64 -18 0 -23 -5 -23 -28 0 -46 -25 -72 -71 -72 -33 0 -41 4 -49 25 -13 34
-30 32 -30 -4 0 -32 -34 -81 -56 -81 -9 0 -14 11 -14 36 0 21 -4 33 -10 29
-16 -10 -12 -71 5 -85 20 -17 58 -1 80 34 15 22 21 24 65 19 43 -5 51 -3 74
20 15 15 29 40 32 57 6 25 9 28 21 18 13 -11 14 -33 2 -78 -9 -35 112 -18 125
17 5 13 11 10 32 -12 19 -21 32 -26 55 -23 27 4 30 1 40 -36 15 -56 37 -160
34 -164 -1 -1 -15 2 -31 8 -35 14 -94 4 -94 -15 0 -10 16 -15 58 -17 l57 -3 3
-125 c2 -108 -5 -182 -24 -240 -5 -13 -7 -13 -17 1 -15 20 -57 43 -57 30 0
-14 56 -71 70 -71 9 0 10 -15 6 -54 -12 -96 -47 -188 -82 -217 -16 -13 -17
-12 -12 9 9 32 -7 27 -22 -7 -16 -40 -90 -59 -90 -23 -1 16 -1 16 -14 0 -21
-28 -55 -22 -74 12 -21 36 -36 39 -28 5 13 -52 -56 -15 -82 44 l-16 36 -5 -27
-6 -28 -32 26 c-24 18 -33 34 -33 54 0 16 -4 32 -10 35 -5 3 -10 -3 -10 -14 0
-32 -17 -25 -44 17 -31 47 -41 86 -61 247 -22 173 -50 233 -116 250 -19 5 -33
0 -54 -17 -39 -34 -45 -105 -15 -176 22 -52 78 -112 104 -112 7 0 16 -14 20
-31 9 -47 7 -59 -8 -59 -21 0 -56 49 -56 78 0 16 -16 42 -44 72 -48 51 -63 95
-53 157 4 25 0 47 -13 74 -25 48 -25 85 -1 130 16 29 18 44 11 75 -8 36 -7 57
7 107 2 9 20 28 39 41 20 13 43 39 52 57 12 23 26 36 45 39 17 3 35 17 47 38
34 56 74 74 155 69 63 -4 73 -2 98 19 40 33 105 33 145 0z m1267 -191 c90 -24
144 -53 203 -112 65 -65 111 -159 118 -240 5 -57 5 -58 -13 -35 -54 69 -61 75
-98 81 -33 5 -40 11 -47 39 -11 40 -61 74 -101 69 -22 -3 -31 3 -46 29 -23 39
-68 54 -124 42 -29 -6 -44 -5 -60 7 -31 22 -89 19 -121 -6 -34 -27 -28 -34 10
-14 40 21 77 19 108 -6 23 -18 31 -20 52 -10 52 23 106 4 124 -45 8 -20 16
-24 53 -24 53 0 73 -14 84 -60 8 -30 14 -36 44 -41 52 -8 76 -26 89 -64 6 -19
18 -35 26 -35 20 0 44 -53 44 -98 0 -29 -10 -54 -35 -92 -39 -58 -39 -76 1
-39 53 49 68 108 52 196 -6 35 -9 66 -6 69 14 13 97 -35 112 -65 23 -43 20
-54 -9 -35 -32 21 -47 9 -16 -13 29 -19 60 -88 61 -129 0 -71 -74 -154 -138
-154 -13 0 -20 -4 -17 -10 3 -5 19 -10 36 -10 38 0 37 -13 -5 -45 -23 -18 -47
-26 -74 -27 -56 -1 -68 9 -43 36 34 37 57 126 31 126 -5 0 -10 -9 -10 -21 0
-11 -5 -30 -11 -42 -14 -27 -70 -87 -81 -87 -19 0 -6 44 21 71 29 29 56 114
45 142 -3 8 2 20 11 27 28 24 15 32 -19 11 -45 -28 -124 -29 -159 0 -15 11
-32 38 -38 59 -9 30 -18 40 -39 45 -31 7 -64 39 -75 73 -4 15 -14 22 -31 22
-40 0 -89 25 -112 57 -17 24 -27 29 -51 25 -44 -6 -79 5 -107 35 -25 27 -32
81 -13 100 8 8 8 13 0 17 -13 8 -31 -33 -31 -72 -1 -38 -29 -71 -75 -86 -30
-11 -42 -21 -50 -47 -7 -22 -22 -39 -43 -49 -33 -16 -42 -30 -18 -30 10 0 14
-18 13 -77 0 -75 0 -76 -19 -53 -10 12 -18 36 -18 52 0 16 -9 41 -20 55 -24
31 -27 100 -5 129 8 11 15 41 15 70 0 42 5 55 28 77 16 15 44 29 62 32 18 2
38 9 43 14 6 6 26 11 45 11 19 0 31 4 27 10 -3 6 -23 10 -43 10 l-36 0 39 40
c54 55 115 82 200 86 39 2 86 7 105 13 52 14 89 13 155 -4z m-355 -338 c14
-10 44 -17 72 -17 37 0 50 -4 58 -21 16 -29 70 -59 107 -59 26 0 34 -5 39 -25
7 -30 58 -75 84 -75 12 0 20 -10 24 -33 7 -40 36 -69 90 -91 36 -15 38 -18 33
-50 -5 -28 -3 -34 10 -29 10 4 14 16 11 39 -3 27 0 34 13 34 10 0 24 3 33 6
12 5 16 0 16 -19 0 -62 -58 -138 -95 -123 -9 3 -15 0 -15 -9 0 -8 7 -15 15
-15 8 0 15 -6 16 -12 11 -211 65 -325 200 -419 22 -15 22 -19 11 -56 -11 -37
-18 -43 -80 -71 -92 -41 -221 -79 -309 -91 -91 -12 -176 4 -227 43 -35 27 -70
79 -64 96 4 12 116 68 123 62 3 -3 5 -23 5 -44 0 -22 5 -38 11 -38 9 0 10 24
6 83 l-6 84 42 20 c64 31 140 96 175 149 36 54 45 98 10 49 -69 -97 -188 -185
-270 -200 -102 -19 -204 86 -275 282 -40 110 -42 256 -3 183 15 -27 38 -25 46
4 4 18 11 23 22 18 14 -5 15 -3 4 10 -19 23 -47 28 -78 12 -32 -17 -30 -18
-38 22 -6 27 -4 32 16 38 13 3 39 6 58 6 25 0 31 3 23 11 -14 14 -59 16 -90 6
-22 -8 -23 -6 -23 56 0 46 4 66 14 70 8 3 22 24 32 46 11 26 24 41 36 41 10 0
32 13 50 29 18 16 35 26 38 22 3 -4 16 -15 30 -24z m-1357 -87 c29 -34 32 -41
46 -124 17 -92 16 -96 -22 -96 -40 0 -67 25 -96 90 -25 54 -27 107 -5 138 21
30 47 28 77 -8z m73 -332 c20 -95 51 -147 125 -207 87 -70 156 -102 233 -108
l63 -6 -5 -88 c-3 -63 -1 -89 7 -89 6 0 11 15 11 34 0 19 4 37 8 40 16 10 110
-63 115 -90 6 -33 -38 -86 -96 -116 -57 -29 -189 -22 -307 17 -125 40 -323
124 -337 143 -25 31 -16 67 20 84 50 24 96 66 120 112 20 37 22 55 22 198 0
86 1 155 3 153 2 -2 10 -36 18 -77z m575 -408 c48 -14 88 -66 110 -146 28
-100 43 -309 36 -519 -3 -130 -2 -179 5 -155 5 19 12 130 15 245 5 221 -11
407 -43 483 -8 19 -12 37 -10 39 6 7 67 -26 108 -59 45 -35 64 -91 73 -218 4
-47 20 -184 37 -305 54 -407 51 -540 -33 -1115 -28 -197 -35 -240 -42 -246 -3
-4 -20 -1 -38 5 -18 6 -45 11 -60 11 -34 0 -33 -4 -15 80 8 36 21 97 29 135
36 165 85 510 74 521 -6 6 -19 -57 -42 -206 -24 -155 -42 -250 -77 -398 l-32
-134 -81 4 c-76 3 -85 6 -172 56 l-93 53 20 38 c25 50 95 233 131 344 129 400
192 959 140 1263 -22 130 -52 209 -77 200 -22 -9 -50 14 -32 25 17 11 26 11
69 -1z m1549 -95 c11 -13 10 -18 -8 -31 -34 -23 -26 -37 10 -18 48 25 103 23
130 -4 l22 -22 -37 0 c-36 0 -104 -26 -94 -36 2 -2 27 1 55 7 108 23 194 -28
248 -146 26 -56 66 -210 83 -320 18 -115 41 -403 40 -505 -2 -109 -2 -108 -24
105 -45 439 -75 590 -135 688 -32 52 -36 62 -20 52 17 -10 11 11 -7 27 -48 42
-84 51 -168 43 -124 -12 -155 -9 -178 14 -19 19 -20 23 -7 90 13 70 13 71 45
71 18 0 38 -7 45 -15z m-2225 -44 c216 -95 341 -131 457 -131 87 0 122 13 176
63 l32 31 0 -45 c0 -239 -116 -642 -264 -916 -87 -162 -132 -223 -164 -223
-15 0 -43 -3 -63 -6 l-36 -6 -36 108 c-25 78 -35 100 -36 77 -1 -27 22 -113
44 -166 7 -16 4 -17 -21 -11 -40 9 -69 46 -106 136 -17 43 -34 76 -36 74 -8
-8 30 -121 54 -163 l25 -43 -33 6 c-82 15 -108 25 -108 42 0 10 5 23 12 30 9
9 9 43 -1 149 -14 150 -53 400 -72 464 -14 44 -34 53 -26 12 38 -218 85 -578
76 -587 -5 -5 -144 17 -233 38 -155 37 -223 39 -321 11 -20 -6 -20 -4 -13 92
4 54 12 179 18 278 20 350 77 536 191 628 50 39 90 46 196 34 l91 -11 27 -55
c15 -31 58 -112 97 -181 39 -69 82 -145 95 -170 75 -135 124 -189 64 -70 -31
60 -207 378 -250 451 l-22 37 25 6 c14 3 33 17 43 31 10 13 20 25 23 25 3 0
46 -18 95 -39z m1409 -66 c48 -123 205 -165 419 -111 80 20 124 37 255 93 24
10 11 -19 -33 -77 -80 -104 -317 -309 -417 -361 -21 -10 -57 -19 -80 -19 -40
-1 -42 -2 -23 -16 42 -32 149 23 312 160 l103 86 -72 -112 c-39 -62 -134 -212
-209 -333 -261 -416 -250 -401 -261 -381 -5 9 -20 46 -32 81 -13 36 -26 68
-29 72 -13 12 5 -61 30 -125 26 -65 25 -96 -2 -90 -16 3 -66 114 -101 221 -17
53 -34 82 -34 58 0 -20 59 -190 81 -233 11 -22 15 -38 9 -38 -40 0 -130 168
-156 290 -19 92 -14 149 31 324 18 72 45 212 59 311 15 99 29 187 31 195 4 12
63 42 96 49 4 0 14 -19 23 -44z m-350 -135 c37 -78 39 -125 11 -285 -17 -101
-19 -107 -26 -70 -9 52 -36 280 -44 367 -3 37 -8 76 -11 85 -12 38 40 -34 70
-97z m193 68 c-3 -13 -16 -88 -27 -168 -12 -80 -37 -205 -56 -278 -19 -74 -37
-160 -41 -191 -8 -82 18 -190 75 -303 26 -52 47 -108 47 -128 1 -38 -32 -116
-72 -168 -24 -32 -142 -126 -149 -119 -2 1 6 79 18 172 15 124 21 237 23 415
2 234 8 307 41 484 27 149 54 218 107 274 37 38 41 39 34 10z m879 -1 c3 -8
-14 -47 -37 -88 -59 -104 -362 -729 -356 -735 5 -5 161 295 287 554 87 177
129 252 140 252 24 0 30 -10 19 -29 -26 -45 -70 -176 -243 -721 -36 -113 -90
-268 -119 -344 l-53 -139 -50 -13 c-27 -8 -60 -17 -73 -20 -13 -4 -22 -3 -20
2 2 5 37 74 76 154 40 80 75 159 78 175 3 17 -36 -53 -87 -154 -72 -142 -99
-186 -118 -193 -38 -14 -128 -76 -145 -101 -16 -23 -20 -93 -6 -116 5 -8 3
-27 -5 -47 -8 -18 -14 -60 -14 -92 0 -90 -21 -142 -93 -234 -35 -46 -72 -90
-81 -97 -10 -8 -22 -23 -28 -34 -21 -39 50 22 105 90 l52 65 7 -64 c7 -72 35
-144 68 -173 12 -11 43 -27 68 -36 47 -16 47 -16 50 -66 3 -50 2 -52 -40 -81
-24 -16 -76 -46 -115 -67 -132 -68 -199 -150 -234 -284 -7 -28 -16 -51 -19
-51 -5 0 -30 296 -30 353 0 14 6 16 38 11 28 -4 43 -2 54 9 8 9 30 17 48 19
42 4 60 30 42 59 -10 15 -11 24 -3 32 18 18 13 52 -11 75 -13 11 -57 38 -98
59 -72 38 -75 41 -78 78 -5 57 5 83 38 100 38 19 41 58 6 80 -20 13 -24 26
-29 90 -6 67 -4 83 20 143 31 80 39 91 48 63 3 -12 10 -21 15 -21 19 0 125
108 189 194 73 97 161 236 206 326 38 78 22 56 -89 -114 -108 -165 -231 -324
-277 -357 -17 -12 -31 -20 -33 -18 -8 10 -26 101 -26 130 0 26 11 42 65 91 95
88 142 156 460 668 154 249 406 630 417 630 5 0 11 -6 14 -13z m307 -47 c64
-70 114 -194 136 -340 34 -216 81 -716 81 -854 0 -204 -42 -333 -210 -648
-114 -213 -121 -230 -156 -381 -30 -130 -58 -190 -113 -240 -54 -48 -62 -47
-18 3 41 44 80 116 74 133 -2 7 -16 -8 -32 -33 -37 -61 -81 -107 -134 -141
-68 -44 -80 -34 -18 15 53 44 117 127 137 180 17 47 -7 27 -48 -38 -39 -62
-161 -176 -189 -176 -29 0 -9 36 60 109 67 70 102 118 120 164 13 35 -14 15
-47 -36 -54 -81 -158 -183 -176 -172 -13 8 2 35 55 105 48 61 78 117 93 171
16 60 0 67 -50 21 -84 -77 -141 -76 -71 2 21 23 50 59 66 79 15 20 58 54 96
76 57 34 72 48 86 83 30 75 65 199 90 323 13 66 36 161 51 210 33 112 33 166
1 325 -14 69 -40 206 -57 305 -45 260 -50 285 -61 285 -12 0 -12 -4 10 -147
10 -68 16 -123 15 -123 -2 0 -13 18 -24 40 -79 155 -24 568 94 708 22 26 35
32 66 32 31 0 44 -7 73 -40z m-1729 -72 c13 -207 -30 -570 -105 -898 -23 -99
-124 -394 -163 -474 l-41 -86 -67 47 c-59 41 -66 49 -55 64 99 134 227 353
227 390 0 8 -16 -12 -35 -44 -19 -32 -35 -60 -35 -63 0 -21 -177 -274 -192
-274 -5 0 -45 28 -89 61 l-79 62 67 61 c145 132 301 381 400 636 75 195 143
467 143 576 0 85 17 43 24 -58z m1566 96 c0 -3 -11 -20 -24 -37 -50 -68 -92
-218 -107 -388 -14 -169 12 -301 75 -369 17 -18 28 -49 38 -106 14 -79 13 -84
-8 -132 -18 -41 -28 -51 -54 -57 -17 -4 -33 -5 -35 -3 -2 2 6 26 19 53 13 28
27 61 31 75 14 48 -14 6 -45 -66 l-29 -69 -86 -3 -87 -3 20 28 c30 44 72 130
72 150 -1 10 -23 -26 -51 -79 -29 -57 -57 -98 -66 -98 -9 0 -12 6 -9 18 10 33
27 144 23 148 -2 2 -14 -34 -26 -81 -21 -78 -25 -85 -48 -85 -15 0 -23 5 -21
13 2 6 40 125 85 262 45 138 101 311 123 385 23 74 67 206 97 293 54 154 56
157 84 157 16 0 29 -3 29 -6z m-2644 -938 c60 -13 132 -27 161 -31 l52 -7 6
-66 c10 -117 16 -158 23 -169 4 -5 61 -47 127 -92 66 -45 168 -119 227 -164
126 -97 287 -199 358 -227 40 -16 74 -20 159 -20 110 0 140 -6 221 -42 25 -12
74 -29 109 -39 75 -22 78 -24 61 -45 -16 -18 -77 -16 -172 7 -81 19 -90 6 -40
-58 50 -63 120 -115 241 -178 89 -47 124 -76 109 -91 -13 -12 -173 48 -261 98
-85 48 -114 56 -87 23 24 -29 131 -87 213 -116 82 -29 127 -55 135 -77 11 -35
-199 25 -309 88 -48 28 -92 50 -98 50 -24 0 -8 -21 37 -47 26 -15 61 -37 79
-49 17 -11 64 -31 105 -43 40 -13 82 -27 93 -31 17 -7 16 -9 -9 -9 -71 -2
-161 23 -253 70 -98 51 -131 56 -78 13 30 -25 133 -78 170 -88 11 -3 -2 -3
-29 -1 -91 9 -187 75 -356 245 l-115 116 -230 88 c-266 102 -394 160 -520 238
-171 107 -198 136 -243 266 -30 87 -75 263 -87 337 -4 22 -9 51 -12 64 -6 24
-5 24 49 18 29 -4 103 -18 164 -31z m-238 -4 c4 -25 -6 -27 -43 -10 -29 13
-32 25 -7 31 31 9 47 2 50 -21z m2923 -273 c10 -63 10 -83 -1 -109 l-14 -33
-18 68 c-10 37 -25 79 -32 94 -15 29 -9 84 15 135 l13 28 12 -53 c7 -30 18
-88 25 -130z m-985 155 c25 -7 31 -19 13 -29 -15 -10 -69 15 -69 32 0 10 6 13
16 9 9 -3 27 -9 40 -12z m-1371 -19 c33 -8 109 -15 168 -15 107 0 108 0 96
-21 -11 -21 -16 -22 -118 -15 -136 8 -215 26 -219 49 -4 20 -4 20 73 2z m1365
-44 c0 -4 -13 -22 -30 -41 -29 -34 -29 -35 -29 -10 -1 50 9 67 35 62 13 -2 24
-7 24 -11z m900 -1 c0 -30 -163 -52 -312 -43 -76 5 -86 8 -79 22 8 13 29 15
133 13 67 -1 143 2 168 7 64 12 90 12 90 1z m-2263 -20 c1 0 -1 -16 -4 -37 -7
-43 12 -39 22 5 5 25 9 27 45 24 l40 -4 -6 -54 c-9 -70 9 -71 22 -1 l9 52 48
3 c26 2 47 -1 47 -6 0 -8 -58 -65 -116 -115 -20 -17 -23 -16 -89 28 -38 25
-73 45 -77 45 -4 0 -8 18 -8 39 l0 40 32 -10 c18 -5 34 -9 35 -9z m2281 -112
c43 -123 45 -144 22 -250 -88 -389 -102 -432 -158 -473 -22 -16 -55 -39 -73
-50 -18 -11 -47 -39 -64 -62 -33 -46 -45 -52 -45 -25 0 11 11 24 23 29 13 6
31 26 40 45 9 19 43 58 77 87 33 29 68 67 77 84 17 33 36 185 34 270 -1 45
-29 119 -51 132 -6 4 -17 23 -26 43 -29 71 -108 132 -171 132 -23 0 -133 46
-133 56 0 3 5 14 10 25 9 15 22 19 70 19 l59 0 7 -36 c4 -21 10 -31 14 -24 4
6 5 22 2 36 -4 23 -3 24 56 24 l60 0 12 -65 c16 -83 29 -85 18 -3 -4 33 -7 62
-6 63 2 2 13 6 25 9 20 6 23 1 38 -71 10 -43 24 -103 31 -133 l14 -55 -5 70
c-3 39 -12 96 -20 128 -16 63 -14 77 15 77 14 0 25 -20 48 -82z m-1050 -8
l-43 -38 0 -83 c0 -69 -5 -95 -28 -146 -23 -53 -27 -76 -27 -153 0 -49 -4 -90
-8 -90 -24 0 -41 31 -50 95 -6 39 -16 95 -23 125 -7 35 -9 79 -5 120 l7 65 61
35 c34 19 82 59 107 87 33 38 47 48 49 36 3 -9 -14 -31 -40 -53z m643 -30 c21
-11 50 -20 64 -20 65 0 141 -54 176 -125 10 -22 30 -55 43 -72 28 -39 41 -109
26 -147 -5 -15 -10 -56 -10 -92 0 -84 -21 -124 -98 -191 -32 -29 -64 -65 -71
-81 -8 -20 -26 -35 -59 -48 l-47 -20 -74 26 c-66 24 -76 31 -89 64 -8 20 -18
36 -23 36 -5 0 -16 11 -25 25 -14 21 -14 32 -4 73 7 32 8 61 3 83 -11 41 -47
63 -76 47 -25 -13 -37 4 -37 55 0 25 -9 50 -25 71 -14 18 -25 45 -25 61 0 15
-11 41 -25 57 -21 25 -25 37 -19 62 8 39 19 53 57 73 17 8 39 24 50 34 12 10
30 19 42 19 11 0 45 9 75 20 63 23 111 20 171 -10z m870 -690 c7 -80 15 -179
19 -220 3 -41 3 -86 -2 -100 -7 -20 -133 -150 -145 -150 -2 0 -1 35 2 78 11
174 16 657 6 647 -6 -6 -14 -179 -21 -414 l-11 -405 36 -72 c19 -40 35 -81 35
-91 0 -29 -55 -115 -103 -162 l-45 -43 -5 393 c-4 288 -9 418 -20 484 -18 101
-22 82 58 230 66 121 131 283 152 378 l18 79 7 -244 c4 -133 12 -308 19 -388z
m-3098 452 c15 -17 14 -23 -13 -94 -28 -71 -48 -158 -38 -158 3 0 22 48 43
108 21 59 41 110 44 114 3 4 17 -2 31 -12 23 -18 24 -21 12 -62 -18 -66 -50
-226 -57 -289 l-6 -57 -44 -11 c-53 -13 -86 -14 -118 -2 l-24 9 13 74 c21 112
43 194 75 280 46 126 52 133 82 100z m1402 -155 c8 -60 6 -63 -27 -46 -17 9
-19 17 -13 57 3 26 9 56 12 67 6 19 6 19 13 -1 5 -11 11 -46 15 -77z m-1216
39 c31 -19 81 -46 111 -61 30 -15 57 -29 59 -31 8 -7 -52 -64 -124 -119 -71
-53 -191 -122 -199 -114 -5 5 43 242 63 317 7 23 17 42 23 42 6 0 36 -15 67
-34z m1219 -227 c25 -9 31 -16 34 -50 2 -21 1 -38 -3 -37 -10 4 -99 88 -99 93
0 9 36 5 68 -6z m72 -28 c0 -11 -4 -23 -10 -26 -6 -4 -10 5 -10 19 0 14 5 26
10 26 6 0 10 -9 10 -19z m934 -316 c-4 -8 -11 -15 -16 -15 -6 0 -5 6 2 15 7 8
14 15 16 15 2 0 1 -7 -2 -15z m604 -357 l-3 -43 -17 32 c-10 18 -18 44 -18 59
0 15 8 36 18 47 17 19 17 18 20 -17 2 -19 2 -55 0 -78z"/>
<path d="M4924 4770 c4 -14 10 -43 13 -65 4 -35 1 -44 -25 -68 -29 -28 -29
-29 -15 -69 12 -35 12 -43 -2 -64 -17 -27 -19 -34 -6 -34 33 0 54 74 32 109
-7 11 -1 25 21 50 26 30 30 40 25 79 -3 28 -13 52 -27 66 l-23 21 7 -25z"/>
<path d="M5116 4625 c-40 -14 -74 -40 -64 -50 3 -3 22 2 44 11 21 10 69 18
106 19 71 1 93 10 68 25 -22 14 -109 11 -154 -5z"/>
<path d="M5370 4558 c0 -7 12 -64 27 -127 26 -112 26 -114 7 -128 -24 -17 -93
-8 -111 15 -16 20 -27 10 -18 -17 7 -22 77 -42 120 -33 35 6 59 44 51 79 -23
98 -62 223 -68 223 -4 0 -8 -6 -8 -12z"/>
<path d="M5133 4541 c-24 -11 -43 -25 -43 -31 0 -13 27 -13 35 0 11 18 34 10
37 -12 4 -32 42 -31 46 0 2 15 9 22 17 18 19 -7 28 9 12 22 -25 21 -62 22
-104 3z"/>
<path d="M5433 4543 c-7 -2 -13 -11 -13 -19 0 -7 6 -11 13 -9 6 3 17 -5 22
-17 13 -29 27 -29 40 0 5 12 16 22 24 22 11 0 11 3 1 15 -12 14 -61 19 -87 8z"/>
<path d="M4914 4397 c7 -57 41 -139 67 -163 30 -27 33 -10 5 33 -13 21 -32 65
-41 98 -22 78 -40 96 -31 32z"/>
<path d="M5169 4254 c-42 -24 -79 -67 -79 -93 0 -18 20 -13 27 7 10 30 55 71
90 83 18 6 33 15 33 20 0 15 -23 10 -71 -17z"/>
<path d="M5020 4227 c0 -14 31 -47 43 -47 3 0 -2 13 -11 30 -18 32 -32 39 -32
17z"/>
<path d="M5200 4192 c0 -18 35 -32 97 -38 56 -6 143 9 143 24 0 4 -44 8 -97 8
-54 -1 -108 3 -120 8 -15 5 -23 5 -23 -2z"/>
<path d="M5150 4164 c-11 -29 -13 -55 -4 -78 12 -31 19 -15 21 44 3 65 -2 74
-17 34z"/>
<path d="M5460 4137 c0 -14 -7 -41 -15 -61 -8 -20 -11 -36 -5 -36 22 0 51 102
31 114 -7 5 -11 -2 -11 -17z"/>
<path d="M5274 4108 c-13 -20 99 -29 119 -9 12 12 13 12 -61 14 -30 1 -56 -1
-58 -5z"/>
<path d="M5370 4062 c0 -19 19 -52 30 -52 15 0 12 12 -10 40 -11 14 -20 19
-20 12z"/>
<path d="M5196 4051 c-7 -10 20 -41 35 -41 6 0 6 7 -1 19 -13 25 -27 34 -34
22z"/>
<path d="M5267 4036 c-15 -23 -16 -26 -2 -26 17 0 29 22 23 41 -2 6 -12 0 -21
-15z"/>
<path d="M6203 4845 c-20 -20 -33 -39 -29 -42 4 -4 26 12 49 35 23 23 36 42
28 42 -7 0 -29 -16 -48 -35z"/>
<path d="M5966 4669 c-19 -15 -26 -30 -26 -54 0 -20 -6 -35 -15 -39 -8 -3 -15
-14 -15 -25 0 -19 2 -18 25 5 15 15 25 36 25 54 0 37 26 63 57 57 26 -5 32 8
7 17 -24 9 -29 8 -58 -15z"/>
<path d="M6273 4674 c-17 -12 -26 -13 -43 -4 -18 10 -21 9 -18 -2 7 -19 54
-22 80 -4 30 21 44 20 68 -4 13 -13 20 -15 20 -7 0 37 -66 49 -107 21z"/>
<path d="M6436 4606 c-28 -9 -35 -14 -24 -19 9 -3 32 -1 52 5 45 14 66 -1 66
-48 0 -54 42 -79 91 -54 30 16 22 30 -10 17 -42 -15 -61 -4 -61 38 0 39 -29
76 -57 74 -10 -1 -36 -7 -57 -13z"/>
<path d="M6620 4402 c0 -18 37 -42 64 -42 31 0 66 16 66 31 0 6 -7 6 -19 -1
-28 -14 -63 -12 -89 6 -12 8 -22 11 -22 6z"/>
<path d="M6946 4333 c26 -50 14 -92 -34 -117 l-27 -15 26 -1 c32 0 57 26 65
68 7 36 -12 92 -32 92 -10 0 -10 -5 2 -27z"/>
<path d="M6237 4369 c-31 -18 -9 -27 41 -17 36 8 63 6 106 -5 38 -9 56 -11 53
-3 -9 29 -160 48 -200 25z"/>
<path d="M6283 4290 c-13 -5 -23 -14 -23 -21 0 -6 6 -9 14 -6 9 4 16 -3 20
-19 9 -33 43 -32 52 1 5 21 10 23 37 18 43 -9 26 13 -21 27 -43 12 -50 12 -79
0z"/>
<path d="M6129 4273 c0 -10 -2 -29 -5 -43 -27 -162 -26 -183 8 -201 21 -11
105 -2 114 12 9 15 -21 21 -50 9 -19 -7 -33 -7 -46 0 -18 10 -19 19 -13 125 3
63 3 115 0 115 -4 0 -7 -8 -8 -17z"/>
<path d="M6290 3960 c-14 -4 -56 -8 -94 -9 -56 -1 -67 -3 -57 -13 24 -25 191
-4 191 23 0 10 -5 10 -40 -1z"/>
<path d="M6223 3892 c-24 -2 -43 -7 -43 -13 0 -12 87 -12 95 0 8 14 -4 17 -52
13z"/>
<path d="M4747 4483 c-14 -13 -6 -25 13 -20 26 7 44 -17 36 -49 -8 -31 1 -64
17 -64 7 0 13 19 14 48 1 36 -3 52 -19 70 -21 22 -48 29 -61 15z"/>
<path d="M5656 3532 c-4 -7 -5 -16 -2 -20 10 -17 37 -254 48 -437 9 -137 14
-179 19 -150 20 112 -37 651 -65 607z"/>
<path d="M5568 2485 c-4 -11 -12 -47 -18 -80 -16 -81 -64 -255 -96 -346 -59
-167 -64 -207 -13 -93 56 127 147 473 137 522 -4 15 -5 14 -10 -3z"/>
<path d="M4650 3596 c0 -15 69 -94 185 -215 123 -127 278 -249 373 -294 69
-32 98 -31 34 2 -118 60 -196 124 -409 335 -101 100 -183 177 -183 172z"/>
<path d="M4765 3565 c95 -88 295 -200 405 -228 84 -22 94 -6 13 19 -87 26
-209 87 -322 161 -128 83 -141 90 -96 48z"/>
<path d="M5360 3364 c-37 -36 -105 -74 -133 -74 -9 0 -19 -5 -23 -12 -14 -22
78 0 119 29 40 28 85 79 76 87 -2 2 -20 -12 -39 -30z"/>
<path d="M4655 3290 c26 -138 37 -257 33 -386 -2 -97 0 -140 7 -133 18 18 12
333 -9 429 -10 47 -22 92 -27 100 -7 11 -8 8 -4 -10z"/>
<path d="M5051 3070 c30 -63 202 -251 216 -237 5 5 -26 41 -192 222 -26 29
-33 33 -24 15z"/>
<path d="M5015 2581 c3 -67 10 -119 16 -125 9 -8 10 13 5 84 -10 147 -27 180
-21 41z"/>
<path d="M6164 3514 c15 -58 67 -170 102 -217 39 -54 87 -87 124 -87 25 0 24
0 -5 16 -57 29 -115 98 -161 188 -24 48 -44 94 -44 101 0 8 -5 17 -11 21 -9 5
-10 -1 -5 -22z"/>
<path d="M6120 3508 c3 -197 69 -477 147 -616 42 -77 55 -75 19 2 -39 83 -82
203 -99 282 -22 94 -47 264 -47 314 0 22 -4 40 -10 40 -5 0 -10 -10 -10 -22z"/>
<path d="M6795 3471 c-6 -5 -52 -34 -102 -65 -81 -49 -118 -67 -222 -107 -43
-17 -15 -19 40 -3 90 26 299 149 299 176 0 10 -4 10 -15 -1z"/>
<path d="M6078 3365 c-5 -38 -7 -135 -6 -215 l1 -145 9 145 c4 80 7 177 6 215
l-3 70 -7 -70z"/>
<path d="M6060 1845 c-30 -31 -67 -61 -82 -68 -32 -14 -36 -27 -9 -27 21 0 92
65 129 118 13 17 22 32 20 32 -2 0 -28 -25 -58 -55z"/>
<path d="M7206 2218 c-24 -34 -19 -44 9 -18 14 13 25 27 25 32 0 16 -19 8 -34
-14z"/>
<path d="M6909 2598 c-6 -24 -24 -77 -41 -118 -39 -99 -42 -110 -31 -110 19 0
73 140 88 228 4 23 4 42 1 42 -3 0 -10 -19 -17 -42z"/>
<path d="M4201 1968 c1 -141 4 -199 10 -173 12 59 11 385 -1 385 -6 0 -10 -77
-9 -212z"/>
<path d="M5080 1268 c-158 -246 -322 -437 -465 -543 -104 -76 -156 -98 -255
-105 -81 -6 -83 -7 -55 -19 61 -26 179 5 288 75 89 58 265 234 354 354 100
135 228 350 209 350 -2 0 -36 -51 -76 -112z"/>
<path d="M4523 1249 c-71 -33 -140 -41 -203 -25 -60 16 -74 13 -45 -8 56 -41
217 -20 290 38 27 21 10 19 -42 -5z"/>
<path d="M6936 753 c-2 -16 -17 -92 -32 -171 -24 -128 -26 -168 -8 -149 13 13
64 276 64 332 0 26 -18 16 -24 -12z"/>
<path d="M6222 638 c-30 -127 -38 -217 -16 -195 9 9 43 169 44 205 0 46 -16
40 -28 -10z"/>
</g>
</svg>
