<?xml version="1.0" standalone="no"?>
<!DOCTYPE svg PUBLIC "-//W3C//DTD SVG 20010904//EN"
 "http://www.w3.org/TR/2001/REC-SVG-20010904/DTD/svg10.dtd">
<svg version="1.0" xmlns="http://www.w3.org/2000/svg"
 width="1024.000000pt" height="559.000000pt" viewBox="0 0 1024.000000 559.000000"
 preserveAspectRatio="xMidYMid meet">
<metadata>
Created by potrace 1.16, written by Peter Selinger 2001-2019
</metadata>
<g transform="translate(0.000000,559.000000) scale(0.100000,-0.100000)"
fill="#000000" stroke="none">
<path d="M5099 5147 c-29 -19 -39 -21 -68 -13 -64 18 -165 -25 -196 -83 -9
-19 -25 -30 -45 -35 -25 -5 -35 -14 -47 -46 -9 -22 -21 -40 -28 -40 -17 0 -62
-51 -75 -85 -7 -18 -9 -53 -5 -88 4 -43 2 -62 -9 -79 -21 -30 -20 -101 1 -141
11 -21 16 -51 14 -87 -3 -68 17 -117 64 -163 19 -19 35 -44 35 -56 0 -39 28
-79 65 -92 34 -13 35 -15 35 -64 0 -63 -22 -156 -44 -190 -14 -21 -24 -26 -54
-24 -71 5 -101 -1 -130 -26 -23 -20 -41 -25 -81 -25 -54 0 -128 -29 -137 -55
-3 -7 -31 -23 -62 -35 -127 -50 -194 -118 -251 -254 -39 -93 -77 -244 -91
-361 -8 -61 -23 -118 -46 -175 -83 -200 -86 -208 -70 -239 8 -15 32 -43 52
-61 l37 -32 -22 -147 c-23 -158 -26 -265 -11 -376 6 -44 6 -123 0 -215 -6 -80
-15 -273 -20 -430 -6 -157 -17 -366 -25 -465 -22 -287 -29 -541 -15 -550 6 -4
14 -5 16 -2 3 3 9 103 14 223 5 121 14 271 19 334 13 145 31 559 31 706 0 194
6 197 60 32 27 -79 83 -231 125 -338 l77 -195 10 -185 c7 -127 6 -218 -1 -290
-13 -127 -14 -310 -2 -310 14 0 21 39 21 116 0 39 3 106 6 148 l7 77 28 -50
c32 -55 149 -145 203 -156 17 -4 46 -13 65 -22 27 -12 39 -13 53 -4 10 6 28
11 41 11 55 0 60 42 16 126 -46 85 -69 160 -69 218 l1 51 24 -47 c31 -58 68
-88 111 -88 53 0 61 27 26 97 -16 32 -37 83 -47 113 -29 90 -54 131 -126 205
-77 80 -99 130 -124 287 -11 72 -45 384 -45 420 0 4 21 -5 46 -19 59 -33 117
-28 216 19 73 35 211 133 257 182 41 43 14 30 -86 -44 -169 -125 -299 -173
-369 -137 -53 28 -67 53 -91 170 -26 128 -27 155 -12 208 13 43 29 43 29 0 0
-16 11 -62 24 -102 18 -55 21 -77 13 -87 -32 -39 95 -44 184 -7 137 55 313
188 443 333 112 127 209 288 285 479 47 117 117 368 127 454 5 49 9 58 17 43
6 -11 8 -81 4 -188 -14 -395 -110 -806 -283 -1219 -124 -293 -245 -494 -407
-676 -32 -35 -55 -66 -52 -69 9 -9 103 88 177 183 228 292 444 808 537 1282
75 379 75 823 0 992 -24 55 -47 81 -63 75 -7 -3 -19 2 -26 11 -11 13 -7 15 36
15 31 0 61 -7 81 -20 43 -26 89 -109 110 -200 26 -107 23 -408 -6 -629 -24
-190 -24 -188 -12 -175 13 13 48 258 62 433 14 171 1 337 -35 443 -20 61 -21
68 -6 68 10 0 30 -10 45 -22 16 -13 49 -34 74 -48 108 -59 131 -210 131 -860
0 -300 -4 -394 -20 -530 -37 -310 -99 -595 -200 -915 -82 -258 -236 -644 -326
-814 -31 -56 -52 -106 -49 -110 20 -19 118 159 211 387 l59 144 5 -214 c5
-193 6 -204 12 -118 4 52 10 169 14 260 5 162 6 167 49 290 24 69 49 144 56
168 7 23 15 42 19 42 4 0 10 -42 14 -92 10 -140 26 -437 26 -490 0 -28 5 -48
11 -48 14 0 2 428 -17 595 -12 105 -11 126 2 173 12 40 22 56 41 63 13 5 28 7
33 4 7 -5 20 -63 40 -195 10 -67 50 -625 51 -715 0 -27 -6 -87 -14 -132 -8
-45 -12 -85 -9 -88 14 -14 21 2 36 83 35 181 80 349 107 403 38 76 79 112 197
174 l99 52 27 -44 c35 -54 71 -66 98 -33 25 31 23 68 -7 125 -29 53 -27 63 9
47 35 -16 75 -90 87 -163 16 -91 27 -105 91 -112 56 -5 88 5 88 28 0 8 12 20
28 27 19 9 30 25 36 51 5 20 15 37 23 37 7 0 19 14 25 30 l13 31 39 -20 c21
-11 43 -18 48 -15 15 9 -11 32 -56 49 -34 13 -46 25 -64 65 -29 64 -100 125
-244 210 -132 78 -131 76 -217 295 -91 233 -96 253 -77 274 9 10 16 25 16 34
0 21 45 55 91 67 27 8 39 16 41 33 4 32 63 45 131 28 29 -7 81 -14 117 -15 76
-3 117 -22 159 -73 27 -32 31 -35 31 -16 0 29 -42 77 -85 98 -22 10 -56 16
-88 14 -29 -1 -65 4 -82 12 -16 7 -63 13 -103 13 -70 1 -75 -1 -99 -29 -14
-16 -44 -38 -67 -48 -54 -24 -76 -45 -76 -74 0 -12 -3 -23 -7 -23 -5 1 -38 63
-74 138 -55 113 -69 154 -83 233 -23 136 -22 146 19 186 66 64 68 76 29 178
-19 50 -68 194 -109 320 -97 302 -100 309 -134 360 -16 23 -34 59 -41 79 -15
47 -53 92 -99 117 -20 11 -51 31 -70 44 -19 14 -48 25 -66 25 -22 0 -40 9 -60
30 -34 35 -105 60 -153 52 -29 -4 -33 -2 -30 14 2 11 17 21 38 27 38 9 85 48
105 87 21 41 45 165 45 232 0 35 7 96 15 136 13 59 13 85 4 138 -8 48 -8 76 0
109 6 24 11 55 11 69 0 14 4 26 8 26 20 0 45 67 38 101 -4 19 -8 63 -9 99 -2
76 -20 111 -73 142 -19 11 -44 38 -55 60 -27 52 -93 84 -147 71 -31 -7 -43 -5
-71 14 -47 32 -125 32 -172 0z m147 -23 c19 -9 34 -20 34 -25 0 -5 27 -6 60
-2 69 7 101 -8 126 -60 9 -18 33 -43 55 -55 49 -29 69 -66 68 -134 0 -29 2
-71 6 -94 5 -30 3 -43 -9 -53 -13 -11 -16 -11 -20 0 -2 8 -13 43 -24 79 -15
47 -17 70 -10 83 16 31 -6 42 -26 13 -9 -15 -25 -26 -36 -26 -29 0 -60 36 -60
69 0 16 -9 39 -20 52 l-20 24 7 -48 c5 -41 3 -51 -17 -72 -13 -14 -33 -25 -45
-25 -18 0 -21 5 -17 29 5 36 -26 71 -63 71 -21 0 -25 -5 -25 -28 0 -46 -25
-72 -71 -72 -33 0 -41 4 -49 25 -13 34 -30 32 -30 -4 0 -32 -34 -81 -56 -81
-9 0 -14 11 -14 36 0 21 -4 33 -10 29 -16 -10 -12 -71 5 -85 20 -17 58 -1 80
34 15 22 22 24 63 19 59 -6 98 20 108 73 5 29 9 33 21 22 13 -11 14 -33 2 -78
-9 -35 112 -18 125 17 5 13 11 10 32 -12 19 -21 32 -26 55 -23 28 4 30 2 44
-46 9 -28 19 -71 22 -95 6 -41 5 -44 -13 -37 -39 15 -72 18 -93 7 -34 -19 -24
-31 25 -31 80 0 80 0 82 -155 2 -120 -2 -158 -24 -234 -3 -10 -11 -6 -29 13
-20 21 -55 36 -55 22 0 -14 72 -76 82 -70 8 5 10 -11 5 -62 -8 -88 -31 -163
-59 -199 l-22 -29 -7 25 -6 24 -11 -28 c-18 -42 -102 -67 -102 -29 -1 16 -1
16 -11 0 -17 -29 -56 -22 -74 12 -17 33 -36 33 -28 0 4 -14 0 -20 -11 -20 -23
0 -64 42 -72 74 -8 33 -28 34 -22 1 6 -30 4 -31 -33 -4 -20 14 -31 32 -35 60
-7 40 -24 54 -24 19 0 -28 -15 -25 -37 8 -35 50 -44 86 -64 235 -20 154 -35
206 -70 244 -60 63 -139 16 -139 -84 0 -73 78 -193 126 -193 8 0 14 -6 14 -14
0 -7 3 -28 6 -45 5 -24 3 -31 -9 -31 -21 0 -57 48 -57 76 0 13 -19 45 -45 73
-47 54 -61 97 -52 158 4 25 0 47 -13 74 -25 48 -25 85 -1 130 16 29 18 44 11
74 -15 68 4 121 55 155 14 9 34 32 43 51 12 23 26 36 45 39 17 3 35 17 47 37
36 60 109 89 180 71 36 -9 42 -8 70 16 37 31 85 34 136 10z m-433 -622 c20
-21 31 -48 42 -106 22 -112 21 -116 -18 -116 -40 0 -67 25 -96 90 -25 54 -27
107 -5 138 20 30 45 28 77 -6z m73 -334 c20 -95 51 -147 125 -207 94 -76 161
-105 248 -110 l73 -3 -8 -52 c-11 -72 -11 -150 1 -156 6 -3 11 14 13 40 4 73
7 75 56 40 114 -77 33 -200 -131 -200 -95 0 -335 68 -505 144 -55 24 -58 28
-58 61 0 25 6 37 21 46 12 6 41 29 65 51 65 60 79 111 79 285 0 78 1 140 3
138 2 -2 10 -36 18 -77z m-146 -343 c-7 -8 -24 -21 -39 -28 -22 -10 -27 -20
-31 -66 -9 -83 -24 -91 -176 -91 -100 0 -134 -4 -178 -20 -64 -25 -107 -56
-100 -73 2 -7 -12 -35 -32 -61 -38 -50 -87 -149 -125 -255 -30 -85 -35 -64 -9
40 33 128 77 232 125 298 35 47 57 66 111 93 62 30 77 33 154 33 47 0 97 -3
113 -8 15 -4 27 -4 27 0 0 17 -44 35 -96 40 -30 3 -54 10 -54 14 0 5 14 16 31
25 31 16 86 15 138 -1 21 -7 22 -5 16 14 -5 18 0 24 37 41 24 11 56 20 72 20
24 0 27 -2 16 -15z m45 -204 c284 -121 483 -160 585 -114 25 11 51 27 59 36 7
10 17 17 22 17 24 0 -1 -226 -41 -373 -92 -346 -199 -560 -383 -770 l-60 -69
-37 89 c-37 88 -109 301 -130 381 -6 23 -15 40 -19 37 -22 -13 61 -287 130
-431 l41 -88 -28 -24 c-58 -48 -186 -142 -194 -142 -4 0 -10 21 -13 48 -26
216 -36 332 -42 487 -7 205 -28 406 -51 483 -24 86 -31 59 -13 -53 10 -58 23
-206 29 -328 19 -395 39 -568 70 -627 9 -16 5 -22 -22 -37 -70 -37 -114 -54
-153 -60 l-42 -5 -21 51 c-12 28 -31 96 -42 151 -18 85 -19 107 -8 141 l12 41
17 -23 c39 -52 55 -10 89 221 29 196 26 498 -4 388 -3 -13 -6 -70 -6 -128 0
-58 -9 -166 -20 -240 -33 -230 -33 -228 -61 -194 -7 9 -59 38 -114 63 -55 26
-128 66 -162 90 -72 49 -159 86 -225 95 l-47 7 36 82 c42 98 91 224 143 367
75 208 135 305 231 376 l54 39 99 0 c77 0 101 -3 108 -15 5 -8 74 -125 154
-259 80 -135 175 -288 211 -340 71 -103 166 -226 183 -236 25 -15 5 22 -58
107 -38 51 -87 121 -110 154 -50 74 -352 575 -352 584 0 3 16 12 36 19 19 7
38 19 41 27 7 19 6 19 108 -25z m1148 -356 c60 -190 153 -468 172 -517 l19
-46 -27 -35 c-25 -33 -179 -157 -195 -157 -4 0 -5 47 -4 105 4 105 -14 663
-24 760 -5 47 -4 49 9 25 8 -14 30 -74 50 -135z m-1954 -571 c2 -2 1 -15 -3
-29 -5 -21 -10 -24 -25 -16 -10 6 -26 22 -35 36 l-17 26 38 -7 c21 -4 40 -8
42 -10z m196 -94 c50 -32 120 -71 158 -86 37 -15 67 -33 67 -40 0 -7 -16 -61
-35 -121 -39 -120 -42 -167 -19 -263 19 -80 29 -163 44 -345 13 -170 42 -347
70 -438 18 -59 32 -79 94 -145 76 -79 94 -108 116 -177 6 -22 26 -70 43 -108
16 -37 27 -70 23 -74 -3 -4 -18 -3 -33 3 -18 6 -40 32 -68 79 -48 83 -74 96
-76 38 -5 -110 12 -183 63 -287 26 -52 36 -82 30 -88 -6 -6 -15 -7 -22 -3 -31
19 -92 114 -125 195 -21 49 -42 90 -46 90 -14 0 -11 -18 16 -92 32 -88 40
-103 81 -155 65 -79 36 -86 -42 -10 -42 40 -62 72 -91 139 -21 48 -42 87 -48
85 -13 -3 -10 -17 22 -100 14 -37 36 -81 50 -98 14 -16 23 -32 20 -35 -10 -11
-84 66 -100 103 -9 21 -25 60 -36 86 -31 73 -45 49 -17 -28 27 -75 18 -88 -12
-18 -30 73 -43 150 -52 322 -9 173 4 125 -139 496 -101 259 -141 424 -156 645
-6 91 8 238 46 457 l11 61 36 -15 c21 -8 78 -41 127 -73z m1864 -137 c16 -115
34 -170 88 -270 25 -46 68 -149 98 -231 91 -256 149 -393 180 -428 17 -19 82
-65 145 -103 122 -72 126 -76 170 -189 27 -70 27 -182 0 -182 -5 0 -8 34 -8
75 0 63 -5 85 -30 140 -17 36 -36 65 -41 65 -16 0 -14 -12 14 -72 21 -44 25
-68 25 -144 0 -62 -4 -96 -14 -110 -8 -10 -17 -16 -21 -12 -4 3 -8 48 -9 100
-1 79 -6 103 -30 155 -27 60 -51 91 -61 81 -3 -3 8 -34 25 -71 16 -36 32 -84
36 -106 9 -57 -4 -151 -21 -151 -15 0 -20 12 -34 90 -14 78 -25 103 -67 149
-29 32 -43 41 -70 41 -18 0 -36 5 -39 10 -10 16 -25 1 -19 -18 3 -9 19 -44 36
-77 23 -45 29 -68 24 -88 -3 -15 -10 -27 -15 -27 -7 0 -51 55 -138 174 -13 17
-25 46 -28 66 -13 85 -27 108 -146 250 -66 80 -142 178 -169 217 -45 70 -47
76 -55 170 -10 126 -9 134 9 291 9 74 16 151 16 171 0 35 4 40 63 78 34 23 65
42 68 42 3 1 11 -38 18 -86z m-211 -650 c-28 -58 -34 -32 -14 64 l21 98 3 -68
c2 -41 -2 -78 -10 -94z m90 -68 c24 -35 92 -122 151 -192 122 -145 131 -159
131 -203 0 -38 21 -89 55 -134 30 -40 33 -37 -91 -99 -64 -32 -103 -60 -132
-92 -39 -44 -81 -137 -98 -215 l-8 -35 -7 40 c-4 22 -10 99 -14 170 -8 176
-33 400 -56 515 -11 52 -19 102 -18 110 1 8 2 45 3 83 2 60 19 118 35 117 3 0
25 -29 49 -65z m-108 -58 c0 -33 -6 -49 -25 -67 -14 -13 -26 -22 -28 -19 -2 2
3 32 11 67 17 75 42 87 42 19z m953 -434 c18 -35 31 -103 19 -103 -4 0 -15 29
-23 65 -8 36 -14 65 -12 65 1 0 9 -12 16 -27z"/>
<path d="M4924 4768 c21 -70 19 -94 -11 -128 -29 -32 -29 -34 -16 -73 12 -35
12 -42 -2 -64 -19 -28 -16 -36 9 -27 21 8 30 45 22 89 -6 30 -3 41 18 66 32
37 33 82 6 127 -23 37 -35 42 -26 10z"/>
<path d="M5107 4640 c-55 -21 -79 -38 -72 -51 3 -4 26 1 51 11 29 13 68 20
109 20 69 0 92 14 50 30 -39 15 -84 11 -138 -10z"/>
<path d="M5360 4570 c0 -14 12 -63 25 -109 29 -99 32 -146 9 -155 -25 -10 -98
6 -111 23 -10 14 -12 14 -19 -3 -10 -25 14 -42 71 -51 30 -4 54 -2 72 7 26 13
28 18 27 68 -1 30 -14 93 -29 140 -29 91 -45 120 -45 80z"/>
<path d="M5113 4550 c-18 -11 -33 -24 -33 -30 0 -14 7 -13 35 6 24 15 25 15
25 -4 0 -11 6 -25 14 -31 20 -16 46 -3 46 24 0 19 4 22 23 17 22 -5 22 -5 3
16 -24 28 -70 28 -113 2z"/>
<path d="M5422 4558 c-17 -17 -15 -31 2 -25 10 4 16 -2 18 -16 3 -22 48 -39
48 -18 0 5 7 17 16 26 13 12 14 19 4 30 -15 18 -71 20 -88 3z"/>
<path d="M4914 4397 c7 -57 41 -139 67 -163 30 -27 33 -10 5 33 -13 21 -32 65
-41 98 -22 78 -40 96 -31 32z"/>
<path d="M5162 4254 c-38 -23 -72 -67 -72 -94 0 -19 20 -10 29 13 11 27 46 59
89 81 17 9 32 19 32 21 0 13 -39 2 -78 -21z"/>
<path d="M5020 4232 c0 -12 30 -52 40 -52 5 0 1 13 -8 30 -16 28 -32 39 -32
22z"/>
<path d="M5202 4189 c6 -19 42 -27 120 -28 70 -1 118 11 118 29 0 7 -13 8 -37
3 -48 -10 -95 -10 -157 0 -38 7 -47 6 -44 -4z"/>
<path d="M5155 4175 c-11 -24 -13 -91 -2 -101 14 -14 18 4 15 62 -3 46 -5 55
-13 39z"/>
<path d="M5457 4128 c-3 -18 -9 -46 -12 -63 -7 -27 -6 -29 9 -15 18 18 34 110
18 110 -5 0 -12 -15 -15 -32z"/>
<path d="M5272 4108 c7 -20 102 -22 118 -3 11 13 5 15 -55 15 -49 0 -66 -3
-63 -12z"/>
<path d="M5370 4056 c0 -19 29 -48 41 -40 5 3 1 16 -8 29 -20 28 -33 32 -33
11z"/>
<path d="M5200 4048 c0 -18 27 -44 37 -34 4 4 -3 16 -15 29 -18 17 -22 18 -22
5z"/>
<path d="M5270 4039 c-7 -11 -9 -24 -5 -27 7 -7 35 25 35 40 0 16 -19 8 -30
-13z"/>
<path d="M4747 4483 c-14 -13 -6 -25 13 -20 26 7 44 -17 36 -49 -8 -31 1 -64
17 -64 21 0 15 95 -7 119 -19 21 -46 27 -59 14z"/>
<path d="M4660 3573 c42 -55 267 -278 352 -349 103 -86 157 -119 216 -132 60
-14 62 3 1 23 -83 28 -263 176 -493 406 -78 78 -117 105 -76 52z"/>
<path d="M4740 3583 c0 -31 335 -232 455 -273 100 -34 177 -20 227 43 30 38
20 38 -34 1 -49 -33 -58 -36 -111 -32 -45 3 -83 17 -185 68 -111 55 -233 125
-324 184 -16 10 -28 14 -28 9z"/>
<path d="M4210 2276 c0 -2 9 -24 19 -49 19 -43 37 -64 47 -54 8 7 -45 107 -56
107 -6 0 -10 -2 -10 -4z"/>
<path d="M5941 2254 c-29 -24 -40 -44 -23 -44 4 0 25 16 47 35 27 23 35 34 23
35 -9 0 -30 -12 -47 -26z"/>
<path d="M5728 3167 c3 -210 0 -308 -13 -432 -78 -740 -260 -1311 -608 -1915
-53 -91 -93 -167 -91 -170 25 -24 327 530 421 770 142 366 219 666 283 1107
18 128 40 406 40 518 0 124 -19 376 -29 387 -4 5 -5 -115 -3 -265z"/>
<path d="M5178 2218 c-240 -369 -459 -581 -640 -618 -67 -13 -77 -30 -18 -30
129 0 336 159 515 395 113 149 236 355 212 355 -1 0 -33 -46 -69 -102z"/>
<path d="M4057 1248 c-9 -147 -7 -586 2 -618 15 -51 21 72 21 401 0 328 -11
430 -23 217z"/>
<path d="M6226 661 c-11 -18 -19 -231 -9 -231 15 0 20 28 28 143 5 66 4 97 -3
97 -6 0 -13 -4 -16 -9z"/>
</g>
</svg>
