<?xml version="1.0" standalone="no"?>
<!DOCTYPE svg PUBLIC "-//W3C//DTD SVG 20010904//EN"
 "http://www.w3.org/TR/2001/REC-SVG-20010904/DTD/svg10.dtd">
<svg version="1.0" xmlns="http://www.w3.org/2000/svg"
 width="1024.000000pt" height="559.000000pt" viewBox="0 0 1024.000000 559.000000"
 preserveAspectRatio="xMidYMid meet">
<metadata>
Created by potrace 1.16, written by Peter Selinger 2001-2019
</metadata>
<g transform="translate(0.000000,559.000000) scale(0.100000,-0.100000)"
fill="#000000" stroke="none">
<path d="M5090 5149 c-14 -6 -41 -8 -60 -5 -54 8 -105 -11 -161 -60 -49 -44
-72 -53 -84 -34 -12 19 -73 11 -102 -13 -15 -13 -43 -29 -61 -37 -36 -14 -62
-54 -62 -96 0 -15 -8 -32 -17 -39 -11 -9 -16 -25 -15 -49 1 -20 3 -44 3 -53 1
-10 -2 -34 -6 -53 -5 -28 -2 -41 16 -64 12 -15 23 -42 25 -59 2 -32 34 -67 60
-67 8 0 14 -7 14 -15 0 -20 52 -45 78 -38 16 4 22 1 22 -12 0 -21 63 -85 84
-85 24 0 19 -15 -9 -28 -29 -13 -41 -52 -26 -80 16 -30 14 -55 -4 -49 -26 11
-26 -12 0 -29 21 -14 30 -15 51 -5 24 10 26 16 22 62 -3 45 0 53 21 68 l24 16
-5 -62 c-7 -69 -38 -134 -73 -153 -19 -10 -27 -10 -46 3 -16 12 -35 15 -68 10
-51 -6 -121 -32 -121 -45 0 -4 -6 -8 -13 -8 -25 0 -88 -81 -86 -109 2 -14 -7
-44 -18 -67 -12 -22 -45 -98 -74 -170 -28 -71 -65 -156 -80 -188 -38 -79 -37
-102 8 -148 l36 -37 -12 -58 c-7 -32 -24 -89 -37 -128 -37 -111 -53 -228 -60
-447 -5 -180 -9 -216 -35 -314 -33 -125 -36 -178 -14 -232 32 -76 149 -168
181 -141 19 16 18 33 -6 79 -21 42 -27 124 -10 150 8 12 10 11 10 -6 0 -62 45
-119 75 -94 23 19 9 191 -22 273 -32 85 -30 99 43 317 32 96 61 206 70 265 15
105 44 225 54 225 3 0 5 -27 5 -59 0 -48 5 -64 23 -84 31 -33 28 -47 -18 -92
-57 -56 -76 -110 -60 -173 12 -46 11 -51 -14 -94 -22 -38 -26 -57 -25 -114 0
-38 -2 -89 -6 -113 -4 -26 -2 -72 5 -111 11 -57 10 -76 -4 -131 -18 -72 -20
-171 -7 -267 9 -59 8 -67 -21 -128 l-31 -65 28 -86 c24 -73 27 -90 17 -117
-21 -57 -9 -137 25 -178 13 -14 12 -31 -1 -130 -9 -62 -21 -133 -27 -156 -5
-24 -7 -53 -4 -63 8 -24 69 -56 136 -70 l51 -11 -6 -52 c-3 -28 -24 -105 -46
-171 -46 -137 -51 -202 -20 -252 26 -43 87 -73 148 -73 103 0 132 62 131 278
-1 74 3 137 7 142 5 4 54 17 108 30 106 24 191 23 207 -1 12 -18 4 -276 -11
-349 -6 -30 -11 -65 -12 -76 0 -25 130 -162 177 -186 70 -36 195 -30 249 13
21 16 26 29 26 64 0 41 -6 51 -66 117 -37 40 -82 97 -101 125 -35 51 -36 55
-36 151 0 55 3 104 7 110 4 6 23 19 42 28 20 10 41 28 46 40 12 25 19 28 83
39 22 3 57 17 78 31 41 27 40 18 22 165 l-5 36 60 -21 c36 -12 61 -27 63 -38
3 -10 23 -24 44 -33 44 -17 38 -2 79 -225 34 -186 20 -219 -147 -363 -70 -60
-89 -99 -68 -139 16 -29 70 -48 137 -48 52 0 73 7 178 60 121 62 159 92 149
118 -11 28 -37 159 -45 227 -9 74 11 350 27 366 13 13 123 39 165 39 34 0 41
-5 76 -52 97 -133 116 -167 120 -227 4 -59 -27 -209 -54 -263 -35 -68 -6 -127
66 -135 99 -11 191 45 217 133 7 21 24 79 39 128 37 122 36 134 -21 200 -26
31 -51 56 -56 56 -19 0 -99 168 -99 208 0 23 43 72 87 98 70 41 71 47 14 188
-78 195 -131 401 -151 591 -29 263 -70 447 -127 559 -24 46 -24 50 -9 80 17
33 46 138 46 168 0 12 13 21 39 28 21 5 41 17 44 25 4 8 -3 85 -13 171 l-20
157 30 34 c33 37 39 86 20 153 -16 54 -77 136 -128 170 -49 33 -99 37 -212 20
-51 -8 -57 -7 -77 16 -21 23 -58 123 -49 132 3 2 14 1 26 -3 17 -5 20 -12 16
-31 -6 -21 -2 -26 24 -36 24 -8 29 -14 24 -30 -4 -14 -2 -18 5 -14 18 11 13
44 -9 56 -15 8 -18 17 -13 42 5 25 2 34 -18 49 l-24 18 26 28 c35 37 49 65 57
114 7 38 8 39 27 25 17 -13 18 -18 8 -35 -20 -32 -15 -68 11 -88 18 -15 23
-28 22 -58 -1 -28 3 -40 14 -42 10 -3 15 5 17 24 0 16 4 41 8 56 5 20 3 33
-10 47 -16 18 -17 24 -5 60 11 34 11 42 -4 65 -10 14 -23 28 -31 31 -11 4 -8
11 11 27 37 32 55 142 31 192 -9 20 -17 44 -17 55 0 31 -55 77 -100 84 -22 3
-58 9 -80 12 -26 4 -46 2 -55 -6 -13 -11 -25 -8 -68 16 -44 24 -66 29 -142 32
-64 3 -101 0 -130 -11 -22 -9 -70 -26 -107 -40 -80 -30 -111 -52 -155 -115
-18 -26 -40 -57 -49 -69 -8 -12 -17 -50 -20 -88 -2 -37 -6 -71 -10 -76 -3 -6
-20 -1 -39 11 -25 15 -47 20 -82 18 -37 -2 -48 0 -51 13 -2 11 11 21 42 33
106 40 196 215 196 379 0 31 7 45 41 77 33 31 40 45 37 65 -3 14 1 33 8 42 20
27 17 94 -6 123 -11 14 -20 39 -20 56 0 29 -37 76 -68 85 -7 2 -29 26 -50 53
-49 65 -80 86 -133 93 -24 3 -63 11 -87 19 -49 16 -67 17 -102 3z m-25 -30
c70 14 117 11 148 -8 37 -23 52 -27 42 -11 -18 28 78 -6 110 -40 l29 -30 -48
16 c-35 12 -72 15 -144 12 -83 -3 -107 -8 -165 -36 -38 -17 -82 -42 -100 -54
-19 -14 -44 -22 -66 -21 l-36 1 35 -6 c24 -5 31 -10 22 -16 -7 -4 -27 -27 -43
-49 -22 -31 -38 -42 -57 -43 -15 0 -34 -2 -42 -5 -11 -3 -14 3 -12 26 2 17 8
34 13 40 5 5 9 18 9 28 0 33 37 81 78 105 22 12 42 29 45 36 14 35 99 68 147
58 13 -3 29 -4 35 -3z m-292 -85 c13 -5 11 -11 -9 -41 -13 -20 -24 -44 -24
-53 0 -10 -7 -31 -15 -46 -8 -16 -15 -37 -15 -47 0 -10 -7 -25 -15 -34 -10 -9
-16 -33 -16 -62 1 -25 -2 -65 -5 -89 -8 -56 0 -85 37 -127 25 -28 28 -36 16
-41 -25 -9 -51 0 -61 21 -5 11 -23 27 -40 35 -25 12 -31 21 -30 45 0 19 -7 35
-18 44 -31 22 -40 58 -23 92 12 21 13 34 5 48 -15 30 -12 56 10 76 13 12 20
31 20 55 0 47 28 74 76 73 19 -1 41 -7 49 -13 10 -8 15 -9 15 -2 0 6 -12 18
-26 25 l-27 14 24 16 c24 18 47 21 72 11z m556 -4 c38 -11 85 -39 78 -47 -3
-2 -18 2 -34 11 -21 10 -67 15 -154 17 -130 3 -159 -4 -179 -41 -8 -14 -21
-20 -46 -20 -38 0 -94 -44 -94 -74 0 -9 -7 -16 -15 -16 -24 0 -18 13 28 56 55
53 88 73 167 101 70 25 187 31 249 13z m-161 -45 c24 -10 38 -12 40 -5 6 16
43 12 65 -7 19 -17 20 -17 14 0 -5 14 -1 17 26 17 18 -1 43 -7 57 -15 14 -8
39 -14 56 -15 47 0 84 -34 84 -77 0 -20 9 -46 20 -60 23 -30 25 -58 5 -93 -8
-14 -14 -39 -15 -56 0 -18 -8 -39 -20 -49 -19 -17 -19 -16 -17 49 2 61 0 68
-25 89 -15 12 -31 33 -36 46 -5 15 -22 28 -43 35 -24 8 -39 22 -53 50 l-19 39
-15 -29 c-20 -41 -40 -54 -82 -54 -31 0 -38 -4 -51 -32 -13 -31 -17 -33 -66
-34 -70 -2 -83 -8 -83 -42 0 -29 -20 -54 -52 -65 -13 -4 -18 -17 -18 -41 0
-48 -18 -55 -47 -17 -32 40 -73 42 -102 5 -53 -67 7 -214 86 -214 20 0 23 -5
23 -35 0 -24 -6 -37 -19 -45 -34 -18 -52 -42 -46 -61 3 -10 7 -28 10 -38 4
-13 -1 -23 -15 -31 -19 -10 -20 -9 -15 12 3 13 1 36 -4 51 -14 36 -7 49 34 71
46 25 44 40 -5 55 -45 13 -80 58 -80 102 0 14 -9 34 -21 45 -31 28 -49 68 -49
109 0 37 10 44 30 20 7 -8 22 -15 34 -14 21 0 21 0 -1 9 -45 18 -73 134 -33
136 8 0 26 4 40 9 14 5 33 8 43 6 10 -1 26 4 35 12 10 9 31 17 47 19 22 2 31
9 33 25 5 32 49 63 88 63 23 0 37 6 44 21 7 11 26 27 43 34 40 18 31 18 75 0z
m211 -165 c12 0 21 -6 21 -16 0 -8 14 -29 30 -46 23 -22 30 -39 30 -67 l0 -38
-50 5 c-33 3 -50 1 -50 -7 0 -6 16 -11 38 -11 57 0 65 -9 53 -61 -6 -24 -11
-71 -11 -104 -1 -70 -29 -148 -80 -219 -86 -119 -198 -116 -330 10 -68 65 -81
57 -19 -11 49 -53 94 -83 152 -100 35 -10 41 -16 39 -35 -5 -30 6 -70 18 -70
6 0 10 7 10 15 0 14 3 14 30 0 62 -32 25 -104 -67 -131 -69 -20 -135 -14 -242
22 -70 23 -181 81 -181 94 0 3 13 11 29 18 86 38 112 84 119 208 6 119 -2 164
-27 157 -29 -7 -59 14 -81 57 -24 47 -26 88 -4 118 21 30 49 28 76 -8 34 -47
81 -33 81 25 0 18 8 30 28 41 17 8 31 25 35 42 11 51 11 51 62 49 52 -2 78 11
92 49 6 16 20 23 52 27 25 3 49 14 58 25 14 18 16 18 41 -10 15 -15 36 -28 48
-28z m591 -379 c68 -26 116 -64 151 -119 38 -61 37 -71 -6 -33 -20 17 -45 31
-55 31 -11 0 -20 4 -20 10 0 14 -44 41 -72 44 -12 1 -37 10 -53 18 -27 15 -59
18 -194 19 -31 0 -32 1 -15 13 58 40 183 48 264 17z m194 -27 c9 -3 16 -10 16
-15 0 -4 -6 -6 -14 -3 -8 3 -23 1 -33 -5 -16 -9 -15 -10 9 -11 40 0 57 -10 73
-41 23 -44 18 -53 -16 -25 -17 14 -36 26 -43 26 -18 0 -68 59 -61 70 7 11 45
13 69 4z m-524 -21 c-1 -23 -39 -51 -72 -55 -31 -3 -35 -2 -25 11 27 32 97 64
97 44z m139 -4 c48 -17 24 -33 -29 -19 -23 6 -55 8 -72 5 -21 -5 -28 -4 -24 4
4 6 10 10 14 7 4 -2 16 0 27 5 28 11 47 11 84 -2z m492 -18 c33 -34 39 -86 13
-126 -29 -44 -44 -39 -37 14 5 44 -2 72 -34 134 -11 20 32 4 58 -22z m-357 -2
c28 -22 35 -49 12 -49 -8 0 -17 7 -20 15 -3 9 -22 23 -41 31 -19 8 -35 16 -35
19 0 14 61 2 84 -16z m-165 -18 c11 -7 7 -13 -17 -25 -34 -17 -70 -20 -90 -7
-11 6 -11 10 0 18 29 23 82 30 107 14z m249 -7 c12 -8 29 -28 37 -44 14 -26
13 -28 -8 -34 -43 -11 -84 -6 -102 14 -17 18 -16 19 10 26 19 5 35 1 56 -15
34 -25 40 -11 7 16 -13 10 -29 26 -37 36 -11 14 -11 17 1 17 7 0 24 -7 36 -16z
m-110 -6 c22 -22 13 -28 -37 -28 -49 0 -68 10 -56 30 9 14 78 13 93 -2z m-288
-28 c0 -5 -22 -21 -50 -35 -39 -20 -50 -22 -50 -11 0 21 48 56 76 56 13 0 24
-4 24 -10z m259 -25 c20 4 32 2 38 -8 10 -18 46 -37 68 -37 10 0 26 -11 37
-25 11 -14 29 -25 40 -25 11 0 32 -12 45 -26 21 -23 30 -26 73 -22 44 4 49 3
54 -18 6 -23 -8 -74 -20 -74 -3 0 -15 11 -26 25 -14 18 -29 25 -54 25 -31 0
-37 -4 -53 -42 l-18 -42 -31 43 -32 44 37 18 38 17 -57 -5 c-48 -5 -63 -2 -95
17 -32 20 -52 24 -128 24 -69 1 -97 5 -118 19 -38 24 -60 62 -52 87 6 18 12
20 49 15 27 -4 54 -2 76 7 32 13 38 13 67 -5 22 -13 42 -17 62 -12z m340 9
c13 -16 21 -41 21 -63 l0 -36 -20 25 c-10 14 -26 42 -34 63 -12 30 -12 37 -1
37 7 0 23 -12 34 -26z m-99 -16 c32 -35 25 -53 -10 -26 -29 21 -40 48 -20 48
5 0 18 -10 30 -22z m-526 -110 c-9 -18 -31 -51 -49 -73 -43 -53 -47 -71 -31
-133 8 -34 10 -52 3 -49 -43 14 -79 153 -57 216 19 56 59 101 104 120 l41 18
3 -33 c2 -18 -5 -48 -14 -66z m756 61 c0 -36 -47 -89 -79 -89 -12 0 -21 2 -21
4 0 2 -3 11 -6 19 -3 9 8 22 31 35 19 12 40 33 47 46 14 32 28 24 28 -15z
m-867 -11 c-13 -26 -18 -29 -21 -15 -4 19 14 47 29 47 5 0 2 -15 -8 -32z m626
16 c21 -15 22 -18 7 -26 -26 -15 -93 13 -80 33 9 14 48 10 73 -7z m85 -16 c24
-34 19 -44 -9 -18 -14 13 -25 27 -25 32 0 16 19 8 34 -14z m-533 -40 c26 -20
45 -23 124 -25 74 -2 101 -7 127 -23 18 -11 40 -20 49 -20 8 0 25 -17 37 -38
43 -78 80 -89 98 -29 7 24 15 33 36 35 73 9 79 -148 7 -180 -32 -14 -32 -16
-19 -107 12 -87 52 -164 98 -192 20 -12 39 -24 41 -26 10 -7 -67 -76 -115
-103 -107 -62 -215 -69 -248 -17 -26 41 -28 64 -7 70 13 3 21 -1 24 -15 9 -34
28 -10 21 26 -5 30 -2 35 29 55 35 22 100 108 112 149 10 34 -2 26 -29 -20
-31 -54 -102 -124 -139 -137 -43 -17 -67 -13 -132 17 -70 33 -121 86 -152 157
-12 28 -33 76 -47 108 l-25 58 32 19 c18 11 38 20 45 20 6 0 12 5 12 10 0 17
-36 11 -63 -10 -14 -11 -28 -20 -31 -20 -3 0 -10 18 -16 41 -9 33 -8 44 4 62
9 12 32 44 51 71 19 26 35 57 35 67 0 24 4 24 41 -3z m525 -3 c18 -14 17 -15
-20 -13 -22 2 -41 9 -44 16 -5 17 40 15 64 -3z m144 -44 c0 -12 -40 -41 -57
-41 -7 0 -13 9 -13 21 0 11 3 18 8 16 4 -3 16 -1 27 4 27 11 35 11 35 0z
m-1545 -52 c-31 -12 -45 -10 -45 5 0 19 21 25 45 13 19 -10 19 -10 0 -18z
m-55 12 c0 -6 -4 -12 -9 -16 -6 -3 -7 -28 -4 -55 7 -60 -10 -68 -33 -15 -17
42 -18 67 -2 83 14 14 48 16 48 3z m652 -23 c41 -19 49 -28 54 -58 9 -46 26
-80 58 -109 24 -23 26 -30 26 -115 -1 -243 -52 -700 -106 -941 -115 -515 -280
-890 -508 -1158 -107 -124 -240 -224 -322 -241 -28 -6 -32 -4 -45 26 -14 35
-16 76 -5 148 6 34 2 60 -13 104 -25 71 -26 86 -5 134 14 33 17 35 24 17 13
-31 12 40 -2 165 -10 94 -9 118 6 200 13 66 16 108 11 144 -5 28 -8 76 -7 106
1 30 3 87 5 125 1 39 9 86 17 105 l15 35 5 -30 c12 -70 96 -29 246 120 115
114 194 218 263 345 56 103 51 111 -8 12 -77 -129 -137 -207 -238 -313 -89
-93 -199 -179 -228 -179 -8 0 -15 21 -19 58 -4 31 -10 76 -13 99 -5 44 14 89
55 127 19 16 19 16 9 -24 -6 -22 -17 -40 -24 -40 -7 0 -13 -4 -13 -10 0 -5 10
-10 23 -10 101 0 380 345 539 665 98 196 174 468 138 490 -14 9 -12 25 3 25 6
0 33 -10 59 -22z m-712 -93 c11 -42 -14 -46 -35 -5 -18 35 -20 81 -3 98 10 10
15 2 24 -35 6 -27 12 -52 14 -58z m1647 61 c26 -23 27 -26 15 -58 -16 -45 -15
-63 3 -78 8 -7 15 -17 15 -22 0 -8 -10 -2 -45 30 -13 12 -13 17 0 42 22 42 19
59 -15 78 -16 9 -30 20 -30 25 0 15 30 6 57 -17z m-1517 -21 c134 -98 324
-140 440 -96 27 11 50 17 50 14 0 -22 -50 -166 -87 -253 -68 -157 -164 -321
-279 -475 -78 -106 -78 -106 -103 -38 -12 32 -33 101 -46 153 -18 69 -23 81
-19 45 8 -75 33 -164 60 -219 22 -43 23 -51 11 -64 -23 -22 -51 -6 -92 51 -24
34 -34 43 -30 27 4 -14 19 -37 33 -52 19 -21 22 -28 10 -28 -31 0 -79 23 -89
42 -13 25 -3 261 17 402 18 124 17 187 -2 87 -7 -40 -15 -75 -17 -78 -2 -2 -7
32 -11 76 -4 43 -11 92 -17 108 -7 23 -8 21 -4 -17 11 -104 17 -319 11 -371
l-7 -57 -50 24 c-27 13 -85 51 -130 84 -44 33 -84 60 -87 60 -4 0 -13 4 -20 9
-11 7 -10 16 6 47 10 22 45 102 76 179 90 221 95 230 126 242 17 6 34 7 44 1
9 -5 22 -6 29 -1 6 4 22 6 34 5 12 -2 25 3 30 11 4 8 17 16 28 18 16 3 21 13
23 52 2 26 6 47 9 47 3 0 27 -16 53 -35z m-193 -22 c12 -53 8 -70 -13 -52 -16
13 -29 73 -19 88 12 21 20 11 32 -36z m1628 -5 c-8 -47 -24 -78 -64 -121 l-25
-28 29 -24 30 -25 -32 11 c-18 6 -33 14 -33 17 0 4 -3 17 -6 29 -4 16 0 23 15
28 26 8 61 73 61 113 0 30 7 42 23 42 5 0 6 -18 2 -42z m-1680 -46 c-8 -8 -25
10 -25 27 0 30 14 34 22 5 4 -16 6 -30 3 -32z m1021 -137 c21 -58 56 -119 90
-156 21 -22 94 -213 94 -245 0 -22 -147 -120 -207 -138 -20 -6 -22 -3 -28 58
-6 55 -4 73 18 128 14 34 28 92 31 128 l6 65 -21 -90 c-11 -49 -24 -93 -27
-97 -4 -4 -4 30 0 75 3 45 7 140 7 212 1 73 5 125 10 120 4 -6 17 -32 27 -60z
m872 -189 c33 -18 93 -80 119 -123 16 -27 18 -42 12 -88 -8 -57 -35 -115 -57
-123 -7 -2 -2 16 13 44 19 35 25 61 24 103 l-1 56 -8 -52 c-8 -56 -46 -134
-69 -141 -11 -4 -12 0 -6 14 34 79 45 127 38 166 l-7 43 -7 -54 c-8 -63 -36
-141 -51 -141 -6 0 -7 19 -2 53 11 82 6 119 -22 145 -26 25 -25 26 -40 -42 -5
-22 -15 -41 -21 -44 -16 -5 -18 120 -3 149 12 21 1 26 -18 7 -9 -9 -21 -8 -53
1 -65 20 -30 36 84 40 26 0 60 -5 75 -13z m-613 -64 c27 -5 25 -6 -25 -18 -61
-14 -65 -12 -76 29 l-6 28 38 -17 c22 -9 53 -19 69 -22z m493 -69 c2 -54 7
-73 19 -77 21 -9 50 19 58 55 4 16 11 27 16 23 12 -7 12 -70 -1 -114 -11 -38
-5 -70 13 -70 7 0 18 -9 25 -20 8 -14 23 -20 46 -20 l35 0 6 -57 c3 -32 10
-85 15 -119 6 -33 10 -75 10 -93 0 -28 -3 -32 -17 -26 -97 37 -186 40 -262 9
l-34 -14 7 82 c8 93 24 228 32 273 12 59 -9 14 -26 -57 l-18 -73 -1 55 c-1 44
-4 51 -12 37 -8 -14 -8 -41 0 -96 6 -42 9 -90 7 -106 -17 -105 -17 -114 5
-136 36 -36 20 -60 -63 -91 -39 -15 -73 -26 -74 -25 -1 1 8 34 22 72 13 39 23
81 23 95 0 14 -13 -16 -30 -67 -16 -51 -36 -99 -44 -107 -26 -26 -143 -59
-192 -53 -24 2 -46 7 -48 9 -3 2 -11 56 -20 120 -8 64 -26 153 -40 199 -14 46
-33 119 -42 162 l-16 78 33 34 33 34 -16 43 c-22 56 -22 55 11 62 15 4 35 9
45 12 11 4 17 0 17 -11 0 -53 68 -115 127 -115 73 0 229 77 293 145 40 43 55
30 58 -52z m-1943 -84 c11 -17 -1 -21 -15 -4 -8 9 -8 15 -2 15 6 0 14 -5 17
-11z m140 -99 c28 -16 56 -33 62 -37 10 -6 7 -26 -12 -88 -14 -44 -25 -96 -25
-115 0 -52 -24 -146 -85 -332 -30 -91 -55 -184 -55 -207 0 -22 10 -64 21 -93
20 -50 43 -232 32 -251 -10 -16 -32 16 -38 56 -4 23 -12 50 -17 61 -9 17 -11
17 -26 2 -26 -26 -28 -141 -3 -196 23 -51 20 -61 -10 -34 -30 27 -46 62 -54
121 -4 29 -12 56 -17 59 -15 9 0 -103 19 -141 l14 -30 -25 28 c-14 15 -28 44
-31 65 -3 20 -9 48 -12 62 -6 22 -7 20 -13 -15 l-6 -40 -7 50 c-6 40 -2 70 19
145 21 78 28 128 35 285 12 266 25 372 64 495 18 58 39 134 45 168 l13 62 31
-25 c17 -14 54 -38 81 -55z m2075 57 c0 -7 -7 -22 -15 -33 -13 -17 -13 -16 -3
14 13 34 18 40 18 19z m-844 -247 c32 -115 53 -235 54 -302 0 -26 -2 -27 -27
-17 -16 6 -59 9 -97 7 l-70 -3 -18 60 c-24 80 -45 202 -52 300 l-6 81 37 14
c21 7 58 26 83 41 l45 28 8 -42 c5 -23 24 -98 43 -167z m-226 4 c0 -22 -35
-74 -50 -74 -4 0 -4 16 0 37 5 20 12 70 16 112 l8 76 12 -65 c7 -36 13 -75 14
-86z m-751 -60 c28 -9 -7 -30 -44 -26 -26 3 -35 9 -35 23 0 15 5 18 33 13 17
-3 38 -8 46 -10z m767 -85 c7 -40 25 -108 39 -150 28 -89 30 -100 13 -117 -9
-9 -17 10 -34 87 -12 54 -29 112 -37 128 -17 33 -23 90 -12 116 11 26 16 17
31 -64z m-829 5 c-21 -20 -41 -34 -43 -31 -2 2 1 18 7 35 9 27 16 32 42 32
l32 -1 -38 -35z m767 4 c-10 -16 -22 -7 -17 13 4 15 8 17 14 8 4 -7 5 -17 3
-21z m998 -13 c15 -6 12 -59 -11 -157 -18 -78 -31 -96 -86 -123 -71 -33 -113
-42 -310 -64 -136 -16 -181 -25 -220 -44 -41 -21 -155 -57 -179 -57 -15 0 -4
29 14 35 11 4 18 11 15 16 -4 5 -14 5 -27 -2 -31 -17 -49 6 -20 27 28 19 30
39 3 24 -47 -25 -55 -2 -13 36 25 24 22 26 -20 9 -13 -5 -18 -2 -18 9 0 16 21
31 85 58 42 18 41 19 -15 21 -59 3 -50 22 13 25 45 2 70 -3 114 -22 88 -41 87
-41 418 77 55 20 92 36 82 37 -15 0 -18 7 -15 42 2 35 7 43 28 49 31 9 143 11
162 4z m-979 -54 c63 -156 102 -455 147 -1106 21 -313 57 -731 65 -752 5 -16
-58 -49 -110 -58 -65 -11 -71 -14 -84 -41 -26 -58 -156 -74 -276 -34 -83 28
-126 29 -222 5 -94 -23 -212 -17 -251 12 -15 11 -33 31 -39 45 -10 20 -31 31
-97 52 -46 14 -89 33 -97 42 -11 13 -10 33 4 117 10 56 20 129 23 163 l6 60
47 17 c25 9 70 32 100 52 29 20 55 34 56 33 4 -4 -21 -271 -35 -390 -7 -53
-10 -103 -8 -110 9 -27 58 366 58 467 0 49 2 52 71 120 116 115 210 249 306
436 25 49 46 89 47 89 0 0 0 -183 0 -407 l-1 -408 9 430 10 430 37 95 c21 52
52 142 70 200 18 58 36 114 41 125 4 12 10 -40 15 -130 4 -82 11 -195 15 -250
l7 -100 2 85 c1 47 -4 173 -9 280 -11 190 -11 198 13 299 13 57 26 97 30 89 5
-14 23 -119 56 -328 5 -30 9 -44 10 -30 2 41 -27 257 -45 337 -16 71 -14 103
5 103 5 0 16 -17 24 -39z m1051 30 c3 -5 -3 -11 -14 -14 -20 -5 -35 5 -23 17
9 9 31 7 37 -3z m-106 -308 c81 -161 118 -369 126 -723 6 -211 25 -403 42
-419 3 -3 4 8 0 24 -12 62 -26 240 -25 324 l1 86 29 -115 c36 -142 83 -284
120 -369 16 -35 29 -71 29 -80 0 -9 -15 -25 -32 -36 -18 -10 -59 -45 -90 -76
-70 -70 -96 -79 -244 -79 -95 0 -123 -4 -190 -27 -141 -48 -341 -32 -358 30
-3 12 -6 177 -7 367 -2 293 -3 328 -11 230 -5 -63 -7 -218 -5 -343 l4 -229
-35 7 c-19 4 -46 14 -60 23 -24 16 -24 17 -18 126 3 61 9 239 12 396 l7 285
51 25 c48 23 53 29 74 90 26 71 25 107 -1 235 -9 39 -17 90 -18 113 -3 38 0
44 28 62 41 24 100 31 94 10 -3 -8 -6 -114 -7 -235 l-2 -220 8 191 c4 106 10
212 14 236 l7 44 129 15 129 14 12 -50 c7 -27 23 -111 35 -185 13 -81 22 -118
23 -93 1 48 -33 256 -49 298 -12 32 -2 45 37 45 18 0 26 -16 63 -132 52 -164
51 -162 45 -110 -4 35 -50 187 -71 239 -5 12 45 40 73 42 7 1 21 -16 31 -36z
m-818 -78 c12 -25 31 -50 42 -56 23 -13 21 -27 -15 -112 l-24 -58 -12 108 c-7
59 -15 120 -18 135 -8 41 2 34 27 -17z m194 -41 c3 -9 6 -30 6 -47 0 -18 9
-72 20 -121 11 -50 20 -99 20 -109 0 -17 -2 -17 -19 4 -17 22 -22 23 -51 12
-29 -11 -32 -10 -40 12 -20 54 -55 38 -66 -30 -6 -41 -44 -97 -44 -64 2 82 22
203 39 237 12 23 21 54 21 70 0 25 5 29 43 39 61 15 64 15 71 -3z m-78 -270
c8 -30 -10 -54 -27 -37 -11 11 -2 63 12 63 5 0 12 -12 15 -26z m79 -23 c-22
-21 -65 -37 -65 -24 1 23 28 41 65 42 19 1 19 1 0 -18z m33 -23 c-7 -23 -71
-49 -113 -46 -55 4 -51 20 6 22 25 1 57 9 70 18 29 20 42 22 37 6z m-28 -56
c0 -22 -78 -40 -114 -26 -30 11 -16 19 28 16 25 -2 53 1 63 7 22 13 23 13 23
3z m-156 -16 c-3 -8 -1 -17 5 -21 6 -3 11 -22 11 -41 0 -24 4 -34 16 -34 14 0
15 -25 8 -232 -8 -299 -18 -360 -28 -183 -4 72 -14 213 -22 315 -17 225 -17
210 1 210 8 0 12 -6 9 -14z m136 -36 c-8 -6 -26 -10 -40 -9 -22 0 -20 2 10 13
38 13 54 11 30 -4z m-75 -30 c-3 -5 -10 -10 -16 -10 -5 0 -9 5 -9 10 0 6 7 10
16 10 8 0 12 -4 9 -10z m935 -992 c17 -29 12 -46 -23 -72 -36 -28 -88 -38 -94
-19 -2 6 -28 43 -58 84 -30 40 -55 75 -55 78 0 3 22 7 49 8 27 1 69 10 92 20
l44 19 17 -50 c10 -28 22 -59 28 -68z m-517 -85 c-6 -65 -12 -137 -12 -161 -1
-36 -5 -44 -27 -52 -63 -24 -114 -9 -114 34 0 30 -33 218 -46 263 -6 22 -4 22
87 26 52 1 101 4 109 5 14 2 14 -11 3 -115z m532 -9 c-28 -43 -115 -69 -115
-34 0 5 9 10 20 10 31 0 78 27 91 53 8 14 14 17 17 9 2 -7 -4 -24 -13 -38z
m49 -10 c3 -9 6 -26 6 -40 0 -13 9 -47 20 -76 23 -60 22 -59 12 -76 -7 -10
-16 -9 -43 5 -19 9 -59 19 -90 21 l-56 4 -1 48 c-1 47 0 48 33 54 19 4 49 21
67 40 39 39 44 41 52 20z m-1976 -82 c-2 -21 -10 -28 -36 -33 -33 -7 -34 -6
-28 20 3 14 9 40 12 57 l6 31 25 -25 c16 -16 23 -33 21 -50z m2027 38 c17 -32
20 -76 6 -84 -8 -5 -31 74 -31 104 0 18 9 10 25 -20z m-1989 -97 c-4 -43 -9
-85 -12 -94 -3 -12 9 -25 41 -43 62 -37 61 -64 -1 -29 -37 21 -60 26 -115 27
-83 0 -88 19 -8 26 l54 5 8 60 c15 111 18 125 29 125 7 0 8 -25 4 -77z m62 61
c21 -6 31 -41 16 -57 -13 -13 -54 17 -54 40 0 25 3 26 38 17z m515 -9 c63 0
63 0 51 -77 -6 -31 -11 -37 -39 -42 -29 -6 -110 5 -120 16 -3 2 -7 30 -11 61
l-7 57 34 -7 c19 -5 60 -8 92 -8z m1438 -108 c-11 -34 -27 -89 -36 -122 -9
-33 -26 -73 -37 -88 -38 -53 -136 -81 -193 -57 -15 7 -10 9 24 9 63 1 116 20
146 51 22 23 69 159 104 300 l6 25 3 -28 c2 -15 -6 -56 -17 -90z m-2061 53 c0
-5 -4 -10 -9 -10 -5 0 -24 -3 -42 -6 -32 -5 -33 -5 -15 10 22 18 66 22 66 6z
m103 -14 c30 -23 21 -38 -13 -21 -30 16 -40 35 -17 35 6 0 20 -7 30 -14z
m-113 -46 c0 -29 -2 -30 -45 -30 -42 0 -44 1 -36 22 7 20 33 34 69 37 7 1 12
-11 12 -29z m113 -8 c9 -8 17 -28 17 -43 l0 -28 -35 20 c-38 23 -38 23 -29 56
6 23 15 22 47 -5z m1837 18 c38 -11 77 -37 68 -45 -3 -3 -26 4 -52 16 -32 14
-63 20 -92 17 -42 -3 -52 1 -37 15 10 10 73 8 113 -3z m-1327 -33 c68 0 83 -8
48 -27 -48 -25 -161 -3 -161 31 0 17 3 18 23 7 12 -6 52 -12 90 -11z m787 2
c0 -15 -82 -31 -114 -22 -54 15 -38 28 39 29 41 1 75 -2 75 -7z m558 -19 c52
-24 57 -45 5 -23 -21 9 -64 16 -95 16 -47 0 -56 3 -47 14 16 19 87 16 137 -7z
m-558 -41 c0 -33 -37 -168 -50 -183 -5 -4 -11 3 -15 15 -13 41 -54 87 -89 100
l-34 12 19 37 c19 36 22 37 62 33 23 -3 53 0 67 6 37 15 40 14 40 -20z m-799
-34 c4 -17 10 -37 13 -47 5 -11 1 -18 -13 -23 -11 -3 -33 -22 -49 -41 l-28
-34 -13 80 c-7 44 -9 89 -6 100 5 17 10 17 48 6 34 -9 43 -17 48 -41z m1357
33 c17 -5 32 -14 32 -20 0 -6 -9 -7 -22 -3 -13 4 -56 9 -95 12 -74 5 -96 18
-45 26 33 5 85 -1 130 -15z m-1259 -70 c1 -5 -3 -8 -8 -8 -10 0 -31 55 -30 79
0 14 36 -53 38 -71z m-59 60 c0 -22 50 -122 72 -145 12 -13 33 -23 49 -23 15
0 31 -5 34 -11 5 -7 -5 -8 -29 -3 -49 9 -119 -18 -151 -59 -16 -20 -25 -26
-25 -16 0 17 43 60 78 78 l22 12 -26 45 c-14 24 -32 64 -40 89 -11 39 -11 45
1 45 8 0 15 -6 15 -12z m-572 -30 c39 -18 43 -24 39 -47 -12 -60 -26 -82 -50
-79 -19 3 -22 8 -20 41 3 45 -13 41 -25 -6 -11 -43 -27 -32 -25 18 l2 40 -17
-37 c-23 -50 -36 -48 -28 5 7 42 -8 44 -16 2 -6 -33 -23 -12 -20 25 l2 35 -15
-25 -14 -25 -1 37 c0 32 3 37 28 41 45 8 114 -3 160 -25z m1879 0 c15 -7 29
-13 31 -14 1 -1 -3 -13 -9 -28 -14 -30 -29 -34 -30 -8 0 11 -4 7 -11 -10 -12
-34 -25 -36 -31 -5 -3 19 -5 18 -12 -10 -4 -18 -11 -33 -16 -33 -4 0 -9 15
-12 33 l-3 32 -8 -32 c-11 -45 -30 -43 -23 2 7 43 -9 47 -18 5 -5 -21 -13 -30
-26 -30 -24 0 -24 16 1 68 l20 42 60 0 c32 0 72 -5 87 -12z m-518 -80 c1 -18
-6 -31 -20 -38 -11 -7 -23 -10 -25 -7 -2 2 3 28 13 57 13 41 18 48 24 34 4
-11 8 -31 8 -46z m-172 22 c36 -22 67 -74 58 -97 -4 -12 -12 -4 -28 28 -15 30
-35 50 -66 66 -36 19 -40 23 -20 23 13 0 38 -9 56 -20z m-757 -51 c0 -24 -4
-38 -10 -34 -5 3 -10 24 -10 46 0 24 4 38 10 34 6 -3 10 -24 10 -46z m225 41
c3 -5 2 -10 -4 -10 -5 0 -13 5 -16 10 -3 6 -2 10 4 10 5 0 13 -4 16 -10z m-95
-13 c0 -8 -11 -19 -25 -25 -14 -6 -33 -27 -42 -46 -9 -20 -20 -33 -25 -30 -12
8 18 59 52 88 36 30 40 31 40 13z m590 -2 c33 -19 21 -19 -21 0 -19 8 -27 14
-19 14 8 0 26 -6 40 -14z m-1267 -50 c24 -9 47 -15 53 -14 5 1 20 -3 34 -9 24
-10 24 -11 -12 -11 -20 -1 -49 4 -65 10 -32 12 -73 48 -73 63 0 6 5 3 10 -6 6
-9 29 -24 53 -33z m803 17 c-4 -3 -14 2 -24 12 -16 18 -16 18 6 6 13 -6 21
-14 18 -18z m454 8 c37 -19 60 -45 60 -69 0 -6 -4 -11 -10 -11 -5 0 -10 6 -10
14 0 22 -49 56 -91 62 -21 4 -36 10 -33 15 9 15 42 10 84 -11z m-557 -6 c4 -4
-14 -26 -40 -50 -26 -24 -49 -42 -51 -39 -7 6 38 74 56 85 20 11 27 12 35 4z
m562 -44 c35 -32 31 -45 -15 -64 -75 -30 -113 -14 -60 24 17 12 29 24 27 27
-9 9 -67 -28 -67 -42 0 -8 -7 -15 -15 -15 -21 0 -19 10 7 37 12 13 17 23 10
23 -6 0 -20 -12 -31 -27 -12 -14 -24 -23 -28 -20 -3 4 2 16 12 27 10 11 15 23
11 28 -4 4 -14 -2 -22 -12 -8 -11 -14 -15 -14 -9 0 7 12 21 28 33 37 30 120
24 157 -10z m225 16 c-8 -7 -65 -40 -127 -71 -124 -64 -181 -76 -247 -52 -61
21 -56 37 6 20 72 -19 116 -12 195 34 107 61 207 101 173 69z m-867 -107 c11
-16 38 -41 58 -55 36 -24 43 -26 111 -19 41 4 87 15 106 26 26 15 32 16 32 4
0 -33 -50 -50 -145 -50 -100 0 -126 11 -165 68 -12 18 -40 45 -61 60 -22 16
-39 35 -39 43 0 19 71 -35 103 -77z m266 53 c14 -10 26 -25 28 -33 3 -8 0 -7
-7 4 -6 9 -16 17 -22 17 -6 0 -3 -11 6 -25 25 -38 19 -42 -14 -10 -32 30 -42
25 -13 -7 12 -13 13 -22 6 -29 -8 -8 -13 -5 -17 9 -7 21 -46 61 -46 46 0 -5 7
-18 15 -28 19 -25 19 -46 1 -46 -8 0 -16 10 -20 23 -3 12 -19 30 -36 40 -37
22 -40 6 -3 -21 34 -25 26 -52 -17 -52 -18 0 -41 10 -61 28 l-31 28 27 32 c15
17 41 36 58 42 43 13 117 4 146 -18z"/>
<path d="M4907 5033 c-3 -5 17 -8 45 -9 30 -1 44 2 36 7 -16 11 -75 12 -81 2z"/>
<path d="M4642 4924 c-28 -20 -28 -35 3 -64 14 -13 25 -19 25 -13 0 6 -7 16
-15 23 -24 20 -17 40 16 47 22 4 27 8 17 14 -18 12 -20 11 -46 -7z"/>
<path d="M4600 4741 c0 -23 2 -41 4 -41 2 0 13 -3 23 -7 17 -6 17 -6 0 15 -12
13 -16 28 -12 40 3 11 1 23 -5 27 -6 4 -10 -9 -10 -34z"/>
<path d="M5137 4912 c-27 -30 -19 -43 9 -16 16 17 32 24 45 21 10 -3 17 -1 13
4 -9 15 -50 10 -67 -9z"/>
<path d="M5395 4920 c-3 -5 3 -10 15 -10 12 0 28 -13 40 -32 17 -29 20 -30 20
-11 0 12 -12 31 -26 42 -30 23 -40 26 -49 11z"/>
<path d="M4977 4852 c-22 -24 -22 -38 0 -17 10 11 27 15 45 13 33 -5 38 7 6
16 -32 8 -33 8 -51 -12z"/>
<path d="M5480 4816 c0 -2 8 -10 18 -17 15 -13 16 -12 3 4 -13 16 -21 21 -21
13z"/>
<path d="M4740 4743 c0 -5 10 -18 23 -29 l22 -19 -20 25 c-11 14 -21 27 -22
29 -2 2 -3 0 -3 -6z"/>
<path d="M4935 4740 c-5 -8 -22 -10 -49 -6 -38 6 -40 5 -22 -9 11 -8 27 -15
36 -15 21 0 57 26 48 35 -3 3 -9 1 -13 -5z"/>
<path d="M5077 4668 c-14 -11 -2 -13 73 -13 86 0 109 6 74 19 -28 11 -130 6
-147 -6z"/>
<path d="M5103 4600 c-33 -13 -28 -23 6 -15 25 5 30 3 33 -16 4 -30 28 -36 35
-9 3 13 11 19 19 16 21 -8 17 12 -5 24 -23 12 -58 12 -88 0z"/>
<path d="M4816 4584 c-6 -15 -4 -15 10 -3 14 11 18 10 30 -6 9 -13 11 -22 4
-29 -15 -15 -12 -53 5 -60 18 -7 20 5 3 22 -9 9 -8 15 5 24 14 11 15 17 4 38
-15 30 -52 38 -61 14z"/>
<path d="M5311 4573 c0 -18 4 -56 10 -84 11 -49 10 -54 -10 -70 -26 -22 -27
-29 -1 -22 35 9 42 37 26 100 -8 32 -17 69 -19 83 -4 21 -4 20 -6 -7z"/>
<path d="M5357 4584 c-3 -4 0 -13 8 -20 7 -8 15 -19 18 -26 3 -10 9 -9 24 5
11 9 23 14 26 10 4 -3 7 -2 7 3 0 26 -63 47 -83 28z"/>
<path d="M5248 4413 c6 -2 18 -2 25 0 6 3 1 5 -13 5 -14 0 -19 -2 -12 -5z"/>
<path d="M5160 4350 c0 -23 121 -47 160 -31 22 8 17 10 -30 11 -30 0 -72 7
-92 14 -21 8 -38 10 -38 6z"/>
<path d="M5230 4270 c20 -13 47 -13 55 0 4 6 -9 10 -32 10 -28 0 -34 -3 -23
-10z"/>
<path d="M5765 4220 c-32 -6 -24 -7 35 -6 41 0 86 -3 100 -7 l25 -8 -25 15
c-26 16 -69 18 -135 6z"/>
<path d="M5487 4148 c-14 -18 -28 -49 -31 -68 l-6 -35 15 39 c8 22 21 47 29
55 17 21 28 41 22 41 -3 0 -16 -15 -29 -32z"/>
<path d="M5771 4057 c-42 -21 -38 -39 5 -21 20 9 57 16 81 16 24 0 41 4 37 9
-8 13 -95 11 -123 -4z"/>
<path d="M6096 4044 c-10 -27 -7 -46 11 -59 15 -11 16 -15 3 -31 -14 -17 -14
-18 3 -5 21 17 22 47 2 59 -19 10 -9 46 11 38 8 -3 14 -1 14 4 0 16 -37 11
-44 -6z"/>
<path d="M5802 3994 c-12 -8 -22 -22 -22 -31 0 -9 3 -13 7 -10 3 4 12 2 19 -4
20 -17 47 -3 41 21 -4 16 0 20 21 21 24 0 25 1 7 9 -30 13 -48 12 -73 -6z"/>
<path d="M5674 3927 c3 -10 6 -45 6 -77 0 -60 15 -90 46 -90 20 0 17 17 -5 23
-15 3 -19 17 -23 72 -3 37 -11 72 -18 78 -10 9 -12 8 -6 -6z"/>
<path d="M5582 3898 c-15 -15 -16 -32 -2 -23 6 3 10 1 10 -4 0 -6 9 -11 20
-11 13 0 20 7 20 19 0 11 8 22 18 24 9 3 1 5 -18 6 -20 0 -41 -4 -48 -11z"/>
<path d="M5768 3793 c7 -3 16 -2 19 1 4 3 -2 6 -13 5 -11 0 -14 -3 -6 -6z"/>
<path d="M5870 3762 c0 -12 -77 -54 -114 -63 -30 -7 -30 -7 -5 -8 15 -1 42 5
60 13 36 15 91 66 71 66 -7 0 -12 -4 -12 -8z"/>
<path d="M5813 3670 c-13 -5 -23 -12 -23 -15 0 -10 27 -5 46 10 21 16 11 18
-23 5z"/>
<path d="M5356 3985 c-25 -163 -71 -350 -112 -458 -15 -38 -24 -70 -22 -73 8
-7 66 154 93 256 33 129 57 265 53 298 -3 20 -6 15 -12 -23z"/>
<path d="M5385 3858 c-14 -153 -70 -462 -105 -578 -11 -38 -13 -56 -5 -48 17
17 83 304 104 453 14 96 25 245 18 245 -3 0 -8 -33 -12 -72z"/>
<path d="M5370 3243 c0 -32 -69 -295 -111 -423 -57 -174 -130 -352 -208 -505
-79 -156 -83 -166 -37 -95 87 134 186 357 255 572 62 195 124 468 107 468 -3
0 -6 -8 -6 -17z"/>
<path d="M5072 2804 c-65 -116 -179 -269 -258 -348 -32 -32 -93 -81 -134 -107
-76 -49 -82 -61 -18 -35 79 34 206 155 304 293 59 82 170 280 163 288 -2 2
-28 -39 -57 -91z"/>
<path d="M4805 2713 c-126 -135 -229 -208 -247 -175 -3 4 -4 3 -3 -3 3 -20 47
-16 89 9 50 29 176 152 224 220 18 25 32 46 30 45 -2 0 -43 -44 -93 -96z"/>
<path d="M4861 2150 c-77 -118 -163 -222 -223 -267 -65 -49 -86 -57 -106 -41
-13 11 -14 10 -10 -2 8 -25 53 -23 95 3 61 39 156 145 225 253 58 89 83 134
74 134 -1 0 -26 -36 -55 -80z"/>
<path d="M4837 1868 c-76 -97 -198 -218 -244 -242 -44 -22 -42 -30 3 -11 73
30 217 180 297 308 32 50 9 28 -56 -55z"/>
<path d="M4795 3923 c59 -92 168 -210 230 -248 17 -10 -11 22 -61 71 -50 49
-110 115 -134 147 -44 59 -65 77 -35 30z"/>
<path d="M5209 3844 c-16 -19 -62 -44 -114 -60 -35 -11 -37 -13 -12 -13 15 -1
42 5 60 13 37 16 108 75 91 76 -6 0 -17 -7 -25 -16z"/>
<path d="M4850 3353 c0 -16 51 -125 57 -120 2 2 -10 33 -27 68 -16 35 -30 58
-30 52z"/>
<path d="M6146 3384 c-38 -42 -93 -92 -123 -111 -29 -20 -53 -37 -53 -39 0 -2
15 2 33 8 33 12 185 155 206 196 6 12 10 22 9 22 -2 0 -34 -34 -72 -76z"/>
<path d="M5807 3388 c6 -56 42 -173 60 -195 8 -11 6 2 -6 33 -11 28 -26 84
-35 123 -17 83 -27 103 -19 39z"/>
<path d="M5871 2948 c-2 -23 43 -118 66 -139 l27 -24 -23 32 c-12 18 -33 56
-46 85 -13 29 -24 50 -24 46z"/>
<path d="M4440 3141 c0 -5 7 -15 17 -22 15 -13 15 -12 4 9 -12 23 -21 28 -21
13z"/>
<path d="M5620 3105 c-8 -9 -8 -15 -2 -15 12 0 26 19 19 26 -2 2 -10 -2 -17
-11z"/>
<path d="M5464 1685 c10 -263 27 -554 37 -620 5 -41 6 -11 3 95 -7 231 -34
683 -41 690 -3 3 -3 -71 1 -165z"/>
<path d="M5042 1588 c-7 -100 -19 -242 -28 -316 -16 -147 -13 -190 5 -65 26
186 53 563 40 563 -3 0 -10 -82 -17 -182z"/>
<path d="M6301 2224 c0 -11 3 -14 6 -6 3 7 2 16 -1 19 -3 4 -6 -2 -5 -13z"/>
<path d="M6076 2125 c28 -199 68 -379 115 -525 33 -101 99 -263 105 -257 2 2
-14 49 -35 104 -67 177 -171 579 -171 666 0 12 -5 29 -10 37 -6 10 -8 2 -4
-25z"/>
<path d="M6031 1824 c0 -11 3 -14 6 -6 3 7 2 16 -1 19 -3 4 -6 -2 -5 -13z"/>
<path d="M6044 1740 c11 -97 82 -397 93 -387 2 2 -10 56 -26 119 -16 63 -37
162 -46 219 -20 119 -31 146 -21 49z"/>
</g>
</svg>
