<?xml version="1.0" standalone="no"?>
<!DOCTYPE svg PUBLIC "-//W3C//DTD SVG 20010904//EN"
 "http://www.w3.org/TR/2001/REC-SVG-20010904/DTD/svg10.dtd">
<svg version="1.0" xmlns="http://www.w3.org/2000/svg"
 width="1024.000000pt" height="559.000000pt" viewBox="0 0 1024.000000 559.000000"
 preserveAspectRatio="xMidYMid meet">
<metadata>
Created by potrace 1.16, written by Peter Selinger 2001-2019
</metadata>
<g transform="translate(0.000000,559.000000) scale(0.100000,-0.100000)"
fill="#000000" stroke="none">
<path d="M4940 5126 c-147 -41 -277 -161 -314 -289 -10 -36 -15 -41 -46 -45
-117 -13 -193 -167 -160 -325 20 -100 105 -197 171 -197 22 0 35 -10 59 -45
18 -26 52 -57 81 -73 l49 -29 -39 -31 c-53 -42 -67 -86 -47 -143 20 -55 20
-57 -1 -62 -11 -3 -7 -5 10 -6 32 -1 35 17 11 74 -20 48 -7 83 45 122 20 15
41 34 48 43 20 25 16 -8 -7 -59 -23 -50 -25 -70 -8 -106 12 -28 34 -35 23 -7
-17 40 -16 55 4 101 11 28 21 60 22 73 0 22 1 22 9 3 12 -29 12 -205 -1 -264
-6 -27 -23 -68 -39 -90 -37 -50 -159 -124 -203 -123 -52 1 -302 -125 -370
-188 -87 -80 -134 -182 -222 -485 -24 -82 -60 -195 -80 -250 -80 -219 -81
-229 -25 -285 22 -22 46 -40 53 -40 11 0 13 -34 9 -182 -5 -208 8 -330 42
-380 26 -39 64 -61 189 -108 53 -20 100 -39 103 -43 3 -3 -19 -36 -50 -73 -99
-120 -117 -193 -80 -335 l18 -69 -35 -82 c-42 -102 -45 -186 -11 -289 22 -65
22 -68 7 -195 -19 -162 -20 -237 -2 -232 7 3 14 34 18 84 10 128 21 206 28
199 3 -4 14 -27 23 -53 15 -44 17 -45 17 -16 1 17 -20 95 -45 175 -52 164 -54
213 -11 309 26 57 27 57 42 -18 4 -18 11 -30 16 -26 16 9 10 56 -21 164 -33
116 -38 201 -16 255 15 34 76 124 86 125 3 0 1 -34 -4 -75 -8 -66 -11 -75 -28
-69 -25 8 -23 -12 4 -30 32 -23 75 -20 137 9 63 30 164 100 205 144 16 16 32
29 35 27 3 -2 78 -11 165 -21 88 -9 168 -20 178 -24 16 -6 7 -21 -64 -116
-147 -196 -368 -396 -503 -456 -61 -27 -119 -27 -156 0 -34 25 -42 6 -10 -23
28 -26 90 -31 153 -12 151 44 471 348 603 573 23 39 45 43 45 9 0 -25 36 -60
52 -50 4 3 8 -4 8 -15 0 -23 43 -56 59 -46 6 3 19 -3 31 -15 22 -22 37 -24 74
-10 16 6 26 6 26 0 0 -20 40 -31 78 -21 34 10 44 7 113 -29 42 -22 95 -57 119
-78 l42 -37 -35 -111 c-70 -216 -132 -372 -225 -567 -60 -125 -70 -159 -44
-143 14 9 122 232 173 360 l44 109 5 -201 c3 -110 8 -204 13 -208 4 -4 7 101
7 234 l0 241 41 128 c22 70 42 129 44 132 2 2 20 -4 39 -13 42 -20 60 -20 76
-2 9 12 17 13 37 3 22 -10 28 -8 43 10 10 12 20 19 24 16 3 -4 6 -79 6 -167 0
-229 19 -629 30 -640 12 -12 12 16 0 549 -14 585 -31 745 -97 883 -45 95 -97
137 -161 128 -49 -7 -49 5 0 30 46 24 128 15 175 -19 20 -15 39 -24 42 -22 9
9 -43 55 -75 67 -48 17 -32 28 39 28 61 0 136 -25 151 -49 4 -6 12 -11 18 -11
19 0 -35 52 -69 66 -18 8 -51 14 -73 14 -22 0 -40 4 -40 9 0 16 89 51 130 51
85 0 186 -56 238 -133 93 -136 118 -317 132 -957 8 -383 23 -580 43 -580 6 0
7 28 4 73 -4 39 -11 234 -16 432 -15 554 -29 754 -60 862 -5 17 -6 35 -1 39
22 25 42 119 36 168 -9 70 -49 229 -90 358 l-34 107 24 22 c13 12 24 28 24 35
0 7 -15 46 -33 86 -37 82 -112 295 -153 438 -15 52 -40 124 -56 160 -29 67
-107 190 -120 190 -4 0 -19 25 -33 55 -26 55 -70 91 -134 110 -12 4 -39 18
-58 31 -20 13 -48 24 -63 24 -15 0 -33 7 -41 16 -35 42 -111 56 -162 29 -38
-19 -67 -5 -67 33 0 66 12 100 36 106 72 18 160 163 205 335 19 74 20 99 14
203 l-7 118 34 52 c31 50 33 58 33 143 0 104 -15 141 -87 217 -24 26 -62 68
-84 95 -39 45 -85 76 -159 104 -44 17 -339 20 -395 5z m240 -37 c25 -11 64
-39 88 -62 23 -22 42 -36 42 -30 0 17 -50 73 -85 95 l-30 20 63 -5 c73 -6 155
-42 207 -91 39 -37 48 -64 16 -46 -11 5 -44 10 -73 9 l-53 -1 64 -14 c122 -27
186 -82 216 -187 18 -63 14 -141 -10 -174 -12 -17 -14 -16 -20 12 -26 125 -49
159 -140 210 -65 37 -115 85 -115 111 0 8 -4 14 -10 14 -5 0 -10 -11 -10 -24
0 -43 -45 -83 -133 -116 -123 -48 -133 -55 -187 -130 -55 -75 -103 -106 -187
-119 -43 -7 -45 -9 -22 -15 15 -4 44 -3 65 3 55 15 56 15 39 -26 -33 -78 -96
-123 -172 -123 -103 0 -179 95 -153 191 13 49 31 66 83 80 61 16 135 59 158
91 27 37 18 35 -46 -11 -48 -34 -139 -71 -149 -60 -10 10 16 118 42 173 93
197 334 303 512 225z m192 -229 c10 -11 42 -33 72 -50 74 -42 112 -87 125
-150 17 -78 18 -77 -41 -73 -37 3 -59 0 -73 -10 -29 -22 -13 -30 32 -17 28 8
46 9 66 1 28 -11 29 -13 22 -59 -3 -26 -1 -77 4 -113 13 -80 -5 -193 -49 -306
-75 -195 -152 -243 -311 -193 -81 25 -171 78 -231 138 -27 25 -48 40 -48 33 0
-67 234 -208 353 -213 l36 -1 0 -106 c0 -59 3 -114 7 -124 11 -30 22 -8 17 34
l-6 42 49 -28 c68 -39 72 -44 76 -95 3 -43 2 -45 -45 -77 -74 -50 -173 -68
-289 -53 -51 7 -141 27 -200 46 -105 34 -288 118 -288 132 1 4 37 29 81 55 92
56 121 93 145 187 13 52 15 87 9 180 -4 63 -7 132 -7 152 l0 38 -39 -6 c-36
-6 -42 -3 -73 30 -30 31 -65 102 -54 110 1 2 22 6 45 10 l43 6 -6 -30 c-6 -30
8 -60 28 -60 6 0 6 6 -1 14 -7 8 -10 30 -8 50 3 27 11 41 38 59 33 22 88 107
89 136 0 8 21 38 48 67 26 29 62 71 80 93 23 28 49 45 85 57 75 24 145 61 169
89 26 30 29 30 50 5z m-770 -137 c-3 -27 -14 -59 -24 -73 -38 -53 -36 -141 6
-203 17 -25 25 -52 28 -97 3 -61 3 -61 -22 -55 -39 10 -68 32 -100 77 -40 55
-53 108 -48 195 6 86 42 155 98 184 58 31 68 27 62 -28z m88 -382 c17 -62 65
-128 104 -142 23 -8 36 -19 36 -31 0 -23 -30 -24 -73 -2 -71 36 -114 100 -124
185 l-6 50 27 -12 c17 -8 29 -24 36 -48z m825 -645 c86 -36 125 -173 132 -471
5 -188 2 -241 -27 -465 -19 -152 -81 -428 -135 -605 -16 -55 -17 -61 -10 -53
19 19 111 336 134 463 28 150 52 339 62 493 9 139 8 191 -5 307 -9 77 -25 171
-37 208 -11 38 -18 71 -15 74 3 3 20 -4 38 -16 18 -11 49 -28 68 -36 121 -52
133 -69 151 -210 18 -137 18 -841 1 -990 -18 -157 -33 -247 -44 -268 -12 -24
-83 -67 -109 -67 -36 0 -88 -31 -109 -65 l-20 -33 -128 -5 c-70 -3 -154 -12
-187 -20 -33 -8 -61 -13 -63 -12 -1 1 22 57 53 124 88 195 206 524 192 537 -2
3 -19 -37 -37 -88 -56 -156 -120 -317 -180 -448 -55 -120 -58 -125 -90 -128
-22 -2 -34 -10 -37 -23 -3 -10 -10 -19 -17 -19 -13 0 -195 66 -203 73 -3 3 22
41 54 84 114 150 266 422 351 628 133 321 202 604 202 830 0 130 -10 166 -48
175 -30 7 -30 23 0 32 13 3 24 6 26 7 1 1 18 -5 37 -13z m-894 -95 c43 -34
189 -102 292 -136 130 -43 229 -59 340 -52 75 4 99 10 159 39 l70 35 -7 -61
c-49 -441 -264 -975 -554 -1378 -49 -69 -59 -77 -81 -72 -14 3 -28 8 -31 12
-12 13 -77 217 -99 310 -12 50 -31 138 -41 195 l-19 102 6 -80 c8 -128 76
-402 121 -488 14 -28 14 -29 -9 -22 -45 14 -97 45 -107 63 -6 11 -21 52 -35
93 -30 88 -35 60 -6 -31 11 -35 19 -64 18 -66 -5 -5 -173 68 -186 80 -11 11
-11 25 -2 74 12 59 13 61 40 56 17 -4 31 -1 35 7 5 7 12 80 16 163 5 102 14
175 28 226 27 99 47 283 36 335 -8 35 -10 25 -16 -70 -7 -118 -26 -251 -40
-275 -5 -9 -9 25 -9 86 0 104 -19 237 -46 333 -21 73 -28 58 -10 -21 33 -143
43 -353 29 -620 -4 -87 -10 -128 -18 -128 -20 0 -227 86 -322 134 -114 58
-165 76 -212 76 -63 0 -67 9 -38 86 43 115 84 240 137 424 29 97 72 216 97
267 60 125 113 172 286 258 73 35 137 65 143 65 6 0 22 -8 35 -19z m1319 -230
c46 -72 91 -186 139 -347 44 -153 73 -232 128 -362 l35 -82 -36 -44 c-46 -56
-142 -129 -228 -172 -37 -19 -71 -34 -75 -34 -12 0 5 260 27 405 11 72 21 145
23 163 6 52 -10 22 -20 -38 -7 -45 -10 -15 -17 170 -4 124 -11 262 -15 308 -4
45 -4 82 0 82 4 0 21 -22 39 -49z m-1981 -877 c27 -6 31 -10 31 -40 0 -19 -3
-34 -6 -34 -11 0 -84 62 -84 71 0 11 16 11 59 3z m2290 -151 c57 -203 74 -289
67 -346 -9 -84 -20 -88 -52 -21 -43 89 -118 159 -193 181 -33 10 -61 21 -61
25 0 4 17 10 38 13 67 11 83 24 30 24 -31 1 -67 -8 -104 -25 -35 -16 -60 -22
-66 -16 -5 5 -11 33 -14 63 l-5 54 67 30 c79 35 166 90 209 133 17 16 33 30
36 31 3 1 25 -65 48 -146z m-2101 84 c59 -30 149 -71 200 -92 59 -24 91 -43
88 -51 -2 -6 -10 -39 -17 -73 l-12 -61 -48 0 c-26 0 -51 -4 -54 -10 -4 -6 5
-10 20 -10 64 0 180 -41 440 -155 72 -31 207 -82 301 -113 l171 -57 -54 -60
c-30 -33 -69 -82 -86 -108 -26 -41 -35 -47 -56 -42 -14 2 -69 9 -121 15 -374
40 -508 68 -710 147 -185 73 -190 80 -210 262 -10 89 -10 146 -1 265 14 172
17 196 31 196 6 0 59 -24 118 -53z m1729 -259 c-3 -8 -6 -5 -6 6 -1 11 2 17 5
13 3 -3 4 -12 1 -19z m-128 -233 c34 -29 91 -136 91 -172 0 -14 -6 -23 -15
-23 -9 0 -52 -35 -98 -78 -164 -156 -397 -297 -397 -239 0 6 25 27 55 46 66
42 157 131 133 131 -9 0 -20 -4 -23 -10 -3 -5 -19 5 -34 23 -23 25 -27 36 -19
50 5 10 8 20 6 22 -2 2 -64 -48 -137 -111 -73 -63 -140 -114 -148 -114 -24 0
-26 28 -2 62 12 18 65 77 117 130 53 54 93 100 89 104 -7 8 -135 -104 -205
-178 -44 -47 -82 -62 -82 -34 0 8 22 48 50 89 50 75 151 178 228 232 23 17 42
33 42 38 0 13 -74 -23 -101 -49 l-27 -26 -71 22 c-74 22 -93 40 -40 40 16 0
74 9 127 20 53 11 162 24 240 29 79 5 146 12 150 15 12 13 42 5 71 -19z m111
-242 c0 -16 3 -46 7 -68 l6 -39 -41 43 c-23 25 -42 48 -42 52 0 8 48 38 63 39
4 0 7 -12 7 -27z m-1458 -30 c27 -5 27 -7 23 -67 l-5 -61 16 58 c15 52 19 58
38 53 11 -4 40 -9 64 -13 23 -3 45 -10 48 -14 13 -22 -215 -169 -262 -169 -28
0 -28 -4 -9 101 24 133 24 132 43 124 9 -3 29 -9 44 -12z m1481 -171 c6 -53 1
-66 -16 -37 -16 29 -107 122 -107 110 0 -6 27 -46 60 -89 67 -87 73 -102 68
-167 l-3 -44 -37 60 c-37 60 -132 165 -150 165 -12 0 -3 -15 57 -85 86 -102
121 -175 83 -175 -6 0 -55 44 -109 97 -54 53 -102 94 -105 90 -4 -4 20 -36 52
-72 82 -92 99 -114 91 -121 -14 -14 -56 8 -116 60 -34 30 -94 71 -133 91 -38
21 -66 41 -61 45 4 4 55 39 113 78 58 38 125 91 150 117 l45 47 56 -62 c48
-52 57 -69 62 -108z m-441 111 c18 -16 25 -44 11 -42 -5 0 -18 13 -31 30 -25
31 -11 41 20 12z m-45 -88 c-41 -35 -135 -85 -159 -85 -35 0 -16 29 64 100
l83 71 24 -27 24 -28 -36 -31z"/>
<path d="M5115 4982 c-102 -31 -197 -88 -229 -138 -22 -32 -16 -30 35 12 90
75 204 117 319 116 56 -1 70 2 57 9 -33 19 -119 20 -182 1z"/>
<path d="M5549 4823 c12 -10 33 -40 46 -68 13 -27 25 -42 25 -32 0 34 -59 117
-83 117 -5 0 0 -8 12 -17z"/>
<path d="M4945 4713 c-27 -15 -72 -29 -100 -31 -37 -4 -45 -7 -30 -13 40 -15
143 17 174 55 17 20 17 20 -44 -11z"/>
<path d="M4672 4505 c23 -25 107 -32 143 -12 28 14 26 14 -41 10 -46 -4 -79
-1 -95 7 -23 12 -23 11 -7 -5z"/>
<path d="M5093 4569 c-24 -12 -43 -26 -43 -31 0 -6 6 -8 13 -5 86 33 130 40
178 31 52 -11 74 -3 40 15 -35 19 -142 13 -188 -10z"/>
<path d="M5391 4496 c-1 -16 11 -74 25 -128 25 -95 25 -100 9 -118 -14 -16
-26 -19 -59 -14 -23 4 -47 11 -53 17 -9 7 -13 5 -13 -7 0 -9 11 -18 28 -22 15
-3 35 -8 45 -11 29 -8 77 17 83 44 6 21 -34 193 -56 248 -7 17 -9 16 -9 -9z"/>
<path d="M5131 4490 c-48 -22 -50 -39 -2 -22 27 10 30 8 33 -11 5 -34 44 -35
52 -2 5 20 11 25 26 20 11 -4 20 -2 20 4 0 8 -60 31 -80 31 -3 0 -25 -9 -49
-20z"/>
<path d="M5471 4497 c-30 -15 -40 -37 -13 -30 14 3 21 -2 25 -17 7 -28 41 -23
45 7 2 14 8 20 18 16 8 -3 14 0 14 6 0 6 -12 16 -26 21 -32 12 -34 12 -63 -3z"/>
<path d="M5285 4120 c-88 -6 -54 -20 51 -20 82 0 134 8 134 22 0 9 -38 8 -185
-2z"/>
<path d="M5300 4049 c0 -11 29 -19 65 -19 36 0 65 8 65 19 0 3 -29 6 -65 6
-36 0 -65 -3 -65 -6z"/>
<path d="M5701 3564 c0 -11 3 -14 6 -6 3 7 2 16 -1 19 -3 4 -6 -2 -5 -13z"/>
<path d="M5717 3500 c3 -25 12 -85 19 -135 l13 -90 -5 80 c-2 44 -11 105 -19
135 -13 52 -14 53 -8 10z"/>
<path d="M5770 3049 c-2 -241 -50 -670 -106 -939 -4 -21 -3 -22 6 -8 23 37 77
352 99 583 12 128 17 372 8 382 -4 3 -7 -5 -7 -18z"/>
<path d="M5461 2614 c0 -11 3 -14 6 -6 3 7 2 16 -1 19 -3 4 -6 -2 -5 -13z"/>
<path d="M4710 3476 c0 -11 161 -125 228 -163 71 -40 162 -73 196 -72 12 0 -8
11 -44 23 -91 32 -158 68 -264 140 -111 75 -116 79 -116 72z"/>
<path d="M4660 3426 c0 -15 79 -155 131 -232 86 -127 213 -276 308 -359 19
-17 -15 26 -76 95 -140 158 -246 302 -340 465 -12 22 -23 36 -23 31z"/>
<path d="M5369 3277 c-58 -65 -114 -105 -176 -123 l-48 -14 47 5 c53 5 109 36
160 89 29 30 75 96 66 96 -2 0 -24 -24 -49 -53z"/>
<path d="M4886 2397 c7 -63 31 -152 51 -194 22 -47 25 -37 6 17 -9 25 -27 86
-40 135 -16 62 -21 75 -17 42z"/>
<path d="M6099 1938 c55 -128 90 -319 120 -648 20 -213 27 -172 10 60 -18 253
-57 455 -109 568 -32 70 -49 85 -21 20z"/>
<path d="M5924 1915 c45 -87 80 -213 96 -345 8 -61 50 -561 77 -913 3 -43 10
-80 14 -83 5 -3 7 21 4 53 -2 32 -7 99 -10 148 -14 243 -51 695 -66 795 -22
153 -65 287 -112 351 -18 24 -18 24 -3 -6z"/>
<path d="M4744 1424 c-83 -77 -196 -157 -269 -191 -74 -34 -110 -40 -160 -29
-28 7 -29 7 -11 -8 67 -54 245 26 409 184 51 49 89 89 86 90 -3 0 -28 -21 -55
-46z"/>
<path d="M5421 1288 c-13 -29 -35 -80 -48 -113 -48 -117 -233 -482 -314 -618
-81 -136 -104 -197 -36 -95 124 187 320 569 392 761 39 108 44 150 6 65z"/>
<path d="M5080 1262 c-99 -169 -247 -356 -364 -461 -87 -80 -141 -115 -259
-172 -56 -26 -93 -48 -82 -48 32 -1 166 62 243 112 148 99 355 341 462 540 49
91 50 112 0 29z"/>
<path d="M5714 1085 c3 -49 11 -194 16 -320 6 -127 15 -253 19 -280 8 -45 9
-41 10 45 2 146 -29 624 -41 635 -7 7 -9 -17 -4 -80z"/>
</g>
</svg>
