<?xml version="1.0" standalone="no"?>
<!DOCTYPE svg PUBLIC "-//W3C//DTD SVG 20010904//EN"
 "http://www.w3.org/TR/2001/REC-SVG-20010904/DTD/svg10.dtd">
<svg version="1.0" xmlns="http://www.w3.org/2000/svg"
 width="1024.000000pt" height="559.000000pt" viewBox="0 0 1024.000000 559.000000"
 preserveAspectRatio="xMidYMid meet">
<metadata>
Created by potrace 1.16, written by Peter Selinger 2001-2019
</metadata>
<g transform="translate(0.000000,559.000000) scale(0.100000,-0.100000)"
fill="#000000" stroke="none">
<path d="M3492 4725 c-256 -58 -471 -210 -625 -441 -123 -185 -203 -396 -243
-639 -25 -157 -23 -420 4 -580 53 -301 179 -689 313 -956 126 -252 248 -400
544 -655 135 -117 219 -200 335 -332 67 -77 185 -174 252 -208 67 -34 188 -64
257 -64 67 0 168 23 219 49 92 47 174 146 213 257 24 69 36 257 22 344 l-10
55 -6 -70 c-24 -252 -47 -339 -113 -425 -44 -57 -117 -112 -184 -136 -28 -10
-79 -16 -135 -17 -174 -1 -306 70 -482 261 -148 161 -217 228 -379 369 -288
248 -419 427 -562 764 -85 198 -184 521 -223 724 -32 162 -34 509 -5 650 63
308 170 537 335 717 84 91 167 152 286 209 161 77 282 99 429 80 147 -20 318
-90 441 -181 167 -124 352 -379 446 -615 36 -92 44 -105 34 -55 -11 58 -44
150 -86 239 -21 46 -39 86 -39 88 0 3 24 -21 53 -53 49 -54 129 -114 151 -114
6 0 -13 21 -42 46 -29 25 -113 117 -187 203 -199 235 -309 328 -478 406 -178
82 -388 114 -535 80z"/>
<path d="M6450 4726 c-129 -28 -267 -86 -375 -159 -103 -69 -184 -147 -331
-317 -78 -91 -165 -187 -194 -213 -29 -26 -48 -47 -43 -47 22 0 103 62 157
121 33 35 57 59 55 54 -2 -6 -19 -38 -37 -73 -37 -72 -105 -267 -99 -285 2 -7
10 6 17 28 21 67 126 269 187 361 68 104 203 249 289 310 85 61 203 118 309
150 76 23 109 27 215 27 118 1 131 -1 228 -35 144 -50 249 -115 358 -223 226
-223 354 -525 395 -934 24 -230 -27 -542 -145 -902 -84 -255 -157 -423 -252
-582 -103 -172 -201 -282 -425 -477 -81 -71 -189 -173 -240 -227 -238 -249
-292 -297 -380 -341 -243 -120 -494 -45 -599 179 -32 68 -59 200 -61 299 -1
30 -5 69 -8 85 -6 23 -9 9 -16 -59 -32 -359 133 -595 430 -613 205 -13 359 71
578 315 69 77 204 207 315 304 383 337 511 529 682 1026 178 514 217 855 140
1232 -59 290 -190 551 -365 725 -126 127 -277 216 -441 261 -81 22 -263 27
-344 10z"/>
<path d="M3514 4395 c-129 -29 -258 -94 -348 -176 -117 -107 -229 -321 -268
-509 -28 -138 -32 -629 -5 -772 40 -220 127 -479 214 -638 98 -181 240 -350
383 -454 87 -64 117 -78 55 -25 -102 86 -254 249 -307 330 -163 245 -275 568
-313 894 -17 143 -16 206 6 509 15 208 79 385 191 534 111 146 263 235 452
263 288 43 572 -179 655 -510 31 -125 30 -132 -26 -155 -26 -11 -86 -43 -135
-71 -48 -29 -108 -58 -133 -65 -125 -35 -223 37 -211 156 6 68 39 142 103 231
28 40 50 73 48 73 -11 0 -107 -134 -135 -188 -84 -166 -23 -302 136 -302 64 0
135 28 238 94 55 35 131 76 141 76 3 0 5 -37 5 -83 0 -78 -2 -85 -27 -109 -46
-43 -161 -113 -314 -190 -123 -62 -154 -83 -215 -143 -78 -77 -174 -227 -220
-340 -24 -61 -28 -84 -28 -175 -1 -123 15 -179 77 -271 48 -73 137 -142 210
-165 29 -8 96 -19 149 -24 129 -12 190 -40 260 -122 122 -140 150 -166 200
-188 126 -54 241 17 224 138 -8 61 -39 119 -101 190 -67 78 -91 116 -106 175
-10 42 -9 60 11 142 18 73 21 108 16 162 -16 159 -18 187 -12 219 4 18 18 47
33 64 14 17 23 33 20 36 -10 10 -58 -45 -78 -90 -16 -37 -24 -44 -54 -49 -22
-4 -56 -24 -93 -55 -31 -27 -66 -54 -77 -60 l-20 -11 20 -1 c21 0 44 14 115
68 24 17 53 32 66 32 21 0 22 -5 29 -106 7 -92 5 -118 -15 -196 -36 -143 -16
-220 90 -343 65 -75 110 -152 110 -187 0 -68 -42 -104 -111 -95 -59 8 -113 49
-190 145 -36 45 -80 93 -99 107 -53 39 -130 63 -237 74 -117 12 -172 30 -234
75 -57 42 -122 138 -143 210 -20 67 -20 176 -1 238 36 120 152 305 241 387 34
31 106 76 201 125 81 41 181 101 222 131 l73 56 -7 -48 c-31 -211 -121 -382
-245 -466 -24 -17 -24 -17 13 -2 127 49 215 185 274 425 28 114 25 365 -6 480
-104 391 -426 620 -767 545z"/>
<path d="M6475 4399 c-70 -14 -182 -70 -252 -125 -192 -154 -287 -375 -288
-669 0 -322 120 -593 292 -660 37 -15 37 -15 13 2 -123 84 -214 256 -245 468
l-8 47 83 -61 c45 -34 145 -93 221 -132 163 -83 221 -131 307 -257 107 -156
142 -248 142 -367 0 -92 -20 -158 -72 -235 -74 -111 -154 -153 -321 -171 -106
-11 -184 -35 -235 -72 -17 -13 -62 -61 -100 -108 -82 -101 -133 -139 -195
-146 -41 -5 -49 -2 -77 25 -55 55 -38 112 74 247 116 139 134 206 96 359 -18
75 -20 104 -14 192 6 99 8 104 29 104 12 0 41 -15 65 -32 71 -54 94 -68 115
-68 l20 1 -20 11 c-11 6 -42 30 -70 53 -57 48 -86 65 -112 65 -12 0 -29 20
-48 57 -17 31 -42 63 -55 72 l-25 16 17 -25 c45 -64 52 -85 51 -155 -1 -38 -6
-83 -12 -98 -17 -43 -13 -119 10 -213 34 -134 20 -176 -114 -340 -62 -77 -81
-118 -81 -180 -1 -64 16 -96 66 -124 32 -18 50 -21 88 -17 72 9 122 39 187
114 121 141 156 170 228 192 37 12 87 21 111 21 290 0 495 266 433 562 -16 74
-57 161 -129 272 -93 144 -155 196 -356 299 -93 48 -201 111 -239 140 l-70 52
-3 88 c-1 48 1 87 5 87 4 0 35 -16 68 -35 212 -122 225 -128 295 -133 58 -4
74 -1 110 19 123 69 99 254 -56 424 -32 35 -34 36 -10 5 72 -96 125 -212 126
-275 0 -82 -54 -143 -133 -152 -60 -7 -118 13 -241 86 -56 33 -114 63 -130 67
-27 6 -28 8 -22 54 24 182 123 371 247 472 71 58 171 107 250 124 166 35 374
-23 526 -146 124 -100 248 -331 282 -527 15 -86 33 -457 26 -543 -29 -363
-142 -710 -316 -970 -60 -90 -215 -257 -319 -345 -61 -51 -6 -18 88 52 82 63
193 178 257 268 56 78 156 268 194 370 43 113 96 304 118 421 24 133 24 643 0
770 -41 211 -152 418 -289 538 -62 54 -207 129 -293 152 -75 20 -224 26 -290
13z"/>
<path d="M6704 4125 c227 -312 310 -522 377 -950 20 -131 16 -402 -8 -515 -49
-228 -133 -366 -352 -578 -98 -96 -101 -100 -41 -55 419 311 532 719 384 1382
-64 287 -180 520 -358 722 l-38 44 36 -50z"/>
<path d="M3505 4098 c-238 -277 -384 -724 -385 -1178 0 -173 15 -277 56 -396
62 -181 175 -332 349 -470 93 -74 90 -68 -23 45 -241 239 -327 410 -352 699
-20 220 23 547 106 807 48 151 164 368 266 498 40 51 28 47 -17 -5z"/>
</g>
</svg>
