<?xml version="1.0" standalone="no"?>
<!DOCTYPE svg PUBLIC "-//W3C//DTD SVG 20010904//EN"
 "http://www.w3.org/TR/2001/REC-SVG-20010904/DTD/svg10.dtd">
<svg version="1.0" xmlns="http://www.w3.org/2000/svg"
 width="1024.000000pt" height="559.000000pt" viewBox="0 0 1024.000000 559.000000"
 preserveAspectRatio="xMidYMid meet">
<metadata>
Created by potrace 1.16, written by Peter Selinger 2001-2019
</metadata>
<g transform="translate(0.000000,559.000000) scale(0.100000,-0.100000)"
fill="#000000" stroke="none">
<path d="M2995 5114 c-55 -8 -120 -27 -160 -47 -89 -44 -282 -247 -325 -342
-53 -115 -80 -291 -87 -560 -6 -240 2 -311 68 -582 36 -148 104 -342 129 -367
10 -10 -6 53 -35 134 -20 57 -19 71 11 158 14 40 24 78 22 84 -2 6 -15 -22
-28 -63 -28 -83 -28 -84 -35 -77 -10 10 -56 207 -74 318 -29 173 -34 298 -22
465 20 255 45 393 89 484 19 41 61 91 158 188 164 165 173 168 404 167 225 -1
299 -25 492 -157 51 -36 118 -77 148 -93 203 -104 334 -219 438 -387 68 -109
138 -282 163 -400 22 -109 26 -331 7 -471 l-12 -91 -12 122 c-12 127 -23 185
-55 291 -21 70 -90 235 -96 229 -2 -2 6 -26 17 -53 36 -83 61 -164 88 -284 24
-107 26 -134 28 -405 2 -227 5 -299 17 -330 14 -39 15 -37 15 85 0 89 8 171
27 285 15 88 30 198 34 245 l7 85 26 -50 c14 -27 61 -99 104 -158 193 -265
259 -373 387 -632 153 -308 200 -464 222 -730 14 -180 15 -181 73 -298 12 -24
-240 85 -281 121 -9 8 -20 13 -23 10 -3 -4 -33 6 -67 22 -34 15 -78 31 -97 35
-84 18 -174 56 -218 92 -38 31 -43 33 -27 11 34 -45 93 -76 234 -121 86 -28
162 -60 206 -87 173 -107 289 -146 550 -185 344 -51 507 -94 805 -213 220 -87
318 -114 550 -151 300 -49 292 -46 160 -54 -63 -4 -248 -12 -410 -17 -283 -10
-456 -26 -510 -50 -25 -10 -25 -10 3 -5 84 17 207 25 508 35 184 7 404 17 490
24 126 10 199 10 388 -1 271 -15 268 -16 395 81 39 30 100 66 136 79 36 14 95
38 132 55 152 70 142 69 299 57 64 -5 112 -4 146 4 41 10 61 9 117 -3 37 -9
78 -16 90 -16 13 0 30 -7 37 -16 20 -24 54 -34 86 -24 27 8 27 8 3 9 -35 2
-70 12 -70 21 0 4 21 10 48 13 26 3 57 9 70 12 28 9 29 -5 2 -59 -39 -80 -138
-120 -272 -110 -67 5 -96 3 -138 -11 -67 -22 -108 -11 -176 47 -48 43 -48 43
-24 9 22 -31 22 -34 4 -27 -10 4 -32 9 -49 12 -30 4 -30 4 5 -12 163 -74 267
-116 335 -134 44 -11 116 -33 160 -50 86 -31 230 -74 283 -85 45 -9 215 -79
260 -107 44 -27 82 -66 82 -84 0 -8 -11 -21 -25 -30 -28 -19 -89 -11 -242 30
-142 38 -331 76 -379 76 -33 0 -46 -5 -54 -19 -7 -13 -7 -22 0 -26 5 -3 10 -1
10 6 0 8 6 7 18 -3 53 -48 189 -80 332 -79 188 1 224 -20 160 -93 -24 -27 -50
-41 -117 -62 -95 -30 -97 -30 -320 12 -76 14 -97 15 -122 4 -38 -16 -41 -34
-3 -27 15 3 88 -6 162 -20 77 -14 160 -23 193 -21 31 2 57 1 57 0 0 -20 -45
-70 -86 -98 -83 -54 -90 -55 -221 -33 -123 20 -232 27 -252 15 -26 -17 -7 -26
57 -26 37 -1 107 -8 156 -18 l89 -17 -43 -30 -43 -30 -176 1 c-172 2 -180 3
-332 42 -217 57 -302 85 -405 134 -89 42 -89 42 -54 48 l35 6 -46 8 c-32 5
-65 3 -108 -8 -89 -23 -135 -20 -231 13 -114 40 -230 55 -358 46 -57 -4 -102
-8 -100 -10 2 -1 71 -8 153 -14 83 -7 166 -15 185 -20 32 -7 27 -9 -50 -20
-90 -12 -106 -15 -345 -56 -234 -41 -330 -55 -470 -70 -153 -17 -552 -20 -693
-5 -131 14 -375 63 -492 99 -52 16 -147 45 -210 65 -63 19 -152 40 -198 45
-119 15 -157 27 -195 64 -24 23 -39 49 -50 92 -37 138 -86 268 -145 386 -34
70 -69 132 -77 139 -8 7 7 -30 34 -81 63 -119 168 -385 158 -396 -2 -1 -25 28
-51 66 -26 38 -89 115 -140 170 -103 111 -330 412 -332 439 -1 9 -22 52 -48
96 -80 134 -164 311 -201 421 -19 59 -35 112 -35 118 0 6 17 -5 38 -25 51 -48
135 -109 204 -147 82 -45 84 -38 3 16 -170 113 -270 211 -368 358 -79 120
-111 185 -168 340 -55 148 -63 154 -19 14 61 -196 132 -333 244 -473 31 -38
56 -77 56 -87 0 -37 54 -199 95 -286 38 -81 109 -208 176 -313 33 -51 19 -36
-54 62 -36 47 -110 138 -165 201 -244 280 -367 486 -541 904 -101 242 -149
341 -202 419 l-28 41 109 -48 c144 -65 234 -93 420 -134 175 -38 265 -63 477
-134 81 -26 149 -47 151 -46 6 5 -218 95 -336 135 -68 22 -206 61 -307 85
-438 106 -697 260 -868 516 -99 149 -166 329 -168 453 l-1 51 -10 -35 c-22
-77 12 -232 84 -375 84 -167 194 -296 339 -398 72 -51 76 -56 136 -173 34 -67
108 -233 164 -370 176 -427 303 -639 552 -923 60 -69 147 -179 195 -245 164
-232 281 -383 380 -492 112 -126 145 -170 196 -269 49 -93 52 -97 116 -133 44
-25 75 -34 155 -43 66 -7 158 -29 270 -64 235 -73 262 -80 410 -109 236 -45
299 -50 575 -50 297 1 441 15 765 74 107 20 447 74 530 85 33 4 67 1 100 -9
63 -20 109 -20 169 -2 l48 15 116 -53 c141 -64 226 -92 438 -146 155 -39 166
-40 326 -40 185 0 212 6 266 63 22 22 40 33 52 30 25 -7 105 30 156 72 24 20
50 53 60 79 17 40 24 46 64 56 65 16 130 85 130 138 0 15 6 18 30 14 67 -10
110 19 110 75 0 67 -104 136 -300 198 -47 14 -159 51 -250 82 -91 31 -196 64
-235 74 -102 26 -115 31 -115 39 0 14 102 28 134 19 17 -5 53 -9 81 -9 76 0
192 59 222 113 33 58 -2 134 -55 120 -44 -12 -194 -8 -236 6 -31 11 -56 11
-130 1 -68 -9 -106 -9 -150 -1 -109 20 -139 15 -270 -43 -67 -30 -146 -64
-176 -75 -31 -12 -91 -48 -133 -80 -108 -83 -119 -85 -295 -72 -81 6 -190 13
-242 16 -123 8 -299 30 -480 61 -236 40 -265 48 -565 167 -261 103 -418 143
-750 192 -99 14 -189 28 -199 32 -28 8 -53 39 -87 110 -27 55 -32 78 -39 192
-19 288 -63 434 -230 776 -125 255 -201 381 -350 580 -66 88 -138 196 -160
240 -35 69 -42 94 -51 183 -29 299 -205 633 -418 796 -31 24 -114 75 -184 115
-71 39 -168 98 -216 131 -105 71 -183 108 -266 127 -62 13 -277 25 -330 17z
m6010 -4100 c100 -22 121 -30 93 -32 -62 -5 -298 49 -298 68 0 9 31 3 205 -36z"/>
<path d="M3533 4828 c-11 -6 -29 -30 -38 -54 -9 -24 -29 -53 -43 -65 -28 -21
-74 -22 -247 -4 l-50 5 50 -15 c191 -57 267 -41 309 65 21 51 25 55 55 54 79
-4 284 -160 366 -279 39 -56 55 -72 35 -35 -59 110 -196 242 -312 300 -86 43
-92 44 -125 28z"/>
<path d="M2970 4804 c-66 -17 -194 -77 -272 -128 -32 -20 -58 -38 -58 -41 0
-2 55 25 123 60 137 71 191 91 292 110 l70 13 -50 0 c-27 1 -75 -6 -105 -14z"/>
<path d="M2855 4663 c-174 -61 -290 -160 -308 -263 -6 -33 -5 -32 17 14 28 56
93 126 151 164 22 14 87 45 145 69 57 24 106 46 109 49 9 9 -18 1 -114 -33z"/>
<path d="M3117 4583 c-15 -49 -18 -138 -8 -204 12 -73 49 -214 56 -207 2 1 -5
37 -16 78 -26 106 -36 206 -29 281 7 66 6 84 -3 52z"/>
<path d="M3990 4450 c6 -11 13 -20 16 -20 2 0 0 9 -6 20 -6 11 -13 20 -16 20
-2 0 0 -9 6 -20z"/>
<path d="M3291 3900 c52 -108 200 -307 334 -449 83 -88 218 -202 318 -269 138
-92 130 -81 -23 34 -194 145 -429 397 -571 610 -30 45 -60 90 -67 100 -7 11
-3 -1 9 -26z"/>
<path d="M2975 3288 c-22 -16 -67 -44 -100 -61 -53 -28 -69 -32 -144 -32 -80
0 -82 0 -50 -13 84 -35 213 6 300 94 50 51 49 54 -6 12z"/>
<path d="M4033 2985 c191 -257 436 -796 451 -990 1 -22 19 -119 39 -216 56
-266 83 -335 166 -412 61 -57 120 -84 215 -98 39 -6 78 -14 86 -18 31 -14 410
11 850 56 145 15 163 19 109 21 -37 2 -161 -5 -275 -14 -317 -25 -702 -30
-787 -10 -186 44 -252 125 -316 391 -18 72 -40 164 -51 205 -10 41 -24 109
-29 151 -16 120 -83 305 -181 505 -92 187 -222 395 -281 449 l-33 30 37 -50z"/>
<path d="M4310 2957 c0 -4 31 -54 68 -110 78 -116 153 -243 236 -399 31 -60
59 -108 61 -108 9 0 -39 110 -96 220 -83 157 -267 430 -269 397z"/>
<path d="M4750 2191 c15 -29 170 -190 169 -176 0 6 -41 53 -91 105 -49 52 -85
84 -78 71z"/>
<path d="M4133 2128 c80 -81 195 -249 331 -483 110 -189 139 -219 54 -55 -134
259 -292 486 -403 578 -67 54 -58 36 18 -40z"/>
<path d="M4611 1814 c25 -30 114 -82 178 -104 134 -45 204 -46 586 -9 95 9
-136 3 -296 -7 -155 -10 -293 22 -416 97 -36 22 -60 32 -52 23z"/>
<path d="M4580 1457 c0 -11 59 -127 65 -127 3 0 -1 15 -8 33 -16 38 -57 105
-57 94z"/>
<path d="M7906 1364 c-38 -20 -97 -42 -130 -49 l-61 -13 51 -1 c40 -1 67 7
122 34 38 19 75 42 82 50 16 20 16 20 -64 -21z"/>
<path d="M8613 1243 c15 -2 39 -2 55 0 15 2 2 4 -28 4 -30 0 -43 -2 -27 -4z"/>
<path d="M5030 1225 c22 -27 190 -126 306 -181 314 -150 547 -221 829 -256
132 -16 498 -16 655 1 156 16 238 32 120 23 -47 -4 -233 -7 -415 -7 -296 1
-343 3 -457 23 -242 43 -424 101 -680 217 -135 61 -333 169 -344 186 -3 5 -10
9 -16 9 -6 0 -6 -6 2 -15z"/>
<path d="M4730 1175 c7 -8 36 -29 65 -45 40 -23 61 -44 83 -83 32 -57 97 -129
134 -147 14 -8 2 9 -29 41 -28 30 -67 79 -86 110 -28 44 -50 64 -107 97 -40
23 -67 35 -60 27z"/>
<path d="M8488 1143 c6 -2 18 -2 25 0 6 3 1 5 -13 5 -14 0 -19 -2 -12 -5z"/>
<path d="M8609 1136 c42 -20 108 -20 141 0 l25 15 -25 -8 c-30 -10 -116 -9
-150 1 -14 4 -10 0 9 -8z"/>
<path d="M8388 1133 c12 -2 30 -2 40 0 9 3 -1 5 -23 4 -22 0 -30 -2 -17 -4z"/>
<path d="M9130 1113 c0 -17 -2 -40 -5 -50 -3 -10 2 -3 10 15 11 23 13 38 6 50
-9 14 -10 11 -11 -15z"/>
<path d="M8283 1123 c15 -2 37 -2 50 0 12 2 0 4 -28 4 -27 0 -38 -2 -22 -4z"/>
<path d="M9366 1044 c-18 -17 -21 -50 -6 -59 6 -4 10 6 10 24 0 18 7 34 18 40
9 6 12 11 5 11 -6 0 -19 -7 -27 -16z"/>
<path d="M8108 953 c6 -2 18 -2 25 0 6 3 1 5 -13 5 -14 0 -19 -2 -12 -5z"/>
<path d="M8255 925 c61 -13 119 -24 130 -24 27 1 -131 36 -191 43 -27 3 1 -5
61 -19z"/>
<path d="M9115 865 c0 -24 3 -41 8 -38 4 2 7 19 7 38 0 19 -3 36 -7 38 -5 3
-8 -14 -8 -38z"/>
<path d="M8510 896 c0 -2 15 -14 34 -25 27 -17 48 -21 107 -19 l74 1 -75 6
c-46 4 -85 13 -100 24 -23 16 -40 22 -40 13z"/>
<path d="M5045 812 c39 -40 385 -56 610 -27 145 19 169 27 60 20 -321 -21
-527 -17 -655 12 -17 4 -22 2 -15 -5z"/>
<path d="M5808 813 c7 -3 16 -2 19 1 4 3 -2 6 -13 5 -11 0 -14 -3 -6 -6z"/>
<path d="M9018 705 c-3 -11 -9 -29 -13 -40 -7 -19 -7 -19 9 -4 10 9 16 27 14
40 -3 22 -4 22 -10 4z"/>
<path d="M8445 703 c14 -14 73 -33 102 -33 39 0 17 17 -30 23 -23 3 -52 9 -62
13 -14 5 -17 4 -10 -3z"/>
</g>
</svg>
