<?xml version="1.0" standalone="no"?>
<!DOCTYPE svg PUBLIC "-//W3C//DTD SVG 20010904//EN"
 "http://www.w3.org/TR/2001/REC-SVG-20010904/DTD/svg10.dtd">
<svg version="1.0" xmlns="http://www.w3.org/2000/svg"
 width="1024.000000pt" height="559.000000pt" viewBox="0 0 1024.000000 559.000000"
 preserveAspectRatio="xMidYMid meet">
<metadata>
Created by potrace 1.16, written by Peter Selinger 2001-2019
</metadata>
<g transform="translate(0.000000,559.000000) scale(0.100000,-0.100000)"
fill="#000000" stroke="none">
<path d="M3985 4481 c-3 -5 12 -57 34 -114 89 -234 106 -355 106 -762 0 -286
-2 -318 -23 -414 -13 -57 -38 -141 -56 -187 -83 -209 -176 -308 -526 -564 -85
-62 -208 -157 -273 -211 -65 -55 -158 -123 -207 -151 -88 -52 -106 -68 -74
-68 45 0 187 89 309 195 33 28 166 131 295 227 251 187 342 268 407 364 150
221 202 467 190 899 -10 324 -40 496 -119 688 -41 98 -52 115 -63 98z"/>
<path d="M4525 4469 c16 -50 119 -287 152 -352 23 -44 54 -83 86 -110 27 -23
88 -78 136 -122 48 -44 123 -112 166 -151 142 -126 195 -259 161 -397 -19 -77
-20 -150 -1 -197 54 -139 68 -182 76 -238 5 -35 20 -87 33 -115 46 -97 67
-191 66 -287 -2 -77 -8 -149 -15 -174 -5 -18 -3 -42 4 -61 9 -26 8 -38 -3 -60
l-15 -29 -9 25 c-5 13 -21 58 -35 99 -128 371 -270 733 -382 976 -19 42 -35
77 -35 79 0 2 -13 32 -29 67 -67 145 -125 290 -164 408 -46 138 -45 135 -51
129 -6 -5 26 -120 58 -214 32 -91 73 -191 191 -465 153 -355 251 -605 378
-975 145 -421 269 -668 359 -716 35 -19 32 0 -8 43 -48 52 -103 141 -149 242
-19 41 -35 77 -35 79 0 2 23 -2 52 -9 57 -15 102 -17 133 -5 12 5 -10 10 -65
14 -97 8 -127 14 -133 30 -3 7 -12 28 -21 48 l-15 37 62 -20 c64 -20 211 -22
250 -4 16 7 17 -1 17 -100 0 -59 3 -104 6 -101 4 3 10 57 15 119 4 62 11 130
15 151 3 22 1 49 -6 66 -9 23 -9 34 3 57 10 20 14 61 14 135 0 58 3 111 8 118
4 7 9 32 10 55 1 22 11 61 23 86 12 25 22 60 22 79 0 22 8 41 23 55 19 17 28
44 41 117 23 128 38 147 30 39 -9 -127 -39 -308 -79 -472 -44 -182 -61 -293
-80 -532 -15 -175 -25 -247 -41 -289 -3 -9 -2 -17 4 -17 26 0 41 93 68 420 10
118 36 273 70 417 49 202 62 279 74 438 6 77 17 172 24 210 8 39 19 105 25
147 6 43 20 106 32 140 20 60 57 133 65 126 2 -2 -2 -35 -8 -73 -7 -41 -10
-150 -8 -265 2 -107 4 -276 3 -375 0 -186 -2 -200 -68 -490 -43 -190 -55 -275
-55 -380 0 -62 5 -117 11 -125 8 -11 9 5 5 58 -3 41 1 115 10 170 15 105 80
415 93 447 5 12 10 -27 14 -105 7 -144 31 -247 81 -352 61 -129 98 -153 41
-27 -61 133 -85 244 -92 423 l-6 160 49 -41 c63 -51 362 -232 499 -300 83 -42
139 -58 293 -88 73 -14 171 -37 218 -50 93 -27 104 -29 104 -16 0 24 -135 65
-364 112 -156 31 -227 61 -436 186 -63 38 -148 88 -188 112 -80 47 -136 92
-155 125 -7 13 -12 71 -12 156 0 74 -4 225 -9 335 -7 148 -6 223 4 290 19 138
17 135 165 209 152 75 214 117 256 175 50 68 59 115 58 305 0 94 3 195 7 224
8 62 -8 71 -27 15 -9 -26 -14 -99 -14 -223 -1 -227 -8 -253 -85 -331 -55 -55
-117 -90 -389 -219 -40 -19 -92 -51 -114 -70 -43 -38 -45 -46 -48 -168 -1 -50
-4 -62 -15 -58 -33 13 -66 -18 -102 -96 -20 -43 -41 -77 -47 -75 -5 2 -24 32
-41 68 -62 128 -119 145 -297 87 -98 -32 -99 -32 -114 -13 -9 13 -14 39 -12
75 3 82 1 90 -26 100 -20 8 -25 16 -25 44 0 40 -31 126 -62 168 -11 16 -18 31
-16 34 3 2 33 -17 68 -43 34 -27 81 -62 103 -80 44 -33 157 -87 157 -75 0 4
-29 22 -63 39 -35 17 -85 50 -111 73 -27 22 -83 64 -125 92 -63 43 -311 253
-311 264 0 1 26 -6 58 -17 58 -21 465 -109 709 -154 177 -33 360 -55 454 -55
88 0 228 22 282 45 61 25 42 34 -30 13 -45 -13 -114 -21 -203 -25 -156 -6
-300 12 -615 77 -104 21 -265 55 -357 74 -188 39 -269 64 -345 107 -98 56
-133 110 -266 408 -23 52 -48 96 -56 99 -10 3 -11 -2 -6 -19z m1531 -1002
c-21 -31 -45 -100 -61 -172 -13 -60 -13 -60 -24 -30 -20 50 5 152 47 193 39
37 59 42 38 9z m-768 -172 c-1 -60 2 -78 17 -95 24 -26 30 -26 138 11 118 41
176 43 212 9 15 -14 39 -52 54 -85 15 -33 35 -66 44 -73 26 -22 56 -4 79 46
55 122 59 127 104 116 33 -8 41 -57 18 -114 -9 -25 -20 -49 -24 -55 -14 -19
-39 -111 -49 -179 -12 -80 -20 -93 -50 -77 -16 9 -31 9 -60 0 -29 -9 -47 -9
-72 0 -49 17 -126 13 -209 -10 -112 -31 -139 -11 -160 121 -7 41 -28 113 -48
160 -32 75 -36 95 -36 170 0 85 15 146 34 135 5 -3 9 -39 8 -80z m465 -525
c35 0 35 -17 -1 -59 -25 -30 -32 -33 -63 -27 -40 7 -149 72 -149 88 0 7 30 9
93 4 50 -4 104 -7 120 -6z m71 -32 c-22 -120 -45 -149 -128 -156 -42 -3 -73 2
-130 22 -42 14 -91 26 -110 26 -30 0 -36 4 -50 40 -9 22 -16 50 -16 63 1 21 1
21 21 -5 11 -16 25 -28 31 -28 6 0 3 9 -6 19 -20 22 -15 26 37 36 33 6 42 4
65 -18 41 -38 121 -77 159 -77 50 0 72 16 94 66 23 52 41 58 33 12z m-257
-164 c73 -24 136 -28 192 -13 23 6 24 -25 2 -52 -18 -22 -26 -24 -113 -24
-120 1 -216 27 -224 61 -15 61 22 68 143 28z m-49 -95 c53 -14 100 -20 152
-18 41 2 77 -1 80 -6 3 -5 -17 -15 -45 -22 -38 -10 -65 -11 -115 -3 -91 15
-160 39 -160 56 0 18 -4 18 88 -7z m-13 -50 c63 -23 184 -25 225 -4 26 13 29
13 32 -3 8 -38 -5 -64 -38 -78 -50 -21 -158 -17 -234 9 l-65 22 -3 44 c-3 39
-1 43 15 36 10 -5 41 -16 68 -26z m-41 -93 c64 -27 172 -39 227 -26 60 15 74
6 64 -39 -5 -26 -13 -33 -48 -42 -59 -16 -191 -6 -249 20 -49 21 -59 41 -42
85 7 19 7 19 48 2z m135 -139 c31 -1 73 2 95 6 29 6 37 5 34 -5 -3 -7 -15 -15
-29 -19 -42 -12 -163 -9 -217 5 -60 15 -71 4 -14 -15 40 -15 197 -18 250 -7
31 7 32 6 32 -23 0 -45 -16 -67 -58 -79 -74 -20 -210 -3 -267 34 -30 20 -34
69 -8 113 l16 29 55 -19 c30 -10 80 -19 111 -20z"/>
<path d="M5644 3125 c14 -27 33 -68 41 -89 8 -22 17 -37 20 -34 9 9 -46 136
-67 154 -18 17 -17 13 6 -31z"/>
<path d="M5837 3031 c-34 -69 -57 -128 -56 -146 1 -26 2 -25 14 15 7 25 34 87
59 138 26 51 46 96 44 100 -2 5 -29 -44 -61 -107z"/>
<path d="M5343 3043 c14 -27 34 -78 46 -115 13 -37 27 -71 33 -75 8 -4 9 0 4
13 -5 10 -19 50 -32 87 -21 63 -59 137 -70 137 -2 0 6 -21 19 -47z"/>
<path d="M4175 4305 c3 -16 12 -93 21 -170 48 -432 137 -773 324 -1241 29 -71
58 -147 65 -169 50 -150 75 -324 75 -512 0 -147 -13 -217 -52 -280 -21 -35
-15 -45 9 -15 57 71 78 208 63 414 -19 249 -36 316 -147 598 -171 432 -258
764 -324 1230 -11 79 -24 151 -29 160 -7 10 -8 6 -5 -15z"/>
<path d="M4730 4275 c0 -13 35 -72 65 -112 57 -74 119 -116 234 -157 103 -37
110 -28 9 13 -145 59 -213 113 -273 216 -25 42 -35 53 -35 40z"/>
<path d="M6065 3600 c-92 -47 -173 -99 -179 -117 -3 -7 20 5 52 26 31 21 94
57 140 80 75 38 95 51 75 51 -5 0 -44 -18 -88 -40z"/>
<path d="M5595 3406 c48 -17 305 -22 305 -6 0 6 -51 10 -132 10 -73 0 -151 2
-173 5 l-40 5 40 -14z"/>
<path d="M4220 3123 c0 -47 -25 -244 -40 -322 -26 -129 -50 -203 -105 -320
-46 -98 -30 -91 24 9 40 76 79 196 101 309 19 99 38 331 26 331 -3 0 -6 -3 -6
-7z"/>
<path d="M4711 2744 c16 -62 129 -289 197 -397 34 -54 62 -104 62 -111 0 -7 9
-39 20 -72 42 -121 72 -241 77 -311 3 -40 10 -70 15 -67 20 13 -18 209 -67
348 -14 38 -23 71 -22 73 8 8 239 -318 287 -404 26 -47 45 -58 30 -17 -20 51
-79 142 -197 305 -179 244 -254 369 -347 569 -54 118 -70 142 -55 84z"/>
<path d="M6766 2045 c-39 -14 -115 -52 -170 -85 -132 -77 -187 -101 -351 -150
-225 -67 -286 -103 -341 -198 -14 -26 -38 -59 -52 -74 -14 -15 -23 -30 -21
-32 13 -14 57 27 93 86 23 37 53 76 67 87 30 23 149 72 235 96 178 51 246 79
379 160 55 33 139 76 188 94 48 19 87 35 87 37 0 11 -53 0 -114 -21z"/>
<path d="M3548 1953 c-65 -10 -18 -20 120 -26 167 -7 313 -30 487 -77 341 -91
445 -110 735 -135 423 -35 462 -42 546 -90 40 -23 92 -75 126 -125 16 -23 17
-24 17 -4 1 34 -56 110 -107 142 -96 61 -171 76 -522 102 -285 21 -471 53
-740 125 -197 53 -360 80 -545 88 -49 2 -102 2 -117 0z"/>
<path d="M4710 1540 c31 -14 271 -50 330 -50 115 0 283 -40 359 -84 23 -13 32
-15 29 -6 -6 19 -83 57 -153 75 -33 8 -130 22 -215 30 -150 14 -283 29 -345
40 -29 5 -29 5 -5 -5z"/>
</g>
</svg>
