<?xml version="1.0" standalone="no"?>
<!DOCTYPE svg PUBLIC "-//W3C//DTD SVG 20010904//EN"
 "http://www.w3.org/TR/2001/REC-SVG-20010904/DTD/svg10.dtd">
<svg version="1.0" xmlns="http://www.w3.org/2000/svg"
 width="1024.000000pt" height="559.000000pt" viewBox="0 0 1024.000000 559.000000"
 preserveAspectRatio="xMidYMid meet">
<metadata>
Created by potrace 1.16, written by Peter Selinger 2001-2019
</metadata>
<g transform="translate(0.000000,559.000000) scale(0.100000,-0.100000)"
fill="#000000" stroke="none">
<path d="M5160 5247 c-32 -16 -50 -52 -50 -103 0 -22 -7 -89 -15 -148 -26
-186 -47 -246 -85 -246 -30 0 -71 60 -164 243 -49 94 -98 180 -110 191 -58 51
-266 -50 -266 -130 0 -13 17 -58 38 -100 34 -69 35 -76 20 -85 -10 -5 -63 -44
-120 -86 -113 -84 -119 -84 -133 0 -20 120 -50 142 -190 142 -111 0 -208 -30
-262 -81 -41 -39 -41 -35 -5 -244 27 -159 45 -316 40 -370 l-3 -45 -65 -18
c-90 -26 -256 -86 -310 -111 -63 -29 -82 -70 -78 -162 3 -57 8 -79 31 -113 40
-59 65 -69 135 -49 114 33 238 66 265 72 25 6 27 4 27 -26 0 -31 -30 -218 -48
-298 l-8 -35 -64 -3 c-36 -2 -120 2 -187 8 -67 7 -131 9 -142 5 -11 -3 -29
-26 -41 -51 -18 -36 -21 -58 -18 -114 2 -47 9 -75 20 -86 10 -10 55 -21 124
-31 174 -24 170 -21 69 -58 -127 -46 -208 -83 -222 -102 -7 -9 -13 -42 -13
-73 0 -65 30 -133 72 -163 26 -20 26 -20 93 7 37 15 70 25 72 22 3 -2 -3 -47
-11 -99 -30 -175 -19 -444 25 -612 44 -164 135 -374 228 -524 68 -110 75 -159
73 -526 -1 -315 -2 -306 73 -350 131 -77 323 -69 412 17 l33 32 0 113 c0 62 2
113 4 113 3 0 41 -23 85 -50 84 -52 300 -163 383 -196 l48 -19 0 -138 0 -138
30 -28 c53 -48 121 -66 245 -66 94 1 118 4 163 24 66 30 82 52 82 114 0 41 2
48 18 43 129 -41 398 -99 542 -117 231 -28 477 16 615 111 56 38 121 113 151
172 110 217 157 612 124 1048 -31 410 -130 723 -308 979 l-65 95 -9 105 c-4
58 -6 112 -3 120 4 11 30 13 130 9 121 -5 126 -4 148 18 57 56 61 210 8 258
-20 19 -252 40 -328 30 -35 -4 -53 -3 -53 5 0 12 99 44 204 66 95 19 111 37
111 123 0 52 -6 77 -25 112 -38 68 -61 77 -161 61 -89 -14 -296 -64 -340 -82
-23 -9 -38 -5 -97 23 -73 34 -82 45 -82 105 0 22 6 33 18 37 62 18 168 29 309
30 155 1 162 2 186 24 15 15 32 49 43 88 14 54 15 72 4 126 -14 77 -43 126
-78 136 -35 9 -354 9 -458 -1 l-81 -7 -18 67 c-10 38 -39 109 -64 158 -36 72
-62 106 -127 170 -45 44 -89 94 -98 112 -31 62 -16 181 38 298 14 32 26 65 26
75 0 68 -162 146 -229 110 -10 -5 -37 -58 -62 -121 -47 -118 -58 -121 -39 -11
24 144 24 147 -1 171 -13 11 -39 26 -58 31 -50 14 -141 12 -171 -3z m180 -46
c21 -10 34 -22 31 -31 -17 -71 -42 -275 -38 -316 5 -48 33 -132 41 -123 2 2 1
24 -4 48 -6 35 -4 50 8 70 10 13 42 86 72 160 54 134 55 136 89 139 43 4 81
-12 116 -48 l27 -29 -30 -73 c-55 -134 -66 -241 -32 -315 10 -24 49 -71 85
-105 91 -86 148 -176 187 -292 17 -53 30 -98 27 -100 -6 -6 -306 -76 -376 -87
-61 -10 -62 -10 -106 24 -111 85 -271 72 -372 -31 -105 -105 -151 -282 -109
-421 l16 -54 -70 -136 c-38 -75 -82 -173 -98 -218 -16 -46 -33 -83 -39 -83
-23 0 -113 50 -153 85 -61 53 -180 216 -204 277 -64 170 -52 439 29 638 62
151 144 258 280 367 51 41 101 85 109 99 33 50 -10 180 -80 242 -45 40 -93 49
-136 27 -17 -9 -33 -15 -34 -13 -10 13 -66 143 -66 152 0 16 47 60 85 79 37
18 115 32 115 20 0 -20 -162 -99 -181 -88 -5 4 -9 1 -9 -4 0 -35 168 27 190
70 11 20 20 7 108 -165 101 -200 142 -256 186 -256 36 0 81 45 95 96 17 59 42
218 49 314 l7 84 40 12 c46 14 95 9 145 -15z m-1150 -324 c19 -10 29 -28 43
-82 10 -39 24 -82 32 -97 7 -16 9 -28 5 -28 -11 0 -60 -70 -60 -85 0 -5 12 7
26 28 16 24 42 46 69 57 23 10 82 48 130 84 109 82 197 136 222 136 59 0 143
-113 143 -190 0 -36 -5 -42 -82 -103 -155 -121 -225 -206 -299 -360 -100 -210
-115 -538 -34 -730 7 -17 4 -18 -41 -10 -162 27 -334 -24 -477 -143 -37 -31
-67 -52 -67 -47 0 4 8 28 16 53 65 181 87 352 87 665 0 268 -16 436 -62 672
-20 103 -16 116 46 147 84 42 250 60 303 33z m2285 -716 c43 -9 70 -67 70
-151 0 -45 -6 -77 -20 -105 l-20 -40 -150 -1 c-370 -4 -583 -82 -733 -269 -71
-87 -110 -154 -151 -255 -79 -199 -145 -587 -145 -860 0 -183 16 -223 146
-359 110 -115 156 -170 257 -310 132 -182 204 -298 303 -488 131 -253 196
-341 278 -378 40 -18 42 -18 85 3 33 16 52 35 74 74 79 137 113 508 71 768 -6
36 -31 124 -56 195 -107 308 -137 454 -136 662 0 80 -4 145 -9 149 -18 11 -83
-19 -127 -60 -30 -27 -58 -68 -83 -121 -21 -44 -39 -77 -39 -74 0 3 5 32 11
64 21 115 83 197 191 251 37 19 72 43 78 53 29 55 -3 233 -64 356 -131 261
-348 379 -583 318 -40 -11 -73 -16 -73 -13 0 4 24 30 54 59 l55 51 68 0 c229
-2 432 -139 550 -374 61 -120 80 -202 92 -389 l8 -122 76 -116 c42 -63 94
-151 115 -195 77 -155 141 -395 173 -649 20 -157 18 -613 -4 -755 -61 -395
-166 -543 -439 -620 -225 -64 -566 -21 -1050 131 -673 212 -1129 491 -1409
862 -112 148 -214 341 -278 522 -128 360 -105 790 60 1144 70 150 235 287 398
333 80 22 190 23 259 3 45 -14 56 -23 88 -71 70 -106 130 -162 220 -205 76
-37 82 -42 75 -62 -18 -47 -53 -197 -49 -209 3 -7 26 52 53 132 61 185 116
323 173 430 91 170 102 195 102 233 0 42 -12 70 -43 104 -20 22 -20 24 -3 85
19 69 59 138 106 183 29 28 32 28 63 16 138 -56 312 -54 567 8 147 35 252 54
360 64 62 6 354 5 385 -2z m-2605 -161 l0 -150 -27 -5 c-16 -3 -93 -23 -173
-46 -80 -22 -150 -40 -156 -39 -20 0 -55 48 -69 95 -11 36 -12 57 -4 97 11 48
13 51 68 75 49 22 333 120 354 122 4 1 7 -66 7 -149z m1500 120 c41 -21 60
-40 38 -40 -39 1 -168 22 -198 32 -30 10 -32 12 -15 19 40 15 134 10 175 -11z
m620 -380 c0 -45 4 -44 -95 -27 l-70 13 70 26 c93 36 95 35 95 -12z m-988 -48
c-5 -24 -6 -25 -13 -7 -4 11 -8 36 -7 55 l0 35 12 -29 c7 -15 11 -40 8 -54z
m1577 -48 c-12 -40 2 -124 27 -162 12 -18 12 -23 2 -26 -7 -3 -56 -16 -108
-31 -52 -15 -102 -29 -110 -32 -9 -2 -22 8 -34 28 -10 17 -48 62 -84 100 -36
38 -63 71 -61 73 5 4 231 60 299 75 79 16 80 16 69 -25z m85 -9 c27 -53 32
-134 12 -160 -16 -20 -16 -20 -35 4 -37 48 -52 141 -30 182 14 28 31 20 53
-26z m-744 -71 c113 -19 227 -101 310 -225 68 -102 97 -173 117 -289 20 -112
13 -130 -67 -170 -85 -43 -135 -92 -172 -169 -27 -56 -33 -80 -36 -156 -4 -87
8 -152 26 -141 5 3 14 36 21 75 13 70 55 169 89 208 21 24 90 73 103 73 5 0 9
-60 9 -132 0 -204 31 -355 125 -621 75 -214 80 -243 80 -492 -1 -203 -3 -229
-28 -334 -14 -62 -38 -133 -52 -157 -29 -50 -75 -79 -111 -70 -68 17 -160 142
-288 390 -139 270 -318 529 -528 758 -67 73 -127 147 -134 165 -8 17 -17 57
-20 87 -7 56 -7 56 20 56 67 0 118 55 119 129 1 82 -54 149 -69 84 -11 -54
-26 -82 -51 -98 l-25 -17 6 84 c8 99 35 319 45 367 l6 34 37 -45 c21 -25 69
-70 108 -99 78 -60 87 -83 45 -124 -18 -19 -35 -25 -69 -25 -54 0 -62 -10 -36
-43 59 -75 199 -50 216 38 7 41 26 45 83 16 81 -42 172 -173 196 -284 3 -16
11 -27 18 -24 33 10 13 156 -34 249 -40 80 -99 135 -189 175 -41 19 -90 42
-108 51 -52 26 -156 125 -198 188 -37 57 -37 57 -24 108 18 73 75 212 112 272
33 55 75 81 168 103 81 19 95 19 180 5z m-2222 -159 c50 0 92 -1 92 -3 0 -2
-18 -50 -41 -108 -38 -98 -42 -104 -69 -104 -58 0 -264 31 -277 42 -18 15 -17
122 3 159 l15 30 92 -8 c51 -4 134 -8 185 -8z m2944 -101 l76 -7 -15 -36 c-15
-35 -14 -137 1 -171 5 -13 -10 -15 -104 -15 l-110 0 0 25 c0 14 -14 63 -30
110 -16 47 -30 88 -30 93 0 9 110 9 212 1z m137 -45 c23 -65 2 -179 -32 -179
-19 0 -27 31 -27 102 0 96 36 142 59 77z m-3114 -166 c-4 -10 -24 -66 -44
-125 l-36 -108 -75 -29 c-70 -27 -76 -28 -94 -12 -28 24 -46 74 -46 125 0 43
2 47 42 67 44 22 236 98 252 99 4 0 5 -8 1 -17z m1792 -25 c33 -73 181 -196
286 -238 117 -46 175 -99 224 -206 31 -68 25 -81 -10 -21 -48 81 -162 166
-224 167 -12 0 -23 4 -25 8 -1 4 -21 21 -43 37 -165 121 -246 205 -238 250 6
31 17 32 30 3z m234 -320 c12 -22 -11 -72 -40 -88 -28 -14 -94 -12 -116 4 -18
13 -17 15 24 26 50 13 91 50 91 81 0 18 2 20 16 9 8 -8 19 -22 25 -32z m-213
-200 c-6 -53 -26 -82 -68 -96 -32 -12 -47 -5 -52 23 -2 13 6 23 25 33 31 15
67 66 67 96 0 16 2 17 16 5 12 -10 15 -25 12 -61z m-1464 -1248 c65 -73 172
-168 271 -242 l79 -59 -2 -122 c-4 -140 -4 -141 -98 -176 -97 -37 -219 -22
-300 37 l-39 29 0 279 c-1 153 -5 302 -9 329 l-9 50 29 -35 c15 -19 51 -60 78
-90z m1106 -673 c69 -25 159 -56 200 -69 l75 -23 0 -55 c0 -54 0 -55 -45 -80
-40 -22 -56 -25 -155 -25 -113 0 -152 9 -207 47 -28 19 -28 20 -28 140 0 110
2 120 18 115 9 -3 73 -26 142 -50z"/>
<path d="M5170 5188 c0 -26 128 -50 174 -32 32 12 14 21 -36 16 -32 -2 -70 2
-95 11 -24 8 -43 10 -43 5z"/>
<path d="M4045 4873 c-51 -6 -118 -25 -157 -45 -46 -23 -51 -53 -10 -69 59
-23 240 10 295 54 59 47 -2 76 -128 60z m125 -23 c0 -30 -129 -70 -227 -70
-34 0 -64 4 -67 9 -8 12 32 37 90 55 55 17 204 21 204 6z"/>
<path d="M4630 4844 c-12 -32 -5 -67 26 -121 42 -73 105 -98 124 -49 11 30 0
72 -35 132 -40 68 -97 87 -115 38z m89 -30 c27 -34 55 -110 48 -129 -21 -54
-117 56 -117 135 0 14 3 30 6 33 10 9 40 -9 63 -39z"/>
<path d="M4113 4155 c0 -38 2 -53 4 -32 2 20 2 52 0 70 -2 17 -4 1 -4 -38z"/>
<path d="M6462 4143 c-43 -16 -62 -167 -29 -229 33 -64 70 -44 88 48 19 96
-13 197 -59 181z m39 -53 c17 -60 3 -180 -22 -195 -5 -4 -16 9 -24 29 -28 67
-12 201 23 194 9 -2 19 -14 23 -28z"/>
<path d="M6085 4065 c-5 -2 -54 -13 -108 -25 -54 -12 -97 -23 -95 -25 2 -2 66
9 143 25 77 16 124 29 105 29 -19 -1 -39 -2 -45 -4z"/>
<path d="M4120 3385 c-58 -19 -83 -31 -152 -78 -143 -98 -237 -278 -279 -535
-17 -106 -20 -155 -16 -297 7 -248 47 -418 139 -597 82 -161 127 -181 225
-100 77 63 98 76 162 97 79 26 196 18 279 -20 34 -15 61 -30 58 -32 -2 -2 -31
3 -64 11 -145 38 -289 0 -387 -101 -51 -53 -55 -92 -15 -156 71 -114 231 -274
362 -362 188 -126 509 -261 888 -374 253 -75 467 -100 540 -63 45 22 75 79 65
128 -10 58 -76 174 -173 305 -110 151 -206 302 -300 474 -146 267 -184 401
-189 664 -2 96 -5 176 -8 179 -2 2 -22 5 -43 6 -22 1 -51 9 -64 18 -31 21 -58
76 -58 120 l0 33 20 -33 c52 -85 159 -95 192 -18 7 18 13 65 12 111 -2 194
-108 315 -277 315 -50 0 -79 -6 -110 -21 -132 -67 -190 -170 -232 -414 -29
-168 -33 -179 -78 -275 -47 -100 -57 -141 -57 -230 0 -80 16 -153 45 -210 l18
-35 -25 23 c-49 45 -82 129 -86 220 -5 97 5 143 58 267 38 89 50 145 100 452
32 193 30 199 -123 363 -148 160 -183 180 -301 179 -45 0 -101 -7 -126 -14z
m240 -32 c44 -18 251 -227 279 -282 25 -47 26 -102 7 -197 -8 -38 -20 -107
-26 -154 -19 -144 -40 -229 -75 -308 -76 -175 -84 -294 -26 -418 35 -74 118
-164 152 -164 11 0 19 2 19 4 0 2 -15 29 -33 59 -48 78 -70 159 -71 247 0 80
10 121 55 213 33 70 53 130 70 217 6 36 13 66 14 68 2 2 18 -6 36 -17 47 -29
116 -28 160 2 41 27 79 98 78 147 l0 35 -16 -24 c-40 -56 -133 -88 -183 -61
-30 16 -44 73 -29 118 67 207 307 286 441 145 85 -89 107 -325 32 -353 -52
-20 -127 36 -140 106 -8 46 -19 43 -34 -11 -15 -54 -7 -101 24 -148 20 -30 22
-36 9 -41 -35 -14 -115 -3 -208 28 -11 4 -2 -3 20 -16 34 -20 54 -23 137 -23
53 0 100 -3 104 -8 4 -4 25 -7 46 -7 l40 0 -7 -98 c-11 -148 16 -331 71 -485
64 -176 255 -506 434 -747 43 -58 95 -136 116 -174 71 -130 48 -207 -69 -221
-124 -16 -453 68 -852 216 -330 122 -509 230 -695 419 -137 138 -178 198 -166
245 10 39 63 87 133 122 53 26 67 28 163 27 101 -1 126 -6 233 -49 29 -12 20
18 -15 52 -129 124 -371 135 -515 22 -113 -88 -119 -92 -145 -78 -34 18 -44
33 -99 145 -77 158 -111 291 -130 504 -20 234 22 485 112 665 22 44 51 94 65
110 l25 30 -8 -30 c-18 -75 3 -120 64 -131 19 -4 49 -2 66 4 31 10 30 10 -21
11 -42 1 -58 6 -77 26 -30 29 -31 47 -6 100 64 138 291 220 441 158z m466
-669 c28 -5 48 0 95 24 l60 31 -23 -41 c-23 -41 -80 -77 -121 -78 -59 0 -117
62 -102 109 6 20 7 20 31 -9 15 -18 39 -32 60 -36z"/>
<path d="M4203 2385 c-63 -64 -129 -98 -204 -103 -64 -5 -106 12 -151 61 -35
39 -38 20 -3 -22 75 -88 232 -77 346 26 31 28 82 98 67 92 -2 -1 -26 -25 -55
-54z"/>
<path d="M4430 2278 c-25 -52 -30 -75 -29 -128 l2 -65 7 70 c3 42 16 93 32
128 15 31 25 57 22 57 -3 0 -18 -28 -34 -62z"/>
<path d="M4411 2064 c0 -11 3 -14 6 -6 3 7 2 16 -1 19 -3 4 -6 -2 -5 -13z"/>
<path d="M4218 1966 c-39 -14 -128 -64 -128 -72 0 -2 24 10 54 26 30 17 85 37
123 45 57 11 62 13 28 14 -22 0 -56 -6 -77 -13z"/>
<path d="M5886 3439 c-52 -41 -22 -165 54 -219 41 -29 38 -17 -10 37 -80 91
-72 174 18 181 42 3 107 -22 131 -52 8 -9 18 -16 24 -16 18 0 -43 58 -78 75
-47 22 -107 19 -139 -6z"/>
<path d="M6160 3302 c0 -6 5 -14 11 -18 6 -3 20 -25 30 -48 47 -104 1 -162
-98 -121 -20 8 -38 13 -41 10 -3 -2 1 -32 8 -65 7 -33 15 -58 18 -56 2 3 -1
26 -7 52 -7 25 -10 48 -8 50 2 3 17 -2 33 -11 97 -50 168 39 115 143 -20 39
-61 82 -61 64z"/>
</g>
</svg>
