<?xml version="1.0" standalone="no"?>
<!DOCTYPE svg PUBLIC "-//W3C//DTD SVG 20010904//EN"
 "http://www.w3.org/TR/2001/REC-SVG-20010904/DTD/svg10.dtd">
<svg version="1.0" xmlns="http://www.w3.org/2000/svg"
 width="1024.000000pt" height="559.000000pt" viewBox="0 0 1024.000000 559.000000"
 preserveAspectRatio="xMidYMid meet">
<metadata>
Created by potrace 1.16, written by Peter Selinger 2001-2019
</metadata>
<g transform="translate(0.000000,559.000000) scale(0.100000,-0.100000)"
fill="#000000" stroke="none">
<path d="M5035 5014 c-51 -19 -113 -79 -126 -124 -6 -19 -9 -62 -7 -95 2 -43
-1 -63 -11 -71 -27 -21 -6 -135 29 -154 26 -14 49 -96 43 -153 -5 -39 -12 -53
-37 -71 -46 -35 -129 -75 -204 -97 -88 -27 -135 -59 -167 -113 -33 -57 -58
-174 -50 -240 4 -31 1 -76 -9 -116 -8 -36 -18 -108 -21 -160 -6 -70 -16 -119
-42 -190 -24 -66 -40 -137 -53 -235 -11 -77 -28 -179 -38 -226 -18 -83 -20
-88 -78 -145 -32 -32 -66 -72 -74 -89 -8 -16 -22 -41 -32 -54 -10 -13 -18 -30
-18 -37 0 -21 37 -26 71 -9 17 9 29 13 26 8 -12 -19 -37 -167 -32 -184 4 -11
16 -19 30 -19 14 0 25 -7 28 -20 5 -21 41 -28 52 -10 4 6 11 8 16 4 12 -7 49
24 49 42 0 8 11 12 27 11 32 -2 32 -3 63 163 13 70 19 129 15 150 -7 37 13 95
110 325 55 128 70 184 79 280 6 66 39 211 49 222 17 17 40 -164 32 -251 -4
-44 -11 -121 -15 -171 -4 -49 -15 -128 -24 -175 -58 -297 -62 -609 -11 -867 8
-39 19 -83 25 -98 15 -39 12 -287 -5 -390 -25 -149 -21 -185 49 -530 38 -182
33 -271 -19 -349 -20 -30 -51 -68 -69 -84 -18 -15 -35 -35 -38 -44 -15 -39 51
-77 160 -92 66 -10 132 35 132 88 0 11 12 32 26 47 29 30 29 33 18 179 -12
165 -8 287 12 390 15 73 19 141 19 295 1 153 5 215 18 265 9 36 21 139 27 230
5 91 17 203 25 250 9 47 18 131 22 188 3 56 9 105 13 107 4 2 10 -37 14 -88 3
-51 13 -130 21 -177 8 -47 20 -152 25 -235 12 -185 17 -218 42 -325 17 -73 19
-94 9 -152 -17 -103 -13 -186 15 -341 22 -121 25 -159 20 -252 -17 -307 -17
-302 8 -332 13 -16 26 -40 29 -54 4 -15 23 -41 43 -58 34 -31 39 -32 93 -25
89 10 161 47 161 81 0 8 -24 40 -53 71 -88 94 -98 117 -99 224 -1 72 9 140 41
296 46 226 51 309 26 457 -21 130 -19 285 5 381 73 293 75 619 8 934 -12 52
-22 120 -24 150 -2 30 -9 105 -15 165 -11 107 -3 215 21 280 11 30 51 -111 61
-215 8 -91 37 -197 74 -270 12 -25 43 -98 69 -162 37 -95 46 -129 46 -179 0
-57 19 -183 42 -272 7 -31 13 -38 31 -35 15 2 27 -6 40 -26 13 -20 24 -27 37
-23 11 3 23 1 26 -4 10 -16 36 -9 41 11 4 13 14 20 29 20 41 0 41 22 7 183
l-5 27 29 -16 c16 -10 37 -15 46 -11 18 7 23 42 8 51 -5 3 -23 30 -39 59 -17
30 -51 72 -76 94 -25 22 -49 51 -54 64 -13 34 -48 224 -66 354 -10 68 -27 140
-46 189 -23 59 -34 108 -41 190 -6 61 -16 134 -23 163 -8 31 -12 78 -9 117 7
80 -18 185 -56 242 -34 50 -79 79 -149 98 -61 17 -217 92 -234 114 -29 35 -15
196 19 209 35 14 62 117 38 148 -9 13 -14 44 -15 88 0 76 -19 124 -67 169 -56
54 -157 72 -238 42z m148 -15 c48 -13 104 -62 122 -107 19 -43 21 -178 3 -147
-7 11 -15 42 -20 70 -10 65 -37 90 -88 78 -19 -4 -75 -7 -123 -5 -100 4 -114
-3 -122 -57 -13 -77 -17 -91 -26 -91 -14 0 -11 117 5 153 38 89 146 135 249
106z m-83 -131 c19 0 59 3 88 7 61 8 82 -3 82 -44 0 -14 7 -57 16 -94 16 -63
16 -73 0 -144 -28 -127 -84 -193 -166 -193 -39 0 -48 5 -95 53 -47 48 -53 59
-69 133 -15 69 -16 89 -6 130 7 27 14 68 17 92 6 49 34 75 73 67 14 -3 41 -6
60 -7z m-175 -228 c8 -61 -3 -60 -21 1 -9 29 -9 39 0 40 7 0 7 2 -2 6 -6 2 -9
9 -6 15 11 17 22 -6 29 -62z m422 53 c-3 -10 -8 -35 -12 -55 -9 -58 -28 -59
-20 -2 4 27 8 55 10 62 7 19 27 14 22 -5z m-280 -302 c44 -22 98 -13 147 24
l46 35 1 -38 c1 -41 11 -84 19 -81 3 1 43 -19 90 -44 47 -25 111 -52 143 -60
77 -20 128 -57 160 -115 31 -57 51 -161 42 -218 -3 -24 1 -75 9 -121 9 -43 20
-121 25 -173 6 -59 19 -120 35 -160 33 -87 42 -123 61 -265 9 -66 26 -164 38
-218 20 -92 24 -101 60 -129 52 -42 143 -178 118 -178 -9 0 -31 16 -48 35 -33
37 -60 47 -48 18 12 -29 55 -197 55 -215 0 -40 -20 -14 -41 52 -13 39 -27 70
-31 70 -11 0 -10 -2 7 -93 14 -76 12 -108 -6 -90 -4 4 -15 42 -24 83 -17 80
-43 127 -31 55 17 -93 18 -125 8 -125 -11 0 -25 41 -38 113 -10 58 -24 54 -24
-7 0 -66 -15 -74 -25 -13 -3 23 -13 74 -21 114 -8 40 -14 97 -14 127 0 58 -34
168 -91 292 -63 139 -80 191 -94 299 -8 61 -26 154 -40 206 -29 110 -33 233
-10 299 25 72 16 69 -19 -6 -46 -98 -82 -122 -201 -134 l-70 -7 72 -2 c82 -1
116 9 156 47 l27 26 0 -41 c0 -23 -12 -99 -26 -170 -22 -105 -25 -143 -20
-213 15 -202 25 -289 40 -355 36 -164 48 -312 43 -530 -5 -179 -10 -228 -33
-330 -36 -159 -42 -316 -18 -482 21 -153 17 -215 -32 -448 -30 -144 -37 -201
-37 -287 0 -98 3 -111 28 -153 15 -26 49 -70 76 -97 27 -28 47 -53 44 -57 -4
-3 -11 2 -16 12 -6 9 -15 17 -21 17 -9 0 -9 -3 0 -12 7 -7 12 -19 11 -28 0
-11 -4 -9 -16 8 -8 12 -20 22 -26 22 -7 0 -7 -4 1 -12 7 -7 12 -21 12 -32 0
-17 -5 -15 -30 14 l-31 35 16 -32 c11 -24 12 -34 3 -39 -7 -4 -16 0 -22 11
-16 27 -47 57 -53 52 -2 -3 5 -15 17 -27 17 -17 19 -24 9 -36 -17 -20 -33 -17
-68 11 -22 19 -33 40 -41 82 -7 32 -15 51 -19 44 -15 -24 -33 16 -27 56 10 58
19 229 18 308 -1 39 -14 139 -28 224 -26 149 -26 159 -14 269 12 103 12 122
-3 181 -24 97 -35 181 -42 320 -3 68 -15 176 -25 240 -11 64 -23 154 -26 201
l-6 85 29 22 c27 19 53 80 53 123 0 25 -18 -2 -30 -45 -30 -108 -130 -99 -160
14 -14 55 -25 46 -16 -13 5 -32 16 -54 37 -73 26 -25 29 -35 29 -86 0 -32 -11
-131 -24 -220 -14 -89 -27 -223 -31 -297 -4 -94 -14 -166 -32 -238 -23 -94
-24 -109 -14 -178 17 -112 14 -178 -15 -341 -22 -123 -25 -165 -20 -248 4 -55
8 -147 9 -205 2 -93 0 -105 -15 -104 -12 1 -19 -10 -24 -39 -8 -48 -63 -111
-91 -105 -23 4 -30 46 -9 54 9 3 16 11 16 17 0 6 -11 0 -25 -13 -14 -13 -25
-29 -25 -37 0 -7 -7 -13 -15 -13 -18 0 -20 31 -3 48 6 6 9 15 5 18 -3 4 -14
-7 -24 -25 -26 -46 -48 -37 -23 10 15 27 -4 24 -23 -3 -13 -19 -16 -20 -16 -6
-1 9 4 20 9 23 6 3 10 12 10 18 -1 7 -10 1 -20 -12 -11 -13 -20 -20 -20 -16 0
4 24 33 54 65 75 81 94 127 95 225 1 68 -38 330 -53 353 -2 4 -12 60 -21 124
-16 110 -16 125 0 236 24 169 17 368 -19 527 -22 99 -28 154 -33 315 -6 208 6
337 48 545 11 55 22 123 24 150 19 298 19 294 -9 426 -14 70 -26 141 -26 159
l0 33 23 -20 c44 -40 83 -53 159 -52 l73 2 -70 7 c-38 5 -81 12 -95 18 -40 16
-81 62 -111 127 -31 66 -37 63 -15 -6 26 -77 25 -164 -1 -269 -13 -52 -32
-152 -43 -222 -19 -129 -27 -152 -131 -398 -47 -112 -53 -134 -55 -205 -1 -44
-9 -108 -18 -141 -9 -34 -16 -75 -16 -90 0 -16 -5 -36 -10 -44 -7 -11 -10 2
-10 43 0 31 -4 57 -10 57 -5 0 -10 -3 -11 -7 -2 -35 -38 -148 -47 -151 -15 -5
-15 17 2 96 7 34 10 62 6 62 -8 0 -27 -59 -36 -117 -3 -24 -13 -48 -22 -55
-16 -14 -16 -8 4 146 9 66 -8 54 -30 -21 -35 -125 -55 -111 -26 18 25 111 37
142 50 134 12 -7 62 18 81 41 8 11 -2 7 -25 -9 -25 -16 -48 -24 -60 -21 -15 3
-31 -5 -56 -31 -51 -53 -67 -46 -33 17 28 53 80 112 120 138 18 12 27 38 48
135 13 66 31 172 39 236 10 75 27 148 49 210 26 71 37 124 46 216 7 67 16 137
22 155 5 18 9 75 9 126 0 174 55 265 185 303 73 22 198 80 228 107 14 12 17
13 17 1 1 -33 19 18 26 69 l6 53 27 -24 c14 -14 36 -30 48 -36z"/>
<path d="M4998 4743 c-35 -9 -17 -18 37 -18 57 0 71 8 33 19 -25 6 -44 6 -70
-1z"/>
<path d="M5173 4743 c-28 -11 -10 -18 42 -18 47 0 53 2 38 13 -17 12 -57 15
-80 5z"/>
<path d="M5002 4701 c-10 -6 -7 -10 11 -15 28 -7 57 1 57 15 0 11 -51 11 -68
0z"/>
<path d="M5143 4670 c0 -25 2 -35 4 -22 2 12 2 32 0 45 -2 12 -4 2 -4 -23z"/>
<path d="M5176 4701 c-7 -11 28 -21 54 -14 28 7 14 23 -20 23 -16 0 -31 -4
-34 -9z"/>
<path d="M5155 4590 c-5 -8 -21 -10 -43 -6 -25 4 -32 2 -24 -6 6 -6 22 -10 37
-10 27 0 53 17 43 27 -3 4 -9 1 -13 -5z"/>
<path d="M5075 4520 c-14 -6 1 -9 49 -9 38 -1 67 2 63 5 -10 10 -91 13 -112 4z"/>
<path d="M5108 4483 c12 -2 30 -2 40 0 9 3 -1 5 -23 4 -22 0 -30 -2 -17 -4z"/>
<path d="M4865 4221 c11 -4 45 -12 75 -15 30 -4 63 -10 74 -13 11 -3 16 -1 12
5 -3 5 -29 12 -58 16 -29 4 -69 9 -88 12 -26 3 -30 2 -15 -5z"/>
<path d="M5283 4216 c-34 -6 -65 -15 -70 -20 -4 -5 5 -6 22 -2 17 3 60 11 98
17 37 6 67 13 67 15 0 7 -51 2 -117 -10z"/>
<path d="M5090 4179 c0 -13 41 -22 52 -11 6 6 -1 11 -21 14 -17 3 -31 1 -31
-3z"/>
<path d="M4812 3798 c3 -7 15 -15 27 -16 16 -3 22 1 19 10 -3 7 -15 15 -27 16
-16 3 -22 -1 -19 -10z"/>
<path d="M5385 3800 c-8 -12 20 -24 35 -15 5 3 10 10 10 16 0 12 -37 12 -45
-1z"/>
<path d="M4530 3463 c0 -16 35 -43 56 -42 14 0 15 2 4 6 -8 3 -25 15 -37 26
-13 11 -23 16 -23 10z"/>
<path d="M5689 3454 c-7 -9 -22 -20 -34 -24 -15 -7 -16 -9 -4 -9 20 -1 67 35
58 43 -3 4 -12 -1 -20 -10z"/>
<path d="M5113 3243 c-7 -3 -13 -9 -13 -14 0 -6 5 -7 11 -3 6 3 15 0 20 -7 7
-11 9 -11 9 3 0 20 -10 27 -27 21z"/>
<path d="M4820 3085 c35 -37 46 -44 34 -22 -13 23 -47 57 -58 57 -5 0 5 -16
24 -35z"/>
<path d="M5416 3094 c-14 -15 -26 -31 -26 -37 0 -6 1 -8 3 -6 1 2 15 19 31 37
36 38 30 43 -8 6z"/>
<path d="M5862 2760 c5 -17 65 -60 82 -59 6 0 3 6 -8 12 -10 7 -32 23 -49 37
-18 15 -28 19 -25 10z"/>
<path d="M4321 2669 c13 -8 97 -13 88 -5 -2 2 -26 6 -53 9 -30 3 -43 1 -35 -4z"/>
<path d="M5875 2670 l-40 -7 42 -2 c23 0 45 4 48 9 3 6 3 9 -2 9 -4 -1 -26 -5
-48 -9z"/>
<path d="M5430 1853 c0 -32 -3 -69 -6 -83 -4 -19 -3 -21 5 -10 15 25 25 136
12 144 -8 5 -11 -11 -11 -51z"/>
<path d="M4801 1834 c-1 -40 4 -67 14 -80 15 -18 15 -18 9 9 -3 15 -10 51 -14
80 l-8 52 -1 -61z"/>
<path d="M5290 1808 c0 -17 23 -68 31 -68 5 0 2 15 -7 33 -18 34 -24 44 -24
35z"/>
<path d="M4936 1775 c-9 -26 -7 -32 5 -12 6 10 9 21 6 23 -2 3 -7 -2 -11 -11z"/>
</g>
</svg>
