<?xml version="1.0" standalone="no"?>
<!DOCTYPE svg PUBLIC "-//W3C//DTD SVG 20010904//EN"
 "http://www.w3.org/TR/2001/REC-SVG-20010904/DTD/svg10.dtd">
<svg version="1.0" xmlns="http://www.w3.org/2000/svg"
 width="1024.000000pt" height="559.000000pt" viewBox="0 0 1024.000000 559.000000"
 preserveAspectRatio="xMidYMid meet">
<metadata>
Created by potrace 1.16, written by Peter Selinger 2001-2019
</metadata>
<g transform="translate(0.000000,559.000000) scale(0.100000,-0.100000)"
fill="#000000" stroke="none">
<path d="M4780 5078 c-6 -24 -17 -63 -24 -88 -27 -89 -45 -177 -56 -275 -6
-55 -18 -147 -27 -205 -20 -141 -28 -469 -15 -660 19 -280 73 -571 143 -780
18 -55 22 -94 26 -255 5 -185 4 -193 -25 -315 -59 -241 -64 -279 -60 -438 4
-135 9 -168 62 -402 31 -140 64 -299 72 -352 26 -177 19 -360 -18 -475 -14
-44 -19 -78 -16 -114 8 -77 33 -96 161 -125 58 -13 139 -37 179 -55 73 -31
218 -61 293 -61 22 1 49 1 60 1 11 -1 27 -1 35 -1 44 0 202 30 212 40 7 7 24
12 39 12 18 0 36 10 53 31 14 17 26 34 26 38 0 20 -32 45 -95 74 -39 18 -81
40 -95 49 -14 9 -51 26 -82 38 -32 12 -78 36 -102 53 -24 18 -80 58 -125 90
-44 32 -89 69 -100 83 -32 41 -63 176 -63 280 0 142 28 343 79 574 30 133 36
325 14 448 -20 113 -17 225 7 317 30 113 79 443 92 615 12 152 23 232 65 465
23 125 43 363 41 485 -1 33 3 44 13 42 19 -4 51 8 51 19 0 5 -13 9 -29 9 -75
0 -118 36 -171 141 -47 91 -85 132 -47 48 14 -30 31 -69 38 -88 16 -43 54 -88
90 -107 29 -15 29 -15 29 -113 0 -157 -19 -312 -72 -591 l-12 -65 -8 70 c-18
161 -42 268 -100 445 l-41 126 40 104 c23 58 44 116 47 130 13 48 -30 -43 -60
-127 -16 -46 -31 -83 -34 -83 -3 0 -24 46 -46 103 l-40 102 21 50 c23 53 49
145 42 151 -2 2 -10 -15 -17 -38 -22 -73 -43 -133 -50 -141 -7 -8 -84 205
-126 348 -35 121 -50 132 -18 14 39 -148 70 -239 159 -459 178 -443 223 -645
211 -959 -6 -178 -10 -208 -52 -470 -35 -216 -66 -335 -114 -443 -75 -167 -82
-207 -88 -515 -6 -390 5 -503 77 -767 40 -143 36 -139 281 -312 32 -23 82 -50
111 -59 30 -10 61 -23 69 -30 8 -7 46 -28 83 -48 38 -19 62 -37 55 -40 -7 -2
-21 0 -30 5 -11 5 -18 5 -18 -1 0 -16 38 -23 59 -12 28 16 33 14 29 -11 -2
-12 -15 -29 -29 -37 -26 -14 -29 -13 -82 33 -52 44 -117 75 -117 56 0 -5 13
-11 29 -15 29 -6 95 -65 73 -65 -7 0 -12 -5 -12 -11 0 -7 9 -9 21 -6 13 3 19
1 16 -6 -8 -27 -47 -18 -78 18 -33 37 -109 83 -109 66 0 -5 8 -12 18 -16 9 -3
31 -17 47 -30 25 -21 28 -27 15 -35 -12 -8 -10 -10 8 -10 31 0 24 -24 -8 -28
-17 -3 -34 7 -60 36 -38 41 -78 68 -87 59 -2 -3 6 -11 19 -18 34 -18 49 -41
36 -56 -8 -10 -5 -13 11 -13 11 0 21 -4 21 -10 0 -25 -53 -7 -100 35 -28 25
-56 45 -63 45 -7 -1 3 -13 21 -27 30 -24 31 -27 15 -40 -17 -13 -16 -14 5 -8
12 4 22 2 22 -3 0 -18 -31 -22 -60 -7 -16 8 -53 15 -82 15 -29 1 -75 9 -103
19 -124 47 -234 81 -277 86 -59 8 -105 44 -113 88 -4 20 2 58 15 100 19 61 23
66 41 57 13 -7 25 -8 37 -1 15 9 14 10 -6 11 -37 0 -55 55 -41 122 23 106 -4
334 -75 643 -75 325 -84 400 -67 552 7 63 16 126 21 141 5 15 18 73 31 129 12
56 25 100 29 98 19 -12 16 -91 -8 -215 -21 -113 -25 -165 -26 -315 0 -194 1
-205 84 -625 22 -113 40 -234 41 -270 1 -59 2 -62 10 -30 12 48 10 67 -60 435
-70 370 -79 533 -41 755 31 179 34 220 19 260 -11 26 -13 69 -9 170 3 74 7
128 8 120 2 -8 9 -53 17 -100 l15 -85 -5 85 c-3 54 -17 130 -40 210 -141 502
-177 740 -178 1165 0 260 9 322 69 471 70 173 84 215 89 272 l5 57 -15 -62
c-13 -57 -105 -306 -111 -300 -7 7 28 275 46 342 30 115 27 111 52 79 12 -16
29 -33 38 -38 8 -5 30 -25 49 -43 l34 -34 -6 -137 c-7 -164 -25 -239 -103
-436 -58 -144 -115 -309 -113 -330 0 -6 7 5 15 24 l14 35 -5 -45 c-16 -132
-16 -262 -1 -390 31 -252 79 -423 161 -587 53 -103 49 -76 -5 47 -52 116 -76
193 -105 335 -62 310 -60 588 7 778 17 48 32 86 33 85 2 -2 -1 -37 -5 -78 -12
-99 -12 -252 0 -372 14 -148 46 -287 105 -465 70 -212 80 -261 67 -354 -11
-84 -8 -99 7 -42 26 94 10 210 -54 387 -86 237 -119 459 -112 741 4 194 5 203
37 290 60 168 92 378 76 490 -7 46 -11 50 -101 129 -38 33 -40 37 -39 90 2 66
-11 73 -26 14z m539 -2991 c1 -61 -9 -136 -29 -240 -45 -225 -67 -369 -76
-492 l-8 -110 -12 60 c-19 94 -36 417 -28 545 l7 115 39 -115 c47 -140 40 -81
-9 74 -34 108 -34 113 -24 193 10 83 41 187 82 278 l23 50 17 -135 c10 -74 18
-175 18 -223z"/>
<path d="M4840 5042 c6 -13 25 -31 42 -40 16 -10 50 -32 74 -50 24 -18 41 -26
38 -19 -6 16 -46 47 -91 71 -18 9 -42 26 -54 39 l-21 22 12 -23z"/>
<path d="M5041 4815 c61 -77 173 -206 204 -235 21 -19 -7 19 -63 85 -55 66
-113 131 -128 145 -19 16 -23 18 -13 5z"/>
<path d="M4961 4782 c-1 -18 3 -63 9 -100 5 -37 14 -103 20 -147 26 -185 75
-363 154 -555 56 -137 58 -332 5 -636 -38 -224 -38 -329 2 -415 20 -42 35 -60
63 -73 20 -10 42 -15 49 -13 7 2 -5 11 -25 20 -51 21 -85 77 -99 162 -12 74
-10 90 41 395 17 98 21 158 18 277 -2 83 0 146 3 140 21 -39 101 -291 125
-393 24 -103 28 -140 28 -274 0 -143 -2 -161 -26 -230 -22 -61 -24 -70 -9 -51
40 52 56 137 55 291 -1 215 -39 363 -195 763 -110 281 -141 391 -174 610 -14
95 -29 192 -34 217 -8 41 -9 42 -10 12z"/>
<path d="M4972 4015 c0 -16 2 -22 5 -12 2 9 2 23 0 30 -3 6 -5 -1 -5 -18z"/>
<path d="M4981 3919 c0 -30 4 -74 9 -99 5 -31 6 -15 3 50 -6 105 -13 134 -12
49z"/>
<path d="M5033 2873 c-12 -2 -27 -11 -35 -20 -12 -15 -11 -15 9 -5 28 15 105
15 137 1 34 -16 50 -57 36 -95 -20 -51 -49 -74 -95 -74 -52 0 -91 37 -110 106
l-13 49 -1 -38 c-2 -78 53 -137 127 -137 38 0 49 5 78 36 28 29 34 43 34 77 0
24 -7 52 -15 64 -23 33 -88 48 -152 36z"/>
<path d="M5278 2717 c-8 -51 -36 -113 -75 -165 -20 -26 -21 -31 -6 -22 43 28
97 144 91 201 -3 32 -4 31 -10 -14z"/>
<path d="M4981 2633 c-1 -6 4 -24 10 -40 6 -15 15 -46 20 -68 l8 -40 -3 45
c-3 42 -33 130 -35 103z"/>
<path d="M5146 2569 c-22 -83 -29 -132 -17 -124 6 3 11 16 11 28 0 13 7 49 15
81 9 33 13 61 11 63 -3 3 -11 -19 -20 -48z"/>
<path d="M4984 2438 c58 -203 75 -347 82 -698 6 -304 23 -481 60 -602 4 -13
-8 -20 -53 -33 -31 -9 -70 -14 -85 -11 -35 7 -36 -1 -2 -14 20 -8 47 -4 116
15 101 27 116 35 70 35 -25 0 -33 5 -36 23 -5 23 -30 155 -41 217 -3 19 -10
190 -15 380 -5 229 -14 379 -24 445 -17 100 -61 265 -72 265 -4 0 -3 -10 0
-22z"/>
<path d="M4891 2383 c-7 -32 -15 -121 -18 -198 -7 -190 12 -310 102 -635 20
-72 65 -294 65 -320 0 -11 4 -20 9 -20 5 0 7 -10 5 -22 -4 -22 -4 -22 6 -3 8
16 9 10 5 -25 -3 -34 -2 -39 4 -20 l9 25 2 -25 c1 -14 4 -20 6 -14 3 6 -9 65
-25 130 -16 65 -33 137 -37 159 -3 22 -23 103 -44 180 -47 175 -57 218 -75
330 -17 107 -19 337 -4 436 13 86 6 101 -10 22z"/>
<path d="M5160 964 c-43 -19 -83 -55 -123 -114 -36 -53 -44 -60 -75 -60 -16 0
-27 9 -37 33 -12 27 -14 28 -15 10 0 -28 33 -63 59 -63 22 0 56 32 98 92 37
54 66 75 137 100 43 15 46 17 21 17 -16 0 -46 -7 -65 -15z"/>
</g>
</svg>
