<?xml version="1.0" standalone="no"?>
<!DOCTYPE svg PUBLIC "-//W3C//DTD SVG 20010904//EN"
 "http://www.w3.org/TR/2001/REC-SVG-20010904/DTD/svg10.dtd">
<svg version="1.0" xmlns="http://www.w3.org/2000/svg"
 width="1024.000000pt" height="559.000000pt" viewBox="0 0 1024.000000 559.000000"
 preserveAspectRatio="xMidYMid meet">
<metadata>
Created by potrace 1.16, written by Peter Selinger 2001-2019
</metadata>
<g transform="translate(0.000000,559.000000) scale(0.100000,-0.100000)"
fill="#000000" stroke="none">
<path d="M5422 4605 c-1 -49 5 -119 12 -155 90 -435 92 -454 72 -492 -8 -16
-11 -28 -6 -28 15 0 30 37 30 74 0 41 -18 139 -62 346 -17 80 -34 190 -38 245
l-7 100 -1 -90z"/>
<path d="M4822 4545 c0 -16 2 -22 5 -12 2 9 2 23 0 30 -3 6 -5 -1 -5 -18z"/>
<path d="M4811 4484 c0 -11 3 -14 6 -6 3 7 2 16 -1 19 -3 4 -6 -2 -5 -13z"/>
<path d="M4801 4434 c0 -11 3 -14 6 -6 3 7 2 16 -1 19 -3 4 -6 -2 -5 -13z"/>
<path d="M4792 4390 c0 -14 2 -19 5 -12 2 6 2 18 0 25 -3 6 -5 1 -5 -13z"/>
<path d="M4781 4344 c0 -11 3 -14 6 -6 3 7 2 16 -1 19 -3 4 -6 -2 -5 -13z"/>
<path d="M4772 4290 c0 -14 2 -19 5 -12 2 6 2 18 0 25 -3 6 -5 1 -5 -13z"/>
<path d="M4520 4036 c-64 -97 -127 -170 -215 -245 l-50 -42 50 32 c93 61 205
193 269 317 29 56 11 35 -54 -62z"/>
<path d="M5666 4098 c63 -122 178 -257 269 -317 l50 -33 -35 32 c-111 100
-177 174 -232 257 -63 96 -81 117 -52 61z"/>
<path d="M3778 3703 c-9 -10 -25 -37 -37 -60 -34 -69 -82 -99 -226 -145 -166
-52 -178 -58 -222 -119 -28 -39 -51 -58 -100 -81 -87 -42 -103 -71 -112 -197
-6 -92 -8 -100 -39 -135 -29 -33 -32 -43 -34 -109 -1 -40 -2 -87 -1 -105 0
-29 -2 -32 -21 -26 -11 3 -36 15 -53 26 -33 19 -80 17 -67 -4 13 -20 149 -78
184 -78 19 0 64 9 100 20 92 28 152 26 225 -8 67 -32 101 -70 143 -160 26 -55
27 -63 27 -232 0 -165 1 -177 22 -206 12 -17 20 -33 17 -36 -2 -3 -11 -37 -19
-76 -18 -86 -7 -153 31 -193 25 -27 26 -27 8 -55 -14 -21 -19 -47 -19 -115 l0
-88 41 -39 c50 -48 79 -65 102 -58 14 5 21 -3 31 -29 16 -46 103 -90 161 -82
37 5 38 3 44 -27 9 -48 47 -80 84 -71 17 3 38 15 48 26 9 10 20 19 24 19 3 0
14 -26 24 -57 21 -68 41 -93 72 -93 27 0 77 40 101 81 10 16 20 29 23 29 3 0
11 -31 18 -69 21 -125 54 -167 119 -149 52 14 80 63 126 218 5 17 2 23 38 -74
27 -73 57 -106 99 -106 45 0 75 36 103 126 14 44 28 72 31 64 3 -8 10 -35 17
-60 14 -55 37 -101 58 -117 23 -18 77 -16 96 3 23 24 52 85 60 127 7 37 25 61
25 34 0 -33 33 -119 56 -147 20 -23 34 -30 60 -30 49 0 78 36 105 128 l23 75
23 -75 c28 -91 58 -128 107 -128 26 0 40 7 60 30 23 28 56 114 56 147 0 28 18
11 25 -23 7 -40 46 -129 67 -155 7 -9 27 -23 45 -32 61 -32 100 10 124 135 7
34 16 67 20 71 3 5 16 -8 28 -27 44 -71 101 -95 134 -58 10 10 24 43 33 73 9
30 18 56 20 58 2 3 14 -5 27 -17 30 -28 77 -37 100 -20 10 7 24 31 32 53 13
39 15 40 53 37 58 -5 137 37 153 81 10 28 16 33 44 33 38 0 105 52 125 97 16
36 8 162 -12 202 -15 28 -15 31 7 51 46 43 55 143 21 241 -12 35 -11 40 8 66
19 27 21 42 21 205 1 161 3 181 23 225 43 96 80 137 148 169 77 36 131 38 224
9 78 -25 115 -26 165 -6 56 24 205 126 205 142 0 20 -5 18 -99 -41 -132 -83
-125 -85 -129 42 -3 104 -4 108 -34 139 -30 31 -32 39 -38 132 -9 128 -24 155
-110 198 -48 23 -75 45 -105 84 -45 59 -71 72 -251 129 -116 36 -165 70 -197
138 -12 25 -33 52 -47 61 -24 15 -24 15 -10 -3 8 -10 29 -44 45 -75 40 -75 97
-112 244 -157 149 -47 162 -54 203 -112 26 -35 54 -58 105 -85 85 -44 103 -77
103 -188 0 -75 8 -98 47 -141 20 -21 25 -37 25 -79 0 -29 4 -66 9 -83 11 -37
-11 -76 -44 -76 -12 0 -51 9 -85 20 -35 11 -83 20 -106 20 -129 0 -314 -115
-405 -251 -45 -67 -84 -180 -79 -226 3 -25 5 -23 21 22 38 106 73 169 124 223
l53 57 -22 -55 c-21 -50 -23 -69 -21 -218 3 -174 -3 -204 -37 -195 -16 4 -32
-6 -64 -40 l-43 -46 -21 21 c-18 19 -24 20 -51 8 -17 -7 -49 -32 -71 -56 -45
-49 -50 -52 -50 -26 0 10 -5 23 -12 30 -23 23 -56 13 -92 -30 l-36 -41 -11 30
c-18 54 -75 47 -114 -14 -11 -18 -22 -32 -25 -33 -4 0 -11 26 -18 59 -28 136
-118 120 -207 -38 -22 -39 -43 -71 -47 -71 -4 0 -12 18 -18 39 -15 56 -60 101
-100 101 -44 0 -92 -52 -121 -130 -12 -33 -25 -60 -29 -60 -4 0 -15 30 -25 66
-20 74 -70 137 -119 150 -73 18 -158 -49 -190 -150 -23 -76 -45 -75 -71 1 -25
74 -85 138 -138 148 -77 15 -132 -34 -172 -152 l-22 -68 -37 77 c-64 134 -129
156 -192 63 -12 -16 -24 -43 -28 -58 -8 -36 -20 -28 -52 35 -35 70 -106 138
-142 138 -40 0 -61 -27 -75 -98 l-12 -60 -23 34 c-12 18 -33 41 -47 50 -23 15
-27 15 -50 0 -14 -9 -25 -25 -25 -36 0 -11 -4 -20 -10 -20 -5 0 -10 4 -10 9 0
5 -14 23 -32 40 -42 41 -75 41 -92 0 l-13 -31 -27 28 c-14 16 -26 32 -26 37 0
4 -19 17 -42 27 -40 18 -45 18 -67 3 -24 -15 -26 -15 -50 14 -31 36 -64 55
-84 47 -8 -3 -19 1 -23 8 -5 7 -9 92 -9 188 0 161 -2 179 -23 225 l-23 50 45
-44 c48 -47 101 -140 132 -231 18 -53 19 -54 22 -22 7 70 -53 207 -127 286
-46 50 -139 116 -208 148 -89 42 -159 47 -251 19 -86 -26 -104 -26 -127 -1
-14 16 -15 24 -6 51 6 18 11 57 11 88 0 49 4 59 33 89 30 32 32 38 38 131 7
125 21 150 106 190 47 23 71 43 99 81 43 60 55 67 204 113 120 38 199 80 223
119 7 13 28 47 45 76 30 51 30 69 0 35z m-94 -1672 c38 -39 39 -40 27 -85 -6
-25 -11 -77 -11 -115 0 -45 -4 -71 -11 -71 -6 0 -28 14 -50 30 -31 25 -39 39
-45 77 -9 59 22 203 44 203 4 0 25 -18 46 -39z m2949 -21 c19 -67 22 -148 6
-182 -11 -23 -71 -68 -91 -68 -6 0 -8 12 -4 31 5 28 -7 148 -19 180 -5 14 66
99 82 99 4 0 16 -27 26 -60z m-2286 -12 c17 -18 52 -66 78 -107 l47 -73 -11
-56 c-6 -30 -11 -88 -11 -127 l0 -72 -45 -42 c-66 -61 -87 -55 -136 39 -22 42
-24 56 -23 190 0 185 20 280 58 280 7 0 26 -15 43 -32z m1621 -1 c19 -40 35
-199 30 -308 -5 -101 -26 -157 -75 -202 -19 -16 -21 -16 -61 13 -58 42 -69 65
-71 145 -1 39 -6 93 -12 121 l-10 52 55 85 c54 84 100 131 120 124 6 -2 17
-15 24 -30z m-2115 -34 c50 -51 54 -59 45 -82 -6 -14 -12 -69 -14 -121 -4
-104 -14 -120 -54 -80 -13 13 -30 20 -40 17 -47 -12 -71 89 -51 207 15 84 27
116 44 116 8 0 39 -26 70 -57z m2634 12 c23 -65 28 -203 10 -248 -14 -33 -20
-37 -41 -31 -18 4 -30 0 -43 -15 -9 -12 -25 -21 -35 -21 -16 0 -18 10 -18 68
0 38 -5 94 -12 126 l-11 57 54 55 c30 30 60 53 68 52 8 -2 20 -21 28 -43z
m-1517 4 c46 -26 72 -70 100 -169 23 -82 38 -305 22 -328 -5 -7 -48 -18 -98
-24 -97 -12 -191 0 -219 28 -35 35 -3 305 50 421 15 34 35 60 57 73 41 25 42
25 88 -1z m394 0 c51 -40 92 -157 116 -335 20 -149 5 -173 -126 -190 -59 -7
-195 12 -206 29 -21 32 -2 244 32 357 22 75 48 113 94 141 40 24 57 24 90 -2z
m-1350 -44 l37 -45 -11 -76 c-7 -43 -10 -104 -8 -137 l3 -60 -36 -12 c-20 -7
-41 -10 -47 -6 -35 21 -43 163 -16 284 25 118 25 118 78 52z m2296 -75 c22
-105 21 -156 -1 -227 -11 -36 -37 -43 -81 -22 -22 10 -24 15 -20 74 2 35 -1
93 -7 130 -7 36 -8 72 -4 79 19 33 76 87 83 79 5 -4 18 -55 30 -113z m-1664
74 c19 -19 34 -40 34 -46 0 -5 14 -40 31 -76 31 -66 31 -68 20 -142 -6 -41
-11 -92 -11 -112 0 -48 -19 -58 -103 -58 -50 0 -71 5 -98 23 l-34 23 1 90 c1
159 62 334 115 334 7 0 27 -16 45 -36z m1029 10 c42 -45 85 -209 85 -325 0
-91 -20 -110 -125 -117 -102 -6 -110 1 -120 116 -4 48 -8 101 -8 117 0 40 75
198 104 219 31 21 36 21 64 -10z m-1531 0 c9 -9 28 -31 42 -50 25 -32 26 -38
20 -111 -4 -43 -3 -104 2 -135 l9 -58 -39 -25 c-22 -15 -47 -25 -56 -23 -29 6
-46 59 -50 152 -4 78 1 119 24 239 6 30 25 35 48 11z m1994 -1 c19 -36 45
-215 39 -269 -7 -65 -35 -128 -60 -132 -10 -2 -33 8 -51 21 l-32 25 2 141 c1
147 1 146 53 204 29 32 37 33 49 10z m-1008 -179 c0 -14 -4 -23 -10 -19 -5 3
-10 15 -10 26 0 10 5 19 10 19 6 0 10 -12 10 -26z m-1409 -66 c8 -19 21 -31
40 -35 l28 -5 -20 -37 c-12 -23 -20 -63 -22 -102 -3 -59 -5 -64 -25 -62 -12 2
-41 21 -64 44 -40 39 -43 44 -42 98 0 31 6 73 13 93 11 34 16 37 46 36 27 -1
36 -7 46 -30z m2890 0 c8 -18 14 -61 14 -95 0 -60 -1 -62 -47 -107 -27 -26
-54 -43 -62 -40 -9 3 -16 30 -20 74 -5 45 -14 77 -27 93 -25 32 -24 33 11 40
19 4 35 17 45 37 23 44 67 43 86 -2z m-2734 -74 c7 3 19 -7 28 -24 8 -16 26
-32 39 -36 22 -5 23 -6 9 -57 -8 -31 -12 -71 -8 -100 5 -43 4 -48 -18 -58 -39
-18 -124 25 -138 70 -14 40 -7 155 11 193 11 23 16 25 38 17 14 -5 31 -8 39
-5z m2567 -24 c18 -46 21 -142 6 -186 -13 -38 -99 -82 -131 -68 -19 9 -22 19
-24 84 -1 41 -5 87 -9 102 -6 21 -4 27 13 33 12 3 28 19 36 34 11 22 20 27 38
24 14 -3 28 0 31 6 13 20 24 12 40 -29z m-2376 -55 c12 -20 32 -37 47 -41 19
-5 24 -11 19 -23 -4 -9 -9 -53 -12 -98 -4 -79 -6 -84 -38 -108 -72 -55 -99
-15 -99 150 0 80 4 107 18 128 23 36 41 34 65 -8z m2175 -5 c15 -29 18 -52 14
-135 -4 -105 -19 -155 -46 -155 -9 0 -33 11 -54 25 -37 26 -37 26 -38 98 -1
40 -4 83 -8 97 -6 21 -3 27 21 37 16 7 36 26 46 43 21 38 42 35 65 -10z
m-1973 -50 c13 -22 35 -43 47 -46 22 -6 23 -11 23 -86 0 -76 -2 -83 -34 -127
-53 -72 -83 -96 -99 -82 -23 19 -50 130 -50 211 0 84 15 144 46 178 24 26 20
28 67 -48z m1810 -46 c19 -92 -7 -263 -45 -294 -13 -11 -20 -9 -41 11 -15 13
-40 43 -56 67 -26 38 -30 52 -32 127 -2 66 1 85 11 85 19 0 57 43 78 87 l18
37 27 -31 c18 -20 33 -52 40 -89z m-1591 55 c16 -12 44 -24 62 -28 30 -7 34
-11 32 -38 -2 -17 2 -53 7 -79 8 -44 6 -60 -27 -157 -38 -113 -74 -167 -110
-167 -38 0 -70 118 -80 290 l-6 116 44 42 c24 23 45 42 47 42 2 0 16 -9 31
-21z m1340 -20 l44 -41 -6 -121 c-6 -136 -30 -247 -58 -273 -17 -15 -22 -16
-45 -3 -31 16 -54 59 -88 165 -21 64 -25 95 -23 167 l2 87 37 10 c20 6 47 19
60 30 12 11 25 19 28 20 3 0 25 -19 49 -41z m-1076 -14 c12 -13 38 -28 57 -33
l35 -8 0 -75 c-1 -96 -45 -242 -81 -266 -22 -14 -26 -14 -49 1 -39 26 -101
243 -93 331 3 38 5 40 41 46 21 3 43 11 50 18 15 15 15 15 40 -14z m783 10
c16 -8 41 -15 57 -15 26 0 27 -1 27 -59 0 -63 -38 -229 -64 -279 -18 -35 -47
-55 -68 -47 -38 15 -101 209 -96 297 3 52 4 52 41 61 21 5 45 20 55 33 9 13
18 24 18 24 1 0 15 -7 30 -15z m-439 -128 c-11 -160 -64 -289 -114 -273 -38
12 -79 137 -98 294 l-6 52 73 1 c40 1 84 5 98 9 54 17 53 17 47 -83z m177 76
l88 -6 -7 -61 c-9 -86 -33 -181 -56 -232 -51 -107 -111 -44 -149 157 -6 29
-10 76 -10 107 0 52 1 54 23 48 12 -4 62 -9 111 -13z"/>
<path d="M3897 3350 c-36 -11 -55 -27 -73 -63 -14 -25 -14 -31 0 -52 16 -24
53 -42 64 -31 3 4 -4 13 -16 22 -29 20 -28 48 4 73 44 34 98 26 153 -23 l24
-21 -17 32 c-27 53 -84 79 -139 63z"/>
<path d="M6273 3349 c-34 -10 -73 -52 -73 -78 1 -14 2 -14 11 2 13 23 62 47
94 47 34 0 81 -25 89 -47 5 -13 -1 -25 -20 -41 -14 -13 -24 -25 -21 -28 11
-11 48 8 63 31 13 20 14 28 2 51 -26 53 -87 79 -145 63z"/>
<path d="M4051 3123 c23 -61 49 -212 49 -290 0 -45 -9 -125 -21 -180 -32 -152
-32 -153 -13 -113 31 67 45 136 51 255 4 101 2 134 -16 208 -19 80 -45 147
-56 147 -2 0 0 -12 6 -27z"/>
<path d="M5092 3050 c0 -58 -2 -123 -6 -145 -5 -36 -5 -37 4 -10 16 47 23 176
12 220 -8 34 -10 24 -10 -65z"/>
<path d="M5136 3085 c-6 -58 4 -189 16 -201 4 -3 -1 205 -5 246 -2 14 -6 -6
-11 -45z"/>
<path d="M6170 3108 c-58 -134 -65 -343 -16 -512 29 -100 46 -96 19 4 -37 136
-38 325 -2 458 14 50 23 92 21 92 -1 0 -12 -19 -22 -42z"/>
<path d="M4670 2862 c0 -17 77 -77 137 -107 93 -46 225 -44 241 3 3 10 -5 10
-33 -2 -21 -9 -55 -16 -76 -16 -47 0 -151 45 -220 96 -27 19 -49 31 -49 26z"/>
<path d="M5490 2815 c-107 -73 -188 -91 -264 -60 -43 18 -49 2 -6 -20 49 -25
133 -19 205 15 58 28 162 109 140 109 -5 0 -39 -20 -75 -44z"/>
<path d="M4796 2689 c3 -6 43 -27 88 -48 148 -68 178 -138 205 -476 l8 -100 2
112 c3 258 -46 404 -153 460 -47 24 -157 62 -150 52z"/>
<path d="M5425 2690 c-11 -4 -50 -20 -88 -35 -146 -59 -200 -193 -196 -485 l2
-95 8 85 c35 358 58 413 204 481 46 22 87 44 90 49 7 11 7 11 -20 0z"/>
<path d="M4320 2460 c0 -11 -20 -83 -45 -160 -25 -77 -45 -157 -44 -178 l1
-37 9 40 c5 22 25 87 45 145 33 98 55 210 40 210 -3 0 -6 -9 -6 -20z"/>
<path d="M5911 2454 c-1 -16 11 -68 25 -115 14 -46 35 -119 47 -161 12 -42 25
-79 28 -82 13 -14 -6 80 -38 179 -20 61 -41 133 -48 160 -11 42 -13 45 -14 19z"/>
<path d="M4072 2244 c-23 -93 -26 -136 -12 -169 6 -15 9 -6 9 32 1 28 8 82 17
119 23 103 12 119 -14 18z"/>
<path d="M6140 2314 c0 -10 7 -48 16 -84 8 -35 15 -88 16 -117 1 -32 5 -48 10
-41 13 22 9 82 -13 169 -21 87 -29 106 -29 73z"/>
<path d="M4801 2187 c-14 -69 -22 -129 -18 -133 3 -3 8 4 11 17 2 13 12 60 21
104 9 44 15 93 13 110 -2 18 -12 -19 -27 -98z"/>
<path d="M5411 2284 c-1 -33 37 -225 46 -234 9 -8 -7 96 -27 185 -11 49 -19
68 -19 49z"/>
<path d="M3908 2217 c-10 -40 -17 -93 -17 -118 2 -31 3 -35 6 -14 2 17 10 60
19 96 9 37 14 77 12 88 -2 12 -11 -12 -20 -52z"/>
<path d="M6311 2270 c0 -14 4 -43 10 -65 5 -22 14 -65 18 -95 l8 -55 1 50 c1
28 -8 82 -18 120 -10 39 -19 59 -19 45z"/>
<path d="M4542 2178 c-27 -112 -27 -132 -1 -59 18 51 36 151 28 151 -3 0 -14
-42 -27 -92z"/>
<path d="M5671 2254 c-1 -29 38 -177 50 -189 12 -11 8 6 -27 130 -12 44 -23
71 -23 59z"/>
</g>
</svg>
