<?xml version="1.0" standalone="no"?>
<!DOCTYPE svg PUBLIC "-//W3C//DTD SVG 20010904//EN"
 "http://www.w3.org/TR/2001/REC-SVG-20010904/DTD/svg10.dtd">
<svg version="1.0" xmlns="http://www.w3.org/2000/svg"
 width="1024.000000pt" height="559.000000pt" viewBox="0 0 1024.000000 559.000000"
 preserveAspectRatio="xMidYMid meet">
<metadata>
Created by potrace 1.16, written by Peter Selinger 2001-2019
</metadata>
<g transform="translate(0.000000,559.000000) scale(0.100000,-0.100000)"
fill="#000000" stroke="none">
<path d="M4980 5249 c-273 -20 -568 -100 -756 -205 -209 -117 -423 -323 -537
-519 -92 -159 -165 -401 -197 -655 -12 -99 -12 -321 -1 -435 21 -196 53 -493
57 -522 5 -34 24 -43 42 -20 14 17 39 120 47 197 8 82 18 126 63 270 l36 115
1 245 c1 286 6 315 90 485 108 220 284 377 482 431 76 20 273 21 373 0 41 -8
127 -27 190 -42 162 -39 336 -39 500 0 209 49 263 57 390 58 110 0 135 -3 205
-27 233 -78 413 -275 512 -562 26 -76 27 -84 28 -328 l1 -250 42 -140 c24 -79
50 -188 58 -250 8 -60 21 -132 30 -158 16 -49 40 -70 53 -48 4 6 15 87 25 179
9 92 22 201 29 242 7 45 12 181 11 340 0 249 -2 273 -27 391 -60 283 -144 473
-287 648 -99 121 -145 165 -260 250 -248 184 -552 284 -944 311 -77 5 -143 9
-146 8 -3 0 -52 -4 -110 -9z m280 -39 c150 -12 364 -52 482 -90 133 -44 319
-139 419 -214 94 -71 218 -197 298 -303 140 -185 235 -477 261 -801 9 -111 -1
-425 -15 -472 -2 -8 -11 -87 -20 -175 -15 -160 -23 -211 -30 -204 -2 2 -10 56
-19 119 -18 125 -44 236 -78 327 -20 53 -22 79 -23 308 -2 292 -11 342 -95
510 -121 244 -320 409 -542 452 -97 18 -251 13 -363 -12 -278 -63 -312 -68
-420 -69 -90 0 -135 6 -250 33 -181 43 -293 61 -382 61 -308 1 -570 -193 -713
-528 -54 -128 -63 -192 -64 -452 l-1 -235 -38 -120 c-21 -66 -47 -178 -58
-250 -11 -71 -21 -134 -23 -140 -4 -12 -12 50 -31 225 -8 74 -19 182 -26 240
-15 137 -7 445 16 570 45 251 131 467 248 622 227 303 535 489 936 564 216 41
347 49 531 34z"/>
<path d="M3866 3845 c3 -66 9 -138 14 -160 8 -34 8 -31 3 20 -3 33 -9 105 -14
160 l-7 100 4 -120z"/>
<path d="M6372 3904 c-1 -39 -4 -100 -7 -135 l-4 -64 10 60 c5 33 8 94 6 135
l-3 75 -2 -71z"/>
<path d="M6352 3670 c0 -19 2 -27 5 -17 2 9 2 25 0 35 -3 9 -5 1 -5 -18z"/>
<path d="M6352 3550 c0 -14 2 -19 5 -12 2 6 2 18 0 25 -3 6 -5 1 -5 -13z"/>
<path d="M3881 3544 c0 -11 3 -14 6 -6 3 7 2 16 -1 19 -3 4 -6 -2 -5 -13z"/>
<path d="M3871 3504 c0 -11 3 -14 6 -6 3 7 2 16 -1 19 -3 4 -6 -2 -5 -13z"/>
<path d="M6361 3504 c0 -11 3 -14 6 -6 3 7 2 16 -1 19 -3 4 -6 -2 -5 -13z"/>
<path d="M3861 3464 c0 -11 3 -14 6 -6 3 7 2 16 -1 19 -3 4 -6 -2 -5 -13z"/>
<path d="M6371 3464 c0 -11 3 -14 6 -6 3 7 2 16 -1 19 -3 4 -6 -2 -5 -13z"/>
<path d="M4100 3427 c-36 -12 -87 -35 -115 -51 -58 -34 -175 -143 -175 -163 0
-7 2 -13 4 -13 2 0 42 20 88 45 198 105 321 109 662 20 162 -42 239 -45 244
-8 8 54 -63 108 -188 143 -195 55 -407 66 -520 27z m375 -23 c149 -28 242 -61
280 -100 36 -35 38 -54 7 -54 -9 0 -98 21 -197 46 -166 43 -192 47 -325 51
-150 4 -179 -2 -325 -62 -49 -20 67 61 131 92 108 52 248 61 429 27z"/>
<path d="M5780 3435 c-193 -33 -301 -79 -339 -146 -38 -68 41 -78 222 -28 138
39 303 69 373 69 104 0 205 -30 316 -92 76 -43 78 -43 78 -24 0 7 -32 43 -70
80 -74 69 -161 120 -245 142 -62 17 -234 16 -335 -1z m359 -33 c50 -15 208
-108 199 -117 -2 -3 -40 10 -84 28 -78 32 -81 32 -239 31 -158 0 -163 -1 -339
-47 -191 -50 -216 -54 -216 -34 0 15 45 59 78 76 62 32 227 70 352 80 106 9
179 4 249 -17z"/>
</g>
</svg>
