<?xml version="1.0" standalone="no"?>
<!DOCTYPE svg PUBLIC "-//W3C//DTD SVG 20010904//EN"
 "http://www.w3.org/TR/2001/REC-SVG-20010904/DTD/svg10.dtd">
<svg version="1.0" xmlns="http://www.w3.org/2000/svg"
 width="1024.000000pt" height="559.000000pt" viewBox="0 0 1024.000000 559.000000"
 preserveAspectRatio="xMidYMid meet">
<metadata>
Created by potrace 1.16, written by Peter Selinger 2001-2019
</metadata>
<g transform="translate(0.000000,559.000000) scale(0.100000,-0.100000)"
fill="#000000" stroke="none">
<path d="M5662 5128 c-19 -6 -40 -21 -47 -32 -19 -31 -41 -141 -65 -326 -12
-90 -27 -176 -33 -190 -14 -28 -44 -29 -65 -2 -26 34 -53 152 -68 297 -9 83
-18 160 -20 173 -6 31 -74 61 -139 62 -95 0 -222 -46 -245 -90 -5 -10 -7 -58
-3 -112 6 -94 -12 -198 -37 -213 -6 -4 -61 5 -123 19 -518 118 -893 94 -1345
-85 -333 -132 -622 -351 -804 -609 -172 -244 -269 -497 -335 -868 -26 -149
-28 -173 -27 -452 0 -306 5 -366 63 -730 17 -112 32 -238 45 -400 3 -30 -2
-152 -11 -270 -33 -462 3 -633 151 -724 37 -23 63 -31 114 -34 161 -11 305 60
539 266 135 119 202 170 309 235 217 132 438 224 712 297 106 27 231 67 280
88 87 38 235 129 281 172 23 23 24 23 38 4 28 -37 53 -93 73 -165 46 -166 13
-447 -77 -657 -20 -45 -33 -85 -30 -88 11 -11 59 67 86 142 54 148 85 373 70
511 -8 78 -41 194 -66 233 -9 14 -40 57 -69 95 -61 81 -87 136 -104 220 -15
72 -24 85 -60 85 -33 0 -50 -23 -75 -104 -26 -84 -91 -150 -203 -210 -103 -55
-193 -126 -275 -220 -205 -233 -455 -290 -637 -146 -80 63 -135 237 -111 351
38 184 180 322 369 359 73 15 180 9 267 -15 210 -57 302 -52 430 22 137 80
152 86 217 81 49 -4 63 -9 91 -36 33 -32 58 -93 73 -177 15 -86 93 -215 129
-215 20 0 23 20 31 201 7 184 -1 243 -42 316 -30 52 -88 93 -129 93 l-30 -1
30 -16 c17 -8 49 -34 73 -57 70 -67 82 -143 63 -401 l-6 -90 -31 42 c-18 25
-39 72 -49 110 -38 150 -46 173 -72 204 -32 37 -95 68 -140 69 -46 0 -130 -34
-204 -82 -114 -73 -198 -83 -363 -44 -211 52 -271 54 -396 20 -211 -60 -350
-238 -350 -447 1 -120 30 -208 95 -284 41 -48 135 -100 196 -108 77 -11 76
-15 -16 -64 -120 -63 -225 -135 -336 -229 -257 -219 -309 -256 -415 -293 -85
-30 -124 -29 -168 4 -79 61 -112 184 -82 310 31 133 104 244 257 392 228 220
309 306 411 440 124 163 218 260 314 323 162 105 331 161 614 201 397 57 555
101 733 208 44 26 112 78 152 115 l73 68 75 -79 c156 -163 186 -318 83 -432
-24 -26 -71 -88 -104 -136 -76 -109 -129 -170 -138 -160 -11 10 22 235 43 299
29 86 83 166 141 212 61 48 68 65 15 37 -35 -18 -166 -141 -151 -141 4 0 -4
-24 -16 -53 -58 -129 -80 -368 -61 -662 24 -374 11 -534 -64 -766 -38 -117
-39 -142 -5 -69 102 216 131 432 103 766 -6 71 -9 146 -7 166 l3 37 70 -97
c38 -53 86 -130 107 -170 33 -63 38 -83 40 -145 1 -69 1 -70 7 -22 l6 50 13
-55 c20 -81 42 -283 51 -456 5 -100 12 -158 21 -168 17 -21 102 -21 162 0 26
8 63 31 83 51 l37 36 -7 201 c-4 114 -13 223 -21 254 -18 70 -117 268 -155
312 l-31 35 20 -35 c32 -56 78 -149 111 -223 27 -62 31 -84 41 -230 5 -89 10
-187 10 -217 l0 -55 -48 -1 c-58 -1 -127 -26 -163 -60 l-26 -25 -7 163 c-7
186 -35 385 -65 473 -16 48 -21 85 -21 189 0 118 1 128 18 121 9 -4 26 -8 37
-9 19 -1 20 7 26 139 7 143 25 254 39 238 4 -4 16 -43 25 -85 30 -135 61 -142
89 -17 21 92 72 200 147 312 34 51 63 94 65 95 1 2 30 6 64 9 l62 5 -60 -71
c-179 -213 -212 -304 -228 -632 -8 -156 -2 -183 72 -331 56 -112 74 -123 28
-16 -68 157 -67 151 -61 366 5 202 15 264 57 360 23 51 138 215 196 280 37 40
45 44 144 66 346 78 606 257 920 636 197 238 297 331 524 485 185 125 230 159
319 244 186 178 251 336 198 485 -11 32 -28 68 -38 79 -19 21 -122 75 -204
107 -244 97 -775 165 -1234 159 -192 -2 -202 -1 -250 22 -41 19 -66 24 -140
24 -49 0 -110 -2 -134 -5 -44 -5 -45 -5 -54 30 -14 57 -10 247 7 355 l16 100
-35 31 c-55 49 -175 75 -243 52z m154 -43 c28 -8 60 -25 71 -37 20 -22 20 -26
7 -88 -22 -100 -28 -304 -11 -367 l14 -52 -61 -10 c-123 -22 -155 -23 -225
-11 -67 11 -72 14 -67 34 14 44 35 164 46 251 6 50 18 131 27 182 15 84 19 93
42 102 39 14 101 13 157 -4z m-512 -27 c32 -14 33 -18 41 -148 7 -108 35 -263
55 -301 15 -27 7 -34 -22 -18 -13 7 -66 14 -118 16 -74 3 -116 10 -190 35 -52
18 -96 32 -98 33 -1 1 6 17 15 36 14 27 18 60 19 162 0 145 1 146 80 177 56
22 178 27 218 8z m-888 -319 c205 -20 462 -74 656 -139 277 -93 368 -210 368
-475 0 -208 -26 -344 -128 -670 -62 -197 -83 -288 -102 -440 -22 -180 -86
-319 -182 -397 -208 -168 -386 -231 -828 -293 -331 -46 -533 -116 -706 -245
-89 -66 -137 -119 -296 -323 -95 -122 -166 -201 -257 -285 -165 -153 -215
-204 -269 -277 -93 -125 -151 -292 -138 -398 8 -64 45 -147 81 -183 14 -14 25
-28 22 -30 -2 -2 -28 11 -57 29 -135 80 -165 227 -135 653 16 233 16 261 1
421 -8 95 -27 241 -40 325 -53 329 -59 403 -60 678 0 204 4 291 17 380 45 293
103 491 203 694 205 413 557 706 1044 870 281 94 554 130 806 105z m914 -173
c30 -8 92 -27 138 -44 83 -31 206 -54 252 -47 14 3 97 16 185 31 111 18 182
25 233 22 94 -6 113 -23 37 -33 -262 -32 -437 -163 -559 -418 -59 -123 -91
-231 -122 -401 -59 -334 -71 -384 -125 -551 -22 -66 -44 -157 -51 -201 -15
-106 1 -190 73 -378 61 -161 97 -208 171 -224 l43 -9 -47 -7 c-26 -5 -76 -22
-110 -40 l-64 -32 4 57 c8 106 -48 221 -165 340 l-65 66 35 94 c26 69 41 135
57 244 22 160 45 256 110 455 53 160 75 243 94 355 22 122 31 325 17 404 -20
122 -92 237 -188 300 -52 35 -41 39 47 17z m1480 -96 c226 -14 420 -36 580
-66 251 -46 521 -149 528 -202 6 -40 -18 -80 -82 -139 -115 -107 -261 -191
-588 -342 -322 -147 -470 -240 -749 -472 -326 -271 -548 -381 -844 -420 -86
-11 -253 -7 -291 8 -27 10 -12 109 39 268 61 188 77 258 127 564 56 331 211
610 396 708 164 87 465 119 884 93z m1137 -406 c-13 -173 -154 -334 -492 -566
-262 -180 -343 -252 -517 -460 -158 -188 -342 -373 -453 -456 -200 -149 -487
-243 -740 -241 -141 1 -211 22 -247 74 -31 44 -114 250 -133 330 l-12 50 186
1 c156 0 200 4 272 22 252 63 420 159 753 432 268 219 389 293 741 455 346
159 534 279 613 390 14 19 27 35 30 35 3 0 2 -30 -1 -66z m-2261 -1770 c21 -5
19 -9 -26 -69 -82 -109 -170 -292 -170 -356 0 -10 -3 -19 -7 -19 -9 0 -43 162
-43 201 0 14 22 67 48 119 l49 94 59 17 c32 9 61 17 64 18 3 0 15 -2 26 -5z
m-191 -74 c-9 -17 -29 -52 -45 -77 -22 -34 -30 -41 -30 -26 0 11 -3 34 -6 51
-5 26 -2 33 32 56 53 36 69 35 49 -4z m-93 -97 c3 -53 -1 -85 -20 -143 -20
-59 -26 -103 -30 -208 -4 -129 -5 -133 -26 -130 -20 3 -21 8 -19 83 2 44 10
121 19 170 8 50 18 128 21 175 5 79 20 120 44 120 4 0 9 -30 11 -67z m-73 -64
c-6 -41 -12 -75 -14 -77 -2 -2 -11 20 -20 48 l-17 52 28 29 c15 16 29 27 31
25 2 -2 -2 -37 -8 -77z m-45 -83 c16 -57 16 -75 5 -162 -7 -55 -15 -105 -19
-113 -5 -9 -22 6 -55 50 -27 35 -58 75 -71 89 l-23 25 67 88 c36 48 69 87 73
87 3 0 14 -29 23 -64z m-614 -48 c5 -13 14 -47 19 -76 12 -60 42 -123 78 -167
l25 -29 -28 -24 c-106 -86 -255 -167 -384 -205 -127 -39 -322 -89 -326 -84 -2
2 51 57 119 123 99 96 138 127 207 163 47 24 101 57 121 73 46 35 94 109 109
168 22 81 42 101 60 58z m471 -135 c18 -27 55 -74 81 -105 l49 -57 -3 -96 c-2
-52 -4 -95 -5 -95 0 0 -20 30 -44 68 -23 37 -70 104 -105 149 -72 92 -83 137
-41 166 12 9 25 16 29 16 4 1 22 -20 39 -46z m458 -1089 c-34 -38 -96 -64
-151 -64 -55 0 -60 10 -18 40 42 30 98 48 149 49 l44 1 -24 -26z"/>
<path d="M5655 5060 c13 -22 109 -60 150 -60 70 0 72 17 3 22 -53 5 -88 15
-152 46 -5 3 -5 -1 -1 -8z"/>
<path d="M5160 5050 c-18 -6 -5 -8 45 -9 88 -2 103 -10 73 -38 -33 -30 -93
-45 -168 -41 -80 4 -87 22 -20 55 50 25 39 31 -15 9 -44 -19 -63 -52 -41 -74
20 -21 127 -28 184 -13 53 15 108 61 99 85 -12 32 -95 46 -157 26z"/>
<path d="M3405 4391 c-444 -215 -698 -529 -831 -1026 -13 -49 -24 -99 -23
-110 0 -11 9 14 20 55 83 322 216 571 412 770 112 114 241 204 421 295 81 41
142 75 135 75 -8 0 -68 -27 -134 -59z"/>
<path d="M5311 4330 c0 -3 8 -30 19 -60 14 -38 18 -44 14 -20 -5 29 -33 96
-33 80z"/>
<path d="M5352 4180 c-1 -19 3 -53 7 -75 l9 -40 0 35 c1 19 -3 53 -7 75 l-9
40 0 -35z"/>
<path d="M5128 3026 c-45 -197 -152 -338 -331 -437 -76 -42 -47 -35 36 8 100
53 205 160 251 255 32 69 72 215 64 238 -1 5 -11 -23 -20 -64z"/>
<path d="M3741 2340 c-79 -24 -195 -78 -258 -121 -125 -85 -186 -152 -338
-369 -48 -69 -113 -154 -143 -190 -49 -57 -51 -60 -13 -25 40 37 99 113 247
316 91 123 119 154 206 219 92 70 212 129 328 164 47 14 74 25 60 25 -14 0
-54 -9 -89 -19z"/>
<path d="M5910 4457 c-70 -35 -192 -148 -223 -208 -15 -29 -16 -31 -1 -9 10
14 54 61 98 106 57 57 100 90 146 112 36 17 61 31 55 31 -5 0 -39 -14 -75 -32z"/>
<path d="M5455 4407 c21 -52 55 -194 56 -242 1 -28 3 -32 6 -15 11 56 -37 253
-68 285 -6 6 -3 -7 6 -28z"/>
<path d="M5481 3864 c0 -11 3 -14 6 -6 3 7 2 16 -1 19 -3 4 -6 -2 -5 -13z"/>
<path d="M5472 3810 c0 -14 2 -19 5 -12 2 6 2 18 0 25 -3 6 -5 1 -5 -13z"/>
<path d="M5446 3682 c-10 -53 -42 -170 -71 -259 -29 -89 -56 -176 -59 -195 -8
-42 57 137 94 262 29 97 66 278 58 285 -2 3 -12 -39 -22 -93z"/>
<path d="M5332 3123 c-19 -52 -32 -96 -30 -98 2 -2 19 39 37 91 19 52 32 96
30 99 -2 2 -19 -39 -37 -92z"/>
<path d="M5301 3174 c0 -11 3 -14 6 -6 3 7 2 16 -1 19 -3 4 -6 -2 -5 -13z"/>
<path d="M5251 2864 c0 -11 3 -14 6 -6 3 7 2 16 -1 19 -3 4 -6 -2 -5 -13z"/>
<path d="M5242 2820 c0 -14 2 -19 5 -12 2 6 2 18 0 25 -3 6 -5 1 -5 -13z"/>
<path d="M5231 2752 c-1 -47 14 -83 67 -155 19 -26 50 -78 69 -115 19 -37 31
-56 27 -42 -11 42 -51 115 -100 185 -34 48 -48 80 -54 118 l-8 52 -1 -43z"/>
<path d="M5413 2330 c0 -25 2 -35 4 -22 2 12 2 32 0 45 -2 12 -4 2 -4 -23z"/>
<path d="M6870 4374 c19 -2 105 -9 190 -15 174 -12 312 -37 444 -79 50 -16 92
-28 94 -26 7 8 -169 65 -261 85 -112 24 -293 41 -417 39 -47 -1 -69 -3 -50 -4z"/>
<path d="M5906 4272 c-149 -123 -252 -302 -301 -524 -9 -43 -15 -83 -13 -90 3
-7 10 17 17 52 43 217 147 411 293 544 40 36 70 66 67 66 -2 0 -31 -22 -63
-48z"/>
<path d="M6449 3333 c-13 -16 -12 -17 4 -4 9 7 17 15 17 17 0 8 -8 3 -21 -13z"/>
<path d="M6320 3235 c-175 -139 -320 -216 -502 -266 -60 -16 -65 -18 -26 -14
67 9 203 56 290 102 75 39 284 190 327 237 14 14 23 26 20 25 -2 0 -51 -38
-109 -84z"/>
<path d="M5456 3131 c-31 -97 -34 -164 -6 -208 11 -18 22 -33 25 -33 3 0 -2
12 -12 27 -25 37 -22 121 6 212 30 100 20 101 -13 2z"/>
<path d="M6939 3158 c-41 -40 -122 -127 -179 -193 -198 -227 -268 -292 -410
-379 -110 -68 -351 -154 -439 -157 -14 0 -20 -3 -13 -6 38 -15 241 42 375 105
164 78 274 171 470 396 72 83 165 186 206 229 41 42 72 77 70 77 -3 0 -39 -33
-80 -72z"/>
<path d="M5833 2413 c9 -2 25 -2 35 0 9 3 1 5 -18 5 -19 0 -27 -2 -17 -5z"/>
<path d="M5133 2398 c-30 -29 -73 -79 -95 -110 -21 -32 -44 -58 -50 -58 -5 0
-32 16 -57 35 -49 36 -101 60 -101 47 0 -4 8 -12 18 -19 9 -6 43 -30 76 -52
32 -23 65 -41 72 -41 7 0 32 26 55 58 23 31 68 85 101 119 32 34 58 64 58 67
0 17 -27 1 -77 -46z"/>
<path d="M5070 2234 c-12 -19 -21 -37 -18 -39 2 -2 14 14 26 36 28 49 22 52
-8 3z"/>
<path d="M5036 2165 c-3 -9 -6 -24 -5 -33 0 -9 5 -4 10 12 9 32 6 48 -5 21z"/>
<path d="M5021 2094 c0 -11 3 -14 6 -6 3 7 2 16 -1 19 -3 4 -6 -2 -5 -13z"/>
<path d="M3600 1910 c-31 -15 -75 -49 -99 -75 -40 -44 -88 -131 -78 -142 3 -2
10 12 17 32 18 54 111 149 182 185 34 16 55 30 47 30 -8 -1 -39 -14 -69 -30z"/>
<path d="M4529 1903 c-24 -68 -32 -82 -67 -116 -20 -20 -61 -47 -89 -62 -61
-30 -71 -43 -15 -20 93 39 153 100 177 180 15 49 11 62 -6 18z"/>
<path d="M4731 1884 c-2 -27 31 -112 54 -139 l25 -30 -22 39 c-12 22 -30 62
-39 90 -10 28 -18 46 -18 40z"/>
<path d="M3412 1660 c0 -14 2 -19 5 -12 2 6 2 18 0 25 -3 6 -5 1 -5 -13z"/>
<path d="M4925 1523 c14 -38 37 -139 45 -202 l9 -66 -5 80 c-4 71 -37 205 -51
205 -3 0 -2 -8 2 -17z"/>
<path d="M3930 1393 c-110 -87 -240 -122 -336 -89 -27 9 -44 12 -39 7 20 -18
80 -31 140 -31 51 0 75 6 131 35 38 19 89 52 114 74 56 50 50 52 -10 4z"/>
<path d="M5552 1200 c0 -14 2 -19 5 -12 2 6 2 18 0 25 -3 6 -5 1 -5 -13z"/>
<path d="M5563 1100 c0 -41 3 -106 7 -145 l7 -70 0 85 c1 47 -3 112 -7 145
l-7 60 0 -75z"/>
<path d="M3253 1018 c-21 -18 -90 -82 -154 -143 -107 -102 -206 -172 -283
-202 -17 -6 -24 -12 -16 -12 21 -1 110 41 169 81 43 29 338 308 326 308 -2 0
-21 -15 -42 -32z"/>
</g>
</svg>
