<?xml version="1.0" standalone="no"?>
<!DOCTYPE svg PUBLIC "-//W3C//DTD SVG 20010904//EN"
 "http://www.w3.org/TR/2001/REC-SVG-20010904/DTD/svg10.dtd">
<svg version="1.0" xmlns="http://www.w3.org/2000/svg"
 width="1024.000000pt" height="559.000000pt" viewBox="0 0 1024.000000 559.000000"
 preserveAspectRatio="xMidYMid meet">
<metadata>
Created by potrace 1.16, written by Peter Selinger 2001-2019
</metadata>
<g transform="translate(0.000000,559.000000) scale(0.100000,-0.100000)"
fill="#000000" stroke="none">
<path d="M4659 5247 c-80 -23 -146 -84 -239 -222 -65 -97 -141 -179 -180 -195
-42 -17 -86 11 -126 80 -42 72 -90 127 -128 147 -48 25 -132 21 -199 -10 -67
-30 -91 -48 -166 -120 -72 -69 -95 -106 -185 -283 -45 -90 -108 -195 -155
-260 -122 -166 -160 -261 -144 -358 16 -102 59 -155 187 -230 159 -94 274
-226 377 -437 99 -200 120 -315 124 -664 2 -223 7 -305 29 -470 87 -666 185
-985 430 -1403 127 -216 295 -374 475 -446 69 -27 87 -30 186 -30 61 -1 128 1
150 3 22 2 88 0 147 -4 90 -7 119 -5 175 10 158 42 314 153 436 312 89 116
220 351 301 541 152 355 269 1036 265 1542 -1 107 4 227 10 265 38 233 169
499 321 653 34 34 106 89 160 123 162 99 194 145 194 274 0 73 -4 88 -37 155
-20 41 -71 120 -113 175 -50 66 -102 154 -154 258 -44 87 -100 184 -125 216
-95 121 -234 206 -335 205 -88 -1 -137 -36 -200 -144 -41 -71 -63 -94 -97
-104 -49 -15 -127 57 -232 212 -113 168 -181 216 -306 216 -58 -1 -85 -7 -160
-39 -49 -20 -120 -44 -157 -53 -61 -14 -75 -14 -135 0 -38 9 -106 32 -153 51
-99 42 -175 52 -241 34z m252 -79 c94 -43 94 -43 209 -42 111 0 118 1 196 37
218 99 321 68 454 -133 119 -180 183 -240 254 -240 58 0 95 27 139 101 20 35
46 75 57 89 l20 25 0 -31 c0 -40 20 -89 66 -160 82 -128 94 -168 124 -402 l12
-92 -31 -36 c-28 -31 -87 -134 -77 -134 2 0 20 29 41 65 21 36 46 72 56 81 16
15 19 13 38 -23 23 -44 92 -113 173 -172 31 -22 73 -60 93 -84 19 -23 53 -54
75 -67 l39 -24 -83 -42 c-156 -77 -256 -173 -345 -329 -48 -84 -115 -234 -108
-241 2 -3 21 28 42 68 134 262 230 376 399 477 100 59 110 63 152 57 28 -3 60
0 85 8 40 14 40 14 26 -7 -7 -12 -56 -48 -108 -79 -113 -68 -203 -147 -275
-243 -66 -88 -164 -276 -193 -370 -11 -38 -28 -92 -36 -120 l-15 -50 4 95 c6
138 47 236 167 398 l50 67 -44 -49 c-62 -69 -145 -204 -174 -283 -22 -60 -24
-83 -24 -217 l0 -150 -18 30 c-18 29 -100 104 -115 104 -4 0 17 -24 47 -53 69
-67 86 -102 93 -185 l6 -67 -46 75 c-44 73 -77 113 -126 155 -13 11 2 -11 34
-50 78 -96 136 -214 136 -274 l0 -46 -30 51 c-30 54 -107 136 -143 156 -12 6
6 -19 41 -56 34 -37 76 -95 94 -129 28 -56 31 -70 29 -142 -2 -100 -40 -415
-72 -600 -75 -428 -211 -790 -411 -1097 -137 -208 -299 -345 -468 -391 -79
-22 -521 -22 -599 0 -189 52 -358 206 -512 465 -169 284 -279 573 -343 904
-40 210 -87 550 -93 677 l-6 117 33 67 c20 41 58 93 95 130 33 35 58 63 54 63
-19 0 -125 -110 -152 -159 l-32 -56 -3 32 c-2 17 1 49 7 70 15 53 106 199 158
250 24 24 35 39 25 34 -33 -18 -120 -119 -157 -184 l-37 -62 7 69 c7 85 23
116 94 185 46 45 50 51 22 36 -18 -11 -50 -39 -71 -63 l-38 -43 0 143 c1 158
-9 203 -74 317 -37 67 -127 190 -153 211 -11 8 2 -11 28 -44 115 -142 167
-263 173 -401 l4 -90 -30 100 c-17 55 -54 147 -81 204 -105 221 -227 362 -400
464 -53 31 -103 67 -113 81 l-16 26 27 -11 c26 -11 167 -19 157 -10 -2 2 16
16 40 31 24 16 56 44 72 65 16 20 70 67 120 106 83 63 107 89 157 170 9 15 21
67 27 115 28 232 36 255 139 430 25 43 45 91 50 120 l7 49 56 -86 c67 -103 97
-129 150 -129 76 0 117 36 247 221 47 67 102 136 122 151 90 72 182 74 330 6z
m-964 -134 c51 -14 42 -80 -28 -195 -95 -156 -110 -201 -129 -369 -6 -52 -17
-116 -26 -142 -18 -55 -86 -134 -153 -180 -25 -18 -82 -66 -126 -108 -88 -84
-132 -106 -198 -97 -82 11 -121 62 -112 146 7 72 49 154 141 276 48 64 104
158 154 259 110 218 161 284 281 359 78 50 141 66 196 51z m2471 -12 c56 -21
141 -82 193 -138 55 -60 91 -117 162 -264 43 -90 95 -176 154 -257 99 -134
132 -200 140 -279 7 -62 -9 -93 -60 -124 -69 -42 -162 -15 -245 72 -31 33 -89
83 -128 113 -83 63 -128 112 -150 163 -9 20 -24 100 -35 176 -23 171 -37 215
-99 310 -62 96 -76 122 -84 168 -13 73 51 98 152 60z"/>
<path d="M4680 5077 c-19 -7 -44 -19 -55 -26 l-20 -13 20 7 c60 21 91 26 119
21 32 -6 146 -72 146 -84 0 -4 -20 -18 -45 -31 -24 -13 -71 -48 -102 -78 l-58
-54 63 51 c35 28 86 62 114 76 l51 26 28 -21 c27 -20 109 -40 109 -27 0 4 -21
16 -46 26 -25 11 -79 43 -119 70 -99 69 -139 80 -205 57z"/>
<path d="M5459 5080 c-14 -4 -61 -31 -104 -60 -42 -29 -97 -61 -121 -72 -24
-10 -44 -22 -44 -25 0 -12 85 9 112 28 l29 21 45 -23 c25 -13 75 -48 112 -77
l67 -53 -58 54 c-31 30 -78 65 -102 78 -25 13 -44 28 -42 32 1 5 29 25 61 45
61 38 117 47 176 30 14 -4 7 1 -15 12 -42 21 -73 23 -116 10z"/>
<path d="M4524 4968 c-27 -29 -66 -75 -86 -103 -49 -69 -152 -267 -177 -342
-23 -68 -28 -182 -11 -230 10 -26 9 -27 -5 -8 -20 25 -36 83 -46 165 l-8 65 4
-81 c5 -124 58 -224 120 -224 13 0 8 -11 -21 -42 -22 -24 -52 -60 -68 -81 -16
-21 -31 -36 -33 -33 -3 2 -9 40 -14 83 -18 144 -77 350 -141 494 -33 75 -51
91 -20 18 58 -137 118 -353 146 -527 14 -85 14 -96 -1 -118 -9 -14 -17 -23
-18 -22 -2 2 -8 44 -14 93 -21 156 -61 322 -90 373 -15 25 -13 12 8 -54 28
-89 49 -186 67 -317 15 -107 15 -120 1 -134 -14 -14 -16 -12 -22 23 -24 150
-78 303 -146 415 -61 102 -67 95 -10 -13 59 -110 116 -274 133 -382 10 -68 10
-83 -6 -129 -19 -57 -18 -118 2 -125 8 -2 12 9 12 35 0 50 23 91 130 233 142
188 256 274 410 311 120 28 185 18 405 -66 86 -33 119 -30 243 19 171 68 253
76 392 35 141 -41 235 -118 380 -309 105 -139 113 -153 120 -210 3 -25 10 -45
15 -45 17 0 17 91 1 124 -20 39 -20 66 3 176 25 116 69 236 127 344 56 105 34
87 -30 -24 -49 -87 -114 -270 -123 -350 -8 -68 -17 -85 -32 -57 -19 35 30 321
85 499 5 16 4 16 -5 2 -29 -45 -74 -227 -92 -373 -11 -90 -13 -97 -26 -80 -38
50 47 445 143 662 12 28 21 52 18 52 -3 0 -21 -35 -41 -77 -70 -154 -128 -367
-141 -515 l-7 -78 -68 81 c-38 44 -67 81 -65 82 46 24 64 36 80 57 27 37 48
125 46 195 l-1 60 -7 -75 c-6 -67 -46 -188 -57 -176 -3 2 0 14 6 25 7 11 12
56 12 99 1 92 -22 161 -107 322 -63 118 -132 216 -195 275 -24 22 -38 33 -32
25 5 -8 38 -53 73 -100 64 -87 178 -302 211 -399 35 -102 20 -244 -29 -270
-32 -17 -36 -14 -62 41 -23 48 -133 198 -145 198 -3 0 17 -28 43 -62 52 -67
94 -131 105 -162 7 -17 6 -17 -15 -4 -13 8 -45 27 -73 43 -27 16 -81 59 -120
97 -83 81 -188 159 -267 199 -85 43 -82 35 8 -19 112 -67 314 -232 284 -232
-34 0 -108 26 -130 45 -56 49 -167 115 -220 129 -14 4 7 -10 46 -31 38 -21 95
-56 124 -78 l55 -40 -51 -3 c-39 -2 -63 3 -103 23 -28 15 -57 25 -63 23 -7 -3
7 -12 29 -21 56 -22 60 -33 16 -42 -20 -3 -80 -24 -134 -46 -53 -21 -112 -39
-131 -39 -18 0 -60 12 -93 26 -33 15 -94 36 -135 49 l-74 23 49 26 c56 30 22
24 -38 -6 -27 -13 -54 -18 -90 -16 l-52 3 55 40 c29 22 86 57 124 78 39 21 60
35 46 32 -41 -11 -152 -75 -200 -115 -29 -24 -65 -43 -103 -52 -32 -8 -56 -12
-55 -8 12 29 205 180 314 245 68 41 64 46 -9 9 -81 -41 -175 -111 -262 -195
-44 -43 -102 -89 -127 -103 -26 -14 -59 -33 -73 -42 -24 -16 -25 -16 -18 2 7
22 87 139 134 199 30 38 29 38 -11 -5 -47 -50 -123 -162 -135 -198 -9 -31 -42
-26 -69 11 -33 44 -35 168 -6 250 50 135 159 332 256 460 20 26 34 47 31 47
-2 0 -26 -24 -53 -52z"/>
<path d="M4615 4941 c-31 -32 -71 -78 -88 -102 -33 -48 -131 -249 -141 -289
-4 -17 -1 -13 11 10 9 19 36 75 60 123 54 112 102 184 171 259 70 75 62 75
-13 -1z"/>
<path d="M5614 4940 c74 -80 125 -158 180 -275 23 -49 48 -101 54 -115 l12
-25 -6 25 c-3 14 -34 84 -69 155 -63 128 -124 213 -197 273 -18 14 -6 -2 26
-38z"/>
<path d="M4974 4903 c20 -66 36 -145 31 -153 -3 -6 -13 -10 -22 -10 -25 0
-165 -78 -208 -116 l-40 -35 50 35 c61 42 187 106 209 106 24 0 20 -80 -9
-225 -13 -66 -22 -121 -20 -123 8 -9 48 122 62 203 17 103 6 212 -27 291 -19
43 -37 62 -26 27z"/>
<path d="M5247 4888 c-53 -114 -51 -305 5 -455 11 -30 22 -52 24 -50 2 2 -7
60 -21 128 -28 141 -33 219 -11 219 25 0 120 -47 191 -95 83 -56 99 -64 65
-36 -72 61 -210 141 -244 141 -25 0 -26 14 -6 96 10 43 17 80 16 82 -2 1 -10
-12 -19 -30z"/>
<path d="M4492 4547 c-47 -68 -132 -228 -132 -244 0 -5 24 37 53 92 29 55 72
128 95 163 24 34 40 62 38 62 -3 0 -27 -33 -54 -73z"/>
<path d="M5756 4525 c10 -16 42 -75 71 -130 29 -55 53 -97 53 -94 1 23 -90
191 -125 234 -14 16 -14 14 1 -10z"/>
<path d="M3810 4306 c0 -4 13 -26 28 -49 16 -23 39 -61 52 -84 13 -24 25 -41
27 -39 2 2 -12 31 -32 65 -35 64 -75 119 -75 107z"/>
<path d="M4647 4232 c-18 -19 -23 -42 -9 -42 4 0 13 9 20 21 9 14 20 19 33 16
23 -6 26 8 3 17 -24 9 -29 8 -47 -12z"/>
<path d="M5543 4243 c-21 -8 -15 -22 6 -16 13 3 24 -2 33 -16 7 -12 16 -21 20
-21 15 0 8 27 -10 43 -19 17 -28 19 -49 10z"/>
<path d="M4780 4232 c-27 -8 -60 -45 -60 -66 0 -17 4 -15 28 13 31 38 60 39
78 3 7 -14 14 -19 18 -13 16 25 -33 73 -64 63z"/>
<path d="M5412 4218 c-7 -7 -12 -23 -12 -37 l1 -26 15 28 c19 35 46 34 78 -4
21 -25 26 -27 26 -12 0 45 -78 81 -108 51z"/>
<path d="M4919 4181 c-16 -16 -29 -39 -29 -52 0 -19 3 -18 23 12 30 44 70 48
75 7 4 -35 22 -37 22 -3 0 25 -31 65 -51 65 -6 0 -24 -13 -40 -29z"/>
<path d="M5250 4190 c-21 -21 -27 -65 -10 -75 6 -3 10 5 10 19 0 13 8 32 17
42 16 16 19 15 49 -20 17 -20 34 -36 38 -36 12 0 -24 59 -46 74 -29 20 -34 20
-58 -4z"/>
<path d="M4516 4138 c-9 -12 -16 -34 -16 -48 0 -24 1 -24 20 8 25 41 46 49 70
27 18 -16 20 -16 20 -2 0 38 -71 49 -94 15z"/>
<path d="M5648 4149 c-10 -5 -18 -20 -17 -32 0 -12 3 -16 6 -9 7 19 39 33 58
25 10 -3 23 -20 31 -37 13 -30 13 -30 14 -6 0 55 -47 86 -92 59z"/>
<path d="M4367 4132 c-17 -19 -22 -53 -10 -66 4 -3 12 8 18 26 9 29 15 33 43
31 27 -1 31 1 21 13 -16 20 -53 17 -72 -4z"/>
<path d="M5807 4143 c-13 -13 -7 -21 13 -16 27 7 50 -14 50 -44 0 -14 4 -21
10 -18 16 10 11 51 -8 68 -19 17 -53 22 -65 10z"/>
<path d="M4712 4068 c-7 -7 -12 -23 -12 -37 l1 -26 15 28 c17 31 30 34 56 10
15 -13 18 -14 18 -2 0 21 -21 39 -45 39 -12 0 -26 -5 -33 -12z"/>
<path d="M5468 4069 c-10 -5 -18 -17 -18 -26 0 -14 2 -14 20 2 23 21 47 14 59
-16 5 -16 10 -19 15 -10 10 16 -20 61 -42 61 -9 0 -25 -5 -34 -11z"/>
<path d="M4975 4050 c-27 -29 -15 -32 18 -4 16 14 22 24 14 24 -8 0 -22 -9
-32 -20z"/>
<path d="M5235 4058 c11 -6 25 -19 32 -27 7 -9 13 -11 13 -5 0 15 -33 44 -51
44 -9 0 -7 -5 6 -12z"/>
<path d="M3776 4004 c93 -145 164 -339 164 -449 1 -52 2 -58 14 -42 12 15 15
15 26 2 20 -25 34 -17 16 10 -34 52 -8 115 47 115 10 0 15 5 12 10 -10 16 -40
12 -68 -10 -32 -26 -37 -25 -37 4 0 35 -43 149 -86 232 -41 77 -101 171 -115
180 -6 3 7 -20 27 -52z"/>
<path d="M6457 4013 c-52 -71 -133 -239 -153 -319 -10 -38 -19 -71 -21 -73 -1
-2 -9 4 -18 13 -21 21 -64 31 -77 18 -7 -7 0 -12 20 -17 17 -3 36 -13 42 -21
12 -14 10 -63 -5 -99 -8 -19 -8 -19 12 -2 11 9 22 17 26 17 3 0 8 -8 10 -17 3
-10 5 7 6 37 1 30 8 83 16 117 18 78 91 245 144 329 22 35 39 64 36 64 -2 0
-19 -21 -38 -47z"/>
<path d="M3666 3950 c87 -92 149 -180 215 -302 50 -93 59 -88 11 7 -64 129
-161 257 -245 327 -49 40 -48 38 19 -32z"/>
<path d="M4485 3985 c-12 -27 -12 -40 -3 -62 l12 -28 3 30 c9 80 21 90 68 59
31 -20 33 -1 3 20 -38 27 -67 20 -83 -19z"/>
<path d="M5673 4005 c-31 -22 -29 -41 2 -21 13 9 31 16 40 16 20 0 37 -44 29
-76 -4 -14 -2 -24 4 -24 18 0 24 57 10 87 -16 33 -53 41 -85 18z"/>
<path d="M6557 3948 c-73 -71 -159 -192 -209 -293 -33 -64 -46 -114 -17 -60
98 181 151 258 248 358 87 89 72 86 -22 -5z"/>
<path d="M4232 3990 c-23 -21 -26 -37 -16 -64 10 -25 22 -19 17 8 -4 18 3 32
22 50 18 17 23 26 13 26 -8 0 -24 -9 -36 -20z"/>
<path d="M4327 3992 c-18 -20 -23 -87 -7 -97 6 -4 10 9 10 33 0 45 19 67 51
59 13 -3 19 -1 16 6 -6 20 -52 19 -70 -1z"/>
<path d="M5847 4003 c-13 -13 -7 -21 13 -16 31 8 50 -15 50 -59 0 -24 4 -37
10 -33 16 10 12 82 -6 99 -16 16 -55 22 -67 9z"/>
<path d="M5985 3984 c19 -18 26 -32 22 -50 -6 -32 11 -31 19 2 7 28 -27 74
-54 74 -10 0 -5 -9 13 -26z"/>
<path d="M4840 3970 c-12 -12 -20 -33 -19 -52 l1 -33 12 33 c15 44 39 58 61
36 23 -23 32 -8 10 16 -23 25 -40 25 -65 0z"/>
<path d="M5339 3971 c-13 -11 -21 -23 -17 -27 5 -4 17 1 28 11 24 22 45 8 59
-39 l9 -31 1 33 c1 20 -7 40 -19 52 -25 25 -32 25 -61 1z"/>
<path d="M4646 3914 c-18 -17 -22 -64 -6 -64 6 0 10 8 10 19 0 10 7 24 15 31
12 10 20 9 40 -4 29 -19 34 -7 7 17 -23 21 -46 22 -66 1z"/>
<path d="M5525 3910 c-14 -16 -15 -20 -4 -20 8 0 20 5 25 10 17 17 44 0 44
-26 0 -13 5 -24 10 -24 16 0 12 47 -6 64 -21 22 -47 20 -69 -4z"/>
<path d="M3460 3877 c93 -54 142 -92 206 -158 74 -79 102 -119 193 -284 85
-152 85 -131 1 40 -100 203 -209 323 -364 399 -90 45 -109 46 -36 3z"/>
<path d="M3642 3885 c8 -11 36 -45 62 -75 96 -109 164 -222 241 -403 21 -48
40 -86 42 -83 8 8 -35 128 -76 208 -58 115 -127 213 -210 297 -40 42 -67 67
-59 56z"/>
<path d="M4986 3878 c-18 -26 -20 -38 -6 -38 6 0 10 7 10 15 0 21 27 30 45 15
12 -10 15 -10 15 3 0 14 -20 27 -40 27 -5 0 -16 -10 -24 -22z"/>
<path d="M5202 3888 c-19 -19 -14 -29 8 -16 18 11 23 10 40 -12 15 -19 20 -21
20 -8 0 19 -26 48 -44 48 -6 0 -17 -5 -24 -12z"/>
<path d="M6544 3838 c-128 -131 -245 -333 -290 -498 -13 -50 15 -5 46 75 60
152 139 281 256 420 31 36 54 65 52 65 -2 0 -31 -28 -64 -62z"/>
<path d="M4162 3818 c-14 -14 -16 -74 -3 -83 6 -3 11 12 13 32 3 33 7 38 31
41 15 2 25 8 22 13 -9 13 -49 11 -63 -3z"/>
<path d="M6015 3821 c-3 -5 7 -11 22 -13 24 -3 28 -8 31 -41 2 -20 7 -35 13
-32 13 9 11 69 -3 83 -14 14 -54 16 -63 3z"/>
<path d="M4476 3788 c-18 -25 -21 -58 -7 -58 5 0 11 10 13 22 2 12 13 28 25
34 13 6 20 14 16 17 -12 13 -32 7 -47 -15z"/>
<path d="M4864 3803 c-11 -8 -34 -47 -34 -57 0 -15 19 -4 25 14 9 29 54 38 72
14 14 -18 14 -18 11 6 -2 20 -9 26 -33 28 -16 1 -35 -1 -41 -5z"/>
<path d="M5307 3803 c-4 -3 -7 -16 -7 -27 1 -19 2 -19 11 -3 17 29 56 21 76
-15 12 -25 18 -29 21 -16 6 31 -27 68 -62 68 -18 0 -36 -3 -39 -7z"/>
<path d="M5717 3803 c-4 -3 3 -11 16 -17 12 -6 23 -22 25 -34 5 -30 22 -28 22
2 0 38 -42 71 -63 49z"/>
<path d="M5088 3779 c-10 -5 -18 -15 -18 -21 0 -9 3 -9 12 0 17 17 54 15 73
-4 9 -9 18 -14 21 -11 9 9 -35 47 -53 47 -10 0 -26 -5 -35 -11z"/>
<path d="M4290 3756 c-13 -17 -10 -58 5 -63 6 -2 11 9 10 24 0 22 5 29 23 31
12 2 20 8 17 13 -9 14 -41 11 -55 -5z"/>
<path d="M5895 3760 c-4 -6 5 -10 21 -10 24 0 26 -3 22 -30 -3 -19 -1 -29 6
-27 16 5 19 46 6 63 -14 16 -46 19 -55 4z"/>
<path d="M4632 3749 c-27 -10 -47 -51 -37 -76 6 -15 9 -12 18 17 14 41 48 52
78 24 16 -15 19 -15 19 -2 0 29 -43 50 -78 37z"/>
<path d="M5559 3746 c-13 -6 -26 -20 -28 -31 -3 -19 -3 -19 16 -2 37 32 83 16
83 -30 0 -13 5 -23 10 -23 17 0 11 56 -7 72 -28 23 -48 27 -74 14z"/>
<path d="M4815 3650 c-10 -11 -15 -23 -12 -27 4 -4 13 2 21 12 10 14 20 16 41
11 25 -6 27 -5 16 8 -18 22 -44 20 -66 -4z"/>
<path d="M5368 3659 c-10 -5 -18 -15 -18 -21 0 -9 3 -9 12 0 19 19 46 14 59
-10 8 -15 14 -18 17 -10 5 15 -25 52 -42 52 -6 0 -19 -5 -28 -11z"/>
<path d="M4122 3640 c-24 -22 -28 -59 -12 -91 16 -28 32 -24 19 5 -7 14 -8 37
-5 52 6 24 10 26 47 21 44 -6 51 4 14 21 -34 16 -38 15 -63 -8z"/>
<path d="M6052 3644 c-12 -8 -22 -20 -22 -27 0 -8 3 -8 12 1 7 7 25 12 40 12
31 0 45 -30 34 -77 -6 -27 -6 -27 9 -9 16 21 20 63 7 82 -6 10 -45 34 -54 34
-2 0 -14 -7 -26 -16z"/>
<path d="M4390 3620 c-20 -20 -25 -45 -14 -74 10 -26 21 -18 16 12 -5 36 22
65 55 59 26 -5 32 8 7 17 -27 10 -43 7 -64 -14z"/>
<path d="M5017 3606 c-56 -40 -124 -70 -203 -91 -32 -8 -67 -18 -77 -21 -17
-5 -17 -3 3 33 11 21 20 47 19 58 -1 14 -3 11 -10 -10 -16 -58 -58 -91 -169
-136 -176 -71 -350 -193 -350 -245 0 -16 4 -14 23 10 15 19 29 27 39 23 11 -4
14 -1 11 12 -10 39 195 148 397 211 252 78 298 98 349 154 36 39 21 40 -32 2z"/>
<path d="M5170 3633 c0 -20 69 -74 130 -101 36 -16 108 -42 160 -57 195 -55
346 -120 443 -191 48 -35 49 -36 30 -56 -18 -21 -18 -21 5 -7 22 13 25 12 48
-16 13 -16 24 -24 24 -17 0 8 5 10 13 6 6 -4 -8 14 -33 40 -69 73 -202 156
-325 205 -121 47 -135 57 -164 116 -11 22 -20 33 -21 25 0 -8 9 -33 21 -54 18
-35 19 -38 3 -32 -10 4 -37 11 -60 16 -71 16 -151 49 -201 84 -66 45 -73 48
-73 39z"/>
<path d="M5780 3630 c-12 -8 -10 -10 10 -10 38 0 52 -14 60 -56 l7 -39 8 29
c16 57 -40 106 -85 76z"/>
<path d="M4582 3558 c-7 -7 -12 -19 -12 -27 0 -11 5 -9 20 7 13 13 26 19 37
15 11 -4 14 -3 9 5 -9 15 -39 15 -54 0z"/>
<path d="M5604 3558 c-5 -8 -2 -9 9 -5 11 4 24 -2 37 -15 15 -16 20 -18 20 -7
0 33 -50 53 -66 27z"/>
<path d="M5004 3509 c-39 -22 -102 -50 -140 -64 -38 -13 -62 -24 -53 -25 42
-1 197 67 249 109 35 29 25 25 -56 -20z"/>
<path d="M5220 3506 c57 -38 143 -74 195 -82 16 -3 1 6 -35 19 -36 13 -94 39
-130 58 -88 46 -95 47 -30 5z"/>
<path d="M4252 3518 c-13 -13 -17 -74 -4 -81 4 -3 7 11 8 30 1 40 19 56 47 41
15 -8 18 -7 15 4 -6 17 -50 22 -66 6z"/>
<path d="M5927 3524 c-15 -16 -6 -24 15 -13 18 10 24 8 35 -7 7 -10 13 -32 14
-48 0 -30 1 -30 10 -7 13 33 -9 75 -41 79 -14 2 -29 0 -33 -4z"/>
<path d="M4032 3498 c-16 -16 -15 -43 2 -57 11 -9 12 -6 8 15 -3 19 1 31 13
41 15 10 15 13 4 13 -8 0 -20 -5 -27 -12z"/>
<path d="M6190 3495 c7 -8 10 -26 8 -40 -7 -33 10 -33 18 0 6 25 -9 55 -28 55
-6 0 -5 -7 2 -15z"/>
<path d="M5015 3440 c-22 -11 -93 -38 -158 -61 -64 -23 -116 -43 -114 -45 11
-11 317 106 317 120 0 7 3 8 -45 -14z"/>
<path d="M5180 3456 c0 -16 305 -134 317 -123 2 2 -45 21 -104 42 -89 31 -159
59 -205 83 -5 2 -8 1 -8 -2z"/>
<path d="M4336 3431 c-18 -20 -14 -61 5 -61 6 0 7 5 4 10 -13 20 6 50 31 50
14 0 22 4 19 10 -10 16 -41 11 -59 -9z"/>
<path d="M5845 3440 c-3 -6 5 -10 19 -10 26 0 44 -30 30 -51 -4 -7 -1 -10 7
-7 21 7 23 37 3 59 -18 20 -49 25 -59 9z"/>
<path d="M4112 3424 c-26 -18 -29 -59 -6 -92 21 -30 38 -28 18 2 -21 32 -15
69 14 81 12 5 22 13 22 17 0 13 -24 9 -48 -8z"/>
<path d="M6087 3434 c-4 -4 3 -12 16 -18 28 -14 33 -50 13 -82 -9 -13 -13 -24
-8 -24 11 0 37 30 45 53 7 18 -11 67 -24 67 -4 0 -14 2 -21 5 -8 3 -17 3 -21
-1z"/>
<path d="M5066 3404 c-21 -15 -75 -44 -120 -65 -44 -21 -67 -36 -51 -32 35 7
134 52 187 85 l37 23 38 -23 c55 -33 153 -78 188 -85 17 -4 -7 11 -51 32 -45
21 -99 50 -120 65 -48 32 -60 32 -108 0z"/>
<path d="M4506 3334 c-9 -8 -16 -23 -16 -32 0 -11 -19 -26 -47 -40 -53 -25
-112 -76 -140 -119 -10 -16 6 -4 35 25 38 39 77 65 147 98 52 24 103 44 112
44 13 0 10 6 -12 20 -36 24 -58 25 -79 4z m58 -12 c3 -4 -8 -13 -25 -19 -30
-12 -37 -5 -17 15 14 14 35 16 42 4z"/>
<path d="M5662 3332 l-21 -18 37 -14 c91 -32 170 -78 222 -130 37 -37 49 -45
36 -25 -26 41 -72 82 -130 115 -31 18 -54 40 -62 59 -15 36 -49 41 -82 13z
m62 -18 c5 -13 2 -15 -16 -10 -13 3 -27 6 -31 6 -5 0 -5 5 -2 10 10 16 42 12
49 -6z"/>
<path d="M3941 3271 c-22 -40 -8 -101 23 -101 6 0 5 5 -2 12 -30 30 -2 98 34
84 10 -4 14 -1 12 6 -8 22 -55 21 -67 -1z"/>
<path d="M6235 3281 c-3 -5 7 -11 22 -13 26 -3 28 -6 27 -50 0 -38 2 -45 13
-36 16 13 17 80 1 96 -14 14 -54 16 -63 3z"/>
<path d="M4762 3258 c-14 -14 -16 -68 -3 -68 5 0 11 12 13 27 4 36 33 41 64
12 18 -17 24 -19 24 -7 0 37 -70 64 -98 36z"/>
<path d="M5394 3245 c-21 -32 -9 -47 12 -17 23 33 52 28 69 -10 l14 -33 1 31
c0 37 -16 54 -52 54 -18 0 -33 -8 -44 -25z"/>
<path d="M4962 3248 c-7 -7 -12 -23 -12 -37 l1 -26 15 28 c12 22 20 27 37 21
19 -6 20 -5 8 10 -16 19 -32 21 -49 4z"/>
<path d="M5229 3244 c-12 -15 -11 -16 8 -10 17 6 25 1 37 -21 l15 -28 1 26 c0
44 -35 64 -61 33z"/>
<path d="M4592 3228 c-7 -7 -12 -19 -12 -27 1 -14 3 -13 14 2 7 9 23 17 35 17
12 0 19 4 16 10 -8 14 -38 13 -53 -2z"/>
<path d="M5600 3230 c0 -5 9 -10 19 -10 10 0 22 -7 25 -16 9 -24 19 -10 11 15
-7 22 -55 31 -55 11z"/>
<path d="M6133 3223 c-19 -7 -16 -21 4 -19 10 0 22 -9 28 -21 5 -13 13 -23 17
-23 15 0 8 37 -10 53 -20 18 -20 18 -39 10z"/>
<path d="M4060 3205 c-7 -8 -9 -23 -6 -32 6 -15 9 -14 20 7 7 15 19 24 29 22
9 -2 17 2 17 8 0 15 -46 12 -60 -5z"/>
<path d="M4384 3115 c-10 -15 -13 -32 -9 -42 6 -15 9 -12 17 15 7 27 13 32 39
32 18 0 28 4 24 10 -12 19 -54 10 -71 -15z"/>
<path d="M5784 3129 c-4 -7 3 -10 21 -7 28 3 36 -5 50 -47 5 -13 9 -16 12 -7
3 7 0 26 -7 43 -10 22 -19 29 -41 29 -15 0 -31 -5 -35 -11z"/>
<path d="M4140 3110 c-21 -21 -25 -46 -13 -77 6 -13 9 -8 13 22 5 37 8 40 40
45 33 5 34 6 13 18 -28 16 -29 16 -53 -8z"/>
<path d="M6045 3117 c-18 -11 -17 -12 15 -17 32 -5 35 -8 38 -43 4 -46 22 -39
22 8 0 24 -7 39 -22 49 -26 19 -27 19 -53 3z"/>
<path d="M4860 3100 c-22 -22 -26 -45 -10 -55 6 -3 10 3 10 13 0 29 24 46 48
33 11 -6 23 -16 25 -23 4 -8 6 -7 6 4 1 16 -34 48 -51 48 -5 0 -17 -9 -28 -20z"/>
<path d="M5322 3104 c-12 -8 -22 -22 -22 -31 0 -14 4 -13 20 5 12 12 24 22 28
22 14 0 32 -24 32 -43 0 -10 5 -15 10 -12 16 10 12 33 -10 55 -24 24 -29 24
-58 4z"/>
<path d="M4657 3062 c-27 -30 -21 -49 7 -22 15 13 32 20 40 17 9 -4 16 -2 16
2 0 9 -24 21 -39 21 -4 0 -15 -8 -24 -18z"/>
<path d="M5533 3073 c-7 -2 -13 -9 -13 -15 0 -6 7 -7 17 -4 10 4 25 -2 40 -15
18 -17 23 -19 23 -7 0 16 -31 48 -46 47 -5 0 -15 -3 -21 -6z"/>
<path d="M5116 3005 c-15 -108 -18 -307 -7 -445 31 -372 31 -373 16 -516 -9
-84 -14 -222 -13 -349 l1 -210 8 215 c3 118 12 253 18 300 14 105 14 291 1
413 -20 185 -27 365 -18 491 9 136 6 186 -6 101z"/>
<path d="M4225 2995 c-26 -25 -34 -78 -15 -90 6 -4 10 8 10 28 0 43 29 72 62
61 20 -6 21 -5 9 10 -19 22 -38 20 -66 -9z"/>
<path d="M5949 3004 c-12 -15 -11 -16 9 -10 33 11 62 -18 62 -61 0 -20 4 -32
10 -28 19 12 11 65 -15 90 -28 29 -47 31 -66 9z"/>
<path d="M4352 2888 c-14 -14 -16 -58 -3 -58 5 0 11 10 13 23 2 14 11 23 26
25 12 2 22 8 22 13 0 13 -44 11 -58 -3z"/>
<path d="M5830 2891 c0 -5 10 -11 23 -13 14 -2 23 -11 25 -25 5 -36 24 -27 20
10 -3 28 -7 32 -35 35 -18 2 -33 -1 -33 -7z"/>
<path d="M4890 2717 c-36 -12 -76 -30 -90 -40 -28 -20 -14 -24 15 -4 18 12 48
24 150 56 21 6 24 10 10 10 -11 0 -49 -10 -85 -22z"/>
<path d="M5325 2504 c39 -8 108 -33 155 -55 95 -45 99 -38 5 9 -63 32 -167 63
-206 61 -13 0 8 -7 46 -15z"/>
<path d="M4056 2444 c-19 -18 -21 -55 -4 -72 15 -15 55 -16 64 0 4 7 3 8 -5 4
-6 -4 -20 -4 -31 -1 -22 7 -26 35 -10 66 13 23 7 25 -14 3z"/>
<path d="M6174 2413 c1 -35 -1 -38 -27 -38 -26 1 -27 0 -11 -12 23 -17 29 -16
48 3 17 16 20 41 10 68 -11 28 -21 17 -20 -21z"/>
<path d="M5040 2349 c-68 -51 -74 -57 -32 -33 35 20 101 73 92 74 -3 0 -30
-18 -60 -41z"/>
<path d="M4970 2232 c-25 -15 -83 -45 -130 -66 -90 -40 -210 -104 -210 -112 0
-3 35 13 78 35 42 23 120 61 172 86 52 24 106 53 120 64 35 29 23 26 -30 -7z"/>
<path d="M4183 2228 c3 -13 13 -63 22 -113 9 -49 19 -99 22 -110 5 -18 3 -17
-22 5 l-28 25 30 -42 c18 -24 35 -66 42 -100 51 -257 64 -321 86 -396 14 -47
41 -119 60 -159 20 -40 32 -64 29 -53 -4 11 -24 70 -46 132 -21 61 -58 207
-83 325 -86 418 -105 508 -112 508 -3 0 -3 -10 0 -22z"/>
<path d="M6050 2244 c0 -5 -14 -74 -31 -154 -16 -80 -45 -219 -64 -310 -52
-255 -70 -320 -134 -480 -13 -30 -18 -50 -12 -44 18 17 86 193 110 283 13 46
36 153 51 236 27 147 44 197 79 240 10 13 6 11 -13 -5 -16 -14 -27 -20 -24
-15 10 17 49 247 43 253 -3 3 -5 1 -5 -4z"/>
<path d="M5305 1920 c10 -11 20 -20 23 -20 3 0 -3 9 -13 20 -10 11 -20 20 -23
20 -3 0 3 -9 13 -20z"/>
<path d="M5247 1698 c15 -29 57 -82 92 -118 l63 -65 -56 64 c-32 35 -71 88
-88 117 -39 69 -48 71 -11 2z"/>
<path d="M4091 1600 c-2 -26 47 -214 72 -281 27 -71 84 -189 92 -189 3 0 -3
17 -14 38 -33 66 -93 234 -122 342 -15 58 -28 98 -28 90z"/>
<path d="M6116 1493 c-15 -60 -47 -157 -72 -218 -60 -147 -62 -156 -11 -53 49
98 81 190 103 297 23 112 10 95 -20 -26z"/>
<path d="M4956 1512 c-59 -65 -61 -69 -17 -27 46 44 98 105 89 105 -2 0 -34
-35 -72 -78z"/>
<path d="M5410 1516 c0 -2 8 -10 18 -17 15 -13 16 -12 3 4 -13 16 -21 21 -21
13z"/>
<path d="M5123 1075 c0 -101 0 -106 10 -58 6 34 6 71 0 110 -10 56 -10 53 -10
-52z"/>
<path d="M4390 871 c74 -138 212 -290 312 -344 32 -17 32 -17 8 0 -115 84
-219 199 -305 341 -21 34 -40 62 -42 62 -2 0 10 -27 27 -59z"/>
<path d="M5835 862 c-22 -35 -51 -79 -63 -96 -15 -19 -9 -15 15 10 36 39 99
141 91 149 -1 1 -21 -27 -43 -63z"/>
<path d="M3731 4605 c-1 -26 -18 -107 -37 -180 -4 -15 -3 -16 4 -5 16 27 44
157 39 186 l-4 29 -2 -30z"/>
<path d="M3580 4298 c-24 -44 -65 -102 -90 -129 -25 -27 -43 -49 -39 -49 18 0
109 115 143 179 21 40 36 74 34 76 -1 1 -23 -33 -48 -77z"/>
<path d="M6501 4612 c-1 -37 28 -176 36 -169 3 3 -2 36 -11 74 -9 37 -17 82
-19 98 l-4 30 -2 -33z"/>
<path d="M6610 4376 c0 -5 17 -40 37 -78 37 -71 125 -178 146 -178 6 0 2 6 -9
14 -30 21 -97 112 -134 181 -34 64 -40 73 -40 61z"/>
</g>
</svg>
