<?xml version="1.0" standalone="no"?>
<!DOCTYPE svg PUBLIC "-//W3C//DTD SVG 20010904//EN"
 "http://www.w3.org/TR/2001/REC-SVG-20010904/DTD/svg10.dtd">
<svg version="1.0" xmlns="http://www.w3.org/2000/svg"
 width="1024.000000pt" height="559.000000pt" viewBox="0 0 1024.000000 559.000000"
 preserveAspectRatio="xMidYMid meet">
<metadata>
Created by potrace 1.16, written by Peter Selinger 2001-2019
</metadata>
<g transform="translate(0.000000,559.000000) scale(0.100000,-0.100000)"
fill="#000000" stroke="none">
<path d="M5305 4506 c-84 -19 -167 -53 -335 -134 -80 -38 -185 -88 -235 -112
-98 -46 -369 -160 -380 -160 -4 0 -43 -18 -88 -41 -87 -44 -165 -100 -322
-235 -115 -98 -262 -178 -361 -196 -53 -9 -80 -8 -180 10 -98 17 -173 22 -424
26 -306 4 -463 15 -900 62 -129 14 -260 24 -290 22 l-55 -3 40 -13 c208 -66
771 -130 1210 -138 226 -4 313 -10 396 -25 58 -10 124 -19 146 -19 66 0 177
35 270 85 97 52 124 73 258 189 49 43 119 97 155 121 68 44 88 54 320 148 75
30 252 111 395 180 143 69 289 136 325 148 95 32 193 35 330 10 258 -46 417
-46 640 1 134 29 181 27 310 -10 111 -33 263 -62 319 -62 27 0 42 -9 80 -49
56 -60 103 -75 216 -69 83 5 138 24 149 54 5 14 4 15 -9 4 -8 -7 -50 -16 -92
-21 -100 -11 -179 3 -224 41 l-33 27 79 7 c94 9 220 29 287 47 26 7 51 9 55 5
4 -4 8 -40 8 -79 0 -56 -5 -82 -23 -116 -38 -72 -90 -128 -166 -179 -219 -147
-421 -193 -622 -142 -90 23 -109 39 -149 135 -21 48 -25 53 -20 25 3 -19 16
-57 30 -83 14 -27 25 -51 25 -53 0 -10 -49 -2 -59 10 -22 26 -51 130 -52 187
-1 36 -5 56 -12 52 -16 -10 -2 -153 20 -204 l21 -46 -67 -12 c-58 -11 -176
-47 -308 -95 -41 -15 -44 -15 -133 18 -107 40 -131 57 -274 196 -84 82 -105
97 -91 70 10 -19 54 -72 98 -117 l79 -82 -77 30 c-104 41 -219 69 -269 68 -26
-1 -32 -3 -16 -6 58 -10 194 -60 325 -121 77 -35 160 -73 185 -85 l44 -20 -75
-26 c-88 -31 -132 -57 -178 -105 -45 -46 -33 -45 48 3 57 34 153 71 184 71 6
0 8 -39 5 -98 -4 -87 -9 -107 -41 -173 -19 -40 -34 -76 -31 -78 10 -10 47 38
74 95 27 56 30 72 30 163 0 99 0 101 25 107 15 4 46 -2 77 -14 162 -64 294
-107 473 -157 110 -30 245 -72 300 -93 114 -45 193 -72 390 -135 77 -25 191
-64 254 -86 62 -23 116 -41 119 -41 3 0 -4 -10 -15 -22 -11 -13 -23 -30 -28
-38 -4 -8 5 0 21 19 24 29 31 32 63 27 68 -11 332 -87 388 -112 31 -13 115
-45 187 -70 136 -48 219 -87 346 -163 182 -109 253 -185 252 -272 -1 -89 -61
-139 -166 -139 -86 0 -235 34 -310 71 -47 23 -72 29 -126 29 -45 0 -82 6 -111
19 -54 24 -241 72 -409 105 -69 14 -186 39 -260 56 -218 50 -398 80 -513 87
-93 5 -107 8 -101 22 3 9 8 36 10 61 l4 45 -15 -30 c-8 -16 -15 -37 -15 -45
-1 -8 -10 -28 -20 -45 -43 -67 -60 -106 -60 -135 0 -40 16 -38 31 5 15 41 19
42 45 14 21 -24 112 -72 176 -93 101 -34 338 -105 403 -121 115 -27 111 -23
61 -55 -50 -32 -84 -80 -110 -155 -21 -63 -30 -161 -17 -200 9 -29 9 -29 10
13 1 62 30 190 51 233 54 106 113 134 248 118 80 -10 166 -7 252 8 l35 6 -33
-37 c-17 -20 -32 -41 -32 -46 0 -6 -10 -6 -26 0 -46 18 -126 11 -180 -14 -112
-52 -168 -129 -199 -274 -13 -61 -22 -82 -34 -82 -9 0 -39 -13 -68 -29 -46
-25 -59 -28 -105 -22 l-53 6 -7 53 c-12 81 -70 132 -151 132 -62 0 -111 -23
-162 -76 l-41 -41 -77 5 c-42 2 -77 8 -77 12 0 4 7 24 15 43 8 20 15 60 15 89
0 115 42 302 92 403 l19 40 -25 -27 c-48 -53 -92 -208 -105 -373 -11 -124 -34
-169 -111 -217 -59 -36 -85 -68 -63 -75 6 -2 -4 -26 -23 -54 -18 -28 -43 -80
-54 -117 -21 -66 -38 -182 -27 -182 3 0 15 41 26 91 54 233 135 323 293 324
36 0 69 -2 71 -5 3 -3 -3 -30 -13 -60 -11 -32 -20 -93 -22 -146 l-3 -90 -66
-62 -66 -62 -104 1 c-124 0 -139 -4 -290 -78 -116 -57 -145 -83 -93 -83 26 0
26 -1 -19 -49 -49 -53 -101 -145 -111 -201 -5 -26 4 -13 35 47 23 45 62 108
88 140 40 50 60 65 151 110 109 53 137 60 256 65 80 4 83 -1 34 -51 -48 -48
-53 -179 -10 -258 15 -27 19 -31 15 -13 -28 122 -28 207 -1 257 10 19 11 12 8
-45 -3 -46 1 -78 11 -102 l15 -35 1 45 c1 59 34 171 65 223 24 41 73 95 79 86
2 -2 11 -29 20 -60 18 -60 54 -120 75 -127 11 -3 10 3 -2 27 -24 46 -39 180
-34 307 4 101 7 118 37 178 54 110 158 176 231 146 17 -7 33 -16 36 -21 8 -13
-23 -64 -71 -119 -49 -55 -53 -72 -31 -145 24 -77 79 -118 113 -84 17 17 27
-30 28 -132 0 -97 10 -78 -125 -249 -36 -46 -85 -110 -109 -144 -97 -136 -151
-164 -295 -152 -44 4 -263 11 -486 16 -353 7 -415 11 -485 28 -44 11 -170 43
-280 70 -110 28 -297 74 -415 102 -362 87 -540 145 -775 255 -44 20 -156 72
-250 114 -93 42 -181 82 -195 89 -20 10 3 12 128 8 85 -3 152 -3 150 -1 -1 2
-43 13 -93 25 -174 42 -318 38 -551 -15 -168 -38 -241 -33 -493 35 -63 17
-106 20 -275 20 -271 0 -483 -19 -746 -68 l-95 -17 53 -5 c51 -6 94 -4 547 20
309 17 404 11 585 -36 188 -49 290 -51 462 -11 186 43 160 49 555 -132 456
-208 557 -244 914 -332 162 -39 375 -91 474 -116 411 -103 334 -93 785 -101
638 -11 615 -12 683 22 52 25 68 41 158 162 55 73 104 136 109 139 5 3 46 -2
91 -11 104 -21 189 -13 273 25 66 30 297 191 359 250 78 74 127 179 127 272
l0 46 121 33 c141 38 200 65 265 123 101 89 154 211 134 304 -6 25 -9 47 -8
49 2 1 30 -4 63 -12 33 -7 96 -14 141 -14 98 0 154 25 198 88 26 36 30 51 29
106 -1 125 -71 207 -290 339 -142 85 -226 125 -338 162 -41 13 -125 44 -187
69 -62 25 -184 63 -270 86 -86 22 -214 61 -285 86 -142 50 -244 85 -408 137
-60 19 -164 56 -230 81 -108 42 -212 73 -405 121 -55 14 -272 86 -334 111 -13
5 5 14 70 36 209 68 294 75 454 39 188 -42 337 -19 530 80 171 88 271 179 319
291 44 100 35 181 -25 244 -32 32 -40 36 -72 31 -21 -3 -93 -15 -162 -26 -69
-12 -153 -21 -187 -21 -97 0 -274 28 -427 67 -155 40 -167 40 -366 2 -159 -29
-362 -30 -524 0 -161 29 -267 34 -341 17z m1696 -1801 c41 -7 115 -23 164 -35
50 -12 108 -25 130 -30 52 -10 401 -85 485 -103 36 -8 85 -20 110 -27 43 -12
44 -13 20 -22 -37 -14 -272 -18 -370 -7 -137 15 -336 65 -625 156 -101 32
-195 75 -195 90 0 9 199 -6 281 -22z m1157 -245 c62 -15 109 -49 133 -98 39
-80 11 -161 -91 -262 -68 -68 -110 -90 -235 -125 -33 -9 -75 -23 -94 -31 -18
-8 -36 -12 -40 -9 -3 4 -5 70 -3 148 l3 142 -36 54 c-33 50 -34 55 -20 71 27
30 130 80 207 100 84 22 116 23 176 10z m-431 -170 c50 -30 56 -49 34 -114
-25 -76 -64 -124 -122 -150 -43 -18 -49 -25 -49 -51 0 -40 33 -111 58 -124 30
-16 88 -13 102 4 24 28 33 16 28 -37 -11 -119 -77 -199 -283 -346 -154 -109
-210 -133 -310 -133 -66 0 -145 9 -145 17 0 1 14 24 31 50 41 60 47 131 25
314 -22 182 -23 170 24 170 22 0 40 -3 40 -6 0 -3 -9 -19 -21 -35 -12 -17 -23
-49 -26 -72 l-5 -42 21 41 c26 49 81 103 142 138 l47 26 4 -87 c3 -65 10 -99
27 -131 26 -51 35 -51 21 -1 -33 112 12 377 81 474 69 95 201 141 276 95z m58
-260 c-8 -120 -19 -143 -74 -157 -30 -7 -49 4 -78 47 -32 46 -30 76 5 83 36 7
116 78 132 117 7 17 15 28 17 26 3 -3 2 -55 -2 -116z m-749 -297 c-3 -7 -17
-13 -31 -13 -31 0 -62 46 -71 107 -6 40 -4 45 47 102 l54 60 3 -122 c1 -66 0
-127 -2 -134z"/>
<path d="M7486 1653 c-3 -29 -21 -81 -40 -117 -18 -36 -30 -66 -26 -66 9 0 45
41 59 67 19 38 32 118 23 143 -8 21 -10 17 -16 -27z"/>
<path d="M4405 3781 c-44 -26 -116 -71 -160 -100 -161 -106 -376 -193 -528
-213 -122 -15 -137 -27 -36 -27 188 -2 403 87 659 273 185 135 192 142 65 67z"/>
<path d="M5447 3548 c-24 -40 -63 -106 -86 -146 -56 -96 -151 -196 -276 -289
-120 -91 -124 -95 -60 -58 118 66 243 175 310 270 41 59 170 295 161 295 -2 0
-24 -33 -49 -72z"/>
<path d="M6186 3365 c-13 -57 -29 -86 -55 -101 -14 -8 -18 -13 -8 -10 9 3 17
1 17 -5 0 -20 -54 -116 -107 -190 l-55 -77 -96 -7 c-53 -3 -160 -13 -236 -21
-77 -8 -141 -12 -143 -10 -3 2 13 10 34 16 52 17 174 72 170 76 -2 2 -54 -14
-115 -36 -134 -47 -244 -76 -332 -85 -36 -3 -158 -19 -272 -36 -230 -32 -325
-36 -443 -15 -192 34 -351 114 -505 252 -46 42 -58 50 -42 27 57 -81 208 -191
339 -247 99 -42 186 -63 293 -71 123 -10 468 20 634 56 49 10 171 28 270 39
100 11 224 25 276 30 52 6 108 13 124 17 l29 5 -21 -30 c-65 -91 -370 -386
-610 -591 l-63 -54 -57 10 c-31 6 -151 27 -267 47 -115 20 -246 43 -289 51
-44 9 -81 13 -83 11 -2 -2 36 -13 84 -24 82 -20 148 -33 466 -93 l118 -22 -44
-46 c-24 -25 -78 -89 -119 -141 -71 -91 -127 -148 -193 -198 l-30 -23 32 15
c47 23 144 116 227 220 41 50 92 108 114 130 l40 38 104 -16 c56 -9 126 -20
153 -26 28 -5 82 -14 121 -20 l71 -11 -72 -142 c-78 -156 -110 -233 -191 -471
-30 -88 -66 -179 -80 -203 -13 -24 -22 -43 -20 -43 16 0 80 118 112 205 100
276 132 356 198 487 48 96 79 146 94 154 14 7 19 13 12 16 -19 6 85 152 170
239 87 88 163 135 287 178 105 37 70 42 -39 7 -151 -50 -260 -135 -376 -296
-34 -47 -67 -93 -74 -102 -12 -17 -24 -16 -208 18 -107 20 -203 39 -214 43
-15 6 1 23 90 97 213 177 389 347 545 531 24 28 49 52 55 52 6 1 11 7 11 14 0
7 16 35 36 63 20 28 55 87 77 131 l40 81 75 11 c42 6 120 11 173 12 83 1 92 2
62 11 -35 10 -228 5 -282 -8 l-27 -6 15 48 c8 26 13 53 11 58 -2 6 -7 -3 -11
-19z"/>
<path d="M3639 3243 c-22 -53 -24 -69 -20 -188 2 -71 4 -177 4 -235 0 -123 -8
-145 -122 -338 -100 -168 -115 -213 -113 -337 0 -55 7 -127 15 -160 14 -59 14
-57 9 81 -6 174 8 229 99 384 134 231 146 270 133 434 -13 175 -10 314 10 365
24 66 12 61 -15 -6z"/>
<path d="M6767 3205 c3 -55 0 -134 -5 -175 -5 -41 -8 -77 -6 -79 1 -1 8 17 15
40 15 53 16 254 1 289 -7 18 -9 -1 -5 -75z"/>
<path d="M7416 3098 c-62 -83 -97 -268 -64 -348 14 -33 14 -30 14 70 -1 111
12 165 61 263 27 55 24 60 -11 15z"/>
<path d="M3275 3034 c-131 -35 -248 -43 -598 -39 -189 3 -292 1 -260 -4 101
-17 591 -24 693 -11 90 12 228 48 260 70 21 14 8 11 -95 -16z"/>
<path d="M3800 3022 c0 -22 131 -129 207 -169 81 -44 193 -74 261 -72 26 1 29
3 12 6 -97 15 -185 40 -245 70 -84 42 -186 113 -214 149 -12 15 -21 22 -21 16z"/>
<path d="M6151 2985 c31 -8 84 -28 117 -45 112 -56 202 -57 332 -3 61 25 132
63 119 63 -3 0 -52 -17 -110 -37 -87 -31 -117 -37 -184 -37 -72 0 -88 4 -158
37 -58 27 -91 37 -125 36 l-47 -1 56 -13z"/>
<path d="M7796 2981 c13 -49 6 -166 -15 -231 -11 -35 -19 -66 -17 -68 2 -1 15
21 30 49 22 45 26 66 26 144 0 67 -4 96 -16 111 -14 18 -15 18 -8 -5z"/>
<path d="M7436 2864 c-32 -98 -29 -125 4 -37 21 57 37 123 28 123 -2 0 -16
-39 -32 -86z"/>
<path d="M3260 2839 c-52 -10 -176 -25 -275 -33 l-180 -15 175 4 c167 4 317
24 390 54 39 15 1 12 -110 -10z"/>
<path d="M4245 2725 c168 -34 317 -84 425 -143 81 -43 58 -16 -27 31 -118 67
-222 100 -408 132 -161 27 -154 14 10 -20z"/>
<path d="M8515 2708 c-62 -48 -87 -175 -42 -215 23 -22 60 -43 74 -43 4 0 -9
13 -29 30 -45 37 -53 68 -34 134 20 69 53 100 101 94 33 -4 35 -3 19 9 -26 19
-58 16 -89 -9z"/>
<path d="M6720 2438 c-59 -91 -93 -224 -71 -278 8 -21 10 -17 10 31 1 69 30
163 75 247 19 34 32 62 30 62 -3 0 -22 -28 -44 -62z"/>
<path d="M3151 2346 c-12 -41 -25 -100 -28 -130 -6 -56 11 -192 28 -230 8 -17
8 -15 4 9 -3 17 -8 80 -11 140 -6 93 -3 123 15 194 11 47 19 86 17 88 -1 2
-13 -30 -25 -71z"/>
<path d="M7334 2304 c-17 -36 -29 -77 -31 -113 l-3 -56 20 80 c11 43 29 94 40
112 11 18 15 33 10 33 -5 0 -21 -25 -36 -56z"/>
<path d="M5890 2226 c0 -3 33 -25 73 -50 143 -88 265 -110 452 -81 144 22 168
37 45 28 -52 -5 -142 -8 -200 -8 -122 1 -182 17 -281 76 -59 35 -89 47 -89 35z"/>
<path d="M5690 1631 c84 -48 168 -66 300 -65 69 0 135 5 148 10 16 7 -18 10
-120 10 -128 0 -153 3 -233 27 -126 39 -135 40 -95 18z"/>
</g>
</svg>
