<?xml version="1.0" standalone="no"?>
<!DOCTYPE svg PUBLIC "-//W3C//DTD SVG 20010904//EN"
 "http://www.w3.org/TR/2001/REC-SVG-20010904/DTD/svg10.dtd">
<svg version="1.0" xmlns="http://www.w3.org/2000/svg"
 width="1024.000000pt" height="559.000000pt" viewBox="0 0 1024.000000 559.000000"
 preserveAspectRatio="xMidYMid meet">
<metadata>
Created by potrace 1.16, written by Peter Selinger 2001-2019
</metadata>
<g transform="translate(0.000000,559.000000) scale(0.100000,-0.100000)"
fill="#000000" stroke="none">
<path d="M4240 4907 c0 -5 25 -50 57 -100 131 -213 222 -459 267 -722 35 -206
44 -711 21 -1187 l-4 -93 14 90 c41 264 56 673 34 977 -25 361 -124 673 -290
918 -44 65 -98 129 -99 117z"/>
<path d="M5963 4872 c-155 -195 -264 -445 -323 -742 -55 -275 -52 -872 5
-1359 9 -74 18 -137 20 -139 2 -3 2 33 -1 79 -26 467 -32 993 -14 1180 36 355
128 637 302 927 54 90 59 115 11 54z"/>
<path d="M4520 2333 c-36 -78 -93 -270 -106 -358 -13 -82 -13 -114 -3 -177 6
-43 14 -78 18 -78 3 0 6 46 7 103 1 126 16 215 60 354 46 146 60 231 24 156z"/>
<path d="M4000 1953 c-57 -87 -125 -256 -150 -373 -62 -297 32 -523 263 -634
91 -44 148 -58 216 -54 l54 3 -110 43 c-273 105 -383 246 -383 489 0 104 45
290 107 436 49 118 63 157 55 157 -4 0 -27 -30 -52 -67z"/>
<path d="M6237 1883 c86 -217 107 -305 107 -453 1 -97 -3 -137 -18 -180 -49
-143 -159 -237 -368 -316 l-103 -39 55 -3 c69 -4 126 10 218 54 294 141 362
461 184 871 -40 91 -107 203 -122 203 -4 0 17 -62 47 -137z"/>
<path d="M5577 1451 c-91 -81 -264 -167 -381 -191 -128 -26 -297 22 -485 139
-46 28 -86 50 -88 48 -2 -3 19 -25 47 -49 61 -54 192 -122 275 -144 243 -63
490 12 654 199 32 36 20 35 -22 -2z"/>
<path d="M4254 1236 c-34 -15 -44 -33 -44 -75 0 -45 58 -87 154 -110 61 -15
69 -8 19 17 -59 31 -123 81 -123 96 0 19 22 26 80 26 109 0 209 -60 381 -231
116 -115 175 -151 287 -175 86 -18 151 -17 230 1 109 26 166 61 280 173 183
181 277 236 396 230 53 -3 61 -6 61 -23 0 -14 -24 -36 -79 -72 -86 -57 -87
-60 -11 -39 98 26 145 62 145 113 0 64 -57 91 -170 80 -115 -10 -212 -71 -395
-247 -90 -88 -121 -111 -170 -129 -121 -46 -303 -36 -398 22 -20 12 -79 64
-132 115 -189 182 -275 233 -404 239 -51 2 -86 -1 -107 -11z"/>
</g>
</svg>
