<?xml version="1.0" standalone="no"?>
<!DOCTYPE svg PUBLIC "-//W3C//DTD SVG 20010904//EN"
 "http://www.w3.org/TR/2001/REC-SVG-20010904/DTD/svg10.dtd">
<svg version="1.0" xmlns="http://www.w3.org/2000/svg"
 width="1024.000000pt" height="559.000000pt" viewBox="0 0 1024.000000 559.000000"
 preserveAspectRatio="xMidYMid meet">
<metadata>
Created by potrace 1.16, written by Peter Selinger 2001-2019
</metadata>
<g transform="translate(0.000000,559.000000) scale(0.100000,-0.100000)"
fill="#000000" stroke="none">
<path d="M5020 5170 c-67 -12 -179 -57 -219 -87 -62 -47 -142 -135 -167 -185
-42 -83 -57 -169 -50 -293 3 -60 8 -120 12 -132 5 -17 1 -25 -12 -29 -45 -16
-54 -34 -54 -110 0 -57 7 -92 32 -161 33 -92 63 -133 97 -133 14 0 22 -8 26
-27 4 -16 17 -60 31 -100 19 -56 24 -92 24 -170 0 -121 -17 -176 -68 -225 -64
-62 -391 -221 -552 -269 -215 -64 -323 -147 -403 -311 -84 -171 -91 -208 -92
-488 0 -135 -4 -250 -7 -256 -8 -13 -42 -169 -57 -264 -6 -36 -15 -132 -21
-215 -16 -226 -27 -276 -92 -450 -33 -88 -66 -181 -74 -206 -44 -144 -100
-608 -76 -623 17 -11 21 6 37 151 34 325 61 450 139 646 76 190 79 205 101
475 15 181 25 255 61 429 15 76 34 103 34 49 0 -12 7 -31 15 -42 14 -18 14
-17 10 11 -3 17 -12 71 -22 120 -24 124 -23 356 1 445 73 274 187 411 391 473
28 9 82 25 120 37 111 34 449 206 506 258 l49 44 0 -39 c0 -21 -7 -67 -14
-103 -8 -36 -13 -66 -11 -68 2 -2 10 19 20 47 21 63 35 196 35 335 l0 109 81
-83 c108 -109 157 -133 281 -131 119 1 159 20 264 127 l82 83 5 -182 c3 -137
9 -194 22 -229 23 -66 36 -69 20 -6 -15 59 -27 138 -22 138 2 0 23 -18 47 -40
81 -75 540 -290 619 -290 7 0 48 -16 90 -37 179 -86 296 -281 331 -552 13
-102 5 -203 -31 -395 -10 -55 -17 -101 -15 -104 7 -7 23 31 31 73 5 29 9 35
15 24 21 -38 70 -340 85 -525 17 -217 33 -293 88 -424 84 -202 118 -353 147
-660 14 -146 17 -160 35 -160 19 0 19 6 0 177 -33 298 -64 443 -129 601 -75
184 -85 228 -106 467 -22 240 -28 288 -61 433 -34 151 -36 175 -26 254 11 93
2 286 -18 363 -39 146 -102 274 -173 349 -68 71 -146 113 -301 162 -101 32
-199 73 -321 134 -289 145 -300 159 -301 357 0 91 4 131 19 173 10 30 22 71
26 90 5 29 12 38 38 45 41 12 69 54 95 141 31 101 37 174 19 218 -8 20 -20 37
-25 37 -6 1 -17 2 -23 3 -7 1 -12 10 -10 21 1 11 5 72 8 135 7 129 -8 214 -50
298 -24 47 -160 188 -205 211 -97 52 -278 81 -381 61z m224 -40 c210 -53 350
-204 379 -405 11 -80 -1 -245 -24 -320 l-12 -40 -13 65 c-6 36 -21 92 -33 125
-12 34 -21 84 -21 117 0 71 -28 137 -69 161 -36 21 -87 21 -171 1 -74 -19
-263 -21 -320 -4 -19 5 -60 10 -92 10 -47 0 -62 -5 -89 -27 -42 -35 -59 -79
-59 -150 0 -36 -10 -85 -25 -128 -13 -38 -27 -95 -31 -125 l-7 -55 -19 75
c-27 107 -29 305 -3 380 53 159 184 275 364 321 89 23 153 23 245 -1z m195
-315 c36 -18 61 -79 61 -148 0 -32 11 -84 26 -128 14 -41 28 -101 31 -134 3
-33 10 -65 15 -72 17 -21 -52 -373 -86 -445 -28 -58 -179 -213 -233 -239 -67
-32 -189 -33 -254 -1 -58 28 -198 168 -233 232 -38 69 -118 436 -98 449 4 3
13 43 19 88 7 45 20 97 29 115 10 20 20 69 24 121 7 94 23 128 73 157 22 12
43 12 174 -4 142 -18 154 -18 248 -2 55 10 102 19 104 22 10 10 74 3 100 -11z
m-827 -407 c9 -7 20 -31 23 -53 l7 -40 -21 33 c-20 30 -51 44 -51 21 0 -5 4
-8 10 -4 19 12 39 -50 33 -106 -4 -43 -2 -57 11 -68 18 -15 22 -1 5 16 -7 7
-9 25 -5 48 4 20 9 35 12 33 2 -3 11 -45 19 -94 9 -49 18 -97 21 -107 9 -27
-24 -18 -47 13 -54 73 -95 288 -59 310 20 13 23 12 42 -2z m1072 -26 c13 -58
-38 -256 -75 -293 -44 -44 -47 -24 -17 141 11 65 12 65 22 31 7 -23 6 -39 -2
-52 -18 -28 -15 -47 3 -22 10 15 14 41 13 83 -3 55 0 64 21 81 13 11 21 22 18
26 -10 9 -38 -18 -54 -52 -14 -30 -14 -30 -8 15 9 73 66 103 79 42z"/>
<path d="M5340 3568 c-46 -152 -79 -255 -99 -306 -25 -62 -27 -90 -4 -48 31
59 140 412 130 422 -3 3 -15 -28 -27 -68z"/>
<path d="M4914 3494 c35 -129 51 -174 113 -314 68 -153 89 -174 139 -134 18
15 18 15 -4 9 -39 -11 -69 2 -82 37 -7 18 -34 83 -60 143 -26 61 -63 160 -81
220 -40 134 -58 163 -25 39z"/>
<path d="M5760 3205 c-74 -19 -164 -37 -200 -40 -179 -17 -248 -34 -292 -73
-34 -29 -17 -31 30 -2 40 25 66 31 187 45 185 21 542 107 435 104 -14 0 -86
-15 -160 -34z"/>
<path d="M4285 3220 c3 -5 27 -10 53 -10 26 0 88 -12 137 -25 50 -14 164 -35
255 -46 130 -16 174 -26 209 -45 54 -30 64 -25 18 10 -38 29 -84 40 -243 56
-60 6 -162 25 -226 41 -118 29 -215 38 -203 19z"/>
<path d="M4073 3146 c-82 -26 -161 -93 -202 -171 -30 -56 -26 -69 5 -15 50 88
104 133 214 177 60 24 50 29 -17 9z"/>
<path d="M6100 3155 c0 -3 19 -14 43 -26 101 -52 165 -128 208 -248 32 -89 38
-82 9 10 -26 84 -84 165 -149 211 -47 33 -111 63 -111 53z"/>
<path d="M5860 3046 c0 -4 28 -38 63 -76 38 -41 83 -105 115 -166 29 -54 50
-88 46 -74 -9 36 -61 137 -94 184 -31 45 -130 145 -130 132z"/>
<path d="M4314 2977 c-50 -53 -134 -187 -134 -212 0 -5 25 32 56 81 30 49 76
110 102 136 25 26 43 50 40 53 -3 3 -32 -23 -64 -58z"/>
<path d="M4116 2626 c-52 -100 -125 -195 -179 -234 -46 -32 -100 -99 -131
-159 -9 -18 -15 -33 -13 -33 3 0 27 30 54 68 28 37 78 89 110 115 33 26 74 67
91 90 38 54 115 203 110 216 -1 6 -20 -23 -42 -63z"/>
<path d="M6120 2582 c0 -17 33 -79 63 -119 13 -18 74 -84 136 -148 84 -87 107
-106 92 -78 -11 21 -59 76 -106 123 -48 47 -109 119 -136 160 -27 41 -49 69
-49 62z"/>
<path d="M4050 2455 c0 -25 30 -117 58 -181 31 -69 31 -74 32 -235 2 -163 1
-165 -44 -349 -25 -102 -59 -227 -76 -279 -21 -66 -33 -130 -40 -215 -25 -292
-45 -381 -131 -596 -38 -94 -55 -148 -49 -154 16 -16 25 0 75 124 92 224 116
330 134 580 7 93 18 161 36 220 21 71 81 302 101 389 7 33 10 26 28 -59 8 -41
24 -116 35 -166 46 -214 52 -436 16 -629 -11 -59 -17 -140 -17 -235 1 -80 -3
-163 -8 -185 -12 -56 5 -69 26 -20 12 30 16 80 18 214 2 97 8 196 14 221 6 25
16 96 22 159 17 165 3 294 -64 611 -31 150 -45 261 -49 389 l-3 104 26 -34
c46 -61 94 -100 169 -137 73 -36 78 -37 205 -40 89 -3 157 1 211 11 85 17 135
32 135 43 0 3 -8 3 -17 -1 -31 -11 -225 -35 -294 -35 -242 -1 -395 120 -500
395 -29 75 -49 112 -49 90z"/>
<path d="M6164 2404 c-8 -21 -38 -86 -66 -143 -100 -207 -234 -291 -462 -291
-63 0 -217 19 -286 35 -15 3 -9 -2 15 -14 58 -29 183 -44 325 -40 115 4 130 7
190 35 70 34 151 99 182 149 l20 30 -5 -150 c-4 -121 -12 -183 -42 -320 -64
-300 -68 -331 -69 -505 -1 -127 4 -200 23 -320 18 -117 22 -176 17 -240 -5
-78 9 -178 29 -198 14 -15 24 16 15 48 -5 19 -11 116 -14 215 -2 99 -9 198
-14 220 -23 90 -32 256 -21 373 15 163 99 567 99 478 0 -25 54 -240 84 -333
36 -112 43 -151 56 -308 20 -258 63 -415 180 -668 12 -24 40 -38 40 -20 0 4
-28 77 -62 163 -91 232 -102 276 -123 525 -12 138 -21 192 -49 285 -19 63 -53
189 -76 280 l-42 165 2 178 c1 171 2 180 29 240 33 73 56 155 48 164 -4 3 -14
-11 -23 -33z"/>
<path d="M3766 2089 c-48 -139 -96 -400 -95 -508 l2 -86 8 95 c10 119 32 242
69 390 16 63 27 116 25 119 -3 2 -7 -2 -9 -10z"/>
<path d="M6481 1979 c16 -63 39 -180 51 -261 12 -81 24 -146 26 -143 15 14
-32 304 -69 430 -34 115 -40 96 -8 -26z"/>
<path d="M3680 1326 c0 -23 70 -97 107 -113 18 -7 45 -13 60 -12 24 0 22 3
-17 16 -54 19 -81 39 -121 89 -18 23 -29 31 -29 20z"/>
<path d="M6527 1296 c-28 -34 -52 -51 -99 -67 -68 -25 -62 -38 8 -19 32 9 57
26 89 62 38 43 54 68 42 68 -1 0 -19 -20 -40 -44z"/>
</g>
</svg>
