<?xml version="1.0" standalone="no"?>
<!DOCTYPE svg PUBLIC "-//W3C//DTD SVG 20010904//EN"
 "http://www.w3.org/TR/2001/REC-SVG-20010904/DTD/svg10.dtd">
<svg version="1.0" xmlns="http://www.w3.org/2000/svg"
 width="1024.000000pt" height="559.000000pt" viewBox="0 0 1024.000000 559.000000"
 preserveAspectRatio="xMidYMid meet">
<metadata>
Created by potrace 1.16, written by Peter Selinger 2001-2019
</metadata>
<g transform="translate(0.000000,559.000000) scale(0.100000,-0.100000)"
fill="#000000" stroke="none">
<path d="M4726 4579 c-19 -97 3 -567 38 -794 34 -222 52 -285 143 -510 74
-180 114 -264 152 -315 119 -161 229 -268 406 -393 143 -101 188 -136 295
-228 182 -157 384 -277 607 -362 103 -39 160 -68 210 -104 89 -66 183 -117
270 -147 86 -29 105 -39 165 -87 42 -33 46 -38 28 -44 -40 -13 -80 -56 -80
-86 0 -22 9 -34 40 -55 21 -14 56 -32 77 -39 36 -13 38 -12 80 25 23 20 64 45
89 55 46 17 48 17 61 0 24 -34 16 -98 -19 -151 -44 -65 -117 -102 -222 -110
-68 -6 -76 -5 -76 11 0 48 -71 129 -146 168 -18 9 -63 45 -102 81 -38 35 -86
70 -105 77 -25 9 -43 26 -63 60 -34 58 -45 57 -15 -1 l21 -41 -22 6 c-47 15
-93 36 -110 52 -10 9 -21 13 -24 10 -12 -12 53 -63 97 -77 89 -28 145 -58 194
-104 28 -26 79 -67 115 -90 88 -58 120 -97 120 -146 0 -72 -65 -120 -162 -120
-64 0 -84 13 -97 64 -9 39 -21 54 -69 91 -31 24 -87 78 -124 119 -62 68 -73
76 -144 100 -42 14 -92 37 -111 52 -46 35 -55 22 -11 -18 20 -19 67 -45 111
-61 69 -25 82 -35 133 -95 31 -37 85 -91 120 -120 55 -45 64 -57 64 -86 0 -64
-85 -112 -176 -100 -53 7 -134 44 -134 61 0 8 -20 36 -45 62 -25 26 -66 77
-93 112 -26 35 -62 73 -81 84 -19 11 -58 43 -89 70 -43 40 -53 45 -47 27 6
-22 5 -23 -17 -12 l-23 13 24 -26 c13 -15 55 -45 93 -68 47 -28 80 -56 101
-87 18 -26 55 -71 83 -102 80 -86 80 -135 0 -165 -105 -40 -258 13 -297 103
-32 74 -76 128 -136 167 -32 21 -75 54 -95 73 -38 36 -53 36 -21 0 29 -32 7
-29 -46 6 -31 21 -47 28 -42 18 16 -29 45 -51 117 -86 86 -41 127 -75 160
-131 72 -124 40 -173 -106 -163 -56 4 -88 14 -171 54 -63 30 -110 60 -125 79
-27 34 -34 14 -8 -23 l15 -22 -63 0 c-143 1 -273 37 -498 138 -402 179 -613
249 -895 296 -196 33 -255 49 -342 91 -48 24 -87 52 -121 89 -68 75 -87 141
-86 306 0 133 11 189 75 383 125 383 125 726 4 1527 -20 125 -79 405 -101 475
-18 54 -41 88 -31 45 3 -14 11 -54 16 -90 6 -36 24 -134 41 -218 29 -150 46
-254 75 -477 44 -345 49 -406 49 -625 0 -266 -18 -392 -89 -610 -58 -180 -75
-256 -82 -370 -11 -181 32 -318 123 -399 95 -84 218 -128 479 -171 249 -40
485 -119 870 -290 243 -108 364 -140 538 -140 81 0 95 -3 141 -29 137 -78 320
-81 355 -5 l11 25 33 -24 c43 -33 117 -57 175 -57 56 0 129 31 158 66 l20 25
48 -22 c86 -38 223 -20 261 33 12 19 17 19 65 8 91 -22 207 14 239 73 11 22
21 25 89 30 100 7 160 29 217 79 56 49 85 104 85 158 0 83 -43 128 -154 161
-86 26 -125 45 -195 98 -34 25 -87 51 -146 71 -85 28 -183 82 -296 163 -25 19
-75 45 -110 59 -35 15 -110 45 -166 68 -169 69 -366 195 -518 329 -44 39 -154
124 -244 189 -189 134 -322 256 -415 380 -53 70 -80 121 -140 262 -40 96 -88
217 -105 269 -62 185 -107 530 -118 904 -6 209 -13 263 -27 196z m2444 -3019
c91 -27 102 -36 59 -45 -18 -4 -53 -27 -78 -50 l-46 -43 -60 31 c-65 35 -77
57 -48 89 20 23 72 49 88 44 6 -2 44 -13 85 -26z"/>
<path d="M3788 3204 c-5 -4 -8 -33 -8 -64 0 -31 -11 -123 -25 -204 -29 -173
-31 -218 -9 -293 16 -54 127 -233 145 -233 13 0 12 4 -13 47 l-23 38 25 -17
c39 -27 81 -50 86 -45 2 2 -21 21 -50 41 -137 94 -167 196 -131 446 16 104 17
299 3 284z"/>
<path d="M4831 2914 c-69 -19 -167 -62 -183 -82 -7 -8 12 -2 42 13 30 16 98
41 150 56 97 28 89 40 -9 13z"/>
<path d="M4110 2522 c-30 -31 -64 -62 -75 -69 -16 -10 -14 -10 12 -2 31 10
123 98 123 119 0 14 1 15 -60 -48z"/>
<path d="M5200 1965 c30 -33 100 -113 154 -177 54 -65 101 -118 103 -118 12 0
-229 281 -278 325 -19 17 -9 3 21 -30z"/>
<path d="M5901 1961 c42 -32 203 -138 237 -155 48 -25 49 -14 2 13 -22 12 -88
54 -145 92 -101 66 -144 89 -94 50z"/>
<path d="M5593 1913 c4 -6 53 -46 109 -89 56 -43 99 -73 95 -68 -3 6 -52 45
-108 89 -56 43 -100 74 -96 68z"/>
<path d="M6834 1674 c-19 -19 -34 -41 -34 -47 0 -7 3 -7 8 -1 4 5 23 26 41 47
19 20 31 37 27 37 -5 0 -24 -16 -42 -36z"/>
<path d="M6855 1640 c-10 -11 -16 -22 -14 -24 2 -2 12 7 22 20 22 29 17 32 -8
4z"/>
<path d="M6609 1490 c-31 -25 -12 -26 21 0 14 11 20 20 14 20 -7 0 -22 -9 -35
-20z"/>
<path d="M6380 1385 c-20 -24 -6 -28 15 -5 10 11 13 20 8 20 -6 0 -16 -7 -23
-15z"/>
<path d="M6766 1318 c-21 -29 -20 -46 4 -85 23 -39 39 -41 77 -10 15 12 41 28
56 35 34 15 31 30 -13 60 -44 30 -103 30 -124 0z m120 -20 c12 -12 8 -18 -33
-45 -26 -17 -51 -29 -56 -26 -15 9 -28 55 -21 76 5 17 13 19 51 14 25 -2 51
-11 59 -19z"/>
<path d="M6091 1269 c-13 -5 -21 -12 -18 -15 3 -3 18 1 34 10 31 17 21 20 -16
5z"/>
<path d="M6466 1254 c-9 -8 -16 -23 -16 -32 0 -25 37 -82 54 -82 7 0 39 15 69
34 47 28 54 36 44 48 -38 47 -120 64 -151 32z m112 -20 l23 -16 -48 -30 -47
-30 -18 22 c-18 23 -23 51 -11 63 12 13 79 7 101 -9z"/>
<path d="M5807 1180 c-30 -24 -44 -74 -27 -95 7 -9 29 -15 51 -15 31 0 42 5
56 26 15 23 15 29 2 52 -8 13 -23 31 -35 39 -18 12 -24 11 -47 -7z m73 -56 c0
-19 -40 -43 -68 -41 -39 3 -25 75 18 90 16 5 50 -27 50 -49z"/>
<path d="M6154 1175 c-19 -29 -12 -70 14 -84 14 -7 32 -4 70 14 55 25 59 31
39 56 -34 44 -98 52 -123 14z m84 -5 c17 -11 32 -22 32 -24 0 -3 -21 -14 -47
-26 -36 -16 -48 -18 -55 -8 -13 22 -9 57 10 67 23 14 22 14 60 -9z"/>
</g>
</svg>
