<?xml version="1.0" standalone="no"?>
<!DOCTYPE svg PUBLIC "-//W3C//DTD SVG 20010904//EN"
 "http://www.w3.org/TR/2001/REC-SVG-20010904/DTD/svg10.dtd">
<svg version="1.0" xmlns="http://www.w3.org/2000/svg"
 width="1024.000000pt" height="559.000000pt" viewBox="0 0 1024.000000 559.000000"
 preserveAspectRatio="xMidYMid meet">
<metadata>
Created by potrace 1.16, written by Peter Selinger 2001-2019
</metadata>
<g transform="translate(0.000000,559.000000) scale(0.100000,-0.100000)"
fill="#000000" stroke="none">
<path d="M4863 5253 c-23 -35 -23 -135 0 -218 48 -174 51 -199 54 -385 1 -102
2 -194 2 -205 1 -57 -8 -185 -13 -193 -3 -6 -1 -31 6 -55 9 -36 9 -53 -1 -84
-9 -27 -10 -46 -3 -64 7 -18 7 -64 0 -140 -10 -106 -13 -120 -55 -199 -83
-159 -79 -162 -86 66 -11 346 -34 491 -103 671 -42 109 -94 193 -156 250 -57
51 -88 68 -158 82 -119 25 -249 -30 -472 -197 -167 -126 -309 -265 -466 -456
-289 -353 -396 -571 -558 -1131 -19 -66 -41 -137 -49 -158 -33 -83 -105 -340
-129 -459 -63 -306 -84 -531 -97 -1048 -14 -592 -2 -781 58 -908 37 -78 85
-107 177 -106 83 1 131 15 281 79 256 111 418 147 705 160 252 11 362 28 551
89 199 63 336 168 394 301 37 82 46 156 55 435 6 222 10 265 30 335 22 74 23
100 24 330 1 138 -1 297 -4 355 -3 71 1 146 13 232 18 137 23 411 7 488 -9 45
-9 45 38 88 94 86 194 162 213 162 23 0 106 -53 181 -115 l50 -41 3 -170 c2
-145 6 -182 28 -264 14 -52 33 -112 41 -132 13 -31 14 -49 5 -115 -13 -88 -5
-297 16 -438 36 -239 40 -361 20 -603 -22 -278 -18 -407 18 -505 55 -150 129
-215 352 -304 240 -96 455 -142 745 -158 241 -13 422 -52 639 -137 190 -74
263 -85 322 -45 80 54 117 184 125 442 8 234 -12 984 -30 1145 -35 303 -74
518 -129 695 -19 61 -60 193 -91 295 -32 102 -76 242 -97 312 -126 407 -296
691 -633 1061 -168 183 -395 363 -566 448 -175 86 -336 47 -446 -107 -81 -113
-139 -266 -168 -439 -16 -97 -36 -381 -36 -520 0 -47 -4 -85 -8 -85 -12 0 -70
82 -86 122 -30 71 -51 280 -46 453 2 70 2 109 -1 140 -1 17 -1 41 0 55 1 14 0
122 -1 240 -2 118 0 231 5 250 5 19 17 72 27 117 10 46 26 103 35 128 19 49
17 88 -9 149 -12 30 -20 37 -38 34 -18 -2 -24 -10 -26 -36 -2 -18 -6 -32 -10
-30 -4 2 -23 12 -43 22 -57 29 -85 17 -115 -49 -13 -30 -26 -55 -29 -55 -3 0
-15 21 -26 48 -33 79 -75 92 -143 46 l-39 -27 7 28 c13 53 -31 74 -61 28z m35
-68 c-2 -22 0 -31 7 -27 5 3 30 19 54 34 69 43 87 38 117 -27 13 -31 31 -58
39 -62 20 -7 51 21 60 55 8 34 33 62 54 62 9 0 36 -13 61 -30 39 -26 46 -27
53 -14 5 9 6 29 3 45 -8 43 9 35 22 -10 16 -52 16 -60 -13 -145 -14 -41 -25
-86 -25 -100 0 -13 -4 -36 -10 -51 l-10 -26 -41 22 c-30 15 -64 21 -128 24
-73 2 -95 -1 -145 -22 -32 -13 -62 -21 -67 -16 -5 5 -13 41 -19 80 -5 39 -19
95 -30 123 -17 44 -19 58 -9 93 6 23 14 47 17 52 9 14 15 -21 10 -60z m339
-279 c2 -2 -13 -16 -34 -30 -47 -32 -91 -33 -143 -3 -44 24 -49 33 -22 40 22
5 193 0 199 -7z m-190 -46 c63 -40 107 -40 163 1 31 23 49 29 67 24 23 -5 24
-9 18 -43 -8 -42 -18 -52 -57 -52 -15 0 -30 -5 -34 -11 -5 -9 6 -10 39 -5 55
8 56 7 54 -119 l-2 -90 -40 -11 c-112 -33 -114 -33 -60 -27 107 14 99 20 100
-85 l1 -92 -35 -9 c-20 -5 -56 -14 -81 -19 l-45 -11 55 5 c30 3 64 7 76 10 17
5 22 0 28 -27 3 -17 6 -49 6 -71 0 -35 -3 -40 -36 -54 -19 -8 -77 -19 -127
-24 l-92 -9 100 4 c55 1 111 6 124 10 19 7 22 5 20 -10 -5 -21 -58 -42 -143
-54 -52 -7 -55 -9 -21 -10 23 0 67 6 98 14 32 8 62 15 67 15 6 0 9 -29 9 -64
-1 -35 2 -72 5 -83 4 -11 2 -32 -3 -45 -8 -21 -22 -28 -78 -42 -37 -8 -84 -17
-103 -19 -26 -3 -23 -4 15 -5 28 -1 75 4 105 12 30 8 56 13 58 11 7 -7 22 -81
22 -111 0 -28 -6 -34 -62 -63 -35 -18 -52 -29 -38 -25 21 5 77 28 102 42 7 3
38 -50 38 -66 0 -5 -11 -15 -25 -22 -14 -7 -32 -24 -41 -38 -14 -22 -11 -21
24 8 45 36 62 35 88 -5 16 -24 16 -27 -3 -48 -39 -45 -46 -61 -12 -29 19 17
41 32 48 32 15 0 15 3 -27 -120 -16 -47 -32 -106 -36 -133 l-7 -47 -31 21
c-33 24 -33 35 -4 102 9 22 13 36 8 33 -5 -3 -17 -24 -27 -48 -11 -24 -20 -45
-22 -47 -2 -2 -12 4 -23 14 -25 22 -21 53 17 130 21 44 22 47 3 26 -11 -13
-28 -45 -37 -72 -10 -27 -22 -49 -26 -49 -5 0 -22 9 -37 20 -49 35 -80 35
-130 1 l-45 -30 -21 47 c-12 26 -29 56 -38 67 -13 15 -12 9 3 -22 11 -22 23
-59 27 -80 5 -35 3 -41 -20 -56 l-26 -17 -25 50 c-14 27 -27 50 -29 50 -2 0 7
-26 20 -57 l23 -58 -26 -27 c-15 -16 -32 -28 -37 -28 -6 0 -22 46 -35 103 -13
56 -32 123 -42 148 -15 40 -16 49 -4 65 13 18 16 17 56 -21 26 -25 37 -32 30
-18 -6 12 -23 31 -38 42 -28 23 -26 33 12 84 17 23 37 14 103 -47 44 -39 45
-40 23 -8 -13 18 -41 45 -62 59 -21 14 -39 27 -39 29 0 2 14 32 31 67 l32 64
36 -13 c39 -14 169 -18 188 -6 6 4 -26 8 -70 8 -52 1 -96 8 -121 18 -37 17
-38 19 -32 54 3 20 6 57 6 82 0 67 6 71 70 54 30 -8 77 -13 105 -13 47 1 45 2
-30 14 -136 22 -160 45 -137 132 8 29 9 51 2 68 -6 15 -10 40 -10 57 0 28 2
30 28 24 15 -4 65 -9 112 -11 83 -4 83 -4 20 5 -36 4 -84 13 -106 19 -38 10
-42 14 -48 51 -3 23 -1 57 6 80 11 34 17 40 33 36 47 -13 122 -17 145 -7 21 8
13 10 -45 11 -38 1 -86 7 -105 14 -35 13 -35 13 -36 77 -1 35 3 75 8 89 8 24
11 25 96 23 l87 -1 -76 7 c-97 11 -119 22 -119 64 0 51 11 60 66 52 58 -8 42
10 -18 20 -21 4 -38 12 -38 18 0 7 -3 21 -6 33 -4 15 1 23 18 31 32 16 32 16
85 -17z m-660 -132 c138 -51 258 -255 307 -519 24 -134 43 -403 37 -539 -2
-43 -2 -44 -17 -25 -42 54 -103 193 -134 305 -22 79 -25 57 -6 -37 15 -70 43
-143 115 -296 22 -49 41 -92 41 -96 0 -16 -121 -131 -159 -151 -98 -49 -199
-18 -266 83 -50 76 -69 160 -62 277 8 124 30 193 121 375 52 103 77 166 81
200 6 49 6 48 -23 -30 -16 -44 -54 -125 -86 -180 -64 -114 -100 -215 -116
-332 -25 -184 43 -360 164 -422 96 -50 195 -23 299 81 32 32 60 58 62 58 10 0
75 -253 75 -292 0 -11 -26 -48 -57 -82 -64 -68 -267 -327 -330 -421 -88 -130
-143 -271 -143 -364 l0 -41 -109 0 -108 0 39 76 c43 81 100 233 92 245 -9 15
-209 -54 -319 -109 -86 -43 -146 -83 -205 -138 -37 -34 -50 -41 -73 -37 -15 3
-27 8 -26 12 0 8 113 103 189 160 44 32 58 47 50 55 -16 16 -296 20 -376 7
-72 -13 -159 -43 -190 -65 -10 -8 21 -1 71 16 75 26 109 31 215 36 70 2 152 2
183 -2 l57 -7 -53 -42 c-28 -22 -79 -65 -113 -94 -34 -29 -70 -53 -81 -53 -37
0 -219 43 -293 69 -159 56 -347 198 -399 299 l-21 41 80 265 c167 556 267 753
559 1106 292 353 654 626 833 629 21 1 63 -9 95 -21z m1666 -1 c256 -93 695
-507 946 -892 138 -211 235 -440 332 -780 22 -77 59 -196 81 -265 l41 -125 -6
-120 c-21 -407 -161 -844 -365 -1140 -70 -101 -314 -344 -412 -411 -72 -49
-79 -51 -175 -62 -166 -18 -333 13 -424 79 -79 59 -116 160 -92 256 7 26 40
98 74 158 l62 110 3 116 c5 139 -18 248 -79 375 -50 105 -104 164 -235 255
-135 93 -190 142 -252 227 -80 109 -115 190 -146 344 -15 71 -23 328 -11 328
3 0 82 -55 177 -122 332 -238 525 -475 603 -742 28 -98 55 -284 55 -379 -1
-106 -27 -267 -64 -382 -45 -143 -62 -215 -71 -295 -8 -79 -1 -77 14 5 6 33
33 132 61 220 62 202 80 305 80 465 0 236 -56 458 -156 620 -94 154 -249 325
-384 426 -30 22 -102 75 -160 116 -168 121 -154 104 -140 173 11 54 57 205 64
213 2 1 70 -64 152 -146 192 -192 286 -252 393 -252 85 0 194 82 240 179 36
78 37 213 3 283 -33 67 -92 129 -153 163 -46 25 -65 29 -129 30 -41 0 -83 -5
-92 -10 -12 -7 6 -9 61 -7 62 3 87 0 122 -16 66 -31 122 -84 157 -150 29 -54
32 -69 32 -144 0 -75 -4 -92 -31 -146 -35 -71 -89 -118 -161 -143 -59 -20
-105 -12 -183 28 -59 31 -385 351 -385 378 0 10 39 77 86 149 109 165 141 228
159 313 17 79 18 122 5 143 -7 11 -10 3 -10 -30 -1 -64 -17 -126 -51 -195 -34
-69 -170 -275 -182 -275 -4 0 -5 37 -2 83 3 45 10 152 15 237 13 183 31 289
70 404 103 306 261 426 463 353z m-1210 -1807 c0 -99 -6 -213 -16 -285 -10
-65 -17 -122 -17 -126 0 -14 -100 -79 -187 -122 -103 -51 -188 -82 -257 -92
l-49 -8 6 64 c14 138 86 266 321 566 38 48 94 115 125 149 52 56 57 59 65 40
5 -12 9 -95 9 -186z m-2008 -242 c31 -54 115 -136 186 -184 107 -71 209 -113
352 -145 73 -16 136 -31 141 -32 14 -5 -88 -67 -146 -89 -29 -11 -71 -23 -93
-28 l-40 -8 35 -1 c63 -2 176 42 247 95 24 19 39 23 60 18 42 -10 46 -14 30
-32 -25 -31 -59 -96 -78 -151 -31 -89 -22 -82 31 24 69 137 77 146 126 135 33
-7 193 -24 303 -33 l33 -2 -62 -68 c-119 -129 -237 -197 -453 -258 -148 -43
-239 -84 -279 -126 -20 -21 -15 -20 34 10 32 19 97 47 145 61 266 81 316 100
391 147 80 49 158 118 223 195 l34 42 118 3 117 4 11 -35 c46 -143 136 -231
236 -229 67 1 85 18 20 18 -32 1 -70 7 -85 15 -61 32 -130 128 -146 203 -7 30
-5 33 21 38 140 28 327 105 413 169 l35 27 6 -24 c14 -52 30 -363 24 -470 -14
-252 -70 -417 -216 -632 -151 -223 -422 -382 -769 -450 -163 -32 -209 -17
-335 109 -173 173 -310 358 -399 539 -60 122 -206 480 -256 626 -41 123 -70
268 -70 354 0 76 18 197 29 197 4 0 15 -15 26 -32z m1330 -130 c-17 -54 -68
-169 -98 -219 l-33 -54 -89 2 c-105 2 -263 22 -271 34 -8 13 134 113 222 158
69 35 243 100 267 101 5 0 5 -10 2 -22z m3342 -70 c65 -274 100 -578 114
-1003 15 -450 7 -846 -19 -940 -23 -87 -44 -127 -78 -154 l-27 -21 -40 23
c-22 12 -72 52 -111 88 -184 169 -300 245 -493 319 -163 63 -238 102 -238 123
0 9 34 40 77 69 155 107 341 298 441 453 99 155 202 395 257 599 40 151 80
392 80 488 0 26 3 48 8 48 4 0 17 -42 29 -92z m-2006 35 c48 -72 134 -158 225
-224 88 -63 104 -87 142 -209 17 -56 33 -147 46 -265 2 -18 4 -10 5 18 3 96
-34 268 -76 350 -7 15 -10 27 -5 27 16 0 140 -138 161 -178 55 -109 88 -269
84 -410 -1 -53 -15 -87 -107 -260 -101 -190 -19 -371 202 -444 57 -18 91 -22
227 -22 l161 -1 38 -31 c22 -18 92 -52 164 -80 231 -87 340 -152 518 -310 60
-53 111 -99 114 -102 11 -11 -62 12 -188 59 -232 87 -394 119 -672 134 -271
15 -545 82 -777 190 -136 64 -210 139 -246 250 -34 106 -39 204 -21 403 19
218 14 515 -11 677 -16 100 -33 475 -22 475 3 0 20 -21 38 -47z m-2691 -296
c35 -124 211 -569 276 -699 54 -108 133 -230 212 -330 87 -110 250 -276 301
-309 l43 -28 -57 -37 c-32 -20 -103 -55 -159 -79 -165 -69 -217 -99 -367 -212
-79 -59 -166 -120 -194 -135 -125 -69 -195 -11 -236 197 -20 102 -16 950 6
1205 24 283 50 459 97 660 l22 95 13 -110 c6 -60 25 -159 43 -218z m1954 -868
c-10 -309 -42 -420 -149 -517 -70 -65 -144 -107 -251 -143 -182 -62 -299 -83
-524 -94 -346 -16 -467 -43 -785 -174 -82 -34 -145 -58 -140 -52 6 5 78 59
160 120 151 112 206 143 389 222 54 23 125 60 156 81 37 24 69 38 89 38 84 0
282 44 408 90 257 95 478 283 594 505 24 47 47 85 51 85 4 0 5 -73 2 -161z"/>
<path d="M5212 5168 c-13 -17 -42 -88 -36 -88 3 0 14 20 25 44 13 30 27 46 42
49 21 4 21 4 1 6 -12 0 -26 -5 -32 -11z"/>
<path d="M4990 4610 c24 -8 186 -12 165 -5 -5 2 -50 5 -100 8 -49 2 -79 1 -65
-3z"/>
<path d="M4235 4425 c26 -179 27 -196 17 -263 -11 -76 -52 -222 -62 -222 -4 0
-12 19 -19 41 -7 23 -25 65 -41 95 -46 84 -70 169 -71 253 l-1 76 -10 -49
c-14 -74 4 -165 53 -265 22 -47 50 -114 60 -148 11 -35 24 -63 29 -63 5 0 26
53 47 118 34 107 36 126 35 227 -1 82 -6 125 -21 170 -12 33 -19 47 -16 30z"/>
<path d="M4276 4395 c9 -27 18 -98 21 -157 3 -60 9 -108 13 -108 3 0 18 12 33
28 33 34 63 104 70 162 l6 45 -19 -57 c-10 -32 -31 -79 -46 -105 l-29 -48 -6
75 c-8 92 -26 172 -44 196 -11 15 -11 9 1 -31z"/>
<path d="M4016 4348 c-5 -32 -6 -71 -4 -88 5 -36 4 -37 -34 -5 -17 14 -44 33
-62 41 l-31 15 35 -28 c19 -15 50 -42 69 -60 19 -18 37 -33 40 -33 5 0 4 92
-2 180 -2 29 -4 25 -11 -22z"/>
<path d="M3922 4234 c80 -84 133 -164 169 -258 30 -76 33 -91 40 -261 7 -185
16 -236 51 -293 11 -18 19 -35 16 -37 -7 -7 -90 16 -131 37 -59 30 -155 131
-204 215 -24 40 -58 117 -77 172 -43 122 -66 169 -101 201 -27 25 -27 25 3
-20 33 -49 46 -80 87 -210 70 -221 243 -401 400 -417 34 -4 55 -2 55 4 0 6
-14 41 -32 79 -30 66 -32 78 -39 239 -5 96 -15 195 -24 228 -35 134 -123 268
-228 348 -39 30 -38 28 15 -27z"/>
<path d="M3665 3953 c24 -50 58 -173 51 -181 -2 -2 -21 5 -43 16 -32 16 -126
42 -151 42 -17 -1 25 -20 43 -20 17 0 58 -16 154 -57 12 -5 13 4 7 53 -7 59
-39 141 -70 179 -10 11 -6 -3 9 -32z"/>
<path d="M3588 3756 c69 -28 134 -69 173 -113 29 -31 69 -93 69 -107 0 -5 -44
-6 -102 -3 -101 6 -180 26 -226 55 -12 8 -25 12 -28 10 -7 -8 39 -35 97 -58
72 -29 266 -40 275 -17 8 23 -43 112 -89 154 -44 40 -144 90 -197 98 -26 4
-18 -1 28 -19z"/>
<path d="M3450 3575 c8 -10 34 -31 58 -46 l43 -27 -51 -28 c-27 -15 -49 -29
-47 -31 6 -5 127 50 127 57 0 4 -14 13 -30 20 -17 7 -50 26 -73 43 -23 17 -35
22 -27 12z"/>
<path d="M3593 3475 c-58 -16 -138 -53 -130 -61 3 -3 18 1 34 9 61 32 155 49
233 44 104 -8 140 -21 194 -68 53 -47 57 -59 19 -59 -16 -1 -55 -8 -88 -16
-33 -9 -87 -22 -120 -31 -47 -12 -91 -14 -201 -9 -145 7 -225 -2 -274 -31 -17
-9 -18 -12 -5 -8 64 20 135 25 280 19 158 -6 162 -6 276 25 64 17 131 31 150
31 67 0 69 14 9 69 -65 59 -100 78 -171 91 -70 14 -143 12 -206 -5z"/>
<path d="M4110 3261 c-125 -41 -198 -130 -215 -261 -9 -70 -2 -63 19 18 45
178 197 260 373 203 88 -29 154 -62 167 -83 15 -24 2 -54 -84 -192 -86 -137
-130 -179 -255 -241 -111 -55 -203 -75 -346 -75 -139 0 -224 19 -360 80 -58
26 -121 50 -140 54 l-34 6 36 -14 c20 -8 72 -32 116 -55 106 -55 178 -78 281
-92 212 -28 413 22 580 145 50 37 77 68 135 159 146 225 144 243 -29 313 -92
38 -192 52 -244 35z"/>
<path d="M3780 3241 c-153 -33 -301 -118 -370 -213 -17 -23 -30 -46 -30 -51 0
-6 13 8 29 31 82 112 332 228 476 220 l56 -3 -58 -61 c-41 -43 -74 -67 -113
-83 -52 -20 -53 -21 -15 -15 59 9 90 29 160 102 48 50 61 70 53 79 -14 18 -86
15 -188 -6z"/>
<path d="M3345 3240 c-22 -5 -51 -13 -65 -19 -22 -10 -20 -10 10 -4 47 10 237
10 247 0 4 -5 -1 -13 -12 -19 -52 -29 -176 -170 -162 -184 2 -2 17 14 33 37
30 44 117 120 168 146 l31 16 -30 13 c-40 16 -171 25 -220 14z"/>
<path d="M3795 3050 c-71 -34 -69 -37 9 -11 l58 19 -6 -32 c-3 -17 -2 -44 3
-61 9 -28 9 -26 10 20 1 28 4 60 7 73 8 29 -6 28 -81 -8z"/>
<path d="M3245 2729 c35 -13 195 -111 195 -120 0 -3 -26 -13 -57 -23 -56 -18
-153 -62 -153 -70 0 -2 28 7 63 20 34 13 88 31 120 40 31 8 57 19 57 24 0 24
-166 123 -225 134 l-30 6 30 -11z"/>
<path d="M5995 4369 c3 -25 15 -70 26 -99 36 -95 120 -204 140 -182 4 4 9 57
13 117 3 61 8 126 10 145 4 26 1 22 -14 -20 -12 -36 -19 -84 -19 -139 l-1 -84
-24 22 c-33 31 -96 151 -118 226 -18 59 -18 59 -13 14z"/>
<path d="M5966 4328 l5 -56 -42 14 c-23 8 -46 13 -52 11 -5 -1 16 -11 46 -22
31 -10 59 -16 62 -14 3 3 -2 32 -10 65 l-15 59 6 -57z"/>
<path d="M6211 4332 c-22 -69 -26 -211 -7 -276 18 -62 98 -221 111 -221 4 0
15 25 25 55 10 30 30 82 46 115 25 52 29 71 29 150 0 50 -4 98 -10 107 -7 12
-10 -13 -10 -85 0 -94 -3 -108 -32 -172 -18 -39 -37 -83 -43 -100 -11 -30 -11
-29 -57 64 -42 85 -46 101 -51 185 -2 50 1 118 7 150 13 69 9 82 -8 28z"/>
<path d="M5925 4238 c22 -11 51 -30 64 -42 22 -20 149 -207 194 -286 22 -40
87 -203 87 -221 0 -15 -224 194 -272 254 -21 27 -38 46 -38 42 0 -28 72 -113
190 -225 110 -103 141 -128 146 -115 9 23 -22 125 -65 215 -38 79 -169 289
-205 328 -22 26 -107 72 -128 72 -7 -1 5 -10 27 -22z"/>
<path d="M6438 4190 c2 -41 6 -77 9 -79 2 -3 20 12 41 33 35 36 28 41 -10 8
-16 -14 -18 -13 -19 9 0 13 -6 42 -13 64 -12 38 -12 37 -8 -35z"/>
<path d="M6483 4103 c-90 -98 -129 -221 -119 -383 10 -181 18 -270 25 -275 14
-8 157 112 192 163 43 61 69 155 68 239 l-1 58 -13 -77 c-18 -105 -38 -163
-76 -212 -32 -41 -136 -132 -143 -125 -9 9 -36 216 -36 271 0 120 61 281 138
361 14 15 22 27 17 27 -4 0 -28 -21 -52 -47z"/>
<path d="M5925 3970 c10 -36 43 -90 78 -127 l29 -31 -48 -7 c-56 -7 -128 -25
-122 -30 2 -2 21 0 43 5 22 5 64 10 93 10 30 0 52 4 52 11 0 6 -18 31 -39 57
-22 26 -51 67 -66 92 -15 26 -24 35 -20 20z"/>
<path d="M6679 3825 c-3 -33 -4 -62 -2 -64 1 -2 20 7 40 21 21 14 47 31 58 37
11 5 16 10 10 11 -5 0 -29 -11 -52 -24 l-42 -24 -3 51 -3 52 -6 -60z"/>
<path d="M6755 3781 c-16 -10 -40 -29 -51 -42 -29 -33 -108 -188 -100 -196 11
-11 162 14 198 33 37 18 78 53 78 66 0 4 -18 -5 -41 -21 -38 -28 -173 -68
-198 -59 -5 1 9 41 33 88 31 62 53 93 85 117 46 36 44 44 -4 14z"/>
<path d="M6855 3584 c-41 -36 -47 -46 -35 -54 8 -5 23 -10 33 -10 10 0 37 -10
60 -21 28 -15 38 -17 29 -7 -6 8 -31 23 -54 33 -24 11 -45 20 -47 22 -2 1 8
12 23 24 21 17 54 60 44 59 -2 -1 -25 -21 -53 -46z"/>
<path d="M6625 3496 c-109 -35 -193 -105 -237 -198 -44 -92 -70 -167 -65 -182
3 -8 57 -31 119 -51 204 -67 360 -59 487 26 58 38 100 89 120 142 15 40 7 33
-23 -17 -34 -58 -98 -110 -177 -143 -56 -24 -77 -27 -169 -27 -94 1 -117 5
-218 38 -61 21 -114 41 -116 45 -10 15 80 196 120 240 102 113 289 153 429 92
48 -20 49 -20 25 -1 -57 46 -206 64 -295 36z"/>
<path d="M7048 3173 c-51 -74 -50 -81 17 -82 31 0 61 -3 68 -7 9 -5 9 -4 0 6
-6 7 -32 15 -57 17 l-46 6 31 54 c17 30 30 56 28 57 -2 2 -21 -21 -41 -51z"/>
<path d="M6968 3060 c-47 -14 -168 -73 -168 -81 0 -5 19 -18 43 -30 23 -12 72
-43 108 -69 72 -52 141 -80 192 -79 26 0 19 4 -32 19 -38 10 -87 35 -120 59
-31 23 -78 55 -104 72 l-48 31 53 25 c76 35 157 54 203 48 29 -4 35 -2 20 4
-25 12 -110 12 -147 1z"/>
<path d="M6174 2980 c-34 -14 -66 -61 -59 -87 3 -13 31 -64 62 -114 30 -49 80
-145 110 -212 73 -164 127 -242 252 -368 107 -108 163 -145 260 -175 63 -19
164 -18 204 2 39 20 67 44 67 57 0 6 -8 3 -18 -6 -29 -26 -88 -47 -135 -47
-52 0 -148 24 -191 48 -103 57 -245 201 -330 334 -20 32 -60 111 -89 175 -29
65 -78 160 -110 210 -31 51 -57 99 -57 106 0 25 47 59 89 64 112 15 327 -140
402 -290 28 -54 32 -73 38 -191 4 -73 12 -140 17 -149 7 -12 9 1 7 45 -1 35
-4 101 -6 148 -5 123 -41 196 -150 305 -104 104 -200 155 -286 154 -31 0 -66
-4 -77 -9z"/>
<path d="M6530 2950 c0 -5 31 -41 69 -79 79 -79 132 -154 186 -261 47 -95 110
-182 171 -240 l48 -45 -46 55 c-59 72 -105 145 -161 255 -47 95 -99 169 -175
248 l-46 47 44 0 c76 0 181 -28 238 -62 33 -20 77 -60 111 -103 31 -38 80 -94
110 -125 l53 -55 -44 60 c-24 33 -63 85 -86 116 -71 98 -184 172 -277 183
-102 12 -195 15 -195 6z"/>
<path d="M7041 2763 c13 -36 72 -111 101 -131 20 -13 20 -12 -3 14 -32 34 -79
103 -79 115 0 4 26 6 58 3 l57 -4 -60 15 c-85 20 -86 20 -74 -12z"/>
<path d="M6723 2573 c-11 -65 -9 -214 2 -235 7 -11 9 21 7 99 -2 63 0 119 5
124 6 6 21 -13 38 -47 31 -61 108 -151 159 -185 24 -17 22 -13 -11 17 -56 52
-107 123 -149 206 -19 37 -36 68 -39 68 -2 0 -7 -21 -12 -47z"/>
<path d="M6365 2205 c10 -107 52 -305 81 -387 56 -154 98 -215 221 -323 76
-66 103 -98 170 -201 7 -10 4 4 -6 33 -23 65 -54 103 -157 192 -110 95 -165
184 -223 361 -17 53 -61 277 -61 311 0 14 219 -216 266 -278 52 -69 108 -183
123 -248 6 -27 15 -68 20 -90 l9 -40 1 39 c2 59 -27 162 -65 239 -45 90 -101
162 -247 315 -66 70 -124 132 -129 137 -6 6 -7 -16 -3 -60z"/>
<path d="M7045 2021 c-22 -15 -57 -34 -78 -41 -21 -6 -37 -16 -35 -20 2 -4 41
-41 88 -81 57 -49 77 -63 61 -41 -12 18 -45 51 -72 74 l-50 42 43 22 c24 12
54 34 67 48 31 33 26 32 -24 -3z"/>
<path d="M6690 1992 c0 -5 15 -26 33 -48 19 -21 72 -97 120 -169 47 -71 100
-146 118 -165 19 -21 25 -25 16 -10 -9 14 -44 70 -78 125 -34 55 -81 127 -103
160 -23 33 -45 66 -50 73 -10 16 109 -28 170 -64 25 -15 71 -50 102 -78 43
-39 51 -44 35 -20 -53 74 -147 140 -261 180 -70 25 -102 30 -102 16z"/>
<path d="M6332 1818 c-61 -195 -75 -347 -48 -490 13 -69 45 -163 52 -155 2 1
-4 25 -12 52 -25 82 -35 219 -24 325 9 91 34 209 49 238 10 19 154 -267 186
-370 14 -45 32 -117 39 -158 10 -54 14 -65 15 -39 1 53 -25 184 -53 259 -32
88 -169 363 -183 367 -6 2 -16 -11 -21 -29z"/>
<path d="M6824 1698 c3 -13 7 -52 8 -88 l2 -65 5 72 6 71 45 -53 c61 -72 92
-89 35 -20 -25 31 -52 67 -61 81 -21 31 -49 33 -40 2z"/>
<path d="M6580 1493 c0 -5 9 -37 20 -72 25 -80 74 -172 107 -203 21 -19 19
-13 -10 32 -32 48 -87 181 -87 210 0 35 144 -85 192 -159 15 -25 28 -42 28
-38 0 17 -42 89 -72 123 -55 63 -178 137 -178 107z"/>
<path d="M6189 1414 c-31 -68 -50 -145 -48 -198 1 -20 5 -8 14 34 14 70 51
176 64 185 5 2 11 -28 14 -68 3 -40 15 -99 27 -132 33 -89 41 -88 15 3 -13 43
-27 115 -30 160 -4 45 -12 82 -17 82 -5 0 -23 -30 -39 -66z"/>
<path d="M6612 1243 c1 -53 2 -54 5 -14 l4 44 30 -34 30 -34 -31 48 c-17 26
-33 47 -35 47 -3 0 -4 -26 -3 -57z"/>
<path d="M3452 2209 c-35 -17 -89 -36 -120 -44 l-57 -15 54 6 c30 4 85 19 123
34 37 15 68 24 68 20 0 -5 -9 -37 -20 -71 -26 -86 -18 -85 14 1 42 113 39 116
-62 69z"/>
<path d="M4221 2146 c-14 -56 -14 -270 0 -373 34 -260 71 -377 152 -490 39
-55 47 -49 12 8 -79 124 -117 265 -145 539 -15 146 -10 300 9 300 3 0 16 -18
28 -40 13 -21 47 -67 75 -101 126 -148 172 -223 209 -338 l18 -56 -6 45 c-13
101 -70 206 -186 342 -36 43 -82 107 -102 143 -20 36 -40 65 -45 65 -4 0 -13
-20 -19 -44z"/>
<path d="M4069 2039 c-25 -52 -88 -161 -139 -244 -51 -82 -105 -177 -120 -210
-48 -106 -81 -284 -62 -334 7 -20 10 -10 14 50 12 154 61 280 188 479 40 63
90 147 111 185 21 39 39 64 39 57 0 -6 7 -57 15 -111 14 -93 14 -104 -4 -174
-23 -89 -60 -165 -110 -227 -30 -38 -32 -42 -11 -29 39 25 105 129 131 205 27
80 29 162 7 338 l-13 110 -46 -95z"/>
<path d="M3937 2028 c-15 -11 -73 -45 -128 -74 -184 -99 -284 -181 -326 -267
-35 -72 -36 -95 -1 -32 43 79 109 142 218 209 49 31 92 56 94 56 2 0 32 16 66
35 35 20 64 34 66 32 2 -1 -12 -39 -30 -84 -81 -202 -256 -354 -477 -413 -74
-20 -74 -20 -19 -14 128 13 259 80 365 189 39 39 85 96 103 127 29 50 107 246
100 254 -2 1 -16 -7 -31 -18z"/>
<path d="M4450 1964 c0 -1 16 -26 36 -55 48 -71 83 -150 99 -224 12 -52 14
-55 14 -24 1 52 -33 154 -74 222 l-34 57 52 0 c29 0 61 6 70 13 14 10 2 12
-73 12 -49 0 -90 0 -90 -1z"/>
<path d="M3464 1850 c-85 -12 -179 -49 -216 -83 -19 -18 -27 -27 -18 -20 34
26 129 62 202 77 114 23 114 23 67 -36 -37 -47 -89 -137 -89 -154 0 -4 17 19
38 52 21 32 57 81 80 107 23 27 42 52 42 58 0 10 -31 10 -106 -1z"/>
<path d="M4122 1627 c-27 -45 -69 -103 -92 -129 -23 -27 -37 -48 -32 -48 14 0
85 80 128 145 21 31 40 52 42 45 8 -22 -19 -171 -44 -248 -14 -42 -45 -115
-70 -162 -24 -47 -35 -74 -24 -60 58 71 120 212 145 330 16 78 20 196 6 204
-4 3 -31 -32 -59 -77z"/>
<path d="M3680 1548 c-159 -84 -217 -134 -269 -229 -28 -51 -22 -46 44 37 26
34 75 79 109 101 91 59 166 103 166 96 0 -12 -74 -126 -125 -193 -30 -39 -55
-73 -55 -77 0 -8 76 78 122 139 34 45 93 156 86 163 -2 1 -37 -15 -78 -37z"/>
<path d="M4200 1475 c-7 -16 -18 -48 -26 -70 -8 -22 -42 -91 -75 -155 -33 -63
-56 -110 -51 -105 31 31 115 180 139 243 24 67 28 72 36 51 9 -25 4 -209 -7
-244 -3 -11 1 -5 9 13 31 67 31 236 0 278 -13 18 -14 17 -25 -11z"/>
<path d="M3390 1449 l-45 -7 56 2 55 2 -39 -58 c-22 -33 -38 -60 -36 -62 2 -2
28 28 57 65 l53 69 -28 -2 c-15 0 -48 -4 -73 -9z"/>
<path d="M3660 1373 c-28 -32 -56 -67 -61 -78 -6 -11 16 8 48 43 l58 62 0 -94
c0 -52 5 -100 10 -105 7 -7 10 28 9 105 -1 63 -4 117 -7 120 -2 3 -28 -21 -57
-53z"/>
<path d="M4276 1348 c-8 -26 -25 -152 -21 -156 5 -5 25 67 25 90 0 46 12 48
41 8 37 -50 48 -52 18 -2 -13 20 -28 45 -33 55 -13 20 -25 22 -30 5z"/>
<path d="M5941 2093 c-1 -6 4 -24 10 -40 18 -49 40 -166 48 -263 l8 -95 1 75
c2 75 -24 221 -52 295 -8 22 -15 35 -15 28z"/>
<path d="M6046 1639 c-8 -42 0 -50 9 -9 4 17 5 34 2 36 -2 3 -7 -10 -11 -27z"/>
<path d="M5726 1110 c-80 -32 -134 -97 -123 -152 3 -18 5 -15 6 10 1 24 12 44
44 75 46 46 120 74 212 80 38 3 33 4 -20 5 -48 1 -85 -5 -119 -18z"/>
<path d="M4485 1072 c109 -33 153 -80 141 -151 -5 -26 -4 -32 3 -21 18 25 12
75 -11 110 -28 41 -78 67 -143 74 l-50 6 60 -18z"/>
</g>
</svg>
