<?xml version="1.0" standalone="no"?>
<!DOCTYPE svg PUBLIC "-//W3C//DTD SVG 20010904//EN"
 "http://www.w3.org/TR/2001/REC-SVG-20010904/DTD/svg10.dtd">
<svg version="1.0" xmlns="http://www.w3.org/2000/svg"
 width="1024.000000pt" height="559.000000pt" viewBox="0 0 1024.000000 559.000000"
 preserveAspectRatio="xMidYMid meet">
<metadata>
Created by potrace 1.16, written by Peter Selinger 2001-2019
</metadata>
<g transform="translate(0.000000,559.000000) scale(0.100000,-0.100000)"
fill="#000000" stroke="none">
<path d="M4601 5088 c-53 -139 -171 -319 -357 -544 -186 -224 -238 -323 -329
-628 -123 -415 -140 -508 -140 -786 0 -144 5 -236 17 -310 9 -58 22 -148 28
-200 53 -454 111 -733 235 -1118 120 -375 159 -585 158 -847 -1 -93 -3 -181
-5 -194 -6 -43 20 -34 33 11 33 112 6 464 -56 722 -14 59 -25 111 -24 114 0 4
50 -92 110 -213 60 -121 109 -217 109 -213 0 26 -72 183 -171 370 -167 315
-288 796 -354 1396 -8 79 -21 167 -28 195 -7 33 -11 138 -11 282 0 199 3 245
22 344 32 155 61 264 127 475 89 279 127 352 288 548 237 290 334 439 388 597
23 65 24 81 5 81 -9 0 -27 -33 -45 -82z"/>
<path d="M5792 4977 c-6 -7 -20 -46 -31 -86 -11 -41 -32 -95 -46 -120 -69
-124 -95 -188 -101 -250 -8 -74 -16 -66 -43 41 -19 76 -25 105 -63 275 -12 56
-23 101 -25 99 -6 -6 37 -246 63 -351 13 -55 36 -128 49 -163 14 -34 25 -66
25 -71 0 -5 -47 9 -105 30 -173 64 -164 44 12 -25 174 -69 233 -117 297 -243
19 -37 77 -128 129 -202 231 -328 381 -634 448 -912 17 -70 23 -124 23 -214 0
-134 -11 -181 -72 -298 -33 -65 -35 -71 -28 -140 30 -321 37 -414 43 -567 3
-113 1 -206 -6 -260 -38 -274 -41 -312 -30 -404 12 -106 13 -518 1 -559 l-7
-28 -14 38 c-57 167 -146 359 -229 495 -95 156 -106 185 -107 283 0 50 6 147
14 216 13 113 13 144 -2 300 -26 270 -82 716 -118 943 -12 70 -18 143 -15 161
4 19 27 64 53 101 57 83 101 179 108 236 5 40 3 38 -19 -24 -25 -68 -76 -168
-87 -168 -3 0 3 32 13 72 68 270 32 575 -100 833 -37 73 -64 108 -142 185
-108 109 -190 158 -316 190 -69 18 -206 28 -192 15 3 -3 39 -12 81 -20 181
-35 299 -98 418 -223 89 -94 145 -195 189 -342 74 -250 78 -406 18 -655 -16
-67 -45 -136 -114 -270 -81 -159 -144 -306 -144 -336 0 -6 27 43 59 108 60
117 130 237 137 231 8 -9 105 -760 133 -1036 14 -131 14 -259 0 -342 -6 -36
-11 -104 -12 -152 -2 -105 -2 -106 -95 72 -35 66 -65 120 -68 120 -13 0 80
-177 132 -252 19 -26 44 -74 57 -105 13 -32 60 -120 105 -196 85 -146 149
-288 213 -472 21 -60 44 -111 52 -113 36 -8 61 443 38 672 -11 102 -10 129 13
310 15 109 26 248 26 310 0 115 -21 389 -45 581 l-13 109 38 71 c55 99 72 177
72 315 -1 312 -154 678 -482 1150 -59 85 -120 180 -135 210 -39 76 -63 107
-118 147 -26 19 -55 49 -63 65 -35 68 -10 232 50 326 47 75 69 129 88 211 10
47 18 86 18 88 0 8 -19 2 -28 -10z"/>
<path d="M4996 4920 c3 -19 19 -75 36 -125 57 -174 118 -270 207 -327 65 -41
71 -34 12 12 -87 69 -150 175 -226 380 -20 52 -33 79 -29 60z"/>
<path d="M4739 4345 c-69 -14 -168 -50 -254 -93 -63 -31 -232 -135 -265 -163
l-25 -21 25 14 c310 182 458 245 633 267 l62 8 -55 1 c-30 0 -85 -6 -121 -13z"/>
<path d="M5230 4315 c-49 -33 -57 -35 -134 -35 -90 -1 -139 -15 -192 -55 -46
-35 -37 -44 13 -11 48 32 108 45 202 46 65 0 79 3 109 27 19 14 51 34 71 44
34 17 35 18 10 19 -15 0 -50 -16 -79 -35z"/>
<path d="M5363 4210 c149 -94 256 -252 302 -448 10 -40 20 -71 22 -68 6 6 -25
130 -49 196 -29 80 -72 152 -131 217 -49 53 -157 133 -181 133 -5 0 11 -13 37
-30z"/>
<path d="M4454 4110 c-22 -16 -53 -48 -68 -72 l-28 -43 58 56 c33 31 70 64 84
73 14 9 18 16 10 16 -8 -1 -33 -14 -56 -30z"/>
<path d="M4352 4078 c-109 -59 -207 -133 -240 -183 -33 -50 -76 -154 -68 -163
3 -3 8 4 12 14 22 66 60 134 92 168 30 31 136 106 258 183 38 24 5 12 -54 -19z"/>
<path d="M4773 4073 c-11 -25 -17 -73 -19 -138 l-2 -100 8 95 c4 52 15 114 24
138 19 52 11 56 -11 5z"/>
<path d="M4318 3845 c-29 -157 21 -358 134 -532 116 -179 258 -287 548 -418
164 -74 238 -123 350 -229 62 -59 77 -70 56 -41 -93 129 -180 193 -446 323
-236 116 -332 185 -430 310 -68 87 -152 248 -176 337 -9 33 -19 112 -23 175
-5 92 -8 107 -13 75z"/>
<path d="M4825 3515 c12 -58 78 -221 123 -305 61 -114 100 -174 171 -262 87
-109 103 -116 26 -12 -127 170 -225 345 -296 531 -16 43 -27 65 -24 48z"/>
<path d="M4234 3318 c-44 -48 -97 -117 -124 -163 -32 -55 -23 -44 50 55 34 47
74 97 88 113 14 15 24 27 21 27 -3 0 -19 -15 -35 -32z"/>
<path d="M5737 3192 c-7 -96 -33 -230 -71 -367 -14 -49 -25 -94 -25 -100 1
-22 52 137 75 235 22 95 45 320 32 320 -3 0 -8 -39 -11 -88z"/>
<path d="M4520 3109 c41 -122 49 -176 60 -409 23 -492 88 -728 315 -1145 81
-147 182 -458 191 -585 7 -100 22 -164 50 -219 13 -25 39 -99 59 -165 33 -114
56 -166 74 -166 16 0 20 13 10 33 -6 11 -26 71 -44 133 -19 62 -39 122 -45
133 -13 24 -3 26 24 6 11 -8 26 -15 35 -15 8 0 -6 14 -31 30 -60 40 -78 81
-88 199 -12 131 -24 181 -87 361 -48 137 -118 289 -203 445 -122 222 -220 634
-220 925 0 213 -46 418 -114 505 -10 13 -5 -12 14 -66z"/>
<path d="M4150 3119 c-87 -62 -160 -126 -160 -142 0 -5 15 6 32 24 18 18 74
63 125 102 82 61 100 77 90 77 -1 0 -40 -27 -87 -61z"/>
<path d="M3901 2964 c0 -11 3 -14 6 -6 3 7 2 16 -1 19 -3 4 -6 -2 -5 -13z"/>
<path d="M3914 2875 c7 -119 94 -355 148 -400 23 -20 23 -20 6 0 -46 54 -116
249 -144 395 l-14 75 4 -70z"/>
<path d="M4395 2704 c-89 -50 -162 -75 -240 -84 l-70 -7 66 -2 c93 -2 245 55
295 110 21 24 22 24 -51 -17z"/>
<path d="M5951 2514 c59 -65 209 -140 261 -132 18 3 13 7 -22 17 -61 18 -147
62 -203 105 -56 43 -70 46 -36 10z"/>
<path d="M5490 2413 c0 -6 9 -48 21 -93 45 -182 62 -489 38 -685 -6 -49 -24
-135 -40 -190 -33 -115 -37 -145 -8 -65 95 260 104 631 23 939 -23 88 -34 119
-34 94z"/>
<path d="M4851 2374 c-2 -25 44 -145 85 -224 24 -47 66 -111 93 -141 49 -55
153 -146 137 -120 -6 9 -4 12 5 9 22 -6 66 -104 97 -213 28 -98 44 -180 82
-435 l19 -125 -5 90 c-10 173 -50 395 -94 526 -34 101 -65 155 -97 166 -29 10
-116 95 -163 158 -44 59 -92 151 -131 250 -15 39 -28 65 -28 59z"/>
<path d="M4951 1984 c0 -11 3 -14 6 -6 3 7 2 16 -1 19 -3 4 -6 -2 -5 -13z"/>
<path d="M4941 1887 c-1 -99 16 -256 34 -305 17 -45 19 -30 5 35 -6 26 -17
116 -24 198 -12 130 -14 139 -15 72z"/>
<path d="M5001 1546 c-2 -26 97 -361 105 -354 2 3 -16 74 -40 159 -44 152 -64
212 -65 195z"/>
<path d="M4804 1378 c-25 -51 -73 -145 -107 -208 -75 -144 -60 -133 26 20 60
104 142 280 132 280 -2 0 -25 -42 -51 -92z"/>
<path d="M5534 1343 c-9 -32 -17 -87 -17 -123 -1 -115 53 -188 221 -301 140
-94 189 -138 269 -236 37 -46 68 -83 70 -83 2 0 -19 33 -47 74 -73 105 -147
175 -275 261 -205 135 -252 225 -210 400 18 77 12 83 -11 8z"/>
<path d="M5471 1304 c0 -11 3 -14 6 -6 3 7 2 16 -1 19 -3 4 -6 -2 -5 -13z"/>
<path d="M5196 977 c-26 -11 -23 -12 45 -12 41 0 90 -3 109 -7 l35 -8 -34 16
c-47 21 -120 27 -155 11z"/>
<path d="M5597 935 c15 -130 109 -359 182 -445 23 -27 16 -9 -29 75 -65 119
-110 228 -130 315 -21 90 -29 110 -23 55z"/>
<path d="M5400 828 c-13 -29 -29 -69 -37 -88 l-14 -35 19 24 c19 24 65 141 59
148 -3 2 -15 -20 -27 -49z"/>
<path d="M5270 696 c0 -2 8 -10 18 -17 15 -13 16 -12 3 4 -13 16 -21 21 -21
13z"/>
<path d="M5310 665 c0 -12 153 -235 162 -235 11 0 10 2 -75 128 -63 93 -87
123 -87 107z"/>
</g>
</svg>
